# https://github.com/mikedh/trimesh
v 0.00546468 -0.00524152 -0.00373882
v 0.00398697 -0.00394140 -0.00373882
v 0.00398784 -0.00394037 -0.00417947
v 0.00546468 -0.00523844 -0.00417947
v 0.00546468 -0.00524152 0.00373882
v 0.00398697 -0.00393935 -0.00418172
v 0.00398697 -0.00394140 0.00373770
v 0.00546468 -0.00521381 -0.00427165
v 0.00546468 -0.00523947 0.00403446
v 0.00398784 -0.00394037 0.00417947
v 0.00398697 -0.00379056 -0.00464598
v 0.00398697 -0.00393935 0.00417723
v 0.00546468 -0.00505476 -0.00463025
v 0.00546468 -0.00523844 0.00417947
v 0.00398697 -0.00379056 0.00464598
v 0.00398697 -0.00367974 -0.00479324
v 0.00546468 -0.00504553 -0.00464486
v 0.00546468 -0.00505476 0.00463025
v 0.00546468 -0.00502603 0.00466734
v 0.00398697 -0.00359046 0.00489891
v 0.00398697 -0.00359046 -0.00489891
v 0.00546468 -0.00502603 -0.00466734
v 0.00546468 -0.00465457 0.00498884
v 0.00398697 -0.00322310 0.00521254
v 0.00546468 -0.00485979 -0.00484046
v 0.00398697 -0.00348066 -0.00499558
v 0.00546468 -0.00459505 0.00503605
v 0.00398697 -0.00311125 0.00530584
v 0.00398697 -0.00302711 -0.00538341
v 0.00546468 -0.00456940 -0.00505629
v 0.00546468 -0.00416202 0.00534743
v 0.00398697 -0.00284548 0.00551493
v 0.00398697 -0.00284548 -0.00551493
v 0.00546468 -0.00410456 -0.00539127
v 0.00546468 -0.00412713 0.00537217
v 0.00398697 -0.00256330 0.00570490
v 0.00398697 -0.00268335 -0.00562509
v 0.00398697 -0.00256330 -0.00570490
v 0.00546468 -0.00370231 -0.00563408
v 0.00546468 -0.00372694 0.00561722
v 0.00546468 -0.00367255 0.00564870
v 0.00482282 -0.00309073 0.00572514
v 0.00402459 -0.00257458 0.00571165
v 0.00398697 -0.00235909 0.00573188
v 0.00398697 -0.00253456 -0.00571390
v 0.00402459 -0.00257458 -0.00571165
v 0.00482282 -0.00309073 -0.00572514
v 0.00546468 -0.00367255 -0.00564870
v 0.00534418 -0.00345501 0.00571165
v 0.00546468 -0.00333495 0.00572851
v 0.00546468 -0.00329391 0.00573188
v 0.00505992 -0.00314922 0.00572851
v 0.00477176 -0.00301172 0.00572739
v 0.00465371 -0.00282907 0.00573188
v 0.00505992 -0.00285985 0.00573975
v 0.00398697 -0.00197942 0.00574200
v 0.00398697 -0.00235909 -0.00573188
v 0.00546468 -0.00350324 -0.00571727
v 0.00534418 -0.00345501 -0.00571165
v 0.00477176 -0.00301172 -0.00572739
v 0.00505992 -0.00314922 -0.00572851
v 0.00546468 -0.00327441 -0.00573301
v 0.00546468 -0.00329391 -0.00573188
v 0.00546468 -0.00288242 0.00574088
v 0.00462001 -0.00241861 0.00574200
v 0.00398697 0.00197942 0.00574200
v 0.00398697 -0.00223185 -0.00573638
v 0.00465371 -0.00282907 -0.00573188
v 0.00505992 -0.00285985 -0.00573975
v 0.00546468 -0.00282393 -0.00574200
v 0.00546468 -0.00241964 0.00574200
v 0.00477176 -0.00241964 0.00574200
v 0.00462001 0.00241861 0.00574200
v 0.00505992 0.00285985 0.00573975
v 0.00398697 0.00223185 0.00573638
v 0.00398697 -0.00197942 -0.00574200
v 0.00462001 -0.00241861 -0.00574200
v 0.00546468 0.00241964 -0.00574200
v 0.00546468 0.00282393 0.00574200
v 0.00546468 0.00327441 0.00573301
v 0.00465371 0.00282907 0.00573188
v 0.00398697 0.00235909 0.00573188
v 0.00398697 0.00197942 -0.00574200
v 0.00477176 0.00241964 -0.00574200
v 0.00546468 0.00288242 -0.00574088
v 0.00546468 0.00329391 0.00573188
v 0.00482282 0.00309073 0.00572514
v 0.00505992 0.00314922 0.00572851
v 0.00477176 0.00301172 0.00572739
v 0.00398697 0.00253456 0.00571390
v 0.00505992 0.00285985 -0.00573975
v 0.00462001 0.00241861 -0.00574200
v 0.00398697 0.00235909 -0.00573188
v 0.00546468 0.00329391 -0.00573188
v 0.00546468 0.00350324 0.00571727
v 0.00534418 0.00345501 0.00571165
v 0.00546468 0.00367255 0.00564870
v 0.00546468 0.00370231 0.00563408
v 0.00398697 0.00256330 0.00570490
v 0.00402459 0.00257458 0.00571165
v 0.00465371 0.00282907 -0.00573188
v 0.00505992 0.00314922 -0.00572851
v 0.00477176 0.00301172 -0.00572739
v 0.00398697 0.00256330 -0.00570490
v 0.00402459 0.00257458 -0.00571165
v 0.00482282 0.00309073 -0.00572514
v 0.00546468 0.00333495 -0.00572851
v 0.00546468 0.00410456 0.00539128
v 0.00398697 0.00268335 0.00562509
v 0.00398697 0.00284548 -0.00551493
v 0.00546468 0.00412713 -0.00537216
v 0.00546468 0.00372694 -0.00561722
v 0.00546468 0.00367255 -0.00564870
v 0.00534418 0.00345501 -0.00571165
v 0.00546468 0.00456940 0.00505629
v 0.00398697 0.00284548 0.00551493
v 0.00546468 0.00416202 -0.00534743
v 0.00398697 0.00311125 -0.00530584
v 0.00546468 0.00459505 -0.00503605
v 0.00546468 0.00485979 0.00484046
v 0.00398697 0.00302711 0.00538341
v 0.00398697 0.00322310 -0.00521254
v 0.00546468 0.00465457 -0.00498884
v 0.00546468 0.00502603 0.00466734
v 0.00398697 0.00359046 0.00489891
v 0.00398697 0.00348066 0.00499559
v 0.00398697 0.00359046 -0.00489891
v 0.00546468 0.00502603 -0.00466734
v 0.00546468 0.00504553 0.00464486
v 0.00398697 0.00367974 0.00479324
v 0.00398697 0.00379056 -0.00464598
v 0.00546468 0.00505476 -0.00463025
v 0.00546468 0.00505476 0.00463025
v 0.00398697 0.00379056 0.00464598
v 0.00398697 0.00393935 -0.00417947
v 0.00398784 0.00394037 -0.00417947
v 0.00546468 0.00523844 -0.00417947
v 0.00546468 0.00521381 0.00427165
v 0.00398784 0.00394037 0.00417947
v 0.00398697 0.00393935 0.00417947
v 0.00398697 0.00394140 -0.00373882
v 0.00546468 0.00524152 -0.00373882
v 0.00546468 0.00523947 -0.00403446
v 0.00546468 0.00523844 0.00417947
v 0.00546468 0.00524152 0.00373882
v 0.00398697 0.00394140 0.00373882
f 1 2 3
f 1 3 4
f 1 4 8
f 1 8 13
f 1 13 17
f 1 17 22
f 1 22 25
f 1 25 30
f 1 30 34
f 1 34 39
f 1 39 48
f 1 48 58
f 1 58 63
f 1 63 62
f 1 62 70
f 1 70 78
f 1 78 85
f 1 85 94
f 1 94 107
f 1 107 113
f 1 113 112
f 1 112 111
f 1 111 117
f 1 117 119
f 1 119 123
f 1 123 128
f 1 128 132
f 1 132 137
f 1 137 143
f 1 143 142
f 1 142 145
f 1 145 144
f 1 144 138
f 1 138 133
f 1 133 129
f 1 129 124
f 1 124 120
f 1 120 115
f 1 115 108
f 1 108 98
f 1 98 97
f 1 97 95
f 1 95 86
f 1 86 80
f 1 80 79
f 1 79 71
f 1 71 64
f 1 64 51
f 1 51 50
f 1 50 41
f 1 41 40
f 1 40 35
f 1 35 31
f 1 31 27
f 1 27 23
f 1 23 19
f 1 19 18
f 1 18 14
f 1 14 9
f 1 9 5
f 1 5 7
f 1 7 2
f 2 6 3
f 2 7 12
f 2 12 15
f 2 15 20
f 2 20 24
f 2 24 28
f 2 28 32
f 2 32 36
f 2 36 44
f 2 44 56
f 2 56 66
f 2 66 75
f 2 75 82
f 2 82 90
f 2 90 99
f 2 99 109
f 2 109 116
f 2 116 121
f 2 121 126
f 2 126 125
f 2 125 130
f 2 130 134
f 2 134 140
f 2 140 146
f 2 146 141
f 2 141 135
f 2 135 131
f 2 131 127
f 2 127 122
f 2 122 118
f 2 118 110
f 2 110 104
f 2 104 93
f 2 93 83
f 2 83 76
f 2 76 67
f 2 67 57
f 2 57 45
f 2 45 38
f 2 38 37
f 2 37 33
f 2 33 29
f 2 29 26
f 2 26 21
f 2 21 16
f 2 16 11
f 2 11 6
f 3 6 4
f 4 6 8
f 5 9 10
f 5 10 7
f 6 11 8
f 7 10 12
f 8 11 13
f 9 14 10
f 10 14 15
f 10 15 12
f 11 16 17
f 11 17 13
f 14 18 15
f 15 19 20
f 15 18 19
f 16 21 17
f 17 21 22
f 19 23 20
f 20 23 24
f 21 25 22
f 21 26 25
f 23 27 28
f 23 28 24
f 25 26 29
f 25 29 30
f 27 31 32
f 27 32 28
f 29 33 30
f 30 33 34
f 31 35 32
f 32 35 36
f 33 37 34
f 34 37 38
f 34 38 39
f 35 40 36
f 36 40 41
f 36 41 42
f 36 42 43
f 36 43 44
f 38 45 46
f 38 46 47
f 38 47 39
f 39 47 48
f 41 49 42
f 41 50 49
f 42 49 50
f 42 50 51
f 42 51 52
f 42 52 53
f 42 53 44
f 42 44 43
f 44 53 54
f 44 54 55
f 44 55 56
f 45 47 46
f 45 57 47
f 47 58 59
f 47 59 48
f 47 57 60
f 47 60 61
f 47 61 62
f 47 62 63
f 47 63 58
f 48 59 58
f 51 64 55
f 51 55 52
f 52 55 54
f 52 54 53
f 55 64 65
f 55 65 56
f 56 65 72
f 56 72 71
f 56 71 79
f 56 79 73
f 56 73 66
f 57 67 68
f 57 68 60
f 60 68 62
f 60 62 61
f 62 68 69
f 62 69 70
f 64 71 72
f 64 72 65
f 66 73 74
f 66 74 75
f 67 76 69
f 67 69 68
f 69 76 77
f 69 77 70
f 70 77 76
f 70 76 83
f 70 83 92
f 70 92 84
f 70 84 78
f 73 79 74
f 74 79 80
f 74 80 81
f 74 81 75
f 75 81 82
f 78 84 85
f 80 86 87
f 80 87 88
f 80 88 89
f 80 89 81
f 81 89 82
f 82 89 87
f 82 87 90
f 83 91 92
f 83 93 91
f 84 92 85
f 85 92 91
f 85 91 94
f 86 95 87
f 87 95 96
f 87 96 97
f 87 97 98
f 87 98 99
f 87 99 100
f 87 100 90
f 87 89 88
f 90 100 99
f 91 93 101
f 91 101 102
f 91 102 94
f 93 103 101
f 93 104 105
f 93 105 106
f 93 106 103
f 94 102 106
f 94 106 107
f 95 97 96
f 98 108 99
f 99 108 109
f 101 103 102
f 102 103 106
f 104 110 111
f 104 111 112
f 104 112 113
f 104 113 106
f 104 106 105
f 106 113 114
f 106 114 107
f 107 114 113
f 108 115 116
f 108 116 109
f 110 117 111
f 110 118 119
f 110 119 117
f 115 120 121
f 115 121 116
f 118 122 123
f 118 123 119
f 120 124 125
f 120 125 126
f 120 126 121
f 122 127 123
f 123 127 128
f 124 129 125
f 125 129 130
f 127 131 128
f 128 131 132
f 129 133 134
f 129 134 130
f 131 135 136
f 131 136 137
f 131 137 132
f 133 138 134
f 134 138 139
f 134 139 140
f 135 141 136
f 136 141 142
f 136 142 143
f 136 143 137
f 138 144 139
f 139 144 145
f 139 145 146
f 139 146 140
f 141 146 145
f 141 145 142

