# https://github.com/mikedh/trimesh
v 0.00857958 0.01287091 -0.00574200
v 0.00819882 0.01287091 -0.00573413
v 0.00814004 0.01342037 -0.00574200
v 0.00857958 0.02045969 -0.00574200
v 0.00900487 0.01738033 -0.00573076
v 0.00900443 0.01518066 -0.00573076
v 0.00900398 0.01368638 -0.00573076
v 0.00900354 0.01298098 -0.00573076
v 0.00900309 0.01287091 -0.00573076
v 0.00813470 0.01287091 -0.00573188
v 0.00810887 0.01294980 -0.00573301
v 0.00569250 0.01636947 -0.00573301
v 0.00569250 0.01651899 -0.00573638
v 0.00569250 0.01674832 -0.00574088
v 0.00569250 0.01694095 -0.00574200
v 0.00569250 0.02045969 -0.00574200
v 0.00569250 0.02070645 -0.00573975
v 0.00857958 0.02089908 -0.00573750
v 0.00897414 0.02089908 -0.00572851
v 0.00900443 0.02045969 -0.00573076
v 0.00900487 0.01869849 -0.00573076
v 0.00909037 0.01368638 -0.00572626
v 0.00922308 0.01287091 -0.00571839
v 0.00793029 0.01287091 -0.00572064
v 0.00569250 0.01626857 -0.00572739
v 0.00569250 0.02089908 -0.00573750
v 0.00569250 0.02103851 -0.00573188
v 0.00857958 0.02114583 -0.00572626
v 0.00889532 0.02113758 -0.00572401
v 0.00919414 0.02089908 -0.00571727
v 0.00922442 0.02045969 -0.00571839
v 0.00922442 0.01518066 -0.00571839
v 0.00922397 0.01368638 -0.00571839
v 0.00931660 0.01368638 -0.00568130
v 0.00945955 0.01287091 -0.00562284
v 0.00569250 0.01626398 -0.00572626
v 0.00783098 0.01287091 -0.00564982
v 0.00569250 0.02114583 -0.00572626
v 0.00569250 0.02126967 -0.00569029
v 0.00857958 0.02136598 -0.00566106
v 0.00903337 0.02130636 -0.00566556
v 0.00946000 0.02133846 -0.00554303
v 0.00946000 0.02089908 -0.00561947
v 0.00946000 0.02045969 -0.00562284
v 0.00946000 0.01368638 -0.00562284
v 0.00960117 0.01368638 -0.00553741
v 0.00981715 0.01287091 -0.00540476
v 0.00748318 0.01287091 -0.00536542
v 0.00569250 0.01601173 -0.00559024
v 0.00569250 0.02136598 -0.00566106
v 0.00569250 0.02158705 -0.00553741
v 0.00857958 0.02175950 -0.00544074
v 0.00901912 0.02175033 -0.00543399
v 0.00946000 0.02167694 -0.00537441
v 0.00971072 0.02159439 -0.00530809
v 0.00976995 0.02133846 -0.00536092
v 0.00981493 0.02089908 -0.00540252
v 0.00981671 0.02045969 -0.00540364
v 0.00981671 0.01913970 -0.00540476
v 0.00981715 0.01368638 -0.00540476
v 0.00990399 0.01368638 -0.00530022
v 0.01003715 0.01287091 -0.00513947
v 0.00569250 0.01587688 -0.00551156
v 0.00703651 0.01287091 -0.00495174
v 0.00569250 0.02175950 -0.00544074
v 0.00569250 0.02188334 -0.00533394
v 0.00857958 0.02197965 -0.00525076
v 0.00901912 0.02197140 -0.00523839
v 0.00949429 0.02191269 -0.00508214
v 0.00966396 0.02199066 -0.00478650
v 0.00979444 0.02168887 -0.00505966
v 0.01000063 0.02134030 -0.00504505
v 0.01003492 0.02089908 -0.00513610
v 0.01003670 0.02045969 -0.00513947
v 0.01003715 0.01368638 -0.00513947
v 0.01008435 0.01368638 -0.00505292
v 0.01006654 0.01287091 -0.00508551
v 0.00697817 0.01287091 -0.00489666
v 0.00569250 0.01569985 -0.00539914
v 0.00569250 0.02197965 -0.00525076
v 0.00857958 0.02209615 -0.00503043
v 0.00901912 0.02208789 -0.00501807
v 0.00937093 0.02205395 -0.00495062
v 0.00949429 0.02208331 -0.00463137
v 0.00969602 0.02201084 -0.00449310
v 0.00984744 0.02181821 -0.00463137
v 0.01009727 0.02149624 -0.00461900
v 0.01014180 0.02119445 -0.00488879
v 0.01015427 0.02089908 -0.00491690
v 0.01015650 0.02045969 -0.00492027
v 0.01015650 0.01368638 -0.00492027
v 0.01015605 0.01287091 -0.00492027
v 0.00569250 0.01491556 -0.00486856
v 0.00569250 0.01502930 -0.00495287
v 0.00569250 0.01537146 -0.00518331
v 0.00684101 0.01287091 -0.00471006
v 0.00569250 0.02209615 -0.00503043
v 0.00857958 0.02221632 -0.00461900
v 0.00901912 0.02220347 -0.00461900
v 0.00946000 0.02212642 -0.00417947
v 0.00970404 0.02201818 -0.00417947
v 0.00991735 0.02177968 -0.00417947
v 0.01011241 0.02153843 -0.00417947
v 0.01016496 0.02127609 -0.00461900
v 0.01021350 0.02089908 -0.00461900
v 0.01021751 0.02045969 -0.00461900
v 0.01021751 0.01368638 -0.00461900
v 0.01021706 0.01287091 -0.00461900
v 0.00569250 0.01490088 -0.00485619
v 0.00678045 0.01287091 -0.00462013
v 0.00569250 0.02221632 -0.00461900
v 0.00569250 0.02223099 -0.00437170
v 0.00857958 0.02224200 -0.00417947
v 0.00901912 0.02222916 -0.00417947
v 0.00946000 0.02212642 0.00417947
v 0.00970449 0.02201818 -0.00373882
v 0.00991780 0.02177968 -0.00329929
v 0.01011330 0.02153935 -0.00329929
v 0.01017743 0.02131828 -0.00417947
v 0.01023888 0.02089908 -0.00417947
v 0.01024200 0.02045969 -0.00417947
v 0.01024200 0.01287091 -0.00417947
v 0.01022330 0.01287091 -0.00450997
v 0.00569250 0.01464954 -0.00459765
v 0.00657025 0.01313509 -0.00446163
v 0.00569250 0.01451287 -0.00441666
v 0.00569250 0.01453121 -0.00444814
v 0.00665842 0.01287091 -0.00417947
v 0.00569250 0.02224200 -0.00417947
v 0.00857958 0.02224200 0.00417947
v 0.00901912 0.02222916 0.00417947
v 0.00901912 0.02220347 0.00461901
v 0.00949563 0.02208331 0.00463474
v 0.00969602 0.02201084 0.00449760
v 0.00970404 0.02201818 0.00417947
v 0.00970449 0.02201818 -0.00065986
v 0.01011330 0.02154027 -0.00153892
v 0.00991780 0.02177968 0.00417947
v 0.01017743 0.02132012 -0.00241910
v 0.01017743 0.02131920 -0.00373882
v 0.01023888 0.02089908 0.00109939
v 0.01024200 0.02045969 0.00417947
v 0.01024200 0.01287091 0.00417947
v 0.00569250 0.01449269 -0.00417947
v 0.00665753 0.01287091 -0.00375119
v 0.00569250 0.02224200 0.00417947
v 0.00857958 0.02221632 0.00461901
v 0.00901912 0.02208881 0.00501919
v 0.00937316 0.02205487 0.00495174
v 0.00966619 0.02199158 0.00479212
v 0.00984877 0.02181821 0.00463474
v 0.01011330 0.02154027 0.00417947
v 0.01017743 0.02132012 0.00153892
v 0.01017698 0.02132012 0.00417947
v 0.01023799 0.02089908 0.00417947
v 0.01021350 0.02089908 0.00461901
v 0.01021617 0.02045969 0.00461901
v 0.01021662 0.01368638 0.00461901
v 0.01021662 0.01287091 0.00461901
v 0.00569250 0.01449177 -0.00373882
v 0.00665753 0.01287091 0.00373882
v 0.00569250 0.02221632 0.00461901
v 0.00857958 0.02209615 0.00503156
v 0.00857958 0.02198057 0.00525188
v 0.00901912 0.02197231 0.00523952
v 0.00949563 0.02191361 0.00508214
v 0.01009905 0.02149899 0.00461901
v 0.00971028 0.02159347 0.00530697
v 0.00979444 0.02168979 0.00505966
v 0.01016496 0.02127884 0.00461901
v 0.01014180 0.02119720 0.00488767
v 0.01015427 0.02089908 0.00491577
v 0.01015561 0.02045969 0.00491915
v 0.01019257 0.01368638 0.00473816
v 0.01015561 0.01287091 0.00491915
v 0.00569250 0.01449177 0.00374332
v 0.00665798 0.01287091 0.00416711
v 0.00569250 0.02209615 0.00503156
v 0.00569250 0.02198057 0.00525188
v 0.00857958 0.02176042 0.00544186
v 0.00901912 0.02175125 0.00543399
v 0.00946000 0.02167694 0.00537441
v 0.01000063 0.02134213 0.00504505
v 0.00946000 0.02133846 0.00554191
v 0.00976906 0.02133846 0.00536092
v 0.01003448 0.02089908 0.00513610
v 0.01003715 0.02045969 0.00513835
v 0.01010929 0.01368638 0.00500570
v 0.01003715 0.01287091 0.00513835
v 0.00569250 0.01449269 0.00417947
v 0.00665842 0.01287091 0.00417947
v 0.00569250 0.02185673 0.00535868
v 0.00638054 0.02176042 0.00544186
v 0.00857958 0.02136873 0.00566106
v 0.00903026 0.02130727 0.00566556
v 0.00918167 0.02089908 0.00571615
v 0.00946000 0.02089908 0.00561947
v 0.00981448 0.02089908 0.00540252
v 0.00981715 0.02045969 0.00540476
v 0.00995075 0.01368638 0.00524402
v 0.00998282 0.01287091 0.00520467
v 0.00570453 0.01450094 0.00442791
v 0.00569250 0.01453121 0.00444814
v 0.00674526 0.01287091 0.00450210
v 0.00569250 0.02176042 0.00544074
v 0.00569250 0.02153935 0.00556551
v 0.00569250 0.02136873 0.00566106
v 0.00857958 0.02114858 0.00572739
v 0.00889087 0.02113849 0.00572514
v 0.00896212 0.02089908 0.00572851
v 0.00898795 0.02045969 0.00573076
v 0.00920794 0.02045969 0.00571727
v 0.00946000 0.02045969 0.00562284
v 0.00981760 0.01368638 0.00540476
v 0.00967598 0.01368638 0.00549132
v 0.00981760 0.01287091 0.00540476
v 0.00678045 0.01287091 0.00462013
v 0.00569250 0.01470183 0.00465048
v 0.00569250 0.02114858 0.00572739
v 0.00857958 0.02089908 0.00573863
v 0.00857958 0.02045969 0.00574200
v 0.00857958 0.01287091 0.00574200
v 0.00882184 0.01368638 0.00573526
v 0.00898038 0.01386067 0.00573076
v 0.00914471 0.01287091 0.00572064
v 0.00919904 0.01287091 0.00571727
v 0.00939454 0.01287091 0.00564645
v 0.00945955 0.01287091 0.00562284
v 0.00946000 0.01368638 0.00562284
v 0.00697817 0.01287091 0.00489666
v 0.00569250 0.01491556 0.00486856
v 0.00569250 0.02089908 0.00573863
v 0.00569250 0.02045969 0.00574200
v 0.00814004 0.01342037 0.00574200
v 0.00810887 0.01294980 0.00573301
v 0.00813470 0.01287091 0.00573188
v 0.00897904 0.01287091 0.00573076
v 0.00721375 0.01287091 0.00511474
v 0.00569250 0.01601173 0.00559024
v 0.00569250 0.01569985 0.00539914
v 0.00569250 0.01517974 0.00504954
v 0.00569250 0.01694095 0.00574200
v 0.00569250 0.01651899 0.00573638
v 0.00569250 0.01626857 0.00572739
v 0.00790357 0.01307546 0.00572626
v 0.00803093 0.01287091 0.00572514
v 0.00737674 0.01287091 0.00526537
v 0.00743686 0.01287091 0.00531933
v 0.00783098 0.01287091 0.00564982
v 0.00569250 0.01625573 0.00572177
f 1 2 3
f 1 3 15
f 1 15 16
f 1 16 4
f 1 4 21
f 1 21 5
f 1 5 6
f 1 6 7
f 1 7 8
f 1 8 9
f 1 9 23
f 1 23 35
f 1 35 47
f 1 47 62
f 1 62 77
f 1 77 92
f 1 92 108
f 1 108 123
f 1 123 122
f 1 122 143
f 1 143 159
f 1 159 175
f 1 175 189
f 1 189 201
f 1 201 216
f 1 216 228
f 1 228 227
f 1 227 226
f 1 226 225
f 1 225 237
f 1 237 222
f 1 222 236
f 1 236 246
f 1 246 249
f 1 249 248
f 1 248 247
f 1 247 238
f 1 238 230
f 1 230 217
f 1 217 204
f 1 204 191
f 1 191 177
f 1 177 161
f 1 161 145
f 1 145 128
f 1 128 110
f 1 110 96
f 1 96 78
f 1 78 64
f 1 64 48
f 1 48 37
f 1 37 24
f 1 24 10
f 1 10 2
f 2 10 11
f 2 11 12
f 2 12 13
f 2 13 14
f 2 14 3
f 3 14 15
f 4 16 17
f 4 17 18
f 4 18 19
f 4 19 20
f 4 20 21
f 5 21 22
f 5 22 6
f 6 22 7
f 7 22 8
f 8 22 9
f 9 22 23
f 10 12 11
f 10 24 12
f 12 24 25
f 12 25 36
f 12 36 49
f 12 49 63
f 12 63 79
f 12 79 95
f 12 95 94
f 12 94 93
f 12 93 109
f 12 109 124
f 12 124 127
f 12 127 126
f 12 126 144
f 12 144 160
f 12 160 176
f 12 176 190
f 12 190 203
f 12 203 218
f 12 218 231
f 12 231 241
f 12 241 240
f 12 240 239
f 12 239 250
f 12 250 244
f 12 244 243
f 12 243 242
f 12 242 233
f 12 233 232
f 12 232 219
f 12 219 207
f 12 207 206
f 12 206 205
f 12 205 192
f 12 192 179
f 12 179 178
f 12 178 162
f 12 162 146
f 12 146 129
f 12 129 112
f 12 112 111
f 12 111 97
f 12 97 80
f 12 80 66
f 12 66 65
f 12 65 51
f 12 51 50
f 12 50 39
f 12 39 38
f 12 38 27
f 12 27 26
f 12 26 17
f 12 17 16
f 12 16 15
f 12 15 14
f 12 14 13
f 17 26 18
f 18 26 27
f 18 27 28
f 18 28 29
f 18 29 19
f 19 29 30
f 19 30 20
f 20 22 21
f 20 30 31
f 20 31 22
f 22 31 32
f 22 32 33
f 22 33 23
f 23 33 34
f 23 34 35
f 24 36 25
f 24 37 36
f 27 38 28
f 28 38 39
f 28 39 40
f 28 40 29
f 29 40 41
f 29 41 30
f 30 41 42
f 30 42 43
f 30 43 31
f 31 43 44
f 31 44 34
f 31 34 32
f 32 34 33
f 34 45 35
f 34 44 45
f 35 45 46
f 35 46 47
f 36 37 48
f 36 48 49
f 39 50 40
f 40 50 51
f 40 51 52
f 40 52 53
f 40 53 41
f 41 53 54
f 41 54 42
f 42 54 55
f 42 55 56
f 42 56 43
f 43 56 57
f 43 57 44
f 44 57 58
f 44 58 59
f 44 59 46
f 44 46 45
f 46 59 60
f 46 60 47
f 47 60 61
f 47 61 62
f 48 63 49
f 48 64 63
f 51 65 52
f 52 65 66
f 52 66 67
f 52 67 53
f 53 67 68
f 53 68 54
f 54 68 69
f 54 69 55
f 55 69 70
f 55 70 71
f 55 71 72
f 55 72 56
f 56 72 73
f 56 73 57
f 57 73 74
f 57 74 58
f 58 74 59
f 59 74 61
f 59 61 60
f 61 74 75
f 61 75 62
f 62 75 76
f 62 76 77
f 63 64 78
f 63 78 79
f 66 80 67
f 67 80 97
f 67 97 81
f 67 81 82
f 67 82 68
f 68 82 83
f 68 83 69
f 69 83 70
f 70 83 84
f 70 84 85
f 70 85 86
f 70 86 87
f 70 87 71
f 71 87 72
f 72 88 73
f 72 87 88
f 73 88 89
f 73 89 90
f 73 90 74
f 74 90 75
f 75 90 76
f 76 90 91
f 76 91 77
f 77 91 92
f 78 93 94
f 78 94 95
f 78 95 79
f 78 96 93
f 81 97 111
f 81 111 98
f 81 98 82
f 82 98 99
f 82 99 83
f 83 99 84
f 84 99 100
f 84 100 85
f 85 100 101
f 85 101 102
f 85 102 86
f 86 102 103
f 86 103 87
f 87 104 88
f 87 103 104
f 88 104 105
f 88 105 89
f 89 105 106
f 89 106 90
f 90 106 107
f 90 107 91
f 91 107 108
f 91 108 92
f 93 96 109
f 96 110 109
f 98 111 112
f 98 112 113
f 98 113 114
f 98 114 99
f 99 114 100
f 100 114 131
f 100 131 115
f 100 115 136
f 100 136 116
f 100 116 101
f 101 116 102
f 102 116 117
f 102 117 118
f 102 118 103
f 103 119 104
f 103 118 119
f 104 119 120
f 104 120 105
f 105 120 106
f 106 120 121
f 106 121 122
f 106 122 107
f 107 122 123
f 107 123 108
f 109 110 124
f 110 125 126
f 110 126 127
f 110 127 124
f 110 128 125
f 112 129 113
f 113 129 146
f 113 146 130
f 113 130 131
f 113 131 114
f 115 131 132
f 115 132 133
f 115 133 134
f 115 134 135
f 115 135 136
f 116 136 138
f 116 138 117
f 117 137 118
f 117 138 152
f 117 152 137
f 118 137 139
f 118 139 140
f 118 140 119
f 119 140 120
f 120 140 139
f 120 139 153
f 120 153 141
f 120 141 142
f 120 142 121
f 121 142 143
f 121 143 122
f 125 128 126
f 126 128 144
f 128 145 144
f 130 146 162
f 130 162 147
f 130 147 132
f 130 132 131
f 132 147 148
f 132 148 149
f 132 149 133
f 133 149 150
f 133 150 134
f 134 138 135
f 134 150 151
f 134 151 138
f 135 138 136
f 137 152 153
f 137 153 139
f 138 151 152
f 141 153 154
f 141 154 155
f 141 155 142
f 142 155 156
f 142 156 157
f 142 157 158
f 142 158 159
f 142 159 143
f 144 145 160
f 145 161 176
f 145 176 160
f 147 162 178
f 147 178 163
f 147 163 148
f 148 163 164
f 148 164 165
f 148 165 149
f 149 165 166
f 149 166 150
f 150 167 151
f 150 166 168
f 150 168 169
f 150 169 167
f 151 167 152
f 152 154 153
f 152 167 170
f 152 170 154
f 154 170 155
f 155 170 156
f 156 170 171
f 156 171 172
f 156 172 157
f 157 172 173
f 157 173 158
f 158 173 174
f 158 174 159
f 159 174 175
f 161 177 176
f 163 178 179
f 163 179 164
f 164 179 193
f 164 193 180
f 164 180 181
f 164 181 165
f 165 181 182
f 165 182 166
f 166 182 168
f 167 169 183
f 167 183 171
f 167 171 170
f 168 182 184
f 168 184 185
f 168 185 183
f 168 183 169
f 171 183 186
f 171 186 172
f 172 186 187
f 172 187 173
f 173 188 175
f 173 175 174
f 173 187 188
f 175 188 189
f 176 177 190
f 177 191 190
f 179 192 193
f 180 193 207
f 180 207 194
f 180 194 181
f 181 194 195
f 181 195 182
f 182 195 184
f 183 185 186
f 184 195 196
f 184 196 197
f 184 197 185
f 185 197 198
f 185 198 186
f 186 198 199
f 186 199 187
f 187 199 200
f 187 200 189
f 187 189 188
f 189 200 201
f 190 202 203
f 190 191 202
f 191 204 202
f 192 205 193
f 193 205 206
f 193 206 207
f 194 207 219
f 194 219 208
f 194 208 209
f 194 209 195
f 195 209 196
f 196 209 210
f 196 210 211
f 196 211 212
f 196 212 197
f 197 213 199
f 197 199 198
f 197 212 213
f 199 214 200
f 199 213 215
f 199 215 214
f 200 214 216
f 200 216 201
f 202 204 217
f 202 217 203
f 203 217 218
f 208 219 232
f 208 232 220
f 208 220 209
f 209 220 210
f 210 220 221
f 210 221 211
f 211 221 222
f 211 222 223
f 211 223 224
f 211 224 225
f 211 225 212
f 212 225 226
f 212 226 227
f 212 227 228
f 212 228 229
f 212 229 213
f 213 229 215
f 214 215 216
f 215 229 228
f 215 228 216
f 217 230 231
f 217 231 218
f 220 232 233
f 220 233 221
f 221 233 242
f 221 242 234
f 221 234 222
f 222 234 235
f 222 235 236
f 222 237 223
f 223 237 224
f 224 237 225
f 230 238 239
f 230 239 240
f 230 240 241
f 230 241 231
f 234 242 243
f 234 243 235
f 235 243 236
f 236 243 244
f 236 244 245
f 236 245 246
f 238 247 239
f 239 247 248
f 239 248 249
f 239 249 250
f 244 250 249
f 244 249 246
f 244 246 245

