# https://github.com/mikedh/trimesh
v 0.00615905 0.00351868 0.00574200
v 0.00615905 0.00393527 0.00573301
v 0.00549458 0.00330495 0.00573301
v 0.00546475 0.00282436 0.00574200
v 0.00615905 -0.00329891 0.00574200
v 0.00615905 0.00404274 0.00572739
v 0.00563758 0.00357181 0.00572626
v 0.00546475 0.00327476 0.00573301
v 0.00546475 -0.00241985 0.00574200
v 0.00593994 -0.00329891 0.00574200
v 0.00615905 -0.00373241 0.00573638
v 0.00610801 0.00401497 0.00572626
v 0.00615905 0.00412002 0.00571839
v 0.00546475 0.00350298 0.00571727
v 0.00546475 0.00329408 0.00573188
v 0.00546475 -0.00288232 0.00574088
v 0.00550002 -0.00285938 0.00574200
v 0.00549458 -0.00330495 0.00573301
v 0.00595278 -0.00372637 0.00573301
v 0.00615905 -0.00404274 0.00572739
v 0.00615905 0.00426492 0.00567905
v 0.00615905 0.00439171 0.00563184
v 0.00546475 0.00367324 0.00564870
v 0.00546475 -0.00329408 0.00573188
v 0.00563758 -0.00357181 0.00572626
v 0.00610801 -0.00401497 0.00572626
v 0.00615905 -0.00426492 0.00567905
v 0.00546475 0.00370222 0.00563408
v 0.00615905 0.00481313 0.00540589
v 0.00546475 -0.00333514 0.00572851
v 0.00546475 -0.00367324 0.00564870
v 0.00581469 -0.00386523 0.00570041
v 0.00615905 -0.00461751 0.00550706
v 0.00546475 0.00410432 0.00539128
v 0.00615905 0.00560767 0.00491802
v 0.00546475 -0.00372758 0.00561722
v 0.00615905 -0.00491939 0.00533170
v 0.00546475 0.00456921 0.00505629
v 0.00615660 0.00572480 0.00484270
v 0.00615905 0.00572601 0.00484270
v 0.00546475 -0.00412726 0.00537217
v 0.00615660 -0.00572480 0.00484270
v 0.00615905 -0.00572238 0.00484495
v 0.00546475 0.00486022 0.00484046
v 0.00615905 0.00573204 0.00483821
v 0.00615905 0.00599407 0.00458191
v 0.00546475 -0.00416228 0.00534743
v 0.00615905 -0.00594577 0.00462350
v 0.00615905 -0.00572601 0.00484270
v 0.00546475 -0.00459578 0.00503605
v 0.00546475 -0.00465374 0.00498884
v 0.00546475 -0.00502565 0.00466734
v 0.00546475 0.00502565 0.00466734
v 0.00615905 0.00615829 0.00440205
v 0.00615905 -0.00615829 0.00440205
v 0.00546475 -0.00505463 0.00463025
v 0.00546475 0.00504497 0.00464486
v 0.00615905 0.00616071 0.00432673
v 0.00546475 0.00523817 0.00417947
v 0.00546475 0.00521402 0.00427165
v 0.00546475 0.00505463 0.00463025
v 0.00615905 -0.00616071 0.00432673
v 0.00546475 -0.00523817 0.00417947
v 0.00615905 0.00616433 0.00417947
v 0.00615905 0.00616795 0.00373994
v 0.00546475 0.00524059 0.00388496
v 0.00615905 -0.00616433 0.00417947
v 0.00546475 -0.00523938 0.00403446
v 0.00615905 0.00616795 -0.00373994
v 0.00546475 0.00524059 -0.00373994
v 0.00615905 -0.00616795 0.00373994
v 0.00546475 -0.00524059 0.00373994
v 0.00615905 0.00616312 -0.00418060
v 0.00546475 0.00523817 -0.00417947
v 0.00546475 0.00523938 -0.00403446
v 0.00615905 -0.00616795 -0.00373994
v 0.00546475 -0.00524059 -0.00388496
v 0.00615905 0.00616071 -0.00432673
v 0.00546475 0.00505463 -0.00463025
v 0.00615905 0.00615829 -0.00440205
v 0.00615905 -0.00616433 -0.00417947
v 0.00546475 -0.00523817 -0.00417947
v 0.00546475 0.00502565 -0.00466734
v 0.00615905 0.00594577 -0.00462350
v 0.00615905 -0.00615950 -0.00439980
v 0.00546475 -0.00521402 -0.00427165
v 0.00546475 0.00465374 -0.00498884
v 0.00615660 0.00572480 -0.00484270
v 0.00615905 0.00572601 -0.00484270
v 0.00615905 -0.00599407 -0.00458191
v 0.00546475 -0.00505463 -0.00463025
v 0.00546475 -0.00504497 -0.00464486
v 0.00546475 -0.00502565 -0.00466734
v 0.00546475 0.00459578 -0.00503605
v 0.00615905 0.00572238 -0.00484495
v 0.00615905 0.00491939 -0.00533170
v 0.00546475 0.00372758 -0.00561722
v 0.00546475 0.00412726 -0.00537216
v 0.00546475 0.00416228 -0.00534743
v 0.00615660 -0.00572480 -0.00484270
v 0.00615905 -0.00573204 -0.00483821
v 0.00546475 -0.00486022 -0.00484046
v 0.00615905 0.00461751 -0.00550706
v 0.00546475 0.00367324 -0.00564870
v 0.00615905 -0.00560767 -0.00491802
v 0.00615905 -0.00572601 -0.00484270
v 0.00546475 -0.00456921 -0.00505629
v 0.00546475 -0.00410432 -0.00539127
v 0.00615905 0.00426492 -0.00567905
v 0.00581469 0.00386523 -0.00570041
v 0.00563758 0.00357181 -0.00572626
v 0.00546475 0.00333514 -0.00572851
v 0.00615905 -0.00481313 -0.00540589
v 0.00546475 -0.00370222 -0.00563408
v 0.00615905 0.00404274 -0.00572739
v 0.00610801 0.00401497 -0.00572626
v 0.00549458 0.00330495 -0.00573301
v 0.00546475 0.00329408 -0.00573188
v 0.00615905 -0.00439171 -0.00563184
v 0.00546475 -0.00367324 -0.00564870
v 0.00615905 0.00373241 -0.00573638
v 0.00595278 0.00372637 -0.00573301
v 0.00593994 0.00329891 -0.00574200
v 0.00546475 0.00288232 -0.00574088
v 0.00546475 -0.00350298 -0.00571727
v 0.00615905 -0.00426492 -0.00567905
v 0.00615905 0.00329891 -0.00574200
v 0.00550002 0.00285938 -0.00574200
v 0.00546475 0.00241985 -0.00574200
v 0.00563758 -0.00357181 -0.00572626
v 0.00610801 -0.00401497 -0.00572626
v 0.00615905 -0.00412002 -0.00571839
v 0.00546475 -0.00329408 -0.00573188
v 0.00615905 -0.00351868 -0.00574200
v 0.00546475 -0.00282436 -0.00574200
v 0.00546475 -0.00327476 -0.00573301
v 0.00549458 -0.00330495 -0.00573301
v 0.00615905 -0.00393527 -0.00573301
v 0.00615905 -0.00404274 -0.00572739
f 1 2 3
f 1 3 4
f 1 4 9
f 1 9 17
f 1 17 10
f 1 10 5
f 1 5 11
f 1 11 20
f 1 20 27
f 1 27 33
f 1 33 37
f 1 37 43
f 1 43 49
f 1 49 48
f 1 48 55
f 1 55 62
f 1 62 67
f 1 67 71
f 1 71 76
f 1 76 81
f 1 81 85
f 1 85 90
f 1 90 101
f 1 101 106
f 1 106 105
f 1 105 113
f 1 113 119
f 1 119 126
f 1 126 132
f 1 132 139
f 1 139 138
f 1 138 134
f 1 134 127
f 1 127 121
f 1 121 115
f 1 115 109
f 1 109 103
f 1 103 96
f 1 96 95
f 1 95 89
f 1 89 84
f 1 84 80
f 1 80 78
f 1 78 73
f 1 73 69
f 1 69 65
f 1 65 64
f 1 64 58
f 1 58 54
f 1 54 46
f 1 46 45
f 1 45 40
f 1 40 35
f 1 35 29
f 1 29 22
f 1 22 21
f 1 21 13
f 1 13 6
f 1 6 2
f 2 6 7
f 2 7 3
f 3 7 8
f 3 8 4
f 4 8 15
f 4 15 14
f 4 14 23
f 4 23 28
f 4 28 34
f 4 34 38
f 4 38 44
f 4 44 53
f 4 53 57
f 4 57 61
f 4 61 60
f 4 60 59
f 4 59 66
f 4 66 70
f 4 70 75
f 4 75 74
f 4 74 79
f 4 79 83
f 4 83 87
f 4 87 94
f 4 94 99
f 4 99 98
f 4 98 97
f 4 97 104
f 4 104 112
f 4 112 118
f 4 118 124
f 4 124 129
f 4 129 135
f 4 135 136
f 4 136 133
f 4 133 125
f 4 125 120
f 4 120 114
f 4 114 108
f 4 108 107
f 4 107 102
f 4 102 93
f 4 93 92
f 4 92 91
f 4 91 86
f 4 86 82
f 4 82 77
f 4 77 72
f 4 72 68
f 4 68 63
f 4 63 56
f 4 56 52
f 4 52 51
f 4 51 50
f 4 50 47
f 4 47 41
f 4 41 36
f 4 36 31
f 4 31 30
f 4 30 24
f 4 24 16
f 4 16 9
f 5 10 11
f 6 12 7
f 6 13 12
f 7 14 15
f 7 15 8
f 7 12 14
f 9 16 17
f 10 17 16
f 10 16 18
f 10 18 19
f 10 19 11
f 11 19 20
f 12 13 14
f 13 21 14
f 14 21 22
f 14 22 23
f 16 24 18
f 18 25 20
f 18 20 19
f 18 24 25
f 20 26 27
f 20 25 26
f 22 28 23
f 22 29 28
f 24 30 25
f 25 30 31
f 25 31 32
f 25 32 26
f 26 32 27
f 27 32 31
f 27 31 33
f 28 29 34
f 29 35 34
f 31 36 33
f 33 36 37
f 34 35 39
f 34 39 38
f 35 40 39
f 36 41 42
f 36 42 37
f 37 42 43
f 38 39 44
f 39 40 45
f 39 45 46
f 39 46 44
f 41 47 42
f 42 48 49
f 42 49 43
f 42 47 50
f 42 50 51
f 42 51 52
f 42 52 48
f 44 46 53
f 46 54 53
f 48 52 55
f 52 56 55
f 53 54 57
f 54 58 59
f 54 59 60
f 54 60 61
f 54 61 57
f 55 56 63
f 55 63 62
f 58 64 59
f 59 64 65
f 59 65 66
f 62 63 67
f 63 68 67
f 65 69 70
f 65 70 66
f 67 68 71
f 68 72 71
f 69 73 74
f 69 74 75
f 69 75 70
f 71 72 77
f 71 77 76
f 73 78 74
f 74 78 80
f 74 80 79
f 76 77 82
f 76 82 81
f 79 80 83
f 80 84 83
f 81 82 85
f 82 86 85
f 83 84 88
f 83 88 87
f 84 89 88
f 85 86 91
f 85 91 92
f 85 92 93
f 85 93 90
f 87 88 94
f 88 89 95
f 88 95 96
f 88 96 97
f 88 97 98
f 88 98 99
f 88 99 94
f 90 100 101
f 90 93 102
f 90 102 100
f 96 103 97
f 97 103 104
f 100 105 106
f 100 106 101
f 100 102 107
f 100 107 108
f 100 108 105
f 103 109 104
f 104 109 110
f 104 110 111
f 104 111 112
f 105 108 113
f 108 114 113
f 109 115 116
f 109 116 110
f 110 116 111
f 111 116 115
f 111 115 117
f 111 117 118
f 111 118 112
f 113 114 119
f 114 120 119
f 115 121 122
f 115 122 117
f 117 123 124
f 117 124 118
f 117 122 123
f 119 120 125
f 119 125 126
f 121 127 123
f 121 123 122
f 123 127 134
f 123 134 135
f 123 135 129
f 123 129 128
f 123 128 124
f 124 128 129
f 125 130 131
f 125 131 132
f 125 132 126
f 125 133 130
f 130 133 136
f 130 136 137
f 130 137 138
f 130 138 139
f 130 139 131
f 131 139 132
f 134 138 137
f 134 137 135
f 135 137 136

