# https://github.com/mikedh/trimesh
v 0.01024200 -0.00749992 0.00417947
v 0.01021683 -0.00749992 0.00461901
v 0.01024200 -0.00990668 0.00417947
v 0.01024200 -0.00749992 -0.00417947
v 0.01015583 -0.00749992 0.00491915
v 0.01021683 -0.00990668 0.00461901
v 0.01024200 -0.00990668 -0.00417947
v 0.01021747 -0.00749992 -0.00461900
v 0.01015583 -0.00990668 0.00491915
v 0.01003772 -0.00749992 0.00513835
v 0.01021747 -0.00990668 -0.00461900
v 0.01015745 -0.00990668 -0.00491577
v 0.01018972 -0.00749992 -0.00475615
v 0.01003772 -0.00901984 0.00513835
v 0.01003740 -0.00990668 0.00513835
v 0.00981763 -0.00749992 0.00540476
v 0.01003417 -0.00990668 0.00514284
v 0.01015648 -0.00990668 -0.00492027
v 0.01015648 -0.00749992 -0.00492027
v 0.00962271 -0.00749992 0.00552392
v 0.00981214 -0.00990668 0.00540814
v 0.00981763 -0.00990668 0.00540476
v 0.01003933 -0.00990668 -0.00513722
v 0.01003772 -0.00749992 -0.00513947
v 0.00945973 -0.00990668 0.00562284
v 0.00945973 -0.00749992 0.00562284
v 0.01003772 -0.00990668 -0.00513947
v 0.00993768 -0.00749992 -0.00526088
v 0.00920963 -0.00990668 0.00571727
v 0.00932226 -0.00749992 0.00567455
v 0.00920963 -0.00989984 0.00571727
v 0.00982085 -0.00990668 -0.00540139
v 0.00981763 -0.00749992 -0.00540476
v 0.00898986 -0.00990668 0.00573076
v 0.00920672 -0.00749992 0.00571727
v 0.00920705 -0.00770019 0.00571727
v 0.00920769 -0.00814007 0.00571727
v 0.00920931 -0.00945996 0.00571727
v 0.00981763 -0.00990668 -0.00540476
v 0.00965466 -0.00749992 -0.00550481
v 0.00898760 -0.00814007 0.00573076
v 0.00858001 -0.00749992 0.00574200
v 0.00858001 -0.00814007 0.00574200
v 0.00858001 -0.00858019 0.00573975
v 0.00866747 -0.00990668 0.00573076
v 0.00898663 -0.00749992 0.00573076
v 0.00898695 -0.00770019 0.00573076
v 0.00946522 -0.00990668 -0.00562060
v 0.00945973 -0.00814007 -0.00562397
v 0.00945973 -0.00749992 -0.00562397
v 0.00824116 -0.00749992 0.00573076
v 0.00834314 -0.00858019 0.00572851
v 0.00835185 -0.00894515 0.00572514
v 0.00836121 -0.00923849 0.00571952
v 0.00844770 -0.00990668 0.00570940
v 0.00945973 -0.00990668 -0.00562284
v 0.00921318 -0.00990668 -0.00571839
v 0.00921350 -0.00945996 -0.00571839
v 0.00921415 -0.00814007 -0.00571839
v 0.00921415 -0.00749992 -0.00571839
v 0.00804495 -0.00749992 0.00568242
v 0.00791747 -0.00749992 0.00559811
v 0.00844285 -0.00990668 0.00570603
v 0.00773062 -0.00749992 0.00546996
v 0.00899664 -0.00990668 -0.00573076
v 0.00899438 -0.00749992 -0.00573076
v 0.00814434 -0.00990668 0.00548907
v 0.00727365 -0.00749992 0.00504280
v 0.00866747 -0.00990668 -0.00573076
v 0.00858001 -0.00858019 -0.00573975
v 0.00858001 -0.00814007 -0.00574200
v 0.00858001 -0.00749992 -0.00574200
v 0.00792522 -0.00990668 0.00527437
v 0.00705259 -0.00749992 0.00482247
v 0.00844770 -0.00990668 -0.00570940
v 0.00836121 -0.00923849 -0.00571952
v 0.00835185 -0.00894515 -0.00572514
v 0.00834314 -0.00858019 -0.00572851
v 0.00824116 -0.00749992 -0.00573076
v 0.00839445 -0.00749992 -0.00573750
v 0.00770061 -0.00990668 0.00504954
v 0.00694513 -0.00749992 0.00464598
v 0.00748503 -0.00990668 0.00483259
v 0.00814434 -0.00990668 -0.00548907
v 0.00773062 -0.00749992 -0.00546996
v 0.00804495 -0.00749992 -0.00568242
v 0.00812917 -0.00749992 -0.00571052
v 0.00694513 -0.00763210 0.00456954
v 0.00736337 -0.00990668 0.00460664
v 0.00736563 -0.00990668 0.00461338
v 0.00748374 -0.00990668 0.00483034
v 0.00694513 -0.00749992 -0.00464936
v 0.00792748 -0.00990668 -0.00527661
v 0.00727365 -0.00749992 -0.00504280
v 0.00738660 -0.00749992 -0.00515071
v 0.00694513 -0.00770019 0.00449086
v 0.00725009 -0.00990668 0.00417947
v 0.00698353 -0.00749992 -0.00471568
v 0.00748503 -0.00990668 -0.00483259
v 0.00736756 -0.00990668 -0.00461788
v 0.00736563 -0.00990668 -0.00461338
v 0.00694513 -0.00763210 -0.00456954
v 0.00792522 -0.00990668 -0.00527437
v 0.00708648 -0.00749992 -0.00485844
v 0.00694513 -0.00792755 0.00417947
v 0.00694513 -0.00793109 0.00373994
v 0.00725009 -0.00990668 -0.00417947
v 0.00705259 -0.00749992 -0.00482247
v 0.00748826 -0.00990668 -0.00483596
v 0.00694513 -0.00767616 -0.00453132
v 0.00770932 -0.00990668 -0.00505854
v 0.00694513 -0.00793109 -0.00373994
v 0.00694513 -0.00792920 -0.00399737
v 0.00694513 -0.00792755 -0.00417947
v 0.00694513 -0.00787171 -0.00432561
f 1 2 6
f 1 6 3
f 1 3 7
f 1 7 4
f 1 4 8
f 1 8 13
f 1 13 19
f 1 19 24
f 1 24 28
f 1 28 33
f 1 33 40
f 1 40 50
f 1 50 60
f 1 60 66
f 1 66 72
f 1 72 80
f 1 80 79
f 1 79 87
f 1 87 86
f 1 86 85
f 1 85 95
f 1 95 94
f 1 94 104
f 1 104 108
f 1 108 98
f 1 98 92
f 1 92 82
f 1 82 74
f 1 74 68
f 1 68 64
f 1 64 62
f 1 62 61
f 1 61 51
f 1 51 42
f 1 42 46
f 1 46 35
f 1 35 30
f 1 30 26
f 1 26 20
f 1 20 16
f 1 16 10
f 1 10 5
f 1 5 2
f 2 5 9
f 2 9 6
f 3 6 9
f 3 9 15
f 3 15 17
f 3 17 22
f 3 22 21
f 3 21 25
f 3 25 29
f 3 29 34
f 3 34 45
f 3 45 55
f 3 55 63
f 3 63 67
f 3 67 73
f 3 73 81
f 3 81 83
f 3 83 91
f 3 91 90
f 3 90 89
f 3 89 97
f 3 97 107
f 3 107 101
f 3 101 100
f 3 100 99
f 3 99 109
f 3 109 111
f 3 111 103
f 3 103 93
f 3 93 84
f 3 84 75
f 3 75 69
f 3 69 65
f 3 65 57
f 3 57 56
f 3 56 48
f 3 48 39
f 3 39 32
f 3 32 27
f 3 27 23
f 3 23 18
f 3 18 12
f 3 12 11
f 3 11 7
f 4 7 11
f 4 11 8
f 5 10 14
f 5 14 9
f 8 11 12
f 8 12 13
f 9 14 15
f 10 16 17
f 10 17 14
f 12 18 19
f 12 19 13
f 14 17 15
f 16 20 21
f 16 21 22
f 16 22 17
f 18 23 19
f 19 23 24
f 20 25 21
f 20 26 25
f 23 27 24
f 24 27 28
f 25 26 31
f 25 31 29
f 26 30 31
f 27 32 28
f 28 32 33
f 29 31 34
f 30 35 36
f 30 36 37
f 30 37 38
f 30 38 31
f 31 38 34
f 32 39 33
f 33 39 40
f 34 41 42
f 34 42 43
f 34 43 44
f 34 44 45
f 34 38 37
f 34 37 41
f 35 46 47
f 35 47 36
f 36 47 41
f 36 41 37
f 39 48 40
f 40 48 49
f 40 49 50
f 41 47 42
f 42 47 46
f 42 51 43
f 43 51 44
f 44 51 52
f 44 52 45
f 45 52 53
f 45 53 54
f 45 54 55
f 48 56 49
f 49 56 57
f 49 57 58
f 49 58 59
f 49 59 60
f 49 60 50
f 51 61 53
f 51 53 52
f 53 61 54
f 54 61 62
f 54 62 55
f 55 62 64
f 55 64 63
f 57 65 58
f 58 65 59
f 59 65 60
f 60 65 66
f 63 64 67
f 64 68 67
f 65 69 70
f 65 70 71
f 65 71 72
f 65 72 66
f 67 68 73
f 68 74 73
f 69 75 76
f 69 76 77
f 69 77 78
f 69 78 70
f 70 79 80
f 70 80 71
f 70 78 79
f 71 80 72
f 73 74 81
f 74 82 83
f 74 83 81
f 75 84 85
f 75 85 76
f 76 85 86
f 76 86 87
f 76 87 77
f 77 79 78
f 77 87 79
f 82 88 89
f 82 89 90
f 82 90 91
f 82 91 83
f 82 92 102
f 82 102 110
f 82 110 115
f 82 115 114
f 82 114 113
f 82 113 112
f 82 112 106
f 82 106 105
f 82 105 96
f 82 96 88
f 84 93 94
f 84 94 95
f 84 95 85
f 88 96 97
f 88 97 89
f 92 98 99
f 92 99 100
f 92 100 101
f 92 101 102
f 93 103 104
f 93 104 94
f 96 105 97
f 97 105 106
f 97 106 112
f 97 112 107
f 98 108 99
f 99 104 109
f 99 108 104
f 101 107 102
f 102 107 110
f 103 111 104
f 104 111 109
f 107 112 113
f 107 113 114
f 107 114 115
f 107 115 110

