# https://github.com/mikedh/trimesh
v -0.00330333 -0.02224143 -0.00418285
v -0.00330333 -0.02221706 -0.00461900
v -0.00109973 -0.02221706 -0.00461900
v -0.00109973 -0.02224143 -0.00417947
v -0.00330333 -0.02224143 0.00417947
v -0.00330333 -0.02209578 -0.00503043
v -0.00109973 -0.02209578 -0.00503043
v -0.00109973 -0.02224143 0.00417947
v -0.00330333 -0.02221650 0.00461901
v -0.00330333 -0.02197789 -0.00525188
v -0.00329988 -0.02197959 -0.00525076
v -0.00109973 -0.02197959 -0.00525076
v -0.00109973 -0.02221650 0.00461901
v -0.00110016 -0.02209578 0.00503156
v -0.00330333 -0.02209634 0.00502818
v -0.00330333 -0.02175969 -0.00544074
v -0.00109973 -0.02175969 -0.00544074
v -0.00109973 -0.02209578 0.00503156
v -0.00329988 -0.02198073 0.00525188
v -0.00330333 -0.02209521 0.00503156
v -0.00330333 -0.02175629 -0.00544298
v -0.00109973 -0.02136863 -0.00566106
v -0.00109973 -0.02198073 0.00525188
v -0.00330333 -0.02198129 0.00524964
v -0.00330333 -0.02176196 0.00543961
v -0.00330333 -0.02136637 -0.00566106
v -0.00329988 -0.02136807 -0.00566106
v -0.00285985 -0.02136863 -0.00566106
v -0.00109973 -0.02114873 -0.00572739
v -0.00109973 -0.02176026 0.00544074
v -0.00329988 -0.02176026 0.00544074
v -0.00330333 -0.02136863 0.00566106
v -0.00330333 -0.02114816 -0.00572739
v -0.00241982 -0.02114873 -0.00572739
v -0.00109973 -0.02089993 -0.00573863
v -0.00109973 -0.02136920 0.00566106
v -0.00198000 -0.02136920 0.00566106
v -0.00329988 -0.02114873 0.00572739
v -0.00330333 -0.02115043 0.00572626
v -0.00330333 -0.02089993 -0.00573750
v -0.00198000 -0.02089993 -0.00573863
v -0.00110016 -0.02045956 -0.00574200
v -0.00109973 -0.02046013 -0.00574088
v -0.00109973 -0.02114873 0.00572739
v -0.00330333 -0.02090163 0.00573863
v -0.00330333 -0.02045956 -0.00574200
v -0.00109973 -0.02001976 -0.00574200
v -0.00109973 -0.02089993 0.00573863
v -0.00109973 -0.02045956 0.00574200
v -0.00330333 -0.02045956 0.00574200
v -0.00330333 -0.01826056 -0.00574200
v -0.00109973 -0.01870036 -0.00574200
v -0.00109973 -0.01870036 0.00574200
v -0.00330333 -0.01826056 0.00574200
v -0.00330333 -0.01794091 -0.00573076
v -0.00329988 -0.01826056 -0.00574200
v -0.00285985 -0.01826056 -0.00574088
v -0.00285985 -0.01801572 -0.00572963
v -0.00110016 -0.01845608 -0.00573076
v -0.00109973 -0.01845665 -0.00573076
v -0.00329988 -0.01826056 0.00574200
v -0.00109973 -0.01845608 0.00573076
v -0.00285985 -0.01801572 0.00572963
v -0.00285985 -0.01826056 0.00574088
v -0.00330333 -0.01794374 0.00573076
v -0.00330333 -0.01772384 -0.00567343
v -0.00258311 -0.01802932 -0.00572626
v -0.00109973 -0.01823618 -0.00559024
v -0.00109973 -0.01823618 0.00559024
v -0.00330333 -0.01772554 0.00567343
v -0.00258311 -0.01802932 0.00572626
v -0.00330333 -0.01738435 -0.00543399
v -0.00330333 -0.01737188 -0.00542500
v -0.00109973 -0.01794827 -0.00537104
v -0.00330333 -0.01767226 0.00563633
v -0.00109973 -0.01794827 0.00537104
v -0.00330333 -0.01737188 0.00542500
v -0.00330333 -0.01695362 -0.00504842
v -0.00330333 -0.01672069 -0.00483034
v -0.00109973 -0.01750564 -0.00493263
v -0.00109973 -0.01750564 0.00493263
v -0.00330333 -0.01695362 0.00504842
v -0.00330333 -0.01659203 -0.00463362
v -0.00109973 -0.01727044 -0.00458865
v -0.00109973 -0.01727497 -0.00459540
v -0.00109973 -0.01727044 0.00458865
v -0.00330333 -0.01659203 0.00463362
v -0.00315579 -0.01675696 0.00478987
v -0.00330333 -0.01693038 0.00502481
v -0.00126495 -0.01715198 -0.00442004
v -0.00330333 -0.01645318 -0.00417947
v -0.00109973 -0.01717069 -0.00426041
v -0.00109973 -0.01726760 0.00457741
v -0.00126495 -0.01715198 0.00442004
v -0.00330333 -0.01645318 0.00417947
v -0.00330333 -0.01645204 -0.00373994
v -0.00109973 -0.01716785 -0.00417947
v -0.00109973 -0.01716785 0.00417947
v -0.00330333 -0.01645204 0.00373994
v -0.00109973 -0.01716729 -0.00373994
v -0.00109973 -0.01716729 0.00373994
f 1 2 3
f 1 3 4
f 1 4 8
f 1 8 5
f 1 5 9
f 1 9 15
f 1 15 20
f 1 20 24
f 1 24 25
f 1 25 32
f 1 32 39
f 1 39 45
f 1 45 50
f 1 50 54
f 1 54 65
f 1 65 70
f 1 70 75
f 1 75 77
f 1 77 82
f 1 82 89
f 1 89 87
f 1 87 95
f 1 95 99
f 1 99 96
f 1 96 91
f 1 91 83
f 1 83 79
f 1 79 78
f 1 78 73
f 1 73 72
f 1 72 66
f 1 66 55
f 1 55 51
f 1 51 46
f 1 46 40
f 1 40 33
f 1 33 26
f 1 26 21
f 1 21 16
f 1 16 10
f 1 10 6
f 1 6 2
f 2 6 7
f 2 7 3
f 3 7 12
f 3 12 17
f 3 17 22
f 3 22 29
f 3 29 35
f 3 35 43
f 3 43 47
f 3 47 52
f 3 52 60
f 3 60 68
f 3 68 74
f 3 74 80
f 3 80 85
f 3 85 84
f 3 84 92
f 3 92 97
f 3 97 100
f 3 100 101
f 3 101 98
f 3 98 93
f 3 93 86
f 3 86 81
f 3 81 76
f 3 76 69
f 3 69 62
f 3 62 53
f 3 53 49
f 3 49 48
f 3 48 44
f 3 44 36
f 3 36 30
f 3 30 23
f 3 23 18
f 3 18 13
f 3 13 8
f 3 8 4
f 5 8 13
f 5 13 9
f 6 10 11
f 6 11 12
f 6 12 7
f 9 13 18
f 9 18 14
f 9 14 15
f 10 16 11
f 11 16 17
f 11 17 12
f 14 18 23
f 14 23 19
f 14 19 20
f 14 20 15
f 16 21 17
f 17 21 22
f 19 24 20
f 19 23 25
f 19 25 24
f 21 26 27
f 21 27 28
f 21 28 22
f 22 28 34
f 22 34 29
f 23 30 25
f 25 30 31
f 25 31 32
f 26 33 27
f 27 33 28
f 28 33 34
f 29 34 41
f 29 41 35
f 30 36 37
f 30 37 31
f 31 37 32
f 32 37 38
f 32 38 39
f 33 40 41
f 33 41 34
f 35 41 46
f 35 46 42
f 35 42 43
f 36 44 38
f 36 38 37
f 38 44 45
f 38 45 39
f 40 46 41
f 42 46 51
f 42 51 56
f 42 56 52
f 42 52 47
f 42 47 43
f 44 48 45
f 45 48 49
f 45 49 50
f 49 53 61
f 49 61 54
f 49 54 50
f 51 55 56
f 52 56 57
f 52 57 58
f 52 58 59
f 52 59 60
f 53 62 63
f 53 63 64
f 53 64 61
f 54 61 65
f 55 66 67
f 55 67 58
f 55 58 57
f 55 57 56
f 58 67 59
f 59 67 66
f 59 66 68
f 59 68 60
f 61 64 65
f 62 69 70
f 62 70 71
f 62 71 63
f 63 65 64
f 63 71 65
f 65 71 70
f 66 72 68
f 68 72 73
f 68 73 74
f 69 75 70
f 69 76 77
f 69 77 75
f 73 78 74
f 74 78 79
f 74 79 80
f 76 81 82
f 76 82 77
f 79 83 84
f 79 84 85
f 79 85 80
f 81 86 87
f 81 87 88
f 81 88 89
f 81 89 82
f 83 90 84
f 83 91 90
f 84 90 92
f 86 93 94
f 86 94 87
f 87 94 95
f 87 89 88
f 90 91 92
f 91 96 97
f 91 97 92
f 93 98 94
f 94 98 95
f 95 98 99
f 96 100 97
f 96 99 101
f 96 101 100
f 98 101 99

