# https://github.com/mikedh/trimesh
v -0.00656992 0.01306360 0.00373994
v -0.00657064 0.01306360 0.00417947
v -0.00713784 0.01127936 0.00417947
v -0.00656992 0.01306360 -0.00373994
v -0.00659328 0.01306360 0.00438294
v -0.00725646 0.01127936 0.00461563
v -0.00713784 0.01127936 -0.00417947
v -0.00657064 0.01306360 -0.00417947
v -0.00664504 0.01306360 0.00453245
v -0.00669141 0.01306360 0.00461226
v -0.00740023 0.01127936 0.00484495
v -0.00715114 0.01127936 -0.00423343
v -0.00664504 0.01306360 -0.00453245
v -0.00671262 0.01306360 0.00464598
v -0.00743007 0.01127936 0.00488879
v -0.00725646 0.01127936 -0.00461563
v -0.00671262 0.01306360 -0.00464598
v -0.00688084 0.01306360 0.00487643
v -0.00692900 0.01306360 0.00492814
v -0.00765256 0.01127936 0.00510912
v -0.00743007 0.01127936 -0.00488879
v -0.00692900 0.01306360 -0.00492814
v -0.00712562 0.01306360 0.00510912
v -0.00787254 0.01127936 0.00532608
v -0.00765256 0.01127936 -0.00510912
v -0.00787254 0.01127936 -0.00532608
v -0.00739628 0.01306360 -0.00535643
v -0.00739628 0.01306360 0.00535643
v -0.00808785 0.01127936 0.00551605
v -0.00812595 0.01127936 -0.00554640
v -0.00834593 0.01127936 -0.00572739
v -0.00771331 0.01306360 -0.00560373
v -0.00763243 0.01306360 0.00555090
v -0.00831610 0.01127936 0.00570715
v -0.00837864 0.01127936 -0.00572963
v -0.00792143 0.01306360 -0.00572739
v -0.00794156 0.01278136 -0.00571727
v -0.00788836 0.01306360 -0.00571502
v -0.00771331 0.01306360 0.00560373
v -0.00794156 0.01278136 0.00571727
v -0.00834593 0.01127936 0.00572739
v -0.00857993 0.01127936 -0.00573863
v -0.00811661 0.01306360 -0.00573526
v -0.00790489 0.01306360 0.00572626
v -0.00792143 0.01306360 0.00572739
v -0.00854722 0.01127936 0.00573750
v -0.00897676 0.01127936 -0.00573076
v -0.00857993 0.01166010 -0.00574088
v -0.00857993 0.01210005 -0.00574200
v -0.00857993 0.01306360 -0.00574200
v -0.00811661 0.01306360 0.00573526
v -0.00857993 0.01127936 0.00573863
v -0.00897676 0.01306360 -0.00573076
v -0.00919674 0.01127936 -0.00571615
v -0.00849618 0.01306360 0.00574200
v -0.00857993 0.01210005 0.00574200
v -0.00857993 0.01166010 0.00574088
v -0.00890343 0.01127936 0.00573188
v -0.00919674 0.01306360 -0.00571615
v -0.00923196 0.01127936 -0.00570378
v -0.00857993 0.01306360 0.00574200
v -0.00888186 0.01306360 0.00573301
v -0.00895411 0.01127936 0.00573076
v -0.00924670 0.01306360 -0.00569816
v -0.00945985 0.01306360 -0.00562060
v -0.00945985 0.01127936 -0.00562060
v -0.00895303 0.01306360 0.00573076
v -0.00914426 0.01127936 0.00571727
v -0.00952778 0.01306360 -0.00558013
v -0.00950801 0.01127936 -0.00559137
v -0.00917301 0.01306360 0.00571502
v -0.00917409 0.01127936 0.00571502
v -0.00981678 0.01306360 -0.00540364
v -0.00981678 0.01127936 -0.00540364
v -0.00945985 0.01306360 0.00562060
v -0.00945985 0.01127936 0.00562060
v -0.00984661 0.01127936 -0.00536767
v -0.01003676 0.01306360 -0.00513835
v -0.00974812 0.01306360 0.00544636
v -0.00976789 0.01127936 0.00543399
v -0.01003676 0.01127936 -0.00513835
v -0.01005293 0.01127936 -0.00510912
v -0.01005940 0.01306360 -0.00509676
v -0.00981570 0.01306360 0.00540476
v -0.00981570 0.01127936 0.00540476
v -0.01015573 0.01306360 -0.00491914
v -0.01015573 0.01127936 -0.00491914
v -0.00999398 0.01306360 0.00518893
v -0.01003604 0.01166010 0.00513835
v -0.01003604 0.01127936 0.00513835
v -0.01016759 0.01306360 -0.00486181
v -0.01016400 0.01127936 -0.00487868
v -0.01003568 0.01306360 0.00513835
v -0.01013345 0.01306360 0.00496074
v -0.01014028 0.01127936 0.00494837
v -0.01021684 0.01306360 -0.00461900
v -0.01021684 0.01127936 -0.00461900
v -0.01015645 0.01306360 0.00491802
v -0.01015645 0.01127936 0.00491802
v -0.01024200 0.01306360 -0.00417947
v -0.01024200 0.01127936 -0.00417947
v -0.01021756 0.01306360 0.00461901
v -0.01020929 0.01127936 0.00465947
v -0.01024200 0.01306360 0.00417947
v -0.01024200 0.01127936 0.00417947
v -0.01021756 0.01127936 0.00461901
f 1 2 3
f 1 3 7
f 1 7 4
f 1 4 8
f 1 8 13
f 1 13 17
f 1 17 22
f 1 22 27
f 1 27 32
f 1 32 38
f 1 38 36
f 1 36 43
f 1 43 50
f 1 50 53
f 1 53 59
f 1 59 64
f 1 64 65
f 1 65 69
f 1 69 73
f 1 73 78
f 1 78 83
f 1 83 86
f 1 86 91
f 1 91 96
f 1 96 100
f 1 100 104
f 1 104 102
f 1 102 98
f 1 98 94
f 1 94 93
f 1 93 88
f 1 88 84
f 1 84 79
f 1 79 75
f 1 75 71
f 1 71 67
f 1 67 62
f 1 62 61
f 1 61 55
f 1 55 51
f 1 51 45
f 1 45 44
f 1 44 39
f 1 39 33
f 1 33 28
f 1 28 23
f 1 23 19
f 1 19 18
f 1 18 14
f 1 14 10
f 1 10 9
f 1 9 5
f 1 5 2
f 2 5 3
f 3 5 6
f 3 6 11
f 3 11 15
f 3 15 20
f 3 20 24
f 3 24 29
f 3 29 34
f 3 34 41
f 3 41 46
f 3 46 52
f 3 52 58
f 3 58 63
f 3 63 68
f 3 68 72
f 3 72 76
f 3 76 80
f 3 80 85
f 3 85 90
f 3 90 95
f 3 95 99
f 3 99 103
f 3 103 106
f 3 106 105
f 3 105 101
f 3 101 97
f 3 97 92
f 3 92 87
f 3 87 82
f 3 82 81
f 3 81 77
f 3 77 74
f 3 74 70
f 3 70 66
f 3 66 60
f 3 60 54
f 3 54 47
f 3 47 42
f 3 42 35
f 3 35 31
f 3 31 30
f 3 30 26
f 3 26 25
f 3 25 21
f 3 21 16
f 3 16 12
f 3 12 7
f 4 7 8
f 5 9 6
f 6 9 10
f 6 10 11
f 7 12 13
f 7 13 8
f 10 14 11
f 11 14 15
f 12 16 13
f 13 16 17
f 14 18 15
f 15 18 19
f 15 19 20
f 16 21 17
f 17 21 22
f 19 23 24
f 19 24 20
f 21 25 22
f 22 25 26
f 22 26 27
f 23 28 24
f 24 28 29
f 26 30 27
f 27 30 31
f 27 31 32
f 28 33 34
f 28 34 29
f 31 35 36
f 31 36 37
f 31 37 32
f 32 37 38
f 33 39 40
f 33 40 34
f 34 40 41
f 35 42 36
f 36 38 37
f 36 42 43
f 39 44 40
f 40 44 41
f 41 44 45
f 41 45 46
f 42 47 48
f 42 48 43
f 43 48 49
f 43 49 50
f 45 51 46
f 46 51 52
f 47 53 50
f 47 50 49
f 47 49 48
f 47 54 59
f 47 59 53
f 51 55 56
f 51 56 57
f 51 57 52
f 52 57 58
f 54 60 59
f 55 61 56
f 56 61 62
f 56 62 63
f 56 63 57
f 57 63 58
f 59 60 64
f 60 65 64
f 60 66 65
f 62 67 63
f 63 67 68
f 65 66 69
f 66 70 69
f 67 71 68
f 68 71 72
f 69 70 74
f 69 74 73
f 71 75 72
f 72 75 76
f 73 74 77
f 73 77 78
f 75 79 76
f 76 79 80
f 77 81 78
f 78 81 82
f 78 82 83
f 79 84 85
f 79 85 80
f 82 86 83
f 82 87 86
f 84 88 89
f 84 89 90
f 84 90 85
f 86 87 91
f 87 92 91
f 88 93 89
f 89 93 94
f 89 94 95
f 89 95 90
f 91 92 97
f 91 97 96
f 94 98 95
f 95 98 99
f 96 97 101
f 96 101 100
f 98 102 103
f 98 103 99
f 100 101 105
f 100 105 104
f 102 104 105
f 102 105 106
f 102 106 103

