# https://github.com/mikedh/trimesh
v 0.01024200 -0.00990684 0.00417903
v 0.01021690 -0.00990684 0.00461964
v 0.01024200 -0.01158558 0.00417903
v 0.01024200 -0.00990684 -0.00417903
v 0.01021690 -0.01158558 0.00461964
v 0.01015586 -0.00990684 0.00491862
v 0.01024200 -0.01158558 -0.00417903
v 0.01021752 -0.00990684 -0.00461964
v 0.01015586 -0.01158558 0.00491862
v 0.01003749 -0.00990684 0.00513893
v 0.01005764 -0.01158558 0.00510184
v 0.01021752 -0.01158558 -0.00461964
v 0.01020730 -0.01158558 -0.00467022
v 0.01015741 -0.00990684 -0.00491525
v 0.01003749 -0.01158558 0.00513893
v 0.00981750 -0.00990684 0.00540531
v 0.01015648 -0.01158558 -0.00491975
v 0.01015648 -0.00990684 -0.00491975
v 0.00981750 -0.01158558 0.00540531
v 0.00945992 -0.00990684 0.00562337
v 0.01003780 -0.00990684 -0.00514005
v 0.01003749 -0.01158558 -0.00514005
v 0.00945992 -0.01158558 0.00562337
v 0.00920956 -0.00990684 0.00571779
v 0.00925387 -0.01158558 0.00570205
v 0.01000031 -0.01158558 -0.00518501
v 0.00981781 -0.00990684 -0.00540531
v 0.00898956 -0.00990684 0.00573015
v 0.00921018 -0.01034004 0.00571779
v 0.00921142 -0.01121992 0.00571779
v 0.00921173 -0.01158558 0.00571779
v 0.00981750 -0.01158558 -0.00540531
v 0.00945992 -0.01158558 -0.00562337
v 0.00945992 -0.00990684 -0.00562337
v 0.00899018 -0.01034004 0.00573015
v 0.00866421 -0.00990684 0.00573015
v 0.00858024 -0.01158558 0.00574139
v 0.00899142 -0.01121992 0.00573015
v 0.00899173 -0.01158558 0.00573015
v 0.00921266 -0.01158558 -0.00571779
v 0.00921699 -0.00990684 -0.00571666
v 0.00844793 -0.00990684 0.00570880
v 0.00835528 -0.01092477 0.00572228
v 0.00834692 -0.01121992 0.00572678
v 0.00833917 -0.01158558 0.00573015
v 0.00917516 -0.01158558 -0.00572003
v 0.00921297 -0.01077998 -0.00571779
v 0.00921328 -0.00990684 -0.00571779
v 0.00844297 -0.00990684 0.00570542
v 0.00814458 -0.00990684 0.00548849
v 0.00788585 -0.01158558 0.00539070
v 0.00815635 -0.01158558 0.00560539
v 0.00899266 -0.01158558 -0.00573015
v 0.00899669 -0.00990684 -0.00573015
v 0.00814086 -0.00990684 0.00548512
v 0.00784402 -0.01158558 0.00535361
v 0.00858024 -0.01158558 -0.00574139
v 0.00866762 -0.00990684 -0.00573015
v 0.00792520 -0.00990684 0.00527493
v 0.00766120 -0.01158558 0.00517489
v 0.00833917 -0.01158558 -0.00573015
v 0.00834692 -0.01121992 -0.00572678
v 0.00835528 -0.01092477 -0.00572228
v 0.00845103 -0.00990684 -0.00570992
v 0.00770056 -0.00990684 0.00505013
v 0.00739968 -0.01158558 0.00491862
v 0.00743718 -0.01158558 0.00495571
v 0.00811917 -0.01158558 -0.00557391
v 0.00844793 -0.00990684 -0.00570879
v 0.00784402 -0.01158558 -0.00535361
v 0.00814954 -0.00990684 -0.00549299
v 0.00748521 -0.00990684 0.00483320
v 0.00721501 -0.01158558 0.00464886
v 0.00739968 -0.01158558 -0.00491862
v 0.00792520 -0.00990684 -0.00527493
v 0.00814458 -0.00990684 -0.00548849
v 0.00736560 -0.00990684 0.00461402
v 0.00718217 -0.01158558 0.00459716
v 0.00718217 -0.01158558 -0.00459716
v 0.00748521 -0.00990684 -0.00483320
v 0.00770954 -0.00990684 -0.00505912
v 0.00736343 -0.00990684 0.00460615
v 0.00725002 -0.00990684 0.00417903
v 0.00707836 -0.01158558 0.00418578
v 0.00715800 -0.01158558 -0.00450949
v 0.00736560 -0.00990684 -0.00461402
v 0.00707650 -0.01158558 0.00373955
v 0.00707681 -0.01158558 0.00417903
v 0.00725002 -0.00990684 -0.00417903
v 0.00707681 -0.01158558 -0.00417903
v 0.00707650 -0.01158558 -0.00373955
f 1 2 5
f 1 5 3
f 1 3 7
f 1 7 4
f 1 4 8
f 1 8 14
f 1 14 18
f 1 18 21
f 1 21 27
f 1 27 34
f 1 34 41
f 1 41 48
f 1 48 54
f 1 54 58
f 1 58 64
f 1 64 69
f 1 69 71
f 1 71 76
f 1 76 75
f 1 75 81
f 1 81 80
f 1 80 86
f 1 86 89
f 1 89 83
f 1 83 82
f 1 82 77
f 1 77 72
f 1 72 65
f 1 65 59
f 1 59 55
f 1 55 50
f 1 50 49
f 1 49 42
f 1 42 36
f 1 36 28
f 1 28 24
f 1 24 20
f 1 20 16
f 1 16 10
f 1 10 6
f 1 6 2
f 2 6 9
f 2 9 5
f 3 5 9
f 3 9 11
f 3 11 15
f 3 15 19
f 3 19 23
f 3 23 25
f 3 25 31
f 3 31 39
f 3 39 37
f 3 37 45
f 3 45 52
f 3 52 51
f 3 51 56
f 3 56 60
f 3 60 67
f 3 67 66
f 3 66 73
f 3 73 78
f 3 78 84
f 3 84 88
f 3 88 87
f 3 87 91
f 3 91 90
f 3 90 85
f 3 85 79
f 3 79 74
f 3 74 70
f 3 70 68
f 3 68 61
f 3 61 57
f 3 57 53
f 3 53 46
f 3 46 40
f 3 40 33
f 3 33 32
f 3 32 26
f 3 26 22
f 3 22 17
f 3 17 13
f 3 13 12
f 3 12 7
f 4 7 12
f 4 12 8
f 6 10 11
f 6 11 9
f 8 12 13
f 8 13 14
f 10 15 11
f 10 16 19
f 10 19 15
f 13 17 14
f 14 17 18
f 16 20 23
f 16 23 19
f 17 21 18
f 17 22 21
f 20 24 25
f 20 25 23
f 21 22 26
f 21 26 27
f 24 28 35
f 24 35 29
f 24 29 25
f 25 29 30
f 25 30 31
f 26 32 27
f 27 32 33
f 27 33 34
f 28 36 37
f 28 37 35
f 29 35 38
f 29 38 30
f 30 38 39
f 30 39 31
f 33 40 41
f 33 41 34
f 35 37 38
f 36 42 43
f 36 43 44
f 36 44 45
f 36 45 37
f 37 39 38
f 40 46 47
f 40 47 41
f 41 47 48
f 42 49 43
f 43 49 50
f 43 50 51
f 43 51 52
f 43 52 44
f 44 52 45
f 46 48 47
f 46 53 54
f 46 54 48
f 50 55 56
f 50 56 51
f 53 57 54
f 54 57 58
f 55 59 56
f 56 59 60
f 57 61 58
f 58 61 62
f 58 62 63
f 58 63 64
f 59 65 66
f 59 66 67
f 59 67 60
f 61 68 62
f 62 68 63
f 63 69 64
f 63 68 70
f 63 70 71
f 63 71 69
f 65 72 66
f 66 72 73
f 70 74 75
f 70 75 76
f 70 76 71
f 72 77 78
f 72 78 73
f 74 79 80
f 74 80 81
f 74 81 75
f 77 82 78
f 78 82 83
f 78 83 84
f 79 85 86
f 79 86 80
f 83 87 88
f 83 88 84
f 83 89 91
f 83 91 87
f 85 90 89
f 85 89 86
f 89 90 91

