# https://github.com/mikedh/trimesh
v 0.00484607 -0.02224200 -0.00417947
v 0.00484607 -0.02222979 -0.00439306
v 0.00857980 -0.02224200 -0.00417947
v 0.00484607 -0.02224200 0.00417947
v 0.00484607 -0.02221686 -0.00461900
v 0.00857980 -0.02221686 -0.00461900
v 0.00901978 -0.02222907 -0.00417947
v 0.00857980 -0.02224200 0.00417947
v 0.00484607 -0.02221686 0.00461901
v 0.00484607 -0.02215796 -0.00481910
v 0.00857980 -0.02209547 -0.00503043
v 0.00901978 -0.02208901 -0.00501694
v 0.00901978 -0.02220393 -0.00461900
v 0.00945976 -0.02212636 -0.00417947
v 0.00901978 -0.02222907 0.00417947
v 0.00857980 -0.02221686 0.00461901
v 0.00484607 -0.02215509 0.00483146
v 0.00484607 -0.02209547 -0.00503043
v 0.00484607 -0.02203944 -0.00513722
v 0.00857980 -0.02197911 -0.00525076
v 0.00937419 -0.02205453 -0.00494950
v 0.00901978 -0.02197049 -0.00523727
v 0.00949620 -0.02208326 -0.00463699
v 0.00969586 -0.02201215 -0.00450097
v 0.00970378 -0.02201790 -0.00417947
v 0.00945976 -0.02212636 0.00153892
v 0.00945976 -0.02212564 0.00417947
v 0.00901978 -0.02220321 0.00461901
v 0.00901978 -0.02208901 0.00501807
v 0.00857980 -0.02209547 0.00503156
v 0.00682042 -0.02209619 0.00503156
v 0.00484607 -0.02209619 0.00503156
v 0.00484607 -0.02197911 -0.00525076
v 0.00813983 -0.02175932 -0.00544074
v 0.00857980 -0.02175932 -0.00543961
v 0.00901978 -0.02175070 -0.00543287
v 0.00949620 -0.02191303 -0.00508102
v 0.00966734 -0.02199276 -0.00479437
v 0.00945976 -0.02167671 -0.00537441
v 0.00991769 -0.02177943 -0.00417947
v 0.00984850 -0.02181965 -0.00463699
v 0.00970378 -0.02201790 -0.00109939
v 0.00970325 -0.02201790 0.00153892
v 0.00970272 -0.02201718 0.00417947
v 0.00969480 -0.02201143 0.00449535
v 0.00949515 -0.02208326 0.00463249
v 0.00937261 -0.02205453 0.00494950
v 0.00901978 -0.02197121 0.00523839
v 0.00857980 -0.02198055 0.00525188
v 0.00484607 -0.02198055 0.00525188
v 0.00484607 -0.02175932 -0.00544074
v 0.00484607 -0.02136857 -0.00566106
v 0.00857980 -0.02136714 -0.00565994
v 0.00902612 -0.02130680 -0.00566444
v 0.00971065 -0.02159411 -0.00530697
v 0.01009886 -0.02149787 -0.00461900
v 0.00979516 -0.02169036 -0.00505966
v 0.00945976 -0.02133984 -0.00554191
v 0.01011312 -0.02154024 -0.00417947
v 0.01011312 -0.02154096 -0.00109939
v 0.01011365 -0.02154096 0.00373994
v 0.00991769 -0.02177943 -0.00373994
v 0.00991717 -0.02177943 0.00021920
v 0.00991664 -0.02177943 0.00329929
v 0.00991611 -0.02177943 0.00417947
v 0.00984797 -0.02181893 0.00463249
v 0.00966575 -0.02199204 0.00478875
v 0.00949515 -0.02191231 0.00508214
v 0.00945976 -0.02167600 0.00537329
v 0.00901978 -0.02175142 0.00543399
v 0.00484607 -0.02186778 0.00534968
v 0.00857980 -0.02176003 0.00544074
v 0.00769985 -0.02176075 0.00544186
v 0.00484607 -0.02114806 -0.00572739
v 0.00682042 -0.02114806 -0.00572739
v 0.00857980 -0.02114735 -0.00572739
v 0.00888404 -0.02113801 -0.00572401
v 0.00917718 -0.02089954 -0.00571615
v 0.00976928 -0.02133984 -0.00536092
v 0.01000115 -0.02134200 -0.00504392
v 0.01014164 -0.02119691 -0.00488767
v 0.01016488 -0.02127807 -0.00461900
v 0.00945976 -0.02089954 -0.00561947
v 0.01017756 -0.02132045 -0.00417947
v 0.01011365 -0.02154096 0.00417947
v 0.01009833 -0.02149571 0.00461901
v 0.00979410 -0.02168893 0.00505966
v 0.00970959 -0.02159340 0.00530697
v 0.00945976 -0.02133984 0.00554191
v 0.00903140 -0.02130680 0.00566556
v 0.00857980 -0.02136786 0.00566106
v 0.00484607 -0.02176075 0.00544186
v 0.00594047 -0.02136857 0.00566106
v 0.00484607 -0.02089954 -0.00573863
v 0.00506051 -0.02089954 -0.00573863
v 0.00857980 -0.02089954 -0.00573750
v 0.00895746 -0.02089954 -0.00572851
v 0.00898862 -0.02045996 -0.00573076
v 0.00920887 -0.02045996 -0.00571727
v 0.00981523 -0.02089954 -0.00540252
v 0.01003548 -0.02089954 -0.00513610
v 0.01015432 -0.02089954 -0.00491577
v 0.01021401 -0.02089954 -0.00461900
v 0.01023883 -0.02089954 -0.00417947
v 0.00945976 -0.02045996 -0.00562284
v 0.00981734 -0.02045996 -0.00540476
v 0.01017756 -0.02132045 0.00109939
v 0.01017703 -0.02132117 0.00417947
v 0.01016383 -0.02127592 0.00461901
v 0.01014006 -0.02119332 0.00488430
v 0.00999956 -0.02133984 0.00504280
v 0.00976769 -0.02133984 0.00536092
v 0.00945976 -0.02089954 0.00561947
v 0.00919144 -0.02089954 0.00571727
v 0.00889302 -0.02113801 0.00572401
v 0.00857980 -0.02114735 0.00572739
v 0.00813983 -0.02114806 0.00572739
v 0.00484607 -0.02136857 0.00566106
v 0.00506051 -0.02114878 0.00572739
v 0.00484607 -0.02045996 -0.00574200
v 0.00857980 -0.02045996 -0.00574200
v 0.00898968 -0.01869946 -0.00573076
v 0.00899126 -0.01490409 -0.00573076
v 0.00921098 -0.01518063 -0.00571727
v 0.00930395 -0.01490409 -0.00568242
v 0.01003759 -0.02045996 -0.00513947
v 0.01015643 -0.02045996 -0.00492027
v 0.01021770 -0.02045996 -0.00461900
v 0.01024200 -0.02045996 -0.00417947
v 0.01024200 -0.02045996 0.00417947
v 0.01023830 -0.02089954 0.00417947
v 0.00945976 -0.01490409 -0.00562284
v 0.00959339 -0.01490409 -0.00554191
v 0.00981734 -0.01490409 -0.00540476
v 0.00989974 -0.01490409 -0.00530584
v 0.01021189 -0.02089954 0.00461901
v 0.01015274 -0.02089954 0.00491240
v 0.01003390 -0.02089954 0.00513273
v 0.00981417 -0.02089954 0.00540252
v 0.00945976 -0.02045996 0.00562397
v 0.00922366 -0.02045996 0.00571839
v 0.00900341 -0.02045996 0.00573076
v 0.00897172 -0.02089954 0.00572851
v 0.00857980 -0.02089954 0.00573750
v 0.00506051 -0.02089954 0.00573863
v 0.00484607 -0.02114878 0.00572739
v 0.00484607 -0.01782029 -0.00574200
v 0.00857980 -0.01490409 -0.00574200
v 0.00921098 -0.01490409 -0.00571727
v 0.01003759 -0.01490409 -0.00513947
v 0.01015643 -0.01490409 -0.00492027
v 0.01021770 -0.01957935 -0.00461900
v 0.01024200 -0.01490409 -0.00417947
v 0.01024200 -0.01490409 0.00417947
v 0.01021665 -0.02045996 0.00461901
v 0.01015591 -0.02045996 0.00491915
v 0.01003706 -0.02045996 0.00513835
v 0.00981734 -0.02045996 0.00540476
v 0.00945976 -0.01738071 0.00562397
v 0.00922260 -0.01957935 0.00571839
v 0.00936891 -0.01490409 0.00565882
v 0.00857980 -0.02045996 0.00574200
v 0.00900235 -0.01957935 0.00573076
v 0.00857980 -0.01490409 0.00574200
v 0.00484607 -0.02089954 0.00573863
v 0.00484607 -0.01738071 -0.00573975
v 0.00506051 -0.01738071 -0.00574200
v 0.00769985 -0.01490409 -0.00574200
v 0.01017915 -0.01490409 -0.00480786
v 0.01021718 -0.01490409 -0.00461900
v 0.01022668 -0.01490409 -0.00445488
v 0.01021665 -0.01490409 0.00461901
v 0.01019394 -0.01490409 0.00473142
v 0.01015591 -0.01490409 0.00491915
v 0.01011154 -0.01490409 0.00500121
v 0.01003706 -0.01490409 0.00513835
v 0.00995520 -0.01490409 0.00523839
v 0.00981734 -0.01490409 0.00540476
v 0.00945976 -0.01490409 0.00562284
v 0.00921838 -0.01650010 0.00571839
v 0.00899654 -0.01518063 0.00573076
v 0.00900077 -0.01826059 0.00573076
v 0.00900130 -0.01869946 0.00573076
v 0.00921574 -0.01490409 0.00571839
v 0.00921627 -0.01518063 0.00571839
v 0.00484607 -0.02045996 0.00574200
v 0.00753611 -0.01490409 0.00574200
v 0.00899601 -0.01490409 0.00573076
v 0.00484607 -0.01704814 -0.00572963
v 0.00725406 -0.01490409 -0.00573638
v 0.00726040 -0.01518063 -0.00574200
v 0.00682042 -0.01562021 -0.00574200
v 0.00550049 -0.01694040 -0.00574200
v 0.00484607 -0.01759403 0.00574200
v 0.00725406 -0.01490409 0.00573638
v 0.00484607 -0.01738071 0.00573975
v 0.00699314 -0.01490409 -0.00572739
v 0.00484607 -0.01685493 -0.00566444
v 0.00710247 -0.01490409 0.00573301
v 0.00484607 -0.01717528 0.00573526
v 0.00678081 -0.01490409 -0.00564870
v 0.00484607 -0.01653242 -0.00546547
v 0.00699314 -0.01490409 0.00572739
v 0.00484607 -0.01704814 0.00572963
v 0.00643802 -0.01490409 -0.00543287
v 0.00484607 -0.01627815 -0.00527661
v 0.00696145 -0.01490409 0.00571952
v 0.00484607 -0.01692388 0.00570041
v 0.00484607 -0.01604543 -0.00510013
v 0.00619611 -0.01490409 -0.00525076
v 0.00678081 -0.01490409 0.00564870
v 0.00484607 -0.01685493 0.00566444
v 0.00484607 -0.01576961 -0.00488430
v 0.00593466 -0.01490409 -0.00505179
v 0.00665986 -0.01490409 0.00558013
v 0.00484607 -0.01668541 0.00556776
v 0.00484607 -0.01554838 -0.00461451
v 0.00567743 -0.01490409 -0.00484046
v 0.00568483 -0.01491917 -0.00486631
v 0.00570912 -0.01490409 -0.00487530
v 0.00643802 -0.01490409 0.00543287
v 0.00484607 -0.01653242 0.00546547
v 0.00548729 -0.01490409 -0.00460664
v 0.00484607 -0.01539970 -0.00417947
v 0.00534045 -0.01490409 -0.00417947
v 0.00626055 -0.01490409 0.00530247
v 0.00484607 -0.01617472 0.00520355
v 0.00484607 -0.01539754 -0.00373994
v 0.00533887 -0.01490409 -0.00373994
v 0.00611794 -0.01490409 0.00519568
v 0.00484607 -0.01586371 0.00496411
v 0.00484607 -0.01539754 0.00374781
v 0.00533887 -0.01490409 0.00373994
v 0.00581001 -0.01490409 0.00495961
v 0.00570912 -0.01490409 0.00487530
v 0.00484607 -0.01576961 0.00488430
v 0.00484607 -0.01539970 0.00417947
v 0.00534045 -0.01490409 0.00417947
v 0.00569117 -0.01490409 0.00485844
v 0.00484607 -0.01567336 0.00477076
v 0.00484607 -0.01554838 0.00461451
v 0.00538271 -0.01490409 0.00430425
v 0.00548729 -0.01490409 0.00460664
f 1 2 3
f 1 3 8
f 1 8 4
f 1 4 9
f 1 9 17
f 1 17 32
f 1 32 50
f 1 50 71
f 1 71 92
f 1 92 118
f 1 118 146
f 1 146 165
f 1 165 186
f 1 186 194
f 1 194 196
f 1 196 200
f 1 200 204
f 1 204 208
f 1 208 212
f 1 212 216
f 1 216 222
f 1 222 227
f 1 227 231
f 1 231 236
f 1 236 240
f 1 240 241
f 1 241 237
f 1 237 232
f 1 232 228
f 1 228 224
f 1 224 217
f 1 217 213
f 1 213 209
f 1 209 206
f 1 206 202
f 1 202 198
f 1 198 189
f 1 189 166
f 1 166 147
f 1 147 120
f 1 120 94
f 1 94 74
f 1 74 52
f 1 52 51
f 1 51 33
f 1 33 19
f 1 19 18
f 1 18 10
f 1 10 5
f 1 5 2
f 2 5 6
f 2 6 3
f 3 6 13
f 3 13 7
f 3 7 15
f 3 15 8
f 4 8 16
f 4 16 9
f 5 10 6
f 6 10 11
f 6 11 12
f 6 12 13
f 7 13 14
f 7 14 26
f 7 26 15
f 8 15 16
f 9 16 17
f 10 18 11
f 11 18 19
f 11 19 20
f 11 20 12
f 12 21 13
f 12 20 22
f 12 22 21
f 13 21 23
f 13 23 14
f 14 23 24
f 14 24 25
f 14 25 42
f 14 42 26
f 15 26 27
f 15 27 28
f 15 28 16
f 16 28 29
f 16 29 30
f 16 30 31
f 16 31 17
f 17 31 32
f 19 33 20
f 20 33 51
f 20 51 34
f 20 34 35
f 20 35 36
f 20 36 22
f 21 22 37
f 21 37 38
f 21 38 23
f 22 36 39
f 22 39 37
f 23 38 24
f 24 40 25
f 24 38 41
f 24 41 40
f 25 40 62
f 25 62 42
f 26 43 27
f 26 42 43
f 27 44 45
f 27 45 46
f 27 46 28
f 27 43 44
f 28 46 47
f 28 47 29
f 29 47 48
f 29 48 49
f 29 49 30
f 30 49 31
f 31 49 50
f 31 50 32
f 34 51 52
f 34 52 53
f 34 53 35
f 35 53 36
f 36 53 54
f 36 54 39
f 37 39 55
f 37 55 38
f 38 56 41
f 38 55 57
f 38 57 56
f 39 54 58
f 39 58 55
f 40 41 59
f 40 59 60
f 40 60 61
f 40 61 85
f 40 85 62
f 41 56 59
f 42 62 63
f 42 63 64
f 42 64 43
f 43 64 44
f 44 64 65
f 44 65 45
f 45 65 66
f 45 66 67
f 45 67 46
f 46 67 47
f 47 68 48
f 47 67 68
f 48 69 70
f 48 70 49
f 48 68 69
f 49 71 50
f 49 70 72
f 49 72 73
f 49 73 71
f 52 74 75
f 52 75 76
f 52 76 53
f 53 76 77
f 53 77 54
f 54 77 78
f 54 78 58
f 55 58 79
f 55 79 80
f 55 80 57
f 56 57 80
f 56 80 81
f 56 81 82
f 56 82 59
f 58 78 83
f 58 83 79
f 59 84 61
f 59 61 60
f 59 82 84
f 61 84 107
f 61 107 85
f 62 85 63
f 63 85 64
f 64 85 65
f 65 85 66
f 66 86 67
f 66 85 86
f 67 86 87
f 67 87 88
f 67 88 68
f 68 88 69
f 69 88 89
f 69 89 90
f 69 90 70
f 70 91 72
f 70 90 91
f 71 73 92
f 72 91 73
f 73 91 93
f 73 93 118
f 73 118 92
f 74 94 95
f 74 95 75
f 75 95 76
f 76 95 96
f 76 96 77
f 77 96 97
f 77 97 78
f 78 97 98
f 78 98 99
f 78 99 83
f 79 83 100
f 79 100 101
f 79 101 80
f 80 101 81
f 81 102 103
f 81 103 82
f 81 101 102
f 82 103 104
f 82 104 84
f 83 105 106
f 83 106 100
f 83 99 105
f 84 104 107
f 85 107 108
f 85 108 109
f 85 109 86
f 86 109 110
f 86 110 111
f 86 111 87
f 87 111 88
f 88 112 89
f 88 111 112
f 89 112 113
f 89 113 114
f 89 114 90
f 90 114 115
f 90 115 91
f 91 115 116
f 91 116 117
f 91 117 93
f 93 117 119
f 93 119 146
f 93 146 118
f 94 120 121
f 94 121 95
f 95 121 96
f 96 121 97
f 97 121 98
f 98 122 99
f 98 121 122
f 99 122 123
f 99 123 124
f 99 124 125
f 99 125 105
f 100 106 126
f 100 126 101
f 101 126 127
f 101 127 102
f 102 128 103
f 102 127 128
f 103 128 104
f 104 128 129
f 104 129 130
f 104 130 131
f 104 131 107
f 105 132 133
f 105 133 106
f 105 125 132
f 106 134 135
f 106 135 126
f 106 133 134
f 107 131 108
f 108 131 109
f 109 136 110
f 109 131 136
f 110 136 137
f 110 137 138
f 110 138 111
f 111 138 112
f 112 139 113
f 112 138 139
f 113 139 140
f 113 140 141
f 113 141 114
f 114 141 142
f 114 142 143
f 114 143 115
f 115 143 144
f 115 144 116
f 116 144 145
f 116 145 117
f 117 145 119
f 119 145 165
f 119 165 146
f 120 147 167
f 120 167 193
f 120 193 192
f 120 192 191
f 120 191 168
f 120 168 148
f 120 148 121
f 121 148 123
f 121 123 122
f 123 148 168
f 123 168 190
f 123 190 197
f 123 197 201
f 123 201 205
f 123 205 210
f 123 210 214
f 123 214 220
f 123 220 218
f 123 218 223
f 123 223 225
f 123 225 229
f 123 229 233
f 123 233 238
f 123 238 242
f 123 242 243
f 123 243 239
f 123 239 235
f 123 235 234
f 123 234 230
f 123 230 226
f 123 226 221
f 123 221 215
f 123 215 211
f 123 211 207
f 123 207 203
f 123 203 199
f 123 199 195
f 123 195 187
f 123 187 164
f 123 164 188
f 123 188 184
f 123 184 161
f 123 161 179
f 123 179 178
f 123 178 177
f 123 177 176
f 123 176 175
f 123 175 174
f 123 174 173
f 123 173 172
f 123 172 154
f 123 154 153
f 123 153 171
f 123 171 170
f 123 170 169
f 123 169 151
f 123 151 150
f 123 150 135
f 123 135 134
f 123 134 133
f 123 133 132
f 123 132 125
f 123 125 149
f 123 149 124
f 124 149 125
f 126 150 151
f 126 151 127
f 126 135 150
f 127 151 152
f 127 152 128
f 128 152 153
f 128 153 129
f 129 153 154
f 129 154 130
f 130 154 172
f 130 172 155
f 130 155 131
f 131 155 136
f 136 155 137
f 137 155 156
f 137 156 138
f 138 156 157
f 138 157 139
f 139 158 140
f 139 157 158
f 140 158 178
f 140 178 159
f 140 159 141
f 141 160 163
f 141 163 142
f 141 159 161
f 141 161 160
f 142 162 143
f 142 163 164
f 142 164 162
f 143 162 144
f 144 162 145
f 145 162 186
f 145 186 165
f 147 166 167
f 151 169 152
f 152 169 170
f 152 170 171
f 152 171 153
f 155 172 173
f 155 173 156
f 156 173 174
f 156 174 175
f 156 175 157
f 157 175 176
f 157 176 177
f 157 177 158
f 158 177 178
f 159 179 161
f 159 178 179
f 160 180 181
f 160 181 182
f 160 182 183
f 160 183 163
f 160 161 180
f 161 184 185
f 161 185 180
f 162 164 187
f 162 187 194
f 162 194 186
f 163 183 164
f 164 183 182
f 164 182 181
f 164 181 188
f 166 189 190
f 166 190 191
f 166 191 192
f 166 192 193
f 166 193 167
f 168 191 190
f 180 185 181
f 181 185 184
f 181 184 188
f 187 195 196
f 187 196 194
f 189 197 190
f 189 198 197
f 195 199 200
f 195 200 196
f 197 198 201
f 198 202 201
f 199 203 204
f 199 204 200
f 201 202 205
f 202 206 205
f 203 207 208
f 203 208 204
f 205 206 209
f 205 209 210
f 207 211 208
f 208 211 212
f 209 213 214
f 209 214 210
f 211 215 216
f 211 216 212
f 213 217 218
f 213 218 219
f 213 219 220
f 213 220 214
f 215 221 222
f 215 222 216
f 217 223 218
f 217 224 225
f 217 225 223
f 218 220 219
f 221 226 227
f 221 227 222
f 224 228 225
f 225 228 229
f 226 230 227
f 227 230 231
f 228 232 233
f 228 233 229
f 230 234 231
f 231 234 235
f 231 235 236
f 232 237 238
f 232 238 233
f 235 239 236
f 236 239 240
f 237 241 242
f 237 242 238
f 239 243 240
f 240 243 241
f 241 243 242

