# https://github.com/mikedh/trimesh
v 0.00268770 -0.02224200 -0.00417947
v 0.00268770 -0.02221654 -0.00461900
v 0.00484607 -0.02224200 -0.00417947
v 0.00268770 -0.02224200 0.00417947
v 0.00268770 -0.02209595 -0.00503043
v 0.00345779 -0.02221654 -0.00461900
v 0.00484607 -0.02221587 -0.00461900
v 0.00484607 -0.02224200 0.00417947
v 0.00268770 -0.02221654 0.00461901
v 0.00268770 -0.02197938 -0.00525076
v 0.00345779 -0.02209595 -0.00503043
v 0.00484607 -0.02209528 -0.00503043
v 0.00484607 -0.02221654 0.00461901
v 0.00268770 -0.02209595 0.00503156
v 0.00345779 -0.02197938 -0.00525076
v 0.00268770 -0.02175896 -0.00544074
v 0.00484607 -0.02197871 -0.00525076
v 0.00484607 -0.02215423 0.00483146
v 0.00345779 -0.02209595 0.00503156
v 0.00484607 -0.02203632 0.00514509
v 0.00268770 -0.02202560 0.00516533
v 0.00484607 -0.02175896 -0.00544074
v 0.00268770 -0.02160621 -0.00552729
v 0.00484607 -0.02209528 0.00503156
v 0.00268770 -0.02198005 0.00525188
v 0.00484607 -0.02198005 0.00525188
v 0.00268770 -0.02136904 -0.00566106
v 0.00484607 -0.02136770 -0.00566106
v 0.00484607 -0.02186682 0.00534968
v 0.00417971 -0.02175963 0.00544186
v 0.00268770 -0.02176030 0.00544074
v 0.00484607 -0.02114796 -0.00572739
v 0.00268770 -0.02114863 -0.00572739
v 0.00286010 -0.02114863 -0.00572739
v 0.00484607 -0.02175963 0.00544186
v 0.00345779 -0.02161961 0.00552055
v 0.00268770 -0.02136904 0.00566106
v 0.00268770 -0.02105081 -0.00573188
v 0.00484607 -0.02089940 -0.00573863
v 0.00484607 -0.02136770 0.00566106
v 0.00417971 -0.02136837 0.00566106
v 0.00345779 -0.02136904 0.00566106
v 0.00268770 -0.02114863 0.00572739
v 0.00268770 -0.02089940 -0.00573863
v 0.00345779 -0.02045991 -0.00574200
v 0.00484607 -0.02045924 -0.00574200
v 0.00484607 -0.02114796 0.00572739
v 0.00345779 -0.02114863 0.00572739
v 0.00268770 -0.02089940 0.00573863
v 0.00268770 -0.02045991 -0.00574200
v 0.00484607 -0.01782095 -0.00574200
v 0.00484607 -0.02089940 0.00573863
v 0.00268770 -0.02045991 0.00574200
v 0.00268770 -0.01870060 -0.00574200
v 0.00417971 -0.01782095 -0.00574200
v 0.00484607 -0.01738079 -0.00573975
v 0.00484607 -0.02045924 0.00574200
v 0.00345779 -0.02045991 0.00574200
v 0.00268770 -0.01870060 0.00574200
v 0.00286010 -0.01826044 -0.00574088
v 0.00329997 -0.01826044 -0.00574200
v 0.00268770 -0.01826312 -0.00573750
v 0.00484607 -0.01704849 -0.00572963
v 0.00484607 -0.01759451 0.00574200
v 0.00329997 -0.01826044 0.00574200
v 0.00286010 -0.01826044 0.00574088
v 0.00268770 -0.01843262 0.00574088
v 0.00268770 -0.01811707 -0.00573188
v 0.00268770 -0.01802462 -0.00572739
v 0.00439564 -0.01715836 -0.00572064
v 0.00484607 -0.01685554 -0.00566444
v 0.00417971 -0.01782095 0.00574200
v 0.00484607 -0.01738079 0.00573975
v 0.00484607 -0.01717578 0.00573526
v 0.00268770 -0.01826312 0.00573750
v 0.00268770 -0.01780420 -0.00556326
v 0.00484607 -0.01627871 -0.00527661
v 0.00484607 -0.01653329 -0.00546547
v 0.00484607 -0.01704849 0.00572963
v 0.00268770 -0.01802462 0.00572739
v 0.00268770 -0.01752952 -0.00534519
v 0.00484607 -0.01577021 -0.00488430
v 0.00484607 -0.01604623 -0.00510013
v 0.00484607 -0.01692455 0.00570041
v 0.00439564 -0.01715836 0.00572064
v 0.00484607 -0.01668604 0.00556776
v 0.00268770 -0.01794154 0.00567568
v 0.00268770 -0.01730642 -0.00513835
v 0.00268770 -0.01707462 -0.00491914
v 0.00484607 -0.01554913 -0.00461451
v 0.00484607 -0.01685554 0.00566444
v 0.00484607 -0.01653329 0.00546547
v 0.00484607 -0.01617554 0.00520355
v 0.00484607 -0.01586468 0.00496411
v 0.00268770 -0.01761929 0.00542612
v 0.00268770 -0.01687028 -0.00464261
v 0.00484607 -0.01539973 -0.00417947
v 0.00484607 -0.01577021 0.00488430
v 0.00268770 -0.01752952 0.00534519
v 0.00268770 -0.01681802 -0.00447287
v 0.00268770 -0.01673830 -0.00417947
v 0.00268770 -0.01673763 -0.00417273
v 0.00484607 -0.01539772 -0.00373882
v 0.00484607 -0.01567374 0.00477076
v 0.00268770 -0.01707462 0.00491915
v 0.00268770 -0.01715166 0.00499446
v 0.00268770 -0.01741898 0.00524289
v 0.00268770 -0.01673696 -0.00373882
v 0.00484607 -0.01539772 0.00374781
v 0.00484607 -0.01554913 0.00461451
v 0.00268770 -0.01694063 0.00474266
v 0.00268770 -0.01673696 0.00374781
v 0.00268770 -0.01673830 0.00417947
v 0.00484607 -0.01539973 0.00417947
v 0.00268770 -0.01687028 0.00464261
v 0.00268770 -0.01673897 0.00418285
f 1 2 6
f 1 6 3
f 1 3 8
f 1 8 4
f 1 4 9
f 1 9 14
f 1 14 21
f 1 21 25
f 1 25 31
f 1 31 37
f 1 37 43
f 1 43 49
f 1 49 53
f 1 53 59
f 1 59 67
f 1 67 75
f 1 75 80
f 1 80 87
f 1 87 95
f 1 95 99
f 1 99 107
f 1 107 106
f 1 106 105
f 1 105 111
f 1 111 115
f 1 115 116
f 1 116 113
f 1 113 112
f 1 112 108
f 1 108 102
f 1 102 101
f 1 101 100
f 1 100 96
f 1 96 89
f 1 89 88
f 1 88 81
f 1 81 76
f 1 76 69
f 1 69 68
f 1 68 62
f 1 62 54
f 1 54 50
f 1 50 44
f 1 44 38
f 1 38 33
f 1 33 27
f 1 27 23
f 1 23 16
f 1 16 10
f 1 10 5
f 1 5 2
f 2 5 11
f 2 11 6
f 3 6 7
f 3 7 12
f 3 12 17
f 3 17 22
f 3 22 28
f 3 28 32
f 3 32 39
f 3 39 46
f 3 46 51
f 3 51 56
f 3 56 63
f 3 63 71
f 3 71 78
f 3 78 77
f 3 77 83
f 3 83 82
f 3 82 90
f 3 90 97
f 3 97 103
f 3 103 109
f 3 109 114
f 3 114 110
f 3 110 104
f 3 104 98
f 3 98 94
f 3 94 93
f 3 93 92
f 3 92 86
f 3 86 91
f 3 91 84
f 3 84 79
f 3 79 74
f 3 74 73
f 3 73 64
f 3 64 57
f 3 57 52
f 3 52 47
f 3 47 40
f 3 40 35
f 3 35 29
f 3 29 26
f 3 26 20
f 3 20 24
f 3 24 18
f 3 18 13
f 3 13 8
f 4 8 13
f 4 13 9
f 5 10 15
f 5 15 11
f 6 11 12
f 6 12 7
f 9 13 19
f 9 19 14
f 10 16 22
f 10 22 15
f 11 15 17
f 11 17 12
f 13 18 19
f 14 19 20
f 14 20 21
f 15 22 17
f 16 23 22
f 18 24 19
f 19 24 20
f 20 25 21
f 20 26 25
f 22 23 27
f 22 27 28
f 25 26 29
f 25 29 30
f 25 30 31
f 27 32 28
f 27 33 34
f 27 34 32
f 29 35 30
f 30 35 36
f 30 36 31
f 31 36 37
f 32 34 38
f 32 38 39
f 33 38 34
f 35 40 41
f 35 41 42
f 35 42 36
f 36 42 37
f 37 42 48
f 37 48 43
f 38 44 39
f 39 44 50
f 39 50 45
f 39 45 46
f 40 47 41
f 41 47 42
f 42 47 48
f 43 48 52
f 43 52 49
f 45 50 54
f 45 54 61
f 45 61 55
f 45 55 51
f 45 51 46
f 47 52 48
f 49 52 58
f 49 58 53
f 51 55 56
f 52 57 58
f 53 58 57
f 53 57 64
f 53 64 72
f 53 72 65
f 53 65 59
f 54 60 61
f 54 62 60
f 55 61 60
f 55 60 56
f 56 60 63
f 59 65 66
f 59 66 67
f 60 62 68
f 60 68 63
f 63 68 69
f 63 69 70
f 63 70 71
f 64 73 72
f 65 72 66
f 66 73 74
f 66 74 75
f 66 75 67
f 66 72 73
f 69 76 77
f 69 77 78
f 69 78 70
f 70 78 71
f 74 79 80
f 74 80 75
f 76 81 82
f 76 82 83
f 76 83 77
f 79 84 85
f 79 85 80
f 80 85 86
f 80 86 87
f 81 88 82
f 82 88 89
f 82 89 90
f 84 91 85
f 85 91 86
f 86 92 87
f 87 92 93
f 87 93 94
f 87 94 95
f 89 96 90
f 90 96 97
f 94 98 95
f 95 98 99
f 96 100 97
f 97 100 101
f 97 101 102
f 97 102 103
f 98 104 105
f 98 105 106
f 98 106 107
f 98 107 99
f 102 108 103
f 103 108 112
f 103 112 109
f 104 110 105
f 105 110 111
f 109 112 113
f 109 113 114
f 110 114 115
f 110 115 111
f 113 116 114
f 114 116 115

