# https://github.com/mikedh/trimesh
v -0.00616060 -0.02224118 -0.00417947
v -0.00857944 -0.02224029 -0.00417947
v -0.00616060 -0.02222875 -0.00439980
v -0.00528345 -0.02222875 -0.00440205
v -0.00528345 -0.02224118 -0.00417947
v -0.00616060 -0.02224118 0.00417947
v -0.00901972 -0.02222787 -0.00417947
v -0.00857944 -0.02221545 -0.00461900
v -0.00857944 -0.02224029 0.00417947
v -0.00901972 -0.02222875 -0.00065986
v -0.00616060 -0.02221633 -0.00461900
v -0.00528345 -0.02221633 -0.00461900
v -0.00528345 -0.02224118 0.00417947
v -0.00616060 -0.02222875 0.00439980
v -0.00945950 -0.02212584 -0.00417947
v -0.00901972 -0.02220303 -0.00461900
v -0.00901972 -0.02208769 -0.00501807
v -0.00857944 -0.02209479 -0.00503043
v -0.00857944 -0.02221456 0.00461901
v -0.00901972 -0.02222787 0.00417947
v -0.00901972 -0.02222875 0.00021920
v -0.00616060 -0.02215600 -0.00482472
v -0.00528345 -0.02215512 -0.00482809
v -0.00528345 -0.02222875 0.00439643
v -0.00528345 -0.02221545 0.00461901
v -0.00616060 -0.02221545 0.00461901
v -0.00970416 -0.02201760 -0.00417947
v -0.00969590 -0.02201139 -0.00449985
v -0.00949640 -0.02208237 -0.00463699
v -0.00945950 -0.02212584 0.00329929
v -0.00937407 -0.02205398 -0.00494950
v -0.00901972 -0.02196969 -0.00523727
v -0.00857944 -0.02197856 -0.00525076
v -0.00616060 -0.02203712 -0.00514060
v -0.00528345 -0.02209479 -0.00503043
v -0.00616060 -0.02215512 0.00482584
v -0.00857944 -0.02209390 0.00503156
v -0.00901972 -0.02208769 0.00501919
v -0.00901972 -0.02220214 0.00461901
v -0.00945950 -0.02212495 0.00417947
v -0.00528345 -0.02215600 0.00482247
v -0.00991725 -0.02177894 -0.00417947
v -0.00970416 -0.02201760 0.00197957
v -0.00991774 -0.02177894 -0.00285976
v -0.00984881 -0.02181887 -0.00463699
v -0.00966726 -0.02199187 -0.00479437
v -0.00970367 -0.02201671 0.00417947
v -0.00970367 -0.02201760 0.00285976
v -0.00949640 -0.02191291 -0.00508214
v -0.00945950 -0.02167603 -0.00537329
v -0.00901972 -0.02174967 -0.00543399
v -0.00857944 -0.02175854 -0.00544074
v -0.00616060 -0.02175943 -0.00544074
v -0.00528345 -0.02186766 -0.00534743
v -0.00528345 -0.02197856 -0.00525076
v -0.00528345 -0.02203623 -0.00514172
v -0.00528345 -0.02209479 0.00503156
v -0.00594022 -0.02209479 0.00503156
v -0.00616060 -0.02198034 0.00525188
v -0.00857944 -0.02197945 0.00525076
v -0.00937213 -0.02205398 0.00495062
v -0.00901972 -0.02197147 0.00523952
v -0.00949494 -0.02208237 0.00463362
v -0.00969542 -0.02201050 0.00449535
v -0.01011288 -0.02153940 -0.00417947
v -0.00991725 -0.02177894 0.00417947
v -0.00991774 -0.02177894 0.00109939
v -0.01011288 -0.02154029 0.00021920
v -0.01009880 -0.02149770 -0.00461900
v -0.00979493 -0.02169022 -0.00505966
v -0.00971047 -0.02159352 -0.00530697
v -0.00945950 -0.02133889 -0.00554191
v -0.00903282 -0.02130606 -0.00566556
v -0.00857944 -0.02136640 -0.00566106
v -0.00616060 -0.02136728 -0.00566106
v -0.00528345 -0.02175943 -0.00544074
v -0.00528345 -0.02198034 0.00525188
v -0.00616060 -0.02176031 0.00544074
v -0.00814014 -0.02175943 0.00544074
v -0.00726056 -0.02197945 0.00525188
v -0.00857944 -0.02175943 0.00543961
v -0.00901972 -0.02175144 0.00543399
v -0.00949494 -0.02191291 0.00508214
v -0.00966581 -0.02199098 0.00478987
v -0.00945950 -0.02167780 0.00537441
v -0.00984832 -0.02181798 0.00463362
v -0.01017744 -0.02131937 -0.00417947
v -0.01016482 -0.02127768 -0.00461900
v -0.01011288 -0.02154029 0.00417947
v -0.01014200 -0.02119694 -0.00488767
v -0.01000075 -0.02134155 -0.00504392
v -0.00976920 -0.02133889 -0.00536092
v -0.00945950 -0.02089884 -0.00561947
v -0.00917942 -0.02089884 -0.00571615
v -0.00889448 -0.02113661 -0.00572401
v -0.00857944 -0.02114637 -0.00572626
v -0.00550043 -0.02114726 -0.00572739
v -0.00528345 -0.02136728 -0.00566106
v -0.00528345 -0.02176031 0.00544074
v -0.00857944 -0.02136817 0.00565994
v -0.00902894 -0.02130606 0.00566444
v -0.00971095 -0.02159441 0.00530809
v -0.01009880 -0.02149770 0.00461901
v -0.00979541 -0.02169022 0.00505966
v -0.00945950 -0.02133889 0.00554191
v -0.01023860 -0.02089884 -0.00417947
v -0.01017744 -0.02131937 -0.00109939
v -0.01021336 -0.02089884 -0.00461900
v -0.01017647 -0.02132026 0.00417947
v -0.01017695 -0.02132026 0.00197957
v -0.01016482 -0.02127768 0.00461901
v -0.01015414 -0.02089884 -0.00491577
v -0.01003473 -0.02089884 -0.00513498
v -0.00981483 -0.02089884 -0.00540252
v -0.00981726 -0.02045879 -0.00540476
v -0.00945950 -0.02045879 -0.00562172
v -0.00919641 -0.02045879 -0.00571615
v -0.00897651 -0.02045879 -0.00573076
v -0.00895904 -0.02089884 -0.00572851
v -0.00857944 -0.02089884 -0.00573750
v -0.00528345 -0.02114726 -0.00572739
v -0.00616060 -0.02089973 -0.00573750
v -0.00528345 -0.02136817 0.00565994
v -0.00528345 -0.02125993 0.00569366
v -0.00857944 -0.02114814 0.00572739
v -0.00888768 -0.02113838 0.00572514
v -0.00916728 -0.02089884 0.00571502
v -0.00976969 -0.02133889 0.00536092
v -0.01000123 -0.02134155 0.00504392
v -0.01014152 -0.02119605 0.00488767
v -0.00945950 -0.02089884 0.00561722
v -0.01024200 -0.02045879 -0.00417947
v -0.01023860 -0.02089884 -0.00241910
v -0.01021676 -0.02045879 -0.00461900
v -0.01023763 -0.02089884 0.00417947
v -0.01021336 -0.02089884 0.00461901
v -0.01015559 -0.02045879 -0.00491914
v -0.01003715 -0.02045879 -0.00513835
v -0.00993861 -0.01317752 -0.00525863
v -0.00981726 -0.01317752 -0.00540476
v -0.00945950 -0.01317752 -0.00562172
v -0.00934155 -0.01317752 -0.00566444
v -0.00919641 -0.01317752 -0.00571615
v -0.00909738 -0.01317752 -0.00572289
v -0.00897651 -0.01317752 -0.00573076
v -0.00857944 -0.02045879 -0.00574200
v -0.00528345 -0.02089973 -0.00573750
v -0.00528345 -0.02114814 0.00572739
v -0.00528345 -0.02102571 0.00573301
v -0.00857944 -0.02089884 0.00573863
v -0.00894739 -0.02089884 0.00572851
v -0.00896292 -0.02045879 0.00573076
v -0.00918233 -0.02045879 0.00571502
v -0.00981435 -0.02089884 0.00540252
v -0.01003424 -0.02089884 0.00513610
v -0.01015414 -0.02089884 0.00491577
v -0.00945950 -0.02045879 0.00562060
v -0.00981677 -0.02045879 0.00540476
v -0.01024200 -0.01317752 -0.00417947
v -0.01024200 -0.02045879 0.00417947
v -0.01021676 -0.01317752 -0.00461900
v -0.01021676 -0.02045879 0.00461901
v -0.01015559 -0.01317752 -0.00491914
v -0.01010220 -0.01317752 -0.00501807
v -0.01003715 -0.01317752 -0.00513835
v -0.00857944 -0.01317752 -0.00574200
v -0.00528345 -0.02045879 -0.00574200
v -0.00528345 -0.02089973 0.00573863
v -0.00616060 -0.02089973 0.00573863
v -0.00857944 -0.02045879 0.00574200
v -0.00896292 -0.01317752 0.00573076
v -0.00906146 -0.01317752 0.00572401
v -0.00918233 -0.01317752 0.00571502
v -0.00930660 -0.01317752 0.00567343
v -0.01003667 -0.02045879 0.00513947
v -0.01015608 -0.02045879 0.00491915
v -0.00945950 -0.01317752 0.00562060
v -0.00961969 -0.01317752 0.00552392
v -0.00981677 -0.01317752 0.00540476
v -0.01024200 -0.01317752 0.00417947
v -0.01021676 -0.01317752 0.00461901
v -0.00838236 -0.01317752 -0.00574200
v -0.00528345 -0.01715840 -0.00574200
v -0.00528345 -0.02045879 0.00574200
v -0.00857944 -0.01317752 0.00574200
v -0.01003667 -0.01474077 0.00513947
v -0.01015608 -0.01317752 0.00491915
v -0.01003618 -0.01317752 0.00513947
v -0.00812412 -0.01317752 -0.00573638
v -0.00814014 -0.01342150 -0.00574200
v -0.00528345 -0.01676892 -0.00573301
v -0.00528345 -0.01738108 0.00574200
v -0.00814014 -0.01342150 0.00574200
v -0.00812412 -0.01317752 0.00573638
v -0.00799208 -0.01317752 -0.00573188
v -0.00789257 -0.01317752 -0.00572739
v -0.00528345 -0.01667398 -0.00572739
v -0.00550043 -0.01694103 0.00574200
v -0.00528345 -0.01695257 0.00573638
v -0.00797364 -0.01317752 0.00573076
v -0.00782704 -0.01317752 -0.00570266
v -0.00528345 -0.01662519 -0.00571052
v -0.00528345 -0.01667398 0.00572739
v -0.00789257 -0.01317752 0.00572739
v -0.00769258 -0.01317752 -0.00561722
v -0.00528345 -0.01643355 -0.00561835
v -0.00528345 -0.01643355 0.00561835
v -0.00769258 -0.01317752 0.00561722
v -0.00753191 -0.01317752 -0.00551043
v -0.00528345 -0.01626853 -0.00552055
v -0.00528345 -0.01612303 0.00542725
v -0.00737123 -0.01317752 0.00537779
v -0.00737123 -0.01317752 -0.00537779
v -0.00528345 -0.01612303 -0.00542725
v -0.00528345 -0.01561821 0.00506303
v -0.00689407 -0.01317752 0.00494500
v -0.00727269 -0.01317752 -0.00528898
v -0.00703193 -0.01317752 -0.00507090
v -0.00689407 -0.01317752 -0.00494500
v -0.00528345 -0.01577880 -0.00518556
v -0.00528345 -0.01535294 0.00486968
v -0.00668825 -0.01317752 0.00469545
v -0.00677999 -0.01317752 -0.00482135
v -0.00528345 -0.01544610 -0.00494388
v -0.00528345 -0.01513824 0.00461901
v -0.00656107 -0.01317752 0.00448186
v -0.00668825 -0.01317752 -0.00469544
v -0.00528345 -0.01535294 -0.00486968
v -0.00528345 -0.01509033 0.00449648
v -0.00528345 -0.01497145 0.00417947
v -0.00651496 -0.01317752 0.00417947
v -0.00663631 -0.01317752 -0.00461226
v -0.00528345 -0.01528463 -0.00479324
v -0.00528345 -0.01496967 0.00373882
v -0.00651398 -0.01317752 0.00373882
v -0.00656107 -0.01317752 -0.00448186
v -0.00528345 -0.01513824 -0.00461900
v -0.00528345 -0.01496967 -0.00374332
v -0.00651398 -0.01317752 -0.00373882
v -0.00654262 -0.01317752 -0.00441891
v -0.00528345 -0.01497499 -0.00419072
v -0.00528345 -0.01497145 -0.00417947
v -0.00651496 -0.01317752 -0.00417947
f 1 2 3
f 1 3 4
f 1 4 5
f 1 5 13
f 1 13 6
f 1 6 9
f 1 9 2
f 2 7 16
f 2 16 8
f 2 8 3
f 2 9 21
f 2 21 10
f 2 10 7
f 3 8 11
f 3 11 4
f 4 11 12
f 4 12 23
f 4 23 35
f 4 35 56
f 4 56 55
f 4 55 54
f 4 54 76
f 4 76 98
f 4 98 121
f 4 121 147
f 4 147 167
f 4 167 183
f 4 183 191
f 4 191 197
f 4 197 202
f 4 202 206
f 4 206 210
f 4 210 214
f 4 214 220
f 4 220 224
f 4 224 228
f 4 228 233
f 4 233 237
f 4 237 241
f 4 241 242
f 4 242 238
f 4 238 234
f 4 234 230
f 4 230 229
f 4 229 225
f 4 225 221
f 4 221 215
f 4 215 211
f 4 211 207
f 4 207 203
f 4 203 199
f 4 199 192
f 4 192 184
f 4 184 168
f 4 168 149
f 4 149 148
f 4 148 124
f 4 124 123
f 4 123 99
f 4 99 77
f 4 77 57
f 4 57 41
f 4 41 25
f 4 25 24
f 4 24 13
f 4 13 5
f 6 13 14
f 6 14 9
f 7 15 16
f 7 10 15
f 8 16 17
f 8 17 18
f 8 18 22
f 8 22 11
f 9 14 19
f 9 19 39
f 9 39 20
f 9 20 21
f 10 21 30
f 10 30 15
f 11 22 23
f 11 23 12
f 13 24 14
f 14 24 25
f 14 25 26
f 14 26 19
f 15 27 28
f 15 28 29
f 15 29 16
f 15 30 43
f 15 43 27
f 16 29 31
f 16 31 17
f 17 31 32
f 17 32 33
f 17 33 18
f 18 34 35
f 18 35 23
f 18 23 22
f 18 33 34
f 19 26 36
f 19 36 37
f 19 37 38
f 19 38 39
f 20 40 30
f 20 30 21
f 20 39 40
f 25 41 36
f 25 36 26
f 27 42 28
f 27 43 67
f 27 67 44
f 27 44 42
f 28 42 45
f 28 45 46
f 28 46 29
f 29 46 31
f 30 40 47
f 30 47 48
f 30 48 43
f 31 49 32
f 31 46 49
f 32 49 50
f 32 50 51
f 32 51 33
f 33 51 52
f 33 52 53
f 33 53 54
f 33 54 55
f 33 55 34
f 34 56 35
f 34 55 56
f 36 41 57
f 36 57 58
f 36 58 37
f 37 58 59
f 37 59 60
f 37 60 38
f 38 61 39
f 38 60 62
f 38 62 61
f 39 61 63
f 39 63 40
f 40 63 64
f 40 64 47
f 42 65 45
f 42 44 65
f 43 48 66
f 43 66 67
f 44 67 89
f 44 89 68
f 44 68 65
f 45 65 69
f 45 69 46
f 46 69 70
f 46 70 71
f 46 71 49
f 47 66 48
f 47 64 66
f 49 71 50
f 50 71 72
f 50 72 73
f 50 73 51
f 51 73 74
f 51 74 52
f 52 74 75
f 52 75 53
f 53 75 98
f 53 98 76
f 53 76 54
f 57 77 59
f 57 59 58
f 59 77 99
f 59 99 78
f 59 78 79
f 59 79 80
f 59 80 60
f 60 80 79
f 60 79 81
f 60 81 82
f 60 82 62
f 61 62 83
f 61 83 84
f 61 84 63
f 62 82 85
f 62 85 83
f 63 84 64
f 64 84 86
f 64 86 66
f 65 87 88
f 65 88 69
f 65 68 87
f 66 86 89
f 66 89 67
f 68 89 107
f 68 107 87
f 69 88 90
f 69 90 91
f 69 91 70
f 70 91 71
f 71 92 72
f 71 91 92
f 72 93 94
f 72 94 73
f 72 92 93
f 73 94 95
f 73 95 74
f 74 95 96
f 74 96 97
f 74 97 75
f 75 97 121
f 75 121 98
f 78 99 123
f 78 123 100
f 78 100 79
f 79 100 81
f 81 100 82
f 82 100 101
f 82 101 85
f 83 85 102
f 83 102 84
f 84 103 86
f 84 102 104
f 84 104 103
f 85 101 105
f 85 105 102
f 86 103 89
f 87 106 88
f 87 107 133
f 87 133 106
f 88 108 90
f 88 106 108
f 89 109 110
f 89 110 107
f 89 103 111
f 89 111 109
f 90 112 113
f 90 113 91
f 90 108 112
f 91 113 92
f 92 114 93
f 92 113 114
f 93 114 115
f 93 115 116
f 93 116 117
f 93 117 94
f 94 117 118
f 94 118 119
f 94 119 95
f 95 119 120
f 95 120 96
f 96 120 97
f 97 120 122
f 97 122 147
f 97 147 121
f 100 123 124
f 100 124 125
f 100 125 126
f 100 126 101
f 101 126 127
f 101 127 105
f 102 105 128
f 102 128 129
f 102 129 104
f 103 104 129
f 103 129 130
f 103 130 111
f 105 127 131
f 105 131 128
f 106 132 134
f 106 134 108
f 106 133 160
f 106 160 132
f 107 110 133
f 108 134 112
f 109 135 110
f 109 111 135
f 110 135 133
f 111 130 136
f 111 136 135
f 112 134 137
f 112 137 138
f 112 138 113
f 113 138 114
f 114 138 115
f 115 138 139
f 115 139 140
f 115 140 141
f 115 141 116
f 116 141 142
f 116 142 117
f 117 142 143
f 117 143 144
f 117 144 118
f 118 144 145
f 118 145 166
f 118 166 146
f 118 146 119
f 119 146 120
f 120 146 122
f 122 146 167
f 122 167 147
f 124 148 125
f 125 148 149
f 125 149 150
f 125 150 126
f 126 150 151
f 126 151 127
f 127 151 152
f 127 152 153
f 127 153 131
f 128 154 155
f 128 155 129
f 128 131 154
f 129 155 130
f 130 155 156
f 130 156 136
f 131 157 158
f 131 158 154
f 131 153 157
f 132 159 161
f 132 161 134
f 132 160 180
f 132 180 159
f 133 135 160
f 134 161 163
f 134 163 137
f 135 136 160
f 136 156 162
f 136 162 160
f 137 163 164
f 137 164 138
f 138 164 165
f 138 165 139
f 139 165 164
f 139 164 163
f 139 163 161
f 139 161 159
f 139 159 180
f 139 180 181
f 139 181 187
f 139 187 188
f 139 188 179
f 139 179 178
f 139 178 177
f 139 177 174
f 139 174 173
f 139 173 172
f 139 172 171
f 139 171 185
f 139 185 194
f 139 194 200
f 139 200 204
f 139 204 208
f 139 208 212
f 139 212 216
f 139 216 222
f 139 222 226
f 139 226 231
f 139 231 235
f 139 235 239
f 139 239 243
f 139 243 240
f 139 240 236
f 139 236 232
f 139 232 227
f 139 227 223
f 139 223 219
f 139 219 218
f 139 218 217
f 139 217 213
f 139 213 209
f 139 209 205
f 139 205 201
f 139 201 196
f 139 196 195
f 139 195 189
f 139 189 182
f 139 182 166
f 139 166 145
f 139 145 144
f 139 144 143
f 139 143 142
f 139 142 141
f 139 141 140
f 146 166 182
f 146 182 190
f 146 190 183
f 146 183 167
f 149 168 169
f 149 169 150
f 150 169 170
f 150 170 151
f 151 170 152
f 152 171 172
f 152 172 153
f 152 170 185
f 152 185 171
f 153 172 173
f 153 173 174
f 153 174 157
f 154 158 175
f 154 175 155
f 155 175 156
f 156 176 162
f 156 175 176
f 157 174 177
f 157 177 178
f 157 178 158
f 158 179 186
f 158 186 175
f 158 178 179
f 160 162 181
f 160 181 180
f 162 176 187
f 162 187 181
f 168 184 170
f 168 170 169
f 170 184 192
f 170 192 198
f 170 198 193
f 170 193 185
f 175 186 187
f 175 187 176
f 179 188 186
f 182 189 190
f 183 190 189
f 183 189 191
f 185 193 194
f 186 188 187
f 189 195 191
f 191 195 196
f 191 196 197
f 192 199 198
f 193 198 199
f 193 199 194
f 194 199 200
f 196 201 197
f 197 201 202
f 199 203 204
f 199 204 200
f 201 205 202
f 202 205 206
f 203 207 208
f 203 208 204
f 205 209 206
f 206 209 210
f 207 211 212
f 207 212 208
f 209 213 210
f 210 213 214
f 211 215 216
f 211 216 212
f 213 217 214
f 214 217 218
f 214 218 219
f 214 219 220
f 215 221 216
f 216 221 222
f 219 223 224
f 219 224 220
f 221 225 226
f 221 226 222
f 223 227 228
f 223 228 224
f 225 229 226
f 226 229 230
f 226 230 231
f 227 232 228
f 228 232 233
f 230 234 231
f 231 234 235
f 232 236 237
f 232 237 233
f 234 238 239
f 234 239 235
f 236 240 237
f 237 240 241
f 238 242 243
f 238 243 239
f 240 243 242
f 240 242 241

