# https://github.com/mikedh/trimesh
v -0.00110448 -0.00283414 -0.00373994
v -0.00110448 -0.00283303 -0.00417947
v 0.00065920 -0.00277921 -0.00418060
v 0.00065920 -0.00277977 -0.00373994
v -0.00110448 -0.00283414 0.00373994
v -0.00110448 -0.00283192 -0.00418510
v 0.00065920 -0.00270930 -0.00454369
v 0.00065920 -0.00277977 0.00373882
v 0.00065920 -0.00277921 0.00417835
v -0.00110448 -0.00283303 0.00417947
v -0.00110448 -0.00273593 -0.00458416
v 0.00065920 -0.00258835 -0.00476402
v 0.00065920 -0.00270930 0.00454369
v -0.00110448 -0.00273760 0.00457966
v -0.00110448 -0.00261442 -0.00480336
v -0.00110448 -0.00261220 -0.00480673
v 0.00065920 -0.00236863 -0.00500795
v 0.00065920 -0.00258890 0.00476402
v -0.00110448 -0.00273593 0.00458416
v -0.00110448 -0.00239027 -0.00503605
v 0.00065920 -0.00214725 -0.00522828
v 0.00065920 -0.00236918 0.00500683
v -0.00110448 -0.00261553 0.00480224
v -0.00110448 -0.00216999 -0.00525413
v 0.00065920 -0.00192753 -0.00544636
v 0.00065920 -0.00214835 0.00522715
v -0.00110448 -0.00239803 0.00502818
v -0.00110448 -0.00195194 -0.00546884
v -0.00110448 -0.00161848 -0.00568917
v 0.00065920 -0.00158963 -0.00566668
v 0.00065920 -0.00192808 0.00544636
v -0.00110448 -0.00217221 0.00525188
v -0.00110448 -0.00140098 -0.00573076
v 0.00065920 -0.00137046 -0.00573076
v -0.00110448 -0.00195194 0.00546884
v 0.00065920 -0.00159074 0.00566556
v -0.00110448 -0.00162014 0.00568804
v -0.00110448 -0.00109970 -0.00574200
v 0.00065920 -0.00109970 -0.00574200
v 0.00065920 -0.00137046 0.00573076
v -0.00110448 -0.00140098 0.00573076
v -0.00110448 0.00109970 -0.00574200
v 0.00065920 0.00109970 -0.00574200
v 0.00065920 -0.00110026 0.00574088
v 0.00021983 -0.00109970 0.00574200
v -0.00110448 -0.00109970 0.00574200
v -0.00110448 0.00140098 -0.00573076
v 0.00065920 0.00137046 -0.00573076
v 0.00065920 -0.00066026 0.00574200
v -0.00110448 0.00109970 0.00574200
v -0.00110448 0.00162014 -0.00568804
v 0.00065920 0.00159018 -0.00566668
v 0.00065920 0.00109915 0.00574200
v -0.00110448 0.00140098 0.00573076
v 0.00021983 0.00109970 0.00574200
v -0.00110448 0.00195194 -0.00546884
v 0.00065920 0.00192753 -0.00544636
v 0.00065920 0.00137046 0.00573076
v -0.00110448 0.00161848 0.00568917
v -0.00110448 0.00217221 -0.00525188
v -0.00110448 0.00239803 -0.00502818
v 0.00065920 0.00236863 -0.00500795
v 0.00065920 0.00158963 0.00566668
v -0.00110448 0.00195194 0.00546884
v 0.00065920 0.00192753 0.00544636
v -0.00110448 0.00261442 -0.00480336
v 0.00065920 0.00258890 -0.00476402
v -0.00110448 0.00216999 0.00525413
v 0.00065920 0.00214725 0.00522828
v -0.00110448 0.00239027 0.00503605
v -0.00110448 0.00273593 -0.00458416
v 0.00065920 0.00270930 -0.00454369
v 0.00065920 0.00236863 0.00500795
v -0.00110448 0.00261220 0.00480673
v -0.00110448 0.00273760 -0.00457966
v -0.00110448 0.00283303 -0.00417947
v 0.00065920 0.00277921 -0.00417947
v 0.00065920 0.00258835 0.00476402
v -0.00110448 0.00261442 0.00480336
v -0.00110448 0.00283414 -0.00373994
v 0.00065920 0.00277977 -0.00373994
v 0.00065920 0.00270930 0.00454369
v -0.00110448 0.00273593 0.00458416
v -0.00110448 0.00283414 0.00373994
v 0.00065920 0.00277977 0.00373994
v -0.00110448 0.00283192 0.00418510
v 0.00065920 0.00277921 0.00417947
v -0.00110448 0.00283303 0.00417947
f 1 2 3
f 1 3 4
f 1 4 8
f 1 8 5
f 1 5 10
f 1 10 14
f 1 14 19
f 1 19 23
f 1 23 27
f 1 27 32
f 1 32 35
f 1 35 37
f 1 37 41
f 1 41 46
f 1 46 50
f 1 50 54
f 1 54 59
f 1 59 64
f 1 64 68
f 1 68 70
f 1 70 74
f 1 74 79
f 1 79 83
f 1 83 86
f 1 86 88
f 1 88 84
f 1 84 80
f 1 80 76
f 1 76 75
f 1 75 71
f 1 71 66
f 1 66 61
f 1 61 60
f 1 60 56
f 1 56 51
f 1 51 47
f 1 47 42
f 1 42 38
f 1 38 33
f 1 33 29
f 1 29 28
f 1 28 24
f 1 24 20
f 1 20 16
f 1 16 15
f 1 15 11
f 1 11 6
f 1 6 2
f 2 6 7
f 2 7 3
f 3 7 12
f 3 12 17
f 3 17 21
f 3 21 25
f 3 25 30
f 3 30 34
f 3 34 39
f 3 39 43
f 3 43 48
f 3 48 52
f 3 52 57
f 3 57 62
f 3 62 67
f 3 67 72
f 3 72 77
f 3 77 81
f 3 81 85
f 3 85 87
f 3 87 82
f 3 82 78
f 3 78 73
f 3 73 69
f 3 69 65
f 3 65 63
f 3 63 58
f 3 58 53
f 3 53 49
f 3 49 44
f 3 44 40
f 3 40 36
f 3 36 31
f 3 31 26
f 3 26 22
f 3 22 18
f 3 18 13
f 3 13 9
f 3 9 8
f 3 8 4
f 5 8 9
f 5 9 10
f 6 11 7
f 7 11 12
f 9 13 10
f 10 13 14
f 11 15 12
f 12 15 16
f 12 16 17
f 13 18 19
f 13 19 14
f 16 20 17
f 17 20 21
f 18 22 23
f 18 23 19
f 20 24 25
f 20 25 21
f 22 26 27
f 22 27 23
f 24 28 25
f 25 28 29
f 25 29 30
f 26 31 27
f 27 31 32
f 29 33 34
f 29 34 30
f 31 35 32
f 31 36 37
f 31 37 35
f 33 38 39
f 33 39 34
f 36 40 37
f 37 40 41
f 38 42 43
f 38 43 39
f 40 44 45
f 40 45 41
f 41 45 46
f 42 47 43
f 43 47 48
f 44 49 45
f 45 49 53
f 45 53 55
f 45 55 50
f 45 50 46
f 47 51 48
f 48 51 52
f 50 55 54
f 51 56 57
f 51 57 52
f 53 58 54
f 53 54 55
f 54 58 59
f 56 60 57
f 57 60 61
f 57 61 62
f 58 63 59
f 59 63 65
f 59 65 64
f 61 66 62
f 62 66 67
f 64 65 68
f 65 69 70
f 65 70 68
f 66 71 67
f 67 71 72
f 69 73 70
f 70 73 74
f 71 75 72
f 72 75 76
f 72 76 77
f 73 78 74
f 74 78 79
f 76 80 77
f 77 80 81
f 78 82 83
f 78 83 79
f 80 84 85
f 80 85 81
f 82 86 83
f 82 87 88
f 82 88 86
f 84 88 87
f 84 87 85

