# https://github.com/mikedh/trimesh
v 0.00357263 0.01631111 -0.00330041
v 0.00198443 0.01697410 -0.00373994
v 0.00357263 0.01631169 -0.00373994
v 0.00357263 0.01631111 0.00373882
v 0.00198443 0.01697468 -0.00417947
v 0.00198443 0.01697410 0.00374332
v 0.00357263 0.01631285 -0.00418172
v 0.00357263 0.01631227 0.00417723
v 0.00198443 0.01697468 0.00417947
v 0.00198443 0.01706640 -0.00456730
v 0.00198443 0.01706757 -0.00457179
v 0.00357263 0.01645160 -0.00464036
v 0.00357263 0.01640342 0.00448299
v 0.00198443 0.01706757 0.00457179
v 0.00198443 0.01719064 -0.00478987
v 0.00357263 0.01654275 -0.00476626
v 0.00357263 0.01645160 0.00464036
v 0.00198443 0.01719238 0.00479212
v 0.00198443 0.01719238 -0.00479212
v 0.00357263 0.01665015 -0.00490003
v 0.00357263 0.01665015 0.00490004
v 0.00198443 0.01741648 0.00502594
v 0.00198443 0.01740835 -0.00501807
v 0.00198443 0.01763650 -0.00523952
v 0.00198443 0.01763883 -0.00524177
v 0.00198443 0.01785885 -0.00545423
v 0.00357263 0.01674188 -0.00498434
v 0.00357263 0.01689398 0.00511699
v 0.00198443 0.01785885 0.00545423
v 0.00198443 0.01764115 0.00524402
v 0.00198443 0.01763883 0.00524177
v 0.00357263 0.01739499 -0.00553516
v 0.00357263 0.01719296 -0.00538228
v 0.00198443 0.01819035 -0.00567230
v 0.00258317 0.01802895 -0.00572626
v 0.00357263 0.01762547 -0.00570715
v 0.00357263 0.01702635 0.00523277
v 0.00357263 0.01712040 0.00531371
v 0.00357263 0.01739499 0.00553516
v 0.00357263 0.01762547 0.00570715
v 0.00258317 0.01802895 0.00572626
v 0.00198443 0.01819325 0.00567343
v 0.00198443 0.01819325 -0.00567343
v 0.00357263 0.01763941 -0.00571615
v 0.00356144 0.01764173 -0.00571502
v 0.00228994 0.01812475 -0.00570490
v 0.00198443 0.01841270 -0.00573076
v 0.00285992 0.01826001 -0.00574088
v 0.00285992 0.01801560 -0.00572963
v 0.00357263 0.01785189 -0.00573188
v 0.00357263 0.01765276 0.00571615
v 0.00356144 0.01764173 0.00571502
v 0.00228994 0.01812475 0.00570490
v 0.00357263 0.01785189 0.00573188
v 0.00285992 0.01801560 0.00572963
v 0.00285992 0.01826001 0.00574088
v 0.00198443 0.01841270 0.00573076
v 0.00198443 0.01870007 -0.00574200
v 0.00357263 0.01796277 -0.00573526
v 0.00329993 0.01826001 -0.00574200
v 0.00329993 0.01826001 0.00574200
v 0.00357263 0.01826001 0.00574200
v 0.00198443 0.01870007 0.00574200
v 0.00198443 0.02045971 -0.00574200
v 0.00357263 0.01826001 -0.00574200
v 0.00357263 0.02045971 0.00574200
v 0.00198443 0.02045971 0.00574200
v 0.00198443 0.02089977 -0.00573750
v 0.00357263 0.02045971 -0.00574200
v 0.00357263 0.02089977 0.00573863
v 0.00198443 0.02090209 0.00573863
v 0.00198443 0.02114708 -0.00572626
v 0.00357263 0.02089977 -0.00573750
v 0.00357263 0.02105420 0.00573188
v 0.00242008 0.02114883 0.00572739
v 0.00198443 0.02115115 0.00572626
v 0.00198443 0.02136479 -0.00566219
v 0.00357263 0.02114708 -0.00572626
v 0.00357263 0.02114883 0.00572739
v 0.00198443 0.02136885 0.00566106
v 0.00357263 0.02123068 -0.00570153
v 0.00198443 0.02175956 -0.00544074
v 0.00357263 0.02151631 -0.00557788
v 0.00242008 0.02136711 -0.00566106
v 0.00357263 0.02136711 -0.00566106
v 0.00357263 0.02136885 0.00566106
v 0.00198443 0.02137292 0.00565882
v 0.00198443 0.02197727 -0.00525188
v 0.00242008 0.02197959 -0.00525076
v 0.00357263 0.02184316 -0.00536879
v 0.00357263 0.02175956 -0.00544074
v 0.00357263 0.02161152 0.00552505
v 0.00242008 0.02176072 0.00544074
v 0.00198443 0.02176247 0.00543961
v 0.00198443 0.02209512 -0.00503268
v 0.00357263 0.02197959 -0.00525076
v 0.00357263 0.02176072 0.00544074
v 0.00357263 0.02189715 0.00532383
v 0.00198443 0.02198075 0.00525188
v 0.00198443 0.02221588 -0.00462350
v 0.00242008 0.02209628 -0.00503043
v 0.00357263 0.02209628 -0.00503043
v 0.00357263 0.02198075 0.00525188
v 0.00357263 0.02205216 0.00511587
v 0.00198443 0.02209628 0.00503156
v 0.00198443 0.02221704 -0.00461900
v 0.00357263 0.02221704 -0.00461900
v 0.00357263 0.02214215 -0.00487418
v 0.00357263 0.02209628 0.00503156
v 0.00198443 0.02209744 0.00502818
v 0.00198443 0.02224142 -0.00418397
v 0.00357263 0.02224142 -0.00417947
v 0.00357263 0.02217117 0.00477638
v 0.00198443 0.02221704 0.00461901
v 0.00198443 0.02224142 0.00417947
v 0.00357263 0.02224142 0.00417947
v 0.00357263 0.02221704 0.00461901
v 0.00357263 0.02223213 0.00434697
f 1 2 5
f 1 5 3
f 1 3 7
f 1 7 12
f 1 12 16
f 1 16 20
f 1 20 27
f 1 27 33
f 1 33 32
f 1 32 36
f 1 36 44
f 1 44 50
f 1 50 59
f 1 59 65
f 1 65 69
f 1 69 73
f 1 73 78
f 1 78 81
f 1 81 85
f 1 85 83
f 1 83 91
f 1 91 90
f 1 90 96
f 1 96 102
f 1 102 108
f 1 108 107
f 1 107 112
f 1 112 116
f 1 116 118
f 1 118 117
f 1 117 113
f 1 113 109
f 1 109 104
f 1 104 103
f 1 103 98
f 1 98 97
f 1 97 92
f 1 92 86
f 1 86 79
f 1 79 74
f 1 74 70
f 1 70 66
f 1 66 62
f 1 62 54
f 1 54 51
f 1 51 40
f 1 40 39
f 1 39 38
f 1 38 37
f 1 37 28
f 1 28 21
f 1 21 17
f 1 17 13
f 1 13 8
f 1 8 4
f 1 4 6
f 1 6 2
f 2 6 9
f 2 9 14
f 2 14 18
f 2 18 22
f 2 22 31
f 2 31 30
f 2 30 29
f 2 29 42
f 2 42 57
f 2 57 63
f 2 63 67
f 2 67 71
f 2 71 76
f 2 76 80
f 2 80 87
f 2 87 94
f 2 94 99
f 2 99 105
f 2 105 110
f 2 110 114
f 2 114 115
f 2 115 111
f 2 111 106
f 2 106 100
f 2 100 95
f 2 95 88
f 2 88 82
f 2 82 77
f 2 77 72
f 2 72 68
f 2 68 64
f 2 64 58
f 2 58 47
f 2 47 43
f 2 43 34
f 2 34 26
f 2 26 25
f 2 25 24
f 2 24 23
f 2 23 19
f 2 19 15
f 2 15 11
f 2 11 10
f 2 10 5
f 3 5 7
f 4 8 9
f 4 9 6
f 5 10 7
f 7 10 11
f 7 11 12
f 8 13 14
f 8 14 9
f 11 15 12
f 12 15 16
f 13 17 14
f 14 17 18
f 15 19 16
f 16 19 20
f 17 21 18
f 18 21 22
f 19 23 20
f 20 23 24
f 20 24 25
f 20 25 26
f 20 26 27
f 21 28 29
f 21 29 30
f 21 30 31
f 21 31 22
f 26 32 33
f 26 33 27
f 26 34 35
f 26 35 36
f 26 36 32
f 28 37 29
f 29 37 38
f 29 38 39
f 29 39 40
f 29 40 41
f 29 41 42
f 34 43 35
f 35 44 45
f 35 45 36
f 35 43 46
f 35 46 47
f 35 47 48
f 35 48 49
f 35 49 50
f 35 50 44
f 36 45 44
f 40 51 52
f 40 52 41
f 41 53 42
f 41 52 51
f 41 51 54
f 41 54 55
f 41 55 56
f 41 56 57
f 41 57 53
f 42 53 57
f 43 47 46
f 47 58 48
f 48 59 50
f 48 50 49
f 48 58 60
f 48 60 59
f 54 61 56
f 54 56 55
f 54 62 61
f 56 61 63
f 56 63 57
f 58 64 69
f 58 69 65
f 58 65 60
f 59 60 65
f 61 62 66
f 61 66 67
f 61 67 63
f 64 68 73
f 64 73 69
f 66 70 71
f 66 71 67
f 68 72 78
f 68 78 73
f 70 74 71
f 71 74 75
f 71 75 76
f 72 77 78
f 74 79 75
f 75 80 76
f 75 79 86
f 75 86 80
f 77 81 78
f 77 82 83
f 77 83 84
f 77 84 85
f 77 85 81
f 80 86 87
f 82 88 89
f 82 89 90
f 82 90 91
f 82 91 83
f 83 85 84
f 86 92 87
f 87 92 93
f 87 93 94
f 88 95 89
f 89 96 90
f 89 95 96
f 92 97 93
f 93 97 94
f 94 97 98
f 94 98 99
f 95 100 101
f 95 101 102
f 95 102 96
f 98 103 99
f 99 103 104
f 99 104 105
f 100 106 107
f 100 107 108
f 100 108 102
f 100 102 101
f 104 109 105
f 105 109 110
f 106 111 107
f 107 111 112
f 109 113 110
f 110 113 114
f 111 115 116
f 111 116 112
f 113 117 114
f 114 117 118
f 114 118 115
f 115 118 116

