# https://github.com/mikedh/trimesh
v 0.00858001 0.00813877 0.00574200
v 0.00897534 0.00939199 0.00573076
v 0.00858001 0.00857856 0.00573975
v 0.00694513 0.00430308 0.00574200
v 0.00858001 -0.00749828 0.00574200
v 0.00898631 -0.00725855 0.00573076
v 0.00919543 0.00939199 0.00571615
v 0.00860679 0.00939199 0.00573076
v 0.00920672 -0.00749828 0.00571727
v 0.00920608 -0.00681712 0.00571727
v 0.00919737 0.00065917 0.00571727
v 0.00694513 0.00477262 0.00573526
v 0.00694513 -0.00417843 0.00574200
v 0.00726010 -0.00505799 0.00574088
v 0.00814047 -0.00681712 0.00574088
v 0.00824148 -0.00749828 0.00573076
v 0.00898631 -0.00749828 0.00573076
v 0.00941907 0.00939199 0.00563633
v 0.00854225 0.00939199 0.00572739
v 0.00694609 0.00505865 0.00573076
v 0.00932226 -0.00749828 0.00567455
v 0.00945973 0.00153874 0.00562284
v 0.00945973 0.00939199 0.00562172
v 0.00694513 0.00505534 0.00573076
v 0.00694513 -0.00505634 0.00573076
v 0.00790973 -0.00707999 0.00572514
v 0.00804527 -0.00749828 0.00568242
v 0.00838928 0.00939199 0.00571615
v 0.00836121 0.00923823 0.00571952
v 0.00694513 0.00523886 0.00570715
v 0.00945973 -0.00749828 0.00562284
v 0.00962271 -0.00749828 0.00552392
v 0.00981795 0.00939199 0.00540476
v 0.00976244 0.00939199 0.00543849
v 0.00694513 -0.00538039 0.00563858
v 0.00702548 -0.00530599 0.00572626
v 0.00791747 -0.00749828 0.00559811
v 0.00811562 0.00939199 0.00548008
v 0.00694513 0.00596136 0.00538341
v 0.00805689 0.00939199 0.00542612
v 0.00791360 0.00939199 0.00528561
v 0.00764187 0.00939199 0.00501807
v 0.00747309 0.00939199 0.00484608
v 0.00736111 0.00939199 0.00465273
v 0.00981763 -0.00749828 0.00540476
v 0.00981795 0.00109896 0.00540476
v 0.00983054 0.00684423 0.00539015
v 0.01000351 0.00939199 0.00517994
v 0.00694513 -0.00593921 0.00539128
v 0.00705259 -0.00749828 0.00482247
v 0.00727397 -0.00749828 0.00504280
v 0.00773062 -0.00749828 0.00546996
v 0.00694513 0.00697484 0.00492589
v 0.00722299 0.00939199 0.00417947
v 0.00694513 0.00763121 0.00456842
v 0.00694513 0.00742454 0.00469432
v 0.00694513 0.00712529 0.00485395
v 0.01003740 -0.00749828 0.00513835
v 0.00983054 0.00684257 0.00539015
v 0.01003740 0.00939199 0.00513835
v 0.00694513 -0.00697418 0.00492589
v 0.00694513 -0.00735940 0.00472692
v 0.00694513 -0.00749828 0.00464598
v 0.00722299 0.00939199 -0.00417947
v 0.00694513 0.00793046 0.00373882
v 0.00694513 0.00792880 0.00399737
v 0.00694513 0.00792715 0.00417947
v 0.00694513 0.00787094 0.00432561
v 0.00694513 0.00767584 0.00453132
v 0.01015551 -0.00749828 0.00491915
v 0.01004450 0.00684257 0.00512598
v 0.01004450 0.00684423 0.00512598
v 0.01013776 0.00939199 0.00495287
v 0.00694513 -0.00749828 -0.00464936
v 0.00724170 0.00939199 -0.00424692
v 0.00694513 0.00763121 -0.00456842
v 0.00694513 0.00769899 -0.00449086
v 0.00694513 0.00792715 -0.00417947
v 0.00694513 0.00793046 -0.00373882
v 0.01021683 -0.00749828 0.00461901
v 0.01020747 0.00939199 0.00466509
v 0.01015551 0.00939199 0.00491915
v 0.00698385 -0.00749828 -0.00471568
v 0.00694513 -0.00742223 -0.00469432
v 0.00736111 0.00939199 -0.00465273
v 0.00694513 0.00736006 -0.00472692
v 0.01024200 -0.00749828 0.00417947
v 0.01021844 0.00684257 0.00459427
v 0.01021683 0.00939199 0.00461901
v 0.00705259 -0.00749828 -0.00482247
v 0.00694513 -0.00712463 -0.00485395
v 0.00744534 0.00939199 -0.00479662
v 0.00694513 0.00537939 -0.00563858
v 0.00694513 0.00593821 -0.00539127
v 0.00694513 0.00600930 -0.00535980
v 0.00694513 0.00697484 -0.00492589
v 0.01024200 -0.00749828 -0.00417947
v 0.01024200 0.00939199 0.00417947
v 0.01021844 0.00684423 0.00459427
v 0.00694513 -0.00697418 -0.00492589
v 0.00694513 -0.00596070 -0.00538341
v 0.00694513 -0.00523985 -0.00570715
v 0.00708648 -0.00749828 -0.00485844
v 0.00752634 0.00939199 -0.00490003
v 0.00747180 0.00935561 -0.00484833
v 0.00694609 0.00505865 -0.00573076
v 0.00694513 0.00505534 -0.00573076
v 0.00769222 0.00939199 -0.00506753
v 0.00774288 0.00939199 -0.00511811
v 0.00796523 0.00939199 -0.00533507
v 0.00811562 0.00939199 -0.00548008
v 0.00819662 0.00939199 -0.00555427
v 0.01021715 -0.00749828 -0.00461900
v 0.01024200 0.00939199 -0.00417947
v 0.00694513 -0.00505634 -0.00573076
v 0.00702548 -0.00530599 -0.00572626
v 0.00790973 -0.00707999 -0.00572514
v 0.00804527 -0.00749828 -0.00568242
v 0.00773062 -0.00749828 -0.00546996
v 0.00738660 -0.00749828 -0.00515071
v 0.00727397 -0.00749828 -0.00504280
v 0.00694513 0.00417743 -0.00574200
v 0.00838928 0.00939199 -0.00571615
v 0.00836121 0.00923823 -0.00571952
v 0.00860679 0.00939199 -0.00573076
v 0.01015648 -0.00749828 -0.00492027
v 0.01021392 0.00684257 -0.00463699
v 0.01021715 0.00939199 -0.00461900
v 0.00726010 -0.00505799 -0.00574088
v 0.00814047 -0.00681712 -0.00574088
v 0.00839477 -0.00749828 -0.00573750
v 0.00824148 -0.00749828 -0.00573076
v 0.00694513 -0.00477362 -0.00573526
v 0.00812950 -0.00749828 -0.00571052
v 0.00694513 -0.00430242 -0.00574200
v 0.00858001 0.00857856 -0.00573975
v 0.00858001 0.00813877 -0.00574200
v 0.00900180 0.00939199 -0.00573076
v 0.01003740 -0.00749828 -0.00513947
v 0.01005579 0.00939199 -0.00510575
v 0.01015648 0.00939199 -0.00492027
v 0.01016584 0.00939199 -0.00487418
v 0.01021392 0.00684423 -0.00463699
v 0.00858001 -0.00749828 -0.00574200
v 0.00922189 0.00939199 -0.00571839
v 0.00920802 0.00684423 -0.00571952
v 0.00900180 0.00901834 -0.00573076
v 0.00993768 -0.00749828 -0.00526088
v 0.01002481 0.00684257 -0.00515521
v 0.01003740 0.00857856 -0.00513947
v 0.01003707 0.00939199 -0.00513947
v 0.00899438 -0.00681712 -0.00573076
v 0.00899405 -0.00749828 -0.00573076
v 0.00945973 0.00939199 -0.00562284
v 0.00944586 0.00684423 -0.00562959
v 0.00944586 0.00684257 -0.00562959
v 0.00945973 -0.00749828 -0.00562284
v 0.00922060 0.00637799 -0.00571839
v 0.00920802 0.00684257 -0.00571952
v 0.00981763 -0.00749828 -0.00540476
v 0.00981763 0.00939199 -0.00540476
v 0.01002481 0.00684423 -0.00515521
v 0.00985119 0.00939199 -0.00536430
v 0.00921415 -0.00749828 -0.00571839
v 0.00921447 -0.00725855 -0.00571839
v 0.00951492 0.00939199 -0.00559024
v 0.00965466 -0.00749828 -0.00550481
f 1 2 3
f 1 3 4
f 1 4 13
f 1 13 5
f 1 5 17
f 1 17 6
f 1 6 2
f 2 7 18
f 2 18 23
f 2 23 34
f 2 34 33
f 2 33 48
f 2 48 60
f 2 60 73
f 2 73 82
f 2 82 81
f 2 81 89
f 2 89 98
f 2 98 114
f 2 114 128
f 2 128 142
f 2 142 141
f 2 141 140
f 2 140 151
f 2 151 163
f 2 163 161
f 2 161 166
f 2 166 154
f 2 154 145
f 2 145 138
f 2 138 125
f 2 125 123
f 2 123 112
f 2 112 111
f 2 111 110
f 2 110 109
f 2 109 108
f 2 108 104
f 2 104 92
f 2 92 85
f 2 85 75
f 2 75 64
f 2 64 54
f 2 54 44
f 2 44 43
f 2 43 42
f 2 42 41
f 2 41 40
f 2 40 38
f 2 38 28
f 2 28 19
f 2 19 8
f 2 8 3
f 2 6 9
f 2 9 10
f 2 10 11
f 2 11 7
f 3 8 4
f 4 12 24
f 4 24 30
f 4 30 39
f 4 39 53
f 4 53 57
f 4 57 56
f 4 56 55
f 4 55 69
f 4 69 68
f 4 68 67
f 4 67 66
f 4 66 65
f 4 65 79
f 4 79 78
f 4 78 77
f 4 77 76
f 4 76 86
f 4 86 96
f 4 96 95
f 4 95 94
f 4 94 93
f 4 93 107
f 4 107 122
f 4 122 135
f 4 135 133
f 4 133 115
f 4 115 102
f 4 102 101
f 4 101 100
f 4 100 91
f 4 91 84
f 4 84 74
f 4 74 63
f 4 63 62
f 4 62 61
f 4 61 49
f 4 49 35
f 4 35 25
f 4 25 13
f 4 8 12
f 5 13 14
f 5 14 15
f 5 15 16
f 5 16 27
f 5 27 37
f 5 37 52
f 5 52 51
f 5 51 50
f 5 50 63
f 5 63 74
f 5 74 83
f 5 83 90
f 5 90 103
f 5 103 121
f 5 121 120
f 5 120 119
f 5 119 118
f 5 118 134
f 5 134 132
f 5 132 131
f 5 131 144
f 5 144 153
f 5 153 164
f 5 164 157
f 5 157 167
f 5 167 160
f 5 160 148
f 5 148 139
f 5 139 126
f 5 126 113
f 5 113 97
f 5 97 87
f 5 87 80
f 5 80 70
f 5 70 58
f 5 58 45
f 5 45 32
f 5 32 31
f 5 31 21
f 5 21 9
f 5 9 17
f 6 17 9
f 7 11 10
f 7 10 9
f 7 9 18
f 8 19 20
f 8 20 12
f 9 21 22
f 9 22 23
f 9 23 18
f 12 20 24
f 13 25 14
f 14 25 15
f 15 25 16
f 16 26 27
f 16 25 26
f 19 28 29
f 19 29 20
f 20 30 24
f 20 29 28
f 20 28 30
f 21 31 22
f 22 31 32
f 22 32 33
f 22 33 34
f 22 34 23
f 25 35 36
f 25 36 26
f 26 36 27
f 27 36 37
f 28 38 30
f 30 38 40
f 30 40 41
f 30 41 42
f 30 42 43
f 30 43 44
f 30 44 39
f 32 45 46
f 32 46 33
f 33 47 48
f 33 46 59
f 33 59 47
f 35 49 50
f 35 50 51
f 35 51 52
f 35 52 36
f 36 52 37
f 39 44 53
f 44 54 55
f 44 55 56
f 44 56 57
f 44 57 53
f 45 58 59
f 45 59 46
f 47 59 48
f 48 59 58
f 48 58 60
f 49 61 50
f 50 61 62
f 50 62 63
f 54 64 79
f 54 79 65
f 54 65 66
f 54 66 67
f 54 67 68
f 54 68 69
f 54 69 55
f 58 70 71
f 58 71 72
f 58 72 60
f 60 72 73
f 64 75 76
f 64 76 77
f 64 77 78
f 64 78 79
f 70 80 81
f 70 81 82
f 70 82 73
f 70 73 71
f 71 73 72
f 74 84 83
f 75 85 76
f 76 85 86
f 80 87 88
f 80 88 99
f 80 99 89
f 80 89 81
f 83 84 91
f 83 91 90
f 85 92 93
f 85 93 94
f 85 94 95
f 85 95 96
f 85 96 86
f 87 97 114
f 87 114 98
f 87 98 99
f 87 99 88
f 89 99 98
f 90 91 100
f 90 100 101
f 90 101 102
f 90 102 103
f 92 104 105
f 92 105 93
f 93 106 107
f 93 105 104
f 93 104 108
f 93 108 109
f 93 109 110
f 93 110 111
f 93 111 112
f 93 112 106
f 97 113 128
f 97 128 114
f 102 115 116
f 102 116 117
f 102 117 118
f 102 118 119
f 102 119 120
f 102 120 121
f 102 121 103
f 106 122 107
f 106 112 123
f 106 123 124
f 106 124 125
f 106 125 122
f 113 126 127
f 113 127 143
f 113 143 128
f 115 129 130
f 115 130 131
f 115 131 132
f 115 132 117
f 115 117 116
f 115 133 129
f 117 132 134
f 117 134 118
f 122 125 136
f 122 136 137
f 122 137 144
f 122 144 135
f 123 125 124
f 125 138 136
f 126 139 140
f 126 140 141
f 126 141 142
f 126 142 127
f 127 142 143
f 128 143 142
f 129 133 135
f 129 135 130
f 130 135 144
f 130 144 131
f 136 138 137
f 137 138 147
f 137 147 144
f 138 145 146
f 138 146 159
f 138 159 147
f 139 148 149
f 139 149 162
f 139 162 150
f 139 150 140
f 140 150 151
f 144 147 152
f 144 152 153
f 145 154 155
f 145 155 156
f 145 156 157
f 145 157 158
f 145 158 159
f 145 159 146
f 147 159 152
f 148 160 161
f 148 161 162
f 148 162 149
f 150 162 163
f 150 163 151
f 152 159 153
f 153 159 165
f 153 165 164
f 154 166 157
f 154 157 156
f 154 156 155
f 157 164 165
f 157 165 158
f 157 166 167
f 158 165 159
f 160 167 161
f 161 163 162
f 161 167 166

