# https://github.com/mikedh/trimesh
v 0.01024200 -0.01317752 0.00417947
v 0.01021656 -0.01317752 0.00461901
v 0.01024200 -0.01490392 0.00417947
v 0.01024200 -0.01317752 -0.00417947
v 0.01018921 -0.01317752 0.00475390
v 0.01019400 -0.01490392 0.00473142
v 0.01021656 -0.01490392 0.00461901
v 0.01024200 -0.01490392 -0.00417947
v 0.01022856 -0.01317752 -0.00442228
v 0.01015561 -0.01317752 0.00491915
v 0.01015561 -0.01490392 0.00491915
v 0.01021752 -0.01490392 -0.00461900
v 0.01021752 -0.01317752 -0.00461900
v 0.01010234 -0.01317752 0.00501807
v 0.01011145 -0.01490392 0.00500121
v 0.01015657 -0.01490392 -0.00492027
v 0.01018393 -0.01317752 -0.00478537
v 0.01003754 -0.01317752 0.00513835
v 0.01003754 -0.01490392 0.00513835
v 0.01003754 -0.01490392 -0.00513947
v 0.01009082 -0.01317752 -0.00504167
v 0.01015657 -0.01317752 -0.00492027
v 0.00993867 -0.01317752 0.00525863
v 0.00995547 -0.01490392 0.00523839
v 0.01003754 -0.01317752 -0.00513947
v 0.00981773 -0.01490392 -0.00540476
v 0.00981725 -0.01317752 0.00540476
v 0.00981725 -0.01490392 0.00540476
v 0.00981773 -0.01317752 -0.00540476
v 0.00959311 -0.01490392 -0.00554191
v 0.00965694 -0.01317752 0.00550256
v 0.00945969 -0.01490392 0.00562284
v 0.00962047 -0.01317752 -0.00552505
v 0.00945969 -0.01490392 -0.00562284
v 0.00945969 -0.01317752 -0.00562284
v 0.00945969 -0.01317752 0.00562284
v 0.00936898 -0.01490392 0.00565882
v 0.00930370 -0.01490392 -0.00568242
v 0.00932290 -0.01317752 -0.00567568
v 0.00921395 -0.01317752 0.00571839
v 0.00921539 -0.01429989 0.00571839
v 0.00921587 -0.01473998 0.00571839
v 0.00921587 -0.01490392 0.00571839
v 0.00921107 -0.01490392 -0.00571727
v 0.00921155 -0.01386014 -0.00571727
v 0.00921155 -0.01317752 -0.00571727
v 0.00911508 -0.01317752 0.00572401
v 0.00899606 -0.01490392 0.00573076
v 0.00899126 -0.01490392 -0.00573076
v 0.00909061 -0.01317752 -0.00572514
v 0.00899366 -0.01317752 0.00573076
v 0.00899414 -0.01342005 0.00573076
v 0.00857994 -0.01317752 0.00574200
v 0.00857994 -0.01490392 0.00574200
v 0.00899174 -0.01342005 -0.00573076
v 0.00857994 -0.01490392 -0.00574200
v 0.00899174 -0.01317752 -0.00573076
v 0.00838221 -0.01317752 0.00574200
v 0.00753606 -0.01490392 0.00574200
v 0.00770020 -0.01490392 -0.00574200
v 0.00857994 -0.01317752 -0.00574200
v 0.00812351 -0.01317752 0.00573638
v 0.00813983 -0.01342005 0.00574200
v 0.00770020 -0.01429989 0.00574200
v 0.00725433 -0.01490392 0.00573638
v 0.00770020 -0.01429989 -0.00574200
v 0.00725433 -0.01490392 -0.00573638
v 0.00813983 -0.01342005 -0.00574200
v 0.00812351 -0.01317752 -0.00573638
v 0.00799201 -0.01317752 0.00573188
v 0.00710267 -0.01490392 0.00573301
v 0.00699324 -0.01490392 -0.00572739
v 0.00797329 -0.01317752 -0.00573076
v 0.00789266 -0.01317752 0.00572739
v 0.00699324 -0.01490392 0.00572739
v 0.00678062 -0.01490392 -0.00564870
v 0.00709739 -0.01457689 -0.00571277
v 0.00789266 -0.01317752 -0.00572739
v 0.00782691 -0.01317752 0.00570266
v 0.00709739 -0.01457689 0.00571277
v 0.00696156 -0.01490392 0.00571952
v 0.00643794 -0.01490392 -0.00543287
v 0.00769252 -0.01317752 -0.00561722
v 0.00769252 -0.01317752 0.00561722
v 0.00665968 -0.01490392 0.00558013
v 0.00678062 -0.01490392 0.00564870
v 0.00619605 -0.01490392 -0.00525076
v 0.00737096 -0.01317752 -0.00537779
v 0.00753174 -0.01317752 0.00551043
v 0.00643794 -0.01490392 0.00543287
v 0.00593496 -0.01490392 -0.00505179
v 0.00570938 -0.01490392 -0.00487530
v 0.00689389 -0.01317752 -0.00494500
v 0.00737096 -0.01317752 0.00537779
v 0.00581017 -0.01490392 0.00495961
v 0.00611782 -0.01490392 0.00519568
v 0.00626036 -0.01490392 0.00530247
v 0.00567771 -0.01490392 -0.00484046
v 0.00668799 -0.01317752 -0.00469544
v 0.00727257 -0.01317752 0.00528898
v 0.00570938 -0.01490392 0.00487530
v 0.00548717 -0.01490392 -0.00460664
v 0.00656081 -0.01317752 -0.00448186
v 0.00703164 -0.01317752 0.00507090
v 0.00689389 -0.01317752 0.00494500
v 0.00569115 -0.01490392 0.00485844
v 0.00534078 -0.01490392 -0.00417947
v 0.00651473 -0.01317752 -0.00417947
v 0.00677966 -0.01317752 0.00482135
v 0.00548717 -0.01490392 0.00460664
v 0.00534030 -0.01490392 -0.00405807
v 0.00533934 -0.01490392 -0.00373994
v 0.00651377 -0.01317752 -0.00373994
v 0.00668799 -0.01317752 0.00469545
v 0.00663616 -0.01317752 0.00461226
v 0.00656081 -0.01317752 0.00448186
v 0.00538254 -0.01490392 0.00430425
v 0.00533934 -0.01490392 0.00386023
v 0.00651377 -0.01317752 0.00373994
v 0.00654257 -0.01317752 0.00441891
v 0.00534078 -0.01490392 0.00417947
v 0.00651425 -0.01317752 0.00407381
v 0.00651473 -0.01317752 0.00417947
f 1 2 7
f 1 7 3
f 1 3 8
f 1 8 4
f 1 4 9
f 1 9 13
f 1 13 17
f 1 17 22
f 1 22 21
f 1 21 25
f 1 25 29
f 1 29 33
f 1 33 35
f 1 35 39
f 1 39 46
f 1 46 50
f 1 50 57
f 1 57 61
f 1 61 69
f 1 69 73
f 1 73 78
f 1 78 83
f 1 83 88
f 1 88 93
f 1 93 99
f 1 99 103
f 1 103 108
f 1 108 113
f 1 113 119
f 1 119 122
f 1 122 123
f 1 123 120
f 1 120 116
f 1 116 115
f 1 115 114
f 1 114 109
f 1 109 105
f 1 105 104
f 1 104 100
f 1 100 94
f 1 94 89
f 1 89 84
f 1 84 79
f 1 79 74
f 1 74 70
f 1 70 62
f 1 62 58
f 1 58 53
f 1 53 51
f 1 51 47
f 1 47 40
f 1 40 36
f 1 36 31
f 1 31 27
f 1 27 23
f 1 23 18
f 1 18 14
f 1 14 10
f 1 10 5
f 1 5 2
f 2 5 6
f 2 6 7
f 3 7 6
f 3 6 11
f 3 11 15
f 3 15 19
f 3 19 24
f 3 24 28
f 3 28 32
f 3 32 37
f 3 37 43
f 3 43 48
f 3 48 54
f 3 54 59
f 3 59 65
f 3 65 71
f 3 71 75
f 3 75 81
f 3 81 86
f 3 86 85
f 3 85 90
f 3 90 97
f 3 97 96
f 3 96 95
f 3 95 101
f 3 101 106
f 3 106 110
f 3 110 117
f 3 117 121
f 3 121 118
f 3 118 112
f 3 112 111
f 3 111 107
f 3 107 102
f 3 102 98
f 3 98 92
f 3 92 91
f 3 91 87
f 3 87 82
f 3 82 76
f 3 76 72
f 3 72 67
f 3 67 60
f 3 60 56
f 3 56 49
f 3 49 44
f 3 44 38
f 3 38 34
f 3 34 30
f 3 30 26
f 3 26 20
f 3 20 16
f 3 16 12
f 3 12 8
f 4 8 9
f 5 10 6
f 6 10 11
f 8 12 9
f 9 12 13
f 10 14 15
f 10 15 11
f 12 16 17
f 12 17 13
f 14 18 15
f 15 18 19
f 16 20 21
f 16 21 22
f 16 22 17
f 18 23 24
f 18 24 19
f 20 25 21
f 20 26 29
f 20 29 25
f 23 27 28
f 23 28 24
f 26 30 29
f 27 31 28
f 28 31 32
f 29 30 33
f 30 34 35
f 30 35 33
f 31 36 32
f 32 36 37
f 34 38 39
f 34 39 35
f 36 40 41
f 36 41 42
f 36 42 37
f 37 42 43
f 38 44 39
f 39 45 46
f 39 44 45
f 40 47 41
f 41 47 42
f 42 47 48
f 42 48 43
f 44 49 50
f 44 50 45
f 45 50 46
f 47 51 52
f 47 52 48
f 48 52 53
f 48 53 54
f 49 55 50
f 49 56 55
f 50 55 57
f 51 53 52
f 53 58 63
f 53 63 64
f 53 64 59
f 53 59 54
f 55 56 61
f 55 61 57
f 56 60 66
f 56 66 68
f 56 68 61
f 58 62 63
f 59 64 65
f 60 67 66
f 61 68 69
f 62 70 63
f 63 70 71
f 63 71 64
f 64 71 65
f 66 67 72
f 66 72 68
f 68 72 73
f 68 73 69
f 70 74 71
f 71 74 75
f 72 76 77
f 72 77 78
f 72 78 73
f 74 79 80
f 74 80 75
f 75 80 81
f 76 82 83
f 76 83 78
f 76 78 77
f 79 84 85
f 79 85 86
f 79 86 80
f 80 86 81
f 82 87 88
f 82 88 83
f 84 89 90
f 84 90 85
f 87 91 88
f 88 91 92
f 88 92 93
f 89 94 95
f 89 95 96
f 89 96 97
f 89 97 90
f 92 98 93
f 93 98 99
f 94 100 101
f 94 101 95
f 98 102 99
f 99 102 103
f 100 104 101
f 101 104 105
f 101 105 106
f 102 107 103
f 103 107 108
f 105 109 106
f 106 109 110
f 107 111 108
f 108 111 112
f 108 112 113
f 109 114 110
f 110 114 115
f 110 115 116
f 110 116 117
f 112 118 119
f 112 119 113
f 116 120 121
f 116 121 117
f 118 121 122
f 118 122 119
f 120 123 121
f 121 123 122

