# https://github.com/mikedh/trimesh
v -0.00637992 0.00373934 0.00574200
v -0.00639060 0.00416841 0.00573301
v -0.00660988 0.00417379 0.00573750
v -0.00660988 0.00373934 0.00574200
v -0.00594001 0.00329952 0.00574200
v -0.00595286 0.00372589 0.00573301
v -0.00660988 0.00454367 0.00572851
v -0.00660988 -0.00396902 0.00574200
v -0.00578941 0.00285969 0.00574200
v -0.00578941 0.00330086 0.00573863
v -0.00578941 0.00364653 0.00572963
v -0.00654433 0.00451004 0.00572626
v -0.00660988 0.00478577 0.00570828
v -0.00660988 -0.00442364 0.00573301
v -0.00594001 -0.00329920 0.00574200
v -0.00578941 -0.00314855 0.00574200
v -0.00578941 0.00385367 0.00569591
v -0.00581471 0.00386443 0.00570041
v -0.00660988 0.00505612 0.00557563
v -0.00660988 -0.00454335 0.00572851
v -0.00578941 -0.00357627 0.00573301
v -0.00578941 0.00416572 0.00553516
v -0.00660988 0.00541659 0.00538678
v -0.00578941 -0.00364621 0.00572963
v -0.00660988 -0.00471820 0.00571952
v -0.00578941 0.00449659 0.00533732
v -0.00660988 0.00653700 0.00479212
v -0.00660988 0.00628817 0.00492926
v -0.00578941 -0.00382241 0.00570490
v -0.00660988 -0.00478545 0.00570828
v -0.00578941 0.00501039 0.00499334
v -0.00660988 0.00679256 0.00458079
v -0.00578941 0.00520542 0.00485395
v -0.00578941 -0.00385335 0.00569591
v -0.00660988 -0.00491458 0.00564757
v -0.00578941 -0.00401072 0.00562734
v -0.00653582 0.00672800 0.00451221
v -0.00660988 0.00700911 0.00417947
v -0.00578941 0.00533589 0.00474378
v -0.00578941 0.00546367 0.00459877
v -0.00660988 -0.00527773 0.00546547
v -0.00578941 -0.00442768 0.00539015
v -0.00660988 -0.00614931 0.00500570
v -0.00660988 -0.00649229 0.00482247
v -0.00660988 0.00701180 0.00373994
v -0.00578941 0.00562776 0.00418959
v -0.00578941 0.00563180 0.00417947
v -0.00578941 -0.00491189 0.00506303
v -0.00660988 -0.00653803 0.00479212
v -0.00660988 0.00701180 -0.00373994
v -0.00578941 0.00563449 0.00373994
v -0.00578941 -0.00526832 0.00481348
v -0.00660988 -0.00672902 0.00463812
v -0.00660988 0.00700911 -0.00417947
v -0.00578941 0.00563449 -0.00374332
v -0.00578941 -0.00533691 0.00474378
v -0.00660674 -0.00672902 0.00463362
v -0.00660988 -0.00672902 -0.00463362
v -0.00660988 0.00700507 -0.00418959
v -0.00578941 0.00563180 -0.00418172
v -0.00578941 -0.00543107 0.00464149
v -0.00653630 -0.00672902 0.00451334
v -0.00653630 -0.00672902 -0.00451334
v -0.00660988 -0.00653803 -0.00479212
v -0.00578941 -0.00520510 -0.00485395
v -0.00578941 -0.00533691 -0.00474378
v -0.00653582 0.00672800 -0.00451221
v -0.00660988 0.00679256 -0.00458079
v -0.00578941 0.00546367 -0.00459877
v -0.00578941 -0.00546335 0.00459877
v -0.00653558 -0.00672902 0.00450997
v -0.00615952 -0.00616007 0.00440093
v -0.00615952 -0.00616007 -0.00440093
v -0.00653558 -0.00672902 -0.00450997
v -0.00578941 -0.00546335 -0.00459877
v -0.00660988 -0.00628920 -0.00492926
v -0.00578941 -0.00416539 -0.00553516
v -0.00578941 -0.00449627 -0.00533732
v -0.00578941 -0.00501007 -0.00499334
v -0.00578941 0.00543004 -0.00464149
v -0.00660988 0.00673338 -0.00463362
v -0.00578941 0.00533589 -0.00474378
v -0.00578941 0.00526864 -0.00481348
v -0.00578941 -0.00563282 0.00417947
v -0.00646827 -0.00672902 0.00417947
v -0.00646827 -0.00672902 -0.00417947
v -0.00578941 -0.00563282 -0.00417947
v -0.00660988 -0.00541627 -0.00538678
v -0.00660988 -0.00505580 -0.00557563
v -0.00578941 -0.00385335 -0.00569591
v -0.00660988 0.00653700 -0.00479212
v -0.00578941 0.00491221 -0.00506303
v -0.00578941 -0.00563417 0.00374332
v -0.00646803 -0.00672902 0.00410978
v -0.00646691 -0.00672902 0.00373994
v -0.00646691 -0.00672902 -0.00373994
v -0.00578941 -0.00563417 -0.00373994
v -0.00660988 -0.00478545 -0.00570828
v -0.00581471 -0.00386411 -0.00570041
v -0.00578941 -0.00364621 -0.00572963
v -0.00660988 0.00649262 -0.00482247
v -0.00578941 0.00442800 -0.00539015
v -0.00660988 -0.00454335 -0.00572851
v -0.00654433 -0.00450972 -0.00572626
v -0.00595286 -0.00372691 -0.00573301
v -0.00578941 -0.00330054 -0.00573863
v -0.00660988 0.00614963 -0.00500570
v -0.00578941 0.00401104 -0.00562734
v -0.00660988 -0.00417346 -0.00573750
v -0.00639060 -0.00416808 -0.00573301
v -0.00594001 -0.00329920 -0.00574200
v -0.00578941 -0.00285937 -0.00574200
v -0.00660988 0.00527805 -0.00546547
v -0.00578941 0.00385367 -0.00569591
v -0.00660988 0.00478577 -0.00570828
v -0.00660988 0.00491490 -0.00564757
v -0.00660988 -0.00373902 -0.00574200
v -0.00637992 -0.00373902 -0.00574200
v -0.00578941 0.00314887 -0.00574200
v -0.00578941 0.00382273 -0.00570490
v -0.00660988 0.00471852 -0.00571952
v -0.00660988 0.00396934 -0.00574200
v -0.00594001 0.00329952 -0.00574200
v -0.00660988 0.00442396 -0.00573301
v -0.00578941 0.00357659 -0.00573301
v -0.00578941 0.00364653 -0.00572963
v -0.00660988 0.00454367 -0.00572851
f 1 2 3
f 1 3 4
f 1 4 8
f 1 8 15
f 1 15 16
f 1 16 9
f 1 9 5
f 1 5 2
f 2 5 6
f 2 6 7
f 2 7 3
f 3 7 13
f 3 13 19
f 3 19 23
f 3 23 28
f 3 28 27
f 3 27 32
f 3 32 38
f 3 38 45
f 3 45 50
f 3 50 54
f 3 54 59
f 3 59 68
f 3 68 81
f 3 81 91
f 3 91 101
f 3 101 107
f 3 107 113
f 3 113 116
f 3 116 115
f 3 115 121
f 3 121 127
f 3 127 124
f 3 124 122
f 3 122 117
f 3 117 109
f 3 109 103
f 3 103 98
f 3 98 89
f 3 89 88
f 3 88 76
f 3 76 64
f 3 64 58
f 3 58 53
f 3 53 49
f 3 49 44
f 3 44 43
f 3 43 41
f 3 41 35
f 3 35 30
f 3 30 25
f 3 25 20
f 3 20 14
f 3 14 8
f 3 8 4
f 5 9 10
f 5 10 6
f 6 10 11
f 6 11 7
f 7 12 13
f 7 11 12
f 8 14 15
f 9 16 21
f 9 21 24
f 9 24 29
f 9 29 34
f 9 34 36
f 9 36 42
f 9 42 48
f 9 48 52
f 9 52 56
f 9 56 61
f 9 61 70
f 9 70 84
f 9 84 93
f 9 93 97
f 9 97 87
f 9 87 75
f 9 75 66
f 9 66 65
f 9 65 79
f 9 79 78
f 9 78 77
f 9 77 90
f 9 90 100
f 9 100 106
f 9 106 112
f 9 112 119
f 9 119 125
f 9 125 126
f 9 126 120
f 9 120 114
f 9 114 108
f 9 108 102
f 9 102 92
f 9 92 83
f 9 83 82
f 9 82 80
f 9 80 69
f 9 69 60
f 9 60 55
f 9 55 51
f 9 51 47
f 9 47 46
f 9 46 40
f 9 40 39
f 9 39 33
f 9 33 31
f 9 31 26
f 9 26 22
f 9 22 17
f 9 17 11
f 9 11 10
f 11 17 18
f 11 18 13
f 11 13 12
f 13 18 17
f 13 17 19
f 14 20 21
f 14 21 16
f 14 16 15
f 17 22 19
f 19 22 23
f 20 24 21
f 20 25 24
f 22 26 27
f 22 27 28
f 22 28 23
f 24 25 29
f 25 30 29
f 26 31 27
f 27 31 33
f 27 33 32
f 29 30 34
f 30 35 36
f 30 36 34
f 32 37 38
f 32 33 39
f 32 39 40
f 32 40 37
f 35 41 36
f 36 41 43
f 36 43 44
f 36 44 42
f 37 40 38
f 38 40 46
f 38 46 47
f 38 47 51
f 38 51 45
f 42 44 49
f 42 49 48
f 45 51 55
f 45 55 50
f 48 49 52
f 49 53 52
f 50 55 54
f 52 53 57
f 52 57 56
f 53 58 63
f 53 63 74
f 53 74 86
f 53 86 96
f 53 96 95
f 53 95 94
f 53 94 85
f 53 85 71
f 53 71 62
f 53 62 57
f 54 55 60
f 54 60 59
f 56 57 62
f 56 62 61
f 58 64 65
f 58 65 66
f 58 66 63
f 59 67 68
f 59 60 69
f 59 69 67
f 61 62 70
f 62 71 72
f 62 72 70
f 63 73 74
f 63 66 75
f 63 75 73
f 64 76 77
f 64 77 78
f 64 78 79
f 64 79 65
f 67 69 80
f 67 80 68
f 68 80 82
f 68 82 83
f 68 83 81
f 70 72 84
f 71 85 72
f 72 85 84
f 73 86 74
f 73 75 87
f 73 87 86
f 76 88 77
f 77 88 89
f 77 89 90
f 81 83 91
f 83 92 91
f 84 85 94
f 84 94 95
f 84 95 93
f 86 87 96
f 87 97 96
f 89 98 90
f 90 99 100
f 90 98 99
f 91 92 101
f 92 102 101
f 93 95 96
f 93 96 97
f 98 103 104
f 98 104 100
f 98 100 99
f 100 104 103
f 100 103 105
f 100 105 106
f 101 102 108
f 101 108 107
f 103 109 110
f 103 110 105
f 105 110 111
f 105 111 106
f 106 111 112
f 107 108 113
f 108 114 115
f 108 115 116
f 108 116 113
f 109 117 118
f 109 118 110
f 110 118 111
f 111 118 117
f 111 117 122
f 111 122 123
f 111 123 119
f 111 119 112
f 114 120 115
f 115 120 121
f 119 123 124
f 119 124 125
f 120 126 121
f 121 126 127
f 122 124 123
f 124 127 125
f 125 127 126

