# https://github.com/mikedh/trimesh
v -0.00146314 0.01710093 -0.00373994
v -0.00146314 0.01710194 -0.00417947
v 0.00026716 0.01724435 -0.00417947
v -0.00146314 0.01710093 0.00373994
v -0.00146314 0.01713163 -0.00446163
v 0.00026716 0.01736412 -0.00461900
v 0.00026716 0.01724435 0.00417947
v -0.00146314 0.01710194 0.00417947
v -0.00146314 0.01725039 -0.00467746
v 0.00026716 0.01752214 -0.00486631
v 0.00026716 0.01736412 0.00461901
v -0.00146314 0.01713163 0.00446163
v -0.00146314 0.01710495 0.00424692
v -0.00146314 0.01747332 -0.00496411
v 0.00026716 0.01754227 -0.00489779
v 0.00026716 0.01754227 0.00489779
v -0.00146314 0.01725039 0.00467746
v -0.00146314 0.01714974 0.00449760
v -0.00146314 0.01787843 -0.00536317
v 0.00026716 0.01798260 -0.00533732
v 0.00026716 0.01795895 -0.00531371
v -0.00146314 0.01747332 0.00496411
v -0.00146314 0.01729166 0.00473816
v 0.00026716 0.01798260 0.00533732
v -0.00146314 0.01791718 -0.00540027
v 0.00026716 0.01821258 -0.00553404
v -0.00146314 0.01751207 0.00500233
v -0.00146314 0.01791718 0.00540027
v -0.00146314 0.01769726 0.00518444
v 0.00026716 0.01824126 0.00555764
v -0.00146314 0.01822868 -0.00562060
v 0.00026716 0.01846118 -0.00573076
v 0.00026716 0.01843753 -0.00571277
v 0.00026716 0.01824126 -0.00555764
v -0.00146314 0.01796750 0.00543961
v 0.00026716 0.01846118 0.00573076
v -0.00146314 0.01844860 -0.00573076
v -0.00109984 0.01870022 -0.00574200
v 0.00026716 0.01870022 -0.00574088
v -0.00146314 0.01822868 0.00562060
v 0.00026716 0.01848684 0.00573188
v -0.00109984 0.01870022 0.00574200
v -0.00146314 0.01844860 0.00573076
v -0.00146314 0.01826743 0.00564533
v -0.00146314 0.01870022 -0.00574200
v 0.00026716 0.01914005 -0.00574200
v 0.00026716 0.01870022 0.00574088
v -0.00146314 0.01870022 0.00574200
v 0.00026716 0.01914005 0.00574200
v -0.00146314 0.02045953 -0.00574200
v 0.00026716 0.02045953 -0.00574200
v -0.00146314 0.02045953 0.00574200
v 0.00026716 0.02045953 0.00574200
v -0.00146314 0.02082287 -0.00573863
v 0.00026716 0.02089987 -0.00573750
v -0.00146314 0.02089987 0.00573863
v 0.00026716 0.02089987 0.00573863
v -0.00146314 0.02089987 -0.00573750
v -0.00146314 0.02110368 -0.00572851
v 0.00026716 0.02114696 -0.00572626
v 0.00026716 0.02092654 0.00573750
v -0.00146314 0.02114897 0.00572739
v -0.00146314 0.02114696 -0.00572626
v 0.00026716 0.02136687 -0.00566106
v 0.00026716 0.02114897 0.00572739
v 0.00026716 0.02117262 0.00572064
v -0.00146314 0.02118772 0.00571615
v -0.00146314 0.02136687 -0.00566106
v -0.00146314 0.02169095 -0.00548008
v 0.00026716 0.02171763 -0.00546434
v 0.00026716 0.02136888 0.00566106
v -0.00146314 0.02136888 0.00566106
v -0.00146314 0.02175940 -0.00544074
v 0.00026716 0.02175940 -0.00544074
v 0.00026716 0.02141115 0.00563746
v -0.00146314 0.02143732 0.00562284
v -0.00146314 0.02197981 -0.00525076
v 0.00026716 0.02197981 -0.00525076
v 0.00026716 0.02176040 0.00544074
v -0.00146314 0.02176040 0.00544074
v -0.00146314 0.02207593 -0.00506865
v 0.00026716 0.02209606 -0.00503043
v 0.00026716 0.02178405 0.00542050
v -0.00146314 0.02179915 0.00540814
v -0.00146314 0.02209606 -0.00503043
v 0.00026716 0.02220426 -0.00466397
v 0.00026716 0.02198082 0.00525188
v -0.00146314 0.02198082 0.00525188
v -0.00146314 0.02221684 -0.00461900
v 0.00026716 0.02221684 -0.00461900
v 0.00026716 0.02209606 0.00503156
v -0.00146314 0.02200095 0.00521366
v -0.00146314 0.02224200 -0.00417947
v 0.00026716 0.02224200 -0.00417947
v 0.00026716 0.02210915 0.00498772
v -0.00146314 0.02209606 0.00503156
v -0.00146314 0.02224200 0.00417947
v 0.00026716 0.02224200 0.00417947
v -0.00146314 0.02221684 0.00461901
v -0.00146314 0.02211720 0.00495961
v 0.00026716 0.02221684 0.00461901
v -0.00146314 0.02222137 0.00454257
v 0.00026716 0.02221986 0.00457179
f 1 2 3
f 1 3 7
f 1 7 4
f 1 4 8
f 1 8 13
f 1 13 12
f 1 12 18
f 1 18 17
f 1 17 23
f 1 23 22
f 1 22 27
f 1 27 29
f 1 29 28
f 1 28 35
f 1 35 40
f 1 40 44
f 1 44 43
f 1 43 48
f 1 48 52
f 1 52 56
f 1 56 62
f 1 62 67
f 1 67 72
f 1 72 76
f 1 76 80
f 1 80 84
f 1 84 88
f 1 88 92
f 1 92 96
f 1 96 100
f 1 100 99
f 1 99 102
f 1 102 97
f 1 97 93
f 1 93 89
f 1 89 85
f 1 85 81
f 1 81 77
f 1 77 73
f 1 73 69
f 1 69 68
f 1 68 63
f 1 63 59
f 1 59 58
f 1 58 54
f 1 54 50
f 1 50 45
f 1 45 37
f 1 37 31
f 1 31 25
f 1 25 19
f 1 19 14
f 1 14 9
f 1 9 5
f 1 5 2
f 2 5 3
f 3 5 6
f 3 6 10
f 3 10 15
f 3 15 21
f 3 21 20
f 3 20 26
f 3 26 34
f 3 34 33
f 3 33 32
f 3 32 39
f 3 39 46
f 3 46 51
f 3 51 55
f 3 55 60
f 3 60 64
f 3 64 70
f 3 70 74
f 3 74 78
f 3 78 82
f 3 82 86
f 3 86 90
f 3 90 94
f 3 94 98
f 3 98 103
f 3 103 101
f 3 101 95
f 3 95 91
f 3 91 87
f 3 87 83
f 3 83 79
f 3 79 75
f 3 75 71
f 3 71 66
f 3 66 65
f 3 65 61
f 3 61 57
f 3 57 53
f 3 53 49
f 3 49 47
f 3 47 41
f 3 41 36
f 3 36 30
f 3 30 24
f 3 24 16
f 3 16 11
f 3 11 7
f 4 7 8
f 5 9 6
f 6 9 10
f 7 11 12
f 7 12 13
f 7 13 8
f 9 14 15
f 9 15 10
f 11 16 17
f 11 17 18
f 11 18 12
f 14 19 20
f 14 20 21
f 14 21 15
f 16 22 23
f 16 23 17
f 16 24 22
f 19 25 20
f 20 25 26
f 22 24 27
f 24 28 29
f 24 29 27
f 24 30 28
f 25 31 32
f 25 32 33
f 25 33 34
f 25 34 26
f 28 30 36
f 28 36 35
f 31 37 32
f 32 37 38
f 32 38 39
f 35 36 40
f 36 41 42
f 36 42 43
f 36 43 44
f 36 44 40
f 37 45 38
f 38 45 50
f 38 50 51
f 38 51 46
f 38 46 39
f 41 47 42
f 42 48 43
f 42 47 49
f 42 49 53
f 42 53 52
f 42 52 48
f 50 54 51
f 51 54 55
f 52 53 57
f 52 57 56
f 54 58 55
f 55 58 59
f 55 59 60
f 56 57 61
f 56 61 62
f 59 63 60
f 60 63 68
f 60 68 64
f 61 65 62
f 62 66 67
f 62 65 66
f 64 68 69
f 64 69 70
f 66 71 67
f 67 71 72
f 69 73 74
f 69 74 70
f 71 75 76
f 71 76 72
f 73 77 78
f 73 78 74
f 75 79 76
f 76 79 80
f 77 81 78
f 78 81 82
f 79 83 84
f 79 84 80
f 81 85 82
f 82 85 86
f 83 87 84
f 84 87 88
f 85 89 86
f 86 89 90
f 87 91 92
f 87 92 88
f 89 93 94
f 89 94 90
f 91 95 96
f 91 96 92
f 93 97 98
f 93 98 94
f 95 99 100
f 95 100 96
f 95 101 99
f 97 102 103
f 97 103 98
f 99 103 102
f 99 101 103

