# https://github.com/mikedh/trimesh
v -0.00578919 -0.00563457 -0.00373882
v -0.00578919 -0.00563236 -0.00417947
v -0.00472298 -0.00449839 -0.00417947
v -0.00472361 -0.00450059 -0.00373882
v -0.00578919 -0.00563457 0.00373882
v -0.00578919 -0.00546359 -0.00459877
v -0.00564901 -0.00536652 -0.00450772
v -0.00476338 -0.00446529 -0.00449985
v -0.00472298 -0.00449949 -0.00373882
v -0.00472298 -0.00440573 -0.00453919
v -0.00472361 -0.00450059 0.00373882
v -0.00472298 -0.00449839 0.00417947
v -0.00578919 -0.00563236 0.00417947
v -0.00578919 -0.00533673 -0.00474378
v -0.00472298 -0.00427556 -0.00472467
v -0.00472298 -0.00449949 0.00373770
v -0.00472298 -0.00444213 0.00445151
v -0.00564901 -0.00536652 0.00450772
v -0.00578919 -0.00546359 0.00459877
v -0.00578919 -0.00520546 -0.00485395
v -0.00575318 -0.00523966 -0.00480111
v -0.00472298 -0.00407149 -0.00492926
v -0.00472298 -0.00440573 0.00453919
v -0.00476338 -0.00446529 0.00449985
v -0.00472298 -0.00432741 0.00465947
v -0.00578919 -0.00543049 0.00464149
v -0.00578919 -0.00501022 -0.00499334
v -0.00472298 -0.00319674 -0.00559924
v -0.00472298 -0.00330043 -0.00552505
v -0.00472298 -0.00350671 -0.00537441
v -0.00472298 -0.00361481 -0.00529010
v -0.00472298 -0.00381116 -0.00513610
v -0.00472298 -0.00427556 0.00472467
v -0.00578919 -0.00533673 0.00474378
v -0.00578919 -0.00460208 -0.00526650
v -0.00578919 -0.00449618 -0.00533732
v -0.00482308 -0.00308975 -0.00572514
v -0.00472298 -0.00293531 -0.00572851
v -0.00472298 -0.00409686 0.00490903
v -0.00578919 -0.00526944 0.00481348
v -0.00578919 -0.00416415 -0.00553516
v -0.00578919 -0.00385308 -0.00569591
v -0.00578919 -0.00364460 -0.00572963
v -0.00472298 -0.00283383 -0.00573301
v -0.00472298 -0.00388948 0.00507652
v -0.00472298 -0.00357400 0.00532270
v -0.00472298 -0.00336883 0.00548120
v -0.00578919 -0.00491204 0.00506303
v -0.00578919 -0.00330043 -0.00573863
v -0.00506012 -0.00285920 -0.00573975
v -0.00472298 -0.00241907 -0.00574200
v -0.00472298 -0.00304452 0.00570266
v -0.00578919 -0.00442779 0.00539015
v -0.00578919 -0.00285810 -0.00574200
v -0.00549996 -0.00285810 -0.00574200
v -0.00472298 0.00241907 -0.00574200
v -0.00482308 -0.00308975 0.00572514
v -0.00472298 -0.00293531 0.00572851
v -0.00578919 -0.00400972 0.00562734
v -0.00578919 0.00314931 -0.00574200
v -0.00506012 0.00285920 -0.00573975
v -0.00472298 0.00252166 -0.00574088
v -0.00578919 -0.00382219 0.00570490
v -0.00578919 -0.00385308 0.00569591
v -0.00472298 -0.00283383 0.00573301
v -0.00578919 -0.00357621 0.00573301
v -0.00578919 -0.00364460 0.00572963
v -0.00578919 0.00357621 -0.00573301
v -0.00472298 0.00283383 -0.00573301
v -0.00472298 -0.00252166 0.00574088
v -0.00506012 -0.00285920 0.00573975
v -0.00578919 -0.00314931 0.00574200
v -0.00578919 0.00364460 -0.00572963
v -0.00482308 0.00308975 -0.00572514
v -0.00472298 0.00293531 -0.00572851
v -0.00472298 -0.00241907 0.00574200
v -0.00578919 0.00285810 0.00574200
v -0.00578919 0.00382219 -0.00570490
v -0.00578919 0.00385308 -0.00569591
v -0.00578919 0.00400972 -0.00562734
v -0.00578919 0.00442779 -0.00539015
v -0.00472298 0.00304452 -0.00570266
v -0.00472298 0.00241907 0.00574200
v -0.00549996 0.00285810 0.00574200
v -0.00578919 0.00330043 0.00573863
v -0.00578919 0.00491204 -0.00506303
v -0.00472298 0.00336883 -0.00548120
v -0.00472298 0.00283383 0.00573301
v -0.00506012 0.00285920 0.00573975
v -0.00578919 0.00364460 0.00572963
v -0.00578919 0.00526944 -0.00481348
v -0.00472298 0.00357400 -0.00532270
v -0.00472298 0.00293531 0.00572851
v -0.00482308 0.00308975 0.00572514
v -0.00578919 0.00385308 0.00569591
v -0.00472298 0.00409686 -0.00490903
v -0.00472298 0.00388948 -0.00507652
v -0.00578919 0.00533673 -0.00474378
v -0.00472298 0.00427556 -0.00472467
v -0.00472298 0.00319674 0.00559924
v -0.00578919 0.00449618 0.00533732
v -0.00578919 0.00416415 0.00553516
v -0.00578919 0.00543049 -0.00464149
v -0.00472298 0.00432741 -0.00465947
v -0.00472298 0.00330043 0.00552505
v -0.00578919 0.00520546 0.00485395
v -0.00578919 0.00501022 0.00499334
v -0.00578919 0.00460208 0.00526650
v -0.00578919 0.00546359 -0.00459877
v -0.00472298 0.00440573 -0.00453919
v -0.00472298 0.00350671 0.00537441
v -0.00575318 0.00523966 0.00480111
v -0.00578919 0.00533673 0.00474378
v -0.00578919 0.00563015 -0.00418172
v -0.00578784 0.00563015 -0.00417947
v -0.00564901 0.00536652 -0.00450772
v -0.00476338 0.00446529 -0.00449985
v -0.00472298 0.00444213 -0.00445151
v -0.00472298 0.00361481 0.00529010
v -0.00472298 0.00381116 0.00513610
v -0.00472298 0.00407149 0.00492926
v -0.00578919 0.00546359 0.00459877
v -0.00472298 0.00427556 0.00472467
v -0.00578919 0.00563457 -0.00373882
v -0.00472298 0.00449839 -0.00417947
v -0.00472298 0.00440573 0.00453919
v -0.00564901 0.00536652 0.00450772
v -0.00578919 0.00563236 0.00417947
v -0.00578919 0.00563457 0.00373882
v -0.00472361 0.00450059 -0.00373882
v -0.00472298 0.00449949 -0.00373882
v -0.00472298 0.00449839 0.00417947
v -0.00476338 0.00446529 0.00449985
v -0.00472361 0.00450059 0.00373882
v -0.00472298 0.00449949 0.00373882
f 1 2 3
f 1 3 4
f 1 4 11
f 1 11 5
f 1 5 13
f 1 13 19
f 1 19 26
f 1 26 34
f 1 34 40
f 1 40 48
f 1 48 53
f 1 53 59
f 1 59 64
f 1 64 63
f 1 63 67
f 1 67 66
f 1 66 72
f 1 72 77
f 1 77 85
f 1 85 90
f 1 90 95
f 1 95 102
f 1 102 101
f 1 101 108
f 1 108 107
f 1 107 106
f 1 106 113
f 1 113 122
f 1 122 128
f 1 128 129
f 1 129 124
f 1 124 114
f 1 114 109
f 1 109 103
f 1 103 98
f 1 98 91
f 1 91 86
f 1 86 81
f 1 81 80
f 1 80 79
f 1 79 78
f 1 78 73
f 1 73 68
f 1 68 60
f 1 60 54
f 1 54 49
f 1 49 43
f 1 43 42
f 1 42 41
f 1 41 36
f 1 36 35
f 1 35 27
f 1 27 20
f 1 20 14
f 1 14 6
f 1 6 2
f 2 6 7
f 2 7 8
f 2 8 3
f 3 9 4
f 3 8 10
f 3 10 15
f 3 15 22
f 3 22 32
f 3 32 31
f 3 31 30
f 3 30 29
f 3 29 28
f 3 28 38
f 3 38 44
f 3 44 51
f 3 51 56
f 3 56 62
f 3 62 69
f 3 69 75
f 3 75 82
f 3 82 87
f 3 87 92
f 3 92 97
f 3 97 96
f 3 96 99
f 3 99 104
f 3 104 110
f 3 110 118
f 3 118 125
f 3 125 131
f 3 131 135
f 3 135 132
f 3 132 126
f 3 126 123
f 3 123 121
f 3 121 120
f 3 120 119
f 3 119 111
f 3 111 105
f 3 105 100
f 3 100 93
f 3 93 88
f 3 88 83
f 3 83 76
f 3 76 70
f 3 70 65
f 3 65 58
f 3 58 52
f 3 52 47
f 3 47 46
f 3 46 45
f 3 45 39
f 3 39 33
f 3 33 25
f 3 25 23
f 3 23 17
f 3 17 12
f 3 12 16
f 3 16 9
f 4 9 16
f 4 16 11
f 5 11 12
f 5 12 13
f 6 10 7
f 6 14 15
f 6 15 10
f 7 10 8
f 11 16 12
f 12 17 13
f 13 17 18
f 13 18 19
f 14 20 21
f 14 21 22
f 14 22 15
f 17 23 24
f 17 24 18
f 18 24 23
f 18 23 19
f 19 23 25
f 19 25 26
f 20 27 28
f 20 28 29
f 20 29 30
f 20 30 21
f 21 30 31
f 21 31 32
f 21 32 22
f 25 33 26
f 26 33 34
f 27 35 28
f 28 35 36
f 28 36 37
f 28 37 38
f 33 39 40
f 33 40 34
f 36 41 37
f 37 41 42
f 37 42 43
f 37 43 44
f 37 44 38
f 39 45 40
f 40 45 46
f 40 46 47
f 40 47 48
f 43 49 50
f 43 50 44
f 44 50 51
f 47 52 48
f 48 52 53
f 49 54 55
f 49 55 50
f 50 55 51
f 51 55 54
f 51 54 60
f 51 60 56
f 52 57 53
f 52 58 57
f 53 57 59
f 56 60 61
f 56 61 62
f 57 63 64
f 57 64 59
f 57 58 65
f 57 65 66
f 57 66 67
f 57 67 63
f 60 68 61
f 61 68 69
f 61 69 62
f 65 70 71
f 65 71 66
f 66 71 72
f 68 73 74
f 68 74 69
f 69 74 75
f 70 76 71
f 71 76 72
f 72 76 83
f 72 83 84
f 72 84 77
f 73 78 74
f 74 78 79
f 74 79 80
f 74 80 81
f 74 81 82
f 74 82 75
f 77 84 85
f 81 86 82
f 82 86 87
f 83 88 89
f 83 89 84
f 84 89 85
f 85 89 90
f 86 91 87
f 87 91 92
f 88 93 94
f 88 94 90
f 88 90 89
f 90 94 95
f 91 96 97
f 91 97 92
f 91 98 99
f 91 99 96
f 93 100 94
f 94 100 101
f 94 101 102
f 94 102 95
f 98 103 99
f 99 103 104
f 100 105 106
f 100 106 107
f 100 107 108
f 100 108 101
f 103 109 104
f 104 109 110
f 105 111 106
f 106 112 113
f 106 111 112
f 109 114 115
f 109 115 116
f 109 116 110
f 110 116 117
f 110 117 118
f 111 119 112
f 112 119 120
f 112 120 121
f 112 121 113
f 113 121 123
f 113 123 122
f 114 124 115
f 115 125 118
f 115 118 116
f 115 124 125
f 116 118 117
f 122 126 127
f 122 127 128
f 122 123 126
f 124 129 134
f 124 134 130
f 124 130 125
f 125 130 131
f 126 132 133
f 126 133 127
f 127 133 128
f 128 133 132
f 128 132 129
f 129 132 134
f 130 134 135
f 130 135 131
f 132 135 134

