# https://github.com/mikedh/trimesh
v -0.00857988 0.00769796 0.00574200
v -0.00682035 0.00417877 0.00574200
v -0.00660988 0.00417453 0.00573750
v -0.00830719 0.00769796 0.00573076
v -0.00895639 0.00769796 0.00573076
v -0.00896279 -0.00197981 0.00573076
v -0.00857988 -0.00672902 0.00574200
v -0.00660988 0.00373958 0.00574200
v -0.00660988 0.00454311 0.00572851
v -0.00790970 0.00708083 0.00572514
v -0.00808747 0.00769796 0.00565769
v -0.00917611 0.00769796 0.00571502
v -0.00917682 0.00681957 0.00571502
v -0.00917718 0.00637897 0.00571502
v -0.00918251 -0.00153921 0.00571502
v -0.00918287 -0.00241900 0.00571502
v -0.00913736 -0.00672902 0.00571839
v -0.00896279 -0.00672902 0.00573076
v -0.00848887 -0.00672902 0.00574200
v -0.00660988 -0.00396959 0.00574200
v -0.00660988 0.00478601 0.00570828
v -0.00663654 0.00480296 0.00571615
v -0.00775469 0.00769796 0.00543736
v -0.00945983 0.00769796 0.00562060
v -0.00940259 -0.00672902 0.00564083
v -0.00918287 -0.00672902 0.00571502
v -0.00814009 -0.00672902 0.00574088
v -0.00814009 -0.00637879 0.00574200
v -0.00806258 -0.00672902 0.00573863
v -0.00660988 -0.00442291 0.00573301
v -0.00660988 0.00505574 0.00557563
v -0.00730494 0.00769796 0.00500683
v -0.00753462 0.00769796 0.00522715
v -0.00981572 0.00769796 0.00540476
v -0.00981607 0.00725876 0.00540476
v -0.00974283 -0.00672902 0.00544973
v -0.00945983 -0.00672902 0.00562060
v -0.00786313 -0.00672902 0.00572963
v -0.00660988 -0.00454435 0.00572851
v -0.00660988 0.00541726 0.00538678
v -0.00708487 0.00769796 0.00477189
v -0.01003579 0.00769796 0.00513835
v -0.01003650 -0.00241900 0.00513947
v -0.00981643 -0.00065941 0.00540476
v -0.00981643 -0.00672902 0.00540476
v -0.00782082 -0.00672902 0.00571390
v -0.00747738 -0.00616555 0.00572064
v -0.00663654 -0.00480279 0.00571615
v -0.00660988 -0.00471805 0.00571952
v -0.00660988 0.00628859 0.00492926
v -0.00695830 0.00769796 0.00455156
v -0.00660988 0.00653713 0.00479212
v -0.01015632 0.00769796 0.00491802
v -0.01015632 0.00549917 0.00491915
v -0.01003615 0.00549917 0.00513835
v -0.01003650 -0.00672902 0.00513947
v -0.00999099 -0.00672902 0.00519455
v -0.00765621 -0.00672902 0.00561497
v -0.00660988 -0.00478584 0.00570828
v -0.00687510 0.00769796 0.00417947
v -0.00660988 0.00679274 0.00458079
v -0.01021747 0.00769796 0.00461901
v -0.01020467 -0.00672902 0.00468196
v -0.01015632 -0.00672902 0.00491915
v -0.00759932 -0.00672902 0.00557675
v -0.00660988 -0.00491435 0.00564757
v -0.00735401 -0.00672902 0.00539914
v -0.00687404 0.00769796 0.00373994
v -0.00660988 0.00700881 0.00417947
v -0.00660988 0.00701163 0.00373994
v -0.01024200 0.00769796 0.00417947
v -0.01021747 -0.00549900 0.00461901
v -0.01021711 -0.00672902 0.00461901
v -0.00660988 -0.00527870 0.00546547
v -0.00728468 -0.00672902 0.00533732
v -0.00687404 0.00769796 -0.00373994
v -0.00660988 0.00701163 -0.00374669
v -0.01024200 0.00769796 -0.00417947
v -0.01024200 -0.00672902 0.00417947
v -0.00708096 -0.00672902 0.00515296
v -0.00689110 -0.00672902 0.00497985
v -0.00681431 -0.00672902 0.00490566
v -0.00660988 -0.00615002 0.00500570
v -0.00687510 0.00769796 -0.00417947
v -0.00660988 0.00700881 -0.00417947
v -0.01021676 0.00769796 -0.00461900
v -0.01022209 -0.00672902 -0.00452795
v -0.01024200 -0.00672902 -0.00417947
v -0.00665645 -0.00672902 0.00471006
v -0.00662623 -0.00655108 0.00480561
v -0.00660988 -0.00649318 0.00482247
v -0.00695759 0.00769796 -0.00454931
v -0.00660988 0.00700457 -0.00418959
v -0.00660988 0.00679274 -0.00458079
v -0.01015596 0.00769796 -0.00491914
v -0.01021676 -0.00672902 -0.00461900
v -0.00660988 -0.00672902 0.00463812
v -0.00660988 -0.00653696 0.00479212
v -0.00695830 0.00769796 -0.00455156
v -0.00660988 0.00673343 -0.00463362
v -0.01003686 0.00769796 -0.00513835
v -0.01003721 0.00505998 -0.00513835
v -0.01006174 -0.00672902 -0.00509338
v -0.01015596 -0.00672902 -0.00491914
v -0.00660988 -0.00672902 -0.00463362
v -0.00708487 0.00769796 -0.00477189
v -0.00660988 0.00653713 -0.00479212
v -0.00981714 0.00769796 -0.00540364
v -0.00981749 -0.00505981 -0.00540476
v -0.00986300 -0.00672902 -0.00534968
v -0.01003721 -0.00672902 -0.00513835
v -0.00665645 -0.00672902 -0.00471006
v -0.00660988 -0.00653696 -0.00479212
v -0.00730494 0.00769796 -0.00500683
v -0.00660988 0.00649194 -0.00482247
v -0.00660988 0.00615019 -0.00500570
v -0.00660988 0.00527746 -0.00546547
v -0.00660988 0.00491452 -0.00564757
v -0.00945983 0.00769796 -0.00562172
v -0.00981714 -0.00153921 -0.00540476
v -0.00981749 -0.00672902 -0.00540476
v -0.00689110 -0.00672902 -0.00497985
v -0.00662623 -0.00655108 -0.00480561
v -0.00660988 -0.00628841 -0.00492926
v -0.00753462 0.00769796 -0.00522715
v -0.00660988 0.00478601 -0.00570828
v -0.00919673 0.00769796 -0.00571615
v -0.00925113 -0.00672902 -0.00569703
v -0.00945983 -0.00672902 -0.00562172
v -0.00735401 -0.00672902 -0.00539914
v -0.00660988 -0.00505557 -0.00557563
v -0.00660988 -0.00541709 -0.00538678
v -0.00775469 0.00769796 -0.00543736
v -0.00663654 0.00480296 -0.00571615
v -0.00808747 0.00769796 -0.00565769
v -0.00660988 0.00471823 -0.00571952
v -0.00897666 0.00769796 -0.00573076
v -0.00919673 -0.00672902 -0.00571615
v -0.00765621 -0.00672902 -0.00561497
v -0.00660988 -0.00478584 -0.00570828
v -0.00790970 0.00708083 -0.00572514
v -0.00830719 0.00769796 -0.00573076
v -0.00660988 0.00454311 -0.00572851
v -0.00857988 0.00769796 -0.00574200
v -0.00897666 -0.00672902 -0.00573076
v -0.00786313 -0.00672902 -0.00572963
v -0.00747738 -0.00616555 -0.00572064
v -0.00663654 -0.00480279 -0.00571615
v -0.00660988 -0.00454435 -0.00572851
v -0.00660988 0.00442308 -0.00573301
v -0.00660988 0.00396976 -0.00574200
v -0.00857988 -0.00672902 -0.00574200
v -0.00814009 -0.00672902 -0.00574088
v -0.00660988 -0.00417436 -0.00573750
v -0.00694621 -0.00505981 -0.00573076
v -0.00660988 -0.00373940 -0.00574200
v -0.00814009 -0.00637879 -0.00574200
v -0.00682035 -0.00417860 -0.00574200
f 1 2 3
f 1 3 4
f 1 4 11
f 1 11 23
f 1 23 33
f 1 33 32
f 1 32 41
f 1 41 51
f 1 51 60
f 1 60 68
f 1 68 76
f 1 76 84
f 1 84 92
f 1 92 99
f 1 99 106
f 1 106 114
f 1 114 125
f 1 125 133
f 1 133 135
f 1 135 142
f 1 142 144
f 1 144 137
f 1 137 127
f 1 127 119
f 1 119 108
f 1 108 101
f 1 101 95
f 1 95 86
f 1 86 78
f 1 78 71
f 1 71 62
f 1 62 53
f 1 53 42
f 1 42 34
f 1 34 24
f 1 24 12
f 1 12 5
f 1 5 6
f 1 6 18
f 1 18 7
f 1 7 19
f 1 19 28
f 1 28 20
f 1 20 8
f 1 8 2
f 2 8 3
f 3 8 20
f 3 20 30
f 3 30 39
f 3 39 49
f 3 49 59
f 3 59 66
f 3 66 74
f 3 74 83
f 3 83 91
f 3 91 98
f 3 98 97
f 3 97 105
f 3 105 113
f 3 113 124
f 3 124 132
f 3 132 131
f 3 131 140
f 3 140 149
f 3 149 154
f 3 154 156
f 3 156 151
f 3 151 150
f 3 150 143
f 3 143 136
f 3 136 126
f 3 126 118
f 3 118 117
f 3 117 116
f 3 116 115
f 3 115 107
f 3 107 100
f 3 100 94
f 3 94 93
f 3 93 85
f 3 85 77
f 3 77 70
f 3 70 69
f 3 69 61
f 3 61 52
f 3 52 50
f 3 50 40
f 3 40 31
f 3 31 21
f 3 21 9
f 3 9 4
f 4 10 11
f 4 9 10
f 5 12 13
f 5 13 14
f 5 14 15
f 5 15 6
f 6 15 16
f 6 16 17
f 6 17 18
f 7 18 17
f 7 17 26
f 7 26 25
f 7 25 37
f 7 37 36
f 7 36 45
f 7 45 57
f 7 57 56
f 7 56 64
f 7 64 63
f 7 63 73
f 7 73 79
f 7 79 88
f 7 88 87
f 7 87 96
f 7 96 104
f 7 104 103
f 7 103 111
f 7 111 110
f 7 110 121
f 7 121 129
f 7 129 128
f 7 128 138
f 7 138 145
f 7 145 152
f 7 152 153
f 7 153 146
f 7 146 139
f 7 139 130
f 7 130 122
f 7 122 112
f 7 112 105
f 7 105 97
f 7 97 89
f 7 89 82
f 7 82 81
f 7 81 80
f 7 80 75
f 7 75 67
f 7 67 65
f 7 65 58
f 7 58 46
f 7 46 38
f 7 38 29
f 7 29 27
f 7 27 19
f 9 21 22
f 9 22 10
f 10 22 11
f 11 22 21
f 11 21 23
f 12 24 13
f 13 24 14
f 14 24 15
f 15 24 16
f 16 25 26
f 16 26 17
f 16 24 25
f 19 27 28
f 20 28 27
f 20 27 29
f 20 29 30
f 21 31 32
f 21 32 33
f 21 33 23
f 24 34 35
f 24 35 36
f 24 36 37
f 24 37 25
f 29 38 30
f 30 38 39
f 31 40 41
f 31 41 32
f 34 42 35
f 35 42 43
f 35 43 44
f 35 44 36
f 36 44 45
f 38 46 47
f 38 47 48
f 38 48 49
f 38 49 39
f 40 50 41
f 41 50 52
f 41 52 51
f 42 53 54
f 42 54 55
f 42 55 43
f 43 56 57
f 43 57 44
f 43 55 54
f 43 54 64
f 43 64 56
f 44 57 45
f 46 58 47
f 47 58 59
f 47 59 48
f 48 59 49
f 51 52 61
f 51 61 60
f 53 62 54
f 54 62 63
f 54 63 64
f 58 65 59
f 59 65 67
f 59 67 66
f 60 61 69
f 60 69 70
f 60 70 68
f 62 71 79
f 62 79 72
f 62 72 63
f 63 72 73
f 66 67 74
f 67 75 74
f 68 70 77
f 68 77 76
f 71 78 88
f 71 88 79
f 72 79 73
f 74 75 80
f 74 80 81
f 74 81 82
f 74 82 83
f 76 77 84
f 77 85 84
f 78 86 87
f 78 87 88
f 82 89 90
f 82 90 91
f 82 91 83
f 84 85 93
f 84 93 94
f 84 94 92
f 86 95 104
f 86 104 96
f 86 96 87
f 89 97 98
f 89 98 90
f 90 98 91
f 92 94 99
f 94 100 99
f 95 101 102
f 95 102 103
f 95 103 104
f 99 100 107
f 99 107 106
f 101 108 102
f 102 108 109
f 102 109 110
f 102 110 111
f 102 111 103
f 105 112 113
f 106 107 115
f 106 115 116
f 106 116 117
f 106 117 118
f 106 118 114
f 108 119 120
f 108 120 109
f 109 121 110
f 109 120 119
f 109 119 129
f 109 129 121
f 112 122 123
f 112 123 113
f 113 123 124
f 114 118 126
f 114 126 125
f 119 127 128
f 119 128 129
f 122 130 131
f 122 131 132
f 122 132 124
f 122 124 123
f 125 126 133
f 126 134 135
f 126 135 133
f 126 136 134
f 127 137 145
f 127 145 138
f 127 138 128
f 130 139 140
f 130 140 131
f 134 141 135
f 134 136 141
f 135 141 142
f 136 143 141
f 137 144 152
f 137 152 145
f 139 146 147
f 139 147 140
f 140 148 149
f 140 147 148
f 141 143 142
f 142 143 150
f 142 150 144
f 144 150 151
f 144 151 156
f 144 156 158
f 144 158 157
f 144 157 152
f 146 153 154
f 146 154 155
f 146 155 149
f 146 149 148
f 146 148 147
f 149 155 154
f 152 157 153
f 153 157 158
f 153 158 154
f 154 158 156

