# https://github.com/mikedh/trimesh
v -0.00341758 0.01639225 -0.00373994
v -0.00341758 0.01639340 -0.00417947
v -0.00146314 0.01710171 -0.00417947
v -0.00146314 0.01710114 -0.00373994
v -0.00341758 0.01639225 0.00373994
v -0.00341758 0.01643233 -0.00430987
v -0.00146314 0.01713149 -0.00446163
v -0.00146314 0.01710114 0.00385011
v -0.00146314 0.01710171 0.00417947
v -0.00341758 0.01639282 0.00398950
v -0.00341758 0.01653254 -0.00463587
v -0.00146314 0.01725059 -0.00467746
v -0.00341758 0.01639340 0.00417947
v -0.00146314 0.01710515 0.00424692
v -0.00341758 0.01666539 -0.00482022
v -0.00146314 0.01747333 -0.00496411
v -0.00146314 0.01713149 0.00446163
v -0.00341758 0.01653254 0.00463587
v -0.00341758 0.01675013 -0.00491577
v -0.00146314 0.01787874 -0.00536317
v -0.00146314 0.01714981 0.00449760
v -0.00146314 0.01725059 0.00467746
v -0.00146314 0.01729182 0.00473816
v -0.00341758 0.01669287 0.00486182
v -0.00341758 0.01692878 -0.00507652
v -0.00146314 0.01791710 -0.00540027
v -0.00146314 0.01747333 0.00496411
v -0.00341758 0.01675013 0.00491577
v -0.00146314 0.01769722 0.00518444
v -0.00146314 0.01791710 0.00540027
v -0.00341758 0.01723627 -0.00534856
v -0.00341758 0.01737714 -0.00546771
v -0.00341758 0.01747562 -0.00554191
v -0.00146314 0.01822860 -0.00562060
v -0.00341758 0.01686981 0.00502594
v -0.00146314 0.01796749 0.00543961
v -0.00341758 0.01730041 0.00541039
v -0.00341758 0.01768749 -0.00569141
v -0.00258308 0.01802933 -0.00572626
v -0.00146314 0.01844905 -0.00573076
v -0.00146314 0.01822860 0.00562060
v -0.00341758 0.01768749 0.00569142
v -0.00341758 0.01737714 0.00546772
v -0.00341758 0.01790451 -0.00573076
v -0.00285991 0.01801559 -0.00572963
v -0.00285991 0.01826009 -0.00574088
v -0.00146314 0.01870043 -0.00574200
v -0.00146314 0.01826754 0.00564533
v -0.00258308 0.01802933 0.00572626
v -0.00341758 0.01780888 0.00572401
v -0.00341758 0.01826009 -0.00574200
v -0.00329993 0.01826009 -0.00574200
v -0.00146314 0.02045948 -0.00574200
v -0.00146314 0.01844905 0.00573076
v -0.00285991 0.01801559 0.00572963
v -0.00341758 0.01790451 0.00573076
v -0.00341758 0.02045948 -0.00574200
v -0.00146314 0.02082308 -0.00573863
v -0.00285991 0.01826009 0.00574088
v -0.00146314 0.01870043 0.00574200
v -0.00341758 0.01813183 0.00573863
v -0.00341758 0.02057743 -0.00574088
v -0.00341758 0.02089981 -0.00573750
v -0.00146314 0.02089981 -0.00573750
v -0.00329993 0.01826009 0.00574200
v -0.00146314 0.02045948 0.00574200
v -0.00341758 0.01826009 0.00574200
v -0.00341758 0.02114718 -0.00572626
v -0.00146314 0.02110366 -0.00572851
v -0.00341758 0.02045948 0.00574200
v -0.00146314 0.02089981 0.00573863
v -0.00341758 0.02120558 -0.00570940
v -0.00146314 0.02114718 -0.00572626
v -0.00341758 0.02089981 0.00573863
v -0.00146314 0.02114889 0.00572739
v -0.00341758 0.02136706 -0.00566106
v -0.00146314 0.02136706 -0.00566106
v -0.00341758 0.02114889 0.00572739
v -0.00146314 0.02118726 0.00571615
v -0.00341758 0.02147184 -0.00560261
v -0.00146314 0.02169115 -0.00548008
v -0.00341758 0.02131037 0.00567905
v -0.00146314 0.02136935 0.00566106
v -0.00341758 0.02175929 -0.00544074
v -0.00146314 0.02175929 -0.00544074
v -0.00198007 0.02136935 0.00566106
v -0.00341758 0.02136877 0.00566106
v -0.00146314 0.02143749 0.00562284
v -0.00341758 0.02181827 -0.00539015
v -0.00146314 0.02197974 -0.00525076
v -0.00341758 0.02165565 0.00550032
v -0.00146314 0.02176044 0.00544074
v -0.00341758 0.02197974 -0.00525076
v -0.00146314 0.02207594 -0.00506865
v -0.00341758 0.02176044 0.00544074
v -0.00146314 0.02179880 0.00540814
v -0.00341758 0.02209599 -0.00503043
v -0.00146314 0.02209599 -0.00503043
v -0.00341758 0.02192191 0.00530247
v -0.00146314 0.02198032 0.00525188
v -0.00341758 0.02212862 -0.00492027
v -0.00146314 0.02221680 -0.00461900
v -0.00341758 0.02198032 0.00525188
v -0.00146314 0.02200093 0.00521366
v -0.00341758 0.02221680 -0.00461900
v -0.00341758 0.02222367 -0.00450210
v -0.00146314 0.02224200 -0.00417947
v -0.00341758 0.02209599 0.00503156
v -0.00146314 0.02209599 0.00503156
v -0.00341758 0.02224200 -0.00417947
v -0.00146314 0.02224200 0.00417947
v -0.00146314 0.02211717 0.00495961
v -0.00341758 0.02218474 0.00472917
v -0.00341758 0.02224200 0.00417947
v -0.00146314 0.02222139 0.00454257
v -0.00146314 0.02221680 0.00461901
v -0.00341758 0.02221680 0.00461901
f 1 2 3
f 1 3 4
f 1 4 8
f 1 8 5
f 1 5 10
f 1 10 13
f 1 13 18
f 1 18 24
f 1 24 28
f 1 28 35
f 1 35 37
f 1 37 43
f 1 43 42
f 1 42 50
f 1 50 56
f 1 56 61
f 1 61 67
f 1 67 70
f 1 70 74
f 1 74 78
f 1 78 82
f 1 82 87
f 1 87 91
f 1 91 95
f 1 95 99
f 1 99 103
f 1 103 108
f 1 108 113
f 1 113 117
f 1 117 114
f 1 114 110
f 1 110 106
f 1 106 105
f 1 105 101
f 1 101 97
f 1 97 93
f 1 93 89
f 1 89 84
f 1 84 80
f 1 80 76
f 1 76 72
f 1 72 68
f 1 68 63
f 1 63 62
f 1 62 57
f 1 57 51
f 1 51 44
f 1 44 38
f 1 38 33
f 1 33 32
f 1 32 31
f 1 31 25
f 1 25 19
f 1 19 15
f 1 15 11
f 1 11 6
f 1 6 2
f 2 6 7
f 2 7 3
f 3 7 12
f 3 12 16
f 3 16 20
f 3 20 26
f 3 26 34
f 3 34 40
f 3 40 47
f 3 47 53
f 3 53 58
f 3 58 64
f 3 64 69
f 3 69 73
f 3 73 77
f 3 77 81
f 3 81 85
f 3 85 90
f 3 90 94
f 3 94 98
f 3 98 102
f 3 102 107
f 3 107 111
f 3 111 115
f 3 115 116
f 3 116 112
f 3 112 109
f 3 109 104
f 3 104 100
f 3 100 96
f 3 96 92
f 3 92 88
f 3 88 83
f 3 83 79
f 3 79 75
f 3 75 71
f 3 71 66
f 3 66 60
f 3 60 54
f 3 54 48
f 3 48 41
f 3 41 36
f 3 36 30
f 3 30 29
f 3 29 27
f 3 27 23
f 3 23 22
f 3 22 21
f 3 21 17
f 3 17 14
f 3 14 9
f 3 9 8
f 3 8 4
f 5 8 9
f 5 9 10
f 6 11 7
f 7 11 12
f 9 13 10
f 9 14 13
f 11 15 12
f 12 15 16
f 13 14 17
f 13 17 18
f 15 19 16
f 16 19 20
f 17 21 18
f 18 21 22
f 18 22 23
f 18 23 24
f 19 25 26
f 19 26 20
f 23 27 24
f 24 27 29
f 24 29 30
f 24 30 28
f 25 31 26
f 26 31 32
f 26 32 33
f 26 33 34
f 28 30 35
f 30 36 37
f 30 37 35
f 33 38 34
f 34 38 39
f 34 39 40
f 36 41 42
f 36 42 43
f 36 43 37
f 38 44 39
f 39 44 45
f 39 45 40
f 40 45 46
f 40 46 47
f 41 48 42
f 42 48 49
f 42 49 50
f 44 46 45
f 44 51 52
f 44 52 46
f 46 52 47
f 47 52 51
f 47 51 57
f 47 57 53
f 48 54 49
f 49 54 55
f 49 55 56
f 49 56 50
f 53 57 58
f 54 59 55
f 54 60 59
f 55 59 56
f 56 59 61
f 57 62 58
f 58 62 63
f 58 63 64
f 59 60 65
f 59 65 61
f 60 66 70
f 60 70 67
f 60 67 65
f 61 65 67
f 63 68 69
f 63 69 64
f 66 71 74
f 66 74 70
f 68 72 73
f 68 73 69
f 71 75 78
f 71 78 74
f 72 76 77
f 72 77 73
f 75 79 78
f 76 80 77
f 77 80 81
f 78 79 82
f 79 83 82
f 80 84 81
f 81 84 85
f 82 86 87
f 82 83 86
f 83 88 86
f 84 89 85
f 85 89 90
f 86 88 91
f 86 91 87
f 88 92 91
f 89 93 90
f 90 93 94
f 91 92 95
f 92 96 95
f 93 97 94
f 94 97 98
f 95 96 99
f 96 100 99
f 97 101 98
f 98 101 102
f 99 100 103
f 100 104 103
f 101 105 102
f 102 105 106
f 102 106 107
f 103 104 108
f 104 109 108
f 106 110 107
f 107 110 114
f 107 114 111
f 108 112 113
f 108 109 112
f 111 114 115
f 112 116 113
f 113 116 117
f 114 117 115
f 115 117 116

