# https://github.com/mikedh/trimesh
v -0.00857953 0.01306360 -0.00574200
v -0.00857953 0.02045887 -0.00574200
v -0.00813967 0.01342114 -0.00574200
v -0.00811591 0.01306360 -0.00573526
v -0.00897624 0.01306360 -0.00573076
v -0.00528807 0.02045887 -0.00574200
v -0.00897624 0.02045887 -0.00573076
v -0.00895053 0.02089906 -0.00572851
v -0.00857953 0.02089906 -0.00573750
v -0.00528807 0.02068705 -0.00573975
v -0.00550048 0.01694090 -0.00574200
v -0.00528807 0.01695168 -0.00573750
v -0.00792144 0.01306360 -0.00572739
v -0.00919641 0.01306360 -0.00571615
v -0.00528807 0.01738110 -0.00574200
v -0.00919641 0.02045887 -0.00571615
v -0.00917071 0.02089906 -0.00571502
v -0.00888264 0.02113713 -0.00572401
v -0.00595053 0.02090535 -0.00573750
v -0.00857953 0.02114611 -0.00572626
v -0.00528807 0.02089906 -0.00573750
v -0.00528807 0.01667230 -0.00572739
v -0.00790301 0.01307528 -0.00572626
v -0.00788797 0.01306360 -0.00571502
v -0.00924636 0.01306360 -0.00569816
v -0.00945926 0.02045887 -0.00562060
v -0.00945926 0.02089906 -0.00561610
v -0.00945926 0.02133926 -0.00553966
v -0.00902570 0.02130602 -0.00566444
v -0.00857953 0.02136621 -0.00566106
v -0.00528807 0.02102753 -0.00573188
v -0.00595102 0.02115150 -0.00572514
v -0.00528807 0.02114611 -0.00572626
v -0.00528807 0.01643243 -0.00562060
v -0.00771338 0.01306360 -0.00560373
v -0.00945926 0.01306360 -0.00562060
v -0.00952764 0.01306360 -0.00558013
v -0.00981620 0.02045887 -0.00540364
v -0.00981377 0.02089906 -0.00540027
v -0.00976722 0.02133926 -0.00535868
v -0.00970951 0.02159259 -0.00530697
v -0.00945926 0.02167614 -0.00537329
v -0.00901988 0.02174981 -0.00543399
v -0.00857953 0.02175879 -0.00544074
v -0.00528807 0.02156924 -0.00554753
v -0.00528807 0.02136621 -0.00566106
v -0.00595053 0.02115150 -0.00572514
v -0.00528807 0.01612160 -0.00542837
v -0.00739622 0.01306360 -0.00535643
v -0.00981668 0.01306360 -0.00540364
v -0.00981668 0.01781950 -0.00540364
v -0.01003637 0.02045887 -0.00513835
v -0.01003346 0.02089906 -0.00513498
v -0.00999952 0.02134105 -0.00504392
v -0.00979341 0.02168692 -0.00505966
v -0.00966343 0.02198967 -0.00478425
v -0.00949370 0.02191061 -0.00508214
v -0.00901988 0.02196990 -0.00523839
v -0.00857953 0.02197889 -0.00525076
v -0.00528807 0.02187288 -0.00534294
v -0.00528807 0.02175879 -0.00544074
v -0.00528807 0.01561762 -0.00506640
v -0.00692968 0.01306360 -0.00492814
v -0.01003686 0.01306360 -0.00513835
v -0.01015568 0.02045887 -0.00491914
v -0.01015422 0.02089906 -0.00491577
v -0.01014161 0.02119642 -0.00488767
v -0.01009651 0.02149288 -0.00461900
v -0.00984675 0.02181718 -0.00463025
v -0.00969593 0.02201123 -0.00449086
v -0.00949370 0.02208220 -0.00463025
v -0.00936954 0.02205435 -0.00495062
v -0.00901988 0.02208849 -0.00501807
v -0.00528807 0.02197889 -0.00525076
v -0.00857953 0.02209477 -0.00503043
v -0.00595053 0.02209567 -0.00503043
v -0.00528807 0.01534991 -0.00487081
v -0.00671290 0.01306360 -0.00464598
v -0.01015568 0.01306360 -0.00491914
v -0.01021678 0.02045887 -0.00461900
v -0.01021339 0.02089906 -0.00461900
v -0.01016489 0.02127278 -0.00461900
v -0.01010960 0.02153061 -0.00417947
v -0.00991416 0.02177855 -0.00417947
v -0.00970417 0.02201752 -0.00417947
v -0.00945926 0.02212532 -0.00417947
v -0.00901988 0.02220258 -0.00461900
v -0.00857953 0.02221605 -0.00461900
v -0.00528807 0.02209567 -0.00503043
v -0.00528807 0.02215856 -0.00481797
v -0.00528807 0.01513431 -0.00461900
v -0.00664549 0.01306360 -0.00453245
v -0.01021678 0.01306360 -0.00461900
v -0.01024200 0.02045887 -0.00417947
v -0.01023860 0.02089906 -0.00417947
v -0.01017750 0.02131051 -0.00417947
v -0.01011057 0.02153330 -0.00285976
v -0.01011154 0.02153510 -0.00153892
v -0.01011154 0.02153600 -0.00109939
v -0.01011203 0.02153600 -0.00065986
v -0.00991465 0.02177855 -0.00373882
v -0.00991513 0.02177855 -0.00241910
v -0.00970417 0.02201752 -0.00373882
v -0.00901988 0.02222773 -0.00417947
v -0.00945926 0.02212532 -0.00373882
v -0.00857953 0.02224031 -0.00417947
v -0.00595053 0.02224121 -0.00417947
v -0.00595102 0.02221695 -0.00460889
v -0.00528807 0.02221605 -0.00461900
v -0.00528807 0.01508849 -0.00450434
v -0.00656983 0.01313547 -0.00446163
v -0.00657129 0.01306360 -0.00417947
v -0.01024200 0.01306360 -0.00417947
v -0.01024200 0.02045887 0.00417947
v -0.01023860 0.02089906 -0.00109939
v -0.01017750 0.02131500 -0.00153892
v -0.01017750 0.02131410 -0.00241910
v -0.01017750 0.02131320 -0.00285976
v -0.01011203 0.02153690 0.00065986
v -0.01011251 0.02153690 0.00373882
v -0.00991513 0.02177855 0.00021920
v -0.00991416 0.02177855 0.00285976
v -0.00991368 0.02177855 0.00417947
v -0.00970369 0.02201752 -0.00285976
v -0.00901988 0.02222773 -0.00241910
v -0.00945926 0.02212262 0.00373882
v -0.00901988 0.02222683 0.00417947
v -0.00857953 0.02224031 0.00417947
v -0.00528807 0.02224121 -0.00417947
v -0.00595053 0.02224121 0.00418959
v -0.00595053 0.02221695 -0.00460889
v -0.00528807 0.01496632 -0.00417947
v -0.00528807 0.01496452 -0.00373882
v -0.00657032 0.01306360 -0.00381189
v -0.01024200 0.01306360 0.00417947
v -0.01021727 0.02045887 0.00461901
v -0.01021339 0.02089906 0.00461901
v -0.01023763 0.02089906 0.00417947
v -0.01023812 0.02089906 0.00241910
v -0.01017701 0.02131680 0.00153892
v -0.01017701 0.02131680 -0.00021920
v -0.01011251 0.02153690 0.00417947
v -0.00984724 0.02181808 0.00463249
v -0.00969350 0.02200943 0.00449423
v -0.00970078 0.02201482 0.00417947
v -0.00970126 0.02201572 0.00285976
v -0.00970272 0.02201662 -0.00021920
v -0.00945926 0.02212173 0.00417947
v -0.00901988 0.02220258 0.00461901
v -0.00857953 0.02221605 0.00461901
v -0.00528807 0.02224121 0.00417947
v -0.00528807 0.02221605 0.00461901
v -0.00528807 0.01496452 0.00374332
v -0.00657032 0.01306360 0.00373882
v -0.01021727 0.01306360 0.00461901
v -0.01015616 0.02045887 0.00491802
v -0.01015422 0.02089906 0.00491465
v -0.01014113 0.02119642 0.00488655
v -0.01016440 0.02127637 0.00461901
v -0.01017653 0.02131680 0.00417947
v -0.01009845 0.02149647 0.00461901
v -0.00966683 0.02199146 0.00478762
v -0.00949564 0.02208130 0.00463249
v -0.00937342 0.02205435 0.00495174
v -0.00901988 0.02208849 0.00501919
v -0.00595102 0.02221336 0.00462912
v -0.00857953 0.02209477 0.00503156
v -0.00595053 0.02209567 0.00503156
v -0.00528807 0.02215407 0.00483259
v -0.00595053 0.02221336 0.00462912
v -0.00528807 0.01496632 0.00417947
v -0.00657080 0.01306360 0.00410528
v -0.01015616 0.01306360 0.00491802
v -0.01013337 0.01306360 0.00496074
v -0.01003540 0.02045887 0.00513835
v -0.01003346 0.02089906 0.00513498
v -0.01000097 0.02134105 0.00504392
v -0.00979583 0.02168962 0.00505966
v -0.00971096 0.02159439 0.00530809
v -0.00949564 0.02191331 0.00508327
v -0.00901988 0.02197170 0.00523952
v -0.00857953 0.02197979 0.00525188
v -0.00595053 0.02209298 0.00503718
v -0.00528807 0.02209567 0.00503156
v -0.00657129 0.01306360 0.00417947
v -0.00528807 0.01513431 0.00461901
v -0.00659360 0.01306360 0.00438294
v -0.01003540 0.01306360 0.00513835
v -0.00999370 0.01306360 0.00518893
v -0.00981571 0.02045887 0.00540476
v -0.00981329 0.02089906 0.00540252
v -0.00976916 0.02133926 0.00536092
v -0.00945926 0.02133926 0.00554191
v -0.00945926 0.02167794 0.00537441
v -0.00901988 0.02175160 0.00543399
v -0.00595053 0.02197529 0.00525638
v -0.00528807 0.02197979 0.00525188
v -0.00528807 0.02203638 0.00514509
v -0.00857953 0.02175969 0.00544074
v -0.00664549 0.01306360 0.00453245
v -0.00656983 0.01313547 0.00446163
v -0.00528807 0.01527176 0.00478425
v -0.00981571 0.01306360 0.00540476
v -0.00974830 0.01306360 0.00544636
v -0.00945926 0.01306360 0.00562060
v -0.00945926 0.02045887 0.00561947
v -0.00945926 0.02089906 0.00561722
v -0.00915761 0.02089906 0.00571390
v -0.00902619 0.02130602 0.00566444
v -0.00857953 0.02136711 0.00566106
v -0.00528807 0.02175969 0.00544074
v -0.00595102 0.02175070 0.00544636
v -0.00669156 0.01306360 0.00461226
v -0.00528807 0.01534991 0.00487081
v -0.00917265 0.01306360 0.00571502
v -0.00917265 0.01342114 0.00571502
v -0.00917216 0.01386134 0.00571502
v -0.00916828 0.02045887 0.00571390
v -0.00894811 0.02045887 0.00573076
v -0.00893744 0.02089906 0.00572851
v -0.00888458 0.02113713 0.00572401
v -0.00857953 0.02114701 0.00572739
v -0.00595102 0.02114791 0.00572739
v -0.00595053 0.02136800 0.00566106
v -0.00595053 0.02175070 0.00544636
v -0.00528807 0.02136800 0.00566106
v -0.00671290 0.01306360 0.00464598
v -0.00688118 0.01306360 0.00487643
v -0.00528807 0.01544155 0.00494388
v -0.00895247 0.01306360 0.00573076
v -0.00895247 0.01342114 0.00573076
v -0.00895199 0.01430153 0.00573076
v -0.00894859 0.02001867 0.00573076
v -0.00857953 0.02045887 0.00574200
v -0.00857953 0.02089906 0.00573750
v -0.00528807 0.02089906 0.00573863
v -0.00528807 0.02114791 0.00572739
v -0.00692968 0.01306360 0.00492814
v -0.00528807 0.01577484 0.00518556
v -0.00888167 0.01306360 0.00573301
v -0.00595102 0.02088918 0.00573863
v -0.00857953 0.01306360 0.00574200
v -0.00528807 0.02045887 0.00574200
v -0.00528807 0.01612160 0.00542837
v -0.00712561 0.01306360 0.00510912
v -0.00849564 0.01306360 0.00574200
v -0.00528807 0.01715292 0.00574200
v -0.00528807 0.01626444 0.00552055
v -0.00739622 0.01306360 0.00535643
v -0.00813967 0.01342114 0.00574200
v -0.00811591 0.01306360 0.00573526
v -0.00528807 0.01695168 0.00573750
v -0.00528807 0.01643243 0.00562060
v -0.00763288 0.01306360 0.00555090
v -0.00528807 0.01676393 0.00573301
v -0.00792144 0.01306360 0.00572739
v -0.00528807 0.01661570 0.00570940
v -0.00771338 0.01306360 0.00560373
v -0.00790446 0.01306360 0.00572626
v -0.00528807 0.01667230 0.00572739
f 1 2 6
f 1 6 15
f 1 15 11
f 1 11 3
f 1 3 4
f 1 4 13
f 1 13 24
f 1 24 35
f 1 35 49
f 1 49 63
f 1 63 78
f 1 78 92
f 1 92 112
f 1 112 134
f 1 134 154
f 1 154 172
f 1 172 185
f 1 185 187
f 1 187 200
f 1 200 213
f 1 213 227
f 1 227 228
f 1 228 238
f 1 238 245
f 1 245 249
f 1 249 254
f 1 254 258
f 1 258 259
f 1 259 256
f 1 256 251
f 1 251 246
f 1 246 242
f 1 242 240
f 1 240 230
f 1 230 215
f 1 215 205
f 1 205 204
f 1 204 203
f 1 203 189
f 1 189 188
f 1 188 174
f 1 174 173
f 1 173 155
f 1 155 135
f 1 135 113
f 1 113 93
f 1 93 79
f 1 79 64
f 1 64 50
f 1 50 37
f 1 37 36
f 1 36 25
f 1 25 14
f 1 14 5
f 1 5 7
f 1 7 2
f 2 7 8
f 2 8 9
f 2 9 10
f 2 10 6
f 3 11 12
f 3 12 4
f 4 12 13
f 5 14 16
f 5 16 7
f 6 10 21
f 6 21 31
f 6 31 33
f 6 33 46
f 6 46 45
f 6 45 61
f 6 61 60
f 6 60 74
f 6 74 89
f 6 89 90
f 6 90 109
f 6 109 129
f 6 129 151
f 6 151 152
f 6 152 169
f 6 169 184
f 6 184 198
f 6 198 197
f 6 197 211
f 6 211 226
f 6 226 237
f 6 237 236
f 6 236 243
f 6 243 247
f 6 247 252
f 6 252 255
f 6 255 260
f 6 260 257
f 6 257 253
f 6 253 248
f 6 248 244
f 6 244 239
f 6 239 229
f 6 229 214
f 6 214 202
f 6 202 186
f 6 186 171
f 6 171 153
f 6 153 133
f 6 133 132
f 6 132 110
f 6 110 91
f 6 91 77
f 6 77 62
f 6 62 48
f 6 48 34
f 6 34 22
f 6 22 12
f 6 12 15
f 7 16 17
f 7 17 8
f 8 18 9
f 8 17 18
f 9 19 10
f 9 18 20
f 9 20 19
f 10 19 21
f 11 15 12
f 12 22 13
f 13 22 23
f 13 23 24
f 14 25 16
f 16 25 26
f 16 26 27
f 16 27 17
f 17 27 28
f 17 28 29
f 17 29 18
f 18 29 30
f 18 30 20
f 19 20 31
f 19 31 21
f 20 30 32
f 20 32 47
f 20 47 33
f 20 33 31
f 22 24 23
f 22 34 24
f 24 34 35
f 25 36 26
f 26 36 37
f 26 37 38
f 26 38 27
f 27 38 39
f 27 39 40
f 27 40 28
f 28 40 41
f 28 41 42
f 28 42 29
f 29 42 43
f 29 43 30
f 30 43 44
f 30 44 45
f 30 45 46
f 30 46 47
f 30 47 32
f 33 47 46
f 34 48 49
f 34 49 35
f 37 50 51
f 37 51 38
f 38 51 52
f 38 52 39
f 39 52 53
f 39 53 40
f 40 53 54
f 40 54 41
f 41 54 55
f 41 55 56
f 41 56 57
f 41 57 42
f 42 57 58
f 42 58 43
f 43 58 59
f 43 59 44
f 44 59 60
f 44 60 61
f 44 61 45
f 48 62 63
f 48 63 49
f 50 64 51
f 51 64 52
f 52 64 65
f 52 65 66
f 52 66 53
f 53 66 67
f 53 67 54
f 54 67 68
f 54 68 55
f 55 68 56
f 56 68 69
f 56 69 70
f 56 70 71
f 56 71 72
f 56 72 57
f 57 72 58
f 58 72 73
f 58 73 59
f 59 74 60
f 59 73 75
f 59 75 76
f 59 76 89
f 59 89 74
f 62 77 63
f 63 77 78
f 64 79 65
f 65 79 93
f 65 93 80
f 65 80 66
f 66 80 81
f 66 81 67
f 67 81 82
f 67 82 68
f 68 82 83
f 68 83 69
f 69 83 84
f 69 84 70
f 70 84 85
f 70 85 86
f 70 86 71
f 71 87 72
f 71 86 87
f 72 87 73
f 73 87 88
f 73 88 75
f 75 88 90
f 75 90 76
f 76 90 89
f 77 91 92
f 77 92 78
f 80 93 113
f 80 113 94
f 80 94 95
f 80 95 81
f 81 95 82
f 82 95 96
f 82 96 83
f 83 96 97
f 83 97 84
f 84 97 98
f 84 98 99
f 84 99 100
f 84 100 101
f 84 101 85
f 85 101 102
f 85 102 121
f 85 121 103
f 85 103 105
f 85 105 86
f 86 104 87
f 86 105 125
f 86 125 104
f 87 104 88
f 88 104 106
f 88 106 107
f 88 107 108
f 88 108 131
f 88 131 109
f 88 109 90
f 91 110 111
f 91 111 92
f 92 111 112
f 94 113 135
f 94 135 114
f 94 114 115
f 94 115 95
f 95 115 116
f 95 116 117
f 95 117 118
f 95 118 96
f 96 118 100
f 96 100 98
f 96 98 97
f 98 100 99
f 100 118 117
f 100 117 116
f 100 116 119
f 100 119 101
f 101 119 102
f 102 119 120
f 102 120 142
f 102 142 121
f 103 121 122
f 103 122 123
f 103 123 124
f 103 124 105
f 104 125 128
f 104 128 106
f 105 124 126
f 105 126 127
f 105 127 125
f 106 128 130
f 106 130 107
f 107 129 131
f 107 131 108
f 107 130 151
f 107 151 129
f 109 131 129
f 110 132 111
f 111 132 112
f 112 132 133
f 112 133 134
f 114 135 155
f 114 155 136
f 114 136 137
f 114 137 138
f 114 138 139
f 114 139 115
f 115 139 140
f 115 140 116
f 116 140 141
f 116 141 120
f 116 120 119
f 120 141 140
f 120 140 142
f 121 142 122
f 122 142 123
f 123 142 143
f 123 143 144
f 123 144 145
f 123 145 146
f 123 146 147
f 123 147 124
f 124 147 146
f 124 146 126
f 125 127 128
f 126 146 145
f 126 145 148
f 126 148 127
f 127 148 149
f 127 149 150
f 127 150 128
f 128 150 130
f 130 150 152
f 130 152 151
f 133 153 154
f 133 154 134
f 136 155 173
f 136 173 156
f 136 156 157
f 136 157 137
f 137 157 158
f 137 158 159
f 137 159 138
f 138 159 160
f 138 160 139
f 139 160 140
f 140 160 142
f 142 160 159
f 142 159 161
f 142 161 143
f 143 161 162
f 143 162 144
f 144 148 145
f 144 162 163
f 144 163 148
f 148 163 149
f 149 163 164
f 149 164 165
f 149 165 150
f 150 166 170
f 150 170 152
f 150 165 167
f 150 167 168
f 150 168 169
f 150 169 166
f 152 170 169
f 153 171 172
f 153 172 154
f 156 173 174
f 156 174 175
f 156 175 176
f 156 176 157
f 157 176 158
f 158 161 159
f 158 176 177
f 158 177 161
f 161 177 178
f 161 178 162
f 162 178 179
f 162 179 180
f 162 180 164
f 162 164 163
f 164 180 181
f 164 181 165
f 165 181 182
f 165 182 167
f 166 169 170
f 167 183 168
f 167 182 183
f 168 183 184
f 168 184 169
f 171 185 172
f 171 186 187
f 171 187 185
f 174 188 175
f 175 188 189
f 175 189 190
f 175 190 191
f 175 191 176
f 176 191 192
f 176 192 177
f 177 192 179
f 177 179 178
f 179 192 193
f 179 193 194
f 179 194 180
f 180 194 181
f 181 194 195
f 181 195 182
f 182 196 197
f 182 197 198
f 182 198 183
f 182 195 199
f 182 199 196
f 183 198 184
f 186 200 201
f 186 201 187
f 186 202 200
f 187 201 200
f 189 203 190
f 190 203 204
f 190 204 205
f 190 205 206
f 190 206 207
f 190 207 191
f 191 207 192
f 192 207 193
f 193 207 208
f 193 208 209
f 193 209 194
f 194 209 195
f 195 209 210
f 195 210 199
f 196 199 211
f 196 211 197
f 199 210 212
f 199 212 225
f 199 225 211
f 200 202 213
f 202 214 213
f 205 215 216
f 205 216 206
f 206 216 217
f 206 217 218
f 206 218 207
f 207 218 208
f 208 218 219
f 208 219 220
f 208 220 221
f 208 221 209
f 209 221 210
f 210 221 222
f 210 222 223
f 210 223 224
f 210 224 212
f 211 225 226
f 212 224 226
f 212 226 225
f 213 214 227
f 214 228 227
f 214 229 228
f 215 230 231
f 215 231 216
f 216 231 232
f 216 232 233
f 216 233 219
f 216 219 217
f 217 219 218
f 219 233 234
f 219 234 220
f 220 234 235
f 220 235 221
f 221 235 222
f 222 235 236
f 222 236 223
f 223 236 237
f 223 237 226
f 223 226 224
f 228 229 238
f 229 239 238
f 230 240 231
f 231 240 232
f 232 240 233
f 233 240 234
f 234 236 241
f 234 241 235
f 234 240 242
f 234 242 246
f 234 246 250
f 234 250 247
f 234 247 243
f 234 243 236
f 235 241 236
f 238 239 244
f 238 244 245
f 244 248 249
f 244 249 245
f 246 251 250
f 247 250 251
f 247 251 252
f 248 253 249
f 249 253 254
f 251 255 252
f 251 256 255
f 253 257 254
f 254 257 258
f 255 256 259
f 255 259 260
f 257 260 259
f 257 259 258

