# https://github.com/mikedh/trimesh
v -0.00703459 -0.00824199 0.00387684
v -0.00703522 -0.00824199 0.00417921
v -0.00725030 -0.00990053 0.00417921
v -0.00703459 -0.00824199 -0.00373971
v -0.00704276 -0.00824199 0.00424890
v -0.00736523 -0.00990053 0.00461309
v -0.00725030 -0.00990053 -0.00417921
v -0.00703491 -0.00824199 -0.00404320
v -0.00715108 -0.00824199 0.00461534
v -0.00748517 -0.00990053 0.00483341
v -0.00736523 -0.00990053 -0.00461309
v -0.00712785 -0.00824199 -0.00453216
v -0.00703522 -0.00824199 -0.00417921
v -0.00718594 -0.00824199 0.00466817
v -0.00737967 -0.00824199 0.00493682
v -0.00770528 -0.00990053 0.00505484
v -0.00715108 -0.00824199 -0.00461534
v -0.00748517 -0.00990053 -0.00483341
v -0.00765724 -0.00824199 0.00520659
v -0.00814518 -0.00990053 0.00548873
v -0.00792507 -0.00990053 0.00527403
v -0.00737967 -0.00824199 -0.00493682
v -0.00770528 -0.00990053 -0.00505484
v -0.00782616 -0.00824199 0.00537070
v -0.00788676 -0.00824199 0.00542241
v -0.00836120 -0.00923848 0.00571916
v -0.00844786 -0.00990053 0.00570904
v -0.00792507 -0.00990053 -0.00527403
v -0.00814518 -0.00990053 -0.00548873
v -0.00782616 -0.00824199 -0.00537070
v -0.00816684 -0.00824199 0.00563148
v -0.00835178 -0.00894528 0.00572478
v -0.00866765 -0.00990053 0.00573040
v -0.00844786 -0.00990053 -0.00570904
v -0.00836120 -0.00923848 -0.00571916
v -0.00811566 -0.00824199 -0.00559101
v -0.00833577 -0.00824199 0.00573040
v -0.00834330 -0.00858016 0.00572927
v -0.00858005 -0.00858016 0.00573939
v -0.00896312 -0.00990053 0.00573040
v -0.00866765 -0.00990053 -0.00573040
v -0.00835178 -0.00894528 -0.00572478
v -0.00834330 -0.00858016 -0.00572927
v -0.00833577 -0.00824199 -0.00573040
v -0.00858005 -0.00824199 0.00574164
v -0.00866860 -0.00824199 0.00573939
v -0.00896312 -0.00824199 0.00573040
v -0.00901399 -0.00824199 0.00572703
v -0.00918291 -0.00990053 0.00571578
v -0.00897662 -0.00990053 -0.00573040
v -0.00858005 -0.00858016 -0.00573939
v -0.00858005 -0.00824199 -0.00574164
v -0.00918291 -0.00824199 0.00571578
v -0.00945985 -0.00990053 0.00562024
v -0.00897662 -0.00824199 -0.00573040
v -0.00919673 -0.00990053 -0.00571691
v -0.00914555 -0.00824199 -0.00572028
v -0.00945985 -0.00824199 0.00562024
v -0.00954243 -0.00824199 0.00557078
v -0.00981654 -0.00990053 0.00540442
v -0.00945985 -0.00990053 -0.00562136
v -0.00939894 -0.00824199 -0.00564385
v -0.00919673 -0.00824199 -0.00571691
v -0.00981654 -0.00824199 0.00540442
v -0.01003665 -0.00990053 0.00513915
v -0.00981749 -0.00990053 -0.00540442
v -0.00973459 -0.00824199 -0.00545500
v -0.00945985 -0.00824199 -0.00562136
v -0.01003665 -0.00824199 0.00513915
v -0.01006428 -0.00824199 0.00508857
v -0.01015628 -0.00990053 0.00491883
v -0.01003759 -0.00990053 -0.00513915
v -0.00998641 -0.00824199 -0.00520097
v -0.00981749 -0.00824199 -0.00540442
v -0.01015628 -0.00824199 0.00491883
v -0.01021719 -0.00990053 0.00461984
v -0.01015597 -0.00990053 -0.00491883
v -0.01003759 -0.00858016 -0.00513915
v -0.01003728 -0.00824199 -0.00513915
v -0.01021719 -0.00824199 0.00461984
v -0.01024200 -0.00990053 0.00417921
v -0.01021688 -0.00990053 -0.00461984
v -0.01015597 -0.00824199 -0.00491883
v -0.01024200 -0.00824199 0.00417921
v -0.01024200 -0.00990053 -0.00417921
v -0.01021688 -0.00824199 -0.00461984
v -0.01024200 -0.00824199 -0.00417921
f 1 2 3
f 1 3 7
f 1 7 4
f 1 4 8
f 1 8 13
f 1 13 12
f 1 12 17
f 1 17 22
f 1 22 30
f 1 30 36
f 1 36 44
f 1 44 52
f 1 52 55
f 1 55 57
f 1 57 63
f 1 63 62
f 1 62 68
f 1 68 67
f 1 67 74
f 1 74 73
f 1 73 79
f 1 79 83
f 1 83 86
f 1 86 87
f 1 87 84
f 1 84 80
f 1 80 75
f 1 75 70
f 1 70 69
f 1 69 64
f 1 64 59
f 1 59 58
f 1 58 53
f 1 53 48
f 1 48 47
f 1 47 46
f 1 46 45
f 1 45 37
f 1 37 31
f 1 31 25
f 1 25 24
f 1 24 19
f 1 19 15
f 1 15 14
f 1 14 9
f 1 9 5
f 1 5 2
f 2 5 3
f 3 5 6
f 3 6 10
f 3 10 16
f 3 16 21
f 3 21 20
f 3 20 27
f 3 27 33
f 3 33 40
f 3 40 49
f 3 49 54
f 3 54 60
f 3 60 65
f 3 65 71
f 3 71 76
f 3 76 81
f 3 81 85
f 3 85 82
f 3 82 77
f 3 77 72
f 3 72 66
f 3 66 61
f 3 61 56
f 3 56 50
f 3 50 41
f 3 41 34
f 3 34 29
f 3 29 28
f 3 28 23
f 3 23 18
f 3 18 11
f 3 11 7
f 4 7 8
f 5 9 6
f 6 9 10
f 7 11 12
f 7 12 13
f 7 13 8
f 9 14 10
f 10 14 15
f 10 15 16
f 11 17 12
f 11 18 17
f 15 19 20
f 15 20 21
f 15 21 16
f 17 18 22
f 18 23 22
f 19 24 20
f 20 24 25
f 20 25 26
f 20 26 27
f 22 23 28
f 22 28 29
f 22 29 30
f 25 31 26
f 26 32 33
f 26 33 27
f 26 31 32
f 29 34 35
f 29 35 30
f 30 35 36
f 31 37 38
f 31 38 32
f 32 38 33
f 33 39 40
f 33 38 39
f 34 41 35
f 35 41 42
f 35 42 36
f 36 42 43
f 36 43 44
f 37 45 38
f 38 45 39
f 39 45 40
f 40 45 46
f 40 46 47
f 40 47 48
f 40 48 49
f 41 43 42
f 41 50 51
f 41 51 43
f 43 51 52
f 43 52 44
f 48 53 49
f 49 53 58
f 49 58 54
f 50 55 52
f 50 52 51
f 50 56 57
f 50 57 55
f 54 59 60
f 54 58 59
f 56 61 62
f 56 62 63
f 56 63 57
f 59 64 60
f 60 64 69
f 60 69 65
f 61 66 67
f 61 67 68
f 61 68 62
f 65 70 71
f 65 69 70
f 66 72 73
f 66 73 74
f 66 74 67
f 70 75 71
f 71 75 80
f 71 80 76
f 72 77 83
f 72 83 78
f 72 78 73
f 73 78 79
f 76 80 84
f 76 84 81
f 77 82 86
f 77 86 83
f 78 83 79
f 81 84 87
f 81 87 85
f 82 85 87
f 82 87 86

