# https://github.com/mikedh/trimesh
v -0.00109973 -0.02224200 -0.00417947
v -0.00109973 -0.02221666 -0.00461900
v 0.00101269 -0.02223703 -0.00426716
v 0.00101269 -0.02224200 -0.00417947
v -0.00109973 -0.02224200 0.00417947
v 0.00101269 -0.02219282 -0.00470107
v 0.00101269 -0.02221666 -0.00461900
v -0.00109973 -0.02209595 -0.00503043
v 0.00101269 -0.02224200 0.00417947
v -0.00109973 -0.02221666 0.00461901
v 0.00101269 -0.02209595 -0.00503043
v -0.00109973 -0.02197971 -0.00525076
v 0.00101269 -0.02221666 0.00461901
v 0.00101269 -0.02209595 0.00503156
v -0.00109973 -0.02209546 0.00503156
v 0.00101269 -0.02197971 -0.00525076
v -0.00109973 -0.02175965 -0.00544074
v 0.00101269 -0.02198071 0.00525188
v -0.00109973 -0.02198071 0.00525188
v 0.00101269 -0.02175965 -0.00544074
v 0.00101269 -0.02168216 -0.00548458
v -0.00109973 -0.02136871 -0.00566106
v 0.00065993 -0.02136920 -0.00566106
v 0.00101269 -0.02180436 0.00540364
v -0.00109973 -0.02176064 0.00544074
v 0.00101269 -0.02136920 -0.00566106
v -0.00109973 -0.02114864 -0.00572739
v 0.00101269 -0.02132549 -0.00567455
v 0.00101269 -0.02176064 0.00544074
v -0.00109973 -0.02136920 0.00566106
v -0.00109973 -0.02089977 -0.00573863
v 0.00021991 -0.02114914 -0.00572739
v 0.00101269 -0.02114914 -0.00572739
v 0.00101269 -0.02136920 0.00566106
v -0.00109973 -0.02114914 0.00572739
v 0.00101269 -0.02089977 -0.00573863
v 0.00101269 -0.02109947 -0.00572963
v -0.00109973 -0.02046014 -0.00574088
v -0.00065991 -0.02045965 -0.00574200
v 0.00101269 -0.02114914 0.00572739
v -0.00109973 -0.02089977 0.00573863
v 0.00101269 -0.02045965 -0.00574200
v -0.00109973 -0.02002002 -0.00574200
v 0.00101269 -0.02089977 0.00573863
v -0.00109973 -0.02045965 0.00574200
v 0.00101269 -0.01914027 -0.00574200
v -0.00109973 -0.01870064 -0.00574200
v 0.00101269 -0.02045965 0.00574200
v -0.00109973 -0.01870014 0.00574200
v 0.00101269 -0.01870014 -0.00574088
v -0.00109973 -0.01845624 -0.00573076
v 0.00101269 -0.01865246 -0.00573975
v 0.00101269 -0.01878757 0.00574200
v 0.00101269 -0.01850492 0.00573301
v -0.00109973 -0.01845624 0.00573076
v 0.00101269 -0.01870014 0.00574088
v -0.00109973 -0.01823618 -0.00559024
v 0.00101269 -0.01845723 -0.00573076
v 0.00101269 -0.01845723 0.00573076
v 0.00101269 -0.01828088 0.00561835
v -0.00109973 -0.01823618 0.00559024
v 0.00101269 -0.01823717 -0.00558575
v -0.00109973 -0.01794856 -0.00537104
v 0.00101269 -0.01823717 0.00558575
v -0.00109973 -0.01794806 0.00537104
v 0.00101269 -0.01795303 -0.00536654
v -0.00109973 -0.01750545 -0.00493263
v 0.00101269 -0.01800618 0.00540926
v 0.00101269 -0.01795303 0.00536654
v 0.00101269 -0.01755463 0.00497198
v -0.00109973 -0.01750545 0.00493263
v 0.00101269 -0.01751042 -0.00492814
v -0.00109973 -0.01727496 -0.00459540
v 0.00101269 -0.01751042 0.00492814
v -0.00109973 -0.01727049 0.00458865
v 0.00101269 -0.01728440 -0.00459427
v -0.00109973 -0.01727049 -0.00458865
v 0.00101269 -0.01732563 0.00465723
v 0.00101269 -0.01728440 0.00459427
v -0.00109973 -0.01726751 0.00457741
v -0.00109973 -0.01717114 -0.00426041
v 0.00101269 -0.01725807 -0.00449872
v 0.00101269 -0.01718107 0.00417947
v -0.00109973 -0.01716766 0.00417947
v -0.00109973 -0.01716766 -0.00417947
v 0.00101269 -0.01718107 -0.00417947
v 0.00101269 -0.01718057 0.00373994
v -0.00109973 -0.01716716 0.00373994
v -0.00109973 -0.01716716 -0.00373994
v 0.00101269 -0.01718057 -0.00373994
f 1 2 3
f 1 3 4
f 1 4 9
f 1 9 5
f 1 5 10
f 1 10 15
f 1 15 19
f 1 19 25
f 1 25 30
f 1 30 35
f 1 35 41
f 1 41 45
f 1 45 49
f 1 49 55
f 1 55 61
f 1 61 65
f 1 65 71
f 1 71 75
f 1 75 80
f 1 80 84
f 1 84 88
f 1 88 89
f 1 89 85
f 1 85 81
f 1 81 77
f 1 77 73
f 1 73 67
f 1 67 63
f 1 63 57
f 1 57 51
f 1 51 47
f 1 47 43
f 1 43 38
f 1 38 31
f 1 31 27
f 1 27 22
f 1 22 17
f 1 17 12
f 1 12 8
f 1 8 2
f 2 6 7
f 2 7 3
f 2 8 6
f 3 7 6
f 3 6 11
f 3 11 16
f 3 16 20
f 3 20 21
f 3 21 26
f 3 26 28
f 3 28 33
f 3 33 37
f 3 37 36
f 3 36 42
f 3 42 46
f 3 46 50
f 3 50 52
f 3 52 58
f 3 58 62
f 3 62 66
f 3 66 72
f 3 72 76
f 3 76 82
f 3 82 86
f 3 86 90
f 3 90 87
f 3 87 83
f 3 83 79
f 3 79 78
f 3 78 74
f 3 74 70
f 3 70 69
f 3 69 68
f 3 68 64
f 3 64 60
f 3 60 59
f 3 59 54
f 3 54 56
f 3 56 53
f 3 53 48
f 3 48 44
f 3 44 40
f 3 40 34
f 3 34 29
f 3 29 24
f 3 24 18
f 3 18 14
f 3 14 13
f 3 13 9
f 3 9 4
f 5 9 13
f 5 13 10
f 6 8 11
f 8 12 16
f 8 16 11
f 10 13 14
f 10 14 15
f 12 17 20
f 12 20 16
f 14 18 19
f 14 19 15
f 17 21 20
f 17 22 23
f 17 23 21
f 18 24 19
f 19 24 25
f 21 23 26
f 22 27 28
f 22 28 23
f 23 28 26
f 24 29 25
f 25 29 34
f 25 34 30
f 27 31 32
f 27 32 28
f 28 32 33
f 30 34 40
f 30 40 35
f 31 36 37
f 31 37 32
f 31 38 39
f 31 39 42
f 31 42 36
f 32 37 33
f 35 40 44
f 35 44 41
f 38 43 39
f 39 43 47
f 39 47 46
f 39 46 42
f 41 44 48
f 41 48 45
f 45 48 53
f 45 53 49
f 46 47 50
f 47 51 52
f 47 52 50
f 49 54 55
f 49 53 56
f 49 56 54
f 51 57 58
f 51 58 52
f 54 59 55
f 55 59 60
f 55 60 61
f 57 62 58
f 57 63 62
f 60 64 61
f 61 64 65
f 62 63 66
f 63 67 66
f 64 68 65
f 65 68 69
f 65 69 70
f 65 70 71
f 66 67 72
f 67 73 72
f 70 74 71
f 71 74 75
f 72 73 76
f 73 77 76
f 74 78 75
f 75 79 80
f 75 78 79
f 76 77 81
f 76 81 82
f 79 83 84
f 79 84 80
f 81 85 86
f 81 86 82
f 83 87 88
f 83 88 84
f 85 89 90
f 85 90 86
f 87 90 89
f 87 89 88

