# https://github.com/mikedh/trimesh
v 0.00694513 0.00430394 0.00574200
v 0.00694513 0.00477439 0.00573526
v 0.00681994 0.00417972 0.00574200
v 0.00694513 -0.00417972 0.00574200
v 0.00694513 0.00505697 0.00573076
v 0.00615905 0.00351830 0.00574200
v 0.00681994 -0.00417972 0.00574200
v 0.00694513 -0.00505697 0.00573076
v 0.00694513 0.00524018 0.00570715
v 0.00663627 0.00480234 0.00571615
v 0.00615905 0.00404154 0.00572739
v 0.00615905 0.00393441 0.00573301
v 0.00615905 -0.00329937 0.00574200
v 0.00638004 -0.00373877 0.00574200
v 0.00663627 -0.00480234 0.00571615
v 0.00694513 -0.00537992 0.00563858
v 0.00615905 -0.00373101 0.00573638
v 0.00615905 -0.00404154 0.00572739
v 0.00615905 0.00439088 0.00563184
v 0.00615905 0.00426512 0.00567905
v 0.00694513 0.00596216 0.00538341
v 0.00615905 0.00411917 0.00571839
v 0.00625108 -0.00430704 0.00570266
v 0.00615905 -0.00426512 0.00567905
v 0.00694513 -0.00593732 0.00539128
v 0.00615905 0.00481320 0.00540589
v 0.00694513 0.00697449 0.00492589
v 0.00694513 0.00712510 0.00485395
v 0.00615905 -0.00461602 0.00550706
v 0.00694513 -0.00697449 0.00492589
v 0.00615905 0.00560816 0.00491802
v 0.00694513 0.00742320 0.00469432
v 0.00694513 0.00763126 0.00456842
v 0.00615905 -0.00491878 0.00533170
v 0.00694513 -0.00735955 0.00472692
v 0.00615905 0.00572616 0.00484270
v 0.00694513 0.00767473 0.00453132
v 0.00615905 -0.00572616 0.00484270
v 0.00694513 -0.00763126 0.00456842
v 0.00615905 0.00573082 0.00483821
v 0.00694513 0.00786881 0.00432561
v 0.00615905 0.00599322 0.00458191
v 0.00615905 -0.00594508 0.00462350
v 0.00694513 -0.00769957 0.00449086
v 0.00615951 -0.00615935 0.00440093
v 0.00694513 0.00792626 0.00417947
v 0.00615951 0.00615935 0.00440093
v 0.00615905 0.00615624 0.00440205
v 0.00615905 -0.00615624 0.00440205
v 0.00694513 -0.00792626 0.00417947
v 0.00615905 -0.00615935 0.00432673
v 0.00615905 -0.00616245 0.00417947
v 0.00694513 0.00793092 0.00373882
v 0.00615905 0.00616245 0.00417947
v 0.00615905 0.00615935 0.00432673
v 0.00694513 -0.00793092 0.00373882
v 0.00615905 -0.00616711 0.00374557
v 0.00694513 0.00793092 -0.00373882
v 0.00615905 0.00616711 0.00373882
v 0.00694513 -0.00793092 -0.00373882
v 0.00615905 -0.00616711 -0.00373882
v 0.00694513 0.00792626 -0.00417947
v 0.00615905 0.00616711 -0.00374556
v 0.00694513 -0.00792626 -0.00417947
v 0.00615905 -0.00616245 -0.00417947
v 0.00694513 0.00769957 -0.00449086
v 0.00615951 0.00615935 -0.00440093
v 0.00615905 0.00616245 -0.00418060
v 0.00694513 -0.00786881 -0.00432561
v 0.00615951 -0.00615935 -0.00440093
v 0.00615905 -0.00615935 -0.00432673
v 0.00694513 0.00763126 -0.00456842
v 0.00615905 0.00594508 -0.00462350
v 0.00615905 0.00615624 -0.00440205
v 0.00615905 0.00615935 -0.00432673
v 0.00694513 -0.00767473 -0.00453132
v 0.00615905 -0.00599322 -0.00458191
v 0.00615905 -0.00615780 -0.00439980
v 0.00694513 0.00735955 -0.00472692
v 0.00615905 0.00491878 -0.00533170
v 0.00615905 0.00572616 -0.00484270
v 0.00694513 -0.00763126 -0.00456842
v 0.00615905 -0.00573082 -0.00483821
v 0.00615905 -0.00572616 -0.00484270
v 0.00694513 0.00697449 -0.00492589
v 0.00615905 0.00461602 -0.00550706
v 0.00694513 -0.00742320 -0.00469432
v 0.00615905 -0.00560816 -0.00491802
v 0.00615905 -0.00481320 -0.00540589
v 0.00694513 0.00593732 -0.00539127
v 0.00615905 0.00426512 -0.00567905
v 0.00694513 -0.00712510 -0.00485395
v 0.00615905 -0.00439088 -0.00563184
v 0.00694513 0.00537992 -0.00563858
v 0.00625108 0.00430704 -0.00570266
v 0.00615905 0.00404154 -0.00572739
v 0.00663627 0.00480234 -0.00571615
v 0.00694513 -0.00697449 -0.00492589
v 0.00615905 -0.00426512 -0.00567905
v 0.00694513 -0.00524018 -0.00570715
v 0.00694513 -0.00596216 -0.00538341
v 0.00694513 0.00505697 -0.00573076
v 0.00615905 0.00373101 -0.00573638
v 0.00615905 -0.00411917 -0.00571839
v 0.00663627 -0.00480234 -0.00571615
v 0.00694513 -0.00505697 -0.00573076
v 0.00694513 0.00417972 -0.00574200
v 0.00681994 0.00417972 -0.00574200
v 0.00638004 0.00373877 -0.00574200
v 0.00615905 0.00329937 -0.00574200
v 0.00615905 -0.00404154 -0.00572739
v 0.00694513 -0.00477439 -0.00573526
v 0.00615905 -0.00393441 -0.00573301
v 0.00615905 -0.00351830 -0.00574200
v 0.00694513 -0.00430394 -0.00574200
v 0.00681994 -0.00417972 -0.00574200
f 1 2 3
f 1 3 6
f 1 6 13
f 1 13 14
f 1 14 7
f 1 7 4
f 1 4 8
f 1 8 16
f 1 16 25
f 1 25 30
f 1 30 35
f 1 35 39
f 1 39 44
f 1 44 50
f 1 50 56
f 1 56 60
f 1 60 64
f 1 64 69
f 1 69 76
f 1 76 82
f 1 82 87
f 1 87 92
f 1 92 98
f 1 98 101
f 1 101 100
f 1 100 106
f 1 106 112
f 1 112 115
f 1 115 107
f 1 107 102
f 1 102 94
f 1 94 90
f 1 90 85
f 1 85 79
f 1 79 72
f 1 72 66
f 1 66 62
f 1 62 58
f 1 58 53
f 1 53 46
f 1 46 41
f 1 41 37
f 1 37 33
f 1 33 32
f 1 32 28
f 1 28 27
f 1 27 21
f 1 21 9
f 1 9 5
f 1 5 2
f 2 5 6
f 2 6 3
f 4 7 8
f 5 9 10
f 5 10 11
f 5 11 12
f 5 12 6
f 6 12 11
f 6 11 22
f 6 22 20
f 6 20 19
f 6 19 26
f 6 26 31
f 6 31 36
f 6 36 40
f 6 40 42
f 6 42 48
f 6 48 55
f 6 55 54
f 6 54 59
f 6 59 63
f 6 63 68
f 6 68 75
f 6 75 74
f 6 74 73
f 6 73 81
f 6 81 80
f 6 80 86
f 6 86 91
f 6 91 96
f 6 96 103
f 6 103 110
f 6 110 114
f 6 114 113
f 6 113 111
f 6 111 104
f 6 104 99
f 6 99 93
f 6 93 89
f 6 89 88
f 6 88 84
f 6 84 83
f 6 83 77
f 6 77 78
f 6 78 71
f 6 71 65
f 6 65 61
f 6 61 57
f 6 57 52
f 6 52 51
f 6 51 49
f 6 49 43
f 6 43 38
f 6 38 34
f 6 34 29
f 6 29 24
f 6 24 18
f 6 18 17
f 6 17 13
f 7 14 8
f 8 15 16
f 8 14 17
f 8 17 18
f 8 18 15
f 9 19 20
f 9 20 10
f 9 21 19
f 10 20 22
f 10 22 11
f 13 17 14
f 15 18 23
f 15 23 24
f 15 24 16
f 16 24 25
f 18 24 23
f 19 21 27
f 19 27 28
f 19 28 26
f 24 29 30
f 24 30 25
f 26 28 32
f 26 32 33
f 26 33 31
f 29 34 35
f 29 35 30
f 31 33 36
f 33 37 36
f 34 38 39
f 34 39 35
f 36 37 40
f 37 41 42
f 37 42 40
f 38 43 39
f 39 43 45
f 39 45 44
f 41 46 47
f 41 47 42
f 42 47 48
f 43 49 45
f 44 45 50
f 45 49 51
f 45 51 52
f 45 52 50
f 46 53 59
f 46 59 54
f 46 54 47
f 47 54 55
f 47 55 48
f 50 52 57
f 50 57 56
f 53 58 63
f 53 63 59
f 56 57 61
f 56 61 60
f 58 62 63
f 60 61 65
f 60 65 64
f 62 66 67
f 62 67 68
f 62 68 63
f 64 65 70
f 64 70 69
f 65 71 70
f 66 72 67
f 67 73 74
f 67 74 75
f 67 75 68
f 67 72 73
f 69 70 77
f 69 77 76
f 70 71 78
f 70 78 77
f 72 79 80
f 72 80 81
f 72 81 73
f 76 77 83
f 76 83 84
f 76 84 82
f 79 85 86
f 79 86 80
f 82 84 88
f 82 88 89
f 82 89 87
f 85 90 91
f 85 91 86
f 87 89 92
f 89 93 92
f 90 94 91
f 91 95 96
f 91 94 97
f 91 97 95
f 92 93 98
f 93 99 100
f 93 100 101
f 93 101 98
f 94 102 97
f 95 97 96
f 96 97 102
f 96 102 103
f 99 104 105
f 99 105 100
f 100 105 106
f 102 107 108
f 102 108 109
f 102 109 103
f 103 109 110
f 104 111 105
f 105 111 106
f 106 111 113
f 106 113 114
f 106 114 112
f 107 115 116
f 107 116 114
f 107 114 110
f 107 110 109
f 107 109 108
f 112 114 116
f 112 116 115

