# https://github.com/mikedh/trimesh
v -0.00646695 -0.00672902 0.00373994
v -0.00646806 -0.00672902 0.00410978
v -0.00703527 -0.00824184 0.00417947
v -0.00703454 -0.00824184 0.00373994
v -0.00646695 -0.00672902 -0.00373994
v -0.00646842 -0.00672902 0.00417947
v -0.00704267 -0.00824184 0.00424917
v -0.00703454 -0.00824184 -0.00373994
v -0.00703490 -0.00824184 -0.00404233
v -0.00703527 -0.00824184 -0.00417947
v -0.00646842 -0.00672902 -0.00417947
v -0.00653568 -0.00672902 0.00450997
v -0.00701052 -0.00803243 0.00446388
v -0.00715094 -0.00824184 0.00461451
v -0.00712802 -0.00824184 -0.00453245
v -0.00701052 -0.00803243 -0.00446388
v -0.00653568 -0.00672902 -0.00450997
v -0.00653642 -0.00672902 0.00451334
v -0.00660700 -0.00672902 0.00463362
v -0.00665651 -0.00672902 0.00471006
v -0.00718604 -0.00824184 0.00466847
v -0.00715094 -0.00824184 -0.00461451
v -0.00653642 -0.00672902 -0.00451334
v -0.00681430 -0.00672902 0.00490566
v -0.00737967 -0.00824184 0.00493601
v -0.00737967 -0.00824184 -0.00493601
v -0.00665651 -0.00672902 -0.00471006
v -0.00743177 -0.00824184 0.00498772
v -0.00689116 -0.00672902 0.00497985
v -0.00782605 -0.00824184 0.00537104
v -0.00765718 -0.00824184 0.00520692
v -0.00689116 -0.00672902 -0.00497985
v -0.00782605 -0.00824184 -0.00537104
v -0.00708110 -0.00672902 0.00515296
v -0.00728470 -0.00672902 0.00533732
v -0.00735417 -0.00672902 0.00539914
v -0.00788666 -0.00824184 0.00542163
v -0.00735417 -0.00672902 -0.00539914
v -0.00811576 -0.00824184 -0.00559137
v -0.00759954 -0.00672902 0.00557675
v -0.00790957 -0.00708209 0.00572514
v -0.00816676 -0.00824184 0.00563071
v -0.00790957 -0.00708209 -0.00572514
v -0.00765644 -0.00672902 -0.00561497
v -0.00833600 -0.00824184 -0.00572963
v -0.00765644 -0.00672902 0.00561497
v -0.00782088 -0.00672902 0.00571390
v -0.00786301 -0.00672902 0.00572963
v -0.00833600 -0.00824184 0.00572963
v -0.00786301 -0.00672902 -0.00572963
v -0.00852482 -0.00824184 -0.00573863
v -0.00806255 -0.00672902 0.00573863
v -0.00839032 -0.00824184 0.00573301
v -0.00814015 -0.00682010 -0.00574088
v -0.00814015 -0.00672902 -0.00574088
v -0.00857988 -0.00824184 -0.00574088
v -0.00814015 -0.00672902 0.00574088
v -0.00814015 -0.00682010 0.00574088
v -0.00857988 -0.00824184 0.00574088
v -0.00857988 -0.00813995 -0.00574200
v -0.00857988 -0.00672902 -0.00574200
v -0.00897675 -0.00824184 -0.00573076
v -0.00848898 -0.00672902 0.00574200
v -0.00857988 -0.00813995 0.00574200
v -0.00866857 -0.00824184 0.00573863
v -0.00897675 -0.00672902 -0.00573076
v -0.00919662 -0.00824184 -0.00571615
v -0.00857988 -0.00672902 0.00574200
v -0.00896308 -0.00824184 0.00573076
v -0.00919662 -0.00672902 -0.00571615
v -0.00925094 -0.00672902 -0.00569703
v -0.00939875 -0.00824184 -0.00564420
v -0.00896308 -0.00672902 0.00573076
v -0.00901407 -0.00824184 0.00572739
v -0.00945972 -0.00672902 -0.00562172
v -0.00945972 -0.00824184 -0.00562172
v -0.00913749 -0.00672902 0.00571839
v -0.00918294 -0.00824184 0.00571502
v -0.00981742 -0.00672902 -0.00540476
v -0.00981742 -0.00824184 -0.00540476
v -0.00918294 -0.00672902 0.00571502
v -0.00924724 -0.00824184 0.00569366
v -0.00998629 -0.00824184 -0.00520017
v -0.01003728 -0.00672902 -0.00513835
v -0.00940244 -0.00672902 0.00564083
v -0.00945972 -0.00824184 0.00562060
v -0.01003728 -0.00824184 -0.00513835
v -0.01006204 -0.00672902 -0.00509338
v -0.00945972 -0.00672902 0.00562060
v -0.00974277 -0.00672902 0.00544973
v -0.00981668 -0.00824184 0.00540476
v -0.01012856 -0.00824184 -0.00496973
v -0.01015590 -0.00672902 -0.00491914
v -0.01015590 -0.00824184 -0.00491914
v -0.00981668 -0.00672902 0.00540476
v -0.00999109 -0.00672902 0.00519455
v -0.01003654 -0.00824184 0.00513947
v -0.01020283 -0.00824184 -0.00468870
v -0.01016846 -0.00672902 -0.00485732
v -0.01003654 -0.00672902 0.00513947
v -0.01015627 -0.00824184 0.00491915
v -0.01021687 -0.00672902 -0.00461900
v -0.01021687 -0.00824184 -0.00461900
v -0.01015627 -0.00672902 0.00491915
v -0.01020468 -0.00672902 0.00468196
v -0.01021724 -0.00824184 0.00461901
v -0.01024200 -0.00672902 -0.00417947
v -0.01024200 -0.00824184 -0.00417947
v -0.01021724 -0.00672902 0.00461901
v -0.01024200 -0.00824184 0.00417947
v -0.01024200 -0.00672902 0.00417947
f 1 2 3
f 1 3 4
f 1 4 8
f 1 8 5
f 1 5 11
f 1 11 17
f 1 17 23
f 1 23 27
f 1 27 32
f 1 32 38
f 1 38 44
f 1 44 50
f 1 50 55
f 1 55 61
f 1 61 66
f 1 66 70
f 1 70 71
f 1 71 75
f 1 75 79
f 1 79 84
f 1 84 88
f 1 88 93
f 1 93 99
f 1 99 102
f 1 102 107
f 1 107 111
f 1 111 109
f 1 109 105
f 1 105 104
f 1 104 100
f 1 100 96
f 1 96 95
f 1 95 90
f 1 90 89
f 1 89 85
f 1 85 81
f 1 81 77
f 1 77 73
f 1 73 68
f 1 68 63
f 1 63 57
f 1 57 52
f 1 52 48
f 1 48 47
f 1 47 46
f 1 46 40
f 1 40 36
f 1 36 35
f 1 35 34
f 1 34 29
f 1 29 24
f 1 24 20
f 1 20 19
f 1 19 18
f 1 18 12
f 1 12 6
f 1 6 2
f 2 6 3
f 3 6 7
f 3 7 14
f 3 14 21
f 3 21 25
f 3 25 28
f 3 28 31
f 3 31 30
f 3 30 37
f 3 37 42
f 3 42 49
f 3 49 53
f 3 53 59
f 3 59 65
f 3 65 69
f 3 69 74
f 3 74 78
f 3 78 82
f 3 82 86
f 3 86 91
f 3 91 97
f 3 97 101
f 3 101 106
f 3 106 110
f 3 110 108
f 3 108 103
f 3 103 98
f 3 98 94
f 3 94 92
f 3 92 87
f 3 87 83
f 3 83 80
f 3 80 76
f 3 76 72
f 3 72 67
f 3 67 62
f 3 62 56
f 3 56 51
f 3 51 45
f 3 45 39
f 3 39 33
f 3 33 26
f 3 26 22
f 3 22 15
f 3 15 10
f 3 10 9
f 3 9 8
f 3 8 4
f 5 8 9
f 5 9 10
f 5 10 11
f 6 12 7
f 7 12 13
f 7 13 14
f 10 15 16
f 10 16 11
f 11 16 17
f 12 18 13
f 13 18 14
f 14 18 19
f 14 19 20
f 14 20 21
f 15 22 16
f 16 22 23
f 16 23 17
f 20 24 25
f 20 25 21
f 22 26 27
f 22 27 23
f 24 28 25
f 24 29 30
f 24 30 31
f 24 31 28
f 26 32 27
f 26 33 32
f 29 34 30
f 30 35 36
f 30 36 37
f 30 34 35
f 32 33 38
f 33 39 38
f 36 40 41
f 36 41 42
f 36 42 37
f 38 39 43
f 38 43 44
f 39 45 43
f 40 46 41
f 41 47 48
f 41 48 49
f 41 49 42
f 41 46 47
f 43 45 50
f 43 50 44
f 45 51 50
f 48 52 53
f 48 53 49
f 50 51 54
f 50 54 55
f 51 56 54
f 52 57 58
f 52 58 53
f 53 58 59
f 54 56 60
f 54 60 61
f 54 61 55
f 56 62 60
f 57 63 58
f 58 63 64
f 58 64 59
f 59 64 65
f 60 62 66
f 60 66 61
f 62 67 70
f 62 70 66
f 63 68 64
f 64 68 73
f 64 73 69
f 64 69 65
f 67 71 70
f 67 72 71
f 69 73 74
f 71 72 75
f 72 76 75
f 73 77 74
f 74 77 78
f 75 76 80
f 75 80 79
f 77 81 78
f 78 81 82
f 79 80 83
f 79 83 84
f 81 85 82
f 82 85 86
f 83 87 84
f 84 87 88
f 85 89 86
f 86 89 90
f 86 90 91
f 87 92 88
f 88 92 94
f 88 94 93
f 90 95 91
f 91 95 96
f 91 96 97
f 93 94 98
f 93 98 99
f 96 100 97
f 97 100 104
f 97 104 101
f 98 102 99
f 98 103 102
f 101 104 105
f 101 105 106
f 102 103 108
f 102 108 107
f 105 109 106
f 106 109 111
f 106 111 110
f 107 108 110
f 107 110 111

