# https://github.com/mikedh/trimesh
v -0.00687386 0.00769796 0.00373994
v -0.00722267 0.00939224 0.00380739
v -0.00722300 0.00939224 0.00417947
v -0.00687518 0.00769796 0.00417947
v -0.00687386 0.00769796 -0.00373994
v -0.00722267 0.00939224 -0.00411203
v -0.00724147 0.00939224 0.00424692
v -0.00695859 0.00770011 0.00455156
v -0.00695826 0.00769796 0.00455156
v -0.00687518 0.00769796 -0.00417947
v -0.00722300 0.00939224 -0.00417947
v -0.00736082 0.00939224 0.00465273
v -0.00708486 0.00769796 0.00477189
v -0.00695760 0.00769796 -0.00454931
v -0.00695859 0.00770011 -0.00455156
v -0.00736082 0.00939224 -0.00465273
v -0.00744522 0.00939224 0.00479662
v -0.00747159 0.00935674 0.00484833
v -0.00752665 0.00939224 0.00490004
v -0.00730510 0.00770011 0.00500683
v -0.00730477 0.00769796 0.00500683
v -0.00695826 0.00769796 -0.00455156
v -0.00708486 0.00769796 -0.00477189
v -0.00747291 0.00939224 -0.00484608
v -0.00769216 0.00939224 0.00506753
v -0.00774260 0.00939224 0.00511811
v -0.00796514 0.00939224 0.00533507
v -0.00811548 0.00939224 0.00548008
v -0.00753489 0.00770011 0.00522715
v -0.00753456 0.00769796 0.00522715
v -0.00730477 0.00769796 -0.00500683
v -0.00730510 0.00770011 -0.00500683
v -0.00764138 0.00939224 -0.00501807
v -0.00819692 0.00939224 0.00555540
v -0.00775480 0.00770011 0.00543736
v -0.00775480 0.00769796 0.00543736
v -0.00753456 0.00769796 -0.00522715
v -0.00753489 0.00770011 -0.00522715
v -0.00805713 0.00939224 -0.00542612
v -0.00791371 0.00939224 -0.00528561
v -0.00838913 0.00939224 0.00571615
v -0.00836110 0.00923850 0.00571952
v -0.00808746 0.00769796 0.00565769
v -0.00775480 0.00769796 -0.00543736
v -0.00775480 0.00770011 -0.00543736
v -0.00811548 0.00939224 -0.00548008
v -0.00860672 0.00939224 0.00573076
v -0.00835187 0.00894512 0.00572514
v -0.00834330 0.00857992 0.00572851
v -0.00830736 0.00769796 0.00573076
v -0.00808746 0.00769796 -0.00565769
v -0.00836110 0.00923850 -0.00571952
v -0.00838913 0.00939224 -0.00571615
v -0.00895521 0.00939224 0.00573076
v -0.00857969 0.00857992 0.00573975
v -0.00853683 0.00906303 0.00573188
v -0.00833374 0.00814010 0.00573076
v -0.00857969 0.00814010 0.00574200
v -0.00857969 0.00769796 0.00574200
v -0.00830736 0.00769796 -0.00573076
v -0.00834330 0.00857992 -0.00572851
v -0.00835187 0.00894512 -0.00572514
v -0.00854177 0.00939224 -0.00572739
v -0.00895554 0.00901991 0.00573076
v -0.00898917 0.00939224 0.00572851
v -0.00895620 0.00770011 0.00573076
v -0.00895620 0.00769796 0.00573076
v -0.00857969 0.00769796 -0.00574200
v -0.00857969 0.00814010 -0.00574200
v -0.00833374 0.00814010 -0.00573076
v -0.00857969 0.00857992 -0.00573975
v -0.00853683 0.00906303 -0.00573188
v -0.00860672 0.00939224 -0.00573076
v -0.00917511 0.00939224 0.00571502
v -0.00917544 0.00901991 0.00571502
v -0.00917610 0.00814010 0.00571502
v -0.00917610 0.00769796 0.00571502
v -0.00897664 0.00769796 -0.00573076
v -0.00897664 0.00939224 -0.00573076
v -0.00945997 0.00939224 0.00562060
v -0.00945997 0.00769796 0.00562060
v -0.00919654 0.00769796 -0.00571615
v -0.00919654 0.00939224 -0.00571615
v -0.00981604 0.00939224 0.00540476
v -0.00981604 0.00769796 0.00540476
v -0.00941942 0.00939224 -0.00563633
v -0.00945997 0.00769796 -0.00562172
v -0.00984967 0.00939224 0.00536430
v -0.01003594 0.00769796 0.00513835
v -0.00945997 0.00814010 -0.00562172
v -0.00945997 0.00939224 -0.00562060
v -0.00981703 0.00769796 -0.00540364
v -0.00976197 0.00939224 -0.00543736
v -0.01003594 0.00939224 0.00513835
v -0.01015661 0.00814010 0.00491802
v -0.01015628 0.00769796 0.00491802
v -0.01003693 0.00769796 -0.00513835
v -0.01000297 0.00939224 -0.00517994
v -0.00981703 0.00939224 -0.00540364
v -0.01015661 0.00939224 0.00491802
v -0.01021760 0.00769796 0.00461901
v -0.01015595 0.00769796 -0.00491914
v -0.01003693 0.00939224 -0.00513835
v -0.01021760 0.00939224 0.00461901
v -0.01024200 0.00769796 0.00417947
v -0.01021694 0.00769796 -0.00461900
v -0.01015595 0.00939224 -0.00491914
v -0.01024200 0.00939224 0.00417947
v -0.01024200 0.00769796 -0.00417947
v -0.01021694 0.00939224 -0.00461900
v -0.01024200 0.00939224 -0.00417947
f 1 2 3
f 1 3 4
f 1 4 9
f 1 9 13
f 1 13 21
f 1 21 30
f 1 30 36
f 1 36 43
f 1 43 50
f 1 50 59
f 1 59 67
f 1 67 77
f 1 77 81
f 1 81 85
f 1 85 89
f 1 89 96
f 1 96 101
f 1 101 105
f 1 105 109
f 1 109 106
f 1 106 102
f 1 102 97
f 1 97 92
f 1 92 87
f 1 87 82
f 1 82 78
f 1 78 68
f 1 68 60
f 1 60 51
f 1 51 44
f 1 44 37
f 1 37 31
f 1 31 23
f 1 23 22
f 1 22 14
f 1 14 10
f 1 10 5
f 1 5 6
f 1 6 2
f 2 6 11
f 2 11 16
f 2 16 24
f 2 24 33
f 2 33 40
f 2 40 39
f 2 39 46
f 2 46 53
f 2 53 63
f 2 63 73
f 2 73 79
f 2 79 83
f 2 83 86
f 2 86 91
f 2 91 93
f 2 93 99
f 2 99 98
f 2 98 103
f 2 103 107
f 2 107 110
f 2 110 111
f 2 111 108
f 2 108 104
f 2 104 100
f 2 100 94
f 2 94 88
f 2 88 84
f 2 84 80
f 2 80 74
f 2 74 65
f 2 65 54
f 2 54 47
f 2 47 41
f 2 41 34
f 2 34 28
f 2 28 27
f 2 27 26
f 2 26 25
f 2 25 19
f 2 19 17
f 2 17 12
f 2 12 7
f 2 7 3
f 3 7 8
f 3 8 4
f 4 8 9
f 5 10 6
f 6 10 11
f 7 12 8
f 8 12 13
f 8 13 9
f 10 14 11
f 11 14 15
f 11 15 16
f 12 17 13
f 13 17 18
f 13 18 19
f 13 19 20
f 13 20 21
f 14 22 15
f 15 22 23
f 15 23 16
f 16 23 24
f 17 19 18
f 19 25 20
f 20 25 26
f 20 26 27
f 20 27 28
f 20 28 29
f 20 29 30
f 20 30 21
f 23 31 32
f 23 32 24
f 24 32 33
f 28 34 35
f 28 35 29
f 29 35 30
f 30 35 36
f 31 37 38
f 31 38 32
f 32 38 39
f 32 39 40
f 32 40 33
f 34 41 42
f 34 42 35
f 35 42 43
f 35 43 36
f 37 44 45
f 37 45 38
f 38 45 39
f 39 45 46
f 41 47 42
f 42 48 43
f 42 47 48
f 43 48 49
f 43 49 50
f 44 51 45
f 45 51 52
f 45 52 46
f 46 52 53
f 47 54 55
f 47 55 56
f 47 56 48
f 48 56 55
f 48 55 49
f 49 55 57
f 49 57 50
f 50 57 58
f 50 58 59
f 51 60 61
f 51 61 62
f 51 62 52
f 52 62 63
f 52 63 53
f 54 64 58
f 54 58 55
f 54 65 64
f 55 58 57
f 58 64 66
f 58 66 67
f 58 67 59
f 60 68 69
f 60 69 70
f 60 70 61
f 61 70 71
f 61 71 62
f 62 71 72
f 62 72 73
f 62 73 63
f 64 65 66
f 65 74 75
f 65 75 76
f 65 76 77
f 65 77 67
f 65 67 66
f 68 78 79
f 68 79 69
f 69 79 71
f 69 71 70
f 71 79 73
f 71 73 72
f 74 80 75
f 75 80 76
f 76 80 81
f 76 81 77
f 78 82 83
f 78 83 79
f 80 84 85
f 80 85 81
f 82 86 83
f 82 87 86
f 84 88 85
f 85 88 89
f 86 90 91
f 86 87 90
f 87 92 93
f 87 93 90
f 88 94 89
f 89 95 96
f 89 94 100
f 89 100 95
f 90 93 91
f 92 97 98
f 92 98 99
f 92 99 93
f 95 100 104
f 95 104 101
f 95 101 96
f 97 102 107
f 97 107 103
f 97 103 98
f 101 104 108
f 101 108 105
f 102 106 110
f 102 110 107
f 105 108 111
f 105 111 109
f 106 109 111
f 106 111 110

