# https://github.com/mikedh/trimesh
v -0.00528758 0.01496355 -0.00373994
v -0.00528758 0.01496569 -0.00417947
v -0.00341777 0.01639345 -0.00417947
v -0.00341777 0.01639274 -0.00392880
v -0.00528758 0.01496355 0.00373994
v -0.00528758 0.01508823 -0.00450434
v -0.00341777 0.01653238 -0.00463587
v -0.00341777 0.01643263 -0.00430987
v -0.00341777 0.01639274 0.00398950
v -0.00341777 0.01639345 0.00417947
v -0.00528758 0.01496569 0.00417947
v -0.00528758 0.01513382 -0.00461900
v -0.00341777 0.01666489 -0.00482022
v -0.00341777 0.01653238 0.00463587
v -0.00528758 0.01513382 0.00461901
v -0.00528758 0.01534970 -0.00487081
v -0.00344943 0.01668484 -0.00487081
v -0.00341777 0.01675039 -0.00491577
v -0.00341777 0.01669268 0.00486182
v -0.00528758 0.01527133 0.00478425
v -0.00528758 0.01561687 -0.00506640
v -0.00341777 0.01747567 -0.00554191
v -0.00341777 0.01737735 -0.00546771
v -0.00341777 0.01723628 -0.00534856
v -0.00341777 0.01692850 -0.00507652
v -0.00341777 0.01675039 0.00491577
v -0.00528758 0.01534970 0.00487081
v -0.00528758 0.01612129 -0.00542837
v -0.00341777 0.01768727 -0.00569141
v -0.00341777 0.01687008 0.00502594
v -0.00341777 0.01730040 0.00541039
v -0.00528758 0.01544089 0.00494388
v -0.00528758 0.01643192 -0.00562060
v -0.00356164 0.01764167 -0.00571502
v -0.00341777 0.01790457 -0.00573076
v -0.00341777 0.01737735 0.00546772
v -0.00528758 0.01577432 0.00518556
v -0.00528758 0.01667131 -0.00572739
v -0.00439578 0.01715791 -0.00572064
v -0.00528758 0.01695130 -0.00573750
v -0.00341777 0.01826008 -0.00574200
v -0.00341777 0.01768727 0.00569142
v -0.00528758 0.01612129 0.00542837
v -0.00528758 0.01738020 -0.00574200
v -0.00505987 0.01738020 -0.00574200
v -0.00418015 0.01782050 -0.00574200
v -0.00341777 0.02045943 -0.00574200
v -0.00341777 0.01780839 0.00572401
v -0.00356164 0.01764167 0.00571502
v -0.00528758 0.01643192 0.00562060
v -0.00528758 0.01626378 0.00552055
v -0.00528758 0.02045943 -0.00574200
v -0.00341777 0.02057699 -0.00574088
v -0.00528758 0.01667131 0.00572739
v -0.00439578 0.01715791 0.00572064
v -0.00341777 0.01790457 0.00573076
v -0.00528758 0.01661573 0.00570940
v -0.00528758 0.02068742 -0.00573975
v -0.00341777 0.02089973 -0.00573750
v -0.00528758 0.01676392 0.00573301
v -0.00341777 0.01813184 0.00573863
v -0.00528758 0.02089973 -0.00573750
v -0.00528758 0.02102726 -0.00573188
v -0.00341777 0.02114695 -0.00572626
v -0.00341777 0.01826008 0.00574200
v -0.00528758 0.01695130 0.00573750
v -0.00528758 0.02114695 -0.00572626
v -0.00341777 0.02120538 -0.00570940
v -0.00341777 0.02045943 0.00574200
v -0.00528758 0.01715293 0.00574200
v -0.00528758 0.02126095 -0.00569254
v -0.00528758 0.02136710 -0.00566106
v -0.00341777 0.02136710 -0.00566106
v -0.00528758 0.02045943 0.00574200
v -0.00341777 0.02089973 0.00573863
v -0.00528758 0.02157015 -0.00554753
v -0.00341777 0.02147183 -0.00560261
v -0.00528758 0.02089973 0.00573863
v -0.00341777 0.02114909 0.00572739
v -0.00528758 0.02175967 -0.00544074
v -0.00341777 0.02175967 -0.00544074
v -0.00374011 0.02114909 0.00572739
v -0.00528758 0.02114838 0.00572739
v -0.00341777 0.02131011 0.00567905
v -0.00528758 0.02187295 -0.00534294
v -0.00418015 0.02197981 -0.00525076
v -0.00341777 0.02197981 -0.00525076
v -0.00528758 0.02136853 0.00566106
v -0.00341777 0.02136853 0.00566106
v -0.00528758 0.02197910 -0.00525076
v -0.00528758 0.02209595 -0.00503043
v -0.00341777 0.02209595 -0.00503043
v -0.00528758 0.02155733 0.00555540
v -0.00341777 0.02165565 0.00550032
v -0.00528758 0.02215864 -0.00481797
v -0.00341777 0.02221706 -0.00461900
v -0.00528758 0.02176038 0.00544074
v -0.00341777 0.02176038 0.00544074
v -0.00528758 0.02221706 -0.00461900
v -0.00341777 0.02224200 -0.00417947
v -0.00528758 0.02186653 0.00534968
v -0.00341777 0.02198053 0.00525188
v -0.00528758 0.02224200 -0.00417947
v -0.00341777 0.02224200 0.00417947
v -0.00528758 0.02198053 0.00525188
v -0.00341777 0.02209595 0.00503156
v -0.00528758 0.02224200 0.00417947
v -0.00528758 0.02222917 0.00440655
v -0.00341777 0.02221706 0.00461901
v -0.00528758 0.02209595 0.00503156
v -0.00528758 0.02215437 0.00483259
v -0.00528758 0.02221706 0.00461901
f 1 2 3
f 1 3 4
f 1 4 9
f 1 9 5
f 1 5 11
f 1 11 15
f 1 15 20
f 1 20 27
f 1 27 32
f 1 32 37
f 1 37 43
f 1 43 51
f 1 51 50
f 1 50 57
f 1 57 54
f 1 54 60
f 1 60 66
f 1 66 70
f 1 70 74
f 1 74 78
f 1 78 83
f 1 83 88
f 1 88 93
f 1 93 97
f 1 97 101
f 1 101 105
f 1 105 110
f 1 110 111
f 1 111 112
f 1 112 108
f 1 108 107
f 1 107 103
f 1 103 99
f 1 99 95
f 1 95 91
f 1 91 90
f 1 90 85
f 1 85 80
f 1 80 76
f 1 76 72
f 1 72 71
f 1 71 67
f 1 67 63
f 1 63 62
f 1 62 58
f 1 58 52
f 1 52 44
f 1 44 40
f 1 40 38
f 1 38 33
f 1 33 28
f 1 28 21
f 1 21 16
f 1 16 12
f 1 12 6
f 1 6 2
f 2 6 7
f 2 7 8
f 2 8 3
f 3 8 7
f 3 7 13
f 3 13 18
f 3 18 25
f 3 25 24
f 3 24 23
f 3 23 22
f 3 22 29
f 3 29 35
f 3 35 41
f 3 41 47
f 3 47 53
f 3 53 59
f 3 59 64
f 3 64 68
f 3 68 73
f 3 73 77
f 3 77 81
f 3 81 87
f 3 87 92
f 3 92 96
f 3 96 100
f 3 100 104
f 3 104 109
f 3 109 106
f 3 106 102
f 3 102 98
f 3 98 94
f 3 94 89
f 3 89 84
f 3 84 79
f 3 79 75
f 3 75 69
f 3 69 65
f 3 65 61
f 3 61 56
f 3 56 48
f 3 48 42
f 3 42 36
f 3 36 31
f 3 31 30
f 3 30 26
f 3 26 19
f 3 19 14
f 3 14 10
f 3 10 9
f 3 9 4
f 5 9 10
f 5 10 11
f 6 12 7
f 7 12 13
f 10 14 11
f 11 14 15
f 12 16 17
f 12 17 13
f 13 17 18
f 14 19 15
f 15 19 20
f 16 18 17
f 16 21 22
f 16 22 23
f 16 23 24
f 16 24 25
f 16 25 18
f 19 26 27
f 19 27 20
f 21 28 22
f 22 28 29
f 26 30 27
f 27 30 31
f 27 31 32
f 28 33 29
f 29 34 35
f 29 33 34
f 31 36 32
f 32 36 37
f 33 38 39
f 33 39 34
f 34 39 35
f 35 39 38
f 35 38 40
f 35 40 41
f 36 42 37
f 37 42 43
f 40 44 45
f 40 45 46
f 40 46 41
f 41 46 45
f 41 45 44
f 41 44 52
f 41 52 47
f 42 48 49
f 42 49 50
f 42 50 51
f 42 51 43
f 47 52 53
f 48 54 55
f 48 55 49
f 48 56 54
f 49 55 50
f 50 55 57
f 52 58 53
f 53 58 59
f 54 57 55
f 54 56 60
f 56 61 60
f 58 62 59
f 59 62 63
f 59 63 64
f 60 61 65
f 60 65 66
f 63 67 64
f 64 67 68
f 65 69 74
f 65 74 70
f 65 70 66
f 67 71 68
f 68 71 72
f 68 72 73
f 69 75 78
f 69 78 74
f 72 76 77
f 72 77 73
f 75 79 82
f 75 82 78
f 76 80 81
f 76 81 77
f 78 82 83
f 79 84 82
f 80 85 86
f 80 86 87
f 80 87 81
f 82 84 83
f 83 84 88
f 84 89 88
f 85 90 86
f 86 90 91
f 86 91 92
f 86 92 87
f 88 89 93
f 89 94 93
f 91 95 92
f 92 95 96
f 93 94 97
f 94 98 97
f 95 99 96
f 96 99 103
f 96 103 100
f 97 98 101
f 98 102 101
f 100 103 107
f 100 107 104
f 101 102 105
f 102 106 110
f 102 110 105
f 104 107 108
f 104 108 109
f 106 109 111
f 106 111 110
f 108 112 109
f 109 112 111

