# https://github.com/mikedh/trimesh
v -0.00398761 -0.00394219 -0.00373994
v -0.00398761 -0.00394064 -0.00417947
v -0.00242089 -0.00316502 -0.00418060
v -0.00242089 -0.00316579 -0.00373994
v -0.00398761 -0.00394219 0.00373994
v -0.00242089 -0.00312180 -0.00448074
v -0.00398761 -0.00379169 -0.00464598
v -0.00242089 -0.00316579 0.00373882
v -0.00242089 -0.00316502 0.00417835
v -0.00398761 -0.00394064 0.00417947
v -0.00242089 -0.00299523 -0.00470107
v -0.00398761 -0.00359103 -0.00489891
v -0.00242089 -0.00312257 0.00448074
v -0.00398761 -0.00379169 0.00464598
v -0.00242089 -0.00277528 -0.00496861
v -0.00398761 -0.00334098 -0.00511362
v -0.00242089 -0.00232456 -0.00539802
v -0.00242089 -0.00254452 -0.00518893
v -0.00242089 -0.00299600 0.00470107
v -0.00398761 -0.00368056 0.00479324
v -0.00398761 -0.00322367 -0.00521366
v -0.00398761 -0.00284628 -0.00551493
v -0.00310625 -0.00217330 -0.00571727
v -0.00242089 -0.00201045 -0.00561835
v -0.00398761 -0.00311177 -0.00530697
v -0.00242089 -0.00277605 0.00496748
v -0.00398761 -0.00359103 0.00489891
v -0.00398761 -0.00256458 -0.00570490
v -0.00339948 -0.00221806 -0.00572626
v -0.00242089 -0.00179127 -0.00573076
v -0.00242089 -0.00254529 0.00518781
v -0.00242089 -0.00232533 0.00539690
v -0.00398761 -0.00348221 0.00499559
v -0.00398761 -0.00236006 -0.00573188
v -0.00242089 -0.00153968 -0.00574200
v -0.00242089 -0.00201200 0.00561722
v -0.00310625 -0.00217330 0.00571727
v -0.00398761 -0.00284628 0.00551493
v -0.00398761 -0.00302841 0.00538341
v -0.00398761 -0.00197958 -0.00574200
v -0.00373994 -0.00197958 -0.00574200
v -0.00242089 0.00153968 -0.00574200
v -0.00242089 -0.00179127 0.00573076
v -0.00339948 -0.00221806 0.00572626
v -0.00398761 -0.00253603 0.00571390
v -0.00398761 -0.00256458 0.00570490
v -0.00398761 -0.00268498 0.00562509
v -0.00398761 0.00197958 -0.00574200
v -0.00373994 0.00197958 -0.00574200
v -0.00398761 0.00223349 -0.00573638
v -0.00398761 0.00236006 -0.00573188
v -0.00242089 0.00179127 -0.00573076
v -0.00242089 -0.00154045 0.00574088
v -0.00398761 -0.00236006 0.00573188
v -0.00398761 0.00253603 -0.00571390
v -0.00339948 0.00221806 -0.00572626
v -0.00310625 0.00217330 -0.00571727
v -0.00242089 0.00201123 -0.00561835
v -0.00242089 -0.00110054 0.00574200
v -0.00286011 -0.00153968 0.00574200
v -0.00373994 -0.00197958 0.00574200
v -0.00398761 -0.00223349 0.00573638
v -0.00398761 0.00256458 -0.00570490
v -0.00398761 0.00268498 -0.00562509
v -0.00398761 0.00284628 -0.00551493
v -0.00242089 0.00232456 -0.00539802
v -0.00242089 0.00153890 0.00574200
v -0.00398761 -0.00197958 0.00574200
v -0.00398761 0.00302841 -0.00538341
v -0.00398761 0.00348221 -0.00499558
v -0.00398761 0.00359103 -0.00489891
v -0.00242089 0.00254452 -0.00518893
v -0.00373994 0.00197958 0.00574200
v -0.00242089 0.00179127 0.00573076
v -0.00398761 0.00236006 0.00573188
v -0.00398761 0.00197958 0.00574200
v -0.00242089 0.00277528 -0.00496861
v -0.00398761 0.00368056 -0.00479324
v -0.00310625 0.00217330 0.00571727
v -0.00339948 0.00221806 0.00572626
v -0.00242089 0.00201045 0.00561835
v -0.00398761 0.00256458 0.00570490
v -0.00242089 0.00299600 -0.00470107
v -0.00398761 0.00379169 -0.00464598
v -0.00242089 0.00232456 0.00539802
v -0.00398761 0.00284628 0.00551493
v -0.00242089 0.00312180 -0.00448074
v -0.00398761 0.00394064 -0.00417947
v -0.00242089 0.00254452 0.00518893
v -0.00398761 0.00359103 0.00489891
v -0.00398761 0.00334098 0.00511362
v -0.00398761 0.00322367 0.00521366
v -0.00398761 0.00311177 0.00530697
v -0.00242089 0.00316502 -0.00417947
v -0.00398761 0.00394142 -0.00374107
v -0.00398700 0.00394142 -0.00373994
v -0.00242089 0.00277528 0.00496861
v -0.00398761 0.00379169 0.00464598
v -0.00242089 0.00299523 0.00470107
v -0.00242089 0.00316579 -0.00373994
v -0.00398761 0.00394219 -0.00330041
v -0.00398761 0.00394064 0.00417947
v -0.00242089 0.00312180 0.00448074
v -0.00242089 0.00316579 0.00373994
v -0.00398761 0.00394219 0.00373882
v -0.00242089 0.00316502 0.00417947
f 1 2 3
f 1 3 4
f 1 4 8
f 1 8 5
f 1 5 10
f 1 10 14
f 1 14 20
f 1 20 27
f 1 27 33
f 1 33 39
f 1 39 38
f 1 38 47
f 1 47 46
f 1 46 45
f 1 45 54
f 1 54 62
f 1 62 68
f 1 68 76
f 1 76 75
f 1 75 82
f 1 82 86
f 1 86 93
f 1 93 92
f 1 92 91
f 1 91 90
f 1 90 98
f 1 98 102
f 1 102 105
f 1 105 101
f 1 101 95
f 1 95 88
f 1 88 84
f 1 84 78
f 1 78 71
f 1 71 70
f 1 70 69
f 1 69 65
f 1 65 64
f 1 64 63
f 1 63 55
f 1 55 51
f 1 51 50
f 1 50 48
f 1 48 40
f 1 40 34
f 1 34 28
f 1 28 22
f 1 22 25
f 1 25 21
f 1 21 16
f 1 16 12
f 1 12 7
f 1 7 2
f 2 6 3
f 2 7 6
f 3 6 11
f 3 11 15
f 3 15 18
f 3 18 17
f 3 17 24
f 3 24 30
f 3 30 35
f 3 35 42
f 3 42 52
f 3 52 58
f 3 58 66
f 3 66 72
f 3 72 77
f 3 77 83
f 3 83 87
f 3 87 94
f 3 94 100
f 3 100 104
f 3 104 106
f 3 106 103
f 3 103 99
f 3 99 97
f 3 97 89
f 3 89 85
f 3 85 81
f 3 81 74
f 3 74 67
f 3 67 59
f 3 59 53
f 3 53 43
f 3 43 36
f 3 36 32
f 3 32 31
f 3 31 26
f 3 26 19
f 3 19 13
f 3 13 9
f 3 9 8
f 3 8 4
f 5 8 9
f 5 9 10
f 6 7 11
f 7 12 11
f 9 13 10
f 10 13 14
f 11 12 15
f 12 16 17
f 12 17 18
f 12 18 15
f 13 19 14
f 14 19 20
f 16 21 17
f 17 22 23
f 17 23 24
f 17 21 25
f 17 25 22
f 19 26 20
f 20 26 27
f 22 28 23
f 23 28 29
f 23 29 30
f 23 30 24
f 26 31 27
f 27 31 32
f 27 32 33
f 28 34 29
f 29 34 30
f 30 34 35
f 32 36 37
f 32 37 38
f 32 38 39
f 32 39 33
f 34 40 41
f 34 41 35
f 35 41 40
f 35 40 48
f 35 48 49
f 35 49 42
f 36 43 37
f 37 43 44
f 37 44 45
f 37 45 46
f 37 46 47
f 37 47 38
f 42 49 50
f 42 50 51
f 42 51 52
f 43 53 54
f 43 54 44
f 44 54 45
f 48 50 49
f 51 55 56
f 51 56 52
f 52 56 57
f 52 57 58
f 53 59 60
f 53 60 61
f 53 61 62
f 53 62 54
f 55 63 57
f 55 57 56
f 57 63 64
f 57 64 65
f 57 65 66
f 57 66 58
f 59 67 73
f 59 73 76
f 59 76 68
f 59 68 61
f 59 61 60
f 61 68 62
f 65 69 66
f 66 69 70
f 66 70 71
f 66 71 72
f 67 74 75
f 67 75 73
f 71 77 72
f 71 78 77
f 73 75 76
f 74 79 80
f 74 80 75
f 74 81 79
f 75 80 82
f 77 78 83
f 78 84 83
f 79 82 80
f 79 81 85
f 79 85 86
f 79 86 82
f 83 84 87
f 84 88 87
f 85 89 90
f 85 90 91
f 85 91 92
f 85 92 93
f 85 93 86
f 87 88 94
f 88 95 96
f 88 96 94
f 89 97 90
f 90 97 99
f 90 99 98
f 94 96 100
f 95 101 96
f 96 101 100
f 98 99 103
f 98 103 102
f 100 101 105
f 100 105 104
f 102 103 106
f 102 106 105
f 104 105 106

