# https://github.com/mikedh/trimesh
v 0.00198427 0.01697397 -0.00373994
v 0.00026716 0.01724418 -0.00417947
v 0.00198427 0.01697500 -0.00417947
v 0.00198427 0.01697397 0.00373994
v 0.00026716 0.01736433 -0.00461900
v 0.00198427 0.01706628 -0.00456730
v 0.00026716 0.01724418 0.00417947
v 0.00198427 0.01697500 0.00417947
v 0.00026716 0.01752212 -0.00486631
v 0.00198427 0.01719210 -0.00479212
v 0.00198427 0.01706782 -0.00457179
v 0.00198427 0.01706782 0.00457179
v 0.00026716 0.01725707 0.00422669
v 0.00026716 0.01754223 -0.00489779
v 0.00198427 0.01740816 -0.00501807
v 0.00198427 0.01719210 0.00479212
v 0.00026716 0.01736433 0.00461901
v 0.00026716 0.01795889 -0.00531371
v 0.00026716 0.01798261 -0.00533732
v 0.00198427 0.01763660 -0.00523952
v 0.00026716 0.01754223 0.00489779
v 0.00198427 0.01741641 0.00502594
v 0.00026716 0.01821260 -0.00553404
v 0.00198427 0.01785885 -0.00545423
v 0.00026716 0.01798261 0.00533732
v 0.00198427 0.01764124 0.00524402
v 0.00026716 0.01824096 -0.00555764
v 0.00026716 0.01843743 -0.00571277
v 0.00026716 0.01846115 -0.00573076
v 0.00198427 0.01818991 -0.00567230
v 0.00198427 0.01785885 0.00545423
v 0.00026716 0.01824096 0.00555764
v 0.00198427 0.01841268 -0.00573076
v 0.00198427 0.01819300 -0.00567343
v 0.00026716 0.01870042 -0.00574088
v 0.00110017 0.01870042 -0.00574200
v 0.00198427 0.01819300 0.00567343
v 0.00026716 0.01846115 0.00573076
v 0.00198427 0.01870042 -0.00574200
v 0.00026716 0.01914028 -0.00574200
v 0.00198427 0.01841268 0.00573076
v 0.00026716 0.01848693 0.00573188
v 0.00198427 0.02045986 -0.00574200
v 0.00026716 0.02045986 -0.00574200
v 0.00198427 0.01870042 0.00574200
v 0.00110017 0.01870042 0.00574200
v 0.00026716 0.01870042 0.00574088
v 0.00198427 0.02089973 -0.00573750
v 0.00026716 0.02089973 -0.00573750
v 0.00198427 0.02045986 0.00574200
v 0.00026716 0.01914028 0.00574200
v 0.00198427 0.02114724 -0.00572626
v 0.00026716 0.02114724 -0.00572626
v 0.00026716 0.02045986 0.00574200
v 0.00198427 0.02090230 0.00573863
v 0.00198427 0.02136485 -0.00566219
v 0.00026716 0.02136692 -0.00566106
v 0.00026716 0.02089973 0.00573863
v 0.00198427 0.02115137 0.00572626
v 0.00197990 0.02114931 0.00572739
v 0.00026716 0.02114931 0.00572739
v 0.00026716 0.02092654 0.00573750
v 0.00197990 0.02136692 -0.00566106
v 0.00198427 0.02175985 -0.00544074
v 0.00026716 0.02175985 -0.00544074
v 0.00198427 0.02136898 0.00566106
v 0.00026716 0.02117251 0.00572064
v 0.00197990 0.02197953 -0.00525076
v 0.00198427 0.02197746 -0.00525188
v 0.00026716 0.02197953 -0.00525076
v 0.00198427 0.02137311 0.00565882
v 0.00026716 0.02136898 0.00566106
v 0.00198427 0.02209504 -0.00503268
v 0.00026716 0.02208369 -0.00505404
v 0.00026716 0.02141126 0.00563746
v 0.00198427 0.02176295 0.00543961
v 0.00026716 0.02209607 -0.00503043
v 0.00197990 0.02209607 -0.00503043
v 0.00198427 0.02221725 -0.00461900
v 0.00026716 0.02176037 0.00544074
v 0.00198427 0.02198056 0.00525188
v 0.00026716 0.02198056 0.00525188
v 0.00026716 0.02178409 0.00542050
v 0.00026716 0.02221725 -0.00461900
v 0.00198427 0.02224148 -0.00418397
v 0.00198427 0.02209607 0.00503156
v 0.00026716 0.02209607 0.00503156
v 0.00026716 0.02223891 -0.00422669
v 0.00026716 0.02224148 -0.00417947
v 0.00198427 0.02224148 0.00417947
v 0.00198427 0.02209710 0.00502818
v 0.00026716 0.02210896 0.00498772
v 0.00026716 0.02224148 0.00417947
v 0.00198427 0.02221725 0.00461901
v 0.00026716 0.02221725 0.00461901
f 1 2 3
f 1 3 6
f 1 6 11
f 1 11 10
f 1 10 15
f 1 15 20
f 1 20 24
f 1 24 30
f 1 30 34
f 1 34 33
f 1 33 39
f 1 39 43
f 1 43 48
f 1 48 52
f 1 52 56
f 1 56 64
f 1 64 69
f 1 69 73
f 1 73 79
f 1 79 85
f 1 85 90
f 1 90 94
f 1 94 91
f 1 91 86
f 1 86 81
f 1 81 76
f 1 76 71
f 1 71 66
f 1 66 59
f 1 59 55
f 1 55 50
f 1 50 45
f 1 45 41
f 1 41 37
f 1 37 31
f 1 31 26
f 1 26 22
f 1 22 16
f 1 16 12
f 1 12 8
f 1 8 4
f 1 4 7
f 1 7 2
f 2 5 6
f 2 6 3
f 2 7 13
f 2 13 17
f 2 17 21
f 2 21 25
f 2 25 32
f 2 32 38
f 2 38 42
f 2 42 47
f 2 47 51
f 2 51 54
f 2 54 58
f 2 58 62
f 2 62 61
f 2 61 67
f 2 67 72
f 2 72 75
f 2 75 80
f 2 80 83
f 2 83 82
f 2 82 87
f 2 87 92
f 2 92 95
f 2 95 93
f 2 93 89
f 2 89 88
f 2 88 84
f 2 84 77
f 2 77 74
f 2 74 70
f 2 70 65
f 2 65 57
f 2 57 53
f 2 53 49
f 2 49 44
f 2 44 40
f 2 40 35
f 2 35 29
f 2 29 28
f 2 28 27
f 2 27 23
f 2 23 19
f 2 19 18
f 2 18 14
f 2 14 9
f 2 9 5
f 4 8 7
f 5 9 10
f 5 10 11
f 5 11 6
f 7 8 12
f 7 12 13
f 9 14 10
f 10 14 15
f 12 16 17
f 12 17 13
f 14 18 15
f 15 18 19
f 15 19 20
f 16 21 17
f 16 22 21
f 19 23 24
f 19 24 20
f 21 22 25
f 22 26 25
f 23 27 24
f 24 27 28
f 24 28 29
f 24 29 30
f 25 26 31
f 25 31 32
f 29 33 34
f 29 34 30
f 29 35 36
f 29 36 33
f 31 37 38
f 31 38 32
f 33 36 39
f 35 40 36
f 36 40 44
f 36 44 43
f 36 43 39
f 37 41 38
f 38 41 42
f 41 45 46
f 41 46 42
f 42 46 47
f 43 44 49
f 43 49 48
f 45 50 54
f 45 54 51
f 45 51 46
f 46 51 47
f 48 49 53
f 48 53 52
f 50 55 54
f 52 53 56
f 53 57 56
f 54 55 58
f 55 59 60
f 55 60 61
f 55 61 62
f 55 62 58
f 56 57 63
f 56 63 64
f 57 65 64
f 57 64 63
f 59 66 60
f 60 66 67
f 60 67 61
f 64 65 70
f 64 70 68
f 64 68 69
f 66 71 72
f 66 72 67
f 68 70 73
f 68 73 69
f 70 74 73
f 71 75 72
f 71 76 75
f 73 74 77
f 73 77 78
f 73 78 79
f 75 76 80
f 76 81 82
f 76 82 83
f 76 83 80
f 77 84 79
f 77 79 78
f 79 84 85
f 81 86 87
f 81 87 82
f 84 88 85
f 85 88 89
f 85 89 93
f 85 93 90
f 86 91 87
f 87 91 92
f 90 93 95
f 90 95 94
f 91 95 92
f 91 94 95

