# https://github.com/mikedh/trimesh
v -0.00651363 -0.01317752 0.00373994
v -0.00707566 -0.01159146 0.00417835
v -0.00651473 -0.01317752 0.00417947
v -0.00651363 -0.01317752 -0.00373994
v -0.00707676 -0.01159146 0.00418285
v -0.00702895 -0.01183399 0.00442566
v -0.00656984 -0.01313420 0.00446163
v -0.00707566 -0.01159146 -0.00418060
v -0.00656071 -0.01317752 0.00448186
v -0.00651436 -0.01317752 -0.00407381
v -0.00715814 -0.01159146 0.00451446
v -0.00718077 -0.01159146 0.00459652
v -0.00651473 -0.01317752 -0.00417947
v -0.00654246 -0.01317752 -0.00441891
v -0.00702895 -0.01183399 -0.00442566
v -0.00718077 -0.01159146 -0.00459652
v -0.00668808 -0.01317752 0.00469545
v -0.00739901 -0.01159146 0.00491915
v -0.00656071 -0.01317752 -0.00448186
v -0.00656984 -0.01313420 -0.00446163
v -0.00663589 -0.01317752 -0.00461226
v -0.00721142 -0.01159146 -0.00464598
v -0.00689391 -0.01317752 0.00494500
v -0.00780885 -0.01159146 0.00532046
v -0.00668808 -0.01317752 -0.00469544
v -0.00739901 -0.01159146 -0.00491914
v -0.00784352 -0.01159146 0.00535418
v -0.00737127 -0.01317752 0.00537779
v -0.00677968 -0.01317752 -0.00482135
v -0.00689391 -0.01317752 -0.00494500
v -0.00765776 -0.01159146 -0.00517320
v -0.00811906 -0.01159146 0.00557451
v -0.00794170 -0.01278143 0.00571727
v -0.00769243 -0.01317752 0.00561722
v -0.00703150 -0.01317752 -0.00507090
v -0.00784352 -0.01159146 -0.00535418
v -0.00833913 -0.01159146 0.00572963
v -0.00790338 -0.01307473 0.00572626
v -0.00789279 -0.01317752 0.00572739
v -0.00727237 -0.01317752 -0.00528898
v -0.00788221 -0.01159146 -0.00538903
v -0.00857964 -0.01159146 0.00574088
v -0.00833767 -0.01166009 0.00573076
v -0.00797381 -0.01317752 0.00573076
v -0.00737127 -0.01317752 -0.00537779
v -0.00753185 -0.01317752 -0.00551043
v -0.00815337 -0.01159146 -0.00560373
v -0.00896284 -0.01159146 0.00573076
v -0.00857964 -0.01210012 0.00574200
v -0.00812417 -0.01317752 0.00573638
v -0.00769243 -0.01317752 -0.00561722
v -0.00794170 -0.01278143 -0.00571727
v -0.00833913 -0.01159146 -0.00572963
v -0.00914860 -0.01159146 0.00571839
v -0.00896284 -0.01317752 0.00573076
v -0.00857964 -0.01317752 0.00574200
v -0.00782747 -0.01317752 -0.00570266
v -0.00790338 -0.01307473 -0.00572626
v -0.00789279 -0.01317752 -0.00572739
v -0.00833767 -0.01166009 -0.00573076
v -0.00837563 -0.01159146 -0.00573188
v -0.00918290 -0.01159146 0.00571502
v -0.00918290 -0.01317752 0.00571502
v -0.00906174 -0.01317752 0.00572401
v -0.00799242 -0.01317752 -0.00573188
v -0.00857964 -0.01159146 -0.00574088
v -0.00945990 -0.01159146 0.00562060
v -0.00930735 -0.01317752 0.00567343
v -0.00812417 -0.01317752 -0.00573638
v -0.00864168 -0.01159146 -0.00573975
v -0.00838220 -0.01317752 -0.00574200
v -0.00857964 -0.01210012 -0.00574200
v -0.00981683 -0.01159146 0.00540476
v -0.00962012 -0.01317752 0.00552392
v -0.00945990 -0.01317752 0.00562060
v -0.00897671 -0.01159146 -0.00573076
v -0.00857964 -0.01317752 -0.00574200
v -0.00991573 -0.01317752 0.00528561
v -0.00981683 -0.01317752 0.00540476
v -0.01003690 -0.01159146 0.00513947
v -0.00909787 -0.01317752 -0.00572289
v -0.00901101 -0.01159146 -0.00572851
v -0.00897671 -0.01317752 -0.00573076
v -0.01003690 -0.01317752 0.00513947
v -0.01013762 -0.01159146 0.00495399
v -0.00919677 -0.01317752 -0.00571615
v -0.00919677 -0.01159146 -0.00571615
v -0.01009054 -0.01317752 0.00504055
v -0.01015624 -0.01159146 0.00491915
v -0.01015624 -0.01317752 0.00491915
v -0.00934166 -0.01317752 -0.00566444
v -0.00923765 -0.01159146 -0.00570153
v -0.01020769 -0.01159146 0.00466622
v -0.01021718 -0.01317752 0.00461901
v -0.00945990 -0.01317752 -0.00562172
v -0.00945990 -0.01159146 -0.00562172
v -0.01021718 -0.01159146 0.00461901
v -0.01024200 -0.01317752 0.00417947
v -0.00951574 -0.01159146 -0.00558800
v -0.00981756 -0.01317752 -0.00540476
v -0.01024200 -0.01159146 0.00417947
v -0.01024200 -0.01317752 -0.00417947
v -0.00981756 -0.01159146 -0.00540476
v -0.00993872 -0.01317752 -0.00525863
v -0.01024200 -0.01159146 -0.00417947
v -0.01022083 -0.01159146 -0.00455043
v -0.01023069 -0.01317752 -0.00437732
v -0.01003763 -0.01159146 -0.00513835
v -0.01003763 -0.01317752 -0.00513835
v -0.01021682 -0.01159146 -0.00461900
v -0.01021682 -0.01317752 -0.00461900
v -0.01005587 -0.01159146 -0.00510462
v -0.01010259 -0.01317752 -0.00501807
v -0.01015587 -0.01159146 -0.00491914
v -0.01018945 -0.01317752 -0.00475390
v -0.01015587 -0.01317752 -0.00491914
f 1 2 3
f 1 3 9
f 1 9 17
f 1 17 23
f 1 23 28
f 1 28 34
f 1 34 39
f 1 39 44
f 1 44 50
f 1 50 56
f 1 56 55
f 1 55 64
f 1 64 63
f 1 63 68
f 1 68 75
f 1 75 74
f 1 74 79
f 1 79 78
f 1 78 84
f 1 84 88
f 1 88 90
f 1 90 94
f 1 94 98
f 1 98 102
f 1 102 107
f 1 107 111
f 1 111 115
f 1 115 116
f 1 116 113
f 1 113 109
f 1 109 104
f 1 104 100
f 1 100 95
f 1 95 91
f 1 91 86
f 1 86 81
f 1 81 83
f 1 83 77
f 1 77 71
f 1 71 69
f 1 69 65
f 1 65 59
f 1 59 57
f 1 57 51
f 1 51 46
f 1 46 45
f 1 45 40
f 1 40 35
f 1 35 30
f 1 30 29
f 1 29 25
f 1 25 21
f 1 21 19
f 1 19 14
f 1 14 13
f 1 13 10
f 1 10 4
f 1 4 8
f 1 8 2
f 2 5 6
f 2 6 7
f 2 7 3
f 2 8 16
f 2 16 22
f 2 22 26
f 2 26 31
f 2 31 36
f 2 36 41
f 2 41 47
f 2 47 53
f 2 53 61
f 2 61 66
f 2 66 70
f 2 70 76
f 2 76 82
f 2 82 87
f 2 87 92
f 2 92 96
f 2 96 99
f 2 99 103
f 2 103 108
f 2 108 112
f 2 112 114
f 2 114 110
f 2 110 106
f 2 106 105
f 2 105 101
f 2 101 97
f 2 97 93
f 2 93 89
f 2 89 85
f 2 85 80
f 2 80 73
f 2 73 67
f 2 67 62
f 2 62 54
f 2 54 48
f 2 48 42
f 2 42 37
f 2 37 32
f 2 32 27
f 2 27 24
f 2 24 18
f 2 18 12
f 2 12 11
f 2 11 5
f 3 7 9
f 4 10 8
f 5 11 6
f 6 11 12
f 6 12 9
f 6 9 7
f 8 10 13
f 8 13 14
f 8 14 15
f 8 15 16
f 9 12 17
f 12 18 17
f 14 19 20
f 14 20 15
f 15 20 19
f 15 19 16
f 16 19 21
f 16 21 22
f 17 18 23
f 18 24 23
f 21 25 22
f 22 25 26
f 23 24 27
f 23 27 28
f 25 29 26
f 26 29 30
f 26 30 31
f 27 32 28
f 28 32 33
f 28 33 34
f 30 35 36
f 30 36 31
f 32 37 33
f 33 37 38
f 33 38 34
f 34 38 39
f 35 40 36
f 36 40 41
f 37 42 43
f 37 43 39
f 37 39 38
f 39 43 42
f 39 42 44
f 40 45 41
f 41 45 46
f 41 46 47
f 42 48 49
f 42 49 50
f 42 50 44
f 46 51 52
f 46 52 47
f 47 52 53
f 48 54 55
f 48 55 56
f 48 56 49
f 49 56 50
f 51 57 52
f 52 57 58
f 52 58 53
f 53 58 59
f 53 59 60
f 53 60 61
f 54 62 63
f 54 63 64
f 54 64 55
f 57 59 58
f 59 65 61
f 59 61 60
f 61 65 66
f 62 67 68
f 62 68 63
f 65 69 66
f 66 69 71
f 66 71 72
f 66 72 70
f 67 73 74
f 67 74 75
f 67 75 68
f 70 72 76
f 71 77 72
f 72 77 83
f 72 83 76
f 73 78 79
f 73 79 74
f 73 80 78
f 76 81 82
f 76 83 81
f 78 80 84
f 80 85 84
f 81 86 87
f 81 87 82
f 84 85 88
f 85 89 90
f 85 90 88
f 86 91 87
f 87 91 92
f 89 93 90
f 90 93 94
f 91 95 96
f 91 96 92
f 93 97 94
f 94 97 101
f 94 101 98
f 95 99 96
f 95 100 99
f 98 101 105
f 98 105 102
f 99 100 103
f 100 104 103
f 102 105 106
f 102 106 107
f 103 104 108
f 104 109 108
f 106 110 111
f 106 111 107
f 108 109 112
f 109 113 112
f 110 114 115
f 110 115 111
f 112 113 114
f 113 116 114
f 114 116 115

