# https://github.com/mikedh/trimesh
v 0.00569250 0.01449058 -0.00373994
v 0.00491454 0.01533052 -0.00373994
v 0.00569250 0.01449210 -0.00417947
v 0.00569250 0.01449058 0.00373994
v 0.00491454 0.01533280 -0.00417947
v 0.00491454 0.01533052 0.00373994
v 0.00569250 0.01451258 -0.00441666
v 0.00569250 0.01449210 0.00417947
v 0.00491454 0.01549441 -0.00461900
v 0.00491454 0.01533204 0.00403559
v 0.00569250 0.01453003 -0.00444814
v 0.00569250 0.01453003 0.00444814
v 0.00491454 0.01533280 0.00417947
v 0.00491454 0.01551793 -0.00464823
v 0.00569250 0.01464916 -0.00459765
v 0.00569250 0.01470075 0.00465048
v 0.00491454 0.01573266 0.00490228
v 0.00491454 0.01549441 0.00461901
v 0.00491454 0.01573266 -0.00490228
v 0.00569250 0.01490031 -0.00485619
v 0.00569250 0.01491472 0.00486856
v 0.00568481 0.01491928 0.00486631
v 0.00491454 0.01604071 0.00513835
v 0.00491454 0.01580019 -0.00495849
v 0.00568481 0.01491928 -0.00486631
v 0.00569250 0.01491472 -0.00486856
v 0.00569250 0.01517953 0.00504954
v 0.00491454 0.01651797 0.00548795
v 0.00491454 0.01618032 0.00524402
v 0.00491454 0.01611811 -0.00520017
v 0.00569250 0.01502854 -0.00495287
v 0.00569250 0.01569927 0.00539914
v 0.00569250 0.01601112 0.00559024
v 0.00491454 0.01683816 0.00568130
v 0.00491454 0.01625316 -0.00530022
v 0.00569250 0.01537149 -0.00518331
v 0.00491454 0.01651797 -0.00548795
v 0.00569250 0.01625620 0.00572177
v 0.00494942 0.01682981 0.00568917
v 0.00491454 0.01702330 0.00573076
v 0.00569250 0.01626758 0.00572739
v 0.00491454 0.01661736 -0.00555427
v 0.00569250 0.01569927 -0.00539914
v 0.00553022 0.01653087 0.00573301
v 0.00491454 0.01738067 0.00573975
v 0.00569250 0.01651873 0.00573638
v 0.00491454 0.01683816 -0.00568130
v 0.00569250 0.01601112 -0.00559024
v 0.00569250 0.01587682 -0.00551156
v 0.00549999 0.01694059 0.00574200
v 0.00506006 0.01738067 0.00574200
v 0.00491454 0.01782075 0.00574200
v 0.00569250 0.01694059 0.00574200
v 0.00491454 0.01686168 -0.00569366
v 0.00569250 0.01626303 -0.00572626
v 0.00491454 0.02045969 0.00574200
v 0.00569250 0.02045969 0.00574200
v 0.00491454 0.01702330 -0.00573076
v 0.00569250 0.01626758 -0.00572739
v 0.00491454 0.02075408 0.00573975
v 0.00569250 0.02089977 0.00573863
v 0.00491454 0.01711359 -0.00573413
v 0.00569250 0.01637001 -0.00573301
v 0.00491454 0.02089977 0.00573863
v 0.00569250 0.02114864 0.00572739
v 0.00569250 0.01651873 -0.00573638
v 0.00491454 0.01738067 -0.00573975
v 0.00549999 0.01694059 -0.00574200
v 0.00491454 0.02114864 0.00572739
v 0.00569250 0.02136867 0.00566106
v 0.00491454 0.02129659 0.00568355
v 0.00569250 0.01674787 -0.00574088
v 0.00491454 0.01752559 -0.00574200
v 0.00569250 0.01694059 -0.00574200
v 0.00569250 0.02154015 0.00556551
v 0.00491454 0.02136867 0.00566106
v 0.00491454 0.02045969 -0.00574200
v 0.00569250 0.02045969 -0.00574200
v 0.00491454 0.02176019 0.00544074
v 0.00491454 0.02163120 0.00551380
v 0.00569250 0.02176019 0.00544074
v 0.00491454 0.02089977 -0.00573750
v 0.00569250 0.02070704 -0.00573975
v 0.00491454 0.02190815 0.00531484
v 0.00569250 0.02185655 0.00535868
v 0.00491454 0.02098171 -0.00573413
v 0.00569250 0.02103862 -0.00573188
v 0.00569250 0.02089977 -0.00573750
v 0.00491454 0.02198023 0.00525188
v 0.00569250 0.02198023 0.00525188
v 0.00491454 0.02114712 -0.00572626
v 0.00569250 0.02114712 -0.00572626
v 0.00569250 0.02203107 0.00515521
v 0.00491454 0.02205762 0.00510462
v 0.00491454 0.02121996 -0.00570490
v 0.00569250 0.02127079 -0.00569029
v 0.00569250 0.02209556 0.00503156
v 0.00491454 0.02209556 0.00503156
v 0.00491454 0.02136716 -0.00566106
v 0.00569250 0.02136716 -0.00566106
v 0.00569250 0.02214867 0.00485170
v 0.00491454 0.02217675 0.00475615
v 0.00569250 0.02158795 -0.00553741
v 0.00491454 0.02175943 -0.00544074
v 0.00569250 0.02221696 0.00461901
v 0.00491454 0.02221696 0.00461901
v 0.00569250 0.02175943 -0.00544074
v 0.00491454 0.02197947 -0.00525076
v 0.00569250 0.02224200 0.00417947
v 0.00491454 0.02224200 0.00417947
v 0.00569250 0.02197947 -0.00525076
v 0.00491454 0.02201817 -0.00517769
v 0.00569250 0.02224200 -0.00417947
v 0.00491454 0.02224200 -0.00417947
v 0.00569250 0.02204472 -0.00512711
v 0.00491454 0.02209556 -0.00503043
v 0.00569250 0.02209556 -0.00503043
v 0.00569250 0.02221696 -0.00461900
v 0.00491454 0.02222531 -0.00447399
v 0.00491454 0.02213577 -0.00489441
v 0.00491454 0.02221696 -0.00461900
f 1 2 3
f 1 3 7
f 1 7 11
f 1 11 15
f 1 15 20
f 1 20 26
f 1 26 31
f 1 31 36
f 1 36 43
f 1 43 49
f 1 49 48
f 1 48 55
f 1 55 59
f 1 59 63
f 1 63 66
f 1 66 72
f 1 72 74
f 1 74 78
f 1 78 83
f 1 83 88
f 1 88 87
f 1 87 92
f 1 92 96
f 1 96 100
f 1 100 103
f 1 103 107
f 1 107 111
f 1 111 115
f 1 115 117
f 1 117 118
f 1 118 113
f 1 113 109
f 1 109 105
f 1 105 101
f 1 101 97
f 1 97 93
f 1 93 90
f 1 90 85
f 1 85 81
f 1 81 75
f 1 75 70
f 1 70 65
f 1 65 61
f 1 61 57
f 1 57 53
f 1 53 46
f 1 46 41
f 1 41 38
f 1 38 33
f 1 33 32
f 1 32 27
f 1 27 21
f 1 21 16
f 1 16 12
f 1 12 8
f 1 8 4
f 1 4 6
f 1 6 2
f 2 5 3
f 2 6 10
f 2 10 13
f 2 13 18
f 2 18 17
f 2 17 23
f 2 23 29
f 2 29 28
f 2 28 34
f 2 34 40
f 2 40 45
f 2 45 52
f 2 52 56
f 2 56 60
f 2 60 64
f 2 64 69
f 2 69 71
f 2 71 76
f 2 76 80
f 2 80 79
f 2 79 84
f 2 84 89
f 2 89 94
f 2 94 98
f 2 98 102
f 2 102 106
f 2 106 110
f 2 110 114
f 2 114 119
f 2 119 121
f 2 121 120
f 2 120 116
f 2 116 112
f 2 112 108
f 2 108 104
f 2 104 99
f 2 99 95
f 2 95 91
f 2 91 86
f 2 86 82
f 2 82 77
f 2 77 73
f 2 73 67
f 2 67 62
f 2 62 58
f 2 58 54
f 2 54 47
f 2 47 42
f 2 42 37
f 2 37 35
f 2 35 30
f 2 30 24
f 2 24 19
f 2 19 14
f 2 14 9
f 2 9 5
f 3 5 7
f 4 8 6
f 5 9 7
f 6 8 10
f 7 9 11
f 8 12 13
f 8 13 10
f 9 14 15
f 9 15 11
f 12 16 17
f 12 17 18
f 12 18 13
f 14 19 15
f 15 19 20
f 16 21 22
f 16 22 17
f 17 22 23
f 19 24 25
f 19 25 20
f 20 25 26
f 21 27 28
f 21 28 29
f 21 29 22
f 22 29 23
f 24 30 25
f 25 30 26
f 26 30 35
f 26 35 31
f 27 32 28
f 28 32 33
f 28 33 34
f 31 35 37
f 31 37 36
f 33 38 34
f 34 39 40
f 34 38 41
f 34 41 39
f 36 37 42
f 36 42 43
f 39 41 40
f 40 41 44
f 40 44 45
f 41 46 44
f 42 47 48
f 42 48 49
f 42 49 43
f 44 46 45
f 45 50 51
f 45 51 52
f 45 46 50
f 46 53 50
f 47 54 55
f 47 55 48
f 50 53 57
f 50 57 56
f 50 56 52
f 50 52 51
f 54 58 59
f 54 59 55
f 56 57 60
f 57 61 60
f 58 62 63
f 58 63 59
f 60 61 64
f 61 65 69
f 61 69 64
f 62 66 63
f 62 67 68
f 62 68 66
f 65 70 71
f 65 71 69
f 66 68 72
f 67 73 68
f 68 74 72
f 68 73 77
f 68 77 78
f 68 78 74
f 70 75 76
f 70 76 71
f 75 79 80
f 75 80 76
f 75 81 79
f 77 82 83
f 77 83 78
f 79 81 84
f 81 85 84
f 82 86 87
f 82 87 88
f 82 88 83
f 84 85 90
f 84 90 89
f 86 91 87
f 87 91 92
f 89 93 94
f 89 90 93
f 91 95 96
f 91 96 92
f 93 97 94
f 94 97 98
f 95 99 96
f 96 99 100
f 97 101 98
f 98 101 102
f 99 103 100
f 99 104 103
f 101 105 102
f 102 105 106
f 103 104 107
f 104 108 111
f 104 111 107
f 105 109 110
f 105 110 106
f 108 112 111
f 109 113 114
f 109 114 110
f 111 112 115
f 112 116 117
f 112 117 115
f 113 118 119
f 113 119 114
f 116 120 117
f 117 120 118
f 118 121 119
f 118 120 121

