# https://github.com/mikedh/trimesh
v 0.00218796 -0.00308327 -0.00373994
v 0.00065920 -0.00277965 -0.00373994
v 0.00066009 -0.00277965 -0.00417947
v 0.00218796 -0.00308206 -0.00417947
v 0.00218796 -0.00308327 0.00373994
v 0.00065920 -0.00277905 -0.00418060
v 0.00065920 -0.00277965 0.00417835
v 0.00065920 -0.00270963 -0.00454369
v 0.00218796 -0.00307965 -0.00439755
v 0.00218796 -0.00308206 0.00417947
v 0.00218796 -0.00307602 0.00440992
v 0.00066009 -0.00277965 0.00417947
v 0.00065920 -0.00270963 0.00454369
v 0.00218796 -0.00301264 -0.00453694
v 0.00218796 -0.00307602 -0.00440992
v 0.00065920 -0.00258830 -0.00476402
v 0.00066009 -0.00258891 -0.00476402
v 0.00218796 -0.00295953 0.00462912
v 0.00065920 -0.00258891 0.00476402
v 0.00218796 -0.00295953 -0.00462912
v 0.00065920 -0.00236859 -0.00500795
v 0.00218796 -0.00273981 -0.00493488
v 0.00218796 -0.00284363 -0.00480786
v 0.00218796 -0.00273981 0.00493488
v 0.00066009 -0.00236859 0.00500795
v 0.00065920 -0.00236919 0.00500683
v 0.00065920 -0.00192795 -0.00544636
v 0.00218796 -0.00262029 -0.00505067
v 0.00218796 -0.00251104 0.00515521
v 0.00065920 -0.00192795 0.00544636
v 0.00065920 -0.00214827 0.00522715
v 0.00218796 -0.00215129 -0.00548233
v 0.00218796 -0.00229072 -0.00536654
v 0.00218796 -0.00239454 -0.00526762
v 0.00065920 -0.00158992 -0.00566668
v 0.00066009 -0.00159053 -0.00566668
v 0.00171389 -0.00176557 -0.00572289
v 0.00218796 -0.00229072 0.00536654
v 0.00066009 -0.00159053 0.00566668
v 0.00065920 -0.00159053 0.00566556
v 0.00171389 -0.00176557 0.00572289
v 0.00218796 -0.00188690 -0.00567568
v 0.00065920 -0.00137021 -0.00573076
v 0.00197996 -0.00177584 -0.00572739
v 0.00218796 -0.00200280 0.00558687
v 0.00065920 -0.00137081 0.00573076
v 0.00197996 -0.00177584 0.00572739
v 0.00218796 -0.00178308 -0.00572851
v 0.00065920 -0.00109979 -0.00574200
v 0.00197996 -0.00153982 -0.00573863
v 0.00218796 -0.00165873 -0.00573526
v 0.00218796 -0.00178308 0.00572851
v 0.00197996 -0.00153982 0.00573863
v 0.00066009 -0.00109979 0.00574200
v 0.00065920 -0.00110039 0.00574088
v 0.00218796 -0.00130743 -0.00574200
v 0.00218796 -0.00153982 -0.00573975
v 0.00065920 0.00109979 -0.00574200
v 0.00218796 -0.00166417 0.00573413
v 0.00218796 -0.00153982 0.00573975
v 0.00218796 -0.00109979 0.00574200
v 0.00065920 -0.00066036 0.00574200
v 0.00218796 0.00109979 -0.00574200
v 0.00065920 0.00137021 -0.00573076
v 0.00197996 0.00153982 -0.00573863
v 0.00218796 0.00153982 -0.00573975
v 0.00218796 0.00130743 0.00574200
v 0.00065920 0.00109918 0.00574200
v 0.00171389 0.00176557 -0.00572289
v 0.00197996 0.00177584 -0.00572739
v 0.00065920 0.00158992 -0.00566668
v 0.00066009 0.00159053 -0.00566668
v 0.00218796 0.00166417 -0.00573413
v 0.00218796 0.00178308 -0.00572851
v 0.00218796 0.00153982 0.00573975
v 0.00066009 0.00109979 0.00574200
v 0.00065920 0.00137021 0.00573076
v 0.00065920 0.00192795 -0.00544636
v 0.00218796 0.00229072 -0.00536654
v 0.00218796 0.00200280 -0.00558687
v 0.00218796 0.00165873 0.00573526
v 0.00197996 0.00153982 0.00573863
v 0.00197996 0.00177584 0.00572739
v 0.00171389 0.00176557 0.00572289
v 0.00066009 0.00159053 0.00566668
v 0.00065920 0.00158992 0.00566668
v 0.00065920 0.00236859 -0.00500795
v 0.00218796 0.00273981 -0.00493488
v 0.00218796 0.00251104 -0.00515521
v 0.00218796 0.00178308 0.00572851
v 0.00218796 0.00188690 0.00567568
v 0.00218796 0.00215129 0.00548233
v 0.00065920 0.00192795 0.00544636
v 0.00065920 0.00258891 -0.00476402
v 0.00218796 0.00295953 -0.00462912
v 0.00218796 0.00229072 0.00536654
v 0.00218796 0.00239454 0.00526762
v 0.00218796 0.00262029 0.00505067
v 0.00218796 0.00273981 0.00493488
v 0.00065920 0.00236859 0.00500795
v 0.00065920 0.00270963 -0.00454369
v 0.00218796 0.00307602 -0.00440992
v 0.00218796 0.00284363 0.00480786
v 0.00066009 0.00258891 0.00476402
v 0.00065920 0.00258830 0.00476402
v 0.00065920 0.00277965 -0.00417947
v 0.00218796 0.00308206 -0.00417947
v 0.00218796 0.00295953 0.00462912
v 0.00218796 0.00301264 0.00453694
v 0.00065920 0.00270963 0.00454369
v 0.00218796 0.00308327 -0.00373994
v 0.00065920 0.00277965 0.00417947
v 0.00218796 0.00307602 0.00440992
v 0.00218796 0.00307965 0.00439755
v 0.00218796 0.00308327 0.00373994
v 0.00218796 0.00308206 0.00417947
f 1 2 3
f 1 3 4
f 1 4 9
f 1 9 15
f 1 15 14
f 1 14 20
f 1 20 23
f 1 23 22
f 1 22 28
f 1 28 34
f 1 34 33
f 1 33 32
f 1 32 42
f 1 42 48
f 1 48 51
f 1 51 57
f 1 57 56
f 1 56 63
f 1 63 66
f 1 66 73
f 1 73 74
f 1 74 80
f 1 80 79
f 1 79 89
f 1 89 88
f 1 88 95
f 1 95 102
f 1 102 107
f 1 107 111
f 1 111 115
f 1 115 116
f 1 116 114
f 1 114 113
f 1 113 109
f 1 109 108
f 1 108 103
f 1 103 99
f 1 99 98
f 1 98 97
f 1 97 96
f 1 96 92
f 1 92 91
f 1 91 90
f 1 90 81
f 1 81 75
f 1 75 67
f 1 67 61
f 1 61 60
f 1 60 59
f 1 59 52
f 1 52 45
f 1 45 38
f 1 38 29
f 1 29 24
f 1 24 18
f 1 18 11
f 1 11 10
f 1 10 5
f 1 5 7
f 1 7 2
f 2 6 3
f 2 7 13
f 2 13 19
f 2 19 26
f 2 26 31
f 2 31 30
f 2 30 40
f 2 40 46
f 2 46 55
f 2 55 62
f 2 62 68
f 2 68 77
f 2 77 86
f 2 86 93
f 2 93 100
f 2 100 105
f 2 105 110
f 2 110 112
f 2 112 106
f 2 106 101
f 2 101 94
f 2 94 87
f 2 87 78
f 2 78 71
f 2 71 64
f 2 64 58
f 2 58 49
f 2 49 43
f 2 43 35
f 2 35 27
f 2 27 21
f 2 21 16
f 2 16 8
f 2 8 6
f 3 6 8
f 3 8 9
f 3 9 4
f 5 10 7
f 7 10 11
f 7 11 12
f 7 12 13
f 8 14 15
f 8 15 9
f 8 16 17
f 8 17 14
f 11 18 13
f 11 13 12
f 13 18 19
f 14 17 20
f 16 21 17
f 17 21 22
f 17 22 23
f 17 23 20
f 18 24 19
f 19 24 25
f 19 25 26
f 21 27 22
f 22 27 28
f 24 29 30
f 24 30 31
f 24 31 25
f 25 31 26
f 27 32 33
f 27 33 34
f 27 34 28
f 27 35 36
f 27 36 37
f 27 37 32
f 29 38 30
f 30 39 40
f 30 38 41
f 30 41 39
f 32 37 42
f 35 43 36
f 36 43 37
f 37 43 44
f 37 44 42
f 38 45 41
f 39 41 46
f 39 46 40
f 41 47 46
f 41 45 47
f 42 44 48
f 43 49 50
f 43 50 44
f 44 50 51
f 44 51 48
f 45 52 47
f 46 47 53
f 46 53 54
f 46 54 55
f 47 52 53
f 49 56 57
f 49 57 50
f 49 58 63
f 49 63 56
f 50 57 51
f 52 59 53
f 53 59 60
f 53 60 54
f 54 60 61
f 54 61 67
f 54 67 76
f 54 76 68
f 54 68 62
f 54 62 55
f 58 64 65
f 58 65 66
f 58 66 63
f 64 69 70
f 64 70 65
f 64 71 72
f 64 72 69
f 65 73 66
f 65 70 74
f 65 74 73
f 67 75 76
f 68 76 77
f 69 72 78
f 69 78 79
f 69 79 80
f 69 80 70
f 70 80 74
f 71 78 72
f 75 81 82
f 75 82 76
f 76 82 77
f 77 82 83
f 77 83 84
f 77 84 85
f 77 85 86
f 78 87 88
f 78 88 89
f 78 89 79
f 81 90 83
f 81 83 82
f 83 90 91
f 83 91 84
f 84 91 92
f 84 92 93
f 84 93 85
f 85 93 86
f 87 94 88
f 88 94 95
f 92 96 93
f 93 96 97
f 93 97 98
f 93 98 99
f 93 99 100
f 94 101 95
f 95 101 102
f 99 103 104
f 99 104 100
f 100 104 105
f 101 106 102
f 102 106 107
f 103 108 104
f 104 108 109
f 104 109 110
f 104 110 105
f 106 111 107
f 106 112 115
f 106 115 111
f 109 113 110
f 110 113 114
f 110 114 112
f 112 114 116
f 112 116 115

