# https://github.com/mikedh/trimesh
v -0.00472298 -0.00450058 -0.00330041
v -0.00472298 -0.00449882 -0.00417947
v -0.00398761 -0.00394198 -0.00373994
v -0.00472298 -0.00450058 0.00373882
v -0.00472298 -0.00440631 -0.00453919
v -0.00398761 -0.00394109 -0.00417947
v -0.00398761 -0.00394198 0.00373994
v -0.00398761 -0.00394109 0.00417947
v -0.00472298 -0.00449882 0.00417947
v -0.00472298 -0.00427591 -0.00472467
v -0.00398761 -0.00379131 -0.00464598
v -0.00472298 -0.00444243 0.00445151
v -0.00398761 -0.00379131 0.00464598
v -0.00472298 -0.00407238 -0.00492926
v -0.00470405 -0.00406709 -0.00492139
v -0.00398761 -0.00359042 -0.00489891
v -0.00472298 -0.00440631 0.00453919
v -0.00398761 -0.00368029 0.00479324
v -0.00472298 -0.00432877 0.00465947
v -0.00398761 -0.00334108 -0.00511362
v -0.00472298 -0.00381158 -0.00513610
v -0.00398761 -0.00311111 -0.00530697
v -0.00398761 -0.00322389 -0.00521366
v -0.00398761 -0.00359042 0.00489891
v -0.00472298 -0.00427591 0.00472467
v -0.00472298 -0.00361597 -0.00529010
v -0.00398761 -0.00284591 -0.00551493
v -0.00398761 -0.00348205 0.00499559
v -0.00472298 -0.00409705 0.00490903
v -0.00472298 -0.00350672 -0.00537441
v -0.00472298 -0.00330143 -0.00552505
v -0.00472298 -0.00319658 -0.00559924
v -0.00398761 -0.00256484 -0.00570490
v -0.00398761 -0.00302829 0.00538341
v -0.00472298 -0.00407238 0.00492926
v -0.00472298 -0.00293578 -0.00572851
v -0.00402454 -0.00257541 -0.00571165
v -0.00398761 -0.00236043 -0.00573188
v -0.00398761 -0.00284591 0.00551493
v -0.00472298 -0.00336927 0.00548120
v -0.00472298 -0.00357456 0.00532270
v -0.00472298 -0.00388999 0.00507652
v -0.00472298 -0.00283445 -0.00573301
v -0.00465373 -0.00282917 -0.00573188
v -0.00431794 -0.00266176 -0.00572626
v -0.00398761 -0.00197980 -0.00574200
v -0.00398761 -0.00268555 0.00562509
v -0.00472298 -0.00304415 0.00570378
v -0.00472298 -0.00241946 -0.00574200
v -0.00461997 -0.00241946 -0.00574200
v -0.00398761 0.00197980 -0.00574200
v -0.00398761 -0.00256484 0.00570490
v -0.00402454 -0.00257541 0.00571165
v -0.00472298 -0.00293578 0.00572851
v -0.00472298 0.00241946 -0.00574200
v -0.00461997 0.00241946 -0.00574200
v -0.00398761 0.00223355 -0.00573638
v -0.00398761 -0.00253576 0.00571390
v -0.00431794 -0.00266176 0.00572626
v -0.00398761 -0.00236043 0.00573188
v -0.00465373 -0.00282917 0.00573188
v -0.00472298 -0.00283445 0.00573301
v -0.00472298 0.00252255 -0.00574088
v -0.00472298 0.00283445 -0.00573301
v -0.00465373 0.00282917 -0.00573188
v -0.00398761 0.00236043 -0.00573188
v -0.00398761 -0.00223355 0.00573638
v -0.00461997 -0.00241946 0.00574200
v -0.00472298 -0.00252255 0.00574088
v -0.00472298 0.00293578 -0.00572851
v -0.00431794 0.00266176 -0.00572626
v -0.00398761 0.00253576 -0.00571390
v -0.00398761 -0.00197980 0.00574200
v -0.00472298 -0.00241946 0.00574200
v -0.00472298 0.00304415 -0.00570378
v -0.00402454 0.00257541 -0.00571165
v -0.00398761 0.00256484 -0.00570490
v -0.00398761 0.00197980 0.00574200
v -0.00472298 0.00241946 0.00574200
v -0.00398761 0.00268555 -0.00562509
v -0.00472298 0.00336927 -0.00548120
v -0.00461997 0.00241946 0.00574200
v -0.00398761 0.00236043 0.00573188
v -0.00465373 0.00282917 0.00573188
v -0.00472298 0.00283445 0.00573301
v -0.00398761 0.00284591 -0.00551493
v -0.00472298 0.00357456 -0.00532270
v -0.00398761 0.00302829 -0.00538341
v -0.00398761 0.00256484 0.00570490
v -0.00402454 0.00257541 0.00571165
v -0.00431794 0.00266176 0.00572626
v -0.00472298 0.00293578 0.00572851
v -0.00472298 0.00388999 -0.00507652
v -0.00472298 0.00407238 -0.00492926
v -0.00472298 0.00409705 -0.00490903
v -0.00398761 0.00348205 -0.00499558
v -0.00398761 0.00284591 0.00551493
v -0.00472298 0.00319658 0.00559924
v -0.00472298 0.00427591 -0.00472467
v -0.00398761 0.00359042 -0.00489891
v -0.00398761 0.00311111 0.00530697
v -0.00472298 0.00361597 0.00529010
v -0.00472298 0.00350672 0.00537441
v -0.00472298 0.00330143 0.00552505
v -0.00472298 0.00432877 -0.00465947
v -0.00398761 0.00368029 -0.00479324
v -0.00398761 0.00322389 0.00521366
v -0.00472298 0.00407238 0.00492926
v -0.00472298 0.00381158 0.00513610
v -0.00472298 0.00440631 -0.00453919
v -0.00398761 0.00379131 -0.00464598
v -0.00398761 0.00334108 0.00511362
v -0.00398761 0.00359042 0.00489891
v -0.00470405 0.00406709 0.00492139
v -0.00472298 0.00427591 0.00472467
v -0.00472298 0.00444243 -0.00445151
v -0.00398783 0.00394109 -0.00417947
v -0.00398761 0.00394021 -0.00417947
v -0.00398761 0.00379131 0.00464598
v -0.00472298 0.00440631 0.00453919
v -0.00472298 0.00449882 -0.00417947
v -0.00472298 0.00450058 -0.00373994
v -0.00398761 0.00394198 -0.00374107
v -0.00398761 0.00394109 -0.00406144
v -0.00398761 0.00394109 0.00417947
v -0.00472298 0.00449882 0.00417947
v -0.00472298 0.00450058 0.00373994
v -0.00398761 0.00394198 0.00373882
f 1 2 6
f 1 6 3
f 1 3 7
f 1 7 4
f 1 4 9
f 1 9 12
f 1 12 17
f 1 17 19
f 1 19 25
f 1 25 29
f 1 29 35
f 1 35 42
f 1 42 41
f 1 41 40
f 1 40 48
f 1 48 54
f 1 54 62
f 1 62 69
f 1 69 74
f 1 74 79
f 1 79 85
f 1 85 92
f 1 92 98
f 1 98 104
f 1 104 103
f 1 103 102
f 1 102 109
f 1 109 108
f 1 108 115
f 1 115 120
f 1 120 126
f 1 126 127
f 1 127 122
f 1 122 121
f 1 121 116
f 1 116 110
f 1 110 105
f 1 105 99
f 1 99 95
f 1 95 94
f 1 94 93
f 1 93 87
f 1 87 81
f 1 81 75
f 1 75 70
f 1 70 64
f 1 64 63
f 1 63 55
f 1 55 49
f 1 49 43
f 1 43 36
f 1 36 32
f 1 32 31
f 1 31 30
f 1 30 26
f 1 26 21
f 1 21 14
f 1 14 10
f 1 10 5
f 1 5 2
f 2 5 6
f 3 6 11
f 3 11 16
f 3 16 20
f 3 20 23
f 3 23 22
f 3 22 27
f 3 27 33
f 3 33 38
f 3 38 46
f 3 46 51
f 3 51 57
f 3 57 66
f 3 66 72
f 3 72 77
f 3 77 80
f 3 80 86
f 3 86 88
f 3 88 96
f 3 96 100
f 3 100 106
f 3 106 111
f 3 111 118
f 3 118 124
f 3 124 123
f 3 123 128
f 3 128 125
f 3 125 119
f 3 119 113
f 3 113 112
f 3 112 107
f 3 107 101
f 3 101 97
f 3 97 89
f 3 89 83
f 3 83 78
f 3 78 73
f 3 73 67
f 3 67 60
f 3 60 58
f 3 58 52
f 3 52 47
f 3 47 39
f 3 39 34
f 3 34 28
f 3 28 24
f 3 24 18
f 3 18 13
f 3 13 8
f 3 8 7
f 4 7 8
f 4 8 9
f 5 10 11
f 5 11 6
f 8 12 9
f 8 13 12
f 10 14 15
f 10 15 16
f 10 16 11
f 12 13 17
f 13 18 19
f 13 19 17
f 14 20 16
f 14 16 15
f 14 21 22
f 14 22 23
f 14 23 20
f 18 24 25
f 18 25 19
f 21 26 22
f 22 26 27
f 24 28 29
f 24 29 25
f 26 30 27
f 27 30 31
f 27 31 32
f 27 32 33
f 28 34 29
f 29 34 35
f 32 36 37
f 32 37 33
f 33 37 38
f 34 39 40
f 34 40 41
f 34 41 42
f 34 42 35
f 36 43 44
f 36 44 38
f 36 38 45
f 36 45 37
f 37 45 38
f 38 44 46
f 39 47 40
f 40 47 48
f 43 49 50
f 43 50 46
f 43 46 44
f 46 50 49
f 46 49 55
f 46 55 56
f 46 56 51
f 47 52 48
f 48 52 53
f 48 53 54
f 51 56 57
f 52 58 53
f 53 58 54
f 54 58 59
f 54 59 60
f 54 60 61
f 54 61 62
f 55 63 56
f 56 63 64
f 56 64 57
f 57 64 65
f 57 65 66
f 58 60 59
f 60 67 61
f 61 67 62
f 62 67 68
f 62 68 69
f 64 70 65
f 65 70 66
f 66 70 71
f 66 71 72
f 67 73 68
f 68 74 69
f 68 73 78
f 68 78 82
f 68 82 79
f 68 79 74
f 70 75 76
f 70 76 72
f 70 72 71
f 72 76 77
f 75 80 77
f 75 77 76
f 75 81 80
f 78 83 84
f 78 84 85
f 78 85 82
f 79 82 85
f 80 81 86
f 81 87 88
f 81 88 86
f 83 89 90
f 83 90 91
f 83 91 92
f 83 92 84
f 84 92 85
f 87 93 88
f 88 93 94
f 88 94 95
f 88 95 96
f 89 97 98
f 89 98 90
f 90 92 91
f 90 98 92
f 95 99 100
f 95 100 96
f 97 101 102
f 97 102 103
f 97 103 104
f 97 104 98
f 99 105 106
f 99 106 100
f 101 107 108
f 101 108 109
f 101 109 102
f 105 110 111
f 105 111 106
f 107 112 108
f 108 112 113
f 108 113 114
f 108 114 115
f 110 116 111
f 111 116 117
f 111 117 118
f 113 119 115
f 113 115 114
f 115 119 120
f 116 121 117
f 117 121 122
f 117 122 123
f 117 123 124
f 117 124 118
f 119 125 120
f 120 125 126
f 122 127 128
f 122 128 123
f 125 128 127
f 125 127 126

