# https://github.com/mikedh/trimesh
v -0.00713752 0.01127918 0.00373924
v -0.00713782 0.01127918 0.00417968
v -0.00722261 0.00939224 0.00373924
v -0.00713752 0.01127918 -0.00373924
v -0.00725634 0.01127918 0.00461563
v -0.00722291 0.00939224 0.00417968
v -0.00722261 0.00939224 -0.00373924
v -0.00713782 0.01127918 -0.00417968
v -0.00724145 0.00939224 0.00424710
v -0.00740038 0.01127918 0.00484484
v -0.00744535 0.00939224 0.00479652
v -0.00736087 0.00939224 0.00465270
v -0.00722291 0.00939224 -0.00417968
v -0.00715089 0.01127918 -0.00423249
v -0.00743016 0.01127918 0.00488865
v -0.00752649 0.00939224 0.00489989
v -0.00736087 0.00939224 -0.00465270
v -0.00725634 0.01127918 -0.00461563
v -0.00769211 0.00939224 0.00506843
v -0.00784283 0.01127918 0.00529763
v -0.00747301 0.00939224 -0.00484708
v -0.00743016 0.01127918 -0.00488865
v -0.00774255 0.00939224 0.00511786
v -0.00787261 0.01127918 0.00532572
v -0.00811542 0.00939224 0.00547965
v -0.00796530 0.00939224 0.00533584
v -0.00764136 0.00939224 -0.00501786
v -0.00769211 0.00939224 -0.00506843
v -0.00765260 0.01127918 -0.00510887
v -0.00808807 0.01127918 0.00551673
v -0.00819686 0.00939224 0.00555606
v -0.00791364 0.00939224 -0.00528640
v -0.00787261 0.01127918 -0.00532572
v -0.00831598 0.01127918 0.00570774
v -0.00838922 0.00939224 0.00571673
v -0.00805707 0.00939224 -0.00542572
v -0.00811542 0.00939224 -0.00547965
v -0.00812575 0.01127918 -0.00554594
v -0.00834576 0.01127918 0.00572796
v -0.00860710 0.00939224 0.00573021
v -0.00838922 0.00939224 -0.00571673
v -0.00834576 0.01127918 -0.00572796
v -0.00858006 0.01127918 0.00573920
v -0.00895505 0.00939224 0.00573021
v -0.00854177 0.00939224 -0.00572684
v -0.00860710 0.00939224 -0.00573021
v -0.00858006 0.01127918 -0.00573920
v -0.00890369 0.01127918 0.00573246
v -0.00895505 0.00946003 0.00573021
v -0.00898909 0.00939224 0.00572796
v -0.00897663 0.00939224 -0.00573021
v -0.00897663 0.01127918 -0.00573021
v -0.00895414 0.01127918 0.00573021
v -0.00895444 0.01077987 0.00573021
v -0.00914437 0.01127918 0.00571673
v -0.00917506 0.00939224 0.00571448
v -0.00900641 0.01127918 -0.00572909
v -0.00916260 0.00939224 -0.00571897
v -0.00917385 0.01127918 0.00571448
v -0.00917415 0.01121988 0.00571448
v -0.00917445 0.01077987 0.00571448
v -0.00917506 0.00946003 0.00571448
v -0.00945980 0.00939224 0.00562010
v -0.00919664 0.01127918 -0.00571673
v -0.00919664 0.00939224 -0.00571673
v -0.00945980 0.01127918 0.00562010
v -0.00951480 0.00939224 0.00558752
v -0.00945980 0.01127918 -0.00562122
v -0.00945980 0.00939224 -0.00562122
v -0.00981595 0.01127918 0.00540550
v -0.00981595 0.01033986 0.00540550
v -0.00981595 0.00939224 0.00540437
v -0.00950812 0.01127918 -0.00559201
v -0.00981687 0.00939224 -0.00540437
v -0.01003597 0.01127918 0.00513809
v -0.00984969 0.00939224 0.00536392
v -0.01003597 0.00939224 0.00513809
v -0.00981687 0.01127918 -0.00540437
v -0.01003688 0.00939224 -0.00513921
v -0.01015661 0.01127918 0.00491899
v -0.01015661 0.00939224 0.00491899
v -0.01003688 0.01127918 -0.00513921
v -0.01015600 0.00939224 -0.00491899
v -0.01021739 0.01127918 0.00461900
v -0.01021739 0.00939224 0.00461900
v -0.01015600 0.01127918 -0.00491899
v -0.01021678 0.00939224 -0.00461900
v -0.01016421 0.01127918 -0.00487854
v -0.01023866 0.01127918 0.00423923
v -0.01022134 0.00939224 0.00455158
v -0.01023805 0.00939224 -0.00424710
v -0.01022012 0.01127918 -0.00456057
v -0.01021678 0.01127918 -0.00461900
v -0.01024170 0.01127918 0.00417968
v -0.01024170 0.00939224 0.00417968
v -0.01024170 0.01127918 -0.00417968
v -0.01024170 0.00939224 -0.00417968
f 1 2 6
f 1 6 3
f 1 3 7
f 1 7 4
f 1 4 8
f 1 8 14
f 1 14 18
f 1 18 22
f 1 22 29
f 1 29 33
f 1 33 38
f 1 38 42
f 1 42 47
f 1 47 52
f 1 52 57
f 1 57 64
f 1 64 68
f 1 68 73
f 1 73 78
f 1 78 82
f 1 82 86
f 1 86 88
f 1 88 93
f 1 93 92
f 1 92 96
f 1 96 94
f 1 94 89
f 1 89 84
f 1 84 80
f 1 80 75
f 1 75 70
f 1 70 66
f 1 66 59
f 1 59 55
f 1 55 53
f 1 53 48
f 1 48 43
f 1 43 39
f 1 39 34
f 1 34 30
f 1 30 24
f 1 24 20
f 1 20 15
f 1 15 10
f 1 10 5
f 1 5 2
f 2 5 6
f 3 6 9
f 3 9 12
f 3 12 11
f 3 11 16
f 3 16 19
f 3 19 23
f 3 23 26
f 3 26 25
f 3 25 31
f 3 31 35
f 3 35 40
f 3 40 44
f 3 44 50
f 3 50 56
f 3 56 63
f 3 63 67
f 3 67 72
f 3 72 76
f 3 76 77
f 3 77 81
f 3 81 85
f 3 85 90
f 3 90 95
f 3 95 97
f 3 97 91
f 3 91 87
f 3 87 83
f 3 83 79
f 3 79 74
f 3 74 69
f 3 69 65
f 3 65 58
f 3 58 51
f 3 51 46
f 3 46 45
f 3 45 41
f 3 41 37
f 3 37 36
f 3 36 32
f 3 32 28
f 3 28 27
f 3 27 21
f 3 21 17
f 3 17 13
f 3 13 7
f 4 7 13
f 4 13 8
f 5 9 6
f 5 10 11
f 5 11 12
f 5 12 9
f 8 13 14
f 10 15 11
f 11 15 16
f 13 17 18
f 13 18 14
f 15 19 16
f 15 20 19
f 17 21 18
f 18 21 22
f 19 20 23
f 20 24 25
f 20 25 26
f 20 26 23
f 21 27 22
f 22 27 28
f 22 28 29
f 24 30 31
f 24 31 25
f 28 32 33
f 28 33 29
f 30 34 31
f 31 34 35
f 32 36 33
f 33 36 37
f 33 37 38
f 34 39 35
f 35 39 40
f 37 41 38
f 38 41 42
f 39 43 40
f 40 43 44
f 41 45 42
f 42 45 46
f 42 46 47
f 43 48 44
f 44 49 50
f 44 48 49
f 46 51 47
f 47 51 52
f 48 53 54
f 48 54 49
f 49 54 50
f 50 54 53
f 50 53 55
f 50 55 56
f 51 57 52
f 51 58 57
f 55 59 60
f 55 60 61
f 55 61 62
f 55 62 56
f 56 62 66
f 56 66 63
f 57 58 64
f 58 65 64
f 59 66 60
f 60 66 61
f 61 66 62
f 63 66 67
f 64 65 69
f 64 69 68
f 66 70 67
f 67 70 71
f 67 71 72
f 68 69 73
f 69 74 73
f 70 75 77
f 70 77 71
f 71 76 72
f 71 77 76
f 73 74 78
f 74 79 82
f 74 82 78
f 75 80 81
f 75 81 77
f 79 83 86
f 79 86 82
f 80 84 85
f 80 85 81
f 83 87 88
f 83 88 86
f 84 89 90
f 84 90 85
f 87 91 92
f 87 92 93
f 87 93 88
f 89 94 95
f 89 95 90
f 91 96 92
f 91 97 96
f 94 96 97
f 94 97 95

