# https://github.com/mikedh/trimesh
v 0.01024165 0.01287074 0.00417947
v 0.01023568 0.01287074 0.00428851
v 0.01024165 0.01166006 0.00417947
v 0.01024165 0.01287074 -0.00417947
v 0.01021673 0.01122091 0.00461901
v 0.01024165 0.01122091 0.00417835
v 0.01021673 0.01287074 0.00461901
v 0.01024165 0.01122091 -0.00418060
v 0.01021744 0.01287074 -0.00461900
v 0.01015603 0.01122091 0.00491802
v 0.01020164 0.01287074 0.00469320
v 0.01021744 0.01122091 -0.00462013
v 0.01015638 0.01287074 -0.00492027
v 0.01015567 0.01287074 0.00491915
v 0.01015567 0.01166006 0.00491915
v 0.01003777 0.01122091 0.00513835
v 0.01015603 0.01122091 -0.00492027
v 0.01015638 0.01166006 -0.00492027
v 0.01006689 0.01287074 -0.00508551
v 0.01003777 0.01287074 0.00513835
v 0.00998338 0.01287074 0.00520467
v 0.00981810 0.01122091 0.00540476
v 0.01003707 0.01122091 -0.00514060
v 0.01003742 0.01287074 -0.00513947
v 0.00981774 0.01287074 0.00540476
v 0.00945981 0.01287074 0.00562284
v 0.00945981 0.01122091 0.00562284
v 0.00981669 0.01122091 -0.00540476
v 0.00981739 0.01166006 -0.00540476
v 0.00981739 0.01287074 -0.00540476
v 0.00939524 0.01287074 0.00564645
v 0.00919908 0.01287074 0.00571727
v 0.00919838 0.01209985 0.00571727
v 0.00919733 0.01122091 0.00571727
v 0.00945946 0.01122091 -0.00562397
v 0.00945981 0.01166006 -0.00562397
v 0.00945981 0.01287074 -0.00562397
v 0.00914469 0.01287074 0.00572064
v 0.00897766 0.01122091 0.00573076
v 0.00922224 0.01122091 -0.00571839
v 0.00922294 0.01166006 -0.00571839
v 0.00922330 0.01209985 -0.00571839
v 0.00922365 0.01287074 -0.00571839
v 0.00897906 0.01287074 0.00573076
v 0.00857972 0.01209985 0.00574200
v 0.00857972 0.01166006 0.00574088
v 0.00857972 0.01122091 0.00573863
v 0.00900187 0.01122091 -0.00573076
v 0.00900292 0.01166006 -0.00573076
v 0.00900327 0.01209985 -0.00573076
v 0.00900362 0.01287074 -0.00573076
v 0.00857972 0.01287074 0.00574200
v 0.00813476 0.01287074 0.00573188
v 0.00834706 0.01122091 0.00572739
v 0.00857937 0.01122091 -0.00573863
v 0.00857972 0.01166006 -0.00574088
v 0.00857972 0.01209985 -0.00574200
v 0.00857972 0.01287074 -0.00574200
v 0.00803124 0.01287074 0.00572514
v 0.00794176 0.01278143 0.00571727
v 0.00783087 0.01287074 0.00564982
v 0.00772279 0.01287074 0.00555989
v 0.00743644 0.01287074 0.00531933
v 0.00812704 0.01122091 0.00554078
v 0.00813476 0.01287074 -0.00573188
v 0.00819898 0.01287074 -0.00573413
v 0.00834671 0.01122091 -0.00572739
v 0.00737643 0.01287074 0.00526537
v 0.00787824 0.01122091 0.00532046
v 0.00792983 0.01287074 -0.00572064
v 0.00794176 0.01278143 -0.00571727
v 0.00812704 0.01122091 -0.00554078
v 0.00748311 0.01287074 -0.00536542
v 0.00783087 0.01287074 -0.00564982
v 0.00697780 0.01287074 0.00489666
v 0.00765822 0.01122091 0.00510350
v 0.00787754 0.01122091 -0.00532046
v 0.00703605 0.01287074 -0.00495174
v 0.00677988 0.01287074 0.00462013
v 0.00743609 0.01122091 0.00488317
v 0.00765822 0.01122091 -0.00510350
v 0.00697780 0.01287074 -0.00489666
v 0.00674514 0.01287074 0.00450210
v 0.00702903 0.01183400 0.00442566
v 0.00727081 0.01122091 0.00461901
v 0.00743574 0.01122091 -0.00488205
v 0.00684059 0.01287074 -0.00471006
v 0.00665776 0.01287074 0.00417947
v 0.00714939 0.01122091 0.00417947
v 0.00677988 0.01287074 -0.00462013
v 0.00727081 0.01122091 -0.00461900
v 0.00665741 0.01287074 0.00373994
v 0.00714939 0.01122091 -0.00417947
v 0.00665776 0.01287074 -0.00417947
v 0.00702903 0.01183400 -0.00442566
v 0.00665741 0.01287074 -0.00375119
f 1 2 3
f 1 3 6
f 1 6 8
f 1 8 4
f 1 4 9
f 1 9 13
f 1 13 19
f 1 19 24
f 1 24 30
f 1 30 37
f 1 37 43
f 1 43 51
f 1 51 58
f 1 58 66
f 1 66 65
f 1 65 70
f 1 70 74
f 1 74 73
f 1 73 78
f 1 78 82
f 1 82 87
f 1 87 90
f 1 90 94
f 1 94 96
f 1 96 92
f 1 92 88
f 1 88 83
f 1 83 79
f 1 79 75
f 1 75 68
f 1 68 63
f 1 63 62
f 1 62 61
f 1 61 59
f 1 59 53
f 1 53 52
f 1 52 44
f 1 44 38
f 1 38 32
f 1 32 31
f 1 31 26
f 1 26 25
f 1 25 21
f 1 21 20
f 1 20 14
f 1 14 11
f 1 11 7
f 1 7 2
f 2 5 6
f 2 6 3
f 2 7 5
f 4 8 12
f 4 12 9
f 5 7 10
f 5 10 16
f 5 16 22
f 5 22 27
f 5 27 34
f 5 34 39
f 5 39 47
f 5 47 54
f 5 54 64
f 5 64 69
f 5 69 76
f 5 76 80
f 5 80 85
f 5 85 89
f 5 89 93
f 5 93 91
f 5 91 86
f 5 86 81
f 5 81 77
f 5 77 72
f 5 72 67
f 5 67 55
f 5 55 48
f 5 48 40
f 5 40 35
f 5 35 28
f 5 28 23
f 5 23 17
f 5 17 12
f 5 12 8
f 5 8 6
f 7 11 10
f 9 12 13
f 10 11 14
f 10 14 15
f 10 15 16
f 12 17 18
f 12 18 13
f 13 18 23
f 13 23 19
f 14 20 16
f 14 16 15
f 16 20 21
f 16 21 22
f 17 23 18
f 19 23 24
f 21 25 22
f 22 25 26
f 22 26 27
f 23 28 29
f 23 29 30
f 23 30 24
f 26 31 27
f 27 31 32
f 27 32 33
f 27 33 34
f 28 35 29
f 29 35 36
f 29 36 37
f 29 37 30
f 32 38 33
f 33 38 34
f 34 38 39
f 35 40 41
f 35 41 36
f 36 41 42
f 36 42 43
f 36 43 37
f 38 44 39
f 39 44 45
f 39 45 46
f 39 46 47
f 40 48 49
f 40 49 41
f 41 49 50
f 41 50 42
f 42 50 51
f 42 51 43
f 44 52 45
f 45 52 53
f 45 53 46
f 46 53 47
f 47 53 54
f 48 55 56
f 48 56 57
f 48 57 49
f 49 57 50
f 50 57 51
f 51 57 58
f 53 59 54
f 54 59 60
f 54 60 61
f 54 61 62
f 54 62 63
f 54 63 64
f 55 65 66
f 55 66 56
f 55 67 65
f 56 66 57
f 57 66 58
f 59 61 60
f 63 68 69
f 63 69 64
f 65 67 70
f 67 71 70
f 67 72 73
f 67 73 74
f 67 74 71
f 68 75 69
f 69 75 76
f 70 71 74
f 72 77 73
f 73 77 78
f 75 79 80
f 75 80 76
f 77 81 82
f 77 82 78
f 79 83 84
f 79 84 85
f 79 85 80
f 81 86 82
f 82 86 87
f 83 88 84
f 84 88 89
f 84 89 85
f 86 90 87
f 86 91 90
f 88 92 89
f 89 92 96
f 89 96 93
f 90 91 95
f 90 95 94
f 91 93 95
f 93 96 94
f 93 94 95

