# https://github.com/mikedh/trimesh
v 0.00398675 -0.00394166 -0.00329929
v 0.00398675 -0.00394166 0.00373770
v 0.00218814 -0.00308280 -0.00373882
v 0.00218814 -0.00308202 -0.00417947
v 0.00398675 -0.00394089 -0.00373882
v 0.00218814 -0.00308280 0.00373882
v 0.00398675 -0.00394011 0.00417723
v 0.00218814 -0.00308202 0.00417947
v 0.00218814 -0.00307971 -0.00439755
v 0.00398675 -0.00393934 -0.00418172
v 0.00218814 -0.00307585 0.00440992
v 0.00219413 -0.00308048 0.00440317
v 0.00398675 -0.00379118 0.00464598
v 0.00218814 -0.00307585 -0.00440992
v 0.00398675 -0.00379118 -0.00464598
v 0.00218814 -0.00295933 0.00462912
v 0.00398675 -0.00359055 0.00489891
v 0.00218814 -0.00273863 0.00493488
v 0.00218814 -0.00301257 -0.00453694
v 0.00218814 -0.00284281 -0.00480786
v 0.00398675 -0.00368006 -0.00479324
v 0.00218814 -0.00295933 -0.00462912
v 0.00398675 -0.00334130 0.00511249
v 0.00218814 -0.00229030 0.00536654
v 0.00218814 -0.00251022 0.00515521
v 0.00218814 -0.00273863 -0.00493488
v 0.00398675 -0.00359055 -0.00489891
v 0.00398675 -0.00322401 0.00521254
v 0.00398675 -0.00284590 0.00551493
v 0.00218814 -0.00200247 0.00558687
v 0.00398675 -0.00311135 0.00530584
v 0.00218814 -0.00261980 -0.00505067
v 0.00218814 -0.00239447 -0.00526762
v 0.00218814 -0.00229030 -0.00536654
v 0.00398675 -0.00348175 -0.00499558
v 0.00398675 -0.00256424 0.00570490
v 0.00218814 -0.00178254 0.00572851
v 0.00218814 -0.00215063 -0.00548233
v 0.00398675 -0.00302801 -0.00538341
v 0.00339954 -0.00221776 0.00572626
v 0.00398675 -0.00235975 0.00573188
v 0.00218814 -0.00166371 0.00573413
v 0.00218814 -0.00188672 -0.00567568
v 0.00398675 -0.00284590 -0.00551493
v 0.00398675 -0.00197932 0.00574200
v 0.00373989 -0.00197932 0.00574200
v 0.00218814 -0.00153947 0.00573975
v 0.00398675 -0.00256424 -0.00570490
v 0.00398675 -0.00268462 -0.00562509
v 0.00218814 -0.00178254 -0.00572851
v 0.00398675 0.00197932 0.00574200
v 0.00242003 -0.00153947 0.00574200
v 0.00218814 -0.00109885 0.00574200
v 0.00398675 -0.00253569 -0.00571390
v 0.00218814 -0.00165831 -0.00573526
v 0.00398675 -0.00235975 -0.00573188
v 0.00339954 -0.00221776 -0.00572626
v 0.00373989 0.00197932 0.00574200
v 0.00398675 0.00223242 0.00573638
v 0.00218814 0.00130720 0.00574200
v 0.00218814 -0.00153947 -0.00573975
v 0.00398675 -0.00223242 -0.00573638
v 0.00242003 0.00153947 0.00574200
v 0.00218814 0.00153947 0.00573975
v 0.00398675 0.00235975 0.00573188
v 0.00218814 -0.00130720 -0.00574200
v 0.00242003 -0.00153947 -0.00574200
v 0.00373989 -0.00197932 -0.00574200
v 0.00398675 -0.00197932 -0.00574200
v 0.00218814 0.00165831 0.00573526
v 0.00398675 0.00253569 0.00571390
v 0.00339954 0.00221776 0.00572626
v 0.00218814 0.00178254 0.00572851
v 0.00218814 0.00109885 -0.00574200
v 0.00398675 0.00197932 -0.00574200
v 0.00398675 0.00256424 0.00570490
v 0.00218814 0.00188672 0.00567568
v 0.00218814 0.00153947 -0.00573975
v 0.00242003 0.00153947 -0.00574200
v 0.00373989 0.00197932 -0.00574200
v 0.00398675 0.00235975 -0.00573188
v 0.00398675 0.00268462 0.00562509
v 0.00398675 0.00284590 0.00551493
v 0.00398675 0.00302801 0.00538341
v 0.00218814 0.00215063 0.00548233
v 0.00218814 0.00166371 -0.00573413
v 0.00218814 0.00178254 -0.00572851
v 0.00339954 0.00221776 -0.00572626
v 0.00398675 0.00256424 -0.00570490
v 0.00398675 0.00348175 0.00499559
v 0.00218814 0.00229030 0.00536654
v 0.00218814 0.00200247 -0.00558687
v 0.00398675 0.00284590 -0.00551493
v 0.00398675 0.00359055 0.00489891
v 0.00218814 0.00239447 0.00526762
v 0.00218814 0.00229030 -0.00536654
v 0.00398675 0.00311135 -0.00530584
v 0.00398675 0.00368006 0.00479324
v 0.00218814 0.00273863 0.00493488
v 0.00218814 0.00261980 0.00505067
v 0.00218814 0.00251022 -0.00515521
v 0.00398675 0.00359055 -0.00489891
v 0.00398675 0.00334130 -0.00511249
v 0.00398675 0.00322401 -0.00521254
v 0.00398675 0.00379118 0.00464598
v 0.00218814 0.00284281 0.00480786
v 0.00218814 0.00273863 -0.00493488
v 0.00398675 0.00379118 -0.00464598
v 0.00398675 0.00394011 0.00417947
v 0.00218814 0.00307585 0.00440992
v 0.00218814 0.00301257 0.00453694
v 0.00218814 0.00295933 0.00462912
v 0.00218814 0.00295933 -0.00462912
v 0.00218814 0.00307585 -0.00440992
v 0.00398675 0.00394011 -0.00417947
v 0.00398675 0.00394166 0.00373882
v 0.00218814 0.00308202 0.00417947
v 0.00218814 0.00307971 0.00439755
v 0.00218814 0.00308202 -0.00417947
v 0.00219413 0.00308048 -0.00440317
v 0.00398675 0.00394166 -0.00373882
v 0.00218814 0.00308280 0.00373882
v 0.00218814 0.00308280 -0.00373882
f 1 2 6
f 1 6 3
f 1 3 4
f 1 4 5
f 1 5 10
f 1 10 15
f 1 15 21
f 1 21 27
f 1 27 35
f 1 35 39
f 1 39 44
f 1 44 49
f 1 49 48
f 1 48 54
f 1 54 56
f 1 56 62
f 1 62 69
f 1 69 75
f 1 75 81
f 1 81 89
f 1 89 93
f 1 93 97
f 1 97 104
f 1 104 103
f 1 103 102
f 1 102 108
f 1 108 115
f 1 115 121
f 1 121 116
f 1 116 109
f 1 109 105
f 1 105 98
f 1 98 94
f 1 94 90
f 1 90 84
f 1 84 83
f 1 83 82
f 1 82 76
f 1 76 71
f 1 71 65
f 1 65 59
f 1 59 51
f 1 51 45
f 1 45 41
f 1 41 36
f 1 36 29
f 1 29 31
f 1 31 28
f 1 28 23
f 1 23 17
f 1 17 13
f 1 13 7
f 1 7 2
f 2 7 8
f 2 8 6
f 3 6 8
f 3 8 11
f 3 11 16
f 3 16 18
f 3 18 25
f 3 25 24
f 3 24 30
f 3 30 37
f 3 37 42
f 3 42 47
f 3 47 53
f 3 53 60
f 3 60 64
f 3 64 70
f 3 70 73
f 3 73 77
f 3 77 85
f 3 85 91
f 3 91 95
f 3 95 100
f 3 100 99
f 3 99 106
f 3 106 112
f 3 112 111
f 3 111 110
f 3 110 118
f 3 118 117
f 3 117 122
f 3 122 123
f 3 123 119
f 3 119 114
f 3 114 113
f 3 113 107
f 3 107 101
f 3 101 96
f 3 96 92
f 3 92 87
f 3 87 86
f 3 86 78
f 3 78 74
f 3 74 66
f 3 66 61
f 3 61 55
f 3 55 50
f 3 50 43
f 3 43 38
f 3 38 34
f 3 34 33
f 3 33 32
f 3 32 26
f 3 26 20
f 3 20 22
f 3 22 19
f 3 19 14
f 3 14 9
f 3 9 4
f 4 9 10
f 4 10 5
f 7 11 12
f 7 12 8
f 7 13 11
f 8 12 11
f 9 14 10
f 10 14 15
f 11 13 16
f 13 17 18
f 13 18 16
f 14 19 15
f 15 20 21
f 15 19 22
f 15 22 20
f 17 23 24
f 17 24 25
f 17 25 18
f 20 26 21
f 21 26 27
f 23 28 24
f 24 29 30
f 24 28 31
f 24 31 29
f 26 32 27
f 27 32 33
f 27 33 34
f 27 34 35
f 29 36 30
f 30 36 37
f 34 38 39
f 34 39 35
f 36 40 37
f 36 41 40
f 37 41 42
f 37 40 41
f 38 43 39
f 39 43 44
f 41 45 46
f 41 46 47
f 41 47 42
f 43 48 49
f 43 49 44
f 43 50 48
f 45 51 58
f 45 58 63
f 45 63 60
f 45 60 53
f 45 53 52
f 45 52 46
f 46 52 47
f 47 52 53
f 48 50 54
f 50 55 56
f 50 56 57
f 50 57 54
f 51 59 58
f 54 57 56
f 55 61 56
f 56 61 62
f 58 59 64
f 58 64 63
f 59 65 64
f 60 63 64
f 61 66 67
f 61 67 68
f 61 68 62
f 62 68 69
f 64 65 70
f 65 71 72
f 65 72 73
f 65 73 70
f 66 74 79
f 66 79 80
f 66 80 75
f 66 75 69
f 66 69 68
f 66 68 67
f 71 76 73
f 71 73 72
f 73 76 77
f 74 78 79
f 75 80 81
f 76 82 77
f 77 82 83
f 77 83 84
f 77 84 85
f 78 80 79
f 78 86 81
f 78 81 80
f 81 86 87
f 81 87 88
f 81 88 89
f 84 90 91
f 84 91 85
f 87 92 89
f 87 89 88
f 89 92 93
f 90 94 91
f 91 94 95
f 92 96 93
f 93 96 97
f 94 98 99
f 94 99 100
f 94 100 95
f 96 101 102
f 96 102 103
f 96 103 104
f 96 104 97
f 98 105 106
f 98 106 99
f 101 107 102
f 102 107 108
f 105 109 110
f 105 110 111
f 105 111 112
f 105 112 106
f 107 113 108
f 108 113 114
f 108 114 115
f 109 116 117
f 109 117 118
f 109 118 110
f 114 119 120
f 114 120 115
f 115 120 119
f 115 119 121
f 116 121 123
f 116 123 122
f 116 122 117
f 119 123 121

