# https://github.com/mikedh/trimesh
v 0.00101285 -0.02224200 -0.00417947
v 0.00101285 -0.02221667 -0.00461900
v 0.00268770 -0.02224200 -0.00417947
v 0.00101285 -0.02224200 0.00417947
v 0.00101285 -0.02219296 -0.00470107
v 0.00268770 -0.02221667 -0.00461900
v 0.00268770 -0.02224200 0.00417947
v 0.00101285 -0.02221667 0.00461901
v 0.00268770 -0.02209596 -0.00503043
v 0.00101285 -0.02209596 -0.00503043
v 0.00268770 -0.02221667 0.00461901
v 0.00268770 -0.02214338 0.00487081
v 0.00101285 -0.02209596 0.00503156
v 0.00268770 -0.02197956 -0.00525076
v 0.00101285 -0.02197956 -0.00525076
v 0.00268770 -0.02209596 0.00503156
v 0.00101285 -0.02198064 0.00525188
v 0.00268770 -0.02175969 -0.00544074
v 0.00101285 -0.02175969 -0.00544074
v 0.00268770 -0.02198064 0.00525188
v 0.00101285 -0.02180442 0.00540364
v 0.00268770 -0.02160665 -0.00552729
v 0.00101285 -0.02168209 -0.00548458
v 0.00268770 -0.02176077 0.00544074
v 0.00101285 -0.02176077 0.00544074
v 0.00101285 -0.02136900 -0.00566106
v 0.00268770 -0.02136900 -0.00566106
v 0.00268770 -0.02136900 0.00566106
v 0.00101285 -0.02136900 0.00566106
v 0.00101285 -0.02132535 -0.00567455
v 0.00241995 -0.02114913 -0.00572739
v 0.00268770 -0.02114859 -0.00572739
v 0.00268770 -0.02123535 0.00570153
v 0.00101285 -0.02114913 0.00572739
v 0.00101285 -0.02114913 -0.00572739
v 0.00268770 -0.02105105 -0.00573188
v 0.00268770 -0.02114913 0.00572739
v 0.00101285 -0.02089963 0.00573863
v 0.00101285 -0.02109955 -0.00572963
v 0.00101285 -0.02089963 -0.00573863
v 0.00268770 -0.02089963 -0.00573863
v 0.00268770 -0.02089963 0.00573863
v 0.00101285 -0.02045989 0.00574200
v 0.00101285 -0.02045989 -0.00574200
v 0.00268770 -0.02045989 -0.00574200
v 0.00268770 -0.02045989 0.00574200
v 0.00101285 -0.01878772 0.00574200
v 0.00101285 -0.01914015 -0.00574200
v 0.00268770 -0.01870042 -0.00574200
v 0.00268770 -0.01870042 0.00574200
v 0.00110008 -0.01870042 0.00574200
v 0.00101285 -0.01870042 0.00574088
v 0.00101285 -0.01870042 -0.00574088
v 0.00110008 -0.01870042 -0.00574200
v 0.00268770 -0.01826284 -0.00573750
v 0.00268770 -0.01843259 0.00574088
v 0.00268770 -0.01826284 0.00573750
v 0.00101285 -0.01850480 0.00573301
v 0.00101285 -0.01865246 -0.00573975
v 0.00268770 -0.01811626 -0.00573188
v 0.00268770 -0.01802412 0.00572739
v 0.00101285 -0.01845684 0.00573076
v 0.00101285 -0.01845684 -0.00573076
v 0.00268770 -0.01802412 -0.00572739
v 0.00268770 -0.01794113 0.00567568
v 0.00258309 -0.01802896 0.00572626
v 0.00101285 -0.01828063 0.00561835
v 0.00101285 -0.01823698 -0.00558575
v 0.00258309 -0.01802896 -0.00572626
v 0.00268770 -0.01780425 -0.00556326
v 0.00268770 -0.01761833 0.00542612
v 0.00101285 -0.01800579 0.00540926
v 0.00101285 -0.01823698 0.00558575
v 0.00101285 -0.01795298 -0.00536654
v 0.00268770 -0.01752888 -0.00534519
v 0.00268770 -0.01752888 0.00534519
v 0.00101285 -0.01795298 0.00536654
v 0.00101285 -0.01751055 -0.00492814
v 0.00268770 -0.01707405 -0.00491914
v 0.00268770 -0.01730632 -0.00513835
v 0.00268770 -0.01715112 0.00499446
v 0.00268770 -0.01707405 0.00491915
v 0.00101285 -0.01755420 0.00497198
v 0.00101285 -0.01728476 -0.00459427
v 0.00268770 -0.01687035 -0.00464261
v 0.00268770 -0.01693987 0.00474266
v 0.00101285 -0.01751055 0.00492814
v 0.00101285 -0.01725835 -0.00449872
v 0.00126486 -0.01715165 -0.00442004
v 0.00268770 -0.01681808 -0.00447287
v 0.00268770 -0.01687035 0.00464261
v 0.00101285 -0.01732571 0.00465723
v 0.00101285 -0.01718075 -0.00417947
v 0.00268770 -0.01674048 -0.00418959
v 0.00268770 -0.01673779 -0.00417947
v 0.00268770 -0.01673833 0.00418285
v 0.00126486 -0.01715165 0.00442004
v 0.00101285 -0.01728476 0.00459427
v 0.00268770 -0.01673671 -0.00373994
v 0.00101285 -0.01718075 0.00417947
v 0.00268770 -0.01673779 0.00417947
v 0.00268770 -0.01673671 0.00373994
f 1 2 6
f 1 6 3
f 1 3 7
f 1 7 4
f 1 4 8
f 1 8 13
f 1 13 17
f 1 17 21
f 1 21 25
f 1 25 29
f 1 29 34
f 1 34 38
f 1 38 43
f 1 43 47
f 1 47 52
f 1 52 58
f 1 58 62
f 1 62 67
f 1 67 73
f 1 73 72
f 1 72 77
f 1 77 83
f 1 83 87
f 1 87 92
f 1 92 98
f 1 98 100
f 1 100 93
f 1 93 88
f 1 88 84
f 1 84 78
f 1 78 74
f 1 74 68
f 1 68 63
f 1 63 59
f 1 59 53
f 1 53 48
f 1 48 44
f 1 44 40
f 1 40 39
f 1 39 35
f 1 35 30
f 1 30 26
f 1 26 23
f 1 23 19
f 1 19 15
f 1 15 10
f 1 10 5
f 1 5 2
f 2 5 6
f 3 6 9
f 3 9 14
f 3 14 18
f 3 18 22
f 3 22 27
f 3 27 32
f 3 32 36
f 3 36 41
f 3 41 45
f 3 45 49
f 3 49 55
f 3 55 60
f 3 60 64
f 3 64 70
f 3 70 75
f 3 75 80
f 3 80 79
f 3 79 85
f 3 85 90
f 3 90 94
f 3 94 95
f 3 95 99
f 3 99 102
f 3 102 101
f 3 101 96
f 3 96 91
f 3 91 86
f 3 86 82
f 3 82 81
f 3 81 76
f 3 76 71
f 3 71 65
f 3 65 61
f 3 61 57
f 3 57 56
f 3 56 50
f 3 50 46
f 3 46 42
f 3 42 37
f 3 37 33
f 3 33 28
f 3 28 24
f 3 24 20
f 3 20 16
f 3 16 12
f 3 12 11
f 3 11 7
f 4 7 11
f 4 11 8
f 5 9 6
f 5 10 9
f 8 11 12
f 8 12 13
f 9 10 15
f 9 15 14
f 12 16 13
f 13 16 20
f 13 20 17
f 14 15 19
f 14 19 18
f 17 20 21
f 18 19 22
f 19 23 22
f 20 24 21
f 21 24 25
f 22 23 26
f 22 26 27
f 24 28 29
f 24 29 25
f 26 30 27
f 27 30 31
f 27 31 32
f 28 33 29
f 29 33 34
f 30 35 31
f 31 35 36
f 31 36 32
f 33 37 34
f 34 37 42
f 34 42 38
f 35 39 36
f 36 39 40
f 36 40 41
f 38 42 46
f 38 46 43
f 40 44 45
f 40 45 41
f 43 46 50
f 43 50 51
f 43 51 47
f 44 48 54
f 44 54 49
f 44 49 45
f 47 51 52
f 48 53 54
f 49 54 55
f 50 56 51
f 51 56 57
f 51 57 58
f 51 58 52
f 53 59 54
f 54 59 55
f 55 59 60
f 57 61 58
f 58 61 62
f 59 63 60
f 60 63 64
f 61 65 66
f 61 66 62
f 62 66 67
f 63 68 69
f 63 69 64
f 64 69 70
f 65 71 66
f 66 71 72
f 66 72 73
f 66 73 67
f 68 74 69
f 69 74 75
f 69 75 70
f 71 76 77
f 71 77 72
f 74 78 79
f 74 79 80
f 74 80 75
f 76 81 77
f 77 81 82
f 77 82 83
f 78 84 85
f 78 85 79
f 82 86 87
f 82 87 83
f 84 88 89
f 84 89 85
f 85 89 90
f 86 91 87
f 87 91 92
f 88 93 89
f 89 94 90
f 89 93 95
f 89 95 94
f 91 96 97
f 91 97 98
f 91 98 92
f 93 99 95
f 93 100 102
f 93 102 99
f 96 101 97
f 97 101 100
f 97 100 98
f 100 101 102

