# https://github.com/mikedh/trimesh
v 0.01024200 -0.01158558 0.00417947
v 0.01021682 -0.01158558 0.00461901
v 0.01023069 -0.01317752 0.00437732
v 0.01024200 -0.01317752 0.00417947
v 0.01024200 -0.01158558 -0.00417947
v 0.01015587 -0.01158558 0.00491915
v 0.01018945 -0.01317752 0.00475390
v 0.01021682 -0.01317752 0.00461901
v 0.01024200 -0.01317752 -0.00417947
v 0.01022850 -0.01317752 -0.00442228
v 0.01021755 -0.01158558 -0.00461900
v 0.01010259 -0.01317752 0.00501807
v 0.01015587 -0.01317752 0.00491915
v 0.01003763 -0.01158558 0.00513835
v 0.01021755 -0.01317752 -0.00461900
v 0.01020733 -0.01158558 -0.00467071
v 0.01003763 -0.01253987 0.00513835
v 0.01003726 -0.01317752 0.00513835
v 0.00985478 -0.01158558 0.00535980
v 0.00993872 -0.01317752 0.00525863
v 0.01018397 -0.01317752 -0.00478537
v 0.01015660 -0.01158558 -0.00492027
v 0.01015660 -0.01317752 -0.00492027
v 0.00981756 -0.01158558 0.00540476
v 0.00981756 -0.01317752 0.00540476
v 0.01013653 -0.01158558 -0.00495736
v 0.01009091 -0.01317752 -0.00504167
v 0.00945990 -0.01158558 0.00562284
v 0.00945990 -0.01317752 0.00562284
v 0.01003763 -0.01158558 -0.00513947
v 0.01003763 -0.01317752 -0.00513947
v 0.00925370 -0.01158558 0.00570153
v 0.00921283 -0.01253987 0.00571839
v 0.00921392 -0.01317752 0.00571839
v 0.01000040 -0.01158558 -0.00518444
v 0.00991646 -0.01317752 -0.00528561
v 0.00921174 -0.01158558 0.00571727
v 0.00902889 -0.01158558 0.00572851
v 0.00899167 -0.01158558 0.00573076
v 0.00899203 -0.01166007 0.00573076
v 0.00911502 -0.01317752 0.00572401
v 0.00981756 -0.01158558 -0.00540476
v 0.00981756 -0.01317752 -0.00540476
v 0.00864934 -0.01158558 0.00573975
v 0.00857964 -0.01210013 0.00574200
v 0.00899313 -0.01253987 0.00573076
v 0.00899386 -0.01317752 0.00573076
v 0.00975698 -0.01158558 -0.00544186
v 0.00962048 -0.01317752 -0.00552505
v 0.00857964 -0.01158558 0.00574088
v 0.00857964 -0.01317752 0.00574200
v 0.00838220 -0.01317752 0.00574200
v 0.00945990 -0.01158558 -0.00562284
v 0.00945990 -0.01317752 -0.00562284
v 0.00837818 -0.01158558 0.00573188
v 0.00799242 -0.01317752 0.00573188
v 0.00812417 -0.01317752 0.00573638
v 0.00941793 -0.01158558 -0.00563971
v 0.00932305 -0.01317752 -0.00567568
v 0.00833913 -0.01158558 0.00572963
v 0.00833767 -0.01166007 0.00573076
v 0.00789279 -0.01317752 0.00572739
v 0.00921246 -0.01166007 -0.00571839
v 0.00921246 -0.01158558 -0.00571839
v 0.00921174 -0.01317752 -0.00571727
v 0.00794170 -0.01278141 0.00571727
v 0.00790338 -0.01307468 0.00572626
v 0.00815665 -0.01158558 0.00560598
v 0.00782747 -0.01317752 0.00570266
v 0.00909057 -0.01317752 -0.00572514
v 0.00899167 -0.01317752 -0.00573076
v 0.00899203 -0.01297993 -0.00573076
v 0.00899240 -0.01210013 -0.00573076
v 0.00899240 -0.01158558 -0.00573076
v 0.00753185 -0.01317752 0.00551043
v 0.00769243 -0.01317752 0.00561722
v 0.00788586 -0.01158558 0.00539128
v 0.00857964 -0.01317752 -0.00574200
v 0.00857964 -0.01210013 -0.00574200
v 0.00857964 -0.01158558 -0.00574088
v 0.00737127 -0.01317752 0.00537779
v 0.00784389 -0.01158558 0.00535418
v 0.00812417 -0.01317752 -0.00573638
v 0.00797381 -0.01317752 -0.00573076
v 0.00789279 -0.01317752 -0.00572739
v 0.00833767 -0.01166007 -0.00573076
v 0.00833913 -0.01158558 -0.00572963
v 0.00727237 -0.01317752 0.00528898
v 0.00766105 -0.01158558 0.00517544
v 0.00689391 -0.01317752 0.00494500
v 0.00703150 -0.01317752 0.00507090
v 0.00769243 -0.01317752 -0.00561722
v 0.00790338 -0.01307468 -0.00572626
v 0.00794170 -0.01278141 -0.00571727
v 0.00811943 -0.01158558 -0.00557338
v 0.00743733 -0.01158558 0.00495512
v 0.00739974 -0.01158558 0.00491802
v 0.00677968 -0.01317752 0.00482135
v 0.00737127 -0.01317752 -0.00537779
v 0.00784389 -0.01158558 -0.00535418
v 0.00721507 -0.01158558 0.00464936
v 0.00668808 -0.01317752 0.00469545
v 0.00689391 -0.01317752 -0.00494500
v 0.00762382 -0.01158558 -0.00513835
v 0.00718223 -0.01158558 0.00459652
v 0.00663589 -0.01317752 0.00461226
v 0.00668808 -0.01317752 -0.00469544
v 0.00739974 -0.01158558 -0.00491802
v 0.00707676 -0.01158558 0.00417947
v 0.00702895 -0.01183397 0.00442566
v 0.00656071 -0.01317752 0.00448186
v 0.00656071 -0.01317752 -0.00448186
v 0.00718223 -0.01158558 -0.00459652
v 0.00651363 -0.01317752 0.00373994
v 0.00651436 -0.01317752 0.00407381
v 0.00651473 -0.01317752 0.00417947
v 0.00654246 -0.01317752 0.00441891
v 0.00707676 -0.01158558 -0.00417947
v 0.00656984 -0.01313420 0.00446163
v 0.00651473 -0.01317752 -0.00417947
v 0.00656984 -0.01313420 -0.00446163
v 0.00702895 -0.01183397 -0.00442566
v 0.00715814 -0.01158558 -0.00450884
v 0.00651363 -0.01317752 -0.00373994
f 1 2 3
f 1 3 4
f 1 4 9
f 1 9 5
f 1 5 11
f 1 11 16
f 1 16 22
f 1 22 26
f 1 26 30
f 1 30 35
f 1 35 42
f 1 42 48
f 1 48 53
f 1 53 58
f 1 58 64
f 1 64 74
f 1 74 80
f 1 80 87
f 1 87 95
f 1 95 100
f 1 100 104
f 1 104 108
f 1 108 113
f 1 113 123
f 1 123 118
f 1 118 109
f 1 109 105
f 1 105 101
f 1 101 97
f 1 97 96
f 1 96 89
f 1 89 82
f 1 82 77
f 1 77 68
f 1 68 60
f 1 60 55
f 1 55 50
f 1 50 44
f 1 44 39
f 1 39 38
f 1 38 37
f 1 37 32
f 1 32 28
f 1 28 24
f 1 24 19
f 1 19 14
f 1 14 6
f 1 6 2
f 2 6 7
f 2 7 8
f 2 8 3
f 3 8 7
f 3 7 13
f 3 13 12
f 3 12 18
f 3 18 20
f 3 20 25
f 3 25 29
f 3 29 34
f 3 34 41
f 3 41 47
f 3 47 51
f 3 51 52
f 3 52 57
f 3 57 56
f 3 56 62
f 3 62 69
f 3 69 76
f 3 76 75
f 3 75 81
f 3 81 88
f 3 88 91
f 3 91 90
f 3 90 98
f 3 98 102
f 3 102 106
f 3 106 111
f 3 111 117
f 3 117 116
f 3 116 115
f 3 115 114
f 3 114 124
f 3 124 120
f 3 120 112
f 3 112 107
f 3 107 103
f 3 103 99
f 3 99 92
f 3 92 85
f 3 85 84
f 3 84 83
f 3 83 78
f 3 78 71
f 3 71 70
f 3 70 65
f 3 65 59
f 3 59 54
f 3 54 49
f 3 49 43
f 3 43 36
f 3 36 31
f 3 31 27
f 3 27 23
f 3 23 21
f 3 21 15
f 3 15 10
f 3 10 9
f 3 9 4
f 5 9 10
f 5 10 11
f 6 12 13
f 6 13 7
f 6 14 12
f 10 15 11
f 11 15 16
f 12 17 18
f 12 14 17
f 14 19 20
f 14 20 17
f 15 21 16
f 16 21 23
f 16 23 22
f 17 20 18
f 19 24 20
f 20 24 25
f 22 23 27
f 22 27 26
f 24 28 29
f 24 29 25
f 26 27 30
f 27 31 30
f 28 32 33
f 28 33 34
f 28 34 29
f 30 31 35
f 31 36 35
f 32 37 33
f 33 37 38
f 33 38 39
f 33 39 40
f 33 40 41
f 33 41 34
f 35 36 42
f 36 43 42
f 39 44 45
f 39 45 40
f 40 46 41
f 40 45 46
f 41 46 47
f 42 43 48
f 43 49 48
f 44 50 45
f 45 51 47
f 45 47 46
f 45 50 52
f 45 52 51
f 48 49 53
f 49 54 53
f 50 55 56
f 50 56 57
f 50 57 52
f 53 54 58
f 54 59 58
f 55 60 61
f 55 61 62
f 55 62 56
f 58 59 63
f 58 63 64
f 59 65 63
f 60 66 67
f 60 67 62
f 60 62 61
f 60 68 66
f 62 67 69
f 63 70 71
f 63 71 72
f 63 72 73
f 63 73 74
f 63 74 64
f 63 65 70
f 66 69 67
f 66 68 75
f 66 75 76
f 66 76 69
f 68 77 75
f 71 78 72
f 72 78 73
f 73 78 79
f 73 79 74
f 74 79 80
f 75 77 81
f 77 82 81
f 78 83 79
f 79 83 80
f 80 83 84
f 80 84 85
f 80 85 86
f 80 86 87
f 81 82 88
f 82 89 90
f 82 90 91
f 82 91 88
f 85 92 93
f 85 93 87
f 85 87 86
f 87 93 94
f 87 94 95
f 89 96 90
f 90 96 97
f 90 97 98
f 92 99 94
f 92 94 93
f 94 99 95
f 95 99 100
f 97 101 102
f 97 102 98
f 99 103 100
f 100 103 104
f 101 105 106
f 101 106 102
f 103 107 108
f 103 108 104
f 105 109 110
f 105 110 111
f 105 111 106
f 107 112 113
f 107 113 108
f 109 114 115
f 109 115 116
f 109 116 117
f 109 117 110
f 109 118 124
f 109 124 114
f 110 119 111
f 110 117 119
f 111 119 117
f 112 120 121
f 112 121 122
f 112 122 113
f 113 122 123
f 118 123 122
f 118 122 121
f 118 121 120
f 118 120 124

