# https://github.com/mikedh/trimesh
v -0.00707532 -0.01159114 0.00373733
v -0.00725015 -0.00990053 0.00417906
v -0.00707563 -0.01159114 0.00417794
v -0.00707532 -0.01159114 -0.00330121
v -0.00736515 -0.00990053 0.00461293
v -0.00715809 -0.01159114 0.00451402
v -0.00707656 -0.01159114 0.00418356
v -0.00725015 -0.00990053 -0.00417906
v -0.00707563 -0.01159114 -0.00418018
v -0.00718071 -0.01159114 0.00459607
v -0.00748511 -0.00990053 0.00483323
v -0.00718071 -0.01159114 -0.00459607
v -0.00736515 -0.00990053 -0.00461293
v -0.00739893 -0.01159114 0.00491866
v -0.00770519 -0.00990053 0.00505466
v -0.00721140 -0.01159114 -0.00464552
v -0.00748511 -0.00990053 -0.00483323
v -0.00792527 -0.00990053 0.00527497
v -0.00762335 -0.01159114 0.00513896
v -0.00739893 -0.01159114 -0.00491866
v -0.00770519 -0.00990053 -0.00505466
v -0.00814504 -0.00990053 0.00548965
v -0.00784343 -0.01159114 0.00535477
v -0.00743365 -0.01159114 -0.00495350
v -0.00792527 -0.00990053 -0.00527497
v -0.00844788 -0.00990053 0.00570884
v -0.00835551 -0.01092483 0.00572232
v -0.00811900 -0.01159114 0.00557396
v -0.00784343 -0.01159114 -0.00535477
v -0.00814504 -0.00990053 -0.00548965
v -0.00866765 -0.00990053 0.00573019
v -0.00834714 -0.01121992 0.00572682
v -0.00833908 -0.01159114 0.00573019
v -0.00788218 -0.01159114 -0.00538849
v -0.00835551 -0.01092483 -0.00572232
v -0.00844788 -0.00990053 -0.00570884
v -0.00896305 -0.00990053 0.00573019
v -0.00858024 -0.01159114 0.00574143
v -0.00815341 -0.01159114 -0.00560318
v -0.00834714 -0.01121992 -0.00572682
v -0.00866765 -0.00990053 -0.00573019
v -0.00918282 -0.00990053 0.00571558
v -0.00896305 -0.01159114 0.00573019
v -0.00833908 -0.01159114 -0.00573019
v -0.00858024 -0.01159114 -0.00574143
v -0.00897669 -0.00990053 -0.00573019
v -0.00918282 -0.01159114 0.00571558
v -0.00945994 -0.00990053 0.00562116
v -0.00897669 -0.01159114 -0.00573019
v -0.00919677 -0.00990053 -0.00571670
v -0.00945994 -0.01077985 0.00562116
v -0.00941654 -0.01159114 0.00563578
v -0.00981672 -0.00990053 0.00540423
v -0.00919677 -0.01159114 -0.00571670
v -0.00923769 -0.01159114 -0.00570209
v -0.00945994 -0.00990053 -0.00562116
v -0.00981672 -0.01159114 0.00540423
v -0.00945994 -0.01159114 0.00562004
v -0.01000239 -0.01159114 0.00518055
v -0.01003680 -0.00990053 0.00513896
v -0.00945994 -0.01159114 -0.00562116
v -0.00951573 -0.01159114 -0.00558744
v -0.00981765 -0.01077985 -0.00540423
v -0.00981734 -0.00990053 -0.00540423
v -0.01003680 -0.01159114 0.00513896
v -0.01015614 -0.00990053 0.00491978
v -0.00981765 -0.01159114 -0.00540423
v -0.01003742 -0.00990053 -0.00513896
v -0.01015614 -0.01159114 0.00491978
v -0.01021720 -0.00990053 0.00461967
v -0.01003742 -0.01159114 -0.00513896
v -0.01015583 -0.00990053 -0.00491866
v -0.01021720 -0.01159114 0.00461967
v -0.01024169 -0.00990053 0.00417906
v -0.01023797 -0.01159114 0.00424763
v -0.01015583 -0.01159114 -0.00491866
v -0.01016544 -0.01159114 -0.00487257
v -0.01021689 -0.00990053 -0.00461967
v -0.01024169 -0.01159114 0.00417906
v -0.01024169 -0.00990053 -0.00417906
v -0.01021689 -0.01159114 -0.00461967
v -0.01022092 -0.01159114 -0.00455111
v -0.01024169 -0.01159114 -0.00417906
f 1 2 3
f 1 3 7
f 1 7 6
f 1 6 10
f 1 10 14
f 1 14 19
f 1 19 23
f 1 23 28
f 1 28 33
f 1 33 38
f 1 38 43
f 1 43 47
f 1 47 52
f 1 52 58
f 1 58 57
f 1 57 59
f 1 59 65
f 1 65 69
f 1 69 73
f 1 73 75
f 1 75 79
f 1 79 83
f 1 83 82
f 1 82 81
f 1 81 77
f 1 77 76
f 1 76 71
f 1 71 67
f 1 67 62
f 1 62 61
f 1 61 55
f 1 55 54
f 1 54 49
f 1 49 45
f 1 45 44
f 1 44 39
f 1 39 34
f 1 34 29
f 1 29 24
f 1 24 20
f 1 20 16
f 1 16 12
f 1 12 9
f 1 9 4
f 1 4 8
f 1 8 2
f 2 5 6
f 2 6 7
f 2 7 3
f 2 8 13
f 2 13 17
f 2 17 21
f 2 21 25
f 2 25 30
f 2 30 36
f 2 36 41
f 2 41 46
f 2 46 50
f 2 50 56
f 2 56 64
f 2 64 68
f 2 68 72
f 2 72 78
f 2 78 80
f 2 80 74
f 2 74 70
f 2 70 66
f 2 66 60
f 2 60 53
f 2 53 48
f 2 48 42
f 2 42 37
f 2 37 31
f 2 31 26
f 2 26 22
f 2 22 18
f 2 18 15
f 2 15 11
f 2 11 5
f 4 9 8
f 5 10 6
f 5 11 10
f 8 9 12
f 8 12 13
f 10 11 14
f 11 15 14
f 12 16 17
f 12 17 13
f 14 15 18
f 14 18 19
f 16 20 17
f 17 20 21
f 18 22 23
f 18 23 19
f 20 24 21
f 21 24 25
f 22 26 27
f 22 27 23
f 23 27 28
f 24 29 25
f 25 29 30
f 26 31 27
f 27 31 32
f 27 32 28
f 28 32 33
f 29 34 30
f 30 34 35
f 30 35 36
f 31 37 38
f 31 38 33
f 31 33 32
f 34 39 35
f 35 40 41
f 35 41 36
f 35 39 40
f 37 42 47
f 37 47 43
f 37 43 38
f 39 44 40
f 40 44 41
f 41 44 45
f 41 45 46
f 42 48 51
f 42 51 47
f 45 49 46
f 46 49 54
f 46 54 50
f 47 51 52
f 48 53 57
f 48 57 51
f 50 54 55
f 50 55 56
f 51 57 58
f 51 58 52
f 53 59 57
f 53 60 59
f 55 61 56
f 56 62 63
f 56 63 64
f 56 61 62
f 59 60 65
f 60 66 69
f 60 69 65
f 62 67 63
f 63 68 64
f 63 67 71
f 63 71 68
f 66 70 73
f 66 73 69
f 68 71 76
f 68 76 72
f 70 74 75
f 70 75 73
f 72 76 77
f 72 77 78
f 74 79 75
f 74 80 83
f 74 83 79
f 77 81 78
f 78 82 80
f 78 81 82
f 80 82 83

