# https://github.com/mikedh/trimesh
v 0.00491454 0.01532997 -0.00373994
v 0.00357316 0.01631102 -0.00373994
v 0.00357263 0.01631238 -0.00418172
v 0.00491454 0.01533268 -0.00417947
v 0.00491454 0.01532997 0.00373994
v 0.00357263 0.01631170 -0.00373994
v 0.00357316 0.01631102 0.00373994
v 0.00357263 0.01645175 -0.00464036
v 0.00436706 0.01581576 -0.00444477
v 0.00491454 0.01549438 -0.00461900
v 0.00491454 0.01533268 0.00417947
v 0.00357263 0.01631238 0.00417723
v 0.00357263 0.01631170 0.00373882
v 0.00357263 0.01654309 -0.00476626
v 0.00357263 0.01665067 -0.00490003
v 0.00491454 0.01551806 -0.00464823
v 0.00357368 0.01631170 0.00417947
v 0.00491454 0.01549438 0.00461901
v 0.00436706 0.01581576 0.00444477
v 0.00357263 0.01645175 0.00464036
v 0.00357263 0.01640304 0.00448299
v 0.00357263 0.01674201 -0.00498434
v 0.00491454 0.01573322 -0.00490228
v 0.00491454 0.01573322 0.00490228
v 0.00357263 0.01665067 0.00490004
v 0.00357263 0.01719262 -0.00538228
v 0.00491454 0.01580020 -0.00495849
v 0.00491454 0.01604039 0.00513835
v 0.00357263 0.01739492 0.00553516
v 0.00357263 0.01712090 0.00531371
v 0.00357263 0.01702618 0.00523277
v 0.00357263 0.01689424 0.00511699
v 0.00357263 0.01739492 -0.00553516
v 0.00491454 0.01611820 -0.00520017
v 0.00491454 0.01617977 0.00524402
v 0.00357263 0.01762564 0.00570715
v 0.00357263 0.01762564 -0.00570715
v 0.00491454 0.01625284 -0.00530022
v 0.00491454 0.01651806 0.00548795
v 0.00439582 0.01715811 0.00572064
v 0.00357263 0.01765270 0.00571615
v 0.00357263 0.01763917 -0.00571615
v 0.00439582 0.01715811 -0.00572064
v 0.00491454 0.01651806 -0.00548795
v 0.00491454 0.01683809 0.00568130
v 0.00491454 0.01702279 0.00573076
v 0.00385491 0.01757963 0.00572626
v 0.00357263 0.01785162 0.00573188
v 0.00357263 0.01785162 -0.00573188
v 0.00385491 0.01757963 -0.00572626
v 0.00491454 0.01686177 -0.00569366
v 0.00491454 0.01683809 -0.00568130
v 0.00491454 0.01661752 -0.00555427
v 0.00491454 0.01702279 -0.00573076
v 0.00491454 0.01738003 0.00573975
v 0.00461991 0.01738003 0.00573638
v 0.00418001 0.01782049 0.00574200
v 0.00357263 0.01826028 0.00574200
v 0.00357263 0.01796325 -0.00573526
v 0.00491454 0.01711346 -0.00573413
v 0.00491454 0.01782049 0.00574200
v 0.00357263 0.02045986 0.00574200
v 0.00357263 0.01826028 -0.00574200
v 0.00418001 0.01782049 -0.00574200
v 0.00491454 0.01738003 -0.00573975
v 0.00491454 0.02045986 0.00574200
v 0.00491454 0.02075418 0.00573975
v 0.00357263 0.02089965 0.00573863
v 0.00357263 0.02045986 -0.00574200
v 0.00491454 0.01752550 -0.00574200
v 0.00491454 0.02089965 0.00573863
v 0.00357263 0.02105391 0.00573188
v 0.00357263 0.02089965 -0.00573750
v 0.00491454 0.02045986 -0.00574200
v 0.00491454 0.02114931 0.00572739
v 0.00357263 0.02114931 0.00572739
v 0.00491454 0.02098151 -0.00573413
v 0.00491454 0.02089965 -0.00573750
v 0.00357263 0.02114728 -0.00572626
v 0.00491454 0.02129613 0.00568355
v 0.00357263 0.02136920 0.00566106
v 0.00491454 0.02114728 -0.00572626
v 0.00357263 0.02136717 -0.00566106
v 0.00491454 0.02121967 -0.00570490
v 0.00491454 0.02136920 0.00566106
v 0.00357263 0.02161142 0.00552505
v 0.00357263 0.02151602 -0.00557788
v 0.00491454 0.02136717 -0.00566106
v 0.00491454 0.02163104 0.00551380
v 0.00491454 0.02176027 0.00544074
v 0.00357263 0.02176027 0.00544074
v 0.00357263 0.02175959 -0.00544074
v 0.00491454 0.02175959 -0.00544074
v 0.00491454 0.02190776 0.00531484
v 0.00357263 0.02189694 0.00532383
v 0.00357263 0.02184349 -0.00536879
v 0.00491454 0.02197948 -0.00525076
v 0.00491454 0.02198084 0.00525188
v 0.00357263 0.02198084 0.00525188
v 0.00357263 0.02197948 -0.00525076
v 0.00357263 0.02202414 -0.00516645
v 0.00491454 0.02209586 -0.00503043
v 0.00491454 0.02205797 0.00510462
v 0.00357263 0.02205188 0.00511587
v 0.00357263 0.02209586 -0.00503043
v 0.00357263 0.02214187 -0.00487418
v 0.00491454 0.02221697 -0.00461900
v 0.00491454 0.02209586 0.00503156
v 0.00357263 0.02209586 0.00503156
v 0.00357263 0.02221697 -0.00461900
v 0.00491454 0.02224200 -0.00417947
v 0.00491454 0.02217705 0.00475615
v 0.00357263 0.02217096 0.00477638
v 0.00357263 0.02224200 -0.00417947
v 0.00491454 0.02224200 0.00417947
v 0.00357263 0.02221697 0.00461901
v 0.00491454 0.02221697 0.00461901
v 0.00357263 0.02224200 0.00417947
v 0.00357263 0.02223253 0.00434697
f 1 2 3
f 1 3 4
f 1 4 10
f 1 10 16
f 1 16 23
f 1 23 27
f 1 27 34
f 1 34 38
f 1 38 44
f 1 44 53
f 1 53 52
f 1 52 51
f 1 51 54
f 1 54 60
f 1 60 65
f 1 65 70
f 1 70 74
f 1 74 78
f 1 78 77
f 1 77 82
f 1 82 84
f 1 84 88
f 1 88 93
f 1 93 97
f 1 97 102
f 1 102 107
f 1 107 111
f 1 111 115
f 1 115 117
f 1 117 112
f 1 112 108
f 1 108 103
f 1 103 98
f 1 98 94
f 1 94 90
f 1 90 89
f 1 89 85
f 1 85 80
f 1 80 75
f 1 75 71
f 1 71 67
f 1 67 66
f 1 66 61
f 1 61 55
f 1 55 46
f 1 46 45
f 1 45 39
f 1 39 35
f 1 35 28
f 1 28 24
f 1 24 18
f 1 18 11
f 1 11 5
f 1 5 7
f 1 7 2
f 2 6 3
f 2 7 13
f 2 13 6
f 3 6 13
f 3 13 12
f 3 12 21
f 3 21 20
f 3 20 25
f 3 25 32
f 3 32 31
f 3 31 30
f 3 30 29
f 3 29 36
f 3 36 41
f 3 41 48
f 3 48 58
f 3 58 62
f 3 62 68
f 3 68 72
f 3 72 76
f 3 76 81
f 3 81 86
f 3 86 91
f 3 91 95
f 3 95 99
f 3 99 104
f 3 104 109
f 3 109 113
f 3 113 116
f 3 116 119
f 3 119 118
f 3 118 114
f 3 114 110
f 3 110 106
f 3 106 105
f 3 105 101
f 3 101 100
f 3 100 96
f 3 96 92
f 3 92 87
f 3 87 83
f 3 83 79
f 3 79 73
f 3 73 69
f 3 69 63
f 3 63 59
f 3 59 49
f 3 49 42
f 3 42 37
f 3 37 33
f 3 33 26
f 3 26 22
f 3 22 15
f 3 15 14
f 3 14 8
f 3 8 4
f 4 8 9
f 4 9 10
f 5 11 12
f 5 12 7
f 7 12 13
f 8 14 10
f 8 10 9
f 10 14 15
f 10 15 16
f 11 17 12
f 11 18 19
f 11 19 20
f 11 20 21
f 11 21 17
f 12 17 21
f 15 22 23
f 15 23 16
f 18 24 25
f 18 25 20
f 18 20 19
f 22 26 23
f 23 26 27
f 24 28 29
f 24 29 30
f 24 30 31
f 24 31 32
f 24 32 25
f 26 33 34
f 26 34 27
f 28 35 29
f 29 35 36
f 33 37 34
f 34 37 38
f 35 39 36
f 36 40 41
f 36 39 40
f 37 42 43
f 37 43 44
f 37 44 38
f 39 45 40
f 40 46 47
f 40 47 41
f 40 45 46
f 41 47 48
f 42 49 50
f 42 50 43
f 43 51 52
f 43 52 53
f 43 53 44
f 43 50 54
f 43 54 51
f 46 55 56
f 46 56 57
f 46 57 48
f 46 48 47
f 48 57 58
f 49 54 50
f 49 59 60
f 49 60 54
f 55 61 57
f 55 57 56
f 57 61 66
f 57 66 62
f 57 62 58
f 59 63 64
f 59 64 60
f 60 64 65
f 62 66 67
f 62 67 68
f 63 69 74
f 63 74 70
f 63 70 64
f 64 70 65
f 67 71 68
f 68 71 72
f 69 73 78
f 69 78 74
f 71 75 72
f 72 75 76
f 73 77 78
f 73 79 77
f 75 80 76
f 76 80 81
f 77 79 82
f 79 83 84
f 79 84 82
f 80 85 81
f 81 85 86
f 83 87 88
f 83 88 84
f 85 89 86
f 86 89 90
f 86 90 91
f 87 92 93
f 87 93 88
f 90 94 91
f 91 94 95
f 92 96 93
f 93 96 97
f 94 98 99
f 94 99 95
f 96 100 97
f 97 100 101
f 97 101 102
f 98 103 99
f 99 103 104
f 101 105 102
f 102 105 106
f 102 106 107
f 103 108 109
f 103 109 104
f 106 110 107
f 107 110 114
f 107 114 111
f 108 112 109
f 109 112 113
f 111 114 118
f 111 118 115
f 112 116 113
f 112 117 116
f 115 118 119
f 115 119 117
f 116 117 119

