# https://github.com/mikedh/trimesh
v 0.00309983 -0.00013048 0.00325441
v 0.00285991 -0.00013048 0.00322631
v 0.00309983 -0.00039234 0.00324356
v 0.00324857 -0.00065421 0.00316054
v 0.00325279 -0.00039234 0.00316820
v 0.00325110 -0.00013048 0.00316820
v 0.00309983 0.00013075 0.00324356
v 0.00285122 0.00039262 0.00321610
v 0.00285170 0.00013075 0.00322631
v 0.00272070 0.00013075 0.00311967
v 0.00235134 -0.00008130 0.00278443
v 0.00235134 -0.00013048 0.00278123
v 0.00287571 -0.00039234 0.00321546
v 0.00290164 -0.00065421 0.00319311
v 0.00309983 -0.00065421 0.00321354
v 0.00324037 -0.00083687 0.00315032
v 0.00358355 -0.00045557 0.00277485
v 0.00358355 -0.00019562 0.00279784
v 0.00358355 0.00006624 0.00279720
v 0.00358355 0.00013075 0.00279337
v 0.00324302 0.00013075 0.00315735
v 0.00323506 0.00029362 0.00314649
v 0.00311938 0.00038559 0.00320460
v 0.00306341 0.00065448 0.00319502
v 0.00286365 0.00065448 0.00319502
v 0.00272022 0.00039262 0.00312350
v 0.00273265 0.00065448 0.00311584
v 0.00235134 0.00013075 0.00278890
v 0.00235134 -0.00036168 0.00273270
v 0.00235134 -0.00039106 0.00272632
v 0.00294037 -0.00091671 0.00316118
v 0.00296521 -0.00105403 0.00314266
v 0.00299501 -0.00105403 0.00314266
v 0.00308934 -0.00092118 0.00316310
v 0.00316968 -0.00101188 0.00312989
v 0.00324230 -0.00158990 0.00288851
v 0.00326678 -0.00144044 0.00291853
v 0.00329549 -0.00117858 0.00296897
v 0.00358355 -0.00071361 0.00272313
v 0.00358355 0.00033258 0.00277676
v 0.00358355 0.00039262 0.00277102
v 0.00321986 0.00046798 0.00312670
v 0.00319441 0.00065448 0.00309796
v 0.00300961 0.00091635 0.00316246
v 0.00291527 0.00091635 0.00316246
v 0.00278439 0.00091635 0.00309605
v 0.00235134 0.00044116 0.00277102
v 0.00235134 0.00018057 0.00278954
v 0.00269175 0.00137940 0.00289937
v 0.00267378 0.00117821 0.00293130
v 0.00235134 0.00070047 0.00272951
v 0.00235134 -0.00073404 0.00261010
v 0.00235134 -0.00098569 0.00251815
v 0.00235134 -0.00128460 0.00239810
v 0.00235134 -0.00144108 0.00233105
v 0.00235134 -0.00149409 0.00230678
v 0.00295822 -0.00158862 0.00288787
v 0.00309983 -0.00159820 0.00289362
v 0.00309983 -0.00172913 0.00280742
v 0.00309983 -0.00191883 0.00267587
v 0.00327330 -0.00189903 0.00266182
v 0.00330213 -0.00168698 0.00274803
v 0.00358355 -0.00122712 0.00253092
v 0.00358355 -0.00107191 0.00260244
v 0.00358355 0.00066790 0.00269950
v 0.00314061 0.00091635 0.00304688
v 0.00358355 0.00118907 0.00249516
v 0.00297342 0.00105367 0.00314202
v 0.00296075 0.00105367 0.00314202
v 0.00272432 0.00155377 0.00287127
v 0.00235134 0.00093232 0.00265672
v 0.00235134 -0.00168953 0.00220717
v 0.00235134 -0.00183644 0.00211266
v 0.00294302 -0.00188178 0.00265033
v 0.00309983 -0.00204976 0.00257434
v 0.00328934 -0.00217558 0.00242492
v 0.00334314 -0.00197759 0.00250154
v 0.00345183 -0.00172594 0.00248622
v 0.00358355 -0.00157649 0.00233169
v 0.00303289 0.00144008 0.00293194
v 0.00358355 0.00179009 0.00202326
v 0.00301527 0.00189930 0.00266438
v 0.00298970 0.00159720 0.00289298
v 0.00289899 0.00159720 0.00289298
v 0.00282227 0.00169173 0.00281572
v 0.00283807 0.00191783 0.00267396
v 0.00268548 0.00187950 0.00264522
v 0.00235134 0.00145158 0.00241278
v 0.00235134 -0.00199483 0.00198686
v 0.00235134 -0.00213407 0.00187192
v 0.00294290 -0.00214620 0.00240257
v 0.00309983 -0.00219347 0.00244343
v 0.00309983 -0.00232440 0.00231700
v 0.00329658 -0.00242978 0.00217332
v 0.00347125 -0.00230077 0.00204242
v 0.00347040 -0.00196417 0.00230614
v 0.00349163 -0.00182941 0.00235212
v 0.00358355 -0.00188945 0.00213373
v 0.00358355 0.00192102 0.00191790
v 0.00283807 0.00204876 0.00257881
v 0.00358355 0.00203535 0.00182467
v 0.00358355 0.00220779 0.00168099
v 0.00301624 0.00217011 0.00242108
v 0.00283807 0.00233553 0.00233296
v 0.00283807 0.00220460 0.00244790
v 0.00235134 0.00172749 0.00221738
v 0.00235134 0.00155824 0.00233935
v 0.00266956 0.00216564 0.00241214
v 0.00235134 -0.00226756 0.00174038
v 0.00235134 -0.00239977 0.00160755
v 0.00295014 -0.00239082 0.00213629
v 0.00309983 -0.00243681 0.00218545
v 0.00329067 -0.00266802 0.00189874
v 0.00346534 -0.00256838 0.00177167
v 0.00350840 -0.00239338 0.00186745
v 0.00358355 -0.00231099 0.00178444
v 0.00358355 -0.00217239 0.00191215
v 0.00358355 -0.00203762 0.00203092
v 0.00350442 -0.00212640 0.00211777
v 0.00358355 0.00243772 0.00138661
v 0.00300900 0.00241729 0.00216566
v 0.00283807 0.00245178 0.00220206
v 0.00266292 0.00266574 0.00189619
v 0.00266196 0.00242367 0.00216502
v 0.00235134 0.00185843 0.00210116
v 0.00260948 0.00224228 0.00224101
v 0.00235134 -0.00251090 0.00146707
v 0.00235134 -0.00263608 0.00129977
v 0.00296618 -0.00262331 0.00183744
v 0.00309983 -0.00256774 0.00201815
v 0.00319501 -0.00289539 0.00159351
v 0.00325918 -0.00289539 0.00159351
v 0.00344459 -0.00282642 0.00143770
v 0.00350333 -0.00264119 0.00159670
v 0.00358355 -0.00243809 0.00164268
v 0.00348741 -0.00287368 0.00129210
v 0.00358355 0.00252970 0.00124677
v 0.00299296 0.00265041 0.00188022
v 0.00283807 0.00258271 0.00204816
v 0.00245617 0.00259484 0.00153604
v 0.00248102 0.00249968 0.00171739
v 0.00260442 0.00250159 0.00197473
v 0.00268777 0.00289503 0.00159287
v 0.00262336 0.00275196 0.00168801
v 0.00250792 0.00274685 0.00144408
v 0.00235134 0.00201171 0.00196132
v 0.00235134 -0.00272486 0.00115737
v 0.00309983 -0.00265908 0.00188725
v 0.00235134 -0.00281875 0.00096197
v 0.00235134 -0.00284238 0.00091152
v 0.00322722 -0.00314449 0.00104881
v 0.00323590 -0.00314449 0.00104881
v 0.00331359 -0.00293308 0.00143770
v 0.00358355 -0.00255369 0.00150666
v 0.00358355 -0.00284111 0.00103029
v 0.00358355 -0.00275680 0.00117716
v 0.00358355 -0.00265141 0.00135788
v 0.00358355 -0.00260287 0.00143195
v 0.00347909 -0.00313299 0.00075252
v 0.00351262 -0.00291775 0.00111778
v 0.00358355 0.00264786 0.00105073
v 0.00295798 0.00287715 0.00155902
v 0.00283807 0.00267787 0.00191662
v 0.00242637 0.00265680 0.00136107
v 0.00235134 0.00257441 0.00127359
v 0.00235134 0.00246902 0.00141215
v 0.00235134 0.00234831 0.00156796
v 0.00278331 0.00289503 0.00159287
v 0.00270261 0.00314540 0.00105073
v 0.00264616 0.00293399 0.00143770
v 0.00246437 0.00284394 0.00117525
v 0.00235134 -0.00290561 0.00074358
v 0.00235134 -0.00300972 0.00040961
v 0.00319561 -0.00316429 0.00091344
v 0.00336172 -0.00324859 0.00038981
v 0.00235134 -0.00293946 0.00065162
v 0.00235134 -0.00296118 0.00058394
v 0.00328994 -0.00316429 0.00091344
v 0.00342094 -0.00309722 0.00091344
v 0.00353952 -0.00296629 0.00091344
v 0.00358355 -0.00289348 0.00091471
v 0.00337981 -0.00319367 0.00065993
v 0.00350333 -0.00315598 0.00057819
v 0.00358355 -0.00299567 0.00065865
v 0.00358355 -0.00292477 0.00084192
v 0.00358355 0.00273153 0.00090130
v 0.00358355 0.00281903 0.00069122
v 0.00358355 0.00283499 0.00064843
v 0.00289453 0.00310452 0.00091344
v 0.00271624 0.00314540 0.00105073
v 0.00285761 0.00282094 0.00168801
v 0.00235134 0.00267277 0.00110500
v 0.00266968 0.00316456 0.00091344
v 0.00248765 0.00309111 0.00065162
v 0.00261503 0.00301958 0.00115290
v 0.00244519 0.00288098 0.00104370
v 0.00251998 0.00300808 0.00093962
v 0.00235134 -0.00301547 0.00038024
v 0.00315484 -0.00319622 0.00065162
v 0.00235134 -0.00305379 0.00016695
v 0.00336172 -0.00327414 0.00012800
v 0.00351757 -0.00317451 0.00038981
v 0.00358355 -0.00305762 0.00044920
v 0.00358355 -0.00300653 0.00062225
v 0.00358355 0.00288737 0.00045878
v 0.00276353 0.00316456 0.00091344
v 0.00358355 0.00290397 0.00038981
v 0.00235134 0.00276410 0.00092621
v 0.00261865 0.00319586 0.00065162
v 0.00246003 0.00312432 0.00044218
v 0.00242480 0.00291866 0.00086937
v 0.00235134 0.00283755 0.00077295
v 0.00314073 -0.00321730 0.00038981
v 0.00235134 -0.00305890 0.00012800
v 0.00336172 -0.00327797 -0.00013381
v 0.00353976 -0.00319878 -0.00013381
v 0.00353192 -0.00319175 0.00012800
v 0.00235134 -0.00307742 -0.00013381
v 0.00358355 -0.00311830 0.00012098
v 0.00358355 -0.00309595 0.00027232
v 0.00281660 0.00319586 0.00065162
v 0.00358355 0.00293144 0.00025508
v 0.00282866 0.00321757 0.00038981
v 0.00257607 0.00323801 0.00012800
v 0.00255882 0.00320352 0.00036874
v 0.00244398 0.00314476 0.00026721
v 0.00235134 0.00296529 0.00037449
v 0.00235134 0.00290972 0.00056670
v 0.00235134 0.00288098 0.00065290
v 0.00240128 0.00296018 0.00065162
v 0.00235134 -0.00307423 -0.00007762
v 0.00336172 -0.00326201 -0.00039562
v 0.00353602 -0.00318536 -0.00065743
v 0.00354181 -0.00319622 -0.00039562
v 0.00235134 -0.00307934 -0.00033368
v 0.00235134 -0.00307870 -0.00039562
v 0.00358355 -0.00313810 -0.00013381
v 0.00358355 -0.00312660 0.00003030
v 0.00358355 0.00296720 0.00004627
v 0.00358355 0.00298892 -0.00013381
v 0.00358355 0.00295699 0.00012800
v 0.00282673 0.00322715 0.00012800
v 0.00257607 0.00324695 -0.00013381
v 0.00242975 0.00316392 -0.00013381
v 0.00243771 0.00315370 0.00012800
v 0.00235134 0.00300680 0.00012800
v 0.00235134 0.00297742 0.00030872
v 0.00336172 -0.00322879 -0.00065743
v 0.00351214 -0.00316045 -0.00091924
v 0.00235134 -0.00306018 -0.00061018
v 0.00235134 -0.00305507 -0.00065743
v 0.00358355 -0.00306401 -0.00091924
v 0.00358355 -0.00308892 -0.00080239
v 0.00358355 -0.00311894 -0.00065743
v 0.00358355 -0.00313746 -0.00040073
v 0.00358355 0.00299148 -0.00039562
v 0.00281696 0.00322524 -0.00013381
v 0.00257607 0.00323801 -0.00039562
v 0.00243216 0.00315818 -0.00065743
v 0.00242818 0.00316456 -0.00039562
v 0.00235134 0.00303874 -0.00039562
v 0.00235134 0.00303810 -0.00035092
v 0.00235134 0.00303299 -0.00013381
v 0.00235134 0.00302980 -0.00009996
v 0.00320852 -0.00316365 -0.00085922
v 0.00338452 -0.00316940 -0.00093584
v 0.00349320 -0.00314321 -0.00105142
v 0.00356618 -0.00301802 -0.00115551
v 0.00358355 -0.00299375 -0.00115870
v 0.00235134 -0.00300078 -0.00089562
v 0.00358355 0.00296976 -0.00065743
v 0.00280176 0.00321566 -0.00039562
v 0.00277631 0.00319522 -0.00065743
v 0.00257607 0.00321055 -0.00065743
v 0.00243892 0.00314987 -0.00082282
v 0.00235134 0.00302469 -0.00065743
v 0.00331226 -0.00313491 -0.00103355
v 0.00235134 -0.00299695 -0.00091094
v 0.00235134 -0.00292861 -0.00117020
v 0.00348693 -0.00314321 -0.00105142
v 0.00351105 -0.00289412 -0.00159740
v 0.00354700 -0.00293116 -0.00144350
v 0.00358355 -0.00297906 -0.00119829
v 0.00270948 0.00314476 -0.00105398
v 0.00273518 0.00316328 -0.00091924
v 0.00358355 0.00295379 -0.00073981
v 0.00269356 0.00314476 -0.00105398
v 0.00259416 0.00316328 -0.00091413
v 0.00251889 0.00312816 -0.00099779
v 0.00243747 0.00288801 -0.00158718
v 0.00241479 0.00291611 -0.00144350
v 0.00238548 0.00296529 -0.00118105
v 0.00235134 0.00291228 -0.00118616
v 0.00235134 0.00297040 -0.00097288
v 0.00235134 0.00298573 -0.00091477
v 0.00235134 -0.00285963 -0.00136688
v 0.00235134 -0.00283025 -0.00144350
v 0.00342577 -0.00289412 -0.00159740
v 0.00354700 -0.00266674 -0.00190199
v 0.00358355 -0.00275680 -0.00168935
v 0.00358355 -0.00276382 -0.00167658
v 0.00358355 -0.00288262 -0.00144670
v 0.00358355 0.00291355 -0.00092627
v 0.00358355 0.00286948 -0.00110187
v 0.00358355 0.00284713 -0.00118105
v 0.00358355 0.00276793 -0.00139880
v 0.00358355 0.00275388 -0.00143712
v 0.00271805 0.00289120 -0.00159101
v 0.00257607 0.00289375 -0.00159676
v 0.00257607 0.00280945 -0.00172766
v 0.00257607 0.00267851 -0.00191923
v 0.00240587 0.00266255 -0.00189880
v 0.00237981 0.00275005 -0.00168680
v 0.00235134 0.00275005 -0.00159484
v 0.00235134 0.00282094 -0.00144350
v 0.00235134 -0.00269101 -0.00172128
v 0.00235134 -0.00255497 -0.00193456
v 0.00235134 -0.00239913 -0.00214592
v 0.00336172 -0.00266227 -0.00189625
v 0.00336172 -0.00255305 -0.00202715
v 0.00356727 -0.00242787 -0.00217721
v 0.00358355 -0.00260287 -0.00193264
v 0.00358355 -0.00274658 -0.00170595
v 0.00358355 0.00262742 -0.00170021
v 0.00358355 0.00244411 -0.00198948
v 0.00257607 0.00257568 -0.00205014
v 0.00235134 0.00270023 -0.00169382
v 0.00238994 0.00242559 -0.00217594
v 0.00235134 0.00248371 -0.00202843
v 0.00235134 0.00253353 -0.00196329
v 0.00235134 -0.00231801 -0.00224043
v 0.00357547 -0.00217367 -0.00243008
v 0.00358355 -0.00218133 -0.00241412
v 0.00358355 -0.00239657 -0.00219254
v 0.00358355 -0.00244256 -0.00213571
v 0.00235134 -0.00215578 -0.00241540
v 0.00340804 -0.00217367 -0.00243008
v 0.00358355 0.00225633 -0.00222000
v 0.00358355 0.00221929 -0.00226470
v 0.00257607 0.00244475 -0.00219573
v 0.00257607 0.00231957 -0.00232728
v 0.00238307 0.00217394 -0.00243008
v 0.00235134 0.00219502 -0.00235665
v 0.00235134 0.00234256 -0.00220084
v 0.00357318 -0.00189903 -0.00266891
v 0.00358355 -0.00215706 -0.00243902
v 0.00235134 -0.00205104 -0.00251182
v 0.00235134 -0.00188434 -0.00265869
v 0.00342939 -0.00189903 -0.00266891
v 0.00358355 0.00199447 -0.00248692
v 0.00358355 0.00195615 -0.00252395
v 0.00257607 0.00218863 -0.00243902
v 0.00238862 0.00189866 -0.00266955
v 0.00235134 0.00209666 -0.00245499
v 0.00235134 0.00192741 -0.00259803
v 0.00353566 -0.00159309 -0.00289624
v 0.00358355 -0.00186965 -0.00268359
v 0.00358355 -0.00190989 -0.00265167
v 0.00235134 -0.00166207 -0.00282599
v 0.00347149 -0.00159309 -0.00289624
v 0.00358355 0.00172941 -0.00270467
v 0.00257607 0.00202193 -0.00256993
v 0.00235134 0.00178434 -0.00270658
v 0.00248053 0.00159401 -0.00289687
v 0.00242046 0.00159401 -0.00289687
v 0.00349887 -0.00104956 -0.00314655
v 0.00358355 -0.00113578 -0.00308653
v 0.00358355 -0.00151006 -0.00291859
v 0.00358355 -0.00164546 -0.00283557
v 0.00235134 -0.00148324 -0.00293008
v 0.00349139 -0.00104956 -0.00314655
v 0.00358355 0.00160806 -0.00279407
v 0.00235134 0.00165085 -0.00279215
v 0.00358355 0.00147074 -0.00288027
v 0.00358355 0.00139665 -0.00291922
v 0.00358355 0.00099427 -0.00310888
v 0.00244700 0.00104984 -0.00314655
v 0.00236763 0.00144008 -0.00293455
v 0.00235134 0.00144008 -0.00292050
v 0.00244266 0.00104984 -0.00314655
v 0.00235134 -0.00070339 -0.00321424
v 0.00358355 -0.00065421 -0.00321999
v 0.00358355 -0.00093970 -0.00316507
v 0.00235134 -0.00122776 -0.00303800
v 0.00235134 -0.00106106 -0.00310632
v 0.00235134 -0.00089116 -0.00317465
v 0.00358355 0.00096936 -0.00311909
v 0.00358355 0.00086078 -0.00315869
v 0.00358355 0.00069855 -0.00319828
v 0.00358355 0.00046287 -0.00323595
v 0.00235134 0.00135322 -0.00296073
v 0.00235134 0.00039262 -0.00323914
v 0.00239308 0.00091635 -0.00316507
v 0.00235134 0.00091635 -0.00314272
v 0.00235134 0.00113606 -0.00305141
v 0.00235134 -0.00065421 -0.00322126
v 0.00358355 -0.00039234 -0.00325319
v 0.00358355 0.00039262 -0.00324489
v 0.00235134 0.00013075 -0.00326405
v 0.00235134 0.00079819 -0.00317720
v 0.00235134 -0.00044663 -0.00324745
v 0.00235134 -0.00039234 -0.00325319
v 0.00358355 -0.00013048 -0.00326916
v 0.00358355 0.00013075 -0.00326596
v 0.00235134 -0.00013048 -0.00326788
v 0.00235134 -0.00017902 -0.00326533
f 1 2 3
f 1 3 4
f 1 4 5
f 1 5 6
f 1 6 7
f 1 7 8
f 1 8 9
f 1 9 2
f 2 9 10
f 2 10 11
f 2 11 12
f 2 12 13
f 2 13 3
f 3 13 14
f 3 14 15
f 3 15 16
f 3 16 4
f 4 17 18
f 4 18 5
f 4 16 17
f 5 18 19
f 5 19 6
f 6 19 20
f 6 20 21
f 6 21 7
f 7 21 22
f 7 22 23
f 7 23 24
f 7 24 25
f 7 25 8
f 8 26 9
f 8 25 27
f 8 27 26
f 9 26 10
f 10 28 11
f 10 26 28
f 11 28 48
f 11 48 47
f 11 47 51
f 11 51 71
f 11 71 88
f 11 88 107
f 11 107 106
f 11 106 125
f 11 125 146
f 11 146 167
f 11 167 166
f 11 166 165
f 11 165 192
f 11 192 208
f 11 208 212
f 11 212 229
f 11 229 228
f 11 228 227
f 11 227 247
f 11 247 246
f 11 246 264
f 11 264 263
f 11 263 262
f 11 262 261
f 11 261 276
f 11 276 295
f 11 295 294
f 11 294 293
f 11 293 315
f 11 315 314
f 11 314 327
f 11 327 330
f 11 330 329
f 11 329 344
f 11 344 343
f 11 343 354
f 11 354 355
f 11 355 363
f 11 363 373
f 11 373 379
f 11 379 391
f 11 391 395
f 11 395 394
f 11 394 400
f 11 400 392
f 11 392 399
f 11 399 405
f 11 405 406
f 11 406 402
f 11 402 401
f 11 401 396
f 11 396 381
f 11 381 386
f 11 386 385
f 11 385 384
f 11 384 370
f 11 370 359
f 11 359 348
f 11 348 347
f 11 347 336
f 11 336 331
f 11 331 318
f 11 318 317
f 11 317 316
f 11 316 297
f 11 297 296
f 11 296 279
f 11 279 278
f 11 278 270
f 11 270 251
f 11 251 250
f 11 250 236
f 11 236 235
f 11 235 218
f 11 218 231
f 11 231 214
f 11 214 200
f 11 200 198
f 11 198 173
f 11 173 177
f 11 177 176
f 11 176 172
f 11 172 150
f 11 150 149
f 11 149 147
f 11 147 128
f 11 128 127
f 11 127 110
f 11 110 109
f 11 109 90
f 11 90 89
f 11 89 73
f 11 73 72
f 11 72 56
f 11 56 55
f 11 55 54
f 11 54 53
f 11 53 52
f 11 52 30
f 11 30 29
f 11 29 12
f 12 29 14
f 12 14 13
f 14 29 30
f 14 30 31
f 14 31 15
f 15 31 32
f 15 32 33
f 15 33 34
f 15 34 35
f 15 35 16
f 16 35 36
f 16 36 37
f 16 37 38
f 16 38 39
f 16 39 17
f 17 39 64
f 17 64 63
f 17 63 79
f 17 79 98
f 17 98 118
f 17 118 117
f 17 117 116
f 17 116 135
f 17 135 154
f 17 154 158
f 17 158 157
f 17 157 156
f 17 156 155
f 17 155 181
f 17 181 185
f 17 185 184
f 17 184 204
f 17 204 203
f 17 203 220
f 17 220 219
f 17 219 238
f 17 238 237
f 17 237 255
f 17 255 254
f 17 254 253
f 17 253 252
f 17 252 269
f 17 269 283
f 17 283 302
f 17 302 301
f 17 301 300
f 17 300 323
f 17 323 322
f 17 322 335
f 17 335 334
f 17 334 333
f 17 333 346
f 17 346 358
f 17 358 357
f 17 357 369
f 17 369 368
f 17 368 367
f 17 367 383
f 17 383 382
f 17 382 397
f 17 397 403
f 17 403 404
f 17 404 398
f 17 398 390
f 17 390 389
f 17 389 388
f 17 388 387
f 17 387 376
f 17 376 375
f 17 375 374
f 17 374 372
f 17 372 361
f 17 361 351
f 17 351 350
f 17 350 339
f 17 339 338
f 17 338 325
f 17 325 324
f 17 324 307
f 17 307 306
f 17 306 305
f 17 305 304
f 17 304 303
f 17 303 286
f 17 286 271
f 17 271 256
f 17 256 240
f 17 240 239
f 17 239 241
f 17 241 222
f 17 222 207
f 17 207 205
f 17 205 188
f 17 188 187
f 17 187 186
f 17 186 161
f 17 161 137
f 17 137 120
f 17 120 102
f 17 102 101
f 17 101 99
f 17 99 81
f 17 81 67
f 17 67 65
f 17 65 41
f 17 41 40
f 17 40 20
f 17 20 19
f 17 19 18
f 20 40 21
f 21 40 41
f 21 41 22
f 22 41 42
f 22 42 24
f 22 24 23
f 24 42 43
f 24 43 44
f 24 44 45
f 24 45 25
f 25 45 46
f 25 46 27
f 26 47 48
f 26 48 28
f 26 27 47
f 27 46 49
f 27 49 50
f 27 50 51
f 27 51 47
f 30 52 32
f 30 32 31
f 32 52 53
f 32 53 54
f 32 54 55
f 32 55 56
f 32 56 57
f 32 57 58
f 32 58 33
f 33 35 34
f 33 58 36
f 33 36 35
f 36 58 59
f 36 59 60
f 36 60 61
f 36 61 62
f 36 62 63
f 36 63 64
f 36 64 37
f 37 64 38
f 38 64 39
f 41 65 42
f 42 65 43
f 43 66 44
f 43 65 67
f 43 67 66
f 44 66 68
f 44 68 69
f 44 69 45
f 45 69 70
f 45 70 46
f 46 70 49
f 49 70 71
f 49 71 51
f 49 51 50
f 56 72 57
f 57 72 73
f 57 73 74
f 57 74 75
f 57 75 60
f 57 60 59
f 57 59 58
f 60 75 61
f 61 75 76
f 61 76 77
f 61 77 78
f 61 78 62
f 62 78 63
f 63 78 79
f 66 67 80
f 66 80 68
f 67 81 82
f 67 82 83
f 67 83 80
f 68 80 83
f 68 83 84
f 68 84 69
f 69 84 70
f 70 84 85
f 70 85 86
f 70 86 87
f 70 87 88
f 70 88 71
f 73 89 74
f 74 89 90
f 74 90 91
f 74 91 92
f 74 92 75
f 75 92 76
f 76 92 93
f 76 93 94
f 76 94 95
f 76 95 77
f 77 96 78
f 77 95 96
f 78 96 97
f 78 97 79
f 79 97 98
f 81 99 82
f 82 100 83
f 82 99 101
f 82 101 102
f 82 102 103
f 82 103 104
f 82 104 105
f 82 105 100
f 83 100 86
f 83 86 84
f 84 86 85
f 86 100 87
f 87 106 107
f 87 107 88
f 87 100 108
f 87 108 106
f 90 109 91
f 91 109 110
f 91 110 111
f 91 111 93
f 91 93 92
f 93 111 112
f 93 112 113
f 93 113 94
f 94 113 114
f 94 114 95
f 95 114 115
f 95 115 116
f 95 116 117
f 95 117 118
f 95 118 119
f 95 119 96
f 96 119 118
f 96 118 98
f 96 98 97
f 100 105 108
f 102 120 121
f 102 121 103
f 103 121 104
f 104 121 122
f 104 122 123
f 104 123 124
f 104 124 108
f 104 108 105
f 106 108 126
f 106 126 125
f 108 124 126
f 110 127 111
f 111 127 128
f 111 128 129
f 111 129 130
f 111 130 112
f 112 130 113
f 113 130 131
f 113 131 132
f 113 132 133
f 113 133 114
f 114 134 135
f 114 135 115
f 114 133 136
f 114 136 134
f 115 135 116
f 120 137 138
f 120 138 121
f 121 138 139
f 121 139 122
f 122 139 123
f 123 140 141
f 123 141 142
f 123 142 124
f 123 139 143
f 123 143 144
f 123 144 145
f 123 145 140
f 124 142 146
f 124 146 126
f 125 126 146
f 128 147 131
f 128 131 129
f 129 148 130
f 129 131 148
f 130 148 131
f 131 149 150
f 131 150 151
f 131 151 152
f 131 152 132
f 131 147 149
f 132 152 153
f 132 153 136
f 132 136 133
f 134 154 135
f 134 136 154
f 136 155 156
f 136 156 157
f 136 157 158
f 136 158 154
f 136 153 159
f 136 159 160
f 136 160 155
f 137 161 162
f 137 162 138
f 138 163 139
f 138 162 163
f 139 163 143
f 140 145 164
f 140 164 165
f 140 165 166
f 140 166 167
f 140 167 141
f 141 167 146
f 141 146 142
f 143 168 190
f 143 190 169
f 143 169 170
f 143 170 144
f 143 163 168
f 144 170 145
f 145 170 171
f 145 171 164
f 150 172 151
f 151 173 174
f 151 174 175
f 151 175 152
f 151 172 176
f 151 176 177
f 151 177 173
f 152 175 178
f 152 178 159
f 152 159 179
f 152 179 153
f 153 179 159
f 155 160 180
f 155 180 181
f 159 178 182
f 159 182 183
f 159 183 184
f 159 184 185
f 159 185 180
f 159 180 160
f 161 186 162
f 162 187 188
f 162 188 189
f 162 189 190
f 162 190 168
f 162 168 191
f 162 191 163
f 162 186 187
f 163 191 168
f 164 171 165
f 165 171 192
f 169 190 206
f 169 206 193
f 169 193 194
f 169 194 195
f 169 195 170
f 170 196 171
f 170 195 197
f 170 197 196
f 171 196 192
f 173 198 174
f 174 199 175
f 174 198 200
f 174 200 199
f 175 201 202
f 175 202 183
f 175 183 182
f 175 182 178
f 175 199 201
f 180 185 181
f 183 202 203
f 183 203 204
f 183 204 184
f 188 205 189
f 189 206 190
f 189 205 207
f 189 207 206
f 192 196 208
f 193 206 221
f 193 221 209
f 193 209 194
f 194 197 195
f 194 209 210
f 194 210 211
f 194 211 196
f 194 196 197
f 196 211 212
f 196 212 208
f 199 213 201
f 199 200 214
f 199 214 213
f 201 215 216
f 201 216 217
f 201 217 202
f 201 213 218
f 201 218 215
f 202 217 219
f 202 219 220
f 202 220 203
f 206 207 221
f 207 222 221
f 209 221 223
f 209 223 224
f 209 224 225
f 209 225 226
f 209 226 210
f 210 226 227
f 210 227 228
f 210 228 229
f 210 229 230
f 210 230 211
f 211 229 212
f 211 230 229
f 213 214 231
f 213 231 218
f 215 232 233
f 215 233 234
f 215 234 216
f 215 218 235
f 215 235 236
f 215 236 232
f 216 234 237
f 216 237 217
f 217 237 238
f 217 238 219
f 221 239 240
f 221 240 223
f 221 222 241
f 221 241 239
f 223 242 224
f 223 240 242
f 224 242 243
f 224 243 244
f 224 244 245
f 224 245 226
f 224 226 225
f 226 245 246
f 226 246 247
f 226 247 227
f 232 248 249
f 232 249 233
f 232 236 250
f 232 250 251
f 232 251 248
f 233 249 252
f 233 252 253
f 233 253 254
f 233 254 234
f 234 254 255
f 234 255 237
f 240 256 242
f 242 257 243
f 242 256 257
f 243 257 258
f 243 258 259
f 243 259 260
f 243 260 244
f 244 260 261
f 244 261 262
f 244 262 263
f 244 263 245
f 245 263 264
f 245 264 246
f 248 265 266
f 248 266 267
f 248 267 249
f 248 251 265
f 249 267 268
f 249 268 269
f 249 269 252
f 251 270 265
f 256 271 272
f 256 272 257
f 257 272 258
f 258 272 273
f 258 273 274
f 258 274 275
f 258 275 259
f 259 275 276
f 259 276 261
f 259 261 260
f 265 277 266
f 265 270 278
f 265 278 279
f 265 279 277
f 266 277 280
f 266 280 267
f 267 281 282
f 267 282 268
f 267 280 298
f 267 298 281
f 268 282 283
f 268 283 269
f 271 284 285
f 271 285 273
f 271 273 272
f 271 286 284
f 273 285 274
f 274 285 284
f 274 284 287
f 274 287 288
f 274 288 275
f 275 288 289
f 275 289 290
f 275 290 291
f 275 291 292
f 275 292 293
f 275 293 294
f 275 294 295
f 275 295 276
f 277 279 296
f 277 296 297
f 277 297 298
f 277 298 280
f 281 299 300
f 281 300 301
f 281 301 282
f 281 298 299
f 282 301 302
f 282 302 283
f 284 286 303
f 284 303 304
f 284 304 305
f 284 305 306
f 284 306 307
f 284 307 308
f 284 308 309
f 284 309 287
f 287 289 288
f 287 309 290
f 287 290 289
f 290 309 310
f 290 310 311
f 290 311 312
f 290 312 313
f 290 313 314
f 290 314 315
f 290 315 291
f 291 315 293
f 291 293 292
f 297 316 298
f 298 316 317
f 298 317 318
f 298 318 319
f 298 319 299
f 299 319 320
f 299 320 321
f 299 321 322
f 299 322 323
f 299 323 300
f 307 324 308
f 308 310 309
f 308 324 325
f 308 325 311
f 308 311 310
f 311 325 326
f 311 326 312
f 312 327 313
f 312 326 328
f 312 328 329
f 312 329 330
f 312 330 327
f 313 327 314
f 318 331 320
f 318 320 319
f 320 331 321
f 321 332 333
f 321 333 334
f 321 334 335
f 321 335 322
f 321 331 336
f 321 336 337
f 321 337 332
f 325 338 326
f 326 338 339
f 326 339 340
f 326 340 328
f 328 340 341
f 328 341 342
f 328 342 343
f 328 343 344
f 328 344 329
f 332 337 349
f 332 349 345
f 332 345 346
f 332 346 333
f 336 347 337
f 337 347 348
f 337 348 349
f 339 341 340
f 339 350 341
f 341 350 351
f 341 351 352
f 341 352 353
f 341 353 342
f 342 354 343
f 342 353 355
f 342 355 354
f 345 356 357
f 345 357 358
f 345 358 346
f 345 349 360
f 345 360 356
f 348 359 349
f 349 359 360
f 351 361 352
f 352 361 362
f 352 362 353
f 353 363 355
f 353 362 364
f 353 364 365
f 353 365 363
f 356 366 367
f 356 367 368
f 356 368 369
f 356 369 357
f 356 360 371
f 356 371 366
f 359 370 360
f 360 370 371
f 361 372 364
f 361 364 362
f 363 365 373
f 364 372 374
f 364 374 375
f 364 375 376
f 364 376 377
f 364 377 380
f 364 380 365
f 365 378 379
f 365 379 373
f 365 380 378
f 366 381 382
f 366 382 383
f 366 383 367
f 366 371 381
f 370 384 371
f 371 385 386
f 371 386 381
f 371 384 385
f 376 387 377
f 377 387 388
f 377 388 389
f 377 389 390
f 377 390 380
f 378 391 379
f 378 380 391
f 380 390 392
f 380 392 393
f 380 393 394
f 380 394 395
f 380 395 391
f 381 396 382
f 382 396 397
f 390 398 392
f 392 398 399
f 392 400 393
f 393 400 394
f 396 401 397
f 397 401 402
f 397 402 403
f 398 404 399
f 399 404 405
f 402 406 403
f 403 406 405
f 403 405 404

