# https://github.com/mikedh/trimesh
v -0.00579279 -0.00340129 0.00012775
v -0.00371064 -0.00330541 0.00012775
v -0.00371064 -0.00328809 0.00038961
v -0.00579279 -0.00336600 0.00038961
v -0.00579279 -0.00340063 -0.00013344
v -0.00371064 -0.00330541 -0.00013344
v -0.00292475 -0.00323815 0.00012775
v -0.00292475 -0.00324881 -0.00013344
v -0.00296620 -0.00319687 0.00065147
v -0.00301696 -0.00316491 0.00091332
v -0.00371064 -0.00325014 0.00065147
v -0.00579279 -0.00332738 0.00064680
v -0.00579279 -0.00337333 -0.00034732
v -0.00371064 -0.00328743 -0.00039530
v -0.00292475 -0.00323949 -0.00039530
v -0.00291234 -0.00323016 0.00012775
v -0.00291234 -0.00322950 0.00014108
v -0.00291234 -0.00321352 0.00030032
v -0.00291234 -0.00324148 -0.00013344
v -0.00291234 -0.00323349 -0.00039530
v -0.00291234 -0.00320286 0.00039227
v -0.00291234 -0.00317157 0.00058017
v -0.00291234 -0.00315359 0.00065147
v -0.00291234 -0.00312296 0.00076274
v -0.00291234 -0.00305837 0.00093531
v -0.00305108 -0.00314493 0.00105058
v -0.00579279 -0.00327012 0.00091332
v -0.00579279 -0.00332671 -0.00065116
v -0.00371064 -0.00324881 -0.00065716
v -0.00292475 -0.00321152 -0.00065716
v -0.00291234 -0.00320686 -0.00065716
v -0.00291234 -0.00301708 0.00103326
v -0.00299468 -0.00293385 0.00143771
v -0.00579279 -0.00321152 0.00115453
v -0.00579279 -0.00321418 0.00114720
v -0.00303642 -0.00289523 0.00159229
v -0.00579279 -0.00327211 -0.00090635
v -0.00304403 -0.00314427 -0.00105361
v -0.00294392 -0.00316358 -0.00091368
v -0.00291234 -0.00316091 -0.00089503
v -0.00291234 -0.00288591 0.00133576
v -0.00291234 -0.00282265 0.00144170
v -0.00291234 -0.00279335 0.00149034
v -0.00579279 -0.00295849 0.00168157
v -0.00291234 -0.00274940 0.00156230
v -0.00297212 -0.00275140 0.00168757
v -0.00301216 -0.00266550 0.00189479
v -0.00318671 -0.00258826 0.00205204
v -0.00318671 -0.00268281 0.00192078
v -0.00579279 -0.00287525 0.00181017
v -0.00579279 -0.00295249 0.00169090
v -0.00579279 -0.00321485 -0.00114356
v -0.00294392 -0.00308367 -0.00115688
v -0.00291234 -0.00310231 -0.00108959
v -0.00291234 -0.00314893 -0.00094900
v -0.00579279 -0.00321285 -0.00115155
v -0.00292475 -0.00289456 -0.00159798
v -0.00291234 -0.00289390 -0.00159665
v -0.00292475 -0.00296182 -0.00144340
v -0.00291234 -0.00269680 0.00163360
v -0.00291234 -0.00250103 0.00188813
v -0.00295379 -0.00250103 0.00197341
v -0.00301075 -0.00242179 0.00216464
v -0.00318671 -0.00245775 0.00220529
v -0.00291234 -0.00257561 0.00179751
v -0.00579279 -0.00275939 0.00198008
v -0.00579279 -0.00264885 0.00212200
v -0.00291234 -0.00295849 -0.00144340
v -0.00579279 -0.00296248 -0.00167394
v -0.00579279 -0.00295582 -0.00168593
v -0.00292475 -0.00281133 -0.00172857
v -0.00291234 -0.00281799 -0.00171658
v -0.00291234 -0.00245975 0.00193210
v -0.00291234 -0.00241780 0.00197541
v -0.00291234 -0.00232790 0.00206536
v -0.00295859 -0.00224201 0.00224060
v -0.00301837 -0.00216543 0.00241118
v -0.00318671 -0.00233656 0.00233655
v -0.00579279 -0.00253632 0.00225193
v -0.00344867 -0.00234455 0.00234188
v -0.00579279 -0.00276405 -0.00197444
v -0.00579279 -0.00276006 -0.00198044
v -0.00292475 -0.00268015 -0.00192313
v -0.00291234 -0.00267882 -0.00192114
v -0.00291234 -0.00224334 0.00214865
v -0.00291234 -0.00219473 0.00219330
v -0.00318671 -0.00220605 0.00245049
v -0.00291234 -0.00205556 0.00230257
v -0.00291234 -0.00197299 0.00236387
v -0.00298115 -0.00196500 0.00249313
v -0.00303472 -0.00187777 0.00264438
v -0.00318671 -0.00204824 0.00258175
v -0.00344867 -0.00206555 0.00259241
v -0.00344867 -0.00221337 0.00246182
v -0.00579279 -0.00239715 0.00239385
v -0.00579279 -0.00227796 0.00251046
v -0.00292475 -0.00258426 -0.00205373
v -0.00579279 -0.00251302 -0.00227761
v -0.00291234 -0.00258959 -0.00204240
v -0.00291234 -0.00189042 0.00242184
v -0.00291234 -0.00174393 0.00251579
v -0.00291234 -0.00169998 0.00254111
v -0.00300653 -0.00170198 0.00269769
v -0.00307364 -0.00155349 0.00287093
v -0.00318671 -0.00191706 0.00267303
v -0.00344867 -0.00193437 0.00268836
v -0.00579279 -0.00212481 0.00264572
v -0.00579279 -0.00198032 0.00275899
v -0.00292475 -0.00245309 -0.00220232
v -0.00291234 -0.00245109 -0.00220098
v -0.00292475 -0.00232990 -0.00233358
v -0.00579279 -0.00225399 -0.00253480
v -0.00291234 -0.00155083 0.00261173
v -0.00291234 -0.00137304 0.00269302
v -0.00298171 -0.00145561 0.00276898
v -0.00304065 -0.00137903 0.00289958
v -0.00313342 -0.00091625 0.00309614
v -0.00326426 -0.00091625 0.00316210
v -0.00330937 -0.00105342 0.00314211
v -0.00324818 -0.00159611 0.00289291
v -0.00317120 -0.00169066 0.00281496
v -0.00344867 -0.00173994 0.00281962
v -0.00579279 -0.00181518 0.00287359
v -0.00291234 -0.00233589 -0.00232292
v -0.00292475 -0.00219872 -0.00245018
v -0.00291234 -0.00219739 -0.00244885
v -0.00579279 -0.00198165 -0.00276001
v -0.00291234 -0.00120990 0.00276232
v -0.00291234 -0.00099016 0.00283361
v -0.00302175 -0.00117860 0.00293089
v -0.00308181 -0.00065456 0.00311746
v -0.00321265 -0.00065456 0.00319475
v -0.00344867 -0.00065456 0.00324872
v -0.00344867 -0.00091625 0.00318476
v -0.00579279 -0.00114331 0.00321407
v -0.00579279 -0.00115064 0.00321141
v -0.00344867 -0.00118726 0.00309347
v -0.00344867 -0.00144029 0.00298420
v -0.00344867 -0.00160876 0.00289958
v -0.00579279 -0.00168600 0.00295621
v -0.00292475 -0.00203692 -0.00258144
v -0.00291234 -0.00204557 -0.00257145
v -0.00579279 -0.00169266 -0.00295324
v -0.00292475 -0.00190640 -0.00267339
v -0.00291234 -0.00076643 0.00288625
v -0.00300032 -0.00091625 0.00296554
v -0.00291234 -0.00039287 0.00294888
v -0.00291234 -0.00031630 0.00295755
v -0.00306913 -0.00039287 0.00312679
v -0.00319996 -0.00039287 0.00321607
v -0.00291234 -0.00054336 0.00292890
v -0.00344867 -0.00039287 0.00329136
v -0.00579279 -0.00090360 0.00327138
v -0.00579279 -0.00039287 0.00336866
v -0.00579279 -0.00065256 0.00332601
v -0.00579279 -0.00167468 0.00296221
v -0.00291234 -0.00190574 -0.00267273
v -0.00579279 -0.00168334 -0.00295857
v -0.00371064 -0.00160410 -0.00290260
v -0.00371064 -0.00173528 -0.00282398
v -0.00291234 -0.00168067 -0.00281665
v -0.00291234 -0.00013052 0.00296687
v -0.00291234 -0.00007459 0.00296687
v -0.00306997 -0.00013052 0.00312479
v -0.00320081 -0.00013052 0.00322540
v -0.00344867 -0.00013052 0.00331135
v -0.00579279 -0.00013052 0.00340464
v -0.00371064 -0.00144029 -0.00298389
v -0.00579279 -0.00115463 -0.00321110
v -0.00291234 -0.00155948 -0.00288128
v -0.00291234 0.00013050 0.00295888
v -0.00307758 0.00013050 0.00311546
v -0.00320842 0.00013050 0.00322540
v -0.00344867 0.00013050 0.00331202
v -0.00579279 0.00013050 0.00340464
v -0.00291234 -0.00145095 -0.00293059
v -0.00357895 -0.00104809 -0.00314647
v -0.00579279 -0.00114664 -0.00321377
v -0.00291234 0.00019776 0.00295088
v -0.00309225 0.00039286 0.00309747
v -0.00322337 0.00039286 0.00321607
v -0.00344867 0.00039286 0.00329136
v -0.00579279 0.00033293 0.00337865
v -0.00291234 -0.00115397 -0.00305319
v -0.00371064 -0.00091625 -0.00318445
v -0.00371064 -0.00065456 -0.00324841
v -0.00291234 -0.00091625 -0.00311582
v -0.00291234 -0.00114198 -0.00305718
v -0.00579279 -0.00091625 -0.00326907
v -0.00291234 0.00039286 0.00292556
v -0.00324818 0.00065455 0.00319542
v -0.00344867 0.00065455 0.00324939
v -0.00579279 0.00039286 0.00336866
v -0.00579279 -0.00064324 -0.00332704
v -0.00371064 -0.00039287 -0.00329039
v -0.00291234 -0.00065456 -0.00316912
v -0.00291234 0.00052337 0.00289825
v -0.00328907 0.00091624 0.00316210
v -0.00291234 0.00065455 0.00286826
v -0.00291234 0.00091890 0.00279763
v -0.00579279 0.00115062 0.00321141
v -0.00579279 0.00091624 0.00326738
v -0.00579279 0.00065188 0.00332535
v -0.00331558 0.00105141 0.00314145
v -0.00344867 0.00091624 0.00318409
v -0.00579279 -0.00035225 -0.00337101
v -0.00579279 -0.00013052 -0.00340100
v -0.00371064 -0.00013052 -0.00331171
v -0.00291234 -0.00039287 -0.00319777
v -0.00291234 0.00094021 0.00279030
v -0.00579279 0.00115795 0.00320874
v -0.00344867 0.00144028 0.00297554
v -0.00344867 0.00118591 0.00308814
v -0.00291234 0.00117193 0.00269036
v -0.00330684 0.00158877 0.00288825
v -0.00579279 0.00013050 -0.00340100
v -0.00371064 0.00013050 -0.00331171
v -0.00291234 -0.00013052 -0.00320444
v -0.00579279 0.00168599 0.00295621
v -0.00344867 0.00160342 0.00289625
v -0.00291234 0.00145293 0.00254777
v -0.00291234 0.00168665 0.00241584
v -0.00328964 0.00188109 0.00265038
v -0.00344867 0.00205088 0.00257642
v -0.00344867 0.00192037 0.00267836
v -0.00344867 0.00173393 0.00280963
v -0.00579279 0.00039286 -0.00336435
v -0.00371064 0.00039286 -0.00329039
v -0.00291234 0.00013050 -0.00319444
v -0.00579279 0.00169464 0.00295155
v -0.00371064 0.00173992 0.00282095
v -0.00291234 0.00194967 0.00221129
v -0.00328400 0.00214544 0.00240318
v -0.00344867 0.00219338 0.00244516
v -0.00371064 0.00221669 0.00246248
v -0.00371064 0.00206620 0.00259308
v -0.00371064 0.00234720 0.00234455
v -0.00371064 0.00193502 0.00268969
v -0.00579279 0.00061393 -0.00333237
v -0.00579279 0.00064589 -0.00332770
v -0.00371064 0.00065455 -0.00324841
v -0.00291234 0.00039286 -0.00316846
v -0.00579279 0.00198030 0.00275899
v -0.00291234 0.00221469 0.00194743
v -0.00344867 0.00232456 0.00231923
v -0.00328738 0.00239581 0.00213932
v -0.00579279 0.00225531 0.00253311
v -0.00579279 0.00198297 0.00275699
v -0.00371064 0.00246572 0.00221395
v -0.00579279 0.00251367 0.00227525
v -0.00579279 0.00090358 -0.00327240
v -0.00579279 0.00113864 -0.00321643
v -0.00371064 0.00091624 -0.00318445
v -0.00357895 0.00104808 -0.00314647
v -0.00291234 0.00065455 -0.00312381
v -0.00291234 0.00242244 0.00168557
v -0.00344867 0.00244042 0.00218796
v -0.00330994 0.00262753 0.00184415
v -0.00344867 0.00257093 0.00202272
v -0.00371064 0.00259624 0.00206337
v -0.00579279 0.00276470 0.00197275
v -0.00579279 0.00114663 -0.00321377
v -0.00291234 0.00092223 -0.00304186
v -0.00371064 0.00144028 -0.00298389
v -0.00355639 0.00159343 -0.00289661
v -0.00326087 0.00267015 0.00169956
v -0.00291234 0.00269811 0.00117518
v -0.00337028 0.00285393 0.00150567
v -0.00345403 0.00279400 0.00168757
v -0.00344867 0.00266216 0.00189213
v -0.00354483 0.00289455 0.00159229
v -0.00371064 0.00269212 0.00193277
v -0.00579279 0.00295847 0.00168157
v -0.00579279 0.00167067 -0.00296523
v -0.00291234 0.00099481 -0.00300921
v -0.00371064 0.00160408 -0.00290260
v -0.00291234 0.00147890 -0.00278200
v -0.00291234 0.00145093 -0.00279733
v -0.00291234 0.00137436 -0.00283331
v -0.00291234 0.00117859 -0.00292526
v -0.00371064 0.00173526 -0.00282398
v -0.00371064 0.00193103 -0.00269272
v -0.00350507 0.00189840 -0.00266940
v -0.00291234 0.00170197 -0.00263608
v -0.00291234 0.00281464 0.00090933
v -0.00330514 0.00289188 0.00133110
v -0.00347208 0.00305103 0.00115253
v -0.00357472 0.00314492 0.00105058
v -0.00345403 0.00292917 0.00142571
v -0.00371064 0.00298577 0.00143771
v -0.00371064 0.00290187 0.00160428
v -0.00371064 0.00282330 0.00173554
v -0.00579279 0.00321417 0.00114720
v -0.00579279 0.00168332 -0.00295857
v -0.00579279 0.00180984 -0.00287595
v -0.00371064 0.00206220 -0.00259544
v -0.00579279 0.00197098 -0.00276734
v -0.00579279 0.00197764 -0.00276268
v -0.00291234 0.00194035 -0.00246817
v -0.00291234 0.00288123 0.00065147
v -0.00340553 0.00309364 0.00091332
v -0.00353637 0.00316489 0.00091332
v -0.00371064 0.00325012 0.00065147
v -0.00371064 0.00318687 0.00091332
v -0.00579279 0.00321616 0.00113987
v -0.00371064 0.00309564 0.00118384
v -0.00579279 0.00212213 -0.00264941
v -0.00371064 0.00221269 -0.00246484
v -0.00371064 0.00234320 -0.00234624
v -0.00291234 0.00221069 -0.00220965
v -0.00291234 0.00294049 0.00041160
v -0.00334660 0.00312494 0.00065147
v -0.00347772 0.00319685 0.00065147
v -0.00579279 0.00327343 0.00090066
v -0.00371064 0.00329141 0.00038961
v -0.00579279 0.00332737 0.00064480
v -0.00579279 0.00227395 -0.00251548
v -0.00579279 0.00253298 -0.00225695
v -0.00371064 0.00246240 -0.00221564
v -0.00579279 0.00239514 -0.00239754
v -0.00371064 0.00259357 -0.00206572
v -0.00350479 0.00266615 -0.00190181
v -0.00291234 0.00242178 -0.00195179
v -0.00291234 0.00299509 0.00012775
v -0.00342499 0.00320684 0.00040227
v -0.00344867 0.00324080 0.00012775
v -0.00371064 0.00331138 0.00012775
v -0.00579279 0.00340128 0.00012775
v -0.00579279 0.00337331 0.00034230
v -0.00579279 0.00264684 -0.00212569
v -0.00579279 0.00275738 -0.00198443
v -0.00371064 0.00269012 -0.00193513
v -0.00355611 0.00289388 -0.00159598
v -0.00291234 0.00256760 -0.00173324
v -0.00291234 0.00299643 0.00011109
v -0.00291234 0.00301108 -0.00013344
v -0.00291234 0.00301108 -0.00015010
v -0.00344867 0.00324014 -0.00013344
v -0.00371064 0.00331072 -0.00013344
v -0.00579279 0.00340061 -0.00013344
v -0.00579279 0.00287257 -0.00181253
v -0.00579279 0.00295048 -0.00169592
v -0.00371064 0.00282130 -0.00173857
v -0.00291234 0.00270943 -0.00147804
v -0.00291234 0.00269146 -0.00151136
v -0.00291234 0.00259024 -0.00169526
v -0.00371064 0.00289987 -0.00160731
v -0.00371064 0.00298244 -0.00144340
v -0.00357698 0.00314425 -0.00105427
v -0.00291234 0.00300375 -0.00039530
v -0.00291234 0.00300308 -0.00041129
v -0.00342583 0.00320551 -0.00040463
v -0.00347997 0.00319552 -0.00065716
v -0.00371064 0.00329008 -0.00039530
v -0.00579279 0.00336465 -0.00039530
v -0.00579279 0.00295581 -0.00168593
v -0.00291234 0.00272009 -0.00145406
v -0.00579279 0.00320951 -0.00115888
v -0.00579279 0.00321284 -0.00115155
v -0.00371064 0.00309431 -0.00118687
v -0.00371064 0.00318487 -0.00091968
v -0.00371064 0.00324879 -0.00065716
v -0.00353919 0.00316356 -0.00091968
v -0.00291234 0.00291785 -0.00092168
v -0.00291234 0.00282929 -0.00118354
v -0.00291234 0.00297445 -0.00065716
v -0.00291234 0.00297245 -0.00067115
v -0.00579279 0.00332670 -0.00065116
v -0.00579279 0.00326877 -0.00091968
v -0.00291234 0.00291918 -0.00091635
f 1 2 3
f 1 3 4
f 1 4 12
f 1 12 27
f 1 27 35
f 1 35 34
f 1 34 44
f 1 44 51
f 1 51 50
f 1 50 66
f 1 66 67
f 1 67 79
f 1 79 95
f 1 95 96
f 1 96 107
f 1 107 108
f 1 108 123
f 1 123 140
f 1 140 156
f 1 156 136
f 1 136 135
f 1 135 153
f 1 153 155
f 1 155 154
f 1 154 167
f 1 167 175
f 1 175 183
f 1 183 193
f 1 193 203
f 1 203 202
f 1 202 201
f 1 201 211
f 1 211 219
f 1 219 230
f 1 230 243
f 1 243 248
f 1 248 247
f 1 247 250
f 1 250 261
f 1 261 273
f 1 273 293
f 1 293 305
f 1 305 314
f 1 314 316
f 1 316 329
f 1 329 328
f 1 328 340
f 1 340 355
f 1 355 368
f 1 368 369
f 1 369 359
f 1 359 358
f 1 358 356
f 1 356 342
f 1 342 341
f 1 341 331
f 1 331 330
f 1 330 318
f 1 318 320
f 1 320 317
f 1 317 307
f 1 307 298
f 1 298 297
f 1 297 295
f 1 295 294
f 1 294 274
f 1 274 262
f 1 262 252
f 1 252 251
f 1 251 240
f 1 240 239
f 1 239 227
f 1 227 216
f 1 216 207
f 1 207 206
f 1 206 194
f 1 194 189
f 1 189 178
f 1 178 169
f 1 169 158
f 1 158 143
f 1 143 127
f 1 127 112
f 1 112 98
f 1 98 82
f 1 82 81
f 1 81 70
f 1 70 69
f 1 69 56
f 1 56 52
f 1 52 37
f 1 37 28
f 1 28 13
f 1 13 5
f 1 5 6
f 1 6 2
f 2 7 3
f 2 6 8
f 2 8 7
f 3 9 10
f 3 10 11
f 3 11 4
f 3 7 9
f 4 11 12
f 5 13 14
f 5 14 6
f 6 14 15
f 6 15 8
f 7 16 17
f 7 17 18
f 7 18 9
f 7 8 19
f 7 19 16
f 8 15 20
f 8 20 19
f 9 18 21
f 9 21 22
f 9 22 23
f 9 23 24
f 9 24 10
f 10 24 25
f 10 25 26
f 10 26 11
f 11 26 12
f 12 26 27
f 13 28 29
f 13 29 14
f 14 29 30
f 14 30 15
f 15 30 31
f 15 31 20
f 16 19 20
f 16 20 31
f 16 31 40
f 16 40 55
f 16 55 54
f 16 54 68
f 16 68 58
f 16 58 72
f 16 72 84
f 16 84 99
f 16 99 110
f 16 110 124
f 16 124 126
f 16 126 142
f 16 142 157
f 16 157 161
f 16 161 170
f 16 170 176
f 16 176 184
f 16 184 188
f 16 188 187
f 16 187 196
f 16 196 209
f 16 209 218
f 16 218 229
f 16 229 242
f 16 242 255
f 16 255 263
f 16 263 275
f 16 275 280
f 16 280 279
f 16 279 278
f 16 278 277
f 16 277 284
f 16 284 299
f 16 299 310
f 16 310 323
f 16 323 334
f 16 334 346
f 16 346 345
f 16 345 344
f 16 344 357
f 16 357 365
f 16 365 364
f 16 364 370
f 16 370 367
f 16 367 366
f 16 366 351
f 16 351 350
f 16 350 337
f 16 337 336
f 16 336 335
f 16 335 324
f 16 324 311
f 16 311 300
f 16 300 285
f 16 285 267
f 16 267 256
f 16 256 244
f 16 244 232
f 16 232 222
f 16 222 221
f 16 221 214
f 16 214 210
f 16 210 200
f 16 200 199
f 16 199 197
f 16 197 190
f 16 190 179
f 16 179 171
f 16 171 163
f 16 163 162
f 16 162 148
f 16 148 147
f 16 147 151
f 16 151 145
f 16 145 129
f 16 129 128
f 16 128 114
f 16 114 113
f 16 113 102
f 16 102 101
f 16 101 100
f 16 100 89
f 16 89 88
f 16 88 86
f 16 86 85
f 16 85 75
f 16 75 74
f 16 74 73
f 16 73 61
f 16 61 65
f 16 65 60
f 16 60 45
f 16 45 43
f 16 43 42
f 16 42 41
f 16 41 32
f 16 32 25
f 16 25 24
f 16 24 23
f 16 23 22
f 16 22 21
f 16 21 18
f 16 18 17
f 25 32 33
f 25 33 26
f 26 34 35
f 26 35 27
f 26 33 36
f 26 36 34
f 28 37 38
f 28 38 29
f 29 38 30
f 30 38 39
f 30 39 40
f 30 40 31
f 32 41 33
f 33 41 42
f 33 42 43
f 33 43 36
f 34 36 44
f 36 43 45
f 36 45 46
f 36 46 47
f 36 47 48
f 36 48 49
f 36 49 50
f 36 50 51
f 36 51 44
f 37 52 38
f 38 53 54
f 38 54 55
f 38 55 39
f 38 52 56
f 38 56 57
f 38 57 58
f 38 58 59
f 38 59 53
f 39 55 40
f 45 60 47
f 45 47 46
f 47 61 62
f 47 62 63
f 47 63 64
f 47 64 48
f 47 60 65
f 47 65 61
f 48 66 49
f 48 64 67
f 48 67 66
f 49 66 50
f 53 59 68
f 53 68 54
f 56 69 57
f 57 69 70
f 57 70 71
f 57 71 72
f 57 72 58
f 58 68 59
f 61 73 62
f 62 73 74
f 62 74 63
f 63 75 76
f 63 76 77
f 63 77 78
f 63 78 64
f 63 74 75
f 64 79 67
f 64 78 80
f 64 80 79
f 70 81 71
f 71 81 82
f 71 82 83
f 71 83 72
f 72 83 84
f 75 85 76
f 76 85 86
f 76 86 77
f 77 87 78
f 77 86 88
f 77 88 89
f 77 89 90
f 77 90 91
f 77 91 92
f 77 92 87
f 78 87 93
f 78 93 94
f 78 94 80
f 79 80 95
f 80 94 96
f 80 96 95
f 82 97 83
f 82 98 97
f 83 97 84
f 84 97 99
f 87 92 93
f 89 100 90
f 90 100 91
f 91 100 101
f 91 101 102
f 91 102 103
f 91 103 104
f 91 104 105
f 91 105 92
f 92 105 106
f 92 106 93
f 93 107 96
f 93 96 94
f 93 106 108
f 93 108 107
f 97 98 109
f 97 109 110
f 97 110 99
f 98 111 109
f 98 112 111
f 102 113 103
f 103 114 115
f 103 115 116
f 103 116 104
f 103 113 114
f 104 116 117
f 104 117 118
f 104 118 119
f 104 119 120
f 104 120 121
f 104 121 105
f 105 121 120
f 105 120 122
f 105 122 106
f 106 122 123
f 106 123 108
f 109 111 110
f 110 111 124
f 111 112 125
f 111 125 126
f 111 126 124
f 112 127 125
f 114 128 116
f 114 116 115
f 116 128 129
f 116 129 130
f 116 130 131
f 116 131 117
f 117 131 132
f 117 132 118
f 118 132 133
f 118 133 119
f 119 133 134
f 119 134 135
f 119 135 136
f 119 136 137
f 119 137 138
f 119 138 120
f 120 139 122
f 120 138 139
f 122 139 140
f 122 140 123
f 125 127 141
f 125 141 126
f 126 141 142
f 127 143 144
f 127 144 141
f 129 145 146
f 129 146 130
f 130 146 131
f 131 147 148
f 131 148 149
f 131 149 150
f 131 150 132
f 131 146 145
f 131 145 151
f 131 151 147
f 132 150 152
f 132 152 133
f 133 153 135
f 133 135 134
f 133 152 154
f 133 154 155
f 133 155 153
f 136 156 138
f 136 138 137
f 138 156 139
f 139 156 140
f 141 144 157
f 141 157 142
f 143 158 159
f 143 159 160
f 143 160 144
f 144 160 161
f 144 161 157
f 148 162 149
f 149 162 163
f 149 163 164
f 149 164 165
f 149 165 150
f 150 165 166
f 150 166 152
f 152 166 167
f 152 167 154
f 158 168 159
f 158 169 168
f 159 168 170
f 159 170 161
f 159 161 160
f 163 171 164
f 164 171 172
f 164 172 173
f 164 173 165
f 165 173 174
f 165 174 166
f 166 174 167
f 167 174 175
f 168 176 170
f 168 169 177
f 168 177 176
f 169 178 177
f 171 179 172
f 172 179 180
f 172 180 181
f 172 181 173
f 173 181 174
f 174 181 182
f 174 182 175
f 175 182 183
f 176 177 184
f 177 178 185
f 177 185 186
f 177 186 187
f 177 187 188
f 177 188 184
f 178 189 186
f 178 186 185
f 179 190 180
f 180 191 181
f 180 190 191
f 181 191 182
f 182 191 192
f 182 192 183
f 183 192 193
f 186 189 194
f 186 194 195
f 186 195 196
f 186 196 187
f 190 197 191
f 191 198 192
f 191 197 199
f 191 199 200
f 191 200 198
f 192 201 202
f 192 202 203
f 192 203 193
f 192 198 204
f 192 204 205
f 192 205 201
f 194 206 195
f 195 206 207
f 195 207 208
f 195 208 209
f 195 209 196
f 198 200 204
f 200 210 204
f 201 205 204
f 201 204 211
f 204 212 213
f 204 213 211
f 204 210 214
f 204 214 215
f 204 215 212
f 207 216 217
f 207 217 208
f 208 217 218
f 208 218 209
f 211 213 212
f 211 212 219
f 212 215 220
f 212 220 219
f 214 221 215
f 215 221 222
f 215 222 223
f 215 223 224
f 215 224 225
f 215 225 226
f 215 226 220
f 216 227 228
f 216 228 217
f 217 228 229
f 217 229 218
f 219 220 230
f 220 226 231
f 220 231 230
f 222 232 223
f 223 232 233
f 223 233 234
f 223 234 224
f 224 235 236
f 224 236 225
f 224 234 237
f 224 237 235
f 225 238 226
f 225 236 238
f 226 238 231
f 227 239 228
f 228 239 240
f 228 240 241
f 228 241 242
f 228 242 229
f 230 231 238
f 230 238 243
f 232 244 233
f 233 245 234
f 233 244 246
f 233 246 245
f 234 245 237
f 235 247 236
f 235 237 247
f 236 247 248
f 236 248 243
f 236 243 238
f 237 245 249
f 237 249 250
f 237 250 247
f 240 251 241
f 241 251 252
f 241 252 253
f 241 253 254
f 241 254 255
f 241 255 242
f 244 256 246
f 245 246 257
f 245 257 249
f 246 256 258
f 246 258 259
f 246 259 257
f 249 257 260
f 249 260 250
f 250 260 261
f 252 262 254
f 252 254 253
f 254 263 255
f 254 262 264
f 254 264 265
f 254 265 263
f 256 266 258
f 256 267 266
f 257 259 260
f 258 266 268
f 258 268 269
f 258 269 270
f 258 270 259
f 259 270 271
f 259 271 272
f 259 272 260
f 260 272 261
f 261 272 273
f 262 274 264
f 263 265 275
f 264 274 276
f 264 276 265
f 265 277 278
f 265 278 279
f 265 279 280
f 265 280 275
f 265 276 281
f 265 281 282
f 265 282 283
f 265 283 284
f 265 284 277
f 266 267 268
f 267 285 286
f 267 286 268
f 268 286 287
f 268 287 288
f 268 288 289
f 268 289 271
f 268 271 269
f 269 271 270
f 271 289 288
f 271 288 290
f 271 290 291
f 271 291 292
f 271 292 272
f 272 292 273
f 273 292 291
f 273 291 290
f 273 290 293
f 274 294 276
f 276 294 281
f 281 294 295
f 281 295 282
f 282 296 283
f 282 295 297
f 282 297 298
f 282 298 296
f 283 296 299
f 283 299 284
f 285 300 301
f 285 301 288
f 285 288 287
f 285 287 286
f 288 301 302
f 288 302 303
f 288 303 304
f 288 304 305
f 288 305 293
f 288 293 306
f 288 306 290
f 290 306 293
f 296 298 307
f 296 307 308
f 296 308 299
f 299 308 309
f 299 309 310
f 300 311 301
f 301 311 312
f 301 312 313
f 301 313 302
f 302 313 303
f 303 314 305
f 303 305 304
f 303 313 315
f 303 315 316
f 303 316 314
f 307 317 308
f 308 317 309
f 309 318 319
f 309 319 310
f 309 317 320
f 309 320 318
f 310 319 321
f 310 321 322
f 310 322 323
f 311 313 312
f 311 324 313
f 313 324 325
f 313 325 315
f 315 325 326
f 315 326 327
f 315 327 328
f 315 328 329
f 315 329 316
f 318 330 321
f 318 321 319
f 321 330 331
f 321 331 332
f 321 332 322
f 322 332 333
f 322 333 323
f 323 333 334
f 324 335 326
f 324 326 325
f 326 335 336
f 326 336 337
f 326 337 338
f 326 338 339
f 326 339 327
f 327 339 340
f 327 340 328
f 331 341 332
f 332 341 342
f 332 342 343
f 332 343 333
f 333 344 345
f 333 345 346
f 333 346 334
f 333 343 347
f 333 347 348
f 333 348 349
f 333 349 344
f 337 350 338
f 338 350 351
f 338 351 352
f 338 352 353
f 338 353 354
f 338 354 339
f 339 354 340
f 340 354 355
f 342 356 347
f 342 347 343
f 344 349 357
f 347 356 348
f 348 356 358
f 348 358 359
f 348 359 360
f 348 360 349
f 349 360 359
f 349 359 361
f 349 361 362
f 349 362 363
f 349 363 364
f 349 364 365
f 349 365 357
f 351 366 352
f 352 366 353
f 353 362 354
f 353 366 367
f 353 367 363
f 353 363 362
f 354 362 368
f 354 368 355
f 359 369 362
f 359 362 361
f 362 369 368
f 363 370 364
f 363 367 370

