# https://github.com/mikedh/trimesh
v 0.01095792 -0.00328278 -0.00013334
v 0.01075649 -0.00321644 -0.00013334
v 0.01095792 -0.00326428 -0.00039556
v 0.01114232 -0.00319157 -0.00065714
v 0.01114980 -0.00320496 -0.00039556
v 0.01114796 -0.00320879 -0.00013334
v 0.01095792 -0.00328022 0.00012761
v 0.01074832 -0.00322091 0.00012761
v 0.01013759 -0.00281017 -0.00039556
v 0.01013759 -0.00279168 -0.00065714
v 0.01077087 -0.00320241 -0.00039556
v 0.01079181 -0.00317945 -0.00065714
v 0.01095792 -0.00322793 -0.00065714
v 0.01111380 -0.00316351 -0.00091937
v 0.01123481 -0.00301171 -0.00091937
v 0.01128773 -0.00299003 -0.00066740
v 0.01128083 -0.00302702 -0.00039556
v 0.01127899 -0.00303021 -0.00013334
v 0.01113991 -0.00320241 0.00012761
v 0.01095792 -0.00325790 0.00038983
v 0.01075856 -0.00319667 0.00065141
v 0.01074706 -0.00321517 0.00038983
v 0.01013759 -0.00280826 -0.00030644
v 0.01013759 -0.00274703 -0.00091937
v 0.01081171 -0.00315841 -0.00084115
v 0.01097667 -0.00316861 -0.00092514
v 0.01107641 -0.00314437 -0.00105465
v 0.01109125 -0.00314437 -0.00105465
v 0.01117246 -0.00301873 -0.00115723
v 0.01131281 -0.00284397 -0.00117967
v 0.01131281 -0.00285163 -0.00115210
v 0.01131281 -0.00290265 -0.00091937
v 0.01131281 -0.00293071 -0.00078601
v 0.01131281 -0.00294411 -0.00070587
v 0.01131281 -0.00295240 -0.00063791
v 0.01131281 -0.00297536 -0.00039556
v 0.01131281 -0.00297855 -0.00029619
v 0.01131281 -0.00297919 -0.00013334
v 0.01131281 -0.00296260 0.00015325
v 0.01112530 -0.00318583 0.00038983
v 0.01110505 -0.00316159 0.00065141
v 0.01109205 -0.00314629 0.00079503
v 0.01095792 -0.00321581 0.00065141
v 0.01082287 -0.00314501 0.00105020
v 0.01079491 -0.00316478 0.00091364
v 0.01013759 -0.00276616 0.00040265
v 0.01013759 -0.00271642 0.00065141
v 0.01013759 -0.00278976 0.00012761
v 0.01013759 -0.00280124 -0.00013334
v 0.01013759 -0.00269537 -0.00116749
v 0.01013759 -0.00260034 -0.00144061
v 0.01090178 -0.00312652 -0.00101618
v 0.01104109 -0.00289372 -0.00159641
v 0.01110942 -0.00289372 -0.00159641
v 0.01115003 -0.00293199 -0.00144318
v 0.01128094 -0.00278657 -0.00144318
v 0.01131281 -0.00282101 -0.00124314
v 0.01131281 -0.00292689 0.00030392
v 0.01101118 -0.00310866 0.00096942
v 0.01083656 -0.00314501 0.00105020
v 0.01093756 -0.00316287 0.00089505
v 0.01131281 -0.00290329 0.00038983
v 0.01131281 -0.00289053 0.00043471
v 0.01131281 -0.00282803 0.00065141
v 0.01131281 -0.00273746 0.00092518
v 0.01131281 -0.00273172 0.00093993
v 0.01109389 -0.00288862 0.00132204
v 0.01095205 -0.00292689 0.00142078
v 0.01013759 -0.00264498 0.00091364
v 0.01079802 -0.00289500 0.00159324
v 0.01075074 -0.00293263 0.00143745
v 0.01013759 -0.00255824 0.00116817
v 0.01013759 -0.00249957 -0.00164962
v 0.01086647 -0.00285864 -0.00154127
v 0.01095551 -0.00293709 -0.00144959
v 0.01013759 -0.00232545 -0.00195993
v 0.01100371 -0.00266731 -0.00190223
v 0.01115095 -0.00266731 -0.00190223
v 0.01131281 -0.00259970 -0.00175413
v 0.01131281 -0.00274065 -0.00144318
v 0.01086083 -0.00289500 0.00159324
v 0.01131281 -0.00246768 0.00143552
v 0.01110747 -0.00265838 0.00161825
v 0.01106905 -0.00258694 0.00179264
v 0.01103546 -0.00283313 0.00149643
v 0.01074832 -0.00266794 0.00189842
v 0.01057381 -0.00260863 0.00181059
v 0.01013759 -0.00242877 0.00140154
v 0.01013759 -0.00246576 -0.00171566
v 0.01013759 -0.00221575 -0.00210675
v 0.01013759 -0.00212263 -0.00221959
v 0.01100244 -0.00242813 -0.00217664
v 0.01131281 -0.00256845 -0.00180285
v 0.01117246 -0.00242813 -0.00217664
v 0.01131281 -0.00240454 -0.00205674
v 0.01089454 -0.00266794 0.00189842
v 0.01131281 -0.00222723 0.00169839
v 0.01107399 -0.00232226 0.00206127
v 0.01089937 -0.00242941 0.00217347
v 0.01069610 -0.00231524 0.00230426
v 0.01069610 -0.00242686 0.00217347
v 0.01067516 -0.00256398 0.00197600
v 0.01013759 -0.00236053 0.00150797
v 0.01055414 -0.00237775 0.00211962
v 0.01013759 -0.00195808 -0.00239591
v 0.01101199 -0.00217365 -0.00243053
v 0.01131281 -0.00233438 -0.00214266
v 0.01121986 -0.00202058 -0.00255170
v 0.01121986 -0.00216154 -0.00242027
v 0.01131281 -0.00212327 -0.00238565
v 0.01124379 -0.00230185 -0.00225037
v 0.01131281 -0.00196382 0.00195741
v 0.01131281 -0.00168064 0.00220168
v 0.01106732 -0.00202951 0.00230939
v 0.01089269 -0.00217621 0.00242672
v 0.01069610 -0.00218450 0.00243634
v 0.01054655 -0.00213347 0.00239082
v 0.01013759 -0.00219725 0.00172019
v 0.01013759 -0.00186624 -0.00248310
v 0.01103189 -0.00189940 -0.00266967
v 0.01121986 -0.00188920 -0.00266262
v 0.01131281 -0.00185667 -0.00263890
v 0.01131281 -0.00115638 0.00246134
v 0.01084265 -0.00159454 0.00289154
v 0.01090995 -0.00169021 0.00275049
v 0.01087624 -0.00190195 0.00266586
v 0.01069610 -0.00204227 0.00256713
v 0.01054724 -0.00186879 0.00264214
v 0.01013759 -0.00197658 0.00195933
v 0.01013759 -0.00168447 -0.00263633
v 0.01013759 -0.00153076 -0.00274853
v 0.01107112 -0.00159263 -0.00289599
v 0.01114060 -0.00159263 -0.00289599
v 0.01122469 -0.00168893 -0.00280110
v 0.01131281 -0.00155117 -0.00286522
v 0.01131281 -0.00041207 0.00272934
v 0.01087199 -0.00144019 0.00292488
v 0.01084392 -0.00086108 0.00315697
v 0.01076017 -0.00103583 0.00313646
v 0.01058566 -0.00104923 0.00314095
v 0.01069610 -0.00159581 0.00289218
v 0.01069610 -0.00172720 0.00280371
v 0.01069610 -0.00191152 0.00267292
v 0.01055966 -0.00158051 0.00288385
v 0.01013759 -0.00169659 0.00221386
v 0.01013759 -0.00144019 -0.00280752
v 0.01013759 -0.00118125 -0.00294087
v 0.01108837 -0.00104859 -0.00314604
v 0.01131281 -0.00154479 -0.00286906
v 0.01109355 -0.00104859 -0.00314604
v 0.01126817 -0.00102371 -0.00313449
v 0.01122469 -0.00145231 -0.00294215
v 0.01131281 -0.00030046 0.00275370
v 0.01090385 -0.00117870 0.00297746
v 0.01085646 -0.00065443 0.00317172
v 0.01069610 -0.00039230 0.00325635
v 0.01069610 -0.00065443 0.00322429
v 0.01131281 -0.00013080 0.00279024
v 0.01068218 -0.00093570 0.00316595
v 0.01056427 -0.00104923 0.00314095
v 0.01053344 -0.00144019 0.00291591
v 0.01013759 -0.00118763 0.00248699
v 0.01013759 -0.00099055 -0.00302742
v 0.01013759 -0.00093442 -0.00305115
v 0.01013759 -0.00065635 -0.00314475
v 0.01013759 -0.00039230 -0.00320246
v 0.01121986 -0.00065443 -0.00323002
v 0.01131281 -0.00107474 -0.00307807
v 0.01119651 -0.00092868 -0.00317104
v 0.01131281 -0.00087575 -0.00316655
v 0.01086094 -0.00039230 0.00318134
v 0.01069610 -0.00013080 0.00326853
v 0.01131281 -0.00000325 0.00279794
v 0.01046602 -0.00013080 0.00322622
v 0.01048029 -0.00039230 0.00321532
v 0.01050422 -0.00065443 0.00319288
v 0.01054160 -0.00091657 0.00315954
v 0.01043381 -0.00091657 0.00300887
v 0.01036238 -0.00066464 0.00299605
v 0.01034938 -0.00039230 0.00305760
v 0.01013759 -0.00026219 0.00273959
v 0.01013759 -0.00013080 -0.00322874
v 0.01121986 -0.00039230 -0.00326465
v 0.01131281 -0.00053325 -0.00322297
v 0.01131281 -0.00065443 -0.00320694
v 0.01131281 -0.00077498 -0.00318963
v 0.01085922 -0.00013080 0.00318198
v 0.01131281 0.00026016 0.00280050
v 0.01069610 0.00013069 0.00325956
v 0.01045901 0.00013069 0.00322686
v 0.01032798 0.00013069 0.00309991
v 0.01033500 -0.00013080 0.00308453
v 0.01013759 -0.00014866 0.00277037
v 0.01013759 0.00013069 -0.00322938
v 0.01121986 -0.00013080 -0.00328131
v 0.01131281 -0.00039230 -0.00323836
v 0.01085105 0.00013069 0.00317300
v 0.01131281 0.00051911 0.00278576
v 0.01069610 0.00039282 0.00322942
v 0.01047454 0.00065432 0.00319480
v 0.01046073 0.00039282 0.00321596
v 0.01083667 0.00039282 0.00315313
v 0.01032971 0.00039282 0.00310248
v 0.01013759 0.00039282 0.00281461
v 0.01013759 0.00016704 0.00280884
v 0.01013759 0.00013069 0.00280755
v 0.01121986 0.00013069 -0.00327747
v 0.01013759 0.00039282 -0.00321912
v 0.01131281 0.00013069 -0.00325567
v 0.01131281 -0.00013080 -0.00325503
v 0.01131281 0.00077422 0.00274857
v 0.01082758 0.00052676 0.00314095
v 0.01070519 0.00063008 0.00318454
v 0.01061465 0.00091645 0.00316274
v 0.01051883 0.00091645 0.00316274
v 0.01038791 0.00091645 0.00307619
v 0.01034351 0.00065432 0.00309478
v 0.01013759 0.00065432 0.00279730
v 0.01013759 0.00049806 -0.00321079
v 0.01121986 0.00039282 -0.00325246
v 0.01131281 0.00039282 -0.00323772
v 0.01131281 0.00100957 0.00268382
v 0.01079836 0.00070151 0.00311209
v 0.01057243 0.00105485 0.00314287
v 0.01055667 0.00105485 0.00314287
v 0.01029588 0.00134505 0.00288898
v 0.01028185 0.00117858 0.00291398
v 0.01026460 0.00091645 0.00294476
v 0.01013759 0.00068238 0.00279409
v 0.01013759 0.00065432 -0.00319156
v 0.01131281 0.00096811 -0.00315822
v 0.01058888 0.00159634 0.00289283
v 0.01131281 0.00132846 0.00253122
v 0.01051411 0.00159634 0.00289283
v 0.01033948 0.00151916 0.00285820
v 0.01013759 0.00111927 0.00269856
v 0.01028967 0.00186549 0.00263573
v 0.01026586 0.00170221 0.00268125
v 0.01013759 0.00149557 0.00256264
v 0.01013759 0.00143944 0.00258700
v 0.01013759 0.00127553 0.00264919
v 0.01013759 0.00094451 0.00274793
v 0.01013759 0.00091773 0.00275370
v 0.01013759 0.00091645 -0.00312808
v 0.01013759 0.00114350 -0.00305628
v 0.01013759 0.00149875 -0.00291587
v 0.01131281 0.00108483 -0.00311141
v 0.01131281 0.00150705 0.00243826
v 0.01131281 0.00160527 0.00237479
v 0.01131281 0.00175005 0.00228054
v 0.01131281 0.00183806 0.00222220
v 0.01061741 0.00190184 0.00266522
v 0.01043416 0.00203960 0.00257482
v 0.01043416 0.00190886 0.00266715
v 0.01042979 0.00169137 0.00280243
v 0.01027368 0.00215504 0.00240300
v 0.01024274 0.00195733 0.00248827
v 0.01013759 0.00183934 0.00237863
v 0.01013759 0.00169137 0.00246968
v 0.01013759 0.00168754 0.00247160
v 0.01013759 0.00157019 -0.00288638
v 0.01131281 0.00156509 -0.00290369
v 0.01062075 0.00217418 0.00242480
v 0.01131281 0.00210785 0.00198305
v 0.01043416 0.00233044 0.00232991
v 0.01043416 0.00219969 0.00244403
v 0.01026598 0.00241781 0.00215616
v 0.01022042 0.00223604 0.00223566
v 0.01013759 0.00214867 0.00214783
v 0.01013759 0.00200835 0.00225874
v 0.01013759 0.00196817 0.00228759
v 0.01013759 0.00164991 -0.00284278
v 0.01131281 0.00160335 -0.00288125
v 0.01061327 0.00242355 0.00217027
v 0.01131281 0.00231194 0.00178494
v 0.01043416 0.00245225 0.00219848
v 0.01013759 0.00228770 0.00202152
v 0.01026678 0.00266209 0.00189009
v 0.01021386 0.00249818 0.00197087
v 0.01013759 0.00234000 0.00197023
v 0.01013759 0.00223668 0.00206897
v 0.01013759 0.00190375 -0.00267031
v 0.01017222 0.00190439 -0.00267095
v 0.01017222 0.00203578 -0.00257799
v 0.01131281 0.00189929 -0.00266967
v 0.01043416 0.00258300 0.00205037
v 0.01131281 0.00236360 0.00172532
v 0.01131281 0.00242802 0.00165030
v 0.01131281 0.00255366 0.00150028
v 0.01059717 0.00265762 0.00188945
v 0.01028795 0.00289361 0.00159068
v 0.01023112 0.00274947 0.00168621
v 0.01013759 0.00273926 0.00147976
v 0.01013759 0.00253644 0.00175673
v 0.01013759 0.00249307 0.00180802
v 0.01013759 0.00241909 0.00189009
v 0.01013759 0.00206065 -0.00254978
v 0.01013759 0.00219267 -0.00244335
v 0.01017222 0.00219714 -0.00244656
v 0.01131281 0.00217482 -0.00243117
v 0.01043416 0.00267995 0.00191958
v 0.01131281 0.00265316 0.00136179
v 0.01056933 0.00288532 0.00157593
v 0.01029934 0.00314490 0.00105020
v 0.01025045 0.00293060 0.00143745
v 0.01013759 0.00276924 0.00143168
v 0.01043416 0.00281133 0.00172147
v 0.01043416 0.00289361 0.00159068
v 0.01013759 0.00234638 -0.00230230
v 0.01017222 0.00232789 -0.00233307
v 0.01131281 0.00241399 -0.00219331
v 0.01131281 0.00276669 0.00117266
v 0.01131281 0.00285279 0.00102327
v 0.01131281 0.00291083 0.00089376
v 0.01131281 0.00301351 0.00061102
v 0.01031613 0.00314490 0.00105020
v 0.01026920 0.00316531 0.00091364
v 0.01021996 0.00301798 0.00115278
v 0.01013759 0.00286172 0.00127267
v 0.01013759 0.00300267 0.00095531
v 0.01013759 0.00294527 0.00108546
v 0.01017222 0.00244907 -0.00220228
v 0.01013759 0.00244396 -0.00219651
v 0.01131281 0.00242929 -0.00217792
v 0.01131281 0.00306836 0.00042445
v 0.01131281 0.00308622 0.00035393
v 0.01037537 0.00316531 0.00091364
v 0.01022387 0.00319720 0.00065141
v 0.01013759 0.00309515 0.00071809
v 0.01013759 0.00301670 0.00092005
v 0.01017222 0.00257981 -0.00205290
v 0.01013759 0.00259640 -0.00201892
v 0.01131281 0.00266209 -0.00190672
v 0.01131281 0.00310791 0.00025006
v 0.01045797 0.00318891 0.00066167
v 0.01043416 0.00322526 0.00038983
v 0.01019580 0.00321761 0.00038983
v 0.01013759 0.00316977 0.00038983
v 0.01013759 0.00314936 0.00050972
v 0.01013759 0.00311428 0.00065141
v 0.01017222 0.00267803 -0.00192211
v 0.01131281 0.00266592 -0.00190223
v 0.01013759 0.00267357 -0.00191569
v 0.01131281 0.00312513 0.00012761
v 0.01131281 0.00313150 0.00007247
v 0.01131281 0.00314936 -0.00013334
v 0.01131281 0.00315064 -0.00017052
v 0.01043416 0.00323291 0.00012761
v 0.01017222 0.00323227 -0.00013334
v 0.01015105 0.00321123 0.00010517
v 0.01013759 0.00320294 0.00009298
v 0.01013759 0.00318316 0.00030520
v 0.01013759 0.00282855 -0.00168809
v 0.01017222 0.00280878 -0.00172592
v 0.01031843 0.00289361 -0.00159513
v 0.01131281 0.00283238 -0.00163424
v 0.01131281 0.00315383 -0.00039556
v 0.01041012 0.00321697 -0.00039556
v 0.01017222 0.00322398 -0.00039556
v 0.01013759 0.00320485 -0.00039556
v 0.01013759 0.00321059 -0.00013334
v 0.01013759 0.00289042 -0.00159128
v 0.01017222 0.00289297 -0.00159449
v 0.01131281 0.00292295 -0.00144061
v 0.01029381 0.00314426 -0.00105465
v 0.01030612 0.00314426 -0.00105465
v 0.01131281 0.00313916 -0.00065714
v 0.01038159 0.00319592 -0.00065714
v 0.01023423 0.00316403 -0.00091937
v 0.01014898 0.00318763 -0.00066227
v 0.01013759 0.00318189 -0.00067253
v 0.01013759 0.00294654 -0.00144318
v 0.01019281 0.00307538 -0.00115787
v 0.01131281 0.00310344 -0.00087962
v 0.01013759 0.00310472 -0.00101105
v 0.01013759 0.00313342 -0.00091937
v 0.01033603 0.00316403 -0.00091937
f 1 2 3
f 1 3 4
f 1 4 5
f 1 5 6
f 1 6 7
f 1 7 8
f 1 8 2
f 2 9 10
f 2 10 11
f 2 11 3
f 2 8 9
f 3 11 12
f 3 12 13
f 3 13 14
f 3 14 4
f 4 14 15
f 4 15 16
f 4 16 17
f 4 17 5
f 5 17 6
f 6 17 18
f 6 18 19
f 6 19 7
f 7 19 20
f 7 20 21
f 7 21 22
f 7 22 8
f 8 22 9
f 9 22 23
f 9 23 49
f 9 49 48
f 9 48 46
f 9 46 47
f 9 47 69
f 9 69 72
f 9 72 88
f 9 88 103
f 9 103 118
f 9 118 129
f 9 129 145
f 9 145 162
f 9 162 181
f 9 181 193
f 9 193 206
f 9 206 205
f 9 205 204
f 9 204 218
f 9 218 229
f 9 229 243
f 9 243 242
f 9 242 236
f 9 236 241
f 9 241 240
f 9 240 239
f 9 239 260
f 9 260 259
f 9 259 258
f 9 258 271
f 9 271 270
f 9 270 269
f 9 269 281
f 9 281 277
f 9 277 280
f 9 280 296
f 9 296 295
f 9 295 294
f 9 294 293
f 9 293 306
f 9 306 319
f 9 319 321
f 9 321 320
f 9 320 330
f 9 330 329
f 9 329 340
f 9 340 339
f 9 339 338
f 9 338 352
f 9 352 351
f 9 351 361
f 9 361 360
f 9 360 371
f 9 371 376
f 9 376 375
f 9 375 372
f 9 372 362
f 9 362 353
f 9 353 343
f 9 343 332
f 9 332 323
f 9 323 309
f 9 309 298
f 9 298 297
f 9 297 282
f 9 282 272
f 9 272 261
f 9 261 246
f 9 246 245
f 9 245 244
f 9 244 230
f 9 230 219
f 9 219 208
f 9 208 194
f 9 194 182
f 9 182 166
f 9 166 165
f 9 165 164
f 9 164 163
f 9 163 147
f 9 147 146
f 9 146 131
f 9 131 130
f 9 130 119
f 9 119 105
f 9 105 91
f 9 91 90
f 9 90 76
f 9 76 89
f 9 89 73
f 9 73 51
f 9 51 50
f 9 50 24
f 9 24 10
f 10 24 12
f 10 12 11
f 12 24 25
f 12 25 13
f 13 25 26
f 13 26 27
f 13 27 28
f 13 28 14
f 14 28 29
f 14 29 30
f 14 30 31
f 14 31 15
f 15 32 33
f 15 33 16
f 15 31 32
f 16 33 34
f 16 34 35
f 16 35 17
f 17 36 37
f 17 37 38
f 17 38 18
f 17 35 36
f 18 38 39
f 18 39 19
f 19 39 40
f 19 40 20
f 20 40 41
f 20 41 42
f 20 42 43
f 20 43 44
f 20 44 45
f 20 45 21
f 21 46 22
f 21 45 47
f 21 47 46
f 22 46 48
f 22 48 49
f 22 49 23
f 24 50 25
f 25 50 51
f 25 51 52
f 25 52 26
f 26 52 27
f 27 52 53
f 27 53 54
f 27 54 28
f 28 54 55
f 28 55 29
f 29 55 56
f 29 56 30
f 30 56 57
f 30 57 80
f 30 80 79
f 30 79 93
f 30 93 95
f 30 95 107
f 30 107 110
f 30 110 122
f 30 122 135
f 30 135 149
f 30 149 168
f 30 168 170
f 30 170 186
f 30 186 185
f 30 185 184
f 30 184 196
f 30 196 210
f 30 210 209
f 30 209 221
f 30 221 231
f 30 231 247
f 30 247 262
f 30 262 273
f 30 273 285
f 30 285 300
f 30 300 311
f 30 311 324
f 30 324 333
f 30 333 342
f 30 342 356
f 30 356 364
f 30 364 374
f 30 374 367
f 30 367 357
f 30 357 347
f 30 347 346
f 30 346 345
f 30 345 344
f 30 344 334
f 30 334 326
f 30 326 325
f 30 325 315
f 30 315 314
f 30 314 313
f 30 313 312
f 30 312 302
f 30 302 289
f 30 289 288
f 30 288 287
f 30 287 275
f 30 275 264
f 30 264 251
f 30 251 250
f 30 250 249
f 30 249 248
f 30 248 233
f 30 233 222
f 30 222 211
f 30 211 198
f 30 198 188
f 30 188 173
f 30 173 158
f 30 158 153
f 30 153 136
f 30 136 123
f 30 123 113
f 30 113 112
f 30 112 97
f 30 97 82
f 30 82 66
f 30 66 65
f 30 65 64
f 30 64 63
f 30 63 62
f 30 62 58
f 30 58 39
f 30 39 38
f 30 38 37
f 30 37 36
f 30 36 35
f 30 35 34
f 30 34 33
f 30 33 32
f 30 32 31
f 39 58 41
f 39 41 40
f 41 58 42
f 42 59 60
f 42 60 61
f 42 61 43
f 42 58 62
f 42 62 63
f 42 63 64
f 42 64 65
f 42 65 66
f 42 66 67
f 42 67 68
f 42 68 59
f 43 61 60
f 43 60 44
f 44 69 45
f 44 60 81
f 44 81 70
f 44 70 71
f 44 71 72
f 44 72 69
f 45 69 47
f 51 73 74
f 51 74 52
f 52 74 75
f 52 75 53
f 53 75 74
f 53 74 76
f 53 76 77
f 53 77 78
f 53 78 54
f 54 78 79
f 54 79 55
f 55 79 56
f 56 80 57
f 56 79 80
f 59 68 81
f 59 81 60
f 66 82 67
f 67 82 83
f 67 83 84
f 67 84 85
f 67 85 81
f 67 81 68
f 70 81 96
f 70 96 86
f 70 86 87
f 70 87 71
f 71 87 72
f 72 87 88
f 73 89 74
f 74 89 76
f 76 90 77
f 77 90 91
f 77 91 92
f 77 92 94
f 77 94 78
f 78 93 79
f 78 94 95
f 78 95 93
f 81 85 96
f 82 97 84
f 82 84 83
f 84 96 85
f 84 97 98
f 84 98 99
f 84 99 96
f 86 96 99
f 86 99 100
f 86 100 101
f 86 101 102
f 86 102 87
f 87 103 88
f 87 102 104
f 87 104 103
f 91 105 92
f 92 105 106
f 92 106 94
f 94 107 95
f 94 106 108
f 94 108 109
f 94 109 110
f 94 110 111
f 94 111 107
f 97 112 98
f 98 113 114
f 98 114 115
f 98 115 99
f 98 112 113
f 99 115 116
f 99 116 100
f 100 104 101
f 100 116 117
f 100 117 104
f 101 104 102
f 103 104 118
f 104 117 118
f 105 119 106
f 106 119 120
f 106 120 108
f 107 111 110
f 108 120 121
f 108 121 122
f 108 122 109
f 109 122 110
f 113 123 124
f 113 124 125
f 113 125 126
f 113 126 114
f 114 126 115
f 115 127 116
f 115 126 127
f 116 127 128
f 116 128 117
f 117 128 129
f 117 129 118
f 119 130 120
f 120 130 131
f 120 131 132
f 120 132 133
f 120 133 121
f 121 133 134
f 121 134 135
f 121 135 122
f 123 136 137
f 123 137 124
f 124 137 138
f 124 138 139
f 124 139 140
f 124 140 141
f 124 141 142
f 124 142 143
f 124 143 126
f 124 126 125
f 126 143 127
f 127 143 144
f 127 144 128
f 128 145 129
f 128 144 145
f 131 146 132
f 132 146 147
f 132 147 148
f 132 148 150
f 132 150 133
f 133 149 135
f 133 135 134
f 133 150 151
f 133 151 152
f 133 152 149
f 136 153 138
f 136 138 154
f 136 154 137
f 137 154 138
f 138 155 156
f 138 156 157
f 138 157 139
f 138 153 158
f 138 158 155
f 139 157 159
f 139 159 140
f 140 159 160
f 140 160 141
f 141 160 144
f 141 144 142
f 142 144 143
f 144 160 161
f 144 161 162
f 144 162 145
f 147 163 148
f 148 164 165
f 148 165 166
f 148 166 167
f 148 167 150
f 148 163 164
f 149 152 151
f 149 151 168
f 150 167 169
f 150 169 151
f 151 169 170
f 151 170 168
f 155 171 172
f 155 172 156
f 155 158 173
f 155 173 171
f 156 172 174
f 156 174 175
f 156 175 176
f 156 176 157
f 157 176 177
f 157 177 160
f 157 160 159
f 160 177 178
f 160 178 162
f 160 162 161
f 162 178 179
f 162 179 180
f 162 180 181
f 166 182 183
f 166 183 167
f 167 183 184
f 167 184 185
f 167 185 186
f 167 186 169
f 169 186 170
f 171 187 172
f 171 173 188
f 171 188 187
f 172 189 190
f 172 190 174
f 172 187 189
f 174 190 191
f 174 191 192
f 174 192 175
f 175 192 180
f 175 180 176
f 176 180 179
f 176 179 177
f 177 179 178
f 180 192 193
f 180 193 181
f 182 194 195
f 182 195 183
f 183 195 210
f 183 210 196
f 183 196 184
f 187 197 189
f 187 188 198
f 187 198 197
f 189 199 200
f 189 200 201
f 189 201 190
f 189 197 202
f 189 202 199
f 190 201 203
f 190 203 191
f 191 203 204
f 191 204 205
f 191 205 206
f 191 206 192
f 192 206 193
f 194 207 195
f 194 208 207
f 195 207 209
f 195 209 210
f 197 198 202
f 198 211 212
f 198 212 202
f 199 213 214
f 199 214 215
f 199 215 200
f 199 202 212
f 199 212 213
f 200 215 216
f 200 216 217
f 200 217 201
f 201 217 203
f 203 217 218
f 203 218 204
f 207 208 219
f 207 219 220
f 207 220 221
f 207 221 209
f 211 222 212
f 212 223 214
f 212 214 213
f 212 222 223
f 214 223 222
f 214 222 224
f 214 224 225
f 214 225 215
f 215 225 226
f 215 226 216
f 216 226 217
f 217 226 227
f 217 227 228
f 217 228 229
f 217 229 218
f 219 230 220
f 220 230 231
f 220 231 221
f 222 232 224
f 222 233 232
f 224 232 234
f 224 234 225
f 225 234 235
f 225 235 226
f 226 236 227
f 226 235 237
f 226 237 238
f 226 238 239
f 226 239 240
f 226 240 241
f 226 241 236
f 227 236 242
f 227 242 228
f 228 242 243
f 228 243 229
f 230 244 231
f 231 244 245
f 231 245 246
f 231 246 247
f 232 233 248
f 232 248 249
f 232 249 250
f 232 250 251
f 232 251 252
f 232 252 253
f 232 253 234
f 234 254 255
f 234 255 235
f 234 253 254
f 235 255 237
f 237 253 256
f 237 256 257
f 237 257 258
f 237 258 259
f 237 259 238
f 237 255 254
f 237 254 253
f 238 259 260
f 238 260 239
f 246 261 247
f 247 261 262
f 251 263 252
f 251 264 263
f 252 263 265
f 252 265 266
f 252 266 253
f 253 266 256
f 256 266 265
f 256 265 267
f 256 267 268
f 256 268 269
f 256 269 270
f 256 270 257
f 257 270 271
f 257 271 258
f 261 272 262
f 262 272 273
f 263 274 265
f 263 264 275
f 263 275 274
f 265 274 276
f 265 276 267
f 267 277 268
f 267 276 278
f 267 278 279
f 267 279 280
f 267 280 277
f 268 277 281
f 268 281 269
f 272 282 283
f 272 283 273
f 273 283 284
f 273 284 285
f 274 286 276
f 274 275 287
f 274 287 288
f 274 288 289
f 274 289 290
f 274 290 286
f 276 286 278
f 278 291 292
f 278 292 293
f 278 293 294
f 278 294 279
f 278 286 291
f 279 294 295
f 279 295 296
f 279 296 280
f 282 297 284
f 282 284 283
f 284 297 298
f 284 298 299
f 284 299 285
f 285 299 300
f 286 301 291
f 286 290 301
f 289 302 290
f 290 302 303
f 290 303 301
f 291 304 305
f 291 305 306
f 291 306 293
f 291 293 292
f 291 301 307
f 291 307 308
f 291 308 316
f 291 316 304
f 298 309 310
f 298 310 299
f 299 310 300
f 300 310 311
f 301 303 307
f 302 312 303
f 303 308 307
f 303 312 313
f 303 313 314
f 303 314 315
f 303 315 316
f 303 316 308
f 304 316 327
f 304 327 317
f 304 317 318
f 304 318 305
f 305 319 306
f 305 318 320
f 305 320 321
f 305 321 319
f 309 322 310
f 309 323 322
f 310 322 324
f 310 324 311
f 315 325 316
f 316 325 326
f 316 326 327
f 317 328 329
f 317 329 318
f 317 327 328
f 318 329 330
f 318 330 320
f 322 323 331
f 322 331 324
f 323 332 331
f 324 331 333
f 326 334 327
f 327 335 336
f 327 336 328
f 327 334 335
f 328 336 337
f 328 337 338
f 328 338 339
f 328 339 340
f 328 340 329
f 331 332 341
f 331 341 342
f 331 342 333
f 332 343 341
f 334 344 335
f 335 344 336
f 336 344 345
f 336 345 346
f 336 346 347
f 336 347 348
f 336 348 349
f 336 349 337
f 337 350 351
f 337 351 352
f 337 352 338
f 337 349 350
f 341 343 353
f 341 353 354
f 341 354 355
f 341 355 342
f 342 355 356
f 347 357 348
f 348 357 358
f 348 358 359
f 348 359 349
f 349 359 360
f 349 360 361
f 349 361 350
f 350 361 351
f 353 362 363
f 353 363 354
f 354 363 355
f 355 364 356
f 355 363 365
f 355 365 366
f 355 366 364
f 357 367 358
f 358 367 368
f 358 368 359
f 359 368 369
f 359 369 370
f 359 370 371
f 359 371 360
f 362 372 373
f 362 373 365
f 362 365 363
f 364 366 374
f 365 373 375
f 365 375 376
f 365 376 369
f 365 369 377
f 365 377 366
f 366 377 374
f 367 374 377
f 367 377 368
f 368 377 369
f 369 376 370
f 370 376 371
f 372 375 373

