# https://github.com/mikedh/trimesh
v 0.00964826 -0.00328131 0.00012800
v 0.00985017 -0.00321664 0.00012800
v 0.00964826 -0.00326402 0.00038953
v 0.00946362 -0.00319167 0.00065169
v 0.00945682 -0.00320448 0.00038953
v 0.00945930 -0.00320704 0.00012800
v 0.00964826 -0.00327875 -0.00013352
v 0.00985783 -0.00322049 -0.00013352
v 0.00998114 -0.00304186 0.00012800
v 0.00983559 -0.00320192 0.00038953
v 0.00998881 -0.00305210 -0.00013352
v 0.00981486 -0.00317951 0.00065169
v 0.00964826 -0.00322817 0.00065169
v 0.00949115 -0.00316414 0.00091386
v 0.00936990 -0.00301176 0.00091386
v 0.00903453 -0.00272813 0.00011775
v 0.00903453 -0.00277935 -0.00014442
v 0.00903453 -0.00278127 -0.00026685
v 0.00946729 -0.00320128 -0.00013352
v 0.00948187 -0.00318527 -0.00039568
v 0.00964826 -0.00325634 -0.00039568
v 0.00984704 -0.00319616 -0.00065721
v 0.00985859 -0.00321408 -0.00039568
v 0.00998956 -0.00305594 -0.00039568
v 0.01013759 -0.00279024 0.00012800
v 0.01013759 -0.00276591 0.00040299
v 0.00997974 -0.00299512 0.00040363
v 0.01013759 -0.00281073 -0.00039568
v 0.01013759 -0.00280816 -0.00030659
v 0.01013759 -0.00280112 -0.00013352
v 0.01013759 -0.00271597 0.00065169
v 0.00979521 -0.00315902 0.00083822
v 0.00963336 -0.00316991 0.00092091
v 0.00953618 -0.00314494 0.00105039
v 0.00951394 -0.00314494 0.00105039
v 0.00943263 -0.00301945 0.00115295
v 0.00928309 -0.00283249 0.00117538
v 0.00903453 -0.00248036 0.00118820
v 0.00903453 -0.00274414 -0.00052260
v 0.00950206 -0.00316094 -0.00065721
v 0.00951469 -0.00314622 -0.00079887
v 0.00964826 -0.00321344 -0.00065721
v 0.00978214 -0.00314430 -0.00105462
v 0.00981011 -0.00316414 -0.00091937
v 0.01004290 -0.00288371 -0.00106103
v 0.00997801 -0.00304890 -0.00065721
v 0.01002606 -0.00285874 -0.00123538
v 0.01006244 -0.00291765 -0.00065721
v 0.01013759 -0.00279152 -0.00065721
v 0.01013759 -0.00264490 0.00091386
v 0.00971077 -0.00312765 0.00101257
v 0.01013759 -0.00255847 0.00116769
v 0.00979748 -0.00290740 0.00136319
v 0.00974338 -0.00286002 0.00153754
v 0.00956890 -0.00289524 0.00159267
v 0.00949547 -0.00289524 0.00159267
v 0.00945466 -0.00293365 0.00143755
v 0.00932369 -0.00278768 0.00143755
v 0.00925134 -0.00262697 0.00158433
v 0.00903453 -0.00222362 0.00170869
v 0.00903453 -0.00270508 -0.00068221
v 0.00959772 -0.00310780 -0.00097386
v 0.00977232 -0.00314430 -0.00105462
v 0.00967039 -0.00316158 -0.00089950
v 0.00903453 -0.00252197 -0.00129756
v 0.00903453 -0.00242017 -0.00151293
v 0.00951286 -0.00288820 -0.00132640
v 0.00965603 -0.00292597 -0.00142576
v 0.00980536 -0.00289332 -0.00159626
v 0.00985287 -0.00293173 -0.00144306
v 0.00998384 -0.00282225 -0.00144306
v 0.01013759 -0.00274734 -0.00091937
v 0.01005111 -0.00289844 -0.00091937
v 0.01013759 -0.00269548 -0.00116744
v 0.01005813 -0.00265066 -0.00163985
v 0.01008091 -0.00269164 -0.00144306
v 0.01013759 -0.00260008 -0.00144114
v 0.00965301 -0.00293878 0.00144524
v 0.01013759 -0.00242850 0.00140165
v 0.01013759 -0.00235999 0.00150806
v 0.00977804 -0.00261737 0.00182855
v 0.00960334 -0.00266859 0.00189842
v 0.00945444 -0.00266859 0.00189842
v 0.00927985 -0.00258280 0.00175932
v 0.00925858 -0.00235231 0.00208495
v 0.00903453 -0.00195279 0.00213046
v 0.00974856 -0.00289332 -0.00159626
v 0.00957408 -0.00283121 -0.00150075
v 0.00903453 -0.00222169 -0.00178728
v 0.00971283 -0.00266731 -0.00190265
v 0.00985719 -0.00266731 -0.00190265
v 0.01003178 -0.00260777 -0.00181420
v 0.01013759 -0.00249956 -0.00164946
v 0.01013759 -0.00246563 -0.00171612
v 0.01013759 -0.00219736 0.00172022
v 0.01013759 -0.00197648 0.00195931
v 0.00977934 -0.00235743 0.00209264
v 0.00964826 -0.00241185 0.00215289
v 0.00967374 -0.00255655 0.00197598
v 0.00959546 -0.00217624 0.00242660
v 0.00943317 -0.00242978 0.00217340
v 0.00925005 -0.00210709 0.00236570
v 0.00903453 -0.00191309 0.00217212
v 0.00903453 -0.00196559 -0.00208662
v 0.00970764 -0.00242786 -0.00217700
v 0.00991020 -0.00231197 -0.00230712
v 0.00991020 -0.00242465 -0.00217636
v 0.00993072 -0.00256167 -0.00198085
v 0.01013759 -0.00232542 -0.00195970
v 0.01005165 -0.00237664 -0.00212315
v 0.01013759 -0.00169669 0.00221379
v 0.00977016 -0.00207188 0.00233814
v 0.00957591 -0.00190157 0.00266569
v 0.00938642 -0.00202322 0.00254838
v 0.00938642 -0.00216471 0.00241762
v 0.00925070 -0.00184395 0.00262402
v 0.00903453 -0.00167620 0.00238942
v 0.00903453 -0.00169157 -0.00233019
v 0.00971552 -0.00217368 -0.00242891
v 0.00991020 -0.00218136 -0.00243788
v 0.01005910 -0.00213078 -0.00239493
v 0.01013759 -0.00221593 -0.00210649
v 0.01013759 -0.00212246 -0.00221994
v 0.01013759 -0.00118769 0.00248685
v 0.00953845 -0.00159681 0.00289260
v 0.00938642 -0.00189261 0.00265928
v 0.00945239 -0.00159681 0.00289260
v 0.00927780 -0.00155583 0.00286760
v 0.00922392 -0.00170245 0.00267979
v 0.00923159 -0.00138105 0.00291054
v 0.00903453 -0.00117873 0.00270286
v 0.00903453 -0.00140986 -0.00250647
v 0.00976508 -0.00159233 -0.00289555
v 0.00973140 -0.00189773 -0.00266928
v 0.00991020 -0.00203794 -0.00256864
v 0.01005845 -0.00186700 -0.00264620
v 0.01013759 -0.00195791 -0.00239622
v 0.01009494 -0.00195855 -0.00248531
v 0.01013759 -0.00014856 0.00277081
v 0.00954093 -0.00091622 0.00316053
v 0.00952031 -0.00105324 0.00314194
v 0.00957613 -0.00144059 0.00293106
v 0.00937368 -0.00169157 0.00280158
v 0.00949321 -0.00105324 0.00314194
v 0.00931861 -0.00102827 0.00313104
v 0.00937368 -0.00145724 0.00294003
v 0.00923439 -0.00085412 0.00316053
v 0.00920135 -0.00117809 0.00296118
v 0.00917155 -0.00093159 0.00302977
v 0.00903453 -0.00091622 0.00281375
v 0.00903453 -0.00117552 -0.00265261
v 0.00991020 -0.00144059 -0.00296349
v 0.00991020 -0.00159169 -0.00289555
v 0.00991020 -0.00172294 -0.00280709
v 0.00991020 -0.00190733 -0.00267569
v 0.00903453 -0.00092647 -0.00278337
v 0.00903453 -0.00088037 -0.00280389
v 0.00903453 -0.00065436 -0.00289683
v 0.00976368 -0.00085284 -0.00316092
v 0.00991020 -0.00102955 -0.00313976
v 0.00991020 -0.00117809 -0.00307695
v 0.01004517 -0.00157824 -0.00288786
v 0.01008350 -0.00168004 -0.00274171
v 0.01013759 -0.00168452 -0.00263595
v 0.01013759 -0.00186636 -0.00248275
v 0.01013759 0.00013059 0.00280799
v 0.00956533 -0.00065436 0.00318617
v 0.00938642 -0.00039250 0.00326373
v 0.00938642 -0.00065436 0.00322976
v 0.00939808 -0.00093159 0.00316822
v 0.00921161 -0.00065436 0.00318361
v 0.00907330 -0.00063323 0.00298490
v 0.00903453 -0.00063323 0.00292529
v 0.00903453 -0.00044756 -0.00295708
v 0.00903453 -0.00013064 -0.00302631
v 0.00991020 -0.00039250 -0.00325707
v 0.00991020 -0.00065436 -0.00322566
v 0.00991020 -0.00089894 -0.00317502
v 0.00903453 -0.00039250 -0.00297247
v 0.00903453 -0.00037265 -0.00297695
v 0.01007033 -0.00086949 -0.00316989
v 0.01007119 -0.00144059 -0.00291926
v 0.01013759 -0.00144059 -0.00280773
v 0.01013759 -0.00153086 -0.00274876
v 0.01013759 0.00039245 0.00281440
v 0.00957116 -0.00039250 0.00319835
v 0.00938642 -0.00013064 0.00328104
v 0.00917576 -0.00013064 0.00321950
v 0.00919034 -0.00039250 0.00320604
v 0.00905937 -0.00039250 0.00302720
v 0.00903453 -0.00044372 0.00297336
v 0.00903453 -0.00005189 -0.00303528
v 0.00991020 -0.00013064 -0.00326732
v 0.01013759 -0.00013640 -0.00322822
v 0.01012421 -0.00039250 -0.00321861
v 0.01010013 -0.00065436 -0.00319617
v 0.00903453 0.00013059 -0.00305579
v 0.01013759 -0.00065692 -0.00314425
v 0.01013759 -0.00093415 -0.00305131
v 0.01013759 -0.00099049 -0.00302759
v 0.01011362 -0.00117809 -0.00298016
v 0.01013759 -0.00118129 -0.00294106
v 0.01013759 0.00043086 0.00281247
v 0.00956112 0.00013059 0.00319450
v 0.00956933 -0.00013064 0.00320155
v 0.00938642 0.00013059 0.00327655
v 0.00916777 0.00013059 0.00322271
v 0.00903680 0.00013059 0.00306502
v 0.00904479 -0.00013064 0.00305092
v 0.00903453 -0.00017417 0.00302528
v 0.00903453 -0.00039250 0.00298426
v 0.00991020 0.00013059 -0.00325835
v 0.01013759 0.00013059 -0.00322950
v 0.00903453 0.00039245 -0.00306220
v 0.01013759 -0.00039250 -0.00320258
v 0.01013759 0.00065431 0.00279773
v 0.00954665 0.00039245 0.00317655
v 0.00938642 0.00039245 0.00325155
v 0.00918127 0.00065431 0.00319450
v 0.00916820 0.00039245 0.00321501
v 0.00903723 0.00039245 0.00306823
v 0.00903453 0.00038349 0.00306374
v 0.00903453 0.00013059 0.00306118
v 0.00903453 0.00012226 0.00306054
v 0.00903453 -0.00013064 0.00303297
v 0.00993417 0.00065431 -0.00319809
v 0.01012885 0.00065431 -0.00319809
v 0.01013759 0.00040013 -0.00321861
v 0.00903453 0.00065431 -0.00304298
v 0.01013759 0.00068184 0.00279388
v 0.00953121 0.00059989 0.00315668
v 0.00940953 0.00067416 0.00319386
v 0.00932196 0.00091617 0.00316245
v 0.00926203 0.00105255 0.00314194
v 0.00925167 0.00105255 0.00314194
v 0.00922079 0.00091617 0.00316245
v 0.00951221 0.00077468 0.00313617
v 0.00908982 0.00091617 0.00304195
v 0.00905030 0.00065431 0.00306118
v 0.00903453 0.00039245 0.00306374
v 0.00903453 0.00065431 0.00303746
v 0.00999809 0.00091617 -0.00316605
v 0.01013759 0.00049745 -0.00321027
v 0.01008058 0.00091617 -0.00316605
v 0.01013759 0.00091617 -0.00312759
v 0.01013759 0.00065431 -0.00319104
v 0.00903453 0.00091617 -0.00299618
v 0.01013759 0.00091809 0.00275350
v 0.00928633 0.00159676 0.00289260
v 0.01013759 0.00143926 0.00258748
v 0.01013759 0.00149560 0.00256313
v 0.00922122 0.00159676 0.00289260
v 0.00917026 0.00144054 0.00293170
v 0.00903928 0.00144054 0.00283683
v 0.00903453 0.00141941 0.00284068
v 0.00903453 0.00124206 0.00290285
v 0.01013759 0.00094435 0.00274773
v 0.01013759 0.00111977 0.00269902
v 0.01013759 0.00127599 0.00264902
v 0.00903453 0.00091617 0.00297913
v 0.01003988 0.00104871 -0.00314617
v 0.00903453 0.00115563 -0.00294811
v 0.01004269 0.00104871 -0.00314617
v 0.01013759 0.00114346 -0.00305579
v 0.01013759 0.00168768 0.00247211
v 0.01013759 0.00169088 0.00247018
v 0.01013759 0.00183878 0.00237852
v 0.00931796 0.00190152 0.00266569
v 0.00912448 0.00201612 0.00256120
v 0.00912448 0.00188551 0.00265415
v 0.00903453 0.00185094 0.00262851
v 0.00903453 0.00144054 0.00283042
v 0.00903453 0.00117804 -0.00294234
v 0.00903453 0.00136115 -0.00288593
v 0.00903453 0.00141557 -0.00286478
v 0.00903453 0.00150969 -0.00282504
v 0.01002023 0.00159356 -0.00289683
v 0.01008674 0.00159356 -0.00289683
v 0.01013759 0.00157051 -0.00288657
v 0.01013759 0.00149880 -0.00291606
v 0.01013759 0.00196811 0.00228750
v 0.01013759 0.00200844 0.00225866
v 0.01013759 0.00214866 0.00214777
v 0.00932336 0.00217491 0.00242660
v 0.00912448 0.00231512 0.00231827
v 0.00912448 0.00218387 0.00243044
v 0.00903453 0.00189192 0.00259902
v 0.00903453 0.00215314 0.00240160
v 0.00903453 0.00179076 -0.00268274
v 0.00903453 0.00186759 -0.00263851
v 0.00903453 0.00190600 -0.00261351
v 0.00903453 0.00216786 -0.00242057
v 0.00999053 0.00189960 -0.00266928
v 0.01013759 0.00190344 -0.00267056
v 0.01013759 0.00164990 -0.00284235
v 0.01013759 0.00223701 0.00206892
v 0.01013759 0.00228759 0.00202149
v 0.01013759 0.00234009 0.00197021
v 0.01013759 0.00241948 0.00189009
v 0.00931678 0.00242909 0.00217148
v 0.00912448 0.00244445 0.00218687
v 0.00903453 0.00242012 0.00215930
v 0.00903453 0.00220436 0.00235801
v 0.00903453 0.00242524 -0.00217443
v 0.01013759 0.00234649 -0.00230199
v 0.01013759 0.00219283 -0.00244365
v 0.01013759 0.00206094 -0.00255005
v 0.01013759 0.00249311 0.00180804
v 0.00930036 0.00266662 0.00189778
v 0.00912448 0.00257570 0.00204521
v 0.00903453 0.00247454 0.00209969
v 0.01013759 0.00244381 -0.00219687
v 0.00903453 0.00266726 -0.00190265
v 0.01013759 0.00253601 0.00175612
v 0.01013759 0.00257762 0.00170035
v 0.01013759 0.00273961 0.00147985
v 0.00926873 0.00289263 0.00158946
v 0.00912448 0.00267814 0.00191380
v 0.00903453 0.00266214 0.00189073
v 0.01013759 0.00259619 -0.00201867
v 0.00903453 0.00285037 -0.00162639
v 0.01013759 0.00282796 -0.00168792
v 0.01013759 0.00267302 -0.00191611
v 0.01013759 0.00275753 0.00145101
v 0.00912448 0.00289583 0.00159459
v 0.00912448 0.00280875 0.00172535
v 0.01013759 0.00286190 0.00127281
v 0.01013759 0.00294513 0.00108564
v 0.01013759 0.00300275 0.00095488
v 0.01013759 0.00301235 0.00093117
v 0.00918624 0.00313464 0.00101642
v 0.00903453 0.00313144 0.00107218
v 0.00903453 0.00289135 0.00158690
v 0.00903453 0.00287790 -0.00158088
v 0.01013759 0.00289071 -0.00159113
v 0.01013759 0.00309495 0.00071836
v 0.01013759 0.00311415 0.00065169
v 0.00910914 0.00316730 0.00092283
v 0.00903453 0.00314937 0.00101834
v 0.00903453 0.00291248 -0.00152255
v 0.00903453 0.00309943 -0.00108475
v 0.00903453 0.00312504 -0.00102450
v 0.01013759 0.00294641 -0.00144306
v 0.01013759 0.00314937 0.00050939
v 0.00903453 0.00315257 0.00100232
v 0.00912448 0.00321980 0.00065169
v 0.00903453 0.00316409 -0.00092066
v 0.01013759 0.00310455 -0.00101104
v 0.01013759 0.00316986 0.00038953
v 0.00903453 0.00318842 0.00080040
v 0.00912448 0.00324861 0.00038953
v 0.00903453 0.00322492 0.00050939
v 0.00903453 0.00320891 0.00065169
v 0.01013759 0.00318330 0.00030556
v 0.01013759 0.00318202 -0.00067259
v 0.01013759 0.00313336 -0.00091937
v 0.00903453 0.00319611 -0.00065721
v 0.00909133 0.00319611 -0.00065721
v 0.01013759 0.00320315 0.00009275
v 0.00912448 0.00325949 0.00012800
v 0.00903453 0.00324733 0.00012800
v 0.00903453 0.00323580 0.00038953
v 0.00912448 0.00324925 -0.00013352
v 0.01013759 0.00320507 -0.00039568
v 0.00903453 0.00324156 -0.00013352
v 0.01013759 0.00321019 -0.00013352
f 1 2 3
f 1 3 4
f 1 4 5
f 1 5 6
f 1 6 7
f 1 7 8
f 1 8 2
f 2 9 10
f 2 10 3
f 2 8 11
f 2 11 9
f 3 10 12
f 3 12 13
f 3 13 14
f 3 14 4
f 4 14 15
f 4 15 16
f 4 16 17
f 4 17 5
f 5 17 18
f 5 18 6
f 6 18 19
f 6 19 7
f 7 19 20
f 7 20 21
f 7 21 22
f 7 22 23
f 7 23 8
f 8 23 24
f 8 24 11
f 9 25 26
f 9 26 27
f 9 27 10
f 9 11 25
f 10 27 12
f 11 24 28
f 11 28 29
f 11 29 30
f 11 30 25
f 12 31 32
f 12 32 13
f 12 27 31
f 13 32 33
f 13 33 34
f 13 34 35
f 13 35 14
f 14 35 36
f 14 36 37
f 14 37 15
f 15 37 16
f 16 37 38
f 16 38 60
f 16 60 86
f 16 86 103
f 16 103 117
f 16 117 131
f 16 131 150
f 16 150 173
f 16 173 191
f 16 191 211
f 16 211 210
f 16 210 225
f 16 225 224
f 16 224 223
f 16 223 222
f 16 222 240
f 16 240 241
f 16 241 260
f 16 260 256
f 16 256 255
f 16 255 272
f 16 272 271
f 16 271 287
f 16 287 288
f 16 288 303
f 16 303 302
f 16 302 311
f 16 311 319
f 16 319 333
f 16 333 332
f 16 332 339
f 16 339 345
f 16 345 350
f 16 350 353
f 16 353 352
f 16 352 362
f 16 362 361
f 16 361 365
f 16 365 357
f 16 357 347
f 16 347 342
f 16 342 341
f 16 341 340
f 16 340 334
f 16 334 321
f 16 321 313
f 16 313 304
f 16 304 292
f 16 292 291
f 16 291 290
f 16 290 289
f 16 289 276
f 16 276 275
f 16 275 274
f 16 274 273
f 16 273 262
f 16 262 247
f 16 247 229
f 16 229 214
f 16 214 197
f 16 197 192
f 16 192 175
f 16 175 180
f 16 180 179
f 16 179 174
f 16 174 158
f 16 158 157
f 16 157 156
f 16 156 151
f 16 151 132
f 16 132 118
f 16 118 104
f 16 104 89
f 16 89 66
f 16 66 65
f 16 65 61
f 16 61 39
f 16 39 18
f 16 18 17
f 18 39 20
f 18 20 19
f 20 39 40
f 20 40 21
f 21 40 41
f 21 41 42
f 21 42 43
f 21 43 44
f 21 44 22
f 22 45 46
f 22 46 23
f 22 44 47
f 22 47 45
f 23 46 24
f 24 46 48
f 24 48 28
f 25 30 29
f 25 29 28
f 25 28 49
f 25 49 72
f 25 72 74
f 25 74 77
f 25 77 93
f 25 93 94
f 25 94 109
f 25 109 122
f 25 122 123
f 25 123 137
f 25 137 165
f 25 165 164
f 25 164 184
f 25 184 183
f 25 183 202
f 25 202 200
f 25 200 199
f 25 199 198
f 25 198 215
f 25 215 194
f 25 194 213
f 25 213 228
f 25 228 243
f 25 243 246
f 25 246 245
f 25 245 264
f 25 264 280
f 25 280 279
f 25 279 295
f 25 295 294
f 25 294 307
f 25 307 306
f 25 306 305
f 25 305 312
f 25 312 320
f 25 320 323
f 25 323 322
f 25 322 335
f 25 335 343
f 25 343 348
f 25 348 356
f 25 356 355
f 25 355 364
f 25 364 366
f 25 366 359
f 25 359 354
f 25 354 349
f 25 349 344
f 25 344 337
f 25 337 336
f 25 336 330
f 25 330 329
f 25 329 328
f 25 328 327
f 25 327 324
f 25 324 316
f 25 316 315
f 25 315 314
f 25 314 308
f 25 308 299
f 25 299 298
f 25 298 297
f 25 297 296
f 25 296 283
f 25 283 282
f 25 282 281
f 25 281 267
f 25 267 266
f 25 266 265
f 25 265 251
f 25 251 250
f 25 250 259
f 25 259 258
f 25 258 257
f 25 257 248
f 25 248 230
f 25 230 216
f 25 216 203
f 25 203 185
f 25 185 166
f 25 166 139
f 25 139 124
f 25 124 111
f 25 111 96
f 25 96 95
f 25 95 80
f 25 80 79
f 25 79 52
f 25 52 50
f 25 50 31
f 25 31 26
f 26 31 27
f 28 48 49
f 31 50 32
f 32 51 33
f 32 50 52
f 32 52 53
f 32 53 54
f 32 54 51
f 33 51 34
f 34 51 55
f 34 55 56
f 34 56 35
f 35 56 57
f 35 57 36
f 36 57 58
f 36 58 37
f 37 58 38
f 38 58 59
f 38 59 60
f 39 61 41
f 39 41 40
f 41 62 63
f 41 63 64
f 41 64 42
f 41 61 65
f 41 65 66
f 41 66 67
f 41 67 68
f 41 68 62
f 42 64 63
f 42 63 43
f 43 63 87
f 43 87 69
f 43 69 70
f 43 70 71
f 43 71 47
f 43 47 44
f 45 72 73
f 45 73 46
f 45 47 74
f 45 74 72
f 46 73 48
f 47 71 75
f 47 75 76
f 47 76 77
f 47 77 74
f 48 73 49
f 49 73 72
f 51 54 78
f 51 78 55
f 52 79 53
f 53 79 80
f 53 80 81
f 53 81 54
f 54 55 78
f 54 81 82
f 54 82 55
f 55 82 83
f 55 83 56
f 56 83 84
f 56 84 57
f 57 84 58
f 58 84 59
f 59 84 60
f 60 84 85
f 60 85 86
f 62 68 87
f 62 87 63
f 66 88 67
f 66 89 90
f 66 90 88
f 67 88 87
f 67 87 68
f 69 87 90
f 69 90 91
f 69 91 92
f 69 92 70
f 70 92 71
f 71 92 75
f 75 93 77
f 75 77 76
f 75 92 94
f 75 94 93
f 80 95 81
f 81 95 96
f 81 96 97
f 81 97 98
f 81 98 99
f 81 99 82
f 82 99 98
f 82 98 100
f 82 100 101
f 82 101 83
f 83 85 84
f 83 101 85
f 85 101 102
f 85 102 86
f 86 102 103
f 87 88 90
f 89 104 90
f 90 104 105
f 90 105 91
f 91 105 106
f 91 106 107
f 91 107 108
f 91 108 92
f 92 109 94
f 92 108 110
f 92 110 109
f 96 111 97
f 97 111 112
f 97 112 100
f 97 100 98
f 100 112 113
f 100 113 114
f 100 114 115
f 100 115 101
f 101 115 102
f 102 115 116
f 102 116 103
f 103 116 117
f 104 118 119
f 104 119 105
f 105 119 120
f 105 120 106
f 106 120 121
f 106 121 110
f 106 110 107
f 107 110 108
f 109 110 122
f 110 121 123
f 110 123 122
f 111 124 125
f 111 125 113
f 111 113 112
f 113 126 114
f 113 125 127
f 113 127 126
f 114 126 116
f 114 116 115
f 116 126 128
f 116 128 129
f 116 129 117
f 117 129 128
f 117 128 130
f 117 130 131
f 118 132 133
f 118 133 134
f 118 134 119
f 119 134 135
f 119 135 120
f 120 135 136
f 120 136 121
f 121 137 123
f 121 136 138
f 121 138 137
f 124 139 140
f 124 140 141
f 124 141 142
f 124 142 125
f 125 142 141
f 125 141 144
f 125 144 127
f 126 127 143
f 126 143 128
f 127 128 143
f 127 144 145
f 127 145 146
f 127 146 128
f 128 146 145
f 128 145 147
f 128 147 130
f 130 147 148
f 130 148 131
f 131 148 149
f 131 149 150
f 132 151 133
f 133 152 153
f 133 153 154
f 133 154 155
f 133 155 134
f 133 151 156
f 133 156 157
f 133 157 158
f 133 158 159
f 133 159 160
f 133 160 161
f 133 161 152
f 134 155 135
f 135 155 136
f 136 155 162
f 136 162 163
f 136 163 164
f 136 164 165
f 136 165 138
f 137 138 165
f 139 166 167
f 139 167 140
f 140 167 168
f 140 168 169
f 140 169 141
f 141 169 144
f 144 169 170
f 144 170 145
f 145 170 147
f 147 170 169
f 147 169 171
f 147 171 172
f 147 172 173
f 147 173 149
f 147 149 148
f 149 173 150
f 152 162 153
f 152 161 162
f 153 162 154
f 154 162 155
f 158 174 159
f 159 175 176
f 159 176 177
f 159 177 178
f 159 178 160
f 159 174 179
f 159 179 180
f 159 180 175
f 160 178 181
f 160 181 162
f 160 162 161
f 162 181 182
f 162 182 183
f 162 183 184
f 162 184 163
f 163 184 164
f 166 185 186
f 166 186 167
f 167 186 187
f 167 187 168
f 168 187 188
f 168 188 189
f 168 189 171
f 168 171 169
f 171 189 190
f 171 190 172
f 172 190 173
f 173 190 191
f 175 192 176
f 176 193 194
f 176 194 195
f 176 195 196
f 176 196 177
f 176 192 197
f 176 197 193
f 177 196 181
f 177 181 178
f 181 196 198
f 181 198 199
f 181 199 200
f 181 200 201
f 181 201 182
f 182 201 202
f 182 202 183
f 185 203 204
f 185 204 205
f 185 205 186
f 186 205 187
f 187 206 207
f 187 207 188
f 187 205 206
f 188 207 208
f 188 208 209
f 188 209 189
f 189 209 190
f 190 209 210
f 190 210 211
f 190 211 191
f 193 212 213
f 193 213 194
f 193 197 214
f 193 214 212
f 194 215 195
f 195 215 196
f 196 215 198
f 200 202 201
f 203 216 204
f 204 217 206
f 204 206 205
f 204 216 217
f 206 218 219
f 206 219 220
f 206 220 207
f 206 217 218
f 207 220 221
f 207 221 208
f 208 221 222
f 208 222 223
f 208 223 224
f 208 224 209
f 209 224 225
f 209 225 210
f 212 226 227
f 212 227 228
f 212 228 213
f 212 214 229
f 212 229 226
f 216 230 231
f 216 231 217
f 217 231 218
f 218 232 233
f 218 233 234
f 218 234 235
f 218 235 236
f 218 236 219
f 218 231 237
f 218 237 232
f 219 236 238
f 219 238 239
f 219 239 220
f 220 239 221
f 221 240 222
f 221 239 241
f 221 241 240
f 226 242 244
f 226 244 227
f 226 229 242
f 227 243 228
f 227 244 245
f 227 245 246
f 227 246 243
f 229 247 242
f 230 248 231
f 231 248 237
f 232 237 233
f 233 237 234
f 234 249 252
f 234 252 235
f 234 237 250
f 234 250 251
f 234 251 249
f 235 252 253
f 235 253 254
f 235 254 255
f 235 255 256
f 235 256 236
f 236 256 238
f 237 248 257
f 237 257 258
f 237 258 259
f 237 259 250
f 238 256 239
f 239 256 260
f 239 260 241
f 242 261 263
f 242 263 244
f 242 247 262
f 242 262 261
f 244 263 264
f 244 264 245
f 249 251 265
f 249 265 266
f 249 266 267
f 249 267 268
f 249 268 252
f 252 268 269
f 252 269 270
f 252 270 271
f 252 271 254
f 252 254 253
f 254 272 255
f 254 271 272
f 261 262 273
f 261 273 274
f 261 274 275
f 261 275 276
f 261 276 277
f 261 277 278
f 261 278 263
f 263 278 279
f 263 279 280
f 263 280 264
f 267 281 268
f 268 281 282
f 268 282 283
f 268 283 284
f 268 284 285
f 268 285 286
f 268 286 269
f 269 287 271
f 269 271 270
f 269 286 288
f 269 288 287
f 276 289 277
f 277 289 290
f 277 290 291
f 277 291 292
f 277 292 293
f 277 293 294
f 277 294 278
f 278 295 279
f 278 294 295
f 283 296 284
f 284 296 297
f 284 297 298
f 284 298 299
f 284 299 300
f 284 300 285
f 285 301 302
f 285 302 303
f 285 303 286
f 285 300 301
f 286 303 288
f 292 304 305
f 292 305 306
f 292 306 307
f 292 307 293
f 293 307 294
f 299 308 300
f 300 308 309
f 300 309 310
f 300 310 301
f 301 310 302
f 302 310 311
f 304 312 305
f 304 313 312
f 308 314 309
f 309 314 315
f 309 315 316
f 309 316 317
f 309 317 318
f 309 318 310
f 310 318 319
f 310 319 311
f 312 313 320
f 313 321 322
f 313 322 323
f 313 323 320
f 316 324 317
f 317 325 326
f 317 326 318
f 317 324 327
f 317 327 328
f 317 328 329
f 317 329 330
f 317 330 331
f 317 331 332
f 317 332 325
f 318 326 333
f 318 333 319
f 321 334 335
f 321 335 322
f 325 332 333
f 325 333 326
f 330 336 331
f 331 336 337
f 331 337 338
f 331 338 339
f 331 339 332
f 334 340 335
f 335 340 341
f 335 341 342
f 335 342 343
f 337 344 338
f 338 345 339
f 338 344 346
f 338 346 345
f 342 347 343
f 343 347 348
f 344 349 346
f 345 346 350
f 346 351 352
f 346 352 353
f 346 353 350
f 346 349 354
f 346 354 351
f 347 355 356
f 347 356 348
f 347 357 358
f 347 358 355
f 351 354 359
f 351 359 360
f 351 360 361
f 351 361 362
f 351 362 352
f 355 358 363
f 355 363 364
f 357 365 363
f 357 363 358
f 359 366 360
f 360 363 365
f 360 365 361
f 360 366 364
f 360 364 363

