# https://github.com/mikedh/trimesh
v 0.00205210 -0.00328213 -0.00013344
v 0.00113192 -0.00300041 -0.00039574
v 0.00205210 -0.00326296 -0.00039574
v 0.00224200 -0.00319333 -0.00065740
v 0.00225179 -0.00320930 -0.00039574
v 0.00224988 -0.00321377 -0.00013344
v 0.00205210 -0.00328149 0.00012757
v 0.00113192 -0.00297869 -0.00065740
v 0.00113192 -0.00299593 -0.00013344
v 0.00205210 -0.00322336 -0.00065740
v 0.00220990 -0.00316331 -0.00091905
v 0.00235122 -0.00300104 -0.00089596
v 0.00235122 -0.00305534 -0.00065740
v 0.00235122 -0.00306046 -0.00061058
v 0.00235122 -0.00307898 -0.00039574
v 0.00235122 -0.00307770 -0.00013344
v 0.00224188 -0.00320866 0.00012757
v 0.00235122 -0.00307898 -0.00033353
v 0.00205210 -0.00326232 0.00038987
v 0.00185801 -0.00319525 0.00065152
v 0.00184846 -0.00321186 0.00038987
v 0.00113192 -0.00293525 -0.00091905
v 0.00113192 -0.00296719 0.00012757
v 0.00113192 -0.00290139 -0.00109926
v 0.00191053 -0.00315372 -0.00082670
v 0.00207227 -0.00316586 -0.00091649
v 0.00217313 -0.00314478 -0.00105437
v 0.00218566 -0.00314478 -0.00105437
v 0.00227244 -0.00301893 -0.00115762
v 0.00235122 -0.00292886 -0.00116980
v 0.00235122 -0.00307387 -0.00007765
v 0.00235122 -0.00305854 0.00012757
v 0.00235122 -0.00305343 0.00016669
v 0.00222756 -0.00319333 0.00038987
v 0.00220715 -0.00316969 0.00065152
v 0.00219139 -0.00315181 0.00081249
v 0.00205210 -0.00322208 0.00065152
v 0.00189119 -0.00316522 0.00091382
v 0.00113192 -0.00293077 0.00033343
v 0.00113192 -0.00287711 -0.00120572
v 0.00113192 -0.00286050 -0.00126151
v 0.00113192 -0.00262094 -0.00183164
v 0.00214329 -0.00289372 -0.00159692
v 0.00220596 -0.00289372 -0.00159692
v 0.00224905 -0.00293205 -0.00144300
v 0.00235122 -0.00282984 -0.00144300
v 0.00235122 -0.00285923 -0.00136669
v 0.00235122 -0.00301574 0.00038025
v 0.00235122 -0.00300999 0.00040911
v 0.00210736 -0.00311539 0.00098757
v 0.00193273 -0.00314542 0.00105042
v 0.00203288 -0.00316586 0.00090548
v 0.00235122 -0.00296080 0.00058418
v 0.00235122 -0.00293972 0.00065152
v 0.00235122 -0.00290586 0.00074387
v 0.00235122 -0.00284198 0.00091189
v 0.00235122 -0.00281898 0.00096192
v 0.00221658 -0.00293716 0.00117547
v 0.00219318 -0.00289628 0.00133837
v 0.00191721 -0.00314542 0.00105042
v 0.00113192 -0.00286817 0.00062908
v 0.00113192 -0.00289372 0.00051685
v 0.00113192 -0.00292055 0.00038987
v 0.00113192 -0.00261711 -0.00183805
v 0.00210676 -0.00266694 -0.00190282
v 0.00235122 -0.00269121 -0.00172133
v 0.00225060 -0.00266694 -0.00190282
v 0.00204935 -0.00293205 0.00143072
v 0.00196007 -0.00289500 0.00159233
v 0.00235122 -0.00272507 0.00115688
v 0.00235122 -0.00263628 0.00129989
v 0.00220667 -0.00266949 0.00163273
v 0.00216979 -0.00259922 0.00180717
v 0.00213470 -0.00284389 0.00151280
v 0.00113192 -0.00276532 0.00091382
v 0.00189585 -0.00289500 0.00159233
v 0.00113192 -0.00266375 0.00117483
v 0.00113192 -0.00239097 -0.00214011
v 0.00210330 -0.00242802 -0.00217730
v 0.00235122 -0.00255515 -0.00193425
v 0.00231398 -0.00230089 -0.00229274
v 0.00231398 -0.00241397 -0.00216191
v 0.00235122 -0.00239927 -0.00214588
v 0.00232842 -0.00254365 -0.00198106
v 0.00199516 -0.00266758 0.00189887
v 0.00235122 -0.00251107 0.00146663
v 0.00235122 -0.00239991 0.00160772
v 0.00221192 -0.00242483 0.00189823
v 0.00217313 -0.00233539 0.00207267
v 0.00199850 -0.00242930 0.00217335
v 0.00184941 -0.00266758 0.00189887
v 0.00113192 -0.00235264 0.00167377
v 0.00113192 -0.00237627 -0.00215678
v 0.00113192 -0.00214566 -0.00240882
v 0.00211142 -0.00217441 -0.00243062
v 0.00231398 -0.00216993 -0.00242806
v 0.00235122 -0.00215588 -0.00241523
v 0.00235122 -0.00231814 -0.00224015
v 0.00235122 -0.00226767 0.00174047
v 0.00235122 -0.00213416 0.00187194
v 0.00220810 -0.00216099 0.00214578
v 0.00216573 -0.00204664 0.00232022
v 0.00199110 -0.00217632 0.00242667
v 0.00179021 -0.00217696 0.00242924
v 0.00179021 -0.00230792 0.00229456
v 0.00179021 -0.00241908 0.00216373
v 0.00113192 -0.00215844 0.00189374
v 0.00164602 -0.00212266 0.00238178
v 0.00113192 -0.00188183 -0.00265636
v 0.00213076 -0.00189907 -0.00266919
v 0.00231398 -0.00202748 -0.00255889
v 0.00235122 -0.00205111 -0.00251207
v 0.00235122 -0.00199490 0.00198673
v 0.00235122 -0.00183647 0.00211243
v 0.00219569 -0.00187224 0.00237922
v 0.00215057 -0.00170232 0.00255750
v 0.00201115 -0.00169146 0.00275054
v 0.00197367 -0.00190163 0.00266588
v 0.00179021 -0.00203514 0.00256007
v 0.00164661 -0.00185947 0.00263510
v 0.00113192 -0.00209328 0.00195723
v 0.00113192 -0.00158286 -0.00289044
v 0.00231398 -0.00189652 -0.00266727
v 0.00216597 -0.00159372 -0.00289686
v 0.00225382 -0.00159372 -0.00289686
v 0.00235122 -0.00188438 -0.00265893
v 0.00235122 -0.00168954 0.00220670
v 0.00235122 -0.00149406 0.00230675
v 0.00217444 -0.00153175 0.00259983
v 0.00211417 -0.00144295 0.00273258
v 0.00197248 -0.00144040 0.00292818
v 0.00193989 -0.00159691 0.00289291
v 0.00179021 -0.00190418 0.00266716
v 0.00165795 -0.00157391 0.00287944
v 0.00113192 -0.00170998 0.00221953
v 0.00113192 -0.00104816 -0.00314569
v 0.00113585 -0.00104816 -0.00314633
v 0.00233033 -0.00168954 -0.00281156
v 0.00235122 -0.00166207 -0.00282631
v 0.00233033 -0.00146148 -0.00294431
v 0.00235122 -0.00148320 -0.00293020
v 0.00231398 -0.00103283 -0.00313927
v 0.00235122 -0.00144104 0.00233112
v 0.00235122 -0.00128516 0.00239846
v 0.00235122 -0.00098555 0.00251774
v 0.00219354 -0.00135735 0.00263510
v 0.00213696 -0.00117848 0.00279543
v 0.00200602 -0.00117848 0.00298269
v 0.00194312 -0.00087121 0.00316097
v 0.00179021 -0.00104305 0.00313789
v 0.00179021 -0.00144040 0.00295896
v 0.00179021 -0.00159244 0.00289034
v 0.00179021 -0.00172340 0.00279863
v 0.00163229 -0.00086801 0.00316418
v 0.00113192 -0.00119381 0.00248118
v 0.00113192 -0.00104369 -0.00314697
v 0.00113192 -0.00086929 -0.00317519
v 0.00231398 -0.00065464 -0.00322906
v 0.00231398 -0.00090123 -0.00317711
v 0.00235122 -0.00122767 -0.00303795
v 0.00235122 -0.00106094 -0.00310592
v 0.00235122 -0.00089101 -0.00317454
v 0.00235122 -0.00073386 0.00261009
v 0.00235122 -0.00039145 0.00272681
v 0.00195816 -0.00065464 0.00317829
v 0.00179021 -0.00039273 0.00326038
v 0.00179021 -0.00065464 0.00322831
v 0.00179021 -0.00091209 0.00317380
v 0.00235122 -0.00013081 0.00278068
v 0.00160496 -0.00065464 0.00318983
v 0.00113192 -0.00012250 0.00272552
v 0.00113192 -0.00065464 -0.00320469
v 0.00235122 -0.00065464 -0.00322136
v 0.00235122 -0.00070319 -0.00321431
v 0.00231398 -0.00039273 -0.00326240
v 0.00196281 -0.00039273 0.00318855
v 0.00179021 -0.00013081 0.00327385
v 0.00235122 -0.00008098 0.00278452
v 0.00156795 -0.00013081 0.00322382
v 0.00158252 -0.00039273 0.00321164
v 0.00113192 0.00000846 0.00274669
v 0.00113192 -0.00056393 -0.00321495
v 0.00235122 -0.00044703 -0.00324765
v 0.00231398 -0.00013081 -0.00327651
v 0.00235122 -0.00013081 -0.00326818
v 0.00235122 -0.00039273 -0.00325343
v 0.00113192 -0.00039273 -0.00323098
v 0.00196114 -0.00013081 0.00319048
v 0.00235122 0.00013047 0.00278837
v 0.00235122 0.00018030 0.00278901
v 0.00179021 0.00013047 0.00326807
v 0.00156031 0.00013047 0.00322575
v 0.00142937 0.00013047 0.00308594
v 0.00113192 0.00013047 0.00276593
v 0.00231398 0.00013047 -0.00327074
v 0.00235122 0.00013047 -0.00326369
v 0.00113192 -0.00013081 -0.00324252
v 0.00113192 0.00013047 -0.00323868
v 0.00195314 0.00013047 0.00318214
v 0.00235122 0.00044158 0.00277106
v 0.00179021 0.00039239 0.00323921
v 0.00157595 0.00065431 0.00319496
v 0.00156187 0.00039239 0.00321613
v 0.00193870 0.00039239 0.00316354
v 0.00143092 0.00039239 0.00308915
v 0.00113192 0.00038408 0.00277426
v 0.00113192 0.00053740 -0.00320725
v 0.00113192 0.00065431 -0.00319763
v 0.00231398 0.00039239 -0.00324317
v 0.00235122 0.00039239 -0.00323932
v 0.00235122 0.00070094 0.00272937
v 0.00180334 0.00064728 0.00318855
v 0.00171394 0.00091622 0.00316290
v 0.00161809 0.00091622 0.00316290
v 0.00192700 0.00055529 0.00314751
v 0.00148714 0.00091622 0.00306221
v 0.00144489 0.00065431 0.00308145
v 0.00113192 0.00057637 0.00274669
v 0.00113192 0.00084851 -0.00317390
v 0.00113192 0.00091622 -0.00316557
v 0.00113192 0.00104207 -0.00314761
v 0.00235122 0.00079804 -0.00317711
v 0.00235122 0.00093219 0.00265626
v 0.00189931 0.00072969 0.00312121
v 0.00166667 0.00105421 0.00314238
v 0.00165282 0.00105421 0.00314238
v 0.00139547 0.00131868 0.00288072
v 0.00138425 0.00117814 0.00290060
v 0.00113192 0.00134360 0.00252095
v 0.00113192 0.00105102 -0.00314376
v 0.00113394 0.00104910 -0.00314633
v 0.00113765 0.00104910 -0.00314633
v 0.00235122 0.00091622 -0.00314248
v 0.00173530 0.00144006 0.00293074
v 0.00184488 0.00091622 0.00308338
v 0.00235122 0.00145156 0.00241321
v 0.00168517 0.00159657 0.00289291
v 0.00161654 0.00159657 0.00289291
v 0.00144191 0.00149308 0.00284866
v 0.00138903 0.00185402 0.00262804
v 0.00113192 0.00155569 0.00242988
v 0.00113192 0.00159210 -0.00289557
v 0.00118921 0.00159210 -0.00289557
v 0.00235122 0.00135318 -0.00296099
v 0.00235122 0.00113598 -0.00305141
v 0.00235122 0.00155824 0.00233945
v 0.00171513 0.00190129 0.00266524
v 0.00152832 0.00203097 0.00256969
v 0.00152832 0.00190001 0.00266203
v 0.00137327 0.00214788 0.00239525
v 0.00113192 0.00184699 0.00221953
v 0.00113192 0.00190129 -0.00267111
v 0.00126644 0.00204183 -0.00258069
v 0.00126644 0.00191087 -0.00267560
v 0.00235122 0.00144006 -0.00292059
v 0.00235122 0.00178439 -0.00270639
v 0.00235122 0.00165087 -0.00279232
v 0.00235122 0.00172753 0.00221696
v 0.00172026 0.00217599 0.00242603
v 0.00152832 0.00232611 0.00232663
v 0.00152832 0.00219515 0.00243886
v 0.00136563 0.00241171 0.00215027
v 0.00113192 0.00214340 0.00196429
v 0.00113192 0.00217790 -0.00243255
v 0.00126644 0.00220026 -0.00244922
v 0.00235122 0.00192748 -0.00259801
v 0.00235122 0.00185849 0.00210153
v 0.00235122 0.00201181 0.00196108
v 0.00171262 0.00242577 0.00217207
v 0.00152832 0.00245004 0.00219580
v 0.00136623 0.00265830 0.00188476
v 0.00131777 0.00249476 0.00196813
v 0.00113192 0.00238935 0.00169494
v 0.00126644 0.00233122 -0.00233507
v 0.00113192 0.00239830 -0.00220745
v 0.00235122 0.00209677 -0.00245499
v 0.00235122 0.00234847 0.00156796
v 0.00152832 0.00258100 0.00204958
v 0.00169663 0.00266149 0.00189374
v 0.00138521 0.00289147 0.00158720
v 0.00133340 0.00274709 0.00168468
v 0.00121726 0.00273048 0.00142110
v 0.00115949 0.00257206 0.00149741
v 0.00113192 0.00257014 0.00142110
v 0.00235122 0.00219515 -0.00235623
v 0.00113192 0.00242449 -0.00217859
v 0.00126644 0.00244940 -0.00220424
v 0.00235122 0.00234272 -0.00220103
v 0.00235122 0.00246921 0.00141212
v 0.00152832 0.00268066 0.00191875
v 0.00235122 0.00257461 0.00127359
v 0.00166726 0.00288827 0.00158271
v 0.00135071 0.00292852 0.00143713
v 0.00152832 0.00281161 0.00172380
v 0.00152832 0.00289466 0.00159297
v 0.00139392 0.00314508 0.00105042
v 0.00117310 0.00280459 0.00117547
v 0.00113192 0.00263849 0.00131592
v 0.00113192 0.00263274 0.00132490
v 0.00126644 0.00258036 -0.00205161
v 0.00113192 0.00264169 -0.00191052
v 0.00235122 0.00248326 -0.00202788
v 0.00235122 0.00267299 0.00110493
v 0.00235122 0.00275859 0.00093755
v 0.00235122 0.00276434 0.00092600
v 0.00235122 0.00283781 0.00077337
v 0.00235122 0.00288125 0.00065345
v 0.00158825 0.00312592 0.00098051
v 0.00141362 0.00314508 0.00105042
v 0.00132075 0.00301732 0.00115303
v 0.00114851 0.00285569 0.00099013
v 0.00136599 0.00316488 0.00091382
v 0.00152832 0.00320641 0.00065152
v 0.00113192 0.00272282 0.00117547
v 0.00113192 0.00283333 0.00097089
v 0.00113192 0.00278287 0.00106453
v 0.00126644 0.00267682 -0.00192078
v 0.00235122 0.00253373 -0.00196311
v 0.00113192 0.00265510 -0.00189192
v 0.00235122 0.00290999 0.00056687
v 0.00166309 0.00314700 0.00080544
v 0.00151185 0.00316297 0.00090099
v 0.00122299 0.00299432 0.00090741
v 0.00113192 0.00290041 0.00082019
v 0.00132529 0.00319555 0.00065152
v 0.00119434 0.00305501 0.00065152
v 0.00152832 0.00323388 0.00038987
v 0.00235122 0.00300646 0.00012757
v 0.00114111 0.00287933 -0.00156998
v 0.00124352 0.00282120 -0.00169247
v 0.00131574 0.00289402 -0.00159692
v 0.00141469 0.00289402 -0.00159692
v 0.00235122 0.00269982 -0.00169376
v 0.00113192 0.00286847 -0.00155972
v 0.00235122 0.00296557 0.00037448
v 0.00235122 0.00297771 0.00030906
v 0.00113192 0.00290616 0.00080480
v 0.00129915 0.00321599 0.00038987
v 0.00116820 0.00309334 0.00038987
v 0.00113192 0.00295599 0.00065152
v 0.00235122 0.00303009 -0.00010010
v 0.00235122 0.00303329 -0.00013344
v 0.00152832 0.00324410 0.00012757
v 0.00128136 0.00322749 0.00012757
v 0.00113192 0.00288955 -0.00150778
v 0.00120986 0.00310995 -0.00091905
v 0.00139297 0.00314380 -0.00105309
v 0.00235122 0.00282056 -0.00144300
v 0.00235122 0.00275029 -0.00159499
v 0.00139917 0.00314380 -0.00105309
v 0.00115030 0.00312081 0.00012757
v 0.00113192 0.00303329 0.00038987
v 0.00113192 0.00298474 0.00055725
v 0.00113192 0.00307353 0.00020645
v 0.00235122 0.00303776 -0.00035085
v 0.00127050 0.00321727 -0.00039574
v 0.00127193 0.00322749 -0.00013344
v 0.00235122 0.00303840 -0.00039574
v 0.00235122 0.00302626 -0.00063303
v 0.00235122 0.00302498 -0.00065740
v 0.00151305 0.00321727 -0.00039574
v 0.00114099 0.00313550 -0.00013344
v 0.00113192 0.00310164 -0.00065740
v 0.00115066 0.00313103 -0.00065740
v 0.00128160 0.00319619 -0.00065740
v 0.00134080 0.00316361 -0.00091905
v 0.00235122 0.00287486 -0.00129165
v 0.00143212 0.00316361 -0.00091905
v 0.00235122 0.00298601 -0.00091520
v 0.00235122 0.00297068 -0.00097292
v 0.00235122 0.00291191 -0.00118648
v 0.00113192 0.00308950 0.00012757
v 0.00113192 0.00311633 -0.00009881
v 0.00113956 0.00313869 -0.00039574
v 0.00148249 0.00319619 -0.00065740
v 0.00113192 0.00312592 -0.00039574
v 0.00113192 0.00312017 -0.00013344
f 1 2 3
f 1 3 4
f 1 4 5
f 1 5 6
f 1 6 7
f 1 7 2
f 2 8 3
f 2 7 9
f 2 9 23
f 2 23 39
f 2 39 63
f 2 63 62
f 2 62 61
f 2 61 75
f 2 75 77
f 2 77 92
f 2 92 107
f 2 107 121
f 2 121 135
f 2 135 155
f 2 155 171
f 2 171 181
f 2 181 194
f 2 194 206
f 2 206 218
f 2 218 229
f 2 229 241
f 2 241 251
f 2 251 263
f 2 263 273
f 2 273 284
f 2 284 299
f 2 299 298
f 2 298 314
f 2 314 316
f 2 316 315
f 2 315 324
f 2 324 337
f 2 337 340
f 2 340 353
f 2 353 352
f 2 352 354
f 2 354 372
f 2 372 373
f 2 373 377
f 2 377 376
f 2 376 363
f 2 363 345
f 2 345 334
f 2 334 319
f 2 319 301
f 2 301 286
f 2 286 275
f 2 275 264
f 2 264 252
f 2 252 242
f 2 242 230
f 2 230 221
f 2 221 220
f 2 220 219
f 2 219 208
f 2 208 207
f 2 207 198
f 2 198 197
f 2 197 187
f 2 187 182
f 2 182 172
f 2 172 157
f 2 157 156
f 2 156 136
f 2 136 122
f 2 122 109
f 2 109 94
f 2 94 93
f 2 93 78
f 2 78 64
f 2 64 42
f 2 42 41
f 2 41 40
f 2 40 24
f 2 24 22
f 2 22 8
f 3 8 10
f 3 10 11
f 3 11 4
f 4 11 12
f 4 12 13
f 4 13 14
f 4 14 5
f 5 14 15
f 5 15 6
f 6 16 17
f 6 17 7
f 6 15 18
f 6 18 16
f 7 17 19
f 7 19 20
f 7 20 21
f 7 21 9
f 8 22 10
f 9 21 20
f 9 20 23
f 10 22 24
f 10 24 25
f 10 25 26
f 10 26 27
f 10 27 28
f 10 28 11
f 11 28 29
f 11 29 30
f 11 30 12
f 12 30 47
f 12 47 46
f 12 46 66
f 12 66 80
f 12 80 83
f 12 83 98
f 12 98 97
f 12 97 112
f 12 112 126
f 12 126 139
f 12 139 141
f 12 141 160
f 12 160 161
f 12 161 162
f 12 162 174
f 12 174 173
f 12 173 183
f 12 183 186
f 12 186 185
f 12 185 196
f 12 196 210
f 12 210 222
f 12 222 233
f 12 233 245
f 12 245 244
f 12 244 255
f 12 255 257
f 12 257 256
f 12 256 266
f 12 266 276
f 12 276 285
f 12 285 288
f 12 288 302
f 12 302 318
f 12 318 333
f 12 333 349
f 12 349 348
f 12 348 367
f 12 367 371
f 12 371 370
f 12 370 369
f 12 369 360
f 12 360 359
f 12 359 358
f 12 358 355
f 12 355 342
f 12 342 341
f 12 341 328
f 12 328 336
f 12 336 335
f 12 335 320
f 12 320 307
f 12 307 306
f 12 306 305
f 12 305 304
f 12 304 303
f 12 303 291
f 12 291 289
f 12 289 277
f 12 277 268
f 12 268 267
f 12 267 258
f 12 258 246
f 12 246 236
f 12 236 223
f 12 223 211
f 12 211 200
f 12 200 190
f 12 190 189
f 12 189 178
f 12 178 169
f 12 169 164
f 12 164 163
f 12 163 145
f 12 145 144
f 12 144 143
f 12 143 128
f 12 128 127
f 12 127 114
f 12 114 113
f 12 113 100
f 12 100 99
f 12 99 87
f 12 87 86
f 12 86 71
f 12 71 70
f 12 70 57
f 12 57 56
f 12 56 55
f 12 55 54
f 12 54 53
f 12 53 49
f 12 49 48
f 12 48 33
f 12 33 32
f 12 32 31
f 12 31 16
f 12 16 18
f 12 18 15
f 12 15 14
f 12 14 13
f 16 31 17
f 17 32 33
f 17 33 34
f 17 34 19
f 17 31 32
f 19 34 35
f 19 35 36
f 19 36 37
f 19 37 38
f 19 38 20
f 20 38 23
f 23 38 39
f 24 40 25
f 25 40 26
f 26 40 41
f 26 41 27
f 27 41 42
f 27 42 43
f 27 43 44
f 27 44 28
f 28 44 45
f 28 45 29
f 29 45 46
f 29 46 47
f 29 47 30
f 33 48 34
f 34 48 49
f 34 49 35
f 35 49 36
f 36 50 51
f 36 51 52
f 36 52 37
f 36 49 53
f 36 53 54
f 36 54 55
f 36 55 56
f 36 56 57
f 36 57 58
f 36 58 59
f 36 59 50
f 37 52 51
f 37 51 60
f 37 60 38
f 38 60 61
f 38 61 62
f 38 62 63
f 38 63 39
f 42 64 43
f 43 64 65
f 43 65 67
f 43 67 44
f 44 66 45
f 44 67 66
f 45 66 46
f 50 59 68
f 50 68 69
f 50 69 51
f 51 69 76
f 51 76 60
f 57 70 58
f 58 70 59
f 59 70 71
f 59 71 72
f 59 72 73
f 59 73 74
f 59 74 68
f 60 75 61
f 60 76 77
f 60 77 75
f 64 78 65
f 65 78 79
f 65 79 67
f 66 67 80
f 67 79 81
f 67 81 82
f 67 82 83
f 67 83 84
f 67 84 80
f 68 74 69
f 69 74 85
f 69 85 91
f 69 91 76
f 71 86 72
f 72 86 87
f 72 87 73
f 73 85 74
f 73 87 88
f 73 88 89
f 73 89 90
f 73 90 85
f 76 91 92
f 76 92 77
f 78 93 79
f 79 93 94
f 79 94 95
f 79 95 96
f 79 96 81
f 80 84 83
f 81 96 97
f 81 97 98
f 81 98 82
f 82 98 83
f 85 90 91
f 87 99 88
f 88 99 100
f 88 100 89
f 89 101 102
f 89 102 103
f 89 103 90
f 89 100 101
f 90 103 104
f 90 104 105
f 90 105 91
f 91 105 106
f 91 106 92
f 92 106 105
f 92 105 108
f 92 108 107
f 94 109 95
f 95 109 110
f 95 110 111
f 95 111 96
f 96 111 112
f 96 112 97
f 100 113 101
f 101 113 114
f 101 114 102
f 102 114 115
f 102 115 116
f 102 116 117
f 102 117 118
f 102 118 103
f 103 119 104
f 103 118 119
f 104 119 120
f 104 120 108
f 104 108 105
f 107 108 121
f 108 120 121
f 109 122 110
f 110 123 111
f 110 122 124
f 110 124 125
f 110 125 123
f 111 123 126
f 111 126 112
f 114 127 115
f 115 127 116
f 116 127 128
f 116 128 129
f 116 129 130
f 116 130 131
f 116 131 117
f 117 131 132
f 117 132 118
f 118 132 133
f 118 133 119
f 119 133 134
f 119 134 120
f 120 134 121
f 121 134 135
f 122 136 137
f 122 137 124
f 123 125 138
f 123 138 139
f 123 139 126
f 124 137 125
f 125 140 141
f 125 141 139
f 125 139 138
f 125 137 142
f 125 142 140
f 128 143 129
f 129 143 144
f 129 144 145
f 129 145 146
f 129 146 130
f 130 146 147
f 130 147 148
f 130 148 131
f 131 148 149
f 131 149 132
f 132 149 150
f 132 150 151
f 132 151 152
f 132 152 153
f 132 153 133
f 133 153 134
f 134 153 152
f 134 152 151
f 134 151 150
f 134 150 154
f 134 154 155
f 134 155 135
f 136 156 137
f 137 156 157
f 137 157 158
f 137 158 159
f 137 159 142
f 140 142 141
f 141 142 160
f 142 161 160
f 142 159 162
f 142 162 161
f 145 163 147
f 145 147 146
f 147 163 164
f 147 164 148
f 148 164 149
f 149 165 166
f 149 166 167
f 149 167 168
f 149 168 150
f 149 164 169
f 149 169 165
f 150 168 154
f 154 168 167
f 154 167 170
f 154 170 155
f 155 170 171
f 157 172 158
f 158 173 174
f 158 174 159
f 158 172 175
f 158 175 173
f 159 174 162
f 165 176 177
f 165 177 166
f 165 169 178
f 165 178 176
f 166 177 179
f 166 179 180
f 166 180 170
f 166 170 167
f 170 180 171
f 171 180 181
f 172 182 175
f 173 175 183
f 175 184 185
f 175 185 186
f 175 186 183
f 175 182 187
f 175 187 184
f 176 188 177
f 176 178 189
f 176 189 190
f 176 190 188
f 177 191 192
f 177 192 179
f 177 188 191
f 179 192 193
f 179 193 194
f 179 194 180
f 180 194 181
f 184 195 196
f 184 196 185
f 184 187 197
f 184 197 198
f 184 198 195
f 188 199 191
f 188 190 199
f 190 200 199
f 191 201 202
f 191 202 203
f 191 203 192
f 191 199 204
f 191 204 201
f 192 203 205
f 192 205 206
f 192 206 193
f 193 206 194
f 195 198 207
f 195 207 208
f 195 208 209
f 195 209 210
f 195 210 196
f 199 200 204
f 200 211 204
f 201 212 213
f 201 213 214
f 201 214 202
f 201 204 215
f 201 215 212
f 202 214 216
f 202 216 217
f 202 217 203
f 203 217 205
f 204 211 215
f 205 217 206
f 206 217 218
f 208 219 209
f 209 219 220
f 209 220 221
f 209 221 222
f 209 222 210
f 211 223 224
f 211 224 215
f 212 215 224
f 212 224 213
f 213 224 225
f 213 225 226
f 213 226 214
f 214 226 227
f 214 227 216
f 216 227 217
f 217 227 228
f 217 228 218
f 218 228 227
f 218 227 229
f 221 230 231
f 221 231 232
f 221 232 222
f 222 232 233
f 223 234 235
f 223 235 224
f 223 236 234
f 224 235 225
f 225 235 234
f 225 234 237
f 225 237 238
f 225 238 226
f 226 238 239
f 226 239 227
f 227 239 240
f 227 240 241
f 227 241 229
f 230 242 231
f 231 242 243
f 231 243 232
f 232 243 244
f 232 244 245
f 232 245 233
f 234 236 237
f 236 246 247
f 236 247 237
f 237 247 248
f 237 248 238
f 238 248 249
f 238 249 240
f 238 240 239
f 240 248 250
f 240 250 241
f 240 249 248
f 241 250 251
f 242 252 253
f 242 253 254
f 242 254 243
f 243 255 244
f 243 254 256
f 243 256 257
f 243 257 255
f 246 258 247
f 247 258 259
f 247 259 260
f 247 260 261
f 247 261 248
f 248 261 250
f 250 260 262
f 250 262 263
f 250 263 251
f 250 261 260
f 252 264 265
f 252 265 253
f 253 266 256
f 253 256 254
f 253 265 266
f 258 267 259
f 259 267 268
f 259 268 269
f 259 269 260
f 260 269 270
f 260 270 262
f 262 270 271
f 262 271 272
f 262 272 263
f 263 272 273
f 264 274 265
f 264 275 274
f 265 274 276
f 265 276 266
f 268 277 269
f 269 278 270
f 269 277 279
f 269 279 278
f 270 278 271
f 271 280 281
f 271 281 273
f 271 273 272
f 271 278 280
f 273 281 282
f 273 282 283
f 273 283 284
f 274 285 276
f 274 275 286
f 274 286 287
f 274 287 288
f 274 288 285
f 277 289 279
f 278 290 280
f 278 279 290
f 279 289 291
f 279 291 292
f 279 292 290
f 280 293 282
f 280 282 281
f 280 290 294
f 280 294 295
f 280 295 296
f 280 296 293
f 282 297 298
f 282 298 299
f 282 299 284
f 282 284 283
f 282 293 297
f 286 300 287
f 286 301 300
f 287 300 288
f 288 300 302
f 290 292 294
f 291 303 292
f 292 295 294
f 292 303 304
f 292 304 305
f 292 305 306
f 292 306 307
f 292 307 308
f 292 308 309
f 292 309 295
f 293 296 310
f 293 310 311
f 293 311 297
f 295 309 296
f 296 312 310
f 296 309 313
f 296 313 312
f 297 314 298
f 297 311 315
f 297 315 316
f 297 316 314
f 300 301 317
f 300 317 318
f 300 318 302
f 301 319 317
f 307 320 308
f 308 320 321
f 308 321 322
f 308 322 309
f 309 322 313
f 310 312 323
f 310 323 311
f 311 323 324
f 311 324 315
f 312 313 325
f 312 325 326
f 312 326 323
f 313 327 325
f 313 322 321
f 313 321 328
f 313 328 327
f 317 319 329
f 317 329 330
f 317 330 331
f 317 331 332
f 317 332 318
f 318 332 333
f 319 334 329
f 320 335 321
f 321 335 336
f 321 336 328
f 323 326 324
f 324 326 337
f 325 327 338
f 325 338 339
f 325 339 326
f 326 339 340
f 326 340 337
f 327 328 341
f 327 341 342
f 327 342 343
f 327 343 344
f 327 344 338
f 329 331 330
f 329 334 345
f 329 345 346
f 329 346 347
f 329 347 331
f 331 347 350
f 331 350 332
f 332 348 349
f 332 349 333
f 332 350 348
f 338 344 351
f 338 351 339
f 339 352 353
f 339 353 340
f 339 351 354
f 339 354 352
f 342 355 343
f 343 356 357
f 343 357 344
f 343 355 358
f 343 358 359
f 343 359 360
f 343 360 361
f 343 361 356
f 344 357 362
f 344 362 351
f 345 363 364
f 345 364 346
f 346 364 365
f 346 365 366
f 346 366 347
f 347 366 368
f 347 368 350
f 348 350 367
f 350 368 369
f 350 369 370
f 350 370 371
f 350 371 367
f 351 372 354
f 351 362 373
f 351 373 372
f 356 361 375
f 356 375 365
f 356 365 364
f 356 364 374
f 356 374 357
f 357 374 362
f 360 375 361
f 360 369 375
f 362 374 376
f 362 376 377
f 362 377 373
f 363 376 374
f 363 374 364
f 365 375 368
f 365 368 366
f 368 375 369

