# https://github.com/mikedh/trimesh
v 0.00048056 -0.00013091 0.00328281
v 0.00027796 -0.00013091 0.00321494
v 0.00048056 -0.00039241 0.00326424
v 0.00066542 -0.00065455 0.00318932
v 0.00067280 -0.00039241 0.00320341
v 0.00067113 -0.00013091 0.00320725
v 0.00048056 0.00013060 0.00328025
v 0.00026975 0.00013060 0.00321942
v 0.00014702 -0.00013091 0.00303949
v 0.00029248 -0.00039241 0.00320085
v 0.00013869 0.00013060 0.00305165
v 0.00031367 -0.00065455 0.00317716
v 0.00048056 -0.00065455 0.00322710
v 0.00063768 -0.00091670 0.00316179
v 0.00113192 -0.00012257 0.00272572
v 0.00113192 0.00000882 0.00274685
v 0.00113192 0.00013060 0.00276606
v 0.00113192 -0.00119359 0.00248111
v 0.00113192 0.00038377 0.00277439
v 0.00066316 0.00013060 0.00320149
v 0.00048056 0.00039274 0.00325784
v 0.00028034 0.00065425 0.00319509
v 0.00026867 0.00039274 0.00321366
v 0.00013762 0.00039274 0.00305485
v -0.00008414 -0.00055777 0.00265913
v -0.00008414 -0.00065455 0.00263992
v -0.00008414 0.00039274 0.00269627
v -0.00008414 -0.00024435 0.00268154
v -0.00008414 -0.00039946 0.00267385
v 0.00033391 -0.00084171 0.00315603
v -0.00008414 -0.00117308 0.00253298
v 0.00049472 -0.00092375 0.00316691
v 0.00059126 -0.00105386 0.00314258
v 0.00061507 -0.00105386 0.00314258
v 0.00069637 -0.00115641 0.00301643
v 0.00084587 -0.00117820 0.00283010
v 0.00080564 -0.00144035 0.00278527
v 0.00087801 -0.00158905 0.00262519
v 0.00084921 -0.00176402 0.00258037
v 0.00113192 -0.00170954 0.00221986
v 0.00113192 0.00057669 0.00274621
v 0.00064887 0.00039274 0.00318484
v 0.00062792 0.00065425 0.00315923
v 0.00061423 0.00079718 0.00314322
v 0.00048056 0.00065425 0.00321430
v 0.00034426 0.00105483 0.00314258
v 0.00031617 0.00091639 0.00316307
v 0.00014940 0.00065425 0.00304717
v 0.00018511 0.00091639 0.00302860
v 0.00008500 0.00106445 0.00288260
v 0.00006596 0.00065425 0.00291590
v -0.00008414 0.00054529 0.00268474
v 0.00041675 -0.00101605 0.00312529
v -0.00008414 -0.00123140 0.00251825
v 0.00033117 -0.00136600 0.00290438
v 0.00038426 -0.00154098 0.00285699
v 0.00055876 -0.00159674 0.00289285
v 0.00063447 -0.00159674 0.00289285
v 0.00067458 -0.00144035 0.00293127
v 0.00067458 -0.00190182 0.00266553
v 0.00087075 -0.00208898 0.00234985
v 0.00113192 -0.00209347 0.00195668
v 0.00113192 0.00134390 0.00252081
v 0.00053650 0.00097151 0.00310608
v 0.00036200 0.00105483 0.00314258
v 0.00046187 0.00089716 0.00316051
v 0.00113192 0.00155541 0.00242989
v 0.00061649 0.00132531 0.00288645
v 0.00047556 0.00142402 0.00292615
v 0.00010143 0.00123878 0.00285763
v 0.00031974 0.00159707 0.00289285
v 0.00027201 0.00144004 0.00293191
v 0.00014107 0.00144004 0.00282177
v 0.00007655 0.00091639 0.00289733
v -0.00008414 0.00117533 0.00257716
v -0.00008414 0.00098433 0.00262135
v -0.00008414 0.00091639 0.00263479
v -0.00008414 0.00065425 0.00267449
v 0.00047520 -0.00144804 0.00293639
v -0.00008414 -0.00139997 0.00242220
v -0.00008414 -0.00176787 0.00218848
v 0.00035045 -0.00183196 0.00261494
v 0.00052496 -0.00190182 0.00266553
v 0.00069613 -0.00217551 0.00242733
v 0.00087885 -0.00236907 0.00210396
v 0.00113192 -0.00215820 0.00189329
v 0.00038485 0.00159707 0.00289285
v 0.00113192 0.00184704 0.00221922
v 0.00041652 0.00190152 0.00266553
v -0.00008414 0.00122148 0.00256244
v 0.00007036 0.00163873 0.00264888
v 0.00004715 0.00144004 0.00269050
v 0.00027082 0.00190152 0.00266553
v 0.00009619 0.00181371 0.00260598
v -0.00008414 0.00077090 0.00265785
v -0.00008414 -0.00201207 0.00196756
v 0.00034950 -0.00209539 0.00235433
v 0.00048056 -0.00215564 0.00240876
v 0.00045485 -0.00197938 0.00255475
v 0.00053329 -0.00242932 0.00217247
v 0.00074243 -0.00242035 0.00216095
v 0.00087813 -0.00262673 0.00184078
v 0.00113192 -0.00235241 0.00167429
v 0.00113192 0.00214315 0.00196436
v 0.00042187 0.00217520 0.00242669
v -0.00008414 0.00143555 0.00247727
v -0.00008414 0.00159835 0.00239787
v -0.00008414 0.00144004 0.00247535
v 0.00021868 0.00230659 0.00231142
v 0.00021868 0.00217520 0.00242412
v 0.00019749 0.00197907 0.00256116
v 0.00007667 0.00212200 0.00237482
v -0.00008414 0.00194382 0.00220577
v -0.00008414 0.00175795 0.00231142
v -0.00008414 0.00170603 0.00233960
v -0.00008414 -0.00225242 0.00169158
v 0.00055317 -0.00266839 0.00189841
v 0.00074243 -0.00255110 0.00202007
v 0.00074243 -0.00266198 0.00188880
v 0.00084778 -0.00286900 0.00155071
v 0.00089682 -0.00291323 0.00137590
v 0.00113192 -0.00266390 0.00117483
v 0.00113192 0.00238927 0.00169478
v 0.00041544 0.00242837 0.00217247
v 0.00021868 0.00243798 0.00218080
v 0.00006893 0.00239376 0.00213021
v -0.00008414 0.00208547 0.00209307
v -0.00008414 -0.00241009 0.00143737
v 0.00059102 -0.00289528 0.00159297
v 0.00067316 -0.00289528 0.00159297
v 0.00075327 -0.00280299 0.00168774
v 0.00075327 -0.00294207 0.00145274
v 0.00080386 -0.00313307 0.00102499
v 0.00089408 -0.00316255 0.00085018
v 0.00092670 -0.00296322 0.00117547
v 0.00113192 -0.00276517 0.00091357
v 0.00113192 0.00253925 0.00146810
v 0.00036497 0.00289369 0.00159105
v 0.00039818 0.00266808 0.00189649
v 0.00021868 0.00256873 0.00203800
v 0.00006989 0.00264372 0.00186575
v 0.00003251 0.00248413 0.00195668
v -0.00008414 0.00236427 0.00183181
v -0.00008414 0.00222968 0.00196372
v -0.00008414 -0.00255174 0.00118828
v 0.00060947 -0.00314461 0.00104868
v 0.00062923 -0.00314461 0.00104868
v 0.00072696 -0.00317025 0.00092766
v 0.00074243 -0.00323049 0.00065168
v 0.00091670 -0.00318563 0.00065168
v 0.00105490 -0.00298694 0.00062927
v 0.00113192 -0.00286836 0.00062927
v 0.00113192 0.00263283 0.00132531
v 0.00021868 0.00289433 0.00159169
v 0.00021868 0.00280524 0.00172296
v 0.00021868 0.00267449 0.00190673
v 0.00113192 0.00272320 0.00117547
v 0.00113192 0.00278281 0.00106469
v 0.00113192 0.00283344 0.00097056
v 0.00113192 0.00290010 0.00082008
v 0.00113192 0.00290651 0.00080472
v 0.00026582 0.00313917 0.00103204
v 0.00009119 0.00314302 0.00104484
v 0.00008274 0.00288600 0.00157696
v 0.00004406 0.00273858 0.00167813
v -0.00008414 0.00248990 0.00168838
v -0.00008414 0.00248349 0.00169670
v -0.00008414 -0.00265301 0.00091357
v -0.00008414 -0.00280555 0.00045958
v -0.00008414 -0.00285426 0.00029629
v 0.00058912 -0.00316255 0.00091357
v 0.00074243 -0.00326446 0.00038978
v 0.00093789 -0.00320742 0.00038978
v 0.00106883 -0.00302860 0.00038978
v 0.00113192 -0.00289336 0.00051657
v 0.00008750 0.00314302 0.00104484
v 0.00113192 0.00295586 0.00065168
v 0.00036616 0.00315904 0.00085722
v 0.00021868 0.00322570 0.00065168
v 0.00019463 0.00316801 0.00093214
v 0.00005655 0.00291805 0.00143737
v -0.00008414 0.00278730 0.00125103
v -0.00008414 0.00274948 0.00131891
v -0.00004391 0.00275012 0.00143737
v -0.00008414 0.00267641 0.00143737
v -0.00008414 0.00262193 0.00151421
v -0.00008414 -0.00288375 0.00013429
v 0.00056448 -0.00318755 0.00065168
v 0.00074243 -0.00328049 0.00012788
v 0.00095205 -0.00322024 0.00012788
v 0.00108299 -0.00305231 0.00012788
v 0.00113192 -0.00292028 0.00038978
v 0.00006501 0.00316160 0.00091357
v -0.00004224 0.00301227 0.00091357
v 0.00002918 0.00301227 0.00114922
v 0.00113192 0.00298471 0.00055755
v 0.00113192 0.00303342 0.00038978
v 0.00113192 0.00307316 0.00020664
v 0.00113192 0.00308982 0.00012788
v 0.00021868 0.00325582 0.00038978
v 0.00002763 0.00319493 0.00065168
v 0.00113192 0.00311610 -0.00009880
v -0.00008414 0.00281998 0.00118315
v -0.00008414 0.00270718 0.00139254
v -0.00008414 -0.00289656 0.00003888
v 0.00055864 -0.00319973 0.00038978
v -0.00008414 -0.00291451 -0.00013337
v 0.00074243 -0.00327600 -0.00013337
v 0.00095991 -0.00322344 -0.00013337
v 0.00056043 -0.00320293 0.00012788
v -0.00008414 -0.00292092 -0.00039527
v 0.00109085 -0.00306641 -0.00013337
v 0.00113192 -0.00299591 -0.00013337
v 0.00113192 -0.00297860 0.00002479
v 0.00113192 -0.00296707 0.00012788
v 0.00113192 -0.00293053 0.00033343
v -0.00008414 0.00302573 0.00070418
v -0.00008414 0.00300393 0.00076758
v -0.00008414 0.00294561 0.00091357
v 0.00021868 0.00326736 0.00012788
v -0.00001034 0.00322698 0.00012788
v 0.00000370 0.00321673 0.00038978
v 0.00113192 0.00311994 -0.00013337
v -0.00008414 0.00309687 0.00046278
v -0.00008414 0.00303983 0.00065936
v -0.00008414 -0.00291643 -0.00020957
v 0.00074243 -0.00325036 -0.00039527
v 0.00094563 -0.00319524 -0.00065717
v 0.00095920 -0.00321511 -0.00039527
v -0.00008414 -0.00290554 -0.00065717
v 0.00109013 -0.00306962 -0.00039527
v 0.00113192 -0.00300040 -0.00039527
v 0.00021868 0.00325839 -0.00013337
v -0.00001701 0.00322762 -0.00013337
v 0.00113192 0.00312571 -0.00039527
v -0.00008414 0.00315904 -0.00001171
v -0.00008414 0.00314750 0.00012788
v -0.00008414 0.00313725 0.00023098
v -0.00008414 0.00311097 0.00038978
v 0.00072029 -0.00319460 -0.00067510
v 0.00080897 -0.00316384 -0.00091906
v 0.00086802 -0.00314461 -0.00105418
v 0.00087647 -0.00314461 -0.00105418
v 0.00090670 -0.00316384 -0.00091906
v -0.00008414 -0.00286580 -0.00091842
v 0.00103776 -0.00304270 -0.00091906
v 0.00107656 -0.00306129 -0.00065717
v 0.00113192 -0.00297860 -0.00065717
v 0.00019594 0.00319622 -0.00065717
v -0.00000177 0.00319622 -0.00065717
v -0.00001582 0.00321737 -0.00039527
v 0.00113192 0.00310200 -0.00065717
v -0.00008414 0.00315840 -0.00039527
v -0.00008414 0.00316353 -0.00026912
v -0.00008414 0.00316225 -0.00013337
v 0.00061828 -0.00313820 -0.00077435
v -0.00008414 -0.00279465 -0.00118160
v 0.00084647 -0.00289336 -0.00159590
v -0.00008414 -0.00270877 -0.00143710
v -0.00008414 -0.00259276 -0.00169771
v 0.00090277 -0.00289336 -0.00159590
v 0.00095384 -0.00293182 -0.00144350
v 0.00108490 -0.00283696 -0.00144350
v 0.00112596 -0.00286836 -0.00126869
v 0.00113192 -0.00287734 -0.00120593
v 0.00113192 -0.00290105 -0.00109900
v 0.00113192 -0.00293566 -0.00091906
v 0.00013381 0.00316417 -0.00091906
v 0.00004489 0.00316417 -0.00091906
v -0.00008414 0.00308021 -0.00091330
v -0.00008414 0.00313340 -0.00065717
v -0.00008414 0.00314686 -0.00054831
v 0.00009191 0.00314430 -0.00105482
v 0.00113192 0.00288921 -0.00150753
v -0.00008414 -0.00248316 -0.00188021
v -0.00008414 -0.00242996 -0.00196217
v 0.00081255 -0.00266711 -0.00190262
v 0.00095979 -0.00266711 -0.00190262
v 0.00113192 -0.00261711 -0.00183795
v 0.00113192 -0.00262096 -0.00183154
v 0.00113192 -0.00286003 -0.00126164
v 0.00008274 0.00314430 -0.00105482
v -0.00002010 0.00304559 -0.00115791
v -0.00008414 0.00307636 -0.00092611
v 0.00113192 0.00286870 -0.00156004
v 0.00010845 0.00289369 -0.00159654
v -0.00008414 -0.00223640 -0.00221766
v -0.00008414 -0.00221973 -0.00223751
v 0.00080671 -0.00242804 -0.00217668
v 0.00100431 -0.00243124 -0.00218373
v 0.00103002 -0.00257289 -0.00198074
v 0.00113192 -0.00239150 -0.00214018
v 0.00004179 0.00289369 -0.00159654
v -0.00008414 0.00289690 -0.00147295
v 0.00113192 0.00265526 -0.00189173
v -0.00004332 0.00257514 -0.00203837
v -0.00008414 -0.00197297 -0.00249493
v 0.00081290 -0.00217358 -0.00242897
v 0.00100431 -0.00231715 -0.00231435
v 0.00113192 -0.00214538 -0.00240848
v -0.00004332 0.00266808 -0.00190774
v -0.00004463 0.00280204 -0.00169259
v -0.00008414 0.00282767 -0.00161447
v 0.00113192 0.00264116 -0.00191030
v -0.00008414 0.00259245 -0.00198970
v 0.00113192 0.00242452 -0.00217860
v -0.00004332 0.00244375 -0.00219973
v -0.00008414 0.00243350 -0.00218885
v -0.00008414 -0.00196784 -0.00249941
v 0.00100431 -0.00204347 -0.00257369
v 0.00100431 -0.00218576 -0.00244306
v 0.00113192 -0.00212231 -0.00243026
v -0.00008414 0.00265911 -0.00189558
v 0.00113192 0.00239824 -0.00220742
v -0.00004332 0.00233031 -0.00233100
v -0.00008414 0.00234889 -0.00228618
v 0.00100431 -0.00191272 -0.00267935
v -0.00008414 -0.00169096 -0.00271520
v 0.00113192 -0.00188196 -0.00265629
v 0.00113192 0.00217776 -0.00243218
v -0.00004332 0.00219891 -0.00245139
v -0.00008414 0.00218930 -0.00244306
v -0.00008414 -0.00164417 -0.00274914
v 0.00086206 -0.00158905 -0.00289386
v 0.00100431 -0.00172364 -0.00280997
v 0.00113192 -0.00158264 -0.00289066
v 0.00113192 0.00190152 -0.00267102
v -0.00004332 0.00204893 -0.00258266
v -0.00008414 0.00207585 -0.00254231
v -0.00008414 -0.00143778 -0.00287657
v 0.00100431 -0.00159289 -0.00289578
v -0.00008414 -0.00123140 -0.00297774
v 0.00113180 -0.00104809 -0.00314615
v 0.00113192 -0.00104809 -0.00314615
v 0.00113192 0.00159258 -0.00289578
v -0.00004332 0.00191818 -0.00268063
v -0.00008414 0.00191113 -0.00267614
v -0.00008414 -0.00090580 -0.00310325
v -0.00008414 -0.00065455 -0.00318393
v 0.00102836 -0.00092119 -0.00316792
v 0.00100431 -0.00065455 -0.00321915
v 0.00113192 -0.00086927 -0.00317496
v 0.00111763 0.00159258 -0.00289578
v -0.00004332 0.00172205 -0.00281125
v 0.00113192 0.00105099 -0.00314423
v -0.00008414 0.00159130 -0.00289514
v -0.00008414 -0.00052957 -0.00320762
v 0.00100431 -0.00039241 -0.00324860
v 0.00113192 -0.00056418 -0.00321467
v 0.00113192 -0.00065455 -0.00320442
v 0.00113192 0.00104201 -0.00314743
v -0.00008414 0.00113623 -0.00308852
v -0.00008414 0.00148298 -0.00294124
v -0.00008414 -0.00039241 -0.00321851
v 0.00100431 -0.00013091 -0.00325885
v 0.00113192 -0.00013091 -0.00324220
v 0.00113192 -0.00039241 -0.00323067
v -0.00008414 0.00098882 -0.00313590
v 0.00113192 0.00091639 -0.00316536
v 0.00109692 0.00091639 -0.00316536
v -0.00008414 0.00083179 -0.00317240
v -0.00008414 0.00091639 -0.00315640
v -0.00008414 -0.00037575 -0.00321915
v -0.00004332 0.00013060 -0.00323324
v -0.00008414 0.00039274 -0.00322363
v -0.00004332 0.00039274 -0.00322427
v 0.00100431 0.00013060 -0.00324860
v 0.00113192 0.00013060 -0.00323836
v 0.00113192 0.00084845 -0.00317368
v 0.00103978 0.00065425 -0.00319738
v -0.00008414 0.00044402 -0.00321915
v -0.00008414 0.00012739 -0.00323003
v -0.00008414 0.00017610 -0.00323067
v 0.00113192 0.00065425 -0.00319738
v 0.00113192 0.00053759 -0.00320698
f 1 2 3
f 1 3 4
f 1 4 5
f 1 5 6
f 1 6 7
f 1 7 8
f 1 8 2
f 2 9 10
f 2 10 3
f 2 8 11
f 2 11 9
f 3 10 12
f 3 12 13
f 3 13 14
f 3 14 4
f 4 15 16
f 4 16 17
f 4 17 5
f 4 14 18
f 4 18 15
f 5 17 19
f 5 19 6
f 6 19 20
f 6 20 7
f 7 20 21
f 7 21 22
f 7 22 23
f 7 23 8
f 8 23 24
f 8 24 11
f 9 25 10
f 9 11 25
f 10 25 26
f 10 26 12
f 11 24 27
f 11 27 28
f 11 28 29
f 11 29 25
f 12 30 13
f 12 26 31
f 12 31 30
f 13 30 32
f 13 32 33
f 13 33 34
f 13 34 14
f 14 34 35
f 14 35 36
f 14 36 18
f 15 18 40
f 15 40 62
f 15 62 86
f 15 86 103
f 15 103 122
f 15 122 136
f 15 136 152
f 15 152 175
f 15 175 192
f 15 192 216
f 15 216 215
f 15 215 214
f 15 214 213
f 15 213 232
f 15 232 248
f 15 248 267
f 15 267 266
f 15 266 265
f 15 265 281
f 15 281 280
f 15 280 279
f 15 279 292
f 15 292 300
f 15 300 312
f 15 312 319
f 15 319 326
f 15 326 334
f 15 334 342
f 15 342 350
f 15 350 349
f 15 349 357
f 15 357 356
f 15 356 368
f 15 368 375
f 15 375 374
f 15 374 369
f 15 369 359
f 15 359 351
f 15 351 345
f 15 345 335
f 15 335 327
f 15 327 320
f 15 320 314
f 15 314 306
f 15 306 304
f 15 304 295
f 15 295 285
f 15 285 274
f 15 274 252
f 15 252 235
f 15 235 223
f 15 223 202
f 15 202 199
f 15 199 198
f 15 198 197
f 15 197 196
f 15 196 177
f 15 177 161
f 15 161 160
f 15 160 159
f 15 159 158
f 15 158 157
f 15 157 153
f 15 153 137
f 15 137 123
f 15 123 104
f 15 104 88
f 15 88 67
f 15 67 63
f 15 63 41
f 15 41 19
f 15 19 17
f 15 17 16
f 18 36 37
f 18 37 38
f 18 38 39
f 18 39 40
f 19 41 42
f 19 42 20
f 20 42 21
f 21 42 43
f 21 43 44
f 21 44 45
f 21 45 46
f 21 46 47
f 21 47 22
f 22 48 23
f 22 47 49
f 22 49 50
f 22 50 48
f 23 48 24
f 24 48 51
f 24 51 52
f 24 52 27
f 25 29 28
f 25 28 27
f 25 27 52
f 25 52 78
f 25 78 95
f 25 95 77
f 25 77 76
f 25 76 75
f 25 75 90
f 25 90 106
f 25 106 108
f 25 108 107
f 25 107 115
f 25 115 114
f 25 114 113
f 25 113 127
f 25 127 144
f 25 144 143
f 25 143 167
f 25 167 166
f 25 166 186
f 25 186 185
f 25 185 204
f 25 204 183
f 25 183 182
f 25 182 203
f 25 203 219
f 25 219 218
f 25 218 217
f 25 217 225
f 25 225 224
f 25 224 239
f 25 239 238
f 25 238 237
f 25 237 236
f 25 236 255
f 25 255 254
f 25 254 253
f 25 253 272
f 25 272 271
f 25 271 270
f 25 270 284
f 25 284 294
f 25 294 303
f 25 303 313
f 25 313 305
f 25 305 308
f 25 308 316
f 25 316 322
f 25 322 329
f 25 329 337
f 25 337 346
f 25 346 353
f 25 353 352
f 25 352 358
f 25 358 362
f 25 362 361
f 25 361 371
f 25 371 365
f 25 365 373
f 25 373 372
f 25 372 363
f 25 363 354
f 25 354 347
f 25 347 339
f 25 339 338
f 25 338 332
f 25 332 330
f 25 330 323
f 25 323 318
f 25 318 309
f 25 309 297
f 25 297 288
f 25 288 287
f 25 287 276
f 25 276 275
f 25 275 260
f 25 260 259
f 25 259 257
f 25 257 245
f 25 245 230
f 25 230 211
f 25 211 226
f 25 226 207
f 25 207 205
f 25 205 187
f 25 187 170
f 25 170 169
f 25 169 168
f 25 168 145
f 25 145 128
f 25 128 116
f 25 116 96
f 25 96 81
f 25 81 80
f 25 80 54
f 25 54 31
f 25 31 26
f 30 53 32
f 30 31 54
f 30 54 55
f 30 55 56
f 30 56 53
f 32 53 33
f 33 53 57
f 33 57 58
f 33 58 34
f 34 58 59
f 34 59 35
f 35 59 37
f 35 37 36
f 37 59 39
f 37 39 38
f 39 59 58
f 39 58 60
f 39 60 61
f 39 61 40
f 40 61 62
f 41 44 43
f 41 43 42
f 41 63 44
f 44 64 65
f 44 65 66
f 44 66 45
f 44 63 67
f 44 67 68
f 44 68 69
f 44 69 64
f 45 66 65
f 45 65 46
f 46 70 47
f 46 65 87
f 46 87 71
f 46 71 72
f 46 72 73
f 46 73 70
f 47 70 49
f 48 50 74
f 48 74 51
f 49 70 50
f 50 70 75
f 50 75 76
f 50 76 77
f 50 77 74
f 51 78 52
f 51 74 78
f 53 56 79
f 53 79 57
f 54 80 55
f 55 80 56
f 56 80 81
f 56 81 82
f 56 82 83
f 56 83 57
f 56 57 79
f 57 83 60
f 57 60 58
f 60 83 84
f 60 84 61
f 61 84 85
f 61 85 62
f 62 85 86
f 64 69 87
f 64 87 65
f 67 87 69
f 67 69 68
f 67 88 89
f 67 89 87
f 70 90 75
f 70 73 91
f 70 91 92
f 70 92 90
f 71 87 89
f 71 89 93
f 71 93 94
f 71 94 72
f 72 94 73
f 73 94 91
f 74 77 95
f 74 95 78
f 81 96 82
f 82 96 97
f 82 97 98
f 82 98 99
f 82 99 83
f 83 99 98
f 83 98 100
f 83 100 84
f 84 100 101
f 84 101 85
f 85 101 102
f 85 102 86
f 86 102 103
f 88 104 105
f 88 105 89
f 89 105 93
f 90 92 106
f 91 107 108
f 91 108 106
f 91 106 92
f 91 94 107
f 93 105 109
f 93 109 110
f 93 110 111
f 93 111 94
f 94 111 112
f 94 112 113
f 94 113 114
f 94 114 115
f 94 115 107
f 96 116 97
f 97 116 100
f 97 100 98
f 100 116 117
f 100 117 118
f 100 118 101
f 101 118 102
f 102 118 119
f 102 119 120
f 102 120 121
f 102 121 103
f 103 121 122
f 104 123 124
f 104 124 105
f 105 124 125
f 105 125 109
f 109 125 126
f 109 126 112
f 109 112 110
f 110 112 111
f 112 126 127
f 112 127 113
f 116 128 129
f 116 129 117
f 117 119 118
f 117 129 130
f 117 130 119
f 119 130 131
f 119 131 120
f 120 131 130
f 120 130 132
f 120 132 133
f 120 133 134
f 120 134 121
f 121 134 135
f 121 135 122
f 122 135 134
f 122 134 136
f 123 137 138
f 123 138 139
f 123 139 124
f 124 139 140
f 124 140 125
f 125 140 141
f 125 141 126
f 126 141 142
f 126 142 143
f 126 143 144
f 126 144 127
f 128 145 129
f 129 146 147
f 129 147 130
f 129 145 146
f 130 147 133
f 130 133 132
f 133 147 148
f 133 148 134
f 134 148 149
f 134 149 150
f 134 150 151
f 134 151 152
f 134 152 136
f 137 153 138
f 138 154 155
f 138 155 156
f 138 156 139
f 138 153 157
f 138 157 158
f 138 158 159
f 138 159 160
f 138 160 161
f 138 161 162
f 138 162 163
f 138 163 154
f 139 156 140
f 140 156 164
f 140 164 141
f 141 165 166
f 141 166 167
f 141 167 143
f 141 143 142
f 141 164 165
f 145 168 146
f 146 169 170
f 146 170 171
f 146 171 149
f 146 149 147
f 146 168 169
f 147 149 148
f 149 172 150
f 149 171 172
f 150 172 173
f 150 173 174
f 150 174 151
f 151 174 152
f 152 174 175
f 154 164 155
f 154 163 176
f 154 176 164
f 155 164 156
f 161 177 162
f 162 178 179
f 162 179 180
f 162 180 163
f 162 177 178
f 163 180 176
f 164 181 182
f 164 182 183
f 164 183 184
f 164 184 185
f 164 185 186
f 164 186 165
f 164 176 181
f 165 186 166
f 170 187 171
f 171 188 172
f 171 187 188
f 172 189 190
f 172 190 173
f 172 188 189
f 173 190 191
f 173 191 174
f 174 192 175
f 174 191 192
f 176 180 179
f 176 179 193
f 176 193 194
f 176 194 195
f 176 195 181
f 177 196 178
f 178 196 197
f 178 197 198
f 178 198 199
f 178 199 179
f 179 200 201
f 179 201 193
f 179 199 202
f 179 202 200
f 181 203 182
f 181 195 203
f 183 204 184
f 184 204 185
f 187 205 188
f 188 206 189
f 188 205 207
f 188 207 206
f 189 208 209
f 189 209 190
f 189 206 210
f 189 210 211
f 189 211 208
f 190 209 212
f 190 212 191
f 191 212 213
f 191 213 214
f 191 214 215
f 191 215 216
f 191 216 192
f 193 201 217
f 193 217 194
f 194 217 218
f 194 218 219
f 194 219 203
f 194 203 195
f 200 220 221
f 200 221 222
f 200 222 201
f 200 202 223
f 200 223 220
f 201 222 224
f 201 224 225
f 201 225 217
f 206 207 226
f 206 226 211
f 206 211 210
f 208 227 228
f 208 228 229
f 208 229 209
f 208 211 230
f 208 230 227
f 209 229 231
f 209 231 212
f 212 231 232
f 212 232 213
f 220 233 234
f 220 234 221
f 220 223 235
f 220 235 233
f 221 234 236
f 221 236 237
f 221 237 222
f 222 237 238
f 222 238 239
f 222 239 224
f 227 240 241
f 227 241 242
f 227 242 243
f 227 243 244
f 227 244 228
f 227 230 245
f 227 245 240
f 228 244 246
f 228 246 247
f 228 247 229
f 229 247 231
f 231 247 248
f 231 248 232
f 233 249 250
f 233 250 251
f 233 251 234
f 233 235 252
f 233 252 249
f 234 251 253
f 234 253 254
f 234 254 255
f 234 255 236
f 240 245 256
f 240 256 241
f 241 256 245
f 241 245 257
f 241 257 242
f 242 258 261
f 242 261 243
f 242 257 259
f 242 259 260
f 242 260 258
f 243 261 262
f 243 262 263
f 243 263 264
f 243 264 244
f 244 264 246
f 246 264 265
f 246 265 247
f 247 265 266
f 247 266 267
f 247 267 248
f 249 268 269
f 249 269 250
f 249 252 268
f 250 269 270
f 250 270 271
f 250 271 272
f 250 272 251
f 251 272 253
f 252 273 268
f 252 274 273
f 258 260 275
f 258 275 276
f 258 276 277
f 258 277 278
f 258 278 261
f 261 278 279
f 261 279 280
f 261 280 262
f 262 280 263
f 263 280 264
f 264 281 265
f 264 280 281
f 268 273 282
f 268 282 269
f 269 282 283
f 269 283 284
f 269 284 270
f 273 274 285
f 273 285 286
f 273 286 293
f 273 293 282
f 276 287 277
f 277 287 288
f 277 288 289
f 277 289 290
f 277 290 278
f 278 290 291
f 278 291 279
f 279 291 292
f 282 293 294
f 282 294 283
f 283 294 284
f 285 295 286
f 286 295 296
f 286 296 293
f 288 297 289
f 289 297 298
f 289 298 299
f 289 299 290
f 290 299 292
f 290 292 291
f 292 299 300
f 293 296 301
f 293 301 302
f 293 302 303
f 293 303 294
f 295 304 296
f 296 305 301
f 296 304 306
f 296 306 307
f 296 307 308
f 296 308 305
f 297 309 310
f 297 310 311
f 297 311 298
f 298 311 299
f 299 311 300
f 300 311 312
f 301 305 313
f 301 313 302
f 302 313 303
f 306 314 315
f 306 315 307
f 307 315 308
f 308 315 316
f 309 317 310
f 309 318 317
f 310 317 319
f 310 319 311
f 311 319 312
f 314 320 315
f 315 320 321
f 315 321 322
f 315 322 316
f 317 318 323
f 317 323 324
f 317 324 325
f 317 325 326
f 317 326 319
f 320 327 328
f 320 328 321
f 321 328 322
f 322 328 329
f 323 330 324
f 324 331 325
f 324 330 332
f 324 332 333
f 324 333 331
f 325 331 326
f 326 331 334
f 327 335 336
f 327 336 328
f 328 336 337
f 328 337 329
f 331 333 334
f 332 338 333
f 333 338 339
f 333 339 340
f 333 340 341
f 333 341 334
f 334 341 342
f 335 343 344
f 335 344 336
f 335 345 343
f 336 344 346
f 336 346 337
f 339 341 340
f 339 347 341
f 341 347 348
f 341 348 349
f 341 349 350
f 341 350 342
f 343 346 344
f 343 345 346
f 345 351 352
f 345 352 353
f 345 353 346
f 347 354 348
f 348 355 356
f 348 356 357
f 348 357 349
f 348 354 355
f 351 358 352
f 351 359 360
f 351 360 361
f 351 361 362
f 351 362 358
f 354 363 355
f 355 364 365
f 355 365 366
f 355 366 367
f 355 367 368
f 355 368 356
f 355 363 364
f 359 369 360
f 360 369 370
f 360 370 361
f 361 370 371
f 363 372 364
f 364 372 373
f 364 373 365
f 365 371 366
f 366 371 374
f 366 374 367
f 367 374 375
f 367 375 368
f 369 374 370
f 370 374 371

