# https://github.com/mikedh/trimesh
v 0.00598123 -0.00323861 -0.00013336
v 0.00576483 -0.00322903 -0.00013336
v 0.00598123 -0.00322967 -0.00039563
v 0.00685319 -0.00312753 0.00012763
v 0.00685319 -0.00312945 0.00019367
v 0.00685319 -0.00313264 0.00038989
v 0.00596173 -0.00321754 0.00038989
v 0.00576483 -0.00321946 0.00038989
v 0.00576483 -0.00321818 -0.00039563
v 0.00576483 -0.00320414 -0.00056235
v 0.00577474 -0.00319648 -0.00065725
v 0.00598123 -0.00320286 -0.00065725
v 0.00685319 -0.00311094 -0.00004872
v 0.00685319 -0.00312881 0.00045851
v 0.00685319 -0.00311796 0.00065152
v 0.00593285 -0.00319711 0.00065152
v 0.00576483 -0.00321499 0.00044568
v 0.00576483 -0.00319009 -0.00064058
v 0.00576483 -0.00318626 -0.00065725
v 0.00576483 -0.00313328 -0.00083872
v 0.00581875 -0.00316456 -0.00091952
v 0.00586126 -0.00314477 -0.00105482
v 0.00596162 -0.00316073 -0.00089708
v 0.00685319 -0.00308796 -0.00022185
v 0.00685319 -0.00310072 -0.00013336
v 0.00685319 -0.00308221 0.00088108
v 0.00588427 -0.00316392 0.00091379
v 0.00578774 -0.00316392 0.00091379
v 0.00576483 -0.00317030 0.00084069
v 0.00576483 -0.00301582 -0.00114139
v 0.00577155 -0.00301774 -0.00115806
v 0.00584751 -0.00314477 -0.00105482
v 0.00603588 -0.00312243 -0.00096954
v 0.00598123 -0.00289390 -0.00159667
v 0.00611750 -0.00288624 -0.00158385
v 0.00685319 -0.00305859 -0.00036228
v 0.00585241 -0.00314413 0.00104781
v 0.00685319 -0.00293731 0.00135304
v 0.00584389 -0.00314413 0.00104781
v 0.00576483 -0.00315562 0.00091379
v 0.00576483 -0.00301135 -0.00115165
v 0.00576483 -0.00290539 -0.00139019
v 0.00580085 -0.00292965 -0.00144341
v 0.00583643 -0.00289262 -0.00159411
v 0.00685319 -0.00297305 -0.00065725
v 0.00685319 -0.00297625 -0.00064763
v 0.00685319 -0.00304838 -0.00040076
v 0.00598123 -0.00280964 -0.00172748
v 0.00598123 -0.00267877 -0.00192114
v 0.00614626 -0.00265899 -0.00189421
v 0.00685319 -0.00263473 -0.00134530
v 0.00685319 -0.00274325 -0.00115934
v 0.00685319 -0.00274580 -0.00115486
v 0.00685319 -0.00283198 -0.00100288
v 0.00685319 -0.00288943 -0.00088105
v 0.00685319 -0.00296284 -0.00068547
v 0.00685319 -0.00290794 0.00143576
v 0.00586744 -0.00289454 0.00159222
v 0.00576483 -0.00289326 0.00158966
v 0.00576483 -0.00308923 0.00112796
v 0.00576483 -0.00287666 -0.00143957
v 0.00576483 -0.00282559 -0.00152549
v 0.00578295 -0.00274772 -0.00169093
v 0.00581725 -0.00265899 -0.00189164
v 0.00598123 -0.00257855 -0.00205195
v 0.00685319 -0.00240939 -0.00163579
v 0.00685319 -0.00253195 -0.00148253
v 0.00616224 -0.00242216 -0.00217507
v 0.00685319 -0.00281410 0.00164096
v 0.00685319 -0.00267239 0.00187886
v 0.00685319 -0.00265962 0.00189938
v 0.00576483 -0.00267558 0.00191220
v 0.00576483 -0.00274516 -0.00165054
v 0.00576483 -0.00271388 -0.00169350
v 0.00576483 -0.00260728 -0.00183650
v 0.00576483 -0.00249557 -0.00196923
v 0.00576718 -0.00249557 -0.00197436
v 0.00581661 -0.00241322 -0.00215840
v 0.00598123 -0.00244769 -0.00220072
v 0.00685319 -0.00229002 -0.00176917
v 0.00598123 -0.00232640 -0.00233217
v 0.00616981 -0.00217320 -0.00242964
v 0.00576483 -0.00253961 0.00207956
v 0.00685319 -0.00242982 0.00217383
v 0.00576483 -0.00249046 -0.00197436
v 0.00576483 -0.00236024 -0.00210325
v 0.00577357 -0.00223321 -0.00223919
v 0.00582429 -0.00215022 -0.00240335
v 0.00685319 -0.00208319 -0.00198462
v 0.00598123 -0.00219490 -0.00244439
v 0.00616470 -0.00189935 -0.00266883
v 0.00685319 -0.00181509 -0.00222509
v 0.00576483 -0.00244322 0.00219050
v 0.00685319 -0.00242024 0.00218345
v 0.00576483 -0.00228491 0.00235273
v 0.00576483 -0.00223321 -0.00222124
v 0.00576483 -0.00222363 -0.00222958
v 0.00576483 -0.00221342 -0.00223791
v 0.00576483 -0.00208575 -0.00233987
v 0.00576483 -0.00195616 -0.00243093
v 0.00579637 -0.00195233 -0.00249056
v 0.00584037 -0.00185722 -0.00263612
v 0.00598123 -0.00203149 -0.00257585
v 0.00613369 -0.00159294 -0.00289647
v 0.00685319 -0.00158847 -0.00237257
v 0.00685319 -0.00217703 0.00242712
v 0.00576483 -0.00219044 0.00243481
v 0.00576483 -0.00191658 -0.00245786
v 0.00576483 -0.00176976 -0.00255276
v 0.00576483 -0.00169316 -0.00259188
v 0.00581832 -0.00170210 -0.00267780
v 0.00584655 -0.00132739 -0.00288941
v 0.00589684 -0.00150166 -0.00285735
v 0.00607147 -0.00159294 -0.00289647
v 0.00598123 -0.00190062 -0.00266819
v 0.00611366 -0.00104907 -0.00314655
v 0.00618291 -0.00144037 -0.00293430
v 0.00685319 -0.00099098 -0.00267973
v 0.00685319 -0.00131015 -0.00252839
v 0.00685319 -0.00149336 -0.00243413
v 0.00685319 -0.00190062 0.00266502
v 0.00683806 -0.00190126 0.00266566
v 0.00576483 -0.00198999 0.00259576
v 0.00576483 -0.00161592 -0.00262843
v 0.00576483 -0.00142825 -0.00270858
v 0.00576483 -0.00137718 -0.00272718
v 0.00576483 -0.00120865 -0.00278040
v 0.00576483 -0.00105417 -0.00282914
v 0.00583515 -0.00117865 -0.00290929
v 0.00589769 -0.00065457 -0.00309140
v 0.00594426 -0.00091629 -0.00307153
v 0.00607520 -0.00091629 -0.00316515
v 0.00611078 -0.00104907 -0.00314655
v 0.00615702 -0.00091629 -0.00316515
v 0.00634497 -0.00070627 -0.00311962
v 0.00685319 -0.00076245 -0.00274513
v 0.00685319 -0.00161081 0.00286893
v 0.00576483 -0.00189935 0.00266053
v 0.00576483 -0.00090991 -0.00286120
v 0.00581768 -0.00091629 -0.00294071
v 0.00588257 -0.00039284 -0.00309910
v 0.00601362 -0.00039284 -0.00321901
v 0.00602864 -0.00065457 -0.00319721
v 0.00580628 -0.00065457 -0.00295995
v 0.00624322 -0.00039284 -0.00323440
v 0.00625196 -0.00063350 -0.00318823
v 0.00637555 -0.00053200 -0.00314783
v 0.00685319 -0.00050647 -0.00278297
v 0.00685319 -0.00155145 0.00290420
v 0.00576483 -0.00162550 0.00283046
v 0.00576483 -0.00081926 -0.00287659
v 0.00576483 -0.00065457 -0.00289967
v 0.00588075 -0.00013048 -0.00309525
v 0.00601170 -0.00013048 -0.00322927
v 0.00576483 -0.00057413 -0.00290480
v 0.00576483 -0.00039284 -0.00291506
v 0.00624322 -0.00013048 -0.00326390
v 0.00638546 -0.00039284 -0.00316066
v 0.00685319 -0.00024730 -0.00279772
v 0.00640016 -0.00013048 -0.00318054
v 0.00640836 0.00013061 -0.00318951
v 0.00576483 -0.00155145 0.00287214
v 0.00685319 -0.00108992 0.00310619
v 0.00576483 -0.00013048 -0.00290737
v 0.00588800 0.00013061 -0.00307986
v 0.00601905 0.00013061 -0.00322799
v 0.00624322 0.00013061 -0.00327159
v 0.00685319 0.00001570 -0.00279515
v 0.00641039 0.00039233 -0.00318823
v 0.00576483 -0.00147868 0.00290228
v 0.00685319 -0.00096417 0.00315557
v 0.00576483 0.00012997 -0.00287659
v 0.00590217 0.00039233 -0.00305357
v 0.00603322 0.00039233 -0.00321645
v 0.00624322 0.00039233 -0.00325877
v 0.00640538 0.00065469 -0.00317861
v 0.00685319 0.00013061 -0.00278746
v 0.00576483 -0.00091629 0.00308375
v 0.00685319 -0.00091629 0.00316262
v 0.00676699 -0.00039284 0.00324791
v 0.00683454 -0.00091629 0.00316262
v 0.00576483 -0.00065457 0.00313569
v 0.00576483 0.00039233 -0.00281567
v 0.00591570 0.00065341 -0.00299778
v 0.00605645 0.00065469 -0.00319529
v 0.00576483 0.00070001 -0.00272846
v 0.00624322 0.00065469 -0.00322735
v 0.00639206 0.00086024 -0.00316322
v 0.00685319 0.00030104 -0.00275283
v 0.00685319 -0.00039284 0.00323572
v 0.00676699 -0.00013048 0.00327484
v 0.00576483 -0.00039284 0.00316006
v 0.00601394 0.00093748 -0.00303882
v 0.00608500 0.00086407 -0.00316899
v 0.00576483 0.00091641 -0.00266049
v 0.00576483 0.00119027 -0.00255982
v 0.00624322 0.00090046 -0.00317605
v 0.00624322 0.00103132 -0.00313950
v 0.00638940 0.00159307 -0.00289647
v 0.00642008 0.00144050 -0.00292981
v 0.00645322 0.00117814 -0.00298303
v 0.00685319 0.00039935 -0.00273167
v 0.00685319 -0.00013048 0.00325496
v 0.00676699 0.00013061 0.00327933
v 0.00576483 -0.00013048 0.00316454
v 0.00604377 0.00117814 -0.00297662
v 0.00608585 0.00144050 -0.00291570
v 0.00611036 0.00157455 -0.00288557
v 0.00576483 0.00144050 -0.00240976
v 0.00624322 0.00117814 -0.00307601
v 0.00624322 0.00144050 -0.00296187
v 0.00624322 0.00158987 -0.00289454
v 0.00624322 0.00172074 -0.00280413
v 0.00624322 0.00190458 -0.00267332
v 0.00642328 0.00189884 -0.00266947
v 0.00645780 0.00168882 -0.00275539
v 0.00685319 0.00168243 -0.00220842
v 0.00656061 0.00143284 -0.00273423
v 0.00685319 0.00013061 0.00325560
v 0.00676699 0.00039233 0.00326330
v 0.00576483 0.00013061 0.00314980
v 0.00576483 0.00169329 -0.00225651
v 0.00609779 0.00186245 -0.00264318
v 0.00624322 0.00203544 -0.00256623
v 0.00644096 0.00217396 -0.00243028
v 0.00661559 0.00203417 -0.00231935
v 0.00662273 0.00232717 -0.00207119
v 0.00685319 0.00196522 -0.00196474
v 0.00685319 0.00039233 0.00323957
v 0.00685319 0.00051872 0.00322610
v 0.00676699 0.00065469 0.00322931
v 0.00576483 0.00039233 0.00311389
v 0.00576483 0.00197033 -0.00201733
v 0.00609725 0.00212609 -0.00238989
v 0.00624322 0.00217716 -0.00243541
v 0.00644810 0.00242803 -0.00217699
v 0.00661825 0.00259145 -0.00180379
v 0.00685319 0.00222567 -0.00170953
v 0.00685319 0.00065469 0.00320815
v 0.00685319 0.00076768 0.00319148
v 0.00685319 0.00088897 0.00316454
v 0.00675591 0.00093365 0.00316839
v 0.00663349 0.00105238 0.00314210
v 0.00576483 0.00067001 0.00304143
v 0.00576483 0.00218609 -0.00177686
v 0.00610471 0.00237121 -0.00211672
v 0.00624322 0.00230802 -0.00230204
v 0.00630011 0.00266677 -0.00190254
v 0.00644363 0.00266677 -0.00190254
v 0.00658235 0.00283657 -0.00150882
v 0.00664297 0.00289211 -0.00133376
v 0.00665629 0.00266166 -0.00162937
v 0.00685319 0.00245803 -0.00145880
v 0.00685319 0.00102047 0.00312030
v 0.00683582 0.00103196 0.00313248
v 0.00666119 0.00105238 0.00314210
v 0.00661570 0.00159690 0.00289266
v 0.00576483 0.00091641 0.00294909
v 0.00576483 0.00078300 0.00300359
v 0.00576483 0.00242292 -0.00139789
v 0.00612549 0.00260294 -0.00180443
v 0.00624322 0.00242101 -0.00217122
v 0.00634848 0.00289402 -0.00159667
v 0.00640772 0.00289402 -0.00159667
v 0.00649903 0.00292849 -0.00142995
v 0.00664137 0.00314872 -0.00080923
v 0.00685319 0.00267379 -0.00115678
v 0.00685319 0.00105302 0.00310811
v 0.00685319 0.00153115 0.00289330
v 0.00678457 0.00146093 0.00294139
v 0.00670892 0.00159690 0.00289266
v 0.00657958 0.00190139 0.00266566
v 0.00576483 0.00144050 0.00267784
v 0.00576483 0.00132751 0.00274774
v 0.00576483 0.00118899 0.00281891
v 0.00576483 0.00105238 0.00288496
v 0.00576483 0.00251612 -0.00123822
v 0.00617162 0.00281614 -0.00144341
v 0.00630256 0.00293232 -0.00144341
v 0.00637128 0.00314426 -0.00105418
v 0.00638173 0.00314426 -0.00105418
v 0.00655635 0.00311170 -0.00098364
v 0.00648337 0.00316341 -0.00090541
v 0.00650500 0.00321767 -0.00065725
v 0.00650500 0.00325980 -0.00039563
v 0.00665586 0.00316532 -0.00065725
v 0.00685319 0.00294637 -0.00037639
v 0.00685319 0.00275997 -0.00091952
v 0.00685319 0.00160200 0.00285162
v 0.00678457 0.00169137 0.00280673
v 0.00676699 0.00189628 0.00266181
v 0.00676699 0.00202714 0.00255152
v 0.00656051 0.00217588 0.00242648
v 0.00576483 0.00169392 0.00248996
v 0.00576483 0.00253080 -0.00117666
v 0.00630938 0.00319532 -0.00065725
v 0.00634454 0.00316405 -0.00091952
v 0.00669049 0.00320554 -0.00013336
v 0.00667643 0.00318958 -0.00039563
v 0.00650500 0.00328086 -0.00013336
v 0.00682154 0.00302425 -0.00013336
v 0.00685319 0.00297637 -0.00013336
v 0.00685319 0.00186692 0.00264065
v 0.00676699 0.00216822 0.00242070
v 0.00655188 0.00242930 0.00217254
v 0.00576483 0.00196012 0.00223795
v 0.00576483 0.00170988 0.00247585
v 0.00576483 0.00262783 -0.00065725
v 0.00576483 0.00266039 -0.00040332
v 0.00629830 0.00321320 -0.00039563
v 0.00669870 0.00321192 0.00012763
v 0.00682975 0.00303318 0.00012763
v 0.00629947 0.00321831 -0.00013336
v 0.00650500 0.00328278 0.00012763
v 0.00685319 0.00299105 0.00004939
v 0.00685319 0.00213311 0.00238928
v 0.00676699 0.00229908 0.00228412
v 0.00655443 0.00266805 0.00189809
v 0.00576483 0.00197608 0.00222000
v 0.00670147 0.00266805 0.00189809
v 0.00576483 0.00267826 -0.00013336
v 0.00576483 0.00269550 0.00012763
v 0.00576483 0.00269933 0.00021932
v 0.00576483 0.00270571 0.00038989
v 0.00670093 0.00320809 0.00038989
v 0.00683198 0.00303191 0.00038989
v 0.00685319 0.00299680 0.00012763
v 0.00630757 0.00321384 0.00012763
v 0.00650500 0.00326490 0.00038989
v 0.00669305 0.00319341 0.00065152
v 0.00685319 0.00233738 0.00215908
v 0.00685319 0.00237632 0.00211419
v 0.00676699 0.00241207 0.00215331
v 0.00658949 0.00289466 0.00159222
v 0.00641486 0.00285445 0.00152938
v 0.00576483 0.00221227 0.00194490
v 0.00685319 0.00257613 0.00181922
v 0.00685319 0.00261953 0.00175061
v 0.00665863 0.00289466 0.00159222
v 0.00576483 0.00268720 0.00065152
v 0.00682399 0.00302106 0.00065152
v 0.00685319 0.00299616 0.00038989
v 0.00685319 0.00299807 0.00032128
v 0.00685319 0.00297318 0.00065152
v 0.00632153 0.00319979 0.00038989
v 0.00634198 0.00317681 0.00065152
v 0.00650500 0.00322724 0.00065152
v 0.00666343 0.00316468 0.00091379
v 0.00685319 0.00288572 0.00108436
v 0.00680982 0.00298658 0.00089199
v 0.00685319 0.00292083 0.00093174
v 0.00662081 0.00314490 0.00105037
v 0.00644619 0.00312383 0.00100549
v 0.00650329 0.00293679 0.00144025
v 0.00576483 0.00247910 0.00145435
v 0.00576483 0.00235334 0.00170508
v 0.00636063 0.00315639 0.00083043
v 0.00635861 0.00290360 0.00135496
v 0.00685319 0.00276252 0.00143768
v 0.00683166 0.00279380 0.00143768
v 0.00670061 0.00293360 0.00143768
v 0.00663935 0.00314490 0.00105037
v 0.00576483 0.00264315 0.00091379
v 0.00652215 0.00316851 0.00091635
v 0.00672331 0.00301978 0.00115297
v 0.00685319 0.00286274 0.00117221
v 0.00576483 0.00248612 0.00143961
v 0.00576483 0.00258379 0.00117413
v 0.00685319 0.00281678 0.00130302
f 1 2 3
f 1 3 4
f 1 4 5
f 1 5 6
f 1 6 7
f 1 7 8
f 1 8 2
f 2 9 3
f 2 8 17
f 2 17 29
f 2 29 40
f 2 40 60
f 2 60 59
f 2 59 72
f 2 72 83
f 2 83 93
f 2 93 95
f 2 95 107
f 2 107 123
f 2 123 138
f 2 138 150
f 2 150 162
f 2 162 170
f 2 170 178
f 2 178 182
f 2 182 192
f 2 192 205
f 2 205 221
f 2 221 232
f 2 232 244
f 2 244 259
f 2 259 258
f 2 258 276
f 2 276 275
f 2 275 274
f 2 274 273
f 2 273 294
f 2 294 307
f 2 307 306
f 2 306 319
f 2 319 336
f 2 336 356
f 2 356 355
f 2 355 367
f 2 367 368
f 2 368 363
f 2 363 340
f 2 340 324
f 2 324 323
f 2 323 322
f 2 322 321
f 2 321 309
f 2 309 308
f 2 308 295
f 2 295 277
f 2 277 260
f 2 260 245
f 2 245 233
f 2 233 222
f 2 222 209
f 2 209 196
f 2 196 195
f 2 195 186
f 2 186 183
f 2 183 172
f 2 172 164
f 2 164 156
f 2 156 155
f 2 155 152
f 2 152 151
f 2 151 139
f 2 139 128
f 2 128 127
f 2 127 126
f 2 126 125
f 2 125 124
f 2 124 110
f 2 110 109
f 2 109 108
f 2 108 100
f 2 100 99
f 2 99 98
f 2 98 97
f 2 97 96
f 2 96 86
f 2 86 85
f 2 85 76
f 2 76 75
f 2 75 74
f 2 74 73
f 2 73 62
f 2 62 61
f 2 61 42
f 2 42 41
f 2 41 30
f 2 30 20
f 2 20 19
f 2 19 18
f 2 18 10
f 2 10 9
f 3 9 10
f 3 10 11
f 3 11 12
f 3 12 13
f 3 13 4
f 4 13 25
f 4 25 24
f 4 24 36
f 4 36 47
f 4 47 46
f 4 46 45
f 4 45 56
f 4 56 55
f 4 55 54
f 4 54 53
f 4 53 52
f 4 52 51
f 4 51 67
f 4 67 66
f 4 66 80
f 4 80 89
f 4 89 92
f 4 92 105
f 4 105 120
f 4 120 119
f 4 119 118
f 4 118 136
f 4 136 148
f 4 148 159
f 4 159 168
f 4 168 177
f 4 177 189
f 4 189 202
f 4 202 217
f 4 217 228
f 4 228 238
f 4 238 253
f 4 253 267
f 4 267 288
f 4 288 287
f 4 287 302
f 4 302 315
f 4 315 327
f 4 327 343
f 4 343 342
f 4 342 344
f 4 344 351
f 4 351 349
f 4 349 366
f 4 366 369
f 4 369 359
f 4 359 338
f 4 338 337
f 4 337 332
f 4 332 331
f 4 331 316
f 4 316 303
f 4 303 289
f 4 289 269
f 4 269 268
f 4 268 254
f 4 254 241
f 4 241 240
f 4 240 239
f 4 239 230
f 4 230 229
f 4 229 219
f 4 219 203
f 4 203 190
f 4 190 179
f 4 179 171
f 4 171 163
f 4 163 149
f 4 149 137
f 4 137 121
f 4 121 106
f 4 106 94
f 4 94 84
f 4 84 71
f 4 71 70
f 4 70 69
f 4 69 57
f 4 57 38
f 4 38 26
f 4 26 15
f 4 15 14
f 4 14 6
f 4 6 5
f 6 14 7
f 7 14 15
f 7 15 16
f 7 16 8
f 8 16 17
f 10 18 11
f 11 18 19
f 11 19 20
f 11 20 21
f 11 21 12
f 12 21 22
f 12 22 23
f 12 23 24
f 12 24 25
f 12 25 13
f 15 26 27
f 15 27 16
f 16 27 28
f 16 28 17
f 17 28 29
f 20 30 31
f 20 31 21
f 21 31 32
f 21 32 22
f 22 33 23
f 22 32 34
f 22 34 35
f 22 35 33
f 23 33 36
f 23 36 24
f 26 37 27
f 26 38 37
f 27 37 39
f 27 39 28
f 28 39 40
f 28 40 29
f 30 41 31
f 31 41 42
f 31 42 43
f 31 43 32
f 32 43 44
f 32 44 34
f 33 45 46
f 33 46 47
f 33 47 36
f 33 35 45
f 34 44 48
f 34 48 35
f 35 48 49
f 35 49 50
f 35 50 51
f 35 51 52
f 35 52 53
f 35 53 54
f 35 54 55
f 35 55 56
f 35 56 45
f 37 38 57
f 37 57 58
f 37 58 39
f 39 58 59
f 39 59 60
f 39 60 40
f 42 61 43
f 43 61 62
f 43 62 44
f 44 62 63
f 44 63 64
f 44 64 65
f 44 65 49
f 44 49 48
f 49 65 50
f 50 66 67
f 50 67 51
f 50 65 68
f 50 68 66
f 57 69 58
f 58 69 70
f 58 70 71
f 58 71 72
f 58 72 59
f 62 73 63
f 63 73 74
f 63 74 64
f 64 75 76
f 64 76 77
f 64 77 78
f 64 78 79
f 64 79 65
f 64 74 75
f 65 79 68
f 66 68 80
f 68 79 81
f 68 81 82
f 68 82 80
f 71 83 72
f 71 84 83
f 76 85 77
f 77 85 86
f 77 86 78
f 78 86 87
f 78 87 88
f 78 88 81
f 78 81 79
f 80 82 89
f 81 88 90
f 81 90 91
f 81 91 82
f 82 91 92
f 82 92 89
f 83 84 93
f 84 94 95
f 84 95 93
f 86 96 87
f 87 96 97
f 87 97 98
f 87 98 99
f 87 99 88
f 88 99 100
f 88 100 101
f 88 101 102
f 88 102 103
f 88 103 90
f 90 103 91
f 91 103 104
f 91 104 92
f 92 104 105
f 94 106 95
f 95 106 107
f 100 108 102
f 100 102 101
f 102 108 109
f 102 109 110
f 102 110 111
f 102 111 112
f 102 112 113
f 102 113 114
f 102 114 115
f 102 115 103
f 103 115 114
f 103 114 104
f 104 114 133
f 104 133 116
f 104 116 117
f 104 117 118
f 104 118 119
f 104 119 120
f 104 120 105
f 106 121 122
f 106 122 107
f 107 122 123
f 110 124 111
f 111 124 112
f 112 125 126
f 112 126 127
f 112 127 128
f 112 128 129
f 112 129 130
f 112 130 131
f 112 131 132
f 112 132 133
f 112 133 113
f 112 124 125
f 113 133 114
f 116 133 132
f 116 132 134
f 116 134 135
f 116 135 118
f 116 118 117
f 118 135 136
f 121 137 122
f 122 138 123
f 122 137 138
f 128 139 129
f 129 140 130
f 129 139 140
f 130 141 142
f 130 142 143
f 130 143 131
f 130 140 144
f 130 144 141
f 131 143 132
f 132 143 145
f 132 145 134
f 134 145 146
f 134 146 135
f 135 146 147
f 135 147 136
f 136 147 148
f 137 149 150
f 137 150 138
f 139 151 140
f 140 151 152
f 140 152 144
f 141 153 154
f 141 154 142
f 141 144 152
f 141 152 155
f 141 155 156
f 141 156 153
f 142 154 157
f 142 157 143
f 143 157 145
f 145 157 158
f 145 158 147
f 145 147 146
f 147 158 148
f 148 158 160
f 148 160 161
f 148 161 159
f 149 162 150
f 149 163 162
f 153 156 164
f 153 164 165
f 153 165 166
f 153 166 154
f 154 166 167
f 154 167 157
f 157 167 161
f 157 161 160
f 157 160 158
f 159 161 169
f 159 169 168
f 161 167 169
f 162 163 170
f 163 171 170
f 164 172 165
f 165 173 174
f 165 174 166
f 165 172 173
f 166 175 167
f 166 174 175
f 167 175 176
f 167 176 169
f 168 169 176
f 168 176 177
f 170 171 178
f 171 179 180
f 171 180 181
f 171 181 182
f 171 182 178
f 172 183 173
f 173 184 185
f 173 185 174
f 173 183 186
f 173 186 184
f 174 185 175
f 175 185 187
f 175 187 188
f 175 188 176
f 176 188 177
f 177 188 189
f 179 190 180
f 180 190 191
f 180 191 182
f 180 182 181
f 182 191 192
f 184 193 194
f 184 194 185
f 184 186 195
f 184 195 196
f 184 196 193
f 185 194 187
f 187 194 197
f 187 197 188
f 188 197 198
f 188 198 199
f 188 199 200
f 188 200 201
f 188 201 202
f 188 202 189
f 190 203 191
f 191 203 204
f 191 204 192
f 192 204 205
f 193 206 194
f 193 196 206
f 194 198 197
f 194 206 207
f 194 207 208
f 194 208 198
f 196 209 208
f 196 208 207
f 196 207 206
f 198 208 210
f 198 210 199
f 199 210 211
f 199 211 212
f 199 212 213
f 199 213 214
f 199 214 215
f 199 215 216
f 199 216 200
f 200 216 217
f 200 217 218
f 200 218 202
f 200 202 201
f 202 218 217
f 203 219 204
f 204 219 229
f 204 229 220
f 204 220 221
f 204 221 205
f 208 213 212
f 208 212 211
f 208 211 210
f 208 209 222
f 208 222 223
f 208 223 224
f 208 224 214
f 208 214 213
f 214 224 215
f 215 224 225
f 215 225 226
f 215 226 216
f 216 226 217
f 217 226 227
f 217 227 228
f 220 229 230
f 220 230 231
f 220 231 221
f 221 231 232
f 222 233 223
f 223 233 234
f 223 234 235
f 223 235 224
f 224 235 225
f 225 236 227
f 225 227 226
f 225 235 236
f 227 236 237
f 227 237 238
f 227 238 228
f 230 239 231
f 231 239 240
f 231 240 241
f 231 241 242
f 231 242 243
f 231 243 232
f 232 243 244
f 233 245 234
f 234 246 247
f 234 247 235
f 234 245 246
f 235 247 236
f 236 247 248
f 236 248 249
f 236 249 237
f 237 249 250
f 237 250 251
f 237 251 252
f 237 252 253
f 237 253 238
f 241 254 255
f 241 255 242
f 242 255 256
f 242 256 243
f 243 257 258
f 243 258 259
f 243 259 244
f 243 256 271
f 243 271 257
f 245 260 261
f 245 261 246
f 246 262 247
f 246 261 248
f 246 248 262
f 247 262 248
f 248 261 263
f 248 263 264
f 248 264 249
f 249 264 250
f 250 264 265
f 250 265 251
f 251 265 266
f 251 266 267
f 251 267 252
f 252 267 253
f 254 268 255
f 255 268 269
f 255 269 270
f 255 270 271
f 255 271 256
f 257 272 273
f 257 273 274
f 257 274 275
f 257 275 276
f 257 276 258
f 257 271 272
f 260 277 261
f 261 277 278
f 261 278 279
f 261 279 263
f 263 279 280
f 263 280 281
f 263 281 264
f 264 281 282
f 264 282 265
f 265 282 266
f 266 282 281
f 266 281 283
f 266 283 284
f 266 284 285
f 266 285 286
f 266 286 287
f 266 287 288
f 266 288 267
f 269 289 271
f 269 271 270
f 271 289 290
f 271 290 291
f 271 291 272
f 272 291 292
f 272 292 293
f 272 293 294
f 272 294 273
f 277 295 296
f 277 296 297
f 277 297 280
f 277 280 278
f 278 280 279
f 280 297 284
f 280 284 281
f 281 284 283
f 284 297 285
f 285 298 299
f 285 299 286
f 285 297 296
f 285 296 300
f 285 300 298
f 286 299 287
f 287 299 301
f 287 301 302
f 289 303 291
f 289 291 290
f 291 303 292
f 292 303 304
f 292 304 293
f 293 304 305
f 293 305 306
f 293 306 307
f 293 307 294
f 295 308 296
f 296 308 309
f 296 309 310
f 296 310 300
f 298 301 299
f 298 300 311
f 298 311 312
f 298 312 301
f 300 310 313
f 300 313 314
f 300 314 311
f 301 312 302
f 302 312 315
f 303 316 304
f 304 316 317
f 304 317 305
f 305 318 319
f 305 319 306
f 305 317 320
f 305 320 318
f 309 321 310
f 310 321 322
f 310 322 323
f 310 323 324
f 310 324 313
f 311 314 325
f 311 325 326
f 311 326 312
f 312 327 315
f 312 326 327
f 313 324 328
f 313 328 314
f 314 328 329
f 314 329 330
f 314 330 325
f 316 331 317
f 317 331 332
f 317 332 333
f 317 333 320
f 318 320 339
f 318 339 334
f 318 334 335
f 318 335 336
f 318 336 319
f 320 333 332
f 320 332 337
f 320 337 338
f 320 338 339
f 324 340 328
f 325 330 341
f 325 341 326
f 326 342 343
f 326 343 327
f 326 341 344
f 326 344 342
f 328 345 329
f 328 340 345
f 329 345 346
f 329 346 347
f 329 347 348
f 329 348 330
f 330 348 349
f 330 349 350
f 330 350 351
f 330 351 341
f 334 339 362
f 334 362 352
f 334 352 353
f 334 353 354
f 334 354 335
f 335 355 356
f 335 356 336
f 335 354 353
f 335 353 357
f 335 357 358
f 335 358 355
f 338 359 360
f 338 360 361
f 338 361 339
f 339 361 362
f 340 363 346
f 340 346 345
f 341 351 344
f 346 363 357
f 346 357 347
f 347 357 364
f 347 364 352
f 347 352 362
f 347 362 348
f 348 362 365
f 348 365 366
f 348 366 349
f 349 351 350
f 352 364 353
f 353 364 357
f 355 358 357
f 355 357 367
f 357 363 368
f 357 368 367
f 359 369 360
f 360 369 365
f 360 365 361
f 361 365 362
f 365 369 366

