# https://github.com/mikedh/trimesh
v 0.01208002 -0.00316694 0.00012804
v 0.01216757 -0.00316694 0.00012804
v 0.01209186 -0.00315876 0.00038950
v 0.01131298 -0.00297888 -0.00013343
v 0.01131298 -0.00297888 -0.00029629
v 0.01208808 -0.00316505 -0.00013343
v 0.01229838 -0.00304241 0.00012804
v 0.01215727 -0.00315876 0.00038950
v 0.01216637 -0.00316505 -0.00013343
v 0.01229718 -0.00304241 -0.00013343
v 0.01211521 -0.00314933 0.00056000
v 0.01131298 -0.00296253 0.00015349
v 0.01131298 -0.00297511 -0.00039553
v 0.01211504 -0.00315310 -0.00039553
v 0.01242920 -0.00291158 0.00012804
v 0.01228808 -0.00303109 0.00038950
v 0.01242903 -0.00291158 -0.00013343
v 0.01214508 -0.00314933 0.00056000
v 0.01215074 -0.00315310 -0.00039553
v 0.01228156 -0.00303109 -0.00039553
v 0.01241787 -0.00290026 -0.00039553
v 0.01215212 -0.00289586 0.00133994
v 0.01200585 -0.00294743 0.00117581
v 0.01200585 -0.00302480 0.00091371
v 0.01187384 -0.00288265 0.00131132
v 0.01131298 -0.00292731 0.00030426
v 0.01131298 -0.00295247 -0.00063791
v 0.01213529 -0.00314367 -0.00052976
v 0.01282147 -0.00251849 0.00012804
v 0.01282164 -0.00251849 -0.00013343
v 0.01241787 -0.00290026 0.00038950
v 0.01254886 -0.00276818 0.00038950
v 0.01240534 -0.00288768 0.00055236
v 0.01226577 -0.00301033 0.00064334
v 0.01222971 -0.00297574 0.00091371
v 0.01218508 -0.00292857 0.00117581
v 0.01213787 -0.00314367 -0.00052976
v 0.01240568 -0.00288831 -0.00055775
v 0.01267813 -0.00263673 -0.00039553
v 0.01200585 -0.00289334 0.00133549
v 0.01231589 -0.00279020 0.00117581
v 0.01243589 -0.00265937 0.00117581
v 0.01240551 -0.00262667 0.00132086
v 0.01225804 -0.00273988 0.00141819
v 0.01218027 -0.00266818 0.00169938
v 0.01214199 -0.00262478 0.00183870
v 0.01200585 -0.00271598 0.00169938
v 0.01200585 -0.00283485 0.00146654
v 0.01131298 -0.00273170 0.00093979
v 0.01131298 -0.00273736 0.00092516
v 0.01131298 -0.00282668 0.00065542
v 0.01131298 -0.00282793 0.00065161
v 0.01131298 -0.00290341 0.00038950
v 0.01186680 -0.00262981 0.00184888
v 0.01131298 -0.00294429 -0.00070598
v 0.01131298 -0.00293045 -0.00078614
v 0.01131298 -0.00290278 -0.00091910
v 0.01131298 -0.00285183 -0.00115194
v 0.01131298 -0.00284366 -0.00117993
v 0.01131298 -0.00282101 -0.00124355
v 0.01209049 -0.00291599 -0.00113413
v 0.01295091 -0.00238704 0.00012804
v 0.01267813 -0.00263736 0.00038950
v 0.01280911 -0.00250339 -0.00039553
v 0.01295074 -0.00238704 -0.00013343
v 0.01266576 -0.00262478 0.00054346
v 0.01238645 -0.00286819 0.00072668
v 0.01236070 -0.00284051 0.00091371
v 0.01248482 -0.00270969 0.00091371
v 0.01238594 -0.00286756 -0.00073207
v 0.01218285 -0.00291599 -0.00113413
v 0.01222714 -0.00295561 -0.00091910
v 0.01266576 -0.00262415 -0.00054758
v 0.01286405 -0.00229835 0.00091371
v 0.01294800 -0.00212413 0.00110202
v 0.01290576 -0.00207759 0.00127633
v 0.01236414 -0.00257824 0.00149581
v 0.01238697 -0.00234175 0.00181007
v 0.01219675 -0.00247698 0.00194049
v 0.01215641 -0.00238263 0.00212116
v 0.01200585 -0.00240590 0.00215424
v 0.01200585 -0.00253673 0.00198184
v 0.01200585 -0.00263107 0.00185079
v 0.01131298 -0.00246754 0.00143537
v 0.01185066 -0.00239647 0.00214597
v 0.01131298 -0.00274051 -0.00144330
v 0.01131298 -0.00259962 -0.00175376
v 0.01302302 -0.00222602 0.00012804
v 0.01300997 -0.00222602 0.00038950
v 0.01293787 -0.00237320 0.00038950
v 0.01293684 -0.00237257 -0.00039553
v 0.01300877 -0.00222602 -0.00039553
v 0.01302285 -0.00222602 -0.00013343
v 0.01292585 -0.00236062 0.00053392
v 0.01264516 -0.00260277 0.00071777
v 0.01290250 -0.00233672 0.00070886
v 0.01264448 -0.00260214 -0.00072252
v 0.01292465 -0.00235936 -0.00053485
v 0.01235813 -0.00283863 -0.00091910
v 0.01227023 -0.00269648 -0.00142549
v 0.01226903 -0.00280592 -0.00120538
v 0.01218491 -0.00265497 -0.00162716
v 0.01299315 -0.00198010 0.00118408
v 0.01295847 -0.00188890 0.00143728
v 0.01297632 -0.00216690 0.00091371
v 0.01292637 -0.00183796 0.00157342
v 0.01239383 -0.00208702 0.00208554
v 0.01220946 -0.00221722 0.00221404
v 0.01215624 -0.00212350 0.00237945
v 0.01200585 -0.00229206 0.00228529
v 0.01131298 -0.00222728 0.00169811
v 0.01184311 -0.00215432 0.00240935
v 0.01131298 -0.00256880 -0.00180274
v 0.01306662 -0.00196438 0.00038950
v 0.01306525 -0.00196438 0.00065161
v 0.01306662 -0.00196438 -0.00039553
v 0.01304842 -0.00196438 0.00091371
v 0.01298113 -0.00223986 0.00063316
v 0.01298010 -0.00223923 -0.00063664
v 0.01304757 -0.00196438 -0.00091910
v 0.01306490 -0.00196438 -0.00065763
v 0.01290216 -0.00233546 -0.00070980
v 0.01248362 -0.00270780 -0.00091910
v 0.01297546 -0.00216690 -0.00091910
v 0.01243521 -0.00265812 -0.00118120
v 0.01240534 -0.00262667 -0.00132625
v 0.01235933 -0.00257698 -0.00150056
v 0.01131298 -0.00240465 -0.00205657
v 0.01131298 -0.00233483 -0.00214246
v 0.01220826 -0.00241660 -0.00190516
v 0.01238302 -0.00233986 -0.00181356
v 0.01303057 -0.00170210 0.00143728
v 0.01295521 -0.00167820 0.00167648
v 0.01292516 -0.00157505 0.00183361
v 0.01219692 -0.00194362 0.00247424
v 0.01214216 -0.00184236 0.00262247
v 0.01200585 -0.00201218 0.00254549
v 0.01200585 -0.00216061 0.00241444
v 0.01131298 -0.00196375 0.00195767
v 0.01184345 -0.00188827 0.00265555
v 0.01306662 -0.00170210 0.00091371
v 0.01306645 -0.00144046 0.00143728
v 0.01306370 -0.00170210 0.00117581
v 0.01306662 -0.00170210 -0.00091910
v 0.01299246 -0.00197884 -0.00118820
v 0.01302903 -0.00170210 -0.00144330
v 0.01306336 -0.00170210 -0.00118120
v 0.01306628 -0.00144046 -0.00144330
v 0.01261461 -0.00256943 -0.00091910
v 0.01273735 -0.00243861 -0.00091910
v 0.01286834 -0.00229772 -0.00091910
v 0.01294731 -0.00212539 -0.00110550
v 0.01269598 -0.00239521 -0.00112967
v 0.01247572 -0.00248893 -0.00142549
v 0.01265684 -0.00235307 -0.00130398
v 0.01243658 -0.00240213 -0.00163925
v 0.01131298 -0.00212287 -0.00238611
v 0.01221598 -0.00216250 -0.00215900
v 0.01239074 -0.00208702 -0.00209029
v 0.01245289 -0.00216564 -0.00191534
v 0.01262748 -0.00204992 -0.00178366
v 0.01292516 -0.00183670 -0.00157817
v 0.01268259 -0.00212225 -0.00160935
v 0.01302988 -0.00144046 0.00169938
v 0.01295778 -0.00144046 0.00188578
v 0.01289461 -0.00128007 0.00207536
v 0.01217993 -0.00170210 0.00266636
v 0.01215298 -0.00134549 0.00289538
v 0.01208431 -0.00152034 0.00285149
v 0.01190954 -0.00159267 0.00289029
v 0.01200585 -0.00188136 0.00265046
v 0.01294834 -0.00110585 0.00212371
v 0.01131298 -0.00168072 0.00220132
v 0.01186096 -0.00159267 0.00289029
v 0.01306662 -0.00144046 0.00117581
v 0.01306662 -0.00091654 0.00169938
v 0.01306542 -0.00065426 0.00196148
v 0.01306387 -0.00117818 0.00169938
v 0.01306662 -0.00144046 -0.00118120
v 0.01295727 -0.00188702 -0.00144330
v 0.01295435 -0.00167883 -0.00168123
v 0.01302903 -0.00144046 -0.00170541
v 0.01306336 -0.00117818 -0.00170541
v 0.01306387 -0.00065426 -0.00196687
v 0.01306662 -0.00091654 -0.00170541
v 0.01290662 -0.00207633 -0.00127981
v 0.01262079 -0.00230905 -0.00144330
v 0.01131298 -0.00185683 -0.00263931
v 0.01220225 -0.00188765 -0.00239820
v 0.01229650 -0.00198702 -0.00225061
v 0.01237684 -0.00181028 -0.00234285
v 0.01245272 -0.00191217 -0.00216854
v 0.01292534 -0.00157568 -0.00183964
v 0.01269117 -0.00187507 -0.00187845
v 0.01286594 -0.00174990 -0.00175312
v 0.01286164 -0.00201784 -0.00144330
v 0.01304877 -0.00091654 0.00196148
v 0.01299332 -0.00118699 0.00197739
v 0.01218096 -0.00117818 0.00293037
v 0.01212036 -0.00074358 0.00313013
v 0.01206577 -0.00091654 0.00310596
v 0.01198508 -0.00115680 0.00305633
v 0.01200053 -0.00143606 0.00292719
v 0.01188379 -0.00105491 0.00314285
v 0.01297666 -0.00091654 0.00216633
v 0.01131298 -0.00115617 0.00246151
v 0.01182680 -0.00144046 0.00292656
v 0.01187040 -0.00105491 0.00314285
v 0.01306662 -0.00039262 0.00196148
v 0.01302439 -0.00013034 0.00222295
v 0.01301100 -0.00039262 0.00222295
v 0.01295727 -0.00144046 -0.00188990
v 0.01299212 -0.00118510 -0.00198214
v 0.01304619 -0.00091654 -0.00196687
v 0.01300825 -0.00039262 -0.00222898
v 0.01302078 -0.00013034 -0.00222898
v 0.01306662 -0.00039262 -0.00196687
v 0.01131298 -0.00155115 -0.00286515
v 0.01226268 -0.00169518 -0.00248853
v 0.01214851 -0.00158009 -0.00262658
v 0.01253186 -0.00170839 -0.00223407
v 0.01232311 -0.00149644 -0.00257951
v 0.01240448 -0.00132159 -0.00262849
v 0.01243641 -0.00163606 -0.00240456
v 0.01268242 -0.00160587 -0.00212464
v 0.01286147 -0.00144046 -0.00202095
v 0.01290662 -0.00127693 -0.00207884
v 0.01298182 -0.00063854 0.00223758
v 0.01289014 -0.00071527 0.00233428
v 0.01292688 -0.00054042 0.00235909
v 0.01214456 -0.00056873 0.00314921
v 0.01202216 -0.00065552 0.00318929
v 0.01193478 -0.00091654 0.00316257
v 0.01184276 -0.00091654 0.00316257
v 0.01131298 -0.00041212 0.00272934
v 0.01306662 0.00039232 0.00196148
v 0.01302370 0.00013067 0.00222295
v 0.01295229 -0.00013034 0.00238645
v 0.01293907 -0.00039262 0.00237181
v 0.01294679 -0.00110208 -0.00212782
v 0.01297409 -0.00091654 -0.00216663
v 0.01297958 -0.00063351 -0.00224043
v 0.01293632 -0.00039262 -0.00237466
v 0.01294868 -0.00013034 -0.00238802
v 0.01302078 0.00013067 -0.00222898
v 0.01306662 0.00039232 -0.00196687
v 0.01131298 -0.00154486 -0.00286896
v 0.01131538 -0.00154738 -0.00286706
v 0.01137049 -0.00084924 -0.00316415
v 0.01226765 -0.00117818 -0.00273919
v 0.01224843 -0.00142159 -0.00265076
v 0.01233959 -0.00072156 -0.00287024
v 0.01243435 -0.00117818 -0.00266030
v 0.01269564 -0.00112535 -0.00239820
v 0.01265632 -0.00130020 -0.00235494
v 0.01247469 -0.00142159 -0.00249171
v 0.01215006 -0.00039262 0.00315685
v 0.01200585 -0.00039262 0.00323192
v 0.01180088 -0.00065426 0.00319502
v 0.01166989 -0.00065426 0.00305443
v 0.01164379 -0.00039262 0.00309260
v 0.01131298 -0.00030079 0.00275352
v 0.01306542 0.00065459 0.00196148
v 0.01306662 0.00144016 0.00143728
v 0.01301031 0.00039232 0.00222295
v 0.01295160 0.00013067 0.00238517
v 0.01214903 -0.00013034 0.00315685
v 0.01286576 -0.00091654 -0.00229768
v 0.01289890 -0.00070710 -0.00233458
v 0.01292499 -0.00053225 -0.00236257
v 0.01280722 -0.00039262 -0.00250571
v 0.01282010 -0.00013034 -0.00251907
v 0.01294868 0.00013067 -0.00238802
v 0.01282027 0.00013067 -0.00251907
v 0.01300842 0.00039232 -0.00222898
v 0.01306490 0.00065459 -0.00196687
v 0.01306662 0.00091624 -0.00170541
v 0.01131298 -0.00107504 -0.00307826
v 0.01131298 -0.00087566 -0.00316669
v 0.01131298 -0.00077439 -0.00318959
v 0.01139315 -0.00065426 -0.00318705
v 0.01240328 -0.00054671 -0.00288805
v 0.01225838 -0.00090585 -0.00283906
v 0.01248190 -0.00091654 -0.00271056
v 0.01261289 -0.00091654 -0.00257060
v 0.01273478 -0.00091654 -0.00243955
v 0.01200585 -0.00013034 0.00324337
v 0.01175813 -0.00013034 0.00322619
v 0.01177478 -0.00039262 0.00321538
v 0.01162714 -0.00013034 0.00311868
v 0.01131298 -0.00013034 0.00278978
v 0.01304860 0.00091624 0.00196148
v 0.01306370 0.00117851 0.00169938
v 0.01306662 0.00170243 0.00091371
v 0.01306508 0.00196408 0.00065161
v 0.01306370 0.00170243 0.00117581
v 0.01303057 0.00170243 0.00143728
v 0.01303074 0.00144016 0.00169938
v 0.01298182 0.00063824 0.00223758
v 0.01293838 0.00039232 0.00237118
v 0.01214336 0.00007532 0.00314985
v 0.01203126 0.00014954 0.00321538
v 0.01264259 -0.00071276 -0.00260304
v 0.01252293 -0.00062973 -0.00274809
v 0.01266422 -0.00053854 -0.00262595
v 0.01267624 -0.00039262 -0.00263803
v 0.01255916 -0.00013034 -0.00278181
v 0.01293632 0.00039232 -0.00237466
v 0.01280791 0.00039232 -0.00250571
v 0.01255898 0.00013067 -0.00278181
v 0.01254731 0.00039232 -0.00276972
v 0.01267692 0.00039232 -0.00263867
v 0.01298027 0.00063446 -0.00224170
v 0.01304705 0.00091624 -0.00196687
v 0.01306336 0.00117851 -0.00170541
v 0.01306628 0.00144016 -0.00144330
v 0.01306662 0.00117851 -0.00144330
v 0.01131298 -0.00065426 -0.00320677
v 0.01131298 -0.00053288 -0.00322331
v 0.01131298 -0.00039262 -0.00323858
v 0.01141461 -0.00039262 -0.00320932
v 0.01241547 -0.00039262 -0.00289950
v 0.01254645 -0.00039262 -0.00276845
v 0.01199212 0.00039232 0.00321601
v 0.01174663 0.00039232 0.00321601
v 0.01174817 0.00013067 0.00322683
v 0.01161719 0.00013067 0.00313395
v 0.01131298 -0.00000204 0.00279805
v 0.01299332 0.00118606 0.00197675
v 0.01297666 0.00091624 0.00216633
v 0.01306662 0.00196408 0.00038950
v 0.01304825 0.00196408 0.00091371
v 0.01302302 0.00222635 0.00012804
v 0.01300963 0.00222635 0.00038950
v 0.01299315 0.00197980 0.00118345
v 0.01295847 0.00188923 0.00143728
v 0.01295606 0.00167979 0.00167648
v 0.01295881 0.00144016 0.00188642
v 0.01292688 0.00054012 0.00235909
v 0.01213547 0.00025017 0.00313840
v 0.01242817 -0.00013034 -0.00291095
v 0.01292516 0.00053383 -0.00236257
v 0.01266525 0.00054264 -0.00262658
v 0.01242800 0.00013067 -0.00291032
v 0.01241632 0.00039232 -0.00289950
v 0.01240465 0.00054767 -0.00288869
v 0.01297512 0.00091624 -0.00216918
v 0.01299212 0.00118480 -0.00198214
v 0.01302920 0.00144016 -0.00170541
v 0.01302903 0.00170243 -0.00144330
v 0.01306336 0.00170243 -0.00118120
v 0.01306490 0.00196408 -0.00065763
v 0.01306662 0.00170243 -0.00091910
v 0.01142886 -0.00013034 -0.00322268
v 0.01131298 -0.00013034 -0.00325512
v 0.01196190 0.00065459 0.00319502
v 0.01175693 0.00065459 0.00319502
v 0.01162594 0.00065459 0.00312949
v 0.01161564 0.00039232 0.00313713
v 0.01131298 0.00026024 0.00280059
v 0.01294817 0.00110429 0.00212371
v 0.01287006 0.00091624 0.00229738
v 0.01290319 0.00071497 0.00233428
v 0.01306662 0.00196408 -0.00039553
v 0.01298079 0.00224019 0.00063252
v 0.01297632 0.00216849 0.00091371
v 0.01295109 0.00238799 0.00012804
v 0.01302061 0.00222635 -0.00013343
v 0.01293752 0.00237290 0.00038950
v 0.01294800 0.00212635 0.00110138
v 0.01292637 0.00183829 0.00157406
v 0.01290765 0.00207729 0.00127633
v 0.01292654 0.00157727 0.00183552
v 0.01290662 0.00127852 0.00207409
v 0.01209289 0.00065459 0.00308369
v 0.01212311 0.00039232 0.00312186
v 0.01143693 0.00013067 -0.00322586
v 0.01290164 0.00070805 -0.00233776
v 0.01264379 0.00071749 -0.00260432
v 0.01252431 0.00063258 -0.00274746
v 0.01143641 0.00039232 -0.00321822
v 0.01142216 0.00065459 -0.00319786
v 0.01138199 0.00091624 -0.00316542
v 0.01135229 0.00104895 -0.00314633
v 0.01240276 0.00131562 -0.00262531
v 0.01243298 0.00117851 -0.00265394
v 0.01248293 0.00091624 -0.00270483
v 0.01294679 0.00110241 -0.00212782
v 0.01286765 0.00091624 -0.00230023
v 0.01295744 0.00144016 -0.00188990
v 0.01295452 0.00167853 -0.00168123
v 0.01295727 0.00188734 -0.00144330
v 0.01299246 0.00197917 -0.00118820
v 0.01304757 0.00196408 -0.00091910
v 0.01300671 0.00222635 -0.00039553
v 0.01131298 0.00013067 -0.00325576
v 0.01191315 0.00091624 0.00316321
v 0.01181083 0.00091624 0.00316321
v 0.01167985 0.00091624 0.00310914
v 0.01159727 0.00144016 0.00289920
v 0.01157186 0.00117851 0.00294182
v 0.01131298 0.00077409 0.00274843
v 0.01131298 0.00051937 0.00278532
v 0.01280190 0.00119675 0.00223313
v 0.01269735 0.00111499 0.00238326
v 0.01273924 0.00091624 0.00241762
v 0.01292551 0.00236032 0.00053264
v 0.01290319 0.00233642 0.00070695
v 0.01286954 0.00229931 0.00091371
v 0.01282233 0.00251881 0.00012804
v 0.01294851 0.00238548 -0.00013343
v 0.01282147 0.00251630 -0.00013343
v 0.01280757 0.00250435 0.00038950
v 0.01269667 0.00239554 0.00112492
v 0.01280224 0.00223956 0.00120062
v 0.01286319 0.00202005 0.00143728
v 0.01268362 0.00212069 0.00160077
v 0.01277546 0.00194269 0.00167457
v 0.01269272 0.00187225 0.00186733
v 0.01286731 0.00175212 0.00174900
v 0.01273220 0.00217729 0.00143728
v 0.01277546 0.00167664 0.00193858
v 0.01268362 0.00160180 0.00211416
v 0.01286250 0.00144016 0.00201747
v 0.01273152 0.00144016 0.00216506
v 0.01273667 0.00091624 -0.00244082
v 0.01261392 0.00091624 -0.00257187
v 0.01131298 0.00039232 -0.00323731
v 0.01131298 0.00091624 -0.00316542
v 0.01134869 0.00104895 -0.00314633
v 0.01138113 0.00159362 -0.00289632
v 0.01143693 0.00189929 -0.00266984
v 0.01243675 0.00162067 -0.00239565
v 0.01247401 0.00141751 -0.00248599
v 0.01265667 0.00130053 -0.00235557
v 0.01258096 0.00119927 -0.00248790
v 0.01269564 0.00112568 -0.00239820
v 0.01290662 0.00127663 -0.00207884
v 0.01292534 0.00157538 -0.00183964
v 0.01292516 0.00183703 -0.00157817
v 0.01290645 0.00207603 -0.00127981
v 0.01294731 0.00212509 -0.00110550
v 0.01297563 0.00216723 -0.00091910
v 0.01298027 0.00223956 -0.00063664
v 0.01293460 0.00237038 -0.00039553
v 0.01188019 0.00105524 0.00314285
v 0.01186199 0.00105524 0.00314285
v 0.01161255 0.00157224 0.00287821
v 0.01131298 0.00100932 0.00268354
v 0.01189392 0.00159677 0.00289284
v 0.01193461 0.00144016 0.00293164
v 0.01266336 0.00262196 0.00053328
v 0.01278319 0.00248108 0.00061980
v 0.01267658 0.00263517 0.00038950
v 0.01273855 0.00243831 0.00091371
v 0.01269134 0.00264964 0.00012804
v 0.01269049 0.00264901 -0.00013343
v 0.01280774 0.00250120 -0.00039553
v 0.01267675 0.00263580 -0.00039553
v 0.01184809 0.00286914 0.00153843
v 0.01189341 0.00264461 0.00187178
v 0.01190972 0.00241189 0.00215933
v 0.01191607 0.00216471 0.00241635
v 0.01191675 0.00189552 0.00266254
v 0.01131298 0.00096844 -0.00315779
v 0.01131298 0.00108480 -0.00311135
v 0.01131298 0.00156469 -0.00290395
v 0.01132362 0.00159362 -0.00289632
v 0.01131298 0.00189929 -0.00266984
v 0.01148191 0.00218107 -0.00243382
v 0.01253203 0.00170054 -0.00222707
v 0.01268225 0.00160620 -0.00212464
v 0.01262061 0.00144016 -0.00231104
v 0.01245272 0.00189363 -0.00215454
v 0.01273049 0.00144016 -0.00217999
v 0.01286147 0.00144016 -0.00202095
v 0.01262748 0.00178042 -0.00205276
v 0.01269152 0.00187539 -0.00187845
v 0.01286611 0.00175023 -0.00175312
v 0.01268276 0.00212194 -0.00160935
v 0.01286164 0.00201817 -0.00144330
v 0.01262765 0.00205024 -0.00178429
v 0.01265649 0.00235277 -0.00130462
v 0.01273066 0.00217792 -0.00144330
v 0.01269598 0.00239554 -0.00112967
v 0.01286834 0.00229805 -0.00091910
v 0.01290216 0.00233579 -0.00071044
v 0.01292482 0.00235969 -0.00053549
v 0.01174388 0.00159111 0.00288966
v 0.01174388 0.00172193 0.00280759
v 0.01174388 0.00191942 0.00267654
v 0.01158663 0.00188609 0.00264982
v 0.01131298 0.00150683 0.00243798
v 0.01131298 0.00132883 0.00253086
v 0.01174388 0.00205024 0.00257857
v 0.01171178 0.00319683 0.00065161
v 0.01179366 0.00309116 0.00091371
v 0.01188706 0.00289870 0.00136348
v 0.01172465 0.00321758 0.00038950
v 0.01172517 0.00322828 0.00012804
v 0.01170268 0.00321695 -0.00039553
v 0.01171761 0.00322765 -0.00013343
v 0.01266474 0.00262322 -0.00054312
v 0.01166268 0.00316475 0.00091371
v 0.01162045 0.00314525 0.00105049
v 0.01167332 0.00289493 0.00159314
v 0.01175401 0.00281379 0.00168793
v 0.01174388 0.00267480 0.00191250
v 0.01174388 0.00258108 0.00204355
v 0.01174388 0.00244963 0.00220005
v 0.01174388 0.00233453 0.00233110
v 0.01174388 0.00220371 0.00244752
v 0.01131298 0.00160306 -0.00288105
v 0.01131298 0.00217478 -0.00243064
v 0.01148191 0.00231252 -0.00232186
v 0.01163607 0.00239994 -0.00214309
v 0.01245289 0.00214459 -0.00189689
v 0.01254027 0.00197225 -0.00197451
v 0.01252791 0.00222069 -0.00169586
v 0.01261426 0.00230874 -0.00144330
v 0.01254010 0.00249554 -0.00119520
v 0.01242817 0.00237793 -0.00160744
v 0.01248328 0.00242133 -0.00144330
v 0.01259486 0.00256850 -0.00091910
v 0.01273735 0.00243768 -0.00091910
v 0.01263538 0.00260058 -0.00071743
v 0.01278336 0.00247982 -0.00062646
v 0.01157015 0.00217037 0.00241635
v 0.01152809 0.00196974 0.00249650
v 0.01131298 0.00183829 0.00222231
v 0.01131298 0.00175023 0.00228021
v 0.01131298 0.00160557 0.00237436
v 0.01148191 0.00324903 0.00012804
v 0.01151470 0.00319683 0.00065161
v 0.01148191 0.00325847 -0.00013343
v 0.01167847 0.00319620 -0.00065763
v 0.01148191 0.00324840 -0.00039553
v 0.01163916 0.00316349 -0.00091910
v 0.01157049 0.00316475 0.00091371
v 0.01160809 0.00314525 0.00105049
v 0.01159212 0.00289493 0.00159314
v 0.01156448 0.00266851 0.00189850
v 0.01156311 0.00242573 0.00216888
v 0.01131298 0.00241441 -0.00219335
v 0.01148191 0.00244208 -0.00219081
v 0.01163538 0.00264901 -0.00187845
v 0.01162079 0.00288864 -0.00158708
v 0.01242353 0.00263266 -0.00108578
v 0.01246388 0.00265467 -0.00091910
v 0.01150697 0.00224522 0.00224331
v 0.01137547 0.00225214 0.00198311
v 0.01131298 0.00210811 0.00198311
v 0.01132826 0.00317356 -0.00013343
v 0.01133616 0.00316349 0.00012804
v 0.01134440 0.00315217 0.00030744
v 0.01146062 0.00320815 0.00039269
v 0.01135916 0.00313330 0.00048175
v 0.01138371 0.00310689 0.00065161
v 0.01132603 0.00317419 -0.00039553
v 0.01148191 0.00321947 -0.00065763
v 0.01133959 0.00315469 -0.00084594
v 0.01133015 0.00316601 -0.00065763
v 0.01161409 0.00314400 -0.00105270
v 0.01143950 0.00305657 0.00091371
v 0.01154749 0.00293393 0.00143728
v 0.01137186 0.00284273 0.00123879
v 0.01152225 0.00275341 0.00168793
v 0.01150165 0.00250309 0.00197612
v 0.01140671 0.00275341 0.00145445
v 0.01135641 0.00260687 0.00155243
v 0.01137753 0.00250686 0.00172546
v 0.01131298 0.00242950 -0.00217808
v 0.01148191 0.00257290 -0.00204830
v 0.01148191 0.00280751 -0.00172895
v 0.01148191 0.00289430 -0.00159789
v 0.01148191 0.00267668 -0.00191725
v 0.01135109 0.00235654 0.00182980
v 0.01131298 0.00231189 0.00178463
v 0.01131298 0.00315406 -0.00039553
v 0.01131298 0.00315029 -0.00017096
v 0.01131298 0.00314903 -0.00013343
v 0.01131298 0.00313205 0.00007269
v 0.01131298 0.00312513 0.00012804
v 0.01131298 0.00310752 0.00025018
v 0.01131298 0.00308613 0.00035452
v 0.01131298 0.00306852 0.00042449
v 0.01131298 0.00301380 0.00061153
v 0.01132689 0.00292575 0.00091371
v 0.01134543 0.00289179 0.00106448
v 0.01160139 0.00314400 -0.00105270
v 0.01150131 0.00316664 -0.00092737
v 0.01142680 0.00313393 -0.00102025
v 0.01131298 0.00310374 -0.00087966
v 0.01131298 0.00313896 -0.00065763
v 0.01133907 0.00289179 -0.00159280
v 0.01131298 0.00292197 -0.00144330
v 0.01131298 0.00285279 0.00102313
v 0.01131298 0.00276662 0.00117263
v 0.01131298 0.00265341 0.00136157
v 0.01132671 0.00266851 0.00137811
v 0.01131298 0.00255341 0.00150026
v 0.01131298 0.00242762 0.00165040
v 0.01131298 0.00236409 0.00172546
v 0.01131298 0.00266222 -0.00190707
v 0.01131298 0.00266599 -0.00190198
v 0.01131298 0.00291065 0.00089399
v 0.01131298 0.00283266 -0.00163416
f 1 2 8
f 1 8 3
f 1 3 4
f 1 4 5
f 1 5 6
f 1 6 9
f 1 9 2
f 2 7 8
f 2 9 10
f 2 10 7
f 3 8 18
f 3 18 11
f 3 11 12
f 3 12 4
f 4 12 26
f 4 26 53
f 4 53 52
f 4 52 51
f 4 51 50
f 4 50 49
f 4 49 84
f 4 84 111
f 4 111 139
f 4 139 173
f 4 173 206
f 4 206 235
f 4 235 262
f 4 262 291
f 4 291 328
f 4 328 360
f 4 360 403
f 4 403 402
f 4 402 449
f 4 449 494
f 4 494 493
f 4 493 532
f 4 532 531
f 4 531 530
f 4 530 552
f 4 552 578
f 4 578 603
f 4 603 602
f 4 602 601
f 4 601 599
f 4 599 598
f 4 598 597
f 4 597 606
f 4 606 587
f 4 587 586
f 4 586 585
f 4 585 584
f 4 584 583
f 4 583 582
f 4 582 581
f 4 581 580
f 4 580 579
f 4 579 594
f 4 594 593
f 4 593 596
f 4 596 607
f 4 607 605
f 4 605 604
f 4 604 572
f 4 572 544
f 4 544 514
f 4 514 469
f 4 469 513
f 4 513 467
f 4 467 466
f 4 466 465
f 4 465 429
f 4 429 428
f 4 428 396
f 4 396 355
f 4 355 320
f 4 320 319
f 4 319 318
f 4 318 280
f 4 280 279
f 4 279 278
f 4 278 247
f 4 247 218
f 4 218 188
f 4 188 157
f 4 157 129
f 4 129 128
f 4 128 113
f 4 113 87
f 4 87 86
f 4 86 60
f 4 60 59
f 4 59 58
f 4 58 57
f 4 57 56
f 4 56 55
f 4 55 27
f 4 27 13
f 4 13 5
f 5 13 6
f 6 13 14
f 6 14 19
f 6 19 9
f 7 15 16
f 7 16 8
f 7 10 17
f 7 17 15
f 8 16 18
f 9 19 20
f 9 20 10
f 10 20 21
f 10 21 17
f 11 18 22
f 11 22 23
f 11 23 24
f 11 24 25
f 11 25 26
f 11 26 12
f 13 27 14
f 14 27 28
f 14 28 37
f 14 37 19
f 15 29 16
f 15 17 30
f 15 30 29
f 16 31 18
f 16 29 31
f 17 21 30
f 18 31 32
f 18 32 33
f 18 33 34
f 18 34 35
f 18 35 36
f 18 36 22
f 19 37 20
f 20 37 38
f 20 38 21
f 21 38 39
f 21 39 30
f 22 40 23
f 22 36 41
f 22 41 42
f 22 42 43
f 22 43 44
f 22 44 45
f 22 45 46
f 22 46 47
f 22 47 48
f 22 48 40
f 23 40 25
f 23 25 24
f 25 49 50
f 25 50 51
f 25 51 52
f 25 52 53
f 25 53 26
f 25 40 48
f 25 48 54
f 25 54 49
f 27 55 28
f 28 55 56
f 28 56 57
f 28 57 58
f 28 58 59
f 28 59 60
f 28 60 61
f 28 61 71
f 28 71 37
f 29 62 63
f 29 63 32
f 29 32 31
f 29 30 62
f 30 39 64
f 30 64 65
f 30 65 62
f 32 63 33
f 33 63 66
f 33 66 34
f 34 66 67
f 34 67 35
f 35 67 68
f 35 68 36
f 36 68 69
f 36 69 41
f 37 70 38
f 37 71 72
f 37 72 70
f 38 70 73
f 38 73 64
f 38 64 39
f 41 69 74
f 41 74 42
f 42 74 75
f 42 75 43
f 43 76 77
f 43 77 44
f 43 75 76
f 44 77 45
f 45 77 76
f 45 76 46
f 46 78 79
f 46 79 80
f 46 80 81
f 46 81 82
f 46 82 83
f 46 83 47
f 46 76 78
f 47 83 54
f 47 54 48
f 49 54 84
f 54 83 82
f 54 82 81
f 54 81 85
f 54 85 84
f 60 86 61
f 61 86 87
f 61 87 71
f 62 88 89
f 62 89 90
f 62 90 63
f 62 65 93
f 62 93 88
f 63 90 66
f 64 73 91
f 64 91 65
f 65 91 92
f 65 92 93
f 66 94 67
f 66 90 94
f 67 95 68
f 67 94 95
f 68 95 96
f 68 96 69
f 69 96 74
f 70 97 98
f 70 98 73
f 70 72 99
f 70 99 97
f 71 100 101
f 71 101 99
f 71 99 72
f 71 87 102
f 71 102 100
f 73 98 91
f 74 96 75
f 75 103 104
f 75 104 76
f 75 96 105
f 75 105 103
f 76 104 106
f 76 106 78
f 78 80 79
f 78 106 80
f 80 107 108
f 80 108 109
f 80 109 110
f 80 110 81
f 80 106 107
f 81 110 85
f 84 85 112
f 84 112 111
f 85 110 112
f 87 113 102
f 88 114 115
f 88 115 89
f 88 93 116
f 88 116 114
f 89 115 117
f 89 117 118
f 89 118 90
f 90 118 94
f 91 98 119
f 91 119 92
f 92 119 120
f 92 120 121
f 92 121 93
f 93 121 116
f 94 118 105
f 94 105 96
f 94 96 95
f 97 122 98
f 97 99 123
f 97 123 122
f 98 122 124
f 98 124 119
f 99 101 125
f 99 125 123
f 100 126 101
f 100 102 127
f 100 127 126
f 101 126 125
f 102 113 128
f 102 128 129
f 102 129 130
f 102 130 131
f 102 131 127
f 103 132 104
f 103 105 117
f 103 117 132
f 104 132 133
f 104 133 106
f 105 118 117
f 106 133 134
f 106 134 107
f 107 134 109
f 107 109 108
f 109 135 136
f 109 136 137
f 109 137 138
f 109 138 110
f 109 134 135
f 110 138 112
f 111 112 139
f 112 138 140
f 112 140 139
f 114 141 115
f 114 116 144
f 114 144 179
f 114 179 185
f 114 185 217
f 114 217 246
f 114 246 277
f 114 277 317
f 114 317 353
f 114 353 364
f 114 364 331
f 114 331 294
f 114 294 264
f 114 264 236
f 114 236 209
f 114 209 176
f 114 176 175
f 114 175 141
f 115 141 142
f 115 142 143
f 115 143 117
f 116 121 144
f 117 143 132
f 119 124 120
f 120 124 145
f 120 145 146
f 120 146 147
f 120 147 121
f 121 147 148
f 121 148 144
f 122 123 149
f 122 149 150
f 122 150 151
f 122 151 124
f 123 125 149
f 124 151 152
f 124 152 145
f 125 126 153
f 125 153 151
f 125 151 150
f 125 150 149
f 126 127 154
f 126 154 155
f 126 155 152
f 126 152 153
f 127 156 154
f 127 131 156
f 129 157 130
f 130 157 158
f 130 158 159
f 130 159 131
f 131 159 160
f 131 160 161
f 131 161 162
f 131 162 163
f 131 163 156
f 132 143 142
f 132 142 164
f 132 164 133
f 133 164 165
f 133 165 134
f 134 165 166
f 134 166 136
f 134 136 135
f 136 167 168
f 136 168 169
f 136 169 170
f 136 170 171
f 136 171 137
f 136 166 172
f 136 172 167
f 137 171 170
f 137 170 140
f 137 140 138
f 139 140 173
f 140 170 174
f 140 174 173
f 141 175 142
f 142 176 177
f 142 177 178
f 142 178 164
f 142 175 176
f 144 148 179
f 145 152 180
f 145 180 146
f 146 148 147
f 146 180 181
f 146 181 182
f 146 182 148
f 148 182 183
f 148 183 184
f 148 184 185
f 148 185 179
f 151 153 152
f 152 155 186
f 152 186 180
f 154 156 187
f 154 187 155
f 155 187 186
f 156 163 186
f 156 186 187
f 157 188 158
f 158 189 190
f 158 190 159
f 158 188 189
f 159 190 191
f 159 191 192
f 159 192 193
f 159 193 194
f 159 194 162
f 159 162 160
f 160 162 161
f 162 195 193
f 162 193 181
f 162 181 180
f 162 180 186
f 162 186 196
f 162 196 163
f 162 194 195
f 163 196 186
f 164 178 197
f 164 197 198
f 164 198 165
f 165 198 172
f 165 172 166
f 167 172 168
f 168 199 200
f 168 200 201
f 168 201 202
f 168 202 169
f 168 172 199
f 169 202 203
f 169 203 170
f 170 203 204
f 170 204 208
f 170 208 174
f 172 198 205
f 172 205 199
f 173 174 207
f 173 207 206
f 174 208 207
f 176 209 177
f 177 209 210
f 177 210 211
f 177 211 197
f 177 197 178
f 181 193 212
f 181 212 182
f 182 212 213
f 182 213 214
f 182 214 183
f 183 214 184
f 184 214 215
f 184 215 216
f 184 216 217
f 184 217 185
f 188 218 189
f 189 219 191
f 189 191 190
f 189 218 220
f 189 220 219
f 191 221 192
f 191 219 222
f 191 222 223
f 191 223 224
f 191 224 221
f 192 221 193
f 193 221 225
f 193 225 226
f 193 226 227
f 193 227 212
f 193 195 194
f 197 211 228
f 197 228 205
f 197 205 198
f 199 205 229
f 199 229 230
f 199 230 200
f 200 231 232
f 200 232 233
f 200 233 201
f 200 230 231
f 201 233 204
f 201 204 202
f 202 204 203
f 204 233 234
f 204 234 208
f 205 228 230
f 205 230 229
f 206 207 208
f 206 208 234
f 206 234 235
f 209 236 210
f 210 237 238
f 210 238 211
f 210 236 237
f 211 238 239
f 211 239 228
f 212 227 240
f 212 240 213
f 213 240 241
f 213 241 214
f 214 241 242
f 214 242 215
f 215 242 243
f 215 243 244
f 215 244 216
f 216 244 273
f 216 273 245
f 216 245 246
f 216 246 217
f 218 247 248
f 218 248 220
f 219 220 222
f 220 248 247
f 220 247 249
f 220 249 250
f 220 250 251
f 220 251 223
f 220 223 222
f 221 224 225
f 223 251 250
f 223 250 252
f 223 252 253
f 223 253 254
f 223 254 240
f 223 240 255
f 223 255 256
f 223 256 224
f 224 256 227
f 224 227 226
f 224 226 225
f 227 256 255
f 227 255 240
f 228 239 230
f 230 239 231
f 231 257 258
f 231 258 232
f 231 239 238
f 231 238 257
f 232 258 233
f 233 258 234
f 234 258 259
f 234 259 260
f 234 260 235
f 235 260 261
f 235 261 262
f 236 263 237
f 236 264 263
f 237 265 266
f 237 266 238
f 237 263 265
f 238 266 267
f 238 267 257
f 240 254 268
f 240 268 241
f 241 268 269
f 241 269 270
f 241 270 242
f 242 270 243
f 243 271 272
f 243 272 244
f 243 270 271
f 244 272 274
f 244 274 273
f 245 273 275
f 245 275 276
f 245 276 246
f 246 276 277
f 247 278 249
f 249 278 279
f 249 279 280
f 249 280 281
f 249 281 282
f 249 282 252
f 249 252 283
f 249 283 250
f 250 283 252
f 252 282 253
f 253 284 285
f 253 285 286
f 253 286 268
f 253 268 254
f 253 282 284
f 257 267 287
f 257 287 258
f 258 287 288
f 258 288 289
f 258 289 259
f 259 289 261
f 259 261 260
f 261 289 290
f 261 290 291
f 261 291 262
f 263 292 265
f 263 264 293
f 263 293 292
f 264 294 295
f 264 295 296
f 264 296 297
f 264 297 298
f 264 298 293
f 265 299 300
f 265 300 266
f 265 292 299
f 266 300 301
f 266 301 267
f 267 301 302
f 267 302 287
f 268 286 269
f 269 286 285
f 269 285 284
f 269 284 270
f 270 284 303
f 270 303 304
f 270 304 305
f 270 305 271
f 271 305 306
f 271 306 272
f 272 306 307
f 272 307 274
f 273 274 309
f 273 309 308
f 273 308 275
f 274 307 310
f 274 310 311
f 274 311 312
f 274 312 309
f 275 308 313
f 275 313 314
f 275 314 276
f 276 314 315
f 276 315 316
f 276 316 277
f 277 316 317
f 280 318 281
f 281 318 319
f 281 319 320
f 281 320 321
f 281 321 282
f 282 321 322
f 282 322 323
f 282 323 306
f 282 306 305
f 282 305 304
f 282 304 284
f 284 304 303
f 287 302 324
f 287 324 325
f 287 325 326
f 287 326 288
f 288 326 327
f 288 327 290
f 288 290 289
f 290 327 291
f 291 327 328
f 292 329 330
f 292 330 299
f 292 293 298
f 292 298 329
f 294 331 295
f 295 332 296
f 295 331 333
f 295 333 334
f 295 334 332
f 296 332 297
f 297 332 335
f 297 335 336
f 297 336 337
f 297 337 298
f 298 337 338
f 298 338 329
f 299 330 339
f 299 339 300
f 300 339 340
f 300 340 301
f 301 340 302
f 302 340 324
f 306 323 307
f 307 323 322
f 307 322 341
f 307 341 310
f 308 342 313
f 308 309 343
f 308 343 342
f 309 312 343
f 310 341 344
f 310 344 345
f 310 345 311
f 311 345 346
f 311 346 343
f 311 343 312
f 313 342 347
f 313 347 314
f 314 347 348
f 314 348 349
f 314 349 315
f 315 349 316
f 316 349 350
f 316 350 351
f 316 351 352
f 316 352 353
f 316 353 317
f 320 354 321
f 320 355 354
f 321 354 322
f 322 354 341
f 324 356 357
f 324 357 325
f 324 340 356
f 325 357 358
f 325 358 359
f 325 359 326
f 326 359 327
f 327 359 328
f 328 359 360
f 329 361 330
f 329 338 361
f 330 362 363
f 330 363 339
f 330 361 362
f 331 364 333
f 332 334 365
f 332 365 366
f 332 366 335
f 333 367 334
f 333 364 352
f 333 352 368
f 333 368 367
f 334 367 369
f 334 369 365
f 335 370 336
f 335 366 370
f 336 371 337
f 336 370 372
f 336 372 371
f 337 371 373
f 337 373 338
f 338 373 374
f 338 374 361
f 339 363 375
f 339 375 376
f 339 376 340
f 340 376 356
f 341 354 377
f 341 377 344
f 342 378 347
f 342 343 379
f 342 379 378
f 343 346 380
f 343 380 379
f 344 377 381
f 344 381 345
f 345 381 346
f 346 381 382
f 346 382 383
f 346 383 384
f 346 384 385
f 346 385 386
f 346 386 387
f 346 387 380
f 347 388 348
f 347 378 389
f 347 389 388
f 348 388 390
f 348 390 349
f 349 391 350
f 349 390 391
f 350 392 393
f 350 393 394
f 350 394 351
f 350 391 392
f 351 394 352
f 352 394 395
f 352 395 368
f 352 364 353
f 354 355 377
f 355 396 377
f 356 397 398
f 356 398 357
f 356 376 375
f 356 375 397
f 357 398 399
f 357 399 358
f 358 399 400
f 358 400 401
f 358 401 402
f 358 402 403
f 358 403 359
f 359 403 360
f 361 374 404
f 361 404 405
f 361 405 362
f 362 405 406
f 362 406 363
f 363 406 397
f 363 397 375
f 365 407 366
f 365 369 407
f 366 407 408
f 366 408 409
f 366 409 370
f 367 410 369
f 367 368 411
f 367 411 412
f 367 412 410
f 368 395 411
f 369 413 407
f 369 410 413
f 370 409 414
f 370 414 415
f 370 415 372
f 371 372 416
f 371 416 417
f 371 417 418
f 371 418 419
f 371 419 420
f 371 420 373
f 372 415 421
f 372 421 416
f 373 419 422
f 373 422 423
f 373 423 424
f 373 424 374
f 373 420 419
f 374 424 423
f 374 423 425
f 374 425 404
f 377 396 381
f 378 426 389
f 378 379 427
f 378 427 426
f 379 380 387
f 379 387 427
f 381 396 428
f 381 428 382
f 382 428 383
f 383 428 429
f 383 429 430
f 383 430 384
f 384 430 468
f 384 468 431
f 384 431 385
f 385 431 432
f 385 432 433
f 385 433 434
f 385 434 435
f 385 435 436
f 385 436 386
f 386 436 437
f 386 437 427
f 386 427 387
f 388 438 390
f 388 389 437
f 388 437 435
f 388 435 438
f 389 426 437
f 390 438 439
f 390 439 391
f 391 440 392
f 391 439 440
f 392 440 441
f 392 441 442
f 392 442 393
f 393 442 443
f 393 443 394
f 394 443 444
f 394 444 395
f 395 445 411
f 395 444 445
f 397 446 447
f 397 447 398
f 397 406 446
f 398 447 399
f 399 447 448
f 399 448 400
f 400 448 449
f 400 449 401
f 401 449 402
f 404 425 405
f 405 425 450
f 405 450 451
f 405 451 446
f 405 446 406
f 407 452 453
f 407 453 408
f 407 413 454
f 407 454 452
f 408 453 455
f 408 455 409
f 409 455 414
f 410 456 454
f 410 454 413
f 410 412 457
f 410 457 456
f 411 445 458
f 411 458 412
f 412 458 459
f 412 459 457
f 414 421 415
f 414 455 460
f 414 460 461
f 414 461 421
f 416 421 417
f 417 421 461
f 417 461 462
f 417 462 419
f 417 419 418
f 419 462 463
f 419 463 464
f 419 464 423
f 419 423 422
f 423 464 450
f 423 450 425
f 426 427 437
f 429 465 430
f 430 465 466
f 430 466 467
f 430 467 468
f 431 468 469
f 431 469 432
f 432 469 470
f 432 470 433
f 433 471 472
f 433 472 473
f 433 473 434
f 433 470 474
f 433 474 471
f 434 473 435
f 435 437 436
f 435 473 438
f 438 473 475
f 438 475 472
f 438 472 476
f 438 476 439
f 439 476 472
f 439 472 477
f 439 477 478
f 439 478 479
f 439 479 440
f 440 480 481
f 440 481 441
f 440 479 478
f 440 478 482
f 440 482 480
f 441 483 442
f 441 481 484
f 441 484 483
f 442 483 485
f 442 485 486
f 442 486 443
f 443 486 487
f 443 487 488
f 443 488 444
f 444 488 445
f 445 488 458
f 446 451 450
f 446 450 447
f 447 450 489
f 447 489 448
f 448 489 490
f 448 490 491
f 448 491 492
f 448 492 493
f 448 493 494
f 448 494 449
f 450 464 495
f 450 495 491
f 450 491 490
f 450 490 489
f 452 454 496
f 452 496 497
f 452 497 498
f 452 498 460
f 452 460 455
f 452 455 453
f 454 456 499
f 454 499 496
f 456 500 499
f 456 457 500
f 457 459 501
f 457 501 502
f 457 502 500
f 458 488 459
f 459 488 503
f 459 503 501
f 460 498 497
f 460 497 504
f 460 504 505
f 460 505 506
f 460 506 507
f 460 507 461
f 461 508 509
f 461 509 462
f 461 507 508
f 462 510 511
f 462 511 463
f 462 509 510
f 463 511 464
f 464 511 512
f 464 512 495
f 467 513 468
f 468 513 469
f 469 514 515
f 469 515 470
f 470 515 474
f 471 474 477
f 471 477 472
f 472 475 473
f 474 516 517
f 474 517 518
f 474 518 477
f 474 515 516
f 477 518 478
f 478 518 482
f 480 519 520
f 480 520 484
f 480 484 481
f 480 482 519
f 482 518 517
f 482 517 519
f 483 521 485
f 483 484 520
f 483 520 522
f 483 522 523
f 483 523 521
f 485 521 524
f 485 524 525
f 485 525 486
f 486 525 487
f 487 525 526
f 487 526 527
f 487 527 488
f 488 527 503
f 491 495 492
f 492 495 528
f 492 528 529
f 492 529 530
f 492 530 531
f 492 531 532
f 492 532 493
f 495 512 528
f 496 499 533
f 496 533 534
f 496 534 539
f 496 539 504
f 496 504 497
f 499 500 533
f 500 502 535
f 500 535 533
f 501 503 536
f 501 536 537
f 501 537 502
f 502 537 535
f 503 527 526
f 503 526 538
f 503 538 536
f 504 539 540
f 504 540 505
f 505 540 541
f 505 541 506
f 506 541 508
f 506 508 507
f 508 541 509
f 509 541 542
f 509 542 510
f 510 542 511
f 511 542 543
f 511 543 528
f 511 528 512
f 514 544 515
f 515 544 572
f 515 572 545
f 515 545 516
f 516 545 546
f 516 546 517
f 517 546 547
f 517 547 522
f 517 522 519
f 519 522 520
f 521 548 524
f 521 523 548
f 522 547 548
f 522 548 523
f 524 549 526
f 524 526 525
f 524 548 549
f 526 549 538
f 528 543 550
f 528 550 530
f 528 530 529
f 530 550 551
f 530 551 552
f 533 535 553
f 533 553 554
f 533 554 555
f 533 555 556
f 533 556 534
f 534 556 557
f 534 557 558
f 534 558 539
f 535 537 559
f 535 559 553
f 536 538 560
f 536 560 537
f 537 560 561
f 537 561 562
f 537 562 559
f 538 549 563
f 538 563 560
f 539 558 564
f 539 564 540
f 540 564 565
f 540 565 541
f 541 565 566
f 541 566 567
f 541 567 542
f 542 568 543
f 542 567 569
f 542 569 570
f 542 570 571
f 542 571 568
f 543 568 550
f 545 572 573
f 545 573 546
f 546 573 547
f 547 574 575
f 547 575 563
f 547 563 548
f 547 573 576
f 547 576 574
f 548 563 549
f 550 568 551
f 551 568 577
f 551 577 552
f 552 577 578
f 553 559 579
f 553 579 580
f 553 580 581
f 553 581 582
f 553 582 554
f 554 582 583
f 554 583 555
f 555 583 584
f 555 584 585
f 555 585 586
f 555 586 557
f 555 557 556
f 557 586 587
f 557 587 588
f 557 588 558
f 558 588 589
f 558 589 564
f 559 562 579
f 560 563 590
f 560 590 591
f 560 591 592
f 560 592 561
f 561 593 594
f 561 594 562
f 561 592 595
f 561 595 596
f 561 596 593
f 562 594 579
f 563 575 590
f 564 589 566
f 564 566 565
f 566 589 597
f 566 597 598
f 566 598 599
f 566 599 600
f 566 600 570
f 566 570 569
f 566 569 567
f 568 571 577
f 570 600 599
f 570 599 601
f 570 601 602
f 570 602 603
f 570 603 571
f 571 603 577
f 572 604 573
f 573 604 576
f 574 576 595
f 574 595 575
f 575 595 590
f 576 604 605
f 576 605 595
f 577 603 578
f 587 606 588
f 588 606 589
f 589 606 597
f 590 595 592
f 590 592 591
f 595 607 596
f 595 605 607

