# https://github.com/mikedh/trimesh
v 0.00833868 -0.00327384 0.00012751
v 0.00833868 -0.00326745 -0.00013383
v 0.00856750 -0.00322660 -0.00013383
v 0.00856039 -0.00322596 0.00012751
v 0.00833868 -0.00326043 0.00038950
v 0.00817139 -0.00317999 0.00065148
v 0.00816687 -0.00318957 0.00038950
v 0.00816881 -0.00319148 0.00012751
v 0.00817678 -0.00318318 -0.00013383
v 0.00819123 -0.00316467 -0.00039518
v 0.00833868 -0.00323873 -0.00039518
v 0.00855144 -0.00319595 -0.00065716
v 0.00856588 -0.00321702 -0.00039518
v 0.00903453 -0.00278099 -0.00026674
v 0.00903453 -0.00277907 -0.00014469
v 0.00854605 -0.00321383 0.00038950
v 0.00852363 -0.00319212 0.00065148
v 0.00833868 -0.00322979 0.00065148
v 0.00818638 -0.00316275 0.00086746
v 0.00805456 -0.00301209 0.00065148
v 0.00793351 -0.00286206 0.00035563
v 0.00804108 -0.00301209 0.00038950
v 0.00793351 -0.00286398 0.00009492
v 0.00793351 -0.00284738 -0.00013383
v 0.00793351 -0.00284291 -0.00018559
v 0.00793351 -0.00281610 -0.00039518
v 0.00793351 -0.00280269 -0.00047441
v 0.00793351 -0.00276949 -0.00065716
v 0.00820265 -0.00314935 -0.00055364
v 0.00832693 -0.00318957 -0.00064757
v 0.00841919 -0.00316403 -0.00091914
v 0.00850757 -0.00316403 -0.00091914
v 0.00863853 -0.00306380 -0.00091914
v 0.00868240 -0.00308295 -0.00065716
v 0.00903453 -0.00274396 -0.00052233
v 0.00903453 -0.00272800 0.00011793
v 0.00903453 -0.00248093 0.00118823
v 0.00849658 -0.00316722 0.00086426
v 0.00833868 -0.00317616 0.00090771
v 0.00812365 -0.00298464 0.00117545
v 0.00811287 -0.00303763 0.00093838
v 0.00793351 -0.00279631 0.00082081
v 0.00833868 -0.00314041 0.00103807
v 0.00819123 -0.00289398 0.00159143
v 0.00815846 -0.00292973 0.00143743
v 0.00793351 -0.00283780 0.00060867
v 0.00793351 -0.00274779 -0.00074726
v 0.00793351 -0.00269927 -0.00091147
v 0.00823175 -0.00312190 -0.00072873
v 0.00846554 -0.00314424 -0.00105397
v 0.00847330 -0.00314424 -0.00105397
v 0.00873274 -0.00288313 -0.00131851
v 0.00874373 -0.00290228 -0.00118113
v 0.00903453 -0.00270501 -0.00068272
v 0.00903453 -0.00222365 0.00170900
v 0.00847071 -0.00288185 0.00157034
v 0.00799258 -0.00279758 0.00117545
v 0.00801662 -0.00273502 0.00143871
v 0.00793351 -0.00274140 0.00102145
v 0.00833868 -0.00307848 0.00117545
v 0.00833868 -0.00289143 0.00158695
v 0.00833868 -0.00280078 0.00171794
v 0.00833868 -0.00266990 0.00190133
v 0.00815620 -0.00266735 0.00189814
v 0.00811998 -0.00275290 0.00168663
v 0.00833868 -0.00296038 0.00143743
v 0.00797943 -0.00255882 0.00169941
v 0.00819230 -0.00290994 -0.00110573
v 0.00793351 -0.00243497 -0.00141819
v 0.00821925 -0.00286270 -0.00128017
v 0.00828813 -0.00308359 -0.00091914
v 0.00839494 -0.00293229 -0.00144311
v 0.00844592 -0.00289398 -0.00159710
v 0.00850854 -0.00289398 -0.00159710
v 0.00868316 -0.00284993 -0.00149295
v 0.00873910 -0.00263032 -0.00185462
v 0.00903453 -0.00252243 -0.00129742
v 0.00903453 -0.00195297 0.00213073
v 0.00848235 -0.00263798 0.00185660
v 0.00833868 -0.00256329 0.00203232
v 0.00795485 -0.00260159 0.00152689
v 0.00793578 -0.00263734 0.00135245
v 0.00793351 -0.00269225 0.00117545
v 0.00796272 -0.00232325 0.00204383
v 0.00813733 -0.00242986 0.00217290
v 0.00793351 -0.00238198 0.00186938
v 0.00793351 -0.00247391 0.00169941
v 0.00793351 -0.00221280 -0.00168848
v 0.00824059 -0.00255435 -0.00176132
v 0.00841520 -0.00266671 -0.00190190
v 0.00826398 -0.00280908 -0.00144311
v 0.00860048 -0.00256967 -0.00203034
v 0.00860048 -0.00266352 -0.00189934
v 0.00903453 -0.00222174 -0.00178752
v 0.00903453 -0.00242028 -0.00151340
v 0.00875375 -0.00239539 -0.00214727
v 0.00903453 -0.00191275 0.00217226
v 0.00848311 -0.00238453 0.00212050
v 0.00833868 -0.00243241 0.00217354
v 0.00793351 -0.00257286 0.00150069
v 0.00793351 -0.00263160 0.00135628
v 0.00793351 -0.00264117 0.00132880
v 0.00793351 -0.00228622 0.00200932
v 0.00795626 -0.00207554 0.00233201
v 0.00793351 -0.00212278 0.00221827
v 0.00813087 -0.00217577 0.00242594
v 0.00793351 -0.00194914 -0.00195174
v 0.00840960 -0.00242731 -0.00217666
v 0.00860048 -0.00232580 -0.00232427
v 0.00860048 -0.00243816 -0.00219328
v 0.00903453 -0.00196574 -0.00208657
v 0.00876259 -0.00215087 -0.00241181
v 0.00903453 -0.00167654 0.00238952
v 0.00833868 -0.00229771 0.00230453
v 0.00793351 -0.00186551 0.00248984
v 0.00793351 -0.00204809 0.00230453
v 0.00795906 -0.00180996 0.00259591
v 0.00827961 -0.00190126 0.00266556
v 0.00813367 -0.00190126 0.00266556
v 0.00793351 -0.00117985 -0.00248913
v 0.00843320 -0.00189296 -0.00266357
v 0.00841714 -0.00217258 -0.00242651
v 0.00860048 -0.00219492 -0.00244887
v 0.00880959 -0.00196893 -0.00249616
v 0.00876195 -0.00188466 -0.00265974
v 0.00903453 -0.00169122 -0.00233002
v 0.00903453 -0.00117858 0.00270326
v 0.00823445 -0.00159673 0.00289304
v 0.00833868 -0.00216683 0.00241635
v 0.00793351 -0.00178060 0.00256652
v 0.00799226 -0.00151502 0.00284128
v 0.00793621 -0.00134073 0.00289240
v 0.00793351 -0.00161589 0.00269495
v 0.00816687 -0.00159673 0.00289304
v 0.00793351 -0.00065699 -0.00272555
v 0.00846295 -0.00158333 -0.00289041
v 0.00860048 -0.00191658 -0.00268146
v 0.00860048 -0.00204809 -0.00257986
v 0.00874384 -0.00158971 -0.00289488
v 0.00879471 -0.00168739 -0.00274919
v 0.00899842 -0.00132413 -0.00263226
v 0.00903453 -0.00141032 -0.00250702
v 0.00891080 -0.00142309 -0.00273258
v 0.00903453 -0.00091619 0.00281380
v 0.00821246 -0.00105472 0.00314288
v 0.00807848 -0.00143266 0.00292946
v 0.00801802 -0.00099280 0.00311476
v 0.00793729 -0.00081787 0.00314927
v 0.00793351 -0.00132158 0.00289751
v 0.00793351 -0.00134648 0.00288345
v 0.00819263 -0.00105472 0.00314288
v 0.00793351 -0.00046866 -0.00277347
v 0.00846694 -0.00080064 -0.00314856
v 0.00855015 -0.00097556 -0.00312619
v 0.00872476 -0.00105026 -0.00314664
v 0.00860048 -0.00159418 -0.00289680
v 0.00860048 -0.00172505 -0.00281245
v 0.00873306 -0.00105026 -0.00314664
v 0.00877768 -0.00144032 -0.00293003
v 0.00903453 -0.00117538 -0.00265271
v 0.00895466 -0.00117858 -0.00280606
v 0.00903453 -0.00063337 0.00292562
v 0.00903453 -0.00039269 0.00298441
v 0.00823876 -0.00091619 0.00316269
v 0.00807676 -0.00065444 0.00322147
v 0.00903453 -0.00044313 0.00297355
v 0.00809390 -0.00090981 0.00316397
v 0.00807676 -0.00039269 0.00326237
v 0.00793351 -0.00077957 0.00315374
v 0.00793351 -0.00082490 0.00313968
v 0.00793351 -0.00039269 -0.00279201
v 0.00846187 -0.00065444 -0.00315495
v 0.00860048 -0.00039269 -0.00323482
v 0.00860048 -0.00065444 -0.00320734
v 0.00862269 -0.00089959 -0.00316389
v 0.00793351 -0.00018457 -0.00281565
v 0.00793351 -0.00013094 -0.00282076
v 0.00876011 -0.00091619 -0.00316581
v 0.00880614 -0.00115368 -0.00301948
v 0.00897978 -0.00099088 -0.00285718
v 0.00903453 -0.00092640 -0.00278306
v 0.00903453 -0.00017372 0.00302531
v 0.00827174 -0.00065444 0.00319400
v 0.00903453 -0.00013094 0.00303297
v 0.00807676 -0.00013094 0.00328282
v 0.00793351 -0.00013094 0.00322595
v 0.00793351 -0.00039269 0.00320486
v 0.00793351 -0.00063337 0.00317547
v 0.00845745 -0.00039269 -0.00316198
v 0.00860048 -0.00013094 -0.00324441
v 0.00793351 0.00008739 -0.00283162
v 0.00884666 -0.00013094 -0.00322971
v 0.00882985 -0.00039269 -0.00321885
v 0.00880301 -0.00065444 -0.00319776
v 0.00893397 -0.00065444 -0.00305782
v 0.00890336 -0.00090853 -0.00299712
v 0.00900090 -0.00081596 -0.00289744
v 0.00903453 -0.00088044 -0.00280415
v 0.00903453 0.00012187 0.00306045
v 0.00807676 0.00013080 0.00328346
v 0.00793351 0.00013080 0.00323234
v 0.00903453 0.00013080 0.00306109
v 0.00903453 0.00039255 0.00306428
v 0.00845918 -0.00013094 -0.00316070
v 0.00793351 0.00035169 -0.00283290
v 0.00857612 0.00014166 -0.00321757
v 0.00861741 0.00039255 -0.00321885
v 0.00885701 0.00039255 -0.00321885
v 0.00885593 0.00013080 -0.00322971
v 0.00898700 0.00013080 -0.00313706
v 0.00897762 -0.00013094 -0.00312236
v 0.00896081 -0.00039269 -0.00309616
v 0.00901696 -0.00065444 -0.00292683
v 0.00903453 -0.00065444 -0.00289680
v 0.00807676 0.00039255 0.00326365
v 0.00793351 0.00039255 0.00322403
v 0.00903453 0.00065430 0.00303745
v 0.00793351 0.00060770 -0.00281884
v 0.00864812 0.00065430 -0.00319776
v 0.00793351 0.00085923 -0.00278562
v 0.00884548 0.00065430 -0.00319776
v 0.00897644 0.00065430 -0.00313258
v 0.00898797 0.00039255 -0.00313961
v 0.00903453 0.00039255 -0.00306166
v 0.00903453 0.00013080 -0.00305591
v 0.00903453 -0.00005178 -0.00303546
v 0.00903453 -0.00013094 -0.00302587
v 0.00903453 -0.00039269 -0.00297284
v 0.00807676 0.00065430 0.00322403
v 0.00793351 0.00101117 0.00314927
v 0.00793351 0.00091605 0.00316333
v 0.00793351 0.00065430 0.00320103
v 0.00903453 0.00091669 0.00297866
v 0.00869760 0.00091669 -0.00316581
v 0.00793351 0.00108970 -0.00271852
v 0.00872972 0.00105011 -0.00314664
v 0.00878684 0.00091669 -0.00316581
v 0.00891780 0.00091669 -0.00311150
v 0.00901298 0.00139102 -0.00291022
v 0.00903302 0.00117843 -0.00294472
v 0.00903453 0.00115609 -0.00294792
v 0.00903453 0.00091669 -0.00299648
v 0.00903453 0.00065430 -0.00304313
v 0.00806038 0.00091477 0.00316524
v 0.00796218 0.00105458 0.00314288
v 0.00794138 0.00105458 0.00314288
v 0.00903453 0.00124164 0.00290262
v 0.00793351 0.00106352 0.00313138
v 0.00793351 0.00115737 -0.00269232
v 0.00873586 0.00105011 -0.00314664
v 0.00793351 0.00130995 -0.00262843
v 0.00793351 0.00142486 -0.00257795
v 0.00871474 0.00159340 -0.00289680
v 0.00898484 0.00156531 -0.00288146
v 0.00903453 0.00150977 -0.00282459
v 0.00903453 0.00141528 -0.00286485
v 0.00903453 0.00136102 -0.00288594
v 0.00903453 0.00117588 -0.00294344
v 0.00903453 0.00141975 0.00284064
v 0.00799032 0.00159723 0.00289304
v 0.00793351 0.00159723 0.00289304
v 0.00881023 0.00159340 -0.00289680
v 0.00793351 0.00162788 -0.00247699
v 0.00793351 0.00180025 -0.00237794
v 0.00793351 0.00187111 -0.00233385
v 0.00793351 0.00192920 -0.00229424
v 0.00793351 0.00196432 -0.00226996
v 0.00869070 0.00189537 -0.00266676
v 0.00886251 0.00204859 -0.00258306
v 0.00886251 0.00191771 -0.00267954
v 0.00888353 0.00168916 -0.00282395
v 0.00901933 0.00188388 -0.00265398
v 0.00903453 0.00179067 -0.00268274
v 0.00903453 0.00185068 0.00262850
v 0.00903453 0.00189218 0.00259910
v 0.00802308 0.00190048 0.00266556
v 0.00793351 0.00190048 0.00266556
v 0.00793351 0.00222670 -0.00206804
v 0.00869016 0.00216350 -0.00242267
v 0.00886251 0.00233204 -0.00233385
v 0.00886251 0.00220117 -0.00245207
v 0.00793351 0.00227714 -0.00202459
v 0.00903453 0.00216797 -0.00242076
v 0.00903453 0.00190622 -0.00261373
v 0.00903453 0.00186728 -0.00263801
v 0.00903453 0.00215329 0.00240166
v 0.00903453 0.00220436 0.00235757
v 0.00802588 0.00217627 0.00242530
v 0.00793351 0.00216989 0.00241955
v 0.00886251 0.00244696 -0.00220286
v 0.00903453 0.00266721 -0.00190254
v 0.00903453 0.00242525 -0.00217411
v 0.00793351 0.00248590 -0.00180989
v 0.00903453 0.00242014 0.00215948
v 0.00801866 0.00242908 0.00217354
v 0.00793351 0.00242844 0.00217162
v 0.00793351 0.00237226 0.00222658
v 0.00793351 0.00253952 -0.00174791
v 0.00886251 0.00257847 -0.00204567
v 0.00901308 0.00289448 -0.00159710
v 0.00903453 0.00285043 -0.00162650
v 0.00903453 0.00247505 0.00209942
v 0.00793351 0.00262890 0.00194478
v 0.00903453 0.00266210 0.00189111
v 0.00793351 0.00264869 -0.00160605
v 0.00793351 0.00269338 -0.00154535
v 0.00886251 0.00267295 -0.00191468
v 0.00903453 0.00291299 -0.00152298
v 0.00903453 0.00287788 -0.00158113
v 0.00893580 0.00289448 -0.00159710
v 0.00899713 0.00314474 -0.00105461
v 0.00800002 0.00266785 0.00189814
v 0.00793351 0.00266785 0.00189814
v 0.00903453 0.00289193 0.00158695
v 0.00793351 0.00286384 -0.00130317
v 0.00903453 0.00309941 -0.00108464
v 0.00793351 0.00286958 -0.00129295
v 0.00793351 0.00311218 -0.00076195
v 0.00898775 0.00314474 -0.00105461
v 0.00903453 0.00316453 -0.00091914
v 0.00903453 0.00312495 -0.00102458
v 0.00796445 0.00289512 0.00159270
v 0.00793351 0.00289512 0.00159270
v 0.00903453 0.00313133 0.00107257
v 0.00901147 0.00314410 0.00104765
v 0.00793351 0.00312112 -0.00073831
v 0.00793351 0.00315942 -0.00058432
v 0.00894539 0.00316453 -0.00091914
v 0.00903453 0.00319645 -0.00065716
v 0.00899163 0.00314410 0.00104765
v 0.00793351 0.00314346 0.00104573
v 0.00903453 0.00314984 0.00101826
v 0.00793351 0.00316581 -0.00054470
v 0.00889506 0.00319645 -0.00065716
v 0.00903453 0.00324114 -0.00013383
v 0.00903453 0.00318815 0.00080036
v 0.00793351 0.00316197 0.00091858
v 0.00793351 0.00318432 -0.00039518
v 0.00793351 0.00319006 -0.00033895
v 0.00793351 0.00320922 -0.00013383
v 0.00888159 0.00321752 -0.00039518
v 0.00793351 0.00322071 0.00012751
v 0.00903453 0.00324688 0.00012751
v 0.00903453 0.00320922 0.00065148
v 0.00793351 0.00319709 0.00065148
v 0.00793351 0.00321624 0.00038950
v 0.00903453 0.00323603 0.00038950
v 0.00903453 0.00322454 0.00050899
f 1 2 3
f 1 3 4
f 1 4 5
f 1 5 6
f 1 6 7
f 1 7 8
f 1 8 2
f 2 8 9
f 2 9 10
f 2 10 11
f 2 11 12
f 2 12 13
f 2 13 3
f 3 13 14
f 3 14 15
f 3 15 4
f 4 15 16
f 4 16 5
f 5 16 17
f 5 17 18
f 5 18 19
f 5 19 6
f 6 20 21
f 6 21 22
f 6 22 7
f 6 19 20
f 7 22 21
f 7 21 23
f 7 23 8
f 8 23 24
f 8 24 9
f 9 24 25
f 9 25 26
f 9 26 10
f 10 26 27
f 10 27 28
f 10 28 29
f 10 29 11
f 11 29 30
f 11 30 31
f 11 31 32
f 11 32 12
f 12 32 33
f 12 33 34
f 12 34 13
f 13 34 14
f 14 35 54
f 14 54 77
f 14 77 95
f 14 95 94
f 14 94 111
f 14 111 126
f 14 126 142
f 14 142 160
f 14 160 181
f 14 181 198
f 14 198 214
f 14 214 228
f 14 228 227
f 14 227 226
f 14 226 225
f 14 225 224
f 14 224 243
f 14 243 242
f 14 242 241
f 14 241 258
f 14 258 257
f 14 257 256
f 14 256 255
f 14 255 273
f 14 273 285
f 14 285 284
f 14 284 283
f 14 283 292
f 14 292 291
f 14 291 301
f 14 301 309
f 14 309 308
f 14 308 316
f 14 316 321
f 14 321 320
f 14 320 329
f 14 329 335
f 14 335 343
f 14 343 347
f 14 347 348
f 14 348 344
f 14 344 336
f 14 336 332
f 14 332 324
f 14 324 314
f 14 314 304
f 14 304 302
f 14 302 294
f 14 294 287
f 14 287 286
f 14 286 275
f 14 275 274
f 14 274 259
f 14 259 247
f 14 247 233
f 14 233 217
f 14 217 203
f 14 203 202
f 14 202 199
f 14 199 184
f 14 184 182
f 14 182 163
f 14 163 166
f 14 166 162
f 14 162 144
f 14 144 127
f 14 127 113
f 14 113 97
f 14 97 78
f 14 78 55
f 14 55 37
f 14 37 36
f 14 36 15
f 14 34 35
f 15 36 17
f 15 17 16
f 17 37 38
f 17 38 18
f 17 36 37
f 18 38 39
f 18 39 19
f 19 40 41
f 19 41 42
f 19 42 20
f 19 39 43
f 19 43 44
f 19 44 45
f 19 45 40
f 20 46 21
f 20 42 46
f 21 46 42
f 21 42 59
f 21 59 83
f 21 83 102
f 21 102 101
f 21 101 100
f 21 100 87
f 21 87 86
f 21 86 103
f 21 103 105
f 21 105 116
f 21 116 115
f 21 115 130
f 21 130 133
f 21 133 150
f 21 150 149
f 21 149 170
f 21 170 169
f 21 169 188
f 21 188 187
f 21 187 186
f 21 186 201
f 21 201 216
f 21 216 232
f 21 232 231
f 21 231 230
f 21 230 248
f 21 248 261
f 21 261 277
f 21 277 289
f 21 289 297
f 21 297 296
f 21 296 303
f 21 303 313
f 21 313 323
f 21 323 331
f 21 331 337
f 21 337 345
f 21 345 346
f 21 346 342
f 21 342 340
f 21 340 339
f 21 339 338
f 21 338 333
f 21 333 327
f 21 327 326
f 21 326 318
f 21 318 317
f 21 317 315
f 21 315 306
f 21 306 305
f 21 305 298
f 21 298 293
f 21 293 282
f 21 282 278
f 21 278 267
f 21 267 266
f 21 266 265
f 21 265 264
f 21 264 263
f 21 263 252
f 21 252 251
f 21 251 249
f 21 249 235
f 21 235 220
f 21 220 218
f 21 218 205
f 21 205 191
f 21 191 177
f 21 177 176
f 21 176 171
f 21 171 152
f 21 152 135
f 21 135 120
f 21 120 107
f 21 107 88
f 21 88 69
f 21 69 48
f 21 48 47
f 21 47 28
f 21 28 27
f 21 27 26
f 21 26 25
f 21 25 24
f 21 24 23
f 28 47 29
f 29 47 48
f 29 48 49
f 29 49 30
f 30 49 31
f 31 49 50
f 31 50 51
f 31 51 32
f 32 51 52
f 32 52 33
f 33 52 34
f 34 52 53
f 34 53 35
f 35 53 52
f 35 52 54
f 37 55 56
f 37 56 38
f 38 43 39
f 38 56 43
f 40 57 41
f 40 45 58
f 40 58 57
f 41 57 42
f 42 57 59
f 43 60 44
f 43 56 60
f 44 61 62
f 44 62 63
f 44 63 64
f 44 64 65
f 44 65 45
f 44 60 66
f 44 66 61
f 45 65 67
f 45 67 58
f 48 68 49
f 48 69 70
f 48 70 68
f 49 68 70
f 49 70 71
f 49 71 50
f 50 71 72
f 50 72 73
f 50 73 74
f 50 74 51
f 51 74 75
f 51 75 52
f 52 75 76
f 52 76 77
f 52 77 54
f 55 78 56
f 56 78 79
f 56 79 80
f 56 80 63
f 56 63 62
f 56 62 61
f 56 61 66
f 56 66 60
f 57 58 81
f 57 81 82
f 57 82 83
f 57 83 59
f 58 67 81
f 63 80 64
f 64 84 65
f 64 80 85
f 64 85 84
f 65 84 67
f 67 84 86
f 67 86 87
f 67 87 81
f 69 88 89
f 69 89 90
f 69 90 91
f 69 91 70
f 70 91 73
f 70 73 72
f 70 72 71
f 73 91 90
f 73 90 74
f 74 90 92
f 74 92 93
f 74 93 76
f 74 76 75
f 76 94 95
f 76 95 77
f 76 93 92
f 76 92 96
f 76 96 94
f 78 97 98
f 78 98 79
f 79 98 99
f 79 99 80
f 80 99 85
f 81 100 82
f 81 87 100
f 82 100 101
f 82 101 102
f 82 102 83
f 84 103 86
f 84 85 104
f 84 104 105
f 84 105 103
f 85 99 106
f 85 106 104
f 88 90 89
f 88 107 108
f 88 108 90
f 90 108 109
f 90 109 110
f 90 110 92
f 92 110 96
f 94 96 111
f 96 110 109
f 96 109 112
f 96 112 111
f 97 113 114
f 97 114 98
f 98 114 99
f 99 114 106
f 104 115 116
f 104 116 105
f 104 106 117
f 104 117 115
f 106 114 118
f 106 118 119
f 106 119 117
f 107 120 121
f 107 121 122
f 107 122 108
f 108 122 109
f 109 122 123
f 109 123 112
f 111 112 124
f 111 124 125
f 111 125 126
f 112 123 125
f 112 125 124
f 113 127 128
f 113 128 118
f 113 118 129
f 113 129 114
f 114 129 118
f 115 117 130
f 117 119 131
f 117 131 132
f 117 132 133
f 117 133 130
f 118 128 134
f 118 134 119
f 119 134 131
f 120 135 136
f 120 136 121
f 121 137 138
f 121 138 122
f 121 136 137
f 122 138 123
f 123 138 125
f 125 138 139
f 125 139 140
f 125 140 126
f 126 141 142
f 126 140 143
f 126 143 141
f 127 144 145
f 127 145 128
f 128 145 151
f 128 151 134
f 131 134 146
f 131 146 147
f 131 147 132
f 132 147 148
f 132 148 149
f 132 149 150
f 132 150 133
f 134 151 147
f 134 147 146
f 135 152 153
f 135 153 136
f 136 153 154
f 136 154 155
f 136 155 156
f 136 156 157
f 136 157 137
f 137 157 139
f 137 139 138
f 139 156 158
f 139 158 159
f 139 159 143
f 139 143 140
f 139 157 156
f 141 160 142
f 141 143 161
f 141 161 160
f 143 159 161
f 144 162 145
f 145 163 164
f 145 164 165
f 145 165 151
f 145 162 166
f 145 166 163
f 147 151 167
f 147 167 148
f 148 167 165
f 148 165 168
f 148 168 169
f 148 169 170
f 148 170 149
f 151 165 167
f 152 171 153
f 153 172 173
f 153 173 174
f 153 174 175
f 153 175 154
f 153 171 176
f 153 176 177
f 153 177 172
f 154 175 155
f 155 175 174
f 155 174 158
f 155 158 156
f 158 174 178
f 158 178 179
f 158 179 159
f 159 180 161
f 159 179 180
f 160 161 180
f 160 180 181
f 163 182 164
f 164 183 168
f 164 168 165
f 164 182 184
f 164 184 183
f 168 185 186
f 168 186 187
f 168 187 188
f 168 188 169
f 168 183 185
f 172 189 190
f 172 190 173
f 172 177 191
f 172 191 189
f 173 190 192
f 173 192 193
f 173 193 194
f 173 194 174
f 174 194 178
f 178 194 195
f 178 195 196
f 178 196 179
f 179 196 180
f 180 196 195
f 180 195 197
f 180 197 181
f 181 197 198
f 183 184 199
f 183 199 185
f 185 200 201
f 185 201 186
f 185 199 202
f 185 202 203
f 185 203 200
f 189 204 190
f 189 191 205
f 189 205 204
f 190 204 205
f 190 205 206
f 190 206 207
f 190 207 208
f 190 208 209
f 190 209 192
f 192 209 210
f 192 210 211
f 192 211 193
f 193 211 212
f 193 212 194
f 194 212 195
f 195 212 213
f 195 213 197
f 197 213 214
f 197 214 198
f 200 215 216
f 200 216 201
f 200 203 215
f 203 217 215
f 205 218 206
f 206 218 207
f 207 219 221
f 207 221 208
f 207 218 220
f 207 220 219
f 208 221 222
f 208 222 223
f 208 223 209
f 209 223 210
f 210 223 224
f 210 224 225
f 210 225 226
f 210 226 211
f 211 226 227
f 211 227 228
f 211 228 212
f 212 228 213
f 213 228 214
f 215 229 230
f 215 230 231
f 215 231 232
f 215 232 216
f 215 217 229
f 217 233 229
f 219 234 237
f 219 237 221
f 219 220 234
f 220 235 236
f 220 236 234
f 221 237 238
f 221 238 222
f 222 238 239
f 222 239 240
f 222 240 241
f 222 241 242
f 222 242 243
f 222 243 223
f 223 243 224
f 229 244 245
f 229 245 246
f 229 246 230
f 229 233 247
f 229 247 244
f 230 246 248
f 234 236 250
f 234 250 237
f 235 249 236
f 236 249 251
f 236 251 252
f 236 252 253
f 236 253 262
f 236 262 250
f 237 250 238
f 238 250 254
f 238 254 239
f 239 254 255
f 239 255 256
f 239 256 257
f 239 257 258
f 239 258 240
f 240 258 241
f 244 247 245
f 245 247 259
f 245 259 260
f 245 260 261
f 245 261 246
f 246 261 248
f 250 262 254
f 252 263 253
f 253 263 264
f 253 264 265
f 253 265 266
f 253 266 267
f 253 267 268
f 253 268 269
f 253 269 270
f 253 270 262
f 254 262 271
f 254 271 270
f 254 270 272
f 254 272 273
f 254 273 255
f 259 274 260
f 260 274 275
f 260 275 276
f 260 276 277
f 260 277 261
f 262 270 271
f 267 278 268
f 268 279 280
f 268 280 281
f 268 281 269
f 268 278 282
f 268 282 279
f 269 281 283
f 269 283 272
f 269 272 270
f 272 284 285
f 272 285 273
f 272 283 284
f 275 286 276
f 276 286 287
f 276 287 288
f 276 288 277
f 277 288 289
f 279 282 280
f 280 290 291
f 280 291 292
f 280 292 283
f 280 283 281
f 280 282 293
f 280 293 290
f 287 294 288
f 288 294 295
f 288 295 296
f 288 296 297
f 288 297 289
f 290 293 298
f 290 298 299
f 290 299 291
f 291 299 300
f 291 300 301
f 294 302 295
f 295 303 296
f 295 302 304
f 295 304 303
f 298 305 299
f 299 305 306
f 299 306 307
f 299 307 300
f 300 308 309
f 300 309 301
f 300 307 310
f 300 310 319
f 300 319 311
f 300 311 308
f 303 304 312
f 303 312 313
f 304 314 312
f 306 315 307
f 307 315 310
f 308 311 316
f 310 315 317
f 310 317 318
f 310 318 319
f 311 319 328
f 311 328 320
f 311 320 321
f 311 321 316
f 312 314 322
f 312 322 323
f 312 323 313
f 314 324 325
f 314 325 322
f 318 326 319
f 319 326 327
f 319 327 328
f 320 328 334
f 320 334 329
f 322 325 330
f 322 330 323
f 323 330 331
f 324 332 325
f 325 332 330
f 327 333 328
f 328 333 334
f 329 334 335
f 330 332 331
f 331 332 336
f 331 336 337
f 333 338 334
f 334 338 339
f 334 339 340
f 334 340 341
f 334 341 335
f 335 341 340
f 335 340 342
f 335 342 343
f 336 344 337
f 337 344 345
f 342 346 343
f 343 346 347
f 344 348 345
f 345 348 347
f 345 347 346

