# https://github.com/mikedh/trimesh
v -0.00082910 0.00013097 0.00328094
v -0.00102172 0.00039248 0.00320304
v -0.00101967 0.00013097 0.00320687
v -0.00082910 -0.00013055 0.00328030
v -0.00061845 -0.00013055 0.00321964
v -0.00062741 0.00013097 0.00321389
v -0.00082910 0.00039248 0.00326242
v -0.00101398 0.00065463 0.00318899
v -0.00115264 0.00039248 0.00302617
v -0.00132021 -0.00004337 0.00280971
v -0.00101156 -0.00013055 0.00320049
v -0.00099704 -0.00039270 0.00318452
v -0.00082910 -0.00039270 0.00325604
v -0.00063043 -0.00065421 0.00319282
v -0.00061894 -0.00039270 0.00321134
v -0.00008414 -0.00024400 0.00268201
v -0.00008414 0.00039248 0.00269606
v -0.00008414 0.00054503 0.00268456
v -0.00008414 0.00065463 0.00267435
v -0.00064217 0.00039248 0.00319921
v -0.00066213 0.00065463 0.00317750
v -0.00082910 0.00065463 0.00322603
v -0.00098409 0.00091614 0.00315962
v -0.00115966 0.00067065 0.00298786
v -0.00110485 0.00091614 0.00300893
v -0.00132021 0.00023608 0.00279694
v -0.00132021 -0.00013055 0.00280397
v -0.00132021 -0.00036770 0.00278737
v -0.00132021 -0.00060678 0.00274139
v -0.00097659 -0.00065421 0.00315962
v -0.00096328 -0.00079778 0.00314366
v -0.00082910 -0.00065421 0.00321262
v -0.00069359 -0.00105417 0.00314238
v -0.00066528 -0.00091636 0.00316281
v -0.00008414 -0.00065421 0.00264051
v -0.00008414 -0.00055807 0.00265902
v -0.00008414 -0.00117275 0.00253324
v -0.00008414 -0.00039911 0.00267371
v -0.00008414 0.00077064 0.00265775
v -0.00008414 0.00091614 0.00263476
v -0.00008414 0.00098472 0.00262135
v -0.00068209 0.00084243 0.00315643
v -0.00085221 0.00092447 0.00316537
v -0.00095506 0.00104882 0.00314047
v -0.00096086 0.00104882 0.00314047
v -0.00104266 0.00115330 0.00301659
v -0.00119378 0.00117829 0.00282823
v -0.00121180 0.00091614 0.00286016
v -0.00122088 0.00076872 0.00287612
v -0.00132021 0.00061425 0.00273373
v -0.00132021 -0.00065421 0.00273118
v -0.00088282 -0.00097213 0.00310343
v -0.00070811 -0.00105417 0.00314238
v -0.00080890 -0.00089777 0.00316026
v -0.00132021 -0.00081060 0.00268201
v -0.00132021 -0.00086252 0.00266477
v -0.00132021 -0.00097084 0.00262199
v -0.00132021 -0.00117851 0.00253324
v -0.00132021 -0.00143810 0.00242022
v -0.00096534 -0.00132594 0.00288634
v -0.00082354 -0.00142400 0.00292529
v -0.00073243 -0.00159642 0.00289272
v -0.00066879 -0.00159642 0.00289272
v -0.00062087 -0.00144003 0.00293103
v -0.00048984 -0.00144003 0.00282185
v -0.00044991 -0.00123748 0.00285760
v -0.00008414 -0.00123107 0.00251855
v -0.00008414 0.00117573 0.00257729
v -0.00008414 0.00122124 0.00256197
v -0.00008414 0.00143981 0.00247577
v -0.00073267 0.00154108 0.00285760
v -0.00078034 0.00101677 0.00312578
v -0.00090726 0.00159684 0.00289272
v -0.00098288 0.00159684 0.00289272
v -0.00102366 0.00144045 0.00293103
v -0.00115470 0.00144045 0.00278481
v -0.00132021 0.00118278 0.00261497
v -0.00132021 0.00108600 0.00264115
v -0.00122632 0.00158787 0.00262454
v -0.00124266 0.00144045 0.00265392
v -0.00132021 0.00132507 0.00257091
v -0.00132021 0.00091614 0.00267946
v -0.00090702 -0.00150028 0.00282951
v -0.00132021 -0.00168872 0.00222164
v -0.00093933 -0.00179448 0.00258304
v -0.00076473 -0.00190088 0.00266541
v -0.00061942 -0.00190088 0.00266541
v -0.00044483 -0.00181371 0.00260603
v -0.00008414 -0.00139965 0.00242213
v -0.00008414 0.00159812 0.00239787
v -0.00008414 0.00170580 0.00233977
v -0.00008414 0.00175772 0.00231103
v -0.00008414 0.00194424 0.00220568
v -0.00087351 0.00190066 0.00266541
v -0.00082366 0.00144814 0.00293614
v -0.00102318 0.00190066 0.00266541
v -0.00119777 0.00176285 0.00257921
v -0.00132021 0.00161735 0.00244001
v -0.00132021 0.00146544 0.00250897
v -0.00132021 -0.00196177 0.00196304
v -0.00077078 -0.00217585 0.00242596
v -0.00056727 -0.00230725 0.00231103
v -0.00056727 -0.00217585 0.00242341
v -0.00054622 -0.00197843 0.00256069
v -0.00008414 -0.00176756 0.00218844
v -0.00042523 -0.00212265 0.00237425
v -0.00008414 0.00208525 0.00209330
v -0.00087314 0.00217563 0.00242533
v -0.00104290 0.00217563 0.00242533
v -0.00121761 0.00208461 0.00234679
v -0.00124726 0.00191027 0.00240489
v -0.00132021 0.00182438 0.00232572
v -0.00132021 -0.00220982 0.00168082
v -0.00076401 -0.00242967 0.00217311
v -0.00041893 -0.00239185 0.00212905
v -0.00056727 -0.00243800 0.00218014
v -0.00008414 -0.00201240 0.00196751
v -0.00008414 0.00223011 0.00196368
v -0.00008414 0.00236407 0.00183214
v -0.00088186 0.00242945 0.00217311
v -0.00109105 0.00242047 0.00216162
v -0.00122753 0.00236920 0.00210415
v -0.00132021 0.00213076 0.00210862
v -0.00132021 0.00196539 0.00222739
v -0.00132021 -0.00258222 0.00091204
v -0.00071259 -0.00289308 0.00159015
v -0.00074695 -0.00266746 0.00189855
v -0.00056727 -0.00256876 0.00203902
v -0.00041857 -0.00264439 0.00186599
v -0.00008414 -0.00225276 0.00169167
v -0.00008414 0.00247688 0.00170444
v -0.00090182 0.00266853 0.00189855
v -0.00109105 0.00255123 0.00201923
v -0.00122632 0.00262622 0.00183981
v -0.00132021 0.00239868 0.00186918
v -0.00132021 0.00226664 0.00200199
v -0.00132021 -0.00265657 0.00075305
v -0.00074150 -0.00292641 0.00143754
v -0.00071476 -0.00315908 0.00085777
v -0.00061458 -0.00313921 0.00103208
v -0.00043987 -0.00314306 0.00104485
v -0.00056727 -0.00289308 0.00159015
v -0.00056727 -0.00280527 0.00172104
v -0.00056727 -0.00267451 0.00190813
v -0.00043176 -0.00288539 0.00157610
v -0.00008414 -0.00240980 0.00143754
v -0.00008414 0.00248329 0.00169678
v -0.00109105 0.00266083 0.00188833
v -0.00008414 0.00248970 0.00168848
v -0.00008414 0.00262174 0.00151416
v -0.00008414 0.00267686 0.00143754
v -0.00093957 0.00289543 0.00159334
v -0.00102281 0.00289543 0.00159334
v -0.00119741 0.00286915 0.00155120
v -0.00125306 0.00268135 0.00169933
v -0.00132021 0.00262622 0.00160164
v -0.00132021 0.00252367 0.00173637
v -0.00132021 -0.00271233 0.00061130
v -0.00072686 -0.00317318 0.00065153
v -0.00056727 -0.00325587 0.00038973
v -0.00056727 -0.00322638 0.00065153
v -0.00132021 -0.00277066 0.00044912
v -0.00132021 -0.00278284 0.00040442
v -0.00132021 -0.00283347 0.00018094
v -0.00132021 -0.00284309 0.00012794
v -0.00054319 -0.00316869 0.00093247
v -0.00043612 -0.00314306 0.00104485
v -0.00040538 -0.00291744 0.00143754
v -0.00008414 -0.00255145 0.00118852
v -0.00110255 0.00280313 0.00168784
v -0.00008414 0.00270698 0.00139284
v -0.00008414 0.00281979 0.00118277
v -0.00008414 0.00294542 0.00091332
v -0.00095808 0.00314412 0.00104868
v -0.00008414 0.00274929 0.00131878
v -0.00008414 0.00278710 0.00125109
v -0.00097732 0.00314412 0.00104868
v -0.00115191 0.00313258 0.00102378
v -0.00110255 0.00294158 0.00145350
v -0.00124278 0.00316271 0.00084883
v -0.00124532 0.00291273 0.00137688
v -0.00129953 0.00276916 0.00145350
v -0.00132021 0.00273262 0.00145095
v -0.00073110 -0.00318216 0.00038973
v -0.00056727 -0.00326740 0.00012794
v -0.00132021 -0.00287065 -0.00013385
v -0.00033847 -0.00322638 0.00012794
v -0.00035227 -0.00321677 0.00038973
v -0.00037538 -0.00319562 0.00065153
v -0.00041288 -0.00316229 0.00091332
v -0.00030641 -0.00301166 0.00091332
v -0.00037804 -0.00301230 0.00114957
v -0.00008414 -0.00265336 0.00091332
v -0.00023369 -0.00299884 0.00066174
v -0.00008414 0.00300375 0.00076774
v -0.00008414 0.00302554 0.00070388
v -0.00008414 0.00304028 0.00065919
v -0.00008414 0.00309733 0.00046253
v -0.00008414 0.00311143 0.00038973
v -0.00008414 0.00313771 0.00023074
v -0.00109105 0.00323065 0.00065153
v -0.00107520 0.00317040 0.00092737
v -0.00126553 0.00318578 0.00065153
v -0.00132021 0.00307810 0.00074347
v -0.00132021 0.00301593 0.00090629
v -0.00130521 0.00303195 0.00092737
v -0.00127533 0.00296273 0.00117575
v -0.00132021 0.00288902 0.00117575
v -0.00132021 0.00283453 0.00128557
v -0.00132021 0.00274736 0.00142988
v -0.00072940 -0.00318344 0.00012794
v -0.00132021 -0.00287642 -0.00039564
v -0.00056727 -0.00325843 -0.00013385
v -0.00033170 -0.00322702 -0.00013385
v -0.00020078 -0.00310075 -0.00013385
v -0.00020756 -0.00308601 0.00012794
v -0.00022135 -0.00306037 0.00038973
v -0.00016243 -0.00290270 0.00058065
v -0.00008414 -0.00280591 0.00045997
v -0.00008414 0.00314796 0.00012794
v -0.00109105 0.00326462 0.00038973
v -0.00128646 0.00320757 0.00038973
v -0.00132021 0.00312938 0.00055766
v -0.00132021 0.00310694 0.00064259
v -0.00132021 0.00300823 0.00092609
v -0.00132021 0.00292363 0.00110487
v -0.00132021 -0.00286232 -0.00065743
v -0.00059316 -0.00321164 -0.00042054
v -0.00054404 -0.00319562 -0.00065743
v -0.00034779 -0.00319562 -0.00065743
v -0.00033291 -0.00321741 -0.00039564
v -0.00020187 -0.00310396 -0.00039564
v -0.00008414 -0.00292128 -0.00039564
v -0.00008414 -0.00291680 -0.00020983
v -0.00008414 -0.00291423 -0.00013385
v -0.00008414 -0.00289693 0.00003855
v -0.00008414 -0.00288411 0.00013433
v -0.00008414 -0.00285398 0.00029651
v -0.00008414 0.00315950 -0.00001189
v -0.00109105 0.00328064 0.00012794
v -0.00130086 0.00322103 0.00012794
v -0.00132021 0.00317168 0.00032908
v -0.00132021 0.00316142 0.00038973
v -0.00132021 -0.00282194 -0.00091923
v -0.00048173 -0.00316357 -0.00091923
v -0.00039474 -0.00316357 -0.00091923
v -0.00026370 -0.00307640 -0.00091923
v -0.00021687 -0.00309563 -0.00065743
v -0.00008414 -0.00290526 -0.00065743
v -0.00008414 0.00316271 -0.00013385
v -0.00109105 0.00327616 -0.00013385
v -0.00130884 0.00322424 -0.00013385
v -0.00008414 0.00316399 -0.00026858
v -0.00132021 0.00321078 -0.00013385
v -0.00132021 0.00319924 0.00009155
v -0.00132021 0.00319604 0.00012794
v -0.00132021 -0.00275463 -0.00117527
v -0.00044011 -0.00314434 -0.00105459
v -0.00043188 -0.00314434 -0.00105459
v -0.00016824 -0.00288988 -0.00134256
v -0.00015481 -0.00291359 -0.00118102
v -0.00013726 -0.00294564 -0.00091923
v -0.00008414 -0.00286552 -0.00091859
v -0.00109105 0.00325052 -0.00039564
v -0.00129481 0.00319604 -0.00065743
v -0.00130836 0.00321591 -0.00039564
v -0.00008414 0.00315822 -0.00039564
v -0.00008414 0.00314668 -0.00054825
v -0.00132021 0.00320309 -0.00039564
v -0.00132021 0.00321078 -0.00015620
v -0.00132021 -0.00273861 -0.00122124
v -0.00045753 -0.00289436 -0.00159605
v -0.00132021 -0.00264759 -0.00145366
v -0.00038953 -0.00289436 -0.00159605
v -0.00021494 -0.00285911 -0.00151688
v -0.00008414 -0.00279502 -0.00118102
v -0.00016170 -0.00263670 -0.00186551
v -0.00013883 -0.00268157 -0.00170524
v -0.00008414 -0.00270913 -0.00143706
v -0.00125573 0.00316399 -0.00091923
v -0.00008414 0.00313386 -0.00065743
v -0.00121604 0.00314476 -0.00105459
v -0.00122548 0.00314476 -0.00105459
v -0.00132021 0.00310438 -0.00091923
v -0.00132021 0.00315373 -0.00072959
v -0.00132021 0.00317040 -0.00065743
v -0.00132021 0.00320052 -0.00042182
v -0.00132021 -0.00252645 -0.00170588
v -0.00132021 -0.00248287 -0.00177612
v -0.00132021 -0.00234570 -0.00198044
v -0.00048536 -0.00266490 -0.00190126
v -0.00030532 -0.00257388 -0.00203791
v -0.00030351 -0.00280142 -0.00169247
v -0.00030532 -0.00266682 -0.00190701
v -0.00011560 -0.00248992 -0.00195873
v -0.00008414 -0.00243031 -0.00196192
v -0.00008414 -0.00248287 -0.00188019
v -0.00008414 -0.00259247 -0.00169822
v -0.00014597 -0.00240339 -0.00215539
v -0.00132021 0.00303515 -0.00113504
v -0.00132021 0.00305182 -0.00108524
v -0.00008414 0.00308002 -0.00091348
v -0.00008414 0.00307874 -0.00091923
v -0.00008414 0.00289671 -0.00147282
v -0.00119366 0.00289414 -0.00159733
v -0.00125331 0.00289414 -0.00159733
v -0.00130267 0.00293132 -0.00144345
v -0.00132021 0.00291850 -0.00144345
v -0.00132021 -0.00223930 -0.00211581
v -0.00132021 -0.00212714 -0.00224990
v -0.00049056 -0.00242582 -0.00217455
v -0.00030532 -0.00244313 -0.00219881
v -0.00008414 -0.00223610 -0.00221733
v -0.00030532 -0.00232904 -0.00232971
v -0.00013811 -0.00215726 -0.00241846
v -0.00009298 -0.00223738 -0.00223712
v -0.00008414 0.00282748 -0.00161457
v -0.00008414 0.00265891 -0.00189616
v -0.00008414 0.00259225 -0.00198938
v -0.00116135 0.00266660 -0.00190254
v -0.00130884 0.00266660 -0.00190254
v -0.00132021 0.00281082 -0.00166629
v -0.00132021 -0.00198036 -0.00239675
v -0.00008414 -0.00221943 -0.00223776
v -0.00030532 -0.00219828 -0.00245167
v -0.00132021 -0.00186691 -0.00250658
v -0.00013859 -0.00189126 -0.00266302
v -0.00008656 -0.00197266 -0.00249956
v -0.00008414 -0.00197266 -0.00249445
v -0.00008414 0.00243393 -0.00218924
v -0.00132021 0.00243073 -0.00218285
v -0.00132021 0.00265122 -0.00191467
v -0.00132021 0.00268263 -0.00186678
v -0.00030532 -0.00204958 -0.00258256
v -0.00132021 -0.00170923 -0.00262662
v -0.00016025 -0.00159065 -0.00289544
v -0.00010387 -0.00168808 -0.00275113
v -0.00008414 -0.00164449 -0.00274922
v -0.00008414 -0.00169064 -0.00271537
v -0.00008414 -0.00196754 -0.00249956
v -0.00008414 0.00234869 -0.00228629
v -0.00132021 0.00229356 -0.00233482
v -0.00030532 -0.00191882 -0.00268089
v -0.00132021 -0.00153617 -0.00275496
v -0.00012310 -0.00144003 -0.00293247
v -0.00008414 -0.00143746 -0.00287628
v -0.00030532 -0.00172141 -0.00281179
v -0.00030532 -0.00159065 -0.00289480
v -0.00030532 -0.00144003 -0.00295865
v -0.00013472 -0.00087278 -0.00317191
v -0.00008414 0.00218909 -0.00244337
v -0.00132021 0.00218524 -0.00244209
v -0.00043950 -0.00157719 -0.00288713
v -0.00132021 -0.00145092 -0.00280604
v -0.00008414 -0.00123171 -0.00297780
v -0.00030532 -0.00117851 -0.00305890
v -0.00132021 -0.00093815 -0.00305187
v -0.00132021 -0.00091636 -0.00306081
v -0.00025293 -0.00087278 -0.00317191
v -0.00009794 -0.00065421 -0.00319745
v -0.00008414 -0.00065421 -0.00318405
v -0.00008414 -0.00090547 -0.00310295
v -0.00008414 0.00207564 -0.00254234
v -0.00132021 0.00201603 -0.00259278
v -0.00132021 -0.00117851 -0.00294460
v -0.00132021 -0.00065421 -0.00315084
v -0.00132021 -0.00040231 -0.00320001
v -0.00132021 -0.00038244 -0.00320320
v -0.00030532 -0.00039270 -0.00322427
v -0.00008414 -0.00052986 -0.00320767
v -0.00008414 0.00191155 -0.00267642
v -0.00132021 0.00190963 -0.00267642
v -0.00132021 -0.00017221 -0.00322619
v -0.00030532 -0.00013055 -0.00323321
v -0.00008414 -0.00037603 -0.00321916
v -0.00008414 -0.00039270 -0.00321853
v -0.00132021 -0.00013055 -0.00323066
v -0.00132021 0.00013097 -0.00324215
v -0.00008414 0.00159107 -0.00289544
v -0.00018929 0.00159235 -0.00289607
v -0.00132021 0.00169299 -0.00282839
v -0.00008414 0.00017583 -0.00323066
v -0.00008414 0.00012712 -0.00323066
v -0.00132021 0.00039248 -0.00323257
v -0.00008414 0.00039248 -0.00322363
v -0.00008414 0.00148275 -0.00294141
v -0.00017053 0.00104946 -0.00314637
v -0.00132021 0.00159235 -0.00289607
v -0.00132021 0.00065463 -0.00320767
v -0.00008414 0.00044440 -0.00321916
v -0.00008414 0.00113599 -0.00308827
v -0.00008414 0.00098857 -0.00313552
v -0.00011246 0.00091614 -0.00316553
v -0.00017550 0.00104946 -0.00314637
v -0.00132021 0.00103664 -0.00312530
v -0.00025087 0.00065463 -0.00319745
v -0.00132021 0.00089114 -0.00316425
v -0.00008414 0.00083218 -0.00317255
v -0.00008414 0.00091614 -0.00315595
v -0.00008414 0.00088922 -0.00316170
v -0.00132021 0.00099306 -0.00313999
v -0.00132021 0.00101293 -0.00313488
f 1 2 3
f 1 3 4
f 1 4 5
f 1 5 6
f 1 6 7
f 1 7 8
f 1 8 2
f 2 9 10
f 2 10 3
f 2 8 9
f 3 10 11
f 3 11 4
f 4 11 12
f 4 12 13
f 4 13 14
f 4 14 15
f 4 15 5
f 5 15 16
f 5 16 17
f 5 17 6
f 6 17 18
f 6 18 19
f 6 19 20
f 6 20 7
f 7 21 22
f 7 22 23
f 7 23 8
f 7 20 21
f 8 24 9
f 8 23 25
f 8 25 24
f 9 24 26
f 9 26 10
f 10 27 11
f 10 26 50
f 10 50 82
f 10 82 78
f 10 78 77
f 10 77 81
f 10 81 99
f 10 99 98
f 10 98 112
f 10 112 124
f 10 124 123
f 10 123 136
f 10 136 135
f 10 135 157
f 10 157 156
f 10 156 183
f 10 183 210
f 10 210 209
f 10 209 208
f 10 208 226
f 10 226 225
f 10 225 205
f 10 205 204
f 10 204 224
f 10 224 223
f 10 223 243
f 10 243 242
f 10 242 256
f 10 256 255
f 10 255 254
f 10 254 270
f 10 270 269
f 10 269 287
f 10 287 286
f 10 286 285
f 10 285 284
f 10 284 301
f 10 301 300
f 10 300 308
f 10 308 322
f 10 322 333
f 10 333 332
f 10 332 331
f 10 331 342
f 10 342 352
f 10 352 364
f 10 364 372
f 10 372 381
f 10 381 388
f 10 388 395
f 10 395 402
f 10 402 401
f 10 401 397
f 10 397 389
f 10 389 384
f 10 384 378
f 10 378 377
f 10 377 373
f 10 373 368
f 10 368 367
f 10 367 366
f 10 366 358
f 10 358 357
f 10 357 365
f 10 365 354
f 10 354 344
f 10 344 335
f 10 335 326
f 10 326 323
f 10 323 310
f 10 310 309
f 10 309 290
f 10 290 289
f 10 289 288
f 10 288 273
f 10 273 271
f 10 271 257
f 10 257 244
f 10 244 227
f 10 227 212
f 10 212 186
f 10 186 165
f 10 165 164
f 10 164 163
f 10 163 162
f 10 162 158
f 10 158 137
f 10 137 125
f 10 125 113
f 10 113 100
f 10 100 84
f 10 84 59
f 10 59 58
f 10 58 57
f 10 57 56
f 10 56 55
f 10 55 51
f 10 51 29
f 10 29 28
f 10 28 27
f 11 27 28
f 11 28 12
f 12 28 29
f 12 29 30
f 12 30 13
f 13 30 31
f 13 31 32
f 13 32 33
f 13 33 34
f 13 34 14
f 14 35 36
f 14 36 15
f 14 34 37
f 14 37 35
f 15 36 38
f 15 38 16
f 16 38 36
f 16 36 35
f 16 35 37
f 16 37 67
f 16 67 89
f 16 89 105
f 16 105 117
f 16 117 130
f 16 130 146
f 16 146 169
f 16 169 193
f 16 193 219
f 16 219 238
f 16 238 237
f 16 237 236
f 16 236 235
f 16 235 234
f 16 234 233
f 16 233 249
f 16 249 263
f 16 263 276
f 16 276 279
f 16 279 298
f 16 298 297
f 16 297 296
f 16 296 313
f 16 313 324
f 16 324 329
f 16 329 340
f 16 340 339
f 16 339 338
f 16 338 346
f 16 346 355
f 16 355 362
f 16 362 361
f 16 361 370
f 16 370 376
f 16 376 375
f 16 375 383
f 16 383 382
f 16 382 385
f 16 385 390
f 16 390 398
f 16 398 400
f 16 400 399
f 16 399 392
f 16 392 391
f 16 391 386
f 16 386 379
f 16 379 371
f 16 371 363
f 16 363 351
f 16 351 341
f 16 341 330
f 16 330 319
f 16 319 318
f 16 318 317
f 16 317 304
f 16 304 303
f 16 303 302
f 16 302 281
f 16 281 268
f 16 268 267
f 16 267 253
f 16 253 250
f 16 250 239
f 16 239 220
f 16 220 200
f 16 200 199
f 16 199 198
f 16 198 197
f 16 197 196
f 16 196 195
f 16 195 173
f 16 173 172
f 16 172 176
f 16 176 175
f 16 175 171
f 16 171 151
f 16 151 150
f 16 150 149
f 16 149 147
f 16 147 131
f 16 131 119
f 16 119 118
f 16 118 107
f 16 107 93
f 16 93 92
f 16 92 91
f 16 91 90
f 16 90 70
f 16 70 69
f 16 69 68
f 16 68 41
f 16 41 40
f 16 40 39
f 16 39 19
f 16 19 18
f 16 18 17
f 19 39 20
f 20 39 21
f 21 39 40
f 21 40 41
f 21 41 42
f 21 42 22
f 22 42 43
f 22 43 44
f 22 44 45
f 22 45 23
f 23 45 46
f 23 46 47
f 23 47 25
f 24 25 47
f 24 47 48
f 24 48 49
f 24 49 26
f 26 49 50
f 29 51 30
f 30 51 31
f 31 52 53
f 31 53 54
f 31 54 32
f 31 51 55
f 31 55 56
f 31 56 57
f 31 57 58
f 31 58 59
f 31 59 60
f 31 60 61
f 31 61 62
f 31 62 52
f 32 54 53
f 32 53 33
f 33 53 62
f 33 62 63
f 33 63 64
f 33 64 65
f 33 65 66
f 33 66 34
f 34 66 67
f 34 67 37
f 41 68 42
f 42 68 69
f 42 69 70
f 42 70 71
f 42 71 72
f 42 72 43
f 43 72 44
f 44 72 73
f 44 73 74
f 44 74 45
f 45 74 75
f 45 75 46
f 46 75 76
f 46 76 47
f 47 77 78
f 47 78 48
f 47 76 79
f 47 79 80
f 47 80 81
f 47 81 77
f 48 78 82
f 48 82 49
f 49 82 50
f 52 62 53
f 59 83 60
f 59 84 85
f 59 85 83
f 60 83 62
f 60 62 61
f 62 83 86
f 62 86 87
f 62 87 63
f 63 87 88
f 63 88 64
f 64 88 65
f 65 67 66
f 65 88 67
f 67 88 89
f 70 90 71
f 71 90 91
f 71 91 92
f 71 92 93
f 71 93 94
f 71 94 73
f 71 73 95
f 71 95 72
f 72 95 73
f 73 94 96
f 73 96 74
f 74 96 97
f 74 97 75
f 75 97 76
f 76 97 79
f 79 98 99
f 79 99 81
f 79 81 80
f 79 97 98
f 83 85 86
f 84 100 85
f 85 100 101
f 85 101 86
f 86 101 87
f 87 101 102
f 87 102 103
f 87 103 104
f 87 104 88
f 88 105 89
f 88 104 106
f 88 106 105
f 93 107 94
f 94 107 108
f 94 108 109
f 94 109 96
f 96 109 110
f 96 110 97
f 97 110 111
f 97 111 112
f 97 112 98
f 100 113 114
f 100 114 101
f 101 114 102
f 102 115 106
f 102 106 103
f 102 114 116
f 102 116 115
f 103 106 104
f 105 106 115
f 105 115 117
f 107 118 108
f 108 118 119
f 108 119 120
f 108 120 109
f 109 120 121
f 109 121 122
f 109 122 110
f 110 123 124
f 110 124 112
f 110 112 111
f 110 122 123
f 113 125 126
f 113 126 127
f 113 127 114
f 114 127 128
f 114 128 116
f 115 116 129
f 115 129 117
f 116 128 129
f 117 129 130
f 119 131 120
f 120 131 132
f 120 132 133
f 120 133 121
f 121 133 134
f 121 134 122
f 122 134 135
f 122 135 136
f 122 136 123
f 125 137 126
f 126 138 139
f 126 139 140
f 126 140 141
f 126 141 167
f 126 167 142
f 126 142 143
f 126 143 144
f 126 144 127
f 126 137 138
f 127 144 128
f 128 144 145
f 128 145 129
f 129 145 130
f 130 145 146
f 131 147 132
f 132 148 133
f 132 147 149
f 132 149 150
f 132 150 151
f 132 151 152
f 132 152 153
f 132 153 148
f 133 148 134
f 134 148 154
f 134 154 155
f 134 155 156
f 134 156 157
f 134 157 135
f 137 158 138
f 138 158 139
f 139 159 160
f 139 160 161
f 139 161 140
f 139 158 162
f 139 162 163
f 139 163 164
f 139 164 165
f 139 165 159
f 140 161 166
f 140 166 141
f 141 166 167
f 142 145 143
f 142 167 145
f 143 145 144
f 145 167 168
f 145 168 169
f 145 169 146
f 148 153 170
f 148 170 154
f 151 171 152
f 152 172 173
f 152 173 174
f 152 174 177
f 152 177 153
f 152 171 175
f 152 175 176
f 152 176 172
f 153 154 170
f 153 177 178
f 153 178 179
f 153 179 154
f 154 179 178
f 154 178 180
f 154 180 181
f 154 181 155
f 155 182 156
f 155 181 182
f 156 182 183
f 159 184 185
f 159 185 160
f 159 165 186
f 159 186 184
f 160 185 187
f 160 187 188
f 160 188 189
f 160 189 161
f 161 189 190
f 161 190 167
f 161 167 166
f 167 190 191
f 167 191 192
f 167 192 168
f 168 192 169
f 169 192 191
f 169 191 194
f 169 194 193
f 173 195 174
f 174 196 197
f 174 197 198
f 174 198 199
f 174 199 200
f 174 200 201
f 174 201 177
f 174 195 196
f 177 201 202
f 177 202 178
f 178 202 180
f 180 202 201
f 180 201 203
f 180 203 204
f 180 204 205
f 180 205 206
f 180 206 207
f 180 207 181
f 181 207 208
f 181 208 209
f 181 209 210
f 181 210 182
f 182 210 183
f 184 211 185
f 184 186 212
f 184 212 211
f 185 213 214
f 185 214 187
f 185 211 212
f 185 212 213
f 187 214 215
f 187 215 216
f 187 216 188
f 188 216 217
f 188 217 189
f 189 217 194
f 189 194 190
f 190 194 191
f 193 194 218
f 193 218 219
f 194 217 218
f 200 220 221
f 200 221 201
f 201 221 203
f 203 221 222
f 203 222 223
f 203 223 224
f 203 224 204
f 205 225 206
f 206 225 226
f 206 226 207
f 207 226 208
f 212 227 213
f 213 228 229
f 213 229 230
f 213 230 231
f 213 231 214
f 213 227 228
f 214 231 232
f 214 232 215
f 215 232 233
f 215 233 234
f 215 234 235
f 215 235 216
f 216 235 236
f 216 236 237
f 216 237 217
f 217 237 238
f 217 238 219
f 217 219 218
f 220 239 221
f 221 240 241
f 221 241 222
f 221 239 240
f 222 241 242
f 222 242 243
f 222 243 223
f 227 244 228
f 228 244 229
f 229 245 246
f 229 246 230
f 229 244 245
f 230 246 247
f 230 247 248
f 230 248 231
f 231 248 232
f 232 248 249
f 232 249 233
f 239 250 240
f 240 251 252
f 240 252 241
f 240 250 253
f 240 253 251
f 241 252 254
f 241 254 255
f 241 255 256
f 241 256 242
f 244 257 245
f 245 258 259
f 245 259 246
f 245 257 258
f 246 259 260
f 246 260 247
f 247 260 248
f 248 260 261
f 248 261 262
f 248 262 249
f 249 262 263
f 251 264 265
f 251 265 266
f 251 266 252
f 251 253 267
f 251 267 268
f 251 268 264
f 252 266 269
f 252 269 270
f 252 270 254
f 257 271 258
f 258 272 274
f 258 274 259
f 258 271 273
f 258 273 272
f 259 274 275
f 259 275 260
f 260 276 261
f 260 275 277
f 260 277 278
f 260 278 279
f 260 279 276
f 261 276 263
f 261 263 262
f 264 280 265
f 264 268 281
f 264 281 282
f 264 282 283
f 264 283 280
f 265 280 284
f 265 284 285
f 265 285 286
f 265 286 266
f 266 287 269
f 266 286 287
f 272 273 288
f 272 288 289
f 272 289 290
f 272 290 291
f 272 291 292
f 272 292 274
f 274 293 275
f 274 292 294
f 274 294 293
f 275 293 277
f 277 295 296
f 277 296 297
f 277 297 298
f 277 298 278
f 277 293 294
f 277 294 292
f 277 292 299
f 277 299 295
f 278 298 279
f 280 283 300
f 280 300 301
f 280 301 284
f 281 302 282
f 282 302 303
f 282 303 304
f 282 304 305
f 282 305 306
f 282 306 283
f 283 306 307
f 283 307 308
f 283 308 300
f 290 309 291
f 291 309 310
f 291 310 311
f 291 311 312
f 291 312 292
f 292 312 299
f 295 299 296
f 296 299 313
f 299 314 315
f 299 315 316
f 299 316 313
f 299 312 314
f 304 317 305
f 305 317 318
f 305 318 319
f 305 319 320
f 305 320 321
f 305 321 306
f 306 321 322
f 306 322 308
f 306 308 307
f 310 314 311
f 310 323 314
f 311 314 312
f 313 316 324
f 314 325 315
f 314 323 326
f 314 326 325
f 315 324 316
f 315 325 327
f 315 327 328
f 315 328 329
f 315 329 324
f 319 330 320
f 320 330 321
f 321 330 331
f 321 331 332
f 321 332 333
f 321 333 322
f 325 334 327
f 325 326 334
f 326 335 334
f 327 336 337
f 327 337 338
f 327 338 339
f 327 339 340
f 327 340 328
f 327 334 336
f 328 340 329
f 330 341 331
f 331 341 342
f 334 343 336
f 334 335 343
f 335 344 343
f 336 345 346
f 336 346 338
f 336 338 337
f 336 343 347
f 336 347 348
f 336 348 349
f 336 349 350
f 336 350 345
f 341 351 352
f 341 352 342
f 343 344 353
f 343 353 347
f 344 354 353
f 345 355 346
f 345 350 355
f 347 353 348
f 348 353 349
f 349 356 350
f 349 353 357
f 349 357 358
f 349 358 356
f 350 359 360
f 350 360 361
f 350 361 362
f 350 362 355
f 350 356 359
f 351 363 364
f 351 364 352
f 353 354 365
f 353 365 357
f 356 358 359
f 358 366 359
f 359 366 367
f 359 367 368
f 359 368 369
f 359 369 360
f 360 369 370
f 360 370 361
f 363 371 364
f 364 371 372
f 368 373 369
f 369 374 375
f 369 375 376
f 369 376 370
f 369 373 377
f 369 377 378
f 369 378 374
f 371 379 380
f 371 380 381
f 371 381 372
f 374 378 382
f 374 382 383
f 374 383 375
f 378 384 385
f 378 385 382
f 379 386 387
f 379 387 380
f 380 388 381
f 380 387 394
f 380 394 388
f 384 389 390
f 384 390 385
f 386 391 387
f 387 391 392
f 387 392 393
f 387 393 389
f 387 389 394
f 388 394 395
f 389 393 396
f 389 396 390
f 389 397 394
f 390 396 393
f 390 393 398
f 392 399 393
f 393 399 400
f 393 400 398
f 394 397 401
f 394 401 402
f 394 402 395

