# https://github.com/mikedh/trimesh
v 0.00467514 -0.00326247 -0.00013346
v 0.00467514 -0.00325094 -0.00039553
v 0.00576473 -0.00321828 -0.00039553
v 0.00576473 -0.00322917 -0.00013346
v 0.00576473 -0.00321892 0.00038939
v 0.00467514 -0.00325222 0.00013245
v 0.00576473 -0.00320419 -0.00056212
v 0.00467514 -0.00322148 -0.00065760
v 0.00576473 -0.00321444 0.00044514
v 0.00571918 -0.00321956 0.00038939
v 0.00576473 -0.00317024 0.00084049
v 0.00467514 -0.00324774 0.00016898
v 0.00576473 -0.00319010 -0.00064094
v 0.00467514 -0.00315551 -0.00096772
v 0.00576473 -0.00315615 0.00091353
v 0.00467514 -0.00318433 0.00062071
v 0.00467514 -0.00320483 0.00049960
v 0.00576473 -0.00318625 -0.00065760
v 0.00467514 -0.00310619 -0.00110740
v 0.00471984 -0.00313565 -0.00102731
v 0.00467514 -0.00314014 0.00078794
v 0.00576473 -0.00308890 0.00112754
v 0.00576473 -0.00313309 -0.00083829
v 0.00576473 -0.00301588 -0.00114136
v 0.00467514 -0.00296208 -0.00144316
v 0.00481605 -0.00289226 -0.00159438
v 0.00467514 -0.00308249 0.00094621
v 0.00576473 -0.00289354 0.00159017
v 0.00571918 -0.00289290 0.00158888
v 0.00571918 -0.00295631 0.00143767
v 0.00576473 -0.00301140 -0.00115162
v 0.00467514 -0.00289418 -0.00159694
v 0.00576473 -0.00274559 -0.00165012
v 0.00576473 -0.00282565 -0.00152517
v 0.00576473 -0.00287689 -0.00143995
v 0.00576473 -0.00290571 -0.00138998
v 0.00467514 -0.00280772 -0.00172509
v 0.00467514 -0.00267449 -0.00191411
v 0.00484890 -0.00266616 -0.00190194
v 0.00467514 -0.00290123 0.00136526
v 0.00576473 -0.00267577 0.00191182
v 0.00571918 -0.00267962 0.00191887
v 0.00571918 -0.00281092 0.00172024
v 0.00467514 -0.00275455 0.00160811
v 0.00576473 -0.00271356 -0.00169369
v 0.00467514 -0.00257201 -0.00204226
v 0.00576473 -0.00260724 -0.00183658
v 0.00576473 -0.00253935 0.00207970
v 0.00571918 -0.00258290 0.00205023
v 0.00467514 -0.00261428 0.00180610
v 0.00576473 -0.00249323 -0.00197178
v 0.00467514 -0.00243943 -0.00218643
v 0.00486565 -0.00242790 -0.00217618
v 0.00576473 -0.00244327 0.00219055
v 0.00571918 -0.00245224 0.00220080
v 0.00467514 -0.00247914 0.00196565
v 0.00467514 -0.00249131 0.00195155
v 0.00576473 -0.00249067 -0.00197434
v 0.00467514 -0.00231005 -0.00231522
v 0.00487141 -0.00217298 -0.00242992
v 0.00576473 -0.00228507 0.00235266
v 0.00571918 -0.00233374 0.00233216
v 0.00467514 -0.00224215 0.00220337
v 0.00576473 -0.00236000 -0.00210377
v 0.00467514 -0.00217682 -0.00242992
v 0.00486597 -0.00189820 -0.00266956
v 0.00576473 -0.00222358 -0.00223000
v 0.00576473 -0.00219091 0.00243468
v 0.00571918 -0.00220244 0.00244557
v 0.00553785 -0.00190140 0.00266599
v 0.00467514 -0.00219475 0.00224245
v 0.00467514 -0.00194880 -0.00260548
v 0.00472112 -0.00189820 -0.00266956
v 0.00576473 -0.00208587 -0.00234021
v 0.00576473 -0.00221333 -0.00223833
v 0.00483088 -0.00159268 -0.00289639
v 0.00576473 -0.00199043 0.00259615
v 0.00571918 -0.00204360 0.00257693
v 0.00467514 -0.00197762 0.00241353
v 0.00556580 -0.00159717 0.00289282
v 0.00467514 -0.00187771 -0.00265546
v 0.00477509 -0.00159268 -0.00289639
v 0.00576473 -0.00195585 -0.00243056
v 0.00480688 -0.00105018 -0.00314692
v 0.00576473 -0.00161574 -0.00262855
v 0.00576473 -0.00169324 -0.00259203
v 0.00576473 -0.00177010 -0.00255294
v 0.00576473 -0.00191614 -0.00245811
v 0.00576473 -0.00189948 0.00266086
v 0.00571918 -0.00191229 0.00267048
v 0.00467514 -0.00192382 0.00245070
v 0.00564452 -0.00159717 0.00289282
v 0.00558212 -0.00105466 0.00314271
v 0.00467514 -0.00141526 0.00272558
v 0.00467514 -0.00156514 0.00265638
v 0.00467514 -0.00169580 0.00259230
v 0.00467514 -0.00177715 0.00254425
v 0.00467514 -0.00186361 0.00248978
v 0.00467514 -0.00169260 -0.00276952
v 0.00467514 -0.00150814 -0.00286114
v 0.00472581 -0.00144024 -0.00293355
v 0.00480037 -0.00105018 -0.00314692
v 0.00493349 -0.00039238 -0.00325521
v 0.00487024 -0.00091631 -0.00316550
v 0.00506309 -0.00078309 -0.00314500
v 0.00576473 -0.00105402 -0.00282911
v 0.00576473 -0.00120838 -0.00278041
v 0.00576473 -0.00137683 -0.00272723
v 0.00576473 -0.00142807 -0.00270865
v 0.00576473 -0.00162535 0.00283002
v 0.00572686 -0.00169132 0.00280760
v 0.00576473 -0.00155169 0.00287231
v 0.00559662 -0.00105466 0.00314271
v 0.00554222 -0.00091631 0.00316257
v 0.00467514 -0.00091631 0.00287808
v 0.00467514 -0.00102071 0.00285309
v 0.00467514 -0.00117956 0.00281080
v 0.00467514 -0.00126090 0.00278517
v 0.00467514 -0.00144024 -0.00289446
v 0.00467674 -0.00114881 -0.00300211
v 0.00477221 -0.00091631 -0.00316550
v 0.00495887 -0.00067932 -0.00319818
v 0.00473381 -0.00065435 -0.00319754
v 0.00493349 -0.00013041 -0.00327892
v 0.00576473 -0.00065435 -0.00289959
v 0.00576473 -0.00081895 -0.00287652
v 0.00576473 -0.00090991 -0.00286114
v 0.00576473 -0.00147867 0.00290243
v 0.00569806 -0.00115650 0.00304980
v 0.00563588 -0.00091631 0.00316257
v 0.00548409 -0.00065435 0.00319461
v 0.00467514 -0.00064730 0.00291909
v 0.00467514 -0.00115009 -0.00300019
v 0.00467514 -0.00091631 -0.00307067
v 0.00472026 -0.00039238 -0.00321740
v 0.00467514 -0.00065435 -0.00313475
v 0.00472058 -0.00013041 -0.00322381
v 0.00493349 0.00013091 -0.00328212
v 0.00511834 0.00013091 -0.00320715
v 0.00576473 -0.00039238 -0.00291497
v 0.00576473 -0.00057428 -0.00290536
v 0.00576473 -0.00091631 0.00308376
v 0.00568217 -0.00065435 0.00319461
v 0.00545732 -0.00013041 0.00325420
v 0.00467514 -0.00051600 0.00292614
v 0.00467514 -0.00039238 -0.00316486
v 0.00472869 0.00013091 -0.00321997
v 0.00467514 -0.00013041 -0.00316742
v 0.00493349 0.00039288 -0.00326482
v 0.00511279 0.00065484 -0.00319049
v 0.00512026 0.00039288 -0.00320395
v 0.00576473 -0.00013041 -0.00290728
v 0.00576473 -0.00065435 0.00313566
v 0.00569625 -0.00039238 0.00321576
v 0.00569774 -0.00013041 0.00322665
v 0.00545732 0.00013091 0.00326381
v 0.00467514 -0.00039238 0.00293062
v 0.00467514 0.00013091 -0.00314948
v 0.00474309 0.00039288 -0.00320651
v 0.00476528 0.00065484 -0.00318344
v 0.00493349 0.00065484 -0.00322830
v 0.00508613 0.00091617 -0.00316422
v 0.00576473 0.00013027 -0.00287716
v 0.00576473 -0.00039238 0.00316001
v 0.00569060 0.00013091 0.00322601
v 0.00576473 -0.00013041 0.00316514
v 0.00545732 0.00039288 0.00325292
v 0.00467514 -0.00012849 0.00292678
v 0.00467514 0.00040184 -0.00310848
v 0.00478682 0.00083546 -0.00316102
v 0.00467514 0.00065484 -0.00304824
v 0.00495610 0.00092001 -0.00316935
v 0.00505850 0.00104939 -0.00314628
v 0.00506565 0.00104939 -0.00314628
v 0.00576473 0.00039288 -0.00281629
v 0.00567630 0.00039288 0.00321576
v 0.00576473 0.00013091 0.00314976
v 0.00545732 0.00065484 0.00322280
v 0.00531193 0.00085596 0.00315424
v 0.00530095 0.00065484 0.00316834
v 0.00565273 0.00065484 0.00319461
v 0.00467514 0.00000986 0.00291268
v 0.00467514 0.00073427 -0.00301941
v 0.00467514 0.00091873 -0.00294636
v 0.00472794 0.00092001 -0.00303030
v 0.00475440 0.00117813 -0.00295662
v 0.00478234 0.00136900 -0.00291176
v 0.00483866 0.00154386 -0.00286499
v 0.00488389 0.00101032 -0.00312770
v 0.00501327 0.00159382 -0.00289639
v 0.00508399 0.00159382 -0.00289639
v 0.00576473 0.00119030 -0.00255999
v 0.00576473 0.00091617 -0.00266059
v 0.00576473 0.00070032 -0.00272851
v 0.00576473 0.00039288 0.00311388
v 0.00546671 0.00093282 0.00316578
v 0.00538564 0.00103082 0.00313502
v 0.00561465 0.00091617 0.00316129
v 0.00559022 0.00105131 0.00314143
v 0.00531161 0.00159382 0.00289089
v 0.00467514 0.00063691 0.00276659
v 0.00467514 0.00039288 0.00284540
v 0.00467514 0.00013091 0.00289858
v 0.00576473 0.00067021 0.00304147
v 0.00467514 0.00117493 -0.00282783
v 0.00467514 0.00130623 -0.00275350
v 0.00473264 0.00144971 -0.00276759
v 0.00477648 0.00170206 -0.00267469
v 0.00480122 0.00183593 -0.00262407
v 0.00492901 0.00168925 -0.00279771
v 0.00492901 0.00144971 -0.00293996
v 0.00493349 0.00188461 -0.00265931
v 0.00512356 0.00189870 -0.00266956
v 0.00576473 0.00169310 -0.00225627
v 0.00576473 0.00144010 -0.00240941
v 0.00556025 0.00105131 0.00314143
v 0.00576473 0.00078294 0.00300367
v 0.00572665 0.00091617 0.00300879
v 0.00565134 0.00115443 0.00301072
v 0.00562286 0.00144010 0.00291781
v 0.00559545 0.00158357 0.00288513
v 0.00545732 0.00159766 0.00289282
v 0.00545732 0.00172833 0.00280567
v 0.00545732 0.00191471 0.00267432
v 0.00527876 0.00190126 0.00266535
v 0.00467514 0.00144907 0.00233728
v 0.00467514 0.00116340 0.00250901
v 0.00467514 0.00091745 0.00264100
v 0.00467514 0.00071185 0.00273391
v 0.00467514 0.00145419 -0.00265803
v 0.00493349 0.00201591 -0.00254589
v 0.00467514 0.00167388 -0.00249207
v 0.00467514 0.00170463 -0.00246644
v 0.00467514 0.00194225 -0.00223128
v 0.00480122 0.00209790 -0.00236264
v 0.00493349 0.00215490 -0.00241454
v 0.00514458 0.00217155 -0.00243056
v 0.00531908 0.00207740 -0.00234790
v 0.00532836 0.00236178 -0.00210249
v 0.00576473 0.00197044 -0.00201791
v 0.00576473 0.00091617 0.00294856
v 0.00576473 0.00105260 0.00288449
v 0.00576473 0.00118902 0.00281849
v 0.00576473 0.00132737 0.00274737
v 0.00572708 0.00144010 0.00274737
v 0.00563673 0.00168349 0.00273840
v 0.00560889 0.00187372 0.00264485
v 0.00545732 0.00204602 0.00257052
v 0.00526244 0.00217540 0.00242699
v 0.00467514 0.00196531 0.00195860
v 0.00467514 0.00170527 0.00216748
v 0.00498426 0.00242840 -0.00217490
v 0.00467514 0.00196531 -0.00220437
v 0.00480965 0.00234513 -0.00208071
v 0.00519546 0.00254497 -0.00201791
v 0.00519546 0.00241366 -0.00215888
v 0.00532687 0.00261991 -0.00183722
v 0.00576473 0.00218629 -0.00177635
v 0.00576473 0.00144010 0.00267816
v 0.00576473 0.00169374 0.00248978
v 0.00576473 0.00171039 0.00247633
v 0.00564814 0.00196211 0.00248338
v 0.00560953 0.00213761 0.00239559
v 0.00545732 0.00218693 0.00243916
v 0.00525626 0.00242968 0.00217261
v 0.00467514 0.00222279 0.00168308
v 0.00500570 0.00266602 -0.00190258
v 0.00467514 0.00214273 -0.00198524
v 0.00467514 0.00223368 -0.00185260
v 0.00478000 0.00240149 -0.00190642
v 0.00483109 0.00257571 -0.00175328
v 0.00519546 0.00265513 -0.00188656
v 0.00529295 0.00286330 -0.00154888
v 0.00576473 0.00242263 -0.00139766
v 0.00576473 0.00195955 0.00223797
v 0.00576473 0.00197620 0.00222003
v 0.00576473 0.00221191 0.00194450
v 0.00564164 0.00222536 0.00221682
v 0.00560185 0.00238164 0.00212519
v 0.00545732 0.00231823 0.00230781
v 0.00526127 0.00266858 0.00189837
v 0.00508676 0.00258083 0.00178624
v 0.00467514 0.00241366 0.00143190
v 0.00504442 0.00289404 -0.00159694
v 0.00511844 0.00289404 -0.00159694
v 0.00467514 0.00232976 -0.00169818
v 0.00480144 0.00262119 -0.00157836
v 0.00487407 0.00277875 -0.00144316
v 0.00500495 0.00293247 -0.00144316
v 0.00520164 0.00279476 -0.00169241
v 0.00520164 0.00293888 -0.00145405
v 0.00524772 0.00312911 -0.00102282
v 0.00534425 0.00316049 -0.00084790
v 0.00534649 0.00290941 -0.00137396
v 0.00576473 0.00251550 -0.00123812
v 0.00576473 0.00235346 0.00170486
v 0.00558393 0.00261414 0.00182084
v 0.00545732 0.00242968 0.00217710
v 0.00548089 0.00256931 0.00197590
v 0.00540932 0.00266858 0.00189837
v 0.00529412 0.00289532 0.00159337
v 0.00511962 0.00282743 0.00148829
v 0.00506223 0.00288443 0.00131400
v 0.00506511 0.00314256 0.00078154
v 0.00467514 0.00252639 0.00117560
v 0.00506319 0.00314384 -0.00105294
v 0.00507322 0.00314384 -0.00105294
v 0.00467514 0.00245145 -0.00144316
v 0.00467514 0.00255714 -0.00118173
v 0.00478672 0.00264809 -0.00144316
v 0.00483418 0.00282359 -0.00118109
v 0.00498426 0.00301894 -0.00115674
v 0.00517455 0.00316882 -0.00092863
v 0.00519546 0.00322838 -0.00065760
v 0.00536527 0.00318227 -0.00065760
v 0.00576473 0.00253088 -0.00117661
v 0.00576473 0.00247899 0.00145433
v 0.00560825 0.00265705 0.00164591
v 0.00557678 0.00286458 0.00124929
v 0.00553764 0.00283127 0.00143767
v 0.00540665 0.00293375 0.00143767
v 0.00535759 0.00289532 0.00159337
v 0.00531823 0.00314512 0.00105001
v 0.00512442 0.00311309 0.00091353
v 0.00520228 0.00292543 0.00141588
v 0.00525519 0.00316433 0.00091353
v 0.00516964 0.00319700 0.00067709
v 0.00519546 0.00325464 0.00038939
v 0.00504837 0.00316241 0.00060661
v 0.00467514 0.00271470 0.00065146
v 0.00467514 0.00265513 0.00084561
v 0.00467514 0.00265321 0.00085074
v 0.00504186 0.00316177 -0.00091966
v 0.00467514 0.00262631 -0.00091966
v 0.00481669 0.00285561 -0.00091966
v 0.00492495 0.00301189 -0.00091966
v 0.00519546 0.00326361 -0.00039553
v 0.00538628 0.00320468 -0.00039553
v 0.00576473 0.00262759 -0.00065760
v 0.00576473 0.00248604 0.00143959
v 0.00563257 0.00270061 0.00143767
v 0.00576473 0.00258340 0.00117432
v 0.00559300 0.00288956 0.00107500
v 0.00549017 0.00303687 0.00091353
v 0.00535919 0.00316433 0.00091353
v 0.00533039 0.00314512 0.00105001
v 0.00519546 0.00327834 0.00012797
v 0.00503205 0.00318227 0.00038939
v 0.00539673 0.00319636 0.00065146
v 0.00467514 0.00271598 0.00064570
v 0.00501455 0.00318931 -0.00065760
v 0.00467514 0.00274352 -0.00030198
v 0.00487024 0.00298819 -0.00064991
v 0.00519546 0.00328090 -0.00013346
v 0.00540100 0.00321878 -0.00013346
v 0.00553198 0.00304648 -0.00013346
v 0.00576473 0.00266026 -0.00040322
v 0.00576473 0.00264296 0.00091353
v 0.00560260 0.00290621 0.00091353
v 0.00552772 0.00305545 0.00065146
v 0.00540900 0.00322262 0.00012797
v 0.00501007 0.00320468 -0.00013346
v 0.00501807 0.00319892 0.00012797
v 0.00540943 0.00321557 0.00038939
v 0.00467514 0.00279156 0.00015103
v 0.00467514 0.00276018 0.00038555
v 0.00467514 0.00275954 0.00038939
v 0.00500783 0.00320212 -0.00039553
v 0.00467514 0.00276786 -0.00013602
v 0.00467514 0.00279156 0.00013053
v 0.00553998 0.00305929 0.00012797
v 0.00576473 0.00267819 -0.00013346
v 0.00576473 0.00268716 0.00065146
v 0.00561358 0.00292478 0.00065146
v 0.00554030 0.00306313 0.00038939
v 0.00576473 0.00269548 0.00012797
v 0.00576473 0.00270573 0.00038939
v 0.00576473 0.00269933 0.00021895
f 1 2 3
f 1 3 4
f 1 4 5
f 1 5 6
f 1 6 12
f 1 12 17
f 1 17 16
f 1 16 21
f 1 21 27
f 1 27 40
f 1 40 44
f 1 44 50
f 1 50 57
f 1 57 56
f 1 56 63
f 1 63 71
f 1 71 79
f 1 79 91
f 1 91 98
f 1 98 97
f 1 97 96
f 1 96 95
f 1 95 94
f 1 94 118
f 1 118 117
f 1 117 116
f 1 116 115
f 1 115 132
f 1 132 145
f 1 145 157
f 1 157 168
f 1 168 182
f 1 182 203
f 1 203 202
f 1 202 201
f 1 201 229
f 1 229 228
f 1 228 227
f 1 227 226
f 1 226 251
f 1 251 250
f 1 250 266
f 1 266 283
f 1 283 305
f 1 305 332
f 1 332 331
f 1 331 330
f 1 330 350
f 1 350 367
f 1 367 366
f 1 366 365
f 1 365 370
f 1 370 369
f 1 369 352
f 1 352 334
f 1 334 309
f 1 309 308
f 1 308 286
f 1 286 269
f 1 269 268
f 1 268 253
f 1 253 234
f 1 234 233
f 1 233 232
f 1 232 230
f 1 230 206
f 1 206 205
f 1 205 184
f 1 184 183
f 1 183 171
f 1 171 169
f 1 169 158
f 1 158 148
f 1 148 146
f 1 146 136
f 1 136 134
f 1 134 133
f 1 133 119
f 1 119 100
f 1 100 99
f 1 99 81
f 1 81 72
f 1 72 65
f 1 65 59
f 1 59 52
f 1 52 46
f 1 46 38
f 1 38 37
f 1 37 32
f 1 32 25
f 1 25 19
f 1 19 14
f 1 14 8
f 1 8 2
f 2 7 3
f 2 8 7
f 3 7 13
f 3 13 18
f 3 18 23
f 3 23 24
f 3 24 31
f 3 31 36
f 3 36 35
f 3 35 34
f 3 34 33
f 3 33 45
f 3 45 47
f 3 47 51
f 3 51 58
f 3 58 64
f 3 64 67
f 3 67 75
f 3 75 74
f 3 74 83
f 3 83 88
f 3 88 87
f 3 87 86
f 3 86 85
f 3 85 109
f 3 109 108
f 3 108 107
f 3 107 106
f 3 106 127
f 3 127 126
f 3 126 125
f 3 125 141
f 3 141 140
f 3 140 152
f 3 152 163
f 3 163 175
f 3 175 194
f 3 194 193
f 3 193 192
f 3 192 215
f 3 215 214
f 3 214 240
f 3 240 258
f 3 258 274
f 3 274 295
f 3 295 316
f 3 316 339
f 3 339 357
f 3 357 372
f 3 372 376
f 3 376 378
f 3 378 377
f 3 377 373
f 3 373 358
f 3 358 342
f 3 342 340
f 3 340 317
f 3 317 296
f 3 296 277
f 3 277 276
f 3 276 275
f 3 275 261
f 3 261 260
f 3 260 259
f 3 259 244
f 3 244 243
f 3 243 242
f 3 242 241
f 3 241 217
f 3 217 204
f 3 204 195
f 3 195 177
f 3 177 166
f 3 166 164
f 3 164 153
f 3 153 142
f 3 142 128
f 3 128 112
f 3 112 110
f 3 110 89
f 3 89 77
f 3 77 68
f 3 68 61
f 3 61 54
f 3 54 48
f 3 48 41
f 3 41 28
f 3 28 22
f 3 22 15
f 3 15 11
f 3 11 9
f 3 9 5
f 3 5 4
f 5 9 10
f 5 10 6
f 6 10 9
f 6 9 11
f 6 11 12
f 7 8 13
f 8 14 13
f 11 15 16
f 11 16 17
f 11 17 12
f 13 14 18
f 14 19 20
f 14 20 18
f 15 21 16
f 15 22 21
f 18 20 23
f 19 24 20
f 19 25 26
f 19 26 24
f 20 24 23
f 21 22 27
f 22 28 29
f 22 29 30
f 22 30 27
f 24 26 31
f 25 32 26
f 26 33 34
f 26 34 35
f 26 35 36
f 26 36 31
f 26 32 37
f 26 37 38
f 26 38 39
f 26 39 33
f 27 30 29
f 27 29 40
f 28 41 42
f 28 42 43
f 28 43 29
f 29 43 44
f 29 44 40
f 33 39 45
f 38 46 39
f 39 46 47
f 39 47 45
f 41 48 49
f 41 49 42
f 42 50 44
f 42 44 43
f 42 49 50
f 46 51 47
f 46 52 53
f 46 53 51
f 48 54 49
f 49 54 55
f 49 55 56
f 49 56 57
f 49 57 50
f 51 53 58
f 52 59 60
f 52 60 53
f 53 60 58
f 54 61 62
f 54 62 55
f 55 62 56
f 56 62 63
f 58 60 64
f 59 65 66
f 59 66 60
f 60 67 64
f 60 66 67
f 61 68 62
f 62 68 69
f 62 69 63
f 63 69 70
f 63 70 71
f 65 72 73
f 65 73 66
f 66 74 75
f 66 75 67
f 66 73 82
f 66 82 76
f 66 76 74
f 68 77 78
f 68 78 69
f 69 78 70
f 70 79 71
f 70 78 80
f 70 80 79
f 72 81 73
f 73 81 82
f 74 76 83
f 76 82 102
f 76 102 84
f 76 84 85
f 76 85 86
f 76 86 87
f 76 87 88
f 76 88 83
f 77 89 90
f 77 90 78
f 78 90 80
f 79 80 91
f 80 92 113
f 80 113 93
f 80 93 94
f 80 94 95
f 80 95 96
f 80 96 97
f 80 97 98
f 80 98 91
f 80 90 92
f 81 99 82
f 82 99 100
f 82 100 101
f 82 101 102
f 84 102 103
f 84 103 104
f 84 104 105
f 84 105 106
f 84 106 107
f 84 107 108
f 84 108 109
f 84 109 85
f 89 110 111
f 89 111 90
f 90 111 92
f 92 111 112
f 92 112 113
f 93 113 130
f 93 130 114
f 93 114 115
f 93 115 116
f 93 116 117
f 93 117 118
f 93 118 94
f 100 119 101
f 101 119 102
f 102 120 121
f 102 121 103
f 102 119 120
f 103 105 122
f 103 122 104
f 103 121 123
f 103 123 124
f 103 124 125
f 103 125 126
f 103 126 105
f 104 122 105
f 105 126 127
f 105 127 106
f 110 112 111
f 112 128 113
f 113 129 130
f 113 128 129
f 114 130 143
f 114 143 131
f 114 131 115
f 115 131 132
f 119 133 120
f 120 133 121
f 121 133 134
f 121 134 123
f 123 135 124
f 123 134 136
f 123 136 135
f 124 135 137
f 124 137 138
f 124 138 139
f 124 139 140
f 124 140 141
f 124 141 125
f 128 142 129
f 129 142 130
f 130 142 143
f 131 143 144
f 131 144 132
f 132 144 145
f 135 136 146
f 135 146 137
f 137 147 138
f 137 146 148
f 137 148 147
f 138 147 149
f 138 149 150
f 138 150 151
f 138 151 139
f 139 151 140
f 140 151 152
f 142 153 143
f 143 154 144
f 143 153 154
f 144 154 155
f 144 155 156
f 144 156 145
f 145 156 157
f 147 148 158
f 147 158 159
f 147 159 149
f 149 159 160
f 149 160 161
f 149 161 162
f 149 162 150
f 150 162 163
f 150 163 152
f 150 152 151
f 153 164 154
f 154 164 155
f 155 165 156
f 155 164 166
f 155 166 165
f 156 165 167
f 156 167 168
f 156 168 157
f 158 169 159
f 159 169 160
f 160 170 161
f 160 169 171
f 160 171 170
f 161 170 172
f 161 172 173
f 161 173 174
f 161 174 162
f 162 174 175
f 162 175 163
f 165 176 167
f 165 166 177
f 165 177 176
f 167 178 179
f 167 179 180
f 167 180 168
f 167 176 181
f 167 181 178
f 168 180 179
f 168 179 182
f 170 171 183
f 170 183 184
f 170 184 185
f 170 185 186
f 170 186 187
f 170 187 188
f 170 188 189
f 170 189 172
f 172 189 173
f 173 189 190
f 173 190 191
f 173 191 174
f 174 191 192
f 174 192 193
f 174 193 194
f 174 194 175
f 176 177 195
f 176 195 181
f 178 196 197
f 178 197 179
f 178 181 198
f 178 198 199
f 178 199 196
f 179 197 200
f 179 200 201
f 179 201 202
f 179 202 203
f 179 203 182
f 181 195 204
f 181 204 198
f 184 205 186
f 184 186 185
f 186 205 187
f 187 205 206
f 187 206 207
f 187 207 208
f 187 208 209
f 187 209 188
f 188 210 190
f 188 190 211
f 188 211 189
f 188 209 212
f 188 212 210
f 189 211 190
f 190 210 212
f 190 212 213
f 190 213 191
f 191 213 214
f 191 214 215
f 191 215 192
f 196 199 216
f 196 216 197
f 197 216 200
f 198 204 217
f 198 217 218
f 198 218 199
f 199 218 219
f 199 219 220
f 199 220 221
f 199 221 222
f 199 222 216
f 200 216 222
f 200 222 223
f 200 223 224
f 200 224 225
f 200 225 226
f 200 226 227
f 200 227 228
f 200 228 229
f 200 229 201
f 206 230 207
f 207 230 208
f 208 230 209
f 209 231 212
f 209 230 232
f 209 232 233
f 209 233 234
f 209 234 235
f 209 235 236
f 209 236 231
f 212 231 213
f 213 231 237
f 213 237 214
f 214 237 238
f 214 238 239
f 214 239 240
f 217 241 218
f 218 241 242
f 218 242 220
f 218 220 219
f 220 242 243
f 220 243 244
f 220 244 221
f 221 244 245
f 221 245 246
f 221 246 247
f 221 247 248
f 221 248 224
f 221 224 223
f 221 223 222
f 224 248 225
f 225 248 249
f 225 249 250
f 225 250 251
f 225 251 226
f 231 236 252
f 231 252 237
f 234 253 235
f 235 253 254
f 235 254 252
f 235 252 236
f 237 252 255
f 237 255 256
f 237 256 239
f 237 239 238
f 239 256 257
f 239 257 240
f 240 257 258
f 244 259 245
f 245 259 246
f 246 259 260
f 246 260 247
f 247 260 261
f 247 261 262
f 247 262 263
f 247 263 264
f 247 264 248
f 248 264 249
f 249 264 265
f 249 265 250
f 250 265 266
f 252 254 267
f 252 267 255
f 253 268 254
f 254 268 269
f 254 269 270
f 254 270 271
f 254 271 267
f 255 267 272
f 255 272 257
f 255 257 256
f 257 272 273
f 257 273 258
f 258 273 274
f 261 275 262
f 262 275 263
f 263 275 276
f 263 276 277
f 263 277 278
f 263 278 279
f 263 279 280
f 263 280 264
f 264 280 265
f 265 280 281
f 265 281 282
f 265 282 266
f 266 282 283
f 267 271 284
f 267 284 285
f 267 285 272
f 269 286 270
f 270 286 287
f 270 287 271
f 271 287 288
f 271 288 289
f 271 289 284
f 272 290 273
f 272 285 290
f 273 285 291
f 273 291 292
f 273 292 293
f 273 293 294
f 273 294 274
f 273 290 285
f 274 294 295
f 277 296 297
f 277 297 279
f 277 279 278
f 279 298 280
f 279 297 299
f 279 299 298
f 280 298 300
f 280 300 281
f 281 300 322
f 281 322 301
f 281 301 302
f 281 302 282
f 282 302 283
f 283 302 303
f 283 303 304
f 283 304 305
f 284 289 306
f 284 306 307
f 284 307 285
f 285 307 292
f 285 292 291
f 286 308 287
f 287 308 309
f 287 309 310
f 287 310 311
f 287 311 288
f 288 311 312
f 288 312 289
f 289 312 306
f 292 307 313
f 292 313 293
f 293 313 314
f 293 314 315
f 293 315 295
f 293 295 294
f 295 315 316
f 296 317 297
f 297 317 318
f 297 318 319
f 297 319 320
f 297 320 321
f 297 321 322
f 297 322 300
f 297 300 299
f 298 299 300
f 301 323 324
f 301 324 304
f 301 304 325
f 301 325 303
f 301 303 302
f 301 322 346
f 301 346 323
f 303 325 304
f 304 324 323
f 304 323 326
f 304 326 327
f 304 327 328
f 304 328 329
f 304 329 330
f 304 330 331
f 304 331 332
f 304 332 305
f 306 312 333
f 306 333 314
f 306 314 307
f 307 314 313
f 309 311 310
f 309 334 311
f 311 334 335
f 311 335 336
f 311 336 333
f 311 333 312
f 314 333 337
f 314 337 315
f 315 337 338
f 315 338 316
f 316 338 339
f 317 340 318
f 318 340 341
f 318 341 319
f 319 341 340
f 319 340 342
f 319 342 343
f 319 343 344
f 319 344 345
f 319 345 346
f 319 346 320
f 320 346 321
f 321 346 322
f 323 346 328
f 323 328 326
f 326 328 327
f 328 347 348
f 328 348 329
f 328 346 345
f 328 345 349
f 328 349 347
f 329 348 350
f 329 350 330
f 333 336 351
f 333 351 337
f 334 352 335
f 335 352 353
f 335 353 336
f 336 353 351
f 337 351 354
f 337 354 355
f 337 355 338
f 338 355 356
f 338 356 339
f 339 356 357
f 342 358 343
f 343 358 359
f 343 359 360
f 343 360 344
f 344 360 349
f 344 349 345
f 347 361 354
f 347 354 362
f 347 362 363
f 347 363 348
f 347 349 364
f 347 364 361
f 348 363 365
f 348 365 366
f 348 366 367
f 348 367 350
f 349 360 364
f 351 368 354
f 351 353 369
f 351 369 370
f 351 370 368
f 352 369 353
f 354 368 362
f 354 361 355
f 355 361 371
f 355 371 356
f 356 371 357
f 357 371 372
f 358 373 359
f 359 373 374
f 359 374 360
f 360 374 375
f 360 375 364
f 361 364 375
f 361 375 371
f 362 368 365
f 362 365 363
f 365 368 370
f 371 376 372
f 371 375 377
f 371 377 378
f 371 378 376
f 373 377 375
f 373 375 374

