# https://github.com/mikedh/trimesh
v 0.00414762 0.00013070 0.00323751
v 0.00440049 0.00013070 0.00322602
v 0.00414762 0.00039235 0.00322985
v 0.00400661 0.00039235 0.00315389
v 0.00400885 0.00013070 0.00315133
v 0.00412433 -0.00012967 0.00321134
v 0.00416674 -0.00039260 0.00321580
v 0.00440957 -0.00039260 0.00321900
v 0.00438286 0.00039235 0.00321580
v 0.00443478 -0.00012583 0.00321006
v 0.00454236 -0.00020964 0.00314303
v 0.00453883 -0.00003499 0.00313793
v 0.00435551 0.00065464 0.00319474
v 0.00414762 0.00065464 0.00320176
v 0.00401558 0.00079346 0.00314112
v 0.00401109 0.00065464 0.00314686
v 0.00358378 0.00006673 0.00279770
v 0.00358378 -0.00019620 0.00279770
v 0.00401334 -0.00004203 0.00314495
v 0.00402135 -0.00021667 0.00313346
v 0.00358378 -0.00045529 0.00277472
v 0.00419580 -0.00065425 0.00319474
v 0.00434771 -0.00091654 0.00316282
v 0.00443008 -0.00064018 0.00318453
v 0.00453114 -0.00071822 0.00313346
v 0.00454161 -0.00054358 0.00314176
v 0.00453135 0.00013070 0.00312644
v 0.00451383 0.00039235 0.00310027
v 0.00454278 -0.00039260 0.00314303
v 0.00467504 -0.00039260 0.00293047
v 0.00467504 -0.00012839 0.00292728
v 0.00467504 0.00000979 0.00291260
v 0.00467504 0.00013070 0.00289855
v 0.00448648 0.00065464 0.00306197
v 0.00431214 0.00091629 0.00316282
v 0.00428297 0.00105511 0.00314303
v 0.00426097 0.00105511 0.00314303
v 0.00416322 0.00089518 0.00315899
v 0.00358378 0.00066808 0.00269939
v 0.00358378 0.00039235 0.00277089
v 0.00358378 0.00033222 0.00277727
v 0.00358378 0.00013070 0.00279387
v 0.00408652 0.00096811 0.00312069
v 0.00401024 0.00158289 0.00288451
v 0.00399048 0.00144023 0.00291004
v 0.00358378 -0.00071375 0.00272365
v 0.00424185 -0.00091654 0.00316282
v 0.00429280 -0.00105536 0.00314303
v 0.00447869 -0.00091654 0.00311495
v 0.00467504 -0.00064785 0.00291898
v 0.00454310 -0.00157610 0.00288068
v 0.00455988 -0.00144048 0.00290366
v 0.00458573 -0.00117819 0.00294707
v 0.00460314 -0.00091654 0.00298409
v 0.00467504 -0.00091654 0.00287813
v 0.00467504 -0.00051607 0.00292664
v 0.00467504 0.00039235 0.00284557
v 0.00456970 0.00065464 0.00293111
v 0.00455165 0.00083185 0.00289855
v 0.00453060 0.00100650 0.00285898
v 0.00445668 0.00091821 0.00299494
v 0.00435946 0.00115683 0.00301537
v 0.00432987 0.00144023 0.00292856
v 0.00429408 0.00159441 0.00289153
v 0.00414762 0.00159761 0.00289281
v 0.00358378 0.00118946 0.00249513
v 0.00414762 0.00172811 0.00280855
v 0.00414762 0.00192067 0.00267769
v 0.00398204 0.00189252 0.00265726
v 0.00358378 -0.00107200 0.00260237
v 0.00427347 -0.00105536 0.00314303
v 0.00426075 -0.00159594 0.00289217
v 0.00440957 -0.00159338 0.00289089
v 0.00440957 -0.00172452 0.00280855
v 0.00440957 -0.00192220 0.00267769
v 0.00457002 -0.00189021 0.00265280
v 0.00459107 -0.00167910 0.00274280
v 0.00467504 -0.00169573 0.00259279
v 0.00467504 -0.00156523 0.00265599
v 0.00467504 -0.00144048 0.00271408
v 0.00467504 -0.00141553 0.00272557
v 0.00467504 -0.00126072 0.00278493
v 0.00467504 -0.00117947 0.00281046
v 0.00467504 -0.00102082 0.00285323
v 0.00467504 0.00063673 0.00276706
v 0.00467504 0.00071222 0.00273386
v 0.00467504 0.00091693 0.00264131
v 0.00450732 0.00117858 0.00281110
v 0.00446416 0.00142936 0.00273131
v 0.00434803 0.00168973 0.00274599
v 0.00431246 0.00189061 0.00265726
v 0.00414762 0.00205182 0.00257811
v 0.00391805 0.00197377 0.00249896
v 0.00378846 0.00196417 0.00228256
v 0.00375075 0.00210620 0.00210128
v 0.00358378 0.00179017 0.00202340
v 0.00396612 0.00217401 0.00242044
v 0.00358378 -0.00122745 0.00253151
v 0.00358378 -0.00157610 0.00233171
v 0.00358378 -0.00188957 0.00213383
v 0.00358378 -0.00203799 0.00203106
v 0.00423928 -0.00189533 0.00266109
v 0.00440957 -0.00205334 0.00258003
v 0.00458605 -0.00217170 0.00241917
v 0.00463049 -0.00197210 0.00249768
v 0.00467504 -0.00177698 0.00254428
v 0.00467504 0.00116323 0.00250917
v 0.00467504 0.00144855 0.00233746
v 0.00467504 0.00170572 0.00216766
v 0.00467504 0.00196545 0.00195829
v 0.00431299 0.00215609 0.00241214
v 0.00414762 0.00220024 0.00244725
v 0.00387489 0.00222774 0.00222384
v 0.00378365 0.00228084 0.00202276
v 0.00358378 0.00203518 0.00182424
v 0.00358378 0.00192067 0.00191808
v 0.00414762 0.00233138 0.00232533
v 0.00395832 0.00242734 0.00217213
v 0.00358378 -0.00217234 0.00191233
v 0.00423896 -0.00216274 0.00241661
v 0.00440957 -0.00233483 0.00233044
v 0.00440957 -0.00220368 0.00244917
v 0.00459363 -0.00242695 0.00217022
v 0.00465143 -0.00224590 0.00224362
v 0.00467504 -0.00219473 0.00224235
v 0.00467504 -0.00197722 0.00241342
v 0.00467504 -0.00192348 0.00245108
v 0.00467504 -0.00186398 0.00248938
v 0.00467504 0.00222263 0.00168317
v 0.00430541 0.00240239 0.00214851
v 0.00358378 0.00220791 0.00168062
v 0.00378889 0.00254889 0.00175019
v 0.00414762 0.00244333 0.00219447
v 0.00396356 0.00266724 0.00189701
v 0.00358378 -0.00231116 0.00178466
v 0.00424633 -0.00240904 0.00215681
v 0.00440957 -0.00244870 0.00219958
v 0.00459075 -0.00266813 0.00189893
v 0.00467504 -0.00247877 0.00196595
v 0.00467504 -0.00224207 0.00220341
v 0.00467504 0.00241391 0.00143167
v 0.00428928 0.00263461 0.00185680
v 0.00414762 0.00257448 0.00203106
v 0.00358378 0.00234609 0.00150444
v 0.00375225 0.00262438 0.00157529
v 0.00381314 0.00280222 0.00143741
v 0.00399283 0.00289499 0.00159253
v 0.00358378 -0.00243782 0.00164295
v 0.00358378 -0.00255362 0.00150699
v 0.00426257 -0.00264126 0.00186701
v 0.00440957 -0.00257920 0.00204000
v 0.00463455 -0.00275321 0.00168828
v 0.00467504 -0.00275449 0.00160785
v 0.00467504 -0.00261439 0.00180637
v 0.00467504 -0.00249156 0.00195127
v 0.00456255 -0.00289523 0.00159316
v 0.00467504 0.00252650 0.00117569
v 0.00428297 0.00288731 0.00132762
v 0.00414762 0.00266660 0.00190020
v 0.00423629 0.00285532 0.00150252
v 0.00414837 0.00279903 0.00168764
v 0.00406173 0.00289499 0.00159253
v 0.00358378 0.00243758 0.00138634
v 0.00358378 0.00252970 0.00124719
v 0.00376913 0.00285788 0.00126506
v 0.00401045 0.00314512 0.00105058
v 0.00394411 0.00293337 0.00143741
v 0.00358378 -0.00265149 0.00135762
v 0.00440957 -0.00267197 0.00190914
v 0.00440284 -0.00280887 0.00168828
v 0.00467504 -0.00281207 0.00151273
v 0.00448574 -0.00289523 0.00159316
v 0.00454556 -0.00314473 0.00105058
v 0.00460827 -0.00293362 0.00143741
v 0.00467504 -0.00290099 0.00136528
v 0.00467504 0.00265317 0.00085078
v 0.00467504 0.00265509 0.00084568
v 0.00467504 0.00271522 0.00065162
v 0.00418864 0.00306963 0.00091334
v 0.00405778 0.00316431 0.00091334
v 0.00402317 0.00314512 0.00105058
v 0.00358378 0.00264741 0.00105058
v 0.00383547 0.00307795 0.00091334
v 0.00378141 0.00311953 0.00070844
v 0.00374178 0.00290586 0.00109080
v 0.00358378 0.00273185 0.00090121
v 0.00396644 0.00316431 0.00091334
v 0.00358378 -0.00275705 0.00117761
v 0.00431107 -0.00286517 0.00152614
v 0.00358378 -0.00284150 0.00103015
v 0.00358378 -0.00289395 0.00091462
v 0.00453370 -0.00314473 0.00105058
v 0.00458423 -0.00316392 0.00091334
v 0.00467504 -0.00314025 0.00078823
v 0.00467504 -0.00308267 0.00094589
v 0.00467504 -0.00301614 0.00110037
v 0.00467504 0.00275936 0.00038991
v 0.00423234 0.00308882 0.00065162
v 0.00410147 0.00319630 0.00065162
v 0.00388578 0.00323340 0.00038991
v 0.00387553 0.00318734 0.00063311
v 0.00375257 0.00314576 0.00053353
v 0.00371902 0.00294744 0.00091334
v 0.00358378 0.00281886 0.00069120
v 0.00358378 -0.00292466 0.00084185
v 0.00358378 -0.00305772 0.00044927
v 0.00358378 -0.00309611 0.00027182
v 0.00449503 -0.00316392 0.00091334
v 0.00358378 -0.00299567 0.00065865
v 0.00358378 -0.00300655 0.00062226
v 0.00464288 -0.00319591 0.00065162
v 0.00467504 -0.00318439 0.00062035
v 0.00467504 0.00276000 0.00038544
v 0.00467504 0.00279135 0.00015117
v 0.00411653 0.00321741 0.00038991
v 0.00388578 0.00326283 0.00012755
v 0.00374274 0.00315919 0.00038991
v 0.00358378 0.00290394 0.00038991
v 0.00358378 0.00288731 0.00045885
v 0.00358378 0.00283485 0.00064843
v 0.00358378 -0.00311786 0.00012053
v 0.00444760 -0.00319591 0.00065162
v 0.00467504 -0.00320486 0.00049970
v 0.00467151 -0.00325476 0.00012755
v 0.00467504 0.00279135 0.00013074
v 0.00411814 0.00322765 0.00012755
v 0.00388578 0.00327115 -0.00013353
v 0.00371998 0.00318734 -0.00013353
v 0.00372810 0.00317839 0.00012755
v 0.00358378 0.00295704 0.00012755
v 0.00358378 0.00293145 0.00025458
v 0.00358378 -0.00312682 0.00002989
v 0.00443296 -0.00321766 0.00038991
v 0.00467504 -0.00324773 0.00016841
v 0.00467151 -0.00326436 -0.00013353
v 0.00467504 -0.00326244 -0.00013353
v 0.00467504 -0.00325220 0.00013266
v 0.00443222 -0.00322789 0.00012755
v 0.00467504 0.00276768 -0.00013608
v 0.00411119 0.00322701 -0.00013353
v 0.00388578 0.00325707 -0.00039524
v 0.00372298 0.00317583 -0.00065760
v 0.00371849 0.00318542 -0.00039524
v 0.00359734 0.00301206 -0.00039524
v 0.00359916 0.00301206 -0.00013353
v 0.00358378 0.00298903 -0.00013353
v 0.00358378 0.00296727 0.00004585
v 0.00358378 -0.00313769 -0.00013353
v 0.00467151 -0.00325284 -0.00039524
v 0.00358378 -0.00313705 -0.00040035
v 0.00467504 -0.00325092 -0.00039524
v 0.00467504 0.00274337 -0.00030204
v 0.00409666 0.00321485 -0.00039524
v 0.00407380 0.00319374 -0.00065760
v 0.00388578 0.00322637 -0.00065760
v 0.00373612 0.00316111 -0.00086059
v 0.00361038 0.00301206 -0.00065760
v 0.00358378 0.00299158 -0.00039524
v 0.00467151 -0.00322278 -0.00065760
v 0.00467504 -0.00322150 -0.00065760
v 0.00358378 -0.00313129 -0.00048844
v 0.00358378 -0.00311850 -0.00065760
v 0.00467504 0.00262630 -0.00091931
v 0.00404549 0.00316751 -0.00087080
v 0.00388578 0.00317519 -0.00090463
v 0.00367544 0.00298007 -0.00118103
v 0.00358378 0.00284700 -0.00118103
v 0.00358378 0.00286940 -0.00110188
v 0.00366518 0.00303509 -0.00093655
v 0.00358378 0.00291354 -0.00092633
v 0.00358378 0.00295384 -0.00073994
v 0.00388578 0.00313680 -0.00103549
v 0.00373943 0.00289307 -0.00159594
v 0.00370845 0.00292761 -0.00144338
v 0.00358378 0.00296983 -0.00065760
v 0.00454513 -0.00314345 -0.00105081
v 0.00464801 -0.00316712 -0.00093208
v 0.00467504 -0.00315560 -0.00096783
v 0.00454011 -0.00314345 -0.00105081
v 0.00358378 -0.00308907 -0.00080250
v 0.00467504 0.00255721 -0.00118167
v 0.00401857 0.00288283 -0.00157743
v 0.00467504 0.00248364 -0.00136359
v 0.00467504 0.00245101 -0.00144338
v 0.00358378 0.00276832 -0.00139870
v 0.00388578 0.00307411 -0.00118103
v 0.00388578 0.00295960 -0.00144338
v 0.00388578 0.00289179 -0.00159275
v 0.00388578 0.00280094 -0.00172361
v 0.00388578 0.00267044 -0.00190745
v 0.00370503 0.00266724 -0.00190234
v 0.00367063 0.00275232 -0.00169233
v 0.00358378 0.00262758 -0.00169999
v 0.00358378 0.00273505 -0.00147594
v 0.00358378 0.00275360 -0.00143700
v 0.00467504 -0.00289395 -0.00159722
v 0.00467151 -0.00296304 -0.00144338
v 0.00464801 -0.00308907 -0.00115550
v 0.00467504 -0.00310634 -0.00110762
v 0.00358378 -0.00306348 -0.00091931
v 0.00358378 -0.00299375 -0.00115869
v 0.00358378 -0.00297904 -0.00119826
v 0.00358378 -0.00288244 -0.00144721
v 0.00467151 -0.00289395 -0.00159722
v 0.00467504 0.00232946 -0.00169808
v 0.00467504 0.00223350 -0.00185255
v 0.00467504 0.00214266 -0.00198533
v 0.00467504 0.00196545 -0.00220428
v 0.00403064 0.00263909 -0.00186468
v 0.00388578 0.00256424 -0.00203831
v 0.00368751 0.00242798 -0.00217683
v 0.00358378 0.00244397 -0.00198916
v 0.00467504 -0.00280823 -0.00172489
v 0.00467504 -0.00296240 -0.00144338
v 0.00358378 -0.00275705 -0.00168978
v 0.00358378 -0.00260288 -0.00193235
v 0.00467504 0.00194178 -0.00223109
v 0.00388578 0.00243310 -0.00217938
v 0.00368089 0.00217337 -0.00242961
v 0.00358378 0.00221943 -0.00226428
v 0.00358378 0.00225653 -0.00221960
v 0.00467151 -0.00267516 -0.00191447
v 0.00467504 -0.00267452 -0.00191383
v 0.00358378 -0.00244230 -0.00213597
v 0.00467504 0.00170444 -0.00246599
v 0.00388578 0.00229875 -0.00231088
v 0.00358378 0.00199424 -0.00248642
v 0.00382585 0.00189764 -0.00266898
v 0.00368591 0.00189764 -0.00266898
v 0.00358378 0.00195586 -0.00252344
v 0.00358378 -0.00239688 -0.00219279
v 0.00467151 -0.00257025 -0.00204533
v 0.00467504 -0.00257217 -0.00204214
v 0.00467504 0.00167374 -0.00249216
v 0.00388578 0.00216761 -0.00242259
v 0.00467504 0.00145431 -0.00265813
v 0.00377981 0.00159313 -0.00289687
v 0.00372116 0.00159313 -0.00289687
v 0.00358378 0.00160784 -0.00279409
v 0.00358378 0.00172939 -0.00270473
v 0.00467151 -0.00243910 -0.00218704
v 0.00358378 -0.00218193 -0.00241429
v 0.00467504 -0.00243910 -0.00218640
v 0.00467504 0.00130653 -0.00275324
v 0.00375609 0.00104936 -0.00314645
v 0.00467504 0.00117474 -0.00282729
v 0.00467504 0.00091885 -0.00294602
v 0.00362982 0.00142744 -0.00293070
v 0.00358378 0.00147094 -0.00288027
v 0.00375129 0.00104936 -0.00314645
v 0.00358378 0.00099434 -0.00310879
v 0.00358378 -0.00215698 -0.00243918
v 0.00467151 -0.00230732 -0.00231790
v 0.00467504 -0.00230988 -0.00231535
v 0.00467504 0.00073397 -0.00301943
v 0.00467504 0.00065464 -0.00304879
v 0.00467504 0.00040195 -0.00310879
v 0.00378195 0.00091629 -0.00316497
v 0.00362384 0.00039235 -0.00326072
v 0.00362384 0.00065464 -0.00321795
v 0.00358378 0.00139673 -0.00291921
v 0.00364787 0.00090030 -0.00316433
v 0.00358378 0.00086064 -0.00315858
v 0.00358378 0.00096939 -0.00311901
v 0.00467151 -0.00217681 -0.00243025
v 0.00358378 -0.00191004 -0.00265175
v 0.00467504 -0.00217681 -0.00243025
v 0.00467504 0.00013070 -0.00314965
v 0.00381837 0.00065464 -0.00319688
v 0.00362384 0.00013070 -0.00328242
v 0.00358378 0.00039235 -0.00324476
v 0.00358378 0.00046272 -0.00323582
v 0.00358378 0.00069814 -0.00319816
v 0.00358378 -0.00186974 -0.00268366
v 0.00467504 -0.00194843 -0.00260579
v 0.00467504 -0.00013095 -0.00316752
v 0.00358378 0.00013070 -0.00326582
v 0.00362384 -0.00013095 -0.00328370
v 0.00358378 -0.00013095 -0.00326901
v 0.00358378 -0.00164520 -0.00283559
v 0.00467504 -0.00187806 -0.00265558
v 0.00467504 -0.00039260 -0.00316497
v 0.00362384 -0.00039260 -0.00326455
v 0.00358378 -0.00039260 -0.00325306
v 0.00358378 -0.00151021 -0.00291857
v 0.00467504 -0.00169254 -0.00276920
v 0.00467504 -0.00065425 -0.00313433
v 0.00362384 -0.00065425 -0.00322688
v 0.00358378 -0.00065425 -0.00321986
v 0.00358378 -0.00113597 -0.00308645
v 0.00467504 -0.00144048 -0.00289431
v 0.00467504 -0.00150829 -0.00286112
v 0.00467504 -0.00091654 -0.00307049
v 0.00358378 -0.00093957 -0.00316497
v 0.00360130 -0.00091654 -0.00316880
v 0.00467504 -0.00115004 -0.00300028
f 1 2 3
f 1 3 4
f 1 4 5
f 1 5 6
f 1 6 7
f 1 7 8
f 1 8 2
f 2 9 3
f 2 8 10
f 2 10 11
f 2 11 12
f 2 12 9
f 3 9 13
f 3 13 14
f 3 14 15
f 3 15 16
f 3 16 4
f 4 16 17
f 4 17 18
f 4 18 5
f 5 19 6
f 5 18 19
f 6 19 7
f 7 20 21
f 7 21 22
f 7 22 8
f 7 19 20
f 8 22 23
f 8 23 24
f 8 24 25
f 8 25 26
f 8 26 10
f 9 12 27
f 9 27 28
f 9 28 13
f 10 26 29
f 10 29 11
f 11 29 30
f 11 30 31
f 11 31 12
f 12 31 32
f 12 32 33
f 12 33 27
f 13 34 35
f 13 35 14
f 13 28 34
f 14 35 36
f 14 36 37
f 14 37 38
f 14 38 15
f 15 39 40
f 15 40 41
f 15 41 42
f 15 42 16
f 15 38 43
f 15 43 44
f 15 44 45
f 15 45 39
f 16 42 17
f 17 42 41
f 17 41 40
f 17 40 39
f 17 39 66
f 17 66 96
f 17 96 116
f 17 116 115
f 17 115 131
f 17 131 144
f 17 144 163
f 17 163 164
f 17 164 182
f 17 182 186
f 17 186 204
f 17 204 220
f 17 220 219
f 17 219 218
f 17 218 231
f 17 231 230
f 17 230 247
f 17 247 246
f 17 246 258
f 17 258 275
f 17 275 271
f 17 271 270
f 17 270 268
f 17 268 267
f 17 267 285
f 17 285 295
f 17 295 294
f 17 294 293
f 17 293 312
f 17 312 321
f 17 321 320
f 17 320 327
f 17 327 330
f 17 330 340
f 17 340 339
f 17 339 349
f 17 349 361
f 17 361 351
f 17 351 364
f 17 364 363
f 17 363 373
f 17 373 372
f 17 372 371
f 17 371 377
f 17 377 379
f 17 379 384
f 17 384 389
f 17 389 394
f 17 394 390
f 17 390 385
f 17 385 380
f 17 380 374
f 17 374 366
f 17 366 352
f 17 352 342
f 17 342 331
f 17 331 324
f 17 324 316
f 17 316 315
f 17 315 303
f 17 303 302
f 17 302 301
f 17 301 300
f 17 300 280
f 17 280 262
f 17 262 261
f 17 261 250
f 17 250 248
f 17 248 232
f 17 232 221
f 17 221 207
f 17 207 206
f 17 206 210
f 17 210 209
f 17 209 205
f 17 205 191
f 17 191 190
f 17 190 188
f 17 188 168
f 17 168 149
f 17 149 148
f 17 148 135
f 17 135 119
f 17 119 101
f 17 101 100
f 17 100 99
f 17 99 98
f 17 98 70
f 17 70 46
f 17 46 21
f 17 21 18
f 18 21 19
f 19 21 20
f 21 46 22
f 22 46 47
f 22 47 23
f 23 47 71
f 23 71 48
f 23 48 49
f 23 49 25
f 23 25 24
f 25 50 26
f 25 49 51
f 25 51 52
f 25 52 53
f 25 53 54
f 25 54 55
f 25 55 50
f 26 50 56
f 26 56 30
f 26 30 29
f 27 33 57
f 27 57 28
f 28 57 58
f 28 58 34
f 30 56 50
f 30 50 55
f 30 55 84
f 30 84 83
f 30 83 82
f 30 82 81
f 30 81 80
f 30 80 79
f 30 79 78
f 30 78 106
f 30 106 128
f 30 128 127
f 30 127 126
f 30 126 125
f 30 125 140
f 30 140 139
f 30 139 155
f 30 155 154
f 30 154 153
f 30 153 171
f 30 171 175
f 30 175 196
f 30 196 195
f 30 195 194
f 30 194 212
f 30 212 223
f 30 223 234
f 30 234 237
f 30 237 236
f 30 236 251
f 30 251 260
f 30 260 278
f 30 278 299
f 30 299 314
f 30 314 296
f 30 296 313
f 30 313 323
f 30 323 333
f 30 333 343
f 30 343 354
f 30 354 367
f 30 367 375
f 30 375 381
f 30 381 386
f 30 386 392
f 30 392 391
f 30 391 396
f 30 396 393
f 30 393 387
f 30 387 382
f 30 382 376
f 30 376 368
f 30 368 357
f 30 357 356
f 30 356 355
f 30 355 347
f 30 347 346
f 30 346 344
f 30 344 336
f 30 336 334
f 30 334 325
f 30 325 317
f 30 317 308
f 30 308 307
f 30 307 306
f 30 306 305
f 30 305 284
f 30 284 283
f 30 283 281
f 30 281 263
f 30 263 252
f 30 252 239
f 30 239 225
f 30 225 214
f 30 214 213
f 30 213 197
f 30 197 178
f 30 178 177
f 30 177 176
f 30 176 157
f 30 157 141
f 30 141 129
f 30 129 110
f 30 110 109
f 30 109 108
f 30 108 107
f 30 107 87
f 30 87 86
f 30 86 85
f 30 85 57
f 30 57 33
f 30 33 32
f 30 32 31
f 34 58 59
f 34 59 60
f 34 60 61
f 34 61 35
f 35 61 36
f 36 62 63
f 36 63 64
f 36 64 65
f 36 65 37
f 36 61 62
f 37 65 44
f 37 44 43
f 37 43 38
f 39 45 44
f 39 44 66
f 44 65 67
f 44 67 68
f 44 68 69
f 44 69 66
f 46 70 71
f 46 71 47
f 48 71 72
f 48 72 73
f 48 73 51
f 48 51 49
f 51 73 74
f 51 74 75
f 51 75 76
f 51 76 77
f 51 77 78
f 51 78 79
f 51 79 80
f 51 80 81
f 51 81 82
f 51 82 52
f 52 82 53
f 53 82 83
f 53 83 84
f 53 84 54
f 54 84 55
f 57 85 58
f 58 85 59
f 59 85 60
f 60 85 86
f 60 86 87
f 60 87 88
f 60 88 63
f 60 63 61
f 61 63 62
f 63 89 64
f 63 88 89
f 64 89 90
f 64 90 91
f 64 91 92
f 64 92 68
f 64 68 67
f 64 67 65
f 66 69 93
f 66 93 94
f 66 94 95
f 66 95 96
f 68 92 69
f 69 92 97
f 69 97 93
f 70 98 72
f 70 72 71
f 72 99 100
f 72 100 101
f 72 101 102
f 72 102 103
f 72 103 75
f 72 75 74
f 72 74 73
f 72 98 99
f 75 103 76
f 76 103 104
f 76 104 105
f 76 105 106
f 76 106 78
f 76 78 77
f 87 107 88
f 88 107 108
f 88 108 89
f 89 108 109
f 89 109 90
f 90 109 91
f 91 109 110
f 91 110 111
f 91 111 112
f 91 112 92
f 92 112 97
f 93 97 113
f 93 113 94
f 94 113 114
f 94 114 95
f 95 114 115
f 95 115 116
f 95 116 96
f 97 112 117
f 97 117 118
f 97 118 113
f 101 119 102
f 102 119 120
f 102 120 121
f 102 121 122
f 102 122 103
f 103 122 104
f 104 122 121
f 104 121 123
f 104 123 124
f 104 124 125
f 104 125 105
f 105 126 127
f 105 127 128
f 105 128 106
f 105 125 126
f 110 129 111
f 111 129 130
f 111 130 117
f 111 117 112
f 113 118 114
f 114 131 115
f 114 118 132
f 114 132 131
f 117 130 133
f 117 133 134
f 117 134 118
f 118 134 132
f 119 135 120
f 120 135 136
f 120 136 121
f 121 136 137
f 121 137 138
f 121 138 123
f 123 139 140
f 123 140 124
f 123 138 139
f 124 140 125
f 129 141 130
f 130 141 142
f 130 142 143
f 130 143 133
f 131 132 145
f 131 145 144
f 132 134 146
f 132 146 145
f 133 143 134
f 134 143 147
f 134 147 146
f 135 148 136
f 136 148 149
f 136 149 150
f 136 150 151
f 136 151 137
f 137 151 138
f 138 152 153
f 138 153 154
f 138 154 155
f 138 155 139
f 138 151 156
f 138 156 152
f 141 157 158
f 141 158 142
f 142 159 143
f 142 158 160
f 142 160 161
f 142 161 162
f 142 162 159
f 143 159 162
f 143 162 147
f 144 145 163
f 145 164 163
f 145 146 165
f 145 165 164
f 146 147 165
f 147 162 181
f 147 181 166
f 147 166 167
f 147 167 165
f 149 168 150
f 150 169 151
f 150 168 170
f 150 170 169
f 151 169 156
f 152 156 153
f 153 156 171
f 156 172 192
f 156 192 173
f 156 173 174
f 156 174 175
f 156 175 171
f 156 169 172
f 157 176 158
f 158 176 177
f 158 177 178
f 158 178 179
f 158 179 180
f 158 180 181
f 158 181 160
f 160 181 162
f 160 162 161
f 164 165 182
f 165 167 183
f 165 183 184
f 165 184 185
f 165 185 186
f 165 186 182
f 166 184 183
f 166 183 167
f 166 181 180
f 166 180 187
f 166 187 184
f 168 188 189
f 168 189 170
f 169 170 172
f 170 189 172
f 172 189 190
f 172 190 191
f 172 191 192
f 173 192 208
f 173 208 193
f 173 193 194
f 173 194 195
f 173 195 174
f 174 195 196
f 174 196 175
f 178 197 198
f 178 198 179
f 179 198 199
f 179 199 180
f 180 199 200
f 180 200 187
f 184 187 201
f 184 201 202
f 184 202 203
f 184 203 185
f 185 203 186
f 186 203 204
f 187 200 201
f 188 190 189
f 191 205 192
f 192 206 207
f 192 207 208
f 192 205 209
f 192 209 210
f 192 210 206
f 193 208 222
f 193 222 211
f 193 211 212
f 193 212 194
f 197 213 198
f 198 213 214
f 198 214 199
f 199 215 216
f 199 216 200
f 199 214 215
f 200 216 217
f 200 217 202
f 200 202 201
f 202 217 218
f 202 218 219
f 202 219 220
f 202 220 204
f 202 204 203
f 207 221 222
f 207 222 208
f 211 223 212
f 211 222 224
f 211 224 223
f 214 225 226
f 214 226 215
f 215 226 216
f 216 227 228
f 216 228 229
f 216 229 217
f 216 226 227
f 217 229 230
f 217 230 231
f 217 231 218
f 221 232 222
f 222 233 224
f 222 232 233
f 223 224 234
f 224 235 236
f 224 236 237
f 224 237 234
f 224 233 238
f 224 238 235
f 225 239 240
f 225 240 226
f 226 240 227
f 227 240 241
f 227 241 242
f 227 242 243
f 227 243 228
f 228 243 244
f 228 244 245
f 228 245 229
f 229 245 246
f 229 246 247
f 229 247 230
f 232 248 233
f 233 248 238
f 235 249 251
f 235 251 236
f 235 238 248
f 235 248 250
f 235 250 249
f 239 252 253
f 239 253 240
f 240 253 241
f 241 253 254
f 241 254 255
f 241 255 256
f 241 256 242
f 242 256 257
f 242 257 244
f 242 244 243
f 244 257 258
f 244 258 246
f 244 246 245
f 249 259 260
f 249 260 251
f 249 250 261
f 249 261 262
f 249 262 259
f 252 254 253
f 252 263 254
f 254 264 255
f 254 263 264
f 255 264 265
f 255 265 256
f 256 266 267
f 256 267 268
f 256 268 269
f 256 269 270
f 256 270 271
f 256 271 257
f 256 265 272
f 256 272 273
f 256 273 274
f 256 274 266
f 257 271 275
f 257 275 258
f 259 276 277
f 259 277 278
f 259 278 260
f 259 262 279
f 259 279 276
f 262 280 279
f 263 281 264
f 264 282 272
f 264 272 265
f 264 281 283
f 264 283 284
f 264 284 282
f 266 274 285
f 266 285 267
f 268 270 269
f 272 282 286
f 272 286 273
f 273 286 287
f 273 287 288
f 273 288 289
f 273 289 290
f 273 290 291
f 273 291 292
f 273 292 274
f 274 292 293
f 274 293 294
f 274 294 295
f 274 295 285
f 276 279 304
f 276 304 296
f 276 296 297
f 276 297 298
f 276 298 299
f 276 299 278
f 276 278 277
f 279 280 300
f 279 300 301
f 279 301 302
f 279 302 303
f 279 303 304
f 282 289 288
f 282 288 287
f 282 287 286
f 282 284 305
f 282 305 306
f 282 306 307
f 282 307 308
f 282 308 309
f 282 309 310
f 282 310 290
f 282 290 289
f 290 310 291
f 291 310 311
f 291 311 312
f 291 312 293
f 291 293 292
f 296 304 313
f 296 314 297
f 297 314 299
f 297 299 298
f 303 315 304
f 304 315 316
f 304 316 313
f 308 317 309
f 309 317 310
f 310 318 311
f 310 317 318
f 311 319 320
f 311 320 321
f 311 321 312
f 311 318 319
f 313 322 323
f 313 316 322
f 316 324 322
f 317 325 318
f 318 326 319
f 318 325 326
f 319 327 320
f 319 326 328
f 319 328 329
f 319 329 330
f 319 330 327
f 322 324 331
f 322 331 332
f 322 332 333
f 322 333 323
f 325 334 326
f 326 335 328
f 326 334 335
f 328 335 334
f 328 334 336
f 328 336 337
f 328 337 338
f 328 338 329
f 329 338 339
f 329 339 340
f 329 340 330
f 331 341 332
f 331 342 341
f 332 341 343
f 332 343 333
f 336 344 337
f 337 345 350
f 337 350 338
f 337 344 346
f 337 346 347
f 337 347 345
f 338 348 349
f 338 349 339
f 338 350 351
f 338 351 348
f 341 342 352
f 341 352 353
f 341 353 354
f 341 354 343
f 345 347 355
f 345 355 356
f 345 356 357
f 345 357 358
f 345 358 359
f 345 359 360
f 345 360 350
f 348 361 349
f 348 351 361
f 350 360 362
f 350 362 363
f 350 363 364
f 350 364 351
f 352 365 353
f 352 366 365
f 353 367 354
f 353 365 367
f 357 368 358
f 358 368 369
f 358 369 359
f 359 369 368
f 359 368 370
f 359 370 371
f 359 371 372
f 359 372 373
f 359 373 360
f 360 373 362
f 362 373 363
f 365 366 367
f 366 374 367
f 367 374 375
f 368 376 370
f 370 377 371
f 370 376 378
f 370 378 379
f 370 379 377
f 374 380 381
f 374 381 375
f 376 382 378
f 378 382 383
f 378 383 384
f 378 384 379
f 380 385 381
f 381 385 386
f 382 387 383
f 383 387 388
f 383 388 389
f 383 389 384
f 385 390 391
f 385 391 392
f 385 392 386
f 387 393 394
f 387 394 395
f 387 395 388
f 388 395 394
f 388 394 389
f 390 394 391
f 391 394 396
f 393 396 394

