# https://github.com/mikedh/trimesh
v -0.00826979 -0.00013034 0.00494094
v -0.01261605 -0.00117871 0.00490611
v -0.00826979 -0.00173193 0.00493610
v -0.00826929 -0.00390316 0.00310086
v -0.00826979 0.00170238 0.00493610
v -0.01261605 0.00117765 0.00490611
v -0.01287816 -0.00013034 0.00489644
v -0.01261605 -0.00144053 0.00490515
v -0.01235394 -0.00170235 0.00490611
v -0.00826979 -0.00200251 0.00493514
v -0.00826979 -0.00228185 0.00493223
v -0.00826979 -0.00248890 0.00492159
v -0.00826979 -0.00259735 0.00490031
v -0.00826979 -0.00274962 0.00485968
v -0.00826979 -0.00292380 0.00476196
v -0.00826979 -0.00305088 0.00458105
v -0.00826979 -0.00324258 0.00430630
v -0.00826979 -0.00375088 0.00349268
v -0.00826979 -0.00453415 0.00217696
v -0.00826979 -0.00455825 0.00213245
v -0.00826979 -0.00540286 0.00054972
v -0.00826979 -0.00551898 0.00032527
v -0.00826979 -0.00555075 0.00025948
v -0.00826979 -0.00559457 0.00012791
v -0.00826979 -0.00559457 0.00002149
v -0.00826979 -0.00559347 -0.00013330
v -0.00826979 -0.00551788 -0.00032872
v -0.00826979 -0.00453415 -0.00218235
v -0.00826979 -0.00374979 -0.00349710
v -0.00826979 -0.00372240 -0.00354160
v -0.00826979 -0.00320863 -0.00436296
v -0.00826979 -0.00300706 -0.00465320
v -0.00826979 -0.00292271 -0.00476542
v -0.00826979 -0.00285698 -0.00480218
v -0.00826979 -0.00274962 -0.00485926
v -0.00826979 -0.00248452 -0.00492215
v -0.00826979 -0.00222599 -0.00493375
v -0.00826979 -0.00196417 -0.00493666
v -0.00826979 -0.00117871 -0.00493956
v -0.00826979 0.00013038 -0.00494246
v -0.00826979 0.00120504 -0.00493956
v -0.00826979 0.00200692 -0.00493666
v -0.00826979 0.00228846 -0.00493375
v -0.00826979 0.00248565 -0.00492215
v -0.00826979 0.00259629 -0.00489989
v -0.00826979 0.00274966 -0.00485829
v -0.00826979 0.00292274 -0.00476542
v -0.00826979 0.00304762 -0.00458644
v -0.00826979 0.00324043 -0.00430879
v -0.00826979 0.00374982 -0.00349710
v -0.00826979 0.00453309 -0.00218138
v -0.00826979 0.00455719 -0.00213688
v -0.00826979 0.00540180 -0.00055220
v -0.00826979 0.00551792 -0.00032872
v -0.00826979 0.00554969 -0.00026487
v -0.00826979 0.00559350 -0.00013330
v -0.00826979 0.00559460 -0.00002785
v -0.00826979 0.00559460 0.00012791
v -0.00826979 0.00551901 0.00032527
v -0.00826979 0.00453528 0.00217792
v -0.00826979 0.00375092 0.00349268
v -0.00826979 0.00372353 0.00353718
v -0.00826979 0.00321085 0.00435951
v -0.00826979 0.00300928 0.00464877
v -0.00826979 0.00292384 0.00476196
v -0.00826979 0.00285811 0.00480066
v -0.00826979 0.00274966 0.00485871
v -0.00826979 0.00248784 0.00492159
v -0.00826979 0.00222602 0.00493223
v -0.00826979 0.00196420 0.00493514
v -0.01235394 0.00170238 0.00490611
v -0.01261605 0.00144056 0.00490515
v -0.01287816 0.00013038 0.00489644
v -0.01308546 -0.00013034 0.00479873
v -0.01287816 -0.00039216 0.00489450
v -0.01287816 -0.00065398 0.00488967
v -0.01287816 -0.00091580 0.00488096
v -0.01287816 -0.00117871 0.00486258
v -0.01261605 -0.00170235 0.00488483
v -0.01235394 -0.00196417 0.00489257
v -0.01209233 -0.00222599 0.00489547
v -0.01183022 -0.00248780 0.00489644
v -0.01209233 -0.00196417 0.00490611
v -0.01156811 -0.00248780 0.00490611
v -0.01156811 -0.00274962 0.00485387
v -0.01156811 -0.00291285 0.00475713
v -0.01235394 -0.00340143 0.00392029
v -0.01261605 -0.00360847 0.00356233
v -0.01209233 -0.00319438 0.00427631
v -0.01299776 -0.00445199 0.00209182
v -0.01261605 -0.00494386 0.00124821
v -0.01261605 -0.00501725 0.00111760
v -0.01183022 -0.00550693 0.00027012
v -0.01156811 -0.00557813 0.00012791
v -0.01156811 -0.00557704 -0.00013330
v -0.01183022 -0.00550583 -0.00027358
v -0.01261605 -0.00501506 -0.00112106
v -0.01261605 -0.00494166 -0.00125166
v -0.01294195 -0.00445089 -0.00209528
v -0.01287816 -0.00424494 -0.00245516
v -0.01261605 -0.00360628 -0.00356482
v -0.01235394 -0.00340033 -0.00392278
v -0.01209233 -0.00319329 -0.00427880
v -0.01183022 -0.00311770 -0.00441230
v -0.01156811 -0.00301692 -0.00458644
v -0.01156811 -0.00291066 -0.00475961
v -0.01156811 -0.00274962 -0.00485346
v -0.01130649 -0.00274962 -0.00485442
v -0.01156811 -0.00248780 -0.00490570
v -0.01209233 -0.00196417 -0.00490570
v -0.01235394 -0.00170235 -0.00490570
v -0.01261605 -0.00144053 -0.00490473
v -0.01261605 -0.00117871 -0.00490570
v -0.01261605 0.00117765 -0.00490570
v -0.01156811 0.00248784 -0.00490570
v -0.01261605 0.00144056 -0.00490473
v -0.01235394 0.00170238 -0.00490570
v -0.01209233 0.00196420 -0.00490570
v -0.01156811 0.00274966 -0.00485346
v -0.01130649 0.00274966 -0.00485442
v -0.01156811 0.00291069 -0.00475961
v -0.01235394 0.00339927 -0.00392278
v -0.01261605 0.00360632 -0.00356482
v -0.01156811 0.00301695 -0.00458644
v -0.01183022 0.00311773 -0.00441230
v -0.01209233 0.00319332 -0.00427880
v -0.01294245 0.00445093 -0.00209528
v -0.01261605 0.00494170 -0.00125166
v -0.01261605 0.00501619 -0.00112106
v -0.01183022 0.00550477 -0.00027358
v -0.01287816 0.00424498 -0.00245516
v -0.01156811 0.00557707 -0.00013330
v -0.01156811 0.00557817 0.00012791
v -0.01183022 0.00550696 0.00027012
v -0.01261605 0.00501729 0.00111760
v -0.01261605 0.00494389 0.00124821
v -0.01299776 0.00445202 0.00209182
v -0.01261605 0.00360851 0.00356233
v -0.01235394 0.00340146 0.00392029
v -0.01209233 0.00319442 0.00427631
v -0.01156811 0.00291288 0.00475713
v -0.01156811 0.00274966 0.00485387
v -0.01156811 0.00248784 0.00490611
v -0.01209233 0.00196420 0.00490611
v -0.01183022 0.00248784 0.00489644
v -0.01209233 0.00222602 0.00489547
v -0.01235394 0.00196420 0.00489257
v -0.01261605 0.00170238 0.00488483
v -0.01287816 0.00117765 0.00486355
v -0.01287816 0.00091583 0.00488096
v -0.01287816 0.00065401 0.00488967
v -0.01287816 0.00039220 0.00489450
v -0.01308546 0.00013038 0.00479873
v -0.01321652 -0.00013034 0.00459556
v -0.01308197 -0.00039216 0.00479679
v -0.01307549 -0.00065398 0.00479292
v -0.01306503 -0.00091580 0.00478325
v -0.01305008 -0.00117871 0.00476583
v -0.01287816 -0.00144053 0.00483162
v -0.01288614 -0.00168373 0.00477454
v -0.01261605 -0.00196417 0.00482678
v -0.01235394 -0.00222599 0.00483839
v -0.01209233 -0.00248780 0.00484226
v -0.01183022 -0.00274962 0.00482388
v -0.01183022 -0.00289970 0.00473681
v -0.01209233 -0.00311003 0.00440691
v -0.01261605 -0.00347702 0.00377904
v -0.01280740 -0.00367749 0.00342109
v -0.01287816 -0.00396341 0.00293737
v -0.01301171 -0.00471709 0.00157424
v -0.01279046 -0.00500192 0.00109245
v -0.01303065 -0.00395026 0.00291415
v -0.01304410 -0.00422632 0.00241785
v -0.01197024 -0.00550364 0.00026529
v -0.01183022 -0.00554965 0.00012791
v -0.01183022 -0.00554746 -0.00013330
v -0.01196825 -0.00550255 -0.00026971
v -0.01278946 -0.00500082 -0.00109687
v -0.01301121 -0.00471600 -0.00157769
v -0.01287816 -0.00472586 -0.00159511
v -0.01304310 -0.00422522 -0.00242227
v -0.01302965 -0.00394916 -0.00291857
v -0.01287816 -0.00396122 -0.00294082
v -0.01280292 -0.00367639 -0.00342551
v -0.01261605 -0.00347592 -0.00378250
v -0.01209233 -0.00310675 -0.00440940
v -0.01183022 -0.00289751 -0.00473930
v -0.01183022 -0.00274962 -0.00482347
v -0.01183022 -0.00248780 -0.00489602
v -0.01209233 -0.00222599 -0.00489506
v -0.01235394 -0.00196417 -0.00489312
v -0.01261605 -0.00170235 -0.00488538
v -0.01287816 -0.00117871 -0.00486313
v -0.01287816 -0.00091580 -0.00488055
v -0.01287816 -0.00065398 -0.00489022
v -0.01287816 -0.00039216 -0.00489409
v -0.01287816 -0.00013034 -0.00489602
v -0.01287816 0.00013038 -0.00489602
v -0.01183022 0.00248784 -0.00489602
v -0.01287816 0.00039220 -0.00489409
v -0.01287816 0.00065401 -0.00489022
v -0.01287816 0.00091583 -0.00488055
v -0.01287816 0.00117765 -0.00486313
v -0.01261605 0.00170238 -0.00488538
v -0.01235394 0.00196420 -0.00489215
v -0.01209233 0.00222602 -0.00489506
v -0.01183022 0.00274966 -0.00482347
v -0.01183022 0.00289645 -0.00473930
v -0.01209233 0.00310678 -0.00440940
v -0.01261605 0.00347595 -0.00378250
v -0.01287816 0.00396125 -0.00294082
v -0.01300623 0.00471384 -0.00157189
v -0.01278946 0.00500195 -0.00109687
v -0.01302965 0.00394920 -0.00291857
v -0.01304310 0.00422526 -0.00242227
v -0.01196825 0.00550258 -0.00026971
v -0.01183022 0.00554749 -0.00013330
v -0.01183022 0.00554969 0.00012791
v -0.01197024 0.00550368 0.00026529
v -0.01279046 0.00500195 0.00109245
v -0.01301071 0.00471603 0.00157134
v -0.01304460 0.00449474 0.00191671
v -0.01304410 0.00422635 0.00241785
v -0.01303065 0.00395029 0.00291511
v -0.01287816 0.00396344 0.00293833
v -0.01261605 0.00347705 0.00378001
v -0.01209233 0.00311007 0.00440691
v -0.01183022 0.00289974 0.00473681
v -0.01183022 0.00274966 0.00482388
v -0.01209233 0.00248784 0.00484226
v -0.01235394 0.00222602 0.00483839
v -0.01287816 0.00144056 0.00483162
v -0.01261605 0.00196420 0.00482678
v -0.01305008 0.00117765 0.00476583
v -0.01306503 0.00091583 0.00478325
v -0.01307549 0.00065401 0.00479292
v -0.01308197 0.00039220 0.00479679
v -0.01321652 0.00013038 0.00459556
v -0.01327781 -0.00013034 0.00446399
v -0.01321303 -0.00039216 0.00458686
v -0.01318114 -0.00091580 0.00458009
v -0.01321602 -0.00062988 0.00455493
v -0.01315223 -0.00117871 0.00458009
v -0.01302766 -0.00144053 0.00473584
v -0.01301271 -0.00158404 0.00471553
v -0.01297882 -0.00175822 0.00468070
v -0.01279395 -0.00196417 0.00474262
v -0.01275209 -0.00210110 0.00471456
v -0.01259712 -0.00220408 0.00474552
v -0.01233550 -0.00246918 0.00474939
v -0.01206941 -0.00272990 0.00474842
v -0.01196725 -0.00288436 0.00471456
v -0.01235394 -0.00318452 0.00424632
v -0.01261605 -0.00339047 0.00391061
v -0.01298181 -0.00365558 0.00339013
v -0.01304460 -0.00449581 0.00191671
v -0.01306204 -0.00458344 0.00167679
v -0.01311137 -0.00458344 0.00143686
v -0.01302666 -0.00473681 0.00143686
v -0.01295939 -0.00492961 0.00091347
v -0.01282833 -0.00502821 0.00091347
v -0.01259961 -0.00518595 0.00064936
v -0.01250144 -0.00524621 0.00056132
v -0.01304211 -0.00371364 0.00321599
v -0.01307749 -0.00380018 0.00300509
v -0.01317067 -0.00379799 0.00274678
v -0.01306304 -0.00399737 0.00274678
v -0.01310340 -0.00407514 0.00249718
v -0.01307699 -0.00428328 0.00222339
v -0.01198370 -0.00551021 0.00012791
v -0.01198220 -0.00550912 -0.00013330
v -0.01235394 -0.00532508 -0.00039548
v -0.01250094 -0.00524621 -0.00056478
v -0.01259961 -0.00518486 -0.00065378
v -0.01282734 -0.00502711 -0.00091886
v -0.01295839 -0.00492961 -0.00091886
v -0.01302566 -0.00473572 -0.00144322
v -0.01310988 -0.00458344 -0.00144322
v -0.01306104 -0.00458235 -0.00168121
v -0.01304410 -0.00449471 -0.00192017
v -0.01307649 -0.00428109 -0.00222878
v -0.01310240 -0.00407405 -0.00250160
v -0.01306154 -0.00399517 -0.00275314
v -0.01316868 -0.00379799 -0.00275314
v -0.01307649 -0.00379909 -0.00300951
v -0.01304161 -0.00371254 -0.00322041
v -0.01297783 -0.00365448 -0.00339455
v -0.01261605 -0.00338719 -0.00391310
v -0.01235394 -0.00318343 -0.00424880
v -0.01196376 -0.00288217 -0.00471898
v -0.01206741 -0.00272881 -0.00475091
v -0.01209233 -0.00248780 -0.00484185
v -0.01235394 -0.00222599 -0.00483798
v -0.01288464 -0.00167934 -0.00477703
v -0.01287816 -0.00144053 -0.00483217
v -0.01261605 -0.00196417 -0.00482734
v -0.01304859 -0.00117871 -0.00476832
v -0.01306354 -0.00091580 -0.00478574
v -0.01307400 -0.00065398 -0.00479541
v -0.01308048 -0.00039216 -0.00480025
v -0.01308446 -0.00013034 -0.00480218
v -0.01308446 0.00013038 -0.00480218
v -0.01209233 0.00248784 -0.00484185
v -0.01308048 0.00039220 -0.00480025
v -0.01307400 0.00065401 -0.00479541
v -0.01306354 0.00091583 -0.00478574
v -0.01304859 0.00117765 -0.00476832
v -0.01287816 0.00144056 -0.00483217
v -0.01288464 0.00168047 -0.00477800
v -0.01261605 0.00196420 -0.00482637
v -0.01235394 0.00222602 -0.00483798
v -0.01206741 0.00272884 -0.00475091
v -0.01196376 0.00288221 -0.00471898
v -0.01235394 0.00318237 -0.00424880
v -0.01261605 0.00338722 -0.00391310
v -0.01280093 0.00367643 -0.00342551
v -0.01304460 0.00449474 -0.00192017
v -0.01307300 0.00454952 -0.00170540
v -0.01302915 0.00474123 -0.00139775
v -0.01295839 0.00492965 -0.00091886
v -0.01282734 0.00502714 -0.00091886
v -0.01259961 0.00518489 -0.00065378
v -0.01250094 0.00524624 -0.00056478
v -0.01297583 0.00365342 -0.00339358
v -0.01304111 0.00371258 -0.00321848
v -0.01307599 0.00379912 -0.00300951
v -0.01316868 0.00379802 -0.00275314
v -0.01306204 0.00399521 -0.00275314
v -0.01310240 0.00407408 -0.00250160
v -0.01307649 0.00428113 -0.00222878
v -0.01235394 0.00532511 -0.00039548
v -0.01198220 0.00550915 -0.00013330
v -0.01198370 0.00551025 0.00012791
v -0.01250144 0.00524624 0.00056132
v -0.01259961 0.00518599 0.00064936
v -0.01282833 0.00502714 0.00091347
v -0.01295939 0.00492965 0.00091347
v -0.01302616 0.00473684 0.00143686
v -0.01311038 0.00458348 0.00143686
v -0.01306154 0.00458238 0.00167485
v -0.01310788 0.00434795 0.00198734
v -0.01307699 0.00428332 0.00222339
v -0.01310340 0.00407518 0.00249718
v -0.01306304 0.00399740 0.00274678
v -0.01317067 0.00379802 0.00274678
v -0.01307799 0.00380021 0.00300509
v -0.01304211 0.00371477 0.00321696
v -0.01298381 0.00365671 0.00339110
v -0.01280940 0.00367752 0.00342109
v -0.01261605 0.00339051 0.00391061
v -0.01235394 0.00318565 0.00424632
v -0.01196725 0.00288440 0.00471456
v -0.01206941 0.00272994 0.00474842
v -0.01233550 0.00246921 0.00474939
v -0.01259712 0.00220411 0.00474552
v -0.01288614 0.00168266 0.00477454
v -0.01301221 0.00158298 0.00471553
v -0.01302766 0.00144056 0.00473584
v -0.01275209 0.00210114 0.00471456
v -0.01279395 0.00196420 0.00474262
v -0.01315223 0.00117765 0.00458009
v -0.01318114 0.00091583 0.00458009
v -0.01321602 0.00062991 0.00455493
v -0.01321303 0.00039220 0.00458686
v -0.01327781 0.00013038 0.00446399
v -0.01334359 -0.00013034 0.00431888
v -0.01333661 -0.00039216 0.00431888
v -0.01327382 -0.00039216 0.00445625
v -0.01327133 -0.00052691 0.00445045
v -0.01326535 -0.00070109 0.00443690
v -0.01325638 -0.00091580 0.00441659
v -0.01324243 -0.00117871 0.00438563
v -0.01322549 -0.00144053 0.00434596
v -0.01311287 -0.00144053 0.00458009
v -0.01306254 -0.00168373 0.00458879
v -0.01304759 -0.00196417 0.00450849
v -0.01302467 -0.00214163 0.00447076
v -0.01292451 -0.00196417 0.00463910
v -0.01287019 -0.00220846 0.00457138
v -0.01281388 -0.00244398 0.00449785
v -0.01274661 -0.00261816 0.00444948
v -0.01267186 -0.00227638 0.00467199
v -0.01249745 -0.00236949 0.00471746
v -0.01223534 -0.00263022 0.00471843
v -0.01247403 -0.00287122 0.00444368
v -0.01229962 -0.00293914 0.00449205
v -0.01252087 -0.00316371 0.00420859
v -0.01282435 -0.00345292 0.00373454
v -0.01299925 -0.00339157 0.00365134
v -0.01304460 -0.00348140 0.00347623
v -0.01310788 -0.00434792 0.00198734
v -0.01320904 -0.00429643 0.00167679
v -0.01315074 -0.00458344 0.00117565
v -0.01304908 -0.00477077 0.00117565
v -0.01322449 -0.00434792 0.00143686
v -0.01298630 -0.00495262 0.00065130
v -0.01285574 -0.00504902 0.00065130
v -0.01265044 -0.00519253 0.00038912
v -0.01251938 -0.00525387 0.00038912
v -0.01308845 -0.00355589 0.00329048
v -0.01326734 -0.00365777 0.00260263
v -0.01323745 -0.00380018 0.00250298
v -0.01321153 -0.00404009 0.00220888
v -0.01320804 -0.00351536 0.00298961
v -0.01324741 -0.00360190 0.00274678
v -0.01211425 -0.00545216 0.00012791
v -0.01211326 -0.00545216 -0.00013330
v -0.01251888 -0.00525387 -0.00039548
v -0.01264994 -0.00519253 -0.00039548
v -0.01285524 -0.00504902 -0.00065765
v -0.01298580 -0.00495262 -0.00065765
v -0.01304859 -0.00477077 -0.00118104
v -0.01315024 -0.00458344 -0.00118104
v -0.01322399 -0.00434682 -0.00144322
v -0.01320854 -0.00429643 -0.00168121
v -0.01310689 -0.00434682 -0.00199176
v -0.01321054 -0.00403899 -0.00221427
v -0.01323645 -0.00380018 -0.00250741
v -0.01326685 -0.00365558 -0.00260609
v -0.01324691 -0.00359971 -0.00275314
v -0.01320705 -0.00351426 -0.00299403
v -0.01308745 -0.00355479 -0.00329491
v -0.01304360 -0.00348030 -0.00348065
v -0.01299776 -0.00338938 -0.00365479
v -0.01282335 -0.00345182 -0.00373799
v -0.01251838 -0.00316262 -0.00421301
v -0.01260957 -0.00301144 -0.00427009
v -0.01247055 -0.00286793 -0.00444713
v -0.01263997 -0.00276824 -0.00441520
v -0.01274312 -0.00261488 -0.00445294
v -0.01223185 -0.00262693 -0.00472188
v -0.01233301 -0.00246699 -0.00475188
v -0.01259512 -0.00220079 -0.00474801
v -0.01301071 -0.00157746 -0.00471898
v -0.01302566 -0.00144053 -0.00473930
v -0.01278996 -0.00196417 -0.00474607
v -0.01297683 -0.00175165 -0.00468512
v -0.01274910 -0.00209781 -0.00471898
v -0.01314974 -0.00117871 -0.00458644
v -0.01317815 -0.00091580 -0.00458644
v -0.01319957 -0.00065398 -0.00458644
v -0.01321552 -0.00013034 -0.00459805
v -0.01321552 0.00013038 -0.00459805
v -0.01233301 0.00246702 -0.00475188
v -0.01319957 0.00065401 -0.00458644
v -0.01317815 0.00091583 -0.00458644
v -0.01314974 0.00117765 -0.00458644
v -0.01302566 0.00144056 -0.00473930
v -0.01301121 0.00157859 -0.00471995
v -0.01297683 0.00175277 -0.00468512
v -0.01278996 0.00196420 -0.00474607
v -0.01274910 0.00209785 -0.00471801
v -0.01259512 0.00220082 -0.00474801
v -0.01223185 0.00262696 -0.00472188
v -0.01263997 0.00276828 -0.00441520
v -0.01247055 0.00286797 -0.00444713
v -0.01260908 0.00301147 -0.00427009
v -0.01251739 0.00316265 -0.00421204
v -0.01274312 0.00261491 -0.00445294
v -0.01282335 0.00345185 -0.00373799
v -0.01310739 0.00434686 -0.00199176
v -0.01308845 0.00460867 -0.00146837
v -0.01320854 0.00429646 -0.00168121
v -0.01304859 0.00476971 -0.00118104
v -0.01314974 0.00458348 -0.00118104
v -0.01298580 0.00495265 -0.00065765
v -0.01285524 0.00504905 -0.00065765
v -0.01264994 0.00519256 -0.00039548
v -0.01251888 0.00525391 -0.00039548
v -0.01299826 0.00338941 -0.00365576
v -0.01304360 0.00347924 -0.00348065
v -0.01308696 0.00355373 -0.00329394
v -0.01323645 0.00380021 -0.00250741
v -0.01321054 0.00403903 -0.00221427
v -0.01320655 0.00351430 -0.00299403
v -0.01324691 0.00359974 -0.00275314
v -0.01326685 0.00365561 -0.00260609
v -0.01211326 0.00545219 -0.00013330
v -0.01211425 0.00545219 0.00012791
v -0.01251938 0.00525391 0.00038912
v -0.01265044 0.00519256 0.00038912
v -0.01285574 0.00504905 0.00065130
v -0.01298680 0.00495265 0.00065130
v -0.01304908 0.00477080 0.00117565
v -0.01315074 0.00458348 0.00117565
v -0.01322449 0.00434795 0.00143686
v -0.01320904 0.00429646 0.00167679
v -0.01323695 0.00410804 0.00196122
v -0.01321153 0.00404012 0.00220888
v -0.01323745 0.00380021 0.00250298
v -0.01326734 0.00365780 0.00260263
v -0.01324741 0.00360193 0.00274678
v -0.01320804 0.00351539 0.00298961
v -0.01308845 0.00355592 0.00329048
v -0.01304410 0.00348253 0.00347720
v -0.01299975 0.00339160 0.00365134
v -0.01282484 0.00345295 0.00373454
v -0.01252137 0.00316484 0.00420859
v -0.01261157 0.00301257 0.00426857
v -0.01247403 0.00287125 0.00444368
v -0.01274661 0.00261820 0.00444948
v -0.01223534 0.00263025 0.00471843
v -0.01249745 0.00236953 0.00471746
v -0.01267186 0.00227641 0.00467199
v -0.01297882 0.00175716 0.00468070
v -0.01302467 0.00214167 0.00447076
v -0.01304759 0.00196420 0.00450849
v -0.01306254 0.00168266 0.00458879
v -0.01311287 0.00144056 0.00458009
v -0.01281388 0.00244402 0.00449785
v -0.01287019 0.00220849 0.00457138
v -0.01292500 0.00196420 0.00463910
v -0.01324243 0.00117765 0.00438563
v -0.01322549 0.00144056 0.00434596
v -0.01325638 0.00091583 0.00441659
v -0.01326535 0.00070112 0.00443690
v -0.01327133 0.00052694 0.00445045
v -0.01327382 0.00039220 0.00445625
v -0.01333661 0.00039220 0.00431888
v -0.01334359 0.00013038 0.00431888
v -0.01335903 -0.00117871 0.00405670
v -0.01331568 -0.00091580 0.00428598
v -0.01331568 -0.00062988 0.00433726
v -0.01334807 -0.00144053 0.00405670
v -0.01330123 -0.00117871 0.00425502
v -0.01328279 -0.00144053 0.00421536
v -0.01327233 -0.00157966 0.00419117
v -0.01320954 -0.00168153 0.00429469
v -0.01314476 -0.00196417 0.00431888
v -0.01307400 -0.00222708 0.00433049
v -0.01304510 -0.00248780 0.00424728
v -0.01302018 -0.00264446 0.00420375
v -0.01298829 -0.00231581 0.00442626
v -0.01289162 -0.00251409 0.00439240
v -0.01262203 -0.00249328 0.00458396
v -0.01287816 -0.00273867 0.00426857
v -0.01279096 -0.00292709 0.00421923
v -0.01264196 -0.00277044 0.00441272
v -0.01261107 -0.00301254 0.00426760
v -0.01269528 -0.00310127 0.00415731
v -0.01281588 -0.00321301 0.00398317
v -0.01290756 -0.00330174 0.00381774
v -0.01299028 -0.00311332 0.00390191
v -0.01304211 -0.00321629 0.00372680
v -0.01308845 -0.00329188 0.00355169
v -0.01323695 -0.00410801 0.00196122
v -0.01325688 -0.00415730 0.00174935
v -0.01327183 -0.00419346 0.00157424
v -0.01324193 -0.00438735 0.00117565
v -0.01318014 -0.00458344 0.00091347
v -0.01306453 -0.00479925 0.00091347
v -0.01328279 -0.00421646 0.00143686
v -0.01330123 -0.00425699 0.00117565
v -0.01300224 -0.00496905 0.00038912
v -0.01287119 -0.00506217 0.00038912
v -0.01266289 -0.00519910 0.00012791
v -0.01253184 -0.00526045 0.00012791
v -0.01235394 -0.00534261 0.00012791
v -0.01321203 -0.00325792 0.00325565
v -0.01329027 -0.00371583 0.00242752
v -0.01329575 -0.00347044 0.00274678
v -0.01332864 -0.00355589 0.00250298
v -0.01325588 -0.00389001 0.00228724
v -0.01327582 -0.00393931 0.00211214
v -0.01324791 -0.00333570 0.00306410
v -0.01327432 -0.00341457 0.00288996
v -0.01235394 -0.00534261 -0.00013330
v -0.01253184 -0.00526045 -0.00013330
v -0.01266289 -0.00519910 -0.00013330
v -0.01287069 -0.00506217 -0.00039548
v -0.01300174 -0.00496796 -0.00039548
v -0.01307500 -0.00482116 -0.00065765
v -0.01306403 -0.00479816 -0.00091886
v -0.01317964 -0.00458344 -0.00091886
v -0.01324143 -0.00438735 -0.00118104
v -0.01330073 -0.00425590 -0.00118104
v -0.01328229 -0.00421537 -0.00144322
v -0.01327183 -0.00419236 -0.00157866
v -0.01325638 -0.00415621 -0.00175280
v -0.01323595 -0.00410691 -0.00196661
v -0.01327532 -0.00393931 -0.00211656
v -0.01325538 -0.00388891 -0.00229070
v -0.01328977 -0.00371364 -0.00243195
v -0.01332814 -0.00355589 -0.00250741
v -0.01329475 -0.00346825 -0.00275314
v -0.01327382 -0.00341348 -0.00289342
v -0.01324691 -0.00333351 -0.00306852
v -0.01321054 -0.00325683 -0.00326008
v -0.01308696 -0.00329079 -0.00355612
v -0.01304111 -0.00321520 -0.00373122
v -0.01298879 -0.00311113 -0.00390536
v -0.01290607 -0.00329955 -0.00382119
v -0.01281388 -0.00321082 -0.00398663
v -0.01269279 -0.00309908 -0.00416173
v -0.01278897 -0.00292380 -0.00422365
v -0.01287667 -0.00273757 -0.00427106
v -0.01289062 -0.00251190 -0.00439489
v -0.01281139 -0.00244070 -0.00450131
v -0.01266837 -0.00227200 -0.00467641
v -0.01261805 -0.00248999 -0.00458838
v -0.01249347 -0.00236511 -0.00472188
v -0.01302367 -0.00213725 -0.00447519
v -0.01304609 -0.00196417 -0.00451098
v -0.01306055 -0.00167934 -0.00459321
v -0.01310938 -0.00144053 -0.00458644
v -0.01292102 -0.00196417 -0.00464255
v -0.01286770 -0.00220517 -0.00457580
v -0.01324093 -0.00117871 -0.00438812
v -0.01325489 -0.00091580 -0.00442004
v -0.01322399 -0.00144053 -0.00434845
v -0.01332565 -0.00065398 -0.00431266
v -0.01327033 -0.00050719 -0.00445390
v -0.01322299 -0.00040859 -0.00456419
v -0.01327382 -0.00033301 -0.00446164
v -0.01327631 -0.00013034 -0.00446745
v -0.01327631 0.00013038 -0.00446745
v -0.01327382 0.00033304 -0.00446164
v -0.01322299 0.00040863 -0.00456419
v -0.01249347 0.00236514 -0.00472188
v -0.01327033 0.00050722 -0.00445390
v -0.01332565 0.00065401 -0.00431266
v -0.01325489 0.00091583 -0.00442004
v -0.01324093 0.00117765 -0.00438812
v -0.01322399 0.00144056 -0.00434845
v -0.01310988 0.00144056 -0.00458644
v -0.01306055 0.00168047 -0.00459321
v -0.01304609 0.00196420 -0.00451098
v -0.01302367 0.00213729 -0.00447519
v -0.01292052 0.00196420 -0.00464255
v -0.01286770 0.00220521 -0.00457580
v -0.01281139 0.00244073 -0.00450131
v -0.01266837 0.00227203 -0.00467641
v -0.01261805 0.00249003 -0.00458838
v -0.01278897 0.00292384 -0.00422365
v -0.01269180 0.00309802 -0.00416173
v -0.01281388 0.00321085 -0.00398663
v -0.01289062 0.00251194 -0.00439489
v -0.01287667 0.00273761 -0.00427106
v -0.01290607 0.00330068 -0.00382216
v -0.01322399 0.00434686 -0.00144322
v -0.01323595 0.00410695 -0.00196661
v -0.01325638 0.00415624 -0.00175280
v -0.01327183 0.00419239 -0.00157866
v -0.01306403 0.00479819 -0.00091886
v -0.01317964 0.00458348 -0.00091886
v -0.01324143 0.00438739 -0.00118104
v -0.01300174 0.00496799 -0.00039548
v -0.01307500 0.00482120 -0.00065765
v -0.01287069 0.00506220 -0.00039548
v -0.01266289 0.00519913 -0.00013330
v -0.01253184 0.00526048 -0.00013330
v -0.01235394 0.00534264 -0.00013330
v -0.01298879 0.00311116 -0.00390536
v -0.01304111 0.00321523 -0.00373122
v -0.01308696 0.00329082 -0.00355612
v -0.01321054 0.00325686 -0.00326008
v -0.01328977 0.00371367 -0.00243195
v -0.01325538 0.00388895 -0.00229070
v -0.01327532 0.00393824 -0.00211656
v -0.01324691 0.00333354 -0.00306852
v -0.01327382 0.00341351 -0.00289342
v -0.01329475 0.00346829 -0.00275314
v -0.01332814 0.00355592 -0.00250741
v -0.01235394 0.00534264 0.00012791
v -0.01253184 0.00526048 0.00012791
v -0.01266289 0.00519913 0.00012791
v -0.01287119 0.00506220 0.00038912
v -0.01300224 0.00496799 0.00038912
v -0.01306453 0.00479929 0.00091347
v -0.01318014 0.00458348 0.00091347
v -0.01324193 0.00438739 0.00117565
v -0.01330123 0.00425703 0.00117565
v -0.01328279 0.00421649 0.00143686
v -0.01327183 0.00419239 0.00157424
v -0.01325688 0.00415734 0.00174935
v -0.01329176 0.00397768 0.00196122
v -0.01327582 0.00393934 0.00211214
v -0.01325588 0.00389004 0.00228724
v -0.01329027 0.00371477 0.00242752
v -0.01332864 0.00355592 0.00250298
v -0.01329575 0.00347048 0.00274678
v -0.01327432 0.00341461 0.00288996
v -0.01324791 0.00333573 0.00306410
v -0.01321153 0.00325796 0.00325565
v -0.01308845 0.00329192 0.00355169
v -0.01304211 0.00321742 0.00372680
v -0.01299028 0.00311335 0.00390191
v -0.01290756 0.00330287 0.00381774
v -0.01281538 0.00321304 0.00398221
v -0.01269628 0.00310130 0.00415731
v -0.01279096 0.00292712 0.00421923
v -0.01264196 0.00277047 0.00441272
v -0.01287816 0.00273870 0.00426857
v -0.01289162 0.00251413 0.00439240
v -0.01262203 0.00249331 0.00458396
v -0.01314476 0.00196420 0.00431888
v -0.01298829 0.00231585 0.00442626
v -0.01302018 0.00264449 0.00420375
v -0.01304510 0.00248784 0.00424728
v -0.01307400 0.00222711 0.00433049
v -0.01320954 0.00168157 0.00429469
v -0.01330123 0.00117765 0.00425502
v -0.01331568 0.00091583 0.00428598
v -0.01328279 0.00144056 0.00421536
v -0.01327233 0.00157969 0.00419117
v -0.01331568 0.00062991 0.00433726
v -0.01334807 0.00144056 0.00405670
v -0.01335903 0.00117765 0.00405670
v -0.01335953 -0.00405981 0.00117565
v -0.01335604 -0.00353508 0.00222339
v -0.01335555 -0.00222599 0.00353234
v -0.01335206 -0.00196417 0.00379452
v -0.01330920 -0.00168153 0.00406347
v -0.01325738 -0.00175493 0.00415538
v -0.01323695 -0.00196417 0.00410701
v -0.01321253 -0.00221284 0.00403832
v -0.01313679 -0.00248780 0.00405670
v -0.01306154 -0.00273867 0.00405573
v -0.01303463 -0.00293914 0.00396866
v -0.01296587 -0.00281864 0.00414280
v -0.01289062 -0.00302020 0.00406250
v -0.01307948 -0.00302020 0.00380613
v -0.01320755 -0.00299282 0.00351300
v -0.01329176 -0.00397765 0.00196122
v -0.01330870 -0.00406529 0.00167679
v -0.01334757 -0.00405981 0.00143686
v -0.01325588 -0.00441912 0.00091347
v -0.01331568 -0.00428876 0.00091347
v -0.01326635 -0.00444322 0.00065130
v -0.01320157 -0.00458344 0.00065130
v -0.01307500 -0.00482116 0.00065130
v -0.01308147 -0.00483759 0.00038912
v -0.01300772 -0.00497453 0.00021305
v -0.01290358 -0.00505012 0.00012598
v -0.01324741 -0.00306840 0.00333208
v -0.01327681 -0.00316042 0.00315794
v -0.01330920 -0.00380018 0.00220888
v -0.01329724 -0.00325792 0.00298961
v -0.01334957 -0.00327326 0.00274678
v -0.01335156 -0.00379799 0.00196122
v -0.01290358 -0.00505012 -0.00013040
v -0.01300772 -0.00497453 -0.00021553
v -0.01308147 -0.00483759 -0.00039548
v -0.01320107 -0.00458344 -0.00065765
v -0.01325588 -0.00441912 -0.00091886
v -0.01331568 -0.00428767 -0.00091886
v -0.01334707 -0.00405981 -0.00144322
v -0.01330821 -0.00406529 -0.00168121
v -0.01329126 -0.00397655 -0.00196661
v -0.01330870 -0.00380018 -0.00221427
v -0.01335106 -0.00379799 -0.00196661
v -0.01334907 -0.00327326 -0.00275314
v -0.01329625 -0.00325683 -0.00299403
v -0.01327631 -0.00315933 -0.00316140
v -0.01324691 -0.00306621 -0.00333651
v -0.01320605 -0.00299172 -0.00351742
v -0.01307848 -0.00301911 -0.00381152
v -0.01303364 -0.00293695 -0.00397212
v -0.01301919 -0.00264117 -0.00420720
v -0.01296338 -0.00281645 -0.00414722
v -0.01288863 -0.00301801 -0.00406693
v -0.01298630 -0.00231253 -0.00442972
v -0.01307250 -0.00222489 -0.00433491
v -0.01314177 -0.00196417 -0.00432427
v -0.01304360 -0.00248780 -0.00424977
v -0.01320804 -0.00167825 -0.00429911
v -0.01329974 -0.00117871 -0.00425751
v -0.01331468 -0.00091580 -0.00428944
v -0.01327183 -0.00157527 -0.00419463
v -0.01328180 -0.00144053 -0.00421785
v -0.01334109 -0.00013034 -0.00432427
v -0.01332216 -0.00040859 -0.00434942
v -0.01334608 -0.00144053 -0.00406209
v -0.01335953 -0.00117871 -0.00406209
v -0.01334109 0.00013038 -0.00432427
v -0.01332216 0.00040863 -0.00434942
v -0.01331468 0.00091583 -0.00428944
v -0.01335953 0.00117765 -0.00406209
v -0.01334608 0.00144056 -0.00406209
v -0.01329974 0.00117765 -0.00425751
v -0.01328180 0.00144056 -0.00421785
v -0.01327183 0.00157531 -0.00419463
v -0.01320804 0.00167828 -0.00429911
v -0.01314177 0.00196420 -0.00432427
v -0.01307250 0.00222492 -0.00433491
v -0.01304360 0.00248784 -0.00424977
v -0.01301919 0.00264120 -0.00420720
v -0.01298630 0.00231256 -0.00442972
v -0.01288863 0.00301805 -0.00406693
v -0.01296338 0.00281648 -0.00414722
v -0.01328229 0.00421540 -0.00144322
v -0.01330073 0.00425593 -0.00118104
v -0.01329126 0.00397659 -0.00196661
v -0.01330821 0.00406532 -0.00168121
v -0.01334707 0.00405984 -0.00144322
v -0.01325588 0.00441916 -0.00091886
v -0.01320107 0.00458348 -0.00065765
v -0.01331568 0.00428770 -0.00091886
v -0.01300772 0.00497456 -0.00021553
v -0.01308147 0.00483763 -0.00039548
v -0.01290358 0.00505015 -0.00013040
v -0.01303364 0.00293698 -0.00397212
v -0.01307848 0.00301914 -0.00381152
v -0.01320605 0.00299176 -0.00351742
v -0.01324691 0.00306625 -0.00333651
v -0.01327631 0.00315936 -0.00316140
v -0.01330870 0.00380021 -0.00221427
v -0.01329625 0.00325686 -0.00299403
v -0.01334907 0.00327329 -0.00275314
v -0.01335106 0.00379802 -0.00196661
v -0.01290358 0.00505015 0.00012598
v -0.01300772 0.00497456 0.00021305
v -0.01308147 0.00483763 0.00038912
v -0.01307500 0.00482120 0.00065130
v -0.01320157 0.00458348 0.00065130
v -0.01326635 0.00444326 0.00065130
v -0.01325588 0.00441916 0.00091347
v -0.01331568 0.00428880 0.00091347
v -0.01334757 0.00405984 0.00143686
v -0.01330870 0.00406532 0.00167679
v -0.01335156 0.00379802 0.00196122
v -0.01330920 0.00380021 0.00220888
v -0.01334957 0.00327329 0.00274678
v -0.01329724 0.00325796 0.00298961
v -0.01327681 0.00316046 0.00315794
v -0.01324741 0.00306844 0.00333208
v -0.01320755 0.00299285 0.00351300
v -0.01307948 0.00302024 0.00380613
v -0.01303463 0.00293917 0.00396866
v -0.01296587 0.00281867 0.00414280
v -0.01289062 0.00302024 0.00406250
v -0.01323695 0.00196420 0.00410701
v -0.01325738 0.00175387 0.00415538
v -0.01313679 0.00248784 0.00405670
v -0.01321253 0.00221287 0.00403832
v -0.01306154 0.00273870 0.00405573
v -0.01330920 0.00168157 0.00406347
v -0.01335206 0.00196420 0.00379452
v -0.01335555 0.00222602 0.00353234
v -0.01335604 0.00353511 0.00222339
v -0.01335953 0.00405984 0.00117565
v -0.01335953 -0.00405981 -0.00118104
v -0.01334159 -0.00432163 0.00012791
v -0.01332664 -0.00431177 0.00065130
v -0.01335156 -0.00301144 0.00300896
v -0.01334907 -0.00274962 0.00327113
v -0.01332864 -0.00250643 0.00355363
v -0.01330970 -0.00221284 0.00379839
v -0.01329226 -0.00196417 0.00397640
v -0.01327631 -0.00211753 0.00393867
v -0.01325588 -0.00229171 0.00388740
v -0.01323794 -0.00250643 0.00379839
v -0.01317316 -0.00274962 0.00379452
v -0.01327482 -0.00289313 0.00341238
v -0.01324741 -0.00274962 0.00360007
v -0.01327083 -0.00445199 0.00051876
v -0.01322449 -0.00456153 0.00041427
v -0.01321552 -0.00459549 0.00012791
v -0.01307001 -0.00487046 0.00012598
v -0.01300972 -0.00497672 0.00003794
v -0.01329724 -0.00299282 0.00325565
v -0.01300972 -0.00497672 -0.00004139
v -0.01307001 -0.00487046 -0.00013040
v -0.01321552 -0.00459549 -0.00013330
v -0.01322399 -0.00456153 -0.00041870
v -0.01327083 -0.00445199 -0.00052124
v -0.01326635 -0.00444213 -0.00065765
v -0.01332615 -0.00431177 -0.00065765
v -0.01335654 -0.00353508 -0.00222878
v -0.01335106 -0.00301144 -0.00301435
v -0.01329625 -0.00299172 -0.00326008
v -0.01327432 -0.00289094 -0.00341680
v -0.01324642 -0.00274962 -0.00360255
v -0.01317117 -0.00274962 -0.00380088
v -0.01305955 -0.00273757 -0.00406112
v -0.01313430 -0.00248780 -0.00406209
v -0.01323595 -0.00196417 -0.00411046
v -0.01325638 -0.00174945 -0.00415883
v -0.01321104 -0.00221065 -0.00404274
v -0.01330771 -0.00167825 -0.00406789
v -0.01335106 -0.00196417 -0.00380088
v -0.01335604 -0.00222599 -0.00353870
v -0.01335953 0.00405984 -0.00118104
v -0.01335654 0.00353511 -0.00222878
v -0.01335604 0.00222602 -0.00353870
v -0.01335106 0.00196420 -0.00380088
v -0.01330771 0.00167828 -0.00406789
v -0.01325638 0.00174949 -0.00415883
v -0.01323595 0.00196420 -0.00411046
v -0.01321104 0.00221068 -0.00404274
v -0.01313430 0.00248784 -0.00406209
v -0.01305955 0.00273761 -0.00406112
v -0.01332615 0.00431180 -0.00065765
v -0.01326635 0.00444216 -0.00065765
v -0.01327083 0.00445202 -0.00052124
v -0.01322399 0.00456157 -0.00041870
v -0.01300972 0.00497675 -0.00004139
v -0.01307001 0.00487049 -0.00013040
v -0.01321552 0.00459553 -0.00013330
v -0.01317117 0.00274966 -0.00380088
v -0.01324642 0.00274966 -0.00360255
v -0.01327432 0.00289097 -0.00341680
v -0.01329625 0.00299176 -0.00326008
v -0.01335106 0.00301147 -0.00301435
v -0.01300972 0.00497675 0.00003794
v -0.01307001 0.00487049 0.00012598
v -0.01321552 0.00459553 0.00012791
v -0.01322449 0.00456157 0.00041427
v -0.01327083 0.00445202 0.00051876
v -0.01332664 0.00431180 0.00065130
v -0.01335156 0.00301147 0.00300896
v -0.01329724 0.00299285 0.00325565
v -0.01327482 0.00289316 0.00341238
v -0.01324741 0.00274966 0.00360007
v -0.01317316 0.00274966 0.00379452
v -0.01329226 0.00196420 0.00397640
v -0.01327631 0.00211757 0.00393867
v -0.01323794 0.00250646 0.00379839
v -0.01325588 0.00229175 0.00388740
v -0.01330970 0.00221287 0.00379839
v -0.01332864 0.00250646 0.00355363
v -0.01334907 0.00274966 0.00327113
v -0.01334159 0.00432166 0.00012791
v -0.01334159 -0.00432163 -0.00013330
v -0.01327681 -0.00446513 0.00012791
v -0.01327432 -0.00445966 0.00034365
v -0.01332266 -0.00434792 0.00041427
v -0.01329575 -0.00274962 0.00346849
v -0.01326784 -0.00260611 0.00365521
v -0.01329027 -0.00243193 0.00371326
v -0.01327681 -0.00446513 -0.00013330
v -0.01327432 -0.00445966 -0.00034614
v -0.01332266 -0.00434682 -0.00041870
v -0.01334857 -0.00274962 -0.00327652
v -0.01329475 -0.00274962 -0.00347195
v -0.01326685 -0.00260392 -0.00365866
v -0.01323645 -0.00250533 -0.00380281
v -0.01325489 -0.00228843 -0.00389182
v -0.01329126 -0.00196417 -0.00397889
v -0.01327532 -0.00211425 -0.00394213
v -0.01330870 -0.00221065 -0.00380281
v -0.01332814 -0.00250533 -0.00355805
v -0.01334159 0.00432166 -0.00013330
v -0.01334857 0.00274966 -0.00327652
v -0.01332814 0.00250537 -0.00355805
v -0.01330870 0.00221068 -0.00380281
v -0.01329126 0.00196420 -0.00397889
v -0.01327532 0.00211428 -0.00394213
v -0.01325489 0.00228846 -0.00389182
v -0.01323645 0.00250537 -0.00380281
v -0.01332266 0.00434686 -0.00041870
v -0.01327432 0.00445969 -0.00034614
v -0.01327681 0.00446517 -0.00013330
v -0.01326685 0.00260396 -0.00365866
v -0.01329475 0.00274966 -0.00347195
v -0.01327681 0.00446517 0.00012791
v -0.01327432 0.00445969 0.00034365
v -0.01332266 0.00434795 0.00041427
v -0.01329575 0.00274966 0.00346849
v -0.01326784 0.00260615 0.00365521
v -0.01329027 0.00243197 0.00371326
v -0.01328977 -0.00242865 -0.00371671
v -0.01328977 0.00242868 -0.00371671
f 1 2 3
f 1 3 4
f 1 4 5
f 1 5 6
f 1 6 2
f 2 7 8
f 2 8 9
f 2 9 10
f 2 10 3
f 2 6 73
f 2 73 7
f 3 10 4
f 4 10 11
f 4 11 12
f 4 12 13
f 4 13 14
f 4 14 15
f 4 15 16
f 4 16 17
f 4 17 18
f 4 18 19
f 4 19 20
f 4 20 21
f 4 21 22
f 4 22 23
f 4 23 24
f 4 24 25
f 4 25 26
f 4 26 27
f 4 27 28
f 4 28 29
f 4 29 30
f 4 30 31
f 4 31 32
f 4 32 33
f 4 33 34
f 4 34 35
f 4 35 36
f 4 36 37
f 4 37 38
f 4 38 39
f 4 39 40
f 4 40 41
f 4 41 42
f 4 42 43
f 4 43 44
f 4 44 45
f 4 45 46
f 4 46 47
f 4 47 48
f 4 48 49
f 4 49 50
f 4 50 51
f 4 51 52
f 4 52 53
f 4 53 54
f 4 54 55
f 4 55 56
f 4 56 57
f 4 57 58
f 4 58 59
f 4 59 60
f 4 60 61
f 4 61 62
f 4 62 63
f 4 63 64
f 4 64 65
f 4 65 66
f 4 66 67
f 4 67 68
f 4 68 69
f 4 69 70
f 4 70 5
f 5 70 71
f 5 71 6
f 6 71 72
f 6 72 73
f 7 74 75
f 7 75 8
f 7 73 153
f 7 153 74
f 8 75 76
f 8 76 77
f 8 77 78
f 8 78 79
f 8 79 80
f 8 80 81
f 8 81 82
f 8 82 9
f 9 82 83
f 9 83 10
f 10 83 84
f 10 84 11
f 11 84 12
f 12 84 13
f 13 84 85
f 13 85 14
f 14 85 15
f 15 86 16
f 15 85 86
f 16 86 17
f 17 86 18
f 18 87 88
f 18 88 19
f 18 86 89
f 18 89 87
f 19 90 91
f 19 91 92
f 19 92 93
f 19 93 20
f 19 88 90
f 20 93 21
f 21 93 22
f 22 93 23
f 23 93 94
f 23 94 24
f 24 94 25
f 25 94 95
f 25 95 26
f 26 95 27
f 27 95 96
f 27 96 28
f 28 96 97
f 28 97 98
f 28 98 99
f 28 99 100
f 28 100 101
f 28 101 102
f 28 102 29
f 29 102 103
f 29 103 104
f 29 104 105
f 29 105 106
f 29 106 30
f 30 106 31
f 31 106 32
f 32 106 33
f 33 106 107
f 33 107 108
f 33 108 34
f 34 108 35
f 35 108 36
f 36 109 37
f 36 108 107
f 36 107 109
f 37 109 38
f 38 109 110
f 38 110 111
f 38 111 112
f 38 112 113
f 38 113 39
f 39 113 40
f 40 114 41
f 40 113 114
f 41 114 42
f 42 115 43
f 42 114 116
f 42 116 117
f 42 117 118
f 42 118 115
f 43 115 44
f 44 115 119
f 44 119 45
f 45 119 120
f 45 120 46
f 46 120 47
f 47 121 48
f 47 120 119
f 47 119 121
f 48 121 49
f 49 121 50
f 50 122 123
f 50 123 51
f 50 121 124
f 50 124 125
f 50 125 126
f 50 126 122
f 51 127 128
f 51 128 129
f 51 129 130
f 51 130 52
f 51 123 131
f 51 131 127
f 52 130 53
f 53 130 54
f 54 130 55
f 55 130 132
f 55 132 56
f 56 132 57
f 57 132 133
f 57 133 58
f 58 133 59
f 59 133 134
f 59 134 60
f 60 134 135
f 60 135 136
f 60 136 137
f 60 137 138
f 60 138 139
f 60 139 61
f 61 139 140
f 61 140 141
f 61 141 62
f 62 141 63
f 63 141 64
f 64 141 65
f 65 141 142
f 65 142 66
f 66 142 67
f 67 142 68
f 68 143 69
f 68 142 143
f 69 143 70
f 70 143 144
f 70 144 71
f 71 144 145
f 71 145 146
f 71 146 72
f 72 146 147
f 72 147 148
f 72 148 149
f 72 149 150
f 72 150 151
f 72 151 152
f 72 152 73
f 73 152 153
f 74 154 155
f 74 155 75
f 74 153 238
f 74 238 154
f 75 155 76
f 76 155 156
f 76 156 77
f 77 156 157
f 77 157 78
f 78 158 159
f 78 159 79
f 78 157 158
f 79 159 160
f 79 160 161
f 79 161 162
f 79 162 80
f 80 162 163
f 80 163 81
f 81 163 82
f 82 163 164
f 82 164 85
f 82 85 84
f 82 84 83
f 85 164 165
f 85 165 86
f 86 165 166
f 86 166 89
f 87 167 88
f 87 89 167
f 88 167 168
f 88 168 169
f 88 169 90
f 89 166 167
f 90 170 171
f 90 171 92
f 90 92 91
f 90 169 172
f 90 172 173
f 90 173 170
f 92 171 174
f 92 174 93
f 93 174 94
f 94 175 95
f 94 174 175
f 95 175 176
f 95 176 177
f 95 177 96
f 96 177 97
f 97 177 178
f 97 178 179
f 97 179 180
f 97 180 99
f 97 99 98
f 99 180 179
f 99 179 181
f 99 181 182
f 99 182 183
f 99 183 100
f 100 183 101
f 101 183 184
f 101 184 185
f 101 185 102
f 102 185 103
f 103 186 106
f 103 106 104
f 103 185 186
f 104 106 105
f 106 187 107
f 106 186 187
f 107 188 189
f 107 189 109
f 107 187 188
f 109 189 110
f 110 189 111
f 111 189 190
f 111 190 112
f 112 190 191
f 112 191 192
f 112 192 193
f 112 193 194
f 112 194 195
f 112 195 196
f 112 196 197
f 112 197 113
f 113 197 198
f 113 198 114
f 114 198 116
f 115 199 119
f 115 118 199
f 116 198 200
f 116 200 201
f 116 201 202
f 116 202 203
f 116 203 204
f 116 204 205
f 116 205 206
f 116 206 199
f 116 199 117
f 117 199 118
f 119 207 208
f 119 208 121
f 119 199 207
f 121 208 209
f 121 209 126
f 121 126 125
f 121 125 124
f 122 210 123
f 122 126 210
f 123 210 211
f 123 211 131
f 126 209 210
f 127 212 213
f 127 213 129
f 127 129 128
f 127 131 211
f 127 211 214
f 127 214 215
f 127 215 212
f 129 213 216
f 129 216 130
f 130 216 132
f 132 217 218
f 132 218 133
f 132 216 217
f 133 218 219
f 133 219 134
f 134 219 135
f 135 219 220
f 135 220 137
f 135 137 136
f 137 220 221
f 137 221 222
f 137 222 223
f 137 223 224
f 137 224 225
f 137 225 138
f 138 225 226
f 138 226 139
f 139 226 140
f 140 227 141
f 140 226 227
f 141 227 228
f 141 228 142
f 142 229 145
f 142 145 143
f 142 228 229
f 143 145 144
f 145 230 146
f 145 229 230
f 146 230 147
f 147 230 231
f 147 231 148
f 148 232 149
f 148 231 233
f 148 233 232
f 149 234 235
f 149 235 150
f 149 232 234
f 150 235 236
f 150 236 151
f 151 236 237
f 151 237 152
f 152 237 153
f 153 237 238
f 154 239 240
f 154 240 156
f 154 156 155
f 154 238 365
f 154 365 239
f 156 240 157
f 157 241 158
f 157 240 242
f 157 242 241
f 158 243 244
f 158 244 159
f 158 241 243
f 159 244 245
f 159 245 160
f 160 245 246
f 160 246 247
f 160 247 161
f 161 247 248
f 161 248 249
f 161 249 162
f 162 249 250
f 162 250 163
f 163 250 251
f 163 251 164
f 164 251 252
f 164 252 165
f 165 252 253
f 165 253 166
f 166 253 254
f 166 254 167
f 167 254 168
f 168 254 255
f 168 255 172
f 168 172 169
f 170 173 256
f 170 256 257
f 170 257 258
f 170 258 259
f 170 259 260
f 170 260 261
f 170 261 171
f 171 261 262
f 171 262 263
f 171 263 174
f 172 255 264
f 172 264 265
f 172 265 266
f 172 266 267
f 172 267 173
f 173 267 268
f 173 268 269
f 173 269 256
f 174 270 175
f 174 263 270
f 175 270 271
f 175 271 176
f 176 271 177
f 177 271 272
f 177 272 273
f 177 273 178
f 178 273 274
f 178 274 275
f 178 275 179
f 179 276 277
f 179 277 278
f 179 278 279
f 179 279 280
f 179 280 181
f 179 275 276
f 181 281 282
f 181 282 283
f 181 283 182
f 181 280 281
f 182 283 284
f 182 284 285
f 182 285 286
f 182 286 287
f 182 287 184
f 182 184 183
f 184 287 288
f 184 288 185
f 185 288 186
f 186 289 187
f 186 288 289
f 187 290 188
f 187 289 290
f 188 290 291
f 188 291 292
f 188 292 189
f 189 292 190
f 190 292 191
f 191 292 293
f 191 293 192
f 192 294 295
f 192 295 193
f 192 293 296
f 192 296 294
f 193 297 298
f 193 298 194
f 193 295 297
f 194 298 299
f 194 299 195
f 195 299 300
f 195 300 196
f 196 300 301
f 196 301 197
f 197 301 302
f 197 302 198
f 198 302 200
f 199 206 303
f 199 303 207
f 200 302 304
f 200 304 201
f 201 304 305
f 201 305 202
f 202 305 306
f 202 306 203
f 203 307 308
f 203 308 204
f 203 306 307
f 204 308 309
f 204 309 310
f 204 310 311
f 204 311 205
f 205 311 303
f 205 303 206
f 207 303 312
f 207 312 313
f 207 313 208
f 208 313 314
f 208 314 209
f 209 314 315
f 209 315 210
f 210 315 316
f 210 316 211
f 211 316 214
f 212 215 317
f 212 317 318
f 212 318 319
f 212 319 320
f 212 320 321
f 212 321 213
f 213 321 322
f 213 322 323
f 213 323 216
f 214 316 324
f 214 324 325
f 214 325 326
f 214 326 327
f 214 327 328
f 214 328 215
f 215 328 329
f 215 329 330
f 215 330 317
f 216 331 332
f 216 332 217
f 216 323 331
f 217 332 218
f 218 332 333
f 218 333 219
f 219 333 334
f 219 334 220
f 220 334 335
f 220 335 336
f 220 336 221
f 221 337 338
f 221 338 339
f 221 339 340
f 221 340 222
f 221 336 337
f 222 340 341
f 222 341 342
f 222 342 223
f 223 342 343
f 223 343 344
f 223 344 224
f 224 344 345
f 224 345 346
f 224 346 347
f 224 347 348
f 224 348 349
f 224 349 225
f 225 349 226
f 226 350 227
f 226 349 350
f 227 351 228
f 227 350 351
f 228 352 229
f 228 351 352
f 229 352 353
f 229 353 230
f 230 353 354
f 230 354 231
f 231 355 233
f 231 354 355
f 232 233 356
f 232 356 357
f 232 357 358
f 232 358 234
f 233 355 359
f 233 359 360
f 233 360 356
f 234 361 362
f 234 362 235
f 234 358 361
f 235 362 363
f 235 363 364
f 235 364 236
f 236 364 238
f 236 238 237
f 238 364 365
f 239 366 367
f 239 367 368
f 239 368 240
f 239 365 520
f 239 520 366
f 240 368 369
f 240 369 242
f 241 242 370
f 241 370 371
f 241 371 372
f 241 372 243
f 242 369 370
f 243 372 373
f 243 373 374
f 243 374 244
f 244 374 245
f 245 375 376
f 245 376 377
f 245 377 246
f 245 374 375
f 246 377 378
f 246 378 247
f 247 378 248
f 248 379 380
f 248 380 381
f 248 381 382
f 248 382 249
f 248 378 379
f 249 382 383
f 249 383 250
f 250 383 384
f 250 384 251
f 251 384 252
f 252 385 386
f 252 386 387
f 252 387 253
f 252 384 381
f 252 381 385
f 253 387 254
f 254 388 255
f 254 387 388
f 255 388 389
f 255 389 390
f 255 390 264
f 256 269 391
f 256 391 257
f 257 391 392
f 257 392 258
f 258 393 394
f 258 394 259
f 258 392 395
f 258 395 393
f 259 394 260
f 260 394 396
f 260 396 261
f 261 396 397
f 261 397 262
f 262 398 263
f 262 397 398
f 263 398 399
f 263 399 270
f 264 390 400
f 264 400 265
f 265 400 266
f 266 401 402
f 266 402 403
f 266 403 268
f 266 268 267
f 266 400 404
f 266 404 405
f 266 405 401
f 268 403 269
f 269 403 391
f 270 399 406
f 270 406 407
f 270 407 271
f 271 407 408
f 271 408 272
f 272 408 273
f 273 409 274
f 273 408 409
f 274 409 410
f 274 410 275
f 275 410 411
f 275 411 276
f 276 412 277
f 276 411 412
f 277 412 278
f 278 412 413
f 278 413 414
f 278 414 415
f 278 415 279
f 279 415 416
f 279 416 280
f 280 416 281
f 281 416 417
f 281 417 282
f 282 417 284
f 282 284 283
f 284 286 285
f 284 417 418
f 284 418 419
f 284 419 420
f 284 420 421
f 284 421 422
f 284 422 286
f 286 422 423
f 286 423 287
f 287 423 424
f 287 424 425
f 287 425 288
f 288 425 426
f 288 426 289
f 289 426 290
f 290 426 427
f 290 427 428
f 290 428 429
f 290 429 430
f 290 430 431
f 290 431 291
f 291 431 432
f 291 432 292
f 292 432 293
f 293 433 296
f 293 432 433
f 294 434 435
f 294 435 295
f 294 296 436
f 294 436 437
f 294 437 434
f 295 435 297
f 296 433 438
f 296 438 436
f 297 439 440
f 297 440 298
f 297 435 439
f 298 440 441
f 298 441 299
f 299 441 442
f 299 442 300
f 300 442 301
f 301 442 443
f 301 443 302
f 302 443 304
f 303 444 312
f 303 311 444
f 304 443 305
f 305 445 306
f 305 443 445
f 306 446 307
f 306 445 446
f 307 447 448
f 307 448 308
f 307 446 447
f 308 448 449
f 308 449 309
f 309 449 450
f 309 450 451
f 309 451 310
f 310 451 452
f 310 452 453
f 310 453 311
f 311 453 444
f 312 444 454
f 312 454 313
f 313 455 456
f 313 456 457
f 313 457 458
f 313 458 314
f 313 454 459
f 313 459 455
f 314 458 315
f 315 460 324
f 315 324 316
f 315 458 460
f 317 330 461
f 317 461 318
f 318 462 319
f 318 461 463
f 318 463 462
f 319 464 320
f 319 462 465
f 319 465 464
f 320 464 466
f 320 466 321
f 321 466 467
f 321 467 322
f 322 468 323
f 322 467 468
f 323 468 469
f 323 469 331
f 324 460 470
f 324 470 471
f 324 471 325
f 325 471 472
f 325 472 327
f 325 327 326
f 327 473 474
f 327 474 329
f 327 329 328
f 327 472 475
f 327 475 476
f 327 476 477
f 327 477 473
f 329 474 330
f 330 474 461
f 331 469 332
f 332 469 478
f 332 478 333
f 333 478 479
f 333 479 480
f 333 480 334
f 334 481 335
f 334 480 481
f 335 481 482
f 335 482 336
f 336 482 483
f 336 483 337
f 337 484 338
f 337 483 484
f 338 484 339
f 339 484 485
f 339 485 486
f 339 486 487
f 339 487 340
f 340 487 341
f 341 487 488
f 341 488 489
f 341 489 342
f 342 489 343
f 343 489 345
f 343 345 344
f 345 347 346
f 345 489 490
f 345 490 491
f 345 491 492
f 345 492 493
f 345 493 494
f 345 494 347
f 347 494 495
f 347 495 348
f 348 495 496
f 348 496 497
f 348 497 350
f 348 350 349
f 350 497 498
f 350 498 351
f 351 498 352
f 352 498 499
f 352 499 500
f 352 500 501
f 352 501 502
f 352 502 353
f 353 502 354
f 354 503 355
f 354 502 503
f 355 503 504
f 355 504 359
f 356 505 357
f 356 360 505
f 357 505 506
f 357 506 507
f 357 507 508
f 357 508 509
f 357 509 358
f 358 509 361
f 359 504 501
f 359 501 510
f 359 510 511
f 359 511 512
f 359 512 360
f 360 512 505
f 361 513 362
f 361 509 514
f 361 514 513
f 362 515 516
f 362 516 363
f 362 513 515
f 363 516 517
f 363 517 364
f 364 518 365
f 364 517 518
f 365 518 519
f 365 519 520
f 366 521 367
f 366 520 708
f 366 708 521
f 367 522 523
f 367 523 369
f 367 369 368
f 367 521 524
f 367 524 522
f 369 523 370
f 370 522 371
f 370 523 522
f 371 522 372
f 372 525 373
f 372 522 525
f 373 526 527
f 373 527 528
f 373 528 374
f 373 525 526
f 374 528 529
f 374 529 375
f 375 529 376
f 376 529 377
f 377 529 530
f 377 530 531
f 377 531 532
f 377 532 533
f 377 533 378
f 378 533 379
f 379 533 380
f 380 533 534
f 380 534 381
f 381 384 535
f 381 535 382
f 381 534 536
f 381 536 537
f 381 537 538
f 381 538 385
f 382 535 383
f 383 535 384
f 385 538 539
f 385 539 386
f 386 539 387
f 387 539 540
f 387 540 541
f 387 541 388
f 388 541 389
f 389 541 542
f 389 542 543
f 389 543 544
f 389 544 390
f 390 544 545
f 390 545 400
f 391 403 546
f 391 546 392
f 392 546 547
f 392 547 548
f 392 548 395
f 393 395 549
f 393 549 550
f 393 550 551
f 393 551 394
f 394 551 396
f 395 548 552
f 395 552 553
f 395 553 549
f 396 554 397
f 396 551 554
f 397 554 555
f 397 555 398
f 398 556 557
f 398 557 399
f 398 555 556
f 399 557 558
f 399 558 406
f 400 545 559
f 400 559 404
f 401 560 402
f 401 405 561
f 401 561 562
f 401 562 560
f 402 560 563
f 402 563 403
f 403 563 564
f 403 564 546
f 404 559 565
f 404 565 566
f 404 566 405
f 405 566 561
f 406 558 567
f 406 567 407
f 407 567 408
f 408 567 568
f 408 568 569
f 408 569 409
f 409 569 570
f 409 570 410
f 410 570 571
f 410 571 411
f 411 571 572
f 411 572 573
f 411 573 412
f 412 573 413
f 413 574 575
f 413 575 414
f 413 573 574
f 414 576 577
f 414 577 578
f 414 578 415
f 414 575 576
f 415 578 579
f 415 579 580
f 415 580 417
f 415 417 416
f 417 580 581
f 417 581 582
f 417 582 418
f 418 583 419
f 418 582 583
f 419 583 584
f 419 584 585
f 419 585 420
f 420 585 586
f 420 586 421
f 421 586 587
f 421 587 588
f 421 588 422
f 422 588 589
f 422 589 423
f 423 589 590
f 423 590 424
f 424 590 591
f 424 591 592
f 424 592 425
f 425 592 593
f 425 593 426
f 426 593 594
f 426 594 427
f 427 595 429
f 427 429 428
f 427 594 595
f 429 595 430
f 430 596 597
f 430 597 598
f 430 598 438
f 430 438 599
f 430 599 600
f 430 600 431
f 430 595 596
f 431 600 601
f 431 601 432
f 432 601 433
f 433 601 438
f 434 437 602
f 434 602 603
f 434 603 604
f 434 604 435
f 435 604 605
f 435 605 439
f 436 606 437
f 436 438 606
f 437 606 602
f 438 601 599
f 438 598 607
f 438 607 606
f 439 608 609
f 439 609 440
f 439 605 610
f 439 610 608
f 440 609 441
f 441 611 612
f 441 612 613
f 441 613 442
f 441 609 611
f 442 613 614
f 442 614 615
f 442 615 616
f 442 616 443
f 443 616 617
f 443 617 618
f 443 618 445
f 444 453 619
f 444 619 454
f 445 618 620
f 445 620 621
f 445 621 622
f 445 622 446
f 446 622 447
f 447 623 624
f 447 624 625
f 447 625 448
f 447 622 623
f 448 625 449
f 449 626 627
f 449 627 628
f 449 628 450
f 449 625 626
f 450 628 629
f 450 629 451
f 451 629 630
f 451 630 452
f 452 630 631
f 452 631 459
f 452 459 632
f 452 632 619
f 452 619 453
f 454 633 459
f 454 619 633
f 455 634 457
f 455 457 456
f 455 459 634
f 457 634 635
f 457 635 458
f 458 635 636
f 458 636 460
f 459 633 632
f 459 631 637
f 459 637 638
f 459 638 634
f 460 636 639
f 460 639 470
f 461 474 463
f 462 463 640
f 462 640 465
f 463 474 641
f 463 641 642
f 463 642 643
f 463 643 640
f 464 644 466
f 464 465 644
f 465 645 644
f 465 640 646
f 465 646 645
f 466 647 467
f 466 644 648
f 466 648 647
f 467 647 649
f 467 649 468
f 468 650 651
f 468 651 469
f 468 649 650
f 469 651 652
f 469 652 478
f 470 639 653
f 470 653 654
f 470 654 471
f 471 654 655
f 471 655 472
f 472 655 656
f 472 656 475
f 473 477 657
f 473 657 658
f 473 658 474
f 474 658 659
f 474 659 641
f 475 656 660
f 475 660 661
f 475 661 476
f 476 661 662
f 476 662 477
f 477 662 663
f 477 663 657
f 478 652 479
f 479 652 664
f 479 664 480
f 480 664 665
f 480 665 666
f 480 666 481
f 481 666 667
f 481 667 482
f 482 667 668
f 482 668 483
f 483 668 669
f 483 669 484
f 484 669 485
f 485 670 671
f 485 671 486
f 485 669 670
f 486 672 673
f 486 673 674
f 486 674 487
f 486 671 672
f 487 674 675
f 487 675 488
f 488 675 676
f 488 676 677
f 488 677 489
f 489 677 678
f 489 678 490
f 490 679 491
f 490 678 679
f 491 679 680
f 491 680 681
f 491 681 492
f 492 681 682
f 492 682 493
f 493 682 683
f 493 683 684
f 493 684 494
f 494 684 685
f 494 685 495
f 495 685 686
f 495 686 496
f 496 686 687
f 496 687 688
f 496 688 497
f 497 688 689
f 497 689 498
f 498 689 690
f 498 690 499
f 499 691 692
f 499 692 500
f 499 690 691
f 500 692 501
f 501 693 694
f 501 694 510
f 501 504 695
f 501 695 502
f 501 692 691
f 501 691 693
f 502 695 503
f 503 695 504
f 505 512 506
f 506 696 507
f 506 512 697
f 506 697 698
f 506 698 699
f 506 699 700
f 506 700 696
f 507 696 508
f 508 696 509
f 509 696 701
f 509 701 514
f 510 694 697
f 510 697 511
f 511 697 512
f 513 702 703
f 513 703 515
f 513 514 702
f 514 704 702
f 514 701 705
f 514 705 704
f 515 703 516
f 516 706 517
f 516 703 706
f 517 706 519
f 517 519 518
f 519 706 703
f 519 703 707
f 519 707 708
f 519 708 520
f 521 709 710
f 521 710 711
f 521 711 712
f 521 712 524
f 521 708 841
f 521 841 709
f 522 524 525
f 524 713 527
f 524 527 526
f 524 526 525
f 524 712 713
f 527 713 714
f 527 714 528
f 528 714 529
f 529 714 715
f 529 715 716
f 529 716 717
f 529 717 530
f 530 717 531
f 531 717 532
f 532 718 719
f 532 719 543
f 532 543 720
f 532 720 536
f 532 536 534
f 532 534 533
f 532 717 718
f 536 720 537
f 537 539 538
f 537 720 721
f 537 721 541
f 537 541 540
f 537 540 539
f 541 721 543
f 541 543 542
f 543 721 720
f 543 719 544
f 544 719 722
f 544 722 545
f 545 722 723
f 545 723 559
f 546 564 724
f 546 724 547
f 547 724 725
f 547 725 548
f 548 725 726
f 548 726 552
f 549 727 550
f 549 553 728
f 549 728 727
f 550 727 729
f 550 729 730
f 550 730 731
f 550 731 551
f 551 731 554
f 552 726 553
f 553 726 728
f 554 731 732
f 554 732 733
f 554 733 555
f 555 733 734
f 555 734 556
f 556 734 741
f 556 741 569
f 556 569 568
f 556 568 557
f 557 568 567
f 557 567 558
f 559 723 735
f 559 735 736
f 559 736 565
f 560 737 563
f 560 562 737
f 561 566 738
f 561 738 739
f 561 739 562
f 562 740 737
f 562 739 740
f 563 737 564
f 564 737 724
f 565 736 738
f 565 738 566
f 569 741 570
f 570 741 742
f 570 742 571
f 571 742 743
f 571 743 572
f 572 743 744
f 572 744 574
f 572 574 573
f 574 744 745
f 574 745 575
f 575 745 746
f 575 746 576
f 576 746 747
f 576 747 577
f 577 747 578
f 578 747 748
f 578 748 579
f 579 748 749
f 579 749 580
f 580 749 581
f 581 749 750
f 581 750 582
f 582 750 583
f 583 750 584
f 584 750 751
f 584 751 752
f 584 752 585
f 585 752 753
f 585 753 586
f 586 753 587
f 587 753 754
f 587 754 588
f 588 754 755
f 588 755 756
f 588 756 589
f 589 756 757
f 589 757 590
f 590 757 758
f 590 758 591
f 591 593 592
f 591 758 759
f 591 759 760
f 591 760 761
f 591 761 593
f 593 761 595
f 593 595 594
f 595 761 760
f 595 760 596
f 596 759 597
f 596 760 759
f 597 759 762
f 597 762 598
f 598 762 607
f 599 601 600
f 602 763 764
f 602 764 603
f 602 606 762
f 602 762 759
f 602 759 765
f 602 765 763
f 603 764 604
f 604 764 605
f 605 764 766
f 605 766 610
f 606 607 762
f 608 767 768
f 608 768 609
f 608 610 767
f 609 768 611
f 610 766 769
f 610 769 770
f 610 770 767
f 611 771 772
f 611 772 612
f 611 768 773
f 611 773 774
f 611 774 771
f 612 772 614
f 612 614 613
f 614 771 615
f 614 772 771
f 615 771 775
f 615 775 616
f 616 775 617
f 617 775 776
f 617 776 620
f 617 620 618
f 619 632 633
f 620 776 621
f 621 777 622
f 621 776 775
f 621 775 778
f 621 778 779
f 621 779 777
f 622 777 623
f 623 780 624
f 623 777 780
f 624 781 782
f 624 782 783
f 624 783 625
f 624 780 781
f 625 783 784
f 625 784 626
f 626 784 627
f 627 784 628
f 628 784 785
f 628 785 786
f 628 786 787
f 628 787 788
f 628 788 629
f 629 788 630
f 630 788 631
f 631 788 637
f 634 789 636
f 634 636 635
f 634 638 790
f 634 790 789
f 636 789 653
f 636 653 639
f 637 787 638
f 637 788 787
f 638 787 790
f 640 643 791
f 640 791 792
f 640 792 646
f 641 659 793
f 641 793 642
f 642 793 794
f 642 794 643
f 643 794 795
f 643 795 791
f 644 645 648
f 645 646 796
f 645 796 797
f 645 797 648
f 646 792 798
f 646 798 796
f 647 799 649
f 647 648 800
f 647 800 799
f 648 797 800
f 649 799 801
f 649 801 650
f 650 801 811
f 650 811 666
f 650 666 665
f 650 665 651
f 651 665 664
f 651 664 652
f 653 789 790
f 653 790 787
f 653 787 802
f 653 802 654
f 654 802 803
f 654 803 655
f 655 803 804
f 655 804 656
f 656 804 805
f 656 805 806
f 656 806 660
f 657 807 658
f 657 663 807
f 658 807 659
f 659 807 793
f 660 806 808
f 660 808 661
f 661 808 662
f 662 808 809
f 662 809 663
f 663 810 807
f 663 809 810
f 666 811 667
f 667 811 812
f 667 812 668
f 668 812 813
f 668 813 814
f 668 814 669
f 669 814 670
f 670 815 816
f 670 816 817
f 670 817 671
f 670 814 815
f 671 817 818
f 671 818 672
f 672 818 819
f 672 819 673
f 673 819 674
f 674 819 820
f 674 820 675
f 675 820 676
f 676 820 821
f 676 821 822
f 676 822 677
f 677 822 678
f 678 822 679
f 679 822 680
f 680 822 821
f 680 821 823
f 680 823 681
f 681 823 824
f 681 824 682
f 682 824 683
f 683 824 825
f 683 825 684
f 684 825 826
f 684 826 827
f 684 827 685
f 685 827 828
f 685 828 686
f 686 828 829
f 686 829 687
f 687 689 688
f 687 829 698
f 687 698 830
f 687 830 831
f 687 831 689
f 689 831 691
f 689 691 690
f 691 831 830
f 691 830 693
f 693 698 694
f 693 830 698
f 694 698 697
f 696 832 833
f 696 833 701
f 696 700 834
f 696 834 835
f 696 835 832
f 698 829 836
f 698 836 834
f 698 834 699
f 699 834 700
f 701 833 705
f 702 704 707
f 702 707 703
f 704 705 707
f 705 833 837
f 705 837 707
f 707 837 838
f 707 838 708
f 708 838 839
f 708 839 840
f 708 840 841
f 709 842 924
f 709 924 843
f 709 843 844
f 709 844 726
f 709 726 740
f 709 740 710
f 709 841 883
f 709 883 778
f 709 778 774
f 709 774 842
f 710 740 739
f 710 739 845
f 710 845 711
f 711 845 846
f 711 846 712
f 712 846 847
f 712 847 848
f 712 848 849
f 712 849 713
f 713 849 714
f 714 849 715
f 715 849 850
f 715 850 716
f 716 850 851
f 716 851 717
f 717 851 852
f 717 852 853
f 717 853 718
f 718 853 719
f 719 853 722
f 722 853 723
f 723 854 735
f 723 853 855
f 723 855 854
f 724 737 740
f 724 740 725
f 725 740 726
f 726 844 728
f 727 728 729
f 728 844 729
f 729 844 856
f 729 856 730
f 730 856 857
f 730 857 732
f 730 732 731
f 732 857 858
f 732 858 859
f 732 859 733
f 733 860 734
f 733 859 860
f 734 860 862
f 734 862 741
f 735 854 861
f 735 861 736
f 736 861 738
f 738 861 845
f 738 845 739
f 741 862 742
f 742 862 863
f 742 863 743
f 743 863 864
f 743 864 865
f 743 865 744
f 744 865 866
f 744 866 867
f 744 867 745
f 745 867 868
f 745 868 746
f 746 868 747
f 747 868 842
f 747 842 751
f 747 751 748
f 748 751 749
f 749 751 750
f 751 869 752
f 751 842 869
f 752 870 753
f 752 869 870
f 753 870 871
f 753 871 754
f 754 871 755
f 755 871 872
f 755 872 756
f 756 872 873
f 756 873 874
f 756 874 757
f 757 874 875
f 757 875 758
f 758 875 759
f 759 875 876
f 759 876 765
f 763 765 876
f 763 876 764
f 764 877 878
f 764 878 766
f 764 876 879
f 764 879 877
f 766 878 769
f 767 770 773
f 767 773 768
f 769 878 880
f 769 880 773
f 769 773 770
f 771 774 778
f 771 778 775
f 773 880 881
f 773 881 774
f 774 881 882
f 774 882 869
f 774 869 842
f 777 779 780
f 778 883 884
f 778 884 885
f 778 885 886
f 778 886 779
f 779 887 782
f 779 782 781
f 779 781 780
f 779 886 887
f 782 887 888
f 782 888 783
f 783 888 784
f 784 888 889
f 784 889 890
f 784 890 891
f 784 891 785
f 785 891 786
f 786 891 787
f 787 892 802
f 787 891 892
f 791 795 792
f 792 795 798
f 793 807 810
f 793 810 794
f 794 810 795
f 795 883 893
f 795 893 798
f 795 810 883
f 796 894 797
f 796 798 893
f 796 893 894
f 797 894 895
f 797 895 896
f 797 896 800
f 799 897 801
f 799 800 898
f 799 898 897
f 800 896 899
f 800 899 898
f 801 897 905
f 801 905 811
f 802 892 803
f 803 892 900
f 803 900 804
f 804 900 901
f 804 901 902
f 804 902 805
f 805 902 903
f 805 903 806
f 806 903 808
f 808 903 904
f 808 904 809
f 809 904 884
f 809 884 810
f 810 884 883
f 811 905 812
f 812 905 906
f 812 906 813
f 813 906 907
f 813 907 908
f 813 908 815
f 813 815 814
f 815 908 909
f 815 909 816
f 816 909 910
f 816 910 818
f 816 818 817
f 818 910 819
f 819 910 841
f 819 841 821
f 819 821 820
f 821 840 823
f 821 841 840
f 823 911 824
f 823 840 911
f 824 911 912
f 824 912 825
f 825 912 826
f 826 912 913
f 826 913 827
f 827 913 914
f 827 914 915
f 827 915 828
f 828 915 829
f 829 915 836
f 832 916 833
f 832 835 917
f 832 917 916
f 833 916 837
f 834 918 919
f 834 919 835
f 834 836 915
f 834 915 918
f 835 919 917
f 837 916 838
f 838 916 920
f 838 920 921
f 838 921 922
f 838 922 839
f 839 922 911
f 839 911 840
f 841 910 923
f 841 923 943
f 841 943 883
f 842 868 924
f 843 924 931
f 843 931 925
f 843 925 926
f 843 926 927
f 843 927 844
f 844 927 856
f 845 861 846
f 846 928 847
f 846 861 928
f 847 928 929
f 847 929 930
f 847 930 848
f 848 850 849
f 848 930 851
f 848 851 850
f 851 930 852
f 852 929 853
f 852 930 929
f 853 929 855
f 854 855 928
f 854 928 861
f 855 929 928
f 856 926 857
f 856 927 926
f 857 926 858
f 858 926 925
f 858 925 931
f 858 931 864
f 858 864 863
f 858 863 859
f 859 863 862
f 859 862 860
f 864 931 932
f 864 932 865
f 865 932 866
f 866 932 933
f 866 933 868
f 866 868 867
f 868 933 924
f 869 882 870
f 870 882 934
f 870 934 871
f 871 934 935
f 871 935 872
f 872 935 873
f 873 935 936
f 873 936 874
f 874 936 937
f 874 937 876
f 874 876 875
f 876 937 938
f 876 938 879
f 877 939 878
f 877 879 940
f 877 940 939
f 878 939 880
f 879 938 940
f 880 939 881
f 881 939 941
f 881 941 942
f 881 942 934
f 881 934 882
f 883 943 893
f 884 904 885
f 885 904 944
f 885 944 886
f 886 944 945
f 886 945 946
f 886 946 947
f 886 947 887
f 887 947 888
f 888 947 889
f 889 947 948
f 889 948 890
f 890 948 949
f 890 949 891
f 891 949 950
f 891 950 900
f 891 900 892
f 893 943 951
f 893 951 895
f 893 895 894
f 895 952 896
f 895 951 952
f 896 952 899
f 897 898 906
f 897 906 905
f 898 899 907
f 898 907 906
f 899 952 953
f 899 953 956
f 899 956 907
f 900 950 954
f 900 954 901
f 901 955 902
f 901 954 955
f 902 955 903
f 903 955 944
f 903 944 904
f 907 956 957
f 907 957 908
f 908 957 909
f 909 957 958
f 909 958 910
f 910 958 923
f 911 922 912
f 912 922 959
f 912 959 913
f 913 959 914
f 914 959 960
f 914 960 915
f 915 960 918
f 916 917 920
f 917 919 920
f 918 960 961
f 918 961 919
f 919 961 920
f 920 961 921
f 921 961 960
f 921 960 959
f 921 959 922
f 923 958 957
f 923 957 956
f 923 956 953
f 923 953 943
f 924 933 932
f 924 932 931
f 934 942 935
f 935 942 936
f 936 942 962
f 936 962 937
f 937 962 938
f 938 962 941
f 938 941 940
f 939 940 941
f 941 962 942
f 943 953 952
f 943 952 951
f 944 955 945
f 945 955 954
f 945 954 963
f 945 963 946
f 946 948 947
f 946 963 949
f 946 949 948
f 949 963 950
f 950 963 954

