mtllib material.mtl
usemtl Material.002
v -0.01500000 -0.01312500 -0.01250800
v -0.01500000 -0.01312500 -0.01250800
v -0.01500000 0.01312500 -0.01250700
v -0.01500000 0.01312500 -0.01250700
v -0.01500000 0.01312500 0.01374300
v -0.01500000 0.01312500 0.01374300
v -0.01500000 -0.01312500 0.01374200
v -0.01500000 -0.01312500 0.01374200
v -0.01375000 0.01312500 -0.01250700
v -0.01375000 0.01312500 -0.01250700
v -0.01375000 0.01312500 -0.01250700
v -0.01375000 -0.01312500 -0.01250800
v -0.01375000 -0.01312500 -0.01250800
v -0.01375000 -0.01312500 -0.01250800
v -0.01375000 -0.01312500 0.01374200
v -0.01375000 -0.01312500 0.01374200
v -0.01375000 -0.01312500 0.01374200
v -0.01375000 0.01312500 0.01374300
v -0.01375000 0.01312500 0.01374300
v -0.01375000 0.01312500 0.01374300
vn -0.00000000 -0.00000000 1.00000000
vn -0.00000000 1.00000000 -0.00000000
vn -0.00000000 -0.00000000 1.00000000
vn -0.00000000 -1.00000000 -0.00000000
vn -0.00000000 -1.00000000 -0.00000000
vn -0.00000000 -0.00000000 -1.00000000
vn -0.00000000 -0.00000000 -1.00000000
vn -0.00000000 1.00000000 -0.00000000
vn -0.00000000 -0.00000000 1.00000000
vn -0.00000000 -1.00000000 -0.00000000
vn -1.00000000 -0.00000000 -0.00000000
vn -0.00000000 -0.00000000 1.00000000
vn -1.00000000 -0.00000000 -0.00000000
vn -0.00000000 1.00000000 -0.00000000
vn -0.00000000 1.00000000 -0.00000000
vn -1.00000000 -0.00000000 -0.00000000
vn -0.00000000 -0.00000000 -1.00000000
vn -0.00000000 -0.00000000 -1.00000000
vn -0.00000000 -1.00000000 -0.00000000
vn -1.00000000 -0.00000000 -0.00000000
vt 0.99314600 0.99273500
vt 0.99314600 0.99273500
vt 0.99817300 0.00406300
vt 0.99817300 0.00406300
vt 0.00406300 0.00131200
vt 0.00406300 0.00131200
vt 0.00697300 0.99593700
vt 0.00697300 0.99593700
vt 0.99264400 0.00429100
vt 0.99264400 0.00429100
vt 0.99264400 0.00429100
vt 0.99731800 0.99772500
vt 0.99731800 0.99772500
vt 0.99731800 0.99772500
vt 0.00456500 0.99570900
vt 0.00456500 0.99570900
vt 0.00456500 0.99570900
vt 0.00584300 -0.00169400
vt 0.00584300 -0.00169400
vt 0.00584300 -0.00169400
f 3/3/3 1/1/1 9/9/9
f 9/9/9 1/1/1 12/12/12
f 2/2/2 8/8/8 14/14/14
f 14/14/14 8/8/8 15/15/15
f 7/7/7 6/6/6 17/17/17
f 17/17/17 6/6/6 18/18/18
f 5/5/5 4/4/4 19/19/19
f 19/19/19 4/4/4 10/10/10
f 11/11/11 13/13/13 20/20/20
f 20/20/20 13/13/13 16/16/16

