mtllib material.mtl
usemtl Material.004
v 0.01500000 -0.01312500 0.01374200
v 0.01500000 -0.01312500 0.01374200
v 0.01500000 -0.01312500 -0.01250800
v 0.01500000 -0.01312500 -0.01250800
v 0.01375000 -0.01312500 0.01374200
v 0.01375000 -0.01312500 0.01374200
v 0.01375000 -0.01312500 0.01374200
v 0.01375000 -0.01312500 -0.01250800
v 0.01375000 -0.01312500 -0.01250800
v 0.01375000 -0.01312500 -0.01250800
v 0.01500000 0.01312500 -0.01250700
v 0.01500000 0.01312500 -0.01250700
v 0.01375000 0.01312500 -0.01250700
v 0.01375000 0.01312500 -0.01250700
v 0.01375000 0.01312500 -0.01250700
v 0.01500000 0.01312500 0.01374300
v 0.01500000 0.01312500 0.01374300
v 0.01375000 0.01312500 0.01374300
v 0.01375000 0.01312500 0.01374300
v 0.01375000 0.01312500 0.01374300
vn -0.00000000 1.00000000 -0.00000000
vn -0.00000000 -0.00000000 -1.00000000
vn -0.00000000 1.00000000 -0.00000000
vn -0.00000000 -0.00000000 1.00000000
vn -0.00000000 1.00000000 -0.00000000
vn 1.00000000 -0.00000000 -0.00000000
vn -0.00000000 -0.00000000 -1.00000000
vn -0.00000000 1.00000000 -0.00000000
vn -0.00000000 -0.00000000 1.00000000
vn 1.00000000 -0.00000000 -0.00000000
vn -0.00000000 -0.00000000 1.00000000
vn -0.00000000 -1.00000000 -0.00000000
vn -0.00000000 -1.00000000 -0.00000000
vn 1.00000000 -0.00000000 -0.00000000
vn -0.00000000 -0.00000000 1.00000000
vn -0.00000000 -1.00000000 -0.00000000
vn -0.00000000 -0.00000000 -1.00000000
vn -0.00000000 -0.00000000 -1.00000000
vn -0.00000000 -1.00000000 -0.00000000
vn 1.00000000 -0.00000000 -0.00000000
vt 0.99971900 0.98961300
vt 0.99971900 0.98961300
vt 0.00310200 0.99990500
vt 0.00310200 0.99990500
vt 0.99564300 0.99197700
vt 0.99564300 0.99197700
vt 0.99564300 0.99197700
vt 0.00768800 0.99635000
vt 0.00768800 0.99635000
vt 0.00768800 0.99635000
vt 0.00747700 0.00300500
vt 0.00747700 0.00300500
vt 0.00663200 -0.00182000
vt 0.00663200 -0.00182000
vt 0.00663200 -0.00182000
vt 0.99671200 0.00255500
vt 0.99671200 0.00255500
vt 0.99704700 0.00119000
vt 0.99704700 0.00119000
vt 0.99704700 0.00119000
f 1/1/1 3/3/3 5/5/5
f 5/5/5 3/3/3 8/8/8
f 4/4/4 11/11/11 9/9/9
f 9/9/9 11/11/11 15/15/15
f 12/12/12 16/16/16 13/13/13
f 13/13/13 16/16/16 19/19/19
f 17/17/17 2/2/2 18/18/18
f 18/18/18 2/2/2 7/7/7
f 20/20/20 6/6/6 14/14/14
f 14/14/14 6/6/6 10/10/10

