mtllib material.mtl
usemtl Material.001
v -0.01312500 0.01312500 -0.01438200
v -0.01312500 0.01312500 -0.01438200
v 0.01312500 0.01312500 -0.01438200
v 0.01312500 0.01312500 -0.01438200
v 0.01312500 -0.01312500 -0.01438300
v 0.01312500 -0.01312500 -0.01438300
v -0.01312500 -0.01312500 -0.01438300
v -0.01312500 -0.01312500 -0.01438300
v 0.01312500 0.01312500 -0.01313200
v 0.01312500 0.01312500 -0.01313200
v 0.01312500 0.01312500 -0.01313200
v 0.01312500 -0.01312500 -0.01313300
v 0.01312500 -0.01312500 -0.01313300
v 0.01312500 -0.01312500 -0.01313300
v -0.01312500 -0.01312500 -0.01313300
v -0.01312500 -0.01312500 -0.01313300
v -0.01312500 -0.01312500 -0.01313300
v -0.01312500 0.01312500 -0.01313200
v -0.01312500 0.01312500 -0.01313200
v -0.01312500 0.01312500 -0.01313200
vn -0.00000000 -1.00000000 -0.00000000
vn 1.00000000 -0.00000000 -0.00000000
vn -1.00000000 -0.00000000 -0.00000000
vn -0.00000000 -1.00000000 -0.00000000
vn -1.00000000 -0.00000000 -0.00000000
vn -0.00000000 1.00000000 -0.00000000
vn 1.00000000 -0.00000000 -0.00000000
vn -0.00000000 1.00000000 -0.00000000
vn -1.00000000 -0.00000000 -0.00000000
vn -0.00000000 -1.00000000 -0.00000000
vn -0.00000000 -0.00000000 -1.00000000
vn -1.00000000 -0.00000000 -0.00000000
vn -0.00000000 -0.00000000 -1.00000000
vn -0.00000000 1.00000000 -0.00000000
vn -0.00000000 1.00000000 -0.00000000
vn -0.00000000 -0.00000000 -1.00000000
vn 1.00000000 -0.00000000 -0.00000000
vn 1.00000000 -0.00000000 -0.00000000
vn -0.00000000 -1.00000000 -0.00000000
vn -0.00000000 -0.00000000 -1.00000000
vt 0.00205600 -0.00013900
vt 0.00205600 -0.00013900
vt 1.00400100 -0.00185900
vt 1.00400100 -0.00185900
vt 0.99353600 0.99620400
vt 0.99353600 0.99620400
vt 0.00525500 0.99209300
vt 0.00525500 0.99209300
vt 1.00327900 -0.00283700
vt 1.00327900 -0.00283700
vt 1.00327900 -0.00283700
vt 0.99696100 0.99794300
vt 0.99696100 0.99794300
vt 0.99696100 0.99794300
vt 0.00011600 0.99502300
vt 0.00011600 0.99502300
vt 0.00011600 0.99502300
vt 0.00253500 0.00398400
vt 0.00253500 0.00398400
vt 0.00253500 0.00398400
f 3/3/3 5/5/5 9/9/9
f 9/9/9 5/5/5 12/12/12
f 6/6/6 8/8/8 14/14/14
f 14/14/14 8/8/8 15/15/15
f 7/7/7 2/2/2 17/17/17
f 17/17/17 2/2/2 18/18/18
f 1/1/1 4/4/4 19/19/19
f 19/19/19 4/4/4 10/10/10
f 11/11/11 13/13/13 20/20/20
f 20/20/20 13/13/13 16/16/16

