mtllib material.mtl
usemtl Material.003
v -0.01312500 -0.01312500 0.01561800
v -0.01312500 -0.01312500 0.01561800
v -0.01312500 0.01312500 0.01561800
v -0.01312500 0.01312500 0.01561800
v 0.01312500 -0.01312500 0.01561800
v 0.01312500 -0.01312500 0.01561800
v 0.01312500 0.01312500 0.01561800
v 0.01312500 0.01312500 0.01561800
v -0.01312500 0.01312500 0.01436800
v -0.01312500 0.01312500 0.01436800
v -0.01312500 0.01312500 0.01436800
v -0.01312500 -0.01312500 0.01436700
v -0.01312500 -0.01312500 0.01436700
v -0.01312500 -0.01312500 0.01436700
v 0.01312500 -0.01312500 0.01436700
v 0.01312500 -0.01312500 0.01436700
v 0.01312500 -0.01312500 0.01436700
v 0.01312500 0.01312500 0.01436800
v 0.01312500 0.01312500 0.01436800
v 0.01312500 0.01312500 0.01436800
vn 1.00000000 -0.00000000 -0.00000000
vn -0.00000000 1.00000000 -0.00000000
vn 1.00000000 -0.00000000 -0.00000000
vn -0.00000000 -1.00000000 -0.00000000
vn -0.00000000 1.00000000 -0.00000000
vn -1.00000000 -0.00000000 -0.00000000
vn -0.00000000 -1.00000000 -0.00000000
vn -1.00000000 -0.00000000 -0.00000000
vn 1.00000000 -0.00000000 -0.00000000
vn -0.00000000 -1.00000000 -0.00000000
vn -0.00000000 -0.00000000 1.00000000
vn -0.00000000 1.00000000 -0.00000000
vn 1.00000000 -0.00000000 -0.00000000
vn -0.00000000 -0.00000000 1.00000000
vn -0.00000000 -0.00000000 1.00000000
vn -1.00000000 -0.00000000 -0.00000000
vn -0.00000000 1.00000000 -0.00000000
vn -1.00000000 -0.00000000 -0.00000000
vn -0.00000000 -1.00000000 -0.00000000
vn -0.00000000 -0.00000000 1.00000000
vt 0.99623300 0.99621500
vt 0.99623300 0.99621500
vt 0.99403900 0.00801300
vt 0.99403900 0.00801300
vt 0.00737800 0.99346300
vt 0.00737800 0.99346300
vt 0.00608400 0.00432200
vt 0.00608400 0.00432200
vt 0.99390100 0.00455700
vt 0.99390100 0.00455700
vt 0.99390100 0.00455700
vt 0.99473300 0.99401000
vt 0.99473300 0.99401000
vt 0.99473300 0.99401000
vt 0.00293400 0.99784400
vt 0.00293400 0.99784400
vt 0.00293400 0.99784400
vt 0.00378000 0.00885200
vt 0.00378000 0.00885200
vt 0.00378000 0.00885200
f 3/3/3 1/1/1 9/9/9
f 9/9/9 1/1/1 13/13/13
f 2/2/2 5/5/5 12/12/12
f 12/12/12 5/5/5 17/17/17
f 6/6/6 8/8/8 16/16/16
f 16/16/16 8/8/8 18/18/18
f 7/7/7 4/4/4 19/19/19
f 19/19/19 4/4/4 10/10/10
f 11/11/11 14/14/14 20/20/20
f 20/20/20 14/14/14 15/15/15

