# https://github.com/mikedh/trimesh
v 0.01558867 -0.01268491 -0.00311872
v 0.01449113 -0.01141295 -0.00368548
v 0.01558867 -0.01268445 -0.00368548
v 0.01558867 -0.01268491 0.00311872
v 0.01449113 -0.01140703 -0.00425327
v 0.01449113 -0.01141295 0.00368548
v 0.01558867 -0.01267762 -0.00412952
v 0.01558867 -0.01268445 0.00368548
v 0.01558867 -0.01267534 -0.00425327
v 0.01449113 -0.01135054 -0.00446646
v 0.01449113 -0.01140703 0.00425327
v 0.01558867 -0.01268263 0.00379987
v 0.01558867 -0.01258058 -0.00447062
v 0.01449113 -0.01112366 -0.00480339
v 0.01464037 -0.01143937 -0.00463492
v 0.01558867 -0.01267534 0.00425327
v 0.01464037 -0.01143937 0.00463492
v 0.01449113 -0.01112366 0.00480339
v 0.01521133 -0.01203025 -0.00464220
v 0.01558867 -0.01224027 -0.00484291
v 0.01449113 -0.01108767 -0.00483667
v 0.01558867 -0.01224027 0.00484291
v 0.01521133 -0.01203025 0.00464220
v 0.01449113 -0.01107081 0.00485123
v 0.01558867 -0.01222569 -0.00485331
v 0.01449113 -0.01107081 -0.00485123
v 0.01449113 -0.01078016 -0.00509977
v 0.01558867 -0.01222023 0.00485643
v 0.01465842 -0.01084667 0.00514656
v 0.01449113 -0.01102526 0.00488554
v 0.01558867 -0.01189449 -0.00508209
v 0.01449113 -0.01054554 -0.00520168
v 0.01465842 -0.01084667 -0.00514656
v 0.01558867 -0.01162115 0.00518608
v 0.01541644 -0.01178652 0.00502073
v 0.01524850 -0.01140885 0.00514033
v 0.01558867 -0.01160156 0.00519648
v 0.01449113 -0.01054554 0.00520168
v 0.01558867 -0.01160156 -0.00519648
v 0.01449113 -0.01052413 -0.00520896
v 0.01558867 -0.01159564 -0.00519856
v 0.01558867 -0.01105851 0.00528591
v 0.01449113 -0.01050044 0.00521312
v 0.01449113 -0.01050044 -0.00521312
v 0.01449113 -0.00995420 -0.00530671
v 0.01558867 -0.01105851 -0.00528591
v 0.01558867 -0.01049133 0.00531087
v 0.01449113 -0.00992459 0.00530775
v 0.01449113 -0.00992459 -0.00530775
v 0.01558867 -0.01048449 -0.00531191
v 0.01558867 -0.01105168 -0.00528695
v 0.01558867 -0.00992459 0.00531191
v 0.01502867 -0.00992459 0.00531191
v 0.01449113 -0.00935740 0.00531191
v 0.01449113 -0.00938747 -0.00531191
v 0.01558867 -0.00935740 -0.00531191
v 0.01558867 -0.00935740 0.00531191
v 0.01502867 -0.00881254 0.00520792
v 0.01449113 -0.00874648 0.00519128
v 0.01449113 -0.00935740 -0.00531191
v 0.01502867 -0.00881254 -0.00520792
v 0.01558867 -0.00874420 -0.00519128
v 0.01558867 -0.00875468 0.00519336
v 0.01558867 -0.00874420 0.00519128
v 0.01558867 -0.00851140 0.00510185
v 0.01449113 -0.00873054 0.00518504
v 0.01449113 -0.00877746 -0.00519752
v 0.01449113 -0.00874648 -0.00519128
v 0.01449113 -0.00851232 -0.00510185
v 0.01558867 -0.00872917 -0.00518504
v 0.01558867 -0.00832234 0.00487619
v 0.01449113 -0.00831596 0.00486787
v 0.01449113 -0.00835332 0.00491050
v 0.01464585 -0.00852143 0.00509561
v 0.01449113 -0.00870411 0.00517464
v 0.01541408 -0.00852188 -0.00509561
v 0.01449113 -0.00832963 -0.00488451
v 0.01558867 -0.00833054 -0.00488555
v 0.01558867 -0.00831779 0.00486995
v 0.01558867 -0.00804171 0.00425951
v 0.01449113 -0.00803898 0.00425327
v 0.01449113 -0.00831596 -0.00486787
v 0.01558867 -0.00831779 -0.00486995
v 0.01558867 -0.00803898 0.00425327
v 0.01449113 -0.00803852 0.00422312
v 0.01449113 -0.00805082 -0.00428135
v 0.01558867 -0.00803898 -0.00425327
v 0.01558867 -0.00803123 0.00369276
v 0.01449113 -0.00803169 0.00368548
v 0.01449113 -0.00803898 -0.00425327
v 0.01558867 -0.00803852 -0.00424599
v 0.01558867 -0.00803077 0.00311872
v 0.01449113 -0.00803123 0.00311872
v 0.01449113 -0.00803169 -0.00368548
v 0.01558867 -0.00803123 -0.00368548
v 0.01558867 -0.00803077 -0.00311872
v 0.01449113 -0.00803123 -0.00314784
f 1 2 3
f 1 3 7
f 1 7 9
f 1 9 13
f 1 13 20
f 1 20 25
f 1 25 31
f 1 31 39
f 1 39 41
f 1 41 46
f 1 46 51
f 1 51 50
f 1 50 56
f 1 56 62
f 1 62 70
f 1 70 78
f 1 78 83
f 1 83 87
f 1 87 91
f 1 91 95
f 1 95 96
f 1 96 92
f 1 92 88
f 1 88 84
f 1 84 80
f 1 80 79
f 1 79 71
f 1 71 65
f 1 65 64
f 1 64 63
f 1 63 57
f 1 57 52
f 1 52 47
f 1 47 42
f 1 42 37
f 1 37 34
f 1 34 28
f 1 28 22
f 1 22 16
f 1 16 12
f 1 12 8
f 1 8 4
f 1 4 6
f 1 6 2
f 2 5 3
f 2 6 11
f 2 11 18
f 2 18 24
f 2 24 30
f 2 30 38
f 2 38 43
f 2 43 48
f 2 48 54
f 2 54 59
f 2 59 66
f 2 66 75
f 2 75 73
f 2 73 72
f 2 72 81
f 2 81 85
f 2 85 89
f 2 89 93
f 2 93 97
f 2 97 94
f 2 94 90
f 2 90 86
f 2 86 82
f 2 82 77
f 2 77 69
f 2 69 68
f 2 68 67
f 2 67 60
f 2 60 55
f 2 55 49
f 2 49 45
f 2 45 44
f 2 44 40
f 2 40 32
f 2 32 27
f 2 27 26
f 2 26 21
f 2 21 14
f 2 14 10
f 2 10 5
f 3 5 7
f 4 8 6
f 5 9 7
f 5 10 9
f 6 8 11
f 8 12 11
f 9 10 13
f 10 14 15
f 10 15 13
f 11 12 16
f 11 16 17
f 11 17 18
f 13 15 19
f 13 19 20
f 14 21 20
f 14 20 15
f 15 20 19
f 16 22 23
f 16 23 17
f 17 23 22
f 17 22 18
f 18 22 24
f 20 21 26
f 20 26 27
f 20 27 25
f 22 28 29
f 22 29 30
f 22 30 24
f 25 27 31
f 27 32 33
f 27 33 31
f 28 34 35
f 28 35 29
f 29 35 36
f 29 36 37
f 29 37 38
f 29 38 30
f 31 33 39
f 32 40 41
f 32 41 39
f 32 39 33
f 34 37 35
f 35 37 36
f 37 42 43
f 37 43 38
f 40 44 41
f 41 44 45
f 41 45 46
f 42 47 48
f 42 48 43
f 45 49 50
f 45 50 51
f 45 51 46
f 47 52 53
f 47 53 48
f 48 53 54
f 49 55 50
f 50 55 60
f 50 60 56
f 52 57 54
f 52 54 53
f 54 57 58
f 54 58 59
f 56 60 61
f 56 61 62
f 57 63 58
f 58 64 59
f 58 63 64
f 59 64 65
f 59 65 66
f 60 67 61
f 61 67 68
f 61 68 62
f 62 68 69
f 62 69 70
f 65 71 72
f 65 72 73
f 65 73 74
f 65 74 75
f 65 75 66
f 69 76 70
f 69 77 78
f 69 78 76
f 70 76 78
f 71 79 72
f 72 79 80
f 72 80 81
f 73 75 74
f 77 82 78
f 78 82 83
f 80 84 81
f 81 84 85
f 82 86 87
f 82 87 83
f 84 88 85
f 85 88 89
f 86 90 87
f 87 90 91
f 88 92 93
f 88 93 89
f 90 94 95
f 90 95 91
f 92 96 97
f 92 97 93
f 94 97 95
f 95 97 96

