# https://github.com/mikedh/trimesh
v 0.02540152 -0.00411038 0.00368548
v 0.02536093 -0.00411038 0.00404841
v 0.02498733 -0.00521203 0.00425327
v 0.02517383 -0.00482064 0.00368548
v 0.02540152 -0.00411038 -0.00368548
v 0.02533563 -0.00411038 0.00426471
v 0.02529209 -0.00425338 0.00425327
v 0.02495556 -0.00511277 0.00454133
v 0.02459550 -0.00642542 0.00425327
v 0.02460667 -0.00642542 0.00415656
v 0.02465845 -0.00642542 0.00368548
v 0.02501792 -0.00530654 0.00368548
v 0.02517383 -0.00482064 -0.00368548
v 0.02498733 -0.00521226 -0.00425327
v 0.02511206 -0.00482064 -0.00425327
v 0.02529268 -0.00425338 -0.00425327
v 0.02533622 -0.00411038 -0.00426471
v 0.02518619 -0.00411038 0.00460789
v 0.02500086 -0.00482064 0.00460581
v 0.02445900 -0.00642542 0.00463804
v 0.02449548 -0.00642542 0.00455693
v 0.02465845 -0.00642542 -0.00368548
v 0.02501792 -0.00530654 -0.00368548
v 0.02459667 -0.00642542 -0.00425327
v 0.02495556 -0.00511345 -0.00454133
v 0.02500145 -0.00482064 -0.00460581
v 0.02509088 -0.00425338 -0.00471500
v 0.02510382 -0.00411038 -0.00474828
v 0.02510323 -0.00411038 0.00474931
v 0.02509029 -0.00425338 0.00471604
v 0.02453372 -0.00595448 0.00472644
v 0.02419013 -0.00642542 0.00492194
v 0.02446018 -0.00642542 -0.00463804
v 0.02453431 -0.00595448 -0.00472644
v 0.02502498 -0.00411038 -0.00483147
v 0.02484201 -0.00411038 0.00502177
v 0.02426132 -0.00595448 0.00501033
v 0.02395479 -0.00642542 0.00512161
v 0.02418895 -0.00642542 -0.00492090
v 0.02425955 -0.00595448 -0.00501034
v 0.02433310 -0.00554246 -0.00507169
v 0.02484142 -0.00411038 -0.00502073
v 0.02465256 -0.00411038 0.00513825
v 0.02440311 -0.00516557 0.00511537
v 0.02433310 -0.00554337 0.00507273
v 0.02390655 -0.00642542 0.00515072
v 0.02390537 -0.00642542 -0.00514968
v 0.02440311 -0.00516444 -0.00511537
v 0.02444900 -0.00482064 -0.00514033
v 0.02457020 -0.00411038 -0.00517568
v 0.02445018 -0.00482064 0.00514033
v 0.02457078 -0.00411038 0.00517568
v 0.02453313 -0.00425338 0.00517360
v 0.02397774 -0.00595448 0.00517672
v 0.02361003 -0.00642542 0.00523496
v 0.02353472 -0.00642542 -0.00525368
v 0.02397597 -0.00595448 -0.00517672
v 0.02453254 -0.00425338 -0.00517360
v 0.02410188 -0.00482064 -0.00524224
v 0.02410188 -0.00425338 -0.00527760
v 0.02410188 -0.00411038 -0.00528383
v 0.02424249 -0.00411038 0.00525472
v 0.02410188 -0.00482064 0.00524224
v 0.02353472 -0.00642542 0.00525264
v 0.02296815 -0.00642542 -0.00531087
v 0.02353472 -0.00595448 -0.00528071
v 0.02353472 -0.00538744 -0.00530151
v 0.02353472 -0.00482064 -0.00530983
v 0.02353472 -0.00425338 -0.00531191
v 0.02353472 -0.00411038 -0.00531191
v 0.02410188 -0.00411038 0.00528279
v 0.02410188 -0.00425338 0.00527759
v 0.02353472 -0.00595448 0.00528071
v 0.02306405 -0.00642542 0.00530463
v 0.02240099 -0.00642542 -0.00531191
v 0.02296815 -0.00595448 -0.00531191
v 0.02296815 -0.00411038 -0.00531191
v 0.02367827 -0.00411038 0.00530775
v 0.02353472 -0.00482064 0.00530879
v 0.02353472 -0.00538744 0.00530047
v 0.02296815 -0.00642542 0.00530983
v 0.02183441 -0.00642542 -0.00531191
v 0.02240099 -0.00425338 -0.00531191
v 0.02240099 -0.00411038 -0.00530879
v 0.02353472 -0.00411038 0.00531191
v 0.02353472 -0.00425338 0.00531191
v 0.02296815 -0.00595448 0.00531191
v 0.02249689 -0.00642542 0.00531191
v 0.02183441 -0.00538744 -0.00531191
v 0.02126725 -0.00642542 -0.00530879
v 0.02126725 -0.00595448 -0.00529527
v 0.02070186 -0.00642542 -0.00526408
v 0.02185618 -0.00411038 -0.00519960
v 0.02254395 -0.00411038 0.00531191
v 0.02136374 -0.00642542 0.00531191
v 0.02023530 -0.00642542 -0.00516216
v 0.02163791 -0.00411038 -0.00507377
v 0.02240099 -0.00411038 0.00530879
v 0.02240099 -0.00425338 0.00531191
v 0.02183441 -0.00538744 0.00531191
v 0.02126725 -0.00642542 0.00530879
v 0.02003703 -0.00642542 -0.00503945
v 0.01989171 -0.00642542 -0.00494586
v 0.02157672 -0.00411038 -0.00502905
v 0.02079658 -0.00642542 0.00528279
v 0.02197326 -0.00411038 0.00522768
v 0.01965285 -0.00642542 -0.00474932
v 0.02133079 -0.00411038 -0.00477531
v 0.02070186 -0.00642542 0.00526408
v 0.02185618 -0.00411038 0.00519960
v 0.02028414 -0.00642542 0.00518088
v 0.01939868 -0.00642542 -0.00425327
v 0.01977228 -0.00616162 -0.00461413
v 0.02112487 -0.00411038 -0.00425327
v 0.02160673 -0.00411038 0.00506025
v 0.02023530 -0.00642542 0.00516216
v 0.01939751 -0.00642542 -0.00417216
v 0.01939221 -0.00642542 -0.00368548
v 0.02111899 -0.00411038 -0.00368548
v 0.02140787 -0.00411038 0.00486059
v 0.01965285 -0.00642542 0.00474931
v 0.01972109 -0.00642542 0.00481275
v 0.01989171 -0.00642542 0.00494586
v 0.01997173 -0.00642542 0.00500826
v 0.01939162 -0.00642542 -0.00311872
v 0.02111899 -0.00411038 0.00368548
v 0.02133079 -0.00411038 0.00477531
v 0.01941339 -0.00642542 0.00429903
v 0.01939162 -0.00642542 0.00320503
v 0.01939221 -0.00642542 0.00368548
v 0.01939280 -0.00642542 0.00377179
v 0.02112487 -0.00411038 0.00425327
v 0.02114606 -0.00411038 0.00432503
v 0.01939868 -0.00642542 0.00425327
f 1 2 3
f 1 3 4
f 1 4 13
f 1 13 5
f 1 5 17
f 1 17 28
f 1 28 35
f 1 35 42
f 1 42 50
f 1 50 61
f 1 61 70
f 1 70 77
f 1 77 84
f 1 84 93
f 1 93 97
f 1 97 104
f 1 104 108
f 1 108 114
f 1 114 119
f 1 119 126
f 1 126 132
f 1 132 133
f 1 133 127
f 1 127 120
f 1 120 115
f 1 115 110
f 1 110 106
f 1 106 98
f 1 98 94
f 1 94 85
f 1 85 78
f 1 78 71
f 1 71 62
f 1 62 52
f 1 52 43
f 1 43 36
f 1 36 29
f 1 29 18
f 1 18 6
f 1 6 2
f 2 6 7
f 2 7 3
f 3 7 6
f 3 6 8
f 3 8 9
f 3 9 10
f 3 10 11
f 3 11 12
f 3 12 4
f 4 12 23
f 4 23 13
f 5 13 14
f 5 14 15
f 5 15 16
f 5 16 17
f 6 18 8
f 8 18 19
f 8 19 20
f 8 20 21
f 8 21 9
f 9 21 20
f 9 20 32
f 9 32 38
f 9 38 46
f 9 46 55
f 9 55 64
f 9 64 74
f 9 74 81
f 9 81 88
f 9 88 95
f 9 95 101
f 9 101 105
f 9 105 109
f 9 109 111
f 9 111 116
f 9 116 124
f 9 124 123
f 9 123 122
f 9 122 121
f 9 121 128
f 9 128 134
f 9 134 131
f 9 131 130
f 9 130 129
f 9 129 125
f 9 125 118
f 9 118 117
f 9 117 112
f 9 112 107
f 9 107 103
f 9 103 102
f 9 102 96
f 9 96 92
f 9 92 90
f 9 90 82
f 9 82 75
f 9 75 65
f 9 65 56
f 9 56 47
f 9 47 39
f 9 39 33
f 9 33 24
f 9 24 22
f 9 22 11
f 9 11 10
f 11 22 23
f 11 23 12
f 13 23 14
f 14 23 22
f 14 22 24
f 14 24 25
f 14 25 17
f 14 17 15
f 15 17 16
f 17 25 26
f 17 26 27
f 17 27 28
f 18 29 30
f 18 30 19
f 19 30 20
f 20 30 31
f 20 31 32
f 24 33 25
f 25 33 26
f 26 33 27
f 27 33 34
f 27 34 35
f 27 35 28
f 29 36 30
f 30 36 37
f 30 37 31
f 31 37 32
f 32 37 38
f 33 39 34
f 34 39 40
f 34 40 41
f 34 41 35
f 35 41 42
f 36 43 44
f 36 44 45
f 36 45 37
f 37 45 38
f 38 45 44
f 38 44 46
f 39 47 40
f 40 47 41
f 41 47 48
f 41 48 42
f 42 48 49
f 42 49 50
f 43 51 44
f 43 52 51
f 44 51 46
f 46 51 53
f 46 53 54
f 46 54 55
f 47 56 57
f 47 57 58
f 47 58 49
f 47 49 48
f 49 58 50
f 50 58 59
f 50 59 60
f 50 60 61
f 51 52 53
f 52 62 63
f 52 63 53
f 53 63 54
f 54 63 55
f 55 63 64
f 56 59 57
f 56 65 66
f 56 66 60
f 56 60 59
f 57 59 58
f 60 66 61
f 61 66 67
f 61 67 68
f 61 68 69
f 61 69 70
f 62 71 72
f 62 72 63
f 63 72 64
f 64 72 73
f 64 73 74
f 65 75 76
f 65 76 69
f 65 69 68
f 65 68 67
f 65 67 66
f 69 76 75
f 69 75 82
f 69 82 89
f 69 89 83
f 69 83 77
f 69 77 70
f 71 78 79
f 71 79 80
f 71 80 73
f 71 73 72
f 73 80 74
f 74 80 81
f 77 83 84
f 78 85 86
f 78 86 79
f 79 81 80
f 79 86 81
f 81 86 87
f 81 87 88
f 82 90 89
f 83 89 84
f 84 89 90
f 84 90 91
f 84 91 92
f 84 92 93
f 85 94 99
f 85 99 100
f 85 100 95
f 85 95 88
f 85 88 87
f 85 87 86
f 90 92 91
f 92 96 93
f 93 96 97
f 94 98 99
f 95 100 101
f 96 102 97
f 97 102 103
f 97 103 104
f 98 105 101
f 98 101 100
f 98 100 99
f 98 106 105
f 103 107 104
f 104 107 108
f 105 106 109
f 106 110 111
f 106 111 109
f 107 112 113
f 107 113 108
f 108 113 112
f 108 112 114
f 110 115 116
f 110 116 111
f 112 117 114
f 114 117 118
f 114 118 119
f 115 120 121
f 115 121 122
f 115 122 123
f 115 123 124
f 115 124 116
f 118 125 119
f 119 125 129
f 119 129 126
f 120 127 121
f 121 127 128
f 126 129 130
f 126 130 131
f 126 131 132
f 127 133 128
f 128 133 134
f 131 134 132
f 132 134 133

