# https://github.com/mikedh/trimesh
v 0.01236576 0.01869588 0.00368548
v 0.01212439 0.01887063 0.00368548
v 0.00681611 0.02269147 0.00400057
v 0.00911348 0.02101266 0.00409001
v 0.01229268 0.01869588 0.00409417
v 0.01236576 0.01869588 -0.00368548
v 0.00255217 0.02577311 0.00368548
v 0.01212439 0.01887063 -0.00368548
v 0.00285893 0.02553595 0.00403801
v 0.00509187 0.02380860 0.00450181
v 0.00904712 0.02096481 0.00446750
v 0.01139835 0.01932275 0.00425327
v 0.01207438 0.01883388 0.00425327
v 0.01226383 0.01869588 0.00425327
v 0.01234749 0.01869588 -0.00378843
v 0.00911348 0.02101266 -0.00408585
v 0.00681611 0.02269147 -0.00399953
v 0.00254255 0.02577935 0.00368548
v 0.00254255 0.02577796 0.00369900
v 0.00255217 0.02577311 -0.00368548
v 0.00254255 0.02571139 0.00423871
v 0.00258294 0.02568296 0.00423767
v 0.00279162 0.02548741 0.00441550
v 0.00343207 0.02497357 0.00456421
v 0.00739021 0.02212979 0.00455277
v 0.01134642 0.01928531 0.00454133
v 0.01198495 0.01877008 0.00460373
v 0.01202149 0.01869588 0.00464740
v 0.01226383 0.01869588 -0.00425327
v 0.00285893 0.02553595 -0.00403593
v 0.01139642 0.01932206 -0.00425327
v 0.00904616 0.02096343 -0.00446438
v 0.00254255 0.02577935 -0.00368548
v 0.00254255 0.02566909 0.00433543
v 0.00254255 0.02535982 0.00480651
v 0.00311954 0.02508591 0.00467756
v 0.00407157 0.02445835 0.00462348
v 0.00573137 0.02329407 0.00459021
v 0.00968758 0.02045028 0.00457981
v 0.01032611 0.01993436 0.00463596
v 0.01183590 0.01869588 0.00477219
v 0.01217728 0.01869588 -0.00442070
v 0.01134449 0.01928392 -0.00453925
v 0.00258198 0.02568296 -0.00423559
v 0.00254255 0.02571000 -0.00423768
v 0.00254255 0.02571763 -0.00418152
v 0.00508899 0.02380652 -0.00449661
v 0.00278969 0.02548603 -0.00441342
v 0.00254255 0.02527730 0.00488242
v 0.00259160 0.02526135 0.00486475
v 0.00311954 0.02477733 0.00496146
v 0.00379365 0.02425032 0.00500098
v 0.00471299 0.02394382 0.00467236
v 0.00637086 0.02277815 0.00464428
v 0.00866920 0.02109934 0.00466404
v 0.00935677 0.02056886 0.00469628
v 0.01161087 0.01869588 0.00492194
v 0.01198399 0.01876870 -0.00460269
v 0.01202053 0.01869588 -0.00464636
v 0.00968566 0.02044820 -0.00457773
v 0.00343015 0.02497149 -0.00456109
v 0.00254255 0.02557548 -0.00456941
v 0.00254255 0.02520657 0.00493130
v 0.00276950 0.02489938 0.00507481
v 0.00775082 0.02140722 0.00499162
v 0.00737386 0.02155146 0.00510393
v 0.00935677 0.02026028 0.00498018
v 0.01004627 0.01972564 0.00501345
v 0.01132815 0.01870351 0.00509873
v 0.01134738 0.01869588 0.00509249
v 0.01032611 0.01993436 -0.00463596
v 0.00802682 0.02161318 -0.00461309
v 0.01161087 0.01869588 -0.00492090
v 0.00407061 0.02445766 -0.00462245
v 0.00572848 0.02329199 -0.00458813
v 0.00311954 0.02508383 -0.00467548
v 0.00254255 0.02535635 -0.00480859
v 0.00254255 0.02474405 0.00519024
v 0.00311954 0.02449372 0.00514656
v 0.00341476 0.02439386 0.00510809
v 0.00571021 0.02271089 0.00511849
v 0.00966835 0.01986849 0.00511433
v 0.01132045 0.01869588 0.00510185
v 0.01030399 0.01934702 0.00513513
v 0.01094926 0.01883110 0.00515072
v 0.01100984 0.01869588 0.00517360
v 0.00636990 0.02277815 -0.00464428
v 0.01149740 0.01869588 -0.00499682
v 0.00765562 0.02144328 -0.00501969
v 0.00379173 0.02425032 -0.00500098
v 0.00471106 0.02394382 -0.00467236
v 0.00254255 0.02527591 -0.00488139
v 0.00254255 0.02469273 0.00520272
v 0.00256948 0.02469412 0.00519856
v 0.00404945 0.02387240 0.00513097
v 0.00424466 0.02354024 0.00518712
v 0.00363690 0.02407765 0.00515904
v 0.00538806 0.02282531 0.00515696
v 0.00935677 0.01997666 0.00515280
v 0.00988375 0.01954812 0.00516736
v 0.01049248 0.01901140 0.00519232
v 0.00992414 0.01899892 0.00527759
v 0.01049151 0.01869588 0.00524744
v 0.01134738 0.01869588 -0.00509249
v 0.01132815 0.01870351 -0.00509873
v 0.00737290 0.02155077 -0.00510393
v 0.00276854 0.02489868 -0.00507481
v 0.00254255 0.02497981 -0.00511433
v 0.00254255 0.02410192 0.00529839
v 0.00255217 0.02410192 0.00529839
v 0.00311954 0.02410192 0.00524432
v 0.00820664 0.02069992 0.00518296
v 0.00708921 0.02126715 0.00523808
v 0.00935677 0.01956545 0.00525160
v 0.00765562 0.02069992 0.00526823
v 0.00595543 0.02183438 0.00528175
v 0.00822299 0.02013269 0.00528903
v 0.00878940 0.01956545 0.00530047
v 0.00935677 0.01899892 0.00530671
v 0.00992414 0.01869588 0.00529527
v 0.01133295 0.01869588 -0.00509977
v 0.01094926 0.01882972 -0.00515072
v 0.01030111 0.01934702 -0.00513513
v 0.00966738 0.01986779 -0.00511329
v 0.00341380 0.02439247 -0.00510809
v 0.00800470 0.02102930 -0.00512681
v 0.00311954 0.02449233 -0.00514553
v 0.00254255 0.02474266 -0.00519024
v 0.00254255 0.02353469 0.00531191
v 0.00652280 0.02126715 0.00529631
v 0.00425428 0.02296746 0.00529215
v 0.00368691 0.02353469 0.00527239
v 0.00255217 0.02353469 0.00531191
v 0.00311954 0.02353469 0.00530567
v 0.00708921 0.02069992 0.00530463
v 0.00538806 0.02240092 0.00525680
v 0.00538806 0.02183438 0.00530775
v 0.00765562 0.02013269 0.00530983
v 0.00822299 0.01956545 0.00531191
v 0.00935677 0.01869588 0.00530983
v 0.01100984 0.01869588 -0.00517360
v 0.01049055 0.01901071 -0.00519128
v 0.00988375 0.01954812 -0.00516632
v 0.00935677 0.01997597 -0.00515280
v 0.00404753 0.02387240 -0.00512993
v 0.00538806 0.02282531 -0.00515696
v 0.00363594 0.02407765 -0.00515904
v 0.00254255 0.02471562 -0.00519752
v 0.00256852 0.02469343 -0.00519856
v 0.00254255 0.02126715 0.00531191
v 0.00425428 0.02240092 0.00531191
v 0.00368691 0.02296746 0.00530983
v 0.00595543 0.02126715 0.00531087
v 0.00878940 0.01899892 0.00531191
v 0.00878940 0.01869588 0.00531191
v 0.01085598 0.01869588 -0.00520168
v 0.00820568 0.02069922 -0.00518296
v 0.00935677 0.01956545 -0.00525160
v 0.00881729 0.02016597 -0.00520376
v 0.00765562 0.02115967 -0.00516632
v 0.00424370 0.02353954 -0.00518712
v 0.00254255 0.02469273 -0.00520272
v 0.00311954 0.02410192 -0.00524328
v 0.00595543 0.01899892 0.00531191
v 0.00254255 0.02065068 0.00522144
v 0.00311954 0.02069992 0.00529631
v 0.00595543 0.01869588 0.00529215
v 0.00652280 0.01869588 0.00531191
v 0.01022610 0.01869588 -0.00528695
v 0.00992414 0.01899892 -0.00527760
v 0.00765562 0.02069992 -0.00526824
v 0.00538806 0.02240092 -0.00525680
v 0.00254255 0.02411163 -0.00529839
v 0.00368691 0.02353469 -0.00527240
v 0.00254255 0.02056955 0.00519960
v 0.00541018 0.01869588 0.00520480
v 0.00878940 0.01956545 -0.00530047
v 0.00822299 0.02013269 -0.00528903
v 0.00965969 0.01869588 -0.00530879
v 0.00935677 0.01899892 -0.00530671
v 0.00595543 0.02183438 -0.00528175
v 0.00425428 0.02296746 -0.00529111
v 0.00652280 0.02126715 -0.00529631
v 0.00482069 0.02240092 -0.00530255
v 0.00311954 0.02353469 -0.00530567
v 0.00255217 0.02353469 -0.00531191
v 0.00254255 0.02353469 -0.00531191
v 0.00265795 0.02034835 0.00515280
v 0.00254255 0.02018192 0.00494066
v 0.00510053 0.01869588 0.00511329
v 0.00708921 0.02069992 -0.00530463
v 0.00909232 0.01869588 -0.00531191
v 0.00878940 0.01899892 -0.00531191
v 0.00822299 0.01956545 -0.00531191
v 0.00765562 0.02013269 -0.00530983
v 0.00538806 0.02183438 -0.00530775
v 0.00368691 0.02296746 -0.00530983
v 0.00425428 0.02240092 -0.00531191
v 0.00254255 0.02126715 -0.00531191
v 0.00254255 0.02010287 0.00486371
v 0.00254255 0.02004393 0.00479923
v 0.00479280 0.01869588 0.00488242
v 0.00625739 0.01869588 -0.00531191
v 0.00595543 0.02126715 -0.00531087
v 0.00311954 0.02069992 -0.00529839
v 0.00254255 0.02065068 -0.00522352
v 0.00254255 0.01981301 0.00425327
v 0.00271180 0.01979776 0.00460685
v 0.00446488 0.01869588 0.00460997
v 0.00595543 0.01869588 -0.00529215
v 0.00569098 0.01869588 -0.00527032
v 0.00254255 0.02062087 -0.00521624
v 0.00437064 0.01869588 0.00383627
v 0.00437641 0.01869588 0.00425327
v 0.00254255 0.01980954 0.00368548
v 0.00436872 0.01869588 0.00368548
v 0.00254255 0.02056747 -0.00520168
v 0.00521016 0.01869588 -0.00516216
v 0.00254255 0.02036845 -0.00513929
v 0.00265699 0.02034488 -0.00515592
v 0.00254255 0.01980954 -0.00368548
v 0.00436102 0.01869588 -0.00352637
v 0.00436199 0.01869588 -0.00255196
v 0.00509861 0.01869588 -0.00511329
v 0.00509284 0.01869588 -0.00511017
v 0.00254255 0.02010079 -0.00486371
v 0.00254255 0.01981163 -0.00404945
v 0.00436102 0.01869588 -0.00368548
v 0.00466394 0.01869588 -0.00478987
v 0.00254255 0.02004185 -0.00479819
v 0.00254255 0.02008068 -0.00484187
v 0.00254255 0.01981301 -0.00425327
v 0.00436583 0.01869588 -0.00409937
v 0.00446200 0.01869588 -0.00461205
v 0.00271180 0.01979776 -0.00460685
v 0.00254255 0.01984214 -0.00443630
v 0.00442642 0.01869588 -0.00453925
v 0.00436776 0.01869588 -0.00425327
f 1 2 3
f 1 3 4
f 1 4 5
f 1 5 14
f 1 14 28
f 1 28 41
f 1 41 57
f 1 57 70
f 1 70 83
f 1 83 86
f 1 86 103
f 1 103 120
f 1 120 140
f 1 140 155
f 1 155 168
f 1 168 167
f 1 167 176
f 1 176 190
f 1 190 202
f 1 202 209
f 1 209 214
f 1 214 213
f 1 213 216
f 1 216 223
f 1 223 222
f 1 222 228
f 1 228 233
f 1 233 238
f 1 238 237
f 1 237 234
f 1 234 229
f 1 229 225
f 1 225 224
f 1 224 218
f 1 218 211
f 1 211 210
f 1 210 203
f 1 203 192
f 1 192 179
f 1 179 169
f 1 169 156
f 1 156 141
f 1 141 121
f 1 121 104
f 1 104 88
f 1 88 73
f 1 73 59
f 1 59 42
f 1 42 29
f 1 29 15
f 1 15 6
f 1 6 8
f 1 8 2
f 2 7 3
f 2 8 20
f 2 20 7
f 3 9 4
f 3 7 9
f 4 9 10
f 4 10 11
f 4 11 12
f 4 12 13
f 4 13 14
f 4 14 5
f 6 15 16
f 6 16 17
f 6 17 8
f 7 18 19
f 7 19 9
f 7 20 33
f 7 33 18
f 8 17 20
f 9 19 21
f 9 21 22
f 9 22 23
f 9 23 10
f 10 23 24
f 10 24 25
f 10 25 26
f 10 26 11
f 11 26 12
f 12 26 13
f 13 26 14
f 14 26 27
f 14 27 28
f 15 29 16
f 16 30 17
f 16 29 31
f 16 31 32
f 16 32 30
f 17 30 20
f 18 33 46
f 18 46 45
f 18 45 62
f 18 62 77
f 18 77 92
f 18 92 108
f 18 108 128
f 18 128 148
f 18 148 162
f 18 162 173
f 18 173 187
f 18 187 199
f 18 199 206
f 18 206 212
f 18 212 217
f 18 217 219
f 18 219 226
f 18 226 231
f 18 231 230
f 18 230 236
f 18 236 232
f 18 232 227
f 18 227 221
f 18 221 215
f 18 215 207
f 18 207 201
f 18 201 200
f 18 200 189
f 18 189 175
f 18 175 165
f 18 165 150
f 18 150 129
f 18 129 109
f 18 109 93
f 18 93 78
f 18 78 63
f 18 63 49
f 18 49 35
f 18 35 34
f 18 34 21
f 18 21 19
f 20 30 33
f 21 34 23
f 21 23 22
f 23 34 35
f 23 35 24
f 24 35 36
f 24 36 37
f 24 37 38
f 24 38 25
f 25 38 39
f 25 39 26
f 26 39 27
f 27 39 38
f 27 38 37
f 27 37 40
f 27 40 41
f 27 41 28
f 29 42 43
f 29 43 32
f 29 32 31
f 30 32 44
f 30 44 45
f 30 45 46
f 30 46 33
f 32 43 47
f 32 47 48
f 32 48 44
f 35 49 50
f 35 50 36
f 36 50 51
f 36 51 52
f 36 52 53
f 36 53 37
f 37 53 54
f 37 54 40
f 40 54 55
f 40 55 56
f 40 56 57
f 40 57 41
f 42 58 43
f 42 59 58
f 43 58 60
f 43 60 61
f 43 61 47
f 44 48 45
f 45 48 62
f 47 61 48
f 48 61 62
f 49 63 64
f 49 64 51
f 49 51 50
f 51 64 52
f 52 65 53
f 52 64 66
f 52 66 65
f 53 56 55
f 53 55 54
f 53 65 56
f 56 65 67
f 56 67 57
f 57 67 68
f 57 68 69
f 57 69 70
f 58 59 71
f 58 71 72
f 58 72 60
f 59 73 71
f 60 72 74
f 60 74 75
f 60 75 61
f 61 75 74
f 61 74 76
f 61 76 62
f 62 76 77
f 63 78 64
f 64 78 79
f 64 79 80
f 64 80 66
f 65 66 69
f 65 69 68
f 65 68 67
f 66 80 81
f 66 81 82
f 66 82 69
f 69 83 70
f 69 82 84
f 69 84 85
f 69 85 86
f 69 86 83
f 71 87 74
f 71 74 72
f 71 73 88
f 71 88 89
f 71 89 90
f 71 90 87
f 74 87 91
f 74 91 77
f 74 77 76
f 77 91 90
f 77 90 92
f 78 93 94
f 78 94 79
f 79 95 80
f 79 94 96
f 79 96 97
f 79 97 98
f 79 98 95
f 80 95 81
f 81 95 82
f 82 95 84
f 84 95 99
f 84 99 85
f 85 99 100
f 85 100 101
f 85 101 86
f 86 101 102
f 86 102 103
f 87 90 91
f 88 104 105
f 88 105 89
f 89 105 106
f 89 106 90
f 90 106 107
f 90 107 92
f 92 107 108
f 93 109 110
f 93 110 111
f 93 111 94
f 94 111 96
f 95 98 99
f 96 101 112
f 96 112 100
f 96 100 98
f 96 98 97
f 96 111 113
f 96 113 101
f 98 100 99
f 100 112 101
f 101 113 114
f 101 114 102
f 102 114 115
f 102 115 116
f 102 116 117
f 102 117 118
f 102 118 119
f 102 119 120
f 102 120 103
f 104 121 105
f 105 121 122
f 105 122 123
f 105 123 124
f 105 124 106
f 106 125 107
f 106 124 126
f 106 126 125
f 107 125 108
f 108 125 127
f 108 127 128
f 109 129 133
f 109 133 110
f 110 130 131
f 110 131 132
f 110 132 111
f 110 133 134
f 110 134 135
f 110 135 118
f 110 118 130
f 111 136 114
f 111 114 113
f 111 132 136
f 114 136 115
f 115 136 132
f 115 132 116
f 116 132 131
f 116 131 117
f 117 131 130
f 117 130 118
f 118 135 119
f 119 135 137
f 119 137 138
f 119 138 139
f 119 139 140
f 119 140 120
f 121 141 122
f 122 141 142
f 122 142 143
f 122 143 144
f 122 144 123
f 123 144 126
f 123 126 124
f 125 126 145
f 125 145 127
f 126 144 146
f 126 146 145
f 127 145 146
f 127 146 147
f 127 147 128
f 128 147 149
f 128 149 148
f 129 150 164
f 129 164 168
f 129 168 155
f 129 155 154
f 129 154 139
f 129 139 151
f 129 151 133
f 133 151 152
f 133 152 134
f 134 152 137
f 134 137 135
f 137 152 138
f 138 152 153
f 138 153 139
f 139 154 140
f 139 153 151
f 140 154 155
f 141 156 142
f 142 157 143
f 142 156 158
f 142 158 159
f 142 159 157
f 143 157 160
f 143 160 144
f 144 160 146
f 146 160 161
f 146 161 147
f 147 161 149
f 148 149 162
f 149 163 162
f 149 161 163
f 150 165 166
f 150 166 167
f 150 167 164
f 151 153 152
f 156 169 170
f 156 170 158
f 157 161 160
f 157 159 158
f 157 158 161
f 158 171 172
f 158 172 163
f 158 163 161
f 158 170 171
f 162 163 173
f 163 172 174
f 163 174 173
f 164 167 168
f 165 175 176
f 165 176 167
f 165 167 166
f 169 177 178
f 169 178 170
f 169 179 180
f 169 180 177
f 170 178 181
f 170 181 171
f 171 181 174
f 171 174 172
f 173 174 182
f 173 182 178
f 173 178 183
f 173 183 177
f 173 177 184
f 173 184 185
f 173 185 186
f 173 186 187
f 174 181 182
f 175 188 176
f 175 189 188
f 176 188 190
f 177 183 178
f 177 180 191
f 177 191 184
f 178 182 181
f 179 192 193
f 179 193 194
f 179 194 195
f 179 195 180
f 180 195 196
f 180 196 191
f 184 191 196
f 184 196 185
f 185 196 197
f 185 197 186
f 186 197 198
f 186 198 194
f 186 194 193
f 186 193 192
f 186 192 203
f 186 203 199
f 186 199 187
f 188 189 190
f 189 200 190
f 190 200 201
f 190 201 202
f 194 204 195
f 194 198 204
f 195 197 196
f 195 204 197
f 197 204 198
f 199 203 205
f 199 205 206
f 201 207 208
f 201 208 209
f 201 209 202
f 203 210 205
f 205 210 211
f 205 211 206
f 206 211 212
f 207 213 214
f 207 214 209
f 207 209 208
f 207 215 216
f 207 216 213
f 211 217 212
f 211 218 219
f 211 219 220
f 211 220 217
f 215 221 228
f 215 228 222
f 215 222 223
f 215 223 216
f 217 220 219
f 218 224 219
f 219 224 225
f 219 225 226
f 221 227 228
f 225 229 230
f 225 230 231
f 225 231 226
f 227 232 228
f 228 232 233
f 229 234 230
f 230 234 235
f 230 235 236
f 232 236 237
f 232 237 238
f 232 238 233
f 234 237 236
f 234 236 235

