# https://github.com/mikedh/trimesh
v 0.02699465 0.00085148 0.00368444
v 0.02693137 0.00085148 0.00425223
v 0.02667600 -0.00006955 0.00407753
v 0.02668765 -0.00010451 0.00368548
v 0.02699465 0.00085148 -0.00311976
v 0.02676149 0.00085148 0.00467964
v 0.02669487 0.00043551 0.00459749
v 0.02663436 0.00005727 0.00445606
v 0.02611640 -0.00179256 0.00410976
v 0.02607199 -0.00198348 0.00386434
v 0.02608420 -0.00198348 0.00368548
v 0.02668765 -0.00010451 -0.00368548
v 0.02699410 0.00085065 -0.00368548
v 0.02699410 0.00085148 -0.00368652
v 0.02648613 0.00085148 0.00496458
v 0.02676038 0.00085065 0.00468068
v 0.02613417 -0.00128778 0.00460685
v 0.02607477 -0.00166574 0.00448726
v 0.02601647 -0.00198264 0.00428031
v 0.02601647 -0.00198348 0.00427823
v 0.02608420 -0.00198348 -0.00368548
v 0.02667600 -0.00006955 -0.00407857
v 0.02693137 0.00085065 -0.00425327
v 0.02693025 0.00085148 -0.00425327
v 0.02620301 0.00085148 0.00516320
v 0.02613528 0.00037834 0.00513201
v 0.02608642 0.00000066 0.00510289
v 0.02620745 -0.00082629 0.00469628
v 0.02620356 -0.00085071 0.00469212
v 0.02569449 -0.00198348 0.00483979
v 0.02601647 -0.00198348 -0.00428031
v 0.02611640 -0.00179256 -0.00411080
v 0.02663547 0.00005616 -0.00445606
v 0.02669598 0.00043440 -0.00459749
v 0.02676038 0.00085148 -0.00468172
v 0.02580330 0.00085148 0.00526720
v 0.02580330 0.00085065 0.00526720
v 0.02574556 -0.00028350 0.00519128
v 0.02565008 -0.00082629 0.00516736
v 0.02564563 -0.00085071 0.00516632
v 0.02556514 -0.00141765 0.00512993
v 0.02552572 -0.00172152 0.00510705
v 0.02547354 -0.00198348 0.00507377
v 0.02563175 -0.00198348 0.00490738
v 0.02569504 -0.00198348 -0.00483979
v 0.02607477 -0.00166685 -0.00448830
v 0.02613528 -0.00128889 -0.00460685
v 0.02620412 -0.00085071 -0.00469316
v 0.02608642 0.00000066 -0.00510289
v 0.02648613 0.00085065 -0.00496458
v 0.02648558 0.00085148 -0.00496458
v 0.02523649 0.00085148 0.00531191
v 0.02523593 -0.00085071 0.00527032
v 0.02523593 -0.00141765 0.00523080
v 0.02523649 0.00085065 0.00531191
v 0.02523649 0.00028344 0.00530775
v 0.02523649 -0.00028350 0.00529527
v 0.02523649 -0.00082629 0.00527135
v 0.02525203 -0.00194019 0.00517776
v 0.02524037 -0.00198348 0.00517672
v 0.02563175 -0.00198348 -0.00490634
v 0.02552572 -0.00172124 -0.00510705
v 0.02613528 0.00037834 -0.00513201
v 0.02620301 0.00085065 -0.00516320
v 0.02620190 0.00085148 -0.00516320
v 0.02296925 0.00085148 0.00531191
v 0.02466857 -0.00198348 0.00529735
v 0.02521095 -0.00198348 0.00518400
v 0.02466857 -0.00085071 0.00531191
v 0.02466857 -0.00141765 0.00530775
v 0.02530644 -0.00198348 -0.00514553
v 0.02524037 -0.00198348 -0.00517776
v 0.02556458 -0.00141765 -0.00512993
v 0.02564563 -0.00085071 -0.00516632
v 0.02574667 -0.00028350 -0.00519128
v 0.02580330 0.00085065 -0.00526720
v 0.02580219 0.00085148 -0.00526720
v 0.02296869 -0.00082629 0.00531191
v 0.02240133 0.00085148 0.00529631
v 0.02410287 -0.00198348 0.00531191
v 0.02468744 -0.00198348 -0.00529423
v 0.02523593 -0.00141765 -0.00523080
v 0.02523593 -0.00085071 -0.00527032
v 0.02523649 -0.00082629 -0.00527136
v 0.02523649 -0.00028350 -0.00529527
v 0.02523649 0.00028344 -0.00530775
v 0.02523649 0.00085065 -0.00531191
v 0.02523538 0.00085148 -0.00531191
v 0.02296869 -0.00198348 0.00531191
v 0.02240133 0.00085065 0.00529631
v 0.02198052 0.00085148 0.00519232
v 0.02466746 -0.00198348 -0.00529839
v 0.02466857 -0.00141765 -0.00530879
v 0.02466857 -0.00085071 -0.00531191
v 0.02296814 0.00085148 -0.00531191
v 0.02243575 -0.00198348 0.00520792
v 0.02198052 0.00085065 0.00519232
v 0.02169684 0.00085148 0.00496146
v 0.02410120 -0.00198348 -0.00531191
v 0.02240133 0.00085148 -0.00529631
v 0.02296869 -0.00141765 -0.00531191
v 0.02215206 -0.00198348 0.00508209
v 0.02144258 0.00085148 0.00467860
v 0.02144258 0.00085065 0.00467860
v 0.02353439 -0.00198348 -0.00531191
v 0.02197941 0.00085148 -0.00519232
v 0.02296758 -0.00198348 -0.00531087
v 0.02243519 -0.00198348 -0.00520688
v 0.02190946 -0.00198348 0.00479923
v 0.02132933 0.00085148 0.00425327
v 0.02132933 0.00085065 0.00425327
v 0.02169240 -0.00198348 0.00425327
v 0.02169684 0.00085148 -0.00496146
v 0.02215206 -0.00198348 -0.00508209
v 0.02132378 0.00085148 0.00368548
v 0.02132378 0.00085065 0.00368548
v 0.02168407 -0.00198348 0.00368548
v 0.02144258 0.00085065 -0.00467860
v 0.02144258 0.00085148 -0.00467860
v 0.02190946 -0.00198348 -0.00479923
v 0.02132322 0.00085148 0.00311872
v 0.02168407 -0.00198348 -0.00368548
v 0.02169240 -0.00198348 -0.00425327
v 0.02132933 0.00085065 -0.00425327
v 0.02132933 0.00085148 -0.00425327
v 0.02132322 0.00085148 -0.00311872
v 0.02132378 0.00085065 -0.00368548
v 0.02132378 0.00085148 -0.00368548
f 1 2 3
f 1 3 4
f 1 4 12
f 1 12 5
f 1 5 14
f 1 14 24
f 1 24 35
f 1 35 51
f 1 51 65
f 1 65 77
f 1 77 88
f 1 88 95
f 1 95 100
f 1 100 106
f 1 106 113
f 1 113 119
f 1 119 125
f 1 125 128
f 1 128 126
f 1 126 121
f 1 121 115
f 1 115 110
f 1 110 103
f 1 103 98
f 1 98 91
f 1 91 79
f 1 79 66
f 1 66 52
f 1 52 36
f 1 36 25
f 1 25 15
f 1 15 6
f 1 6 2
f 2 6 7
f 2 7 8
f 2 8 3
f 3 9 10
f 3 10 11
f 3 11 4
f 3 8 9
f 4 11 21
f 4 21 12
f 5 12 13
f 5 13 14
f 6 15 16
f 6 16 7
f 7 17 18
f 7 18 8
f 7 16 17
f 8 18 9
f 9 18 19
f 9 19 20
f 9 20 10
f 10 20 30
f 10 30 44
f 10 44 43
f 10 43 60
f 10 60 68
f 10 68 67
f 10 67 80
f 10 80 89
f 10 89 96
f 10 96 102
f 10 102 109
f 10 109 112
f 10 112 117
f 10 117 122
f 10 122 123
f 10 123 120
f 10 120 114
f 10 114 108
f 10 108 107
f 10 107 105
f 10 105 99
f 10 99 92
f 10 92 81
f 10 81 72
f 10 72 71
f 10 71 61
f 10 61 45
f 10 45 31
f 10 31 21
f 10 21 11
f 12 21 22
f 12 22 13
f 13 22 23
f 13 23 14
f 14 23 24
f 15 25 26
f 15 26 27
f 15 27 16
f 16 28 29
f 16 29 17
f 16 27 28
f 17 29 30
f 17 30 18
f 18 30 19
f 19 30 20
f 21 31 32
f 21 32 22
f 22 32 33
f 22 33 23
f 23 33 34
f 23 34 35
f 23 35 24
f 25 36 37
f 25 37 38
f 25 38 39
f 25 39 40
f 25 40 41
f 25 41 26
f 26 41 42
f 26 42 27
f 27 42 43
f 27 43 29
f 27 29 28
f 29 44 30
f 29 43 44
f 31 45 46
f 31 46 32
f 32 46 33
f 33 46 34
f 34 46 47
f 34 47 35
f 35 47 48
f 35 48 49
f 35 49 50
f 35 50 51
f 36 52 55
f 36 55 37
f 37 53 54
f 37 54 38
f 37 55 56
f 37 56 57
f 37 57 58
f 37 58 53
f 38 59 39
f 38 54 59
f 39 59 40
f 40 59 41
f 41 59 60
f 41 60 42
f 42 60 43
f 45 61 48
f 45 48 47
f 45 47 46
f 48 61 62
f 48 62 49
f 49 62 63
f 49 63 50
f 50 63 64
f 50 64 51
f 51 64 65
f 52 66 78
f 52 78 89
f 52 89 80
f 52 80 69
f 52 69 55
f 53 58 67
f 53 67 54
f 54 67 68
f 54 68 60
f 54 60 59
f 55 69 56
f 56 69 70
f 56 70 67
f 56 67 57
f 57 67 58
f 61 71 62
f 62 71 72
f 62 72 73
f 62 73 63
f 63 73 64
f 64 73 74
f 64 74 75
f 64 75 76
f 64 76 77
f 64 77 65
f 66 79 78
f 67 70 80
f 69 80 70
f 72 75 74
f 72 74 73
f 72 81 82
f 72 82 75
f 75 82 76
f 76 82 83
f 76 83 84
f 76 84 85
f 76 85 86
f 76 86 87
f 76 87 88
f 76 88 77
f 78 79 90
f 78 90 89
f 79 91 97
f 79 97 90
f 81 92 82
f 82 92 83
f 83 92 84
f 84 92 85
f 85 92 86
f 86 93 87
f 86 92 93
f 87 93 94
f 87 94 99
f 87 99 105
f 87 105 101
f 87 101 95
f 87 95 88
f 89 90 96
f 90 97 96
f 91 98 97
f 92 99 93
f 93 99 94
f 95 101 100
f 96 97 102
f 97 98 102
f 98 103 104
f 98 104 102
f 100 101 107
f 100 107 108
f 100 108 106
f 101 105 107
f 102 104 109
f 103 110 111
f 103 111 104
f 104 111 112
f 104 112 109
f 106 108 114
f 106 114 113
f 110 115 116
f 110 116 111
f 111 116 117
f 111 117 112
f 113 118 119
f 113 114 118
f 114 120 118
f 115 121 116
f 116 121 117
f 117 121 126
f 117 126 122
f 118 123 124
f 118 124 125
f 118 125 119
f 118 120 123
f 122 126 127
f 122 127 124
f 122 124 123
f 124 127 128
f 124 128 125
f 126 128 127

