# https://github.com/mikedh/trimesh
v -0.00812871 0.00302668 -0.00531191
v -0.00765560 0.00198503 -0.00531191
v -0.00765560 0.00156588 -0.00531087
v -0.00822219 0.00302668 -0.00531087
v 0.00765569 0.00302668 -0.00531191
v -0.00723590 0.00156588 -0.00531191
v -0.00783493 0.00156588 -0.00528591
v -0.00869721 0.00302668 -0.00528175
v -0.00822219 0.00255190 -0.00530671
v 0.00822228 0.00302668 -0.00531087
v 0.00765569 0.00156588 -0.00531191
v -0.00819358 0.00156588 -0.00521208
v -0.00878878 0.00302668 -0.00526408
v 0.00822228 0.00255190 -0.00531087
v 0.00879078 0.00302668 -0.00527448
v 0.00822228 0.00198503 -0.00527136
v 0.00823372 0.00156588 -0.00521312
v -0.00833856 0.00156588 -0.00515280
v -0.00916269 0.00302668 -0.00517776
v 0.00926580 0.00302668 -0.00516424
v 0.00840351 0.00156588 -0.00515280
v -0.00847401 0.00156588 -0.00507585
v -0.00920276 0.00302668 -0.00516112
v 0.00947946 0.00302668 -0.00501969
v 0.00950808 0.00300108 -0.00499058
v 0.00852560 0.00165483 -0.00511953
v 0.00864579 0.00156588 -0.00495314
v -0.00855986 0.00156588 -0.00499370
v -0.00976171 0.00302668 -0.00472540
v -0.00948891 0.00302668 -0.00496770
v -0.00940879 0.00302668 -0.00503633
v 0.00952906 0.00302668 -0.00498538
v 0.00952906 0.00301095 -0.00497914
v 0.00878124 0.00156588 -0.00481795
v -0.00873918 0.00156588 -0.00479611
v -0.00982276 0.00302668 -0.00466196
v 0.00952906 0.00302668 0.00499058
v 0.00952906 0.00265558 -0.00472020
v 0.00888998 0.00156588 -0.00469420
v -0.00886127 0.00156588 -0.00452677
v -0.00968541 0.00277685 -0.00459021
v -0.00994486 0.00302668 -0.00430631
v 0.00952906 0.00277327 0.00481483
v 0.00951761 0.00302668 0.00499890
v 0.00850462 0.00156588 0.00510289
v 0.00878124 0.00156588 0.00481795
v 0.00882511 0.00156588 0.00477115
v 0.00907884 0.00168744 -0.00454653
v 0.00952906 0.00241076 -0.00425327
v 0.00903305 0.00156588 -0.00425327
v -0.00897001 0.00156588 -0.00425327
v -0.00995439 0.00302668 -0.00425327
v 0.00952906 0.00265558 0.00472020
v 0.00888998 0.00156588 0.00469420
v 0.00907884 0.00168744 0.00454653
v 0.00926580 0.00302668 0.00516424
v 0.00852560 0.00165483 0.00511953
v 0.00840351 0.00156588 0.00515280
v 0.00952906 0.00241047 -0.00424287
v 0.00952906 0.00240103 -0.00368548
v 0.00903687 0.00156588 -0.00368548
v -0.00897574 0.00156588 -0.00368548
v -0.00995821 0.00302668 -0.00376243
v 0.00952906 0.00241261 0.00425743
v 0.00902733 0.00156588 0.00442486
v 0.00952906 0.00241076 0.00425327
v 0.00921429 0.00302668 0.00518296
v 0.00831957 0.00156588 0.00519024
v 0.00952906 0.00240089 -0.00311872
v 0.00903687 0.00156588 0.00368548
v -0.00897574 0.00156588 0.00368548
v -0.00996012 0.00302668 -0.00319464
v 0.00903305 0.00156588 0.00425327
v 0.00952906 0.00240132 0.00370420
v 0.00879078 0.00302668 0.00527447
v 0.00822228 0.00198503 0.00527135
v 0.00823372 0.00156588 0.00521312
v 0.00952906 0.00240089 0.00313744
v 0.00903496 0.00156588 0.00403385
v 0.00952906 0.00240103 0.00368548
v -0.00897001 0.00156588 0.00425327
v -0.00995439 0.00302668 0.00425327
v -0.00995821 0.00302668 0.00368548
v -0.00996012 0.00302668 0.00311872
v 0.00869730 0.00302668 0.00529111
v 0.00780258 0.00156588 0.00530047
v -0.00873918 0.00156588 0.00479611
v -0.00968541 0.00277685 0.00459021
v -0.00982276 0.00302668 0.00466196
v 0.00822228 0.00255190 0.00531087
v 0.00822228 0.00302668 0.00531087
v 0.00765569 0.00156588 0.00531191
v -0.00847401 0.00156588 0.00507585
v -0.00948891 0.00302668 0.00496770
v 0.00813071 0.00302668 0.00531191
v -0.00708710 0.00156588 0.00531191
v -0.00819358 0.00156588 0.00521208
v -0.00850453 0.00170288 0.00510289
v -0.00920276 0.00302668 0.00516112
v -0.00765560 0.00302668 0.00531191
v -0.00765560 0.00198503 0.00531191
v -0.00765560 0.00156588 0.00531087
v -0.00878878 0.00302668 0.00526408
v -0.00822219 0.00302668 0.00531087
v -0.00822219 0.00255190 0.00530671
f 1 2 3
f 1 3 4
f 1 4 8
f 1 8 13
f 1 13 19
f 1 19 23
f 1 23 31
f 1 31 30
f 1 30 29
f 1 29 36
f 1 36 42
f 1 42 52
f 1 52 63
f 1 63 72
f 1 72 84
f 1 84 83
f 1 83 82
f 1 82 89
f 1 89 94
f 1 94 99
f 1 99 103
f 1 103 104
f 1 104 100
f 1 100 95
f 1 95 91
f 1 91 85
f 1 85 75
f 1 75 67
f 1 67 56
f 1 56 44
f 1 44 37
f 1 37 32
f 1 32 24
f 1 24 20
f 1 20 15
f 1 15 10
f 1 10 5
f 1 5 11
f 1 11 6
f 1 6 2
f 2 6 3
f 3 6 11
f 3 11 17
f 3 17 21
f 3 21 27
f 3 27 34
f 3 34 39
f 3 39 50
f 3 50 61
f 3 61 70
f 3 70 79
f 3 79 73
f 3 73 65
f 3 65 54
f 3 54 47
f 3 47 46
f 3 46 45
f 3 45 58
f 3 58 68
f 3 68 77
f 3 77 86
f 3 86 92
f 3 92 96
f 3 96 102
f 3 102 97
f 3 97 93
f 3 93 87
f 3 87 81
f 3 81 71
f 3 71 62
f 3 62 51
f 3 51 40
f 3 40 35
f 3 35 28
f 3 28 22
f 3 22 18
f 3 18 12
f 3 12 7
f 3 7 8
f 3 8 9
f 3 9 4
f 4 9 8
f 5 10 14
f 5 14 11
f 7 12 13
f 7 13 8
f 10 15 14
f 11 14 15
f 11 15 16
f 11 16 17
f 12 18 19
f 12 19 13
f 15 20 16
f 16 20 17
f 17 20 21
f 18 22 23
f 18 23 19
f 20 24 25
f 20 25 26
f 20 26 21
f 21 26 27
f 22 28 29
f 22 29 30
f 22 30 31
f 22 31 23
f 24 32 25
f 25 32 33
f 25 33 26
f 26 33 27
f 27 33 34
f 28 35 36
f 28 36 29
f 32 37 43
f 32 43 53
f 32 53 64
f 32 64 66
f 32 66 74
f 32 74 80
f 32 80 78
f 32 78 69
f 32 69 60
f 32 60 59
f 32 59 49
f 32 49 38
f 32 38 33
f 33 38 39
f 33 39 34
f 35 40 41
f 35 41 36
f 36 41 42
f 37 44 45
f 37 45 46
f 37 46 47
f 37 47 43
f 38 48 39
f 38 49 48
f 39 48 50
f 40 51 41
f 41 51 42
f 42 51 52
f 43 47 54
f 43 54 55
f 43 55 53
f 44 56 45
f 45 57 58
f 45 56 57
f 48 49 50
f 49 59 50
f 50 59 60
f 50 60 61
f 51 62 52
f 52 62 63
f 53 55 64
f 54 65 55
f 55 65 66
f 55 66 64
f 56 67 68
f 56 68 58
f 56 58 57
f 60 69 61
f 61 69 78
f 61 78 70
f 62 71 84
f 62 84 72
f 62 72 63
f 65 73 66
f 66 73 74
f 67 75 76
f 67 76 77
f 67 77 68
f 70 78 80
f 70 80 79
f 71 81 82
f 71 82 83
f 71 83 84
f 73 79 80
f 73 80 74
f 75 85 76
f 76 86 77
f 76 85 86
f 81 87 88
f 81 88 82
f 82 88 89
f 85 90 86
f 85 91 90
f 86 90 92
f 87 93 89
f 87 89 88
f 89 93 94
f 90 91 95
f 90 95 92
f 92 95 100
f 92 100 101
f 92 101 96
f 93 97 98
f 93 98 99
f 93 99 94
f 96 101 102
f 97 103 99
f 97 99 98
f 97 102 103
f 100 104 101
f 101 104 102
f 102 104 105
f 102 105 103
f 103 105 104

