# https://github.com/mikedh/trimesh
v -0.01892882 0.01085034 0.00531191
v -0.01977377 0.01085034 0.00531191
v -0.01892882 0.00595490 0.00531191
v -0.01892882 0.01085034 -0.00531191
v -0.02034150 0.01085034 0.00530983
v -0.02070037 0.01049090 0.00531087
v -0.02126810 0.00992413 0.00531191
v -0.02240166 0.00160269 0.00531191
v -0.01892882 0.00545784 0.00531087
v -0.01892882 0.00595490 -0.00531191
v -0.01956681 0.01085034 -0.00531191
v -0.02240166 0.00935644 0.00530983
v -0.02296939 0.00878967 0.00531191
v -0.02090828 0.01085034 0.00528903
v -0.02126810 0.01049090 0.00529735
v -0.02183488 0.00992413 0.00530567
v -0.02523556 0.00160269 0.00531191
v -0.02221748 0.00160269 0.00530151
v -0.01892882 0.00538812 0.00530671
v -0.01892882 0.00538812 -0.00530671
v -0.01900003 0.00538812 -0.00531087
v -0.02240166 0.00160269 -0.00531191
v -0.02126810 0.00992413 -0.00531191
v -0.02070037 0.01049090 -0.00531087
v -0.02013359 0.01085034 -0.00530983
v -0.02693685 0.00595490 0.00531087
v -0.02636912 0.00652167 0.00530775
v -0.02523556 0.00708754 0.00531191
v -0.02240166 0.00992413 0.00526928
v -0.02466783 0.00822199 0.00527551
v -0.02296939 0.00935644 0.00528799
v -0.02523556 0.00765522 0.00529215
v -0.02149595 0.01085034 0.00521416
v -0.02183488 0.01049090 0.00524016
v -0.02353617 0.00878967 0.00530047
v -0.02580234 0.00708754 0.00530255
v -0.02580234 0.00255244 0.00531191
v -0.02580234 0.00198567 0.00530879
v -0.02580234 0.00160269 0.00530047
v -0.02181779 0.00160269 0.00522976
v -0.01892882 0.00487567 0.00521936
v -0.02183488 0.00198567 -0.00528175
v -0.01892882 0.00482769 -0.00520688
v -0.02181779 0.00160269 -0.00522976
v -0.02523556 0.00160269 -0.00531191
v -0.02296939 0.00878967 -0.00531191
v -0.02240166 0.00935644 -0.00530983
v -0.02183488 0.00992413 -0.00530567
v -0.02126810 0.01049090 -0.00529735
v -0.02070037 0.01085034 -0.00529423
v -0.02693685 0.00652167 0.00528071
v -0.02750363 0.00595490 0.00525888
v -0.02693685 0.00538812 0.00530775
v -0.02636912 0.00368690 0.00530879
v -0.02636912 0.00425457 0.00531191
v -0.02636912 0.00595490 0.00531191
v -0.02580234 0.00652167 0.00531191
v -0.02636912 0.00708754 0.00525680
v -0.02186241 0.01085034 0.00514240
v -0.02234564 0.01046193 0.00515488
v -0.02295325 0.00992322 0.00518296
v -0.02522986 0.00823014 0.00518816
v -0.02636912 0.00312012 0.00529631
v -0.02637007 0.00255244 0.00527135
v -0.02637007 0.00198567 0.00522976
v -0.02637956 0.00160269 0.00518920
v -0.02168487 0.00160269 0.00519648
v -0.01892882 0.00482769 0.00520688
v -0.01892882 0.00473081 -0.00515280
v -0.02152538 0.00160269 -0.00513721
v -0.02580234 0.00255244 -0.00531191
v -0.02541974 0.00160269 -0.00531087
v -0.02523556 0.00708754 -0.00531191
v -0.02693685 0.00595490 -0.00531087
v -0.02636912 0.00652167 -0.00530775
v -0.02580234 0.00708754 -0.00530151
v -0.02353617 0.00878967 -0.00529943
v -0.02523556 0.00765522 -0.00529111
v -0.02296939 0.00935644 -0.00528799
v -0.02240166 0.00992413 -0.00526824
v -0.02183488 0.01049090 -0.00524016
v -0.02127569 0.01085034 -0.00523600
v -0.02750838 0.00653072 0.00518816
v -0.02785775 0.00634874 0.00514344
v -0.02787673 0.00595490 0.00515592
v -0.02755774 0.00533833 0.00520168
v -0.02693685 0.00425457 0.00526928
v -0.02693685 0.00482135 0.00529527
v -0.02690077 0.00707396 0.00517048
v -0.02190038 0.01085034 0.00513305
v -0.02275293 0.01025369 0.00512785
v -0.02636912 0.00751036 0.00515696
v -0.02744097 0.00482135 0.00519128
v -0.02687894 0.00312012 0.00519232
v -0.02685995 0.00300604 0.00518712
v -0.02677925 0.00255244 0.00516736
v -0.02654191 0.00160269 0.00513409
v -0.02152538 0.00160269 0.00513721
v -0.02151399 0.00160269 0.00513201
v -0.01892882 0.00456241 0.00508105
v -0.02151209 0.00161174 -0.00513305
v -0.01892882 0.00437861 -0.00491362
v -0.02149975 0.00160269 -0.00511641
v -0.02636912 0.00425457 -0.00531191
v -0.02580234 0.00198567 -0.00530879
v -0.02636912 0.00368690 -0.00530879
v -0.02580234 0.00160269 -0.00530047
v -0.02580234 0.00652167 -0.00531191
v -0.02693685 0.00538812 -0.00530775
v -0.02750363 0.00595490 -0.00525888
v -0.02693685 0.00652167 -0.00528071
v -0.02636912 0.00595490 -0.00531191
v -0.02636912 0.00708754 -0.00525576
v -0.02410105 0.00878967 -0.00524848
v -0.02522891 0.00822924 -0.00518712
v -0.02295135 0.00992322 -0.00518192
v -0.02234659 0.01046102 -0.00515488
v -0.02183488 0.01085034 -0.00514761
v -0.02732230 0.00687568 0.00513721
v -0.02770110 0.00672719 0.00506545
v -0.02809414 0.00655698 0.00484395
v -0.02841408 0.00638858 0.00462348
v -0.02816060 0.00595490 0.00493026
v -0.02783686 0.00549315 0.00513305
v -0.02206368 0.01085034 0.00507377
v -0.02211969 0.01077519 0.00510393
v -0.02668811 0.00739628 0.00511641
v -0.02734223 0.00425457 0.00516528
v -0.02727198 0.00378377 0.00513409
v -0.02669476 0.00198567 0.00512785
v -0.02665488 0.00169594 0.00510497
v -0.02672609 0.00160269 0.00499682
v -0.02123962 0.00160269 0.00485955
v -0.02115797 0.00160269 0.00477531
v -0.01892882 0.00437861 0.00491362
v -0.01892882 0.00427540 -0.00481483
v -0.02102790 0.00160269 -0.00462660
v -0.02123962 0.00160269 -0.00485955
v -0.02693685 0.00482135 -0.00529527
v -0.02598747 0.00160269 -0.00527448
v -0.02637007 0.00255244 -0.00527032
v -0.02637007 0.00300604 -0.00529111
v -0.02636912 0.00312012 -0.00529527
v -0.02787863 0.00595490 -0.00515592
v -0.02785870 0.00634965 -0.00514345
v -0.02750838 0.00653163 -0.00518816
v -0.02693685 0.00425457 -0.00526928
v -0.02755774 0.00533742 -0.00520168
v -0.02689982 0.00707396 -0.00517048
v -0.02338806 0.00973309 -0.00514449
v -0.02212064 0.01077610 -0.00510497
v -0.02190228 0.01085034 -0.00513305
v -0.02604918 0.00790963 0.00508937
v -0.02706596 0.00725413 0.00502073
v -0.02752452 0.00710112 0.00485435
v -0.02795364 0.00694901 0.00468692
v -0.02833149 0.00676703 0.00446750
v -0.02842927 0.00595490 0.00464636
v -0.02846630 0.00655517 0.00426783
v -0.02856504 0.00595490 0.00425327
v -0.02839415 0.00554475 0.00459541
v -0.02778275 0.00511560 0.00510185
v -0.02239026 0.01085034 0.00486267
v -0.02249754 0.01063214 0.00499370
v -0.02313078 0.01011245 0.00504257
v -0.02541499 0.00842299 0.00505401
v -0.02721976 0.00340532 0.00510289
v -0.02714286 0.00300604 0.00504673
v -0.02733369 0.00255244 0.00468900
v -0.02687609 0.00160269 0.00483563
v -0.01892882 0.00430799 0.00484811
v -0.02102790 0.00160269 0.00462660
v -0.02095765 0.00164705 -0.00457253
v -0.01892882 0.00400288 -0.00425327
v -0.02094910 0.00160269 -0.00425327
v -0.02637956 0.00160269 -0.00518920
v -0.02637007 0.00198567 -0.00522976
v -0.02816155 0.00595490 -0.00493234
v -0.02783686 0.00549224 -0.00513305
v -0.02770110 0.00672810 -0.00506545
v -0.02732230 0.00687568 -0.00513721
v -0.02841408 0.00639129 -0.00462557
v -0.02809604 0.00655970 -0.00484499
v -0.02693685 0.00368690 -0.00522768
v -0.02744192 0.00482135 -0.00519128
v -0.02668621 0.00739537 -0.00511641
v -0.02605297 0.00791235 -0.00509145
v -0.02312888 0.01011245 -0.00504257
v -0.02249944 0.01062942 -0.00499370
v -0.02239121 0.01085034 -0.00486267
v -0.02218805 0.01085034 -0.00499370
v -0.02734793 0.00746418 0.00464324
v -0.02772578 0.00732656 0.00436350
v -0.02806186 0.00708211 0.00422624
v -0.02838181 0.00683946 0.00408897
v -0.02854605 0.00652167 0.00368548
v -0.02862770 0.00595490 0.00368548
v -0.02850902 0.00538812 0.00368548
v -0.02843972 0.00536820 0.00425743
v -0.02833339 0.00516630 0.00444878
v -0.02776946 0.00345693 0.00446022
v -0.02720457 0.00174755 0.00447166
v -0.02726533 0.00212600 0.00460269
v -0.02789667 0.00425457 0.00468484
v -0.02772483 0.00482135 0.00506129
v -0.02274533 0.01085034 0.00462556
v -0.02277571 0.01084038 0.00461517
v -0.02341275 0.01032340 0.00466508
v -0.02717609 0.00160269 0.00438014
v -0.01892882 0.00427540 0.00481483
v -0.02097474 0.00160269 0.00452677
v -0.02095765 0.00164705 0.00457253
v -0.01892882 0.00399744 -0.00368548
v -0.02094531 0.00160269 -0.00370628
v -0.02646311 0.00160269 -0.00516320
v -0.02677925 0.00255244 -0.00516632
v -0.02839510 0.00554294 -0.00459749
v -0.02843022 0.00595490 -0.00464844
v -0.02778275 0.00511379 -0.00510185
v -0.02734223 0.00425457 -0.00516528
v -0.02669571 0.00198567 -0.00512889
v -0.02721976 0.00340351 -0.00510393
v -0.02795554 0.00694901 -0.00468692
v -0.02752452 0.00710112 -0.00485435
v -0.02706502 0.00725323 -0.00502073
v -0.02856599 0.00595490 -0.00425327
v -0.02846630 0.00655698 -0.00427095
v -0.02833339 0.00676975 -0.00447166
v -0.02636912 0.00779555 -0.00499266
v -0.02341275 0.01032340 -0.00466508
v -0.02277666 0.01084038 -0.00461621
v -0.02274723 0.01085034 -0.00462557
v -0.02671185 0.00798116 0.00458917
v -0.02779224 0.00737545 0.00398497
v -0.02607671 0.00849814 0.00451117
v -0.02839605 0.00685666 0.00368548
v -0.02854605 0.00652167 0.00311872
v -0.02862770 0.00595490 -0.00368548
v -0.02850902 0.00538812 -0.00368548
v -0.02838560 0.00500967 0.00368548
v -0.02837516 0.00504136 0.00407129
v -0.02724635 0.00162351 0.00409417
v -0.02276717 0.01085034 0.00460477
v -0.02378870 0.01018578 0.00445918
v -0.02442479 0.00966971 0.00457357
v -0.02723495 0.00160269 0.00411288
v -0.01892882 0.00402370 0.00434479
v -0.02094910 0.00160269 0.00425327
v -0.01892882 0.00400288 0.00425327
v -0.01892882 0.00399744 0.00368548
v -0.02094531 0.00160269 0.00368548
v -0.02654286 0.00160269 -0.00513409
v -0.02789857 0.00425457 -0.00468588
v -0.02726723 0.00212510 -0.00460373
v -0.02720457 0.00174665 -0.00447166
v -0.02833339 0.00516540 -0.00444878
v -0.02844067 0.00536820 -0.00425743
v -0.02772578 0.00482135 -0.00506233
v -0.02665583 0.00169504 -0.00510497
v -0.02714097 0.00300604 -0.00504985
v -0.02772578 0.00732656 -0.00436351
v -0.02734793 0.00746418 -0.00464324
v -0.02854510 0.00652167 -0.00368548
v -0.02838181 0.00683946 -0.00409313
v -0.02806281 0.00708211 -0.00422832
v -0.02671185 0.00798206 -0.00459021
v -0.02442479 0.00966971 -0.00457461
v -0.02378965 0.01018578 -0.00445918
v -0.02278995 0.01085034 -0.00456421
v -0.02614127 0.00854703 0.00413368
v -0.02385516 0.01023377 0.00408065
v -0.02305198 0.01085034 0.00368548
v -0.02779414 0.00737726 0.00368548
v -0.02807801 0.00714005 0.00368548
v -0.02357604 0.01039221 0.00426367
v -0.02839605 0.00685666 -0.00368548
v -0.02837516 0.00504136 -0.00406921
v -0.02838560 0.00500967 -0.00368548
v -0.02829256 0.00472628 0.00368548
v -0.02739160 0.00198567 0.00368548
v -0.02726533 0.00160269 0.00368548
v -0.02725299 0.00160269 0.00387578
v -0.02295230 0.01085034 0.00425327
v -0.01892882 0.00399835 0.00385706
v -0.02663684 0.00160269 -0.00509249
v -0.02733559 0.00255244 -0.00469004
v -0.02687704 0.00160269 -0.00483563
v -0.02700615 0.00160269 -0.00466820
v -0.02717609 0.00160269 -0.00438118
v -0.02724635 0.00162351 -0.00409417
v -0.02779224 0.00737545 -0.00398497
v -0.02607671 0.00849814 -0.00451117
v -0.02614127 0.00854703 -0.00413368
v -0.02385516 0.01023377 -0.00408169
v -0.02295230 0.01085034 -0.00425327
v -0.02305198 0.01085034 -0.00368548
v -0.02779414 0.00737726 -0.00368548
v -0.02807801 0.00714005 -0.00368548
v -0.02726533 0.00160269 -0.00368548
v -0.02739160 0.00198567 -0.00368548
v -0.02829256 0.00472628 -0.00368548
v -0.02672514 0.00160269 -0.00499890
v -0.02723495 0.00160269 -0.00411288
v -0.02724065 0.00160269 -0.00406713
v -0.02301306 0.01085034 -0.00390906
f 1 2 7
f 1 7 13
f 1 13 28
f 1 28 57
f 1 57 56
f 1 56 55
f 1 55 37
f 1 37 17
f 1 17 8
f 1 8 3
f 1 3 9
f 1 9 19
f 1 19 41
f 1 41 68
f 1 68 100
f 1 100 135
f 1 135 171
f 1 171 210
f 1 210 247
f 1 247 249
f 1 249 284
f 1 284 250
f 1 250 213
f 1 213 174
f 1 174 136
f 1 136 102
f 1 102 69
f 1 69 43
f 1 43 20
f 1 20 10
f 1 10 4
f 1 4 11
f 1 11 25
f 1 25 50
f 1 50 82
f 1 82 118
f 1 118 152
f 1 152 191
f 1 191 190
f 1 190 232
f 1 232 269
f 1 269 295
f 1 295 305
f 1 305 296
f 1 296 272
f 1 272 283
f 1 283 243
f 1 243 206
f 1 206 163
f 1 163 125
f 1 125 90
f 1 90 59
f 1 59 33
f 1 33 14
f 1 14 5
f 1 5 2
f 2 5 6
f 2 6 7
f 3 8 9
f 4 10 22
f 4 22 45
f 4 45 71
f 4 71 104
f 4 104 112
f 4 112 108
f 4 108 73
f 4 73 46
f 4 46 23
f 4 23 11
f 5 12 13
f 5 13 6
f 5 14 15
f 5 15 16
f 5 16 12
f 6 13 7
f 8 17 39
f 8 39 66
f 8 66 97
f 8 97 132
f 8 132 170
f 8 170 209
f 8 209 246
f 8 246 282
f 8 282 281
f 8 281 299
f 8 299 304
f 8 304 303
f 8 303 289
f 8 289 288
f 8 288 287
f 8 287 302
f 8 302 285
f 8 285 252
f 8 252 215
f 8 215 176
f 8 176 140
f 8 140 107
f 8 107 72
f 8 72 45
f 8 45 22
f 8 22 44
f 8 44 70
f 8 70 103
f 8 103 138
f 8 138 137
f 8 137 175
f 8 175 214
f 8 214 251
f 8 251 248
f 8 248 211
f 8 211 172
f 8 172 134
f 8 134 133
f 8 133 99
f 8 99 98
f 8 98 67
f 8 67 40
f 8 40 18
f 8 18 9
f 9 18 19
f 10 20 21
f 10 21 22
f 11 23 24
f 11 24 25
f 12 26 13
f 12 16 27
f 12 27 26
f 13 26 28
f 14 29 30
f 14 30 31
f 14 31 32
f 14 32 15
f 14 33 34
f 14 34 29
f 15 32 35
f 15 35 16
f 16 35 36
f 16 36 27
f 17 37 38
f 17 38 39
f 18 40 19
f 19 40 41
f 20 42 22
f 20 22 21
f 20 43 44
f 20 44 42
f 22 42 44
f 23 46 24
f 24 47 48
f 24 48 49
f 24 49 25
f 24 46 47
f 25 49 50
f 26 27 51
f 26 51 52
f 26 52 53
f 26 53 54
f 26 54 55
f 26 55 56
f 26 56 57
f 26 57 28
f 27 36 51
f 29 34 58
f 29 58 30
f 30 58 51
f 30 51 31
f 31 51 32
f 32 51 36
f 32 36 35
f 33 59 60
f 33 60 61
f 33 61 34
f 34 61 62
f 34 62 58
f 37 55 54
f 37 54 38
f 38 54 39
f 39 54 63
f 39 63 64
f 39 64 65
f 39 65 66
f 40 67 41
f 41 67 68
f 43 69 70
f 43 70 44
f 45 72 71
f 46 73 74
f 46 74 47
f 47 74 75
f 47 75 48
f 48 75 76
f 48 76 77
f 48 77 49
f 49 77 78
f 49 78 79
f 49 79 80
f 49 80 81
f 49 81 50
f 50 81 82
f 51 58 83
f 51 83 52
f 52 83 84
f 52 84 85
f 52 85 86
f 52 86 87
f 52 87 88
f 52 88 53
f 53 88 63
f 53 63 54
f 58 62 89
f 58 89 83
f 59 90 91
f 59 91 60
f 60 91 92
f 60 92 61
f 61 89 62
f 61 92 89
f 63 88 64
f 64 88 87
f 64 87 65
f 65 93 94
f 65 94 95
f 65 95 96
f 65 96 66
f 65 87 93
f 66 96 97
f 67 98 68
f 68 98 99
f 68 99 100
f 69 101 70
f 69 102 101
f 70 101 103
f 71 72 105
f 71 105 106
f 71 106 104
f 72 107 105
f 73 108 74
f 74 106 109
f 74 109 110
f 74 110 111
f 74 111 75
f 74 108 112
f 74 112 104
f 74 104 106
f 75 111 76
f 76 111 78
f 76 78 77
f 78 111 79
f 79 111 80
f 80 111 113
f 80 113 114
f 80 114 81
f 81 114 115
f 81 115 116
f 81 116 117
f 81 117 118
f 81 118 82
f 83 89 119
f 83 119 84
f 84 119 120
f 84 120 121
f 84 121 122
f 84 122 123
f 84 123 85
f 85 124 86
f 85 123 124
f 86 93 87
f 86 124 93
f 89 92 119
f 90 125 126
f 90 126 91
f 91 126 127
f 91 127 119
f 91 119 92
f 93 124 128
f 93 128 96
f 93 96 95
f 93 95 94
f 96 128 124
f 96 124 129
f 96 129 130
f 96 130 97
f 97 130 131
f 97 131 132
f 99 133 100
f 100 133 134
f 100 134 135
f 101 102 103
f 102 136 137
f 102 137 138
f 102 138 103
f 105 107 106
f 106 107 139
f 106 139 109
f 107 140 141
f 107 141 142
f 107 142 143
f 107 143 139
f 109 139 110
f 110 144 145
f 110 145 146
f 110 146 111
f 110 139 147
f 110 147 148
f 110 148 144
f 111 146 113
f 113 146 149
f 113 149 114
f 114 149 115
f 115 149 116
f 116 149 117
f 117 149 150
f 117 150 151
f 117 151 152
f 117 152 118
f 119 127 120
f 120 127 153
f 120 153 154
f 120 154 155
f 120 155 156
f 120 156 121
f 121 156 157
f 121 157 122
f 122 158 123
f 122 157 159
f 122 159 160
f 122 160 158
f 123 158 161
f 123 161 162
f 123 162 124
f 124 162 131
f 124 131 129
f 125 163 164
f 125 164 126
f 126 153 127
f 126 164 165
f 126 165 166
f 126 166 153
f 129 131 130
f 131 162 167
f 131 167 168
f 131 168 169
f 131 169 132
f 132 169 170
f 134 171 135
f 134 172 171
f 136 173 137
f 136 174 173
f 137 173 175
f 139 143 142
f 139 142 141
f 139 141 147
f 140 176 177
f 140 177 141
f 141 177 147
f 144 178 145
f 144 148 179
f 144 179 178
f 145 180 181
f 145 181 146
f 145 178 182
f 145 182 183
f 145 183 180
f 146 181 149
f 147 177 184
f 147 184 185
f 147 185 148
f 148 185 179
f 149 181 150
f 150 181 151
f 151 181 186
f 151 186 187
f 151 187 188
f 151 188 189
f 151 189 190
f 151 190 191
f 151 191 152
f 153 166 154
f 154 166 165
f 154 165 164
f 154 164 192
f 154 192 155
f 155 192 156
f 156 192 193
f 156 193 157
f 157 193 194
f 157 194 195
f 157 195 159
f 158 160 161
f 159 195 196
f 159 196 160
f 160 196 197
f 160 197 198
f 160 198 199
f 160 199 161
f 161 199 200
f 161 200 201
f 161 201 202
f 161 202 203
f 161 203 204
f 161 204 162
f 162 205 168
f 162 168 167
f 162 204 205
f 163 206 207
f 163 207 164
f 164 207 208
f 164 208 192
f 168 204 169
f 168 205 204
f 169 204 203
f 169 203 170
f 170 203 202
f 170 202 209
f 171 172 210
f 172 211 212
f 172 212 210
f 173 174 175
f 174 213 175
f 175 213 214
f 176 215 216
f 176 216 177
f 177 216 185
f 177 185 184
f 178 217 218
f 178 218 182
f 178 179 219
f 178 219 217
f 179 185 220
f 179 220 221
f 179 221 222
f 179 222 219
f 180 187 186
f 180 186 181
f 180 183 223
f 180 223 224
f 180 224 225
f 180 225 187
f 182 218 226
f 182 226 227
f 182 227 228
f 182 228 183
f 183 228 223
f 185 216 220
f 187 225 188
f 188 225 229
f 188 229 189
f 189 229 230
f 189 230 231
f 189 231 190
f 190 231 232
f 192 208 207
f 192 207 233
f 192 233 193
f 193 234 194
f 193 233 235
f 193 235 234
f 194 234 195
f 195 234 236
f 195 236 196
f 196 236 276
f 196 276 237
f 196 237 238
f 196 238 197
f 197 238 239
f 197 239 198
f 198 239 278
f 198 278 240
f 198 240 241
f 198 241 199
f 199 241 200
f 200 241 201
f 201 241 242
f 201 242 202
f 202 242 209
f 206 243 207
f 207 243 244
f 207 244 245
f 207 245 233
f 209 242 246
f 210 212 247
f 211 248 249
f 211 249 247
f 211 247 212
f 213 250 251
f 213 251 214
f 215 252 221
f 215 221 216
f 216 221 220
f 217 253 254
f 217 254 255
f 217 255 256
f 217 256 257
f 217 257 226
f 217 226 218
f 217 219 253
f 219 222 258
f 219 258 253
f 221 252 259
f 221 259 222
f 222 259 260
f 222 260 258
f 223 228 261
f 223 261 262
f 223 262 224
f 224 262 229
f 224 229 225
f 226 257 239
f 226 239 238
f 226 238 263
f 226 263 227
f 227 263 264
f 227 264 228
f 228 264 265
f 228 265 261
f 229 262 230
f 230 262 231
f 231 266 267
f 231 267 268
f 231 268 269
f 231 269 232
f 231 262 266
f 233 245 235
f 234 235 270
f 234 270 271
f 234 271 272
f 234 272 273
f 234 273 274
f 234 274 236
f 235 245 244
f 235 244 275
f 235 275 270
f 236 274 298
f 236 298 276
f 237 276 263
f 237 263 238
f 239 257 277
f 239 277 278
f 240 279 241
f 240 278 301
f 240 301 279
f 241 279 280
f 241 280 281
f 241 281 242
f 242 281 282
f 242 282 246
f 243 283 244
f 244 283 275
f 248 251 284
f 248 284 249
f 250 284 251
f 252 285 259
f 253 286 254
f 253 258 286
f 254 286 287
f 254 287 288
f 254 288 255
f 255 288 289
f 255 289 290
f 255 290 256
f 256 290 277
f 256 277 257
f 258 260 286
f 259 285 286
f 259 286 260
f 261 265 291
f 261 291 292
f 261 292 266
f 261 266 262
f 263 276 264
f 264 276 291
f 264 291 265
f 266 292 267
f 267 292 268
f 268 293 294
f 268 294 295
f 268 295 269
f 268 292 293
f 270 275 271
f 271 275 283
f 271 283 272
f 272 296 297
f 272 297 273
f 273 297 298
f 273 298 274
f 276 298 291
f 277 290 299
f 277 299 300
f 277 300 301
f 277 301 278
f 279 301 300
f 279 300 280
f 280 300 299
f 280 299 281
f 285 302 286
f 286 302 287
f 289 303 290
f 290 303 304
f 290 304 299
f 291 298 297
f 291 297 296
f 291 296 294
f 291 294 293
f 291 293 292
f 294 296 305
f 294 305 295

