# https://github.com/mikedh/trimesh
v 0.00708939 0.01729694 -0.00531191
v 0.00703084 0.01735521 -0.00530983
v 0.00708939 0.01735521 -0.00531191
v 0.00765679 0.01575923 -0.00531191
v 0.00708939 0.01672969 -0.00529527
v 0.00649644 0.01735521 -0.00522872
v 0.01100156 0.01735521 -0.00531191
v 0.00746304 0.01575923 -0.00528071
v 0.01316257 0.01575923 -0.00531191
v 0.00711600 0.01575923 -0.00521000
v 0.00642406 0.01735521 -0.00521416
v 0.01156683 0.01735521 -0.00530879
v 0.01219278 0.01672969 -0.00531087
v 0.01275911 0.01616276 -0.00531191
v 0.01372997 0.01575923 -0.00530879
v 0.00697016 0.01575923 -0.00514761
v 0.00618986 0.01735521 -0.00513513
v 0.00633889 0.01735521 -0.00518920
v 0.01213423 0.01735521 -0.00528383
v 0.01219278 0.01729694 -0.00528591
v 0.01275911 0.01672969 -0.00529943
v 0.01332651 0.01616276 -0.00530671
v 0.01429737 0.01575923 -0.00528695
v 0.00684029 0.01575923 -0.00507793
v 0.00590775 0.01735521 -0.00488347
v 0.01274102 0.01735521 -0.00519856
v 0.01277721 0.01732319 -0.00520064
v 0.01332651 0.01672969 -0.00524640
v 0.01389391 0.01616276 -0.00527344
v 0.01492758 0.01575923 -0.00520272
v 0.00675300 0.01575923 -0.00499162
v 0.00586624 0.01735521 -0.00484603
v 0.01276124 0.01735521 -0.00519440
v 0.01332651 0.01712525 -0.00514761
v 0.01384707 0.01670673 -0.00516112
v 0.01445279 0.01616932 -0.00518816
v 0.01501061 0.01575923 -0.00518712
v 0.00658054 0.01575923 -0.00479715
v 0.00577469 0.01735521 -0.00474932
v 0.01312851 0.01735521 -0.00510705
v 0.01362671 0.01702433 -0.00511017
v 0.01490416 0.01598450 -0.00514865
v 0.01535871 0.01575923 -0.00510809
v 0.00647835 0.01575923 -0.00455693
v 0.00619092 0.01633335 -0.00460165
v 0.00563204 0.01735521 -0.00452053
v 0.01336803 0.01735521 -0.00498434
v 0.01400462 0.01688045 -0.00500514
v 0.01528207 0.01585578 -0.00509249
v 0.01554820 0.01575923 -0.00501034
v 0.00636231 0.01575923 -0.00425327
v 0.00556923 0.01735521 -0.00425327
v 0.01349045 0.01735521 -0.00490530
v 0.01370868 0.01735521 -0.00476179
v 0.01428353 0.01708901 -0.00462660
v 0.01492438 0.01657550 -0.00467444
v 0.01559504 0.01575923 -0.00498018
v 0.00635592 0.01575923 -0.00368548
v 0.00556497 0.01735521 -0.00368548
v 0.01376829 0.01735521 -0.00471916
v 0.01406849 0.01735521 -0.00434895
v 0.01530229 0.01643974 -0.00451325
v 0.01594102 0.01592389 -0.00459229
v 0.01602405 0.01575923 -0.00469212
v 0.01559504 0.01604949 -0.00471188
v 0.01591014 0.01575923 -0.00477011
v 0.00635592 0.01575923 -0.00344734
v 0.00556391 0.01735521 -0.00311872
v 0.01412279 0.01735521 -0.00425327
v 0.01507980 0.01665580 -0.00429591
v 0.01536936 0.01648833 -0.00413576
v 0.01633702 0.01575923 -0.00425119
v 0.01632318 0.01575923 -0.00427407
v 0.00635699 0.01575923 0.00368548
v 0.00556391 0.01735521 0.00311872
v 0.01422498 0.01735521 -0.00368548
v 0.01539917 0.01650926 -0.00368548
v 0.01643922 0.01575923 -0.00368548
v 0.01642431 0.01575923 -0.00377387
v 0.00556923 0.01735521 0.00425327
v 0.00556497 0.01735521 0.00375619
v 0.00636444 0.01575923 0.00425327
v 0.01422498 0.01735521 0.00368548
v 0.01539917 0.01650926 0.00368548
v 0.01643922 0.01575923 0.00368548
v 0.00619092 0.01633335 0.00460165
v 0.00577469 0.01735521 0.00474931
v 0.00658161 0.01575923 0.00479507
v 0.01416217 0.01735521 0.00403905
v 0.01536936 0.01648833 0.00413888
v 0.01633702 0.01575923 0.00425119
v 0.00590775 0.01735521 0.00488346
v 0.00684135 0.01575923 0.00507689
v 0.01412385 0.01735521 0.00425327
v 0.01530336 0.01644068 0.00451637
v 0.01557375 0.01630039 0.00429799
v 0.01594314 0.01592498 0.00459333
v 0.01602511 0.01575923 0.00469316
v 0.00604614 0.01735521 0.00500098
v 0.00711707 0.01575923 0.00521000
v 0.00674129 0.01627586 0.00515072
v 0.00633889 0.01735521 0.00518920
v 0.01377042 0.01735521 0.00472020
v 0.01428353 0.01708901 0.00462660
v 0.01492545 0.01657456 0.00467548
v 0.01559504 0.01605106 0.00471292
v 0.01559504 0.01575923 0.00498122
v 0.00765679 0.01575923 0.00531191
v 0.00708939 0.01672969 0.00529527
v 0.00649644 0.01735521 0.00522872
v 0.01349471 0.01735521 0.00490634
v 0.01400462 0.01688123 0.00500410
v 0.01554926 0.01575923 0.00501137
v 0.00708939 0.01729694 0.00531191
v 0.01275911 0.01575923 0.00531191
v 0.00708939 0.01735521 0.00531191
v 0.01332651 0.01735521 0.00500202
v 0.01362671 0.01702496 0.00511017
v 0.01528313 0.01585609 0.00509249
v 0.01518732 0.01575923 0.00514344
v 0.01332651 0.01575923 0.00530983
v 0.01275911 0.01616276 0.00531191
v 0.01049271 0.01735521 0.00531191
v 0.01281021 0.01735521 0.00518192
v 0.01332651 0.01712682 0.00514760
v 0.01426117 0.01650333 0.00513201
v 0.01490522 0.01598591 0.00514864
v 0.01501061 0.01575923 0.00518608
v 0.01389391 0.01575923 0.00529943
v 0.01332651 0.01616276 0.00530671
v 0.01219278 0.01672969 0.00531087
v 0.01105798 0.01729694 0.00531191
v 0.01105798 0.01735521 0.00531087
v 0.01276337 0.01735521 0.00519440
v 0.01384707 0.01670720 0.00516216
v 0.01445386 0.01617010 0.00518816
v 0.01445918 0.01575923 0.00526200
v 0.01389391 0.01616276 0.00527447
v 0.01275911 0.01672969 0.00529839
v 0.01162538 0.01729694 0.00530879
v 0.01162538 0.01735521 0.00530463
v 0.01277934 0.01732397 0.00519960
v 0.01218959 0.01735521 0.00527551
v 0.01332651 0.01672969 0.00524640
v 0.01219278 0.01729694 0.00528591
f 1 2 3
f 1 3 7
f 1 7 14
f 1 14 9
f 1 9 4
f 1 4 2
f 2 4 5
f 2 5 6
f 2 6 11
f 2 11 18
f 2 18 17
f 2 17 25
f 2 25 32
f 2 32 39
f 2 39 46
f 2 46 52
f 2 52 59
f 2 59 68
f 2 68 75
f 2 75 81
f 2 81 80
f 2 80 87
f 2 87 92
f 2 92 99
f 2 99 102
f 2 102 110
f 2 110 116
f 2 116 123
f 2 123 133
f 2 133 141
f 2 141 143
f 2 143 134
f 2 134 124
f 2 124 117
f 2 117 111
f 2 111 103
f 2 103 94
f 2 94 89
f 2 89 83
f 2 83 76
f 2 76 69
f 2 69 61
f 2 61 60
f 2 60 54
f 2 54 53
f 2 53 47
f 2 47 40
f 2 40 33
f 2 33 26
f 2 26 19
f 2 19 12
f 2 12 7
f 2 7 3
f 4 8 5
f 4 9 15
f 4 15 23
f 4 23 30
f 4 30 37
f 4 37 43
f 4 43 50
f 4 50 57
f 4 57 66
f 4 66 64
f 4 64 73
f 4 73 72
f 4 72 79
f 4 79 78
f 4 78 85
f 4 85 91
f 4 91 98
f 4 98 107
f 4 107 113
f 4 113 120
f 4 120 128
f 4 128 137
f 4 137 129
f 4 129 121
f 4 121 115
f 4 115 108
f 4 108 100
f 4 100 93
f 4 93 88
f 4 88 82
f 4 82 74
f 4 74 67
f 4 67 58
f 4 58 51
f 4 51 44
f 4 44 38
f 4 38 31
f 4 31 24
f 4 24 16
f 4 16 10
f 4 10 8
f 5 10 11
f 5 11 6
f 5 8 10
f 7 12 13
f 7 13 14
f 9 14 15
f 10 16 17
f 10 17 18
f 10 18 11
f 12 19 20
f 12 20 21
f 12 21 22
f 12 22 15
f 12 15 13
f 13 15 14
f 15 22 23
f 16 24 17
f 17 24 25
f 19 26 27
f 19 27 28
f 19 28 29
f 19 29 20
f 20 29 23
f 20 23 21
f 21 23 22
f 23 29 30
f 24 31 32
f 24 32 25
f 26 33 34
f 26 34 27
f 27 34 35
f 27 35 36
f 27 36 28
f 28 36 30
f 28 30 29
f 30 36 37
f 31 38 39
f 31 39 32
f 33 40 34
f 34 41 42
f 34 42 35
f 34 40 41
f 35 42 36
f 36 42 37
f 37 42 43
f 38 44 45
f 38 45 46
f 38 46 39
f 40 47 41
f 41 47 48
f 41 48 49
f 41 49 43
f 41 43 42
f 43 49 50
f 44 51 45
f 45 51 46
f 46 51 52
f 47 53 48
f 48 53 54
f 48 54 55
f 48 55 56
f 48 56 57
f 48 57 50
f 48 50 49
f 51 58 52
f 52 58 59
f 54 60 55
f 55 60 61
f 55 61 62
f 55 62 63
f 55 63 56
f 56 63 64
f 56 64 65
f 56 65 66
f 56 66 57
f 58 67 75
f 58 75 68
f 58 68 59
f 61 69 62
f 62 70 71
f 62 71 72
f 62 72 63
f 62 69 70
f 63 72 73
f 63 73 64
f 64 66 65
f 67 74 75
f 69 76 71
f 69 71 70
f 71 77 78
f 71 78 79
f 71 79 72
f 71 76 77
f 74 80 81
f 74 81 75
f 74 82 80
f 76 83 84
f 76 84 77
f 77 84 85
f 77 85 78
f 80 86 87
f 80 82 86
f 82 88 86
f 83 89 90
f 83 90 84
f 84 90 85
f 85 90 91
f 86 88 87
f 87 88 93
f 87 93 92
f 89 94 90
f 90 95 96
f 90 96 91
f 90 94 95
f 91 97 98
f 91 96 95
f 91 95 97
f 92 93 99
f 93 100 101
f 93 101 102
f 93 102 99
f 94 103 104
f 94 104 95
f 95 104 97
f 97 104 105
f 97 105 106
f 97 106 98
f 98 106 107
f 100 108 109
f 100 109 110
f 100 110 102
f 100 102 101
f 103 111 104
f 104 111 105
f 105 111 106
f 106 111 112
f 106 112 107
f 107 112 113
f 108 114 109
f 108 115 122
f 108 122 132
f 108 132 123
f 108 123 116
f 108 116 114
f 109 114 110
f 110 114 116
f 111 117 118
f 111 118 112
f 112 118 119
f 112 119 113
f 113 119 120
f 115 121 122
f 117 124 118
f 118 124 125
f 118 125 126
f 118 126 119
f 119 127 120
f 119 126 127
f 120 127 128
f 121 129 130
f 121 130 122
f 122 130 131
f 122 131 132
f 123 132 133
f 124 134 125
f 125 135 126
f 125 134 135
f 126 135 127
f 127 135 136
f 127 136 128
f 128 136 138
f 128 138 137
f 129 138 130
f 129 137 138
f 130 138 139
f 130 139 140
f 130 140 131
f 131 140 132
f 132 140 133
f 133 140 141
f 134 142 135
f 134 143 142
f 135 142 136
f 136 142 144
f 136 144 138
f 138 144 145
f 138 145 139
f 139 145 140
f 140 145 141
f 141 145 143
f 142 143 144
f 143 145 144

