# https://github.com/mikedh/trimesh
v 0.00532599 0.00302744 -0.00531191
v 0.00532599 0.00708831 -0.00531191
v 0.00765586 0.00302744 -0.00531191
v 0.00532599 0.00302744 0.00531191
v 0.00532599 0.00765585 -0.00530775
v 0.00538770 0.00765585 -0.00531191
v 0.00822321 0.00311935 -0.00531191
v 0.00822321 0.00302744 -0.00531087
v 0.00813064 0.00302744 0.00531191
v 0.00532599 0.00759382 0.00531191
v 0.00532599 0.00821880 -0.00525784
v 0.00538770 0.00822263 -0.00526928
v 0.00708934 0.01049126 -0.00529631
v 0.00765586 0.01085124 -0.00531191
v 0.00935709 0.00425367 -0.00531191
v 0.00879015 0.00311935 -0.00528799
v 0.00879262 0.00302744 -0.00527448
v 0.00822321 0.00302744 0.00531087
v 0.00822321 0.00311935 0.00531191
v 0.00765586 0.01085124 0.00531191
v 0.00744851 0.01085124 0.00530567
v 0.00708934 0.01049126 0.00529631
v 0.00532599 0.00765585 0.00530775
v 0.00532599 0.00868524 -0.00515384
v 0.00671577 0.01085124 -0.00516216
v 0.00705848 0.01085124 -0.00524952
v 0.00952906 0.01085124 -0.00531191
v 0.00952906 0.00482121 -0.00531191
v 0.00952906 0.00425367 -0.00529839
v 0.00935709 0.00368689 -0.00526928
v 0.00952906 0.00370145 -0.00523288
v 0.00933446 0.00316224 -0.00517568
v 0.00926699 0.00302744 -0.00516424
v 0.00952906 0.00442523 0.00531191
v 0.00869758 0.00302744 0.00529111
v 0.00952906 0.01085124 0.00531191
v 0.00705848 0.01085124 0.00524952
v 0.00532599 0.00816136 0.00527032
v 0.00532599 0.00883842 -0.00506025
v 0.00644135 0.01085124 -0.00491362
v 0.00952906 0.00329168 -0.00514033
v 0.00948092 0.00302744 -0.00501969
v 0.00952906 0.00385846 0.00526928
v 0.00879262 0.00302744 0.00527447
v 0.00687128 0.01085124 0.00520688
v 0.00671577 0.01085124 0.00516216
v 0.00532599 0.00865154 0.00516840
v 0.00532599 0.00908658 -0.00490530
v 0.00617475 0.01085124 -0.00461933
v 0.00952906 0.00302744 -0.00498538
v 0.00921556 0.00302744 0.00518296
v 0.00952906 0.00336521 0.00516944
v 0.00665282 0.01085124 0.00511849
v 0.00532599 0.00868524 0.00515384
v 0.00532599 0.00927499 -0.00475764
v 0.00532599 0.00956221 -0.00425327
v 0.00610399 0.01085124 -0.00425327
v 0.00952906 0.00302744 0.00499058
v 0.00926699 0.00302744 0.00516424
v 0.00952906 0.00329168 0.00514033
v 0.00644135 0.01085124 0.00491362
v 0.00532599 0.00894718 0.00500722
v 0.00532599 0.00956911 -0.00368548
v 0.00609946 0.01085124 -0.00368548
v 0.00952906 0.00305272 0.00500826
v 0.00951877 0.00302744 0.00499890
v 0.00632739 0.01085124 0.00479403
v 0.00617475 0.01085124 0.00461932
v 0.00532599 0.00908658 0.00490530
v 0.00532599 0.00956911 0.00368548
v 0.00609946 0.01085124 0.00368548
v 0.00615706 0.01085124 0.00456629
v 0.00532599 0.00953158 0.00434167
v 0.00532599 0.00927499 0.00475763
v 0.00532599 0.00922062 0.00480547
v 0.00532599 0.00956757 0.00384250
v 0.00610234 0.01085124 0.00411912
v 0.00610399 0.01085124 0.00425327
v 0.00532599 0.00956221 0.00425327
f 1 2 6
f 1 6 14
f 1 14 27
f 1 27 28
f 1 28 15
f 1 15 7
f 1 7 3
f 1 3 8
f 1 8 17
f 1 17 33
f 1 33 42
f 1 42 50
f 1 50 58
f 1 58 66
f 1 66 59
f 1 59 51
f 1 51 44
f 1 44 35
f 1 35 18
f 1 18 9
f 1 9 4
f 1 4 10
f 1 10 23
f 1 23 38
f 1 38 47
f 1 47 54
f 1 54 62
f 1 62 69
f 1 69 75
f 1 75 74
f 1 74 73
f 1 73 79
f 1 79 76
f 1 76 70
f 1 70 63
f 1 63 56
f 1 56 55
f 1 55 48
f 1 48 39
f 1 39 24
f 1 24 11
f 1 11 5
f 1 5 2
f 2 5 6
f 3 7 8
f 4 9 19
f 4 19 34
f 4 34 36
f 4 36 20
f 4 20 10
f 5 11 12
f 5 12 13
f 5 13 6
f 6 13 14
f 7 15 8
f 8 15 16
f 8 16 17
f 9 18 19
f 10 20 21
f 10 21 22
f 10 22 23
f 11 24 25
f 11 25 26
f 11 26 12
f 12 26 13
f 13 26 14
f 14 26 25
f 14 25 40
f 14 40 49
f 14 49 57
f 14 57 64
f 14 64 71
f 14 71 77
f 14 77 78
f 14 78 72
f 14 72 68
f 14 68 67
f 14 67 61
f 14 61 53
f 14 53 46
f 14 46 45
f 14 45 37
f 14 37 21
f 14 21 20
f 14 20 36
f 14 36 27
f 15 28 29
f 15 29 16
f 16 29 30
f 16 30 17
f 17 30 31
f 17 31 32
f 17 32 33
f 18 34 19
f 18 35 34
f 21 37 22
f 22 37 38
f 22 38 23
f 24 39 40
f 24 40 25
f 27 36 34
f 27 34 43
f 27 43 52
f 27 52 60
f 27 60 65
f 27 65 58
f 27 58 50
f 27 50 41
f 27 41 31
f 27 31 29
f 27 29 28
f 29 31 30
f 31 41 32
f 32 41 33
f 33 41 42
f 34 35 43
f 35 44 43
f 37 45 38
f 38 45 46
f 38 46 47
f 39 48 40
f 40 48 49
f 41 50 42
f 43 44 51
f 43 51 52
f 46 53 54
f 46 54 47
f 48 55 49
f 49 55 56
f 49 56 57
f 51 59 52
f 52 59 60
f 53 61 62
f 53 62 54
f 56 63 64
f 56 64 57
f 58 65 66
f 59 65 60
f 59 66 65
f 61 67 62
f 62 67 68
f 62 68 69
f 63 70 71
f 63 71 64
f 68 72 73
f 68 73 74
f 68 74 75
f 68 75 69
f 70 76 71
f 71 76 77
f 72 78 79
f 72 79 73
f 76 79 77
f 77 79 78

