# https://github.com/mikedh/trimesh
v -0.01192502 -0.02734180 -0.00368548
v -0.01192502 -0.02727449 -0.00428551
v -0.01162564 -0.02728077 -0.00425015
v -0.01049160 -0.02727898 -0.00424183
v -0.01105862 -0.02733866 -0.00368548
v -0.01192502 -0.02734180 0.00368548
v -0.01192502 -0.02722424 -0.00452261
v -0.01105862 -0.02721975 -0.00452989
v -0.01049048 -0.02721841 -0.00452573
v -0.01049048 -0.02727898 -0.00424079
v -0.01049048 -0.02733641 -0.00368548
v -0.01105862 -0.02733866 0.00368548
v -0.01192502 -0.02728392 0.00425327
v -0.01192502 -0.02720943 -0.00454965
v -0.01191168 -0.02722110 -0.00453613
v -0.01162564 -0.02722065 -0.00453405
v -0.01049048 -0.02696535 -0.00482003
v -0.01049048 -0.02733641 0.00368548
v -0.01105862 -0.02728077 0.00425327
v -0.01049048 -0.02722110 0.00453613
v -0.01067878 -0.02722155 0.00453717
v -0.01192502 -0.02725565 0.00438846
v -0.01192502 -0.02699945 -0.00478675
v -0.01162564 -0.02696939 -0.00482003
v -0.01105862 -0.02696759 -0.00482003
v -0.01049160 -0.02668447 -0.00512473
v -0.01049048 -0.02668492 -0.00512369
v -0.01049048 -0.02727001 0.00428759
v -0.01049048 -0.02726731 0.00430839
v -0.01049048 -0.02701919 0.00476387
v -0.01162564 -0.02722334 0.00453925
v -0.01192502 -0.02722379 0.00454029
v -0.01192502 -0.02682042 -0.00498122
v -0.01192502 -0.02668716 -0.00512577
v -0.01105862 -0.02668537 -0.00512577
v -0.01049048 -0.02637128 -0.00522664
v -0.01049048 -0.02700797 0.00477635
v -0.01192502 -0.02697118 0.00482419
v -0.01192502 -0.02710444 0.00467444
v -0.01192502 -0.02637039 -0.00522872
v -0.01105862 -0.02637039 -0.00522768
v -0.01049048 -0.02580459 -0.00530983
v -0.01105862 -0.02696983 0.00482107
v -0.01162564 -0.02697073 0.00482315
v -0.01049048 -0.02668537 0.00512577
v -0.01192502 -0.02683702 0.00496770
v -0.01192502 -0.02580325 -0.00530983
v -0.01192502 -0.02523610 -0.00531191
v -0.01049160 -0.02523610 -0.00531191
v -0.01049048 -0.02467076 -0.00531191
v -0.01049048 -0.02637039 0.00522768
v -0.01162564 -0.02668716 0.00512681
v -0.01192502 -0.02668761 0.00512681
v -0.01192502 -0.02410272 -0.00531191
v -0.01049160 -0.02466986 -0.00531191
v -0.01049048 -0.02410362 -0.00530879
v -0.01162564 -0.02637039 0.00522872
v -0.01049048 -0.02580325 0.00530983
v -0.01192502 -0.02637039 0.00522872
v -0.01162564 -0.02410272 -0.00531191
v -0.01192502 -0.02374601 -0.00525472
v -0.01105862 -0.02410272 -0.00531087
v -0.01049160 -0.02410272 -0.00530879
v -0.01049048 -0.02367108 -0.00520584
v -0.01192502 -0.02610252 0.00526720
v -0.01049048 -0.02523610 0.00531191
v -0.01192502 -0.02553538 0.00531087
v -0.01192502 -0.02580325 0.00530983
v -0.01192502 -0.02352840 -0.00521000
v -0.01192390 -0.02326008 -0.00509873
v -0.01049160 -0.02338706 -0.00497082
v -0.01049048 -0.02338751 -0.00497082
v -0.01049048 -0.02466986 0.00531191
v -0.01192502 -0.02523610 0.00531191
v -0.01192502 -0.02326008 -0.00509873
v -0.01192502 -0.02310618 -0.00493754
v -0.01192502 -0.02299895 -0.00481587
v -0.01049160 -0.02314612 -0.00468692
v -0.01049048 -0.02314657 -0.00468692
v -0.01105862 -0.02410272 0.00531087
v -0.01162564 -0.02410272 0.00531191
v -0.01049048 -0.02410272 0.00530879
v -0.01192502 -0.02410272 0.00531191
v -0.01192502 -0.02281992 -0.00439574
v -0.01192502 -0.02276428 -0.00425327
v -0.01049048 -0.02303753 -0.00425327
v -0.01192502 -0.02352840 0.00521000
v -0.01049048 -0.02366974 0.00520480
v -0.01192502 -0.02275845 -0.00368548
v -0.01049048 -0.02303439 -0.00368652
v -0.01192502 -0.02326143 0.00509977
v -0.01049048 -0.02338706 0.00497082
v -0.01192390 -0.02326008 0.00509873
v -0.01192502 -0.02275800 -0.00311872
v -0.01049048 -0.02303439 0.00368444
v -0.01192502 -0.02299895 0.00481587
v -0.01049048 -0.02314612 0.00468588
v -0.01049160 -0.02314612 0.00468692
v -0.01192502 -0.02275800 0.00311872
v -0.01192502 -0.02275845 0.00368548
v -0.01049048 -0.02303753 0.00425223
v -0.01192502 -0.02276428 0.00425327
v -0.01049160 -0.02303753 0.00425327
v -0.01192502 -0.02276204 0.00409833
f 1 2 3
f 1 3 4
f 1 4 5
f 1 5 12
f 1 12 6
f 1 6 13
f 1 13 22
f 1 22 32
f 1 32 39
f 1 39 38
f 1 38 46
f 1 46 53
f 1 53 59
f 1 59 65
f 1 65 68
f 1 68 67
f 1 67 74
f 1 74 83
f 1 83 87
f 1 87 91
f 1 91 96
f 1 96 102
f 1 102 104
f 1 104 100
f 1 100 99
f 1 99 94
f 1 94 89
f 1 89 85
f 1 85 84
f 1 84 77
f 1 77 76
f 1 76 75
f 1 75 69
f 1 69 61
f 1 61 54
f 1 54 48
f 1 48 47
f 1 47 40
f 1 40 34
f 1 34 33
f 1 33 23
f 1 23 14
f 1 14 7
f 1 7 2
f 2 7 4
f 2 4 3
f 4 7 8
f 4 8 9
f 4 9 10
f 4 10 11
f 4 11 5
f 5 11 18
f 5 18 12
f 6 12 19
f 6 19 13
f 7 14 15
f 7 15 16
f 7 16 8
f 8 16 17
f 8 17 9
f 9 17 27
f 9 27 36
f 9 36 42
f 9 42 50
f 9 50 56
f 9 56 64
f 9 64 72
f 9 72 79
f 9 79 86
f 9 86 90
f 9 90 95
f 9 95 101
f 9 101 97
f 9 97 92
f 9 92 88
f 9 88 82
f 9 82 73
f 9 73 66
f 9 66 58
f 9 58 51
f 9 51 45
f 9 45 37
f 9 37 30
f 9 30 20
f 9 20 29
f 9 29 28
f 9 28 18
f 9 18 11
f 9 11 10
f 12 18 19
f 13 19 20
f 13 20 21
f 13 21 22
f 14 23 24
f 14 24 25
f 14 25 17
f 14 17 15
f 15 17 16
f 17 25 26
f 17 26 27
f 18 28 19
f 19 28 29
f 19 29 20
f 20 30 21
f 21 31 22
f 21 30 32
f 21 32 31
f 22 31 32
f 23 33 24
f 24 33 34
f 24 34 35
f 24 35 25
f 25 35 26
f 26 35 36
f 26 36 27
f 30 37 38
f 30 38 39
f 30 39 32
f 34 40 35
f 35 40 41
f 35 41 36
f 36 41 42
f 37 43 44
f 37 44 38
f 37 45 43
f 38 44 45
f 38 45 46
f 40 47 42
f 40 42 41
f 42 47 48
f 42 48 49
f 42 49 50
f 43 45 44
f 45 51 52
f 45 52 46
f 46 52 53
f 48 54 60
f 48 60 55
f 48 55 50
f 48 50 49
f 50 55 63
f 50 63 56
f 51 57 52
f 51 58 57
f 52 57 53
f 53 57 59
f 54 61 60
f 55 60 62
f 55 62 63
f 56 63 64
f 57 65 59
f 57 58 65
f 58 66 67
f 58 67 68
f 58 68 65
f 60 61 62
f 61 69 63
f 61 63 62
f 63 69 64
f 64 69 70
f 64 70 71
f 64 71 72
f 66 73 81
f 66 81 83
f 66 83 74
f 66 74 67
f 69 75 70
f 70 75 76
f 70 76 71
f 71 76 77
f 71 77 78
f 71 78 79
f 71 79 72
f 73 80 81
f 73 82 80
f 77 84 78
f 78 84 85
f 78 85 86
f 78 86 79
f 80 82 87
f 80 87 81
f 81 87 83
f 82 88 87
f 85 89 86
f 86 89 90
f 87 88 91
f 88 92 93
f 88 93 91
f 89 94 90
f 90 94 99
f 90 99 95
f 91 93 96
f 92 97 98
f 92 98 96
f 92 96 93
f 95 99 100
f 95 100 101
f 96 98 102
f 97 101 103
f 97 103 98
f 98 103 102
f 100 104 101
f 101 104 102
f 101 102 103

