# https://github.com/mikedh/trimesh
v 0.00344787 0.00302732 -0.00531191
v 0.00344787 0.00595486 -0.00531191
v 0.00532599 0.00302732 -0.00531191
v 0.00344787 0.00302732 0.00531191
v 0.00344787 0.00652167 -0.00530671
v 0.00368634 0.00652167 -0.00531191
v 0.00532599 0.00708848 -0.00531191
v 0.00532599 0.00302732 0.00531191
v 0.00344787 0.00628342 0.00531191
v 0.00344787 0.00707182 -0.00521208
v 0.00532599 0.00821889 -0.00525784
v 0.00425354 0.00708848 -0.00530255
v 0.00532599 0.00765592 -0.00530775
v 0.00482038 0.00708848 -0.00531191
v 0.00532599 0.00759380 0.00531191
v 0.00368634 0.00652167 0.00531191
v 0.00344787 0.00652167 0.00530671
v 0.00344787 0.00733377 -0.00509041
v 0.00532599 0.00868578 -0.00515384
v 0.00532599 0.00765592 0.00530775
v 0.00425354 0.00708848 0.00530255
v 0.00532599 0.00816125 0.00527032
v 0.00344787 0.00689506 0.00525160
v 0.00344787 0.00735619 -0.00507585
v 0.00532599 0.00908671 -0.00490530
v 0.00532599 0.00883885 -0.00506025
v 0.00532599 0.00865184 0.00516840
v 0.00344787 0.00707182 0.00521208
v 0.00344787 0.00763031 -0.00481379
v 0.00532599 0.00927565 -0.00475764
v 0.00532599 0.00868578 0.00515384
v 0.00344787 0.00734466 0.00508625
v 0.00344787 0.00787880 -0.00425327
v 0.00532599 0.00956193 -0.00425327
v 0.00504487 0.00913987 -0.00460165
v 0.00532599 0.00894709 0.00500722
v 0.00532599 0.00908671 0.00490530
v 0.00532599 0.00922121 0.00480547
v 0.00532599 0.00927565 0.00475763
v 0.00344787 0.00753296 0.00491674
v 0.00344787 0.00787944 -0.00421168
v 0.00532599 0.00956385 -0.00409937
v 0.00532599 0.00953119 0.00434167
v 0.00504487 0.00913987 0.00460165
v 0.00344787 0.00763031 0.00481379
v 0.00344787 0.00788457 -0.00368548
v 0.00532599 0.00956898 -0.00368548
v 0.00532599 0.00956193 0.00425327
v 0.00344787 0.00787880 0.00425327
v 0.00344787 0.00786664 0.00428759
v 0.00344787 0.00788521 -0.00311872
v 0.00532599 0.00956962 -0.00311872
v 0.00532599 0.00956706 0.00384250
v 0.00532599 0.00956898 0.00368548
v 0.00344787 0.00788457 0.00372187
v 0.00344787 0.00788521 0.00315512
v 0.00532599 0.00956962 0.00311872
f 1 2 6
f 1 6 14
f 1 14 7
f 1 7 3
f 1 3 8
f 1 8 4
f 1 4 9
f 1 9 17
f 1 17 23
f 1 23 28
f 1 28 32
f 1 32 40
f 1 40 45
f 1 45 50
f 1 50 49
f 1 49 55
f 1 55 56
f 1 56 51
f 1 51 46
f 1 46 41
f 1 41 33
f 1 33 29
f 1 29 24
f 1 24 18
f 1 18 10
f 1 10 5
f 1 5 2
f 2 5 6
f 3 7 13
f 3 13 11
f 3 11 19
f 3 19 26
f 3 26 25
f 3 25 30
f 3 30 34
f 3 34 42
f 3 42 47
f 3 47 52
f 3 52 57
f 3 57 54
f 3 54 53
f 3 53 48
f 3 48 43
f 3 43 39
f 3 39 38
f 3 38 37
f 3 37 36
f 3 36 31
f 3 31 27
f 3 27 22
f 3 22 20
f 3 20 15
f 3 15 8
f 4 8 15
f 4 15 16
f 4 16 9
f 5 10 11
f 5 11 12
f 5 12 13
f 5 13 6
f 6 13 14
f 7 14 13
f 9 16 17
f 10 18 19
f 10 19 11
f 11 13 12
f 15 20 21
f 15 21 17
f 15 17 16
f 17 21 22
f 17 22 23
f 18 24 25
f 18 25 26
f 18 26 19
f 20 22 21
f 22 27 23
f 23 27 28
f 24 29 30
f 24 30 25
f 27 31 28
f 28 31 32
f 29 33 34
f 29 34 35
f 29 35 30
f 30 35 34
f 31 36 32
f 32 36 37
f 32 37 38
f 32 38 39
f 32 39 40
f 33 41 34
f 34 41 42
f 39 43 44
f 39 44 45
f 39 45 40
f 41 46 47
f 41 47 42
f 43 48 49
f 43 49 50
f 43 50 45
f 43 45 44
f 46 51 52
f 46 52 47
f 48 53 49
f 49 53 54
f 49 54 55
f 51 56 57
f 51 57 52
f 54 57 56
f 54 56 55

