# https://github.com/mikedh/trimesh
v 0.01200200 -0.01000340 -0.00311872
v 0.01049831 -0.00971241 -0.00368548
v 0.01200200 -0.01000303 -0.00368548
v 0.01200200 -0.01000340 0.00311872
v 0.01049831 -0.00971094 -0.00424599
v 0.01049831 -0.00971241 0.00369172
v 0.01200200 -0.01000121 -0.00387682
v 0.01200200 -0.01000303 0.00368548
v 0.01049831 -0.00971058 -0.00425327
v 0.01200200 -0.00999645 -0.00425327
v 0.01049831 -0.00971058 0.00425327
v 0.01200200 -0.00999645 0.00425327
v 0.01049831 -0.00967548 -0.00458605
v 0.01049831 -0.00967475 -0.00459021
v 0.01200200 -0.00995405 -0.00440302
v 0.01049831 -0.00967475 0.00459021
v 0.01200200 -0.00978698 0.00478675
v 0.01200200 -0.00978698 -0.00478675
v 0.01049831 -0.00944079 -0.00487099
v 0.01049831 -0.00967219 0.00459333
v 0.01200200 -0.00956070 0.00503529
v 0.01049831 -0.00943787 0.00487411
v 0.01200200 -0.00968938 -0.00489802
v 0.01049831 -0.00943787 -0.00487411
v 0.01200200 -0.00931650 0.00519336
v 0.01049831 -0.00915455 0.00516840
v 0.01200200 -0.00956070 -0.00503529
v 0.01049831 -0.00915784 -0.00516528
v 0.01200200 -0.00879008 0.00530983
v 0.01162589 -0.00879008 0.00530671
v 0.01105886 -0.00879008 0.00529007
v 0.01162589 -0.00922913 0.00520272
v 0.01049831 -0.00879008 0.00527239
v 0.01049831 -0.00915455 -0.00516840
v 0.01200200 -0.00950623 -0.00507793
v 0.01162589 -0.00822308 0.00528279
v 0.01049831 -0.00765609 0.00529631
v 0.01105886 -0.00822308 0.00531191
v 0.01049831 -0.00822308 0.00531191
v 0.01200200 -0.00820663 0.00523080
v 0.01049831 -0.00879447 -0.00527136
v 0.01162589 -0.00922913 -0.00520272
v 0.01200200 -0.00931650 -0.00519336
v 0.01049831 -0.00765024 0.00529527
v 0.01049831 -0.00711176 0.00519024
v 0.01200200 -0.00790175 0.00513409
v 0.01200053 -0.00789919 0.00513409
v 0.01049831 -0.00879008 -0.00527240
v 0.01105886 -0.00879008 -0.00529007
v 0.01162589 -0.00879008 -0.00530671
v 0.01200200 -0.00914358 -0.00523392
v 0.01049831 -0.00706387 0.00516008
v 0.01200200 -0.00789736 0.00513097
v 0.01200200 -0.00762428 0.00486371
v 0.01049831 -0.00656158 0.00480027
v 0.01049831 -0.00662080 0.00485435
v 0.01063904 -0.00691398 0.00501345
v 0.01049831 -0.00822308 -0.00531191
v 0.01200200 -0.00879008 -0.00530983
v 0.01200200 -0.00739873 0.00461725
v 0.01196740 -0.00734426 0.00457565
v 0.01089311 -0.00671475 0.00463596
v 0.01049831 -0.00627497 0.00425327
v 0.01049831 -0.00766267 -0.00529735
v 0.01105886 -0.00822308 -0.00531191
v 0.01200200 -0.00859889 -0.00530151
v 0.01200200 -0.00732927 0.00425327
v 0.01049831 -0.00627241 0.00401929
v 0.01049831 -0.00765609 -0.00529631
v 0.01162589 -0.00822308 -0.00528279
v 0.01200200 -0.00820663 -0.00523080
v 0.01200200 -0.00732671 0.00378635
v 0.01049831 -0.00626912 0.00368548
v 0.01049831 -0.00712528 -0.00519440
v 0.01200200 -0.00806808 -0.00519648
v 0.01200200 -0.00732634 0.00368548
v 0.01049831 -0.00626912 -0.00368548
v 0.01049831 -0.00711176 -0.00519024
v 0.01200053 -0.00789919 -0.00513409
v 0.01200200 -0.00790175 -0.00513409
v 0.01200200 -0.00732634 -0.00368548
v 0.01200200 -0.00732671 -0.00378635
v 0.01200200 -0.00732927 -0.00425327
v 0.01049831 -0.00627132 -0.00391946
v 0.01049831 -0.00685622 -0.00505817
v 0.01049831 -0.00662080 -0.00485435
v 0.01049831 -0.00657766 -0.00481691
v 0.01200200 -0.00762428 -0.00486371
v 0.01200200 -0.00789736 -0.00513097
v 0.01049831 -0.00627497 -0.00425327
v 0.01200200 -0.00735778 -0.00454029
v 0.01049831 -0.00656158 -0.00480027
v 0.01200200 -0.00753837 -0.00477531
v 0.01049831 -0.00630385 -0.00438118
v 0.01200200 -0.00739873 -0.00461725
v 0.01196740 -0.00734426 -0.00457565
f 1 2 3
f 1 3 7
f 1 7 10
f 1 10 15
f 1 15 18
f 1 18 23
f 1 23 27
f 1 27 35
f 1 35 43
f 1 43 51
f 1 51 59
f 1 59 66
f 1 66 71
f 1 71 75
f 1 75 80
f 1 80 89
f 1 89 88
f 1 88 93
f 1 93 95
f 1 95 91
f 1 91 83
f 1 83 82
f 1 82 81
f 1 81 76
f 1 76 72
f 1 72 67
f 1 67 60
f 1 60 54
f 1 54 53
f 1 53 46
f 1 46 40
f 1 40 29
f 1 29 25
f 1 25 21
f 1 21 17
f 1 17 12
f 1 12 8
f 1 8 4
f 1 4 6
f 1 6 2
f 2 5 3
f 2 6 11
f 2 11 16
f 2 16 20
f 2 20 22
f 2 22 26
f 2 26 33
f 2 33 39
f 2 39 37
f 2 37 44
f 2 44 45
f 2 45 52
f 2 52 56
f 2 56 55
f 2 55 63
f 2 63 68
f 2 68 73
f 2 73 77
f 2 77 84
f 2 84 90
f 2 90 94
f 2 94 92
f 2 92 87
f 2 87 86
f 2 86 85
f 2 85 78
f 2 78 74
f 2 74 69
f 2 69 64
f 2 64 58
f 2 58 48
f 2 48 41
f 2 41 34
f 2 34 28
f 2 28 24
f 2 24 19
f 2 19 14
f 2 14 13
f 2 13 9
f 2 9 5
f 3 5 7
f 4 8 6
f 5 9 10
f 5 10 7
f 6 8 11
f 8 12 11
f 9 13 10
f 10 13 14
f 10 14 15
f 11 12 16
f 12 17 16
f 14 18 15
f 14 19 18
f 16 17 20
f 17 21 22
f 17 22 20
f 18 19 23
f 19 24 27
f 19 27 23
f 21 25 26
f 21 26 22
f 24 28 27
f 25 29 30
f 25 30 31
f 25 31 32
f 25 32 26
f 26 32 33
f 27 28 34
f 27 34 35
f 29 36 37
f 29 37 38
f 29 38 39
f 29 39 30
f 29 40 36
f 30 39 31
f 31 39 33
f 31 33 32
f 34 41 42
f 34 42 43
f 34 43 35
f 36 44 37
f 36 40 45
f 36 45 44
f 37 39 38
f 40 46 47
f 40 47 45
f 41 48 49
f 41 49 42
f 42 49 43
f 43 49 50
f 43 50 51
f 45 47 52
f 46 53 47
f 47 53 54
f 47 54 55
f 47 55 56
f 47 56 57
f 47 57 52
f 48 58 49
f 49 58 50
f 50 58 59
f 50 59 51
f 52 57 56
f 54 60 55
f 55 60 61
f 55 61 62
f 55 62 63
f 58 64 65
f 58 65 59
f 59 65 66
f 60 67 61
f 61 63 62
f 61 67 63
f 63 67 68
f 64 69 70
f 64 70 66
f 64 66 65
f 66 70 71
f 67 72 73
f 67 73 68
f 69 74 70
f 70 74 71
f 71 74 75
f 72 76 73
f 73 76 81
f 73 81 77
f 74 78 75
f 75 78 79
f 75 79 80
f 77 81 82
f 77 82 83
f 77 83 84
f 78 85 79
f 79 85 86
f 79 86 87
f 79 87 88
f 79 88 89
f 79 89 80
f 83 90 84
f 83 91 90
f 87 92 93
f 87 93 88
f 90 91 94
f 91 95 96
f 91 96 94
f 92 94 96
f 92 96 95
f 92 95 93

