# https://github.com/mikedh/trimesh
v -0.00368515 -0.02138435 -0.00531191
v -0.00428441 -0.02138435 -0.00525056
v -0.00368515 -0.02126668 -0.00531191
v 0.00380391 -0.02138435 -0.00531191
v -0.00429646 -0.02122324 -0.00522872
v -0.00368515 -0.02069965 -0.00527552
v -0.00469523 -0.02138435 -0.00517256
v -0.00311876 -0.02036395 -0.00530879
v -0.00311876 -0.02069965 -0.00531191
v 0.00311920 -0.02069965 -0.00531191
v 0.00311920 -0.02036395 -0.00531087
v 0.00335036 -0.02036395 -0.00530047
v 0.00425307 -0.02138435 -0.00527136
v -0.00368844 -0.02036395 -0.00522664
v -0.00495487 -0.02138435 -0.00502385
v -0.00399957 -0.02036954 -0.00512473
v -0.00399080 -0.02036395 -0.00512681
v -0.00255127 -0.02036395 -0.00531191
v 0.00278287 -0.02036395 -0.00531191
v 0.00369435 -0.02036395 -0.00523912
v 0.00439440 -0.02138435 -0.00525368
v -0.00534379 -0.02138435 -0.00471084
v -0.00400614 -0.02036395 -0.00511537
v -0.00545115 -0.02138435 -0.00462349
v 0.00389155 -0.02036395 -0.00519336
v 0.00471977 -0.02138435 -0.00517360
v -0.00428441 -0.02036395 -0.00486683
v -0.00555851 -0.02138435 -0.00425327
v -0.00457144 -0.02036824 -0.00457877
v -0.00456267 -0.02036395 -0.00458397
v 0.00403397 -0.02036395 -0.00514033
v 0.00484466 -0.02138435 -0.00513409
v -0.00556289 -0.02138435 -0.00368548
v -0.00461416 -0.02036395 -0.00372811
v -0.00460978 -0.02036395 -0.00425327
v -0.00457363 -0.02036395 -0.00452781
v 0.00406026 -0.02036395 -0.00512161
v 0.00508020 -0.02138435 -0.00498434
v 0.00501337 -0.02138435 -0.00502905
v -0.00556399 -0.02138435 -0.00311872
v -0.00461416 -0.02036395 0.00368548
v 0.00431552 -0.02036395 -0.00489906
v 0.00542639 -0.02138435 -0.00470668
v -0.00556399 -0.02138435 0.00311872
v -0.00460978 -0.02036395 0.00425327
v -0.00556289 -0.02138435 0.00368548
v -0.00556070 -0.02138435 0.00398185
v 0.00441741 -0.02036395 -0.00480755
v 0.00548993 -0.02138435 -0.00464740
v -0.00456815 -0.02036395 0.00457461
v -0.00555851 -0.02138435 0.00425327
v -0.00554536 -0.02138435 0.00440510
v 0.00460145 -0.02036395 -0.00461205
v 0.00559401 -0.02138435 -0.00444046
v -0.00457144 -0.02036824 0.00457877
v -0.00456267 -0.02036395 0.00458397
v -0.00545115 -0.02138435 0.00462348
v 0.00461789 -0.02036395 -0.00457461
v 0.00562139 -0.02138435 -0.00425327
v 0.00467705 -0.02036395 -0.00425327
v -0.00440163 -0.02036395 0.00476075
v -0.00540075 -0.02138435 0.00467028
v 0.00562359 -0.02138435 -0.00403697
v 0.00467814 -0.02036395 -0.00414408
v -0.00428441 -0.02036395 0.00486683
v -0.00503265 -0.02138435 0.00497082
v -0.00399738 -0.02036395 0.00512369
v 0.00562687 -0.02138435 -0.00368548
v 0.00468252 -0.02036395 -0.00368548
v -0.00495487 -0.02138435 0.00502385
v -0.00399080 -0.02036395 0.00512681
v -0.00469523 -0.02138435 0.00517256
v 0.00562797 -0.02138435 -0.00311872
v 0.00468252 -0.02036395 0.00368548
v -0.00385058 -0.02036395 0.00518712
v -0.00445421 -0.02138435 0.00522872
v -0.00368844 -0.02036395 0.00522664
v 0.00562797 -0.02138435 0.00311872
v 0.00562578 -0.02138435 0.00389970
v 0.00562687 -0.02138435 0.00368548
v 0.00467705 -0.02036395 0.00425327
v -0.00428441 -0.02138435 0.00525056
v -0.00334992 -0.02036395 0.00529423
v 0.00562139 -0.02138435 0.00425327
v 0.00460145 -0.02036395 0.00461205
v -0.00380347 -0.02138435 0.00531191
v -0.00311876 -0.02036395 0.00530879
v 0.00548993 -0.02138435 0.00464740
v 0.00431552 -0.02036395 0.00489906
v -0.00311876 -0.02069965 0.00531191
v 0.00368559 -0.02138435 0.00531191
v -0.00278243 -0.02036395 0.00531191
v 0.00535628 -0.02138435 0.00475659
v 0.00403397 -0.02036395 0.00514033
v 0.00425307 -0.02138435 0.00527135
v 0.00368559 -0.02126668 0.00531191
v 0.00255171 -0.02036395 0.00531191
v 0.00501337 -0.02138435 0.00502905
v 0.00369435 -0.02036395 0.00523912
v 0.00471977 -0.02138435 0.00517360
v 0.00467485 -0.02126668 0.00515696
v 0.00425307 -0.02126668 0.00526096
v 0.00368559 -0.02069965 0.00528591
v 0.00311920 -0.02036395 0.00531087
v 0.00311920 -0.02069965 0.00531191
f 1 2 3
f 1 3 9
f 1 9 18
f 1 18 19
f 1 19 10
f 1 10 4
f 1 4 13
f 1 13 21
f 1 21 26
f 1 26 32
f 1 32 39
f 1 39 38
f 1 38 43
f 1 43 49
f 1 49 54
f 1 54 59
f 1 59 63
f 1 63 68
f 1 68 73
f 1 73 78
f 1 78 80
f 1 80 79
f 1 79 84
f 1 84 88
f 1 88 93
f 1 93 98
f 1 98 100
f 1 100 95
f 1 95 91
f 1 91 86
f 1 86 82
f 1 82 76
f 1 76 72
f 1 72 70
f 1 70 66
f 1 66 62
f 1 62 57
f 1 57 52
f 1 52 51
f 1 51 47
f 1 47 46
f 1 46 44
f 1 44 40
f 1 40 33
f 1 33 28
f 1 28 24
f 1 24 22
f 1 22 15
f 1 15 7
f 1 7 2
f 2 5 6
f 2 6 3
f 2 7 5
f 3 6 8
f 3 8 9
f 4 10 11
f 4 11 12
f 4 12 13
f 5 7 6
f 6 14 8
f 6 7 14
f 7 15 16
f 7 16 17
f 7 17 14
f 8 14 17
f 8 17 23
f 8 23 27
f 8 27 30
f 8 30 36
f 8 36 35
f 8 35 34
f 8 34 41
f 8 41 45
f 8 45 50
f 8 50 56
f 8 56 61
f 8 61 65
f 8 65 67
f 8 67 71
f 8 71 75
f 8 75 77
f 8 77 83
f 8 83 87
f 8 87 92
f 8 92 97
f 8 97 104
f 8 104 99
f 8 99 94
f 8 94 89
f 8 89 85
f 8 85 81
f 8 81 74
f 8 74 69
f 8 69 64
f 8 64 60
f 8 60 58
f 8 58 53
f 8 53 48
f 8 48 42
f 8 42 37
f 8 37 31
f 8 31 25
f 8 25 20
f 8 20 12
f 8 12 11
f 8 11 19
f 8 19 18
f 8 18 9
f 10 19 11
f 12 20 21
f 12 21 13
f 15 22 16
f 16 23 17
f 16 22 24
f 16 24 23
f 20 25 21
f 21 25 26
f 23 24 27
f 24 28 29
f 24 29 30
f 24 30 27
f 25 31 32
f 25 32 26
f 28 33 34
f 28 34 35
f 28 35 29
f 29 35 36
f 29 36 30
f 31 37 38
f 31 38 39
f 31 39 32
f 33 40 34
f 34 40 44
f 34 44 41
f 37 42 43
f 37 43 38
f 41 44 46
f 41 46 47
f 41 47 45
f 42 48 43
f 43 48 49
f 45 47 51
f 45 51 52
f 45 52 50
f 48 53 49
f 49 53 54
f 50 55 56
f 50 52 55
f 52 57 55
f 53 58 54
f 54 58 60
f 54 60 59
f 55 61 56
f 55 57 61
f 57 62 61
f 59 60 63
f 60 64 63
f 61 62 65
f 62 66 67
f 62 67 65
f 63 64 69
f 63 69 68
f 66 70 67
f 67 70 72
f 67 72 71
f 68 69 73
f 69 74 78
f 69 78 73
f 71 72 75
f 72 76 77
f 72 77 75
f 74 79 80
f 74 80 78
f 74 81 79
f 76 82 83
f 76 83 77
f 79 81 84
f 81 85 84
f 82 86 83
f 83 86 87
f 84 85 88
f 85 89 88
f 86 90 87
f 86 91 96
f 86 96 105
f 86 105 97
f 86 97 92
f 86 92 90
f 87 90 92
f 88 89 94
f 88 94 93
f 91 95 96
f 93 94 98
f 94 99 100
f 94 100 101
f 94 101 98
f 95 102 103
f 95 103 96
f 95 100 102
f 96 103 104
f 96 104 105
f 97 105 104
f 98 101 100
f 99 104 103
f 99 103 102
f 99 102 100

