# https://github.com/mikedh/trimesh
v 0.01096090 0.00391297 -0.00311872
v 0.01096090 0.00391365 -0.00368548
v 0.01276269 0.00490114 -0.00368548
v 0.01096090 0.00391297 0.00311872
v 0.01096090 0.00391433 -0.00380299
v 0.01276269 0.00490590 -0.00425327
v 0.01276269 0.00490114 0.00368860
v 0.01096090 0.00391365 0.00368548
v 0.01096090 0.00391840 -0.00425327
v 0.01276269 0.00500777 -0.00466404
v 0.01276269 0.00490590 0.00425327
v 0.01096090 0.00391840 0.00425327
v 0.01096090 0.00410925 -0.00472956
v 0.01276269 0.00526042 -0.00494690
v 0.01276269 0.00500777 0.00466404
v 0.01096090 0.00396391 0.00449453
v 0.01096090 0.00423693 -0.00485435
v 0.01276004 0.00554363 -0.00518816
v 0.01276269 0.00554295 -0.00518608
v 0.01096090 0.00410925 0.00472956
v 0.01276269 0.00526042 0.00494690
v 0.01096090 0.00435985 -0.00495834
v 0.01096090 0.00466615 -0.00517672
v 0.01096090 0.00481149 -0.00521936
v 0.01276269 0.00595316 -0.00529215
v 0.01096090 0.00419686 0.00482003
v 0.01096090 0.00452217 0.00511017
v 0.01276269 0.00554431 0.00518816
v 0.01096090 0.00538810 -0.00530983
v 0.01105880 0.00538810 -0.00530983
v 0.01219296 0.00595520 -0.00531191
v 0.01276004 0.00652229 -0.00531191
v 0.01276269 0.00651958 -0.00531087
v 0.01096090 0.00466615 0.00517672
v 0.01276269 0.00595520 0.00529215
v 0.01096090 0.00473339 0.00520168
v 0.01096090 0.00595520 -0.00531191
v 0.01276269 0.00708667 -0.00531191
v 0.01105880 0.00538810 0.00530983
v 0.01096090 0.00529030 0.00530567
v 0.01096090 0.00481149 0.00521936
v 0.01276269 0.00652229 0.00531191
v 0.01219296 0.00595520 0.00531191
v 0.01096090 0.01085124 -0.00531191
v 0.01276269 0.01084921 -0.00531191
v 0.01096090 0.00585740 0.00531191
v 0.01096090 0.00538810 0.00530983
v 0.01276269 0.01085124 0.00531191
v 0.01276004 0.01085124 -0.00531191
v 0.01096090 0.01085124 0.00531191
v 0.01276269 0.01085124 0.00517152
f 1 2 3
f 1 3 7
f 1 7 4
f 1 4 8
f 1 8 12
f 1 12 16
f 1 16 20
f 1 20 26
f 1 26 27
f 1 27 34
f 1 34 36
f 1 36 41
f 1 41 40
f 1 40 47
f 1 47 46
f 1 46 50
f 1 50 44
f 1 44 37
f 1 37 29
f 1 29 24
f 1 24 23
f 1 23 22
f 1 22 17
f 1 17 13
f 1 13 9
f 1 9 5
f 1 5 2
f 2 5 3
f 3 5 6
f 3 6 10
f 3 10 14
f 3 14 19
f 3 19 25
f 3 25 33
f 3 33 38
f 3 38 45
f 3 45 51
f 3 51 48
f 3 48 42
f 3 42 35
f 3 35 28
f 3 28 21
f 3 21 15
f 3 15 11
f 3 11 7
f 4 7 8
f 5 9 6
f 6 9 10
f 7 11 12
f 7 12 8
f 9 13 10
f 10 13 14
f 11 15 16
f 11 16 12
f 13 17 14
f 14 17 18
f 14 18 19
f 15 20 16
f 15 21 20
f 17 22 18
f 18 22 23
f 18 23 24
f 18 24 25
f 18 25 19
f 20 21 26
f 21 27 26
f 21 28 27
f 24 29 30
f 24 30 25
f 25 30 31
f 25 31 32
f 25 32 33
f 27 28 34
f 28 35 36
f 28 36 34
f 29 37 31
f 29 31 30
f 31 37 44
f 31 44 49
f 31 49 45
f 31 45 38
f 31 38 32
f 32 38 33
f 35 39 40
f 35 40 41
f 35 41 36
f 35 42 43
f 35 43 39
f 39 46 47
f 39 47 40
f 39 43 46
f 42 48 50
f 42 50 46
f 42 46 43
f 44 50 48
f 44 48 51
f 44 51 49
f 45 49 51

