# https://github.com/mikedh/trimesh
v -0.02106064 -0.00411015 0.00368548
v -0.02162568 -0.00084936 0.00368340
v -0.02106645 -0.00411015 0.00423143
v -0.02106064 -0.00411015 -0.00370212
v -0.02163308 -0.00084936 0.00425119
v -0.02162568 -0.00084936 -0.00368756
v -0.02106698 -0.00411015 0.00425327
v -0.02106698 -0.00411015 -0.00425327
v -0.02163308 -0.00085096 0.00425327
v -0.02190847 -0.00084936 0.00486891
v -0.02163308 -0.00085096 -0.00425327
v -0.02163361 -0.00084936 -0.00425431
v -0.02129955 -0.00411015 0.00480755
v -0.02107280 -0.00411015 -0.00427095
v -0.02211039 -0.00084936 0.00511017
v -0.02129955 -0.00411015 -0.00480755
v -0.02190847 -0.00084936 -0.00486891
v -0.02148191 -0.00411015 0.00499266
v -0.02232710 -0.00084936 0.00518920
v -0.02183447 -0.00411015 0.00520896
v -0.02166691 -0.00411015 0.00512369
v -0.02159291 -0.00403929 0.00507585
v -0.02136192 -0.00411015 -0.00487723
v -0.02196979 -0.00084936 -0.00494066
v -0.02235036 -0.00084936 0.00519648
v -0.02240163 -0.00368595 0.00530775
v -0.02240163 -0.00411015 0.00531087
v -0.02157494 -0.00411015 -0.00508833
v -0.02212096 -0.00111046 -0.00510185
v -0.02228111 -0.00084936 -0.00517152
v -0.02296879 -0.00084936 0.00531191
v -0.02296826 -0.00198502 0.00531191
v -0.02296826 -0.00411015 0.00531191
v -0.02183447 -0.00411015 -0.00520896
v -0.02235036 -0.00084936 -0.00519648
v -0.02466868 -0.00084936 0.00531191
v -0.02353595 -0.00411015 0.00531191
v -0.02194230 -0.00411015 -0.00523288
v -0.02240163 -0.00368595 -0.00530775
v -0.02296879 -0.00085096 -0.00531191
v -0.02297038 -0.00084936 -0.00531191
v -0.02466868 -0.00085096 0.00531191
v -0.02523584 -0.00084936 0.00527343
v -0.02410152 -0.00255189 0.00531191
v -0.02410152 -0.00311876 0.00530879
v -0.02410152 -0.00368595 0.00529943
v -0.02410152 -0.00411015 0.00528175
v -0.02240163 -0.00411015 -0.00531087
v -0.02254487 -0.00411015 -0.00531191
v -0.02410311 -0.00084936 -0.00531191
v -0.02523584 -0.00085096 0.00527343
v -0.02466868 -0.00141783 0.00530879
v -0.02565289 -0.00084936 0.00516944
v -0.02467027 -0.00198502 0.00529839
v -0.02466868 -0.00255189 0.00527447
v -0.02466868 -0.00311876 0.00523496
v -0.02456350 -0.00411015 0.00517360
v -0.02353595 -0.00411015 -0.00531191
v -0.02466868 -0.00085096 -0.00531191
v -0.02467027 -0.00084936 -0.00531087
v -0.02523584 -0.00141783 0.00523288
v -0.02556779 -0.00141783 0.00513201
v -0.02500380 -0.00311876 0.00513409
v -0.02508890 -0.00255189 0.00517048
v -0.02593620 -0.00084936 0.00498122
v -0.02496046 -0.00343029 0.00510913
v -0.02488751 -0.00380820 0.00506129
v -0.02483413 -0.00411015 0.00501241
v -0.02410152 -0.00255189 -0.00531191
v -0.02367867 -0.00411015 -0.00530775
v -0.02410152 -0.00311876 -0.00530879
v -0.02466868 -0.00141783 -0.00530879
v -0.02523743 -0.00084936 -0.00527344
v -0.02552550 -0.00172201 0.00510705
v -0.02620842 -0.00084936 0.00469836
v -0.02545203 -0.00210025 0.00505921
v -0.02501913 -0.00411015 0.00482107
v -0.02410152 -0.00411015 -0.00528175
v -0.02410152 -0.00368595 -0.00529839
v -0.02467027 -0.00198502 -0.00529735
v -0.02565395 -0.00084936 -0.00516944
v -0.02466868 -0.00255189 -0.00527448
v -0.02466868 -0.00311876 -0.00523600
v -0.02523584 -0.00141783 -0.00523392
v -0.02613653 -0.00129335 0.00460893
v -0.02557202 -0.00300226 0.00461205
v -0.02564496 -0.00255189 0.00470148
v -0.02639501 -0.00084936 0.00425327
v -0.02509471 -0.00411015 0.00473996
v -0.02424001 -0.00411015 -0.00525264
v -0.02593620 -0.00084936 -0.00498226
v -0.02508890 -0.00255189 -0.00517048
v -0.02500433 -0.00311876 -0.00513409
v -0.02556832 -0.00141783 -0.00513201
v -0.02593620 -0.00085096 -0.00498226
v -0.02456350 -0.00411015 -0.00517360
v -0.02607627 -0.00167126 0.00449453
v -0.02551229 -0.00337986 0.00450597
v -0.02645949 -0.00084936 0.00368548
v -0.02611750 -0.00179542 0.00411600
v -0.02532147 -0.00411015 0.00426263
v -0.02620948 -0.00084936 -0.00469940
v -0.02496046 -0.00343061 -0.00510913
v -0.02552603 -0.00172265 -0.00510809
v -0.02545097 -0.00210088 -0.00505921
v -0.02464173 -0.00411015 -0.00513617
v -0.02555299 -0.00350402 0.00412744
v -0.02608632 -0.00198502 0.00368548
v -0.02645949 -0.00084936 -0.00368548
v -0.02538701 -0.00411015 0.00368548
v -0.02639553 -0.00084936 -0.00425327
v -0.02483413 -0.00411015 -0.00501346
v -0.02564602 -0.00255189 -0.00470252
v -0.02557307 -0.00300226 -0.00461309
v -0.02613759 -0.00129367 -0.00460997
v -0.02488699 -0.00380884 -0.00506129
v -0.02608632 -0.00198502 -0.00368548
v -0.02611750 -0.00179542 -0.00411600
v -0.02607310 -0.00198502 -0.00386954
v -0.02538701 -0.00411015 -0.00368548
v -0.02607627 -0.00167158 -0.00449454
v -0.02619150 -0.00145677 -0.00428447
v -0.02509524 -0.00411015 -0.00474100
v -0.02551176 -0.00338050 -0.00450493
v -0.02555299 -0.00350402 -0.00412744
v -0.02534526 -0.00411015 -0.00405673
v -0.02517717 -0.00411015 -0.00460061
v -0.02532147 -0.00411015 -0.00426263
f 1 2 3
f 1 3 7
f 1 7 13
f 1 13 18
f 1 18 21
f 1 21 20
f 1 20 27
f 1 27 33
f 1 33 37
f 1 37 47
f 1 47 57
f 1 57 68
f 1 68 77
f 1 77 89
f 1 89 101
f 1 101 110
f 1 110 120
f 1 120 126
f 1 126 128
f 1 128 127
f 1 127 123
f 1 123 112
f 1 112 106
f 1 106 96
f 1 96 90
f 1 90 78
f 1 78 70
f 1 70 58
f 1 58 49
f 1 49 48
f 1 48 38
f 1 38 34
f 1 34 28
f 1 28 23
f 1 23 16
f 1 16 14
f 1 14 8
f 1 8 4
f 1 4 6
f 1 6 2
f 2 5 3
f 2 6 12
f 2 12 17
f 2 17 24
f 2 24 30
f 2 30 35
f 2 35 41
f 2 41 50
f 2 50 60
f 2 60 73
f 2 73 81
f 2 81 91
f 2 91 102
f 2 102 111
f 2 111 109
f 2 109 99
f 2 99 88
f 2 88 75
f 2 75 65
f 2 65 53
f 2 53 43
f 2 43 36
f 2 36 31
f 2 31 25
f 2 25 19
f 2 19 15
f 2 15 10
f 2 10 5
f 3 5 7
f 4 8 6
f 5 9 7
f 5 10 9
f 6 8 11
f 6 11 12
f 7 9 13
f 8 14 12
f 8 12 11
f 9 10 13
f 10 15 13
f 12 14 16
f 12 16 17
f 13 15 18
f 15 19 20
f 15 20 21
f 15 21 22
f 15 22 18
f 16 23 24
f 16 24 17
f 18 22 21
f 19 25 20
f 20 25 26
f 20 26 27
f 23 28 24
f 24 28 29
f 24 29 30
f 25 31 26
f 26 31 27
f 27 31 32
f 27 32 33
f 28 34 30
f 28 30 29
f 30 34 35
f 31 36 42
f 31 42 44
f 31 44 37
f 31 37 33
f 31 33 32
f 34 38 35
f 35 38 39
f 35 39 40
f 35 40 41
f 36 43 51
f 36 51 42
f 37 44 45
f 37 45 46
f 37 46 47
f 38 48 39
f 39 48 40
f 40 48 49
f 40 49 58
f 40 58 69
f 40 69 59
f 40 59 50
f 40 50 41
f 42 51 52
f 42 52 45
f 42 45 44
f 43 53 51
f 45 52 46
f 46 52 54
f 46 54 47
f 47 54 51
f 47 51 55
f 47 55 56
f 47 56 57
f 50 59 60
f 51 56 55
f 51 54 52
f 51 53 61
f 51 61 56
f 53 62 63
f 53 63 64
f 53 64 56
f 53 56 61
f 53 65 62
f 56 64 57
f 57 64 63
f 57 63 66
f 57 66 67
f 57 67 68
f 58 70 71
f 58 71 69
f 59 69 71
f 59 71 72
f 59 72 73
f 59 73 60
f 62 65 74
f 62 74 66
f 62 66 63
f 65 75 76
f 65 76 74
f 66 74 67
f 67 76 77
f 67 77 68
f 67 74 76
f 70 78 79
f 70 79 71
f 71 79 72
f 72 79 80
f 72 80 73
f 73 80 78
f 73 78 82
f 73 82 83
f 73 83 84
f 73 84 81
f 75 85 86
f 75 86 87
f 75 87 77
f 75 77 76
f 75 88 85
f 77 87 89
f 78 80 79
f 78 90 83
f 78 83 82
f 81 84 83
f 81 83 92
f 81 92 93
f 81 93 94
f 81 94 95
f 81 95 91
f 83 90 96
f 83 96 92
f 85 88 97
f 85 97 98
f 85 98 86
f 86 98 89
f 86 89 87
f 88 99 100
f 88 100 97
f 89 98 101
f 91 95 102
f 92 96 93
f 93 96 103
f 93 103 104
f 93 104 94
f 94 104 95
f 95 104 105
f 95 105 102
f 96 106 103
f 97 100 98
f 98 100 107
f 98 107 101
f 99 108 100
f 99 109 117
f 99 117 108
f 100 108 110
f 100 110 107
f 101 107 110
f 102 105 112
f 102 112 113
f 102 113 114
f 102 114 115
f 102 115 111
f 103 116 104
f 103 106 116
f 104 116 105
f 105 116 112
f 106 112 116
f 108 117 120
f 108 120 110
f 109 111 118
f 109 118 119
f 109 119 117
f 111 121 122
f 111 122 118
f 111 115 121
f 112 123 113
f 113 123 114
f 114 123 124
f 114 124 115
f 115 124 121
f 117 119 120
f 118 125 120
f 118 120 119
f 118 122 121
f 118 121 125
f 120 125 126
f 121 124 125
f 123 127 124
f 124 128 125
f 124 127 128
f 125 128 126

