# https://github.com/mikedh/trimesh
v -0.00349720 -0.01124709 -0.00531191
v -0.00311813 -0.01219286 -0.00531191
v -0.00368562 -0.01162586 -0.00531087
v -0.00368562 -0.01124709 -0.00531087
v 0.00368614 -0.01124709 -0.00531191
v -0.00255176 -0.01294112 -0.00531191
v -0.00406469 -0.01124709 -0.00530671
v -0.00293756 -0.01294112 -0.00530255
v 0.00426261 -0.01124709 -0.00528383
v 0.00368614 -0.01162586 -0.00531191
v 0.00255116 -0.01294112 -0.00531191
v -0.00425984 -0.01124709 -0.00527863
v -0.00311813 -0.01276002 -0.00529943
v -0.00313159 -0.01294112 -0.00527448
v 0.00311865 -0.01294112 -0.00529215
v 0.00311865 -0.01276002 -0.00530671
v 0.00477402 -0.01124709 -0.00520376
v -0.00466134 -0.01124709 -0.00522040
v -0.00346916 -0.01294112 -0.00520168
v 0.00361324 -0.01294112 -0.00517880
v 0.00500730 -0.01124709 -0.00509561
v 0.00504879 -0.01128805 -0.00506337
v -0.00475218 -0.01124709 -0.00519544
v -0.00354991 -0.01294112 -0.00517880
v 0.00386895 -0.01294112 -0.00499890
v 0.00514749 -0.01124709 -0.00501969
v -0.00504154 -0.01124709 -0.00505713
v -0.00371814 -0.01294112 -0.00507793
v 0.00413812 -0.01294112 -0.00472124
v 0.00539759 -0.01124709 -0.00481899
v -0.00508416 -0.01124709 -0.00502593
v -0.00383142 -0.01294112 -0.00497498
v -0.00536902 -0.01124709 -0.00479507
v -0.00528603 -0.01124709 -0.00486891
v 0.00431083 -0.01294112 -0.00425327
v 0.00527758 -0.01151160 -0.00468588
v 0.00575199 -0.01124709 -0.00425327
v -0.00402768 -0.01294112 -0.00477427
v -0.00525687 -0.01148938 -0.00467236
v -0.00566174 -0.01124709 -0.00430423
v -0.00410619 -0.01294112 -0.00468796
v 0.00431532 -0.01294112 -0.00368548
v 0.00575535 -0.01124709 -0.00405881
v 0.00575984 -0.01124709 -0.00368548
v -0.00568417 -0.01124709 -0.00425327
v -0.00421161 -0.01294112 -0.00444462
v 0.00431532 -0.01294112 0.00368548
v 0.00576096 -0.01124709 -0.00311872
v -0.00569314 -0.01124709 -0.00380403
v -0.00424974 -0.01294112 -0.00425847
v 0.00431420 -0.01294112 0.00383523
v 0.00576096 -0.01124709 0.00311872
v 0.00575984 -0.01124709 0.00368548
v -0.00569538 -0.01124709 -0.00368548
v -0.00425311 -0.01294112 -0.00368548
v 0.00431083 -0.01294112 0.00425327
v 0.00575759 -0.01124709 0.00387994
v -0.00569651 -0.01124709 -0.00311872
v -0.00425311 -0.01294112 0.00368548
v 0.00427943 -0.01294112 0.00438014
v 0.00575199 -0.01124709 0.00425327
v -0.00569651 -0.01124709 0.00311872
v -0.00425199 -0.01294112 0.00400889
v -0.00569538 -0.01124709 0.00368548
v 0.00413812 -0.01294112 0.00472124
v 0.00571161 -0.01124709 0.00433959
v -0.00424974 -0.01294112 0.00425847
v -0.00568641 -0.01124709 0.00414200
v 0.00406185 -0.01294112 0.00480547
v 0.00539759 -0.01124709 0.00481899
v -0.00410619 -0.01294112 0.00468796
v -0.00568417 -0.01124709 0.00425327
v 0.00386895 -0.01294112 0.00499890
v 0.00532693 -0.01124709 0.00488346
v 0.00382745 -0.01294112 0.00503841
v -0.00383142 -0.01294112 0.00497498
v -0.00536902 -0.01124709 0.00479507
v -0.00525687 -0.01148938 0.00467236
v 0.00514749 -0.01124709 0.00501969
v 0.00361324 -0.01294112 0.00517880
v 0.00507122 -0.01124709 0.00507585
v -0.00354991 -0.01294112 0.00517880
v -0.00508416 -0.01124709 0.00502593
v 0.00348203 -0.01294112 0.00521624
v 0.00477402 -0.01124709 0.00520376
v -0.00313159 -0.01294112 0.00527447
v -0.00475218 -0.01124709 0.00519544
v -0.00502920 -0.01127014 0.00505089
v -0.00500565 -0.01124709 0.00507065
v 0.00311865 -0.01294112 0.00529215
v 0.00468430 -0.01124709 0.00522664
v -0.00255176 -0.01294112 0.00531191
v -0.00311813 -0.01276002 0.00529943
v -0.00425984 -0.01124709 0.00527863
v 0.00426261 -0.01124709 0.00528383
v 0.00406410 -0.01124709 0.00530983
v 0.00311865 -0.01276002 0.00530671
v 0.00293809 -0.01294112 0.00530879
v -0.00311813 -0.01219286 0.00531191
v -0.00368562 -0.01162586 0.00531087
v 0.00255116 -0.01294112 0.00531191
v -0.00368562 -0.01124709 0.00531087
v 0.00368614 -0.01124709 0.00531191
v 0.00368614 -0.01162586 0.00531191
v -0.00311813 -0.01124709 0.00531191
f 1 2 3
f 1 3 4
f 1 4 7
f 1 7 12
f 1 12 18
f 1 18 23
f 1 23 27
f 1 27 31
f 1 31 34
f 1 34 33
f 1 33 40
f 1 40 45
f 1 45 49
f 1 49 54
f 1 54 58
f 1 58 62
f 1 62 64
f 1 64 68
f 1 68 72
f 1 72 77
f 1 77 83
f 1 83 89
f 1 89 87
f 1 87 94
f 1 94 102
f 1 102 105
f 1 105 103
f 1 103 96
f 1 96 95
f 1 95 91
f 1 91 85
f 1 85 81
f 1 81 79
f 1 79 74
f 1 74 70
f 1 70 66
f 1 66 61
f 1 61 57
f 1 57 53
f 1 53 52
f 1 52 48
f 1 48 44
f 1 44 43
f 1 43 37
f 1 37 30
f 1 30 26
f 1 26 21
f 1 21 17
f 1 17 9
f 1 9 5
f 1 5 10
f 1 10 11
f 1 11 6
f 1 6 2
f 2 6 3
f 3 7 4
f 3 6 8
f 3 8 7
f 5 9 10
f 6 11 15
f 6 15 20
f 6 20 25
f 6 25 29
f 6 29 35
f 6 35 42
f 6 42 47
f 6 47 51
f 6 51 56
f 6 56 60
f 6 60 65
f 6 65 69
f 6 69 73
f 6 73 75
f 6 75 80
f 6 80 84
f 6 84 90
f 6 90 98
f 6 98 101
f 6 101 92
f 6 92 86
f 6 86 82
f 6 82 76
f 6 76 71
f 6 71 67
f 6 67 63
f 6 63 59
f 6 59 55
f 6 55 50
f 6 50 46
f 6 46 41
f 6 41 38
f 6 38 32
f 6 32 28
f 6 28 24
f 6 24 19
f 6 19 14
f 6 14 8
f 7 8 13
f 7 13 12
f 8 14 13
f 9 15 16
f 9 16 10
f 9 17 15
f 10 16 11
f 11 16 15
f 12 13 18
f 13 14 18
f 14 19 18
f 15 17 20
f 17 21 22
f 17 22 20
f 18 19 23
f 19 24 23
f 20 22 26
f 20 26 25
f 21 26 22
f 23 24 27
f 24 28 27
f 25 26 30
f 25 30 29
f 27 28 31
f 28 32 33
f 28 33 34
f 28 34 31
f 29 30 36
f 29 36 37
f 29 37 35
f 30 37 36
f 32 38 33
f 33 39 40
f 33 38 41
f 33 41 39
f 35 37 43
f 35 43 44
f 35 44 42
f 39 41 40
f 40 41 45
f 41 46 45
f 42 44 48
f 42 48 52
f 42 52 47
f 45 46 50
f 45 50 49
f 47 52 53
f 47 53 51
f 49 50 54
f 50 55 54
f 51 53 56
f 53 57 56
f 54 55 58
f 55 59 62
f 55 62 58
f 56 57 61
f 56 61 60
f 59 63 64
f 59 64 62
f 60 61 65
f 61 66 65
f 63 67 64
f 64 67 68
f 65 66 70
f 65 70 69
f 67 71 72
f 67 72 68
f 69 70 73
f 70 74 75
f 70 75 73
f 71 76 77
f 71 77 78
f 71 78 72
f 72 78 77
f 74 79 75
f 75 79 81
f 75 81 80
f 76 82 83
f 76 83 77
f 80 81 85
f 80 85 84
f 82 86 87
f 82 87 88
f 82 88 83
f 83 88 89
f 84 85 91
f 84 91 90
f 86 92 93
f 86 93 87
f 87 89 88
f 87 93 94
f 90 95 96
f 90 96 97
f 90 97 98
f 90 91 95
f 92 99 100
f 92 100 93
f 92 101 104
f 92 104 103
f 92 103 105
f 92 105 99
f 93 100 94
f 94 100 102
f 96 103 104
f 96 104 98
f 96 98 97
f 98 104 101
f 99 105 102
f 99 102 100

