# https://github.com/mikedh/trimesh
v -0.00723564 0.00156574 -0.00531191
v -0.00708752 0.00005352 -0.00531191
v -0.00765532 0.00141772 -0.00531087
v -0.00765532 0.00156574 -0.00531087
v 0.00765599 0.00156574 -0.00531191
v -0.00742432 0.00005352 -0.00526616
v -0.00765532 0.00085063 -0.00528591
v 0.00708818 0.00005352 -0.00531191
v -0.00783518 0.00156574 -0.00528591
v 0.00823437 0.00156574 -0.00521312
v 0.00765599 0.00141772 -0.00531191
v -0.00766943 0.00005352 -0.00521416
v -0.00819315 0.00156574 -0.00521208
v 0.00765599 0.00085063 -0.00529735
v 0.00765599 0.00028370 -0.00525992
v 0.00767362 0.00005352 -0.00523600
v 0.00807919 0.00085063 -0.00519336
v 0.00840365 0.00156574 -0.00515280
v -0.00784576 0.00005352 -0.00515592
v -0.00805208 0.00085063 -0.00518192
v -0.00833774 0.00156574 -0.00515280
v 0.00800513 0.00028370 -0.00515592
v 0.00798045 0.00005352 -0.00513721
v 0.00864523 0.00156574 -0.00495314
v -0.00794627 0.00005352 -0.00511017
v -0.00847528 0.00156574 -0.00507585
v 0.00826611 0.00005352 -0.00482419
v 0.00878101 0.00156574 -0.00481795
v -0.00800799 0.00005352 -0.00504049
v -0.00873979 0.00156574 -0.00479611
v -0.00855993 0.00156574 -0.00499370
v 0.00854825 0.00040671 -0.00459749
v 0.00836662 0.00005352 -0.00460269
v 0.00888858 0.00156574 -0.00469420
v -0.00820373 0.00005352 -0.00481691
v -0.00886146 0.00156574 -0.00452677
v -0.00852642 0.00048857 -0.00456837
v 0.00849887 0.00005352 -0.00425327
v 0.00903317 0.00156574 -0.00425327
v -0.00843649 0.00005352 -0.00425327
v -0.00896903 0.00156574 -0.00425327
v 0.00850240 0.00005352 -0.00368548
v 0.00903670 0.00156574 -0.00368548
v -0.00844531 0.00005352 -0.00368548
v -0.00897255 0.00156574 -0.00398809
v 0.00850240 0.00005352 0.00372395
v 0.00903846 0.00156574 -0.00311872
v -0.00844531 0.00005352 0.00368548
v -0.00897608 0.00156574 -0.00311872
v -0.00897432 0.00156574 -0.00368548
v 0.00849887 0.00005352 0.00425327
v 0.00903846 0.00156574 0.00347125
v 0.00903494 0.00156574 0.00403385
v -0.00844178 0.00005352 0.00411496
v -0.00897255 0.00156574 0.00394754
v -0.00897432 0.00156574 0.00368548
v -0.00897608 0.00156574 0.00311872
v 0.00849711 0.00005352 0.00426679
v 0.00903317 0.00156574 0.00425327
v 0.00902788 0.00156574 0.00442486
v -0.00843649 0.00005352 0.00425327
v -0.00896903 0.00156574 0.00425327
v 0.00854825 0.00040671 0.00459749
v 0.00826611 0.00005352 0.00482419
v 0.00888858 0.00156574 0.00469420
v -0.00831834 0.00005352 0.00456213
v -0.00852642 0.00048857 0.00456837
v -0.00873979 0.00156574 0.00479611
v 0.00814620 0.00005352 0.00495834
v 0.00882510 0.00156574 0.00477115
v -0.00820373 0.00005352 0.00481691
v -0.00794627 0.00005352 0.00511017
v -0.00847528 0.00156574 0.00507585
v 0.00798045 0.00005352 0.00513721
v 0.00878101 0.00156574 0.00481795
v -0.00766943 0.00005352 0.00521416
v -0.00805208 0.00085063 0.00518192
v -0.00819315 0.00156574 0.00521208
v 0.00832078 0.00156574 0.00519024
v 0.00800513 0.00028370 0.00515592
v 0.00788875 0.00005352 0.00517152
v 0.00850593 0.00156574 0.00510289
v 0.00840365 0.00156574 0.00515280
v -0.00765532 0.00085063 0.00528591
v -0.00708752 0.00005352 0.00531191
v -0.00765532 0.00141772 0.00531087
v -0.00765532 0.00156574 0.00531087
v 0.00823437 0.00156574 0.00521312
v 0.00765599 0.00028370 0.00525992
v 0.00767362 0.00005352 0.00523600
v 0.00807919 0.00085063 0.00519336
v -0.00708752 0.00156574 0.00531191
v 0.00708818 0.00005352 0.00531191
v 0.00780235 0.00156574 0.00530047
v 0.00765599 0.00085063 0.00529735
v 0.00742499 0.00005352 0.00528071
v 0.00765599 0.00156574 0.00531191
v 0.00765599 0.00141772 0.00531191
f 1 2 3
f 1 3 4
f 1 4 9
f 1 9 13
f 1 13 21
f 1 21 26
f 1 26 31
f 1 31 30
f 1 30 36
f 1 36 41
f 1 41 45
f 1 45 50
f 1 50 49
f 1 49 57
f 1 57 56
f 1 56 55
f 1 55 62
f 1 62 68
f 1 68 73
f 1 73 78
f 1 78 87
f 1 87 92
f 1 92 97
f 1 97 94
f 1 94 88
f 1 88 79
f 1 79 83
f 1 83 82
f 1 82 75
f 1 75 70
f 1 70 65
f 1 65 60
f 1 60 59
f 1 59 53
f 1 53 52
f 1 52 47
f 1 47 43
f 1 43 39
f 1 39 34
f 1 34 28
f 1 28 24
f 1 24 18
f 1 18 10
f 1 10 5
f 1 5 11
f 1 11 8
f 1 8 2
f 2 6 7
f 2 7 3
f 2 8 16
f 2 16 23
f 2 23 27
f 2 27 33
f 2 33 38
f 2 38 42
f 2 42 46
f 2 46 51
f 2 51 58
f 2 58 64
f 2 64 69
f 2 69 74
f 2 74 81
f 2 81 90
f 2 90 96
f 2 96 93
f 2 93 85
f 2 85 76
f 2 76 72
f 2 72 71
f 2 71 66
f 2 66 61
f 2 61 54
f 2 54 48
f 2 48 44
f 2 44 40
f 2 40 35
f 2 35 29
f 2 29 25
f 2 25 19
f 2 19 12
f 2 12 6
f 3 9 4
f 3 7 9
f 5 10 11
f 6 12 7
f 7 12 13
f 7 13 9
f 8 11 14
f 8 14 15
f 8 15 16
f 10 17 16
f 10 16 15
f 10 15 14
f 10 14 11
f 10 18 17
f 12 19 20
f 12 20 13
f 13 20 21
f 16 17 22
f 16 22 23
f 17 18 22
f 18 23 22
f 18 24 23
f 19 25 20
f 20 25 21
f 21 25 26
f 23 24 28
f 23 28 27
f 25 29 30
f 25 30 31
f 25 31 26
f 27 32 33
f 27 28 34
f 27 34 32
f 29 35 30
f 30 35 37
f 30 37 36
f 32 38 33
f 32 34 39
f 32 39 38
f 35 40 37
f 36 37 41
f 37 40 41
f 38 39 43
f 38 43 42
f 40 44 41
f 41 44 45
f 42 43 47
f 42 47 52
f 42 52 46
f 44 48 57
f 44 57 49
f 44 49 50
f 44 50 45
f 46 52 53
f 46 53 51
f 48 54 55
f 48 55 56
f 48 56 57
f 51 53 59
f 51 59 60
f 51 60 58
f 54 61 62
f 54 62 55
f 58 63 64
f 58 60 63
f 60 65 63
f 61 66 67
f 61 67 62
f 62 67 68
f 63 65 64
f 64 65 70
f 64 70 69
f 66 71 67
f 67 71 68
f 68 71 72
f 68 72 73
f 69 70 74
f 70 75 74
f 72 76 77
f 72 77 73
f 73 77 78
f 74 79 80
f 74 80 81
f 74 75 82
f 74 82 83
f 74 83 79
f 76 84 78
f 76 78 77
f 76 85 84
f 78 84 86
f 78 86 87
f 79 88 89
f 79 89 90
f 79 90 91
f 79 91 81
f 79 81 80
f 81 91 90
f 84 85 86
f 85 92 87
f 85 87 86
f 85 93 98
f 85 98 97
f 85 97 92
f 88 94 95
f 88 95 89
f 89 95 96
f 89 96 90
f 93 96 95
f 93 95 98
f 94 97 98
f 94 98 95

