# https://github.com/mikedh/trimesh
v -0.00481947 -0.02276981 -0.00531191
v -0.00538725 -0.02276981 -0.00529423
v -0.00481947 -0.02240102 -0.00531191
v 0.00518864 -0.02276981 -0.00531191
v -0.00593447 -0.02276981 -0.00525056
v -0.00538725 -0.02240102 -0.00526200
v -0.00483212 -0.02220712 -0.00528487
v -0.00425169 -0.02220712 -0.00531191
v 0.00482013 -0.02240102 -0.00531191
v 0.00575642 -0.02276981 -0.00528903
v -0.00643899 -0.02276981 -0.00517880
v -0.00538725 -0.02220712 -0.00521312
v 0.00462560 -0.02220712 -0.00531191
v 0.00634950 -0.02276981 -0.00520792
v 0.00538633 -0.02240102 -0.00527032
v 0.00522501 -0.02220712 -0.00525680
v -0.00635516 -0.02261822 -0.00514865
v -0.00689764 -0.02276981 -0.00502801
v -0.00574784 -0.02220712 -0.00512785
v 0.00646179 -0.02276981 -0.00518712
v 0.00567418 -0.02220712 -0.00517672
v -0.00759511 -0.02276981 -0.00471188
v -0.00603885 -0.02220712 -0.00497290
v 0.00637639 -0.02260500 -0.00515592
v 0.00679866 -0.02276981 -0.00509457
v 0.00577540 -0.02220712 -0.00514241
v -0.00802529 -0.02276981 -0.00425327
v -0.00750021 -0.02263590 -0.00460373
v -0.00642950 -0.02220712 -0.00471604
v 0.00696631 -0.02276981 -0.00503009
v 0.00602054 -0.02220712 -0.00502385
v 0.00751037 -0.02276981 -0.00478363
v 0.00705330 -0.02276981 -0.00499266
v -0.00803794 -0.02276981 -0.00396834
v -0.00669994 -0.02220712 -0.00422416
v -0.00669836 -0.02220712 -0.00425327
v 0.00632736 -0.02220712 -0.00483251
v 0.00752144 -0.02262653 -0.00461517
v 0.00761949 -0.02276981 -0.00472956
v -0.00804585 -0.02276981 -0.00368548
v -0.00671734 -0.02220712 -0.00368548
v 0.00645705 -0.02220712 -0.00473892
v 0.00676862 -0.02220712 -0.00425327
v 0.00808447 -0.02276981 -0.00425327
v -0.00804585 -0.02276981 0.00368548
v -0.00671734 -0.02220712 0.00368548
v 0.00678127 -0.02220712 -0.00368548
v 0.00810820 -0.02276981 -0.00368548
v -0.00802529 -0.02276981 0.00425327
v -0.00669836 -0.02220712 0.00425327
v 0.00678127 -0.02220712 0.00368548
v 0.00810820 -0.02276981 0.00368548
v -0.00759511 -0.02276981 0.00471188
v -0.00750021 -0.02263590 0.00460373
v -0.00642950 -0.02220712 0.00471604
v 0.00676862 -0.02220712 0.00425327
v 0.00810345 -0.02276981 0.00388410
v -0.00747649 -0.02276981 0.00476803
v -0.00574784 -0.02220712 0.00512785
v -0.00595819 -0.02220712 0.00502281
v -0.00603885 -0.02220712 0.00497290
v -0.00628716 -0.02220712 0.00481587
v 0.00752144 -0.02262653 0.00461517
v 0.00808447 -0.02276981 0.00425327
v 0.00645705 -0.02220712 0.00473892
v -0.00703207 -0.02276981 0.00496978
v -0.00564504 -0.02220712 0.00516632
v -0.00689764 -0.02276981 0.00502801
v -0.00635516 -0.02261822 0.00514864
v 0.00761949 -0.02276981 0.00472956
v 0.00606640 -0.02220712 0.00499474
v -0.00643899 -0.02276981 0.00517880
v -0.00521802 -0.02220712 0.00525160
v -0.00676795 -0.02276981 0.00507897
v 0.00696631 -0.02276981 0.00503009
v 0.00577540 -0.02220712 0.00514240
v -0.00632828 -0.02276981 0.00520064
v -0.00462494 -0.02220712 0.00531191
v -0.00575575 -0.02276981 0.00528279
v 0.00646179 -0.02276981 0.00518712
v 0.00637639 -0.02260500 0.00515592
v 0.00538633 -0.02220712 0.00522456
v 0.00591457 -0.02241000 0.00518504
v -0.00481947 -0.02240102 0.00531191
v 0.00425235 -0.02220712 0.00531191
v -0.00518797 -0.02276981 0.00531191
v 0.00538633 -0.02240102 0.00527032
v 0.00593988 -0.02276981 0.00525888
v 0.00483595 -0.02220712 0.00528487
v 0.00482013 -0.02240102 0.00531191
v 0.00482013 -0.02276981 0.00531191
v 0.00538633 -0.02276981 0.00529735
f 1 2 3
f 1 3 8
f 1 8 13
f 1 13 9
f 1 9 4
f 1 4 10
f 1 10 14
f 1 14 20
f 1 20 25
f 1 25 30
f 1 30 33
f 1 33 32
f 1 32 39
f 1 39 44
f 1 44 48
f 1 48 52
f 1 52 57
f 1 57 64
f 1 64 70
f 1 70 75
f 1 75 80
f 1 80 88
f 1 88 92
f 1 92 91
f 1 91 86
f 1 86 79
f 1 79 77
f 1 77 72
f 1 72 74
f 1 74 68
f 1 68 66
f 1 66 58
f 1 58 53
f 1 53 49
f 1 49 45
f 1 45 40
f 1 40 34
f 1 34 27
f 1 27 22
f 1 22 18
f 1 18 11
f 1 11 5
f 1 5 2
f 2 5 3
f 3 5 6
f 3 6 7
f 3 7 8
f 4 9 10
f 5 11 6
f 6 12 7
f 6 11 12
f 7 12 19
f 7 19 23
f 7 23 29
f 7 29 36
f 7 36 35
f 7 35 41
f 7 41 46
f 7 46 50
f 7 50 55
f 7 55 62
f 7 62 61
f 7 61 60
f 7 60 59
f 7 59 67
f 7 67 73
f 7 73 78
f 7 78 85
f 7 85 89
f 7 89 82
f 7 82 76
f 7 76 71
f 7 71 65
f 7 65 56
f 7 56 51
f 7 51 47
f 7 47 43
f 7 43 42
f 7 42 37
f 7 37 31
f 7 31 26
f 7 26 21
f 7 21 16
f 7 16 13
f 7 13 8
f 9 13 10
f 10 13 15
f 10 15 16
f 10 16 14
f 11 17 12
f 11 18 17
f 12 17 19
f 13 16 15
f 14 16 21
f 14 21 20
f 17 18 19
f 18 22 19
f 19 22 23
f 20 21 24
f 20 24 25
f 21 26 24
f 22 27 28
f 22 28 23
f 23 28 29
f 24 26 30
f 24 30 25
f 26 31 32
f 26 32 33
f 26 33 30
f 27 34 35
f 27 35 36
f 27 36 29
f 27 29 28
f 31 37 38
f 31 38 39
f 31 39 32
f 34 40 41
f 34 41 35
f 37 42 38
f 38 43 44
f 38 44 39
f 38 42 43
f 40 45 46
f 40 46 41
f 43 47 48
f 43 48 44
f 45 49 50
f 45 50 46
f 47 51 52
f 47 52 48
f 49 53 54
f 49 54 55
f 49 55 50
f 51 56 52
f 52 56 57
f 53 58 59
f 53 59 60
f 53 60 54
f 54 60 61
f 54 61 62
f 54 62 55
f 56 63 64
f 56 64 57
f 56 65 63
f 58 66 59
f 59 66 68
f 59 68 69
f 59 69 67
f 63 70 64
f 63 65 71
f 63 71 70
f 67 69 72
f 67 72 73
f 68 74 69
f 69 74 72
f 70 71 76
f 70 76 75
f 72 77 73
f 73 77 79
f 73 79 78
f 75 76 81
f 75 81 80
f 76 82 83
f 76 83 81
f 78 79 84
f 78 84 86
f 78 86 91
f 78 91 90
f 78 90 85
f 79 86 84
f 80 81 82
f 80 82 87
f 80 87 88
f 81 83 82
f 82 89 87
f 85 90 89
f 87 89 90
f 87 90 88
f 88 90 92
f 90 91 92

