# https://github.com/mikedh/trimesh
v 0.00363664 -0.01446199 0.00311872
v 0.00336140 -0.01672709 0.00368340
v 0.00363664 -0.01446199 -0.00311872
v 0.00363594 -0.01446199 0.00368548
v 0.00335716 -0.01672709 0.00425015
v 0.00336140 -0.01672709 -0.00368860
v 0.00363594 -0.01446199 -0.00368548
v 0.00363100 -0.01446199 0.00425327
v 0.00351455 -0.01446199 0.00468692
v 0.00312002 -0.01672709 0.00481691
v 0.00335575 -0.01672709 -0.00425535
v 0.00363100 -0.01446199 -0.00425327
v 0.00326400 -0.01446199 0.00497082
v 0.00286171 -0.01672709 0.00512473
v 0.00311791 -0.01672709 -0.00482107
v 0.00351455 -0.01446199 -0.00468692
v 0.00298028 -0.01446199 0.00519752
v 0.00255188 -0.01672709 0.00522976
v 0.00285889 -0.01672709 -0.00512577
v 0.00326400 -0.01446199 -0.00497082
v 0.00255188 -0.01446199 0.00530151
v 0.00198374 -0.01672709 0.00531191
v 0.00254906 -0.01672709 -0.00522976
v 0.00298028 -0.01446199 -0.00519752
v 0.00198444 -0.01446199 0.00531191
v 0.00198444 -0.01559365 0.00531191
v -0.00198409 -0.01672709 0.00531191
v 0.00198162 -0.01672709 -0.00531191
v 0.00255188 -0.01446199 -0.00530151
v -0.00198409 -0.01446199 0.00531191
v -0.00255153 -0.01446199 0.00529007
v -0.00259246 -0.01672709 0.00518920
v -0.00142018 -0.01672709 -0.00531191
v 0.00198374 -0.01616259 -0.00531191
v 0.00198444 -0.01502849 -0.00531191
v 0.00198444 -0.01446199 -0.00531191
v -0.00295311 -0.01446199 0.00518608
v -0.00282325 -0.01672709 0.00509665
v -0.00198409 -0.01616259 -0.00531191
v -0.00198691 -0.01672709 -0.00531087
v -0.00198409 -0.01446199 -0.00531191
v -0.00323683 -0.01446199 0.00493338
v -0.00348455 -0.01446199 0.00464948
v -0.00299757 -0.01672709 0.00488970
v -0.00255153 -0.01446199 -0.00529007
v -0.00259246 -0.01672709 -0.00518920
v -0.00356995 -0.01446199 0.00425327
v -0.00329046 -0.01672709 0.00425327
v -0.00301733 -0.01672709 0.00486579
v -0.00295311 -0.01446199 -0.00518608
v -0.00267221 -0.01672709 -0.00515592
v -0.00357277 -0.01446199 0.00368548
v -0.00329823 -0.01672709 0.00368548
v -0.00323683 -0.01446199 -0.00493338
v -0.00281901 -0.01662266 -0.00509457
v -0.00294887 -0.01672709 -0.00494586
v -0.00357348 -0.01446199 0.00311872
v -0.00329823 -0.01672709 -0.00368548
v -0.00348455 -0.01446199 -0.00464948
v -0.00301733 -0.01672709 -0.00486579
v -0.00357348 -0.01446199 -0.00311872
v -0.00357277 -0.01446199 -0.00368548
v -0.00356995 -0.01446199 -0.00425327
v -0.00329046 -0.01672709 -0.00425327
f 1 2 6
f 1 6 3
f 1 3 7
f 1 7 12
f 1 12 16
f 1 16 20
f 1 20 24
f 1 24 29
f 1 29 36
f 1 36 41
f 1 41 45
f 1 45 50
f 1 50 54
f 1 54 59
f 1 59 63
f 1 63 62
f 1 62 61
f 1 61 57
f 1 57 52
f 1 52 47
f 1 47 43
f 1 43 42
f 1 42 37
f 1 37 31
f 1 31 30
f 1 30 25
f 1 25 21
f 1 21 17
f 1 17 13
f 1 13 9
f 1 9 8
f 1 8 4
f 1 4 2
f 2 4 5
f 2 5 10
f 2 10 14
f 2 14 18
f 2 18 22
f 2 22 27
f 2 27 32
f 2 32 38
f 2 38 44
f 2 44 49
f 2 49 48
f 2 48 53
f 2 53 58
f 2 58 64
f 2 64 60
f 2 60 56
f 2 56 51
f 2 51 46
f 2 46 40
f 2 40 33
f 2 33 28
f 2 28 23
f 2 23 19
f 2 19 15
f 2 15 11
f 2 11 6
f 3 6 7
f 4 8 5
f 5 8 9
f 5 9 10
f 6 11 12
f 6 12 7
f 9 13 14
f 9 14 10
f 11 15 16
f 11 16 12
f 13 17 14
f 14 17 18
f 15 19 16
f 16 19 20
f 17 21 18
f 18 21 22
f 19 23 24
f 19 24 20
f 21 25 26
f 21 26 22
f 22 26 25
f 22 25 30
f 22 30 27
f 23 28 29
f 23 29 24
f 27 30 31
f 27 31 32
f 28 33 39
f 28 39 41
f 28 41 36
f 28 36 35
f 28 35 34
f 28 34 29
f 29 34 35
f 29 35 36
f 31 37 32
f 32 37 38
f 33 40 39
f 37 42 38
f 38 42 43
f 38 43 44
f 39 40 45
f 39 45 41
f 40 46 45
f 43 47 48
f 43 48 49
f 43 49 44
f 45 46 50
f 46 51 50
f 47 52 53
f 47 53 48
f 50 51 55
f 50 55 54
f 51 56 55
f 52 57 53
f 53 57 61
f 53 61 58
f 54 55 56
f 54 56 59
f 56 60 59
f 58 61 62
f 58 62 63
f 58 63 64
f 59 60 64
f 59 64 63

