# https://github.com/mikedh/trimesh
v -0.00708756 -0.00411015 -0.00531191
v -0.00765477 -0.00411015 -0.00530567
v -0.00708756 -0.00198708 -0.00531191
v 0.00751160 -0.00411015 -0.00531191
v -0.00818184 -0.00411015 -0.00519128
v -0.00765477 -0.00368616 -0.00529007
v -0.00758496 -0.00198708 -0.00520688
v 0.00708750 -0.00198708 -0.00531191
v 0.00765472 -0.00411015 -0.00530879
v -0.00786769 -0.00198708 -0.00505401
v -0.00842618 -0.00411015 -0.00503425
v 0.00762679 -0.00198708 -0.00520792
v 0.00765472 -0.00368616 -0.00530047
v 0.00808580 -0.00411015 -0.00522872
v -0.00811901 -0.00198708 -0.00477011
v -0.00843839 -0.00411015 -0.00502177
v -0.00866004 -0.00411015 -0.00478467
v 0.00790953 -0.00198708 -0.00508625
v 0.00820273 -0.00411015 -0.00520064
v -0.00830750 -0.00198708 -0.00425327
v -0.00888169 -0.00411015 -0.00428551
v 0.00815037 -0.00198708 -0.00480235
v 0.00872980 -0.00411015 -0.00477843
v 0.00865301 -0.00411015 -0.00486267
v 0.00845230 -0.00411015 -0.00506337
v -0.00831622 -0.00198708 -0.00368548
v -0.00888344 -0.00411015 -0.00410561
v 0.00837202 -0.00198708 -0.00425327
v 0.00891829 -0.00411015 -0.00432087
v -0.00831622 -0.00198708 0.00368548
v -0.00888518 -0.00411015 -0.00311872
v 0.00837900 -0.00198708 -0.00368548
v 0.00893749 -0.00411015 -0.00425327
v -0.00830750 -0.00198708 0.00425327
v -0.00888518 -0.00411015 0.00311872
v -0.00888344 -0.00411015 0.00382379
v -0.00888169 -0.00411015 0.00428551
v 0.00837900 -0.00198708 0.00368548
v 0.00894447 -0.00411015 -0.00311872
v 0.00894272 -0.00411015 -0.00376763
v -0.00811901 -0.00198708 0.00477011
v -0.00885028 -0.00411015 0.00441550
v 0.00837202 -0.00198708 0.00425327
v 0.00893749 -0.00411015 0.00425327
v 0.00894272 -0.00411015 0.00368548
v 0.00894447 -0.00411015 0.00311872
v -0.00786769 -0.00198708 0.00505401
v -0.00866004 -0.00411015 0.00478467
v 0.00815037 -0.00198708 0.00480235
v 0.00872980 -0.00411015 0.00477843
v -0.00758496 -0.00198708 0.00520688
v -0.00858325 -0.00411015 0.00486995
v -0.00842618 -0.00411015 0.00503425
v -0.00841396 -0.00411015 0.00504465
v -0.00818184 -0.00411015 0.00519128
v 0.00790953 -0.00198708 0.00508625
v 0.00848895 -0.00411015 0.00502489
v -0.00805967 -0.00411015 0.00522248
v -0.00765477 -0.00368616 0.00529007
v -0.00708756 -0.00198708 0.00531191
v 0.00820273 -0.00411015 0.00520064
v 0.00841565 -0.00411015 0.00508001
v 0.00844532 -0.00408272 0.00505817
v 0.00762679 -0.00198708 0.00520792
v -0.00765477 -0.00411015 0.00530567
v -0.00751166 -0.00411015 0.00531087
v -0.00708756 -0.00411015 0.00531191
v 0.00708750 -0.00198708 0.00531191
v 0.00765472 -0.00368616 0.00530047
v 0.00765472 -0.00411015 0.00530879
v 0.00708750 -0.00411015 0.00531191
f 1 2 3
f 1 3 8
f 1 8 4
f 1 4 9
f 1 9 14
f 1 14 19
f 1 19 25
f 1 25 24
f 1 24 23
f 1 23 29
f 1 29 33
f 1 33 40
f 1 40 39
f 1 39 46
f 1 46 45
f 1 45 44
f 1 44 50
f 1 50 57
f 1 57 62
f 1 62 61
f 1 61 70
f 1 70 71
f 1 71 67
f 1 67 66
f 1 66 65
f 1 65 58
f 1 58 55
f 1 55 54
f 1 54 53
f 1 53 52
f 1 52 48
f 1 48 42
f 1 42 37
f 1 37 36
f 1 36 35
f 1 35 31
f 1 31 27
f 1 27 21
f 1 21 17
f 1 17 16
f 1 16 11
f 1 11 5
f 1 5 2
f 2 5 6
f 2 6 3
f 3 6 7
f 3 7 10
f 3 10 15
f 3 15 20
f 3 20 26
f 3 26 30
f 3 30 34
f 3 34 41
f 3 41 47
f 3 47 51
f 3 51 60
f 3 60 68
f 3 68 64
f 3 64 56
f 3 56 49
f 3 49 43
f 3 43 38
f 3 38 32
f 3 32 28
f 3 28 22
f 3 22 18
f 3 18 12
f 3 12 8
f 4 8 9
f 5 10 7
f 5 7 6
f 5 11 10
f 8 12 13
f 8 13 9
f 9 13 14
f 10 11 16
f 10 16 17
f 10 17 15
f 12 18 19
f 12 19 14
f 12 14 13
f 15 17 21
f 15 21 20
f 18 22 23
f 18 23 24
f 18 24 25
f 18 25 19
f 20 21 26
f 21 27 26
f 22 28 29
f 22 29 23
f 26 27 31
f 26 31 35
f 26 35 30
f 28 32 33
f 28 33 29
f 30 35 36
f 30 36 37
f 30 37 34
f 32 38 46
f 32 46 39
f 32 39 40
f 32 40 33
f 34 37 42
f 34 42 41
f 38 43 44
f 38 44 45
f 38 45 46
f 41 42 48
f 41 48 47
f 43 49 50
f 43 50 44
f 47 48 52
f 47 52 53
f 47 53 54
f 47 54 55
f 47 55 51
f 49 56 50
f 50 56 57
f 51 55 58
f 51 58 59
f 51 59 60
f 56 61 62
f 56 62 63
f 56 63 57
f 56 64 61
f 57 63 62
f 58 65 59
f 59 65 60
f 60 65 66
f 60 66 67
f 60 67 71
f 60 71 68
f 61 69 70
f 61 64 69
f 64 68 69
f 68 71 70
f 68 70 69

