# https://github.com/mikedh/trimesh
v -0.01672870 0.01326147 -0.00531191
v -0.01729672 0.01326147 -0.00530255
v -0.01672870 0.01332733 -0.00531191
v -0.00822418 0.01326147 -0.00531191
v -0.01786342 0.01326147 -0.00526096
v -0.01729672 0.01332733 -0.00530151
v -0.01616199 0.01389434 -0.00530983
v -0.01389386 0.01559537 -0.00530983
v -0.01502727 0.01446160 -0.00531191
v -0.00765615 0.01559537 -0.00531191
v -0.00765615 0.01502836 -0.00531087
v -0.00815828 0.01326147 -0.00531087
v -0.01786342 0.01332733 -0.00525472
v -0.01839586 0.01326147 -0.00517880
v -0.01672870 0.01389434 -0.00529111
v -0.01502727 0.01502836 -0.00529943
v -0.01559529 0.01446160 -0.00530671
v -0.01446056 0.01559537 -0.00528695
v -0.01389386 0.01576234 -0.00529735
v -0.01332583 0.01576234 -0.00530983
v -0.01276045 0.01576234 -0.00531191
v -0.01332583 0.01559537 -0.00531191
v -0.00765615 0.01576234 -0.00531191
v -0.00707100 0.01576234 -0.00521104
v -0.00765615 0.01326147 -0.00530151
v -0.01839191 0.01331117 -0.00516840
v -0.01671947 0.01446625 -0.00518608
v -0.01559529 0.01502836 -0.00524640
v -0.01616199 0.01446160 -0.00527344
v -0.01849602 0.01326147 -0.00516008
v -0.01445397 0.01576234 -0.00525576
v -0.00688122 0.01576234 -0.00514137
v -0.00724365 0.01326147 -0.00519752
v -0.01716097 0.01428043 -0.00514761
v -0.01611455 0.01500437 -0.00516112
v -0.01504835 0.01562255 -0.00520064
v -0.01894543 0.01326147 -0.00494586
v -0.01855533 0.01348940 -0.00501761
v -0.01817709 0.01363214 -0.00511537
v -0.01652442 0.01479945 -0.00513097
v -0.01497718 0.01576234 -0.00517776
v -0.00673625 0.01576234 -0.00503009
v -0.00721070 0.01326147 -0.00517048
v -0.01559529 0.01542448 -0.00514761
v -0.01904955 0.01326147 -0.00489386
v -0.01753922 0.01414504 -0.00508729
v -0.01883604 0.01369995 -0.00463908
v -0.01627138 0.01517746 -0.00500410
v -0.01690266 0.01465843 -0.00505089
v -0.01589314 0.01532215 -0.00510913
v -0.01518410 0.01576234 -0.00511745
v -0.00696029 0.01326147 -0.00494170
v -0.00656228 0.01576234 -0.00484291
v -0.01923537 0.01326147 -0.00476907
v -0.01956485 0.01326147 -0.00440510
v -0.01820081 0.01421702 -0.00458605
v -0.01654946 0.01538776 -0.00462660
v -0.01718733 0.01487094 -0.00467236
v -0.01559529 0.01576234 -0.00491882
v -0.01559529 0.01570799 -0.00496770
v -0.01544109 0.01576234 -0.00501761
v -0.00693262 0.01326147 -0.00490946
v -0.00637382 0.01576234 -0.00443214
v -0.00672307 0.01326147 -0.00465884
v -0.01965974 0.01326147 -0.00425327
v -0.01756557 0.01473384 -0.00449765
v -0.01624238 0.01576234 -0.00425327
v -0.01598407 0.01576234 -0.00465572
v -0.00630134 0.01576234 -0.00425327
v -0.00670989 0.01326147 -0.00460789
v -0.01975859 0.01326147 -0.00368548
v -0.01763015 0.01478182 -0.00411912
v -0.01628719 0.01576234 -0.00399641
v -0.00629738 0.01576234 -0.00398601
v -0.00663740 0.01326147 -0.00425327
v -0.01975859 0.01326147 0.00368548
v -0.01928150 0.01361084 -0.00368548
v -0.01861068 0.01410195 -0.00368548
v -0.01729672 0.01506337 -0.00368548
v -0.01634123 0.01576234 -0.00368548
v -0.00629606 0.01576234 -0.00368548
v -0.00663609 0.01326147 -0.00368548
v -0.00629475 0.01576234 -0.00311872
v -0.01971510 0.01326147 0.00393714
v -0.01763015 0.01478182 0.00411808
v -0.01928150 0.01361084 0.00368548
v -0.01861068 0.01410195 0.00368548
v -0.01729672 0.01506337 0.00368548
v -0.01634123 0.01576234 0.00368548
v -0.00663609 0.01326147 0.00375099
v -0.00629475 0.01576234 0.00311872
v -0.01965843 0.01326147 0.00425327
v -0.01956485 0.01333027 0.00425327
v -0.01756426 0.01473335 0.00449661
v -0.01626479 0.01574569 0.00425327
v -0.01628719 0.01576234 0.00399433
v -0.00629606 0.01576234 0.00368548
v -0.00663740 0.01326147 0.00425327
v -0.01963470 0.01326147 0.00432191
v -0.01820081 0.01421677 0.00458501
v -0.01654946 0.01538727 0.00462556
v -0.01622657 0.01576234 0.00428655
v -0.01624107 0.01576234 0.00425327
v -0.00630134 0.01576234 0.00425327
v -0.00672307 0.01326147 0.00465884
v -0.01947655 0.01326147 0.00454549
v -0.01883604 0.01369971 0.00463908
v -0.01718601 0.01487070 0.00467340
v -0.01627138 0.01517819 0.00500410
v -0.01586414 0.01576234 0.00473996
v -0.01598407 0.01576234 0.00465468
v -0.00656228 0.01576234 0.00484291
v -0.00696029 0.01326147 0.00494170
v -0.01923537 0.01326147 0.00477011
v -0.01909304 0.01326147 0.00486579
v -0.01855665 0.01348940 0.00501761
v -0.01589314 0.01532190 0.00510913
v -0.01544636 0.01576234 0.00501657
v -0.01553862 0.01576234 0.00495730
v -0.01559529 0.01576234 0.00491986
v -0.01690398 0.01465868 0.00505089
v -0.00680346 0.01576234 0.00510601
v -0.00724365 0.01326147 0.00519752
v -0.01904955 0.01326147 0.00489386
v -0.01871084 0.01326147 0.00508937
v -0.01817841 0.01363287 0.00511537
v -0.01753922 0.01414577 0.00508729
v -0.01559529 0.01542571 0.00514760
v -0.01531062 0.01576234 0.00509041
v -0.01652574 0.01480019 0.00513097
v -0.00688122 0.01576234 0.00514137
v -0.00697874 0.01576234 0.00518400
v -0.00707100 0.01576234 0.00521104
v -0.00765615 0.01326147 0.00530151
v -0.01849602 0.01326147 0.00516112
v -0.01611323 0.01500486 0.00516112
v -0.01489152 0.01576234 0.00519544
v -0.01497850 0.01576234 0.00517776
v -0.01786342 0.01374500 0.00515488
v -0.00749010 0.01576234 0.00529631
v -0.00765615 0.01502836 0.00531087
v -0.00822418 0.01326147 0.00531191
v -0.01844858 0.01326147 0.00517152
v -0.01672079 0.01446649 0.00518712
v -0.01429319 0.01576234 0.00528175
v -0.01559529 0.01502836 0.00524640
v -0.00765615 0.01559537 0.00531191
v -0.00765615 0.01576234 0.00531191
v -0.01679459 0.01326147 0.00531191
v -0.01792932 0.01326147 0.00525784
v -0.01786342 0.01332733 0.00525576
v -0.01616199 0.01446160 0.00527343
v -0.01446056 0.01559537 0.00528695
v -0.01372648 0.01576234 0.00530775
v -0.01315978 0.01576234 0.00531191
v -0.01672870 0.01332733 0.00531191
v -0.01736130 0.01326147 0.00530255
v -0.01729672 0.01332733 0.00530151
v -0.01672870 0.01389434 0.00529111
v -0.01502727 0.01502836 0.00529943
v -0.01559529 0.01446160 0.00530671
v -0.01389386 0.01559537 0.00530983
v -0.01616199 0.01389434 0.00530983
f 1 2 3
f 1 3 9
f 1 9 22
f 1 22 21
f 1 21 23
f 1 23 10
f 1 10 4
f 1 4 12
f 1 12 25
f 1 25 33
f 1 33 43
f 1 43 52
f 1 52 62
f 1 62 64
f 1 64 70
f 1 70 75
f 1 75 82
f 1 82 90
f 1 90 98
f 1 98 105
f 1 105 113
f 1 113 123
f 1 123 134
f 1 134 142
f 1 142 149
f 1 149 157
f 1 157 150
f 1 150 143
f 1 143 135
f 1 135 125
f 1 125 124
f 1 124 115
f 1 115 114
f 1 114 106
f 1 106 99
f 1 99 92
f 1 92 84
f 1 84 76
f 1 76 71
f 1 71 65
f 1 65 55
f 1 55 54
f 1 54 45
f 1 45 37
f 1 37 30
f 1 30 14
f 1 14 5
f 1 5 2
f 2 5 6
f 2 6 3
f 3 7 8
f 3 8 9
f 3 6 7
f 4 10 11
f 4 11 12
f 5 13 6
f 5 14 13
f 6 13 15
f 6 15 16
f 6 16 17
f 6 17 7
f 7 17 8
f 8 17 16
f 8 16 18
f 8 18 19
f 8 19 20
f 8 20 21
f 8 21 22
f 8 22 9
f 10 23 24
f 10 24 11
f 11 24 25
f 11 25 12
f 13 14 26
f 13 26 27
f 13 27 28
f 13 28 29
f 13 29 15
f 14 30 26
f 15 29 18
f 15 18 16
f 18 31 19
f 18 29 28
f 18 28 31
f 19 31 41
f 19 41 51
f 19 51 61
f 19 61 59
f 19 59 68
f 19 68 67
f 19 67 73
f 19 73 80
f 19 80 89
f 19 89 96
f 19 96 103
f 19 103 102
f 19 102 111
f 19 111 110
f 19 110 120
f 19 120 119
f 19 119 118
f 19 118 129
f 19 129 138
f 19 138 137
f 19 137 145
f 19 145 154
f 19 154 155
f 19 155 148
f 19 148 140
f 19 140 133
f 19 133 132
f 19 132 131
f 19 131 122
f 19 122 112
f 19 112 104
f 19 104 97
f 19 97 91
f 19 91 83
f 19 83 81
f 19 81 74
f 19 74 69
f 19 69 63
f 19 63 53
f 19 53 42
f 19 42 32
f 19 32 24
f 19 24 23
f 19 23 21
f 19 21 20
f 24 32 33
f 24 33 25
f 26 30 34
f 26 34 35
f 26 35 27
f 27 35 36
f 27 36 28
f 28 36 31
f 30 37 38
f 30 38 39
f 30 39 40
f 30 40 34
f 31 36 41
f 32 42 33
f 33 42 43
f 34 40 35
f 35 44 41
f 35 41 36
f 35 40 44
f 37 45 38
f 38 46 39
f 38 45 47
f 38 47 48
f 38 48 49
f 38 49 46
f 39 46 50
f 39 50 40
f 40 50 44
f 41 44 50
f 41 50 51
f 42 52 43
f 42 53 52
f 45 54 47
f 46 49 50
f 47 54 55
f 47 55 56
f 47 56 57
f 47 57 58
f 47 58 48
f 48 59 60
f 48 60 61
f 48 61 50
f 48 50 49
f 48 58 57
f 48 57 59
f 50 61 51
f 52 53 62
f 53 63 64
f 53 64 62
f 55 65 56
f 56 65 66
f 56 66 57
f 57 67 68
f 57 68 59
f 57 66 67
f 59 61 60
f 63 69 64
f 64 69 70
f 65 71 72
f 65 72 66
f 66 72 67
f 67 72 73
f 69 74 75
f 69 75 70
f 71 76 86
f 71 86 77
f 71 77 72
f 72 77 78
f 72 78 79
f 72 79 80
f 72 80 73
f 74 81 75
f 75 81 83
f 75 83 82
f 76 84 85
f 76 85 86
f 77 86 87
f 77 87 78
f 78 87 88
f 78 88 79
f 79 88 89
f 79 89 80
f 82 83 91
f 82 91 90
f 84 92 85
f 85 87 86
f 85 92 93
f 85 93 94
f 85 94 95
f 85 95 96
f 85 96 89
f 85 89 88
f 85 88 87
f 90 91 97
f 90 97 98
f 92 99 93
f 93 99 94
f 94 99 100
f 94 100 101
f 94 101 102
f 94 102 95
f 95 102 103
f 95 103 96
f 97 104 98
f 98 104 105
f 99 106 100
f 100 106 107
f 100 107 101
f 101 108 109
f 101 109 110
f 101 110 111
f 101 111 102
f 101 107 108
f 104 112 105
f 105 112 113
f 106 114 107
f 107 114 115
f 107 115 116
f 107 116 109
f 107 109 108
f 109 117 118
f 109 118 119
f 109 119 120
f 109 120 110
f 109 116 121
f 109 121 117
f 112 122 113
f 113 122 123
f 115 124 116
f 116 124 125
f 116 125 126
f 116 126 127
f 116 127 121
f 117 128 129
f 117 129 118
f 117 121 127
f 117 127 126
f 117 126 130
f 117 130 128
f 122 131 123
f 123 131 132
f 123 132 133
f 123 133 134
f 125 135 126
f 126 135 130
f 128 130 136
f 128 136 137
f 128 137 138
f 128 138 129
f 130 135 139
f 130 139 136
f 133 140 134
f 134 141 142
f 134 140 141
f 135 143 136
f 135 136 139
f 136 144 137
f 136 143 144
f 137 144 146
f 137 146 145
f 140 147 141
f 140 148 147
f 141 147 142
f 142 147 148
f 142 148 155
f 142 155 156
f 142 156 149
f 143 150 151
f 143 151 144
f 144 151 146
f 145 146 152
f 145 152 153
f 145 153 154
f 146 151 152
f 149 156 157
f 150 157 158
f 150 158 159
f 150 159 152
f 150 152 151
f 152 159 153
f 153 159 160
f 153 160 154
f 154 160 161
f 154 161 162
f 154 162 155
f 155 162 156
f 156 162 163
f 156 163 157
f 157 163 161
f 157 161 160
f 157 160 158
f 158 160 159
f 161 163 162

