# https://github.com/mikedh/trimesh
v 0.01449113 -0.01141300 -0.00311872
v 0.01326738 -0.01054313 -0.00368548
v 0.01449113 -0.01141265 -0.00368548
v 0.01449113 -0.01141300 0.00311872
v 0.01326738 -0.01054277 -0.00375307
v 0.01326738 -0.01054313 0.00368548
v 0.01449113 -0.01140912 -0.00406713
v 0.01449113 -0.01141265 0.00368548
v 0.01326738 -0.01053748 -0.00425327
v 0.01449113 -0.01141089 0.00386954
v 0.01326738 -0.01053748 0.00425327
v 0.01449113 -0.01140701 -0.00425327
v 0.01326738 -0.01052691 -0.00430423
v 0.01449113 -0.01140701 0.00425327
v 0.01326738 -0.01036929 0.00471812
v 0.01449113 -0.01135024 -0.00446646
v 0.01326738 -0.01036929 -0.00471812
v 0.01449113 -0.01112351 0.00480339
v 0.01401342 -0.01089185 0.00466196
v 0.01326738 -0.01010272 0.00499682
v 0.01449113 -0.01112351 -0.00480339
v 0.01326738 -0.01034814 -0.00474204
v 0.01449113 -0.01107097 0.00485123
v 0.01428018 -0.01069580 0.00503945
v 0.01332728 -0.01011224 0.00501761
v 0.01326738 -0.00981535 0.00519232
v 0.01326738 -0.01010272 -0.00499682
v 0.01326738 -0.01006887 -0.00503113
v 0.01449113 -0.01108790 -0.00483667
v 0.01449113 -0.01102549 0.00488554
v 0.01400886 -0.01031781 0.00516840
v 0.01449113 -0.01054559 0.00520168
v 0.01446609 -0.01050081 0.00521000
v 0.01326738 -0.00935767 0.00529631
v 0.01326738 -0.00981535 -0.00519232
v 0.01449113 -0.01078008 -0.00509977
v 0.01449113 -0.01107097 -0.00485123
v 0.01449113 -0.01050046 0.00521312
v 0.01446142 -0.00992431 0.00530775
v 0.01332728 -0.00935767 0.00530151
v 0.01326738 -0.00879033 0.00527967
v 0.01326738 -0.00977903 -0.00520272
v 0.01449113 -0.01052409 -0.00520896
v 0.01449113 -0.01054559 -0.00520168
v 0.01449113 -0.00992431 0.00530775
v 0.01389435 -0.00935767 0.00531191
v 0.01326738 -0.00840705 0.00517568
v 0.01449113 -0.00935767 0.00531191
v 0.01332728 -0.00879033 0.00527655
v 0.01326738 -0.00935767 -0.00529631
v 0.01449113 -0.01050046 -0.00521312
v 0.01449113 -0.00873039 0.00518504
v 0.01449113 -0.00870429 0.00517464
v 0.01426772 -0.00849943 0.00511017
v 0.01326738 -0.00812320 0.00490530
v 0.01449113 -0.00874661 0.00519128
v 0.01326738 -0.00929773 -0.00530151
v 0.01332728 -0.00935767 -0.00530151
v 0.01449113 -0.00995392 -0.00530671
v 0.01449113 -0.00835310 0.00491050
v 0.01326738 -0.00787849 0.00462244
v 0.01449113 -0.00831608 0.00486787
v 0.01326738 -0.00879033 -0.00527967
v 0.01389435 -0.00935767 -0.00531191
v 0.01446142 -0.00992431 -0.00530775
v 0.01449113 -0.00992431 -0.00530775
v 0.01366939 -0.00792962 0.00455277
v 0.01326738 -0.00781397 0.00425327
v 0.01449113 -0.00803928 0.00425327
v 0.01449113 -0.00935767 -0.00531191
v 0.01326738 -0.00874308 -0.00526824
v 0.01332728 -0.00879033 -0.00527656
v 0.01449113 -0.00938729 -0.00531191
v 0.01326738 -0.00781115 0.00368548
v 0.01449113 -0.00803858 0.00422312
v 0.01449113 -0.00803152 0.00368548
v 0.01449113 -0.00877764 -0.00519752
v 0.01326738 -0.00840705 -0.00517568
v 0.01449113 -0.00874661 -0.00519128
v 0.01326738 -0.00781079 0.00311872
v 0.01449113 -0.00803117 0.00311872
v 0.01326738 -0.00837708 -0.00515384
v 0.01449113 -0.00851248 -0.00510185
v 0.01326738 -0.00781079 -0.00311872
v 0.01449113 -0.00803117 -0.00314784
v 0.01326738 -0.00812320 -0.00490530
v 0.01326738 -0.00809640 -0.00487515
v 0.01326738 -0.00787849 -0.00462245
v 0.01449113 -0.00832983 -0.00488451
v 0.01326738 -0.00781115 -0.00368548
v 0.01449113 -0.00803152 -0.00368548
v 0.01326738 -0.00786333 -0.00457357
v 0.01366939 -0.00792962 -0.00455277
v 0.01449113 -0.00831608 -0.00486787
v 0.01326738 -0.00781326 -0.00419296
v 0.01449113 -0.00803188 -0.00371563
v 0.01326738 -0.00781397 -0.00425327
v 0.01449113 -0.00803928 -0.00425327
v 0.01449113 -0.00805092 -0.00428135
f 1 2 3
f 1 3 7
f 1 7 12
f 1 12 16
f 1 16 21
f 1 21 29
f 1 29 37
f 1 37 36
f 1 36 44
f 1 44 43
f 1 43 51
f 1 51 59
f 1 59 66
f 1 66 73
f 1 73 70
f 1 70 77
f 1 77 79
f 1 79 83
f 1 83 89
f 1 89 94
f 1 94 99
f 1 99 98
f 1 98 96
f 1 96 91
f 1 91 85
f 1 85 81
f 1 81 76
f 1 76 75
f 1 75 69
f 1 69 62
f 1 62 60
f 1 60 53
f 1 53 52
f 1 52 56
f 1 56 48
f 1 48 45
f 1 45 38
f 1 38 32
f 1 32 30
f 1 30 23
f 1 23 18
f 1 18 14
f 1 14 10
f 1 10 8
f 1 8 4
f 1 4 6
f 1 6 2
f 2 5 3
f 2 6 11
f 2 11 15
f 2 15 20
f 2 20 26
f 2 26 34
f 2 34 41
f 2 41 47
f 2 47 55
f 2 55 61
f 2 61 68
f 2 68 74
f 2 74 80
f 2 80 84
f 2 84 90
f 2 90 95
f 2 95 97
f 2 97 92
f 2 92 88
f 2 88 87
f 2 87 86
f 2 86 82
f 2 82 78
f 2 78 71
f 2 71 63
f 2 63 57
f 2 57 50
f 2 50 42
f 2 42 35
f 2 35 28
f 2 28 27
f 2 27 22
f 2 22 17
f 2 17 13
f 2 13 9
f 2 9 5
f 3 5 7
f 4 8 6
f 5 9 7
f 6 8 10
f 6 10 11
f 7 9 12
f 9 13 12
f 10 14 11
f 11 14 15
f 12 13 16
f 13 17 16
f 14 18 19
f 14 19 15
f 15 19 18
f 15 18 20
f 16 17 21
f 17 22 21
f 18 23 20
f 20 23 24
f 20 24 25
f 20 25 26
f 21 22 27
f 21 27 28
f 21 28 29
f 23 30 24
f 24 31 26
f 24 26 25
f 24 30 32
f 24 32 31
f 26 32 33
f 26 33 34
f 26 31 32
f 28 35 36
f 28 36 37
f 28 37 29
f 32 38 33
f 33 38 34
f 34 39 40
f 34 40 41
f 34 38 39
f 35 42 43
f 35 43 44
f 35 44 36
f 38 45 39
f 39 45 48
f 39 48 46
f 39 46 40
f 40 46 41
f 41 46 48
f 41 48 49
f 41 49 47
f 42 50 43
f 43 50 51
f 47 52 53
f 47 53 54
f 47 54 55
f 47 49 56
f 47 56 52
f 48 56 49
f 50 57 58
f 50 58 59
f 50 59 51
f 53 60 54
f 54 60 55
f 55 60 62
f 55 62 61
f 57 63 64
f 57 64 58
f 58 64 65
f 58 65 59
f 59 65 66
f 61 67 68
f 61 62 67
f 62 69 67
f 63 70 64
f 63 71 72
f 63 72 70
f 64 73 65
f 64 70 73
f 65 73 66
f 67 69 68
f 68 69 75
f 68 75 76
f 68 76 74
f 70 72 77
f 71 78 79
f 71 79 72
f 72 79 77
f 74 76 81
f 74 81 80
f 78 82 83
f 78 83 79
f 80 81 85
f 80 85 84
f 82 86 83
f 83 86 87
f 83 87 88
f 83 88 89
f 84 85 90
f 85 91 90
f 88 92 93
f 88 93 94
f 88 94 89
f 90 91 95
f 91 96 97
f 91 97 95
f 92 97 93
f 93 97 98
f 93 98 99
f 93 99 94
f 96 98 97

