# https://github.com/mikedh/trimesh
v 0.01786463 -0.01621282 -0.00531191
v 0.01777159 -0.01436762 -0.00530879
v 0.01777159 -0.01380046 -0.00531191
v 0.01956575 -0.01621282 -0.00531191
v 0.01777159 -0.01621282 -0.00529007
v 0.01777159 -0.00935800 -0.00531191
v 0.02013278 -0.01502772 -0.00531191
v 0.02013278 -0.01559488 -0.00530879
v 0.02013278 -0.01616205 -0.00529735
v 0.02013278 -0.01621282 -0.00529423
v 0.01777159 -0.01621282 0.00529111
v 0.01777159 -0.00879083 -0.00530983
v 0.01786463 -0.00879083 -0.00531191
v 0.02240094 -0.00765651 -0.00531191
v 0.02296797 -0.00652218 -0.00531087
v 0.02183390 -0.01049232 -0.00530567
v 0.02296797 -0.00708934 -0.00530359
v 0.02183390 -0.01105949 -0.00529007
v 0.02069982 -0.01502772 -0.00526928
v 0.02069982 -0.01559488 -0.00522872
v 0.02068499 -0.01621282 -0.00517464
v 0.01786463 -0.01621282 0.00531191
v 0.01777159 -0.01332623 0.00531191
v 0.02126619 -0.00642637 -0.00530879
v 0.01777159 -0.00822367 -0.00520376
v 0.02070185 -0.00642637 -0.00526408
v 0.02069982 -0.00652218 -0.00527967
v 0.02126619 -0.00652218 -0.00531191
v 0.02240094 -0.00642637 -0.00531191
v 0.02296797 -0.00642637 -0.00531087
v 0.02353501 -0.00642637 -0.00525368
v 0.02296797 -0.00765651 -0.00528383
v 0.02183390 -0.01162569 -0.00526200
v 0.02296797 -0.00822367 -0.00525264
v 0.02353501 -0.00652218 -0.00524744
v 0.02230991 -0.01105949 -0.00518608
v 0.02120146 -0.01446056 -0.00519024
v 0.02110437 -0.01502772 -0.00516528
v 0.02102413 -0.01559488 -0.00512785
v 0.02098570 -0.01588517 -0.00510497
v 0.02084478 -0.01621282 -0.00509457
v 0.01956575 -0.01621282 0.00531191
v 0.01777159 -0.00888376 0.00531191
v 0.02183390 -0.00642637 -0.00531191
v 0.01777159 -0.00809338 -0.00513097
v 0.02023527 -0.00642637 -0.00516216
v 0.02390517 -0.00642637 -0.00514968
v 0.02342039 -0.00765651 -0.00517984
v 0.02166062 -0.01332623 -0.00516216
v 0.02384112 -0.00688624 -0.00511849
v 0.02277581 -0.00992516 -0.00515384
v 0.02377369 -0.00726466 -0.00507793
v 0.02314867 -0.00935800 -0.00503113
v 0.02397799 -0.00765651 -0.00473684
v 0.02166062 -0.01502772 -0.00468484
v 0.02114617 -0.01621282 -0.00482211
v 0.02099109 -0.01621282 -0.00498538
v 0.02008289 -0.01621282 0.00529631
v 0.02013278 -0.01559488 0.00530879
v 0.02013278 -0.01502772 0.00531191
v 0.01786463 -0.00879083 0.00531191
v 0.01777159 -0.00879083 0.00530983
v 0.01777159 -0.00785195 -0.00495522
v 0.02003704 -0.00642637 -0.00503945
v 0.02389101 -0.00652218 -0.00514449
v 0.02418903 -0.00642637 -0.00492090
v 0.02370357 -0.00765651 -0.00502073
v 0.02446007 -0.00642637 -0.00463804
v 0.02333072 -0.00992516 -0.00464740
v 0.02221754 -0.01332623 -0.00467236
v 0.02159387 -0.01545213 -0.00460061
v 0.02153386 -0.01582960 -0.00446750
v 0.02145228 -0.01621282 -0.00426679
v 0.02013278 -0.01621282 0.00529319
v 0.02013278 -0.01616205 0.00529527
v 0.02069982 -0.01389339 0.00530775
v 0.02296797 -0.00652218 0.00530983
v 0.02183390 -0.00992516 0.00531087
v 0.02240094 -0.00765651 0.00531191
v 0.02136260 -0.00642637 0.00531191
v 0.02126619 -0.00642637 0.00530879
v 0.02079624 -0.00642637 0.00528279
v 0.01777159 -0.00829936 0.00522144
v 0.01777159 -0.00769674 -0.00479715
v 0.01989141 -0.00642637 -0.00494586
v 0.02444456 -0.00652218 -0.00461933
v 0.02388764 -0.00822367 -0.00463388
v 0.02459627 -0.00642637 -0.00425327
v 0.02327475 -0.01028251 -0.00457253
v 0.02383505 -0.00855994 -0.00456213
v 0.02439534 -0.00683642 -0.00455173
v 0.02443040 -0.00694659 -0.00425327
v 0.02387415 -0.00868066 -0.00425327
v 0.02157499 -0.01595607 -0.00408897
v 0.02145902 -0.01621282 -0.00420752
v 0.02061554 -0.01621282 0.00519024
v 0.02069982 -0.01559488 0.00522768
v 0.02069982 -0.01502772 0.00526720
v 0.02183390 -0.01105949 0.00528903
v 0.02296797 -0.00708934 0.00530255
v 0.02126619 -0.01219286 0.00530671
v 0.02296797 -0.00642637 0.00530983
v 0.02249735 -0.00642637 0.00531191
v 0.02306439 -0.00642637 0.00530463
v 0.02070185 -0.00642637 0.00526408
v 0.01777159 -0.00822367 0.00520376
v 0.01809253 -0.00734514 -0.00457461
v 0.01965272 -0.00642637 -0.00474932
v 0.01777159 -0.00747065 -0.00425327
v 0.02464818 -0.00642637 -0.00378219
v 0.02325520 -0.01078740 -0.00398809
v 0.02456593 -0.00652218 -0.00425327
v 0.02151700 -0.01621282 -0.00368548
v 0.02068431 -0.01621282 0.00517360
v 0.02360985 -0.00642637 0.00523496
v 0.02353501 -0.00652218 0.00524640
v 0.02296797 -0.00822367 0.00525160
v 0.02240094 -0.00992516 0.00525576
v 0.02120011 -0.01446056 0.00518920
v 0.02230924 -0.01105949 0.00518504
v 0.02342106 -0.00765651 0.00517984
v 0.02296797 -0.00765651 0.00528383
v 0.02353501 -0.00642637 0.00525264
v 0.02028449 -0.00642637 0.00518088
v 0.01777159 -0.00797170 0.00508001
v 0.01939854 -0.00642637 -0.00425327
v 0.01777159 -0.00746394 -0.00368548
v 0.02465830 -0.00642637 -0.00368548
v 0.02462796 -0.00652218 -0.00368548
v 0.02446142 -0.00704144 -0.00368548
v 0.02325722 -0.01079315 -0.00368548
v 0.02316620 -0.01107673 -0.00368548
v 0.02205303 -0.01454391 -0.00368548
v 0.02151700 -0.01621282 0.00368548
v 0.02098570 -0.01588517 0.00510497
v 0.02102413 -0.01559488 0.00512681
v 0.02110302 -0.01502772 0.00516320
v 0.02091895 -0.01621282 0.00506233
v 0.02390652 -0.00642637 0.00515072
v 0.02023527 -0.00642637 0.00516216
v 0.01997164 -0.00642637 0.00500826
v 0.01777159 -0.00774656 0.00485331
v 0.01939179 -0.00642637 -0.00368548
v 0.01777159 -0.00746394 0.00368964
v 0.02465830 -0.00642637 0.00368548
v 0.02462796 -0.00652218 0.00368548
v 0.02446142 -0.00704144 0.00368548
v 0.02325722 -0.01079315 0.00368548
v 0.02316620 -0.01107673 0.00368548
v 0.02205303 -0.01454391 0.00368548
v 0.02325520 -0.01078740 0.00398705
v 0.02151228 -0.01621282 0.00376659
v 0.02265850 -0.01071172 0.00509041
v 0.02384112 -0.00688719 0.00511849
v 0.02114482 -0.01621282 0.00482315
v 0.02165927 -0.01502772 0.00468484
v 0.02342039 -0.00935800 0.00474827
v 0.02397664 -0.00765651 0.00473788
v 0.02395439 -0.00642637 0.00512161
v 0.01989141 -0.00642637 0.00494586
v 0.01777159 -0.00769674 0.00479715
v 0.01939179 -0.00642637 0.00368548
v 0.01777159 -0.00747065 0.00425327
v 0.01939854 -0.00642637 0.00425327
v 0.02460638 -0.00642637 0.00415656
v 0.02157499 -0.01595607 0.00408585
v 0.02459559 -0.00642637 0.00425327
v 0.02456525 -0.00652218 0.00425327
v 0.02443040 -0.00694563 0.00425327
v 0.02145093 -0.01621282 0.00426471
v 0.02377437 -0.00726562 0.00507897
v 0.02418970 -0.00642637 0.00492194
v 0.02143137 -0.01621282 0.00431151
v 0.02153251 -0.01582673 0.00446438
v 0.02159319 -0.01544926 0.00460061
v 0.02333004 -0.00992516 0.00464740
v 0.02445940 -0.00642637 0.00463804
v 0.02423622 -0.00642637 0.00487307
v 0.01972082 -0.00642637 0.00481275
v 0.01965272 -0.00642637 0.00474931
v 0.01809253 -0.00734514 0.00457461
v 0.01777159 -0.00747256 0.00425951
v 0.01941337 -0.00642637 0.00429903
v 0.02449513 -0.00642637 0.00455693
v 0.02439534 -0.00683642 0.00455173
v 0.02327475 -0.01028155 0.00457253
v 0.02388697 -0.00822367 0.00463388
v 0.02444389 -0.00652218 0.00461932
f 1 2 3
f 1 3 6
f 1 6 13
f 1 13 28
f 1 28 44
f 1 44 29
f 1 29 14
f 1 14 7
f 1 7 4
f 1 4 10
f 1 10 21
f 1 21 41
f 1 41 57
f 1 57 56
f 1 56 73
f 1 73 95
f 1 95 113
f 1 113 134
f 1 134 152
f 1 152 170
f 1 170 173
f 1 173 155
f 1 155 138
f 1 138 114
f 1 114 96
f 1 96 74
f 1 74 58
f 1 58 42
f 1 42 22
f 1 22 11
f 1 11 5
f 1 5 2
f 2 5 11
f 2 11 23
f 2 23 43
f 2 43 62
f 2 62 83
f 2 83 106
f 2 106 125
f 2 125 142
f 2 142 161
f 2 161 182
f 2 182 163
f 2 163 144
f 2 144 127
f 2 127 109
f 2 109 84
f 2 84 63
f 2 63 45
f 2 45 25
f 2 25 12
f 2 12 6
f 2 6 3
f 4 7 8
f 4 8 9
f 4 9 10
f 6 12 13
f 7 14 15
f 7 15 8
f 8 15 16
f 8 16 9
f 9 16 17
f 9 17 18
f 9 18 19
f 9 19 10
f 10 19 20
f 10 20 21
f 11 22 23
f 12 24 13
f 12 25 26
f 12 26 27
f 12 27 24
f 13 24 28
f 14 29 30
f 14 30 15
f 15 30 31
f 15 31 17
f 15 17 16
f 17 31 32
f 17 32 18
f 18 32 19
f 19 32 33
f 19 33 20
f 20 33 34
f 20 34 35
f 20 35 36
f 20 36 37
f 20 37 38
f 20 38 21
f 21 38 39
f 21 39 40
f 21 40 41
f 22 42 60
f 22 60 79
f 22 79 103
f 22 103 80
f 22 80 61
f 22 61 43
f 22 43 23
f 24 44 28
f 24 27 26
f 24 26 46
f 24 46 64
f 24 64 85
f 24 85 108
f 24 108 126
f 24 126 143
f 24 143 162
f 24 162 164
f 24 164 183
f 24 183 180
f 24 180 179
f 24 179 160
f 24 160 141
f 24 141 140
f 24 140 124
f 24 124 105
f 24 105 82
f 24 82 81
f 24 81 80
f 24 80 103
f 24 103 102
f 24 102 104
f 24 104 123
f 24 123 115
f 24 115 139
f 24 139 159
f 24 159 172
f 24 172 178
f 24 178 177
f 24 177 184
f 24 184 167
f 24 167 165
f 24 165 145
f 24 145 128
f 24 128 110
f 24 110 88
f 24 88 68
f 24 68 66
f 24 66 47
f 24 47 31
f 24 31 30
f 24 30 29
f 24 29 44
f 25 45 46
f 25 46 26
f 31 47 35
f 31 35 34
f 31 34 33
f 31 33 32
f 35 47 48
f 35 48 36
f 36 48 49
f 36 49 38
f 36 38 37
f 38 49 39
f 39 50 40
f 39 49 51
f 39 51 50
f 40 50 52
f 40 52 53
f 40 53 54
f 40 54 55
f 40 55 56
f 40 56 57
f 40 57 41
f 42 58 59
f 42 59 60
f 43 61 62
f 45 63 46
f 46 63 64
f 47 65 48
f 47 66 65
f 48 65 51
f 48 51 49
f 50 51 65
f 50 65 66
f 50 66 52
f 52 66 54
f 52 54 67
f 52 67 53
f 53 67 54
f 54 66 68
f 54 68 69
f 54 69 70
f 54 70 55
f 55 70 71
f 55 71 56
f 56 71 72
f 56 72 73
f 58 74 75
f 58 75 59
f 59 75 76
f 59 76 77
f 59 77 78
f 59 78 60
f 60 78 79
f 61 80 62
f 62 80 81
f 62 81 82
f 62 82 83
f 63 84 85
f 63 85 64
f 68 86 87
f 68 87 69
f 68 88 86
f 69 87 71
f 69 71 70
f 71 87 89
f 71 89 72
f 72 89 90
f 72 90 91
f 72 91 92
f 72 92 93
f 72 93 94
f 72 94 73
f 73 94 95
f 74 96 97
f 74 97 98
f 74 98 99
f 74 99 75
f 75 100 101
f 75 101 76
f 75 99 100
f 76 101 77
f 77 102 103
f 77 103 79
f 77 79 78
f 77 101 100
f 77 100 104
f 77 104 102
f 82 105 106
f 82 106 83
f 84 107 108
f 84 108 85
f 84 109 107
f 86 91 90
f 86 90 89
f 86 89 87
f 86 88 91
f 88 110 111
f 88 111 112
f 88 112 91
f 91 112 92
f 92 112 111
f 92 111 93
f 93 111 94
f 94 111 113
f 94 113 95
f 96 114 97
f 97 115 116
f 97 116 117
f 97 117 118
f 97 118 98
f 97 114 119
f 97 119 120
f 97 120 121
f 97 121 115
f 98 118 122
f 98 122 99
f 99 122 100
f 100 122 123
f 100 123 104
f 105 124 106
f 106 124 125
f 107 109 126
f 107 126 108
f 109 127 126
f 110 128 111
f 111 128 129
f 111 129 130
f 111 130 131
f 111 131 132
f 111 132 133
f 111 133 113
f 113 133 150
f 113 150 134
f 114 135 136
f 114 136 137
f 114 137 119
f 114 138 135
f 115 123 116
f 115 121 139
f 116 123 117
f 117 123 122
f 117 122 118
f 119 137 120
f 120 137 121
f 121 137 139
f 124 140 125
f 125 140 141
f 125 141 142
f 126 127 143
f 127 144 162
f 127 162 143
f 128 145 146
f 128 146 129
f 129 146 147
f 129 147 130
f 130 147 148
f 130 148 131
f 131 148 149
f 131 149 132
f 132 149 150
f 132 150 133
f 134 150 151
f 134 151 152
f 135 153 154
f 135 154 136
f 135 138 155
f 135 155 156
f 135 156 157
f 135 157 158
f 135 158 153
f 136 154 139
f 136 139 137
f 139 154 159
f 141 160 161
f 141 161 142
f 144 163 164
f 144 164 162
f 145 165 151
f 145 151 146
f 146 151 147
f 147 151 148
f 148 151 149
f 149 151 150
f 151 166 152
f 151 165 167
f 151 167 168
f 151 168 169
f 151 169 166
f 152 166 170
f 153 171 154
f 153 158 171
f 154 171 172
f 154 172 159
f 155 173 174
f 155 174 175
f 155 175 156
f 156 175 176
f 156 176 158
f 156 158 157
f 158 176 177
f 158 177 178
f 158 178 172
f 158 172 171
f 160 179 161
f 161 179 180
f 161 180 181
f 161 181 182
f 163 182 181
f 163 181 183
f 163 183 164
f 166 169 174
f 166 174 170
f 167 184 185
f 167 185 168
f 168 185 169
f 169 185 174
f 170 174 173
f 174 185 186
f 174 186 175
f 175 186 176
f 176 186 187
f 176 187 177
f 177 187 188
f 177 188 184
f 180 183 181
f 184 188 185
f 185 188 186
f 186 188 187

