# https://github.com/mikedh/trimesh
v -0.00172372 0.00430747 0.00531191
v -0.00935641 0.00430747 0.00531191
v -0.00172372 0.00302668 0.00531191
v -0.00172372 0.00430747 -0.00531191
v -0.00996939 0.00430747 0.00524328
v -0.00935641 0.00425331 0.00531191
v -0.00765591 0.00302668 0.00531191
v -0.00172372 0.00302668 -0.00531191
v -0.00941083 0.00430747 -0.00531191
v -0.00878926 0.00311921 0.00527759
v -0.01030644 0.00430747 0.00519440
v -0.00822211 0.00302668 0.00531087
v -0.00878926 0.00368620 0.00531191
v -0.00822211 0.00311921 0.00531191
v -0.00813044 0.00302668 -0.00531191
v -0.01006965 0.00430747 -0.00523704
v -0.00822211 0.00302668 -0.00531087
v -0.00869760 0.00302668 -0.00528175
v -0.00879021 0.00302668 0.00526408
v -0.01049072 0.00430747 0.00513721
v -0.00920364 0.00302668 0.00516112
v -0.01030644 0.00430747 -0.00519440
v -0.00879021 0.00302668 -0.00526408
v -0.01099676 0.00430747 0.00484811
v -0.01103495 0.00430747 0.00482627
v -0.01110275 0.00430747 0.00478259
v -0.00948913 0.00302668 0.00496770
v -0.01044680 0.00430747 -0.00516320
v -0.00916354 0.00302668 -0.00517776
v -0.01083349 0.00392430 0.00459021
v -0.00982235 0.00302668 0.00466196
v -0.01147034 0.00430747 0.00425327
v -0.00920364 0.00302668 -0.00516112
v -0.01067213 0.00430747 -0.00506961
v -0.00995412 0.00302668 0.00425327
v -0.01147703 0.00430747 0.00368548
v -0.00940892 0.00302668 -0.00503633
v -0.01106073 0.00430747 -0.00481067
v -0.00995507 0.00302668 0.00417216
v -0.01147798 0.00430747 0.00311872
v -0.00995985 0.00302668 0.00368548
v -0.00948913 0.00302668 -0.00496770
v -0.01110275 0.00430747 -0.00478259
v -0.01147798 0.00430747 -0.00311872
v -0.00995985 0.00302668 -0.00368548
v -0.00976220 0.00302668 -0.00472540
v -0.01136818 0.00430747 -0.00449350
v -0.00982235 0.00302668 -0.00466196
v -0.01147703 0.00430747 -0.00368548
v -0.00995412 0.00302668 -0.00425327
v -0.01147034 0.00430747 -0.00425327
v -0.00994552 0.00302668 -0.00430631
v -0.01147225 0.00430747 -0.00409313
f 1 2 6
f 1 6 13
f 1 13 14
f 1 14 7
f 1 7 3
f 1 3 8
f 1 8 4
f 1 4 9
f 1 9 16
f 1 16 22
f 1 22 28
f 1 28 34
f 1 34 38
f 1 38 43
f 1 43 47
f 1 47 51
f 1 51 53
f 1 53 49
f 1 49 44
f 1 44 40
f 1 40 36
f 1 36 32
f 1 32 26
f 1 26 25
f 1 25 24
f 1 24 20
f 1 20 11
f 1 11 5
f 1 5 2
f 2 5 6
f 3 7 12
f 3 12 19
f 3 19 21
f 3 21 27
f 3 27 31
f 3 31 35
f 3 35 39
f 3 39 41
f 3 41 45
f 3 45 50
f 3 50 52
f 3 52 48
f 3 48 46
f 3 46 42
f 3 42 37
f 3 37 33
f 3 33 29
f 3 29 23
f 3 23 18
f 3 18 17
f 3 17 15
f 3 15 8
f 4 8 15
f 4 15 9
f 5 10 6
f 5 11 10
f 6 10 12
f 6 12 13
f 7 14 12
f 9 15 17
f 9 17 18
f 9 18 16
f 10 19 12
f 10 11 19
f 11 20 21
f 11 21 19
f 12 14 13
f 16 18 22
f 18 23 22
f 20 24 21
f 21 24 25
f 21 25 26
f 21 26 27
f 22 23 28
f 23 29 28
f 26 30 31
f 26 31 27
f 26 32 30
f 28 29 33
f 28 33 34
f 30 32 31
f 31 32 35
f 32 36 39
f 32 39 35
f 33 37 34
f 34 37 38
f 36 40 41
f 36 41 39
f 37 42 43
f 37 43 38
f 40 44 45
f 40 45 41
f 42 46 43
f 43 46 48
f 43 48 47
f 44 49 45
f 45 49 50
f 47 48 51
f 48 52 51
f 49 53 50
f 50 53 51
f 50 51 52

