# https://github.com/mikedh/trimesh
v -0.01405967 0.00652139 -0.00531191
v -0.01405967 0.00612254 -0.00523080
v -0.01405967 0.00863770 -0.00531191
v -0.00940954 0.00430760 -0.00531191
v -0.01405967 0.00595427 -0.00519544
v -0.01405967 0.00863770 0.00531191
v -0.00637143 0.00863770 -0.00531191
v -0.01006763 0.00430760 -0.00523704
v -0.00172492 0.00430760 -0.00531191
v -0.01405967 0.00573429 -0.00509041
v -0.01030430 0.00430760 -0.00519440
v -0.01405967 0.00652139 0.00531191
v -0.00652358 0.00863770 0.00531191
v -0.00595726 0.00863770 -0.00529423
v -0.00172492 0.00595512 -0.00531087
v -0.00198575 0.00595512 -0.00531191
v -0.00172492 0.00569403 -0.00531191
v -0.00172492 0.00430760 0.00531191
v -0.01044558 0.00430760 -0.00516320
v -0.01405967 0.00571098 -0.00507793
v -0.01405967 0.00595427 0.00519544
v -0.00935640 0.00430760 0.00531191
v -0.00595726 0.00863770 0.00529423
v -0.00198575 0.00595512 0.00531191
v -0.00172492 0.00595512 0.00531087
v -0.00580390 0.00863770 -0.00528487
v -0.00172492 0.00625648 -0.00525056
v -0.00172492 0.00538800 0.00531191
v -0.01067139 0.00430760 -0.00506961
v -0.01405967 0.00557450 -0.00492714
v -0.01405967 0.00571098 0.00507793
v -0.01030430 0.00430760 0.00519440
v -0.00996861 0.00430760 0.00524328
v -0.00540542 0.00863770 0.00520480
v -0.00172492 0.00648155 0.00520064
v -0.00528709 0.00863770 -0.00518296
v -0.00172492 0.00648155 -0.00519960
v -0.01106021 0.00430760 -0.00481067
v -0.01405967 0.00549185 -0.00483251
v -0.01405967 0.00549185 0.00483251
v -0.01049026 0.00430760 0.00513721
v -0.00520739 0.00863770 0.00515176
v -0.00172492 0.00673459 0.00504777
v -0.00520498 0.00863770 -0.00515176
v -0.00172492 0.00665236 -0.00510393
v -0.01110126 0.00430760 -0.00478259
v -0.01405967 0.00530196 -0.00440614
v -0.01405967 0.00524517 0.00425327
v -0.01110126 0.00430760 0.00478259
v -0.01103364 0.00430760 0.00482627
v -0.01099621 0.00430760 0.00484811
v -0.00497434 0.00863770 0.00499474
v -0.00172492 0.00697110 0.00479091
v -0.00509992 0.00863770 -0.00509977
v -0.00172492 0.00673417 -0.00504673
v -0.01136691 0.00430760 -0.00449350
v -0.01405967 0.00524517 -0.00425327
v -0.01405967 0.00524177 0.00408585
v -0.01146835 0.00430760 0.00425327
v -0.00480167 0.00863770 0.00486891
v -0.00172492 0.00718303 0.00425327
v -0.00457345 0.00863770 0.00467756
v -0.00472197 0.00863770 -0.00481691
v -0.00172492 0.00696983 -0.00479091
v -0.00172492 0.00684776 -0.00492922
v -0.01146835 0.00430760 -0.00425327
v -0.01405967 0.00523626 -0.00368548
v -0.01405967 0.00523626 0.00368548
v -0.01147438 0.00430760 0.00384250
v -0.00172492 0.00718939 0.00368548
v -0.00441406 0.00863770 0.00425327
v -0.00445028 0.00858514 0.00462036
v -0.00456016 0.00863770 -0.00467860
v -0.00172492 0.00711352 -0.00447166
v -0.01147197 0.00430760 -0.00409313
v -0.01147559 0.00430760 -0.00368548
v -0.01147559 0.00430760 0.00368548
v -0.00172492 0.00718981 0.00311872
v -0.00440560 0.00863770 0.00313224
v -0.00440681 0.00863770 0.00369796
v -0.00448288 0.00863770 -0.00457253
v -0.00172492 0.00718303 -0.00425327
v -0.00172492 0.00718981 -0.00337974
v -0.00440077 0.00863770 -0.00367820
v -0.00440319 0.00863770 -0.00425327
v -0.00172492 0.00718939 -0.00368548
v -0.00440198 0.00863770 -0.00424391
v -0.00440077 0.00863770 -0.00368548
f 1 2 5
f 1 5 10
f 1 10 20
f 1 20 30
f 1 30 39
f 1 39 47
f 1 47 57
f 1 57 67
f 1 67 68
f 1 68 58
f 1 58 48
f 1 48 40
f 1 40 31
f 1 31 21
f 1 21 12
f 1 12 6
f 1 6 3
f 1 3 7
f 1 7 16
f 1 16 17
f 1 17 9
f 1 9 4
f 1 4 2
f 2 4 5
f 3 6 13
f 3 13 23
f 3 23 34
f 3 34 42
f 3 42 52
f 3 52 60
f 3 60 62
f 3 62 71
f 3 71 80
f 3 80 79
f 3 79 84
f 3 84 88
f 3 88 87
f 3 87 85
f 3 85 81
f 3 81 73
f 3 73 63
f 3 63 54
f 3 54 44
f 3 44 36
f 3 36 26
f 3 26 14
f 3 14 7
f 4 8 5
f 4 9 18
f 4 18 22
f 4 22 33
f 4 33 32
f 4 32 41
f 4 41 51
f 4 51 50
f 4 50 49
f 4 49 59
f 4 59 69
f 4 69 77
f 4 77 76
f 4 76 75
f 4 75 66
f 4 66 56
f 4 56 46
f 4 46 38
f 4 38 29
f 4 29 19
f 4 19 11
f 4 11 8
f 5 8 11
f 5 11 10
f 6 12 22
f 6 22 18
f 6 18 28
f 6 28 24
f 6 24 13
f 7 14 15
f 7 15 16
f 9 17 15
f 9 15 27
f 9 27 37
f 9 37 45
f 9 45 55
f 9 55 65
f 9 65 64
f 9 64 74
f 9 74 82
f 9 82 86
f 9 86 83
f 9 83 78
f 9 78 70
f 9 70 61
f 9 61 53
f 9 53 43
f 9 43 35
f 9 35 25
f 9 25 28
f 9 28 18
f 10 11 19
f 10 19 20
f 12 21 22
f 13 24 25
f 13 25 23
f 14 26 15
f 15 17 16
f 15 26 27
f 19 29 20
f 20 29 30
f 21 31 32
f 21 32 33
f 21 33 22
f 23 25 35
f 23 35 34
f 24 28 25
f 26 36 37
f 26 37 27
f 29 38 39
f 29 39 30
f 31 40 41
f 31 41 32
f 34 35 42
f 35 43 42
f 36 44 45
f 36 45 37
f 38 46 39
f 39 46 47
f 40 48 49
f 40 49 50
f 40 50 51
f 40 51 41
f 42 43 53
f 42 53 52
f 44 54 55
f 44 55 45
f 46 56 57
f 46 57 47
f 48 58 59
f 48 59 49
f 52 53 60
f 53 61 62
f 53 62 60
f 54 63 64
f 54 64 65
f 54 65 55
f 56 66 57
f 57 66 67
f 58 68 59
f 59 68 69
f 61 70 71
f 61 71 72
f 61 72 62
f 62 72 71
f 63 73 64
f 64 73 74
f 66 75 67
f 67 75 76
f 67 76 77
f 67 77 68
f 68 77 69
f 70 78 79
f 70 79 80
f 70 80 71
f 73 81 74
f 74 81 82
f 78 83 88
f 78 88 84
f 78 84 79
f 81 85 82
f 82 85 87
f 82 87 86
f 83 86 87
f 83 87 88

