# https://github.com/mikedh/trimesh
v 0.00254255 0.01980898 -0.00348581
v 0.00004713 0.02029710 -0.00368548
v 0.00004713 0.02029857 -0.00425327
v 0.00254255 0.01980971 -0.00368548
v 0.00254255 0.01980898 0.00311872
v 0.00004713 0.02029710 0.00368548
v 0.00004713 0.02035793 -0.00462557
v 0.00254255 0.01984196 -0.00443630
v 0.00254255 0.01981338 -0.00425327
v 0.00254255 0.01981118 -0.00404945
v 0.00254255 0.01980971 0.00368548
v 0.00004713 0.02029783 0.00401617
v 0.00254255 0.02004205 -0.00479819
v 0.00004713 0.02059467 -0.00490946
v 0.00254255 0.01981338 0.00425327
v 0.00004713 0.02029857 0.00425327
v 0.00254255 0.02008016 -0.00484187
v 0.00004713 0.02087831 -0.00518400
v 0.00254255 0.02036893 -0.00513929
v 0.00254255 0.02010068 -0.00486371
v 0.00254255 0.02004425 0.00479923
v 0.00004713 0.02035793 0.00462556
v 0.00004713 0.02033301 0.00446958
v 0.00004713 0.02104101 -0.00522768
v 0.00254255 0.02062105 -0.00521624
v 0.00254255 0.02056755 -0.00520168
v 0.00004713 0.02049572 0.00479091
v 0.00254255 0.02010288 0.00486371
v 0.00004713 0.02059467 0.00490946
v 0.00004713 0.02126675 -0.00528799
v 0.00254255 0.02065110 -0.00522352
v 0.00254255 0.02018203 0.00494066
v 0.00004713 0.02075957 0.00507065
v 0.00141771 0.02126675 -0.00530879
v 0.00004713 0.02183403 -0.00531191
v 0.00198489 0.02126675 -0.00531191
v 0.00254255 0.02126675 -0.00531191
v 0.00227923 0.02042316 0.00509977
v 0.00004713 0.02087757 0.00518504
v 0.00254255 0.02056975 0.00519960
v 0.00004713 0.02523624 -0.00531191
v 0.00254255 0.02353587 -0.00531191
v 0.00254255 0.02065110 0.00522144
v 0.00004713 0.02126675 0.00528903
v 0.00004713 0.02547297 -0.00530671
v 0.00028382 0.02523624 -0.00531191
v 0.00198489 0.02410168 -0.00531087
v 0.00254255 0.02411121 -0.00529839
v 0.00254255 0.02126675 0.00531191
v 0.00198489 0.02126675 0.00531191
v 0.00141771 0.02126675 0.00530879
v 0.00004713 0.02159803 0.00530255
v 0.00004713 0.02580352 -0.00529631
v 0.00028382 0.02580352 -0.00529319
v 0.00085076 0.02523624 -0.00530255
v 0.00141771 0.02466896 -0.00530879
v 0.00198489 0.02466896 -0.00528487
v 0.00254255 0.02469241 -0.00520272
v 0.00254255 0.02353587 0.00531191
v 0.00004713 0.02183403 0.00531191
v 0.00004713 0.02605271 -0.00524952
v 0.00026575 0.02638032 -0.00518296
v 0.00089498 0.02584969 -0.00520792
v 0.00141771 0.02523624 -0.00526200
v 0.00254255 0.02471587 -0.00519752
v 0.00028382 0.02523624 0.00531191
v 0.00254255 0.02410168 0.00529839
v 0.00198489 0.02410168 0.00531087
v 0.00004713 0.02523624 0.00531191
v 0.00004713 0.02638838 -0.00518504
v 0.00006496 0.02668009 -0.00512161
v 0.00073523 0.02619783 -0.00514968
v 0.00141771 0.02567452 -0.00516112
v 0.00195778 0.02522818 -0.00517672
v 0.00238964 0.02503468 -0.00514137
v 0.00254255 0.02474225 -0.00519024
v 0.00141771 0.02466896 0.00530879
v 0.00085076 0.02523624 0.00530255
v 0.00028382 0.02580352 0.00529423
v 0.00004713 0.02580352 0.00529631
v 0.00254255 0.02469315 0.00520272
v 0.00198489 0.02466896 0.00528487
v 0.00004713 0.02668009 -0.00512161
v 0.00044284 0.02657601 -0.00505817
v 0.00004713 0.02719166 -0.00457669
v 0.00023277 0.02692122 -0.00480235
v 0.00111335 0.02607030 -0.00509561
v 0.00175064 0.02555432 -0.00512161
v 0.00254255 0.02497972 -0.00511433
v 0.00141771 0.02523624 0.00526200
v 0.00089546 0.02585042 0.00520792
v 0.00026648 0.02638106 0.00518296
v 0.00004713 0.02639058 0.00518504
v 0.00254255 0.02474372 0.00519024
v 0.00195827 0.02522891 0.00517672
v 0.00075306 0.02678489 -0.00467964
v 0.00004713 0.02722391 -0.00452885
v 0.00141771 0.02595816 -0.00500306
v 0.00212876 0.02541214 -0.00503113
v 0.00254255 0.02527582 -0.00488139
v 0.00073620 0.02620003 0.00515072
v 0.00006569 0.02667935 0.00512161
v 0.00004713 0.02666543 0.00512473
v 0.00254255 0.02520692 0.00493130
v 0.00239037 0.02503468 0.00514137
v 0.00141771 0.02567526 0.00516112
v 0.00042061 0.02716968 -0.00425327
v 0.00113118 0.02665150 -0.00452781
v 0.00177116 0.02613699 -0.00459853
v 0.00241138 0.02562249 -0.00465260
v 0.00004713 0.02723417 -0.00448414
v 0.00013702 0.02725983 -0.00425327
v 0.00254255 0.02535570 -0.00480859
v 0.00175162 0.02555432 0.00512161
v 0.00111408 0.02607030 0.00509561
v 0.00044382 0.02657748 0.00505817
v 0.00004713 0.02667935 0.00512161
v 0.00023008 0.02692122 0.00480131
v 0.00004713 0.02718140 0.00458085
v 0.00254255 0.02527728 0.00488242
v 0.00212950 0.02541287 0.00503113
v 0.00052369 0.02720632 -0.00368548
v 0.00090548 0.02686845 -0.00430423
v 0.00119982 0.02670134 -0.00415032
v 0.00254255 0.02571044 -0.00423768
v 0.00254255 0.02557558 -0.00456941
v 0.00004713 0.02725983 -0.00424807
v 0.00004713 0.02727009 -0.00413160
v 0.00004713 0.02729647 -0.00368548
v 0.00024010 0.02728914 -0.00368548
v 0.00141771 0.02595889 0.00500410
v 0.00075599 0.02678489 0.00468068
v 0.00041597 0.02716968 0.00425327
v 0.00004713 0.02723417 0.00446646
v 0.00254255 0.02536010 0.00480651
v 0.00241334 0.02562322 0.00465364
v 0.00085076 0.02699304 -0.00368548
v 0.00052369 0.02720632 0.00368548
v 0.00123231 0.02672479 -0.00368548
v 0.00219252 0.02603219 -0.00368548
v 0.00254255 0.02577933 -0.00368548
v 0.00254255 0.02571777 -0.00418152
v 0.00004713 0.02729574 0.00368548
v 0.00024010 0.02728914 0.00368548
v 0.00141771 0.02626672 0.00472020
v 0.00177287 0.02613846 0.00459957
v 0.00113411 0.02665370 0.00453509
v 0.00013238 0.02725836 0.00425327
v 0.00090743 0.02686845 0.00430943
v 0.00004713 0.02724077 0.00440822
v 0.00254255 0.02566866 0.00433543
v 0.00085076 0.02699304 0.00368548
v 0.00119982 0.02670134 0.00415760
v 0.00123231 0.02672479 0.00368548
v 0.00219252 0.02603219 0.00368548
v 0.00254255 0.02577933 0.00368548
v 0.00004713 0.02725836 0.00424911
v 0.00254255 0.02571117 0.00423871
v 0.00254255 0.02577786 0.00369900
f 1 2 3
f 1 3 4
f 1 4 10
f 1 10 9
f 1 9 8
f 1 8 13
f 1 13 17
f 1 17 20
f 1 20 19
f 1 19 26
f 1 26 25
f 1 25 31
f 1 31 37
f 1 37 42
f 1 42 48
f 1 48 58
f 1 58 65
f 1 65 76
f 1 76 89
f 1 89 100
f 1 100 113
f 1 113 126
f 1 126 125
f 1 125 142
f 1 142 141
f 1 141 156
f 1 156 159
f 1 159 158
f 1 158 151
f 1 151 135
f 1 135 120
f 1 120 104
f 1 104 94
f 1 94 81
f 1 81 67
f 1 67 59
f 1 59 49
f 1 49 43
f 1 43 40
f 1 40 32
f 1 32 28
f 1 28 21
f 1 21 15
f 1 15 11
f 1 11 5
f 1 5 6
f 1 6 2
f 2 6 12
f 2 12 16
f 2 16 23
f 2 23 22
f 2 22 27
f 2 27 29
f 2 29 33
f 2 33 39
f 2 39 44
f 2 44 52
f 2 52 60
f 2 60 69
f 2 69 80
f 2 80 93
f 2 93 103
f 2 103 117
f 2 117 119
f 2 119 134
f 2 134 150
f 2 150 157
f 2 157 143
f 2 143 129
f 2 129 128
f 2 128 127
f 2 127 111
f 2 111 97
f 2 97 85
f 2 85 83
f 2 83 70
f 2 70 61
f 2 61 53
f 2 53 45
f 2 45 41
f 2 41 35
f 2 35 30
f 2 30 24
f 2 24 18
f 2 18 14
f 2 14 7
f 2 7 3
f 3 7 8
f 3 8 9
f 3 9 10
f 3 10 4
f 5 11 6
f 6 11 12
f 7 13 8
f 7 14 13
f 11 15 16
f 11 16 12
f 13 14 17
f 14 18 19
f 14 19 20
f 14 20 17
f 15 21 22
f 15 22 23
f 15 23 16
f 18 24 25
f 18 25 26
f 18 26 19
f 21 27 22
f 21 28 29
f 21 29 27
f 24 30 25
f 25 30 31
f 28 32 33
f 28 33 29
f 30 34 31
f 30 35 34
f 31 34 36
f 31 36 37
f 32 38 39
f 32 39 33
f 32 40 38
f 34 35 36
f 35 41 46
f 35 46 42
f 35 42 37
f 35 37 36
f 38 40 39
f 39 40 43
f 39 43 44
f 41 45 46
f 42 46 47
f 42 47 48
f 43 49 50
f 43 50 51
f 43 51 44
f 44 51 52
f 45 53 46
f 46 53 54
f 46 54 55
f 46 55 56
f 46 56 47
f 47 56 48
f 48 56 55
f 48 55 54
f 48 54 57
f 48 57 58
f 49 59 66
f 49 66 69
f 49 69 60
f 49 60 50
f 50 60 51
f 51 60 52
f 53 61 54
f 54 61 62
f 54 62 63
f 54 63 64
f 54 64 57
f 57 64 58
f 58 64 65
f 59 67 68
f 59 68 66
f 61 70 62
f 62 70 71
f 62 71 72
f 62 72 63
f 63 72 73
f 63 73 74
f 63 74 64
f 64 74 65
f 65 74 75
f 65 75 76
f 66 68 77
f 66 77 78
f 66 78 79
f 66 79 80
f 66 80 69
f 67 81 82
f 67 82 79
f 67 79 78
f 67 78 77
f 67 77 68
f 70 83 71
f 71 84 72
f 71 83 85
f 71 85 86
f 71 86 84
f 72 84 87
f 72 87 88
f 72 88 73
f 73 88 75
f 73 75 74
f 75 88 89
f 75 89 76
f 79 82 90
f 79 90 91
f 79 91 92
f 79 92 93
f 79 93 80
f 81 90 82
f 81 94 95
f 81 95 90
f 84 86 96
f 84 96 87
f 85 97 96
f 85 96 86
f 87 98 99
f 87 99 89
f 87 89 88
f 87 96 98
f 89 99 100
f 90 95 91
f 91 95 101
f 91 101 92
f 92 101 102
f 92 102 93
f 93 102 103
f 94 104 105
f 94 105 95
f 95 105 106
f 95 106 101
f 96 97 107
f 96 107 108
f 96 108 109
f 96 109 110
f 96 110 98
f 97 111 112
f 97 112 107
f 98 110 99
f 99 110 100
f 100 110 113
f 101 106 105
f 101 105 114
f 101 114 115
f 101 115 116
f 101 116 102
f 102 117 103
f 102 116 118
f 102 118 119
f 102 119 117
f 104 120 105
f 105 120 121
f 105 121 114
f 107 112 122
f 107 122 123
f 107 123 108
f 108 123 124
f 108 124 125
f 108 125 126
f 108 126 109
f 109 126 110
f 110 126 113
f 111 127 112
f 112 127 128
f 112 128 129
f 112 129 130
f 112 130 122
f 114 121 115
f 115 121 131
f 115 131 132
f 115 132 116
f 116 132 118
f 118 132 119
f 119 132 133
f 119 133 134
f 120 135 136
f 120 136 131
f 120 131 121
f 122 137 124
f 122 124 123
f 122 130 144
f 122 144 138
f 122 138 152
f 122 152 137
f 124 137 139
f 124 139 140
f 124 140 141
f 124 141 142
f 124 142 125
f 129 143 144
f 129 144 130
f 131 136 145
f 131 145 132
f 132 145 136
f 132 136 146
f 132 146 147
f 132 147 133
f 133 148 134
f 133 147 149
f 133 149 138
f 133 138 148
f 134 148 150
f 135 151 136
f 136 151 146
f 137 152 154
f 137 154 139
f 138 144 148
f 138 149 153
f 138 153 152
f 139 154 155
f 139 155 140
f 140 155 156
f 140 156 141
f 143 157 148
f 143 148 144
f 146 151 147
f 147 151 158
f 147 158 153
f 147 153 149
f 148 157 150
f 152 153 154
f 153 159 156
f 153 156 155
f 153 155 154
f 153 158 159

