# https://github.com/mikedh/trimesh
v 0.00765658 0.01559542 -0.00531191
v 0.00746297 0.01575923 -0.00528071
v 0.00765658 0.01575923 -0.00531191
v 0.00822415 0.01326172 -0.00531191
v 0.00765658 0.01502843 -0.00530775
v 0.00765658 0.01326172 -0.00528591
v 0.00711554 0.01575923 -0.00521000
v 0.01316252 0.01575923 -0.00531191
v 0.01679469 0.01326172 -0.00531191
v 0.00727202 0.01326172 -0.00518192
v 0.00696967 0.01575923 -0.00514761
v 0.01373009 0.01575923 -0.00530879
v 0.01389320 0.01559542 -0.00530983
v 0.01446077 0.01502843 -0.00531191
v 0.01672972 0.01332724 -0.00531191
v 0.01736226 0.01326172 -0.00530567
v 0.00698823 0.01326172 -0.00490010
v 0.00683971 0.01575923 -0.00507793
v 0.01429766 0.01575923 -0.00528695
v 0.01446077 0.01559542 -0.00529215
v 0.01502834 0.01502843 -0.00530255
v 0.01559458 0.01446145 -0.00530879
v 0.01616215 0.01389447 -0.00531087
v 0.01729596 0.01332724 -0.00530567
v 0.01792850 0.01326172 -0.00527240
v 0.00678136 0.01326172 -0.00464948
v 0.00658112 0.01575923 -0.00479715
v 0.00675351 0.01575923 -0.00499162
v 0.01492755 0.01575923 -0.00520272
v 0.01559458 0.01502843 -0.00525992
v 0.01616215 0.01446145 -0.00528279
v 0.01672972 0.01389447 -0.00529735
v 0.01786352 0.01332724 -0.00527032
v 0.01849209 0.01326172 -0.00518712
v 0.00675484 0.01326172 -0.00461621
v 0.00647901 0.01575923 -0.00455693
v 0.01500977 0.01575923 -0.00518712
v 0.01559458 0.01545874 -0.00515904
v 0.01613165 0.01501719 -0.00517360
v 0.01729596 0.01389447 -0.00524120
v 0.01781048 0.01386660 -0.00515592
v 0.01857299 0.01326172 -0.00517048
v 0.00670047 0.01326172 -0.00425327
v 0.00636232 0.01575923 -0.00425327
v 0.01535853 0.01575923 -0.00510809
v 0.01592213 0.01534188 -0.00511953
v 0.01758505 0.01418151 -0.00510601
v 0.01821627 0.01365878 -0.00512785
v 0.01877322 0.01326172 -0.00511433
v 0.00669915 0.01326172 -0.00375099
v 0.00635569 0.01575923 -0.00344734
v 0.00635701 0.01575923 -0.00368548
v 0.01554817 0.01575923 -0.00501034
v 0.01796298 0.01403701 -0.00499578
v 0.01859420 0.01351844 -0.00504569
v 0.01911138 0.01326172 -0.00493858
v 0.00669915 0.01326172 0.00368548
v 0.00635701 0.01575923 0.00368548
v 0.01557734 0.01575923 -0.00499162
v 0.01888196 0.01373090 -0.00466716
v 0.01938190 0.01326172 -0.00476387
v 0.01917105 0.01326172 -0.00490010
v 0.01658252 0.01540985 -0.00464844
v 0.00670047 0.01326172 0.00425327
v 0.00635967 0.01575923 0.00392154
v 0.01559458 0.01575923 -0.00498018
v 0.01824014 0.01424459 -0.00461725
v 0.01951849 0.01326172 -0.00466612
v 0.01591019 0.01575923 -0.00477011
v 0.01602291 0.01575923 -0.00469212
v 0.01632260 0.01575923 -0.00427407
v 0.01696046 0.01527415 -0.00439366
v 0.01760096 0.01475998 -0.00455693
v 0.00674556 0.01326172 0.00457045
v 0.00636364 0.01575923 0.00425327
v 0.01925990 0.01359521 -0.00448102
v 0.01972006 0.01326172 -0.00443214
v 0.01633587 0.01575923 -0.00425119
v 0.01675491 0.01546559 -0.00422416
v 0.01702809 0.01532305 -0.00401617
v 0.00675484 0.01326172 0.00461621
v 0.00658245 0.01575923 0.00479507
v 0.01932621 0.01364362 -0.00410249
v 0.01953573 0.01344802 -0.00427615
v 0.01979830 0.01326172 -0.00426263
v 0.01642339 0.01575923 -0.00377387
v 0.01643797 0.01575923 -0.00368548
v 0.01672972 0.01554945 -0.00368548
v 0.01838998 0.01435265 -0.00368548
v 0.01990306 0.01326172 -0.00368548
v 0.00696304 0.01326172 0.00486683
v 0.00699089 0.01326172 0.00489906
v 0.00684104 0.01575923 0.00507689
v 0.01984073 0.01326172 -0.00402969
v 0.01643797 0.01575923 0.00368548
v 0.01672972 0.01554945 0.00368548
v 0.01838998 0.01435265 0.00368548
v 0.01990306 0.01326172 0.00368548
v 0.00724152 0.01326172 0.00514968
v 0.00727467 0.01326172 0.00517984
v 0.00711686 0.01575923 0.00521000
v 0.01702809 0.01532305 0.00401617
v 0.01633719 0.01575923 0.00425119
v 0.01932621 0.01364362 0.00410456
v 0.01979830 0.01326172 0.00426263
v 0.00761017 0.01326172 0.00527135
v 0.00765658 0.01326172 0.00528383
v 0.00765658 0.01502843 0.00530775
v 0.00765658 0.01559542 0.00531191
v 0.00765658 0.01575923 0.00531191
v 0.01696046 0.01527391 0.00439470
v 0.01766329 0.01480448 0.00425327
v 0.01925990 0.01359570 0.00448206
v 0.01602423 0.01575923 0.00469316
v 0.01658252 0.01540911 0.00464740
v 0.01953573 0.01344851 0.00427719
v 0.01955827 0.01326172 0.00459853
v 0.00815785 0.01326172 0.00530983
v 0.00822415 0.01326172 0.00531191
v 0.01276072 0.01575923 0.00531191
v 0.01760229 0.01476071 0.00455797
v 0.01888196 0.01372993 0.00466716
v 0.01938323 0.01326172 0.00476387
v 0.01824014 0.01424459 0.00461621
v 0.01559458 0.01575923 0.00498122
v 0.01559458 0.01574236 0.00499682
v 0.01796298 0.01403799 0.00499474
v 0.01672972 0.01326172 0.00531191
v 0.01332696 0.01559542 0.00531191
v 0.01332696 0.01575923 0.00530983
v 0.01911403 0.01326172 0.00493962
v 0.01554817 0.01575923 0.00501137
v 0.01758505 0.01418175 0.00510601
v 0.01859685 0.01351917 0.00504465
v 0.01729596 0.01326172 0.00530567
v 0.01672972 0.01332724 0.00531191
v 0.01446077 0.01502843 0.00531191
v 0.01389320 0.01559542 0.00530983
v 0.01389320 0.01575923 0.00529943
v 0.01896684 0.01326172 0.00500306
v 0.01518747 0.01575923 0.00514344
v 0.01592213 0.01534188 0.00511953
v 0.01821892 0.01366000 0.00512889
v 0.01857564 0.01326172 0.00517048
v 0.01729596 0.01332724 0.00530463
v 0.01616215 0.01389447 0.00531087
v 0.01786352 0.01326172 0.00527447
v 0.01559458 0.01446145 0.00530879
v 0.01502834 0.01502843 0.00530151
v 0.01446077 0.01559542 0.00529215
v 0.01445944 0.01575923 0.00526200
v 0.01501110 0.01575923 0.00518608
v 0.01559458 0.01545874 0.00515800
v 0.01781048 0.01386709 0.00515592
v 0.01841651 0.01332895 0.00518400
v 0.01841783 0.01326172 0.00519648
v 0.01672972 0.01389447 0.00529631
v 0.01786352 0.01332724 0.00527032
v 0.01616215 0.01446145 0.00528279
v 0.01559458 0.01502843 0.00525888
v 0.01506812 0.01563820 0.00520584
v 0.01613165 0.01501768 0.00517360
v 0.01674165 0.01448223 0.00519648
v 0.01729596 0.01389447 0.00524016
f 1 2 3
f 1 3 8
f 1 8 14
f 1 14 15
f 1 15 9
f 1 9 4
f 1 4 5
f 1 5 2
f 2 5 6
f 2 6 7
f 2 7 11
f 2 11 18
f 2 18 28
f 2 28 27
f 2 27 36
f 2 36 44
f 2 44 52
f 2 52 51
f 2 51 58
f 2 58 65
f 2 65 75
f 2 75 82
f 2 82 93
f 2 93 101
f 2 101 110
f 2 110 120
f 2 120 130
f 2 130 139
f 2 139 151
f 2 151 152
f 2 152 141
f 2 141 132
f 2 132 125
f 2 125 114
f 2 114 103
f 2 103 95
f 2 95 87
f 2 87 86
f 2 86 78
f 2 78 71
f 2 71 70
f 2 70 69
f 2 69 66
f 2 66 59
f 2 59 53
f 2 53 45
f 2 45 37
f 2 37 29
f 2 29 19
f 2 19 12
f 2 12 8
f 2 8 3
f 4 6 5
f 4 9 16
f 4 16 25
f 4 25 34
f 4 34 42
f 4 42 49
f 4 49 56
f 4 56 62
f 4 62 61
f 4 61 68
f 4 68 77
f 4 77 85
f 4 85 94
f 4 94 90
f 4 90 98
f 4 98 105
f 4 105 117
f 4 117 123
f 4 123 131
f 4 131 140
f 4 140 144
f 4 144 156
f 4 156 147
f 4 147 135
f 4 135 128
f 4 128 119
f 4 119 118
f 4 118 107
f 4 107 106
f 4 106 100
f 4 100 99
f 4 99 92
f 4 92 91
f 4 91 81
f 4 81 74
f 4 74 64
f 4 64 57
f 4 57 50
f 4 50 43
f 4 43 35
f 4 35 26
f 4 26 17
f 4 17 10
f 4 10 6
f 6 10 7
f 7 10 11
f 8 12 13
f 8 13 14
f 9 15 16
f 10 17 18
f 10 18 11
f 12 19 20
f 12 20 21
f 12 21 22
f 12 22 13
f 13 22 23
f 13 23 14
f 14 23 15
f 15 24 16
f 15 23 24
f 16 24 25
f 17 26 27
f 17 27 28
f 17 28 18
f 19 29 30
f 19 30 31
f 19 31 20
f 20 31 32
f 20 32 21
f 21 32 24
f 21 24 22
f 22 24 23
f 24 32 25
f 25 32 31
f 25 31 33
f 25 33 34
f 26 35 27
f 27 35 36
f 29 37 38
f 29 38 39
f 29 39 40
f 29 40 30
f 30 40 33
f 30 33 31
f 33 40 34
f 34 41 42
f 34 40 39
f 34 39 38
f 34 38 41
f 35 43 44
f 35 44 36
f 37 45 38
f 38 45 46
f 38 46 47
f 38 47 41
f 41 47 48
f 41 48 42
f 42 48 49
f 43 50 51
f 43 51 52
f 43 52 44
f 45 53 47
f 45 47 46
f 47 54 55
f 47 55 49
f 47 49 48
f 47 53 54
f 49 55 56
f 50 57 51
f 51 57 58
f 53 59 54
f 54 60 61
f 54 61 62
f 54 62 56
f 54 56 55
f 54 59 63
f 54 63 60
f 57 64 58
f 58 64 65
f 59 66 63
f 60 67 68
f 60 68 61
f 60 63 67
f 63 66 69
f 63 69 70
f 63 70 71
f 63 71 72
f 63 72 73
f 63 73 67
f 64 74 75
f 64 75 65
f 67 73 76
f 67 76 68
f 68 76 77
f 71 78 72
f 72 78 79
f 72 79 80
f 72 80 76
f 72 76 73
f 74 81 75
f 75 81 82
f 76 83 84
f 76 84 85
f 76 85 77
f 76 80 83
f 78 86 80
f 78 80 79
f 80 86 87
f 80 87 88
f 80 88 89
f 80 89 90
f 80 90 83
f 81 91 82
f 82 91 92
f 82 92 93
f 83 90 94
f 83 94 85
f 83 85 84
f 87 95 96
f 87 96 88
f 88 96 97
f 88 97 89
f 89 97 98
f 89 98 90
f 92 99 93
f 93 99 100
f 93 100 101
f 95 102 96
f 95 103 102
f 96 102 97
f 97 102 98
f 98 104 105
f 98 102 104
f 100 106 101
f 101 106 107
f 101 107 108
f 101 108 109
f 101 109 110
f 102 103 111
f 102 111 112
f 102 112 113
f 102 113 104
f 103 114 115
f 103 115 111
f 104 113 116
f 104 116 105
f 105 116 113
f 105 113 117
f 107 118 108
f 108 118 119
f 108 119 109
f 109 119 128
f 109 128 136
f 109 136 137
f 109 137 129
f 109 129 120
f 109 120 110
f 111 115 121
f 111 121 113
f 111 113 112
f 113 122 123
f 113 123 117
f 113 121 124
f 113 124 122
f 114 125 115
f 115 125 126
f 115 126 127
f 115 127 122
f 115 122 124
f 115 124 121
f 120 129 138
f 120 138 130
f 122 127 123
f 123 127 131
f 125 132 126
f 126 132 127
f 127 133 134
f 127 134 131
f 127 132 133
f 128 135 136
f 129 137 138
f 130 138 139
f 131 134 140
f 132 141 142
f 132 142 133
f 133 143 134
f 133 142 143
f 134 143 144
f 134 144 140
f 135 145 146
f 135 146 136
f 135 147 145
f 136 146 137
f 137 146 148
f 137 148 138
f 138 148 149
f 138 149 150
f 138 150 139
f 139 150 151
f 141 152 153
f 141 153 142
f 142 153 143
f 143 153 154
f 143 154 144
f 144 154 155
f 144 155 156
f 145 157 149
f 145 149 148
f 145 148 146
f 145 147 158
f 145 158 157
f 147 156 158
f 149 157 150
f 150 157 159
f 150 159 160
f 150 160 151
f 151 160 161
f 151 161 152
f 152 161 162
f 152 162 153
f 153 162 154
f 154 162 155
f 155 162 163
f 155 163 164
f 155 164 158
f 155 158 156
f 157 158 159
f 158 164 160
f 158 160 159
f 160 164 161
f 161 164 163
f 161 163 162

