# https://github.com/mikedh/trimesh
v 0.00468271 -0.02036395 0.00311872
v 0.00399829 -0.01924108 0.00370420
v 0.00468180 -0.02036395 0.00368548
v 0.00468271 -0.02036395 -0.00311872
v 0.00399556 -0.01924108 0.00425327
v 0.00399829 -0.01924108 -0.00368548
v 0.00467725 -0.02036395 0.00425327
v 0.00468180 -0.02036395 -0.00368548
v 0.00398737 -0.01924108 0.00438534
v 0.00399556 -0.01924108 -0.00425327
v 0.00398282 -0.01925141 0.00455589
v 0.00459261 -0.02033856 0.00460269
v 0.00460171 -0.02036395 0.00461205
v 0.00467816 -0.02036395 -0.00414408
v 0.00396735 -0.01924108 0.00456837
v 0.00467725 -0.02036395 -0.00425327
v 0.00397918 -0.01924108 -0.00454549
v 0.00371433 -0.01924108 0.00485539
v 0.00431593 -0.02036395 0.00489906
v 0.00461809 -0.02036395 -0.00457461
v 0.00398282 -0.01925141 -0.00455589
v 0.00396735 -0.01924108 -0.00456837
v 0.00343765 -0.01924108 0.00512993
v 0.00403470 -0.02036395 0.00514033
v 0.00460171 -0.02036395 -0.00461205
v 0.00459261 -0.02033856 -0.00460269
v 0.00381627 -0.01924108 -0.00474828
v 0.00313185 -0.01924108 0.00523080
v 0.00351319 -0.01956543 0.00517152
v 0.00370068 -0.02014104 0.00520792
v 0.00369431 -0.02036395 0.00523912
v 0.00441695 -0.02036395 -0.00480755
v 0.00371433 -0.01924108 -0.00485539
v 0.00311911 -0.01956543 0.00527551
v 0.00255209 -0.01924108 0.00531191
v 0.00311911 -0.02013247 0.00531087
v 0.00311911 -0.02036395 0.00531087
v 0.00431593 -0.02036395 -0.00489906
v 0.00346041 -0.01924108 -0.00511017
v 0.00255209 -0.02036395 0.00531191
v -0.00255102 -0.01924108 0.00531191
v 0.00406109 -0.02036395 -0.00512161
v 0.00343765 -0.01924108 -0.00512993
v -0.00278310 -0.02036395 0.00531191
v -0.00279403 -0.01924108 0.00528903
v -0.00311894 -0.02013247 0.00530775
v -0.00311894 -0.02036395 0.00530879
v 0.00403470 -0.02036395 -0.00514033
v 0.00329385 -0.01924108 -0.00518816
v -0.00312622 -0.01924108 0.00521624
v -0.00311894 -0.01956543 0.00525992
v -0.00335012 -0.02036395 0.00529423
v 0.00389181 -0.02036395 -0.00519336
v 0.00313185 -0.01924108 -0.00523080
v -0.00326365 -0.01924108 0.00517672
v -0.00385069 -0.02036395 0.00518712
v -0.00368869 -0.02036395 0.00522664
v 0.00369431 -0.02036395 -0.00523912
v 0.00311911 -0.01956543 -0.00527552
v 0.00279419 -0.01924108 -0.00529631
v -0.00399722 -0.02036395 0.00512369
v -0.00399085 -0.02036395 0.00512681
v -0.00340381 -0.01924108 0.00510393
v -0.00340836 -0.01926570 0.00510913
v 0.00335028 -0.02036395 -0.00530047
v 0.00311911 -0.02013247 -0.00531087
v 0.00255209 -0.01924108 -0.00531191
v -0.00428391 -0.02036395 0.00486683
v -0.00366775 -0.01924108 0.00483563
v -0.00440132 -0.02036395 0.00476075
v 0.00311911 -0.02036395 -0.00531087
v 0.00278327 -0.02036395 -0.00531191
v -0.00255102 -0.01924108 -0.00531191
v -0.00406366 -0.01967490 0.00464948
v -0.00456878 -0.02036395 0.00457461
v -0.00456332 -0.02036395 0.00458397
v -0.00393169 -0.01924108 0.00425327
v -0.00255102 -0.02036395 -0.00531191
v -0.00311894 -0.02036395 -0.00530879
v -0.00311894 -0.02013247 -0.00530775
v -0.00311894 -0.01956543 -0.00525992
v -0.00312622 -0.01924108 -0.00521624
v -0.00460974 -0.02036395 0.00425327
v -0.00393533 -0.01924108 0.00368548
v -0.00461429 -0.02036395 0.00368548
v -0.00368869 -0.02036395 -0.00522664
v -0.00368960 -0.02016127 -0.00519648
v -0.00348300 -0.01956543 -0.00515592
v -0.00337742 -0.01924108 -0.00511745
v -0.00461520 -0.02036395 0.00311872
v -0.00393533 -0.01924108 -0.00368548
v -0.00399085 -0.02036395 -0.00512681
v -0.00340836 -0.01926570 -0.00510913
v -0.00342748 -0.01924108 -0.00507897
v -0.00461520 -0.02036395 -0.00316136
v -0.00393260 -0.01924108 -0.00413992
v -0.00461429 -0.02036395 -0.00372811
v -0.00400632 -0.02036395 -0.00511537
v -0.00428391 -0.02036395 -0.00486683
v -0.00456332 -0.02036395 -0.00458397
v -0.00366775 -0.01924108 -0.00483563
v -0.00393169 -0.01924108 -0.00425327
v -0.00460974 -0.02036395 -0.00425327
v -0.00406366 -0.01967490 -0.00464948
v -0.00457424 -0.02036395 -0.00452781
v -0.00381428 -0.01924108 -0.00452261
f 1 2 3
f 1 3 7
f 1 7 13
f 1 13 19
f 1 19 24
f 1 24 31
f 1 31 37
f 1 37 40
f 1 40 44
f 1 44 47
f 1 47 52
f 1 52 57
f 1 57 56
f 1 56 62
f 1 62 61
f 1 61 68
f 1 68 70
f 1 70 76
f 1 76 75
f 1 75 83
f 1 83 85
f 1 85 90
f 1 90 95
f 1 95 97
f 1 97 103
f 1 103 105
f 1 105 100
f 1 100 99
f 1 99 98
f 1 98 92
f 1 92 86
f 1 86 79
f 1 79 78
f 1 78 72
f 1 72 71
f 1 71 65
f 1 65 58
f 1 58 53
f 1 53 48
f 1 48 42
f 1 42 38
f 1 38 32
f 1 32 25
f 1 25 20
f 1 20 16
f 1 16 14
f 1 14 8
f 1 8 4
f 1 4 6
f 1 6 2
f 2 5 3
f 2 6 10
f 2 10 17
f 2 17 22
f 2 22 27
f 2 27 33
f 2 33 39
f 2 39 43
f 2 43 49
f 2 49 54
f 2 54 60
f 2 60 67
f 2 67 73
f 2 73 82
f 2 82 89
f 2 89 94
f 2 94 101
f 2 101 106
f 2 106 102
f 2 102 96
f 2 96 91
f 2 91 84
f 2 84 77
f 2 77 69
f 2 69 63
f 2 63 55
f 2 55 50
f 2 50 45
f 2 45 41
f 2 41 35
f 2 35 28
f 2 28 23
f 2 23 18
f 2 18 15
f 2 15 9
f 2 9 5
f 3 5 7
f 4 8 6
f 5 9 7
f 6 8 10
f 7 9 11
f 7 11 12
f 7 12 13
f 8 14 10
f 9 15 11
f 10 14 16
f 10 16 17
f 11 15 13
f 11 13 12
f 13 15 18
f 13 18 19
f 16 20 17
f 17 20 21
f 17 21 22
f 18 23 19
f 19 23 24
f 20 25 26
f 20 26 21
f 21 26 25
f 21 25 22
f 22 25 27
f 23 28 29
f 23 29 24
f 24 29 30
f 24 30 31
f 25 32 27
f 27 32 33
f 28 34 31
f 28 31 30
f 28 30 29
f 28 35 34
f 31 34 36
f 31 36 37
f 32 38 39
f 32 39 33
f 34 35 36
f 35 40 37
f 35 37 36
f 35 41 44
f 35 44 40
f 38 42 39
f 39 42 43
f 41 45 46
f 41 46 47
f 41 47 44
f 42 48 43
f 43 48 49
f 45 50 51
f 45 51 52
f 45 52 46
f 46 52 47
f 48 53 49
f 49 53 54
f 50 55 56
f 50 56 57
f 50 57 51
f 51 57 52
f 53 58 59
f 53 59 54
f 54 59 60
f 55 61 62
f 55 62 56
f 55 63 64
f 55 64 61
f 58 65 59
f 59 65 60
f 60 65 66
f 60 66 67
f 61 64 63
f 61 63 68
f 63 69 70
f 63 70 68
f 65 71 66
f 66 71 72
f 66 72 67
f 67 72 78
f 67 78 73
f 69 74 75
f 69 75 76
f 69 76 70
f 69 77 74
f 73 78 79
f 73 79 80
f 73 80 81
f 73 81 82
f 74 77 75
f 75 77 83
f 77 84 85
f 77 85 83
f 79 86 80
f 80 86 81
f 81 86 82
f 82 86 87
f 82 87 88
f 82 88 89
f 84 90 85
f 84 91 95
f 84 95 90
f 86 92 87
f 87 92 88
f 88 92 93
f 88 93 89
f 89 93 94
f 91 96 97
f 91 97 95
f 92 98 93
f 93 98 99
f 93 99 94
f 94 99 100
f 94 100 101
f 96 102 97
f 97 102 103
f 100 104 101
f 100 105 102
f 100 102 104
f 101 104 106
f 102 106 104
f 102 105 103

