# https://github.com/mikedh/trimesh
v 0.00011923 0.00302708 -0.00531191
v -0.00172372 0.00302748 -0.00531191
v 0.00149136 0.00302708 -0.00531191
v 0.00011923 0.00302708 0.00531191
v -0.00172372 0.00569329 -0.00531191
v -0.00172372 0.00302748 0.00531191
v 0.00149136 0.00538726 -0.00531191
v 0.00149136 0.00302708 0.00531191
v -0.00172372 0.00595408 -0.00531087
v 0.00141772 0.00595449 -0.00531087
v 0.00149136 0.00595449 -0.00531087
v -0.00172372 0.00538726 0.00531191
v 0.00149136 0.00546061 0.00531191
v -0.00172372 0.00625562 -0.00525056
v 0.00149136 0.00642514 -0.00520480
v -0.00172372 0.00595408 0.00531087
v 0.00141772 0.00595449 0.00531087
v 0.00149136 0.00595449 0.00531087
v -0.00172372 0.00648137 -0.00519960
v -0.00172372 0.00665211 -0.00510393
v 0.00149136 0.00670101 -0.00501242
v 0.00149136 0.00602458 0.00529631
v -0.00172372 0.00648137 0.00520064
v -0.00172372 0.00673402 -0.00504673
v -0.00172372 0.00684771 -0.00492922
v 0.00149136 0.00694632 -0.00473580
v 0.00149136 0.00642514 0.00520480
v -0.00172372 0.00673442 0.00504777
v 0.00149136 0.00646344 0.00518296
v -0.00172372 0.00696955 -0.00479091
v -0.00172372 0.00711339 -0.00447166
v 0.00149136 0.00710524 -0.00425327
v 0.00149136 0.00670101 0.00501241
v 0.00149136 0.00672709 0.00498538
v -0.00172372 0.00697118 0.00479091
v -0.00172372 0.00718266 -0.00425327
v -0.00172372 0.00718959 -0.00368548
v 0.00149136 0.00711135 -0.00368548
v 0.00149136 0.00694632 0.00473580
v -0.00172372 0.00718266 0.00425327
v 0.00149136 0.00698014 0.00465988
v 0.00149136 0.00711176 -0.00311872
v -0.00172372 0.00718959 0.00368548
v 0.00149136 0.00710524 0.00425327
v 0.00149136 0.00711176 0.00311872
v 0.00149136 0.00710605 0.00417840
v 0.00149136 0.00711135 0.00368548
f 1 2 5
f 1 5 7
f 1 7 3
f 1 3 8
f 1 8 4
f 1 4 6
f 1 6 2
f 2 6 12
f 2 12 16
f 2 16 23
f 2 23 28
f 2 28 35
f 2 35 40
f 2 40 43
f 2 43 37
f 2 37 36
f 2 36 31
f 2 31 30
f 2 30 25
f 2 25 24
f 2 24 20
f 2 20 19
f 2 19 14
f 2 14 9
f 2 9 5
f 3 7 11
f 3 11 15
f 3 15 21
f 3 21 26
f 3 26 32
f 3 32 38
f 3 38 42
f 3 42 45
f 3 45 47
f 3 47 46
f 3 46 44
f 3 44 41
f 3 41 39
f 3 39 34
f 3 34 33
f 3 33 29
f 3 29 27
f 3 27 22
f 3 22 18
f 3 18 13
f 3 13 8
f 4 8 13
f 4 13 12
f 4 12 6
f 5 9 10
f 5 10 11
f 5 11 7
f 9 14 10
f 10 14 11
f 11 14 15
f 12 13 16
f 13 17 16
f 13 18 17
f 14 19 15
f 15 19 20
f 15 20 21
f 16 17 22
f 16 22 23
f 17 18 22
f 20 24 21
f 21 24 25
f 21 25 26
f 22 27 23
f 23 27 29
f 23 29 28
f 25 30 26
f 26 30 31
f 26 31 32
f 28 33 34
f 28 34 35
f 28 29 33
f 31 36 32
f 32 36 37
f 32 37 38
f 34 39 35
f 35 39 41
f 35 41 40
f 37 42 38
f 37 43 45
f 37 45 42
f 40 41 44
f 40 44 43
f 43 44 46
f 43 46 47
f 43 47 45

