# https://github.com/mikedh/trimesh
v 0.01948433 0.00359224 -0.00312600
v 0.01768996 0.00473694 -0.00311872
v 0.01768996 0.00473694 -0.00368548
v 0.01948433 0.00359295 -0.00369276
v 0.01948433 0.00359295 0.00368548
v 0.01768996 0.00473907 0.00255196
v 0.01768996 0.00473836 -0.00385186
v 0.01768996 0.00474191 -0.00425327
v 0.01948433 0.00359792 -0.00425327
v 0.01948433 0.00359792 0.00425327
v 0.01768996 0.00474191 0.00424703
v 0.01768996 0.00474049 0.00403801
v 0.01768996 0.00473978 0.00368548
v 0.01768996 0.00477176 -0.00437494
v 0.01948433 0.00359934 -0.00426159
v 0.01948433 0.00379901 0.00472540
v 0.01920345 0.00390914 0.00460685
v 0.01768996 0.00495579 0.00477531
v 0.01768996 0.00491955 -0.00473892
v 0.01814404 0.00453514 -0.00453925
v 0.01920327 0.00390914 -0.00460685
v 0.01948433 0.00379901 -0.00472540
v 0.01948433 0.00404344 0.00495002
v 0.01768996 0.00519027 0.00502593
v 0.01768996 0.00501903 -0.00485123
v 0.01948433 0.00386580 -0.00479507
v 0.01945376 0.00410810 0.00498434
v 0.01948433 0.00414150 0.00502073
v 0.01948433 0.00434471 0.00516112
v 0.01768996 0.00543612 0.00519128
v 0.01768996 0.00519027 -0.00502593
v 0.01948433 0.00404344 -0.00495002
v 0.01948433 0.00481936 0.00527343
v 0.01768996 0.00595483 0.00530567
v 0.01768996 0.00522580 -0.00505609
v 0.01948433 0.00409531 -0.00499474
v 0.01948433 0.00538780 0.00531087
v 0.01899827 0.00538780 0.00530983
v 0.01786421 0.00595483 0.00531087
v 0.01768996 0.00652185 0.00531191
v 0.01768996 0.00543683 -0.00519024
v 0.01948433 0.00434471 -0.00516112
v 0.01948433 0.00595483 0.00531191
v 0.01843142 0.00595483 0.00531191
v 0.01768996 0.01085124 0.00531191
v 0.01948433 0.00439232 -0.00517880
v 0.01768996 0.00558250 -0.00522768
v 0.01948433 0.01085124 0.00531191
v 0.01768996 0.01085124 -0.00531191
v 0.01948433 0.00481936 -0.00527344
v 0.01768996 0.00595483 -0.00530567
v 0.01948433 0.01085124 -0.00531191
v 0.01768996 0.00652185 -0.00531191
v 0.01948433 0.00490179 -0.00528903
v 0.01768996 0.00612891 -0.00531087
v 0.01786421 0.00595483 -0.00531087
v 0.01899827 0.00538780 -0.00530983
v 0.01948433 0.00546881 -0.00531191
v 0.01843142 0.00595483 -0.00531191
v 0.01948433 0.00538780 -0.00531087
f 1 2 3
f 1 3 4
f 1 4 9
f 1 9 15
f 1 15 22
f 1 22 26
f 1 26 32
f 1 32 36
f 1 36 42
f 1 42 46
f 1 46 50
f 1 50 54
f 1 54 60
f 1 60 58
f 1 58 52
f 1 52 48
f 1 48 43
f 1 43 37
f 1 37 33
f 1 33 29
f 1 29 28
f 1 28 23
f 1 23 16
f 1 16 10
f 1 10 5
f 1 5 2
f 2 5 6
f 2 6 13
f 2 13 12
f 2 12 11
f 2 11 18
f 2 18 24
f 2 24 30
f 2 30 34
f 2 34 40
f 2 40 45
f 2 45 49
f 2 49 53
f 2 53 55
f 2 55 51
f 2 51 47
f 2 47 41
f 2 41 35
f 2 35 31
f 2 31 25
f 2 25 19
f 2 19 14
f 2 14 8
f 2 8 7
f 2 7 3
f 3 7 4
f 4 7 8
f 4 8 9
f 5 10 11
f 5 11 12
f 5 12 13
f 5 13 6
f 8 14 15
f 8 15 9
f 10 16 17
f 10 17 11
f 11 17 18
f 14 19 20
f 14 20 15
f 15 20 21
f 15 21 22
f 16 23 24
f 16 24 18
f 16 18 17
f 19 22 21
f 19 21 20
f 19 25 22
f 22 25 26
f 23 27 24
f 23 28 27
f 24 28 29
f 24 29 30
f 24 27 28
f 25 31 26
f 26 31 32
f 29 33 30
f 30 33 34
f 31 35 36
f 31 36 32
f 33 37 38
f 33 38 34
f 34 38 39
f 34 39 40
f 35 41 42
f 35 42 36
f 37 43 44
f 37 44 39
f 37 39 38
f 39 44 40
f 40 44 43
f 40 43 48
f 40 48 45
f 41 46 42
f 41 47 46
f 45 48 52
f 45 52 49
f 46 47 50
f 47 51 50
f 49 52 58
f 49 58 59
f 49 59 53
f 50 51 54
f 51 55 56
f 51 56 57
f 51 57 54
f 53 59 56
f 53 56 55
f 54 57 60
f 56 59 58
f 56 58 57
f 57 58 60

