# https://github.com/mikedh/trimesh
v -0.00233345 0.02375354 0.00531191
v -0.00233345 0.02126739 0.00531191
v -0.00233345 0.02410226 0.00530567
v -0.00311992 0.02353515 0.00530879
v -0.00368630 0.02296803 0.00531087
v -0.00425365 0.02240091 0.00531191
v -0.00625210 0.01870175 0.00531191
v -0.00595473 0.01870175 0.00529735
v -0.00568475 0.01870175 0.00527967
v -0.00233345 0.02091867 0.00527447
v -0.00233345 0.02432066 0.00529839
v -0.00255257 0.02410226 0.00530255
v -0.00935690 0.01899892 0.00530775
v -0.00765582 0.02013316 0.00530983
v -0.00482100 0.02240091 0.00530463
v -0.00822219 0.01956604 0.00531191
v -0.00908594 0.01870175 0.00531191
v -0.00233345 0.02069240 0.00522456
v -0.00518000 0.01870175 0.00517672
v -0.00233345 0.02049333 0.00516424
v -0.00368630 0.02353515 0.00528071
v -0.00425365 0.02296803 0.00529527
v -0.00233345 0.02469373 0.00524328
v -0.00311992 0.02410226 0.00525888
v -0.00652209 0.02126739 0.00529839
v -0.00878955 0.01956604 0.00530151
v -0.00965329 0.01870175 0.00530879
v -0.01022065 0.01870175 0.00528591
v -0.00878955 0.01899892 0.00531191
v -0.00505675 0.01870175 0.00512785
v -0.00233345 0.02039810 0.00511745
v -0.00595473 0.02183451 0.00528591
v -0.00538836 0.02240091 0.00526616
v -0.00765582 0.02070027 0.00527239
v -0.00822219 0.02013316 0.00529007
v -0.00233345 0.02493647 0.00519856
v -0.00708944 0.02126739 0.00524432
v -0.00935690 0.01956604 0.00525368
v -0.00365402 0.02408866 0.00517256
v -0.00426050 0.02355162 0.00519440
v -0.00992425 0.01899892 0.00527759
v -0.01084180 0.01870175 0.00520064
v -0.00502349 0.01870175 0.00510705
v -0.00233345 0.02030429 0.00502073
v -0.00233345 0.02509973 0.00515696
v -0.00311992 0.02453118 0.00515800
v -0.00821143 0.02070242 0.00518504
v -0.01048965 0.01900966 0.00519024
v -0.00538836 0.02285131 0.00516424
v -0.00988415 0.01954742 0.00516736
v -0.00593321 0.02239518 0.00517880
v -0.01093864 0.01882778 0.00514968
v -0.01099636 0.01870175 0.00517048
v -0.00476036 0.01870175 0.00491362
v -0.00233345 0.02012098 0.00482523
v -0.00242834 0.02506107 0.00514864
v -0.00233345 0.02519783 0.00511433
v -0.00344370 0.02441375 0.00511849
v -0.00572877 0.02272385 0.00512473
v -0.00801481 0.02103539 0.00512993
v -0.01030086 0.01934621 0.00513513
v -0.00935690 0.01997920 0.00515384
v -0.01129764 0.01870175 0.00509769
v -0.00461852 0.01870175 0.00480859
v -0.00443266 0.01870175 0.00464220
v -0.00269147 0.01978801 0.00461829
v -0.00233345 0.01987609 0.00425327
v -0.00280690 0.02492931 0.00509249
v -0.00233345 0.02538401 0.00499370
v -0.00509686 0.02324514 0.00510081
v -0.00738290 0.02155811 0.00510809
v -0.00966796 0.01986893 0.00511433
v -0.01131329 0.01870175 0.00509041
v -0.00436810 0.01870175 0.00451013
v -0.00430550 0.01870175 0.00425327
v -0.00430256 0.01870175 0.00402657
v -0.00233345 0.01987179 0.00369588
v -0.00311992 0.02481474 0.00499578
v -0.00233345 0.02568976 0.00472020
v -0.00538836 0.02313487 0.00501345
v -0.01004653 0.01972429 0.00501345
v -0.01067844 0.01920586 0.00505921
v -0.01150208 0.01870175 0.00497186
v -0.00429865 0.01870175 0.00368548
v -0.00233345 0.01987179 -0.00368548
v -0.00776048 0.02141347 0.00499994
v -0.00245084 0.02565110 0.00467756
v -0.00410007 0.02448034 0.00464532
v -0.00638807 0.02279259 0.00465780
v -0.01032531 0.01993481 0.00463596
v -0.00233345 0.02583369 0.00447790
v -0.01162533 0.01870175 0.00489074
v -0.00429865 0.01870175 -0.00368548
v -0.00430550 0.01870175 -0.00425327
v -0.00233345 0.01987609 -0.00425327
v -0.00346523 0.02499805 0.00459229
v -0.00282842 0.02551433 0.00451741
v -0.00575225 0.02330959 0.00460789
v -0.00803829 0.02162256 0.00462244
v -0.01197553 0.01876405 0.00459645
v -0.01200585 0.01870175 0.00463388
v -0.01162533 0.01889223 0.00471708
v -0.01183076 0.01870175 0.00475347
v -0.00233345 0.02593895 0.00426783
v -0.00443266 0.01870175 -0.00464220
v -0.00269147 0.01978801 -0.00461829
v -0.00233345 0.02002431 -0.00461621
v -0.00511544 0.02382658 0.00454757
v -0.00740148 0.02213955 0.00456525
v -0.00968949 0.02045180 0.00458085
v -0.00289494 0.02556302 0.00413888
v -0.00905268 0.02096808 0.00448102
v -0.01133970 0.01928105 0.00453197
v -0.01213008 0.01870175 0.00445294
v -0.00233345 0.02601700 0.00368548
v -0.00476036 0.01870175 -0.00491362
v -0.00233345 0.02012098 -0.00482523
v -0.00454515 0.02439155 0.00399537
v -0.00683218 0.02270380 0.00405049
v -0.00911822 0.02101677 0.00410352
v -0.01140524 0.01932902 0.00415448
v -0.01205868 0.01882492 0.00425327
v -0.01222595 0.01870175 0.00425327
v -0.01232670 0.01870175 0.00368548
v -0.00233345 0.02601700 -0.00368548
v -0.00505675 0.01870175 -0.00512785
v -0.00233345 0.02039810 -0.00511745
v -0.01229833 0.01870175 0.00384562
v -0.01232670 0.01870175 -0.00368548
v -0.00233345 0.02597046 -0.00404113
v -0.00289494 0.02556302 -0.00414200
v -0.00454515 0.02439155 -0.00399537
v -0.00540205 0.01870175 -0.00522040
v -0.00233345 0.02069240 -0.00522456
v -0.00683218 0.02270380 -0.00405153
v -0.00911822 0.02101677 -0.00410561
v -0.01140524 0.01932902 -0.00415552
v -0.01222693 0.01870175 -0.00425327
v -0.00233345 0.02593967 -0.00426783
v -0.00260539 0.02573416 -0.00430007
v -0.00282940 0.02551505 -0.00452053
v -0.00905366 0.02096880 -0.00448310
v -0.00595473 0.01870175 -0.00529735
v -0.00255257 0.02070027 -0.00525056
v -0.00233345 0.02126739 -0.00531191
v -0.01134068 0.01928176 -0.00453405
v -0.01197553 0.01876405 -0.00459749
v -0.01200585 0.01870175 -0.00463388
v -0.00233345 0.02569120 -0.00471812
v -0.00245181 0.02565181 -0.00467548
v -0.00511642 0.02382730 -0.00454861
v -0.00346523 0.02499805 -0.00459333
v -0.00652209 0.01870175 -0.00531191
v -0.00595473 0.01899892 -0.00531191
v -0.00233345 0.02353515 -0.00531191
v -0.00968949 0.02045180 -0.00458189
v -0.00575225 0.02331030 -0.00460789
v -0.00803829 0.02162256 -0.00462245
v -0.01032531 0.01993481 -0.00463596
v -0.01162533 0.01889294 -0.00471604
v -0.01162533 0.01870175 -0.00488866
v -0.00233345 0.02556374 -0.00483147
v -0.00382031 0.02426911 -0.00502385
v -0.00410105 0.02448034 -0.00464532
v -0.00878955 0.01870175 -0.00531191
v -0.00233345 0.02410226 -0.00530567
v -0.00255257 0.02353515 -0.00531191
v -0.00638905 0.02279259 -0.00465780
v -0.01004555 0.01972500 -0.00501450
v -0.01130938 0.01870175 -0.00508729
v -0.00233345 0.02538186 -0.00499162
v -0.00280005 0.02492287 -0.00508937
v -0.00509099 0.02324013 -0.00509873
v -0.00737997 0.02155596 -0.00510705
v -0.00775853 0.02141347 -0.00500098
v -0.00878955 0.01899892 -0.00531191
v -0.00935690 0.01870175 -0.00530983
v -0.00311992 0.02353515 -0.00530879
v -0.00255257 0.02410226 -0.00530151
v -0.00233345 0.02469158 -0.00524224
v -0.00425365 0.02240091 -0.00531191
v -0.00368630 0.02296803 -0.00531087
v -0.01067648 0.01920443 -0.00505817
v -0.00966699 0.01986821 -0.00511433
v -0.01029890 0.01934692 -0.00513409
v -0.01093571 0.01882635 -0.00514968
v -0.01099342 0.01870175 -0.00517048
v -0.00233345 0.02509615 -0.00515696
v -0.00242149 0.02505892 -0.00514865
v -0.00344175 0.02441303 -0.00511849
v -0.00822219 0.01956604 -0.00531191
v -0.00935690 0.01899892 -0.00530775
v -0.00992425 0.01870175 -0.00529527
v -0.00765582 0.02013316 -0.00530983
v -0.00708944 0.02070027 -0.00530567
v -0.00652209 0.02126739 -0.00529839
v -0.00425365 0.02296803 -0.00529527
v -0.00368630 0.02353515 -0.00528175
v -0.00311992 0.02410226 -0.00525784
v -0.00258778 0.02470805 -0.00520688
v -0.00801286 0.02103539 -0.00512993
v -0.00988317 0.01954742 -0.00516632
v -0.01048867 0.01900894 -0.00519128
v -0.00992425 0.01899892 -0.00527760
v -0.01048965 0.01870175 -0.00524536
v -0.00365304 0.02408866 -0.00517152
v -0.00311992 0.02452545 -0.00515696
v -0.00878955 0.01956604 -0.00530047
v -0.00822219 0.02013316 -0.00529007
v -0.00595473 0.02183451 -0.00528591
v -0.00765582 0.02070027 -0.00527136
v -0.00538836 0.02240091 -0.00526512
v -0.00935690 0.01956604 -0.00525264
v -0.00708944 0.02126739 -0.00524328
v -0.00425854 0.02355018 -0.00519440
v -0.00538836 0.02284701 -0.00516320
v -0.00593224 0.02239518 -0.00517880
v -0.00821045 0.02070242 -0.00518504
f 1 2 10
f 1 10 18
f 1 18 20
f 1 20 31
f 1 31 44
f 1 44 55
f 1 55 67
f 1 67 77
f 1 77 85
f 1 85 95
f 1 95 107
f 1 107 117
f 1 117 127
f 1 127 134
f 1 134 145
f 1 145 155
f 1 155 166
f 1 166 180
f 1 180 188
f 1 188 171
f 1 171 162
f 1 162 149
f 1 149 139
f 1 139 130
f 1 130 125
f 1 125 115
f 1 115 104
f 1 104 91
f 1 91 79
f 1 79 69
f 1 69 57
f 1 57 45
f 1 45 36
f 1 36 23
f 1 23 11
f 1 11 3
f 1 3 4
f 1 4 5
f 1 5 6
f 1 6 16
f 1 16 29
f 1 29 17
f 1 17 7
f 1 7 2
f 2 7 8
f 2 8 9
f 2 9 10
f 3 11 12
f 3 12 4
f 4 13 14
f 4 14 16
f 4 16 5
f 4 12 15
f 4 15 13
f 5 16 6
f 7 17 27
f 7 27 28
f 7 28 42
f 7 42 53
f 7 53 63
f 7 63 73
f 7 73 83
f 7 83 92
f 7 92 103
f 7 103 101
f 7 101 114
f 7 114 123
f 7 123 128
f 7 128 124
f 7 124 129
f 7 129 138
f 7 138 148
f 7 148 161
f 7 161 170
f 7 170 187
f 7 187 205
f 7 205 193
f 7 193 177
f 7 177 165
f 7 165 153
f 7 153 143
f 7 143 133
f 7 133 126
f 7 126 116
f 7 116 105
f 7 105 94
f 7 94 93
f 7 93 84
f 7 84 76
f 7 76 75
f 7 75 74
f 7 74 65
f 7 65 64
f 7 64 54
f 7 54 43
f 7 43 30
f 7 30 19
f 7 19 9
f 7 9 8
f 9 18 10
f 9 19 20
f 9 20 18
f 11 21 22
f 11 22 12
f 11 23 24
f 11 24 21
f 12 22 25
f 12 25 26
f 12 26 15
f 13 27 16
f 13 16 14
f 13 15 26
f 13 26 28
f 13 28 27
f 16 27 29
f 17 29 27
f 19 30 31
f 19 31 20
f 21 32 22
f 21 24 33
f 21 33 34
f 21 34 32
f 22 32 35
f 22 35 25
f 23 36 24
f 24 37 38
f 24 38 33
f 24 36 39
f 24 39 40
f 24 40 37
f 25 35 26
f 26 35 28
f 28 35 41
f 28 41 42
f 30 43 31
f 31 43 44
f 32 34 41
f 32 41 35
f 33 38 34
f 34 38 41
f 36 45 46
f 36 46 39
f 37 40 47
f 37 47 38
f 38 47 48
f 38 48 42
f 38 42 41
f 39 49 50
f 39 50 51
f 39 51 47
f 39 47 40
f 39 46 49
f 42 48 52
f 42 52 53
f 43 54 55
f 43 55 44
f 45 56 46
f 45 57 56
f 46 56 58
f 46 58 59
f 46 59 60
f 46 60 61
f 46 61 62
f 46 62 49
f 47 51 50
f 47 50 48
f 48 50 52
f 49 62 50
f 50 62 61
f 50 61 52
f 52 61 63
f 52 63 53
f 54 64 55
f 55 64 65
f 55 65 66
f 55 66 67
f 56 57 68
f 56 68 58
f 57 69 68
f 58 68 70
f 58 70 71
f 58 71 72
f 58 72 59
f 59 72 60
f 60 72 61
f 61 72 63
f 63 72 71
f 63 71 73
f 65 74 67
f 65 67 66
f 67 74 75
f 67 75 76
f 67 76 77
f 68 69 78
f 68 78 70
f 69 79 78
f 70 78 80
f 70 80 81
f 70 81 82
f 70 82 73
f 70 73 71
f 73 82 83
f 76 84 77
f 77 84 93
f 77 93 85
f 78 86 80
f 78 79 87
f 78 87 88
f 78 88 89
f 78 89 90
f 78 90 86
f 79 91 87
f 80 86 81
f 81 86 90
f 81 90 92
f 81 92 83
f 81 83 82
f 85 93 94
f 85 94 95
f 87 96 88
f 87 91 97
f 87 97 96
f 88 96 98
f 88 98 99
f 88 99 90
f 88 90 89
f 90 99 100
f 90 100 101
f 90 101 102
f 90 102 103
f 90 103 92
f 91 104 97
f 94 105 95
f 95 105 106
f 95 106 107
f 96 97 108
f 96 108 109
f 96 109 110
f 96 110 98
f 97 104 111
f 97 111 112
f 97 112 113
f 97 113 108
f 98 110 100
f 98 100 99
f 100 110 113
f 100 113 114
f 100 114 101
f 101 103 102
f 104 115 111
f 105 116 117
f 105 117 106
f 106 117 107
f 108 113 109
f 109 113 110
f 111 115 118
f 111 118 119
f 111 119 113
f 111 113 112
f 113 119 120
f 113 120 121
f 113 121 122
f 113 122 123
f 113 123 114
f 115 124 118
f 115 125 129
f 115 129 124
f 116 126 117
f 117 126 127
f 118 124 119
f 119 124 120
f 120 124 121
f 121 124 128
f 121 128 123
f 121 123 122
f 125 130 131
f 125 131 132
f 125 132 129
f 126 133 127
f 127 133 134
f 129 132 135
f 129 135 136
f 129 136 137
f 129 137 138
f 130 139 131
f 131 135 132
f 131 139 140
f 131 140 141
f 131 141 142
f 131 142 135
f 133 143 134
f 134 143 144
f 134 144 145
f 135 142 136
f 136 142 146
f 136 146 137
f 137 146 138
f 138 146 147
f 138 147 148
f 139 141 140
f 139 149 150
f 139 150 141
f 141 151 146
f 141 146 142
f 141 150 152
f 141 152 151
f 143 153 154
f 143 154 145
f 143 145 144
f 145 154 153
f 145 153 165
f 145 165 176
f 145 176 191
f 145 191 181
f 145 181 167
f 145 167 155
f 146 151 156
f 146 156 147
f 147 152 157
f 147 157 158
f 147 158 159
f 147 159 160
f 147 160 148
f 147 156 152
f 148 160 161
f 149 162 163
f 149 163 150
f 150 163 164
f 150 164 152
f 151 152 156
f 152 164 157
f 155 167 166
f 157 164 158
f 158 164 159
f 159 164 168
f 159 168 169
f 159 169 160
f 160 169 161
f 161 169 170
f 162 171 163
f 163 171 172
f 163 172 173
f 163 173 174
f 163 174 169
f 163 169 175
f 163 175 164
f 164 175 168
f 165 177 176
f 166 167 178
f 166 178 179
f 166 179 180
f 167 181 182
f 167 182 178
f 168 175 169
f 169 174 183
f 169 183 170
f 170 183 174
f 170 174 184
f 170 184 185
f 170 185 186
f 170 186 187
f 171 188 189
f 171 189 172
f 172 189 190
f 172 190 173
f 173 190 174
f 174 190 184
f 176 177 192
f 176 192 191
f 177 193 192
f 178 182 191
f 178 191 194
f 178 194 192
f 178 192 195
f 178 195 196
f 178 196 179
f 179 196 197
f 179 197 198
f 179 198 199
f 179 199 180
f 180 199 200
f 180 200 188
f 181 191 182
f 184 190 201
f 184 201 185
f 185 201 202
f 185 202 186
f 186 202 203
f 186 203 187
f 187 203 204
f 187 204 205
f 188 200 206
f 188 206 207
f 188 207 189
f 189 207 190
f 190 207 201
f 191 192 194
f 192 193 204
f 192 204 208
f 192 208 196
f 192 196 195
f 193 205 204
f 196 208 209
f 196 209 197
f 197 209 210
f 197 210 198
f 198 210 204
f 198 204 211
f 198 211 212
f 198 212 199
f 199 212 213
f 199 213 214
f 199 214 215
f 199 215 206
f 199 206 200
f 201 207 216
f 201 216 202
f 202 216 206
f 202 206 217
f 202 217 218
f 202 218 203
f 203 218 214
f 203 214 213
f 203 213 204
f 204 212 211
f 204 210 209
f 204 209 208
f 204 213 212
f 206 215 217
f 206 216 207
f 214 218 217
f 214 217 215

