# https://github.com/mikedh/trimesh
v -0.00772188 -0.01009074 -0.00311872
v -0.00992305 -0.00969558 -0.00368548
v -0.00772188 -0.01009015 -0.00368548
v -0.00772188 -0.01009074 0.00311872
v -0.00992305 -0.00969383 -0.00425327
v -0.00992305 -0.00969558 0.00368548
v -0.00772188 -0.01008488 -0.00425327
v -0.00772188 -0.01009015 0.00368548
v -0.00992305 -0.00966631 -0.00457877
v -0.00992305 -0.00969383 0.00425327
v -0.00772188 -0.01006966 -0.00430007
v -0.00772188 -0.01008547 0.00419504
v -0.00992305 -0.00943039 -0.00486163
v -0.00772188 -0.00987413 -0.00478363
v -0.00772188 -0.01008488 0.00425327
v -0.00992305 -0.00966631 0.00457877
v -0.00772188 -0.00982262 -0.00484187
v -0.00992305 -0.00914705 -0.00516216
v -0.00772188 -0.00987413 0.00478363
v -0.00992305 -0.00943039 0.00486163
v -0.00772188 -0.00960192 -0.00507481
v -0.00992305 -0.00879112 -0.00526720
v -0.00772188 -0.00936014 -0.00519856
v -0.00772188 -0.00971198 0.00495522
v -0.00992305 -0.00914647 0.00516320
v -0.00879036 -0.00878995 -0.00529631
v -0.00992305 -0.00822444 -0.00531087
v -0.00772188 -0.00929282 -0.00521312
v -0.00781022 -0.00958377 0.00506129
v -0.00772188 -0.00948132 0.00512993
v -0.00772188 -0.00936014 0.00519856
v -0.00992305 -0.00878995 0.00526720
v -0.00822327 -0.00878995 -0.00530983
v -0.00992305 -0.00765717 -0.00531191
v -0.00935725 -0.00822268 -0.00531191
v -0.00772188 -0.00872380 -0.00531191
v -0.00772188 -0.00878995 -0.00531087
v -0.00879036 -0.00878995 0.00529631
v -0.00772188 -0.00878995 0.00531087
v -0.00822327 -0.00878995 0.00530983
v -0.00992305 -0.00822268 0.00531191
v -0.00822327 -0.00538811 -0.00531087
v -0.00935725 -0.00708932 -0.00531191
v -0.00992305 -0.00709049 -0.00527240
v -0.00772188 -0.00411015 -0.00528903
v -0.00772188 -0.00423601 -0.00529631
v -0.00772188 -0.00425826 -0.00529735
v -0.00772188 -0.00595479 -0.00531191
v -0.00772188 -0.00822268 0.00531191
v -0.00992305 -0.00765600 0.00531191
v -0.00772188 -0.00538811 -0.00531087
v -0.00822327 -0.00595479 -0.00531191
v -0.00879036 -0.00652206 -0.00531191
v -0.00772188 -0.00482084 -0.00530567
v -0.00992305 -0.00707234 -0.00526928
v -0.00818341 -0.00411015 -0.00519128
v -0.00772188 -0.00411015 0.00529215
v -0.00772188 -0.00545368 0.00531191
v -0.00822327 -0.00538811 0.00531087
v -0.00772188 -0.00431973 0.00530567
v -0.00992305 -0.00708932 0.00527239
v -0.00935725 -0.00708932 0.00531191
v -0.00992305 -0.00658645 -0.00516008
v -0.00842752 -0.00411015 -0.00503425
v -0.00806038 -0.00411015 0.00522248
v -0.00772188 -0.00488641 0.00531087
v -0.00822327 -0.00595479 0.00531191
v -0.00879036 -0.00652206 0.00531191
v -0.00818341 -0.00411015 0.00519128
v -0.00992305 -0.00707234 0.00526928
v -0.00992305 -0.00652147 -0.00511745
v -0.00992305 -0.00611578 -0.00484395
v -0.00866087 -0.00411015 -0.00478467
v -0.00841481 -0.00411015 0.00504465
v -0.00992305 -0.00660050 0.00516632
v -0.00992305 -0.00602738 -0.00477115
v -0.00907348 -0.00453750 -0.00452157
v -0.00888215 -0.00411015 -0.00428551
v -0.00842752 -0.00411015 0.00503425
v -0.00992305 -0.00658645 0.00516008
v -0.00992305 -0.00574228 -0.00425327
v -0.00970953 -0.00558481 -0.00461413
v -0.00992305 -0.00573936 -0.00403593
v -0.00888366 -0.00411015 -0.00410561
v -0.00858460 -0.00411015 0.00486995
v -0.00992305 -0.00633941 0.00502073
v -0.00992305 -0.00573584 -0.00368548
v -0.00888495 -0.00411015 -0.00368548
v -0.00866087 -0.00411015 0.00478467
v -0.00992305 -0.00605255 0.00479403
v -0.00888517 -0.00411015 -0.00311872
v -0.00992305 -0.00573584 0.00368548
v -0.00885048 -0.00411015 0.00441550
v -0.00992305 -0.00602738 0.00477115
v -0.00888517 -0.00411015 0.00325703
v -0.00992305 -0.00573819 0.00390386
v -0.00888215 -0.00411015 0.00428551
v -0.00888495 -0.00411015 0.00368548
v -0.00992305 -0.00577214 0.00437390
v -0.00970953 -0.00558481 0.00461413
v -0.00992305 -0.00574228 0.00425327
f 1 2 3
f 1 3 7
f 1 7 11
f 1 11 14
f 1 14 17
f 1 17 21
f 1 21 23
f 1 23 28
f 1 28 37
f 1 37 36
f 1 36 48
f 1 48 51
f 1 51 54
f 1 54 47
f 1 47 46
f 1 46 45
f 1 45 57
f 1 57 60
f 1 60 66
f 1 66 58
f 1 58 49
f 1 49 39
f 1 39 31
f 1 31 30
f 1 30 24
f 1 24 19
f 1 19 15
f 1 15 12
f 1 12 8
f 1 8 4
f 1 4 6
f 1 6 2
f 2 5 3
f 2 6 10
f 2 10 16
f 2 16 20
f 2 20 25
f 2 25 32
f 2 32 41
f 2 41 50
f 2 50 61
f 2 61 70
f 2 70 75
f 2 75 80
f 2 80 86
f 2 86 90
f 2 90 94
f 2 94 99
f 2 99 101
f 2 101 96
f 2 96 92
f 2 92 87
f 2 87 83
f 2 83 81
f 2 81 76
f 2 76 72
f 2 72 71
f 2 71 63
f 2 63 55
f 2 55 44
f 2 44 34
f 2 34 27
f 2 27 22
f 2 22 18
f 2 18 13
f 2 13 9
f 2 9 5
f 3 5 7
f 4 8 6
f 5 9 7
f 6 8 10
f 7 9 11
f 8 12 10
f 9 13 14
f 9 14 11
f 10 12 15
f 10 15 16
f 13 17 14
f 13 18 17
f 15 19 16
f 16 19 20
f 17 18 21
f 18 22 23
f 18 23 21
f 19 24 25
f 19 25 20
f 22 26 23
f 22 27 26
f 23 26 28
f 24 29 25
f 24 30 29
f 25 30 31
f 25 31 32
f 25 29 30
f 26 27 33
f 26 33 28
f 27 34 35
f 27 35 36
f 27 36 33
f 28 33 37
f 31 38 32
f 31 39 40
f 31 40 38
f 32 38 41
f 33 36 37
f 34 42 43
f 34 43 53
f 34 53 52
f 34 52 48
f 34 48 36
f 34 36 35
f 34 44 45
f 34 45 46
f 34 46 47
f 34 47 42
f 38 40 41
f 39 49 41
f 39 41 40
f 41 49 58
f 41 58 67
f 41 67 68
f 41 68 62
f 41 62 50
f 42 51 48
f 42 48 52
f 42 52 53
f 42 53 43
f 42 47 54
f 42 54 51
f 44 55 56
f 44 56 45
f 45 56 64
f 45 64 73
f 45 73 78
f 45 78 84
f 45 84 88
f 45 88 91
f 45 91 95
f 45 95 98
f 45 98 97
f 45 97 93
f 45 93 89
f 45 89 85
f 45 85 79
f 45 79 74
f 45 74 69
f 45 69 65
f 45 65 57
f 50 59 60
f 50 60 57
f 50 57 61
f 50 62 59
f 55 63 56
f 56 63 64
f 57 65 61
f 58 66 67
f 59 66 60
f 59 62 68
f 59 68 66
f 61 65 69
f 61 69 70
f 63 71 64
f 64 71 72
f 64 72 73
f 66 68 67
f 69 74 75
f 69 75 70
f 72 76 73
f 73 76 77
f 73 77 78
f 74 79 80
f 74 80 75
f 76 81 82
f 76 82 77
f 77 82 78
f 78 82 81
f 78 81 83
f 78 83 84
f 79 85 86
f 79 86 80
f 83 87 84
f 84 87 88
f 85 89 86
f 86 89 90
f 87 91 88
f 87 92 95
f 87 95 91
f 89 93 94
f 89 94 90
f 92 96 97
f 92 97 98
f 92 98 95
f 93 97 99
f 93 99 100
f 93 100 94
f 94 100 99
f 96 101 97
f 97 101 99

