# https://github.com/mikedh/trimesh
v 0.02151749 -0.01621303 0.00368548
v 0.02151200 -0.01621303 0.00376659
v 0.02103070 -0.01772882 0.00368548
v 0.02151749 -0.01621303 -0.00368548
v 0.02101474 -0.01767925 0.00411704
v 0.02084266 -0.01831424 0.00368548
v 0.02145116 -0.01621303 0.00426471
v 0.02103070 -0.01772882 -0.00368548
v 0.02101474 -0.01767925 -0.00412120
v 0.02145913 -0.01621303 -0.00420752
v 0.02077682 -0.01831424 0.00425951
v 0.02097284 -0.01755027 0.00449453
v 0.02084266 -0.01831424 -0.00368548
v 0.02143170 -0.01621303 0.00431151
v 0.02103319 -0.01717241 0.00460997
v 0.02077832 -0.01831424 -0.00425951
v 0.02097384 -0.01755356 -0.00449973
v 0.02145215 -0.01621303 -0.00426679
v 0.02062221 -0.01831424 0.00462036
v 0.02055587 -0.01831424 0.00473580
v 0.02114441 -0.01621303 0.00482315
v 0.02110252 -0.01672995 0.00469732
v 0.02055737 -0.01831424 -0.00473580
v 0.02103369 -0.01717570 -0.00460997
v 0.02110401 -0.01672995 -0.00469628
v 0.02114591 -0.01621303 -0.00482211
v 0.02034839 -0.01798615 0.00506233
v 0.02029153 -0.01831424 0.00501033
v 0.02091847 -0.01621303 0.00506233
v 0.02049552 -0.01831424 -0.00480027
v 0.02090950 -0.01626384 -0.00505401
v 0.02099030 -0.01621303 -0.00498538
v 0.02042370 -0.01760807 0.00510913
v 0.02008254 -0.01831424 0.00514137
v 0.02068356 -0.01621303 0.00517360
v 0.02046560 -0.01729685 0.00513201
v 0.02029302 -0.01831424 -0.00500930
v 0.02034988 -0.01798512 -0.00506025
v 0.02042370 -0.01760705 -0.00510913
v 0.02046560 -0.01729685 -0.00513305
v 0.02084416 -0.01621303 -0.00509457
v 0.02001870 -0.01831424 0.00517152
v 0.02061522 -0.01621303 0.00519024
v 0.02013242 -0.01729685 0.00523392
v 0.02054540 -0.01672995 0.00516736
v 0.02002020 -0.01831424 -0.00517464
v 0.02054640 -0.01672995 -0.00516944
v 0.02068455 -0.01621303 -0.00517464
v 0.01967755 -0.01831424 0.00525576
v 0.02013242 -0.01621303 0.00529319
v 0.02013242 -0.01672995 0.00527135
v 0.01956533 -0.01831424 0.00527863
v 0.01956533 -0.01831424 -0.00528175
v 0.02013242 -0.01729685 -0.00523392
v 0.02013242 -0.01672995 -0.00527344
v 0.02013242 -0.01621303 -0.00529423
v 0.02008205 -0.01621303 0.00529631
v 0.01956533 -0.01729685 0.00530879
v 0.01956533 -0.01786396 0.00529735
v 0.01911494 -0.01831424 0.00530879
v 0.01899823 -0.01831424 -0.00531191
v 0.01956533 -0.01786396 -0.00529943
v 0.01956533 -0.01729685 -0.00530879
v 0.01956533 -0.01672995 -0.00531191
v 0.01956533 -0.01621303 -0.00531191
v 0.01956533 -0.01621303 0.00531191
v 0.01956533 -0.01672995 0.00531191
v 0.01899823 -0.01831424 0.00531191
v 0.01786454 -0.01831424 -0.00531191
v 0.01786454 -0.01621303 -0.00531191
v 0.01786454 -0.01621303 0.00531191
v 0.01786454 -0.01831424 0.00531191
v 0.01728996 -0.01831424 -0.00524432
v 0.01740119 -0.01621303 -0.00520792
v 0.01739869 -0.01621303 0.00520792
v 0.01728996 -0.01831424 0.00524432
v 0.01741415 -0.01831424 0.00526823
v 0.01696477 -0.01831424 -0.00514137
v 0.01711739 -0.01621303 -0.00501866
v 0.01737325 -0.01621303 0.00519128
v 0.01696477 -0.01831424 0.00514137
v 0.01701514 -0.01831424 0.00516216
v 0.01666002 -0.01831424 -0.00481379
v 0.01686601 -0.01621303 -0.00473476
v 0.01711489 -0.01621303 0.00502177
v 0.01672436 -0.01831424 0.00488450
v 0.01661663 -0.01831424 -0.00471916
v 0.01642610 -0.01831424 -0.00425327
v 0.01671239 -0.01621303 -0.00425327
v 0.01686402 -0.01621303 0.00473788
v 0.01666002 -0.01831424 0.00481379
v 0.01642460 -0.01831424 -0.00401929
v 0.01670591 -0.01621303 -0.00368548
v 0.01670641 -0.01621303 -0.00373539
v 0.01685005 -0.01621303 0.00469524
v 0.01644306 -0.01831424 0.00436454
v 0.01642261 -0.01831424 -0.00368548
v 0.01670142 -0.01621303 0.00363556
v 0.01670790 -0.01621303 0.00425327
v 0.01642610 -0.01831424 0.00425327
v 0.01642261 -0.01831424 0.00368548
v 0.01670142 -0.01621303 0.00368548
v 0.01670690 -0.01621303 0.00420232
v 0.01642361 -0.01831424 0.00392050
f 1 2 3
f 1 3 8
f 1 8 4
f 1 4 10
f 1 10 18
f 1 18 26
f 1 26 32
f 1 32 41
f 1 41 48
f 1 48 56
f 1 56 65
f 1 65 70
f 1 70 74
f 1 74 79
f 1 79 84
f 1 84 89
f 1 89 94
f 1 94 93
f 1 93 98
f 1 98 102
f 1 102 103
f 1 103 99
f 1 99 95
f 1 95 90
f 1 90 85
f 1 85 80
f 1 80 75
f 1 75 71
f 1 71 66
f 1 66 57
f 1 57 50
f 1 50 43
f 1 43 35
f 1 35 29
f 1 29 21
f 1 21 14
f 1 14 7
f 1 7 2
f 2 5 6
f 2 6 3
f 2 7 5
f 3 6 13
f 3 13 8
f 4 8 9
f 4 9 10
f 5 11 6
f 5 7 12
f 5 12 11
f 6 11 19
f 6 19 20
f 6 20 28
f 6 28 34
f 6 34 42
f 6 42 49
f 6 49 52
f 6 52 60
f 6 60 68
f 6 68 72
f 6 72 77
f 6 77 76
f 6 76 82
f 6 82 81
f 6 81 86
f 6 86 91
f 6 91 96
f 6 96 100
f 6 100 104
f 6 104 101
f 6 101 97
f 6 97 92
f 6 92 88
f 6 88 87
f 6 87 83
f 6 83 78
f 6 78 73
f 6 73 69
f 6 69 61
f 6 61 53
f 6 53 46
f 6 46 37
f 6 37 30
f 6 30 23
f 6 23 16
f 6 16 13
f 7 14 15
f 7 15 12
f 8 13 9
f 9 13 16
f 9 16 17
f 9 17 18
f 9 18 10
f 11 12 19
f 12 15 20
f 12 20 19
f 14 21 22
f 14 22 15
f 15 22 20
f 16 23 17
f 17 23 24
f 17 24 18
f 18 24 25
f 18 25 26
f 20 22 27
f 20 27 28
f 21 29 22
f 22 29 27
f 23 30 25
f 23 25 24
f 25 30 31
f 25 31 26
f 26 31 32
f 27 29 33
f 27 33 34
f 27 34 28
f 29 35 36
f 29 36 33
f 30 37 38
f 30 38 31
f 31 38 39
f 31 39 40
f 31 40 41
f 31 41 32
f 33 36 42
f 33 42 34
f 35 43 44
f 35 44 45
f 35 45 36
f 36 45 42
f 37 46 38
f 38 46 39
f 39 46 40
f 40 46 47
f 40 47 48
f 40 48 41
f 42 45 44
f 42 44 49
f 43 50 51
f 43 51 44
f 44 51 52
f 44 52 49
f 46 53 54
f 46 54 47
f 47 54 48
f 48 54 55
f 48 55 56
f 50 57 58
f 50 58 59
f 50 59 52
f 50 52 51
f 52 59 60
f 53 55 54
f 53 61 62
f 53 62 56
f 53 56 55
f 56 62 63
f 56 63 64
f 56 64 65
f 57 66 67
f 57 67 58
f 58 60 59
f 58 67 68
f 58 68 60
f 61 69 70
f 61 70 65
f 61 65 64
f 61 64 63
f 61 63 62
f 66 71 72
f 66 72 68
f 66 68 67
f 69 73 70
f 70 73 74
f 71 75 76
f 71 76 77
f 71 77 72
f 73 78 74
f 74 78 79
f 75 80 81
f 75 81 82
f 75 82 76
f 78 83 79
f 79 83 84
f 80 85 81
f 81 85 86
f 83 87 84
f 84 87 88
f 84 88 89
f 85 90 91
f 85 91 86
f 88 92 93
f 88 93 94
f 88 94 89
f 90 95 96
f 90 96 91
f 92 97 93
f 93 97 98
f 95 99 96
f 96 99 100
f 97 101 102
f 97 102 98
f 99 103 100
f 100 103 102
f 100 102 104
f 101 104 102

