# https://github.com/mikedh/trimesh
v -0.01774347 -0.01475373 -0.00528903
v -0.01774347 -0.01446125 -0.00530151
v -0.01729671 -0.01389415 -0.00530151
v -0.01729671 -0.01446125 -0.00526512
v -0.01727459 -0.01475373 -0.00523184
v -0.01774347 -0.01475373 0.00530151
v -0.01774347 -0.01389415 -0.00530879
v -0.01729671 -0.01332705 -0.00531191
v -0.01616269 -0.01162577 -0.00530567
v -0.01615210 -0.01162577 -0.00530359
v -0.01615210 -0.01229369 -0.00521832
v -0.01697364 -0.01475373 -0.00513513
v -0.01615210 -0.01181599 -0.00527967
v -0.01758910 -0.01475373 0.00528903
v -0.01615210 -0.01161504 0.00530567
v -0.01774347 -0.01434039 0.00530879
v -0.01774347 -0.01332705 -0.00531191
v -0.01616269 -0.01105938 -0.00531191
v -0.01615210 -0.01105938 -0.00531087
v -0.01615210 -0.01275996 -0.00507793
v -0.01669761 -0.01475373 -0.00483667
v -0.01729671 -0.01446125 0.00526512
v -0.01727459 -0.01475373 0.00523184
v -0.01615210 -0.01104866 0.00531191
v -0.01729671 -0.01332705 0.00531191
v -0.01709405 -0.01475373 0.00517984
v -0.01615210 -0.01224220 0.00522560
v -0.01774347 -0.01377329 0.00531191
v -0.01774347 -0.00891114 -0.00531191
v -0.01615210 -0.01049229 -0.00531191
v -0.01615210 -0.01324767 -0.00484499
v -0.01639199 -0.01435970 -0.00461205
v -0.01656692 -0.01475373 -0.00454965
v -0.01615210 -0.00935738 0.00531191
v -0.01615210 -0.01229369 0.00521832
v -0.01697364 -0.01475373 0.00513513
v -0.01774347 -0.00935738 0.00531191
v -0.01774347 -0.00879028 -0.00531087
v -0.01615210 -0.00935738 -0.00531191
v -0.01615210 -0.01330488 -0.00481171
v -0.01615210 -0.01384981 -0.00425327
v -0.01645243 -0.01475373 -0.00425327
v -0.01615210 -0.00878957 0.00523912
v -0.01616269 -0.00879028 0.00524016
v -0.01672986 -0.00879028 0.00528071
v -0.01729671 -0.00879028 0.00530671
v -0.01774347 -0.00879028 0.00531087
v -0.01615210 -0.01263266 0.00514137
v -0.01686522 -0.01475373 0.00502073
v -0.01615210 -0.01289583 0.00503633
v -0.01729671 -0.00879028 -0.00530671
v -0.01774347 -0.00831401 -0.00522768
v -0.01672986 -0.00879028 -0.00528071
v -0.01615210 -0.00880101 -0.00524120
v -0.01615210 -0.01386626 -0.00372083
v -0.01645212 -0.01475373 -0.00422104
v -0.01615210 -0.00878313 0.00523704
v -0.01672986 -0.00840769 0.00517672
v -0.01729671 -0.00833332 0.00520272
v -0.01774347 -0.00822247 0.00520688
v -0.01669761 -0.01475373 0.00483667
v -0.01639199 -0.01435970 0.00461205
v -0.01615210 -0.01324767 0.00484499
v -0.01774347 -0.00822247 -0.00520688
v -0.01616269 -0.00879028 -0.00524016
v -0.01615210 -0.00878957 -0.00523912
v -0.01615210 -0.01386698 -0.00368548
v -0.01645040 -0.01475373 -0.00368548
v -0.01615210 -0.00846848 0.00513513
v -0.01616269 -0.00846776 0.00513617
v -0.01774347 -0.00807516 0.00512785
v -0.01645243 -0.01475373 0.00425327
v -0.01615210 -0.01384981 0.00425327
v -0.01615210 -0.01367961 0.00449245
v -0.01615210 -0.01330488 0.00481171
v -0.01615210 -0.01329201 0.00482003
v -0.01774347 -0.00796574 -0.00508313
v -0.01672986 -0.00840769 -0.00517672
v -0.01729671 -0.00833332 -0.00520272
v -0.01615210 -0.00847277 -0.00513721
v -0.01615210 -0.01386698 0.00368548
v -0.01645040 -0.01475373 0.00368548
v -0.01615210 -0.00815454 0.00478051
v -0.01774347 -0.00769113 0.00480443
v -0.01774347 -0.00785561 0.00497082
v -0.01766060 -0.00798648 0.00506753
v -0.01615210 -0.00846848 -0.00513513
v -0.01616269 -0.00846776 -0.00513617
v -0.01774347 -0.00774548 -0.00486579
v -0.01615210 -0.00814524 0.00475867
v -0.01636785 -0.00792569 0.00455901
v -0.01774347 -0.00745872 0.00425119
v -0.01774347 -0.00769113 -0.00480443
v -0.01615210 -0.00815454 -0.00478051
v -0.01615210 -0.00795001 0.00425327
v -0.01774347 -0.00744870 0.00368548
v -0.01774347 -0.00745943 -0.00425431
v -0.01636785 -0.00792569 -0.00455901
v -0.01615210 -0.00795573 -0.00435727
v -0.01615210 -0.00794715 0.00368548
v -0.01774347 -0.00744799 0.00311872
v -0.01774347 -0.00745514 -0.00403905
v -0.01615210 -0.00795001 -0.00425327
v -0.01615210 -0.00794715 -0.00368548
v -0.01774347 -0.00744799 -0.00312184
v -0.01774347 -0.00744870 -0.00368964
v -0.01615210 -0.00794786 -0.00391322
f 1 2 3
f 1 3 4
f 1 4 5
f 1 5 12
f 1 12 21
f 1 21 33
f 1 33 42
f 1 42 56
f 1 56 68
f 1 68 82
f 1 82 72
f 1 72 61
f 1 61 49
f 1 49 36
f 1 36 26
f 1 26 23
f 1 23 14
f 1 14 6
f 1 6 16
f 1 16 28
f 1 28 37
f 1 37 47
f 1 47 60
f 1 60 71
f 1 71 85
f 1 85 84
f 1 84 92
f 1 92 96
f 1 96 101
f 1 101 105
f 1 105 106
f 1 106 102
f 1 102 97
f 1 97 93
f 1 93 89
f 1 89 77
f 1 77 64
f 1 64 52
f 1 52 38
f 1 38 29
f 1 29 17
f 1 17 7
f 1 7 2
f 2 7 8
f 2 8 3
f 3 9 4
f 3 8 9
f 4 9 10
f 4 10 5
f 5 11 12
f 5 10 13
f 5 13 11
f 6 14 15
f 6 15 16
f 7 17 8
f 8 17 29
f 8 29 39
f 8 39 30
f 8 30 18
f 8 18 9
f 9 19 10
f 9 18 19
f 10 19 30
f 10 30 39
f 10 39 54
f 10 54 66
f 10 66 80
f 10 80 87
f 10 87 94
f 10 94 99
f 10 99 103
f 10 103 107
f 10 107 104
f 10 104 100
f 10 100 95
f 10 95 90
f 10 90 83
f 10 83 69
f 10 69 57
f 10 57 43
f 10 43 34
f 10 34 24
f 10 24 15
f 10 15 27
f 10 27 35
f 10 35 48
f 10 48 50
f 10 50 63
f 10 63 76
f 10 76 75
f 10 75 74
f 10 74 73
f 10 73 81
f 10 81 67
f 10 67 55
f 10 55 41
f 10 41 40
f 10 40 31
f 10 31 20
f 10 20 11
f 10 11 13
f 11 20 12
f 12 20 21
f 14 22 15
f 14 23 22
f 15 24 25
f 15 25 16
f 15 22 23
f 15 23 26
f 15 26 27
f 16 25 28
f 18 30 19
f 20 31 21
f 21 31 32
f 21 32 33
f 24 34 37
f 24 37 28
f 24 28 25
f 26 35 27
f 26 36 35
f 29 38 39
f 31 40 32
f 32 41 42
f 32 42 33
f 32 40 41
f 34 43 44
f 34 44 45
f 34 45 46
f 34 46 47
f 34 47 37
f 35 36 48
f 36 49 50
f 36 50 48
f 38 51 39
f 38 52 51
f 39 51 53
f 39 53 54
f 41 55 42
f 42 55 56
f 43 57 58
f 43 58 59
f 43 59 44
f 44 59 60
f 44 60 45
f 45 60 46
f 46 60 47
f 49 61 50
f 50 61 62
f 50 62 63
f 51 52 53
f 52 64 53
f 53 65 54
f 53 64 65
f 54 65 66
f 55 67 56
f 56 67 68
f 57 69 70
f 57 70 58
f 58 70 71
f 58 71 60
f 58 60 59
f 61 72 62
f 62 73 74
f 62 74 75
f 62 75 76
f 62 76 63
f 62 72 73
f 64 77 78
f 64 78 79
f 64 79 65
f 65 79 66
f 66 79 78
f 66 78 80
f 67 81 82
f 67 82 68
f 69 83 84
f 69 84 85
f 69 85 86
f 69 86 70
f 70 86 71
f 71 86 85
f 72 82 81
f 72 81 73
f 77 87 88
f 77 88 78
f 77 89 87
f 78 88 80
f 80 88 87
f 83 90 91
f 83 91 84
f 84 91 92
f 87 89 93
f 87 93 94
f 90 95 91
f 91 95 92
f 92 95 96
f 93 97 98
f 93 98 94
f 94 98 99
f 95 100 96
f 96 100 101
f 97 99 98
f 97 102 103
f 97 103 99
f 100 104 105
f 100 105 101
f 102 106 103
f 103 106 107
f 104 107 106
f 104 106 105

