# https://github.com/mikedh/trimesh
v 0.00149136 0.00302668 -0.00531191
v 0.00149136 0.00538797 -0.00531191
v 0.00344769 0.00302668 -0.00531191
v 0.00149136 0.00302668 0.00531191
v 0.00149136 0.00595440 -0.00531087
v 0.00198504 0.00595440 -0.00531191
v 0.00344769 0.00595440 -0.00531191
v 0.00344769 0.00302668 0.00531191
v 0.00149136 0.00546074 0.00531191
v 0.00344769 0.00652178 -0.00530671
v 0.00149136 0.00642523 -0.00520480
v 0.00344769 0.00707156 -0.00521208
v 0.00311908 0.00652178 -0.00530047
v 0.00344769 0.00628303 0.00531191
v 0.00198504 0.00595440 0.00531191
v 0.00149136 0.00595440 0.00531087
v 0.00149136 0.00670107 -0.00501242
v 0.00343945 0.00734216 -0.00508521
v 0.00344769 0.00733408 -0.00509041
v 0.00344769 0.00652178 0.00530671
v 0.00311908 0.00652178 0.00530047
v 0.00344769 0.00689511 0.00525160
v 0.00149136 0.00602479 0.00529631
v 0.00344769 0.00735643 -0.00507585
v 0.00149136 0.00694695 -0.00473580
v 0.00344769 0.00763037 -0.00481379
v 0.00344769 0.00707156 0.00521208
v 0.00149136 0.00642523 0.00520480
v 0.00149136 0.00710532 -0.00425327
v 0.00344769 0.00787910 -0.00425327
v 0.00344769 0.00734502 0.00508625
v 0.00149136 0.00646328 0.00518296
v 0.00149136 0.00711150 -0.00368548
v 0.00344769 0.00787958 -0.00421168
v 0.00344769 0.00753288 0.00491674
v 0.00149136 0.00670107 0.00501241
v 0.00344769 0.00788481 -0.00368548
v 0.00149136 0.00711150 0.00368548
v 0.00344769 0.00763037 0.00481379
v 0.00149136 0.00672723 0.00498538
v 0.00344769 0.00788481 0.00368548
v 0.00149136 0.00710627 0.00417944
v 0.00344769 0.00787910 0.00425327
v 0.00344769 0.00786674 0.00428759
v 0.00149136 0.00694695 0.00473580
v 0.00149136 0.00710532 0.00425327
v 0.00149136 0.00698024 0.00465988
f 1 2 6
f 1 6 7
f 1 7 3
f 1 3 8
f 1 8 4
f 1 4 9
f 1 9 16
f 1 16 23
f 1 23 28
f 1 28 32
f 1 32 36
f 1 36 40
f 1 40 45
f 1 45 47
f 1 47 46
f 1 46 42
f 1 42 38
f 1 38 33
f 1 33 29
f 1 29 25
f 1 25 17
f 1 17 11
f 1 11 5
f 1 5 2
f 2 5 6
f 3 7 10
f 3 10 12
f 3 12 19
f 3 19 24
f 3 24 26
f 3 26 30
f 3 30 34
f 3 34 37
f 3 37 41
f 3 41 43
f 3 43 44
f 3 44 39
f 3 39 35
f 3 35 31
f 3 31 27
f 3 27 22
f 3 22 20
f 3 20 14
f 3 14 8
f 4 8 14
f 4 14 15
f 4 15 9
f 5 10 6
f 5 11 12
f 5 12 13
f 5 13 10
f 6 10 7
f 9 15 16
f 10 13 12
f 11 17 18
f 11 18 19
f 11 19 12
f 14 20 16
f 14 16 15
f 16 20 21
f 16 21 22
f 16 22 23
f 17 24 18
f 17 25 26
f 17 26 24
f 18 24 19
f 20 22 21
f 22 27 23
f 23 27 28
f 25 29 30
f 25 30 26
f 27 31 28
f 28 31 32
f 29 33 34
f 29 34 30
f 31 35 36
f 31 36 32
f 33 37 34
f 33 38 41
f 33 41 37
f 35 39 40
f 35 40 36
f 38 42 43
f 38 43 41
f 39 44 45
f 39 45 40
f 42 46 43
f 43 46 47
f 43 47 44
f 44 47 45

