# https://github.com/mikedh/trimesh
v 0.01777091 -0.01621282 -0.00529055
v 0.01744208 -0.01621282 -0.00521691
v 0.01729320 -0.01453036 -0.00523766
v 0.01735534 -0.01453036 -0.00525010
v 0.01736596 -0.01453036 -0.00525218
v 0.01777091 -0.01493533 -0.00530092
v 0.01777091 -0.01621282 0.00529078
v 0.01740078 -0.01621282 -0.00520758
v 0.01700618 -0.01453036 -0.00514743
v 0.01777091 -0.01453036 -0.00530092
v 0.01777091 -0.01453036 0.00529390
v 0.01729320 -0.01453036 0.00523478
v 0.01739819 -0.01621282 0.00520782
v 0.01711726 -0.01621282 -0.00501883
v 0.01697602 -0.01453036 -0.00513291
v 0.01697809 -0.01453036 0.00513107
v 0.01711467 -0.01621282 0.00502218
v 0.01688850 -0.01621282 -0.00476060
v 0.01667398 -0.01453036 -0.00480001
v 0.01672409 -0.01453036 -0.00485601
v 0.01667567 -0.01453036 0.00479921
v 0.01709253 -0.01621282 0.00499729
v 0.01686611 -0.01621282 -0.00473467
v 0.01646283 -0.01453036 -0.00434888
v 0.01664589 -0.01453036 0.00473491
v 0.01686364 -0.01621282 0.00473802
v 0.01671205 -0.01621282 -0.00425243
v 0.01645235 -0.01453036 -0.00425243
v 0.01645235 -0.01453036 0.00425267
v 0.01684966 -0.01621282 0.00469550
v 0.01670557 -0.01621282 -0.00368618
v 0.01644937 -0.01453036 -0.00388841
v 0.01644846 -0.01453036 0.00368538
v 0.01670130 -0.01621282 0.00368538
v 0.01670751 -0.01621282 0.00425267
v 0.01644846 -0.01453036 -0.00368618
v 0.01670130 -0.01621282 0.00363560
v 0.01644833 -0.01453036 0.00311810
v 0.01644833 -0.01453036 -0.00332424
f 1 2 3
f 1 3 4
f 1 4 5
f 1 5 6
f 1 6 10
f 1 10 11
f 1 11 7
f 1 7 13
f 1 13 17
f 1 17 22
f 1 22 26
f 1 26 30
f 1 30 35
f 1 35 34
f 1 34 37
f 1 37 31
f 1 31 27
f 1 27 23
f 1 23 18
f 1 18 14
f 1 14 8
f 1 8 2
f 2 8 3
f 3 8 9
f 3 9 15
f 3 15 20
f 3 20 19
f 3 19 24
f 3 24 28
f 3 28 32
f 3 32 36
f 3 36 39
f 3 39 38
f 3 38 33
f 3 33 29
f 3 29 25
f 3 25 21
f 3 21 16
f 3 16 12
f 3 12 11
f 3 11 10
f 3 10 5
f 3 5 4
f 5 10 6
f 7 11 12
f 7 12 13
f 8 14 15
f 8 15 9
f 12 16 13
f 13 16 17
f 14 18 19
f 14 19 20
f 14 20 15
f 16 21 17
f 17 21 22
f 18 23 19
f 19 23 24
f 21 25 26
f 21 26 22
f 23 27 24
f 24 27 28
f 25 29 26
f 26 29 30
f 27 31 28
f 28 31 32
f 29 33 34
f 29 34 35
f 29 35 30
f 31 36 32
f 31 37 36
f 33 38 34
f 34 38 39
f 34 39 37
f 36 37 39

