# https://github.com/mikedh/trimesh
v 0.00952920 0.00240100 -0.00311872
v 0.00952920 0.00240182 -0.00368548
v 0.01096090 0.00391304 -0.00368548
v 0.00952920 0.00240100 0.00311872
v 0.00952920 0.00241092 -0.00425327
v 0.01096090 0.00391883 -0.00425327
v 0.01096090 0.00391304 0.00368548
v 0.00952920 0.00240182 0.00370420
v 0.00952920 0.00265576 -0.00472020
v 0.00970776 0.00274923 -0.00461309
v 0.01085578 0.00390725 -0.00460893
v 0.01096090 0.00410990 -0.00472956
v 0.01096090 0.00391718 0.00413160
v 0.01096090 0.00391883 0.00425327
v 0.00952920 0.00241092 0.00425327
v 0.01096090 0.00423729 -0.00485435
v 0.00952920 0.00301144 -0.00497914
v 0.01085102 0.00448461 -0.00513825
v 0.01096090 0.00435971 -0.00495834
v 0.01096090 0.00396433 0.00449453
v 0.01085578 0.00390725 0.00460893
v 0.00970776 0.00274923 0.00461309
v 0.00952920 0.00265576 0.00472020
v 0.00952920 0.00329185 -0.00514033
v 0.01096090 0.00466658 -0.00517672
v 0.01096090 0.00410990 0.00472956
v 0.00952920 0.00277404 0.00481483
v 0.01096090 0.00419676 0.00482003
v 0.01096090 0.00452183 0.00511017
v 0.00952920 0.00370212 -0.00523288
v 0.01096090 0.00481134 -0.00521936
v 0.00952920 0.00305197 0.00500826
v 0.01096090 0.00466658 0.00517672
v 0.00952920 0.00329185 0.00514033
v 0.00992458 0.00425383 -0.00526824
v 0.01049166 0.00482126 -0.00528591
v 0.00952920 0.00425383 -0.00529839
v 0.01096090 0.00538786 -0.00530983
v 0.01096090 0.00473276 0.00520168
v 0.00952920 0.00336546 0.00516944
v 0.00952920 0.00482126 -0.00531191
v 0.00992458 0.00482126 -0.00531191
v 0.01049166 0.00538786 -0.00531191
v 0.01096090 0.00595529 -0.00531191
v 0.01096090 0.00481134 0.00521936
v 0.00952920 0.00385845 0.00526928
v 0.00952920 0.01085124 -0.00531191
v 0.01096090 0.01085124 -0.00531191
v 0.01096090 0.00529026 0.00530567
v 0.00952920 0.00442505 0.00531191
v 0.00952920 0.01085124 0.00531191
v 0.01096090 0.01085124 0.00531191
v 0.01096090 0.00538786 0.00530983
v 0.01096090 0.00585686 0.00531191
f 1 2 3
f 1 3 7
f 1 7 4
f 1 4 8
f 1 8 15
f 1 15 23
f 1 23 27
f 1 27 32
f 1 32 34
f 1 34 40
f 1 40 46
f 1 46 50
f 1 50 51
f 1 51 47
f 1 47 41
f 1 41 37
f 1 37 30
f 1 30 24
f 1 24 17
f 1 17 9
f 1 9 5
f 1 5 2
f 2 5 6
f 2 6 3
f 3 6 12
f 3 12 16
f 3 16 19
f 3 19 25
f 3 25 31
f 3 31 38
f 3 38 44
f 3 44 48
f 3 48 52
f 3 52 54
f 3 54 53
f 3 53 49
f 3 49 45
f 3 45 39
f 3 39 33
f 3 33 29
f 3 29 28
f 3 28 26
f 3 26 20
f 3 20 14
f 3 14 13
f 3 13 7
f 4 7 8
f 5 9 10
f 5 10 11
f 5 11 6
f 6 11 12
f 7 13 8
f 8 13 14
f 8 14 15
f 9 16 12
f 9 12 10
f 9 17 18
f 9 18 19
f 9 19 16
f 10 12 11
f 14 20 15
f 15 20 21
f 15 21 22
f 15 22 23
f 17 24 18
f 18 24 25
f 18 25 19
f 20 26 21
f 21 26 22
f 22 26 23
f 23 26 28
f 23 28 29
f 23 29 27
f 24 30 31
f 24 31 25
f 27 29 32
f 29 33 34
f 29 34 32
f 30 35 36
f 30 36 31
f 30 37 35
f 31 36 38
f 33 39 40
f 33 40 34
f 35 37 36
f 36 37 38
f 37 41 42
f 37 42 38
f 38 42 43
f 38 43 44
f 39 45 40
f 40 45 46
f 41 47 48
f 41 48 44
f 41 44 43
f 41 43 42
f 45 49 46
f 46 49 50
f 47 51 52
f 47 52 48
f 49 53 50
f 50 53 54
f 50 54 52
f 50 52 51

