# https://github.com/mikedh/trimesh
v 0.01276286 0.00490069 -0.00311872
v 0.01276286 0.00490127 -0.00368548
v 0.01488954 0.00529852 -0.00368548
v 0.01276286 0.00490069 0.00312184
v 0.01276286 0.00490593 -0.00425327
v 0.01488954 0.00530143 -0.00382483
v 0.01488954 0.00529852 0.00368548
v 0.01276286 0.00490127 0.00368860
v 0.01488954 0.00531191 -0.00425327
v 0.01276286 0.00500786 -0.00466404
v 0.01488954 0.00531191 0.00425327
v 0.01276286 0.00490593 0.00425327
v 0.01488954 0.00549830 -0.00476491
v 0.01276286 0.00526066 -0.00494690
v 0.01488954 0.00574469 -0.00504881
v 0.01488954 0.00544996 0.00463700
v 0.01276286 0.00500786 0.00466404
v 0.01276286 0.00554257 -0.00518608
v 0.01488954 0.00602836 -0.00520792
v 0.01488954 0.00549830 0.00476491
v 0.01488954 0.00568411 0.00497914
v 0.01488954 0.00574469 0.00504881
v 0.01276286 0.00526066 0.00494690
v 0.01276286 0.00595322 -0.00529215
v 0.01488954 0.00652229 -0.00531191
v 0.01488954 0.00595904 0.00517152
v 0.01276286 0.00554432 0.00518816
v 0.01276286 0.00651938 -0.00531087
v 0.01332742 0.00652229 -0.00531191
v 0.01488954 0.01085066 -0.00531191
v 0.01488954 0.00602836 0.00520792
v 0.01276286 0.00595496 0.00529215
v 0.01276286 0.00708671 -0.00531191
v 0.01296770 0.01085066 -0.00531191
v 0.01488954 0.01085066 0.00531191
v 0.01488954 0.00639823 0.00528591
v 0.01276286 0.00652229 0.00531191
v 0.01488954 0.00652229 0.00531191
v 0.01276286 0.01084950 -0.00531191
v 0.01276286 0.01085066 0.00517152
v 0.01276286 0.01085066 0.00531191
f 1 2 3
f 1 3 7
f 1 7 4
f 1 4 8
f 1 8 12
f 1 12 17
f 1 17 23
f 1 23 27
f 1 27 32
f 1 32 37
f 1 37 41
f 1 41 40
f 1 40 39
f 1 39 33
f 1 33 28
f 1 28 24
f 1 24 18
f 1 18 14
f 1 14 10
f 1 10 5
f 1 5 2
f 2 5 3
f 3 5 6
f 3 6 9
f 3 9 13
f 3 13 15
f 3 15 19
f 3 19 25
f 3 25 30
f 3 30 35
f 3 35 38
f 3 38 36
f 3 36 31
f 3 31 26
f 3 26 22
f 3 22 21
f 3 21 20
f 3 20 16
f 3 16 11
f 3 11 7
f 4 7 8
f 5 9 6
f 5 10 9
f 7 11 12
f 7 12 8
f 9 10 13
f 10 14 15
f 10 15 13
f 11 16 17
f 11 17 12
f 14 18 15
f 15 18 19
f 16 20 17
f 17 20 21
f 17 21 22
f 17 22 23
f 18 24 19
f 19 24 25
f 22 26 27
f 22 27 23
f 24 28 29
f 24 29 25
f 25 29 33
f 25 33 39
f 25 39 34
f 25 34 30
f 26 31 27
f 27 31 32
f 28 33 29
f 30 34 40
f 30 40 41
f 30 41 35
f 31 36 32
f 32 36 38
f 32 38 37
f 34 39 40
f 35 41 37
f 35 37 38

