# https://github.com/mikedh/trimesh
v -0.00439925 0.00863770 -0.00368548
v -0.00440114 0.00863770 -0.00425327
v -0.00603253 0.01085124 -0.00368548
v -0.00603253 0.01085124 0.00368548
v -0.00440492 0.00863770 0.00369900
v -0.00603537 0.01085124 -0.00405777
v -0.00448058 0.00863770 -0.00457253
v -0.00610157 0.01085124 -0.00455069
v -0.00603726 0.01085124 -0.00425327
v -0.00603726 0.01085124 0.00425327
v -0.00441154 0.00863770 0.00425327
v -0.00614224 0.01085124 -0.00465468
v -0.00455813 0.00863770 -0.00467860
v -0.00614224 0.01085124 0.00465468
v -0.00457232 0.00863770 0.00467756
v -0.00626045 0.01085124 -0.00478883
v -0.00472080 0.00863770 -0.00481691
v -0.00657822 0.01085124 -0.00511225
v -0.00637110 0.01085124 -0.00490634
v -0.00637110 0.01085124 0.00490634
v -0.00668130 0.01085124 0.00517568
v -0.00480024 0.00863770 0.00486891
v -0.00509909 0.00863770 -0.00509977
v -0.00668130 0.01085124 -0.00517568
v -0.00540362 0.00863770 0.00520480
v -0.00520501 0.00863770 0.00515176
v -0.00497331 0.00863770 0.00499474
v -0.00708892 0.01085124 0.00527967
v -0.00520407 0.00863770 -0.00515176
v -0.00528635 0.00863770 -0.00518296
v -0.00691206 0.01085124 -0.00524120
v -0.00595498 0.00879045 0.00528799
v -0.00595498 0.00863770 0.00529423
v -0.00765636 0.01085124 0.00531191
v -0.00708892 0.01049156 0.00530567
v -0.00580272 0.00863770 -0.00528487
v -0.00708892 0.01085124 -0.00527967
v -0.00652242 0.00935749 0.00530775
v -0.00652242 0.00879045 0.00531191
v -0.00652242 0.00863770 0.00531191
v -0.00708892 0.00992431 0.00531191
v -0.01406087 0.01085124 0.00531191
v -0.00595498 0.00863770 -0.00529423
v -0.00652242 0.00935749 -0.00530775
v -0.00708892 0.01049156 -0.00530567
v -0.00744924 0.01085124 -0.00530879
v -0.01406087 0.00863770 0.00531191
v -0.01406087 0.01085124 -0.00531191
v -0.00636921 0.00863770 -0.00531191
v -0.00708892 0.00992431 -0.00531191
v -0.00765636 0.01085124 -0.00531191
v -0.01406087 0.00863770 -0.00531191
f 1 2 3
f 1 3 4
f 1 4 5
f 1 5 11
f 1 11 15
f 1 15 22
f 1 22 27
f 1 27 26
f 1 26 25
f 1 25 33
f 1 33 40
f 1 40 47
f 1 47 52
f 1 52 49
f 1 49 43
f 1 43 36
f 1 36 30
f 1 30 29
f 1 29 23
f 1 23 17
f 1 17 13
f 1 13 7
f 1 7 2
f 2 6 3
f 2 7 8
f 2 8 9
f 2 9 6
f 3 6 9
f 3 9 8
f 3 8 12
f 3 12 16
f 3 16 19
f 3 19 18
f 3 18 24
f 3 24 31
f 3 31 37
f 3 37 46
f 3 46 51
f 3 51 48
f 3 48 42
f 3 42 34
f 3 34 28
f 3 28 21
f 3 21 20
f 3 20 14
f 3 14 10
f 3 10 4
f 4 10 5
f 5 10 11
f 7 12 8
f 7 13 12
f 10 14 11
f 11 14 15
f 12 13 16
f 13 17 18
f 13 18 19
f 13 19 16
f 14 20 15
f 15 20 21
f 15 21 22
f 17 23 18
f 18 23 24
f 21 25 26
f 21 26 27
f 21 27 22
f 21 28 25
f 23 29 24
f 24 30 31
f 24 29 30
f 25 28 32
f 25 32 33
f 28 34 35
f 28 35 32
f 30 36 37
f 30 37 31
f 32 35 33
f 33 35 38
f 33 38 39
f 33 39 40
f 34 41 35
f 34 42 47
f 34 47 40
f 34 40 39
f 34 39 41
f 35 41 38
f 36 43 44
f 36 44 45
f 36 45 37
f 37 45 46
f 38 41 39
f 42 48 52
f 42 52 47
f 43 49 44
f 44 46 45
f 44 49 50
f 44 50 46
f 46 50 51
f 48 51 50
f 48 50 49
f 48 49 52

