# https://github.com/mikedh/trimesh
v 0.02860791 0.00652257 0.00368548
v 0.02845163 0.00694708 0.00141741
v 0.02845163 0.00694708 0.00368548
v 0.02841948 0.00689945 0.00425327
v 0.02854540 0.00652257 0.00425327
v 0.02854272 0.00595516 0.00425327
v 0.02860434 0.00595516 0.00368548
v 0.02860434 0.00595516 -0.00368548
v 0.02860702 0.00652257 -0.00368548
v 0.02845163 0.00694625 -0.00368548
v 0.02820872 0.00723037 -0.00368548
v 0.02820872 0.00723037 0.00368548
v 0.02815960 0.00718357 0.00425327
v 0.02837661 0.00683678 0.00456837
v 0.02841948 0.00652257 0.00463076
v 0.02841859 0.00595516 0.00463076
v 0.02840519 0.00540530 0.00420024
v 0.02835697 0.00510029 0.00397561
v 0.02837572 0.00560586 0.00456837
v 0.02844984 0.00538776 0.00368548
v 0.02844984 0.00538776 -0.00368548
v 0.02835697 0.00510029 -0.00397562
v 0.02854272 0.00595516 -0.00425327
v 0.02854451 0.00652257 -0.00425327
v 0.02841859 0.00689861 -0.00425327
v 0.02816049 0.00718273 -0.00425327
v 0.02787650 0.00743761 -0.00425327
v 0.02792473 0.00747354 -0.00368548
v 0.02792473 0.00747354 0.00368548
v 0.02787561 0.00743677 0.00425327
v 0.02781399 0.00739165 0.00456213
v 0.02799349 0.00701310 0.00475347
v 0.02779524 0.00681171 0.00510705
v 0.02813460 0.00652257 0.00491362
v 0.02815335 0.00595516 0.00491466
v 0.02831499 0.00522731 0.00435415
v 0.02779613 0.00337718 0.00401097
v 0.02746391 0.00231423 0.00368548
v 0.02808637 0.00425378 0.00368548
v 0.02775951 0.00517634 0.00508833
v 0.02796492 0.00482118 0.00475451
v 0.02787382 0.00425378 0.00465468
v 0.02727995 0.00231423 0.00461932
v 0.02781578 0.00388275 0.00457773
v 0.02775416 0.00350420 0.00438846
v 0.02808637 0.00425378 -0.00368548
v 0.02746391 0.00231423 -0.00368548
v 0.02779613 0.00337718 -0.00401097
v 0.02785150 0.00369055 -0.00422104
v 0.02840608 0.00540447 -0.00420024
v 0.02837661 0.00560503 -0.00456837
v 0.02841859 0.00595516 -0.00463076
v 0.02841859 0.00652257 -0.00462972
v 0.02837572 0.00683594 -0.00456733
v 0.02781488 0.00739165 -0.00456213
v 0.02746034 0.00774429 -0.00423352
v 0.02724154 0.00795404 -0.00403177
v 0.02717456 0.00790557 -0.00441030
v 0.02753536 0.00775683 -0.00368548
v 0.02753536 0.00775683 0.00368548
v 0.02724154 0.00795404 0.00403177
v 0.02717367 0.00790474 0.00441030
v 0.02746034 0.00774346 0.00423351
v 0.02385867 0.01023537 0.00457253
v 0.02615470 0.00855487 0.00459645
v 0.02750499 0.00750279 0.00467444
v 0.02551706 0.00907131 0.00453093
v 0.02750499 0.00719276 0.00495834
v 0.02580284 0.00837521 0.00500098
v 0.02549652 0.00848719 0.00509561
v 0.02384080 0.00965543 0.00511225
v 0.02613416 0.00797242 0.00512161
v 0.02677358 0.00745181 0.00514033
v 0.02750499 0.00690948 0.00514344
v 0.02750499 0.00652257 0.00522768
v 0.02785150 0.00652257 0.00513825
v 0.02786936 0.00595516 0.00515072
v 0.02781935 0.00555405 0.00512369
v 0.02743980 0.00231423 0.00391530
v 0.02740229 0.00231423 0.00424807
v 0.02720136 0.00345239 0.00509353
v 0.02769432 0.00482118 0.00503737
v 0.02731745 0.00255239 0.00466820
v 0.02717189 0.00231423 0.00473580
v 0.02734246 0.00231423 0.00445502
v 0.02740229 0.00231423 -0.00424807
v 0.02775505 0.00350336 -0.00438846
v 0.02831499 0.00522647 -0.00435415
v 0.02781578 0.00388191 -0.00457877
v 0.02787472 0.00425378 -0.00465572
v 0.02796492 0.00482118 -0.00475452
v 0.02775862 0.00517717 -0.00508833
v 0.02815246 0.00595516 -0.00491466
v 0.02813370 0.00652257 -0.00491258
v 0.02779434 0.00681087 -0.00510705
v 0.02799349 0.00701226 -0.00475348
v 0.02551706 0.00907131 -0.00452989
v 0.02750499 0.00750362 -0.00467444
v 0.02679680 0.00804095 -0.00465156
v 0.02615649 0.00855654 -0.00459853
v 0.02385867 0.01023620 -0.00457253
v 0.02318977 0.01085124 -0.00413264
v 0.02328533 0.01079860 -0.00406817
v 0.02322013 0.01085124 -0.00398913
v 0.02324603 0.01085124 -0.00368548
v 0.02561530 0.00914234 -0.00368548
v 0.02725226 0.00796156 -0.00368548
v 0.02725226 0.00796156 0.00368548
v 0.02561530 0.00914234 0.00368548
v 0.02324603 0.01085124 0.00368548
v 0.02328533 0.01079860 0.00406921
v 0.02285666 0.01085124 0.00467756
v 0.02353538 0.01035152 0.00468796
v 0.02449630 0.00971894 0.00462868
v 0.02321835 0.01075013 0.00444670
v 0.02353538 0.01004317 0.00497186
v 0.02421767 0.00951169 0.00500722
v 0.02319602 0.01016183 0.00508001
v 0.02217705 0.01081615 0.00512473
v 0.02208239 0.01085124 0.00513617
v 0.02405782 0.00933621 0.00516424
v 0.02580284 0.00809192 0.00515904
v 0.02634224 0.00764652 0.00517568
v 0.02695220 0.00711087 0.00519648
v 0.02580284 0.00765571 0.00526096
v 0.02637082 0.00708831 0.00528487
v 0.02693791 0.00652257 0.00529631
v 0.02750499 0.00595516 0.00525368
v 0.02741122 0.00482118 0.00518504
v 0.02731835 0.00425378 0.00515592
v 0.02725851 0.00383094 0.00512681
v 0.02685932 0.00231423 0.00504569
v 0.02713884 0.00311980 0.00504673
v 0.02672625 0.00231423 0.00514344
v 0.02704418 0.00255239 0.00495106
v 0.02700578 0.00231423 0.00490946
v 0.02727995 0.00231423 -0.00462037
v 0.02731745 0.00255239 -0.00466820
v 0.02713795 0.00311980 -0.00504777
v 0.02720046 0.00345322 -0.00509353
v 0.02781935 0.00555489 -0.00512265
v 0.02786936 0.00595516 -0.00514968
v 0.02785061 0.00652257 -0.00513825
v 0.02384080 0.00965543 -0.00511225
v 0.02549474 0.00848635 -0.00509457
v 0.02651192 0.00782869 -0.00503009
v 0.02750499 0.00719193 -0.00495730
v 0.02750499 0.00652257 -0.00522872
v 0.02750499 0.00690781 -0.00514449
v 0.02321835 0.01075013 -0.00444670
v 0.02285755 0.01085124 -0.00467964
v 0.02449720 0.00972061 -0.00463076
v 0.02421767 0.00951002 -0.00500930
v 0.02293793 0.01085124 -0.00460477
v 0.02311207 0.01085124 -0.00435103
v 0.02318888 0.01085124 0.00413264
v 0.02311118 0.01085124 0.00435103
v 0.02279415 0.01085124 0.00471916
v 0.02246908 0.01085124 0.00493234
v 0.02255570 0.01067409 0.00503633
v 0.02220831 0.01085124 0.00507793
v 0.02183412 0.01085124 0.00518400
v 0.02238067 0.01048774 0.00517984
v 0.02353538 0.00935710 0.00524848
v 0.02183412 0.01049108 0.00526616
v 0.02240121 0.00992367 0.00528695
v 0.02466866 0.00822312 0.00529215
v 0.02296829 0.00935710 0.00529839
v 0.02126703 0.01049108 0.00530359
v 0.02353538 0.00878969 0.00530671
v 0.02580284 0.00708831 0.00530879
v 0.02637082 0.00652257 0.00531087
v 0.02693791 0.00595516 0.00531087
v 0.02693791 0.00538776 0.00530463
v 0.02693791 0.00482118 0.00528903
v 0.02693791 0.00425378 0.00525992
v 0.02685485 0.00311980 0.00518712
v 0.02676108 0.00255239 0.00516008
v 0.02662802 0.00231423 0.00517464
v 0.02700489 0.00231423 -0.00490946
v 0.02704329 0.00255239 -0.00495210
v 0.02672625 0.00231423 -0.00514241
v 0.02725762 0.00383094 -0.00512577
v 0.02676019 0.00255239 -0.00515904
v 0.02731656 0.00425378 -0.00515488
v 0.02740944 0.00482118 -0.00518400
v 0.02754340 0.00537522 -0.00519336
v 0.02750499 0.00595516 -0.00525368
v 0.02214579 0.01085124 -0.00511433
v 0.02255392 0.01067325 -0.00503737
v 0.02353538 0.00975821 -0.00515072
v 0.02217526 0.01081447 -0.00512473
v 0.02694952 0.00711087 -0.00519752
v 0.02693791 0.00652257 -0.00529839
v 0.02637082 0.00708831 -0.00528383
v 0.02580284 0.00765571 -0.00526200
v 0.02634135 0.00764568 -0.00517568
v 0.02580284 0.00809025 -0.00516008
v 0.02246729 0.01085124 -0.00493338
v 0.02129739 0.01085124 0.00524848
v 0.02069994 0.01085124 0.00530047
v 0.02013286 0.01085124 0.00531087
v 0.02069994 0.01049108 0.00531191
v 0.02183412 0.00992367 0.00530983
v 0.02466866 0.00765571 0.00531191
v 0.02637082 0.00595516 0.00531191
v 0.02637082 0.00425378 0.00531087
v 0.02580284 0.00231423 0.00530983
v 0.02637082 0.00368637 0.00530567
v 0.02637082 0.00482118 0.00531191
v 0.02637082 0.00311980 0.00529111
v 0.02637082 0.00255239 0.00526408
v 0.02639047 0.00231423 0.00523808
v 0.02639047 0.00231423 -0.00523704
v 0.02685485 0.00311980 -0.00518608
v 0.02637082 0.00255239 -0.00526304
v 0.02693791 0.00482118 -0.00528695
v 0.02693791 0.00538776 -0.00530463
v 0.02693791 0.00595516 -0.00531087
v 0.02207881 0.01085124 -0.00513513
v 0.02194307 0.01085124 -0.00516736
v 0.02353538 0.00935710 -0.00524952
v 0.02637082 0.00652257 -0.00531087
v 0.02580284 0.00708831 -0.00530879
v 0.02523575 0.00765571 -0.00530359
v 0.02296829 0.00935710 -0.00530047
v 0.02466866 0.00822312 -0.00529319
v 0.02240121 0.00992367 -0.00528695
v 0.02410157 0.00878969 -0.00527552
v 0.02183412 0.01049108 -0.00526616
v 0.02237977 0.01048690 -0.00517984
v 0.01956577 0.01085124 0.00531191
v 0.02580284 0.00255239 0.00531087
v 0.02556529 0.00231423 0.00531087
v 0.02613237 0.00231423 0.00528175
v 0.02580284 0.00311980 0.00531191
v 0.02580284 0.00231423 -0.00530983
v 0.02637082 0.00311980 -0.00529007
v 0.02637082 0.00368637 -0.00530567
v 0.02637082 0.00425378 -0.00531087
v 0.02637082 0.00482118 -0.00531191
v 0.02637082 0.00595516 -0.00531191
v 0.02153584 0.01085124 -0.00523392
v 0.02183412 0.00992367 -0.00530983
v 0.02466866 0.00765571 -0.00531191
v 0.02353538 0.00878969 -0.00530671
v 0.02126703 0.01049108 -0.00530463
v 0.02090802 0.01085124 -0.00529839
v 0.01948539 0.01085124 0.00531191
v 0.02523575 0.00231423 0.00531191
v 0.02580284 0.00255239 -0.00531087
v 0.02523575 0.00231423 -0.00531191
v 0.02580284 0.00311980 -0.00531191
v 0.02069994 0.01049108 -0.00531191
v 0.02034094 0.01085124 -0.00531087
v 0.01948539 0.00595516 0.00531191
v 0.01948539 0.01085124 -0.00531191
v 0.02240121 0.00231423 0.00531191
v 0.02240121 0.00231423 -0.00531191
v 0.01977295 0.01085124 -0.00531191
v 0.01956577 0.00538776 0.00531191
v 0.01948539 0.00538776 0.00531087
v 0.01948539 0.00546881 -0.00531191
v 0.02183412 0.00255239 0.00531087
v 0.02183412 0.00231423 0.00529319
v 0.02207256 0.00231423 -0.00531087
v 0.02183412 0.00255239 -0.00531087
v 0.01948539 0.00481951 0.00527343
v 0.01956577 0.00482118 0.00528487
v 0.01948539 0.00538776 -0.00531087
v 0.02133847 0.00231423 0.00519024
v 0.02183412 0.00231423 -0.00529319
v 0.01948539 0.00490224 -0.00528903
v 0.01948539 0.00434486 0.00516112
v 0.02107502 0.00231423 0.00502281
v 0.02150190 0.00231423 -0.00523496
v 0.01948539 0.00481951 -0.00527344
v 0.01948539 0.00414180 0.00502073
v 0.01948539 0.00404403 0.00495002
v 0.02079103 0.00231423 0.00474516
v 0.02133758 0.00231423 -0.00519128
v 0.01948539 0.00439250 -0.00517880
v 0.01948539 0.00379918 0.00472540
v 0.01980243 0.00335545 0.00458709
v 0.02059456 0.00231423 0.00425327
v 0.01948539 0.00434486 -0.00516112
v 0.02111700 0.00231423 -0.00506129
v 0.01948539 0.00359779 0.00425327
v 0.02058920 0.00231423 0.00368548
v 0.01948539 0.00409584 -0.00499474
v 0.02107413 0.00231423 -0.00502385
v 0.01948539 0.00359278 0.00368548
v 0.02058920 0.00231423 -0.00368548
v 0.02090624 0.00231423 -0.00486683
v 0.01948539 0.00404403 -0.00495002
v 0.01948539 0.00359278 -0.00369276
v 0.02059010 0.00231423 -0.00382275
v 0.02078925 0.00231423 -0.00474516
v 0.01948539 0.00386603 -0.00479507
v 0.01948539 0.00359779 -0.00425327
v 0.02059456 0.00231423 -0.00425327
v 0.01980243 0.00335545 -0.00458709
v 0.01948539 0.00379918 -0.00472540
v 0.02061778 0.00231423 -0.00434791
v 0.01948539 0.00359946 -0.00426159
f 1 2 3
f 1 3 4
f 1 4 5
f 1 5 6
f 1 6 7
f 1 7 8
f 1 8 9
f 1 9 10
f 1 10 2
f 2 10 11
f 2 11 12
f 2 12 3
f 3 12 4
f 4 12 13
f 4 13 14
f 4 14 5
f 5 14 15
f 5 15 16
f 5 16 6
f 6 17 18
f 6 18 7
f 6 16 19
f 6 19 17
f 7 18 20
f 7 20 21
f 7 21 8
f 8 21 22
f 8 22 23
f 8 23 9
f 9 23 24
f 9 24 25
f 9 25 10
f 10 25 11
f 11 25 26
f 11 26 27
f 11 27 28
f 11 28 29
f 11 29 12
f 12 29 30
f 12 30 13
f 13 30 31
f 13 31 14
f 14 31 32
f 14 32 33
f 14 33 34
f 14 34 15
f 15 34 35
f 15 35 16
f 16 35 19
f 17 19 36
f 17 36 18
f 18 37 38
f 18 38 39
f 18 39 20
f 18 36 37
f 19 35 40
f 19 40 41
f 19 41 42
f 19 42 43
f 19 43 44
f 19 44 45
f 19 45 36
f 20 39 46
f 20 46 21
f 21 46 22
f 22 47 48
f 22 48 49
f 22 49 50
f 22 50 23
f 22 46 47
f 23 50 51
f 23 51 52
f 23 52 24
f 24 52 53
f 24 53 54
f 24 54 25
f 25 54 26
f 26 54 55
f 26 55 27
f 27 56 57
f 27 57 28
f 27 55 58
f 27 58 56
f 28 57 59
f 28 59 60
f 28 60 29
f 29 60 61
f 29 61 30
f 30 62 31
f 30 61 63
f 30 63 62
f 31 64 65
f 31 65 66
f 31 66 33
f 31 33 32
f 31 62 67
f 31 67 64
f 33 66 68
f 33 68 69
f 33 69 70
f 33 70 71
f 33 71 72
f 33 72 73
f 33 73 74
f 33 74 75
f 33 75 76
f 33 76 34
f 34 76 77
f 34 77 35
f 35 77 78
f 35 78 40
f 36 45 37
f 37 79 38
f 37 45 80
f 37 80 79
f 38 79 80
f 38 80 85
f 38 85 43
f 38 43 84
f 38 84 136
f 38 136 132
f 38 132 134
f 38 134 179
f 38 179 213
f 38 213 235
f 38 235 208
f 38 208 234
f 38 234 250
f 38 250 258
f 38 258 265
f 38 265 271
f 38 271 275
f 38 275 280
f 38 280 285
f 38 285 289
f 38 289 293
f 38 293 297
f 38 297 301
f 38 301 304
f 38 304 298
f 38 298 294
f 38 294 291
f 38 291 287
f 38 287 281
f 38 281 276
f 38 276 272
f 38 272 266
f 38 266 259
f 38 259 252
f 38 252 237
f 38 237 214
f 38 214 182
f 38 182 180
f 38 180 137
f 38 137 86
f 38 86 47
f 38 47 46
f 38 46 39
f 40 81 82
f 40 82 41
f 40 78 81
f 41 83 42
f 41 82 81
f 41 81 83
f 42 83 43
f 43 83 84
f 43 85 44
f 44 85 45
f 45 85 80
f 47 86 48
f 48 86 87
f 48 87 49
f 49 87 50
f 50 87 88
f 50 88 51
f 51 89 90
f 51 90 91
f 51 91 92
f 51 92 93
f 51 93 52
f 51 88 87
f 51 87 89
f 52 93 53
f 53 93 94
f 53 94 54
f 54 94 95
f 54 95 96
f 54 96 55
f 55 97 58
f 55 96 95
f 55 95 98
f 55 98 99
f 55 99 100
f 55 100 101
f 55 101 97
f 56 58 57
f 57 102 103
f 57 103 104
f 57 104 105
f 57 105 106
f 57 106 107
f 57 107 59
f 57 58 97
f 57 97 102
f 59 107 108
f 59 108 60
f 60 108 61
f 61 108 109
f 61 109 110
f 61 110 111
f 61 111 67
f 61 67 63
f 62 63 67
f 64 112 113
f 64 113 114
f 64 114 66
f 64 66 65
f 64 67 115
f 64 115 112
f 66 114 113
f 66 113 116
f 66 116 69
f 66 69 68
f 67 111 115
f 69 116 117
f 69 117 70
f 70 118 71
f 70 117 118
f 71 118 119
f 71 119 120
f 71 120 72
f 72 120 73
f 73 120 121
f 73 121 122
f 73 122 123
f 73 123 74
f 74 123 124
f 74 124 75
f 75 124 125
f 75 125 126
f 75 126 127
f 75 127 128
f 75 128 76
f 76 128 77
f 77 128 129
f 77 129 130
f 77 130 78
f 78 131 81
f 78 130 131
f 81 132 133
f 81 133 83
f 81 131 134
f 81 134 132
f 83 133 135
f 83 135 136
f 83 136 84
f 86 137 87
f 87 137 89
f 89 137 90
f 90 137 138
f 90 138 91
f 91 138 139
f 91 139 92
f 92 139 140
f 92 140 141
f 92 141 93
f 93 141 142
f 93 142 94
f 94 142 143
f 94 143 95
f 95 144 145
f 95 145 146
f 95 146 147
f 95 147 98
f 95 143 148
f 95 148 149
f 95 149 144
f 97 101 150
f 97 150 102
f 98 147 99
f 99 151 152
f 99 152 100
f 99 147 153
f 99 153 151
f 100 152 101
f 101 152 151
f 101 151 154
f 101 154 150
f 102 150 155
f 102 155 154
f 102 154 151
f 102 151 199
f 102 199 189
f 102 189 220
f 102 220 221
f 102 221 243
f 102 243 248
f 102 248 255
f 102 255 260
f 102 260 257
f 102 257 249
f 102 249 232
f 102 232 202
f 102 202 201
f 102 201 200
f 102 200 162
f 102 162 120
f 102 120 161
f 102 161 159
f 102 159 158
f 102 158 112
f 102 112 157
f 102 157 156
f 102 156 110
f 102 110 105
f 102 105 104
f 102 104 103
f 105 110 109
f 105 109 106
f 106 109 108
f 106 108 107
f 110 156 111
f 111 156 157
f 111 157 115
f 112 158 113
f 112 115 157
f 113 158 116
f 116 159 160
f 116 160 117
f 116 158 159
f 117 160 118
f 118 160 119
f 119 160 161
f 119 161 120
f 120 162 163
f 120 163 121
f 121 123 122
f 121 163 123
f 123 163 164
f 123 164 124
f 124 164 125
f 125 165 126
f 125 164 165
f 126 165 166
f 126 166 167
f 126 167 127
f 127 167 168
f 127 168 169
f 127 169 170
f 127 170 171
f 127 171 172
f 127 172 173
f 127 173 128
f 128 173 174
f 128 174 175
f 128 175 176
f 128 176 129
f 129 177 178
f 129 178 130
f 129 176 177
f 130 178 131
f 131 178 134
f 132 136 135
f 132 135 133
f 134 178 179
f 137 180 138
f 138 180 181
f 138 181 139
f 139 181 182
f 139 182 140
f 140 182 183
f 140 183 141
f 141 183 184
f 141 184 185
f 141 185 142
f 142 185 186
f 142 186 187
f 142 187 188
f 142 188 143
f 143 188 148
f 144 189 190
f 144 190 153
f 144 153 145
f 144 149 191
f 144 191 192
f 144 192 189
f 145 153 146
f 146 153 147
f 148 193 149
f 148 188 194
f 148 194 195
f 148 195 196
f 148 196 193
f 149 193 197
f 149 197 198
f 149 198 191
f 150 154 155
f 151 153 199
f 153 190 199
f 159 161 160
f 162 200 165
f 162 165 163
f 163 165 164
f 165 201 169
f 165 169 166
f 165 200 201
f 166 169 168
f 166 168 167
f 169 201 202
f 169 202 203
f 169 203 204
f 169 204 170
f 170 204 171
f 171 204 172
f 172 205 206
f 172 206 173
f 172 204 205
f 173 207 208
f 173 208 209
f 173 209 174
f 173 206 210
f 173 210 207
f 174 209 211
f 174 211 175
f 175 211 212
f 175 212 176
f 176 212 177
f 177 212 213
f 177 213 179
f 177 179 178
f 180 182 181
f 182 214 184
f 182 184 183
f 184 214 215
f 184 215 186
f 184 186 185
f 186 215 188
f 186 188 187
f 188 216 217
f 188 217 218
f 188 218 219
f 188 219 194
f 188 215 216
f 189 199 190
f 189 192 220
f 191 198 221
f 191 221 192
f 192 221 220
f 193 196 222
f 193 222 197
f 194 219 223
f 194 223 224
f 194 224 225
f 194 225 226
f 194 226 227
f 194 227 195
f 195 227 228
f 195 228 229
f 195 229 196
f 196 229 230
f 196 230 222
f 197 222 231
f 197 231 221
f 197 221 198
f 202 232 203
f 203 232 249
f 203 249 256
f 203 256 261
f 203 261 258
f 203 258 250
f 203 250 236
f 203 236 210
f 203 210 206
f 203 206 205
f 203 205 204
f 207 233 208
f 207 210 236
f 207 236 233
f 208 235 211
f 208 211 209
f 208 233 234
f 211 235 212
f 212 235 213
f 214 237 216
f 214 216 215
f 216 237 238
f 216 238 217
f 217 238 218
f 218 239 219
f 218 238 239
f 219 239 237
f 219 237 240
f 219 240 241
f 219 241 242
f 219 242 223
f 221 231 243
f 222 243 231
f 222 230 243
f 223 244 224
f 223 242 245
f 223 245 244
f 224 246 225
f 224 244 246
f 225 246 247
f 225 247 226
f 226 247 248
f 226 248 228
f 226 228 227
f 228 230 229
f 228 248 230
f 230 248 243
f 233 236 250
f 233 250 234
f 237 251 240
f 237 239 238
f 237 252 251
f 240 251 253
f 240 253 241
f 241 253 252
f 241 252 259
f 241 259 263
f 241 263 257
f 241 257 260
f 241 260 254
f 241 254 245
f 241 245 242
f 244 245 254
f 244 254 255
f 244 255 247
f 244 247 246
f 247 255 248
f 249 257 263
f 249 263 270
f 249 270 273
f 249 273 277
f 249 277 282
f 249 282 286
f 249 286 290
f 249 290 295
f 249 295 299
f 249 299 303
f 249 303 305
f 249 305 300
f 249 300 296
f 249 296 292
f 249 292 288
f 249 288 283
f 249 283 279
f 249 279 278
f 249 278 274
f 249 274 268
f 249 268 262
f 249 262 256
f 251 252 253
f 254 260 255
f 256 262 261
f 258 261 264
f 258 264 265
f 259 266 267
f 259 267 263
f 261 262 264
f 262 268 269
f 262 269 264
f 263 267 270
f 264 269 265
f 265 269 268
f 265 268 271
f 266 272 267
f 267 272 273
f 267 273 270
f 268 274 271
f 271 274 275
f 272 276 273
f 273 276 277
f 274 278 275
f 275 278 279
f 275 279 280
f 276 281 282
f 276 282 277
f 279 283 280
f 280 283 284
f 280 284 285
f 281 286 282
f 281 287 286
f 283 288 284
f 284 288 285
f 285 288 289
f 286 287 290
f 287 291 290
f 288 292 289
f 289 292 296
f 289 296 293
f 290 291 294
f 290 294 295
f 293 296 297
f 294 298 299
f 294 299 295
f 296 300 297
f 297 300 301
f 298 302 303
f 298 303 299
f 298 304 302
f 300 305 301
f 301 305 304
f 302 304 305
f 302 305 303

