# https://github.com/mikedh/trimesh
v -0.02094442 0.00160178 0.00366468
v -0.02094813 0.00160178 0.00422520
v -0.02162572 -0.00084925 0.00368340
v -0.02094442 0.00160178 -0.00311872
v -0.02094875 0.00160178 0.00425327
v -0.02163253 -0.00084925 0.00425119
v -0.02162572 -0.00084925 -0.00368756
v -0.02094504 0.00160178 -0.00370628
v -0.02097474 0.00160178 0.00452677
v -0.02190789 -0.00084925 0.00486891
v -0.02163315 -0.00084925 -0.00425431
v -0.02094875 0.00160178 -0.00425327
v -0.02102734 0.00160178 0.00462660
v -0.02211024 -0.00084925 0.00511017
v -0.02102734 0.00160178 -0.00462660
v -0.02190789 -0.00084925 -0.00486891
v -0.02115729 0.00160178 0.00477531
v -0.02123835 0.00160178 0.00485955
v -0.02151310 0.00160178 0.00513201
v -0.02152547 0.00160178 0.00513721
v -0.02168451 0.00160178 0.00519648
v -0.02232744 -0.00084925 0.00518920
v -0.02196977 -0.00084925 -0.00494066
v -0.02123835 0.00160178 -0.00485955
v -0.02181755 0.00160178 0.00522976
v -0.02235034 -0.00084925 0.00519648
v -0.02210529 -0.00073193 -0.00511433
v -0.02228103 -0.00084925 -0.00517152
v -0.02149887 0.00160178 -0.00511641
v -0.02221730 0.00160178 0.00530151
v -0.02240108 0.00085059 0.00530567
v -0.02240108 0.00028366 0.00527863
v -0.02296852 -0.00084925 0.00531191
v -0.02152547 0.00160178 -0.00513721
v -0.02235034 -0.00084925 -0.00519648
v -0.02240108 0.00160178 0.00531191
v -0.02240108 0.00141776 0.00531191
v -0.02466899 -0.00084925 0.00531191
v -0.02181755 0.00160178 -0.00522976
v -0.02240108 0.00028366 -0.00527863
v -0.02296976 -0.00084925 -0.00531191
v -0.02523644 0.00160178 0.00531191
v -0.02523644 0.00085059 0.00531191
v -0.02523644 0.00028366 0.00530879
v -0.02523644 -0.00028352 0.00529735
v -0.02523644 -0.00084925 0.00527343
v -0.02240108 0.00085059 -0.00530567
v -0.02240108 0.00141776 -0.00531191
v -0.02240108 0.00160178 -0.00531191
v -0.02410403 -0.00084925 -0.00531191
v -0.02580326 0.00160178 0.00530047
v -0.02580326 0.00141776 0.00529735
v -0.02580326 0.00085059 0.00527239
v -0.02580326 0.00028366 0.00523184
v -0.02565289 -0.00084925 0.00516944
v -0.02523644 0.00160178 -0.00531191
v -0.02466899 -0.00028352 -0.00531191
v -0.02467023 -0.00084925 -0.00531087
v -0.02637998 0.00160178 0.00518920
v -0.02621600 0.00085059 0.00516840
v -0.02613184 0.00028366 0.00512993
v -0.02609038 -0.00001289 0.00510601
v -0.02601675 -0.00039100 0.00505713
v -0.02593630 -0.00084925 0.00498122
v -0.02542022 0.00160178 -0.00531087
v -0.02523644 0.00085059 -0.00531191
v -0.02523767 -0.00084925 -0.00527344
v -0.02523644 -0.00028352 -0.00529735
v -0.02523644 0.00028366 -0.00530879
v -0.02654211 0.00160178 0.00513409
v -0.02638308 0.00147079 0.00517568
v -0.02658109 0.00131724 0.00505401
v -0.02620857 -0.00084925 0.00469836
v -0.02580326 0.00160178 -0.00530047
v -0.02580326 0.00085059 -0.00527240
v -0.02580326 0.00141776 -0.00529631
v -0.02565351 -0.00084925 -0.00516944
v -0.02580326 0.00028366 -0.00523184
v -0.02672589 0.00160178 0.00499682
v -0.02677168 0.00085059 0.00469316
v -0.02670176 0.00041585 0.00460581
v -0.02664112 0.00003798 0.00448310
v -0.02639484 -0.00084925 0.00425327
v -0.02598704 0.00160178 -0.00527448
v -0.02637998 0.00160178 -0.00518920
v -0.02621600 0.00085059 -0.00516840
v -0.02593630 -0.00084925 -0.00498226
v -0.02601613 -0.00039220 -0.00505713
v -0.02609100 -0.00001409 -0.00510601
v -0.02613246 0.00028366 -0.00512993
v -0.02687688 0.00160178 0.00483563
v -0.02682490 0.00147079 0.00484707
v -0.02717700 0.00160178 0.00438014
v -0.02723579 0.00160178 0.00411288
v -0.02668258 -0.00008606 0.00410560
v -0.02645981 -0.00084925 0.00368548
v -0.02646290 0.00160178 -0.00516320
v -0.02638308 0.00147007 -0.00517568
v -0.02654335 0.00160178 -0.00513409
v -0.02620981 -0.00084925 -0.00469940
v -0.02658048 0.00131604 -0.00505505
v -0.02663741 0.00160178 -0.00509249
v -0.02725373 0.00160178 0.00387578
v -0.02660337 -0.00041283 0.00368548
v -0.02645981 -0.00084925 -0.00368548
v -0.02639607 -0.00084925 -0.00425327
v -0.02664112 0.00003750 -0.00448310
v -0.02670238 0.00041537 -0.00460685
v -0.02677292 0.00085059 -0.00469420
v -0.02672589 0.00160178 -0.00499890
v -0.02726549 0.00160178 0.00368548
v -0.02725992 0.00158331 0.00368548
v -0.02660337 -0.00041283 -0.00368548
v -0.02724136 0.00160178 -0.00406713
v -0.02668258 -0.00008606 -0.00410457
v -0.02717700 0.00160178 -0.00438118
v -0.02723579 0.00160178 -0.00411288
v -0.02700621 0.00160178 -0.00466820
v -0.02687750 0.00160178 -0.00483563
v -0.02726549 0.00160178 -0.00368548
v -0.02725992 0.00158331 -0.00368548
v -0.02725373 0.00160178 -0.00387578
f 1 2 3
f 1 3 7
f 1 7 4
f 1 4 8
f 1 8 12
f 1 12 15
f 1 15 24
f 1 24 29
f 1 29 34
f 1 34 39
f 1 39 49
f 1 49 56
f 1 56 65
f 1 65 74
f 1 74 84
f 1 84 85
f 1 85 97
f 1 97 99
f 1 99 102
f 1 102 110
f 1 110 119
f 1 119 118
f 1 118 116
f 1 116 117
f 1 117 114
f 1 114 122
f 1 122 120
f 1 120 111
f 1 111 103
f 1 103 94
f 1 94 93
f 1 93 91
f 1 91 79
f 1 79 70
f 1 70 59
f 1 59 51
f 1 51 42
f 1 42 36
f 1 36 30
f 1 30 25
f 1 25 21
f 1 21 20
f 1 20 19
f 1 19 18
f 1 18 17
f 1 17 13
f 1 13 9
f 1 9 5
f 1 5 2
f 2 5 6
f 2 6 3
f 3 6 10
f 3 10 14
f 3 14 22
f 3 22 26
f 3 26 33
f 3 33 38
f 3 38 46
f 3 46 55
f 3 55 64
f 3 64 73
f 3 73 83
f 3 83 96
f 3 96 105
f 3 105 106
f 3 106 100
f 3 100 87
f 3 87 77
f 3 77 67
f 3 67 58
f 3 58 50
f 3 50 41
f 3 41 35
f 3 35 28
f 3 28 23
f 3 23 16
f 3 16 11
f 3 11 7
f 4 7 8
f 5 9 6
f 6 9 10
f 7 11 12
f 7 12 8
f 9 13 10
f 10 13 14
f 11 15 12
f 11 16 15
f 13 17 14
f 14 17 18
f 14 18 19
f 14 19 20
f 14 20 21
f 14 21 22
f 15 16 23
f 15 23 24
f 21 25 26
f 21 26 22
f 23 27 24
f 23 28 27
f 24 27 29
f 25 30 31
f 25 31 32
f 25 32 26
f 26 32 33
f 27 34 29
f 27 28 34
f 28 35 34
f 30 36 37
f 30 37 31
f 31 37 33
f 31 33 32
f 33 37 36
f 33 36 42
f 33 42 43
f 33 43 38
f 34 35 39
f 35 40 39
f 35 41 40
f 38 43 44
f 38 44 45
f 38 45 46
f 39 40 47
f 39 47 48
f 39 48 49
f 40 41 47
f 41 50 57
f 41 57 66
f 41 66 56
f 41 56 49
f 41 49 48
f 41 48 47
f 42 51 43
f 43 51 44
f 44 51 52
f 44 52 45
f 45 52 46
f 46 52 53
f 46 53 54
f 46 54 55
f 50 58 57
f 51 59 52
f 52 59 53
f 53 59 54
f 54 59 60
f 54 60 55
f 55 60 61
f 55 61 62
f 55 62 63
f 55 63 64
f 56 66 65
f 57 58 66
f 58 67 68
f 58 68 69
f 58 69 66
f 59 70 71
f 59 71 60
f 60 70 61
f 60 71 70
f 61 70 62
f 62 72 63
f 62 70 72
f 63 72 73
f 63 73 64
f 65 66 74
f 66 69 74
f 67 75 76
f 67 76 68
f 67 77 78
f 67 78 75
f 68 76 74
f 68 74 69
f 70 79 72
f 72 79 80
f 72 80 73
f 73 80 81
f 73 81 82
f 73 82 83
f 74 76 84
f 75 84 76
f 75 78 85
f 75 85 84
f 77 86 78
f 77 87 88
f 77 88 89
f 77 89 90
f 77 90 86
f 78 86 85
f 79 91 92
f 79 92 80
f 80 93 81
f 80 92 91
f 80 91 93
f 81 93 82
f 82 93 94
f 82 94 95
f 82 95 83
f 83 95 96
f 85 86 98
f 85 98 97
f 86 90 99
f 86 99 97
f 86 97 98
f 87 100 88
f 88 100 101
f 88 101 102
f 88 102 89
f 89 102 90
f 90 102 99
f 94 103 95
f 95 103 96
f 96 103 104
f 96 104 113
f 96 113 105
f 100 106 107
f 100 107 108
f 100 108 109
f 100 109 101
f 101 109 102
f 102 109 110
f 103 111 112
f 103 112 104
f 104 112 121
f 104 121 113
f 105 113 114
f 105 114 115
f 105 115 106
f 106 115 107
f 107 116 108
f 107 115 117
f 107 117 116
f 108 116 118
f 108 118 109
f 109 118 119
f 109 119 110
f 111 120 121
f 111 121 112
f 113 121 122
f 113 122 114
f 114 117 115
f 120 122 121

