# https://github.com/mikedh/trimesh
v -0.01487610 -0.01185062 -0.00311872
v -0.01487610 -0.01185023 -0.00368548
v -0.01361303 -0.01077651 -0.00368548
v -0.01487610 -0.01185062 0.00311872
v -0.01487610 -0.01184330 -0.00425327
v -0.01361303 -0.01077227 -0.00425327
v -0.01361303 -0.01077651 0.00368964
v -0.01487610 -0.01185023 0.00368548
v -0.01487610 -0.01157246 -0.00477531
v -0.01461940 -0.01145996 -0.00465156
v -0.01399288 -0.01090789 -0.00467444
v -0.01361303 -0.01061432 -0.00458293
v -0.01361303 -0.01077227 0.00425327
v -0.01487610 -0.01184946 0.00375723
v -0.01487610 -0.01130663 -0.00499994
v -0.01361303 -0.01020979 -0.00510497
v -0.01361303 -0.01049412 -0.00483355
v -0.01399288 -0.01090789 0.00467444
v -0.01461940 -0.01145996 0.00465156
v -0.01487610 -0.01182904 0.00429071
v -0.01487610 -0.01184330 0.00425327
v -0.01361303 -0.01049412 0.00483355
v -0.01487610 -0.01121571 -0.00505609
v -0.01484852 -0.01124383 -0.00503009
v -0.01463733 -0.01086551 -0.00515592
v -0.01487610 -0.01098031 -0.00518608
v -0.01389421 -0.01030072 -0.00515488
v -0.01361303 -0.00992278 -0.00521624
v -0.01487610 -0.01157246 0.00477531
v -0.01361303 -0.01020979 0.00510497
v -0.01487610 -0.01049604 -0.00527760
v -0.01389421 -0.00992432 -0.00525888
v -0.01361303 -0.00935760 -0.00530775
v -0.01487610 -0.01149656 0.00484707
v -0.01487610 -0.01125732 0.00503841
v -0.01487610 -0.01130663 0.00499994
v -0.01361303 -0.01009229 0.00516944
v -0.01487610 -0.00992432 -0.00531087
v -0.01446126 -0.00992432 -0.00531087
v -0.01389421 -0.00935760 -0.00531191
v -0.01361303 -0.00879050 -0.00525160
v -0.01463733 -0.01086551 0.00515592
v -0.01487610 -0.01098031 0.00518608
v -0.01361303 -0.00992278 0.00521624
v -0.01487610 -0.01090711 0.00520896
v -0.01487610 -0.00935760 -0.00531191
v -0.01487610 -0.00895847 -0.00523496
v -0.01487610 -0.00879396 -0.00520272
v -0.01361303 -0.00845070 -0.00514761
v -0.01361303 -0.00964346 0.00528175
v -0.01487610 -0.01049604 0.00527759
v -0.01487610 -0.00858400 -0.00511641
v -0.01487610 -0.00852621 -0.00509249
v -0.01361303 -0.00815096 -0.00482211
v -0.01361303 -0.00935760 0.00530775
v -0.01487610 -0.01033924 0.00530151
v -0.01487610 -0.00829813 -0.00482419
v -0.01361303 -0.00793021 -0.00455173
v -0.01361303 -0.00907636 0.00529215
v -0.01389421 -0.00935760 0.00531191
v -0.01446126 -0.00992432 0.00531087
v -0.01487610 -0.00992432 0.00531087
v -0.01487610 -0.00805889 -0.00425327
v -0.01361303 -0.00791711 -0.00425327
v -0.01361303 -0.00879050 0.00525160
v -0.01487610 -0.00935760 0.00531191
v -0.01487610 -0.00977252 0.00531191
v -0.01487610 -0.00805041 -0.00368548
v -0.01361303 -0.00791519 -0.00368548
v -0.01361303 -0.00860788 0.00519960
v -0.01487610 -0.00879396 0.00520272
v -0.01487610 -0.00805041 0.00368548
v -0.01361303 -0.00791519 0.00368548
v -0.01361303 -0.00845070 0.00514760
v -0.01487610 -0.00852621 0.00509249
v -0.01487610 -0.00805658 0.00410040
v -0.01361303 -0.00791711 0.00425327
v -0.01361303 -0.00791673 0.00416176
v -0.01361303 -0.00831008 0.00500722
v -0.01487610 -0.00847458 0.00503425
v -0.01487610 -0.00805889 0.00425327
v -0.01361303 -0.00792520 0.00451637
v -0.01361303 -0.00815096 0.00482211
v -0.01361303 -0.00803847 0.00469108
v -0.01487610 -0.00829813 0.00482419
v -0.01487610 -0.00822378 0.00465884
v -0.01361303 -0.00793021 0.00455173
f 1 2 3
f 1 3 7
f 1 7 4
f 1 4 8
f 1 8 14
f 1 14 21
f 1 21 20
f 1 20 29
f 1 29 34
f 1 34 36
f 1 36 35
f 1 35 43
f 1 43 45
f 1 45 51
f 1 51 56
f 1 56 62
f 1 62 67
f 1 67 66
f 1 66 71
f 1 71 75
f 1 75 80
f 1 80 85
f 1 85 86
f 1 86 81
f 1 81 76
f 1 76 72
f 1 72 68
f 1 68 63
f 1 63 57
f 1 57 53
f 1 53 52
f 1 52 48
f 1 48 47
f 1 47 46
f 1 46 38
f 1 38 31
f 1 31 26
f 1 26 23
f 1 23 15
f 1 15 9
f 1 9 5
f 1 5 2
f 2 5 6
f 2 6 3
f 3 6 12
f 3 12 17
f 3 17 16
f 3 16 28
f 3 28 33
f 3 33 41
f 3 41 49
f 3 49 54
f 3 54 58
f 3 58 64
f 3 64 69
f 3 69 73
f 3 73 78
f 3 78 77
f 3 77 82
f 3 82 87
f 3 87 84
f 3 84 83
f 3 83 79
f 3 79 74
f 3 74 70
f 3 70 65
f 3 65 59
f 3 59 55
f 3 55 50
f 3 50 44
f 3 44 37
f 3 37 30
f 3 30 22
f 3 22 13
f 3 13 7
f 4 7 8
f 5 9 10
f 5 10 6
f 6 10 11
f 6 11 12
f 7 13 8
f 8 13 14
f 9 15 16
f 9 16 17
f 9 17 10
f 10 17 11
f 11 17 12
f 13 18 19
f 13 19 20
f 13 20 21
f 13 21 14
f 13 22 18
f 15 23 24
f 15 24 16
f 16 24 25
f 16 25 26
f 16 26 27
f 16 27 28
f 18 22 19
f 19 22 29
f 19 29 20
f 22 30 29
f 23 26 24
f 24 26 25
f 26 31 32
f 26 32 28
f 26 28 27
f 28 32 33
f 29 30 34
f 30 35 36
f 30 36 34
f 30 37 35
f 31 38 39
f 31 39 33
f 31 33 32
f 33 39 40
f 33 40 41
f 35 37 42
f 35 42 43
f 37 44 45
f 37 45 43
f 37 43 42
f 38 46 40
f 38 40 39
f 40 46 41
f 41 46 47
f 41 47 48
f 41 48 49
f 44 50 45
f 45 50 51
f 48 52 49
f 49 52 53
f 49 53 54
f 50 55 56
f 50 56 51
f 53 57 54
f 54 57 58
f 55 59 60
f 55 60 61
f 55 61 56
f 56 61 62
f 57 63 58
f 58 63 64
f 59 65 66
f 59 66 60
f 60 66 67
f 60 67 61
f 61 67 62
f 63 68 64
f 64 68 69
f 65 70 71
f 65 71 66
f 68 72 73
f 68 73 69
f 70 74 71
f 71 74 75
f 72 76 77
f 72 77 78
f 72 78 73
f 74 79 75
f 75 79 80
f 76 81 77
f 77 81 82
f 79 83 80
f 80 83 84
f 80 84 85
f 81 86 87
f 81 87 82
f 84 87 85
f 85 87 86

