# https://github.com/mikedh/trimesh
v -0.01651835 0.00512370 -0.00368548
v -0.01651835 0.00512426 -0.00381235
v -0.01651763 0.00512370 -0.00368548
v -0.01651835 0.00512370 0.00368548
v -0.01406087 0.00523640 -0.00368548
v -0.01651835 0.00512706 -0.00425327
v -0.01406087 0.00523584 -0.00328511
v -0.01651763 0.00512370 0.00368548
v -0.01651835 0.00512426 0.00381235
v -0.01406087 0.00524481 -0.00425327
v -0.01651835 0.00526163 -0.00460997
v -0.01406087 0.00530200 -0.00440614
v -0.01406087 0.00523584 0.00311872
v -0.01406087 0.00523640 0.00368548
v -0.01651835 0.00512706 0.00425327
v -0.01651835 0.00535639 -0.00482003
v -0.01406087 0.00549095 -0.00483251
v -0.01406087 0.00524200 0.00408585
v -0.01406087 0.00524481 0.00425327
v -0.01651835 0.00535863 0.00482003
v -0.01406087 0.00557450 -0.00492714
v -0.01651835 0.00563674 -0.00513201
v -0.01406087 0.00549095 0.00483251
v -0.01651835 0.00549264 0.00497082
v -0.01406087 0.00571019 -0.00507793
v -0.01406087 0.00573374 -0.00509041
v -0.01651835 0.00594007 -0.00523184
v -0.01406087 0.00595409 -0.00519544
v -0.01406087 0.00571019 0.00507793
v -0.01651835 0.00563898 0.00512993
v -0.01651835 0.00652208 -0.00531191
v -0.01406087 0.00652208 -0.00531191
v -0.01406087 0.00612174 -0.00523080
v -0.01406087 0.00595409 0.00519544
v -0.01651835 0.00572813 0.00516528
v -0.01651835 0.01085124 -0.00531191
v -0.01406087 0.01085124 -0.00531191
v -0.01406087 0.00652208 0.00531191
v -0.01651835 0.00594007 0.00523080
v -0.01651835 0.01085124 0.00531191
v -0.01406087 0.01085124 0.00531191
v -0.01651835 0.00652208 0.00531191
v -0.01651835 0.00616604 0.00527447
f 1 2 3
f 1 3 8
f 1 8 4
f 1 4 9
f 1 9 15
f 1 15 20
f 1 20 24
f 1 24 30
f 1 30 35
f 1 35 39
f 1 39 43
f 1 43 42
f 1 42 40
f 1 40 36
f 1 36 31
f 1 31 27
f 1 27 22
f 1 22 16
f 1 16 11
f 1 11 6
f 1 6 2
f 2 5 3
f 2 6 5
f 3 5 7
f 3 7 13
f 3 13 8
f 4 8 9
f 5 10 12
f 5 12 17
f 5 17 21
f 5 21 25
f 5 25 26
f 5 26 28
f 5 28 33
f 5 33 32
f 5 32 37
f 5 37 41
f 5 41 38
f 5 38 34
f 5 34 29
f 5 29 23
f 5 23 19
f 5 19 18
f 5 18 14
f 5 14 13
f 5 13 7
f 5 6 10
f 6 11 12
f 6 12 10
f 8 13 14
f 8 14 9
f 9 14 15
f 11 16 17
f 11 17 12
f 14 18 15
f 15 18 19
f 15 19 20
f 16 21 17
f 16 22 21
f 19 23 20
f 20 23 24
f 21 22 25
f 22 26 25
f 22 27 28
f 22 28 26
f 23 29 24
f 24 29 30
f 27 31 32
f 27 32 33
f 27 33 28
f 29 34 30
f 30 34 35
f 31 36 37
f 31 37 32
f 34 38 39
f 34 39 35
f 36 40 41
f 36 41 37
f 38 42 43
f 38 43 39
f 38 41 40
f 38 40 42

