# https://github.com/mikedh/trimesh
v -0.01786391 -0.01673095 0.00531191
v -0.01736889 -0.01673095 0.00520792
v -0.01843079 -0.01673095 0.00531191
v -0.01616264 -0.02183434 0.00531191
v -0.01616264 -0.02126741 0.00531087
v -0.01615242 -0.02126637 0.00530983
v -0.01708529 -0.01673095 0.00505193
v -0.01616264 -0.02070048 0.00525992
v -0.01615242 -0.02070048 0.00525680
v -0.01615242 -0.02020741 0.00516944
v -0.01941477 -0.01673095 0.00531087
v -0.01899799 -0.01729787 0.00531191
v -0.01615242 -0.02240023 0.00531191
v -0.01683587 -0.01673095 0.00476907
v -0.01615242 -0.02016892 0.00515176
v -0.01941477 -0.01673095 -0.00531087
v -0.01941477 -0.01729787 0.00530463
v -0.01899799 -0.01843173 0.00530983
v -0.01843079 -0.02013251 0.00531087
v -0.01899799 -0.01786480 0.00531191
v -0.01615242 -0.02523591 0.00531191
v -0.01664808 -0.01673095 0.00425327
v -0.01615242 -0.01953438 0.00485851
v -0.01615242 -0.01950941 0.00484603
v -0.01899831 -0.01673095 -0.00531191
v -0.01941477 -0.01688074 -0.00531087
v -0.01941477 -0.01786480 0.00529111
v -0.01899799 -0.01899866 0.00530359
v -0.01786391 -0.02240023 0.00530463
v -0.01786391 -0.02183434 0.00531087
v -0.01786391 -0.02126741 0.00531191
v -0.01616264 -0.02523591 0.00531191
v -0.01615242 -0.02580284 0.00530983
v -0.01663754 -0.01673095 0.00368548
v -0.01615242 -0.01899866 0.00436662
v -0.01615242 -0.01889047 0.00425327
v -0.01786391 -0.01673095 -0.00531191
v -0.01899799 -0.01786480 -0.00531191
v -0.01899799 -0.01843173 -0.00531087
v -0.01941477 -0.01744767 -0.00530567
v -0.01941477 -0.01843173 0.00526720
v -0.01899799 -0.01956559 0.00528487
v -0.01843079 -0.02126741 0.00528591
v -0.01729704 -0.02466898 0.00528799
v -0.01729704 -0.02410205 0.00530463
v -0.01729704 -0.02353512 0.00531087
v -0.01672984 -0.02466898 0.00531191
v -0.01672984 -0.02523591 0.00531087
v -0.01616264 -0.02580284 0.00530983
v -0.01615242 -0.02635936 0.00523496
v -0.01663754 -0.01673095 -0.00368548
v -0.01615242 -0.01887383 0.00368548
v -0.01615242 -0.01887279 0.00311872
v -0.01736889 -0.01673095 -0.00520792
v -0.01615242 -0.02127781 -0.00531087
v -0.01615242 -0.02184474 -0.00531191
v -0.01786391 -0.02126741 -0.00531191
v -0.01899799 -0.01899866 -0.00530359
v -0.01786391 -0.02183434 -0.00531087
v -0.01729704 -0.02410205 -0.00530567
v -0.01843079 -0.02070048 -0.00530463
v -0.01941477 -0.01801564 -0.00529111
v -0.01941477 -0.01956559 0.00519024
v -0.01899799 -0.02013251 0.00525264
v -0.01843079 -0.02183434 0.00525472
v -0.01786391 -0.02353512 0.00525680
v -0.01729704 -0.02523591 0.00525784
v -0.01672984 -0.02580284 0.00530463
v -0.01672984 -0.02636976 0.00522352
v -0.01616264 -0.02636976 0.00523288
v -0.01615242 -0.02636976 0.00523288
v -0.01664808 -0.01673095 -0.00425327
v -0.01615242 -0.01887279 -0.00324455
v -0.01615242 -0.01887383 -0.00368548
v -0.01615242 -0.01887591 -0.00380923
v -0.01615242 -0.01889047 -0.00425327
v -0.01708529 -0.01673095 -0.00505193
v -0.01615242 -0.02021989 -0.00517360
v -0.01615242 -0.02070985 -0.00525888
v -0.01615242 -0.02126637 -0.00530983
v -0.01615242 -0.02523591 -0.00531191
v -0.01672984 -0.02466898 -0.00531191
v -0.01729704 -0.02353512 -0.00531087
v -0.01899799 -0.01956559 -0.00528591
v -0.01672984 -0.02580284 -0.00530567
v -0.01729704 -0.02466898 -0.00528903
v -0.01843079 -0.02126741 -0.00528695
v -0.01941477 -0.01858256 -0.00526616
v -0.01941477 -0.01982773 0.00516736
v -0.01889324 -0.02126741 0.00518192
v -0.01776778 -0.02466898 0.00518400
v -0.01733696 -0.02582052 0.00519440
v -0.01715460 -0.02636976 0.00515800
v -0.01704058 -0.02666935 0.00511433
v -0.01672984 -0.02668600 0.00512577
v -0.01616264 -0.02669328 0.00512993
v -0.01615242 -0.02668704 0.00513201
v -0.01683587 -0.01673095 -0.00476907
v -0.01615242 -0.01891544 -0.00430631
v -0.01615242 -0.01914429 -0.00455277
v -0.01615242 -0.01950941 -0.00484603
v -0.01615242 -0.02020741 -0.00516944
v -0.01615242 -0.02580284 -0.00530983
v -0.01616264 -0.02523591 -0.00531191
v -0.01672984 -0.02523591 -0.00531087
v -0.01786391 -0.02353512 -0.00525784
v -0.01843079 -0.02183434 -0.00525576
v -0.01899799 -0.02013251 -0.00525368
v -0.01616264 -0.02580284 -0.00530983
v -0.01615242 -0.02581324 -0.00530879
v -0.01616264 -0.02636976 -0.00523392
v -0.01672984 -0.02636976 -0.00522248
v -0.01715140 -0.02636976 -0.00515800
v -0.01733600 -0.02581948 -0.00519544
v -0.01729704 -0.02523591 -0.00525888
v -0.01941477 -0.01961760 -0.00518816
v -0.01941477 -0.02013251 0.00511121
v -0.01936622 -0.02013251 0.00514968
v -0.01880254 -0.02183434 0.00515176
v -0.01767517 -0.02523591 0.00515488
v -0.01755253 -0.02602024 0.00508937
v -0.01761513 -0.02564264 0.00512473
v -0.01765632 -0.02674217 0.00463180
v -0.01721687 -0.02689508 0.00477323
v -0.01701503 -0.02722172 0.00453717
v -0.01672984 -0.02696894 0.00482939
v -0.01743820 -0.02636976 0.00502281
v -0.01616264 -0.02697726 0.00483563
v -0.01615242 -0.02669328 0.00512993
v -0.01615242 -0.01990054 -0.00506129
v -0.01776715 -0.02466898 -0.00518504
v -0.01889292 -0.02126741 -0.00518296
v -0.01615242 -0.02636976 -0.00523392
v -0.01616264 -0.02669328 -0.00513097
v -0.01672984 -0.02668496 -0.00512473
v -0.01703771 -0.02666831 -0.00511329
v -0.01755125 -0.02602024 -0.00508729
v -0.01761672 -0.02564160 -0.00512577
v -0.01767676 -0.02523591 -0.00515592
v -0.01941477 -0.01982981 -0.00516736
v -0.01941477 -0.02058814 0.00499578
v -0.01931033 -0.02051740 0.00512161
v -0.01805106 -0.02466898 0.00503529
v -0.01832285 -0.02466898 0.00475243
v -0.01823055 -0.02523591 0.00465052
v -0.01775054 -0.02636976 0.00473892
v -0.01924422 -0.02089605 0.00508313
v -0.01917684 -0.02126741 0.00502905
v -0.01772882 -0.02682539 0.00425327
v -0.01737177 -0.02710937 0.00425327
v -0.01817210 -0.02559583 0.00457357
v -0.01810887 -0.02597447 0.00436766
v -0.01801593 -0.02632087 0.00420856
v -0.01708817 -0.02725084 0.00425327
v -0.01672984 -0.02729037 0.00425327
v -0.01672984 -0.02722692 0.00454549
v -0.01615242 -0.02697726 0.00483563
v -0.01615242 -0.02722588 0.00455797
v -0.01880349 -0.02183434 -0.00515280
v -0.01615242 -0.02669328 -0.00513097
v -0.01616264 -0.02697726 -0.00483251
v -0.01676784 -0.02701783 -0.00476803
v -0.01698246 -0.02721964 -0.00453197
v -0.01725488 -0.02682851 -0.00482003
v -0.01765537 -0.02674217 -0.00463076
v -0.01743500 -0.02636976 -0.00502073
v -0.01774862 -0.02636976 -0.00473788
v -0.01822991 -0.02523591 -0.00465052
v -0.01795972 -0.02523591 -0.00493442
v -0.01805042 -0.02466898 -0.00503529
v -0.01811526 -0.02431114 -0.00508625
v -0.01931129 -0.02051740 -0.00512265
v -0.01936686 -0.02013251 -0.00515072
v -0.01941477 -0.02006074 -0.00513513
v -0.01941477 -0.02077954 0.00494170
v -0.01941477 -0.02126741 0.00478155
v -0.01941477 -0.02148170 0.00470564
v -0.01879391 -0.02353512 0.00464636
v -0.01776299 -0.02686492 0.00368548
v -0.01744458 -0.02714786 0.00368548
v -0.01804627 -0.02638849 0.00368548
v -0.01930139 -0.02217866 0.00456733
v -0.01820436 -0.02579243 0.00420856
v -0.01815135 -0.02609826 0.00398913
v -0.01867351 -0.02426537 0.00435519
v -0.01941477 -0.02208192 0.00425327
v -0.01934227 -0.02230245 0.00425327
v -0.01716099 -0.02727997 0.00368548
v -0.01672984 -0.02734862 0.00368548
v -0.01616264 -0.02729869 0.00425327
v -0.01616264 -0.02723004 0.00455277
v -0.01615242 -0.02723004 0.00455277
v -0.01615242 -0.02697726 -0.00483251
v -0.01616264 -0.02722796 -0.00454861
v -0.01660433 -0.02722588 -0.00454549
v -0.01676784 -0.02727477 -0.00430631
v -0.01711404 -0.02726021 -0.00415344
v -0.01730055 -0.02713122 -0.00430631
v -0.01772754 -0.02682643 -0.00425327
v -0.01801434 -0.02632087 -0.00420752
v -0.01810759 -0.02597239 -0.00436766
v -0.01817178 -0.02559375 -0.00457357
v -0.01832157 -0.02466898 -0.00475140
v -0.01873675 -0.02388568 -0.00457045
v -0.01879327 -0.02353512 -0.00464636
v -0.01941477 -0.02147650 -0.00470668
v -0.01941477 -0.02132046 -0.00476179
v -0.01917652 -0.02126741 -0.00502801
v -0.01924358 -0.02089605 -0.00508209
v -0.01941477 -0.02040090 -0.00506129
v -0.01941477 -0.02183434 0.00447998
v -0.01935728 -0.02183434 0.00464116
v -0.01776331 -0.02686492 0.00311872
v -0.01776331 -0.02686596 0.00198417
v -0.01744586 -0.02714994 0.00085065
v -0.01744490 -0.02714890 0.00311872
v -0.01815358 -0.02610450 0.00368548
v -0.01804659 -0.02638849 0.00255196
v -0.01876709 -0.02408645 0.00420128
v -0.01871599 -0.02439020 0.00397665
v -0.01941477 -0.02227124 0.00368548
v -0.01716130 -0.02727997 0.00311872
v -0.01744714 -0.02715098 -0.00198417
v -0.01716386 -0.02727997 -0.00255196
v -0.01716418 -0.02727997 -0.00368548
v -0.01672984 -0.02734862 -0.00368548
v -0.01616264 -0.02735591 0.00368548
v -0.01615242 -0.02735487 0.00369588
v -0.01615242 -0.02729869 0.00425327
v -0.01615242 -0.02722796 -0.00454861
v -0.01616264 -0.02729557 -0.00425327
v -0.01744778 -0.02715098 -0.00368548
v -0.01804595 -0.02638849 -0.00368548
v -0.01776267 -0.02686700 -0.00368548
v -0.01815135 -0.02609826 -0.00398913
v -0.01867223 -0.02426329 -0.00435519
v -0.01930139 -0.02217658 -0.00456629
v -0.01820436 -0.02579139 -0.00420752
v -0.01934227 -0.02230140 -0.00425327
v -0.01935664 -0.02183434 -0.00464116
v -0.01941477 -0.02173344 -0.00457149
v -0.01941477 -0.02126741 -0.00477947
v -0.01941477 -0.02077954 -0.00494066
v -0.01776331 -0.02686700 -0.00028286
v -0.01815358 -0.02610450 -0.00368548
v -0.01825290 -0.02580284 0.00368548
v -0.01804659 -0.02638849 -0.00085065
v -0.01862369 -0.02467626 0.00368548
v -0.01928031 -0.02268005 0.00368548
v -0.01941477 -0.02227124 -0.00368548
v -0.01616264 -0.02735591 -0.00368548
v -0.01615242 -0.02735591 0.00368548
v -0.01615242 -0.02729557 -0.00425327
v -0.01776331 -0.02686700 -0.00085065
v -0.01871599 -0.02439020 -0.00397665
v -0.01941477 -0.02197685 -0.00438326
v -0.01941477 -0.02207984 -0.00425327
v -0.01825290 -0.02580284 -0.00368548
v -0.01862369 -0.02467626 -0.00368548
v -0.01928031 -0.02268005 -0.00368548
v -0.01941477 -0.02214433 -0.00406297
v -0.01615242 -0.02735591 -0.00368548
f 1 2 7
f 1 7 14
f 1 14 22
f 1 22 34
f 1 34 51
f 1 51 72
f 1 72 98
f 1 98 77
f 1 77 54
f 1 54 37
f 1 37 25
f 1 25 16
f 1 16 11
f 1 11 3
f 1 3 12
f 1 12 20
f 1 20 31
f 1 31 47
f 1 47 32
f 1 32 21
f 1 21 13
f 1 13 4
f 1 4 5
f 1 5 6
f 1 6 2
f 2 6 8
f 2 8 9
f 2 9 10
f 2 10 7
f 3 11 12
f 4 13 6
f 4 6 5
f 6 13 21
f 6 21 33
f 6 33 50
f 6 50 71
f 6 71 97
f 6 97 129
f 6 129 157
f 6 157 158
f 6 158 192
f 6 192 229
f 6 229 228
f 6 228 252
f 6 252 262
f 6 262 253
f 6 253 230
f 6 230 193
f 6 193 160
f 6 160 133
f 6 133 110
f 6 110 103
f 6 103 81
f 6 81 56
f 6 56 55
f 6 55 80
f 6 80 79
f 6 79 78
f 6 78 102
f 6 102 130
f 6 130 101
f 6 101 100
f 6 100 99
f 6 99 76
f 6 76 75
f 6 75 74
f 6 74 73
f 6 73 53
f 6 53 52
f 6 52 36
f 6 36 35
f 6 35 24
f 6 24 23
f 6 23 15
f 6 15 10
f 6 10 9
f 6 9 8
f 7 10 14
f 10 15 14
f 11 16 26
f 11 26 40
f 11 40 62
f 11 62 88
f 11 88 116
f 11 116 140
f 11 140 174
f 11 174 210
f 11 210 243
f 11 243 242
f 11 242 207
f 11 207 206
f 11 206 241
f 11 241 256
f 11 256 257
f 11 257 261
f 11 261 250
f 11 250 221
f 11 221 186
f 11 186 211
f 11 211 177
f 11 177 176
f 11 176 175
f 11 175 141
f 11 141 117
f 11 117 89
f 11 89 63
f 11 63 41
f 11 41 27
f 11 27 17
f 11 17 28
f 11 28 18
f 11 18 19
f 11 19 20
f 11 20 12
f 14 15 23
f 14 23 24
f 14 24 22
f 16 25 26
f 17 27 28
f 18 28 19
f 19 29 45
f 19 45 30
f 19 30 20
f 19 28 29
f 20 30 31
f 21 32 49
f 21 49 33
f 22 24 35
f 22 35 36
f 22 36 34
f 25 37 56
f 25 56 81
f 25 81 104
f 25 104 82
f 25 82 57
f 25 57 38
f 25 38 26
f 26 38 39
f 26 39 40
f 27 41 42
f 27 42 28
f 28 42 43
f 28 43 44
f 28 44 29
f 29 44 45
f 30 45 46
f 30 46 31
f 31 46 47
f 32 48 49
f 32 47 48
f 33 49 50
f 34 36 52
f 34 52 53
f 34 53 73
f 34 73 51
f 37 54 55
f 37 55 56
f 38 57 59
f 38 59 39
f 39 58 40
f 39 59 60
f 39 60 61
f 39 61 58
f 40 58 62
f 41 63 64
f 41 64 42
f 42 64 65
f 42 65 66
f 42 66 43
f 43 66 67
f 43 67 44
f 44 67 68
f 44 68 45
f 45 68 48
f 45 48 46
f 46 48 47
f 48 68 49
f 49 68 50
f 50 69 70
f 50 70 71
f 50 68 69
f 51 73 74
f 51 74 75
f 51 75 76
f 51 76 72
f 54 77 78
f 54 78 79
f 54 79 80
f 54 80 55
f 57 82 83
f 57 83 59
f 58 61 87
f 58 87 84
f 58 84 62
f 59 83 60
f 60 83 105
f 60 105 85
f 60 85 86
f 60 86 61
f 61 86 87
f 62 84 88
f 63 89 90
f 63 90 64
f 64 90 91
f 64 91 65
f 65 91 66
f 66 91 67
f 67 91 92
f 67 92 68
f 68 92 93
f 68 93 69
f 69 93 94
f 69 94 95
f 69 95 70
f 70 95 96
f 70 96 97
f 70 97 71
f 72 76 99
f 72 99 100
f 72 100 101
f 72 101 98
f 77 98 102
f 77 102 78
f 81 103 109
f 81 109 104
f 82 104 105
f 82 105 83
f 84 87 106
f 84 106 107
f 84 107 108
f 84 108 88
f 85 109 110
f 85 110 111
f 85 111 112
f 85 112 113
f 85 113 114
f 85 114 115
f 85 115 86
f 85 105 109
f 86 115 106
f 86 106 87
f 88 108 116
f 89 117 118
f 89 118 119
f 89 119 120
f 89 120 91
f 89 91 90
f 91 120 92
f 92 121 93
f 92 120 122
f 92 122 121
f 93 121 94
f 94 123 124
f 94 124 125
f 94 125 126
f 94 126 95
f 94 121 127
f 94 127 123
f 95 126 128
f 95 128 96
f 96 129 97
f 96 128 157
f 96 157 129
f 98 101 130
f 98 130 102
f 103 110 109
f 104 109 105
f 106 115 131
f 106 131 107
f 107 131 108
f 108 131 132
f 108 132 116
f 110 133 111
f 111 133 160
f 111 160 134
f 111 134 135
f 111 135 112
f 112 135 136
f 112 136 113
f 113 137 114
f 113 136 137
f 114 137 138
f 114 138 139
f 114 139 131
f 114 131 115
f 116 132 140
f 117 141 142
f 117 142 118
f 118 142 119
f 119 142 120
f 120 142 122
f 121 143 144
f 121 144 145
f 121 145 146
f 121 146 127
f 121 122 142
f 121 142 147
f 121 147 148
f 121 148 143
f 123 149 150
f 123 150 125
f 123 125 124
f 123 127 146
f 123 146 151
f 123 151 152
f 123 152 153
f 123 153 149
f 125 154 155
f 125 155 156
f 125 156 126
f 125 150 154
f 126 156 128
f 128 156 158
f 128 158 157
f 131 139 132
f 132 159 140
f 132 139 159
f 134 160 193
f 134 193 161
f 134 161 135
f 135 161 162
f 135 162 136
f 136 162 163
f 136 163 164
f 136 164 165
f 136 165 166
f 136 166 137
f 137 166 167
f 137 167 168
f 137 168 169
f 137 169 170
f 137 170 171
f 137 171 172
f 137 172 138
f 138 172 139
f 139 172 159
f 140 173 174
f 140 159 173
f 141 175 147
f 141 147 142
f 143 148 176
f 143 176 144
f 144 176 177
f 144 177 145
f 145 177 178
f 145 178 151
f 145 151 146
f 147 175 176
f 147 176 148
f 149 179 180
f 149 180 150
f 149 153 181
f 149 181 179
f 150 180 154
f 151 178 182
f 151 182 152
f 152 183 184
f 152 184 153
f 152 182 185
f 152 185 186
f 152 186 187
f 152 187 183
f 153 184 181
f 154 180 188
f 154 188 189
f 154 189 155
f 155 189 190
f 155 190 156
f 156 191 158
f 156 190 191
f 158 191 192
f 159 172 173
f 161 193 230
f 161 230 194
f 161 194 195
f 161 195 162
f 162 195 163
f 163 195 196
f 163 196 197
f 163 197 198
f 163 198 165
f 163 165 164
f 165 198 199
f 165 199 200
f 165 200 201
f 165 201 202
f 165 202 167
f 165 167 166
f 167 202 168
f 168 203 169
f 168 202 204
f 168 204 205
f 168 205 206
f 168 206 207
f 168 207 203
f 169 203 170
f 170 203 207
f 170 207 208
f 170 208 209
f 170 209 171
f 171 209 172
f 172 209 210
f 172 210 174
f 172 174 173
f 177 211 212
f 177 212 178
f 178 212 182
f 179 181 213
f 179 213 214
f 179 214 215
f 179 215 216
f 179 216 180
f 180 216 188
f 181 184 217
f 181 217 218
f 181 218 214
f 181 214 213
f 182 212 211
f 182 211 186
f 182 186 185
f 183 219 220
f 183 220 184
f 183 187 219
f 184 220 217
f 186 221 220
f 186 220 219
f 186 219 187
f 188 222 189
f 188 216 215
f 188 215 223
f 188 223 222
f 189 222 224
f 189 224 225
f 189 225 226
f 189 226 251
f 189 251 227
f 189 227 190
f 190 227 228
f 190 228 229
f 190 229 192
f 190 192 191
f 194 230 253
f 194 253 231
f 194 231 195
f 195 231 196
f 196 231 226
f 196 226 197
f 197 232 198
f 197 226 225
f 197 225 232
f 198 232 199
f 199 233 200
f 199 232 234
f 199 234 233
f 200 235 201
f 200 233 235
f 201 236 237
f 201 237 204
f 201 204 202
f 201 235 238
f 201 238 239
f 201 239 236
f 204 237 240
f 204 240 205
f 205 240 206
f 206 240 241
f 207 242 209
f 207 209 208
f 209 242 243
f 209 243 210
f 214 218 244
f 214 244 223
f 214 223 215
f 217 245 247
f 217 247 218
f 217 220 246
f 217 246 258
f 217 258 245
f 218 247 254
f 218 254 244
f 220 248 246
f 220 221 249
f 220 249 248
f 221 250 260
f 221 260 249
f 222 223 224
f 223 232 224
f 223 244 232
f 224 232 225
f 226 231 251
f 227 251 262
f 227 262 252
f 227 252 228
f 231 253 262
f 231 262 251
f 232 244 254
f 232 254 234
f 233 234 254
f 233 254 247
f 233 247 245
f 233 245 235
f 235 245 255
f 235 255 238
f 236 239 256
f 236 256 237
f 237 256 241
f 237 241 240
f 238 255 239
f 239 257 256
f 239 255 257
f 245 258 255
f 246 248 259
f 246 259 258
f 248 249 260
f 248 260 259
f 250 261 255
f 250 255 260
f 255 258 259
f 255 259 260
f 255 261 257

