# https://github.com/mikedh/trimesh
v -0.01941477 -0.01475373 -0.00531191
v -0.01941477 -0.00822367 -0.00531191
v -0.01786404 -0.01475373 -0.00531191
v -0.01941477 -0.01475373 0.00531191
v -0.01941477 -0.00780686 -0.00530463
v -0.01899808 -0.00822367 -0.00531191
v -0.01774363 -0.01332654 -0.00531191
v -0.01774363 -0.01389380 -0.00530879
v -0.01774363 -0.01446106 -0.00530151
v -0.01774363 -0.01475373 -0.00528903
v -0.01786404 -0.01475373 0.00531191
v -0.01941477 -0.00822367 0.00531191
v -0.01843122 -0.00822367 -0.00528695
v -0.01774363 -0.00879093 -0.00531087
v -0.01941477 -0.00764901 -0.00528175
v -0.01786404 -0.00879093 -0.00531191
v -0.01774363 -0.00891096 -0.00531191
v -0.01774363 -0.01475373 0.00530151
v -0.01774363 -0.01377295 0.00531191
v -0.01774363 -0.01434021 0.00530879
v -0.01941477 -0.00764901 0.00528175
v -0.01899808 -0.00822367 0.00531191
v -0.01941477 -0.00723467 -0.00520792
v -0.01774363 -0.00831410 -0.00522768
v -0.01774363 -0.00935737 0.00531191
v -0.01774363 -0.00879093 0.00531087
v -0.01843122 -0.00822367 0.00528695
v -0.01941477 -0.00716067 0.00518712
v -0.01786404 -0.00879093 0.00531191
v -0.01941477 -0.00716067 -0.00518712
v -0.01774363 -0.00822285 -0.00520688
v -0.01774363 -0.00822285 0.00520688
v -0.01803876 -0.00789071 0.00514033
v -0.01939889 -0.00690006 0.00502801
v -0.01941477 -0.00691651 0.00504257
v -0.01774363 -0.00796553 -0.00508313
v -0.01803876 -0.00789071 -0.00514033
v -0.01941477 -0.00689349 -0.00503217
v -0.01774363 -0.00807569 0.00512785
v -0.01774363 -0.00785536 0.00497082
v -0.01941477 -0.00686718 0.00501033
v -0.01941477 -0.00686718 -0.00501034
v -0.01941477 -0.00666905 -0.00483875
v -0.01774363 -0.00774602 -0.00486579
v -0.01774363 -0.00769176 0.00480443
v -0.01941477 -0.00659424 0.00476283
v -0.01941477 -0.00659424 -0.00476283
v -0.01774363 -0.00769176 -0.00480443
v -0.01774363 -0.00745910 0.00425119
v -0.01774461 -0.00745828 0.00425327
v -0.01807000 -0.00733414 0.00458917
v -0.01941477 -0.00636158 0.00425015
v -0.01914467 -0.00669947 0.00464948
v -0.01941477 -0.00636158 -0.00425535
v -0.01914467 -0.00669947 -0.00464948
v -0.01807000 -0.00733414 -0.00458917
v -0.01774363 -0.00745910 -0.00425431
v -0.01774363 -0.00745499 0.00403905
v -0.01774363 -0.00744841 0.00368548
v -0.01941477 -0.00635829 0.00397457
v -0.01774461 -0.00745828 -0.00425327
v -0.01941477 -0.00635829 -0.00397458
v -0.01774363 -0.00744841 -0.00368964
v -0.01774363 -0.00745499 -0.00403905
v -0.01941477 -0.00635500 0.00311872
v -0.01941313 -0.00635665 0.00368548
v -0.01941477 -0.00635582 0.00368548
v -0.01941477 -0.00635582 -0.00368860
v -0.01941313 -0.00635665 -0.00368548
v -0.01941477 -0.00635500 -0.00312184
f 1 2 6
f 1 6 16
f 1 16 17
f 1 17 7
f 1 7 3
f 1 3 10
f 1 10 18
f 1 18 11
f 1 11 4
f 1 4 12
f 1 12 21
f 1 21 28
f 1 28 35
f 1 35 41
f 1 41 46
f 1 46 52
f 1 52 60
f 1 60 67
f 1 67 65
f 1 65 70
f 1 70 68
f 1 68 62
f 1 62 54
f 1 54 47
f 1 47 43
f 1 43 42
f 1 42 38
f 1 38 30
f 1 30 23
f 1 23 15
f 1 15 5
f 1 5 2
f 2 5 6
f 3 7 8
f 3 8 9
f 3 9 10
f 4 11 19
f 4 19 25
f 4 25 29
f 4 29 22
f 4 22 12
f 5 13 14
f 5 14 6
f 5 15 13
f 6 14 16
f 7 17 14
f 7 14 24
f 7 24 31
f 7 31 36
f 7 36 44
f 7 44 48
f 7 48 57
f 7 57 64
f 7 64 63
f 7 63 59
f 7 59 58
f 7 58 49
f 7 49 45
f 7 45 40
f 7 40 39
f 7 39 32
f 7 32 26
f 7 26 25
f 7 25 19
f 7 19 20
f 7 20 18
f 7 18 10
f 7 10 9
f 7 9 8
f 11 18 20
f 11 20 19
f 12 22 21
f 13 15 23
f 13 23 24
f 13 24 14
f 14 17 16
f 21 26 27
f 21 27 28
f 21 22 26
f 22 29 26
f 23 30 31
f 23 31 24
f 25 26 29
f 26 32 27
f 27 32 28
f 28 32 33
f 28 33 34
f 28 34 35
f 30 36 37
f 30 37 31
f 30 38 36
f 31 37 36
f 32 39 33
f 33 39 40
f 33 40 41
f 33 41 34
f 34 41 35
f 36 38 42
f 36 42 43
f 36 43 44
f 40 45 46
f 40 46 41
f 43 47 44
f 44 47 48
f 45 49 50
f 45 50 51
f 45 51 46
f 46 51 53
f 46 53 52
f 47 54 55
f 47 55 56
f 47 56 48
f 48 56 57
f 49 58 50
f 50 58 59
f 50 59 52
f 50 52 51
f 51 52 53
f 52 59 60
f 54 61 57
f 54 57 56
f 54 56 55
f 54 62 63
f 54 63 61
f 57 61 64
f 59 65 66
f 59 66 60
f 59 63 70
f 59 70 65
f 60 66 67
f 61 63 64
f 62 68 69
f 62 69 63
f 63 69 70
f 65 67 66
f 68 70 69

