# https://github.com/mikedh/trimesh
v 0.01777091 -0.01453036 -0.00530047
v 0.01736593 -0.01453036 -0.00525264
v 0.01729694 -0.01389396 -0.00529423
v 0.01777091 -0.01436780 -0.00530879
v 0.01777091 -0.01453036 0.00529319
v 0.01735525 -0.01453036 -0.00525056
v 0.01558878 -0.01105158 -0.00528695
v 0.01558878 -0.01048504 -0.00531191
v 0.01729694 -0.01332673 -0.00531191
v 0.01777091 -0.01380057 -0.00531191
v 0.01777091 -0.01446119 0.00530047
v 0.01769744 -0.01453036 0.00528487
v 0.01729309 -0.01453036 -0.00523704
v 0.01558878 -0.01105850 -0.00528591
v 0.01558878 -0.00935750 -0.00531191
v 0.01777091 -0.00935750 -0.00531191
v 0.01729694 -0.01389396 0.00529215
v 0.01729694 -0.01446119 0.00524224
v 0.01777091 -0.01389396 0.00530775
v 0.01729694 -0.01332673 0.00531191
v 0.01559583 -0.01049196 0.00531191
v 0.01729309 -0.01453036 0.00523496
v 0.01558878 -0.01159598 -0.00519856
v 0.01700601 -0.01453036 -0.00514656
v 0.01558878 -0.00874392 -0.00519128
v 0.01672983 -0.00879027 -0.00527656
v 0.01729694 -0.00879027 -0.00530463
v 0.01777091 -0.00879027 -0.00530983
v 0.01559583 -0.01105850 0.00528695
v 0.01558878 -0.01105850 0.00528591
v 0.01777091 -0.01332673 0.00531191
v 0.01558878 -0.00992473 0.00531191
v 0.01558878 -0.01049196 0.00531087
v 0.01558878 -0.01160152 0.00519648
v 0.01697782 -0.01453036 0.00513097
v 0.01558878 -0.01160152 -0.00519648
v 0.01697590 -0.01453036 -0.00513305
v 0.01777091 -0.00822373 -0.00520376
v 0.01558878 -0.00872939 -0.00518504
v 0.01579234 -0.00849973 -0.00511017
v 0.01777091 -0.00888365 0.00531191
v 0.01558878 -0.00935750 0.00531191
v 0.01558878 -0.01162088 0.00518608
v 0.01667579 -0.01453036 0.00479923
v 0.01558878 -0.01189412 -0.00508209
v 0.01672385 -0.01453036 -0.00485643
v 0.01777091 -0.00809368 -0.00513097
v 0.01558878 -0.00833095 -0.00488555
v 0.01777091 -0.00769662 -0.00479715
v 0.01777091 -0.00785157 -0.00495522
v 0.01768035 -0.00799407 -0.00506337
v 0.01777091 -0.00879027 0.00530983
v 0.01729694 -0.00879027 0.00530463
v 0.01672983 -0.00879027 0.00527655
v 0.01558878 -0.00874392 0.00519128
v 0.01558878 -0.01221993 0.00485643
v 0.01558878 -0.01223999 0.00484291
v 0.01641327 -0.01428687 0.00458501
v 0.01664588 -0.01453036 0.00473476
v 0.01667387 -0.01453036 -0.00479923
v 0.01558878 -0.01222547 -0.00485331
v 0.01558878 -0.00831781 -0.00486995
v 0.01639021 -0.00793043 -0.00455173
v 0.01777091 -0.00747111 -0.00425327
v 0.01777091 -0.00829913 0.00522144
v 0.01777091 -0.00822373 0.00520376
v 0.01558878 -0.00851149 0.00510185
v 0.01558878 -0.01267510 0.00425327
v 0.01586219 -0.01307493 0.00456005
v 0.01645236 -0.01453036 0.00425327
v 0.01558878 -0.01223999 -0.00484291
v 0.01646283 -0.01453036 -0.00434895
v 0.01641327 -0.01428687 -0.00458501
v 0.01558878 -0.00803903 -0.00425327
v 0.01558878 -0.00803142 -0.00368548
v 0.01777091 -0.00746419 -0.00368548
v 0.01777091 -0.00797193 0.00508001
v 0.01777091 -0.00774642 0.00485331
v 0.01777091 -0.00769662 0.00479715
v 0.01558878 -0.00832265 0.00487619
v 0.01558878 -0.01268479 0.00368548
v 0.01644852 -0.01453036 0.00368548
v 0.01558878 -0.01258033 -0.00447062
v 0.01645236 -0.01453036 -0.00425327
v 0.01558878 -0.01267510 -0.00425327
v 0.01558878 -0.00803142 0.00369276
v 0.01777091 -0.00746419 0.00368964
v 0.01777091 -0.00747319 0.00425951
v 0.01639021 -0.00793043 0.00455173
v 0.01558878 -0.00831781 0.00486995
v 0.01558878 -0.01268479 -0.00368548
v 0.01644852 -0.01453036 -0.00368548
v 0.01644937 -0.01453036 -0.00388826
v 0.01558878 -0.00803903 0.00425327
v 0.01777091 -0.00747111 0.00425327
v 0.01558878 -0.00804180 0.00425951
f 1 2 3
f 1 3 4
f 1 4 10
f 1 10 16
f 1 16 28
f 1 28 38
f 1 38 47
f 1 47 50
f 1 50 49
f 1 49 64
f 1 64 76
f 1 76 87
f 1 87 95
f 1 95 88
f 1 88 79
f 1 79 78
f 1 78 77
f 1 77 66
f 1 66 65
f 1 65 52
f 1 52 41
f 1 41 31
f 1 31 19
f 1 19 11
f 1 11 5
f 1 5 12
f 1 12 22
f 1 22 35
f 1 35 44
f 1 44 59
f 1 59 70
f 1 70 82
f 1 82 92
f 1 92 93
f 1 93 84
f 1 84 72
f 1 72 60
f 1 60 46
f 1 46 37
f 1 37 24
f 1 24 13
f 1 13 6
f 1 6 2
f 2 6 7
f 2 7 3
f 3 7 8
f 3 8 4
f 4 8 9
f 4 9 10
f 5 11 12
f 6 13 7
f 7 13 14
f 7 14 23
f 7 23 36
f 7 36 45
f 7 45 61
f 7 61 71
f 7 71 83
f 7 83 85
f 7 85 91
f 7 91 81
f 7 81 68
f 7 68 57
f 7 57 56
f 7 56 43
f 7 43 34
f 7 34 30
f 7 30 33
f 7 33 32
f 7 32 42
f 7 42 55
f 7 55 67
f 7 67 80
f 7 80 90
f 7 90 96
f 7 96 94
f 7 94 86
f 7 86 75
f 7 75 74
f 7 74 62
f 7 62 48
f 7 48 39
f 7 39 25
f 7 25 15
f 7 15 8
f 8 15 16
f 8 16 10
f 8 10 9
f 11 17 18
f 11 18 12
f 11 19 20
f 11 20 21
f 11 21 17
f 12 18 22
f 13 23 14
f 13 24 23
f 15 25 26
f 15 26 27
f 15 27 28
f 15 28 16
f 17 29 30
f 17 30 18
f 17 21 29
f 18 30 22
f 19 31 20
f 20 31 41
f 20 41 42
f 20 42 32
f 20 32 21
f 21 32 33
f 21 33 30
f 21 30 29
f 22 30 34
f 22 34 35
f 23 24 37
f 23 37 36
f 25 38 26
f 25 39 40
f 25 40 38
f 26 38 27
f 27 38 28
f 34 43 35
f 35 43 44
f 36 37 45
f 37 46 45
f 38 40 47
f 39 48 40
f 40 48 49
f 40 49 50
f 40 50 51
f 40 51 47
f 41 52 42
f 42 52 53
f 42 53 54
f 42 54 55
f 43 56 44
f 44 56 57
f 44 57 58
f 44 58 59
f 45 46 60
f 45 60 61
f 47 51 50
f 48 62 49
f 49 62 63
f 49 63 64
f 52 65 53
f 53 65 54
f 54 65 66
f 54 66 55
f 55 66 67
f 57 68 69
f 57 69 58
f 58 69 68
f 58 68 70
f 58 70 59
f 60 71 61
f 60 72 73
f 60 73 71
f 62 74 63
f 63 74 64
f 64 74 75
f 64 75 76
f 66 77 67
f 67 77 78
f 67 78 79
f 67 79 80
f 68 81 70
f 70 81 82
f 71 73 83
f 72 84 85
f 72 85 83
f 72 83 73
f 75 86 87
f 75 87 76
f 79 88 89
f 79 89 90
f 79 90 80
f 81 91 92
f 81 92 82
f 84 93 85
f 85 93 91
f 86 94 95
f 86 95 87
f 88 95 94
f 88 94 89
f 89 94 96
f 89 96 90
f 91 93 92

