# https://github.com/mikedh/trimesh
v 0.02608423 -0.00198348 0.00368548
v 0.02607207 -0.00198348 0.00386434
v 0.02603999 -0.00212212 0.00368548
v 0.02608423 -0.00198348 -0.00368548
v 0.02555631 -0.00351582 0.00413992
v 0.02540173 -0.00410994 0.00368548
v 0.02548340 -0.00385597 0.00368548
v 0.02572013 -0.00311905 0.00368548
v 0.02601666 -0.00198348 0.00427823
v 0.02603999 -0.00212212 -0.00368548
v 0.02555631 -0.00351582 -0.00414096
v 0.02601666 -0.00198348 -0.00428031
v 0.02533562 -0.00410994 0.00426471
v 0.02536090 -0.00410994 0.00404841
v 0.02551548 -0.00338926 0.00451845
v 0.02540173 -0.00410994 -0.00368548
v 0.02548340 -0.00385597 -0.00368548
v 0.02572013 -0.00311905 -0.00368548
v 0.02569534 -0.00198348 0.00483979
v 0.02564721 -0.00255220 0.00470460
v 0.02557430 -0.00301143 0.00461517
v 0.02533659 -0.00410994 -0.00426471
v 0.02551597 -0.00339009 -0.00451949
v 0.02557527 -0.00301226 -0.00461517
v 0.02564770 -0.00255220 -0.00470460
v 0.02569534 -0.00198348 -0.00483979
v 0.02518638 -0.00410994 0.00460789
v 0.02510326 -0.00410994 0.00474931
v 0.02563166 -0.00198348 0.00490738
v 0.02547416 -0.00198348 0.00507377
v 0.02545131 -0.00209964 0.00505921
v 0.02489229 -0.00382183 0.00506649
v 0.02510374 -0.00410994 -0.00474828
v 0.02502548 -0.00410994 -0.00483147
v 0.02545228 -0.00209964 -0.00505921
v 0.02563214 -0.00198348 -0.00490634
v 0.02484173 -0.00410994 0.00502177
v 0.02524034 -0.00198348 0.00517672
v 0.02500750 -0.00311905 0.00513513
v 0.02496472 -0.00344380 0.00511121
v 0.02465264 -0.00410994 0.00513825
v 0.02484125 -0.00410994 -0.00502073
v 0.02489277 -0.00382142 -0.00506545
v 0.02496472 -0.00344317 -0.00511121
v 0.02524083 -0.00198348 -0.00517776
v 0.02530645 -0.00198348 -0.00514553
v 0.02521069 -0.00198348 0.00518400
v 0.02466917 -0.00311905 0.00523600
v 0.02508916 -0.00255220 0.00517048
v 0.02457049 -0.00410994 0.00517568
v 0.02457000 -0.00410994 -0.00517568
v 0.02500701 -0.00311905 -0.00513513
v 0.02508916 -0.00255220 -0.00517048
v 0.02466917 -0.00311905 -0.00523704
v 0.02466917 -0.00255220 -0.00527448
v 0.02466917 -0.00198493 -0.00529839
v 0.02468764 -0.00198348 -0.00529423
v 0.02466917 -0.00255220 0.00527447
v 0.02466917 -0.00198348 0.00529735
v 0.02466917 -0.00198493 0.00529735
v 0.02424236 -0.00410994 0.00525472
v 0.02410236 -0.00410994 -0.00528383
v 0.02466771 -0.00198348 -0.00529839
v 0.02410236 -0.00368611 -0.00530047
v 0.02410236 -0.00311905 -0.00530983
v 0.02410236 -0.00255220 -0.00531191
v 0.02410236 -0.00198493 -0.00531191
v 0.02410236 -0.00410994 0.00528279
v 0.02410236 -0.00198348 0.00531191
v 0.02410236 -0.00255220 0.00531191
v 0.02410236 -0.00311905 0.00530879
v 0.02410236 -0.00368611 0.00529839
v 0.02353556 -0.00410994 -0.00531191
v 0.02410091 -0.00198348 -0.00531191
v 0.02367799 -0.00410994 0.00530775
v 0.02296827 -0.00198348 0.00531191
v 0.02353556 -0.00410994 0.00531191
v 0.02296827 -0.00410994 -0.00531191
v 0.02353410 -0.00198348 -0.00531191
v 0.02240147 -0.00368611 0.00529943
v 0.02240147 -0.00410994 0.00530879
v 0.02254439 -0.00410994 0.00531191
v 0.02243550 -0.00198348 0.00520792
v 0.02296827 -0.00198493 -0.00531191
v 0.02240147 -0.00410994 -0.00530879
v 0.02296730 -0.00198348 -0.00531087
v 0.02197321 -0.00410994 0.00522768
v 0.02215210 -0.00198348 0.00508209
v 0.02185606 -0.00410994 0.00519960
v 0.02240147 -0.00368611 -0.00529943
v 0.02243550 -0.00198493 -0.00520792
v 0.02185606 -0.00410994 -0.00519960
v 0.02243453 -0.00198348 -0.00520688
v 0.02190953 -0.00198348 0.00479923
v 0.02190904 -0.00198493 0.00479923
v 0.02133058 -0.00410994 0.00477531
v 0.02140787 -0.00410994 0.00486059
v 0.02160668 -0.00410994 0.00506025
v 0.02215210 -0.00198348 -0.00508209
v 0.02163779 -0.00410994 -0.00507377
v 0.02169224 -0.00198348 0.00425327
v 0.02114585 -0.00410994 0.00432503
v 0.02161252 -0.00408746 -0.00505609
v 0.02157655 -0.00410994 -0.00502905
v 0.02133058 -0.00410994 -0.00477531
v 0.02190904 -0.00198493 -0.00479923
v 0.02190953 -0.00198348 -0.00479923
v 0.02168349 -0.00198348 0.00368548
v 0.02112495 -0.00410994 0.00425327
v 0.02112495 -0.00410994 -0.00425327
v 0.02169224 -0.00198348 -0.00425327
v 0.02111863 -0.00410994 0.00311872
v 0.02111912 -0.00410994 0.00368548
v 0.02168349 -0.00198348 -0.00368548
v 0.02112398 -0.00410994 -0.00416072
v 0.02111863 -0.00410994 -0.00311872
v 0.02111912 -0.00410994 -0.00368548
f 1 2 3
f 1 3 10
f 1 10 4
f 1 4 12
f 1 12 26
f 1 26 36
f 1 36 46
f 1 46 45
f 1 45 57
f 1 57 63
f 1 63 74
f 1 74 79
f 1 79 86
f 1 86 93
f 1 93 99
f 1 99 107
f 1 107 111
f 1 111 114
f 1 114 108
f 1 108 101
f 1 101 94
f 1 94 88
f 1 88 83
f 1 83 76
f 1 76 69
f 1 69 59
f 1 59 47
f 1 47 38
f 1 38 30
f 1 30 29
f 1 29 19
f 1 19 9
f 1 9 2
f 2 5 6
f 2 6 7
f 2 7 8
f 2 8 3
f 2 9 5
f 3 8 18
f 3 18 10
f 4 10 11
f 4 11 12
f 5 13 14
f 5 14 6
f 5 9 15
f 5 15 13
f 6 14 13
f 6 13 27
f 6 27 28
f 6 28 37
f 6 37 41
f 6 41 50
f 6 50 61
f 6 61 68
f 6 68 75
f 6 75 77
f 6 77 82
f 6 82 81
f 6 81 87
f 6 87 89
f 6 89 98
f 6 98 97
f 6 97 96
f 6 96 102
f 6 102 109
f 6 109 113
f 6 113 112
f 6 112 116
f 6 116 117
f 6 117 115
f 6 115 110
f 6 110 105
f 6 105 104
f 6 104 100
f 6 100 92
f 6 92 85
f 6 85 78
f 6 78 73
f 6 73 62
f 6 62 51
f 6 51 42
f 6 42 34
f 6 34 33
f 6 33 22
f 6 22 16
f 6 16 17
f 6 17 7
f 7 17 18
f 7 18 8
f 9 19 20
f 9 20 21
f 9 21 15
f 10 18 11
f 11 22 23
f 11 23 12
f 11 18 17
f 11 17 16
f 11 16 22
f 12 23 24
f 12 24 25
f 12 25 26
f 13 15 27
f 15 21 28
f 15 28 27
f 19 29 20
f 20 28 21
f 20 29 30
f 20 30 31
f 20 31 32
f 20 32 28
f 22 33 23
f 23 33 24
f 24 33 25
f 25 33 34
f 25 34 35
f 25 35 26
f 26 35 36
f 28 32 37
f 30 38 39
f 30 39 40
f 30 40 32
f 30 32 31
f 32 40 41
f 32 41 37
f 34 42 43
f 34 43 35
f 35 43 44
f 35 44 45
f 35 45 46
f 35 46 36
f 38 47 48
f 38 48 49
f 38 49 39
f 39 49 50
f 39 50 40
f 40 50 41
f 42 51 43
f 43 51 44
f 44 52 45
f 44 51 52
f 45 52 53
f 45 53 54
f 45 54 55
f 45 55 56
f 45 56 57
f 47 58 48
f 47 59 60
f 47 60 58
f 48 58 61
f 48 61 50
f 48 50 49
f 51 62 54
f 51 54 53
f 51 53 52
f 54 62 55
f 55 62 56
f 56 63 57
f 56 62 64
f 56 64 65
f 56 65 66
f 56 66 67
f 56 67 74
f 56 74 63
f 58 60 68
f 58 68 61
f 59 69 70
f 59 70 60
f 60 70 71
f 60 71 72
f 60 72 68
f 62 73 64
f 64 73 65
f 65 73 66
f 66 73 78
f 66 78 84
f 66 84 79
f 66 79 74
f 66 74 67
f 68 72 75
f 69 76 82
f 69 82 77
f 69 77 70
f 70 77 71
f 71 75 72
f 71 77 75
f 76 80 81
f 76 81 82
f 76 83 80
f 78 85 84
f 79 84 86
f 80 83 87
f 80 87 81
f 83 88 89
f 83 89 87
f 84 85 90
f 84 90 91
f 84 91 93
f 84 93 86
f 85 92 90
f 88 94 95
f 88 95 96
f 88 96 97
f 88 97 98
f 88 98 89
f 90 92 91
f 91 92 99
f 91 99 93
f 92 100 99
f 94 101 95
f 95 101 102
f 95 102 96
f 99 100 103
f 99 103 104
f 99 104 105
f 99 105 106
f 99 106 107
f 100 104 103
f 101 108 109
f 101 109 102
f 105 110 111
f 105 111 106
f 106 111 107
f 108 112 113
f 108 113 109
f 108 114 116
f 108 116 112
f 110 115 114
f 110 114 111
f 114 115 117
f 114 117 116

