# https://github.com/mikedh/trimesh
v -0.01645067 -0.01475373 0.00371251
v -0.01645241 -0.01475373 0.00425327
v -0.01663754 -0.01672991 0.00368548
v -0.01645067 -0.01475373 -0.00368548
v -0.01664798 -0.01672991 0.00425327
v -0.01669760 -0.01475373 0.00483667
v -0.01683572 -0.01672991 0.00476907
v -0.01663754 -0.01672991 -0.00368548
v -0.01645212 -0.01475373 -0.00422104
v -0.01686532 -0.01475373 0.00502073
v -0.01708527 -0.01672991 0.00505193
v -0.01664798 -0.01672991 -0.00425327
v -0.01645241 -0.01475373 -0.00425327
v -0.01697384 -0.01475373 0.00513513
v -0.01736877 -0.01672991 0.00520792
v -0.01683572 -0.01672991 -0.00476907
v -0.01656702 -0.01475373 -0.00454965
v -0.01709427 -0.01475373 0.00517984
v -0.01727475 -0.01475373 0.00523184
v -0.01786409 -0.01672991 0.00531191
v -0.01708527 -0.01672991 -0.00505193
v -0.01669760 -0.01475373 -0.00483667
v -0.01758930 -0.01475373 0.00528903
v -0.01786409 -0.01475373 0.00531191
v -0.01843108 -0.01672991 0.00531191
v -0.01736877 -0.01672991 -0.00520792
v -0.01697384 -0.01475373 -0.00513513
v -0.01941477 -0.01475373 0.00531191
v -0.01899808 -0.01672971 0.00531191
v -0.01941477 -0.01672991 0.00531087
v -0.01727475 -0.01475373 -0.00523184
v -0.01786409 -0.01672991 -0.00531191
v -0.01941477 -0.01616255 0.00531191
v -0.01941477 -0.01475373 -0.00531191
v -0.01941477 -0.01672991 -0.00531087
v -0.01786409 -0.01475373 -0.00531191
v -0.01899837 -0.01672991 -0.00531191
v -0.01941477 -0.01631324 -0.00531191
f 1 2 3
f 1 3 8
f 1 8 4
f 1 4 9
f 1 9 13
f 1 13 17
f 1 17 22
f 1 22 27
f 1 27 31
f 1 31 36
f 1 36 34
f 1 34 28
f 1 28 24
f 1 24 23
f 1 23 19
f 1 19 18
f 1 18 14
f 1 14 10
f 1 10 6
f 1 6 2
f 2 5 3
f 2 6 7
f 2 7 5
f 3 5 7
f 3 7 11
f 3 11 15
f 3 15 20
f 3 20 25
f 3 25 30
f 3 30 35
f 3 35 37
f 3 37 32
f 3 32 26
f 3 26 21
f 3 21 16
f 3 16 12
f 3 12 8
f 4 8 9
f 6 10 11
f 6 11 7
f 8 12 13
f 8 13 9
f 10 14 11
f 11 14 15
f 12 16 13
f 13 16 17
f 14 18 15
f 15 18 19
f 15 19 20
f 16 21 22
f 16 22 17
f 19 23 20
f 20 24 28
f 20 28 33
f 20 33 29
f 20 29 25
f 20 23 24
f 21 26 27
f 21 27 22
f 25 29 30
f 26 31 27
f 26 32 31
f 28 34 38
f 28 38 35
f 28 35 30
f 28 30 33
f 29 33 30
f 31 32 36
f 32 37 38
f 32 38 34
f 32 34 36
f 35 38 37

