# https://github.com/mikedh/trimesh
v -0.01615198 -0.01386702 -0.00368548
v -0.01615198 -0.01384963 -0.00425327
v -0.01487610 -0.01184323 -0.00425327
v -0.01487610 -0.01185018 -0.00368548
v -0.01615198 -0.01386702 0.00368548
v -0.01615198 -0.01330485 -0.00481171
v -0.01584072 -0.01311476 -0.00458709
v -0.01487610 -0.01157200 -0.00477531
v -0.01487610 -0.01185018 0.00368548
v -0.01487610 -0.01184960 0.00375723
v -0.01487610 -0.01184323 0.00425327
v -0.01615198 -0.01385137 0.00419920
v -0.01615198 -0.01324748 -0.00484499
v -0.01487610 -0.01121558 -0.00505609
v -0.01487610 -0.01130657 -0.00499994
v -0.01487610 -0.01182874 0.00429071
v -0.01615198 -0.01384963 0.00425327
v -0.01615198 -0.01275950 -0.00507793
v -0.01487610 -0.01098028 -0.00518608
v -0.01487610 -0.01157200 0.00477531
v -0.01615198 -0.01367924 0.00449245
v -0.01615198 -0.01229354 -0.00521832
v -0.01577377 -0.01205303 -0.00516528
v -0.01487610 -0.01049636 -0.00527760
v -0.01487610 -0.01149666 0.00484707
v -0.01615198 -0.01330485 0.00481171
v -0.01615198 -0.01181599 -0.00527967
v -0.01502848 -0.01049172 -0.00529839
v -0.01487610 -0.00992492 -0.00531087
v -0.01487610 -0.01130657 0.00499994
v -0.01487610 -0.01125730 0.00503841
v -0.01615198 -0.01329210 0.00482003
v -0.01615198 -0.01162532 -0.00530359
v -0.01559541 -0.01049172 -0.00531191
v -0.01502848 -0.00992492 -0.00531191
v -0.01487610 -0.00935754 -0.00531191
v -0.01487610 -0.01098028 0.00518608
v -0.01615198 -0.01289569 0.00503633
v -0.01615198 -0.01324748 0.00484499
v -0.01615198 -0.01105852 -0.00531087
v -0.01615198 -0.01049172 -0.00531191
v -0.01615198 -0.00935754 -0.00531191
v -0.01615198 -0.00880117 -0.00524120
v -0.01615198 -0.00878958 -0.00523912
v -0.01487610 -0.00895823 -0.00523496
v -0.01487610 -0.01090726 0.00520896
v -0.01615198 -0.01263316 0.00514137
v -0.01615198 -0.00847257 -0.00513721
v -0.01487610 -0.00879422 -0.00520272
v -0.01615198 -0.01229354 0.00521832
v -0.01487610 -0.01049636 0.00527759
v -0.01615198 -0.00846851 -0.00513513
v -0.01487610 -0.00852646 -0.00509249
v -0.01487610 -0.00858442 -0.00511641
v -0.01487610 -0.01033930 0.00530151
v -0.01615198 -0.01224254 0.00522560
v -0.01615198 -0.00816656 -0.00479403
v -0.01615198 -0.00815497 -0.00478051
v -0.01487610 -0.00829812 -0.00482419
v -0.01487610 -0.00992492 0.00531087
v -0.01615198 -0.01161489 0.00530567
v -0.01615198 -0.00795561 -0.00435727
v -0.01487610 -0.00805877 -0.00425327
v -0.01487610 -0.00977250 0.00531191
v -0.01502848 -0.00992492 0.00531191
v -0.01559541 -0.01049172 0.00531191
v -0.01615198 -0.01104809 0.00531191
v -0.01615198 -0.00795039 -0.00425327
v -0.01487610 -0.00805239 -0.00383835
v -0.01487610 -0.00935754 0.00531191
v -0.01615198 -0.00935754 0.00531191
v -0.01615198 -0.00794807 -0.00391322
v -0.01487610 -0.00805065 -0.00368548
v -0.01615198 -0.00878958 0.00523912
v -0.01487610 -0.00879422 0.00520272
v -0.01615198 -0.00794749 -0.00368548
v -0.01615198 -0.00794691 -0.00311872
v -0.01487610 -0.00805065 0.00368548
v -0.01615198 -0.00878263 0.00523704
v -0.01487610 -0.00852646 0.00509249
v -0.01615198 -0.00846851 0.00513513
v -0.01615198 -0.00794691 0.00311872
v -0.01615198 -0.00794749 0.00368548
v -0.01615198 -0.00795039 0.00425327
v -0.01487610 -0.00805645 0.00410040
v -0.01487610 -0.00847488 0.00503425
v -0.01615198 -0.00815497 0.00478051
v -0.01487610 -0.00805877 0.00425327
v -0.01615198 -0.00814512 0.00475867
v -0.01487610 -0.00829812 0.00482419
v -0.01487610 -0.00822394 0.00465884
f 1 2 3
f 1 3 4
f 1 4 9
f 1 9 5
f 1 5 12
f 1 12 17
f 1 17 21
f 1 21 26
f 1 26 32
f 1 32 39
f 1 39 38
f 1 38 47
f 1 47 50
f 1 50 56
f 1 56 61
f 1 61 67
f 1 67 71
f 1 71 74
f 1 74 79
f 1 79 81
f 1 81 87
f 1 87 89
f 1 89 84
f 1 84 83
f 1 83 82
f 1 82 77
f 1 77 76
f 1 76 72
f 1 72 68
f 1 68 62
f 1 62 58
f 1 58 57
f 1 57 52
f 1 52 48
f 1 48 44
f 1 44 43
f 1 43 42
f 1 42 41
f 1 41 40
f 1 40 33
f 1 33 27
f 1 27 22
f 1 22 18
f 1 18 13
f 1 13 6
f 1 6 2
f 2 6 7
f 2 7 8
f 2 8 3
f 3 8 15
f 3 15 14
f 3 14 19
f 3 19 24
f 3 24 29
f 3 29 36
f 3 36 45
f 3 45 49
f 3 49 54
f 3 54 53
f 3 53 59
f 3 59 63
f 3 63 69
f 3 69 73
f 3 73 78
f 3 78 85
f 3 85 88
f 3 88 91
f 3 91 90
f 3 90 86
f 3 86 80
f 3 80 75
f 3 75 70
f 3 70 64
f 3 64 60
f 3 60 55
f 3 55 51
f 3 51 46
f 3 46 37
f 3 37 31
f 3 31 30
f 3 30 25
f 3 25 20
f 3 20 16
f 3 16 11
f 3 11 10
f 3 10 9
f 3 9 4
f 5 9 10
f 5 10 11
f 5 11 12
f 6 13 14
f 6 14 15
f 6 15 8
f 6 8 7
f 11 16 17
f 11 17 12
f 13 18 19
f 13 19 14
f 16 20 17
f 17 20 21
f 18 22 23
f 18 23 19
f 19 23 22
f 19 22 24
f 20 25 21
f 21 25 26
f 22 27 24
f 24 27 28
f 24 28 29
f 25 30 26
f 26 30 31
f 26 31 32
f 27 33 28
f 28 33 29
f 29 33 34
f 29 34 35
f 29 35 36
f 31 37 38
f 31 38 39
f 31 39 32
f 33 40 34
f 34 41 42
f 34 42 36
f 34 36 35
f 34 40 41
f 36 42 43
f 36 43 44
f 36 44 45
f 37 46 47
f 37 47 38
f 44 48 49
f 44 49 45
f 46 50 47
f 46 51 50
f 48 52 53
f 48 53 54
f 48 54 49
f 50 51 55
f 50 55 56
f 52 57 53
f 53 57 58
f 53 58 59
f 55 60 61
f 55 61 56
f 58 62 59
f 59 62 63
f 60 64 65
f 60 65 66
f 60 66 67
f 60 67 61
f 62 68 63
f 63 68 69
f 64 70 71
f 64 71 67
f 64 67 66
f 64 66 65
f 68 72 73
f 68 73 69
f 70 74 71
f 70 75 74
f 72 76 73
f 73 76 77
f 73 77 82
f 73 82 78
f 74 75 79
f 75 80 81
f 75 81 79
f 78 82 83
f 78 83 84
f 78 84 85
f 80 86 81
f 81 86 87
f 84 88 85
f 84 89 88
f 86 90 87
f 87 90 89
f 88 89 91
f 89 90 91

