# https://github.com/mikedh/trimesh
v 0.00726939 -0.01029978 -0.00311872
v 0.00726939 -0.01029917 -0.00368548
v 0.00932077 -0.00973753 -0.00372187
v 0.00726939 -0.01029978 0.00311872
v 0.00726939 -0.01029554 -0.00425327
v 0.00932077 -0.00973571 -0.00425327
v 0.00932077 -0.00973753 0.00368548
v 0.00726939 -0.01029917 0.00368548
v 0.00726939 -0.01024949 -0.00459021
v 0.00932077 -0.00968724 -0.00460789
v 0.00932077 -0.00973571 0.00425327
v 0.00726939 -0.01029796 0.00399745
v 0.00726939 -0.00998654 -0.00488451
v 0.00932077 -0.00944974 -0.00489178
v 0.00932077 -0.00969269 0.00458189
v 0.00726939 -0.01028706 0.00442694
v 0.00726939 -0.01029554 0.00425327
v 0.00726939 -0.00970784 -0.00514968
v 0.00932077 -0.00916619 -0.00517568
v 0.00932077 -0.00968724 0.00460789
v 0.00726939 -0.01024949 0.00459021
v 0.00726939 -0.00936552 -0.00525160
v 0.00932077 -0.00878994 -0.00527967
v 0.00726939 -0.01015922 0.00469836
v 0.00932077 -0.00946549 0.00487307
v 0.00726939 -0.00878994 -0.00531191
v 0.00765617 -0.00878994 -0.00531191
v 0.00822329 -0.00878994 -0.00530983
v 0.00879021 -0.00878994 -0.00529839
v 0.00932077 -0.00822284 -0.00531191
v 0.00932077 -0.00944974 0.00489178
v 0.00726939 -0.00998654 0.00488450
v 0.00726939 -0.00411015 -0.00531191
v 0.00932077 -0.00705228 -0.00531191
v 0.00726939 -0.00985143 0.00502489
v 0.00932077 -0.00918436 0.00515904
v 0.00751299 -0.00411015 -0.00531191
v 0.00726939 -0.00411015 0.00530879
v 0.00765617 -0.00425374 -0.00531191
v 0.00765617 -0.00411015 -0.00530879
v 0.00932077 -0.00648518 -0.00528175
v 0.00932077 -0.00916619 0.00517568
v 0.00726939 -0.00970784 0.00514968
v 0.00726939 -0.00425374 0.00531191
v 0.00765617 -0.00411015 0.00530879
v 0.00808713 -0.00411015 -0.00522872
v 0.00820361 -0.00411015 -0.00520064
v 0.00932077 -0.00595080 -0.00519232
v 0.00726939 -0.00962908 0.00518088
v 0.00932077 -0.00881660 0.00527343
v 0.00726939 -0.00878994 0.00531191
v 0.00765617 -0.00425374 0.00531191
v 0.00932077 -0.00652214 0.00528279
v 0.00820361 -0.00411015 0.00520064
v 0.00932077 -0.00708924 0.00531191
v 0.00845343 -0.00411015 -0.00506337
v 0.00932077 -0.00592414 -0.00518608
v 0.00726939 -0.00936552 0.00525160
v 0.00932077 -0.00878994 0.00527967
v 0.00726939 -0.00917709 0.00528695
v 0.00765617 -0.00878994 0.00531191
v 0.00932077 -0.00597928 0.00519648
v 0.00932077 -0.00592414 0.00518608
v 0.00854079 -0.00446095 0.00512993
v 0.00841608 -0.00411015 0.00508001
v 0.00932077 -0.00822284 0.00531191
v 0.00932077 -0.00567270 -0.00508937
v 0.00865385 -0.00411015 -0.00486267
v 0.00932077 -0.00825980 0.00531087
v 0.00879021 -0.00878994 0.00529839
v 0.00822329 -0.00878994 0.00530983
v 0.00932077 -0.00541218 0.00491258
v 0.00848978 -0.00411015 0.00502489
v 0.00872996 -0.00411015 -0.00477843
v 0.00932077 -0.00531403 -0.00485747
v 0.00932077 -0.00534553 0.00487515
v 0.00872996 -0.00411015 0.00477843
v 0.00909485 -0.00449488 -0.00456525
v 0.00932077 -0.00522617 -0.00479923
v 0.00891833 -0.00411015 -0.00432087
v 0.00932077 -0.00522617 0.00479923
v 0.00909485 -0.00449488 0.00456525
v 0.00893821 -0.00411015 0.00425327
v 0.00893821 -0.00411015 -0.00425327
v 0.00932077 -0.00483660 -0.00425327
v 0.00932077 -0.00496019 -0.00451949
v 0.00932077 -0.00483660 0.00425327
v 0.00893921 -0.00411015 0.00416696
v 0.00894343 -0.00411015 -0.00376763
v 0.00932077 -0.00483599 -0.00423040
v 0.00932077 -0.00482569 0.00369276
v 0.00894424 -0.00411015 0.00368548
v 0.00894424 -0.00411015 -0.00368548
v 0.00932077 -0.00482569 -0.00368548
v 0.00894444 -0.00411015 0.00311872
v 0.00894444 -0.00411015 -0.00320087
f 1 2 3
f 1 3 7
f 1 7 4
f 1 4 8
f 1 8 12
f 1 12 17
f 1 17 16
f 1 16 21
f 1 21 24
f 1 24 32
f 1 32 35
f 1 35 43
f 1 43 49
f 1 49 58
f 1 58 60
f 1 60 51
f 1 51 44
f 1 44 38
f 1 38 33
f 1 33 26
f 1 26 22
f 1 22 18
f 1 18 13
f 1 13 9
f 1 9 5
f 1 5 2
f 2 5 6
f 2 6 3
f 3 6 10
f 3 10 14
f 3 14 19
f 3 19 23
f 3 23 30
f 3 30 34
f 3 34 41
f 3 41 48
f 3 48 57
f 3 57 67
f 3 67 75
f 3 75 79
f 3 79 86
f 3 86 85
f 3 85 90
f 3 90 94
f 3 94 91
f 3 91 87
f 3 87 81
f 3 81 76
f 3 76 72
f 3 72 63
f 3 63 62
f 3 62 53
f 3 53 55
f 3 55 66
f 3 66 69
f 3 69 59
f 3 59 50
f 3 50 42
f 3 42 36
f 3 36 31
f 3 31 25
f 3 25 20
f 3 20 15
f 3 15 11
f 3 11 7
f 4 7 8
f 5 9 6
f 6 9 10
f 7 11 8
f 8 11 12
f 9 13 14
f 9 14 10
f 11 15 16
f 11 16 17
f 11 17 12
f 13 18 19
f 13 19 14
f 15 20 16
f 16 20 21
f 18 22 19
f 19 22 23
f 20 24 21
f 20 25 24
f 22 26 27
f 22 27 28
f 22 28 29
f 22 29 23
f 23 29 30
f 24 25 31
f 24 31 32
f 26 33 37
f 26 37 39
f 26 39 34
f 26 34 30
f 26 30 27
f 27 30 28
f 28 30 29
f 31 35 32
f 31 36 35
f 33 38 45
f 33 45 54
f 33 54 65
f 33 65 73
f 33 73 77
f 33 77 83
f 33 83 88
f 33 88 92
f 33 92 95
f 33 95 96
f 33 96 93
f 33 93 89
f 33 89 84
f 33 84 80
f 33 80 74
f 33 74 68
f 33 68 56
f 33 56 47
f 33 47 46
f 33 46 40
f 33 40 37
f 34 39 40
f 34 40 41
f 35 36 42
f 35 42 43
f 37 40 39
f 38 44 52
f 38 52 45
f 40 46 41
f 41 46 47
f 41 47 48
f 42 49 43
f 42 50 49
f 44 51 61
f 44 61 66
f 44 66 55
f 44 55 52
f 45 53 54
f 45 52 55
f 45 55 53
f 47 56 57
f 47 57 48
f 49 50 58
f 50 59 58
f 51 60 61
f 53 62 54
f 54 62 63
f 54 63 64
f 54 64 65
f 56 67 57
f 56 68 67
f 58 59 60
f 59 69 70
f 59 70 60
f 60 70 71
f 60 71 61
f 61 71 66
f 63 72 73
f 63 73 65
f 63 65 64
f 66 71 69
f 67 68 74
f 67 74 75
f 69 71 70
f 72 76 73
f 73 76 77
f 74 78 79
f 74 79 75
f 74 80 78
f 76 81 77
f 77 82 83
f 77 81 82
f 78 80 84
f 78 84 85
f 78 85 86
f 78 86 79
f 81 87 82
f 82 87 83
f 83 87 88
f 84 89 90
f 84 90 85
f 87 91 92
f 87 92 88
f 89 93 94
f 89 94 90
f 91 95 92
f 91 94 96
f 91 96 95
f 93 96 94

