# https://github.com/mikedh/trimesh
v -0.00708838 -0.00198667 -0.00531191
v -0.00758443 -0.00198667 -0.00520688
v -0.00758443 -0.00198488 -0.00520792
v -0.00742516 0.00005332 -0.00526616
v -0.00708838 0.00005332 -0.00531191
v 0.00708800 -0.00198667 -0.00531191
v -0.00786812 -0.00198667 -0.00505401
v -0.00784490 0.00005332 -0.00515592
v -0.00766904 0.00005332 -0.00521416
v -0.00794610 0.00005332 -0.00511017
v 0.00708800 0.00005332 -0.00531191
v 0.00767363 0.00005332 -0.00523600
v 0.00762552 -0.00198667 -0.00520792
v -0.00811864 -0.00198667 -0.00477011
v -0.00800748 0.00005332 -0.00504049
v 0.00798055 0.00005332 -0.00513721
v 0.00790921 -0.00198667 -0.00508625
v -0.00830776 -0.00198667 -0.00425327
v -0.00843717 0.00005332 -0.00425327
v -0.00820325 0.00005332 -0.00481691
v 0.00826590 0.00005332 -0.00482419
v 0.00815143 -0.00198667 -0.00480235
v -0.00831606 -0.00198667 -0.00368548
v -0.00844380 0.00005332 -0.00368548
v 0.00836710 0.00005332 -0.00460269
v 0.00837042 -0.00198667 -0.00425327
v -0.00831606 -0.00198667 0.00368548
v -0.00844546 0.00005332 -0.00311872
v 0.00849983 0.00005332 -0.00425327
v 0.00838038 -0.00198667 -0.00368548
v -0.00844049 0.00005332 0.00411496
v -0.00844380 0.00005332 0.00368548
v -0.00844546 0.00005332 0.00311872
v -0.00830776 -0.00198667 0.00425327
v 0.00850314 0.00005332 -0.00311872
v 0.00838038 -0.00198667 0.00368548
v -0.00843717 0.00005332 0.00425327
v -0.00811864 -0.00198667 0.00477011
v 0.00850314 0.00005332 0.00315720
v 0.00850149 0.00005332 0.00372395
v 0.00849983 0.00005332 0.00425327
v 0.00837042 -0.00198667 0.00425327
v -0.00831938 0.00005332 0.00456213
v -0.00794610 0.00005332 0.00511017
v -0.00820325 0.00005332 0.00481691
v -0.00786812 -0.00198667 0.00505401
v 0.00849651 0.00005332 0.00426679
v 0.00815143 -0.00198667 0.00480235
v -0.00758443 -0.00198488 0.00520792
v -0.00766904 0.00005332 0.00521416
v -0.00758443 -0.00198667 0.00520688
v 0.00826590 0.00005332 0.00482419
v 0.00790921 -0.00198667 0.00508625
v -0.00708838 -0.00198667 0.00531191
v -0.00708838 0.00005332 0.00531191
v 0.00814645 0.00005332 0.00495834
v 0.00798055 0.00005332 0.00513721
v 0.00762552 -0.00198667 0.00520792
v 0.00708800 -0.00198667 0.00531191
v 0.00708800 0.00005332 0.00531191
v 0.00788930 0.00005332 0.00517152
v 0.00767363 0.00005332 0.00523600
v 0.00742478 0.00005332 0.00528071
f 1 2 3
f 1 3 4
f 1 4 5
f 1 5 11
f 1 11 6
f 1 6 13
f 1 13 17
f 1 17 22
f 1 22 26
f 1 26 30
f 1 30 36
f 1 36 42
f 1 42 48
f 1 48 53
f 1 53 58
f 1 58 59
f 1 59 54
f 1 54 51
f 1 51 46
f 1 46 38
f 1 38 34
f 1 34 27
f 1 27 23
f 1 23 18
f 1 18 14
f 1 14 7
f 1 7 2
f 2 7 3
f 3 8 9
f 3 9 4
f 3 7 10
f 3 10 8
f 4 9 8
f 4 8 10
f 4 10 15
f 4 15 20
f 4 20 19
f 4 19 24
f 4 24 28
f 4 28 33
f 4 33 32
f 4 32 31
f 4 31 37
f 4 37 43
f 4 43 45
f 4 45 44
f 4 44 50
f 4 50 55
f 4 55 60
f 4 60 63
f 4 63 62
f 4 62 61
f 4 61 57
f 4 57 56
f 4 56 52
f 4 52 47
f 4 47 41
f 4 41 40
f 4 40 39
f 4 39 35
f 4 35 29
f 4 29 25
f 4 25 21
f 4 21 16
f 4 16 12
f 4 12 11
f 4 11 5
f 6 11 12
f 6 12 13
f 7 14 10
f 10 14 15
f 12 16 13
f 13 16 17
f 14 18 19
f 14 19 20
f 14 20 15
f 16 21 17
f 17 21 22
f 18 23 19
f 19 23 24
f 21 25 22
f 22 25 26
f 23 27 33
f 23 33 28
f 23 28 24
f 25 29 26
f 26 29 30
f 27 31 32
f 27 32 33
f 27 34 31
f 29 35 30
f 30 35 39
f 30 39 36
f 31 34 37
f 34 38 37
f 36 39 40
f 36 40 41
f 36 41 42
f 37 38 43
f 38 44 45
f 38 45 43
f 38 46 44
f 41 47 42
f 42 47 48
f 44 46 49
f 44 49 50
f 46 51 49
f 47 52 48
f 48 52 53
f 49 51 54
f 49 54 50
f 50 54 55
f 52 56 53
f 53 56 57
f 53 57 58
f 54 59 60
f 54 60 55
f 57 61 58
f 58 61 62
f 58 62 59
f 59 62 63
f 59 63 60

