# https://github.com/mikedh/trimesh
v -0.01892859 0.00399627 -0.00311872
v -0.01892859 0.00399695 -0.00368548
v -0.01651859 0.00512356 -0.00368548
v -0.01892859 0.00399627 0.00311872
v -0.01651859 0.00512423 -0.00381235
v -0.01892859 0.00400231 -0.00425327
v -0.01651859 0.00512692 -0.00425327
v -0.01651859 0.00512356 0.00368548
v -0.01892859 0.00399695 0.00368548
v -0.01892859 0.00427541 -0.00481483
v -0.01687696 0.00506720 -0.00459125
v -0.01651859 0.00526179 -0.00460997
v -0.01651859 0.00512423 0.00381235
v -0.01651859 0.00512692 0.00425327
v -0.01892859 0.00399829 0.00385706
v -0.01651859 0.00535640 -0.00482003
v -0.01892859 0.00437875 -0.00491362
v -0.01651859 0.00563688 -0.00513201
v -0.01651859 0.00535908 0.00482003
v -0.01687696 0.00506720 0.00459125
v -0.01892859 0.00402312 0.00434479
v -0.01892859 0.00400231 0.00425327
v -0.01892859 0.00473102 -0.00515280
v -0.01880874 0.00460353 -0.00505089
v -0.01892859 0.00482765 -0.00520688
v -0.01651859 0.00594017 -0.00523184
v -0.01651859 0.00549261 0.00497082
v -0.01892859 0.00427541 0.00481483
v -0.01672998 0.00595493 -0.00525472
v -0.01892859 0.00538794 -0.00530671
v -0.01729692 0.00595493 -0.00529631
v -0.01651859 0.00652193 -0.00531191
v -0.01651859 0.00563889 0.00512993
v -0.01892859 0.00430762 0.00484811
v -0.01892859 0.00595493 -0.00531191
v -0.01786385 0.00595493 -0.00531191
v -0.01651859 0.01085124 -0.00531191
v -0.01651859 0.00572813 0.00516528
v -0.01892859 0.00482765 0.00520688
v -0.01892859 0.00456126 0.00508105
v -0.01892859 0.00437875 0.00491362
v -0.01892859 0.01085124 -0.00531191
v -0.01651859 0.01085124 0.00531191
v -0.01651859 0.00594017 0.00523080
v -0.01892859 0.00487529 0.00521936
v -0.01892859 0.01085124 0.00531191
v -0.01651859 0.00652193 0.00531191
v -0.01651859 0.00616630 0.00527447
v -0.01672998 0.00595493 0.00525264
v -0.01729692 0.00595493 0.00529527
v -0.01892859 0.00538794 0.00530671
v -0.01892859 0.00595493 0.00531191
v -0.01786385 0.00595493 0.00531191
v -0.01892859 0.00545705 0.00531087
f 1 2 3
f 1 3 8
f 1 8 4
f 1 4 9
f 1 9 15
f 1 15 22
f 1 22 21
f 1 21 28
f 1 28 34
f 1 34 41
f 1 41 40
f 1 40 39
f 1 39 45
f 1 45 51
f 1 51 54
f 1 54 52
f 1 52 46
f 1 46 42
f 1 42 35
f 1 35 30
f 1 30 25
f 1 25 23
f 1 23 17
f 1 17 10
f 1 10 6
f 1 6 2
f 2 5 3
f 2 6 7
f 2 7 5
f 3 5 7
f 3 7 12
f 3 12 16
f 3 16 18
f 3 18 26
f 3 26 32
f 3 32 37
f 3 37 43
f 3 43 47
f 3 47 48
f 3 48 44
f 3 44 38
f 3 38 33
f 3 33 27
f 3 27 19
f 3 19 14
f 3 14 13
f 3 13 8
f 4 8 9
f 6 10 11
f 6 11 7
f 7 11 12
f 8 13 9
f 9 13 14
f 9 14 15
f 10 16 11
f 10 17 18
f 10 18 16
f 11 16 12
f 14 19 20
f 14 20 21
f 14 21 22
f 14 22 15
f 17 23 24
f 17 24 18
f 18 23 25
f 18 25 26
f 18 24 23
f 19 27 28
f 19 28 20
f 20 28 21
f 25 29 26
f 25 30 31
f 25 31 29
f 26 29 32
f 27 33 28
f 28 33 34
f 29 31 32
f 30 35 36
f 30 36 32
f 30 32 31
f 32 36 35
f 32 35 42
f 32 42 37
f 33 38 39
f 33 39 40
f 33 40 41
f 33 41 34
f 37 42 46
f 37 46 43
f 38 44 39
f 39 44 45
f 43 46 52
f 43 52 53
f 43 53 47
f 44 48 49
f 44 49 45
f 45 49 50
f 45 50 51
f 47 53 54
f 47 54 51
f 47 51 50
f 47 50 48
f 48 50 49
f 52 54 53

