# https://github.com/mikedh/trimesh
v 0.00765674 0.01085124 -0.00531191
v 0.00705923 0.01085124 -0.00524952
v 0.00765674 0.01162603 -0.00531191
v 0.01977127 0.01085124 -0.00531191
v 0.00765674 0.01326124 -0.00528591
v 0.00765674 0.01275989 -0.00529735
v 0.00765674 0.01219272 -0.00530775
v 0.00671684 0.01085124 -0.00516216
v 0.00822403 0.01326124 -0.00531191
v 0.01956483 0.01105886 -0.00531191
v 0.02033857 0.01085124 -0.00531087
v 0.00727239 0.01326124 -0.00518192
v 0.00644159 0.01085124 -0.00491362
v 0.01679551 0.01326124 -0.00531191
v 0.02013213 0.01105886 -0.00531087
v 0.01899754 0.01162603 -0.00531191
v 0.02090586 0.01085124 -0.00529839
v 0.00698874 0.01326124 -0.00490010
v 0.00617473 0.01085124 -0.00461933
v 0.01736112 0.01326124 -0.00530567
v 0.01786296 0.01275989 -0.00530983
v 0.01843025 0.01219272 -0.00531191
v 0.01956483 0.01162603 -0.00530775
v 0.02153357 0.01085124 -0.00523392
v 0.01899754 0.01219272 -0.00530151
v 0.02069942 0.01105886 -0.00529527
v 0.00678230 0.01326124 -0.00464948
v 0.00610424 0.01085124 -0.00425327
v 0.00675545 0.01326124 -0.00461621
v 0.01792841 0.01326124 -0.00527240
v 0.01843025 0.01275989 -0.00529007
v 0.02194142 0.01085124 -0.00516736
v 0.02013213 0.01162603 -0.00527863
v 0.01956483 0.01219272 -0.00525472
v 0.02070110 0.01164018 -0.00519336
v 0.00610088 0.01085124 -0.00382275
v 0.00670174 0.01326124 -0.00425327
v 0.01849235 0.01326124 -0.00518712
v 0.02183232 0.01094208 -0.00516424
v 0.02207737 0.01085124 -0.00513513
v 0.00609920 0.01085124 -0.00311872
v 0.00670006 0.01326124 -0.00375099
v 0.01857291 0.01326124 -0.00517048
v 0.01956483 0.01260796 -0.00515488
v 0.02116265 0.01146064 -0.00515280
v 0.02214450 0.01085124 -0.00511433
v 0.01988037 0.01249872 -0.00511537
v 0.02154196 0.01133584 -0.00510081
v 0.00609920 0.01085124 0.00311872
v 0.00670006 0.01326124 0.00368548
v 0.01877264 0.01326124 -0.00511433
v 0.01885824 0.01313997 -0.00514656
v 0.02246675 0.01085124 -0.00493338
v 0.01923587 0.01300738 -0.00508521
v 0.02183232 0.01122566 -0.00501346
v 0.02025800 0.01235457 -0.00501761
v 0.00610088 0.01085124 0.00368548
v 0.00670174 0.01326124 0.00425327
v 0.01910999 0.01326124 -0.00493858
v 0.02283935 0.01088616 -0.00465988
v 0.02285613 0.01085124 -0.00467964
v 0.01917209 0.01326124 -0.00490010
v 0.01956483 0.01289154 -0.00498330
v 0.02053997 0.01256502 -0.00463908
v 0.00610256 0.01085124 0.00411912
v 0.00674538 0.01326124 0.00457045
v 0.00610424 0.01085124 0.00425327
v 0.02219821 0.01140072 -0.00460789
v 0.02293670 0.01085124 -0.00460477
v 0.01938189 0.01326124 -0.00476387
v 0.01956483 0.01320108 -0.00469940
v 0.01989883 0.01308005 -0.00458293
v 0.00675545 0.01326124 0.00461621
v 0.00615794 0.01085124 0.00456629
v 0.02155875 0.01191622 -0.00454549
v 0.02311125 0.01085124 -0.00435103
v 0.01951784 0.01326124 -0.00466612
v 0.01971924 0.01326124 -0.00443214
v 0.00696357 0.01326124 0.00486683
v 0.00617473 0.01085124 0.00461932
v 0.02091761 0.01242960 -0.00435623
v 0.01979813 0.01326124 -0.00426263
v 0.02318845 0.01085124 -0.00413264
v 0.02161413 0.01195562 -0.00425327
v 0.00699210 0.01326124 0.00489906
v 0.00632746 0.01085124 0.00479403
v 0.01990219 0.01326124 -0.00368548
v 0.02098474 0.01247843 -0.00397769
v 0.02321866 0.01085124 -0.00398913
v 0.00724218 0.01326124 0.00514968
v 0.00644159 0.01085124 0.00491362
v 0.01990219 0.01326124 0.00368548
v 0.02002639 0.01317182 -0.00368548
v 0.02069942 0.01268699 -0.00368548
v 0.02234087 0.01150358 -0.00368548
v 0.02324552 0.01085124 -0.00368548
v 0.02031003 0.01296751 -0.00368548
v 0.00727574 0.01326124 0.00517984
v 0.00665307 0.01085124 0.00511849
v 0.02002639 0.01317182 0.00368548
v 0.01979813 0.01326124 0.00426263
v 0.02098474 0.01247843 0.00397769
v 0.02069942 0.01268699 0.00368548
v 0.02234087 0.01150358 0.00368548
v 0.02324552 0.01085124 0.00368548
v 0.02031003 0.01296751 0.00368548
v 0.00687126 0.01085124 0.00520688
v 0.00760974 0.01326124 0.00527135
v 0.00671684 0.01085124 0.00516216
v 0.01955812 0.01326124 0.00459853
v 0.01990051 0.01308028 0.00458293
v 0.02155875 0.01191669 0.00454653
v 0.02161413 0.01195585 0.00425327
v 0.02318845 0.01085124 0.00413264
v 0.00705923 0.01085124 0.00524952
v 0.00765674 0.01326124 0.00528383
v 0.01938357 0.01326124 0.00476387
v 0.01956483 0.01320155 0.00470044
v 0.02053829 0.01256431 0.00463804
v 0.02283935 0.01088498 0.00465780
v 0.02219653 0.01140001 0.00460685
v 0.02310957 0.01085124 0.00435103
v 0.00745030 0.01085124 0.00530567
v 0.00765674 0.01219272 0.00530775
v 0.00765674 0.01275989 0.00529527
v 0.00815857 0.01326124 0.00530983
v 0.01956483 0.01289272 0.00498434
v 0.01911335 0.01326124 0.00493962
v 0.02183232 0.01122660 0.00501241
v 0.02279403 0.01085124 0.00471916
v 0.02126671 0.01202097 0.00465572
v 0.02285613 0.01085124 0.00467756
v 0.00765674 0.01085124 0.00531191
v 0.00765674 0.01162603 0.00531191
v 0.00822403 0.01326124 0.00531191
v 0.01923923 0.01300903 0.00508729
v 0.02154196 0.01133607 0.00510081
v 0.01896733 0.01326124 0.00500306
v 0.02246843 0.01085124 0.00493234
v 0.01956483 0.01085124 0.00531191
v 0.01672837 0.01326124 0.00531191
v 0.01886159 0.01314092 0.00514552
v 0.01988037 0.01249872 0.00511537
v 0.02208072 0.01085124 0.00513617
v 0.02220660 0.01085124 0.00507793
v 0.01857627 0.01326124 0.00517048
v 0.02013213 0.01085124 0.00531087
v 0.01956483 0.01105886 0.00531191
v 0.01843025 0.01219272 0.00531191
v 0.01786296 0.01275989 0.00530983
v 0.01729567 0.01326124 0.00530567
v 0.01956483 0.01260914 0.00515384
v 0.02183232 0.01094302 0.00516424
v 0.02183232 0.01085124 0.00518400
v 0.01902943 0.01279599 0.00520376
v 0.02009352 0.01217692 0.00516944
v 0.01841850 0.01326124 0.00519648
v 0.02013213 0.01105886 0.00531087
v 0.02069942 0.01085124 0.00530047
v 0.01899754 0.01162603 0.00531191
v 0.01956483 0.01162603 0.00530775
v 0.01899754 0.01219272 0.00530047
v 0.01843025 0.01275989 0.00529007
v 0.01786296 0.01326124 0.00527447
v 0.02070277 0.01164066 0.00519232
v 0.01956483 0.01219272 0.00525368
v 0.02131874 0.01111171 0.00520896
v 0.02069942 0.01105886 0.00529423
v 0.02129692 0.01085124 0.00524848
v 0.02013213 0.01162603 0.00527967
f 1 2 3
f 1 3 9
f 1 9 14
f 1 14 22
f 1 22 16
f 1 16 10
f 1 10 4
f 1 4 11
f 1 11 17
f 1 17 24
f 1 24 32
f 1 32 40
f 1 40 46
f 1 46 53
f 1 53 61
f 1 61 69
f 1 69 76
f 1 76 83
f 1 83 89
f 1 89 96
f 1 96 105
f 1 105 114
f 1 114 122
f 1 122 132
f 1 132 130
f 1 130 139
f 1 139 145
f 1 145 144
f 1 144 154
f 1 154 169
f 1 169 159
f 1 159 147
f 1 147 140
f 1 140 133
f 1 133 123
f 1 123 115
f 1 115 107
f 1 107 109
f 1 109 99
f 1 99 91
f 1 91 86
f 1 86 80
f 1 80 74
f 1 74 67
f 1 67 65
f 1 65 57
f 1 57 49
f 1 49 41
f 1 41 36
f 1 36 28
f 1 28 19
f 1 19 13
f 1 13 8
f 1 8 2
f 2 5 6
f 2 6 7
f 2 7 3
f 2 8 5
f 3 7 9
f 4 10 15
f 4 15 11
f 5 8 12
f 5 12 18
f 5 18 27
f 5 27 29
f 5 29 37
f 5 37 42
f 5 42 50
f 5 50 58
f 5 58 66
f 5 66 73
f 5 73 79
f 5 79 85
f 5 85 90
f 5 90 98
f 5 98 108
f 5 108 116
f 5 116 126
f 5 126 135
f 5 135 141
f 5 141 151
f 5 151 164
f 5 164 157
f 5 157 146
f 5 146 138
f 5 138 128
f 5 128 117
f 5 117 110
f 5 110 101
f 5 101 92
f 5 92 87
f 5 87 82
f 5 82 78
f 5 78 77
f 5 77 70
f 5 70 62
f 5 62 59
f 5 59 51
f 5 51 43
f 5 43 38
f 5 38 30
f 5 30 20
f 5 20 14
f 5 14 9
f 5 9 6
f 6 9 7
f 8 13 12
f 10 16 15
f 11 15 17
f 12 13 18
f 13 19 18
f 14 20 21
f 14 21 22
f 15 16 22
f 15 22 21
f 15 21 23
f 15 23 17
f 17 23 25
f 17 25 26
f 17 26 24
f 18 19 27
f 19 28 29
f 19 29 27
f 20 30 31
f 20 31 25
f 20 25 23
f 20 23 21
f 24 26 33
f 24 33 34
f 24 34 35
f 24 35 32
f 25 31 26
f 26 31 33
f 28 36 37
f 28 37 29
f 30 38 34
f 30 34 33
f 30 33 31
f 32 35 38
f 32 38 39
f 32 39 40
f 34 38 35
f 36 41 42
f 36 42 37
f 38 43 44
f 38 44 39
f 39 45 40
f 39 44 45
f 40 45 47
f 40 47 48
f 40 48 46
f 41 49 50
f 41 50 42
f 43 51 52
f 43 52 44
f 44 52 47
f 44 47 45
f 46 48 53
f 47 52 54
f 47 54 48
f 48 55 53
f 48 54 56
f 48 56 55
f 49 57 58
f 49 58 50
f 51 59 54
f 51 54 52
f 53 60 61
f 53 55 60
f 54 59 62
f 54 62 63
f 54 63 56
f 55 56 63
f 55 63 64
f 55 64 60
f 57 65 58
f 58 65 67
f 58 67 66
f 60 68 69
f 60 69 61
f 60 64 68
f 62 70 63
f 63 70 71
f 63 71 64
f 64 71 72
f 64 72 68
f 66 67 74
f 66 74 73
f 68 75 69
f 68 72 75
f 69 75 76
f 70 77 71
f 71 77 72
f 72 77 78
f 72 78 75
f 73 74 80
f 73 80 79
f 75 81 76
f 75 78 82
f 75 82 81
f 76 81 82
f 76 82 84
f 76 84 83
f 79 80 86
f 79 86 85
f 82 87 88
f 82 88 84
f 83 84 88
f 83 88 89
f 85 86 91
f 85 91 90
f 87 92 100
f 87 100 93
f 87 93 88
f 88 94 95
f 88 95 96
f 88 96 89
f 88 93 97
f 88 97 94
f 90 91 99
f 90 99 98
f 92 101 102
f 92 102 100
f 93 100 106
f 93 106 97
f 94 103 104
f 94 104 95
f 94 97 106
f 94 106 103
f 95 104 105
f 95 105 96
f 98 107 108
f 98 99 109
f 98 109 107
f 100 102 106
f 101 110 111
f 101 111 112
f 101 112 113
f 101 113 102
f 102 113 114
f 102 114 105
f 102 105 104
f 102 104 103
f 102 103 106
f 107 115 116
f 107 116 108
f 110 117 118
f 110 118 111
f 111 118 119
f 111 119 120
f 111 120 121
f 111 121 112
f 112 121 120
f 112 120 122
f 112 122 113
f 113 122 114
f 115 123 124
f 115 124 125
f 115 125 116
f 116 125 126
f 117 127 118
f 117 128 127
f 118 127 129
f 118 129 130
f 118 130 120
f 118 120 131
f 118 131 119
f 119 131 120
f 120 130 132
f 120 132 122
f 123 133 134
f 123 134 124
f 124 134 135
f 124 135 126
f 124 126 125
f 127 128 136
f 127 136 137
f 127 137 129
f 128 138 136
f 129 137 139
f 129 139 130
f 133 140 148
f 133 148 160
f 133 160 149
f 133 149 141
f 133 141 135
f 133 135 134
f 136 138 142
f 136 142 143
f 136 143 137
f 137 144 145
f 137 145 139
f 137 143 144
f 138 146 142
f 140 147 158
f 140 158 148
f 141 149 150
f 141 150 151
f 142 146 152
f 142 152 144
f 142 144 143
f 144 153 154
f 144 152 153
f 146 155 156
f 146 156 152
f 146 157 155
f 147 159 158
f 148 158 160
f 149 160 158
f 149 158 150
f 150 158 161
f 150 161 151
f 151 161 162
f 151 162 163
f 151 163 164
f 152 156 153
f 153 165 166
f 153 166 154
f 153 156 165
f 154 167 168
f 154 168 169
f 154 166 167
f 155 157 166
f 155 166 165
f 155 165 156
f 157 164 166
f 158 159 168
f 158 168 161
f 159 169 168
f 161 168 162
f 162 168 163
f 163 168 170
f 163 170 164
f 164 170 166
f 166 170 167
f 167 170 168

