# https://github.com/mikedh/trimesh
v -0.00233345 0.01987221 -0.00368548
v -0.00233345 0.01987657 -0.00425327
v 0.00004713 0.02029882 -0.00425327
v 0.00004713 0.02029736 -0.00392258
v 0.00004713 0.02029663 -0.00368548
v -0.00233345 0.01987221 0.00369588
v -0.00233345 0.02002436 -0.00461621
v 0.00004713 0.02035851 -0.00462557
v 0.00004713 0.02032357 -0.00440822
v 0.00004713 0.02029663 0.00368548
v 0.00004713 0.02029882 0.00425327
v -0.00233345 0.01987657 0.00425327
v -0.00233345 0.02012046 -0.00482523
v 0.00004713 0.02045679 -0.00474412
v 0.00004713 0.02033303 0.00446958
v 0.00004713 0.02035851 0.00462556
v -0.00233345 0.01987876 0.00425847
v -0.00233345 0.02039783 -0.00511745
v 0.00004713 0.02059511 -0.00490946
v 0.00004713 0.02059439 0.00490946
v -0.00233345 0.02012046 0.00482523
v 0.00004713 0.02087831 -0.00518400
v 0.00004713 0.02071305 -0.00502385
v -0.00233345 0.02069267 -0.00522456
v 0.00004713 0.02075964 0.00507065
v -0.00233345 0.02039783 0.00511745
v -0.00233345 0.02030464 0.00502073
v 0.00004713 0.02104065 -0.00522768
v -0.00233345 0.02126706 -0.00531191
v -0.00198461 0.02126706 -0.00531191
v -0.00141767 0.02126706 -0.00530983
v 0.00004713 0.02126706 -0.00528799
v 0.00004713 0.02087758 0.00518504
v -0.00233345 0.02049319 0.00516424
v -0.00233345 0.02353553 -0.00531191
v 0.00004713 0.02183418 -0.00531191
v 0.00004713 0.02126706 0.00528903
v -0.00233345 0.02069267 0.00522456
v -0.00233345 0.02410191 -0.00530567
v -0.00198461 0.02410191 -0.00531191
v 0.00004713 0.02523615 -0.00531191
v 0.00004713 0.02159758 0.00530255
v -0.00141767 0.02126706 0.00530983
v -0.00233345 0.02091835 0.00527447
v -0.00233345 0.02469160 -0.00524224
v -0.00198461 0.02466903 -0.00529215
v -0.00085072 0.02523615 -0.00530671
v -0.00141767 0.02466903 -0.00530983
v -0.00028353 0.02523615 -0.00531191
v 0.00004713 0.02547275 -0.00530671
v 0.00004713 0.02183418 0.00531191
v -0.00198461 0.02126706 0.00531191
v -0.00233345 0.02126706 0.00531191
v -0.00197879 0.02524343 -0.00518920
v -0.00141767 0.02523615 -0.00527552
v -0.00233345 0.02509564 -0.00515696
v -0.00028353 0.02580326 -0.00529943
v 0.00004713 0.02580326 -0.00529631
v 0.00004713 0.02523615 0.00531191
v -0.00233345 0.02375320 0.00531191
v -0.00085072 0.02580326 -0.00524848
v -0.00137269 0.02578288 -0.00516320
v -0.00233345 0.02538247 -0.00499162
v -0.00216404 0.02543708 -0.00505401
v -0.00178584 0.02558049 -0.00513305
v -0.00028237 0.02639950 -0.00518712
v 0.00004713 0.02605224 -0.00524952
v -0.00028353 0.02523615 0.00531191
v 0.00004713 0.02580326 0.00529631
v -0.00028353 0.02580326 0.00529943
v -0.00198461 0.02410191 0.00531191
v -0.00233345 0.02410191 0.00530567
v -0.00085072 0.02620439 -0.00514968
v -0.00233345 0.02556375 -0.00483147
v -0.00153161 0.02595833 -0.00501034
v -0.00115365 0.02610029 -0.00511121
v -0.00047042 0.02660771 -0.00508001
v -0.00009245 0.02667978 -0.00512161
v 0.00004713 0.02667978 -0.00512161
v 0.00004713 0.02638785 -0.00518504
v -0.00085072 0.02523615 0.00530671
v -0.00141767 0.02466903 0.00530983
v -0.00028796 0.02640387 0.00518816
v 0.00004713 0.02639003 0.00518504
v -0.00085072 0.02580326 0.00525160
v -0.00141767 0.02523615 0.00527551
v -0.00198461 0.02466903 0.00529215
v -0.00233345 0.02432032 0.00529839
v -0.00233345 0.02569115 -0.00471812
v -0.00085072 0.02648759 -0.00497498
v -0.00181357 0.02616872 -0.00463284
v -0.00135475 0.02632379 -0.00479403
v -0.00085072 0.02679626 -0.00469108
v -0.00025394 0.02693458 -0.00481379
v -0.00003723 0.02722724 -0.00454653
v 0.00002266 0.02722724 -0.00454653
v 0.00004713 0.02719157 -0.00457669
v -0.00010201 0.02667978 0.00512161
v -0.00047997 0.02661499 0.00508417
v -0.00085072 0.02621240 0.00515176
v 0.00004713 0.02667978 0.00512161
v -0.00137525 0.02578288 0.00516528
v -0.00198065 0.02524415 0.00518920
v -0.00233345 0.02493694 0.00519856
v -0.00233345 0.02469378 0.00524328
v -0.00233345 0.02594013 -0.00426783
v -0.00117765 0.02668560 -0.00457669
v -0.00041543 0.02718938 -0.00441134
v 0.00004713 0.02723452 -0.00448414
v -0.00024928 0.02726000 -0.00423456
v 0.00004713 0.02722360 -0.00452885
v -0.00002744 0.02722578 0.00454341
v -0.00025371 0.02693458 0.00481379
v -0.00115784 0.02610393 0.00511329
v -0.00085072 0.02679553 0.00469316
v -0.00085072 0.02649559 0.00497706
v -0.00178887 0.02557976 0.00513305
v 0.00004713 0.02718210 0.00458085
v 0.00001637 0.02722578 0.00454341
v -0.00233345 0.02509928 0.00515696
v -0.00220319 0.02603841 -0.00425327
v -0.00191960 0.02624662 -0.00425327
v -0.00124896 0.02673802 -0.00425327
v -0.00233345 0.02597070 -0.00404113
v -0.00080784 0.02704233 -0.00423456
v -0.00059020 0.02723379 -0.00403281
v 0.00004713 0.02726000 -0.00424807
v -0.00028353 0.02730805 -0.00368548
v 0.00004713 0.02723452 0.00446646
v 0.00004713 0.02724107 0.00440822
v -0.00024322 0.02725854 0.00423455
v -0.00040541 0.02718938 0.00441134
v -0.00153581 0.02595833 0.00501033
v -0.00216684 0.02543853 0.00505609
v -0.00233345 0.02519756 0.00511433
v -0.00117742 0.02668560 0.00457669
v -0.00181311 0.02616872 0.00463180
v -0.00233345 0.02601657 -0.00368548
v -0.00158195 0.02656694 -0.00368548
v -0.00129836 0.02677442 -0.00368548
v -0.00088544 0.02705761 -0.00368548
v -0.00060185 0.02724034 -0.00368548
v 0.00004713 0.02727019 -0.00413160
v 0.00004713 0.02729640 -0.00368548
v -0.00028353 0.02730805 0.00368548
v 0.00004713 0.02725854 0.00424911
v -0.00059020 0.02723379 0.00403281
v -0.00080784 0.02704233 0.00423455
v -0.00233345 0.02568969 0.00472020
v -0.00233345 0.02538393 0.00499370
v -0.00124872 0.02673802 0.00425327
v -0.00233345 0.02593867 0.00426783
v -0.00233345 0.02583311 0.00447790
v -0.00233345 0.02601657 0.00368548
v -0.00158195 0.02656694 0.00368548
v -0.00129836 0.02677442 0.00368548
v -0.00088544 0.02705761 0.00368548
v -0.00060185 0.02724034 0.00368548
v 0.00004713 0.02729640 0.00332774
v 0.00004713 0.02729567 0.00368548
v -0.00191913 0.02624589 0.00425327
v -0.00220273 0.02603768 0.00425327
f 1 2 3
f 1 3 4
f 1 4 5
f 1 5 10
f 1 10 6
f 1 6 12
f 1 12 17
f 1 17 21
f 1 21 27
f 1 27 26
f 1 26 34
f 1 34 38
f 1 38 44
f 1 44 53
f 1 53 60
f 1 60 72
f 1 72 88
f 1 88 105
f 1 105 104
f 1 104 120
f 1 120 135
f 1 135 150
f 1 150 149
f 1 149 153
f 1 153 152
f 1 152 154
f 1 154 138
f 1 138 124
f 1 124 106
f 1 106 89
f 1 89 74
f 1 74 63
f 1 63 56
f 1 56 45
f 1 45 39
f 1 39 35
f 1 35 29
f 1 29 24
f 1 24 18
f 1 18 13
f 1 13 7
f 1 7 2
f 2 7 8
f 2 8 9
f 2 9 3
f 3 9 8
f 3 8 14
f 3 14 19
f 3 19 23
f 3 23 22
f 3 22 28
f 3 28 32
f 3 32 36
f 3 36 41
f 3 41 50
f 3 50 58
f 3 58 67
f 3 67 80
f 3 80 79
f 3 79 97
f 3 97 111
f 3 111 109
f 3 109 127
f 3 127 143
f 3 143 144
f 3 144 159
f 3 159 160
f 3 160 146
f 3 146 130
f 3 130 129
f 3 129 118
f 3 118 101
f 3 101 84
f 3 84 69
f 3 69 59
f 3 59 51
f 3 51 42
f 3 42 37
f 3 37 33
f 3 33 25
f 3 25 20
f 3 20 16
f 3 16 15
f 3 15 11
f 3 11 10
f 3 10 5
f 3 5 4
f 6 10 11
f 6 11 12
f 7 13 8
f 8 13 14
f 11 15 12
f 12 15 16
f 12 16 17
f 13 18 19
f 13 19 14
f 16 20 21
f 16 21 17
f 18 22 23
f 18 23 19
f 18 24 22
f 20 25 26
f 20 26 27
f 20 27 21
f 22 24 28
f 24 29 30
f 24 30 31
f 24 31 32
f 24 32 28
f 25 33 26
f 26 33 34
f 29 35 40
f 29 40 49
f 29 49 41
f 29 41 36
f 29 36 30
f 30 36 31
f 31 36 32
f 33 37 38
f 33 38 34
f 35 39 40
f 37 42 43
f 37 43 44
f 37 44 38
f 39 45 46
f 39 46 47
f 39 47 48
f 39 48 40
f 40 48 49
f 41 49 50
f 42 51 43
f 43 51 52
f 43 52 44
f 44 52 53
f 45 54 55
f 45 55 46
f 45 56 54
f 46 55 57
f 46 57 47
f 47 49 48
f 47 57 49
f 49 57 50
f 50 57 58
f 51 59 68
f 51 68 71
f 51 71 60
f 51 60 53
f 51 53 52
f 54 61 55
f 54 56 62
f 54 62 61
f 55 61 57
f 56 63 64
f 56 64 65
f 56 65 62
f 57 61 66
f 57 66 67
f 57 67 58
f 59 69 70
f 59 70 68
f 60 71 72
f 61 62 73
f 61 73 66
f 62 65 73
f 63 74 75
f 63 75 64
f 64 75 76
f 64 76 65
f 65 76 73
f 66 73 77
f 66 77 78
f 66 78 79
f 66 79 80
f 66 80 67
f 68 70 81
f 68 81 82
f 68 82 71
f 69 83 70
f 69 84 83
f 70 83 85
f 70 85 86
f 70 86 87
f 70 87 88
f 70 88 81
f 71 82 72
f 72 82 81
f 72 81 88
f 73 76 77
f 74 89 75
f 75 90 76
f 75 89 91
f 75 91 92
f 75 92 90
f 76 90 77
f 77 90 93
f 77 93 94
f 77 94 78
f 78 94 95
f 78 95 96
f 78 96 79
f 79 96 97
f 83 98 99
f 83 99 100
f 83 100 85
f 83 84 101
f 83 101 98
f 85 100 102
f 85 102 103
f 85 103 104
f 85 104 86
f 86 104 105
f 86 105 87
f 87 105 88
f 89 106 91
f 90 92 93
f 91 107 92
f 91 106 107
f 92 107 93
f 93 107 108
f 93 108 94
f 94 108 95
f 95 109 96
f 95 108 110
f 95 110 109
f 96 109 111
f 96 111 97
f 98 101 119
f 98 119 112
f 98 112 113
f 98 113 99
f 99 114 100
f 99 113 115
f 99 115 116
f 99 116 114
f 100 114 117
f 100 117 102
f 101 118 119
f 102 117 120
f 102 120 103
f 103 120 104
f 106 121 122
f 106 122 123
f 106 123 107
f 106 124 121
f 107 123 125
f 107 125 108
f 108 125 126
f 108 126 110
f 109 110 127
f 110 126 128
f 110 128 127
f 112 119 129
f 112 129 130
f 112 130 131
f 112 131 132
f 112 132 113
f 113 132 115
f 114 116 133
f 114 133 134
f 114 134 135
f 114 135 117
f 115 132 136
f 115 136 116
f 116 136 137
f 116 137 133
f 117 135 120
f 118 129 119
f 121 124 122
f 122 124 138
f 122 138 123
f 123 138 139
f 123 139 140
f 123 140 126
f 123 126 125
f 126 140 141
f 126 141 142
f 126 142 128
f 127 128 143
f 128 144 143
f 128 142 158
f 128 158 145
f 128 145 159
f 128 159 144
f 130 146 131
f 131 146 145
f 131 145 147
f 131 147 132
f 132 147 148
f 132 148 136
f 133 137 149
f 133 149 134
f 134 150 135
f 134 149 150
f 136 148 151
f 136 151 152
f 136 152 137
f 137 152 153
f 137 153 149
f 138 154 155
f 138 155 139
f 139 155 156
f 139 156 140
f 140 156 157
f 140 157 141
f 141 157 158
f 141 158 142
f 145 158 147
f 145 146 160
f 145 160 159
f 147 151 148
f 147 158 157
f 147 157 156
f 147 156 151
f 151 156 155
f 151 155 154
f 151 154 161
f 151 161 152
f 152 161 162
f 152 162 154
f 154 162 161

