# https://github.com/mikedh/trimesh
v -0.01192483 -0.00999777 -0.00311872
v -0.01192483 -0.00999736 -0.00368548
v -0.00992305 -0.00969529 -0.00368548
v -0.01192483 -0.00999777 0.00311872
v -0.01192483 -0.00999193 -0.00425327
v -0.00992305 -0.00969404 -0.00425327
v -0.00992305 -0.00969529 0.00368548
v -0.01192483 -0.00999736 0.00368548
v -0.01192483 -0.00979292 -0.00477635
v -0.00992305 -0.00966650 -0.00457877
v -0.00992305 -0.00969404 0.00425327
v -0.01192483 -0.00999527 0.00395378
v -0.01192483 -0.00955844 -0.00503321
v -0.00992305 -0.00943035 -0.00486163
v -0.01192483 -0.00999193 0.00425327
v -0.00992305 -0.00966650 0.00457877
v -0.01192483 -0.00930477 -0.00519752
v -0.00992443 -0.00914664 -0.00516320
v -0.00992305 -0.00914748 -0.00516216
v -0.01192483 -0.00992935 0.00446750
v -0.01192483 -0.00979292 0.00477635
v -0.00992305 -0.00943035 0.00486163
v -0.01192483 -0.00878992 -0.00530983
v -0.01162559 -0.00878992 -0.00530775
v -0.00992305 -0.00879075 -0.00526720
v -0.01192483 -0.00966650 0.00491986
v -0.00992305 -0.00914664 0.00516320
v -0.01162559 -0.00822292 -0.00527760
v -0.01105847 -0.00822292 -0.00531191
v -0.00992443 -0.00822292 -0.00531191
v -0.01192483 -0.00821165 -0.00523600
v -0.00992305 -0.00822417 -0.00531087
v -0.01192483 -0.00955844 0.00503321
v -0.01192483 -0.00946623 0.00510185
v -0.00992305 -0.00878992 0.00526720
v -0.01192483 -0.00930477 0.00519752
v -0.00992305 -0.00707222 -0.00526928
v -0.00992443 -0.00708933 -0.00527240
v -0.00992443 -0.00765633 -0.00531191
v -0.00992305 -0.00765758 -0.00531191
v -0.01192483 -0.00789540 -0.00513409
v -0.00992305 -0.00658616 -0.00516008
v -0.00992305 -0.00822292 0.00531191
v -0.01162559 -0.00878992 0.00530775
v -0.01192483 -0.00907905 0.00525056
v -0.00992305 -0.00709058 -0.00527240
v -0.01192483 -0.00761836 -0.00486683
v -0.00992305 -0.00602750 -0.00477115
v -0.00992305 -0.00611553 -0.00484395
v -0.00992305 -0.00652149 -0.00511745
v -0.00992305 -0.00765633 0.00531191
v -0.01105847 -0.00822292 0.00531191
v -0.01192483 -0.00878992 0.00530983
v -0.01192483 -0.00735009 -0.00456733
v -0.00992305 -0.00574212 -0.00425327
v -0.00992443 -0.00765633 0.00531191
v -0.00992305 -0.00708933 0.00527239
v -0.01192483 -0.00852206 0.00529527
v -0.00992443 -0.00708933 0.00527239
v -0.01192483 -0.00732255 -0.00425327
v -0.00992305 -0.00573962 -0.00403593
v -0.00992305 -0.00707222 0.00526928
v -0.01162559 -0.00822292 0.00527759
v -0.01192483 -0.00821165 0.00523600
v -0.01192483 -0.00731880 -0.00368548
v -0.00992305 -0.00573586 -0.00368548
v -0.00992305 -0.00660034 0.00516632
v -0.01192483 -0.00802849 0.00518816
v -0.01192483 -0.00731880 0.00368548
v -0.00992305 -0.00573586 0.00368548
v -0.00992305 -0.00658616 0.00516008
v -0.01192483 -0.00789540 0.00513409
v -0.01192483 -0.00732172 0.00418464
v -0.00992305 -0.00574212 0.00425327
v -0.00992305 -0.00633916 0.00502073
v -0.00992305 -0.00611553 0.00484395
v -0.00992305 -0.00605253 0.00479403
v -0.01192483 -0.00785201 0.00509873
v -0.01192483 -0.00732255 0.00425327
v -0.01192483 -0.00734300 0.00454133
v -0.00992305 -0.00577216 0.00437390
v -0.00992305 -0.00602750 0.00477115
v -0.01192483 -0.00761836 0.00486683
v -0.01192483 -0.00735009 0.00456733
v -0.01192483 -0.00750112 0.00474412
f 1 2 3
f 1 3 7
f 1 7 4
f 1 4 8
f 1 8 12
f 1 12 15
f 1 15 20
f 1 20 21
f 1 21 26
f 1 26 33
f 1 33 34
f 1 34 36
f 1 36 45
f 1 45 53
f 1 53 58
f 1 58 64
f 1 64 68
f 1 68 72
f 1 72 78
f 1 78 83
f 1 83 85
f 1 85 84
f 1 84 80
f 1 80 79
f 1 79 73
f 1 73 69
f 1 69 65
f 1 65 60
f 1 60 54
f 1 54 47
f 1 47 41
f 1 41 31
f 1 31 23
f 1 23 17
f 1 17 13
f 1 13 9
f 1 9 5
f 1 5 2
f 2 5 6
f 2 6 3
f 3 6 10
f 3 10 14
f 3 14 19
f 3 19 25
f 3 25 32
f 3 32 40
f 3 40 46
f 3 46 37
f 3 37 42
f 3 42 50
f 3 50 49
f 3 49 48
f 3 48 55
f 3 55 61
f 3 61 66
f 3 66 70
f 3 70 74
f 3 74 81
f 3 81 82
f 3 82 77
f 3 77 76
f 3 76 75
f 3 75 71
f 3 71 67
f 3 67 62
f 3 62 57
f 3 57 51
f 3 51 43
f 3 43 35
f 3 35 27
f 3 27 22
f 3 22 16
f 3 16 11
f 3 11 7
f 4 7 8
f 5 9 10
f 5 10 6
f 7 11 8
f 8 11 12
f 9 13 14
f 9 14 10
f 11 15 12
f 11 16 15
f 13 17 18
f 13 18 19
f 13 19 14
f 15 16 20
f 16 21 20
f 16 22 21
f 17 23 24
f 17 24 25
f 17 25 18
f 18 25 19
f 21 22 26
f 22 27 26
f 23 28 29
f 23 29 30
f 23 30 24
f 23 31 28
f 24 30 25
f 25 30 32
f 26 27 33
f 27 34 33
f 27 35 36
f 27 36 34
f 28 31 37
f 28 37 38
f 28 38 29
f 29 39 40
f 29 40 30
f 29 38 39
f 30 40 32
f 31 41 42
f 31 42 37
f 35 43 44
f 35 44 45
f 35 45 36
f 37 46 38
f 38 46 40
f 38 40 39
f 41 47 48
f 41 48 49
f 41 49 50
f 41 50 42
f 43 51 56
f 43 56 52
f 43 52 53
f 43 53 44
f 44 53 45
f 47 54 48
f 48 54 55
f 51 57 59
f 51 59 56
f 52 58 53
f 52 56 59
f 52 59 58
f 54 60 55
f 55 60 61
f 57 62 59
f 58 59 63
f 58 63 64
f 59 62 63
f 60 65 66
f 60 66 61
f 62 67 64
f 62 64 63
f 64 67 68
f 65 69 70
f 65 70 66
f 67 71 72
f 67 72 68
f 69 73 70
f 70 73 74
f 71 75 72
f 72 75 76
f 72 76 77
f 72 77 78
f 73 79 74
f 74 79 80
f 74 80 81
f 77 82 78
f 78 82 83
f 80 84 81
f 81 84 82
f 82 84 85
f 82 85 83

