# https://github.com/mikedh/trimesh
v -0.01956297 0.01085124 -0.00531191
v -0.02013101 0.01085124 -0.00530983
v -0.01956297 0.01105886 -0.00531191
v -0.00765910 0.01085124 -0.00531191
v -0.02013101 0.01105886 -0.00530879
v -0.02069738 0.01085124 -0.00529423
v -0.01899659 0.01162603 -0.00531191
v -0.00765910 0.01162603 -0.00531191
v -0.00745088 0.01085124 -0.00530879
v -0.01956297 0.01162603 -0.00530359
v -0.01786218 0.01275989 -0.00530775
v -0.01843022 0.01219272 -0.00531087
v -0.02069738 0.01105886 -0.00528383
v -0.02127209 0.01085124 -0.00523600
v -0.01672776 0.01326147 -0.00531191
v -0.00765744 0.01219272 -0.00531087
v -0.00822381 0.01326147 -0.00531191
v -0.00765744 0.01275989 -0.00530775
v -0.00709106 0.01085124 -0.00527967
v -0.01899659 0.01219272 -0.00529423
v -0.01729580 0.01326147 -0.00530255
v -0.02127708 0.01108009 -0.00519752
v -0.02013101 0.01162603 -0.00526200
v -0.01843022 0.01275989 -0.00527967
v -0.02183180 0.01085124 -0.00514761
v -0.00815885 0.01326147 -0.00531087
v -0.00765744 0.01326147 -0.00530151
v -0.00691449 0.01085124 -0.00524120
v -0.01786218 0.01326147 -0.00526096
v -0.02183180 0.01087413 -0.00514241
v -0.02066906 0.01161753 -0.00517568
v -0.01899826 0.01277263 -0.00519232
v -0.02189843 0.01085124 -0.00513305
v -0.00760746 0.01326147 -0.00528903
v -0.00724598 0.01326147 -0.00519752
v -0.00668294 0.01085124 -0.00517568
v -0.01839524 0.01326147 -0.00517880
v -0.02109718 0.01142289 -0.00514033
v -0.02013101 0.01206438 -0.00516008
v -0.01849518 0.01326147 -0.00516008
v -0.02218495 0.01085124 -0.00499370
v -0.02147532 0.01128346 -0.00507169
v -0.01982783 0.01246144 -0.00509665
v -0.02046084 0.01194217 -0.00512057
v -0.00721267 0.01326147 -0.00517048
v -0.00657966 0.01085124 -0.00511225
v -0.01881002 0.01311119 -0.00513617
v -0.01894495 0.01326147 -0.00494586
v -0.02238818 0.01085124 -0.00486267
v -0.02183180 0.01115771 -0.00495418
v -0.02083898 0.01180085 -0.00503009
v -0.02013101 0.01234796 -0.00500514
v -0.01918816 0.01297010 -0.00506129
v -0.00696113 0.01326147 -0.00494170
v -0.00637310 0.01085124 -0.00490634
v -0.01904823 0.01326147 -0.00489386
v -0.02274299 0.01085124 -0.00462557
v -0.02112216 0.01201200 -0.00465260
v -0.00672459 0.01326147 -0.00465884
v -0.00614322 0.01085124 -0.00465468
v -0.00626149 0.01085124 -0.00478883
v -0.01923480 0.01326147 -0.00476907
v -0.02278630 0.01085124 -0.00456421
v -0.02213664 0.01135849 -0.00455797
v -0.02048749 0.01252892 -0.00460165
v -0.01956463 0.01315059 -0.00464948
v -0.00671126 0.01326147 -0.00460789
v -0.00610324 0.01085124 -0.00455069
v -0.01956463 0.01326147 -0.00440510
v -0.02294955 0.01085124 -0.00425327
v -0.02150030 0.01187422 -0.00440406
v -0.01985115 0.01304631 -0.00454029
v -0.00663796 0.01326147 -0.00425327
v -0.00603827 0.01085124 -0.00425327
v -0.01965792 0.01326147 -0.00425327
v -0.02248146 0.01119452 -0.00425327
v -0.02300952 0.01085124 -0.00390906
v -0.02156693 0.01192306 -0.00402657
v -0.01990113 0.01308358 -0.00425327
v -0.00663630 0.01326147 -0.00368548
v -0.00603328 0.01085124 -0.00311872
v -0.00603494 0.01085124 -0.00368548
v -0.00603661 0.01085124 -0.00405777
v -0.01975787 0.01326147 -0.00368548
v -0.02304784 0.01085124 -0.00368548
v -0.02291790 0.01094774 -0.00368548
v -0.02122045 0.01219131 -0.00368548
v -0.00663630 0.01326147 0.00375099
v -0.00603328 0.01085124 0.00311872
v -0.01975787 0.01326147 0.00368548
v -0.02304784 0.01085124 0.00368548
v -0.02291790 0.01094774 0.00368548
v -0.02122045 0.01219131 0.00368548
v -0.00663796 0.01326147 0.00425327
v -0.00603494 0.01085124 0.00368548
v -0.01971456 0.01326147 0.00393714
v -0.02156693 0.01192306 0.00402657
v -0.02298287 0.01085124 0.00405569
v -0.00603827 0.01085124 0.00425327
v -0.00672459 0.01326147 0.00465884
v -0.01965792 0.01326147 0.00425327
v -0.02294789 0.01085124 0.00425327
v -0.02286793 0.01091070 0.00425327
v -0.02248146 0.01119428 0.00425327
v -0.02150030 0.01187399 0.00440406
v -0.01985115 0.01304607 0.00454029
v -0.01990113 0.01308358 0.00425327
v -0.00614322 0.01085124 0.00465468
v -0.00696113 0.01326147 0.00494170
v -0.01963293 0.01326147 0.00432191
v -0.02276465 0.01085124 0.00460477
v -0.02213664 0.01135849 0.00455693
v -0.02048582 0.01252868 0.00460061
v -0.01956463 0.01315035 0.00464948
v -0.01947634 0.01326147 0.00454549
v -0.00637310 0.01085124 0.00490634
v -0.00724598 0.01326147 0.00519752
v -0.02274299 0.01085124 0.00462556
v -0.02112216 0.01201177 0.00465260
v -0.01923480 0.01326147 0.00477011
v -0.00668294 0.01085124 0.00517568
v -0.00709106 0.01085124 0.00527967
v -0.00765744 0.01326147 0.00530151
v -0.02249479 0.01085124 0.00479091
v -0.02183180 0.01115748 0.00495418
v -0.02084064 0.01180061 0.00503009
v -0.02065241 0.01219131 0.00480131
v -0.01909154 0.01326147 0.00486579
v -0.00765910 0.01085124 0.00531191
v -0.00765744 0.01275989 0.00530775
v -0.00765744 0.01219272 0.00531087
v -0.00765910 0.01162603 0.00531191
v -0.00822381 0.01326147 0.00531191
v -0.02238651 0.01085124 0.00486267
v -0.02206001 0.01085124 0.00507377
v -0.02147532 0.01128393 0.00507169
v -0.01918983 0.01297105 0.00506233
v -0.01904823 0.01326147 0.00489386
v -0.01977119 0.01085124 0.00531191
v -0.01679439 0.01326147 0.00531191
v -0.02189676 0.01085124 0.00513305
v -0.02046250 0.01194382 0.00512161
v -0.01982616 0.01246003 0.00509561
v -0.01881169 0.01311095 0.00513617
v -0.01870841 0.01326147 0.00508937
v -0.02033757 0.01085124 0.00530983
v -0.01899659 0.01162603 0.00531191
v -0.01736077 0.01326147 0.00530255
v -0.01786218 0.01275989 0.00530775
v -0.01843022 0.01219272 0.00531087
v -0.02185845 0.01085124 0.00514240
v -0.02183180 0.01087389 0.00514240
v -0.02109718 0.01142266 0.00514033
v -0.01849518 0.01326147 0.00516112
v -0.02013101 0.01206438 0.00516112
v -0.02090394 0.01085124 0.00528903
v -0.02013101 0.01105886 0.00530879
v -0.01792714 0.01326147 0.00525784
v -0.01843022 0.01275989 0.00527967
v -0.01899659 0.01219272 0.00529423
v -0.01956297 0.01162603 0.00530359
v -0.02149364 0.01085124 0.00521416
v -0.02127708 0.01108056 0.00519752
v -0.02067073 0.01161730 0.00517672
v -0.01844854 0.01326147 0.00517152
v -0.02069738 0.01105886 0.00528487
v -0.01899826 0.01277310 0.00519232
v -0.02013101 0.01162603 0.00526304
f 1 2 3
f 1 3 7
f 1 7 15
f 1 15 17
f 1 17 8
f 1 8 4
f 1 4 9
f 1 9 19
f 1 19 28
f 1 28 36
f 1 36 46
f 1 46 55
f 1 55 61
f 1 61 60
f 1 60 68
f 1 68 74
f 1 74 83
f 1 83 82
f 1 82 81
f 1 81 89
f 1 89 95
f 1 95 99
f 1 99 108
f 1 108 116
f 1 116 121
f 1 121 122
f 1 122 129
f 1 129 139
f 1 139 146
f 1 146 156
f 1 156 162
f 1 162 151
f 1 151 141
f 1 141 135
f 1 135 134
f 1 134 124
f 1 124 118
f 1 118 111
f 1 111 102
f 1 102 98
f 1 98 91
f 1 91 85
f 1 85 77
f 1 77 70
f 1 70 63
f 1 63 57
f 1 57 49
f 1 49 41
f 1 41 33
f 1 33 25
f 1 25 14
f 1 14 6
f 1 6 2
f 2 5 3
f 2 6 5
f 3 5 7
f 4 8 9
f 5 10 11
f 5 11 12
f 5 12 7
f 5 6 13
f 5 13 10
f 6 14 13
f 7 12 15
f 8 16 9
f 8 17 16
f 9 16 18
f 9 18 19
f 10 13 20
f 10 20 21
f 10 21 11
f 11 21 15
f 11 15 12
f 13 14 22
f 13 22 23
f 13 23 24
f 13 24 20
f 14 25 22
f 15 21 29
f 15 29 37
f 15 37 40
f 15 40 48
f 15 48 56
f 15 56 62
f 15 62 69
f 15 69 75
f 15 75 84
f 15 84 90
f 15 90 96
f 15 96 101
f 15 101 110
f 15 110 115
f 15 115 120
f 15 120 128
f 15 128 138
f 15 138 145
f 15 145 154
f 15 154 165
f 15 165 158
f 15 158 148
f 15 148 140
f 15 140 133
f 15 133 123
f 15 123 117
f 15 117 109
f 15 109 100
f 15 100 94
f 15 94 88
f 15 88 80
f 15 80 73
f 15 73 67
f 15 67 59
f 15 59 54
f 15 54 45
f 15 45 35
f 15 35 34
f 15 34 27
f 15 27 26
f 15 26 17
f 16 17 18
f 17 26 18
f 18 26 27
f 18 27 19
f 19 27 28
f 20 24 21
f 21 24 29
f 22 25 30
f 22 30 31
f 22 31 32
f 22 32 23
f 23 32 29
f 23 29 24
f 25 33 30
f 27 34 28
f 28 34 35
f 28 35 36
f 29 32 37
f 30 33 38
f 30 38 31
f 31 38 39
f 31 39 40
f 31 40 32
f 32 40 37
f 33 41 42
f 33 42 43
f 33 43 44
f 33 44 38
f 35 45 46
f 35 46 36
f 38 44 47
f 38 47 39
f 39 47 40
f 40 47 48
f 41 49 50
f 41 50 42
f 42 50 51
f 42 51 43
f 43 51 52
f 43 52 53
f 43 53 47
f 43 47 44
f 45 54 46
f 46 54 55
f 47 53 48
f 48 53 56
f 49 57 58
f 49 58 50
f 50 58 52
f 50 52 51
f 52 56 53
f 52 58 56
f 54 59 60
f 54 60 61
f 54 61 55
f 56 58 62
f 57 63 64
f 57 64 65
f 57 65 58
f 58 65 66
f 58 66 62
f 59 67 68
f 59 68 60
f 62 66 69
f 63 70 64
f 64 70 71
f 64 71 72
f 64 72 65
f 65 72 66
f 66 72 69
f 67 73 74
f 67 74 68
f 69 72 75
f 70 76 71
f 70 77 78
f 70 78 76
f 71 76 78
f 71 78 72
f 72 78 79
f 72 79 75
f 73 80 81
f 73 81 82
f 73 82 83
f 73 83 74
f 75 79 78
f 75 78 84
f 77 85 78
f 78 85 86
f 78 86 87
f 78 87 84
f 80 88 89
f 80 89 81
f 84 87 93
f 84 93 90
f 85 91 92
f 85 92 86
f 86 92 93
f 86 93 87
f 88 94 95
f 88 95 89
f 90 93 97
f 90 97 96
f 91 98 97
f 91 97 92
f 92 97 93
f 94 99 95
f 94 100 99
f 96 97 101
f 97 98 102
f 97 102 103
f 97 103 104
f 97 104 105
f 97 105 106
f 97 106 107
f 97 107 101
f 99 100 108
f 100 109 108
f 101 107 106
f 101 106 110
f 102 111 112
f 102 112 103
f 103 112 105
f 103 105 104
f 105 112 106
f 106 112 113
f 106 113 114
f 106 114 115
f 106 115 110
f 108 109 116
f 109 117 116
f 111 118 112
f 112 118 113
f 113 118 119
f 113 119 114
f 114 120 115
f 114 119 120
f 116 117 121
f 117 122 121
f 117 123 122
f 118 124 119
f 119 124 125
f 119 125 126
f 119 126 127
f 119 127 128
f 119 128 120
f 122 123 130
f 122 130 131
f 122 131 132
f 122 132 129
f 123 133 130
f 124 134 125
f 125 134 135
f 125 135 126
f 126 135 136
f 126 136 137
f 126 137 128
f 126 128 127
f 128 137 138
f 129 132 133
f 129 133 140
f 129 140 147
f 129 147 139
f 130 133 131
f 131 133 132
f 135 141 142
f 135 142 143
f 135 143 136
f 136 143 137
f 137 143 144
f 137 144 145
f 137 145 138
f 139 147 146
f 140 148 149
f 140 149 150
f 140 150 147
f 141 151 152
f 141 152 142
f 142 152 153
f 142 153 144
f 142 144 143
f 144 154 145
f 144 153 155
f 144 155 154
f 146 147 150
f 146 150 157
f 146 157 156
f 148 158 159
f 148 159 160
f 148 160 161
f 148 161 149
f 149 161 157
f 149 157 150
f 151 162 152
f 152 162 163
f 152 163 164
f 152 164 153
f 153 164 155
f 154 155 165
f 155 164 165
f 156 166 162
f 156 157 161
f 156 161 160
f 156 160 166
f 158 165 167
f 158 167 162
f 158 162 168
f 158 168 159
f 159 168 166
f 159 166 160
f 162 166 168
f 162 167 164
f 162 164 163
f 164 167 165

