# https://github.com/mikedh/trimesh
v 0.00399911 -0.01924072 0.00311872
v 0.00399911 -0.01924072 -0.00366572
v 0.00336141 -0.01672709 0.00368340
v 0.00399833 -0.01924072 0.00370420
v 0.00399523 -0.01924072 -0.00423975
v 0.00336141 -0.01672709 -0.00368860
v 0.00335675 -0.01672709 0.00425015
v 0.00399445 -0.01924072 0.00425327
v 0.00397814 -0.01924072 -0.00454549
v 0.00335675 -0.01673004 -0.00425327
v 0.00335519 -0.01672709 -0.00425535
v 0.00311984 -0.01672709 0.00481691
v 0.00335675 -0.01673004 0.00425327
v 0.00396726 -0.01924072 0.00456837
v 0.00398746 -0.01924072 0.00438534
v 0.00396726 -0.01924072 -0.00456837
v 0.00311907 -0.01673004 -0.00482003
v 0.00311751 -0.01672709 -0.00482107
v 0.00311907 -0.01673004 0.00482003
v 0.00286119 -0.01672709 0.00512473
v 0.00371327 -0.01924072 0.00485539
v 0.00381502 -0.01924072 -0.00474828
v 0.00286041 -0.01673004 -0.00512577
v 0.00285808 -0.01672709 -0.00512577
v 0.00255127 -0.01672709 0.00522976
v 0.00286041 -0.01673004 0.00512577
v 0.00343675 -0.01924072 0.00512993
v 0.00371327 -0.01924072 -0.00485539
v 0.00346083 -0.01924072 -0.00511017
v 0.00343675 -0.01924072 -0.00512993
v 0.00329383 -0.01924072 -0.00518816
v 0.00255127 -0.01673004 -0.00522976
v 0.00254894 -0.01672709 -0.00522976
v 0.00313072 -0.01924072 0.00523080
v 0.00198425 -0.01672709 0.00531191
v 0.00255127 -0.01786394 0.00528279
v 0.00313072 -0.01924072 -0.00523080
v 0.00255127 -0.01786394 -0.00528279
v 0.00198425 -0.01673004 -0.00531191
v 0.00198192 -0.01672709 -0.00531191
v 0.00255127 -0.01843114 0.00530567
v 0.00255127 -0.01899809 0.00531191
v 0.00255127 -0.01924072 0.00531191
v -0.00198410 -0.01672709 0.00531191
v 0.00279361 -0.01924072 -0.00529631
v 0.00255127 -0.01843114 -0.00530567
v 0.00255127 -0.01899809 -0.00531191
v -0.00141941 -0.01672709 -0.00531191
v -0.00255189 -0.01924072 0.00531191
v -0.00255189 -0.01843114 0.00529735
v -0.00255189 -0.01899809 0.00531191
v -0.00259306 -0.01672709 0.00518920
v 0.00255127 -0.01924072 -0.00531191
v -0.00198410 -0.01673004 -0.00531191
v -0.00198721 -0.01672709 -0.00531087
v -0.00279424 -0.01924072 0.00528903
v -0.00312590 -0.01924072 0.00521624
v -0.00282298 -0.01672709 0.00509665
v -0.00326339 -0.01924072 0.00517672
v -0.00255189 -0.01924072 -0.00531191
v -0.00255189 -0.01899809 -0.00531191
v -0.00255189 -0.01843114 -0.00529735
v -0.00259306 -0.01672709 -0.00518920
v -0.00299774 -0.01672709 0.00488970
v -0.00366807 -0.01924072 0.00483563
v -0.00340320 -0.01924072 0.00510393
v -0.00337757 -0.01924072 0.00511745
v -0.00312590 -0.01924072 -0.00521624
v -0.00337757 -0.01924072 -0.00511745
v -0.00267151 -0.01672709 -0.00515592
v -0.00301794 -0.01672709 0.00486579
v -0.00393138 -0.01924072 0.00425327
v -0.00342728 -0.01924072 -0.00507897
v -0.00283540 -0.01700121 -0.00510393
v -0.00294881 -0.01672709 -0.00494586
v -0.00328980 -0.01672709 0.00425327
v -0.00329834 -0.01672709 0.00368548
v -0.00393526 -0.01924072 0.00368548
v -0.00366807 -0.01924072 -0.00483563
v -0.00301794 -0.01672709 -0.00486579
v -0.00393604 -0.01924072 0.00311872
v -0.00329834 -0.01672709 -0.00368548
v -0.00381409 -0.01924072 -0.00452261
v -0.00328980 -0.01672709 -0.00425327
v -0.00393604 -0.01924072 -0.00311872
v -0.00393138 -0.01924072 -0.00425327
v -0.00393293 -0.01924072 -0.00413992
v -0.00393526 -0.01924072 -0.00368548
f 1 2 6
f 1 6 3
f 1 3 4
f 1 4 8
f 1 8 15
f 1 15 14
f 1 14 21
f 1 21 27
f 1 27 34
f 1 34 43
f 1 43 49
f 1 49 56
f 1 56 57
f 1 57 59
f 1 59 67
f 1 67 66
f 1 66 65
f 1 65 72
f 1 72 78
f 1 78 81
f 1 81 85
f 1 85 88
f 1 88 87
f 1 87 86
f 1 86 83
f 1 83 79
f 1 79 73
f 1 73 69
f 1 69 68
f 1 68 60
f 1 60 53
f 1 53 45
f 1 45 37
f 1 37 31
f 1 31 30
f 1 30 29
f 1 29 28
f 1 28 22
f 1 22 16
f 1 16 9
f 1 9 5
f 1 5 2
f 2 5 6
f 3 7 8
f 3 8 4
f 3 6 11
f 3 11 18
f 3 18 24
f 3 24 33
f 3 33 40
f 3 40 48
f 3 48 55
f 3 55 63
f 3 63 70
f 3 70 75
f 3 75 80
f 3 80 84
f 3 84 82
f 3 82 77
f 3 77 76
f 3 76 71
f 3 71 64
f 3 64 58
f 3 58 52
f 3 52 44
f 3 44 35
f 3 35 25
f 3 25 20
f 3 20 12
f 3 12 7
f 5 9 10
f 5 10 6
f 6 10 11
f 7 12 13
f 7 13 14
f 7 14 15
f 7 15 8
f 9 16 17
f 9 17 11
f 9 11 10
f 11 17 18
f 12 19 14
f 12 14 13
f 12 20 19
f 14 19 20
f 14 20 21
f 16 22 18
f 16 18 17
f 18 22 23
f 18 23 24
f 20 25 26
f 20 26 27
f 20 27 21
f 22 28 23
f 23 29 30
f 23 30 31
f 23 31 32
f 23 32 33
f 23 33 24
f 23 28 29
f 25 34 27
f 25 27 26
f 25 35 36
f 25 36 34
f 31 37 32
f 32 37 38
f 32 38 39
f 32 39 40
f 32 40 33
f 34 36 41
f 34 41 42
f 34 42 43
f 35 44 51
f 35 51 49
f 35 49 43
f 35 43 42
f 35 42 41
f 35 41 36
f 37 45 38
f 38 45 46
f 38 46 39
f 39 47 53
f 39 53 60
f 39 60 61
f 39 61 54
f 39 54 48
f 39 48 40
f 39 46 47
f 44 50 51
f 44 52 50
f 45 53 47
f 45 47 46
f 48 54 55
f 49 51 56
f 50 56 51
f 50 52 57
f 50 57 56
f 52 58 59
f 52 59 57
f 54 61 62
f 54 62 63
f 54 63 55
f 58 64 65
f 58 65 66
f 58 66 67
f 58 67 59
f 60 68 61
f 61 68 62
f 62 68 63
f 63 68 69
f 63 69 70
f 64 71 65
f 65 71 72
f 69 73 74
f 69 74 70
f 70 74 75
f 71 76 72
f 72 76 77
f 72 77 78
f 73 79 75
f 73 75 74
f 75 79 80
f 77 81 78
f 77 82 85
f 77 85 81
f 79 83 80
f 80 83 84
f 82 84 86
f 82 86 87
f 82 87 88
f 82 88 85
f 83 86 84

