# https://github.com/mikedh/trimesh
v 0.00932089 -0.00973792 -0.00315512
v 0.00932089 -0.00973744 -0.00372187
v 0.01049816 -0.00971243 -0.00368548
v 0.00932089 -0.00973792 0.00311872
v 0.00932089 -0.00973600 -0.00425327
v 0.01049816 -0.00971051 -0.00425327
v 0.01049816 -0.00971243 0.00369172
v 0.00932089 -0.00973744 0.00368548
v 0.01049816 -0.00967492 -0.00459021
v 0.01049816 -0.00967541 -0.00458605
v 0.00932089 -0.00968743 -0.00460789
v 0.01049816 -0.00971051 0.00425327
v 0.00932089 -0.00973600 0.00425327
v 0.01049816 -0.00944074 -0.00487099
v 0.00932089 -0.00944988 -0.00489178
v 0.01049816 -0.00967492 0.00459021
v 0.00932089 -0.00969320 0.00458189
v 0.01049816 -0.00943786 -0.00487411
v 0.00932089 -0.00916617 -0.00517568
v 0.01049816 -0.00915751 -0.00516528
v 0.01049816 -0.00943786 0.00487411
v 0.00932089 -0.00968743 0.00460789
v 0.00932089 -0.00879013 -0.00527967
v 0.01049816 -0.00879446 -0.00527136
v 0.01049816 -0.00915415 -0.00516840
v 0.01049816 -0.00915415 0.00516840
v 0.00932089 -0.00944988 0.00489178
v 0.00932089 -0.00822271 -0.00531191
v 0.01049816 -0.00822271 -0.00531191
v 0.01049816 -0.00879013 -0.00527240
v 0.01049816 -0.00879013 0.00527239
v 0.00932089 -0.00916617 0.00517568
v 0.00932089 -0.00918444 0.00515904
v 0.00932089 -0.00705228 -0.00531191
v 0.01049160 -0.00765577 -0.00529735
v 0.01049816 -0.00766250 -0.00529735
v 0.01049816 -0.00822271 0.00531191
v 0.00932089 -0.00879013 0.00527967
v 0.00932089 -0.00881658 0.00527343
v 0.00932089 -0.00648534 -0.00528175
v 0.01049816 -0.00765529 -0.00529631
v 0.01049816 -0.00765529 0.00529631
v 0.01049160 -0.00765577 0.00529735
v 0.00935754 -0.00708931 0.00531191
v 0.00932089 -0.00822271 0.00531191
v 0.00932089 -0.00825974 0.00531087
v 0.00932089 -0.00595062 -0.00519232
v 0.01049816 -0.00712537 -0.00519440
v 0.00935754 -0.00652189 0.00528071
v 0.01049816 -0.00711191 0.00519024
v 0.00932089 -0.00592417 0.00518608
v 0.00932089 -0.00597899 0.00519648
v 0.00932089 -0.00652189 0.00528279
v 0.00932089 -0.00708931 0.00531191
v 0.00932089 -0.00592417 -0.00518608
v 0.01049816 -0.00711191 -0.00519024
v 0.01049816 -0.00706382 0.00516008
v 0.01026087 -0.00675895 0.00513201
v 0.00932089 -0.00541205 0.00491258
v 0.00968773 -0.00618624 0.00513201
v 0.00932089 -0.00567268 -0.00508937
v 0.01049816 -0.00685609 -0.00505817
v 0.01049816 -0.00662095 0.00485435
v 0.00932089 -0.00522643 0.00479923
v 0.00932089 -0.00534569 0.00487515
v 0.00932089 -0.00531395 -0.00485747
v 0.00932089 -0.00522643 -0.00479923
v 0.01049816 -0.00657767 -0.00481691
v 0.01049816 -0.00656132 0.00480027
v 0.00932089 -0.00483645 0.00425327
v 0.01028726 -0.00615980 0.00461621
v 0.00973072 -0.00555679 0.00463388
v 0.00932089 -0.00496004 -0.00451949
v 0.01049816 -0.00656132 -0.00480027
v 0.01049816 -0.00627472 0.00425327
v 0.00932089 -0.00482587 0.00369276
v 0.00932089 -0.00483645 -0.00425327
v 0.01028726 -0.00615980 -0.00461621
v 0.01049816 -0.00630406 -0.00438118
v 0.01049816 -0.00627232 0.00401929
v 0.00932089 -0.00482587 -0.00368548
v 0.01049816 -0.00626895 0.00368548
v 0.00932089 -0.00483597 -0.00423040
v 0.01049816 -0.00627472 -0.00425327
v 0.01049816 -0.00626895 -0.00368548
f 1 2 3
f 1 3 7
f 1 7 4
f 1 4 8
f 1 8 13
f 1 13 17
f 1 17 22
f 1 22 27
f 1 27 33
f 1 33 32
f 1 32 39
f 1 39 38
f 1 38 46
f 1 46 45
f 1 45 54
f 1 54 53
f 1 53 52
f 1 52 51
f 1 51 59
f 1 59 65
f 1 65 64
f 1 64 70
f 1 70 76
f 1 76 81
f 1 81 83
f 1 83 77
f 1 77 73
f 1 73 67
f 1 67 66
f 1 66 61
f 1 61 55
f 1 55 47
f 1 47 40
f 1 40 34
f 1 34 28
f 1 28 23
f 1 23 19
f 1 19 15
f 1 15 11
f 1 11 5
f 1 5 2
f 2 5 3
f 3 5 6
f 3 6 10
f 3 10 9
f 3 9 14
f 3 14 18
f 3 18 20
f 3 20 25
f 3 25 24
f 3 24 30
f 3 30 29
f 3 29 36
f 3 36 41
f 3 41 48
f 3 48 56
f 3 56 62
f 3 62 68
f 3 68 74
f 3 74 79
f 3 79 84
f 3 84 85
f 3 85 82
f 3 82 80
f 3 80 75
f 3 75 69
f 3 69 63
f 3 63 57
f 3 57 50
f 3 50 42
f 3 42 37
f 3 37 31
f 3 31 26
f 3 26 21
f 3 21 16
f 3 16 12
f 3 12 7
f 4 7 8
f 5 9 10
f 5 10 6
f 5 11 9
f 7 12 13
f 7 13 8
f 9 11 14
f 11 15 14
f 12 16 13
f 13 16 17
f 14 15 18
f 15 19 20
f 15 20 18
f 16 21 22
f 16 22 17
f 19 23 24
f 19 24 25
f 19 25 20
f 21 26 27
f 21 27 22
f 23 28 29
f 23 29 30
f 23 30 24
f 26 31 32
f 26 32 33
f 26 33 27
f 28 34 29
f 29 34 35
f 29 35 36
f 31 37 38
f 31 38 39
f 31 39 32
f 34 40 35
f 35 41 36
f 35 40 41
f 37 42 43
f 37 43 44
f 37 44 54
f 37 54 45
f 37 45 46
f 37 46 38
f 40 47 41
f 41 47 48
f 42 49 43
f 42 50 51
f 42 51 52
f 42 52 49
f 43 49 53
f 43 53 44
f 44 53 54
f 47 55 48
f 48 55 56
f 49 52 53
f 50 57 58
f 50 58 51
f 51 58 60
f 51 60 59
f 55 61 56
f 56 61 62
f 57 63 64
f 57 64 58
f 58 59 60
f 58 64 65
f 58 65 59
f 61 66 62
f 62 66 67
f 62 67 68
f 63 69 64
f 64 69 71
f 64 71 72
f 64 72 70
f 67 73 74
f 67 74 68
f 69 75 71
f 70 75 76
f 70 72 71
f 70 71 75
f 73 77 78
f 73 78 74
f 74 78 79
f 75 80 76
f 76 80 82
f 76 82 85
f 76 85 81
f 77 83 84
f 77 84 79
f 77 79 78
f 81 85 84
f 81 84 83

