# https://github.com/mikedh/trimesh
v -0.02296712 -0.00411015 0.00531191
v -0.02353482 -0.00411015 0.00531191
v -0.02240117 -0.00425413 0.00531191
v -0.02240117 -0.00411015 0.00531087
v -0.02410193 -0.00411015 0.00528175
v -0.02353482 -0.00425413 0.00531191
v -0.01941477 -0.00822521 0.00531191
v -0.02183406 -0.00411015 0.00520896
v -0.01956561 -0.00765817 0.00530255
v -0.01941477 -0.00765106 0.00528175
v -0.02456322 -0.00411015 0.00517360
v -0.02410193 -0.00425413 0.00527551
v -0.02240117 -0.00935930 0.00527863
v -0.02183406 -0.01106043 0.00527967
v -0.01956561 -0.01786317 0.00528383
v -0.02353482 -0.00538822 0.00529943
v -0.02353482 -0.00482118 0.00530983
v -0.02240117 -0.00765817 0.00531191
v -0.01941477 -0.01616204 0.00531191
v -0.02166743 -0.00411015 0.00512369
v -0.01941477 -0.00716045 0.00518712
v -0.02483392 -0.00411015 0.00501241
v -0.02443986 -0.00482118 0.00513513
v -0.02452522 -0.00425413 0.00517152
v -0.02410193 -0.00482118 0.00523704
v -0.02240117 -0.00992634 0.00524328
v -0.02070042 -0.01502618 0.00524848
v -0.01956561 -0.01843021 0.00525160
v -0.01941477 -0.01843021 0.00526720
v -0.01941477 -0.01786317 0.00529111
v -0.01956561 -0.01729435 0.00530255
v -0.02013272 -0.01559322 0.00530255
v -0.02240117 -0.00879226 0.00530047
v -0.02240117 -0.00822521 0.00530983
v -0.02126695 -0.01106043 0.00531191
v -0.01956561 -0.01616204 0.00531191
v -0.01941477 -0.01672730 0.00531087
v -0.02148210 -0.00411015 0.00499266
v -0.01941477 -0.00691693 0.00504257
v -0.02501925 -0.00411015 0.00482107
v -0.02432293 -0.00551976 0.00506441
v -0.02439543 -0.00514114 0.00511017
v -0.02383065 -0.00684938 0.00511225
v -0.02331265 -0.00822521 0.00513928
v -0.02049462 -0.01672908 0.00514760
v -0.01941477 -0.01982560 0.00516736
v -0.02283557 -0.00935930 0.00517464
v -0.02227255 -0.01106043 0.00517568
v -0.01945686 -0.01956430 0.00518088
v -0.01941477 -0.01956430 0.00519024
v -0.01941477 -0.01729435 0.00530463
v -0.01956561 -0.01672730 0.00530983
v -0.02183406 -0.00992634 0.00530983
v -0.02070042 -0.01275978 0.00531191
v -0.02129910 -0.00411015 0.00480755
v -0.01941477 -0.00686893 0.00501033
v -0.02509467 -0.00411015 0.00473996
v -0.02508181 -0.00425413 0.00470564
v -0.02282973 -0.01106043 0.00472228
v -0.02057706 -0.01786317 0.00473788
v -0.02263036 -0.01064626 0.00507065
v -0.02206617 -0.01235450 0.00507273
v -0.01980882 -0.01918568 0.00508105
v -0.02213691 -0.01197410 0.00511641
v -0.02157214 -0.01368234 0.00511745
v -0.01987606 -0.01880706 0.00512057
v -0.01993043 -0.01843021 0.00514864
v -0.01941477 -0.02013134 0.00511121
v -0.02094305 -0.00445678 0.00459125
v -0.02106700 -0.00411015 0.00425327
v -0.01941477 -0.00659519 0.00476283
v -0.02532152 -0.00411015 0.00426263
v -0.02500756 -0.00471275 0.00461517
v -0.02048468 -0.01843021 0.00463180
v -0.01992108 -0.02013134 0.00463700
v -0.01941477 -0.02148051 0.00470564
v -0.01944984 -0.02126365 0.00474516
v -0.01941477 -0.02120321 0.00480235
v -0.01974042 -0.01956430 0.00502489
v -0.01941477 -0.02077660 0.00494170
v -0.01941477 -0.02058640 0.00499578
v -0.02106641 -0.00411015 0.00423143
v -0.01941652 -0.00636055 0.00425327
v -0.01941477 -0.00636233 0.00425015
v -0.02538758 -0.00411015 0.00368548
v -0.02498827 -0.00521402 0.00413784
v -0.02494734 -0.00509137 0.00451637
v -0.02438315 -0.00679961 0.00452677
v -0.02381837 -0.00850962 0.00453717
v -0.02212580 -0.01363256 0.00454861
v -0.02046539 -0.01854931 0.00460581
v -0.01986670 -0.02046730 0.00456317
v -0.01941477 -0.02183247 0.00447998
v -0.01941477 -0.02126365 0.00478155
v -0.02106056 -0.00411015 0.00368548
v -0.01941477 -0.00635877 0.00397457
v -0.02538758 -0.00411015 -0.00368548
v -0.02046539 -0.01907724 0.00368548
v -0.01955917 -0.02183247 0.00368548
v -0.02442349 -0.00692404 0.00414928
v -0.02384936 -0.00860383 0.00425327
v -0.01990646 -0.02058817 0.00425327
v -0.01941477 -0.02207955 0.00425327
v -0.02106056 -0.00411015 -0.00370212
v -0.01941477 -0.00635522 0.00368548
v -0.02534549 -0.00411015 -0.00405673
v -0.02498827 -0.00521402 -0.00413784
v -0.02046539 -0.01907724 -0.00368548
v -0.01955917 -0.02183247 -0.00368548
v -0.01941477 -0.02226975 0.00368548
v -0.01941477 -0.02220576 0.00387682
v -0.02106700 -0.00411015 -0.00425327
v -0.01941477 -0.00635522 -0.00368860
v -0.01941477 -0.00635877 -0.00397458
v -0.01941477 -0.00636233 -0.00425535
v -0.02532152 -0.00411015 -0.00426263
v -0.02494734 -0.00509137 -0.00451637
v -0.01990646 -0.02058817 -0.00425327
v -0.02442349 -0.00692404 -0.00414824
v -0.01941477 -0.02214354 -0.00406297
v -0.01941477 -0.02226975 -0.00368548
v -0.02107284 -0.00411015 -0.00427095
v -0.01941477 -0.00659519 -0.00476283
v -0.02517711 -0.00411015 -0.00460061
v -0.02500873 -0.00471275 -0.00461621
v -0.02381837 -0.00850962 -0.00453717
v -0.02099625 -0.01704904 -0.00455589
v -0.01986612 -0.02046730 -0.00456317
v -0.01941477 -0.02207777 -0.00425327
v -0.02129910 -0.00411015 -0.00480755
v -0.02094305 -0.00445678 -0.00459125
v -0.01941477 -0.00667162 -0.00483875
v -0.02509526 -0.00411015 -0.00474100
v -0.02508239 -0.00425413 -0.00470668
v -0.02330096 -0.00992634 -0.00460685
v -0.02048468 -0.01843021 -0.00463180
v -0.01992049 -0.02013134 -0.00463700
v -0.01941477 -0.02147340 -0.00470668
v -0.01941477 -0.02173115 -0.00457149
v -0.01941477 -0.02197468 -0.00438326
v -0.02136166 -0.00411015 -0.00487723
v -0.01941477 -0.00686893 -0.00501034
v -0.02483392 -0.00411015 -0.00501346
v -0.02480878 -0.00425413 -0.00499058
v -0.02395577 -0.00765817 -0.00471500
v -0.02057589 -0.01786317 -0.00473788
v -0.01941477 -0.02131875 -0.00476179
v -0.02157506 -0.00411015 -0.00508833
v -0.01941477 -0.00689559 -0.00503217
v -0.02464157 -0.00411015 -0.00513617
v -0.02439543 -0.00514114 -0.00511017
v -0.02432235 -0.00551976 -0.00506337
v -0.02255611 -0.01106043 -0.00500618
v -0.02199309 -0.01275978 -0.00501034
v -0.01973983 -0.01956430 -0.00502489
v -0.01941477 -0.02077660 -0.00494066
v -0.02183406 -0.00411015 -0.00520896
v -0.01941477 -0.00716045 -0.00518712
v -0.02456322 -0.00411015 -0.00517360
v -0.02444045 -0.00482118 -0.00513617
v -0.02383065 -0.00684938 -0.00511225
v -0.02037301 -0.01747566 -0.00507897
v -0.02262977 -0.01064448 -0.00507065
v -0.02375757 -0.00722800 -0.00506649
v -0.01980882 -0.01918568 -0.00508001
v -0.01941477 -0.02039797 -0.00506129
v -0.02194222 -0.00411015 -0.00523288
v -0.01941477 -0.00723511 -0.00520792
v -0.01941477 -0.00765106 -0.00528175
v -0.02423932 -0.00411015 -0.00525264
v -0.02410193 -0.00482118 -0.00523808
v -0.02452522 -0.00425413 -0.00517152
v -0.01993101 -0.01843021 -0.00514968
v -0.01987664 -0.01880706 -0.00512161
v -0.01941477 -0.02005846 -0.00513513
v -0.02240117 -0.00411015 -0.00531087
v -0.01941477 -0.00780749 -0.00530463
v -0.02410193 -0.00411015 -0.00528175
v -0.02410193 -0.00425413 -0.00527552
v -0.02227255 -0.01106043 -0.00517672
v -0.02283557 -0.00935930 -0.00517568
v -0.02339801 -0.00765817 -0.00517464
v -0.02126695 -0.01332505 -0.00524744
v -0.01945627 -0.01956430 -0.00518192
v -0.01941477 -0.01982738 -0.00516736
v -0.02240117 -0.00425413 -0.00531191
v -0.02254383 -0.00411015 -0.00531191
v -0.01941477 -0.00822521 -0.00531191
v -0.02367747 -0.00411015 -0.00530775
v -0.02353482 -0.00482118 -0.00530983
v -0.02353482 -0.00538822 -0.00529943
v -0.02296712 -0.00765817 -0.00527863
v -0.01956561 -0.01843021 -0.00525264
v -0.01941477 -0.01961585 -0.00518816
v -0.02353482 -0.00411015 -0.00531191
v -0.01941477 -0.01631135 -0.00531191
v -0.02353482 -0.00425413 -0.00531191
v -0.02183406 -0.01049339 -0.00530151
v -0.01956561 -0.01672730 -0.00531087
v -0.01956561 -0.01729435 -0.00530359
v -0.02070042 -0.01389209 -0.00530255
v -0.01956561 -0.01786317 -0.00528487
v -0.02183406 -0.01106043 -0.00528071
v -0.02240117 -0.00935930 -0.00527967
v -0.01941477 -0.01858130 -0.00526616
v -0.01941477 -0.01687840 -0.00531087
v -0.01956561 -0.01616204 -0.00531191
v -0.02240117 -0.00765817 -0.00531191
v -0.02070042 -0.01275978 -0.00531191
v -0.01941477 -0.01744544 -0.00530567
v -0.02126695 -0.01106043 -0.00531191
v -0.01941477 -0.01801248 -0.00529111
f 1 2 6
f 1 6 18
f 1 18 35
f 1 35 54
f 1 54 36
f 1 36 19
f 1 19 7
f 1 7 3
f 1 3 4
f 1 4 8
f 1 8 20
f 1 20 38
f 1 38 55
f 1 55 70
f 1 70 82
f 1 82 95
f 1 95 104
f 1 104 112
f 1 112 122
f 1 122 130
f 1 130 141
f 1 141 148
f 1 148 157
f 1 157 167
f 1 167 176
f 1 176 187
f 1 187 195
f 1 195 189
f 1 189 178
f 1 178 170
f 1 170 159
f 1 159 150
f 1 150 143
f 1 143 133
f 1 133 124
f 1 124 116
f 1 116 106
f 1 106 97
f 1 97 85
f 1 85 72
f 1 72 57
f 1 57 40
f 1 40 22
f 1 22 11
f 1 11 5
f 1 5 2
f 2 5 6
f 3 7 4
f 4 7 9
f 4 9 10
f 4 10 8
f 5 11 12
f 5 12 13
f 5 13 14
f 5 14 15
f 5 15 16
f 5 16 17
f 5 17 6
f 6 17 34
f 6 34 18
f 7 10 9
f 7 19 37
f 7 37 51
f 7 51 30
f 7 30 29
f 7 29 50
f 7 50 46
f 7 46 68
f 7 68 81
f 7 81 80
f 7 80 78
f 7 78 94
f 7 94 76
f 7 76 93
f 7 93 103
f 7 103 111
f 7 111 110
f 7 110 121
f 7 121 120
f 7 120 129
f 7 129 140
f 7 140 139
f 7 139 138
f 7 138 147
f 7 147 156
f 7 156 166
f 7 166 175
f 7 175 185
f 7 185 194
f 7 194 205
f 7 205 212
f 7 212 210
f 7 210 206
f 7 206 196
f 7 196 188
f 7 188 177
f 7 177 169
f 7 169 168
f 7 168 158
f 7 158 149
f 7 149 142
f 7 142 132
f 7 132 123
f 7 123 115
f 7 115 114
f 7 114 113
f 7 113 105
f 7 105 96
f 7 96 84
f 7 84 71
f 7 71 56
f 7 56 39
f 7 39 21
f 7 21 10
f 8 10 21
f 8 21 20
f 11 22 23
f 11 23 24
f 11 24 25
f 11 25 12
f 12 25 26
f 12 26 27
f 12 27 28
f 12 28 13
f 13 28 14
f 14 28 15
f 15 28 29
f 15 29 30
f 15 30 31
f 15 31 32
f 15 32 33
f 15 33 16
f 16 33 17
f 17 33 32
f 17 32 34
f 18 34 53
f 18 53 35
f 19 36 37
f 20 21 38
f 21 39 38
f 22 40 41
f 22 41 42
f 22 42 23
f 23 42 43
f 23 43 44
f 23 44 24
f 24 44 45
f 24 45 46
f 24 46 47
f 24 47 48
f 24 48 26
f 24 26 25
f 26 48 49
f 26 49 27
f 27 49 28
f 28 49 50
f 28 50 29
f 30 51 31
f 31 51 52
f 31 52 53
f 31 53 34
f 31 34 32
f 35 53 54
f 36 52 37
f 36 54 53
f 36 53 52
f 37 52 51
f 38 39 56
f 38 56 55
f 40 57 58
f 40 58 59
f 40 59 41
f 41 59 60
f 41 60 61
f 41 61 42
f 42 61 62
f 42 62 63
f 42 63 43
f 43 64 44
f 43 63 64
f 44 64 45
f 45 65 66
f 45 66 67
f 45 67 46
f 45 64 65
f 46 67 66
f 46 66 68
f 46 50 49
f 46 49 48
f 46 48 47
f 55 69 70
f 55 56 71
f 55 71 69
f 57 72 58
f 58 72 73
f 58 73 74
f 58 74 75
f 58 75 59
f 59 75 60
f 60 75 76
f 60 76 77
f 60 77 78
f 60 78 79
f 60 79 61
f 61 79 62
f 62 79 63
f 63 79 80
f 63 80 81
f 63 81 68
f 63 68 66
f 63 66 65
f 63 65 64
f 69 71 70
f 70 71 83
f 70 83 84
f 70 84 82
f 71 84 83
f 72 85 86
f 72 86 87
f 72 87 73
f 73 87 88
f 73 88 89
f 73 89 90
f 73 90 74
f 74 90 91
f 74 91 75
f 75 91 92
f 75 92 76
f 76 92 93
f 76 94 77
f 77 94 78
f 78 80 79
f 82 84 95
f 84 96 95
f 85 97 108
f 85 108 98
f 85 98 86
f 86 98 99
f 86 99 100
f 86 100 101
f 86 101 87
f 87 101 89
f 87 89 88
f 89 101 102
f 89 102 103
f 89 103 90
f 90 103 92
f 90 92 91
f 92 103 93
f 95 96 105
f 95 105 113
f 95 113 104
f 97 106 107
f 97 107 108
f 98 108 109
f 98 109 99
f 99 109 121
f 99 121 110
f 99 110 111
f 99 111 103
f 99 103 100
f 100 103 102
f 100 102 101
f 104 113 114
f 104 114 115
f 104 115 112
f 106 116 107
f 107 116 117
f 107 117 118
f 107 118 119
f 107 119 109
f 107 109 108
f 109 120 121
f 109 119 120
f 112 115 122
f 115 123 122
f 116 124 125
f 116 125 117
f 117 125 126
f 117 126 118
f 118 127 128
f 118 128 129
f 118 129 120
f 118 120 119
f 118 126 127
f 122 123 131
f 122 131 130
f 123 132 130
f 123 130 131
f 124 133 134
f 124 134 125
f 125 135 127
f 125 127 126
f 125 134 136
f 125 136 135
f 127 136 128
f 127 135 136
f 128 136 137
f 128 137 138
f 128 138 139
f 128 139 140
f 128 140 129
f 130 132 142
f 130 142 141
f 133 143 134
f 134 143 144
f 134 144 145
f 134 145 136
f 136 145 137
f 137 145 146
f 137 146 138
f 138 146 147
f 141 142 149
f 141 149 148
f 143 150 151
f 143 151 152
f 143 152 144
f 144 152 153
f 144 153 145
f 145 153 154
f 145 154 146
f 146 155 147
f 146 154 155
f 147 155 156
f 148 149 158
f 148 158 157
f 150 159 160
f 150 160 151
f 151 160 161
f 151 161 162
f 151 162 163
f 151 163 164
f 151 164 152
f 152 164 153
f 153 163 154
f 153 164 163
f 154 163 155
f 155 162 165
f 155 165 166
f 155 166 156
f 155 163 162
f 157 158 168
f 157 168 169
f 157 169 167
f 159 170 171
f 159 171 172
f 159 172 160
f 160 172 173
f 160 173 174
f 160 174 161
f 161 174 165
f 161 165 162
f 165 174 166
f 166 174 175
f 167 169 177
f 167 177 176
f 170 178 179
f 170 179 171
f 171 180 181
f 171 181 182
f 171 182 172
f 171 179 183
f 171 183 184
f 171 184 180
f 172 182 173
f 173 184 185
f 173 185 174
f 173 182 181
f 173 181 180
f 173 180 184
f 174 185 175
f 176 186 187
f 176 177 188
f 176 188 186
f 178 189 190
f 178 190 191
f 178 191 192
f 178 192 179
f 179 192 193
f 179 193 183
f 183 193 184
f 184 193 194
f 184 194 185
f 186 188 196
f 186 196 207
f 186 207 209
f 186 209 211
f 186 211 208
f 186 208 197
f 186 197 195
f 186 195 187
f 189 195 197
f 189 197 190
f 190 198 191
f 190 197 199
f 190 199 200
f 190 200 201
f 190 201 198
f 191 198 202
f 191 202 203
f 191 203 204
f 191 204 192
f 192 204 193
f 193 202 205
f 193 205 194
f 193 204 203
f 193 203 202
f 196 206 207
f 197 208 199
f 198 201 200
f 198 200 202
f 199 209 207
f 199 207 206
f 199 206 210
f 199 210 200
f 199 208 211
f 199 211 209
f 200 210 212
f 200 212 202
f 202 212 205

