# https://github.com/mikedh/trimesh
v -0.01275907 0.01576258 -0.00531191
v -0.01332645 0.01576258 -0.00530983
v -0.01275907 0.01616277 -0.00531191
v -0.00765689 0.01576258 -0.00531191
v -0.01332645 0.01616277 -0.00530463
v -0.01389383 0.01576258 -0.00529735
v -0.01219275 0.01672982 -0.00531087
v -0.01105799 0.01729687 -0.00531191
v -0.00708950 0.01729687 -0.00531191
v -0.00708950 0.01672982 -0.00530359
v -0.00708950 0.01616277 -0.00526096
v -0.00707144 0.01576258 -0.00521104
v -0.01275907 0.01672982 -0.00529631
v -0.01162537 0.01729687 -0.00530879
v -0.01389383 0.01616277 -0.00526720
v -0.01445484 0.01576258 -0.00525576
v -0.01105799 0.01737070 -0.00530983
v -0.01049167 0.01737070 -0.00531191
v -0.00708950 0.01737070 -0.00531191
v -0.00648600 0.01737070 -0.00523912
v -0.00622887 0.01737070 -0.00518088
v -0.00673038 0.01616277 -0.00515696
v -0.00688019 0.01576258 -0.00514137
v -0.01219275 0.01729687 -0.00528279
v -0.01162537 0.01737070 -0.00530255
v -0.01497653 0.01576258 -0.00517776
v -0.01443996 0.01615977 -0.00518088
v -0.01276757 0.01731513 -0.00519544
v -0.00608543 0.01737070 -0.00509665
v -0.00679200 0.01583012 -0.00511537
v -0.00673569 0.01576258 -0.00503009
v -0.01218850 0.01737070 -0.00526824
v -0.01518478 0.01576258 -0.00511745
v -0.01525066 0.01582981 -0.00507793
v -0.01487240 0.01596866 -0.00514345
v -0.01389383 0.01661726 -0.00516528
v -0.01273782 0.01737070 -0.00518712
v -0.00586974 0.01737070 -0.00491882
v -0.00656250 0.01576258 -0.00484291
v -0.00566468 0.01737070 -0.00471292
v -0.01544085 0.01576258 -0.00501761
v -0.01461634 0.01634680 -0.00503945
v -0.01360589 0.01701004 -0.00510185
v -0.01423808 0.01648864 -0.00512473
v -0.01322764 0.01713818 -0.00515280
v -0.01282176 0.01737070 -0.00516008
v -0.00637443 0.01576258 -0.00443214
v -0.00617043 0.01628084 -0.00462660
v -0.00553186 0.01737070 -0.00438638
v -0.01559491 0.01576258 -0.00491882
v -0.01389383 0.01690078 -0.00501761
v -0.01490003 0.01655885 -0.00466092
v -0.01326482 0.01737070 -0.00500306
v -0.00630112 0.01576258 -0.00425327
v -0.00549361 0.01737070 -0.00425327
v -0.01598485 0.01576258 -0.00465572
v -0.01559491 0.01602155 -0.00468380
v -0.01384708 0.01727767 -0.00470460
v -0.01337320 0.01737070 -0.00493234
v -0.01338064 0.01731513 -0.00497810
v -0.01591367 0.01590506 -0.00456941
v -0.01426252 0.01707569 -0.00461205
v -0.00629687 0.01576258 -0.00398601
v -0.00548830 0.01737070 -0.00372915
v -0.01624198 0.01576258 -0.00425327
v -0.01378227 0.01737070 -0.00465988
v -0.01527722 0.01642126 -0.00444462
v -0.01404471 0.01737070 -0.00425327
v -0.00629581 0.01576258 -0.00368548
v -0.00548724 0.01737070 -0.00316240
v -0.01634186 0.01576258 -0.00368548
v -0.01534310 0.01646975 -0.00406609
v -0.01555772 0.01626446 -0.00425431
v -0.01406808 0.01737070 -0.00412328
v -0.00629475 0.01576258 -0.00311872
v -0.00548724 0.01737070 0.00311872
v -0.01634186 0.01576258 0.00368548
v -0.01414458 0.01737070 -0.00368548
v -0.00629475 0.01576258 0.00311872
v -0.00548830 0.01737070 0.00368548
v -0.01624198 0.01576258 0.00425327
v -0.01534310 0.01646975 0.00406609
v -0.01414458 0.01737070 0.00368548
v -0.00629581 0.01576258 0.00368548
v -0.00549255 0.01737070 0.00421376
v -0.01622711 0.01576258 0.00428655
v -0.01591367 0.01590490 0.00456941
v -0.01527722 0.01642079 0.00444358
v -0.01555772 0.01626399 0.00425431
v -0.01404471 0.01737070 0.00425327
v -0.01411590 0.01737070 0.00384978
v -0.00630112 0.01576258 0.00425327
v -0.00549361 0.01737070 0.00425327
v -0.01598379 0.01576258 0.00465468
v -0.01586479 0.01576258 0.00473996
v -0.01559491 0.01602108 0.00468484
v -0.01489897 0.01655870 0.00466092
v -0.01426252 0.01707553 0.00461205
v -0.01401496 0.01737070 0.00431047
v -0.00656250 0.01576258 0.00484291
v -0.00558817 0.01737070 0.00459333
v -0.00617043 0.01628084 0.00462660
v -0.01559491 0.01576258 0.00491986
v -0.01553860 0.01576258 0.00495730
v -0.01389383 0.01690220 0.00501761
v -0.01384708 0.01727751 0.00470460
v -0.01373233 0.01737070 0.00469524
v -0.01378227 0.01737070 0.00465884
v -0.00680369 0.01576258 0.00510601
v -0.00566468 0.01737070 0.00471292
v -0.01544616 0.01576258 0.00501657
v -0.01461740 0.01634664 0.00503945
v -0.01360695 0.01701083 0.00510289
v -0.01326907 0.01737070 0.00500306
v -0.01338170 0.01731639 0.00497914
v -0.01332432 0.01737070 0.00496770
v -0.00688019 0.01576258 0.00514137
v -0.00580599 0.01737070 0.00486163
v -0.00586974 0.01737070 0.00491882
v -0.00615131 0.01737070 0.00515696
v -0.01531016 0.01576258 0.00509041
v -0.01525172 0.01583201 0.00507897
v -0.01322870 0.01714055 0.00515384
v -0.01306826 0.01737070 0.00510185
v -0.01424021 0.01648958 0.00512577
v -0.00697794 0.01576258 0.00518400
v -0.00622887 0.01737070 0.00518088
v -0.01497865 0.01576258 0.00517776
v -0.01487347 0.01596850 0.00514344
v -0.01276969 0.01731639 0.00519648
v -0.01273994 0.01737070 0.00518712
v -0.01389383 0.01661867 0.00516528
v -0.00707144 0.01576258 0.00521104
v -0.00637868 0.01737070 0.00521936
v -0.01489153 0.01576258 0.00519544
v -0.01444209 0.01615962 0.00518088
v -0.01389383 0.01616277 0.00526720
v -0.01211837 0.01737070 0.00527967
v -0.01270807 0.01737070 0.00519336
v -0.00708950 0.01616277 0.00526096
v -0.00748901 0.01576258 0.00529631
v -0.00648600 0.01737070 0.00523912
v -0.00708950 0.01672982 0.00530359
v -0.01429333 0.01576258 0.00528175
v -0.01219275 0.01729687 0.00528279
v -0.01155099 0.01737070 0.00530775
v -0.00765689 0.01576258 0.00531191
v -0.00701513 0.01737070 0.00531087
v -0.01372702 0.01576258 0.00530775
v -0.01332645 0.01616277 0.00530463
v -0.01275907 0.01672982 0.00529631
v -0.01162537 0.01729687 0.00530879
v -0.01098467 0.01737070 0.00531191
v -0.01315964 0.01576258 0.00531191
v -0.00708950 0.01729687 0.00531191
v -0.00708950 0.01737070 0.00531191
v -0.01275907 0.01616277 0.00531191
v -0.01219275 0.01672982 0.00531087
f 1 2 3
f 1 3 8
f 1 8 18
f 1 18 19
f 1 19 9
f 1 9 4
f 1 4 12
f 1 12 23
f 1 23 31
f 1 31 39
f 1 39 47
f 1 47 54
f 1 54 63
f 1 63 69
f 1 69 75
f 1 75 79
f 1 79 84
f 1 84 92
f 1 92 100
f 1 100 109
f 1 109 117
f 1 117 126
f 1 126 133
f 1 133 141
f 1 141 147
f 1 147 154
f 1 154 149
f 1 149 144
f 1 144 135
f 1 135 128
f 1 128 121
f 1 121 111
f 1 111 104
f 1 104 103
f 1 103 95
f 1 95 94
f 1 94 86
f 1 86 81
f 1 81 77
f 1 77 71
f 1 71 65
f 1 65 56
f 1 56 50
f 1 50 41
f 1 41 33
f 1 33 26
f 1 26 16
f 1 16 6
f 1 6 2
f 2 5 3
f 2 6 5
f 3 5 7
f 3 7 8
f 4 9 10
f 4 10 11
f 4 11 12
f 5 13 14
f 5 14 7
f 5 6 15
f 5 15 13
f 6 16 15
f 7 14 8
f 8 17 18
f 8 14 17
f 9 19 20
f 9 20 10
f 10 20 11
f 11 20 21
f 11 21 12
f 12 22 23
f 12 21 22
f 13 24 14
f 13 15 24
f 14 24 25
f 14 25 17
f 15 16 26
f 15 26 27
f 15 27 28
f 15 28 24
f 17 25 32
f 17 32 37
f 17 37 46
f 17 46 53
f 17 53 59
f 17 59 66
f 17 66 68
f 17 68 74
f 17 74 78
f 17 78 83
f 17 83 91
f 17 91 90
f 17 90 99
f 17 99 108
f 17 108 107
f 17 107 116
f 17 116 114
f 17 114 124
f 17 124 131
f 17 131 139
f 17 139 138
f 17 138 146
f 17 146 153
f 17 153 156
f 17 156 148
f 17 148 142
f 17 142 134
f 17 134 127
f 17 127 120
f 17 120 119
f 17 119 118
f 17 118 110
f 17 110 101
f 17 101 93
f 17 93 85
f 17 85 80
f 17 80 76
f 17 76 70
f 17 70 64
f 17 64 55
f 17 55 49
f 17 49 40
f 17 40 38
f 17 38 29
f 17 29 21
f 17 21 20
f 17 20 19
f 17 19 18
f 21 29 30
f 21 30 22
f 22 30 23
f 23 30 31
f 24 28 32
f 24 32 25
f 26 33 34
f 26 34 35
f 26 35 27
f 27 36 37
f 27 37 28
f 27 35 36
f 28 37 32
f 29 38 30
f 30 38 31
f 31 38 40
f 31 40 39
f 33 41 34
f 34 41 42
f 34 42 43
f 34 43 44
f 34 44 35
f 35 44 36
f 36 44 45
f 36 45 37
f 37 45 43
f 37 43 46
f 39 40 48
f 39 48 47
f 40 49 48
f 41 50 42
f 42 51 43
f 42 50 52
f 42 52 51
f 43 51 53
f 43 53 46
f 43 45 44
f 47 48 54
f 48 49 54
f 49 55 54
f 50 56 57
f 50 57 52
f 51 58 59
f 51 59 60
f 51 60 53
f 51 52 58
f 52 57 61
f 52 61 62
f 52 62 58
f 53 60 59
f 54 55 63
f 55 64 63
f 56 65 61
f 56 61 57
f 58 66 59
f 58 62 66
f 61 65 67
f 61 67 62
f 62 68 66
f 62 67 68
f 63 64 69
f 64 70 75
f 64 75 69
f 65 71 72
f 65 72 73
f 65 73 67
f 67 73 72
f 67 72 68
f 68 72 74
f 70 76 79
f 70 79 75
f 71 77 83
f 71 83 78
f 71 78 72
f 72 78 74
f 76 80 84
f 76 84 79
f 77 81 82
f 77 82 83
f 80 85 84
f 81 86 87
f 81 87 88
f 81 88 89
f 81 89 82
f 82 89 88
f 82 88 90
f 82 90 91
f 82 91 83
f 84 85 92
f 85 93 92
f 86 94 87
f 87 94 95
f 87 95 96
f 87 96 97
f 87 97 98
f 87 98 88
f 88 98 99
f 88 99 90
f 92 93 101
f 92 101 102
f 92 102 100
f 95 103 97
f 95 97 96
f 97 103 104
f 97 104 105
f 97 105 106
f 97 106 98
f 98 106 107
f 98 107 108
f 98 108 99
f 100 102 101
f 100 101 110
f 100 110 109
f 104 111 112
f 104 112 105
f 105 112 113
f 105 113 114
f 105 114 115
f 105 115 116
f 105 116 106
f 106 116 107
f 109 110 118
f 109 118 119
f 109 119 120
f 109 120 117
f 111 121 122
f 111 122 112
f 112 122 113
f 113 123 124
f 113 124 114
f 113 122 125
f 113 125 123
f 114 116 115
f 117 120 126
f 120 127 126
f 121 128 129
f 121 129 125
f 121 125 122
f 123 130 131
f 123 131 124
f 123 125 132
f 123 132 130
f 125 129 132
f 126 127 133
f 127 134 133
f 128 135 136
f 128 136 129
f 129 136 132
f 130 132 136
f 130 136 135
f 130 135 137
f 130 137 138
f 130 138 139
f 130 139 131
f 133 134 140
f 133 140 141
f 134 142 143
f 134 143 140
f 135 144 137
f 137 144 145
f 137 145 138
f 138 145 146
f 140 143 141
f 141 143 147
f 142 148 143
f 143 148 147
f 144 149 150
f 144 150 151
f 144 151 145
f 145 151 146
f 146 151 150
f 146 150 152
f 146 152 153
f 147 148 155
f 147 155 156
f 147 156 153
f 147 153 157
f 147 157 154
f 148 156 155
f 149 154 157
f 149 157 158
f 149 158 152
f 149 152 150
f 152 158 153
f 153 158 157

