# https://github.com/mikedh/trimesh
v -0.00772188 -0.00872363 -0.00531191
v -0.00772188 -0.00595512 -0.00531191
v -0.00765585 -0.00878999 -0.00531191
v -0.00772188 -0.00878999 -0.00531087
v -0.00772188 -0.00538787 -0.00531087
v -0.00765585 -0.00482061 -0.00531191
v -0.00349721 -0.01124623 -0.00531191
v -0.00368503 -0.01124623 -0.00531087
v -0.00406363 -0.01124623 -0.00530671
v -0.00772188 -0.00929297 -0.00521312
v -0.00772188 -0.00482061 -0.00530567
v -0.00765585 -0.00425336 -0.00531087
v -0.00708796 -0.00411015 -0.00531191
v 0.00368577 -0.01124623 -0.00531191
v -0.00426026 -0.01124623 -0.00527863
v -0.00772188 -0.00936004 -0.00519856
v -0.00772188 -0.00425825 -0.00529735
v -0.00765585 -0.00411015 -0.00530567
v 0.00726919 -0.00411015 -0.00531191
v 0.00726919 -0.00878999 -0.00531191
v 0.00425219 -0.01105831 -0.00530983
v 0.00426247 -0.01124623 -0.00528383
v -0.00466086 -0.01124623 -0.00522040
v -0.00772188 -0.00960175 -0.00507481
v -0.00475184 -0.01124623 -0.00519544
v -0.00772188 -0.00423590 -0.00529631
v -0.00772188 -0.00411015 -0.00528903
v 0.00726919 -0.00411015 0.00530879
v 0.00726919 -0.00936563 -0.00525160
v 0.00708870 -0.00935724 -0.00527552
v 0.00477312 -0.01124623 -0.00520376
v -0.00772188 -0.00982250 -0.00484187
v -0.00504239 -0.01124623 -0.00505713
v -0.00772188 -0.00411015 0.00529215
v 0.00726919 -0.00425336 0.00531191
v 0.00708870 -0.00411015 0.00531191
v 0.00726919 -0.00970793 -0.00514968
v 0.00500791 -0.01124623 -0.00509561
v -0.00772188 -0.00987420 -0.00478363
v -0.00508348 -0.01124623 -0.00502593
v -0.00772188 -0.00431973 0.00530567
v -0.00765585 -0.00411015 0.00530567
v 0.00726919 -0.00878999 0.00531191
v -0.00708796 -0.00411015 0.00531191
v 0.00726919 -0.00998667 -0.00488451
v 0.00514731 -0.01124623 -0.00501969
v -0.00737557 -0.01020882 -0.00453821
v -0.00772188 -0.01006980 -0.00430007
v -0.00528598 -0.01124623 -0.00486891
v -0.00536816 -0.01124623 -0.00479507
v -0.00772188 -0.00488698 0.00531087
v -0.00765585 -0.00425336 0.00531087
v -0.00751204 -0.00411015 0.00531087
v 0.00368577 -0.01124623 0.00531191
v 0.00406436 -0.01124623 0.00530983
v 0.00726919 -0.00917701 0.00528695
v -0.00765585 -0.00482061 0.00531191
v 0.00726919 -0.01024934 -0.00459021
v 0.00539824 -0.01124623 -0.00481899
v -0.00772188 -0.01008447 -0.00425327
v -0.00566164 -0.01124623 -0.00430423
v -0.00772188 -0.00545354 0.00531191
v -0.00311861 -0.01124623 0.00531191
v 0.00426247 -0.01124623 0.00528383
v 0.00726919 -0.00936563 0.00525160
v 0.00726919 -0.01029545 -0.00425327
v 0.00575189 -0.01124623 -0.00425327
v -0.00772188 -0.01009006 -0.00373955
v -0.00568365 -0.01124623 -0.00425327
v -0.00569539 -0.01124623 -0.00368548
v -0.00772188 -0.00822274 0.00531191
v -0.00368503 -0.01105831 0.00531191
v -0.00368503 -0.01124623 0.00531087
v 0.00468361 -0.01124623 0.00522664
v 0.00726919 -0.00962899 0.00518088
v 0.00726919 -0.01029964 -0.00368548
v 0.00576069 -0.01124623 -0.00368548
v -0.00772188 -0.01009006 0.00368548
v -0.00569539 -0.01124623 0.00368548
v -0.00772188 -0.00878999 0.00531087
v -0.00765585 -0.00878999 0.00531191
v -0.00425292 -0.01105831 0.00530463
v -0.00426026 -0.01124623 0.00527863
v 0.00477312 -0.01124623 0.00520376
v 0.00726919 -0.00970793 0.00514968
v 0.00726919 -0.01029964 0.00368548
v 0.00576069 -0.01124623 0.00368548
v -0.00772188 -0.01008517 0.00419504
v -0.00568365 -0.01124623 0.00425327
v -0.00772188 -0.00936004 0.00519856
v -0.00475184 -0.01124623 0.00519544
v 0.00507101 -0.01124623 0.00507585
v 0.00726919 -0.00985115 0.00502489
v 0.00726919 -0.01029754 0.00399745
v 0.00575776 -0.01124623 0.00387994
v 0.00726919 -0.01029545 0.00425327
v -0.00772188 -0.01008447 0.00425327
v -0.00536816 -0.01124623 0.00479507
v -0.00737557 -0.01020882 0.00453821
v -0.00772188 -0.00948089 0.00512993
v -0.00500570 -0.01124623 0.00507065
v -0.00772188 -0.00971143 0.00495522
v 0.00514731 -0.01124623 0.00501969
v 0.00726919 -0.01015922 0.00469836
v 0.00726919 -0.00998667 0.00488450
v 0.00575189 -0.01124623 0.00425327
v 0.00726919 -0.01028706 0.00442694
v -0.00772188 -0.00987420 0.00478363
v -0.00508348 -0.01124623 0.00502593
v 0.00532634 -0.01124623 0.00488346
v 0.00726919 -0.01024934 0.00459021
v 0.00571080 -0.01124623 0.00433959
v 0.00539824 -0.01124623 0.00481899
f 1 2 6
f 1 6 13
f 1 13 19
f 1 19 20
f 1 20 14
f 1 14 7
f 1 7 3
f 1 3 4
f 1 4 10
f 1 10 16
f 1 16 24
f 1 24 32
f 1 32 39
f 1 39 48
f 1 48 60
f 1 60 68
f 1 68 78
f 1 78 88
f 1 88 97
f 1 97 108
f 1 108 102
f 1 102 100
f 1 100 90
f 1 90 80
f 1 80 71
f 1 71 62
f 1 62 51
f 1 51 41
f 1 41 34
f 1 34 27
f 1 27 26
f 1 26 17
f 1 17 11
f 1 11 5
f 1 5 2
f 2 5 12
f 2 12 6
f 3 7 8
f 3 8 9
f 3 9 4
f 4 9 10
f 5 11 12
f 6 12 13
f 7 14 22
f 7 22 31
f 7 31 38
f 7 38 46
f 7 46 59
f 7 59 67
f 7 67 77
f 7 77 87
f 7 87 95
f 7 95 106
f 7 106 112
f 7 112 113
f 7 113 110
f 7 110 103
f 7 103 92
f 7 92 84
f 7 84 74
f 7 74 64
f 7 64 55
f 7 55 54
f 7 54 63
f 7 63 73
f 7 73 83
f 7 83 91
f 7 91 101
f 7 101 109
f 7 109 98
f 7 98 89
f 7 89 79
f 7 79 70
f 7 70 69
f 7 69 61
f 7 61 50
f 7 50 49
f 7 49 40
f 7 40 33
f 7 33 25
f 7 25 23
f 7 23 15
f 7 15 9
f 7 9 8
f 9 15 16
f 9 16 10
f 11 17 12
f 12 18 13
f 12 17 18
f 13 18 27
f 13 27 34
f 13 34 42
f 13 42 53
f 13 53 44
f 13 44 36
f 13 36 28
f 13 28 19
f 14 20 21
f 14 21 22
f 15 23 16
f 16 23 25
f 16 25 24
f 17 26 18
f 18 26 27
f 19 28 35
f 19 35 43
f 19 43 56
f 19 56 65
f 19 65 75
f 19 75 85
f 19 85 93
f 19 93 105
f 19 105 104
f 19 104 111
f 19 111 107
f 19 107 96
f 19 96 94
f 19 94 86
f 19 86 76
f 19 76 66
f 19 66 58
f 19 58 45
f 19 45 37
f 19 37 29
f 19 29 20
f 20 29 30
f 20 30 21
f 21 30 22
f 22 30 29
f 22 29 31
f 24 25 33
f 24 33 32
f 28 36 35
f 29 37 31
f 31 37 38
f 32 33 39
f 33 40 39
f 34 41 42
f 35 36 44
f 35 44 57
f 35 57 62
f 35 62 71
f 35 71 81
f 35 81 72
f 35 72 63
f 35 63 54
f 35 54 43
f 37 45 46
f 37 46 38
f 39 47 48
f 39 40 49
f 39 49 50
f 39 50 47
f 41 51 52
f 41 52 42
f 42 52 53
f 43 54 55
f 43 55 56
f 44 53 52
f 44 52 57
f 45 58 46
f 46 58 59
f 47 60 48
f 47 50 61
f 47 61 60
f 51 62 52
f 52 62 57
f 55 64 65
f 55 65 56
f 58 66 67
f 58 67 59
f 60 61 69
f 60 69 70
f 60 70 68
f 63 72 73
f 64 74 65
f 65 74 75
f 66 76 77
f 66 77 67
f 68 70 79
f 68 79 78
f 71 80 81
f 72 81 73
f 73 82 83
f 73 81 80
f 73 80 82
f 74 84 75
f 75 84 85
f 76 86 87
f 76 87 77
f 78 79 88
f 79 89 88
f 80 90 83
f 80 83 82
f 83 90 91
f 84 92 85
f 85 92 93
f 86 94 87
f 87 94 96
f 87 96 95
f 88 89 97
f 89 98 99
f 89 99 97
f 90 100 91
f 91 100 102
f 91 102 101
f 92 103 104
f 92 104 105
f 92 105 93
f 95 96 106
f 96 107 106
f 97 99 108
f 98 109 108
f 98 108 99
f 101 102 109
f 102 108 109
f 103 110 104
f 104 110 111
f 106 107 111
f 106 111 112
f 110 113 111
f 111 113 112

