# https://github.com/mikedh/trimesh
v -0.00425271 -0.02220706 -0.00531191
v -0.00483152 -0.02220706 -0.00528487
v -0.00425271 -0.02183380 -0.00531191
v 0.00462643 -0.02220706 -0.00531191
v -0.00428442 -0.02138442 -0.00525056
v -0.00538655 -0.02220706 -0.00521312
v -0.00368579 -0.02138442 -0.00531191
v 0.00380314 -0.02138442 -0.00531191
v 0.00425244 -0.02138442 -0.00527136
v 0.00522507 -0.02220706 -0.00525680
v -0.00485795 -0.02179562 -0.00522872
v -0.00469541 -0.02138442 -0.00517256
v -0.00574732 -0.02220706 -0.00512785
v 0.00439384 -0.02138442 -0.00525368
v 0.00567437 -0.02220706 -0.00517672
v -0.00495442 -0.02138442 -0.00502385
v -0.00567728 -0.02211195 -0.00510705
v -0.00603805 -0.02220706 -0.00497290
v 0.00472025 -0.02138442 -0.00517360
v 0.00577613 -0.02220706 -0.00514241
v 0.00484447 -0.02138442 -0.00513409
v -0.00534294 -0.02138442 -0.00471084
v -0.00642921 -0.02220706 -0.00471604
v 0.00601929 -0.02220706 -0.00502385
v 0.00569948 -0.02209593 -0.00511849
v 0.00501363 -0.02138442 -0.00502905
v 0.00606686 -0.02220706 -0.00499474
v -0.00545130 -0.02138442 -0.00462349
v -0.00669880 -0.02220706 -0.00425327
v -0.00634067 -0.02205260 -0.00461517
v 0.00507970 -0.02138442 -0.00498434
v 0.00632719 -0.02220706 -0.00483251
v -0.00555835 -0.02138442 -0.00425327
v -0.00569182 -0.02153228 -0.00455797
v -0.00670012 -0.02220706 -0.00422416
v 0.00542593 -0.02138442 -0.00470668
v 0.00645802 -0.02220706 -0.00473892
v -0.00671730 -0.02220706 -0.00368548
v -0.00556363 -0.02138442 -0.00368548
v 0.00549069 -0.02138442 -0.00464740
v 0.00636155 -0.02203867 -0.00462869
v 0.00676857 -0.02220706 -0.00425327
v -0.00671862 -0.02220706 -0.00311872
v -0.00556363 -0.02138442 0.00368548
v 0.00559376 -0.02138442 -0.00444046
v 0.00571402 -0.02151392 -0.00457877
v 0.00677915 -0.02220706 -0.00378531
v 0.00562151 -0.02138442 -0.00425327
v -0.00671862 -0.02220706 0.00311872
v -0.00556099 -0.02138442 0.00398185
v -0.00671730 -0.02220706 0.00368548
v 0.00678047 -0.02220706 -0.00368548
v 0.00562416 -0.02138442 -0.00403697
v -0.00555835 -0.02138442 0.00425327
v -0.00671598 -0.02220706 0.00373227
v 0.00678179 -0.02220706 -0.00311872
v 0.00562680 -0.02138442 -0.00368548
v -0.00554513 -0.02138442 0.00440510
v -0.00669880 -0.02220706 0.00425327
v 0.00678179 -0.02220706 0.00311872
v 0.00562680 -0.02138442 0.00368548
v -0.00545130 -0.02138442 0.00462348
v -0.00569182 -0.02153228 0.00455797
v -0.00642921 -0.02220706 0.00471604
v -0.00634067 -0.02205260 0.00461517
v 0.00678047 -0.02220706 0.00368548
v 0.00562548 -0.02138442 0.00389970
v -0.00539977 -0.02138442 0.00467028
v -0.00628781 -0.02220706 0.00481587
v -0.00503239 -0.02138442 0.00497082
v 0.00677122 -0.02220706 0.00416072
v 0.00562151 -0.02138442 0.00425327
v -0.00595876 -0.02220706 0.00502281
v -0.00495442 -0.02138442 0.00502385
v 0.00676857 -0.02220706 0.00425327
v 0.00549069 -0.02138442 0.00464740
v 0.00571402 -0.02151392 0.00457877
v -0.00574732 -0.02220706 0.00512785
v -0.00469541 -0.02138442 0.00517256
v 0.00636155 -0.02203867 0.00462868
v 0.00645802 -0.02220706 0.00473892
v 0.00535589 -0.02138442 0.00475659
v -0.00564556 -0.02220706 0.00516632
v -0.00445358 -0.02138442 0.00522872
v 0.00606686 -0.02220706 0.00499474
v 0.00501363 -0.02138442 0.00502905
v -0.00521740 -0.02220706 0.00525160
v -0.00428442 -0.02138442 0.00525056
v 0.00569948 -0.02209593 0.00511849
v 0.00577613 -0.02220706 0.00514240
v 0.00509556 -0.02155830 0.00509873
v 0.00472025 -0.02138442 0.00517360
v -0.00462537 -0.02220706 0.00531191
v -0.00425271 -0.02183380 0.00531191
v -0.00380340 -0.02138442 0.00531191
v 0.00538761 -0.02220706 0.00522456
v 0.00425244 -0.02138442 0.00527135
v 0.00425244 -0.02220706 0.00531191
v 0.00368552 -0.02138442 0.00531191
v 0.00483655 -0.02220706 0.00528487
v 0.00425244 -0.02183380 0.00531191
f 1 2 3
f 1 3 7
f 1 7 8
f 1 8 4
f 1 4 10
f 1 10 15
f 1 15 20
f 1 20 24
f 1 24 27
f 1 27 32
f 1 32 37
f 1 37 42
f 1 42 47
f 1 47 52
f 1 52 56
f 1 56 60
f 1 60 66
f 1 66 71
f 1 71 75
f 1 75 81
f 1 81 85
f 1 85 90
f 1 90 96
f 1 96 100
f 1 100 98
f 1 98 93
f 1 93 87
f 1 87 83
f 1 83 78
f 1 78 73
f 1 73 69
f 1 69 64
f 1 64 59
f 1 59 55
f 1 55 51
f 1 51 49
f 1 49 43
f 1 43 38
f 1 38 35
f 1 35 29
f 1 29 23
f 1 23 18
f 1 18 13
f 1 13 6
f 1 6 2
f 2 5 3
f 2 6 5
f 3 5 7
f 4 8 9
f 4 9 10
f 5 6 11
f 5 11 12
f 5 12 16
f 5 16 22
f 5 22 28
f 5 28 33
f 5 33 39
f 5 39 44
f 5 44 50
f 5 50 54
f 5 54 58
f 5 58 62
f 5 62 68
f 5 68 70
f 5 70 74
f 5 74 79
f 5 79 84
f 5 84 88
f 5 88 95
f 5 95 99
f 5 99 97
f 5 97 92
f 5 92 86
f 5 86 82
f 5 82 76
f 5 76 72
f 5 72 67
f 5 67 61
f 5 61 57
f 5 57 53
f 5 53 48
f 5 48 45
f 5 45 40
f 5 40 36
f 5 36 31
f 5 31 26
f 5 26 21
f 5 21 19
f 5 19 14
f 5 14 9
f 5 9 8
f 5 8 7
f 6 12 11
f 6 13 12
f 9 14 10
f 10 14 15
f 12 13 17
f 12 17 18
f 12 18 16
f 13 18 17
f 14 19 15
f 15 19 21
f 15 21 20
f 16 18 23
f 16 23 22
f 20 21 25
f 20 25 24
f 21 26 27
f 21 27 24
f 21 24 25
f 22 23 28
f 23 29 30
f 23 30 28
f 26 31 32
f 26 32 27
f 28 30 34
f 28 34 33
f 29 34 30
f 29 35 33
f 29 33 34
f 31 36 37
f 31 37 32
f 33 35 38
f 33 38 39
f 36 40 41
f 36 41 37
f 37 41 42
f 38 43 39
f 39 43 49
f 39 49 44
f 40 45 46
f 40 46 41
f 41 46 42
f 42 46 45
f 42 45 48
f 42 48 47
f 44 49 51
f 44 51 50
f 47 48 52
f 48 53 52
f 50 51 54
f 51 55 54
f 52 53 57
f 52 57 56
f 54 55 59
f 54 59 58
f 56 57 61
f 56 61 60
f 58 59 63
f 58 63 62
f 59 64 65
f 59 65 63
f 60 61 66
f 61 67 66
f 62 63 65
f 62 65 68
f 64 69 70
f 64 70 68
f 64 68 65
f 66 67 72
f 66 72 71
f 69 73 74
f 69 74 70
f 71 72 75
f 72 76 77
f 72 77 75
f 73 78 79
f 73 79 74
f 75 77 80
f 75 80 81
f 76 82 81
f 76 81 80
f 76 80 77
f 78 83 79
f 79 83 84
f 81 82 86
f 81 86 85
f 83 87 84
f 84 87 88
f 85 89 90
f 85 86 91
f 85 91 89
f 86 92 91
f 87 93 94
f 87 94 95
f 87 95 88
f 89 91 92
f 89 92 90
f 90 92 96
f 92 97 96
f 93 98 101
f 93 101 99
f 93 99 95
f 93 95 94
f 96 97 100
f 97 99 101
f 97 101 100
f 98 100 101

