mtllib material.mtl
usemtl Material.002
v 0.01312500 0.01312500 -0.01561800
v 0.01312500 0.01312500 -0.01561800
v 0.01312500 -0.01312500 -0.01561800
v 0.01312500 -0.01312500 -0.01561800
v 0.01312500 0.01312500 -0.01436800
v 0.01312500 0.01312500 -0.01436800
v 0.01312500 0.01312500 -0.01436800
v 0.01312500 -0.01312500 -0.01436700
v 0.01312500 -0.01312500 -0.01436700
v 0.01312500 -0.01312500 -0.01436700
v -0.01312500 -0.01312500 -0.01561800
v -0.01312500 -0.01312500 -0.01561800
v -0.01312500 -0.01312500 -0.01436700
v -0.01312500 -0.01312500 -0.01436700
v -0.01312500 -0.01312500 -0.01436700
v -0.01312500 0.01312500 -0.01561800
v -0.01312500 0.01312500 -0.01561800
v -0.01312500 0.01312500 -0.01436800
v -0.01312500 0.01312500 -0.01436800
v -0.01312500 0.01312500 -0.01436800
vn -1.00000000 -0.00000000 -0.00000000
vn -0.00000000 -1.00000000 -0.00000000
vn -1.00000000 -0.00000000 -0.00000000
vn -0.00000000 1.00000000 -0.00000000
vn -1.00000000 -0.00000000 -0.00000000
vn -0.00000000 -0.00000000 -1.00000000
vn -0.00000000 -1.00000000 -0.00000000
vn -1.00000000 -0.00000000 -0.00000000
vn -0.00000000 1.00000000 -0.00000000
vn -0.00000000 -0.00000000 -1.00000000
vn -0.00000000 1.00000000 -0.00000000
vn 1.00000000 -0.00000000 -0.00000000
vn 1.00000000 -0.00000000 -0.00000000
vn -0.00000000 -0.00000000 -1.00000000
vn -0.00000000 1.00000000 -0.00000000
vn 1.00000000 -0.00000000 -0.00000000
vn -0.00000000 -1.00000000 -0.00000000
vn -0.00000000 -1.00000000 -0.00000000
vn 1.00000000 -0.00000000 -0.00000000
vn -0.00000000 -0.00000000 -1.00000000
vt 0.99509400 0.00509500
vt 0.99509400 0.00509500
vt 0.99391900 0.99137900
vt 0.99391900 0.99137900
vt 0.99710800 0.00544500
vt 0.99710800 0.00544500
vt 0.99710800 0.00544500
vt 0.99297000 0.99803700
vt 0.99297000 0.99803700
vt 0.99297000 0.99803700
vt 0.00391900 0.99740500
vt 0.00391900 0.99740500
vt 0.00440600 0.99955500
vt 0.00440600 0.99955500
vt 0.00440600 0.99955500
vt 0.00009500 0.01112100
vt 0.00009500 0.01112100
vt -0.00145600 0.00696300
vt -0.00145600 0.00696300
vt -0.00145600 0.00696300
f 1/1/1 3/3/3 5/5/5
f 5/5/5 3/3/3 8/8/8
f 4/4/4 11/11/11 9/9/9
f 9/9/9 11/11/11 15/15/15
f 12/12/12 16/16/16 13/13/13
f 13/13/13 16/16/16 19/19/19
f 17/17/17 2/2/2 18/18/18
f 18/18/18 2/2/2 7/7/7
f 6/6/6 10/10/10 20/20/20
f 20/20/20 10/10/10 14/14/14

