mtllib material.mtl
usemtl Material
v 0.01312500 0.01312500 0.01438200
v 0.01312500 0.01312500 0.01438200
v -0.01312500 -0.01312500 0.01438300
v -0.01312500 -0.01312500 0.01438300
v -0.01312500 0.01312500 0.01438200
v -0.01312500 0.01312500 0.01438200
v 0.01312500 -0.01312500 0.01438300
v 0.01312500 -0.01312500 0.01438300
v -0.01312500 0.01312500 0.01313200
v -0.01312500 0.01312500 0.01313200
v -0.01312500 0.01312500 0.01313200
v -0.01312500 -0.01312500 0.01313300
v -0.01312500 -0.01312500 0.01313300
v -0.01312500 -0.01312500 0.01313300
v 0.01312500 -0.01312500 0.01313300
v 0.01312500 -0.01312500 0.01313300
v 0.01312500 -0.01312500 0.01313300
v 0.01312500 0.01312500 0.01313200
v 0.01312500 0.01312500 0.01313200
v 0.01312500 0.01312500 0.01313200
vn -0.00000000 -1.00000000 -0.00000000
vn -1.00000000 -0.00000000 -0.00000000
vn 1.00000000 -0.00000000 -0.00000000
vn -0.00000000 1.00000000 -0.00000000
vn 1.00000000 -0.00000000 -0.00000000
vn -0.00000000 -1.00000000 -0.00000000
vn -1.00000000 -0.00000000 -0.00000000
vn -0.00000000 1.00000000 -0.00000000
vn 1.00000000 -0.00000000 -0.00000000
vn -0.00000000 -1.00000000 -0.00000000
vn -0.00000000 -0.00000000 1.00000000
vn 1.00000000 -0.00000000 -0.00000000
vn -0.00000000 -0.00000000 1.00000000
vn -0.00000000 1.00000000 -0.00000000
vn -0.00000000 1.00000000 -0.00000000
vn -0.00000000 -0.00000000 1.00000000
vn -1.00000000 -0.00000000 -0.00000000
vn -1.00000000 -0.00000000 -0.00000000
vn -0.00000000 -1.00000000 -0.00000000
vn -0.00000000 -0.00000000 1.00000000
vt -0.00061200 0.00403500
vt -0.00061200 0.00403500
vt 0.99814100 0.99596500
vt 0.99814100 0.99596500
vt 0.99352800 0.00185900
vt 0.99352800 0.00185900
vt 0.00400100 0.99618800
vt 0.00400100 0.99618800
vt 0.99382500 -0.00286600
vt 0.99382500 -0.00286600
vt 0.99382500 -0.00286600
vt 1.00057500 0.99422800
vt 1.00057500 0.99422800
vt 1.00057500 0.99422800
vt -0.00062700 0.99911600
vt -0.00062700 0.99911600
vt -0.00062700 0.99911600
vt -0.00109300 0.00186600
vt -0.00109300 0.00186600
vt -0.00109300 0.00186600
f 5/5/5 3/3/3 9/9/9
f 9/9/9 3/3/3 12/12/12
f 4/4/4 8/8/8 14/14/14
f 14/14/14 8/8/8 15/15/15
f 7/7/7 2/2/2 17/17/17
f 17/17/17 2/2/2 18/18/18
f 1/1/1 6/6/6 19/19/19
f 19/19/19 6/6/6 10/10/10
f 11/11/11 13/13/13 20/20/20
f 20/20/20 13/13/13 16/16/16

