mtllib material.mtl
usemtl Material.001
v 0.01500000 0.01312500 0.01250700
v 0.01500000 0.01312500 0.01250700
v 0.01500000 -0.01312500 0.01250800
v 0.01500000 -0.01312500 0.01250800
v 0.01375000 0.01312500 0.01250700
v 0.01375000 0.01312500 0.01250700
v 0.01375000 0.01312500 0.01250700
v 0.01375000 -0.01312500 0.01250800
v 0.01375000 -0.01312500 0.01250800
v 0.01375000 -0.01312500 0.01250800
v 0.01500000 -0.01312500 -0.01374200
v 0.01500000 -0.01312500 -0.01374200
v 0.01375000 -0.01312500 -0.01374200
v 0.01375000 -0.01312500 -0.01374200
v 0.01375000 -0.01312500 -0.01374200
v 0.01500000 0.01312500 -0.01374300
v 0.01500000 0.01312500 -0.01374300
v 0.01375000 0.01312500 -0.01374300
v 0.01375000 0.01312500 -0.01374300
v 0.01375000 0.01312500 -0.01374300
vn -0.00000000 -0.00000000 -1.00000000
vn -0.00000000 -1.00000000 -0.00000000
vn -0.00000000 -0.00000000 -1.00000000
vn -0.00000000 1.00000000 -0.00000000
vn -0.00000000 -0.00000000 -1.00000000
vn 1.00000000 -0.00000000 -0.00000000
vn -0.00000000 -1.00000000 -0.00000000
vn -0.00000000 -0.00000000 -1.00000000
vn -0.00000000 1.00000000 -0.00000000
vn 1.00000000 -0.00000000 -0.00000000
vn -0.00000000 1.00000000 -0.00000000
vn -0.00000000 -0.00000000 1.00000000
vn -0.00000000 -0.00000000 1.00000000
vn 1.00000000 -0.00000000 -0.00000000
vn -0.00000000 1.00000000 -0.00000000
vn -0.00000000 -0.00000000 1.00000000
vn -0.00000000 -1.00000000 -0.00000000
vn -0.00000000 -1.00000000 -0.00000000
vn -0.00000000 -0.00000000 1.00000000
vn 1.00000000 -0.00000000 -0.00000000
vt 0.98962200 -0.00009400
vt 0.98962200 -0.00009400
vt 0.99618800 0.99596500
vt 0.99618800 0.99596500
vt 0.99229600 0.00088400
vt 0.99229600 0.00088400
vt 0.99229600 0.00088400
vt 0.99862200 0.99813500
vt 0.99862200 0.99813500
vt 0.99862200 0.99813500
vt 0.00400100 0.99618800
vt 0.00400100 0.99618800
vt 0.00328000 0.99716300
vt 0.00328000 0.99716300
vt 0.00328000 0.99716300
vt 0.00134100 0.00208200
vt 0.00134100 0.00208200
vt 0.00086100 0.00381900
vt 0.00086100 0.00381900
vt 0.00086100 0.00381900
f 1/1/1 3/3/3 5/5/5
f 5/5/5 3/3/3 8/8/8
f 4/4/4 11/11/11 9/9/9
f 9/9/9 11/11/11 15/15/15
f 12/12/12 16/16/16 13/13/13
f 13/13/13 16/16/16 19/19/19
f 17/17/17 2/2/2 18/18/18
f 18/18/18 2/2/2 7/7/7
f 6/6/6 10/10/10 20/20/20
f 20/20/20 10/10/10 14/14/14

