# https://github.com/mikedh/trimesh
v -0.03725870 0.00419044 -0.06475178
v -0.03725870 0.00343649 -0.06432279
v -0.03856119 0.00419044 -0.06472654
v -0.03768865 0.00926333 -0.06418400
v 0.01370271 0.00394771 -0.06437326
v 0.01370271 0.00324770 -0.06437326
v -0.01110778 0.00312879 -0.06443635
v -0.01241027 0.00314472 -0.06443635
v -0.05101701 0.00353579 -0.06407044
v -0.00717503 0.00245943 -0.06350266
v -0.05151019 0.00409972 -0.06425970
v -0.05556940 0.00452512 -0.06423447
v -0.05687189 0.00460358 -0.06420923
v -0.05687189 0.00501671 -0.06427232
v -0.02437292 0.00926333 -0.06407044
v -0.05948951 0.00501671 -0.06414614
v -0.06027353 0.00501671 -0.06408306
v -0.06053908 0.00501671 -0.06400735
v -0.06258766 0.00501671 -0.06292226
v -0.06276470 0.00501671 -0.06278346
v -0.05862961 0.00859888 -0.04683504
v -0.05883194 0.00859888 -0.04659531
v -0.05917337 0.00859888 -0.04617893
v -0.06107020 0.01191011 0.00006392
v -0.05975506 0.01191011 0.00006392
v 0.06080724 0.00899976 -0.06316199
v -0.00587254 0.00245698 -0.06349004
v 0.06080724 0.00810728 -0.06316199
v 0.05034940 0.00418799 -0.06335125
v 0.05425686 0.00312266 -0.06303581
v 0.05165189 0.00305155 -0.06309890
v 0.05034940 0.00302703 -0.06312413
v 0.05034940 0.00237239 -0.06251850
v 0.04771913 0.00233193 -0.06250588
v -0.05044797 0.00328570 -0.06351527
v -0.05151019 0.00332003 -0.06351527
v -0.05295178 0.00333474 -0.06326293
v -0.05186427 0.00360445 -0.06401997
v -0.06015972 0.00483773 -0.06407044
v -0.05817437 0.00469797 -0.06417138
v -0.00717503 0.00221179 -0.06285917
v -0.00817402 0.00221547 -0.06282132
v -0.00053614 0.00926333 -0.06352789
v -0.06275205 0.00485857 -0.06274561
v -0.06286586 0.00501671 -0.06260682
v -0.06015972 0.00859888 -0.04455129
v -0.05941364 0.00859888 -0.04582565
v -0.06157602 0.01191011 0.02406226
v -0.06409247 0.00501671 -0.05627287
v -0.06418099 0.00501671 -0.05544012
v -0.06426951 0.00501671 -0.05426670
v -0.06456036 0.00501671 -0.04511907
v -0.06458565 0.00501671 -0.04427370
v -0.00056143 0.01191011 0.05857091
v 0.06248909 0.00899976 -0.06251850
v 0.06184417 0.00899976 -0.06297272
v 0.05034940 0.00205364 -0.06187501
v 0.06184417 0.00810728 -0.06296010
v 0.06179359 0.00680044 -0.06293487
v 0.06080724 0.00680044 -0.06312413
v 0.05295438 0.00418799 -0.06326293
v 0.05949211 0.00549483 -0.06311151
v 0.05688713 0.00418799 -0.06311151
v 0.05555935 0.00322563 -0.06299796
v 0.05295438 0.00242755 -0.06244279
v 0.05165189 0.00239568 -0.06249326
v 0.05165189 0.00205977 -0.06183716
v -0.05033416 0.00279165 -0.06211474
v -0.05163665 0.00287624 -0.06211474
v -0.05295178 0.00297309 -0.06211474
v -0.05426691 0.00341810 -0.06309890
v -0.05948951 0.00436207 -0.06342695
v -0.06067819 0.00455822 -0.06345219
v -0.06187951 0.00463300 -0.06302319
v 0.05295438 0.00167974 -0.06080253
v 0.05165189 0.00167974 -0.06080253
v 0.05295438 0.00138797 -0.05950293
v 0.05295438 0.00089269 -0.05663878
v -0.04772918 0.00151546 -0.05687851
v -0.04903167 0.00172878 -0.05819072
v -0.04903167 0.00200461 -0.05950293
v -0.04903167 0.00218727 -0.06034830
v -0.06223358 0.00442582 -0.06222830
v -0.06294173 0.00466120 -0.06188763
v -0.06325787 0.00501671 -0.06144602
v -0.06356136 0.00501671 -0.05994454
v -0.06158866 0.01191011 0.02538709
v -0.06552142 0.00481934 0.02550064
v -0.06413041 0.00475804 -0.05527610
v -0.06419364 0.00468571 -0.05426670
v -0.06443390 0.00442950 -0.04427370
v -0.06552142 0.00460603 0.02550064
v -0.00056143 0.01191011 0.06012285
v 0.06355131 0.00899976 -0.05819072
v 0.06353867 0.00899976 -0.05950293
v 0.06337428 0.00899976 -0.06080253
v 0.06299491 0.00899976 -0.06186239
v 0.06300756 0.00810728 -0.06186239
v 0.06248909 0.00810728 -0.06250588
v 0.06243851 0.00680044 -0.06248065
v 0.06161655 0.00549483 -0.06284655
v 0.06080724 0.00549483 -0.06304843
v 0.05936565 0.00419534 -0.06290964
v 0.05688713 0.00334700 -0.06293487
v 0.05425686 0.00247046 -0.06231662
v 0.05295438 0.00209042 -0.06177407
v -0.04996744 0.00220321 -0.06028521
v -0.05426691 0.00311407 -0.06211474
v -0.05530384 0.00348676 -0.06292226
v -0.05617638 0.00354315 -0.06274561
v -0.05817437 0.00367555 -0.06231662
v -0.06080464 0.00402003 -0.06211474
v 0.05425686 0.00175452 -0.06080253
v 0.05425686 0.00139410 -0.05950293
v 0.05425686 0.00089392 -0.05662616
v 0.05165189 0.00081668 -0.05557891
v 0.05165189 0.00089269 -0.05656307
v -0.04772918 0.00142107 -0.05556630
v -0.04903167 0.00152404 -0.05687851
v 0.04902162 0.00063157 -0.05296711
v -0.05033416 0.00159883 -0.05687851
v -0.05033416 0.00183298 -0.05819072
v -0.06210713 0.00404088 -0.06080253
v -0.06046321 0.00345733 -0.06044924
v -0.06309348 0.00452757 -0.06080253
v -0.06160131 0.01191011 0.02680024
v -0.06559729 0.00481934 0.04248370
v -0.06440861 0.00444053 -0.04511907
v -0.06340962 0.00421618 -0.05426670
v -0.06340962 0.00391461 -0.04511907
v -0.06340962 0.00389376 -0.04427370
v -0.06277734 0.00221792 0.02460481
v -0.06434539 0.00333474 0.02420105
v -0.06500295 0.00395384 0.02550064
v -0.06557200 0.00451286 0.04248370
v -0.00101667 0.01191011 0.06017332
v 0.03986627 0.00736192 0.05992097
v 0.04247125 0.00736192 0.05959292
v 0.04365992 0.00736192 0.05917655
v 0.04433014 0.00736192 0.05876017
v 0.04583495 0.00736192 0.05759937
v 0.05684919 0.00736192 0.04710167
v 0.05769644 0.00736192 0.04604181
v 0.05839194 0.00899853 0.00037936
v 0.05883454 0.00899853 -0.00267406
v 0.06355131 0.00899976 -0.05706777
v 0.06358925 0.00549483 -0.05706777
v 0.06357660 0.00549483 -0.05819072
v 0.06350073 0.00549483 -0.05950293
v 0.06337428 0.00680044 -0.06080253
v 0.06299491 0.00680044 -0.06182454
v 0.06291904 0.00573143 -0.06168575
v 0.06236264 0.00537714 -0.06212736
v 0.06152803 0.00507311 -0.06280870
v 0.06080724 0.00467591 -0.06288440
v 0.06122454 0.00507311 -0.06288440
v 0.05818962 0.00346224 -0.06284655
v 0.05688713 0.00277694 -0.06211474
v 0.05558464 0.00252072 -0.06202642
v 0.05605252 0.00225592 -0.06140816
v 0.05517999 0.00220076 -0.06153434
v 0.05425686 0.00214804 -0.06166051
v -0.05163665 0.00195312 -0.05819072
v -0.05163665 0.00215540 -0.05921273
v -0.05254712 0.00220076 -0.05897300
v -0.05687189 0.00309446 -0.06080253
v -0.05942628 0.00340585 -0.06085300
v -0.05893311 0.00352476 -0.06149649
v 0.05688713 0.00231232 -0.06125675
v 0.05558464 0.00198499 -0.06090347
v 0.05688713 0.00207816 -0.06060065
v 0.05555935 0.00153630 -0.05950293
v 0.05633073 0.00090373 -0.05631073
v 0.05555935 0.00089514 -0.05649999
v 0.05555935 0.00082404 -0.05557891
v 0.05688713 0.00073455 -0.05426670
v -0.02681351 0.00022211 -0.02157496
v -0.03072097 0.00022333 -0.02027537
v -0.03333859 0.00021475 -0.01896315
v -0.03462843 0.00022946 -0.01896315
v -0.03595621 0.00020740 -0.01763832
v -0.04903167 0.00144436 -0.05556630
v 0.04771913 0.00058744 -0.05165490
v 0.00065254 0.00022946 -0.02941038
v -0.00325492 0.00022211 -0.02811078
v -0.01241027 0.00021966 -0.02549898
v -0.05033416 0.00148727 -0.05556630
v 0.05688713 0.00068919 -0.05296711
v -0.05163665 0.00157553 -0.05556630
v -0.05163665 0.00170793 -0.05687851
v -0.06210713 0.00390970 -0.05950293
v -0.06069083 0.00339726 -0.05950293
v -0.06133575 0.00362774 -0.05950293
v -0.06142427 0.00356644 -0.05858186
v -0.05817437 0.00297309 -0.05950293
v -0.05948951 0.00315330 -0.05950293
v -0.06150014 0.01191011 0.04117148
v -0.06557200 0.00481934 0.04676100
v -0.06199332 0.00376504 -0.05815287
v -0.06146221 0.00353212 -0.05769864
v -0.05947686 0.00068673 0.02550064
v -0.06017237 0.00090863 0.02706520
v -0.06085522 0.00119672 0.02812507
v -0.06086787 0.00117956 0.02942466
v -0.06088051 0.00116607 0.03073687
v -0.06210713 0.00182440 0.02942466
v -0.06210713 0.00181582 0.03073687
v -0.06281528 0.00219463 0.04248370
v -0.06439597 0.00330900 0.04248370
v -0.06434539 0.00332738 0.02550064
v -0.06505353 0.00386189 0.04248370
v -0.06554671 0.00457783 0.04640771
v -0.00195243 0.01191011 0.06018594
v -0.00057407 0.00481811 0.06385761
v -0.00057407 0.00375523 0.06412257
v -0.00057407 0.00294612 0.06414781
v -0.00057407 0.00287869 0.06414781
v 0.06157861 0.00338133 0.05709467
v 0.06197063 0.00418799 0.05709467
v 0.06204650 0.00453125 0.05709467
v 0.06205915 0.00460112 0.05709467
v 0.05781025 0.00736192 0.04572637
v 0.05794935 0.00736192 0.04515859
v 0.06208444 0.00460112 0.05688018
v 0.06214766 0.00460112 0.05556796
v 0.06222354 0.00460112 0.05295615
v 0.06355131 0.00418799 -0.02811078
v 0.06345015 0.00418799 -0.05294187
v 0.06352602 0.00507311 -0.05777435
v 0.06339957 0.00418799 -0.05687851
v 0.06336163 0.00507311 -0.05950293
v 0.06298227 0.00461706 -0.06056280
v 0.06313401 0.00537714 -0.06092870
v 0.06275465 0.00486347 -0.06144602
v 0.06147745 0.00482424 -0.06277084
v 0.05884718 0.00353334 -0.06277084
v -0.05295178 0.00210023 -0.05826643
v -0.05426691 0.00216153 -0.05786267
v 0.05769644 0.00216521 -0.06036092
v 0.05688713 0.00176555 -0.05950293
v 0.05772173 0.00087553 -0.05511207
v 0.05681126 0.00085346 -0.05555368
v 0.05817697 0.00081668 -0.05425408
v 0.05818962 0.00076029 -0.05296711
v -0.02418324 0.00020495 -0.02157496
v -0.02811600 0.00020127 -0.02027537
v -0.02941848 0.00021107 -0.02027537
v -0.03725870 0.00023314 -0.01763832
v -0.03462843 0.00019759 -0.01763832
v -0.02548573 -0.00002430 -0.00850331
v -0.03595621 0.00019391 -0.01633873
v -0.03857383 0.00029812 -0.01896315
v -0.04509892 0.00061441 -0.02418677
v 0.04902162 0.00059969 -0.05165490
v 0.01634562 -0.00061398 0.04771993
v 0.00196768 0.00020004 -0.02811078
v 0.00065254 0.00020004 -0.02811078
v 0.00196768 0.00022211 -0.02941038
v -0.00066259 0.00020495 -0.02811078
v -0.00457005 0.00020004 -0.02681119
v -0.04641405 0.00069899 -0.02549898
v -0.04841204 0.00091353 -0.03158058
v -0.05818702 0.00045013 0.02550064
v 0.05294173 0.00055679 0.05295615
v -0.05295178 0.00164296 -0.05165490
v -0.05295178 0.00173981 -0.05556630
v -0.05295178 0.00185382 -0.05687851
v -0.05502564 0.00220811 -0.05763555
v -0.06091845 0.00340462 -0.05815287
v -0.05948951 0.00307362 -0.05819072
v -0.05515210 0.00218237 -0.05687851
v -0.06147485 0.01191011 0.04204208
v -0.06553406 0.00481934 0.05034435
v -0.06547084 0.00481934 0.05309495
v -0.05426691 0.00196047 -0.05556630
v -0.05818702 0.00042561 0.02682547
v -0.05950215 0.00064996 0.02812507
v -0.06019766 0.00089882 0.02812507
v -0.06091845 0.00114401 0.03594787
v -0.06210713 0.00179988 0.03855967
v -0.06280263 0.00219708 0.04379591
v -0.06438332 0.00331758 0.04379591
v -0.06504089 0.00389622 0.04379591
v -0.06550877 0.00465874 0.05034435
v -0.00287556 0.01191011 0.06017332
v -0.00067524 0.00481811 0.06385761
v -0.00067524 0.00375278 0.06412257
v -0.00067524 0.00287869 0.06414781
v -0.00057407 0.00220444 0.06408472
v 0.06081988 0.00276101 0.05709467
v 0.06159126 0.00336171 0.05688018
v 0.06199592 0.00418799 0.05688018
v 0.06208444 0.00418799 0.05556796
v 0.06214766 0.00418799 0.05425575
v 0.06218560 0.00418799 0.05295615
v 0.06320988 0.00316924 -0.02418677
v 0.06323518 0.00310304 -0.02811078
v 0.06342486 0.00418799 -0.05557891
v 0.06322253 0.00308465 -0.02942300
v 0.06305814 0.00321705 -0.05294187
v 0.06318459 0.00410585 -0.05820334
v 0.06313401 0.00440498 -0.05950293
v 0.06304549 0.00323544 -0.05391341
v 0.06300756 0.00329551 -0.05557891
v 0.06295697 0.00337152 -0.05687851
v 0.06286846 0.00345366 -0.05778696
v 0.06264084 0.00361425 -0.05865757
v 0.06223618 0.00430568 -0.06092870
v 0.06179359 0.00462564 -0.06211474
v 0.06080724 0.00414385 -0.06211474
v 0.06014967 0.00353579 -0.06145863
v 0.06054168 0.00338133 -0.06058803
v 0.06176830 0.00340094 -0.05923797
v 0.06066814 0.00258570 -0.05805193
v 0.06108544 0.00237606 -0.05687851
v 0.06016232 0.00222895 -0.05753461
v 0.06041523 0.00213701 -0.05687851
v 0.05893570 0.00087062 -0.05381247
v 0.05893570 0.00087308 -0.05296711
v 0.05437067 0.00073455 0.05282998
v -0.01894800 0.00020127 -0.02286194
v -0.05688453 0.00031773 0.03332344
v -0.05818702 0.00039619 0.02942466
v -0.02548573 -0.00003411 -0.00719110
v -0.05164929 0.00021230 0.03204909
v -0.05295178 0.00024050 0.03204909
v -0.04249394 0.00047955 -0.02157496
v 0.01634562 -0.00059681 0.04900690
v -0.05164929 0.00021475 0.03332344
v -0.05033416 0.00019636 0.03204909
v 0.05294173 0.00065976 0.05425575
v 0.01843213 -0.00039086 0.05366273
v 0.01890001 -0.00040802 0.05296877
v 0.01764811 -0.00049016 0.05164394
v 0.01764811 -0.00052939 0.05033173
v 0.05424422 0.00075171 0.05425575
v -0.05426691 0.00203403 -0.05687851
v -0.06129781 0.01191011 0.04269819
v -0.06543290 0.00481934 0.05431884
v -0.06540761 0.00481934 0.05493709
v -0.06539496 0.00481934 0.05503803
v -0.06519263 0.00481934 0.05579508
v -0.06549613 0.00469430 0.05165656
v -0.05950215 0.00064015 0.02942466
v -0.05818702 0.00035941 0.03332344
v -0.06021030 0.00089514 0.02942466
v -0.06026088 0.00087798 0.03594787
v -0.06089316 0.00114155 0.03726008
v -0.06278999 0.00220934 0.04476745
v -0.06210713 0.00182930 0.04248370
v -0.06210713 0.00185259 0.04379591
v -0.06434539 0.00334210 0.04510812
v -0.06495237 0.00392686 0.04640771
v -0.04248130 0.01191011 0.05903775
v -0.05426691 0.00481934 0.06294915
v -0.00140868 0.00222405 0.06408472
v -0.00067524 0.00220444 0.06408472
v -0.00057407 0.00187098 0.06342862
v 0.05688713 0.00154611 0.05709467
v 0.05707681 0.00157186 0.05709467
v 0.05818962 0.00172878 0.05709467
v 0.05836665 0.00176923 0.05709467
v 0.05954269 0.00206590 0.05709467
v 0.05980824 0.00215049 0.05709467
v 0.06042787 0.00246801 0.05709467
v 0.06069343 0.00263228 0.05689279
v 0.06165449 0.00327835 0.05556796
v 0.06085782 0.00262738 0.05556796
v 0.06171771 0.00322563 0.05425575
v 0.06174301 0.00320357 0.05295615
v 0.06020025 0.00220198 0.05556796
v 0.06221089 0.00242265 -0.03462137
v 0.06261555 0.00284314 -0.05296711
v 0.06224883 0.00243613 -0.03595882
v 0.06227412 0.00256486 -0.05296711
v 0.06222354 0.00259183 -0.05426670
v 0.06303285 0.00324402 -0.05426670
v 0.06150274 0.00220689 -0.05513731
v 0.06138893 0.00228167 -0.05600791
v 0.06216031 0.00322931 -0.05820334
v 0.06216031 0.00373072 -0.05960387
v 0.06142687 0.00357257 -0.06010857
v 0.06090840 0.00365593 -0.06094132
v 0.06157861 0.00216888 -0.05426670
v 0.06159126 0.00216030 -0.05391341
v 0.06162920 0.00213946 -0.05296711
v 0.05949211 0.00200829 0.05556796
v 0.05504089 0.00088533 0.05425575
v -0.05556940 0.00028953 0.03332344
v -0.05688453 0.00034593 0.03463566
v -0.05818702 0.00037903 0.03463566
v -0.05314146 0.00024172 0.03332344
v 0.01691467 -0.00039576 0.05371320
v 0.03260775 0.00034470 0.05709467
v 0.02940843 0.00021230 0.05684232
v 0.05499030 0.00090495 0.05500018
v 0.05424422 0.00087798 0.05510112
v 0.02810595 0.00018901 0.05684232
v 0.01764811 -0.00039576 0.05372582
v 0.01764811 -0.00043254 0.05295615
v -0.06096903 0.01191011 0.04378329
v -0.06487650 0.00481934 0.05688018
v -0.06545819 0.00474211 0.05296877
v -0.06472475 0.00420638 0.05426837
v -0.06397866 0.00360322 0.05426837
v -0.06482591 0.00440375 0.05550487
v -0.06454771 0.00441478 0.05688018
v -0.05950215 0.00063279 0.03073687
v -0.05950215 0.00062053 0.03463566
v -0.05950215 0.00061931 0.03332344
v -0.06024824 0.00088779 0.03726008
v -0.06085522 0.00115136 0.03855967
v -0.06224623 0.00195925 0.04515859
v -0.06199332 0.00194576 0.04771993
v -0.06275205 0.00224734 0.04563805
v -0.06205655 0.00192247 0.04640771
v -0.04380907 0.01191011 0.05893681
v -0.05659369 0.00481934 0.06282298
v -0.05556940 0.00481934 0.06289869
v -0.05530384 0.00481934 0.06291130
v -0.05556940 0.00464526 0.06287345
v -0.05426691 0.00455331 0.06289869
v -0.00067524 0.00187343 0.06342862
v -0.05314146 0.00386434 0.06246969
v -0.05314146 0.00336416 0.06181359
v -0.05688453 0.00343404 0.06162433
v -0.00057407 0.00152037 0.06211641
v 0.01891266 0.00005906 0.05684232
v 0.01896324 0.00005906 0.05684232
v 0.04960332 0.00093560 0.05621145
v 0.05818962 0.00170303 0.05688018
v 0.05959327 0.00206100 0.05689279
v 0.06017496 0.00220934 0.05647642
v -0.05818702 0.00044277 0.03594787
v -0.05917337 0.00087798 0.04248370
v -0.05936305 0.00084120 0.04118410
v -0.05950215 0.00074681 0.03855967
v -0.05950215 0.00069164 0.03726008
v -0.05950215 0.00064383 0.03594787
v 0.01764811 0.00007255 0.05684232
v -0.05556940 0.00165277 0.05688018
v -0.05556940 0.00148727 0.05556796
v -0.05164929 0.00090618 0.04736664
v -0.06047586 0.01191011 0.04485577
v -0.06440861 0.00481934 0.05817977
v -0.06409247 0.00481934 0.05888634
v -0.06428216 0.00464281 0.05819238
v -0.06386485 0.00365471 0.05556796
v -0.06190480 0.00200093 0.04901952
v -0.06367517 0.00376259 0.05688018
v -0.06019766 0.00090618 0.03855967
v -0.06015972 0.00091721 0.03935458
v -0.06080464 0.00156205 0.04771993
v -0.06080464 0.00163315 0.04901952
v -0.04447929 0.01191011 0.05884849
v -0.05735242 0.00481934 0.06268419
v -0.05655575 0.00475314 0.06282298
v -0.05556940 0.00398939 0.06234352
v -0.05426691 0.00390235 0.06240660
v -0.03593092 0.00201442 0.06045091
v -0.03462843 0.00167238 0.05950460
v -0.05782030 0.00348798 0.06153600
v -0.05688453 0.00310181 0.06080419
v -0.05556940 0.00302826 0.06080419
v -0.05898369 0.00090618 0.04339215
v -0.05245860 0.00091598 0.04716476
v -0.05959067 0.00082159 0.03982142
v -0.05556940 0.00201809 0.05811668
v -0.05688453 0.00210268 0.05791480
v -0.05688453 0.00182195 0.05688018
v -0.05688453 0.00160495 0.05556796
v -0.03593092 0.00171652 0.05950460
v -0.05997004 0.01191011 0.04544879
v -0.06280263 0.00481934 0.06045091
v -0.06409247 0.00481321 0.05888634
v -0.06334639 0.00396119 0.05814192
v -0.06332110 0.00324157 0.05426837
v -0.06321993 0.00331880 0.05556796
v -0.06301761 0.00341688 0.05688018
v -0.06177835 0.00208062 0.05034435
v -0.06285321 0.00349289 0.05768769
v -0.06080464 0.00176800 0.05034435
v -0.05950215 0.00153385 0.05034435
v -0.05950215 0.00165522 0.05165656
v -0.04640140 0.01191011 0.05821762
v -0.06080464 0.00481934 0.06190191
v -0.05868019 0.00481934 0.06239399
v -0.05754210 0.00481934 0.06264634
v -0.05950215 0.00433632 0.06192714
v -0.05694776 0.00426645 0.06236875
v -0.05869284 0.00357380 0.06137198
v -0.05822496 0.00332738 0.06087990
v -0.05818702 0.00156450 0.05296877
v -0.05950215 0.00343649 0.06046352
v -0.06027353 0.00351005 0.06022379
v -0.05769385 0.00219095 0.05766245
v -0.05813644 0.00210513 0.05681709
v -0.05895840 0.00220076 0.05635024
v -0.05818702 0.00188447 0.05556796
v -0.05818702 0.00170548 0.05426837
v -0.04946162 0.01191011 0.05599695
v -0.06287850 0.00474701 0.06027426
v -0.06206919 0.00450918 0.06076634
v -0.06160131 0.00474333 0.06156124
v -0.06163925 0.00481934 0.06158647
v -0.04880405 0.01191011 0.05665306
v -0.06335903 0.00456802 0.05940366
v -0.06243591 0.00363877 0.05855829
v -0.06158866 0.00217379 0.05165656
v -0.06146221 0.00222528 0.05232529
v -0.06210713 0.00311162 0.05688018
v -0.06080464 0.00309078 0.05819238
v -0.06204390 0.00339849 0.05814192
v -0.06114607 0.00361303 0.05984527
v -0.06080464 0.00195312 0.05165656
v -0.05950215 0.00182440 0.05296877
v -0.04742569 0.01191011 0.05778863
v -0.06151279 0.00481934 0.06163694
v -0.06080464 0.00455454 0.06176312
v -0.05950215 0.00367923 0.06111963
v -0.06075406 0.00387783 0.06071587
v -0.05921131 0.00213824 0.05556796
v -0.06204390 0.00385086 0.05945413
v -0.04808326 0.01191011 0.05730917
v -0.06034940 0.00218114 0.05394031
f 1 2 3
f 1 3 4
f 1 4 5
f 1 5 6
f 1 6 7
f 1 7 8
f 1 8 2
f 2 9 3
f 2 8 10
f 2 10 9
f 3 9 11
f 3 11 12
f 3 12 13
f 3 13 14
f 3 14 4
f 4 15 5
f 4 14 16
f 4 16 17
f 4 17 18
f 4 18 19
f 4 19 20
f 4 20 21
f 4 21 22
f 4 22 23
f 4 23 24
f 4 24 25
f 4 25 15
f 5 26 28
f 5 28 6
f 5 15 26
f 6 27 7
f 6 28 29
f 6 29 30
f 6 30 31
f 6 31 32
f 6 32 33
f 6 33 34
f 6 34 27
f 7 27 10
f 7 10 8
f 9 35 36
f 9 36 37
f 9 37 38
f 9 38 39
f 9 39 40
f 9 40 13
f 9 13 11
f 9 10 35
f 10 27 41
f 10 41 42
f 10 42 35
f 11 13 12
f 13 40 14
f 14 40 16
f 15 25 43
f 15 43 26
f 16 40 39
f 16 39 17
f 17 39 18
f 18 39 44
f 18 44 19
f 19 44 20
f 20 44 45
f 20 45 46
f 20 46 47
f 20 47 23
f 20 23 22
f 20 22 21
f 23 47 24
f 24 48 87
f 24 87 126
f 24 126 197
f 24 197 272
f 24 272 338
f 24 338 401
f 24 401 444
f 24 444 473
f 24 473 501
f 24 501 506
f 24 506 524
f 24 524 517
f 24 517 485
f 24 485 455
f 24 455 417
f 24 417 354
f 24 354 285
f 24 285 213
f 24 213 136
f 24 136 93
f 24 93 54
f 24 54 25
f 24 47 46
f 24 46 49
f 24 49 50
f 24 50 51
f 24 51 52
f 24 52 53
f 24 53 48
f 25 54 55
f 25 55 56
f 25 56 26
f 25 26 43
f 26 56 28
f 27 34 57
f 27 57 41
f 28 56 58
f 28 58 59
f 28 59 60
f 28 60 29
f 29 61 30
f 29 60 62
f 29 62 61
f 30 63 64
f 30 64 65
f 30 65 66
f 30 66 31
f 30 61 63
f 31 66 32
f 32 66 33
f 33 66 67
f 33 67 57
f 33 57 34
f 35 68 36
f 35 42 68
f 36 68 69
f 36 69 37
f 37 69 70
f 37 70 71
f 37 71 38
f 38 71 72
f 38 72 39
f 39 73 74
f 39 74 44
f 39 72 73
f 41 57 75
f 41 75 76
f 41 76 77
f 41 77 78
f 41 78 79
f 41 79 80
f 41 80 42
f 42 80 81
f 42 81 82
f 42 82 68
f 44 74 83
f 44 83 84
f 44 84 85
f 44 85 45
f 45 85 46
f 46 85 86
f 46 86 49
f 48 53 88
f 48 88 87
f 49 86 89
f 49 89 50
f 50 90 51
f 50 89 90
f 51 90 52
f 52 91 53
f 52 90 91
f 53 91 92
f 53 92 88
f 54 93 146
f 54 146 94
f 54 94 95
f 54 95 96
f 54 96 97
f 54 97 55
f 55 97 98
f 55 98 99
f 55 99 58
f 55 58 56
f 57 67 75
f 58 99 100
f 58 100 59
f 59 100 101
f 59 101 102
f 59 102 60
f 60 102 62
f 61 62 63
f 62 102 63
f 63 102 103
f 63 103 104
f 63 104 64
f 64 105 65
f 64 104 105
f 65 106 67
f 65 67 66
f 65 105 106
f 67 106 75
f 68 82 107
f 68 107 69
f 69 107 70
f 70 107 108
f 70 108 71
f 71 108 109
f 71 109 72
f 72 109 110
f 72 110 73
f 73 110 111
f 73 111 112
f 73 112 74
f 74 112 83
f 75 77 76
f 75 106 113
f 75 113 114
f 75 114 77
f 77 114 115
f 77 115 78
f 78 115 116
f 78 116 117
f 78 117 79
f 79 118 119
f 79 119 80
f 79 117 116
f 79 116 120
f 79 120 118
f 80 119 121
f 80 121 122
f 80 122 107
f 80 107 81
f 81 107 82
f 83 123 84
f 83 112 124
f 83 124 123
f 84 123 125
f 84 125 85
f 85 125 86
f 86 125 89
f 87 88 126
f 88 92 127
f 88 127 126
f 89 125 90
f 90 128 91
f 90 125 129
f 90 129 128
f 91 128 130
f 91 130 131
f 91 131 132
f 91 132 133
f 91 133 134
f 91 134 92
f 92 135 127
f 92 134 135
f 93 136 137
f 93 137 138
f 93 138 139
f 93 139 140
f 93 140 141
f 93 141 142
f 93 142 143
f 93 143 144
f 93 144 145
f 93 145 146
f 94 146 147
f 94 147 95
f 95 147 148
f 95 148 149
f 95 149 150
f 95 150 96
f 96 150 98
f 96 98 97
f 98 151 99
f 98 150 151
f 99 151 100
f 100 151 152
f 100 152 153
f 100 153 154
f 100 154 101
f 101 154 156
f 101 156 102
f 102 155 103
f 102 156 155
f 103 155 157
f 103 157 104
f 104 157 105
f 105 157 158
f 105 158 159
f 105 159 160
f 105 160 161
f 105 161 162
f 105 162 106
f 106 162 113
f 107 122 163
f 107 163 164
f 107 164 165
f 107 165 166
f 107 166 108
f 108 166 167
f 108 167 168
f 108 168 110
f 108 110 109
f 110 168 111
f 111 168 112
f 112 168 167
f 112 167 124
f 113 162 161
f 113 161 160
f 113 160 169
f 113 169 170
f 113 170 171
f 113 171 172
f 113 172 114
f 114 172 173
f 114 173 174
f 114 174 115
f 115 174 175
f 115 175 176
f 115 176 116
f 116 176 120
f 118 177 178
f 118 178 179
f 118 179 180
f 118 180 181
f 118 181 182
f 118 182 119
f 118 120 183
f 118 183 184
f 118 184 185
f 118 185 186
f 118 186 177
f 119 182 187
f 119 187 121
f 120 176 188
f 120 188 183
f 121 187 189
f 121 189 190
f 121 190 122
f 122 190 163
f 123 191 125
f 123 124 192
f 123 192 193
f 123 193 194
f 123 194 191
f 124 167 195
f 124 195 196
f 124 196 192
f 125 191 129
f 126 127 198
f 126 198 197
f 127 135 198
f 128 129 130
f 129 191 199
f 129 199 200
f 129 200 130
f 130 200 201
f 130 201 202
f 130 202 131
f 131 202 203
f 131 203 132
f 132 203 204
f 132 204 205
f 132 205 206
f 132 206 207
f 132 207 208
f 132 208 209
f 132 209 210
f 132 210 133
f 133 210 211
f 133 211 134
f 134 211 135
f 135 212 198
f 135 211 212
f 136 213 214
f 136 214 137
f 137 214 215
f 137 215 216
f 137 216 217
f 137 217 218
f 137 218 219
f 137 219 220
f 137 220 221
f 137 221 138
f 138 221 139
f 139 221 140
f 140 221 141
f 141 221 142
f 142 221 143
f 143 222 144
f 143 221 222
f 144 222 223
f 144 223 145
f 145 223 146
f 146 223 224
f 146 224 225
f 146 225 226
f 146 226 227
f 146 227 147
f 147 227 228
f 147 228 229
f 147 229 148
f 148 229 149
f 149 229 230
f 149 230 231
f 149 231 232
f 149 232 233
f 149 233 150
f 150 233 152
f 150 152 151
f 152 234 153
f 152 233 234
f 153 234 235
f 153 235 154
f 154 235 156
f 155 236 157
f 155 156 235
f 155 235 236
f 157 236 158
f 158 169 160
f 158 160 159
f 158 236 169
f 163 190 237
f 163 237 164
f 164 237 165
f 165 237 238
f 165 238 166
f 166 238 167
f 167 238 195
f 169 236 239
f 169 239 171
f 169 171 170
f 171 239 240
f 171 240 172
f 172 240 173
f 173 240 241
f 173 241 242
f 173 242 176
f 173 176 174
f 174 176 175
f 176 242 243
f 176 243 244
f 176 244 188
f 177 245 246
f 177 246 247
f 177 247 178
f 177 186 245
f 178 247 179
f 179 247 181
f 179 181 180
f 181 248 182
f 181 247 246
f 181 246 249
f 181 249 250
f 181 250 251
f 181 251 248
f 182 248 252
f 182 252 253
f 182 253 187
f 183 188 254
f 183 254 255
f 183 255 256
f 183 256 257
f 183 257 258
f 183 258 184
f 184 258 259
f 184 259 185
f 185 259 186
f 186 259 260
f 186 260 245
f 187 253 261
f 187 261 262
f 187 262 263
f 187 263 189
f 188 244 264
f 188 264 255
f 188 255 254
f 189 265 266
f 189 266 267
f 189 267 190
f 189 263 265
f 190 267 268
f 190 268 238
f 190 238 237
f 191 194 199
f 192 269 200
f 192 200 194
f 192 194 193
f 192 196 270
f 192 270 269
f 194 200 199
f 195 238 268
f 195 268 196
f 196 268 271
f 196 271 270
f 197 198 273
f 197 273 274
f 197 274 272
f 198 212 273
f 200 269 201
f 201 270 275
f 201 275 263
f 201 263 276
f 201 276 277
f 201 277 278
f 201 278 202
f 201 269 270
f 202 278 203
f 203 278 204
f 204 278 205
f 205 278 279
f 205 279 206
f 206 279 207
f 207 279 280
f 207 280 208
f 208 281 209
f 208 280 279
f 208 279 281
f 209 281 282
f 209 282 211
f 209 211 210
f 211 282 283
f 211 283 284
f 211 284 212
f 212 284 273
f 213 285 286
f 213 286 214
f 214 286 215
f 215 286 287
f 215 287 216
f 216 287 288
f 216 288 217
f 217 288 357
f 217 357 289
f 217 289 218
f 218 290 291
f 218 291 292
f 218 292 219
f 218 289 290
f 219 292 220
f 220 292 224
f 220 224 221
f 221 224 223
f 221 223 222
f 224 292 293
f 224 293 294
f 224 294 225
f 225 294 295
f 225 295 226
f 226 295 227
f 227 295 296
f 227 296 297
f 227 297 228
f 228 298 229
f 228 297 299
f 228 299 300
f 228 300 298
f 229 298 230
f 230 301 302
f 230 302 231
f 230 298 300
f 230 300 303
f 230 303 304
f 230 304 305
f 230 305 301
f 231 302 232
f 232 306 307
f 232 307 308
f 232 308 234
f 232 234 233
f 232 302 306
f 234 308 309
f 234 309 235
f 235 309 236
f 236 309 310
f 236 310 311
f 236 311 239
f 239 241 240
f 239 311 312
f 239 312 313
f 239 313 314
f 239 314 315
f 239 315 316
f 239 316 317
f 239 317 318
f 239 318 241
f 241 318 243
f 241 243 242
f 243 318 244
f 244 318 319
f 244 319 320
f 244 320 264
f 245 260 321
f 245 321 246
f 246 321 250
f 246 250 249
f 248 251 322
f 248 322 323
f 248 323 276
f 248 276 252
f 250 324 251
f 250 321 260
f 250 260 259
f 250 259 257
f 250 257 256
f 250 256 255
f 250 255 324
f 251 324 325
f 251 325 326
f 251 326 322
f 252 327 253
f 252 276 327
f 253 327 276
f 253 276 261
f 255 264 328
f 255 328 329
f 255 329 325
f 255 325 330
f 255 330 324
f 257 259 258
f 261 276 262
f 262 276 263
f 263 275 266
f 263 266 265
f 264 331 332
f 264 332 333
f 264 333 334
f 264 334 335
f 264 335 328
f 264 320 336
f 264 336 331
f 266 275 271
f 266 271 337
f 266 337 267
f 267 337 268
f 268 337 271
f 270 271 275
f 272 274 339
f 272 339 340
f 272 340 341
f 272 341 342
f 272 342 338
f 273 284 343
f 273 343 274
f 274 343 339
f 276 323 277
f 277 344 278
f 277 323 345
f 277 345 344
f 278 344 346
f 278 346 279
f 279 346 347
f 279 347 348
f 279 348 281
f 281 349 282
f 281 348 350
f 281 350 351
f 281 351 349
f 282 352 353
f 282 353 283
f 282 349 352
f 283 343 284
f 283 353 343
f 285 354 355
f 285 355 286
f 286 355 287
f 287 355 288
f 288 356 357
f 288 355 356
f 289 357 358
f 289 358 359
f 289 359 360
f 289 360 361
f 289 361 362
f 289 362 363
f 289 363 364
f 289 364 365
f 289 365 290
f 290 365 366
f 290 366 291
f 291 367 292
f 291 366 368
f 291 368 367
f 292 367 293
f 293 367 369
f 293 369 294
f 294 369 295
f 295 369 370
f 295 370 296
f 296 370 297
f 297 370 368
f 297 368 371
f 297 371 372
f 297 372 299
f 299 373 300
f 299 372 374
f 299 374 375
f 299 375 373
f 300 373 303
f 301 305 306
f 301 306 302
f 303 373 375
f 303 375 376
f 303 376 377
f 303 377 304
f 304 377 376
f 304 376 305
f 305 376 378
f 305 378 306
f 306 378 379
f 306 379 380
f 306 380 307
f 307 380 313
f 307 313 381
f 307 381 308
f 308 381 382
f 308 382 383
f 308 383 309
f 309 383 310
f 310 383 311
f 311 383 312
f 312 383 313
f 313 382 381
f 313 380 315
f 313 315 314
f 313 383 382
f 315 318 317
f 315 317 316
f 315 380 379
f 315 379 318
f 318 379 378
f 318 378 384
f 318 384 385
f 318 385 386
f 318 386 374
f 318 374 372
f 318 372 319
f 319 371 387
f 319 387 388
f 319 388 320
f 319 372 371
f 320 388 336
f 322 389 390
f 322 390 391
f 322 391 345
f 322 345 323
f 322 326 325
f 322 325 389
f 324 330 325
f 325 329 392
f 325 392 389
f 328 335 334
f 328 334 393
f 328 393 390
f 328 390 392
f 328 392 329
f 331 394 395
f 331 395 332
f 331 336 396
f 331 396 397
f 331 397 394
f 332 395 398
f 332 398 399
f 332 399 400
f 332 400 334
f 332 334 333
f 334 400 393
f 336 388 396
f 338 342 402
f 338 402 401
f 339 343 340
f 340 343 403
f 340 403 404
f 340 404 405
f 340 405 406
f 340 406 341
f 341 406 407
f 341 407 342
f 342 407 402
f 343 353 352
f 343 352 404
f 343 404 403
f 344 345 408
f 344 408 346
f 345 391 409
f 345 409 410
f 345 410 408
f 346 408 347
f 347 408 410
f 347 410 409
f 347 409 411
f 347 411 348
f 348 351 350
f 348 411 412
f 348 412 351
f 349 351 413
f 349 413 414
f 349 414 415
f 349 415 405
f 349 405 352
f 351 412 416
f 351 416 413
f 352 405 404
f 354 417 418
f 354 418 419
f 354 419 420
f 354 420 355
f 355 420 421
f 355 421 422
f 355 422 356
f 356 423 357
f 356 422 424
f 356 424 425
f 356 425 426
f 356 426 423
f 357 423 358
f 358 423 427
f 358 427 428
f 358 428 429
f 358 429 398
f 358 398 394
f 358 394 359
f 359 397 396
f 359 396 360
f 359 394 430
f 359 430 397
f 360 396 361
f 361 396 431
f 361 431 362
f 362 431 363
f 363 431 432
f 363 432 364
f 364 432 433
f 364 433 365
f 365 433 366
f 366 433 368
f 367 368 369
f 368 433 371
f 368 370 369
f 371 433 387
f 374 386 375
f 375 386 376
f 376 386 384
f 376 384 378
f 384 386 385
f 387 432 431
f 387 431 388
f 387 433 432
f 388 431 396
f 389 392 390
f 390 434 391
f 390 393 434
f 391 434 435
f 391 435 436
f 391 436 437
f 391 437 438
f 391 438 439
f 391 439 409
f 393 400 399
f 393 399 428
f 393 428 440
f 393 440 441
f 393 441 442
f 393 442 443
f 393 443 434
f 394 398 395
f 394 397 430
f 398 429 399
f 399 429 428
f 401 402 445
f 401 445 446
f 401 446 444
f 402 407 447
f 402 447 445
f 405 448 406
f 405 415 414
f 405 414 449
f 405 449 448
f 406 448 407
f 407 448 450
f 407 450 447
f 409 439 411
f 411 439 451
f 411 451 412
f 412 451 452
f 412 452 414
f 412 414 416
f 413 416 414
f 414 452 453
f 414 453 454
f 414 454 449
f 417 455 418
f 418 456 457
f 418 457 419
f 418 455 456
f 419 457 421
f 419 421 420
f 421 457 458
f 421 458 459
f 421 459 424
f 421 424 422
f 423 426 460
f 423 460 461
f 423 461 427
f 424 459 426
f 424 426 425
f 426 462 463
f 426 463 464
f 426 464 460
f 426 459 458
f 426 458 462
f 427 440 428
f 427 461 440
f 434 465 435
f 434 443 466
f 434 466 442
f 434 442 465
f 435 465 454
f 435 454 436
f 436 454 452
f 436 452 467
f 436 467 437
f 437 467 452
f 437 452 438
f 438 452 439
f 439 452 451
f 440 461 441
f 441 468 469
f 441 469 470
f 441 470 471
f 441 471 442
f 441 461 472
f 441 472 468
f 442 471 465
f 442 466 443
f 444 446 474
f 444 474 473
f 445 447 475
f 445 475 446
f 446 475 474
f 447 450 476
f 447 476 475
f 448 449 477
f 448 477 478
f 448 478 479
f 448 479 450
f 449 454 480
f 449 480 478
f 449 478 477
f 450 479 481
f 450 481 476
f 452 454 453
f 454 482 480
f 454 465 483
f 454 483 484
f 454 484 482
f 455 485 486
f 455 486 487
f 455 487 488
f 455 488 456
f 456 488 457
f 457 488 489
f 457 489 490
f 457 490 458
f 458 490 462
f 460 464 468
f 460 468 472
f 460 472 461
f 462 469 463
f 462 490 489
f 462 489 491
f 462 491 492
f 462 492 469
f 463 469 468
f 463 468 464
f 465 471 493
f 465 493 483
f 469 492 491
f 469 491 494
f 469 494 495
f 469 495 496
f 469 496 470
f 470 496 497
f 470 497 498
f 470 498 499
f 470 499 471
f 471 499 500
f 471 500 484
f 471 484 493
f 473 474 501
f 474 475 502
f 474 502 503
f 474 503 504
f 474 504 505
f 474 505 506
f 474 506 501
f 475 476 507
f 475 507 502
f 476 481 508
f 476 508 507
f 478 480 509
f 478 509 479
f 479 509 510
f 479 510 511
f 479 511 481
f 480 482 509
f 481 511 512
f 481 512 513
f 481 513 514
f 481 514 508
f 482 515 510
f 482 510 509
f 482 484 500
f 482 500 516
f 482 516 515
f 483 493 484
f 485 517 505
f 485 505 518
f 485 518 486
f 486 518 519
f 486 519 487
f 487 519 489
f 487 489 488
f 489 519 491
f 491 519 520
f 491 520 495
f 491 495 494
f 495 521 514
f 495 514 496
f 495 520 521
f 496 498 497
f 496 514 512
f 496 512 498
f 498 522 499
f 498 512 511
f 498 511 522
f 499 522 516
f 499 516 500
f 502 507 503
f 503 523 514
f 503 514 521
f 503 521 504
f 503 507 523
f 504 518 505
f 504 521 519
f 504 519 518
f 505 517 524
f 505 524 506
f 507 508 523
f 508 514 523
f 510 515 525
f 510 525 511
f 511 525 522
f 512 514 513
f 515 516 522
f 515 522 525
f 519 521 520

