# https://github.com/mikedh/trimesh
v -0.06081443 0.06267776 0.05950975
v -0.06211431 0.06258582 0.04251168
v -0.06211431 0.06257356 0.05950975
v -0.06081443 0.06259808 0.06081641
v -0.05296562 0.06262873 0.06081641
v -0.05166574 0.06262260 0.06081641
v -0.04116764 0.06256130 0.06082102
v -0.05166574 0.06262260 0.05950975
v -0.05820229 0.06265325 0.05558748
v -0.06211431 0.06257969 0.04225081
v -0.06293138 0.06251839 0.04251168
v -0.05689003 0.06262260 0.05166520
v -0.05557776 0.06261647 0.05166520
v 0.05818054 0.06180121 0.06198686
v -0.06321612 0.06248161 0.05558748
v -0.06295614 0.06243870 0.05950975
v -0.06289425 0.06242032 0.06041241
v -0.06215145 0.06248774 0.06083719
v -0.06174292 0.06243257 0.06159440
v -0.06081443 0.06246322 0.06168444
v -0.05557776 0.06250613 0.06179986
v -0.05296562 0.06251839 0.06174907
v -0.03985537 0.06245709 0.06177216
v 0.05818054 0.06180121 0.06212538
v -0.06081443 0.06251839 0.04225081
v -0.06293138 0.06251226 0.04225081
v -0.06333992 0.06243870 0.05245704
v -0.06333992 0.06245709 0.05407305
v -0.06322850 0.06248161 0.05427620
v 0.05949280 0.06172765 0.06198686
v -0.06333992 0.06245709 0.05535662
v -0.06333992 0.06245096 0.05558748
v -0.06333992 0.06241418 0.05688952
v -0.06333992 0.06234676 0.05881949
v -0.06260951 0.06234676 0.06128505
v -0.06333992 0.06229772 0.05986066
v -0.06333992 0.06209544 0.06086027
v -0.06081443 0.06211996 0.06234007
v -0.06225050 0.06182573 0.06218078
v -0.05950217 0.06216899 0.06234700
v -0.05427788 0.06223642 0.06247859
v -0.05409218 0.06227933 0.06238393
v -0.05409218 0.06250613 0.06182526
v -0.04377978 0.06225481 0.06244857
v 0.05818054 0.06143342 0.06336508
v 0.05949280 0.06139051 0.06333276
v 0.05949280 0.06172765 0.06212538
v -0.06009640 0.06242644 0.04225081
v 0.06079268 0.06162344 0.06198686
v -0.06293138 0.06109628 0.04225081
v -0.06333992 0.06062429 0.05245704
v -0.06333992 0.06154376 0.06177447
v -0.06333992 0.06147020 0.06186681
v -0.06187910 0.06129857 0.06290567
v -0.06081443 0.06147020 0.06301649
v -0.05950217 0.06151311 0.06307882
v -0.05557776 0.06221190 0.06245781
v -0.05409218 0.06223642 0.06247859
v -0.05427788 0.06158666 0.06315962
v -0.04640430 0.06158666 0.06330044
v -0.04505490 0.06161118 0.06328428
v 0.02417313 0.06109015 0.06410844
v 0.03069730 0.06109015 0.06411537
v 0.05629880 0.06107789 0.06408997
v 0.05679400 0.06135986 0.06354746
v 0.05949280 0.06096756 0.06398609
v 0.06079268 0.06132921 0.06322195
v 0.06079268 0.06161731 0.06212538
v -0.05971263 0.06186250 0.04225081
v 0.04248291 0.06140890 0.05856323
v 0.04248291 0.06140277 0.05855631
v 0.04248291 0.06040362 0.05818001
v 0.06185735 0.06132921 0.06212538
v 0.06185735 0.06132921 0.06198686
v -0.06332754 0.01191710 0.05872945
v -0.06071539 0.05921444 0.04225081
v -0.06144581 0.01191710 0.04225312
v -0.06333992 0.05969869 0.05933661
v -0.06333992 0.06042201 0.06217847
v -0.06265903 0.06042201 0.06270483
v -0.06200290 0.06042201 0.06297493
v -0.06081443 0.06042201 0.06329813
v -0.05950217 0.06042201 0.06345050
v -0.04770419 0.06012778 0.06423080
v -0.04640430 0.06019521 0.06426774
v -0.04770419 0.06078367 0.06393299
v -0.04640430 0.06085109 0.06395377
v -0.04505490 0.06086335 0.06395608
v 0.02154861 0.06040362 0.06459555
v 0.02286087 0.06040362 0.06460017
v 0.03069730 0.06040362 0.06460710
v 0.04247053 0.05939834 0.06522349
v 0.05949280 0.06031780 0.06439932
v 0.06079268 0.06017069 0.06431621
v 0.06079268 0.06082044 0.06387297
v 0.06167165 0.06121888 0.06300033
v -0.05963835 0.06172765 0.04225081
v 0.06250110 0.06070398 0.06198686
v 0.06287250 0.06004196 0.06198686
v 0.06206781 0.00460428 0.05711576
v 0.06250110 0.06069785 0.06212538
v -0.06332754 0.01191710 0.06137278
v -0.05924219 0.00483108 0.05981218
v -0.05934123 0.05921444 0.04225081
v -0.05996023 0.01191710 0.04225312
v 0.01892408 0.00005599 0.05686181
v 0.01764896 0.00007438 0.05686181
v 0.01499967 0.00017245 0.05686181
v 0.01372455 0.00023375 0.05686181
v 0.00471203 0.00090802 0.05686181
v -0.06333992 0.05969869 0.06211614
v -0.06332754 0.03266639 0.06175831
v -0.06332754 0.05003204 0.06203303
v -0.06317898 0.03296675 0.06195685
v -0.06237429 0.01989807 0.06248320
v -0.06262189 0.05518105 0.06269328
v -0.06171816 0.01989807 0.06291953
v -0.06080205 0.05780459 0.06334431
v -0.06080205 0.05910411 0.06334892
v -0.06081443 0.05969869 0.06332584
v -0.06080205 0.05968643 0.06332814
v -0.05948979 0.05910411 0.06353130
v -0.05950217 0.05969869 0.06349667
v -0.04640430 0.05780459 0.06473638
v -0.04640430 0.05911024 0.06457709
v -0.04510443 0.05911024 0.06463249
v -0.04510443 0.06021360 0.06428852
v 0.02286087 0.05931252 0.06523503
v 0.03069730 0.05942285 0.06523272
v 0.04115827 0.05876697 0.06551668
v 0.04247053 0.05876697 0.06550975
v 0.05949280 0.05910411 0.06476408
v 0.06079268 0.05910411 0.06456092
v 0.06158499 0.05993163 0.06418463
v 0.06205543 0.06033006 0.06337201
v 0.06281059 0.05987033 0.06287335
v -0.05927933 0.06042201 0.04225081
v 0.06287250 0.06003583 0.06212538
v 0.06303343 0.05910411 0.06198686
v 0.06313247 0.05780459 0.06198686
v 0.06313247 0.05648056 0.06198686
v 0.06234016 0.01435062 0.05888182
v 0.06224112 0.00736881 0.05888182
v 0.06224112 0.00736881 0.06025542
v 0.06222874 0.00736881 0.06082102
v 0.06190687 0.00543180 0.06178370
v 0.06184497 0.00460428 0.06081872
v 0.06199353 0.00419358 0.05711576
v -0.05981167 0.01596275 0.04225312
v -0.05972501 0.01858017 0.04225312
v -0.05968787 0.01989194 0.04225312
v -0.05961359 0.02407857 0.04225312
v -0.05924219 0.00483108 0.06227543
v -0.06301804 0.01191710 0.06175139
v -0.06306756 0.01859243 0.06182757
v 0.06158499 0.00339058 0.05711576
v 0.06082982 0.00276535 0.05711576
v 0.06043367 0.00247725 0.05711576
v 0.05982705 0.00215237 0.05711576
v 0.05954232 0.00207268 0.05711576
v 0.05836623 0.00177232 0.05711576
v 0.05819292 0.00172941 0.05711576
v 0.05710349 0.00157617 0.05711576
v 0.05688066 0.00155165 0.05711576
v 0.03260380 0.00035022 0.05686181
v 0.03205909 0.00031957 0.05686181
v 0.03073444 0.00025827 0.05686181
v 0.02939742 0.00021536 0.05686181
v 0.02810992 0.00019084 0.05686181
v 0.01896122 0.00005599 0.05686181
v 0.02026110 0.00012341 0.05951206
v 0.01896122 0.00012954 0.05951206
v 0.01764896 0.00014793 0.05951206
v 0.01633670 0.00017858 0.05951206
v 0.01503681 0.00019697 0.05820310
v -0.06234953 0.01859243 0.06248089
v -0.06161912 0.01336373 0.06286874
v -0.06080205 0.01336373 0.06303957
v -0.06080205 0.01859243 0.06308805
v -0.05948979 0.05780459 0.06352437
v -0.04640430 0.05647443 0.06475946
v -0.04510443 0.05780459 0.06479871
v -0.04377978 0.05910411 0.06465327
v 0.02939742 0.05876084 0.06548898
v 0.03069730 0.05876697 0.06549590
v 0.03987076 0.05779846 0.06572676
v 0.04115827 0.05779846 0.06572445
v 0.04247053 0.05779234 0.06570367
v 0.04287906 0.05804978 0.06563903
v 0.05949280 0.05780459 0.06481256
v 0.04247053 0.05648056 0.06575677
v 0.06079268 0.05780459 0.06458401
v 0.06167165 0.05910411 0.06423080
v 0.06232778 0.05910411 0.06355208
v 0.06281059 0.05910411 0.06289875
v 0.06302105 0.05910411 0.06212538
v 0.06309533 0.05648056 0.06212538
v 0.06271156 0.04210011 0.06259863
v 0.06211732 0.00811664 0.06212538
v 0.06209256 0.00681100 0.06178370
v 0.06204305 0.00681100 0.06212538
v 0.06178307 0.00540115 0.06223850
v 0.06164689 0.00460428 0.06188297
v 0.06177069 0.00438974 0.06081872
v 0.06190687 0.00419358 0.05820540
v 0.01503681 0.00023988 0.05951206
v 0.01633670 0.00027053 0.06081872
v -0.05868510 0.00483108 0.06240471
v -0.05743474 0.00494142 0.06275792
v -0.05924219 0.00544406 0.06262403
v -0.06232477 0.01191710 0.06234238
v 0.06175831 0.00410777 0.05940125
v 0.06151071 0.00347640 0.05820540
v 0.06146119 0.00353157 0.05889106
v 0.06137453 0.00361126 0.05976370
v 0.06009941 0.00226884 0.05736970
v 0.05924520 0.00210333 0.05820540
v 0.05819292 0.00185201 0.05820540
v 0.05688066 0.00170490 0.05820540
v 0.03857088 0.00074865 0.05951206
v 0.03727099 0.00067509 0.05951206
v 0.03464647 0.00043603 0.05820540
v 0.03334659 0.00037473 0.05820540
v 0.03073444 0.00025827 0.05689644
v 0.02942218 0.00021536 0.05689644
v 0.02810992 0.00019084 0.05689644
v 0.02288563 0.00013567 0.05820310
v 0.02681004 0.00019697 0.05820310
v 0.02157337 0.00015406 0.05951206
v 0.01896122 0.00018471 0.06081872
v 0.01764896 0.00020923 0.06081872
v -0.06225050 0.01205196 0.06240471
v -0.06165626 0.01191710 0.06281333
v -0.06159436 0.01191710 0.06285258
v -0.06080205 0.01205196 0.06301879
v -0.05948979 0.01205196 0.06314346
v -0.04510443 0.05517492 0.06478948
v -0.04510443 0.05647443 0.06481718
v -0.04377978 0.05780459 0.06481718
v 0.03069730 0.05779846 0.06566212
v 0.02286087 0.05865663 0.06544742
v 0.03724624 0.05779846 0.06571291
v 0.03854612 0.05779846 0.06571983
v 0.03854612 0.05648056 0.06583295
v 0.03987076 0.05648056 0.06582603
v 0.04115827 0.05648056 0.06580525
v 0.05949280 0.05648056 0.06480102
v 0.05688066 0.00811664 0.06472714
v 0.05688066 0.00736881 0.06472022
v 0.05819292 0.00681100 0.06453322
v 0.05941852 0.00681100 0.06423542
v 0.06033463 0.01859243 0.06416385
v 0.06153547 0.04210011 0.06414077
v 0.06167165 0.05780459 0.06423311
v 0.06214208 0.04210011 0.06343203
v 0.06281059 0.05648056 0.06288721
v 0.06174593 0.00942228 0.06309267
v 0.06173355 0.00811664 0.06306959
v 0.06208019 0.00736881 0.06212538
v 0.06169641 0.00736881 0.06303265
v 0.06165927 0.00681100 0.06300725
v 0.06157261 0.00576894 0.06290106
v 0.06143643 0.00489851 0.06275100
v 0.06089172 0.00412003 0.06223618
v 0.06122598 0.00373385 0.06081872
v 0.01372455 0.00073639 0.06192453
v -0.00054940 0.00187653 0.06343434
v -0.00054940 0.00152713 0.06212538
v -0.05754616 0.00483108 0.06265173
v -0.05736046 0.00483108 0.06269098
v -0.05660529 0.00483108 0.06283180
v -0.05915554 0.00599574 0.06282718
v -0.05924219 0.00590379 0.06278101
v -0.06223812 0.01191710 0.06240471
v 0.06056985 0.00330477 0.06081872
v 0.05990133 0.00235465 0.05820540
v 0.05897285 0.00218915 0.05899263
v 0.05806912 0.00213398 0.05946358
v 0.05756154 0.00223206 0.06018386
v 0.05688066 0.00201138 0.05951206
v 0.03857088 0.00087738 0.06030852
v 0.03930129 0.00090802 0.06021387
v 0.03595873 0.00061380 0.05951206
v 0.02810992 0.00022762 0.05820310
v 0.03464647 0.00055863 0.05951206
v 0.01896122 0.00057702 0.06185527
v 0.01764896 0.00058928 0.06188990
v 0.03727099 0.00084673 0.06041472
v 0.01633670 0.00063832 0.06191529
v 0.01503681 0.00068735 0.06194069
v -0.06087633 0.01191710 0.06300033
v -0.05924219 0.00614898 0.06284103
v -0.05924219 0.00675583 0.06290798
v -0.06080205 0.01191710 0.06301418
v -0.05948979 0.01191710 0.06313884
v -0.05924219 0.01099150 0.06312037
v -0.05924219 0.01191710 0.06314808
v -0.04377978 0.05517492 0.06481718
v -0.05831371 0.01191710 0.06317347
v -0.05426550 0.00550536 0.06308805
v -0.00054940 0.00288794 0.06414769
v 0.03724624 0.05648056 0.06582603
v 0.05688066 0.00681100 0.06471329
v 0.05825482 0.00541954 0.06430006
v 0.05917093 0.00579959 0.06417770
v 0.05688066 0.00550536 0.06451937
v 0.06007465 0.00681100 0.06403688
v 0.05972802 0.00736881 0.06415693
v 0.06014893 0.01007817 0.06408767
v 0.06019845 0.01203970 0.06410614
v 0.06081744 0.01072792 0.06375292
v 0.06080506 0.00811664 0.06369059
v 0.06121360 0.00736881 0.06337662
v 0.06080506 0.00681100 0.06361210
v 0.06092886 0.00540115 0.06324503
v 0.06079268 0.00460428 0.06298186
v 0.05988895 0.00363578 0.06259402
v 0.06034701 0.00343962 0.06172137
v -0.00054940 0.00220754 0.06410383
v -0.05646911 0.00483108 0.06284334
v -0.05557776 0.00550536 0.06302341
v 0.05946804 0.00333542 0.06214384
v 0.05688066 0.00280826 0.06212538
v 0.05688066 0.00220141 0.06030852
v 0.05819292 0.00302280 0.06212538
v 0.05556839 0.00215850 0.06049090
v 0.05556839 0.00271018 0.06212538
v 0.05556839 0.00316378 0.06336739
v 0.01503681 0.00108579 0.06259632
v 0.03727099 0.00113483 0.06106574
v 0.05556839 0.00365416 0.06401841
v 0.01372455 0.00106740 0.06257786
v -0.05924219 0.00811664 0.06301418
v -0.05924219 0.00968586 0.06307420
v -0.05530541 0.00483108 0.06292184
v -0.05426550 0.00483108 0.06296339
v -0.00054940 0.00225657 0.06410844
v 0.05873763 0.00492303 0.06405304
v 0.05785866 0.00469010 0.06415000
v 0.05956708 0.00541954 0.06393530
v 0.05688066 0.00460428 0.06425619
v 0.00065145 0.00221367 0.06410152
v 0.05589027 0.00460428 0.06432314
v 0.06039653 0.00736881 0.06388682
v 0.06056985 0.00451233 0.06305804
v 0.05946804 0.00412003 0.06323119
v 0.05900998 0.00348866 0.06285258
v -0.05557776 0.00483108 0.06290798
v 0.05688066 0.00323121 0.06325889
v 0.05819292 0.00337219 0.06303034
v 0.05688066 0.00382580 0.06391221
v 0.05688066 0.00448168 0.06421926
v 0.05556839 0.00431005 0.06425850
v 0.05851479 0.00460428 0.06391221
v 0.05746251 0.00460428 0.06417770
v 0.05825482 0.00423036 0.06374369
f 1 2 3
f 1 3 4
f 1 4 5
f 1 5 6
f 1 6 7
f 1 7 8
f 1 8 9
f 1 9 2
f 2 10 26
f 2 26 11
f 2 11 3
f 2 9 12
f 2 12 13
f 2 13 14
f 2 14 10
f 3 11 15
f 3 15 16
f 3 16 17
f 3 17 18
f 3 18 4
f 4 18 19
f 4 19 20
f 4 20 21
f 4 21 5
f 5 21 22
f 5 22 23
f 5 23 6
f 6 23 7
f 7 13 9
f 7 9 8
f 7 23 24
f 7 24 14
f 7 14 13
f 9 13 12
f 10 25 48
f 10 48 69
f 10 69 97
f 10 97 137
f 10 137 104
f 10 104 76
f 10 76 50
f 10 50 26
f 10 14 25
f 11 26 27
f 11 27 28
f 11 28 29
f 11 29 15
f 14 24 47
f 14 47 30
f 14 30 25
f 15 29 31
f 15 31 32
f 15 32 16
f 16 32 33
f 16 33 34
f 16 34 17
f 17 35 18
f 17 34 36
f 17 36 37
f 17 37 35
f 18 35 19
f 19 38 20
f 19 35 39
f 19 39 38
f 20 38 40
f 20 40 41
f 20 41 21
f 21 41 42
f 21 42 43
f 21 43 22
f 22 43 23
f 23 43 44
f 23 44 45
f 23 45 24
f 24 45 46
f 24 46 47
f 25 30 49
f 25 49 48
f 26 50 51
f 26 51 27
f 27 51 78
f 27 78 111
f 27 111 79
f 27 79 53
f 27 53 52
f 27 52 37
f 27 37 36
f 27 36 34
f 27 34 33
f 27 33 32
f 27 32 31
f 27 31 28
f 28 31 29
f 30 47 49
f 35 37 52
f 35 52 53
f 35 53 39
f 38 39 54
f 38 54 55
f 38 55 56
f 38 56 40
f 39 53 54
f 40 56 57
f 40 57 41
f 41 58 44
f 41 44 42
f 41 57 56
f 41 56 59
f 41 59 60
f 41 60 61
f 41 61 62
f 41 62 63
f 41 63 58
f 42 44 43
f 44 58 63
f 44 63 64
f 44 64 65
f 44 65 45
f 45 65 64
f 45 64 46
f 46 64 66
f 46 66 67
f 46 67 47
f 47 67 68
f 47 68 49
f 48 49 70
f 48 70 71
f 48 71 72
f 48 72 69
f 49 68 73
f 49 73 74
f 49 74 71
f 49 71 70
f 50 75 51
f 50 76 77
f 50 77 75
f 51 75 78
f 53 79 80
f 53 80 54
f 54 80 81
f 54 81 82
f 54 82 55
f 55 82 83
f 55 83 56
f 56 83 84
f 56 84 85
f 56 85 86
f 56 86 87
f 56 87 59
f 59 87 60
f 60 87 88
f 60 88 62
f 60 62 61
f 62 89 90
f 62 90 63
f 62 88 89
f 63 90 91
f 63 91 64
f 64 91 92
f 64 92 93
f 64 93 66
f 66 93 94
f 66 94 95
f 66 95 67
f 67 95 96
f 67 96 68
f 68 96 73
f 69 72 97
f 71 74 72
f 72 74 98
f 72 98 99
f 72 99 100
f 72 100 97
f 73 96 101
f 73 101 98
f 73 98 74
f 75 102 111
f 75 111 78
f 75 77 103
f 75 103 153
f 75 153 102
f 76 104 105
f 76 105 77
f 77 105 170
f 77 170 106
f 77 106 107
f 77 107 108
f 77 108 109
f 77 109 110
f 77 110 103
f 79 111 102
f 79 102 112
f 79 112 113
f 79 113 114
f 79 114 115
f 79 115 116
f 79 116 80
f 80 116 117
f 80 117 81
f 81 117 118
f 81 118 119
f 81 119 120
f 81 120 82
f 82 120 121
f 82 121 122
f 82 122 123
f 82 123 83
f 83 123 124
f 83 124 125
f 83 125 84
f 84 125 85
f 85 87 86
f 85 125 126
f 85 126 127
f 85 127 87
f 87 127 128
f 87 128 129
f 87 129 88
f 88 129 89
f 89 129 90
f 90 129 91
f 91 129 92
f 92 130 131
f 92 131 93
f 92 129 130
f 93 132 94
f 93 131 132
f 94 132 133
f 94 133 134
f 94 134 95
f 95 134 96
f 96 134 135
f 96 135 136
f 96 136 101
f 97 100 137
f 98 101 138
f 98 138 99
f 99 138 139
f 99 139 100
f 100 139 140
f 100 140 141
f 100 141 142
f 100 142 143
f 100 143 144
f 100 144 145
f 100 145 146
f 100 146 147
f 100 147 148
f 100 148 105
f 100 105 149
f 100 149 150
f 100 150 151
f 100 151 152
f 100 152 137
f 101 136 138
f 102 114 112
f 102 153 154
f 102 154 155
f 102 155 114
f 103 110 109
f 103 109 153
f 104 137 105
f 105 137 149
f 105 148 156
f 105 156 157
f 105 157 158
f 105 158 159
f 105 159 160
f 105 160 161
f 105 161 162
f 105 162 163
f 105 163 164
f 105 164 165
f 105 165 166
f 105 166 167
f 105 167 168
f 105 168 169
f 105 169 170
f 106 170 171
f 106 171 172
f 106 172 173
f 106 173 107
f 107 173 174
f 107 174 175
f 107 175 108
f 108 175 109
f 109 175 153
f 112 114 113
f 114 155 115
f 115 155 154
f 115 154 176
f 115 176 117
f 115 117 116
f 117 177 178
f 117 178 179
f 117 179 118
f 117 176 177
f 118 179 180
f 118 180 122
f 118 122 119
f 119 122 121
f 119 121 120
f 122 180 181
f 122 181 124
f 122 124 123
f 124 181 182
f 124 182 125
f 125 182 126
f 126 182 183
f 126 183 127
f 127 183 184
f 127 184 128
f 128 184 185
f 128 185 129
f 129 185 130
f 130 186 187
f 130 187 131
f 130 185 186
f 131 187 188
f 131 188 189
f 131 189 132
f 132 190 133
f 132 189 188
f 132 188 191
f 132 191 190
f 133 190 192
f 133 192 193
f 133 193 134
f 134 193 194
f 134 194 136
f 134 136 135
f 136 194 195
f 136 195 140
f 136 140 196
f 136 196 138
f 137 152 151
f 137 151 150
f 137 150 149
f 138 196 139
f 139 196 140
f 140 195 197
f 140 197 141
f 141 197 198
f 141 198 199
f 141 199 145
f 141 145 144
f 141 144 143
f 141 143 142
f 145 199 200
f 145 200 146
f 146 200 201
f 146 201 202
f 146 202 203
f 146 203 147
f 147 203 204
f 147 204 148
f 148 204 205
f 148 205 156
f 153 175 206
f 153 206 207
f 153 207 208
f 153 208 209
f 153 209 210
f 153 210 154
f 154 211 176
f 154 210 211
f 156 205 212
f 156 212 204
f 156 204 213
f 156 213 157
f 157 213 214
f 157 214 215
f 157 215 216
f 157 216 158
f 158 216 159
f 159 216 217
f 159 217 160
f 160 217 161
f 161 217 162
f 162 217 218
f 162 218 163
f 163 218 219
f 163 219 164
f 164 219 220
f 164 220 221
f 164 221 222
f 164 222 166
f 164 166 165
f 166 222 223
f 166 223 167
f 167 223 224
f 167 224 225
f 167 225 168
f 168 225 169
f 169 225 226
f 169 226 170
f 170 226 227
f 170 227 171
f 171 227 228
f 171 228 229
f 171 229 230
f 171 230 172
f 172 230 173
f 173 230 231
f 173 231 174
f 174 206 175
f 174 231 207
f 174 207 206
f 176 211 232
f 176 232 233
f 176 233 177
f 177 233 234
f 177 234 178
f 178 234 235
f 178 235 236
f 178 236 181
f 178 181 179
f 179 181 180
f 181 237 238
f 181 238 182
f 181 236 237
f 182 238 239
f 182 239 183
f 183 239 240
f 183 240 241
f 183 241 184
f 184 240 242
f 184 242 185
f 184 241 240
f 185 242 243
f 185 243 186
f 186 243 244
f 186 244 187
f 187 244 245
f 187 245 188
f 188 245 246
f 188 246 191
f 190 247 192
f 190 191 248
f 190 248 247
f 191 246 249
f 191 249 248
f 192 247 250
f 192 250 251
f 192 251 252
f 192 252 253
f 192 253 254
f 192 254 193
f 193 254 194
f 194 255 256
f 194 256 195
f 194 254 253
f 194 253 255
f 195 256 197
f 197 256 198
f 198 256 257
f 198 257 258
f 198 258 199
f 199 259 200
f 199 258 259
f 200 259 201
f 201 259 258
f 201 258 260
f 201 260 261
f 201 261 262
f 201 262 202
f 202 262 263
f 202 263 203
f 203 263 264
f 203 264 265
f 203 265 204
f 204 212 205
f 204 265 215
f 204 215 214
f 204 214 213
f 207 231 266
f 207 266 267
f 207 267 268
f 207 268 208
f 208 269 209
f 208 268 269
f 209 269 270
f 209 270 271
f 209 271 272
f 209 272 210
f 210 272 273
f 210 273 211
f 211 274 232
f 211 273 274
f 215 265 216
f 216 265 275
f 216 275 276
f 216 276 217
f 217 277 218
f 217 276 277
f 218 278 279
f 218 279 219
f 218 277 278
f 219 279 280
f 219 280 281
f 219 281 282
f 219 282 220
f 220 282 281
f 220 281 221
f 221 281 283
f 221 283 223
f 221 223 222
f 223 284 225
f 223 225 224
f 223 283 285
f 223 285 230
f 223 230 284
f 225 284 228
f 225 228 226
f 226 228 227
f 228 284 229
f 229 284 230
f 230 286 287
f 230 287 231
f 230 285 281
f 230 281 288
f 230 288 286
f 231 287 289
f 231 289 290
f 231 290 266
f 232 274 233
f 233 273 234
f 233 274 273
f 234 291 235
f 234 273 292
f 234 292 293
f 234 293 291
f 235 291 294
f 235 294 295
f 235 295 236
f 236 295 296
f 236 296 297
f 236 297 237
f 237 298 238
f 237 297 299
f 237 299 300
f 237 300 301
f 237 301 298
f 238 298 302
f 238 302 239
f 239 302 240
f 240 302 242
f 242 302 244
f 242 244 243
f 244 302 303
f 244 303 245
f 245 303 246
f 246 303 249
f 247 248 250
f 248 249 250
f 249 303 250
f 250 304 305
f 250 305 251
f 250 303 306
f 250 306 304
f 251 305 307
f 251 307 308
f 251 308 309
f 251 309 310
f 251 310 252
f 252 310 253
f 253 258 257
f 253 257 255
f 253 310 309
f 253 309 311
f 253 311 312
f 253 312 258
f 255 257 256
f 258 312 313
f 258 313 260
f 260 313 261
f 261 313 314
f 261 314 262
f 262 315 263
f 262 314 315
f 263 315 316
f 263 316 317
f 263 317 264
f 264 317 318
f 264 318 265
f 265 318 275
f 266 290 267
f 267 319 271
f 267 271 270
f 267 270 268
f 267 290 319
f 268 270 269
f 271 320 272
f 271 319 320
f 272 320 321
f 272 321 292
f 272 292 273
f 275 318 276
f 276 318 277
f 277 318 322
f 277 322 279
f 277 279 278
f 279 323 324
f 279 324 280
f 279 322 325
f 279 325 323
f 280 324 281
f 281 285 283
f 281 324 326
f 281 326 327
f 281 327 328
f 281 328 288
f 286 329 287
f 286 288 330
f 286 330 328
f 286 328 331
f 286 331 329
f 287 329 332
f 287 332 319
f 287 319 289
f 288 328 330
f 289 319 290
f 291 293 333
f 291 333 294
f 292 321 293
f 293 321 333
f 294 333 295
f 295 333 334
f 295 334 296
f 296 334 300
f 296 300 299
f 296 299 297
f 298 301 302
f 300 334 333
f 300 333 321
f 300 321 335
f 300 335 336
f 300 336 319
f 300 319 337
f 300 337 301
f 301 337 303
f 301 303 302
f 303 337 319
f 303 319 306
f 304 338 305
f 304 306 339
f 304 339 338
f 305 338 340
f 305 340 307
f 306 341 339
f 306 319 342
f 306 342 343
f 306 343 341
f 307 344 309
f 307 309 308
f 307 340 315
f 307 315 314
f 307 314 344
f 309 344 311
f 311 344 312
f 312 314 313
f 312 344 314
f 315 340 345
f 315 345 316
f 316 345 317
f 317 345 346
f 317 346 347
f 317 347 322
f 317 322 318
f 319 332 329
f 319 329 342
f 319 336 335
f 319 335 348
f 319 348 320
f 320 348 321
f 321 348 335
f 322 347 325
f 323 325 349
f 323 349 328
f 323 328 327
f 323 327 326
f 323 326 324
f 325 347 350
f 325 350 349
f 328 349 331
f 329 331 342
f 331 349 351
f 331 351 352
f 331 352 353
f 331 353 342
f 338 339 351
f 338 351 354
f 338 354 346
f 338 346 345
f 338 345 340
f 339 341 355
f 339 355 351
f 341 352 355
f 341 343 353
f 341 353 352
f 342 353 343
f 346 354 356
f 346 356 351
f 346 351 347
f 347 351 350
f 349 350 351
f 351 356 354
f 351 355 352

