# https://github.com/mikedh/trimesh
v -0.05821061 0.00200921 0.00003354
v -0.05925410 0.00482108 0.06226661
v -0.06081657 0.00482108 0.06188868
v -0.06153536 0.00482108 0.06162413
v -0.06166302 0.00482108 0.06157373
v -0.06282031 0.00482108 0.06042734
v -0.06293132 0.00482108 0.06031395
v -0.06411635 0.00482108 0.05887781
v -0.06441885 0.00482108 0.05814714
v -0.06488787 0.00482108 0.05686216
v -0.06520148 0.00482108 0.05577875
v -0.06540407 0.00482108 0.05503548
v -0.05920415 0.00217531 0.00003354
v -0.05950943 0.00295836 -0.04429807
v -0.05821061 0.00278040 -0.04429807
v -0.04557486 0.00860583 -0.05751316
v -0.05925410 0.00543803 0.06260675
v -0.06081657 0.00550328 0.06230441
v -0.03772920 0.05914825 -0.05848318
v -0.06208209 0.00556260 0.06177530
v -0.06287303 0.00603125 0.06154854
v -0.06248728 0.00515328 0.06114541
v -0.06331985 0.00562786 0.06066669
v -0.06376944 0.00523633 0.05974706
v -0.06411357 0.00610837 0.06017538
v -0.06430229 0.00560413 0.05938172
v -0.06495726 0.00559820 0.05809674
v -0.06520980 0.00522447 0.05686216
v -0.06533469 0.00497532 0.05589213
v -0.06540685 0.00482701 0.05503548
v -0.06541240 0.00482108 0.05492211
v -0.06212649 0.00299396 -0.00067194
v -0.06212649 0.00297023 -0.00326708
v -0.06212649 0.00295836 -0.00587482
v -0.06212649 0.00303548 -0.01765375
v -0.06081657 0.00296430 -0.03073026
v -0.06081657 0.00298803 -0.03202783
v -0.06386658 0.00359311 -0.02940749
v -0.06081657 0.00324904 -0.04429807
v -0.06343086 0.00502277 -0.06072559
v -0.06018381 0.00502277 -0.06072559
v -0.06074719 0.00861769 -0.06420258
v -0.03772920 0.06042960 -0.06121691
v -0.03772920 0.05914825 -0.05971777
v -0.05925410 0.00590074 0.06275792
v -0.05957048 0.00553294 0.06258156
v -0.06081657 0.00651769 0.06265715
v -0.06149651 0.00742532 0.06275792
v -0.06200993 0.00691515 0.06234220
v -0.03772920 0.06042367 -0.05864695
v -0.05925410 0.01191600 0.06314846
v -0.05925410 0.00968549 0.06306028
v -0.05925410 0.00812532 0.06299729
v -0.05925410 0.00674905 0.06289650
v -0.05925410 0.00614396 0.06282092
v -0.06297295 0.00681430 0.06167452
v -0.06301457 0.00812532 0.06173750
v -0.06413023 0.00681430 0.06020058
v -0.06457982 0.00681430 0.05948250
v -0.06541517 0.00609650 0.05761803
v -0.06548456 0.00588294 0.05686216
v -0.06550398 0.00544989 0.05550160
v -0.06543738 0.00482108 0.05433001
v -0.06547623 0.00482108 0.05308282
v -0.06551230 0.00482108 0.05184824
v -0.06310616 0.00339142 -0.00067194
v -0.06311171 0.00337362 -0.00326708
v -0.06397204 0.00357532 -0.02547698
v -0.06397759 0.00356938 -0.02678715
v -0.06332541 0.00342701 -0.02678715
v -0.06474078 0.00422786 -0.03333800
v -0.06444938 0.00443548 -0.04429807
v -0.06343364 0.00389565 -0.04429807
v -0.06380275 0.00361091 -0.03073026
v -0.06366121 0.00364057 -0.03333800
v -0.06178236 0.00346854 -0.04429807
v -0.06358628 0.00502277 -0.05994453
v -0.06383883 0.00528379 -0.05950360
v -0.06379997 0.00562193 -0.06072559
v -0.06323937 0.00861769 -0.06315696
v -0.06258996 0.00861769 -0.06357269
v -0.06219032 0.00861769 -0.06382464
v -0.06153814 0.00861769 -0.06408920
v -0.06081935 0.00861769 -0.06420258
v -0.05683408 0.05912452 -0.06555054
v -0.05569344 0.05912452 -0.06551275
v -0.05472488 0.05912452 -0.06542456
v -0.05427529 0.05912452 -0.06537418
v -0.05285158 0.05912452 -0.06521040
v -0.05147228 0.05912452 -0.06502144
v -0.03772920 0.06206689 -0.06121691
v -0.06151871 0.00812532 0.06277052
v -0.06217367 0.00812532 0.06239259
v -0.06081657 0.00717616 0.06280832
v -0.06081657 0.00812532 0.06289650
v -0.06088873 0.01191600 0.06298469
v -0.03772920 0.06112960 -0.05882332
v -0.06333650 0.06146774 0.06185089
v -0.06333650 0.06041181 0.06215323
v -0.05950943 0.01191600 0.06313586
v -0.05950943 0.00942447 0.06304768
v -0.05950943 0.00812532 0.06299729
v -0.05957048 0.00673125 0.06288391
v -0.06343364 0.06041181 0.06209024
v -0.06405530 0.04994739 0.06142256
v -0.06366954 0.00812532 0.06085566
v -0.06225971 0.01191600 0.06237999
v -0.06519038 0.00681430 0.05827311
v -0.06444383 0.04994739 0.06076748
v -0.06542072 0.00681430 0.05763063
v -0.06561777 0.00812532 0.05686216
v -0.06555949 0.00681430 0.05686216
v -0.06563720 0.00681430 0.05555199
v -0.06554561 0.00550328 0.05425442
v -0.06557614 0.00550328 0.05293165
v -0.06554283 0.00482108 0.05032391
v -0.06557891 0.00482108 0.04674614
v -0.06559279 0.00482108 0.04250068
v -0.06474078 0.00415667 -0.02678715
v -0.06474078 0.00415667 -0.02810992
v -0.06474078 0.00418633 -0.03202783
v -0.06542072 0.00477955 -0.03333800
v -0.06540685 0.00481515 -0.03434582
v -0.06429674 0.00502277 -0.05426293
v -0.06420239 0.00502277 -0.05543452
v -0.06409970 0.00502277 -0.05626597
v -0.06419129 0.00594227 -0.05950360
v -0.06413855 0.00605498 -0.06030987
v -0.06419961 0.00678464 -0.06072559
v -0.06389156 0.00861769 -0.06237590
v -0.06348359 0.00861769 -0.06290501
v -0.06327545 0.00943634 -0.06316956
v -0.06225416 0.01073549 -0.06384984
v -0.06159919 0.01073549 -0.06410180
v -0.06097754 0.05649655 -0.06492065
v -0.05947612 0.05912452 -0.06528599
v -0.05844650 0.05912452 -0.06550015
v -0.05821338 0.05912452 -0.06552535
v -0.05821338 0.05921943 -0.06551275
v -0.05778876 0.05980079 -0.06539937
v -0.05682852 0.05923723 -0.06552535
v -0.05721984 0.05980079 -0.06539937
v -0.05634563 0.05975333 -0.06537418
v -0.05147228 0.06042367 -0.06471909
v -0.05147228 0.06130757 -0.06430337
v -0.05147228 0.06172283 -0.06356009
v -0.05147228 0.06179401 -0.06342152
v -0.03818712 0.06208469 -0.06121691
v -0.03858676 0.06211435 -0.06081378
v -0.03772920 0.06207876 -0.06081378
v -0.06160752 0.01191600 0.06283351
v -0.06167135 0.01191600 0.06279572
v -0.06081657 0.01191600 0.06299729
v -0.03772920 0.06167537 -0.05950360
v -0.06333650 0.06153893 0.06176270
v -0.06343364 0.06143215 0.06182569
v -0.06413578 0.06115333 0.06149815
v -0.06527918 0.04341010 0.05860065
v -0.06549565 0.03037110 0.05781959
v -0.06451599 0.06041181 0.06078008
v -0.06547346 0.02121770 0.05771881
v -0.06548456 0.04341010 0.05795817
v -0.06559001 0.05780164 0.05686216
v -0.06572045 0.00942447 0.05555199
v -0.06569825 0.00812532 0.05555199
v -0.06564551 0.00549735 0.04901374
v -0.06542905 0.00476176 -0.03202783
v -0.06600352 0.05388044 -0.00978014
v -0.06570935 0.05649062 -0.05294015
v -0.06568715 0.05649062 -0.05426293
v -0.06454374 0.00943634 -0.05950360
v -0.06449656 0.00811939 -0.05950360
v -0.06437723 0.00681430 -0.05950360
v -0.06441330 0.00550328 -0.05426293
v -0.06421071 0.00686769 -0.06072559
v -0.06419129 0.00861769 -0.06172082
v -0.06393041 0.00943634 -0.06248928
v -0.06329765 0.01073549 -0.06319476
v -0.06395261 0.01073549 -0.06252708
v -0.06278145 0.04404484 -0.06407660
v -0.06097754 0.05667452 -0.06492065
v -0.06097754 0.05797367 -0.06489546
v -0.06081657 0.05912452 -0.06487026
v -0.06081657 0.06042367 -0.06471909
v -0.05865742 0.05971774 -0.06534898
v -0.06081657 0.06136096 -0.06434115
v -0.05821338 0.06031096 -0.06509702
v -0.05682852 0.06031096 -0.06510962
v -0.05427529 0.06134910 -0.06436635
v -0.05689513 0.06191266 -0.06342152
v -0.05689513 0.06226859 -0.06230031
v -0.05481091 0.06239316 -0.06150666
v -0.04964616 0.06239316 -0.05889891
v -0.04964616 0.06239316 -0.05877294
v -0.06212649 0.06261266 0.03332949
v -0.06212649 0.06257706 0.04223613
v -0.06081935 0.06251774 0.04223613
v -0.06009778 0.06242283 0.04223613
v -0.06333650 0.06229232 0.05984784
v -0.06333650 0.06210842 0.06078008
v -0.06333650 0.06209062 0.06081786
v -0.06337536 0.06207876 0.06080527
v -0.06432450 0.06137876 0.06078008
v -0.06500721 0.06041181 0.05948250
v -0.06546513 0.05649062 0.05795817
v -0.06546513 0.05780164 0.05794557
v -0.06546513 0.05910672 0.05790778
v -0.06557891 0.05910672 0.05686216
v -0.06565662 0.05910672 0.05555199
v -0.06566494 0.05780164 0.05555199
v -0.06570380 0.05910672 0.05425442
v -0.06608123 0.05780164 0.02287333
v -0.06598688 0.05519146 -0.00978014
v -0.06571212 0.05780164 -0.05294015
v -0.06569825 0.05780164 -0.05426293
v -0.06560667 0.05780164 -0.05556050
v -0.06559001 0.05649062 -0.05556050
v -0.06447436 0.01073549 -0.06080118
v -0.06444383 0.00943634 -0.06080118
v -0.06436613 0.00811939 -0.06072559
v -0.06423014 0.00943634 -0.06182160
v -0.06438833 0.00861769 -0.06080118
v -0.06424956 0.01073549 -0.06187199
v -0.06398592 0.01335753 -0.06256487
v -0.06333928 0.01466261 -0.06320736
v -0.06278145 0.04406857 -0.06407660
v -0.06409970 0.04397366 -0.06276644
v -0.06195165 0.05912452 -0.06439155
v -0.06199050 0.06042367 -0.06435375
v -0.06182954 0.06126605 -0.06424037
v -0.05950387 0.06136689 -0.06437895
v -0.06081657 0.06188299 -0.06342152
v -0.05820228 0.06137876 -0.06439155
v -0.05689513 0.06137283 -0.06439155
v -0.05820228 0.06192452 -0.06342152
v -0.05820228 0.06228045 -0.06231291
v -0.05689513 0.06240503 -0.06164523
v -0.06081657 0.06248215 -0.05950360
v -0.06212649 0.06256520 -0.02027409
v -0.06295907 0.06248808 -0.02027409
v -0.06320329 0.06249994 0.03332949
v -0.06326435 0.06248808 0.04250068
v -0.06324214 0.06248808 0.04379826
v -0.06333650 0.06245842 0.05404026
v -0.06333650 0.06245249 0.05533783
v -0.06333650 0.06241689 0.05686216
v -0.06333650 0.06234571 0.05880222
v -0.06380830 0.06231011 0.05686216
v -0.06361681 0.06221520 0.05948250
v -0.06457149 0.06155672 0.05948250
v -0.06541795 0.06111774 0.05771881
v -0.06544570 0.06041181 0.05786999
v -0.06554561 0.06041181 0.05686216
v -0.06562887 0.06041181 0.05555199
v -0.06568159 0.06041181 0.05425442
v -0.06572045 0.06041181 0.05163408
v -0.06598688 0.05911265 0.02287333
v -0.06553173 0.05901774 -0.05426293
v -0.06549288 0.05894655 -0.05556050
v -0.06544015 0.05873299 -0.05654313
v -0.06546791 0.05780164 -0.05669430
v -0.06424679 0.01335753 -0.06192238
v -0.06264824 0.06042367 -0.06397582
v -0.06409970 0.04416349 -0.06276644
v -0.06457982 0.05517960 -0.06080118
v -0.06304788 0.06133130 -0.06315696
v -0.06220975 0.06154486 -0.06352230
v -0.05950387 0.06190672 -0.06342152
v -0.06199605 0.06213808 -0.06199797
v -0.06147430 0.06238723 -0.06146886
v -0.06081657 0.06225672 -0.06222473
v -0.05950387 0.06226859 -0.06227512
v -0.06081657 0.06239910 -0.06156965
v -0.05820228 0.06240503 -0.06165783
v -0.06081657 0.06244655 -0.06081378
v -0.05950387 0.06244062 -0.06081378
v -0.06157699 0.06241096 -0.06081378
v -0.06173241 0.06243469 -0.05950360
v -0.06225138 0.06243469 -0.05427553
v -0.06212649 0.06249994 -0.03986365
v -0.06287303 0.06243469 -0.03986365
v -0.06395261 0.06233977 0.04641860
v -0.06389156 0.06232198 0.05425442
v -0.06387213 0.06231605 0.05555199
v -0.06474078 0.06192452 0.05425442
v -0.06474078 0.06188299 0.05555199
v -0.06474078 0.06178808 0.05686216
v -0.06545958 0.06120672 0.05686216
v -0.06550675 0.06129571 0.05555199
v -0.06552896 0.06133130 0.05425442
v -0.06555671 0.06138469 0.05163408
v -0.06572323 0.06041181 0.05032391
v -0.06555671 0.06136689 0.05032391
v -0.06566217 0.06041774 0.02287333
v -0.06532359 0.05967621 -0.05426293
v -0.06530416 0.05959909 -0.05556050
v -0.06460480 0.06042367 -0.05950360
v -0.06411080 0.06112960 -0.06153185
v -0.06436335 0.06042367 -0.06081378
v -0.06477964 0.05912452 -0.05950360
v -0.06452432 0.05779570 -0.06080118
v -0.06456040 0.05649655 -0.06080118
v -0.06318109 0.06042367 -0.06332073
v -0.06425234 0.05387451 -0.06187199
v -0.06424124 0.05517960 -0.06184680
v -0.06394151 0.05517960 -0.06250188
v -0.06346417 0.06143808 -0.06203576
v -0.06342809 0.06169316 -0.06081378
v -0.06223473 0.06220927 -0.06081378
v -0.06239014 0.06225079 -0.05950360
v -0.06273982 0.06237537 -0.05608960
v -0.06278701 0.06238130 -0.05522036
v -0.06474078 0.06197198 0.05163408
v -0.06474078 0.06196605 0.05244034
v -0.06474078 0.06196011 0.05293165
v -0.06554561 0.06137283 0.05244034
v -0.06433005 0.06131943 -0.05687067
v -0.06540130 0.06108215 0.02181511
v -0.06489898 0.06041181 -0.05556050
v -0.06426622 0.06128977 -0.05950360
v -0.06418296 0.06121859 -0.06081378
v -0.06383328 0.06042367 -0.06223733
v -0.06413578 0.06042367 -0.06158224
v -0.06447158 0.05912452 -0.06081378
v -0.06422181 0.05649655 -0.06179640
v -0.06392209 0.05649655 -0.06246408
v -0.06342809 0.06181181 -0.05950360
v -0.06342809 0.06190672 -0.05767693
v -0.06343364 0.06194232 -0.05687067
v -0.06330598 0.06205503 -0.05561089
v -0.06344474 0.06197791 -0.05426293
v -0.06431895 0.06131943 -0.05767693
v -0.06431339 0.06131350 -0.05819344
f 1 2 3
f 1 3 4
f 1 4 5
f 1 5 6
f 1 6 7
f 1 7 8
f 1 8 9
f 1 9 10
f 1 10 11
f 1 11 12
f 1 12 13
f 1 13 14
f 1 14 15
f 1 15 16
f 1 16 2
f 2 17 18
f 2 18 3
f 2 16 19
f 2 19 17
f 3 18 4
f 4 18 5
f 5 18 20
f 5 20 21
f 5 21 22
f 5 22 6
f 6 22 7
f 7 22 23
f 7 23 24
f 7 24 8
f 8 24 25
f 8 25 26
f 8 26 27
f 8 27 9
f 9 27 28
f 9 28 10
f 10 28 29
f 10 29 11
f 11 29 12
f 12 30 31
f 12 31 13
f 12 29 30
f 13 32 33
f 13 33 34
f 13 34 35
f 13 35 36
f 13 36 14
f 13 31 32
f 14 36 37
f 14 37 38
f 14 38 39
f 14 39 40
f 14 40 15
f 15 40 41
f 15 41 16
f 16 41 42
f 16 42 43
f 16 43 44
f 16 44 19
f 17 45 46
f 17 46 18
f 17 19 45
f 18 46 47
f 18 47 48
f 18 48 49
f 18 49 20
f 19 44 43
f 19 43 91
f 19 91 150
f 19 150 154
f 19 154 97
f 19 97 50
f 19 50 51
f 19 51 52
f 19 52 53
f 19 53 54
f 19 54 55
f 19 55 45
f 20 49 21
f 21 49 56
f 21 56 25
f 21 25 23
f 21 23 22
f 23 25 24
f 25 56 57
f 25 57 58
f 25 58 59
f 25 59 60
f 25 60 27
f 25 27 26
f 27 60 28
f 28 60 29
f 29 60 61
f 29 61 30
f 30 61 62
f 30 62 31
f 31 62 63
f 31 63 32
f 32 63 64
f 32 64 65
f 32 65 33
f 33 65 66
f 33 66 67
f 33 67 68
f 33 68 69
f 33 69 34
f 34 69 35
f 35 69 70
f 35 70 36
f 36 70 37
f 37 70 38
f 38 70 69
f 38 69 71
f 38 71 72
f 38 72 73
f 38 73 74
f 38 74 75
f 38 75 76
f 38 76 39
f 39 76 40
f 40 76 73
f 40 73 77
f 40 77 78
f 40 78 79
f 40 79 80
f 40 80 81
f 40 81 82
f 40 82 83
f 40 83 84
f 40 84 42
f 40 42 41
f 42 84 85
f 42 85 86
f 42 86 87
f 42 87 88
f 42 88 89
f 42 89 90
f 42 90 43
f 43 90 91
f 45 55 47
f 45 47 46
f 47 55 48
f 48 92 93
f 48 93 49
f 48 55 94
f 48 94 95
f 48 95 96
f 48 96 92
f 49 93 56
f 50 97 51
f 51 98 99
f 51 99 100
f 51 100 101
f 51 101 102
f 51 102 52
f 51 97 98
f 52 102 53
f 53 102 54
f 54 102 103
f 54 103 55
f 55 103 94
f 56 93 57
f 57 104 105
f 57 105 106
f 57 106 58
f 57 93 107
f 57 107 104
f 58 106 105
f 58 105 59
f 59 108 60
f 59 105 109
f 59 109 108
f 60 108 110
f 60 110 111
f 60 111 112
f 60 112 61
f 61 112 113
f 61 113 62
f 62 113 114
f 62 114 65
f 62 65 64
f 62 64 63
f 65 114 115
f 65 115 116
f 65 116 66
f 66 116 67
f 67 116 68
f 68 116 69
f 69 116 117
f 69 117 118
f 69 118 119
f 69 119 120
f 69 120 121
f 69 121 71
f 71 121 122
f 71 122 72
f 72 122 123
f 72 123 124
f 72 124 125
f 72 125 73
f 73 76 75
f 73 75 74
f 73 125 126
f 73 126 77
f 77 126 78
f 78 127 128
f 78 128 79
f 78 126 127
f 79 128 129
f 79 129 130
f 79 130 131
f 79 131 80
f 80 131 132
f 80 132 81
f 81 132 82
f 82 132 133
f 82 133 83
f 83 133 134
f 83 134 135
f 83 135 136
f 83 136 137
f 83 137 84
f 84 137 138
f 84 138 85
f 85 138 139
f 85 139 140
f 85 140 142
f 85 142 141
f 85 141 86
f 86 141 142
f 86 142 143
f 86 143 87
f 87 143 144
f 87 144 88
f 88 144 89
f 89 144 90
f 90 144 91
f 91 144 145
f 91 145 146
f 91 146 147
f 91 147 148
f 91 148 149
f 91 149 150
f 92 96 151
f 92 151 93
f 93 151 152
f 93 152 107
f 94 103 95
f 95 103 102
f 95 102 101
f 95 101 100
f 95 100 153
f 95 153 96
f 96 153 99
f 96 99 151
f 97 154 155
f 97 155 98
f 98 155 156
f 98 156 99
f 99 156 157
f 99 157 104
f 99 104 152
f 99 152 151
f 99 153 100
f 104 157 105
f 104 107 152
f 105 157 109
f 108 158 159
f 108 159 110
f 108 109 160
f 108 160 158
f 109 157 160
f 110 159 161
f 110 161 111
f 111 161 159
f 111 159 162
f 111 162 163
f 111 163 164
f 111 164 165
f 111 165 112
f 112 165 113
f 113 165 166
f 113 166 115
f 113 115 114
f 115 166 116
f 116 166 117
f 117 166 118
f 118 166 167
f 118 167 120
f 118 120 119
f 120 167 121
f 121 167 122
f 122 167 168
f 122 168 169
f 122 169 123
f 123 169 170
f 123 170 171
f 123 171 172
f 123 172 173
f 123 173 174
f 123 174 124
f 124 174 127
f 124 127 125
f 125 127 126
f 127 173 128
f 127 174 173
f 128 173 129
f 129 173 175
f 129 175 176
f 129 176 130
f 130 177 131
f 130 176 177
f 131 177 132
f 132 178 133
f 132 177 179
f 132 179 178
f 133 180 134
f 133 178 180
f 134 180 135
f 135 181 136
f 135 180 226
f 135 226 181
f 136 181 182
f 136 182 183
f 136 183 184
f 136 184 185
f 136 185 137
f 137 185 139
f 137 139 138
f 139 185 140
f 140 185 186
f 140 186 187
f 140 187 188
f 140 188 142
f 142 188 145
f 142 145 143
f 143 145 144
f 145 189 146
f 145 188 189
f 146 189 190
f 146 190 147
f 147 190 191
f 147 191 148
f 148 191 192
f 148 192 149
f 149 192 193
f 149 193 194
f 149 194 195
f 149 195 196
f 149 196 150
f 150 196 197
f 150 197 198
f 150 198 199
f 150 199 200
f 150 200 154
f 154 200 201
f 154 201 155
f 155 201 202
f 155 202 157
f 155 157 156
f 157 202 203
f 157 203 204
f 157 204 160
f 158 160 204
f 158 204 162
f 158 162 159
f 162 204 205
f 162 205 206
f 162 206 163
f 163 206 207
f 163 207 208
f 163 208 209
f 163 209 210
f 163 210 164
f 164 210 211
f 164 211 212
f 164 212 168
f 164 168 167
f 164 167 166
f 164 166 165
f 168 212 213
f 168 213 214
f 168 214 169
f 169 214 215
f 169 215 170
f 170 215 216
f 170 216 217
f 170 217 218
f 170 218 171
f 171 218 219
f 171 219 172
f 172 219 220
f 172 220 173
f 173 220 175
f 175 220 176
f 176 221 177
f 176 220 222
f 176 222 221
f 177 221 223
f 177 223 179
f 178 179 224
f 178 224 225
f 178 225 180
f 179 223 224
f 180 225 224
f 180 224 227
f 180 227 264
f 180 264 226
f 181 226 228
f 181 228 229
f 181 229 182
f 182 229 183
f 183 229 184
f 184 229 230
f 184 230 185
f 185 230 186
f 186 231 187
f 186 230 232
f 186 232 231
f 187 231 233
f 187 233 188
f 188 233 234
f 188 234 189
f 189 234 190
f 190 234 235
f 190 235 236
f 190 236 191
f 191 236 237
f 191 237 192
f 192 237 238
f 192 238 193
f 193 238 239
f 193 239 195
f 193 195 194
f 195 239 240
f 195 240 241
f 195 241 242
f 195 242 243
f 195 243 244
f 195 244 196
f 196 244 245
f 196 245 197
f 197 245 246
f 197 246 198
f 198 246 247
f 198 247 199
f 199 247 248
f 199 248 249
f 199 249 200
f 200 249 202
f 200 202 201
f 202 249 250
f 202 250 203
f 203 250 251
f 203 251 204
f 204 251 252
f 204 252 207
f 204 207 206
f 204 206 205
f 207 252 208
f 208 252 253
f 208 253 254
f 208 254 209
f 209 254 255
f 209 255 211
f 209 211 210
f 211 255 256
f 211 256 212
f 212 256 257
f 212 257 214
f 212 214 213
f 214 258 215
f 214 257 258
f 215 258 259
f 215 259 216
f 216 259 260
f 216 260 261
f 216 261 218
f 216 218 217
f 218 261 262
f 218 262 223
f 218 223 221
f 218 221 219
f 219 222 220
f 219 221 222
f 223 262 224
f 224 262 227
f 226 263 228
f 226 264 263
f 227 262 265
f 227 265 264
f 228 263 229
f 229 263 230
f 230 263 266
f 230 266 267
f 230 267 232
f 231 232 268
f 231 268 233
f 232 269 270
f 232 270 271
f 232 271 272
f 232 272 236
f 232 236 268
f 232 267 269
f 233 268 235
f 233 235 234
f 235 268 236
f 236 272 273
f 236 273 274
f 236 274 237
f 237 274 275
f 237 275 276
f 237 276 238
f 238 276 275
f 238 275 277
f 238 277 278
f 238 278 279
f 238 279 280
f 238 280 239
f 239 280 281
f 239 281 240
f 240 281 282
f 240 282 241
f 241 282 242
f 242 282 244
f 242 244 243
f 244 282 283
f 244 283 245
f 245 283 284
f 245 284 248
f 245 248 246
f 246 248 247
f 248 284 285
f 248 285 286
f 248 286 287
f 248 287 249
f 249 287 250
f 250 287 288
f 250 288 251
f 251 288 254
f 251 254 253
f 251 253 252
f 254 288 289
f 254 289 255
f 255 290 256
f 255 289 290
f 256 290 291
f 256 291 292
f 256 292 257
f 257 292 291
f 257 291 293
f 257 293 294
f 257 294 258
f 258 294 295
f 258 295 296
f 258 296 259
f 259 296 260
f 260 296 297
f 260 297 298
f 260 298 299
f 260 299 300
f 260 300 261
f 261 300 301
f 261 301 302
f 261 302 265
f 261 265 262
f 263 264 303
f 263 303 266
f 264 304 305
f 264 305 306
f 264 306 303
f 264 265 304
f 265 302 304
f 266 303 298
f 266 298 307
f 266 307 269
f 266 269 267
f 269 307 308
f 269 308 309
f 269 309 270
f 270 273 271
f 270 309 277
f 270 277 275
f 270 275 273
f 271 273 272
f 273 275 274
f 277 309 310
f 277 310 311
f 277 311 278
f 278 311 312
f 278 312 279
f 279 312 281
f 279 281 280
f 281 313 282
f 281 312 313
f 282 313 283
f 283 313 314
f 283 314 284
f 284 314 315
f 284 315 285
f 285 315 316
f 285 316 290
f 285 290 286
f 286 289 287
f 286 290 289
f 287 289 288
f 290 316 291
f 291 316 315
f 291 315 314
f 291 314 313
f 291 313 317
f 291 317 293
f 293 318 295
f 293 295 294
f 293 317 318
f 295 319 296
f 295 318 319
f 296 319 320
f 296 320 321
f 296 321 297
f 297 321 298
f 298 303 322
f 298 322 323
f 298 323 324
f 298 324 299
f 298 321 308
f 298 308 307
f 299 324 300
f 300 324 301
f 301 324 325
f 301 325 302
f 302 325 305
f 302 305 304
f 303 306 326
f 303 326 322
f 305 325 326
f 305 326 306
f 308 321 320
f 308 320 327
f 308 327 309
f 309 327 310
f 310 327 311
f 311 328 329
f 311 329 312
f 311 327 328
f 312 329 330
f 312 330 313
f 313 330 331
f 313 331 317
f 317 332 319
f 317 319 318
f 317 331 332
f 319 332 333
f 319 333 320
f 320 333 329
f 320 329 328
f 320 328 327
f 322 326 323
f 323 326 325
f 323 325 324
f 329 333 330
f 330 333 332
f 330 332 331

