# https://github.com/mikedh/trimesh
v -0.03857581 0.06209637 -0.06122021
v -0.03988644 0.06205725 -0.06212866
v -0.04772504 0.06206843 -0.06212866
v -0.05146791 0.06205725 -0.06122021
v -0.03771885 0.06207960 -0.06081963
v 0.00850622 0.06188963 -0.06082215
v -0.04903568 0.06178906 -0.06343517
v 0.00718298 0.06174995 -0.06212866
v -0.05146791 0.06178906 -0.06343517
v -0.05146791 0.06205167 -0.06212866
v -0.04754861 0.05914623 -0.05768953
v -0.03771885 0.06112416 -0.05882508
v -0.03771885 0.06166614 -0.05951228
v -0.06097001 0.05911829 -0.06481375
v -0.06097001 0.05911829 -0.06326756
v 0.00196565 0.06180582 -0.05951144
v 0.00326368 0.06180582 -0.05951144
v 0.01503419 0.06174995 -0.05951144
v 0.03725196 0.06156556 -0.05951144
v 0.03834836 0.06161026 -0.06060425
v 0.03855000 0.06161585 -0.06082215
v -0.05034631 0.06131972 -0.06431763
v -0.05146791 0.06172201 -0.06356255
v 0.05340805 0.06129737 -0.06199541
v 0.05340805 0.06097889 -0.06264824
v 0.05340805 0.06140353 -0.06143895
v -0.06439783 0.00860271 -0.06074253
v -0.04776285 0.02754396 -0.05753701
v 0.00065501 0.05519035 -0.05725375
v 0.00065501 0.05649780 -0.05729062
v 0.00196565 0.05780525 -0.05736521
v 0.00326368 0.05896184 -0.05748253
v 0.01764286 0.05981671 -0.05753449
v 0.00456171 0.06042015 -0.05785462
v 0.00196565 0.06142588 -0.05848148
v -0.03725257 0.06112975 -0.05882257
v 0.00326368 0.06142588 -0.05846807
v -0.06097001 0.05798405 -0.06491013
v -0.06418359 0.00860271 -0.06174902
v -0.06438522 0.00860271 -0.06082131
v -0.06080618 0.05911829 -0.06487744
v -0.06006265 0.05780525 -0.06532664
v 0.01503419 0.06138118 -0.05845383
v 0.03595393 0.06130854 -0.05853680
v 0.03725196 0.06129737 -0.05852841
v 0.04217945 0.06122473 -0.05858289
v 0.04217945 0.06145382 -0.05951144
v -0.05146791 0.06130296 -0.06430674
v -0.04903568 0.06130296 -0.06430674
v -0.05682387 0.05911829 -0.06555291
v -0.05810930 0.05911829 -0.06553112
v 0.06351506 0.05902889 -0.06204318
v 0.06279673 0.05902889 -0.06280412
v 0.06229264 0.05902889 -0.06308068
v 0.06220443 0.05902889 -0.06311503
v 0.06088119 0.05902889 -0.06352065
v 0.06079298 0.05902889 -0.06353657
v 0.05340805 0.06032516 -0.06315694
v 0.06380491 0.05902889 -0.06170126
v -0.06436002 0.00811102 -0.06082131
v -0.06436002 0.00811102 -0.06074253
v -0.04796449 0.00942406 -0.05753701
v -0.04806530 0.01073710 -0.05753701
v -0.04805270 0.01204454 -0.05753701
v 0.00196565 0.05519035 -0.05724956
v 0.00196565 0.05649780 -0.05728559
v -0.04777545 0.00860271 -0.05753701
v 0.02810273 0.05911270 -0.05741717
v 0.02810273 0.05986700 -0.05751606
v 0.00587235 0.06042015 -0.05784624
v 0.01764286 0.06047044 -0.05783451
v 0.03333266 0.06047602 -0.05784541
v -0.06080618 0.05780525 -0.06499142
v -0.06011306 0.05649780 -0.06535430
v -0.06080618 0.05649780 -0.06500818
v -0.06097001 0.05667660 -0.06492354
v -0.06323842 0.00860271 -0.06318543
v -0.06347786 0.00860271 -0.06292229
v -0.06389374 0.00860271 -0.06240354
v -0.06417098 0.00811102 -0.06169455
v -0.05947034 0.05911829 -0.06528893
v -0.05916789 0.05884451 -0.06547078
v -0.05940733 0.05780525 -0.06552693
v 0.03333266 0.06129737 -0.05849908
v 0.03856260 0.06048720 -0.05789653
v 0.04217945 0.06033075 -0.05788815
v -0.05819752 0.05911829 -0.06552861
v -0.05843696 0.05911829 -0.06550514
v -0.05688688 0.05780525 -0.06576745
v 0.05948234 0.05902889 -0.06360278
v 0.05688628 0.05701184 -0.06404024
v 0.06395614 0.05873276 -0.06170126
v 0.06296056 0.05779967 -0.06292815
v 0.06423339 0.05779967 -0.06170126
v 0.06360328 0.05779967 -0.06234068
v 0.06210361 0.05779967 -0.06331617
v 0.05883963 0.05583849 -0.06408801
v 0.06210361 0.05649222 -0.06340249
v 0.05819691 0.05607875 -0.06409890
v 0.04217945 0.05962115 -0.05756717
v -0.06412058 0.00733996 -0.06155376
v -0.06420879 0.00685945 -0.06074253
v -0.06419619 0.00678122 -0.06074253
v 0.03725196 0.05649780 -0.05735264
v 0.03595393 0.05780525 -0.05735264
v -0.04555746 0.00860271 -0.05753701
v -0.06379292 0.00561346 -0.06074253
v -0.06342745 0.00501561 -0.06074253
v 0.03856260 0.05911270 -0.05744901
v 0.03856260 0.05983347 -0.05752779
v 0.02941336 0.05986700 -0.05751354
v 0.01503419 0.06042015 -0.05781440
v -0.05944514 0.05649780 -0.06553950
v -0.06151191 0.00680357 -0.06410393
v -0.06217983 0.00860271 -0.06383911
v -0.06258310 0.00860271 -0.06359356
v -0.06216723 0.00811102 -0.06383324
v -0.06321321 0.00811102 -0.06317957
v -0.06386853 0.00811102 -0.06234823
v -0.05818491 0.05780525 -0.06571465
v -0.05818491 0.05649780 -0.06574482
v 0.03944476 0.05979436 -0.05753952
v -0.05688688 0.05649780 -0.06581103
v 0.05688628 0.05635812 -0.06411147
v 0.04217945 0.05909035 -0.05752360
v 0.06370410 0.05649222 -0.06242449
v 0.06303618 0.05649222 -0.06300441
v 0.06434681 0.05649222 -0.06170126
v 0.06429640 0.05649222 -0.06176997
v 0.04217945 0.05877746 -0.05750684
v 0.04217945 0.05780525 -0.05748086
v 0.04217945 0.05747560 -0.05747499
v 0.06210361 0.05518477 -0.06342930
v 0.06210361 0.05387732 -0.06343349
v 0.05883963 0.05582732 -0.06408801
v 0.05688628 0.05518477 -0.06412320
v 0.06304878 0.05518477 -0.06302704
v -0.06372991 0.00686504 -0.06204569
v -0.06279734 0.00501561 -0.06280412
v -0.06288555 0.00501561 -0.06261221
v -0.06316280 0.00537879 -0.06225269
v -0.06396935 0.00646833 -0.06120346
v 0.03856260 0.05649780 -0.05736102
v 0.03202203 0.04603263 -0.05744314
v 0.04217945 0.01724640 -0.05779429
v 0.03725196 0.05780525 -0.05736437
v -0.06017607 0.00501561 -0.06074253
v 0.03333266 0.00901059 -0.05787222
v 0.04217945 0.01588308 -0.05780937
v -0.06341485 0.00501561 -0.06080538
v -0.06327622 0.00501561 -0.06146157
v 0.03856260 0.05780525 -0.05737778
v 0.03987323 0.05780525 -0.05740376
v -0.06148670 0.00613309 -0.06409807
v -0.06215462 0.00680357 -0.06375865
v -0.06307459 0.00680357 -0.06310582
v -0.06291076 0.00573080 -0.06294994
v -0.05950815 0.00680357 -0.06430171
v -0.06080618 0.00680357 -0.06419612
v -0.03809692 0.00501561 -0.06464363
v -0.03826075 0.00501561 -0.06464363
v -0.03857581 0.00501561 -0.06464195
v -0.05688688 0.00549613 -0.06435115
v 0.06303618 0.04210469 -0.06301363
v 0.06303618 0.05387732 -0.06303710
v 0.06434681 0.05639164 -0.06170126
v 0.04217945 0.05649780 -0.05745907
v 0.06210361 0.04210469 -0.06334634
v 0.05809609 0.05530769 -0.06409890
v 0.06079298 0.00901059 -0.06317202
v -0.06260831 0.00501561 -0.06293653
v 0.03987323 0.05649780 -0.05738364
v 0.06304878 0.00901059 -0.06170126
v 0.04118387 0.05649780 -0.05742639
v -0.03771885 0.00501561 -0.06195099
v 0.04209123 0.00901059 -0.05801134
v 0.03595393 0.00901059 -0.05790323
v 0.03464330 0.00901059 -0.05788480
v 0.04217945 0.01444712 -0.05784876
v -0.06104563 0.00525587 -0.06391202
v -0.05950815 0.00549613 -0.06423299
v -0.06069276 0.00561346 -0.06413577
v -0.06028949 0.00501561 -0.06410226
v -0.06054154 0.00501561 -0.06401426
v -0.05819752 0.00549613 -0.06430590
v -0.03771885 0.00501561 -0.06463609
v -0.05624417 0.00501561 -0.06429919
v -0.05688688 0.00501561 -0.06428076
v 0.06298577 0.00901059 -0.06187138
v 0.06265811 0.00901059 -0.06231722
v 0.06249428 0.00901059 -0.06252589
v 0.06183896 0.00901059 -0.06298095
v 0.06398135 0.04238965 -0.06170126
v 0.04217945 0.00901059 -0.05801804
v -0.05950815 0.00501561 -0.06415505
v -0.05749179 0.00501561 -0.06425981
v -0.05819752 0.00501561 -0.06422712
f 1 2 3
f 1 3 4
f 1 4 5
f 1 5 6
f 1 6 2
f 2 7 3
f 2 6 8
f 2 8 7
f 3 7 9
f 3 9 10
f 3 10 4
f 4 11 12
f 4 12 13
f 4 13 5
f 4 10 14
f 4 14 15
f 4 15 11
f 5 16 17
f 5 17 6
f 5 13 16
f 6 17 18
f 6 18 19
f 6 19 20
f 6 20 21
f 6 21 8
f 7 22 23
f 7 23 9
f 7 8 24
f 7 24 25
f 7 25 22
f 8 21 26
f 8 26 24
f 9 23 14
f 9 14 10
f 11 15 27
f 11 27 28
f 11 28 29
f 11 29 30
f 11 30 31
f 11 31 32
f 11 32 33
f 11 33 34
f 11 34 35
f 11 35 12
f 12 35 36
f 12 36 13
f 13 36 35
f 13 35 37
f 13 37 16
f 14 38 39
f 14 39 40
f 14 40 27
f 14 27 15
f 14 23 41
f 14 41 42
f 14 42 38
f 16 37 17
f 17 37 43
f 17 43 18
f 18 43 44
f 18 44 45
f 18 45 19
f 19 45 46
f 19 46 47
f 19 47 26
f 19 26 20
f 20 26 21
f 22 48 23
f 22 25 49
f 22 49 50
f 22 50 51
f 22 51 48
f 23 48 41
f 24 26 52
f 24 52 53
f 24 53 54
f 24 54 25
f 25 54 55
f 25 55 56
f 25 56 57
f 25 57 58
f 25 58 49
f 26 47 46
f 26 46 59
f 26 59 52
f 27 40 60
f 27 60 61
f 27 61 62
f 27 62 63
f 27 63 64
f 27 64 28
f 28 64 29
f 29 65 66
f 29 66 30
f 29 64 63
f 29 63 62
f 29 62 67
f 29 67 65
f 30 66 31
f 31 66 68
f 31 68 32
f 32 68 33
f 33 68 69
f 33 69 70
f 33 70 34
f 34 70 37
f 34 37 35
f 37 70 71
f 37 71 72
f 37 72 43
f 38 42 73
f 38 73 74
f 38 74 75
f 38 75 76
f 38 76 77
f 38 77 78
f 38 78 79
f 38 79 39
f 39 79 80
f 39 80 40
f 40 80 60
f 41 48 81
f 41 81 82
f 41 82 42
f 42 74 73
f 42 82 83
f 42 83 74
f 43 72 84
f 43 84 45
f 43 45 44
f 45 84 72
f 45 72 85
f 45 85 46
f 46 86 59
f 46 85 86
f 48 51 87
f 48 87 88
f 48 88 81
f 49 58 50
f 50 89 51
f 50 58 90
f 50 90 91
f 50 91 89
f 51 89 87
f 52 59 92
f 52 92 53
f 53 93 54
f 53 92 94
f 53 94 95
f 53 95 93
f 54 96 55
f 54 93 96
f 55 96 56
f 56 97 57
f 56 96 98
f 56 98 97
f 57 97 99
f 57 99 91
f 57 91 90
f 57 90 58
f 59 86 100
f 59 100 92
f 60 80 101
f 60 101 102
f 60 102 61
f 61 102 62
f 62 102 103
f 62 103 67
f 65 104 105
f 65 105 66
f 65 67 106
f 65 106 104
f 66 105 68
f 67 103 107
f 67 107 108
f 67 108 147
f 67 147 106
f 68 105 109
f 68 109 110
f 68 110 111
f 68 111 69
f 69 112 70
f 69 111 112
f 70 112 71
f 71 112 111
f 71 111 72
f 72 111 110
f 72 110 85
f 74 83 113
f 74 113 114
f 74 114 115
f 74 115 75
f 75 115 76
f 76 115 116
f 76 116 77
f 77 116 117
f 77 117 118
f 77 118 78
f 78 118 79
f 79 118 119
f 79 119 80
f 80 119 101
f 81 88 82
f 82 88 120
f 82 120 83
f 83 120 121
f 83 121 113
f 85 110 86
f 86 110 122
f 86 122 100
f 87 89 120
f 87 120 88
f 89 123 120
f 89 91 124
f 89 124 123
f 91 99 124
f 92 100 125
f 92 125 94
f 93 95 126
f 93 126 127
f 93 127 96
f 94 128 129
f 94 129 126
f 94 126 95
f 94 125 130
f 94 130 131
f 94 131 132
f 94 132 128
f 96 127 98
f 97 98 133
f 97 133 134
f 97 134 135
f 97 135 136
f 97 136 99
f 98 127 137
f 98 137 133
f 99 136 123
f 99 123 124
f 100 122 110
f 100 110 109
f 100 109 125
f 101 103 102
f 101 119 138
f 101 138 139
f 101 139 140
f 101 140 141
f 101 141 142
f 101 142 103
f 103 142 107
f 104 143 105
f 104 106 144
f 104 144 145
f 104 145 143
f 105 143 146
f 105 146 109
f 106 147 148
f 106 148 149
f 106 149 145
f 106 145 144
f 107 150 108
f 107 142 141
f 107 141 140
f 107 140 151
f 107 151 150
f 108 150 151
f 108 151 140
f 108 140 139
f 108 139 171
f 108 171 184
f 108 184 183
f 108 183 195
f 108 195 197
f 108 197 196
f 108 196 188
f 108 188 187
f 108 187 162
f 108 162 161
f 108 161 160
f 108 160 186
f 108 186 175
f 108 175 147
f 109 146 152
f 109 152 153
f 109 153 125
f 113 121 154
f 113 154 114
f 114 154 117
f 114 117 115
f 115 117 116
f 117 155 118
f 117 154 155
f 118 155 156
f 118 156 119
f 119 156 157
f 119 157 138
f 120 123 121
f 121 123 158
f 121 158 159
f 121 159 154
f 123 160 161
f 123 161 162
f 123 162 163
f 123 163 158
f 123 136 160
f 125 153 130
f 126 129 164
f 126 164 165
f 126 165 137
f 126 137 127
f 128 166 129
f 128 132 167
f 128 167 166
f 129 166 164
f 130 153 131
f 131 153 132
f 132 153 167
f 133 137 165
f 133 165 134
f 134 168 135
f 134 165 164
f 134 164 168
f 135 169 136
f 135 168 170
f 135 170 169
f 136 169 170
f 136 170 160
f 138 157 139
f 139 157 154
f 139 154 171
f 143 172 152
f 143 152 146
f 143 145 172
f 145 149 173
f 145 173 167
f 145 167 174
f 145 174 172
f 147 175 176
f 147 176 177
f 147 177 178
f 147 178 148
f 148 178 149
f 149 178 177
f 149 177 179
f 149 179 173
f 152 172 153
f 153 174 167
f 153 172 174
f 154 180 171
f 154 157 156
f 154 156 155
f 154 159 181
f 154 181 182
f 154 182 183
f 154 183 184
f 154 184 180
f 158 181 159
f 158 163 185
f 158 185 181
f 160 170 186
f 162 187 163
f 163 188 185
f 163 187 188
f 164 189 190
f 164 190 191
f 164 191 192
f 164 192 168
f 164 166 193
f 164 193 189
f 166 167 193
f 167 173 193
f 168 192 170
f 170 192 186
f 171 180 184
f 173 189 193
f 173 179 194
f 173 194 175
f 173 175 186
f 173 186 189
f 175 194 176
f 176 194 179
f 176 179 177
f 181 195 183
f 181 183 182
f 181 185 195
f 185 188 196
f 185 196 197
f 185 197 195
f 186 192 191
f 186 191 190
f 186 190 189

