# https://github.com/mikedh/trimesh
v 0.05558799 0.00170226 0.03413945
v 0.05425513 0.00189077 0.03413945
v 0.05558799 0.00171404 0.03334162
v 0.05772289 0.00219711 0.02810583
v 0.05689536 0.00199092 0.03203267
v 0.05689536 0.00199681 0.03413945
v 0.06167281 0.00460652 0.06177692
v 0.05841598 0.00460652 0.06177692
v 0.06193475 0.00508369 -0.05706296
v 0.05558799 0.00174939 0.03203267
v 0.04233352 0.00736939 0.05962028
v 0.04233352 0.00736939 0.05787501
v 0.06352723 0.00508369 -0.05706296
v 0.06150127 0.00344010 0.00040603
v 0.05760468 0.00222067 0.02576219
v 0.05766958 0.00220889 0.02679688
v 0.05773912 0.00219121 0.02941478
v 0.06081978 0.00295704 0.01764673
v 0.06081978 0.00293937 0.01895567
v 0.06081978 0.00292759 0.02027708
v 0.05773448 0.00218532 0.03203267
v 0.05774144 0.00218532 0.03072372
v 0.05771594 0.00219121 0.03334162
v 0.05769508 0.00219711 0.03413945
v 0.06081978 0.00298650 0.03413945
v 0.06185825 0.00460652 0.06079209
v 0.06216191 0.00550784 0.06079209
v 0.06169599 0.00467721 0.06177692
v 0.05221526 0.05807311 0.06481866
v 0.04416476 0.05807311 0.06556663
v 0.04382170 0.05807311 0.06559156
v 0.04289448 0.05807311 0.06562896
v 0.04250042 0.05807311 0.06564143
v 0.04233352 0.00811754 0.05980727
v 0.06062738 0.00901298 -0.06168790
v 0.04233352 0.01435610 0.05841106
v 0.04249810 0.05912170 0.05811187
v 0.06307290 0.00901298 -0.06168790
v 0.06338583 0.00901298 -0.06081527
v 0.06358518 0.00550784 -0.05706296
v 0.06353650 0.00508369 -0.05646458
v 0.06278778 0.00352847 0.01633778
v 0.06278315 0.00353436 0.01560228
v 0.06212483 0.00330461 0.01633778
v 0.06167049 0.00347545 0.00040603
v 0.06212483 0.00329283 0.01764673
v 0.06081978 0.00292170 0.02157357
v 0.06081978 0.00292170 0.02548794
v 0.06081978 0.00293937 0.02942724
v 0.06081978 0.00297471 0.03332915
v 0.06152214 0.00319857 0.03413945
v 0.06198111 0.00334585 0.03413945
v 0.06209933 0.00460652 0.05687772
v 0.06223377 0.00680975 0.06079209
v 0.06210165 0.00680975 0.06177692
v 0.06191389 0.00543715 0.06177692
v 0.06216423 0.00460652 0.05556877
v 0.06221291 0.00550784 0.05948315
v 0.05221526 0.05911581 0.06474387
v 0.06220364 0.01436788 0.06198884
v 0.06284573 0.04210854 0.06198884
v 0.06314244 0.05649432 0.06198884
v 0.06313085 0.05780212 0.06198884
v 0.06306826 0.05899210 0.06198884
v 0.06290136 0.06006426 0.06197638
v 0.04484394 0.05859151 0.06542951
v 0.04382170 0.05870934 0.06547937
v 0.04251433 0.05876824 0.06550430
v 0.04250042 0.05876824 0.06550430
v 0.04233352 0.01435610 0.05986960
v 0.04233352 0.01301885 0.05991946
v 0.04233352 0.01204683 0.05994439
v 0.04233352 0.01073903 0.05991946
v 0.06067838 0.01727803 -0.06168790
v 0.04250042 0.06141919 0.05854819
v 0.04250042 0.06042361 0.05817420
v 0.04250042 0.06188458 0.06081703
v 0.04250042 0.06183745 0.05949561
v 0.06095422 0.05903334 -0.06168790
v 0.06399779 0.04238541 -0.06168790
v 0.06411369 0.04252090 -0.06152584
v 0.06549292 0.05518653 -0.05916973
v 0.06570154 0.05518653 -0.05818491
v 0.06591943 0.05648843 -0.05687596
v 0.06353882 0.00901298 -0.05949385
v 0.06358750 0.00550784 -0.05687596
v 0.06601447 0.05648843 -0.05556701
v 0.06348551 0.00508369 -0.03422495
v 0.06278778 0.00352847 0.01764673
v 0.06212483 0.00329283 0.01895567
v 0.06208774 0.00329283 0.02157357
v 0.06201820 0.00332228 0.03073619
v 0.06199270 0.00333996 0.03332915
v 0.06277851 0.00354025 0.01971611
v 0.06346928 0.05649432 0.05948315
v 0.06339047 0.05649432 0.06079209
v 0.06211555 0.00737528 0.06177692
v 0.06278778 0.00860061 0.04087118
v 0.06451008 0.05649432 0.03987388
v 0.06221291 0.00460652 0.05425983
v 0.06224768 0.00460652 0.05295088
v 0.06227318 0.00550784 0.05687772
v 0.05221526 0.06043539 0.06435742
v 0.06253280 0.06071227 0.06197638
v 0.06187912 0.06134261 0.06197638
v 0.06337424 0.05780212 0.06079209
v 0.06305899 0.05911581 0.06197638
v 0.06322588 0.05911581 0.06080456
v 0.06295004 0.06019386 0.06080456
v 0.06262088 0.06084776 0.06080456
v 0.04382170 0.05936323 0.06519265
v 0.04251433 0.05942803 0.06521758
v 0.04250042 0.05941625 0.06521758
v 0.04250042 0.06030579 0.06456934
v 0.04250042 0.06096558 0.06398343
v 0.04250042 0.06146043 0.06332272
v 0.04250042 0.06183745 0.06212597
v 0.04250042 0.06188458 0.06082949
v 0.06081746 0.06154879 -0.04221576
v 0.06196488 0.06145453 -0.05309872
v 0.04251433 0.06188458 0.06081703
v 0.05951241 0.06137795 -0.04221576
v 0.05880077 0.06112464 -0.04221576
v 0.06382394 0.05903334 -0.06168790
v 0.06434781 0.05639418 -0.06168790
v 0.06475347 0.05518653 -0.06081527
v 0.06476506 0.05648843 -0.06081527
v 0.06548828 0.05648843 -0.05913234
v 0.06571545 0.05648843 -0.05818491
v 0.06582440 0.05779623 -0.05687596
v 0.06597043 0.05779623 -0.05556701
v 0.06600288 0.05779623 -0.05425807
v 0.06600288 0.05648843 -0.05425807
v 0.06343451 0.00508369 -0.02900164
v 0.06278315 0.00353436 0.01895567
v 0.06257684 0.00550784 0.04249178
v 0.06345769 0.05780212 0.05948315
v 0.06441967 0.05780212 0.03987388
v 0.05221526 0.06103627 0.06405823
v 0.06196720 0.06136617 0.06080456
v 0.06081746 0.06163715 0.06197638
v 0.06419714 0.05866810 0.03987388
v 0.06273215 0.06100682 0.05166687
v 0.05221526 0.06141919 0.06344738
v 0.05166821 0.06144275 0.06338506
v 0.04512674 0.06184334 0.06212597
v 0.05819577 0.06181388 0.06197638
v 0.06081746 0.06155468 -0.03985966
v 0.05427831 0.06184334 0.05166687
v 0.06212714 0.06146043 -0.04113120
v 0.06212483 0.06143686 -0.05309872
v 0.06311694 0.06121300 -0.05309872
v 0.06406038 0.05903334 -0.06140118
v 0.06396534 0.05874468 -0.06168790
v 0.06434781 0.05648843 -0.06168790
v 0.06466306 0.05779623 -0.06081527
v 0.06425509 0.05779623 -0.06167543
v 0.06544192 0.05741921 -0.05899521
v 0.06555550 0.05783158 -0.05824724
v 0.06546510 0.05862686 -0.05784832
v 0.06555782 0.05881537 -0.05687596
v 0.06564359 0.05897443 -0.05556701
v 0.06566445 0.05903334 -0.05425807
v 0.06081746 0.06167250 0.06080456
v 0.06274606 0.06103038 0.05035792
v 0.06277851 0.06108340 0.04585764
v 0.06204137 0.06137206 0.05296335
v 0.05964454 0.06173141 0.06197638
v 0.06532370 0.05965778 -0.05294912
v 0.05833485 0.06180799 0.06197638
v 0.05221526 0.06181977 0.06212597
v 0.05689304 0.06181388 0.05035792
v 0.05950546 0.06175497 0.05949561
v 0.06081746 0.06160181 -0.00456797
v 0.06081746 0.06167250 0.05949561
v 0.06212714 0.06146632 -0.03459894
v 0.06309608 0.06125424 -0.03594528
v 0.06307985 0.06124835 -0.04113120
v 0.06376598 0.06089489 -0.05309872
v 0.06435708 0.05903334 -0.06081527
v 0.06415310 0.05862097 -0.06152584
v 0.06424118 0.05779623 -0.06168790
v 0.06426436 0.05758416 -0.06168790
v 0.06531211 0.05828518 -0.05872095
v 0.06484155 0.05903334 -0.05941906
v 0.06517303 0.05903334 -0.05819737
v 0.06535383 0.05903334 -0.05738707
v 0.06545119 0.05903334 -0.05687596
v 0.06560882 0.05903334 -0.05556701
v 0.06561578 0.05903334 -0.05544236
v 0.06532602 0.05965778 -0.05309872
v 0.05950546 0.06174908 0.06080456
v 0.06309608 0.06125424 -0.03459894
v 0.06212714 0.06146632 -0.02551111
v 0.06209469 0.06136028 0.05035792
v 0.06525416 0.05972258 -0.05309872
v 0.06467002 0.06022921 -0.05309872
v 0.06374744 0.06081831 -0.03459894
f 1 2 3
f 1 3 4
f 1 4 5
f 1 5 6
f 1 6 7
f 1 7 8
f 1 8 2
f 2 9 10
f 2 10 3
f 2 8 11
f 2 11 12
f 2 12 9
f 3 10 13
f 3 13 14
f 3 14 15
f 3 15 16
f 3 16 4
f 4 17 5
f 4 16 18
f 4 18 19
f 4 19 20
f 4 20 17
f 5 21 6
f 5 17 22
f 5 22 21
f 6 21 23
f 6 23 24
f 6 24 7
f 7 24 25
f 7 25 26
f 7 26 27
f 7 27 28
f 7 28 29
f 7 29 30
f 7 30 31
f 7 31 32
f 7 32 33
f 7 33 8
f 8 33 34
f 8 34 11
f 9 35 38
f 9 38 13
f 9 13 10
f 9 12 35
f 11 34 73
f 11 73 72
f 11 72 71
f 11 71 70
f 11 70 36
f 11 36 12
f 12 36 37
f 12 37 35
f 13 38 39
f 13 39 40
f 13 40 41
f 13 41 42
f 13 42 43
f 13 43 44
f 13 44 45
f 13 45 14
f 14 45 18
f 14 18 16
f 14 16 15
f 17 20 22
f 18 45 44
f 18 44 19
f 19 44 46
f 19 46 20
f 20 46 47
f 20 47 22
f 21 22 48
f 21 48 49
f 21 49 23
f 22 47 48
f 23 49 50
f 23 50 24
f 24 50 25
f 25 50 51
f 25 51 26
f 26 51 52
f 26 52 53
f 26 53 27
f 27 54 55
f 27 55 56
f 27 56 28
f 27 53 57
f 27 57 58
f 27 58 54
f 28 56 29
f 29 59 30
f 29 56 60
f 29 60 61
f 29 61 62
f 29 62 63
f 29 63 64
f 29 64 65
f 29 65 59
f 30 59 66
f 30 66 31
f 31 66 67
f 31 67 32
f 32 67 33
f 33 67 68
f 33 68 69
f 33 69 70
f 33 70 71
f 33 71 72
f 33 72 73
f 33 73 34
f 35 74 79
f 35 79 124
f 35 124 154
f 35 154 182
f 35 182 183
f 35 183 155
f 35 155 125
f 35 125 80
f 35 80 38
f 35 37 74
f 36 75 76
f 36 76 37
f 36 70 118
f 36 118 77
f 36 77 78
f 36 78 75
f 37 76 79
f 37 79 74
f 38 80 81
f 38 81 82
f 38 82 39
f 39 82 83
f 39 83 84
f 39 84 85
f 39 85 40
f 40 86 41
f 40 85 84
f 40 84 87
f 40 87 86
f 41 86 88
f 41 88 89
f 41 89 42
f 42 89 90
f 42 90 46
f 42 46 44
f 42 44 43
f 46 90 48
f 46 48 47
f 48 90 91
f 48 91 49
f 49 92 51
f 49 51 50
f 49 91 92
f 51 92 93
f 51 93 52
f 52 93 94
f 52 94 57
f 52 57 53
f 54 95 96
f 54 96 97
f 54 97 55
f 54 58 98
f 54 98 99
f 54 99 95
f 55 97 60
f 55 60 56
f 57 100 58
f 57 94 100
f 58 100 101
f 58 101 102
f 58 102 98
f 59 103 67
f 59 67 66
f 59 65 104
f 59 104 105
f 59 105 103
f 60 97 61
f 61 97 96
f 61 96 62
f 62 96 63
f 63 96 106
f 63 106 64
f 64 106 107
f 64 107 65
f 65 107 108
f 65 108 109
f 65 109 110
f 65 110 104
f 67 103 111
f 67 111 112
f 67 112 68
f 68 112 69
f 69 112 113
f 69 113 70
f 70 113 114
f 70 114 115
f 70 115 116
f 70 116 117
f 70 117 118
f 75 78 79
f 75 79 76
f 77 119 120
f 77 120 78
f 77 118 121
f 77 121 119
f 78 120 122
f 78 122 123
f 78 123 79
f 79 123 120
f 79 120 124
f 80 125 81
f 81 126 82
f 81 125 126
f 82 127 128
f 82 128 129
f 82 129 83
f 82 126 127
f 83 129 84
f 84 130 131
f 84 131 87
f 84 129 130
f 86 87 88
f 87 131 132
f 87 132 133
f 87 133 88
f 88 134 94
f 88 94 135
f 88 135 89
f 88 133 134
f 89 135 91
f 89 91 90
f 91 135 92
f 92 135 94
f 92 94 93
f 94 134 98
f 94 98 136
f 94 136 101
f 94 101 100
f 95 137 96
f 95 99 137
f 96 137 106
f 98 102 136
f 98 134 133
f 98 133 99
f 99 133 132
f 99 132 138
f 99 138 137
f 101 136 102
f 103 139 112
f 103 112 111
f 103 105 139
f 104 110 105
f 105 110 140
f 105 140 141
f 105 141 139
f 106 108 107
f 106 137 108
f 108 137 138
f 108 138 109
f 109 138 142
f 109 142 110
f 110 142 143
f 110 143 140
f 112 139 114
f 112 114 113
f 114 139 115
f 115 139 116
f 116 144 145
f 116 145 146
f 116 146 117
f 116 139 144
f 117 146 118
f 118 146 147
f 118 147 121
f 119 148 120
f 119 121 149
f 119 149 148
f 120 123 122
f 120 148 150
f 120 150 151
f 120 151 124
f 121 147 149
f 124 151 152
f 124 152 153
f 124 153 154
f 125 155 127
f 125 127 126
f 127 156 128
f 127 155 157
f 127 157 156
f 128 158 129
f 128 156 158
f 129 158 159
f 129 159 130
f 130 159 160
f 130 160 161
f 130 161 131
f 131 162 163
f 131 163 132
f 131 161 162
f 132 163 142
f 132 142 138
f 139 141 144
f 140 164 141
f 140 143 165
f 140 165 166
f 140 166 167
f 140 167 164
f 141 168 144
f 141 164 168
f 142 163 169
f 142 169 165
f 142 165 143
f 144 168 170
f 144 170 147
f 144 147 171
f 144 171 145
f 145 171 146
f 146 171 147
f 147 172 149
f 147 170 173
f 147 173 148
f 147 148 172
f 148 174 150
f 148 149 172
f 148 173 174
f 150 174 175
f 150 175 176
f 150 176 177
f 150 177 178
f 150 178 151
f 151 178 152
f 152 178 177
f 152 177 179
f 152 179 180
f 152 180 153
f 153 181 154
f 153 180 181
f 154 181 157
f 154 157 182
f 155 183 157
f 156 157 181
f 156 181 180
f 156 180 158
f 157 183 182
f 158 180 184
f 158 184 159
f 159 184 160
f 160 184 185
f 160 185 186
f 160 186 187
f 160 187 188
f 160 188 161
f 161 188 162
f 162 189 190
f 162 190 163
f 162 188 189
f 163 190 191
f 163 191 169
f 164 175 173
f 164 173 192
f 164 192 170
f 164 170 168
f 164 167 193
f 164 193 194
f 164 194 176
f 164 176 175
f 165 169 166
f 166 195 167
f 166 169 191
f 166 191 196
f 166 196 197
f 166 197 198
f 166 198 179
f 166 179 193
f 166 193 195
f 167 195 193
f 170 192 173
f 173 175 174
f 176 194 193
f 176 193 177
f 177 193 179
f 179 198 197
f 179 197 187
f 179 187 186
f 179 186 185
f 179 185 180
f 180 185 184
f 187 197 188
f 188 197 196
f 188 196 191
f 188 191 189
f 189 191 190

