# https://github.com/mikedh/trimesh
v 0.06457465 0.00865664 0.00070148
v 0.06436811 0.01167665 -0.00338237
v 0.06451011 0.01167665 0.00070148
v 0.05824933 0.01001461 0.06287543
v 0.05824933 0.00691223 0.06288852
v 0.05824933 0.00596007 0.06287543
v 0.05824933 0.00494734 0.06241730
v 0.06451011 0.00730957 0.00070148
v 0.06451011 0.00730957 0.00064912
v 0.06385176 0.00461784 -0.01954760
v 0.06337413 0.00400124 -0.03259758
v 0.06194126 0.01167665 -0.06135467
v 0.05921749 0.01167665 0.00070148
v -0.05729758 0.01008609 0.06733886
v -0.05586470 0.01008609 0.06729960
v -0.02630349 0.01008609 0.06626555
v -0.00734042 0.01008609 0.06551946
v 0.00036615 0.01008609 0.06519223
v 0.05191110 0.01001461 0.06317648
v 0.01820615 0.00583893 0.06503516
v 0.05730698 0.00596007 0.06295397
v 0.05730698 0.00491100 0.06248275
v 0.05824933 0.00474867 0.06211625
v 0.06441975 0.00595886 0.00070148
v 0.06441975 0.00595886 0.00064912
v 0.06363231 0.00364630 -0.01954760
v 0.06349031 0.00378804 -0.02898495
v 0.06345159 0.00382074 -0.03033314
v 0.06337413 0.00392371 -0.03259758
v 0.06194126 0.01135563 -0.06135467
v 0.06183799 0.01167665 -0.06268978
v -0.06091205 0.01008609 0.06630482
v -0.05999553 0.01008609 0.06689383
v -0.05864010 0.01008609 0.06728651
v 0.04667011 0.01167665 -0.05465297
v 0.00036615 0.01167302 -0.05778131
v -0.05864010 0.01000613 0.06728651
v -0.05729758 0.00865785 0.06729960
v 0.01820615 0.00473535 0.06503516
v 0.00607185 0.01001461 0.06508751
v 0.01956158 0.00473293 0.06496971
v 0.04515978 0.00514843 0.06345136
v 0.05730698 0.00423868 0.06144870
v 0.01956158 0.00405818 0.06457703
v 0.05824933 0.00423262 0.06130472
v 0.06403249 0.00461784 0.00070148
v 0.05824933 0.00391523 0.06072879
v 0.06225107 0.00229802 -0.03840921
v 0.06363231 0.00363903 -0.01819940
v 0.06218652 0.00240704 -0.04110560
v 0.06257379 0.00326835 -0.04110560
v 0.06201871 0.00396854 -0.05253251
v 0.06194126 0.00596249 -0.05864520
v 0.06188962 0.00730714 -0.06135467
v 0.06192835 0.01000492 -0.06135467
v 0.06183799 0.01000492 -0.06268978
v 0.06155399 0.01167665 -0.06402488
v -0.06093787 0.00865785 0.06629173
v -0.06149295 0.01008609 0.06538857
v -0.06204803 0.00813816 0.06476028
v -0.05999553 0.01000613 0.06689383
v 0.04667011 0.01167665 -0.06554323
v 0.00036615 0.01167302 -0.06350131
v -0.06483634 0.01008609 0.00050514
v -0.06333892 0.01008609 0.03714196
v -0.06317110 0.01008609 0.04110800
v -0.06221585 0.01008609 0.06133090
v -0.06213839 0.01008609 0.06267909
v -0.06204803 0.01008609 0.06358225
v -0.06193185 0.01008609 0.06421054
v -0.05864010 0.00865785 0.06722106
v -0.05729758 0.00730835 0.06698546
v -0.05595507 0.00730835 0.06705090
v -0.05325712 0.00730835 0.06710326
v -0.04516328 0.00730835 0.06689383
v -0.04246534 0.00596007 0.06647497
v -0.05190169 0.00596007 0.06661895
v -0.03034395 0.00535195 0.06602994
v -0.04110992 0.00524171 0.06610848
v -0.04246534 0.00523444 0.06612156
v 0.05730698 0.00389222 0.06078115
v 0.01956158 0.00373110 0.06390948
v -0.05190169 0.00519447 0.06616083
v -0.05325712 0.00457423 0.06538857
v -0.00876039 0.00280681 0.06305868
v -0.00606245 0.00230771 0.06232568
v -0.00595918 0.00158330 0.06121309
v -0.00537828 0.00124047 0.06067644
v 0.06352904 0.00382680 0.00070148
v 0.05824933 0.00364994 0.05964238
v 0.05824933 0.00309270 0.05729941
v 0.05824933 0.00279711 0.05591195
v 0.05824933 0.00260571 0.05486480
v 0.05824933 0.00252697 0.05438050
v 0.05824933 0.00234526 0.05325483
v 0.05824933 0.00213933 0.05190664
v 0.05824933 0.00195277 0.05055844
v 0.05824933 0.00177712 0.04919716
v 0.00957014 0.00122593 0.05936751
v 0.05459613 0.00315084 0.05864760
v 0.05595156 0.00322231 0.05864760
v 0.06096018 0.00107935 -0.03168133
v 0.06097309 0.00099335 -0.02898495
v 0.06097309 0.00102605 -0.03033314
v 0.06212198 0.00247852 -0.04245379
v 0.06089564 0.00114477 -0.03300335
v 0.06124418 0.00365963 -0.05323933
v 0.06105055 0.00376744 -0.05460062
v 0.06102473 0.00506121 -0.06135467
v 0.06120545 0.00491706 -0.05999339
v 0.06164435 0.00596249 -0.06135467
v 0.06183799 0.00596249 -0.05999339
v 0.06177344 0.00730714 -0.06268978
v 0.06182508 0.00865664 -0.06268978
v 0.06152817 0.01000492 -0.06402488
v 0.06099891 0.01135563 -0.06507202
v 0.06099891 0.01167665 -0.06507202
v -0.06204803 0.00790921 0.06476028
v -0.06083460 0.00772023 0.06618701
v -0.05999553 0.00865785 0.06682838
v -0.06221585 0.00865785 0.06267909
v -0.06237075 0.00730835 0.06133090
v 0.05325362 0.01167665 -0.06592282
v 0.00037906 0.01167302 -0.06369765
v -0.06700502 0.00981958 -0.05000629
v -0.06669521 0.00981958 -0.03975740
v -0.06473307 0.00534953 0.01495567
v -0.06230621 0.00865785 0.06133090
v -0.05864010 0.00730835 0.06680221
v -0.05729758 0.00616237 0.06637026
v -0.05586470 0.00587285 0.06637026
v -0.05459964 0.00596007 0.06655351
v -0.05325712 0.00596007 0.06660587
v -0.05325712 0.00520295 0.06614774
v -0.05459964 0.00524292 0.06610848
v -0.05459964 0.00466145 0.06538857
v -0.05325712 0.00398307 0.06462939
v -0.00544282 0.00124047 0.06067644
v 0.05730698 -0.00032950 0.02492969
v 0.05730698 -0.00026893 0.02629097
v 0.05824933 0.00160631 0.04786206
v 0.05824933 0.00143914 0.04651386
v 0.05824933 0.00122351 0.04468137
v 0.05824933 0.00112296 0.04380439
v 0.05824933 0.00097396 0.04245619
v 0.05824933 0.00093762 0.04206352
v 0.05824933 0.00085161 0.04112109
v 0.05824933 0.00081890 0.04072841
v 0.05824933 0.00041430 0.03571523
v 0.05824933 0.00027741 0.03398745
v 0.05824933 0.00017565 0.03262617
v 0.05824933 -0.00012356 0.02850305
v 0.05824933 -0.00025197 0.02629097
v 0.05824933 -0.00031496 0.02492969
v 0.05824933 -0.00037553 0.02359458
v 0.05824933 -0.00043247 0.02224639
v 0.05824933 -0.00044701 0.02184062
v 0.05824933 -0.00048698 0.02049243
v 0.05824933 -0.00051363 0.01914424
v 0.05730698 0.00333134 0.05864760
v 0.05730698 0.00301032 0.05729941
v 0.05595156 0.00289887 0.05729941
v 0.05595156 0.00266749 0.05617373
v 0.05676482 0.00258270 0.05533602
v 0.05595156 0.00255726 0.05550618
v 0.05730698 0.00228954 0.05325483
v 0.05730698 0.00210056 0.05190664
v 0.05459613 0.00262146 0.05643552
v 0.05730698 -0.00018898 0.02762607
v 0.05459613 0.00280196 0.05729941
v 0.06000493 0.00060206 -0.02898495
v 0.06000493 0.00068807 -0.03033314
v 0.06000493 0.00058389 -0.02763675
v 0.05824933 -0.00053544 0.01779604
v 0.05824933 -0.00055240 0.01644785
v 0.05824933 -0.00055724 0.01509966
v 0.05824933 -0.00054997 0.01375146
v 0.06079237 0.00119928 -0.03410285
v 0.06134745 0.00216234 -0.04245379
v 0.06092146 0.00248215 -0.04648528
v 0.06076655 0.00255120 -0.04749315
v 0.06084401 0.00386678 -0.05566085
v 0.06056001 0.00261298 -0.04839631
v 0.06000493 0.00437556 -0.05999339
v 0.06000493 0.00464934 -0.06135467
v 0.06083110 0.00518841 -0.06234945
v 0.06120545 0.00585347 -0.06275522
v 0.06099891 0.00622294 -0.06402488
v 0.06139908 0.00730714 -0.06402488
v 0.06147654 0.00865664 -0.06402488
v 0.06098600 0.01000492 -0.06504584
v 0.06079237 0.01167665 -0.06524218
v -0.06224167 0.00730835 0.06267909
v -0.06208676 0.00739921 0.06392257
v -0.06203512 0.00660938 0.06341209
v -0.06184149 0.00700914 0.06431525
v -0.06133805 0.00736408 0.06533621
v -0.06044734 0.00682016 0.06592522
v -0.05999553 0.00728655 0.06638335
v -0.06219003 0.00635620 0.06133090
v -0.06211257 0.00650883 0.06267909
v -0.06473307 0.00526594 0.01495567
v 0.05720371 0.01167665 -0.06611916
v 0.00337391 0.01167302 -0.06382854
v -0.06403599 0.00961364 -0.06134158
v -0.06539142 0.00961364 -0.06107980
v -0.06615304 0.00961364 -0.06073948
v -0.06654030 0.00961364 -0.06021591
v -0.06669521 0.00961364 -0.05999339
v -0.06708247 0.00961364 -0.05903787
v -0.06721156 0.00961364 -0.05864520
v -0.06730192 0.00961364 -0.05731009
v -0.06726320 0.00961364 -0.05594881
v -0.06670812 0.00865785 -0.03840921
v -0.06675975 0.00730957 -0.03840921
v -0.05955663 0.00651126 0.06614774
v -0.05864010 0.00634772 0.06626555
v -0.05534835 0.00527563 0.06606921
v -0.05459964 0.00403395 0.06455085
v -0.05459964 0.00368991 0.06387021
v -0.05325712 0.00364994 0.06396184
v -0.04893266 0.00256332 0.06207699
v -0.04931993 0.00284073 0.06260055
v -0.04786123 0.00230044 0.06133090
v -0.03572693 0.00142824 0.05864760
v -0.03437150 0.00126833 0.05728632
v 0.05730698 -0.00043126 0.02224639
v 0.05730698 -0.00038038 0.02359458
v 0.05730698 -0.00047729 0.02088511
v 0.05730698 -0.00052090 0.01955000
v 0.05730698 -0.00060812 0.01684053
v 0.05730698 -0.00063841 0.01550542
v 0.05828806 -0.00020836 -0.01011025
v 0.05805570 -0.00013447 -0.01819940
v 0.05802988 -0.00011993 -0.01903712
v 0.05864951 0.00031860 -0.02763675
v 0.05864951 0.00040218 -0.02898495
v 0.06000493 0.00080679 -0.03168133
v 0.05730698 -0.00065294 0.01414414
v 0.05730698 -0.00065900 0.01280904
v 0.05729408 -0.00040097 -0.01011025
v 0.06065037 0.00124774 -0.03500601
v 0.06000493 0.00213206 -0.04515018
v 0.06000493 0.00228227 -0.04648528
v 0.06003075 0.00234405 -0.04698267
v 0.06000493 0.00346338 -0.05460062
v 0.06040510 0.00400851 -0.05728391
v 0.06006948 0.00246519 -0.04791201
v 0.05966930 0.00253666 -0.04894606
v 0.06006948 0.00265780 -0.04932565
v 0.06000493 0.00282498 -0.05054295
v 0.06000493 0.00303212 -0.05190423
v 0.05903677 0.00398792 -0.05905096
v 0.05864951 0.00433801 -0.06135467
v 0.05994039 0.00411027 -0.05861902
v 0.05944985 0.00390918 -0.05814780
v 0.05864951 0.00460815 -0.06268978
v 0.06006948 0.00502245 -0.06275522
v 0.06057292 0.00533499 -0.06325261
v 0.06077946 0.00649187 -0.06482332
v 0.06088273 0.00730714 -0.06492804
v 0.06093437 0.00865664 -0.06499348
v 0.06004366 0.01000492 -0.06571339
v 0.06010820 0.01167665 -0.06575266
v -0.06157041 0.00568145 0.06133090
v -0.06124769 0.00576019 0.06266600
v -0.06057643 0.00534468 0.06312412
v -0.06136386 0.00624838 0.06392257
v -0.06093787 0.00640829 0.06502207
v -0.05990516 0.00600974 0.06532312
v -0.06197058 0.00534468 0.05728632
v -0.06191894 0.00542463 0.05864760
v -0.06176404 0.00555789 0.05998271
v -0.05967281 0.00368022 0.05460302
v -0.06129932 0.00489162 0.05728632
v -0.06644994 0.00596007 -0.03032005
v -0.06700502 0.00596007 -0.04515018
v -0.06608849 0.00525988 -0.02136700
v -0.06626922 0.00498853 -0.02897186
v -0.06611431 0.00390675 -0.04919475
v -0.06487506 0.00383165 -0.02359218
v -0.06340346 0.00256937 -0.02627547
v -0.06337764 0.00258633 -0.02550321
v 0.05864951 0.01167665 -0.06615843
v 0.03436800 0.00461784 -0.06638094
v -0.06403599 0.00865785 -0.06132849
v -0.06539142 0.00865785 -0.06107980
v -0.05280531 0.00535680 -0.06203531
v -0.05280531 0.00523323 -0.06203531
v -0.06615304 0.00865785 -0.06073948
v -0.06668230 0.00865785 -0.05999339
v -0.06717283 0.00865785 -0.05864520
v -0.06723738 0.00865785 -0.05731009
v -0.06706956 0.00596007 -0.05325242
v -0.06706956 0.00596007 -0.05000629
v -0.06705666 0.00596007 -0.04785965
v -0.06704375 0.00596007 -0.04649837
v -0.06703084 0.00730957 -0.04649837
v -0.05935009 0.00527200 0.06474719
v -0.05864010 0.00567418 0.06559800
v -0.05729758 0.00548884 0.06583360
v -0.05625197 0.00536528 0.06596449
v -0.05729758 0.00494250 0.06517914
v -0.05586470 0.00490010 0.06546710
v -0.05595507 0.00413813 0.06434143
v -0.05595507 0.00378319 0.06368696
v -0.05459964 0.00317386 0.06267909
v -0.04983628 0.00259723 0.06198536
v -0.04931993 0.00240099 0.06146179
v -0.04786123 0.00203999 0.05998271
v -0.03706945 0.00148033 0.05864760
v -0.03572693 0.00130104 0.05728632
v -0.03572693 0.00127197 0.05593813
v -0.01551171 0.00034646 0.01953691
v 0.05595156 -0.00066990 0.01280904
v 0.05729408 -0.00025197 -0.01819940
v 0.05729408 0.00015142 -0.02627547
v 0.05671318 -0.00011751 -0.02179895
v 0.05864951 0.00053059 -0.03033314
v 0.05729408 0.00023622 -0.02763675
v 0.04246183 0.00084798 -0.04516326
v 0.04381726 0.00092672 -0.04516326
v 0.04381726 0.00104301 -0.04649837
v 0.04787064 0.00213690 -0.05594881
v 0.04921315 0.00234405 -0.05728391
v 0.05595156 -0.00068323 0.01144775
v 0.05459613 -0.00069898 0.00605498
v 0.05459613 -0.00068444 0.00335860
v 0.05595156 -0.00049789 -0.00876205
v 0.05595156 -0.00047850 -0.01011025
v 0.05595156 -0.00045549 -0.01145844
v 0.05595156 -0.00040824 -0.01416791
v 0.05864951 0.00212600 -0.04648528
v 0.05864951 0.00226652 -0.04785965
v 0.05951440 0.00227379 -0.04698267
v 0.05876568 0.00245792 -0.04932565
v 0.05929494 0.00259844 -0.04984922
v 0.05864951 0.00280438 -0.05190423
v 0.05864951 0.00363903 -0.05728391
v 0.05724244 0.00408119 -0.06128923
v 0.05729408 0.00433438 -0.06268978
v 0.05861078 0.00384982 -0.05861902
v 0.05729408 0.00364873 -0.05864520
v 0.05729408 0.00474262 -0.06402488
v 0.05859787 0.00505758 -0.06406415
v 0.05966930 0.00517751 -0.06363220
v 0.05901095 0.00537012 -0.06453536
v 0.06006948 0.00554456 -0.06406415
v 0.06000493 0.00624960 -0.06507202
v 0.06000493 0.00730714 -0.06553014
v 0.05986293 0.00878868 -0.06573957
v 0.05933367 0.00932412 -0.06606680
v 0.05937240 0.01000492 -0.06607989
v 0.05942403 0.01135563 -0.06610607
v 0.05943694 0.01167665 -0.06610607
v -0.06110569 0.00500428 0.05998271
v -0.06089914 0.00513996 0.06133090
v -0.05999553 0.00466145 0.06133090
v -0.06007298 0.00498369 0.06266600
v -0.05856265 0.00424958 0.06262673
v -0.05960826 0.00513269 0.06404037
v -0.06029243 0.00549611 0.06404037
v -0.06123478 0.00492675 0.05864760
v -0.05969862 0.00363782 0.05324174
v -0.05864010 0.00300305 0.05324174
v -0.05962117 0.00373473 0.05593813
v -0.06660485 0.00461542 -0.04919475
v -0.06660485 0.00461542 -0.05055604
v -0.06610140 0.00391281 -0.05055604
v -0.06375200 0.00229923 -0.05190423
v -0.06135096 0.00172987 -0.01953451
v -0.06242239 0.00228833 -0.01953451
v -0.06208676 0.00121503 -0.05231000
v 0.05864951 0.01135563 -0.06615843
v 0.05729408 0.00654154 -0.06610607
v 0.03436800 0.00379531 -0.06628932
v 0.03301258 0.00382317 -0.06625005
v -0.06403599 0.00730957 -0.06130232
v -0.06548178 0.00726475 -0.06094890
v -0.06614013 0.00768147 -0.06072639
v -0.04516328 0.00461542 -0.06231019
v -0.05055918 0.00431984 -0.06193060
v -0.05190169 0.00446036 -0.06186515
v -0.05729758 0.00461542 -0.06145938
v -0.06269347 0.00596007 -0.06130232
v -0.06133805 0.00596007 -0.06142012
v -0.06644994 0.00726475 -0.06009810
v -0.06699211 0.00730957 -0.05864520
v -0.06712120 0.00730957 -0.05731009
v -0.06700502 0.00596007 -0.05460062
v -0.06657903 0.00465055 -0.05325242
v -0.05864010 0.00471839 0.06404037
v -0.05683286 0.00387405 0.06349063
v -0.05728467 0.00425079 0.06398802
v -0.05864010 0.00513996 0.06491735
v -0.05595507 0.00335436 0.06267909
v -0.05471582 0.00271959 0.06125236
v -0.05525799 0.00259360 0.06063717
v -0.04650580 0.00189099 0.05864760
v -0.04516328 0.00182679 0.05864760
v -0.04380786 0.00176258 0.05864760
v -0.03706945 0.00132406 0.05593813
v -0.04184572 0.00124168 0.04591176
v -0.03913486 0.00124289 0.04995634
v -0.01551171 0.00032950 0.01818872
v -0.01551171 0.00028952 0.01413105
v 0.05595156 -0.00035857 -0.01686430
v 0.05595156 -0.00032950 -0.01819940
v 0.05595156 -0.00026893 -0.01954760
v -0.00337741 0.00014658 -0.05864520
v 0.05055567 0.00232709 -0.05594881
v 0.05189819 0.00231255 -0.05460062
v 0.05325362 0.00229923 -0.05323933
v 0.05459613 0.00228954 -0.05190423
v 0.04246183 0.00075833 -0.04380198
v 0.04386890 0.00117869 -0.04795128
v 0.04787064 0.00226289 -0.05728391
v 0.04787064 0.00239735 -0.05864520
v 0.04930351 0.00249305 -0.05873682
v 0.05459613 -0.00069171 0.00740317
v -0.01281376 0.00012962 0.00067530
v -0.00917347 -0.00010055 -0.01919419
v -0.00949620 -0.00010418 -0.02008426
v -0.00877330 -0.00011993 -0.02088270
v -0.00965110 -0.00010782 -0.02359218
v 0.05459613 -0.00066990 0.00202349
v -0.00952201 -0.00010418 -0.02432518
v -0.01685423 0.00007753 -0.04245379
v -0.00741787 0.00012477 -0.05460062
v -0.00471993 0.00014779 -0.05864520
v 0.05459613 -0.00065052 0.00070148
v 0.05165292 0.00254151 -0.05702213
v 0.05435087 0.00253666 -0.05433883
v 0.05839133 0.00253666 -0.05030734
v 0.05659700 0.00259844 -0.05254560
v 0.05876568 0.00263842 -0.05066075
v 0.05254363 0.00259844 -0.05657709
v 0.05067185 0.00264811 -0.05873682
v 0.05189819 0.00282134 -0.05864520
v 0.05189819 0.00303939 -0.05999339
v 0.05537066 0.00392977 -0.06208767
v 0.05459613 0.00400124 -0.06305627
v 0.05387324 0.00394794 -0.06333115
v 0.05595156 0.00449913 -0.06402488
v 0.05055567 0.00283346 -0.05999339
v 0.05729408 0.00515934 -0.06490186
v 0.05812024 0.00525746 -0.06475788
v 0.05854624 0.00598188 -0.06537307
v 0.05806861 0.00659363 -0.06607989
v -0.06008589 0.00425321 0.05864760
v -0.05986644 0.00430167 0.05986490
v -0.05891118 0.00413692 0.06133090
v -0.05805921 0.00390070 0.06216861
v -0.05914355 0.00402305 0.06021831
v -0.05773648 0.00401941 0.06305868
v -0.05864010 0.00295217 0.05189355
v -0.05778812 0.00261298 0.05189355
v -0.05767194 0.00263236 0.05324174
v -0.05864010 0.00310602 0.05460302
v -0.05864010 0.00322595 0.05593813
v -0.05953081 0.00381226 0.05728632
v -0.06607558 0.00393098 -0.05144611
v -0.06370036 0.00232830 -0.05325242
v -0.06259020 0.00157482 -0.05335714
v -0.06208676 0.00121503 -0.05295137
v -0.05999553 0.00141128 -0.01818632
v -0.06145423 0.00113387 -0.05335714
v -0.05999553 0.00096669 -0.05325242
v 0.03924754 0.00392977 -0.06607989
v 0.03571052 0.00381226 -0.06625005
v -0.00337741 0.00034525 -0.05999339
v -0.00337741 0.00089764 -0.06098817
v -0.00471993 0.00089159 -0.06096199
v -0.01416919 0.00103695 -0.06089655
v -0.01685423 0.00109389 -0.06084419
v -0.01820965 0.00112660 -0.06081801
v -0.04380786 0.00382922 -0.06210076
v -0.04516328 0.00386920 -0.06206149
v -0.04610563 0.00391160 -0.06203531
v -0.06408762 0.00589102 -0.06100126
v -0.06510742 0.00629320 -0.06085728
v -0.06599813 0.00678382 -0.06060858
v -0.05190169 0.00344521 -0.06119760
v -0.05864010 0.00381348 -0.06079183
v -0.05864010 0.00461542 -0.06131540
v -0.06133805 0.00476927 -0.06106671
v -0.06269347 0.00495219 -0.06094890
v -0.06626922 0.00620962 -0.05970543
v -0.06644994 0.00584014 -0.05876300
v -0.06679848 0.00596007 -0.05731009
v -0.06692757 0.00596007 -0.05594881
v -0.06652740 0.00470143 -0.05460062
v -0.06601104 0.00397580 -0.05325242
v -0.05728467 0.00373231 0.06262673
v -0.05595507 0.00292068 0.06133090
v -0.05586470 0.00269051 0.06011360
v -0.05622615 0.00264448 0.05864760
v -0.05647142 0.00260571 0.05728632
v -0.05658760 0.00259481 0.05654023
v -0.05459964 0.00245671 0.05728632
v -0.05325712 0.00231983 0.05593813
v -0.04650580 0.00185101 0.05728632
v -0.04516328 0.00165113 0.05324174
v -0.04236207 0.00128529 0.04642224
v -0.04380786 0.00133859 0.04515258
v -0.04255570 0.00126591 0.04515258
v -0.04280097 0.00125258 0.04380439
v -0.03841197 0.00046518 -0.02088270
v -0.03706945 0.00042278 -0.02088270
v -0.03572693 0.00041672 -0.01818632
v -0.02764601 0.00038159 -0.00334310
v -0.01955217 0.00034646 0.01146084
v -0.01685423 0.00034161 0.01684053
v -0.01685423 0.00032829 0.01550542
v -0.02225012 0.00034282 0.00470679
v -0.03034395 0.00031254 -0.01818632
v -0.01001255 -0.00009086 -0.01959995
v 0.04787064 0.00252697 -0.05967925
v 0.05067185 0.00248215 -0.05738863
v 0.04891625 0.00255484 -0.05952217
v 0.04980696 0.00260450 -0.05924730
v 0.05028459 0.00254757 -0.05834414
v -0.00966401 -0.00010782 -0.02088270
v -0.00975437 -0.00010903 -0.02223089
v -0.01147125 -0.00006905 -0.02627547
v -0.01281376 -0.00003513 -0.03032005
v -0.01551171 0.00003149 -0.03706102
v -0.01685423 0.00006784 -0.04110560
v -0.01820965 0.00009812 -0.04245379
v -0.01685423 0.00009449 -0.04381507
v -0.00877330 0.00012235 -0.05325242
v -0.00607536 0.00014658 -0.05731009
v -0.05864010 0.00091581 -0.05325242
v -0.05864010 0.00102726 -0.05460062
v -0.00471993 0.00035130 -0.05999339
v 0.05118820 0.00260208 -0.05792529
v 0.05459613 0.00387041 -0.06237563
v 0.05325362 0.00348034 -0.06135467
v 0.05298253 0.00389948 -0.06348822
v 0.05335689 0.00411390 -0.06395943
v 0.05459613 0.00428592 -0.06402488
v 0.05189819 0.00328167 -0.06135467
v 0.05055567 0.00312419 -0.06135467
v 0.05595156 0.00501760 -0.06507202
v 0.04930351 0.00267840 -0.05998030
v 0.05729408 0.00586558 -0.06556941
v 0.05595156 0.00580017 -0.06573957
v -0.05940172 0.00389706 0.05864760
v -0.05932427 0.00393946 0.05932824
v -0.05823993 0.00381226 0.06133090
v -0.05729758 0.00337858 0.06133090
v -0.05700068 0.00255726 0.05324174
v -0.05595507 0.00203030 0.03301884
v -0.05729758 0.00284315 0.05728632
v -0.05729758 0.00297034 0.05864760
v -0.05864010 0.00337495 0.05728632
v -0.06593359 0.00402789 -0.05460062
v -0.06198349 0.00125137 -0.05385453
v -0.06581741 0.00411996 -0.05594881
v -0.05864010 0.00132284 -0.01683812
v -0.06109278 0.00115325 -0.05431265
v -0.06003425 0.00109631 -0.05470533
v 0.05459613 0.00490131 -0.06517673
v 0.04667011 0.00386557 -0.06483641
v 0.04515978 0.00379167 -0.06495421
v 0.04381726 0.00375048 -0.06505893
v 0.04515978 0.00345732 -0.06403797
v 0.04381726 0.00340039 -0.06403797
v 0.04667011 0.00281165 -0.06123687
v 0.04787064 0.00265175 -0.06035989
v -0.01416919 0.00065415 -0.05999339
v -0.01955217 0.00116658 -0.06076565
v -0.04920375 0.00266023 -0.06050387
v -0.04786123 0.00262994 -0.06056932
v -0.05055918 0.00338585 -0.06124996
v -0.04920375 0.00333376 -0.06127614
v -0.06367454 0.00513874 -0.06080492
v -0.06456525 0.00539556 -0.06056932
v -0.06557214 0.00580138 -0.06013737
v -0.06603686 0.00531076 -0.05928657
v -0.05055918 0.00271232 -0.06039916
v -0.05190169 0.00277167 -0.06029444
v -0.05864010 0.00323564 -0.05999339
v -0.05958245 0.00388616 -0.06072639
v -0.06047315 0.00399519 -0.06060858
v -0.06133805 0.00409452 -0.06047769
v -0.06617886 0.00512542 -0.05838341
v -0.06630794 0.00494734 -0.05731009
v -0.06643703 0.00479471 -0.05594881
v -0.05729758 0.00313994 0.05998271
v -0.05595507 0.00246640 0.05324174
v -0.04786123 0.00170928 0.04784897
v -0.04786123 0.00174320 0.04921025
v -0.04380786 0.00145247 0.04921025
v -0.04380786 0.00131558 0.04380439
v -0.03572693 0.00039370 -0.02223089
v -0.03437150 0.00036948 -0.02088270
v -0.02090760 0.00010903 -0.02088270
v -0.02496097 0.00018413 -0.02223089
v -0.02360554 0.00018171 -0.03436463
v -0.01685423 0.00006299 -0.03975740
v -0.01820965 0.00009207 -0.04110560
v 0.04845153 0.00395400 -0.06469243
v 0.04921315 0.00300305 -0.06135467
v 0.04787064 0.00289766 -0.06135467
v -0.05864010 0.00354939 0.05864760
v -0.06269347 0.00184253 -0.05460062
v -0.06273220 0.00225077 -0.05593572
v -0.06145423 0.00131558 -0.05470533
v -0.06557214 0.00427502 -0.05731009
v -0.06513324 0.00367901 -0.05594881
v -0.06048606 0.00125864 -0.05521581
v -0.05959535 0.00122351 -0.05533361
v -0.01551171 0.00071472 -0.05999339
v -0.01820965 0.00083950 -0.05999339
v -0.05864010 0.00240704 -0.05843577
v -0.05864010 0.00268809 -0.05910332
v -0.06282256 0.00421324 -0.06000648
v -0.06408762 0.00478138 -0.06007192
v -0.06514615 0.00503699 -0.05967925
v -0.06473307 0.00393219 -0.05799073
v -0.06000843 0.00353243 -0.06009810
v -0.06133805 0.00362813 -0.05979705
v -0.06244821 0.00378804 -0.05956144
v -0.06488797 0.00383528 -0.05731009
v -0.06231912 0.00243491 -0.05694359
v -0.06133805 0.00172261 -0.05594881
v -0.05999553 0.00249548 -0.05820016
v -0.05999553 0.00279711 -0.05888080
v -0.06335182 0.00394552 -0.05931275
v -0.06403599 0.00409210 -0.05898552
v -0.06403599 0.00375654 -0.05831797
v -0.06127350 0.00291947 -0.05854048
v -0.06282256 0.00347550 -0.05877609
v -0.06167368 0.00265538 -0.05784675
f 1 2 3
f 1 3 4
f 1 4 5
f 1 5 6
f 1 6 7
f 1 7 8
f 1 8 9
f 1 9 10
f 1 10 11
f 1 11 2
f 2 11 12
f 2 12 31
f 2 31 57
f 2 57 117
f 2 117 192
f 2 192 264
f 2 264 355
f 2 355 284
f 2 284 203
f 2 203 123
f 2 123 62
f 2 62 35
f 2 35 13
f 2 13 3
f 3 13 14
f 3 14 15
f 3 15 16
f 3 16 17
f 3 17 18
f 3 18 4
f 4 18 19
f 4 19 20
f 4 20 21
f 4 21 5
f 5 21 6
f 6 21 22
f 6 22 7
f 7 22 23
f 7 23 24
f 7 24 8
f 8 24 25
f 8 25 9
f 9 25 10
f 10 26 27
f 10 27 28
f 10 28 29
f 10 29 11
f 10 25 26
f 11 29 30
f 11 30 12
f 12 30 56
f 12 56 31
f 13 32 33
f 13 33 34
f 13 34 14
f 13 35 36
f 13 36 32
f 14 34 37
f 14 37 38
f 14 38 15
f 15 38 39
f 15 39 20
f 15 20 16
f 16 20 40
f 16 40 17
f 17 40 19
f 17 19 18
f 19 40 20
f 20 39 41
f 20 41 21
f 21 42 22
f 21 41 42
f 22 43 23
f 22 42 41
f 22 41 44
f 22 44 43
f 23 43 45
f 23 45 24
f 24 46 25
f 24 45 47
f 24 47 46
f 25 46 26
f 26 48 27
f 26 46 49
f 26 49 48
f 27 48 28
f 28 48 50
f 28 50 29
f 29 50 51
f 29 51 52
f 29 52 53
f 29 53 54
f 29 54 55
f 29 55 30
f 30 55 56
f 31 56 57
f 32 58 33
f 32 36 59
f 32 59 60
f 32 60 58
f 33 58 61
f 33 61 37
f 33 37 34
f 35 62 63
f 35 63 36
f 36 63 64
f 36 64 65
f 36 65 66
f 36 66 67
f 36 67 68
f 36 68 69
f 36 69 70
f 36 70 59
f 37 71 38
f 37 61 120
f 37 120 71
f 38 71 72
f 38 72 73
f 38 73 74
f 38 74 75
f 38 75 39
f 39 44 41
f 39 75 74
f 39 74 76
f 39 76 77
f 39 77 78
f 39 78 79
f 39 79 80
f 39 80 44
f 43 81 47
f 43 47 45
f 43 44 81
f 44 82 81
f 44 80 83
f 44 83 84
f 44 84 85
f 44 85 86
f 44 86 87
f 44 87 88
f 44 88 82
f 46 89 49
f 46 47 90
f 46 90 91
f 46 91 92
f 46 92 93
f 46 93 94
f 46 94 95
f 46 95 96
f 46 96 97
f 46 97 98
f 46 98 89
f 47 81 99
f 47 99 100
f 47 100 101
f 47 101 90
f 48 102 50
f 48 49 103
f 48 103 104
f 48 104 102
f 49 89 103
f 50 105 51
f 50 102 106
f 50 106 105
f 51 105 52
f 52 105 107
f 52 107 108
f 52 108 109
f 52 109 110
f 52 110 111
f 52 111 112
f 52 112 53
f 53 112 54
f 54 112 113
f 54 113 114
f 54 114 55
f 55 114 56
f 56 114 57
f 57 114 115
f 57 115 116
f 57 116 117
f 58 60 118
f 58 118 119
f 58 119 120
f 58 120 61
f 59 70 60
f 60 70 69
f 60 69 68
f 60 68 121
f 60 121 122
f 60 122 118
f 62 123 124
f 62 124 63
f 63 124 64
f 64 124 125
f 64 125 126
f 64 126 65
f 65 126 66
f 66 126 127
f 66 127 67
f 67 127 128
f 67 128 68
f 68 128 121
f 71 120 129
f 71 129 72
f 72 129 130
f 72 130 131
f 72 131 132
f 72 132 73
f 73 132 133
f 73 133 74
f 74 133 77
f 74 77 76
f 77 133 83
f 77 83 80
f 77 80 79
f 77 79 78
f 81 82 99
f 82 88 99
f 83 134 84
f 83 133 134
f 84 134 135
f 84 135 136
f 84 136 137
f 84 137 85
f 85 137 86
f 86 137 87
f 87 138 88
f 87 137 138
f 88 138 139
f 88 139 140
f 88 140 99
f 89 98 141
f 89 141 142
f 89 142 143
f 89 143 144
f 89 144 145
f 89 145 146
f 89 146 147
f 89 147 148
f 89 148 149
f 89 149 150
f 89 150 151
f 89 151 152
f 89 152 153
f 89 153 154
f 89 154 155
f 89 155 156
f 89 156 157
f 89 157 158
f 89 158 159
f 89 159 103
f 90 101 160
f 90 160 161
f 90 161 91
f 91 161 92
f 92 161 162
f 92 162 163
f 92 163 93
f 93 163 164
f 93 164 94
f 94 164 95
f 95 164 165
f 95 165 166
f 95 166 96
f 96 167 97
f 96 166 168
f 96 168 167
f 97 167 99
f 97 99 98
f 98 99 141
f 99 140 169
f 99 169 152
f 99 152 151
f 99 151 150
f 99 150 149
f 99 149 148
f 99 148 147
f 99 147 146
f 99 146 145
f 99 145 144
f 99 144 143
f 99 143 142
f 99 142 141
f 99 167 168
f 99 168 170
f 99 170 100
f 100 170 101
f 101 170 162
f 101 162 160
f 102 104 171
f 102 171 172
f 102 172 106
f 103 173 171
f 103 171 104
f 103 159 174
f 103 174 175
f 103 175 176
f 103 176 177
f 103 177 173
f 105 106 178
f 105 178 179
f 105 179 180
f 105 180 181
f 105 181 107
f 106 172 178
f 107 181 108
f 108 182 109
f 108 181 183
f 108 183 182
f 109 111 110
f 109 182 184
f 109 184 185
f 109 185 186
f 109 186 187
f 109 187 111
f 111 187 188
f 111 188 113
f 111 113 112
f 113 188 189
f 113 189 190
f 113 190 115
f 113 115 114
f 115 190 191
f 115 191 116
f 116 191 192
f 116 192 117
f 118 122 193
f 118 193 194
f 118 194 195
f 118 195 196
f 118 196 197
f 118 197 119
f 119 198 199
f 119 199 120
f 119 197 198
f 120 199 129
f 121 128 122
f 122 200 201
f 122 201 193
f 122 128 127
f 122 127 202
f 122 202 200
f 123 203 124
f 124 203 204
f 124 204 205
f 124 205 206
f 124 206 207
f 124 207 208
f 124 208 209
f 124 209 125
f 125 209 210
f 125 210 211
f 125 211 212
f 125 212 213
f 125 213 126
f 126 213 214
f 126 214 127
f 127 214 215
f 127 215 202
f 129 199 216
f 129 216 217
f 129 217 130
f 130 217 218
f 130 218 131
f 131 218 132
f 132 218 135
f 132 135 134
f 132 134 133
f 135 218 136
f 136 218 219
f 136 219 137
f 137 219 220
f 137 220 221
f 137 221 222
f 137 222 223
f 137 223 138
f 138 223 222
f 138 222 224
f 138 224 225
f 138 225 226
f 138 226 227
f 138 227 228
f 138 228 139
f 139 228 156
f 139 156 155
f 139 155 140
f 140 155 154
f 140 154 153
f 140 153 152
f 140 152 169
f 156 228 227
f 156 227 157
f 157 227 229
f 157 229 230
f 157 230 231
f 157 231 158
f 158 231 232
f 158 232 159
f 159 232 174
f 160 162 161
f 162 170 168
f 162 168 163
f 163 168 164
f 164 168 165
f 165 168 166
f 171 173 177
f 171 177 233
f 171 233 234
f 171 234 235
f 171 235 236
f 171 236 237
f 171 237 172
f 172 237 238
f 172 238 178
f 174 232 175
f 175 232 239
f 175 239 240
f 175 240 176
f 176 240 177
f 177 240 241
f 177 241 233
f 178 238 242
f 178 242 179
f 179 243 180
f 179 242 243
f 180 243 181
f 181 243 244
f 181 244 245
f 181 245 183
f 182 183 246
f 182 246 247
f 182 247 184
f 183 245 248
f 183 248 249
f 183 249 250
f 183 250 251
f 183 251 252
f 183 252 246
f 184 253 254
f 184 254 185
f 184 247 255
f 184 255 256
f 184 256 253
f 185 254 257
f 185 257 258
f 185 258 186
f 186 258 259
f 186 259 188
f 186 188 187
f 188 259 260
f 188 260 189
f 189 260 261
f 189 261 262
f 189 262 191
f 189 191 190
f 191 262 263
f 191 263 264
f 191 264 192
f 193 201 195
f 193 195 194
f 195 201 265
f 195 265 266
f 195 266 267
f 195 267 268
f 195 268 269
f 195 269 196
f 196 269 197
f 197 269 198
f 198 216 199
f 198 269 270
f 198 270 216
f 200 202 271
f 200 271 272
f 200 272 201
f 201 272 273
f 201 273 265
f 202 274 275
f 202 275 271
f 202 215 276
f 202 276 277
f 202 277 278
f 202 278 279
f 202 279 280
f 202 280 281
f 202 281 282
f 202 282 283
f 202 283 274
f 203 284 285
f 203 285 205
f 203 205 204
f 205 286 287
f 205 287 206
f 205 285 288
f 205 288 289
f 205 289 286
f 206 287 290
f 206 290 207
f 207 290 208
f 208 290 291
f 208 291 209
f 209 291 210
f 210 291 292
f 210 292 211
f 211 292 212
f 212 293 294
f 212 294 295
f 212 295 296
f 212 296 297
f 212 297 298
f 212 298 213
f 212 292 293
f 213 298 215
f 213 215 214
f 215 298 277
f 215 277 276
f 216 270 299
f 216 299 300
f 216 300 301
f 216 301 217
f 217 301 302
f 217 302 218
f 218 302 303
f 218 303 304
f 218 304 219
f 219 304 303
f 219 303 305
f 219 305 306
f 219 306 220
f 220 306 307
f 220 307 222
f 220 222 221
f 222 307 308
f 222 308 309
f 222 309 224
f 224 309 310
f 224 310 225
f 225 310 311
f 225 311 312
f 225 312 226
f 226 312 313
f 226 313 314
f 226 314 232
f 226 232 231
f 226 231 230
f 226 230 229
f 226 229 227
f 232 314 315
f 232 315 239
f 233 241 234
f 234 241 316
f 234 316 235
f 235 316 236
f 236 317 237
f 236 316 318
f 236 318 317
f 237 319 238
f 237 317 320
f 237 320 321
f 237 321 322
f 237 322 323
f 237 323 324
f 237 324 325
f 237 325 319
f 238 243 242
f 238 319 243
f 239 315 326
f 239 326 240
f 240 326 327
f 240 327 328
f 240 328 329
f 240 329 241
f 241 329 330
f 241 330 331
f 241 331 332
f 241 332 407
f 241 407 316
f 243 319 333
f 243 333 334
f 243 334 335
f 243 335 244
f 244 335 245
f 245 335 336
f 245 336 249
f 245 249 248
f 246 252 256
f 246 256 255
f 246 255 247
f 249 336 337
f 249 337 250
f 250 337 251
f 251 337 252
f 252 337 338
f 252 338 339
f 252 339 256
f 253 340 341
f 253 341 254
f 253 256 339
f 253 339 342
f 253 342 343
f 253 343 340
f 254 341 257
f 257 341 344
f 257 344 345
f 257 345 346
f 257 346 258
f 258 346 259
f 259 346 347
f 259 347 348
f 259 348 260
f 260 349 350
f 260 350 261
f 260 348 349
f 261 350 263
f 261 263 262
f 263 350 351
f 263 351 352
f 263 352 353
f 263 353 264
f 264 353 354
f 264 354 355
f 265 273 356
f 265 356 357
f 265 357 266
f 266 357 267
f 267 357 358
f 267 358 359
f 267 359 360
f 267 360 361
f 267 361 362
f 267 362 268
f 268 362 269
f 269 362 299
f 269 299 270
f 271 275 363
f 271 363 272
f 272 363 356
f 272 356 273
f 274 364 365
f 274 365 366
f 274 366 363
f 274 363 275
f 274 283 282
f 274 282 364
f 277 298 297
f 277 297 279
f 277 279 278
f 279 297 367
f 279 367 280
f 280 367 368
f 280 368 369
f 280 369 370
f 280 370 282
f 280 282 281
f 282 371 372
f 282 372 365
f 282 365 364
f 282 370 373
f 282 373 371
f 284 374 285
f 284 355 374
f 285 374 375
f 285 375 376
f 285 376 377
f 285 377 289
f 285 289 288
f 286 378 287
f 286 289 378
f 287 378 379
f 287 379 380
f 287 380 290
f 289 381 382
f 289 382 383
f 289 383 384
f 289 384 385
f 289 385 386
f 289 386 378
f 289 377 381
f 290 380 291
f 291 380 387
f 291 387 388
f 291 388 292
f 292 388 389
f 292 389 293
f 293 389 294
f 294 390 391
f 294 391 368
f 294 368 367
f 294 367 295
f 294 389 390
f 295 367 296
f 296 367 297
f 299 362 361
f 299 361 392
f 299 392 393
f 299 393 394
f 299 394 395
f 299 395 300
f 300 395 303
f 300 303 301
f 301 303 302
f 303 395 394
f 303 394 305
f 305 394 393
f 305 393 306
f 306 393 396
f 306 396 307
f 307 396 397
f 307 397 308
f 308 397 309
f 309 397 398
f 309 398 310
f 310 398 399
f 310 399 400
f 310 400 401
f 310 401 312
f 310 312 311
f 312 402 403
f 312 403 404
f 312 404 313
f 312 401 400
f 312 400 399
f 312 399 402
f 313 404 314
f 314 405 315
f 314 404 403
f 314 403 405
f 315 405 406
f 315 406 326
f 316 407 408
f 316 408 409
f 316 409 318
f 317 318 409
f 317 409 410
f 317 410 320
f 319 325 411
f 319 411 412
f 319 412 413
f 319 413 414
f 319 414 333
f 320 410 415
f 320 415 321
f 321 416 323
f 321 323 322
f 321 415 410
f 321 410 416
f 323 416 324
f 324 417 325
f 324 416 417
f 325 417 418
f 325 418 419
f 325 419 411
f 326 420 327
f 326 406 421
f 326 421 422
f 326 422 423
f 326 423 424
f 326 424 420
f 327 420 424
f 327 424 425
f 327 425 328
f 328 426 329
f 328 425 427
f 328 427 428
f 328 428 429
f 328 429 430
f 328 430 426
f 329 426 330
f 330 426 431
f 330 431 410
f 330 410 331
f 331 410 332
f 332 410 407
f 333 414 334
f 334 414 432
f 334 432 433
f 334 433 336
f 334 336 335
f 336 433 434
f 336 434 337
f 337 434 435
f 337 435 436
f 337 436 338
f 338 436 437
f 338 437 438
f 338 438 339
f 339 439 343
f 339 343 342
f 339 438 439
f 340 343 440
f 340 440 441
f 340 441 341
f 341 441 442
f 341 442 443
f 341 443 444
f 341 444 344
f 343 439 438
f 343 438 445
f 343 445 440
f 344 444 446
f 344 446 447
f 344 447 345
f 345 447 347
f 345 347 346
f 347 447 448
f 347 448 349
f 347 349 348
f 349 448 449
f 349 449 350
f 350 449 352
f 350 352 351
f 352 449 374
f 352 374 353
f 353 374 354
f 354 374 355
f 356 363 450
f 356 450 451
f 356 451 357
f 357 451 358
f 358 452 453
f 358 453 359
f 358 451 454
f 358 454 452
f 359 453 360
f 360 453 455
f 360 455 361
f 361 455 392
f 363 366 450
f 365 372 456
f 365 456 457
f 365 457 458
f 365 458 459
f 365 459 366
f 366 459 460
f 366 460 461
f 366 461 450
f 368 391 369
f 369 391 462
f 369 462 370
f 370 462 463
f 370 463 464
f 370 464 465
f 370 465 373
f 371 373 466
f 371 466 457
f 371 457 456
f 371 456 372
f 373 465 467
f 373 467 468
f 373 468 466
f 374 449 375
f 375 449 469
f 375 469 470
f 375 470 376
f 376 470 471
f 376 471 472
f 376 472 473
f 376 473 474
f 376 474 475
f 376 475 476
f 376 476 377
f 377 476 477
f 377 477 478
f 377 478 479
f 377 479 382
f 377 382 381
f 378 386 385
f 378 385 480
f 378 480 481
f 378 481 379
f 379 481 482
f 379 482 380
f 380 482 387
f 382 479 483
f 382 483 484
f 382 484 384
f 382 384 383
f 384 484 485
f 384 485 385
f 385 485 486
f 385 486 487
f 385 487 480
f 387 488 388
f 387 482 488
f 388 488 489
f 388 489 490
f 388 490 389
f 389 490 491
f 389 491 390
f 390 492 391
f 390 491 492
f 391 492 493
f 391 493 462
f 392 455 393
f 393 455 494
f 393 494 495
f 393 495 396
f 396 495 398
f 396 398 397
f 398 496 497
f 398 497 498
f 398 498 499
f 398 499 500
f 398 500 501
f 398 501 502
f 398 502 399
f 398 495 496
f 399 502 503
f 399 503 504
f 399 504 403
f 399 403 402
f 403 504 505
f 403 505 506
f 403 506 507
f 403 507 508
f 403 508 509
f 403 509 510
f 403 510 511
f 403 511 512
f 403 512 513
f 403 513 405
f 405 513 514
f 405 514 406
f 406 514 512
f 406 512 515
f 406 515 516
f 406 516 517
f 406 517 423
f 406 423 421
f 407 410 408
f 408 410 409
f 410 430 471
f 410 471 518
f 410 518 418
f 410 418 417
f 410 417 416
f 410 431 426
f 410 426 430
f 411 419 412
f 412 419 519
f 412 519 413
f 413 519 414
f 414 519 432
f 418 518 520
f 418 520 419
f 419 520 521
f 419 521 522
f 419 522 519
f 421 423 422
f 423 517 523
f 423 523 424
f 424 523 524
f 424 524 425
f 425 524 525
f 425 525 526
f 425 526 527
f 425 527 528
f 425 528 427
f 427 528 428
f 428 528 529
f 428 529 530
f 428 530 531
f 428 531 429
f 429 531 430
f 430 531 532
f 430 532 533
f 430 533 534
f 430 534 535
f 430 535 471
f 432 519 522
f 432 522 521
f 432 521 536
f 432 536 437
f 432 437 433
f 433 437 435
f 433 435 434
f 435 437 436
f 437 536 438
f 438 521 445
f 438 536 521
f 440 445 441
f 441 537 442
f 441 445 538
f 441 538 537
f 442 537 443
f 443 539 540
f 443 540 541
f 443 541 444
f 443 537 542
f 443 542 543
f 443 543 539
f 444 541 544
f 444 544 446
f 445 521 545
f 445 545 542
f 445 542 538
f 446 544 546
f 446 546 449
f 446 449 448
f 446 448 447
f 449 546 544
f 449 544 547
f 449 547 469
f 450 548 549
f 450 549 451
f 450 461 548
f 451 549 454
f 452 454 550
f 452 550 453
f 453 550 551
f 453 551 455
f 454 549 550
f 455 551 494
f 457 552 458
f 457 466 553
f 457 553 552
f 458 552 499
f 458 499 498
f 458 498 554
f 458 554 459
f 459 554 460
f 460 554 555
f 460 555 556
f 460 556 548
f 460 548 461
f 462 493 463
f 463 493 557
f 463 557 464
f 464 558 465
f 464 557 559
f 464 559 558
f 465 558 467
f 466 560 553
f 466 468 560
f 467 558 561
f 467 561 468
f 468 561 562
f 468 562 534
f 468 534 533
f 468 533 508
f 468 508 507
f 468 507 560
f 469 547 563
f 469 563 564
f 469 564 565
f 469 565 566
f 469 566 470
f 470 566 567
f 470 567 568
f 470 568 471
f 471 569 570
f 471 570 518
f 471 535 472
f 471 568 567
f 471 567 569
f 472 535 473
f 473 535 474
f 474 535 475
f 475 535 571
f 475 571 476
f 476 571 572
f 476 572 573
f 476 573 574
f 476 574 575
f 476 575 576
f 476 576 477
f 477 576 575
f 477 575 478
f 478 575 479
f 479 575 483
f 480 487 577
f 480 577 481
f 481 577 578
f 481 578 482
f 482 578 579
f 482 579 580
f 482 580 488
f 483 575 573
f 483 573 581
f 483 581 484
f 484 581 582
f 484 582 583
f 484 583 584
f 484 584 485
f 485 584 486
f 486 584 487
f 487 584 585
f 487 585 586
f 487 586 577
f 488 580 489
f 489 580 587
f 489 587 588
f 489 588 490
f 490 588 589
f 490 589 492
f 490 492 491
f 492 557 493
f 492 589 557
f 494 551 495
f 495 551 590
f 495 590 496
f 496 590 555
f 496 555 497
f 497 555 554
f 497 554 498
f 499 552 591
f 499 591 500
f 500 591 501
f 501 591 592
f 501 592 593
f 501 593 502
f 502 593 505
f 502 505 503
f 503 505 594
f 503 594 504
f 504 594 505
f 505 593 592
f 505 592 553
f 505 553 560
f 505 560 595
f 505 595 507
f 505 507 506
f 507 595 560
f 508 533 509
f 509 533 596
f 509 596 597
f 509 597 510
f 510 516 515
f 510 515 511
f 510 597 516
f 511 515 512
f 512 514 513
f 516 597 598
f 516 598 517
f 517 598 523
f 518 570 520
f 520 570 545
f 520 545 521
f 523 598 599
f 523 599 524
f 524 599 525
f 525 599 526
f 526 599 600
f 526 600 601
f 526 601 527
f 527 601 528
f 528 601 602
f 528 602 529
f 529 602 533
f 529 533 530
f 530 533 532
f 530 532 531
f 533 602 600
f 533 600 596
f 534 562 571
f 534 571 535
f 537 538 542
f 539 567 603
f 539 603 540
f 539 543 604
f 539 604 605
f 539 605 567
f 540 603 541
f 541 603 563
f 541 563 544
f 542 545 543
f 543 545 604
f 544 563 547
f 545 570 604
f 548 556 549
f 549 556 606
f 549 606 590
f 549 590 551
f 549 551 550
f 552 553 591
f 553 592 591
f 555 590 556
f 556 590 606
f 557 589 559
f 558 559 607
f 558 607 608
f 558 608 609
f 558 609 561
f 559 589 588
f 559 588 587
f 559 587 610
f 559 610 611
f 559 611 607
f 561 609 612
f 561 612 562
f 562 612 613
f 562 613 571
f 563 603 564
f 564 603 567
f 564 567 565
f 565 567 566
f 567 605 569
f 569 605 570
f 570 605 604
f 571 614 572
f 571 613 614
f 572 614 615
f 572 615 613
f 572 613 573
f 573 613 616
f 573 616 617
f 573 617 581
f 573 575 574
f 577 586 618
f 577 618 619
f 577 619 578
f 578 619 620
f 578 620 580
f 578 580 579
f 580 620 621
f 580 621 610
f 580 610 587
f 581 617 582
f 582 617 583
f 583 622 584
f 583 617 622
f 584 622 585
f 585 622 586
f 586 622 623
f 586 623 624
f 586 624 618
f 596 600 599
f 596 599 597
f 597 599 598
f 600 602 601
f 607 611 625
f 607 625 621
f 607 621 608
f 608 621 626
f 608 626 609
f 609 626 627
f 609 627 612
f 610 625 611
f 610 621 625
f 612 627 628
f 612 628 617
f 612 617 616
f 612 616 613
f 613 615 614
f 617 629 622
f 617 628 629
f 618 624 630
f 618 630 619
f 619 630 620
f 620 630 631
f 620 631 621
f 621 632 626
f 621 631 632
f 622 629 623
f 623 629 633
f 623 633 624
f 624 634 630
f 624 633 635
f 624 635 634
f 626 632 634
f 626 634 635
f 626 635 627
f 627 635 629
f 627 629 628
f 629 635 633
f 630 634 632
f 630 632 631

