# https://github.com/mikedh/trimesh
v -0.04727947 0.00961537 -0.06190615
v -0.06405207 0.00961537 -0.06135513
v -0.06000830 0.05854638 -0.06296497
v -0.04727947 0.05794867 -0.06326749
v -0.04727947 0.00961537 -0.05570447
v -0.06539798 0.00961537 -0.06107422
v -0.06270415 0.05854638 -0.06274889
v -0.06135622 0.05854638 -0.06290015
v -0.06000830 0.05989395 -0.06297578
v -0.05865836 0.05989395 -0.06300819
v -0.04727947 0.05854638 -0.06326749
v -0.05203744 0.00961537 -0.05061563
v -0.04727947 0.02080348 -0.05589895
v -0.05606713 0.01009897 0.04708786
v -0.05846523 0.00982728 0.00049962
v -0.06616650 0.00961537 -0.06075009
v -0.06502579 0.05989395 -0.06216545
v -0.06405207 0.05854638 -0.06245717
v -0.06405207 0.05989395 -0.06247878
v -0.06270415 0.05989395 -0.06275969
v -0.06135622 0.05989395 -0.06291095
v -0.06135622 0.06124153 -0.06271647
v -0.06000830 0.06124153 -0.06277050
v -0.05865836 0.06124153 -0.06280291
v -0.05326867 0.06124153 -0.06291095
v -0.05192075 0.06124153 -0.06293256
v -0.04727947 0.06064925 -0.06308382
v -0.04727947 0.05989395 -0.06318106
v -0.04727947 0.05929624 -0.06323508
v -0.05267921 0.00961537 -0.05001059
v -0.04727947 0.06129587 -0.05672007
v -0.05658417 0.05866592 0.04708786
v -0.06283290 0.01009897 0.04708786
v -0.04727947 0.06259453 -0.05679571
v -0.06487491 0.00982728 0.00049962
v -0.06655277 0.00961537 -0.06022068
v -0.06627313 0.01945591 -0.06083652
v -0.06570579 0.06124153 -0.06186293
v -0.06502982 0.06124153 -0.06214384
v -0.06405207 0.06124153 -0.06239234
v -0.06270415 0.06124153 -0.06260843
v -0.06405207 0.06246956 -0.06217626
v -0.06405207 0.06314334 -0.06199258
v -0.06264379 0.06270864 -0.06220867
v -0.06135622 0.06259453 -0.06231671
v -0.06000830 0.06259453 -0.06238154
v -0.05865836 0.06259453 -0.06243556
v -0.05326867 0.06259453 -0.06261923
v -0.04922490 0.06259453 -0.06274889
v -0.04727947 0.06199682 -0.06286773
v -0.06702153 0.00961537 -0.05001059
v -0.05664452 0.06214353 0.04708786
v -0.06403396 0.05989395 0.04708786
v -0.06410639 0.05989395 0.04651523
v -0.06423313 0.05989395 0.04516469
v -0.06431562 0.05989395 0.04381415
v -0.06303207 0.01009897 0.04381415
v -0.04727947 0.06272494 -0.05686053
v -0.06665537 0.00982728 -0.03841755
v -0.06718247 0.00961537 -0.05326269
v -0.06712011 0.00961537 -0.05191215
v -0.06310450 0.01009897 0.04255005
v -0.06318296 0.01009897 0.04112388
v -0.06670969 0.00961537 -0.06000459
v -0.06681632 0.01676076 -0.06000459
v -0.06724685 0.05989395 -0.06027470
v -0.06660910 0.06124153 -0.06119307
v -0.06652662 0.06259453 -0.06113904
v -0.06538792 0.06264887 -0.06183052
v -0.06492922 0.06222504 -0.06208982
v -0.06539798 0.06371389 -0.06117146
v -0.06405207 0.06378453 -0.06131191
v -0.06305018 0.06324115 -0.06201419
v -0.05865836 0.06343677 -0.06213304
v -0.05461861 0.06355087 -0.06221947
v -0.04922490 0.06364868 -0.06232752
v -0.04787497 0.06365955 -0.06233832
v -0.04787497 0.06259453 -0.06275969
v -0.04727947 0.06259453 -0.06275969
v -0.05670085 0.06288252 0.04708786
v -0.04727947 0.06368128 -0.05735753
v -0.06390118 0.06124153 0.04708786
v -0.06397562 0.06124153 0.04651523
v -0.06411041 0.06124153 0.04516469
v -0.06420094 0.06124153 0.04381415
v -0.06642602 0.05854638 -0.00471887
v -0.06636969 0.05719881 -0.00337913
v -0.06670969 0.00982728 -0.03976809
v -0.06642602 0.05719881 -0.00471887
v -0.06724283 0.01001747 -0.05461323
v -0.06722875 0.00961537 -0.05461323
v -0.06708591 0.00961537 -0.05904300
v -0.06724685 0.01001747 -0.05865405
v -0.06751644 0.05989395 -0.05959403
v -0.06730922 0.06137194 -0.05998298
v -0.06706579 0.06259453 -0.06000459
v -0.06630330 0.06351827 -0.06092295
v -0.06539798 0.06421923 -0.06000459
v -0.06405207 0.06434421 -0.06000459
v -0.05461861 0.06407795 -0.06135513
v -0.04787497 0.06417032 -0.06135513
v -0.04727947 0.06365955 -0.06233832
v -0.05677127 0.06317051 0.04708786
v -0.04727947 0.06389320 -0.05784372
v -0.06378248 0.06165993 0.04708786
v -0.06361148 0.06235545 0.04651523
v -0.06368189 0.06245869 0.04516469
v -0.06631135 0.05989395 -0.00606941
v -0.06373018 0.06251846 0.04381415
v -0.06753856 0.06221417 -0.05461323
v -0.06647029 0.05854638 -0.00606941
v -0.06727099 0.01136504 -0.05461323
v -0.06783229 0.05989395 -0.05595297
v -0.06737762 0.01676076 -0.05595297
v -0.06728508 0.01001747 -0.05595297
v -0.06727099 0.00961537 -0.05595297
v -0.06723076 0.00961537 -0.05865405
v -0.06728105 0.00961537 -0.05770327
v -0.06731525 0.01001747 -0.05730351
v -0.06739774 0.01676076 -0.05730351
v -0.06732330 0.01676076 -0.05865405
v -0.06770353 0.05989395 -0.05865405
v -0.06749028 0.06100787 -0.05951839
v -0.06742188 0.06190988 -0.05931311
v -0.06645017 0.06367585 -0.06000459
v -0.06748425 0.06204572 -0.05841635
v -0.06753253 0.06215983 -0.05730351
v -0.06720863 0.06253476 -0.05878370
v -0.06717845 0.06283362 -0.05730351
v -0.06648236 0.06372476 -0.05865405
v -0.06539798 0.06427900 -0.05865405
v -0.04787497 0.06427900 -0.06000459
v -0.04727947 0.06423010 -0.06059883
v -0.04727947 0.06417032 -0.06135513
v -0.06405207 0.06440941 -0.05595297
v -0.05707907 0.06397471 0.04708786
v -0.04727947 0.06416489 -0.05865405
v -0.06357326 0.06229024 0.04708786
v -0.06324130 0.06302923 0.04651523
v -0.06321515 0.06296946 0.04708786
v -0.06329361 0.06313248 0.04516469
v -0.06772969 0.06124153 -0.05461323
v -0.06333183 0.06319768 0.04381415
v -0.06340024 0.06463763 0.02169770
v -0.06723679 0.06289339 -0.05461323
v -0.06755667 0.06222504 -0.05595297
v -0.06776993 0.06124153 -0.05595297
v -0.06730519 0.01136504 -0.05595297
v -0.06782425 0.05989395 -0.05730351
v -0.06729916 0.00961537 -0.05730351
v -0.06757679 0.06137194 -0.05878370
v -0.06774176 0.06124153 -0.05730351
v -0.06722271 0.06289882 -0.05595297
v -0.06654674 0.06374106 -0.05595297
v -0.06539798 0.06431160 -0.05595297
v -0.06475822 0.06462676 -0.03667805
v -0.04727947 0.06426813 -0.06000459
v -0.06405207 0.06446375 -0.05191215
v -0.06405207 0.06448005 -0.05056161
v -0.06434580 0.06462676 -0.03667805
v -0.06001031 0.06508863 0.04112388
v -0.06001031 0.06512667 0.04708786
v -0.05738085 0.06441484 0.04708786
v -0.04727947 0.06421380 -0.05924829
v -0.05772286 0.06476260 0.04708786
v -0.06295562 0.06342046 0.04708786
v -0.06263172 0.06394210 0.04708786
v -0.06267598 0.06394210 0.04651523
v -0.06212273 0.06471370 0.04708786
v -0.06214083 0.06473000 0.04651523
v -0.06219314 0.06476804 0.04246361
v -0.06135622 0.06499082 0.04651523
v -0.06349680 0.06470827 0.01010466
v -0.06475822 0.06462676 -0.03620266
v -0.06656082 0.06374106 -0.05461323
v -0.06653869 0.06373019 -0.05326269
v -0.06633549 0.06364325 -0.04381971
v -0.06631336 0.06362152 -0.04246917
v -0.06539798 0.06433334 -0.05056161
v -0.06135622 0.06501256 0.04112388
v -0.05923576 0.06506146 0.04708786
v -0.05866037 0.06501256 0.04708786
v -0.06135622 0.06501256 0.04246361
v -0.06135622 0.06497996 0.04708786
v -0.06243053 0.06425726 0.04708786
v -0.06357526 0.06472457 0.00202303
f 1 2 3
f 1 3 4
f 1 4 11
f 1 11 29
f 1 29 28
f 1 28 27
f 1 27 50
f 1 50 79
f 1 79 102
f 1 102 134
f 1 134 133
f 1 133 157
f 1 157 164
f 1 164 137
f 1 137 104
f 1 104 81
f 1 81 58
f 1 58 34
f 1 34 31
f 1 31 13
f 1 13 5
f 1 5 12
f 1 12 30
f 1 30 51
f 1 51 61
f 1 61 60
f 1 60 91
f 1 91 116
f 1 116 150
f 1 150 118
f 1 118 117
f 1 117 92
f 1 92 64
f 1 64 36
f 1 36 16
f 1 16 6
f 1 6 2
f 2 6 7
f 2 7 8
f 2 8 3
f 3 9 4
f 3 8 21
f 3 21 9
f 4 9 10
f 4 10 11
f 5 13 14
f 5 14 15
f 5 15 12
f 6 16 17
f 6 17 18
f 6 18 7
f 7 18 19
f 7 19 20
f 7 20 21
f 7 21 8
f 9 21 22
f 9 22 23
f 9 23 24
f 9 24 10
f 10 24 25
f 10 25 26
f 10 26 27
f 10 27 28
f 10 28 29
f 10 29 11
f 12 15 30
f 13 31 14
f 14 32 52
f 14 52 80
f 14 80 103
f 14 103 136
f 14 136 163
f 14 163 165
f 14 165 182
f 14 182 181
f 14 181 162
f 14 162 184
f 14 184 169
f 14 169 185
f 14 185 167
f 14 167 166
f 14 166 140
f 14 140 138
f 14 138 105
f 14 105 82
f 14 82 53
f 14 53 33
f 14 33 35
f 14 35 15
f 14 31 34
f 14 34 32
f 15 35 51
f 15 51 30
f 16 36 37
f 16 37 38
f 16 38 17
f 17 39 19
f 17 19 18
f 17 38 39
f 19 39 40
f 19 40 20
f 20 40 41
f 20 41 21
f 21 41 22
f 22 41 42
f 22 42 43
f 22 43 44
f 22 44 45
f 22 45 46
f 22 46 23
f 23 46 47
f 23 47 48
f 23 48 49
f 23 49 24
f 24 49 25
f 25 49 26
f 26 49 27
f 27 49 50
f 32 34 52
f 33 53 54
f 33 54 55
f 33 55 56
f 33 56 57
f 33 57 35
f 34 58 52
f 35 59 60
f 35 60 61
f 35 61 51
f 35 57 62
f 35 62 63
f 35 63 59
f 36 64 37
f 37 64 65
f 37 65 66
f 37 66 67
f 37 67 38
f 38 67 68
f 38 68 69
f 38 69 70
f 38 70 39
f 39 70 40
f 40 70 41
f 41 70 42
f 42 70 43
f 43 69 71
f 43 71 72
f 43 72 73
f 43 73 45
f 43 45 44
f 43 70 69
f 45 73 46
f 46 73 74
f 46 74 47
f 47 74 48
f 48 74 49
f 49 74 75
f 49 75 76
f 49 76 77
f 49 77 78
f 49 78 50
f 50 78 79
f 52 58 81
f 52 81 80
f 53 82 83
f 53 83 54
f 54 83 84
f 54 84 55
f 55 84 85
f 55 85 56
f 56 63 62
f 56 62 57
f 56 85 86
f 56 86 87
f 56 87 63
f 59 88 60
f 59 63 87
f 59 87 89
f 59 89 88
f 60 90 91
f 60 88 90
f 64 92 93
f 64 93 65
f 65 94 66
f 65 93 94
f 66 94 95
f 66 95 67
f 67 95 68
f 68 95 96
f 68 96 97
f 68 97 69
f 69 97 71
f 71 97 98
f 71 98 72
f 72 98 99
f 72 99 100
f 72 100 75
f 72 75 74
f 72 74 73
f 75 100 76
f 76 100 101
f 76 101 77
f 77 102 79
f 77 79 78
f 77 101 134
f 77 134 102
f 80 81 104
f 80 104 103
f 82 105 83
f 83 105 84
f 84 105 106
f 84 106 107
f 84 107 85
f 85 108 86
f 85 107 109
f 85 109 110
f 85 110 108
f 86 108 111
f 86 111 89
f 86 89 87
f 88 89 112
f 88 112 90
f 89 111 113
f 89 113 114
f 89 114 112
f 90 112 115
f 90 115 116
f 90 116 91
f 92 117 93
f 93 117 118
f 93 118 119
f 93 119 120
f 93 120 121
f 93 121 94
f 94 121 122
f 94 122 123
f 94 123 95
f 95 123 124
f 95 124 96
f 96 125 97
f 96 124 126
f 96 126 127
f 96 127 128
f 96 128 129
f 96 129 125
f 97 125 98
f 98 125 130
f 98 130 131
f 98 131 99
f 99 132 133
f 99 133 134
f 99 134 101
f 99 101 100
f 99 131 135
f 99 135 132
f 103 104 137
f 103 137 136
f 105 138 106
f 106 139 107
f 106 138 140
f 106 140 139
f 107 139 141
f 107 141 109
f 108 110 142
f 108 142 111
f 109 141 143
f 109 143 144
f 109 144 145
f 109 145 110
f 110 145 146
f 110 146 147
f 110 147 142
f 111 142 147
f 111 147 113
f 112 114 148
f 112 148 115
f 113 147 149
f 113 149 120
f 113 120 114
f 114 120 119
f 114 119 148
f 115 148 119
f 115 119 116
f 116 119 150
f 118 150 119
f 120 149 121
f 121 149 122
f 122 151 123
f 122 149 152
f 122 152 151
f 123 151 124
f 124 151 126
f 125 129 153
f 125 153 130
f 126 151 152
f 126 152 127
f 127 129 128
f 127 152 146
f 127 146 153
f 127 153 129
f 130 153 154
f 130 154 131
f 131 154 155
f 131 155 156
f 131 156 135
f 132 157 133
f 132 135 158
f 132 158 159
f 132 159 160
f 132 160 161
f 132 161 162
f 132 162 157
f 135 156 158
f 136 137 163
f 137 164 165
f 137 165 163
f 139 140 166
f 139 166 141
f 141 166 167
f 141 167 168
f 141 168 143
f 143 168 169
f 143 169 170
f 143 170 144
f 144 170 171
f 144 171 172
f 144 172 173
f 144 173 174
f 144 174 175
f 144 175 176
f 144 176 177
f 144 177 178
f 144 178 145
f 145 178 177
f 145 177 176
f 145 176 175
f 145 175 153
f 145 153 146
f 146 152 147
f 147 152 149
f 153 175 154
f 154 175 155
f 155 175 179
f 155 179 156
f 156 159 158
f 156 179 174
f 156 174 183
f 156 183 180
f 156 180 162
f 156 162 160
f 156 160 159
f 157 162 181
f 157 181 182
f 157 182 165
f 157 165 164
f 160 162 161
f 162 180 183
f 162 183 172
f 162 172 184
f 167 185 168
f 168 185 169
f 169 184 170
f 170 172 171
f 170 184 172
f 172 183 173
f 173 186 174
f 173 183 186
f 174 186 183
f 174 179 175

