# https://github.com/mikedh/trimesh
v -0.06403580 0.05990166 0.04709866
v -0.06270386 0.05990166 0.06270489
v -0.06266587 0.06125015 0.06270489
v -0.06390071 0.06125015 0.04709866
v -0.06283473 0.01008817 0.04709866
v -0.06241890 0.01008817 0.05739441
v -0.06223315 0.01008817 0.06135668
v -0.06222892 0.01008817 0.06143696
v -0.06231125 0.01405815 0.06135668
v -0.06222259 0.01540665 0.06270489
v -0.06249489 0.05990166 0.06405309
v -0.06206005 0.01008817 0.06355909
v -0.06205372 0.01008817 0.06360026
v -0.06243789 0.06125015 0.06405309
v -0.06217193 0.06257168 0.06396047
v -0.06236190 0.06259865 0.06270489
v -0.06378250 0.06166010 0.04709866
v -0.05606104 0.01008817 0.04709866
v -0.06214660 0.01008817 0.06270489
v -0.06218670 0.05990166 0.06505549
v -0.06215504 0.06125015 0.06497728
v -0.06194185 0.01008817 0.06423422
v -0.06208750 0.06210240 0.06484143
v -0.06194185 0.06300320 0.06434743
v -0.06204739 0.06329987 0.06345000
v -0.06207905 0.06335920 0.06270489
v -0.06357353 0.06230198 0.04709866
v -0.04447040 0.01008817 0.05795427
v -0.05658031 0.05867183 0.04709866
v -0.04247355 0.06125015 0.06022049
v -0.06180253 0.05855316 0.06569975
v -0.06178987 0.05990166 0.06572857
v -0.06201573 0.03024011 0.06463560
v -0.06150912 0.01008817 0.06540335
v -0.06174765 0.06125015 0.06565035
v -0.06166321 0.06257168 0.06533543
v -0.06081888 0.06348866 0.06622874
v -0.06098986 0.06394175 0.06528603
v -0.06152601 0.06382848 0.06396047
v -0.06161889 0.06403345 0.06270489
v -0.06170543 0.06413054 0.06135668
v -0.06212338 0.06345629 0.06135668
v -0.06321680 0.06297623 0.04709866
v -0.06216771 0.06353720 0.06000848
v -0.04316590 0.01008817 0.05935188
v -0.05664152 0.06214555 0.04709866
v -0.04247355 0.06259865 0.06023695
v -0.04247355 0.01008817 0.06009493
v -0.06147535 0.01008817 0.06545687
v -0.06092442 0.01008817 0.06631931
v -0.06111651 0.05990166 0.06646133
v -0.06107218 0.06125015 0.06644898
v -0.06096875 0.02484613 0.06640576
v -0.06108484 0.04506819 0.06644692
v -0.06112706 0.05855316 0.06646339
v -0.06096241 0.06259865 0.06637282
v -0.05992388 0.06394175 0.06643663
v -0.05941939 0.06465376 0.06611759
v -0.06031861 0.06438406 0.06565653
v -0.06069645 0.06463218 0.06475704
v -0.05993443 0.06260944 0.06709736
v -0.06079144 0.06471309 0.06405309
v -0.06094553 0.06483176 0.06270489
v -0.06174132 0.06421145 0.06000848
v -0.06103207 0.06488031 0.06135668
v -0.06295927 0.06342393 0.04709866
v -0.06206216 0.06465376 0.05028701
v -0.05669640 0.06288992 0.04709866
v -0.05676817 0.06317581 0.04709866
v -0.04247355 0.06360193 0.06047366
v -0.04247355 0.01008817 0.06675773
v -0.06000831 0.01008817 0.06691828
v -0.06000831 0.01945214 0.06699650
v -0.06024684 0.05990166 0.06713646
v -0.06019618 0.06125015 0.06712205
v -0.06023840 0.05855316 0.06713852
v -0.05865949 0.06308950 0.06738140
v -0.05865949 0.06394715 0.06682771
v -0.05865949 0.06472388 0.06619787
v -0.05865949 0.06495582 0.06540335
v -0.05992388 0.06474006 0.06528603
v -0.06000831 0.06495582 0.06405309
v -0.05943417 0.06216713 0.06746991
v -0.06000831 0.06509067 0.06270489
v -0.06000831 0.06515540 0.06135668
v -0.06000831 0.06518237 0.06000848
v -0.06106796 0.06489110 0.06000848
v -0.06212338 0.06471849 0.04709866
v -0.06263420 0.06394715 0.04709866
v -0.06243156 0.06426539 0.04709866
v -0.05707424 0.06398490 0.04709866
v -0.05737821 0.06442182 0.04709866
v -0.04247355 0.06428157 0.06105617
v -0.04247355 0.01009896 0.06681331
v -0.04247988 0.01008817 0.06681331
v -0.05992810 0.01008817 0.06694298
v -0.05865949 0.05990166 0.06783629
v -0.05956293 0.05855316 0.06754401
v -0.05957137 0.05990166 0.06755019
v -0.05952282 0.06125015 0.06751931
v -0.05865949 0.06241525 0.06756048
v -0.05731066 0.06253392 0.06765722
v -0.05731066 0.06320817 0.06739787
v -0.05731066 0.06394715 0.06693063
v -0.05731066 0.06480479 0.06628432
v -0.05731066 0.06503134 0.06540335
v -0.05865949 0.06508528 0.06405309
v -0.05865949 0.06125015 0.06775808
v -0.05191957 0.06504213 0.06405309
v -0.04787308 0.06500976 0.06405309
v -0.06000831 0.06519316 0.05866028
v -0.06135715 0.06498279 0.04709866
v -0.06109962 0.06490188 0.05866028
v -0.06135715 0.06497200 0.04787465
v -0.05772016 0.06476703 0.04709866
v -0.04247355 0.06471849 0.06172924
v -0.05596183 0.01136115 0.06734230
v -0.04247355 0.05990166 0.06709736
v -0.04247988 0.05990166 0.06709941
v -0.04579179 0.06046802 0.06743286
v -0.04922191 0.05990166 0.06773749
v -0.05057074 0.05990166 0.06783835
v -0.05461511 0.05990166 0.06809564
v -0.05596183 0.01008817 0.06730936
v -0.05865949 0.01008817 0.06730113
v -0.05731066 0.05990166 0.06805859
v -0.05731066 0.06125015 0.06796803
v -0.05596183 0.06251235 0.06769015
v -0.05596183 0.06125015 0.06804419
v -0.05596183 0.06318659 0.06738140
v -0.05596183 0.06394715 0.06692240
v -0.05596183 0.06481018 0.06629255
v -0.05596183 0.06503134 0.06540335
v -0.04247355 0.06492346 0.06404692
v -0.04247355 0.06492346 0.06405309
v -0.06000831 0.06515540 0.04922286
v -0.06000831 0.06514461 0.04787465
v -0.06000831 0.06512843 0.04709866
v -0.05865949 0.06500976 0.04709866
v -0.04247355 0.06486952 0.06270077
v -0.05731066 0.01008817 0.06733818
v -0.05596183 0.05990166 0.06812652
v -0.04247355 0.05990705 0.06709736
v -0.04247988 0.06125015 0.06699032
v -0.04579179 0.06061906 0.06743286
v -0.04922191 0.06125015 0.06769839
v -0.05057074 0.06125015 0.06779307
v -0.05326628 0.06125015 0.06795980
v -0.05461511 0.06125015 0.06803183
v -0.05461511 0.06246380 0.06768398
v -0.05461511 0.06313805 0.06735053
v -0.04332422 0.06461061 0.06606202
v -0.04422343 0.06462679 0.06608260
v -0.04787308 0.06469152 0.06615053
v -0.05057074 0.06473467 0.06619787
v -0.05057074 0.06494503 0.06540335
v -0.04787308 0.06489110 0.06540335
v -0.04652426 0.06485873 0.06540335
v -0.04247988 0.06477243 0.06531278
v -0.04247355 0.06477243 0.06530455
v -0.05923363 0.06506370 0.04709866
v -0.04247355 0.06125555 0.06698826
v -0.04652426 0.06089415 0.06747403
v -0.04247355 0.06259865 0.06666717
v -0.04729260 0.06185428 0.06741434
v -0.04779498 0.06134185 0.06754607
v -0.04819182 0.06202149 0.06746579
v -0.04922191 0.06213477 0.06751313
v -0.05057074 0.06223725 0.06756048
v -0.05191957 0.06232356 0.06760576
v -0.05326628 0.06239907 0.06765105
v -0.05326628 0.06307332 0.06731965
v -0.04247988 0.06386084 0.06626373
v -0.04247988 0.06453509 0.06598586
v -0.04247355 0.06452970 0.06598586
v -0.04247355 0.06386084 0.06626167
f 1 2 3
f 1 3 4
f 1 4 17
f 1 17 27
f 1 27 43
f 1 43 66
f 1 66 89
f 1 89 90
f 1 90 88
f 1 88 112
f 1 112 138
f 1 138 161
f 1 161 139
f 1 139 115
f 1 115 92
f 1 92 91
f 1 91 69
f 1 69 68
f 1 68 46
f 1 46 29
f 1 29 18
f 1 18 5
f 1 5 6
f 1 6 7
f 1 7 8
f 1 8 9
f 1 9 10
f 1 10 2
f 2 11 3
f 2 10 12
f 2 12 13
f 2 13 11
f 3 11 14
f 3 14 15
f 3 15 16
f 3 16 4
f 4 16 17
f 5 18 28
f 5 28 45
f 5 45 48
f 5 48 71
f 5 71 95
f 5 95 124
f 5 124 141
f 5 141 125
f 5 125 96
f 5 96 72
f 5 72 50
f 5 50 49
f 5 49 34
f 5 34 22
f 5 22 13
f 5 13 12
f 5 12 19
f 5 19 8
f 5 8 7
f 5 7 6
f 8 19 9
f 9 19 10
f 10 19 12
f 11 20 21
f 11 21 14
f 11 13 22
f 11 22 20
f 14 21 23
f 14 23 15
f 15 23 24
f 15 24 25
f 15 25 16
f 16 25 26
f 16 26 27
f 16 27 17
f 18 29 30
f 18 30 28
f 20 31 32
f 20 32 21
f 20 22 33
f 20 33 34
f 20 34 31
f 21 32 35
f 21 35 23
f 22 34 33
f 23 36 24
f 23 35 36
f 24 36 37
f 24 37 38
f 24 38 39
f 24 39 25
f 25 39 40
f 25 40 41
f 25 41 26
f 26 41 42
f 26 42 27
f 27 42 44
f 27 44 43
f 28 30 45
f 29 46 47
f 29 47 30
f 30 48 45
f 30 47 70
f 30 70 93
f 30 93 116
f 30 116 140
f 30 140 134
f 30 134 135
f 30 135 160
f 30 160 175
f 30 175 176
f 30 176 164
f 30 164 162
f 30 162 143
f 30 143 118
f 30 118 94
f 30 94 71
f 30 71 48
f 31 34 49
f 31 49 50
f 31 50 32
f 32 51 52
f 32 52 35
f 32 50 53
f 32 53 54
f 32 54 55
f 32 55 51
f 35 52 56
f 35 56 36
f 36 56 37
f 37 57 58
f 37 58 59
f 37 59 60
f 37 60 38
f 37 56 61
f 37 61 57
f 38 60 39
f 39 60 62
f 39 62 40
f 40 62 63
f 40 63 41
f 41 64 44
f 41 44 42
f 41 63 65
f 41 65 64
f 43 44 66
f 44 64 67
f 44 67 66
f 46 68 47
f 47 68 69
f 47 69 70
f 50 72 73
f 50 73 53
f 51 74 52
f 51 55 74
f 52 74 75
f 52 75 56
f 53 73 76
f 53 76 54
f 54 76 55
f 55 76 74
f 56 75 61
f 57 61 77
f 57 77 78
f 57 78 58
f 58 79 80
f 58 80 81
f 58 81 60
f 58 60 59
f 58 78 79
f 60 81 82
f 60 82 62
f 61 75 83
f 61 83 77
f 62 82 63
f 63 82 84
f 63 84 65
f 64 65 67
f 65 84 85
f 65 85 86
f 65 86 87
f 65 87 88
f 65 88 67
f 66 67 89
f 67 88 90
f 67 90 89
f 69 91 70
f 70 91 92
f 70 92 93
f 71 94 95
f 72 96 97
f 72 97 98
f 72 98 73
f 73 98 99
f 73 99 76
f 74 99 75
f 74 76 99
f 75 99 100
f 75 100 83
f 77 83 101
f 77 101 102
f 77 102 103
f 77 103 104
f 77 104 78
f 78 104 105
f 78 105 79
f 79 105 80
f 80 106 107
f 80 107 84
f 80 84 82
f 80 82 81
f 80 105 106
f 83 100 108
f 83 108 101
f 84 107 85
f 85 107 109
f 85 109 86
f 86 109 110
f 86 110 111
f 86 111 112
f 86 112 113
f 86 113 87
f 87 113 88
f 88 113 114
f 88 114 112
f 92 115 93
f 93 115 116
f 94 117 95
f 94 118 119
f 94 119 120
f 94 120 121
f 94 121 122
f 94 122 123
f 94 123 117
f 95 117 124
f 96 125 97
f 97 126 108
f 97 108 100
f 97 100 99
f 97 99 98
f 97 125 126
f 101 108 127
f 101 127 102
f 102 128 103
f 102 127 129
f 102 129 128
f 103 128 130
f 103 130 131
f 103 131 104
f 104 131 132
f 104 132 105
f 105 132 106
f 106 133 107
f 106 132 133
f 107 133 109
f 108 126 127
f 109 133 110
f 110 134 111
f 110 133 135
f 110 135 134
f 111 134 136
f 111 136 112
f 112 114 113
f 112 136 137
f 112 137 138
f 115 139 116
f 116 139 140
f 117 141 124
f 117 123 142
f 117 142 141
f 118 143 119
f 119 143 162
f 119 162 144
f 119 144 145
f 119 145 120
f 120 145 121
f 121 145 146
f 121 146 122
f 122 146 147
f 122 147 123
f 123 147 148
f 123 148 149
f 123 149 142
f 125 141 142
f 125 142 126
f 126 142 129
f 126 129 127
f 128 150 130
f 128 129 149
f 128 149 150
f 129 142 149
f 130 150 151
f 130 151 152
f 130 152 131
f 131 152 153
f 131 153 154
f 131 154 155
f 131 155 132
f 132 155 156
f 132 156 133
f 133 156 135
f 134 140 138
f 134 138 137
f 134 137 136
f 135 156 157
f 135 157 158
f 135 158 159
f 135 159 160
f 138 140 161
f 139 161 140
f 144 163 145
f 144 162 164
f 144 164 165
f 144 165 166
f 144 166 163
f 145 163 146
f 146 163 166
f 146 166 165
f 146 165 167
f 146 167 147
f 147 167 168
f 147 168 148
f 148 168 169
f 148 169 149
f 149 169 170
f 149 170 171
f 149 171 150
f 150 171 172
f 150 172 151
f 151 172 152
f 152 172 171
f 152 171 170
f 152 170 169
f 152 169 168
f 152 168 167
f 152 167 173
f 152 173 174
f 152 174 159
f 152 159 158
f 152 158 157
f 152 157 153
f 153 157 154
f 154 157 155
f 155 157 156
f 159 174 160
f 160 174 175
f 164 176 173
f 164 173 167
f 164 167 165
f 173 176 174
f 174 176 175

