# https://github.com/mikedh/trimesh
v -0.04727746 0.06426575 -0.06001091
v -0.04727746 0.06422251 -0.06060416
v -0.04727746 0.06421169 -0.05925720
v 0.06000517 0.06356839 -0.04652653
v 0.04247006 0.06352514 -0.06405179
v -0.04727746 0.06416304 -0.06135787
v -0.04727746 0.06415764 -0.05866184
v 0.05865296 0.06355217 -0.04652653
v 0.06125924 0.06340081 -0.04652653
v 0.06049589 0.06326025 -0.06000880
v 0.06035413 0.06324944 -0.06135787
v 0.06000517 0.06322241 -0.06405179
v 0.05731166 0.06337918 -0.06405179
v 0.05595945 0.06341162 -0.06405179
v 0.05731166 0.06331972 -0.06503140
v 0.05595945 0.06333053 -0.06503140
v 0.04382227 0.06339000 -0.06501873
v 0.04112875 0.06353055 -0.06405179
v 0.03976564 0.06340081 -0.06499340
v 0.03841342 0.06340081 -0.06498495
v 0.03437860 0.06340081 -0.06494906
v 0.03302639 0.06339540 -0.06493217
v -0.00740906 0.06354136 -0.06365066
v -0.01685272 0.06347108 -0.06356198
v -0.04727746 0.06364948 -0.06234803
v 0.03573082 0.06355217 -0.06405179
v 0.04108513 0.06340621 -0.06497439
v 0.04108513 0.06340081 -0.06499973
v -0.04727746 0.06388193 -0.05785535
v 0.05768242 0.06339000 -0.04652653
v -0.04727746 0.06367651 -0.05736977
v 0.06193534 0.06324944 -0.04652653
v 0.06186992 0.06323863 -0.04922256
v 0.06177177 0.06323322 -0.05057163
v 0.06134648 0.06311970 -0.05731065
v 0.06134648 0.06307105 -0.05865973
v 0.06134648 0.06301699 -0.06000880
v 0.06134648 0.06295752 -0.06135787
v 0.06000517 0.06308186 -0.06540086
v 0.05828220 0.06329809 -0.06491317
v 0.06134648 0.06287103 -0.06270272
v 0.05731166 0.06319538 -0.06570488
v 0.05869658 0.06320079 -0.06537975
v 0.04247006 0.06339540 -0.06501240
v 0.05325503 0.06315754 -0.06569221
v 0.04247006 0.06303861 -0.06568377
v 0.04108513 0.06303861 -0.06565632
v 0.03841342 0.06298996 -0.06565632
v 0.03707212 0.06297374 -0.06564365
v 0.03841342 0.06231962 -0.06649025
v -0.04727746 0.06258451 -0.06276606
v 0.03841342 0.06126006 -0.06716584
v 0.00742164 0.06138981 -0.06583155
v 0.00606943 0.06135196 -0.06579355
v 0.00606943 0.06067622 -0.06612079
v 0.04112875 0.06340081 -0.06499973
v 0.05700632 0.06284400 -0.04652653
v -0.04727746 0.06271966 -0.05686730
v -0.04727746 0.06258451 -0.05680185
v 0.06269869 0.06277372 -0.04652653
v 0.06250240 0.06248180 -0.05596792
v 0.06244788 0.06245477 -0.05731065
v 0.06236064 0.06235746 -0.06000880
v 0.06000517 0.06243315 -0.06653037
v 0.05865296 0.06251424 -0.06665282
v 0.06134648 0.06271426 -0.06405179
v 0.06136829 0.06237368 -0.06529319
v 0.06094300 0.06221150 -0.06630658
v 0.06230611 0.06230341 -0.06135787
v 0.06224068 0.06222772 -0.06270272
v 0.05731166 0.06251964 -0.06668660
v 0.05595945 0.06249802 -0.06670982
v 0.05460724 0.06249261 -0.06669082
v 0.04108513 0.06302780 -0.06567110
v 0.03976564 0.06233584 -0.06650503
v 0.05595945 0.06184931 -0.06738330
v 0.05460724 0.06181687 -0.06736430
v -0.03707045 0.05988696 -0.06394623
v -0.04727746 0.06198986 -0.06286739
v 0.00519703 0.06061135 -0.06609334
v 0.03773732 0.06056811 -0.06742552
v 0.05460724 0.06114113 -0.06766620
v 0.00606943 0.05988696 -0.06629602
v 0.05648288 0.06216285 -0.04652653
v -0.04727746 0.06123844 -0.05672796
v 0.06349475 0.06211960 -0.04652653
v 0.05990703 0.06118438 -0.06715951
v 0.05865296 0.06157901 -0.06733052
v 0.05731166 0.06178984 -0.06736219
v 0.06212073 0.06207095 -0.06405179
v 0.06204439 0.06195202 -0.06476961
v 0.06180448 0.06124384 -0.06562888
v 0.06112838 0.06124384 -0.06647336
v 0.06337479 0.06193040 -0.05000582
v 0.06285136 0.06124384 -0.06135787
v 0.06269869 0.06124384 -0.06270272
v 0.05595945 0.06117357 -0.06767887
v -0.03707045 0.05854089 -0.06412568
v -0.03841176 0.05854089 -0.06403279
v -0.04727746 0.05988696 -0.06319041
v -0.04727746 0.06064379 -0.06308274
v 0.03617791 0.05935718 -0.06743397
v 0.00606943 0.05854089 -0.06644169
v 0.05595945 0.05989777 -0.06802933
v 0.05595945 0.05854629 -0.06809478
v 0.00472812 0.05854089 -0.06637836
v 0.05628660 0.06124384 -0.04652653
v -0.04727746 0.02080758 -0.05590880
v 0.06386552 0.06124384 -0.04652653
v 0.05951445 0.05989777 -0.06750787
v 0.05939450 0.06069244 -0.06745086
v 0.06019056 0.05989777 -0.06719962
v 0.05865296 0.06090868 -0.06753531
v 0.05731166 0.06111410 -0.06764087
v 0.06242607 0.06124384 -0.06405179
v 0.06270959 0.05989777 -0.06405179
v 0.06213163 0.06124384 -0.06495328
v 0.06184811 0.05989777 -0.06580833
v 0.06225159 0.05989777 -0.06513696
v 0.06117200 0.05989777 -0.06652403
v 0.06317851 0.05989777 -0.06135787
v 0.06303674 0.05989777 -0.06270272
v -0.04727746 0.00962814 -0.06191523
v 0.00472812 0.05720022 -0.06634035
v -0.03977487 0.05854089 -0.06392089
v -0.04727746 0.05929231 -0.06323263
v 0.00606943 0.05720022 -0.06638680
v 0.05731166 0.05989777 -0.06796810
v 0.05731166 0.05854629 -0.06808000
v 0.05865296 0.01167698 -0.06617568
v 0.05721351 0.01167698 -0.06613134
v 0.05625388 0.05989237 -0.04652653
v -0.04727746 0.00962814 -0.05570824
v 0.06412724 0.05989777 -0.04652653
v 0.05960169 0.05854629 -0.06755642
v 0.05865296 0.05854629 -0.06786677
v 0.05865296 0.05989777 -0.06774854
v 0.06027780 0.05854629 -0.06719540
v 0.06280774 0.05854629 -0.06405179
v 0.06184811 0.05854629 -0.06583577
v 0.06229521 0.05854629 -0.06516229
v 0.06117200 0.05854629 -0.06651981
v 0.06323303 0.05854629 -0.06135787
v 0.06313489 0.05854629 -0.06270272
v -0.04727746 0.05794623 -0.06326642
v -0.04246838 0.05719481 -0.06365910
v -0.04111617 0.00962814 -0.06219391
v 0.02245952 0.00903890 -0.06453737
v -0.01201094 0.00962814 -0.06340365
v -0.04727746 0.05854089 -0.06327486
v 0.05865296 0.05720022 -0.06782243
v 0.05943812 0.01167698 -0.06612079
v 0.03978745 0.00903890 -0.06529319
v 0.05553415 0.01167698 -0.04652653
v 0.02245952 0.00903890 -0.05813614
v 0.02359364 0.00903890 -0.05807492
v 0.06238245 0.01168239 -0.04652653
v 0.06196806 0.01167698 -0.06032548
v 0.06193534 0.01167698 -0.06135787
v 0.06204439 0.01571520 -0.06229737
v 0.05956897 0.05720022 -0.06754375
v 0.06023418 0.05720022 -0.06718485
v 0.06117200 0.05720022 -0.06651348
v 0.06076852 0.03428994 -0.06613979
v 0.06277503 0.05720022 -0.06405179
v 0.06201168 0.03563601 -0.06458382
v 0.06227340 0.05720022 -0.06514329
v 0.06184811 0.05720022 -0.06581677
v 0.06198987 0.01532598 -0.06272805
v 0.06168453 0.01540707 -0.06405179
v 0.05963441 0.01675314 -0.06620946
v 0.06011422 0.01167698 -0.06577033
v 0.03978745 0.00903890 -0.05931209
v 0.06080123 0.01167698 -0.06525519
v 0.06100843 0.01167698 -0.06509262
v 0.06156458 0.01167698 -0.06405179
v 0.06183720 0.01167698 -0.06270272
v 0.06192444 0.01167698 -0.06167455
v 0.06237154 0.01167698 -0.04684743
v 0.06120472 0.01167698 -0.04652653
v 0.02493494 0.00903890 -0.05808125
v 0.02628715 0.00903890 -0.05811714
v 0.02763936 0.00903890 -0.05816992
v 0.03033288 0.00903890 -0.05830293
v 0.03167418 0.00903890 -0.05838316
v 0.03302639 0.00903890 -0.05849716
v 0.03440042 0.00903890 -0.05863228
v 0.03698488 0.00903890 -0.05894474
v 0.06029961 0.01675314 -0.06585477
v 0.06059404 0.02754335 -0.06603423
f 1 2 6
f 1 6 25
f 1 25 51
f 1 51 79
f 1 79 101
f 1 101 100
f 1 100 126
f 1 126 150
f 1 150 145
f 1 145 123
f 1 123 133
f 1 133 108
f 1 108 85
f 1 85 59
f 1 59 58
f 1 58 31
f 1 31 29
f 1 29 7
f 1 7 3
f 1 3 4
f 1 4 5
f 1 5 2
f 2 5 6
f 3 7 4
f 4 8 30
f 4 30 57
f 4 57 84
f 4 84 107
f 4 107 132
f 4 132 154
f 4 154 180
f 4 180 157
f 4 157 134
f 4 134 109
f 4 109 86
f 4 86 60
f 4 60 32
f 4 32 9
f 4 9 10
f 4 10 11
f 4 11 12
f 4 12 13
f 4 13 14
f 4 14 5
f 4 7 8
f 5 14 15
f 5 15 16
f 5 16 17
f 5 17 18
f 5 18 6
f 6 19 20
f 6 20 21
f 6 21 22
f 6 22 23
f 6 23 24
f 6 24 25
f 6 18 26
f 6 26 27
f 6 27 28
f 6 28 19
f 7 29 8
f 8 29 31
f 8 31 30
f 9 32 33
f 9 33 34
f 9 34 10
f 10 34 35
f 10 35 36
f 10 36 11
f 11 36 37
f 11 37 38
f 11 38 12
f 12 39 40
f 12 40 13
f 12 38 41
f 12 41 39
f 13 40 15
f 13 15 14
f 15 42 16
f 15 40 43
f 15 43 42
f 16 42 17
f 17 44 27
f 17 27 26
f 17 26 18
f 17 42 44
f 19 28 42
f 19 42 20
f 20 42 21
f 21 42 45
f 21 45 46
f 21 46 22
f 22 46 47
f 22 47 24
f 22 24 23
f 24 47 48
f 24 48 49
f 24 49 50
f 24 50 25
f 25 50 52
f 25 52 53
f 25 53 54
f 25 54 55
f 25 55 51
f 27 44 56
f 27 56 28
f 28 56 42
f 30 31 58
f 30 58 59
f 30 59 57
f 32 60 33
f 33 60 61
f 33 61 62
f 33 62 34
f 34 62 38
f 34 38 37
f 34 37 36
f 34 36 35
f 38 62 63
f 38 63 41
f 39 64 65
f 39 65 42
f 39 42 43
f 39 43 40
f 39 41 66
f 39 66 67
f 39 67 68
f 39 68 64
f 41 63 69
f 41 69 70
f 41 70 66
f 42 65 71
f 42 71 72
f 42 72 45
f 42 56 44
f 45 72 46
f 46 72 73
f 46 73 47
f 47 74 48
f 47 73 74
f 48 74 73
f 48 73 49
f 49 73 75
f 49 75 50
f 50 75 73
f 50 73 76
f 50 76 77
f 50 77 52
f 51 78 79
f 51 55 80
f 51 80 78
f 52 81 55
f 52 55 53
f 52 77 82
f 52 82 81
f 53 55 54
f 55 81 83
f 55 83 80
f 57 59 84
f 59 85 84
f 60 86 61
f 61 86 62
f 62 86 63
f 63 86 69
f 64 87 88
f 64 88 89
f 64 89 65
f 64 68 87
f 65 89 76
f 65 76 71
f 66 70 90
f 66 90 91
f 66 91 67
f 67 91 68
f 68 91 92
f 68 92 93
f 68 93 87
f 69 86 94
f 69 94 95
f 69 95 70
f 70 95 96
f 70 96 90
f 71 76 72
f 72 76 73
f 76 97 82
f 76 82 77
f 76 89 97
f 78 98 99
f 78 99 100
f 78 100 101
f 78 101 79
f 78 80 83
f 78 83 98
f 81 102 103
f 81 103 83
f 81 82 104
f 81 104 105
f 81 105 102
f 82 97 104
f 83 103 106
f 83 106 98
f 84 85 107
f 85 108 107
f 86 109 94
f 87 110 111
f 87 111 88
f 87 93 112
f 87 112 110
f 88 113 114
f 88 114 89
f 88 111 113
f 89 114 97
f 90 96 91
f 91 96 115
f 91 115 116
f 91 116 117
f 91 117 92
f 92 118 93
f 92 117 119
f 92 119 118
f 93 120 112
f 93 118 120
f 94 109 95
f 95 109 121
f 95 121 122
f 95 122 96
f 96 122 115
f 97 114 104
f 98 123 99
f 98 106 124
f 98 124 123
f 99 125 100
f 99 123 125
f 100 125 126
f 102 105 103
f 103 127 124
f 103 124 106
f 103 105 127
f 104 114 128
f 104 128 129
f 104 129 105
f 105 129 130
f 105 130 131
f 105 131 127
f 107 108 133
f 107 133 132
f 109 134 121
f 110 112 135
f 110 135 136
f 110 136 137
f 110 137 111
f 111 137 113
f 112 138 135
f 112 120 138
f 113 137 128
f 113 128 114
f 115 122 116
f 116 139 119
f 116 119 117
f 116 122 144
f 116 144 139
f 118 140 120
f 118 119 141
f 118 141 140
f 119 139 141
f 120 140 142
f 120 142 138
f 121 134 143
f 121 143 144
f 121 144 122
f 123 145 146
f 123 146 125
f 123 124 147
f 123 147 148
f 123 148 155
f 123 155 133
f 124 149 147
f 124 127 131
f 124 131 149
f 125 146 145
f 125 145 150
f 125 150 126
f 128 137 136
f 128 136 129
f 129 136 151
f 129 151 152
f 129 152 130
f 130 152 153
f 130 153 131
f 131 153 149
f 132 133 154
f 133 155 156
f 133 156 154
f 134 157 158
f 134 158 159
f 134 159 160
f 134 160 143
f 135 138 161
f 135 161 136
f 136 161 152
f 136 152 151
f 138 162 161
f 138 142 163
f 138 163 164
f 138 164 162
f 139 165 166
f 139 166 167
f 139 167 141
f 139 144 165
f 140 168 163
f 140 163 142
f 140 141 168
f 141 167 168
f 143 160 144
f 144 160 169
f 144 169 170
f 144 170 165
f 147 149 153
f 147 153 148
f 148 153 173
f 148 173 188
f 148 188 187
f 148 187 186
f 148 186 185
f 148 185 184
f 148 184 183
f 148 183 182
f 148 182 181
f 148 181 156
f 148 156 155
f 152 161 171
f 152 171 172
f 152 172 153
f 153 172 174
f 153 174 175
f 153 175 176
f 153 176 177
f 153 177 178
f 153 178 159
f 153 159 158
f 153 158 179
f 153 179 173
f 154 156 180
f 156 181 180
f 157 179 158
f 157 180 181
f 157 181 182
f 157 182 183
f 157 183 184
f 157 184 185
f 157 185 186
f 157 186 187
f 157 187 188
f 157 188 173
f 157 173 179
f 159 178 160
f 160 178 177
f 160 177 169
f 161 162 189
f 161 189 171
f 162 164 190
f 162 190 189
f 163 168 164
f 164 175 190
f 164 168 175
f 165 170 166
f 166 170 175
f 166 175 167
f 167 175 168
f 169 177 176
f 169 176 170
f 170 176 175
f 171 189 172
f 172 189 174
f 174 189 175
f 175 189 190

