# https://github.com/mikedh/trimesh
v 0.05826355 -0.00055931 0.01511061
v 0.05826355 -0.00054665 0.01375821
v 0.05866174 -0.00051502 0.01551093
v 0.05866174 -0.00051502 0.01685251
v 0.05826355 -0.00055298 0.01645220
v 0.05554599 0.01168209 -0.04652653
v 0.05866174 -0.00050237 0.01415852
v 0.05826355 -0.00052135 0.01280612
v 0.06001030 -0.00028095 0.01954650
v 0.06001030 -0.00028728 0.02089890
v 0.05866174 -0.00048972 0.01954650
v 0.05826355 -0.00051502 0.01915701
v 0.05625816 0.05989483 -0.04652653
v 0.06238863 0.01168209 -0.04652653
v 0.05826355 -0.00004055 0.00073186
v 0.05826355 -0.00050870 0.01240581
v 0.05826355 -0.00048972 0.02050941
v 0.05826355 -0.00043278 0.02225130
v 0.05826355 -0.00037584 0.02359289
v 0.05826355 -0.00033156 0.02454498
v 0.05826355 -0.00026830 0.02589738
v 0.05826355 -0.00024932 0.02629770
v 0.05826355 -0.00012279 0.02851564
v 0.05826355 0.00017454 0.03262694
v 0.05826355 0.00027577 0.03397935
v 0.05826355 0.00041494 0.03573206
v 0.05826355 0.00052249 0.03707365
v 0.05826355 0.00085146 0.04112004
v 0.05826355 0.00094003 0.04207213
v 0.05826355 0.00097799 0.04247244
v 0.05826355 0.00107921 0.04342453
v 0.05826355 0.00112349 0.04381402
v 0.05826355 0.00130063 0.04535036
v 0.05826355 0.00143981 0.04651883
v 0.05826355 0.00195224 0.05056522
v 0.05826355 0.00214202 0.05190681
v 0.05826355 0.00234447 0.05325921
v 0.05826355 0.00252793 0.05438441
v 0.05826355 0.00263548 0.05503357
v 0.05826355 0.00274302 0.05562862
v 0.05826355 0.00279996 0.05593156
v 0.05826355 0.00309097 0.05730560
v 0.05826355 0.00331872 0.05825770
v 0.05826355 0.00365401 0.05965337
v 0.05826355 0.00391339 0.06071366
v 0.05826355 0.00392604 0.06074612
v 0.05826355 0.00423603 0.06130872
v 0.05826355 0.00474846 0.06212016
v 0.05826355 0.00495090 0.06242310
v 0.05826355 0.00596311 0.06287751
v 0.05826355 0.05855365 0.06400271
v 0.05826355 0.05990115 0.06385124
v 0.05826355 0.06095132 0.06353748
v 0.05826355 0.06162191 0.06321290
v 0.05826355 0.06229250 0.06273685
v 0.05826355 0.06260249 0.06250965
v 0.06069120 -0.00011014 0.01879997
v 0.05866174 -0.00046441 0.01280612
v 0.06070323 -0.00011647 0.01954650
v 0.06071526 -0.00012279 0.02089890
v 0.06070804 -0.00011647 0.02201328
v 0.06014504 -0.00023034 0.02238113
v 0.05866174 -0.00047074 0.02089890
v 0.05629666 0.06124233 -0.04652653
v 0.05826355 0.06308328 0.06210934
v 0.05826355 0.06323512 0.06197951
v 0.06412575 0.05990115 -0.04652653
v 0.06426049 0.05854733 -0.04516331
v 0.06443011 0.05854733 -0.04382172
v 0.06453116 0.05854733 -0.04246932
v 0.06245720 0.01168209 -0.04548789
v 0.06443011 0.00596311 0.00073186
v 0.06404515 0.00461561 0.00073186
v 0.06353869 0.00382482 0.00073186
v 0.05876159 0.00028209 0.00073186
v 0.05948820 -0.00021136 0.01280612
v 0.05866174 -0.00043278 0.02225130
v 0.05866174 -0.00031258 0.02494529
v 0.05866174 -0.00024299 0.02629770
v 0.05870866 -0.00015442 0.02769338
v 0.05866174 0.00001639 0.03034409
v 0.05866174 0.00030107 0.03437966
v 0.05866174 0.00040862 0.03573206
v 0.05866174 0.00062371 0.03842605
v 0.05866174 0.00084513 0.04112004
v 0.05866174 0.00097166 0.04247244
v 0.05866174 0.00111716 0.04381402
v 0.05866174 0.00130063 0.04536118
v 0.05866174 0.00144613 0.04651883
v 0.05866174 0.00196489 0.05056522
v 0.05866174 0.00178775 0.04921282
v 0.06001030 0.00202815 0.05056522
v 0.05866174 0.00216100 0.05190681
v 0.05866174 0.00236977 0.05325921
v 0.06001030 0.00223692 0.05190681
v 0.06135886 0.00277465 0.05461161
v 0.06135886 0.00304036 0.05595320
v 0.06001030 0.00324280 0.05730560
v 0.05868580 0.00379319 0.06008615
v 0.05915257 0.00396400 0.06059465
v 0.06001030 0.00442582 0.06134118
v 0.05868580 0.00422970 0.06124381
v 0.05866174 0.00496355 0.06240146
v 0.05866174 0.00596311 0.06285587
v 0.06270622 0.00731694 0.06272603
v 0.05866174 0.05855365 0.06399189
v 0.05866174 0.05990115 0.06384042
v 0.05866174 0.06092602 0.06353748
v 0.05866174 0.06160293 0.06320208
v 0.06270622 0.06242535 0.06242310
v 0.06135886 0.06247596 0.06246638
v 0.06001030 0.06319716 0.06193624
v 0.06228757 0.00095268 0.02899168
v 0.06232487 0.00094635 0.03034409
v 0.06233930 0.00095901 0.03168567
v 0.06068398 -0.00010381 0.02291128
v 0.05992850 -0.00021769 0.02359289
v 0.05649034 0.06216597 -0.04652653
v 0.05826355 0.06360204 0.06134118
v 0.05826355 0.06400060 0.05999959
v 0.05866174 0.06322879 0.06196869
v 0.06001030 0.06360837 0.06126544
v 0.05866174 0.06362102 0.06129790
v 0.06386591 0.06124866 -0.04652653
v 0.06430380 0.05990115 -0.04516331
v 0.06445056 0.05990115 -0.04382172
v 0.06247765 0.01168209 -0.04516331
v 0.06453116 0.05990115 -0.04246932
v 0.06717776 0.05855365 0.01011213
v 0.06451312 0.00726000 0.00073186
v 0.06474650 0.00782937 0.00522184
v 0.06574017 0.00596311 0.03573206
v 0.06472725 0.00531150 0.01079374
v 0.06474770 0.00523559 0.01170256
v 0.06477537 0.00515967 0.01280612
v 0.06489326 0.00481805 0.01820491
v 0.06461658 0.00414114 0.01820491
v 0.06483071 0.00381217 0.02763928
v 0.05976249 -0.00018605 0.02494529
v 0.05943166 -0.00012279 0.02728225
v 0.05918986 -0.00009749 0.02818024
v 0.06001030 0.00090207 0.04112004
v 0.06001030 0.00101594 0.04247244
v 0.05965301 0.00123104 0.04461465
v 0.06001030 0.00147776 0.04651883
v 0.06001030 0.00183204 0.04921282
v 0.06135886 0.00214835 0.05056522
v 0.06135886 0.00234447 0.05190681
v 0.06135886 0.00252160 0.05304283
v 0.06135886 0.00262915 0.05371362
v 0.06211073 0.00255956 0.05278316
v 0.06135886 0.00368564 0.05864719
v 0.06270622 0.00333770 0.05595320
v 0.06207464 0.00393237 0.05937207
v 0.06135886 0.00389441 0.05951273
v 0.06001030 0.00400828 0.06043236
v 0.06135886 0.00459663 0.06134118
v 0.06135886 0.00512804 0.06219590
v 0.06001030 0.00503314 0.06230409
v 0.06135886 0.00596311 0.06258539
v 0.06272186 0.00587454 0.06234736
v 0.06405357 0.00628575 0.06223917
v 0.06405357 0.00731694 0.06248802
v 0.06405357 0.00866444 0.06256375
v 0.06001030 0.05855365 0.06388369
v 0.06001030 0.05990115 0.06373223
v 0.06135886 0.06070460 0.06342929
v 0.06001030 0.06083745 0.06349420
v 0.06001030 0.06151436 0.06315881
v 0.06405357 0.06236209 0.06231491
v 0.06405357 0.06303267 0.06178476
v 0.06270622 0.06310226 0.06182804
v 0.06135886 0.06315287 0.06188214
v 0.06135886 0.06138151 0.06313717
v 0.06405357 0.06353878 0.06110315
v 0.06270622 0.06357041 0.06115725
v 0.06485838 0.00378686 0.02899168
v 0.06488003 0.00376788 0.03034409
v 0.06490048 0.00375523 0.03168567
v 0.06494018 0.00373625 0.03437966
v 0.06495101 0.00372360 0.03573206
v 0.06495101 0.00371727 0.03707365
v 0.06232727 0.00099696 0.03302726
v 0.06494740 0.00371727 0.03842605
v 0.06493898 0.00372993 0.03977845
v 0.06043737 -0.00005320 0.02494529
v 0.06135886 0.00047188 0.03034409
v 0.06135886 0.00052882 0.03168567
v 0.05701725 0.06284289 -0.04651571
v 0.05701725 0.06284289 -0.04652653
v 0.05826355 0.06401958 0.05904750
v 0.06270622 0.06396264 0.05999959
v 0.06405357 0.06407019 0.05864719
v 0.06270622 0.06406386 0.05864719
v 0.06350501 0.06211536 -0.04652653
v 0.06401989 0.06124866 -0.04516331
v 0.06416184 0.06124866 -0.04382172
v 0.06457447 0.00866444 0.00073186
v 0.06423162 0.06124866 -0.04246932
v 0.06714407 0.05990115 0.01011213
v 0.06781414 0.05855365 0.03573206
v 0.06673505 0.01540828 0.05190681
v 0.06660874 0.01405445 0.04921282
v 0.06655581 0.01270695 0.04921282
v 0.06650768 0.01270695 0.04786042
v 0.06547913 0.00461561 0.03573206
v 0.06543461 0.00461561 0.03437966
v 0.06644032 0.01135945 0.04786042
v 0.06667370 0.01001194 0.05730560
v 0.06632964 0.00731694 0.05325921
v 0.06592062 0.00596311 0.04381402
v 0.06025451 -0.00002157 0.02629770
v 0.05957963 -0.00014810 0.02629770
v 0.06001030 0.00008598 0.02899168
v 0.06001030 0.00025046 0.03168567
v 0.06001030 0.00051616 0.03573206
v 0.06135886 0.00108553 0.04112004
v 0.06133119 0.00117410 0.04235343
v 0.06086443 0.00121206 0.04351108
v 0.06055165 0.00125002 0.04441991
v 0.06006564 0.00130695 0.04510152
v 0.06135886 0.00195856 0.04921282
v 0.06261840 0.00286955 0.05324839
v 0.06270622 0.00310362 0.05461161
v 0.06135886 0.00178775 0.04786042
v 0.06203735 0.00124369 0.04182329
v 0.06222983 0.00250262 0.05190681
v 0.06353147 0.00386278 0.05699184
v 0.06331975 0.00396400 0.05788984
v 0.06280607 0.00368564 0.05739216
v 0.06235615 0.00384380 0.05864719
v 0.06259675 0.00426766 0.05990222
v 0.06135886 0.00408420 0.06018352
v 0.06303103 0.00405889 0.05864719
v 0.06272186 0.00495090 0.06141691
v 0.06228036 0.00522293 0.06209852
v 0.06317900 0.00536844 0.06191460
v 0.06481868 0.00653880 0.06208770
v 0.06489206 0.00731694 0.06215262
v 0.06306832 0.05855365 0.06327782
v 0.06239464 0.05855365 0.06347256
v 0.06135886 0.05855365 0.06368895
v 0.06494139 0.00866444 0.06219590
v 0.06135886 0.05990115 0.06358075
v 0.06207585 0.06060338 0.06338601
v 0.06506048 0.06219128 0.06217426
v 0.06259795 0.06112846 0.06309389
v 0.06546709 0.06262146 0.06171985
v 0.06540213 0.06349449 0.06101660
v 0.06540213 0.06386142 0.05999959
v 0.06405357 0.06392468 0.05999959
v 0.06492214 0.00374891 0.03302726
v 0.06549236 0.00461561 0.03707365
v 0.06230442 0.00104125 0.03437966
v 0.06227074 0.00107921 0.03573206
v 0.06290231 0.00170551 0.03707365
v 0.06547311 0.00461561 0.03977845
v 0.06587251 0.00568475 0.05595320
v 0.06581235 0.00566577 0.05730560
v 0.06519762 0.00486233 0.05595320
v 0.06491011 0.00376788 0.04112004
v 0.05826355 0.06401958 0.05730560
v 0.05768852 0.06338695 -0.04652653
v 0.06540213 0.06401325 0.05864719
v 0.06405357 0.06400060 0.04112004
v 0.06270622 0.06399427 0.04112004
v 0.06270502 0.06277962 -0.04652653
v 0.06357719 0.06221658 -0.04516331
v 0.06364816 0.06229250 -0.04382172
v 0.06669054 0.06124866 0.01011213
v 0.06674949 0.06124866 0.01146453
v 0.06755309 0.06093234 0.03707365
v 0.06776602 0.05990115 0.03707365
v 0.06783579 0.05855365 0.03707365
v 0.06671580 0.01135945 0.05730560
v 0.06678077 0.01675578 0.05190681
v 0.06664603 0.01405445 0.05056522
v 0.06594709 0.00596311 0.04516643
v 0.06617566 0.00639963 0.05325921
v 0.06621776 0.00634269 0.05730560
v 0.06666889 0.01001194 0.05864719
v 0.06657024 0.00866444 0.05864719
v 0.06654859 0.00866444 0.05730560
v 0.06640663 0.00731694 0.05730560
v 0.06135886 0.00162959 0.04651883
v 0.06380215 0.00366034 0.05461161
v 0.06367824 0.00376156 0.05595320
v 0.06447703 0.00412848 0.05461161
v 0.06290351 0.00286322 0.05190681
v 0.06235374 0.00241405 0.05056522
v 0.06401027 0.00421705 0.05739216
v 0.06486199 0.00517232 0.05971829
v 0.06405357 0.00449541 0.05864719
v 0.06416786 0.00493192 0.06010779
v 0.06469357 0.00531150 0.06062710
v 0.06379373 0.00512804 0.06101660
v 0.06416786 0.00555823 0.06141691
v 0.06511462 0.00623514 0.06134118
v 0.06605295 0.00672859 0.06057301
v 0.06565356 0.00723470 0.06127626
v 0.06615160 0.00762693 0.06077858
v 0.06561627 0.00866444 0.06149264
v 0.06291073 0.05990115 0.06325618
v 0.06405357 0.05855365 0.06285587
v 0.06405357 0.05990115 0.06283423
v 0.06223705 0.05990115 0.06342929
v 0.06563070 0.01001194 0.06150346
v 0.06566439 0.01675578 0.06159002
v 0.06579190 0.04371215 0.06183886
v 0.06495702 0.01001194 0.06219590
v 0.06405357 0.06124866 0.06270440
v 0.06517837 0.06124866 0.06226081
v 0.06585205 0.06124866 0.06187132
v 0.06644032 0.06259616 0.06109233
v 0.06623942 0.06339960 0.06085431
v 0.06638378 0.06354510 0.05999959
v 0.06513867 0.00494458 0.05730560
v 0.06621175 0.00641860 0.05864719
v 0.06568123 0.00574802 0.05864719
v 0.06270622 0.06391203 0.02089890
v 0.06135886 0.06371591 -0.02089578
v 0.06001030 0.06358939 -0.04516331
v 0.05866174 0.06355143 -0.04652653
v 0.06405357 0.06397529 0.03707365
v 0.06405357 0.06398794 0.03842605
v 0.06644272 0.06362102 0.05864719
v 0.06341599 0.06329838 -0.02224818
v 0.06270502 0.06351347 -0.02224818
v 0.06405357 0.06390570 0.03034409
v 0.06270622 0.06390570 0.01954650
v 0.06194232 0.06325409 -0.04652653
v 0.06270502 0.06288084 -0.04516331
v 0.06270502 0.06295676 -0.04382172
v 0.06368185 0.06232413 -0.04246932
v 0.06623942 0.06210903 0.01146453
v 0.06626227 0.06214699 0.01280612
v 0.06731370 0.06164089 0.03842605
v 0.06755790 0.06096397 0.03842605
v 0.06776602 0.05990115 0.03842605
v 0.06746888 0.06093867 0.05730560
v 0.06781535 0.05855365 0.03842605
v 0.06675550 0.01405445 0.05864719
v 0.06670257 0.01135945 0.05864719
v 0.06642107 0.00731694 0.05864719
v 0.06649566 0.01135945 0.05999959
v 0.06641987 0.00866444 0.05999959
v 0.06435312 0.00418542 0.05595320
v 0.06500635 0.00505212 0.05864719
v 0.06545627 0.00592515 0.06015106
v 0.06614558 0.00654513 0.05967501
v 0.06625024 0.00723470 0.06007533
v 0.06617446 0.00866444 0.06082185
v 0.06620213 0.01135945 0.06086513
v 0.06629114 0.02079829 0.06097333
v 0.06516394 0.05315099 0.06227163
v 0.06644152 0.04371215 0.06116807
v 0.06584243 0.05180981 0.06187132
v 0.06650408 0.06124866 0.06120052
v 0.06713565 0.06124866 0.05999959
v 0.06693956 0.06259616 0.05999959
v 0.06707309 0.06259616 0.05864719
v 0.06135886 0.06366530 -0.02629457
v 0.06132638 0.06341858 -0.04516331
v 0.06001030 0.06356408 -0.04652653
v 0.06705505 0.06259616 0.05730560
v 0.06633445 0.06354510 0.05325921
v 0.06337990 0.06327307 -0.02429302
v 0.06339914 0.06327940 -0.02358976
v 0.06270502 0.06348817 -0.02358976
v 0.06194352 0.06325409 -0.04651571
v 0.06126984 0.06339960 -0.04652653
v 0.06471883 0.06326675 0.00607656
v 0.06553085 0.06281758 0.01280612
v 0.06737745 0.06171680 0.05056522
v 0.06752181 0.06103989 0.05056522
v 0.06738588 0.06161558 0.05730560
v 0.06745203 0.06080582 0.05821442
v 0.06745203 0.06023645 0.05821442
v 0.06699971 0.02754212 0.05730560
v 0.06677475 0.01540828 0.05864719
v 0.06657866 0.01540828 0.05999959
v 0.06655460 0.01405445 0.05999959
v 0.06624182 0.01540828 0.06090840
v 0.06694798 0.04371215 0.05999959
v 0.06737023 0.05983157 0.05865801
v 0.06737505 0.06125498 0.05865801
v 0.06475492 0.06329205 0.00766698
f 1 2 7
f 1 7 3
f 1 3 4
f 1 4 5
f 1 5 6
f 1 6 2
f 2 6 8
f 2 8 7
f 3 7 9
f 3 9 10
f 3 10 4
f 4 11 5
f 4 10 11
f 5 11 63
f 5 63 12
f 5 12 6
f 6 13 64
f 6 64 118
f 6 118 190
f 6 190 263
f 6 263 323
f 6 323 364
f 6 364 371
f 6 371 331
f 6 331 267
f 6 267 195
f 6 195 124
f 6 124 67
f 6 67 14
f 6 14 15
f 6 15 16
f 6 16 8
f 6 12 17
f 6 17 18
f 6 18 19
f 6 19 20
f 6 20 21
f 6 21 22
f 6 22 23
f 6 23 24
f 6 24 25
f 6 25 26
f 6 26 27
f 6 27 28
f 6 28 29
f 6 29 30
f 6 30 31
f 6 31 32
f 6 32 33
f 6 33 34
f 6 34 35
f 6 35 36
f 6 36 37
f 6 37 38
f 6 38 39
f 6 39 40
f 6 40 41
f 6 41 42
f 6 42 43
f 6 43 44
f 6 44 45
f 6 45 46
f 6 46 47
f 6 47 48
f 6 48 49
f 6 49 50
f 6 50 51
f 6 51 52
f 6 52 53
f 6 53 54
f 6 54 55
f 6 55 56
f 6 56 13
f 7 57 9
f 7 8 58
f 7 58 57
f 8 16 58
f 9 57 59
f 9 59 60
f 9 60 10
f 10 60 61
f 10 61 62
f 10 62 63
f 10 63 11
f 12 63 17
f 13 56 65
f 13 65 66
f 13 66 64
f 14 67 68
f 14 68 69
f 14 69 70
f 14 70 71
f 14 71 72
f 14 72 73
f 14 73 74
f 14 74 75
f 14 75 15
f 15 75 57
f 15 57 76
f 15 76 58
f 15 58 16
f 17 63 77
f 17 77 18
f 18 77 19
f 19 77 78
f 19 78 20
f 20 78 21
f 21 78 22
f 22 78 79
f 22 79 23
f 23 79 80
f 23 80 81
f 23 81 82
f 23 82 24
f 24 82 25
f 25 82 26
f 26 83 84
f 26 84 27
f 26 82 83
f 27 84 28
f 28 84 85
f 28 85 29
f 29 86 30
f 29 85 86
f 30 86 31
f 31 87 32
f 31 86 87
f 32 87 33
f 33 88 34
f 33 87 88
f 34 88 89
f 34 89 35
f 35 90 36
f 35 89 91
f 35 91 90
f 36 90 92
f 36 92 93
f 36 93 37
f 37 94 38
f 37 93 92
f 37 92 95
f 37 95 94
f 38 94 95
f 38 95 96
f 38 96 39
f 39 96 40
f 40 96 41
f 41 96 97
f 41 97 42
f 42 97 98
f 42 98 43
f 43 98 99
f 43 99 44
f 44 99 45
f 45 100 46
f 45 99 100
f 46 100 101
f 46 101 102
f 46 102 47
f 47 102 48
f 48 103 49
f 48 102 103
f 49 103 104
f 49 104 50
f 50 104 105
f 50 105 106
f 50 106 51
f 51 106 107
f 51 107 52
f 52 107 108
f 52 108 53
f 53 108 54
f 54 109 110
f 54 110 111
f 54 111 55
f 54 108 109
f 55 111 56
f 56 111 112
f 56 112 65
f 57 113 114
f 57 114 59
f 57 58 76
f 57 75 74
f 57 74 113
f 59 114 60
f 60 114 115
f 60 115 61
f 61 116 62
f 61 115 116
f 62 77 63
f 62 116 117
f 62 117 77
f 64 66 119
f 64 119 120
f 64 120 118
f 65 112 121
f 65 121 66
f 66 121 122
f 66 122 123
f 66 123 119
f 67 124 125
f 67 125 68
f 68 125 69
f 69 125 126
f 69 126 70
f 70 127 71
f 70 126 128
f 70 128 129
f 70 129 127
f 71 127 72
f 72 130 131
f 72 131 132
f 72 132 133
f 72 133 73
f 72 127 130
f 73 133 134
f 73 134 135
f 73 135 136
f 73 136 137
f 73 137 74
f 74 137 138
f 74 138 113
f 77 117 139
f 77 139 140
f 77 140 78
f 78 140 79
f 79 140 141
f 79 141 80
f 80 141 81
f 81 141 82
f 82 141 142
f 82 142 83
f 83 142 84
f 84 142 85
f 85 142 143
f 85 143 86
f 86 143 144
f 86 144 87
f 87 144 88
f 88 145 89
f 88 144 145
f 89 145 91
f 90 91 145
f 90 145 146
f 90 146 92
f 92 146 147
f 92 147 148
f 92 148 95
f 95 148 149
f 95 149 150
f 95 150 96
f 96 150 151
f 96 151 97
f 97 152 98
f 97 151 153
f 97 153 154
f 97 154 152
f 98 152 99
f 99 152 155
f 99 155 100
f 100 155 156
f 100 156 157
f 100 157 101
f 101 157 158
f 101 158 159
f 101 159 102
f 102 159 103
f 103 159 104
f 104 159 160
f 104 160 105
f 105 160 161
f 105 161 162
f 105 162 163
f 105 163 164
f 105 164 165
f 105 165 106
f 106 165 166
f 106 166 107
f 107 166 167
f 107 167 168
f 107 168 108
f 108 168 169
f 108 169 109
f 109 169 110
f 110 170 171
f 110 171 172
f 110 172 173
f 110 173 112
f 110 112 111
f 110 169 174
f 110 174 170
f 112 173 175
f 112 175 176
f 112 176 122
f 112 122 121
f 113 138 177
f 113 177 114
f 114 178 179
f 114 179 180
f 114 180 181
f 114 181 182
f 114 182 115
f 114 177 178
f 115 183 116
f 115 182 184
f 115 184 185
f 115 185 183
f 116 186 139
f 116 139 117
f 116 183 187
f 116 187 188
f 116 188 186
f 118 189 190
f 118 120 191
f 118 191 189
f 119 123 120
f 120 192 193
f 120 193 194
f 120 194 191
f 120 123 192
f 122 176 192
f 122 192 123
f 124 195 196
f 124 196 125
f 125 196 126
f 126 196 197
f 126 197 128
f 127 129 198
f 127 198 130
f 128 197 199
f 128 199 200
f 128 200 129
f 129 131 198
f 129 200 201
f 129 201 202
f 129 202 203
f 129 203 204
f 129 204 205
f 129 205 131
f 130 198 131
f 131 205 132
f 132 206 207
f 132 207 135
f 132 135 133
f 132 205 204
f 132 204 208
f 132 208 209
f 132 209 210
f 132 210 211
f 132 211 206
f 133 135 134
f 135 207 136
f 136 207 137
f 137 207 138
f 138 207 206
f 138 206 177
f 139 186 212
f 139 212 213
f 139 213 140
f 140 213 212
f 140 212 214
f 140 214 215
f 140 215 216
f 140 216 141
f 141 216 142
f 142 217 218
f 142 218 219
f 142 219 143
f 142 216 217
f 143 219 220
f 143 220 144
f 144 220 221
f 144 221 145
f 145 221 220
f 145 220 146
f 146 222 147
f 146 220 222
f 147 222 151
f 147 151 148
f 148 151 149
f 149 151 150
f 151 223 224
f 151 224 153
f 151 222 225
f 151 225 226
f 151 226 227
f 151 227 223
f 152 154 155
f 153 224 228
f 153 228 229
f 153 229 230
f 153 230 231
f 153 231 154
f 154 232 233
f 154 233 155
f 154 231 229
f 154 229 234
f 154 234 232
f 155 233 156
f 156 233 157
f 157 235 236
f 157 236 158
f 157 233 235
f 158 236 161
f 158 161 160
f 158 160 159
f 161 236 162
f 162 236 237
f 162 237 238
f 162 238 163
f 163 238 239
f 163 239 164
f 164 240 241
f 164 241 242
f 164 242 165
f 164 239 243
f 164 243 240
f 165 242 244
f 165 244 166
f 166 244 245
f 166 245 167
f 167 245 174
f 167 174 168
f 168 174 169
f 170 246 171
f 170 174 247
f 170 247 246
f 171 248 249
f 171 249 175
f 171 175 172
f 171 246 248
f 172 175 173
f 174 245 247
f 175 249 250
f 175 250 251
f 175 251 176
f 176 251 192
f 177 206 178
f 178 206 179
f 179 252 180
f 179 206 252
f 180 252 206
f 180 206 181
f 181 206 253
f 181 253 182
f 182 253 184
f 183 254 255
f 183 255 187
f 183 185 256
f 183 256 254
f 184 257 185
f 184 253 257
f 185 257 258
f 185 258 259
f 185 259 260
f 185 260 261
f 185 261 256
f 186 188 212
f 187 255 188
f 188 255 226
f 188 226 212
f 189 191 262
f 189 262 190
f 190 262 263
f 191 194 262
f 192 251 193
f 193 264 265
f 193 265 266
f 193 266 194
f 193 251 264
f 194 266 262
f 195 267 268
f 195 268 197
f 195 197 196
f 197 269 199
f 197 268 269
f 199 269 270
f 199 270 200
f 200 270 271
f 200 271 272
f 200 272 273
f 200 273 201
f 201 273 274
f 201 274 275
f 201 275 209
f 201 209 276
f 201 276 202
f 202 276 209
f 202 209 277
f 202 277 203
f 203 277 209
f 203 209 204
f 204 209 208
f 206 211 278
f 206 278 279
f 206 279 280
f 206 280 253
f 209 275 281
f 209 281 282
f 209 282 283
f 209 283 210
f 210 283 284
f 210 284 279
f 210 279 278
f 210 278 211
f 212 226 214
f 214 226 215
f 215 226 217
f 215 217 216
f 217 226 218
f 218 226 220
f 218 220 219
f 220 226 285
f 220 285 225
f 220 225 222
f 223 227 286
f 223 286 287
f 223 287 224
f 224 287 228
f 225 285 226
f 226 288 286
f 226 286 289
f 226 289 290
f 226 290 227
f 226 255 256
f 226 256 288
f 227 289 286
f 227 290 289
f 228 287 291
f 228 291 292
f 228 292 293
f 228 293 229
f 229 293 294
f 229 294 234
f 229 231 230
f 232 234 294
f 232 294 295
f 232 295 296
f 232 296 235
f 232 235 233
f 235 296 237
f 235 237 236
f 237 296 295
f 237 295 297
f 237 297 238
f 238 297 295
f 238 295 298
f 238 298 299
f 238 299 300
f 238 300 239
f 239 300 301
f 239 301 302
f 239 302 243
f 240 303 241
f 240 243 304
f 240 304 305
f 240 305 303
f 241 303 306
f 241 306 242
f 242 306 244
f 243 302 307
f 243 307 308
f 243 308 309
f 243 309 310
f 243 310 304
f 244 306 245
f 245 306 303
f 245 303 311
f 245 311 246
f 245 246 247
f 246 311 312
f 246 312 313
f 246 313 314
f 246 314 248
f 248 314 315
f 248 315 249
f 249 315 250
f 250 316 264
f 250 264 251
f 250 315 316
f 253 280 257
f 254 256 255
f 256 261 260
f 256 260 288
f 257 280 258
f 258 280 259
f 259 317 260
f 259 280 318
f 259 318 319
f 259 319 317
f 260 317 288
f 262 266 320
f 262 320 321
f 262 321 322
f 262 322 323
f 262 323 263
f 264 324 325
f 264 325 265
f 264 316 326
f 264 326 327
f 264 327 328
f 264 328 329
f 264 329 324
f 265 325 330
f 265 330 320
f 265 320 266
f 267 331 332
f 267 332 269
f 267 269 268
f 269 332 333
f 269 333 334
f 269 334 335
f 269 335 270
f 270 335 271
f 271 335 336
f 271 336 337
f 271 337 272
f 272 337 338
f 272 338 273
f 273 338 339
f 273 339 274
f 274 339 340
f 274 340 341
f 274 341 342
f 274 342 275
f 275 342 343
f 275 343 281
f 279 284 280
f 280 284 344
f 280 344 318
f 281 343 345
f 281 345 346
f 281 346 282
f 282 346 344
f 282 344 284
f 282 284 283
f 286 288 347
f 286 347 287
f 287 347 348
f 287 348 291
f 288 317 347
f 291 348 292
f 292 349 295
f 292 295 293
f 292 348 319
f 292 319 349
f 293 295 294
f 295 349 299
f 295 299 298
f 299 301 300
f 299 349 350
f 299 350 351
f 299 351 301
f 301 352 302
f 301 351 346
f 301 346 352
f 302 352 353
f 302 353 354
f 302 354 307
f 303 305 311
f 304 310 355
f 304 355 312
f 304 312 305
f 305 312 311
f 307 354 308
f 308 354 356
f 308 356 309
f 309 356 357
f 309 357 310
f 310 357 355
f 312 355 313
f 313 355 357
f 313 357 358
f 313 358 314
f 314 358 359
f 314 359 360
f 314 360 315
f 315 360 316
f 316 360 361
f 316 361 326
f 317 319 348
f 317 348 347
f 318 344 350
f 318 350 319
f 319 350 349
f 320 330 321
f 321 362 322
f 321 330 325
f 321 325 324
f 321 324 362
f 322 362 363
f 322 363 364
f 322 364 323
f 324 329 362
f 326 361 365
f 326 365 337
f 326 337 336
f 326 336 366
f 326 366 367
f 326 367 368
f 326 368 327
f 327 368 367
f 327 367 328
f 328 367 369
f 328 369 370
f 328 370 363
f 328 363 362
f 328 362 329
f 331 371 370
f 331 370 332
f 332 370 333
f 333 367 334
f 333 370 367
f 334 367 372
f 334 372 373
f 334 373 336
f 334 336 335
f 336 373 366
f 337 365 361
f 337 361 374
f 337 374 338
f 338 374 375
f 338 375 339
f 339 375 340
f 340 376 377
f 340 377 378
f 340 378 341
f 340 375 376
f 341 378 379
f 341 379 342
f 342 380 381
f 342 381 382
f 342 382 343
f 342 379 378
f 342 378 380
f 343 382 345
f 344 346 351
f 344 351 350
f 345 382 352
f 345 352 346
f 352 382 381
f 352 381 353
f 353 381 383
f 353 383 354
f 354 383 381
f 354 381 384
f 354 384 359
f 354 359 356
f 356 359 358
f 356 358 357
f 359 384 385
f 359 385 378
f 359 378 386
f 359 386 360
f 360 386 361
f 361 386 376
f 361 376 374
f 363 370 371
f 363 371 364
f 366 373 387
f 366 387 367
f 367 387 372
f 367 370 369
f 372 387 373
f 374 376 375
f 376 386 377
f 377 386 378
f 378 385 384
f 378 384 381
f 378 381 380

