# https://github.com/mikedh/trimesh
v -0.04247144 0.06492715 0.06405372
v -0.04247144 0.06486802 0.06270098
v -0.04247144 0.06477128 0.06530437
v -0.04112055 0.06492177 0.06405372
v -0.01009954 0.06478203 0.06270524
v -0.04247144 0.06471753 0.06172897
v 0.05826303 0.06395429 0.04827173
v -0.04247144 0.06452941 0.06598500
v -0.02358865 0.06466378 0.06478540
v -0.04112055 0.06477665 0.06520441
v -0.01009954 0.06471753 0.06365599
v -0.00875852 0.06477665 0.06270524
v -0.04247144 0.06427679 0.06105685
v 0.05826303 0.06366943 0.04677861
v 0.05826303 0.06361030 0.04658931
v 0.05826303 0.06397580 0.04962022
v -0.04247144 0.06385755 0.06625938
v -0.00471573 0.06169685 0.06600202
v 0.02224277 0.06205697 0.06482368
v 0.04515848 0.06235258 0.06374532
v 0.04515848 0.06302444 0.06305406
v -0.02223777 0.06464765 0.06475987
v -0.00201396 0.06465303 0.06344542
v -0.00875852 0.06470678 0.06363684
v -0.00740764 0.06476053 0.06270524
v 0.05826303 0.06401879 0.05865977
v 0.05730657 0.06400267 0.05191946
v -0.04247144 0.06359955 0.06047619
v 0.05826303 0.06258908 0.04572364
v 0.05826303 0.06398117 0.05057097
v -0.04247144 0.06259445 0.06666563
v -0.00471573 0.06101961 0.06620620
v 0.02224277 0.06124536 0.06517463
v 0.04515848 0.06124536 0.06432172
v 0.04650936 0.06230421 0.06369640
v 0.05826303 0.06323406 0.06198845
v 0.05680369 0.06328243 0.06204163
v 0.04922099 0.06344368 0.06227347
v 0.00012576 0.06462078 0.06338373
v 0.05826303 0.06400267 0.06000826
v 0.05826303 0.06401342 0.05730916
v -0.04247144 0.06259445 0.06023797
v 0.05826303 0.06155710 0.04554285
v -0.04247144 0.06124536 0.06698892
v -0.00471573 0.05990164 0.06636998
v 0.02224277 0.05989627 0.06546390
v 0.04515848 0.05989627 0.06455356
v 0.05826303 0.05989627 0.06385379
v 0.05826303 0.06094974 0.06354538
v 0.05826303 0.06162160 0.06322209
v 0.04787011 0.06224508 0.06363259
v 0.05826303 0.06259983 0.06252019
v 0.05826303 0.06307819 0.06212033
v 0.05826303 0.06360493 0.06135462
v -0.04247144 0.06124536 0.06022308
v 0.05826303 0.06117011 0.04551307
v 0.05826303 0.05989627 0.04546841
v -0.04247144 0.05990701 0.06709527
v -0.04247144 0.05990164 0.06709527
v -0.04247144 0.01010343 0.06681239
v -0.03976967 0.01009268 0.06673582
v -0.03571702 0.01009268 0.06661670
v 0.00608147 0.01001743 0.06511295
v 0.04381746 0.05855255 0.06458121
v -0.02628056 0.01009268 0.06628703
v -0.02223777 0.01136115 0.06616579
v 0.05826303 0.05854717 0.06400055
v 0.05826303 0.06229346 0.06274778
v -0.04247144 0.01009268 0.06009546
v 0.05826303 0.05647784 0.04543650
v 0.05826303 0.05450527 0.04542374
v 0.05826303 0.04506699 0.04536844
v -0.04247144 0.01009268 0.06675495
v -0.04238269 0.01009268 0.06680813
v 0.05192276 0.01001743 0.06319018
v 0.05326378 0.01136115 0.06317104
v 0.02089189 0.01136115 0.06452378
v 0.00473059 0.01001743 0.06514911
v 0.05826303 0.01271024 0.06297962
v 0.00039199 0.01001743 0.05985299
v 0.05826303 0.01001743 0.04539822
v 0.00039199 0.01001743 0.06521930
v 0.05826303 0.01001743 0.06289241
v 0.05826303 0.01136115 0.06294771
f 1 2 6
f 1 6 13
f 1 13 28
f 1 28 42
f 1 42 55
f 1 55 69
f 1 69 73
f 1 73 60
f 1 60 59
f 1 59 58
f 1 58 44
f 1 44 31
f 1 31 17
f 1 17 8
f 1 8 3
f 1 3 4
f 1 4 5
f 1 5 2
f 2 5 7
f 2 7 6
f 3 8 9
f 3 9 10
f 3 10 4
f 4 10 11
f 4 11 12
f 4 12 5
f 5 12 7
f 6 7 14
f 6 14 15
f 6 15 13
f 7 16 30
f 7 30 41
f 7 41 26
f 7 26 40
f 7 40 54
f 7 54 36
f 7 36 53
f 7 53 52
f 7 52 68
f 7 68 50
f 7 50 49
f 7 49 48
f 7 48 67
f 7 67 79
f 7 79 84
f 7 84 83
f 7 83 81
f 7 81 72
f 7 72 71
f 7 71 70
f 7 70 57
f 7 57 56
f 7 56 43
f 7 43 29
f 7 29 15
f 7 15 14
f 7 12 16
f 8 17 18
f 8 18 19
f 8 19 20
f 8 20 21
f 8 21 22
f 8 22 9
f 9 22 23
f 9 23 24
f 9 24 10
f 10 24 11
f 11 24 12
f 12 24 23
f 12 23 25
f 12 25 26
f 12 26 27
f 12 27 16
f 13 15 28
f 15 29 28
f 16 27 30
f 17 31 18
f 18 31 32
f 18 32 33
f 18 33 34
f 18 34 19
f 19 34 20
f 20 34 35
f 20 35 36
f 20 36 37
f 20 37 21
f 21 37 38
f 21 38 22
f 22 38 39
f 22 39 23
f 23 39 40
f 23 40 25
f 25 40 26
f 26 41 27
f 27 41 30
f 28 29 42
f 29 43 42
f 31 44 32
f 32 44 45
f 32 45 46
f 32 46 33
f 33 46 34
f 34 46 47
f 34 47 48
f 34 48 49
f 34 49 50
f 34 50 51
f 34 51 35
f 35 51 52
f 35 52 53
f 35 53 36
f 36 54 37
f 37 54 38
f 38 54 39
f 39 54 40
f 42 43 56
f 42 56 57
f 42 57 55
f 44 58 45
f 45 58 59
f 45 59 60
f 45 60 61
f 45 61 62
f 45 62 46
f 46 63 64
f 46 64 47
f 46 62 65
f 46 65 66
f 46 66 63
f 47 64 67
f 47 67 48
f 50 68 51
f 51 68 52
f 55 57 70
f 55 70 71
f 55 71 72
f 55 72 69
f 60 73 74
f 60 74 61
f 61 74 63
f 61 63 62
f 62 63 65
f 63 75 76
f 63 76 77
f 63 77 67
f 63 67 64
f 63 66 65
f 63 74 78
f 63 78 82
f 63 82 80
f 63 80 81
f 63 81 83
f 63 83 75
f 67 76 79
f 67 77 76
f 69 80 82
f 69 82 73
f 69 72 81
f 69 81 80
f 73 82 74
f 74 82 78
f 75 83 84
f 75 84 76
f 76 84 79

