v 0.00807500 0.00950000 -0.00807500 1.00000000 0.00000000 0.00000000
v -0.00807500 0.00950000 -0.00807500 1.00000000 0.00000000 0.00000000
v 0.00807500 0.00950000 0.00807500 1.00000000 0.00000000 0.00000000
v -0.00807500 0.00950000 0.00807500 1.00000000 0.00000000 0.00000000
v -0.00950000 0.00807500 -0.00807500 0.19607843 0.19607843 0.19607843
v -0.00950000 -0.00807500 -0.00807500 0.19607843 0.19607843 0.19607843
v -0.00950000 0.00807500 0.00807500 0.19607843 0.19607843 0.19607843
v -0.00950000 -0.00807500 0.00807500 0.19607843 0.19607843 0.19607843
v 0.00807500 -0.00950000 -0.00807500 0.19607843 0.19607843 0.19607843
v 0.00807500 -0.00950000 0.00807500 0.19607843 0.19607843 0.19607843
v -0.00807500 -0.00950000 -0.00807500 0.19607843 0.19607843 0.19607843
v -0.00807500 -0.00950000 0.00807500 0.19607843 0.19607843 0.19607843
v 0.00950000 0.00807500 0.00807500 0.19607843 0.19607843 0.19607843
v 0.00950000 -0.00807500 0.00807500 0.19607843 0.19607843 0.19607843
v 0.00950000 0.00807500 -0.00807500 0.19607843 0.19607843 0.19607843
v 0.00950000 -0.00807500 -0.00807500 0.19607843 0.19607843 0.19607843
v 0.00807500 0.00807500 0.00950000 0.19607843 0.19607843 0.19607843
v -0.00807500 0.00807500 0.00950000 0.19607843 0.19607843 0.19607843
v 0.00807500 -0.00807500 0.00950000 0.19607843 0.19607843 0.19607843
v -0.00807500 -0.00807500 0.00950000 0.19607843 0.19607843 0.19607843
v 0.00807500 -0.00807500 -0.00950000 0.19607843 0.19607843 0.19607843
v -0.00807500 -0.00807500 -0.00950000 0.19607843 0.19607843 0.19607843
v 0.00807500 0.00807500 -0.00950000 0.19607843 0.19607843 0.19607843
v -0.00807500 0.00807500 -0.00950000 0.19607843 0.19607843 0.19607843
vn 1.71532030 4.39683720 -1.71532110
vn -1.71532080 4.39683630 -1.71532080
vn 1.71532060 4.39683770 1.71532060
vn -1.71532110 4.39683720 1.71532030
vn -4.39683820 1.71532000 -1.71532080
vn -4.39683770 -1.71532060 -1.71532060
vn -4.39683870 1.71532030 1.71532030
vn -4.39683770 -1.71532010 1.71532000
vn 1.71532000 -4.39683870 -1.71532080
vn 1.71532030 -4.39683910 1.71532030
vn -1.71531990 -4.39683720 -1.71532060
vn -1.71532080 -4.39683820 1.71532000
vn 4.39683770 1.71532060 1.71532060
vn 4.39683680 -1.71532110 1.71532030
vn 4.39683720 1.71532030 -1.71532110
vn 4.39683630 -1.71532080 -1.71532080
vn 1.71532060 1.71532060 4.39683770
vn -1.71532110 1.71532030 4.39683680
vn 1.71532030 -1.71532110 4.39683720
vn -1.71532080 -1.71532080 4.39683630
vn 1.71532000 -1.71532080 -4.39683820
vn -1.71532060 -1.71532060 -4.39683820
vn 1.71532030 1.71532030 -4.39683870
vn -1.71532080 1.71532000 -4.39683820
f 1//1 2//2 3//3
f 3//3 2//2 4//4
f 5//5 6//6 7//7
f 7//7 6//6 8//8
f 9//9 10//10 11//11
f 11//11 10//10 12//12
f 13//13 14//14 15//15
f 15//15 14//14 16//16
f 17//17 18//18 19//19
f 19//19 18//18 20//20
f 21//21 22//22 23//23
f 23//23 22//22 24//24
f 6//6 11//11 8//8
f 8//8 11//11 12//12
f 8//8 12//12 20//20
f 11//11 6//6 22//22
f 10//10 19//19 12//12
f 12//12 19//19 20//20
f 18//18 7//7 20//20
f 20//20 7//7 8//8
f 7//7 4//4 5//5
f 5//5 4//4 2//2
f 5//5 24//24 6//6
f 6//6 24//24 22//22
f 21//21 9//9 22//22
f 22//22 9//9 11//11
f 9//9 16//16 10//10
f 10//10 16//16 14//14
f 10//10 14//14 19//19
f 7//7 18//18 4//4
f 5//5 2//2 24//24
f 9//9 21//21 16//16
f 13//13 17//17 14//14
f 14//14 17//17 19//19
f 17//17 3//3 18//18
f 18//18 3//3 4//4
f 1//1 23//23 2//2
f 2//2 23//23 24//24
f 23//23 15//15 21//21
f 21//21 15//15 16//16
f 17//17 13//13 3//3
f 23//23 1//1 15//15
f 15//15 1//1 13//13
f 13//13 1//1 3//3

