mtllib material.mtl
usemtl Material.002
v 0.01312500 -0.01318500 -0.08125000
v 0.01312500 -0.01318500 -0.08125000
v -0.01312500 0.01306500 -0.08125000
v -0.01312500 0.01306500 -0.08125000
v -0.01312500 -0.01318500 -0.08125000
v -0.01312500 -0.01318500 -0.08125000
v 0.01312500 0.01306500 -0.08125000
v 0.01312500 0.01306500 -0.08125000
v -0.01312500 0.01306500 -0.08000000
v -0.01312500 0.01306500 -0.08000000
v -0.01312500 0.01306500 -0.08000000
v 0.01312500 0.01306500 -0.08000000
v 0.01312500 0.01306500 -0.08000000
v 0.01312500 0.01306500 -0.08000000
v 0.01312500 -0.01318500 -0.08000000
v 0.01312500 -0.01318500 -0.08000000
v 0.01312500 -0.01318500 -0.08000000
v -0.01312500 -0.01318500 -0.08000000
v -0.01312500 -0.01318500 -0.08000000
v -0.01312500 -0.01318500 -0.08000000
vn -0.00000000 1.00000000 -0.00000000
vn -1.00000000 -0.00000000 -0.00000000
vn -0.00000000 -1.00000000 -0.00000000
vn 1.00000000 -0.00000000 -0.00000000
vn 1.00000000 -0.00000000 -0.00000000
vn -0.00000000 1.00000000 -0.00000000
vn -0.00000000 -1.00000000 -0.00000000
vn -1.00000000 -0.00000000 -0.00000000
vn -0.00000000 -1.00000000 -0.00000000
vn 1.00000000 -0.00000000 -0.00000000
vn -0.00000000 -0.00000000 -1.00000000
vn -1.00000000 -0.00000000 -0.00000000
vn -0.00000000 -1.00000000 -0.00000000
vn -0.00000000 -0.00000000 -1.00000000
vn -1.00000000 -0.00000000 -0.00000000
vn -0.00000000 -0.00000000 -1.00000000
vn -0.00000000 1.00000000 -0.00000000
vn -0.00000000 1.00000000 -0.00000000
vn 1.00000000 -0.00000000 -0.00000000
vn -0.00000000 -0.00000000 -1.00000000
vt 0.99532000 0.98673200
vt 0.99532000 0.98673200
vt 0.00410700 0.01258600
vt 0.00410700 0.01258600
vt 0.01100700 0.98360200
vt 0.01100700 0.98360200
vt 0.99623200 -0.00772200
vt 0.99623200 -0.00772200
vt 0.00958100 0.02216200
vt 0.00958100 0.02216200
vt 0.00958100 0.02216200
vt 1.00002600 0.00023500
vt 1.00002600 0.00023500
vt 1.00002600 0.00023500
vt 0.99846500 0.99588000
vt 0.99846500 0.99588000
vt 0.99846500 0.99588000
vt 0.00950800 0.98494600
vt 0.00950800 0.98494600
vt 0.00950800 0.98494600
f 3/3/3 7/7/7 9/9/9
f 9/9/9 7/7/7 13/13/13
f 8/8/8 2/2/2 12/12/12
f 12/12/12 2/2/2 15/15/15
f 1/1/1 6/6/6 17/17/17
f 17/17/17 6/6/6 18/18/18
f 5/5/5 4/4/4 19/19/19
f 19/19/19 4/4/4 10/10/10
f 20/20/20 11/11/11 16/16/16
f 16/16/16 11/11/11 14/14/14

