mtllib material.mtl
usemtl Material.001
v -0.08125000 -0.01318500 -0.01312500
v -0.08125000 -0.01318500 -0.01312500
v -0.08125000 -0.01318500 0.01312500
v -0.08125000 -0.01318500 0.01312500
v -0.08000000 -0.01318500 -0.01312500
v -0.08000000 -0.01318500 -0.01312500
v -0.08000000 -0.01318500 -0.01312500
v -0.08000000 -0.01318500 0.01312500
v -0.08000000 -0.01318500 0.01312500
v -0.08000000 -0.01318500 0.01312500
v -0.08125000 0.01306500 0.01312600
v -0.08125000 0.01306500 0.01312600
v -0.08000000 0.01306500 0.01312600
v -0.08000000 0.01306500 0.01312600
v -0.08000000 0.01306500 0.01312600
v -0.08125000 0.01306500 -0.01312400
v -0.08125000 0.01306500 -0.01312400
v -0.08000000 0.01306500 -0.01312400
v -0.08000000 0.01306500 -0.01312400
v -0.08000000 0.01306500 -0.01312400
vn -0.00000000 1.00000000 -0.00000000
vn -0.00000000 -0.00000000 1.00000000
vn -0.00000000 1.00000000 -0.00000000
vn -0.00000000 -0.00000000 -1.00000000
vn -0.00000000 1.00000000 -0.00000000
vn -1.00000000 -0.00000000 -0.00000000
vn -0.00000000 -0.00000000 1.00000000
vn -0.00000000 1.00000000 -0.00000000
vn -0.00000000 -0.00000000 -1.00000000
vn -1.00000000 -0.00000000 -0.00000000
vn -0.00000000 -0.00000000 -1.00000000
vn -0.00000000 -1.00000000 -0.00000000
vn -0.00000000 -1.00000000 -0.00000000
vn -1.00000000 -0.00000000 -0.00000000
vn -0.00000000 -0.00000000 -1.00000000
vn -0.00000000 -1.00000000 -0.00000000
vn -0.00000000 -0.00000000 1.00000000
vn -0.00000000 -0.00000000 1.00000000
vn -0.00000000 -1.00000000 -0.00000000
vn -1.00000000 -0.00000000 -0.00000000
vt 0.99145200 0.98841000
vt 0.99145200 0.98841000
vt 0.00720100 0.99599900
vt 0.00720100 0.99599900
vt 0.99109500 0.99600600
vt 0.99109500 0.99600600
vt 0.99109500 0.99600600
vt 0.00206200 0.99502400
vt 0.00206200 0.99502400
vt 0.00206200 0.99502400
vt 0.00400100 0.01549600
vt 0.00400100 0.01549600
vt 0.00448100 0.00790000
vt 0.00448100 0.00790000
vt 0.00448100 0.00790000
vt 0.98837600 0.00400100
vt 0.98837600 0.00400100
vt 0.99580800 0.00336400
vt 0.99580800 0.00336400
vt 0.99580800 0.00336400
f 1/1/1 3/3/3 5/5/5
f 5/5/5 3/3/3 8/8/8
f 4/4/4 11/11/11 9/9/9
f 9/9/9 11/11/11 15/15/15
f 12/12/12 16/16/16 13/13/13
f 13/13/13 16/16/16 19/19/19
f 17/17/17 2/2/2 18/18/18
f 18/18/18 2/2/2 7/7/7
f 20/20/20 6/6/6 14/14/14
f 14/14/14 6/6/6 10/10/10

