mtllib material.mtl
usemtl Material
v -0.01312500 0.01306500 0.08125100
v -0.01312500 0.01306500 0.08125100
v 0.01312500 -0.01318500 0.08125100
v 0.01312500 -0.01318500 0.08125100
v 0.01312500 0.01306500 0.08125100
v 0.01312500 0.01306500 0.08125100
v -0.01312500 -0.01318500 0.08125100
v -0.01312500 -0.01318500 0.08125100
v -0.01312500 -0.01318500 0.08000000
v -0.01312500 -0.01318500 0.08000000
v -0.01312500 -0.01318500 0.08000000
v 0.01312500 -0.01318500 0.08000000
v 0.01312500 -0.01318500 0.08000000
v 0.01312500 -0.01318500 0.08000000
v 0.01312500 0.01306500 0.08000000
v 0.01312500 0.01306500 0.08000000
v 0.01312500 0.01306500 0.08000000
v -0.01312500 0.01306500 0.08000000
v -0.01312500 0.01306500 0.08000000
v -0.01312500 0.01306500 0.08000000
vn 1.00000000 -0.00000000 -0.00000000
vn -0.00000000 -1.00000000 -0.00000000
vn -0.00000000 1.00000000 -0.00000000
vn -1.00000000 -0.00000000 -0.00000000
vn -0.00000000 -1.00000000 -0.00000000
vn -1.00000000 -0.00000000 -0.00000000
vn -0.00000000 1.00000000 -0.00000000
vn 1.00000000 -0.00000000 -0.00000000
vn -0.00000000 1.00000000 -0.00000000
vn -0.00000000 -0.00000000 1.00000000
vn 1.00000000 -0.00000000 -0.00000000
vn -1.00000000 -0.00000000 -0.00000000
vn -0.00000000 -0.00000000 1.00000000
vn -0.00000000 1.00000000 -0.00000000
vn -0.00000000 -1.00000000 -0.00000000
vn -1.00000000 -0.00000000 -0.00000000
vn -0.00000000 -0.00000000 1.00000000
vn -0.00000000 -1.00000000 -0.00000000
vn -0.00000000 -0.00000000 1.00000000
vn 1.00000000 -0.00000000 -0.00000000
vt 0.99548200 0.00771800
vt 0.99548200 0.00771800
vt 0.00400100 0.99228200
vt 0.00400100 0.99228200
vt 0.01110600 0.01184800
vt 0.01110600 0.01184800
vt 0.99618800 0.98815300
vt 0.99618800 0.98815300
vt 0.99666900 0.99618100
vt 0.99666900 0.99618100
vt 0.99666900 0.99618100
vt 0.00913900 0.98935100
vt 0.00913900 0.98935100
vt 0.00913900 0.98935100
vt 0.00672000 0.00381900
vt 0.00672000 0.00381900
vt 0.00672000 0.00381900
vt 0.99424900 0.01064900
vt 0.99424900 0.01064900
vt 0.99424900 0.01064900
f 17/17/17 10/10/10 13/13/13
f 19/19/19 10/10/10 17/17/17
f 20/20/20 8/8/8 11/11/11
f 1/1/1 8/8/8 20/20/20
f 15/15/15 2/2/2 18/18/18
f 5/5/5 2/2/2 15/15/15
f 12/12/12 6/6/6 16/16/16
f 4/4/4 6/6/6 12/12/12
f 9/9/9 3/3/3 14/14/14
f 7/7/7 3/3/3 9/9/9

