mtllib material.mtl
usemtl Material.003
v 0.08000000 -0.01318500 0.01312500
v 0.08000000 -0.01318500 0.01312500
v 0.08000000 -0.01318500 0.01312500
v 0.08000000 0.01306500 0.01312600
v 0.08000000 0.01306500 0.01312600
v 0.08000000 0.01306500 0.01312600
v 0.08125000 -0.01318500 0.01312500
v 0.08125000 -0.01318500 0.01312500
v 0.08125000 0.01306500 0.01312600
v 0.08125000 0.01306500 0.01312600
v 0.08125000 -0.01318500 -0.01312500
v 0.08125000 -0.01318500 -0.01312500
v 0.08000000 -0.01318500 -0.01312500
v 0.08000000 -0.01318500 -0.01312500
v 0.08000000 -0.01318500 -0.01312500
v 0.08125000 0.01306500 -0.01312400
v 0.08125000 0.01306500 -0.01312400
v 0.08000000 0.01306500 -0.01312400
v 0.08000000 0.01306500 -0.01312400
v 0.08000000 0.01306500 -0.01312400
vn 1.00000000 -0.00000000 -0.00000000
vn -0.00000000 -0.00000000 -1.00000000
vn -0.00000000 1.00000000 -0.00000000
vn 1.00000000 -0.00000000 -0.00000000
vn -0.00000000 -0.00000000 -1.00000000
vn -0.00000000 -1.00000000 -0.00000000
vn -0.00000000 1.00000000 -0.00000000
vn -0.00000000 -0.00000000 -1.00000000
vn -0.00000000 -0.00000000 -1.00000000
vn -0.00000000 -1.00000000 -0.00000000
vn -0.00000000 1.00000000 -0.00000000
vn -0.00000000 -0.00000000 1.00000000
vn -0.00000000 1.00000000 -0.00000000
vn 1.00000000 -0.00000000 -0.00000000
vn -0.00000000 -0.00000000 1.00000000
vn -0.00000000 -0.00000000 1.00000000
vn -0.00000000 -1.00000000 -0.00000000
vn -0.00000000 -1.00000000 -0.00000000
vn -0.00000000 -0.00000000 1.00000000
vn 1.00000000 -0.00000000 -0.00000000
vt 0.99846400 0.98657900
vt 0.99846400 0.98657900
vt 0.99846400 0.98657900
vt 1.00002600 0.00333500
vt 1.00002600 0.00333500
vt 1.00002600 0.00333500
vt 0.99532000 0.98983200
vt 0.99532000 0.98983200
vt 0.99933200 0.00468000
vt 0.99933200 0.00468000
vt 0.00629500 0.99532000
vt 0.00629500 0.99532000
vt 0.00560200 0.99976500
vt 0.00560200 0.99976500
vt 0.00560200 0.99976500
vt 0.00410600 0.00086700
vt 0.00410600 0.00086700
vt 0.00406200 0.00102000
vt 0.00406200 0.00102000
vt 0.00406200 0.00102000
f 20/20/20 1/1/1 14/14/14
f 4/4/4 1/1/1 20/20/20
f 18/18/18 10/10/10 6/6/6
f 17/17/17 10/10/10 18/18/18
f 15/15/15 16/16/16 19/19/19
f 12/12/12 16/16/16 15/15/15
f 3/3/3 11/11/11 13/13/13
f 7/7/7 11/11/11 3/3/3
f 5/5/5 8/8/8 2/2/2
f 9/9/9 8/8/8 5/5/5

