# https://github.com/mikedh/trimesh
v 0.00807500 0.00950000 -0.00807500
v -0.00807500 0.00950000 -0.00807500
v 0.00807500 0.00950000 0.00807500
v -0.00807500 0.00950000 0.00807500
v -0.00950000 0.00807500 -0.00807500
v -0.00950000 -0.00807500 -0.00807500
v -0.00950000 0.00807500 0.00807500
v -0.00950000 -0.00807500 0.00807500
v 0.00807500 -0.00950000 -0.00807500
v 0.00807500 -0.00950000 0.00807500
v -0.00807500 -0.00950000 -0.00807500
v -0.00807500 -0.00950000 0.00807500
v 0.00950000 0.00807500 0.00807500
v 0.00950000 -0.00807500 0.00807500
v 0.00950000 0.00807500 -0.00807500
v 0.00950000 -0.00807500 -0.00807500
v 0.00807500 0.00807500 0.00950000
v -0.00807500 0.00807500 0.00950000
v 0.00807500 -0.00807500 0.00950000
v -0.00807500 -0.00807500 0.00950000
v 0.00807500 -0.00807500 -0.00950000
v -0.00807500 -0.00807500 -0.00950000
v 0.00807500 0.00807500 -0.00950000
v -0.00807500 0.00807500 -0.00950000
f 1 2 3
f 3 2 4
f 5 6 7
f 7 6 8
f 9 10 11
f 11 10 12
f 13 14 15
f 15 14 16
f 17 18 19
f 19 18 20
f 21 22 23
f 23 22 24
f 6 11 8
f 8 11 12
f 8 12 20
f 11 6 22
f 10 19 12
f 12 19 20
f 18 7 20
f 20 7 8
f 7 4 5
f 5 4 2
f 5 24 6
f 6 24 22
f 21 9 22
f 22 9 11
f 9 16 10
f 10 16 14
f 10 14 19
f 7 18 4
f 5 2 24
f 9 21 16
f 13 17 14
f 14 17 19
f 17 3 18
f 18 3 4
f 1 23 2
f 2 23 24
f 23 15 21
f 21 15 16
f 17 13 3
f 23 1 15
f 15 1 13
f 13 1 3

