####
#
# OBJ File Generated by Meshlab
#
####
# Object cubelet_with_colors.obj
#
# Vertices: 24
# Faces: 44
#
####
vn 1.7153203 4.3968372 -1.7153211
v 0.0080750 0.0095000 -0.0080750 1.000000 0.000000 0.000000
vn -1.7153208 4.3968363 -1.7153208
v -0.0080750 0.0095000 -0.0080750 1.000000 0.000000 0.000000
vn 1.7153206 4.3968377 1.7153206
v 0.0080750 0.0095000 0.0080750 1.000000 0.000000 0.000000
vn -1.7153211 4.3968372 1.7153203
v -0.0080750 0.0095000 0.0080750 1.000000 0.000000 0.000000
vn -4.3968382 1.7153200 -1.7153208
v -0.0095000 0.0080750 -0.0080750 0.196078 0.196078 0.196078
vn -4.3968377 -1.7153206 -1.7153206
v -0.0095000 -0.0080750 -0.0080750 0.196078 0.196078 0.196078
vn -4.3968387 1.7153203 1.7153203
v -0.0095000 0.0080750 0.0080750 0.196078 0.196078 0.196078
vn -4.3968377 -1.7153201 1.7153200
v -0.0095000 -0.0080750 0.0080750 0.196078 0.196078 0.196078
vn 1.7153200 -4.3968387 -1.7153208
v 0.0080750 -0.0095000 -0.0080750 0.196078 0.196078 0.196078
vn 1.7153203 -4.3968391 1.7153203
v 0.0080750 -0.0095000 0.0080750 0.196078 0.196078 0.196078
vn -1.7153199 -4.3968372 -1.7153206
v -0.0080750 -0.0095000 -0.0080750 0.196078 0.196078 0.196078
vn -1.7153208 -4.3968382 1.7153200
v -0.0080750 -0.0095000 0.0080750 0.196078 0.196078 0.196078
vn 4.3968377 1.7153206 1.7153206
v 0.0095000 0.0080750 0.0080750 0.196078 0.196078 0.196078
vn 4.3968368 -1.7153211 1.7153203
v 0.0095000 -0.0080750 0.0080750 0.196078 0.196078 0.196078
vn 4.3968372 1.7153203 -1.7153211
v 0.0095000 0.0080750 -0.0080750 0.196078 0.196078 0.196078
vn 4.3968363 -1.7153208 -1.7153208
v 0.0095000 -0.0080750 -0.0080750 0.196078 0.196078 0.196078
vn 1.7153206 1.7153206 4.3968377
v 0.0080750 0.0080750 0.0095000 0.196078 0.196078 0.196078
vn -1.7153211 1.7153203 4.3968368
v -0.0080750 0.0080750 0.0095000 0.196078 0.196078 0.196078
vn 1.7153203 -1.7153211 4.3968372
v 0.0080750 -0.0080750 0.0095000 0.196078 0.196078 0.196078
vn -1.7153208 -1.7153208 4.3968363
v -0.0080750 -0.0080750 0.0095000 0.196078 0.196078 0.196078
vn 1.7153200 -1.7153208 -4.3968382
v 0.0080750 -0.0080750 -0.0095000 0.196078 0.196078 0.196078
vn -1.7153206 -1.7153206 -4.3968382
v -0.0080750 -0.0080750 -0.0095000 0.196078 0.196078 0.196078
vn 1.7153203 1.7153203 -4.3968387
v 0.0080750 0.0080750 -0.0095000 0.196078 0.196078 0.196078
vn -1.7153208 1.7153200 -4.3968382
v -0.0080750 0.0080750 -0.0095000 0.196078 0.196078 0.196078
# 24 vertices, 0 vertices normals

f 1//1 2//2 3//3
f 3//3 2//2 4//4
f 5//5 6//6 7//7
f 7//7 6//6 8//8
f 9//9 10//10 11//11
f 11//11 10//10 12//12
f 13//13 14//14 15//15
f 15//15 14//14 16//16
f 17//17 18//18 19//19
f 19//19 18//18 20//20
f 21//21 22//22 23//23
f 23//23 22//22 24//24
f 6//6 11//11 8//8
f 8//8 11//11 12//12
f 8//8 12//12 20//20
f 11//11 6//6 22//22
f 10//10 19//19 12//12
f 12//12 19//19 20//20
f 18//18 7//7 20//20
f 20//20 7//7 8//8
f 7//7 4//4 5//5
f 5//5 4//4 2//2
f 5//5 24//24 6//6
f 6//6 24//24 22//22
f 21//21 9//9 22//22
f 22//22 9//9 11//11
f 9//9 16//16 10//10
f 10//10 16//16 14//14
f 10//10 14//14 19//19
f 7//7 18//18 4//4
f 5//5 2//2 24//24
f 9//9 21//21 16//16
f 13//13 17//17 14//14
f 14//14 17//17 19//19
f 17//17 3//3 18//18
f 18//18 3//3 4//4
f 1//1 23//23 2//2
f 2//2 23//23 24//24
f 23//23 15//15 21//21
f 21//21 15//15 16//16
f 17//17 13//13 3//3
f 23//23 1//1 15//15
f 15//15 1//1 13//13
f 13//13 1//1 3//3
# 44 faces, 0 coords texture

# End of File
