g Body_01
v 0.0266192 -0.00715 0.0095 0.494118 0.494118 0.52549
v 0.0275596 -0.0080904 0.0085596 0.494118 0.494118 0.52549
v 0.0284904 -0.0071596 0.0085596 0.494118 0.494118 0.52549
v 0.02755 -0.00621919 0.0095 0.494118 0.494118 0.52549
vn 0.408248 -0.408248 0.816497
vt -0.00878681 0.00131636
vt -0.0104156 0.00131636
vt -0.0104156 3.1985e-18
vt -0.00878681 7.20911e-19
f 1/1/1 2/2/1 3/3/1
f 3/3/1 4/4/1 1/1/1
v 0.0285 0.00995 0.00855 1 0.0745098 0.0745098
v 0.0285 -0.00715 0.00855 1 0.0745098 0.0745098
v 0.0285 -0.00715 -0.00855 1 0.0745098 0.0745098
v 0.0285 0.00995 -0.00855 1 0.0745098 0.0745098
vn 1 0 -8.67362e-17
vt -0.00855 -0.00095
vt -0.00855 -0.01805
vt 0.00855 -0.01805
vt 0.00855 -0.00095
f 5/5/2 6/6/2 7/7/2
f 7/7/2 8/8/2 5/5/2
v 0.0275596 0.0108904 -0.0085596 0 0 0
v 0.0284904 0.0099596 -0.0085596 0 0 0
v 0.02755 0.00901919 -0.0095 0 0 0
v 0.0266192 0.00995 -0.0095 0 0 0
v 0.0285 0.00995 -0.00855 0 0 0
v 0.02755 -0.00621919 -0.0095 0 0 0
v 0.0285 -0.00715 -0.00855 0 0 0
v 0.0284904 -0.0071596 -0.0085596 0 0 0
v 0.0275596 -0.0080904 -0.0085596 0 0 0
v 0.0266192 -0.00715 -0.0095 0 0 0
v 0.01045 0.00901919 -0.0095 0 0 0
v 0.0113808 0.00995 -0.0095 0 0 0
v 0.01045 -0.00621919 -0.0095 0 0 0
v 0.0113808 -0.00715 -0.0095 0 0 0
v 0.0095096 0.0099596 -0.0085596 0 0 0
v 0.0104404 0.0108904 -0.0085596 0 0 0
v 0.01045 0.0109 -0.00855 0 0 0
v 0.02755 0.0109 -0.00855 0 0 0
v 0.0095096 -0.0071596 -0.0085596 0 0 0
v 0.0104404 -0.0080904 -0.0085596 0 0 0
v 0.01045 -0.0081 -0.00855 0 0 0
v 0.02755 -0.0081 -0.00855 0 0 0
v 0.0095 -0.00715 -0.00855 0 0 0
v 0.0095 0.00995 -0.00855 0 0 0
v 0.01045 -0.0081 0.00855 0 0 0
v 0.02755 -0.0081 0.00855 0 0 0
v 0.0284904 -0.0071596 0.0085596 0 0 0
v 0.0275596 -0.0080904 0.0085596 0 0 0
v 0.0285 -0.00715 0.00855 0 0 0
v 0.01045 0.0109 0.00855 0 0 0
v 0.02755 0.0109 0.00855 0 0 0
v 0.0275596 0.0108904 0.0085596 0 0 0
v 0.0284904 0.0099596 0.0085596 0 0 0
v 0.0285 0.00995 0.00855 0 0 0
v 0.0266192 0.00995 0.0095 0 0 0
v 0.02755 0.00901919 0.0095 0 0 0
v 0.02755 -0.00621919 0.0095 0 0 0
v 0.0113808 0.00995 0.0095 0 0 0
v 0.0104404 0.0108904 0.0085596 0 0 0
v 0.0095 0.00995 0.00855 0 0 0
v 0.0095096 0.0099596 0.0085596 0 0 0
v 0.01045 0.00901919 0.0095 0 0 0
v 0.0095 -0.00715 0.00855 0 0 0
v 0.0104404 -0.0080904 0.0085596 0 0 0
v 0.0095096 -0.0071596 0.0085596 0 0 0
v 0.01045 -0.00621919 0.0095 0 0 0
v 0.0113808 -0.00715 0.0095 0 0 0
v 0.0266192 -0.00715 0.0095 0 0 0
vn 0.408248 0.408248 -0.816497
vn 0.707107 -0 -0.707107
vn 0.408248 -0.408248 -0.816497
vn 0 0 -1
vn -0.408248 0.408248 -0.816497
vn 0 0.707107 -0.707107
vn -0.408248 -0.408248 -0.816497
vn -0 -0.707107 -0.707107
vn -0.707107 -0 -0.707107
vn -0 -1 -0
vn 0.707107 -0.707107 -6.13317e-17
vn -0 1 -0
vn 0.707107 0.707107 -6.13317e-17
vn 0.408248 0.408248 0.816497
vn 0.707107 0 0.707107
vn 0 0.707107 0.707107
vn -0.707107 0.707107 0
vn -0.408248 0.408248 0.816497
vn -1 -0 -0
vn -0.707107 -0.707107 0
vn 0 0 1
vn -0.707107 -0 0.707107
vn 0 -0.707107 0.707107
vn -0.408248 -0.408248 0.816497
vt -0.000542942 0.00131636
vt -0.000542942 -6.96901e-18
vt 0.00108588 -3.24658e-18
vt 0.00108588 0.00131636
vt 0.00095 0.0013435
vt 0.0171192 0
vt 0.00188081 0
vt 0.01805 0.0013435
vt 0.0180596 0.00132993
vt 0.000940403 0.00132993
vt 0.00988377 4.63106e-18
vt 0.0115126 7.29137e-18
vt 0.0115126 0.00131636
vt 0.00988377 0.00131636
vt -0.00855 -0.00188081
vt 0.00855 -0.00188081
vt 0.00761919 -0.00095
vt 0.00855 -0.0171192
vt -0.00855 -0.0171192
vt -0.00761919 -0.01805
vt 0.00761919 -0.01805
vt -0.00761919 -0.00095
vt -0.000554024 1.58726e-20
vt -0.000554024 0.00131636
vt -0.00218285 0.00131636
vt -0.00218285 2.5497e-18
vt 0.00761919 0
vt 0.0085596 0.00132993
vt 0.00855 0.0013435
vt -0.00855 0.0013435
vt -0.00761919 0
vt -0.0085596 0.00132993
vt -0.0104156 -2.36675e-18
vt -0.00878681 -1.50943e-18
vt -0.00878681 0.00131636
vt -0.0104156 0.00131636
vt 0.00855 0
vt 0.00761919 0.0013435
vt -0.00761919 0.0013435
vt -0.00855 0
vt -0.0085596 1.35721e-05
vt 0.0085596 1.35721e-05
vt 0.0171192 0.0013435
vt 0.0180596 1.35721e-05
vt 0.01805 0
vt 0.00095 0
vt 0.000940403 1.35721e-05
vt 0.00188081 0.0013435
vt -0.00855 0.00855
vt 0.00855 0.00855
vt 0.00855 -0.00855
vt -0.00855 -0.00855
vt 0.00855 5.24386e-19
vt -0.0085596 0.00132993
vt -0.0085596 1.35721e-05
vt 0.0085596 1.35721e-05
vt -0.00855 0.0013435
vt 0.0085596 0.00132993
vt -0.00855 1.92888e-18
vt 0.00855 0.0013435
vt -0.00855 -0.00855
vt -0.00855 0.00855
vt 0.00855 0.00855
vt 0.00855 -0.00855
vt 0.0085596 0.00132993
vt -0.0085596 0.00132993
vt -0.0085596 1.35721e-05
vt 0.00855 0.0013435
vt -0.00855 0.0013435
vt -0.00855 5.24386e-19
vt 0.00855 -5.24386e-19
vt 0.0085596 1.35721e-05
vt -0.000554024 5.28125e-18
vt -0.000554024 0.00131636
vt -0.00218285 0.00131636
vt -0.00218285 5.17283e-18
vt 0.0171192 0.0013435
vt 0.0180596 1.35721e-05
vt 0.01805 0
vt 0.00095 0
vt 0.00188081 0.0013435
vt 0.000940403 1.35721e-05
vt 0.00855 0.0013435
vt -0.00855 0.0013435
vt -0.00761919 0
vt 0.00761919 0
vt 0.0085596 0.00132993
vt -0.0085596 0.00132993
vt 0.00855 0.0013435
vt -0.0085596 1.35721e-05
vt -0.00855 0
vt -0.00855 0.0013435
vt -0.0085596 0.00132993
vt 0.00855 0
vt 0.0085596 1.35721e-05
vt 0.0085596 0.00132993
vt 0.00108588 0.00131636
vt -0.000542942 0.00131636
vt -0.000542942 -1.23545e-18
vt 0.00108588 -2.27584e-20
vt 0.00855 -0.01805
vt 0.00855 -0.00095
vt -0.00855 -0.00095
vt -0.00855 -0.01805
vt 0.0085596 1.35721e-05
vt -0.0085596 1.35721e-05
vt -0.00855 0
vt -0.00855 0.0013435
vt -0.0085596 0.00132993
vt 0.0085596 0.00132993
vt 0.00855 0
vt 0.00855 0.0013435
vt 0.00855 -0.00188081
vt 0.00761919 -0.00095
vt -0.00761919 -0.00095
vt 0.00855 -0.0171192
vt -0.00855 -0.0171192
vt -0.00761919 -0.01805
vt -0.00855 -0.00188081
vt 0.00761919 -0.01805
vt 0.00095 0.0013435
vt 0.0171192 0
vt 0.00188081 0
vt 0.01805 0.0013435
vt 0.0180596 0.00132993
vt 0.000940403 0.00132993
vt 0.00855 0
vt 0.00761919 0.0013435
vt -0.00761919 0.0013435
vt -0.00855 0
vt -0.0085596 1.35721e-05
vt 0.0085596 1.35721e-05
vt -0.00330198 -6.50521e-19
vt -0.00330198 0.00131636
vt -0.0049308 0.00131636
vt -0.0049308 8.67362e-19
f 9/9/3 10/10/3 11/11/3
f 11/11/3 12/12/3 9/9/3
f 13/13/4 14/14/4 11/15/4
f 14/14/4 13/13/4 15/16/4
f 15/16/4 16/17/4 14/14/4
f 11/15/4 10/18/4 13/13/4
f 14/19/5 16/20/5 17/21/5
f 17/21/5 18/22/5 14/19/5
f 11/23/6 19/24/6 20/25/6
f 21/26/6 14/27/6 18/28/6
f 11/23/6 21/26/6 19/24/6
f 21/26/6 11/23/6 14/27/6
f 18/28/6 22/29/6 21/26/6
f 20/25/6 12/30/6 11/23/6
f 23/31/7 24/32/7 20/33/7
f 20/33/7 19/34/7 23/31/7
f 20/35/8 24/36/8 25/37/8
f 26/38/8 12/39/8 20/35/8
f 25/37/8 26/38/8 20/35/8
f 26/38/8 9/40/8 12/39/8
f 27/41/9 21/42/9 22/43/9
f 22/43/9 28/44/9 27/41/9
f 29/45/10 22/46/10 18/47/10
f 18/47/10 30/48/10 29/45/10
f 18/47/10 17/49/10 30/48/10
f 29/45/10 28/50/10 22/46/10
f 21/51/11 27/52/11 31/53/11
f 32/54/11 23/55/11 19/56/11
f 19/56/11 21/51/11 32/54/11
f 31/53/11 32/54/11 21/51/11
f 33/57/12 29/58/12 30/59/12
f 30/59/12 34/60/12 33/57/12
f 30/61/13 35/62/13 36/63/13
f 30/61/13 17/64/13 37/65/13
f 37/65/13 17/64/13 16/66/13
f 37/65/13 35/62/13 30/61/13
f 36/63/13 34/67/13 30/61/13
f 16/66/13 15/68/13 37/65/13
f 38/69/14 39/70/14 26/71/14
f 26/71/14 25/72/14 38/69/14
f 9/73/15 40/74/15 41/75/15
f 9/73/15 26/76/15 39/77/15
f 39/77/15 40/74/15 9/73/15
f 42/78/15 13/79/15 10/80/15
f 10/80/15 9/73/15 42/78/15
f 41/75/15 42/78/15 9/73/15
f 41/81/16 40/82/16 43/83/16
f 43/83/16 44/84/16 41/81/16
f 45/85/17 35/86/17 37/87/17
f 42/88/17 44/89/17 45/85/17
f 37/87/17 42/88/17 45/85/17
f 42/88/17 41/90/17 44/89/17
f 39/91/18 38/92/18 46/93/18
f 46/93/18 43/94/18 39/91/18
f 43/94/18 40/95/18 39/91/18
f 38/92/18 47/96/18 46/93/18
f 38/97/19 23/98/19 32/99/19
f 38/97/19 25/100/19 24/101/19
f 24/101/19 23/98/19 38/97/19
f 32/99/19 48/102/19 49/103/19
f 49/103/19 47/104/19 32/99/19
f 32/99/19 47/104/19 38/97/19
f 46/105/20 47/106/20 49/107/20
f 49/107/20 50/108/20 46/105/20
f 51/109/21 48/110/21 32/111/21
f 32/111/21 31/112/21 51/109/21
f 52/113/22 28/114/22 29/115/22
f 52/113/22 31/116/22 27/117/22
f 31/116/22 52/113/22 53/118/22
f 27/117/22 28/114/22 52/113/22
f 29/115/22 33/119/22 52/113/22
f 53/118/22 51/120/22 31/116/22
f 44/121/23 43/122/23 46/123/23
f 45/124/23 54/125/23 55/126/23
f 50/127/23 45/124/23 44/121/23
f 45/124/23 50/127/23 54/125/23
f 55/126/23 56/128/23 45/124/23
f 46/123/23 50/127/23 44/121/23
f 48/129/24 54/130/24 50/131/24
f 54/130/24 48/129/24 51/132/24
f 51/132/24 53/133/24 54/130/24
f 50/131/24 49/134/24 48/129/24
f 34/135/25 56/136/25 55/137/25
f 55/137/25 33/138/25 34/135/25
f 55/137/25 52/139/25 33/138/25
f 34/135/25 36/140/25 56/136/25
f 55/141/26 54/142/26 53/143/26
f 53/143/26 52/144/26 55/141/26
