# https://github.com/mikedh/trimesh
v -0.02380966 0.00092011 -0.00506875
v -0.02393515 0.00092011 -0.00506654
v -0.02380966 0.00170220 -0.00506875
v -0.00856459 0.00092011 -0.00506875
v -0.02393515 0.00093764 -0.00506654
v -0.02406064 0.00092011 -0.00505845
v -0.00844085 0.00170220 -0.00506875
v -0.02393515 0.00170220 -0.00506507
v -0.00844085 0.00156241 -0.00506875
v -0.00844085 0.00143739 -0.00506728
v -0.00844085 0.00131246 -0.00506434
v -0.00844085 0.00092011 -0.00504668
v -0.02406064 0.00093764 -0.00505845
v -0.02418439 0.00092011 -0.00504080
v -0.00831536 0.00170220 -0.00504448
v -0.02406064 0.00131246 -0.00505772
v -0.02406064 0.00168742 -0.00505625
v -0.02406064 0.00170220 -0.00505551
v -0.00833802 0.00131246 -0.00502977
v -0.00843039 0.00092011 -0.00504227
v -0.02418439 0.00093764 -0.00504080
v -0.02429244 0.00092011 -0.00501432
v -0.00824042 0.00170220 -0.00501064
v -0.02418439 0.00131246 -0.00503859
v -0.02418439 0.00156241 -0.00503639
v -0.02418439 0.00170220 -0.00503492
v -0.00836242 0.00093764 -0.00501359
v -0.00836416 0.00092011 -0.00501211
v -0.02429244 0.00093764 -0.00501432
v -0.02435519 0.00092011 -0.00499299
v -0.00817767 0.00170220 -0.00495033
v -0.02428722 0.00118759 -0.00501359
v -0.02428373 0.00143739 -0.00501211
v -0.02428024 0.00156241 -0.00501138
v -0.02427676 0.00170220 -0.00500991
v -0.00829968 0.00093764 -0.00495254
v -0.00830142 0.00092011 -0.00495107
v -0.02442490 0.00092011 -0.00495916
v -0.02443536 0.00093764 -0.00495401
v -0.02434996 0.00118759 -0.00499152
v -0.00736200 0.00170220 -0.00415449
v -0.02434299 0.00156241 -0.00498784
v -0.02433950 0.00170220 -0.00498637
v -0.00754849 0.00092011 -0.00420304
v -0.02443536 0.00092011 -0.00495401
v -0.02443536 0.00156241 -0.00494224
v -0.02434822 0.00131246 -0.00499005
v -0.02453296 0.00093764 -0.00489737
v -0.02452774 0.00131246 -0.00489369
v -0.00735503 0.00170220 -0.00414714
v -0.00748574 0.00092011 -0.00414052
v -0.02443536 0.00168742 -0.00493930
v -0.02443536 0.00170220 -0.00493856
v -0.02453296 0.00092011 -0.00489737
v -0.02452076 0.00170220 -0.00488928
v -0.02459571 0.00092011 -0.00485545
v -0.02459222 0.00118759 -0.00485177
v -0.00729228 0.00170220 -0.00407726
v -0.00741429 0.00092631 -0.00405372
v -0.00741603 0.00092011 -0.00405372
v -0.00724174 0.00170220 -0.00401548
v -0.02458351 0.00168742 -0.00484589
v -0.02459222 0.00170220 -0.00483780
v -0.02466194 0.00092011 -0.00480175
v -0.02467239 0.00093764 -0.00479293
v -0.02467065 0.00106258 -0.00479146
v -0.00737420 0.00096046 -0.00400665
v -0.00741254 0.00092011 -0.00404710
v -0.00723303 0.00170220 -0.00393678
v -0.00724348 0.00168742 -0.00401254
v -0.02466194 0.00156241 -0.00478484
v -0.02465845 0.00170220 -0.00478263
v -0.02467239 0.00092011 -0.00479293
v -0.02473514 0.00093764 -0.00473629
v -0.00737420 0.00092011 -0.00393678
v -0.00740906 0.00092011 -0.00403901
v -0.00725220 0.00162327 -0.00400003
v -0.00723303 0.00170220 0.00243729
v -0.00723303 0.00170128 0.00244538
v -0.00723477 0.00169079 0.00018364
v -0.02472468 0.00156241 -0.00472379
v -0.02472120 0.00170220 -0.00472085
v -0.02473514 0.00092011 -0.00473629
v -0.02478045 0.00092011 -0.00468260
v -0.02478743 0.00093764 -0.00467377
v -0.02478394 0.00118759 -0.00466862
v -0.02478045 0.00143739 -0.00466348
v -0.00737420 0.00092011 0.00244538
v -0.00724000 0.00170220 0.00244538
v -0.02477523 0.00170220 -0.00465833
v -0.02478743 0.00092011 -0.00467377
v -0.02484146 0.00092011 -0.00460243
v -0.02485017 0.00092011 -0.00459066
v -0.02485017 0.00093764 -0.00458992
v -0.02484668 0.00118759 -0.00458330
v -0.02502620 0.00092011 0.00244538
v -0.02500703 0.00170220 0.00244538
v -0.02484494 0.00131246 -0.00457889
v -0.02483797 0.00168742 -0.00456639
v -0.02483797 0.00170220 -0.00456418
v -0.02489026 0.00092011 -0.00452814
v -0.02503317 0.00092134 0.00244538
v -0.02503666 0.00092011 0.00243729
v -0.02500703 0.00170220 -0.00393678
v -0.02501226 0.00156241 0.00244538
v -0.02488503 0.00118759 -0.00452078
v -0.02487806 0.00156241 -0.00450828
v -0.02487457 0.00170220 -0.00450313
v -0.02493557 0.00092011 -0.00443693
v -0.02503317 0.00094553 0.00244538
v -0.02503666 0.00092011 -0.00393678
v -0.02502969 0.00106258 0.00244538
v -0.02500180 0.00170220 -0.00406402
v -0.02491291 0.00156241 -0.00443693
v -0.02490768 0.00168742 -0.00443693
v -0.02490594 0.00170220 -0.00443767
v -0.02498089 0.00092011 -0.00432219
v -0.02498089 0.00093764 -0.00432146
v -0.02502969 0.00092011 -0.00406182
v -0.02500703 0.00156241 -0.00406182
v -0.02500006 0.00170220 -0.00408388
v -0.02499832 0.00164861 -0.00412948
v -0.02496171 0.00156241 -0.00431189
v -0.02495649 0.00170220 -0.00431189
v -0.02491291 0.00170220 -0.00442222
v -0.02499832 0.00092011 -0.00426850
v -0.02501400 0.00093764 -0.00418685
v -0.02501400 0.00092011 -0.00418685
v -0.02500006 0.00156241 -0.00413831
v -0.02499134 0.00170220 -0.00415890
v -0.02498960 0.00156241 -0.00420083
v -0.02499657 0.00118759 -0.00423981
v -0.02498786 0.00170220 -0.00417803
v -0.02500006 0.00093764 -0.00425820
v -0.02499832 0.00103311 -0.00425305
v -0.02501226 0.00092011 -0.00419789
v -0.02500703 0.00118759 -0.00417803
f 1 2 5
f 1 5 3
f 1 3 7
f 1 7 9
f 1 9 4
f 1 4 12
f 1 12 20
f 1 20 28
f 1 28 37
f 1 37 44
f 1 44 51
f 1 51 60
f 1 60 68
f 1 68 76
f 1 76 75
f 1 75 88
f 1 88 96
f 1 96 103
f 1 103 111
f 1 111 119
f 1 119 128
f 1 128 136
f 1 136 126
f 1 126 117
f 1 117 109
f 1 109 101
f 1 101 93
f 1 93 92
f 1 92 91
f 1 91 84
f 1 84 83
f 1 83 73
f 1 73 64
f 1 64 56
f 1 56 54
f 1 54 45
f 1 45 38
f 1 38 30
f 1 30 22
f 1 22 14
f 1 14 6
f 1 6 2
f 2 6 13
f 2 13 5
f 3 5 8
f 3 8 18
f 3 18 26
f 3 26 35
f 3 35 43
f 3 43 53
f 3 53 55
f 3 55 63
f 3 63 72
f 3 72 82
f 3 82 90
f 3 90 100
f 3 100 108
f 3 108 116
f 3 116 125
f 3 125 124
f 3 124 133
f 3 133 130
f 3 130 121
f 3 121 113
f 3 113 104
f 3 104 97
f 3 97 89
f 3 89 78
f 3 78 69
f 3 69 61
f 3 61 58
f 3 58 50
f 3 50 41
f 3 41 31
f 3 31 23
f 3 23 15
f 3 15 7
f 4 9 10
f 4 10 11
f 4 11 12
f 5 13 8
f 6 14 21
f 6 21 13
f 7 15 9
f 8 13 16
f 8 16 17
f 8 17 18
f 9 15 10
f 10 15 11
f 11 15 12
f 12 15 19
f 12 19 20
f 13 21 16
f 14 22 29
f 14 29 21
f 15 23 19
f 16 21 17
f 17 21 24
f 17 24 25
f 17 25 26
f 17 26 18
f 19 23 27
f 19 27 20
f 20 27 28
f 21 29 24
f 22 30 29
f 23 31 27
f 24 29 32
f 24 32 25
f 25 32 33
f 25 33 26
f 26 33 34
f 26 34 35
f 27 31 36
f 27 36 37
f 27 37 28
f 29 30 32
f 30 38 39
f 30 39 40
f 30 40 33
f 30 33 32
f 31 41 36
f 33 40 34
f 34 40 42
f 34 42 43
f 34 43 35
f 36 41 44
f 36 44 37
f 38 45 39
f 39 46 47
f 39 47 40
f 39 45 54
f 39 54 48
f 39 48 49
f 39 49 46
f 40 47 42
f 41 50 51
f 41 51 44
f 42 47 46
f 42 46 43
f 43 46 52
f 43 52 53
f 46 49 55
f 46 55 52
f 48 54 56
f 48 56 49
f 49 56 57
f 49 57 55
f 50 58 51
f 51 59 60
f 51 58 61
f 51 61 59
f 52 55 53
f 55 57 62
f 55 62 63
f 56 64 65
f 56 65 66
f 56 66 57
f 57 66 62
f 59 61 67
f 59 67 60
f 60 67 68
f 61 69 70
f 61 70 67
f 62 66 71
f 62 71 72
f 62 72 63
f 64 73 65
f 65 73 83
f 65 83 74
f 65 74 66
f 66 74 71
f 67 75 76
f 67 76 68
f 67 70 77
f 67 77 75
f 69 78 79
f 69 79 80
f 69 80 75
f 69 75 77
f 69 77 70
f 71 74 81
f 71 81 72
f 72 81 82
f 74 83 84
f 74 84 85
f 74 85 86
f 74 86 87
f 74 87 81
f 75 80 88
f 78 89 79
f 79 88 80
f 79 89 97
f 79 97 105
f 79 105 112
f 79 112 110
f 79 110 102
f 79 102 96
f 79 96 88
f 81 87 90
f 81 90 82
f 84 91 85
f 85 91 92
f 85 92 86
f 86 92 87
f 87 92 93
f 87 93 94
f 87 94 95
f 87 95 90
f 90 95 98
f 90 98 99
f 90 99 100
f 93 101 94
f 94 101 95
f 95 101 98
f 96 102 103
f 97 104 111
f 97 111 103
f 97 103 105
f 98 101 106
f 98 106 99
f 99 106 107
f 99 107 108
f 99 108 100
f 101 109 106
f 102 110 103
f 103 110 112
f 103 112 105
f 104 113 111
f 106 109 107
f 107 109 114
f 107 114 115
f 107 115 108
f 108 115 116
f 109 117 118
f 109 118 114
f 111 113 120
f 111 120 119
f 113 121 122
f 113 122 120
f 114 118 123
f 114 123 124
f 114 124 125
f 114 125 115
f 115 125 116
f 117 126 118
f 118 126 123
f 119 127 128
f 119 120 122
f 119 122 129
f 119 129 127
f 121 130 122
f 122 130 131
f 122 131 129
f 123 126 124
f 124 126 132
f 124 132 131
f 124 131 133
f 126 134 135
f 126 135 132
f 126 136 134
f 127 137 132
f 127 132 134
f 127 134 136
f 127 136 128
f 127 129 137
f 129 131 137
f 130 133 131
f 131 132 137
f 132 135 134

