# https://github.com/mikedh/trimesh
v -0.02380880 -0.00154707 -0.00506875
v -0.02393423 -0.00154707 -0.00506577
v -0.02393423 -0.00118723 -0.00506677
v -0.02393423 -0.00056295 -0.00506776
v -0.02380880 0.00092011 -0.00506875
v -0.00845574 -0.00154707 -0.00506875
v -0.02394991 -0.00154707 -0.00506478
v -0.02405966 -0.00068756 -0.00505982
v -0.02405617 -0.00000411 -0.00506180
v -0.02393423 0.00056245 -0.00506776
v -0.00856550 0.00092011 -0.00506875
v -0.02393423 0.00092011 -0.00506677
v -0.00844181 -0.00143718 -0.00506776
v -0.00844181 -0.00154707 -0.00506776
v -0.02405966 -0.00154707 -0.00505684
v -0.02405966 -0.00131233 -0.00505783
v -0.02405966 -0.00106213 -0.00505883
v -0.02418335 -0.00000411 -0.00504593
v -0.02405617 0.00018740 -0.00506180
v -0.00844006 0.00092011 -0.00504692
v -0.02405966 0.00043735 -0.00506081
v -0.02405966 0.00068730 -0.00505982
v -0.02405966 0.00092011 -0.00505883
v -0.00832509 -0.00154707 -0.00503402
v -0.02418509 -0.00154707 -0.00503600
v -0.02418509 -0.00143718 -0.00503700
v -0.02418509 -0.00131233 -0.00503799
v -0.02418509 -0.00056295 -0.00504295
v -0.02432097 -0.00000411 -0.00501417
v -0.02418335 0.00006254 -0.00504593
v -0.00836341 0.00092011 -0.00501219
v -0.00830941 -0.00154707 -0.00502906
v -0.02418335 0.00081216 -0.00504196
v -0.02418335 0.00092011 -0.00504096
v -0.02428613 -0.00154707 -0.00500822
v -0.02428090 -0.00143718 -0.00501120
v -0.02428265 -0.00131233 -0.00501219
v -0.02429484 -0.00068756 -0.00501516
v -0.02430355 -0.00031251 -0.00501616
v -0.02432097 0.00005505 -0.00501417
v -0.02436278 -0.00000411 -0.00500226
v -0.02430529 0.00018740 -0.00501715
v -0.00835470 0.00092011 -0.00500425
v -0.00825540 -0.00154707 -0.00499730
v -0.02429832 0.00056245 -0.00501616
v -0.02429310 0.00081216 -0.00501516
v -0.02427568 0.00092011 -0.00501814
v -0.02434013 -0.00154707 -0.00498738
v -0.02435581 -0.00081242 -0.00499433
v -0.02437498 -0.00000411 -0.00499830
v -0.02435930 0.00068730 -0.00499532
v -0.00829199 0.00092011 -0.00494273
v -0.00821882 -0.00154707 -0.00496158
v -0.02429136 0.00092011 -0.00501417
v -0.02435233 -0.00154707 -0.00498242
v -0.02443421 -0.00106213 -0.00495364
v -0.02442027 -0.00000411 -0.00497547
v -0.02442027 0.00005505 -0.00497547
v -0.02443595 0.00043735 -0.00496257
v -0.02443421 -0.00056295 -0.00496158
v -0.02443421 -0.00018766 -0.00496654
v -0.02435407 0.00092011 -0.00499333
v -0.02434536 0.00092011 -0.00499631
v -0.02443595 0.00068730 -0.00495860
v -0.00792441 0.00092011 -0.00457755
v -0.00737913 -0.00154707 -0.00413597
v -0.00745056 -0.00154707 -0.00420643
v -0.02443421 -0.00154707 -0.00494372
v -0.02443421 -0.00131233 -0.00494868
v -0.02444640 -0.00154707 -0.00493776
v -0.02453873 -0.00068756 -0.00490204
v -0.02454744 -0.00006280 -0.00490700
v -0.02454744 -0.00000411 -0.00490700
v -0.02443246 0.00018740 -0.00496753
v -0.02454570 0.00006254 -0.00490700
v -0.02454047 -0.00056295 -0.00490303
v -0.02442375 0.00092011 -0.00495959
v -0.02443595 0.00092011 -0.00495364
v -0.02453873 0.00056245 -0.00490204
v -0.00754811 0.00092011 -0.00420345
v -0.00737216 -0.00154707 -0.00412903
v -0.02452480 -0.00154707 -0.00489311
v -0.02452828 -0.00131233 -0.00489609
v -0.02461190 -0.00006280 -0.00486532
v -0.02461190 -0.00000411 -0.00486532
v -0.02453176 0.00092011 -0.00489807
v -0.02460493 0.00031225 -0.00486334
v -0.02460145 0.00056245 -0.00486036
v -0.00748540 0.00092011 -0.00414093
v -0.00731119 -0.00154707 -0.00405460
v -0.02458751 -0.00154707 -0.00484746
v -0.02458925 -0.00143718 -0.00484945
v -0.02460319 -0.00056295 -0.00486036
v -0.02475127 -0.00006280 -0.00475220
v -0.02468333 -0.00000411 -0.00480777
v -0.02468333 0.00006254 -0.00480777
v -0.02459796 0.00081216 -0.00485639
v -0.02458577 0.00092011 -0.00486136
v -0.02467984 0.00056245 -0.00479785
v -0.00741571 0.00092011 -0.00405460
v -0.00741223 0.00092011 -0.00404766
v -0.00740875 0.00092011 -0.00403873
v -0.00727286 -0.00154707 -0.00395239
v -0.02466068 -0.00154707 -0.00478495
v -0.02466242 -0.00143718 -0.00478693
v -0.02475127 -0.00000411 -0.00475220
v -0.02474778 -0.00025842 -0.00474922
v -0.02478785 -0.00093728 -0.00467381
v -0.02479134 -0.00068756 -0.00467877
v -0.02486276 -0.00006280 -0.00461228
v -0.02483140 -0.00000411 -0.00465198
v -0.02474953 0.00006254 -0.00475319
v -0.02459448 0.00092011 -0.00485540
v -0.02466242 0.00092011 -0.00480182
v -0.02467287 0.00092011 -0.00479289
v -0.02474778 0.00018740 -0.00475121
v -0.00737390 0.00092011 -0.00393652
v -0.00726938 -0.00154707 -0.00393652
v -0.02472339 -0.00154707 -0.00472342
v -0.02473733 -0.00081242 -0.00473831
v -0.02477740 -0.00154707 -0.00466091
v -0.02478611 -0.00106213 -0.00467083
v -0.02485579 -0.00056295 -0.00460137
v -0.02490457 -0.00006280 -0.00454977
v -0.02486276 -0.00000411 -0.00461228
v -0.02486102 0.00006254 -0.00461328
v -0.02486102 0.00018740 -0.00461030
v -0.02480005 0.00018740 -0.00468671
v -0.02474430 0.00043735 -0.00474625
v -0.02474256 0.00056245 -0.00474327
v -0.02472688 0.00092011 -0.00474426
v -0.02479308 0.00043276 -0.00468671
v -0.00737390 0.00092011 0.00393652
v -0.00726938 -0.00154707 0.00393652
v -0.02484012 -0.00154707 -0.00457259
v -0.02484883 -0.00106213 -0.00458748
v -0.02485057 -0.00093728 -0.00459145
v -0.02485405 -0.00068756 -0.00459839
v -0.02490283 -0.00018766 -0.00454679
v -0.02490457 -0.00000411 -0.00454977
v -0.02496380 -0.00006280 -0.00443664
v -0.02490283 0.00006254 -0.00455076
v -0.02485579 0.00043276 -0.00460732
v -0.02479134 0.00068730 -0.00467877
v -0.02478785 0.00092011 -0.00467381
v -0.02473559 0.00092011 -0.00473632
v -0.00737565 0.00092011 0.00397224
v -0.00730074 -0.00154707 0.00402781
v -0.02484534 -0.00154707 -0.00456465
v -0.02489238 -0.00081242 -0.00453191
v -0.02489412 -0.00068756 -0.00453588
v -0.02496032 -0.00018766 -0.00443664
v -0.02496380 -0.00000411 -0.00443664
v -0.02496032 0.00018740 -0.00443664
v -0.02499342 -0.00006280 -0.00436421
v -0.02499342 -0.00000411 -0.00436520
v -0.02489760 0.00043735 -0.00454183
v -0.02485231 0.00081216 -0.00459442
v -0.02485057 0.00092011 -0.00459145
v -0.00741746 0.00092011 0.00405857
v -0.00731119 -0.00154707 0.00405460
v -0.02487844 -0.00154707 -0.00451008
v -0.02488541 -0.00118723 -0.00452099
v -0.02494813 -0.00056295 -0.00443664
v -0.02499342 0.00006254 -0.00436520
v -0.02494813 0.00056245 -0.00443664
v -0.02489412 0.00068730 -0.00453488
v -0.02498645 -0.00056295 -0.00434039
v -0.02501432 -0.00006280 -0.00430169
v -0.02500387 -0.00000411 -0.00433543
v -0.02488889 0.00092011 -0.00452893
v -0.00736694 -0.00154707 0.00412307
v -0.00748540 0.00092011 0.00414093
v -0.02491328 -0.00154707 -0.00443664
v -0.02492199 -0.00131233 -0.00443664
v -0.02498645 0.00056245 -0.00434138
v -0.02501432 0.00006254 -0.00430268
v -0.02493941 0.00081216 -0.00443664
v -0.02492896 0.00092011 -0.00445054
v -0.02498297 0.00081216 -0.00432848
v -0.02498471 -0.00068756 -0.00433344
v -0.02501084 -0.00031251 -0.00428978
v -0.02502826 -0.00000411 -0.00424711
v -0.02501432 -0.00000411 -0.00430268
v -0.02504220 -0.00006280 -0.00418559
v -0.00737216 -0.00154707 0.00412903
v -0.00754811 0.00092011 0.00420345
v -0.02496206 -0.00154707 -0.00431161
v -0.02500735 0.00056245 -0.00427887
v -0.02504220 0.00006254 -0.00418757
v -0.02498122 0.00092011 -0.00432253
v -0.02500561 0.00068730 -0.00427192
v -0.02500039 -0.00093728 -0.00425704
v -0.02504220 -0.00000411 -0.00418757
v -0.02505788 -0.00006280 -0.00406155
v -0.02499865 -0.00102446 -0.00425207
v -0.02499690 -0.00110753 -0.00424612
v -0.02500561 -0.00118723 -0.00417368
v -0.00821882 -0.00154707 0.00496158
v -0.00792441 0.00092011 0.00457755
v -0.00823798 0.00092011 0.00488914
v -0.02496554 -0.00154707 -0.00429871
v -0.02505788 -0.00000411 -0.00406155
v -0.02505613 0.00006254 -0.00406254
v -0.02504568 0.00043276 -0.00406651
v -0.02502303 0.00068730 -0.00418658
v -0.02499865 0.00092011 -0.00426795
v -0.02500039 0.00092011 -0.00426001
v -0.02506659 -0.00006280 -0.00393652
v -0.02506310 -0.00000411 -0.00400400
v -0.02499690 -0.00154707 -0.00414590
v -0.02499865 -0.00154707 -0.00413200
v -0.02500039 -0.00154707 -0.00411712
v -0.02500561 -0.00154707 -0.00407147
v -0.02499168 -0.00143718 -0.00420742
v -0.00836341 0.00092011 0.00501219
v -0.00825889 -0.00152364 0.00499532
v -0.00828502 -0.00154707 0.00501417
v -0.02498993 -0.00154707 -0.00418460
v -0.02504220 0.00056245 -0.00406155
v -0.02506659 0.00006254 -0.00393751
v -0.02502826 0.00092011 -0.00407941
v -0.02501432 0.00092011 -0.00418658
v -0.02501258 0.00092011 -0.00419750
v -0.02506659 -0.00006280 0.00393453
v -0.02506659 -0.00000411 -0.00393751
v -0.02501084 -0.00154707 -0.00393652
v -0.00837212 0.00092011 0.00501715
v -0.00830941 -0.00154707 0.00502906
v -0.02503000 0.00092011 -0.00406155
v -0.02506659 0.00006254 0.00393652
v -0.02503523 0.00092011 -0.00393652
v -0.02504742 -0.00043737 0.00405956
v -0.02505613 -0.00018766 0.00405956
v -0.02506136 -0.00000411 0.00406155
v -0.02506659 -0.00000411 0.00393652
v -0.02501084 -0.00154707 0.00393652
v -0.02500735 -0.00154707 0.00407246
v -0.00844006 0.00092011 0.00504692
v -0.00842787 -0.00154707 0.00506379
v -0.00844181 -0.00143718 0.00506776
v -0.02506136 0.00006254 0.00406155
v -0.02503174 0.00092011 0.00404468
v -0.02503523 0.00092011 0.00393652
v -0.02500039 -0.00154707 0.00413994
v -0.02505091 -0.00006280 0.00414788
v -0.00845749 0.00092011 0.00505089
v -0.00844181 -0.00154707 0.00506776
v -0.00856550 0.00092011 0.00506875
v -0.02505091 -0.00000411 0.00414788
v -0.02504394 0.00006254 0.00418658
v -0.02503174 0.00043735 0.00418658
v -0.02502303 0.00068730 0.00418658
v -0.02503871 0.00068730 0.00406155
v -0.02503000 0.00092011 0.00406155
v -0.02498819 -0.00154707 0.00420246
v -0.02500735 -0.00118723 0.00417170
v -0.02504394 -0.00006280 0.00418559
v -0.02504394 -0.00000411 0.00418658
v -0.00856550 -0.00154707 0.00506875
v -0.02380880 0.00092011 0.00506875
v -0.02501432 -0.00000411 0.00430665
v -0.02501432 0.00006254 0.00430566
v -0.02500735 0.00056245 0.00427688
v -0.02500039 0.00092011 0.00425803
v -0.02501432 0.00092011 0.00418658
v -0.02499690 -0.00109087 0.00424314
v -0.02496032 -0.00154707 0.00431161
v -0.02496554 -0.00143718 0.00431161
v -0.02503523 -0.00031251 0.00418559
v -0.02500213 -0.00081242 0.00426299
v -0.02501258 -0.00018766 0.00429871
v -0.02501432 -0.00006280 0.00430566
v -0.02380880 -0.00154707 0.00506875
v -0.02395165 0.00092011 0.00506676
v -0.02393423 0.00081216 0.00506776
v -0.02393771 0.00043276 0.00506776
v -0.02500561 -0.00000411 0.00433543
v -0.02499516 0.00006254 0.00436817
v -0.02498297 0.00092011 0.00431161
v -0.02495509 -0.00154707 0.00432749
v -0.02491328 -0.00154707 0.00443664
v -0.02492199 -0.00131233 0.00443664
v -0.02498645 -0.00056295 0.00434138
v -0.02498122 -0.00093728 0.00431757
v -0.02499516 -0.00000411 0.00436817
v -0.02393423 -0.00154707 0.00506776
v -0.02405966 0.00092011 0.00506081
v -0.02405966 0.00081216 0.00506180
v -0.02405966 0.00056245 0.00506280
v -0.02406488 0.00043276 0.00506280
v -0.02399868 -0.00000411 0.00506577
v -0.02498122 -0.00000411 0.00440092
v -0.02496380 0.00006254 0.00443664
v -0.02496032 0.00018740 0.00443664
v -0.02494813 0.00056245 0.00443664
v -0.02494116 0.00092011 0.00442176
v -0.02487321 -0.00154707 0.00451702
v -0.02488018 -0.00143718 0.00451305
v -0.02494464 -0.00068756 0.00443664
v -0.02499168 -0.00018766 0.00436123
v -0.02405791 -0.00018766 0.00506280
v -0.02405966 -0.00068756 0.00506180
v -0.02405966 -0.00093728 0.00506081
v -0.02405966 -0.00154707 0.00505783
v -0.02407708 0.00092011 0.00505883
v -0.02418335 0.00031249 0.00504692
v -0.02418335 0.00006254 0.00504791
v -0.02418335 -0.00000411 0.00504791
v -0.02412586 -0.00000411 0.00505486
v -0.02496380 -0.00006280 0.00443565
v -0.02496380 -0.00000411 0.00443664
v -0.02493593 -0.00000411 0.00449023
v -0.02490283 0.00006254 0.00455175
v -0.02490109 0.00043276 0.00453885
v -0.02489063 0.00092011 0.00452992
v -0.02484012 -0.00154707 0.00457160
v -0.02484534 -0.00131233 0.00457954
v -0.02488715 -0.00106213 0.00452496
v -0.02489412 -0.00068756 0.00453588
v -0.02418509 -0.00056295 0.00504493
v -0.02418509 -0.00093728 0.00504196
v -0.02418509 -0.00154707 0.00503600
v -0.02418335 0.00092011 0.00504295
v -0.02418335 0.00081216 0.00504394
v -0.02418335 0.00068730 0.00504493
v -0.02430181 0.00006254 0.00501814
v -0.02430181 -0.00000411 0.00501814
v -0.02490283 -0.00006280 0.00455175
v -0.02486450 0.00006254 0.00461526
v -0.02485753 0.00056245 0.00460236
v -0.02489238 0.00081216 0.00453290
v -0.02485057 0.00092011 0.00459244
v -0.02483315 -0.00154707 0.00458251
v -0.02485405 -0.00081242 0.00459442
v -0.02477740 -0.00154707 0.00466091
v -0.02485579 -0.00068756 0.00459839
v -0.02429484 -0.00056295 0.00501616
v -0.02428787 -0.00106213 0.00501417
v -0.02428090 -0.00143718 0.00501219
v -0.02426871 -0.00154707 0.00501417
v -0.02419903 0.00092011 0.00503898
v -0.02429136 0.00081216 0.00501516
v -0.02435930 0.00043276 0.00499532
v -0.02436452 0.00006254 0.00499631
v -0.02436452 -0.00000411 0.00499631
v -0.02485753 -0.00056295 0.00460137
v -0.02486450 -0.00006280 0.00461328
v -0.02486450 -0.00000411 0.00461526
v -0.02480527 0.00006254 0.00468671
v -0.02479656 0.00043276 0.00468472
v -0.02479482 0.00056245 0.00468175
v -0.02479656 0.00092011 0.00466388
v -0.02478263 -0.00131233 0.00466587
v -0.02472339 -0.00154707 0.00472342
v -0.02479134 -0.00081242 0.00467579
v -0.02435755 -0.00056295 0.00499433
v -0.02435233 -0.00093728 0.00499234
v -0.02433491 -0.00154707 0.00499135
v -0.02427916 -0.00154707 0.00501119
v -0.02428961 0.00092011 0.00501417
v -0.02429832 0.00092011 0.00501119
v -0.02435233 0.00092011 0.00499234
v -0.02436452 0.00092011 0.00498738
v -0.02443595 0.00043276 0.00496257
v -0.02443246 0.00006254 0.00496753
v -0.02443246 -0.00000411 0.00496753
v -0.02479308 -0.00068756 0.00467877
v -0.02480527 -0.00000411 0.00468671
v -0.02474953 0.00006254 0.00475220
v -0.02474604 0.00033809 0.00474823
v -0.02474082 0.00068730 0.00474228
v -0.02473907 0.00081216 0.00473930
v -0.02474430 0.00092011 0.00472838
v -0.02478785 0.00092011 0.00467480
v -0.02472514 -0.00143718 0.00472640
v -0.02473036 -0.00118723 0.00473136
v -0.02473733 -0.00081242 0.00473831
v -0.02466068 -0.00154707 0.00478495
v -0.02443421 -0.00056295 0.00496059
v -0.02434536 -0.00131233 0.00499036
v -0.02434362 -0.00143718 0.00498936
v -0.02434188 -0.00154707 0.00498837
v -0.02443595 0.00092011 0.00495463
v -0.02443595 0.00081216 0.00495662
v -0.02443595 0.00056245 0.00496059
v -0.02454919 0.00006254 0.00490799
v -0.02454919 -0.00000411 0.00490799
v -0.02473907 -0.00068756 0.00474128
v -0.02474953 -0.00006280 0.00475121
v -0.02474953 -0.00000411 0.00475220
v -0.02468333 0.00006254 0.00480975
v -0.02468159 0.00043735 0.00480182
v -0.02467810 0.00068730 0.00479785
v -0.02467462 0.00081216 0.00479685
v -0.02467287 0.00092011 0.00479487
v -0.02468159 0.00092011 0.00478693
v -0.02473559 0.00092011 0.00473732
v -0.02459099 -0.00131233 0.00485143
v -0.02466765 -0.00118723 0.00479090
v -0.02458577 -0.00154707 0.00484746
v -0.02443421 -0.00081242 0.00495662
v -0.02454047 -0.00068756 0.00490204
v -0.02442375 -0.00154707 0.00494868
v -0.02453525 0.00092011 0.00489906
v -0.02454222 0.00056245 0.00490303
v -0.02461364 0.00006254 0.00486929
v -0.02458403 -0.00000411 0.00488716
v -0.02455093 -0.00006280 0.00490601
v -0.02454919 -0.00018766 0.00490502
v -0.02467462 -0.00081242 0.00479685
v -0.02468333 -0.00000411 0.00480975
v -0.02460319 0.00068730 0.00486036
v -0.02459971 0.00081216 0.00485937
v -0.02459796 0.00092011 0.00485739
v -0.02459796 -0.00093728 0.00485739
v -0.02452305 -0.00154707 0.00489112
v -0.02452480 -0.00143718 0.00489311
v -0.02443421 -0.00131233 0.00494769
v -0.02452828 -0.00131233 0.00489410
v -0.02451260 -0.00154707 0.00489807
v -0.02461364 -0.00000411 0.00486929
v -0.02461364 -0.00006280 0.00486830
v -0.02460493 -0.00056295 0.00486235
v -0.02460319 -0.00068756 0.00486036
f 1 2 3
f 1 3 4
f 1 4 10
f 1 10 5
f 1 5 11
f 1 11 6
f 1 6 14
f 1 14 24
f 1 24 32
f 1 32 44
f 1 44 53
f 1 53 67
f 1 67 66
f 1 66 81
f 1 81 90
f 1 90 103
f 1 103 118
f 1 118 134
f 1 134 148
f 1 148 161
f 1 161 172
f 1 172 186
f 1 186 199
f 1 199 218
f 1 218 229
f 1 229 240
f 1 240 248
f 1 248 260
f 1 260 274
f 1 274 287
f 1 287 305
f 1 305 323
f 1 323 341
f 1 341 360
f 1 360 359
f 1 359 383
f 1 383 404
f 1 404 421
f 1 421 417
f 1 417 401
f 1 401 379
f 1 379 355
f 1 355 336
f 1 336 334
f 1 334 317
f 1 317 298
f 1 298 282
f 1 282 281
f 1 281 268
f 1 268 256
f 1 256 245
f 1 245 238
f 1 238 237
f 1 237 227
f 1 227 214
f 1 214 213
f 1 213 212
f 1 212 211
f 1 211 219
f 1 219 202
f 1 202 188
f 1 188 174
f 1 174 162
f 1 162 149
f 1 149 135
f 1 135 121
f 1 121 119
f 1 119 104
f 1 104 91
f 1 91 82
f 1 82 70
f 1 70 68
f 1 68 55
f 1 55 48
f 1 48 35
f 1 35 25
f 1 25 15
f 1 15 7
f 1 7 2
f 2 7 3
f 3 7 8
f 3 8 9
f 3 9 4
f 4 9 19
f 4 19 10
f 5 10 12
f 5 12 23
f 5 23 34
f 5 34 47
f 5 47 54
f 5 54 63
f 5 63 62
f 5 62 77
f 5 77 78
f 5 78 86
f 5 86 98
f 5 98 113
f 5 113 114
f 5 114 115
f 5 115 131
f 5 131 146
f 5 146 145
f 5 145 159
f 5 159 171
f 5 171 179
f 5 179 191
f 5 191 207
f 5 207 208
f 5 208 224
f 5 224 223
f 5 223 222
f 5 222 230
f 5 230 232
f 5 232 244
f 5 244 243
f 5 243 255
f 5 255 266
f 5 266 265
f 5 265 280
f 5 280 297
f 5 297 316
f 5 316 333
f 5 333 353
f 5 353 375
f 5 375 374
f 5 374 398
f 5 398 397
f 5 397 396
f 5 396 415
f 5 415 405
f 5 405 384
f 5 384 364
f 5 364 363
f 5 363 362
f 5 362 361
f 5 361 342
f 5 342 324
f 5 324 306
f 5 306 288
f 5 288 275
f 5 275 261
f 5 261 249
f 5 249 247
f 5 247 239
f 5 239 228
f 5 228 216
f 5 216 201
f 5 201 200
f 5 200 187
f 5 187 173
f 5 173 160
f 5 160 147
f 5 147 133
f 5 133 117
f 5 117 102
f 5 102 101
f 5 101 100
f 5 100 89
f 5 89 80
f 5 80 65
f 5 65 52
f 5 52 43
f 5 43 31
f 5 31 20
f 5 20 11
f 6 11 13
f 6 13 14
f 7 15 16
f 7 16 17
f 7 17 8
f 8 17 18
f 8 18 9
f 9 18 30
f 9 30 19
f 10 19 12
f 11 20 13
f 12 19 21
f 12 21 22
f 12 22 23
f 13 20 24
f 13 24 14
f 15 25 26
f 15 26 27
f 15 27 28
f 15 28 18
f 15 18 16
f 16 18 17
f 18 28 29
f 18 29 40
f 18 40 30
f 19 30 21
f 20 31 32
f 20 32 24
f 21 30 22
f 22 30 23
f 23 30 33
f 23 33 34
f 25 35 36
f 25 36 37
f 25 37 38
f 25 38 26
f 26 38 39
f 26 39 27
f 27 39 29
f 27 29 28
f 29 39 38
f 29 38 41
f 29 41 40
f 30 40 42
f 30 42 33
f 31 43 44
f 31 44 32
f 33 42 45
f 33 45 46
f 33 46 34
f 34 46 47
f 35 37 36
f 35 48 49
f 35 49 50
f 35 50 41
f 35 41 37
f 37 41 38
f 40 45 42
f 40 41 45
f 41 50 51
f 41 51 46
f 41 46 45
f 43 52 53
f 43 53 44
f 46 54 47
f 46 51 54
f 48 55 49
f 49 55 56
f 49 56 50
f 50 57 58
f 50 58 59
f 50 59 51
f 50 56 60
f 50 60 61
f 50 61 57
f 51 62 63
f 51 63 54
f 51 59 64
f 51 64 62
f 52 65 66
f 52 66 67
f 52 67 53
f 55 68 69
f 55 69 56
f 56 69 70
f 56 70 71
f 56 71 60
f 57 61 72
f 57 72 73
f 57 73 58
f 58 73 74
f 58 74 59
f 59 73 75
f 59 75 64
f 59 74 73
f 60 71 76
f 60 76 72
f 60 72 61
f 62 64 77
f 64 78 77
f 64 75 79
f 64 79 78
f 65 80 66
f 66 80 89
f 66 89 81
f 68 70 69
f 70 82 83
f 70 83 71
f 71 83 84
f 71 84 76
f 72 76 84
f 72 84 85
f 72 85 73
f 73 85 75
f 75 85 79
f 78 79 86
f 79 85 87
f 79 87 88
f 79 88 86
f 81 89 90
f 82 91 92
f 82 92 93
f 82 93 83
f 83 93 84
f 84 93 94
f 84 94 95
f 84 95 96
f 84 96 85
f 85 96 88
f 85 88 87
f 86 88 97
f 86 97 98
f 88 96 99
f 88 99 97
f 89 100 90
f 90 100 101
f 90 101 102
f 90 102 103
f 91 104 105
f 91 105 92
f 92 105 94
f 92 94 93
f 94 106 96
f 94 96 95
f 94 105 107
f 94 107 108
f 94 108 109
f 94 109 110
f 94 110 111
f 94 111 106
f 96 106 112
f 96 112 99
f 97 113 98
f 97 99 114
f 97 114 113
f 99 115 114
f 99 112 116
f 99 116 115
f 102 117 103
f 103 117 118
f 104 119 120
f 104 120 107
f 104 107 105
f 106 111 112
f 107 120 121
f 107 121 122
f 107 122 108
f 108 122 123
f 108 123 110
f 108 110 109
f 110 124 140
f 110 140 125
f 110 125 111
f 110 123 124
f 111 125 126
f 111 126 112
f 112 126 127
f 112 127 128
f 112 128 116
f 115 116 129
f 115 129 130
f 115 130 131
f 116 128 132
f 116 132 129
f 117 133 134
f 117 134 118
f 119 121 120
f 121 135 136
f 121 136 137
f 121 137 138
f 121 138 122
f 122 138 123
f 123 138 139
f 123 139 124
f 124 139 141
f 124 141 153
f 124 153 140
f 125 127 126
f 125 140 127
f 127 140 142
f 127 142 143
f 127 143 132
f 127 132 128
f 129 132 144
f 129 144 145
f 129 145 130
f 130 146 131
f 130 145 146
f 132 143 144
f 133 147 134
f 134 147 148
f 135 149 136
f 136 149 150
f 136 150 151
f 136 151 137
f 137 151 138
f 138 151 139
f 139 151 152
f 139 152 141
f 140 153 154
f 140 154 142
f 141 152 155
f 141 155 156
f 141 156 165
f 141 165 153
f 142 154 157
f 142 157 143
f 143 158 145
f 143 145 144
f 143 157 158
f 145 158 159
f 147 160 161
f 147 161 148
f 149 162 163
f 149 163 150
f 150 163 164
f 150 164 152
f 150 152 151
f 152 164 155
f 153 165 154
f 154 165 166
f 154 166 167
f 154 167 157
f 155 164 168
f 155 168 169
f 155 169 170
f 155 170 156
f 156 170 165
f 157 167 158
f 158 167 159
f 159 167 171
f 160 172 161
f 160 173 172
f 162 174 175
f 162 175 164
f 162 164 163
f 164 175 168
f 165 176 166
f 165 170 177
f 165 177 189
f 165 189 176
f 166 178 179
f 166 179 167
f 166 176 180
f 166 180 178
f 167 179 171
f 168 175 181
f 168 181 182
f 168 182 169
f 169 183 184
f 169 184 170
f 169 182 185
f 169 185 183
f 170 184 177
f 172 173 186
f 173 187 186
f 174 188 175
f 175 188 181
f 176 189 180
f 177 184 183
f 177 183 190
f 177 190 189
f 178 180 191
f 178 191 179
f 180 189 192
f 180 192 191
f 181 193 182
f 181 188 193
f 182 193 185
f 183 185 194
f 183 194 190
f 185 195 194
f 185 193 196
f 185 196 197
f 185 197 198
f 185 198 195
f 186 187 200
f 186 200 201
f 186 201 199
f 188 202 196
f 188 196 193
f 189 190 192
f 190 194 195
f 190 195 203
f 190 203 204
f 190 204 205
f 190 205 206
f 190 206 192
f 191 192 207
f 192 206 208
f 192 208 207
f 195 209 210
f 195 210 203
f 195 198 211
f 195 211 212
f 195 212 213
f 195 213 214
f 195 214 209
f 196 202 197
f 197 202 215
f 197 215 198
f 198 215 211
f 199 201 216
f 199 216 217
f 199 217 218
f 202 219 215
f 203 210 204
f 204 210 205
f 205 220 206
f 205 210 221
f 205 221 220
f 206 222 223
f 206 223 224
f 206 224 208
f 206 220 222
f 209 225 236
f 209 236 231
f 209 231 221
f 209 221 226
f 209 226 210
f 209 214 227
f 209 227 237
f 209 237 225
f 210 226 221
f 211 215 219
f 216 228 229
f 216 229 218
f 216 218 217
f 220 221 230
f 220 230 222
f 221 231 244
f 221 244 232
f 221 232 230
f 225 233 234
f 225 234 235
f 225 235 236
f 225 237 238
f 225 238 233
f 228 239 229
f 229 239 241
f 229 241 240
f 231 236 235
f 231 235 242
f 231 242 243
f 231 243 244
f 233 238 245
f 233 245 234
f 234 246 235
f 234 245 246
f 235 246 250
f 235 250 242
f 239 247 241
f 240 241 248
f 241 247 249
f 241 249 260
f 241 260 248
f 242 250 251
f 242 251 252
f 242 252 253
f 242 253 254
f 242 254 243
f 243 254 255
f 245 256 257
f 245 257 246
f 246 257 258
f 246 258 259
f 246 259 251
f 246 251 250
f 249 261 274
f 249 274 260
f 251 259 262
f 251 262 263
f 251 263 264
f 251 264 265
f 251 265 252
f 252 265 253
f 253 266 255
f 253 255 254
f 253 265 266
f 256 267 257
f 256 268 269
f 256 269 267
f 257 270 258
f 257 267 270
f 258 270 267
f 258 267 271
f 258 271 272
f 258 272 273
f 258 273 262
f 258 262 259
f 261 275 276
f 261 276 277
f 261 277 274
f 262 273 278
f 262 278 263
f 263 278 279
f 263 279 264
f 264 279 280
f 264 280 265
f 267 269 271
f 268 281 269
f 269 281 282
f 269 282 283
f 269 283 284
f 269 284 285
f 269 285 271
f 271 285 272
f 272 285 284
f 272 284 273
f 273 284 286
f 273 286 278
f 274 277 287
f 275 288 289
f 275 289 290
f 275 290 276
f 276 290 291
f 276 291 292
f 276 292 277
f 277 292 287
f 278 286 279
f 279 286 293
f 279 293 294
f 279 294 295
f 279 295 296
f 279 296 297
f 279 297 280
f 282 298 299
f 282 299 283
f 283 300 284
f 283 299 300
f 284 300 301
f 284 301 286
f 286 301 300
f 286 300 293
f 287 292 302
f 287 302 303
f 287 303 304
f 287 304 305
f 288 306 289
f 289 306 307
f 289 307 291
f 289 291 290
f 291 307 308
f 291 308 309
f 291 309 310
f 291 310 302
f 291 302 292
f 293 300 311
f 293 311 312
f 293 312 294
f 294 312 313
f 294 313 314
f 294 314 315
f 294 315 295
f 295 315 316
f 295 316 296
f 296 316 297
f 298 317 318
f 298 318 299
f 299 318 319
f 299 319 300
f 300 319 320
f 300 320 311
f 302 310 309
f 302 309 303
f 303 309 304
f 304 309 305
f 305 309 321
f 305 321 322
f 305 322 323
f 306 324 325
f 306 325 326
f 306 326 307
f 307 326 327
f 307 327 308
f 308 327 328
f 308 328 309
f 309 328 321
f 311 320 329
f 311 329 313
f 311 313 312
f 313 329 314
f 314 329 349
f 314 349 330
f 314 330 315
f 315 330 331
f 315 331 332
f 315 332 316
f 316 332 331
f 316 331 333
f 317 334 318
f 318 335 320
f 318 320 319
f 318 334 336
f 318 336 335
f 320 335 337
f 320 337 329
f 321 328 338
f 321 338 339
f 321 339 322
f 322 339 323
f 323 339 340
f 323 340 341
f 324 342 325
f 325 342 326
f 326 342 327
f 327 342 343
f 327 343 344
f 327 344 345
f 327 345 346
f 327 346 328
f 328 346 357
f 328 357 338
f 329 337 347
f 329 347 348
f 329 348 349
f 330 349 369
f 330 369 350
f 330 350 351
f 330 351 352
f 330 352 331
f 331 352 353
f 331 353 333
f 335 336 354
f 335 354 337
f 336 355 354
f 337 354 356
f 337 356 347
f 338 357 339
f 339 357 358
f 339 358 359
f 339 359 340
f 340 359 360
f 340 360 341
f 342 361 343
f 343 361 362
f 343 362 363
f 343 363 344
f 344 364 365
f 344 365 366
f 344 366 345
f 344 363 364
f 345 366 367
f 345 367 346
f 346 367 357
f 347 356 368
f 347 368 348
f 348 368 349
f 349 368 369
f 350 369 391
f 350 391 370
f 350 370 371
f 350 371 351
f 351 371 372
f 351 372 352
f 352 372 373
f 352 373 374
f 352 374 375
f 352 375 353
f 354 355 376
f 354 376 377
f 354 377 378
f 354 378 356
f 355 379 376
f 356 378 389
f 356 389 368
f 357 367 380
f 357 380 358
f 358 381 359
f 358 380 381
f 359 381 382
f 359 382 383
f 364 384 385
f 364 385 386
f 364 386 365
f 365 386 387
f 365 387 366
f 366 387 388
f 366 388 367
f 367 388 380
f 368 389 390
f 368 390 369
f 369 390 391
f 370 391 412
f 370 412 392
f 370 392 393
f 370 393 371
f 371 393 394
f 371 394 372
f 372 394 395
f 372 395 396
f 372 396 373
f 373 397 398
f 373 398 374
f 373 396 397
f 376 379 377
f 377 379 389
f 377 389 378
f 379 399 400
f 379 400 389
f 379 401 399
f 380 402 382
f 380 382 381
f 380 388 403
f 380 403 402
f 382 402 383
f 383 402 404
f 384 405 406
f 384 406 385
f 385 406 387
f 385 387 386
f 387 406 407
f 387 407 408
f 387 408 388
f 388 408 409
f 388 409 410
f 388 410 403
f 389 400 411
f 389 411 390
f 390 411 412
f 390 412 391
f 392 412 422
f 392 422 407
f 392 407 393
f 393 407 394
f 394 407 413
f 394 413 414
f 394 414 395
f 395 414 415
f 395 415 396
f 399 416 411
f 399 411 400
f 399 401 417
f 399 417 418
f 399 418 416
f 402 403 419
f 402 419 404
f 403 420 421
f 403 421 404
f 403 404 419
f 403 410 408
f 403 408 422
f 403 422 423
f 403 423 424
f 403 424 425
f 403 425 420
f 405 415 414
f 405 414 413
f 405 413 407
f 405 407 406
f 407 422 408
f 408 410 409
f 411 416 425
f 411 425 424
f 411 424 423
f 411 423 412
f 412 423 422
f 416 418 420
f 416 420 425
f 417 421 418
f 418 421 420

