# https://github.com/mikedh/trimesh
v -0.02381007 0.00170227 -0.00506875
v -0.02393483 0.00170227 -0.00506478
v -0.02381007 0.00218779 -0.00506875
v -0.00844042 0.00170227 -0.00506875
v -0.02393483 0.00193761 -0.00506478
v -0.02394930 0.00170227 -0.00506379
v -0.02381007 0.00256243 -0.00506776
v -0.02368530 0.00331244 -0.00506875
v -0.00794136 0.00331244 -0.00506875
v -0.00781660 0.00352917 -0.00506677
v -0.00831385 0.00193761 -0.00506379
v -0.00831385 0.00181261 -0.00505387
v -0.00831385 0.00170227 -0.00504493
v -0.02393483 0.00218779 -0.00506379
v -0.02406140 0.00170227 -0.00505585
v -0.02381007 0.00331244 -0.00506478
v -0.02368530 0.00352917 -0.00506776
v -0.02355873 0.00352917 -0.00506875
v -0.00794136 0.00352917 -0.00506875
v -0.00781660 0.00343744 -0.00506280
v -0.00768641 0.00352917 -0.00503402
v -0.00823972 0.00170227 -0.00501020
v -0.02393483 0.00281243 -0.00505883
v -0.02381007 0.00343744 -0.00506379
v -0.02406140 0.00193761 -0.00505387
v -0.02418617 0.00170227 -0.00503501
v -0.02381007 0.00352917 -0.00506280
v -0.00765386 0.00352917 -0.00501417
v -0.00760142 0.00352917 -0.00497944
v -0.00670275 0.00352917 -0.00417269
v -0.00663946 0.00352327 -0.00411216
v -0.00735370 0.00170227 -0.00414689
v -0.02393483 0.00293725 -0.00505684
v -0.02406140 0.00206261 -0.00505188
v -0.02427839 0.00170227 -0.00501020
v -0.02418617 0.00181261 -0.00503303
v -0.02393664 0.00331244 -0.00504990
v -0.02393664 0.00343744 -0.00504692
v -0.02393664 0.00352917 -0.00504394
v -0.00663042 0.00352917 -0.00410521
v -0.00657979 0.00352917 -0.00404865
v -0.00729222 0.00170227 -0.00407743
v -0.02406140 0.00243743 -0.00504493
v -0.02433987 0.00170227 -0.00498639
v -0.02427296 0.00181261 -0.00500822
v -0.02413916 0.00316705 -0.00500623
v -0.02418617 0.00206261 -0.00502608
v -0.02406140 0.00293725 -0.00503402
v -0.02406140 0.00281243 -0.00503700
v -0.02406140 0.00268743 -0.00503997
v -0.02405960 0.00318743 -0.00502707
v -0.02405960 0.00331244 -0.00502310
v -0.02405417 0.00352917 -0.00501417
v -0.02412107 0.00348930 -0.00499929
v -0.00653821 0.00352917 -0.00393652
v -0.00724159 0.00170227 -0.00401491
v -0.00724702 0.00170227 -0.00402285
v -0.02433444 0.00181261 -0.00498440
v -0.02443570 0.00170227 -0.00493876
v -0.02424946 0.00226147 -0.00500028
v -0.02412831 0.00340596 -0.00500127
v -0.02411565 0.00352917 -0.00499730
v -0.02419340 0.00331244 -0.00497547
v -0.02431094 0.00331244 -0.00491593
v -0.02431998 0.00343010 -0.00490204
v -0.02418075 0.00352917 -0.00496555
v -0.00653640 0.00352917 -0.00381149
v -0.00723074 0.00170227 -0.00393652
v -0.02431094 0.00281243 -0.00494471
v -0.02422053 0.00281243 -0.00498936
v -0.02443570 0.00181261 -0.00493380
v -0.02444655 0.00170227 -0.00493280
v -0.02421329 0.00293725 -0.00498639
v -0.02420787 0.00306226 -0.00498242
v -0.02420244 0.00316705 -0.00497944
v -0.02431094 0.00306226 -0.00493082
v -0.02437422 0.00338379 -0.00487525
v -0.02444836 0.00219512 -0.00490502
v -0.02449718 0.00224197 -0.00487426
v -0.02436699 0.00346712 -0.00487128
v -0.02430189 0.00352917 -0.00490204
v -0.00653640 0.00352917 0.00381148
v -0.00723074 0.00170227 0.00393652
v -0.02443570 0.00193761 -0.00492685
v -0.02451707 0.00181261 -0.00488716
v -0.02452069 0.00170227 -0.00488914
v -0.02444836 0.00316705 -0.00483456
v -0.02451345 0.00331244 -0.00476510
v -0.02442304 0.00343010 -0.00482861
v -0.02458036 0.00181261 -0.00484151
v -0.02464364 0.00206261 -0.00476808
v -0.02436156 0.00352917 -0.00486731
v -0.02450080 0.00351666 -0.00475220
v -0.00653821 0.00352917 0.00393652
v -0.00723798 0.00170227 0.00400399
v -0.02452792 0.00170227 -0.00488418
v -0.02458397 0.00170227 -0.00484548
v -0.02463099 0.00231261 -0.00475617
v -0.02454058 0.00281243 -0.00478792
v -0.02462194 0.00247946 -0.00474724
v -0.02461110 0.00268743 -0.00473533
v -0.02459663 0.00293725 -0.00472045
v -0.02458397 0.00316705 -0.00470556
v -0.02450622 0.00343744 -0.00475716
v -0.02465449 0.00181261 -0.00477899
v -0.02471778 0.00181261 -0.00471549
v -0.02443932 0.00352917 -0.00480182
v -0.02457855 0.00343815 -0.00467679
v -0.02455142 0.00352917 -0.00469167
v -0.02451164 0.00352917 -0.00473632
v -0.02448271 0.00352917 -0.00476411
v -0.00654001 0.00352917 0.00395140
v -0.00724159 0.00170227 0.00401491
v -0.02465811 0.00170227 -0.00478296
v -0.02462918 0.00316705 -0.00465396
v -0.02477202 0.00181261 -0.00465297
v -0.02475937 0.00206261 -0.00463808
v -0.02472863 0.00170227 -0.00471350
v -0.02462918 0.00331244 -0.00463412
v -0.02462375 0.00339684 -0.00462816
v -0.02461652 0.00352917 -0.00461427
v -0.00657979 0.00352917 0.00404865
v -0.00728499 0.00170227 0.00407048
v -0.02463822 0.00316705 -0.00464305
v -0.02477564 0.00170227 -0.00465793
v -0.02478468 0.00170227 -0.00464503
v -0.02483712 0.00170227 -0.00456465
v -0.02483893 0.00180438 -0.00455076
v -0.02475213 0.00218779 -0.00463015
v -0.02474490 0.00233961 -0.00461824
v -0.02473948 0.00243743 -0.00461030
v -0.02465992 0.00331244 -0.00458549
v -0.02464364 0.00344977 -0.00458549
v -0.02463460 0.00351952 -0.00458549
v -0.02465088 0.00352917 -0.00455374
v -0.00659607 0.00352917 0.00406849
v -0.00734647 0.00170227 0.00413895
v -0.02487509 0.00170227 -0.00450313
v -0.02487328 0.00175699 -0.00450115
v -0.02477022 0.00256243 -0.00453687
v -0.02475213 0.00290310 -0.00450511
v -0.02467438 0.00331244 -0.00456068
v -0.02473044 0.00331244 -0.00446145
v -0.02472320 0.00343744 -0.00444657
v -0.02473044 0.00352917 -0.00440092
v -0.00663766 0.00352917 0.00411414
v -0.00735370 0.00170227 0.00414689
v -0.02487871 0.00170227 -0.00449618
v -0.02486967 0.00184033 -0.00449221
v -0.02490764 0.00170227 -0.00443764
v -0.02489679 0.00180438 -0.00444558
v -0.02473767 0.00316705 -0.00447832
v -0.02476841 0.00316705 -0.00441581
v -0.02474852 0.00350289 -0.00437512
v -0.02475575 0.00352917 -0.00434039
v -0.00672445 0.00352917 0.00419253
v -0.00823972 0.00170227 0.00501020
v -0.00816920 0.00170227 0.00494273
v -0.02495646 0.00170227 -0.00431161
v -0.02494923 0.00181261 -0.00431161
v -0.02489498 0.00193761 -0.00441978
v -0.02488232 0.00218779 -0.00439298
v -0.02487690 0.00228525 -0.00438207
v -0.02479191 0.00331244 -0.00431161
v -0.02477564 0.00343744 -0.00431161
v -0.02480819 0.00343744 -0.00418658
v -0.02479372 0.00352917 -0.00418658
v -0.00760142 0.00352917 0.00497845
v -0.00830300 0.00170227 0.00504096
v -0.00762674 0.00352917 0.00500028
v -0.00768460 0.00352917 0.00503303
v -0.02496008 0.00170227 -0.00429772
v -0.02493657 0.00193761 -0.00431161
v -0.02497997 0.00181261 -0.00418658
v -0.02487690 0.00265667 -0.00426100
v -0.02486243 0.00256243 -0.00433940
v -0.02487147 0.00274001 -0.00424414
v -0.02488594 0.00269387 -0.00419650
v -0.02483712 0.00316705 -0.00418658
v -0.02487509 0.00289505 -0.00413597
v -0.02482446 0.00343744 -0.00406155
v -0.02481180 0.00352917 -0.00406155
v -0.00831385 0.00170227 0.00504493
v -0.00770811 0.00352917 0.00503997
v -0.02498901 0.00170227 -0.00417864
v -0.02499262 0.00170227 -0.00415880
v -0.02499805 0.00173214 -0.00411613
v -0.02499443 0.00181458 -0.00406949
v -0.02495646 0.00218779 -0.00406155
v -0.02482808 0.00343744 -0.00393652
v -0.02487328 0.00300360 -0.00400598
v -0.02481542 0.00352917 -0.00393652
v -0.00831385 0.00181261 0.00505386
v -0.00842596 0.00170227 0.00506676
v -0.00781479 0.00343744 0.00506180
v -0.00781479 0.00352917 0.00506676
v -0.02500166 0.00170227 -0.00408338
v -0.02500347 0.00170227 -0.00406353
v -0.02500166 0.00177416 -0.00403277
v -0.02482989 0.00343332 0.00093278
v -0.02485701 0.00316705 -0.00393652
v -0.02500347 0.00178632 -0.00393652
v -0.02481542 0.00352917 0.00393652
v -0.00831385 0.00193761 0.00506379
v -0.00844042 0.00170227 0.00506875
v -0.00784915 0.00352917 0.00506875
v -0.02500890 0.00170227 -0.00393652
v -0.02482808 0.00343744 0.00393652
v -0.02500347 0.00178632 0.00393652
v -0.02485701 0.00316705 0.00393652
v -0.02481180 0.00352917 0.00406155
v -0.02381007 0.00170227 0.00506875
v -0.02356053 0.00352917 0.00506875
v -0.02500890 0.00170227 0.00393652
v -0.02482446 0.00343744 0.00406155
v -0.02487328 0.00300360 0.00400598
v -0.02500166 0.00177416 0.00403674
v -0.02479372 0.00352917 0.00418658
v -0.02392037 0.00170227 0.00506676
v -0.02381007 0.00218779 0.00506875
v -0.02368530 0.00352917 0.00506776
v -0.02368530 0.00331244 0.00506875
v -0.02500347 0.00170227 0.00407941
v -0.02482085 0.00331244 0.00418658
v -0.02480638 0.00343744 0.00418658
v -0.02495646 0.00218779 0.00406155
v -0.02499805 0.00174233 0.00412010
v -0.02487509 0.00289362 0.00413399
v -0.02476298 0.00352917 0.00431161
v -0.02393483 0.00193761 0.00506577
v -0.02393483 0.00170227 0.00506577
v -0.02381007 0.00256243 0.00506776
v -0.02380826 0.00352917 0.00506280
v -0.02380826 0.00343744 0.00506379
v -0.02380826 0.00331244 0.00506478
v -0.02381007 0.00306226 0.00506577
v -0.02381007 0.00281243 0.00506676
v -0.02499986 0.00170227 0.00412506
v -0.02479011 0.00331244 0.00431161
v -0.02497997 0.00181261 0.00418658
v -0.02487509 0.00264201 0.00425604
v -0.02477564 0.00343744 0.00431161
v -0.02474852 0.00350521 0.00437512
v -0.02474671 0.00352917 0.00436917
v -0.02393483 0.00218779 0.00506478
v -0.02406140 0.00170227 0.00505684
v -0.02384442 0.00352917 0.00505783
v -0.02393664 0.00343744 0.00504791
v -0.02393664 0.00331244 0.00505089
v -0.02393483 0.00316705 0.00505386
v -0.02393483 0.00281243 0.00505883
v -0.02393483 0.00256243 0.00506180
v -0.02498901 0.00170227 0.00417864
v -0.02475394 0.00343744 0.00438504
v -0.02494742 0.00181261 0.00431161
v -0.02498720 0.00170227 0.00418658
v -0.02471959 0.00352917 0.00442970
v -0.02416990 0.00170227 0.00503799
v -0.02406140 0.00181261 0.00505585
v -0.02393664 0.00352917 0.00504493
v -0.02406140 0.00316705 0.00502707
v -0.02406140 0.00268743 0.00503997
v -0.02406140 0.00231261 0.00504890
v -0.02487509 0.00227076 0.00438008
v -0.02489317 0.00193761 0.00442275
v -0.02487147 0.00185678 0.00449519
v -0.02474490 0.00308675 0.00449023
v -0.02473948 0.00318743 0.00447832
v -0.02473224 0.00331244 0.00446344
v -0.02472320 0.00343744 0.00444756
v -0.02495465 0.00170227 0.00431161
v -0.02494923 0.00170227 0.00432749
v -0.02490764 0.00170227 0.00443863
v -0.02489498 0.00181422 0.00444657
v -0.02467077 0.00352917 0.00451901
v -0.02418617 0.00170227 0.00503501
v -0.02405236 0.00352917 0.00501417
v -0.02407045 0.00343010 0.00501417
v -0.02406140 0.00331244 0.00502211
v -0.02417532 0.00243743 0.00501715
v -0.02418617 0.00181261 0.00503203
v -0.02487509 0.00177345 0.00450313
v -0.02477202 0.00256243 0.00453687
v -0.02475213 0.00293725 0.00450611
v -0.02474852 0.00300360 0.00450015
v -0.02467438 0.00331244 0.00456168
v -0.02465268 0.00352917 0.00455175
v -0.02487690 0.00170227 0.00450710
v -0.02427839 0.00170227 0.00501020
v -0.02407045 0.00352917 0.00500921
v -0.02412288 0.00338361 0.00499929
v -0.02412831 0.00331244 0.00500028
v -0.02415543 0.00281243 0.00501020
v -0.02427296 0.00181261 0.00500822
v -0.02487328 0.00170227 0.00451305
v -0.02482989 0.00170227 0.00457954
v -0.02477202 0.00181261 0.00465396
v -0.02475213 0.00218779 0.00462915
v -0.02472501 0.00268743 0.00458946
v -0.02469970 0.00316705 0.00454778
v -0.02462375 0.00338289 0.00462518
v -0.02461833 0.00346623 0.00461824
v -0.02461471 0.00352917 0.00461129
v -0.02433987 0.00170227 0.00498738
v -0.02411203 0.00352917 0.00499532
v -0.02417532 0.00343010 0.00497547
v -0.02419702 0.00316705 0.00498043
v -0.02421872 0.00281243 0.00498936
v -0.02477564 0.00170227 0.00465892
v -0.02471778 0.00181261 0.00471648
v -0.02461110 0.00268743 0.00473533
v -0.02463641 0.00316705 0.00464106
v -0.02457674 0.00331244 0.00469266
v -0.02454962 0.00352917 0.00469167
v -0.02442485 0.00170227 0.00494471
v -0.02431094 0.00268743 0.00495265
v -0.02443570 0.00181261 0.00493379
v -0.02418255 0.00352917 0.00496555
v -0.02431094 0.00316705 0.00492586
v -0.02418979 0.00331244 0.00497547
v -0.02431094 0.00306226 0.00493181
v -0.02431094 0.00281243 0.00494570
v -0.02472139 0.00170227 0.00472144
v -0.02465449 0.00181261 0.00477899
v -0.02462194 0.00247713 0.00474724
v -0.02451345 0.00331244 0.00476411
v -0.02450622 0.00343744 0.00475716
v -0.02458397 0.00318743 0.00470159
v -0.02459301 0.00316705 0.00469365
v -0.02450080 0.00351701 0.00475121
v -0.02451164 0.00352917 0.00473632
v -0.02443570 0.00170227 0.00493876
v -0.02443570 0.00193761 0.00492685
v -0.02452069 0.00170227 0.00488914
v -0.02430189 0.00352917 0.00490303
v -0.02431998 0.00342545 0.00490204
v -0.02438507 0.00316705 0.00488219
v -0.02439050 0.00306226 0.00488616
v -0.02440315 0.00281243 0.00489410
v -0.02442304 0.00243743 0.00490502
v -0.02465811 0.00170227 0.00478296
v -0.02457855 0.00181261 0.00484151
v -0.02457312 0.00193761 0.00483555
v -0.02454781 0.00268743 0.00479289
v -0.02452069 0.00318743 0.00477006
v -0.02444836 0.00316705 0.00483357
v -0.02443932 0.00331244 0.00482662
v -0.02442304 0.00342545 0.00482861
v -0.02446102 0.00352917 0.00478296
v -0.02448452 0.00352917 0.00476312
v -0.02449718 0.00352917 0.00475121
v -0.02450984 0.00193761 0.00488219
v -0.02451526 0.00181261 0.00488616
v -0.02458216 0.00170227 0.00484548
v -0.02431998 0.00352917 0.00489212
v -0.02437422 0.00337592 0.00487326
v -0.02445378 0.00306226 0.00483853
v -0.02448452 0.00243743 0.00486532
v -0.02435795 0.00352917 0.00486532
f 1 2 5
f 1 5 3
f 1 3 8
f 1 8 18
f 1 18 19
f 1 19 9
f 1 9 4
f 1 4 13
f 1 13 22
f 1 22 32
f 1 32 42
f 1 42 57
f 1 57 56
f 1 56 68
f 1 68 83
f 1 83 95
f 1 95 113
f 1 113 123
f 1 123 137
f 1 137 147
f 1 147 158
f 1 158 157
f 1 157 169
f 1 169 183
f 1 183 194
f 1 194 205
f 1 205 212
f 1 212 219
f 1 219 231
f 1 231 246
f 1 246 258
f 1 258 276
f 1 276 289
f 1 289 304
f 1 304 315
f 1 315 332
f 1 332 334
f 1 334 354
f 1 354 341
f 1 341 323
f 1 323 309
f 1 309 296
f 1 296 295
f 1 295 288
f 1 288 273
f 1 273 272
f 1 272 271
f 1 271 256
f 1 256 253
f 1 253 238
f 1 238 223
f 1 223 214
f 1 214 207
f 1 207 198
f 1 198 197
f 1 197 186
f 1 186 185
f 1 185 172
f 1 172 159
f 1 159 150
f 1 150 148
f 1 148 138
f 1 138 127
f 1 127 126
f 1 126 125
f 1 125 118
f 1 118 114
f 1 114 97
f 1 97 96
f 1 96 86
f 1 86 72
f 1 72 59
f 1 59 44
f 1 44 35
f 1 35 26
f 1 26 15
f 1 15 6
f 1 6 2
f 2 6 5
f 3 7 8
f 3 5 7
f 4 9 10
f 4 10 11
f 4 11 12
f 4 12 13
f 5 14 7
f 5 6 15
f 5 15 14
f 7 16 8
f 7 14 16
f 8 17 18
f 8 16 17
f 9 19 10
f 10 20 11
f 10 19 18
f 10 18 17
f 10 17 27
f 10 27 39
f 10 39 53
f 10 53 62
f 10 62 66
f 10 66 81
f 10 81 92
f 10 92 107
f 10 107 111
f 10 111 110
f 10 110 109
f 10 109 121
f 10 121 135
f 10 135 145
f 10 145 155
f 10 155 167
f 10 167 182
f 10 182 192
f 10 192 203
f 10 203 211
f 10 211 218
f 10 218 229
f 10 229 244
f 10 244 257
f 10 257 275
f 10 275 287
f 10 287 303
f 10 303 314
f 10 314 331
f 10 331 351
f 10 351 350
f 10 350 349
f 10 349 359
f 10 359 355
f 10 355 335
f 10 335 318
f 10 318 305
f 10 305 290
f 10 290 277
f 10 277 260
f 10 260 247
f 10 247 233
f 10 233 221
f 10 221 213
f 10 213 206
f 10 206 196
f 10 196 184
f 10 184 171
f 10 171 170
f 10 170 168
f 10 168 156
f 10 156 146
f 10 146 136
f 10 136 122
f 10 122 112
f 10 112 94
f 10 94 82
f 10 82 67
f 10 67 55
f 10 55 41
f 10 41 40
f 10 40 30
f 10 30 29
f 10 29 28
f 10 28 21
f 10 21 20
f 11 20 12
f 12 20 13
f 13 20 21
f 13 21 22
f 14 23 24
f 14 24 16
f 14 15 23
f 15 25 23
f 15 26 25
f 16 24 17
f 17 24 27
f 21 28 22
f 22 28 29
f 22 29 30
f 22 30 31
f 22 31 32
f 23 33 27
f 23 27 24
f 23 25 34
f 23 34 33
f 25 26 34
f 26 35 36
f 26 36 34
f 27 33 37
f 27 37 38
f 27 38 39
f 30 40 31
f 31 40 32
f 32 40 41
f 32 41 42
f 33 34 37
f 34 43 37
f 34 36 43
f 35 44 58
f 35 58 45
f 35 45 46
f 35 46 47
f 35 47 36
f 36 47 48
f 36 48 49
f 36 49 50
f 36 50 43
f 37 43 50
f 37 50 49
f 37 49 38
f 38 49 48
f 38 48 51
f 38 51 52
f 38 52 39
f 39 52 54
f 39 54 53
f 41 55 56
f 41 56 57
f 41 57 42
f 44 59 58
f 45 58 60
f 45 60 46
f 46 60 61
f 46 61 52
f 46 52 51
f 46 51 48
f 46 48 47
f 52 61 54
f 53 54 62
f 54 61 63
f 54 63 64
f 54 64 65
f 54 65 66
f 54 66 62
f 55 67 68
f 55 68 56
f 58 69 70
f 58 70 60
f 58 59 71
f 58 71 69
f 59 72 71
f 60 70 61
f 61 70 73
f 61 73 74
f 61 74 75
f 61 75 63
f 63 75 76
f 63 76 64
f 64 77 65
f 64 76 78
f 64 78 79
f 64 79 77
f 65 77 80
f 65 80 81
f 65 81 66
f 67 82 83
f 67 83 68
f 69 76 75
f 69 75 74
f 69 74 73
f 69 73 70
f 69 71 84
f 69 84 76
f 71 72 85
f 71 85 84
f 72 86 85
f 76 84 78
f 77 79 87
f 77 87 88
f 77 88 89
f 77 89 80
f 78 84 85
f 78 85 79
f 79 85 90
f 79 90 91
f 79 91 87
f 80 92 81
f 80 89 93
f 80 93 92
f 82 94 83
f 83 94 95
f 85 86 96
f 85 96 97
f 85 97 90
f 87 91 98
f 87 98 99
f 87 99 88
f 88 99 98
f 88 98 100
f 88 100 101
f 88 101 102
f 88 102 103
f 88 103 104
f 88 104 89
f 89 104 93
f 90 97 114
f 90 114 105
f 90 105 91
f 91 105 106
f 91 106 98
f 92 93 107
f 93 104 108
f 93 108 109
f 93 109 110
f 93 110 111
f 93 111 107
f 94 112 95
f 95 112 113
f 98 106 100
f 100 106 101
f 101 115 102
f 101 106 116
f 101 116 117
f 101 117 115
f 102 115 103
f 103 115 108
f 103 108 104
f 105 114 118
f 105 118 106
f 106 118 116
f 108 115 119
f 108 119 120
f 108 120 121
f 108 121 109
f 112 122 113
f 113 122 123
f 115 124 119
f 115 117 124
f 116 125 126
f 116 126 127
f 116 127 128
f 116 128 117
f 116 118 125
f 117 129 124
f 117 128 130
f 117 130 129
f 119 124 130
f 119 130 131
f 119 131 132
f 119 132 120
f 120 132 133
f 120 133 121
f 121 133 134
f 121 134 135
f 122 136 123
f 123 136 137
f 124 129 130
f 127 138 139
f 127 139 128
f 128 139 130
f 130 139 140
f 130 140 131
f 131 140 132
f 132 140 141
f 132 141 142
f 132 142 133
f 133 142 143
f 133 143 144
f 133 144 134
f 134 144 135
f 135 144 145
f 136 146 147
f 136 147 137
f 138 148 139
f 139 149 140
f 139 148 150
f 139 150 151
f 139 151 149
f 140 149 141
f 141 149 151
f 141 151 152
f 141 152 142
f 142 152 143
f 143 152 153
f 143 153 144
f 144 153 154
f 144 154 145
f 145 154 155
f 146 156 157
f 146 157 158
f 146 158 147
f 150 159 160
f 150 160 151
f 151 160 161
f 151 161 162
f 151 162 153
f 151 153 152
f 153 162 163
f 153 163 154
f 154 163 164
f 154 164 155
f 155 164 165
f 155 165 166
f 155 166 167
f 156 168 157
f 157 168 170
f 157 170 171
f 157 171 169
f 159 172 160
f 160 173 163
f 160 163 162
f 160 162 161
f 160 172 174
f 160 174 175
f 160 175 173
f 163 173 176
f 163 176 164
f 164 166 165
f 164 176 175
f 164 175 166
f 166 175 177
f 166 177 178
f 166 178 179
f 166 179 180
f 166 180 181
f 166 181 182
f 166 182 167
f 169 171 183
f 171 184 183
f 172 185 174
f 173 175 176
f 174 185 186
f 174 186 187
f 174 187 180
f 174 180 178
f 174 178 175
f 175 178 177
f 178 180 179
f 180 187 188
f 180 188 189
f 180 189 181
f 181 190 192
f 181 192 182
f 181 189 191
f 181 191 190
f 183 193 194
f 183 184 195
f 183 195 193
f 184 196 195
f 186 197 187
f 187 197 198
f 187 198 199
f 187 199 188
f 188 199 189
f 189 199 191
f 190 200 192
f 190 191 201
f 190 201 200
f 191 199 202
f 191 202 201
f 192 200 203
f 193 204 194
f 193 195 204
f 194 204 205
f 195 196 204
f 196 206 205
f 196 205 204
f 198 207 199
f 199 207 202
f 200 208 203
f 200 201 202
f 200 202 209
f 200 209 210
f 200 210 208
f 202 207 214
f 202 214 209
f 203 208 215
f 203 215 211
f 205 206 213
f 205 213 222
f 205 222 220
f 205 220 212
f 208 210 216
f 208 216 215
f 209 214 217
f 209 217 216
f 209 216 210
f 211 215 225
f 211 225 218
f 212 220 219
f 213 221 222
f 214 223 217
f 215 224 225
f 215 216 217
f 215 217 226
f 215 226 227
f 215 227 228
f 215 228 224
f 217 223 227
f 217 227 226
f 218 225 242
f 218 242 229
f 219 230 231
f 219 220 230
f 220 222 232
f 220 232 230
f 221 233 234
f 221 234 235
f 221 235 222
f 222 235 236
f 222 236 237
f 222 237 232
f 223 238 227
f 224 239 242
f 224 242 225
f 224 228 240
f 224 240 241
f 224 241 239
f 227 238 240
f 227 240 228
f 229 242 243
f 229 243 244
f 230 232 245
f 230 245 246
f 230 246 231
f 232 237 245
f 233 247 248
f 233 248 249
f 233 249 250
f 233 250 251
f 233 251 252
f 233 252 234
f 234 252 245
f 234 245 235
f 235 245 236
f 236 245 237
f 238 253 240
f 239 254 242
f 239 241 255
f 239 255 254
f 240 253 256
f 240 256 271
f 240 271 255
f 240 255 241
f 242 254 243
f 243 254 257
f 243 257 244
f 245 252 246
f 246 252 259
f 246 259 258
f 247 260 248
f 248 260 261
f 248 261 262
f 248 262 263
f 248 263 249
f 249 263 250
f 250 263 251
f 251 263 259
f 251 259 252
f 254 255 264
f 254 264 265
f 254 265 266
f 254 266 267
f 254 267 268
f 254 268 269
f 254 269 270
f 254 270 257
f 255 271 272
f 255 272 273
f 255 273 274
f 255 274 265
f 255 265 264
f 257 270 275
f 258 259 263
f 258 263 276
f 260 277 278
f 260 278 279
f 260 279 261
f 261 279 280
f 261 280 281
f 261 281 276
f 261 276 262
f 262 276 263
f 265 274 266
f 266 274 273
f 266 273 282
f 266 282 283
f 266 283 284
f 266 284 285
f 266 285 267
f 267 285 286
f 267 286 268
f 268 286 287
f 268 287 269
f 269 287 275
f 269 275 270
f 273 288 282
f 276 281 289
f 277 290 278
f 278 290 291
f 278 291 279
f 279 291 292
f 279 292 293
f 279 293 280
f 280 293 294
f 280 294 289
f 280 289 281
f 282 288 295
f 282 295 296
f 282 296 297
f 282 297 298
f 282 298 283
f 283 298 299
f 283 299 284
f 284 299 300
f 284 300 285
f 285 300 286
f 286 300 299
f 286 299 301
f 286 301 302
f 286 302 303
f 286 303 287
f 289 294 304
f 290 305 291
f 291 305 306
f 291 306 307
f 291 307 308
f 291 308 292
f 292 308 293
f 293 308 294
f 294 308 304
f 296 309 297
f 297 309 323
f 297 323 310
f 297 310 311
f 297 311 298
f 298 311 312
f 298 312 299
f 299 312 301
f 301 312 313
f 301 313 314
f 301 314 302
f 302 314 303
f 304 308 316
f 304 316 317
f 304 317 315
f 305 318 306
f 306 318 319
f 306 319 320
f 306 320 307
f 307 320 319
f 307 319 321
f 307 321 322
f 307 322 316
f 307 316 308
f 310 323 324
f 310 324 325
f 310 325 311
f 311 325 326
f 311 326 327
f 311 327 328
f 311 328 329
f 311 329 312
f 312 329 313
f 313 329 328
f 313 328 327
f 313 327 314
f 314 327 330
f 314 330 331
f 315 317 332
f 316 322 333
f 316 333 317
f 317 333 334
f 317 334 332
f 318 335 336
f 318 336 319
f 319 336 337
f 319 337 338
f 319 338 339
f 319 339 340
f 319 340 333
f 319 333 321
f 321 333 322
f 323 341 324
f 324 341 354
f 324 354 342
f 324 342 343
f 324 343 344
f 324 344 325
f 325 344 345
f 325 345 326
f 326 346 347
f 326 347 348
f 326 348 327
f 326 345 346
f 327 348 330
f 330 348 349
f 330 349 350
f 330 350 351
f 330 351 331
f 333 340 352
f 333 352 353
f 333 353 334
f 334 353 342
f 334 342 354
f 335 355 336
f 336 355 356
f 336 356 337
f 337 356 357
f 337 357 358
f 337 358 338
f 338 358 352
f 338 352 339
f 339 352 340
f 342 353 352
f 342 352 358
f 342 358 357
f 342 357 343
f 343 357 344
f 344 357 346
f 344 346 345
f 346 357 356
f 346 356 347
f 347 356 348
f 348 356 359
f 348 359 349
f 355 359 356

