# https://github.com/mikedh/trimesh
v -0.02501923 0.00139558 0.00244564
v -0.02502794 0.00092016 0.00244589
v -0.02503317 0.00092131 0.00244589
v -0.02503317 0.00094550 0.00244589
v -0.02503143 0.00106256 0.00244589
v -0.02501749 0.00144534 0.00244564
v -0.00729577 0.00139558 0.00244564
v -0.02503666 0.00092016 0.00254552
v -0.00737245 0.00092016 0.00244589
v -0.02500877 0.00168742 0.00244564
v -0.00723477 0.00168336 0.00244564
v -0.02503666 0.00092016 0.00393744
v -0.02502620 0.00121468 0.00296507
v -0.00737245 0.00092016 0.00393744
v -0.02500877 0.00168742 0.00393719
v -0.02500703 0.00170227 0.00244564
v -0.00723302 0.00170128 0.00244564
v -0.00723302 0.00170227 0.00393719
v -0.02503143 0.00092016 0.00406223
v -0.02503143 0.00093761 0.00406223
v -0.02500354 0.00170227 0.00406916
v -0.00737420 0.00092016 0.00397288
v -0.02500703 0.00170227 0.00395439
v -0.00723825 0.00170227 0.00244564
v -0.00723302 0.00170227 0.00254809
v -0.00723825 0.00170227 0.00400394
v -0.00725045 0.00162326 0.00400035
v -0.02501400 0.00092016 0.00418728
v -0.02500354 0.00169531 0.00407224
v -0.02501400 0.00093761 0.00418728
v -0.02500703 0.00131236 0.00416442
v -0.02500006 0.00165886 0.00413130
v -0.02499832 0.00170227 0.00412565
v -0.00737245 0.00096043 0.00400703
v -0.00741428 0.00092016 0.00405427
v -0.00723999 0.00170227 0.00401550
v -0.00724174 0.00168742 0.00401293
v -0.02500180 0.00092016 0.00425763
v -0.02500180 0.00093761 0.00425686
v -0.02500006 0.00102275 0.00425198
v -0.02499483 0.00131236 0.00422682
v -0.02498960 0.00170227 0.00417932
v -0.02499134 0.00170227 0.00417007
v -0.00748574 0.00092016 0.00414054
v -0.00729054 0.00170227 0.00407789
v -0.02498437 0.00092016 0.00431129
v -0.02498263 0.00106370 0.00430102
v -0.02496520 0.00143746 0.00431206
v -0.02497566 0.00139558 0.00428356
v -0.02495474 0.00170227 0.00431206
v -0.02499309 0.00139558 0.00421911
v -0.00830839 0.00092016 0.00495988
v -0.00734631 0.00170227 0.00413952
v -0.00735328 0.00170227 0.00414696
v -0.02494080 0.00092016 0.00442144
v -0.02498089 0.00093761 0.00431925
v -0.02491988 0.00139558 0.00443711
v -0.02490768 0.00170227 0.00443839
v -0.00816896 0.00170227 0.00494268
v -0.00836242 0.00092016 0.00501252
v -0.00740906 0.00170227 0.00420217
v -0.02493383 0.00092016 0.00443711
v -0.02493383 0.00093761 0.00443711
v -0.02488503 0.00131236 0.00451902
v -0.02487806 0.00170227 0.00450720
v -0.00823170 0.00170227 0.00500353
v -0.00824041 0.00170227 0.00501046
v -0.00833627 0.00131236 0.00502998
v -0.00837287 0.00092016 0.00501740
v -0.02489723 0.00092016 0.00451670
v -0.02489025 0.00093761 0.00452954
v -0.02485017 0.00106256 0.00458886
v -0.02484843 0.00118750 0.00458526
v -0.02488328 0.00139558 0.00451696
v -0.02484145 0.00156248 0.00457422
v -0.02483797 0.00168742 0.00457037
v -0.02483797 0.00170227 0.00456806
v -0.00830490 0.00170227 0.00504076
v -0.00832582 0.00143746 0.00503332
v -0.00831362 0.00170227 0.00504461
v -0.00843910 0.00092016 0.00504667
v -0.02489025 0.00092016 0.00453006
v -0.02485191 0.00093761 0.00459194
v -0.02478568 0.00118750 0.00466999
v -0.02477871 0.00156248 0.00466255
v -0.02477522 0.00170227 0.00465870
v -0.00842516 0.00170227 0.00506670
v -0.00843910 0.00143746 0.00506772
v -0.00843910 0.00139558 0.00506670
v -0.00843910 0.00131236 0.00506413
v -0.00845653 0.00092016 0.00505052
v -0.02485191 0.00092016 0.00459245
v -0.02478917 0.00093761 0.00467462
v -0.02473514 0.00093761 0.00473727
v -0.02472817 0.00143746 0.00472751
v -0.02472294 0.00168742 0.00472186
v -0.02472120 0.00170227 0.00472135
v -0.00843910 0.00170227 0.00506849
v -0.00843910 0.00156248 0.00506849
v -0.00856459 0.00092016 0.00506849
v -0.02478917 0.00092016 0.00467513
v -0.02473514 0.00092016 0.00473752
v -0.02467414 0.00093761 0.00479478
v -0.02466542 0.00143746 0.00478759
v -0.02466019 0.00170227 0.00478271
v -0.02471422 0.00170227 0.00472879
v -0.02381140 0.00170227 0.00506849
v -0.02381140 0.00092016 0.00506849
v -0.02467414 0.00092016 0.00479504
v -0.02460965 0.00092016 0.00484896
v -0.02459396 0.00118750 0.00485358
v -0.02458874 0.00143746 0.00484999
v -0.02458351 0.00168742 0.00484588
v -0.02466019 0.00168742 0.00478323
v -0.02458176 0.00170227 0.00484536
v -0.02391947 0.00170227 0.00506670
v -0.02393515 0.00168742 0.00506670
v -0.02385324 0.00139558 0.00506824
v -0.02393689 0.00092016 0.00506747
v -0.02459919 0.00092016 0.00485743
v -0.02454865 0.00139558 0.00487926
v -0.02452425 0.00156248 0.00489133
v -0.02452076 0.00168742 0.00488953
v -0.02452076 0.00170227 0.00488901
v -0.02457479 0.00170227 0.00485050
v -0.02393515 0.00170227 0.00506618
v -0.02404495 0.00170227 0.00505822
v -0.02406064 0.00168742 0.00505720
v -0.02406064 0.00156248 0.00505822
v -0.02406238 0.00139558 0.00505899
v -0.02406238 0.00106256 0.00506053
v -0.02406238 0.00092016 0.00506105
v -0.02395432 0.00092016 0.00506670
v -0.02453819 0.00092016 0.00489928
v -0.02453296 0.00118750 0.00489595
v -0.02452773 0.00139558 0.00489364
v -0.02443536 0.00156248 0.00494293
v -0.02443536 0.00168742 0.00493960
v -0.02443536 0.00170227 0.00493908
v -0.02406064 0.00170227 0.00505694
v -0.02417044 0.00170227 0.00503768
v -0.02418438 0.00156248 0.00503717
v -0.02418613 0.00139558 0.00503871
v -0.02418613 0.00093761 0.00504282
v -0.02418613 0.00092016 0.00504282
v -0.02445105 0.00092016 0.00494653
v -0.02443536 0.00143746 0.00494525
v -0.02434299 0.00156248 0.00498864
v -0.02433950 0.00170227 0.00498710
v -0.02418438 0.00170227 0.00503511
v -0.02418438 0.00168742 0.00503537
v -0.02428024 0.00156248 0.00501123
v -0.02428373 0.00139558 0.00501226
v -0.02428896 0.00106256 0.00501406
v -0.02429070 0.00093761 0.00501457
v -0.02429070 0.00092016 0.00501457
v -0.02443536 0.00139558 0.00494602
v -0.02436564 0.00092016 0.00498710
v -0.02434647 0.00139558 0.00498967
v -0.02437610 0.00139558 0.00497529
v -0.02433253 0.00170227 0.00498992
v -0.02427676 0.00170227 0.00500995
v -0.02427676 0.00168742 0.00501021
v -0.02435345 0.00093761 0.00499223
v -0.02435345 0.00092016 0.00499223
f 1 2 3
f 1 3 4
f 1 4 5
f 1 5 6
f 1 6 10
f 1 10 16
f 1 16 24
f 1 24 17
f 1 17 11
f 1 11 7
f 1 7 9
f 1 9 2
f 2 8 3
f 2 9 14
f 2 14 22
f 2 22 35
f 2 35 44
f 2 44 52
f 2 52 60
f 2 60 69
f 2 69 81
f 2 81 91
f 2 91 100
f 2 100 108
f 2 108 119
f 2 119 133
f 2 133 132
f 2 132 145
f 2 145 156
f 2 156 165
f 2 165 158
f 2 158 146
f 2 146 134
f 2 134 120
f 2 120 110
f 2 110 109
f 2 109 102
f 2 102 101
f 2 101 92
f 2 92 82
f 2 82 70
f 2 70 62
f 2 62 55
f 2 55 46
f 2 46 38
f 2 38 28
f 2 28 19
f 2 19 12
f 2 12 8
f 3 8 4
f 4 8 5
f 5 8 10
f 5 10 6
f 7 11 9
f 8 12 13
f 8 13 10
f 9 11 14
f 10 15 23
f 10 23 16
f 10 13 15
f 11 17 18
f 11 18 14
f 12 19 20
f 12 20 21
f 12 21 15
f 12 15 13
f 14 18 22
f 15 21 23
f 16 23 21
f 16 21 33
f 16 33 43
f 16 43 42
f 16 42 50
f 16 50 58
f 16 58 65
f 16 65 77
f 16 77 86
f 16 86 97
f 16 97 106
f 16 106 105
f 16 105 115
f 16 115 125
f 16 125 124
f 16 124 139
f 16 139 149
f 16 149 161
f 16 161 162
f 16 162 150
f 16 150 141
f 16 141 140
f 16 140 127
f 16 127 126
f 16 126 116
f 16 116 107
f 16 107 98
f 16 98 87
f 16 87 80
f 16 80 78
f 16 78 67
f 16 67 66
f 16 66 59
f 16 59 61
f 16 61 54
f 16 54 53
f 16 53 45
f 16 45 36
f 16 36 26
f 16 26 18
f 16 18 25
f 16 25 24
f 17 25 18
f 17 24 25
f 18 26 27
f 18 27 22
f 19 28 30
f 19 30 20
f 20 29 21
f 20 30 31
f 20 31 32
f 20 32 29
f 21 29 32
f 21 32 33
f 22 27 34
f 22 34 35
f 26 36 37
f 26 37 27
f 27 37 34
f 28 38 30
f 30 38 39
f 30 39 31
f 31 39 40
f 31 40 41
f 31 41 42
f 31 42 43
f 31 43 32
f 32 43 33
f 34 37 36
f 34 36 35
f 35 36 45
f 35 45 44
f 38 46 39
f 39 46 47
f 39 47 48
f 39 48 40
f 40 48 49
f 40 49 41
f 41 49 50
f 41 50 51
f 41 51 42
f 42 51 50
f 44 45 53
f 44 53 54
f 44 54 52
f 46 55 56
f 46 56 48
f 46 48 47
f 48 56 57
f 48 57 58
f 48 58 50
f 48 50 49
f 52 59 60
f 52 54 61
f 52 61 59
f 55 62 63
f 55 63 57
f 55 57 56
f 57 63 64
f 57 64 65
f 57 65 58
f 59 66 60
f 60 66 67
f 60 67 68
f 60 68 69
f 62 70 63
f 63 70 64
f 64 70 71
f 64 71 72
f 64 72 73
f 64 73 74
f 64 74 65
f 65 74 73
f 65 73 75
f 65 75 76
f 65 76 77
f 67 78 79
f 67 79 68
f 68 79 80
f 68 80 81
f 68 81 69
f 70 82 71
f 71 82 92
f 71 92 83
f 71 83 72
f 72 83 84
f 72 84 85
f 72 85 73
f 73 85 75
f 75 85 86
f 75 86 76
f 76 86 77
f 78 80 79
f 80 87 88
f 80 88 89
f 80 89 90
f 80 90 81
f 81 90 91
f 83 92 101
f 83 101 93
f 83 93 84
f 84 93 94
f 84 94 95
f 84 95 85
f 85 95 96
f 85 96 86
f 86 96 97
f 87 98 99
f 87 99 88
f 88 99 100
f 88 100 89
f 89 100 90
f 90 100 91
f 93 101 94
f 94 101 102
f 94 102 109
f 94 109 103
f 94 103 104
f 94 104 95
f 95 104 105
f 95 105 96
f 96 106 97
f 96 105 106
f 98 107 108
f 98 108 100
f 98 100 99
f 103 109 110
f 103 110 104
f 104 110 111
f 104 111 112
f 104 112 113
f 104 113 114
f 104 114 105
f 105 114 113
f 105 113 115
f 107 116 117
f 107 117 118
f 107 118 108
f 108 118 119
f 110 120 111
f 111 120 121
f 111 121 112
f 112 121 122
f 112 122 113
f 113 122 123
f 113 123 124
f 113 124 125
f 113 125 115
f 116 126 117
f 117 126 127
f 117 127 128
f 117 128 129
f 117 129 130
f 117 130 131
f 117 131 132
f 117 132 133
f 117 133 119
f 117 119 118
f 120 134 135
f 120 135 121
f 121 135 122
f 122 135 136
f 122 136 137
f 122 137 138
f 122 138 123
f 123 138 139
f 123 139 124
f 127 140 128
f 128 140 141
f 128 141 142
f 128 142 143
f 128 143 144
f 128 144 129
f 129 144 130
f 130 144 131
f 131 144 132
f 132 144 145
f 134 146 137
f 134 137 135
f 135 137 136
f 137 146 147
f 137 147 148
f 137 148 149
f 137 149 138
f 138 149 139
f 141 150 151
f 141 151 142
f 142 151 152
f 142 152 143
f 143 152 153
f 143 153 154
f 143 154 144
f 144 154 155
f 144 155 156
f 144 156 145
f 146 157 147
f 146 158 159
f 146 159 160
f 146 160 157
f 147 157 148
f 148 160 159
f 148 159 153
f 148 153 152
f 148 152 161
f 148 161 149
f 148 157 160
f 150 162 163
f 150 163 151
f 151 163 152
f 152 162 161
f 152 163 162
f 153 159 164
f 153 164 154
f 154 164 155
f 155 164 165
f 155 165 156
f 158 165 164
f 158 164 159

