# https://github.com/mikedh/trimesh
v 0.00741071 0.00051774 0.00094717
v 0.00742972 -0.00000397 0.00094717
v 0.00741071 0.00051774 0.00368772
v 0.02504930 0.00051774 0.00094717
v 0.00742972 -0.00000397 0.00301317
v 0.02506659 -0.00000397 0.00094717
v 0.00743145 -0.00000397 0.00393705
v 0.00741244 0.00051774 0.00393705
v 0.02504930 0.00051774 0.00393705
v 0.02505103 0.00048654 0.00301317
v 0.02505103 0.00048526 0.00236283
v 0.02505276 0.00043741 0.00094717
v 0.02506659 0.00006262 0.00094717
v 0.02506659 -0.00000397 0.00301317
v 0.00746774 -0.00000397 0.00404880
v 0.00745910 0.00043736 0.00405566
v 0.00746256 0.00051774 0.00406574
v 0.02506659 0.00006257 0.00393705
v 0.02504585 0.00051774 0.00406211
v 0.02506486 0.00011170 0.00301317
v 0.02506659 0.00006262 0.00301317
v 0.02506659 -0.00000392 0.00393705
v 0.02506140 -0.00000392 0.00406211
v 0.02504585 -0.00000392 0.00418718
v 0.02501301 -0.00000392 0.00432193
v 0.02499918 -0.00000392 0.00437397
v 0.02499573 -0.00000392 0.00438164
v 0.02497499 -0.00000392 0.00442480
v 0.02490759 -0.00000392 0.00455431
v 0.02488685 -0.00000392 0.00458779
v 0.02486784 -0.00000392 0.00461684
v 0.02477797 -0.00000392 0.00472214
v 0.02475032 -0.00000392 0.00475320
v 0.02468464 -0.00000392 0.00480928
v 0.02461205 -0.00000392 0.00486859
v 0.02455156 -0.00000392 0.00490853
v 0.02448071 -0.00000392 0.00494685
v 0.02236186 -0.00000397 0.00446878
v 0.00751440 -0.00000397 0.00411133
v 0.00750576 0.00051774 0.00412061
v 0.02506140 0.00006257 0.00406211
v 0.02503029 0.00051774 0.00418718
v 0.02504585 0.00006257 0.00418718
v 0.02499918 -0.00000320 0.00437478
v 0.02501301 0.00005205 0.00432193
v 0.02495252 0.00001314 0.00446878
v 0.02497499 0.00005205 0.00442480
v 0.02490759 0.00006257 0.00455431
v 0.02486784 0.00006257 0.00461684
v 0.02475032 0.00006257 0.00475320
v 0.02480735 0.00006257 0.00468744
v 0.02468464 0.00006257 0.00480928
v 0.02461205 0.00006257 0.00486859
v 0.02455156 0.00006257 0.00490853
v 0.02443577 0.00018753 0.00496864
v 0.02442367 0.00005506 0.00497630
v 0.02442367 -0.00000392 0.00497630
v 0.02437355 -0.00000392 0.00499970
v 0.02436491 -0.00000392 0.00500253
v 0.02432171 -0.00000392 0.00501423
v 0.02425430 -0.00000392 0.00503157
v 0.02418345 -0.00000392 0.00504812
v 0.02411950 -0.00000392 0.00505659
v 0.02406074 -0.00000392 0.00506425
v 0.02399507 -0.00000392 0.00506667
v 0.02393631 -0.00000392 0.00506869
v 0.00787042 -0.00000397 0.00446878
v 0.00754033 0.00051774 0.00415611
v 0.02500955 0.00051774 0.00428360
v 0.02501301 0.00031245 0.00429530
v 0.02501474 0.00018753 0.00430256
v 0.02499918 0.00000338 0.00437478
v 0.02495252 0.00005563 0.00446878
v 0.02495252 0.00051774 0.00443691
v 0.02493697 0.00051774 0.00446878
v 0.02494388 0.00031245 0.00446878
v 0.02490586 0.00018753 0.00455108
v 0.02486092 0.00043736 0.00460675
v 0.02483846 0.00051774 0.00463217
v 0.02479698 0.00051774 0.00468341
v 0.02479179 0.00030683 0.00469914
v 0.02474859 0.00026143 0.00474997
v 0.02468291 0.00051774 0.00480040
v 0.02461033 0.00031245 0.00486536
v 0.02454984 0.00018753 0.00490732
v 0.02443577 0.00051774 0.00496339
v 0.02436837 0.00031245 0.00499769
v 0.02437355 0.00000839 0.00499970
v 0.02430788 0.00018753 0.00501745
v 0.02432171 0.00005506 0.00501423
v 0.02430097 0.00051774 0.00501624
v 0.02418345 0.00018753 0.00504771
v 0.02418345 0.00006257 0.00504812
v 0.02406074 0.00006257 0.00506425
v 0.02393631 0.00051774 0.00506829
v 0.02393631 0.00006257 0.00506869
v 0.00856518 -0.00000392 0.00506869
v 0.00779438 0.00051774 0.00441068
v 0.00850470 -0.00000392 0.00505013
v 0.00845285 -0.00000392 0.00503400
v 0.00841828 -0.00000392 0.00500898
v 0.00839063 -0.00000392 0.00498679
v 0.00832668 -0.00000392 0.00492426
v 0.00820052 -0.00000392 0.00479919
v 0.02499054 0.00051774 0.00434613
v 0.02499227 0.00043736 0.00435057
v 0.02489895 0.00051774 0.00454180
v 0.02490067 0.00043736 0.00454422
v 0.02488512 0.00051774 0.00456439
v 0.02485919 0.00051774 0.00460474
v 0.02474513 0.00051774 0.00474554
v 0.02474686 0.00043736 0.00474715
v 0.02460687 0.00051774 0.00486294
v 0.02460860 0.00043736 0.00486374
v 0.02454292 0.00051774 0.00490449
v 0.02450490 0.00051774 0.00492547
v 0.02436319 0.00051774 0.00499607
v 0.02418345 0.00043736 0.00504610
v 0.02418345 0.00051774 0.00504529
v 0.02406074 0.00051774 0.00506264
v 0.02406074 0.00031245 0.00506385
v 0.02381014 0.00051774 0.00506869
v 0.00856518 0.00051774 0.00506869
v 0.00844421 0.00051774 0.00503400
v 0.00835779 0.00051774 0.00497308
v 0.00838199 0.00051774 0.00499527
v 0.02414197 0.00051774 0.00505134
f 1 2 5
f 1 5 3
f 1 3 8
f 1 8 17
f 1 17 40
f 1 40 68
f 1 68 98
f 1 98 125
f 1 125 126
f 1 126 124
f 1 124 123
f 1 123 122
f 1 122 95
f 1 95 120
f 1 120 127
f 1 127 119
f 1 119 91
f 1 91 117
f 1 117 86
f 1 86 116
f 1 116 115
f 1 115 113
f 1 113 83
f 1 83 111
f 1 111 80
f 1 80 79
f 1 79 110
f 1 110 109
f 1 109 107
f 1 107 75
f 1 75 74
f 1 74 105
f 1 105 69
f 1 69 42
f 1 42 19
f 1 19 9
f 1 9 4
f 1 4 12
f 1 12 13
f 1 13 6
f 1 6 2
f 2 6 14
f 2 14 38
f 2 38 67
f 2 67 39
f 2 39 15
f 2 15 7
f 2 7 5
f 3 5 7
f 3 7 8
f 4 9 10
f 4 10 11
f 4 11 12
f 6 13 21
f 6 21 18
f 6 18 22
f 6 22 14
f 7 15 8
f 8 15 16
f 8 16 17
f 9 18 10
f 9 19 18
f 10 12 11
f 10 18 20
f 10 20 13
f 10 13 12
f 13 20 21
f 14 22 23
f 14 23 24
f 14 24 25
f 14 25 26
f 14 26 27
f 14 27 28
f 14 28 29
f 14 29 30
f 14 30 31
f 14 31 32
f 14 32 33
f 14 33 34
f 14 34 35
f 14 35 36
f 14 36 37
f 14 37 38
f 15 17 16
f 15 39 17
f 17 39 40
f 18 21 20
f 18 19 41
f 18 41 23
f 18 23 22
f 19 42 43
f 19 43 41
f 23 41 43
f 23 43 24
f 24 43 45
f 24 45 25
f 25 44 26
f 25 45 72
f 25 72 44
f 26 44 27
f 27 44 28
f 28 46 29
f 28 44 72
f 28 72 47
f 28 47 73
f 28 73 46
f 29 46 73
f 29 73 48
f 29 48 30
f 30 49 31
f 30 48 49
f 31 49 32
f 32 50 33
f 32 49 51
f 32 51 50
f 33 50 52
f 33 52 34
f 34 52 53
f 34 53 35
f 35 53 54
f 35 54 36
f 36 54 37
f 37 55 56
f 37 56 57
f 37 57 38
f 37 54 55
f 38 57 58
f 38 58 59
f 38 59 60
f 38 60 61
f 38 61 62
f 38 62 63
f 38 63 64
f 38 64 65
f 38 65 66
f 38 66 97
f 38 97 67
f 39 67 68
f 39 68 40
f 42 69 43
f 43 69 70
f 43 70 71
f 43 71 45
f 45 71 72
f 47 72 74
f 47 74 75
f 47 75 76
f 47 76 73
f 48 77 49
f 48 73 77
f 49 78 79
f 49 79 80
f 49 80 81
f 49 81 51
f 49 77 78
f 50 51 81
f 50 81 82
f 50 82 83
f 50 83 52
f 52 83 84
f 52 84 53
f 53 84 54
f 54 84 85
f 54 85 86
f 54 86 55
f 55 86 87
f 55 87 56
f 56 87 88
f 56 88 58
f 56 58 57
f 58 88 59
f 59 89 90
f 59 90 60
f 59 88 91
f 59 91 89
f 60 90 61
f 61 92 93
f 61 93 62
f 61 90 89
f 61 89 92
f 62 93 63
f 63 94 64
f 63 93 94
f 64 94 65
f 65 94 95
f 65 95 96
f 65 96 66
f 66 96 122
f 66 122 123
f 66 123 97
f 67 98 68
f 67 97 99
f 67 99 100
f 67 100 101
f 67 101 102
f 67 102 103
f 67 103 104
f 67 104 98
f 69 105 106
f 69 106 70
f 70 106 72
f 70 72 71
f 72 106 74
f 73 76 77
f 74 106 105
f 75 107 108
f 75 108 77
f 75 77 76
f 77 108 109
f 77 109 78
f 78 109 110
f 78 110 79
f 80 111 112
f 80 112 81
f 81 112 82
f 82 112 83
f 83 113 114
f 83 114 84
f 83 112 111
f 84 114 85
f 85 115 116
f 85 116 86
f 85 114 115
f 86 117 87
f 87 117 91
f 87 91 88
f 89 91 118
f 89 118 92
f 91 119 118
f 92 118 120
f 92 120 121
f 92 121 93
f 93 121 94
f 94 121 95
f 95 122 96
f 95 121 120
f 97 123 124
f 97 124 99
f 98 104 125
f 99 124 100
f 100 124 126
f 100 126 101
f 101 126 102
f 102 126 125
f 102 125 103
f 103 125 104
f 107 109 108
f 113 115 114
f 118 119 127
f 118 127 120

