# https://github.com/mikedh/trimesh
v 0.00216310 0.02381129 0.00506875
v 0.00180090 0.02381129 0.00506875
v 0.00231271 0.02380760 0.00506875
v 0.00193763 0.02393495 0.00506577
v 0.00180090 0.02393495 0.00506577
v 0.00180090 0.00844123 0.00506875
v 0.00281257 0.02380760 0.00506676
v 0.00216310 0.02391095 0.00506577
v 0.00406234 0.02356029 0.00506875
v 0.00356248 0.02368579 0.00506776
v 0.00180090 0.02404937 0.00505684
v 0.00243796 0.02393310 0.00506379
v 0.00180090 0.00831573 0.00505386
v 0.00181284 0.00831573 0.00505486
v 0.00193763 0.00831573 0.00506280
v 0.00206266 0.00831573 0.00506776
v 0.00406211 0.00756642 0.00506776
v 0.00331220 0.00794108 0.00506875
v 0.00419275 0.02343479 0.00506875
v 0.00419275 0.02356583 0.00506776
v 0.00393732 0.02368579 0.00506577
v 0.00181284 0.02405860 0.00505585
v 0.00180090 0.02405860 0.00505585
v 0.00356248 0.02381129 0.00506180
v 0.00281257 0.02393310 0.00505883
v 0.00216310 0.02405860 0.00505188
v 0.00193763 0.02405860 0.00505486
v 0.00419275 0.02369133 0.00506379
v 0.00180090 0.00822899 0.00502013
v 0.00419252 0.00731727 0.00501913
v 0.00419252 0.00738186 0.00504295
v 0.00418736 0.00744092 0.00506180
v 0.00419252 0.00756642 0.00506776
v 0.00343722 0.00794108 0.00506875
v 0.00419275 0.02081036 0.00506875
v 0.00181284 0.02418595 0.00503104
v 0.00180090 0.02418595 0.00503104
v 0.00368750 0.02381129 0.00505982
v 0.00289264 0.02393125 0.00505783
v 0.00268754 0.02405676 0.00504295
v 0.00193763 0.02418595 0.00502906
v 0.00419275 0.02381129 0.00504890
v 0.00418736 0.02381129 0.00504990
v 0.00180090 0.00816070 0.00495563
v 0.00419252 0.00619146 0.00406254
v 0.00419252 0.00631880 0.00417864
v 0.00419252 0.00721576 0.00493975
v 0.00419252 0.00730989 0.00501417
v 0.00419275 0.02070148 0.00505883
v 0.00419252 0.00744092 0.00506180
v 0.00419228 0.02070148 0.00506875
v 0.00356154 0.00806658 0.00506875
v 0.00180090 0.02426715 0.00500723
v 0.00331220 0.02393125 0.00504990
v 0.00356248 0.02393495 0.00504394
v 0.00381253 0.02393495 0.00503600
v 0.00318741 0.02405676 0.00502608
v 0.00289241 0.02411581 0.00502013
v 0.00247472 0.02424500 0.00499829
v 0.00216310 0.02418595 0.00502410
v 0.00216310 0.02416195 0.00503005
v 0.00216310 0.02425608 0.00500326
v 0.00206266 0.02425977 0.00500425
v 0.00419275 0.02381683 0.00504791
v 0.00419275 0.02393495 0.00502112
v 0.00180090 0.00740032 0.00421437
v 0.00419252 0.00613425 0.00393652
v 0.00180090 0.00733757 0.00415086
v 0.00180090 0.00728220 0.00409330
v 0.00180090 0.00727666 0.00408735
v 0.00180090 0.00723237 0.00403079
v 0.00419275 0.02070148 -0.00506875
v 0.00180090 0.02432437 0.00498440
v 0.00406234 0.02401246 0.00500524
v 0.00356154 0.02404753 0.00501516
v 0.00356248 0.02410843 0.00499433
v 0.00256252 0.02430776 0.00496555
v 0.00216310 0.02431883 0.00497547
v 0.00206266 0.02432252 0.00497746
v 0.00419275 0.02400323 0.00500127
v 0.00419252 0.00613425 -0.00393652
v 0.00180090 0.00723052 0.00402384
v 0.00180090 0.00720838 0.00393652
v 0.00419275 0.02343479 -0.00506875
v 0.00419252 0.00613978 -0.00396728
v 0.00419252 0.00619146 -0.00406353
v 0.00419252 0.00625421 -0.00412407
v 0.00419252 0.00726744 -0.00498639
v 0.00419252 0.00732280 -0.00502310
v 0.00419252 0.00738186 -0.00504295
v 0.00419252 0.00743538 -0.00506081
v 0.00419252 0.00744092 -0.00506180
v 0.00419252 0.00756088 -0.00506875
v 0.00181284 0.02443695 0.00492983
v 0.00180090 0.02443695 0.00492983
v 0.00381253 0.02408998 0.00498738
v 0.00356154 0.02418595 0.00495959
v 0.00268754 0.02430776 0.00495761
v 0.00256252 0.02442034 0.00490502
v 0.00216310 0.02443695 0.00491593
v 0.00419275 0.02406598 0.00497448
v 0.00180090 0.00720838 -0.00393652
v 0.00406234 0.02356029 -0.00506875
v 0.00419275 0.02356029 -0.00506776
v 0.00180090 0.00721022 -0.00394446
v 0.00180090 0.00723237 -0.00403079
v 0.00180090 0.00723606 -0.00403674
v 0.00180090 0.00728589 -0.00410025
v 0.00180090 0.00734864 -0.00416376
v 0.00180090 0.00817177 -0.00496753
v 0.00180090 0.00822899 -0.00502013
v 0.00180090 0.00823637 -0.00502310
v 0.00180090 0.00831573 -0.00505387
v 0.00418736 0.00744092 -0.00506180
v 0.00406211 0.00756642 -0.00506875
v 0.00180090 0.02451262 0.00488517
v 0.00393732 0.02418595 0.00493181
v 0.00293759 0.02430776 0.00493975
v 0.00318741 0.02430776 0.00492089
v 0.00418924 0.02419702 0.00490601
v 0.00356154 0.02428930 0.00490204
v 0.00326888 0.02437235 0.00487624
v 0.00256252 0.02448309 0.00486433
v 0.00243796 0.02448862 0.00486929
v 0.00218768 0.02449970 0.00487624
v 0.00419275 0.02420071 0.00490303
v 0.00216310 0.02381129 -0.00506875
v 0.00356248 0.02368579 -0.00506776
v 0.00418736 0.02368579 -0.00506280
v 0.00419275 0.02368026 -0.00506280
v 0.00180090 0.00832865 -0.00505684
v 0.00193763 0.00831573 -0.00506280
v 0.00206266 0.00831573 -0.00506776
v 0.00180090 0.00844123 -0.00506875
v 0.00180090 0.02457352 0.00483555
v 0.00414897 0.02425239 0.00487624
v 0.00343722 0.02436128 0.00486731
v 0.00268754 0.02447386 0.00485838
v 0.00268754 0.02454953 0.00479586
v 0.00255831 0.02456983 0.00479289
v 0.00206266 0.02456614 0.00482762
v 0.00419275 0.02429484 0.00483655
v 0.00180090 0.02381129 -0.00506875
v 0.00181284 0.02393495 -0.00506577
v 0.00216310 0.02393495 -0.00506478
v 0.00243796 0.02393310 -0.00506280
v 0.00356248 0.02381129 -0.00506081
v 0.00419275 0.02380576 -0.00504890
v 0.00381253 0.02381129 -0.00505684
v 0.00406234 0.02381129 -0.00505188
v 0.00180090 0.02464735 0.00477304
v 0.00356248 0.02442956 0.00479785
v 0.00259694 0.02461966 0.00474525
v 0.00243796 0.02462520 0.00475220
v 0.00206266 0.02463812 0.00476510
v 0.00193763 0.02464365 0.00476808
v 0.00419275 0.02438712 0.00475915
v 0.00406234 0.02439450 0.00476907
v 0.00180090 0.02393495 -0.00506577
v 0.00180090 0.02394602 -0.00506478
v 0.00181284 0.02405860 -0.00505287
v 0.00206266 0.02405860 -0.00505089
v 0.00268754 0.02393310 -0.00506081
v 0.00419275 0.02381129 -0.00504791
v 0.00256252 0.02405676 -0.00504493
v 0.00356248 0.02393495 -0.00504295
v 0.00180090 0.02470640 0.00471548
v 0.00356248 0.02449047 0.00474327
v 0.00281257 0.02460305 0.00473235
v 0.00268754 0.02466580 0.00467877
v 0.00216310 0.02475070 0.00463015
v 0.00216310 0.02469902 0.00469266
v 0.00206266 0.02470271 0.00469762
v 0.00180090 0.02471194 0.00470953
v 0.00419275 0.02442403 0.00471846
v 0.00393732 0.02446463 0.00471350
v 0.00180090 0.02405860 -0.00505287
v 0.00180090 0.02407152 -0.00505089
v 0.00216310 0.02405860 -0.00504990
v 0.00216310 0.02408444 -0.00504493
v 0.00381253 0.02393495 -0.00503501
v 0.00406234 0.02393495 -0.00502509
v 0.00419275 0.02392941 -0.00501913
v 0.00181284 0.02418595 -0.00502807
v 0.00193763 0.02418595 -0.00502608
v 0.00216310 0.02418595 -0.00502211
v 0.00256252 0.02417303 -0.00501616
v 0.00268754 0.02405676 -0.00504196
v 0.00381253 0.02452738 0.00466091
v 0.00289264 0.02463258 0.00468572
v 0.00318741 0.02463073 0.00463808
v 0.00268754 0.02472670 0.00459641
v 0.00256252 0.02473409 0.00460732
v 0.00243796 0.02473962 0.00461427
v 0.00230381 0.02477838 0.00457160
v 0.00193763 0.02475992 0.00464106
v 0.00181284 0.02476546 0.00464602
v 0.00180090 0.02476546 0.00464701
v 0.00419275 0.02445540 0.00468175
v 0.00416278 0.02450339 0.00463114
v 0.00180090 0.02418595 -0.00502807
v 0.00368750 0.02403276 -0.00501318
v 0.00289241 0.02409367 -0.00502608
v 0.00381253 0.02402353 -0.00501020
v 0.00417870 0.02394417 -0.00501616
v 0.00419275 0.02394048 -0.00501616
v 0.00180090 0.02426715 -0.00500623
v 0.00193763 0.02426162 -0.00500524
v 0.00216310 0.02425423 -0.00500226
v 0.00243796 0.02418041 -0.00501715
v 0.00243796 0.02424500 -0.00499730
v 0.00268754 0.02416565 -0.00501417
v 0.00356154 0.02460674 0.00460137
v 0.00289241 0.02471563 0.00457458
v 0.00268754 0.02476731 0.00453389
v 0.00256252 0.02477469 0.00454381
v 0.00180090 0.02481529 0.00457061
v 0.00180090 0.02486697 0.00448626
v 0.00419275 0.02453107 0.00458251
v 0.00256252 0.02423578 -0.00499532
v 0.00281257 0.02422101 -0.00498837
v 0.00413117 0.02399954 -0.00500028
v 0.00356248 0.02410290 -0.00499234
v 0.00419275 0.02399401 -0.00499830
v 0.00180090 0.02427269 -0.00500425
v 0.00216310 0.02426715 -0.00499730
v 0.00206266 0.02432068 -0.00497746
v 0.00216310 0.02431698 -0.00497547
v 0.00243796 0.02430776 -0.00496853
v 0.00268754 0.02430776 -0.00495662
v 0.00289241 0.02475439 0.00451305
v 0.00268754 0.02481898 0.00443664
v 0.00256252 0.02483190 0.00443664
v 0.00216310 0.02485405 0.00445947
v 0.00206266 0.02485774 0.00446741
v 0.00216310 0.02487804 0.00440886
v 0.00193763 0.02489096 0.00441382
v 0.00180090 0.02489281 0.00442970
v 0.00419275 0.02453476 0.00457656
v 0.00356248 0.02418595 -0.00495563
v 0.00406234 0.02406783 -0.00497547
v 0.00417870 0.02404937 -0.00497547
v 0.00419275 0.02405122 -0.00497349
v 0.00181284 0.02432806 -0.00498143
v 0.00180090 0.02432806 -0.00498143
v 0.00181284 0.02443695 -0.00492883
v 0.00206266 0.02443695 -0.00491990
v 0.00216310 0.02443695 -0.00491593
v 0.00356248 0.02428930 -0.00490105
v 0.00368750 0.02418595 -0.00494669
v 0.00256252 0.02442034 -0.00490403
v 0.00388557 0.02462335 0.00450214
v 0.00406234 0.02461228 0.00447634
v 0.00293759 0.02475070 0.00450809
v 0.00293759 0.02478576 0.00443664
v 0.00268754 0.02485959 0.00433840
v 0.00256252 0.02486512 0.00436024
v 0.00239957 0.02487435 0.00437710
v 0.00181284 0.02493526 0.00431161
v 0.00180090 0.02493156 0.00432352
v 0.00419275 0.02456798 0.00451801
v 0.00393732 0.02418595 -0.00492784
v 0.00406234 0.02418595 -0.00491792
v 0.00419275 0.02418595 -0.00490700
v 0.00180090 0.02443695 -0.00492883
v 0.00181284 0.02451262 -0.00488517
v 0.00216310 0.02449970 -0.00487723
v 0.00243796 0.02448862 -0.00486929
v 0.00413867 0.02425054 -0.00487624
v 0.00256252 0.02448309 -0.00486532
v 0.00419275 0.02460305 0.00445550
v 0.00406234 0.02463996 0.00441382
v 0.00331220 0.02475254 0.00439199
v 0.00356154 0.02473778 0.00434337
v 0.00281116 0.02485405 0.00430467
v 0.00276832 0.02487435 0.00425803
v 0.00256252 0.02488542 0.00429871
v 0.00216310 0.02491126 0.00431161
v 0.00180090 0.02496848 0.00418658
v 0.00180090 0.02493526 0.00431161
v 0.00418315 0.02419518 -0.00490303
v 0.00419275 0.02419333 -0.00490303
v 0.00180090 0.02451262 -0.00488517
v 0.00180090 0.02457537 -0.00483754
v 0.00206266 0.02456614 -0.00482960
v 0.00216310 0.02456245 -0.00482662
v 0.00256393 0.02456983 -0.00479289
v 0.00419275 0.02424685 -0.00487326
v 0.00368750 0.02434467 -0.00485441
v 0.00289241 0.02453661 -0.00478495
v 0.00268754 0.02447386 -0.00485937
v 0.00419275 0.02463073 0.00439100
v 0.00418736 0.02463073 0.00439397
v 0.00356154 0.02475808 0.00428085
v 0.00419275 0.02465842 0.00431260
v 0.00289264 0.02487435 0.00416773
v 0.00268754 0.02489834 0.00418658
v 0.00256252 0.02491311 0.00418658
v 0.00373128 0.02474516 0.00423520
v 0.00356154 0.02477838 0.00418658
v 0.00181284 0.02498324 0.00406155
v 0.00180090 0.02498324 0.00406155
v 0.00180090 0.02464919 -0.00477502
v 0.00181284 0.02464919 -0.00477502
v 0.00216310 0.02463627 -0.00476411
v 0.00252319 0.02462335 -0.00475022
v 0.00260630 0.02461966 -0.00474625
v 0.00381253 0.02433544 -0.00484746
v 0.00419275 0.02428561 -0.00484250
v 0.00381253 0.02441295 -0.00478495
v 0.00419275 0.02468979 0.00418162
v 0.00418736 0.02468979 0.00418658
v 0.00290552 0.02487620 0.00414788
v 0.00268754 0.02491311 0.00406155
v 0.00256252 0.02492603 0.00406155
v 0.00216310 0.02495740 0.00406155
v 0.00378513 0.02475254 0.00415185
v 0.00180090 0.02498878 0.00393652
v 0.00180090 0.02471563 -0.00470259
v 0.00193763 0.02470825 -0.00470259
v 0.00216310 0.02470087 -0.00469365
v 0.00243796 0.02474147 -0.00461625
v 0.00256252 0.02473593 -0.00460931
v 0.00268754 0.02466580 -0.00467778
v 0.00268754 0.02461412 -0.00474129
v 0.00419275 0.02438342 -0.00476312
v 0.00419275 0.02470456 0.00406155
v 0.00386848 0.02474701 0.00411017
v 0.00289264 0.02488727 0.00406056
v 0.00356154 0.02479499 0.00406155
v 0.00268754 0.02491680 0.00393652
v 0.00256252 0.02493156 0.00393652
v 0.00289264 0.02489096 0.00398216
v 0.00216310 0.02496110 0.00396132
v 0.00180090 0.02498878 -0.00393652
v 0.00180090 0.02476546 -0.00464503
v 0.00206266 0.02475623 -0.00463511
v 0.00216310 0.02475254 -0.00463114
v 0.00180090 0.02486697 -0.00448527
v 0.00256252 0.02477284 -0.00454580
v 0.00268754 0.02473040 -0.00459740
v 0.00281257 0.02465842 -0.00466785
v 0.00289241 0.02461966 -0.00470259
v 0.00381253 0.02447386 -0.00472342
v 0.00356248 0.02449047 -0.00474327
v 0.00419275 0.02450154 -0.00462816
v 0.00419275 0.02470825 0.00393652
v 0.00388698 0.02475070 0.00402682
v 0.00268754 0.02491680 -0.00393652
v 0.00256252 0.02493156 -0.00393652
v 0.00289264 0.02489096 -0.00393552
v 0.00356248 0.02479868 0.00393652
v 0.00216310 0.02495740 -0.00406155
v 0.00181284 0.02498324 -0.00406155
v 0.00180090 0.02498324 -0.00406155
v 0.00180090 0.02482268 -0.00455572
v 0.00181284 0.02489465 -0.00442275
v 0.00193763 0.02489096 -0.00441283
v 0.00216310 0.02485959 -0.00444558
v 0.00193763 0.02486143 -0.00447534
v 0.00180090 0.02489834 -0.00441184
v 0.00268754 0.02476546 -0.00453488
v 0.00256252 0.02483190 -0.00443565
v 0.00289241 0.02475254 -0.00450908
v 0.00396096 0.02461781 -0.00448924
v 0.00356248 0.02460859 -0.00460038
v 0.00336605 0.02461966 -0.00462122
v 0.00416231 0.02450339 -0.00463114
v 0.00356248 0.02454584 -0.00468075
v 0.00419275 0.02453476 -0.00457358
v 0.00419275 0.02470825 -0.00394247
v 0.00268754 0.02491311 -0.00406155
v 0.00256252 0.02492603 -0.00406155
v 0.00289264 0.02488727 -0.00405857
v 0.00289241 0.02489096 -0.00393652
v 0.00356248 0.02479868 -0.00393652
v 0.00256252 0.02491311 -0.00418658
v 0.00181284 0.02496663 -0.00418658
v 0.00180090 0.02496848 -0.00417567
v 0.00180090 0.02493526 -0.00431161
v 0.00216310 0.02488912 -0.00437810
v 0.00239957 0.02487435 -0.00437611
v 0.00268754 0.02481714 -0.00443565
v 0.00256252 0.02486512 -0.00436024
v 0.00418736 0.02460305 -0.00445649
v 0.00419275 0.02460305 -0.00445451
v 0.00419275 0.02470456 -0.00406750
v 0.00388698 0.02475070 -0.00402682
v 0.00268754 0.02489834 -0.00418658
v 0.00290552 0.02487620 -0.00414590
v 0.00356154 0.02479499 -0.00406155
v 0.00216310 0.02491680 -0.00428780
v 0.00276598 0.02487435 -0.00425604
v 0.00268754 0.02487804 -0.00427490
v 0.00256252 0.02488542 -0.00429772
v 0.00180090 0.02496663 -0.00418658
v 0.00268754 0.02485959 -0.00433741
v 0.00318741 0.02476177 -0.00440688
v 0.00418736 0.02463073 -0.00439398
v 0.00419275 0.02462889 -0.00439497
v 0.00419275 0.02468795 -0.00419253
v 0.00418736 0.02468979 -0.00418658
v 0.00386848 0.02474701 -0.00411017
v 0.00356248 0.02477838 -0.00418658
v 0.00378513 0.02475254 -0.00415185
v 0.00373128 0.02474516 -0.00423520
v 0.00356248 0.02475808 -0.00427986
v 0.00356248 0.02473778 -0.00434237
v 0.00338969 0.02474701 -0.00437711
v 0.00419275 0.02465842 -0.00431261
v 0.00382095 0.02474147 -0.00419055
v 0.00368891 0.02473224 -0.00430566
f 1 2 6
f 1 6 18
f 1 18 34
f 1 34 52
f 1 52 51
f 1 51 35
f 1 35 19
f 1 19 9
f 1 9 3
f 1 3 4
f 1 4 5
f 1 5 2
f 2 5 11
f 2 11 23
f 2 23 37
f 2 37 53
f 2 53 73
f 2 73 95
f 2 95 116
f 2 116 135
f 2 135 151
f 2 151 167
f 2 167 174
f 2 174 198
f 2 198 217
f 2 217 218
f 2 218 238
f 2 238 260
f 2 260 280
f 2 280 279
f 2 279 302
f 2 302 318
f 2 318 335
f 2 335 355
f 2 355 379
f 2 379 396
f 2 396 380
f 2 380 361
f 2 361 339
f 2 339 356
f 2 356 336
f 2 336 319
f 2 319 303
f 2 303 284
f 2 284 283
f 2 283 265
f 2 265 245
f 2 245 225
f 2 225 207
f 2 207 201
f 2 201 178
f 2 178 177
f 2 177 160
f 2 160 159
f 2 159 143
f 2 143 134
f 2 134 131
f 2 131 113
f 2 113 112
f 2 112 111
f 2 111 110
f 2 110 109
f 2 109 108
f 2 108 107
f 2 107 106
f 2 106 105
f 2 105 102
f 2 102 83
f 2 83 82
f 2 82 71
f 2 71 70
f 2 70 69
f 2 69 68
f 2 68 66
f 2 66 44
f 2 44 29
f 2 29 13
f 2 13 6
f 3 7 8
f 3 8 4
f 3 9 10
f 3 10 7
f 4 11 5
f 4 8 12
f 4 12 11
f 6 13 14
f 6 14 15
f 6 15 16
f 6 16 17
f 6 17 18
f 7 12 8
f 7 10 12
f 9 19 20
f 9 20 21
f 9 21 10
f 10 21 12
f 11 22 23
f 11 12 22
f 12 24 25
f 12 25 26
f 12 26 27
f 12 27 22
f 12 21 28
f 12 28 24
f 13 29 30
f 13 30 31
f 13 31 32
f 13 32 14
f 14 32 15
f 15 32 16
f 16 32 17
f 17 32 50
f 17 50 33
f 17 33 34
f 17 34 18
f 19 35 49
f 19 49 72
f 19 72 84
f 19 84 104
f 19 104 130
f 19 130 148
f 19 148 164
f 19 164 183
f 19 183 206
f 19 206 224
f 19 224 243
f 19 243 264
f 19 264 282
f 19 282 288
f 19 288 309
f 19 309 326
f 19 326 346
f 19 346 370
f 19 370 386
f 19 386 400
f 19 400 410
f 19 410 401
f 19 401 387
f 19 387 371
f 19 371 347
f 19 347 327
f 19 327 311
f 19 311 295
f 19 295 292
f 19 292 271
f 19 271 261
f 19 261 239
f 19 239 219
f 19 219 199
f 19 199 175
f 19 175 157
f 19 157 142
f 19 142 126
f 19 126 101
f 19 101 80
f 19 80 65
f 19 65 64
f 19 64 42
f 19 42 28
f 19 28 20
f 20 28 21
f 22 27 36
f 22 36 37
f 22 37 23
f 24 38 39
f 24 39 25
f 24 28 38
f 25 39 26
f 26 39 40
f 26 40 41
f 26 41 36
f 26 36 27
f 28 42 43
f 28 43 38
f 29 44 45
f 29 45 46
f 29 46 47
f 29 47 48
f 29 48 30
f 30 48 49
f 30 49 31
f 31 49 50
f 31 50 32
f 33 50 35
f 33 35 51
f 33 51 52
f 33 52 34
f 35 50 49
f 36 41 53
f 36 53 37
f 38 43 54
f 38 54 39
f 39 54 40
f 40 54 55
f 40 55 56
f 40 56 57
f 40 57 58
f 40 58 59
f 40 59 60
f 40 60 61
f 40 61 41
f 41 61 60
f 41 60 62
f 41 62 63
f 41 63 53
f 42 64 43
f 43 64 65
f 43 65 56
f 43 56 55
f 43 55 54
f 44 66 45
f 45 67 49
f 45 49 46
f 45 66 68
f 45 68 69
f 45 69 70
f 45 70 71
f 45 71 67
f 46 49 47
f 47 49 48
f 49 67 81
f 49 81 72
f 53 63 73
f 56 65 74
f 56 74 75
f 56 75 57
f 57 75 58
f 58 75 59
f 59 62 60
f 59 75 74
f 59 74 76
f 59 76 77
f 59 77 78
f 59 78 79
f 59 79 62
f 62 79 73
f 62 73 63
f 65 80 74
f 67 71 82
f 67 82 83
f 67 83 102
f 67 102 81
f 72 81 85
f 72 85 86
f 72 86 87
f 72 87 88
f 72 88 89
f 72 89 90
f 72 90 91
f 72 91 92
f 72 92 93
f 72 93 115
f 72 115 134
f 72 134 143
f 72 143 127
f 72 127 103
f 72 103 84
f 73 79 94
f 73 94 95
f 74 80 96
f 74 96 76
f 76 96 97
f 76 97 77
f 77 98 99
f 77 99 100
f 77 100 94
f 77 94 78
f 77 97 98
f 78 94 79
f 80 101 96
f 81 102 85
f 84 103 104
f 85 102 105
f 85 105 106
f 85 106 86
f 86 106 107
f 86 107 108
f 86 108 109
f 86 109 110
f 86 110 87
f 87 110 111
f 87 111 88
f 88 111 89
f 89 111 112
f 89 112 113
f 89 113 90
f 90 113 91
f 91 114 92
f 91 113 114
f 92 114 93
f 93 114 115
f 94 100 116
f 94 116 95
f 96 101 97
f 97 101 117
f 97 117 118
f 97 118 98
f 98 118 99
f 99 118 119
f 99 119 120
f 99 120 121
f 99 121 122
f 99 122 123
f 99 123 124
f 99 124 125
f 99 125 100
f 100 125 116
f 101 126 120
f 101 120 117
f 103 127 128
f 103 128 104
f 104 128 129
f 104 129 130
f 113 131 114
f 114 131 132
f 114 132 133
f 114 133 115
f 115 133 134
f 116 125 135
f 117 120 119
f 117 119 118
f 120 126 136
f 120 136 121
f 121 136 122
f 122 137 123
f 122 136 137
f 123 137 138
f 123 138 139
f 123 139 140
f 123 140 124
f 124 140 125
f 125 140 141
f 125 141 135
f 126 142 136
f 127 143 159
f 127 159 144
f 127 144 145
f 127 145 128
f 128 145 146
f 128 146 147
f 128 147 129
f 129 148 130
f 129 147 149
f 129 149 150
f 129 150 148
f 131 134 132
f 132 134 133
f 135 141 151
f 136 142 152
f 136 152 137
f 137 152 138
f 138 152 139
f 139 153 140
f 139 152 153
f 140 153 154
f 140 154 155
f 140 155 141
f 141 155 156
f 141 156 151
f 142 157 158
f 142 158 152
f 144 159 160
f 144 160 145
f 145 160 161
f 145 161 162
f 145 162 163
f 145 163 146
f 146 163 147
f 147 163 149
f 148 150 164
f 149 163 165
f 149 165 150
f 150 165 166
f 150 166 164
f 151 156 167
f 152 158 153
f 153 158 168
f 153 168 169
f 153 169 170
f 153 170 171
f 153 171 172
f 153 172 173
f 153 173 174
f 153 174 154
f 154 174 167
f 154 167 155
f 155 167 156
f 157 175 176
f 157 176 168
f 157 168 158
f 160 177 161
f 161 178 162
f 161 177 178
f 162 179 163
f 162 178 180
f 162 180 179
f 163 179 165
f 164 166 181
f 164 181 182
f 164 182 183
f 165 179 180
f 165 180 184
f 165 184 185
f 165 185 186
f 165 186 187
f 165 187 188
f 165 188 166
f 166 188 181
f 168 176 189
f 168 189 190
f 168 190 169
f 169 190 170
f 170 190 191
f 170 191 192
f 170 192 193
f 170 193 194
f 170 194 171
f 171 194 195
f 171 195 196
f 171 196 172
f 172 196 173
f 173 196 197
f 173 197 174
f 174 197 198
f 175 199 200
f 175 200 176
f 176 200 189
f 178 201 184
f 178 184 180
f 181 202 182
f 181 188 203
f 181 203 202
f 182 202 204
f 182 204 205
f 182 205 183
f 183 205 206
f 184 201 207
f 184 207 185
f 185 207 186
f 186 207 208
f 186 208 209
f 186 209 210
f 186 210 187
f 187 210 209
f 187 209 211
f 187 211 212
f 187 212 188
f 188 212 203
f 189 200 191
f 189 191 190
f 191 200 213
f 191 213 214
f 191 214 192
f 192 214 215
f 192 215 193
f 193 215 216
f 193 216 195
f 193 195 194
f 195 217 196
f 195 216 218
f 195 218 217
f 196 217 197
f 197 217 198
f 199 219 200
f 200 219 213
f 202 203 212
f 202 212 220
f 202 220 221
f 202 221 204
f 204 222 205
f 204 221 223
f 204 223 222
f 205 222 224
f 205 224 206
f 207 225 208
f 208 225 226
f 208 226 209
f 209 226 211
f 211 226 227
f 211 227 228
f 211 228 229
f 211 229 230
f 211 230 220
f 211 220 212
f 213 219 231
f 213 231 214
f 214 231 215
f 215 231 232
f 215 232 233
f 215 233 216
f 216 233 234
f 216 234 235
f 216 235 218
f 218 235 236
f 218 236 237
f 218 237 238
f 219 239 231
f 220 230 221
f 221 230 240
f 221 240 223
f 222 223 241
f 222 241 242
f 222 242 224
f 223 240 241
f 224 242 243
f 225 244 226
f 225 245 244
f 226 244 227
f 227 244 246
f 227 246 247
f 227 247 228
f 228 247 248
f 228 248 229
f 229 248 230
f 230 249 250
f 230 250 240
f 230 248 251
f 230 251 249
f 231 239 252
f 231 252 253
f 231 253 254
f 231 254 255
f 231 255 232
f 232 256 257
f 232 257 233
f 232 255 256
f 233 257 258
f 233 258 234
f 234 258 236
f 234 236 235
f 236 258 237
f 237 259 238
f 237 258 259
f 238 259 260
f 239 261 253
f 239 253 252
f 240 250 241
f 241 250 262
f 241 262 242
f 242 262 243
f 243 262 263
f 243 263 264
f 244 245 265
f 244 265 246
f 246 265 283
f 246 283 266
f 246 266 247
f 247 266 248
f 248 266 267
f 248 267 268
f 248 268 251
f 249 269 263
f 249 263 262
f 249 262 250
f 249 251 270
f 249 270 269
f 251 268 270
f 253 261 271
f 253 271 272
f 253 272 255
f 253 255 254
f 255 273 256
f 255 272 273
f 256 273 274
f 256 274 275
f 256 275 276
f 256 276 277
f 256 277 257
f 257 277 258
f 258 277 278
f 258 278 259
f 259 279 280
f 259 280 260
f 259 278 279
f 263 269 281
f 263 281 264
f 264 281 282
f 266 284 267
f 266 283 284
f 267 284 285
f 267 285 286
f 267 286 268
f 268 286 287
f 268 287 270
f 269 288 281
f 269 270 289
f 269 289 288
f 270 287 290
f 270 290 291
f 270 291 289
f 271 292 293
f 271 293 272
f 272 293 273
f 273 293 274
f 274 294 275
f 274 293 295
f 274 295 294
f 275 294 276
f 276 296 297
f 276 297 298
f 276 298 277
f 276 294 299
f 276 299 300
f 276 300 296
f 277 298 279
f 277 279 278
f 279 301 302
f 279 298 301
f 281 288 282
f 284 303 304
f 284 304 285
f 285 304 286
f 286 304 305
f 286 305 287
f 287 305 306
f 287 306 307
f 287 307 290
f 288 289 308
f 288 308 309
f 289 291 310
f 289 310 308
f 290 310 291
f 290 307 310
f 292 295 293
f 294 295 299
f 295 311 312
f 295 312 299
f 296 313 297
f 296 300 313
f 297 314 298
f 297 313 314
f 298 314 315
f 298 315 316
f 298 316 301
f 299 312 300
f 300 312 317
f 300 317 313
f 301 318 302
f 301 316 318
f 303 319 304
f 304 319 320
f 304 320 305
f 305 320 321
f 305 321 306
f 306 321 307
f 307 321 322
f 307 322 323
f 307 323 324
f 307 324 325
f 307 325 310
f 308 310 309
f 309 310 326
f 310 325 326
f 311 327 328
f 311 328 317
f 311 317 312
f 313 329 314
f 313 317 328
f 313 328 330
f 313 330 329
f 314 331 332
f 314 332 315
f 314 329 333
f 314 333 331
f 315 332 316
f 316 332 334
f 316 334 318
f 318 334 332
f 318 332 350
f 318 350 335
f 319 336 320
f 320 336 321
f 321 336 337
f 321 337 338
f 321 338 322
f 322 338 339
f 322 339 323
f 323 339 340
f 323 340 341
f 323 341 324
f 324 342 325
f 324 341 342
f 325 342 343
f 325 343 344
f 325 344 345
f 325 345 326
f 326 345 344
f 326 344 346
f 327 347 348
f 327 348 330
f 327 330 328
f 329 330 333
f 330 348 333
f 331 333 351
f 331 351 349
f 331 349 350
f 331 350 332
f 333 348 352
f 333 352 376
f 333 376 351
f 335 350 353
f 335 353 354
f 335 354 355
f 336 356 337
f 337 356 338
f 338 356 339
f 339 357 358
f 339 358 359
f 339 359 360
f 339 360 340
f 339 361 357
f 340 362 341
f 340 360 359
f 340 359 363
f 340 363 362
f 341 362 364
f 341 364 365
f 341 365 366
f 341 366 346
f 341 346 367
f 341 367 342
f 342 367 368
f 342 368 369
f 342 369 343
f 343 369 344
f 344 369 368
f 344 368 346
f 346 368 367
f 346 366 370
f 347 371 376
f 347 376 352
f 347 352 348
f 349 372 350
f 349 351 372
f 350 372 373
f 350 373 353
f 351 374 375
f 351 375 372
f 351 376 374
f 353 373 377
f 353 377 354
f 354 378 379
f 354 379 355
f 354 377 378
f 357 361 380
f 357 380 358
f 358 381 382
f 358 382 359
f 358 380 381
f 359 382 363
f 362 363 383
f 362 383 364
f 363 382 384
f 363 384 383
f 364 383 365
f 365 385 370
f 365 370 366
f 365 383 385
f 370 385 386
f 371 387 388
f 371 388 376
f 372 389 377
f 372 377 373
f 372 375 374
f 372 374 390
f 372 390 389
f 374 376 391
f 374 391 390
f 376 388 391
f 377 392 378
f 377 389 393
f 377 393 394
f 377 394 395
f 377 395 392
f 378 380 396
f 378 396 379
f 378 392 380
f 380 392 382
f 380 382 381
f 382 392 395
f 382 395 384
f 383 384 397
f 383 397 398
f 383 398 385
f 384 395 397
f 385 399 386
f 385 398 399
f 386 399 400
f 387 401 402
f 387 402 403
f 387 403 391
f 387 391 388
f 389 390 404
f 389 404 393
f 390 391 403
f 390 403 405
f 390 405 404
f 393 397 394
f 393 404 406
f 393 406 407
f 393 407 397
f 394 397 395
f 397 407 408
f 397 408 409
f 397 409 398
f 398 409 399
f 399 410 400
f 399 409 408
f 399 408 410
f 401 410 406
f 401 406 411
f 401 411 402
f 402 411 405
f 402 405 403
f 404 405 411
f 404 411 406
f 406 410 407
f 407 410 412
f 407 412 408
f 408 412 410

