# https://github.com/mikedh/trimesh
v 0.00482403 -0.00564698 -0.00217232
v 0.00482403 -0.00564698 -0.00393719
v 0.00422868 -0.00610776 -0.00217232
v 0.00482403 -0.02448131 -0.00217232
v 0.00482403 -0.00569921 -0.00405286
v 0.00473364 -0.00573652 -0.00401657
v 0.00423474 -0.00611522 -0.00401430
v 0.00422868 -0.00611149 -0.00395335
v 0.00422868 -0.00610963 -0.00393946
v 0.00422868 -0.00610776 -0.00381443
v 0.00422868 -0.02470518 -0.00217232
v 0.00482362 -0.02458765 -0.00217232
v 0.00482403 -0.02458765 -0.00217629
v 0.00482403 -0.00570108 -0.00405570
v 0.00422868 -0.00612455 -0.00402111
v 0.00422868 -0.02470518 -0.00381244
v 0.00431260 -0.02469212 -0.00217232
v 0.00443754 -0.02466973 -0.00217232
v 0.00482403 -0.02458765 -0.00393719
v 0.00482403 -0.00581114 -0.00415408
v 0.00478370 -0.00577943 -0.00409992
v 0.00422868 -0.00623462 -0.00413196
v 0.00422868 -0.00617679 -0.00407639
v 0.00422868 -0.02470331 -0.00393719
v 0.00431260 -0.02469212 -0.00393719
v 0.00443754 -0.02466973 -0.00393719
v 0.00482403 -0.02458205 -0.00406222
v 0.00463306 -0.02462496 -0.00401771
v 0.00482403 -0.00682785 -0.00495982
v 0.00424809 -0.00725133 -0.00500064
v 0.00422868 -0.00722894 -0.00497229
v 0.00422868 -0.00718977 -0.00493941
v 0.00422868 -0.02469958 -0.00402111
v 0.00431260 -0.02468652 -0.00406222
v 0.00456843 -0.02463615 -0.00406052
v 0.00482403 -0.02456713 -0.00417562
v 0.00443754 -0.02464734 -0.00418725
v 0.00482403 -0.00692113 -0.00502474
v 0.00477467 -0.00689501 -0.00498533
v 0.00422868 -0.00727558 -0.00500943
v 0.00422868 -0.02469771 -0.00406222
v 0.00422868 -0.02468839 -0.00414614
v 0.00431260 -0.02466973 -0.00418725
v 0.00482403 -0.02456526 -0.00418725
v 0.00450071 -0.02462496 -0.00425019
v 0.00482403 -0.00693792 -0.00503126
v 0.00481482 -0.00693792 -0.00502900
v 0.00422868 -0.00731476 -0.00502985
v 0.00431260 -0.00723081 -0.00501454
v 0.00471470 -0.00697710 -0.00501624
v 0.00422868 -0.02468279 -0.00418725
v 0.00443754 -0.02463055 -0.00427117
v 0.00482403 -0.02453541 -0.00431228
v 0.00434727 -0.02461936 -0.00436104
v 0.00482403 -0.00706478 -0.00506415
v 0.00481243 -0.00706478 -0.00506358
v 0.00456249 -0.00718977 -0.00505820
v 0.00431260 -0.00731289 -0.00504912
v 0.00422868 -0.00743975 -0.00506443
v 0.00422868 -0.02465294 -0.00431369
v 0.00430835 -0.02463988 -0.00431653
v 0.00482403 -0.02450743 -0.00439279
v 0.00426394 -0.02462682 -0.00437975
v 0.00430835 -0.02459884 -0.00442455
v 0.00444798 -0.02457086 -0.00442455
v 0.00472077 -0.02451489 -0.00442455
v 0.00482403 -0.00718977 -0.00506869
v 0.00481243 -0.00718977 -0.00506869
v 0.00468743 -0.00718977 -0.00506840
v 0.00443754 -0.00731289 -0.00506557
v 0.00431260 -0.00743975 -0.00506869
v 0.00422868 -0.00756474 -0.00506869
v 0.00422868 -0.02462869 -0.00438571
v 0.00482403 -0.02448318 -0.00444524
v 0.00422868 -0.02461190 -0.00442455
v 0.00422868 -0.02460070 -0.00444581
v 0.00431260 -0.02452982 -0.00455128
v 0.00443754 -0.02451862 -0.00453285
v 0.00462595 -0.02449997 -0.00450024
v 0.00443754 -0.02456713 -0.00443730
v 0.00482403 -0.02331163 -0.00506869
v 0.00456249 -0.00731289 -0.00506869
v 0.00422868 -0.02343475 -0.00506869
v 0.00470934 -0.02449064 -0.00448182
v 0.00481243 -0.02447945 -0.00445800
v 0.00482403 -0.02447758 -0.00445517
v 0.00422868 -0.02453355 -0.00456715
v 0.00424051 -0.02449810 -0.00462300
v 0.00431260 -0.02449064 -0.00461393
v 0.00443754 -0.02447945 -0.00459522
v 0.00482403 -0.02440669 -0.00457878
v 0.00482403 -0.02343475 -0.00506812
v 0.00481243 -0.02343475 -0.00506840
v 0.00468743 -0.02343475 -0.00506869
v 0.00422868 -0.02355974 -0.00506812
v 0.00422868 -0.02450556 -0.00461053
v 0.00422868 -0.02448691 -0.00463690
v 0.00422868 -0.02438244 -0.00475796
v 0.00427781 -0.02437871 -0.00475455
v 0.00436114 -0.02437125 -0.00474718
v 0.00443754 -0.02441602 -0.00467659
v 0.00456249 -0.02440296 -0.00466185
v 0.00478056 -0.02438057 -0.00463321
v 0.00482403 -0.02433580 -0.00467262
v 0.00482403 -0.02355974 -0.00506217
v 0.00431260 -0.02355974 -0.00506784
v 0.00422868 -0.02368660 -0.00506188
v 0.00422868 -0.02430782 -0.00482005
v 0.00431668 -0.02432274 -0.00479595
v 0.00443754 -0.02430036 -0.00479453
v 0.00468743 -0.02427424 -0.00477298
v 0.00481243 -0.02426118 -0.00476136
v 0.00456249 -0.02434886 -0.00472422
v 0.00482403 -0.02425931 -0.00476023
v 0.00482403 -0.02368660 -0.00504686
v 0.00468743 -0.02368660 -0.00505139
v 0.00456249 -0.02368660 -0.00505536
v 0.00431260 -0.02368660 -0.00506046
v 0.00422868 -0.02381159 -0.00504714
v 0.00422868 -0.02424439 -0.00487193
v 0.00431260 -0.02423506 -0.00486654
v 0.00456249 -0.02421081 -0.00484670
v 0.00468743 -0.02419775 -0.00483564
v 0.00482403 -0.02415671 -0.00484528
v 0.00468743 -0.02381159 -0.00502701
v 0.00456249 -0.02381159 -0.00503382
v 0.00443754 -0.02381159 -0.00503949
v 0.00431260 -0.02381159 -0.00504459
v 0.00482403 -0.02381905 -0.00501624
v 0.00422868 -0.02394031 -0.00501709
v 0.00422868 -0.02418843 -0.00490538
v 0.00431260 -0.02417350 -0.00490595
v 0.00456249 -0.02414925 -0.00489121
v 0.00476686 -0.02412686 -0.00487732
v 0.00482403 -0.02408582 -0.00489319
v 0.00443754 -0.02391419 -0.00501369
v 0.00431260 -0.02392725 -0.00501737
v 0.00482403 -0.02383024 -0.00501227
v 0.00477415 -0.02387688 -0.00500149
v 0.00468743 -0.02388621 -0.00500490
v 0.00422868 -0.02398322 -0.00500461
v 0.00422868 -0.02405224 -0.00497513
v 0.00431260 -0.02405970 -0.00496549
v 0.00443754 -0.02405970 -0.00495358
v 0.00456249 -0.02405970 -0.00494026
v 0.00482403 -0.02407463 -0.00490056
v 0.00468743 -0.02405970 -0.00492523
v 0.00431260 -0.02399068 -0.00499696
v 0.00482403 -0.02391419 -0.00498222
v 0.00443754 -0.02397762 -0.00499214
v 0.00424284 -0.02399627 -0.00499951
v 0.00422868 -0.02401307 -0.00499327
v 0.00481447 -0.02392725 -0.00497768
v 0.00482403 -0.02406717 -0.00490453
v 0.00482403 -0.02392725 -0.00497626
f 1 2 10
f 1 10 3
f 1 3 11
f 1 11 17
f 1 17 18
f 1 18 12
f 1 12 4
f 1 4 13
f 1 13 19
f 1 19 27
f 1 27 36
f 1 36 44
f 1 44 53
f 1 53 62
f 1 62 74
f 1 74 86
f 1 86 91
f 1 91 104
f 1 104 114
f 1 114 124
f 1 124 135
f 1 135 146
f 1 146 154
f 1 154 155
f 1 155 149
f 1 149 138
f 1 138 129
f 1 129 115
f 1 115 105
f 1 105 92
f 1 92 81
f 1 81 67
f 1 67 55
f 1 55 46
f 1 46 38
f 1 38 29
f 1 29 20
f 1 20 14
f 1 14 5
f 1 5 2
f 2 5 6
f 2 6 7
f 2 7 8
f 2 8 9
f 2 9 10
f 3 10 9
f 3 9 8
f 3 8 15
f 3 15 23
f 3 23 22
f 3 22 32
f 3 32 31
f 3 31 40
f 3 40 48
f 3 48 59
f 3 59 72
f 3 72 83
f 3 83 95
f 3 95 107
f 3 107 119
f 3 119 130
f 3 130 141
f 3 141 152
f 3 152 142
f 3 142 131
f 3 131 120
f 3 120 108
f 3 108 98
f 3 98 97
f 3 97 96
f 3 96 87
f 3 87 76
f 3 76 75
f 3 75 73
f 3 73 60
f 3 60 51
f 3 51 42
f 3 42 41
f 3 41 33
f 3 33 24
f 3 24 16
f 3 16 11
f 4 12 13
f 5 14 6
f 6 14 15
f 6 15 7
f 7 15 8
f 11 16 25
f 11 25 17
f 12 18 13
f 13 18 26
f 13 26 19
f 14 20 21
f 14 21 22
f 14 22 23
f 14 23 15
f 16 24 25
f 17 25 26
f 17 26 18
f 19 26 28
f 19 28 27
f 20 22 21
f 20 29 30
f 20 30 31
f 20 31 32
f 20 32 22
f 24 33 25
f 25 33 34
f 25 34 26
f 26 34 35
f 26 35 28
f 27 28 35
f 27 35 37
f 27 37 36
f 29 38 39
f 29 39 40
f 29 40 30
f 30 40 31
f 33 41 34
f 34 42 43
f 34 43 37
f 34 37 35
f 34 41 42
f 36 37 45
f 36 45 44
f 37 43 45
f 38 46 47
f 38 47 48
f 38 48 49
f 38 49 40
f 38 40 50
f 38 50 39
f 39 50 40
f 40 49 48
f 42 51 43
f 43 51 52
f 43 52 45
f 44 45 53
f 45 52 54
f 45 54 53
f 46 55 56
f 46 56 57
f 46 57 58
f 46 58 48
f 46 48 47
f 48 58 59
f 51 60 52
f 52 60 61
f 52 61 54
f 53 54 62
f 54 61 63
f 54 63 64
f 54 64 65
f 54 65 66
f 54 66 62
f 55 67 68
f 55 68 69
f 55 69 56
f 56 69 70
f 56 70 57
f 57 70 59
f 57 59 58
f 59 71 72
f 59 70 71
f 60 73 63
f 60 63 61
f 62 66 74
f 63 73 75
f 63 75 64
f 64 75 76
f 64 76 77
f 64 77 78
f 64 78 79
f 64 79 80
f 64 80 65
f 65 80 79
f 65 79 66
f 66 79 74
f 67 81 94
f 67 94 83
f 67 83 72
f 67 72 71
f 67 71 82
f 67 82 68
f 68 82 69
f 69 82 71
f 69 71 70
f 74 79 84
f 74 84 85
f 74 85 86
f 76 87 77
f 77 87 88
f 77 88 78
f 78 88 89
f 78 89 90
f 78 90 79
f 79 90 91
f 79 91 84
f 81 92 93
f 81 93 94
f 83 94 95
f 84 91 85
f 85 91 86
f 87 96 88
f 88 96 97
f 88 97 98
f 88 98 99
f 88 99 100
f 88 100 101
f 88 101 102
f 88 102 89
f 89 102 103
f 89 103 90
f 90 103 91
f 91 103 104
f 92 105 93
f 93 105 106
f 93 106 95
f 93 95 94
f 95 106 107
f 98 108 99
f 99 108 109
f 99 109 100
f 100 109 110
f 100 110 111
f 100 111 112
f 100 112 113
f 100 113 102
f 100 102 101
f 102 113 103
f 103 113 112
f 103 112 104
f 104 112 114
f 105 115 116
f 105 116 117
f 105 117 118
f 105 118 107
f 105 107 106
f 107 118 119
f 108 120 109
f 109 120 121
f 109 121 122
f 109 122 110
f 110 122 111
f 111 122 123
f 111 123 124
f 111 124 112
f 112 124 114
f 115 125 126
f 115 126 127
f 115 127 128
f 115 128 116
f 115 129 125
f 116 128 117
f 117 128 119
f 117 119 118
f 119 128 130
f 120 131 132
f 120 132 133
f 120 133 121
f 121 133 134
f 121 134 122
f 122 134 124
f 122 124 123
f 124 134 135
f 125 129 136
f 125 136 137
f 125 137 126
f 126 137 127
f 127 137 128
f 128 137 130
f 129 138 139
f 129 139 140
f 129 140 136
f 130 137 141
f 131 142 143
f 131 143 132
f 132 143 144
f 132 144 145
f 132 145 133
f 133 146 134
f 133 145 147
f 133 147 146
f 134 146 135
f 136 140 148
f 136 148 137
f 137 148 141
f 138 149 139
f 139 149 150
f 139 150 140
f 140 150 148
f 141 148 151
f 141 151 152
f 142 152 143
f 143 152 148
f 143 148 150
f 143 150 144
f 144 150 153
f 144 153 145
f 145 153 147
f 146 147 154
f 147 153 154
f 148 152 151
f 149 155 153
f 149 153 150
f 153 155 154

