# https://github.com/mikedh/trimesh
v 0.00468755 0.02343586 0.00506875
v 0.00419287 0.02343586 0.00506875
v 0.00531243 0.02331165 0.00506875
v 0.00431253 0.02356198 0.00506776
v 0.00419287 0.02356771 0.00506776
v 0.00419287 0.00756390 0.00506875
v 0.00531529 0.02331356 0.00506776
v 0.00531529 0.02343968 0.00506478
v 0.00493741 0.02343586 0.00506776
v 0.00531529 0.02318745 0.00506875
v 0.00419287 0.02369192 0.00506379
v 0.00419287 0.00743778 0.00506280
v 0.00431253 0.00743778 0.00506875
v 0.00531529 0.02356198 0.00505089
v 0.00506245 0.02356198 0.00505883
v 0.00493741 0.02356198 0.00506180
v 0.00431253 0.02368619 0.00506280
v 0.00531529 0.00681292 0.00506875
v 0.00419287 0.02381231 0.00504890
v 0.00419287 0.00738046 0.00504394
v 0.00531529 0.00656259 0.00503005
v 0.00531243 0.00668871 0.00506280
v 0.00518750 0.00681292 0.00506577
v 0.00506245 0.00693904 0.00506875
v 0.00531529 0.02368619 0.00502410
v 0.00518750 0.02368619 0.00503203
v 0.00493741 0.02368619 0.00504394
v 0.00481248 0.02368619 0.00504890
v 0.00443757 0.02368619 0.00505982
v 0.00531243 0.00681292 0.00506875
v 0.00531529 0.00668871 0.00506280
v 0.00431253 0.02381231 0.00504593
v 0.00419287 0.02381804 0.00504791
v 0.00419287 0.00731358 0.00502013
v 0.00419892 0.00731358 0.00502310
v 0.00531529 0.00655877 0.00502806
v 0.00531529 0.02376263 0.00500326
v 0.00531243 0.02376072 0.00500425
v 0.00468755 0.02381231 0.00502707
v 0.00456251 0.02381231 0.00503402
v 0.00443757 0.02381231 0.00503997
v 0.00419287 0.02393652 0.00502112
v 0.00419287 0.00721230 0.00494074
v 0.00531529 0.00528611 0.00408933
v 0.00531529 0.00531668 0.00411315
v 0.00531529 0.00543134 0.00420047
v 0.00531529 0.00644220 0.00495265
v 0.00527265 0.00652055 0.00498539
v 0.00531529 0.02382378 0.00497845
v 0.00478226 0.02388110 0.00500226
v 0.00443757 0.02391550 0.00501318
v 0.00430187 0.02394416 0.00501318
v 0.00419287 0.02400722 0.00500028
v 0.00419287 0.00632373 0.00418658
v 0.00419287 0.00631608 0.00417963
v 0.00419287 0.00618997 0.00406353
v 0.00531529 0.00525171 0.00405758
v 0.00481929 0.02392887 0.00497845
v 0.00443757 0.02397856 0.00499234
v 0.00531529 0.02393652 0.00492089
v 0.00531243 0.02393652 0.00492189
v 0.00518750 0.02393652 0.00493578
v 0.00506245 0.02393652 0.00494967
v 0.00493741 0.02393652 0.00496257
v 0.00433637 0.02399002 0.00499631
v 0.00425309 0.02399958 0.00499929
v 0.00419287 0.02406646 0.00497448
v 0.00419287 0.00618805 0.00406056
v 0.00423474 0.00611544 0.00401392
v 0.00531529 0.00519056 0.00393949
v 0.00443757 0.02406073 0.00495364
v 0.00430187 0.02404926 0.00497249
v 0.00531529 0.02400913 0.00487922
v 0.00468755 0.02406073 0.00492586
v 0.00518750 0.02402060 0.00488914
v 0.00468755 0.02413716 0.00488319
v 0.00431253 0.02417538 0.00490601
v 0.00419287 0.02407219 0.00497150
v 0.00419287 0.00618614 0.00405659
v 0.00419287 0.00613264 0.00393652
v 0.00531474 0.00519056 0.00393652
v 0.00531529 0.00519056 -0.00393949
v 0.00531529 0.02407028 0.00483258
v 0.00485379 0.02411996 0.00487128
v 0.00431253 0.02423844 0.00486731
v 0.00423254 0.02424608 0.00487326
v 0.00419287 0.02420213 0.00490303
v 0.00419287 0.00613264 -0.00393652
v 0.00531474 0.00519056 -0.00393652
v 0.00531529 0.00522114 -0.00401293
v 0.00419287 0.00613837 -0.00396827
v 0.00423474 0.00611544 -0.00401392
v 0.00531529 0.02414672 0.00476808
v 0.00468755 0.02427475 0.00477304
v 0.00481226 0.02417729 0.00483258
v 0.00443757 0.02422506 0.00485739
v 0.00443757 0.02430150 0.00479487
v 0.00431802 0.02432252 0.00479685
v 0.00428001 0.02437985 0.00475518
v 0.00419287 0.02429577 0.00483655
v 0.00531529 0.00525171 -0.00405758
v 0.00419287 0.00618805 -0.00406056
v 0.00419287 0.00618997 -0.00406353
v 0.00531529 0.02420787 0.00470358
v 0.00518750 0.02422124 0.00471945
v 0.00497708 0.02424417 0.00474426
v 0.00489368 0.02425373 0.00475319
v 0.00436329 0.02437220 0.00474724
v 0.00431802 0.02442189 0.00469862
v 0.00424627 0.02449832 0.00462419
v 0.00419287 0.02446584 0.00467182
v 0.00419287 0.02438749 0.00475915
v 0.00531529 0.00527464 -0.00407941
v 0.00419287 0.00625111 -0.00412506
v 0.00531529 0.02426328 0.00464007
v 0.00531243 0.02426328 0.00464106
v 0.00456251 0.02435118 0.00472442
v 0.00443757 0.02436456 0.00473930
v 0.00443757 0.02441807 0.00467678
v 0.00431253 0.02453272 0.00455274
v 0.00419782 0.02453654 0.00457358
v 0.00419287 0.02453081 0.00458251
v 0.00431253 0.02449259 0.00461526
v 0.00531529 0.00528611 -0.00408933
v 0.00419287 0.00726580 -0.00498639
v 0.00531529 0.02431488 0.00456267
v 0.00493741 0.02436456 0.00461129
v 0.00486786 0.02437220 0.00462221
v 0.00478457 0.02438176 0.00463312
v 0.00456251 0.02440469 0.00466190
v 0.00443757 0.02448113 0.00459641
v 0.00456251 0.02450788 0.00451305
v 0.00443757 0.02457094 0.00443664
v 0.00431066 0.02459769 0.00442871
v 0.00419287 0.02460342 0.00445550
v 0.00419287 0.02456903 0.00451801
v 0.00419287 0.02453654 0.00457358
v 0.00531529 0.00535108 -0.00414193
v 0.00419287 0.00731931 -0.00502310
v 0.00419892 0.00731358 -0.00502310
v 0.00531529 0.00650144 -0.00499830
v 0.00531529 0.02431679 0.00455969
v 0.00515904 0.02438176 0.00451107
v 0.00482072 0.02441424 0.00457358
v 0.00462975 0.02450023 0.00450114
v 0.00435099 0.02462062 0.00436222
v 0.00481248 0.02448113 0.00445947
v 0.00488566 0.02450215 0.00438008
v 0.00426770 0.02462636 0.00438107
v 0.00419287 0.02460533 0.00445153
v 0.00419287 0.00738046 -0.00504394
v 0.00419287 0.00743396 -0.00506180
v 0.00531529 0.00656259 -0.00503005
v 0.00531529 0.02436456 0.00447931
v 0.00524233 0.02437220 0.00449618
v 0.00450130 0.02462444 0.00425009
v 0.00443757 0.02463018 0.00427291
v 0.00431066 0.02463973 0.00431757
v 0.00419287 0.02466075 0.00430665
v 0.00531243 0.02439322 0.00441779
v 0.00531529 0.02443144 0.00431260
v 0.00506839 0.02448495 0.00431161
v 0.00419287 0.02465884 0.00431260
v 0.00419287 0.02463209 0.00439100
v 0.00419287 0.00743778 -0.00506280
v 0.00531529 0.00668489 -0.00506280
v 0.00531529 0.02439322 0.00441581
v 0.00452899 0.02463018 0.00418658
v 0.00443757 0.02464929 0.00418658
v 0.00431253 0.02467222 0.00418658
v 0.00503059 0.02450597 0.00426994
v 0.00511388 0.02449641 0.00423719
v 0.00506839 0.02451552 0.00419154
v 0.00493741 0.02454418 0.00418658
v 0.00419287 0.02469132 0.00418162
v 0.00531529 0.02446393 0.00418460
v 0.00419287 0.00755817 -0.00506875
v 0.00431253 0.00743778 -0.00506875
v 0.00506245 0.00693904 -0.00506875
v 0.00531529 0.00681101 -0.00506875
v 0.00462063 0.02462253 0.00411017
v 0.00443757 0.02466457 0.00406155
v 0.00431253 0.02468750 0.00406155
v 0.00514992 0.02450406 0.00415383
v 0.00419287 0.02470661 0.00405659
v 0.00531529 0.02447922 0.00406155
v 0.00419287 0.02343586 -0.00506875
v 0.00531529 0.02330783 -0.00506875
v 0.00517178 0.02450979 0.00406155
v 0.00481248 0.02458623 0.00406155
v 0.00463316 0.02462636 0.00402682
v 0.00443757 0.02466839 0.00393652
v 0.00431253 0.02469132 0.00393652
v 0.00419287 0.02470852 0.00393652
v 0.00531529 0.02448304 0.00393652
v 0.00419287 0.02356198 -0.00506776
v 0.00468755 0.02343586 -0.00506875
v 0.00531243 0.02331165 -0.00506875
v 0.00531529 0.02343586 -0.00506478
v 0.00518112 0.02451170 0.00393652
v 0.00481248 0.02459005 0.00393652
v 0.00443757 0.02466839 -0.00393652
v 0.00431253 0.02469132 -0.00393652
v 0.00419287 0.02470852 -0.00394247
v 0.00531529 0.02448304 -0.00393949
v 0.00419287 0.02368046 -0.00506280
v 0.00431253 0.02356198 -0.00506776
v 0.00493741 0.02343586 -0.00506776
v 0.00443757 0.02356198 -0.00506677
v 0.00456251 0.02356198 -0.00506577
v 0.00481248 0.02356198 -0.00506280
v 0.00506245 0.02356198 -0.00505883
v 0.00518750 0.02356198 -0.00505585
v 0.00531529 0.02356198 -0.00505188
v 0.00518112 0.02451170 -0.00393652
v 0.00481248 0.02459005 -0.00393652
v 0.00463316 0.02462636 -0.00402682
v 0.00443757 0.02466457 -0.00406155
v 0.00431253 0.02468750 -0.00406155
v 0.00419287 0.02470470 -0.00406750
v 0.00531529 0.02447922 -0.00406155
v 0.00419287 0.02380658 -0.00504890
v 0.00431253 0.02368619 -0.00506081
v 0.00456251 0.02368619 -0.00505585
v 0.00468755 0.02368619 -0.00505287
v 0.00443757 0.02381231 -0.00503997
v 0.00506245 0.02368619 -0.00503799
v 0.00531529 0.02368428 -0.00502509
v 0.00517178 0.02450979 -0.00406155
v 0.00481248 0.02458623 -0.00406155
v 0.00462063 0.02462253 -0.00411017
v 0.00443757 0.02464929 -0.00418658
v 0.00431253 0.02467222 -0.00418658
v 0.00419287 0.02468941 -0.00419253
v 0.00531529 0.02446202 -0.00418956
v 0.00531243 0.02446393 -0.00418658
v 0.00514992 0.02450406 -0.00415383
v 0.00419287 0.02381231 -0.00504791
v 0.00419287 0.02393079 -0.00501913
v 0.00431253 0.02392123 -0.00501715
v 0.00456251 0.02381231 -0.00503402
v 0.00443757 0.02390977 -0.00501318
v 0.00456251 0.02389639 -0.00500921
v 0.00531529 0.02375498 -0.00500326
v 0.00452899 0.02463018 -0.00418658
v 0.00493741 0.02454418 -0.00418658
v 0.00450130 0.02462444 -0.00425009
v 0.00443757 0.02463018 -0.00427291
v 0.00431066 0.02463973 -0.00431757
v 0.00419287 0.02465884 -0.00431657
v 0.00531529 0.02443144 -0.00431459
v 0.00531243 0.02443335 -0.00431161
v 0.00511388 0.02449641 -0.00423719
v 0.00506828 0.02451552 -0.00419154
v 0.00419287 0.02394225 -0.00501616
v 0.00419287 0.02399385 -0.00499830
v 0.00431253 0.02398429 -0.00499333
v 0.00468755 0.02388492 -0.00500425
v 0.00531243 0.02381995 -0.00497746
v 0.00531529 0.02381613 -0.00497845
v 0.00503059 0.02450597 -0.00427093
v 0.00506828 0.02448495 -0.00431261
v 0.00488610 0.02450215 -0.00438008
v 0.00435099 0.02462062 -0.00436222
v 0.00426770 0.02462636 -0.00438107
v 0.00419287 0.02463018 -0.00439497
v 0.00531529 0.02439322 -0.00441779
v 0.00419287 0.02404353 -0.00497746
v 0.00431253 0.02406073 -0.00496059
v 0.00468755 0.02394798 -0.00497746
v 0.00493741 0.02393652 -0.00495959
v 0.00506245 0.02393652 -0.00494769
v 0.00518750 0.02393652 -0.00493479
v 0.00531243 0.02393652 -0.00492089
v 0.00531529 0.02393270 -0.00492189
v 0.00443757 0.02457094 -0.00443664
v 0.00481248 0.02448113 -0.00445947
v 0.00431066 0.02459769 -0.00442871
v 0.00419287 0.02460342 -0.00445451
v 0.00531529 0.02436456 -0.00447931
v 0.00419287 0.02418685 -0.00490700
v 0.00443757 0.02406073 -0.00494868
v 0.00431253 0.02417538 -0.00490403
v 0.00456251 0.02406073 -0.00493677
v 0.00443757 0.02416201 -0.00489807
v 0.00506245 0.02403397 -0.00489609
v 0.00531529 0.02400531 -0.00488120
v 0.00531529 0.02393652 -0.00491990
v 0.00456251 0.02414863 -0.00489113
v 0.00462975 0.02450023 -0.00450115
v 0.00456251 0.02450788 -0.00451305
v 0.00431253 0.02453272 -0.00455275
v 0.00524233 0.02437220 -0.00449618
v 0.00419760 0.02453654 -0.00457358
v 0.00419287 0.02453845 -0.00457061
v 0.00531529 0.02431297 -0.00456465
v 0.00419287 0.02419449 -0.00490303
v 0.00419287 0.02424800 -0.00487326
v 0.00422232 0.02424417 -0.00487227
v 0.00431253 0.02423653 -0.00486632
v 0.00531243 0.02407028 -0.00483258
v 0.00531529 0.02406646 -0.00483456
v 0.00476688 0.02412761 -0.00487723
v 0.00506245 0.02409703 -0.00485441
v 0.00518750 0.02408366 -0.00484349
v 0.00443757 0.02422506 -0.00485739
v 0.00515904 0.02438176 -0.00451107
v 0.00493741 0.02436456 -0.00461129
v 0.00486731 0.02437220 -0.00462221
v 0.00443757 0.02447922 -0.00459641
v 0.00431253 0.02449259 -0.00461526
v 0.00424583 0.02449832 -0.00462320
v 0.00419287 0.02450215 -0.00462816
v 0.00531529 0.02426137 -0.00464205
v 0.00506245 0.02435118 -0.00459045
v 0.00419287 0.02428621 -0.00484250
v 0.00428001 0.02437985 -0.00475518
v 0.00468755 0.02427475 -0.00477304
v 0.00531243 0.02414481 -0.00477006
v 0.00531529 0.02414290 -0.00477106
v 0.00443757 0.02430150 -0.00479487
v 0.00478402 0.02438176 -0.00463312
v 0.00468755 0.02439131 -0.00464602
v 0.00443757 0.02441807 -0.00467579
v 0.00436329 0.02437220 -0.00474724
v 0.00419760 0.02445820 -0.00467877
v 0.00419287 0.02442571 -0.00471648
v 0.00468755 0.02433781 -0.00470854
v 0.00531529 0.02420595 -0.00470457
v 0.00531243 0.02420787 -0.00470358
v 0.00518750 0.02422124 -0.00471945
v 0.00419287 0.02438367 -0.00476312
v 0.00489401 0.02425373 -0.00475319
v 0.00497741 0.02424417 -0.00474426
v 0.00443757 0.02436456 -0.00473831
f 1 2 6
f 1 6 13
f 1 13 24
f 1 24 30
f 1 30 18
f 1 18 10
f 1 10 3
f 1 3 4
f 1 4 5
f 1 5 2
f 2 5 11
f 2 11 19
f 2 19 33
f 2 33 42
f 2 42 53
f 2 53 67
f 2 67 78
f 2 78 87
f 2 87 100
f 2 100 112
f 2 112 111
f 2 111 122
f 2 122 137
f 2 137 136
f 2 136 135
f 2 135 150
f 2 150 164
f 2 164 163
f 2 163 159
f 2 159 175
f 2 175 185
f 2 185 194
f 2 194 204
f 2 204 220
f 2 220 234
f 2 234 250
f 2 250 266
f 2 266 279
f 2 279 295
f 2 295 313
f 2 313 327
f 2 327 332
f 2 332 316
f 2 316 298
f 2 298 297
f 2 297 281
f 2 281 268
f 2 268 256
f 2 256 255
f 2 255 239
f 2 239 238
f 2 238 222
f 2 222 206
f 2 206 196
f 2 196 187
f 2 187 177
f 2 177 165
f 2 165 152
f 2 152 151
f 2 151 139
f 2 139 125
f 2 125 114
f 2 114 103
f 2 103 102
f 2 102 91
f 2 91 88
f 2 88 80
f 2 80 79
f 2 79 68
f 2 68 56
f 2 56 55
f 2 55 54
f 2 54 43
f 2 43 34
f 2 34 20
f 2 20 12
f 2 12 6
f 3 7 8
f 3 8 9
f 3 9 4
f 3 10 7
f 4 11 5
f 4 9 8
f 4 8 11
f 6 12 13
f 7 10 18
f 7 18 31
f 7 31 21
f 7 21 36
f 7 36 47
f 7 47 46
f 7 46 45
f 7 45 44
f 7 44 57
f 7 57 70
f 7 70 82
f 7 82 90
f 7 90 101
f 7 101 113
f 7 113 124
f 7 124 138
f 7 138 141
f 7 141 153
f 7 153 166
f 7 166 180
f 7 180 188
f 7 188 199
f 7 199 214
f 7 214 228
f 7 228 244
f 7 244 260
f 7 260 275
f 7 275 288
f 7 288 287
f 7 287 302
f 7 302 320
f 7 320 329
f 7 329 314
f 7 314 296
f 7 296 280
f 7 280 267
f 7 267 251
f 7 251 235
f 7 235 221
f 7 221 205
f 7 205 195
f 7 195 186
f 7 186 176
f 7 176 161
f 7 161 167
f 7 167 154
f 7 154 142
f 7 142 126
f 7 126 115
f 7 115 104
f 7 104 93
f 7 93 83
f 7 83 73
f 7 73 60
f 7 60 49
f 7 49 37
f 7 37 25
f 7 25 14
f 7 14 8
f 8 14 15
f 8 15 16
f 8 16 17
f 8 17 11
f 11 17 19
f 12 20 21
f 12 21 22
f 12 22 13
f 13 22 23
f 13 23 24
f 14 25 26
f 14 26 27
f 14 27 28
f 14 28 15
f 15 28 29
f 15 29 17
f 15 17 16
f 17 29 19
f 18 30 22
f 18 22 31
f 19 32 33
f 19 29 32
f 20 34 35
f 20 35 21
f 21 31 22
f 21 35 36
f 22 30 23
f 23 30 24
f 25 37 38
f 25 38 26
f 26 38 39
f 26 39 40
f 26 40 41
f 26 41 32
f 26 32 27
f 27 32 28
f 28 32 29
f 32 41 42
f 32 42 33
f 34 43 44
f 34 44 45
f 34 45 46
f 34 46 47
f 34 47 35
f 35 47 48
f 35 48 36
f 36 48 47
f 37 49 50
f 37 50 38
f 38 50 39
f 39 50 51
f 39 51 52
f 39 52 40
f 40 52 42
f 40 42 41
f 42 52 53
f 43 54 44
f 44 54 55
f 44 55 56
f 44 56 57
f 49 58 59
f 49 59 50
f 49 60 61
f 49 61 62
f 49 62 63
f 49 63 64
f 49 64 58
f 50 59 65
f 50 65 66
f 50 66 52
f 50 52 51
f 52 66 53
f 53 66 67
f 56 68 69
f 56 69 57
f 57 69 70
f 58 64 71
f 58 71 72
f 58 72 59
f 59 72 65
f 60 73 61
f 61 74 62
f 61 73 75
f 61 75 76
f 61 76 77
f 61 77 74
f 62 74 71
f 62 71 63
f 63 71 64
f 65 72 67
f 65 67 66
f 67 72 71
f 67 71 78
f 68 79 69
f 69 79 80
f 69 80 70
f 70 81 89
f 70 89 82
f 70 80 81
f 71 74 77
f 71 77 78
f 73 83 84
f 73 84 76
f 73 76 75
f 76 84 85
f 76 85 86
f 76 86 77
f 77 87 78
f 77 86 87
f 80 88 89
f 80 89 81
f 82 89 88
f 82 88 91
f 82 91 92
f 82 92 90
f 83 93 94
f 83 94 95
f 83 95 84
f 84 95 96
f 84 96 85
f 85 96 97
f 85 97 98
f 85 98 86
f 86 98 99
f 86 99 100
f 86 100 87
f 90 92 101
f 91 102 92
f 92 102 103
f 92 103 101
f 93 104 105
f 93 105 106
f 93 106 107
f 93 107 94
f 94 97 95
f 94 107 108
f 94 108 97
f 95 97 96
f 97 108 99
f 97 99 98
f 99 108 109
f 99 109 110
f 99 110 111
f 99 111 112
f 99 112 100
f 101 103 114
f 101 114 113
f 104 115 116
f 104 116 117
f 104 117 105
f 105 117 106
f 106 117 118
f 106 118 107
f 107 118 108
f 108 118 119
f 108 119 109
f 109 119 110
f 110 120 121
f 110 121 122
f 110 122 111
f 110 119 123
f 110 123 120
f 113 114 124
f 114 125 124
f 115 126 116
f 116 126 127
f 116 127 128
f 116 128 129
f 116 129 130
f 116 130 117
f 117 130 119
f 117 119 118
f 119 130 123
f 120 123 131
f 120 131 132
f 120 132 133
f 120 133 134
f 120 134 135
f 120 135 136
f 120 136 121
f 121 137 122
f 121 136 137
f 123 130 129
f 123 129 131
f 124 125 138
f 125 139 140
f 125 140 141
f 125 141 138
f 126 142 143
f 126 143 144
f 126 144 127
f 127 144 131
f 127 131 128
f 128 131 129
f 131 144 132
f 132 145 133
f 132 144 143
f 132 143 145
f 133 146 134
f 133 145 147
f 133 147 148
f 133 148 146
f 134 146 149
f 134 149 150
f 134 150 135
f 139 151 140
f 140 151 152
f 140 152 153
f 140 153 141
f 142 154 155
f 142 155 143
f 143 155 145
f 145 155 147
f 146 148 156
f 146 156 157
f 146 157 158
f 146 158 159
f 146 159 149
f 147 155 154
f 147 154 148
f 148 154 160
f 148 160 161
f 148 161 162
f 148 162 156
f 149 159 163
f 149 163 164
f 149 164 150
f 152 165 166
f 152 166 153
f 154 167 160
f 156 168 169
f 156 169 170
f 156 170 157
f 156 162 171
f 156 171 172
f 156 172 173
f 156 173 174
f 156 174 168
f 157 170 158
f 158 170 159
f 159 170 175
f 160 167 161
f 161 176 172
f 161 172 171
f 161 171 162
f 165 177 178
f 165 178 166
f 166 179 180
f 166 178 179
f 168 174 181
f 168 181 169
f 169 181 182
f 169 182 183
f 169 183 170
f 170 183 185
f 170 185 175
f 172 176 173
f 173 184 174
f 173 176 184
f 174 184 181
f 176 186 184
f 177 187 197
f 177 197 198
f 177 198 188
f 177 188 180
f 177 180 179
f 177 179 178
f 181 184 186
f 181 186 189
f 181 189 190
f 181 190 182
f 182 190 191
f 182 191 192
f 182 192 193
f 182 193 183
f 183 193 185
f 185 193 194
f 186 195 191
f 186 191 189
f 187 196 207
f 187 207 197
f 188 198 199
f 189 191 190
f 191 200 201
f 191 201 192
f 191 195 200
f 192 202 203
f 192 203 193
f 192 201 216
f 192 216 202
f 193 203 204
f 193 204 194
f 195 205 215
f 195 215 200
f 196 206 207
f 197 207 198
f 198 207 208
f 198 208 199
f 199 208 207
f 199 207 209
f 199 209 210
f 199 210 206
f 199 206 211
f 199 211 212
f 199 212 213
f 199 213 214
f 200 215 216
f 200 216 201
f 202 217 218
f 202 218 219
f 202 219 203
f 202 216 217
f 203 219 220
f 203 220 204
f 205 221 217
f 205 217 215
f 206 222 223
f 206 223 211
f 206 210 209
f 206 209 207
f 211 223 212
f 212 223 224
f 212 224 225
f 212 225 213
f 213 225 214
f 214 225 226
f 214 226 227
f 214 227 228
f 215 217 216
f 217 221 229
f 217 229 230
f 217 230 218
f 218 230 231
f 218 231 232
f 218 232 233
f 218 233 219
f 219 233 234
f 219 234 220
f 221 235 236
f 221 236 237
f 221 237 231
f 221 231 229
f 222 238 226
f 222 226 225
f 222 225 224
f 222 224 223
f 226 238 239
f 226 239 240
f 226 240 241
f 226 241 227
f 227 241 228
f 228 241 242
f 228 242 243
f 228 243 244
f 229 231 230
f 231 245 232
f 231 237 246
f 231 246 245
f 232 245 247
f 232 247 233
f 233 247 248
f 233 248 249
f 233 249 250
f 233 250 234
f 235 251 252
f 235 252 236
f 236 252 253
f 236 253 254
f 236 254 237
f 237 254 246
f 239 255 240
f 240 242 241
f 240 255 256
f 240 256 242
f 242 256 257
f 242 257 243
f 243 257 258
f 243 258 244
f 244 258 259
f 244 259 260
f 245 246 247
f 246 254 247
f 247 254 253
f 247 253 261
f 247 261 262
f 247 262 263
f 247 263 264
f 247 264 248
f 248 264 249
f 249 264 250
f 250 264 265
f 250 265 266
f 251 267 252
f 252 262 261
f 252 261 253
f 252 267 263
f 252 263 262
f 256 268 257
f 257 268 269
f 257 269 270
f 257 270 258
f 258 270 259
f 259 270 271
f 259 271 272
f 259 272 273
f 259 273 274
f 259 274 275
f 259 275 260
f 263 276 264
f 263 267 277
f 263 277 276
f 264 276 278
f 264 278 265
f 265 278 279
f 265 279 266
f 267 280 277
f 268 281 269
f 269 282 272
f 269 272 271
f 269 271 270
f 269 281 283
f 269 283 282
f 272 282 284
f 272 284 273
f 273 284 285
f 273 285 274
f 274 286 287
f 274 287 288
f 274 288 275
f 274 285 289
f 274 289 286
f 276 277 290
f 276 290 291
f 276 291 292
f 276 292 278
f 277 280 293
f 277 293 290
f 278 292 279
f 279 292 294
f 279 294 295
f 280 296 293
f 281 297 283
f 282 283 284
f 283 297 298
f 283 298 299
f 283 299 285
f 283 285 284
f 285 299 300
f 285 300 289
f 286 289 287
f 287 301 302
f 287 289 303
f 287 303 304
f 287 304 305
f 287 305 301
f 289 300 306
f 289 306 303
f 290 293 307
f 290 307 291
f 291 307 308
f 291 308 309
f 291 309 310
f 291 310 311
f 291 311 292
f 292 311 312
f 292 312 294
f 293 296 307
f 294 312 313
f 294 313 295
f 296 314 315
f 296 315 307
f 298 316 300
f 298 300 299
f 300 316 317
f 300 317 306
f 301 305 318
f 301 318 319
f 301 319 320
f 301 320 302
f 303 306 304
f 304 306 321
f 304 321 305
f 305 321 318
f 306 317 321
f 307 315 308
f 308 315 314
f 308 314 309
f 309 322 311
f 309 311 310
f 309 314 322
f 311 322 323
f 311 323 324
f 311 324 325
f 311 325 312
f 312 325 317
f 312 317 326
f 312 326 313
f 313 326 327
f 314 328 323
f 314 323 322
f 314 329 330
f 314 330 331
f 314 331 328
f 316 332 317
f 317 325 321
f 317 332 327
f 317 327 326
f 318 333 319
f 318 321 325
f 318 325 333
f 319 333 334
f 319 334 331
f 319 331 330
f 319 330 329
f 319 329 320
f 323 328 335
f 323 335 324
f 324 335 325
f 325 335 334
f 325 334 333
f 328 331 334
f 328 334 335

