# https://github.com/mikedh/trimesh
v -0.00089489 0.02381182 0.00506875
v -0.00136909 0.02381182 0.00506875
v -0.00089489 0.00856424 0.00506875
v -0.00089489 0.02393517 0.00506787
v -0.00136909 0.02387784 0.00506787
v -0.00136909 0.00856424 0.00506875
v -0.00093754 0.02393517 0.00506787
v -0.00136909 0.00850691 0.00506831
v -0.00136909 0.00843915 0.00506610
v -0.00131242 0.00843915 0.00506477
v -0.00118746 0.00843915 0.00505990
v -0.00089489 0.00848085 0.00505415
v -0.00089489 0.02406027 0.00506300
v -0.00136909 0.02393517 0.00506698
v -0.00136909 0.00838877 0.00505061
v -0.00136909 0.00833317 0.00503160
v -0.00131242 0.00833664 0.00503027
v -0.00106255 0.00843915 0.00505371
v -0.00089489 0.00843915 0.00504442
v -0.00131242 0.02406027 0.00505990
v -0.00136909 0.02400467 0.00506300
v -0.00089489 0.02418536 0.00504531
v -0.00136909 0.00830363 0.00501036
v -0.00118746 0.00834533 0.00502540
v -0.00089489 0.00838877 0.00502186
v -0.00136909 0.02412976 0.00504796
v -0.00136909 0.02406027 0.00505902
v -0.00093754 0.02418536 0.00504486
v -0.00089489 0.02429829 0.00501567
v -0.00136909 0.00827062 0.00498161
v -0.00106255 0.00835402 0.00501921
v -0.00089489 0.00836618 0.00501036
v -0.00106255 0.02418536 0.00504310
v -0.00136909 0.02418536 0.00503823
v -0.00093754 0.02429656 0.00501567
v -0.00089489 0.02435910 0.00499488
v -0.00136909 0.00820634 0.00491881
v -0.00089489 0.00830189 0.00494888
v -0.00136909 0.02423922 0.00502363
v -0.00118746 0.02428787 0.00501346
v -0.00089489 0.02438516 0.00498338
v -0.00106255 0.02435389 0.00499267
v -0.00136909 0.02428092 0.00501169
v -0.00136909 0.00744535 0.00416909
v -0.00089489 0.00754959 0.00420182
v -0.00089489 0.02443555 0.00496038
v -0.00093754 0.02443555 0.00495950
v -0.00136909 0.02434347 0.00498825
v -0.00136909 0.02431567 0.00499886
v -0.00136909 0.00738801 0.00411159
v -0.00089489 0.00750790 0.00416024
v -0.00089489 0.02447377 0.00494048
v -0.00093754 0.02454327 0.00490244
v -0.00106255 0.02443555 0.00495552
v -0.00136909 0.02443555 0.00494534
v -0.00136909 0.00734284 0.00405409
v -0.00106259 0.00741234 0.00408195
v -0.00089489 0.00743492 0.00407709
v -0.00089489 0.00748705 0.00413901
v -0.00089489 0.02454327 0.00490288
v -0.00093754 0.02460582 0.00486175
v -0.00118746 0.02453458 0.00489802
v -0.00136909 0.02452763 0.00489448
v -0.00136909 0.00732025 0.00399526
v -0.00131237 0.00734458 0.00404347
v -0.00096242 0.00737064 0.00400853
v -0.00092747 0.00741234 0.00405497
v -0.00089489 0.00741929 0.00405718
v -0.00089489 0.02460582 0.00486219
v -0.00106255 0.02460234 0.00485821
v -0.00089489 0.02470311 0.00478125
v -0.00093754 0.02468052 0.00479938
v -0.00136909 0.02459192 0.00485025
v -0.00136909 0.00730288 0.00393688
v -0.00089489 0.00737411 0.00393688
v -0.00089489 0.00737585 0.00394926
v -0.00089489 0.02474481 0.00474498
v -0.00118746 0.02467184 0.00479275
v -0.00093754 0.02474307 0.00474409
v -0.00136909 0.02466489 0.00478744
v -0.00136909 0.00730114 0.00381214
v -0.00089489 0.00737411 0.00055010
v -0.00089489 0.02476218 0.00472330
v -0.00093754 0.02479346 0.00468129
v -0.00118746 0.02478651 0.00467200
v -0.00106255 0.02473960 0.00473923
v -0.00136909 0.02469964 0.00475471
v -0.00136909 0.00730114 0.00055010
v -0.00089489 0.02505059 0.00055010
v -0.00089489 0.02481604 0.00465519
v -0.00089489 0.02485774 0.00460167
v -0.00093754 0.02485600 0.00460078
v -0.00106255 0.02485253 0.00459459
v -0.00136909 0.02477956 0.00466448
v -0.00136909 0.02475697 0.00469279
v -0.00136909 0.02472743 0.00472684
v -0.00136909 0.02501063 0.00055010
v -0.00093759 0.02504886 0.00055010
v -0.00089489 0.02505059 0.00393688
v -0.00089489 0.02489944 0.00453930
v -0.00106255 0.02489423 0.00453178
v -0.00131242 0.02488554 0.00451852
v -0.00136909 0.02484210 0.00457778
v -0.00136909 0.02501237 0.00181688
v -0.00106259 0.02504017 0.00055010
v -0.00093759 0.02504886 0.00393688
v -0.00089489 0.02504538 0.00406205
v -0.00089489 0.02491855 0.00450392
v -0.00106255 0.02494287 0.00443713
v -0.00136909 0.02488207 0.00451542
v -0.00136909 0.02486469 0.00454373
v -0.00131242 0.02492550 0.00443713
v -0.00136909 0.02490465 0.00447119
v -0.00136909 0.02501411 0.00327606
v -0.00131237 0.02501932 0.00327606
v -0.00106259 0.02504017 0.00393688
v -0.00093759 0.02504364 0.00406205
v -0.00089489 0.02503148 0.00418722
v -0.00089489 0.02495156 0.00443713
v -0.00093754 0.02494982 0.00443713
v -0.00089489 0.02498978 0.00434601
v -0.00093754 0.02498805 0.00434380
v -0.00136909 0.02494635 0.00436901
v -0.00136909 0.02492029 0.00443713
v -0.00106255 0.02498457 0.00432921
v -0.00136909 0.02501411 0.00393688
v -0.00131237 0.02501932 0.00393688
v -0.00136909 0.02501063 0.00406205
v -0.00136909 0.02500890 0.00409788
v -0.00093759 0.02502974 0.00418722
v -0.00131237 0.02500542 0.00416644
v -0.00089489 0.02500890 0.00428365
v -0.00093754 0.02500716 0.00428144
v -0.00136909 0.02496720 0.00431240
v -0.00106255 0.02500368 0.00426684
v -0.00136909 0.02499673 0.00419917
v -0.00134904 0.02499847 0.00419917
v -0.00120333 0.02500890 0.00419917
v -0.00131242 0.02499500 0.00422924
v -0.00115227 0.02500021 0.00425622
v -0.00136909 0.02497936 0.00426684
f 1 2 6
f 1 6 3
f 1 3 12
f 1 12 19
f 1 19 25
f 1 25 32
f 1 32 38
f 1 38 45
f 1 45 51
f 1 51 59
f 1 59 58
f 1 58 68
f 1 68 76
f 1 76 75
f 1 75 82
f 1 82 89
f 1 89 99
f 1 99 107
f 1 107 118
f 1 118 132
f 1 132 121
f 1 121 119
f 1 119 108
f 1 108 100
f 1 100 91
f 1 91 90
f 1 90 83
f 1 83 77
f 1 77 71
f 1 71 69
f 1 69 60
f 1 60 52
f 1 52 46
f 1 46 41
f 1 41 36
f 1 36 29
f 1 29 22
f 1 22 13
f 1 13 4
f 1 4 7
f 1 7 2
f 2 5 14
f 2 14 21
f 2 21 27
f 2 27 26
f 2 26 34
f 2 34 39
f 2 39 43
f 2 43 49
f 2 49 48
f 2 48 55
f 2 55 63
f 2 63 73
f 2 73 80
f 2 80 87
f 2 87 96
f 2 96 95
f 2 95 94
f 2 94 103
f 2 103 111
f 2 111 110
f 2 110 113
f 2 113 124
f 2 124 123
f 2 123 134
f 2 134 141
f 2 141 136
f 2 136 129
f 2 129 128
f 2 128 126
f 2 126 114
f 2 114 104
f 2 104 97
f 2 97 88
f 2 88 81
f 2 81 74
f 2 74 64
f 2 64 56
f 2 56 50
f 2 50 44
f 2 44 37
f 2 37 30
f 2 30 23
f 2 23 16
f 2 16 15
f 2 15 9
f 2 9 8
f 2 8 6
f 2 7 5
f 3 6 8
f 3 8 9
f 3 9 10
f 3 10 11
f 3 11 12
f 4 13 7
f 5 7 14
f 7 13 14
f 9 15 10
f 10 15 11
f 11 15 16
f 11 16 17
f 11 17 18
f 11 18 12
f 12 18 19
f 13 20 21
f 13 21 14
f 13 22 20
f 16 23 17
f 17 23 24
f 17 24 19
f 17 19 18
f 19 24 25
f 20 26 27
f 20 27 21
f 20 22 28
f 20 28 26
f 22 29 28
f 23 30 31
f 23 31 24
f 24 31 25
f 25 31 32
f 26 33 34
f 26 28 33
f 28 29 35
f 28 35 33
f 29 36 35
f 30 37 38
f 30 38 32
f 30 32 31
f 33 35 34
f 34 35 39
f 35 40 39
f 35 36 40
f 36 41 42
f 36 42 43
f 36 43 40
f 37 44 38
f 38 44 45
f 39 40 43
f 41 46 47
f 41 47 42
f 42 48 49
f 42 49 43
f 42 47 48
f 44 50 51
f 44 51 45
f 46 52 47
f 47 52 53
f 47 53 54
f 47 54 48
f 48 54 55
f 50 56 57
f 50 57 58
f 50 58 59
f 50 59 51
f 52 60 53
f 53 60 69
f 53 69 61
f 53 61 62
f 53 62 55
f 53 55 54
f 55 62 63
f 56 64 65
f 56 65 66
f 56 66 57
f 57 67 58
f 57 66 67
f 58 67 68
f 61 70 63
f 61 63 62
f 61 69 71
f 61 71 72
f 61 72 70
f 63 70 73
f 64 74 66
f 64 66 65
f 66 74 75
f 66 75 76
f 66 76 68
f 66 68 67
f 70 72 73
f 71 77 72
f 72 78 73
f 72 77 79
f 72 79 78
f 73 78 80
f 74 81 75
f 75 81 88
f 75 88 82
f 77 83 84
f 77 84 79
f 78 79 80
f 79 84 85
f 79 85 86
f 79 86 80
f 80 86 87
f 82 88 97
f 82 97 105
f 82 105 98
f 82 98 89
f 83 90 84
f 84 90 91
f 84 91 85
f 85 91 92
f 85 92 93
f 85 93 94
f 85 94 95
f 85 95 86
f 86 95 96
f 86 96 87
f 89 98 106
f 89 106 99
f 91 100 92
f 92 100 93
f 93 100 101
f 93 101 102
f 93 102 103
f 93 103 94
f 97 104 105
f 98 105 116
f 98 116 106
f 99 106 117
f 99 117 107
f 100 108 101
f 101 108 109
f 101 109 102
f 102 110 111
f 102 111 103
f 102 109 112
f 102 112 113
f 102 113 110
f 104 114 105
f 105 115 127
f 105 127 116
f 105 114 115
f 106 116 117
f 107 117 130
f 107 130 118
f 108 119 120
f 108 120 109
f 109 120 121
f 109 121 122
f 109 122 112
f 112 123 124
f 112 124 113
f 112 122 125
f 112 125 123
f 114 126 127
f 114 127 115
f 116 127 128
f 116 128 129
f 116 129 117
f 117 129 131
f 117 131 130
f 118 130 132
f 119 121 120
f 121 132 133
f 121 133 122
f 122 133 135
f 122 135 125
f 123 125 134
f 125 135 134
f 126 128 127
f 129 136 137
f 129 137 131
f 130 131 137
f 130 137 138
f 130 138 139
f 130 139 140
f 130 140 135
f 130 135 133
f 130 133 132
f 134 135 140
f 134 140 139
f 134 139 141
f 136 139 137
f 136 141 139
f 137 139 138

