# https://github.com/mikedh/trimesh
v 0.00131275 0.02381171 0.00506875
v 0.00069118 0.02381171 0.00506875
v 0.00180073 0.02380648 0.00506875
v 0.00131275 0.02393572 0.00506776
v 0.00069118 0.02393922 0.00506776
v 0.00069118 0.00856411 0.00506875
v 0.00180073 0.00844185 0.00506875
v 0.00180073 0.02393398 0.00506577
v 0.00168734 0.02393398 0.00506676
v 0.00069118 0.02406147 0.00506379
v 0.00156233 0.00844185 0.00506875
v 0.00069118 0.00844185 0.00503700
v 0.00106251 0.00843835 0.00505386
v 0.00118752 0.00843835 0.00505982
v 0.00131242 0.00843835 0.00506478
v 0.00180073 0.00831435 0.00505386
v 0.00180073 0.02405798 0.00505585
v 0.00131275 0.02406147 0.00505982
v 0.00093761 0.02406147 0.00506280
v 0.00081260 0.02418548 0.00504692
v 0.00069118 0.02418548 0.00504692
v 0.00069118 0.00843835 0.00503600
v 0.00180073 0.00823051 0.00501913
v 0.00180073 0.02418374 0.00503104
v 0.00106251 0.02418548 0.00504394
v 0.00081260 0.02430250 0.00501715
v 0.00069118 0.02430425 0.00501616
v 0.00069118 0.00837373 0.00500226
v 0.00180073 0.00816938 0.00496158
v 0.00180073 0.02426582 0.00500723
v 0.00106251 0.02429377 0.00501516
v 0.00093761 0.02429901 0.00501616
v 0.00081260 0.02436538 0.00499631
v 0.00069118 0.02436713 0.00499532
v 0.00069118 0.00781133 0.00444061
v 0.00180073 0.00734325 0.00415780
v 0.00180073 0.00810301 0.00489906
v 0.00180073 0.02432870 0.00498143
v 0.00131242 0.02434791 0.00499036
v 0.00118752 0.02435315 0.00499234
v 0.00093761 0.02436189 0.00499532
v 0.00081260 0.02443699 0.00496456
v 0.00069118 0.02443699 0.00496456
v 0.00069118 0.00749870 0.00412803
v 0.00180073 0.00728037 0.00409330
v 0.00180073 0.02443524 0.00492983
v 0.00131275 0.02443699 0.00494868
v 0.00118752 0.02443699 0.00495364
v 0.00093761 0.02443699 0.00496158
v 0.00093761 0.02454353 0.00490303
v 0.00081260 0.02454528 0.00490502
v 0.00069118 0.02454702 0.00490402
v 0.00069118 0.00744630 0.00406155
v 0.00180073 0.00723147 0.00403079
v 0.00180073 0.02450336 0.00488914
v 0.00131242 0.02452956 0.00489609
v 0.00093761 0.02460641 0.00486136
v 0.00081260 0.02460815 0.00486433
v 0.00069118 0.02460815 0.00486433
v 0.00069118 0.00739914 0.00393652
v 0.00096249 0.00737120 0.00400896
v 0.00162044 0.00725417 0.00400102
v 0.00180073 0.00722972 0.00402384
v 0.00180073 0.02451035 0.00488418
v 0.00118752 0.02467278 0.00479189
v 0.00093761 0.02468151 0.00479884
v 0.00131275 0.02459243 0.00485044
v 0.00081260 0.02468326 0.00480182
v 0.00069118 0.02468500 0.00479983
v 0.00069118 0.00739914 -0.00393652
v 0.00180073 0.00720876 0.00383431
v 0.00180073 0.00721051 0.00393751
v 0.00180073 0.02457147 0.00483456
v 0.00180073 0.02464658 0.00477304
v 0.00118752 0.02473565 0.00473533
v 0.00093761 0.02474439 0.00474426
v 0.00081260 0.02474613 0.00474724
v 0.00069118 0.02474613 0.00474724
v 0.00096249 0.00737120 -0.00400896
v 0.00162044 0.00725243 -0.00400102
v 0.00180073 0.00720876 -0.00394446
v 0.00069118 0.00744455 -0.00405857
v 0.00180073 0.02470945 0.00470953
v 0.00131275 0.02473041 0.00473037
v 0.00180073 0.02476360 0.00464701
v 0.00131275 0.02478281 0.00466686
v 0.00106251 0.02479154 0.00467678
v 0.00093761 0.02479504 0.00468175
v 0.00081260 0.02479853 0.00468472
v 0.00069118 0.02480028 0.00468274
v 0.00180073 0.00723147 -0.00403079
v 0.00069118 0.00744630 -0.00406155
v 0.00180073 0.02481425 0.00457061
v 0.00106251 0.02485442 0.00459343
v 0.00093761 0.02485791 0.00460137
v 0.00081260 0.02486141 0.00460534
v 0.00069118 0.02486141 0.00460534
v 0.00180073 0.00728037 -0.00409330
v 0.00069118 0.00749695 -0.00412605
v 0.00180073 0.02486490 0.00448527
v 0.00118752 0.02488761 0.00452397
v 0.00093761 0.02489459 0.00453885
v 0.00081260 0.02489808 0.00454282
v 0.00069118 0.02489983 0.00453985
v 0.00180073 0.00734325 -0.00415780
v 0.00069118 0.00781133 -0.00444061
v 0.00180073 0.02489459 0.00442374
v 0.00131275 0.02492254 0.00443664
v 0.00093761 0.02494874 0.00443664
v 0.00081260 0.02495223 0.00443664
v 0.00069118 0.02495398 0.00443466
v 0.00180073 0.00817287 -0.00496753
v 0.00069118 0.00837373 -0.00500226
v 0.00180073 0.02493476 0.00431161
v 0.00106251 0.02498541 0.00432947
v 0.00093761 0.02498891 0.00434337
v 0.00081260 0.02499065 0.00435031
v 0.00069118 0.02499065 0.00435130
v 0.00180073 0.00823051 -0.00502013
v 0.00069118 0.00843661 -0.00503501
v 0.00180073 0.02496620 0.00418757
v 0.00131275 0.02499589 0.00422925
v 0.00115233 0.02500113 0.00425604
v 0.00119143 0.02498367 0.00430367
v 0.00106251 0.02500462 0.00426696
v 0.00093761 0.02500812 0.00428085
v 0.00081260 0.02500987 0.00428780
v 0.00069118 0.02501161 0.00428581
v 0.00180073 0.00823750 -0.00502310
v 0.00106251 0.00843835 -0.00505387
v 0.00180073 0.00831435 -0.00505387
v 0.00069118 0.00856411 -0.00506875
v 0.00180073 0.02498192 0.00406056
v 0.00150955 0.02499764 0.00412803
v 0.00168734 0.02497494 0.00418757
v 0.00131275 0.02500637 0.00416673
v 0.00119143 0.02500987 0.00419650
v 0.00093761 0.02502908 0.00418658
v 0.00081260 0.02503432 0.00418658
v 0.00069118 0.02503432 0.00418658
v 0.00118752 0.00843835 -0.00505982
v 0.00180073 0.00832657 -0.00505684
v 0.00131242 0.00843835 -0.00506478
v 0.00069118 0.02381171 -0.00506875
v 0.00156233 0.00844010 -0.00506875
v 0.00143743 0.00844010 -0.00506776
v 0.00180073 0.02498541 0.00394743
v 0.00163000 0.02499764 0.00400499
v 0.00131275 0.02501860 0.00406155
v 0.00093761 0.02504480 0.00406155
v 0.00081260 0.02504829 0.00406155
v 0.00069118 0.02504829 0.00406155
v 0.00180073 0.00844010 -0.00506875
v 0.00069118 0.02393572 -0.00506776
v 0.00131275 0.02381171 -0.00506875
v 0.00180073 0.02498541 -0.00393652
v 0.00131275 0.02502209 0.00393652
v 0.00093761 0.02504829 0.00393652
v 0.00081260 0.02505178 0.00393652
v 0.00069118 0.02505178 0.00393652
v 0.00180073 0.02380822 -0.00506875
v 0.00106251 0.02393572 -0.00506776
v 0.00069118 0.02406147 -0.00506180
v 0.00180073 0.02498192 -0.00406155
v 0.00163000 0.02499764 -0.00400499
v 0.00131275 0.02502209 -0.00393751
v 0.00093761 0.02504829 -0.00393652
v 0.00081260 0.02505178 -0.00393652
v 0.00069118 0.02505178 -0.00394049
v 0.00180073 0.02393398 -0.00506577
v 0.00069118 0.02418199 -0.00504493
v 0.00093761 0.02406147 -0.00506081
v 0.00150955 0.02499764 -0.00412803
v 0.00131275 0.02501860 -0.00406254
v 0.00180073 0.02496620 -0.00418658
v 0.00093761 0.02504480 -0.00406155
v 0.00081260 0.02504829 -0.00406155
v 0.00069118 0.02504829 -0.00406552
v 0.00180073 0.02394620 -0.00506478
v 0.00069118 0.02429726 -0.00501715
v 0.00081260 0.02418548 -0.00504394
v 0.00180073 0.02405973 -0.00505287
v 0.00093761 0.02418548 -0.00504295
v 0.00131275 0.02500637 -0.00416475
v 0.00093761 0.02502908 -0.00418658
v 0.00180073 0.02493826 -0.00430070
v 0.00114810 0.02500113 -0.00425505
v 0.00123151 0.02499764 -0.00424215
v 0.00118894 0.02500987 -0.00419551
v 0.00081260 0.02503432 -0.00418658
v 0.00069118 0.02503432 -0.00418658
v 0.00069118 0.02430076 -0.00501616
v 0.00093761 0.02429726 -0.00501616
v 0.00180073 0.02407195 -0.00505089
v 0.00131275 0.02418548 -0.00503700
v 0.00106251 0.02502035 -0.00418658
v 0.00093761 0.02500812 -0.00428085
v 0.00180073 0.02493476 -0.00431161
v 0.00168734 0.02494350 -0.00431161
v 0.00131275 0.02497144 -0.00431261
v 0.00106251 0.02498541 -0.00432848
v 0.00081260 0.02500987 -0.00428780
v 0.00069118 0.02500987 -0.00428978
v 0.00069118 0.02436189 -0.00499631
v 0.00081260 0.02436189 -0.00499532
v 0.00093761 0.02436014 -0.00499433
v 0.00106251 0.02429202 -0.00501516
v 0.00143743 0.02418374 -0.00503501
v 0.00180073 0.02418374 -0.00502807
v 0.00180073 0.02419247 -0.00502608
v 0.00093761 0.02498891 -0.00434337
v 0.00180073 0.02489459 -0.00442275
v 0.00081260 0.02499065 -0.00435031
v 0.00069118 0.02499065 -0.00435329
v 0.00069118 0.02443524 -0.00496356
v 0.00081260 0.02443699 -0.00496158
v 0.00093761 0.02443699 -0.00495959
v 0.00168734 0.02433219 -0.00498341
v 0.00180073 0.02426582 -0.00500623
v 0.00143743 0.02427805 -0.00501120
v 0.00131275 0.02492428 -0.00443764
v 0.00093761 0.02495048 -0.00443664
v 0.00081260 0.02495572 -0.00443664
v 0.00180073 0.02486490 -0.00448527
v 0.00162066 0.02487189 -0.00449916
v 0.00069118 0.02495572 -0.00443664
v 0.00069118 0.02454353 -0.00490502
v 0.00081260 0.02454528 -0.00490303
v 0.00093761 0.02454353 -0.00490204
v 0.00118752 0.02443699 -0.00495166
v 0.00180073 0.02433743 -0.00497646
v 0.00180073 0.02432696 -0.00498143
v 0.00168734 0.02443524 -0.00493380
v 0.00118752 0.02488935 -0.00452595
v 0.00093761 0.02489808 -0.00453985
v 0.00081260 0.02489983 -0.00454381
v 0.00180073 0.02481949 -0.00456168
v 0.00069118 0.02489808 -0.00454580
v 0.00069118 0.02454528 -0.00490403
v 0.00081260 0.02460815 -0.00486433
v 0.00093761 0.02460641 -0.00486235
v 0.00118752 0.02453480 -0.00489807
v 0.00180073 0.02443524 -0.00492883
v 0.00118752 0.02484918 -0.00458847
v 0.00093761 0.02485791 -0.00460236
v 0.00081260 0.02485966 -0.00460633
v 0.00069118 0.02485791 -0.00460931
v 0.00180073 0.02476360 -0.00464503
v 0.00069118 0.02460641 -0.00486532
v 0.00069118 0.02467976 -0.00480380
v 0.00081260 0.02468151 -0.00480182
v 0.00093761 0.02467976 -0.00479983
v 0.00118752 0.02459767 -0.00485540
v 0.00180073 0.02451733 -0.00488021
v 0.00180073 0.02451035 -0.00488517
v 0.00168734 0.02451558 -0.00488716
v 0.00118752 0.02478630 -0.00466984
v 0.00093761 0.02479504 -0.00467976
v 0.00081260 0.02479678 -0.00468175
v 0.00069118 0.02479678 -0.00468373
v 0.00118752 0.02473391 -0.00473235
v 0.00180073 0.02471470 -0.00470259
v 0.00069118 0.02474264 -0.00474625
v 0.00081260 0.02474439 -0.00474426
v 0.00118752 0.02467103 -0.00479289
v 0.00093761 0.02474264 -0.00474228
v 0.00131275 0.02459243 -0.00485243
v 0.00180073 0.02457322 -0.00483754
v 0.00180073 0.02465356 -0.00476907
v 0.00131275 0.02466579 -0.00478991
v 0.00168734 0.02465182 -0.00477899
f 1 2 6
f 1 6 11
f 1 11 7
f 1 7 3
f 1 3 4
f 1 4 5
f 1 5 2
f 2 5 10
f 2 10 21
f 2 21 27
f 2 27 34
f 2 34 43
f 2 43 52
f 2 52 59
f 2 59 69
f 2 69 78
f 2 78 90
f 2 90 97
f 2 97 104
f 2 104 111
f 2 111 118
f 2 118 128
f 2 128 140
f 2 140 152
f 2 152 160
f 2 160 169
f 2 169 178
f 2 178 191
f 2 191 203
f 2 203 214
f 2 214 226
f 2 226 238
f 2 238 247
f 2 247 260
f 2 260 263
f 2 263 250
f 2 250 249
f 2 249 239
f 2 239 227
f 2 227 215
f 2 215 204
f 2 204 192
f 2 192 180
f 2 180 171
f 2 171 163
f 2 163 154
f 2 154 144
f 2 144 132
f 2 132 120
f 2 120 113
f 2 113 106
f 2 106 99
f 2 99 92
f 2 92 82
f 2 82 70
f 2 70 60
f 2 60 53
f 2 53 44
f 2 44 35
f 2 35 28
f 2 28 22
f 2 22 12
f 2 12 6
f 3 7 16
f 3 16 23
f 3 23 29
f 3 29 37
f 3 37 36
f 3 36 45
f 3 45 54
f 3 54 63
f 3 63 72
f 3 72 71
f 3 71 81
f 3 81 91
f 3 91 98
f 3 98 105
f 3 105 112
f 3 112 119
f 3 119 129
f 3 129 131
f 3 131 142
f 3 142 153
f 3 153 161
f 3 161 170
f 3 170 179
f 3 179 182
f 3 182 194
f 3 194 209
f 3 209 210
f 3 210 219
f 3 219 232
f 3 232 231
f 3 231 243
f 3 243 255
f 3 255 254
f 3 254 268
f 3 268 269
f 3 269 262
f 3 262 248
f 3 248 237
f 3 237 224
f 3 224 212
f 3 212 198
f 3 198 186
f 3 186 175
f 3 175 164
f 3 164 156
f 3 156 147
f 3 147 133
f 3 133 121
f 3 121 114
f 3 114 107
f 3 107 100
f 3 100 93
f 3 93 85
f 3 85 83
f 3 83 74
f 3 74 73
f 3 73 64
f 3 64 55
f 3 55 46
f 3 46 38
f 3 38 30
f 3 30 24
f 3 24 17
f 3 17 8
f 3 8 9
f 3 9 4
f 4 10 5
f 4 9 10
f 6 12 13
f 6 13 14
f 6 14 15
f 6 15 11
f 7 11 16
f 8 17 9
f 9 17 18
f 9 18 19
f 9 19 10
f 10 19 20
f 10 20 21
f 11 15 16
f 12 22 13
f 13 22 16
f 13 16 14
f 14 16 15
f 16 22 23
f 17 24 25
f 17 25 20
f 17 20 18
f 18 20 19
f 20 25 26
f 20 26 21
f 21 26 27
f 22 28 23
f 23 28 29
f 24 30 31
f 24 31 32
f 24 32 25
f 25 32 26
f 26 32 41
f 26 41 33
f 26 33 34
f 26 34 27
f 28 35 36
f 28 36 37
f 28 37 29
f 30 38 39
f 30 39 40
f 30 40 41
f 30 41 31
f 31 41 32
f 33 41 42
f 33 42 43
f 33 43 34
f 35 44 36
f 36 44 45
f 38 46 47
f 38 47 48
f 38 48 39
f 39 48 40
f 40 48 49
f 40 49 41
f 41 49 42
f 42 49 50
f 42 50 51
f 42 51 43
f 43 51 52
f 44 53 45
f 45 53 54
f 46 55 56
f 46 56 47
f 47 56 50
f 47 50 48
f 48 50 49
f 50 56 57
f 50 57 58
f 50 58 51
f 51 58 52
f 52 58 59
f 53 60 61
f 53 61 54
f 54 62 63
f 54 61 62
f 55 64 57
f 55 57 56
f 57 65 66
f 57 66 68
f 57 68 58
f 57 64 67
f 57 67 65
f 58 68 59
f 59 68 69
f 60 70 81
f 60 81 71
f 60 71 72
f 60 72 62
f 60 62 61
f 62 72 63
f 64 73 67
f 65 67 74
f 65 74 75
f 65 75 76
f 65 76 66
f 66 76 77
f 66 77 68
f 67 73 74
f 68 77 78
f 68 78 69
f 70 79 80
f 70 80 81
f 70 82 79
f 74 83 84
f 74 84 75
f 75 84 85
f 75 85 86
f 75 86 87
f 75 87 76
f 76 87 88
f 76 88 89
f 76 89 77
f 77 89 90
f 77 90 78
f 79 82 91
f 79 91 80
f 80 91 81
f 82 92 91
f 83 85 84
f 85 93 94
f 85 94 95
f 85 95 86
f 86 95 87
f 87 95 88
f 88 95 96
f 88 96 89
f 89 96 90
f 90 96 97
f 91 92 98
f 92 99 98
f 93 100 101
f 93 101 94
f 94 101 95
f 95 101 102
f 95 102 103
f 95 103 96
f 96 103 104
f 96 104 97
f 98 99 105
f 99 106 105
f 100 107 108
f 100 108 109
f 100 109 101
f 101 109 102
f 102 109 103
f 103 109 110
f 103 110 111
f 103 111 104
f 105 106 113
f 105 113 112
f 107 114 115
f 107 115 116
f 107 116 109
f 107 109 108
f 109 116 117
f 109 117 110
f 110 117 111
f 111 117 118
f 112 113 119
f 113 120 119
f 114 121 122
f 114 122 123
f 114 123 124
f 114 124 115
f 115 124 125
f 115 125 126
f 115 126 116
f 116 126 127
f 116 127 117
f 117 127 128
f 117 128 118
f 119 120 129
f 120 130 131
f 120 131 129
f 120 132 130
f 121 133 134
f 121 134 135
f 121 135 122
f 122 135 136
f 122 136 137
f 122 137 138
f 122 138 123
f 123 138 125
f 123 125 124
f 125 138 126
f 126 138 139
f 126 139 127
f 127 139 128
f 128 139 140
f 130 141 131
f 130 132 141
f 131 141 143
f 131 143 142
f 132 144 155
f 132 155 161
f 132 161 153
f 132 153 145
f 132 145 146
f 132 146 143
f 132 143 141
f 133 147 148
f 133 148 149
f 133 149 134
f 134 149 150
f 134 150 136
f 134 136 135
f 136 150 138
f 136 138 137
f 138 150 139
f 139 150 151
f 139 151 152
f 139 152 140
f 142 143 146
f 142 146 145
f 142 145 153
f 144 154 162
f 144 162 155
f 147 156 166
f 147 166 157
f 147 157 148
f 148 157 149
f 149 157 158
f 149 158 150
f 150 158 159
f 150 159 151
f 151 159 160
f 151 160 152
f 154 163 162
f 155 162 161
f 156 164 165
f 156 165 166
f 157 166 167
f 157 167 158
f 158 167 168
f 158 168 159
f 159 168 169
f 159 169 160
f 161 162 170
f 162 163 170
f 163 171 172
f 163 172 170
f 164 173 174
f 164 174 165
f 164 175 173
f 165 174 166
f 166 174 176
f 166 176 167
f 167 176 177
f 167 177 168
f 168 177 178
f 168 178 169
f 170 172 179
f 171 180 181
f 171 181 172
f 172 182 179
f 172 181 183
f 172 183 182
f 173 175 184
f 173 184 185
f 173 185 176
f 173 176 174
f 175 186 187
f 175 187 188
f 175 188 189
f 175 189 184
f 176 185 190
f 176 190 177
f 177 190 178
f 178 190 191
f 180 192 193
f 180 193 181
f 181 193 183
f 182 183 194
f 183 193 195
f 183 195 194
f 184 189 196
f 184 196 185
f 185 196 189
f 185 189 187
f 185 187 197
f 185 197 190
f 186 198 199
f 186 199 200
f 186 200 187
f 187 189 188
f 187 200 201
f 187 201 197
f 190 197 202
f 190 202 203
f 190 203 191
f 192 204 193
f 193 204 205
f 193 205 206
f 193 206 207
f 193 207 195
f 194 195 208
f 194 208 209
f 195 207 210
f 195 210 208
f 197 201 211
f 197 211 213
f 197 213 202
f 198 212 199
f 199 212 201
f 199 201 200
f 201 212 211
f 202 213 214
f 202 214 203
f 204 215 205
f 205 215 216
f 205 216 206
f 206 216 217
f 206 217 218
f 206 218 219
f 206 219 220
f 206 220 207
f 207 220 210
f 208 210 209
f 210 220 219
f 211 212 221
f 211 221 222
f 211 222 223
f 211 223 213
f 212 224 225
f 212 225 221
f 213 223 214
f 214 223 226
f 215 227 228
f 215 228 216
f 216 228 229
f 216 229 217
f 217 229 230
f 217 230 218
f 218 231 232
f 218 232 219
f 218 230 233
f 218 233 231
f 221 225 234
f 221 234 222
f 222 234 235
f 222 235 223
f 223 235 236
f 223 236 226
f 224 237 225
f 225 237 234
f 226 236 238
f 227 239 228
f 228 239 240
f 228 240 229
f 229 240 241
f 229 241 242
f 229 242 230
f 230 242 233
f 231 233 243
f 233 242 243
f 234 237 244
f 234 244 245
f 234 245 235
f 235 245 246
f 235 246 236
f 236 246 247
f 236 247 238
f 237 248 244
f 239 249 240
f 240 250 251
f 240 251 252
f 240 252 241
f 240 249 250
f 241 252 265
f 241 265 253
f 241 253 254
f 241 254 255
f 241 255 256
f 241 256 242
f 242 256 243
f 243 256 255
f 244 248 245
f 245 248 257
f 245 257 258
f 245 258 246
f 246 258 259
f 246 259 260
f 246 260 247
f 248 261 257
f 248 262 261
f 250 263 264
f 250 264 251
f 251 264 266
f 251 266 252
f 252 266 265
f 253 265 270
f 253 270 267
f 253 267 254
f 254 267 268
f 257 261 266
f 257 266 258
f 258 266 264
f 258 264 259
f 259 264 260
f 260 264 263
f 261 262 269
f 261 269 266
f 265 266 270
f 266 269 271
f 266 271 270
f 267 270 271
f 267 271 268
f 268 271 269

