# https://github.com/mikedh/trimesh
v 0.00069112 0.02505352 0.00045137
v 0.00069112 0.02505352 -0.00393728
v 0.00025726 0.02505352 0.00045137
v 0.00069112 0.00740868 0.00045137
v 0.00069112 0.02504834 -0.00406209
v 0.00025726 0.02505352 -0.00393728
v 0.00025726 0.00742769 0.00045137
v 0.00069078 0.00739831 0.00045137
v 0.00069112 0.00739831 0.00044057
v 0.00025726 0.02504834 -0.00406209
v 0.00069112 0.02503278 -0.00418691
v 0.00025726 0.00742596 -0.00390486
v 0.00026355 0.00742596 0.00045137
v 0.00068747 0.00739831 0.00045137
v 0.00069112 0.00739831 -0.00393728
v 0.00025726 0.02503278 -0.00418691
v 0.00069112 0.02501032 -0.00429012
v 0.00025726 0.02502068 -0.00424365
v 0.00025726 0.00742596 -0.00393728
v 0.00068747 0.00739831 -0.00393728
v 0.00069112 0.00744670 -0.00406209
v 0.00025726 0.02499995 -0.00432362
v 0.00025726 0.02501032 -0.00428850
v 0.00069112 0.02498958 -0.00435334
v 0.00068747 0.02499131 -0.00435118
v 0.00025726 0.00746398 -0.00405183
v 0.00068747 0.00744670 -0.00406209
v 0.00069112 0.00749681 -0.00412640
v 0.00025726 0.02499131 -0.00435118
v 0.00069112 0.02495501 -0.00443709
v 0.00025726 0.00751237 -0.00411451
v 0.00069112 0.00762124 -0.00425121
v 0.00025726 0.02495501 -0.00443709
v 0.00069112 0.02489971 -0.00454624
v 0.00068747 0.02490144 -0.00454462
v 0.00025726 0.00829005 -0.00489206
v 0.00069112 0.00837474 -0.00500229
v 0.00068747 0.00837474 -0.00500229
v 0.00025726 0.02490144 -0.00454462
v 0.00069112 0.02485996 -0.00460838
v 0.00068747 0.02486169 -0.00460676
v 0.00025726 0.00838856 -0.00498932
v 0.00068747 0.00843868 -0.00503633
v 0.00069112 0.00843868 -0.00503579
v 0.00025726 0.00845078 -0.00503417
v 0.00025726 0.02486169 -0.00460676
v 0.00069112 0.02479775 -0.00468457
v 0.00025726 0.02482713 -0.00464945
v 0.00031251 0.02479948 -0.00468349
v 0.00025726 0.00850089 -0.00504930
v 0.00025726 0.00856656 -0.00506875
v 0.00069112 0.00856656 -0.00506875
v 0.00069112 0.02474245 -0.00474671
v 0.00068747 0.02474417 -0.00474509
v 0.00025726 0.02474590 -0.00474617
v 0.00025726 0.02479948 -0.00468349
v 0.00025726 0.02381095 -0.00506875
v 0.00069112 0.02381095 -0.00506875
v 0.00069112 0.02468023 -0.00480398
v 0.00031251 0.02468369 -0.00480236
v 0.00025726 0.02471134 -0.00477751
v 0.00025726 0.02393711 -0.00506821
v 0.00069112 0.02393711 -0.00506821
v 0.00068747 0.02460938 -0.00486450
v 0.00069112 0.02460765 -0.00486558
v 0.00025726 0.02468369 -0.00480236
v 0.00025726 0.02406154 -0.00506227
v 0.00043754 0.02406154 -0.00506227
v 0.00069112 0.02406154 -0.00506173
v 0.00069112 0.02454716 -0.00490395
v 0.00025726 0.02454716 -0.00490449
v 0.00025726 0.02460938 -0.00486450
v 0.00025726 0.02418597 -0.00504552
v 0.00031251 0.02418597 -0.00504552
v 0.00056248 0.02418597 -0.00504498
v 0.00069112 0.02418597 -0.00504443
v 0.00069112 0.02443483 -0.00496392
v 0.00043754 0.02443656 -0.00496338
v 0.00025726 0.02443656 -0.00496284
v 0.00025726 0.02430176 -0.00501688
v 0.00069112 0.02430176 -0.00501688
v 0.00069112 0.02436224 -0.00499688
v 0.00068747 0.02436397 -0.00499634
v 0.00031251 0.02436397 -0.00499634
v 0.00025726 0.02436397 -0.00499580
v 0.00025726 0.02432941 -0.00500769
f 1 2 6
f 1 6 3
f 1 3 7
f 1 7 13
f 1 13 14
f 1 14 8
f 1 8 4
f 1 4 9
f 1 9 15
f 1 15 21
f 1 21 28
f 1 28 32
f 1 32 37
f 1 37 44
f 1 44 52
f 1 52 58
f 1 58 63
f 1 63 69
f 1 69 76
f 1 76 81
f 1 81 82
f 1 82 77
f 1 77 70
f 1 70 65
f 1 65 59
f 1 59 53
f 1 53 47
f 1 47 40
f 1 40 34
f 1 34 30
f 1 30 24
f 1 24 17
f 1 17 11
f 1 11 5
f 1 5 2
f 2 5 10
f 2 10 6
f 3 6 10
f 3 10 16
f 3 16 18
f 3 18 23
f 3 23 22
f 3 22 29
f 3 29 33
f 3 33 39
f 3 39 46
f 3 46 48
f 3 48 56
f 3 56 55
f 3 55 61
f 3 61 66
f 3 66 72
f 3 72 71
f 3 71 79
f 3 79 85
f 3 85 86
f 3 86 80
f 3 80 73
f 3 73 67
f 3 67 62
f 3 62 57
f 3 57 51
f 3 51 50
f 3 50 45
f 3 45 42
f 3 42 36
f 3 36 31
f 3 31 26
f 3 26 19
f 3 19 12
f 3 12 7
f 4 8 9
f 5 11 16
f 5 16 10
f 7 12 13
f 8 14 20
f 8 20 15
f 8 15 9
f 11 17 18
f 11 18 16
f 12 19 20
f 12 20 14
f 12 14 13
f 15 20 27
f 15 27 21
f 17 22 23
f 17 23 18
f 17 24 25
f 17 25 22
f 19 26 20
f 20 26 27
f 21 27 28
f 22 25 29
f 24 30 25
f 25 30 33
f 25 33 29
f 26 31 27
f 27 31 28
f 28 31 32
f 30 34 35
f 30 35 39
f 30 39 33
f 31 36 32
f 32 36 38
f 32 38 37
f 34 40 41
f 34 41 35
f 35 41 46
f 35 46 39
f 36 42 38
f 37 43 44
f 37 38 43
f 38 42 45
f 38 45 43
f 40 47 41
f 41 48 46
f 41 47 49
f 41 49 48
f 43 45 50
f 43 50 51
f 43 51 52
f 43 52 44
f 47 53 54
f 47 54 55
f 47 55 49
f 48 49 56
f 49 55 56
f 51 57 58
f 51 58 52
f 53 59 55
f 53 55 54
f 55 59 60
f 55 60 61
f 57 62 63
f 57 63 58
f 59 64 60
f 59 65 64
f 60 64 72
f 60 72 66
f 60 66 61
f 62 67 68
f 62 68 63
f 63 68 69
f 64 65 70
f 64 70 71
f 64 71 72
f 67 73 74
f 67 74 68
f 68 74 69
f 69 74 75
f 69 75 76
f 70 77 78
f 70 78 71
f 71 78 79
f 73 80 81
f 73 81 74
f 74 81 75
f 75 81 76
f 77 82 83
f 77 83 78
f 78 83 84
f 78 84 79
f 79 84 85
f 80 86 84
f 80 84 83
f 80 83 81
f 81 83 82
f 84 86 85

