# https://github.com/mikedh/trimesh
v 0.00000397 0.02381096 0.00506875
v -0.00089484 0.02381096 0.00506875
v 0.00000397 0.00856450 0.00506875
v 0.00025726 0.02380923 0.00506776
v 0.00000397 0.02393729 0.00506776
v -0.00089484 0.00856277 0.00506875
v -0.00089484 0.02393729 0.00506776
v -0.00060941 0.00856277 0.00506875
v -0.00089484 0.00848144 0.00505386
v 0.00025726 0.00856450 0.00506776
v 0.00025726 0.02393210 0.00506676
v 0.00025726 0.02405843 0.00506180
v 0.00000397 0.02405670 0.00506280
v -0.00060941 0.02406189 0.00506280
v -0.00089484 0.02406189 0.00506280
v -0.00089484 0.00843817 0.00504394
v 0.00025726 0.00845029 0.00503303
v 0.00000397 0.02412593 0.00505386
v 0.00025726 0.02418304 0.00504493
v 0.00000397 0.02418477 0.00504593
v -0.00060941 0.02418650 0.00504593
v -0.00081229 0.02418650 0.00504593
v -0.00089484 0.02418650 0.00504493
v -0.00089484 0.00838798 0.00502112
v -0.00089484 0.00836549 0.00501020
v 0.00025726 0.00838798 0.00498837
v 0.00025726 0.02424880 0.00502906
v 0.00000397 0.02430072 0.00501616
v -0.00060941 0.02425918 0.00502707
v -0.00081229 0.02430072 0.00501616
v -0.00089484 0.02429552 0.00501516
v -0.00089484 0.00830145 0.00494868
v -0.00089484 0.00761095 0.00426299
v -0.00089484 0.00750712 0.00415979
v 0.00025726 0.00819935 0.00480082
v 0.00025726 0.02430072 0.00501516
v 0.00000397 0.02436475 0.00499631
v -0.00060941 0.02436475 0.00499631
v -0.00081229 0.02436129 0.00499532
v -0.00089484 0.02436129 0.00499433
v -0.00089484 0.02431975 0.00500822
v -0.00089484 0.00748635 0.00413895
v 0.00025726 0.00751404 0.00411315
v 0.00025726 0.02436475 0.00499532
v 0.00025726 0.02440455 0.00497746
v -0.00068745 0.02443743 0.00496257
v -0.00081229 0.02443743 0.00496158
v -0.00089484 0.02443743 0.00496059
v -0.00089484 0.00743443 0.00407743
v 0.00025726 0.00746731 0.00405063
v 0.00025726 0.02443397 0.00496257
v 0.00000397 0.02443397 0.00496356
v 0.00000397 0.02454473 0.00490402
v -0.00060941 0.02450493 0.00492586
v -0.00060941 0.02454473 0.00490402
v -0.00081229 0.02454473 0.00490303
v -0.00089484 0.02454473 0.00490204
v -0.00089484 0.00741886 0.00405659
v -0.00089484 0.00737559 0.00394942
v 0.00025726 0.00744135 0.00397720
v 0.00025726 0.02454473 0.00490303
v 0.00025726 0.02460703 0.00486334
v -0.00060941 0.02460876 0.00486334
v -0.00081229 0.02460876 0.00486334
v -0.00089484 0.02460530 0.00486235
v -0.00089484 0.00737386 0.00381148
v 0.00025726 0.00742751 0.00393552
v 0.00025726 0.02471779 0.00477006
v 0.00000397 0.02464856 0.00483059
v -0.00060941 0.02465549 0.00482464
v -0.00081229 0.02468317 0.00480082
v -0.00089484 0.02470394 0.00478098
v -0.00089484 0.00737386 -0.00381149
v 0.00025726 0.00742578 0.00368546
v 0.00025726 0.02474375 0.00474625
v -0.00018763 0.02474721 0.00474724
v -0.00068745 0.02474721 0.00474625
v -0.00081229 0.02474548 0.00474625
v -0.00089484 0.02474375 0.00474426
v -0.00089484 0.00737559 -0.00393652
v 0.00025726 0.00742751 -0.00393552
v 0.00025726 0.00742578 -0.00374103
v 0.00025726 0.02477490 0.00471152
v 0.00000397 0.02479739 0.00468472
v -0.00043743 0.02479739 0.00468472
v -0.00081229 0.02479739 0.00468373
v -0.00089484 0.02479393 0.00468175
v -0.00089484 0.00740501 -0.00402086
v 0.00025726 0.00742924 -0.00394148
v 0.00025726 0.02483201 0.00463908
v 0.00000397 0.02483201 0.00464106
v -0.00060941 0.02483720 0.00463411
v -0.00081229 0.02485970 0.00460335
v -0.00089484 0.02485796 0.00460137
v -0.00089484 0.00741886 -0.00405659
v 0.00025726 0.00746731 -0.00405063
v 0.00025726 0.02485970 0.00460335
v 0.00000397 0.02486143 0.00460335
v -0.00060941 0.02488565 0.00456465
v -0.00081229 0.02489950 0.00454084
v -0.00089484 0.02489950 0.00453885
v -0.00089484 0.00748635 -0.00413796
v 0.00025726 0.00751404 -0.00411315
v 0.00025726 0.02489604 0.00454084
v -0.00018763 0.02489950 0.00454084
v -0.00060941 0.02489950 0.00454183
v -0.00081229 0.02495488 0.00443664
v -0.00089484 0.02495315 0.00443664
v -0.00089484 0.00761095 -0.00426299
v 0.00025726 0.00782554 -0.00442573
v 0.00025726 0.02494969 0.00443565
v 0.00000397 0.02495315 0.00443664
v -0.00031247 0.02495488 0.00443664
v -0.00060941 0.02493411 0.00447634
v -0.00081229 0.02499122 0.00435031
v -0.00089484 0.02496526 0.00440787
v -0.00089484 0.00809205 -0.00474029
v 0.00025726 0.00835337 -0.00495265
v 0.00025726 0.02499122 0.00435031
v -0.00089484 0.02498949 0.00434535
v -0.00060941 0.02500333 0.00431161
v -0.00081229 0.02501026 0.00428780
v -0.00089484 0.00836549 -0.00500921
v 0.00025726 0.00838971 -0.00498837
v 0.00025726 0.02500853 0.00428780
v 0.00000397 0.02501026 0.00428780
v -0.00089484 0.02500853 0.00428284
v -0.00060941 0.02502583 0.00422528
v -0.00089484 0.02503102 0.00418658
v -0.00089484 0.00843990 -0.00504394
v 0.00025726 0.00845202 -0.00503303
v 0.00025726 0.02503275 0.00418658
v 0.00000397 0.02503275 0.00418658
v -0.00060941 0.02504314 0.00410918
v -0.00081229 0.02504833 0.00406155
v -0.00089484 0.02504660 0.00406155
v -0.00060941 0.00856450 -0.00506875
v 0.00000397 0.00856796 -0.00506875
v 0.00025726 0.00856623 -0.00506776
v -0.00089484 0.00856450 -0.00506875
v 0.00025726 0.02504141 0.00411613
v 0.00000397 0.02504141 0.00411910
v 0.00000397 0.02504833 0.00406155
v -0.00068745 0.02505352 0.00393652
v -0.00089484 0.02505006 0.00393652
v 0.00000397 0.02381096 -0.00506875
v 0.00025726 0.02393383 -0.00506776
v -0.00089484 0.02381096 -0.00506875
v 0.00025726 0.02504660 0.00406155
v 0.00025726 0.02505179 0.00397720
v 0.00000397 0.02505352 0.00393652
v -0.00068745 0.02505352 -0.00393652
v -0.00089484 0.02505006 -0.00393652
v -0.00081229 0.02393383 -0.00506776
v 0.00025726 0.02405843 -0.00506180
v -0.00089484 0.02393383 -0.00506677
v 0.00025726 0.02505352 0.00393552
v -0.00060941 0.02505352 -0.00393751
v -0.00081229 0.02504833 -0.00406155
v -0.00089484 0.02504660 -0.00406155
v -0.00081229 0.02406016 -0.00506081
v 0.00000397 0.02405843 -0.00506180
v 0.00006250 0.02418477 -0.00504493
v 0.00025726 0.02418477 -0.00504394
v -0.00089484 0.02406016 -0.00505982
v 0.00025726 0.02505352 -0.00393552
v 0.00000397 0.02505352 -0.00393751
v 0.00000397 0.02504833 -0.00406155
v 0.00000397 0.02503275 -0.00418658
v -0.00089484 0.02503102 -0.00418658
v -0.00089484 0.02504141 -0.00410422
v -0.00081229 0.02418477 -0.00504394
v -0.00060941 0.02418304 -0.00504493
v 0.00000397 0.02418477 -0.00504493
v 0.00025726 0.02429899 -0.00501616
v -0.00089484 0.02418477 -0.00504295
v 0.00025726 0.02504660 -0.00406155
v 0.00025726 0.02503275 -0.00418658
v -0.00081229 0.02501026 -0.00428780
v -0.00089484 0.02500853 -0.00428284
v -0.00089484 0.02429379 -0.00501616
v -0.00081229 0.02429552 -0.00501616
v -0.00060941 0.02422803 -0.00503402
v 0.00000397 0.02429899 -0.00501616
v 0.00025726 0.02436129 -0.00499532
v 0.00000397 0.02502064 -0.00424017
v -0.00060941 0.02501026 -0.00428780
v 0.00025726 0.02500679 -0.00428780
v -0.00060941 0.02499122 -0.00435131
v -0.00081229 0.02499122 -0.00435031
v -0.00089484 0.02498949 -0.00434535
v -0.00089484 0.02435609 -0.00499333
v -0.00068745 0.02435956 -0.00499433
v -0.00060941 0.02432148 -0.00500822
v 0.00000397 0.02436129 -0.00499532
v 0.00025726 0.02443570 -0.00496257
v 0.00000397 0.02499122 -0.00435131
v 0.00025726 0.02498949 -0.00435031
v -0.00081229 0.02495488 -0.00443664
v -0.00089484 0.02495315 -0.00443664
v -0.00089484 0.02440974 -0.00497051
v -0.00081229 0.02443397 -0.00496158
v -0.00060941 0.02438898 -0.00498242
v 0.00018746 0.02443570 -0.00496257
v -0.00060941 0.02454473 -0.00490403
v 0.00025726 0.02454473 -0.00490303
v 0.00025726 0.02497045 -0.00439894
v 0.00025726 0.02495488 -0.00443664
v -0.00081229 0.02489950 -0.00454381
v -0.00089484 0.02493411 -0.00447336
v -0.00089484 0.02443397 -0.00495959
v -0.00089484 0.02454473 -0.00490303
v -0.00081229 0.02454473 -0.00490403
v -0.00060941 0.02447724 -0.00493975
v -0.00060941 0.02460876 -0.00486433
v 0.00025726 0.02460703 -0.00486334
v 0.00025726 0.02489950 -0.00454381
v -0.00060941 0.02487527 -0.00458252
v -0.00081229 0.02485970 -0.00460633
v -0.00089484 0.02485970 -0.00460435
v -0.00089484 0.02489777 -0.00454183
v -0.00089484 0.02460530 -0.00486235
v -0.00081229 0.02460876 -0.00486334
v -0.00068745 0.02460876 -0.00486433
v -0.00006268 0.02468317 -0.00480182
v 0.00000397 0.02464337 -0.00483456
v 0.00018746 0.02468144 -0.00480182
v 0.00025726 0.02467971 -0.00480182
v 0.00025726 0.02485970 -0.00460633
v -0.00081229 0.02479913 -0.00468472
v -0.00089484 0.02479739 -0.00468274
v -0.00089484 0.02465549 -0.00482067
v -0.00089484 0.02474548 -0.00474525
v -0.00081229 0.02474721 -0.00474724
v -0.00068745 0.02468317 -0.00480182
v -0.00060941 0.02474721 -0.00474724
v 0.00025726 0.02474375 -0.00474525
v 0.00025726 0.02479739 -0.00468274
v -0.00060941 0.02479913 -0.00468472
f 1 2 6
f 1 6 8
f 1 8 3
f 1 3 10
f 1 10 4
f 1 4 5
f 1 5 7
f 1 7 2
f 2 7 15
f 2 15 23
f 2 23 31
f 2 31 41
f 2 41 40
f 2 40 48
f 2 48 57
f 2 57 65
f 2 65 72
f 2 72 79
f 2 79 87
f 2 87 94
f 2 94 101
f 2 101 108
f 2 108 116
f 2 116 120
f 2 120 127
f 2 127 129
f 2 129 136
f 2 136 145
f 2 145 153
f 2 153 160
f 2 160 171
f 2 171 170
f 2 170 180
f 2 180 191
f 2 191 200
f 2 200 210
f 2 210 221
f 2 221 220
f 2 220 231
f 2 231 233
f 2 233 232
f 2 232 222
f 2 222 212
f 2 212 211
f 2 211 201
f 2 201 192
f 2 192 181
f 2 181 176
f 2 176 165
f 2 165 156
f 2 156 148
f 2 148 140
f 2 140 130
f 2 130 123
f 2 123 117
f 2 117 109
f 2 109 102
f 2 102 95
f 2 95 88
f 2 88 80
f 2 80 73
f 2 73 66
f 2 66 59
f 2 59 58
f 2 58 49
f 2 49 42
f 2 42 34
f 2 34 33
f 2 33 32
f 2 32 25
f 2 25 24
f 2 24 16
f 2 16 9
f 2 9 6
f 3 8 9
f 3 9 10
f 4 10 17
f 4 17 26
f 4 26 35
f 4 35 43
f 4 43 50
f 4 50 60
f 4 60 67
f 4 67 74
f 4 74 82
f 4 82 81
f 4 81 89
f 4 89 96
f 4 96 103
f 4 103 110
f 4 110 118
f 4 118 124
f 4 124 131
f 4 131 139
f 4 139 147
f 4 147 155
f 4 155 164
f 4 164 175
f 4 175 185
f 4 185 196
f 4 196 206
f 4 206 216
f 4 216 228
f 4 228 237
f 4 237 238
f 4 238 229
f 4 229 217
f 4 217 208
f 4 208 207
f 4 207 198
f 4 198 188
f 4 188 178
f 4 178 177
f 4 177 166
f 4 166 157
f 4 157 150
f 4 150 149
f 4 149 141
f 4 141 132
f 4 132 125
f 4 125 119
f 4 119 111
f 4 111 104
f 4 104 97
f 4 97 90
f 4 90 83
f 4 83 75
f 4 75 68
f 4 68 62
f 4 62 61
f 4 61 51
f 4 51 45
f 4 45 44
f 4 44 36
f 4 36 27
f 4 27 19
f 4 19 12
f 4 12 11
f 4 11 5
f 5 11 12
f 5 12 13
f 5 13 14
f 5 14 15
f 5 15 7
f 6 9 8
f 9 16 10
f 10 16 17
f 12 18 13
f 12 19 20
f 12 20 18
f 13 18 14
f 14 18 20
f 14 20 21
f 14 21 22
f 14 22 15
f 15 22 23
f 16 24 17
f 17 24 25
f 17 25 26
f 19 27 20
f 20 27 28
f 20 28 21
f 21 28 29
f 21 29 22
f 22 29 30
f 22 30 23
f 23 30 31
f 25 32 26
f 26 32 33
f 26 33 34
f 26 34 35
f 27 36 28
f 28 36 44
f 28 44 37
f 28 37 38
f 28 38 30
f 28 30 29
f 30 38 39
f 30 39 40
f 30 40 41
f 30 41 31
f 34 42 43
f 34 43 35
f 37 44 45
f 37 45 46
f 37 46 38
f 38 40 39
f 38 46 47
f 38 47 48
f 38 48 40
f 42 49 43
f 43 49 58
f 43 58 50
f 45 51 52
f 45 52 46
f 46 52 53
f 46 53 54
f 46 54 55
f 46 55 56
f 46 56 47
f 47 56 57
f 47 57 48
f 50 58 59
f 50 59 60
f 51 61 53
f 51 53 52
f 53 55 54
f 53 61 62
f 53 62 63
f 53 63 64
f 53 64 55
f 55 64 56
f 56 64 57
f 57 64 65
f 59 66 67
f 59 67 60
f 62 68 69
f 62 69 63
f 63 69 64
f 64 69 70
f 64 70 71
f 64 71 72
f 64 72 65
f 66 73 82
f 66 82 74
f 66 74 67
f 68 75 76
f 68 76 69
f 69 76 70
f 70 76 71
f 71 76 77
f 71 77 78
f 71 78 72
f 72 78 79
f 73 80 81
f 73 81 82
f 75 83 76
f 76 83 84
f 76 84 85
f 76 85 77
f 77 85 86
f 77 86 78
f 78 86 79
f 79 86 87
f 80 88 96
f 80 96 89
f 80 89 81
f 83 90 91
f 83 91 84
f 84 91 85
f 85 91 92
f 85 92 86
f 86 92 93
f 86 93 94
f 86 94 87
f 88 95 96
f 90 97 98
f 90 98 91
f 91 98 92
f 92 98 93
f 93 98 99
f 93 99 100
f 93 100 101
f 93 101 94
f 95 102 103
f 95 103 96
f 97 104 105
f 97 105 98
f 98 105 106
f 98 106 99
f 99 106 100
f 100 106 107
f 100 107 101
f 101 107 108
f 102 109 110
f 102 110 103
f 104 111 112
f 104 112 105
f 105 112 113
f 105 113 106
f 106 113 114
f 106 114 107
f 107 114 113
f 107 113 119
f 107 119 115
f 107 115 116
f 107 116 108
f 109 117 118
f 109 118 110
f 111 119 112
f 112 119 113
f 115 120 116
f 115 119 121
f 115 121 122
f 115 122 127
f 115 127 120
f 117 123 118
f 118 123 124
f 119 125 126
f 119 126 121
f 121 126 122
f 122 126 128
f 122 128 129
f 122 129 127
f 123 130 131
f 123 131 124
f 125 132 126
f 126 132 128
f 128 132 133
f 128 133 134
f 128 134 129
f 129 134 135
f 129 135 136
f 130 137 138
f 130 138 139
f 130 139 131
f 130 140 137
f 132 141 142
f 132 142 134
f 132 134 133
f 134 142 143
f 134 143 135
f 135 143 151
f 135 151 144
f 135 144 145
f 135 145 136
f 137 140 148
f 137 148 146
f 137 146 138
f 138 146 147
f 138 147 139
f 141 149 143
f 141 143 142
f 143 149 150
f 143 150 157
f 143 157 151
f 144 151 157
f 144 157 166
f 144 166 167
f 144 167 158
f 144 158 152
f 144 152 153
f 144 153 145
f 146 148 154
f 146 154 147
f 147 154 162
f 147 162 155
f 148 156 154
f 152 158 159
f 152 159 153
f 153 159 160
f 154 156 165
f 154 165 161
f 154 161 162
f 155 163 164
f 155 162 174
f 155 174 163
f 158 167 168
f 158 168 159
f 159 168 178
f 159 178 169
f 159 169 170
f 159 170 171
f 159 171 160
f 161 165 176
f 161 176 172
f 161 172 173
f 161 173 162
f 162 173 174
f 163 175 164
f 163 174 184
f 163 184 175
f 166 177 168
f 166 168 167
f 168 177 178
f 169 178 187
f 169 187 179
f 169 179 170
f 170 179 180
f 172 176 181
f 172 181 182
f 172 182 183
f 172 183 173
f 173 183 174
f 174 183 184
f 175 184 195
f 175 195 185
f 178 186 187
f 178 188 186
f 179 187 197
f 179 197 189
f 179 189 190
f 179 190 191
f 179 191 180
f 181 192 193
f 181 193 182
f 182 193 194
f 182 194 184
f 182 184 183
f 184 194 195
f 185 195 204
f 185 204 196
f 186 188 197
f 186 197 187
f 188 198 197
f 189 197 208
f 189 208 199
f 189 199 190
f 190 199 200
f 190 200 191
f 192 201 202
f 192 202 193
f 193 202 203
f 193 203 195
f 193 195 194
f 195 203 204
f 196 205 206
f 196 204 213
f 196 213 205
f 197 198 207
f 197 207 208
f 199 208 217
f 199 217 209
f 199 209 200
f 200 209 210
f 201 211 202
f 202 211 212
f 202 212 213
f 202 213 214
f 202 214 204
f 202 204 203
f 204 214 213
f 205 215 206
f 205 213 224
f 205 224 215
f 206 215 216
f 209 217 218
f 209 218 219
f 209 219 220
f 209 220 221
f 209 221 210
f 212 222 223
f 212 223 213
f 213 223 224
f 215 225 226
f 215 226 216
f 215 224 235
f 215 235 225
f 216 226 227
f 216 227 228
f 217 229 218
f 218 229 219
f 219 229 239
f 219 239 230
f 219 230 220
f 220 230 231
f 222 232 223
f 223 232 233
f 223 233 234
f 223 234 224
f 224 234 235
f 225 236 237
f 225 237 227
f 225 227 226
f 225 235 234
f 225 234 236
f 227 237 228
f 229 238 239
f 230 234 233
f 230 233 231
f 230 239 236
f 230 236 234
f 236 239 238
f 236 238 237

