# https://github.com/mikedh/trimesh
v -0.00491367 0.02331255 0.00506875
v -0.00491367 0.02276571 0.00506875
v -0.00491367 0.02343752 0.00506776
v -0.00531301 0.02331255 0.00506875
v -0.00710975 0.02276571 0.00506875
v -0.00491367 0.02276571 -0.00506875
v -0.00491367 0.02346135 0.00506676
v -0.00493758 0.02343752 0.00506776
v -0.00581286 0.02331255 0.00506577
v -0.00581286 0.02318758 0.00506875
v -0.00706302 0.02281267 0.00506875
v -0.00735968 0.02276571 0.00506776
v -0.00706302 0.02276571 -0.00506875
v -0.00491367 0.02331255 -0.00506875
v -0.00491367 0.02356267 0.00506180
v -0.00493758 0.02356267 0.00506180
v -0.00531301 0.02343752 0.00506478
v -0.00543797 0.02343752 0.00506379
v -0.00593782 0.02331255 0.00506379
v -0.00718799 0.02293764 0.00506478
v -0.00668759 0.02306261 0.00506577
v -0.00743791 0.02281267 0.00506676
v -0.00731295 0.02281267 0.00506776
v -0.00643767 0.02306261 0.00506776
v -0.00668759 0.02293764 0.00506875
v -0.00756287 0.02276571 0.00506676
v -0.00706302 0.02281267 -0.00506875
v -0.00731295 0.02276571 -0.00506776
v -0.00491367 0.02343752 -0.00506776
v -0.00531301 0.02331255 -0.00506875
v -0.00491367 0.02358650 0.00505883
v -0.00491367 0.02368747 0.00504493
v -0.00506254 0.02356267 0.00505883
v -0.00568790 0.02343752 0.00505783
v -0.00606278 0.02331255 0.00506081
v -0.00643767 0.02318758 0.00506280
v -0.00731295 0.02293764 0.00506280
v -0.00768784 0.02281267 0.00506280
v -0.00768784 0.02276571 0.00506478
v -0.00668759 0.02293764 -0.00506875
v -0.00731295 0.02281267 -0.00506776
v -0.00756287 0.02276571 -0.00506577
v -0.00493758 0.02343752 -0.00506776
v -0.00491367 0.02356267 -0.00506180
v -0.00581286 0.02318758 -0.00506875
v -0.00581286 0.02331255 -0.00506577
v -0.00491367 0.02371465 0.00503898
v -0.00506254 0.02368747 0.00503898
v -0.00556293 0.02356267 0.00504295
v -0.00543797 0.02356267 0.00504791
v -0.00581286 0.02343752 0.00505386
v -0.00618775 0.02331255 0.00505684
v -0.00706302 0.02306261 0.00505684
v -0.00743791 0.02293764 0.00505883
v -0.00781226 0.02281267 0.00505783
v -0.00798394 0.02276571 0.00505585
v -0.00785898 0.02276571 0.00506081
v -0.00773402 0.02276571 0.00506379
v -0.00756287 0.02281267 -0.00506379
v -0.00706302 0.02293764 -0.00506577
v -0.00643767 0.02306261 -0.00506776
v -0.00768784 0.02276571 -0.00506379
v -0.00531301 0.02343752 -0.00506478
v -0.00493758 0.02356267 -0.00506180
v -0.00491367 0.02368747 -0.00504493
v -0.00631271 0.02318758 -0.00506478
v -0.00593782 0.02331255 -0.00506379
v -0.00543797 0.02343752 -0.00506379
v -0.00491367 0.02380591 0.00501616
v -0.00493758 0.02380149 0.00501616
v -0.00518750 0.02368747 0.00503203
v -0.00606278 0.02343752 0.00504295
v -0.00593782 0.02343752 0.00504890
v -0.00581286 0.02356267 0.00502906
v -0.00643767 0.02331255 0.00504692
v -0.00718799 0.02306261 0.00505188
v -0.00768784 0.02293764 0.00504692
v -0.00793722 0.02281267 0.00505188
v -0.00810945 0.02276571 0.00504890
v -0.00718799 0.02293764 -0.00506379
v -0.00768784 0.02281267 -0.00506081
v -0.00793722 0.02276571 -0.00505585
v -0.00506254 0.02356267 -0.00505883
v -0.00543797 0.02356267 -0.00504791
v -0.00556293 0.02356267 -0.00504295
v -0.00506254 0.02368747 -0.00503898
v -0.00491367 0.02380255 -0.00501616
v -0.00606278 0.02331255 -0.00506081
v -0.00568790 0.02343752 -0.00505783
v -0.00491367 0.02382462 0.00501020
v -0.00556293 0.02367176 0.00501516
v -0.00518750 0.02377378 0.00500822
v -0.00568790 0.02365817 0.00501119
v -0.00618775 0.02343752 0.00503501
v -0.00706302 0.02318758 0.00503501
v -0.00594434 0.02357344 0.00501715
v -0.00606278 0.02354943 0.00501516
v -0.00731295 0.02306261 0.00504593
v -0.00743791 0.02306261 0.00503898
v -0.00818714 0.02281267 0.00503501
v -0.00806218 0.02281267 0.00504493
v -0.00823441 0.02276571 0.00504096
v -0.00731295 0.02293764 -0.00506081
v -0.00781226 0.02281267 -0.00505684
v -0.00743791 0.02293764 -0.00505684
v -0.00806218 0.02276571 -0.00504990
v -0.00581286 0.02343752 -0.00505387
v -0.00606278 0.02343752 -0.00504394
v -0.00568790 0.02356267 -0.00503700
v -0.00518750 0.02368747 -0.00503203
v -0.00493758 0.02379814 -0.00501616
v -0.00491367 0.02386310 -0.00499532
v -0.00656263 0.02318758 -0.00505883
v -0.00618775 0.02331255 -0.00505684
v -0.00491367 0.02386680 0.00499631
v -0.00556293 0.02373424 0.00499433
v -0.00581286 0.02364404 0.00500623
v -0.00656263 0.02341422 0.00501318
v -0.00718799 0.02318758 0.00502509
v -0.00590740 0.02363310 0.00500226
v -0.00618775 0.02353125 0.00501020
v -0.00743791 0.02316128 0.00501219
v -0.00756287 0.02306261 0.00502806
v -0.00860495 0.02276571 0.00500623
v -0.00847021 0.02276571 0.00501913
v -0.00706302 0.02306261 -0.00505585
v -0.00793722 0.02281267 -0.00505089
v -0.00756287 0.02293764 -0.00505188
v -0.00818714 0.02276571 -0.00504196
v -0.00806218 0.02281267 -0.00504394
v -0.00681256 0.02318758 -0.00504890
v -0.00693752 0.02318758 -0.00504295
v -0.00656263 0.02331255 -0.00503997
v -0.00618775 0.02343752 -0.00503600
v -0.00581286 0.02356267 -0.00503005
v -0.00631271 0.02331255 -0.00505188
v -0.00556293 0.02367105 -0.00501516
v -0.00518750 0.02377325 -0.00500822
v -0.00538962 0.02375278 -0.00500028
v -0.00518750 0.02383574 -0.00498440
v -0.00491367 0.02393547 -0.00496456
v -0.00491367 0.02387687 0.00499234
v -0.00506254 0.02385003 0.00499036
v -0.00568790 0.02372065 0.00498837
v -0.00668759 0.02339622 0.00500723
v -0.00706302 0.02327884 0.00501020
v -0.00581286 0.02370635 0.00498242
v -0.00606278 0.02361192 0.00499532
v -0.00725373 0.02325113 0.00500028
v -0.00743791 0.02322377 0.00498936
v -0.00756287 0.02314098 0.00500524
v -0.00781226 0.02303260 0.00501119
v -0.00818714 0.02290163 0.00501020
v -0.00756287 0.02320347 0.00498143
v -0.00864081 0.02276571 0.00500127
v -0.00718799 0.02306261 -0.00505089
v -0.00768784 0.02293764 -0.00504593
v -0.00843707 0.02276571 -0.00502211
v -0.00818714 0.02281267 -0.00503402
v -0.00781226 0.02293764 -0.00503700
v -0.00743791 0.02306261 -0.00503799
v -0.00731295 0.02306261 -0.00504493
v -0.00706302 0.02318758 -0.00503501
v -0.00718799 0.02318758 -0.00502608
v -0.00743791 0.02316481 -0.00501318
v -0.00656263 0.02341564 -0.00501318
v -0.00606278 0.02355067 -0.00501516
v -0.00591283 0.02363469 -0.00500326
v -0.00581286 0.02364563 -0.00500723
v -0.00547274 0.02374342 -0.00499730
v -0.00568790 0.02372065 -0.00498837
v -0.00581286 0.02370812 -0.00498242
v -0.00531301 0.02382303 -0.00497845
v -0.00493758 0.02393741 -0.00496158
v -0.00491367 0.02405285 -0.00490403
v -0.00491367 0.02393564 0.00496555
v -0.00493758 0.02393741 0.00496257
v -0.00556293 0.02381244 0.00495860
v -0.00686200 0.02337080 0.00499829
v -0.00594434 0.02367970 0.00497944
v -0.00568790 0.02381244 0.00494570
v -0.00581286 0.02381244 0.00493082
v -0.00606278 0.02368747 0.00496158
v -0.00618775 0.02359374 0.00498837
v -0.00656263 0.02347671 0.00499135
v -0.00693752 0.02335933 0.00499433
v -0.00718799 0.02332332 0.00497944
v -0.00743791 0.02331255 0.00495066
v -0.00865494 0.02276571 0.00499929
v -0.00756287 0.02331255 0.00493280
v -0.00781226 0.02318758 0.00494868
v -0.00768023 0.02317699 0.00497448
v -0.00756287 0.02306261 -0.00502906
v -0.00860061 0.02276571 -0.00500524
v -0.00843707 0.02279502 -0.00501516
v -0.00768458 0.02306932 -0.00501516
v -0.00756287 0.02314451 -0.00500623
v -0.00743791 0.02322730 -0.00499135
v -0.00734338 0.02324089 -0.00499631
v -0.00599596 0.02362357 -0.00499929
v -0.00594760 0.02368058 -0.00498043
v -0.00581286 0.02381244 -0.00493181
v -0.00568790 0.02381244 -0.00494570
v -0.00556293 0.02381244 -0.00495860
v -0.00518750 0.02393741 -0.00493578
v -0.00493758 0.02404826 -0.00490403
v -0.00491367 0.02411357 -0.00486632
v -0.00491367 0.02396141 0.00495166
v -0.00491367 0.02404967 0.00490402
v -0.00506254 0.02393741 0.00494967
v -0.00493758 0.02404508 0.00490402
v -0.00556293 0.02391640 0.00490204
v -0.00593945 0.02382215 0.00490700
v -0.00606278 0.02379673 0.00490402
v -0.00618775 0.02368747 0.00494471
v -0.00568790 0.02390334 0.00489410
v -0.00581286 0.02388993 0.00488517
v -0.00656263 0.02356267 0.00495265
v -0.00693752 0.02343752 0.00496059
v -0.00706302 0.02343752 0.00494372
v -0.00886737 0.02276571 0.00496555
v -0.00718799 0.02343752 0.00492586
v -0.00756287 0.02339587 0.00488815
v -0.00768892 0.02332085 0.00490601
v -0.00893746 0.02281267 0.00493181
v -0.00881250 0.02281267 0.00495364
v -0.00865222 0.02276571 -0.00499830
v -0.00772370 0.02311539 -0.00499631
v -0.00756287 0.02320700 -0.00498341
v -0.00743791 0.02331255 -0.00495364
v -0.00718799 0.02332526 -0.00498043
v -0.00706302 0.02334344 -0.00498837
v -0.00618775 0.02359462 -0.00498837
v -0.00631271 0.02357679 -0.00498043
v -0.00606278 0.02368747 -0.00496257
v -0.00594543 0.02382374 -0.00490899
v -0.00556293 0.02391888 -0.00490204
v -0.00531301 0.02393741 -0.00492189
v -0.00506254 0.02403449 -0.00489708
v -0.00546677 0.02399231 -0.00486929
v -0.00543037 0.02405091 -0.00482762
v -0.00491367 0.02419335 -0.00480082
v -0.00518750 0.02402108 -0.00488914
v -0.00538364 0.02400148 -0.00487525
v -0.00491367 0.02406344 0.00489509
v -0.00506254 0.02403202 0.00489609
v -0.00589925 0.02388057 0.00487822
v -0.00598237 0.02387033 0.00487128
v -0.00618775 0.02377943 0.00489410
v -0.00631271 0.02368747 0.00492586
v -0.00668759 0.02356267 0.00493578
v -0.00518750 0.02401861 0.00488815
v -0.00537223 0.02399919 0.00487426
v -0.00543797 0.02399213 0.00486929
v -0.00581286 0.02395241 0.00483853
v -0.00898038 0.02276571 0.00494669
v -0.00668759 0.02364634 0.00488914
v -0.00730697 0.02344441 0.00490303
v -0.00718799 0.02351307 0.00488319
v -0.00726188 0.02350336 0.00487624
v -0.00734501 0.02349065 0.00486830
v -0.00764872 0.02338298 0.00487922
v -0.00781226 0.02328996 0.00489807
v -0.00893746 0.02289686 0.00488815
v -0.00918739 0.02278866 0.00489708
v -0.00918739 0.02276571 0.00490899
v -0.00871253 0.02276571 -0.00498936
v -0.00868699 0.02280455 -0.00497845
v -0.00781226 0.02309880 -0.00499036
v -0.00793722 0.02307514 -0.00498143
v -0.00781226 0.02318758 -0.00495265
v -0.00756287 0.02331255 -0.00493380
v -0.00668759 0.02356267 -0.00493578
v -0.00656263 0.02356267 -0.00495463
v -0.00618775 0.02368747 -0.00494570
v -0.00631271 0.02368747 -0.00492685
v -0.00606278 0.02379920 -0.00490403
v -0.00599215 0.02387281 -0.00487326
v -0.00590903 0.02388198 -0.00487922
v -0.00581286 0.02389187 -0.00488616
v -0.00556293 0.02398136 -0.00486136
v -0.00594543 0.02392911 -0.00483556
v -0.00581286 0.02402955 -0.00477602
v -0.00543797 0.02413281 -0.00475716
v -0.00493649 0.02419688 -0.00479388
v -0.00491367 0.02422760 -0.00477205
v -0.00491367 0.02411022 0.00486334
v -0.00593945 0.02392823 0.00483456
v -0.00602638 0.02400713 0.00475617
v -0.00606604 0.02394712 0.00479487
v -0.00606278 0.02385921 0.00486334
v -0.00631271 0.02376196 0.00488319
v -0.00581286 0.02403026 0.00477602
v -0.00593782 0.02401702 0.00476510
v -0.00706302 0.02353002 0.00489410
v -0.00638280 0.02375207 0.00487624
v -0.00686363 0.02362163 0.00487227
v -0.00668759 0.02370865 0.00484449
v -0.00718799 0.02357573 0.00483754
v -0.00756287 0.02345835 0.00484449
v -0.00773130 0.02336815 0.00487029
v -0.00901896 0.02288204 0.00487922
v -0.00910263 0.02286686 0.00486929
v -0.00930148 0.02276571 0.00488418
v -0.00881250 0.02276571 -0.00497448
v -0.00881250 0.02281267 -0.00495563
v -0.00818714 0.02306261 -0.00494669
v -0.00793722 0.02318758 -0.00492983
v -0.00718799 0.02343752 -0.00492486
v -0.00781226 0.02328837 -0.00489906
v -0.00768621 0.02331979 -0.00490601
v -0.00764329 0.02338157 -0.00487922
v -0.00756287 0.02339393 -0.00488716
v -0.00743791 0.02341158 -0.00489906
v -0.00668759 0.02364528 -0.00488914
v -0.00638606 0.02375295 -0.00487723
v -0.00756287 0.02345641 -0.00484250
v -0.00756287 0.02353672 -0.00477999
v -0.00731295 0.02363522 -0.00475816
v -0.00690003 0.02375684 -0.00475518
v -0.00650395 0.02387598 -0.00475022
v -0.00606387 0.02394676 -0.00479487
v -0.00602312 0.02400590 -0.00475518
v -0.00593782 0.02401578 -0.00476411
v -0.00550589 0.02412610 -0.00475022
v -0.00497778 0.02424490 -0.00474426
v -0.00491367 0.02427279 -0.00472739
v -0.00491367 0.02422036 0.00477403
v -0.00610951 0.02399513 0.00474525
v -0.00650504 0.02387616 0.00475121
v -0.00718799 0.02365322 0.00477502
v -0.00668759 0.02378720 0.00478197
v -0.00568790 0.02410598 0.00473037
v -0.00581286 0.02409274 0.00471548
v -0.00593782 0.02407968 0.00469862
v -0.00600791 0.02412698 0.00462717
v -0.00631271 0.02382444 0.00483655
v -0.00618775 0.02384192 0.00485044
v -0.00497181 0.02424401 0.00474426
v -0.00756287 0.02353690 0.00478197
v -0.00768892 0.02342976 0.00483456
v -0.00893746 0.02295935 0.00484647
v -0.00918739 0.02285115 0.00485838
v -0.00936070 0.02276571 0.00486731
v -0.00886900 0.02276571 -0.00496555
v -0.00893746 0.02276571 -0.00495463
v -0.00893746 0.02281267 -0.00493380
v -0.00906351 0.02282079 -0.00490601
v -0.00881250 0.02292052 -0.00490204
v -0.00818714 0.02315846 -0.00489609
v -0.00831211 0.02313639 -0.00488219
v -0.00800894 0.02325324 -0.00487723
v -0.00781226 0.02335086 -0.00485739
v -0.00768621 0.02342887 -0.00483258
v -0.00768784 0.02351696 -0.00476411
v -0.00737869 0.02362604 -0.00475022
v -0.00610679 0.02399460 -0.00474426
v -0.00746236 0.02361368 -0.00473831
v -0.00658763 0.02386310 -0.00473831
v -0.00593782 0.02407827 -0.00469862
v -0.00581286 0.02409204 -0.00471549
v -0.00568790 0.02410598 -0.00473037
v -0.00558956 0.02411692 -0.00474129
v -0.00600791 0.02412681 -0.00462717
v -0.00568790 0.02416088 -0.00466785
v -0.00491367 0.02430262 -0.00469365
v -0.00491367 0.02424984 0.00474922
v -0.00618775 0.02403890 0.00467083
v -0.00618775 0.02398383 0.00473335
v -0.00746236 0.02361404 0.00473831
v -0.00737869 0.02362604 0.00475022
v -0.00731295 0.02363540 0.00475915
v -0.00506254 0.02423430 0.00473434
v -0.00506254 0.02428991 0.00467182
v -0.00518750 0.02427649 0.00465694
v -0.00581286 0.02414746 0.00465297
v -0.00593782 0.02413440 0.00463709
v -0.00609104 0.02411533 0.00461030
v -0.00648711 0.02399601 0.00461923
v -0.00640398 0.02400802 0.00463511
v -0.00548089 0.02424578 0.00461824
v -0.00556293 0.02423695 0.00460435
v -0.00568790 0.02426184 0.00452000
v -0.00593782 0.02418188 0.00456168
v -0.00605463 0.02415205 0.00456565
v -0.00491367 0.02427632 0.00472045
v -0.00491367 0.02430067 0.00469365
v -0.00491367 0.02431762 0.00467480
v -0.00768784 0.02351678 0.00476510
v -0.00780574 0.02344300 0.00478991
v -0.00793722 0.02340875 0.00477899
v -0.00893746 0.02303825 0.00478395
v -0.00932430 0.02281090 0.00484647
v -0.00917924 0.02294240 0.00478792
v -0.00931235 0.02290551 0.00477701
v -0.00939221 0.02276571 0.00485739
v -0.00906025 0.02276571 -0.00493280
v -0.00918739 0.02276571 -0.00490998
v -0.00918739 0.02278937 -0.00489807
v -0.00893746 0.02289775 -0.00488914
v -0.00865711 0.02301160 -0.00488219
v -0.00910589 0.02286792 -0.00487029
v -0.00845826 0.02310939 -0.00486433
v -0.00793722 0.02332861 -0.00484052
v -0.00793722 0.02340946 -0.00477800
v -0.00776173 0.02350425 -0.00475319
v -0.00756287 0.02359921 -0.00472144
v -0.00618775 0.02398242 -0.00473235
v -0.00618775 0.02403873 -0.00466984
v -0.00756287 0.02365393 -0.00465892
v -0.00706302 0.02378808 -0.00466984
v -0.00631271 0.02402037 -0.00464999
v -0.00593782 0.02413422 -0.00463709
v -0.00581286 0.02414728 -0.00465297
v -0.00688264 0.02387687 -0.00462717
v -0.00648711 0.02399619 -0.00461923
v -0.00609104 0.02411533 -0.00460931
v -0.00605463 0.02415152 -0.00456565
v -0.00593782 0.02418100 -0.00456168
v -0.00568790 0.02426078 -0.00451901
v -0.00568790 0.02422336 -0.00458152
v -0.00548089 0.02424578 -0.00461824
v -0.00518750 0.02427649 -0.00465694
v -0.00491367 0.02436846 -0.00461427
v -0.00756287 0.02365358 0.00465892
v -0.00756287 0.02359939 0.00472144
v -0.00491367 0.02436846 0.00461526
v -0.00531301 0.02426325 0.00464106
v -0.00539777 0.02425443 0.00463015
v -0.00618775 0.02413987 0.00452496
v -0.00714235 0.02387969 0.00450809
v -0.00762210 0.02374907 0.00449817
v -0.00753897 0.02376072 0.00451702
v -0.00706302 0.02385057 0.00458847
v -0.00743791 0.02373407 0.00460137
v -0.00735913 0.02374536 0.00461824
v -0.00688156 0.02387669 0.00462717
v -0.00727600 0.02375737 0.00463411
v -0.00556293 0.02427526 0.00454183
v -0.00493758 0.02440446 0.00454878
v -0.00515545 0.02438134 0.00451107
v -0.00576613 0.02425337 0.00450511
v -0.00584926 0.02424437 0.00448824
v -0.00593782 0.02423483 0.00446840
v -0.00606333 0.02422265 0.00443168
v -0.00906242 0.02301583 0.00476411
v -0.00776010 0.02350389 0.00475319
v -0.00956227 0.02276571 0.00479983
v -0.00913251 0.02300295 0.00475220
v -0.00921618 0.02298742 0.00473632
v -0.00940091 0.02288680 0.00476014
v -0.00966550 0.02276571 0.00476411
v -0.00959107 0.02276571 0.00478991
v -0.00930420 0.02276571 -0.00488418
v -0.00931235 0.02276571 -0.00488219
v -0.00918739 0.02285185 -0.00485937
v -0.00893746 0.02296023 -0.00484647
v -0.00856203 0.02309068 -0.00485044
v -0.00831211 0.02319888 -0.00483655
v -0.00856203 0.02317064 -0.00478792
v -0.00806218 0.02338686 -0.00476014
v -0.00812575 0.02337557 -0.00475022
v -0.00784485 0.02348889 -0.00473831
v -0.00768784 0.02357944 -0.00469961
v -0.00768784 0.02363504 -0.00463709
v -0.00736131 0.02374589 -0.00461923
v -0.00727763 0.02375737 -0.00463412
v -0.00539777 0.02425443 -0.00463015
v -0.00531301 0.02426325 -0.00464106
v -0.00743791 0.02377484 -0.00453985
v -0.00753843 0.02376054 -0.00451702
v -0.00656263 0.02402408 -0.00453985
v -0.00618775 0.02413969 -0.00452496
v -0.00606441 0.02422248 -0.00443168
v -0.00593782 0.02423413 -0.00446939
v -0.00584709 0.02424384 -0.00448825
v -0.00506254 0.02438999 -0.00452595
v -0.00523423 0.02437163 -0.00449321
v -0.00493758 0.02436581 -0.00461030
v -0.00493758 0.02440358 -0.00454778
v -0.00491367 0.02439317 -0.00457358
v -0.00766502 0.02363804 0.00464106
v -0.00769870 0.02358809 0.00468472
v -0.00491367 0.02440641 0.00455374
v -0.00626435 0.02412893 0.00450611
v -0.00674573 0.02399848 0.00449618
v -0.00757320 0.02378561 0.00444855
v -0.00768784 0.02376813 0.00441382
v -0.00768784 0.02373883 0.00447634
v -0.00790951 0.02363751 0.00451901
v -0.00781226 0.02365516 0.00454481
v -0.00769870 0.02367387 0.00457358
v -0.00757320 0.02372224 0.00455969
v -0.00618775 0.02418559 0.00443664
v -0.00650287 0.02412557 0.00437611
v -0.00491367 0.02441894 0.00453091
v -0.00491367 0.02447119 0.00443267
v -0.00523912 0.02437251 0.00449420
v -0.00531301 0.02436457 0.00447832
v -0.00549937 0.02437463 0.00437413
v -0.00593782 0.02426484 0.00440588
v -0.00602258 0.02425549 0.00438604
v -0.00793722 0.02347124 0.00471945
v -0.00931235 0.02296800 0.00471548
v -0.00906242 0.02307832 0.00469961
v -0.00917054 0.02305608 0.00468075
v -0.00931235 0.02302607 0.00465297
v -0.00939602 0.02300913 0.00463511
v -0.00944003 0.02293887 0.00468869
v -0.00948458 0.02286792 0.00474228
v -0.00973450 0.02276571 0.00473434
v -0.00939004 0.02276571 -0.00485937
v -0.00931235 0.02282661 -0.00483952
v -0.00931235 0.02290639 -0.00477701
v -0.00918087 0.02294293 -0.00478892
v -0.00906242 0.02301689 -0.00476510
v -0.00893746 0.02303949 -0.00478396
v -0.00868699 0.02314787 -0.00477006
v -0.00913468 0.02300365 -0.00475319
v -0.00848977 0.02324636 -0.00474625
v -0.00856203 0.02323312 -0.00473235
v -0.00820942 0.02336003 -0.00473434
v -0.00839578 0.02338263 -0.00463412
v -0.00779759 0.02355685 -0.00468175
v -0.00775032 0.02362516 -0.00462419
v -0.00743791 0.02373460 -0.00460236
v -0.00666097 0.02401013 -0.00451702
v -0.00762210 0.02374889 -0.00449718
v -0.00626435 0.02412875 -0.00450611
v -0.00618775 0.02418612 -0.00443664
v -0.00602366 0.02425584 -0.00438703
v -0.00593782 0.02426537 -0.00440688
v -0.00491367 0.02447066 -0.00443268
v -0.00531301 0.02436316 -0.00447733
v -0.00491367 0.02440552 -0.00455275
v -0.00774760 0.02362445 0.00462320
v -0.00793722 0.02352755 0.00465694
v -0.00780574 0.02354255 0.00469266
v -0.00634748 0.02411710 0.00448328
v -0.00737652 0.02387528 0.00437512
v -0.00776607 0.02375578 0.00438703
v -0.00799264 0.02362251 0.00449420
v -0.00780954 0.02371853 0.00443267
v -0.00900266 0.02325113 0.00450114
v -0.00912490 0.02312509 0.00462419
v -0.00781226 0.02361280 0.00460732
v -0.00610571 0.02424472 0.00435825
v -0.00658599 0.02411375 0.00433940
v -0.00698153 0.02399460 0.00435825
v -0.00491367 0.02448248 0.00440886
v -0.00541570 0.02438346 0.00439298
v -0.00531301 0.02439440 0.00441581
v -0.00593782 0.02429891 0.00431161
v -0.00491367 0.02449925 0.00437115
v -0.00496963 0.02449343 0.00435428
v -0.00493215 0.02451443 0.00431260
v -0.00503103 0.02450631 0.00427093
v -0.00564171 0.02437834 0.00426200
v -0.00606333 0.02426872 0.00431459
v -0.00920803 0.02310903 0.00460236
v -0.00931941 0.02309368 0.00456068
v -0.00943731 0.02304002 0.00456763
v -0.00947915 0.02299095 0.00461228
v -0.00973994 0.02287074 0.00461923
v -0.00992955 0.02276571 0.00464205
v -0.00981220 0.02276571 0.00469762
v -0.00956227 0.02276571 -0.00480082
v -0.00956227 0.02278901 -0.00478296
v -0.00940199 0.02288733 -0.00476014
v -0.00921781 0.02298812 -0.00473732
v -0.00906242 0.02307938 -0.00470060
v -0.00906242 0.02313622 -0.00463808
v -0.00912490 0.02312509 -0.00462419
v -0.00811488 0.02349648 -0.00461923
v -0.00803121 0.02351113 -0.00463808
v -0.00779976 0.02364916 -0.00456168
v -0.00768784 0.02368623 -0.00456168
v -0.00757320 0.02372242 -0.00455969
v -0.00674464 0.02399831 -0.00449618
v -0.00768784 0.02373866 -0.00447634
v -0.00768784 0.02376813 -0.00441382
v -0.00757320 0.02378578 -0.00444855
v -0.00650395 0.02412593 -0.00437711
v -0.00722493 0.02386769 -0.00448527
v -0.00790951 0.02363751 -0.00451901
v -0.00634748 0.02411710 -0.00448428
v -0.00643767 0.02413546 -0.00439596
v -0.00630836 0.02414993 -0.00444061
v -0.00610679 0.02424507 -0.00436024
v -0.00606441 0.02426996 -0.00431558
v -0.00593782 0.02430067 -0.00431161
v -0.00549937 0.02437463 -0.00437413
v -0.00491367 0.02448213 -0.00440886
v -0.00875925 0.02325360 0.00462915
v -0.00746019 0.02386345 0.00433840
v -0.00768784 0.02380591 0.00431161
v -0.00806218 0.02363963 0.00440588
v -0.00780954 0.02376725 0.00430764
v -0.00784920 0.02374077 0.00434535
v -0.00813064 0.02362728 0.00437909
v -0.00806218 0.02360962 0.00446840
v -0.00872176 0.02336480 0.00447832
v -0.00908579 0.02323595 0.00447038
v -0.00936559 0.02312156 0.00449221
v -0.00928246 0.02313727 0.00451901
v -0.00917489 0.02314892 0.00456068
v -0.00615189 0.02425760 0.00427490
v -0.00663272 0.02412698 0.00425604
v -0.00655177 0.02413493 0.00430367
v -0.00702880 0.02400784 0.00427490
v -0.00706737 0.02398401 0.00431459
v -0.00593782 0.02432909 0.00418658
v -0.00491367 0.02450967 0.00433940
v -0.00491367 0.02451831 0.00431260
v -0.00511416 0.02449749 0.00423620
v -0.00491367 0.02454903 0.00418658
v -0.00572484 0.02436934 0.00421833
v -0.00956227 0.02301530 0.00452298
v -0.00998714 0.02276571 0.00461129
v -0.00993716 0.02276571 0.00463808
v -0.01006755 0.02276571 0.00455870
v -0.00966061 0.02276571 -0.00476609
v -0.00966333 0.02276571 -0.00476510
v -0.00948566 0.02286862 -0.00474327
v -0.00931235 0.02296906 -0.00471747
v -0.00931235 0.02302695 -0.00465495
v -0.00917163 0.02305661 -0.00468075
v -0.00847945 0.02336745 -0.00461427
v -0.00939656 0.02300966 -0.00463511
v -0.00920803 0.02310974 -0.00460236
v -0.00799264 0.02362251 -0.00449420
v -0.00780954 0.02371853 -0.00443268
v -0.00776607 0.02375578 -0.00438703
v -0.00737815 0.02387563 -0.00437611
v -0.00698261 0.02399478 -0.00435924
v -0.00619318 0.02423501 -0.00431558
v -0.00893746 0.02326295 -0.00452000
v -0.00900266 0.02325113 -0.00450115
v -0.00615460 0.02425831 -0.00427688
v -0.00606278 0.02430262 -0.00418658
v -0.00593782 0.02433156 -0.00418658
v -0.00564334 0.02437887 -0.00426200
v -0.00568627 0.02435575 -0.00430764
v -0.00506852 0.02448548 -0.00431261
v -0.00496963 0.02449343 -0.00435428
v -0.00491367 0.02450967 -0.00433940
v -0.00755364 0.02384792 0.00430268
v -0.00750637 0.02387651 0.00425505
v -0.00768784 0.02383768 0.00418658
v -0.00914066 0.02325589 0.00438703
v -0.00788560 0.02375401 0.00426200
v -0.00825071 0.02362551 0.00425108
v -0.00817845 0.02363592 0.00430070
v -0.00821377 0.02361210 0.00433444
v -0.00849520 0.02349842 0.00436917
v -0.00931941 0.02316181 0.00444557
v -0.00962693 0.02300101 0.00450114
v -0.00941286 0.02314169 0.00440886
v -0.00944763 0.02310850 0.00444557
v -0.00606278 0.02429979 0.00418658
v -0.00623501 0.02424560 0.00422528
v -0.00711192 0.02399601 0.00422627
v -0.00568518 0.02438469 0.00418063
v -0.00575907 0.02437675 0.00413498
v -0.00593782 0.02434551 0.00406155
v -0.00606278 0.02431656 0.00406155
v -0.00514893 0.02450490 0.00415284
v -0.00518913 0.02448937 0.00419154
v -0.00491367 0.02455203 0.00416276
v -0.00988717 0.02288045 0.00450809
v -0.01010667 0.02276571 0.00453290
v -0.00973505 0.02276571 -0.00473533
v -0.00944111 0.02293923 -0.00468969
v -0.00917489 0.02314892 -0.00456168
v -0.00973994 0.02287056 -0.00461824
v -0.00947969 0.02299112 -0.00461228
v -0.00931941 0.02309438 -0.00456168
v -0.00965627 0.02288910 -0.00464106
v -0.00928246 0.02313727 -0.00451901
v -0.00872176 0.02336480 -0.00447832
v -0.00806218 0.02360962 -0.00446840
v -0.00806218 0.02363945 -0.00440588
v -0.00813064 0.02362710 -0.00437909
v -0.00784920 0.02374077 -0.00434634
v -0.00780954 0.02376760 -0.00430764
v -0.00768784 0.02380661 -0.00431161
v -0.00746127 0.02386380 -0.00433940
v -0.00706737 0.02398436 -0.00431558
v -0.00702880 0.02400802 -0.00427589
v -0.00936559 0.02312156 -0.00449221
v -0.00908579 0.02323595 -0.00446939
v -0.00663326 0.02412734 -0.00425704
v -0.00623827 0.02424648 -0.00423024
v -0.00619318 0.02426714 -0.00418857
v -0.00626435 0.02425407 -0.00414689
v -0.00606278 0.02431815 -0.00406155
v -0.00593782 0.02434710 -0.00406155
v -0.00576287 0.02437763 -0.00413895
v -0.00580797 0.02435998 -0.00418360
v -0.00572701 0.02436987 -0.00422230
v -0.00511416 0.02449749 -0.00423719
v -0.00503103 0.02450649 -0.00427093
v -0.00493215 0.02451443 -0.00431261
v -0.00491367 0.02451831 -0.00431261
v -0.00759167 0.02386539 0.00418658
v -0.00761666 0.02387245 0.00409033
v -0.00767643 0.02385780 0.00405460
v -0.00781226 0.02381350 0.00406155
v -0.00781226 0.02379690 0.00418658
v -0.00885977 0.02336957 0.00435726
v -0.00922379 0.02324071 0.00434436
v -0.00925910 0.02325360 0.00426100
v -0.00889562 0.02338280 0.00427390
v -0.00853215 0.02351184 0.00428581
v -0.00856909 0.02348695 0.00432154
v -0.00790842 0.02376213 0.00418658
v -0.00818714 0.02366099 0.00418658
v -0.00861528 0.02349666 0.00423123
v -0.00971005 0.02298230 0.00446443
v -0.00997030 0.02286191 0.00447336
v -0.01020501 0.02276571 0.00445649
v -0.00949599 0.02312333 0.00436917
v -0.00975624 0.02300295 0.00438107
v -0.01026043 0.02276571 0.00440687
v -0.01022403 0.02276571 0.00443962
v -0.00626109 0.02425302 0.00414193
v -0.00619101 0.02426537 0.00418460
v -0.00491367 0.02456456 0.00406155
v -0.00517120 0.02450967 0.00406155
v -0.00543797 0.02445265 0.00406155
v -0.00568790 0.02439917 0.00406155
v -0.00593782 0.02435116 0.00393652
v -0.00606278 0.02432221 0.00393652
v -0.00618775 0.02428885 0.00393652
v -0.00618775 0.02428302 0.00406155
v -0.01015829 0.02276571 0.00449519
v -0.01014145 0.02276571 0.00450908
v -0.00981220 0.02276571 -0.00469862
v -0.00981220 0.02279184 -0.00467083
v -0.00970136 0.02281884 -0.00469465
v -0.01003333 0.02276571 -0.00458053
v -0.00981220 0.02285450 -0.00459542
v -0.00993010 0.02276571 -0.00464205
v -0.00993716 0.02276571 -0.00463808
v -0.01010613 0.02276571 -0.00453389
v -0.00956227 0.02301530 -0.00452298
v -0.00943785 0.02304019 -0.00456664
v -0.00918304 0.02321794 -0.00443168
v -0.00913903 0.02325519 -0.00438604
v -0.00922216 0.02324001 -0.00434535
v -0.00926128 0.02325430 -0.00426200
v -0.00817791 0.02363610 -0.00430070
v -0.00788669 0.02375419 -0.00426299
v -0.00768784 0.02383750 -0.00418658
v -0.00750746 0.02387687 -0.00425604
v -0.00755473 0.02384827 -0.00430367
v -0.00742705 0.02388499 -0.00430367
v -0.00962693 0.02300101 -0.00450115
v -0.00997030 0.02286209 -0.00447336
v -0.01025989 0.02276571 -0.00440688
v -0.01001594 0.02288221 -0.00439001
v -0.00944655 0.02310815 -0.00444558
v -0.00941123 0.02314116 -0.00440886
v -0.00931941 0.02316110 -0.00444558
v -0.00711192 0.02399619 -0.00422826
v -0.00752973 0.02388340 -0.00418658
v -0.00713692 0.02400325 -0.00414490
v -0.00761558 0.02387228 -0.00409033
v -0.00674193 0.02412257 -0.00409430
v -0.00618775 0.02428461 -0.00406155
v -0.00618775 0.02428885 -0.00393652
v -0.00606278 0.02432221 -0.00393652
v -0.00577863 0.02438099 -0.00406155
v -0.00593782 0.02435116 -0.00393652
v -0.00515001 0.02450525 -0.00415383
v -0.00556293 0.02442688 -0.00406155
v -0.00531301 0.02448001 -0.00406155
v -0.00491367 0.02456474 -0.00406155
v -0.00493758 0.02454426 -0.00418658
v -0.00491367 0.02454920 -0.00418658
v -0.00491367 0.02454338 -0.00421040
v -0.00713529 0.02400272 0.00414292
v -0.00627685 0.02425760 0.00406155
v -0.00675334 0.02412575 0.00400896
v -0.00762753 0.02387545 0.00400697
v -0.00769001 0.02385745 0.00393652
v -0.00781226 0.02381756 0.00393652
v -0.00793667 0.02377255 0.00393652
v -0.00793124 0.02377043 0.00406155
v -0.00863646 0.02350425 0.00414788
v -0.00881576 0.02339922 0.00431459
v -0.00893746 0.02335474 0.00431459
v -0.00930528 0.02322218 0.00430665
v -0.00952587 0.02313657 0.00428581
v -0.00944763 0.02315969 0.00432154
v -0.00918739 0.02329490 0.00418658
v -0.00927921 0.02326101 0.00418658
v -0.00934169 0.02323789 0.00418658
v -0.00943731 0.02319852 0.00418658
v -0.00826755 0.02363169 0.00418658
v -0.00833003 0.02360892 0.00418658
v -0.00856909 0.02352137 0.00418857
v -0.00956553 0.02310780 0.00432154
v -0.01013112 0.02287780 0.00425803
v -0.01033106 0.02276571 0.00432749
v -0.01009961 0.02286403 0.00434138
v -0.01027238 0.02276571 0.00439497
v -0.01001648 0.02288257 0.00439001
v -0.00491367 0.02456880 0.00393652
v -0.00543797 0.02445742 0.00393652
v -0.00706302 0.02403802 0.00393652
v -0.01015829 0.02276571 -0.00449519
v -0.00988717 0.02288045 -0.00450809
v -0.00930637 0.02322200 -0.00430665
v -0.00944655 0.02316022 -0.00432054
v -0.00952696 0.02313727 -0.00428482
v -0.00943731 0.02320100 -0.00418658
v -0.00934549 0.02323912 -0.00418658
v -0.00928301 0.02326225 -0.00418658
v -0.00897984 0.02336798 -0.00421238
v -0.00861582 0.02349683 -0.00423223
v -0.00825125 0.02362551 -0.00425108
v -0.00781226 0.02379655 -0.00418658
v -0.00781226 0.02381261 -0.00406155
v -0.00767643 0.02385745 -0.00405361
v -0.00759221 0.02386539 -0.00418658
v -0.01020501 0.02276571 -0.00445649
v -0.01028705 0.02276571 -0.00437611
v -0.01032943 0.02276571 -0.00432551
v -0.00975515 0.02300260 -0.00438008
v -0.00949436 0.02312280 -0.00436817
v -0.00762753 0.02387545 -0.00400697
v -0.00675334 0.02412575 -0.00401094
v -0.00706302 0.02403802 -0.00393652
v -0.00543797 0.02445742 -0.00393652
v -0.00491367 0.02456880 -0.00393652
v -0.00762807 0.02387581 0.00393652
v -0.00769001 0.02385745 -0.00393652
v -0.00781226 0.02381756 -0.00393652
v -0.00893746 0.02340858 0.00393652
v -0.00793667 0.02377255 -0.00393652
v -0.00835285 0.02361704 0.00406155
v -0.00899994 0.02337504 0.00412506
v -0.00960900 0.02311821 0.00421238
v -0.00986979 0.02299801 0.00423818
v -0.00936559 0.02324671 0.00406155
v -0.00962693 0.02312598 0.00412903
v -0.00956553 0.02314416 0.00417765
v -0.01041691 0.02276571 0.00418658
v -0.01040984 0.02276571 0.00420047
v -0.01037942 0.02276571 0.00425902
v -0.01035986 0.02276571 0.00428879
v -0.01012895 0.02287709 -0.00425604
v -0.00986979 0.02299783 -0.00423818
v -0.00961008 0.02311857 -0.00421635
v -0.01009907 0.02286368 -0.00433940
v -0.00956608 0.02314557 -0.00417963
v -0.00962856 0.02312668 -0.00413300
v -0.00936777 0.02324742 -0.00406155
v -0.00900211 0.02337592 -0.00412903
v -0.00918739 0.02329720 -0.00418658
v -0.00833003 0.02360892 -0.00418658
v -0.00790788 0.02376196 -0.00418658
v -0.00793016 0.02377008 -0.00406155
v -0.01035442 0.02276571 -0.00428978
v -0.00762807 0.02387581 -0.00393652
v -0.00907709 0.02335774 0.00393652
v -0.00893746 0.02340858 -0.00393652
v -0.00828983 0.02363963 -0.00406155
v -0.00893746 0.02340434 -0.00406155
v -0.00930311 0.02326966 0.00406155
v -0.00931126 0.02327248 0.00393652
v -0.00937374 0.02324971 0.00393652
v -0.00993281 0.02297894 0.00419253
v -0.00943731 0.02321618 0.00406155
v -0.01041962 0.02276571 0.00417765
v -0.01014742 0.02288504 0.00418658
v -0.00956227 0.02316128 0.00406155
v -0.00969701 0.02310162 0.00406155
v -0.01043212 0.02277542 0.00406155
v -0.01040930 0.02276571 -0.00419253
v -0.01041256 0.02276571 -0.00418658
v -0.00988880 0.02300630 -0.00415483
v -0.01044299 0.02276571 -0.00409529
v -0.01045385 0.02276571 -0.00406155
v -0.00956227 0.02316252 -0.00406155
v -0.00943731 0.02321759 -0.00406155
v -0.00937374 0.02324971 -0.00393652
v -0.00918739 0.02331326 -0.00406155
v -0.00907709 0.02335774 -0.00393652
v -0.00931126 0.02327248 -0.00393652
v -0.00943731 0.02322200 0.00393652
v -0.01045385 0.02276571 0.00406155
v -0.00956227 0.02316711 0.00393652
v -0.00990619 0.02301407 0.00393652
v -0.01043701 0.02277772 0.00393652
v -0.01045983 0.02276571 -0.00398713
v -0.01043701 0.02277772 -0.00393652
v -0.00990619 0.02301407 -0.00393652
v -0.00956227 0.02316711 -0.00393652
v -0.00943731 0.02322200 -0.00393652
v -0.01045765 0.02276571 0.00401392
v -0.01046363 0.02276571 0.00393652
v -0.01046363 0.02276571 -0.00393652
f 1 2 6
f 1 6 14
f 1 14 29
f 1 29 44
f 1 44 65
f 1 65 87
f 1 87 112
f 1 112 141
f 1 141 175
f 1 175 207
f 1 207 242
f 1 242 286
f 1 286 327
f 1 327 366
f 1 366 424
f 1 424 481
f 1 481 535
f 1 535 533
f 1 533 593
f 1 593 646
f 1 646 704
f 1 704 781
f 1 781 780
f 1 780 778
f 1 778 836
f 1 836 809
f 1 809 728
f 1 728 669
f 1 669 616
f 1 616 614
f 1 614 613
f 1 613 554
f 1 554 550
f 1 550 497
f 1 497 496
f 1 496 484
f 1 484 427
f 1 427 388
f 1 388 387
f 1 387 386
f 1 386 367
f 1 367 328
f 1 328 287
f 1 287 245
f 1 245 209
f 1 209 208
f 1 208 176
f 1 176 142
f 1 142 115
f 1 115 90
f 1 90 69
f 1 69 47
f 1 47 32
f 1 32 31
f 1 31 15
f 1 15 7
f 1 7 3
f 1 3 8
f 1 8 4
f 1 4 10
f 1 10 25
f 1 25 11
f 1 11 5
f 1 5 2
f 2 5 12
f 2 12 26
f 2 26 39
f 2 39 58
f 2 58 57
f 2 57 56
f 2 56 79
f 2 79 102
f 2 102 125
f 2 125 124
f 2 124 155
f 2 155 189
f 2 189 221
f 2 221 256
f 2 256 266
f 2 266 304
f 2 304 344
f 2 344 396
f 2 396 448
f 2 448 453
f 2 453 452
f 2 452 511
f 2 511 566
f 2 566 565
f 2 565 620
f 2 620 619
f 2 619 621
f 2 621 671
f 2 671 737
f 2 737 736
f 2 736 721
f 2 721 725
f 2 725 724
f 2 724 807
f 2 807 805
f 2 805 852
f 2 852 851
f 2 851 850
f 2 850 849
f 2 849 876
f 2 876 893
f 2 893 902
f 2 902 903
f 2 903 904
f 2 904 897
f 2 897 885
f 2 885 884
f 2 884 882
f 2 882 881
f 2 881 865
f 2 865 829
f 2 829 828
f 2 828 760
f 2 760 827
f 2 827 812
f 2 812 745
f 2 745 741
f 2 741 744
f 2 744 743
f 2 743 738
f 2 738 672
f 2 672 623
f 2 623 622
f 2 622 567
f 2 567 512
f 2 512 455
f 2 455 454
f 2 454 398
f 2 398 397
f 2 397 346
f 2 346 345
f 2 345 305
f 2 305 267
f 2 267 227
f 2 227 194
f 2 194 158
f 2 158 129
f 2 129 106
f 2 106 82
f 2 82 62
f 2 62 42
f 2 42 28
f 2 28 13
f 2 13 6
f 3 7 8
f 4 8 9
f 4 9 10
f 5 11 23
f 5 23 12
f 6 13 27
f 6 27 40
f 6 40 45
f 6 45 30
f 6 30 14
f 7 15 16
f 7 16 8
f 8 16 17
f 8 17 9
f 9 17 18
f 9 18 19
f 9 19 37
f 9 37 20
f 9 20 21
f 9 21 22
f 9 22 23
f 9 23 24
f 9 24 10
f 10 24 23
f 10 23 25
f 11 25 23
f 12 23 26
f 13 28 41
f 13 41 27
f 14 30 43
f 14 43 29
f 15 31 16
f 16 31 32
f 16 32 33
f 16 33 34
f 16 34 18
f 16 18 17
f 18 34 35
f 18 35 19
f 19 35 36
f 19 36 37
f 20 22 21
f 20 37 38
f 20 38 22
f 22 26 23
f 22 38 39
f 22 39 26
f 27 41 40
f 28 42 41
f 29 43 64
f 29 64 44
f 30 45 46
f 30 46 43
f 32 47 48
f 32 48 49
f 32 49 50
f 32 50 33
f 33 50 34
f 34 50 51
f 34 51 52
f 34 52 35
f 35 52 53
f 35 53 37
f 35 37 36
f 37 53 54
f 37 54 38
f 38 54 55
f 38 55 56
f 38 56 57
f 38 57 58
f 38 58 39
f 40 41 45
f 41 42 62
f 41 62 59
f 41 59 80
f 41 80 60
f 41 60 46
f 41 46 61
f 41 61 45
f 43 46 63
f 43 63 64
f 44 64 65
f 45 61 46
f 46 60 66
f 46 66 67
f 46 67 68
f 46 68 63
f 47 69 48
f 48 69 70
f 48 70 71
f 48 71 74
f 48 74 49
f 49 72 73
f 49 73 51
f 49 51 50
f 49 74 72
f 51 73 75
f 51 75 52
f 52 75 76
f 52 76 53
f 53 76 54
f 54 76 98
f 54 98 77
f 54 77 78
f 54 78 55
f 55 78 56
f 56 78 79
f 59 62 81
f 59 81 103
f 59 103 80
f 60 80 66
f 62 82 81
f 63 68 64
f 64 68 89
f 64 89 83
f 64 83 65
f 65 83 84
f 65 84 85
f 65 85 86
f 65 86 87
f 66 80 67
f 67 80 103
f 67 103 88
f 67 88 89
f 67 89 68
f 69 90 70
f 70 91 71
f 70 90 92
f 70 92 93
f 70 93 91
f 71 91 74
f 72 75 73
f 72 74 94
f 72 94 95
f 72 95 99
f 72 99 75
f 74 91 93
f 74 93 96
f 74 96 97
f 74 97 94
f 75 98 76
f 75 99 98
f 77 98 99
f 77 99 100
f 77 100 101
f 77 101 78
f 78 101 79
f 79 101 102
f 81 82 104
f 81 104 105
f 81 105 103
f 82 106 127
f 82 127 104
f 83 89 84
f 84 89 107
f 84 107 108
f 84 108 85
f 85 108 109
f 85 109 86
f 86 109 135
f 86 135 110
f 86 110 111
f 86 111 87
f 87 111 112
f 88 103 113
f 88 113 114
f 88 114 107
f 88 107 89
f 90 115 92
f 92 115 116
f 92 116 93
f 93 116 117
f 93 117 96
f 94 97 95
f 95 97 118
f 95 118 119
f 95 119 99
f 96 117 120
f 96 120 97
f 97 121 118
f 97 120 121
f 99 119 122
f 99 122 123
f 99 123 100
f 100 123 124
f 100 124 125
f 100 125 102
f 100 102 101
f 103 105 126
f 103 126 113
f 104 127 157
f 104 157 128
f 104 128 105
f 105 128 156
f 105 156 126
f 106 129 130
f 106 130 127
f 107 114 136
f 107 136 108
f 108 131 132
f 108 132 133
f 108 133 134
f 108 134 135
f 108 135 109
f 108 136 131
f 110 135 137
f 110 137 111
f 111 137 138
f 111 138 112
f 112 138 139
f 112 139 140
f 112 140 141
f 113 126 114
f 114 126 156
f 114 156 136
f 115 142 116
f 116 142 143
f 116 143 144
f 116 144 120
f 116 120 117
f 118 121 145
f 118 145 146
f 118 146 119
f 119 146 122
f 120 144 147
f 120 147 148
f 120 148 121
f 121 148 145
f 122 146 149
f 122 149 150
f 122 150 151
f 122 151 152
f 122 152 123
f 123 152 153
f 123 153 124
f 124 153 152
f 124 152 151
f 124 151 154
f 124 154 155
f 127 130 157
f 128 157 162
f 128 162 156
f 129 158 159
f 129 159 130
f 130 159 160
f 130 160 157
f 131 136 156
f 131 156 162
f 131 162 132
f 132 161 163
f 132 163 133
f 132 162 161
f 133 163 134
f 134 163 164
f 134 164 165
f 134 165 166
f 134 166 167
f 134 167 135
f 135 167 168
f 135 168 169
f 135 169 137
f 137 169 138
f 138 169 139
f 139 170 140
f 139 169 170
f 140 171 172
f 140 172 173
f 140 173 174
f 140 174 141
f 140 170 171
f 141 174 175
f 142 176 177
f 142 177 143
f 143 177 178
f 143 178 144
f 144 178 147
f 145 148 146
f 146 148 179
f 146 179 149
f 147 180 148
f 147 178 181
f 147 181 182
f 147 182 183
f 147 183 180
f 148 180 184
f 148 184 185
f 148 185 179
f 149 179 186
f 149 186 187
f 149 187 150
f 150 154 151
f 150 187 188
f 150 188 154
f 154 189 155
f 154 188 190
f 154 190 191
f 154 191 192
f 154 192 189
f 157 160 193
f 157 193 161
f 157 161 162
f 158 194 195
f 158 195 159
f 159 195 193
f 159 193 160
f 161 193 164
f 161 164 163
f 164 193 165
f 165 193 196
f 165 196 197
f 165 197 198
f 165 198 199
f 165 199 200
f 165 200 168
f 165 168 166
f 166 168 167
f 168 200 201
f 168 201 172
f 168 172 171
f 168 171 170
f 168 170 169
f 172 201 202
f 172 202 203
f 172 203 204
f 172 204 173
f 173 204 174
f 174 204 203
f 174 203 205
f 174 205 206
f 174 206 175
f 175 206 207
f 176 208 177
f 177 208 209
f 177 209 210
f 177 210 181
f 177 181 178
f 179 185 186
f 180 183 184
f 181 210 211
f 181 211 212
f 181 212 182
f 182 213 214
f 182 214 215
f 182 215 183
f 182 212 216
f 182 216 217
f 182 217 213
f 183 215 251
f 183 251 218
f 183 218 184
f 184 218 219
f 184 219 187
f 184 187 185
f 185 187 186
f 187 219 220
f 187 220 188
f 188 220 222
f 188 222 190
f 189 192 221
f 190 222 223
f 190 223 224
f 190 224 225
f 190 225 226
f 190 226 191
f 191 226 221
f 191 221 192
f 193 195 196
f 194 227 228
f 194 228 197
f 194 197 195
f 195 197 196
f 197 228 229
f 197 229 198
f 198 229 230
f 198 230 231
f 198 231 232
f 198 232 200
f 198 200 199
f 200 232 233
f 200 233 201
f 201 233 234
f 201 234 235
f 201 235 202
f 202 236 237
f 202 237 238
f 202 238 203
f 202 235 236
f 203 238 205
f 205 238 206
f 206 238 239
f 206 239 207
f 207 240 241
f 207 241 242
f 207 239 243
f 207 243 244
f 207 244 240
f 209 245 211
f 209 211 210
f 211 245 246
f 211 246 216
f 211 216 212
f 213 217 247
f 213 247 214
f 214 247 248
f 214 248 249
f 214 249 250
f 214 250 215
f 215 250 251
f 216 246 252
f 216 252 217
f 217 252 253
f 217 253 254
f 217 254 255
f 217 255 247
f 218 251 220
f 218 220 219
f 220 251 222
f 221 226 256
f 222 251 257
f 222 257 258
f 222 258 223
f 223 259 260
f 223 260 261
f 223 261 262
f 223 262 224
f 223 258 259
f 224 262 263
f 224 263 264
f 224 264 265
f 224 265 266
f 224 266 225
f 225 266 256
f 225 256 226
f 227 267 268
f 227 268 269
f 227 269 228
f 228 269 229
f 229 269 270
f 229 270 271
f 229 271 272
f 229 272 230
f 230 272 273
f 230 273 274
f 230 274 231
f 231 274 232
f 232 274 234
f 232 234 233
f 234 274 235
f 235 274 275
f 235 275 236
f 236 275 276
f 236 276 277
f 236 277 278
f 236 278 279
f 236 279 280
f 236 280 237
f 237 280 243
f 237 243 239
f 237 239 238
f 240 281 241
f 240 244 279
f 240 279 278
f 240 278 281
f 241 281 282
f 241 282 283
f 241 283 284
f 241 284 285
f 241 285 242
f 242 285 286
f 243 280 244
f 244 280 279
f 245 252 246
f 245 287 252
f 247 255 288
f 247 288 248
f 248 288 289
f 248 289 290
f 248 290 291
f 248 291 292
f 248 292 249
f 249 292 257
f 249 257 250
f 250 257 251
f 252 287 253
f 253 287 254
f 254 287 255
f 255 287 293
f 255 293 294
f 255 294 288
f 257 292 260
f 257 260 259
f 257 259 295
f 257 295 258
f 258 295 259
f 260 292 296
f 260 296 297
f 260 297 261
f 261 297 298
f 261 298 299
f 261 299 300
f 261 300 262
f 262 264 263
f 262 300 301
f 262 301 264
f 264 301 302
f 264 302 265
f 265 302 303
f 265 303 304
f 265 304 266
f 267 305 268
f 268 270 269
f 268 305 306
f 268 306 270
f 270 306 271
f 271 306 307
f 271 307 308
f 271 308 272
f 272 309 273
f 272 308 310
f 272 310 311
f 272 311 312
f 272 312 313
f 272 313 314
f 272 314 309
f 273 309 276
f 273 276 275
f 273 275 274
f 276 309 314
f 276 314 315
f 276 315 316
f 276 316 277
f 277 316 278
f 278 316 317
f 278 317 318
f 278 318 319
f 278 319 320
f 278 320 321
f 278 321 322
f 278 322 323
f 278 323 282
f 278 282 281
f 282 323 324
f 282 324 283
f 283 324 325
f 283 325 284
f 284 286 285
f 284 325 326
f 284 326 286
f 286 326 327
f 287 328 293
f 288 294 289
f 289 329 330
f 289 330 331
f 289 331 332
f 289 332 299
f 289 299 298
f 289 298 290
f 289 294 333
f 289 333 334
f 289 334 335
f 289 335 336
f 289 336 329
f 290 298 337
f 290 337 338
f 290 338 291
f 291 338 296
f 291 296 292
f 293 328 339
f 293 339 294
f 294 339 333
f 296 338 297
f 297 338 298
f 298 338 337
f 299 332 331
f 299 331 340
f 299 340 300
f 300 341 301
f 300 340 341
f 301 341 342
f 301 342 343
f 301 343 303
f 301 303 302
f 303 343 304
f 304 343 344
f 305 345 306
f 306 345 346
f 306 346 347
f 306 347 307
f 307 347 308
f 308 347 348
f 308 348 349
f 308 349 350
f 308 350 310
f 310 350 351
f 310 351 312
f 310 312 311
f 312 316 313
f 312 351 352
f 312 352 353
f 312 353 354
f 312 354 317
f 312 317 316
f 313 316 314
f 314 316 315
f 317 354 355
f 317 355 318
f 318 355 356
f 318 356 319
f 319 356 320
f 320 356 321
f 321 357 323
f 321 323 322
f 321 356 358
f 321 358 359
f 321 359 357
f 323 360 361
f 323 361 362
f 323 362 363
f 323 363 324
f 323 357 364
f 323 364 360
f 324 363 325
f 325 363 326
f 326 363 362
f 326 362 365
f 326 365 366
f 326 366 327
f 328 367 339
f 329 368 369
f 329 369 370
f 329 370 330
f 329 336 368
f 330 371 372
f 330 372 331
f 330 370 371
f 331 372 340
f 333 339 373
f 333 373 374
f 333 374 334
f 334 374 375
f 334 375 376
f 334 376 377
f 334 377 335
f 335 377 336
f 336 378 379
f 336 379 380
f 336 380 368
f 336 377 381
f 336 381 382
f 336 382 383
f 336 383 384
f 336 384 385
f 336 385 378
f 339 367 386
f 339 386 387
f 339 387 388
f 339 388 374
f 339 374 373
f 340 372 371
f 340 371 370
f 340 370 389
f 340 389 341
f 341 389 390
f 341 390 391
f 341 391 392
f 341 392 342
f 342 392 343
f 343 393 344
f 343 392 394
f 343 394 395
f 343 395 393
f 344 393 396
f 346 397 347
f 347 397 398
f 347 398 348
f 348 398 399
f 348 399 400
f 348 400 349
f 349 400 350
f 350 400 401
f 350 401 351
f 351 401 402
f 351 402 352
f 352 402 403
f 352 403 353
f 353 403 404
f 353 404 354
f 354 404 355
f 355 404 405
f 355 405 406
f 355 406 407
f 355 407 358
f 355 358 356
f 357 359 408
f 357 408 409
f 357 409 364
f 358 407 410
f 358 410 411
f 358 411 412
f 358 412 409
f 358 409 359
f 359 409 408
f 360 364 413
f 360 413 361
f 361 413 362
f 362 413 414
f 362 414 365
f 364 415 416
f 364 416 417
f 364 417 418
f 364 418 419
f 364 419 420
f 364 420 421
f 364 421 422
f 364 422 413
f 364 409 412
f 364 412 415
f 365 414 423
f 365 423 366
f 366 423 424
f 368 370 369
f 368 380 370
f 370 425 426
f 370 426 389
f 370 380 425
f 374 388 427
f 374 427 375
f 375 428 377
f 375 377 376
f 375 427 428
f 377 429 381
f 377 428 429
f 378 385 430
f 378 430 431
f 378 431 432
f 378 432 433
f 378 433 379
f 379 434 435
f 379 435 436
f 379 436 437
f 379 437 380
f 379 433 434
f 380 437 438
f 380 438 425
f 381 429 427
f 381 427 382
f 382 439 383
f 382 427 440
f 382 440 441
f 382 441 439
f 383 439 441
f 383 441 442
f 383 442 384
f 384 442 443
f 384 443 444
f 384 444 385
f 385 444 445
f 385 445 430
f 389 446 392
f 389 392 391
f 389 391 390
f 389 426 447
f 389 447 446
f 392 446 394
f 393 395 448
f 393 448 396
f 394 446 395
f 395 446 449
f 395 449 450
f 395 450 451
f 395 451 452
f 395 452 453
f 395 453 448
f 398 454 399
f 399 454 402
f 399 402 400
f 400 402 401
f 402 454 455
f 402 455 456
f 402 456 457
f 402 457 458
f 402 458 403
f 403 458 404
f 404 459 405
f 404 458 459
f 405 460 461
f 405 461 406
f 405 459 457
f 405 457 460
f 406 462 463
f 406 463 464
f 406 464 407
f 406 461 462
f 407 464 465
f 407 465 410
f 410 465 466
f 410 466 467
f 410 467 415
f 410 415 411
f 411 415 412
f 413 422 468
f 413 468 469
f 413 469 423
f 413 423 414
f 415 467 466
f 415 466 416
f 416 466 470
f 416 470 471
f 416 471 417
f 417 471 472
f 417 472 473
f 417 473 418
f 418 473 474
f 418 474 475
f 418 475 419
f 419 475 476
f 419 476 420
f 420 477 422
f 420 422 421
f 420 476 478
f 420 478 477
f 422 479 424
f 422 424 468
f 422 477 480
f 422 480 481
f 422 481 479
f 423 469 424
f 424 479 481
f 424 469 468
f 425 438 482
f 425 482 426
f 426 482 483
f 426 483 447
f 427 484 440
f 427 429 428
f 430 445 485
f 430 485 431
f 431 485 486
f 431 486 432
f 432 487 488
f 432 488 489
f 432 489 490
f 432 490 491
f 432 491 492
f 432 492 493
f 432 493 435
f 432 435 433
f 432 486 494
f 432 494 495
f 432 495 487
f 433 435 434
f 435 493 482
f 435 482 436
f 436 482 438
f 436 438 437
f 440 484 496
f 440 496 441
f 441 497 498
f 441 498 442
f 441 496 497
f 442 498 443
f 443 498 499
f 443 499 500
f 443 500 444
f 444 501 502
f 444 502 445
f 444 500 501
f 445 494 485
f 445 502 494
f 446 447 449
f 447 483 503
f 447 503 449
f 449 503 450
f 450 504 451
f 450 503 505
f 450 505 506
f 450 506 507
f 450 507 508
f 450 508 504
f 451 504 509
f 451 509 510
f 451 510 511
f 451 511 452
f 455 512 456
f 456 512 513
f 456 513 514
f 456 514 515
f 456 515 516
f 456 516 517
f 456 517 457
f 457 517 460
f 457 459 458
f 460 517 518
f 460 518 461
f 461 518 462
f 462 518 516
f 462 516 519
f 462 519 520
f 462 520 521
f 462 521 522
f 462 522 463
f 463 522 523
f 463 523 524
f 463 524 464
f 464 524 525
f 464 525 465
f 465 525 526
f 465 526 466
f 466 526 471
f 466 471 470
f 471 527 472
f 471 526 528
f 471 528 527
f 472 527 473
f 473 527 529
f 473 529 474
f 474 530 531
f 474 531 475
f 474 529 530
f 475 531 532
f 475 532 533
f 475 533 534
f 475 534 476
f 476 534 478
f 477 478 533
f 477 533 480
f 478 534 533
f 480 535 481
f 480 533 535
f 482 493 492
f 482 492 536
f 482 536 483
f 483 537 538
f 483 538 503
f 483 536 537
f 485 494 539
f 485 539 486
f 486 539 494
f 487 495 540
f 487 540 488
f 488 541 489
f 488 540 541
f 489 542 490
f 489 541 543
f 489 543 542
f 490 542 544
f 490 544 545
f 490 545 546
f 490 546 491
f 491 546 536
f 491 536 492
f 494 502 495
f 495 502 547
f 495 547 548
f 495 548 549
f 495 549 540
f 497 550 551
f 497 551 552
f 497 552 499
f 497 499 498
f 499 552 551
f 499 551 500
f 500 553 502
f 500 502 501
f 500 551 550
f 500 550 554
f 500 554 555
f 500 555 556
f 500 556 557
f 500 557 558
f 500 558 553
f 502 553 559
f 502 559 547
f 503 538 537
f 503 537 545
f 503 545 505
f 504 508 509
f 505 545 506
f 506 545 507
f 507 545 508
f 508 545 560
f 508 560 561
f 508 561 562
f 508 562 563
f 508 563 564
f 508 564 565
f 508 565 566
f 508 566 511
f 508 511 509
f 509 511 510
f 512 567 513
f 513 567 568
f 513 568 514
f 514 568 569
f 514 569 570
f 514 570 519
f 514 519 515
f 515 519 516
f 516 518 517
f 519 570 521
f 519 521 520
f 521 570 571
f 521 571 522
f 522 571 572
f 522 572 523
f 523 573 574
f 523 574 525
f 523 525 575
f 523 575 524
f 523 572 573
f 524 575 525
f 525 574 576
f 525 576 577
f 525 577 578
f 525 578 526
f 526 578 528
f 527 528 579
f 527 579 529
f 528 580 581
f 528 581 582
f 528 582 583
f 528 583 584
f 528 584 586
f 528 586 579
f 528 578 577
f 528 577 576
f 528 576 585
f 528 585 580
f 529 579 586
f 529 586 530
f 530 587 583
f 530 583 531
f 530 586 588
f 530 588 587
f 531 583 589
f 531 589 590
f 531 590 591
f 531 591 592
f 531 592 532
f 532 592 533
f 533 592 593
f 536 546 545
f 536 545 594
f 536 594 537
f 537 594 545
f 540 549 595
f 540 595 596
f 540 596 541
f 541 597 543
f 541 596 598
f 541 598 599
f 541 599 600
f 541 600 597
f 542 601 602
f 542 602 544
f 542 543 597
f 542 597 601
f 544 602 603
f 544 603 604
f 544 604 605
f 544 605 606
f 544 606 545
f 545 606 605
f 545 605 560
f 547 559 607
f 547 607 608
f 547 608 609
f 547 609 548
f 548 609 610
f 548 610 549
f 549 610 611
f 549 611 595
f 553 558 612
f 553 612 607
f 553 607 559
f 554 613 555
f 555 613 614
f 555 614 556
f 556 614 557
f 557 615 558
f 557 614 616
f 557 616 615
f 558 615 617
f 558 617 612
f 560 605 561
f 561 605 604
f 561 604 562
f 562 604 618
f 562 618 563
f 563 618 564
f 564 619 620
f 564 620 565
f 564 618 621
f 564 621 619
f 567 622 568
f 568 622 623
f 568 623 569
f 569 623 624
f 569 624 625
f 569 625 570
f 570 625 626
f 570 626 627
f 570 627 572
f 570 572 571
f 572 627 626
f 572 626 573
f 573 628 574
f 573 626 629
f 573 629 630
f 573 630 628
f 574 628 576
f 576 628 585
f 580 585 631
f 580 631 632
f 580 632 633
f 580 633 581
f 581 633 634
f 581 634 582
f 582 634 583
f 583 587 584
f 583 634 635
f 583 635 636
f 583 636 589
f 584 588 586
f 584 587 588
f 585 628 637
f 585 637 638
f 585 638 631
f 589 636 639
f 589 639 590
f 590 639 640
f 590 640 591
f 591 640 641
f 591 641 642
f 591 642 643
f 591 643 592
f 592 643 644
f 592 644 645
f 592 645 593
f 593 645 646
f 595 611 610
f 595 610 647
f 595 647 596
f 596 647 648
f 596 648 649
f 596 649 598
f 597 602 601
f 597 600 650
f 597 650 602
f 598 649 651
f 598 651 652
f 598 652 653
f 598 653 599
f 599 653 654
f 599 654 655
f 599 655 600
f 600 655 650
f 602 650 603
f 603 656 604
f 603 650 656
f 604 657 618
f 604 656 658
f 604 658 659
f 604 659 657
f 607 612 660
f 607 660 661
f 607 661 608
f 608 648 610
f 608 610 609
f 608 661 662
f 608 662 648
f 610 648 647
f 612 617 663
f 612 663 664
f 612 664 665
f 612 665 666
f 612 666 660
f 615 616 667
f 615 667 668
f 615 668 663
f 615 663 617
f 616 669 667
f 618 657 670
f 618 670 621
f 621 670 671
f 623 672 624
f 624 672 673
f 624 673 625
f 625 673 629
f 625 629 626
f 628 630 674
f 628 674 637
f 629 675 676
f 629 676 677
f 629 677 630
f 629 673 678
f 629 678 675
f 630 677 679
f 630 679 674
f 631 638 680
f 631 680 681
f 631 681 632
f 632 682 633
f 632 681 682
f 633 683 684
f 633 684 685
f 633 685 686
f 633 686 634
f 633 682 683
f 634 686 687
f 634 687 635
f 635 687 688
f 635 688 636
f 636 688 689
f 636 689 639
f 637 674 679
f 637 679 638
f 638 690 691
f 638 691 680
f 638 679 690
f 639 689 692
f 639 692 693
f 639 693 640
f 640 693 694
f 640 694 695
f 640 695 696
f 640 696 697
f 640 697 641
f 641 697 698
f 641 698 699
f 641 699 700
f 641 700 642
f 642 700 701
f 642 701 702
f 642 702 643
f 643 702 644
f 644 702 703
f 644 703 645
f 645 703 704
f 645 704 646
f 648 662 649
f 649 705 706
f 649 706 707
f 649 707 708
f 649 708 709
f 649 709 651
f 649 662 705
f 650 655 710
f 650 710 711
f 650 711 658
f 650 658 656
f 651 709 652
f 652 712 713
f 652 713 714
f 652 714 715
f 652 715 653
f 652 709 716
f 652 716 717
f 652 717 718
f 652 718 712
f 653 715 710
f 653 710 655
f 653 655 654
f 657 659 719
f 657 719 720
f 657 720 721
f 657 721 670
f 658 711 722
f 658 722 723
f 658 723 659
f 659 724 725
f 659 725 719
f 659 723 724
f 660 666 726
f 660 726 727
f 660 727 661
f 661 727 662
f 662 727 726
f 662 726 705
f 663 668 667
f 663 667 664
f 664 667 728
f 664 728 729
f 664 729 730
f 664 730 731
f 664 731 665
f 665 731 732
f 665 732 733
f 665 733 666
f 666 733 734
f 666 734 735
f 666 735 726
f 667 669 728
f 670 721 736
f 670 736 737
f 670 737 671
f 672 738 739
f 672 739 740
f 672 740 673
f 673 740 678
f 675 741 742
f 675 742 676
f 675 678 743
f 675 743 744
f 675 744 741
f 676 742 745
f 676 745 746
f 676 746 747
f 676 747 677
f 677 747 690
f 677 690 679
f 678 740 739
f 678 739 743
f 680 691 683
f 680 683 682
f 680 682 681
f 683 691 748
f 683 748 749
f 683 749 750
f 683 750 751
f 683 751 684
f 684 751 752
f 684 752 753
f 684 753 685
f 685 753 686
f 686 753 754
f 686 754 755
f 686 755 756
f 686 756 687
f 687 756 757
f 687 757 688
f 688 757 689
f 689 757 755
f 689 755 692
f 690 747 746
f 690 746 758
f 690 758 759
f 690 759 760
f 690 760 761
f 690 761 762
f 690 762 763
f 690 763 764
f 690 764 691
f 691 764 748
f 692 755 693
f 693 755 765
f 693 765 694
f 694 765 695
f 695 765 766
f 695 766 767
f 695 767 768
f 695 768 769
f 695 769 770
f 695 770 696
f 696 770 771
f 696 771 772
f 696 772 774
f 696 774 697
f 697 773 698
f 697 774 773
f 698 775 699
f 698 773 776
f 698 776 777
f 698 777 778
f 698 778 775
f 699 775 701
f 699 701 700
f 701 775 779
f 701 779 780
f 701 780 702
f 702 780 781
f 702 781 704
f 702 704 703
f 705 726 782
f 705 782 706
f 706 782 726
f 706 726 735
f 706 735 783
f 706 783 784
f 706 784 785
f 706 785 707
f 707 785 708
f 708 785 786
f 708 786 787
f 708 787 788
f 708 788 789
f 708 789 790
f 708 790 709
f 709 790 716
f 710 715 714
f 710 714 791
f 710 791 711
f 711 791 792
f 711 792 713
f 711 713 712
f 711 712 793
f 711 793 722
f 712 794 795
f 712 795 793
f 712 718 796
f 712 796 797
f 712 797 798
f 712 798 799
f 712 799 794
f 713 792 791
f 713 791 714
f 716 790 717
f 717 790 800
f 717 800 718
f 718 800 801
f 718 801 802
f 718 802 790
f 718 790 796
f 719 725 720
f 720 725 721
f 722 793 795
f 722 795 794
f 722 794 803
f 722 803 804
f 722 804 805
f 722 805 806
f 722 806 723
f 723 806 805
f 723 805 807
f 723 807 808
f 723 808 724
f 724 808 807
f 728 809 810
f 728 810 732
f 728 732 729
f 729 732 730
f 730 732 731
f 732 810 835
f 732 835 774
f 732 774 772
f 732 772 733
f 733 772 771
f 733 771 734
f 734 811 785
f 734 785 784
f 734 784 735
f 734 771 834
f 734 834 811
f 735 784 783
f 738 743 739
f 741 745 742
f 745 812 813
f 745 813 746
f 746 813 758
f 748 764 749
f 749 764 763
f 749 763 750
f 750 814 751
f 750 763 814
f 751 814 815
f 751 815 816
f 751 816 817
f 751 817 818
f 751 818 819
f 751 819 820
f 751 820 821
f 751 821 822
f 751 822 752
f 752 822 753
f 753 822 823
f 753 823 754
f 754 823 824
f 754 824 825
f 754 825 768
f 754 768 826
f 754 826 755
f 755 757 756
f 755 826 765
f 758 813 759
f 759 813 812
f 759 812 827
f 759 827 760
f 760 828 761
f 761 828 829
f 761 829 830
f 761 830 762
f 762 830 763
f 763 830 831
f 763 831 815
f 763 815 814
f 765 826 766
f 766 826 767
f 767 826 768
f 768 825 832
f 768 832 770
f 768 770 769
f 770 832 833
f 770 833 771
f 771 833 832
f 771 832 834
f 773 774 776
f 774 835 777
f 774 777 776
f 775 780 779
f 775 778 780
f 777 835 836
f 777 836 778
f 785 811 837
f 785 837 786
f 786 837 866
f 786 866 838
f 786 838 839
f 786 839 787
f 787 839 841
f 787 841 788
f 788 840 789
f 788 841 868
f 788 868 840
f 789 842 843
f 789 843 790
f 789 840 842
f 790 843 796
f 790 802 801
f 790 801 800
f 794 799 844
f 794 844 845
f 794 845 804
f 794 804 803
f 796 843 797
f 797 843 798
f 798 843 846
f 798 846 799
f 799 846 847
f 799 847 848
f 799 848 844
f 804 845 849
f 804 849 850
f 804 850 851
f 804 851 852
f 804 852 805
f 809 836 835
f 809 835 810
f 811 834 866
f 811 866 837
f 815 831 816
f 816 853 854
f 816 854 855
f 816 855 817
f 816 831 830
f 816 830 856
f 816 856 829
f 816 829 853
f 817 857 858
f 817 858 859
f 817 859 818
f 817 855 857
f 818 859 860
f 818 860 819
f 819 860 861
f 819 861 820
f 820 861 860
f 820 860 821
f 821 860 862
f 821 862 822
f 822 862 863
f 822 863 823
f 823 863 860
f 823 860 824
f 824 839 832
f 824 832 825
f 824 860 864
f 824 864 839
f 829 865 853
f 829 856 830
f 832 839 838
f 832 838 866
f 832 866 834
f 839 864 841
f 840 867 842
f 840 868 890
f 840 890 867
f 841 864 869
f 841 869 870
f 841 870 868
f 842 871 843
f 842 867 872
f 842 872 873
f 842 873 871
f 843 871 846
f 844 848 845
f 845 848 874
f 845 874 849
f 846 875 847
f 846 871 873
f 846 873 875
f 847 876 849
f 847 849 877
f 847 877 874
f 847 874 848
f 847 875 878
f 847 878 879
f 847 879 880
f 847 880 876
f 849 874 877
f 853 881 882
f 853 882 854
f 853 865 881
f 854 882 855
f 855 882 883
f 855 883 857
f 857 883 858
f 858 883 884
f 858 884 885
f 858 885 886
f 858 886 887
f 858 887 859
f 859 887 888
f 859 888 889
f 859 889 860
f 860 889 870
f 860 870 869
f 860 869 864
f 860 863 862
f 867 890 891
f 867 891 872
f 868 870 890
f 870 889 888
f 870 888 891
f 870 891 890
f 872 891 888
f 872 888 873
f 873 892 875
f 873 888 901
f 873 901 892
f 875 892 894
f 875 894 878
f 876 880 893
f 878 894 879
f 879 894 880
f 880 894 895
f 880 895 896
f 880 896 893
f 882 884 883
f 885 897 898
f 885 898 899
f 885 899 886
f 886 899 900
f 886 900 887
f 887 900 901
f 887 901 888
f 892 901 900
f 892 900 894
f 893 896 902
f 894 900 899
f 894 899 895
f 895 899 898
f 895 898 896
f 896 903 902
f 896 898 904
f 896 904 903
f 897 904 898

