# https://github.com/mikedh/trimesh
v -0.00136923 0.02381205 0.00506875
v -0.00136923 0.02387950 0.00506776
v -0.00231247 0.02381205 0.00506875
v -0.00136923 0.00856421 0.00506875
v -0.00136923 0.02393630 0.00506676
v -0.00143764 0.02393630 0.00506676
v -0.00268738 0.02381205 0.00506776
v -0.00278659 0.02368604 0.00506875
v -0.00231247 0.02393630 0.00506478
v -0.00156251 0.00843819 0.00506875
v -0.00143764 0.00843819 0.00506776
v -0.00136923 0.00850741 0.00506776
v -0.00136923 0.02400552 0.00506280
v -0.00278659 0.02383690 0.00506577
v -0.00278659 0.02381205 0.00506676
v -0.00243748 0.02393630 0.00506379
v -0.00256236 0.02393630 0.00506280
v -0.00278659 0.00818794 0.00506875
v -0.00143764 0.02406231 0.00505883
v -0.00256236 0.00818794 0.00506875
v -0.00136923 0.00843819 0.00506577
v -0.00278659 0.00808854 0.00506478
v -0.00136923 0.02406231 0.00505883
v -0.00278659 0.02393630 0.00505982
v -0.00193756 0.02406231 0.00505386
v -0.00231247 0.02406231 0.00504990
v -0.00136923 0.02412976 0.00504791
v -0.00136923 0.00838850 0.00504990
v -0.00278659 0.00806370 0.00506081
v -0.00243748 0.02406231 0.00504791
v -0.00256236 0.02406231 0.00504593
v -0.00278659 0.02396292 0.00505585
v -0.00136923 0.02418655 0.00503799
v -0.00143764 0.02418655 0.00503700
v -0.00136923 0.00833170 0.00503104
v -0.00278659 0.00798028 0.00503402
v -0.00168753 0.02418655 0.00503303
v -0.00268738 0.02406231 0.00504295
v -0.00193756 0.02418655 0.00502806
v -0.00256236 0.02417768 0.00501715
v -0.00278659 0.02406231 0.00503997
v -0.00136923 0.02428239 0.00501119
v -0.00143764 0.02427885 0.00501119
v -0.00136923 0.00830330 0.00501020
v -0.00278659 0.00796253 0.00502707
v -0.00181254 0.02426820 0.00500723
v -0.00231247 0.02418655 0.00502013
v -0.00218745 0.02425577 0.00500226
v -0.00245844 0.02424512 0.00499829
v -0.00268738 0.02417058 0.00501516
v -0.00278659 0.02416348 0.00501318
v -0.00136923 0.02431612 0.00499829
v -0.00136923 0.02434451 0.00498738
v -0.00136923 0.00826958 0.00498143
v -0.00278659 0.00791283 0.00498936
v -0.00143764 0.02434274 0.00498639
v -0.00168753 0.02433386 0.00498341
v -0.00193756 0.02432677 0.00497944
v -0.00231247 0.02431434 0.00497349
v -0.00256236 0.02423980 0.00499631
v -0.00268738 0.02423270 0.00499333
v -0.00278659 0.02422560 0.00499135
v -0.00136923 0.02439421 0.00496456
v -0.00278659 0.00783296 0.00491494
v -0.00278659 0.00699523 0.00412903
v -0.00136923 0.00817729 0.00489112
v -0.00143764 0.02443681 0.00494273
v -0.00168753 0.02443681 0.00493379
v -0.00243748 0.02442971 0.00490799
v -0.00256236 0.02431079 0.00496456
v -0.00268738 0.02431079 0.00495761
v -0.00278659 0.02431079 0.00495066
v -0.00136923 0.02443681 0.00494471
v -0.00278659 0.00694731 0.00407445
v -0.00136923 0.00738747 0.00411216
v -0.00136923 0.00748154 0.00420543
v -0.00136923 0.02448828 0.00491692
v -0.00143764 0.02452733 0.00489311
v -0.00206258 0.02443681 0.00491891
v -0.00256236 0.02442438 0.00490502
v -0.00206258 0.02450603 0.00487922
v -0.00233661 0.02449715 0.00487227
v -0.00278659 0.02433386 0.00493876
v -0.00278659 0.00694021 0.00406453
v -0.00136923 0.00734310 0.00405460
v -0.00136923 0.02452910 0.00489410
v -0.00136923 0.02456282 0.00487029
v -0.00136923 0.02459122 0.00484945
v -0.00268738 0.02441551 0.00490105
v -0.00243748 0.02449183 0.00487029
v -0.00256236 0.02448650 0.00486632
v -0.00143764 0.02458945 0.00484746
v -0.00243748 0.02456105 0.00481273
v -0.00181254 0.02457702 0.00483655
v -0.00278659 0.02440841 0.00489708
v -0.00278659 0.00688874 0.00394148
v -0.00136923 0.00732003 0.00399506
v -0.00136923 0.02463204 0.00481571
v -0.00256319 0.02457347 0.00479388
v -0.00268738 0.02455395 0.00479785
v -0.00268738 0.02447763 0.00486036
v -0.00168753 0.02465511 0.00477800
v -0.00231247 0.02463382 0.00475815
v -0.00252212 0.02462672 0.00475121
v -0.00143764 0.02466399 0.00478495
v -0.00278659 0.02447053 0.00485441
v -0.00278659 0.00688874 -0.00393652
v -0.00278256 0.00688874 0.00381248
v -0.00136923 0.00730228 0.00393652
v -0.00136923 0.02466576 0.00478693
v -0.00260551 0.02462317 0.00474724
v -0.00278659 0.02454685 0.00479189
v -0.00278659 0.02448650 0.00484151
v -0.00143764 0.02472611 0.00472442
v -0.00226835 0.02475096 0.00462618
v -0.00256319 0.02466754 0.00469862
v -0.00136923 0.02469949 0.00475419
v -0.00278256 0.00688874 -0.00381248
v -0.00278659 0.00689761 -0.00396033
v -0.00136923 0.00734310 -0.00405460
v -0.00162065 0.00725081 -0.00400102
v -0.00136923 0.00730228 -0.00393652
v -0.00256236 0.02474031 0.00461129
v -0.00268738 0.02467109 0.00467976
v -0.00278659 0.02462139 0.00472144
v -0.00268738 0.02461607 0.00474228
v -0.00278659 0.02460897 0.00473434
v -0.00168753 0.02477048 0.00465098
v -0.00136923 0.02472788 0.00472640
v -0.00136923 0.02478113 0.00466388
v -0.00136923 0.02484325 0.00457755
v -0.00136923 0.02488407 0.00451504
v -0.00278659 0.00694021 -0.00406453
v -0.00256236 0.00698635 -0.00402086
v -0.00249382 0.00699878 -0.00400300
v -0.00136923 0.00738747 -0.00411216
v -0.00268738 0.02473321 0.00460038
v -0.00163175 0.02487520 0.00450015
v -0.00256236 0.02477936 0.00454878
v -0.00278659 0.02466399 0.00467182
v -0.00136923 0.02481485 0.00461725
v -0.00136923 0.02490537 0.00447038
v -0.00278659 0.00695973 -0.00408735
v -0.00136923 0.00807967 -0.00479487
v -0.00275426 0.00700233 -0.00412307
v -0.00268738 0.02477226 0.00453786
v -0.00278659 0.02472611 0.00458847
v -0.00278659 0.02467641 0.00465595
v -0.00136923 0.02492134 0.00443664
v -0.00181254 0.02489650 0.00442474
v -0.00193756 0.02486455 0.00447733
v -0.00256236 0.02483793 0.00443664
v -0.00278659 0.00705380 -0.00418261
v -0.00136923 0.00820568 -0.00491891
v -0.00278659 0.02476516 0.00452595
v -0.00268738 0.02482373 0.00443664
v -0.00278659 0.02477581 0.00450511
v -0.00248258 0.02487342 0.00437115
v -0.00136923 0.02494797 0.00436817
v -0.00218745 0.02485568 0.00445748
v -0.00256236 0.02486987 0.00436123
v -0.00278659 0.00706090 -0.00418956
v -0.00136923 0.00826958 -0.00498143
v -0.00268738 0.02486277 0.00433940
v -0.00278659 0.02481840 0.00441680
v -0.00278659 0.02480953 0.00443664
v -0.00243943 0.02489117 0.00432253
v -0.00256236 0.02488940 0.00429871
v -0.00136923 0.02496927 0.00431161
v -0.00278659 0.00775664 -0.00484349
v -0.00136923 0.00833170 -0.00503104
v -0.00278659 0.00783296 -0.00491494
v -0.00278659 0.00788621 -0.00496456
v -0.00278659 0.00790041 -0.00497746
v -0.00278659 0.02485745 0.00431161
v -0.00268738 0.02488230 0.00427688
v -0.00276827 0.02487697 0.00425803
v -0.00243748 0.02492489 0.00418658
v -0.00256236 0.02491425 0.00418658
v -0.00136923 0.02498169 0.00426597
v -0.00136923 0.02499411 0.00421734
v -0.00136923 0.00843819 -0.00506577
v -0.00278659 0.00796253 -0.00502707
v -0.00278659 0.00806370 -0.00506081
v -0.00278659 0.02486810 0.00427787
v -0.00268738 0.02490182 0.00418658
v -0.00278659 0.02488052 0.00422826
v -0.00278659 0.02487520 0.00425207
v -0.00256236 0.02493022 0.00406155
v -0.00136923 0.02500476 0.00415483
v -0.00150673 0.02499944 0.00412704
v -0.00143764 0.00843819 -0.00506776
v -0.00136923 0.00856421 -0.00506875
v -0.00278659 0.00818794 -0.00506875
v -0.00256236 0.00818794 -0.00506875
v -0.00278659 0.02489117 0.00416376
v -0.00278659 0.02488762 0.00418857
v -0.00268738 0.02491780 0.00406155
v -0.00243748 0.02493909 0.00406155
v -0.00163022 0.02499944 0.00400499
v -0.00256236 0.02493377 0.00393652
v -0.00136923 0.02501364 0.00406155
v -0.00181254 0.02498346 0.00406155
v -0.00206258 0.02496572 0.00406155
v -0.00156251 0.00843819 -0.00506875
v -0.00136923 0.02381205 -0.00506875
v -0.00278659 0.02368604 -0.00506875
v -0.00278659 0.02490360 0.00406155
v -0.00268738 0.02492134 0.00393652
v -0.00136923 0.02501896 0.00393652
v -0.00169516 0.02499589 0.00393652
v -0.00256236 0.02493377 -0.00393652
v -0.00231247 0.02381205 -0.00506875
v -0.00136923 0.02393630 -0.00506577
v -0.00278659 0.02381205 -0.00506677
v -0.00268738 0.02381205 -0.00506776
v -0.00278659 0.02490715 0.00393652
v -0.00268738 0.02492134 -0.00393652
v -0.00136923 0.02501896 -0.00393652
v -0.00169516 0.02499589 -0.00393652
v -0.00256236 0.02493022 -0.00406155
v -0.00163022 0.02499944 -0.00400499
v -0.00243748 0.02393630 -0.00506379
v -0.00143764 0.02393630 -0.00506577
v -0.00136923 0.02406231 -0.00505783
v -0.00278659 0.02391145 -0.00506081
v -0.00256236 0.02393630 -0.00506280
v -0.00278659 0.02490715 -0.00396331
v -0.00268738 0.02491780 -0.00406155
v -0.00136923 0.02501364 -0.00406155
v -0.00143764 0.02501009 -0.00406155
v -0.00256236 0.02491602 -0.00418658
v -0.00243748 0.02493909 -0.00406155
v -0.00159290 0.02499766 -0.00408834
v -0.00150951 0.02499944 -0.00412803
v -0.00168753 0.02406231 -0.00505486
v -0.00136923 0.02418655 -0.00503799
v -0.00278659 0.02393630 -0.00505883
v -0.00268738 0.02393630 -0.00506081
v -0.00231247 0.02406231 -0.00504791
v -0.00278659 0.02490360 -0.00406155
v -0.00268738 0.02490182 -0.00418658
v -0.00278659 0.02488762 -0.00418857
v -0.00136923 0.02500831 -0.00411910
v -0.00143764 0.02500299 -0.00414292
v -0.00243748 0.02492489 -0.00418658
v -0.00136923 0.02499411 -0.00421834
v -0.00256236 0.02488940 -0.00429871
v -0.00268738 0.02488230 -0.00427688
v -0.00136923 0.02428062 -0.00501219
v -0.00143764 0.02418655 -0.00503700
v -0.00278659 0.02406231 -0.00503799
v -0.00268738 0.02406231 -0.00504096
v -0.00256236 0.02406231 -0.00504394
v -0.00243748 0.02406231 -0.00504593
v -0.00276827 0.02487697 -0.00425803
v -0.00278659 0.02488052 -0.00422826
v -0.00136923 0.02500476 -0.00415582
v -0.00218745 0.02494264 -0.00418658
v -0.00136923 0.02496927 -0.00431161
v -0.00243943 0.02489117 -0.00432253
v -0.00248258 0.02487342 -0.00437115
v -0.00256236 0.02486987 -0.00436123
v -0.00268738 0.02486277 -0.00433940
v -0.00136923 0.02434274 -0.00498738
v -0.00156251 0.02418655 -0.00503501
v -0.00181254 0.02418655 -0.00503005
v -0.00168753 0.02427175 -0.00500822
v -0.00278659 0.02415993 -0.00501120
v -0.00268738 0.02416703 -0.00501318
v -0.00256236 0.02417768 -0.00501516
v -0.00231247 0.02418655 -0.00501913
v -0.00278659 0.02485745 -0.00431161
v -0.00278659 0.02486810 -0.00427787
v -0.00136923 0.02492134 -0.00443664
v -0.00181254 0.02489650 -0.00442474
v -0.00193756 0.02486455 -0.00447733
v -0.00218745 0.02485568 -0.00445748
v -0.00256236 0.02483793 -0.00443664
v -0.00268738 0.02482373 -0.00443664
v -0.00278659 0.02480953 -0.00443664
v -0.00278659 0.02485035 -0.00433047
v -0.00143764 0.02434097 -0.00498639
v -0.00136923 0.02443681 -0.00494372
v -0.00218745 0.02425577 -0.00500226
v -0.00278659 0.02420963 -0.00499433
v -0.00268738 0.02422915 -0.00499333
v -0.00256236 0.02423980 -0.00499631
v -0.00246565 0.02424690 -0.00499830
v -0.00242930 0.02419720 -0.00501318
v -0.00136923 0.02490005 -0.00448229
v -0.00163175 0.02487520 -0.00450015
v -0.00256236 0.02477936 -0.00454878
v -0.00268738 0.02477226 -0.00453786
v -0.00278659 0.02476516 -0.00452595
v -0.00193756 0.02432499 -0.00497944
v -0.00136923 0.02452733 -0.00489410
v -0.00143764 0.02443681 -0.00494173
v -0.00242930 0.02430014 -0.00497646
v -0.00278659 0.02422205 -0.00498936
v -0.00278659 0.02431079 -0.00495066
v -0.00268738 0.02431079 -0.00495761
v -0.00256236 0.02431079 -0.00496555
v -0.00136923 0.02488407 -0.00451603
v -0.00243748 0.02474563 -0.00461824
v -0.00256236 0.02474031 -0.00461129
v -0.00268738 0.02473321 -0.00460038
v -0.00278659 0.02472611 -0.00458847
v -0.00181254 0.02451313 -0.00488418
v -0.00136923 0.02455572 -0.00487326
v -0.00168753 0.02443681 -0.00493280
v -0.00193756 0.02443681 -0.00492288
v -0.00243748 0.02442793 -0.00490799
v -0.00256236 0.02442261 -0.00490601
v -0.00278659 0.02438711 -0.00490899
v -0.00268738 0.02441551 -0.00490204
v -0.00136923 0.02484325 -0.00457855
v -0.00143764 0.02484148 -0.00457458
v -0.00227306 0.02475096 -0.00462618
v -0.00243748 0.02468706 -0.00468671
v -0.00255875 0.02466754 -0.00469762
v -0.00268738 0.02467109 -0.00467877
v -0.00278659 0.02471369 -0.00460534
v -0.00278659 0.02466399 -0.00467083
v -0.00231247 0.02449538 -0.00487128
v -0.00156251 0.02458412 -0.00484349
v -0.00136923 0.02458945 -0.00484846
v -0.00256236 0.02448473 -0.00486532
v -0.00243748 0.02449005 -0.00486830
v -0.00278659 0.02440841 -0.00489708
v -0.00278659 0.02447230 -0.00485441
v -0.00268738 0.02447763 -0.00485937
v -0.00136923 0.02478113 -0.00466389
v -0.00143764 0.02477936 -0.00466091
v -0.00181254 0.02476693 -0.00464602
v -0.00168753 0.02471723 -0.00471350
v -0.00251463 0.02462494 -0.00475121
v -0.00259802 0.02462139 -0.00474724
v -0.00268738 0.02461607 -0.00474129
v -0.00278659 0.02460897 -0.00473335
v -0.00206258 0.02456637 -0.00482960
v -0.00193756 0.02464624 -0.00477006
v -0.00156251 0.02465866 -0.00478098
v -0.00136923 0.02466576 -0.00478594
v -0.00268738 0.02455395 -0.00479686
v -0.00255875 0.02457347 -0.00479289
v -0.00278659 0.02454685 -0.00479189
v -0.00136923 0.02475273 -0.00469762
v -0.00143764 0.02472611 -0.00472342
v -0.00243748 0.02462849 -0.00475319
v -0.00218745 0.02463737 -0.00476212
v -0.00278659 0.02459654 -0.00474525
v -0.00206258 0.02464092 -0.00476709
v -0.00136923 0.02472788 -0.00472640
v -0.00136923 0.02469416 -0.00475915
f 1 2 3
f 1 3 8
f 1 8 18
f 1 18 20
f 1 20 10
f 1 10 4
f 1 4 12
f 1 12 21
f 1 21 28
f 1 28 35
f 1 35 44
f 1 44 54
f 1 54 66
f 1 66 76
f 1 76 75
f 1 75 85
f 1 85 97
f 1 97 109
f 1 109 122
f 1 122 120
f 1 120 136
f 1 136 144
f 1 144 154
f 1 154 163
f 1 163 171
f 1 171 182
f 1 182 193
f 1 193 206
f 1 206 214
f 1 214 225
f 1 225 237
f 1 237 250
f 1 250 265
f 1 265 284
f 1 284 297
f 1 297 310
f 1 310 327
f 1 327 344
f 1 344 355
f 1 355 354
f 1 354 348
f 1 348 333
f 1 333 317
f 1 317 304
f 1 304 291
f 1 291 275
f 1 275 260
f 1 260 247
f 1 247 258
f 1 258 244
f 1 244 230
f 1 230 219
f 1 219 210
f 1 210 202
f 1 202 190
f 1 190 181
f 1 181 180
f 1 180 169
f 1 169 159
f 1 159 149
f 1 149 142
f 1 142 132
f 1 132 131
f 1 131 141
f 1 141 130
f 1 130 129
f 1 129 117
f 1 117 110
f 1 110 98
f 1 98 88
f 1 88 87
f 1 87 86
f 1 86 77
f 1 77 73
f 1 73 63
f 1 63 53
f 1 53 52
f 1 52 42
f 1 42 33
f 1 33 27
f 1 27 23
f 1 23 13
f 1 13 5
f 1 5 2
f 2 5 6
f 2 6 3
f 3 7 8
f 3 6 9
f 3 9 7
f 4 10 11
f 4 11 12
f 5 13 6
f 6 13 9
f 7 14 15
f 7 15 8
f 7 9 16
f 7 16 17
f 7 17 14
f 8 15 14
f 8 14 24
f 8 24 32
f 8 32 41
f 8 41 51
f 8 51 62
f 8 62 72
f 8 72 83
f 8 83 95
f 8 95 106
f 8 106 113
f 8 113 112
f 8 112 127
f 8 127 125
f 8 125 140
f 8 140 148
f 8 148 147
f 8 147 155
f 8 155 157
f 8 157 166
f 8 166 165
f 8 165 175
f 8 175 185
f 8 185 188
f 8 188 187
f 8 187 197
f 8 197 196
f 8 196 208
f 8 208 217
f 8 217 228
f 8 228 241
f 8 241 243
f 8 243 257
f 8 257 274
f 8 274 273
f 8 273 282
f 8 282 281
f 8 281 295
f 8 295 308
f 8 308 323
f 8 323 324
f 8 324 340
f 8 340 352
f 8 352 347
f 8 347 331
f 8 331 330
f 8 330 315
f 8 315 301
f 8 301 300
f 8 300 286
f 8 286 269
f 8 269 252
f 8 252 238
f 8 238 226
f 8 226 215
f 8 215 207
f 8 207 194
f 8 194 184
f 8 184 183
f 8 183 174
f 8 174 173
f 8 173 172
f 8 172 170
f 8 170 162
f 8 162 153
f 8 153 143
f 8 143 133
f 8 133 119
f 8 119 107
f 8 107 96
f 8 96 84
f 8 84 74
f 8 74 65
f 8 65 64
f 8 64 55
f 8 55 45
f 8 45 36
f 8 36 29
f 8 29 22
f 8 22 18
f 9 13 19
f 9 19 16
f 10 20 11
f 11 21 12
f 11 20 22
f 11 22 21
f 13 23 19
f 14 17 24
f 16 19 17
f 17 19 25
f 17 25 26
f 17 26 24
f 18 22 20
f 19 23 27
f 19 27 25
f 21 22 29
f 21 29 28
f 24 26 30
f 24 30 31
f 24 31 32
f 25 27 33
f 25 33 26
f 26 33 34
f 26 34 30
f 28 29 36
f 28 36 35
f 30 34 37
f 30 37 31
f 31 38 32
f 31 37 39
f 31 39 40
f 31 40 38
f 32 38 41
f 33 42 43
f 33 43 34
f 34 43 37
f 35 36 45
f 35 45 44
f 37 46 39
f 37 43 46
f 38 40 41
f 39 47 40
f 39 46 47
f 40 47 46
f 40 46 48
f 40 48 49
f 40 49 50
f 40 50 41
f 41 50 51
f 42 52 43
f 43 52 53
f 43 53 46
f 44 45 55
f 44 55 54
f 46 53 56
f 46 56 57
f 46 57 48
f 48 57 58
f 48 58 59
f 48 59 49
f 49 60 50
f 49 59 60
f 50 60 61
f 50 61 62
f 50 62 51
f 53 63 56
f 54 55 64
f 54 64 65
f 54 65 66
f 56 63 57
f 57 63 67
f 57 67 58
f 58 67 59
f 59 67 68
f 59 68 69
f 59 69 70
f 59 70 60
f 60 70 61
f 61 70 62
f 62 70 71
f 62 71 72
f 63 73 67
f 65 74 75
f 65 75 76
f 65 76 66
f 67 73 77
f 67 77 78
f 67 78 68
f 68 79 69
f 68 78 79
f 69 80 70
f 69 79 78
f 69 78 81
f 69 81 82
f 69 82 80
f 70 80 71
f 71 80 83
f 71 83 72
f 74 84 85
f 74 85 75
f 77 86 78
f 78 86 87
f 78 87 88
f 78 88 81
f 80 89 83
f 80 82 90
f 80 90 91
f 80 91 89
f 81 88 92
f 81 92 82
f 82 93 90
f 82 92 94
f 82 94 93
f 83 89 95
f 84 96 85
f 85 96 97
f 88 98 92
f 89 91 95
f 90 93 91
f 91 93 99
f 91 99 100
f 91 100 101
f 91 101 95
f 92 98 94
f 93 94 102
f 93 102 103
f 93 103 104
f 93 104 99
f 94 98 105
f 94 105 102
f 95 101 106
f 96 107 118
f 96 118 108
f 96 108 109
f 96 109 97
f 98 110 105
f 99 104 111
f 99 111 100
f 100 112 113
f 100 113 101
f 100 111 112
f 101 113 106
f 102 105 114
f 102 114 103
f 103 114 104
f 104 114 115
f 104 115 116
f 104 116 111
f 105 110 117
f 105 117 114
f 107 119 120
f 107 120 121
f 107 121 122
f 107 122 118
f 108 118 122
f 108 122 109
f 111 116 123
f 111 123 124
f 111 124 125
f 111 125 126
f 111 126 112
f 112 126 127
f 114 128 115
f 114 117 129
f 114 129 130
f 114 130 128
f 115 123 116
f 115 128 131
f 115 131 132
f 115 132 123
f 119 133 134
f 119 134 135
f 119 135 120
f 120 122 121
f 120 135 134
f 120 134 133
f 120 133 136
f 123 137 124
f 123 132 138
f 123 138 139
f 123 139 146
f 123 146 137
f 124 140 125
f 124 137 148
f 124 148 140
f 125 127 126
f 128 130 141
f 128 141 131
f 132 142 138
f 133 143 136
f 136 143 145
f 136 145 144
f 137 146 155
f 137 155 147
f 137 147 148
f 138 142 149
f 138 149 150
f 138 150 151
f 138 151 139
f 139 151 152
f 139 152 146
f 143 153 145
f 144 145 154
f 145 153 154
f 146 152 156
f 146 156 157
f 146 157 155
f 149 158 150
f 149 159 158
f 150 158 151
f 151 160 152
f 151 158 160
f 152 160 158
f 152 158 161
f 152 161 156
f 153 162 163
f 153 163 154
f 156 161 164
f 156 164 165
f 156 165 166
f 156 166 157
f 158 167 168
f 158 168 161
f 158 159 169
f 158 169 167
f 161 168 176
f 161 176 164
f 162 170 163
f 163 170 172
f 163 172 173
f 163 173 174
f 163 174 183
f 163 183 171
f 164 175 165
f 164 176 177
f 164 177 175
f 167 169 168
f 168 178 179
f 168 179 176
f 168 169 180
f 168 180 181
f 168 181 178
f 171 183 184
f 171 184 182
f 175 177 185
f 176 179 186
f 176 186 177
f 177 186 187
f 177 187 188
f 177 188 185
f 178 189 179
f 178 181 190
f 178 190 191
f 178 191 189
f 179 189 198
f 179 198 186
f 182 192 193
f 182 184 192
f 184 194 195
f 184 195 192
f 186 196 197
f 186 197 187
f 186 198 196
f 189 191 199
f 189 199 200
f 189 200 201
f 189 201 209
f 189 209 198
f 190 202 191
f 191 202 203
f 191 203 204
f 191 204 199
f 192 205 193
f 192 195 205
f 193 205 195
f 193 195 194
f 193 194 207
f 193 207 213
f 193 213 206
f 196 198 208
f 198 209 217
f 198 217 208
f 199 204 200
f 200 202 210
f 200 210 211
f 200 211 201
f 200 204 203
f 200 203 202
f 201 211 220
f 201 220 212
f 201 212 218
f 201 218 209
f 206 213 224
f 206 224 214
f 207 215 216
f 207 216 213
f 209 218 228
f 209 228 217
f 210 219 220
f 210 220 211
f 212 221 229
f 212 229 218
f 212 220 222
f 212 222 221
f 213 216 223
f 213 223 224
f 214 224 225
f 215 226 227
f 215 227 216
f 216 227 223
f 218 229 228
f 219 230 231
f 219 231 222
f 219 222 220
f 221 232 229
f 221 222 233
f 221 233 234
f 221 234 235
f 221 235 232
f 222 231 234
f 222 234 233
f 223 227 225
f 223 225 224
f 225 227 236
f 225 236 237
f 226 238 239
f 226 239 227
f 227 239 255
f 227 255 240
f 227 240 236
f 228 229 241
f 229 232 242
f 229 242 243
f 229 243 241
f 230 244 245
f 230 245 231
f 231 245 234
f 232 235 245
f 232 245 246
f 232 246 247
f 232 247 248
f 232 248 249
f 232 249 242
f 234 245 235
f 236 240 237
f 237 240 251
f 237 251 250
f 238 252 253
f 238 253 254
f 238 254 239
f 239 254 255
f 240 255 251
f 242 249 256
f 242 256 257
f 242 257 243
f 244 258 245
f 245 258 247
f 245 247 259
f 245 259 246
f 246 259 247
f 247 260 248
f 248 261 262
f 248 262 263
f 248 263 264
f 248 264 249
f 248 260 261
f 249 264 256
f 250 251 266
f 250 266 267
f 250 267 268
f 250 268 265
f 251 255 254
f 251 254 266
f 252 269 270
f 252 270 271
f 252 271 253
f 253 271 272
f 253 272 254
f 254 272 267
f 254 267 266
f 256 264 273
f 256 273 274
f 256 274 257
f 260 275 262
f 260 262 261
f 262 275 276
f 262 276 277
f 262 277 278
f 262 278 279
f 262 279 263
f 263 279 280
f 263 280 264
f 264 280 281
f 264 281 282
f 264 282 273
f 265 283 284
f 265 268 285
f 265 285 283
f 267 272 285
f 267 285 268
f 269 286 287
f 269 287 288
f 269 288 289
f 269 289 270
f 270 289 271
f 271 289 290
f 271 290 272
f 272 290 289
f 272 289 285
f 275 291 292
f 275 292 276
f 276 292 277
f 277 293 279
f 277 279 278
f 277 292 293
f 279 293 294
f 279 294 280
f 280 294 295
f 280 295 281
f 283 296 284
f 283 285 296
f 284 296 298
f 284 298 297
f 285 289 299
f 285 299 296
f 286 300 287
f 287 300 301
f 287 301 302
f 287 302 303
f 287 303 288
f 288 303 289
f 289 303 299
f 291 304 292
f 292 304 305
f 292 305 293
f 293 305 306
f 293 306 307
f 293 307 294
f 294 307 308
f 294 308 295
f 296 299 298
f 297 309 310
f 297 298 311
f 297 311 312
f 297 312 313
f 297 313 314
f 297 314 309
f 298 299 311
f 299 303 314
f 299 314 311
f 301 315 316
f 301 316 302
f 302 316 303
f 303 316 314
f 304 317 318
f 304 318 305
f 305 319 320
f 305 320 321
f 305 321 306
f 305 318 317
f 305 317 319
f 306 321 322
f 306 322 307
f 307 323 308
f 307 322 324
f 307 324 323
f 309 314 325
f 309 325 326
f 309 326 310
f 310 326 327
f 311 314 313
f 311 313 312
f 314 316 328
f 314 328 329
f 314 329 325
f 315 330 316
f 316 330 331
f 316 331 332
f 316 332 328
f 317 333 334
f 317 334 335
f 317 335 319
f 319 335 320
f 320 335 336
f 320 336 337
f 320 337 321
f 321 337 338
f 321 338 322
f 322 338 339
f 322 339 340
f 322 340 324
f 325 329 341
f 325 341 326
f 326 341 342
f 326 342 343
f 326 343 344
f 326 344 327
f 328 332 331
f 328 331 345
f 328 345 346
f 328 346 341
f 328 341 329
f 331 347 345
f 333 348 334
f 334 348 335
f 335 348 349
f 335 349 336
f 336 349 337
f 337 346 338
f 337 349 350
f 337 350 351
f 337 351 346
f 338 346 345
f 338 345 347
f 338 347 339
f 339 352 340
f 339 347 352
f 341 346 353
f 341 353 342
f 342 353 354
f 342 354 355
f 342 355 343
f 343 355 344
f 346 351 353
f 348 354 349
f 349 354 351
f 349 351 350
f 351 354 353

