# https://github.com/mikedh/trimesh
v 0.00831630 -0.00248753 -0.00506875
v 0.00819074 -0.00248753 -0.00506577
v 0.00831630 -0.00218706 -0.00506875
v 0.02368547 -0.00248753 -0.00506875
v 0.00819074 -0.00243721 -0.00506478
v 0.00856388 -0.00000409 -0.00506875
v 0.00807226 -0.00248753 -0.00503005
v 0.02380925 -0.00218706 -0.00506875
v 0.02380925 -0.00248753 -0.00506776
v 0.00845247 -0.00000409 -0.00503402
v 0.02380925 -0.00000409 -0.00506875
v 0.00801567 -0.00248753 -0.00498936
v 0.02381102 -0.00156426 -0.00506875
v 0.02393658 -0.00068864 -0.00506776
v 0.02393481 -0.00081286 -0.00506776
v 0.02393481 -0.00156426 -0.00506677
v 0.02393481 -0.00193716 -0.00506577
v 0.02393481 -0.00218706 -0.00506478
v 0.02385877 -0.00248753 -0.00506577
v 0.00838880 -0.00000409 -0.00498639
v 0.02393658 -0.00000409 -0.00506776
v 0.02381102 -0.00068888 -0.00506875
v 0.00798915 -0.00248753 -0.00496555
v 0.02400024 -0.00000409 -0.00506577
v 0.02405860 -0.00031257 -0.00506379
v 0.02406037 -0.00081286 -0.00506180
v 0.02393481 -0.00243721 -0.00506280
v 0.02406037 -0.00106276 -0.00506081
v 0.02406037 -0.00143736 -0.00505883
v 0.02406037 -0.00156426 -0.00505783
v 0.02393481 -0.00248753 -0.00506180
v 0.00835874 -0.00000409 -0.00495761
v 0.00711379 -0.00248753 -0.00413597
v 0.02405860 -0.00000409 -0.00506379
v 0.02418415 -0.00006267 -0.00504791
v 0.02406037 -0.00168751 -0.00505684
v 0.02406037 -0.00206236 -0.00505188
v 0.02406037 -0.00231226 -0.00504791
v 0.02418592 -0.00068888 -0.00504394
v 0.02418592 -0.00106276 -0.00504096
v 0.02398433 -0.00248753 -0.00505486
v 0.00751345 -0.00000409 -0.00411116
v 0.00705543 -0.00248753 -0.00406850
v 0.02418415 -0.00000409 -0.00504791
v 0.02432209 -0.00005441 -0.00501417
v 0.02418592 -0.00143736 -0.00503700
v 0.02418592 -0.00168751 -0.00503402
v 0.02406037 -0.00248753 -0.00504394
v 0.02429556 -0.00068888 -0.00501516
v 0.02428849 -0.00106276 -0.00501318
v 0.00701122 -0.00248753 -0.00401094
v 0.00746747 -0.00000409 -0.00404865
v 0.02432209 -0.00000409 -0.00501417
v 0.02437337 -0.00000700 -0.00499929
v 0.02427788 -0.00156426 -0.00501020
v 0.02427081 -0.00181246 -0.00500822
v 0.02418592 -0.00206236 -0.00502509
v 0.02410458 -0.00248753 -0.00503303
v 0.00700238 -0.00248753 -0.00393652
v 0.00743210 -0.00000409 -0.00393652
v 0.00744978 -0.00000409 -0.00399606
v 0.02436984 -0.00000409 -0.00500028
v 0.02438221 -0.00000409 -0.00499532
v 0.02442466 -0.00000409 -0.00497646
v 0.02442466 -0.00005441 -0.00497646
v 0.02434154 -0.00156426 -0.00498738
v 0.02425489 -0.00218706 -0.00500226
v 0.02433801 -0.00168751 -0.00498639
v 0.02433270 -0.00181246 -0.00498440
v 0.02417708 -0.00243721 -0.00501616
v 0.02417354 -0.00248753 -0.00501516
v 0.00700061 -0.00248753 -0.00381248
v 0.00743033 -0.00000409 -0.00387797
v 0.02455375 -0.00000409 -0.00490799
v 0.02443527 -0.00093756 -0.00495563
v 0.02455375 -0.00006267 -0.00490799
v 0.02443527 -0.00131241 -0.00494868
v 0.02443527 -0.00156426 -0.00494372
v 0.02432916 -0.00193716 -0.00498143
v 0.02425135 -0.00227312 -0.00500028
v 0.02443350 -0.00168751 -0.00494074
v 0.02423898 -0.00243721 -0.00499730
v 0.02423721 -0.00248753 -0.00499532
v 0.00700061 -0.00248753 0.00392262
v 0.00743033 -0.00000409 0.00381148
v 0.02461564 -0.00000409 -0.00486929
v 0.02461564 -0.00006267 -0.00486929
v 0.02453430 -0.00106276 -0.00489906
v 0.02452722 -0.00143736 -0.00489509
v 0.02452546 -0.00156426 -0.00489311
v 0.02432386 -0.00206236 -0.00497845
v 0.02443350 -0.00181246 -0.00493578
v 0.02431148 -0.00248753 -0.00496356
v 0.02452192 -0.00168751 -0.00489113
v 0.00700238 -0.00248753 0.00399209
v 0.00743210 -0.00000409 0.00393652
v 0.02468461 -0.00006267 -0.00481075
v 0.02475181 -0.00000409 -0.00475319
v 0.02468108 -0.00056247 -0.00479983
v 0.02461388 -0.00018762 -0.00486731
v 0.02460680 -0.00056247 -0.00486235
v 0.02458558 -0.00168751 -0.00484647
v 0.02451838 -0.00181246 -0.00488815
v 0.02443350 -0.00193716 -0.00492883
v 0.02435392 -0.00248753 -0.00494074
v 0.00701122 -0.00248753 0.00401094
v 0.00746747 -0.00000409 0.00404766
v 0.00744802 -0.00000409 0.00398911
v 0.02475181 -0.00006267 -0.00475319
v 0.02480663 -0.00000409 -0.00468671
v 0.02466339 -0.00156426 -0.00478594
v 0.02475004 -0.00018762 -0.00475121
v 0.02465985 -0.00168751 -0.00478396
v 0.02458028 -0.00181246 -0.00484250
v 0.02450070 -0.00215886 -0.00487723
v 0.02442289 -0.00243721 -0.00490601
v 0.02441935 -0.00248753 -0.00490403
v 0.00703598 -0.00248753 0.00404468
v 0.00751345 -0.00000409 0.00411017
v 0.02480663 -0.00006267 -0.00468671
v 0.02486499 -0.00000409 -0.00461328
v 0.02472528 -0.00156426 -0.00472541
v 0.02472352 -0.00168751 -0.00472243
v 0.02474120 -0.00068864 -0.00474228
v 0.02480310 -0.00018762 -0.00468671
v 0.02477834 -0.00156426 -0.00466289
v 0.02465455 -0.00181246 -0.00477999
v 0.02464924 -0.00193716 -0.00477403
v 0.02448301 -0.00248753 -0.00486433
v 0.00705543 -0.00248753 0.00406849
v 0.00710318 -0.00248753 0.00412406
v 0.00711379 -0.00248753 0.00413597
v 0.00832691 -0.00000409 0.00492387
v 0.02486499 -0.00006267 -0.00461328
v 0.02490743 -0.00000409 -0.00455076
v 0.02471821 -0.00181246 -0.00471648
v 0.02477480 -0.00168751 -0.00465992
v 0.02477126 -0.00181246 -0.00465396
v 0.02483669 -0.00168751 -0.00456862
v 0.02490743 -0.00006267 -0.00455076
v 0.02490566 -0.00018762 -0.00454679
v 0.02464217 -0.00206236 -0.00476808
v 0.02456259 -0.00248753 -0.00479586
v 0.00715092 -0.00248753 0.00417170
v 0.00839057 -0.00000409 0.00498639
v 0.02497463 -0.00000409 -0.00442474
v 0.02466693 -0.00243356 -0.00469762
v 0.02462802 -0.00248753 -0.00473533
v 0.02461918 -0.00248753 -0.00474525
v 0.02462449 -0.00238932 -0.00475121
v 0.02475888 -0.00206236 -0.00463808
v 0.02483846 -0.00181003 -0.00455175
v 0.02487560 -0.00168751 -0.00450611
v 0.02487383 -0.00176676 -0.00450214
v 0.02489859 -0.00056247 -0.00453687
v 0.02487914 -0.00156426 -0.00451008
v 0.02497463 -0.00005198 -0.00442474
v 0.02496402 -0.00018762 -0.00443664
v 0.00785652 -0.00248753 0.00484052
v 0.00845247 -0.00000409 0.00503303
v 0.00798738 -0.00248753 0.00496356
v 0.00801567 -0.00248753 0.00498936
v 0.00803866 -0.00248753 0.00500723
v 0.02499762 -0.00000409 -0.00437512
v 0.02466693 -0.00248753 -0.00468969
v 0.02474474 -0.00233924 -0.00461923
v 0.02473943 -0.00243721 -0.00461129
v 0.02490743 -0.00168751 -0.00443664
v 0.02486499 -0.00193716 -0.00448428
v 0.02477480 -0.00248753 -0.00454481
v 0.02489505 -0.00181003 -0.00444657
v 0.02491273 -0.00156426 -0.00443664
v 0.00850552 -0.00000409 0.00504990
v 0.00807226 -0.00248753 0.00503005
v 0.00813592 -0.00248753 0.00505089
v 0.02504536 -0.00000409 -0.00418658
v 0.02504536 -0.00006267 -0.00418658
v 0.02501354 -0.00018762 -0.00430169
v 0.02501000 -0.00043752 -0.00428680
v 0.02498701 -0.00068864 -0.00433543
v 0.02473590 -0.00248753 -0.00460732
v 0.02495518 -0.00168751 -0.00431161
v 0.02484907 -0.00231931 -0.00442970
v 0.02482785 -0.00248753 -0.00443664
v 0.02489328 -0.00193716 -0.00442176
v 0.02494633 -0.00181246 -0.00431161
v 0.02496048 -0.00156426 -0.00431161
v 0.00856564 -0.00000409 0.00506875
v 0.00819074 -0.00248753 0.00506577
v 0.00819074 -0.00243721 0.00506478
v 0.02506128 -0.00000409 -0.00406155
v 0.02506128 -0.00006267 -0.00406155
v 0.02505774 -0.00018762 -0.00406155
v 0.02500116 -0.00156426 -0.00414292
v 0.02502414 -0.00068888 -0.00418658
v 0.02499762 -0.00111843 -0.00424810
v 0.02499408 -0.00131241 -0.00422925
v 0.02498878 -0.00156231 -0.00420543
v 0.02498878 -0.00169820 -0.00417963
v 0.02487914 -0.00218706 -0.00439398
v 0.02487029 -0.00236574 -0.00437115
v 0.02486676 -0.00243721 -0.00436024
v 0.02486322 -0.00248753 -0.00435131
v 0.02497817 -0.00181246 -0.00418658
v 0.02492158 -0.00206236 -0.00431161
v 0.02380925 -0.00000409 0.00506875
v 0.00826502 -0.00248753 0.00506875
v 0.02506659 -0.00000409 -0.00393652
v 0.02506659 -0.00006267 -0.00393652
v 0.02504006 -0.00068864 -0.00406155
v 0.02500823 -0.00156426 -0.00406254
v 0.02499585 -0.00174755 -0.00412307
v 0.02489152 -0.00231931 -0.00432253
v 0.02488444 -0.00248753 -0.00428879
v 0.02487206 -0.00248753 -0.00432650
v 0.02496579 -0.00193716 -0.00418658
v 0.02381102 -0.00068888 0.00506875
v 0.02393481 -0.00000409 0.00506776
v 0.02368547 -0.00248753 0.00506875
v 0.02506659 -0.00000409 0.00393652
v 0.02506659 -0.00006267 0.00393652
v 0.02505244 -0.00045648 -0.00091789
v 0.02502591 -0.00118746 -0.00393652
v 0.02500646 -0.00168751 -0.00393652
v 0.02499939 -0.00177380 -0.00403972
v 0.02500116 -0.00169820 -0.00407346
v 0.02501176 -0.00156426 -0.00393652
v 0.02492865 -0.00243721 -0.00406155
v 0.02492335 -0.00248753 -0.00406155
v 0.02490743 -0.00248753 -0.00418658
v 0.02381102 -0.00156426 0.00506875
v 0.02393481 -0.00081286 0.00506776
v 0.02405860 -0.00000409 0.00506280
v 0.02380925 -0.00248753 0.00506776
v 0.02380925 -0.00218706 0.00506875
v 0.02506128 -0.00000409 0.00406155
v 0.02506128 -0.00006267 0.00406155
v 0.02505774 -0.00018762 0.00406155
v 0.02504006 -0.00068864 0.00406155
v 0.02502591 -0.00118746 0.00393652
v 0.02500646 -0.00168751 0.00393652
v 0.02500116 -0.00178596 -0.00393652
v 0.02498524 -0.00193716 -0.00393652
v 0.02501176 -0.00156426 0.00393652
v 0.02492688 -0.00248753 -0.00393652
v 0.02393481 -0.00156426 0.00506676
v 0.02405860 -0.00018762 0.00506280
v 0.02411872 -0.00000409 0.00505585
v 0.02388529 -0.00248753 0.00506478
v 0.02393481 -0.00218706 0.00506478
v 0.02393481 -0.00193716 0.00506577
v 0.02504536 -0.00000409 0.00418658
v 0.02504536 -0.00006267 0.00418658
v 0.02500116 -0.00156426 0.00414292
v 0.02500823 -0.00156426 0.00406254
v 0.02500116 -0.00178596 0.00393652
v 0.02499939 -0.00177380 0.00403972
v 0.02498524 -0.00193716 0.00393652
v 0.02492688 -0.00248753 0.00393652
v 0.02406037 -0.00081286 0.00506180
v 0.02418415 -0.00006267 0.00504791
v 0.02418415 -0.00000409 0.00504791
v 0.02393481 -0.00248753 0.00506280
v 0.02406037 -0.00143736 0.00505883
v 0.02406037 -0.00106276 0.00506081
v 0.02500823 -0.00000409 0.00433840
v 0.02501000 -0.00043752 0.00428680
v 0.02500116 -0.00093756 0.00425902
v 0.02499762 -0.00111843 0.00424810
v 0.02502414 -0.00068888 0.00418658
v 0.02500823 -0.00003715 0.00433840
v 0.02500646 -0.00010400 0.00433840
v 0.02499408 -0.00131241 0.00422925
v 0.02498878 -0.00169820 0.00417963
v 0.02499585 -0.00174755 0.00412307
v 0.02500116 -0.00169820 0.00407346
v 0.02492865 -0.00243721 0.00406155
v 0.02492335 -0.00248753 0.00406155
v 0.02418592 -0.00068888 0.00504493
v 0.02430617 -0.00018762 0.00501715
v 0.02432032 -0.00005514 0.00501417
v 0.02432032 -0.00000409 0.00501417
v 0.02406037 -0.00248753 0.00504493
v 0.02406037 -0.00243721 0.00504593
v 0.02406037 -0.00181246 0.00505585
v 0.02406037 -0.00156426 0.00505783
v 0.02499762 -0.00000409 0.00437413
v 0.02498701 -0.00068742 0.00433840
v 0.02496225 -0.00156426 0.00431161
v 0.02498878 -0.00156231 0.00420543
v 0.02495695 -0.00168751 0.00431161
v 0.02494810 -0.00181246 0.00431161
v 0.02497817 -0.00181246 0.00418658
v 0.02496579 -0.00193716 0.00418658
v 0.02490743 -0.00248753 0.00418658
v 0.02418592 -0.00131241 0.00503997
v 0.02429556 -0.00081286 0.00501516
v 0.02430264 -0.00043752 0.00501616
v 0.02437337 -0.00000846 0.00499929
v 0.02437337 -0.00000409 0.00499929
v 0.02413110 -0.00248753 0.00502707
v 0.02418592 -0.00218706 0.00502211
v 0.02418592 -0.00193716 0.00502906
v 0.02418592 -0.00168751 0.00503501
v 0.02418592 -0.00156426 0.00503700
v 0.02497286 -0.00005222 0.00442374
v 0.02494633 -0.00068864 0.00443664
v 0.02491450 -0.00156426 0.00443664
v 0.02494103 -0.00000409 0.00448725
v 0.02490920 -0.00168751 0.00443664
v 0.02489505 -0.00181003 0.00444657
v 0.02489328 -0.00193716 0.00442275
v 0.02488090 -0.00218706 0.00439397
v 0.02487560 -0.00228430 0.00438306
v 0.02489152 -0.00232052 0.00432352
v 0.02488444 -0.00248753 0.00428879
v 0.02490036 -0.00248753 0.00422330
v 0.02428672 -0.00131241 0.00501318
v 0.02435923 -0.00068888 0.00499532
v 0.02443527 -0.00068888 0.00495959
v 0.02442112 -0.00005514 0.00497547
v 0.02442112 -0.00000409 0.00497547
v 0.02417531 -0.00248753 0.00501516
v 0.02417885 -0.00243721 0.00501616
v 0.02426020 -0.00206236 0.00500425
v 0.02427258 -0.00181246 0.00500822
v 0.02427788 -0.00168751 0.00501020
v 0.02428142 -0.00156426 0.00501119
v 0.02490566 -0.00006267 0.00455374
v 0.02490213 -0.00031257 0.00454679
v 0.02496225 -0.00018762 0.00443664
v 0.02489505 -0.00068888 0.00453687
v 0.02487914 -0.00156426 0.00451008
v 0.02490566 -0.00000409 0.00455374
v 0.02487560 -0.00168751 0.00450611
v 0.02487383 -0.00176676 0.00450214
v 0.02486499 -0.00193716 0.00448527
v 0.02485791 -0.00206236 0.00447137
v 0.02482785 -0.00248753 0.00443664
v 0.02487029 -0.00236744 0.00437214
v 0.02486676 -0.00243721 0.00436024
v 0.02486322 -0.00248753 0.00435130
v 0.02434154 -0.00168751 0.00498738
v 0.02434862 -0.00131241 0.00499036
v 0.02443527 -0.00106276 0.00495364
v 0.02455021 -0.00018762 0.00490601
v 0.02455021 -0.00006267 0.00490799
v 0.02455021 -0.00000409 0.00490799
v 0.02421245 -0.00248753 0.00500425
v 0.02424074 -0.00243721 0.00499730
v 0.02486853 -0.00000409 0.00461625
v 0.02486499 -0.00018762 0.00461328
v 0.02486322 -0.00031257 0.00460931
v 0.02485615 -0.00068864 0.00459839
v 0.02484200 -0.00143736 0.00457656
v 0.02483669 -0.00168751 0.00456862
v 0.02483846 -0.00181003 0.00455175
v 0.02477480 -0.00248753 0.00454282
v 0.02480840 -0.00248753 0.00447733
v 0.02484730 -0.00248753 0.00439100
v 0.02432916 -0.00193716 0.00498143
v 0.02443350 -0.00181246 0.00493578
v 0.02443350 -0.00168751 0.00494074
v 0.02443527 -0.00156426 0.00494372
v 0.02443527 -0.00143736 0.00494669
v 0.02454137 -0.00068864 0.00490204
v 0.02461388 -0.00006267 0.00486830
v 0.02461388 -0.00000409 0.00486830
v 0.02423721 -0.00248753 0.00499631
v 0.02431148 -0.00248753 0.00496158
v 0.02432209 -0.00206236 0.00497845
v 0.02477834 -0.00000409 0.00472144
v 0.02480840 -0.00006267 0.00468572
v 0.02479425 -0.00068864 0.00467877
v 0.02477834 -0.00156426 0.00466289
v 0.02477480 -0.00168751 0.00465992
v 0.02477126 -0.00181246 0.00465396
v 0.02474827 -0.00224784 0.00462419
v 0.02474474 -0.00231226 0.00461923
v 0.02473766 -0.00243721 0.00460931
v 0.02475888 -0.00248753 0.00456763
v 0.02442819 -0.00231226 0.00490799
v 0.02450423 -0.00206236 0.00487922
v 0.02451661 -0.00181246 0.00488716
v 0.02452192 -0.00168751 0.00489112
v 0.02452722 -0.00143736 0.00489410
v 0.02459973 -0.00081286 0.00485937
v 0.02467577 -0.00081286 0.00479685
v 0.02468461 -0.00006267 0.00480876
v 0.02468461 -0.00000409 0.00480876
v 0.02441758 -0.00248753 0.00490204
v 0.02442112 -0.00243721 0.00490402
v 0.02475004 -0.00000409 0.00475220
v 0.02475004 -0.00006267 0.00475220
v 0.02474827 -0.00018762 0.00475022
v 0.02474120 -0.00068864 0.00474128
v 0.02472528 -0.00156426 0.00472541
v 0.02472352 -0.00168751 0.00472243
v 0.02471821 -0.00181246 0.00471648
v 0.02462095 -0.00248096 0.00474724
v 0.02466693 -0.00248753 0.00469167
v 0.02470937 -0.00248753 0.00463808
v 0.02473413 -0.00248753 0.00460534
v 0.02449539 -0.00223033 0.00487326
v 0.02457851 -0.00181246 0.00484250
v 0.02458381 -0.00168751 0.00484647
v 0.02458735 -0.00156426 0.00484846
v 0.02466339 -0.00156426 0.00478594
v 0.02445472 -0.00248753 0.00487922
v 0.02473766 -0.00081286 0.00474029
v 0.02465985 -0.00168751 0.00478395
v 0.02465455 -0.00181246 0.00477999
v 0.02464924 -0.00193716 0.00477403
v 0.02462979 -0.00231226 0.00475617
v 0.02456436 -0.00248753 0.00479586
v 0.02461564 -0.00248753 0.00475121
v 0.02461918 -0.00248753 0.00474724
v 0.02448301 -0.00243721 0.00486532
v 0.02457320 -0.00193716 0.00483655
v 0.02447948 -0.00248753 0.00486334
f 1 2 3
f 1 3 6
f 1 6 11
f 1 11 22
f 1 22 13
f 1 13 8
f 1 8 4
f 1 4 9
f 1 9 19
f 1 19 31
f 1 31 41
f 1 41 48
f 1 48 58
f 1 58 71
f 1 71 83
f 1 83 93
f 1 93 105
f 1 105 117
f 1 117 129
f 1 129 143
f 1 143 149
f 1 149 148
f 1 148 165
f 1 165 181
f 1 181 170
f 1 170 184
f 1 184 203
f 1 203 215
f 1 215 214
f 1 214 230
f 1 230 229
f 1 229 245
f 1 245 259
f 1 259 278
f 1 278 295
f 1 295 317
f 1 317 316
f 1 316 342
f 1 342 360
f 1 360 339
f 1 339 359
f 1 359 358
f 1 358 381
f 1 381 403
f 1 403 402
f 1 402 401
f 1 401 417
f 1 417 416
f 1 416 415
f 1 415 420
f 1 420 409
f 1 409 391
f 1 391 370
f 1 370 369
f 1 369 349
f 1 349 323
f 1 323 301
f 1 301 283
f 1 283 263
f 1 263 249
f 1 249 234
f 1 234 219
f 1 219 207
f 1 207 189
f 1 189 175
f 1 175 174
f 1 174 163
f 1 163 162
f 1 162 161
f 1 161 159
f 1 159 144
f 1 144 132
f 1 132 131
f 1 131 130
f 1 130 118
f 1 118 106
f 1 106 95
f 1 95 84
f 1 84 72
f 1 72 59
f 1 59 51
f 1 51 43
f 1 43 33
f 1 33 23
f 1 23 12
f 1 12 7
f 1 7 2
f 2 5 6
f 2 6 3
f 2 7 5
f 4 8 9
f 5 7 10
f 5 10 6
f 6 10 20
f 6 20 32
f 6 32 42
f 6 42 52
f 6 52 61
f 6 61 60
f 6 60 73
f 6 73 85
f 6 85 96
f 6 96 108
f 6 108 107
f 6 107 119
f 6 119 133
f 6 133 145
f 6 145 160
f 6 160 173
f 6 173 188
f 6 188 206
f 6 206 218
f 6 218 233
f 6 233 248
f 6 248 262
f 6 262 282
f 6 282 300
f 6 300 322
f 6 322 348
f 6 348 368
f 6 368 390
f 6 390 393
f 6 393 372
f 6 372 351
f 6 351 334
f 6 334 309
f 6 309 287
f 6 287 266
f 6 266 252
f 6 252 236
f 6 236 220
f 6 220 208
f 6 208 191
f 6 191 176
f 6 176 164
f 6 164 146
f 6 146 135
f 6 135 121
f 6 121 110
f 6 110 98
f 6 98 86
f 6 86 74
f 6 74 64
f 6 64 63
f 6 63 62
f 6 62 53
f 6 53 44
f 6 44 34
f 6 34 24
f 6 24 21
f 6 21 11
f 7 12 10
f 8 13 14
f 8 14 15
f 8 15 16
f 8 16 17
f 8 17 9
f 9 17 18
f 9 18 19
f 10 12 20
f 11 21 22
f 12 23 20
f 13 22 21
f 13 21 14
f 14 21 24
f 14 24 25
f 14 25 15
f 15 25 16
f 16 25 17
f 17 25 26
f 17 26 28
f 17 28 18
f 18 27 19
f 18 28 29
f 18 29 30
f 18 30 27
f 19 27 31
f 20 23 33
f 20 33 32
f 24 34 25
f 25 34 44
f 25 44 35
f 25 35 26
f 26 35 28
f 27 30 36
f 27 36 37
f 27 37 38
f 27 38 31
f 28 35 29
f 29 35 39
f 29 39 30
f 30 39 40
f 30 40 36
f 31 38 41
f 32 33 42
f 33 43 42
f 35 44 53
f 35 53 45
f 35 45 39
f 36 40 46
f 36 46 47
f 36 47 37
f 37 47 38
f 38 48 41
f 38 47 48
f 39 45 40
f 40 45 49
f 40 49 50
f 40 50 46
f 42 43 51
f 42 51 52
f 45 53 54
f 45 54 50
f 45 50 49
f 46 50 55
f 46 55 47
f 47 55 56
f 47 56 57
f 47 57 48
f 48 57 58
f 50 54 55
f 51 59 60
f 51 60 61
f 51 61 52
f 53 62 54
f 54 62 63
f 54 63 64
f 54 64 65
f 54 65 66
f 54 66 55
f 55 66 56
f 56 67 57
f 56 66 68
f 56 68 69
f 56 69 67
f 57 67 70
f 57 70 58
f 58 70 71
f 59 72 73
f 59 73 60
f 64 74 76
f 64 76 65
f 65 75 66
f 65 76 75
f 66 75 77
f 66 77 78
f 66 78 68
f 67 69 79
f 67 79 80
f 67 80 70
f 68 78 81
f 68 81 69
f 69 81 79
f 70 80 82
f 70 82 71
f 71 82 83
f 72 84 85
f 72 85 73
f 74 86 87
f 74 87 76
f 75 76 77
f 76 87 88
f 76 88 77
f 77 88 78
f 78 88 89
f 78 89 90
f 78 90 94
f 78 94 81
f 79 91 80
f 79 81 92
f 79 92 91
f 80 91 93
f 80 93 82
f 81 94 103
f 81 103 92
f 82 93 83
f 84 95 96
f 84 96 85
f 86 97 87
f 86 98 97
f 87 97 99
f 87 99 100
f 87 100 90
f 87 90 89
f 87 89 88
f 90 100 101
f 90 101 102
f 90 102 94
f 91 92 93
f 92 103 104
f 92 104 93
f 93 104 105
f 94 102 103
f 95 106 107
f 95 107 108
f 95 108 96
f 97 98 109
f 97 109 99
f 98 110 120
f 98 120 109
f 99 111 100
f 99 109 112
f 99 112 111
f 100 111 101
f 101 111 102
f 102 111 113
f 102 113 127
f 102 127 114
f 102 114 103
f 103 115 116
f 103 116 104
f 103 114 115
f 104 116 105
f 105 116 117
f 106 118 107
f 107 118 119
f 109 120 112
f 110 121 134
f 110 134 120
f 111 122 123
f 111 123 113
f 111 112 124
f 111 124 122
f 112 120 125
f 112 125 126
f 112 126 124
f 113 123 127
f 114 127 128
f 114 128 129
f 114 129 115
f 115 129 116
f 116 129 117
f 118 130 119
f 119 130 131
f 119 131 132
f 119 132 133
f 120 134 125
f 121 135 140
f 121 140 134
f 122 124 126
f 122 126 123
f 123 136 127
f 123 126 137
f 123 137 138
f 123 138 136
f 125 134 126
f 126 139 137
f 126 134 140
f 126 140 141
f 126 141 139
f 127 136 128
f 128 142 143
f 128 143 129
f 128 136 142
f 132 144 145
f 132 145 133
f 135 146 157
f 135 157 140
f 136 147 148
f 136 148 149
f 136 149 150
f 136 150 142
f 136 138 151
f 136 151 147
f 137 139 138
f 138 139 152
f 138 152 151
f 139 153 154
f 139 154 152
f 139 141 155
f 139 155 156
f 139 156 153
f 140 157 141
f 141 157 158
f 141 158 155
f 142 150 143
f 143 150 149
f 144 159 145
f 145 159 161
f 145 161 162
f 145 162 163
f 145 163 160
f 146 164 157
f 147 165 148
f 147 151 166
f 147 166 167
f 147 167 165
f 151 152 166
f 152 154 166
f 153 156 168
f 153 168 154
f 154 169 170
f 154 170 166
f 154 168 171
f 154 171 169
f 155 158 156
f 156 158 157
f 156 157 172
f 156 172 168
f 157 164 172
f 160 163 174
f 160 174 175
f 160 175 173
f 164 176 177
f 164 177 178
f 164 178 179
f 164 179 180
f 164 180 172
f 165 167 181
f 166 170 167
f 167 170 181
f 168 172 187
f 168 187 182
f 168 182 171
f 169 183 184
f 169 184 170
f 169 171 185
f 169 185 183
f 171 182 186
f 171 186 185
f 172 180 187
f 173 175 188
f 175 189 190
f 175 190 188
f 176 191 192
f 176 192 177
f 177 192 193
f 177 193 194
f 177 194 195
f 177 195 196
f 177 196 179
f 177 179 178
f 179 196 180
f 180 196 187
f 182 187 196
f 182 196 197
f 182 197 198
f 182 198 199
f 182 199 186
f 183 185 200
f 183 200 201
f 183 201 184
f 184 201 202
f 184 202 203
f 185 186 201
f 185 201 200
f 186 199 204
f 186 204 205
f 186 205 201
f 188 190 189
f 188 189 207
f 188 207 219
f 188 219 235
f 188 235 231
f 188 231 217
f 188 217 206
f 191 208 209
f 191 209 192
f 192 209 193
f 193 209 210
f 193 210 194
f 194 211 212
f 194 212 199
f 194 199 197
f 194 197 196
f 194 196 195
f 194 210 211
f 197 199 198
f 199 212 204
f 201 205 202
f 202 205 213
f 202 213 214
f 202 214 215
f 202 215 203
f 204 216 205
f 204 212 216
f 205 216 214
f 205 214 213
f 206 217 218
f 208 220 221
f 208 221 209
f 209 221 222
f 209 222 223
f 209 223 210
f 210 223 211
f 211 224 225
f 211 225 226
f 211 226 212
f 211 223 227
f 211 227 224
f 212 226 225
f 212 225 228
f 212 228 229
f 212 229 230
f 212 230 216
f 214 216 230
f 217 231 232
f 217 232 218
f 218 232 247
f 218 247 233
f 219 234 235
f 220 236 237
f 220 237 221
f 221 237 238
f 221 238 239
f 221 239 240
f 221 240 222
f 222 240 223
f 223 240 244
f 223 244 227
f 224 227 244
f 224 244 241
f 224 241 256
f 224 256 242
f 224 242 225
f 225 242 243
f 225 243 229
f 225 229 228
f 229 243 245
f 231 235 232
f 232 235 246
f 232 246 247
f 233 247 248
f 234 249 250
f 234 250 251
f 234 251 235
f 235 251 246
f 236 252 253
f 236 253 237
f 237 253 238
f 238 253 254
f 238 254 239
f 239 254 255
f 239 255 240
f 240 255 244
f 241 244 255
f 241 255 257
f 241 257 256
f 242 256 258
f 242 258 243
f 243 258 259
f 243 259 245
f 246 251 260
f 246 260 247
f 247 260 248
f 248 260 261
f 248 261 262
f 249 263 250
f 250 263 264
f 250 264 265
f 250 265 260
f 250 260 251
f 252 266 271
f 252 271 253
f 253 267 268
f 253 268 269
f 253 269 270
f 253 270 254
f 253 271 272
f 253 272 267
f 254 269 273
f 254 273 274
f 254 274 275
f 254 275 255
f 254 270 269
f 255 275 276
f 255 276 257
f 256 257 258
f 257 276 275
f 257 275 277
f 257 277 278
f 257 278 258
f 258 278 259
f 260 265 261
f 261 265 279
f 261 279 280
f 261 280 281
f 261 281 282
f 261 282 262
f 263 283 284
f 263 284 285
f 263 285 286
f 263 286 264
f 264 286 279
f 264 279 265
f 266 287 271
f 267 272 288
f 267 288 268
f 268 288 289
f 268 289 269
f 269 289 273
f 271 287 272
f 272 287 288
f 273 290 274
f 273 289 291
f 273 291 290
f 274 290 291
f 274 291 292
f 274 292 293
f 274 293 275
f 275 293 294
f 275 294 295
f 275 295 278
f 275 278 277
f 279 296 297
f 279 297 280
f 279 286 296
f 280 298 281
f 280 297 298
f 281 298 297
f 281 297 299
f 281 299 300
f 281 300 282
f 283 301 302
f 283 302 303
f 283 303 304
f 283 304 284
f 284 304 305
f 284 305 285
f 285 305 296
f 285 296 286
f 287 306 307
f 287 307 308
f 287 308 288
f 287 309 306
f 288 308 289
f 289 308 310
f 289 310 291
f 291 310 292
f 292 294 293
f 292 310 311
f 292 311 312
f 292 312 313
f 292 313 314
f 292 314 315
f 292 315 316
f 292 316 294
f 294 316 317
f 294 317 295
f 296 305 318
f 296 318 297
f 297 318 299
f 299 319 320
f 299 320 321
f 299 321 322
f 299 322 300
f 299 318 319
f 301 323 324
f 301 324 302
f 302 325 326
f 302 326 303
f 302 324 325
f 303 326 327
f 303 327 304
f 304 327 305
f 305 327 328
f 305 328 318
f 306 309 329
f 306 329 330
f 306 330 331
f 306 331 307
f 307 331 330
f 307 330 332
f 307 332 333
f 307 333 308
f 308 333 310
f 309 334 329
f 310 333 335
f 310 335 336
f 310 336 311
f 311 336 337
f 311 337 312
f 312 337 313
f 313 337 314
f 314 337 338
f 314 338 339
f 314 339 340
f 314 340 341
f 314 341 315
f 315 341 316
f 316 341 342
f 318 328 343
f 318 343 344
f 318 344 319
f 319 344 345
f 319 345 320
f 320 345 346
f 320 346 347
f 320 347 321
f 321 347 348
f 321 348 322
f 323 349 324
f 324 349 325
f 325 349 350
f 325 350 343
f 325 343 326
f 326 343 327
f 327 343 328
f 329 351 352
f 329 352 330
f 329 334 351
f 330 352 353
f 330 353 332
f 332 353 354
f 332 354 355
f 332 355 333
f 333 355 356
f 333 356 335
f 335 356 336
f 336 356 357
f 336 357 358
f 336 358 337
f 337 358 359
f 337 359 338
f 338 359 339
f 339 360 341
f 339 341 340
f 341 360 342
f 343 361 362
f 343 362 363
f 343 363 364
f 343 364 365
f 343 365 345
f 343 345 344
f 343 350 361
f 345 365 366
f 345 366 346
f 346 366 367
f 346 367 347
f 347 367 368
f 347 368 348
f 349 369 350
f 350 369 370
f 350 370 371
f 350 371 361
f 351 372 373
f 351 373 374
f 351 374 352
f 352 374 375
f 352 375 353
f 353 375 354
f 354 375 355
f 355 375 356
f 356 375 376
f 356 376 377
f 356 377 357
f 357 377 378
f 357 378 358
f 358 378 379
f 358 379 380
f 358 380 381
f 361 371 362
f 362 371 370
f 362 370 382
f 362 382 383
f 362 383 384
f 362 384 385
f 362 385 363
f 363 385 364
f 364 385 386
f 364 386 365
f 365 386 366
f 366 386 367
f 367 386 387
f 367 387 388
f 367 388 389
f 367 389 390
f 367 390 368
f 370 391 392
f 370 392 382
f 372 393 394
f 372 394 373
f 373 394 395
f 373 395 396
f 373 396 374
f 374 396 397
f 374 397 375
f 375 397 398
f 375 398 376
f 376 398 377
f 377 398 399
f 377 399 400
f 377 400 401
f 377 401 378
f 378 401 379
f 379 401 402
f 379 402 380
f 380 402 403
f 380 403 381
f 382 392 383
f 383 392 404
f 383 404 405
f 383 405 384
f 384 405 406
f 384 406 385
f 385 406 407
f 385 407 386
f 386 407 387
f 387 407 408
f 387 408 388
f 388 408 395
f 388 395 394
f 388 394 389
f 389 394 393
f 389 393 390
f 391 409 392
f 392 409 404
f 395 408 396
f 396 408 410
f 396 410 397
f 397 410 408
f 397 408 398
f 398 408 411
f 398 411 412
f 398 412 399
f 399 412 413
f 399 413 414
f 399 414 400
f 400 415 416
f 400 416 417
f 400 417 401
f 400 414 415
f 404 409 418
f 404 418 419
f 404 419 405
f 405 419 413
f 405 413 412
f 405 412 411
f 405 411 406
f 406 411 408
f 406 408 407
f 409 420 418
f 413 419 415
f 413 415 414
f 415 419 418
f 415 418 420

