# https://github.com/mikedh/trimesh
v 0.00179792 -0.00843856 0.00506875
v 0.00179792 -0.00832872 0.00505702
v 0.00156250 -0.00843856 0.00506875
v 0.00179792 -0.02381228 0.00506875
v 0.00179792 -0.00831303 0.00505425
v 0.00137229 -0.00843856 0.00506628
v 0.00143750 -0.00843856 0.00506782
v 0.00137229 -0.00850307 0.00506813
v 0.00137229 -0.00856409 0.00506875
v 0.00137229 -0.02381228 0.00506875
v 0.00137229 -0.02387678 0.00506782
v 0.00143750 -0.02393606 0.00506690
v 0.00179792 -0.02382622 0.00506844
v 0.00137229 -0.00833221 0.00503172
v 0.00137229 -0.00838451 0.00504962
v 0.00179792 -0.00823632 0.00502401
v 0.00137229 -0.02393606 0.00506690
v 0.00137229 -0.02400231 0.00506227
v 0.00156250 -0.02393606 0.00506659
v 0.00168746 -0.02393606 0.00506628
v 0.00179792 -0.02393606 0.00506597
v 0.00137229 -0.00830257 0.00500951
v 0.00179792 -0.00822760 0.00502000
v 0.00137229 -0.02406159 0.00505764
v 0.00179792 -0.02406159 0.00505363
v 0.00137229 -0.00826944 0.00498174
v 0.00179792 -0.00817181 0.00496878
v 0.00137229 -0.02412610 0.00504715
v 0.00137229 -0.02418712 0.00503697
v 0.00156250 -0.02418712 0.00503357
v 0.00179792 -0.02418712 0.00502895
v 0.00137229 -0.00823806 0.00495181
v 0.00179792 -0.00810033 0.00489905
v 0.00137229 -0.02428301 0.00501198
v 0.00143750 -0.02428126 0.00501136
v 0.00168746 -0.02427255 0.00500827
v 0.00179792 -0.02426732 0.00500673
v 0.00137229 -0.00747966 0.00420451
v 0.00179792 -0.00734890 0.00416501
v 0.00137229 -0.02431613 0.00500025
v 0.00143750 -0.02434403 0.00498853
v 0.00179792 -0.02433008 0.00498236
v 0.00137229 -0.00738726 0.00411225
v 0.00179792 -0.00728614 0.00410145
v 0.00137229 -0.02434577 0.00498945
v 0.00137229 -0.02439285 0.00496755
v 0.00179792 -0.02434229 0.00497649
v 0.00179792 -0.00727917 0.00409343
v 0.00179792 -0.00723558 0.00403820
v 0.00137229 -0.00736983 0.00409004
v 0.00137229 -0.02443643 0.00494626
v 0.00143750 -0.02443643 0.00494379
v 0.00156250 -0.02443643 0.00493885
v 0.00179792 -0.02443643 0.00492898
v 0.00179792 -0.00723035 0.00403079
v 0.00162059 -0.00724953 0.00400148
v 0.00137229 -0.00734367 0.00405548
v 0.00137229 -0.02448525 0.00491849
v 0.00143750 -0.02452535 0.00489257
v 0.00168746 -0.02451663 0.00488671
v 0.00179792 -0.02451140 0.00488424
v 0.00179792 -0.00720943 0.00394625
v 0.00137229 -0.00730183 0.00393730
v 0.00137229 -0.00731927 0.00399284
v 0.00137229 -0.02452709 0.00489411
v 0.00137229 -0.02456022 0.00487035
v 0.00137229 -0.02458985 0.00484845
v 0.00156250 -0.02458288 0.00484351
v 0.00179792 -0.02457416 0.00483703
v 0.00179792 -0.00720768 0.00382684
v 0.00137229 -0.00730183 0.00191693
v 0.00137229 -0.02466482 0.00478612
v 0.00143750 -0.02466308 0.00478427
v 0.00179792 -0.02465087 0.00477439
v 0.00179792 -0.00720768 0.00191693
v 0.00137229 -0.02501700 0.00191693
v 0.00137229 -0.02469795 0.00475557
v 0.00179792 -0.02471364 0.00470898
v 0.00137229 -0.02472759 0.00472657
v 0.00143750 -0.02472584 0.00472410
v 0.00179792 -0.02498736 0.00191693
v 0.00141663 -0.02501525 0.00191693
v 0.00137229 -0.02501700 0.00393730
v 0.00137229 -0.02478163 0.00466424
v 0.00156250 -0.02477466 0.00465653
v 0.00179792 -0.02476594 0.00464635
v 0.00179792 -0.02498736 0.00393730
v 0.00179288 -0.02498910 0.00191693
v 0.00162092 -0.02500131 0.00191693
v 0.00169513 -0.02499608 0.00393730
v 0.00143750 -0.02501351 0.00393730
v 0.00137229 -0.02501351 0.00406227
v 0.00137229 -0.02481302 0.00461919
v 0.00137229 -0.02484265 0.00457662
v 0.00143750 -0.02484091 0.00457291
v 0.00179792 -0.02477292 0.00463617
v 0.00179792 -0.02498387 0.00406134
v 0.00169513 -0.02499608 0.00191693
v 0.00163009 -0.02499956 0.00400518
v 0.00137229 -0.02501002 0.00409991
v 0.00150671 -0.02499956 0.00412737
v 0.00137229 -0.02488275 0.00451398
v 0.00168746 -0.02483045 0.00456242
v 0.00143750 -0.02488101 0.00451028
v 0.00179792 -0.02482173 0.00456242
v 0.00179792 -0.02496818 0.00418723
v 0.00137229 -0.02500479 0.00415298
v 0.00137229 -0.02491937 0.00443746
v 0.00153729 -0.02487752 0.00450442
v 0.00179792 -0.02482696 0.00455440
v 0.00179792 -0.02493680 0.00431250
v 0.00168746 -0.02494552 0.00431250
v 0.00143750 -0.02499085 0.00420296
v 0.00137229 -0.02499956 0.00418291
v 0.00137229 -0.02496644 0.00431250
v 0.00143750 -0.02496295 0.00431250
v 0.00179792 -0.02489670 0.00442358
v 0.00168746 -0.02487229 0.00449423
v 0.00179792 -0.02486706 0.00448621
v 0.00179792 -0.02490193 0.00440969
v 0.00156250 -0.02495423 0.00431250
v 0.00137229 -0.02499259 0.00421531
v 0.00137229 -0.02497864 0.00426776
f 1 2 3
f 1 3 9
f 1 9 10
f 1 10 4
f 1 4 13
f 1 13 21
f 1 21 25
f 1 25 31
f 1 31 37
f 1 37 42
f 1 42 47
f 1 47 54
f 1 54 61
f 1 61 69
f 1 69 74
f 1 74 78
f 1 78 86
f 1 86 96
f 1 96 105
f 1 105 110
f 1 110 119
f 1 119 117
f 1 117 120
f 1 120 111
f 1 111 106
f 1 106 97
f 1 97 87
f 1 87 81
f 1 81 75
f 1 75 70
f 1 70 62
f 1 62 55
f 1 55 49
f 1 49 48
f 1 48 44
f 1 44 39
f 1 39 33
f 1 33 27
f 1 27 23
f 1 23 16
f 1 16 5
f 1 5 2
f 2 5 6
f 2 6 7
f 2 7 3
f 3 7 8
f 3 8 9
f 4 10 11
f 4 11 12
f 4 12 13
f 5 14 15
f 5 15 6
f 5 16 14
f 6 8 7
f 6 15 14
f 6 14 22
f 6 22 26
f 6 26 32
f 6 32 38
f 6 38 43
f 6 43 50
f 6 50 57
f 6 57 64
f 6 64 63
f 6 63 71
f 6 71 76
f 6 76 83
f 6 83 92
f 6 92 100
f 6 100 107
f 6 107 114
f 6 114 122
f 6 122 123
f 6 123 115
f 6 115 108
f 6 108 102
f 6 102 94
f 6 94 93
f 6 93 84
f 6 84 79
f 6 79 77
f 6 77 72
f 6 72 67
f 6 67 66
f 6 66 65
f 6 65 58
f 6 58 51
f 6 51 46
f 6 46 45
f 6 45 40
f 6 40 34
f 6 34 29
f 6 29 28
f 6 28 24
f 6 24 18
f 6 18 17
f 6 17 11
f 6 11 10
f 6 10 9
f 6 9 8
f 11 17 12
f 12 17 18
f 12 18 19
f 12 19 13
f 13 19 20
f 13 20 21
f 14 16 23
f 14 23 22
f 18 24 21
f 18 21 20
f 18 20 19
f 21 24 25
f 22 23 26
f 23 27 26
f 24 28 25
f 25 28 29
f 25 29 30
f 25 30 31
f 26 27 32
f 27 33 32
f 29 34 35
f 29 35 30
f 30 35 31
f 31 35 36
f 31 36 37
f 32 33 39
f 32 39 38
f 34 40 35
f 35 40 41
f 35 41 36
f 36 41 42
f 36 42 37
f 38 39 43
f 39 44 43
f 40 45 41
f 41 45 46
f 41 46 42
f 42 46 47
f 43 44 48
f 43 48 49
f 43 49 50
f 46 51 47
f 47 51 52
f 47 52 53
f 47 53 54
f 49 55 56
f 49 56 57
f 49 57 50
f 51 58 52
f 52 58 53
f 53 58 59
f 53 59 54
f 54 59 60
f 54 60 61
f 55 62 56
f 56 62 63
f 56 63 64
f 56 64 57
f 58 65 59
f 59 65 66
f 59 66 60
f 60 66 67
f 60 67 68
f 60 68 69
f 60 69 61
f 62 70 63
f 63 70 75
f 63 75 71
f 67 72 73
f 67 73 74
f 67 74 68
f 68 74 69
f 71 75 81
f 71 81 88
f 71 88 98
f 71 98 89
f 71 89 82
f 71 82 76
f 72 77 73
f 73 77 74
f 74 77 79
f 74 79 80
f 74 80 78
f 76 82 83
f 78 80 84
f 78 84 85
f 78 85 86
f 79 84 80
f 81 87 88
f 82 89 90
f 82 90 91
f 82 91 83
f 83 91 92
f 84 93 85
f 85 93 94
f 85 94 95
f 85 95 86
f 86 95 96
f 87 97 90
f 87 90 88
f 88 90 98
f 89 98 90
f 90 97 99
f 90 99 91
f 91 99 92
f 92 99 101
f 92 101 100
f 94 102 104
f 94 104 95
f 95 103 96
f 95 104 103
f 96 103 105
f 97 106 101
f 97 101 99
f 100 101 107
f 101 106 107
f 102 108 104
f 103 104 109
f 103 109 110
f 103 110 105
f 104 108 109
f 106 111 112
f 106 112 113
f 106 113 114
f 106 114 107
f 108 115 116
f 108 116 117
f 108 117 118
f 108 118 109
f 109 118 110
f 110 118 119
f 111 120 112
f 112 121 122
f 112 122 113
f 112 120 121
f 113 122 114
f 115 123 116
f 116 121 120
f 116 120 117
f 116 123 122
f 116 122 121
f 117 119 118

