# https://github.com/mikedh/trimesh
v -0.00335434 0.02356233 0.00506875
v -0.00335434 0.02368729 0.00506800
v -0.00389147 0.02356233 0.00506875
v -0.00335434 0.00793760 0.00506875
v -0.00335434 0.02377061 0.00506576
v -0.00343753 0.02368729 0.00506800
v -0.00381249 0.02368729 0.00506651
v -0.00389147 0.02368729 0.00506576
v -0.00389147 0.00773476 0.00506875
v -0.00356252 0.00781264 0.00506875
v -0.00335434 0.00789595 0.00506651
v -0.00335434 0.02381226 0.00506427
v -0.00343753 0.02381226 0.00506352
v -0.00389147 0.02373257 0.00506278
v -0.00389147 0.00768767 0.00506800
v -0.00381249 0.00768767 0.00506800
v -0.00343753 0.00781264 0.00506278
v -0.00335434 0.00781264 0.00505233
v -0.00335434 0.02393723 0.00504859
v -0.00381249 0.02381226 0.00505681
v -0.00389147 0.02381226 0.00505531
v -0.00389147 0.00760979 0.00506352
v -0.00368745 0.00768767 0.00506054
v -0.00389147 0.00756089 0.00505158
v -0.00335434 0.00777822 0.00504113
v -0.00343753 0.02393723 0.00504710
v -0.00335434 0.02403322 0.00502545
v -0.00356252 0.02393723 0.00504412
v -0.00389147 0.02385754 0.00504785
v -0.00389147 0.00749206 0.00502919
v -0.00343753 0.00770759 0.00502844
v -0.00335434 0.00772570 0.00501799
v -0.00335434 0.02406763 0.00501650
v -0.00389147 0.02393723 0.00503292
v -0.00343753 0.02405496 0.00501724
v -0.00389147 0.00747214 0.00501948
v -0.00335434 0.00770397 0.00500231
v -0.00384394 0.00748482 0.00501276
v -0.00335434 0.02412378 0.00499933
v -0.00368745 0.02403866 0.00501276
v -0.00389147 0.02402417 0.00500903
v -0.00389147 0.00743954 0.00499634
v -0.00335434 0.00766231 0.00496574
v -0.00389147 0.00646515 0.00414611
v -0.00335434 0.02417993 0.00497544
v -0.00356252 0.02410929 0.00499410
v -0.00368745 0.02410023 0.00499112
v -0.00389147 0.02404771 0.00500007
v -0.00335913 0.00674225 0.00413193
v -0.00335434 0.00679115 0.00417373
v -0.00389147 0.00643074 0.00411401
v -0.00335434 0.02427410 0.00492692
v -0.00343753 0.02418717 0.00496723
v -0.00381249 0.02409118 0.00498738
v -0.00389147 0.02408575 0.00498440
v -0.00389147 0.00640900 0.00409311
v -0.00335434 0.00668429 0.00406698
v -0.00335434 0.00674406 0.00413043
v -0.00335434 0.02431395 0.00490602
v -0.00356252 0.02418717 0.00495902
v -0.00389147 0.02412197 0.00496798
v -0.00389147 0.00635467 0.00403414
v -0.00335434 0.00666981 0.00404981
v -0.00381249 0.02427229 0.00489184
v -0.00389147 0.02421796 0.00491722
v -0.00381249 0.02418717 0.00494185
v -0.00368745 0.02418717 0.00495081
v -0.00335434 0.02436466 0.00487467
v -0.00389147 0.02418717 0.00493513
v -0.00389147 0.00633474 0.00398114
v -0.00385419 0.00636372 0.00401697
v -0.00336980 0.00662272 0.00400428
v -0.00335434 0.00664626 0.00402145
v -0.00389147 0.02426686 0.00488736
v -0.00335434 0.02443349 0.00481868
v -0.00389147 0.02433025 0.00483884
v -0.00389147 0.02429041 0.00487019
v -0.00389147 0.00632750 0.00393710
v -0.00335434 0.00662996 0.00398786
v -0.00335434 0.02450774 0.00475747
v -0.00349258 0.02449869 0.00474851
v -0.00381249 0.02441175 0.00478061
v -0.00389147 0.02440451 0.00477613
v -0.00389147 0.00632569 0.00387365
v -0.00336717 0.00662090 0.00393710
v -0.00335434 0.00662815 0.00393710
v -0.00335434 0.02457294 0.00468357
v -0.00344557 0.02454759 0.00469925
v -0.00356252 0.02449325 0.00474329
v -0.00389147 0.02442805 0.00475523
v -0.00389147 0.00632569 -0.00255722
v -0.00336717 0.00662090 -0.00255722
v -0.00335434 0.00662815 -0.00246242
v -0.00335434 0.02461279 0.00463729
v -0.00336649 0.02462366 0.00462310
v -0.00368745 0.02453672 0.00467163
v -0.00389147 0.02452223 0.00465446
v -0.00389147 0.02446790 0.00471716
v -0.00389147 0.02475225 -0.00255722
v -0.00335492 0.00662815 -0.00255722
v -0.00335434 0.00672052 -0.00255722
v -0.00335434 0.02462366 0.00462385
v -0.00343753 0.02461822 0.00461564
v -0.00389147 0.02454578 0.00462161
v -0.00335434 0.02463271 0.00461042
v -0.00335434 0.02465807 0.00456787
v -0.00343753 0.02465626 0.00455294
v -0.00356252 0.02464720 0.00453950
v -0.00389147 0.02475225 0.00396322
v -0.00381591 0.02476311 -0.00255722
v -0.00335434 0.02482831 -0.00255722
v -0.00389147 0.02461822 0.00451113
v -0.00356252 0.02460917 0.00460146
v -0.00368745 0.02460011 0.00458727
v -0.00389147 0.02458924 0.00455742
v -0.00335434 0.02470335 0.00448725
v -0.00335434 0.02472689 0.00444470
v -0.00388180 0.02462547 0.00450143
v -0.00335434 0.02482650 0.00397890
v -0.00368745 0.02478122 0.00393710
v -0.00389147 0.02475043 0.00403041
v -0.00335434 0.02482831 0.00385424
v -0.00389147 0.02462909 0.00448949
v -0.00389147 0.02460192 0.00453726
v -0.00368745 0.02468342 0.00443723
v -0.00389147 0.02465263 0.00444171
v -0.00335434 0.02475406 0.00438498
v -0.00343753 0.02481201 0.00406176
v -0.00335434 0.02482288 0.00406176
v -0.00389147 0.02474862 0.00406624
v -0.00356252 0.02473957 0.00434243
v -0.00389147 0.02470153 0.00431183
v -0.00335434 0.02476673 0.00434840
v -0.00335434 0.02481926 0.00410431
v -0.00389147 0.02474681 0.00409460
v -0.00386849 0.02474862 0.00411028
v -0.00335434 0.02477760 0.00431407
v -0.00364812 0.02475225 0.00426032
v -0.00373141 0.02474681 0.00423569
v -0.00389147 0.02471421 0.00426405
v -0.00335434 0.02480839 0.00418716
v -0.00389147 0.02474138 0.00413566
v -0.00378515 0.02475406 0.00415208
v -0.00389147 0.02473232 0.00418866
v -0.00368887 0.02476130 0.00419090
f 1 2 6
f 1 6 3
f 1 3 9
f 1 9 10
f 1 10 4
f 1 4 11
f 1 11 18
f 1 18 25
f 1 25 32
f 1 32 37
f 1 37 43
f 1 43 50
f 1 50 58
f 1 58 57
f 1 57 63
f 1 63 73
f 1 73 79
f 1 79 86
f 1 86 93
f 1 93 101
f 1 101 111
f 1 111 122
f 1 122 119
f 1 119 129
f 1 129 134
f 1 134 141
f 1 141 137
f 1 137 133
f 1 133 127
f 1 127 117
f 1 117 116
f 1 116 106
f 1 106 105
f 1 105 102
f 1 102 94
f 1 94 87
f 1 87 80
f 1 80 75
f 1 75 68
f 1 68 59
f 1 59 52
f 1 52 45
f 1 45 39
f 1 39 33
f 1 33 27
f 1 27 19
f 1 19 12
f 1 12 5
f 1 5 2
f 2 5 6
f 3 6 7
f 3 7 8
f 3 8 14
f 3 14 21
f 3 21 29
f 3 29 34
f 3 34 41
f 3 41 48
f 3 48 55
f 3 55 61
f 3 61 69
f 3 69 65
f 3 65 74
f 3 74 77
f 3 77 76
f 3 76 83
f 3 83 90
f 3 90 98
f 3 98 97
f 3 97 104
f 3 104 115
f 3 115 124
f 3 124 112
f 3 112 123
f 3 123 126
f 3 126 132
f 3 132 140
f 3 140 144
f 3 144 142
f 3 142 135
f 3 135 130
f 3 130 121
f 3 121 109
f 3 109 99
f 3 99 91
f 3 91 84
f 3 84 78
f 3 78 70
f 3 70 62
f 3 62 56
f 3 56 51
f 3 51 44
f 3 44 42
f 3 42 36
f 3 36 30
f 3 30 24
f 3 24 22
f 3 22 15
f 3 15 9
f 4 10 11
f 5 7 6
f 5 12 7
f 7 12 13
f 7 13 8
f 8 13 14
f 9 15 16
f 9 16 10
f 10 16 17
f 10 17 11
f 11 17 18
f 12 19 13
f 13 19 20
f 13 20 14
f 14 20 21
f 15 22 16
f 16 22 17
f 17 22 23
f 17 23 18
f 18 23 24
f 18 24 30
f 18 30 25
f 19 26 20
f 19 27 26
f 20 26 21
f 21 26 28
f 21 28 29
f 22 24 23
f 25 31 32
f 25 30 31
f 26 27 28
f 27 33 28
f 28 34 29
f 28 33 35
f 28 35 34
f 30 36 32
f 30 32 31
f 32 36 38
f 32 38 37
f 33 39 35
f 34 35 40
f 34 40 41
f 35 39 40
f 36 42 38
f 37 38 42
f 37 42 44
f 37 44 43
f 39 45 46
f 39 46 47
f 39 47 41
f 39 41 40
f 41 47 48
f 43 44 49
f 43 49 50
f 44 51 49
f 45 52 53
f 45 53 47
f 45 47 46
f 47 54 48
f 47 53 54
f 48 54 55
f 49 51 56
f 49 56 57
f 49 57 58
f 49 58 50
f 52 59 53
f 53 60 61
f 53 61 54
f 53 59 60
f 54 61 55
f 56 62 57
f 57 62 63
f 59 64 65
f 59 65 66
f 59 66 67
f 59 67 60
f 59 68 64
f 60 67 61
f 61 67 66
f 61 66 69
f 62 70 71
f 62 71 72
f 62 72 63
f 63 72 73
f 64 74 65
f 64 68 74
f 65 69 66
f 68 75 76
f 68 76 77
f 68 77 74
f 70 78 72
f 70 72 71
f 72 79 73
f 72 78 79
f 75 80 81
f 75 81 76
f 76 81 82
f 76 82 83
f 78 84 85
f 78 85 79
f 79 85 86
f 80 87 81
f 81 87 88
f 81 88 89
f 81 89 90
f 81 90 83
f 81 83 82
f 84 91 92
f 84 92 85
f 85 92 93
f 85 93 86
f 87 94 95
f 87 95 88
f 88 95 96
f 88 96 89
f 89 96 97
f 89 97 98
f 89 98 90
f 91 99 110
f 91 110 111
f 91 111 101
f 91 101 100
f 91 100 92
f 92 100 93
f 93 100 101
f 94 102 95
f 95 103 104
f 95 104 97
f 95 97 96
f 95 102 105
f 95 105 106
f 95 106 107
f 95 107 108
f 95 108 103
f 99 109 110
f 103 108 112
f 103 112 113
f 103 113 104
f 104 114 115
f 104 113 114
f 106 116 107
f 107 116 117
f 107 117 108
f 108 118 112
f 108 117 118
f 109 119 120
f 109 120 110
f 109 121 119
f 110 120 122
f 110 122 111
f 112 118 123
f 112 124 114
f 112 114 113
f 114 124 115
f 117 125 126
f 117 126 118
f 117 127 125
f 118 126 123
f 119 128 129
f 119 122 120
f 119 121 128
f 121 130 128
f 125 127 126
f 126 131 132
f 126 127 131
f 127 133 131
f 128 134 129
f 128 130 135
f 128 135 136
f 128 136 134
f 131 133 137
f 131 137 138
f 131 138 132
f 132 139 140
f 132 138 139
f 134 136 141
f 135 142 136
f 136 142 143
f 136 143 141
f 137 141 138
f 138 141 139
f 139 144 140
f 139 141 145
f 139 145 144
f 141 143 145
f 142 144 143
f 143 144 145

