# https://github.com/mikedh/trimesh
v 0.00179792 -0.00720769 0.00191656
v 0.00179792 -0.00720769 -0.00381200
v 0.00137229 -0.00730357 0.00191656
v 0.00179792 -0.02498562 0.00191656
v 0.00179792 -0.00720943 -0.00393712
v 0.00137229 -0.00730357 -0.00393712
v 0.00137229 -0.02501700 0.00191656
v 0.00179284 -0.02498736 0.00191656
v 0.00179792 -0.02498562 -0.00394943
v 0.00179792 -0.00723209 -0.00403080
v 0.00162056 -0.00725127 -0.00400071
v 0.00137229 -0.00734540 -0.00405473
v 0.00137229 -0.02501700 -0.00393712
v 0.00141666 -0.02501525 0.00191656
v 0.00179284 -0.02498736 0.00004169
v 0.00179792 -0.02498039 -0.00406088
v 0.00169510 -0.02499434 -0.00393712
v 0.00163006 -0.02499782 -0.00400345
v 0.00179792 -0.00728090 -0.00409302
v 0.00137229 -0.00738899 -0.00411217
v 0.00137229 -0.02501525 -0.00400208
v 0.00143754 -0.02501351 -0.00393712
v 0.00141666 -0.02501525 0.00004169
v 0.00179792 -0.02497865 -0.00407661
v 0.00137229 -0.02501177 -0.00406635
v 0.00149507 -0.02499782 -0.00412037
v 0.00179792 -0.00734366 -0.00415730
v 0.00137229 -0.00757726 -0.00429815
v 0.00179792 -0.02496296 -0.00418670
v 0.00137229 -0.02500479 -0.00412037
v 0.00137229 -0.02500131 -0.00414704
v 0.00137229 -0.02499085 -0.00420447
v 0.00168743 -0.02497167 -0.00418670
v 0.00179792 -0.00810199 -0.00489918
v 0.00137229 -0.00827108 -0.00498123
v 0.00137229 -0.00808107 -0.00479456
v 0.00179792 -0.02495947 -0.00420174
v 0.00137229 -0.02496296 -0.00431183
v 0.00179792 -0.02493332 -0.00431183
v 0.00179792 -0.00816649 -0.00496140
v 0.00179792 -0.00822925 -0.00501952
v 0.00137229 -0.00833384 -0.00503114
v 0.00137229 -0.02493855 -0.00437747
v 0.00143754 -0.02491240 -0.00443695
v 0.00179792 -0.02489323 -0.00442601
v 0.00179792 -0.00831467 -0.00505371
v 0.00137229 -0.00844018 -0.00506601
v 0.00137229 -0.02491589 -0.00443695
v 0.00156253 -0.02487579 -0.00450465
v 0.00171489 -0.02487056 -0.00449371
v 0.00179792 -0.02486708 -0.00448755
v 0.00179792 -0.00844018 -0.00506875
v 0.00156253 -0.00844018 -0.00506875
v 0.00143754 -0.00844018 -0.00506738
v 0.00137229 -0.00856570 -0.00506875
v 0.00137229 -0.02488102 -0.00451559
v 0.00137229 -0.02486185 -0.00454772
v 0.00137229 -0.02484267 -0.00457781
v 0.00156253 -0.02483570 -0.00456687
v 0.00179792 -0.02481478 -0.00457234
v 0.00179792 -0.02381065 -0.00506875
v 0.00137229 -0.02381065 -0.00506875
v 0.00137229 -0.02477991 -0.00466260
v 0.00156253 -0.02477294 -0.00465507
v 0.00179792 -0.02476422 -0.00464550
v 0.00179792 -0.02393442 -0.00506396
v 0.00137229 -0.02393442 -0.00506601
v 0.00137229 -0.02472413 -0.00472482
v 0.00143754 -0.02472238 -0.00472277
v 0.00179792 -0.02471018 -0.00470841
v 0.00179792 -0.02405994 -0.00505371
v 0.00168743 -0.02405994 -0.00505507
v 0.00156253 -0.02405994 -0.00505576
v 0.00143754 -0.02405994 -0.00505644
v 0.00137229 -0.02405994 -0.00505644
v 0.00137229 -0.02466137 -0.00478636
v 0.00143754 -0.02465963 -0.00478499
v 0.00156253 -0.02465614 -0.00478089
v 0.00179792 -0.02464742 -0.00477337
v 0.00179792 -0.02470321 -0.00471593
v 0.00179792 -0.02418546 -0.00503046
v 0.00168743 -0.02418546 -0.00503251
v 0.00156253 -0.02418546 -0.00503456
v 0.00143754 -0.02418546 -0.00503593
v 0.00137229 -0.02418546 -0.00503661
v 0.00137229 -0.02462302 -0.00481986
v 0.00143754 -0.02458641 -0.00484721
v 0.00179792 -0.02456723 -0.00484174
v 0.00179792 -0.02426565 -0.00500653
v 0.00168743 -0.02427088 -0.00500790
v 0.00143754 -0.02427959 -0.00501063
v 0.00137229 -0.02428134 -0.00501131
v 0.00137229 -0.02423078 -0.00502499
v 0.00137229 -0.02458815 -0.00484926
v 0.00179792 -0.02451145 -0.00488345
v 0.00179792 -0.02432840 -0.00498123
v 0.00143754 -0.02434235 -0.00498807
v 0.00137229 -0.02431271 -0.00500037
v 0.00137229 -0.02452539 -0.00489234
v 0.00143754 -0.02452365 -0.00489097
v 0.00179792 -0.02450273 -0.00488960
v 0.00179792 -0.02443474 -0.00492790
v 0.00168743 -0.02443474 -0.00493268
v 0.00156253 -0.02443474 -0.00493747
v 0.00137229 -0.02443474 -0.00494431
v 0.00137229 -0.02438942 -0.00496687
v 0.00137229 -0.02434409 -0.00498875
f 1 2 6
f 1 6 3
f 1 3 7
f 1 7 14
f 1 14 8
f 1 8 4
f 1 4 9
f 1 9 16
f 1 16 24
f 1 24 29
f 1 29 37
f 1 37 39
f 1 39 45
f 1 45 51
f 1 51 60
f 1 60 65
f 1 65 70
f 1 70 80
f 1 80 79
f 1 79 88
f 1 88 95
f 1 95 101
f 1 101 102
f 1 102 96
f 1 96 89
f 1 89 81
f 1 81 71
f 1 71 66
f 1 66 61
f 1 61 52
f 1 52 46
f 1 46 41
f 1 41 40
f 1 40 34
f 1 34 27
f 1 27 19
f 1 19 10
f 1 10 5
f 1 5 2
f 2 5 6
f 3 6 12
f 3 12 20
f 3 20 28
f 3 28 36
f 3 36 35
f 3 35 42
f 3 42 47
f 3 47 55
f 3 55 62
f 3 62 67
f 3 67 75
f 3 75 85
f 3 85 93
f 3 93 92
f 3 92 98
f 3 98 107
f 3 107 106
f 3 106 105
f 3 105 99
f 3 99 94
f 3 94 86
f 3 86 76
f 3 76 68
f 3 68 63
f 3 63 58
f 3 58 57
f 3 57 56
f 3 56 48
f 3 48 43
f 3 43 38
f 3 38 32
f 3 32 31
f 3 31 30
f 3 30 25
f 3 25 21
f 3 21 13
f 3 13 7
f 4 8 15
f 4 15 9
f 5 10 11
f 5 11 6
f 6 11 12
f 7 13 23
f 7 23 14
f 8 14 23
f 8 23 15
f 9 15 17
f 9 17 18
f 9 18 16
f 10 19 20
f 10 20 12
f 10 12 11
f 13 21 22
f 13 22 23
f 15 23 22
f 15 22 17
f 16 18 25
f 16 25 26
f 16 26 24
f 17 22 18
f 18 22 21
f 18 21 25
f 19 27 20
f 20 27 28
f 24 26 29
f 25 30 26
f 26 30 31
f 26 31 32
f 26 32 33
f 26 33 29
f 27 34 35
f 27 35 36
f 27 36 28
f 29 33 37
f 32 38 39
f 32 39 33
f 33 39 37
f 34 40 35
f 35 41 42
f 35 40 41
f 38 43 44
f 38 44 45
f 38 45 39
f 41 46 42
f 42 46 47
f 43 48 44
f 44 48 49
f 44 49 50
f 44 50 45
f 45 50 51
f 46 52 53
f 46 53 54
f 46 54 47
f 47 54 55
f 48 56 49
f 49 57 58
f 49 58 59
f 49 59 60
f 49 60 50
f 49 56 57
f 50 60 51
f 52 61 62
f 52 62 55
f 52 55 53
f 53 55 54
f 58 63 64
f 58 64 65
f 58 65 60
f 58 60 59
f 61 66 67
f 61 67 62
f 63 68 69
f 63 69 70
f 63 70 64
f 64 70 65
f 66 71 72
f 66 72 73
f 66 73 74
f 66 74 67
f 67 74 75
f 68 76 77
f 68 77 69
f 69 77 78
f 69 78 79
f 69 79 80
f 69 80 70
f 71 81 82
f 71 82 83
f 71 83 72
f 72 83 84
f 72 84 85
f 72 85 73
f 73 85 74
f 74 85 75
f 76 86 77
f 77 86 78
f 78 86 87
f 78 87 88
f 78 88 79
f 81 89 90
f 81 90 91
f 81 91 82
f 82 91 92
f 82 92 83
f 83 92 93
f 83 93 84
f 84 93 85
f 86 94 87
f 87 94 95
f 87 95 88
f 89 96 97
f 89 97 90
f 90 97 98
f 90 98 91
f 91 98 92
f 94 99 100
f 94 100 101
f 94 101 95
f 96 102 103
f 96 103 104
f 96 104 97
f 97 104 105
f 97 105 106
f 97 106 107
f 97 107 98
f 99 105 104
f 99 104 100
f 100 104 101
f 101 104 103
f 101 103 102

