# https://github.com/mikedh/trimesh
v 0.00422868 -0.00752382 0.00506875
v 0.00422868 -0.00743898 0.00506379
v 0.00406226 -0.00756440 0.00506875
v 0.00422868 -0.02343566 0.00506875
v 0.00422868 -0.00739840 0.00505783
v 0.00418744 -0.00743898 0.00506180
v 0.00243764 -0.00818966 0.00506478
v 0.00256264 -0.00818966 0.00506875
v 0.00406226 -0.02355924 0.00506875
v 0.00422868 -0.02355924 0.00506776
v 0.00422868 -0.00731356 0.00503005
v 0.00235644 -0.00815277 0.00504692
v 0.00235644 -0.00818966 0.00505883
v 0.00235644 -0.00827082 0.00506676
v 0.00235644 -0.00831324 0.00506875
v 0.00318763 -0.02368466 0.00506875
v 0.00356245 -0.02368466 0.00506776
v 0.00418744 -0.02368466 0.00506280
v 0.00422868 -0.02364408 0.00506379
v 0.00422868 -0.00729143 0.00502013
v 0.00235644 -0.00809375 0.00502410
v 0.00235644 -0.02376581 0.00506875
v 0.00268763 -0.02381008 0.00506776
v 0.00306263 -0.02381008 0.00506577
v 0.00422868 -0.02368466 0.00506180
v 0.00318763 -0.02381008 0.00506478
v 0.00331245 -0.02381008 0.00506379
v 0.00356245 -0.02381008 0.00506081
v 0.00381226 -0.02381008 0.00505684
v 0.00406226 -0.02381008 0.00505188
v 0.00422868 -0.00727483 0.00500921
v 0.00235644 -0.00807346 0.00500723
v 0.00422868 -0.00725638 0.00499532
v 0.00235644 -0.02381008 0.00506776
v 0.00235644 -0.02389123 0.00506577
v 0.00243764 -0.02393550 0.00506379
v 0.00422868 -0.02376950 0.00505188
v 0.00256264 -0.02393550 0.00506280
v 0.00306263 -0.02393550 0.00505486
v 0.00422868 -0.02381008 0.00504692
v 0.00318763 -0.02393550 0.00505188
v 0.00356245 -0.02393550 0.00504295
v 0.00235644 -0.00803104 0.00497051
v 0.00422868 -0.00717154 0.00492387
v 0.00422868 -0.00623826 0.00413498
v 0.00235644 -0.02393550 0.00506379
v 0.00235644 -0.02406092 0.00504890
v 0.00243764 -0.02406092 0.00504791
v 0.00256264 -0.02406092 0.00504593
v 0.00406226 -0.02393550 0.00502707
v 0.00422868 -0.02391337 0.00502410
v 0.00268763 -0.02406092 0.00504295
v 0.00291399 -0.02406092 0.00503600
v 0.00235644 -0.00716416 0.00413994
v 0.00422868 -0.00617740 0.00407643
v 0.00235644 -0.02415868 0.00502509
v 0.00243764 -0.02418265 0.00501814
v 0.00256264 -0.02417712 0.00501715
v 0.00416563 -0.02400374 0.00500226
v 0.00419936 -0.02394841 0.00501715
v 0.00422868 -0.02394288 0.00501715
v 0.00291399 -0.02408121 0.00503104
v 0.00281263 -0.02416236 0.00501219
v 0.00293763 -0.02415130 0.00501020
v 0.00422868 -0.00616264 0.00406155
v 0.00235644 -0.00713834 0.00411315
v 0.00235644 -0.02419372 0.00501616
v 0.00237184 -0.02424905 0.00499929
v 0.00256264 -0.02423983 0.00499631
v 0.00422868 -0.02400006 0.00500028
v 0.00337348 -0.02412179 0.00499929
v 0.00343745 -0.02411810 0.00499730
v 0.00281263 -0.02422323 0.00499036
v 0.00268763 -0.02423245 0.00499333
v 0.00422868 -0.00612575 0.00402086
v 0.00235644 -0.00711805 0.00409033
v 0.00235644 -0.02424905 0.00499929
v 0.00235644 -0.02428410 0.00498440
v 0.00243764 -0.02430992 0.00496952
v 0.00256264 -0.02430992 0.00496456
v 0.00291399 -0.02421585 0.00498738
v 0.00422868 -0.02405539 0.00497448
v 0.00268763 -0.02430992 0.00495761
v 0.00281263 -0.02430992 0.00494967
v 0.00422868 -0.00611837 0.00400697
v 0.00235644 -0.00708485 0.00404964
v 0.00235644 -0.02430254 0.00497547
v 0.00235644 -0.02438923 0.00493082
v 0.00243764 -0.02442612 0.00490799
v 0.00256264 -0.02442058 0.00490502
v 0.00356245 -0.02418450 0.00495860
v 0.00368726 -0.02418450 0.00494967
v 0.00406226 -0.02418450 0.00492089
v 0.00418964 -0.02419556 0.00490402
v 0.00422868 -0.02415314 0.00492288
v 0.00368726 -0.02428225 0.00489708
v 0.00268763 -0.02441321 0.00490105
v 0.00291399 -0.02432836 0.00493181
v 0.00422868 -0.00611100 0.00395339
v 0.00422685 -0.00610915 0.00393652
v 0.00235644 -0.00704612 0.00393652
v 0.00235644 -0.00706641 0.00400300
v 0.00235644 -0.02442796 0.00490899
v 0.00235644 -0.02449067 0.00486929
v 0.00243764 -0.02448883 0.00486731
v 0.00256264 -0.02448329 0.00486334
v 0.00406226 -0.02425643 0.00488120
v 0.00414950 -0.02425090 0.00487723
v 0.00422868 -0.02424536 0.00487326
v 0.00291399 -0.02439845 0.00489212
v 0.00422868 -0.00610915 0.00393453
v 0.00422685 -0.00610915 -0.00393652
v 0.00235644 -0.00704612 -0.00393652
v 0.00235644 -0.02453494 0.00483456
v 0.00235644 -0.02460687 0.00477602
v 0.00251590 -0.02462532 0.00475121
v 0.00255970 -0.02457183 0.00479189
v 0.00268763 -0.02447592 0.00485739
v 0.00318763 -0.02438001 0.00487922
v 0.00422868 -0.02425090 0.00486929
v 0.00291399 -0.02446116 0.00484647
v 0.00422868 -0.00610915 -0.00393949
v 0.00422868 -0.00611100 -0.00395339
v 0.00235644 -0.00708485 -0.00404964
v 0.00422868 -0.00612575 -0.00402086
v 0.00235644 -0.02462900 0.00475617
v 0.00243764 -0.02462716 0.00475419
v 0.00259929 -0.02462163 0.00474724
v 0.00235644 -0.02469725 0.00467976
v 0.00243764 -0.02474336 0.00461625
v 0.00268763 -0.02455154 0.00479586
v 0.00291399 -0.02447592 0.00483456
v 0.00318763 -0.02444272 0.00483059
v 0.00306263 -0.02452756 0.00477502
v 0.00318763 -0.02451834 0.00476808
v 0.00393726 -0.02440214 0.00477701
v 0.00418744 -0.02438554 0.00476113
v 0.00422868 -0.02438185 0.00475815
v 0.00235644 -0.00713834 -0.00411315
v 0.00422868 -0.00617740 -0.00407643
v 0.00268763 -0.02466958 0.00467877
v 0.00268763 -0.02461609 0.00474128
v 0.00291399 -0.02454969 0.00477304
v 0.00291399 -0.02453678 0.00478395
v 0.00256264 -0.02473783 0.00460931
v 0.00235644 -0.02474520 0.00462121
v 0.00235644 -0.02478025 0.00456565
v 0.00243764 -0.02478209 0.00455374
v 0.00340464 -0.02450358 0.00475319
v 0.00381226 -0.02447407 0.00472243
v 0.00422868 -0.02442243 0.00471152
v 0.00235644 -0.00719921 -0.00417368
v 0.00422868 -0.00624195 -0.00413796
v 0.00235644 -0.00803104 -0.00497051
v 0.00293763 -0.02465114 0.00465892
v 0.00306263 -0.02459027 0.00471052
v 0.00268763 -0.02473045 0.00459839
v 0.00256264 -0.02477656 0.00454679
v 0.00235644 -0.02482451 0.00448328
v 0.00235644 -0.02484849 0.00443863
v 0.00243434 -0.02485033 0.00442573
v 0.00406226 -0.02450912 0.00463808
v 0.00422868 -0.02449067 0.00462915
v 0.00422868 -0.00713465 -0.00489212
v 0.00235644 -0.00809375 -0.00502410
v 0.00327194 -0.02462716 0.00462915
v 0.00268763 -0.02476918 0.00453588
v 0.00281263 -0.02476180 0.00452198
v 0.00291381 -0.02471569 0.00457259
v 0.00381226 -0.02463085 0.00451008
v 0.00343745 -0.02461609 0.00461228
v 0.00256264 -0.02483373 0.00443664
v 0.00268763 -0.02482082 0.00443664
v 0.00235644 -0.02487616 0.00438008
v 0.00247374 -0.02487062 0.00436917
v 0.00422868 -0.02450174 0.00461427
v 0.00422868 -0.02449621 0.00462221
v 0.00422868 -0.00718998 -0.00493876
v 0.00235644 -0.00818966 -0.00505883
v 0.00422868 -0.00723056 -0.00497250
v 0.00422868 -0.00727483 -0.00500921
v 0.00422868 -0.00731356 -0.00503005
v 0.00291381 -0.02476365 0.00449420
v 0.00388484 -0.02462532 0.00450214
v 0.00419093 -0.02453494 0.00457259
v 0.00356245 -0.02460687 0.00459938
v 0.00256264 -0.02486693 0.00435825
v 0.00268763 -0.02486140 0.00433741
v 0.00331245 -0.02475442 0.00439100
v 0.00318763 -0.02476365 0.00440985
v 0.00418744 -0.02463269 0.00439397
v 0.00396824 -0.02461978 0.00449023
v 0.00235644 -0.02489644 0.00431558
v 0.00243434 -0.02488907 0.00432154
v 0.00256264 -0.02488722 0.00429574
v 0.00422868 -0.02453309 0.00456565
v 0.00243764 -0.00818966 -0.00506478
v 0.00235644 -0.00831324 -0.00506875
v 0.00418744 -0.00743898 -0.00506180
v 0.00422868 -0.00743898 -0.00506379
v 0.00338851 -0.02474889 0.00437909
v 0.00268763 -0.02488169 0.00427490
v 0.00356245 -0.02473783 0.00434237
v 0.00418744 -0.02466036 0.00431161
v 0.00422868 -0.02462900 0.00438703
v 0.00422868 -0.02460134 0.00444657
v 0.00418744 -0.02460318 0.00445649
v 0.00422868 -0.02457920 0.00448725
v 0.00235644 -0.02492780 0.00418658
v 0.00243764 -0.02492227 0.00418658
v 0.00256264 -0.02491304 0.00418658
v 0.00256264 -0.00818966 -0.00506875
v 0.00406226 -0.00756440 -0.00506875
v 0.00235644 -0.02368650 -0.00506875
v 0.00422868 -0.00756440 -0.00506875
v 0.00268763 -0.02490013 0.00418658
v 0.00280952 -0.02488353 0.00418857
v 0.00373088 -0.02474520 0.00423421
v 0.00364749 -0.02475074 0.00426001
v 0.00422868 -0.02468249 0.00418658
v 0.00422868 -0.02465298 0.00431360
v 0.00235644 -0.02493887 0.00410620
v 0.00243764 -0.02493887 0.00406155
v 0.00256264 -0.02492964 0.00406155
v 0.00291381 -0.02368650 -0.00506875
v 0.00235644 -0.02381008 -0.00506776
v 0.00422868 -0.02343566 -0.00506875
v 0.00281263 -0.02490013 0.00406155
v 0.00290519 -0.02487800 0.00414689
v 0.00378257 -0.02475258 0.00415086
v 0.00406226 -0.02470647 0.00418658
v 0.00386596 -0.02474705 0.00410720
v 0.00418744 -0.02470463 0.00406155
v 0.00422868 -0.02469725 0.00406155
v 0.00235644 -0.02494440 0.00406155
v 0.00235644 -0.02494809 0.00398117
v 0.00256264 -0.02493333 0.00393652
v 0.00268763 -0.02492042 0.00393652
v 0.00318763 -0.02368466 -0.00506875
v 0.00256264 -0.02381008 -0.00506776
v 0.00235644 -0.02385435 -0.00506577
v 0.00422868 -0.02355924 -0.00506776
v 0.00406226 -0.02355924 -0.00506875
v 0.00300746 -0.02487431 0.00401590
v 0.00422868 -0.02470278 0.00393652
v 0.00388704 -0.02474889 0.00402384
v 0.00406226 -0.02472676 0.00393652
v 0.00235644 -0.02494993 0.00385614
v 0.00256264 -0.02493333 -0.00393652
v 0.00268763 -0.02492042 -0.00393652
v 0.00291399 -0.02488907 0.00393652
v 0.00343745 -0.02368466 -0.00506776
v 0.00406226 -0.02368466 -0.00506379
v 0.00331245 -0.02381008 -0.00506280
v 0.00243764 -0.02393550 -0.00506180
v 0.00235644 -0.02393550 -0.00506180
v 0.00422868 -0.02360166 -0.00506577
v 0.00389309 -0.02475074 0.00393652
v 0.00422868 -0.02470278 -0.00393652
v 0.00406226 -0.02472676 -0.00393652
v 0.00235644 -0.02494993 -0.00381248
v 0.00256264 -0.02492780 -0.00406155
v 0.00243764 -0.02494256 -0.00393652
v 0.00291399 -0.02488907 -0.00393652
v 0.00268763 -0.02491304 -0.00406155
v 0.00300746 -0.02487431 -0.00400995
v 0.00422868 -0.02368466 -0.00506180
v 0.00368726 -0.02381008 -0.00505783
v 0.00293763 -0.02393550 -0.00505585
v 0.00256264 -0.02393550 -0.00506081
v 0.00235644 -0.02406092 -0.00504791
v 0.00389309 -0.02475074 -0.00393652
v 0.00422868 -0.02469909 -0.00402086
v 0.00388704 -0.02474889 -0.00401689
v 0.00235644 -0.02494809 -0.00393652
v 0.00243764 -0.02493702 -0.00406155
v 0.00256264 -0.02491120 -0.00418658
v 0.00268763 -0.02489829 -0.00418658
v 0.00289420 -0.02487616 -0.00414292
v 0.00291381 -0.02488353 -0.00405659
v 0.00418744 -0.02470278 -0.00406155
v 0.00422868 -0.02381008 -0.00504692
v 0.00418744 -0.02381008 -0.00504791
v 0.00393726 -0.02381008 -0.00505387
v 0.00306263 -0.02393550 -0.00505387
v 0.00243764 -0.02406092 -0.00504692
v 0.00235644 -0.02419372 -0.00501715
v 0.00422868 -0.02469540 -0.00406155
v 0.00235644 -0.02494256 -0.00406155
v 0.00243764 -0.02492042 -0.00418658
v 0.00256264 -0.02488722 -0.00429772
v 0.00268763 -0.02488169 -0.00427589
v 0.00276645 -0.02487616 -0.00425704
v 0.00280988 -0.02488169 -0.00418559
v 0.00291399 -0.02487062 -0.00416277
v 0.00393726 -0.02472307 -0.00418658
v 0.00385717 -0.02474520 -0.00410025
v 0.00422868 -0.02468618 -0.00414590
v 0.00422868 -0.02394288 -0.00501715
v 0.00406226 -0.02393550 -0.00502608
v 0.00393726 -0.02393550 -0.00503104
v 0.00368726 -0.02393550 -0.00503898
v 0.00356245 -0.02393550 -0.00504196
v 0.00268763 -0.02406092 -0.00504196
v 0.00318763 -0.02393550 -0.00505089
v 0.00256264 -0.02406092 -0.00504493
v 0.00256264 -0.02417712 -0.00501715
v 0.00235644 -0.02423245 -0.00500524
v 0.00235644 -0.02492596 -0.00418658
v 0.00235644 -0.02489644 -0.00431558
v 0.00256264 -0.02486878 -0.00436024
v 0.00268763 -0.02486140 -0.00433841
v 0.00291381 -0.02483927 -0.00431062
v 0.00418744 -0.02466036 -0.00431161
v 0.00364804 -0.02475074 -0.00426001
v 0.00373143 -0.02474520 -0.00423124
v 0.00422868 -0.02468065 -0.00418658
v 0.00422868 -0.02398346 -0.00500425
v 0.00419551 -0.02394841 -0.00501715
v 0.00368726 -0.02403694 -0.00501318
v 0.00318763 -0.02406092 -0.00502608
v 0.00291399 -0.02406092 -0.00503501
v 0.00268763 -0.02416790 -0.00501516
v 0.00256264 -0.02423983 -0.00499631
v 0.00237184 -0.02424905 -0.00499929
v 0.00235644 -0.02426381 -0.00499234
v 0.00235644 -0.02487616 -0.00438008
v 0.00256264 -0.02483558 -0.00443664
v 0.00281263 -0.02480607 -0.00443664
v 0.00338888 -0.02474889 -0.00437909
v 0.00347209 -0.02474336 -0.00436222
v 0.00356245 -0.02473783 -0.00434237
v 0.00422868 -0.02462900 -0.00438504
v 0.00422868 -0.02465298 -0.00431360
v 0.00422868 -0.02401297 -0.00499333
v 0.00415922 -0.02400374 -0.00500127
v 0.00406226 -0.02400928 -0.00500425
v 0.00268763 -0.02423245 -0.00499333
v 0.00291399 -0.02415314 -0.00501020
v 0.00256264 -0.02430992 -0.00496257
v 0.00235644 -0.02430254 -0.00497448
v 0.00235644 -0.02485033 -0.00443863
v 0.00256264 -0.02477656 -0.00454580
v 0.00268763 -0.02477102 -0.00453488
v 0.00281263 -0.02476365 -0.00452198
v 0.00291381 -0.02475627 -0.00451107
v 0.00300545 -0.02474889 -0.00450115
v 0.00396494 -0.02461978 -0.00448924
v 0.00392901 -0.02464560 -0.00444359
v 0.00422868 -0.02461609 -0.00441382
v 0.00422868 -0.02405354 -0.00497448
v 0.00419551 -0.02405170 -0.00497845
v 0.00381226 -0.02409043 -0.00498738
v 0.00356245 -0.02410703 -0.00499433
v 0.00281263 -0.02422323 -0.00499036
v 0.00268763 -0.02430992 -0.00495563
v 0.00256264 -0.02442243 -0.00490303
v 0.00243764 -0.02442981 -0.00490601
v 0.00235644 -0.02444087 -0.00490403
v 0.00235644 -0.02478025 -0.00456366
v 0.00243764 -0.02478209 -0.00455275
v 0.00256264 -0.02473598 -0.00460832
v 0.00268763 -0.02472860 -0.00459740
v 0.00335827 -0.02462163 -0.00462122
v 0.00343745 -0.02461609 -0.00461328
v 0.00422868 -0.02450727 -0.00461030
v 0.00388173 -0.02462532 -0.00450115
v 0.00406226 -0.02461240 -0.00447435
v 0.00422868 -0.02460134 -0.00444558
v 0.00419404 -0.02453494 -0.00457358
v 0.00422868 -0.02408674 -0.00495761
v 0.00393726 -0.02418450 -0.00493181
v 0.00381226 -0.02418450 -0.00494173
v 0.00406226 -0.02407199 -0.00497845
v 0.00291399 -0.02421585 -0.00498738
v 0.00291381 -0.02429516 -0.00494868
v 0.00281263 -0.02430992 -0.00494769
v 0.00268763 -0.02441505 -0.00489906
v 0.00256264 -0.02448514 -0.00486632
v 0.00243764 -0.02449067 -0.00487029
v 0.00235644 -0.02449436 -0.00487227
v 0.00235644 -0.02474520 -0.00461923
v 0.00243764 -0.02474151 -0.00461526
v 0.00256025 -0.02466589 -0.00469862
v 0.00268763 -0.02466774 -0.00467877
v 0.00291399 -0.02465298 -0.00466091
v 0.00327524 -0.02462716 -0.00462915
v 0.00415684 -0.02450358 -0.00463015
v 0.00422868 -0.02448698 -0.00463709
v 0.00422868 -0.02453309 -0.00456664
v 0.00418744 -0.02460318 -0.00445451
v 0.00422868 -0.02418819 -0.00490502
v 0.00418469 -0.02419556 -0.00490502
v 0.00406226 -0.02425643 -0.00488021
v 0.00356245 -0.02429147 -0.00490105
v 0.00306263 -0.02438923 -0.00488517
v 0.00306263 -0.02430992 -0.00492983
v 0.00291399 -0.02430992 -0.00494074
v 0.00235644 -0.02450727 -0.00486235
v 0.00268763 -0.02447776 -0.00486036
v 0.00268763 -0.02455338 -0.00479785
v 0.00256025 -0.02457183 -0.00479388
v 0.00235644 -0.02469540 -0.00467976
v 0.00251700 -0.02462532 -0.00475121
v 0.00260039 -0.02462163 -0.00474724
v 0.00268763 -0.02461609 -0.00474129
v 0.00368726 -0.02448329 -0.00473335
v 0.00381226 -0.02452756 -0.00466091
v 0.00419404 -0.02445747 -0.00467778
v 0.00422868 -0.02438185 -0.00475816
v 0.00422868 -0.02424352 -0.00487128
v 0.00422447 -0.02424352 -0.00487227
v 0.00414126 -0.02425090 -0.00487624
v 0.00334984 -0.02436894 -0.00487227
v 0.00318763 -0.02438001 -0.00488021
v 0.00243764 -0.02456076 -0.00481174
v 0.00235644 -0.02457920 -0.00479983
v 0.00356245 -0.02435418 -0.00486036
v 0.00306263 -0.02445194 -0.00483853
v 0.00281263 -0.02454416 -0.00479090
v 0.00235644 -0.02462900 -0.00475617
v 0.00318763 -0.02451834 -0.00476808
v 0.00331245 -0.02450912 -0.00476014
v 0.00356245 -0.02449252 -0.00474228
v 0.00381226 -0.02447407 -0.00472342
v 0.00381226 -0.02441136 -0.00478396
v 0.00406226 -0.02431914 -0.00483159
v 0.00422868 -0.02424721 -0.00486830
f 1 2 3
f 1 3 8
f 1 8 15
f 1 15 22
f 1 22 16
f 1 16 9
f 1 9 4
f 1 4 10
f 1 10 19
f 1 19 25
f 1 25 37
f 1 37 40
f 1 40 51
f 1 51 61
f 1 61 70
f 1 70 82
f 1 82 95
f 1 95 109
f 1 109 120
f 1 120 138
f 1 138 151
f 1 151 163
f 1 163 177
f 1 177 176
f 1 176 196
f 1 196 208
f 1 208 206
f 1 206 205
f 1 205 221
f 1 221 220
f 1 220 234
f 1 234 245
f 1 245 259
f 1 259 273
f 1 273 288
f 1 288 298
f 1 298 317
f 1 317 334
f 1 334 333
f 1 333 350
f 1 350 369
f 1 369 390
f 1 390 366
f 1 366 389
f 1 389 410
f 1 410 428
f 1 428 411
f 1 411 392
f 1 392 371
f 1 371 351
f 1 351 335
f 1 335 318
f 1 318 299
f 1 299 282
f 1 282 267
f 1 267 257
f 1 257 242
f 1 242 227
f 1 227 215
f 1 215 200
f 1 200 182
f 1 182 181
f 1 181 180
f 1 180 178
f 1 178 164
f 1 164 153
f 1 153 140
f 1 140 125
f 1 125 123
f 1 123 122
f 1 122 111
f 1 111 99
f 1 99 85
f 1 85 75
f 1 75 65
f 1 65 55
f 1 55 45
f 1 45 44
f 1 44 33
f 1 33 31
f 1 31 20
f 1 20 11
f 1 11 5
f 1 5 2
f 2 5 6
f 2 6 7
f 2 7 3
f 3 7 8
f 4 9 10
f 5 11 12
f 5 12 13
f 5 13 7
f 5 7 6
f 7 13 14
f 7 14 8
f 8 14 15
f 9 16 17
f 9 17 10
f 10 17 18
f 10 18 19
f 11 20 21
f 11 21 12
f 12 21 32
f 12 32 43
f 12 43 54
f 12 54 66
f 12 66 76
f 12 76 86
f 12 86 102
f 12 102 101
f 12 101 113
f 12 113 124
f 12 124 139
f 12 139 152
f 12 152 154
f 12 154 165
f 12 165 179
f 12 179 198
f 12 198 214
f 12 214 226
f 12 226 241
f 12 241 256
f 12 256 271
f 12 271 287
f 12 287 308
f 12 308 326
f 12 326 341
f 12 341 359
f 12 359 381
f 12 381 399
f 12 399 417
f 12 417 421
f 12 421 403
f 12 403 382
f 12 382 360
f 12 360 342
f 12 342 327
f 12 327 310
f 12 310 309
f 12 309 289
f 12 289 275
f 12 275 261
f 12 261 248
f 12 248 236
f 12 236 235
f 12 235 222
f 12 222 209
f 12 209 193
f 12 193 174
f 12 174 160
f 12 160 159
f 12 159 147
f 12 147 146
f 12 146 129
f 12 129 126
f 12 126 115
f 12 115 114
f 12 114 104
f 12 104 103
f 12 103 88
f 12 88 87
f 12 87 78
f 12 78 77
f 12 77 67
f 12 67 56
f 12 56 47
f 12 47 46
f 12 46 35
f 12 35 34
f 12 34 22
f 12 22 15
f 12 15 14
f 12 14 13
f 16 22 23
f 16 23 17
f 17 23 24
f 17 24 26
f 17 26 18
f 18 25 19
f 18 26 27
f 18 27 28
f 18 28 29
f 18 29 30
f 18 30 25
f 20 31 21
f 21 31 33
f 21 33 32
f 22 34 23
f 23 34 35
f 23 35 36
f 23 36 24
f 24 36 38
f 24 38 26
f 25 30 37
f 26 38 27
f 27 38 28
f 28 38 39
f 28 39 29
f 29 39 30
f 30 40 37
f 30 39 41
f 30 41 42
f 30 42 40
f 32 33 44
f 32 44 45
f 32 45 43
f 35 46 36
f 36 46 47
f 36 47 38
f 38 47 48
f 38 48 49
f 38 49 39
f 39 49 52
f 39 52 41
f 40 42 50
f 40 50 51
f 41 52 42
f 42 52 53
f 42 53 50
f 43 45 54
f 45 55 54
f 47 56 48
f 48 56 57
f 48 57 49
f 49 57 58
f 49 58 52
f 50 59 60
f 50 60 61
f 50 61 51
f 50 53 62
f 50 62 63
f 50 63 64
f 50 64 59
f 52 58 62
f 52 62 53
f 54 55 65
f 54 65 66
f 56 67 57
f 57 67 68
f 57 68 58
f 58 68 69
f 58 69 63
f 58 63 62
f 59 70 60
f 59 64 71
f 59 71 72
f 59 72 73
f 59 73 70
f 60 70 61
f 63 69 74
f 63 74 64
f 64 74 71
f 65 75 66
f 66 75 76
f 67 77 68
f 68 77 78
f 68 78 69
f 69 78 79
f 69 79 80
f 69 80 74
f 70 73 81
f 70 81 82
f 71 74 73
f 71 73 72
f 73 74 83
f 73 83 84
f 73 84 81
f 74 80 83
f 75 85 86
f 75 86 76
f 78 87 79
f 79 87 88
f 79 88 80
f 80 88 89
f 80 89 90
f 80 90 83
f 81 84 91
f 81 91 82
f 82 91 92
f 82 92 93
f 82 93 94
f 82 94 95
f 83 90 84
f 84 96 93
f 84 93 92
f 84 92 91
f 84 90 97
f 84 97 98
f 84 98 96
f 85 99 100
f 85 100 101
f 85 101 102
f 85 102 86
f 88 103 89
f 89 103 104
f 89 104 105
f 89 105 90
f 90 105 106
f 90 106 97
f 93 96 107
f 93 107 108
f 93 108 94
f 94 108 109
f 94 109 95
f 96 108 107
f 96 98 110
f 96 110 108
f 97 110 98
f 97 106 110
f 99 111 100
f 100 111 122
f 100 122 112
f 100 112 113
f 100 113 101
f 104 114 105
f 105 114 115
f 105 115 116
f 105 116 117
f 105 117 106
f 106 118 110
f 106 117 118
f 108 110 119
f 108 119 120
f 108 120 109
f 110 118 121
f 110 121 119
f 112 122 123
f 112 123 113
f 113 123 125
f 113 125 124
f 115 126 127
f 115 127 116
f 116 128 117
f 116 127 129
f 116 129 130
f 116 130 128
f 117 128 131
f 117 131 118
f 118 131 132
f 118 132 121
f 119 121 120
f 120 121 132
f 120 132 133
f 120 133 134
f 120 134 135
f 120 135 136
f 120 136 137
f 120 137 138
f 124 125 139
f 125 140 139
f 126 129 127
f 128 141 142
f 128 142 135
f 128 135 134
f 128 134 143
f 128 143 144
f 128 144 132
f 128 132 131
f 128 130 145
f 128 145 141
f 129 146 130
f 130 146 147
f 130 147 148
f 130 148 158
f 130 158 145
f 132 144 134
f 132 134 133
f 134 144 143
f 135 149 137
f 135 137 136
f 135 142 149
f 137 149 142
f 137 142 150
f 137 150 151
f 137 151 138
f 139 140 152
f 140 153 154
f 140 154 152
f 141 155 156
f 141 156 142
f 141 145 157
f 141 157 155
f 142 156 150
f 145 158 167
f 145 167 157
f 147 159 148
f 148 159 160
f 148 160 161
f 148 161 158
f 150 162 151
f 150 156 155
f 150 155 162
f 151 162 163
f 153 164 165
f 153 165 154
f 155 166 162
f 155 157 166
f 157 167 168
f 157 168 169
f 157 169 170
f 157 170 171
f 157 171 166
f 158 172 173
f 158 173 167
f 158 161 172
f 160 174 161
f 161 174 175
f 161 175 172
f 162 176 177
f 162 177 163
f 162 166 171
f 162 171 176
f 164 178 165
f 165 178 180
f 165 180 181
f 165 181 182
f 165 182 179
f 167 173 168
f 168 173 183
f 168 183 170
f 168 170 169
f 170 183 184
f 170 184 185
f 170 185 176
f 170 176 186
f 170 186 171
f 171 186 176
f 172 175 187
f 172 187 173
f 173 187 188
f 173 188 189
f 173 189 190
f 173 190 191
f 173 191 192
f 173 192 183
f 174 193 194
f 174 194 175
f 175 194 195
f 175 195 187
f 176 185 196
f 179 197 198
f 179 182 199
f 179 199 197
f 182 200 199
f 183 192 184
f 184 192 185
f 185 192 196
f 187 195 202
f 187 202 188
f 188 201 189
f 188 202 203
f 188 203 191
f 188 191 201
f 189 201 191
f 189 191 190
f 191 204 205
f 191 205 206
f 191 206 207
f 191 207 192
f 191 203 204
f 192 207 208
f 192 208 196
f 193 209 195
f 193 195 194
f 195 209 210
f 195 210 211
f 195 211 202
f 197 212 198
f 197 199 200
f 197 200 213
f 197 213 212
f 198 212 213
f 198 213 215
f 198 215 227
f 198 227 243
f 198 243 239
f 198 239 225
f 198 225 214
f 200 215 213
f 202 211 216
f 202 216 217
f 202 217 218
f 202 218 219
f 202 219 204
f 202 204 203
f 204 220 221
f 204 221 205
f 204 219 218
f 204 218 220
f 206 208 207
f 209 222 210
f 210 222 223
f 210 223 224
f 210 224 211
f 211 224 216
f 214 225 240
f 214 240 226
f 216 224 228
f 216 228 229
f 216 229 217
f 217 229 218
f 218 229 230
f 218 230 231
f 218 231 220
f 220 231 230
f 220 230 232
f 220 232 233
f 220 233 234
f 222 235 223
f 223 235 236
f 223 236 224
f 224 236 237
f 224 237 238
f 224 238 228
f 225 239 240
f 226 240 241
f 227 242 243
f 228 232 229
f 228 238 244
f 228 244 233
f 228 233 232
f 229 232 230
f 233 245 234
f 233 244 246
f 233 246 247
f 233 247 245
f 236 248 237
f 237 249 250
f 237 250 238
f 237 248 261
f 237 261 249
f 238 250 264
f 238 264 251
f 238 251 244
f 239 243 252
f 239 252 240
f 240 252 253
f 240 253 254
f 240 254 255
f 240 255 241
f 241 255 256
f 242 257 253
f 242 253 252
f 242 252 243
f 244 251 258
f 244 258 247
f 244 247 246
f 245 247 260
f 245 260 259
f 247 258 272
f 247 272 260
f 249 262 250
f 249 261 263
f 249 263 276
f 249 276 262
f 250 262 265
f 250 265 266
f 250 266 264
f 251 264 272
f 251 272 258
f 253 257 267
f 253 267 254
f 254 267 268
f 254 268 269
f 254 269 270
f 254 270 255
f 255 270 271
f 255 271 256
f 259 260 274
f 259 274 273
f 260 272 266
f 260 266 274
f 261 275 263
f 262 276 290
f 262 290 277
f 262 277 278
f 262 278 265
f 263 275 289
f 263 289 276
f 264 266 272
f 265 278 279
f 265 279 280
f 265 280 266
f 266 280 281
f 266 281 274
f 267 282 283
f 267 283 284
f 267 284 268
f 268 284 285
f 268 285 269
f 269 285 306
f 269 306 286
f 269 286 270
f 270 286 271
f 271 286 287
f 273 274 281
f 273 281 288
f 276 289 309
f 276 309 290
f 277 291 292
f 277 292 278
f 277 290 291
f 278 292 293
f 278 293 294
f 278 294 279
f 279 294 295
f 279 295 296
f 279 296 297
f 279 297 280
f 280 297 281
f 281 298 288
f 281 297 296
f 281 296 298
f 282 299 300
f 282 300 301
f 282 301 302
f 282 302 283
f 283 302 303
f 283 303 304
f 283 304 305
f 283 305 285
f 283 285 284
f 285 305 304
f 285 304 306
f 286 306 287
f 287 306 307
f 287 307 308
f 290 309 291
f 291 309 310
f 291 310 311
f 291 311 292
f 292 311 312
f 292 312 313
f 292 313 314
f 292 314 293
f 293 314 315
f 293 315 316
f 293 316 294
f 294 316 295
f 295 316 296
f 296 316 317
f 296 317 298
f 299 318 319
f 299 319 300
f 300 319 320
f 300 320 301
f 301 320 321
f 301 321 322
f 301 322 302
f 302 322 304
f 302 304 303
f 304 322 307
f 304 307 306
f 307 323 324
f 307 324 325
f 307 325 308
f 307 322 321
f 307 321 323
f 308 325 326
f 310 327 311
f 311 327 328
f 311 328 329
f 311 329 312
f 312 329 330
f 312 330 331
f 312 331 332
f 312 332 313
f 313 332 314
f 314 333 334
f 314 334 317
f 314 317 316
f 314 316 315
f 314 332 333
f 318 335 336
f 318 336 319
f 319 336 337
f 319 337 320
f 320 337 354
f 320 354 355
f 320 355 338
f 320 338 339
f 320 339 323
f 320 323 321
f 323 339 338
f 323 338 324
f 324 338 340
f 324 340 341
f 324 341 325
f 325 341 326
f 327 342 328
f 328 343 344
f 328 344 345
f 328 345 329
f 328 342 343
f 329 345 346
f 329 346 347
f 329 347 348
f 329 348 349
f 329 349 333
f 329 333 330
f 330 333 331
f 331 333 332
f 333 349 350
f 335 351 352
f 335 352 353
f 335 353 336
f 336 353 354
f 336 354 337
f 338 355 356
f 338 356 340
f 340 356 357
f 340 357 358
f 340 358 359
f 340 359 341
f 342 360 361
f 342 361 343
f 343 361 383
f 343 383 362
f 343 362 344
f 344 362 363
f 344 363 345
f 345 363 364
f 345 364 365
f 345 365 366
f 345 366 346
f 346 366 367
f 346 367 347
f 347 367 348
f 348 368 369
f 348 369 350
f 348 350 349
f 348 367 370
f 348 370 368
f 351 371 352
f 352 371 372
f 352 372 373
f 352 373 374
f 352 374 353
f 353 373 375
f 353 375 355
f 353 355 354
f 353 374 373
f 355 376 356
f 355 375 376
f 356 376 377
f 356 377 378
f 356 378 357
f 357 378 379
f 357 379 358
f 358 379 380
f 358 380 359
f 359 380 381
f 360 382 361
f 361 382 383
f 362 383 384
f 362 384 385
f 362 385 386
f 362 386 363
f 363 386 387
f 363 387 364
f 364 387 388
f 364 388 365
f 365 388 366
f 366 388 389
f 366 390 370
f 366 370 367
f 368 391 369
f 368 370 391
f 369 391 390
f 370 390 391
f 371 392 393
f 371 393 372
f 372 393 394
f 372 394 395
f 372 395 373
f 373 395 396
f 373 396 397
f 373 397 376
f 373 376 375
f 376 397 398
f 376 398 377
f 377 398 378
f 378 396 379
f 378 398 397
f 378 397 396
f 379 399 380
f 379 396 400
f 379 400 401
f 379 401 402
f 379 402 399
f 380 399 381
f 382 403 384
f 382 384 383
f 384 403 404
f 384 404 405
f 384 405 385
f 385 405 406
f 385 406 386
f 386 406 407
f 386 407 408
f 386 408 388
f 386 388 387
f 388 408 409
f 388 409 389
f 389 409 410
f 392 411 412
f 392 412 413
f 392 413 393
f 393 413 394
f 394 413 414
f 394 414 415
f 394 415 396
f 394 396 395
f 396 415 400
f 399 402 416
f 399 416 417
f 400 415 414
f 400 414 418
f 400 418 419
f 400 419 401
f 401 419 420
f 401 420 405
f 401 405 402
f 402 405 404
f 402 404 416
f 403 421 404
f 404 417 416
f 404 421 417
f 405 420 422
f 405 422 406
f 406 422 423
f 406 423 424
f 406 424 407
f 407 424 410
f 407 410 425
f 407 425 408
f 408 425 409
f 409 425 410
f 410 424 423
f 410 423 422
f 410 422 426
f 410 426 427
f 410 427 412
f 410 412 428
f 411 428 412
f 412 427 413
f 413 427 418
f 413 418 414
f 418 427 419
f 419 427 426
f 419 426 420
f 420 426 422

