# https://github.com/mikedh/trimesh
v -0.00089489 0.02505059 0.00054975
v -0.00089489 0.02505059 -0.00393691
v -0.00093754 0.02504886 0.00054975
v -0.00089489 0.00737411 0.00054975
v -0.00089489 0.02504886 -0.00397981
v -0.00093754 0.02504886 -0.00393691
v -0.00106255 0.02504017 0.00054975
v -0.00136909 0.00730114 0.00054975
v -0.00089489 0.00737411 -0.00393691
v -0.00089489 0.02504538 -0.00406230
v -0.00093754 0.02504364 -0.00406230
v -0.00106255 0.02504017 -0.00393691
v -0.00133692 0.02501932 -0.00041325
v -0.00131242 0.02502106 0.00054975
v -0.00136909 0.00730114 -0.00381207
v -0.00136909 0.02501584 0.00054975
v -0.00136909 0.00730288 -0.00393691
v -0.00096242 0.00737064 -0.00400841
v -0.00089489 0.00740539 -0.00402161
v -0.00089489 0.02503148 -0.00418715
v -0.00093754 0.02502974 -0.00418715
v -0.00136909 0.02500542 -0.00415580
v -0.00136909 0.02501237 -0.00406230
v -0.00131242 0.02502106 -0.00393691
v -0.00136909 0.02501584 -0.00393691
v -0.00136909 0.00734284 -0.00405460
v -0.00131242 0.00734458 -0.00404361
v -0.00092747 0.00741234 -0.00405515
v -0.00089489 0.00741929 -0.00405680
v -0.00089489 0.02500890 -0.00428339
v -0.00093754 0.02500890 -0.00428119
v -0.00123559 0.02499847 -0.00424379
v -0.00136909 0.02499326 -0.00421795
v -0.00136909 0.02501411 -0.00400511
v -0.00136909 0.00738801 -0.00411180
v -0.00089489 0.00746620 -0.00411455
v -0.00089489 0.02498978 -0.00434609
v -0.00093754 0.02498978 -0.00434334
v -0.00119131 0.02498457 -0.00430319
v -0.00136909 0.02496894 -0.00431199
v -0.00136909 0.00744535 -0.00416955
v -0.00089489 0.00752701 -0.00418000
v -0.00089489 0.00748705 -0.00413875
v -0.00089489 0.02495330 -0.00443683
v -0.00093754 0.02495156 -0.00443683
v -0.00136909 0.02492029 -0.00443683
v -0.00136909 0.00826888 -0.00498075
v -0.00089489 0.00830189 -0.00494886
v -0.00089489 0.00809167 -0.00474042
v -0.00089489 0.02489944 -0.00454188
v -0.00106255 0.02489423 -0.00453308
v -0.00136909 0.02488380 -0.00451548
v -0.00136909 0.00833143 -0.00503135
v -0.00131242 0.00833664 -0.00503025
v -0.00118746 0.00834533 -0.00502530
v -0.00106255 0.00835402 -0.00501925
v -0.00089489 0.00836444 -0.00500990
v -0.00089489 0.02485948 -0.00460403
v -0.00093754 0.02485948 -0.00460293
v -0.00118746 0.02485079 -0.00458863
v -0.00136909 0.02484210 -0.00457818
v -0.00136909 0.00843915 -0.00506600
v -0.00131242 0.00843915 -0.00506435
v -0.00118746 0.00843915 -0.00505940
v -0.00106255 0.00843915 -0.00505335
v -0.00089489 0.00843915 -0.00504455
v -0.00089489 0.02479693 -0.00468267
v -0.00093754 0.02479693 -0.00468157
v -0.00118746 0.02478824 -0.00467167
v -0.00136909 0.02478129 -0.00466397
v -0.00089489 0.00856251 -0.00506875
v -0.00136909 0.00856251 -0.00506875
v -0.00089489 0.02477956 -0.00470412
v -0.00093754 0.02474307 -0.00474427
v -0.00131242 0.02473091 -0.00472832
v -0.00136909 0.02472743 -0.00472612
v -0.00089489 0.02381182 -0.00506875
v -0.00136909 0.02381182 -0.00506875
v -0.00089489 0.02474307 -0.00474537
v -0.00093754 0.02468226 -0.00479926
v -0.00131242 0.02466662 -0.00478827
v -0.00136909 0.02469442 -0.00475857
v -0.00089489 0.02393691 -0.00506765
v -0.00136909 0.02393691 -0.00506600
v -0.00089489 0.02468226 -0.00479981
v -0.00089489 0.02460755 -0.00486251
v -0.00136909 0.02459018 -0.00484876
v -0.00136909 0.02466315 -0.00478662
v -0.00089489 0.02406200 -0.00506050
v -0.00136909 0.02406200 -0.00505775
v -0.00093754 0.02460582 -0.00486141
v -0.00089489 0.02454501 -0.00490321
v -0.00093754 0.02454327 -0.00490266
v -0.00136909 0.02452763 -0.00489331
v -0.00089489 0.02418710 -0.00504345
v -0.00136909 0.02418710 -0.00503795
v -0.00106255 0.02418710 -0.00504180
v -0.00089489 0.02443729 -0.00495931
v -0.00093754 0.02443729 -0.00495876
v -0.00131242 0.02443729 -0.00494611
v -0.00136909 0.02443729 -0.00494336
v -0.00089489 0.02425833 -0.00502585
v -0.00136909 0.02428092 -0.00501210
v -0.00106255 0.02429134 -0.00501485
v -0.00093754 0.02429482 -0.00501595
v -0.00089489 0.02441122 -0.00497086
v -0.00093754 0.02435737 -0.00499285
v -0.00131242 0.02434520 -0.00498790
v -0.00136909 0.02434347 -0.00498680
v -0.00089489 0.02429482 -0.00501650
v -0.00089489 0.02435737 -0.00499340
f 1 2 6
f 1 6 3
f 1 3 7
f 1 7 14
f 1 14 16
f 1 16 8
f 1 8 4
f 1 4 9
f 1 9 19
f 1 19 29
f 1 29 36
f 1 36 43
f 1 43 42
f 1 42 49
f 1 49 48
f 1 48 57
f 1 57 66
f 1 66 71
f 1 71 77
f 1 77 83
f 1 83 89
f 1 89 95
f 1 95 102
f 1 102 110
f 1 110 111
f 1 111 106
f 1 106 98
f 1 98 92
f 1 92 86
f 1 86 85
f 1 85 79
f 1 79 73
f 1 73 67
f 1 67 58
f 1 58 50
f 1 50 44
f 1 44 37
f 1 37 30
f 1 30 20
f 1 20 10
f 1 10 5
f 1 5 2
f 2 5 6
f 3 6 12
f 3 12 7
f 4 8 15
f 4 15 9
f 5 10 11
f 5 11 6
f 6 11 12
f 7 12 13
f 7 13 14
f 8 16 25
f 8 25 34
f 8 34 23
f 8 23 22
f 8 22 33
f 8 33 40
f 8 40 46
f 8 46 52
f 8 52 61
f 8 61 70
f 8 70 76
f 8 76 82
f 8 82 88
f 8 88 87
f 8 87 94
f 8 94 101
f 8 101 109
f 8 109 103
f 8 103 96
f 8 96 90
f 8 90 84
f 8 84 78
f 8 78 72
f 8 72 62
f 8 62 53
f 8 53 47
f 8 47 41
f 8 41 35
f 8 35 26
f 8 26 17
f 8 17 15
f 9 15 17
f 9 17 18
f 9 18 19
f 10 20 21
f 10 21 11
f 11 21 22
f 11 22 23
f 11 23 12
f 12 23 24
f 12 24 13
f 13 16 14
f 13 24 25
f 13 25 16
f 17 26 27
f 17 27 18
f 18 27 26
f 18 26 28
f 18 28 29
f 18 29 19
f 20 30 31
f 20 31 21
f 21 31 32
f 21 32 22
f 22 32 33
f 23 34 24
f 24 34 25
f 26 35 28
f 28 35 36
f 28 36 29
f 30 37 31
f 31 37 38
f 31 38 39
f 31 39 32
f 32 39 40
f 32 40 33
f 35 41 42
f 35 42 43
f 35 43 36
f 37 44 38
f 38 44 45
f 38 45 46
f 38 46 40
f 38 40 39
f 41 47 48
f 41 48 49
f 41 49 42
f 44 50 45
f 45 50 51
f 45 51 52
f 45 52 46
f 47 53 54
f 47 54 55
f 47 55 56
f 47 56 57
f 47 57 48
f 50 58 59
f 50 59 51
f 51 59 52
f 52 59 60
f 52 60 61
f 53 62 63
f 53 63 64
f 53 64 65
f 53 65 54
f 54 65 66
f 54 66 55
f 55 66 56
f 56 66 57
f 58 67 68
f 58 68 59
f 59 68 69
f 59 69 70
f 59 70 60
f 60 70 61
f 62 71 63
f 62 72 71
f 63 71 64
f 64 71 65
f 65 71 66
f 67 73 68
f 68 73 74
f 68 74 69
f 69 74 75
f 69 75 70
f 70 75 76
f 71 72 78
f 71 78 77
f 73 79 74
f 74 79 80
f 74 80 81
f 74 81 82
f 74 82 75
f 75 82 76
f 77 78 83
f 78 84 83
f 79 85 80
f 80 85 86
f 80 86 87
f 80 87 81
f 81 87 88
f 81 88 82
f 83 84 89
f 84 90 89
f 86 91 87
f 86 92 93
f 86 93 94
f 86 94 91
f 87 91 94
f 89 90 95
f 90 96 97
f 90 97 95
f 92 98 99
f 92 99 100
f 92 100 93
f 93 100 94
f 94 100 101
f 95 97 102
f 96 102 97
f 96 103 104
f 96 104 105
f 96 105 102
f 98 106 99
f 99 106 107
f 99 107 108
f 99 108 109
f 99 109 100
f 100 109 101
f 102 105 110
f 103 109 108
f 103 108 107
f 103 107 104
f 104 107 105
f 105 107 111
f 105 111 110
f 106 111 107

