# https://github.com/mikedh/trimesh
v 0.00069112 0.02380909 0.00506875
v 0.00025726 0.02380909 0.00506875
v 0.00069112 0.00856304 0.00506875
v 0.00069112 0.02393699 0.00506830
v 0.00025726 0.00856304 0.00506875
v 0.00025726 0.02393699 0.00506830
v 0.00069112 0.00844206 0.00503756
v 0.00069112 0.02406143 0.00506378
v 0.00025726 0.00844897 0.00503395
v 0.00068747 0.00843860 0.00503666
v 0.00025726 0.02406143 0.00506378
v 0.00069112 0.00843860 0.00503666
v 0.00069112 0.02418933 0.00504615
v 0.00025726 0.00838675 0.00498920
v 0.00068747 0.00837292 0.00500186
v 0.00025726 0.02418587 0.00504660
v 0.00069112 0.00837292 0.00500186
v 0.00069112 0.02430513 0.00501677
v 0.00025726 0.02425155 0.00503033
v 0.00025726 0.00826058 0.00486400
v 0.00068747 0.00812231 0.00475237
v 0.00069112 0.00812231 0.00475237
v 0.00068747 0.02436563 0.00499689
v 0.00025726 0.02436563 0.00499689
v 0.00025726 0.02430340 0.00501677
v 0.00069112 0.02436736 0.00499553
v 0.00025726 0.00788552 0.00448887
v 0.00069112 0.00749663 0.00412819
v 0.00069112 0.00780947 0.00444050
v 0.00069112 0.02443649 0.00496480
v 0.00056248 0.02443649 0.00496480
v 0.00025726 0.02443649 0.00496434
v 0.00025726 0.00779564 0.00439892
v 0.00025726 0.00751219 0.00411418
v 0.00025726 0.00748972 0.00408661
v 0.00068747 0.00744651 0.00406220
v 0.00069112 0.00744651 0.00406220
v 0.00069112 0.02443995 0.00496299
v 0.00025726 0.02449871 0.00493090
v 0.00025726 0.00746379 0.00405181
v 0.00068747 0.00739812 0.00393700
v 0.00069112 0.00739812 0.00393700
v 0.00069112 0.02454711 0.00490378
v 0.00025726 0.02454538 0.00490468
v 0.00025726 0.00744651 0.00400164
v 0.00069112 0.00739639 0.00381226
v 0.00025726 0.00742577 0.00393700
v 0.00069112 0.02460933 0.00486446
v 0.00025726 0.02460933 0.00486446
v 0.00069112 0.00739639 0.00056256
v 0.00025726 0.00742577 0.00045137
v 0.00069112 0.02468538 0.00480028
v 0.00025726 0.02471994 0.00477135
v 0.00057633 0.00740503 0.00045137
v 0.00068747 0.00739812 0.00045137
v 0.00069078 0.00739812 0.00045137
v 0.00069112 0.00740676 0.00045137
v 0.00025726 0.02505352 0.00045137
v 0.00069112 0.02474587 0.00474740
v 0.00025726 0.02474587 0.00474740
v 0.00069112 0.02505352 0.00045137
v 0.00025726 0.02505352 0.00393700
v 0.00069112 0.02480118 0.00468231
v 0.00068747 0.02479945 0.00468502
v 0.00025726 0.02479945 0.00468502
v 0.00069112 0.02505352 0.00393700
v 0.00025726 0.02505179 0.00399215
v 0.00069112 0.02486167 0.00460502
v 0.00068747 0.02486167 0.00460502
v 0.00025726 0.02486167 0.00460457
v 0.00069112 0.02504661 0.00406220
v 0.00025726 0.02504661 0.00406220
v 0.00069112 0.02489970 0.00453949
v 0.00056248 0.02489797 0.00454265
v 0.00025726 0.02489797 0.00454175
v 0.00069112 0.02503451 0.00418333
v 0.00025726 0.02503278 0.00418695
v 0.00069112 0.02495500 0.00443463
v 0.00025726 0.02492908 0.00448344
v 0.00025726 0.02502414 0.00423214
v 0.00069112 0.02501031 0.00428548
v 0.00025726 0.02495327 0.00443689
v 0.00069112 0.02499130 0.00435101
v 0.00025726 0.02499130 0.00435101
v 0.00025726 0.02500858 0.00428864
f 1 2 5
f 1 5 3
f 1 3 7
f 1 7 12
f 1 12 17
f 1 17 22
f 1 22 29
f 1 29 28
f 1 28 37
f 1 37 42
f 1 42 46
f 1 46 50
f 1 50 57
f 1 57 61
f 1 61 66
f 1 66 71
f 1 71 76
f 1 76 81
f 1 81 83
f 1 83 78
f 1 78 73
f 1 73 68
f 1 68 63
f 1 63 59
f 1 59 52
f 1 52 48
f 1 48 43
f 1 43 38
f 1 38 30
f 1 30 26
f 1 26 18
f 1 18 13
f 1 13 8
f 1 8 4
f 1 4 6
f 1 6 2
f 2 6 11
f 2 11 16
f 2 16 19
f 2 19 25
f 2 25 24
f 2 24 32
f 2 32 39
f 2 39 44
f 2 44 49
f 2 49 53
f 2 53 60
f 2 60 65
f 2 65 70
f 2 70 75
f 2 75 79
f 2 79 82
f 2 82 84
f 2 84 85
f 2 85 80
f 2 80 77
f 2 77 72
f 2 72 67
f 2 67 62
f 2 62 58
f 2 58 51
f 2 51 47
f 2 47 45
f 2 45 40
f 2 40 35
f 2 35 34
f 2 34 33
f 2 33 27
f 2 27 20
f 2 20 14
f 2 14 9
f 2 9 5
f 3 5 7
f 4 8 11
f 4 11 6
f 5 9 10
f 5 10 7
f 7 10 12
f 8 13 11
f 9 14 15
f 9 15 10
f 10 15 17
f 10 17 12
f 11 13 16
f 13 18 19
f 13 19 16
f 14 20 15
f 15 20 21
f 15 21 22
f 15 22 17
f 18 23 24
f 18 24 25
f 18 25 19
f 18 26 23
f 20 27 28
f 20 28 29
f 20 29 21
f 21 29 22
f 23 26 30
f 23 30 31
f 23 31 24
f 24 31 32
f 27 33 28
f 28 33 34
f 28 34 35
f 28 35 36
f 28 36 37
f 30 38 31
f 31 38 39
f 31 39 32
f 35 40 36
f 36 40 41
f 36 41 42
f 36 42 37
f 38 43 39
f 39 43 44
f 40 45 41
f 41 46 42
f 41 45 47
f 41 47 46
f 43 48 49
f 43 49 44
f 46 47 51
f 46 51 50
f 48 52 53
f 48 53 49
f 50 51 54
f 50 54 55
f 50 55 56
f 50 56 57
f 51 58 61
f 51 61 57
f 51 57 56
f 51 56 55
f 51 55 54
f 52 59 53
f 53 59 60
f 58 62 66
f 58 66 61
f 59 63 64
f 59 64 65
f 59 65 60
f 62 67 66
f 63 68 64
f 64 68 69
f 64 69 65
f 65 69 70
f 66 67 71
f 67 72 71
f 68 73 74
f 68 74 69
f 69 74 70
f 70 74 75
f 71 72 76
f 72 77 76
f 73 78 79
f 73 79 74
f 74 79 75
f 76 77 80
f 76 80 81
f 78 82 79
f 78 83 84
f 78 84 82
f 80 85 81
f 81 85 84
f 81 84 83

