# https://github.com/mikedh/trimesh
v 0.01560178 -0.00000397 -0.00506875
v 0.01560178 0.00051774 -0.00506875
v 0.02381026 -0.00000397 -0.00506875
v 0.00856495 -0.00000397 -0.00506816
v 0.02381026 0.00051774 -0.00506875
v 0.00856495 0.00051774 -0.00506816
v 0.02393468 -0.00000397 -0.00506816
v 0.00845263 -0.00000397 -0.00503342
v 0.00844399 0.00051774 -0.00503342
v 0.02393468 0.00051774 -0.00506698
v 0.02393468 0.00031245 -0.00506816
v 0.02406083 -0.00000397 -0.00506345
v 0.00842325 -0.00000397 -0.00501163
v 0.00838178 0.00051774 -0.00499514
v 0.00840424 0.00051774 -0.00500928
v 0.02406083 0.00051774 -0.00506227
v 0.02406083 0.00031245 -0.00506345
v 0.02418526 -0.00000397 -0.00504814
v 0.00839042 -0.00000397 -0.00498631
v 0.00832648 -0.00000397 -0.00492389
v 0.00827809 0.00051774 -0.00489268
v 0.02418526 0.00051774 -0.00504461
v 0.02418526 0.00006262 -0.00504814
v 0.02432178 -0.00000397 -0.00501457
v 0.00754710 -0.00000397 -0.00414424
v 0.00756784 0.00051774 -0.00418311
v 0.00825562 0.00051774 -0.00487030
v 0.02429931 0.00051774 -0.00501634
v 0.02432178 0.00005425 -0.00501457
v 0.02437016 -0.00000397 -0.00500044
v 0.00751427 -0.00000397 -0.00411068
v 0.00751772 0.00051774 -0.00413247
v 0.02435979 0.00051774 -0.00499514
v 0.02437189 0.00000696 -0.00499985
v 0.02438226 -0.00000397 -0.00499514
v 0.00749180 -0.00000397 -0.00408182
v 0.00750563 0.00051774 -0.00412010
v 0.02443583 0.00051774 -0.00496217
v 0.02443583 0.00018759 -0.00496806
v 0.02442201 0.00005425 -0.00497630
v 0.02442201 -0.00000397 -0.00497630
v 0.00748316 0.00051774 -0.00409066
v 0.00746761 -0.00000397 -0.00404826
v 0.00746415 0.00051774 -0.00406533
v 0.02454470 0.00051774 -0.00490328
v 0.02455334 0.00006262 -0.00490858
v 0.02455334 -0.00000397 -0.00490858
v 0.00745033 -0.00000397 -0.00399644
v 0.00742786 0.00051774 -0.00397936
v 0.00746070 0.00043741 -0.00405532
v 0.02456716 0.00051774 -0.00488974
v 0.02461555 0.00006262 -0.00486913
v 0.02461555 -0.00000397 -0.00486913
v 0.00743305 -0.00000397 -0.00393638
v 0.00741404 0.00051774 -0.00393638
v 0.02460691 0.00051774 -0.00486324
v 0.02463456 0.00051774 -0.00484086
v 0.02468468 0.00006262 -0.00481083
v 0.02465184 -0.00000397 -0.00483851
v 0.00743132 -0.00000397 -0.00387808
v 0.00741231 0.00051774 -0.00385688
v 0.02468122 0.00051774 -0.00480082
v 0.02475034 0.00018759 -0.00475136
v 0.02475207 0.00006262 -0.00475312
v 0.02475207 -0.00000397 -0.00475312
v 0.00743132 -0.00000397 0.00094585
v 0.00741231 0.00051702 -0.00268800
v 0.00741231 0.00051774 0.00094585
v 0.02470369 0.00051774 -0.00478139
v 0.02474343 0.00051774 -0.00474547
v 0.02479527 0.00051774 -0.00468305
v 0.02480219 0.00018759 -0.00468658
v 0.02480564 0.00006262 -0.00468658
v 0.02480564 -0.00000397 -0.00468658
v 0.01560178 -0.00000397 0.00094703
v 0.01560178 0.00051774 0.00094703
v 0.02481774 0.00051774 -0.00465419
v 0.02486267 0.00018759 -0.00461062
v 0.02486440 0.00006262 -0.00461297
v 0.02486440 -0.00000397 -0.00461297
v 0.02506659 -0.00000397 0.00094703
v 0.02504758 0.00051774 0.00094703
v 0.02485749 0.00051774 -0.00460237
v 0.02485921 0.00043741 -0.00460414
v 0.02490069 0.00043741 -0.00454172
v 0.02490587 0.00006262 -0.00455055
v 0.02488686 -0.00000397 -0.00458000
v 0.02506659 -0.00000397 -0.00393696
v 0.02506659 0.00006262 0.00094703
v 0.02504930 0.00051156 0.00094703
v 0.02504758 0.00051774 -0.00393696
v 0.02489723 0.00051774 -0.00453996
v 0.02495253 0.00051774 -0.00443691
v 0.02495944 0.00031245 -0.00443691
v 0.02496290 0.00018759 -0.00443691
v 0.02497327 0.00005210 -0.00442395
v 0.02494562 -0.00000397 -0.00447754
v 0.02490587 -0.00000397 -0.00455055
v 0.02506659 0.00006262 -0.00393696
v 0.02505968 -0.00000397 -0.00406121
v 0.02504585 0.00051774 -0.00401705
v 0.02498882 0.00051774 -0.00434504
v 0.02499055 0.00043741 -0.00434975
v 0.02499746 -0.00000397 -0.00437566
v 0.02497327 -0.00000397 -0.00442395
v 0.02505968 0.00006262 -0.00406121
v 0.02505622 0.00018759 -0.00406121
v 0.02504412 0.00051774 -0.00406121
v 0.02504412 -0.00000397 -0.00418664
v 0.02500783 0.00051774 -0.00428262
v 0.02500956 0.00043741 -0.00428675
v 0.02501129 0.00031245 -0.00429499
v 0.02501129 0.00005210 -0.00432208
v 0.02501129 -0.00000397 -0.00432208
v 0.02504412 0.00006262 -0.00418664
v 0.02504066 0.00018759 -0.00418664
v 0.02502857 0.00051774 -0.00418664
v 0.02501647 0.00051774 -0.00424670
f 1 2 5
f 1 5 3
f 1 3 7
f 1 7 12
f 1 12 18
f 1 18 24
f 1 24 30
f 1 30 35
f 1 35 41
f 1 41 47
f 1 47 53
f 1 53 59
f 1 59 65
f 1 65 74
f 1 74 80
f 1 80 87
f 1 87 98
f 1 98 97
f 1 97 105
f 1 105 104
f 1 104 114
f 1 114 109
f 1 109 100
f 1 100 88
f 1 88 81
f 1 81 75
f 1 75 66
f 1 66 60
f 1 60 54
f 1 54 48
f 1 48 43
f 1 43 36
f 1 36 31
f 1 31 25
f 1 25 20
f 1 20 19
f 1 19 13
f 1 13 8
f 1 8 4
f 1 4 6
f 1 6 2
f 2 6 9
f 2 9 15
f 2 15 14
f 2 14 21
f 2 21 27
f 2 27 26
f 2 26 32
f 2 32 37
f 2 37 42
f 2 42 44
f 2 44 49
f 2 49 55
f 2 55 61
f 2 61 68
f 2 68 76
f 2 76 82
f 2 82 91
f 2 91 101
f 2 101 108
f 2 108 117
f 2 117 118
f 2 118 110
f 2 110 102
f 2 102 93
f 2 93 92
f 2 92 83
f 2 83 77
f 2 77 71
f 2 71 70
f 2 70 69
f 2 69 62
f 2 62 57
f 2 57 56
f 2 56 51
f 2 51 45
f 2 45 38
f 2 38 33
f 2 33 28
f 2 28 22
f 2 22 16
f 2 16 10
f 2 10 5
f 3 5 11
f 3 11 7
f 4 8 9
f 4 9 6
f 5 10 11
f 7 11 17
f 7 17 12
f 8 13 14
f 8 14 15
f 8 15 9
f 10 16 17
f 10 17 11
f 12 17 23
f 12 23 18
f 13 19 14
f 14 20 21
f 14 19 20
f 16 22 23
f 16 23 17
f 18 23 29
f 18 29 24
f 20 25 26
f 20 26 27
f 20 27 21
f 22 28 29
f 22 29 23
f 24 29 30
f 25 31 37
f 25 37 32
f 25 32 26
f 28 33 34
f 28 34 29
f 29 34 30
f 30 34 35
f 31 36 37
f 33 38 34
f 34 38 39
f 34 39 40
f 34 40 35
f 35 40 41
f 36 42 37
f 36 43 44
f 36 44 42
f 38 45 46
f 38 46 39
f 39 46 40
f 40 46 47
f 40 47 41
f 43 48 49
f 43 49 50
f 43 50 44
f 44 50 49
f 45 51 46
f 46 51 52
f 46 52 53
f 46 53 47
f 48 54 55
f 48 55 49
f 51 56 52
f 52 56 57
f 52 57 58
f 52 58 53
f 53 58 59
f 54 60 55
f 55 60 61
f 57 62 63
f 57 63 58
f 58 63 64
f 58 64 65
f 58 65 59
f 60 66 67
f 60 67 61
f 61 67 68
f 62 69 63
f 63 69 70
f 63 70 71
f 63 71 72
f 63 72 73
f 63 73 64
f 64 73 74
f 64 74 65
f 66 68 67
f 66 75 68
f 68 75 76
f 71 77 78
f 71 78 72
f 72 78 79
f 72 79 73
f 73 79 80
f 73 80 74
f 75 81 89
f 75 89 90
f 75 90 82
f 75 82 76
f 77 83 84
f 77 84 78
f 78 84 85
f 78 85 86
f 78 86 79
f 79 86 87
f 79 87 80
f 81 88 99
f 81 99 89
f 82 90 91
f 83 92 85
f 83 85 84
f 85 92 93
f 85 93 94
f 85 94 95
f 85 95 86
f 86 95 96
f 86 96 97
f 86 97 98
f 86 98 87
f 88 100 106
f 88 106 99
f 89 99 90
f 90 99 91
f 91 99 101
f 93 102 103
f 93 103 104
f 93 104 94
f 94 96 95
f 94 104 96
f 96 105 97
f 96 104 105
f 99 106 107
f 99 107 108
f 99 108 101
f 100 109 115
f 100 115 106
f 102 110 103
f 103 110 111
f 103 111 112
f 103 112 104
f 104 112 113
f 104 113 114
f 106 115 116
f 106 116 107
f 107 116 117
f 107 117 108
f 109 114 113
f 109 113 115
f 110 118 111
f 111 118 116
f 111 116 112
f 112 116 115
f 112 115 113
f 116 118 117

