# https://github.com/mikedh/trimesh
v 0.00235626 -0.00704611 -0.00203707
v 0.00235626 -0.00704611 -0.00393721
v 0.00179803 -0.00720946 -0.00204805
v 0.00179945 -0.00720946 -0.00203707
v 0.00235626 -0.02494858 -0.00203707
v 0.00235626 -0.00708475 -0.00404939
v 0.00211521 -0.00712339 -0.00400458
v 0.00179803 -0.00720946 -0.00393721
v 0.00179803 -0.00730783 -0.00203707
v 0.00179803 -0.02498898 -0.00203707
v 0.00235626 -0.02494858 -0.00393721
v 0.00235626 -0.00713745 -0.00411378
v 0.00179803 -0.00727446 -0.00408618
v 0.00179803 -0.00723054 -0.00403069
v 0.00179803 -0.02498898 -0.00382771
v 0.00235626 -0.02494331 -0.00406215
v 0.00181257 -0.02498722 -0.00393721
v 0.00235626 -0.00720068 -0.00417462
v 0.00179803 -0.00815799 -0.00495450
v 0.00179803 -0.00734296 -0.00415770
v 0.00179803 -0.02498722 -0.00394968
v 0.00231243 -0.02492925 -0.00418738
v 0.00235626 -0.02492574 -0.00418738
v 0.00179803 -0.02498195 -0.00406126
v 0.00179803 -0.02498019 -0.00407699
v 0.00235626 -0.00803152 -0.00497082
v 0.00179803 -0.00822825 -0.00502008
v 0.00179803 -0.02496438 -0.00418738
v 0.00235626 -0.02490818 -0.00426869
v 0.00235626 -0.00809475 -0.00502453
v 0.00231243 -0.00810002 -0.00502127
v 0.00181257 -0.00822649 -0.00502127
v 0.00179803 -0.00831432 -0.00505391
v 0.00179803 -0.02493452 -0.00431231
v 0.00231243 -0.02490115 -0.00431231
v 0.00235626 -0.02489588 -0.00431588
v 0.00235626 -0.00818960 -0.00505896
v 0.00231243 -0.00818960 -0.00505569
v 0.00181257 -0.00831432 -0.00505569
v 0.00193755 -0.00821244 -0.00502928
v 0.00179803 -0.00843903 -0.00506875
v 0.00179803 -0.02489412 -0.00442657
v 0.00193755 -0.02489061 -0.00441381
v 0.00235626 -0.02487656 -0.00438027
v 0.00206258 -0.00831432 -0.00506786
v 0.00193755 -0.00831432 -0.00506371
v 0.00235626 -0.00831432 -0.00506875
v 0.00218745 -0.00831432 -0.00506875
v 0.00179803 -0.02381211 -0.00506875
v 0.00179803 -0.02486778 -0.00448740
v 0.00181257 -0.02486778 -0.00448651
v 0.00218745 -0.02485548 -0.00445595
v 0.00235626 -0.02486426 -0.00440876
v 0.00235626 -0.02368739 -0.00506875
v 0.00231243 -0.02381211 -0.00506875
v 0.00179803 -0.02393682 -0.00506460
v 0.00179803 -0.02482386 -0.00456070
v 0.00181257 -0.02482211 -0.00456218
v 0.00235626 -0.02478171 -0.00456426
v 0.00231243 -0.02485021 -0.00444615
v 0.00235626 -0.02485021 -0.00443933
v 0.00235626 -0.02381211 -0.00506845
v 0.00235626 -0.02385602 -0.00506638
v 0.00231243 -0.02393682 -0.00506281
v 0.00206258 -0.02393682 -0.00506371
v 0.00181257 -0.02393682 -0.00506460
v 0.00179803 -0.02406153 -0.00505391
v 0.00179803 -0.02476590 -0.00464587
v 0.00193755 -0.02476063 -0.00463993
v 0.00218745 -0.02475184 -0.00462806
v 0.00233402 -0.02474657 -0.00462065
v 0.00235626 -0.02475360 -0.00460610
v 0.00235626 -0.02393682 -0.00506252
v 0.00206258 -0.02406153 -0.00505154
v 0.00179803 -0.02418625 -0.00503077
v 0.00179803 -0.02471144 -0.00470819
v 0.00181257 -0.02471144 -0.00470789
v 0.00235626 -0.02463064 -0.00475597
v 0.00235626 -0.02469564 -0.00468000
v 0.00235626 -0.02474482 -0.00461916
v 0.00235626 -0.02406153 -0.00504798
v 0.00231243 -0.02406153 -0.00504857
v 0.00218745 -0.02418625 -0.00502335
v 0.00179803 -0.02426705 -0.00500673
v 0.00179803 -0.02464997 -0.00477407
v 0.00235626 -0.02450769 -0.00486221
v 0.00235626 -0.02419503 -0.00501741
v 0.00235626 -0.02423367 -0.00500524
v 0.00228833 -0.02425124 -0.00500079
v 0.00179803 -0.02433028 -0.00498180
v 0.00179803 -0.02457619 -0.00483639
v 0.00235626 -0.02449539 -0.00487259
v 0.00235626 -0.02426529 -0.00499248
v 0.00235626 -0.02430393 -0.00497468
v 0.00181257 -0.02443743 -0.00492809
v 0.00179803 -0.02442513 -0.00493462
v 0.00179803 -0.02451296 -0.00488417
v 0.00225576 -0.02449891 -0.00487497
v 0.00230341 -0.02444797 -0.00490257
v 0.00235626 -0.02444094 -0.00490405
v 0.00218745 -0.02443743 -0.00491325
v 0.00179803 -0.02443743 -0.00492809
f 1 2 8
f 1 8 3
f 1 3 4
f 1 4 9
f 1 9 10
f 1 10 5
f 1 5 11
f 1 11 16
f 1 16 23
f 1 23 29
f 1 29 36
f 1 36 44
f 1 44 53
f 1 53 61
f 1 61 59
f 1 59 72
f 1 72 80
f 1 80 79
f 1 79 78
f 1 78 86
f 1 86 92
f 1 92 100
f 1 100 94
f 1 94 93
f 1 93 88
f 1 88 87
f 1 87 81
f 1 81 73
f 1 73 63
f 1 63 62
f 1 62 54
f 1 54 47
f 1 47 37
f 1 37 30
f 1 30 26
f 1 26 18
f 1 18 12
f 1 12 6
f 1 6 2
f 2 6 7
f 2 7 8
f 3 8 14
f 3 14 13
f 3 13 20
f 3 20 19
f 3 19 27
f 3 27 33
f 3 33 41
f 3 41 49
f 3 49 56
f 3 56 67
f 3 67 75
f 3 75 84
f 3 84 90
f 3 90 96
f 3 96 102
f 3 102 97
f 3 97 91
f 3 91 85
f 3 85 76
f 3 76 68
f 3 68 57
f 3 57 50
f 3 50 42
f 3 42 34
f 3 34 28
f 3 28 25
f 3 25 24
f 3 24 21
f 3 21 15
f 3 15 10
f 3 10 9
f 3 9 4
f 5 10 15
f 5 15 11
f 6 12 13
f 6 13 14
f 6 14 7
f 7 14 8
f 11 15 17
f 11 17 16
f 12 18 19
f 12 19 20
f 12 20 13
f 15 21 17
f 16 22 23
f 16 17 24
f 16 24 25
f 16 25 22
f 17 21 24
f 18 26 19
f 19 26 27
f 22 25 28
f 22 28 29
f 22 29 23
f 26 30 31
f 26 31 27
f 27 32 33
f 27 31 32
f 28 34 35
f 28 35 29
f 29 35 36
f 30 37 38
f 30 38 39
f 30 39 40
f 30 40 32
f 30 32 31
f 32 40 39
f 32 39 33
f 33 39 41
f 34 42 43
f 34 43 44
f 34 44 35
f 35 44 36
f 37 45 46
f 37 46 39
f 37 39 38
f 37 47 48
f 37 48 45
f 39 46 41
f 41 48 47
f 41 47 54
f 41 54 55
f 41 55 49
f 41 46 45
f 41 45 48
f 42 50 51
f 42 51 43
f 43 51 52
f 43 52 44
f 44 52 53
f 49 55 66
f 49 66 56
f 50 57 51
f 51 57 58
f 51 58 59
f 51 59 52
f 52 60 61
f 52 61 53
f 52 59 60
f 54 62 55
f 55 62 63
f 55 63 64
f 55 64 65
f 55 65 66
f 56 66 67
f 57 68 58
f 58 68 69
f 58 69 70
f 58 70 71
f 58 71 59
f 59 71 72
f 59 61 60
f 63 73 64
f 64 73 67
f 64 67 65
f 65 67 66
f 67 73 74
f 67 74 75
f 68 76 77
f 68 77 78
f 68 78 79
f 68 79 69
f 69 79 70
f 70 79 71
f 71 79 80
f 71 80 72
f 73 81 82
f 73 82 74
f 74 82 75
f 75 82 81
f 75 81 83
f 75 83 84
f 76 85 77
f 77 85 78
f 78 85 86
f 81 87 83
f 83 87 84
f 84 87 88
f 84 88 89
f 84 89 90
f 85 91 92
f 85 92 86
f 88 93 89
f 89 93 90
f 90 94 95
f 90 95 96
f 90 93 94
f 91 97 98
f 91 98 92
f 92 99 100
f 92 98 99
f 94 100 101
f 94 101 95
f 95 102 96
f 95 101 99
f 95 99 98
f 95 98 97
f 95 97 102
f 99 101 100

