# https://github.com/mikedh/trimesh
v -0.00335434 0.02482831 -0.00255722
v -0.00335434 0.02482831 -0.00381274
v -0.00381591 0.02476311 -0.00255722
v -0.00335434 0.00672052 -0.00255722
v -0.00335434 0.02482650 -0.00393738
v -0.00343753 0.02481564 -0.00393738
v -0.00368745 0.02478122 -0.00393738
v -0.00389147 0.02475225 -0.00396344
v -0.00389147 0.02475225 -0.00255722
v -0.00335492 0.00662815 -0.00255722
v -0.00335434 0.00662815 -0.00256263
v -0.00335434 0.02482469 -0.00402048
v -0.00389147 0.02475043 -0.00403080
v -0.00389147 0.00632569 -0.00255722
v -0.00336717 0.00662090 -0.00255722
v -0.00335434 0.00662815 -0.00393738
v -0.00335434 0.02482288 -0.00406227
v -0.00343753 0.02481201 -0.00406227
v -0.00389147 0.02474681 -0.00409447
v -0.00389147 0.00632569 -0.00381274
v -0.00336717 0.00662090 -0.00393738
v -0.00335434 0.00664626 -0.00402195
v -0.00336980 0.00662272 -0.00400425
v -0.00335434 0.02481382 -0.00414561
v -0.00386849 0.02474862 -0.00411045
v -0.00389147 0.02473232 -0.00418888
v -0.00389147 0.00632750 -0.00393738
v -0.00335434 0.00668429 -0.00406694
v -0.00389147 0.00635467 -0.00403449
v -0.00385419 0.00636372 -0.00401753
v -0.00335434 0.02480839 -0.00418740
v -0.00378515 0.02475406 -0.00415249
v -0.00373141 0.02474681 -0.00423583
v -0.00389147 0.02472146 -0.00423338
v -0.00368887 0.02476130 -0.00419134
v -0.00335913 0.00674225 -0.00413209
v -0.00335434 0.00673682 -0.00412250
v -0.00389147 0.00638546 -0.00406891
v -0.00335434 0.02478847 -0.00427050
v -0.00364812 0.02475225 -0.00426066
v -0.00389147 0.02470153 -0.00431229
v -0.00335434 0.00681107 -0.00419158
v -0.00335434 0.00675312 -0.00413873
v -0.00389147 0.00640900 -0.00409349
v -0.00389147 0.00646515 -0.00414635
v -0.00335434 0.00766231 -0.00496599
v -0.00335434 0.02477760 -0.00431426
v -0.00356252 0.02473957 -0.00434302
v -0.00389147 0.02468523 -0.00435826
v -0.00389147 0.00737796 -0.00494263
v -0.00389147 0.00740875 -0.00496918
v -0.00335434 0.00772570 -0.00501835
v -0.00335434 0.02475406 -0.00438555
v -0.00389147 0.02465263 -0.00444210
v -0.00389147 0.00747214 -0.00502007
v -0.00384394 0.00748482 -0.00501294
v -0.00343753 0.00770759 -0.00502892
v -0.00335434 0.00781264 -0.00505252
v -0.00335434 0.02474138 -0.00441432
v -0.00388574 0.02462547 -0.00450233
v -0.00389147 0.02462728 -0.00449520
v -0.00335434 0.02472689 -0.00444554
v -0.00389147 0.00756089 -0.00505203
v -0.00343753 0.00781264 -0.00506334
v -0.00335434 0.00793760 -0.00506850
v -0.00381249 0.02463090 -0.00451093
v -0.00389147 0.02458924 -0.00455887
v -0.00389147 0.02462003 -0.00450847
v -0.00335434 0.02465988 -0.00456772
v -0.00368745 0.02463995 -0.00452544
v -0.00381249 0.00768767 -0.00506850
v -0.00368745 0.00768767 -0.00506088
v -0.00389147 0.00768767 -0.00506850
v -0.00356252 0.00781264 -0.00506850
v -0.00335434 0.02368729 -0.00506850
v -0.00356252 0.02460917 -0.00460189
v -0.00368745 0.02460011 -0.00458788
v -0.00389147 0.02452223 -0.00465475
v -0.00335434 0.02463271 -0.00461025
v -0.00336649 0.02462366 -0.00462304
v -0.00389147 0.02356233 -0.00506850
v -0.00343753 0.02368729 -0.00506826
v -0.00335434 0.02381226 -0.00506433
v -0.00343753 0.02461822 -0.00461566
v -0.00389147 0.02450412 -0.00467786
v -0.00335434 0.02461279 -0.00463754
v -0.00335434 0.02457294 -0.00468401
v -0.00344520 0.02454759 -0.00469925
v -0.00389147 0.02364021 -0.00506703
v -0.00381249 0.02368729 -0.00506654
v -0.00356252 0.02368729 -0.00506777
v -0.00343753 0.02381226 -0.00506359
v -0.00335434 0.02393723 -0.00504736
v -0.00389147 0.02368729 -0.00506605
v -0.00349200 0.02449869 -0.00474866
v -0.00381249 0.02447514 -0.00472383
v -0.00389147 0.02446971 -0.00471719
v -0.00335434 0.02450774 -0.00475800
v -0.00340866 0.02450412 -0.00475456
v -0.00356252 0.02381226 -0.00506162
v -0.00335434 0.02406401 -0.00501540
v -0.00368745 0.02381226 -0.00505941
v -0.00389147 0.02381226 -0.00505523
v -0.00343753 0.02393723 -0.00504564
v -0.00368745 0.02448420 -0.00473367
v -0.00389147 0.02440632 -0.00478038
v -0.00335434 0.02443349 -0.00482045
v -0.00368745 0.02434655 -0.00485462
v -0.00335434 0.02411835 -0.00499942
v -0.00356252 0.02393723 -0.00504269
v -0.00368745 0.02393723 -0.00503925
v -0.00368745 0.02403322 -0.00501270
v -0.00389147 0.02393723 -0.00503138
v -0.00381249 0.02393723 -0.00503458
v -0.00389147 0.02437915 -0.00480324
v -0.00335434 0.02437009 -0.00487208
v -0.00343753 0.02436466 -0.00486790
v -0.00356252 0.02435561 -0.00486126
v -0.00389147 0.02433206 -0.00484282
v -0.00389147 0.02426867 -0.00488855
v -0.00335602 0.02412016 -0.00499868
v -0.00335434 0.02417993 -0.00497435
v -0.00381249 0.02402598 -0.00500999
v -0.00389147 0.02402054 -0.00500803
v -0.00335434 0.02433749 -0.00489174
v -0.00343753 0.02430127 -0.00490723
v -0.00356252 0.02429221 -0.00490256
v -0.00381249 0.02427410 -0.00489223
v -0.00389147 0.02423788 -0.00490649
v -0.00389147 0.02408212 -0.00498344
v -0.00335434 0.02421796 -0.00495492
v -0.00343753 0.02418717 -0.00496599
v -0.00335434 0.02431395 -0.00490576
v -0.00356252 0.02418717 -0.00495763
v -0.00381249 0.02418717 -0.00494042
v -0.00389147 0.02418717 -0.00493477
f 1 2 3
f 1 3 9
f 1 9 14
f 1 14 15
f 1 15 10
f 1 10 4
f 1 4 11
f 1 11 16
f 1 16 22
f 1 22 28
f 1 28 37
f 1 37 43
f 1 43 42
f 1 42 46
f 1 46 52
f 1 52 58
f 1 58 65
f 1 65 75
f 1 75 83
f 1 83 93
f 1 93 101
f 1 101 109
f 1 109 122
f 1 122 131
f 1 131 133
f 1 133 125
f 1 125 116
f 1 116 107
f 1 107 98
f 1 98 87
f 1 87 86
f 1 86 79
f 1 79 69
f 1 69 62
f 1 62 59
f 1 59 53
f 1 53 47
f 1 47 39
f 1 39 31
f 1 31 24
f 1 24 17
f 1 17 12
f 1 12 5
f 1 5 2
f 2 5 6
f 2 6 7
f 2 7 3
f 3 8 9
f 3 7 8
f 4 10 11
f 5 12 6
f 6 12 7
f 7 12 13
f 7 13 8
f 8 13 19
f 8 19 26
f 8 26 34
f 8 34 41
f 8 41 49
f 8 49 54
f 8 54 61
f 8 61 68
f 8 68 67
f 8 67 78
f 8 78 85
f 8 85 97
f 8 97 106
f 8 106 115
f 8 115 119
f 8 119 120
f 8 120 129
f 8 129 136
f 8 136 130
f 8 130 124
f 8 124 113
f 8 113 103
f 8 103 94
f 8 94 89
f 8 89 81
f 8 81 73
f 8 73 63
f 8 63 55
f 8 55 51
f 8 51 50
f 8 50 45
f 8 45 44
f 8 44 38
f 8 38 29
f 8 29 27
f 8 27 20
f 8 20 14
f 8 14 9
f 10 15 11
f 11 15 21
f 11 21 16
f 12 17 18
f 12 18 13
f 13 18 19
f 14 20 21
f 14 21 15
f 16 21 23
f 16 23 22
f 17 24 18
f 18 24 25
f 18 25 19
f 19 25 26
f 20 27 21
f 21 27 23
f 22 23 29
f 22 29 28
f 23 27 30
f 23 30 29
f 24 31 25
f 25 32 26
f 25 31 32
f 26 33 34
f 26 32 35
f 26 35 33
f 27 29 30
f 28 36 37
f 28 29 38
f 28 38 36
f 31 39 40
f 31 40 33
f 31 33 35
f 31 35 32
f 33 40 41
f 33 41 34
f 36 42 43
f 36 43 37
f 36 38 44
f 36 44 45
f 36 45 46
f 36 46 42
f 39 47 40
f 40 47 48
f 40 48 41
f 41 48 49
f 45 50 46
f 46 50 51
f 46 51 52
f 47 53 48
f 48 53 49
f 49 53 54
f 51 55 56
f 51 56 52
f 52 57 58
f 52 56 55
f 52 55 57
f 53 59 54
f 54 60 61
f 54 59 62
f 54 62 60
f 55 63 57
f 57 63 58
f 58 64 65
f 58 63 64
f 60 66 67
f 60 67 68
f 60 68 61
f 60 62 66
f 62 69 70
f 62 70 66
f 63 71 72
f 63 72 64
f 63 73 71
f 64 72 71
f 64 71 74
f 64 74 65
f 65 74 71
f 65 71 73
f 65 73 81
f 65 81 75
f 66 70 67
f 67 76 77
f 67 77 78
f 67 70 76
f 69 79 80
f 69 80 70
f 70 80 76
f 75 81 82
f 75 82 83
f 76 78 77
f 76 80 84
f 76 84 78
f 78 84 80
f 78 80 85
f 79 86 80
f 80 86 87
f 80 87 88
f 80 88 85
f 81 89 90
f 81 90 91
f 81 91 82
f 82 91 83
f 83 92 93
f 83 91 90
f 83 90 94
f 83 94 92
f 85 95 96
f 85 96 97
f 85 88 95
f 87 98 99
f 87 99 95
f 87 95 88
f 89 94 90
f 92 100 93
f 92 94 100
f 93 100 102
f 93 102 103
f 93 103 104
f 93 104 101
f 94 103 102
f 94 102 100
f 95 105 96
f 95 99 106
f 95 106 105
f 96 105 106
f 96 106 97
f 98 107 108
f 98 108 106
f 98 106 99
f 101 104 110
f 101 110 111
f 101 111 112
f 101 112 109
f 103 113 114
f 103 114 111
f 103 111 110
f 103 110 104
f 106 108 115
f 107 116 117
f 107 117 118
f 107 118 108
f 108 119 115
f 108 118 120
f 108 120 119
f 109 121 122
f 109 112 123
f 109 123 121
f 111 114 112
f 112 114 123
f 113 124 123
f 113 123 114
f 116 125 126
f 116 126 127
f 116 127 128
f 116 128 120
f 116 120 117
f 117 120 118
f 120 128 129
f 121 123 124
f 121 124 130
f 121 130 122
f 122 130 132
f 122 132 131
f 125 133 126
f 126 132 134
f 126 134 135
f 126 135 136
f 126 136 127
f 126 133 132
f 127 136 129
f 127 129 128
f 130 136 135
f 130 135 134
f 130 134 132
f 131 132 133

