# https://github.com/mikedh/trimesh
v -0.00278659 0.02368593 0.00506875
v -0.00278659 0.02381119 0.00506676
v -0.00318745 0.02368593 0.00506875
v -0.00278659 0.00818785 0.00506875
v -0.00278659 0.02383803 0.00506577
v -0.00281254 0.02381119 0.00506676
v -0.00335434 0.02368593 0.00506776
v -0.00335434 0.02356246 0.00506875
v -0.00335434 0.02377003 0.00506577
v -0.00293753 0.00806259 0.00506875
v -0.00278659 0.00808943 0.00506478
v -0.00306252 0.02381119 0.00506577
v -0.00278659 0.02393645 0.00505982
v -0.00335434 0.00793912 0.00506875
v -0.00335434 0.02381119 0.00506379
v -0.00331249 0.00793912 0.00506875
v -0.00335434 0.00789617 0.00506676
v -0.00318745 0.00793912 0.00506577
v -0.00281254 0.00806259 0.00506379
v -0.00278659 0.00806259 0.00506081
v -0.00278659 0.02396329 0.00505585
v -0.00335434 0.02393645 0.00504890
v -0.00335434 0.02389529 0.00505386
v -0.00335434 0.00781386 0.00505188
v -0.00335434 0.00777807 0.00504096
v -0.00278659 0.00798027 0.00503402
v -0.00278659 0.02406171 0.00503997
v -0.00306252 0.02406171 0.00503005
v -0.00318745 0.02406171 0.00502509
v -0.00335434 0.02403307 0.00502509
v -0.00335434 0.00772618 0.00501814
v -0.00281254 0.00795701 0.00502906
v -0.00278659 0.00796238 0.00502707
v -0.00278659 0.02408497 0.00503402
v -0.00278659 0.02416370 0.00501318
v -0.00331922 0.02407244 0.00501616
v -0.00335434 0.02406707 0.00501616
v -0.00335434 0.00770470 0.00500226
v -0.00278659 0.00791228 0.00498936
v -0.00278659 0.02422633 0.00499135
v -0.00328204 0.02412791 0.00500127
v -0.00335434 0.02411002 0.00500326
v -0.00335434 0.00766355 0.00496555
v -0.00278659 0.00784607 0.00492784
v -0.00335434 0.00759018 0.00490006
v -0.00335434 0.00751145 0.00482861
v -0.00335434 0.00674379 0.00413101
v -0.00278659 0.02431222 0.00495066
v -0.00281254 0.02431222 0.00494967
v -0.00318745 0.02419770 0.00497845
v -0.00335434 0.02413507 0.00499433
v -0.00335434 0.02412255 0.00499929
v -0.00278659 0.00706767 0.00419650
v -0.00335434 0.00666864 0.00404964
v -0.00278659 0.00699610 0.00412903
v -0.00278659 0.02440885 0.00489708
v -0.00293753 0.02431222 0.00494074
v -0.00335434 0.02417981 0.00497547
v -0.00335434 0.00664716 0.00402186
v -0.00285522 0.00686726 0.00401293
v -0.00278659 0.00694778 0.00407445
v -0.00278659 0.02447148 0.00485441
v -0.00281254 0.02440706 0.00489609
v -0.00306252 0.02431222 0.00493082
v -0.00318745 0.02431222 0.00492089
v -0.00335434 0.02431401 0.00490601
v -0.00335434 0.00663106 0.00398812
v -0.00278659 0.00688873 0.00394148
v -0.00278659 0.00694063 0.00406453
v -0.00278659 0.02448759 0.00484151
v -0.00326342 0.02437664 0.00487624
v -0.00335434 0.02436948 0.00487128
v -0.00335434 0.00662927 0.00393652
v -0.00278659 0.00688873 -0.00393652
v -0.00278659 0.02456095 0.00477999
v -0.00331249 0.02451085 0.00476014
v -0.00335434 0.02443390 0.00481869
v -0.00335434 0.00662927 -0.00393652
v -0.00285522 0.00686726 -0.00401293
v -0.00278659 0.00689768 -0.00396033
v -0.00278659 0.02460927 0.00473434
v -0.00335434 0.02457348 0.00468373
v -0.00335434 0.02450727 0.00475716
v -0.00335434 0.02449116 0.00477105
v -0.00281254 0.02460748 0.00473235
v -0.00293753 0.02459853 0.00472243
v -0.00335434 0.00664716 -0.00402186
v -0.00311615 0.00674737 -0.00400598
v -0.00278659 0.00694063 -0.00406453
v -0.00278659 0.00693347 -0.00404766
v -0.00278659 0.02466295 0.00467182
v -0.00293753 0.02465221 0.00465992
v -0.00328309 0.02462895 0.00463015
v -0.00335434 0.02461284 0.00463709
v -0.00281254 0.02466116 0.00466984
v -0.00335434 0.00668474 -0.00406651
v -0.00278659 0.00696031 -0.00408735
v -0.00278659 0.02467547 0.00465595
v -0.00278659 0.02472558 0.00458847
v -0.00335434 0.02462358 0.00462419
v -0.00335434 0.00673663 -0.00412208
v -0.00301833 0.00688336 -0.00411712
v -0.00293753 0.00690126 -0.00409727
v -0.00283760 0.00698536 -0.00413796
v -0.00278659 0.00704262 -0.00417170
v -0.00278659 0.02473452 0.00457557
v -0.00335434 0.02463253 0.00461030
v -0.00335434 0.00675274 -0.00413796
v -0.00278659 0.00705336 -0.00418261
v -0.00300527 0.02475063 0.00450114
v -0.00278659 0.02476495 0.00452595
v -0.00335434 0.02465937 0.00456763
v -0.00335434 0.00682789 -0.00420643
v -0.00278659 0.00788543 -0.00496456
v -0.00278659 0.00781923 -0.00490303
v -0.00278659 0.00706052 -0.00418956
v -0.00335434 0.02475421 0.00438504
v -0.00335434 0.02474526 0.00440390
v -0.00331249 0.02472737 0.00445451
v -0.00335434 0.02470410 0.00448725
v -0.00278659 0.02477568 0.00450511
v -0.00278659 0.02480968 0.00443664
v -0.00278659 0.02481863 0.00441680
v -0.00305318 0.02477031 0.00444260
v -0.00335434 0.00753113 -0.00484647
v -0.00335434 0.00759018 -0.00490006
v -0.00278659 0.00789975 -0.00497746
v -0.00335434 0.02476673 0.00434833
v -0.00278659 0.02485799 0.00431161
v -0.00335434 0.02472558 0.00444458
v -0.00335434 0.00766355 -0.00496555
v -0.00331249 0.00773512 -0.00501219
v -0.00281254 0.00789438 -0.00498143
v -0.00278659 0.00796238 -0.00502707
v -0.00335434 0.02477747 0.00431360
v -0.00278659 0.02486873 0.00427787
v -0.00335434 0.00772618 -0.00501814
v -0.00281254 0.00795701 -0.00502906
v -0.00278659 0.00806259 -0.00506081
v -0.00335434 0.02479715 0.00423223
v -0.00278659 0.02487589 0.00425207
v -0.00335434 0.00781386 -0.00505188
v -0.00331249 0.00781386 -0.00504692
v -0.00281254 0.00806259 -0.00506379
v -0.00278659 0.00818785 -0.00506875
v -0.00335434 0.02480789 0.00418658
v -0.00278659 0.02488841 0.00418857
v -0.00335434 0.00793912 -0.00506875
v -0.00331249 0.00793912 -0.00506875
v -0.00318745 0.00793912 -0.00506577
v -0.00293753 0.00806259 -0.00506875
v -0.00278659 0.02368593 -0.00506875
v -0.00335434 0.02481863 0.00410422
v -0.00290513 0.02487768 0.00414788
v -0.00298844 0.02487231 0.00409926
v -0.00278659 0.02490273 0.00406155
v -0.00335434 0.02356246 -0.00506875
v -0.00318745 0.02368593 -0.00506875
v -0.00278659 0.02381119 -0.00506677
v -0.00335434 0.02482400 0.00406155
v -0.00300744 0.02487589 0.00401590
v -0.00278659 0.02490452 0.00403575
v -0.00335434 0.02368593 -0.00506776
v -0.00335434 0.02372888 -0.00506677
v -0.00306252 0.02381119 -0.00506577
v -0.00281254 0.02381119 -0.00506677
v -0.00278659 0.02391139 -0.00506081
v -0.00335434 0.02482757 0.00393652
v -0.00278659 0.02490810 0.00393652
v -0.00335434 0.02381119 -0.00506379
v -0.00281254 0.02393645 -0.00505883
v -0.00278659 0.02393645 -0.00505883
v -0.00335434 0.02482757 -0.00393652
v -0.00278659 0.02490810 -0.00393652
v -0.00335434 0.02393645 -0.00504692
v -0.00318745 0.02393645 -0.00505089
v -0.00278659 0.02406171 -0.00503799
v -0.00335434 0.02482400 -0.00406155
v -0.00300744 0.02487589 -0.00401590
v -0.00278659 0.02490273 -0.00406155
v -0.00335434 0.02406528 -0.00501516
v -0.00306252 0.02406171 -0.00502906
v -0.00278659 0.02416012 -0.00501120
v -0.00335434 0.02480789 -0.00418658
v -0.00298871 0.02487231 -0.00409926
v -0.00278659 0.02490094 -0.00408834
v -0.00335434 0.02411897 -0.00499929
v -0.00327265 0.02412791 -0.00500127
v -0.00306252 0.02414223 -0.00500623
v -0.00293753 0.02414939 -0.00500921
v -0.00278659 0.02422275 -0.00498936
v -0.00335434 0.02478821 -0.00426994
v -0.00290541 0.02487768 -0.00414788
v -0.00278659 0.02488841 -0.00418857
v -0.00285166 0.02487052 -0.00423124
v -0.00335434 0.02417981 -0.00497349
v -0.00331361 0.02417623 -0.00497845
v -0.00306252 0.02420486 -0.00498143
v -0.00278659 0.02431222 -0.00495066
v -0.00335434 0.02477747 -0.00431360
v -0.00278659 0.02486873 -0.00427787
v -0.00335434 0.02421738 -0.00495463
v -0.00306252 0.02431222 -0.00492983
v -0.00278659 0.02440885 -0.00489708
v -0.00335434 0.02475421 -0.00438504
v -0.00278659 0.02485799 -0.00431161
v -0.00335434 0.02431401 -0.00490502
v -0.00318745 0.02431222 -0.00491990
v -0.00281254 0.02440706 -0.00489609
v -0.00278659 0.02445896 -0.00486334
v -0.00278659 0.02480968 -0.00443664
v -0.00305362 0.02477031 -0.00444359
v -0.00300600 0.02475063 -0.00450115
v -0.00331249 0.02472737 -0.00445451
v -0.00335434 0.02472558 -0.00444458
v -0.00335434 0.02433728 -0.00489113
v -0.00326503 0.02437664 -0.00487624
v -0.00330899 0.02432117 -0.00490502
v -0.00293753 0.02439811 -0.00489113
v -0.00281254 0.02446969 -0.00485342
v -0.00278659 0.02447148 -0.00485441
v -0.00278659 0.02476495 -0.00452595
v -0.00335434 0.02463253 -0.00461030
v -0.00335434 0.02465937 -0.00456763
v -0.00278659 0.02475779 -0.00453885
v -0.00335434 0.02436948 -0.00487128
v -0.00334840 0.02436948 -0.00487227
v -0.00318745 0.02444464 -0.00483159
v -0.00281254 0.02454485 -0.00479090
v -0.00278659 0.02454664 -0.00479189
v -0.00278659 0.02472558 -0.00458847
v -0.00328309 0.02462895 -0.00463015
v -0.00335434 0.02461284 -0.00463709
v -0.00335434 0.02437485 -0.00486731
v -0.00335434 0.02446074 -0.00479686
v -0.00318745 0.02451980 -0.00476907
v -0.00278659 0.02459674 -0.00474525
v -0.00278659 0.02471305 -0.00460534
v -0.00281254 0.02466116 -0.00466885
v -0.00278659 0.02465221 -0.00468373
v -0.00335434 0.02457348 -0.00468373
v -0.00335434 0.02450727 -0.00475816
v -0.00278659 0.02460927 -0.00473335
v -0.00278659 0.02466295 -0.00467083
v -0.00281254 0.02460748 -0.00473136
f 1 2 6
f 1 6 3
f 1 3 8
f 1 8 14
f 1 14 16
f 1 16 10
f 1 10 4
f 1 4 11
f 1 11 20
f 1 20 26
f 1 26 33
f 1 33 39
f 1 39 44
f 1 44 53
f 1 53 55
f 1 55 61
f 1 61 69
f 1 69 68
f 1 68 74
f 1 74 80
f 1 80 90
f 1 90 89
f 1 89 97
f 1 97 105
f 1 105 109
f 1 109 116
f 1 116 115
f 1 115 114
f 1 114 127
f 1 127 134
f 1 134 139
f 1 139 145
f 1 145 152
f 1 152 159
f 1 159 167
f 1 167 172
f 1 172 177
f 1 177 183
f 1 183 191
f 1 191 199
f 1 199 204
f 1 204 210
f 1 210 221
f 1 221 230
f 1 230 237
f 1 237 243
f 1 243 240
f 1 240 244
f 1 244 238
f 1 238 231
f 1 231 225
f 1 225 222
f 1 222 211
f 1 211 206
f 1 206 201
f 1 201 194
f 1 194 186
f 1 186 180
f 1 180 174
f 1 174 169
f 1 169 162
f 1 162 156
f 1 156 147
f 1 147 141
f 1 141 136
f 1 136 129
f 1 129 123
f 1 123 122
f 1 122 121
f 1 121 111
f 1 111 106
f 1 106 99
f 1 99 98
f 1 98 91
f 1 91 81
f 1 81 75
f 1 75 70
f 1 70 62
f 1 62 56
f 1 56 48
f 1 48 40
f 1 40 35
f 1 35 34
f 1 34 27
f 1 27 21
f 1 21 13
f 1 13 5
f 1 5 2
f 2 5 6
f 3 7 8
f 3 6 9
f 3 9 7
f 4 10 11
f 5 12 6
f 5 13 12
f 6 12 9
f 7 9 15
f 7 15 23
f 7 23 22
f 7 22 30
f 7 30 37
f 7 37 42
f 7 42 52
f 7 52 51
f 7 51 58
f 7 58 66
f 7 66 72
f 7 72 77
f 7 77 84
f 7 84 83
f 7 83 82
f 7 82 94
f 7 94 100
f 7 100 107
f 7 107 112
f 7 112 120
f 7 120 130
f 7 130 118
f 7 118 117
f 7 117 128
f 7 128 135
f 7 135 140
f 7 140 146
f 7 146 153
f 7 153 160
f 7 160 168
f 7 168 173
f 7 173 178
f 7 178 184
f 7 184 192
f 7 192 200
f 7 200 205
f 7 205 215
f 7 215 224
f 7 224 223
f 7 223 233
f 7 233 241
f 7 241 242
f 7 242 235
f 7 235 234
f 7 234 226
f 7 226 216
f 7 216 207
f 7 207 202
f 7 202 196
f 7 196 187
f 7 187 181
f 7 181 175
f 7 175 170
f 7 170 164
f 7 164 163
f 7 163 157
f 7 157 148
f 7 148 142
f 7 142 137
f 7 137 131
f 7 131 126
f 7 126 125
f 7 125 113
f 7 113 108
f 7 108 101
f 7 101 96
f 7 96 87
f 7 87 78
f 7 78 73
f 7 73 67
f 7 67 59
f 7 59 54
f 7 54 47
f 7 47 46
f 7 46 45
f 7 45 43
f 7 43 38
f 7 38 31
f 7 31 25
f 7 25 24
f 7 24 17
f 7 17 14
f 7 14 8
f 9 12 15
f 10 16 17
f 10 17 18
f 10 18 19
f 10 19 11
f 11 19 20
f 12 13 15
f 13 21 22
f 13 22 23
f 13 23 15
f 14 17 16
f 17 24 18
f 18 24 19
f 19 24 20
f 20 24 25
f 20 25 26
f 21 27 22
f 22 27 28
f 22 28 29
f 22 29 30
f 25 31 32
f 25 32 26
f 26 32 33
f 27 34 28
f 28 34 35
f 28 35 29
f 29 35 36
f 29 36 37
f 29 37 30
f 31 38 33
f 31 33 32
f 33 38 39
f 35 40 41
f 35 41 36
f 36 41 37
f 37 41 42
f 38 43 39
f 39 43 45
f 39 45 46
f 39 46 47
f 39 47 44
f 40 48 49
f 40 49 50
f 40 50 51
f 40 51 52
f 40 52 41
f 41 52 42
f 44 47 53
f 47 54 55
f 47 55 53
f 48 56 49
f 49 57 58
f 49 58 50
f 49 56 57
f 50 58 51
f 54 59 60
f 54 60 61
f 54 61 55
f 56 62 63
f 56 63 57
f 57 64 58
f 57 63 64
f 58 64 65
f 58 65 66
f 59 67 60
f 60 68 69
f 60 69 61
f 60 67 68
f 62 70 71
f 62 71 63
f 63 71 66
f 63 66 65
f 63 65 64
f 66 71 72
f 67 73 68
f 68 73 78
f 68 78 74
f 70 75 76
f 70 76 77
f 70 77 71
f 71 77 72
f 74 79 80
f 74 78 79
f 75 81 76
f 76 82 83
f 76 83 84
f 76 84 77
f 76 81 85
f 76 85 86
f 76 86 82
f 78 87 88
f 78 88 79
f 79 89 90
f 79 90 80
f 79 88 87
f 79 87 89
f 81 91 95
f 81 95 85
f 82 86 92
f 82 92 93
f 82 93 94
f 85 95 92
f 85 92 86
f 87 96 89
f 89 96 97
f 91 98 95
f 92 95 98
f 92 98 93
f 93 98 99
f 93 99 100
f 93 100 94
f 96 101 102
f 96 102 103
f 96 103 97
f 97 103 102
f 97 102 104
f 97 104 105
f 99 106 100
f 100 106 107
f 101 108 109
f 101 109 104
f 101 104 102
f 104 109 105
f 106 110 107
f 106 111 110
f 107 110 112
f 108 113 114
f 108 114 115
f 108 115 116
f 108 116 109
f 110 117 118
f 110 118 119
f 110 119 120
f 110 120 112
f 110 111 121
f 110 121 122
f 110 122 123
f 110 123 124
f 110 124 117
f 113 125 114
f 114 125 126
f 114 126 127
f 117 124 123
f 117 123 129
f 117 129 128
f 118 130 119
f 119 130 120
f 126 131 127
f 127 131 132
f 127 132 133
f 127 133 134
f 128 129 136
f 128 136 135
f 131 137 132
f 132 137 134
f 132 134 133
f 134 138 139
f 134 137 138
f 135 136 141
f 135 141 140
f 137 142 143
f 137 143 138
f 138 143 139
f 139 143 142
f 139 142 144
f 139 144 145
f 140 141 146
f 141 147 146
f 142 148 149
f 142 149 150
f 142 150 144
f 144 151 145
f 144 150 151
f 145 151 149
f 145 149 148
f 145 148 157
f 145 157 158
f 145 158 152
f 146 147 154
f 146 154 155
f 146 155 153
f 147 156 154
f 149 151 150
f 152 158 166
f 152 166 159
f 153 155 160
f 154 156 155
f 155 156 161
f 155 161 160
f 156 162 161
f 157 163 158
f 158 163 164
f 158 164 165
f 158 165 166
f 159 166 167
f 160 161 168
f 161 162 169
f 161 169 168
f 164 170 165
f 165 170 167
f 165 167 166
f 167 170 171
f 167 171 172
f 168 169 174
f 168 174 173
f 170 175 176
f 170 176 171
f 171 176 177
f 171 177 172
f 173 174 179
f 173 179 178
f 174 180 179
f 175 177 176
f 175 181 182
f 175 182 177
f 177 182 183
f 178 179 185
f 178 185 184
f 179 180 186
f 179 186 185
f 181 187 188
f 181 188 182
f 182 188 189
f 182 189 190
f 182 190 183
f 183 190 191
f 184 185 193
f 184 193 194
f 184 194 195
f 184 195 192
f 185 186 193
f 186 194 193
f 187 196 197
f 187 197 188
f 188 197 198
f 188 198 191
f 188 191 189
f 189 191 190
f 191 198 199
f 192 195 201
f 192 201 200
f 194 201 195
f 196 202 203
f 196 203 197
f 197 203 199
f 197 199 198
f 199 203 204
f 200 201 206
f 200 206 205
f 202 207 208
f 202 208 203
f 203 208 209
f 203 209 204
f 204 209 210
f 205 211 212
f 205 212 213
f 205 213 214
f 205 214 215
f 205 206 211
f 207 216 217
f 207 217 218
f 207 218 208
f 208 218 219
f 208 219 209
f 209 219 210
f 210 220 221
f 210 219 217
f 210 217 220
f 211 222 213
f 211 213 212
f 213 223 224
f 213 224 214
f 213 222 225
f 213 225 223
f 214 224 215
f 216 226 227
f 216 227 217
f 217 219 218
f 217 227 228
f 217 228 220
f 220 229 230
f 220 230 221
f 220 228 236
f 220 236 229
f 223 225 231
f 223 231 232
f 223 232 233
f 226 234 227
f 227 234 228
f 228 234 235
f 228 235 242
f 228 242 236
f 229 236 237
f 229 237 230
f 231 238 232
f 232 238 239
f 232 239 240
f 232 240 241
f 232 241 233
f 236 242 243
f 236 243 237
f 238 244 239
f 239 244 240
f 240 243 245
f 240 245 241
f 241 245 242
f 242 245 243

