# https://github.com/mikedh/trimesh
v -0.01717356 0.01704841 -0.00504300
v -0.01718773 0.01704841 -0.00504201
v -0.01708180 0.01705080 -0.00505487
v -0.01708180 0.01704841 -0.00502123
v -0.01718773 0.01706274 -0.00504003
v -0.01708180 0.01718786 -0.00503607
v -0.01731510 0.01704841 -0.00501925
v -0.01708155 0.01833303 -0.00393669
v -0.01708180 0.01704841 0.00505429
v -0.01731547 0.01706564 -0.00501628
v -0.01708180 0.01730569 -0.00501331
v -0.01735308 0.01704841 -0.00501133
v -0.01708180 0.01740427 -0.00498660
v -0.01708180 0.01743835 -0.00497472
v -0.01708180 0.01756183 -0.00493118
v -0.01708180 0.01766570 -0.00488764
v -0.01708180 0.01770782 -0.00486686
v -0.01708180 0.01775334 -0.00484113
v -0.01708180 0.01780955 -0.00480749
v -0.01708180 0.01793165 -0.00472536
v -0.01708180 0.01802986 -0.00463828
v -0.01708180 0.01809839 -0.00456109
v -0.01708180 0.01817636 -0.00445818
v -0.01708180 0.01818654 -0.00444136
v -0.01708180 0.01825859 -0.00431173
v -0.01708180 0.01829720 -0.00421277
v -0.01708180 0.01830147 -0.00419199
v -0.01708180 0.01832423 -0.00406137
v -0.01708180 0.01832486 -0.00405346
v -0.01796836 0.01746979 -0.00406137
v -0.01797200 0.01747305 -0.00393669
v -0.01787309 0.01756862 0.00224201
v -0.01708155 0.01833303 0.00393710
v -0.01708180 0.01716862 0.00503846
v -0.01718773 0.01706274 0.00503846
v -0.01720177 0.01704841 0.00503846
v -0.01727561 0.01714951 -0.00500540
v -0.01714912 0.01727362 -0.00500540
v -0.01710637 0.01735686 -0.00499352
v -0.01742479 0.01704841 -0.00499352
v -0.01744159 0.01706564 -0.00498363
v -0.01756307 0.01704841 -0.00494899
v -0.01731272 0.01731260 -0.00494108
v -0.01723248 0.01723300 -0.00499451
v -0.01756269 0.01706274 -0.00494405
v -0.01755893 0.01718434 -0.00489754
v -0.01730732 0.01743282 -0.00489556
v -0.01713533 0.01763489 -0.00487973
v -0.01709182 0.01771801 -0.00485697
v -0.01743319 0.01743282 -0.00483124
v -0.01729065 0.01766406 -0.00477384
v -0.01716391 0.01778717 -0.00477285
v -0.01712053 0.01787041 -0.00474614
v -0.01724728 0.01774693 -0.00474713
v -0.01770974 0.01733599 -0.00471546
v -0.01750540 0.01763036 -0.00462937
v -0.01712618 0.01800069 -0.00462541
v -0.01787986 0.01737988 -0.00450469
v -0.01711966 0.01811952 -0.00449083
v -0.01740110 0.01789984 -0.00441266
v -0.01714698 0.01814555 -0.00440771
v -0.01735759 0.01798308 -0.00433746
v -0.01712429 0.01824916 -0.00424543
v -0.01795708 0.01745884 -0.00418606
v -0.01713332 0.01825784 -0.00416231
v -0.01802026 0.01739635 -0.00418606
v -0.01803079 0.01740716 -0.00406137
v -0.01794467 0.01749946 0.00224201
v -0.01803405 0.01741068 -0.00393669
v -0.01797200 0.01747305 0.00393710
v -0.01796836 0.01746979 0.00406178
v -0.01708180 0.01832423 0.00406178
v -0.01708180 0.01830185 0.00419339
v -0.01708180 0.01830022 0.00420230
v -0.01708180 0.01829783 0.00421516
v -0.01708180 0.01827544 0.00428344
v -0.01708180 0.01826312 0.00431214
v -0.01708180 0.01824715 0.00434380
v -0.01708180 0.01819031 0.00444671
v -0.01708180 0.01818227 0.00445958
v -0.01708180 0.01813574 0.00452390
v -0.01708180 0.01809701 0.00456942
v -0.01708180 0.01803150 0.00463967
v -0.01708180 0.01793756 0.00472181
v -0.01708180 0.01793241 0.00472577
v -0.01708180 0.01788978 0.00475842
v -0.01708180 0.01780855 0.00480691
v -0.01708180 0.01774303 0.00484451
v -0.01708180 0.01771826 0.00485836
v -0.01708180 0.01766193 0.00488607
v -0.01708180 0.01765111 0.00489102
v -0.01708180 0.01754360 0.00493753
v -0.01708180 0.01741395 0.00498107
v -0.01708180 0.01736001 0.00499591
v -0.01708180 0.01733184 0.00500284
v -0.01708180 0.01729927 0.00501075
v -0.01718560 0.01718585 0.00501372
v -0.01732337 0.01704841 0.00501372
v -0.01745112 0.01704841 -0.00498561
v -0.01768492 0.01704841 -0.00490149
v -0.01768467 0.01705897 -0.00489754
v -0.01764117 0.01714045 -0.00488170
v -0.01738843 0.01738792 -0.00488071
v -0.01759817 0.01722395 -0.00485993
v -0.01768467 0.01718434 -0.00483322
v -0.01743770 0.01753065 -0.00476890
v -0.01750026 0.01750009 -0.00474911
v -0.01788362 0.01725929 -0.00463333
v -0.01767088 0.01742137 -0.00467291
v -0.01762650 0.01737636 -0.00475010
v -0.01775236 0.01725250 -0.00475108
v -0.01784137 0.01734253 -0.00458880
v -0.01792336 0.01729827 -0.00454625
v -0.01800334 0.01725388 -0.00450370
v -0.01796598 0.01734027 -0.00443641
v -0.01790355 0.01740264 -0.00443641
v -0.01752809 0.01777673 -0.00441464
v -0.01786481 0.01749041 -0.00435131
v -0.01773807 0.01761376 -0.00434834
v -0.01725079 0.01812543 -0.00425038
v -0.01788287 0.01750789 -0.00426819
v -0.01800861 0.01738415 -0.00427116
v -0.01812958 0.01725539 -0.00426126
v -0.01808269 0.01732819 -0.00418606
v -0.01809322 0.01733989 -0.00406137
v -0.01809649 0.01734354 -0.00393669
v -0.01803405 0.01741068 0.00393710
v -0.01803079 0.01740716 0.00406178
v -0.01802064 0.01739673 0.00418745
v -0.01795746 0.01745910 0.00418745
v -0.01789503 0.01751933 0.00418745
v -0.01713332 0.01825784 0.00416469
v -0.01712480 0.01824954 0.00424782
v -0.01725129 0.01812606 0.00425177
v -0.01750427 0.01787884 0.00425870
v -0.01775700 0.01763200 0.00426464
v -0.01735835 0.01798346 0.00433885
v -0.01723198 0.01810719 0.00433490
v -0.01714874 0.01814769 0.00441208
v -0.01712216 0.01812203 0.00449520
v -0.01737540 0.01787494 0.00450015
v -0.01762850 0.01762835 0.00450312
v -0.01775474 0.01750487 0.00450510
v -0.01712755 0.01800220 0.00462681
v -0.01717657 0.01792713 0.00465155
v -0.01771012 0.01733662 0.00471587
v -0.01743770 0.01759327 0.00472181
v -0.01712091 0.01787092 0.00474655
v -0.01750038 0.01750034 0.00474951
v -0.01729065 0.01766419 0.00477326
v -0.01716416 0.01778742 0.00477227
v -0.01775299 0.01725312 0.00475149
v -0.01767614 0.01730191 0.00476634
v -0.01743018 0.01742992 0.00482967
v -0.01708919 0.01771461 0.00485638
v -0.01768116 0.01718107 0.00483165
v -0.01734092 0.01746664 0.00485737
v -0.01750928 0.01725903 0.00487914
v -0.01713169 0.01763162 0.00487717
v -0.01743018 0.01730543 0.00489399
v -0.01717908 0.01755441 0.00489201
v -0.01718773 0.01743772 0.00493852
v -0.01743770 0.01718761 0.00494050
v -0.01743607 0.01706086 0.00498206
v -0.01735133 0.01710147 0.00499393
v -0.01737815 0.01704841 0.00499987
v -0.01770347 0.01704841 -0.00489358
v -0.01772416 0.01709846 -0.00486092
v -0.01767589 0.01730154 -0.00476692
v -0.01783573 0.01720924 -0.00471546
v -0.01787559 0.01712587 -0.00474911
v -0.01796661 0.01706274 -0.00471942
v -0.01805599 0.01704841 -0.00465015
v -0.01800472 0.01713040 -0.00462838
v -0.01796698 0.01721389 -0.00458682
v -0.01780138 0.01717554 -0.00476692
v -0.01813785 0.01704841 -0.00456109
v -0.01812419 0.01712449 -0.00449776
v -0.01802465 0.01727777 -0.00443641
v -0.01799143 0.01736630 -0.00435428
v -0.01793715 0.01743734 -0.00431173
v -0.01806076 0.01731097 -0.00430777
v -0.01828591 0.01706438 -0.00429985
v -0.01825043 0.01712574 -0.00425038
v -0.01833279 0.01704841 -0.00419397
v -0.01833455 0.01704841 -0.00418507
v -0.01833041 0.01707582 -0.00406137
v -0.01833405 0.01707972 -0.00393669
v -0.01815277 0.01728104 -0.00393669
v -0.01835874 0.01705243 0.00224201
v -0.01809649 0.01734354 0.00393710
v -0.01809322 0.01733989 0.00406178
v -0.01808307 0.01732857 0.00418745
v -0.01812996 0.01725576 0.00426068
v -0.01800911 0.01738478 0.00426959
v -0.01788337 0.01750826 0.00426662
v -0.01793627 0.01743671 0.00431016
v -0.01773682 0.01761251 0.00434776
v -0.01748459 0.01785985 0.00434182
v -0.01786293 0.01748865 0.00435073
v -0.01771162 0.01758786 0.00443682
v -0.01783836 0.01746463 0.00443682
v -0.01790255 0.01740201 0.00443682
v -0.01788086 0.01738088 0.00450609
v -0.01779837 0.01742401 0.00454765
v -0.01738041 0.01775498 0.00462978
v -0.01742830 0.01767903 0.00465551
v -0.01779762 0.01729802 0.00467530
v -0.01788412 0.01725966 0.00463374
v -0.01783636 0.01720962 0.00471686
v -0.01787597 0.01712650 0.00475050
v -0.01780176 0.01717579 0.00476634
v -0.01780727 0.01704841 0.00483165
v -0.01771839 0.01709204 0.00485836
v -0.01759265 0.01721817 0.00485836
v -0.01763515 0.01713492 0.00487914
v -0.01755567 0.01718107 0.00489399
v -0.01768153 0.01704841 0.00489696
v -0.01756269 0.01706274 0.00494050
v -0.01756244 0.01704841 0.00494544
v -0.01744848 0.01704841 0.00498206
v -0.01779712 0.01704841 -0.00484410
v -0.01781229 0.01704841 -0.00483520
v -0.01797300 0.01704841 -0.00472536
v -0.01790831 0.01704841 -0.00477483
v -0.01790405 0.01706274 -0.00476890
v -0.01821282 0.01704841 -0.00446610
v -0.01815026 0.01715341 -0.00441464
v -0.01811278 0.01723665 -0.00434438
v -0.01823351 0.01710701 -0.00433449
v -0.01829920 0.01704841 -0.00430183
v -0.01835486 0.01704841 -0.00406137
v -0.01835824 0.01704841 -0.00400398
v -0.01836213 0.01704841 -0.00393669
v -0.01836213 0.01704841 0.00393710
v -0.01833405 0.01707972 0.00393710
v -0.01815277 0.01728104 0.00393710
v -0.01821182 0.01720773 0.00406178
v -0.01834947 0.01704841 0.00409543
v -0.01813911 0.01726620 0.00418745
v -0.01825068 0.01712612 0.00425177
v -0.01823137 0.01710462 0.00433490
v -0.01805975 0.01730971 0.00430719
v -0.01798905 0.01736391 0.00435271
v -0.01796498 0.01733888 0.00443682
v -0.01800384 0.01725451 0.00450411
v -0.01792411 0.01729890 0.00454666
v -0.01784212 0.01734316 0.00458921
v -0.01771613 0.01746702 0.00458822
v -0.01763289 0.01750751 0.00463176
v -0.01775876 0.01738377 0.00463275
v -0.01796736 0.01721414 0.00458723
v -0.01800497 0.01713090 0.00462978
v -0.01792173 0.01717026 0.00467332
v -0.01792411 0.01704841 0.00476337
v -0.01790443 0.01706274 0.00476832
v -0.01796698 0.01706274 0.00471983
v -0.01797325 0.01704841 0.00472577
v -0.01790819 0.01704841 0.00477326
v -0.01773882 0.01704841 0.00486925
v -0.01769231 0.01704841 0.00489201
v -0.01757673 0.01704841 0.00494050
v -0.01823476 0.01704841 -0.00443047
v -0.01828014 0.01704841 -0.00434240
v -0.01835448 0.01704841 0.00406178
v -0.01826786 0.01714523 0.00406178
v -0.01833442 0.01704841 0.00418547
v -0.01832916 0.01705356 0.00418943
v -0.01825770 0.01713392 0.00418745
v -0.01833292 0.01704841 0.00419339
v -0.01830358 0.01704841 0.00428641
v -0.01829681 0.01704841 0.00430224
v -0.01825670 0.01704841 0.00438536
v -0.01811052 0.01723426 0.00434380
v -0.01808595 0.01720710 0.00443682
v -0.01802340 0.01727626 0.00443682
v -0.01812494 0.01712524 0.00450015
v -0.01805612 0.01704841 0.00465056
v -0.01814813 0.01705080 0.00454963
v -0.01810451 0.01704841 0.00460108
v -0.01823125 0.01704841 0.00443286
v -0.01814237 0.01714460 0.00443682
v -0.01821884 0.01704841 0.00445562
v -0.01815202 0.01704841 0.00454765
f 1 2 3
f 1 3 4
f 1 4 9
f 1 9 36
f 1 36 98
f 1 98 166
f 1 166 221
f 1 221 220
f 1 220 262
f 1 262 218
f 1 218 261
f 1 261 260
f 1 260 213
f 1 213 259
f 1 259 255
f 1 255 258
f 1 258 278
f 1 278 280
f 1 280 284
f 1 284 283
f 1 283 281
f 1 281 273
f 1 273 272
f 1 272 271
f 1 271 270
f 1 270 267
f 1 267 239
f 1 239 265
f 1 265 235
f 1 235 234
f 1 234 233
f 1 233 232
f 1 232 186
f 1 186 185
f 1 185 231
f 1 231 264
f 1 264 263
f 1 263 227
f 1 227 177
f 1 177 173
f 1 173 224
f 1 224 225
f 1 225 223
f 1 223 222
f 1 222 167
f 1 167 100
f 1 100 42
f 1 42 99
f 1 99 40
f 1 40 12
f 1 12 7
f 1 7 2
f 2 5 6
f 2 6 3
f 2 7 5
f 3 6 8
f 3 8 4
f 4 8 33
f 4 33 9
f 5 7 10
f 5 10 6
f 6 10 11
f 6 11 8
f 7 12 10
f 8 11 13
f 8 13 14
f 8 14 15
f 8 15 16
f 8 16 17
f 8 17 18
f 8 18 19
f 8 19 20
f 8 20 21
f 8 21 22
f 8 22 23
f 8 23 24
f 8 24 25
f 8 25 26
f 8 26 27
f 8 27 28
f 8 28 29
f 8 29 30
f 8 30 31
f 8 31 32
f 8 32 33
f 9 33 34
f 9 34 35
f 9 35 36
f 10 12 37
f 10 37 38
f 10 38 11
f 11 38 39
f 11 39 13
f 12 40 37
f 13 41 42
f 13 42 43
f 13 43 14
f 13 39 44
f 13 44 41
f 14 43 15
f 15 43 45
f 15 45 46
f 15 46 47
f 15 47 48
f 15 48 16
f 16 48 17
f 17 48 49
f 17 49 18
f 18 49 19
f 19 49 50
f 19 50 51
f 19 51 52
f 19 52 53
f 19 53 20
f 20 53 54
f 20 54 55
f 20 55 21
f 21 55 56
f 21 56 57
f 21 57 22
f 22 57 58
f 22 58 59
f 22 59 23
f 23 59 60
f 23 60 61
f 23 61 24
f 24 61 25
f 25 61 62
f 25 62 63
f 25 63 26
f 26 63 64
f 26 64 27
f 27 64 65
f 27 65 28
f 28 65 30
f 28 30 29
f 30 65 64
f 30 64 66
f 30 66 67
f 30 67 31
f 31 68 32
f 31 67 69
f 31 69 127
f 31 127 70
f 31 70 68
f 32 68 70
f 32 70 33
f 33 70 71
f 33 71 72
f 33 72 73
f 33 73 74
f 33 74 75
f 33 75 76
f 33 76 77
f 33 77 78
f 33 78 79
f 33 79 80
f 33 80 81
f 33 81 82
f 33 82 83
f 33 83 84
f 33 84 85
f 33 85 86
f 33 86 87
f 33 87 88
f 33 88 89
f 33 89 90
f 33 90 91
f 33 91 92
f 33 92 93
f 33 93 94
f 33 94 95
f 33 95 96
f 33 96 34
f 34 96 97
f 34 97 98
f 34 98 35
f 35 98 36
f 37 40 38
f 38 40 44
f 38 44 39
f 40 99 41
f 40 41 44
f 41 99 42
f 42 100 45
f 42 45 43
f 45 100 101
f 45 101 46
f 46 101 102
f 46 102 103
f 46 103 47
f 47 103 48
f 48 103 104
f 48 104 49
f 49 104 50
f 50 104 105
f 50 105 106
f 50 106 51
f 51 106 53
f 51 53 52
f 53 106 54
f 54 106 107
f 54 107 55
f 55 108 109
f 55 109 56
f 55 107 110
f 55 110 111
f 55 111 108
f 56 112 57
f 56 109 108
f 56 108 112
f 57 112 58
f 58 112 113
f 58 113 114
f 58 114 115
f 58 115 116
f 58 116 59
f 59 116 60
f 60 116 117
f 60 117 118
f 60 118 119
f 60 119 61
f 61 119 62
f 62 119 63
f 63 120 64
f 63 119 120
f 64 120 121
f 64 121 122
f 64 122 66
f 66 122 123
f 66 123 124
f 66 124 125
f 66 125 67
f 67 125 126
f 67 126 69
f 69 126 191
f 69 191 127
f 70 127 128
f 70 128 71
f 71 128 129
f 71 129 130
f 71 130 131
f 71 131 132
f 71 132 72
f 72 132 73
f 73 132 74
f 74 132 75
f 75 132 131
f 75 131 133
f 75 133 76
f 76 133 77
f 77 133 134
f 77 134 135
f 77 135 136
f 77 136 137
f 77 137 138
f 77 138 78
f 78 138 139
f 78 139 79
f 79 139 140
f 79 140 80
f 80 140 81
f 81 140 82
f 82 140 141
f 82 141 142
f 82 142 143
f 82 143 144
f 82 144 83
f 83 144 145
f 83 145 84
f 84 145 146
f 84 146 147
f 84 147 148
f 84 148 85
f 85 148 86
f 86 148 149
f 86 149 150
f 86 150 151
f 86 151 87
f 87 151 150
f 87 150 152
f 87 152 153
f 87 153 88
f 88 153 154
f 88 154 155
f 88 155 89
f 89 155 154
f 89 154 156
f 89 156 157
f 89 157 158
f 89 158 159
f 89 159 90
f 90 159 158
f 90 158 160
f 90 160 161
f 90 161 91
f 91 161 92
f 92 161 160
f 92 160 162
f 92 162 93
f 93 162 163
f 93 163 164
f 93 164 165
f 93 165 94
f 94 165 97
f 94 97 95
f 95 97 96
f 97 165 98
f 98 165 166
f 100 167 101
f 101 167 102
f 102 168 104
f 102 104 103
f 102 167 168
f 104 168 105
f 105 111 169
f 105 169 106
f 105 168 111
f 106 169 111
f 106 111 110
f 106 110 107
f 108 111 170
f 108 170 171
f 108 171 172
f 108 172 173
f 108 173 174
f 108 174 175
f 108 175 114
f 108 114 113
f 108 113 112
f 111 168 176
f 111 176 171
f 111 171 170
f 114 175 177
f 114 177 178
f 114 178 179
f 114 179 115
f 115 179 180
f 115 180 116
f 116 180 118
f 116 118 117
f 118 180 181
f 118 181 120
f 118 120 119
f 120 181 121
f 121 181 122
f 122 181 180
f 122 180 182
f 122 182 123
f 123 182 183
f 123 183 184
f 123 184 124
f 124 184 185
f 124 185 186
f 124 186 125
f 125 187 188
f 125 188 189
f 125 189 126
f 125 186 187
f 126 189 190
f 126 190 191
f 127 191 128
f 128 191 192
f 128 192 129
f 129 192 193
f 129 193 194
f 129 194 195
f 129 195 130
f 130 195 196
f 130 196 136
f 130 136 135
f 130 135 134
f 130 134 133
f 130 133 131
f 136 196 195
f 136 195 197
f 136 197 198
f 136 198 199
f 136 199 137
f 137 199 139
f 137 139 138
f 139 199 198
f 139 198 200
f 139 200 201
f 139 201 142
f 139 142 141
f 139 141 140
f 142 201 143
f 143 201 202
f 143 202 203
f 143 203 204
f 143 204 205
f 143 205 206
f 143 206 144
f 144 206 145
f 145 206 207
f 145 207 146
f 146 207 206
f 146 206 208
f 146 208 152
f 146 152 149
f 146 149 147
f 147 149 148
f 149 152 150
f 152 208 209
f 152 209 210
f 152 210 211
f 152 211 212
f 152 212 156
f 152 156 153
f 153 156 154
f 156 212 213
f 156 213 214
f 156 214 215
f 156 215 157
f 157 215 158
f 158 215 216
f 158 216 160
f 160 217 163
f 160 163 162
f 160 216 217
f 163 217 218
f 163 218 219
f 163 219 220
f 163 220 164
f 164 221 165
f 164 220 221
f 165 221 166
f 167 222 168
f 168 222 223
f 168 223 176
f 171 224 172
f 171 176 225
f 171 225 226
f 171 226 224
f 172 224 173
f 173 177 174
f 174 177 175
f 176 223 225
f 177 227 178
f 178 227 179
f 179 228 180
f 179 227 228
f 180 229 182
f 180 228 229
f 182 230 183
f 182 229 230
f 183 231 184
f 183 230 231
f 184 231 185
f 186 232 187
f 187 233 234
f 187 234 188
f 187 232 233
f 188 234 190
f 188 190 189
f 190 234 235
f 190 235 236
f 190 236 237
f 190 237 191
f 191 237 192
f 192 237 236
f 192 236 238
f 192 238 239
f 192 239 240
f 192 240 193
f 193 240 241
f 193 241 194
f 194 241 242
f 194 242 243
f 194 243 195
f 195 243 244
f 195 244 197
f 197 244 200
f 197 200 198
f 200 244 203
f 200 203 202
f 200 202 201
f 203 244 245
f 203 245 204
f 204 246 247
f 204 247 209
f 204 209 248
f 204 248 205
f 204 245 246
f 205 248 249
f 205 249 206
f 206 249 250
f 206 250 208
f 208 250 251
f 208 251 209
f 209 251 248
f 209 247 246
f 209 246 252
f 209 252 253
f 209 253 254
f 209 254 211
f 209 211 210
f 211 255 256
f 211 256 213
f 211 213 212
f 211 254 257
f 211 257 258
f 211 258 255
f 213 256 259
f 213 260 214
f 214 260 216
f 214 216 215
f 216 260 261
f 216 261 218
f 216 218 217
f 218 262 219
f 219 262 220
f 224 226 225
f 227 263 228
f 228 263 230
f 228 230 229
f 230 263 264
f 230 264 231
f 235 265 266
f 235 266 238
f 235 238 236
f 238 266 239
f 239 267 268
f 239 268 269
f 239 269 240
f 239 266 265
f 240 269 241
f 241 269 270
f 241 270 271
f 241 271 272
f 241 272 242
f 242 273 274
f 242 274 243
f 242 272 273
f 243 274 244
f 244 274 273
f 244 273 275
f 244 275 276
f 244 276 245
f 245 276 246
f 246 277 252
f 246 276 277
f 248 251 249
f 249 251 250
f 252 277 253
f 253 278 254
f 253 277 279
f 253 279 280
f 253 280 278
f 254 278 257
f 255 259 256
f 257 278 258
f 267 270 268
f 268 270 269
f 273 281 282
f 273 282 275
f 275 282 283
f 275 283 277
f 275 277 276
f 277 283 284
f 277 284 279
f 279 284 280
f 281 283 282

