# https://github.com/mikedh/trimesh
v 0.00137225 -0.00856387 0.00506875
v 0.00137225 -0.00850304 0.00506828
v 0.00070232 -0.00856387 0.00506875
v 0.00137225 -0.02381101 0.00506875
v 0.00137225 -0.00843875 0.00506620
v 0.00131244 -0.00843875 0.00506480
v 0.00118746 -0.00843875 0.00505993
v 0.00070232 -0.00854823 0.00506527
v 0.00070232 -0.02381101 0.00506875
v 0.00070232 -0.02392223 0.00506852
v 0.00081255 -0.02393613 0.00506828
v 0.00093754 -0.02393613 0.00506805
v 0.00118746 -0.02393613 0.00506759
v 0.00137225 -0.02393613 0.00506712
v 0.00137225 -0.00838488 0.00504971
v 0.00070232 -0.00843875 0.00503717
v 0.00137225 -0.00833100 0.00503183
v 0.00070232 -0.02393613 0.00506828
v 0.00070232 -0.02404735 0.00506341
v 0.00081255 -0.02406125 0.00506248
v 0.00093754 -0.02406125 0.00506178
v 0.00137225 -0.02400217 0.00506225
v 0.00131244 -0.00833622 0.00503044
v 0.00070232 -0.00843006 0.00503299
v 0.00137225 -0.00830146 0.00500954
v 0.00070232 -0.02406125 0.00506271
v 0.00081255 -0.02418637 0.00504576
v 0.00131244 -0.02406125 0.00505830
v 0.00093754 -0.02418637 0.00504460
v 0.00137225 -0.02406125 0.00505760
v 0.00070232 -0.00837271 0.00500280
v 0.00118746 -0.00834491 0.00502556
v 0.00137225 -0.00826845 0.00498191
v 0.00070232 -0.02417247 0.00504785
v 0.00070232 -0.02418637 0.00504576
v 0.00081255 -0.02430106 0.00501720
v 0.00093754 -0.02429933 0.00501650
v 0.00118746 -0.02418637 0.00504042
v 0.00137225 -0.02412729 0.00504715
v 0.00137225 -0.00747950 0.00420449
v 0.00070232 -0.00831015 0.00494057
v 0.00070232 -0.02430106 0.00501720
v 0.00070232 -0.02435667 0.00499886
v 0.00081255 -0.02436362 0.00499630
v 0.00093754 -0.02436188 0.00499537
v 0.00118746 -0.02429064 0.00501418
v 0.00131244 -0.02418637 0.00503810
v 0.00137225 -0.02418637 0.00503694
v 0.00137225 -0.00738740 0.00411231
v 0.00070232 -0.00749688 0.00412880
v 0.00070232 -0.00793480 0.00456603
v 0.00070232 -0.02436362 0.00499653
v 0.00070232 -0.02442792 0.00496751
v 0.00081255 -0.02443661 0.00496333
v 0.00093754 -0.02443661 0.00496101
v 0.00118746 -0.02435320 0.00499212
v 0.00137225 -0.02428369 0.00501209
v 0.00137225 -0.02423850 0.00502370
v 0.00070232 -0.00748993 0.00412044
v 0.00137225 -0.00737002 0.00409025
v 0.00070232 -0.02443661 0.00496356
v 0.00070232 -0.02453219 0.00491155
v 0.00081255 -0.02454435 0.00490435
v 0.00093754 -0.02454087 0.00490296
v 0.00106247 -0.02443661 0.00495706
v 0.00137225 -0.02434624 0.00498957
v 0.00137225 -0.02431670 0.00500025
v 0.00070232 -0.00744475 0.00406239
v 0.00137225 -0.00734396 0.00405542
v 0.00070232 -0.02454435 0.00490458
v 0.00070232 -0.02459996 0.00486743
v 0.00081255 -0.02460691 0.00486209
v 0.00118746 -0.02453392 0.00489831
v 0.00118746 -0.02443661 0.00495288
v 0.00093754 -0.02460343 0.00486000
v 0.00137225 -0.02439316 0.00496751
v 0.00070232 -0.00739783 0.00393746
v 0.00106247 -0.00736307 0.00401989
v 0.00096240 -0.00737002 0.00400898
v 0.00118746 -0.00735438 0.00403220
v 0.00137225 -0.00731789 0.00399296
v 0.00070232 -0.02460691 0.00486232
v 0.00070232 -0.02467468 0.00480729
v 0.00081255 -0.02468337 0.00479940
v 0.00093754 -0.02467990 0.00479754
v 0.00137225 -0.02452697 0.00489413
v 0.00137225 -0.02448527 0.00491851
v 0.00137225 -0.02443661 0.00494615
v 0.00131244 -0.02443661 0.00494847
v 0.00118746 -0.02459648 0.00485350
v 0.00070232 -0.00739609 0.00381254
v 0.00137225 -0.00730225 0.00393746
v 0.00070232 -0.02473898 0.00475272
v 0.00081255 -0.02474593 0.00474622
v 0.00093754 -0.02474246 0.00474367
v 0.00106247 -0.02467642 0.00479429
v 0.00137225 -0.02455999 0.00487045
v 0.00137225 -0.02458953 0.00484862
v 0.00137225 -0.02462950 0.00481588
v 0.00070232 -0.00739609 0.00269681
v 0.00137225 -0.00730051 0.00381254
v 0.00070232 -0.02474593 0.00474645
v 0.00070232 -0.02479285 0.00469142
v 0.00081255 -0.02479806 0.00468376
v 0.00093754 -0.02479633 0.00468120
v 0.00106247 -0.02473898 0.00473902
v 0.00131244 -0.02466773 0.00478755
v 0.00137225 -0.02466425 0.00478593
v 0.00137225 -0.00730051 0.00269681
v 0.00070232 -0.02505352 0.00269681
v 0.00070232 -0.02485367 0.00461479
v 0.00081255 -0.02486062 0.00460504
v 0.00093754 -0.02485889 0.00460133
v 0.00118746 -0.02478764 0.00467168
v 0.00131244 -0.02473029 0.00472904
v 0.00137225 -0.02469727 0.00475551
v 0.00137225 -0.02501702 0.00269681
v 0.00082160 -0.02505178 0.00269681
v 0.00070232 -0.02505352 0.00393746
v 0.00070232 -0.02486062 0.00460527
v 0.00081255 -0.02490059 0.00454258
v 0.00093754 -0.02489712 0.00453886
v 0.00106247 -0.02489364 0.00453190
v 0.00137225 -0.02488321 0.00451425
v 0.00118746 -0.02485020 0.00458740
v 0.00137225 -0.02481370 0.00461921
v 0.00137225 -0.02478069 0.00466425
v 0.00137225 -0.02472682 0.00472672
v 0.00137225 -0.02501702 0.00393746
v 0.00132156 -0.02502223 0.00269681
v 0.00094659 -0.02504830 0.00269681
v 0.00081255 -0.02505178 0.00393746
v 0.00081255 -0.02504830 0.00406239
v 0.00070232 -0.02504830 0.00406239
v 0.00070232 -0.02490059 0.00454281
v 0.00081255 -0.02495446 0.00443739
v 0.00093754 -0.02494925 0.00443739
v 0.00137225 -0.02484324 0.00457671
v 0.00137225 -0.02491971 0.00443739
v 0.00137225 -0.02501355 0.00406239
v 0.00131244 -0.02502223 0.00393746
v 0.00093754 -0.02504830 0.00393746
v 0.00093754 -0.02504483 0.00406239
v 0.00081255 -0.02503266 0.00418731
v 0.00070232 -0.02504657 0.00407725
v 0.00070232 -0.02495446 0.00443739
v 0.00093754 -0.02498922 0.00434126
v 0.00081255 -0.02499096 0.00434823
v 0.00131244 -0.02497184 0.00431247
v 0.00137225 -0.02496663 0.00431247
v 0.00137225 -0.02501007 0.00409977
v 0.00118746 -0.02502745 0.00406239
v 0.00137225 -0.02500486 0.00415295
v 0.00093754 -0.02502745 0.00418731
v 0.00070232 -0.02503266 0.00418731
v 0.00093754 -0.02500833 0.00427880
v 0.00081255 -0.02501007 0.00428576
v 0.00070232 -0.02499096 0.00434776
v 0.00114627 -0.02500138 0.00425488
v 0.00070232 -0.02500833 0.00429273
v 0.00122962 -0.02499791 0.00424234
v 0.00137225 -0.02497879 0.00426765
v 0.00137225 -0.02499269 0.00421541
v 0.00118778 -0.02501007 0.00419544
v 0.00070232 -0.02501007 0.00428530
f 1 2 3
f 1 3 9
f 1 9 4
f 1 4 14
f 1 14 22
f 1 22 30
f 1 30 39
f 1 39 48
f 1 48 58
f 1 58 57
f 1 57 67
f 1 67 66
f 1 66 76
f 1 76 88
f 1 88 87
f 1 87 86
f 1 86 97
f 1 97 98
f 1 98 99
f 1 99 108
f 1 108 116
f 1 116 128
f 1 128 127
f 1 127 126
f 1 126 138
f 1 138 124
f 1 124 139
f 1 139 150
f 1 150 162
f 1 162 163
f 1 163 153
f 1 153 151
f 1 151 140
f 1 140 129
f 1 129 117
f 1 117 109
f 1 109 101
f 1 101 92
f 1 92 81
f 1 81 69
f 1 69 60
f 1 60 49
f 1 49 40
f 1 40 33
f 1 33 25
f 1 25 17
f 1 17 15
f 1 15 5
f 1 5 2
f 2 5 3
f 3 5 6
f 3 6 7
f 3 7 8
f 3 8 16
f 3 16 24
f 3 24 31
f 3 31 41
f 3 41 51
f 3 51 50
f 3 50 59
f 3 59 68
f 3 68 77
f 3 77 91
f 3 91 100
f 3 100 110
f 3 110 119
f 3 119 134
f 3 134 145
f 3 145 155
f 3 155 165
f 3 165 160
f 3 160 158
f 3 158 146
f 3 146 135
f 3 135 120
f 3 120 111
f 3 111 103
f 3 103 102
f 3 102 93
f 3 93 83
f 3 83 82
f 3 82 71
f 3 71 70
f 3 70 62
f 3 62 61
f 3 61 53
f 3 53 52
f 3 52 43
f 3 43 42
f 3 42 35
f 3 35 34
f 3 34 26
f 3 26 19
f 3 19 18
f 3 18 10
f 3 10 9
f 4 9 10
f 4 10 11
f 4 11 12
f 4 12 13
f 4 13 14
f 5 15 6
f 6 15 7
f 7 16 8
f 7 15 17
f 7 17 16
f 10 18 11
f 11 18 19
f 11 19 12
f 12 19 13
f 13 19 20
f 13 20 14
f 14 20 21
f 14 21 22
f 16 17 23
f 16 23 24
f 17 25 23
f 19 26 20
f 20 27 21
f 20 26 34
f 20 34 27
f 21 28 22
f 21 27 29
f 21 29 28
f 22 28 30
f 23 25 31
f 23 31 32
f 23 32 24
f 24 32 31
f 25 33 31
f 27 35 42
f 27 42 36
f 27 36 37
f 27 37 29
f 27 34 35
f 28 29 30
f 29 37 38
f 29 38 39
f 29 39 30
f 31 33 40
f 31 40 41
f 36 42 43
f 36 43 52
f 36 52 44
f 36 44 37
f 37 44 45
f 37 45 46
f 37 46 38
f 38 46 47
f 38 47 39
f 39 47 48
f 40 49 50
f 40 50 51
f 40 51 41
f 44 52 53
f 44 53 54
f 44 54 45
f 45 54 55
f 45 55 56
f 45 56 57
f 45 57 46
f 46 57 58
f 46 58 48
f 46 48 47
f 49 59 50
f 49 60 59
f 53 61 54
f 54 61 62
f 54 62 63
f 54 63 55
f 55 63 64
f 55 64 65
f 55 65 66
f 55 66 56
f 56 66 67
f 56 67 57
f 59 60 68
f 60 69 68
f 62 70 63
f 63 70 71
f 63 71 72
f 63 72 64
f 64 73 74
f 64 74 65
f 64 72 75
f 64 75 73
f 65 76 66
f 65 74 76
f 68 69 78
f 68 78 79
f 68 79 77
f 69 80 78
f 69 81 80
f 71 82 72
f 72 82 83
f 72 83 84
f 72 84 85
f 72 85 75
f 73 86 87
f 73 87 88
f 73 88 89
f 73 89 74
f 73 75 90
f 73 90 86
f 74 89 76
f 75 85 90
f 76 89 88
f 77 79 92
f 77 92 101
f 77 101 91
f 78 80 81
f 78 81 79
f 79 81 92
f 83 93 84
f 84 93 94
f 84 94 85
f 85 94 95
f 85 95 96
f 85 96 90
f 86 90 97
f 90 98 97
f 90 96 99
f 90 99 98
f 91 101 109
f 91 109 100
f 93 102 94
f 94 102 103
f 94 103 104
f 94 104 105
f 94 105 95
f 95 106 107
f 95 107 96
f 95 105 106
f 96 107 99
f 99 107 108
f 100 109 117
f 100 117 130
f 100 130 131
f 100 131 118
f 100 118 110
f 103 111 112
f 103 112 104
f 104 112 105
f 105 112 113
f 105 113 114
f 105 114 106
f 106 114 115
f 106 115 107
f 107 115 116
f 107 116 108
f 110 118 119
f 111 120 112
f 112 120 135
f 112 135 121
f 112 121 113
f 113 121 122
f 113 122 123
f 113 123 124
f 113 124 125
f 113 125 126
f 113 126 127
f 113 127 114
f 114 127 115
f 115 128 116
f 115 127 128
f 117 129 130
f 118 131 142
f 118 142 132
f 118 132 119
f 119 132 133
f 119 133 134
f 121 135 136
f 121 136 137
f 121 137 122
f 122 137 123
f 123 137 124
f 124 138 125
f 124 137 139
f 125 138 126
f 129 140 141
f 129 141 130
f 130 141 142
f 130 142 131
f 132 142 143
f 132 143 133
f 133 143 144
f 133 144 145
f 133 145 134
f 135 146 136
f 136 147 137
f 136 146 148
f 136 148 147
f 137 147 139
f 139 147 149
f 139 149 150
f 140 151 152
f 140 152 141
f 141 152 143
f 141 143 142
f 143 152 153
f 143 153 154
f 143 154 144
f 144 155 145
f 144 154 156
f 144 156 157
f 144 157 155
f 146 158 148
f 147 159 149
f 147 148 157
f 147 157 156
f 147 156 159
f 148 158 160
f 148 160 157
f 149 159 161
f 149 161 162
f 149 162 150
f 151 153 152
f 153 163 161
f 153 161 164
f 153 164 154
f 154 164 159
f 154 159 156
f 155 157 165
f 157 160 165
f 159 164 161
f 161 163 162

