# https://github.com/mikedh/trimesh
v 0.00768902 -0.00398358 -0.00506875
v 0.00756298 -0.00398358 -0.00506379
v 0.00768902 -0.00381237 -0.00506875
v 0.02356196 -0.00398358 -0.00506875
v 0.00744791 -0.00398358 -0.00503005
v 0.00756298 -0.00393745 -0.00506081
v 0.00818767 -0.00248753 -0.00506577
v 0.00818767 -0.00256251 -0.00506875
v 0.02368617 -0.00331237 -0.00506875
v 0.02368617 -0.00368744 -0.00506776
v 0.02368617 -0.00393745 -0.00506577
v 0.02368617 -0.00398358 -0.00506478
v 0.00738580 -0.00398358 -0.00499036
v 0.00746069 -0.00393745 -0.00502608
v 0.00807077 -0.00248753 -0.00503005
v 0.00831370 -0.00248753 -0.00506875
v 0.02368617 -0.00248753 -0.00506875
v 0.02381221 -0.00281251 -0.00506776
v 0.02381221 -0.00306251 -0.00506677
v 0.02381221 -0.00318759 -0.00506577
v 0.02381221 -0.00331237 -0.00506478
v 0.02381221 -0.00343744 -0.00506280
v 0.02381221 -0.00368744 -0.00505883
v 0.02381221 -0.00398358 -0.00505188
v 0.00644512 -0.00398358 -0.00417567
v 0.00801232 -0.00248753 -0.00498936
v 0.02381221 -0.00248753 -0.00506776
v 0.02386152 -0.00248753 -0.00506577
v 0.02393641 -0.00248753 -0.00506180
v 0.02393641 -0.00268759 -0.00505982
v 0.02393641 -0.00293759 -0.00505684
v 0.02393641 -0.00318759 -0.00505287
v 0.02393641 -0.00343744 -0.00504692
v 0.02393641 -0.00368744 -0.00503898
v 0.02393641 -0.00393745 -0.00502906
v 0.02393641 -0.00398358 -0.00502707
v 0.00638119 -0.00398358 -0.00411910
v 0.00798675 -0.00248753 -0.00496555
v 0.02398573 -0.00248753 -0.00505486
v 0.02406244 -0.00248753 -0.00504394
v 0.02406244 -0.00281251 -0.00503700
v 0.02406244 -0.00293759 -0.00503402
v 0.02406244 -0.00318759 -0.00502707
v 0.02406244 -0.00331237 -0.00502310
v 0.02405149 -0.00356237 -0.00501616
v 0.02401495 -0.00398358 -0.00500524
v 0.00632274 -0.00398358 -0.00405758
v 0.00711364 -0.00248753 -0.00413597
v 0.00788263 -0.00248753 -0.00486731
v 0.00794656 -0.00248753 -0.00492784
v 0.02417569 -0.00248753 -0.00501516
v 0.02415195 -0.00293759 -0.00501020
v 0.02413916 -0.00318759 -0.00500623
v 0.02413368 -0.00331237 -0.00500326
v 0.02412820 -0.00340390 -0.00500127
v 0.02411359 -0.00356237 -0.00499631
v 0.02410263 -0.00368744 -0.00499135
v 0.02407706 -0.00398358 -0.00497944
v 0.00627159 -0.00398358 -0.00393652
v 0.00636292 -0.00385382 -0.00401689
v 0.00700040 -0.00249661 -0.00400102
v 0.00701136 -0.00248753 -0.00401094
v 0.00705519 -0.00248753 -0.00406850
v 0.02423780 -0.00248753 -0.00499532
v 0.02422684 -0.00268759 -0.00499135
v 0.02420857 -0.00306251 -0.00498242
v 0.02419579 -0.00331237 -0.00497646
v 0.02417752 -0.00344228 -0.00497746
v 0.02418665 -0.00356237 -0.00496356
v 0.02418665 -0.00368744 -0.00495265
v 0.02418665 -0.00381237 -0.00494173
v 0.02418665 -0.00398358 -0.00492586
v 0.00626977 -0.00398358 -0.00368745
v 0.00699857 -0.00249485 -0.00393652
v 0.00700222 -0.00248753 -0.00393652
v 0.02431086 -0.00248753 -0.00496356
v 0.02431086 -0.00256251 -0.00495959
v 0.02431086 -0.00268759 -0.00495265
v 0.02431086 -0.00318759 -0.00492486
v 0.02431086 -0.00331237 -0.00491792
v 0.02432182 -0.00343056 -0.00490303
v 0.02429807 -0.00356237 -0.00490502
v 0.02428712 -0.00368744 -0.00489906
v 0.02426520 -0.00393745 -0.00488517
v 0.02421223 -0.00398358 -0.00491097
v 0.00626977 -0.00398358 0.00368745
v 0.00699857 -0.00249485 0.00393652
v 0.00700222 -0.00248753 0.00399209
v 0.02435470 -0.00248753 -0.00494074
v 0.02441863 -0.00256251 -0.00490204
v 0.02438575 -0.00318759 -0.00488219
v 0.02437844 -0.00331237 -0.00487823
v 0.02437479 -0.00338428 -0.00487525
v 0.02436931 -0.00346761 -0.00487128
v 0.02426154 -0.00398358 -0.00488219
v 0.00627159 -0.00398358 0.00393652
v 0.00700040 -0.00249661 0.00400102
v 0.00701136 -0.00248753 0.00401094
v 0.02442228 -0.00248753 -0.00490403
v 0.02448439 -0.00248753 -0.00486433
v 0.02448073 -0.00256251 -0.00486136
v 0.02444785 -0.00318759 -0.00483258
v 0.02444237 -0.00331237 -0.00482563
v 0.02446064 -0.00293759 -0.00484449
v 0.02436018 -0.00356237 -0.00486532
v 0.02442411 -0.00343056 -0.00482762
v 0.02444603 -0.00355388 -0.00479289
v 0.02442228 -0.00368744 -0.00479388
v 0.02434922 -0.00368744 -0.00485639
v 0.02432365 -0.00398358 -0.00483258
v 0.00628438 -0.00398358 0.00397323
v 0.00636292 -0.00385382 0.00401689
v 0.00632274 -0.00398358 0.00405758
v 0.00703693 -0.00248753 0.00404468
v 0.02451361 -0.00248753 -0.00483952
v 0.02456475 -0.00248753 -0.00479586
v 0.02455380 -0.00256251 -0.00479884
v 0.02454101 -0.00281251 -0.00478792
v 0.02451361 -0.00331237 -0.00476312
v 0.02450083 -0.00350642 -0.00475022
v 0.02440036 -0.00393745 -0.00477403
v 0.02439488 -0.00398358 -0.00477006
v 0.00635379 -0.00398358 0.00409330
v 0.00711364 -0.00248753 0.00413597
v 0.00705519 -0.00248753 0.00406849
v 0.02461955 -0.00248753 -0.00474525
v 0.02461590 -0.00256251 -0.00474129
v 0.02460311 -0.00281251 -0.00472739
v 0.02458302 -0.00318759 -0.00470457
v 0.02457571 -0.00331237 -0.00469663
v 0.02457754 -0.00343862 -0.00467679
v 0.02462138 -0.00348094 -0.00462122
v 0.02454283 -0.00355388 -0.00469564
v 0.02449352 -0.00358976 -0.00474327
v 0.02447342 -0.00381237 -0.00472342
v 0.02445881 -0.00398358 -0.00470655
v 0.00638119 -0.00398358 0.00411910
v 0.00794656 -0.00248753 0.00492784
v 0.00788263 -0.00248753 0.00486731
v 0.02462868 -0.00248753 -0.00473533
v 0.02466887 -0.00248753 -0.00468969
v 0.02465791 -0.00281251 -0.00466488
v 0.02463782 -0.00318759 -0.00464205
v 0.02462686 -0.00339761 -0.00462816
v 0.02467800 -0.00331237 -0.00456168
v 0.02465608 -0.00343862 -0.00457259
v 0.02465426 -0.00356237 -0.00454778
v 0.02464330 -0.00368744 -0.00453091
v 0.02460311 -0.00368744 -0.00459343
v 0.02451544 -0.00398358 -0.00464404
v 0.02453005 -0.00381237 -0.00466091
v 0.00639763 -0.00398358 0.00413399
v 0.00801232 -0.00248753 0.00498936
v 0.02473828 -0.00248753 -0.00460732
v 0.02473280 -0.00331237 -0.00446542
v 0.02475289 -0.00293759 -0.00450611
v 0.02474559 -0.00308580 -0.00449122
v 0.02474010 -0.00318759 -0.00447931
v 0.02472549 -0.00343744 -0.00444954
v 0.02463234 -0.00381237 -0.00451305
v 0.02458667 -0.00393115 -0.00455175
v 0.02457389 -0.00398358 -0.00455572
v 0.00644512 -0.00398358 0.00417567
v 0.00803606 -0.00248753 0.00500723
v 0.00648713 -0.00398358 0.00421238
v 0.00738580 -0.00398358 0.00499036
v 0.02477664 -0.00248753 -0.00454481
v 0.02476202 -0.00331237 -0.00440291
v 0.02477298 -0.00256251 -0.00453786
v 0.02483143 -0.00248753 -0.00443664
v 0.02482413 -0.00256251 -0.00443664
v 0.02481134 -0.00268759 -0.00443664
v 0.02475472 -0.00343744 -0.00438703
v 0.02475107 -0.00350642 -0.00437711
v 0.02461772 -0.00398358 -0.00448527
v 0.00807077 -0.00248753 0.00503005
v 0.00740772 -0.00398358 0.00500623
v 0.02484787 -0.00248753 -0.00439794
v 0.02486614 -0.00248753 -0.00435131
v 0.02487527 -0.00248753 -0.00432650
v 0.02476202 -0.00355388 -0.00431261
v 0.02475654 -0.00366299 -0.00427192
v 0.02474376 -0.00358976 -0.00435527
v 0.02468713 -0.00398358 -0.00431161
v 0.02464330 -0.00398358 -0.00442871
v 0.02484605 -0.00281251 -0.00431161
v 0.02479308 -0.00331237 -0.00431161
v 0.02477846 -0.00343744 -0.00431161
v 0.00813470 -0.00248753 0.00505089
v 0.00744791 -0.00398358 0.00503005
v 0.00751001 -0.00398358 0.00505089
v 0.02488623 -0.00248753 -0.00428879
v 0.02488258 -0.00256251 -0.00427688
v 0.02480952 -0.00343744 -0.00418658
v 0.02474924 -0.00374632 -0.00424612
v 0.02479125 -0.00356237 -0.00418658
v 0.02471819 -0.00398358 -0.00418658
v 0.02487345 -0.00274090 -0.00424414
v 0.02482413 -0.00331237 -0.00418658
v 0.00818767 -0.00248753 0.00506577
v 0.00756298 -0.00393745 0.00506081
v 0.00756298 -0.00398358 0.00506379
v 0.02490998 -0.00248753 -0.00418658
v 0.02482413 -0.00343744 -0.00406155
v 0.02480769 -0.00356237 -0.00406155
v 0.02475654 -0.00378938 -0.00416277
v 0.02474924 -0.00387271 -0.00411811
v 0.02473280 -0.00398358 -0.00406750
v 0.02490267 -0.00256251 -0.00418658
v 0.02487710 -0.00289570 -0.00413697
v 0.02483874 -0.00331237 -0.00406155
v 0.00818767 -0.00256251 0.00506875
v 0.00826256 -0.00248753 0.00506875
v 0.00764152 -0.00398358 0.00506875
v 0.00768902 -0.00381237 0.00506875
v 0.02492459 -0.00248753 -0.00406155
v 0.02482961 -0.00343744 -0.00393652
v 0.02481134 -0.00356237 -0.00393652
v 0.02478577 -0.00368744 -0.00406155
v 0.02474193 -0.00393261 -0.00407048
v 0.02473463 -0.00398358 -0.00401789
v 0.02491728 -0.00256251 -0.00406155
v 0.02490450 -0.00268759 -0.00406155
v 0.02489171 -0.00281251 -0.00406155
v 0.02487527 -0.00300393 -0.00400598
v 0.02368617 -0.00248753 0.00506875
v 0.02356196 -0.00398358 0.00506875
v 0.02493007 -0.00248753 -0.00393652
v 0.02482961 -0.00343744 0.00393652
v 0.02488258 -0.00293759 -0.00393652
v 0.02481134 -0.00356237 0.00393652
v 0.02478942 -0.00368744 -0.00393652
v 0.02476751 -0.00381237 -0.00393652
v 0.02474193 -0.00395649 -0.00393652
v 0.02473645 -0.00398358 -0.00393652
v 0.02368617 -0.00331237 0.00506875
v 0.02381221 -0.00248753 0.00506776
v 0.02364051 -0.00398358 0.00506676
v 0.02368617 -0.00356237 0.00506776
v 0.02493007 -0.00248753 0.00393652
v 0.02483874 -0.00331237 0.00406155
v 0.02482413 -0.00343744 0.00406155
v 0.02480769 -0.00356237 0.00406155
v 0.02488258 -0.00293759 0.00393652
v 0.02487527 -0.00300393 0.00400598
v 0.02478942 -0.00368744 0.00393652
v 0.02476751 -0.00381237 0.00393652
v 0.02474193 -0.00395649 0.00393652
v 0.02473645 -0.00398358 0.00393652
v 0.02381221 -0.00256251 0.00506776
v 0.02388709 -0.00248753 0.00506478
v 0.02368617 -0.00398358 0.00506478
v 0.02368617 -0.00393745 0.00506577
v 0.02381221 -0.00331237 0.00506478
v 0.02381221 -0.00306251 0.00506577
v 0.02492824 -0.00248753 0.00398712
v 0.02482413 -0.00331237 0.00418658
v 0.02489171 -0.00281251 0.00406155
v 0.02487710 -0.00289570 0.00413696
v 0.02480952 -0.00343744 0.00418658
v 0.02479125 -0.00356237 0.00418658
v 0.02474924 -0.00387081 0.00411414
v 0.02475107 -0.00388765 0.00403079
v 0.02491728 -0.00256251 0.00406155
v 0.02490450 -0.00268759 0.00406155
v 0.02473097 -0.00398358 0.00406552
v 0.02393641 -0.00248753 0.00506280
v 0.02376471 -0.00398358 0.00505684
v 0.02381221 -0.00356237 0.00506180
v 0.02381221 -0.00343744 0.00506379
v 0.02492459 -0.00248753 0.00406155
v 0.02477846 -0.00343744 0.00431161
v 0.02487345 -0.00274090 0.00424413
v 0.02491911 -0.00248753 0.00411216
v 0.02490998 -0.00248753 0.00418658
v 0.02490267 -0.00256251 0.00418658
v 0.02475654 -0.00366299 0.00427093
v 0.02474924 -0.00374632 0.00424612
v 0.02475654 -0.00378747 0.00416276
v 0.02472549 -0.00393745 0.00418658
v 0.02471636 -0.00398358 0.00418658
v 0.02472549 -0.00398358 0.00411513
v 0.02393641 -0.00293759 0.00505684
v 0.02406244 -0.00248753 0.00504493
v 0.02381221 -0.00398358 0.00505089
v 0.02381221 -0.00393745 0.00505287
v 0.02381221 -0.00368744 0.00505883
v 0.02393641 -0.00331237 0.00504990
v 0.02480586 -0.00318759 0.00431161
v 0.02474924 -0.00350291 0.00437611
v 0.02476202 -0.00355168 0.00431161
v 0.02490267 -0.00248753 0.00422330
v 0.02488258 -0.00256251 0.00427688
v 0.02474193 -0.00358624 0.00435428
v 0.02469444 -0.00393745 0.00431161
v 0.02468531 -0.00398358 0.00431161
v 0.02470540 -0.00398358 0.00423322
v 0.02393641 -0.00343744 0.00504692
v 0.02406244 -0.00293759 0.00503402
v 0.02413186 -0.00248753 0.00502707
v 0.02389075 -0.00398358 0.00503600
v 0.02393641 -0.00356237 0.00504295
v 0.02487893 -0.00248753 0.00431459
v 0.02486249 -0.00256251 0.00433940
v 0.02476020 -0.00331237 0.00440191
v 0.02473280 -0.00331237 0.00446443
v 0.02472549 -0.00343744 0.00444756
v 0.02471819 -0.00355168 0.00442573
v 0.02461772 -0.00398358 0.00448428
v 0.02464512 -0.00393115 0.00444260
v 0.02464147 -0.00398358 0.00442771
v 0.02467252 -0.00398358 0.00434734
v 0.02488623 -0.00248753 0.00428879
v 0.02406244 -0.00318759 0.00502707
v 0.02417204 -0.00256251 0.00501417
v 0.02417569 -0.00248753 0.00501516
v 0.02393641 -0.00398358 0.00502608
v 0.02393641 -0.00393745 0.00502806
v 0.02393641 -0.00368744 0.00503799
v 0.02406244 -0.00331237 0.00502310
v 0.02486614 -0.00248753 0.00435130
v 0.02485153 -0.00248753 0.00439100
v 0.02476751 -0.00318759 0.00441680
v 0.02465791 -0.00343832 0.00457259
v 0.02474010 -0.00318759 0.00447931
v 0.02465426 -0.00356237 0.00454778
v 0.02464330 -0.00368744 0.00453091
v 0.02463234 -0.00381237 0.00451305
v 0.02458667 -0.00393115 0.00455175
v 0.02455562 -0.00398358 0.00458549
v 0.02413368 -0.00331237 0.00500326
v 0.02414647 -0.00306251 0.00500723
v 0.02421405 -0.00248753 0.00500425
v 0.02401313 -0.00398358 0.00500524
v 0.02412820 -0.00340610 0.00500127
v 0.02483143 -0.00248753 0.00443664
v 0.02482413 -0.00256251 0.00443664
v 0.02472001 -0.00281251 0.00457954
v 0.02462686 -0.00339731 0.00462816
v 0.02462138 -0.00348065 0.00462121
v 0.02474559 -0.00308580 0.00449023
v 0.02474924 -0.00300247 0.00450015
v 0.02475289 -0.00293759 0.00450611
v 0.02460311 -0.00368744 0.00459343
v 0.02451544 -0.00398358 0.00464404
v 0.02422136 -0.00281251 0.00498936
v 0.02423962 -0.00248753 0.00499631
v 0.02405331 -0.00398358 0.00498936
v 0.02412090 -0.00348944 0.00499929
v 0.02419579 -0.00331237 0.00497448
v 0.02420857 -0.00306251 0.00498242
v 0.02421405 -0.00293759 0.00498639
v 0.02481134 -0.00248753 0.00447733
v 0.02473280 -0.00256251 0.00459938
v 0.02477298 -0.00256251 0.00453687
v 0.02463782 -0.00318759 0.00464205
v 0.02458485 -0.00318759 0.00470457
v 0.02457754 -0.00331237 0.00469663
v 0.02457937 -0.00343832 0.00467678
v 0.02450265 -0.00351917 0.00475319
v 0.02473645 -0.00248753 0.00460534
v 0.02448804 -0.00368744 0.00473732
v 0.02447708 -0.00381237 0.00472541
v 0.02453005 -0.00381237 0.00466289
v 0.02449534 -0.00398358 0.00466785
v 0.02428163 -0.00248753 0.00497646
v 0.02407706 -0.00398358 0.00497944
v 0.02418665 -0.00356237 0.00496059
v 0.02417752 -0.00344359 0.00497448
v 0.02430355 -0.00343744 0.00490700
v 0.02431086 -0.00318759 0.00491990
v 0.02431086 -0.00293759 0.00493578
v 0.02431086 -0.00281251 0.00494372
v 0.02431086 -0.00268759 0.00495066
v 0.02431086 -0.00256251 0.00495761
v 0.02477664 -0.00248753 0.00454282
v 0.02465791 -0.00281251 0.00466587
v 0.02460494 -0.00281251 0.00472838
v 0.02450813 -0.00343744 0.00475815
v 0.02443689 -0.00343744 0.00481571
v 0.02434557 -0.00368744 0.00485540
v 0.02433461 -0.00381237 0.00484746
v 0.02441315 -0.00381237 0.00478495
v 0.02440219 -0.00393745 0.00477602
v 0.02439854 -0.00398358 0.00477205
v 0.02471088 -0.00248753 0.00463808
v 0.02467070 -0.00256251 0.00468075
v 0.02443872 -0.00398358 0.00473235
v 0.02431086 -0.00248753 0.00496158
v 0.02414464 -0.00398358 0.00494471
v 0.02418665 -0.00368744 0.00494967
v 0.02418665 -0.00393745 0.00492685
v 0.02428346 -0.00368744 0.00489509
v 0.02436566 -0.00343744 0.00486929
v 0.02437662 -0.00326580 0.00487525
v 0.02432182 -0.00330944 0.00490502
v 0.02439488 -0.00293759 0.00488716
v 0.02442045 -0.00248753 0.00490204
v 0.02461772 -0.00256251 0.00474327
v 0.02451544 -0.00331237 0.00476510
v 0.02442593 -0.00330944 0.00483655
v 0.02425789 -0.00398358 0.00488021
v 0.02428894 -0.00398358 0.00485838
v 0.02431634 -0.00398358 0.00483853
v 0.02436748 -0.00398358 0.00479785
v 0.02466887 -0.00248753 0.00469167
v 0.02419031 -0.00398358 0.00491990
v 0.02423962 -0.00398358 0.00489112
v 0.02445699 -0.00293759 0.00484548
v 0.02447160 -0.00268759 0.00485540
v 0.02447891 -0.00256251 0.00486036
v 0.02448256 -0.00248753 0.00486334
v 0.02462138 -0.00248753 0.00474724
v 0.02461772 -0.00248753 0.00475121
v 0.02452274 -0.00318759 0.00477105
v 0.02453553 -0.00293759 0.00478296
v 0.02456658 -0.00248753 0.00479586
f 1 2 3
f 1 3 8
f 1 8 16
f 1 16 17
f 1 17 9
f 1 9 4
f 1 4 12
f 1 12 24
f 1 24 36
f 1 36 46
f 1 46 58
f 1 58 72
f 1 72 85
f 1 85 95
f 1 95 110
f 1 110 122
f 1 122 136
f 1 136 150
f 1 150 162
f 1 162 175
f 1 175 185
f 1 185 184
f 1 184 197
f 1 197 208
f 1 208 221
f 1 221 235
f 1 235 249
f 1 249 266
f 1 266 282
f 1 282 281
f 1 281 297
f 1 297 296
f 1 296 312
f 1 312 311
f 1 311 309
f 1 309 330
f 1 330 345
f 1 345 365
f 1 365 388
f 1 388 385
f 1 385 405
f 1 405 404
f 1 404 403
f 1 403 402
f 1 402 408
f 1 408 407
f 1 407 390
f 1 390 367
f 1 367 348
f 1 348 334
f 1 334 317
f 1 317 301
f 1 301 285
f 1 285 268
f 1 268 252
f 1 252 238
f 1 238 227
f 1 227 214
f 1 214 202
f 1 202 191
f 1 191 190
f 1 190 177
f 1 177 166
f 1 166 165
f 1 165 163
f 1 163 152
f 1 152 137
f 1 137 123
f 1 123 113
f 1 113 111
f 1 111 96
f 1 96 86
f 1 86 73
f 1 73 59
f 1 59 47
f 1 47 37
f 1 37 25
f 1 25 13
f 1 13 5
f 1 5 2
f 2 5 6
f 2 6 7
f 2 7 8
f 2 8 3
f 4 9 10
f 4 10 11
f 4 11 12
f 5 13 14
f 5 14 15
f 5 15 6
f 6 15 7
f 7 15 26
f 7 26 38
f 7 38 50
f 7 50 49
f 7 49 48
f 7 48 63
f 7 63 62
f 7 62 75
f 7 75 88
f 7 88 98
f 7 98 114
f 7 114 125
f 7 125 124
f 7 124 139
f 7 139 138
f 7 138 153
f 7 153 164
f 7 164 176
f 7 176 189
f 7 189 200
f 7 200 213
f 7 213 226
f 7 226 237
f 7 237 251
f 7 251 267
f 7 267 284
f 7 284 300
f 7 300 316
f 7 316 333
f 7 333 347
f 7 347 366
f 7 366 389
f 7 389 398
f 7 398 412
f 7 412 417
f 7 417 414
f 7 414 413
f 7 413 406
f 7 406 386
f 7 386 361
f 7 361 376
f 7 376 353
f 7 353 336
f 7 336 322
f 7 322 321
f 7 321 303
f 7 303 313
f 7 313 292
f 7 292 275
f 7 275 274
f 7 274 271
f 7 271 256
f 7 256 240
f 7 240 228
f 7 228 216
f 7 216 203
f 7 203 192
f 7 192 180
f 7 180 179
f 7 179 178
f 7 178 170
f 7 170 167
f 7 167 154
f 7 154 141
f 7 141 140
f 7 140 126
f 7 126 116
f 7 116 115
f 7 115 100
f 7 100 99
f 7 99 89
f 7 89 76
f 7 76 64
f 7 64 51
f 7 51 40
f 7 40 39
f 7 39 29
f 7 29 28
f 7 28 27
f 7 27 17
f 7 17 16
f 7 16 8
f 9 17 27
f 9 27 18
f 9 18 10
f 10 18 19
f 10 19 20
f 10 20 11
f 11 20 21
f 11 21 22
f 11 22 23
f 11 23 12
f 12 23 24
f 13 25 26
f 13 26 15
f 13 15 14
f 18 27 28
f 18 28 29
f 18 29 19
f 19 29 20
f 20 29 21
f 21 29 30
f 21 30 31
f 21 31 22
f 22 31 32
f 22 32 23
f 23 32 24
f 24 32 33
f 24 33 34
f 24 34 35
f 24 35 36
f 25 37 26
f 26 37 38
f 29 39 30
f 30 39 40
f 30 40 31
f 31 40 32
f 32 40 41
f 32 41 42
f 32 42 33
f 33 42 43
f 33 43 34
f 34 43 44
f 34 44 45
f 34 45 35
f 35 45 36
f 36 45 46
f 37 47 48
f 37 48 49
f 37 49 50
f 37 50 38
f 40 51 41
f 41 51 42
f 42 51 52
f 42 52 43
f 43 52 53
f 43 53 44
f 44 53 54
f 44 54 55
f 44 55 45
f 45 55 46
f 46 55 56
f 46 56 57
f 46 57 58
f 47 59 60
f 47 60 61
f 47 61 62
f 47 62 63
f 47 63 48
f 51 64 52
f 52 64 53
f 53 64 54
f 54 64 65
f 54 65 66
f 54 66 67
f 54 67 55
f 55 67 68
f 55 68 56
f 56 58 57
f 56 68 58
f 58 68 69
f 58 69 70
f 58 70 71
f 58 71 72
f 59 73 74
f 59 74 61
f 59 61 60
f 61 74 75
f 61 75 62
f 64 76 65
f 65 76 66
f 66 76 67
f 67 76 77
f 67 77 78
f 67 78 79
f 67 79 80
f 67 80 68
f 68 80 69
f 69 80 81
f 69 81 82
f 69 82 70
f 70 82 71
f 71 82 72
f 72 82 83
f 72 83 84
f 72 84 85
f 73 86 87
f 73 87 74
f 74 87 88
f 74 88 75
f 76 89 77
f 77 89 78
f 78 89 79
f 79 89 80
f 80 89 90
f 80 90 91
f 80 91 92
f 80 92 93
f 80 93 81
f 81 93 94
f 81 94 82
f 82 94 83
f 83 94 84
f 84 95 85
f 84 94 95
f 86 96 88
f 86 88 87
f 88 97 98
f 88 96 97
f 89 99 90
f 90 99 100
f 90 100 91
f 91 100 92
f 92 100 101
f 92 101 93
f 93 102 103
f 93 103 94
f 93 101 104
f 93 104 102
f 94 105 95
f 94 103 106
f 94 106 107
f 94 107 108
f 94 108 105
f 95 105 109
f 95 109 110
f 96 111 97
f 97 111 112
f 97 112 113
f 97 113 98
f 98 113 114
f 100 115 101
f 101 115 116
f 101 116 117
f 101 117 118
f 101 118 104
f 102 104 118
f 102 118 103
f 103 118 119
f 103 119 106
f 105 108 109
f 106 119 107
f 107 119 120
f 107 120 108
f 108 120 121
f 108 121 110
f 108 110 109
f 110 121 122
f 111 113 112
f 113 123 124
f 113 124 125
f 113 125 114
f 116 118 117
f 116 126 118
f 118 126 127
f 118 127 119
f 119 127 128
f 119 128 129
f 119 129 130
f 119 130 120
f 120 130 131
f 120 131 132
f 120 132 133
f 120 133 134
f 120 134 121
f 121 134 135
f 121 135 136
f 121 136 122
f 123 137 138
f 123 138 139
f 123 139 124
f 126 140 127
f 127 140 128
f 128 140 141
f 128 141 142
f 128 142 143
f 128 143 129
f 129 143 144
f 129 144 130
f 130 144 131
f 131 144 132
f 132 144 145
f 132 145 146
f 132 146 147
f 132 147 148
f 132 148 149
f 132 149 150
f 132 150 151
f 132 151 133
f 133 151 135
f 133 135 134
f 135 151 150
f 135 150 136
f 137 152 153
f 137 153 138
f 141 154 142
f 142 154 143
f 143 154 144
f 144 154 145
f 145 155 146
f 145 154 156
f 145 156 157
f 145 157 158
f 145 158 155
f 146 155 147
f 147 155 159
f 147 159 148
f 148 160 161
f 148 161 149
f 148 159 160
f 149 161 150
f 150 161 162
f 152 163 153
f 153 163 165
f 153 165 166
f 153 166 164
f 154 167 156
f 155 158 168
f 155 168 173
f 155 173 159
f 156 167 169
f 156 169 170
f 156 170 171
f 156 171 157
f 157 171 172
f 157 172 168
f 157 168 158
f 159 173 174
f 159 174 160
f 160 175 161
f 160 174 175
f 161 175 162
f 164 166 177
f 164 177 176
f 167 170 169
f 168 172 171
f 168 171 178
f 168 178 179
f 168 179 180
f 168 180 173
f 170 178 171
f 173 180 174
f 174 181 182
f 174 182 183
f 174 183 184
f 174 184 185
f 174 185 175
f 174 180 186
f 174 186 187
f 174 187 188
f 174 188 181
f 176 177 190
f 176 190 191
f 176 191 189
f 180 192 193
f 180 193 186
f 181 188 194
f 181 194 182
f 182 195 184
f 182 184 183
f 182 194 196
f 182 196 195
f 184 195 197
f 186 193 198
f 186 198 187
f 187 198 199
f 187 199 194
f 187 194 188
f 189 191 201
f 189 201 200
f 191 202 201
f 192 203 193
f 193 203 198
f 194 199 211
f 194 211 204
f 194 204 205
f 194 205 196
f 195 206 197
f 195 196 206
f 196 205 207
f 196 207 206
f 197 206 207
f 197 207 208
f 198 203 209
f 198 209 210
f 198 210 199
f 199 210 211
f 200 212 213
f 200 201 202
f 200 202 212
f 202 214 215
f 202 215 212
f 203 216 210
f 203 210 209
f 204 217 205
f 204 211 217
f 205 217 218
f 205 218 232
f 205 232 219
f 205 219 207
f 207 220 208
f 207 219 220
f 208 220 221
f 210 216 222
f 210 222 223
f 210 223 224
f 210 224 211
f 211 224 225
f 211 225 217
f 212 215 214
f 212 214 227
f 212 227 236
f 212 236 226
f 212 226 213
f 216 228 222
f 217 229 231
f 217 231 218
f 217 225 230
f 217 230 244
f 217 244 229
f 218 231 246
f 218 246 232
f 219 232 233
f 219 233 221
f 219 221 220
f 221 233 234
f 221 234 235
f 222 228 225
f 222 225 223
f 223 225 224
f 225 228 230
f 226 236 250
f 226 250 237
f 227 238 239
f 227 239 236
f 228 240 244
f 228 244 230
f 229 241 242
f 229 242 243
f 229 243 231
f 229 244 245
f 229 245 241
f 231 243 246
f 232 246 247
f 232 247 233
f 233 247 248
f 233 248 234
f 234 248 249
f 234 249 235
f 236 239 255
f 236 255 250
f 237 250 251
f 238 252 253
f 238 253 239
f 239 253 254
f 239 254 255
f 240 256 245
f 240 245 244
f 241 257 260
f 241 260 242
f 241 245 258
f 241 258 259
f 241 259 257
f 242 260 243
f 243 247 246
f 243 260 261
f 243 261 262
f 243 262 263
f 243 263 247
f 245 256 264
f 245 264 265
f 245 265 258
f 247 263 248
f 248 263 266
f 248 266 249
f 250 255 267
f 250 267 251
f 252 268 269
f 252 269 253
f 253 269 270
f 253 270 254
f 254 270 267
f 254 267 255
f 256 271 264
f 257 272 260
f 257 259 273
f 257 273 272
f 258 265 259
f 259 265 264
f 259 264 271
f 259 271 274
f 259 274 275
f 259 275 276
f 259 276 273
f 260 272 277
f 260 277 261
f 261 277 278
f 261 278 279
f 261 279 262
f 262 279 280
f 262 280 281
f 262 281 282
f 262 282 266
f 262 266 263
f 267 270 283
f 267 283 284
f 268 285 286
f 268 286 287
f 268 287 269
f 269 287 298
f 269 298 288
f 269 288 283
f 269 283 270
f 272 273 289
f 272 289 290
f 272 290 291
f 272 291 277
f 273 276 292
f 273 292 293
f 273 293 289
f 275 292 276
f 277 291 290
f 277 290 294
f 277 294 295
f 277 295 278
f 278 295 296
f 278 296 297
f 278 297 280
f 278 280 279
f 280 297 281
f 283 288 284
f 284 288 298
f 284 298 299
f 284 299 300
f 285 301 286
f 286 301 302
f 286 302 298
f 286 298 287
f 289 293 303
f 289 303 304
f 289 304 290
f 290 304 305
f 290 305 306
f 290 306 307
f 290 307 308
f 290 308 309
f 290 309 310
f 290 310 311
f 290 311 312
f 290 312 295
f 290 295 294
f 292 313 293
f 293 313 303
f 295 312 296
f 298 302 314
f 298 314 299
f 299 314 315
f 299 315 316
f 299 316 300
f 301 317 318
f 301 318 319
f 301 319 302
f 302 319 320
f 302 320 314
f 303 321 304
f 304 321 305
f 305 321 322
f 305 322 323
f 305 323 325
f 305 325 306
f 306 324 307
f 306 325 324
f 307 324 326
f 307 326 327
f 307 327 328
f 307 328 308
f 308 328 309
f 309 311 310
f 309 328 329
f 309 329 330
f 314 320 331
f 314 331 332
f 314 332 315
f 315 333 316
f 315 332 333
f 317 334 335
f 317 335 320
f 317 320 318
f 318 320 319
f 320 335 331
f 322 336 337
f 322 337 323
f 323 337 325
f 324 338 339
f 324 339 340
f 324 340 326
f 324 325 341
f 324 341 342
f 324 342 343
f 324 343 338
f 325 337 341
f 326 340 327
f 327 340 344
f 327 344 329
f 327 329 328
f 329 344 330
f 330 344 340
f 330 340 345
f 331 335 346
f 331 346 347
f 331 347 332
f 332 347 333
f 334 348 349
f 334 349 335
f 335 349 350
f 335 350 351
f 335 351 352
f 335 352 346
f 336 353 337
f 337 353 343
f 337 343 342
f 337 342 341
f 338 354 339
f 338 343 355
f 338 355 354
f 339 356 357
f 339 357 358
f 339 358 359
f 339 359 360
f 339 360 340
f 339 354 361
f 339 361 356
f 340 360 362
f 340 362 363
f 340 363 364
f 340 364 345
f 343 353 355
f 345 364 365
f 346 352 366
f 346 366 347
f 348 367 349
f 349 367 368
f 349 368 369
f 349 369 350
f 350 369 370
f 350 370 371
f 350 371 372
f 350 372 373
f 350 373 351
f 351 373 374
f 351 374 375
f 351 375 366
f 351 366 352
f 353 376 355
f 354 355 376
f 354 376 361
f 356 377 378
f 356 378 357
f 356 361 377
f 357 378 379
f 357 379 358
f 358 379 360
f 358 360 359
f 360 379 380
f 360 380 381
f 360 381 382
f 360 382 383
f 360 383 384
f 360 384 385
f 360 385 362
f 361 386 387
f 361 387 377
f 362 385 388
f 362 388 363
f 363 365 364
f 363 388 365
f 366 375 389
f 367 390 391
f 367 391 368
f 368 391 370
f 368 370 369
f 370 391 392
f 370 392 393
f 370 393 394
f 370 394 395
f 370 395 396
f 370 396 371
f 371 396 397
f 371 397 398
f 371 398 372
f 372 398 373
f 373 398 374
f 374 398 375
f 375 398 389
f 377 387 399
f 377 399 378
f 378 399 400
f 378 400 379
f 379 400 380
f 380 401 394
f 380 394 381
f 380 400 401
f 381 394 402
f 381 402 403
f 381 403 382
f 382 403 404
f 382 404 405
f 382 405 383
f 383 405 384
f 384 405 385
f 386 406 387
f 387 406 399
f 390 407 392
f 390 392 391
f 392 407 408
f 392 408 393
f 393 408 402
f 393 402 394
f 394 401 409
f 394 409 410
f 394 410 411
f 394 411 395
f 395 397 396
f 395 411 397
f 397 411 412
f 397 412 398
f 399 413 414
f 399 414 400
f 399 406 413
f 400 414 415
f 400 415 401
f 401 415 409
f 409 415 416
f 409 416 410
f 410 416 411
f 411 416 417
f 411 417 412
f 414 417 416
f 414 416 415

