# https://github.com/mikedh/trimesh
v -0.00389152 0.02356236 0.00506875
v -0.00389152 0.02360742 0.00506776
v -0.00406252 0.02356236 0.00506875
v -0.00389152 0.00773527 0.00506875
v -0.00389152 0.02368629 0.00506577
v -0.00393755 0.02368629 0.00506577
v -0.00431255 0.02356236 0.00506776
v -0.00468745 0.02343655 0.00506875
v -0.00393755 0.00768833 0.00506875
v -0.00389152 0.00768833 0.00506776
v -0.00389152 0.02373323 0.00506280
v -0.00418758 0.02368629 0.00506379
v -0.00481242 0.02356236 0.00506379
v -0.00491367 0.02343655 0.00506776
v -0.00491367 0.02331075 0.00506875
v -0.00406252 0.00756252 0.00506875
v -0.00389152 0.00760946 0.00506379
v -0.00431255 0.02368629 0.00506280
v -0.00389152 0.02381209 0.00505486
v -0.00393755 0.02381209 0.00505486
v -0.00491367 0.02356236 0.00506180
v -0.00491367 0.02346097 0.00506676
v -0.00491367 0.00708746 0.00506875
v -0.00468745 0.00718886 0.00506776
v -0.00481242 0.00706305 0.00506379
v -0.00491367 0.00696166 0.00505883
v -0.00393755 0.00756252 0.00506081
v -0.00389152 0.00756064 0.00505188
v -0.00443742 0.02368629 0.00505982
v -0.00418758 0.02381209 0.00504990
v -0.00389152 0.02385716 0.00504791
v -0.00481242 0.02368629 0.00504890
v -0.00491367 0.02358489 0.00505883
v -0.00491367 0.00706305 0.00506776
v -0.00491367 0.00693725 0.00505188
v -0.00389152 0.00749305 0.00502906
v -0.00491367 0.00684900 0.00502211
v -0.00393755 0.02393602 0.00503104
v -0.00431255 0.02381209 0.00504593
v -0.00389152 0.02393602 0.00503203
v -0.00491367 0.02368629 0.00504493
v -0.00389152 0.00747239 0.00502013
v -0.00491367 0.00683585 0.00501516
v -0.00418758 0.02393602 0.00502112
v -0.00389152 0.02396982 0.00502310
v -0.00389152 0.02402427 0.00500822
v -0.00406252 0.02401301 0.00500524
v -0.00443742 0.02381209 0.00504096
v -0.00491367 0.02371445 0.00503898
v -0.00389152 0.00744047 0.00499631
v -0.00491367 0.00678140 0.00497547
v -0.00430184 0.02394353 0.00501318
v -0.00389152 0.02404680 0.00500028
v -0.00389152 0.02408624 0.00498440
v -0.00393755 0.02408248 0.00498341
v -0.00425302 0.02399986 0.00499929
v -0.00456248 0.02381209 0.00503402
v -0.00491367 0.02380458 0.00501616
v -0.00468745 0.02381209 0.00502707
v -0.00389152 0.00735597 0.00492288
v -0.00491367 0.00572989 0.00414887
v -0.00491367 0.00566605 0.00409430
v -0.00443742 0.02391537 0.00501318
v -0.00389152 0.02412191 0.00496753
v -0.00418758 0.02406746 0.00497448
v -0.00433636 0.02399048 0.00499631
v -0.00478120 0.02387969 0.00500226
v -0.00491367 0.02382336 0.00501020
v -0.00389152 0.00646595 0.00414590
v -0.00491367 0.00561911 0.00404865
v -0.00389152 0.00643027 0.00411414
v -0.00389152 0.02418575 0.00493479
v -0.00393755 0.02418575 0.00493181
v -0.00443742 0.02406183 0.00495364
v -0.00430184 0.02404868 0.00497249
v -0.00417658 0.02419514 0.00490502
v -0.00431255 0.02417073 0.00490601
v -0.00456248 0.02396419 0.00498639
v -0.00491367 0.02387594 0.00499234
v -0.00491367 0.02386655 0.00499631
v -0.00486455 0.02387218 0.00499829
v -0.00491367 0.00559845 0.00402781
v -0.00389152 0.00640962 0.00409330
v -0.00389152 0.02421768 0.00491692
v -0.00443742 0.02415947 0.00489906
v -0.00456248 0.02406183 0.00493975
v -0.00491367 0.02393414 0.00496555
v -0.00389152 0.02426650 0.00488716
v -0.00393755 0.02426274 0.00488517
v -0.00412765 0.02424960 0.00487525
v -0.00491367 0.00557404 0.00395934
v -0.00486675 0.00561911 0.00400896
v -0.00389152 0.00635516 0.00403376
v -0.00389152 0.00638145 0.00406254
v -0.00421100 0.02424209 0.00487029
v -0.00443742 0.02422143 0.00485242
v -0.00475939 0.02412567 0.00487624
v -0.00491367 0.02404868 0.00490402
v -0.00491367 0.02396043 0.00495166
v -0.00389152 0.02428903 0.00487029
v -0.00393755 0.02432658 0.00483555
v -0.00406252 0.02431719 0.00482861
v -0.00418758 0.02438479 0.00475815
v -0.00427333 0.02437728 0.00475319
v -0.00431405 0.02432283 0.00479189
v -0.00491367 0.00557216 0.00393652
v -0.00389152 0.00632700 0.00393652
v -0.00389152 0.00633451 0.00398117
v -0.00443742 0.02430029 0.00478991
v -0.00491367 0.02412003 0.00485540
v -0.00491367 0.02410877 0.00486334
v -0.00389152 0.02432846 0.00483853
v -0.00389152 0.02435662 0.00481571
v -0.00389152 0.02440545 0.00477602
v -0.00389152 0.02442798 0.00475518
v -0.00389152 0.02446741 0.00471747
v -0.00435667 0.02436977 0.00474625
v -0.00406252 0.02445614 0.00470258
v -0.00424631 0.02449933 0.00462419
v -0.00491367 0.00557029 0.00384820
v -0.00389152 0.00632700 -0.00393652
v -0.00488806 0.02425147 0.00475220
v -0.00491367 0.02419327 0.00479586
v -0.00389152 0.02452374 0.00465495
v -0.00443742 0.02441859 0.00467579
v -0.00443742 0.02436226 0.00473831
v -0.00431255 0.02453125 0.00455274
v -0.00431255 0.02449370 0.00461526
v -0.00389152 0.02454627 0.00462221
v -0.00389152 0.02458946 0.00455771
v -0.00389152 0.02462514 0.00450015
v -0.00491367 0.00557029 -0.00381248
v -0.00389152 0.00635516 -0.00403376
v -0.00491367 0.00557216 -0.00393652
v -0.00486675 0.00561911 -0.00400896
v -0.00491367 0.02424960 0.00474922
v -0.00456248 0.02440545 0.00466190
v -0.00456248 0.02434911 0.00472442
v -0.00418758 0.02460260 0.00445550
v -0.00431065 0.02459697 0.00442871
v -0.00443742 0.02451998 0.00453389
v -0.00396526 0.02461950 0.00448924
v -0.00443742 0.02448055 0.00459641
v -0.00491367 0.02436789 0.00461526
v -0.00389152 0.02465142 0.00444161
v -0.00392914 0.02464579 0.00444359
v -0.00406252 0.02464203 0.00441184
v -0.00426763 0.02462701 0.00438107
v -0.00389152 0.00640962 -0.00409330
v -0.00491367 0.00559845 -0.00402781
v -0.00491367 0.02427588 0.00472045
v -0.00491367 0.02431719 0.00467480
v -0.00491367 0.02430029 0.00469365
v -0.00443742 0.02456880 0.00443664
v -0.00435097 0.02461950 0.00436222
v -0.00456248 0.02450684 0.00451107
v -0.00491367 0.02440545 0.00455374
v -0.00491367 0.02437540 0.00460335
v -0.00389152 0.02470212 0.00431161
v -0.00393755 0.02469649 0.00431161
v -0.00431065 0.02464016 0.00431757
v -0.00418758 0.02466081 0.00431161
v -0.00389152 0.00646595 -0.00414590
v -0.00491367 0.00565854 -0.00408735
v -0.00488616 0.02450121 0.00438008
v -0.00491367 0.02448243 0.00440886
v -0.00467554 0.02451811 0.00443863
v -0.00462592 0.02449933 0.00450015
v -0.00443742 0.02463077 0.00427291
v -0.00443742 0.02461199 0.00433444
v -0.00491367 0.02449933 0.00437115
v -0.00491367 0.02441859 0.00453091
v -0.00389152 0.02473216 0.00418857
v -0.00393755 0.02472653 0.00418658
v -0.00431255 0.02467208 0.00418658
v -0.00418758 0.02469086 0.00418658
v -0.00389152 0.00737851 -0.00494273
v -0.00491367 0.00571862 -0.00413895
v -0.00491367 0.02447116 0.00443267
v -0.00450125 0.02462514 0.00425009
v -0.00491367 0.02451811 0.00431260
v -0.00389152 0.02474155 0.00413597
v -0.00443742 0.02464954 0.00418658
v -0.00431255 0.02468710 0.00406155
v -0.00389152 0.00740855 -0.00496853
v -0.00491367 0.00678140 -0.00497547
v -0.00389152 0.00747239 -0.00502013
v -0.00452887 0.02463077 0.00418658
v -0.00459140 0.02461762 0.00418658
v -0.00481242 0.02457068 0.00418658
v -0.00491367 0.02454815 0.00418658
v -0.00389152 0.02474531 0.00409430
v -0.00406252 0.02472465 0.00406155
v -0.00418758 0.02470588 0.00406155
v -0.00443742 0.02466457 0.00406155
v -0.00462052 0.02462326 0.00411017
v -0.00431255 0.02469273 0.00393652
v -0.00491367 0.00683585 -0.00501516
v -0.00393755 0.00745925 -0.00502608
v -0.00389152 0.00756064 -0.00505188
v -0.00491367 0.02455191 0.00416276
v -0.00389152 0.02475094 0.00402086
v -0.00443742 0.02466832 0.00393652
v -0.00463712 0.02462701 0.00393652
v -0.00463302 0.02462514 0.00402682
v -0.00457229 0.02463640 0.00406552
v -0.00467985 0.02461387 0.00406552
v -0.00481242 0.02458570 0.00406155
v -0.00491367 0.02456317 0.00406155
v -0.00431255 0.02469273 -0.00393652
v -0.00389152 0.02475282 0.00393652
v -0.00491367 0.00693725 -0.00505188
v -0.00393755 0.00756252 -0.00506081
v -0.00389152 0.00768833 -0.00506776
v -0.00443742 0.02466832 -0.00393652
v -0.00463712 0.02462701 -0.00393652
v -0.00469956 0.02461387 0.00393652
v -0.00491367 0.02456505 0.00403773
v -0.00418758 0.02470588 -0.00406155
v -0.00431255 0.02468710 -0.00406155
v -0.00443742 0.02466457 -0.00406155
v -0.00389152 0.02475282 -0.00393652
v -0.00406252 0.02472465 -0.00406155
v -0.00491367 0.00706305 -0.00506776
v -0.00481242 0.00706305 -0.00506379
v -0.00406252 0.00756252 -0.00506875
v -0.00393755 0.00768833 -0.00506875
v -0.00389152 0.00781413 -0.00506875
v -0.00463302 0.02462514 -0.00402682
v -0.00469956 0.02461387 -0.00393652
v -0.00481242 0.02458946 0.00393652
v -0.00491367 0.02456693 0.00393652
v -0.00418758 0.02469086 -0.00418658
v -0.00431255 0.02467208 -0.00418658
v -0.00443742 0.02464954 -0.00418658
v -0.00462052 0.02462326 -0.00411017
v -0.00457229 0.02463640 -0.00406552
v -0.00389152 0.02474906 -0.00403079
v -0.00389152 0.02474531 -0.00409430
v -0.00468745 0.00718886 -0.00506776
v -0.00491367 0.00718886 -0.00506875
v -0.00481242 0.00718886 -0.00506875
v -0.00456248 0.00731279 -0.00506875
v -0.00389152 0.02356236 -0.00506875
v -0.00467985 0.02461387 -0.00406552
v -0.00481242 0.02458570 -0.00406155
v -0.00491367 0.02456693 -0.00396133
v -0.00481242 0.02458946 -0.00393652
v -0.00418758 0.02466081 -0.00431161
v -0.00393755 0.02472653 -0.00418658
v -0.00431065 0.02464016 -0.00431757
v -0.00443742 0.02463077 -0.00427291
v -0.00450125 0.02462514 -0.00425009
v -0.00452887 0.02463077 -0.00418658
v -0.00459140 0.02461762 -0.00418658
v -0.00481242 0.02457068 -0.00418658
v -0.00491367 0.02456129 -0.00408536
v -0.00389152 0.02473216 -0.00418857
v -0.00491367 0.02331075 -0.00506875
v -0.00406252 0.02356236 -0.00506875
v -0.00389152 0.02368629 -0.00506577
v -0.00491367 0.02456317 -0.00406155
v -0.00393755 0.02469649 -0.00431161
v -0.00426763 0.02462701 -0.00438107
v -0.00435097 0.02461950 -0.00436222
v -0.00443742 0.02461199 -0.00433444
v -0.00491367 0.02451811 -0.00431261
v -0.00491367 0.02454252 -0.00421040
v -0.00491367 0.02454815 -0.00418658
v -0.00389152 0.02470212 -0.00431161
v -0.00491367 0.02343655 -0.00506776
v -0.00468745 0.02343655 -0.00506875
v -0.00431255 0.02356236 -0.00506776
v -0.00393755 0.02368629 -0.00506577
v -0.00389152 0.02381209 -0.00505486
v -0.00389152 0.02468522 -0.00435825
v -0.00406252 0.02464203 -0.00441382
v -0.00406252 0.02461387 -0.00447634
v -0.00418758 0.02460448 -0.00445649
v -0.00431065 0.02459885 -0.00442871
v -0.00443742 0.02457068 -0.00443664
v -0.00488616 0.02450121 -0.00437909
v -0.00491367 0.02450872 -0.00433940
v -0.00491367 0.02356236 -0.00506180
v -0.00481242 0.02356236 -0.00506379
v -0.00418758 0.02368629 -0.00506379
v -0.00389152 0.02393602 -0.00503104
v -0.00431255 0.02368629 -0.00506280
v -0.00406252 0.02381209 -0.00505188
v -0.00389152 0.02465330 -0.00444161
v -0.00419779 0.02453688 -0.00457358
v -0.00431255 0.02453125 -0.00455275
v -0.00389152 0.02462889 -0.00449519
v -0.00443742 0.02451998 -0.00453389
v -0.00456248 0.02450684 -0.00451206
v -0.00462652 0.02449933 -0.00450015
v -0.00491367 0.02446929 -0.00443268
v -0.00491367 0.02448055 -0.00440886
v -0.00491367 0.02368629 -0.00504493
v -0.00481242 0.02368629 -0.00504890
v -0.00443742 0.02368629 -0.00505982
v -0.00389152 0.02402052 -0.00500723
v -0.00418758 0.02381209 -0.00504890
v -0.00431255 0.02381209 -0.00504593
v -0.00406252 0.02393602 -0.00502410
v -0.00424631 0.02449933 -0.00462419
v -0.00389152 0.02462138 -0.00450809
v -0.00431255 0.02449370 -0.00461526
v -0.00443742 0.02448055 -0.00459641
v -0.00491367 0.02436789 -0.00461427
v -0.00491367 0.02440545 -0.00455275
v -0.00491367 0.02445990 -0.00445153
v -0.00491367 0.02380083 -0.00501616
v -0.00468745 0.02381209 -0.00502608
v -0.00456248 0.02381209 -0.00503303
v -0.00443742 0.02381209 -0.00503997
v -0.00393755 0.02401676 -0.00500623
v -0.00406252 0.02400737 -0.00500326
v -0.00389152 0.02405995 -0.00499234
v -0.00431255 0.02392476 -0.00501616
v -0.00393755 0.02451998 -0.00465098
v -0.00406252 0.02445802 -0.00470259
v -0.00427993 0.02437916 -0.00475518
v -0.00431795 0.02442234 -0.00469862
v -0.00443742 0.02441859 -0.00467679
v -0.00389152 0.02458946 -0.00455870
v -0.00456248 0.02440545 -0.00466190
v -0.00478450 0.02438103 -0.00463312
v -0.00486785 0.02437165 -0.00462221
v -0.00491367 0.02430217 -0.00469365
v -0.00491367 0.02386279 -0.00499532
v -0.00476900 0.02387781 -0.00500127
v -0.00468745 0.02388720 -0.00500425
v -0.00456248 0.02389847 -0.00500921
v -0.00443742 0.02391161 -0.00501318
v -0.00422600 0.02399423 -0.00499830
v -0.00418558 0.02405056 -0.00497845
v -0.00389152 0.02408248 -0.00498341
v -0.00389152 0.02452374 -0.00465396
v -0.00389152 0.02450309 -0.00467778
v -0.00389152 0.02446929 -0.00471648
v -0.00418758 0.02438667 -0.00476113
v -0.00431795 0.02432283 -0.00479686
v -0.00443742 0.02430217 -0.00479487
v -0.00436328 0.02437165 -0.00474724
v -0.00423311 0.02424584 -0.00487326
v -0.00443742 0.02436414 -0.00473930
v -0.00456248 0.02435099 -0.00472442
v -0.00491367 0.02428903 -0.00470854
v -0.00491367 0.02393414 -0.00496456
v -0.00481142 0.02392663 -0.00497746
v -0.00468745 0.02394917 -0.00497944
v -0.00456248 0.02396231 -0.00498540
v -0.00431255 0.02398672 -0.00499532
v -0.00431255 0.02406183 -0.00496456
v -0.00389152 0.02418575 -0.00493380
v -0.00393755 0.02418575 -0.00493082
v -0.00389152 0.02440732 -0.00477999
v -0.00406252 0.02432095 -0.00483159
v -0.00431255 0.02423833 -0.00486731
v -0.00443742 0.02422519 -0.00485739
v -0.00485374 0.02412003 -0.00487128
v -0.00491367 0.02419327 -0.00480082
v -0.00491367 0.02422706 -0.00477205
v -0.00489406 0.02425335 -0.00475319
v -0.00414976 0.02425147 -0.00487723
v -0.00418988 0.02419702 -0.00490502
v -0.00431255 0.02417637 -0.00490601
v -0.00443742 0.02416322 -0.00489906
v -0.00456248 0.02415008 -0.00489113
v -0.00468745 0.02413694 -0.00488319
v -0.00389152 0.02433222 -0.00484250
v -0.00389152 0.02430968 -0.00485937
v -0.00491367 0.02427213 -0.00472739
v -0.00491367 0.02405244 -0.00490403
v -0.00468745 0.02406183 -0.00492586
v -0.00406252 0.02418575 -0.00492189
v -0.00389152 0.02427025 -0.00488815
v -0.00491367 0.02410314 -0.00487227
v -0.00491367 0.02411252 -0.00486632
f 1 2 3
f 1 3 8
f 1 8 15
f 1 15 23
f 1 23 16
f 1 16 9
f 1 9 4
f 1 4 10
f 1 10 17
f 1 17 28
f 1 28 36
f 1 36 42
f 1 42 50
f 1 50 60
f 1 60 69
f 1 69 71
f 1 71 83
f 1 83 94
f 1 94 93
f 1 93 108
f 1 108 107
f 1 107 121
f 1 121 133
f 1 133 149
f 1 149 163
f 1 163 177
f 1 177 185
f 1 185 187
f 1 187 200
f 1 200 214
f 1 214 228
f 1 228 244
f 1 244 261
f 1 261 275
f 1 275 287
f 1 287 302
f 1 302 319
f 1 319 338
f 1 338 356
f 1 356 378
f 1 378 373
f 1 373 372
f 1 372 358
f 1 358 341
f 1 341 340
f 1 340 339
f 1 339 326
f 1 326 307
f 1 307 293
f 1 293 290
f 1 290 276
f 1 276 270
f 1 270 258
f 1 258 239
f 1 239 238
f 1 238 222
f 1 222 211
f 1 211 202
f 1 202 192
f 1 192 182
f 1 182 173
f 1 173 159
f 1 159 145
f 1 145 131
f 1 131 130
f 1 130 129
f 1 129 124
f 1 124 116
f 1 116 115
f 1 115 114
f 1 114 113
f 1 113 112
f 1 112 100
f 1 100 88
f 1 88 84
f 1 84 72
f 1 72 64
f 1 64 54
f 1 54 53
f 1 53 46
f 1 46 45
f 1 45 40
f 1 40 31
f 1 31 19
f 1 19 11
f 1 11 5
f 1 5 2
f 2 5 6
f 2 6 3
f 3 6 7
f 3 7 8
f 4 9 10
f 5 11 6
f 6 11 12
f 6 12 7
f 7 13 14
f 7 14 8
f 7 12 18
f 7 18 13
f 8 14 15
f 9 16 10
f 10 16 17
f 11 18 12
f 11 19 20
f 11 20 18
f 13 21 22
f 13 22 14
f 13 18 21
f 14 22 21
f 14 21 33
f 14 33 41
f 14 41 49
f 14 49 58
f 14 58 68
f 14 68 80
f 14 80 79
f 14 79 87
f 14 87 99
f 14 99 98
f 14 98 111
f 14 111 110
f 14 110 123
f 14 123 136
f 14 136 151
f 14 151 153
f 14 153 152
f 14 152 144
f 14 144 158
f 14 158 157
f 14 157 172
f 14 172 179
f 14 179 166
f 14 166 171
f 14 171 181
f 14 181 191
f 14 191 201
f 14 201 209
f 14 209 218
f 14 218 232
f 14 232 247
f 14 247 262
f 14 262 257
f 14 257 269
f 14 269 268
f 14 268 267
f 14 267 283
f 14 283 298
f 14 298 297
f 14 297 312
f 14 312 311
f 14 311 310
f 14 310 330
f 14 330 349
f 14 349 374
f 14 374 364
f 14 364 363
f 14 363 380
f 14 380 379
f 14 379 375
f 14 375 350
f 14 350 331
f 14 331 313
f 14 313 299
f 14 299 284
f 14 284 271
f 14 271 259
f 14 259 241
f 14 241 224
f 14 224 212
f 14 212 198
f 14 198 186
f 14 186 178
f 14 178 164
f 14 164 150
f 14 150 134
f 14 134 132
f 14 132 120
f 14 120 106
f 14 106 91
f 14 91 82
f 14 82 70
f 14 70 62
f 14 62 61
f 14 61 51
f 14 51 43
f 14 43 37
f 14 37 35
f 14 35 26
f 14 26 34
f 14 34 23
f 14 23 15
f 16 23 24
f 16 24 25
f 16 25 17
f 17 25 26
f 17 26 27
f 17 27 28
f 18 29 21
f 18 20 30
f 18 30 29
f 19 31 20
f 20 31 30
f 21 29 32
f 21 32 33
f 23 34 24
f 24 34 25
f 25 34 26
f 26 35 27
f 27 35 28
f 28 35 37
f 28 37 36
f 29 30 32
f 30 31 38
f 30 38 39
f 30 39 32
f 31 40 38
f 32 41 33
f 32 39 41
f 36 37 42
f 37 43 42
f 38 44 39
f 38 40 45
f 38 45 46
f 38 46 47
f 38 47 44
f 39 48 41
f 39 44 48
f 41 48 49
f 42 43 51
f 42 51 50
f 44 47 52
f 44 52 48
f 46 53 47
f 47 53 54
f 47 54 55
f 47 55 56
f 47 56 52
f 48 57 49
f 48 52 57
f 49 57 59
f 49 59 58
f 50 51 61
f 50 61 62
f 50 62 60
f 52 63 59
f 52 59 57
f 52 56 63
f 54 64 55
f 55 64 65
f 55 65 56
f 56 65 66
f 56 66 67
f 56 67 63
f 58 59 63
f 58 63 67
f 58 67 68
f 60 62 69
f 62 70 71
f 62 71 69
f 64 72 73
f 64 73 65
f 65 74 75
f 65 75 66
f 65 73 76
f 65 76 77
f 65 77 74
f 66 75 74
f 66 74 78
f 66 78 79
f 66 79 80
f 66 80 81
f 66 81 67
f 67 81 68
f 68 81 80
f 70 82 83
f 70 83 71
f 72 84 73
f 73 84 76
f 74 77 85
f 74 85 86
f 74 86 87
f 74 87 78
f 76 84 88
f 76 88 89
f 76 89 90
f 76 90 77
f 77 90 85
f 78 87 79
f 82 91 92
f 82 92 93
f 82 93 94
f 82 94 83
f 85 90 95
f 85 95 96
f 85 96 97
f 85 97 98
f 85 98 86
f 86 98 99
f 86 99 87
f 88 100 90
f 88 90 89
f 90 100 101
f 90 101 102
f 90 102 103
f 90 103 104
f 90 104 105
f 90 105 95
f 91 106 107
f 91 107 108
f 91 108 92
f 92 108 93
f 95 105 96
f 96 105 109
f 96 109 97
f 97 109 110
f 97 110 111
f 97 111 98
f 100 112 101
f 101 112 113
f 101 113 114
f 101 114 102
f 102 114 103
f 103 114 115
f 103 115 116
f 103 116 104
f 104 117 105
f 104 116 118
f 104 118 119
f 104 119 117
f 105 117 109
f 106 120 107
f 107 120 132
f 107 132 121
f 109 117 122
f 109 122 123
f 109 123 110
f 116 124 118
f 117 125 126
f 117 126 122
f 117 119 125
f 118 124 119
f 119 127 128
f 119 128 125
f 119 124 129
f 119 129 130
f 119 130 131
f 119 131 127
f 121 132 134
f 121 134 135
f 121 135 133
f 122 136 123
f 122 126 136
f 125 137 138
f 125 138 126
f 125 128 137
f 126 138 136
f 127 139 140
f 127 140 141
f 127 141 128
f 127 131 142
f 127 142 139
f 128 141 143
f 128 143 144
f 128 144 137
f 131 145 146
f 131 146 147
f 131 147 148
f 131 148 142
f 133 135 150
f 133 150 149
f 134 150 135
f 136 138 151
f 137 144 152
f 137 152 153
f 137 153 138
f 138 153 151
f 139 142 148
f 139 148 140
f 140 154 141
f 140 148 155
f 140 155 154
f 141 156 157
f 141 157 158
f 141 158 144
f 141 144 143
f 141 154 156
f 145 159 160
f 145 160 147
f 145 147 146
f 147 160 148
f 148 161 155
f 148 160 162
f 148 162 161
f 149 150 164
f 149 164 163
f 154 165 166
f 154 166 179
f 154 179 167
f 154 167 168
f 154 168 156
f 154 155 165
f 155 161 169
f 155 169 170
f 155 170 171
f 155 171 165
f 156 168 157
f 157 168 172
f 159 173 160
f 160 173 174
f 160 174 176
f 160 176 162
f 161 162 175
f 161 175 169
f 162 176 175
f 163 164 177
f 164 178 185
f 164 185 177
f 165 171 166
f 167 179 168
f 168 179 172
f 169 180 170
f 169 175 180
f 170 181 171
f 170 180 181
f 173 182 174
f 174 182 176
f 175 183 180
f 175 176 182
f 175 182 184
f 175 184 195
f 175 195 183
f 178 186 187
f 178 187 185
f 180 183 188
f 180 188 189
f 180 189 190
f 180 190 191
f 180 191 181
f 182 192 193
f 182 193 194
f 182 194 184
f 183 195 196
f 183 196 188
f 184 194 197
f 184 197 195
f 186 198 187
f 187 199 200
f 187 198 199
f 188 196 189
f 189 196 190
f 190 201 191
f 190 196 201
f 192 202 193
f 193 202 197
f 193 197 194
f 195 197 203
f 195 203 204
f 195 204 205
f 195 205 206
f 195 206 196
f 196 207 208
f 196 208 209
f 196 209 201
f 196 206 207
f 197 210 215
f 197 215 203
f 197 202 211
f 197 211 222
f 197 222 210
f 198 212 199
f 199 212 200
f 200 212 213
f 200 213 214
f 203 215 216
f 203 216 204
f 204 216 230
f 204 230 217
f 204 217 205
f 205 217 218
f 205 218 207
f 205 207 206
f 207 218 208
f 208 218 209
f 210 219 220
f 210 220 221
f 210 221 215
f 210 222 223
f 210 223 219
f 212 224 225
f 212 225 213
f 213 226 214
f 213 225 226
f 214 226 227
f 214 227 228
f 215 221 216
f 216 221 229
f 216 229 230
f 217 230 248
f 217 248 231
f 217 231 218
f 218 231 232
f 219 233 234
f 219 234 220
f 219 223 233
f 220 234 235
f 220 235 221
f 221 235 236
f 221 236 237
f 221 237 229
f 222 238 223
f 223 238 239
f 223 239 233
f 224 240 225
f 224 241 242
f 224 242 243
f 224 243 226
f 224 226 240
f 225 240 226
f 226 243 242
f 226 242 241
f 226 241 259
f 226 259 272
f 226 272 260
f 226 260 244
f 226 244 228
f 226 228 227
f 229 237 245
f 229 245 246
f 229 246 230
f 230 246 247
f 230 247 248
f 231 248 247
f 231 247 232
f 233 249 234
f 233 239 250
f 233 250 263
f 233 263 249
f 234 249 251
f 234 251 252
f 234 252 253
f 234 253 235
f 235 253 254
f 235 254 236
f 236 254 255
f 236 255 256
f 236 256 257
f 236 257 246
f 236 246 245
f 236 245 237
f 239 258 250
f 244 260 274
f 244 274 261
f 246 257 262
f 246 262 247
f 249 263 264
f 249 264 251
f 250 258 263
f 251 264 265
f 251 265 252
f 252 265 266
f 252 266 253
f 253 255 254
f 253 266 267
f 253 267 268
f 253 268 269
f 253 269 256
f 253 256 255
f 256 269 257
f 258 270 263
f 259 271 272
f 260 273 274
f 260 272 273
f 261 274 275
f 263 270 276
f 263 276 277
f 263 277 264
f 264 277 278
f 264 278 279
f 264 279 280
f 264 280 265
f 265 280 281
f 265 281 282
f 265 282 266
f 266 282 267
f 267 282 283
f 271 273 272
f 271 284 285
f 271 285 273
f 273 285 288
f 273 288 286
f 273 286 274
f 274 286 275
f 275 286 288
f 275 288 289
f 275 289 287
f 276 290 277
f 277 290 278
f 278 291 292
f 278 292 279
f 278 290 293
f 278 293 291
f 279 292 280
f 280 292 294
f 280 294 281
f 281 294 295
f 281 295 296
f 281 296 282
f 282 296 297
f 282 297 298
f 282 298 283
f 284 299 300
f 284 300 301
f 284 301 288
f 284 288 285
f 287 289 303
f 287 303 304
f 287 304 305
f 287 305 302
f 288 301 304
f 288 304 303
f 288 303 289
f 291 306 292
f 291 293 307
f 291 307 306
f 292 306 308
f 292 308 294
f 294 308 309
f 294 309 310
f 294 310 295
f 295 310 311
f 295 311 296
f 296 311 312
f 296 312 297
f 299 313 314
f 299 314 315
f 299 315 316
f 299 316 304
f 299 304 300
f 300 304 301
f 302 317 318
f 302 318 319
f 302 305 320
f 302 320 317
f 304 316 320
f 304 320 305
f 306 321 322
f 306 322 323
f 306 323 324
f 306 324 325
f 306 325 308
f 306 307 326
f 306 326 321
f 308 325 327
f 308 327 328
f 308 328 329
f 308 329 310
f 308 310 309
f 310 329 330
f 313 331 332
f 313 332 333
f 313 333 334
f 313 334 335
f 313 335 314
f 314 335 315
f 315 335 316
f 316 335 320
f 317 320 318
f 318 336 337
f 318 337 338
f 318 338 319
f 318 320 336
f 320 335 336
f 321 339 340
f 321 340 322
f 321 326 339
f 322 341 342
f 322 342 323
f 322 340 341
f 323 343 344
f 323 344 345
f 323 345 324
f 323 342 346
f 323 346 343
f 324 345 325
f 325 345 347
f 325 347 348
f 325 348 327
f 327 348 330
f 327 330 328
f 328 330 329
f 330 348 349
f 331 350 351
f 331 351 352
f 331 352 353
f 331 353 332
f 332 353 333
f 333 353 354
f 333 354 334
f 334 354 335
f 335 354 336
f 336 354 337
f 337 355 338
f 337 354 355
f 338 355 357
f 338 357 356
f 341 358 342
f 342 358 359
f 342 359 346
f 343 346 360
f 343 360 344
f 344 360 361
f 344 361 362
f 344 362 363
f 344 363 364
f 344 364 365
f 344 365 345
f 345 365 347
f 346 366 367
f 346 367 368
f 346 368 369
f 346 369 370
f 346 370 371
f 346 371 360
f 346 359 372
f 346 372 373
f 346 373 366
f 347 365 348
f 348 365 349
f 349 365 374
f 350 352 351
f 350 375 376
f 350 376 355
f 350 355 352
f 352 355 353
f 353 355 354
f 355 376 368
f 355 368 377
f 355 377 357
f 356 357 378
f 357 377 378
f 358 372 359
f 360 371 362
f 360 362 361
f 362 371 375
f 362 375 379
f 362 379 380
f 362 380 363
f 364 374 365
f 366 373 378
f 366 378 367
f 367 378 377
f 367 377 368
f 368 376 369
f 369 376 375
f 369 375 370
f 370 375 371

