# https://github.com/mikedh/trimesh
v -0.00156253 -0.00843843 0.00506875
v -0.00194099 -0.00831413 0.00506379
v -0.00194099 -0.00843843 0.00506875
v 0.00000388 -0.00856447 0.00506875
v -0.00193738 -0.00821260 0.00502906
v -0.00194099 -0.00821260 0.00502906
v 0.00000388 -0.00845068 0.00503402
v -0.00194099 -0.02381058 0.00506875
v 0.00000388 -0.02381058 0.00506875
v 0.00000388 -0.00838766 0.00498837
v -0.00194099 -0.00815133 0.00497646
v -0.00194099 -0.02393663 0.00506478
v -0.00143745 -0.02393663 0.00506676
v -0.00106241 -0.02393663 0.00506776
v 0.00000388 -0.02393663 0.00506776
v 0.00000388 -0.00751235 0.00411315
v -0.00194099 -0.00726376 0.00411712
v -0.00194099 -0.00732329 0.00417567
v -0.00194099 -0.02406092 0.00505287
v -0.00181249 -0.02406092 0.00505486
v -0.00106241 -0.02406092 0.00506180
v -0.00093752 -0.02406092 0.00506280
v 0.00000388 -0.02399440 0.00506577
v 0.00000388 -0.00746684 0.00405063
v -0.00194099 -0.00721300 0.00405559
v -0.00194099 -0.02418697 0.00502707
v -0.00193738 -0.02418522 0.00502806
v -0.00156253 -0.02418522 0.00503501
v -0.00132170 -0.02418522 0.00503898
v -0.00093752 -0.02418522 0.00504493
v -0.00081264 -0.02418522 0.00504593
v 0.00000388 -0.02412044 0.00505486
v 0.00000388 -0.02406092 0.00506280
v 0.00000388 -0.00744583 0.00399010
v -0.00193738 -0.00717098 0.00393652
v -0.00193738 -0.00721125 0.00405163
v -0.00194099 -0.00721125 0.00405163
v -0.00194099 -0.02426224 0.00500425
v -0.00193738 -0.02426224 0.00500524
v -0.00118730 -0.02429025 0.00501417
v -0.00093752 -0.02429725 0.00501616
v -0.00081264 -0.02430076 0.00501616
v 0.00000388 -0.02423949 0.00503203
v 0.00000388 -0.02418522 0.00504593
v 0.00000388 -0.00742832 0.00393652
v -0.00194099 -0.00716923 0.00381248
v -0.00194099 -0.00717098 0.00393652
v -0.00194099 -0.02432701 0.00497845
v -0.00181249 -0.02432877 0.00498242
v -0.00132170 -0.02434802 0.00499036
v -0.00093752 -0.02436028 0.00499532
v -0.00081264 -0.02436378 0.00499631
v 0.00000388 -0.02430076 0.00501616
v 0.00000388 -0.02433052 0.00500723
v 0.00000388 -0.00742832 -0.00393652
v -0.00194099 -0.00716923 -0.00381248
v -0.00194099 -0.02443730 0.00492288
v -0.00156253 -0.02443555 0.00493876
v -0.00131218 -0.02443555 0.00494769
v -0.00093752 -0.02443555 0.00496059
v 0.00000388 -0.02436378 0.00499631
v -0.00081264 -0.02443555 0.00496257
v -0.00043760 -0.02443555 0.00496356
v 0.00000388 -0.00746684 -0.00405063
v -0.00193738 -0.00717098 -0.00393652
v -0.00194099 -0.00717098 -0.00393652
v -0.00194099 -0.02450908 0.00487922
v -0.00193738 -0.02450733 0.00488120
v -0.00118730 -0.02453359 0.00489708
v -0.00132170 -0.02444256 0.00494372
v -0.00093752 -0.02454059 0.00490204
v -0.00081264 -0.02454409 0.00490402
v 0.00000388 -0.02443555 0.00496356
v -0.00031271 -0.02454584 0.00490402
v 0.00000388 -0.00748959 -0.00408338
v -0.00193738 -0.00721125 -0.00405163
v -0.00194099 -0.00720950 -0.00404766
v -0.00194099 -0.02457210 0.00483059
v -0.00193738 -0.02457035 0.00483258
v -0.00156253 -0.02458261 0.00484449
v -0.00132170 -0.02459136 0.00485143
v -0.00106241 -0.02460011 0.00485838
v -0.00132170 -0.02453359 0.00489112
v -0.00093752 -0.02460361 0.00486136
v -0.00081264 -0.02460711 0.00486235
v -0.00068756 -0.02460711 0.00486334
v -0.00006275 -0.02454584 0.00490402
v 0.00000388 -0.02448632 0.00493578
v -0.00018764 -0.02460886 0.00486334
v 0.00000388 -0.00751235 -0.00411315
v -0.00194099 -0.00726026 -0.00411513
v -0.00194099 -0.00721125 -0.00405163
v -0.00194099 -0.02464563 0.00476808
v -0.00193738 -0.02464388 0.00477006
v -0.00181249 -0.02464913 0.00477403
v -0.00156253 -0.02465788 0.00478197
v -0.00143745 -0.02466138 0.00478594
v -0.00093752 -0.02467889 0.00479884
v -0.00081264 -0.02468064 0.00479983
v -0.00056267 -0.02468239 0.00480082
v 0.00000388 -0.02454409 0.00490402
v 0.00000388 -0.02460711 0.00486334
v 0.00000388 -0.02457385 0.00488517
v 0.00000388 -0.02468239 0.00480082
v 0.00000388 -0.00838766 -0.00498837
v -0.00194099 -0.00815133 -0.00497646
v -0.00194099 -0.02470865 0.00470060
v -0.00181249 -0.02471215 0.00470854
v -0.00156253 -0.02472090 0.00471846
v -0.00093752 -0.02474191 0.00474228
v -0.00081264 -0.02474366 0.00474525
v -0.00043760 -0.02474541 0.00474625
v 0.00000388 -0.02474541 0.00474625
v 0.00000388 -0.00845068 -0.00503402
v -0.00193738 -0.00821260 -0.00502906
v -0.00194099 -0.00821260 -0.00502906
v -0.00194099 -0.02476117 0.00463808
v -0.00193738 -0.02476117 0.00464007
v -0.00168741 -0.02476992 0.00465098
v -0.00143745 -0.02477868 0.00466091
v -0.00093752 -0.02479618 0.00467976
v -0.00081264 -0.02479793 0.00468274
v -0.00068756 -0.02479968 0.00468274
v -0.00056267 -0.02474541 0.00474525
v -0.00056267 -0.02479968 0.00468274
v 0.00000388 -0.02479793 0.00468373
v 0.00000388 -0.00856447 -0.00506875
v -0.00194099 -0.00831063 -0.00506280
v -0.00194099 -0.02481369 0.00455969
v -0.00193738 -0.02481369 0.00456168
v -0.00132170 -0.02484520 0.00458053
v -0.00093752 -0.02485745 0.00460236
v -0.00081264 -0.02485920 0.00460633
v -0.00068756 -0.02486095 0.00460633
v 0.00000388 -0.02485920 0.00460633
v 0.00000388 -0.02381058 -0.00506875
v -0.00156253 -0.00843843 -0.00506875
v -0.00194099 -0.00831413 -0.00506379
v -0.00194099 -0.02486446 0.00447435
v -0.00171368 -0.02487146 0.00449420
v -0.00156253 -0.02487671 0.00450412
v -0.00106241 -0.02489246 0.00453290
v -0.00093752 -0.02489597 0.00453985
v -0.00081264 -0.02489947 0.00454381
v 0.00000388 -0.02489947 0.00454381
v 0.00000388 -0.02487846 0.00457656
v -0.00194099 -0.02381058 -0.00506875
v 0.00000388 -0.02393663 -0.00506776
v -0.00194099 -0.00843843 -0.00506875
v -0.00194099 -0.02489071 0.00441382
v -0.00156253 -0.02490647 0.00443664
v -0.00106241 -0.02493973 0.00443664
v -0.00132170 -0.02488721 0.00451206
v -0.00093752 -0.02494673 0.00443664
v -0.00081264 -0.02495198 0.00443664
v 0.00000388 -0.02495198 0.00443664
v -0.00093752 -0.02393663 -0.00506776
v -0.00194099 -0.02393663 -0.00506379
v 0.00000388 -0.02406092 -0.00506081
v -0.00194099 -0.02492748 0.00431161
v -0.00156253 -0.02495374 0.00431161
v -0.00093752 -0.02498700 0.00433940
v -0.00081264 -0.02498875 0.00434535
v 0.00000388 -0.02496949 0.00439397
v -0.00081264 -0.02406092 -0.00506081
v -0.00143745 -0.02406092 -0.00505684
v -0.00194099 -0.02406092 -0.00505287
v 0.00000388 -0.02418522 -0.00504394
v -0.00194099 -0.02495724 0.00418360
v -0.00123146 -0.02499750 0.00424215
v -0.00114827 -0.02500100 0.00425406
v -0.00093752 -0.02500800 0.00427688
v 0.00000388 -0.02498875 0.00434535
v -0.00081264 -0.02500976 0.00428284
v 0.00000388 -0.02499925 0.00431657
v -0.00081264 -0.02418522 -0.00504394
v -0.00106241 -0.02418522 -0.00504196
v -0.00132170 -0.02418522 -0.00503799
v -0.00194099 -0.02418522 -0.00502807
v 0.00000388 -0.02424649 -0.00503005
v -0.00194099 -0.02497124 0.00406155
v -0.00149494 -0.02499925 0.00412010
v -0.00181249 -0.02496599 0.00418658
v -0.00132170 -0.02499575 0.00421734
v -0.00093752 -0.02502726 0.00418658
v -0.00081264 -0.02503251 0.00418658
v 0.00000388 -0.02500976 0.00428284
v -0.00081264 -0.02430076 -0.00501715
v -0.00118730 -0.02429025 -0.00501417
v -0.00168741 -0.02427100 -0.00500822
v -0.00193738 -0.02426049 -0.00500524
v -0.00194099 -0.02425874 -0.00500524
v 0.00000388 -0.02430076 -0.00501715
v -0.00194099 -0.02497824 0.00393652
v -0.00163011 -0.02499925 0.00400300
v -0.00144697 -0.02499225 0.00418460
v -0.00132170 -0.02501676 0.00406254
v -0.00093752 -0.02504302 0.00406155
v 0.00000388 -0.02503251 0.00418658
v -0.00081264 -0.02504827 0.00406155
v 0.00000388 -0.02433402 -0.00500623
v -0.00081264 -0.02436378 -0.00499631
v -0.00093752 -0.02436028 -0.00499532
v -0.00118730 -0.02435328 -0.00499135
v -0.00143745 -0.02434277 -0.00498837
v -0.00156253 -0.02433752 -0.00498639
v -0.00181249 -0.02432877 -0.00498143
v -0.00194099 -0.02432176 -0.00497944
v -0.00194099 -0.02497824 -0.00394049
v -0.00169503 -0.02499575 0.00393652
v -0.00132170 -0.02502201 0.00393652
v -0.00093752 -0.02504827 0.00393652
v 0.00000388 -0.02504827 0.00406155
v -0.00081264 -0.02505177 0.00393652
v -0.00068756 -0.02505352 0.00393652
v 0.00000388 -0.02436378 -0.00499631
v -0.00068756 -0.02443555 -0.00496356
v -0.00081264 -0.02443555 -0.00496257
v -0.00093752 -0.02443555 -0.00496059
v -0.00106241 -0.02443555 -0.00495662
v -0.00143745 -0.02443555 -0.00494372
v -0.00181249 -0.02443555 -0.00492883
v -0.00194099 -0.02443205 -0.00492486
v -0.00194099 -0.02497299 -0.00406155
v -0.00163011 -0.02499925 -0.00400400
v -0.00169503 -0.02499575 -0.00393652
v -0.00132170 -0.02502201 -0.00393652
v -0.00093752 -0.02504827 -0.00393652
v 0.00000388 -0.02505352 0.00393652
v -0.00081264 -0.02505177 -0.00393652
v -0.00068756 -0.02505352 -0.00393652
v 0.00000388 -0.02443555 -0.00496257
v -0.00056267 -0.02443555 -0.00496356
v -0.00081264 -0.02454409 -0.00490403
v -0.00106241 -0.02453709 -0.00490006
v -0.00132170 -0.02452834 -0.00489509
v -0.00194099 -0.02443555 -0.00492288
v -0.00193738 -0.02450908 -0.00488120
v -0.00194099 -0.02495724 -0.00418658
v -0.00150142 -0.02499925 -0.00412506
v -0.00106241 -0.02503602 -0.00406155
v -0.00093752 -0.02504477 -0.00406155
v 0.00000388 -0.02505352 -0.00393652
v -0.00081264 -0.02504827 -0.00406155
v 0.00000388 -0.02454409 -0.00490403
v -0.00018764 -0.02460711 -0.00486334
v -0.00068756 -0.02460711 -0.00486235
v -0.00081264 -0.02460711 -0.00486136
v -0.00093752 -0.02460361 -0.00485937
v -0.00118730 -0.02459661 -0.00485342
v -0.00194099 -0.02450733 -0.00488120
v -0.00143745 -0.02458786 -0.00484746
v -0.00181249 -0.02457560 -0.00483556
v -0.00194099 -0.02456860 -0.00483357
v -0.00194099 -0.02492573 -0.00431459
v -0.00114827 -0.02500100 -0.00425406
v -0.00123146 -0.02499750 -0.00424215
v -0.00118882 -0.02500976 -0.00419551
v -0.00132170 -0.02500625 -0.00416177
v -0.00093752 -0.02502726 -0.00418658
v -0.00081264 -0.02503251 -0.00418658
v 0.00000388 -0.02504827 -0.00406155
v 0.00000388 -0.02504127 -0.00412010
v 0.00000388 -0.02460711 -0.00486334
v -0.00018764 -0.02468239 -0.00480082
v -0.00068756 -0.02468239 -0.00479983
v -0.00081264 -0.02474541 -0.00474724
v -0.00093752 -0.02468064 -0.00479686
v -0.00143745 -0.02466313 -0.00478495
v -0.00181249 -0.02464913 -0.00477304
v -0.00194099 -0.02464388 -0.00476907
v -0.00194099 -0.02488896 -0.00440985
v -0.00181249 -0.02489422 -0.00441978
v -0.00093752 -0.02498700 -0.00433940
v -0.00093752 -0.02500800 -0.00427688
v -0.00081264 -0.02500976 -0.00428284
v 0.00000388 -0.02502201 -0.00423223
v 0.00000388 -0.02503251 -0.00418658
v 0.00000388 -0.02471565 -0.00477106
v -0.00006275 -0.02468239 -0.00480082
v -0.00068756 -0.02474541 -0.00474724
v -0.00081264 -0.02479968 -0.00468472
v -0.00093752 -0.02474366 -0.00474426
v -0.00131218 -0.02472966 -0.00472938
v -0.00156253 -0.02472090 -0.00471846
v -0.00194099 -0.02470515 -0.00470457
v -0.00194099 -0.02486095 -0.00447237
v -0.00132170 -0.02491872 -0.00444260
v -0.00181249 -0.02486620 -0.00448229
v -0.00161412 -0.02487321 -0.00449817
v -0.00093752 -0.02494673 -0.00443664
v -0.00081264 -0.02495198 -0.00443664
v -0.00081264 -0.02498875 -0.00434535
v 0.00000388 -0.02500976 -0.00428284
v 0.00000388 -0.02474366 -0.00474525
v -0.00006275 -0.02474541 -0.00474525
v -0.00018764 -0.02474541 -0.00474625
v -0.00068756 -0.02479968 -0.00468472
v -0.00093752 -0.02479618 -0.00468175
v -0.00081264 -0.02486095 -0.00460633
v -0.00106241 -0.02479268 -0.00467679
v -0.00193738 -0.02476117 -0.00464106
v -0.00194099 -0.02476117 -0.00464007
v -0.00194099 -0.02480844 -0.00456366
v -0.00193738 -0.02481019 -0.00456168
v -0.00153092 -0.02487671 -0.00450313
v -0.00106241 -0.02489246 -0.00453191
v -0.00093752 -0.02489597 -0.00453985
v -0.00081264 -0.02489947 -0.00454381
v 0.00000388 -0.02492748 -0.00448725
v 0.00000388 -0.02495198 -0.00443664
v 0.00000388 -0.02498875 -0.00434535
v 0.00000388 -0.02477342 -0.00471251
v 0.00000388 -0.02479968 -0.00468274
v -0.00018764 -0.02479968 -0.00468373
v 0.00000388 -0.02486095 -0.00460633
v -0.00093752 -0.02485745 -0.00460236
v -0.00106241 -0.02485395 -0.00459442
v -0.00132170 -0.02484520 -0.00457855
v 0.00000388 -0.02489947 -0.00454381
f 1 2 3
f 1 3 8
f 1 8 9
f 1 9 4
f 1 4 2
f 2 5 6
f 2 6 11
f 2 11 18
f 2 18 17
f 2 17 25
f 2 25 37
f 2 37 47
f 2 47 46
f 2 46 56
f 2 56 66
f 2 66 77
f 2 77 92
f 2 92 91
f 2 91 106
f 2 106 116
f 2 116 128
f 2 128 138
f 2 138 149
f 2 149 147
f 2 147 158
f 2 158 167
f 2 167 179
f 2 179 192
f 2 192 208
f 2 208 223
f 2 223 237
f 2 237 251
f 2 251 254
f 2 254 271
f 2 271 286
f 2 286 303
f 2 303 304
f 2 304 287
f 2 287 272
f 2 272 255
f 2 255 239
f 2 239 224
f 2 224 209
f 2 209 194
f 2 194 181
f 2 181 169
f 2 169 160
f 2 160 150
f 2 150 139
f 2 139 129
f 2 129 117
f 2 117 107
f 2 107 93
f 2 93 78
f 2 78 67
f 2 67 57
f 2 57 48
f 2 48 38
f 2 38 26
f 2 26 19
f 2 19 12
f 2 12 8
f 2 8 3
f 2 4 7
f 2 7 5
f 4 9 15
f 4 15 23
f 4 23 33
f 4 33 32
f 4 32 44
f 4 44 43
f 4 43 53
f 4 53 54
f 4 54 61
f 4 61 73
f 4 73 88
f 4 88 101
f 4 101 103
f 4 103 102
f 4 102 104
f 4 104 113
f 4 113 126
f 4 126 135
f 4 135 146
f 4 146 145
f 4 145 156
f 4 156 164
f 4 164 173
f 4 173 175
f 4 175 187
f 4 187 199
f 4 199 213
f 4 213 229
f 4 229 243
f 4 243 262
f 4 262 263
f 4 263 278
f 4 278 277
f 4 277 294
f 4 294 312
f 4 312 311
f 4 311 310
f 4 310 320
f 4 320 316
f 4 316 314
f 4 314 313
f 4 313 295
f 4 295 279
f 4 279 264
f 4 264 245
f 4 245 232
f 4 232 216
f 4 216 201
f 4 201 193
f 4 193 180
f 4 180 168
f 4 168 159
f 4 159 148
f 4 148 136
f 4 136 127
f 4 127 114
f 4 114 105
f 4 105 90
f 4 90 75
f 4 75 64
f 4 64 55
f 4 55 45
f 4 45 34
f 4 34 24
f 4 24 16
f 4 16 10
f 4 10 7
f 5 7 10
f 5 10 11
f 5 11 6
f 8 12 13
f 8 13 14
f 8 14 15
f 8 15 9
f 10 16 17
f 10 17 18
f 10 18 11
f 12 19 20
f 12 20 21
f 12 21 22
f 12 22 13
f 13 22 14
f 14 22 23
f 14 23 15
f 16 24 25
f 16 25 17
f 19 26 27
f 19 27 28
f 19 28 29
f 19 29 30
f 19 30 20
f 20 30 21
f 21 30 31
f 21 31 22
f 22 31 32
f 22 32 33
f 22 33 23
f 24 34 35
f 24 35 36
f 24 36 25
f 25 36 37
f 26 38 39
f 26 39 27
f 27 39 40
f 27 40 28
f 28 40 29
f 29 40 30
f 30 40 41
f 30 41 31
f 31 41 42
f 31 42 43
f 31 43 44
f 31 44 32
f 34 45 35
f 35 46 47
f 35 47 37
f 35 37 36
f 35 45 46
f 38 48 39
f 39 48 49
f 39 49 50
f 39 50 40
f 40 50 51
f 40 51 52
f 40 52 41
f 41 52 42
f 42 53 43
f 42 52 54
f 42 54 53
f 45 55 56
f 45 56 46
f 48 57 58
f 48 58 49
f 49 58 59
f 49 59 50
f 50 59 60
f 50 60 51
f 51 60 52
f 52 61 54
f 52 60 62
f 52 62 63
f 52 63 73
f 52 73 61
f 55 64 65
f 55 65 56
f 56 65 66
f 57 67 68
f 57 68 69
f 57 69 58
f 58 69 70
f 58 70 59
f 59 70 60
f 60 70 71
f 60 71 72
f 60 72 62
f 62 72 63
f 63 72 74
f 63 74 87
f 63 87 73
f 64 75 76
f 64 76 65
f 65 76 77
f 65 77 66
f 67 78 79
f 67 79 68
f 68 79 80
f 68 80 81
f 68 81 82
f 68 82 83
f 68 83 69
f 69 83 82
f 69 82 84
f 69 84 71
f 69 71 70
f 71 84 72
f 72 84 85
f 72 85 86
f 72 86 89
f 72 89 74
f 73 87 88
f 74 89 87
f 75 90 76
f 76 91 92
f 76 92 77
f 76 90 91
f 78 93 94
f 78 94 79
f 79 94 95
f 79 95 96
f 79 96 81
f 79 81 80
f 81 96 97
f 81 97 98
f 81 98 82
f 82 98 84
f 84 98 85
f 85 98 99
f 85 99 100
f 85 100 86
f 86 100 89
f 87 101 88
f 87 89 102
f 87 102 103
f 87 103 101
f 89 100 104
f 89 104 102
f 90 105 91
f 91 105 106
f 93 95 94
f 93 107 108
f 93 108 109
f 93 109 95
f 95 109 110
f 95 110 96
f 96 98 97
f 96 110 98
f 98 110 111
f 98 111 99
f 99 111 100
f 100 111 112
f 100 112 113
f 100 113 104
f 105 114 115
f 105 115 106
f 106 115 116
f 107 117 118
f 107 118 108
f 108 118 119
f 108 119 120
f 108 120 109
f 109 120 121
f 109 121 110
f 110 121 122
f 110 122 111
f 111 122 123
f 111 123 124
f 111 124 112
f 112 124 123
f 112 123 125
f 112 125 113
f 113 125 126
f 114 127 128
f 114 128 115
f 115 128 116
f 117 129 130
f 117 130 118
f 118 130 131
f 118 131 132
f 118 132 119
f 119 132 120
f 120 132 121
f 121 132 133
f 121 133 122
f 122 133 134
f 122 134 123
f 123 134 125
f 125 134 126
f 126 134 135
f 127 136 147
f 127 147 149
f 127 149 137
f 127 137 138
f 127 138 128
f 129 139 130
f 130 139 140
f 130 140 141
f 130 141 131
f 131 141 142
f 131 142 132
f 132 142 143
f 132 143 144
f 132 144 133
f 133 144 134
f 134 144 145
f 134 145 146
f 134 146 135
f 136 148 157
f 136 157 147
f 137 149 138
f 139 150 140
f 140 150 151
f 140 151 152
f 140 152 141
f 141 152 153
f 141 153 142
f 142 153 152
f 142 152 154
f 142 154 143
f 143 154 144
f 144 154 155
f 144 155 156
f 144 156 145
f 147 157 158
f 148 159 165
f 148 165 157
f 150 160 161
f 150 161 162
f 150 162 152
f 150 152 151
f 152 162 154
f 154 162 155
f 155 162 163
f 155 163 164
f 155 164 156
f 157 165 158
f 158 165 166
f 158 166 167
f 159 168 176
f 159 176 165
f 160 169 170
f 160 170 171
f 160 171 161
f 161 171 172
f 161 172 162
f 162 172 174
f 162 174 163
f 163 173 164
f 163 174 175
f 163 175 173
f 165 176 166
f 166 176 167
f 167 176 177
f 167 177 178
f 167 178 179
f 168 180 176
f 169 181 182
f 169 182 183
f 169 183 184
f 169 184 170
f 170 184 185
f 170 185 171
f 171 185 172
f 172 185 186
f 172 186 174
f 174 187 175
f 174 186 199
f 174 199 187
f 176 180 188
f 176 188 177
f 177 188 189
f 177 189 178
f 178 189 179
f 179 189 190
f 179 190 191
f 179 191 192
f 180 193 188
f 181 194 195
f 181 195 182
f 182 184 196
f 182 196 183
f 182 195 197
f 182 197 198
f 182 198 185
f 182 185 184
f 183 196 184
f 185 198 200
f 185 200 186
f 186 200 213
f 186 213 199
f 188 193 201
f 188 201 202
f 188 202 203
f 188 203 189
f 189 203 190
f 190 203 204
f 190 204 205
f 190 205 191
f 191 205 206
f 191 206 207
f 191 207 208
f 191 208 192
f 194 209 226
f 194 226 210
f 194 210 195
f 195 210 211
f 195 211 212
f 195 212 198
f 195 198 197
f 198 212 200
f 200 212 214
f 200 214 215
f 200 215 229
f 200 229 213
f 201 216 202
f 202 216 233
f 202 233 217
f 202 217 218
f 202 218 219
f 202 219 203
f 203 219 204
f 204 219 205
f 205 219 220
f 205 220 221
f 205 221 206
f 206 221 207
f 207 221 222
f 207 222 208
f 208 222 223
f 209 224 225
f 209 225 226
f 210 226 227
f 210 227 211
f 211 227 228
f 211 228 212
f 212 228 230
f 212 230 214
f 214 230 231
f 214 231 215
f 215 231 243
f 215 243 229
f 216 232 233
f 217 233 245
f 217 245 234
f 217 234 218
f 218 234 219
f 219 234 235
f 219 235 220
f 220 235 221
f 221 235 236
f 221 236 222
f 222 237 223
f 222 236 238
f 222 238 237
f 224 239 240
f 224 240 241
f 224 241 225
f 225 241 242
f 225 242 228
f 225 228 227
f 225 227 226
f 228 242 244
f 228 244 230
f 230 244 231
f 231 244 262
f 231 262 243
f 232 245 233
f 234 245 264
f 234 264 246
f 234 246 247
f 234 247 248
f 234 248 249
f 234 249 235
f 235 249 236
f 236 249 250
f 236 250 238
f 237 238 251
f 238 250 252
f 238 252 253
f 238 253 254
f 238 254 251
f 239 255 256
f 239 256 257
f 239 257 258
f 239 258 259
f 239 259 240
f 240 259 242
f 240 242 241
f 242 259 260
f 242 260 261
f 242 261 244
f 244 261 263
f 244 263 262
f 246 264 280
f 246 280 265
f 246 265 266
f 246 266 247
f 247 266 267
f 247 267 248
f 248 268 249
f 248 267 268
f 249 268 250
f 250 268 252
f 252 268 269
f 252 269 253
f 253 269 254
f 254 269 270
f 254 270 271
f 255 272 273
f 255 273 274
f 255 274 275
f 255 275 256
f 256 275 260
f 256 260 258
f 256 258 257
f 258 260 259
f 260 275 261
f 261 275 276
f 261 276 277
f 261 277 278
f 261 278 263
f 264 279 280
f 265 280 281
f 265 281 267
f 265 267 266
f 267 281 298
f 267 298 282
f 267 282 283
f 267 283 268
f 268 283 269
f 269 283 270
f 270 283 271
f 271 283 284
f 271 284 285
f 271 285 286
f 272 287 289
f 272 289 273
f 273 288 274
f 273 289 290
f 273 290 288
f 274 288 291
f 274 291 292
f 274 292 293
f 274 293 276
f 274 276 275
f 276 294 277
f 276 293 312
f 276 312 294
f 279 295 296
f 279 296 297
f 279 297 280
f 280 297 281
f 281 297 315
f 281 315 298
f 282 299 283
f 282 298 316
f 282 316 300
f 282 300 299
f 283 299 301
f 283 301 302
f 283 302 284
f 284 302 285
f 285 302 286
f 286 302 303
f 287 304 305
f 287 305 289
f 288 290 306
f 288 306 291
f 289 305 290
f 290 305 306
f 291 306 307
f 291 307 308
f 291 308 309
f 291 309 292
f 292 309 310
f 292 310 311
f 292 311 312
f 292 312 293
f 295 313 296
f 296 313 314
f 296 314 297
f 297 314 315
f 298 315 316
f 299 300 317
f 299 317 301
f 300 316 320
f 300 320 309
f 300 309 308
f 300 308 317
f 301 317 302
f 302 317 318
f 302 318 319
f 302 319 306
f 302 306 305
f 302 305 304
f 302 304 303
f 306 319 318
f 306 318 307
f 307 318 317
f 307 317 308
f 309 320 310
f 314 316 315

