mtllib material.mtl
usemtl Material.002
v 0.01500000 0.01281300 0.01268800
v 0.01500000 0.01281300 0.01268800
v 0.01500000 -0.01343700 0.01268800
v 0.01500000 -0.01343700 0.01268800
v 0.01375000 0.01281300 0.01268800
v 0.01375000 0.01281300 0.01268800
v 0.01375000 0.01281300 0.01268800
v 0.01375000 -0.01343700 0.01268800
v 0.01375000 -0.01343700 0.01268800
v 0.01375000 -0.01343700 0.01268800
v 0.01500000 -0.01343700 -0.01356200
v 0.01500000 -0.01343700 -0.01356200
v 0.01375000 -0.01343700 -0.01356200
v 0.01375000 -0.01343700 -0.01356200
v 0.01375000 -0.01343700 -0.01356200
v 0.01500000 0.01281300 -0.01356200
v 0.01500000 0.01281300 -0.01356200
v 0.01375000 0.01281300 -0.01356200
v 0.01375000 0.01281300 -0.01356200
v 0.01375000 0.01281300 -0.01356200
vn -0.00000000 -0.00000000 -1.00000000
vn -0.00000000 -1.00000000 -0.00000000
vn -0.00000000 -0.00000000 -1.00000000
vn -0.00000000 1.00000000 -0.00000000
vn -0.00000000 -0.00000000 -1.00000000
vn 1.00000000 -0.00000000 -0.00000000
vn -0.00000000 -1.00000000 -0.00000000
vn -0.00000000 -0.00000000 -1.00000000
vn -0.00000000 1.00000000 -0.00000000
vn 1.00000000 -0.00000000 -0.00000000
vn -0.00000000 1.00000000 -0.00000000
vn -0.00000000 -0.00000000 1.00000000
vn -0.00000000 -0.00000000 1.00000000
vn 1.00000000 -0.00000000 -0.00000000
vn -0.00000000 1.00000000 -0.00000000
vn -0.00000000 -0.00000000 1.00000000
vn -0.00000000 -1.00000000 -0.00000000
vn -0.00000000 -1.00000000 -0.00000000
vn -0.00000000 -0.00000000 1.00000000
vn 1.00000000 -0.00000000 -0.00000000
vt 1.00106900 -0.00412600
vt 1.00106900 -0.00412600
vt 0.99023600 0.99144400
vt 0.99023600 0.99144400
vt 0.99939600 -0.00548500
vt 0.99939600 -0.00548500
vt 0.99939600 -0.00548500
vt 0.99598400 0.99439200
vt 0.99598400 0.99439200
vt 0.99598400 0.99439200
vt 0.00803200 0.99222000
vt 0.00803200 0.99222000
vt 0.00448600 0.99641700
vt 0.00448600 0.99641700
vt 0.00448600 0.99641700
vt 0.00299000 0.00458700
vt 0.00299000 0.00458700
vt 0.00121000 0.00560800
vt 0.00121000 0.00560800
vt 0.00121000 0.00560800
f 1/1/1 3/3/3 5/5/5
f 5/5/5 3/3/3 8/8/8
f 4/4/4 11/11/11 9/9/9
f 9/9/9 11/11/11 15/15/15
f 12/12/12 16/16/16 13/13/13
f 13/13/13 16/16/16 19/19/19
f 17/17/17 2/2/2 18/18/18
f 18/18/18 2/2/2 7/7/7
f 6/6/6 10/10/10 20/20/20
f 20/20/20 10/10/10 14/14/14

