mtllib material.mtl
usemtl Material.004
v -0.01500000 -0.01343700 -0.01356300
v -0.01500000 -0.01343700 -0.01356300
v -0.01500000 -0.01343700 0.01268700
v -0.01500000 -0.01343700 0.01268700
v -0.01375000 -0.01343700 -0.01356300
v -0.01375000 -0.01343700 -0.01356300
v -0.01375000 -0.01343700 -0.01356300
v -0.01375000 -0.01343700 0.01268700
v -0.01375000 -0.01343700 0.01268700
v -0.01375000 -0.01343700 0.01268700
v -0.01500000 0.01281300 0.01268700
v -0.01500000 0.01281300 0.01268700
v -0.01375000 0.01281300 0.01268700
v -0.01375000 0.01281300 0.01268700
v -0.01375000 0.01281300 0.01268700
v -0.01500000 0.01281300 -0.01356300
v -0.01500000 0.01281300 -0.01356300
v -0.01375000 0.01281300 -0.01356300
v -0.01375000 0.01281300 -0.01356300
v -0.01375000 0.01281300 -0.01356300
vn -0.00000000 1.00000000 -0.00000000
vn -0.00000000 -0.00000000 1.00000000
vn -0.00000000 1.00000000 -0.00000000
vn -0.00000000 -0.00000000 -1.00000000
vn -0.00000000 1.00000000 -0.00000000
vn -1.00000000 -0.00000000 -0.00000000
vn -0.00000000 -0.00000000 1.00000000
vn -0.00000000 1.00000000 -0.00000000
vn -0.00000000 -0.00000000 -1.00000000
vn -1.00000000 -0.00000000 -0.00000000
vn -0.00000000 -0.00000000 -1.00000000
vn -0.00000000 -1.00000000 -0.00000000
vn -0.00000000 -1.00000000 -0.00000000
vn -1.00000000 -0.00000000 -0.00000000
vn -0.00000000 -0.00000000 -1.00000000
vn -0.00000000 -1.00000000 -0.00000000
vn -0.00000000 -0.00000000 1.00000000
vn -0.00000000 -0.00000000 1.00000000
vn -0.00000000 -1.00000000 -0.00000000
vn -1.00000000 -0.00000000 -0.00000000
vt 0.99259500 0.99612100
vt 0.99259500 0.99612100
vt 0.00509500 0.99509400
vt 0.00509500 0.99509400
vt 0.99604400 0.99446300
vt 0.99604400 0.99446300
vt 0.99604400 0.99446300
vt 0.00210800 0.99044500
vt 0.00210800 0.99044500
vt 0.00210800 0.99044500
vt 0.00141900 0.00387900
vt 0.00141900 0.00387900
vt 0.00297000 0.00053700
vt 0.00297000 0.00053700
vt 0.00297000 0.00053700
vt 0.99891900 0.00490600
vt 0.99891900 0.00490600
vt 0.99690600 0.00455600
vt 0.99690600 0.00455600
vt 0.99690600 0.00455600
f 1/1/1 3/3/3 5/5/5
f 5/5/5 3/3/3 8/8/8
f 4/4/4 11/11/11 9/9/9
f 9/9/9 11/11/11 15/15/15
f 12/12/12 16/16/16 13/13/13
f 13/13/13 16/16/16 19/19/19
f 17/17/17 2/2/2 18/18/18
f 18/18/18 2/2/2 7/7/7
f 20/20/20 6/6/6 14/14/14
f 14/14/14 6/6/6 10/10/10

