mtllib material.mtl
usemtl Material.001
v -0.01312500 0.01281300 0.01456200
v -0.01312500 0.01281300 0.01456200
v -0.01312500 -0.01343700 0.01456200
v -0.01312500 -0.01343700 0.01456200
v -0.01312500 0.01281300 0.01331200
v -0.01312500 0.01281300 0.01331200
v -0.01312500 0.01281300 0.01331200
v -0.01312500 -0.01343700 0.01331200
v -0.01312500 -0.01343700 0.01331200
v -0.01312500 -0.01343700 0.01331200
v 0.01312500 -0.01343700 0.01456300
v 0.01312500 -0.01343700 0.01456300
v 0.01312500 -0.01343700 0.01331300
v 0.01312500 -0.01343700 0.01331300
v 0.01312500 -0.01343700 0.01331300
v 0.01312500 0.01281300 0.01456300
v 0.01312500 0.01281300 0.01456300
v 0.01312500 0.01281300 0.01331300
v 0.01312500 0.01281300 0.01331300
v 0.01312500 0.01281300 0.01331300
vn 1.00000000 -0.00000000 -0.00000000
vn -0.00000000 -1.00000000 -0.00000000
vn 1.00000000 -0.00000000 -0.00000000
vn -0.00000000 1.00000000 -0.00000000
vn 1.00000000 -0.00000000 -0.00000000
vn -0.00000000 -0.00000000 1.00000000
vn -0.00000000 -1.00000000 -0.00000000
vn 1.00000000 -0.00000000 -0.00000000
vn -0.00000000 1.00000000 -0.00000000
vn -0.00000000 -0.00000000 1.00000000
vn -0.00000000 1.00000000 -0.00000000
vn -1.00000000 -0.00000000 -0.00000000
vn -1.00000000 -0.00000000 -0.00000000
vn -0.00000000 -0.00000000 1.00000000
vn -0.00000000 1.00000000 -0.00000000
vn -1.00000000 -0.00000000 -0.00000000
vn -0.00000000 -1.00000000 -0.00000000
vn -0.00000000 -1.00000000 -0.00000000
vn -1.00000000 -0.00000000 -0.00000000
vn -0.00000000 -0.00000000 1.00000000
vt 0.98837600 0.00400100
vt 0.98837600 0.00400100
vt 0.99777600 0.99926100
vt 0.99777600 0.99926100
vt 0.98960800 0.00497600
vt 0.98960800 0.00497600
vt 0.98960800 0.00497600
vt 0.99419500 0.99675000
vt 0.99419500 0.99675000
vt 0.99419500 0.99675000
vt 0.00565000 0.99680500
vt 0.00565000 0.99680500
vt 0.00441800 0.99731900
vt 0.00441800 0.99731900
vt 0.00441800 0.99731900
vt 0.00009500 -0.00012900
vt 0.00009500 -0.00012900
vt 0.00057500 0.00008800
vt 0.00057500 0.00008800
vt 0.00057500 0.00008800
f 1/1/1 3/3/3 5/5/5
f 5/5/5 3/3/3 8/8/8
f 4/4/4 11/11/11 9/9/9
f 9/9/9 11/11/11 15/15/15
f 12/12/12 16/16/16 13/13/13
f 13/13/13 16/16/16 19/19/19
f 17/17/17 2/2/2 18/18/18
f 18/18/18 2/2/2 7/7/7
f 6/6/6 10/10/10 20/20/20
f 20/20/20 10/10/10 14/14/14

