mtllib material.mtl
usemtl Material.003
v 0.01312500 -0.01343700 -0.01543800
v 0.01312500 -0.01343700 -0.01543800
v 0.01312500 0.01281300 -0.01543800
v 0.01312500 0.01281300 -0.01543800
v -0.01312500 -0.01343700 -0.01543800
v -0.01312500 -0.01343700 -0.01543800
v -0.01312500 0.01281300 -0.01543800
v -0.01312500 0.01281300 -0.01543800
v 0.01312500 0.01281300 -0.01418700
v 0.01312500 0.01281300 -0.01418700
v 0.01312500 0.01281300 -0.01418700
v 0.01312500 -0.01343700 -0.01418700
v 0.01312500 -0.01343700 -0.01418700
v 0.01312500 -0.01343700 -0.01418700
v -0.01312500 -0.01343700 -0.01418700
v -0.01312500 -0.01343700 -0.01418700
v -0.01312500 -0.01343700 -0.01418700
v -0.01312500 0.01281300 -0.01418700
v -0.01312500 0.01281300 -0.01418700
v -0.01312500 0.01281300 -0.01418700
vn -1.00000000 -0.00000000 -0.00000000
vn -0.00000000 1.00000000 -0.00000000
vn -1.00000000 -0.00000000 -0.00000000
vn -0.00000000 -1.00000000 -0.00000000
vn -0.00000000 1.00000000 -0.00000000
vn 1.00000000 -0.00000000 -0.00000000
vn -0.00000000 -1.00000000 -0.00000000
vn 1.00000000 -0.00000000 -0.00000000
vn -1.00000000 -0.00000000 -0.00000000
vn -0.00000000 -1.00000000 -0.00000000
vn -0.00000000 -0.00000000 -1.00000000
vn -0.00000000 1.00000000 -0.00000000
vn -1.00000000 -0.00000000 -0.00000000
vn -0.00000000 -0.00000000 -1.00000000
vn -0.00000000 -0.00000000 -1.00000000
vn 1.00000000 -0.00000000 -0.00000000
vn -0.00000000 1.00000000 -0.00000000
vn 1.00000000 -0.00000000 -0.00000000
vn -0.00000000 -1.00000000 -0.00000000
vn -0.00000000 -0.00000000 -1.00000000
vt 0.99228200 0.99401200
vt 0.99228200 0.99401200
vt 0.99548200 -0.00400100
vt 0.99548200 -0.00400100
vt 0.00204800 0.99618800
vt 0.00204800 0.99618800
vt -0.00256500 0.00403500
vt -0.00256500 0.00403500
vt 0.99620300 -0.00497600
vt 0.99620300 -0.00497600
vt 0.99620300 -0.00497600
vt 0.99666900 0.99618100
vt 0.99666900 0.99618100
vt 0.99666900 0.99618100
vt 0.00132700 0.99716300
vt 0.00132700 0.99716300
vt 0.00132700 0.99716300
vt -0.00304600 0.00381900
vt -0.00304600 0.00381900
vt -0.00304600 0.00381900
f 3/3/3 1/1/1 9/9/9
f 9/9/9 1/1/1 13/13/13
f 2/2/2 5/5/5 12/12/12
f 12/12/12 5/5/5 17/17/17
f 6/6/6 8/8/8 16/16/16
f 16/16/16 8/8/8 18/18/18
f 7/7/7 4/4/4 19/19/19
f 19/19/19 4/4/4 10/10/10
f 11/11/11 14/14/14 20/20/20
f 20/20/20 14/14/14 15/15/15

