# https://github.com/mikedh/trimesh
v 0.01320023 -0.00351180 -0.00298952
v 0.01122188 -0.00286692 -0.00344818
v 0.01320023 -0.00351111 -0.00332066
v 0.01320023 -0.00351180 0.00298952
v 0.01122188 -0.00286417 -0.00349754
v 0.01320023 -0.00351043 -0.00344818
v 0.01122188 -0.00286692 0.00344818
v 0.01320023 -0.00351043 0.00344818
v 0.01122188 -0.00284010 -0.00390993
v 0.01320023 -0.00347743 -0.00390993
v 0.01122188 -0.00284010 0.00390993
v 0.01320023 -0.00350286 0.00356747
v 0.01122188 -0.00283460 -0.00394592
v 0.01122188 -0.00278579 -0.00417217
v 0.01320023 -0.00338667 -0.00414851
v 0.01320023 -0.00347743 0.00390993
v 0.01122188 -0.00278579 0.00417216
v 0.01122188 -0.00276379 -0.00419582
v 0.01320023 -0.00333099 -0.00425341
v 0.01320023 -0.00333099 0.00425341
v 0.01122188 -0.00256098 0.00440355
v 0.01122188 -0.00256098 -0.00440355
v 0.01122188 -0.00230866 -0.00465345
v 0.01122188 -0.00209828 -0.00486118
v 0.01122188 -0.00186797 -0.00508434
v 0.01320023 -0.00313436 -0.00444160
v 0.01320023 -0.00305529 0.00451256
v 0.01122188 -0.00186797 0.00508434
v 0.01122188 -0.00209828 0.00486118
v 0.01320023 -0.00237947 -0.00511211
v 0.01320023 -0.00242485 -0.00508126
v 0.01320023 -0.00260910 -0.00492083
v 0.01320023 -0.00266410 -0.00487147
v 0.01122188 -0.00161359 -0.00517896
v 0.01320023 -0.00286760 0.00468430
v 0.01320023 -0.00260910 0.00492083
v 0.01320023 -0.00237947 0.00511211
v 0.01122188 -0.00161359 0.00517896
v 0.01320023 -0.00214641 -0.00518924
v 0.01122188 -0.00156065 -0.00519027
v 0.01173012 -0.00160877 -0.00521392
v 0.01320023 -0.00206941 -0.00520775
v 0.01320023 -0.00206941 0.00520775
v 0.01173012 -0.00160877 0.00521392
v 0.01122188 -0.00114952 0.00525300
v 0.01122188 -0.00114952 -0.00525300
v 0.01218994 -0.00160877 -0.00524169
v 0.01247854 -0.00160946 -0.00524889
v 0.01264996 -0.00160946 -0.00525300
v 0.01320023 -0.00170021 -0.00524991
v 0.01320023 -0.00160946 0.00525300
v 0.01264996 -0.00160946 0.00525300
v 0.01247854 -0.00160946 0.00524889
v 0.01218994 -0.00160877 0.00524169
v 0.01122188 0.00114952 0.00525300
v 0.01122188 0.00114952 -0.00525300
v 0.01320023 -0.00160946 -0.00525300
v 0.01320023 0.00160946 0.00525300
v 0.01264996 0.00160946 0.00525300
v 0.01247854 0.00160946 0.00524889
v 0.01218994 0.00160877 0.00524169
v 0.01173012 0.00160877 0.00521392
v 0.01122188 0.00156065 0.00519027
v 0.01173012 0.00160877 -0.00521392
v 0.01218994 0.00160877 -0.00524169
v 0.01247854 0.00160946 -0.00524889
v 0.01264996 0.00160946 -0.00525300
v 0.01122188 0.00161359 -0.00517896
v 0.01320023 0.00160946 -0.00525300
v 0.01320023 0.00170021 0.00524991
v 0.01320023 0.00206941 0.00520775
v 0.01122188 0.00161359 0.00517896
v 0.01320023 0.00206941 -0.00520775
v 0.01122188 0.00186797 -0.00508434
v 0.01320023 0.00237947 -0.00511211
v 0.01320023 0.00214641 0.00518924
v 0.01320023 0.00237947 0.00511211
v 0.01122188 0.00186797 0.00508434
v 0.01122188 0.00209828 -0.00486118
v 0.01320023 0.00333099 -0.00425341
v 0.01320023 0.00305529 -0.00451256
v 0.01320023 0.00286760 -0.00468430
v 0.01320023 0.00260910 -0.00492083
v 0.01320023 0.00242485 0.00508126
v 0.01320023 0.00260910 0.00492083
v 0.01320023 0.00266410 0.00487147
v 0.01320023 0.00313436 0.00444160
v 0.01320023 0.00333099 0.00425341
v 0.01122188 0.00209828 0.00486118
v 0.01122188 0.00256098 -0.00440355
v 0.01122188 0.00278579 -0.00417217
v 0.01320023 0.00347743 -0.00390993
v 0.01320023 0.00338667 0.00414851
v 0.01122188 0.00278579 0.00417216
v 0.01122188 0.00276379 0.00419582
v 0.01122188 0.00256098 0.00440355
v 0.01122188 0.00230866 0.00465345
v 0.01122188 0.00284010 -0.00390993
v 0.01320023 0.00350286 -0.00356747
v 0.01320023 0.00347743 0.00390993
v 0.01122188 0.00283460 0.00394592
v 0.01122188 0.00286692 -0.00344818
v 0.01320023 0.00351043 -0.00344818
v 0.01320023 0.00351043 0.00344818
v 0.01122188 0.00284010 0.00390993
v 0.01320023 0.00351180 -0.00298952
v 0.01122188 0.00286692 0.00344818
v 0.01320023 0.00351111 0.00332066
v 0.01122188 0.00286417 0.00349754
v 0.01320023 0.00351180 0.00298952
f 1 2 3
f 1 3 6
f 1 6 10
f 1 10 15
f 1 15 19
f 1 19 26
f 1 26 33
f 1 33 32
f 1 32 31
f 1 31 30
f 1 30 39
f 1 39 42
f 1 42 50
f 1 50 57
f 1 57 69
f 1 69 73
f 1 73 75
f 1 75 83
f 1 83 82
f 1 82 81
f 1 81 80
f 1 80 92
f 1 92 99
f 1 99 103
f 1 103 106
f 1 106 110
f 1 110 108
f 1 108 104
f 1 104 100
f 1 100 93
f 1 93 88
f 1 88 87
f 1 87 86
f 1 86 85
f 1 85 84
f 1 84 77
f 1 77 76
f 1 76 71
f 1 71 70
f 1 70 58
f 1 58 51
f 1 51 43
f 1 43 37
f 1 37 36
f 1 36 35
f 1 35 27
f 1 27 20
f 1 20 16
f 1 16 12
f 1 12 8
f 1 8 4
f 1 4 7
f 1 7 2
f 2 5 6
f 2 6 3
f 2 7 11
f 2 11 17
f 2 17 21
f 2 21 29
f 2 29 28
f 2 28 38
f 2 38 45
f 2 45 55
f 2 55 63
f 2 63 72
f 2 72 78
f 2 78 89
f 2 89 97
f 2 97 96
f 2 96 95
f 2 95 94
f 2 94 101
f 2 101 105
f 2 105 109
f 2 109 107
f 2 107 102
f 2 102 98
f 2 98 91
f 2 91 90
f 2 90 79
f 2 79 74
f 2 74 68
f 2 68 56
f 2 56 46
f 2 46 40
f 2 40 34
f 2 34 25
f 2 25 24
f 2 24 23
f 2 23 22
f 2 22 18
f 2 18 14
f 2 14 13
f 2 13 9
f 2 9 5
f 4 8 7
f 5 9 6
f 6 9 10
f 7 8 11
f 8 12 11
f 9 13 10
f 10 13 14
f 10 14 15
f 11 12 16
f 11 16 17
f 14 18 19
f 14 19 15
f 16 20 17
f 17 20 21
f 18 22 19
f 19 22 23
f 19 23 24
f 19 24 25
f 19 25 26
f 20 27 28
f 20 28 29
f 20 29 21
f 25 30 31
f 25 31 32
f 25 32 33
f 25 33 26
f 25 34 30
f 27 35 28
f 28 35 36
f 28 36 37
f 28 37 38
f 30 34 39
f 34 40 41
f 34 41 42
f 34 42 39
f 37 43 38
f 38 43 44
f 38 44 45
f 40 46 41
f 41 47 42
f 41 46 47
f 42 47 48
f 42 48 49
f 42 49 50
f 43 51 52
f 43 52 53
f 43 53 54
f 43 54 44
f 44 54 45
f 45 54 53
f 45 53 52
f 45 52 51
f 45 51 58
f 45 58 59
f 45 59 55
f 46 49 48
f 46 48 47
f 46 56 67
f 46 67 69
f 46 69 57
f 46 57 49
f 49 57 50
f 55 59 60
f 55 60 61
f 55 61 62
f 55 62 63
f 56 64 65
f 56 65 66
f 56 66 67
f 56 68 64
f 58 70 59
f 59 70 71
f 59 71 60
f 60 71 61
f 61 71 62
f 62 71 72
f 62 72 63
f 64 73 65
f 64 68 73
f 65 73 66
f 66 73 67
f 67 73 69
f 68 74 75
f 68 75 73
f 71 76 72
f 72 76 77
f 72 77 78
f 74 79 80
f 74 80 81
f 74 81 82
f 74 82 83
f 74 83 75
f 77 84 78
f 78 84 85
f 78 85 86
f 78 86 87
f 78 87 88
f 78 88 89
f 79 90 80
f 80 90 91
f 80 91 92
f 88 93 94
f 88 94 95
f 88 95 96
f 88 96 97
f 88 97 89
f 91 98 92
f 92 98 99
f 93 100 94
f 94 100 101
f 98 102 103
f 98 103 99
f 100 104 105
f 100 105 101
f 102 106 103
f 102 107 110
f 102 110 106
f 104 108 107
f 104 107 109
f 104 109 105
f 107 108 110

