# https://github.com/mikedh/trimesh
v 0.01556357 0.01462922 -0.00298952
v 0.01443863 0.01571479 -0.00306973
v 0.01556357 0.01463007 -0.00344921
v 0.01556357 0.01462922 0.00298952
v 0.01443863 0.01571564 -0.00344921
v 0.01443863 0.01571479 0.00298952
v 0.01443863 0.01575193 -0.00390993
v 0.01556357 0.01467312 -0.00390993
v 0.01556357 0.01463007 0.00344921
v 0.01443863 0.01571564 0.00344921
v 0.01443863 0.01575615 -0.00392741
v 0.01556357 0.01473136 -0.00411458
v 0.01556357 0.01467312 0.00390993
v 0.01443863 0.01575193 0.00390993
v 0.01443863 0.01574856 0.00386776
v 0.01443863 0.01591907 -0.00425546
v 0.01468705 0.01561350 -0.00416497
v 0.01556357 0.01477526 -0.00418553
v 0.01556357 0.01477526 0.00418553
v 0.01468705 0.01561350 0.00416497
v 0.01443863 0.01591907 0.00425546
v 0.01443863 0.01595537 -0.00428940
v 0.01443863 0.01676744 -0.00496402
v 0.01556357 0.01485545 -0.00424929
v 0.01556357 0.01496350 0.00431922
v 0.01443863 0.01695400 0.00509874
v 0.01443863 0.01672101 0.00492083
v 0.01443863 0.01621368 0.00450125
v 0.01443863 0.01694978 -0.00510286
v 0.01556357 0.01570129 -0.00483753
v 0.01556357 0.01580596 0.00490746
v 0.01556357 0.01602797 0.00506069
v 0.01556357 0.01608790 0.00509771
v 0.01449006 0.01693711 0.00510903
v 0.01443863 0.01725113 0.00519644
v 0.01443863 0.01697257 -0.00511417
v 0.01556357 0.01605920 -0.00508434
v 0.01556357 0.01633355 0.00516970
v 0.01542295 0.01633524 0.00514296
v 0.01449006 0.01725029 0.00520569
v 0.01443863 0.01771035 0.00525094
v 0.01556357 0.01619849 -0.00514091
v 0.01556357 0.01608790 -0.00509771
v 0.01443863 0.01725029 -0.00519952
v 0.01556357 0.01679023 0.00524169
v 0.01540996 0.01679023 0.00523655
v 0.01495001 0.01725029 0.00525094
v 0.01449006 0.01771035 0.00525300
v 0.01443863 0.01817041 0.00525300
v 0.01556357 0.01633355 -0.00516970
v 0.01449006 0.01725029 -0.00520878
v 0.01443863 0.01730178 -0.00521186
v 0.01556357 0.01725029 0.00525300
v 0.01540996 0.01725029 0.00525300
v 0.01443863 0.02046986 0.00525300
v 0.01556357 0.01663660 -0.00523346
v 0.01443863 0.01771035 -0.00525094
v 0.01495001 0.01725029 -0.00525094
v 0.01556357 0.02046986 0.00525300
v 0.01556357 0.02062349 0.00525197
v 0.01443863 0.02092991 0.00524991
v 0.01556357 0.01679023 -0.00524169
v 0.01443863 0.01776184 -0.00525300
v 0.01449006 0.01771035 -0.00525300
v 0.01556357 0.01709666 -0.00525300
v 0.01556357 0.02092991 0.00524991
v 0.01443863 0.02133848 0.00520981
v 0.01443863 0.02046986 -0.00525300
v 0.01556357 0.02046986 -0.00525300
v 0.01556357 0.02138997 0.00520467
v 0.01443863 0.02138997 0.00520467
v 0.01443863 0.02092991 -0.00524786
v 0.01556357 0.02092991 -0.00524786
v 0.01556357 0.02151068 0.00517381
v 0.01443863 0.02171244 0.00512239
v 0.01443863 0.02138997 -0.00520364
v 0.01495001 0.02138997 -0.00520364
v 0.01556357 0.02123634 -0.00521803
v 0.01556357 0.02175295 0.00511108
v 0.01443863 0.02175295 0.00511108
v 0.01443863 0.02175211 -0.00511108
v 0.01556357 0.02138997 -0.00520261
v 0.01556357 0.02163140 -0.00514193
v 0.01556357 0.02182977 0.00508023
v 0.01443863 0.02195724 0.00502778
v 0.01443863 0.02177743 -0.00510080
v 0.01556357 0.02175211 -0.00511108
v 0.01556357 0.02198256 0.00501647
v 0.01443863 0.02198256 0.00501647
v 0.01443863 0.02198172 -0.00501647
v 0.01495001 0.02198256 -0.00501647
v 0.01556357 0.02190574 -0.00504835
v 0.01556357 0.02209230 0.00494654
v 0.01443863 0.02230924 0.00480771
v 0.01443863 0.02201886 -0.00499282
v 0.01556357 0.02198256 -0.00501647
v 0.01556357 0.02230924 0.00480771
v 0.01556357 0.02239366 0.00474498
v 0.01443863 0.02256080 0.00462054
v 0.01443863 0.02230924 -0.00480360
v 0.01556357 0.02230924 -0.00480360
v 0.01556357 0.02256080 0.00461951
v 0.01495001 0.02256080 0.00462054
v 0.01443863 0.02276002 0.00436962
v 0.01443863 0.02233710 -0.00478303
v 0.01556357 0.02247470 -0.00467916
v 0.01556357 0.02276002 0.00436962
v 0.01443863 0.02294573 0.00411046
v 0.01443863 0.02255742 -0.00461643
v 0.01556357 0.02255742 -0.00461643
v 0.01556357 0.02296852 0.00407755
v 0.01443863 0.02296852 0.00407755
v 0.01443863 0.02275664 -0.00436962
v 0.01556357 0.02275664 -0.00436962
v 0.01556357 0.02300398 0.00400042
v 0.01443863 0.02307320 0.00384719
v 0.01443863 0.02296852 -0.00407755
v 0.01495001 0.02296937 -0.00407755
v 0.01556357 0.02289846 -0.00417525
v 0.01556357 0.02307320 0.00384719
v 0.01443863 0.02319307 0.00344921
v 0.01443863 0.02298034 -0.00405184
v 0.01443863 0.02307235 -0.00384720
v 0.01556357 0.02296937 -0.00407755
v 0.01556357 0.02319307 0.00344921
v 0.01443863 0.02324034 0.00304094
v 0.01443863 0.02308586 -0.00380297
v 0.01556357 0.02307235 -0.00384720
v 0.01556357 0.02324625 0.00298952
v 0.01443863 0.02324625 0.00298952
v 0.01556357 0.02315255 -0.00358290
v 0.01443863 0.02319222 -0.00344921
v 0.01556357 0.02324878 0.00283629
v 0.01443863 0.02325300 0.00252983
v 0.01556357 0.02319222 -0.00344921
v 0.01443863 0.02319897 -0.00339779
v 0.01556357 0.02325300 0.00252983
v 0.01443863 0.02325300 -0.00252983
v 0.01556357 0.02322852 -0.00314275
v 0.01443863 0.02324625 -0.00298952
v 0.01556357 0.02325300 -0.00252983
v 0.01443863 0.02324709 -0.00293810
v 0.01556357 0.02324625 -0.00298952
f 1 2 3
f 1 3 8
f 1 8 12
f 1 12 18
f 1 18 24
f 1 24 30
f 1 30 37
f 1 37 43
f 1 43 42
f 1 42 50
f 1 50 56
f 1 56 62
f 1 62 65
f 1 65 69
f 1 69 73
f 1 73 78
f 1 78 82
f 1 82 83
f 1 83 87
f 1 87 92
f 1 92 96
f 1 96 101
f 1 101 106
f 1 106 110
f 1 110 114
f 1 114 119
f 1 119 124
f 1 124 128
f 1 128 131
f 1 131 135
f 1 135 139
f 1 139 143
f 1 143 141
f 1 141 137
f 1 137 133
f 1 133 129
f 1 129 125
f 1 125 120
f 1 120 115
f 1 115 111
f 1 111 107
f 1 107 102
f 1 102 98
f 1 98 97
f 1 97 93
f 1 93 88
f 1 88 84
f 1 84 79
f 1 79 74
f 1 74 70
f 1 70 66
f 1 66 60
f 1 60 59
f 1 59 53
f 1 53 45
f 1 45 38
f 1 38 33
f 1 33 32
f 1 32 31
f 1 31 25
f 1 25 19
f 1 19 13
f 1 13 9
f 1 9 4
f 1 4 6
f 1 6 2
f 2 5 3
f 2 6 10
f 2 10 15
f 2 15 14
f 2 14 21
f 2 21 28
f 2 28 27
f 2 27 26
f 2 26 35
f 2 35 41
f 2 41 49
f 2 49 55
f 2 55 61
f 2 61 67
f 2 67 71
f 2 71 75
f 2 75 80
f 2 80 85
f 2 85 89
f 2 89 94
f 2 94 99
f 2 99 104
f 2 104 108
f 2 108 112
f 2 112 116
f 2 116 121
f 2 121 126
f 2 126 130
f 2 130 134
f 2 134 138
f 2 138 142
f 2 142 140
f 2 140 136
f 2 136 132
f 2 132 127
f 2 127 123
f 2 123 122
f 2 122 117
f 2 117 113
f 2 113 109
f 2 109 105
f 2 105 100
f 2 100 95
f 2 95 90
f 2 90 86
f 2 86 81
f 2 81 76
f 2 76 72
f 2 72 68
f 2 68 63
f 2 63 57
f 2 57 52
f 2 52 44
f 2 44 36
f 2 36 29
f 2 29 23
f 2 23 22
f 2 22 16
f 2 16 11
f 2 11 7
f 2 7 5
f 3 5 7
f 3 7 8
f 4 9 10
f 4 10 6
f 7 11 8
f 8 11 12
f 9 13 14
f 9 14 15
f 9 15 10
f 11 16 17
f 11 17 12
f 12 17 18
f 13 19 14
f 14 19 20
f 14 20 21
f 16 22 18
f 16 18 17
f 18 22 23
f 18 23 24
f 19 21 20
f 19 25 26
f 19 26 27
f 19 27 28
f 19 28 21
f 23 29 24
f 24 29 30
f 25 31 26
f 26 31 32
f 26 32 33
f 26 33 34
f 26 34 35
f 29 36 37
f 29 37 30
f 33 38 39
f 33 39 34
f 34 39 35
f 35 40 41
f 35 39 38
f 35 38 40
f 36 42 43
f 36 43 37
f 36 44 42
f 38 45 46
f 38 46 40
f 40 46 47
f 40 47 41
f 41 47 48
f 41 48 49
f 42 44 51
f 42 51 50
f 44 52 51
f 45 53 54
f 45 54 47
f 45 47 46
f 47 54 48
f 48 54 53
f 48 53 59
f 48 59 55
f 48 55 49
f 50 51 56
f 51 52 56
f 52 57 58
f 52 58 56
f 55 60 61
f 55 59 60
f 56 58 62
f 57 63 64
f 57 64 58
f 58 64 65
f 58 65 62
f 60 66 61
f 61 66 67
f 63 68 69
f 63 69 65
f 63 65 64
f 66 70 67
f 67 70 71
f 68 72 73
f 68 73 69
f 70 74 75
f 70 75 71
f 72 76 77
f 72 77 73
f 73 77 78
f 74 79 75
f 75 79 80
f 76 81 87
f 76 87 83
f 76 83 77
f 77 82 78
f 77 83 82
f 79 84 80
f 80 84 85
f 81 86 87
f 84 88 85
f 85 88 89
f 86 90 91
f 86 91 92
f 86 92 87
f 88 93 89
f 89 93 94
f 90 95 91
f 91 96 92
f 91 95 100
f 91 100 101
f 91 101 96
f 93 97 94
f 94 98 99
f 94 97 98
f 98 102 103
f 98 103 99
f 99 103 107
f 99 107 104
f 100 105 101
f 101 105 106
f 102 107 103
f 104 107 108
f 105 109 106
f 106 109 110
f 107 111 108
f 108 111 112
f 109 113 114
f 109 114 110
f 111 115 112
f 112 115 116
f 113 117 118
f 113 118 119
f 113 119 114
f 115 120 116
f 116 120 125
f 116 125 121
f 117 122 118
f 118 122 123
f 118 123 128
f 118 128 124
f 118 124 119
f 121 125 126
f 123 127 128
f 125 129 126
f 126 129 130
f 127 131 128
f 127 132 131
f 129 133 130
f 130 133 134
f 131 132 135
f 132 136 135
f 133 137 134
f 134 137 141
f 134 141 138
f 135 136 139
f 136 140 139
f 138 141 142
f 139 140 143
f 140 142 143
f 141 143 142

