# https://github.com/mikedh/trimesh
v 0.01443863 0.01571451 -0.00298952
v 0.01297296 0.01660074 -0.00299672
v 0.01297296 0.01660148 -0.00345435
v 0.01443863 0.01571599 -0.00344921
v 0.01443863 0.01571451 0.00298952
v 0.01297296 0.01660074 0.00298952
v 0.01297296 0.01663100 -0.00390993
v 0.01443863 0.01572115 -0.00352222
v 0.01443863 0.01571599 0.00344921
v 0.01297296 0.01660148 0.00344921
v 0.01297296 0.01664133 -0.00393564
v 0.01328587 0.01653581 -0.00416702
v 0.01443863 0.01575657 -0.00392741
v 0.01443863 0.01575215 -0.00390993
v 0.01443863 0.01575215 0.00390993
v 0.01297296 0.01662804 0.00387496
v 0.01297296 0.01684425 -0.00432128
v 0.01443863 0.01591891 -0.00425546
v 0.01297296 0.01663100 0.00390993
v 0.01443863 0.01591891 0.00425546
v 0.01328587 0.01653581 0.00416702
v 0.01297296 0.01692542 -0.00440150
v 0.01297296 0.01736595 -0.00481285
v 0.01443863 0.01595581 -0.00428940
v 0.01297296 0.01684425 0.00432128
v 0.01443863 0.01621334 0.00450125
v 0.01297296 0.01755707 0.00498768
v 0.01297296 0.01728331 0.00473469
v 0.01297296 0.01720509 0.00466168
v 0.01297296 0.01755707 -0.00498768
v 0.01297296 0.01762570 -0.00504629
v 0.01443863 0.01676751 -0.00496402
v 0.01443863 0.01672102 0.00492083
v 0.01443863 0.01695420 0.00509874
v 0.01297296 0.01778730 0.00514502
v 0.01443863 0.01694977 -0.00510286
v 0.01297296 0.01778730 -0.00514502
v 0.01443863 0.01725084 0.00519644
v 0.01297296 0.01817028 0.00524169
v 0.01443863 0.01697191 -0.00511417
v 0.01297296 0.01788323 -0.00517381
v 0.01443863 0.01725084 -0.00519952
v 0.01443863 0.01771056 0.00525094
v 0.01402989 0.01771056 0.00524169
v 0.01311012 0.01817028 0.00524991
v 0.01297296 0.01863073 0.00525300
v 0.01297296 0.01817028 -0.00524169
v 0.01443863 0.01730176 -0.00521186
v 0.01443863 0.01817028 0.00525300
v 0.01357008 0.01817028 0.00525300
v 0.01297296 0.02046960 0.00525300
v 0.01297296 0.01830753 -0.00525094
v 0.01311012 0.01817028 -0.00524991
v 0.01402989 0.01771056 -0.00524272
v 0.01443863 0.01771056 -0.00525094
v 0.01443863 0.02046960 0.00525300
v 0.01297296 0.02092932 0.00524991
v 0.01297296 0.01863073 -0.00525300
v 0.01357008 0.01817028 -0.00525300
v 0.01443863 0.01776147 -0.00525300
v 0.01443863 0.02092932 0.00524991
v 0.01443863 0.02133812 0.00520981
v 0.01297296 0.02138978 0.00520467
v 0.01297296 0.02046960 -0.00525300
v 0.01443863 0.02046960 -0.00525300
v 0.01443863 0.02138978 0.00520467
v 0.01297296 0.02164435 0.00513988
v 0.01297296 0.02092932 -0.00524786
v 0.01443863 0.02092932 -0.00524786
v 0.01443863 0.02171224 0.00512239
v 0.01297296 0.02175283 0.00511108
v 0.01297296 0.02138978 -0.00520364
v 0.01443863 0.02138978 -0.00520364
v 0.01443863 0.02175283 0.00511108
v 0.01297296 0.02191443 0.00504527
v 0.01297296 0.02175209 -0.00511108
v 0.01443863 0.02143036 -0.00519335
v 0.01443863 0.02195723 0.00502778
v 0.01297296 0.02198306 0.00501647
v 0.01443863 0.02175209 -0.00511108
v 0.01297296 0.02182072 -0.00508332
v 0.01443863 0.02177792 -0.00510080
v 0.01443863 0.02198306 0.00501647
v 0.01297296 0.02230995 0.00480771
v 0.01297296 0.02198232 -0.00501647
v 0.01443863 0.02198232 -0.00501647
v 0.01443863 0.02230995 0.00480771
v 0.01297296 0.02256084 0.00462054
v 0.01297296 0.02230995 -0.00480360
v 0.01443863 0.02230995 -0.00480360
v 0.01443863 0.02256084 0.00462054
v 0.01443863 0.02276008 0.00436962
v 0.01297296 0.02275934 0.00436962
v 0.01297296 0.02255715 -0.00461643
v 0.01443863 0.02233725 -0.00478303
v 0.01443863 0.02296890 0.00407755
v 0.01297296 0.02296890 0.00407755
v 0.01297296 0.02275639 -0.00436962
v 0.01443863 0.02255715 -0.00461643
v 0.01443863 0.02307295 0.00384719
v 0.01297296 0.02304196 0.00391610
v 0.01297296 0.02296890 -0.00407755
v 0.01443863 0.02275639 -0.00436962
v 0.01443863 0.02317995 0.00349343
v 0.01297296 0.02315781 0.00356747
v 0.01297296 0.02307295 0.00384719
v 0.01297296 0.02299990 -0.00400865
v 0.01443863 0.02298071 -0.00405184
v 0.01443863 0.02296890 -0.00407755
v 0.01443863 0.02319323 0.00344921
v 0.01297296 0.02319323 0.00344921
v 0.01297296 0.02307221 -0.00384720
v 0.01443863 0.02307221 -0.00384720
v 0.01443863 0.02324046 0.00304094
v 0.01297296 0.02323086 0.00312630
v 0.01297296 0.02310837 -0.00372893
v 0.01443863 0.02319249 -0.00344921
v 0.01443863 0.02324636 0.00298952
v 0.01297296 0.02324636 0.00298952
v 0.01297296 0.02319249 -0.00344921
v 0.01297296 0.02320872 -0.00331243
v 0.01443863 0.02324636 -0.00298952
v 0.01443863 0.02325226 0.00258125
v 0.01297296 0.02325300 0.00252983
v 0.01297296 0.02324636 -0.00298952
v 0.01297296 0.02324857 -0.00285275
v 0.01443863 0.02325300 -0.00252983
v 0.01443863 0.02325300 0.00252983
v 0.01297296 0.02325300 -0.00252983
f 1 2 3
f 1 3 4
f 1 4 8
f 1 8 14
f 1 14 13
f 1 13 18
f 1 18 24
f 1 24 32
f 1 32 36
f 1 36 40
f 1 40 42
f 1 42 48
f 1 48 55
f 1 55 60
f 1 60 65
f 1 65 69
f 1 69 73
f 1 73 77
f 1 77 80
f 1 80 82
f 1 82 86
f 1 86 90
f 1 90 95
f 1 95 99
f 1 99 103
f 1 103 109
f 1 109 108
f 1 108 113
f 1 113 117
f 1 117 122
f 1 122 127
f 1 127 128
f 1 128 123
f 1 123 118
f 1 118 114
f 1 114 110
f 1 110 104
f 1 104 100
f 1 100 96
f 1 96 92
f 1 92 91
f 1 91 87
f 1 87 83
f 1 83 78
f 1 78 74
f 1 74 70
f 1 70 66
f 1 66 62
f 1 62 61
f 1 61 56
f 1 56 49
f 1 49 43
f 1 43 38
f 1 38 34
f 1 34 33
f 1 33 26
f 1 26 20
f 1 20 15
f 1 15 9
f 1 9 5
f 1 5 6
f 1 6 2
f 2 6 10
f 2 10 16
f 2 16 19
f 2 19 25
f 2 25 29
f 2 29 28
f 2 28 27
f 2 27 35
f 2 35 39
f 2 39 46
f 2 46 51
f 2 51 57
f 2 57 63
f 2 63 67
f 2 67 71
f 2 71 75
f 2 75 79
f 2 79 84
f 2 84 88
f 2 88 93
f 2 93 97
f 2 97 101
f 2 101 106
f 2 106 105
f 2 105 111
f 2 111 115
f 2 115 119
f 2 119 124
f 2 124 129
f 2 129 126
f 2 126 125
f 2 125 121
f 2 121 120
f 2 120 116
f 2 116 112
f 2 112 107
f 2 107 102
f 2 102 98
f 2 98 94
f 2 94 89
f 2 89 85
f 2 85 81
f 2 81 76
f 2 76 72
f 2 72 68
f 2 68 64
f 2 64 58
f 2 58 52
f 2 52 47
f 2 47 41
f 2 41 37
f 2 37 31
f 2 31 30
f 2 30 23
f 2 23 22
f 2 22 17
f 2 17 11
f 2 11 7
f 2 7 3
f 3 7 4
f 4 7 8
f 5 9 10
f 5 10 6
f 7 11 12
f 7 12 13
f 7 13 14
f 7 14 8
f 9 15 16
f 9 16 10
f 11 17 12
f 12 17 18
f 12 18 13
f 15 19 16
f 15 20 21
f 15 21 19
f 17 22 18
f 18 22 23
f 18 23 24
f 19 21 25
f 20 26 27
f 20 27 28
f 20 28 29
f 20 29 25
f 20 25 21
f 23 30 24
f 24 30 31
f 24 31 32
f 26 33 27
f 27 33 34
f 27 34 35
f 31 36 32
f 31 37 36
f 34 38 35
f 35 38 39
f 36 37 40
f 37 41 42
f 37 42 40
f 38 43 44
f 38 44 39
f 39 44 45
f 39 45 46
f 41 47 48
f 41 48 42
f 43 45 44
f 43 49 50
f 43 50 45
f 45 50 46
f 46 50 49
f 46 49 56
f 46 56 51
f 47 52 53
f 47 53 48
f 48 53 54
f 48 54 55
f 51 56 61
f 51 61 57
f 52 58 59
f 52 59 53
f 53 59 60
f 53 60 55
f 53 55 54
f 57 61 62
f 57 62 63
f 58 64 65
f 58 65 60
f 58 60 59
f 62 66 63
f 63 66 67
f 64 68 69
f 64 69 65
f 66 70 67
f 67 70 71
f 68 72 73
f 68 73 69
f 70 74 71
f 71 74 75
f 72 76 77
f 72 77 73
f 74 78 75
f 75 78 79
f 76 80 77
f 76 81 82
f 76 82 80
f 78 83 79
f 79 83 87
f 79 87 84
f 81 85 86
f 81 86 82
f 84 87 91
f 84 91 88
f 85 89 90
f 85 90 86
f 88 92 93
f 88 91 92
f 89 94 95
f 89 95 90
f 92 96 97
f 92 97 93
f 94 98 103
f 94 103 99
f 94 99 95
f 96 100 101
f 96 101 97
f 98 102 109
f 98 109 103
f 100 104 105
f 100 105 106
f 100 106 101
f 102 107 108
f 102 108 109
f 104 110 105
f 105 110 111
f 107 112 108
f 108 112 113
f 110 114 115
f 110 115 111
f 112 116 113
f 113 116 117
f 114 118 115
f 115 118 119
f 116 120 117
f 117 120 121
f 117 121 122
f 118 123 119
f 119 123 124
f 121 125 122
f 122 125 126
f 122 126 127
f 123 128 124
f 124 128 127
f 124 127 129
f 126 129 127

