# https://github.com/mikedh/trimesh
v 0.02325300 0.01058554 0.00252983
v 0.02324696 0.01058554 0.00298952
v 0.02325300 0.00849341 0.00252983
v 0.02325300 0.01058554 -0.00252983
v 0.02319378 0.01058554 0.00344921
v 0.02324696 0.00849341 0.00298952
v 0.02325300 0.00849341 -0.00252983
v 0.02324696 0.01058554 -0.00298952
v 0.02319378 0.00849341 0.00344921
v 0.02307291 0.01058554 0.00384822
v 0.02324696 0.00849341 -0.00298952
v 0.02321976 0.01058554 -0.00322502
v 0.02307291 0.00849341 0.00384822
v 0.02302276 0.01058554 0.00396135
v 0.02306929 0.00849341 0.00385748
v 0.02319378 0.00849341 -0.00344921
v 0.02319378 0.01058554 -0.00344921
v 0.02296957 0.01058554 0.00407858
v 0.02296957 0.00849341 0.00407858
v 0.02307291 0.00849341 -0.00384822
v 0.02307291 0.01058554 -0.00384822
v 0.02286805 0.01058554 0.00422050
v 0.02296232 0.00849341 0.00408887
v 0.02302034 0.01058554 -0.00396649
v 0.02297380 0.00849341 -0.00407036
v 0.02276108 0.00849341 0.00436962
v 0.02276108 0.01058554 0.00436962
v 0.02296957 0.01058554 -0.00407858
v 0.02296957 0.00849341 -0.00407858
v 0.02275383 0.00849341 0.00437887
v 0.02266319 0.01058554 0.00449199
v 0.02256106 0.00897000 0.00462054
v 0.02286321 0.01058554 -0.00422770
v 0.02276894 0.00849341 -0.00435933
v 0.02256106 0.00849341 0.00462054
v 0.02256106 0.01058554 0.00461951
v 0.02230966 0.01058554 0.00480771
v 0.02276108 0.01058554 -0.00436962
v 0.02276108 0.00849341 -0.00436962
v 0.02230966 0.00849341 0.00480771
v 0.02198272 0.01058554 0.00501647
v 0.02256106 0.01058554 -0.00462054
v 0.02256106 0.00849341 -0.00462054
v 0.02198272 0.00849341 0.00501647
v 0.02197487 0.00849341 0.00502058
v 0.02187093 0.01058554 0.00506275
v 0.02231872 0.00849341 -0.00479948
v 0.02230966 0.01058554 -0.00480565
v 0.02175308 0.01058554 0.00511108
v 0.02175308 0.00849341 0.00511108
v 0.02230966 0.00849341 -0.00480565
v 0.02197849 0.01058554 -0.00501544
v 0.02173979 0.00849341 0.00511520
v 0.02157602 0.01058554 0.00515736
v 0.02197849 0.00849341 -0.00501544
v 0.02175731 0.00849341 -0.00510697
v 0.02174886 0.01058554 -0.00511005
v 0.02138989 0.00849341 0.00520467
v 0.02138989 0.01058554 0.00520467
v 0.02174886 0.00849341 -0.00511005
v 0.02156514 0.01058554 -0.00515839
v 0.02137297 0.00849341 0.00520672
v 0.02092940 0.01058554 0.00524991
v 0.02140258 0.00849341 -0.00520055
v 0.02138989 0.01058554 -0.00520364
v 0.02092940 0.00849341 0.00524991
v 0.02046952 0.01058554 0.00525300
v 0.02138989 0.00849341 -0.00520364
v 0.02092940 0.01058554 -0.00524991
v 0.02046952 0.00849341 0.00525300
v 0.01909047 0.01058554 0.00525300
v 0.02092940 0.00849341 -0.00524991
v 0.02046952 0.01058554 -0.00525300
v 0.01907355 0.00849341 0.00525300
v 0.01863058 0.00851000 0.00525197
v 0.01863058 0.01058554 0.00524066
v 0.02046952 0.00849341 -0.00525300
v 0.01909047 0.01058554 -0.00525300
v 0.01863058 0.00849341 0.00525197
v 0.01861306 0.00849341 0.00524889
v 0.01828673 0.01058554 0.00514399
v 0.01823778 0.00851000 0.00515633
v 0.01909047 0.00849341 -0.00525300
v 0.01863058 0.00851000 -0.00525197
v 0.01885478 0.01058554 -0.00524786
v 0.01823476 0.00849341 0.00515530
v 0.01822448 0.00849341 0.00515016
v 0.01805709 0.01058554 0.00494346
v 0.01799786 0.00849341 0.00499487
v 0.01800632 0.00849341 0.00500207
v 0.01863058 0.00849341 -0.00525197
v 0.01823778 0.00851000 -0.00515633
v 0.01863058 0.01058554 -0.00524066
v 0.01782563 0.01058554 0.00471310
v 0.01752468 0.00849341 0.00453930
v 0.01775070 0.00849341 0.00476040
v 0.01776339 0.00849341 0.00477274
v 0.01823476 0.00849341 -0.00515530
v 0.01828673 0.01058554 -0.00514399
v 0.01845050 0.01058554 -0.00519130
v 0.01759599 0.01058554 0.00448377
v 0.01730955 0.00849341 0.00431717
v 0.01800632 0.00849341 -0.00500207
v 0.01816888 0.01058554 -0.00504321
v 0.01738086 0.01058554 0.00425444
v 0.01729686 0.00849341 0.00429249
v 0.01776339 0.00849341 -0.00477274
v 0.01805709 0.01058554 -0.00494346
v 0.01724851 0.01058554 0.00390993
v 0.01710952 0.00849341 0.00390993
v 0.01753314 0.00849341 -0.00454753
v 0.01793864 0.01058554 -0.00482622
v 0.01721467 0.01058554 0.00344921
v 0.01707991 0.00849341 0.00344921
v 0.01730955 0.00849341 -0.00431717
v 0.01759599 0.01058554 -0.00448377
v 0.01770779 0.01058554 -0.00459586
v 0.01721406 0.01058554 0.00298952
v 0.01707991 0.00849341 -0.00344921
v 0.01710952 0.00849341 -0.00390993
v 0.01738086 0.01058554 -0.00425444
v 0.01748540 0.01058554 -0.00436653
v 0.01721406 0.01058554 -0.00321371
v 0.01721467 0.01058554 -0.00344921
v 0.01708112 0.00849341 -0.00347492
v 0.01723099 0.01058554 -0.00367443
v 0.01724851 0.01058554 -0.00390993
v 0.01730834 0.01058554 -0.00407344
f 1 2 6
f 1 6 3
f 1 3 7
f 1 7 4
f 1 4 8
f 1 8 12
f 1 12 17
f 1 17 21
f 1 21 24
f 1 24 28
f 1 28 33
f 1 33 38
f 1 38 42
f 1 42 48
f 1 48 52
f 1 52 57
f 1 57 61
f 1 61 65
f 1 65 69
f 1 69 73
f 1 73 78
f 1 78 85
f 1 85 93
f 1 93 100
f 1 100 99
f 1 99 104
f 1 104 108
f 1 108 112
f 1 112 117
f 1 117 116
f 1 116 122
f 1 122 121
f 1 121 128
f 1 128 127
f 1 127 126
f 1 126 124
f 1 124 123
f 1 123 118
f 1 118 113
f 1 113 109
f 1 109 105
f 1 105 101
f 1 101 94
f 1 94 88
f 1 88 81
f 1 81 76
f 1 76 71
f 1 71 67
f 1 67 63
f 1 63 59
f 1 59 54
f 1 54 49
f 1 49 46
f 1 46 41
f 1 41 37
f 1 37 36
f 1 36 31
f 1 31 27
f 1 27 22
f 1 22 18
f 1 18 14
f 1 14 10
f 1 10 5
f 1 5 2
f 2 5 9
f 2 9 6
f 3 6 9
f 3 9 13
f 3 13 15
f 3 15 19
f 3 19 23
f 3 23 26
f 3 26 30
f 3 30 35
f 3 35 40
f 3 40 44
f 3 44 45
f 3 45 50
f 3 50 53
f 3 53 58
f 3 58 62
f 3 62 66
f 3 66 70
f 3 70 74
f 3 74 79
f 3 79 80
f 3 80 86
f 3 86 87
f 3 87 90
f 3 90 89
f 3 89 97
f 3 97 96
f 3 96 95
f 3 95 102
f 3 102 106
f 3 106 110
f 3 110 114
f 3 114 119
f 3 119 125
f 3 125 120
f 3 120 115
f 3 115 111
f 3 111 107
f 3 107 103
f 3 103 98
f 3 98 91
f 3 91 83
f 3 83 77
f 3 77 72
f 3 72 68
f 3 68 64
f 3 64 60
f 3 60 56
f 3 56 55
f 3 55 51
f 3 51 47
f 3 47 43
f 3 43 39
f 3 39 34
f 3 34 29
f 3 29 25
f 3 25 20
f 3 20 16
f 3 16 11
f 3 11 7
f 4 7 11
f 4 11 8
f 5 10 13
f 5 13 9
f 8 11 12
f 10 14 15
f 10 15 13
f 11 16 12
f 12 16 17
f 14 18 19
f 14 19 15
f 16 20 21
f 16 21 17
f 18 22 23
f 18 23 19
f 20 24 21
f 20 25 24
f 22 26 23
f 22 27 26
f 24 25 28
f 25 29 28
f 26 27 30
f 27 31 32
f 27 32 30
f 28 29 33
f 29 34 33
f 30 32 35
f 31 36 32
f 32 37 40
f 32 40 35
f 32 36 37
f 33 34 38
f 34 39 38
f 37 41 44
f 37 44 40
f 38 39 43
f 38 43 42
f 41 45 44
f 41 46 45
f 42 43 47
f 42 47 48
f 45 46 49
f 45 49 50
f 47 51 48
f 48 51 55
f 48 55 52
f 49 53 50
f 49 54 53
f 52 55 56
f 52 56 57
f 53 54 58
f 54 59 58
f 56 60 57
f 57 60 61
f 58 59 62
f 59 63 62
f 60 64 61
f 61 64 65
f 62 63 66
f 63 67 70
f 63 70 66
f 64 68 65
f 65 68 72
f 65 72 69
f 67 71 74
f 67 74 70
f 69 72 77
f 69 77 73
f 71 75 74
f 71 76 75
f 73 77 83
f 73 83 78
f 74 75 79
f 75 76 80
f 75 80 79
f 76 81 82
f 76 82 80
f 78 83 91
f 78 91 84
f 78 84 85
f 80 82 86
f 81 87 86
f 81 86 82
f 81 88 89
f 81 89 90
f 81 90 87
f 84 92 93
f 84 93 85
f 84 91 92
f 88 94 95
f 88 95 96
f 88 96 97
f 88 97 89
f 91 98 92
f 92 98 99
f 92 99 100
f 92 100 93
f 94 101 95
f 95 101 102
f 98 103 99
f 99 103 104
f 101 105 102
f 102 105 106
f 103 107 108
f 103 108 104
f 105 109 110
f 105 110 106
f 107 111 108
f 108 111 112
f 109 113 110
f 110 113 114
f 111 115 116
f 111 116 117
f 111 117 112
f 113 118 114
f 114 118 123
f 114 123 119
f 115 120 121
f 115 121 122
f 115 122 116
f 119 123 124
f 119 124 125
f 120 125 124
f 120 124 126
f 120 126 127
f 120 127 128
f 120 128 121

