# https://github.com/mikedh/trimesh
v 0.01639052 0.00350978 0.00525300
v 0.01639052 0.00397054 0.00525094
v 0.01587006 0.00344894 0.00525197
v 0.01568269 0.00298947 0.00525300
v 0.01639052 -0.00344962 0.00525300
v 0.01639052 0.00448049 0.00517998
v 0.01568269 0.00326257 0.00525197
v 0.01568269 -0.00298885 0.00525300
v 0.01632995 -0.00344962 0.00525300
v 0.01639052 -0.00390909 0.00525094
v 0.01639052 0.00464746 0.00513782
v 0.01568269 0.00378417 0.00517381
v 0.01568269 0.00346318 0.00522215
v 0.01568269 -0.00346386 0.00522215
v 0.01587006 -0.00344962 0.00525197
v 0.01632995 -0.00390909 0.00525094
v 0.01639052 -0.00439445 0.00518821
v 0.01639052 0.00477689 0.00509668
v 0.01568269 0.00387477 0.00514913
v 0.01568269 -0.00387415 0.00514913
v 0.01584248 -0.00393757 0.00517279
v 0.01629836 -0.00439963 0.00517381
v 0.01639052 -0.00464684 0.00513782
v 0.01639052 0.00494773 0.00501133
v 0.01568269 0.00411550 0.00504115
v 0.01597739 0.00426694 0.00512137
v 0.01568269 -0.00413042 0.00503292
v 0.01597739 -0.00426761 0.00512137
v 0.01639052 -0.00482933 0.00506583
v 0.01639052 0.00629638 0.00424415
v 0.01568269 0.00412974 0.00503292
v 0.01568269 -0.00521892 0.00428117
v 0.01639052 -0.00629577 0.00424415
v 0.01639052 0.00644264 0.00408681
v 0.01609269 0.00599093 0.00414748
v 0.01568269 0.00521953 0.00428117
v 0.01568269 0.00509528 0.00437167
v 0.01568269 0.00424234 0.00496094
v 0.01568269 -0.00546871 0.00390993
v 0.01609269 -0.00599161 0.00414748
v 0.01639052 -0.00655592 0.00390170
v 0.01639052 0.00655653 0.00390067
v 0.01568269 0.00546804 0.00391095
v 0.01568269 -0.00551401 0.00344921
v 0.01639052 -0.00660898 0.00344921
v 0.01639052 0.00657336 0.00376390
v 0.01639052 0.00660831 0.00344921
v 0.01568269 0.00551463 0.00344921
v 0.01568269 -0.00551531 0.00298952
v 0.01639052 -0.00661157 0.00298952
v 0.01639052 0.00660960 0.00338031
v 0.01568269 0.00551593 0.00298952
v 0.01639052 0.00661089 0.00298952
v 0.01568269 -0.00551531 -0.00303477
v 0.01639052 -0.00661028 -0.00298952
v 0.01568269 0.00551593 -0.00298952
v 0.01639052 0.00661089 -0.00298952
v 0.01568269 -0.00551401 -0.00344921
v 0.01639052 -0.00660898 -0.00344921
v 0.01568269 0.00551463 -0.00344921
v 0.01639052 0.00660831 -0.00344921
v 0.01568269 -0.00551143 -0.00348726
v 0.01639052 -0.00657274 -0.00376390
v 0.01568269 -0.00546871 -0.00390993
v 0.01568269 0.00546804 -0.00391096
v 0.01639052 0.00655653 -0.00390067
v 0.01639052 -0.00655592 -0.00390067
v 0.01609269 -0.00599161 -0.00414748
v 0.01568269 -0.00521892 -0.00428117
v 0.01609269 0.00599093 -0.00414748
v 0.01568269 0.00521953 -0.00428117
v 0.01639052 0.00629638 -0.00424415
v 0.01639052 -0.00644202 -0.00408681
v 0.01639052 -0.00629577 -0.00424415
v 0.01568269 -0.00509466 -0.00437167
v 0.01568269 0.00437954 -0.00486118
v 0.01639052 0.00482995 -0.00506583
v 0.01568269 0.00412974 -0.00503293
v 0.01639052 -0.00494711 -0.00501133
v 0.01568269 -0.00424302 -0.00496094
v 0.01568269 -0.00413042 -0.00503293
v 0.01568269 -0.00411618 -0.00504115
v 0.01639052 0.00464746 -0.00513782
v 0.01597739 0.00426694 -0.00512137
v 0.01568269 0.00387477 -0.00514913
v 0.01639052 -0.00477756 -0.00509669
v 0.01597739 -0.00426761 -0.00512137
v 0.01568269 -0.00387415 -0.00514913
v 0.01639052 0.00439378 -0.00518821
v 0.01629836 0.00440025 -0.00517381
v 0.01568269 0.00346318 -0.00522215
v 0.01584248 0.00393689 -0.00517279
v 0.01639052 -0.00464684 -0.00513782
v 0.01568269 -0.00378484 -0.00517381
v 0.01639052 0.00390971 -0.00525094
v 0.01632995 0.00390971 -0.00525094
v 0.01587006 0.00344894 -0.00525197
v 0.01568269 0.00298947 -0.00525300
v 0.01639052 -0.00448117 -0.00517998
v 0.01568269 -0.00346386 -0.00522215
v 0.01639052 0.00344894 -0.00525300
v 0.01632995 0.00344894 -0.00525300
v 0.01568269 -0.00298885 -0.00525300
v 0.01639052 -0.00396993 -0.00525094
v 0.01568269 -0.00326195 -0.00525197
v 0.01587006 -0.00344962 -0.00525197
v 0.01639052 -0.00351045 -0.00525300
f 1 2 3
f 1 3 4
f 1 4 8
f 1 8 9
f 1 9 5
f 1 5 10
f 1 10 17
f 1 17 23
f 1 23 29
f 1 29 33
f 1 33 41
f 1 41 45
f 1 45 50
f 1 50 55
f 1 55 59
f 1 59 63
f 1 63 67
f 1 67 73
f 1 73 74
f 1 74 79
f 1 79 86
f 1 86 93
f 1 93 99
f 1 99 104
f 1 104 107
f 1 107 101
f 1 101 95
f 1 95 89
f 1 89 83
f 1 83 77
f 1 77 72
f 1 72 66
f 1 66 61
f 1 61 57
f 1 57 53
f 1 53 51
f 1 51 47
f 1 47 46
f 1 46 42
f 1 42 34
f 1 34 30
f 1 30 24
f 1 24 18
f 1 18 11
f 1 11 6
f 1 6 2
f 2 6 3
f 3 7 4
f 3 6 7
f 4 7 13
f 4 13 12
f 4 12 19
f 4 19 25
f 4 25 31
f 4 31 38
f 4 38 37
f 4 37 36
f 4 36 43
f 4 43 48
f 4 48 52
f 4 52 56
f 4 56 60
f 4 60 65
f 4 65 71
f 4 71 76
f 4 76 78
f 4 78 85
f 4 85 91
f 4 91 98
f 4 98 103
f 4 103 105
f 4 105 100
f 4 100 94
f 4 94 88
f 4 88 82
f 4 82 81
f 4 81 80
f 4 80 75
f 4 75 69
f 4 69 64
f 4 64 62
f 4 62 58
f 4 58 54
f 4 54 49
f 4 49 44
f 4 44 39
f 4 39 32
f 4 32 27
f 4 27 20
f 4 20 14
f 4 14 8
f 5 9 16
f 5 16 10
f 6 11 12
f 6 12 13
f 6 13 7
f 8 14 15
f 8 15 9
f 9 15 16
f 10 16 17
f 11 18 19
f 11 19 12
f 14 20 21
f 14 21 22
f 14 22 17
f 14 17 15
f 15 17 16
f 17 22 23
f 18 24 25
f 18 25 26
f 18 26 19
f 19 26 25
f 20 27 28
f 20 28 23
f 20 23 21
f 21 23 22
f 23 28 29
f 24 30 25
f 25 30 31
f 27 29 28
f 27 32 33
f 27 33 29
f 30 34 35
f 30 35 36
f 30 36 37
f 30 37 38
f 30 38 31
f 32 39 40
f 32 40 33
f 33 40 41
f 34 42 35
f 35 42 43
f 35 43 36
f 39 44 45
f 39 45 41
f 39 41 40
f 42 46 43
f 43 46 47
f 43 47 48
f 44 49 50
f 44 50 45
f 47 51 48
f 48 51 53
f 48 53 52
f 49 54 50
f 50 54 55
f 52 53 57
f 52 57 56
f 54 58 59
f 54 59 55
f 56 57 60
f 57 61 60
f 58 62 59
f 59 62 64
f 59 64 63
f 60 61 65
f 61 66 65
f 63 64 67
f 64 68 67
f 64 69 68
f 65 66 70
f 65 70 71
f 66 72 70
f 67 68 73
f 68 74 73
f 68 69 74
f 69 75 74
f 70 72 71
f 71 72 76
f 72 77 78
f 72 78 76
f 74 75 80
f 74 80 81
f 74 81 82
f 74 82 79
f 77 83 84
f 77 84 78
f 78 84 85
f 79 82 86
f 82 87 86
f 82 88 87
f 83 89 90
f 83 90 85
f 83 85 84
f 85 90 92
f 85 92 91
f 86 87 88
f 86 88 93
f 88 94 93
f 89 95 96
f 89 96 90
f 90 96 97
f 90 97 91
f 90 91 92
f 91 97 98
f 93 94 99
f 94 100 99
f 95 101 102
f 95 102 96
f 96 102 97
f 97 102 98
f 98 102 101
f 98 101 107
f 98 107 103
f 99 100 105
f 99 105 106
f 99 106 104
f 103 107 106
f 103 106 105
f 104 106 107

