# https://github.com/mikedh/trimesh
v -0.00910932 -0.02047004 -0.00525300
v -0.00910932 -0.02092927 -0.00524991
v -0.00910932 -0.01909047 -0.00525300
v 0.00880669 -0.02047004 -0.00525300
v -0.00910932 -0.02125010 -0.00521906
v 0.00880669 -0.02092927 -0.00524991
v -0.00910932 -0.01863062 -0.00524477
v -0.00896727 -0.01863062 -0.00524889
v -0.00850780 -0.01863062 -0.00525197
v -0.00436726 -0.01682579 -0.00525300
v 0.00880669 -0.01909047 -0.00525300
v -0.00910932 -0.02138976 -0.00520364
v 0.00880669 -0.02122620 -0.00522112
v 0.00880669 -0.02138976 -0.00520364
v -0.00910932 -0.01827456 -0.00514913
v -0.00482674 -0.01682579 -0.00521084
v 0.00440485 -0.01682579 -0.00525300
v 0.00804908 -0.01863062 -0.00525300
v 0.00850856 -0.01863062 -0.00525197
v 0.00880669 -0.01892754 -0.00525197
v -0.00910932 -0.02175274 -0.00511211
v 0.00880669 -0.02175274 -0.00511211
v -0.00910932 -0.01804431 -0.00495682
v -0.00529147 -0.01682579 -0.00511931
v 0.00486432 -0.01682579 -0.00520878
v 0.00880669 -0.01863062 -0.00524991
v -0.00910932 -0.02198235 -0.00501647
v 0.00880669 -0.02190120 -0.00505041
v -0.00910932 -0.01778073 -0.00469664
v -0.00695400 -0.01682579 -0.00433362
v -0.00910932 -0.01758131 -0.00449816
v -0.00910932 -0.01736553 -0.00426883
v 0.00527294 -0.01682579 -0.00512445
v 0.00880669 -0.01825694 -0.00515325
v 0.00880669 -0.01849096 -0.00521598
v -0.00910932 -0.02230947 -0.00480668
v 0.00880669 -0.02198235 -0.00501647
v 0.00880669 -0.02219372 -0.00488175
v -0.00789224 -0.01700130 -0.00416188
v -0.00910932 -0.01721770 -0.00390993
v -0.00712060 -0.01682579 -0.00422050
v 0.00529223 -0.01682579 -0.00511931
v 0.00880669 -0.01817579 -0.00509874
v -0.00910932 -0.02256048 -0.00461951
v 0.00880669 -0.02230947 -0.00480668
v -0.00910932 -0.01720701 -0.00377007
v -0.00750818 -0.01682579 -0.00390684
v 0.00549566 -0.01682579 -0.00504012
v 0.00880669 -0.01748191 -0.00443852
v 0.00880669 -0.01756055 -0.00451873
v 0.00880669 -0.01770901 -0.00466682
v 0.00880669 -0.01794177 -0.00489512
v 0.00880669 -0.01802733 -0.00497739
v -0.00910932 -0.02270013 -0.00444572
v 0.00880669 -0.02256048 -0.00461951
v -0.00910932 -0.01718373 -0.00344818
v -0.00758709 -0.01682579 -0.00344921
v 0.00695476 -0.01682579 -0.00433362
v 0.00880669 -0.01734226 -0.00428837
v -0.00910932 -0.02276115 -0.00436859
v 0.00880669 -0.02276115 -0.00436859
v -0.00910932 -0.01718310 -0.00298952
v -0.00758709 -0.01682579 0.00344818
v 0.00709506 -0.01682579 -0.00425958
v 0.00789475 -0.01700130 -0.00416188
v 0.00880669 -0.01727243 -0.00414543
v -0.00910932 -0.02296938 -0.00407858
v 0.00880669 -0.02289515 -0.00418245
v -0.00910932 -0.01718310 0.00298952
v -0.00750818 -0.01682579 0.00390684
v -0.00910932 -0.01718373 0.00344818
v 0.00737390 -0.01682579 -0.00407550
v 0.00880669 -0.01717178 -0.00390993
v -0.00910932 -0.02307255 -0.00384720
v 0.00880669 -0.02296938 -0.00407858
v 0.00880669 -0.02303543 -0.00393049
v -0.00737314 -0.01682579 0.00407550
v -0.00910932 -0.01721770 0.00390993
v 0.00750893 -0.01682579 -0.00390684
v 0.00880669 -0.01713907 -0.00344818
v -0.00850780 -0.02307255 -0.00384720
v -0.00910932 -0.02319333 -0.00344818
v 0.00880669 -0.02307192 -0.00384720
v -0.00709430 -0.01682579 0.00425958
v -0.00910932 -0.01725670 0.00401174
v 0.00758785 -0.01682579 -0.00344818
v 0.00758961 -0.01682579 -0.00312218
v 0.00880669 -0.01713907 0.00344818
v -0.00804832 -0.02319333 -0.00344818
v -0.00910932 -0.02324617 -0.00298952
v 0.00880669 -0.02319207 -0.00344818
v 0.00344907 -0.02319270 -0.00344818
v -0.00695400 -0.01682579 0.00433362
v -0.00910932 -0.01736553 0.00426883
v 0.00758961 -0.01682579 0.00312218
v 0.00880669 -0.01714976 0.00361169
v 0.00758785 -0.01682579 0.00344818
v 0.00750893 -0.01682579 0.00390684
v 0.00620767 -0.02324617 -0.00298952
v -0.00910932 -0.02325058 -0.00266866
v 0.00880669 -0.02322667 -0.00315303
v -0.00549491 -0.01682579 0.00504012
v -0.00910932 -0.01743033 0.00433876
v -0.00529147 -0.01682579 0.00511931
v 0.00880669 -0.01717178 0.00390993
v 0.00712136 -0.01682579 0.00422050
v 0.00789475 -0.01700130 0.00416188
v 0.00880669 -0.02324554 -0.00298952
v 0.00880669 -0.02324995 -0.00269232
v -0.00910932 -0.02325184 -0.00252983
v 0.00880669 -0.02325184 -0.00252983
v -0.00910932 -0.01758131 0.00449816
v -0.00527043 -0.01682579 0.00512445
v -0.00910932 -0.01778073 0.00469664
v -0.00910932 -0.01788138 0.00479640
v -0.00910932 -0.01804431 0.00495682
v -0.00910932 -0.01811414 0.00501853
v -0.00910932 -0.01827456 0.00514913
v 0.00880669 -0.01734226 0.00428837
v 0.00695476 -0.01682579 0.00433362
v -0.00910932 -0.02325184 0.00252983
v 0.00880669 -0.02325184 0.00252983
v -0.00486357 -0.01682579 0.00520878
v -0.00910932 -0.01837835 0.00517896
v 0.00529223 -0.01682579 0.00511931
v 0.00880669 -0.01756055 0.00451873
v -0.00910932 -0.02324869 0.00284863
v 0.00880669 -0.02324869 0.00282601
v -0.00440234 -0.01682579 0.00525300
v -0.00910932 -0.01863062 0.00524477
v 0.00482925 -0.01682579 0.00521084
v 0.00880669 -0.01825694 0.00515325
v 0.00880669 -0.01802733 0.00497739
v 0.00880669 -0.01779079 0.00474703
v -0.00910932 -0.02324617 0.00298952
v 0.00880669 -0.02324617 0.00298952
v 0.00436977 -0.01682579 0.00525300
v -0.00896727 -0.01863062 0.00524889
v -0.00850780 -0.01863062 0.00525197
v -0.00910932 -0.01909047 0.00525300
v -0.00910932 -0.01876964 0.00524991
v 0.00880669 -0.01863062 0.00524991
v -0.00910932 -0.02319333 0.00344818
v 0.00880669 -0.02321220 0.00328467
v 0.00804908 -0.01863062 0.00525300
v 0.00850856 -0.01863062 0.00525197
v -0.00910932 -0.02047004 0.00525300
v 0.00880669 -0.01909047 0.00525300
v 0.00436977 -0.02319333 0.00344818
v -0.00910932 -0.02310903 0.00372790
v 0.00880669 -0.02319270 0.00344818
v -0.00910932 -0.02092927 0.00524889
v 0.00880669 -0.02047004 0.00525300
v 0.00880669 -0.02311532 0.00370528
v 0.00880669 -0.02307255 0.00384719
v -0.00910932 -0.02307255 0.00384719
v -0.00910932 -0.02138976 0.00520364
v 0.00160942 -0.02092927 0.00524889
v 0.00880669 -0.02092927 0.00524683
v 0.00880669 -0.02300587 0.00399528
v 0.00390855 -0.02296938 0.00407858
v -0.00910932 -0.02300083 0.00400865
v -0.00910932 -0.02149922 0.00517690
v 0.00880669 -0.02138976 0.00520364
v 0.00880669 -0.02296875 0.00407652
v -0.00022673 -0.02276115 0.00436859
v -0.00910932 -0.02296938 0.00407858
v 0.00880669 -0.02276052 0.00436859
v -0.00910932 -0.02175274 0.00511211
v 0.00880669 -0.02175274 0.00511211
v -0.00910932 -0.02262087 0.00454444
v -0.00910932 -0.02276115 0.00436859
v 0.00880669 -0.02256048 0.00461951
v -0.00910932 -0.02182257 0.00508332
v 0.00880669 -0.02198235 0.00501647
v -0.00910932 -0.02256048 0.00461951
v 0.00880669 -0.02230947 0.00480668
v -0.00910932 -0.02198235 0.00501647
v -0.00910932 -0.02208175 0.00495374
v -0.00910932 -0.02230947 0.00480668
f 1 2 5
f 1 5 12
f 1 12 21
f 1 21 27
f 1 27 36
f 1 36 44
f 1 44 54
f 1 54 60
f 1 60 67
f 1 67 74
f 1 74 82
f 1 82 90
f 1 90 100
f 1 100 110
f 1 110 121
f 1 121 127
f 1 127 135
f 1 135 143
f 1 143 150
f 1 150 156
f 1 156 162
f 1 162 167
f 1 167 172
f 1 172 171
f 1 171 176
f 1 176 180
f 1 180 179
f 1 179 178
f 1 178 174
f 1 174 169
f 1 169 163
f 1 163 157
f 1 157 152
f 1 152 147
f 1 147 140
f 1 140 141
f 1 141 130
f 1 130 124
f 1 124 118
f 1 118 117
f 1 117 116
f 1 116 115
f 1 115 114
f 1 114 112
f 1 112 103
f 1 103 94
f 1 94 85
f 1 85 78
f 1 78 71
f 1 71 69
f 1 69 62
f 1 62 56
f 1 56 46
f 1 46 40
f 1 40 32
f 1 32 31
f 1 31 29
f 1 29 23
f 1 23 15
f 1 15 7
f 1 7 3
f 1 3 10
f 1 10 17
f 1 17 18
f 1 18 11
f 1 11 4
f 1 4 6
f 1 6 2
f 2 6 5
f 3 7 8
f 3 8 9
f 3 9 10
f 4 11 20
f 4 20 26
f 4 26 35
f 4 35 34
f 4 34 43
f 4 43 53
f 4 53 52
f 4 52 51
f 4 51 50
f 4 50 49
f 4 49 59
f 4 59 66
f 4 66 73
f 4 73 80
f 4 80 88
f 4 88 96
f 4 96 105
f 4 105 119
f 4 119 126
f 4 126 134
f 4 134 133
f 4 133 132
f 4 132 142
f 4 142 148
f 4 148 153
f 4 153 159
f 4 159 164
f 4 164 170
f 4 170 175
f 4 175 177
f 4 177 173
f 4 173 168
f 4 168 165
f 4 165 160
f 4 160 155
f 4 155 154
f 4 154 151
f 4 151 144
f 4 144 136
f 4 136 128
f 4 128 122
f 4 122 111
f 4 111 109
f 4 109 108
f 4 108 101
f 4 101 91
f 4 91 83
f 4 83 76
f 4 76 75
f 4 75 68
f 4 68 61
f 4 61 55
f 4 55 45
f 4 45 38
f 4 38 37
f 4 37 28
f 4 28 22
f 4 22 14
f 4 14 13
f 4 13 6
f 5 6 13
f 5 13 14
f 5 14 12
f 7 15 16
f 7 16 10
f 7 10 8
f 8 10 9
f 10 16 24
f 10 24 30
f 10 30 41
f 10 41 47
f 10 47 57
f 10 57 63
f 10 63 70
f 10 70 77
f 10 77 84
f 10 84 93
f 10 93 102
f 10 102 104
f 10 104 113
f 10 113 123
f 10 123 129
f 10 129 137
f 10 137 131
f 10 131 125
f 10 125 120
f 10 120 106
f 10 106 98
f 10 98 97
f 10 97 95
f 10 95 87
f 10 87 86
f 10 86 79
f 10 79 72
f 10 72 64
f 10 64 58
f 10 58 48
f 10 48 42
f 10 42 33
f 10 33 25
f 10 25 17
f 11 18 19
f 11 19 20
f 12 14 22
f 12 22 21
f 15 23 24
f 15 24 16
f 17 25 26
f 17 26 19
f 17 19 18
f 19 26 20
f 21 22 28
f 21 28 27
f 23 29 24
f 24 29 31
f 24 31 32
f 24 32 30
f 25 33 34
f 25 34 35
f 25 35 26
f 27 28 37
f 27 37 38
f 27 38 36
f 30 39 40
f 30 40 41
f 30 32 39
f 32 40 39
f 33 42 43
f 33 43 34
f 36 38 45
f 36 45 55
f 36 55 44
f 40 46 47
f 40 47 41
f 42 48 49
f 42 49 50
f 42 50 51
f 42 51 52
f 42 52 53
f 42 53 43
f 44 55 54
f 46 56 47
f 47 56 57
f 48 58 59
f 48 59 49
f 54 55 61
f 54 61 60
f 56 62 57
f 57 62 69
f 57 69 63
f 58 64 65
f 58 65 59
f 59 65 66
f 60 61 68
f 60 68 67
f 63 69 71
f 63 71 70
f 64 72 65
f 65 72 73
f 65 73 66
f 67 68 75
f 67 75 76
f 67 76 74
f 70 71 78
f 70 78 77
f 72 79 73
f 73 79 80
f 74 76 81
f 74 81 89
f 74 89 82
f 76 83 81
f 77 78 85
f 77 85 84
f 79 86 80
f 80 86 87
f 80 87 95
f 80 95 88
f 81 83 89
f 82 89 99
f 82 99 90
f 83 91 92
f 83 92 89
f 84 85 94
f 84 94 93
f 88 95 97
f 88 97 98
f 88 98 96
f 89 92 99
f 90 99 100
f 91 101 99
f 91 99 92
f 93 94 102
f 94 103 104
f 94 104 102
f 96 98 105
f 98 106 107
f 98 107 105
f 99 101 108
f 99 108 109
f 99 109 100
f 100 109 111
f 100 111 110
f 103 112 104
f 104 112 114
f 104 114 115
f 104 115 116
f 104 116 117
f 104 117 118
f 104 118 113
f 105 107 119
f 106 120 107
f 107 120 119
f 110 111 122
f 110 122 121
f 113 118 123
f 118 124 123
f 119 120 125
f 119 125 126
f 121 122 127
f 122 128 127
f 123 124 130
f 123 130 129
f 125 131 132
f 125 132 133
f 125 133 134
f 125 134 126
f 127 128 136
f 127 136 135
f 129 130 138
f 129 138 139
f 129 139 140
f 129 140 147
f 129 147 153
f 129 153 148
f 129 148 145
f 129 145 137
f 130 141 138
f 131 142 132
f 131 137 142
f 135 136 144
f 135 144 143
f 137 145 146
f 137 146 142
f 138 141 139
f 139 141 140
f 142 146 148
f 143 144 149
f 143 149 150
f 144 151 149
f 145 148 146
f 147 152 158
f 147 158 153
f 149 151 154
f 149 154 155
f 149 155 150
f 150 155 156
f 152 157 164
f 152 164 158
f 153 158 159
f 155 160 161
f 155 161 162
f 155 162 156
f 157 163 164
f 158 164 159
f 160 165 161
f 161 166 172
f 161 172 167
f 161 167 162
f 161 165 168
f 161 168 166
f 163 169 170
f 163 170 164
f 166 171 172
f 166 168 173
f 166 173 171
f 169 174 170
f 170 174 175
f 171 173 176
f 173 177 180
f 173 180 176
f 174 178 175
f 175 178 179
f 175 179 177
f 177 179 180

