# https://github.com/mikedh/trimesh
v 0.00880679 -0.02325300 -0.00252983
v 0.00880679 -0.02324642 -0.00298952
v 0.00989088 -0.02325300 -0.00252983
v 0.00880679 -0.02325300 0.00252983
v 0.00880679 -0.02322726 -0.00315303
v 0.00897002 -0.02324642 -0.00298952
v 0.00989088 -0.02324582 -0.00298952
v 0.00989088 -0.02325300 0.00252983
v 0.00880679 -0.02324881 0.00282601
v 0.00880679 -0.02319255 -0.00344921
v 0.00989088 -0.02319255 -0.00344921
v 0.00989088 -0.02324642 0.00298952
v 0.00880679 -0.02324642 0.00298952
v 0.00880679 -0.02315006 -0.00359113
v 0.00989088 -0.02307225 -0.00384822
v 0.00989088 -0.02319315 0.00344921
v 0.00880679 -0.02321230 0.00328570
v 0.00880679 -0.02307225 -0.00384822
v 0.00880679 -0.02303575 -0.00393049
v 0.00989088 -0.02296991 -0.00407858
v 0.00989088 -0.02307285 0.00384719
v 0.00880679 -0.02319315 0.00344921
v 0.00880679 -0.02296991 -0.00407858
v 0.00880679 -0.02289570 -0.00418245
v 0.00989088 -0.02276104 -0.00436962
v 0.00880679 -0.02307285 0.00384719
v 0.00989088 -0.02296931 0.00407755
v 0.00880679 -0.02276104 -0.00436962
v 0.00988992 -0.02256114 -0.00462054
v 0.00989088 -0.02256114 -0.00461951
v 0.00880679 -0.02296931 0.00407755
v 0.00989088 -0.02276044 0.00436962
v 0.00880679 -0.02256114 -0.00462054
v 0.00988992 -0.02230977 -0.00480771
v 0.00989088 -0.02231037 -0.00480668
v 0.00880679 -0.02276044 0.00436962
v 0.00989088 -0.02256114 0.00462054
v 0.00880679 -0.02230977 -0.00480771
v 0.00989088 -0.02198300 -0.00501647
v 0.00880679 -0.02256114 0.00462054
v 0.00989088 -0.02230977 0.00480771
v 0.00880679 -0.02198300 -0.00501647
v 0.00880679 -0.02190160 -0.00505041
v 0.00988992 -0.02175317 -0.00511211
v 0.00989088 -0.02175317 -0.00511108
v 0.00880679 -0.02230977 0.00480771
v 0.00989088 -0.02198300 0.00501647
v 0.00880679 -0.02209910 0.00494243
v 0.00880679 -0.02175317 -0.00511211
v 0.00989088 -0.02139049 -0.00520467
v 0.00880679 -0.02198300 0.00501647
v 0.00989088 -0.02175317 0.00511211
v 0.00880679 -0.02138989 -0.00520467
v 0.00880679 -0.02122650 -0.00522112
v 0.00988992 -0.02092965 -0.00524991
v 0.00989088 -0.02093085 -0.00524889
v 0.00880679 -0.02175317 0.00511211
v 0.00989088 -0.02138989 0.00520364
v 0.00880679 -0.02092965 -0.00524991
v 0.00988992 -0.02046941 -0.00525300
v 0.00989088 -0.02047060 -0.00525197
v 0.00880679 -0.02138989 0.00520364
v 0.00989088 -0.02092965 0.00524786
v 0.00880679 -0.02109304 0.00523243
v 0.00880679 -0.02046941 -0.00525300
v 0.00989088 -0.02001096 -0.00525300
v 0.00880679 -0.02092965 0.00524786
v 0.00989088 -0.02046941 0.00525300
v 0.00880679 -0.01909048 -0.00525300
v 0.00989088 -0.01909108 -0.00525300
v 0.00880679 -0.02046941 0.00525300
v 0.00989088 -0.01909048 0.00525300
v 0.00880679 -0.01892709 -0.00525197
v 0.00988992 -0.01909048 -0.00525300
v 0.00988992 -0.01863024 -0.00523552
v 0.00989088 -0.01863144 -0.00523552
v 0.00880679 -0.01909048 0.00525300
v 0.00989088 -0.01863024 0.00523552
v 0.00897002 -0.01863024 0.00524889
v 0.00880679 -0.01863024 0.00524991
v 0.00880679 -0.01863024 -0.00524991
v 0.00897002 -0.01863024 -0.00524889
v 0.00880679 -0.01849079 -0.00521598
v 0.00880679 -0.01825678 -0.00515325
v 0.00988992 -0.01829807 -0.00513885
v 0.00989088 -0.01829867 -0.00513885
v 0.00989088 -0.01829748 0.00513782
v 0.00988992 -0.01829807 0.00513885
v 0.00880679 -0.01825678 0.00515325
v 0.00880679 -0.01817538 -0.00509874
v 0.00880679 -0.01802696 -0.00497739
v 0.00988992 -0.01806765 -0.00493214
v 0.00989088 -0.01806825 -0.00493214
v 0.00989088 -0.01806765 0.00493214
v 0.00880679 -0.01802696 0.00497739
v 0.00880679 -0.01794137 -0.00489615
v 0.00880679 -0.01779055 -0.00474806
v 0.00880679 -0.01770856 -0.00466682
v 0.00880679 -0.01756073 -0.00451976
v 0.00988992 -0.01760741 -0.00447245
v 0.00989088 -0.01783843 -0.00470281
v 0.00989088 -0.01760741 0.00447245
v 0.00880679 -0.01756073 0.00451976
v 0.00880679 -0.01779055 0.00474806
v 0.00880679 -0.01748173 -0.00443852
v 0.00880679 -0.01734228 -0.00428940
v 0.00989088 -0.01739375 -0.00424210
v 0.00989088 -0.01760801 -0.00447245
v 0.00989088 -0.01739315 0.00424107
v 0.00988992 -0.01739375 0.00424210
v 0.00880679 -0.01734228 0.00428940
v 0.00880679 -0.01727226 -0.00414543
v 0.00880679 -0.01717171 -0.00390993
v 0.00989088 -0.01727345 -0.00390993
v 0.00989088 -0.01727286 0.00390890
v 0.00880679 -0.01717171 0.00390993
v 0.00880679 -0.01713939 -0.00344921
v 0.00989088 -0.01723934 -0.00345024
v 0.00989088 -0.01723934 0.00344818
v 0.00880679 -0.01715016 0.00361272
v 0.00880679 -0.01713879 -0.00298952
v 0.00880679 -0.01713879 0.00298952
v 0.00880679 -0.01713939 0.00344921
f 1 2 6
f 1 6 3
f 1 3 8
f 1 8 4
f 1 4 9
f 1 9 13
f 1 13 17
f 1 17 22
f 1 22 26
f 1 26 31
f 1 31 36
f 1 36 40
f 1 40 46
f 1 46 48
f 1 48 51
f 1 51 57
f 1 57 62
f 1 62 64
f 1 64 67
f 1 67 71
f 1 71 77
f 1 77 80
f 1 80 89
f 1 89 95
f 1 95 104
f 1 104 103
f 1 103 111
f 1 111 116
f 1 116 120
f 1 120 123
f 1 123 122
f 1 122 121
f 1 121 117
f 1 117 113
f 1 113 112
f 1 112 106
f 1 106 105
f 1 105 99
f 1 99 98
f 1 98 97
f 1 97 96
f 1 96 91
f 1 91 90
f 1 90 84
f 1 84 83
f 1 83 81
f 1 81 73
f 1 73 69
f 1 69 65
f 1 65 59
f 1 59 54
f 1 54 53
f 1 53 49
f 1 49 43
f 1 43 42
f 1 42 38
f 1 38 33
f 1 33 28
f 1 28 24
f 1 24 23
f 1 23 19
f 1 19 18
f 1 18 14
f 1 14 10
f 1 10 5
f 1 5 2
f 2 5 6
f 3 6 7
f 3 7 11
f 3 11 15
f 3 15 20
f 3 20 25
f 3 25 30
f 3 30 35
f 3 35 39
f 3 39 45
f 3 45 50
f 3 50 56
f 3 56 61
f 3 61 66
f 3 66 70
f 3 70 76
f 3 76 86
f 3 86 93
f 3 93 101
f 3 101 108
f 3 108 107
f 3 107 114
f 3 114 118
f 3 118 119
f 3 119 115
f 3 115 109
f 3 109 102
f 3 102 94
f 3 94 87
f 3 87 78
f 3 78 72
f 3 72 68
f 3 68 63
f 3 63 58
f 3 58 52
f 3 52 47
f 3 47 41
f 3 41 37
f 3 37 32
f 3 32 27
f 3 27 21
f 3 21 16
f 3 16 12
f 3 12 8
f 4 8 9
f 5 10 11
f 5 11 6
f 6 11 7
f 8 12 9
f 9 12 13
f 10 14 11
f 11 14 15
f 12 16 17
f 12 17 13
f 14 18 15
f 15 18 19
f 15 19 20
f 16 21 26
f 16 26 22
f 16 22 17
f 19 23 20
f 20 23 24
f 20 24 25
f 21 27 31
f 21 31 26
f 24 28 25
f 25 28 33
f 25 33 29
f 25 29 30
f 27 32 36
f 27 36 31
f 29 33 38
f 29 38 34
f 29 34 35
f 29 35 30
f 32 37 40
f 32 40 36
f 34 38 42
f 34 42 39
f 34 39 35
f 37 41 46
f 37 46 40
f 39 42 43
f 39 43 44
f 39 44 45
f 41 47 48
f 41 48 46
f 43 49 44
f 44 49 50
f 44 50 45
f 47 51 48
f 47 52 57
f 47 57 51
f 49 53 50
f 50 53 54
f 50 54 55
f 50 55 56
f 52 58 62
f 52 62 57
f 54 59 55
f 55 59 65
f 55 65 60
f 55 60 61
f 55 61 56
f 58 63 64
f 58 64 62
f 60 65 69
f 60 69 74
f 60 74 70
f 60 70 66
f 60 66 61
f 63 67 64
f 63 68 71
f 63 71 67
f 68 72 77
f 68 77 71
f 69 73 74
f 70 74 75
f 70 75 76
f 72 78 79
f 72 79 80
f 72 80 77
f 73 81 74
f 74 81 82
f 74 82 75
f 75 83 84
f 75 84 85
f 75 85 86
f 75 86 76
f 75 82 83
f 78 87 88
f 78 88 89
f 78 89 79
f 79 89 80
f 81 83 82
f 84 90 85
f 85 90 91
f 85 91 92
f 85 92 93
f 85 93 86
f 87 94 88
f 88 94 95
f 88 95 89
f 91 96 92
f 92 96 97
f 92 97 98
f 92 98 99
f 92 99 100
f 92 100 101
f 92 101 93
f 94 102 103
f 94 103 104
f 94 104 95
f 99 105 100
f 100 105 106
f 100 106 107
f 100 107 108
f 100 108 101
f 102 109 110
f 102 110 111
f 102 111 103
f 106 112 107
f 107 112 113
f 107 113 114
f 109 111 110
f 109 115 116
f 109 116 111
f 113 117 118
f 113 118 114
f 115 119 116
f 116 119 120
f 117 121 118
f 118 121 122
f 118 122 119
f 119 122 123
f 119 123 120

