# https://github.com/mikedh/trimesh
v 0.00391008 0.00344918 0.00525300
v 0.00356661 0.00390881 0.00524477
v 0.00356661 0.00344918 0.00525300
v 0.00436997 0.00298955 0.00525300
v 0.00443981 0.00298955 0.00525094
v 0.00436997 0.00344918 0.00522935
v 0.00391008 0.00390881 0.00522420
v 0.00356661 0.00436451 0.00520364
v 0.00356661 -0.00379227 0.00525300
v 0.00443981 0.00252992 0.00525300
v 0.00443981 0.00344918 0.00521598
v 0.00356661 0.00475343 0.00512445
v 0.00356661 -0.00425321 0.00522729
v 0.00443981 -0.00337978 0.00523140
v 0.00443981 -0.00298955 0.00525094
v 0.00443981 -0.00292015 0.00525300
v 0.00443981 0.00384596 0.00512137
v 0.00434962 0.00389441 0.00513371
v 0.00373074 0.00465915 0.00509154
v 0.00356661 0.00505330 0.00498048
v 0.00356661 -0.00469712 0.00514296
v 0.00443981 -0.00380929 0.00513679
v 0.00443981 0.00398607 0.00503704
v 0.00356661 0.00620041 0.00432951
v 0.00356661 -0.00475343 0.00512445
v 0.00443981 -0.00384596 0.00512137
v 0.00443981 0.00417202 0.00492083
v 0.00375365 0.00610874 0.00420919
v 0.00356661 0.00633005 0.00421741
v 0.00443981 0.00518949 0.00421124
v 0.00356661 -0.00499175 0.00501544
v 0.00373074 -0.00465915 0.00509154
v 0.00443981 -0.00406071 0.00500002
v 0.00356661 -0.00611660 0.00437990
v 0.00366611 0.00641647 0.00403539
v 0.00356661 0.00662861 0.00389450
v 0.00443981 0.00532829 0.00390993
v 0.00443810 0.00533091 0.00390993
v 0.00356661 0.00663123 0.00389142
v 0.00443981 -0.00515413 0.00424004
v 0.00356661 -0.00620041 0.00432951
v 0.00443981 0.00533222 0.00386879
v 0.00356661 0.00668623 0.00344921
v 0.00443981 -0.00518949 0.00421124
v 0.00356661 -0.00650028 0.00411560
v 0.00443981 0.00537020 0.00344921
v 0.00356661 0.00668885 0.00298952
v 0.00443810 -0.00533091 0.00390993
v 0.00443981 -0.00532829 0.00390993
v 0.00366611 -0.00641647 0.00403539
v 0.00356661 -0.00663123 0.00389347
v 0.00443981 0.00537020 -0.00344921
v 0.00356661 0.00668885 -0.00298952
v 0.00443981 -0.00533222 0.00386879
v 0.00356661 -0.00668623 0.00345229
v 0.00443981 0.00533222 -0.00386879
v 0.00356661 0.00668623 -0.00345229
v 0.00443981 -0.00537020 0.00344921
v 0.00356661 -0.00668885 0.00298952
v 0.00443981 0.00532829 -0.00391198
v 0.00356747 0.00662861 -0.00389244
v 0.00356661 0.00662861 -0.00389450
v 0.00443981 -0.00537020 -0.00344921
v 0.00356661 -0.00668885 -0.00298952
v 0.00443981 0.00518949 -0.00421124
v 0.00366611 0.00641647 -0.00403539
v 0.00356661 0.00650028 -0.00411560
v 0.00356661 -0.00668623 -0.00344921
v 0.00443981 -0.00533222 -0.00386879
v 0.00443981 0.00515413 -0.00424004
v 0.00356661 0.00620041 -0.00432951
v 0.00356661 -0.00663123 -0.00389142
v 0.00443810 -0.00533091 -0.00390993
v 0.00443981 -0.00532829 -0.00390993
v 0.00443981 0.00406071 -0.00500002
v 0.00356661 0.00611660 -0.00437990
v 0.00356661 -0.00662861 -0.00389450
v 0.00366611 -0.00641647 -0.00403539
v 0.00443981 -0.00518949 -0.00421124
v 0.00443981 0.00384596 -0.00512137
v 0.00356661 0.00499175 -0.00501544
v 0.00356661 -0.00633005 -0.00421741
v 0.00375365 -0.00610874 -0.00420919
v 0.00443981 -0.00417202 -0.00492083
v 0.00356661 -0.00620041 -0.00432951
v 0.00443981 0.00380929 -0.00513679
v 0.00356661 0.00475343 -0.00512445
v 0.00373074 0.00465915 -0.00509154
v 0.00443981 -0.00398607 -0.00503704
v 0.00356661 -0.00505330 -0.00498048
v 0.00443981 -0.00384596 -0.00512137
v 0.00356661 0.00469712 -0.00514296
v 0.00443981 0.00337978 -0.00523140
v 0.00356661 -0.00475343 -0.00512445
v 0.00373074 -0.00465915 -0.00509154
v 0.00434962 -0.00389441 -0.00513371
v 0.00443981 -0.00344918 -0.00521598
v 0.00356661 0.00425321 -0.00522729
v 0.00443981 0.00298955 -0.00525094
v 0.00356661 0.00379227 -0.00525300
v 0.00356661 -0.00436451 -0.00520364
v 0.00443981 -0.00298955 -0.00525094
v 0.00436997 -0.00344918 -0.00522935
v 0.00443981 0.00292015 -0.00525300
v 0.00356661 -0.00344918 -0.00525300
v 0.00356661 -0.00390881 -0.00524477
v 0.00391008 -0.00390881 -0.00522421
v 0.00391008 -0.00344918 -0.00525300
v 0.00436997 -0.00298955 -0.00525300
v 0.00443981 -0.00252992 -0.00525300
f 1 2 3
f 1 3 9
f 1 9 16
f 1 16 10
f 1 10 4
f 1 4 5
f 1 5 6
f 1 6 2
f 2 6 7
f 2 7 8
f 2 8 12
f 2 12 20
f 2 20 24
f 2 24 29
f 2 29 36
f 2 36 39
f 2 39 43
f 2 43 47
f 2 47 53
f 2 53 57
f 2 57 62
f 2 62 67
f 2 67 71
f 2 71 76
f 2 76 81
f 2 81 87
f 2 87 92
f 2 92 98
f 2 98 100
f 2 100 105
f 2 105 106
f 2 106 101
f 2 101 94
f 2 94 90
f 2 90 85
f 2 85 82
f 2 82 77
f 2 77 72
f 2 72 68
f 2 68 64
f 2 64 59
f 2 59 55
f 2 55 51
f 2 51 45
f 2 45 41
f 2 41 34
f 2 34 31
f 2 31 25
f 2 25 21
f 2 21 13
f 2 13 9
f 2 9 3
f 4 10 5
f 5 10 16
f 5 16 15
f 5 15 14
f 5 14 22
f 5 22 26
f 5 26 33
f 5 33 40
f 5 40 44
f 5 44 49
f 5 49 54
f 5 54 58
f 5 58 63
f 5 63 69
f 5 69 74
f 5 74 79
f 5 79 84
f 5 84 89
f 5 89 91
f 5 91 97
f 5 97 102
f 5 102 110
f 5 110 104
f 5 104 99
f 5 99 93
f 5 93 86
f 5 86 80
f 5 80 75
f 5 75 70
f 5 70 65
f 5 65 60
f 5 60 56
f 5 56 52
f 5 52 46
f 5 46 42
f 5 42 37
f 5 37 30
f 5 30 27
f 5 27 23
f 5 23 17
f 5 17 11
f 5 11 6
f 6 11 8
f 6 8 7
f 8 11 12
f 9 13 14
f 9 14 15
f 9 15 16
f 11 17 18
f 11 18 12
f 12 18 17
f 12 17 19
f 12 19 20
f 13 21 14
f 14 21 22
f 17 20 19
f 17 23 24
f 17 24 20
f 21 25 22
f 22 25 26
f 23 27 24
f 24 28 29
f 24 27 30
f 24 30 28
f 25 31 32
f 25 32 26
f 26 32 31
f 26 31 34
f 26 34 33
f 28 35 29
f 28 30 35
f 29 35 36
f 30 37 38
f 30 38 39
f 30 39 35
f 33 34 41
f 33 41 40
f 35 39 36
f 37 42 38
f 38 42 43
f 38 43 39
f 40 41 45
f 40 45 44
f 42 46 43
f 43 46 47
f 44 48 49
f 44 45 50
f 44 50 51
f 44 51 48
f 45 51 50
f 46 52 53
f 46 53 47
f 48 54 49
f 48 51 55
f 48 55 54
f 52 56 57
f 52 57 53
f 54 55 58
f 55 59 58
f 56 60 57
f 57 61 62
f 57 60 61
f 58 59 64
f 58 64 63
f 60 65 66
f 60 66 61
f 61 66 62
f 62 66 67
f 63 64 68
f 63 68 69
f 65 70 67
f 65 67 66
f 67 70 71
f 68 72 73
f 68 73 69
f 69 73 74
f 70 75 71
f 71 75 76
f 72 77 78
f 72 78 79
f 72 79 73
f 73 79 74
f 75 80 76
f 76 80 81
f 77 82 78
f 78 82 83
f 78 83 79
f 79 83 85
f 79 85 84
f 80 86 87
f 80 87 88
f 80 88 81
f 81 88 87
f 82 85 83
f 84 85 89
f 85 90 91
f 85 91 89
f 86 92 87
f 86 93 92
f 90 94 95
f 90 95 91
f 91 95 94
f 91 94 96
f 91 96 97
f 92 93 98
f 93 99 100
f 93 100 98
f 94 101 97
f 94 97 96
f 97 101 103
f 97 103 102
f 99 104 100
f 100 104 110
f 100 110 109
f 100 109 108
f 100 108 105
f 101 106 107
f 101 107 103
f 102 103 108
f 102 108 109
f 102 109 110
f 103 107 106
f 103 106 108
f 105 108 106

