# https://github.com/mikedh/trimesh
v 0.00362541 0.01343508 0.00298952
v 0.00362470 0.01343508 0.00345229
v 0.00297031 0.01173628 0.00298952
v 0.00362541 0.01343508 -0.00298952
v 0.00359419 0.01343508 0.00390993
v 0.00296960 0.01173628 0.00344921
v 0.00297031 0.01173628 -0.00299569
v 0.00362470 0.01343508 -0.00344921
v 0.00358425 0.01343508 0.00393461
v 0.00283475 0.01173628 0.00421947
v 0.00293695 0.01173628 0.00390993
v 0.00293766 0.01173628 0.00390376
v 0.00296960 0.01173628 -0.00344921
v 0.00359419 0.01343508 -0.00390993
v 0.00324499 0.01281188 0.00416908
v 0.00338623 0.01343508 0.00431305
v 0.00283262 0.01173628 0.00422358
v 0.00293695 0.01173628 -0.00390993
v 0.00283262 0.01173628 -0.00422358
v 0.00324499 0.01281188 -0.00416908
v 0.00338623 0.01343508 -0.00431305
v 0.00330390 0.01343508 0.00439224
v 0.00214913 0.01173628 0.00490643
v 0.00238122 0.01173628 0.00467916
v 0.00261118 0.01173628 0.00445394
v 0.00282978 0.01173628 -0.00422667
v 0.00260834 0.01173628 -0.00445703
v 0.00237838 0.01173628 -0.00468225
v 0.00214558 0.01173628 -0.00490952
v 0.00294334 0.01343508 -0.00471824
v 0.00285888 0.01343508 0.00479537
v 0.00191917 0.01173628 0.00511725
v 0.00191562 0.01173628 -0.00511931
v 0.00265944 0.01343508 -0.00496917
v 0.00265944 0.01343508 0.00496916
v 0.00259202 0.01343508 0.00502778
v 0.00242948 0.01343508 0.00513268
v 0.00191562 0.01173628 0.00511931
v 0.00191136 0.01173628 -0.00512137
v 0.00242948 0.01343508 -0.00513268
v 0.00234431 0.01343508 0.00516147
v 0.00161469 0.01173628 0.00521495
v 0.00160972 0.01173628 -0.00521598
v 0.00206964 0.01343508 -0.00522935
v 0.00206964 0.01343508 0.00522935
v 0.00160972 0.01173628 0.00521598
v 0.00114980 0.01173628 -0.00525300
v 0.00160972 0.01219001 -0.00524272
v 0.00160972 0.01264988 -0.00525300
v 0.00160972 0.01343508 -0.00525300
v 0.00160972 0.01219001 0.00524272
v 0.00193478 0.01343508 0.00524477
v 0.00114980 0.01173628 0.00525300
v -0.00114980 0.01173628 -0.00525300
v -0.00160972 0.01343508 -0.00525300
v 0.00160972 0.01264988 0.00525300
v 0.00160972 0.01343508 0.00525300
v -0.00114980 0.01173628 0.00525300
v -0.00160972 0.01264988 -0.00525300
v -0.00160972 0.01173628 -0.00521598
v -0.00160972 0.01219001 -0.00524272
v -0.00193478 0.01343508 -0.00524477
v -0.00160972 0.01343508 0.00525300
v -0.00160972 0.01264988 0.00525300
v -0.00160972 0.01219001 0.00524272
v -0.00160972 0.01173628 0.00521598
v -0.00161469 0.01173628 -0.00521495
v -0.00206964 0.01343508 -0.00522935
v -0.00206964 0.01343508 0.00522935
v -0.00242948 0.01343508 0.00513268
v -0.00191136 0.01173628 0.00512137
v -0.00234431 0.01343508 -0.00516147
v -0.00191562 0.01173628 -0.00511931
v -0.00265944 0.01343508 0.00496916
v -0.00191562 0.01173628 0.00511931
v -0.00242948 0.01343508 -0.00513268
v -0.00191917 0.01173628 -0.00511725
v -0.00294334 0.01343508 0.00471824
v -0.00214558 0.01173628 0.00490952
v -0.00259202 0.01343508 -0.00502778
v -0.00285888 0.01343508 -0.00479537
v -0.00265944 0.01343508 -0.00496917
v -0.00214913 0.01173628 -0.00490643
v -0.00330390 0.01343508 -0.00439224
v -0.00338623 0.01343508 0.00431305
v -0.00237838 0.01173628 0.00468224
v -0.00238122 0.01173628 -0.00467916
v -0.00338623 0.01343508 -0.00431305
v -0.00283262 0.01173628 0.00422358
v -0.00282978 0.01173628 0.00422667
v -0.00260834 0.01173628 0.00445703
v -0.00359419 0.01343508 0.00390993
v -0.00324499 0.01281188 0.00416908
v -0.00261118 0.01173628 -0.00445394
v -0.00358425 0.01343508 -0.00393461
v -0.00283262 0.01173628 -0.00422358
v -0.00324499 0.01281188 -0.00416908
v -0.00293695 0.01173628 0.00390993
v -0.00362470 0.01343508 0.00344921
v -0.00296960 0.01173628 0.00344921
v -0.00283475 0.01173628 -0.00421947
v -0.00359419 0.01343508 -0.00390993
v -0.00362541 0.01343508 0.00298952
v -0.00297031 0.01173628 0.00299569
v -0.00293695 0.01173628 -0.00390993
v -0.00362470 0.01343508 -0.00345229
v -0.00293766 0.01173628 -0.00390376
v -0.00296960 0.01173628 -0.00344921
v -0.00362541 0.01343508 -0.00298952
v -0.00297031 0.01173628 -0.00298952
f 1 2 3
f 1 3 7
f 1 7 4
f 1 4 8
f 1 8 14
f 1 14 21
f 1 21 30
f 1 30 34
f 1 34 40
f 1 40 44
f 1 44 50
f 1 50 55
f 1 55 62
f 1 62 68
f 1 68 72
f 1 72 76
f 1 76 80
f 1 80 82
f 1 82 81
f 1 81 84
f 1 84 88
f 1 88 95
f 1 95 102
f 1 102 106
f 1 106 109
f 1 109 103
f 1 103 99
f 1 99 92
f 1 92 85
f 1 85 78
f 1 78 74
f 1 74 70
f 1 70 69
f 1 69 63
f 1 63 57
f 1 57 52
f 1 52 45
f 1 45 41
f 1 41 37
f 1 37 36
f 1 36 35
f 1 35 31
f 1 31 22
f 1 22 16
f 1 16 9
f 1 9 5
f 1 5 2
f 2 5 6
f 2 6 3
f 3 6 12
f 3 12 11
f 3 11 10
f 3 10 17
f 3 17 25
f 3 25 24
f 3 24 23
f 3 23 32
f 3 32 38
f 3 38 42
f 3 42 46
f 3 46 53
f 3 53 58
f 3 58 66
f 3 66 71
f 3 71 75
f 3 75 79
f 3 79 86
f 3 86 91
f 3 91 90
f 3 90 89
f 3 89 98
f 3 98 100
f 3 100 104
f 3 104 110
f 3 110 108
f 3 108 107
f 3 107 105
f 3 105 101
f 3 101 96
f 3 96 94
f 3 94 87
f 3 87 83
f 3 83 77
f 3 77 73
f 3 73 67
f 3 67 60
f 3 60 54
f 3 54 47
f 3 47 43
f 3 43 39
f 3 39 33
f 3 33 29
f 3 29 28
f 3 28 27
f 3 27 26
f 3 26 19
f 3 19 18
f 3 18 13
f 3 13 7
f 4 7 8
f 5 9 10
f 5 10 11
f 5 11 12
f 5 12 6
f 7 13 8
f 8 13 14
f 9 15 10
f 9 16 15
f 10 15 17
f 13 18 14
f 14 18 19
f 14 19 20
f 14 20 21
f 15 16 17
f 16 22 23
f 16 23 24
f 16 24 25
f 16 25 17
f 19 26 21
f 19 21 20
f 21 26 27
f 21 27 28
f 21 28 29
f 21 29 30
f 22 31 32
f 22 32 23
f 29 33 30
f 30 33 34
f 31 35 32
f 32 35 36
f 32 36 37
f 32 37 38
f 33 39 40
f 33 40 34
f 37 41 38
f 38 41 42
f 39 43 40
f 40 43 44
f 41 45 42
f 42 45 46
f 43 47 48
f 43 48 44
f 44 48 49
f 44 49 50
f 45 51 46
f 45 52 51
f 46 51 53
f 47 49 48
f 47 54 59
f 47 59 55
f 47 55 50
f 47 50 49
f 51 52 56
f 51 56 53
f 52 57 56
f 53 56 57
f 53 57 63
f 53 63 64
f 53 64 58
f 54 60 61
f 54 61 59
f 55 59 62
f 58 64 65
f 58 65 66
f 59 61 62
f 60 67 68
f 60 68 61
f 61 68 62
f 63 69 64
f 64 69 65
f 65 69 66
f 66 69 70
f 66 70 71
f 67 72 68
f 67 73 72
f 70 74 75
f 70 75 71
f 72 73 76
f 73 77 76
f 74 78 75
f 75 78 79
f 76 77 80
f 77 81 82
f 77 82 80
f 77 83 84
f 77 84 81
f 78 85 79
f 79 85 86
f 83 87 88
f 83 88 84
f 85 89 90
f 85 90 91
f 85 91 86
f 85 92 93
f 85 93 89
f 87 94 88
f 88 94 96
f 88 96 97
f 88 97 95
f 89 93 92
f 89 92 98
f 92 99 100
f 92 100 98
f 95 97 101
f 95 101 102
f 96 101 97
f 99 103 104
f 99 104 100
f 101 105 102
f 102 105 107
f 102 107 108
f 102 108 106
f 103 109 110
f 103 110 104
f 106 108 110
f 106 110 109

