# https://github.com/mikedh/trimesh
v -0.01705480 0.01163838 0.00344921
v -0.01708028 0.01163838 0.00390993
v -0.01723865 0.00992733 0.00344921
v -0.01705480 0.01163805 0.00298952
v -0.01705480 0.01163838 -0.00344921
v -0.01709909 0.01163838 0.00395106
v -0.01739277 0.00992733 0.00424312
v -0.01727202 0.00992733 0.00390993
v -0.01723865 0.00992733 -0.00344921
v -0.01705480 0.01163805 -0.00298952
v -0.01707664 0.01163838 -0.00385954
v -0.01725928 0.01163838 0.00429866
v -0.01760696 0.00992733 0.00447245
v -0.01724108 0.00992733 -0.00348623
v -0.01708028 0.01163838 -0.00390993
v -0.01731875 0.01163838 0.00436139
v -0.01806690 0.00992733 0.00493317
v -0.01727202 0.00992733 -0.00390993
v -0.01739277 0.00992733 -0.00424312
v -0.01725928 0.01163838 -0.00429866
v -0.01756449 0.01163838 0.00460717
v -0.01774895 0.01163838 0.00478714
v -0.01779628 0.01163838 0.00483239
v -0.01799045 0.01163838 0.00501647
v -0.01829687 0.00992733 0.00513885
v -0.01760696 0.00992733 -0.00447245
v -0.01751898 0.01163838 -0.00456090
v -0.01803656 0.01163838 0.00505144
v -0.01822041 0.01163838 0.00515530
v -0.01860329 0.00992733 0.00522832
v -0.01806690 0.00992733 -0.00493317
v -0.01770283 0.01163838 -0.00474189
v -0.01829565 0.01163838 0.00517484
v -0.01863059 0.00992733 0.00523552
v -0.01799045 0.01163838 -0.00501647
v -0.01774895 0.01163838 -0.00478714
v -0.01829687 0.00992733 -0.00513885
v -0.01863059 0.01163838 0.00525197
v -0.01863059 0.01126987 0.00525094
v -0.01909053 0.00992733 0.00525300
v -0.01822041 0.01163838 -0.00515530
v -0.01832417 0.00992733 -0.00514708
v -0.01872222 0.01163838 0.00525300
v -0.02046973 0.00992733 0.00525300
v -0.01863059 0.00992733 -0.00523552
v -0.01863059 0.01126987 -0.00525094
v -0.01863059 0.01163838 -0.00525197
v -0.02046973 0.01163838 0.00525300
v -0.02092966 0.00992733 0.00524889
v -0.01909053 0.00992733 -0.00525300
v -0.01909053 0.01163838 -0.00525300
v -0.02092966 0.01163838 0.00524889
v -0.02102128 0.01163838 0.00524066
v -0.02135258 0.00992733 0.00520878
v -0.02046973 0.00992733 -0.00525300
v -0.02046973 0.01163838 -0.00525300
v -0.02138959 0.01163838 0.00520467
v -0.02138959 0.00992733 0.00520467
v -0.02092966 0.00992733 -0.00524991
v -0.02092966 0.01163838 -0.00524991
v -0.02175305 0.01163838 0.00511211
v -0.02175305 0.00992733 0.00511211
v -0.02138959 0.00992733 -0.00520467
v -0.02129797 0.01163838 -0.00521392
v -0.02198302 0.01163838 0.00501647
v -0.02196421 0.00992733 0.00502470
v -0.02141933 0.00992733 -0.00519747
v -0.02138959 0.01163838 -0.00520467
v -0.02204794 0.01163838 0.00497534
v -0.02198302 0.00992733 0.00501647
v -0.02175305 0.00992733 -0.00511211
v -0.02168085 0.01163838 -0.00513062
v -0.02230946 0.01163838 0.00480771
v -0.02230946 0.00992733 0.00480771
v -0.02175305 0.01163838 -0.00511211
v -0.02198302 0.00992733 -0.00501647
v -0.02193691 0.01163838 -0.00503601
v -0.02235983 0.01163838 0.00477069
v -0.02256067 0.00992733 0.00462054
v -0.02200911 0.00992733 -0.00500002
v -0.02198302 0.01163838 -0.00501647
v -0.02256067 0.01163838 0.00462054
v -0.02274452 0.00992733 0.00439018
v -0.02230946 0.00992733 -0.00480771
v -0.02230946 0.01163838 -0.00480771
v -0.02276090 0.01163838 0.00436962
v -0.02276090 0.00992733 0.00436962
v -0.02256127 0.00992733 -0.00462054
v -0.02256127 0.01163838 -0.00462054
v -0.02296964 0.01163838 0.00407858
v -0.02296964 0.00992733 0.00407858
v -0.02276090 0.00992733 -0.00436962
v -0.02276090 0.01163838 -0.00436962
v -0.02299026 0.01163838 0.00403333
v -0.02306490 0.00992733 0.00386776
v -0.02277789 0.00992733 -0.00434596
v -0.02292837 0.01163838 -0.00413617
v -0.02307279 0.01163838 0.00384822
v -0.02307279 0.00992733 0.00384822
v -0.02296964 0.00992733 -0.00407858
v -0.02296964 0.01163838 -0.00407858
v -0.02309706 0.01163838 0.00376904
v -0.02318383 0.00992733 0.00348212
v -0.02297813 0.00992733 -0.00406007
v -0.02305216 0.01163838 -0.00389450
v -0.02319353 0.01163838 0.00344921
v -0.02319353 0.00992733 0.00344921
v -0.02307218 0.00992733 -0.00384822
v -0.02307218 0.01163838 -0.00384822
v -0.02324268 0.00992733 0.00302654
v -0.02324693 0.01163838 0.00298952
v -0.02308189 0.00992733 -0.00381634
v -0.02316866 0.01163838 -0.00352942
v -0.02324693 0.00992733 0.00298952
v -0.02324814 0.01163838 0.00289799
v -0.02319293 0.01163838 -0.00344921
v -0.02319293 0.00992733 -0.00344921
v -0.02325300 0.00992733 0.00252983
v -0.02325300 0.01163838 0.00252983
v -0.02324693 0.01163838 -0.00298952
v -0.02324693 0.00992733 -0.00298952
v -0.02325300 0.00992733 -0.00252983
v -0.02325300 0.01163838 -0.00252983
f 1 2 3
f 1 3 4
f 1 4 10
f 1 10 5
f 1 5 11
f 1 11 15
f 1 15 20
f 1 20 27
f 1 27 32
f 1 32 36
f 1 36 35
f 1 35 41
f 1 41 47
f 1 47 51
f 1 51 56
f 1 56 60
f 1 60 64
f 1 64 68
f 1 68 72
f 1 72 75
f 1 75 77
f 1 77 81
f 1 81 85
f 1 85 89
f 1 89 93
f 1 93 97
f 1 97 101
f 1 101 105
f 1 105 109
f 1 109 113
f 1 113 116
f 1 116 120
f 1 120 123
f 1 123 119
f 1 119 115
f 1 115 111
f 1 111 106
f 1 106 102
f 1 102 98
f 1 98 94
f 1 94 90
f 1 90 86
f 1 86 82
f 1 82 78
f 1 78 73
f 1 73 69
f 1 69 65
f 1 65 61
f 1 61 57
f 1 57 53
f 1 53 52
f 1 52 48
f 1 48 43
f 1 43 38
f 1 38 33
f 1 33 29
f 1 29 28
f 1 28 24
f 1 24 23
f 1 23 22
f 1 22 21
f 1 21 16
f 1 16 12
f 1 12 6
f 1 6 2
f 2 6 7
f 2 7 8
f 2 8 3
f 3 8 7
f 3 7 13
f 3 13 17
f 3 17 25
f 3 25 30
f 3 30 34
f 3 34 40
f 3 40 44
f 3 44 49
f 3 49 54
f 3 54 58
f 3 58 62
f 3 62 66
f 3 66 70
f 3 70 74
f 3 74 79
f 3 79 83
f 3 83 87
f 3 87 91
f 3 91 95
f 3 95 99
f 3 99 103
f 3 103 107
f 3 107 110
f 3 110 114
f 3 114 118
f 3 118 122
f 3 122 121
f 3 121 117
f 3 117 112
f 3 112 108
f 3 108 104
f 3 104 100
f 3 100 96
f 3 96 92
f 3 92 88
f 3 88 84
f 3 84 80
f 3 80 76
f 3 76 71
f 3 71 67
f 3 67 63
f 3 63 59
f 3 59 55
f 3 55 50
f 3 50 45
f 3 45 42
f 3 42 37
f 3 37 31
f 3 31 26
f 3 26 19
f 3 19 18
f 3 18 14
f 3 14 9
f 3 9 10
f 3 10 4
f 5 10 9
f 5 9 11
f 6 12 7
f 7 12 13
f 9 14 11
f 11 14 15
f 12 16 13
f 13 16 17
f 14 18 15
f 15 18 19
f 15 19 20
f 16 21 17
f 17 21 22
f 17 22 23
f 17 23 24
f 17 24 25
f 19 26 20
f 20 26 27
f 24 28 25
f 25 29 30
f 25 28 29
f 26 31 27
f 27 31 32
f 29 33 34
f 29 34 30
f 31 35 36
f 31 36 32
f 31 37 35
f 33 38 39
f 33 39 34
f 34 39 40
f 35 37 41
f 37 42 41
f 38 43 40
f 38 40 39
f 40 43 48
f 40 48 44
f 41 42 45
f 41 45 46
f 41 46 47
f 44 48 52
f 44 52 49
f 45 50 46
f 46 50 47
f 47 50 51
f 49 52 53
f 49 53 54
f 50 55 56
f 50 56 51
f 53 57 54
f 54 57 58
f 55 59 60
f 55 60 56
f 57 61 62
f 57 62 58
f 59 63 64
f 59 64 60
f 61 65 66
f 61 66 62
f 63 67 68
f 63 68 64
f 65 69 70
f 65 70 66
f 67 71 72
f 67 72 68
f 69 73 74
f 69 74 70
f 71 75 72
f 71 76 77
f 71 77 75
f 73 78 74
f 74 78 79
f 76 80 81
f 76 81 77
f 78 82 79
f 79 82 83
f 80 84 85
f 80 85 81
f 82 86 83
f 83 86 87
f 84 88 89
f 84 89 85
f 86 90 91
f 86 91 87
f 88 92 93
f 88 93 89
f 90 94 91
f 91 94 95
f 92 96 93
f 93 96 97
f 94 98 95
f 95 98 99
f 96 100 97
f 97 100 101
f 98 102 99
f 99 102 103
f 100 104 101
f 101 104 105
f 102 106 103
f 103 106 107
f 104 108 105
f 105 108 109
f 106 110 107
f 106 111 110
f 108 112 109
f 109 112 113
f 110 111 114
f 111 115 114
f 112 116 113
f 112 117 116
f 114 115 118
f 115 119 118
f 116 117 121
f 116 121 120
f 118 119 123
f 118 123 122
f 120 121 122
f 120 122 123

