# https://github.com/mikedh/trimesh
v 0.01170205 0.01703497 -0.00298952
v 0.00988626 0.01723948 -0.00345332
v 0.01170205 0.01703558 -0.00344921
v 0.01170205 0.01703497 0.00298952
v 0.00988626 0.01727296 -0.00390993
v 0.01170205 0.01706176 -0.00390993
v 0.01170205 0.01704106 -0.00356542
v 0.00988626 0.01723948 0.00344921
v 0.01170205 0.01703558 0.00344921
v 0.00988626 0.01739347 -0.00424210
v 0.01170205 0.01706358 -0.00392947
v 0.01170205 0.01706176 0.00390993
v 0.00988626 0.01727296 0.00390993
v 0.00988626 0.01760954 -0.00447451
v 0.01170205 0.01724435 -0.00430071
v 0.01170205 0.01724435 0.00430071
v 0.00988626 0.01739347 0.00424210
v 0.00988626 0.01739225 0.00423901
v 0.01170205 0.01727539 -0.00433362
v 0.00988626 0.01806969 -0.00493420
v 0.00988626 0.01760589 0.00447040
v 0.01170205 0.01751216 0.00456809
v 0.00988626 0.01806604 0.00493009
v 0.01170205 0.01751216 -0.00456809
v 0.01170205 0.01798630 -0.00502161
v 0.01170205 0.01775684 -0.00480565
v 0.00988626 0.01829793 -0.00513885
v 0.01170205 0.01772823 0.00477788
v 0.00989017 0.01806786 0.00493214
v 0.00988626 0.01829611 0.00513679
v 0.01170205 0.01774223 0.00479125
v 0.01170205 0.01798630 0.00502161
v 0.01170205 0.01800030 -0.00503190
v 0.00988626 0.01830037 -0.00513988
v 0.01170205 0.01821638 -0.00515633
v 0.00989017 0.01829793 0.00513885
v 0.00988626 0.01863026 0.00523552
v 0.01170205 0.01821638 0.00515633
v 0.00988626 0.01863026 -0.00523552
v 0.01126997 0.01863026 -0.00525094
v 0.01170205 0.01863026 -0.00525197
v 0.01126997 0.01863026 0.00525094
v 0.00988626 0.01909040 0.00525300
v 0.01170205 0.01860713 0.00524683
v 0.00988626 0.01909040 -0.00525300
v 0.01170205 0.01865826 -0.00525300
v 0.01170205 0.01863026 0.00525197
v 0.01170205 0.01909040 0.00525300
v 0.00988626 0.02046962 0.00525300
v 0.00988626 0.02046962 -0.00525300
v 0.01170205 0.02046962 -0.00525300
v 0.01170205 0.02046962 0.00525300
v 0.00988626 0.02092976 0.00524991
v 0.00988626 0.02093341 -0.00524786
v 0.01170205 0.02092976 -0.00524786
v 0.01170205 0.02092976 0.00524991
v 0.00988626 0.02138625 0.00520569
v 0.00988626 0.02138990 -0.00520364
v 0.01170205 0.02138990 -0.00520364
v 0.01170205 0.02136191 0.00520775
v 0.01170205 0.02138990 0.00520467
v 0.01080998 0.02175327 0.00511211
v 0.00988626 0.02175327 0.00511211
v 0.00988626 0.02175145 -0.00511211
v 0.01035016 0.02175205 -0.00511211
v 0.01170205 0.02175205 -0.00511211
v 0.01170205 0.02173075 0.00511725
v 0.01170205 0.02175327 0.00511108
v 0.01170205 0.02196874 0.00502264
v 0.00988626 0.02198091 0.00501750
v 0.00988626 0.02198152 -0.00501647
v 0.01080998 0.02198213 -0.00501647
v 0.01170205 0.02198213 -0.00501647
v 0.01170205 0.02198273 0.00501647
v 0.00989017 0.02198273 0.00501647
v 0.00988626 0.02230958 0.00480771
v 0.00988626 0.02230958 -0.00480257
v 0.01170205 0.02230958 -0.00480257
v 0.01170205 0.02230958 0.00480771
v 0.00988626 0.02256096 0.00462054
v 0.00988626 0.02255670 -0.00461540
v 0.01126997 0.02255670 -0.00461643
v 0.01170205 0.02232480 -0.00479125
v 0.01170205 0.02256035 0.00462054
v 0.01126997 0.02256096 0.00462054
v 0.01170205 0.02274721 0.00438504
v 0.00988626 0.02275938 0.00436962
v 0.00988626 0.02275755 -0.00436756
v 0.01170205 0.02255670 -0.00461643
v 0.01170205 0.02275938 0.00436962
v 0.01170205 0.02295598 0.00409504
v 0.01035016 0.02296876 0.00407652
v 0.00988626 0.02296693 0.00407858
v 0.00988626 0.02296876 -0.00407755
v 0.01170205 0.02276912 -0.00435213
v 0.01170205 0.02275573 -0.00436962
v 0.01170205 0.02296876 0.00407652
v 0.01080998 0.02307284 0.00384719
v 0.00988626 0.02307284 0.00384617
v 0.00988626 0.02296815 0.00407652
v 0.01170205 0.02297545 -0.00406316
v 0.01170205 0.02296876 -0.00407755
v 0.00988626 0.02307223 -0.00384720
v 0.01170205 0.02307284 0.00384719
v 0.00988626 0.02319274 0.00345229
v 0.01170205 0.02307223 -0.00384720
v 0.00988626 0.02307345 -0.00384411
v 0.01170205 0.02318605 0.00347389
v 0.01170205 0.02319335 0.00344921
v 0.00988626 0.02319335 0.00344921
v 0.01170205 0.02307953 -0.00382354
v 0.00988626 0.02319274 -0.00344921
v 0.01170205 0.02319274 -0.00344921
v 0.01170205 0.02324691 0.00298952
v 0.00988626 0.02324691 0.00298952
v 0.00988626 0.02319335 -0.00344612
v 0.01170205 0.02324691 -0.00298952
v 0.01170205 0.02325300 0.00252983
v 0.00988626 0.02325300 0.00252983
v 0.00988626 0.02324691 -0.00298952
v 0.01170205 0.02325300 -0.00252983
v 0.00988626 0.02325300 -0.00252983
f 1 2 3
f 1 3 7
f 1 7 6
f 1 6 11
f 1 11 15
f 1 15 19
f 1 19 24
f 1 24 26
f 1 26 25
f 1 25 33
f 1 33 35
f 1 35 41
f 1 41 46
f 1 46 51
f 1 51 55
f 1 55 59
f 1 59 66
f 1 66 73
f 1 73 78
f 1 78 83
f 1 83 89
f 1 89 96
f 1 96 95
f 1 95 102
f 1 102 101
f 1 101 106
f 1 106 111
f 1 111 113
f 1 113 117
f 1 117 121
f 1 121 118
f 1 118 114
f 1 114 109
f 1 109 108
f 1 108 104
f 1 104 97
f 1 97 91
f 1 91 90
f 1 90 86
f 1 86 84
f 1 84 79
f 1 79 74
f 1 74 69
f 1 69 68
f 1 68 67
f 1 67 61
f 1 61 60
f 1 60 56
f 1 56 52
f 1 52 48
f 1 48 47
f 1 47 44
f 1 44 38
f 1 38 32
f 1 32 31
f 1 31 28
f 1 28 22
f 1 22 16
f 1 16 12
f 1 12 9
f 1 9 4
f 1 4 8
f 1 8 2
f 2 5 6
f 2 6 7
f 2 7 3
f 2 8 13
f 2 13 18
f 2 18 17
f 2 17 21
f 2 21 23
f 2 23 30
f 2 30 37
f 2 37 43
f 2 43 49
f 2 49 53
f 2 53 57
f 2 57 63
f 2 63 70
f 2 70 76
f 2 76 80
f 2 80 87
f 2 87 93
f 2 93 100
f 2 100 99
f 2 99 105
f 2 105 110
f 2 110 115
f 2 115 119
f 2 119 122
f 2 122 120
f 2 120 116
f 2 116 112
f 2 112 107
f 2 107 103
f 2 103 94
f 2 94 88
f 2 88 81
f 2 81 77
f 2 77 71
f 2 71 64
f 2 64 58
f 2 58 54
f 2 54 50
f 2 50 45
f 2 45 39
f 2 39 34
f 2 34 27
f 2 27 20
f 2 20 14
f 2 14 10
f 2 10 5
f 4 9 8
f 5 10 11
f 5 11 6
f 8 9 12
f 8 12 13
f 10 14 15
f 10 15 11
f 12 16 17
f 12 17 18
f 12 18 13
f 14 19 15
f 14 20 19
f 16 21 17
f 16 22 23
f 16 23 21
f 19 20 24
f 20 25 26
f 20 26 24
f 20 27 25
f 22 28 23
f 23 29 36
f 23 36 30
f 23 28 31
f 23 31 32
f 23 32 29
f 25 27 33
f 27 34 35
f 27 35 33
f 29 32 36
f 30 36 37
f 32 38 36
f 34 39 35
f 35 39 40
f 35 40 41
f 36 38 37
f 37 38 42
f 37 42 43
f 38 44 42
f 39 45 40
f 40 45 46
f 40 46 41
f 42 47 43
f 42 44 47
f 43 47 48
f 43 48 52
f 43 52 49
f 45 50 51
f 45 51 46
f 49 52 56
f 49 56 53
f 50 54 51
f 51 54 55
f 53 56 57
f 54 58 59
f 54 59 55
f 56 60 57
f 57 60 61
f 57 61 62
f 57 62 63
f 58 64 65
f 58 65 66
f 58 66 59
f 61 67 62
f 62 67 68
f 62 68 69
f 62 69 63
f 63 69 70
f 64 71 65
f 65 71 72
f 65 72 73
f 65 73 66
f 69 74 70
f 70 74 75
f 70 75 76
f 71 77 72
f 72 77 78
f 72 78 73
f 74 79 76
f 74 76 75
f 76 79 85
f 76 85 80
f 77 81 82
f 77 82 83
f 77 83 78
f 79 84 85
f 80 86 87
f 80 85 86
f 81 88 82
f 82 89 83
f 82 88 89
f 84 86 85
f 86 90 87
f 87 90 91
f 87 91 92
f 87 92 93
f 88 94 95
f 88 95 96
f 88 96 89
f 91 97 92
f 92 98 99
f 92 99 100
f 92 100 93
f 92 97 104
f 92 104 98
f 94 101 102
f 94 102 95
f 94 103 101
f 98 104 105
f 98 105 99
f 101 103 106
f 103 107 106
f 104 108 105
f 105 109 110
f 105 108 109
f 106 107 111
f 107 112 113
f 107 113 111
f 109 114 115
f 109 115 110
f 112 116 113
f 113 116 117
f 114 118 119
f 114 119 115
f 116 120 117
f 117 120 122
f 117 122 121
f 118 121 122
f 118 122 119

