# https://github.com/mikedh/trimesh
v 0.01523673 -0.02325300 -0.00252983
v 0.01523673 -0.02325010 -0.00270260
v 0.01639047 -0.02325300 -0.00252983
v 0.01523673 -0.02325300 0.00252983
v 0.01523673 -0.02324528 -0.00298952
v 0.01639047 -0.02324528 -0.00298952
v 0.01639047 -0.02325300 0.00252983
v 0.01523673 -0.02324624 0.00298952
v 0.01523673 -0.02322500 -0.00316229
v 0.01639047 -0.02319894 -0.00338853
v 0.01639047 -0.02324624 0.00298952
v 0.01523673 -0.02319315 0.00344921
v 0.01523673 -0.02319122 -0.00344921
v 0.01639047 -0.02319122 -0.00344921
v 0.01639047 -0.02319219 0.00344921
v 0.01541010 -0.02319315 0.00344921
v 0.01523673 -0.02307249 0.00384719
v 0.01523673 -0.02314682 -0.00359935
v 0.01586991 -0.02307249 -0.00384822
v 0.01639047 -0.02308793 -0.00379578
v 0.01639047 -0.02317674 0.00350166
v 0.01639047 -0.02307249 0.00384719
v 0.01523673 -0.02300781 0.00399014
v 0.01523673 -0.02307249 -0.00384822
v 0.01639047 -0.02307152 -0.00384822
v 0.01639047 -0.02298271 -0.00404876
v 0.01639047 -0.02305897 0.00387702
v 0.01639047 -0.02296824 0.00407652
v 0.01523673 -0.02296824 0.00407652
v 0.01523673 -0.02296920 -0.00407858
v 0.01639047 -0.02296920 -0.00407858
v 0.01639047 -0.02294121 0.00411560
v 0.01523673 -0.02283889 0.00425958
v 0.01523673 -0.02289101 -0.00418862
v 0.01639047 -0.02276070 -0.00436962
v 0.01639047 -0.02275973 0.00436962
v 0.01523673 -0.02275973 0.00436962
v 0.01523673 -0.02276070 -0.00436962
v 0.01523673 -0.02268540 -0.00446423
v 0.01639047 -0.02256088 -0.00462054
v 0.01639047 -0.02273367 0.00440252
v 0.01523673 -0.02263617 0.00452593
v 0.01523673 -0.02256088 -0.00462054
v 0.01639047 -0.02230990 -0.00480771
v 0.01639047 -0.02256088 0.00462054
v 0.01523673 -0.02256088 0.00462054
v 0.01523673 -0.02230990 -0.00480771
v 0.01639047 -0.02202610 -0.00498973
v 0.01639047 -0.02252806 0.00464522
v 0.01523673 -0.02230990 0.00480771
v 0.01523673 -0.02198267 -0.00501647
v 0.01639047 -0.02198267 -0.00501647
v 0.01639047 -0.02230990 0.00480771
v 0.01523673 -0.02210622 0.00493831
v 0.01523673 -0.02175293 -0.00511211
v 0.01639047 -0.02175293 -0.00511211
v 0.01639047 -0.02226646 0.00483547
v 0.01639047 -0.02198267 0.00501647
v 0.01523673 -0.02198267 0.00501647
v 0.01523673 -0.02161585 -0.00514708
v 0.01639047 -0.02138997 -0.00520467
v 0.01639047 -0.02195274 0.00502984
v 0.01523673 -0.02183980 0.00507612
v 0.01523673 -0.02138997 -0.00520467
v 0.01523673 -0.02121622 -0.00522215
v 0.01639047 -0.02092952 -0.00524991
v 0.01639047 -0.02175293 0.00511108
v 0.01523673 -0.02175293 0.00511108
v 0.01523673 -0.02092952 -0.00524991
v 0.01639047 -0.02046908 -0.00525300
v 0.01639047 -0.02170466 0.00512342
v 0.01523673 -0.02138997 0.00520364
v 0.01523673 -0.02046908 -0.00525300
v 0.01639047 -0.01633084 -0.00525300
v 0.01639047 -0.02138997 0.00520261
v 0.01632993 -0.02138997 0.00520364
v 0.01523673 -0.02110231 0.00523140
v 0.01523673 -0.01771025 -0.00525300
v 0.01632993 -0.01633084 -0.00525300
v 0.01639047 -0.01587039 -0.00523140
v 0.01639047 -0.02132916 0.00520878
v 0.01639047 -0.02092952 0.00524786
v 0.01523673 -0.02092952 0.00524786
v 0.01523673 -0.01725077 -0.00525197
v 0.01541010 -0.01725077 -0.00525300
v 0.01586991 -0.01679032 -0.00525300
v 0.01541010 -0.01679032 -0.00523655
v 0.01632993 -0.01587039 -0.00522832
v 0.01639047 -0.01542153 -0.00515530
v 0.01639047 -0.02046908 0.00525300
v 0.01523673 -0.02046908 0.00525300
v 0.01523673 -0.01678357 -0.00520878
v 0.01639047 -0.01530473 -0.00512857
v 0.01639047 -0.01627003 0.00525300
v 0.01523673 -0.01742356 0.00525300
v 0.01523673 -0.01642351 -0.00512034
v 0.01639047 -0.01499776 -0.00497225
v 0.01639047 -0.01580958 0.00522935
v 0.01523673 -0.01696408 0.00524169
v 0.01523673 -0.01725077 0.00525197
v 0.01586991 -0.01679032 0.00525300
v 0.01523673 -0.01619860 -0.00497945
v 0.01639047 -0.01383168 -0.00431100
v 0.01639047 -0.01536265 0.00514605
v 0.01523673 -0.01678357 0.00520878
v 0.01523673 -0.01540705 -0.00439327
v 0.01523673 -0.01511650 -0.00417731
v 0.01639047 -0.01357009 -0.00406316
v 0.01639047 -0.01530473 0.00512856
v 0.01523673 -0.01650556 0.00515016
v 0.01523673 -0.01503059 -0.00390993
v 0.01639047 -0.01345329 -0.00390993
v 0.01639047 -0.01515318 0.00506789
v 0.01523673 -0.01642351 0.00512034
v 0.01523673 -0.01499294 -0.00344921
v 0.01639047 -0.01339344 -0.00344921
v 0.01639047 -0.01383168 0.00431100
v 0.01523673 -0.01625362 0.00501853
v 0.01523673 -0.01499197 -0.00298952
v 0.01639047 -0.01339151 -0.00298952
v 0.01639047 -0.01339247 -0.00322708
v 0.01639047 -0.01363959 0.00416291
v 0.01523673 -0.01518986 0.00424004
v 0.01523673 -0.01601133 0.00484267
v 0.01523673 -0.01619860 0.00497945
v 0.01523673 -0.01499197 0.00319725
v 0.01639047 -0.01339151 0.00298952
v 0.01639047 -0.01348514 0.00398706
v 0.01523673 -0.01511650 0.00417731
v 0.01523673 -0.01499294 0.00344921
v 0.01639047 -0.01339344 0.00344921
v 0.01639047 -0.01345329 0.00390993
v 0.01523673 -0.01506341 0.00406007
v 0.01523673 -0.01501128 0.00367648
v 0.01523673 -0.01503059 0.00390993
v 0.01639047 -0.01341950 0.00365489
f 1 2 3
f 1 3 7
f 1 7 4
f 1 4 8
f 1 8 12
f 1 12 17
f 1 17 23
f 1 23 29
f 1 29 33
f 1 33 37
f 1 37 42
f 1 42 46
f 1 46 50
f 1 50 54
f 1 54 59
f 1 59 63
f 1 63 68
f 1 68 72
f 1 72 77
f 1 77 83
f 1 83 91
f 1 91 95
f 1 95 100
f 1 100 99
f 1 99 105
f 1 105 110
f 1 110 114
f 1 114 118
f 1 118 125
f 1 125 124
f 1 124 123
f 1 123 129
f 1 129 133
f 1 133 135
f 1 135 134
f 1 134 130
f 1 130 126
f 1 126 119
f 1 119 115
f 1 115 111
f 1 111 107
f 1 107 106
f 1 106 102
f 1 102 96
f 1 96 92
f 1 92 84
f 1 84 78
f 1 78 73
f 1 73 69
f 1 69 65
f 1 65 64
f 1 64 60
f 1 60 55
f 1 55 51
f 1 51 47
f 1 47 43
f 1 43 39
f 1 39 38
f 1 38 34
f 1 34 30
f 1 30 24
f 1 24 18
f 1 18 13
f 1 13 9
f 1 9 5
f 1 5 2
f 2 5 6
f 2 6 3
f 3 6 10
f 3 10 14
f 3 14 20
f 3 20 25
f 3 25 26
f 3 26 31
f 3 31 35
f 3 35 40
f 3 40 44
f 3 44 48
f 3 48 52
f 3 52 56
f 3 56 61
f 3 61 66
f 3 66 70
f 3 70 74
f 3 74 80
f 3 80 89
f 3 89 93
f 3 93 97
f 3 97 103
f 3 103 108
f 3 108 112
f 3 112 116
f 3 116 121
f 3 121 120
f 3 120 127
f 3 127 131
f 3 131 136
f 3 136 132
f 3 132 128
f 3 128 122
f 3 122 117
f 3 117 113
f 3 113 109
f 3 109 104
f 3 104 98
f 3 98 94
f 3 94 90
f 3 90 82
f 3 82 81
f 3 81 75
f 3 75 71
f 3 71 67
f 3 67 62
f 3 62 58
f 3 58 57
f 3 57 53
f 3 53 49
f 3 49 45
f 3 45 41
f 3 41 36
f 3 36 32
f 3 32 28
f 3 28 27
f 3 27 22
f 3 22 21
f 3 21 15
f 3 15 11
f 3 11 7
f 4 7 11
f 4 11 8
f 5 9 10
f 5 10 6
f 8 11 16
f 8 16 12
f 9 13 10
f 10 13 14
f 11 15 16
f 12 16 22
f 12 22 17
f 13 18 14
f 14 18 19
f 14 19 20
f 15 21 16
f 16 21 22
f 17 22 23
f 18 24 19
f 19 25 20
f 19 24 26
f 19 26 25
f 22 27 23
f 23 28 29
f 23 27 28
f 24 30 26
f 26 30 31
f 28 32 29
f 29 32 33
f 30 34 31
f 31 34 35
f 32 36 33
f 33 36 37
f 34 38 35
f 35 38 39
f 35 39 40
f 36 41 42
f 36 42 37
f 39 43 40
f 40 43 47
f 40 47 44
f 41 45 42
f 42 45 46
f 44 47 48
f 45 49 46
f 46 49 50
f 47 51 48
f 48 51 52
f 49 53 50
f 50 53 54
f 51 55 56
f 51 56 52
f 53 57 54
f 54 57 58
f 54 58 59
f 55 60 56
f 56 60 61
f 58 62 59
f 59 62 63
f 60 64 61
f 61 64 65
f 61 65 66
f 62 67 63
f 63 67 68
f 65 69 66
f 66 69 73
f 66 73 70
f 67 71 68
f 68 71 72
f 70 73 78
f 70 78 85
f 70 85 86
f 70 86 79
f 70 79 74
f 71 75 76
f 71 76 72
f 72 76 77
f 74 79 80
f 75 81 76
f 76 81 82
f 76 82 77
f 77 82 83
f 78 84 85
f 79 86 84
f 79 84 87
f 79 87 80
f 80 87 88
f 80 88 89
f 82 90 91
f 82 91 83
f 84 92 87
f 84 86 85
f 87 92 88
f 88 92 89
f 89 92 93
f 90 94 101
f 90 101 95
f 90 95 91
f 92 96 93
f 93 96 97
f 94 98 99
f 94 99 100
f 94 100 101
f 95 101 100
f 96 102 103
f 96 103 97
f 98 104 105
f 98 105 99
f 102 106 103
f 103 106 107
f 103 107 108
f 104 109 110
f 104 110 105
f 107 111 112
f 107 112 108
f 109 113 114
f 109 114 110
f 111 115 116
f 111 116 112
f 113 117 114
f 114 117 118
f 115 119 120
f 115 120 121
f 115 121 116
f 117 122 123
f 117 123 124
f 117 124 125
f 117 125 118
f 119 126 127
f 119 127 120
f 122 128 129
f 122 129 123
f 126 130 127
f 127 130 131
f 128 132 133
f 128 133 129
f 130 134 131
f 131 134 135
f 131 135 136
f 132 136 135
f 132 135 133

