# https://github.com/mikedh/trimesh
v -0.02046936 0.01356805 -0.00525300
v -0.01863010 0.01356805 -0.00525300
v -0.02092938 0.01356805 -0.00524991
v -0.02046936 0.02046962 -0.00525300
v -0.01817008 0.01357090 -0.00525300
v -0.01817008 0.01356805 -0.00525197
v -0.02138940 0.01356805 -0.00520467
v -0.02092938 0.02046962 -0.00524991
v -0.02046936 0.02092941 -0.00524991
v -0.01496536 0.02046962 -0.00525300
v -0.01496536 0.01771089 -0.00525300
v -0.01496536 0.01725015 -0.00525094
v -0.01814655 0.01356805 -0.00524889
v -0.02138940 0.02046962 -0.00520467
v -0.02175287 0.01356805 -0.00511108
v -0.02092938 0.02092941 -0.00524580
v -0.01863010 0.02092941 -0.00524991
v -0.02092938 0.02138920 -0.00520158
v -0.02046936 0.02138920 -0.00520467
v -0.01496536 0.02092941 -0.00524889
v -0.01496536 0.01677425 -0.00516456
v -0.01767112 0.01356805 -0.00517279
v -0.02138940 0.02092941 -0.00520055
v -0.02175287 0.02046962 -0.00511108
v -0.02174638 0.02092941 -0.00510903
v -0.02198328 0.01356805 -0.00501647
v -0.01496536 0.02138920 -0.00520467
v -0.01496536 0.02094363 -0.00524786
v -0.02138940 0.02138920 -0.00515530
v -0.02138940 0.02168972 -0.00508640
v -0.02092938 0.02174660 -0.00510903
v -0.02046936 0.02174944 -0.00511211
v -0.01496536 0.01673253 -0.00515222
v -0.01758593 0.01356805 -0.00514913
v -0.02168877 0.02138920 -0.00508640
v -0.02198328 0.02046962 -0.00501647
v -0.02197679 0.02092941 -0.00501441
v -0.02230943 0.01356805 -0.00480771
v -0.01496536 0.02174944 -0.00511211
v -0.02163117 0.02163094 -0.00506378
v -0.02138940 0.02192009 -0.00498870
v -0.02092938 0.02197602 -0.00501441
v -0.02046936 0.02197981 -0.00501441
v -0.01496536 0.02175703 -0.00510903
v -0.01509193 0.01649174 -0.00510286
v -0.01730197 0.01356805 -0.00498665
v -0.01740825 0.01365432 -0.00511005
v -0.01496536 0.01635712 -0.00492700
v -0.02191919 0.02138920 -0.00498870
v -0.02230943 0.02046962 -0.00480771
v -0.02230943 0.02092941 -0.00480154
v -0.02233702 0.02137024 -0.00473264
v -0.02256094 0.01356805 -0.00462054
v -0.02218773 0.02184993 -0.00467916
v -0.02181047 0.02181106 -0.00490129
v -0.02184942 0.02218743 -0.00467916
v -0.02136911 0.02233721 -0.00473264
v -0.02092938 0.02230972 -0.00480154
v -0.02046936 0.02230972 -0.00480462
v -0.01496536 0.02199024 -0.00500824
v -0.01496536 0.02197981 -0.00501441
v -0.01723868 0.01356805 -0.00493523
v -0.01496536 0.01628507 -0.00487455
v -0.01670970 0.01356805 -0.00446526
v -0.01695391 0.01356805 -0.00468225
v -0.02256094 0.02046962 -0.00462054
v -0.02255770 0.02092941 -0.00461746
v -0.02254958 0.02120433 -0.00460923
v -0.02250902 0.02151054 -0.00457118
v -0.02276134 0.01356805 -0.00436962
v -0.02241815 0.02184993 -0.00448274
v -0.02210092 0.02210116 -0.00461540
v -0.02184942 0.02241780 -0.00448480
v -0.02150947 0.02250880 -0.00457015
v -0.02120279 0.02254957 -0.00460923
v -0.02092938 0.02255715 -0.00461643
v -0.02046936 0.02256000 -0.00461951
v -0.01679002 0.02230972 -0.00480462
v -0.01496536 0.02230972 -0.00480360
v -0.01496536 0.01555699 -0.00431511
v -0.01646144 0.01356805 -0.00423593
v -0.02276134 0.02046962 -0.00436962
v -0.02275566 0.02092941 -0.00436962
v -0.02268345 0.02137024 -0.00439841
v -0.02262909 0.02184993 -0.00425238
v -0.02296985 0.01356805 -0.00407858
v -0.02256013 0.02210685 -0.00416600
v -0.02225913 0.02225758 -0.00432128
v -0.02211066 0.02256284 -0.00416908
v -0.02184942 0.02263015 -0.00425444
v -0.02136911 0.02268229 -0.00439738
v -0.02092938 0.02275529 -0.00436962
v -0.02046936 0.02275908 -0.00436962
v -0.01817008 0.02256000 -0.00461951
v -0.01496536 0.02255905 -0.00461849
v -0.01496536 0.01545271 -0.00423490
v -0.01633000 0.01356805 -0.00390993
v -0.02296985 0.02046962 -0.00407858
v -0.02296741 0.02092941 -0.00407447
v -0.02294145 0.02138920 -0.00402099
v -0.02285626 0.02182908 -0.00388833
v -0.02307207 0.01356805 -0.00384822
v -0.02263153 0.02220260 -0.00390993
v -0.02243519 0.02243296 -0.00390993
v -0.02220558 0.02263394 -0.00390993
v -0.02182994 0.02285768 -0.00388833
v -0.02138940 0.02294015 -0.00402099
v -0.02092938 0.02296670 -0.00407344
v -0.02046936 0.02296859 -0.00407755
v -0.01633000 0.02275908 -0.00436962
v -0.01496536 0.02256569 -0.00461026
v -0.01516333 0.01516357 -0.00415468
v -0.01496536 0.01529819 -0.00390993
v -0.01629755 0.01356805 -0.00344921
v -0.02307207 0.02046962 -0.00384822
v -0.02307045 0.02092941 -0.00384514
v -0.02304773 0.02138920 -0.00379166
v -0.02301772 0.02166223 -0.00372070
v -0.02295119 0.02197412 -0.00344921
v -0.02319296 0.01356805 -0.00344921
v -0.02269968 0.02234575 -0.00346258
v -0.02252281 0.02252303 -0.00362404
v -0.02234513 0.02269936 -0.00346258
v -0.02197517 0.02295058 -0.00344921
v -0.02166362 0.02301694 -0.00372070
v -0.02138940 0.02304823 -0.00379063
v -0.02092938 0.02307098 -0.00384411
v -0.02046936 0.02307288 -0.00384720
v -0.01496536 0.02297239 -0.00407036
v -0.01496536 0.02296859 -0.00407755
v -0.01496536 0.02275813 -0.00436962
v -0.01496536 0.01526311 -0.00344921
v -0.01629674 0.01356805 -0.00298952
v -0.02319296 0.01679036 -0.00344921
v -0.02319215 0.02046962 -0.00344921
v -0.02318972 0.02092941 -0.00344921
v -0.02314347 0.02138920 -0.00344921
v -0.02305017 0.02174470 -0.00344921
v -0.02298364 0.02204428 -0.00298952
v -0.02324651 0.01356805 -0.00298952
v -0.02279623 0.02230972 -0.00298952
v -0.02256419 0.02256379 -0.00331758
v -0.02230943 0.02279511 -0.00298952
v -0.02204332 0.02298281 -0.00298952
v -0.02174475 0.02305107 -0.00344921
v -0.02138940 0.02314492 -0.00344921
v -0.02092938 0.02319043 -0.00344921
v -0.02046936 0.02319327 -0.00344921
v -0.01496536 0.02307667 -0.00383485
v -0.01496536 0.02307288 -0.00384720
v -0.01496536 0.01526311 0.00344921
v -0.01629674 0.01356805 0.00299158
v -0.02324651 0.02046962 -0.00298952
v -0.02324326 0.02092941 -0.00298952
v -0.02319783 0.02138920 -0.00298952
v -0.02307775 0.02181391 -0.00298952
v -0.02298770 0.02205281 -0.00252983
v -0.02280677 0.02230972 -0.00252983
v -0.02325300 0.01356805 -0.00252983
v -0.02258285 0.02258275 -0.00298952
v -0.02230943 0.02280648 -0.00252983
v -0.02205306 0.02298755 -0.00252983
v -0.02181372 0.02307856 -0.00298952
v -0.02138940 0.02319801 -0.00298952
v -0.02092938 0.02324257 -0.00298952
v -0.02046936 0.02324636 -0.00298952
v -0.01496536 0.02319517 -0.00343481
v -0.01496536 0.02319327 -0.00344921
v -0.01496536 0.01529819 0.00390993
v -0.01629755 0.01356805 0.00345229
v -0.02325300 0.02046962 -0.00252983
v -0.02324975 0.02092941 -0.00252983
v -0.02320513 0.02138920 -0.00252983
v -0.02308181 0.02182244 -0.00252983
v -0.02298770 0.02205281 0.00252983
v -0.02258853 0.02258844 -0.00252983
v -0.02280677 0.02230972 0.00252983
v -0.02325300 0.01356805 0.00252983
v -0.02230943 0.02280648 0.00252983
v -0.02182264 0.02308141 -0.00252983
v -0.02205306 0.02298755 0.00252983
v -0.02138940 0.02320276 -0.00252983
v -0.02092938 0.02324731 -0.00252983
v -0.02046936 0.02325300 -0.00252983
v -0.01496536 0.02324636 -0.00298952
v -0.01496536 0.01530956 0.00396443
v -0.01633000 0.01356805 0.00390993
v -0.02325300 0.02046962 0.00252983
v -0.02324975 0.02092941 0.00252983
v -0.02320513 0.02138920 0.00252983
v -0.02308181 0.02182244 0.00252983
v -0.02307856 0.02181486 0.00298952
v -0.02298364 0.02204522 0.00298952
v -0.02279947 0.02230972 0.00298952
v -0.02258853 0.02258844 0.00252983
v -0.02258447 0.02258465 0.00298952
v -0.02324651 0.01356805 0.00298952
v -0.02230943 0.02279890 0.00298952
v -0.02182264 0.02308141 0.00252983
v -0.02138940 0.02320465 0.00160942
v -0.02204413 0.02298376 0.00298952
v -0.02181372 0.02307856 0.00298952
v -0.02092938 0.02324921 0.00160942
v -0.01496536 0.02325300 -0.00252983
v -0.02046936 0.02325300 0.00252983
v -0.01496536 0.01545271 0.00423490
v -0.01646144 0.01356805 0.00423592
v -0.02324651 0.02046962 0.00298952
v -0.02324326 0.02092941 0.00298952
v -0.02319864 0.02138920 0.00298952
v -0.02305098 0.02174755 0.00344921
v -0.02295281 0.02197792 0.00344921
v -0.02270211 0.02234385 0.00346155
v -0.02256743 0.02256758 0.00331552
v -0.02319377 0.01356805 0.00344921
v -0.02234351 0.02270220 0.00346155
v -0.02138940 0.02320465 0.00252983
v -0.02197355 0.02295153 0.00344921
v -0.02174394 0.02304918 0.00344921
v -0.02138940 0.02319896 0.00298952
v -0.02092938 0.02324921 0.00252983
v -0.01496536 0.02325300 0.00252983
v -0.02092938 0.02324352 0.00298952
v -0.02046936 0.02324636 0.00298952
v -0.01496536 0.01546030 0.00424107
v -0.01496536 0.01579495 0.00450022
v -0.01496536 0.01625473 0.00485296
v -0.01496536 0.01654009 0.00506892
v -0.01670970 0.01356805 0.00446526
v -0.02319377 0.02046962 0.00344921
v -0.02319053 0.02092941 0.00344921
v -0.02314509 0.02138920 0.00344921
v -0.02301772 0.02166507 0.00372070
v -0.02285626 0.02183097 0.00388833
v -0.02263234 0.02219975 0.00390993
v -0.02251957 0.02251923 0.00362301
v -0.02307289 0.01356805 0.00384822
v -0.02220153 0.02263300 0.00390993
v -0.02182832 0.02285768 0.00388730
v -0.02166119 0.02301599 0.00371865
v -0.02138940 0.02314303 0.00344921
v -0.02092938 0.02318948 0.00344921
v -0.01496536 0.02324636 0.00298952
v -0.02046936 0.02319327 0.00344921
v -0.01496536 0.01673253 0.00515222
v -0.01743015 0.01356805 0.00509463
v -0.01723868 0.01356805 0.00493523
v -0.01722165 0.01356805 0.00492083
v -0.02307289 0.02046962 0.00384822
v -0.02307126 0.02092941 0.00384514
v -0.02304854 0.02138920 0.00379166
v -0.02294145 0.02138920 0.00402202
v -0.02262828 0.02184993 0.00425341
v -0.02256013 0.02210685 0.00416599
v -0.02243113 0.02243012 0.00390993
v -0.02296985 0.01356805 0.00407858
v -0.02210823 0.02256095 0.00416702
v -0.02184942 0.02262920 0.00425341
v -0.02138940 0.02294110 0.00401791
v -0.02138940 0.02304633 0.00378858
v -0.02092938 0.02307098 0.00384205
v -0.01496536 0.02319327 0.00344921
v -0.02046936 0.02307288 0.00384617
v -0.01496536 0.01675339 0.00516044
v -0.01758593 0.01356805 0.00514913
v -0.02296985 0.02046962 0.00407858
v -0.02296822 0.02092941 0.00407550
v -0.02268426 0.02137308 0.00439841
v -0.02250983 0.02151623 0.00457118
v -0.02241977 0.02184993 0.00448274
v -0.02210255 0.02210305 0.00461643
v -0.02225913 0.02225853 0.00432025
v -0.02276053 0.01356805 0.00436962
v -0.02184942 0.02241874 0.00448377
v -0.02150379 0.02250880 0.00457015
v -0.02136587 0.02268134 0.00439841
v -0.02092938 0.02296670 0.00407241
v -0.01496536 0.02307288 0.00384617
v -0.02046936 0.02296859 0.00407652
v -0.01763785 0.01356805 0.00516456
v -0.01496536 0.01677425 0.00516456
v -0.01767112 0.01356805 0.00517279
v -0.02276053 0.02046962 0.00436962
v -0.02275728 0.02092941 0.00436962
v -0.02255121 0.02120907 0.00461026
v -0.02233783 0.02137308 0.00473366
v -0.02218936 0.02184993 0.00467916
v -0.02181047 0.02181012 0.00490026
v -0.02184942 0.02218837 0.00467813
v -0.02256094 0.01356805 0.00462054
v -0.02136587 0.02233721 0.00472955
v -0.02119711 0.02254767 0.00460717
v -0.02092938 0.02275339 0.00436962
v -0.02046936 0.02276003 0.00436962
v -0.01496536 0.02296859 0.00407652
v -0.01496536 0.01723593 0.00524991
v -0.01814655 0.01356805 0.00524889
v -0.02256094 0.02046962 0.00462054
v -0.02255851 0.02092941 0.00461848
v -0.02230943 0.02092941 0.00480359
v -0.02197923 0.02092941 0.00501544
v -0.02192081 0.02138920 0.00498870
v -0.02163036 0.02162999 0.00506378
v -0.02138940 0.02191914 0.00498665
v -0.02230943 0.01356805 0.00480771
v -0.02092938 0.02230972 0.00480154
v -0.02092938 0.02197792 0.00501441
v -0.02092938 0.02255621 0.00461540
v -0.02046936 0.02256095 0.00461951
v -0.01954932 0.02256095 0.00462054
v -0.01496536 0.02276003 0.00436962
v -0.01496536 0.01725015 0.00525094
v -0.01817008 0.01357090 0.00525300
v -0.01817008 0.01356805 0.00525197
v -0.02230943 0.02046962 0.00480771
v -0.02198328 0.02046962 0.00501647
v -0.02175287 0.02046962 0.00511211
v -0.02174881 0.02092941 0.00511005
v -0.02169040 0.02138920 0.00508743
v -0.02138940 0.02138920 0.00515530
v -0.02138940 0.02168877 0.00508640
v -0.02198328 0.01356805 0.00501647
v -0.02046936 0.02230972 0.00480771
v -0.02046936 0.02198265 0.00501647
v -0.02092938 0.02174755 0.00510903
v -0.02046936 0.02175324 0.00511211
v -0.01496536 0.02256095 0.00462054
v -0.01496536 0.01769572 0.00525300
v -0.01863010 0.01356805 0.00525300
v -0.02175287 0.01356805 0.00511211
v -0.02138940 0.02046962 0.00520467
v -0.02138940 0.02092941 0.00520158
v -0.02092938 0.02138920 0.00520055
v -0.01496536 0.02230972 0.00480771
v -0.01496536 0.02197602 0.00501956
v -0.01496536 0.02198265 0.00501647
v -0.01496536 0.02175324 0.00511211
v -0.02046936 0.02138920 0.00520467
v -0.01496536 0.02046962 0.00525300
v -0.02046936 0.01356805 0.00525300
v -0.02138940 0.01356805 0.00520467
v -0.02092938 0.02046962 0.00524889
v -0.02092938 0.02092941 0.00524580
v -0.01496536 0.02138920 0.00520467
v -0.02046936 0.02092941 0.00524991
v -0.01496536 0.02137498 0.00520672
v -0.02046936 0.02046962 0.00525300
v -0.01496536 0.02092941 0.00524991
v -0.02092938 0.01356805 0.00524889
f 1 2 6
f 1 6 13
f 1 13 22
f 1 22 34
f 1 34 46
f 1 46 62
f 1 62 65
f 1 65 64
f 1 64 81
f 1 81 97
f 1 97 114
f 1 114 133
f 1 133 152
f 1 152 170
f 1 170 187
f 1 187 207
f 1 207 229
f 1 229 248
f 1 248 247
f 1 247 246
f 1 246 265
f 1 265 280
f 1 280 282
f 1 282 297
f 1 297 314
f 1 314 329
f 1 329 340
f 1 340 349
f 1 349 341
f 1 341 330
f 1 330 322
f 1 322 305
f 1 305 290
f 1 290 273
f 1 273 256
f 1 256 237
f 1 237 215
f 1 215 197
f 1 197 178
f 1 178 159
f 1 159 140
f 1 140 120
f 1 120 102
f 1 102 86
f 1 86 70
f 1 70 53
f 1 53 38
f 1 38 26
f 1 26 15
f 1 15 7
f 1 7 3
f 1 3 8
f 1 8 4
f 1 4 10
f 1 10 11
f 1 11 5
f 1 5 2
f 2 5 6
f 3 7 14
f 3 14 8
f 4 8 9
f 4 9 17
f 4 17 10
f 5 11 12
f 5 12 13
f 5 13 6
f 7 15 24
f 7 24 14
f 8 14 23
f 8 23 16
f 8 16 9
f 9 16 18
f 9 18 19
f 9 19 27
f 9 27 17
f 10 17 20
f 10 20 28
f 10 28 27
f 10 27 39
f 10 39 44
f 10 44 61
f 10 61 60
f 10 60 79
f 10 79 95
f 10 95 111
f 10 111 131
f 10 131 130
f 10 130 129
f 10 129 150
f 10 150 149
f 10 149 168
f 10 168 167
f 10 167 185
f 10 185 204
f 10 204 222
f 10 222 243
f 10 243 262
f 10 262 278
f 10 278 295
f 10 295 311
f 10 311 327
f 10 327 334
f 10 334 336
f 10 336 335
f 10 335 337
f 10 337 344
f 10 344 346
f 10 346 348
f 10 348 339
f 10 339 328
f 10 328 312
f 10 312 296
f 10 296 281
f 10 281 264
f 10 264 245
f 10 245 228
f 10 228 227
f 10 227 226
f 10 226 225
f 10 225 206
f 10 206 186
f 10 186 169
f 10 169 151
f 10 151 132
f 10 132 113
f 10 113 96
f 10 96 80
f 10 80 63
f 10 63 48
f 10 48 33
f 10 33 21
f 10 21 12
f 10 12 11
f 12 21 22
f 12 22 13
f 14 24 25
f 14 25 23
f 15 26 36
f 15 36 24
f 16 23 18
f 17 27 28
f 17 28 20
f 18 23 29
f 18 29 30
f 18 30 31
f 18 31 32
f 18 32 19
f 19 32 39
f 19 39 27
f 21 33 34
f 21 34 22
f 23 25 35
f 23 35 29
f 24 36 37
f 24 37 25
f 25 37 35
f 26 38 50
f 26 50 36
f 29 35 40
f 29 40 30
f 30 40 41
f 30 41 42
f 30 42 31
f 31 42 32
f 32 42 43
f 32 43 44
f 32 44 39
f 33 45 46
f 33 46 47
f 33 47 34
f 33 48 45
f 34 47 46
f 35 37 49
f 35 49 40
f 36 50 51
f 36 51 37
f 37 51 52
f 37 52 49
f 38 53 66
f 38 66 50
f 40 49 54
f 40 54 55
f 40 55 41
f 41 55 56
f 41 56 57
f 41 57 42
f 42 57 58
f 42 58 59
f 42 59 43
f 43 59 60
f 43 60 61
f 43 61 44
f 45 48 46
f 46 48 62
f 48 63 64
f 48 64 65
f 48 65 62
f 49 52 54
f 50 66 67
f 50 67 51
f 51 67 68
f 51 68 52
f 52 68 69
f 52 69 54
f 53 70 82
f 53 82 66
f 54 69 71
f 54 71 72
f 54 72 55
f 55 72 56
f 56 72 73
f 56 73 74
f 56 74 57
f 57 74 75
f 57 75 58
f 58 75 76
f 58 76 77
f 58 77 59
f 59 77 94
f 59 94 78
f 59 78 60
f 60 78 79
f 63 80 81
f 63 81 64
f 66 82 83
f 66 83 67
f 67 83 68
f 68 83 84
f 68 84 69
f 69 84 85
f 69 85 71
f 70 86 98
f 70 98 82
f 71 85 87
f 71 87 72
f 72 87 88
f 72 88 89
f 72 89 73
f 73 89 90
f 73 90 74
f 74 90 91
f 74 91 75
f 75 91 92
f 75 92 76
f 76 92 77
f 77 92 93
f 77 93 110
f 77 110 94
f 78 94 95
f 78 95 79
f 80 96 81
f 81 96 97
f 82 98 99
f 82 99 83
f 83 99 84
f 84 99 100
f 84 100 85
f 85 100 101
f 85 101 87
f 86 102 115
f 86 115 98
f 87 89 88
f 87 101 103
f 87 103 104
f 87 104 89
f 89 104 105
f 89 105 106
f 89 106 90
f 90 106 107
f 90 107 91
f 91 107 108
f 91 108 92
f 92 108 109
f 92 109 93
f 93 109 130
f 93 130 110
f 94 110 111
f 94 111 95
f 96 112 97
f 96 113 112
f 97 113 114
f 97 112 113
f 98 115 116
f 98 116 99
f 99 116 117
f 99 117 100
f 100 117 118
f 100 118 101
f 101 118 119
f 101 119 103
f 102 120 134
f 102 134 115
f 103 119 121
f 103 121 122
f 103 122 104
f 104 122 105
f 105 122 123
f 105 123 124
f 105 124 106
f 106 124 125
f 106 125 107
f 107 125 126
f 107 126 108
f 108 126 127
f 108 127 109
f 109 127 128
f 109 128 129
f 109 129 130
f 110 131 111
f 110 130 131
f 113 132 114
f 114 132 133
f 115 134 135
f 115 135 136
f 115 136 116
f 116 136 117
f 117 136 137
f 117 137 118
f 118 137 138
f 118 138 119
f 119 138 139
f 119 139 121
f 120 140 153
f 120 153 134
f 121 139 141
f 121 141 142
f 121 142 122
f 122 142 123
f 123 142 143
f 123 143 144
f 123 144 124
f 124 145 125
f 124 144 145
f 125 145 146
f 125 146 126
f 126 146 147
f 126 147 127
f 127 147 148
f 127 148 128
f 128 148 149
f 128 149 150
f 128 150 129
f 132 151 152
f 132 152 133
f 134 153 135
f 135 153 136
f 136 153 154
f 136 154 155
f 136 155 137
f 137 155 138
f 138 155 156
f 138 156 139
f 139 156 174
f 139 174 157
f 139 157 158
f 139 158 141
f 140 159 171
f 140 171 153
f 141 158 160
f 141 160 142
f 142 160 143
f 143 160 161
f 143 161 162
f 143 162 144
f 144 162 163
f 144 163 145
f 145 163 164
f 145 164 146
f 146 164 147
f 147 164 165
f 147 165 166
f 147 166 148
f 148 166 167
f 148 167 168
f 148 168 149
f 151 169 170
f 151 170 152
f 153 171 172
f 153 172 154
f 154 172 173
f 154 173 155
f 155 173 156
f 156 173 174
f 157 174 191
f 157 191 175
f 157 175 177
f 157 177 158
f 158 176 160
f 158 177 195
f 158 195 176
f 159 178 188
f 159 188 171
f 160 176 161
f 161 176 195
f 161 195 179
f 161 179 181
f 161 181 162
f 162 180 163
f 162 181 199
f 162 199 180
f 163 180 164
f 164 180 182
f 164 182 183
f 164 183 165
f 165 183 184
f 165 184 166
f 166 184 204
f 166 204 185
f 166 185 167
f 169 186 187
f 169 187 170
f 171 188 189
f 171 189 172
f 172 189 190
f 172 190 173
f 173 190 191
f 173 191 174
f 175 191 192
f 175 192 193
f 175 193 194
f 175 194 177
f 177 194 196
f 177 196 195
f 178 197 208
f 178 208 188
f 179 195 196
f 179 196 198
f 179 198 181
f 180 199 217
f 180 217 200
f 180 200 182
f 181 198 201
f 181 201 202
f 181 202 199
f 182 200 203
f 182 203 183
f 183 203 184
f 184 203 221
f 184 221 205
f 184 205 222
f 184 222 204
f 186 206 207
f 186 207 187
f 188 208 209
f 188 209 189
f 189 209 210
f 189 210 190
f 190 210 192
f 190 192 191
f 192 210 211
f 192 211 193
f 193 211 212
f 193 212 213
f 193 213 194
f 194 213 214
f 194 214 196
f 196 214 198
f 197 215 230
f 197 230 208
f 198 214 216
f 198 216 201
f 199 202 217
f 200 217 221
f 200 221 203
f 201 216 218
f 201 218 219
f 201 219 202
f 202 220 217
f 202 219 220
f 205 221 223
f 205 223 224
f 205 224 243
f 205 243 222
f 206 225 207
f 207 225 226
f 207 226 227
f 207 227 228
f 207 228 229
f 208 230 231
f 208 231 209
f 209 231 210
f 210 231 232
f 210 232 211
f 211 232 233
f 211 233 212
f 212 233 234
f 212 234 235
f 212 235 213
f 213 235 236
f 213 236 214
f 214 236 216
f 215 237 249
f 215 249 230
f 216 236 238
f 216 238 218
f 217 220 223
f 217 223 221
f 218 238 239
f 218 239 240
f 218 240 219
f 219 241 220
f 219 240 241
f 220 241 242
f 220 242 223
f 223 242 244
f 223 244 224
f 224 244 262
f 224 262 243
f 228 245 246
f 228 246 247
f 228 247 248
f 228 248 229
f 230 249 250
f 230 250 231
f 231 250 251
f 231 251 232
f 232 251 233
f 233 251 252
f 233 252 234
f 234 252 253
f 234 253 254
f 234 254 235
f 235 255 236
f 235 254 255
f 236 255 238
f 237 256 266
f 237 266 249
f 238 255 257
f 238 257 239
f 239 257 258
f 239 258 259
f 239 259 240
f 240 260 241
f 240 259 260
f 241 260 242
f 242 260 261
f 242 261 244
f 244 261 263
f 244 263 278
f 244 278 262
f 245 264 246
f 246 264 265
f 249 266 267
f 249 267 250
f 250 267 251
f 251 267 252
f 252 267 268
f 252 268 253
f 253 268 269
f 253 269 270
f 253 270 254
f 254 270 271
f 254 271 272
f 254 272 257
f 254 257 255
f 256 273 283
f 256 283 266
f 257 272 271
f 257 271 274
f 257 274 258
f 258 274 275
f 258 275 276
f 258 276 259
f 259 277 260
f 259 276 277
f 260 277 261
f 261 277 279
f 261 279 263
f 263 279 295
f 263 295 278
f 264 280 265
f 264 281 282
f 264 282 280
f 266 283 284
f 266 284 267
f 267 284 268
f 268 284 285
f 268 285 269
f 269 285 286
f 269 286 287
f 269 287 270
f 270 287 271
f 271 287 288
f 271 288 289
f 271 289 274
f 273 290 298
f 273 298 283
f 274 289 275
f 275 289 291
f 275 291 292
f 275 292 276
f 276 292 293
f 276 293 277
f 277 293 294
f 277 294 279
f 279 294 311
f 279 311 295
f 281 296 282
f 282 296 297
f 283 298 284
f 284 298 299
f 284 299 285
f 285 299 300
f 285 300 286
f 286 300 301
f 286 301 302
f 286 302 287
f 287 302 303
f 287 303 288
f 288 303 289
f 289 303 304
f 289 304 291
f 290 305 315
f 290 315 298
f 291 306 292
f 291 304 307
f 291 307 306
f 292 306 308
f 292 308 293
f 293 308 309
f 293 309 294
f 294 309 310
f 294 310 327
f 294 327 311
f 296 312 313
f 296 313 297
f 297 313 314
f 298 315 299
f 299 315 300
f 300 315 301
f 301 315 316
f 301 316 317
f 301 317 318
f 301 318 319
f 301 319 302
f 302 319 303
f 303 319 320
f 303 320 321
f 303 321 304
f 304 321 307
f 305 322 316
f 305 316 315
f 306 309 308
f 306 307 323
f 306 323 309
f 307 324 323
f 307 321 325
f 307 325 326
f 307 326 324
f 309 323 310
f 310 323 334
f 310 334 327
f 312 328 313
f 313 329 314
f 313 328 339
f 313 339 347
f 313 347 340
f 313 340 329
f 316 322 330
f 316 330 317
f 317 330 341
f 317 341 331
f 317 331 332
f 317 332 318
f 318 332 319
f 319 332 320
f 320 332 333
f 320 333 321
f 321 333 325
f 323 324 336
f 323 336 334
f 324 326 335
f 324 335 336
f 325 333 326
f 326 337 335
f 326 333 338
f 326 338 344
f 326 344 337
f 331 341 349
f 331 349 342
f 331 342 343
f 331 343 332
f 332 343 333
f 333 343 345
f 333 345 338
f 338 345 346
f 338 346 344
f 339 348 345
f 339 345 347
f 340 347 342
f 340 342 349
f 342 347 345
f 342 345 343
f 345 348 346

