# https://github.com/mikedh/trimesh
v -0.00380819 0.00355119 0.00525300
v -0.00380819 0.00401177 0.00522523
v -0.00470835 0.00311142 0.00523860
v -0.00470835 0.00298892 0.00524477
v -0.00391005 0.00344951 0.00525300
v -0.00380819 -0.00344951 0.00525300
v -0.00380819 0.00444051 0.00513576
v -0.00470835 0.00345074 0.00516764
v -0.00470835 0.00265083 0.00525300
v -0.00391005 -0.00344951 0.00525300
v -0.00380819 -0.00390888 0.00523037
v -0.00470835 0.00355609 0.00514502
v -0.00380819 0.00451279 0.00511108
v -0.00470835 -0.00252956 0.00525300
v -0.00437000 -0.00298892 0.00525300
v -0.00470835 -0.00298892 0.00524477
v -0.00391005 -0.00390888 0.00522420
v -0.00380819 -0.00435354 0.00515119
v -0.00470835 0.00364551 0.00510903
v -0.00380819 0.00461691 0.00506480
v -0.00465980 0.00373003 0.00509257
v -0.00470835 -0.00345074 0.00516764
v -0.00437000 -0.00344951 0.00522935
v -0.00389445 -0.00434864 0.00513268
v -0.00380819 -0.00451279 0.00511108
v -0.00470835 0.00371043 0.00507817
v -0.00380819 0.00592028 0.00427192
v -0.00470835 -0.00364551 0.00510903
v -0.00380819 -0.00473328 0.00498768
v -0.00465980 -0.00373003 0.00509257
v -0.00470835 0.00404607 0.00483650
v -0.00380819 0.00605870 0.00415263
v -0.00470835 0.00492438 0.00419170
v -0.00470835 0.00487783 0.00422975
v -0.00470835 -0.00378148 0.00502470
v -0.00380819 -0.00488518 0.00489615
v -0.00380819 -0.00592028 0.00427192
v -0.00380819 0.00620692 0.00389450
v -0.00461381 0.00507505 0.00415263
v -0.00470835 0.00499665 0.00406213
v -0.00470835 -0.00396400 0.00489306
v -0.00461381 -0.00507505 0.00415263
v -0.00380819 -0.00620692 0.00389450
v -0.00470835 -0.00492438 0.00419170
v -0.00380819 0.00625347 0.00350166
v -0.00470835 0.00502850 0.00390993
v -0.00470835 -0.00502850 0.00390993
v -0.00380819 -0.00625592 0.00344921
v -0.00380819 0.00625592 0.00344921
v -0.00470835 0.00506402 0.00344921
v -0.00470835 -0.00506402 0.00344921
v -0.00380819 -0.00625714 0.00298952
v -0.00380819 0.00625714 0.00298952
v -0.00470835 0.00506402 -0.00344921
v -0.00470835 -0.00506402 -0.00344921
v -0.00380819 -0.00625714 -0.00298952
v -0.00380819 0.00625714 -0.00298952
v -0.00470835 0.00502850 -0.00390993
v -0.00380819 0.00625592 -0.00344921
v -0.00380819 -0.00625347 -0.00350166
v -0.00380819 -0.00625592 -0.00344921
v -0.00470835 -0.00502850 -0.00390993
v -0.00470835 0.00492438 -0.00419170
v -0.00380819 0.00620692 -0.00389450
v -0.00461381 0.00507505 -0.00415263
v -0.00380819 -0.00620692 -0.00389450
v -0.00470835 -0.00499665 -0.00406213
v -0.00470835 0.00396400 -0.00489306
v -0.00380819 0.00592028 -0.00427192
v -0.00461381 -0.00507505 -0.00415263
v -0.00380819 -0.00605870 -0.00415263
v -0.00470835 -0.00492438 -0.00419170
v -0.00470835 0.00378148 -0.00502470
v -0.00380819 0.00488518 -0.00489615
v -0.00465980 0.00373003 -0.00509257
v -0.00380819 -0.00592028 -0.00427192
v -0.00470835 -0.00487783 -0.00422976
v -0.00470835 0.00364551 -0.00510903
v -0.00380819 0.00473328 -0.00498768
v -0.00380819 0.00451279 -0.00511108
v -0.00380819 -0.00461691 -0.00506481
v -0.00470835 -0.00404607 -0.00483650
v -0.00470835 -0.00371043 -0.00507817
v -0.00470835 0.00345074 -0.00516764
v -0.00380819 0.00435354 -0.00515119
v -0.00389445 0.00434864 -0.00513268
v -0.00465980 -0.00373003 -0.00509257
v -0.00380819 -0.00451279 -0.00511108
v -0.00470835 -0.00364551 -0.00510903
v -0.00391005 0.00390888 -0.00522421
v -0.00437000 0.00344951 -0.00522935
v -0.00470835 0.00298892 -0.00524477
v -0.00380819 0.00390888 -0.00523038
v -0.00380819 -0.00444051 -0.00513576
v -0.00470835 -0.00355609 -0.00514502
v -0.00391005 0.00344951 -0.00525300
v -0.00437000 0.00298892 -0.00525300
v -0.00470835 0.00252956 -0.00525300
v -0.00380819 0.00344951 -0.00525300
v -0.00380819 -0.00401177 -0.00522523
v -0.00470835 -0.00345074 -0.00516764
v -0.00470835 -0.00311142 -0.00523860
v -0.00470835 -0.00265083 -0.00525300
v -0.00380819 -0.00355119 -0.00525300
v -0.00470835 -0.00298892 -0.00524477
v -0.00391005 -0.00344951 -0.00525300
f 1 2 3
f 1 3 4
f 1 4 5
f 1 5 9
f 1 9 14
f 1 14 15
f 1 15 10
f 1 10 6
f 1 6 11
f 1 11 18
f 1 18 25
f 1 25 29
f 1 29 36
f 1 36 37
f 1 37 43
f 1 43 48
f 1 48 52
f 1 52 56
f 1 56 61
f 1 61 60
f 1 60 66
f 1 66 71
f 1 71 76
f 1 76 81
f 1 81 88
f 1 88 94
f 1 94 100
f 1 100 104
f 1 104 99
f 1 99 93
f 1 93 85
f 1 85 80
f 1 80 79
f 1 79 74
f 1 74 69
f 1 69 64
f 1 64 59
f 1 59 57
f 1 57 53
f 1 53 49
f 1 49 45
f 1 45 38
f 1 38 32
f 1 32 27
f 1 27 20
f 1 20 13
f 1 13 7
f 1 7 2
f 2 7 3
f 3 7 8
f 3 8 12
f 3 12 19
f 3 19 26
f 3 26 31
f 3 31 34
f 3 34 33
f 3 33 40
f 3 40 46
f 3 46 50
f 3 50 54
f 3 54 58
f 3 58 63
f 3 63 68
f 3 68 73
f 3 73 78
f 3 78 84
f 3 84 92
f 3 92 98
f 3 98 103
f 3 103 105
f 3 105 102
f 3 102 101
f 3 101 95
f 3 95 89
f 3 89 83
f 3 83 82
f 3 82 77
f 3 77 72
f 3 72 67
f 3 67 62
f 3 62 55
f 3 55 51
f 3 51 47
f 3 47 44
f 3 44 41
f 3 41 35
f 3 35 28
f 3 28 22
f 3 22 16
f 3 16 14
f 3 14 9
f 3 9 4
f 4 9 5
f 6 10 11
f 7 12 8
f 7 13 12
f 10 15 16
f 10 16 11
f 11 17 18
f 11 16 17
f 12 13 19
f 13 20 21
f 13 21 19
f 14 16 15
f 16 22 23
f 16 23 17
f 17 23 22
f 17 22 18
f 18 22 24
f 18 24 25
f 19 21 26
f 20 26 21
f 20 27 26
f 22 28 25
f 22 25 24
f 25 28 30
f 25 30 29
f 26 27 31
f 27 32 33
f 27 33 34
f 27 34 31
f 28 35 30
f 29 30 36
f 30 35 37
f 30 37 36
f 32 38 39
f 32 39 33
f 33 39 40
f 35 41 37
f 37 42 43
f 37 41 44
f 37 44 42
f 38 45 46
f 38 46 40
f 38 40 39
f 42 44 47
f 42 47 43
f 43 47 48
f 45 49 50
f 45 50 46
f 47 51 48
f 48 51 52
f 49 53 50
f 50 53 57
f 50 57 54
f 51 55 56
f 51 56 52
f 54 57 59
f 54 59 58
f 55 60 61
f 55 61 56
f 55 62 60
f 58 59 64
f 58 64 65
f 58 65 63
f 60 62 66
f 62 67 66
f 63 65 69
f 63 69 68
f 64 69 65
f 66 70 71
f 66 67 70
f 67 72 70
f 68 69 73
f 69 74 75
f 69 75 73
f 70 72 71
f 71 72 76
f 72 77 76
f 73 75 78
f 74 79 75
f 75 79 80
f 75 80 78
f 76 77 82
f 76 82 83
f 76 83 81
f 78 80 84
f 80 85 86
f 80 86 84
f 81 83 87
f 81 87 88
f 83 89 87
f 84 86 85
f 84 85 90
f 84 90 91
f 84 91 92
f 85 93 90
f 87 89 88
f 88 89 95
f 88 95 94
f 90 93 92
f 90 92 91
f 92 96 97
f 92 97 98
f 92 93 96
f 93 99 96
f 94 95 101
f 94 101 102
f 94 102 100
f 96 99 104
f 96 104 106
f 96 106 103
f 96 103 98
f 96 98 97
f 100 102 104
f 102 105 104
f 103 106 105
f 104 105 106

