# https://github.com/mikedh/trimesh
v 0.00412917 0.01424025 0.00298952
v 0.00412836 0.01424025 0.00344921
v 0.00362475 0.01343533 0.00345229
v 0.00412917 0.01424025 -0.00298952
v 0.00412756 0.01424025 0.00366620
v 0.00412513 0.01424025 0.00370425
v 0.00359403 0.01343533 0.00390993
v 0.00362475 0.01343533 -0.00344921
v 0.00412836 0.01424025 -0.00344921
v 0.00411220 0.01424025 0.00386673
v 0.00409118 0.01424025 0.00396443
v 0.00370963 0.01374611 0.00417114
v 0.00358433 0.01343533 0.00393461
v 0.00359403 0.01343533 -0.00390993
v 0.00412513 0.01424025 -0.00370425
v 0.00406046 0.01424025 0.00403950
v 0.00338628 0.01343533 0.00431305
v 0.00386483 0.01424025 0.00431922
v 0.00338628 0.01343533 -0.00431305
v 0.00370963 0.01374611 -0.00417114
v 0.00409118 0.01424025 -0.00396443
v 0.00330382 0.01343533 0.00439224
v 0.00373145 0.01424025 0.00443646
v 0.00285841 0.01343533 0.00479537
v 0.00302089 0.01343533 -0.00464728
v 0.00386483 0.01424025 -0.00431922
v 0.00320763 0.01424025 0.00487867
v 0.00259165 0.01343533 0.00502778
v 0.00294329 0.01343533 -0.00471824
v 0.00265874 0.01343533 -0.00496917
v 0.00336769 0.01424025 -0.00474086
v 0.00309041 0.01424025 0.00497328
v 0.00298047 0.01424025 0.00505761
v 0.00283820 0.01412284 0.00511211
v 0.00242916 0.01343533 0.00513268
v 0.00242916 0.01343533 -0.00513268
v 0.00283820 0.01412284 -0.00511211
v 0.00309041 0.01424025 -0.00497328
v 0.00288428 0.01424025 0.00512034
v 0.00234428 0.01343533 0.00516147
v 0.00245826 0.01357007 -0.00514605
v 0.00288428 0.01424025 -0.00512034
v 0.00206944 0.01343533 -0.00522935
v 0.00276868 0.01424025 0.00515530
v 0.00206944 0.01343533 0.00522935
v 0.00254880 0.01424025 -0.00520569
v 0.00160947 0.01343533 -0.00525300
v 0.00206944 0.01357007 -0.00524272
v 0.00254880 0.01424025 0.00520569
v 0.00206944 0.01357007 0.00524272
v 0.00193525 0.01343533 0.00524477
v 0.00206944 0.01402994 -0.00525300
v 0.00206944 0.01424025 -0.00525300
v -0.00160947 0.01343533 -0.00525300
v 0.00227961 0.01424025 0.00524889
v 0.00206944 0.01402994 0.00525300
v 0.00160947 0.01343533 0.00525300
v -0.00206944 0.01424025 -0.00525300
v -0.00206944 0.01402994 -0.00525300
v -0.00193525 0.01343533 -0.00524477
v 0.00206944 0.01424025 0.00525300
v -0.00160947 0.01343533 0.00525300
v -0.00227961 0.01424025 -0.00524889
v -0.00206944 0.01357007 -0.00524272
v -0.00206944 0.01343533 -0.00522935
v -0.00206944 0.01424025 0.00525300
v -0.00206944 0.01402994 0.00525300
v -0.00206944 0.01357007 0.00524272
v -0.00206944 0.01343533 0.00522935
v -0.00254880 0.01424025 -0.00520569
v -0.00234428 0.01343533 -0.00516147
v -0.00276868 0.01424025 -0.00515530
v -0.00254880 0.01424025 0.00520569
v -0.00288428 0.01424025 0.00512034
v -0.00245826 0.01357007 0.00514605
v -0.00242916 0.01343533 0.00513268
v -0.00242916 0.01343533 -0.00513268
v -0.00288428 0.01424025 -0.00512034
v -0.00283820 0.01412284 0.00511211
v -0.00309041 0.01424025 0.00497328
v -0.00265874 0.01343533 0.00496916
v -0.00283820 0.01412284 -0.00511211
v -0.00259165 0.01343533 -0.00502778
v -0.00298047 0.01424025 -0.00505761
v -0.00336769 0.01424025 0.00474086
v -0.00294329 0.01343533 0.00471824
v -0.00386483 0.01424025 0.00431922
v -0.00320763 0.01424025 -0.00487867
v -0.00309041 0.01424025 -0.00497328
v -0.00285841 0.01343533 -0.00479537
v -0.00373145 0.01424025 -0.00443646
v -0.00302089 0.01343533 0.00464728
v -0.00409118 0.01424025 0.00396443
v -0.00370963 0.01374611 0.00417114
v -0.00338628 0.01343533 0.00431305
v -0.00330382 0.01343533 -0.00439224
v -0.00386483 0.01424025 -0.00431922
v -0.00412513 0.01424025 0.00370425
v -0.00359403 0.01343533 0.00390993
v -0.00338628 0.01343533 -0.00431305
v -0.00406046 0.01424025 -0.00403950
v -0.00370963 0.01374611 -0.00417114
v -0.00412836 0.01424025 0.00344921
v -0.00362475 0.01343533 0.00344921
v -0.00358433 0.01343533 -0.00393461
v -0.00409118 0.01424025 -0.00396443
v -0.00359403 0.01343533 -0.00390993
v -0.00412917 0.01424025 0.00298952
v -0.00362475 0.01343533 -0.00345229
v -0.00411220 0.01424025 -0.00386673
v -0.00412513 0.01424025 -0.00370425
v -0.00412917 0.01424025 -0.00298952
v -0.00412836 0.01424025 -0.00344921
v -0.00412756 0.01424025 -0.00366620
f 1 2 3
f 1 3 8
f 1 8 4
f 1 4 9
f 1 9 15
f 1 15 21
f 1 21 26
f 1 26 31
f 1 31 38
f 1 38 42
f 1 42 46
f 1 46 53
f 1 53 58
f 1 58 63
f 1 63 70
f 1 70 72
f 1 72 78
f 1 78 84
f 1 84 89
f 1 89 88
f 1 88 91
f 1 91 97
f 1 97 101
f 1 101 106
f 1 106 110
f 1 110 111
f 1 111 114
f 1 114 113
f 1 113 112
f 1 112 108
f 1 108 103
f 1 103 98
f 1 98 93
f 1 93 87
f 1 87 85
f 1 85 80
f 1 80 74
f 1 74 73
f 1 73 66
f 1 66 61
f 1 61 55
f 1 55 49
f 1 49 44
f 1 44 39
f 1 39 33
f 1 33 32
f 1 32 27
f 1 27 23
f 1 23 18
f 1 18 16
f 1 16 11
f 1 11 10
f 1 10 6
f 1 6 5
f 1 5 2
f 2 5 3
f 3 5 6
f 3 6 7
f 3 7 13
f 3 13 17
f 3 17 22
f 3 22 24
f 3 24 28
f 3 28 35
f 3 35 40
f 3 40 45
f 3 45 51
f 3 51 57
f 3 57 62
f 3 62 69
f 3 69 76
f 3 76 81
f 3 81 86
f 3 86 92
f 3 92 95
f 3 95 99
f 3 99 104
f 3 104 109
f 3 109 107
f 3 107 105
f 3 105 100
f 3 100 96
f 3 96 90
f 3 90 83
f 3 83 77
f 3 77 71
f 3 71 65
f 3 65 60
f 3 60 54
f 3 54 47
f 3 47 43
f 3 43 36
f 3 36 30
f 3 30 29
f 3 29 25
f 3 25 19
f 3 19 14
f 3 14 8
f 4 8 9
f 6 10 7
f 7 10 11
f 7 11 12
f 7 12 13
f 8 14 15
f 8 15 9
f 11 16 12
f 12 17 13
f 12 16 18
f 12 18 17
f 14 19 20
f 14 20 21
f 14 21 15
f 17 18 22
f 18 23 24
f 18 24 22
f 19 25 26
f 19 26 20
f 20 26 21
f 23 27 28
f 23 28 24
f 25 29 26
f 26 29 30
f 26 30 31
f 27 32 28
f 28 32 33
f 28 33 34
f 28 34 35
f 30 36 37
f 30 37 38
f 30 38 31
f 33 39 34
f 34 39 35
f 35 39 40
f 36 41 42
f 36 42 37
f 36 43 41
f 37 42 38
f 39 44 40
f 40 44 45
f 41 43 42
f 42 43 46
f 43 47 48
f 43 48 46
f 44 49 45
f 45 49 50
f 45 50 51
f 46 48 52
f 46 52 53
f 47 52 48
f 47 54 59
f 47 59 58
f 47 58 53
f 47 53 52
f 49 55 50
f 50 55 56
f 50 56 51
f 51 56 57
f 54 60 59
f 55 61 56
f 56 61 66
f 56 66 67
f 56 67 62
f 56 62 57
f 58 59 63
f 59 60 64
f 59 64 63
f 60 65 64
f 62 67 68
f 62 68 69
f 63 64 70
f 64 65 70
f 65 71 72
f 65 72 70
f 66 73 67
f 67 73 68
f 68 73 69
f 69 73 74
f 69 74 75
f 69 75 76
f 71 77 78
f 71 78 72
f 74 79 76
f 74 76 75
f 74 80 79
f 76 79 81
f 77 82 78
f 77 83 82
f 78 82 84
f 79 80 81
f 80 85 81
f 81 85 87
f 81 87 86
f 82 83 84
f 83 88 89
f 83 89 84
f 83 90 91
f 83 91 88
f 86 87 92
f 87 93 94
f 87 94 95
f 87 95 92
f 90 96 97
f 90 97 91
f 93 98 99
f 93 99 94
f 94 99 95
f 96 100 97
f 97 100 102
f 97 102 101
f 98 103 104
f 98 104 99
f 100 105 102
f 101 102 106
f 102 105 107
f 102 107 106
f 103 108 104
f 104 108 112
f 104 112 109
f 106 107 110
f 107 109 111
f 107 111 110
f 109 112 113
f 109 113 114
f 109 114 111

