# https://github.com/mikedh/trimesh
v -0.00436879 -0.01682566 -0.00525300
v -0.00482945 -0.01682566 -0.00521084
v -0.00436879 -0.01678988 -0.00525300
v 0.00440446 -0.01682566 -0.00525300
v -0.00482945 -0.01678988 -0.00520775
v -0.00529307 -0.01682566 -0.00511931
v -0.00344897 -0.01587006 -0.00525197
v -0.00298831 -0.01581620 -0.00525300
v 0.00436879 -0.01678988 -0.00525300
v 0.00486511 -0.01682566 -0.00520878
v -0.00392448 -0.01581620 -0.00516970
v -0.00393488 -0.01584328 -0.00517381
v -0.00345194 -0.01581620 -0.00524374
v -0.00695589 -0.01682566 -0.00433362
v -0.00426626 -0.01597876 -0.00512034
v 0.00298831 -0.01581620 -0.00525300
v 0.00339399 -0.01581620 -0.00525197
v 0.00345194 -0.01581620 -0.00524374
v 0.00390962 -0.01581620 -0.00517381
v 0.00527227 -0.01682566 -0.00512445
v -0.00435245 -0.01581620 -0.00497019
v -0.00712232 -0.01682566 -0.00422050
v -0.00527376 -0.01581620 -0.00435213
v -0.00515042 -0.01581620 -0.00443543
v -0.00439554 -0.01581620 -0.00494140
v 0.00392448 -0.01581620 -0.00516970
v 0.00529307 -0.01682566 -0.00511931
v -0.00751016 -0.01682566 -0.00390684
v -0.00598851 -0.01609330 -0.00414543
v -0.00564822 -0.01581620 -0.00390993
v 0.00418156 -0.01581620 -0.00507612
v 0.00426626 -0.01597876 -0.00512034
v 0.00549665 -0.01682566 -0.00504012
v -0.00758892 -0.01682566 -0.00344921
v -0.00569429 -0.01581620 -0.00344818
v 0.00437325 -0.01581620 -0.00495888
v 0.00709557 -0.01682566 -0.00425958
v 0.00695589 -0.01682566 -0.00433362
v -0.00759040 -0.01682566 -0.00298952
v -0.00569429 -0.01581620 0.00344818
v 0.00524106 -0.01581620 -0.00437579
v 0.00737345 -0.01682566 -0.00407550
v -0.00759040 -0.01682566 0.00298952
v -0.00566457 -0.01581620 0.00375978
v -0.00758892 -0.01682566 0.00344818
v 0.00527376 -0.01581620 -0.00435213
v 0.00751016 -0.01682566 -0.00390684
v 0.00598851 -0.01609330 -0.00414543
v 0.00558136 -0.01581620 -0.00403436
v -0.00564822 -0.01581620 0.00390993
v -0.00751016 -0.01682566 0.00390684
v 0.00758892 -0.01682566 -0.00344818
v 0.00564822 -0.01581620 -0.00390993
v -0.00558136 -0.01581620 0.00403436
v -0.00737345 -0.01682566 0.00407550
v 0.00759040 -0.01682566 -0.00252983
v 0.00566457 -0.01581620 -0.00375978
v 0.00569429 -0.01581620 -0.00344818
v -0.00527376 -0.01581620 0.00435213
v -0.00598851 -0.01609330 0.00414543
v -0.00709557 -0.01682566 0.00425958
v -0.00437325 -0.01581620 0.00495888
v -0.00524106 -0.01581620 0.00437579
v 0.00759040 -0.01682566 0.00298952
v 0.00569429 -0.01581620 0.00344818
v -0.00695589 -0.01682566 0.00433362
v -0.00418156 -0.01581620 0.00507612
v 0.00758892 -0.01682566 0.00344818
v 0.00564822 -0.01581620 0.00390993
v -0.00549665 -0.01682566 0.00504012
v -0.00426626 -0.01597876 0.00512034
v -0.00392448 -0.01581620 0.00516970
v 0.00751016 -0.01682566 0.00390684
v 0.00527376 -0.01581620 0.00435213
v 0.00598851 -0.01609330 0.00414543
v -0.00529307 -0.01682566 0.00511931
v -0.00390962 -0.01581620 0.00517381
v 0.00712232 -0.01682566 0.00422050
v 0.00695589 -0.01682566 0.00433362
v 0.00515042 -0.01581620 0.00443543
v -0.00527227 -0.01682566 0.00512445
v -0.00486511 -0.01682566 0.00520878
v -0.00345194 -0.01581620 0.00524374
v 0.00529307 -0.01682566 0.00511931
v 0.00439554 -0.01581620 0.00494140
v 0.00435245 -0.01581620 0.00497019
v 0.00426626 -0.01597876 0.00512034
v -0.00440446 -0.01682566 0.00525300
v -0.00436879 -0.01678988 0.00525300
v -0.00339399 -0.01581620 0.00525197
v 0.00482945 -0.01682566 0.00521084
v 0.00392448 -0.01581620 0.00516970
v 0.00482945 -0.01678988 0.00520775
v 0.00436879 -0.01682566 0.00525300
v -0.00298831 -0.01581620 0.00525300
v 0.00436879 -0.01678988 0.00525300
v 0.00345194 -0.01581620 0.00524374
v 0.00393488 -0.01584328 0.00517381
v 0.00344897 -0.01587006 0.00525197
v 0.00298831 -0.01581620 0.00525300
f 1 2 3
f 1 3 8
f 1 8 16
f 1 16 9
f 1 9 4
f 1 4 10
f 1 10 20
f 1 20 27
f 1 27 33
f 1 33 38
f 1 38 37
f 1 37 42
f 1 42 47
f 1 47 52
f 1 52 56
f 1 56 64
f 1 64 68
f 1 68 73
f 1 73 78
f 1 78 79
f 1 79 84
f 1 84 91
f 1 91 94
f 1 94 88
f 1 88 82
f 1 82 81
f 1 81 76
f 1 76 70
f 1 70 66
f 1 66 61
f 1 61 55
f 1 55 51
f 1 51 45
f 1 45 43
f 1 43 39
f 1 39 34
f 1 34 28
f 1 28 22
f 1 22 14
f 1 14 6
f 1 6 2
f 2 5 3
f 2 6 5
f 3 7 8
f 3 5 7
f 4 9 10
f 5 11 12
f 5 12 13
f 5 13 7
f 5 6 11
f 6 14 15
f 6 15 11
f 7 13 8
f 8 13 11
f 8 11 21
f 8 21 25
f 8 25 24
f 8 24 23
f 8 23 30
f 8 30 35
f 8 35 40
f 8 40 44
f 8 44 50
f 8 50 54
f 8 54 59
f 8 59 63
f 8 63 62
f 8 62 67
f 8 67 72
f 8 72 77
f 8 77 83
f 8 83 90
f 8 90 95
f 8 95 100
f 8 100 97
f 8 97 92
f 8 92 86
f 8 86 85
f 8 85 80
f 8 80 74
f 8 74 69
f 8 69 65
f 8 65 58
f 8 58 57
f 8 57 53
f 8 53 49
f 8 49 46
f 8 46 41
f 8 41 36
f 8 36 31
f 8 31 26
f 8 26 19
f 8 19 18
f 8 18 17
f 8 17 16
f 9 16 17
f 9 17 10
f 10 17 18
f 10 18 19
f 10 19 20
f 11 15 21
f 11 13 12
f 14 22 23
f 14 23 24
f 14 24 25
f 14 25 21
f 14 21 15
f 19 26 27
f 19 27 20
f 22 28 23
f 23 28 29
f 23 29 30
f 26 31 32
f 26 32 27
f 27 32 33
f 28 34 30
f 28 30 29
f 30 34 35
f 31 36 37
f 31 37 38
f 31 38 33
f 31 33 32
f 34 39 35
f 35 39 43
f 35 43 40
f 36 41 42
f 36 42 37
f 40 43 45
f 40 45 44
f 41 46 42
f 42 46 48
f 42 48 49
f 42 49 47
f 44 45 50
f 45 51 50
f 46 49 48
f 47 49 53
f 47 53 52
f 50 51 54
f 51 55 54
f 52 53 57
f 52 57 58
f 52 58 56
f 54 55 60
f 54 60 59
f 55 61 62
f 55 62 63
f 55 63 59
f 55 59 60
f 56 58 65
f 56 65 64
f 61 66 67
f 61 67 62
f 64 65 68
f 65 69 68
f 66 70 67
f 67 71 72
f 67 70 71
f 68 69 73
f 69 74 75
f 69 75 73
f 70 76 71
f 71 76 72
f 72 76 77
f 73 75 74
f 73 74 78
f 74 79 78
f 74 80 79
f 76 81 77
f 77 82 83
f 77 81 82
f 79 80 85
f 79 85 86
f 79 86 87
f 79 87 84
f 82 88 89
f 82 89 90
f 82 90 83
f 84 87 92
f 84 92 93
f 84 93 91
f 86 92 87
f 88 94 96
f 88 96 100
f 88 100 95
f 88 95 89
f 89 95 90
f 91 93 96
f 91 96 94
f 92 97 98
f 92 98 93
f 93 98 97
f 93 97 99
f 93 99 96
f 96 99 100
f 97 100 99

