# https://github.com/mikedh/trimesh
v 0.01477102 -0.00455413 -0.00253086
v 0.01320043 -0.00351100 -0.00332066
v 0.01477102 -0.00455235 -0.00345127
v 0.01477102 -0.00455413 0.00298849
v 0.01320043 -0.00351011 -0.00344921
v 0.01320043 -0.00351100 0.00311807
v 0.01320043 -0.00347712 -0.00390993
v 0.01477102 -0.00451669 -0.00390684
v 0.01477102 -0.00455324 0.00344818
v 0.01320043 -0.00351011 0.00344921
v 0.01320043 -0.00338618 -0.00414851
v 0.01477102 -0.00450153 -0.00394386
v 0.01477102 -0.00451669 0.00390684
v 0.01320043 -0.00347712 0.00390993
v 0.01320043 -0.00350208 0.00356747
v 0.01320043 -0.00333090 -0.00425341
v 0.01459176 -0.00423673 -0.00422153
v 0.01477102 -0.00429736 -0.00429249
v 0.01459176 -0.00423673 0.00422153
v 0.01320043 -0.00333090 0.00425341
v 0.01477102 -0.00429736 0.00429249
v 0.01320043 -0.00313386 -0.00444160
v 0.01320043 -0.00266401 -0.00487250
v 0.01320043 -0.00260962 -0.00492083
v 0.01320043 -0.00242418 -0.00508229
v 0.01477102 -0.00419840 -0.00437681
v 0.01320043 -0.00309018 0.00448068
v 0.01477102 -0.00403078 0.00450639
v 0.01320043 -0.00237960 0.00511211
v 0.01320043 -0.00260962 0.00492083
v 0.01320043 -0.00305541 0.00451256
v 0.01320043 -0.00237960 -0.00511211
v 0.01477102 -0.00335408 -0.00504424
v 0.01477102 -0.00370358 -0.00477171
v 0.01477102 -0.00351991 0.00491466
v 0.01477102 -0.00327830 0.00509257
v 0.01477102 -0.00299032 0.00518615
v 0.01320043 -0.00206933 0.00520775
v 0.01477102 -0.00319895 -0.00512959
v 0.01477102 -0.00327830 -0.00509257
v 0.01320043 -0.00214601 -0.00518924
v 0.01477102 -0.00252938 0.00524889
v 0.01448999 -0.00252938 0.00524272
v 0.01357001 -0.00206933 0.00524272
v 0.01320043 -0.00160928 0.00525300
v 0.01477102 -0.00299032 -0.00518615
v 0.01320043 -0.00206933 -0.00520775
v 0.01477102 -0.00206933 0.00525300
v 0.01402985 -0.00206933 0.00525300
v 0.01320043 0.00160928 0.00525300
v 0.01477102 -0.00281022 -0.00522832
v 0.01357001 -0.00206933 -0.00524272
v 0.01320043 -0.00170022 -0.00525094
v 0.01477102 0.00235018 0.00525300
v 0.01402985 0.00206933 0.00525300
v 0.01320043 0.00170022 0.00525094
v 0.01448999 -0.00252938 -0.00524272
v 0.01477102 -0.00252938 -0.00524889
v 0.01402985 -0.00206933 -0.00525300
v 0.01320043 -0.00160928 -0.00525300
v 0.01477102 0.00252938 0.00524889
v 0.01448999 0.00252938 0.00524272
v 0.01357001 0.00206933 0.00524272
v 0.01320043 0.00206933 0.00520775
v 0.01477102 -0.00235018 -0.00525300
v 0.01320043 0.00160928 -0.00525300
v 0.01477102 0.00281022 0.00522832
v 0.01477102 0.00299032 0.00518615
v 0.01320043 0.00214601 0.00518924
v 0.01477102 0.00206933 -0.00525300
v 0.01320043 0.00206933 -0.00520775
v 0.01357001 0.00206933 -0.00524272
v 0.01402985 0.00206933 -0.00525300
v 0.01477102 0.00319895 0.00512959
v 0.01320043 0.00237960 0.00511211
v 0.01477102 0.00252938 -0.00524889
v 0.01320043 0.00237960 -0.00511211
v 0.01477102 0.00299032 -0.00518615
v 0.01448999 0.00252938 -0.00524272
v 0.01477102 0.00327830 0.00509257
v 0.01477102 0.00335408 0.00504424
v 0.01320043 0.00242418 0.00508229
v 0.01320043 0.00260962 -0.00492083
v 0.01477102 0.00429736 -0.00429249
v 0.01477102 0.00403078 -0.00450639
v 0.01477102 0.00351991 -0.00491466
v 0.01477102 0.00327830 -0.00509257
v 0.01477102 0.00370358 0.00477171
v 0.01477102 0.00419840 0.00437681
v 0.01477102 0.00429736 0.00429249
v 0.01320043 0.00260962 0.00492083
v 0.01320043 0.00305541 -0.00451256
v 0.01320043 0.00309018 -0.00448068
v 0.01320043 0.00333090 -0.00425341
v 0.01459176 0.00423673 -0.00422153
v 0.01477102 0.00451669 -0.00390684
v 0.01477102 0.00450153 0.00394386
v 0.01459176 0.00423673 0.00422153
v 0.01320043 0.00333090 0.00425341
v 0.01320043 0.00313386 0.00444160
v 0.01320043 0.00266401 0.00487250
v 0.01320043 0.00347712 -0.00390993
v 0.01477102 0.00455324 -0.00344921
v 0.01477102 0.00451669 0.00390684
v 0.01320043 0.00338618 0.00414851
v 0.01320043 0.00350208 -0.00356747
v 0.01320043 0.00351011 -0.00344921
v 0.01320043 0.00351100 -0.00311807
v 0.01477102 0.00455413 -0.00298952
v 0.01477102 0.00455324 0.00344921
v 0.01320043 0.00347712 0.00390993
v 0.01320043 0.00351100 0.00332066
v 0.01477102 0.00455413 0.00298952
v 0.01320043 0.00351011 0.00344921
f 1 2 3
f 1 3 8
f 1 8 12
f 1 12 18
f 1 18 26
f 1 26 34
f 1 34 33
f 1 33 40
f 1 40 39
f 1 39 46
f 1 46 51
f 1 51 58
f 1 58 65
f 1 65 70
f 1 70 76
f 1 76 78
f 1 78 87
f 1 87 86
f 1 86 85
f 1 85 84
f 1 84 96
f 1 96 103
f 1 103 109
f 1 109 113
f 1 113 110
f 1 110 104
f 1 104 97
f 1 97 90
f 1 90 89
f 1 89 88
f 1 88 81
f 1 81 80
f 1 80 74
f 1 74 68
f 1 68 67
f 1 67 61
f 1 61 54
f 1 54 48
f 1 48 42
f 1 42 37
f 1 37 36
f 1 36 35
f 1 35 28
f 1 28 21
f 1 21 13
f 1 13 9
f 1 9 4
f 1 4 6
f 1 6 2
f 2 5 3
f 2 6 10
f 2 10 15
f 2 15 14
f 2 14 20
f 2 20 27
f 2 27 31
f 2 31 30
f 2 30 29
f 2 29 38
f 2 38 45
f 2 45 50
f 2 50 56
f 2 56 64
f 2 64 69
f 2 69 75
f 2 75 82
f 2 82 91
f 2 91 101
f 2 101 100
f 2 100 99
f 2 99 105
f 2 105 111
f 2 111 114
f 2 114 112
f 2 112 108
f 2 108 107
f 2 107 106
f 2 106 102
f 2 102 94
f 2 94 93
f 2 93 92
f 2 92 83
f 2 83 77
f 2 77 71
f 2 71 66
f 2 66 60
f 2 60 53
f 2 53 47
f 2 47 41
f 2 41 32
f 2 32 25
f 2 25 24
f 2 24 23
f 2 23 22
f 2 22 16
f 2 16 11
f 2 11 7
f 2 7 5
f 3 5 7
f 3 7 8
f 4 9 6
f 6 9 10
f 7 11 8
f 8 11 12
f 9 13 14
f 9 14 15
f 9 15 10
f 11 16 12
f 12 16 17
f 12 17 18
f 13 19 20
f 13 20 14
f 13 21 19
f 16 22 18
f 16 18 17
f 18 22 23
f 18 23 24
f 18 24 25
f 18 25 26
f 19 21 20
f 20 21 27
f 21 28 29
f 21 29 30
f 21 30 31
f 21 31 27
f 25 32 33
f 25 33 34
f 25 34 26
f 28 35 29
f 29 35 36
f 29 36 37
f 29 37 38
f 32 39 40
f 32 40 33
f 32 41 39
f 37 42 43
f 37 43 44
f 37 44 38
f 38 44 45
f 39 41 46
f 41 47 46
f 42 48 49
f 42 49 43
f 43 49 44
f 44 49 45
f 45 49 48
f 45 48 54
f 45 54 55
f 45 55 50
f 46 47 51
f 47 52 51
f 47 53 52
f 50 55 56
f 51 52 57
f 51 57 58
f 52 53 59
f 52 59 57
f 53 60 59
f 54 61 55
f 55 61 62
f 55 62 63
f 55 63 56
f 56 63 64
f 57 59 58
f 58 59 65
f 59 60 66
f 59 66 73
f 59 73 70
f 59 70 65
f 61 67 62
f 62 67 63
f 63 67 64
f 64 67 68
f 64 68 69
f 66 71 72
f 66 72 73
f 68 74 69
f 69 74 75
f 70 73 76
f 71 77 78
f 71 78 72
f 72 78 79
f 72 79 73
f 73 79 76
f 74 80 75
f 75 80 81
f 75 81 82
f 76 79 78
f 77 83 84
f 77 84 85
f 77 85 86
f 77 86 87
f 77 87 78
f 81 88 82
f 82 88 89
f 82 89 90
f 82 90 91
f 83 92 84
f 84 92 93
f 84 93 94
f 84 94 95
f 84 95 96
f 90 97 98
f 90 98 99
f 90 99 100
f 90 100 101
f 90 101 91
f 94 102 96
f 94 96 95
f 96 102 103
f 97 104 105
f 97 105 99
f 97 99 98
f 102 106 103
f 103 106 107
f 103 107 108
f 103 108 109
f 104 110 111
f 104 111 105
f 108 112 113
f 108 113 109
f 110 113 112
f 110 112 114
f 110 114 111

