# https://github.com/mikedh/trimesh
v -0.00811794 0.01869800 -0.00525300
v -0.00811794 0.02046968 -0.00525300
v -0.00804899 0.01863056 -0.00525300
v -0.00811794 0.01863056 -0.00525197
v -0.00811794 0.02092946 -0.00524889
v 0.00826440 0.02046968 -0.00525300
v -0.00436873 0.01679014 -0.00525300
v -0.00420677 0.01662867 -0.00525197
v -0.00811794 0.01822914 -0.00516250
v -0.00811794 0.02099755 -0.00524272
v 0.00160948 0.02092946 -0.00524889
v 0.00826440 0.02092946 -0.00524786
v 0.00826440 0.01909034 -0.00525300
v -0.00374654 0.01662867 -0.00525300
v -0.00468785 0.01662867 -0.00519644
v -0.00811794 0.01816040 -0.00514605
v -0.00811794 0.02138988 -0.00520467
v 0.00022878 0.02138988 -0.00520467
v 0.00826440 0.02138988 -0.00520364
v 0.00826440 0.01863056 -0.00525197
v 0.00804952 0.01863056 -0.00525300
v 0.00344880 0.01662867 -0.00525300
v -0.00503423 0.01662867 -0.00511622
v -0.00811794 0.01796391 -0.00504218
v -0.00811794 0.02144306 -0.00519130
v 0.00826440 0.02175174 -0.00511211
v 0.00826440 0.01818893 -0.00514913
v 0.00437889 0.01662867 -0.00522626
v 0.00436927 0.01679014 -0.00525300
v 0.00390903 0.01662867 -0.00525197
v -0.00512082 0.01662867 -0.00508126
v -0.00811794 0.01776612 -0.00485707
v -0.00811794 0.02174980 -0.00511211
v 0.00826440 0.02187431 -0.00506069
v 0.00826440 0.01798142 -0.00502676
v 0.00482950 0.01662867 -0.00516045
v -0.00527797 0.01662867 -0.00500310
v -0.00789504 0.01700090 -0.00416291
v -0.00811794 0.01726224 -0.00436242
v -0.00811794 0.01729661 -0.00439738
v -0.00811794 0.01749116 -0.00458866
v -0.00811794 0.01772396 -0.00481696
v -0.00811794 0.02197936 -0.00501441
v -0.00114871 0.02198001 -0.00501544
v 0.00206971 0.02198066 -0.00501544
v 0.00574996 0.02198131 -0.00501544
v 0.00826440 0.02198131 -0.00501544
v 0.00826440 0.01773953 -0.00479948
v 0.00511975 0.01662867 -0.00508126
v -0.00653038 0.01662867 -0.00434802
v -0.00663462 0.01662867 -0.00429043
v -0.00692166 0.01662867 -0.00408475
v -0.00811794 0.01703073 -0.00398089
v -0.00811794 0.02202865 -0.00498356
v -0.00811794 0.02230944 -0.00480257
v 0.00826440 0.02230944 -0.00480154
v -0.00666990 0.02230944 -0.00480257
v 0.00826440 0.01762799 -0.00469047
v 0.00826440 0.01728170 -0.00434493
v 0.00789397 0.01700090 -0.00416291
v 0.00536029 0.01662867 -0.00495580
v -0.00701627 0.01662867 -0.00394181
v -0.00811794 0.01701776 -0.00390993
v -0.00811794 0.02255782 -0.00461746
v 0.00826440 0.02255587 -0.00461540
v -0.00758876 0.02255782 -0.00461746
v 0.00826440 0.01705732 -0.00390993
v 0.00701681 0.01662867 -0.00394181
v 0.00682758 0.01662867 -0.00413412
v 0.00663355 0.01662867 -0.00429043
v -0.00703071 0.01662867 -0.00389347
v -0.00811794 0.01699182 -0.00344921
v -0.00703872 0.01662867 -0.00384822
v -0.00811794 0.02275690 -0.00436962
v 0.00826440 0.02275496 -0.00436962
v -0.00620966 0.02275690 -0.00436962
v 0.00826440 0.01705148 -0.00382046
v 0.00703926 0.01662867 -0.00384822
v -0.00811794 0.01699182 0.00344921
v -0.00708523 0.01662867 -0.00352017
v -0.00708843 0.01662867 -0.00344921
v -0.00709004 0.01662867 -0.00298952
v -0.00811794 0.02296896 -0.00407755
v 0.00826440 0.02296896 -0.00407755
v 0.00826440 0.01703267 -0.00344921
v 0.00708897 0.01662867 -0.00344921
v -0.00811794 0.01701776 0.00390993
v -0.00709004 0.01662867 0.00298952
v -0.00708843 0.01662867 0.00344921
v -0.00703872 0.01662867 0.00384822
v -0.00811794 0.02307272 -0.00384720
v 0.00826440 0.02307207 -0.00384720
v -0.00666990 0.02307272 -0.00384720
v 0.00826440 0.01703267 0.00344921
v 0.00708897 0.01662867 0.00344921
v -0.00789504 0.01700090 0.00416291
v -0.00811794 0.01726224 0.00436242
v -0.00701627 0.01662867 0.00394181
v -0.00811794 0.02319269 -0.00344921
v 0.00826440 0.02319269 -0.00344921
v 0.00826440 0.01705732 0.00390993
v 0.00703926 0.01662867 0.00384822
v 0.00708576 0.01662867 0.00352017
v -0.00682865 0.01662867 0.00413411
v -0.00663462 0.01662867 0.00429043
v -0.00512082 0.01662867 0.00508126
v -0.00811794 0.01737054 0.00446937
v -0.00811794 0.02320112 -0.00338134
v 0.00826440 0.02324651 -0.00298952
v 0.00826440 0.01709558 0.00398808
v 0.00789397 0.01700090 0.00416291
v 0.00692219 0.01662867 0.00408475
v 0.00701681 0.01662867 0.00394181
v 0.00702963 0.01662867 0.00389347
v -0.00482897 0.01662867 0.00516044
v -0.00811794 0.01804367 0.00508023
v -0.00811794 0.01786534 0.00494860
v -0.00811794 0.01772396 0.00481696
v -0.00811794 0.01768311 0.00477686
v -0.00811794 0.02324651 -0.00298952
v 0.00826440 0.02325300 -0.00252983
v -0.00811794 0.02324781 -0.00292165
v 0.00826440 0.01728170 0.00434493
v 0.00652931 0.01662867 0.00434802
v 0.00663355 0.01662867 0.00429043
v 0.00527851 0.01662867 0.00500310
v -0.00437996 0.01662867 0.00522626
v -0.00811794 0.01816040 0.00514605
v 0.00826440 0.02325300 0.00252983
v -0.00811794 0.02325300 -0.00252983
v 0.00826440 0.01738610 0.00445291
v 0.00511975 0.01662867 0.00508126
v -0.00390850 0.01662867 0.00525197
v -0.00436873 0.01679014 0.00525300
v -0.00811794 0.01863056 0.00525197
v 0.00826440 0.02324976 0.00277459
v -0.00811794 0.02325300 0.00252983
v 0.00826440 0.01773953 0.00479948
v 0.00503316 0.01662867 0.00511622
v 0.00826440 0.01785626 0.00491157
v 0.00826440 0.01798142 0.00502675
v -0.00344987 0.01662867 0.00525300
v -0.00804899 0.01863056 0.00525300
v -0.00811794 0.01909034 0.00525300
v 0.00826440 0.02324651 0.00298952
v -0.00811794 0.02324651 0.00298952
v 0.00468678 0.01662867 0.00519644
v 0.00826440 0.01804173 0.00506686
v 0.00826440 0.01818893 0.00514913
v 0.00374707 0.01662867 0.00525300
v -0.00811794 0.02046968 0.00525300
v 0.00826440 0.02319334 0.00344921
v -0.00811794 0.02323873 0.00305739
v 0.00420730 0.01662867 0.00525197
v 0.00826440 0.01837894 0.00519644
v 0.00436927 0.01679014 0.00525300
v -0.00811794 0.02092946 0.00524991
v 0.00826440 0.02046968 0.00525300
v 0.00826440 0.02312914 0.00366106
v -0.00811794 0.02319334 0.00344921
v -0.00811794 0.02317583 0.00350783
v 0.00826440 0.01863056 0.00525197
v 0.00804952 0.01863056 0.00525300
v -0.00811794 0.02132179 0.00521186
v 0.00826440 0.02092946 0.00524991
v 0.00826440 0.01884456 0.00525300
v 0.00826440 0.02307272 0.00384617
v -0.00811794 0.02307272 0.00384617
v -0.00811794 0.02138988 0.00520467
v 0.00826440 0.02138988 0.00520467
v 0.00826440 0.02301695 0.00396957
v -0.00811794 0.02305780 0.00388010
v -0.00811794 0.02175304 0.00511211
v 0.00826440 0.02175304 0.00511211
v 0.00826440 0.02296831 0.00407652
v -0.00811794 0.02296831 0.00407652
v -0.00811794 0.02194888 0.00503087
v 0.00826440 0.02186004 0.00506789
v 0.00826440 0.02275950 0.00436962
v -0.00811794 0.02293783 0.00411972
v -0.00811794 0.02198325 0.00501647
v 0.00826440 0.02198325 0.00501647
v 0.00390903 0.02256106 0.00462054
v 0.00826440 0.02256041 0.00462054
v -0.00811794 0.02275950 0.00436962
v -0.00811794 0.02273031 0.00440664
v -0.00811794 0.02226145 0.00483856
v 0.00826440 0.02230944 0.00480771
v 0.00826440 0.02242682 0.00472030
v -0.00811794 0.02256106 0.00462054
v -0.00811794 0.02230944 0.00480771
f 1 2 6
f 1 6 13
f 1 13 21
f 1 21 29
f 1 29 22
f 1 22 14
f 1 14 7
f 1 7 3
f 1 3 4
f 1 4 9
f 1 9 16
f 1 16 24
f 1 24 32
f 1 32 42
f 1 42 41
f 1 41 40
f 1 40 39
f 1 39 53
f 1 53 63
f 1 63 72
f 1 72 79
f 1 79 87
f 1 87 97
f 1 97 107
f 1 107 119
f 1 119 118
f 1 118 117
f 1 117 116
f 1 116 128
f 1 128 135
f 1 135 144
f 1 144 151
f 1 151 157
f 1 157 164
f 1 164 169
f 1 169 173
f 1 173 177
f 1 177 181
f 1 181 187
f 1 187 191
f 1 191 190
f 1 190 186
f 1 186 185
f 1 185 180
f 1 180 176
f 1 176 172
f 1 172 168
f 1 168 161
f 1 161 160
f 1 160 153
f 1 153 146
f 1 146 137
f 1 137 130
f 1 130 122
f 1 122 120
f 1 120 108
f 1 108 99
f 1 99 91
f 1 91 83
f 1 83 74
f 1 74 64
f 1 64 55
f 1 55 54
f 1 54 43
f 1 43 33
f 1 33 25
f 1 25 17
f 1 17 10
f 1 10 5
f 1 5 2
f 2 5 11
f 2 11 6
f 3 7 8
f 3 8 4
f 4 8 9
f 5 10 11
f 6 11 12
f 6 12 19
f 6 19 26
f 6 26 34
f 6 34 47
f 6 47 56
f 6 56 65
f 6 65 75
f 6 75 84
f 6 84 92
f 6 92 100
f 6 100 109
f 6 109 121
f 6 121 129
f 6 129 136
f 6 136 145
f 6 145 152
f 6 152 159
f 6 159 167
f 6 167 171
f 6 171 175
f 6 175 179
f 6 179 184
f 6 184 189
f 6 189 188
f 6 188 182
f 6 182 178
f 6 178 174
f 6 174 170
f 6 170 165
f 6 165 158
f 6 158 166
f 6 166 162
f 6 162 155
f 6 155 149
f 6 149 148
f 6 148 141
f 6 141 140
f 6 140 138
f 6 138 131
f 6 131 123
f 6 123 110
f 6 110 101
f 6 101 94
f 6 94 85
f 6 85 77
f 6 77 67
f 6 67 59
f 6 59 58
f 6 58 48
f 6 48 35
f 6 35 27
f 6 27 20
f 6 20 13
f 7 14 8
f 8 14 22
f 8 22 30
f 8 30 28
f 8 28 36
f 8 36 49
f 8 49 61
f 8 61 70
f 8 70 69
f 8 69 68
f 8 68 78
f 8 78 86
f 8 86 95
f 8 95 103
f 8 103 102
f 8 102 114
f 8 114 113
f 8 113 112
f 8 112 125
f 8 125 124
f 8 124 126
f 8 126 132
f 8 132 139
f 8 139 147
f 8 147 154
f 8 154 150
f 8 150 142
f 8 142 133
f 8 133 127
f 8 127 115
f 8 115 106
f 8 106 105
f 8 105 104
f 8 104 98
f 8 98 90
f 8 90 89
f 8 89 88
f 8 88 82
f 8 82 81
f 8 81 80
f 8 80 73
f 8 73 71
f 8 71 62
f 8 62 52
f 8 52 51
f 8 51 50
f 8 50 37
f 8 37 31
f 8 31 23
f 8 23 15
f 8 15 9
f 9 15 16
f 10 17 18
f 10 18 11
f 11 18 19
f 11 19 12
f 13 20 21
f 15 23 16
f 16 23 24
f 17 25 18
f 18 26 19
f 18 25 26
f 20 27 28
f 20 28 29
f 20 29 21
f 22 29 30
f 23 31 24
f 24 31 32
f 25 33 26
f 26 33 34
f 27 35 36
f 27 36 28
f 28 30 29
f 31 37 38
f 31 38 39
f 31 39 40
f 31 40 41
f 31 41 42
f 31 42 32
f 33 43 44
f 33 44 45
f 33 45 46
f 33 46 34
f 34 46 47
f 35 48 49
f 35 49 36
f 37 50 38
f 38 50 51
f 38 51 52
f 38 52 53
f 38 53 39
f 43 54 44
f 44 54 45
f 45 54 46
f 46 54 55
f 46 55 57
f 46 57 47
f 47 57 56
f 48 58 49
f 49 58 59
f 49 59 60
f 49 60 61
f 52 62 53
f 53 62 63
f 55 64 66
f 55 66 57
f 56 57 66
f 56 66 65
f 59 67 60
f 60 67 68
f 60 68 69
f 60 69 70
f 60 70 61
f 62 71 63
f 63 71 73
f 63 73 72
f 64 74 76
f 64 76 66
f 65 66 75
f 66 76 75
f 67 77 78
f 67 78 68
f 72 73 80
f 72 80 81
f 72 81 82
f 72 82 88
f 72 88 79
f 74 83 84
f 74 84 76
f 75 76 84
f 77 85 78
f 78 85 86
f 79 88 89
f 79 89 90
f 79 90 87
f 83 91 93
f 83 93 84
f 84 93 92
f 85 94 95
f 85 95 86
f 87 96 97
f 87 90 98
f 87 98 96
f 91 99 100
f 91 100 93
f 92 93 100
f 94 101 102
f 94 102 103
f 94 103 95
f 96 98 104
f 96 104 105
f 96 105 106
f 96 106 97
f 97 106 107
f 99 108 100
f 100 108 109
f 101 110 111
f 101 111 112
f 101 112 113
f 101 113 114
f 101 114 102
f 106 115 116
f 106 116 117
f 106 117 118
f 106 118 119
f 106 119 107
f 108 120 109
f 109 120 122
f 109 122 121
f 110 123 111
f 111 124 125
f 111 125 112
f 111 123 126
f 111 126 124
f 115 127 128
f 115 128 116
f 121 122 130
f 121 130 137
f 121 137 129
f 123 131 132
f 123 132 126
f 127 133 134
f 127 134 135
f 127 135 128
f 129 137 136
f 131 138 132
f 132 138 140
f 132 140 141
f 132 141 139
f 133 142 134
f 134 143 135
f 134 142 150
f 134 150 156
f 134 156 163
f 134 163 166
f 134 166 158
f 134 158 151
f 134 151 144
f 134 144 143
f 135 143 144
f 136 137 146
f 136 146 145
f 139 141 148
f 139 148 149
f 139 149 147
f 145 146 153
f 145 153 152
f 147 149 155
f 147 155 154
f 150 154 156
f 151 158 165
f 151 165 157
f 152 153 160
f 152 160 161
f 152 161 159
f 154 155 162
f 154 162 156
f 156 162 163
f 157 165 164
f 159 161 168
f 159 168 167
f 162 166 163
f 164 165 170
f 164 170 169
f 167 168 172
f 167 172 171
f 169 170 174
f 169 174 173
f 171 172 175
f 172 176 175
f 173 174 178
f 173 178 177
f 175 176 180
f 175 180 179
f 177 178 182
f 177 182 181
f 179 183 184
f 179 180 185
f 179 185 186
f 179 186 183
f 181 182 187
f 182 188 187
f 183 188 189
f 183 189 184
f 183 186 190
f 183 190 191
f 183 191 188
f 187 188 191

