# https://github.com/mikedh/trimesh
v -0.01496455 0.01526305 -0.00344921
v -0.01496455 0.01529825 -0.00390993
v -0.01297679 0.01662717 -0.00388010
v -0.01297679 0.01659901 -0.00344921
v -0.01297679 0.01659119 0.00344921
v -0.01496455 0.01526305 0.00344921
v -0.01297679 0.01662951 -0.00390993
v -0.01496455 0.01545234 -0.00423490
v -0.01328577 0.01653565 -0.00416702
v -0.01297679 0.01659275 0.00347492
v -0.01297679 0.01660448 0.00366414
v -0.01297679 0.01662013 0.00390993
v -0.01496455 0.01529825 0.00390993
v -0.01297679 0.01684383 -0.00432231
v -0.01496455 0.01628457 -0.00487455
v -0.01297679 0.01755639 -0.00498870
v -0.01297679 0.01728263 -0.00473572
v -0.01297679 0.01720598 -0.00466373
v -0.01297679 0.01662717 0.00392638
v -0.01496455 0.01530998 0.00396443
v -0.01496455 0.01635653 -0.00492700
v -0.01297679 0.01778635 -0.00514605
v -0.01297679 0.01683992 0.00432642
v -0.01328247 0.01653565 0.00416702
v -0.01496455 0.01545234 0.00423490
v -0.01478477 0.01660839 -0.00502161
v -0.01496455 0.01673198 -0.00515222
v -0.01496455 0.01677422 -0.00516456
v -0.01297679 0.01817040 -0.00524169
v -0.01297679 0.01691735 0.00440355
v -0.01297679 0.01708865 0.00456398
v -0.01297679 0.01735929 0.00481285
v -0.01297679 0.01755483 0.00499076
v -0.01297679 0.01762132 0.00504732
v -0.01496455 0.01546016 0.00424107
v -0.01496455 0.01725056 -0.00525094
v -0.01494996 0.01725056 -0.00525094
v -0.01311008 0.01817040 -0.00524991
v -0.01297679 0.01863033 -0.00525300
v -0.01496455 0.01653956 0.00506892
v -0.01496455 0.01625485 0.00485296
v -0.01496455 0.01579493 0.00450022
v -0.01297679 0.01778479 0.00514605
v -0.01496455 0.01771048 -0.00525300
v -0.01448999 0.01771048 -0.00525300
v -0.01357005 0.01817040 -0.00525300
v -0.01297679 0.02046923 -0.00525300
v -0.01496455 0.01673198 0.00515222
v -0.01297679 0.01787865 0.00517381
v -0.01496455 0.01675310 0.00516044
v -0.01496455 0.02046923 -0.00525300
v -0.01297679 0.02092993 -0.00524889
v -0.01297679 0.01817040 0.00524169
v -0.01496455 0.01677422 0.00516456
v -0.01496455 0.02092993 -0.00524889
v -0.01496455 0.02094401 -0.00524786
v -0.01297679 0.02125610 -0.00521803
v -0.01297679 0.01830337 0.00525094
v -0.01311008 0.01817040 0.00524991
v -0.01494996 0.01725056 0.00525094
v -0.01496455 0.01723570 0.00524991
v -0.01496455 0.02138985 -0.00520467
v -0.01297679 0.02138985 -0.00520467
v -0.01297679 0.01863033 0.00525300
v -0.01357005 0.01817040 0.00525300
v -0.01448999 0.01771048 0.00525300
v -0.01496455 0.01769562 0.00525300
v -0.01496455 0.01725056 0.00525094
v -0.01496455 0.02174965 -0.00511211
v -0.01297679 0.02174965 -0.00511211
v -0.01297679 0.02046923 0.00525300
v -0.01496455 0.02046923 0.00525300
v -0.01496455 0.02197961 -0.00501441
v -0.01297679 0.02191313 -0.00504321
v -0.01297679 0.02092993 0.00524991
v -0.01496455 0.02092993 0.00524991
v -0.01496455 0.02198978 -0.00500824
v -0.01297679 0.02197961 -0.00501441
v -0.01297679 0.02138985 0.00520467
v -0.01496455 0.02137499 0.00520672
v -0.01496455 0.02230969 -0.00480360
v -0.01297679 0.02230969 -0.00480360
v -0.01297679 0.02175278 0.00511211
v -0.01496455 0.02138985 0.00520467
v -0.01496455 0.02255921 -0.00461849
v -0.01311008 0.02255921 -0.00461849
v -0.01297679 0.02255842 -0.00461849
v -0.01297679 0.02198274 0.00501647
v -0.01496455 0.02197570 0.00501956
v -0.01496455 0.02175278 0.00511211
v -0.01496455 0.02275866 -0.00436962
v -0.01448999 0.02275866 -0.00436962
v -0.01297679 0.02275788 -0.00436962
v -0.01297679 0.02230969 0.00480771
v -0.01496455 0.02198274 0.00501647
v -0.01496455 0.02296907 -0.00407755
v -0.01297679 0.02296907 -0.00407755
v -0.01496455 0.02230969 0.00480771
v -0.01297679 0.02256077 0.00462054
v -0.01496455 0.02307232 -0.00384720
v -0.01297679 0.02304259 -0.00391404
v -0.01496455 0.02256077 0.00462054
v -0.01297679 0.02261865 0.00454753
v -0.01496455 0.02275319 0.00437784
v -0.01496455 0.02307623 -0.00383485
v -0.01297679 0.02307232 -0.00384720
v -0.01297679 0.02275944 0.00436962
v -0.01496455 0.02275944 0.00436962
v -0.01496455 0.02319355 -0.00344921
v -0.01448999 0.02319355 -0.00344921
v -0.01297679 0.02315835 -0.00356439
v -0.01297679 0.02282045 0.00428426
v -0.01496455 0.02296203 0.00408578
v -0.01496455 0.02324674 -0.00298952
v -0.01297679 0.02319277 -0.00344921
v -0.01297679 0.02324674 -0.00298952
v -0.01297679 0.02296829 0.00407652
v -0.01496455 0.02296829 0.00407652
v -0.01496455 0.02325222 -0.00252983
v -0.01297679 0.02325065 -0.00266249
v -0.01297679 0.02299879 0.00400968
v -0.01496455 0.02307310 0.00384617
v -0.01297679 0.02325222 -0.00252983
v -0.01496455 0.02325222 0.00254423
v -0.01297679 0.02307310 0.00384617
v -0.01496455 0.02319355 0.00344921
v -0.01297679 0.02325222 0.00252983
v -0.01496455 0.02324674 0.00298952
v -0.01297679 0.02324674 0.00298952
v -0.01297679 0.02319355 0.00344921
v -0.01297679 0.02320920 0.00331655
v -0.01496455 0.02324518 0.00300392
f 1 2 3
f 1 3 4
f 1 4 5
f 1 5 6
f 1 6 13
f 1 13 20
f 1 20 25
f 1 25 35
f 1 35 42
f 1 42 41
f 1 41 40
f 1 40 48
f 1 48 50
f 1 50 54
f 1 54 61
f 1 61 68
f 1 68 67
f 1 67 72
f 1 72 76
f 1 76 80
f 1 80 84
f 1 84 90
f 1 90 89
f 1 89 95
f 1 95 98
f 1 98 102
f 1 102 104
f 1 104 108
f 1 108 113
f 1 113 118
f 1 118 122
f 1 122 126
f 1 126 132
f 1 132 128
f 1 128 124
f 1 124 119
f 1 119 114
f 1 114 109
f 1 109 105
f 1 105 100
f 1 100 96
f 1 96 91
f 1 91 85
f 1 85 81
f 1 81 77
f 1 77 73
f 1 73 69
f 1 69 62
f 1 62 56
f 1 56 55
f 1 55 51
f 1 51 44
f 1 44 36
f 1 36 28
f 1 28 27
f 1 27 21
f 1 21 15
f 1 15 8
f 1 8 2
f 2 7 3
f 2 8 9
f 2 9 7
f 3 7 14
f 3 14 18
f 3 18 17
f 3 17 16
f 3 16 22
f 3 22 29
f 3 29 39
f 3 39 47
f 3 47 52
f 3 52 57
f 3 57 63
f 3 63 70
f 3 70 74
f 3 74 78
f 3 78 82
f 3 82 87
f 3 87 93
f 3 93 97
f 3 97 101
f 3 101 106
f 3 106 111
f 3 111 115
f 3 115 116
f 3 116 120
f 3 120 123
f 3 123 127
f 3 127 129
f 3 129 131
f 3 131 130
f 3 130 125
f 3 125 121
f 3 121 117
f 3 117 112
f 3 112 107
f 3 107 103
f 3 103 99
f 3 99 94
f 3 94 88
f 3 88 83
f 3 83 79
f 3 79 75
f 3 75 71
f 3 71 64
f 3 64 58
f 3 58 53
f 3 53 49
f 3 49 43
f 3 43 34
f 3 34 33
f 3 33 32
f 3 32 31
f 3 31 30
f 3 30 23
f 3 23 19
f 3 19 12
f 3 12 11
f 3 11 10
f 3 10 5
f 3 5 4
f 5 10 6
f 6 10 11
f 6 11 12
f 6 12 13
f 7 9 14
f 8 15 16
f 8 16 17
f 8 17 18
f 8 18 14
f 8 14 9
f 12 19 20
f 12 20 13
f 15 21 16
f 16 21 22
f 19 23 24
f 19 24 20
f 20 24 25
f 21 26 22
f 21 27 26
f 22 27 28
f 22 28 29
f 22 26 27
f 23 30 25
f 23 25 24
f 25 30 31
f 25 31 32
f 25 32 33
f 25 33 34
f 25 34 35
f 28 36 37
f 28 37 29
f 29 37 38
f 29 38 39
f 34 40 41
f 34 41 42
f 34 42 35
f 34 43 40
f 36 44 45
f 36 45 37
f 37 45 46
f 37 46 38
f 38 46 39
f 39 46 45
f 39 45 44
f 39 44 51
f 39 51 47
f 40 43 48
f 43 49 50
f 43 50 48
f 47 51 55
f 47 55 52
f 49 53 50
f 50 53 54
f 52 55 56
f 52 56 57
f 53 58 59
f 53 59 60
f 53 60 61
f 53 61 54
f 56 62 57
f 57 62 63
f 58 60 59
f 58 64 65
f 58 65 60
f 60 65 66
f 60 66 67
f 60 67 68
f 60 68 61
f 62 69 70
f 62 70 63
f 64 71 72
f 64 72 67
f 64 67 66
f 64 66 65
f 69 73 74
f 69 74 70
f 71 75 76
f 71 76 72
f 73 77 78
f 73 78 74
f 75 79 80
f 75 80 76
f 77 81 82
f 77 82 78
f 79 83 90
f 79 90 84
f 79 84 80
f 81 85 86
f 81 86 82
f 82 86 87
f 83 88 89
f 83 89 90
f 85 91 92
f 85 92 86
f 86 92 93
f 86 93 87
f 88 94 98
f 88 98 95
f 88 95 89
f 91 96 97
f 91 97 92
f 92 97 93
f 94 99 102
f 94 102 98
f 96 100 101
f 96 101 97
f 99 103 104
f 99 104 102
f 100 105 106
f 100 106 101
f 103 107 104
f 104 107 108
f 105 109 110
f 105 110 106
f 106 110 111
f 107 112 108
f 108 112 113
f 109 114 116
f 109 116 110
f 110 115 111
f 110 116 115
f 112 117 113
f 113 117 118
f 114 119 120
f 114 120 116
f 117 121 118
f 118 121 122
f 119 123 120
f 119 124 127
f 119 127 123
f 121 125 122
f 122 125 130
f 122 130 126
f 124 128 129
f 124 129 127
f 126 131 132
f 126 130 131
f 128 132 129
f 129 132 131

