# https://github.com/mikedh/trimesh
v -0.01352693 -0.02325300 -0.00252983
v -0.01352693 -0.02324757 -0.00294530
v -0.01101331 -0.02325300 -0.00252983
v -0.01352693 -0.02325300 0.00252983
v -0.01352693 -0.02324689 -0.00298952
v -0.01202407 -0.02324689 -0.00298952
v -0.01101331 -0.02325300 0.00252983
v -0.01101331 -0.02324621 -0.00298952
v -0.01352693 -0.02324689 0.00298952
v -0.01352693 -0.02319324 -0.00344818
v -0.01202407 -0.02319324 -0.00344818
v -0.01101331 -0.02322312 -0.00319211
v -0.01101331 -0.02324621 0.00298952
v -0.01202407 -0.02324689 0.00298952
v -0.01101331 -0.02321701 0.00324662
v -0.01352693 -0.02319324 0.00344818
v -0.01352693 -0.02307237 -0.00384720
v -0.01202407 -0.02311651 -0.00370322
v -0.01101331 -0.02319256 -0.00344818
v -0.01101331 -0.02313960 -0.00362506
v -0.01101331 -0.02319324 0.00344818
v -0.01352693 -0.02318170 0.00348726
v -0.01101331 -0.02307237 -0.00384720
v -0.01352693 -0.02296984 -0.00407858
v -0.01101331 -0.02312602 0.00367134
v -0.01352693 -0.02307237 0.00384719
v -0.01202407 -0.02296984 -0.00407858
v -0.01101331 -0.02296916 -0.00407858
v -0.01352693 -0.02276137 -0.00436859
v -0.01202407 -0.02283607 -0.00426472
v -0.01101331 -0.02307237 0.00384719
v -0.01352693 -0.02306287 0.00386879
v -0.01101331 -0.02276069 -0.00436859
v -0.01352693 -0.02256105 -0.00461951
v -0.01202407 -0.02276137 -0.00436859
v -0.01101331 -0.02301533 0.00397677
v -0.01352693 -0.02296984 0.00407858
v -0.01101331 -0.02267242 -0.00447965
v -0.01202407 -0.02256105 -0.00461951
v -0.01352693 -0.02230913 -0.00480668
v -0.01101331 -0.02296916 0.00407858
v -0.01202407 -0.02296984 0.00407858
v -0.01352693 -0.02295015 0.00410635
v -0.01101331 -0.02256038 -0.00461951
v -0.01101331 -0.02230913 -0.00480668
v -0.01352693 -0.02198251 -0.00501647
v -0.01202407 -0.02210066 -0.00494140
v -0.01101331 -0.02216517 -0.00490026
v -0.01101331 -0.02285304 0.00424107
v -0.01202407 -0.02276137 0.00436859
v -0.01352693 -0.02276137 0.00436859
v -0.01352693 -0.02175299 -0.00511211
v -0.01202407 -0.02198319 -0.00501647
v -0.01101331 -0.02198319 -0.00501647
v -0.01101331 -0.02276069 0.00436859
v -0.01202407 -0.02256105 0.00461951
v -0.01352693 -0.02256105 0.00461951
v -0.01202407 -0.02175299 -0.00511211
v -0.01352693 -0.02142366 -0.00519541
v -0.01202407 -0.02152076 -0.00517176
v -0.01101331 -0.02175231 -0.00511211
v -0.01101331 -0.02256038 0.00461951
v -0.01352693 -0.02253729 0.00463802
v -0.01352693 -0.02138971 -0.00520364
v -0.01202407 -0.02138971 -0.00520364
v -0.01101331 -0.02138903 -0.00520364
v -0.01101331 -0.02159206 -0.00515325
v -0.01202407 -0.02247006 0.00468739
v -0.01101331 -0.02230913 0.00480668
v -0.01352693 -0.02230913 0.00480668
v -0.01352693 -0.02092931 -0.00524991
v -0.01101331 -0.02092931 -0.00524991
v -0.01101331 -0.02198319 0.00501647
v -0.01352693 -0.02227925 0.00482725
v -0.01352693 -0.02046960 -0.00525300
v -0.01101331 -0.02046960 -0.00525300
v -0.01101331 -0.02185417 0.00506995
v -0.01202407 -0.02175299 0.00511211
v -0.01202407 -0.02198319 0.00501647
v -0.01352693 -0.02198251 0.00501647
v -0.01352693 -0.01821382 -0.00525300
v -0.01101331 -0.01909115 -0.00525300
v -0.01101331 -0.02175231 0.00511211
v -0.01202407 -0.02138971 0.00520364
v -0.01352693 -0.02175299 0.00511211
v -0.01352693 -0.01817036 -0.00525197
v -0.01310988 -0.01817036 -0.00524991
v -0.01173005 -0.01863076 -0.00525300
v -0.01101331 -0.01888743 -0.00525197
v -0.01101331 -0.02138903 0.00520364
v -0.01202407 -0.02122334 0.00522112
v -0.01352693 -0.02138971 0.00520364
v -0.01352693 -0.01766651 -0.00516662
v -0.01352619 -0.01766651 -0.00516662
v -0.01101331 -0.01863076 -0.00524683
v -0.01127018 -0.01863076 -0.00524991
v -0.01101331 -0.02113303 0.00522935
v -0.01101331 -0.02092931 0.00524889
v -0.01352693 -0.02092931 0.00524889
v -0.01352693 -0.01743836 -0.00508846
v -0.01101331 -0.01846439 -0.00520364
v -0.01101331 -0.01826747 -0.00515119
v -0.01101331 -0.02046960 0.00525300
v -0.01352693 -0.02088586 0.00524991
v -0.01352693 -0.01724958 -0.00492803
v -0.01352619 -0.01725298 -0.00493112
v -0.01101331 -0.01816561 -0.00507509
v -0.01352693 -0.02046960 0.00525300
v -0.01101331 -0.01909115 0.00525300
v -0.01352693 -0.01672061 -0.00445394
v -0.01101331 -0.01803727 -0.00496505
v -0.01352693 -0.01863076 0.00525300
v -0.01127018 -0.01863076 0.00524991
v -0.01173005 -0.01863076 0.00525300
v -0.01101331 -0.01863076 0.00524683
v -0.01352693 -0.01649584 -0.00424724
v -0.01101331 -0.01793202 -0.00486324
v -0.01352693 -0.01647140 -0.00422461
v -0.01352693 -0.01817036 0.00525197
v -0.01310988 -0.01817036 0.00524991
v -0.01101331 -0.01826747 0.00515119
v -0.01352619 -0.01766651 0.00516661
v -0.01101331 -0.01770115 -0.00463597
v -0.01101331 -0.01727742 -0.00410635
v -0.01101331 -0.01735551 -0.00427809
v -0.01101331 -0.01747570 -0.00440664
v -0.01101331 -0.01757213 -0.00450845
v -0.01352693 -0.01635936 -0.00394901
v -0.01352693 -0.01766651 0.00516661
v -0.01101331 -0.01803727 0.00496505
v -0.01352619 -0.01725298 0.00493111
v -0.01334387 -0.01748385 0.00505761
v -0.01101331 -0.01719798 -0.00390993
v -0.01352693 -0.01634985 -0.00390993
v -0.01352693 -0.01725366 0.00493111
v -0.01101331 -0.01780300 0.00473572
v -0.01352693 -0.01647140 0.00422461
v -0.01352693 -0.01672061 0.00445394
v -0.01352693 -0.01724958 0.00492803
v -0.01101331 -0.01716470 -0.00344818
v -0.01352693 -0.01632201 -0.00350783
v -0.01101331 -0.01757213 0.00450845
v -0.01352693 -0.01634985 0.00390993
v -0.01101331 -0.01735551 0.00427809
v -0.01101331 -0.01719798 0.00390993
v -0.01352693 -0.01631794 -0.00344818
v -0.01352693 -0.01631590 -0.00298952
v -0.01101331 -0.01716470 0.00344818
v -0.01101331 -0.01717896 0.00365283
v -0.01352693 -0.01631794 0.00344818
v -0.01352693 -0.01631590 0.00298952
f 1 2 3
f 1 3 7
f 1 7 4
f 1 4 9
f 1 9 16
f 1 16 22
f 1 22 26
f 1 26 32
f 1 32 37
f 1 37 43
f 1 43 51
f 1 51 57
f 1 57 63
f 1 63 70
f 1 70 74
f 1 74 80
f 1 80 85
f 1 85 92
f 1 92 99
f 1 99 104
f 1 104 108
f 1 108 112
f 1 112 119
f 1 119 129
f 1 129 135
f 1 135 139
f 1 139 138
f 1 138 137
f 1 137 143
f 1 143 150
f 1 150 151
f 1 151 147
f 1 147 146
f 1 146 141
f 1 141 134
f 1 134 128
f 1 128 118
f 1 118 116
f 1 116 110
f 1 110 105
f 1 105 100
f 1 100 93
f 1 93 86
f 1 86 81
f 1 81 75
f 1 75 71
f 1 71 64
f 1 64 59
f 1 59 52
f 1 52 46
f 1 46 40
f 1 40 34
f 1 34 29
f 1 29 24
f 1 24 17
f 1 17 10
f 1 10 5
f 1 5 2
f 2 5 6
f 2 6 3
f 3 6 8
f 3 8 12
f 3 12 19
f 3 19 20
f 3 20 23
f 3 23 28
f 3 28 33
f 3 33 38
f 3 38 44
f 3 44 45
f 3 45 48
f 3 48 54
f 3 54 61
f 3 61 67
f 3 67 66
f 3 66 72
f 3 72 76
f 3 76 82
f 3 82 89
f 3 89 95
f 3 95 101
f 3 101 102
f 3 102 107
f 3 107 111
f 3 111 117
f 3 117 123
f 3 123 127
f 3 127 126
f 3 126 125
f 3 125 124
f 3 124 133
f 3 133 140
f 3 140 148
f 3 148 149
f 3 149 145
f 3 145 144
f 3 144 142
f 3 142 136
f 3 136 130
f 3 130 121
f 3 121 115
f 3 115 109
f 3 109 103
f 3 103 98
f 3 98 97
f 3 97 90
f 3 90 83
f 3 83 77
f 3 77 73
f 3 73 69
f 3 69 62
f 3 62 55
f 3 55 49
f 3 49 41
f 3 41 36
f 3 36 31
f 3 31 25
f 3 25 21
f 3 21 15
f 3 15 13
f 3 13 7
f 4 7 14
f 4 14 9
f 5 10 11
f 5 11 6
f 6 11 12
f 6 12 8
f 7 13 14
f 9 14 15
f 9 15 16
f 10 17 18
f 10 18 11
f 11 19 12
f 11 18 20
f 11 20 19
f 13 15 14
f 15 21 16
f 16 21 22
f 17 23 18
f 17 24 27
f 17 27 23
f 18 23 20
f 21 25 22
f 22 25 26
f 23 27 28
f 24 29 30
f 24 30 27
f 25 31 26
f 26 31 36
f 26 36 32
f 27 30 28
f 28 30 33
f 29 34 39
f 29 39 35
f 29 35 30
f 30 35 33
f 32 36 37
f 33 35 38
f 34 40 45
f 34 45 39
f 35 39 38
f 36 41 42
f 36 42 37
f 37 42 43
f 38 39 44
f 39 45 44
f 40 46 47
f 40 47 48
f 40 48 45
f 41 49 42
f 42 49 43
f 43 49 50
f 43 50 51
f 46 52 53
f 46 53 47
f 47 53 48
f 48 53 54
f 49 55 50
f 50 55 62
f 50 62 56
f 50 56 57
f 50 57 51
f 52 58 54
f 52 54 53
f 52 59 60
f 52 60 58
f 54 58 61
f 56 62 63
f 56 63 57
f 58 60 61
f 59 64 65
f 59 65 60
f 60 65 66
f 60 66 67
f 60 67 61
f 62 68 63
f 62 69 68
f 63 68 69
f 63 69 70
f 64 71 72
f 64 72 65
f 65 72 66
f 69 73 74
f 69 74 70
f 71 75 76
f 71 76 72
f 73 77 78
f 73 78 85
f 73 85 79
f 73 79 74
f 74 79 80
f 75 81 88
f 75 88 82
f 75 82 76
f 77 83 78
f 78 83 90
f 78 90 84
f 78 84 92
f 78 92 85
f 79 85 80
f 81 86 87
f 81 87 88
f 82 88 89
f 84 90 91
f 84 91 92
f 86 93 94
f 86 94 87
f 87 94 95
f 87 95 96
f 87 96 88
f 88 96 89
f 89 96 95
f 90 97 91
f 91 97 98
f 91 98 99
f 91 99 92
f 93 100 94
f 94 101 95
f 94 100 102
f 94 102 101
f 98 103 104
f 98 104 99
f 100 105 106
f 100 106 107
f 100 107 102
f 103 108 104
f 103 109 114
f 103 114 112
f 103 112 108
f 105 110 106
f 106 111 107
f 106 110 111
f 109 113 114
f 109 115 113
f 110 116 111
f 111 116 118
f 111 118 117
f 112 114 119
f 113 120 114
f 113 115 120
f 114 120 119
f 115 121 122
f 115 122 120
f 117 118 123
f 118 124 125
f 118 125 126
f 118 126 127
f 118 127 123
f 118 128 124
f 119 120 122
f 119 122 129
f 121 130 131
f 121 131 132
f 121 132 122
f 122 132 131
f 122 131 129
f 124 128 133
f 128 134 133
f 129 131 135
f 130 136 137
f 130 137 138
f 130 138 131
f 131 138 139
f 131 139 135
f 133 134 140
f 134 141 140
f 136 142 137
f 137 142 144
f 137 144 145
f 137 145 143
f 140 141 146
f 140 146 147
f 140 147 151
f 140 151 148
f 143 145 149
f 143 149 148
f 143 148 150
f 148 151 150

