# https://github.com/mikedh/trimesh
v 0.00761502 -0.00316415 -0.00298952
v 0.00761502 -0.00316353 -0.00344921
v 0.00880657 -0.00286186 -0.00315303
v 0.00761502 -0.00316415 0.00298952
v 0.00761502 -0.00313875 -0.00388422
v 0.00880657 -0.00283398 -0.00393255
v 0.00880657 -0.00286124 -0.00344921
v 0.00880657 -0.00286186 0.00298952
v 0.00761502 -0.00316353 0.00344921
v 0.00761502 -0.00313503 -0.00393255
v 0.00880657 -0.00278319 -0.00416908
v 0.00880657 -0.00286124 0.00344921
v 0.00761502 -0.00316229 0.00348315
v 0.00761502 -0.00293309 -0.00431408
v 0.00880657 -0.00258620 -0.00437373
v 0.00880657 -0.00284575 0.00374538
v 0.00761502 -0.00313503 0.00393255
v 0.00761502 -0.00270204 -0.00454444
v 0.00880657 -0.00232975 -0.00462877
v 0.00880657 -0.00283398 0.00393255
v 0.00880657 -0.00279929 0.00410943
v 0.00880657 -0.00278319 0.00416908
v 0.00761502 -0.00312079 0.00396957
v 0.00880657 -0.00207082 -0.00488587
v 0.00761502 -0.00247222 -0.00476349
v 0.00880657 -0.00186640 -0.00508229
v 0.00880657 -0.00267664 0.00428015
v 0.00761502 -0.00293309 0.00431408
v 0.00761502 -0.00222568 -0.00499282
v 0.00805011 -0.00194074 -0.00513474
v 0.00880657 -0.00163659 -0.00516867
v 0.00880657 -0.00258620 0.00437373
v 0.00880657 -0.00241090 0.00454855
v 0.00761502 -0.00270204 0.00454444
v 0.00761502 -0.00199587 -0.00515222
v 0.00850994 -0.00160995 -0.00519850
v 0.00880657 -0.00114970 -0.00525300
v 0.00880657 -0.00216683 0.00479125
v 0.00880657 -0.00207082 0.00488587
v 0.00880657 -0.00191720 0.00503498
v 0.00761502 -0.00247222 0.00476349
v 0.00761502 -0.00160995 -0.00524889
v 0.00805011 -0.00160995 -0.00523038
v 0.00761502 -0.00114970 -0.00525300
v 0.00880657 0.00114970 -0.00525300
v 0.00761502 -0.00245921 0.00477583
v 0.00880657 -0.00186640 0.00508229
v 0.00761502 0.00114970 -0.00525300
v 0.00761502 0.00158455 -0.00524991
v 0.00761502 0.00160995 -0.00524889
v 0.00805011 0.00160995 -0.00523038
v 0.00880657 0.00131323 -0.00523346
v 0.00761502 -0.00222568 0.00499282
v 0.00880657 -0.00175242 0.00512856
v 0.00805011 -0.00194074 0.00513473
v 0.00761502 -0.00221329 0.00500413
v 0.00761502 0.00197790 -0.00515736
v 0.00850994 0.00160995 -0.00519850
v 0.00880657 0.00163659 -0.00516867
v 0.00880657 -0.00163659 0.00516867
v 0.00761502 -0.00199587 0.00515222
v 0.00761502 0.00199587 -0.00515222
v 0.00805011 0.00194074 -0.00513474
v 0.00880657 0.00175242 -0.00512857
v 0.00880657 -0.00131323 0.00523346
v 0.00850994 -0.00160995 0.00519850
v 0.00761502 -0.00197790 0.00515736
v 0.00761502 0.00221329 -0.00500413
v 0.00880657 0.00186640 -0.00508229
v 0.00880657 -0.00114970 0.00525300
v 0.00805011 -0.00160995 0.00523037
v 0.00761502 -0.00160995 0.00524889
v 0.00761502 0.00222568 -0.00499282
v 0.00761502 0.00245921 -0.00477583
v 0.00880657 0.00191720 -0.00503498
v 0.00761502 -0.00114970 0.00525300
v 0.00761502 -0.00158455 0.00524991
v 0.00880657 0.00114970 0.00525300
v 0.00761502 0.00247222 -0.00476349
v 0.00880657 0.00207082 -0.00488587
v 0.00761502 0.00270204 -0.00454444
v 0.00761502 0.00114970 0.00525300
v 0.00880657 0.00163659 0.00516867
v 0.00850994 0.00160995 0.00519850
v 0.00805011 0.00160995 0.00523037
v 0.00761502 0.00160995 0.00524889
v 0.00880657 0.00216683 -0.00479125
v 0.00880657 0.00241090 -0.00454855
v 0.00761502 0.00293309 -0.00431408
v 0.00880657 0.00186640 0.00508229
v 0.00805011 0.00194074 0.00513473
v 0.00761502 0.00199587 0.00515222
v 0.00880657 0.00258620 -0.00437373
v 0.00761502 0.00312079 -0.00396957
v 0.00880657 0.00278319 -0.00416908
v 0.00880657 0.00267664 -0.00428015
v 0.00880657 0.00207082 0.00488587
v 0.00761502 0.00270204 0.00454444
v 0.00761502 0.00247222 0.00476349
v 0.00761502 0.00222568 0.00499282
v 0.00761502 0.00313503 -0.00393255
v 0.00880657 0.00279929 -0.00410943
v 0.00880657 0.00232975 0.00462877
v 0.00880657 0.00258620 0.00437373
v 0.00761502 0.00293309 0.00431408
v 0.00880657 0.00283398 -0.00393255
v 0.00761502 0.00316229 -0.00348315
v 0.00880657 0.00284575 -0.00374538
v 0.00880657 0.00278319 0.00416908
v 0.00761502 0.00313503 0.00393255
v 0.00761502 0.00316353 -0.00344921
v 0.00880657 0.00286124 -0.00344921
v 0.00880657 0.00283398 0.00393255
v 0.00761502 0.00313875 0.00388422
v 0.00761502 0.00316415 -0.00298952
v 0.00880657 0.00286186 -0.00298952
v 0.00880657 0.00286124 0.00344921
v 0.00761502 0.00316353 0.00344921
v 0.00761502 0.00316415 0.00298952
v 0.00880657 0.00286186 0.00315303
f 1 2 3
f 1 3 8
f 1 8 4
f 1 4 9
f 1 9 13
f 1 13 17
f 1 17 23
f 1 23 28
f 1 28 34
f 1 34 41
f 1 41 46
f 1 46 53
f 1 53 56
f 1 56 61
f 1 61 67
f 1 67 72
f 1 72 77
f 1 77 76
f 1 76 82
f 1 82 86
f 1 86 92
f 1 92 100
f 1 100 99
f 1 99 98
f 1 98 105
f 1 105 110
f 1 110 114
f 1 114 118
f 1 118 119
f 1 119 115
f 1 115 111
f 1 111 107
f 1 107 101
f 1 101 94
f 1 94 89
f 1 89 81
f 1 81 79
f 1 79 74
f 1 74 73
f 1 73 68
f 1 68 62
f 1 62 57
f 1 57 50
f 1 50 49
f 1 49 48
f 1 48 44
f 1 44 42
f 1 42 35
f 1 35 29
f 1 29 25
f 1 25 18
f 1 18 14
f 1 14 10
f 1 10 5
f 1 5 2
f 2 5 6
f 2 6 7
f 2 7 3
f 3 7 6
f 3 6 11
f 3 11 15
f 3 15 19
f 3 19 24
f 3 24 26
f 3 26 31
f 3 31 37
f 3 37 45
f 3 45 52
f 3 52 59
f 3 59 64
f 3 64 69
f 3 69 75
f 3 75 80
f 3 80 87
f 3 87 88
f 3 88 93
f 3 93 96
f 3 96 95
f 3 95 102
f 3 102 106
f 3 106 108
f 3 108 112
f 3 112 116
f 3 116 120
f 3 120 117
f 3 117 113
f 3 113 109
f 3 109 104
f 3 104 103
f 3 103 97
f 3 97 90
f 3 90 83
f 3 83 78
f 3 78 70
f 3 70 65
f 3 65 60
f 3 60 54
f 3 54 47
f 3 47 40
f 3 40 39
f 3 39 38
f 3 38 33
f 3 33 32
f 3 32 27
f 3 27 22
f 3 22 21
f 3 21 20
f 3 20 16
f 3 16 12
f 3 12 8
f 4 8 12
f 4 12 9
f 5 10 6
f 6 10 11
f 9 12 13
f 10 14 11
f 11 14 15
f 12 16 13
f 13 16 17
f 14 18 15
f 15 18 19
f 16 20 17
f 17 20 21
f 17 21 22
f 17 22 23
f 18 24 19
f 18 25 26
f 18 26 24
f 22 27 28
f 22 28 23
f 25 29 26
f 26 30 31
f 26 29 30
f 27 32 28
f 28 32 33
f 28 33 34
f 29 35 30
f 30 35 31
f 31 35 36
f 31 36 37
f 33 38 34
f 34 38 39
f 34 39 40
f 34 40 41
f 35 42 43
f 35 43 36
f 36 43 37
f 37 44 48
f 37 48 45
f 37 43 42
f 37 42 44
f 40 46 41
f 40 47 46
f 45 48 49
f 45 49 50
f 45 50 51
f 45 51 52
f 46 47 53
f 47 54 55
f 47 55 56
f 47 56 53
f 50 57 51
f 51 57 58
f 51 58 52
f 52 58 59
f 54 60 55
f 55 60 61
f 55 61 56
f 57 62 58
f 58 62 59
f 59 62 63
f 59 63 64
f 60 65 66
f 60 66 61
f 61 66 67
f 62 68 63
f 63 68 69
f 63 69 64
f 65 70 71
f 65 71 66
f 66 71 67
f 67 71 72
f 68 73 69
f 69 73 74
f 69 74 75
f 70 76 77
f 70 77 72
f 70 72 71
f 70 78 82
f 70 82 76
f 74 79 75
f 75 79 81
f 75 81 80
f 78 83 84
f 78 84 85
f 78 85 86
f 78 86 82
f 80 81 87
f 81 88 87
f 81 89 88
f 83 90 91
f 83 91 92
f 83 92 84
f 84 92 85
f 85 92 86
f 88 89 93
f 89 94 95
f 89 95 96
f 89 96 93
f 90 97 98
f 90 98 99
f 90 99 100
f 90 100 91
f 91 100 92
f 94 101 95
f 95 101 102
f 97 103 98
f 98 103 104
f 98 104 105
f 101 106 102
f 101 107 108
f 101 108 106
f 104 109 105
f 105 109 110
f 107 111 112
f 107 112 108
f 109 113 110
f 110 113 114
f 111 115 116
f 111 116 112
f 113 117 118
f 113 118 114
f 115 119 120
f 115 120 116
f 117 120 118
f 118 120 119

