# https://github.com/mikedh/trimesh
v 0.01122169 -0.00286764 -0.00298952
v 0.01030178 -0.00276659 -0.00344921
v 0.01122169 -0.00286708 -0.00344921
v 0.01122169 -0.00286764 0.00298952
v 0.01030178 -0.00276266 -0.00361272
v 0.01030178 -0.00276659 0.00344921
v 0.01122169 -0.00286484 -0.00349754
v 0.01122169 -0.00286708 0.00344921
v 0.01030178 -0.00274357 -0.00391096
v 0.01122169 -0.00284013 -0.00390993
v 0.01044307 -0.00276659 0.00375978
v 0.01030178 -0.00274357 0.00391095
v 0.01122169 -0.00284013 0.00390993
v 0.01030178 -0.00273684 -0.00392432
v 0.01064669 -0.00275143 -0.00406624
v 0.01122169 -0.00283508 -0.00394592
v 0.01095323 -0.00276828 0.00415057
v 0.01064669 -0.00275143 0.00406624
v 0.01030178 -0.00250947 0.00435625
v 0.01122169 -0.00278680 0.00417319
v 0.01030178 -0.00250947 -0.00435625
v 0.01095323 -0.00276828 -0.00415057
v 0.01122169 -0.00278680 -0.00417319
v 0.01030178 -0.00230961 0.00456192
v 0.01122169 -0.00256168 0.00440355
v 0.01030178 -0.00248645 -0.00437990
v 0.01122169 -0.00276378 -0.00419685
v 0.01030178 -0.00228603 0.00458558
v 0.01122169 -0.00235508 0.00460820
v 0.01030178 -0.00205586 0.00481593
v 0.01030178 -0.00228603 -0.00458558
v 0.01122169 -0.00256168 -0.00440355
v 0.01122169 -0.00209852 0.00486118
v 0.01122169 -0.00186835 0.00508434
v 0.01030178 -0.00184365 0.00502161
v 0.01030178 -0.00226189 -0.00461026
v 0.01030178 -0.00205586 -0.00481594
v 0.01122169 -0.00252856 -0.00443646
v 0.01122169 -0.00161403 0.00517896
v 0.01030178 -0.00158877 0.00515633
v 0.01030178 -0.00181894 0.00504527
v 0.01122169 -0.00230905 -0.00465448
v 0.01030178 -0.00181894 -0.00504527
v 0.01122169 -0.00186835 -0.00508434
v 0.01122169 -0.00209852 -0.00486118
v 0.01122169 -0.00114975 0.00525300
v 0.01030178 -0.00114975 0.00525300
v 0.01030178 -0.00179480 -0.00505761
v 0.01030178 -0.00158877 -0.00515633
v 0.01122169 -0.00184870 -0.00509257
v 0.01122169 0.00114975 0.00525300
v 0.01030178 0.00114975 0.00525300
v 0.01030178 -0.00154330 -0.00516662
v 0.01122169 -0.00156126 -0.00519130
v 0.01122169 -0.00161403 -0.00517896
v 0.01122169 0.00156126 0.00519130
v 0.01030178 0.00154330 0.00516661
v 0.01030178 -0.00114975 -0.00525300
v 0.01122169 -0.00114975 -0.00525300
v 0.01122169 0.00161403 0.00517896
v 0.01030178 0.00158877 0.00515633
v 0.01030178 0.00114975 -0.00525300
v 0.01122169 0.00114975 -0.00525300
v 0.01122169 0.00184870 0.00509257
v 0.01122169 0.00186835 0.00508434
v 0.01030178 0.00179480 0.00505761
v 0.01030178 0.00158877 -0.00515633
v 0.01122169 0.00161403 -0.00517896
v 0.01122169 0.00209852 0.00486118
v 0.01030178 0.00205586 0.00481593
v 0.01030178 0.00181894 0.00504527
v 0.01122169 0.00186835 -0.00508434
v 0.01030178 0.00181894 -0.00504527
v 0.01122169 0.00230905 0.00465448
v 0.01122169 0.00252856 0.00443646
v 0.01122169 0.00256168 0.00440355
v 0.01030178 0.00226189 0.00461026
v 0.01030178 0.00184365 -0.00502161
v 0.01030178 0.00205586 -0.00481594
v 0.01122169 0.00209852 -0.00486118
v 0.01122169 0.00276378 0.00419685
v 0.01030178 0.00228603 0.00458558
v 0.01122169 0.00235508 -0.00460820
v 0.01030178 0.00228603 -0.00458558
v 0.01122169 0.00256168 -0.00440355
v 0.01122169 0.00278680 0.00417319
v 0.01030178 0.00248645 0.00437990
v 0.01030178 0.00230961 -0.00456192
v 0.01122169 0.00278680 -0.00417319
v 0.01122169 0.00283508 0.00394592
v 0.01095323 0.00276828 0.00415057
v 0.01030178 0.00250947 0.00435625
v 0.01030178 0.00250947 -0.00435625
v 0.01095323 0.00276828 -0.00415057
v 0.01122169 0.00284013 -0.00390993
v 0.01122169 0.00284013 0.00390993
v 0.01030178 0.00274357 0.00391095
v 0.01064669 0.00275143 0.00406624
v 0.01030178 0.00273684 0.00392432
v 0.01064669 0.00275143 -0.00406624
v 0.01030178 0.00274357 -0.00391096
v 0.01122169 0.00286708 -0.00344921
v 0.01122169 0.00286484 0.00349754
v 0.01030178 0.00276266 0.00361272
v 0.01030178 0.00276659 -0.00344921
v 0.01044307 0.00276659 -0.00375978
v 0.01122169 0.00286764 -0.00298952
v 0.01122169 0.00286708 0.00344921
v 0.01030178 0.00276659 0.00344921
v 0.01122169 0.00286764 0.00298952
f 1 2 3
f 1 3 7
f 1 7 10
f 1 10 16
f 1 16 23
f 1 23 27
f 1 27 32
f 1 32 38
f 1 38 42
f 1 42 45
f 1 45 44
f 1 44 50
f 1 50 55
f 1 55 54
f 1 54 59
f 1 59 63
f 1 63 68
f 1 68 72
f 1 72 80
f 1 80 83
f 1 83 85
f 1 85 89
f 1 89 95
f 1 95 102
f 1 102 107
f 1 107 110
f 1 110 108
f 1 108 103
f 1 103 96
f 1 96 90
f 1 90 86
f 1 86 81
f 1 81 76
f 1 76 75
f 1 75 74
f 1 74 69
f 1 69 65
f 1 65 64
f 1 64 60
f 1 60 56
f 1 56 51
f 1 51 46
f 1 46 39
f 1 39 34
f 1 34 33
f 1 33 29
f 1 29 25
f 1 25 20
f 1 20 13
f 1 13 8
f 1 8 4
f 1 4 6
f 1 6 2
f 2 5 3
f 2 6 12
f 2 12 19
f 2 19 24
f 2 24 28
f 2 28 30
f 2 30 35
f 2 35 41
f 2 41 40
f 2 40 47
f 2 47 52
f 2 52 57
f 2 57 61
f 2 61 66
f 2 66 71
f 2 71 70
f 2 70 77
f 2 77 82
f 2 82 87
f 2 87 92
f 2 92 99
f 2 99 97
f 2 97 104
f 2 104 109
f 2 109 105
f 2 105 101
f 2 101 93
f 2 93 88
f 2 88 84
f 2 84 79
f 2 79 78
f 2 78 73
f 2 73 67
f 2 67 62
f 2 62 58
f 2 58 53
f 2 53 49
f 2 49 48
f 2 48 43
f 2 43 37
f 2 37 36
f 2 36 31
f 2 31 26
f 2 26 21
f 2 21 14
f 2 14 9
f 2 9 5
f 3 5 7
f 4 8 6
f 5 9 10
f 5 10 7
f 6 8 11
f 6 11 12
f 8 13 12
f 8 12 11
f 9 14 15
f 9 15 16
f 9 16 10
f 12 13 17
f 12 17 18
f 12 18 19
f 13 20 17
f 14 21 15
f 15 22 16
f 15 21 22
f 16 22 23
f 17 20 19
f 17 19 18
f 19 20 24
f 20 25 24
f 21 23 22
f 21 26 27
f 21 27 23
f 24 25 28
f 25 29 30
f 25 30 28
f 26 31 27
f 27 31 32
f 29 33 30
f 30 33 34
f 30 34 35
f 31 36 32
f 32 36 37
f 32 37 38
f 34 39 40
f 34 40 41
f 34 41 35
f 37 42 38
f 37 43 44
f 37 44 45
f 37 45 42
f 39 46 47
f 39 47 40
f 43 48 44
f 44 48 49
f 44 49 50
f 46 51 52
f 46 52 47
f 49 53 54
f 49 54 55
f 49 55 50
f 51 56 52
f 52 56 57
f 53 58 54
f 54 58 59
f 56 60 61
f 56 61 57
f 58 62 63
f 58 63 59
f 60 64 61
f 61 64 65
f 61 65 66
f 62 67 68
f 62 68 63
f 65 69 70
f 65 70 71
f 65 71 66
f 67 72 68
f 67 73 72
f 69 74 70
f 70 74 75
f 70 75 76
f 70 76 77
f 72 73 78
f 72 78 79
f 72 79 80
f 76 81 82
f 76 82 77
f 79 83 80
f 79 84 85
f 79 85 83
f 81 86 92
f 81 92 87
f 81 87 82
f 84 88 85
f 85 88 89
f 86 90 91
f 86 91 92
f 88 93 89
f 89 93 94
f 89 94 95
f 90 96 97
f 90 97 98
f 90 98 91
f 91 98 92
f 92 98 99
f 93 100 94
f 93 101 100
f 94 100 101
f 94 101 95
f 95 101 102
f 96 103 104
f 96 104 97
f 97 99 98
f 101 105 106
f 101 106 102
f 102 106 105
f 102 105 107
f 103 108 104
f 104 108 109
f 105 109 110
f 105 110 107
f 108 110 109

