# https://github.com/mikedh/trimesh
v 0.00322930 -0.01256404 0.00298952
v 0.00280320 -0.01079621 0.00344921
v 0.00322867 -0.01256404 0.00344921
v 0.00322930 -0.01256404 -0.00298952
v 0.00278170 -0.01079621 0.00390273
v 0.00280320 -0.01079621 -0.00344921
v 0.00320022 -0.01256404 0.00390993
v 0.00322867 -0.01256404 -0.00344921
v 0.00277917 -0.01079621 0.00392021
v 0.00278170 -0.01079621 -0.00390273
v 0.00276716 -0.01096149 0.00414954
v 0.00296314 -0.01256404 0.00434905
v 0.00321982 -0.01256404 -0.00359318
v 0.00253641 -0.01079621 0.00436242
v 0.00320022 -0.01256404 -0.00390993
v 0.00275831 -0.01079621 -0.00410121
v 0.00253008 -0.01079621 0.00437167
v 0.00280130 -0.01256404 0.00450536
v 0.00207110 -0.01079690 0.00483136
v 0.00319137 -0.01256404 -0.00395209
v 0.00276716 -0.01096149 -0.00414954
v 0.00252755 -0.01079621 -0.00437373
v 0.00206984 -0.01079621 0.00483239
v 0.00249658 -0.01256404 0.00479742
v 0.00296314 -0.01256404 -0.00434905
v 0.00252376 -0.01079621 -0.00437784
v 0.00165891 -0.01079621 0.00513679
v 0.00184857 -0.01095422 0.00506789
v 0.00227531 -0.01256404 0.00499899
v 0.00291510 -0.01256404 -0.00439841
v 0.00230186 -0.01079621 -0.00460100
v 0.00164816 -0.01079621 0.00514193
v 0.00196869 -0.01218988 0.00514605
v 0.00205783 -0.01256404 0.00514193
v 0.00223548 -0.01256404 0.00502984
v 0.00225128 -0.01255124 0.00501750
v 0.00249658 -0.01256404 -0.00479742
v 0.00183845 -0.01079621 -0.00505966
v 0.00207110 -0.01079690 -0.00483136
v 0.00206984 -0.01079621 -0.00483239
v 0.00160959 -0.01127006 0.00518410
v 0.00160959 -0.01172988 0.00521598
v 0.00114998 -0.01079621 0.00525300
v 0.00160959 -0.01218988 0.00524272
v 0.00160959 -0.01256404 0.00525094
v 0.00243589 -0.01256404 -0.00485501
v 0.00225381 -0.01256404 -0.00501956
v 0.00205783 -0.01256404 -0.00514193
v 0.00196869 -0.01218988 -0.00514605
v 0.00164816 -0.01079621 -0.00514193
v 0.00114998 -0.01256404 0.00525300
v -0.00114998 -0.01079621 0.00525300
v 0.00197185 -0.01256404 -0.00516559
v 0.00160959 -0.01218988 -0.00524272
v 0.00160959 -0.01172988 -0.00521598
v 0.00163994 -0.01079621 -0.00514399
v -0.00152361 -0.01256404 0.00525300
v -0.00163994 -0.01079621 0.00514399
v -0.00160959 -0.01127006 0.00518410
v -0.00160959 -0.01172988 0.00521598
v -0.00160959 -0.01218988 0.00524272
v -0.00160959 -0.01256404 0.00525094
v 0.00160959 -0.01256404 -0.00525094
v 0.00114998 -0.01079621 -0.00525300
v 0.00160959 -0.01127006 -0.00518410
v -0.00164816 -0.01079621 0.00514193
v -0.00196869 -0.01218988 0.00514605
v -0.00197185 -0.01256404 0.00516559
v 0.00152361 -0.01256404 -0.00525300
v -0.00114998 -0.01079621 -0.00525300
v -0.00183845 -0.01079621 0.00505966
v -0.00205783 -0.01256404 0.00514193
v -0.00114998 -0.01256404 -0.00525300
v -0.00160959 -0.01256404 -0.00525094
v -0.00160959 -0.01218988 -0.00524272
v -0.00160959 -0.01172988 -0.00521598
v -0.00160959 -0.01127006 -0.00518410
v -0.00164816 -0.01079621 -0.00514193
v -0.00207237 -0.01079621 0.00482930
v -0.00207110 -0.01079690 0.00483136
v -0.00291510 -0.01256404 0.00439841
v -0.00249658 -0.01256404 0.00479742
v -0.00243589 -0.01256404 0.00485501
v -0.00225381 -0.01256404 0.00501956
v -0.00205783 -0.01256404 -0.00514193
v -0.00196869 -0.01218988 -0.00514605
v -0.00184857 -0.01095422 -0.00506789
v -0.00165891 -0.01079621 -0.00513679
v -0.00230186 -0.01079621 0.00460100
v -0.00253008 -0.01079621 0.00437167
v -0.00296314 -0.01256404 0.00434905
v -0.00223548 -0.01256404 -0.00502984
v -0.00225128 -0.01255124 -0.00501750
v -0.00227531 -0.01256404 -0.00499899
v -0.00249658 -0.01256404 -0.00479742
v -0.00207110 -0.01079690 -0.00483136
v -0.00207237 -0.01079621 -0.00482930
v -0.00275831 -0.01079621 0.00410121
v -0.00276716 -0.01096149 0.00414954
v -0.00319137 -0.01256404 0.00395209
v -0.00280130 -0.01256404 -0.00450536
v -0.00296314 -0.01256404 -0.00434905
v -0.00253008 -0.01079621 -0.00437167
v -0.00278170 -0.01079621 0.00390273
v -0.00320022 -0.01256404 0.00390993
v -0.00320022 -0.01256404 -0.00390993
v -0.00276716 -0.01096149 -0.00414954
v -0.00253641 -0.01079621 -0.00436242
v -0.00280320 -0.01079621 0.00344921
v -0.00322867 -0.01256404 0.00344921
v -0.00321982 -0.01256404 0.00359318
v -0.00322867 -0.01256404 -0.00344921
v -0.00278170 -0.01079621 -0.00390273
v -0.00277917 -0.01079621 -0.00392021
v -0.00322930 -0.01256404 0.00298952
v -0.00280320 -0.01079621 -0.00344921
v -0.00322930 -0.01256404 -0.00298952
f 1 2 3
f 1 3 7
f 1 7 12
f 1 12 18
f 1 18 24
f 1 24 29
f 1 29 35
f 1 35 34
f 1 34 45
f 1 45 51
f 1 51 57
f 1 57 62
f 1 62 68
f 1 68 72
f 1 72 84
f 1 84 83
f 1 83 82
f 1 82 81
f 1 81 91
f 1 91 100
f 1 100 105
f 1 105 111
f 1 111 110
f 1 110 115
f 1 115 117
f 1 117 112
f 1 112 106
f 1 106 102
f 1 102 101
f 1 101 95
f 1 95 94
f 1 94 92
f 1 92 85
f 1 85 74
f 1 74 73
f 1 73 69
f 1 69 63
f 1 63 53
f 1 53 48
f 1 48 47
f 1 47 46
f 1 46 37
f 1 37 30
f 1 30 25
f 1 25 20
f 1 20 15
f 1 15 13
f 1 13 8
f 1 8 4
f 1 4 6
f 1 6 2
f 2 5 3
f 2 6 10
f 2 10 16
f 2 16 22
f 2 22 26
f 2 26 31
f 2 31 40
f 2 40 38
f 2 38 50
f 2 50 56
f 2 56 64
f 2 64 70
f 2 70 78
f 2 78 88
f 2 88 97
f 2 97 103
f 2 103 108
f 2 108 114
f 2 114 113
f 2 113 116
f 2 116 109
f 2 109 104
f 2 104 98
f 2 98 90
f 2 90 89
f 2 89 79
f 2 79 71
f 2 71 66
f 2 66 58
f 2 58 52
f 2 52 43
f 2 43 32
f 2 32 27
f 2 27 23
f 2 23 17
f 2 17 14
f 2 14 9
f 2 9 5
f 3 5 7
f 4 8 6
f 5 9 7
f 6 8 10
f 7 9 11
f 7 11 12
f 8 13 10
f 9 14 11
f 10 13 15
f 10 15 16
f 11 14 17
f 11 17 12
f 12 17 19
f 12 19 18
f 15 20 16
f 16 20 21
f 16 21 22
f 17 23 19
f 18 19 24
f 19 23 24
f 20 25 21
f 21 25 22
f 22 25 26
f 23 27 28
f 23 28 24
f 24 28 29
f 25 30 26
f 26 30 31
f 27 32 28
f 28 32 33
f 28 33 34
f 28 34 35
f 28 35 36
f 28 36 29
f 29 36 35
f 30 37 38
f 30 38 39
f 30 39 31
f 31 39 40
f 32 41 42
f 32 42 33
f 32 43 41
f 33 42 44
f 33 44 34
f 34 44 45
f 37 46 38
f 38 40 39
f 38 46 47
f 38 47 48
f 38 48 49
f 38 49 50
f 41 43 42
f 42 43 44
f 43 51 45
f 43 45 44
f 43 52 57
f 43 57 51
f 48 53 49
f 49 53 54
f 49 54 55
f 49 55 50
f 50 55 56
f 52 58 59
f 52 59 60
f 52 60 61
f 52 61 62
f 52 62 57
f 53 63 54
f 54 63 64
f 54 64 55
f 55 64 65
f 55 65 56
f 56 65 64
f 58 66 60
f 58 60 59
f 60 66 67
f 60 67 61
f 61 67 68
f 61 68 62
f 63 69 64
f 64 69 73
f 64 73 70
f 66 71 67
f 67 72 68
f 67 71 72
f 70 74 75
f 70 75 76
f 70 76 77
f 70 77 78
f 70 73 74
f 71 79 80
f 71 80 81
f 71 81 82
f 71 82 83
f 71 83 84
f 71 84 72
f 74 85 75
f 75 85 86
f 75 86 76
f 76 86 78
f 76 78 77
f 78 86 87
f 78 87 88
f 79 89 80
f 80 89 81
f 81 89 90
f 81 90 91
f 85 92 87
f 85 87 86
f 87 92 93
f 87 93 94
f 87 94 95
f 87 95 96
f 87 96 88
f 88 96 97
f 90 98 99
f 90 99 91
f 91 99 100
f 92 94 93
f 95 101 96
f 96 101 102
f 96 102 103
f 96 103 97
f 98 100 99
f 98 104 105
f 98 105 100
f 102 106 107
f 102 107 103
f 103 107 108
f 104 109 110
f 104 110 111
f 104 111 105
f 106 112 113
f 106 113 114
f 106 114 107
f 107 114 108
f 109 115 110
f 109 116 117
f 109 117 115
f 112 117 116
f 112 116 113

