# https://github.com/mikedh/trimesh
v 0.00291766 0.00851133 0.00298849
v 0.00276058 0.00992717 0.00344921
v 0.00291709 0.00851133 0.00344818
v 0.00291766 0.00851133 -0.00253086
v 0.00274002 0.00992717 0.00387805
v 0.00276058 0.00992717 -0.00344921
v 0.00288681 0.00851133 0.00390787
v 0.00291651 0.00851133 -0.00345127
v 0.00252639 0.00992717 0.00431408
v 0.00275944 0.00919818 0.00413720
v 0.00275944 0.00992717 -0.00355102
v 0.00280856 0.00851133 0.00419787
v 0.00288624 0.00851133 -0.00390993
v 0.00274002 0.00992717 -0.00387805
v 0.00250583 0.00992717 0.00435316
v 0.00258522 0.00851133 0.00442823
v 0.00280799 0.00851133 -0.00419890
v 0.00275944 0.00919818 -0.00413720
v 0.00250583 0.00992717 -0.00435316
v 0.00228306 0.00992717 0.00458249
v 0.00207172 0.00992717 0.00479434
v 0.00205287 0.00992717 0.00481285
v 0.00211970 0.00851133 0.00488381
v 0.00258465 0.00851133 -0.00442823
v 0.00228306 0.00992717 -0.00458249
v 0.00248812 0.00992717 -0.00437167
v 0.00181468 0.00992717 0.00504218
v 0.00189008 0.00851133 0.00510080
v 0.00235446 0.00851133 -0.00465448
v 0.00205287 0.00992717 -0.00481285
v 0.00160334 0.00992717 0.00514708
v 0.00158449 0.00992717 0.00515633
v 0.00160962 0.00851133 0.00519747
v 0.00211913 0.00851133 -0.00488381
v 0.00181468 0.00992717 -0.00504218
v 0.00114981 0.00992717 0.00525300
v 0.00114981 0.00851133 0.00525300
v 0.00188894 0.00851133 -0.00510183
v 0.00158449 0.00992717 -0.00515633
v -0.00114981 0.00992717 0.00525300
v -0.00114981 0.00851133 0.00525300
v 0.00160848 0.00851133 -0.00519850
v 0.00114981 0.00992717 -0.00525300
v -0.00158449 0.00992717 0.00515633
v -0.00160962 0.00851133 0.00519747
v 0.00114867 0.00851133 -0.00525300
v 0.00114981 0.00897006 -0.00525300
v -0.00114981 0.00992717 -0.00525300
v -0.00188951 0.00851133 0.00510080
v -0.00181468 0.00992717 0.00504218
v -0.00069114 0.00851133 -0.00525300
v -0.00161019 0.00851133 -0.00519747
v -0.00158449 0.00992717 -0.00515633
v -0.00114981 0.00897006 -0.00525300
v -0.00211970 0.00851133 0.00488381
v -0.00205287 0.00992717 0.00481285
v -0.00115096 0.00851133 -0.00525197
v -0.00189008 0.00851133 -0.00510080
v -0.00160334 0.00992717 -0.00514708
v -0.00258522 0.00851133 0.00442823
v -0.00228306 0.00992717 0.00458249
v -0.00211970 0.00851133 -0.00488381
v -0.00181468 0.00992717 -0.00504218
v -0.00248812 0.00992717 0.00437167
v -0.00280856 0.00851133 0.00419787
v -0.00258522 0.00851133 -0.00442823
v -0.00205287 0.00992717 -0.00481285
v -0.00250583 0.00992717 0.00435316
v -0.00275944 0.00919818 0.00413720
v -0.00288681 0.00851133 0.00390993
v -0.00280856 0.00851133 -0.00419788
v -0.00250583 0.00992717 -0.00435316
v -0.00228306 0.00992717 -0.00458249
v -0.00207172 0.00992717 -0.00479434
v -0.00274002 0.00992717 0.00387805
v -0.00291709 0.00851133 0.00344921
v -0.00288681 0.00851133 -0.00390993
v -0.00275944 0.00919818 -0.00413720
v -0.00252639 0.00992717 -0.00431408
v -0.00275944 0.00992717 0.00355102
v -0.00276058 0.00992717 0.00344921
v -0.00291766 0.00851133 0.00298952
v -0.00291709 0.00851133 -0.00344921
v -0.00274002 0.00992717 -0.00387805
v -0.00276058 0.00992717 -0.00344921
v -0.00291766 0.00851133 -0.00298952
f 1 2 3
f 1 3 7
f 1 7 12
f 1 12 16
f 1 16 23
f 1 23 28
f 1 28 33
f 1 33 37
f 1 37 41
f 1 41 45
f 1 45 49
f 1 49 55
f 1 55 60
f 1 60 65
f 1 65 70
f 1 70 76
f 1 76 82
f 1 82 86
f 1 86 83
f 1 83 77
f 1 77 71
f 1 71 66
f 1 66 62
f 1 62 58
f 1 58 52
f 1 52 57
f 1 57 51
f 1 51 46
f 1 46 42
f 1 42 38
f 1 38 34
f 1 34 29
f 1 29 24
f 1 24 17
f 1 17 13
f 1 13 8
f 1 8 4
f 1 4 6
f 1 6 2
f 2 5 3
f 2 6 11
f 2 11 14
f 2 14 19
f 2 19 26
f 2 26 25
f 2 25 30
f 2 30 35
f 2 35 39
f 2 39 43
f 2 43 48
f 2 48 53
f 2 53 59
f 2 59 63
f 2 63 67
f 2 67 74
f 2 74 73
f 2 73 72
f 2 72 79
f 2 79 84
f 2 84 85
f 2 85 81
f 2 81 80
f 2 80 75
f 2 75 68
f 2 68 64
f 2 64 61
f 2 61 56
f 2 56 50
f 2 50 44
f 2 44 40
f 2 40 36
f 2 36 32
f 2 32 31
f 2 31 27
f 2 27 22
f 2 22 21
f 2 21 20
f 2 20 15
f 2 15 9
f 2 9 5
f 3 5 7
f 4 8 6
f 5 9 10
f 5 10 7
f 6 8 11
f 7 10 12
f 8 13 14
f 8 14 11
f 9 15 10
f 10 15 12
f 12 15 16
f 13 17 18
f 13 18 14
f 14 18 19
f 15 20 16
f 16 20 21
f 16 21 22
f 16 22 23
f 17 24 25
f 17 25 26
f 17 26 19
f 17 19 18
f 22 27 23
f 23 27 28
f 24 29 30
f 24 30 25
f 27 31 28
f 28 31 32
f 28 32 33
f 29 34 30
f 30 34 35
f 32 36 33
f 33 36 37
f 34 38 35
f 35 38 39
f 36 40 41
f 36 41 37
f 38 42 39
f 39 42 43
f 40 44 45
f 40 45 41
f 42 46 47
f 42 47 43
f 43 47 46
f 43 46 51
f 43 51 54
f 43 54 48
f 44 49 45
f 44 50 49
f 48 52 53
f 48 54 52
f 49 50 55
f 50 56 55
f 51 57 54
f 52 58 53
f 52 54 57
f 53 58 59
f 55 56 60
f 56 61 60
f 58 62 63
f 58 63 59
f 60 61 64
f 60 64 65
f 62 66 67
f 62 67 63
f 64 68 65
f 65 68 69
f 65 69 70
f 66 71 72
f 66 72 73
f 66 73 74
f 66 74 67
f 68 75 69
f 69 75 70
f 70 75 76
f 71 77 78
f 71 78 72
f 72 78 79
f 75 80 76
f 76 80 81
f 76 81 82
f 77 83 84
f 77 84 78
f 78 84 79
f 81 85 86
f 81 86 82
f 83 86 85
f 83 85 84

