# https://github.com/mikedh/trimesh
v -0.01172852 -0.00297191 -0.00298952
v -0.01172852 -0.00297075 -0.00344921
v -0.00980372 -0.00276130 -0.00344921
v -0.00980372 -0.00276188 -0.00298952
v -0.01172852 -0.00297191 0.00298952
v -0.00980372 -0.00275373 -0.00375773
v -0.00980372 -0.00276071 -0.00364872
v -0.01172852 -0.00293817 -0.00390993
v -0.00980372 -0.00276188 0.00299261
v -0.00980372 -0.00276130 0.00344921
v -0.01172852 -0.00297075 0.00344921
v -0.00980372 -0.00274617 -0.00385748
v -0.01172852 -0.00283286 -0.00422358
v -0.00980372 -0.00274151 -0.00390376
v -0.00980372 -0.00275373 0.00375772
v -0.01172852 -0.00293817 0.00390993
v -0.01172852 -0.00261061 -0.00445394
v -0.00980372 -0.00250006 -0.00436139
v -0.00980372 -0.00255068 -0.00429146
v -0.00980372 -0.00274151 0.00390376
v -0.01172852 -0.00283286 0.00422358
v -0.00980372 -0.00231504 -0.00455267
v -0.01172852 -0.00238137 -0.00467710
v -0.00980372 -0.00206195 -0.00480565
v -0.00980372 -0.00250006 0.00436139
v -0.01095321 -0.00276828 0.00415057
v -0.01172852 -0.00261061 0.00445394
v -0.01172852 -0.00214341 -0.00490746
v -0.00980372 -0.00186414 -0.00499693
v -0.00980372 -0.00225279 0.00461540
v -0.00980372 -0.00206195 0.00480565
v -0.00980372 -0.00201017 0.00485707
v -0.01172852 -0.00238079 0.00467813
v -0.00980372 -0.00181585 -0.00504321
v -0.01172852 -0.00191417 -0.00511725
v -0.00980372 -0.00181585 0.00504321
v -0.01172852 -0.00214341 0.00490746
v -0.00980372 -0.00162908 -0.00513576
v -0.01172852 -0.00161046 -0.00521392
v -0.00980372 -0.00158603 -0.00515633
v -0.00980372 -0.00158603 0.00515633
v -0.01172852 -0.00191359 0.00511828
v -0.01172852 -0.00115141 -0.00525197
v -0.01126993 -0.00114967 -0.00525300
v -0.00980372 -0.00114967 -0.00525300
v -0.00980372 -0.00123345 -0.00523449
v -0.00980372 -0.00114967 0.00525300
v -0.01172852 -0.00160988 0.00521495
v -0.01172852 -0.00069120 -0.00525300
v -0.00980372 0.00114967 -0.00525300
v -0.01172852 -0.00114967 0.00525300
v -0.00980372 0.00114967 0.00525300
v -0.01172852 0.00114850 -0.00525300
v -0.01126993 0.00114967 -0.00525300
v -0.01172852 0.00160814 -0.00521495
v -0.00980372 0.00158603 -0.00515633
v -0.01172852 0.00114967 0.00525300
v -0.00980372 0.00123345 0.00523449
v -0.01172852 0.00160988 0.00521495
v -0.01172852 0.00191301 -0.00511828
v -0.00980372 0.00181585 -0.00504321
v -0.00980372 0.00158603 0.00515633
v -0.01172852 0.00191417 0.00511725
v -0.01172852 0.00214283 -0.00490849
v -0.00980372 0.00201017 -0.00485707
v -0.00980372 0.00162908 0.00513576
v -0.01172852 0.00214341 0.00490746
v -0.00980372 0.00181585 0.00504321
v -0.01172852 0.00261002 -0.00445497
v -0.00980372 0.00206195 -0.00480565
v -0.00980372 0.00186414 0.00499693
v -0.00980372 0.00206195 0.00480565
v -0.01172852 0.00238137 0.00467710
v -0.01172852 0.00283228 -0.00422461
v -0.00980372 0.00250006 -0.00436139
v -0.00980372 0.00225279 -0.00461540
v -0.00980372 0.00231504 0.00455267
v -0.01172852 0.00261061 0.00445394
v -0.01172852 0.00293759 -0.00390993
v -0.00980372 0.00274151 -0.00390376
v -0.01095321 0.00276828 -0.00415057
v -0.00980372 0.00250006 0.00436139
v -0.01172852 0.00283286 0.00422358
v -0.01172852 0.00297075 -0.00345127
v -0.00980372 0.00275373 -0.00375773
v -0.00980372 0.00255068 0.00429146
v -0.01172852 0.00293817 0.00390787
v -0.00980372 0.00274151 0.00390376
v -0.01172852 0.00297191 -0.00253086
v -0.00980372 0.00276188 -0.00299261
v -0.00980372 0.00276130 -0.00344921
v -0.01172852 0.00297075 0.00344818
v -0.00980372 0.00274617 0.00385748
v -0.00980372 0.00275373 0.00375772
v -0.01172852 0.00297191 0.00298849
v -0.00980372 0.00276188 0.00298952
v -0.00980372 0.00276071 0.00364872
v -0.00980372 0.00276130 0.00344921
f 1 2 3
f 1 3 4
f 1 4 9
f 1 9 5
f 1 5 11
f 1 11 16
f 1 16 21
f 1 21 27
f 1 27 33
f 1 33 37
f 1 37 42
f 1 42 48
f 1 48 51
f 1 51 57
f 1 57 59
f 1 59 63
f 1 63 67
f 1 67 73
f 1 73 78
f 1 78 83
f 1 83 87
f 1 87 92
f 1 92 95
f 1 95 89
f 1 89 84
f 1 84 79
f 1 79 74
f 1 74 69
f 1 69 64
f 1 64 60
f 1 60 55
f 1 55 53
f 1 53 49
f 1 49 43
f 1 43 39
f 1 39 35
f 1 35 28
f 1 28 23
f 1 23 17
f 1 17 13
f 1 13 8
f 1 8 2
f 2 6 7
f 2 7 3
f 2 8 6
f 3 7 6
f 3 6 12
f 3 12 14
f 3 14 19
f 3 19 18
f 3 18 22
f 3 22 24
f 3 24 29
f 3 29 34
f 3 34 38
f 3 38 40
f 3 40 46
f 3 46 45
f 3 45 50
f 3 50 56
f 3 56 61
f 3 61 65
f 3 65 70
f 3 70 76
f 3 76 75
f 3 75 80
f 3 80 85
f 3 85 91
f 3 91 90
f 3 90 96
f 3 96 98
f 3 98 97
f 3 97 94
f 3 94 93
f 3 93 88
f 3 88 86
f 3 86 82
f 3 82 77
f 3 77 72
f 3 72 71
f 3 71 68
f 3 68 66
f 3 66 62
f 3 62 58
f 3 58 52
f 3 52 47
f 3 47 41
f 3 41 36
f 3 36 32
f 3 32 31
f 3 31 30
f 3 30 25
f 3 25 20
f 3 20 15
f 3 15 10
f 3 10 9
f 3 9 4
f 5 9 10
f 5 10 11
f 6 8 12
f 8 13 14
f 8 14 12
f 10 15 11
f 11 15 16
f 13 17 18
f 13 18 19
f 13 19 14
f 15 20 16
f 16 20 21
f 17 22 18
f 17 23 24
f 17 24 22
f 20 25 26
f 20 26 21
f 21 25 27
f 21 26 25
f 23 28 24
f 24 28 29
f 25 30 27
f 27 30 31
f 27 31 32
f 27 32 33
f 28 34 29
f 28 35 34
f 32 36 37
f 32 37 33
f 34 35 38
f 35 39 40
f 35 40 38
f 36 41 42
f 36 42 37
f 39 43 44
f 39 44 45
f 39 45 46
f 39 46 40
f 41 47 48
f 41 48 42
f 43 49 44
f 44 49 53
f 44 53 54
f 44 54 50
f 44 50 45
f 47 51 48
f 47 52 57
f 47 57 51
f 50 54 55
f 50 55 56
f 52 58 59
f 52 59 57
f 53 55 54
f 55 60 56
f 56 60 61
f 58 62 59
f 59 62 63
f 60 64 61
f 61 64 65
f 62 66 63
f 63 66 68
f 63 68 67
f 64 69 65
f 65 69 70
f 67 71 72
f 67 72 73
f 67 68 71
f 69 74 75
f 69 75 76
f 69 76 70
f 72 77 78
f 72 78 73
f 74 79 80
f 74 80 81
f 74 81 75
f 75 81 80
f 77 82 78
f 78 82 83
f 79 84 85
f 79 85 80
f 82 86 83
f 83 86 88
f 83 88 87
f 84 89 90
f 84 90 91
f 84 91 85
f 87 88 93
f 87 93 94
f 87 94 92
f 89 95 96
f 89 96 90
f 92 94 97
f 92 97 98
f 92 98 95
f 95 98 96

