# https://github.com/mikedh/trimesh
v -0.01629624 0.01356805 0.00298952
v -0.01629692 0.01356805 0.00344921
v -0.01705483 0.01163838 0.00344921
v -0.01629624 0.01356805 -0.00298952
v -0.01633028 0.01356805 0.00390993
v -0.01708003 0.01163838 0.00390993
v -0.01705483 0.01163838 -0.00344921
v -0.01629692 0.01356805 -0.00344921
v -0.01646103 0.01356805 0.00423592
v -0.01653594 0.01328661 0.00416702
v -0.01702011 0.01195892 0.00414028
v -0.01725912 0.01163838 0.00429866
v -0.01707663 0.01163838 -0.00385954
v -0.01708003 0.01163838 -0.00390993
v -0.01632960 0.01356805 -0.00390684
v -0.01670958 0.01356805 0.00446526
v -0.01799048 0.01163838 0.00501647
v -0.01779641 0.01163838 0.00483239
v -0.01774874 0.01163838 0.00478714
v -0.01756488 0.01163838 0.00460717
v -0.01731837 0.01163838 0.00436139
v -0.01633028 0.01356805 -0.00390993
v -0.01725912 0.01163838 -0.00429866
v -0.01702011 0.01195892 -0.00414029
v -0.01722167 0.01356805 0.00492083
v -0.01803611 0.01163838 0.00505144
v -0.01723870 0.01356805 0.00493523
v -0.01743005 0.01356805 0.00509463
v -0.01653594 0.01328661 -0.00416702
v -0.01646103 0.01356805 -0.00423593
v -0.01751925 0.01163838 -0.00456090
v -0.01822065 0.01163838 0.00515530
v -0.01758599 0.01356805 0.00514913
v -0.01774874 0.01163838 -0.00478714
v -0.01799048 0.01163838 -0.00501647
v -0.01670958 0.01356805 -0.00446526
v -0.01763706 0.01356805 0.00516456
v -0.01829556 0.01163838 0.00517484
v -0.01748589 0.01334743 -0.00505658
v -0.01730203 0.01356805 -0.00498665
v -0.01723870 0.01356805 -0.00493523
v -0.01693975 0.01356805 -0.00466990
v -0.01822065 0.01163838 -0.00515530
v -0.01767111 0.01356805 0.00517279
v -0.01817026 0.01264987 0.00522318
v -0.01863059 0.01163838 0.00525197
v -0.01758599 0.01356805 -0.00514913
v -0.01863059 0.01163838 -0.00525197
v -0.01817026 0.01264987 -0.00522318
v -0.01767111 0.01356805 -0.00517279
v -0.01814642 0.01356805 0.00524889
v -0.01817026 0.01310981 0.00524889
v -0.01863059 0.01173018 0.00525300
v -0.01872184 0.01163838 0.00525300
v -0.01909025 0.01163838 -0.00525300
v -0.01863059 0.01173018 -0.00525300
v -0.01817026 0.01310981 -0.00524889
v -0.01814642 0.01356805 -0.00524889
v -0.01817026 0.01356805 0.00525197
v -0.01863059 0.01356805 0.00525300
v -0.02046989 0.01163838 0.00525300
v -0.02046989 0.01163838 -0.00525300
v -0.01863059 0.01356805 -0.00525300
v -0.01817026 0.01356805 -0.00525197
v -0.02046989 0.01356805 0.00525300
v -0.02092954 0.01163838 0.00524889
v -0.02046989 0.01356805 -0.00525300
v -0.02092954 0.01163838 -0.00524991
v -0.02092954 0.01356805 0.00524889
v -0.02102147 0.01163838 0.00524066
v -0.02092954 0.01356805 -0.00524991
v -0.02129794 0.01163838 -0.00521392
v -0.02138987 0.01356805 0.00520467
v -0.02138987 0.01163838 0.00520467
v -0.02138987 0.01356805 -0.00520467
v -0.02138987 0.01163838 -0.00520467
v -0.02175283 0.01356805 0.00511211
v -0.02175283 0.01163838 0.00511211
v -0.02168065 0.01163838 -0.00513062
v -0.02175283 0.01173018 -0.00511211
v -0.02175283 0.01356805 -0.00511108
v -0.02198299 0.01356805 0.00501647
v -0.02198299 0.01163838 0.00501647
v -0.02175283 0.01163838 -0.00511211
v -0.02193737 0.01163838 -0.00503601
v -0.02198299 0.01356805 -0.00501647
v -0.02230986 0.01356805 0.00480771
v -0.02204837 0.01163838 0.00497534
v -0.02198299 0.01163838 -0.00501647
v -0.02230986 0.01356805 -0.00480771
v -0.02235957 0.01163838 0.00477069
v -0.02230986 0.01163838 0.00480771
v -0.02256046 0.01356805 0.00462054
v -0.02230986 0.01163838 -0.00480771
v -0.02256114 0.01356805 -0.00462054
v -0.02256046 0.01163838 0.00462054
v -0.02276066 0.01356805 0.00436962
v -0.02256114 0.01163838 -0.00462054
v -0.02276134 0.01356805 -0.00436962
v -0.02276066 0.01163838 0.00436962
v -0.02296972 0.01356805 0.00407858
v -0.02280220 0.01163838 0.00431203
v -0.02276134 0.01163838 -0.00436962
v -0.02296972 0.01356805 -0.00407858
v -0.02307322 0.01356805 0.00384822
v -0.02299015 0.01163838 0.00403333
v -0.02296972 0.01163838 0.00407858
v -0.02296972 0.01163838 -0.00407858
v -0.02305211 0.01163838 -0.00389450
v -0.02307254 0.01356805 -0.00384822
v -0.02319375 0.01356805 0.00344921
v -0.02307322 0.01163838 0.00384822
v -0.02307254 0.01163838 -0.00384822
v -0.02319307 0.01356805 -0.00344921
v -0.02319375 0.01163838 0.00344921
v -0.02324687 0.01356805 0.00298952
v -0.02319307 0.01163838 -0.00344921
v -0.02324687 0.01356805 -0.00298952
v -0.02324687 0.01163838 0.00298952
v -0.02325300 0.01356805 0.00252983
v -0.02324687 0.01163838 -0.00298952
v -0.02325300 0.01356805 -0.00252983
v -0.02325300 0.01163838 0.00252983
v -0.02325300 0.01163838 -0.00252983
f 1 2 3
f 1 3 7
f 1 7 4
f 1 4 8
f 1 8 15
f 1 15 22
f 1 22 30
f 1 30 36
f 1 36 42
f 1 42 41
f 1 41 40
f 1 40 47
f 1 47 50
f 1 50 58
f 1 58 64
f 1 64 63
f 1 63 67
f 1 67 71
f 1 71 75
f 1 75 81
f 1 81 86
f 1 86 90
f 1 90 95
f 1 95 99
f 1 99 104
f 1 104 110
f 1 110 114
f 1 114 118
f 1 118 122
f 1 122 120
f 1 120 116
f 1 116 111
f 1 111 105
f 1 105 101
f 1 101 97
f 1 97 93
f 1 93 87
f 1 87 82
f 1 82 77
f 1 77 73
f 1 73 69
f 1 69 65
f 1 65 60
f 1 60 59
f 1 59 51
f 1 51 44
f 1 44 37
f 1 37 33
f 1 33 28
f 1 28 27
f 1 27 25
f 1 25 16
f 1 16 9
f 1 9 5
f 1 5 2
f 2 5 6
f 2 6 3
f 3 6 12
f 3 12 21
f 3 21 20
f 3 20 19
f 3 19 18
f 3 18 17
f 3 17 26
f 3 26 32
f 3 32 38
f 3 38 46
f 3 46 54
f 3 54 61
f 3 61 66
f 3 66 70
f 3 70 74
f 3 74 78
f 3 78 83
f 3 83 88
f 3 88 92
f 3 92 91
f 3 91 96
f 3 96 100
f 3 100 102
f 3 102 107
f 3 107 106
f 3 106 112
f 3 112 115
f 3 115 119
f 3 119 123
f 3 123 124
f 3 124 121
f 3 121 117
f 3 117 113
f 3 113 109
f 3 109 108
f 3 108 103
f 3 103 98
f 3 98 94
f 3 94 89
f 3 89 85
f 3 85 84
f 3 84 79
f 3 79 76
f 3 76 72
f 3 72 68
f 3 68 62
f 3 62 55
f 3 55 48
f 3 48 43
f 3 43 35
f 3 35 34
f 3 34 31
f 3 31 23
f 3 23 14
f 3 14 13
f 3 13 7
f 4 7 8
f 5 9 10
f 5 10 11
f 5 11 6
f 6 11 12
f 7 13 8
f 8 13 14
f 8 14 15
f 9 16 17
f 9 17 18
f 9 18 19
f 9 19 20
f 9 20 21
f 9 21 12
f 9 12 11
f 9 11 10
f 14 22 15
f 14 23 24
f 14 24 22
f 16 25 17
f 17 25 27
f 17 27 28
f 17 28 26
f 22 24 29
f 22 29 30
f 23 31 30
f 23 30 24
f 24 30 29
f 26 28 32
f 28 33 32
f 30 31 34
f 30 34 35
f 30 35 36
f 32 33 37
f 32 37 38
f 35 39 40
f 35 40 41
f 35 41 42
f 35 42 36
f 35 43 39
f 37 44 45
f 37 45 38
f 38 45 46
f 39 43 47
f 39 47 40
f 43 48 49
f 43 49 50
f 43 50 47
f 44 51 52
f 44 52 45
f 45 52 46
f 46 53 54
f 46 52 53
f 48 55 56
f 48 56 57
f 48 57 49
f 49 57 50
f 50 57 58
f 51 59 52
f 52 59 53
f 53 59 60
f 53 60 65
f 53 65 61
f 53 61 54
f 55 62 67
f 55 67 63
f 55 63 56
f 56 63 64
f 56 64 57
f 57 64 58
f 61 65 69
f 61 69 66
f 62 68 71
f 62 71 67
f 66 69 70
f 68 72 71
f 69 73 70
f 70 73 74
f 71 72 75
f 72 76 75
f 73 77 78
f 73 78 74
f 75 79 80
f 75 80 81
f 75 76 79
f 77 82 83
f 77 83 78
f 79 84 80
f 80 84 85
f 80 85 86
f 80 86 81
f 82 87 88
f 82 88 83
f 85 89 86
f 86 89 94
f 86 94 90
f 87 91 92
f 87 92 88
f 87 93 91
f 90 94 98
f 90 98 95
f 91 93 96
f 93 97 100
f 93 100 96
f 95 98 103
f 95 103 99
f 97 101 102
f 97 102 100
f 99 103 108
f 99 108 104
f 101 105 106
f 101 106 107
f 101 107 102
f 104 109 110
f 104 108 109
f 105 111 115
f 105 115 112
f 105 112 106
f 109 113 110
f 110 113 117
f 110 117 114
f 111 116 119
f 111 119 115
f 114 117 121
f 114 121 118
f 116 120 123
f 116 123 119
f 118 121 124
f 118 124 122
f 120 122 124
f 120 124 123

