# https://github.com/mikedh/trimesh
v -0.01101331 -0.02325300 -0.00252983
v -0.01101331 -0.02324704 -0.00298952
v -0.00910951 -0.02325300 -0.00252983
v -0.01101331 -0.02325300 0.00252983
v -0.01101331 -0.02319340 -0.00344921
v -0.00943007 -0.02324704 -0.00298952
v -0.00910951 -0.02324644 -0.00298952
v -0.00910951 -0.02325300 0.00252983
v -0.01101331 -0.02324704 0.00298952
v -0.00910951 -0.02319340 -0.00344921
v -0.01101331 -0.02307300 -0.00384822
v -0.00910951 -0.02315704 -0.00357056
v -0.00910951 -0.02324704 0.00298952
v -0.01101331 -0.02321724 0.00324662
v -0.00910951 -0.02307300 -0.00384822
v -0.01101331 -0.02296989 -0.00407858
v -0.00910951 -0.02319340 0.00344921
v -0.01101331 -0.02319340 0.00344921
v -0.00910951 -0.02296989 -0.00407858
v -0.01101331 -0.02276129 -0.00436962
v -0.00910951 -0.02290672 -0.00416702
v -0.00910951 -0.02310936 0.00372790
v -0.01101331 -0.02307300 0.00384822
v -0.00910951 -0.02276129 -0.00436962
v -0.01101331 -0.02256103 -0.00462054
v -0.00910951 -0.02307300 0.00384822
v -0.01101331 -0.02296989 0.00407858
v -0.00910951 -0.02256103 -0.00462054
v -0.01101331 -0.02230952 -0.00480771
v -0.00910951 -0.02296989 0.00407858
v -0.01101331 -0.02276129 0.00436962
v -0.00910951 -0.02230952 -0.00480771
v -0.01101331 -0.02216528 -0.00490026
v -0.00910951 -0.02276129 0.00436962
v -0.00910951 -0.02262183 0.00454444
v -0.01101331 -0.02264924 0.00450948
v -0.00910951 -0.02198290 -0.00501647
v -0.01101331 -0.02198290 -0.00501647
v -0.01101331 -0.02256103 0.00461951
v -0.00910951 -0.02256103 0.00461951
v -0.01101331 -0.02188158 -0.00505863
v -0.00910951 -0.02175284 -0.00511211
v -0.01101331 -0.02242097 0.00472441
v -0.00910951 -0.02230952 0.00480771
v -0.01101331 -0.02175284 -0.00511211
v -0.01101331 -0.02159252 -0.00515325
v -0.00910951 -0.02138987 -0.00520467
v -0.01034982 -0.02230952 0.00480771
v -0.01101331 -0.02230952 0.00480668
v -0.00910951 -0.02208184 0.00495374
v -0.01101331 -0.02138987 -0.00520467
v -0.00910951 -0.02125041 -0.00521906
v -0.01101331 -0.02198290 0.00501647
v -0.01101331 -0.02212714 0.00492392
v -0.00910951 -0.02198290 0.00501647
v -0.01101331 -0.02092976 -0.00524991
v -0.00910951 -0.02092976 -0.00524991
v -0.01101331 -0.02185476 0.00506995
v -0.00910951 -0.02182258 0.00508332
v -0.01101331 -0.02046964 -0.00525300
v -0.00910951 -0.02046964 -0.00525300
v -0.01101331 -0.02175284 0.00511211
v -0.00910951 -0.02175284 0.00511211
v -0.01101331 -0.01909047 -0.00525300
v -0.00910951 -0.01909047 -0.00525300
v -0.00910951 -0.02149954 0.00517690
v -0.01101331 -0.02138987 0.00520467
v -0.01101331 -0.01888723 -0.00525197
v -0.00910951 -0.01863035 -0.00524580
v -0.00910951 -0.02138987 0.00520467
v -0.00910951 -0.02106922 0.00523552
v -0.01101331 -0.02092976 0.00524889
v -0.01101331 -0.01863035 -0.00524786
v -0.01101331 -0.01846347 -0.00520467
v -0.00910951 -0.01827454 -0.00514913
v -0.00910951 -0.02092976 0.00524889
v -0.01101331 -0.02046964 0.00525300
v -0.01101331 -0.01826679 -0.00515119
v -0.01101331 -0.01816547 -0.00507509
v -0.00910951 -0.01804448 -0.00495785
v -0.00910951 -0.02046964 0.00525300
v -0.01101331 -0.01909047 0.00525300
v -0.01101331 -0.01803673 -0.00496608
v -0.01101331 -0.01793123 -0.00486427
v -0.00910951 -0.01781144 -0.00472749
v -0.00910951 -0.01909047 0.00525300
v -0.00910951 -0.01876982 0.00524991
v -0.01101331 -0.01863035 0.00524786
v -0.01101331 -0.01770058 -0.00463597
v -0.01101331 -0.01757184 -0.00450845
v -0.00910951 -0.01758138 -0.00449919
v -0.00910951 -0.01863035 0.00524580
v -0.00910951 -0.01837765 0.00517896
v -0.01101331 -0.01826679 0.00515119
v -0.01101331 -0.01747529 -0.00440664
v -0.00910951 -0.01736562 -0.00426883
v -0.00910951 -0.01827454 0.00514913
v -0.01101331 -0.01803673 0.00496608
v -0.01101331 -0.01735489 -0.00427809
v -0.01101331 -0.01727682 -0.00410738
v -0.00910951 -0.01721722 -0.00390993
v -0.00910951 -0.01811421 0.00501853
v -0.00910951 -0.01804448 0.00495785
v -0.01101331 -0.01780190 0.00473572
v -0.01101331 -0.01719755 -0.00390993
v -0.00910951 -0.01718384 -0.00344921
v -0.00910951 -0.01788117 0.00479742
v -0.01101331 -0.01757184 0.00450845
v -0.01101331 -0.01716477 -0.00344921
v -0.00910951 -0.01718324 -0.00331038
v -0.00910951 -0.01758138 0.00449919
v -0.01101331 -0.01735489 0.00427809
v -0.01101331 -0.01716417 -0.00298952
v -0.00910951 -0.01718324 0.00312835
v -0.00910951 -0.01743059 0.00433876
v -0.01101331 -0.01719755 0.00390993
v -0.00910951 -0.01736562 0.00426883
v -0.01101331 -0.01716417 0.00298952
v -0.01101331 -0.01716477 0.00344921
v -0.00910951 -0.01718384 0.00344921
v -0.00910951 -0.01721722 0.00390993
v -0.01101331 -0.01717907 0.00365283
v -0.00910951 -0.01725715 0.00401276
f 1 2 6
f 1 6 3
f 1 3 8
f 1 8 4
f 1 4 9
f 1 9 14
f 1 14 18
f 1 18 23
f 1 23 27
f 1 27 31
f 1 31 36
f 1 36 39
f 1 39 43
f 1 43 49
f 1 49 54
f 1 54 53
f 1 53 58
f 1 58 62
f 1 62 67
f 1 67 72
f 1 72 77
f 1 77 82
f 1 82 88
f 1 88 94
f 1 94 98
f 1 98 104
f 1 104 108
f 1 108 112
f 1 112 116
f 1 116 122
f 1 122 119
f 1 119 118
f 1 118 113
f 1 113 109
f 1 109 105
f 1 105 100
f 1 100 99
f 1 99 95
f 1 95 90
f 1 90 89
f 1 89 84
f 1 84 83
f 1 83 79
f 1 79 78
f 1 78 74
f 1 74 73
f 1 73 68
f 1 68 64
f 1 64 60
f 1 60 56
f 1 56 51
f 1 51 46
f 1 46 45
f 1 45 41
f 1 41 38
f 1 38 33
f 1 33 29
f 1 29 25
f 1 25 20
f 1 20 16
f 1 16 11
f 1 11 5
f 1 5 2
f 2 5 10
f 2 10 6
f 3 6 7
f 3 7 10
f 3 10 12
f 3 12 15
f 3 15 19
f 3 19 21
f 3 21 24
f 3 24 28
f 3 28 32
f 3 32 37
f 3 37 42
f 3 42 47
f 3 47 52
f 3 52 57
f 3 57 61
f 3 61 65
f 3 65 69
f 3 69 75
f 3 75 80
f 3 80 85
f 3 85 91
f 3 91 96
f 3 96 101
f 3 101 106
f 3 106 110
f 3 110 114
f 3 114 120
f 3 120 121
f 3 121 123
f 3 123 117
f 3 117 115
f 3 115 111
f 3 111 107
f 3 107 103
f 3 103 102
f 3 102 97
f 3 97 93
f 3 93 92
f 3 92 87
f 3 87 86
f 3 86 81
f 3 81 76
f 3 76 71
f 3 71 70
f 3 70 66
f 3 66 63
f 3 63 59
f 3 59 55
f 3 55 50
f 3 50 44
f 3 44 40
f 3 40 35
f 3 35 34
f 3 34 30
f 3 30 26
f 3 26 22
f 3 22 17
f 3 17 13
f 3 13 8
f 4 8 13
f 4 13 9
f 5 11 12
f 5 12 10
f 6 10 7
f 9 13 14
f 11 15 12
f 11 16 19
f 11 19 15
f 13 17 14
f 14 17 18
f 16 20 21
f 16 21 19
f 17 22 18
f 18 22 23
f 20 24 21
f 20 25 28
f 20 28 24
f 22 26 23
f 23 26 30
f 23 30 27
f 25 29 32
f 25 32 28
f 27 30 34
f 27 34 31
f 29 33 32
f 31 34 35
f 31 35 36
f 32 33 37
f 33 38 37
f 35 39 36
f 35 40 39
f 37 38 41
f 37 41 42
f 39 40 43
f 40 44 43
f 41 45 42
f 42 45 46
f 42 46 47
f 43 44 48
f 43 48 49
f 44 50 48
f 46 51 47
f 47 51 52
f 48 50 53
f 48 53 54
f 48 54 49
f 50 55 53
f 51 56 52
f 52 56 57
f 53 55 58
f 55 59 58
f 56 60 61
f 56 61 57
f 58 59 62
f 59 63 62
f 60 64 65
f 60 65 61
f 62 63 66
f 62 66 67
f 64 68 65
f 65 68 69
f 66 70 67
f 67 70 71
f 67 71 72
f 68 73 69
f 69 73 74
f 69 74 75
f 71 76 72
f 72 76 81
f 72 81 77
f 74 78 75
f 75 78 79
f 75 79 80
f 77 81 86
f 77 86 82
f 79 83 80
f 80 83 84
f 80 84 85
f 82 86 87
f 82 87 88
f 84 89 85
f 85 89 90
f 85 90 91
f 87 92 88
f 88 92 93
f 88 93 94
f 90 95 91
f 91 95 96
f 93 97 94
f 94 97 98
f 95 99 96
f 96 99 100
f 96 100 101
f 97 102 98
f 98 102 103
f 98 103 104
f 100 105 101
f 101 105 106
f 103 107 104
f 104 107 108
f 105 109 106
f 106 109 110
f 107 111 108
f 108 111 112
f 109 113 110
f 110 113 118
f 110 118 114
f 111 115 112
f 112 115 117
f 112 117 116
f 114 118 119
f 114 119 120
f 116 121 120
f 116 120 122
f 116 117 123
f 116 123 121
f 119 122 120

