# https://github.com/mikedh/trimesh
v -0.01632998 0.00344976 0.00525300
v -0.01632998 0.00390948 0.00525094
v -0.01633141 0.00344849 0.00525300
v -0.01566689 0.00298878 0.00525300
v -0.01587005 0.00344976 0.00525197
v -0.01633141 0.00439848 0.00517896
v -0.01633141 0.00390820 0.00525094
v -0.01633141 -0.00345104 0.00525300
v -0.01566689 0.00346504 0.00522009
v -0.01566689 -0.00298878 0.00525300
v -0.01629836 0.00439975 0.00517381
v -0.01633141 0.00448889 0.00516044
v -0.01633141 -0.00391075 0.00525094
v -0.01587005 -0.00344976 0.00525197
v -0.01566689 0.00386873 0.00514708
v -0.01584247 0.00393749 0.00517279
v -0.01566689 -0.00324601 0.00525197
v -0.01597739 0.00426731 0.00512137
v -0.01633141 0.00482890 0.00502778
v -0.01632998 -0.00390948 0.00525094
v -0.01633141 -0.00442904 0.00517587
v -0.01566689 -0.00346504 0.00522009
v -0.01566689 0.00410686 0.00503704
v -0.01567072 0.00410941 0.00503807
v -0.01633141 0.00616475 0.00426061
v -0.01633141 -0.00448889 0.00516044
v -0.01566689 -0.00376940 0.00517381
v -0.01566689 0.00411323 0.00503292
v -0.01609266 0.00599156 0.00414748
v -0.01633141 0.00644873 0.00390376
v -0.01566689 0.00437683 0.00485090
v -0.01566689 0.00521221 0.00427295
v -0.01597739 -0.00426731 0.00512137
v -0.01566689 -0.00386873 0.00514708
v -0.01633141 -0.00473212 0.00508537
v -0.01566689 0.00544907 0.00390993
v -0.01633141 0.00650221 0.00344921
v -0.01566689 -0.00410304 0.00504012
v -0.01633141 -0.00490404 0.00499282
v -0.01566689 0.00545289 0.00387599
v -0.01633141 0.00650476 0.00298952
v -0.01566689 0.00549237 0.00344921
v -0.01566689 -0.00422784 0.00496197
v -0.01633141 -0.00616475 0.00426061
v -0.01633141 0.00650476 -0.00298952
v -0.01566689 0.00549364 0.00298952
v -0.01566689 -0.00507723 0.00437167
v -0.01633141 -0.00637487 0.00402408
v -0.01609266 -0.00599156 0.00414748
v -0.01633141 0.00650348 -0.00325793
v -0.01566689 0.00549364 -0.00299672
v -0.01566689 0.00549237 -0.00345538
v -0.01566689 -0.00521221 0.00427295
v -0.01633141 -0.00644873 0.00390376
v -0.01566689 -0.00544907 0.00390993
v -0.01566689 -0.00543252 0.00394489
v -0.01633141 0.00650221 -0.00344921
v -0.01566689 0.00544907 -0.00390993
v -0.01633141 -0.00647802 0.00366517
v -0.01633141 -0.00650221 0.00344921
v -0.01566689 -0.00549237 0.00345538
v -0.01633141 0.00647802 -0.00366517
v -0.01609266 0.00599156 -0.00414748
v -0.01633141 0.00644873 -0.00390376
v -0.01566689 0.00543252 -0.00394489
v -0.01633141 -0.00650348 0.00325793
v -0.01566689 -0.00549364 0.00299672
v -0.01633141 -0.00650476 0.00298952
v -0.01633141 0.00616475 -0.00426061
v -0.01633141 0.00637487 -0.00402408
v -0.01566689 0.00521221 -0.00427295
v -0.01566689 0.00507723 -0.00437167
v -0.01566689 -0.00549364 -0.00298952
v -0.01633141 -0.00650476 -0.00298952
v -0.01566689 0.00422784 -0.00496197
v -0.01566689 0.00410304 -0.00504012
v -0.01633141 0.00490404 -0.00499282
v -0.01566689 -0.00549237 -0.00344921
v -0.01633141 -0.00650221 -0.00344921
v -0.01566689 0.00386873 -0.00514708
v -0.01597739 0.00426731 -0.00512137
v -0.01633141 0.00473212 -0.00508537
v -0.01566689 -0.00545289 -0.00387599
v -0.01633141 -0.00644873 -0.00390376
v -0.01566689 -0.00544907 -0.00390993
v -0.01566689 0.00376940 -0.00517381
v -0.01633141 0.00448889 -0.00516045
v -0.01633141 -0.00616475 -0.00426061
v -0.01609266 -0.00599156 -0.00414748
v -0.01566689 -0.00521221 -0.00427295
v -0.01566689 0.00346504 -0.00522009
v -0.01633141 0.00442904 -0.00517587
v -0.01633141 -0.00482890 -0.00502778
v -0.01567072 -0.00410941 -0.00503807
v -0.01566689 -0.00410686 -0.00503704
v -0.01566689 -0.00411323 -0.00503293
v -0.01566689 -0.00437683 -0.00485090
v -0.01566689 0.00324601 -0.00525197
v -0.01587005 0.00344976 -0.00525197
v -0.01632998 0.00390948 -0.00525094
v -0.01633141 0.00390948 -0.00525094
v -0.01633141 -0.00448889 -0.00516045
v -0.01597739 -0.00426731 -0.00512137
v -0.01566689 -0.00386873 -0.00514708
v -0.01566689 0.00298878 -0.00525300
v -0.01632998 0.00344976 -0.00525300
v -0.01633141 0.00344976 -0.00525300
v -0.01633141 -0.00439848 -0.00517896
v -0.01629836 -0.00439975 -0.00517381
v -0.01566689 -0.00346504 -0.00522009
v -0.01584247 -0.00393749 -0.00517279
v -0.01566689 -0.00298878 -0.00525300
v -0.01633141 -0.00344976 -0.00525300
v -0.01632998 -0.00390948 -0.00525094
v -0.01587005 -0.00344976 -0.00525197
v -0.01633141 -0.00390948 -0.00525094
v -0.01632998 -0.00344976 -0.00525300
f 1 2 7
f 1 7 3
f 1 3 8
f 1 8 10
f 1 10 4
f 1 4 5
f 1 5 2
f 2 6 7
f 2 5 6
f 3 7 6
f 3 6 12
f 3 12 19
f 3 19 25
f 3 25 30
f 3 30 37
f 3 37 41
f 3 41 45
f 3 45 50
f 3 50 57
f 3 57 62
f 3 62 64
f 3 64 70
f 3 70 69
f 3 69 77
f 3 77 82
f 3 82 87
f 3 87 92
f 3 92 101
f 3 101 107
f 3 107 113
f 3 113 116
f 3 116 108
f 3 108 102
f 3 102 93
f 3 93 88
f 3 88 84
f 3 84 79
f 3 79 74
f 3 74 68
f 3 68 66
f 3 66 60
f 3 60 59
f 3 59 54
f 3 54 48
f 3 48 44
f 3 44 39
f 3 39 35
f 3 35 26
f 3 26 21
f 3 21 13
f 3 13 8
f 4 9 5
f 4 10 17
f 4 17 22
f 4 22 27
f 4 27 34
f 4 34 38
f 4 38 43
f 4 43 47
f 4 47 53
f 4 53 56
f 4 56 55
f 4 55 61
f 4 61 67
f 4 67 73
f 4 73 78
f 4 78 83
f 4 83 85
f 4 85 90
f 4 90 97
f 4 97 96
f 4 96 95
f 4 95 104
f 4 104 110
f 4 110 112
f 4 112 105
f 4 105 98
f 4 98 91
f 4 91 86
f 4 86 80
f 4 80 76
f 4 76 75
f 4 75 72
f 4 72 71
f 4 71 65
f 4 65 58
f 4 58 52
f 4 52 51
f 4 51 46
f 4 46 42
f 4 42 40
f 4 40 36
f 4 36 32
f 4 32 31
f 4 31 28
f 4 28 23
f 4 23 15
f 4 15 9
f 5 9 6
f 6 11 12
f 6 9 11
f 8 13 14
f 8 14 10
f 9 15 16
f 9 16 11
f 10 14 17
f 11 16 15
f 11 15 12
f 12 15 18
f 12 18 19
f 13 20 14
f 13 21 20
f 14 20 21
f 14 21 22
f 14 22 17
f 15 23 24
f 15 24 18
f 18 24 19
f 19 24 25
f 21 26 27
f 21 27 22
f 23 28 25
f 23 25 24
f 25 29 30
f 25 28 31
f 25 31 32
f 25 32 29
f 26 33 34
f 26 34 27
f 26 35 33
f 29 36 30
f 29 32 36
f 30 36 37
f 33 38 34
f 33 35 38
f 35 39 38
f 36 40 37
f 37 40 42
f 37 42 41
f 38 39 44
f 38 44 43
f 41 42 46
f 41 46 51
f 41 51 45
f 43 44 47
f 44 48 49
f 44 49 47
f 45 51 52
f 45 52 50
f 47 49 53
f 48 54 49
f 49 54 55
f 49 55 56
f 49 56 53
f 50 52 57
f 52 58 57
f 54 59 55
f 55 59 60
f 55 60 61
f 57 58 62
f 58 63 64
f 58 64 62
f 58 65 63
f 60 66 61
f 61 66 68
f 61 68 67
f 63 69 70
f 63 70 64
f 63 65 71
f 63 71 72
f 63 72 69
f 67 68 74
f 67 74 73
f 69 72 75
f 69 75 76
f 69 76 77
f 73 74 78
f 74 79 78
f 76 80 81
f 76 81 82
f 76 82 77
f 78 79 83
f 79 84 85
f 79 85 83
f 80 86 87
f 80 87 81
f 81 87 82
f 84 88 89
f 84 89 85
f 85 89 90
f 86 91 92
f 86 92 87
f 88 93 94
f 88 94 95
f 88 95 96
f 88 96 97
f 88 97 90
f 88 90 89
f 91 98 99
f 91 99 92
f 92 99 100
f 92 100 101
f 93 102 103
f 93 103 94
f 94 103 104
f 94 104 95
f 98 105 99
f 99 105 106
f 99 106 100
f 100 106 107
f 100 107 101
f 102 108 109
f 102 109 104
f 102 104 103
f 104 109 111
f 104 111 110
f 105 112 117
f 105 117 113
f 105 113 107
f 105 107 106
f 108 114 115
f 108 115 110
f 108 110 109
f 108 116 114
f 109 110 111
f 110 115 112
f 112 115 117
f 113 117 114
f 113 114 116
f 114 117 115

