# https://github.com/mikedh/trimesh
v -0.00643336 -0.00369840 -0.00298952
v -0.00804881 -0.00302722 -0.00344921
v -0.00643336 -0.00369768 -0.00344921
v -0.00643336 -0.00369840 0.00298952
v -0.00804881 -0.00299319 -0.00390993
v -0.00643336 -0.00369334 -0.00370631
v -0.00804881 -0.00302722 0.00344921
v -0.00643336 -0.00369768 0.00344921
v -0.00804881 -0.00285996 -0.00425032
v -0.00643336 -0.00365713 -0.00401791
v -0.00643336 -0.00367668 -0.00388936
v -0.00643336 -0.00369116 -0.00373510
v -0.00643336 -0.00369116 0.00373510
v -0.00804881 -0.00299319 0.00390993
v -0.00804881 -0.00263768 -0.00448068
v -0.00643336 -0.00342399 -0.00434185
v -0.00643336 -0.00364410 -0.00404670
v -0.00643336 -0.00365713 0.00401791
v -0.00804881 -0.00285996 0.00425135
v -0.00804881 -0.00240816 -0.00470384
v -0.00804881 -0.00217068 -0.00493420
v -0.00643336 -0.00331683 -0.00444366
v -0.00643336 -0.00342399 0.00434185
v -0.00804881 -0.00263768 0.00448068
v -0.00643336 -0.00281869 -0.00488689
v -0.00804881 -0.00194116 -0.00513371
v -0.00643336 -0.00305328 0.00467607
v -0.00804881 -0.00217068 0.00493420
v -0.00804881 -0.00240816 0.00470384
v -0.00643336 -0.00268909 -0.00499693
v -0.00804881 -0.00161027 -0.00523038
v -0.00643336 -0.00247477 -0.00513988
v -0.00643336 -0.00262682 -0.00504629
v -0.00643336 -0.00294250 0.00477583
v -0.00643336 -0.00268909 0.00499693
v -0.00804881 -0.00194043 0.00513473
v -0.00667010 -0.00206931 -0.00522523
v -0.00643336 -0.00230897 -0.00518821
v -0.00804881 -0.00115050 -0.00525197
v -0.00758987 -0.00160954 -0.00524991
v -0.00643336 -0.00206931 -0.00523963
v -0.00643336 -0.00247477 0.00513988
v -0.00804881 -0.00160954 0.00523140
v -0.00804881 -0.00069074 -0.00525300
v -0.00758987 -0.00114978 -0.00525300
v -0.00713014 -0.00160954 -0.00525300
v -0.00643336 -0.00184631 -0.00525197
v -0.00643336 -0.00206931 0.00523963
v -0.00667010 -0.00206931 0.00522523
v -0.00758987 -0.00160954 0.00524991
v -0.00804881 -0.00114978 0.00525300
v -0.00804881 0.00114833 -0.00525300
v -0.00643336 -0.00160954 -0.00525300
v -0.00643336 -0.00160954 0.00525300
v -0.00713014 -0.00160954 0.00525300
v -0.00804881 0.00114978 0.00525300
v -0.00804881 0.00160882 -0.00523140
v -0.00758987 0.00160954 -0.00524991
v -0.00713014 0.00160954 -0.00525300
v -0.00643336 0.00160954 -0.00525300
v -0.00643336 0.00160954 0.00525300
v -0.00713014 0.00160954 0.00525300
v -0.00758987 0.00160954 0.00524991
v -0.00804881 0.00160954 0.00523140
v -0.00643336 0.00206931 -0.00523963
v -0.00804881 0.00193971 -0.00513474
v -0.00643336 0.00247477 -0.00513988
v -0.00667010 0.00206931 -0.00522523
v -0.00643336 0.00184631 0.00525197
v -0.00643336 0.00206931 0.00523963
v -0.00667010 0.00206931 0.00522523
v -0.00643336 0.00230897 0.00518821
v -0.00643336 0.00247477 0.00513988
v -0.00804881 0.00194116 0.00513371
v -0.00804881 0.00216995 -0.00493420
v -0.00643336 0.00268909 -0.00499693
v -0.00643336 0.00262682 0.00504629
v -0.00643336 0.00268909 0.00499693
v -0.00643336 0.00281869 0.00488689
v -0.00804881 0.00217068 0.00493420
v -0.00804881 0.00240744 -0.00470487
v -0.00643336 0.00342399 -0.00434185
v -0.00643336 0.00305328 -0.00467608
v -0.00643336 0.00294250 -0.00477583
v -0.00643336 0.00331683 0.00444366
v -0.00643336 0.00342399 0.00434185
v -0.00804881 0.00240816 0.00470384
v -0.00804881 0.00263768 -0.00448171
v -0.00804881 0.00285924 -0.00425135
v -0.00643336 0.00365713 -0.00401791
v -0.00643336 0.00364410 0.00404670
v -0.00804881 0.00285996 0.00425032
v -0.00804881 0.00263768 0.00448068
v -0.00804881 0.00299319 -0.00390993
v -0.00643336 0.00369116 -0.00373510
v -0.00643336 0.00365713 0.00401791
v -0.00804881 0.00299391 0.00390787
v -0.00804881 0.00302722 -0.00345024
v -0.00643336 0.00369768 -0.00344921
v -0.00643336 0.00367668 0.00388936
v -0.00643336 0.00369116 0.00373510
v -0.00643336 0.00369334 0.00370631
v -0.00804881 0.00302722 0.00344818
v -0.00643336 0.00369840 -0.00298952
v -0.00643336 0.00369768 0.00344921
v -0.00643336 0.00369840 0.00298952
f 1 2 3
f 1 3 6
f 1 6 12
f 1 12 11
f 1 11 10
f 1 10 17
f 1 17 16
f 1 16 22
f 1 22 25
f 1 25 30
f 1 30 33
f 1 33 32
f 1 32 38
f 1 38 41
f 1 41 47
f 1 47 53
f 1 53 60
f 1 60 65
f 1 65 67
f 1 67 76
f 1 76 84
f 1 84 83
f 1 83 82
f 1 82 90
f 1 90 95
f 1 95 99
f 1 99 104
f 1 104 106
f 1 106 105
f 1 105 102
f 1 102 101
f 1 101 100
f 1 100 96
f 1 96 91
f 1 91 86
f 1 86 85
f 1 85 79
f 1 79 78
f 1 78 77
f 1 77 73
f 1 73 72
f 1 72 70
f 1 70 69
f 1 69 61
f 1 61 54
f 1 54 48
f 1 48 42
f 1 42 35
f 1 35 34
f 1 34 27
f 1 27 23
f 1 23 18
f 1 18 13
f 1 13 8
f 1 8 4
f 1 4 7
f 1 7 2
f 2 5 6
f 2 6 3
f 2 7 14
f 2 14 19
f 2 19 24
f 2 24 29
f 2 29 28
f 2 28 36
f 2 36 43
f 2 43 51
f 2 51 56
f 2 56 64
f 2 64 74
f 2 74 80
f 2 80 87
f 2 87 93
f 2 93 92
f 2 92 97
f 2 97 103
f 2 103 98
f 2 98 94
f 2 94 89
f 2 89 88
f 2 88 81
f 2 81 75
f 2 75 66
f 2 66 57
f 2 57 52
f 2 52 44
f 2 44 39
f 2 39 31
f 2 31 26
f 2 26 21
f 2 21 20
f 2 20 15
f 2 15 9
f 2 9 5
f 4 8 7
f 5 9 10
f 5 10 11
f 5 11 12
f 5 12 6
f 7 8 13
f 7 13 14
f 9 15 16
f 9 16 17
f 9 17 10
f 13 18 14
f 14 18 19
f 15 20 16
f 16 20 21
f 16 21 22
f 18 23 19
f 19 23 24
f 21 25 22
f 21 26 25
f 23 27 28
f 23 28 29
f 23 29 24
f 25 26 30
f 26 31 32
f 26 32 33
f 26 33 30
f 27 34 28
f 28 34 35
f 28 35 36
f 31 37 38
f 31 38 32
f 31 39 40
f 31 40 41
f 31 41 37
f 35 42 36
f 36 42 43
f 37 41 38
f 39 44 45
f 39 45 46
f 39 46 40
f 40 46 47
f 40 47 41
f 42 48 49
f 42 49 43
f 43 48 50
f 43 50 51
f 43 49 48
f 44 52 59
f 44 59 60
f 44 60 53
f 44 53 46
f 44 46 45
f 46 53 47
f 48 54 55
f 48 55 50
f 50 55 51
f 51 55 54
f 51 54 61
f 51 61 62
f 51 62 56
f 52 57 58
f 52 58 59
f 56 62 63
f 56 63 64
f 57 65 58
f 57 66 67
f 57 67 68
f 57 68 65
f 58 65 59
f 59 65 60
f 61 69 62
f 62 69 63
f 63 69 70
f 63 70 64
f 64 70 71
f 64 71 72
f 64 72 73
f 64 73 74
f 65 68 67
f 66 75 76
f 66 76 67
f 70 72 71
f 73 77 74
f 74 77 78
f 74 78 79
f 74 79 80
f 75 81 82
f 75 82 83
f 75 83 84
f 75 84 76
f 79 85 80
f 80 85 86
f 80 86 87
f 81 88 82
f 82 88 89
f 82 89 90
f 86 91 92
f 86 92 93
f 86 93 87
f 89 94 90
f 90 94 95
f 91 96 92
f 92 96 97
f 94 98 95
f 95 98 99
f 96 100 97
f 97 100 101
f 97 101 102
f 97 102 103
f 98 104 99
f 98 103 106
f 98 106 104
f 102 105 103
f 103 105 106

