# https://github.com/mikedh/trimesh
v 0.00301479 -0.00811441 0.00298952
v 0.00301361 -0.00811441 0.00344921
v 0.00282829 -0.00903284 0.00344921
v 0.00301479 -0.00811441 -0.00298952
v 0.00300948 -0.00811441 0.00351400
v 0.00279996 -0.00903284 0.00394798
v 0.00282652 -0.00903284 0.00349857
v 0.00282829 -0.00903284 -0.00344921
v 0.00301420 -0.00811441 -0.00338545
v 0.00297997 -0.00811441 0.00390993
v 0.00279878 -0.00903284 0.00395826
v 0.00279996 -0.00903284 -0.00394798
v 0.00301361 -0.00811441 -0.00344921
v 0.00296935 -0.00811441 0.00395003
v 0.00276986 -0.00903284 0.00415160
v 0.00279701 -0.00903284 0.00397266
v 0.00297997 -0.00811441 -0.00390993
v 0.00279701 -0.00903284 -0.00397266
v 0.00285367 -0.00811441 0.00424312
v 0.00282238 -0.00811441 0.00427603
v 0.00262998 -0.00811441 0.00447348
v 0.00260637 -0.00903284 0.00431820
v 0.00277812 -0.00889141 -0.00416291
v 0.00285367 -0.00811441 -0.00424312
v 0.00260637 -0.00903284 -0.00431820
v 0.00256387 -0.00903284 0.00436139
v 0.00259810 -0.00811441 0.00450536
v 0.00227762 -0.00903284 0.00464934
v 0.00266126 -0.00811441 -0.00444160
v 0.00234077 -0.00903284 -0.00458661
v 0.00262998 -0.00811441 -0.00447348
v 0.00236733 -0.00811441 0.00472852
v 0.00185090 -0.00903284 0.00506995
v 0.00208167 -0.00903284 0.00484370
v 0.00208167 -0.00903284 -0.00484370
v 0.00188808 -0.00903284 -0.00503395
v 0.00185090 -0.00903284 -0.00506995
v 0.00243226 -0.00811441 -0.00466476
v 0.00213007 -0.00811441 0.00495682
v 0.00182375 -0.00903284 0.00508229
v 0.00193235 -0.00811441 0.00512856
v 0.00216194 -0.00811441 -0.00492597
v 0.00219499 -0.00811441 -0.00489409
v 0.00161541 -0.00903284 -0.00516456
v 0.00193235 -0.00811441 -0.00512857
v 0.00161541 -0.00903284 0.00516456
v 0.00189280 -0.00811441 0.00514296
v 0.00114973 -0.00903284 -0.00525300
v 0.00160950 -0.00811441 -0.00522523
v 0.00160950 -0.00811441 0.00522523
v 0.00154694 -0.00903284 0.00518101
v 0.00114973 -0.00811441 -0.00525300
v -0.00114973 -0.00903284 -0.00525300
v 0.00154517 -0.00811441 0.00523346
v 0.00114973 -0.00903284 0.00525300
v -0.00114973 -0.00811441 -0.00525300
v -0.00154694 -0.00903284 -0.00518101
v -0.00160950 -0.00811441 -0.00522523
v -0.00154517 -0.00811441 -0.00523346
v 0.00114973 -0.00811441 0.00525300
v -0.00114973 -0.00903284 0.00525300
v -0.00161541 -0.00903284 -0.00516456
v -0.00189280 -0.00811441 -0.00514296
v -0.00114973 -0.00811441 0.00525300
v -0.00160950 -0.00811441 0.00522523
v -0.00161541 -0.00903284 0.00516456
v -0.00182375 -0.00903284 -0.00508229
v -0.00193235 -0.00811441 -0.00512857
v -0.00193235 -0.00811441 0.00512856
v -0.00185090 -0.00903284 0.00506995
v -0.00185090 -0.00903284 -0.00506995
v -0.00213007 -0.00811441 -0.00495682
v -0.00216194 -0.00811441 0.00492597
v -0.00219499 -0.00811441 0.00489409
v -0.00243226 -0.00811441 0.00466476
v -0.00262998 -0.00811441 0.00447348
v -0.00188808 -0.00903284 0.00503395
v -0.00208167 -0.00903284 -0.00484370
v -0.00259810 -0.00811441 -0.00450536
v -0.00236733 -0.00811441 -0.00472852
v -0.00266126 -0.00811441 0.00444160
v -0.00260637 -0.00903284 0.00431820
v -0.00234077 -0.00903284 0.00458660
v -0.00208167 -0.00903284 0.00484370
v -0.00227762 -0.00903284 -0.00464934
v -0.00262998 -0.00811441 -0.00447348
v -0.00285367 -0.00811441 0.00424312
v -0.00277812 -0.00889141 0.00416291
v -0.00279701 -0.00903284 0.00397266
v -0.00256387 -0.00903284 -0.00436139
v -0.00282238 -0.00811441 -0.00427603
v -0.00260637 -0.00903284 -0.00431820
v -0.00276986 -0.00903284 -0.00415160
v -0.00297997 -0.00811441 0.00390993
v -0.00279996 -0.00903284 0.00394798
v -0.00285367 -0.00811441 -0.00424312
v -0.00279701 -0.00903284 -0.00397266
v -0.00297997 -0.00811441 -0.00390993
v -0.00296935 -0.00811441 -0.00395003
v -0.00301361 -0.00811441 0.00344921
v -0.00282829 -0.00903284 0.00344921
v -0.00279878 -0.00903284 -0.00395826
v -0.00300948 -0.00811441 -0.00351400
v -0.00279996 -0.00903284 -0.00394798
v -0.00301420 -0.00811441 0.00338545
v -0.00301479 -0.00811441 0.00298952
v -0.00282829 -0.00903284 -0.00344921
v -0.00301361 -0.00811441 -0.00344921
v -0.00282652 -0.00903284 -0.00349857
v -0.00301479 -0.00811441 -0.00298952
f 1 2 3
f 1 3 8
f 1 8 4
f 1 4 9
f 1 9 13
f 1 13 17
f 1 17 24
f 1 24 29
f 1 29 31
f 1 31 38
f 1 38 43
f 1 43 42
f 1 42 45
f 1 45 49
f 1 49 52
f 1 52 56
f 1 56 59
f 1 59 58
f 1 58 63
f 1 63 68
f 1 68 72
f 1 72 80
f 1 80 79
f 1 79 86
f 1 86 91
f 1 91 96
f 1 96 99
f 1 99 98
f 1 98 103
f 1 103 108
f 1 108 110
f 1 110 106
f 1 106 105
f 1 105 100
f 1 100 94
f 1 94 87
f 1 87 81
f 1 81 76
f 1 76 75
f 1 75 74
f 1 74 73
f 1 73 69
f 1 69 65
f 1 65 64
f 1 64 60
f 1 60 54
f 1 54 50
f 1 50 47
f 1 47 41
f 1 41 39
f 1 39 32
f 1 32 27
f 1 27 21
f 1 21 20
f 1 20 19
f 1 19 14
f 1 14 10
f 1 10 5
f 1 5 2
f 2 5 6
f 2 6 7
f 2 7 3
f 3 7 6
f 3 6 11
f 3 11 16
f 3 16 15
f 3 15 22
f 3 22 26
f 3 26 28
f 3 28 34
f 3 34 33
f 3 33 40
f 3 40 46
f 3 46 51
f 3 51 55
f 3 55 61
f 3 61 66
f 3 66 70
f 3 70 77
f 3 77 84
f 3 84 83
f 3 83 82
f 3 82 89
f 3 89 95
f 3 95 101
f 3 101 107
f 3 107 109
f 3 109 104
f 3 104 102
f 3 102 97
f 3 97 93
f 3 93 92
f 3 92 90
f 3 90 85
f 3 85 78
f 3 78 71
f 3 71 67
f 3 67 62
f 3 62 57
f 3 57 53
f 3 53 48
f 3 48 44
f 3 44 37
f 3 37 36
f 3 36 35
f 3 35 30
f 3 30 25
f 3 25 18
f 3 18 12
f 3 12 8
f 4 8 9
f 5 10 6
f 6 10 11
f 8 12 13
f 8 13 9
f 10 14 15
f 10 15 16
f 10 16 11
f 12 17 13
f 12 18 17
f 14 19 15
f 15 19 20
f 15 20 21
f 15 21 22
f 17 18 23
f 17 23 24
f 18 25 23
f 21 26 22
f 21 27 28
f 21 28 26
f 23 25 24
f 24 25 29
f 25 30 31
f 25 31 29
f 27 32 33
f 27 33 34
f 27 34 28
f 30 35 31
f 31 35 36
f 31 36 37
f 31 37 38
f 32 39 33
f 33 39 41
f 33 41 40
f 37 42 43
f 37 43 38
f 37 44 45
f 37 45 42
f 40 41 46
f 41 47 46
f 44 48 49
f 44 49 45
f 46 47 50
f 46 50 51
f 48 52 49
f 48 53 56
f 48 56 52
f 50 54 55
f 50 55 51
f 53 57 58
f 53 58 59
f 53 59 56
f 54 60 55
f 55 60 64
f 55 64 61
f 57 62 58
f 58 62 63
f 61 64 65
f 61 65 66
f 62 67 68
f 62 68 63
f 65 69 66
f 66 69 70
f 67 71 68
f 68 71 72
f 69 73 70
f 70 73 74
f 70 74 75
f 70 75 76
f 70 76 77
f 71 78 79
f 71 79 80
f 71 80 72
f 76 81 82
f 76 82 83
f 76 83 84
f 76 84 77
f 78 85 79
f 79 85 86
f 81 87 82
f 82 87 88
f 82 88 89
f 85 90 86
f 86 90 92
f 86 92 93
f 86 93 91
f 87 94 88
f 88 94 89
f 89 94 95
f 91 93 96
f 93 97 98
f 93 98 99
f 93 99 96
f 94 100 95
f 95 100 101
f 97 102 98
f 98 102 104
f 98 104 103
f 100 105 101
f 101 105 106
f 101 106 110
f 101 110 107
f 103 104 108
f 104 109 108
f 107 110 108
f 107 108 109

