# https://github.com/mikedh/trimesh
v 0.00419121 -0.01432113 0.00298952
v 0.00322874 -0.01256422 0.00344921
v 0.00419039 -0.01432113 0.00344921
v 0.00419121 -0.01432113 -0.00298952
v 0.00320741 -0.01256422 0.00379475
v 0.00418055 -0.01432113 0.00374127
v 0.00322874 -0.01256422 -0.00344921
v 0.00419039 -0.01432113 -0.00344921
v 0.00320002 -0.01256422 0.00390993
v 0.00414854 -0.01432113 0.00396752
v 0.00418957 -0.01432113 -0.00362198
v 0.00320002 -0.01256422 -0.00390993
v 0.00296372 -0.01256422 0.00434905
v 0.00324433 -0.01281206 0.00416908
v 0.00411901 -0.01428725 0.00399220
v 0.00408208 -0.01432113 0.00407035
v 0.00418055 -0.01432113 -0.00374127
v 0.00417070 -0.01432113 -0.00386673
v 0.00319100 -0.01256422 -0.00395209
v 0.00280125 -0.01256422 0.00450536
v 0.00388926 -0.01432113 0.00434596
v 0.00414854 -0.01432113 -0.00396752
v 0.00413213 -0.01432113 -0.00401688
v 0.00324433 -0.01281206 -0.00416908
v 0.00296372 -0.01256422 -0.00434905
v 0.00249684 -0.01256422 0.00479742
v 0.00227530 -0.01256422 0.00499899
v 0.00347900 -0.01432113 0.00469047
v 0.00388926 -0.01432113 -0.00434596
v 0.00291530 -0.01256422 -0.00439841
v 0.00223509 -0.01256422 0.00502984
v 0.00312290 -0.01432113 0.00498665
v 0.00338956 -0.01432113 0.00476554
v 0.00380475 -0.01432113 -0.00442001
v 0.00225315 -0.01256422 -0.00501956
v 0.00243612 -0.01256422 -0.00485501
v 0.00249684 -0.01256422 -0.00479742
v 0.00205786 -0.01256422 0.00514193
v 0.00291530 -0.01432113 0.00512651
v 0.00327879 -0.01432113 -0.00486221
v 0.00312290 -0.01432113 -0.00498665
v 0.00307859 -0.01432113 -0.00502058
v 0.00291530 -0.01432113 -0.00512651
v 0.00205786 -0.01256422 -0.00514193
v 0.00160986 -0.01256422 0.00525094
v 0.00254279 -0.01432113 0.00521803
v 0.00283407 -0.01432113 -0.00515119
v 0.00197171 -0.01256422 -0.00516559
v 0.00206935 -0.01356986 0.00524272
v 0.00114955 -0.01256422 0.00525300
v 0.00160986 -0.01265004 0.00525300
v 0.00206935 -0.01402995 0.00525300
v 0.00206935 -0.01432113 0.00525300
v 0.00254279 -0.01432113 -0.00521803
v 0.00160986 -0.01256422 -0.00525094
v -0.00152370 -0.01256422 0.00525300
v -0.00206935 -0.01432113 0.00525300
v 0.00236063 -0.01432113 -0.00524683
v 0.00160986 -0.01265004 -0.00525300
v 0.00152370 -0.01256422 -0.00525300
v -0.00160986 -0.01256422 0.00525094
v -0.00160986 -0.01265004 0.00525300
v -0.00206935 -0.01402995 0.00525300
v -0.00236063 -0.01432113 0.00524683
v 0.00206935 -0.01432113 -0.00525300
v 0.00206935 -0.01402995 -0.00525300
v -0.00114955 -0.01256422 -0.00525300
v -0.00197171 -0.01256422 0.00516559
v -0.00283407 -0.01432113 0.00515119
v -0.00254279 -0.01432113 0.00521803
v -0.00206935 -0.01432113 -0.00525300
v -0.00160986 -0.01265004 -0.00525300
v -0.00160986 -0.01256422 -0.00525094
v -0.00205786 -0.01256422 0.00514193
v -0.00291530 -0.01432113 0.00512651
v -0.00206935 -0.01402995 -0.00525300
v -0.00254279 -0.01432113 -0.00521803
v -0.00206935 -0.01356986 -0.00524272
v -0.00205786 -0.01256422 -0.00514193
v -0.00225315 -0.01256422 0.00501956
v -0.00307859 -0.01432113 0.00502058
v -0.00291530 -0.01432113 -0.00512651
v -0.00223509 -0.01256422 -0.00502984
v -0.00243612 -0.01256422 0.00485501
v -0.00388926 -0.01432113 0.00434596
v -0.00380475 -0.01432113 0.00442001
v -0.00327879 -0.01432113 0.00486221
v -0.00312290 -0.01432113 0.00498665
v -0.00312290 -0.01432113 -0.00498665
v -0.00227530 -0.01256422 -0.00499899
v -0.00249684 -0.01256422 0.00479742
v -0.00291530 -0.01256422 0.00439841
v -0.00296372 -0.01256422 0.00434905
v -0.00324433 -0.01281206 0.00416908
v -0.00413213 -0.01432113 0.00401688
v -0.00338956 -0.01432113 -0.00476554
v -0.00347900 -0.01432113 -0.00469047
v -0.00388926 -0.01432113 -0.00434596
v -0.00249684 -0.01256422 -0.00479742
v -0.00319100 -0.01256422 0.00395209
v -0.00414854 -0.01432113 0.00396752
v -0.00408208 -0.01432113 -0.00407036
v -0.00324433 -0.01281206 -0.00416908
v -0.00296372 -0.01256422 -0.00434905
v -0.00280125 -0.01256422 -0.00450536
v -0.00320002 -0.01256422 0.00390993
v -0.00417070 -0.01432113 0.00386673
v -0.00414854 -0.01432113 -0.00396752
v -0.00411901 -0.01428725 -0.00399220
v -0.00320002 -0.01256422 -0.00390993
v -0.00418957 -0.01432113 0.00362198
v -0.00418055 -0.01432113 0.00374127
v -0.00322874 -0.01256422 0.00344921
v -0.00418055 -0.01432113 -0.00374127
v -0.00320741 -0.01256422 -0.00379475
v -0.00419039 -0.01432113 0.00344921
v -0.00419121 -0.01432113 0.00298952
v -0.00322874 -0.01256422 -0.00344921
v -0.00419039 -0.01432113 -0.00344921
v -0.00419121 -0.01432113 -0.00298952
f 1 2 3
f 1 3 6
f 1 6 10
f 1 10 16
f 1 16 21
f 1 21 28
f 1 28 33
f 1 33 32
f 1 32 39
f 1 39 46
f 1 46 53
f 1 53 57
f 1 57 64
f 1 64 70
f 1 70 69
f 1 69 75
f 1 75 81
f 1 81 88
f 1 88 87
f 1 87 86
f 1 86 85
f 1 85 95
f 1 95 101
f 1 101 107
f 1 107 112
f 1 112 111
f 1 111 116
f 1 116 117
f 1 117 120
f 1 120 119
f 1 119 114
f 1 114 108
f 1 108 102
f 1 102 98
f 1 98 97
f 1 97 96
f 1 96 89
f 1 89 82
f 1 82 77
f 1 77 71
f 1 71 65
f 1 65 58
f 1 58 54
f 1 54 47
f 1 47 43
f 1 43 42
f 1 42 41
f 1 41 40
f 1 40 34
f 1 34 29
f 1 29 23
f 1 23 22
f 1 22 18
f 1 18 17
f 1 17 11
f 1 11 8
f 1 8 4
f 1 4 7
f 1 7 2
f 2 5 6
f 2 6 3
f 2 7 12
f 2 12 19
f 2 19 25
f 2 25 30
f 2 30 37
f 2 37 36
f 2 36 35
f 2 35 44
f 2 44 48
f 2 48 55
f 2 55 60
f 2 60 67
f 2 67 73
f 2 73 79
f 2 79 83
f 2 83 90
f 2 90 99
f 2 99 105
f 2 105 104
f 2 104 110
f 2 110 115
f 2 115 118
f 2 118 113
f 2 113 106
f 2 106 100
f 2 100 93
f 2 93 92
f 2 92 91
f 2 91 84
f 2 84 80
f 2 80 74
f 2 74 68
f 2 68 61
f 2 61 56
f 2 56 50
f 2 50 45
f 2 45 38
f 2 38 31
f 2 31 27
f 2 27 26
f 2 26 20
f 2 20 13
f 2 13 9
f 2 9 5
f 4 8 7
f 5 9 6
f 6 9 10
f 7 8 11
f 7 11 12
f 9 13 14
f 9 14 10
f 10 14 15
f 10 15 16
f 11 17 12
f 12 17 18
f 12 18 19
f 13 20 21
f 13 21 14
f 14 21 16
f 14 16 15
f 18 22 19
f 19 22 23
f 19 23 24
f 19 24 25
f 20 26 21
f 21 26 27
f 21 27 28
f 23 29 24
f 24 29 25
f 25 29 30
f 27 31 32
f 27 32 33
f 27 33 28
f 29 34 35
f 29 35 36
f 29 36 37
f 29 37 30
f 31 38 39
f 31 39 32
f 34 40 35
f 35 40 41
f 35 41 42
f 35 42 43
f 35 43 44
f 38 45 46
f 38 46 39
f 43 47 44
f 44 47 48
f 45 49 46
f 45 50 51
f 45 51 49
f 46 49 52
f 46 52 53
f 47 54 55
f 47 55 48
f 49 51 52
f 50 56 62
f 50 62 63
f 50 63 57
f 50 57 53
f 50 53 52
f 50 52 51
f 54 58 55
f 55 59 60
f 55 58 59
f 56 61 62
f 57 63 64
f 58 65 66
f 58 66 59
f 59 66 65
f 59 65 71
f 59 71 76
f 59 76 72
f 59 72 67
f 59 67 60
f 61 68 69
f 61 69 70
f 61 70 64
f 61 64 62
f 62 64 63
f 67 72 73
f 68 74 69
f 69 74 75
f 71 77 76
f 72 76 78
f 72 78 73
f 73 78 77
f 73 77 79
f 74 80 75
f 75 80 81
f 76 77 78
f 77 82 79
f 79 82 83
f 80 84 85
f 80 85 86
f 80 86 87
f 80 87 88
f 80 88 81
f 82 89 83
f 83 89 90
f 84 91 85
f 85 92 93
f 85 93 94
f 85 94 95
f 85 91 92
f 89 96 90
f 90 96 97
f 90 97 98
f 90 98 99
f 93 100 94
f 94 100 95
f 95 100 101
f 98 102 103
f 98 103 104
f 98 104 105
f 98 105 99
f 100 106 107
f 100 107 101
f 102 108 109
f 102 109 103
f 103 109 108
f 103 108 110
f 103 110 104
f 106 111 112
f 106 112 107
f 106 113 111
f 108 114 110
f 110 114 115
f 111 113 116
f 113 117 116
f 113 118 120
f 113 120 117
f 114 119 118
f 114 118 115
f 118 119 120

