# https://github.com/mikedh/trimesh
v 0.00645316 -0.00368635 -0.00253086
v 0.00645316 -0.00368563 -0.00345229
v 0.00761502 -0.00316385 -0.00344921
v 0.00645316 -0.00368635 0.00298746
v 0.00645316 -0.00368058 -0.00372790
v 0.00761502 -0.00313859 -0.00388422
v 0.00761502 -0.00316385 0.00344921
v 0.00645316 -0.00368563 0.00344715
v 0.00645316 -0.00364810 -0.00400557
v 0.00761502 -0.00313499 -0.00393255
v 0.00761502 -0.00316241 0.00348315
v 0.00645316 -0.00368130 0.00371659
v 0.00734969 -0.00321509 -0.00410635
v 0.00645316 -0.00341933 -0.00433671
v 0.00761502 -0.00293292 -0.00431408
v 0.00761502 -0.00313499 0.00393255
v 0.00645316 -0.00368058 0.00372790
v 0.00704307 -0.00327427 -0.00419890
v 0.00645316 -0.00305921 -0.00466168
v 0.00761502 -0.00222567 -0.00499282
v 0.00761502 -0.00247176 -0.00476349
v 0.00761502 -0.00248475 -0.00475115
v 0.00761502 -0.00270198 -0.00454444
v 0.00645316 -0.00366542 0.00388936
v 0.00761502 -0.00312055 0.00396957
v 0.00734969 -0.00321509 0.00410635
v 0.00645316 -0.00364810 0.00400557
v 0.00645316 -0.00293797 -0.00477069
v 0.00645316 -0.00268394 -0.00499282
v 0.00699633 -0.00233536 -0.00508846
v 0.00761502 -0.00199545 -0.00515222
v 0.00761502 -0.00293292 0.00431408
v 0.00645316 -0.00362068 0.00406624
v 0.00704307 -0.00327427 0.00419890
v 0.00645316 -0.00341933 0.00433671
v 0.00645316 -0.00246887 -0.00513885
v 0.00667004 -0.00240392 -0.00512857
v 0.00667004 -0.00206978 -0.00522523
v 0.00761502 -0.00160935 -0.00524889
v 0.00761502 -0.00292065 0.00432642
v 0.00761502 -0.00270198 0.00454444
v 0.00761502 -0.00247176 0.00476349
v 0.00761502 -0.00245877 0.00477583
v 0.00645316 -0.00330025 0.00444880
v 0.00645316 -0.00206978 -0.00523860
v 0.00759000 -0.00160935 -0.00524991
v 0.00761502 -0.00114964 -0.00525300
v 0.00761502 -0.00222567 0.00499282
v 0.00645316 -0.00280301 0.00489204
v 0.00645316 -0.00160935 -0.00525300
v 0.00712996 -0.00160935 -0.00525300
v 0.00761502 0.00114964 -0.00525300
v 0.00761502 -0.00221268 0.00500413
v 0.00645316 -0.00268394 0.00499282
v 0.00645316 0.00160935 -0.00525300
v 0.00712996 0.00160935 -0.00525300
v 0.00759000 0.00160935 -0.00524991
v 0.00761502 0.00158481 -0.00524991
v 0.00761502 -0.00199545 0.00515222
v 0.00645316 -0.00260816 0.00505349
v 0.00645316 0.00182658 -0.00525197
v 0.00761502 0.00160935 -0.00524889
v 0.00645316 0.00206978 -0.00523860
v 0.00645316 -0.00246887 0.00513885
v 0.00667004 -0.00240392 0.00512856
v 0.00761502 -0.00197741 0.00515736
v 0.00645316 -0.00228845 0.00519130
v 0.00667004 0.00206978 -0.00522523
v 0.00761502 0.00197741 -0.00515736
v 0.00645316 0.00228845 -0.00519130
v 0.00761502 -0.00160935 0.00524889
v 0.00667004 -0.00206978 0.00522523
v 0.00645316 -0.00206978 0.00523860
v 0.00761502 0.00199545 -0.00515222
v 0.00645316 0.00246887 -0.00513885
v 0.00761502 -0.00158481 0.00524991
v 0.00759000 -0.00160935 0.00524991
v 0.00645316 -0.00182658 0.00525197
v 0.00667004 0.00240392 -0.00512857
v 0.00645316 0.00260816 -0.00505349
v 0.00761502 0.00221268 -0.00500413
v 0.00761502 -0.00114964 0.00525300
v 0.00712996 -0.00160935 0.00525300
v 0.00645316 -0.00160935 0.00525300
v 0.00645316 0.00268394 -0.00499282
v 0.00645316 0.00280301 -0.00489204
v 0.00761502 0.00222567 -0.00499282
v 0.00761502 0.00114964 0.00525300
v 0.00645316 0.00160935 0.00525300
v 0.00645316 0.00330025 -0.00444880
v 0.00761502 0.00245877 -0.00477583
v 0.00712996 0.00160935 0.00525300
v 0.00761502 0.00160935 0.00524889
v 0.00759000 0.00160935 0.00524991
v 0.00645316 0.00206978 0.00523860
v 0.00645316 0.00341933 -0.00433671
v 0.00761502 0.00247176 -0.00476349
v 0.00667004 0.00206978 0.00522523
v 0.00761502 0.00199545 0.00515222
v 0.00645316 0.00246887 0.00513885
v 0.00761502 0.00292065 -0.00432642
v 0.00761502 0.00270198 -0.00454444
v 0.00645316 0.00362068 -0.00406624
v 0.00734969 0.00321509 -0.00410635
v 0.00704307 0.00327427 -0.00419890
v 0.00761502 0.00293292 -0.00431408
v 0.00761502 0.00222567 0.00499282
v 0.00699633 0.00233536 0.00508846
v 0.00667004 0.00240392 0.00512856
v 0.00645316 0.00268394 0.00499282
v 0.00645316 0.00364810 -0.00400557
v 0.00761502 0.00313499 -0.00393255
v 0.00761502 0.00312055 -0.00396957
v 0.00645316 0.00293797 0.00477069
v 0.00761502 0.00247176 0.00476349
v 0.00645316 0.00341933 0.00433671
v 0.00645316 0.00305921 0.00466168
v 0.00645316 0.00366542 -0.00388936
v 0.00645316 0.00368058 -0.00372790
v 0.00645316 0.00368130 -0.00371659
v 0.00761502 0.00316241 -0.00348315
v 0.00761502 0.00248475 0.00475115
v 0.00645316 0.00364810 0.00400557
v 0.00761502 0.00270198 0.00454444
v 0.00761502 0.00293292 0.00431408
v 0.00704307 0.00327427 0.00419890
v 0.00734969 0.00321509 0.00410635
v 0.00645316 0.00368563 -0.00344921
v 0.00761502 0.00316385 -0.00344921
v 0.00761502 0.00313499 0.00393255
v 0.00645316 0.00368058 0.00372790
v 0.00645316 0.00368635 -0.00298952
v 0.00761502 0.00316385 0.00344921
v 0.00761502 0.00313859 0.00388422
v 0.00645316 0.00368563 0.00345229
v 0.00645316 0.00368635 0.00298952
f 1 2 3
f 1 3 7
f 1 7 4
f 1 4 8
f 1 8 12
f 1 12 17
f 1 17 24
f 1 24 27
f 1 27 33
f 1 33 35
f 1 35 44
f 1 44 49
f 1 49 54
f 1 54 60
f 1 60 64
f 1 64 67
f 1 67 73
f 1 73 78
f 1 78 84
f 1 84 89
f 1 89 95
f 1 95 100
f 1 100 110
f 1 110 114
f 1 114 117
f 1 117 116
f 1 116 123
f 1 123 131
f 1 131 135
f 1 135 136
f 1 136 132
f 1 132 128
f 1 128 120
f 1 120 119
f 1 119 118
f 1 118 111
f 1 111 103
f 1 103 96
f 1 96 90
f 1 90 86
f 1 86 85
f 1 85 80
f 1 80 75
f 1 75 70
f 1 70 63
f 1 63 61
f 1 61 55
f 1 55 50
f 1 50 45
f 1 45 36
f 1 36 29
f 1 29 28
f 1 28 19
f 1 19 14
f 1 14 9
f 1 9 5
f 1 5 2
f 2 5 3
f 3 5 6
f 3 6 10
f 3 10 15
f 3 15 23
f 3 23 22
f 3 22 21
f 3 21 20
f 3 20 31
f 3 31 39
f 3 39 47
f 3 47 52
f 3 52 58
f 3 58 62
f 3 62 69
f 3 69 74
f 3 74 81
f 3 81 87
f 3 87 91
f 3 91 97
f 3 97 102
f 3 102 101
f 3 101 106
f 3 106 113
f 3 113 112
f 3 112 121
f 3 121 129
f 3 129 133
f 3 133 134
f 3 134 130
f 3 130 125
f 3 125 124
f 3 124 122
f 3 122 115
f 3 115 107
f 3 107 99
f 3 99 93
f 3 93 88
f 3 88 82
f 3 82 76
f 3 76 71
f 3 71 66
f 3 66 59
f 3 59 53
f 3 53 48
f 3 48 43
f 3 43 42
f 3 42 41
f 3 41 40
f 3 40 32
f 3 32 25
f 3 25 16
f 3 16 11
f 3 11 7
f 4 7 8
f 5 9 10
f 5 10 6
f 7 11 12
f 7 12 8
f 9 13 10
f 9 14 13
f 10 13 15
f 11 16 12
f 12 16 17
f 13 14 18
f 13 18 15
f 14 19 20
f 14 20 21
f 14 21 22
f 14 22 23
f 14 23 15
f 14 15 18
f 16 24 17
f 16 25 26
f 16 26 27
f 16 27 24
f 19 28 20
f 20 29 30
f 20 30 31
f 20 28 29
f 25 32 26
f 26 33 27
f 26 32 34
f 26 34 35
f 26 35 33
f 29 36 37
f 29 37 30
f 30 37 31
f 31 37 36
f 31 36 38
f 31 38 39
f 32 40 35
f 32 35 34
f 35 40 41
f 35 41 42
f 35 42 43
f 35 43 44
f 36 45 38
f 38 45 39
f 39 45 46
f 39 46 47
f 43 48 44
f 44 48 49
f 45 50 51
f 45 51 46
f 46 51 47
f 47 51 50
f 47 50 55
f 47 55 56
f 47 56 52
f 48 53 49
f 49 53 54
f 52 56 57
f 52 57 58
f 53 59 60
f 53 60 54
f 55 61 56
f 56 61 57
f 57 62 58
f 57 61 63
f 57 63 62
f 59 64 65
f 59 65 60
f 59 66 67
f 59 67 64
f 60 65 64
f 62 63 68
f 62 68 69
f 63 70 68
f 66 71 72
f 66 72 67
f 67 72 73
f 68 70 69
f 69 70 74
f 70 75 74
f 71 76 77
f 71 77 73
f 71 73 72
f 73 77 78
f 74 75 79
f 74 79 80
f 74 80 81
f 75 80 79
f 76 82 77
f 77 82 83
f 77 83 78
f 78 83 84
f 80 85 81
f 81 85 86
f 81 86 87
f 82 88 92
f 82 92 89
f 82 89 84
f 82 84 83
f 86 90 87
f 87 90 91
f 88 93 94
f 88 94 92
f 89 92 95
f 90 96 91
f 91 96 97
f 92 94 95
f 93 98 95
f 93 95 94
f 93 99 98
f 95 98 100
f 96 101 102
f 96 102 97
f 96 103 104
f 96 104 105
f 96 105 106
f 96 106 101
f 98 99 100
f 99 107 108
f 99 108 109
f 99 109 100
f 100 109 110
f 103 111 104
f 104 111 112
f 104 112 113
f 104 113 106
f 104 106 105
f 107 114 110
f 107 110 108
f 107 115 116
f 107 116 117
f 107 117 114
f 108 110 109
f 111 118 112
f 112 118 119
f 112 119 120
f 112 120 121
f 115 122 116
f 116 122 124
f 116 124 125
f 116 125 126
f 116 126 127
f 116 127 123
f 120 128 129
f 120 129 121
f 123 127 130
f 123 130 131
f 125 130 127
f 125 127 126
f 128 132 129
f 129 132 136
f 129 136 133
f 130 134 131
f 131 134 133
f 131 133 135
f 133 136 135

