# https://github.com/mikedh/trimesh
v -0.01540994 0.00298923 0.00525300
v -0.01566689 0.00346467 0.00522009
v -0.01566689 0.00298923 0.00525300
v -0.01495003 0.00252993 0.00525300
v -0.01483647 0.00252993 0.00524991
v -0.01495003 0.00298923 0.00521803
v -0.01566689 0.00386804 0.00514708
v -0.01566689 -0.00298923 0.00525300
v -0.01483647 0.00206955 0.00525300
v -0.01483647 0.00299031 0.00519850
v -0.01495003 0.00334420 0.00512137
v -0.01550041 0.00380242 0.00512239
v -0.01566689 0.00410791 0.00503704
v -0.01566689 -0.00324631 0.00525197
v -0.01540994 -0.00298923 0.00525300
v -0.01483647 -0.00241591 0.00525300
v -0.01483647 0.00330224 0.00510285
v -0.01566689 0.00521260 0.00427295
v -0.01566689 -0.00346467 0.00522009
v -0.01483647 -0.00287629 0.00522420
v -0.01483647 -0.00252993 0.00524991
v -0.01495003 -0.00252993 0.00525300
v -0.01483647 0.00353889 0.00493728
v -0.01555195 0.00516419 0.00421227
v -0.01566689 0.00544924 0.00390993
v -0.01483647 0.00383899 0.00470076
v -0.01483647 0.00431873 0.00431922
v -0.01566689 -0.00376908 0.00517381
v -0.01483647 -0.00299031 0.00519850
v -0.01508952 0.00468446 0.00420816
v -0.01566689 0.00549334 0.00344921
v -0.01483647 0.00457366 0.00390993
v -0.01566689 -0.00386804 0.00514708
v -0.01483647 -0.00325169 0.00512651
v -0.01566689 0.00549442 0.00298952
v -0.01483647 0.00458227 0.00381429
v -0.01483647 0.00461346 0.00344921
v -0.01483647 0.00461454 0.00332066
v -0.01550041 -0.00380242 0.00512239
v -0.01566689 -0.00410253 0.00504012
v -0.01483647 -0.00330224 0.00510285
v -0.01566689 0.00549442 -0.00298952
v -0.01483647 0.00461454 -0.00311910
v -0.01566689 -0.00410791 0.00503704
v -0.01483647 -0.00343455 0.00501956
v -0.01566689 -0.00422730 0.00496197
v -0.01566689 0.00549334 -0.00344921
v -0.01483647 0.00461346 -0.00344921
v -0.01483647 -0.00376908 0.00475937
v -0.01566689 -0.00507814 0.00437167
v -0.01566689 -0.00521260 0.00427295
v -0.01566689 0.00544924 -0.00390993
v -0.01483647 0.00460378 -0.00356747
v -0.01483647 0.00457366 -0.00390993
v -0.01483647 -0.00425527 0.00437373
v -0.01566689 -0.00543203 0.00394489
v -0.01555195 -0.00516419 0.00421227
v -0.01483647 -0.00431873 0.00431922
v -0.01566689 0.00543203 -0.00394489
v -0.01483647 0.00455645 -0.00395312
v -0.01566689 -0.00544924 0.00390993
v -0.01483647 -0.00455645 0.00395312
v -0.01508952 -0.00468446 0.00420816
v -0.01555195 0.00516419 -0.00421227
v -0.01566689 0.00521260 -0.00427295
v -0.01508952 0.00468446 -0.00420816
v -0.01483647 0.00431873 -0.00431922
v -0.01566689 -0.00549334 0.00344921
v -0.01483647 -0.00457366 0.00390993
v -0.01566689 0.00507814 -0.00437167
v -0.01483647 0.00425527 -0.00437373
v -0.01483647 0.00376908 -0.00475937
v -0.01483647 0.00343455 -0.00501956
v -0.01566689 -0.00549442 0.00298952
v -0.01483647 -0.00461454 0.00311910
v -0.01483647 -0.00461346 0.00344921
v -0.01483647 -0.00460378 0.00356747
v -0.01566689 0.00422730 -0.00496197
v -0.01483647 0.00330224 -0.00510286
v -0.01566689 -0.00549442 -0.00298952
v -0.01483647 -0.00461454 -0.00332066
v -0.01566689 0.00410791 -0.00503704
v -0.01483647 0.00325169 -0.00512651
v -0.01550041 0.00380242 -0.00512239
v -0.01566689 0.00410253 -0.00504012
v -0.01566689 -0.00549334 -0.00344921
v -0.01483647 -0.00461346 -0.00344921
v -0.01483647 0.00299031 -0.00519850
v -0.01566689 0.00386804 -0.00514708
v -0.01566689 -0.00544924 -0.00390993
v -0.01483647 -0.00457366 -0.00390993
v -0.01483647 -0.00458227 -0.00381429
v -0.01566689 0.00376908 -0.00517381
v -0.01483647 0.00287629 -0.00522421
v -0.01566689 -0.00521260 -0.00427295
v -0.01555195 -0.00516419 -0.00421227
v -0.01508952 -0.00468446 -0.00420816
v -0.01483647 -0.00431873 -0.00431922
v -0.01566689 0.00346467 -0.00522009
v -0.01483647 0.00252993 -0.00524991
v -0.01566689 0.00324631 -0.00525197
v -0.01566689 -0.00410791 -0.00503704
v -0.01483647 -0.00330224 -0.00510286
v -0.01483647 -0.00353889 -0.00493729
v -0.01483647 -0.00383899 -0.00470076
v -0.01483647 0.00241591 -0.00525300
v -0.01495003 0.00252993 -0.00525300
v -0.01540994 0.00298923 -0.00525300
v -0.01566689 0.00298923 -0.00525300
v -0.01566689 -0.00386804 -0.00514708
v -0.01550041 -0.00380242 -0.00512239
v -0.01495003 -0.00334420 -0.00512137
v -0.01483647 -0.00299031 -0.00519850
v -0.01483647 -0.00206955 -0.00525300
v -0.01566689 -0.00298923 -0.00525300
v -0.01566689 -0.00346467 -0.00522009
v -0.01495003 -0.00298923 -0.00521803
v -0.01483647 -0.00252993 -0.00524991
v -0.01495003 -0.00252993 -0.00525300
v -0.01540994 -0.00298923 -0.00525300
f 1 2 3
f 1 3 8
f 1 8 15
f 1 15 22
f 1 22 16
f 1 16 9
f 1 9 4
f 1 4 5
f 1 5 6
f 1 6 2
f 2 7 13
f 2 13 18
f 2 18 25
f 2 25 31
f 2 31 35
f 2 35 42
f 2 42 47
f 2 47 52
f 2 52 59
f 2 59 65
f 2 65 70
f 2 70 78
f 2 78 82
f 2 82 85
f 2 85 89
f 2 89 93
f 2 93 99
f 2 99 101
f 2 101 109
f 2 109 115
f 2 115 116
f 2 116 110
f 2 110 102
f 2 102 95
f 2 95 90
f 2 90 86
f 2 86 80
f 2 80 74
f 2 74 68
f 2 68 61
f 2 61 56
f 2 56 51
f 2 51 50
f 2 50 46
f 2 46 44
f 2 44 40
f 2 40 33
f 2 33 28
f 2 28 19
f 2 19 14
f 2 14 8
f 2 8 3
f 2 6 7
f 4 9 5
f 5 9 16
f 5 16 21
f 5 21 20
f 5 20 29
f 5 29 34
f 5 34 41
f 5 41 45
f 5 45 49
f 5 49 55
f 5 55 58
f 5 58 62
f 5 62 69
f 5 69 77
f 5 77 76
f 5 76 75
f 5 75 81
f 5 81 87
f 5 87 92
f 5 92 91
f 5 91 98
f 5 98 105
f 5 105 104
f 5 104 103
f 5 103 113
f 5 113 118
f 5 118 114
f 5 114 106
f 5 106 100
f 5 100 94
f 5 94 88
f 5 88 83
f 5 83 79
f 5 79 73
f 5 73 72
f 5 72 71
f 5 71 67
f 5 67 60
f 5 60 54
f 5 54 53
f 5 53 48
f 5 48 43
f 5 43 38
f 5 38 37
f 5 37 36
f 5 36 32
f 5 32 27
f 5 27 26
f 5 26 23
f 5 23 17
f 5 17 10
f 5 10 6
f 6 10 7
f 7 10 11
f 7 11 12
f 7 12 13
f 8 14 15
f 10 17 11
f 11 17 12
f 12 17 13
f 13 17 18
f 14 19 20
f 14 20 21
f 14 21 15
f 15 21 22
f 16 22 21
f 17 23 18
f 18 24 25
f 18 23 26
f 18 26 27
f 18 27 24
f 19 28 20
f 20 28 29
f 24 27 30
f 24 30 25
f 25 30 32
f 25 32 31
f 27 32 30
f 28 33 29
f 29 33 34
f 31 32 36
f 31 36 37
f 31 37 38
f 31 38 35
f 33 39 34
f 33 40 39
f 34 39 41
f 35 38 43
f 35 43 42
f 39 40 41
f 40 44 41
f 41 44 46
f 41 46 45
f 42 43 47
f 43 48 47
f 45 46 50
f 45 50 51
f 45 51 49
f 47 48 53
f 47 53 54
f 47 54 52
f 49 51 55
f 51 56 57
f 51 57 58
f 51 58 55
f 52 54 60
f 52 60 59
f 56 61 62
f 56 62 63
f 56 63 57
f 57 63 58
f 58 63 62
f 59 64 65
f 59 60 66
f 59 66 64
f 60 67 66
f 61 68 69
f 61 69 62
f 64 66 67
f 64 67 65
f 65 67 71
f 65 71 72
f 65 72 73
f 65 73 70
f 68 74 75
f 68 75 76
f 68 76 77
f 68 77 69
f 70 73 78
f 73 79 78
f 74 80 81
f 74 81 75
f 78 79 82
f 79 83 84
f 79 84 85
f 79 85 82
f 80 86 81
f 81 86 87
f 83 88 89
f 83 89 84
f 84 89 85
f 86 90 91
f 86 91 92
f 86 92 87
f 88 93 89
f 88 94 93
f 90 95 96
f 90 96 97
f 90 97 91
f 91 97 98
f 93 94 99
f 94 100 101
f 94 101 99
f 95 102 103
f 95 103 104
f 95 104 105
f 95 105 98
f 95 98 96
f 96 98 97
f 100 106 107
f 100 107 108
f 100 108 101
f 101 108 109
f 102 110 111
f 102 111 103
f 103 111 112
f 103 112 113
f 106 114 119
f 106 119 120
f 106 120 115
f 106 115 109
f 106 109 108
f 106 108 107
f 110 116 117
f 110 117 113
f 110 113 112
f 110 112 111
f 113 117 118
f 114 118 119
f 115 120 116
f 116 120 117
f 117 120 118
f 118 120 119

