# https://github.com/mikedh/trimesh
v -0.01352788 -0.01863044 0.00525300
v -0.01352788 -0.02047000 0.00525300
v -0.01352788 -0.01817036 0.00525197
v -0.01357072 -0.01817036 0.00525300
v -0.02046922 -0.02047000 0.00525300
v -0.01352788 -0.02088639 0.00524991
v -0.01403056 -0.01771029 0.00524169
v -0.01633069 -0.01587000 0.00522832
v -0.01679053 -0.01581686 0.00525094
v -0.01679053 -0.01587000 0.00525300
v -0.01352788 -0.01767171 0.00516764
v -0.02046922 -0.01581686 0.00525300
v -0.02092906 -0.02000992 0.00524786
v -0.02092906 -0.02047000 0.00524683
v -0.02092906 -0.02092934 0.00524477
v -0.02046922 -0.02092934 0.00524889
v -0.01352788 -0.02092934 0.00524889
v -0.01633069 -0.01581686 0.00521803
v -0.01725037 -0.01581686 0.00525300
v -0.01352788 -0.01766661 0.00516661
v -0.02092906 -0.01581686 0.00524786
v -0.02138985 -0.01633007 0.00520364
v -0.02138985 -0.02047000 0.00520261
v -0.02138985 -0.02092934 0.00520055
v -0.02092906 -0.02138941 0.00520158
v -0.02046922 -0.02138941 0.00520467
v -0.01352788 -0.02138941 0.00520467
v -0.01592417 -0.01581686 0.00512548
v -0.01352788 -0.01725386 0.00493111
v -0.01365164 -0.01740819 0.00511005
v -0.02138985 -0.01581686 0.00520364
v -0.02171069 -0.01581686 0.00512239
v -0.02175258 -0.02047000 0.00511108
v -0.02174877 -0.02092934 0.00511005
v -0.02169070 -0.02138941 0.00508743
v -0.02138985 -0.02138941 0.00515736
v -0.02138985 -0.02169152 0.00508743
v -0.02092906 -0.02174903 0.00511005
v -0.02046922 -0.02175267 0.00511211
v -0.01352788 -0.02175267 0.00511211
v -0.01352788 -0.01724949 0.00492803
v -0.01581659 -0.01581686 0.00506275
v -0.02175258 -0.01581686 0.00511108
v -0.02195632 -0.01581686 0.00502778
v -0.02198297 -0.02047000 0.00501647
v -0.02197916 -0.02092934 0.00501544
v -0.02192109 -0.02138941 0.00498870
v -0.02163167 -0.02163183 0.00506378
v -0.02138985 -0.02192156 0.00498973
v -0.02092906 -0.02197906 0.00501544
v -0.02046922 -0.02198270 0.00501647
v -0.01352788 -0.02196159 0.00502573
v -0.01553479 -0.01581686 0.00489512
v -0.01352788 -0.01672099 0.00445394
v -0.02198297 -0.01581686 0.00501647
v -0.02227144 -0.01581686 0.00483239
v -0.02230952 -0.02047000 0.00480771
v -0.02230952 -0.02092934 0.00480359
v -0.02233713 -0.02137194 0.00473366
v -0.02218861 -0.02184949 0.00468019
v -0.02181065 -0.02181091 0.00490232
v -0.02184969 -0.02219017 0.00468019
v -0.02137367 -0.02233795 0.00473366
v -0.02092906 -0.02230956 0.00480359
v -0.02046922 -0.02230956 0.00480668
v -0.01352788 -0.02227898 0.00482725
v -0.01352788 -0.02198270 0.00501647
v -0.01352788 -0.01647130 0.00422461
v -0.01455894 -0.01581686 0.00424724
v -0.02230952 -0.01581686 0.00480771
v -0.02256086 -0.02047000 0.00462054
v -0.02255801 -0.02092934 0.00461746
v -0.02255039 -0.02120670 0.00461026
v -0.02250945 -0.02151390 0.00457015
v -0.02241901 -0.02184949 0.00448377
v -0.02210293 -0.02210282 0.00461643
v -0.02184969 -0.02242021 0.00448582
v -0.02151552 -0.02250975 0.00457118
v -0.02120896 -0.02255124 0.00461026
v -0.02092906 -0.02255925 0.00461848
v -0.02046922 -0.02256071 0.00461951
v -0.01352788 -0.02253741 0.00463802
v -0.01352788 -0.02230956 0.00480668
v -0.01352788 -0.01635046 0.00390993
v -0.01435235 -0.01581686 0.00390993
v -0.02256086 -0.01581686 0.00462054
v -0.02273794 -0.01581686 0.00439841
v -0.02276079 -0.02047000 0.00436962
v -0.02275603 -0.02092934 0.00436962
v -0.02268272 -0.02137194 0.00439841
v -0.02262941 -0.02184949 0.00425341
v -0.02256182 -0.02210937 0.00416805
v -0.02226002 -0.02225933 0.00432128
v -0.02210959 -0.02256289 0.00416908
v -0.02184969 -0.02263059 0.00425546
v -0.02137367 -0.02268446 0.00439841
v -0.02092906 -0.02275726 0.00436962
v -0.02046922 -0.02276090 0.00436962
v -0.01352788 -0.02274197 0.00439327
v -0.01352788 -0.02256071 0.00461951
v -0.01352788 -0.01631697 0.00344921
v -0.01433997 -0.01581686 0.00380195
v -0.02276079 -0.01581686 0.00436962
v -0.02294549 -0.01581686 0.00411252
v -0.02296929 -0.02047000 0.00407858
v -0.02296739 -0.02092934 0.00407344
v -0.02293978 -0.02138941 0.00401996
v -0.02285790 -0.02182983 0.00388833
v -0.02263417 -0.02220400 0.00390993
v -0.02243424 -0.02243404 0.00390993
v -0.02220480 -0.02263496 0.00390993
v -0.02183065 -0.02285917 0.00388833
v -0.02138985 -0.02294143 0.00402202
v -0.02092906 -0.02296764 0.00407550
v -0.02046922 -0.02296982 0.00407858
v -0.01352788 -0.02276090 0.00436962
v -0.01352788 -0.02295017 0.00410635
v -0.01430379 -0.01581686 0.00344921
v -0.01352788 -0.01631624 0.00298952
v -0.01430189 -0.01581686 0.00298952
v -0.01430284 -0.01581686 0.00331038
v -0.02296929 -0.01581686 0.00407858
v -0.02306069 -0.01581686 0.00387599
v -0.02307306 -0.02047000 0.00384822
v -0.02307116 -0.02092934 0.00384411
v -0.02304831 -0.02138941 0.00378961
v -0.02301689 -0.02166386 0.00372070
v -0.02295215 -0.02197615 0.00344921
v -0.02270177 -0.02234523 0.00346361
v -0.02252278 -0.02252285 0.00362712
v -0.02234570 -0.02270266 0.00346361
v -0.02197726 -0.02295308 0.00344921
v -0.02166499 -0.02301787 0.00372173
v -0.02138985 -0.02304844 0.00379166
v -0.02092906 -0.02307101 0.00384514
v -0.02046922 -0.02307319 0.00384822
v -0.01352788 -0.02296982 0.00407858
v -0.01352788 -0.01631624 -0.00304300
v -0.01430189 -0.01581686 -0.00298952
v -0.02307306 -0.01581686 0.00384822
v -0.02319302 -0.02047000 0.00344921
v -0.02319016 -0.02092934 0.00344921
v -0.02314446 -0.02138941 0.00344921
v -0.02305117 -0.02174612 0.00344921
v -0.02298357 -0.02204458 0.00298952
v -0.02279792 -0.02230956 0.00298952
v -0.02256657 -0.02256653 0.00331963
v -0.02230952 -0.02279875 0.00298952
v -0.02204486 -0.02298365 0.00298952
v -0.02174782 -0.02305135 0.00344921
v -0.02138985 -0.02314526 0.00344921
v -0.02092906 -0.02319040 0.00344921
v -0.02046922 -0.02319331 0.00344921
v -0.01352788 -0.02318239 0.00348726
v -0.01352788 -0.02307319 0.00384822
v -0.01352788 -0.01631697 -0.00344921
v -0.01430379 -0.01581686 -0.00344921
v -0.02319302 -0.01581686 0.00344921
v -0.02324062 -0.01581686 0.00304300
v -0.02324633 -0.02047000 0.00298952
v -0.02324348 -0.02092934 0.00298952
v -0.02319873 -0.02138941 0.00298952
v -0.02307878 -0.02181454 0.00298952
v -0.02298738 -0.02205259 0.00252983
v -0.02258466 -0.02258400 0.00298952
v -0.02280649 -0.02230956 0.00252983
v -0.02258847 -0.02258910 0.00252983
v -0.02230952 -0.02280676 0.00252983
v -0.02205247 -0.02298729 0.00252983
v -0.02181541 -0.02307829 0.00298952
v -0.02138985 -0.02319913 0.00298952
v -0.02092906 -0.02324354 0.00298952
v -0.02046922 -0.02324645 0.00298952
v -0.01352788 -0.02319331 0.00344921
v -0.01352788 -0.01635046 -0.00390993
v -0.01435235 -0.01581686 -0.00390993
v -0.02324633 -0.01581686 0.00298952
v -0.02325300 -0.02047000 0.00252983
v -0.02324919 -0.02092934 0.00252983
v -0.02320540 -0.02138941 0.00252983
v -0.02308163 -0.02182255 0.00252983
v -0.02298738 -0.02205259 -0.00252983
v -0.02280649 -0.02230956 -0.00252983
v -0.02258847 -0.02258910 -0.00252983
v -0.02230952 -0.02280676 -0.00252983
v -0.02182303 -0.02308193 0.00252983
v -0.02205247 -0.02298729 -0.00252983
v -0.02138985 -0.02320495 0.00252983
v -0.02092906 -0.02324936 0.00252983
v -0.02046922 -0.02325227 0.00252983
v -0.01352788 -0.02325227 0.00257302
v -0.01352788 -0.02324645 0.00298952
v -0.01352788 -0.01635919 -0.00394901
v -0.01437615 -0.01581686 -0.00396032
v -0.02325300 -0.01581686 0.00252983
v -0.02325300 -0.02047000 -0.00252983
v -0.02324919 -0.02092934 -0.00252983
v -0.02320540 -0.02138941 -0.00252983
v -0.02308163 -0.02182255 -0.00252983
v -0.02307878 -0.02181527 -0.00298952
v -0.02298357 -0.02204531 -0.00298952
v -0.02279887 -0.02230956 -0.00298952
v -0.02258466 -0.02258473 -0.00298952
v -0.02230952 -0.02279948 -0.00298952
v -0.02182303 -0.02308193 -0.00252983
v -0.02204486 -0.02298365 -0.00298952
v -0.02138985 -0.02320495 -0.00252983
v -0.02092906 -0.02324936 -0.00252983
v -0.02046922 -0.02325227 -0.00252983
v -0.01352788 -0.02325227 -0.00252983
v -0.01352788 -0.01647130 -0.00422461
v -0.01455894 -0.01581686 -0.00424724
v -0.02325300 -0.01581686 -0.00252983
v -0.02324728 -0.01581686 -0.00293604
v -0.02324633 -0.02047000 -0.00298952
v -0.02324348 -0.02092934 -0.00298952
v -0.02319873 -0.02138941 -0.00298952
v -0.02305117 -0.02174684 -0.00344921
v -0.02295310 -0.02197688 -0.00344921
v -0.02270272 -0.02234596 -0.00346464
v -0.02256657 -0.02256726 -0.00332169
v -0.02234570 -0.02270266 -0.00346464
v -0.02181541 -0.02307829 -0.00298952
v -0.02197631 -0.02295308 -0.00344921
v -0.02174687 -0.02305063 -0.00344921
v -0.02138985 -0.02319913 -0.00298952
v -0.02092906 -0.02324354 -0.00298952
v -0.02046922 -0.02324645 -0.00298952
v -0.01352788 -0.02324718 -0.00294633
v -0.01352788 -0.01649532 -0.00424724
v -0.01570520 -0.01581686 -0.00501133
v -0.01458655 -0.01581686 -0.00426883
v -0.02324633 -0.01581686 -0.00298952
v -0.02319968 -0.01581686 -0.00339573
v -0.02319302 -0.02047000 -0.00344921
v -0.02319016 -0.02092934 -0.00344921
v -0.02314446 -0.02138941 -0.00344921
v -0.02301689 -0.02166386 -0.00372070
v -0.02285885 -0.02183056 -0.00388833
v -0.02263512 -0.02220619 -0.00390993
v -0.02252278 -0.02252285 -0.00362815
v -0.02220575 -0.02263496 -0.00390993
v -0.02182969 -0.02285917 -0.00388833
v -0.02166404 -0.02301714 -0.00372070
v -0.02138985 -0.02314453 -0.00344921
v -0.02092906 -0.02319040 -0.00344921
v -0.01352788 -0.02319840 -0.00340602
v -0.01352788 -0.02324645 -0.00298952
v -0.02046922 -0.02319331 -0.00344921
v -0.01352788 -0.01672099 -0.00445394
v -0.01352788 -0.01696995 -0.00467813
v -0.01352788 -0.01724949 -0.00492803
v -0.01352788 -0.01743876 -0.00508846
v -0.01592417 -0.01581686 -0.00512548
v -0.02319302 -0.01581686 -0.00344921
v -0.02307116 -0.02092934 -0.00384514
v -0.02307306 -0.02047000 -0.00384822
v -0.02304831 -0.02138941 -0.00379166
v -0.02294168 -0.02138941 -0.00402099
v -0.02263131 -0.02184949 -0.00425546
v -0.02256372 -0.02211155 -0.00417011
v -0.02243615 -0.02243550 -0.00390993
v -0.02211150 -0.02256362 -0.00416908
v -0.02184969 -0.02263132 -0.00425546
v -0.02138985 -0.02294143 -0.00402099
v -0.02138985 -0.02304771 -0.00379166
v -0.02092906 -0.02307101 -0.00384514
v -0.02046922 -0.02307319 -0.00384822
v -0.01352788 -0.02319331 -0.00344921
v -0.01352788 -0.01766588 -0.00516662
v -0.01365164 -0.01740819 -0.00511005
v -0.01595368 -0.01581686 -0.00513679
v -0.02307306 -0.01581686 -0.00384822
v -0.02296929 -0.02047000 -0.00407858
v -0.02296739 -0.02092934 -0.00407447
v -0.02298167 -0.01581686 -0.00405184
v -0.02268368 -0.02137122 -0.00439841
v -0.02250850 -0.02151244 -0.00457015
v -0.02241901 -0.02184949 -0.00448480
v -0.02210293 -0.02210282 -0.00461643
v -0.02226002 -0.02226006 -0.00432334
v -0.02184969 -0.02241875 -0.00448480
v -0.02150790 -0.02250902 -0.00457015
v -0.02136795 -0.02268300 -0.00439841
v -0.02092906 -0.02296764 -0.00407447
v -0.02046922 -0.02296982 -0.00407858
v -0.01817004 -0.02307319 -0.00384822
v -0.01352788 -0.02308411 -0.00381120
v -0.01352788 -0.01767171 -0.00516764
v -0.01638401 -0.01581686 -0.00522935
v -0.01633069 -0.01581686 -0.00521803
v -0.02296929 -0.01581686 -0.00407858
v -0.02278555 -0.01581686 -0.00433568
v -0.02276079 -0.02047000 -0.00436962
v -0.02275698 -0.02092934 -0.00436962
v -0.02255039 -0.02120597 -0.00461026
v -0.02233713 -0.02137122 -0.00473161
v -0.02218861 -0.02184949 -0.00467916
v -0.02181065 -0.02181091 -0.00490129
v -0.02184969 -0.02218872 -0.00467916
v -0.02120135 -0.02254906 -0.00460820
v -0.02136795 -0.02233722 -0.00473161
v -0.02092906 -0.02275580 -0.00436962
v -0.01352788 -0.02296982 -0.00407858
v -0.02046922 -0.02276090 -0.00436962
v -0.01352788 -0.02307246 -0.00384822
v -0.01352788 -0.01817036 -0.00525197
v -0.01403056 -0.01771029 -0.00524169
v -0.01679053 -0.01581686 -0.00525094
v -0.02276079 -0.01581686 -0.00436962
v -0.02258466 -0.01581686 -0.00459072
v -0.02256086 -0.02047000 -0.00462054
v -0.02255801 -0.02092934 -0.00461746
v -0.02230952 -0.02092934 -0.00480154
v -0.02197631 -0.02092934 -0.00501339
v -0.02191823 -0.02138941 -0.00498665
v -0.02163167 -0.02163183 -0.00506378
v -0.02138985 -0.02191864 -0.00498768
v -0.02092906 -0.02255707 -0.00461643
v -0.02092906 -0.02230956 -0.00480154
v -0.02092906 -0.02197688 -0.00501441
v -0.02046922 -0.02256071 -0.00462054
v -0.01352788 -0.02276090 -0.00436962
v -0.01352788 -0.02257963 -0.00459689
v -0.01352788 -0.01821331 -0.00525300
v -0.01357072 -0.01817036 -0.00525300
v -0.01684480 -0.01581686 -0.00525300
v -0.02256086 -0.01581686 -0.00462054
v -0.02230952 -0.02047000 -0.00480771
v -0.02198297 -0.02047000 -0.00501647
v -0.02174591 -0.02092934 -0.00511005
v -0.02168784 -0.02138941 -0.00508743
v -0.02138985 -0.02138941 -0.00515530
v -0.02138985 -0.02168861 -0.00508640
v -0.02046922 -0.02230956 -0.00480771
v -0.02092906 -0.02174684 -0.00510903
v -0.02046922 -0.02175267 -0.00511211
v -0.02046922 -0.02198270 -0.00501647
v -0.01352788 -0.02256071 -0.00462054
v -0.01352788 -0.02047000 -0.00525300
v -0.02046922 -0.01581686 -0.00525300
v -0.02230952 -0.01581686 -0.00480771
v -0.02202105 -0.01581686 -0.00499282
v -0.02198297 -0.01581686 -0.00501647
v -0.02178019 -0.01581686 -0.00510080
v -0.02175258 -0.02047000 -0.00511211
v -0.02138985 -0.02092934 -0.00520158
v -0.02092906 -0.02138941 -0.00520055
v -0.01352788 -0.02230956 -0.00480771
v -0.01352788 -0.02142363 -0.00519644
v -0.01352788 -0.02175267 -0.00511211
v -0.02046922 -0.02138941 -0.00520467
v -0.01352788 -0.02198270 -0.00501647
v -0.01352788 -0.02092934 -0.00524991
v -0.02046922 -0.02047000 -0.00525300
v -0.02092906 -0.01581686 -0.00524991
v -0.02175258 -0.01581686 -0.00511211
v -0.02143174 -0.01581686 -0.00519438
v -0.02138985 -0.02047000 -0.00520467
v -0.02092906 -0.02047000 -0.00524991
v -0.02092906 -0.02092934 -0.00524580
v -0.01352788 -0.02138941 -0.00520467
v -0.02046922 -0.02092934 -0.00524991
v -0.02138985 -0.01581686 -0.00520467
f 1 2 6
f 1 6 17
f 1 17 27
f 1 27 40
f 1 40 52
f 1 52 67
f 1 67 66
f 1 66 83
f 1 83 82
f 1 82 100
f 1 100 99
f 1 99 116
f 1 116 117
f 1 117 137
f 1 137 155
f 1 155 154
f 1 154 174
f 1 174 192
f 1 192 191
f 1 191 210
f 1 210 229
f 1 229 248
f 1 248 247
f 1 247 269
f 1 269 288
f 1 288 306
f 1 306 304
f 1 304 323
f 1 323 324
f 1 324 339
f 1 339 349
f 1 349 353
f 1 353 351
f 1 351 350
f 1 350 362
f 1 362 354
f 1 354 340
f 1 340 325
f 1 325 307
f 1 307 289
f 1 289 270
f 1 270 253
f 1 253 252
f 1 252 251
f 1 251 250
f 1 250 230
f 1 230 211
f 1 211 193
f 1 193 175
f 1 175 156
f 1 156 138
f 1 138 119
f 1 119 101
f 1 101 84
f 1 84 68
f 1 68 54
f 1 54 41
f 1 41 29
f 1 29 20
f 1 20 11
f 1 11 3
f 1 3 4
f 1 4 10
f 1 10 19
f 1 19 12
f 1 12 5
f 1 5 2
f 2 5 6
f 3 7 8
f 3 8 9
f 3 9 10
f 3 10 4
f 3 11 7
f 5 12 21
f 5 21 13
f 5 13 14
f 5 14 15
f 5 15 16
f 5 16 6
f 6 16 17
f 7 11 8
f 8 11 18
f 8 18 9
f 9 18 28
f 9 28 42
f 9 42 53
f 9 53 69
f 9 69 85
f 9 85 102
f 9 102 118
f 9 118 121
f 9 121 120
f 9 120 139
f 9 139 157
f 9 157 176
f 9 176 194
f 9 194 212
f 9 212 232
f 9 232 231
f 9 231 254
f 9 254 272
f 9 272 291
f 9 291 290
f 9 290 309
f 9 309 327
f 9 327 341
f 9 341 356
f 9 356 364
f 9 364 358
f 9 358 357
f 9 357 345
f 9 345 344
f 9 344 343
f 9 343 342
f 9 342 328
f 9 328 311
f 9 311 310
f 9 310 293
f 9 293 292
f 9 292 276
f 9 276 273
f 9 273 255
f 9 255 234
f 9 234 233
f 9 233 214
f 9 214 213
f 9 213 195
f 9 195 177
f 9 177 159
f 9 159 158
f 9 158 140
f 9 140 123
f 9 123 122
f 9 122 104
f 9 104 103
f 9 103 87
f 9 87 86
f 9 86 70
f 9 70 56
f 9 56 55
f 9 55 44
f 9 44 43
f 9 43 32
f 9 32 31
f 9 31 21
f 9 21 12
f 9 12 19
f 9 19 10
f 11 20 18
f 13 21 31
f 13 31 22
f 13 22 23
f 13 23 14
f 14 23 24
f 14 24 15
f 15 24 36
f 15 36 25
f 15 25 16
f 16 25 26
f 16 26 27
f 16 27 17
f 18 20 28
f 20 29 30
f 20 30 28
f 22 31 32
f 22 32 33
f 22 33 23
f 23 33 34
f 23 34 24
f 24 34 35
f 24 35 36
f 25 36 37
f 25 37 38
f 25 38 26
f 26 38 39
f 26 39 40
f 26 40 27
f 28 30 41
f 28 41 42
f 29 41 30
f 32 43 33
f 33 43 44
f 33 44 45
f 33 45 46
f 33 46 34
f 34 46 35
f 35 46 47
f 35 47 48
f 35 48 36
f 36 48 37
f 37 48 49
f 37 49 50
f 37 50 38
f 38 50 39
f 39 50 51
f 39 51 52
f 39 52 40
f 41 53 42
f 41 54 53
f 44 55 45
f 45 55 56
f 45 56 57
f 45 57 46
f 46 57 58
f 46 58 59
f 46 59 47
f 47 59 60
f 47 60 48
f 48 60 61
f 48 61 62
f 48 62 49
f 49 62 63
f 49 63 50
f 50 63 64
f 50 64 51
f 51 64 65
f 51 65 66
f 51 66 67
f 51 67 52
f 53 54 68
f 53 68 69
f 56 70 57
f 57 71 58
f 57 70 86
f 57 86 71
f 58 71 72
f 58 72 73
f 58 73 59
f 59 73 74
f 59 74 60
f 60 74 75
f 60 75 76
f 60 76 61
f 61 76 62
f 62 76 77
f 62 77 78
f 62 78 63
f 63 78 79
f 63 79 64
f 64 79 80
f 64 80 65
f 65 80 81
f 65 81 82
f 65 82 83
f 65 83 66
f 68 84 85
f 68 85 69
f 71 86 87
f 71 87 88
f 71 88 89
f 71 89 72
f 72 89 73
f 73 89 90
f 73 90 74
f 74 90 91
f 74 91 75
f 75 91 92
f 75 92 76
f 76 92 93
f 76 93 94
f 76 94 77
f 77 95 78
f 77 94 95
f 78 95 96
f 78 96 79
f 79 96 97
f 79 97 80
f 80 97 98
f 80 98 81
f 81 98 99
f 81 99 100
f 81 100 82
f 84 101 102
f 84 102 85
f 87 103 88
f 88 103 104
f 88 104 105
f 88 105 89
f 89 105 106
f 89 106 90
f 90 106 107
f 90 107 91
f 91 107 108
f 91 108 92
f 92 94 93
f 92 108 109
f 92 109 110
f 92 110 94
f 94 110 111
f 94 111 112
f 94 112 95
f 95 112 113
f 95 113 96
f 96 113 114
f 96 114 97
f 97 114 115
f 97 115 98
f 98 116 99
f 98 115 117
f 98 117 116
f 101 118 102
f 101 119 120
f 101 120 121
f 101 121 118
f 104 122 105
f 105 122 123
f 105 123 124
f 105 124 125
f 105 125 106
f 106 125 126
f 106 126 107
f 107 126 127
f 107 127 108
f 108 127 128
f 108 128 109
f 109 129 130
f 109 130 110
f 109 128 129
f 110 130 111
f 111 130 131
f 111 131 132
f 111 132 112
f 112 132 133
f 112 133 113
f 113 133 134
f 113 134 114
f 114 134 135
f 114 135 136
f 114 136 115
f 115 136 155
f 115 155 137
f 115 137 117
f 119 138 139
f 119 139 120
f 123 140 124
f 124 140 158
f 124 158 141
f 124 141 142
f 124 142 125
f 125 142 126
f 126 142 143
f 126 143 127
f 127 143 144
f 127 144 128
f 128 144 145
f 128 145 129
f 129 145 146
f 129 146 147
f 129 147 130
f 130 147 131
f 131 147 148
f 131 148 149
f 131 149 132
f 132 149 150
f 132 150 133
f 133 150 151
f 133 151 134
f 134 151 152
f 134 152 135
f 135 152 136
f 136 152 153
f 136 153 154
f 136 154 155
f 138 156 139
f 139 156 157
f 141 158 159
f 141 159 160
f 141 160 161
f 141 161 142
f 142 161 162
f 142 162 143
f 143 162 144
f 144 162 163
f 144 163 145
f 145 163 164
f 145 164 146
f 146 165 147
f 146 164 166
f 146 166 165
f 147 165 148
f 148 165 167
f 148 167 168
f 148 168 169
f 148 169 149
f 149 169 186
f 149 186 170
f 149 170 150
f 150 170 171
f 150 171 151
f 151 171 152
f 152 171 172
f 152 172 173
f 152 173 153
f 153 173 192
f 153 192 174
f 153 174 154
f 156 175 176
f 156 176 157
f 159 177 160
f 160 178 161
f 160 177 195
f 160 195 178
f 161 178 179
f 161 179 180
f 161 180 162
f 162 180 163
f 163 180 181
f 163 181 164
f 164 181 199
f 164 199 182
f 164 182 183
f 164 183 166
f 165 166 167
f 166 183 184
f 166 184 167
f 167 184 185
f 167 185 168
f 168 185 187
f 168 187 169
f 169 187 205
f 169 205 186
f 170 186 188
f 170 188 171
f 171 188 189
f 171 189 172
f 172 189 190
f 172 190 173
f 173 190 191
f 173 191 192
f 175 193 176
f 176 193 194
f 178 195 213
f 178 213 196
f 178 196 197
f 178 197 179
f 179 197 198
f 179 198 180
f 180 198 199
f 180 199 181
f 182 199 200
f 182 200 201
f 182 201 202
f 182 202 183
f 183 202 203
f 183 203 184
f 184 203 204
f 184 204 185
f 185 204 187
f 186 205 207
f 186 207 188
f 187 204 206
f 187 206 223
f 187 223 205
f 188 207 208
f 188 208 189
f 189 208 209
f 189 209 190
f 190 209 210
f 190 210 191
f 193 211 194
f 194 211 212
f 196 213 214
f 196 214 215
f 196 215 216
f 196 216 197
f 197 216 198
f 198 216 217
f 198 217 200
f 198 200 199
f 200 217 218
f 200 218 201
f 201 218 219
f 201 219 220
f 201 220 202
f 202 220 221
f 202 221 203
f 203 221 204
f 204 221 222
f 204 222 206
f 205 223 207
f 206 222 224
f 206 224 225
f 206 225 223
f 207 223 226
f 207 226 227
f 207 227 208
f 208 227 228
f 208 228 209
f 209 228 229
f 209 229 210
f 211 230 231
f 211 231 232
f 211 232 212
f 214 233 215
f 215 234 235
f 215 235 236
f 215 236 216
f 215 233 234
f 216 236 217
f 217 236 237
f 217 237 218
f 218 237 238
f 218 238 219
f 219 238 239
f 219 239 240
f 219 240 220
f 220 240 241
f 220 241 221
f 221 241 222
f 222 241 242
f 222 242 224
f 223 225 226
f 224 242 243
f 224 243 244
f 224 244 225
f 225 244 245
f 225 245 226
f 226 245 246
f 226 246 227
f 227 246 249
f 227 249 228
f 228 247 248
f 228 248 229
f 228 249 247
f 230 250 231
f 231 250 251
f 231 251 252
f 231 252 253
f 231 253 254
f 234 255 235
f 235 256 236
f 235 255 273
f 235 273 257
f 235 257 256
f 236 256 258
f 236 258 237
f 237 258 238
f 238 258 259
f 238 259 239
f 239 259 260
f 239 260 261
f 239 261 240
f 240 262 241
f 240 261 262
f 241 262 242
f 242 262 263
f 242 263 243
f 243 263 264
f 243 264 265
f 243 265 244
f 244 266 245
f 244 265 266
f 245 266 246
f 246 266 267
f 246 267 268
f 246 268 249
f 247 249 269
f 249 268 287
f 249 287 269
f 253 270 271
f 253 271 272
f 253 272 254
f 256 257 274
f 256 274 275
f 256 275 258
f 257 276 274
f 257 273 276
f 258 275 259
f 259 275 277
f 259 277 260
f 260 277 278
f 260 278 279
f 260 279 261
f 261 263 262
f 261 279 280
f 261 280 281
f 261 281 263
f 263 281 280
f 263 280 282
f 263 282 264
f 264 282 283
f 264 283 284
f 264 284 265
f 265 284 285
f 265 285 266
f 266 285 267
f 267 285 286
f 267 286 268
f 268 286 304
f 268 304 287
f 269 287 288
f 270 289 290
f 270 290 291
f 270 291 272
f 270 272 271
f 274 276 292
f 274 292 293
f 274 293 294
f 274 294 295
f 274 295 275
f 275 295 277
f 277 295 296
f 277 296 278
f 278 296 297
f 278 297 298
f 278 298 279
f 279 298 280
f 280 298 299
f 280 299 300
f 280 300 282
f 282 300 283
f 283 301 284
f 283 300 302
f 283 302 301
f 284 301 303
f 284 303 285
f 285 303 286
f 286 303 305
f 286 305 323
f 286 323 304
f 287 304 306
f 287 306 288
f 289 307 308
f 289 308 290
f 290 308 307
f 290 307 309
f 293 310 294
f 294 310 311
f 294 311 312
f 294 312 295
f 295 312 313
f 295 313 296
f 296 313 314
f 296 314 297
f 297 314 315
f 297 315 316
f 297 316 298
f 298 316 317
f 298 317 299
f 299 317 300
f 300 317 318
f 300 318 302
f 301 319 303
f 301 302 320
f 301 320 319
f 302 318 321
f 302 321 320
f 303 319 322
f 303 322 305
f 305 322 324
f 305 324 323
f 307 325 326
f 307 326 327
f 307 327 309
f 311 328 312
f 312 328 342
f 312 342 329
f 312 329 313
f 313 329 314
f 314 329 330
f 314 330 315
f 315 330 331
f 315 331 332
f 315 332 316
f 316 332 317
f 317 332 333
f 317 333 334
f 317 334 318
f 318 334 321
f 319 320 322
f 320 335 322
f 320 321 335
f 321 334 336
f 321 336 337
f 321 337 338
f 321 338 335
f 322 335 349
f 322 349 339
f 322 339 324
f 325 340 355
f 325 355 341
f 325 341 327
f 325 327 326
f 329 343 330
f 329 342 343
f 330 343 344
f 330 344 345
f 330 345 346
f 330 346 331
f 331 346 347
f 331 347 332
f 332 347 333
f 333 347 348
f 333 348 334
f 334 348 336
f 335 338 353
f 335 353 349
f 336 348 337
f 337 350 351
f 337 351 353
f 337 353 338
f 337 348 352
f 337 352 350
f 340 354 363
f 340 363 355
f 341 355 360
f 341 360 356
f 345 357 346
f 346 358 359
f 346 359 347
f 346 357 358
f 347 359 360
f 347 360 361
f 347 361 348
f 348 361 363
f 348 363 352
f 350 352 362
f 352 363 354
f 352 354 362
f 355 363 360
f 356 360 359
f 356 359 364
f 358 364 359
f 360 363 361

