# https://github.com/mikedh/trimesh
v -0.01483647 -0.00461534 -0.00298952
v -0.01483647 -0.00461444 -0.00344921
v -0.01352632 -0.00368016 -0.00298952
v -0.01483647 -0.00461534 0.00298952
v -0.01483647 -0.00457468 -0.00390993
v -0.01352632 -0.00364673 -0.00390993
v -0.01352632 -0.00367926 -0.00344921
v -0.01352632 -0.00368016 0.00317360
v -0.01483647 -0.00461444 0.00344921
v -0.01483647 -0.00431897 -0.00431922
v -0.01459178 -0.00423675 -0.00422153
v -0.01374510 -0.00370998 -0.00417114
v -0.01352632 -0.00340820 -0.00433465
v -0.01352632 -0.00367926 0.00344921
v -0.01352632 -0.00364673 0.00390993
v -0.01483647 -0.00457468 0.00390993
v -0.01483647 -0.00390967 -0.00464419
v -0.01352632 -0.00268084 -0.00498973
v -0.01352632 -0.00297178 -0.00473058
v -0.01352632 -0.00300702 -0.00469870
v -0.01352632 -0.00363228 0.00396957
v -0.01374510 -0.00370998 0.00417114
v -0.01483647 -0.00455570 0.00395312
v -0.01483647 -0.00383829 -0.00470076
v -0.01483647 -0.00353921 -0.00493729
v -0.01468194 -0.00324556 -0.00507817
v -0.01483647 -0.00330248 -0.00510286
v -0.01352632 -0.00245043 -0.00514193
v -0.01352632 -0.00340820 0.00433465
v -0.01483647 -0.00431897 0.00431922
v -0.01459178 -0.00423675 0.00422153
v -0.01483647 -0.00298985 -0.00519850
v -0.01357005 -0.00246037 -0.00514605
v -0.01352632 -0.00206913 -0.00523860
v -0.01352632 -0.00336844 0.00437167
v -0.01352632 -0.00293383 0.00476554
v -0.01352632 -0.00268084 0.00498973
v -0.01352632 -0.00265915 0.00500824
v -0.01483647 -0.00425482 0.00437373
v -0.01483647 -0.00252994 -0.00524991
v -0.01448995 -0.00252994 -0.00524272
v -0.01357005 -0.00206913 -0.00524272
v -0.01352632 -0.00160922 -0.00525300
v -0.01352632 -0.00245043 0.00514193
v -0.01483647 -0.00343440 0.00501956
v -0.01483647 -0.00376871 0.00475937
v -0.01483647 -0.00206913 -0.00525300
v -0.01403006 -0.00206913 -0.00525300
v -0.01352632 0.00160922 -0.00525300
v -0.01483647 -0.00325188 0.00512651
v -0.01483647 -0.00330248 0.00510285
v -0.01352632 -0.00242332 0.00515119
v -0.01483647 0.00241610 -0.00525300
v -0.01403006 0.00206913 -0.00525300
v -0.01352632 0.00202576 -0.00524374
v -0.01483647 -0.00298985 0.00519850
v -0.01352632 -0.00206913 0.00523860
v -0.01483647 0.00252994 -0.00524991
v -0.01448995 0.00252994 -0.00524272
v -0.01357005 0.00206913 -0.00524272
v -0.01352632 0.00206913 -0.00523860
v -0.01483647 -0.00287600 0.00522420
v -0.01352632 -0.00202576 0.00524374
v -0.01357005 -0.00206913 0.00524272
v -0.01483647 0.00287600 -0.00522421
v -0.01483647 0.00298985 -0.00519850
v -0.01352632 0.00242332 -0.00515119
v -0.01448995 -0.00252994 0.00524272
v -0.01483647 -0.00252994 0.00524991
v -0.01352632 -0.00160922 0.00525300
v -0.01403006 -0.00206913 0.00525300
v -0.01483647 0.00325188 -0.00512651
v -0.01352632 0.00245043 -0.00514193
v -0.01483647 -0.00241610 0.00525300
v -0.01352632 0.00160922 0.00525300
v -0.01483647 0.00330248 -0.00510286
v -0.01483647 0.00343440 -0.00501956
v -0.01352632 0.00265915 -0.00500824
v -0.01483647 0.00206913 0.00525300
v -0.01403006 0.00206913 0.00525300
v -0.01352632 0.00206913 0.00523860
v -0.01357005 0.00206913 0.00524272
v -0.01483647 0.00376871 -0.00475937
v -0.01352632 0.00268084 -0.00498973
v -0.01483647 0.00425482 -0.00437373
v -0.01483647 0.00431897 -0.00431922
v -0.01483647 0.00252994 0.00524991
v -0.01448995 0.00252994 0.00524272
v -0.01357005 0.00246037 0.00514605
v -0.01483647 0.00298985 0.00519850
v -0.01352632 0.00245043 0.00514193
v -0.01352632 0.00293383 -0.00476554
v -0.01459178 0.00423675 -0.00422153
v -0.01374510 0.00370998 -0.00417114
v -0.01352632 0.00340820 -0.00433465
v -0.01352632 0.00336844 -0.00437167
v -0.01483647 0.00455570 -0.00395312
v -0.01483647 0.00330248 0.00510285
v -0.01352632 0.00268084 0.00498973
v -0.01483647 0.00457468 -0.00390993
v -0.01352632 0.00363228 -0.00396957
v -0.01468194 0.00324556 0.00507817
v -0.01483647 0.00353921 0.00493728
v -0.01352632 0.00297178 0.00473058
v -0.01483647 0.00431897 0.00431922
v -0.01483647 0.00390967 0.00464419
v -0.01483647 0.00383829 0.00470076
v -0.01352632 0.00364673 -0.00390993
v -0.01483647 0.00461444 -0.00344921
v -0.01352632 0.00300702 0.00469870
v -0.01483647 0.00457468 0.00390993
v -0.01352632 0.00340820 0.00433465
v -0.01374510 0.00370998 0.00417114
v -0.01459178 0.00423675 0.00422153
v -0.01352632 0.00367926 -0.00344921
v -0.01483647 0.00461534 -0.00298952
v -0.01352632 0.00368016 -0.00317360
v -0.01352632 0.00364673 0.00390993
v -0.01483647 0.00461444 0.00344921
v -0.01483647 0.00461534 0.00298952
v -0.01352632 0.00368016 0.00298952
v -0.01352632 0.00367926 0.00344921
f 1 2 7
f 1 7 3
f 1 3 8
f 1 8 4
f 1 4 9
f 1 9 16
f 1 16 23
f 1 23 30
f 1 30 39
f 1 39 46
f 1 46 45
f 1 45 51
f 1 51 50
f 1 50 56
f 1 56 62
f 1 62 69
f 1 69 74
f 1 74 79
f 1 79 87
f 1 87 90
f 1 90 98
f 1 98 103
f 1 103 107
f 1 107 106
f 1 106 105
f 1 105 111
f 1 111 119
f 1 119 120
f 1 120 116
f 1 116 109
f 1 109 100
f 1 100 97
f 1 97 86
f 1 86 85
f 1 85 83
f 1 83 77
f 1 77 76
f 1 76 72
f 1 72 66
f 1 66 65
f 1 65 58
f 1 58 53
f 1 53 47
f 1 47 40
f 1 40 32
f 1 32 27
f 1 27 25
f 1 25 24
f 1 24 17
f 1 17 10
f 1 10 5
f 1 5 2
f 2 5 6
f 2 6 7
f 3 7 6
f 3 6 13
f 3 13 20
f 3 20 19
f 3 19 18
f 3 18 28
f 3 28 34
f 3 34 43
f 3 43 49
f 3 49 55
f 3 55 61
f 3 61 67
f 3 67 73
f 3 73 78
f 3 78 84
f 3 84 92
f 3 92 96
f 3 96 95
f 3 95 101
f 3 101 108
f 3 108 115
f 3 115 117
f 3 117 121
f 3 121 122
f 3 122 118
f 3 118 112
f 3 112 110
f 3 110 104
f 3 104 99
f 3 99 91
f 3 91 81
f 3 81 75
f 3 75 70
f 3 70 63
f 3 63 57
f 3 57 52
f 3 52 44
f 3 44 38
f 3 38 37
f 3 37 36
f 3 36 35
f 3 35 29
f 3 29 21
f 3 21 15
f 3 15 14
f 3 14 8
f 4 8 9
f 5 10 11
f 5 11 12
f 5 12 6
f 6 12 13
f 8 14 9
f 9 14 15
f 9 15 16
f 10 17 18
f 10 18 19
f 10 19 20
f 10 20 13
f 10 13 12
f 10 12 11
f 15 21 16
f 16 21 22
f 16 22 23
f 17 24 18
f 18 24 25
f 18 25 26
f 18 26 27
f 18 27 28
f 21 29 22
f 22 29 30
f 22 30 31
f 22 31 23
f 23 31 30
f 25 27 26
f 27 32 28
f 28 32 33
f 28 33 34
f 29 35 30
f 30 35 36
f 30 36 37
f 30 37 38
f 30 38 39
f 32 40 41
f 32 41 42
f 32 42 34
f 32 34 33
f 34 42 43
f 38 44 45
f 38 45 46
f 38 46 39
f 40 47 48
f 40 48 41
f 41 48 42
f 42 48 43
f 43 48 47
f 43 47 53
f 43 53 54
f 43 54 49
f 44 50 51
f 44 51 45
f 44 52 50
f 49 54 55
f 50 52 56
f 52 57 56
f 53 58 54
f 54 58 59
f 54 59 55
f 55 59 60
f 55 60 61
f 56 57 62
f 57 63 64
f 57 64 62
f 58 65 59
f 59 65 60
f 60 65 61
f 61 65 66
f 61 66 67
f 62 64 68
f 62 68 69
f 63 68 64
f 63 70 71
f 63 71 68
f 66 72 67
f 67 72 73
f 68 71 69
f 69 71 74
f 70 75 80
f 70 80 79
f 70 79 74
f 70 74 71
f 72 76 73
f 73 76 77
f 73 77 78
f 75 81 82
f 75 82 80
f 77 83 78
f 78 83 85
f 78 85 86
f 78 86 84
f 79 80 87
f 80 82 88
f 80 88 87
f 81 89 90
f 81 90 82
f 81 91 89
f 82 90 88
f 84 86 92
f 86 93 94
f 86 94 95
f 86 95 96
f 86 96 92
f 86 97 93
f 87 88 90
f 89 91 90
f 90 91 98
f 91 99 98
f 93 97 94
f 94 97 100
f 94 100 101
f 94 101 95
f 98 99 102
f 98 102 103
f 99 104 105
f 99 105 106
f 99 106 107
f 99 107 103
f 99 103 102
f 100 108 101
f 100 109 108
f 104 110 105
f 105 110 112
f 105 112 113
f 105 113 114
f 105 114 111
f 108 109 115
f 109 116 117
f 109 117 115
f 111 118 119
f 111 114 113
f 111 113 118
f 112 118 113
f 116 120 121
f 116 121 117
f 118 122 119
f 119 122 121
f 119 121 120

