# https://github.com/mikedh/trimesh
v -0.00811794 0.01699211 -0.00344818
v -0.01081160 0.01719435 -0.00299158
v -0.01081160 0.01719558 -0.00345127
v -0.00811794 0.01701846 -0.00390993
v -0.00811794 0.01699211 0.00344818
v -0.01081160 0.01719435 0.00298746
v -0.01081160 0.01722929 -0.00390993
v -0.01080976 0.01722867 -0.00390993
v -0.00811794 0.01703133 -0.00397986
v -0.00811794 0.01701846 0.00390993
v -0.01081160 0.01719558 0.00344818
v -0.01081160 0.01737147 -0.00426472
v -0.00811794 0.01726299 -0.00436242
v -0.00811794 0.01726299 0.00436242
v -0.01080976 0.01737147 0.00426472
v -0.01080976 0.01722867 0.00390993
v -0.01081160 0.01722806 0.00390684
v -0.01081160 0.01758719 -0.00449508
v -0.00811794 0.01729731 -0.00439738
v -0.00811794 0.01737147 0.00446937
v -0.01081160 0.01804744 0.00495168
v -0.01080976 0.01781578 0.00472338
v -0.01081160 0.01758535 0.00449302
v -0.01081160 0.01737085 0.00426266
v -0.01081160 0.01781578 -0.00472338
v -0.01081160 0.01804867 -0.00495374
v -0.00811794 0.01749159 -0.00458866
v -0.00811794 0.01772447 0.00481696
v -0.00811794 0.01786604 0.00494860
v -0.01080976 0.01827787 0.00514913
v -0.01081160 0.01827726 0.00514810
v -0.00811794 0.01796471 -0.00504218
v -0.00811794 0.01772447 -0.00481696
v -0.01081160 0.01827787 -0.00514913
v -0.00811794 0.01804438 0.00507920
v -0.00817780 0.01797329 0.00503498
v -0.00811794 0.01816082 0.00514605
v -0.01081160 0.01862904 0.00524477
v -0.00811794 0.01816082 -0.00514605
v -0.01081160 0.01863088 -0.00524477
v -0.00811794 0.01863088 0.00525197
v -0.00851029 0.01863088 0.00525197
v -0.01080976 0.01909051 0.00525300
v -0.01081160 0.01908868 0.00525197
v -0.00851029 0.01863088 -0.00525197
v -0.00811794 0.01863088 -0.00525197
v -0.01081160 0.01909051 -0.00525300
v -0.00811794 0.01909051 0.00525300
v -0.01081160 0.01954893 0.00525300
v -0.00811794 0.01869890 -0.00525300
v -0.01081160 0.02046943 -0.00525300
v -0.00811794 0.02046943 0.00525300
v -0.01081160 0.02046759 0.00525300
v -0.00811794 0.02046943 -0.00525300
v -0.01081160 0.02092968 -0.00524889
v -0.01080976 0.02046943 0.00525300
v -0.00811794 0.02092907 0.00524991
v -0.00987557 0.02092968 0.00524991
v -0.01081160 0.02092784 0.00524991
v -0.00987557 0.02092968 -0.00524889
v -0.00811794 0.02092907 -0.00524889
v -0.01081160 0.02138932 -0.00520364
v -0.01080976 0.02092968 0.00524991
v -0.00811794 0.02132129 0.00521084
v -0.01081160 0.02138809 0.00520569
v -0.00811794 0.02138932 -0.00520364
v -0.00811794 0.02144264 -0.00519027
v -0.01081160 0.02174906 -0.00511211
v -0.00811794 0.02138932 0.00520364
v -0.00987557 0.02140035 0.00520261
v -0.01081160 0.02175274 0.00511211
v -0.00811794 0.02174906 -0.00511211
v -0.01081160 0.02197949 -0.00501441
v -0.00811794 0.02175274 0.00511211
v -0.00987557 0.02198317 0.00501647
v -0.01081160 0.02198195 0.00501647
v -0.00987557 0.02197949 -0.00501441
v -0.00811794 0.02197888 -0.00501441
v -0.01081160 0.02230921 -0.00480154
v -0.00987557 0.02229879 -0.00480977
v -0.00811794 0.02198256 0.00501647
v -0.00987557 0.02199298 0.00501030
v -0.01080976 0.02230921 0.00480668
v -0.01081160 0.02230859 0.00480668
v -0.00811794 0.02230921 -0.00480154
v -0.01081160 0.02255803 -0.00461746
v -0.00987557 0.02255803 -0.00461746
v -0.00811794 0.02255741 -0.00461746
v -0.00811794 0.02230921 0.00480668
v -0.00987557 0.02231718 0.00480154
v -0.01081160 0.02256048 0.00461951
v -0.01081160 0.02275720 -0.00436859
v -0.01034965 0.02275720 -0.00436859
v -0.00811794 0.02275659 -0.00436859
v -0.00811794 0.02256048 0.00461951
v -0.00987557 0.02276578 0.00436036
v -0.01081160 0.02275904 0.00436859
v -0.01081160 0.02296864 -0.00407653
v -0.00987557 0.02296864 -0.00407653
v -0.00811794 0.02296802 -0.00407653
v -0.00811794 0.02275904 0.00436859
v -0.01081160 0.02296741 0.00407652
v -0.00811794 0.02296802 0.00407550
v -0.01081160 0.02307221 -0.00384720
v -0.00897013 0.02307221 -0.00384720
v -0.00811794 0.02307159 -0.00384720
v -0.01080976 0.02296802 0.00407550
v -0.01081160 0.02307221 0.00384514
v -0.00811794 0.02305689 0.00387907
v -0.00987557 0.02297170 0.00406830
v -0.01081160 0.02319294 -0.00344818
v -0.00987557 0.02318926 -0.00346155
v -0.00811794 0.02308998 -0.00378755
v -0.00987557 0.02307650 0.00383280
v -0.01081160 0.02319355 0.00344818
v -0.00811794 0.02307221 0.00384514
v -0.01081160 0.02324626 -0.00298952
v -0.00987557 0.02324503 -0.00300289
v -0.00987557 0.02319294 -0.00344818
v -0.00811794 0.02319233 -0.00344818
v -0.00811794 0.02317517 0.00350783
v -0.00987557 0.02319355 0.00344818
v -0.01081160 0.02324626 0.00298952
v -0.00811794 0.02324626 -0.00298952
v -0.01081160 0.02325300 -0.00252983
v -0.00811794 0.02320029 -0.00338134
v -0.00811794 0.02319294 0.00344818
v -0.00811794 0.02324626 0.00298952
v -0.00987557 0.02324687 0.00297409
v -0.01081160 0.02325300 0.00252983
v -0.00811794 0.02325300 -0.00252983
v -0.00811794 0.02325300 0.00252983
f 1 2 3
f 1 3 4
f 1 4 9
f 1 9 13
f 1 13 19
f 1 19 27
f 1 27 33
f 1 33 32
f 1 32 39
f 1 39 46
f 1 46 50
f 1 50 54
f 1 54 61
f 1 61 66
f 1 66 67
f 1 67 72
f 1 72 78
f 1 78 85
f 1 85 88
f 1 88 94
f 1 94 100
f 1 100 106
f 1 106 113
f 1 113 120
f 1 120 126
f 1 126 124
f 1 124 131
f 1 131 132
f 1 132 128
f 1 128 127
f 1 127 121
f 1 121 116
f 1 116 109
f 1 109 103
f 1 103 101
f 1 101 95
f 1 95 89
f 1 89 81
f 1 81 74
f 1 74 69
f 1 69 64
f 1 64 57
f 1 57 52
f 1 52 48
f 1 48 41
f 1 41 37
f 1 37 35
f 1 35 29
f 1 29 28
f 1 28 20
f 1 20 14
f 1 14 10
f 1 10 5
f 1 5 6
f 1 6 2
f 2 6 11
f 2 11 17
f 2 17 24
f 2 24 23
f 2 23 21
f 2 21 31
f 2 31 38
f 2 38 44
f 2 44 49
f 2 49 53
f 2 53 59
f 2 59 65
f 2 65 71
f 2 71 76
f 2 76 84
f 2 84 91
f 2 91 97
f 2 97 102
f 2 102 108
f 2 108 115
f 2 115 123
f 2 123 130
f 2 130 125
f 2 125 117
f 2 117 111
f 2 111 104
f 2 104 98
f 2 98 92
f 2 92 86
f 2 86 79
f 2 79 73
f 2 73 68
f 2 68 62
f 2 62 55
f 2 55 51
f 2 51 47
f 2 47 40
f 2 40 34
f 2 34 26
f 2 26 25
f 2 25 18
f 2 18 12
f 2 12 7
f 2 7 3
f 3 7 8
f 3 8 4
f 4 8 9
f 5 10 11
f 5 11 6
f 7 12 8
f 8 12 9
f 9 12 13
f 10 14 15
f 10 15 16
f 10 16 17
f 10 17 11
f 12 18 13
f 13 18 19
f 14 20 21
f 14 21 22
f 14 22 23
f 14 23 15
f 15 24 16
f 15 23 24
f 16 24 17
f 18 25 19
f 19 25 26
f 19 26 27
f 20 28 21
f 21 28 29
f 21 29 30
f 21 30 31
f 21 23 22
f 26 32 33
f 26 33 27
f 26 34 32
f 29 35 36
f 29 36 30
f 30 36 35
f 30 35 37
f 30 37 38
f 30 38 31
f 32 34 39
f 34 40 39
f 37 41 42
f 37 42 38
f 38 42 43
f 38 43 44
f 39 40 45
f 39 45 46
f 40 47 45
f 41 48 43
f 41 43 42
f 43 48 52
f 43 52 56
f 43 56 53
f 43 53 49
f 43 49 44
f 45 47 50
f 45 50 46
f 47 51 54
f 47 54 50
f 51 55 60
f 51 60 54
f 52 57 58
f 52 58 63
f 52 63 56
f 53 56 63
f 53 63 59
f 54 60 61
f 55 62 66
f 55 66 60
f 57 64 65
f 57 65 58
f 58 65 63
f 59 63 65
f 60 66 61
f 62 67 66
f 62 68 67
f 64 69 65
f 65 69 70
f 65 70 71
f 67 68 72
f 68 73 77
f 68 77 72
f 69 74 70
f 70 74 71
f 71 74 75
f 71 75 76
f 72 77 78
f 73 79 80
f 73 80 77
f 74 81 75
f 75 81 82
f 75 82 76
f 76 82 83
f 76 83 84
f 77 80 78
f 78 80 85
f 79 86 80
f 80 86 87
f 80 87 88
f 80 88 85
f 81 89 82
f 82 89 83
f 83 89 90
f 83 90 91
f 83 91 84
f 86 92 93
f 86 93 87
f 87 93 94
f 87 94 88
f 89 95 90
f 90 95 91
f 91 96 97
f 91 95 96
f 92 98 99
f 92 99 93
f 93 99 94
f 94 99 100
f 95 101 96
f 96 102 97
f 96 101 103
f 96 103 102
f 98 104 105
f 98 105 99
f 99 105 100
f 100 105 106
f 102 103 107
f 102 107 108
f 103 109 110
f 103 110 107
f 104 111 112
f 104 112 105
f 105 112 113
f 105 113 106
f 107 110 108
f 108 114 115
f 108 110 116
f 108 116 114
f 109 116 110
f 111 117 118
f 111 118 119
f 111 119 112
f 112 119 120
f 112 120 113
f 114 121 122
f 114 122 115
f 114 116 121
f 115 122 128
f 115 128 123
f 117 124 118
f 117 125 131
f 117 131 124
f 118 124 119
f 119 124 126
f 119 126 120
f 121 127 122
f 122 127 128
f 123 128 129
f 123 129 130
f 125 130 132
f 125 132 131
f 128 132 129
f 129 132 130

