# https://github.com/mikedh/trimesh
v 0.02046894 0.00849321 0.00525300
v 0.02092903 0.00849321 0.00524991
v 0.01907389 0.00849321 0.00525300
v 0.02046894 -0.00805461 0.00525300
v 0.02137233 0.00849321 0.00520569
v 0.02092903 -0.00805461 0.00524991
v 0.02138442 -0.00805461 0.00520569
v 0.01863059 0.00849321 0.00525197
v 0.01863059 0.00804938 0.00525300
v 0.01863059 -0.00805461 0.00525300
v 0.02138913 0.00849321 0.00520364
v 0.02174914 -0.00805461 0.00511211
v 0.02173906 0.00849321 0.00511520
v 0.01861380 0.00849321 0.00524889
v 0.01639059 0.00396912 0.00524991
v 0.01639059 0.00350910 0.00525300
v 0.01814968 -0.00805461 0.00514399
v 0.01639059 -0.00344954 0.00525300
v 0.01639059 -0.00390794 0.00524991
v 0.02198221 -0.00805461 0.00501647
v 0.02185660 0.00549659 0.00506892
v 0.02185660 0.00549821 0.00506892
v 0.02175250 0.00849321 0.00511005
v 0.01823498 0.00849321 0.00515427
v 0.01639059 0.00447936 0.00517998
v 0.01811811 -0.00805461 0.00512548
v 0.01639059 -0.00439388 0.00518821
v 0.01639059 -0.00464494 0.00513782
v 0.02230931 -0.00805461 0.00480668
v 0.02198221 0.00849321 0.00501647
v 0.01822558 0.00849321 0.00514913
v 0.01639059 0.00464619 0.00513782
v 0.01792870 -0.00786509 0.00506995
v 0.01775608 -0.00805461 0.00485810
v 0.01639059 -0.00482960 0.00506583
v 0.02256051 -0.00805461 0.00461951
v 0.02230931 0.00849321 0.00480668
v 0.01800661 0.00849321 0.00500104
v 0.01639059 0.00477740 0.00509668
v 0.01771780 -0.00805461 0.00482211
v 0.01639059 -0.00629551 0.00424415
v 0.01699911 -0.00789911 0.00416599
v 0.01725368 -0.00805461 0.00437167
v 0.01770705 -0.00805461 0.00481182
v 0.02276067 -0.00805461 0.00436859
v 0.02256051 0.00849321 0.00461951
v 0.01799788 0.00849321 0.00499487
v 0.01639059 0.00494748 0.00501133
v 0.01776347 0.00849321 0.00477274
v 0.01752503 0.00849321 0.00453930
v 0.01731010 0.00849321 0.00431717
v 0.01639059 -0.00655630 0.00390170
v 0.01699509 -0.00805461 0.00390993
v 0.02296888 -0.00805461 0.00407858
v 0.02276067 0.00849321 0.00436859
v 0.01639059 0.00629677 0.00424415
v 0.01729733 0.00849321 0.00429249
v 0.01639059 -0.00660975 0.00344818
v 0.01696889 -0.00805461 0.00344818
v 0.01697292 -0.00805461 0.00352120
v 0.02307098 -0.00805461 0.00385028
v 0.02301590 0.00549659 0.00397471
v 0.02296888 0.00849321 0.00407858
v 0.01710994 0.00849321 0.00390993
v 0.01639059 0.00644255 0.00408578
v 0.01639059 -0.00660975 -0.00298952
v 0.01696889 -0.00805461 0.00298952
v 0.02307232 -0.00805461 0.00384719
v 0.02306829 0.00849321 0.00385748
v 0.02301590 0.00549821 0.00397471
v 0.01708039 0.00849321 0.00344818
v 0.01639059 0.00655593 0.00389964
v 0.01639059 -0.00660813 -0.00344818
v 0.01697158 -0.00805461 -0.00298952
v 0.02319188 -0.00805461 0.00345332
v 0.02312672 0.00549659 0.00366826
v 0.02307232 0.00849321 0.00384719
v 0.01708039 0.00849321 -0.00344818
v 0.01639059 0.00660939 0.00344818
v 0.01639059 0.00657213 0.00376287
v 0.01639059 -0.00657250 -0.00376287
v 0.01697225 -0.00805461 -0.00344818
v 0.02319255 -0.00805461 0.00344818
v 0.02319255 0.00849321 0.00344818
v 0.02318852 0.00849321 0.00346361
v 0.02312672 0.00549821 0.00366826
v 0.01708173 0.00849321 -0.00347389
v 0.01639059 0.00655593 -0.00389964
v 0.01639059 0.00660939 -0.00344818
v 0.01639059 -0.00655468 -0.00389964
v 0.01699105 -0.00805461 -0.00378344
v 0.02324628 -0.00805461 0.00298952
v 0.02324628 0.00849321 0.00298952
v 0.01710994 0.00849321 -0.00390993
v 0.01639059 0.00629677 -0.00424415
v 0.01639059 -0.00644130 -0.00408578
v 0.01702128 -0.00805461 -0.00403642
v 0.01699844 -0.00805461 -0.00390993
v 0.02325233 -0.00805461 0.00253394
v 0.02324964 0.00549659 0.00278179
v 0.02324964 0.00549821 0.00278179
v 0.02325233 0.00849321 0.00254526
v 0.01731010 0.00849321 -0.00431717
v 0.01639059 0.00482923 -0.00506583
v 0.01639059 -0.00629551 -0.00424415
v 0.01700113 -0.00789749 -0.00416394
v 0.01725435 -0.00805461 -0.00437064
v 0.02325233 -0.00805461 -0.00252983
v 0.02325233 0.00849321 -0.00252983
v 0.01753376 0.00849321 -0.00454753
v 0.01639059 0.00464619 -0.00513782
v 0.01776347 0.00849321 -0.00477274
v 0.01800661 0.00849321 -0.00500105
v 0.01639059 -0.00494623 -0.00501133
v 0.01726577 -0.00805461 -0.00438196
v 0.01639059 -0.00477777 -0.00509669
v 0.02324561 -0.00805461 -0.00298952
v 0.02324628 0.00298915 -0.00298952
v 0.02324628 0.00849321 -0.00298952
v 0.01639059 0.00439351 -0.00518821
v 0.01823498 0.00849321 -0.00515428
v 0.01748406 -0.00805461 -0.00459586
v 0.01639059 -0.00464494 -0.00513782
v 0.01795691 -0.00805461 -0.00504732
v 0.01771780 -0.00805461 -0.00482211
v 0.02319255 -0.00805461 -0.00344510
v 0.02319255 -0.00620804 -0.00344818
v 0.02322210 0.00549659 -0.00319725
v 0.02322210 0.00549821 -0.00319725
v 0.02319456 0.00849321 -0.00343276
v 0.01639059 0.00390757 -0.00524991
v 0.01863059 0.00849321 -0.00525197
v 0.01639059 -0.00447972 -0.00517998
v 0.01814968 -0.00805461 -0.00514399
v 0.02319188 -0.00805461 -0.00344818
v 0.02307367 -0.00805461 -0.00384308
v 0.02313814 0.00549659 -0.00363021
v 0.02319255 0.00849321 -0.00344818
v 0.01639059 0.00344917 -0.00525300
v 0.01909068 0.00849321 -0.00525300
v 0.01863059 0.00804938 -0.00525300
v 0.01639059 -0.00396949 -0.00524991
v 0.01816781 -0.00805461 -0.00514810
v 0.02307232 -0.00805461 -0.00384720
v 0.02307232 0.00849321 -0.00384720
v 0.02313814 0.00549821 -0.00363021
v 0.01639059 -0.00350947 -0.00525300
v 0.02046894 0.00849321 -0.00525300
v 0.01863059 -0.00805461 -0.00525300
v 0.02296888 -0.00805461 -0.00407858
v 0.02297291 0.00849321 -0.00407036
v 0.02092903 0.00849321 -0.00524991
v 0.02046894 -0.00805461 -0.00525300
v 0.02276268 -0.00805461 -0.00436550
v 0.02276067 -0.00758811 -0.00436859
v 0.02287485 0.00549659 -0.00421022
v 0.02296888 0.00849321 -0.00407858
v 0.02138913 0.00849321 -0.00520364
v 0.02092903 -0.00805461 -0.00524991
v 0.02256051 -0.00805461 -0.00461951
v 0.02256790 0.00849321 -0.00461129
v 0.02276067 0.00849321 -0.00436859
v 0.02287485 0.00549821 -0.00421022
v 0.02276806 0.00849321 -0.00435830
v 0.02140256 0.00849321 -0.00520055
v 0.02138913 -0.00805461 -0.00520364
v 0.02230931 -0.00805461 -0.00480668
v 0.02256051 0.00849321 -0.00461951
v 0.02174847 0.00849321 -0.00511005
v 0.02174914 0.00114906 -0.00511005
v 0.02174981 -0.00666807 -0.00511005
v 0.02174981 -0.00805461 -0.00511005
v 0.02198288 -0.00805461 -0.00501441
v 0.02230931 0.00298915 -0.00480668
v 0.02230931 0.00849321 -0.00480565
v 0.02175653 0.00849321 -0.00510697
v 0.02197952 -0.00482960 -0.00501647
v 0.02197952 -0.00805461 -0.00501647
v 0.02197818 0.00849321 -0.00501544
f 1 2 5
f 1 5 11
f 1 11 13
f 1 13 23
f 1 23 30
f 1 30 37
f 1 37 46
f 1 46 55
f 1 55 63
f 1 63 69
f 1 69 77
f 1 77 85
f 1 85 84
f 1 84 93
f 1 93 102
f 1 102 109
f 1 109 119
f 1 119 130
f 1 130 138
f 1 138 145
f 1 145 151
f 1 151 157
f 1 157 164
f 1 164 162
f 1 162 161
f 1 161 168
f 1 168 175
f 1 175 179
f 1 179 176
f 1 176 169
f 1 169 165
f 1 165 158
f 1 158 152
f 1 152 148
f 1 148 140
f 1 140 132
f 1 132 121
f 1 121 113
f 1 113 112
f 1 112 110
f 1 110 103
f 1 103 94
f 1 94 87
f 1 87 78
f 1 78 71
f 1 71 64
f 1 64 57
f 1 57 51
f 1 51 50
f 1 50 49
f 1 49 47
f 1 47 38
f 1 38 31
f 1 31 24
f 1 24 14
f 1 14 8
f 1 8 3
f 1 3 9
f 1 9 16
f 1 16 18
f 1 18 10
f 1 10 4
f 1 4 6
f 1 6 2
f 2 6 7
f 2 7 5
f 3 8 9
f 4 10 17
f 4 17 26
f 4 26 34
f 4 34 40
f 4 40 44
f 4 44 43
f 4 43 53
f 4 53 60
f 4 60 59
f 4 59 67
f 4 67 74
f 4 74 82
f 4 82 91
f 4 91 98
f 4 98 97
f 4 97 107
f 4 107 115
f 4 115 122
f 4 122 125
f 4 125 124
f 4 124 134
f 4 134 143
f 4 143 149
f 4 149 153
f 4 153 159
f 4 159 166
f 4 166 172
f 4 172 178
f 4 178 173
f 4 173 167
f 4 167 160
f 4 160 154
f 4 154 150
f 4 150 144
f 4 144 136
f 4 136 135
f 4 135 126
f 4 126 117
f 4 117 108
f 4 108 99
f 4 99 92
f 4 92 83
f 4 83 75
f 4 75 68
f 4 68 61
f 4 61 54
f 4 54 45
f 4 45 36
f 4 36 29
f 4 29 20
f 4 20 12
f 4 12 7
f 4 7 6
f 5 7 11
f 7 12 13
f 7 13 11
f 8 14 15
f 8 15 16
f 8 16 9
f 10 18 19
f 10 19 17
f 12 20 21
f 12 21 22
f 12 22 23
f 12 23 13
f 14 24 15
f 15 25 32
f 15 32 39
f 15 39 48
f 15 48 56
f 15 56 65
f 15 65 72
f 15 72 80
f 15 80 79
f 15 79 89
f 15 89 88
f 15 88 95
f 15 95 104
f 15 104 111
f 15 111 120
f 15 120 131
f 15 131 139
f 15 139 147
f 15 147 142
f 15 142 133
f 15 133 123
f 15 123 116
f 15 116 114
f 15 114 105
f 15 105 96
f 15 96 90
f 15 90 81
f 15 81 73
f 15 73 66
f 15 66 58
f 15 58 52
f 15 52 41
f 15 41 35
f 15 35 28
f 15 28 27
f 15 27 19
f 15 19 18
f 15 18 16
f 15 24 25
f 17 19 27
f 17 27 28
f 17 28 26
f 20 29 37
f 20 37 30
f 20 30 22
f 20 22 21
f 22 30 23
f 24 31 32
f 24 32 25
f 26 28 33
f 26 33 34
f 28 35 33
f 29 36 46
f 29 46 37
f 31 38 39
f 31 39 32
f 33 35 34
f 34 35 40
f 35 41 42
f 35 42 43
f 35 43 44
f 35 44 40
f 36 45 55
f 36 55 46
f 38 47 39
f 39 47 49
f 39 49 50
f 39 50 51
f 39 51 48
f 41 52 42
f 42 52 53
f 42 53 43
f 45 54 63
f 45 63 55
f 48 51 56
f 51 57 56
f 52 58 59
f 52 59 60
f 52 60 53
f 54 61 62
f 54 62 70
f 54 70 63
f 56 57 64
f 56 64 65
f 58 66 67
f 58 67 59
f 61 68 69
f 61 69 62
f 62 69 70
f 63 70 69
f 64 71 72
f 64 72 65
f 66 73 74
f 66 74 67
f 68 75 76
f 68 76 86
f 68 86 77
f 68 77 69
f 71 78 89
f 71 89 79
f 71 79 80
f 71 80 72
f 73 81 82
f 73 82 74
f 75 83 84
f 75 84 85
f 75 85 86
f 75 86 76
f 77 86 85
f 78 87 88
f 78 88 89
f 81 90 82
f 82 90 91
f 83 92 93
f 83 93 84
f 87 94 88
f 88 94 95
f 90 96 97
f 90 97 98
f 90 98 91
f 92 99 100
f 92 100 101
f 92 101 93
f 93 101 102
f 94 103 95
f 95 103 104
f 96 105 106
f 96 106 97
f 97 106 107
f 99 108 109
f 99 109 102
f 99 102 100
f 100 102 101
f 103 110 104
f 104 110 112
f 104 112 113
f 104 113 111
f 105 114 106
f 106 114 107
f 107 114 116
f 107 116 115
f 108 117 118
f 108 118 119
f 108 119 109
f 111 113 121
f 111 121 120
f 115 116 122
f 116 123 124
f 116 124 125
f 116 125 122
f 117 126 127
f 117 127 118
f 118 127 128
f 118 128 129
f 118 129 119
f 119 129 130
f 120 121 131
f 121 132 131
f 123 133 134
f 123 134 124
f 126 135 127
f 127 135 136
f 127 136 137
f 127 137 146
f 127 146 138
f 127 138 130
f 127 130 128
f 128 130 129
f 131 132 139
f 132 140 141
f 132 141 139
f 133 142 134
f 134 142 143
f 136 144 145
f 136 145 146
f 136 146 137
f 138 146 145
f 139 141 140
f 139 140 148
f 139 148 153
f 139 153 149
f 139 149 147
f 142 147 149
f 142 149 143
f 144 150 151
f 144 151 145
f 148 152 159
f 148 159 153
f 150 154 155
f 150 155 156
f 150 156 163
f 150 163 157
f 150 157 151
f 152 158 166
f 152 166 159
f 154 160 155
f 155 160 161
f 155 161 162
f 155 162 163
f 155 163 156
f 157 163 164
f 158 165 166
f 160 167 174
f 160 174 168
f 160 168 161
f 162 164 163
f 165 169 170
f 165 170 171
f 165 171 172
f 165 172 166
f 167 173 174
f 168 174 175
f 169 176 170
f 170 176 171
f 171 176 177
f 171 177 178
f 171 178 172
f 173 178 177
f 173 177 174
f 174 177 179
f 174 179 175
f 176 179 177

