# https://github.com/mikedh/trimesh
v -0.01909027 0.00992717 0.00525300
v -0.01863045 0.00992717 0.00523449
v -0.02047035 0.00992717 0.00525300
v -0.01687053 0.00390470 0.00525300
v -0.01687053 0.00436683 0.00525197
v -0.01860297 0.00992717 0.00522832
v -0.02092954 0.00992717 0.00524889
v -0.02047035 -0.00903293 0.00525300
v -0.01687053 -0.00398668 0.00525300
v -0.01687053 0.00482524 0.00521392
v -0.01829746 0.00992717 0.00513885
v -0.02135250 0.00992717 0.00520878
v -0.02092954 -0.00160924 0.00524889
v -0.02092954 -0.00903293 0.00524683
v -0.01909027 -0.00903293 0.00525300
v -0.01863045 -0.00804929 0.00525300
v -0.01863045 -0.00850956 0.00525197
v -0.01687053 -0.00444509 0.00525197
v -0.01687053 0.00525024 0.00513782
v -0.01806755 0.00992717 0.00493317
v -0.01687053 0.00538573 0.00511005
v -0.02138936 0.00992717 0.00520364
v -0.02138936 -0.00903293 0.00520364
v -0.01869355 -0.00903293 0.00524889
v -0.01863045 -0.00896983 0.00524889
v -0.01687053 -0.00490721 0.00521084
v -0.01863045 -0.00903293 0.00524683
v -0.01790199 0.00992717 0.00476760
v -0.01687053 0.00716370 0.00428529
v -0.01739282 0.00992531 0.00424107
v -0.01758962 0.00992531 0.00445394
v -0.01760711 0.00992531 0.00447245
v -0.02175297 0.00992717 0.00511211
v -0.02175297 -0.00903293 0.00511211
v -0.01687053 -0.00532108 0.00512754
v -0.01831745 -0.00903293 0.00516456
v -0.01826997 -0.00903293 0.00515119
v -0.01738282 0.00992531 0.00421536
v -0.01727224 0.00992531 0.00390787
v -0.01723850 0.00992531 0.00344818
v -0.01790199 0.00992717 -0.00476760
v -0.01687053 0.00758499 0.00395106
v -0.02196413 0.00992717 0.00502470
v -0.02198288 -0.00903293 0.00501647
v -0.01687053 -0.00538604 0.00511005
v -0.01807130 -0.00903293 0.00498973
v -0.01687053 0.00763139 0.00390993
v -0.01687053 0.00772976 0.00344818
v -0.01687053 0.00773347 0.00298952
v -0.01723850 0.00992531 -0.00344818
v -0.01727224 0.00992531 -0.00390787
v -0.01739282 0.00992531 -0.00424107
v -0.01741031 0.00992531 -0.00426164
v -0.01760711 0.00992531 -0.00447245
v -0.01687053 0.00538573 -0.00511005
v -0.01806755 0.00992717 -0.00493317
v -0.02198288 0.00992717 0.00501647
v -0.02230900 -0.00903293 0.00480668
v -0.01687053 -0.00552709 0.00505761
v -0.01804006 -0.00903293 0.00496197
v -0.01790199 -0.00903293 0.00482725
v -0.01757587 -0.00903107 0.00450331
v -0.01738907 -0.00903107 0.00430586
v -0.01687053 0.00773347 -0.00298952
v -0.01687053 0.00772976 -0.00344818
v -0.01687053 0.00770377 -0.00358804
v -0.01687053 0.00763139 -0.00390993
v -0.01687053 0.00761469 -0.00393358
v -0.01687053 0.00744580 -0.00412486
v -0.01687053 0.00716370 -0.00428529
v -0.01687053 0.00552492 -0.00505761
v -0.01687053 0.00532263 -0.00512754
v -0.01829746 0.00992717 -0.00513885
v -0.02230900 0.00992717 0.00480668
v -0.02234398 -0.00903293 0.00478097
v -0.01687053 -0.00716216 0.00428529
v -0.01735971 -0.00903107 0.00427398
v -0.01790199 -0.00903293 -0.00482622
v -0.01717228 -0.00903107 0.00344818
v -0.01720602 -0.00903107 0.00390684
v -0.01722414 -0.00903107 0.00395415
v -0.01687053 0.00490504 -0.00521084
v -0.01863045 0.00992717 -0.00523449
v -0.02256077 0.00992717 0.00461951
v -0.02256077 -0.00903293 0.00461951
v -0.01700047 -0.00789339 0.00416394
v -0.01687053 -0.00744611 0.00412486
v -0.01780578 -0.00903107 -0.00473161
v -0.01757587 -0.00903107 -0.00450331
v -0.01735971 -0.00903107 -0.00427398
v -0.01720602 -0.00903107 -0.00390993
v -0.01717228 -0.00903107 -0.00344818
v -0.01804006 -0.00903293 -0.00496197
v -0.01687053 -0.00538604 -0.00511005
v -0.01687053 -0.00773378 0.00298952
v -0.01687053 -0.00773007 0.00344818
v -0.01687053 -0.00770409 0.00358804
v -0.01687053 -0.00763171 0.00390993
v -0.01687053 -0.00761315 0.00393358
v -0.01687053 0.00444663 -0.00525197
v -0.01909027 0.00992717 -0.00525300
v -0.02274445 0.00992717 0.00438915
v -0.02276069 -0.00903293 0.00436859
v -0.01687053 -0.00716216 -0.00428529
v -0.01700047 -0.00789339 -0.00416394
v -0.01687053 -0.00763171 -0.00390993
v -0.01687053 -0.00773007 -0.00344818
v -0.01687053 -0.00773378 -0.00298952
v -0.01826997 -0.00903293 -0.00515119
v -0.01687053 -0.00525242 -0.00513782
v -0.01687053 0.00398636 -0.00525300
v -0.02047035 0.00992717 -0.00525300
v -0.02276069 0.00992717 0.00436859
v -0.02296936 -0.00903293 0.00407858
v -0.01687053 -0.00758531 -0.00395106
v -0.01863045 -0.00903293 -0.00524683
v -0.01687053 -0.00482555 -0.00521392
v -0.01687053 -0.00390502 -0.00525300
v -0.02092954 0.00992717 -0.00524991
v -0.02047035 -0.00903293 -0.00525300
v -0.02296936 0.00992717 0.00407858
v -0.02298373 -0.00903293 0.00404670
v -0.01909027 -0.00903293 -0.00525300
v -0.01863045 -0.00896983 -0.00524889
v -0.01687053 -0.00436528 -0.00525197
v -0.01725038 -0.00482555 -0.00525300
v -0.02138936 0.00992717 -0.00520364
v -0.02092954 -0.00903293 -0.00524991
v -0.02306432 0.00992717 0.00386776
v -0.02307244 -0.00903293 0.00384719
v -0.01863045 -0.00804929 -0.00525300
v -0.01863045 -0.00850956 -0.00525197
v -0.02141873 0.00992717 -0.00519747
v -0.02138936 -0.00903293 -0.00520364
v -0.02307244 0.00992717 0.00384719
v -0.02308931 -0.00903293 0.00379269
v -0.02175297 0.00992717 -0.00511211
v -0.02175297 -0.00903293 -0.00511211
v -0.02318365 0.00992717 0.00348212
v -0.02319302 -0.00903293 0.00344818
v -0.02198288 0.00992717 -0.00501647
v -0.02195164 -0.00903293 -0.00502984
v -0.02319302 0.00992717 0.00344818
v -0.02320052 -0.00903293 0.00338648
v -0.02200912 0.00992717 -0.00500002
v -0.02198288 -0.00903293 -0.00501647
v -0.02324238 0.00992717 0.00302551
v -0.02324613 -0.00903293 0.00298952
v -0.02230900 0.00992717 -0.00480668
v -0.02226464 -0.00903293 -0.00483548
v -0.02324613 0.00992717 0.00298952
v -0.02324738 -0.00903293 0.00292679
v -0.02256077 0.00992717 -0.00461951
v -0.02230900 -0.00903293 -0.00480668
v -0.02325300 0.00992717 0.00252983
v -0.02325300 -0.00903293 0.00252983
v -0.02276069 0.00992717 -0.00436859
v -0.02256077 -0.00903293 -0.00461951
v -0.02325300 0.00992717 -0.00252983
v -0.02325300 -0.00903293 -0.00252983
v -0.02296936 0.00992717 -0.00407858
v -0.02276069 -0.00903293 -0.00436859
v -0.02294125 -0.00903293 -0.00411766
v -0.02324675 0.00992717 -0.00295250
v -0.02324613 -0.00903293 -0.00298952
v -0.02307182 0.00992717 -0.00384720
v -0.02296936 -0.00903293 -0.00407858
v -0.02307244 0.00298788 -0.00384720
v -0.02324613 0.00992717 -0.00298952
v -0.02319302 -0.00903293 -0.00344818
v -0.02319739 0.00992717 -0.00341219
v -0.02308182 0.00992717 -0.00381634
v -0.02307244 -0.00903293 -0.00384720
v -0.02317678 -0.00903293 -0.00350269
v -0.02319302 0.00666631 -0.00344818
v -0.02319240 0.00992717 -0.00344818
f 1 2 6
f 1 6 11
f 1 11 20
f 1 20 28
f 1 28 41
f 1 41 56
f 1 56 73
f 1 73 83
f 1 83 101
f 1 101 112
f 1 112 119
f 1 119 127
f 1 127 133
f 1 133 137
f 1 137 141
f 1 141 145
f 1 145 149
f 1 149 153
f 1 153 157
f 1 157 161
f 1 161 166
f 1 166 172
f 1 172 176
f 1 176 171
f 1 171 169
f 1 169 164
f 1 164 159
f 1 159 155
f 1 155 151
f 1 151 147
f 1 147 143
f 1 143 139
f 1 139 135
f 1 135 129
f 1 129 121
f 1 121 113
f 1 113 102
f 1 102 84
f 1 84 74
f 1 74 57
f 1 57 43
f 1 43 33
f 1 33 22
f 1 22 12
f 1 12 7
f 1 7 3
f 1 3 8
f 1 8 15
f 1 15 16
f 1 16 9
f 1 9 4
f 1 4 5
f 1 5 2
f 2 5 6
f 3 7 13
f 3 13 8
f 4 9 18
f 4 18 26
f 4 26 35
f 4 35 45
f 4 45 59
f 4 59 76
f 4 76 87
f 4 87 99
f 4 99 98
f 4 98 97
f 4 97 96
f 4 96 95
f 4 95 108
f 4 108 107
f 4 107 106
f 4 106 115
f 4 115 104
f 4 104 94
f 4 94 110
f 4 110 117
f 4 117 125
f 4 125 118
f 4 118 111
f 4 111 100
f 4 100 82
f 4 82 72
f 4 72 55
f 4 55 71
f 4 71 70
f 4 70 69
f 4 69 68
f 4 68 67
f 4 67 66
f 4 66 65
f 4 65 64
f 4 64 49
f 4 49 48
f 4 48 47
f 4 47 42
f 4 42 29
f 4 29 21
f 4 21 19
f 4 19 10
f 4 10 5
f 5 10 6
f 6 10 11
f 7 12 13
f 8 14 23
f 8 23 34
f 8 34 44
f 8 44 58
f 8 58 75
f 8 75 85
f 8 85 103
f 8 103 114
f 8 114 122
f 8 122 130
f 8 130 136
f 8 136 140
f 8 140 144
f 8 144 148
f 8 148 152
f 8 152 156
f 8 156 160
f 8 160 165
f 8 165 170
f 8 170 174
f 8 174 173
f 8 173 167
f 8 167 163
f 8 163 162
f 8 162 158
f 8 158 154
f 8 154 150
f 8 150 146
f 8 146 142
f 8 142 138
f 8 138 134
f 8 134 128
f 8 128 120
f 8 120 123
f 8 123 116
f 8 116 109
f 8 109 93
f 8 93 78
f 8 78 61
f 8 61 60
f 8 60 46
f 8 46 37
f 8 37 36
f 8 36 27
f 8 27 24
f 8 24 15
f 8 13 14
f 9 16 17
f 9 17 18
f 10 19 11
f 11 19 21
f 11 21 20
f 12 22 23
f 12 23 13
f 13 23 14
f 15 24 25
f 15 25 17
f 15 17 16
f 17 25 18
f 18 25 27
f 18 27 26
f 20 21 28
f 21 29 30
f 21 30 31
f 21 31 32
f 21 32 28
f 22 33 34
f 22 34 23
f 24 27 25
f 26 27 36
f 26 36 37
f 26 37 35
f 28 32 31
f 28 31 30
f 28 30 38
f 28 38 39
f 28 39 40
f 28 40 50
f 28 50 41
f 29 42 39
f 29 39 38
f 29 38 30
f 33 43 34
f 34 43 44
f 35 37 45
f 37 46 45
f 39 42 47
f 39 47 40
f 40 47 48
f 40 48 49
f 40 49 64
f 40 64 50
f 41 50 51
f 41 51 52
f 41 52 53
f 41 53 54
f 41 54 55
f 41 55 56
f 43 57 44
f 44 57 74
f 44 74 58
f 45 46 60
f 45 60 61
f 45 61 62
f 45 62 63
f 45 63 59
f 50 64 65
f 50 65 66
f 50 66 67
f 50 67 51
f 51 67 68
f 51 68 69
f 51 69 70
f 51 70 52
f 52 70 71
f 52 71 55
f 52 55 53
f 53 55 54
f 55 72 56
f 56 72 73
f 58 74 75
f 59 63 77
f 59 77 76
f 61 78 92
f 61 92 79
f 61 79 80
f 61 80 81
f 61 81 77
f 61 77 63
f 61 63 62
f 72 82 73
f 73 82 83
f 74 84 75
f 75 84 85
f 76 86 87
f 76 77 86
f 77 81 86
f 78 88 89
f 78 89 90
f 78 90 91
f 78 91 92
f 78 93 94
f 78 94 88
f 79 92 108
f 79 108 95
f 79 95 96
f 79 96 97
f 79 97 98
f 79 98 80
f 80 98 99
f 80 99 87
f 80 87 86
f 80 86 81
f 82 100 83
f 83 100 101
f 84 102 85
f 85 102 103
f 88 94 89
f 89 94 90
f 90 94 104
f 90 104 105
f 90 105 91
f 91 105 106
f 91 106 92
f 92 106 107
f 92 107 108
f 93 109 94
f 94 109 110
f 100 111 101
f 101 111 118
f 101 118 126
f 101 126 131
f 101 131 123
f 101 123 120
f 101 120 112
f 102 113 103
f 103 113 121
f 103 121 114
f 104 115 105
f 105 115 106
f 109 116 117
f 109 117 110
f 112 120 128
f 112 128 119
f 114 121 122
f 116 123 124
f 116 124 125
f 116 125 117
f 118 125 126
f 119 128 134
f 119 134 127
f 121 129 122
f 122 129 130
f 123 131 132
f 123 132 124
f 124 132 125
f 125 132 126
f 126 132 131
f 127 134 133
f 129 135 130
f 130 135 136
f 133 134 138
f 133 138 137
f 135 139 136
f 136 139 140
f 137 138 142
f 137 142 141
f 139 143 140
f 140 143 144
f 141 142 146
f 141 146 145
f 143 147 144
f 144 147 148
f 145 146 150
f 145 150 149
f 147 151 148
f 148 151 152
f 149 150 154
f 149 154 158
f 149 158 153
f 151 155 152
f 152 155 156
f 153 158 162
f 153 162 157
f 155 159 160
f 155 160 156
f 157 162 163
f 157 163 161
f 159 164 160
f 160 164 165
f 161 163 167
f 161 167 173
f 161 173 168
f 161 168 166
f 164 169 165
f 165 169 171
f 165 171 170
f 166 168 172
f 168 173 172
f 170 171 175
f 170 175 174
f 171 176 175
f 172 173 174
f 172 174 175
f 172 175 176

