# https://github.com/mikedh/trimesh
v 0.01168169 -0.02325300 -0.00252983
v 0.01168169 -0.02324622 -0.00298952
v 0.01350774 -0.02325300 -0.00252983
v 0.01168169 -0.02325300 0.00252983
v 0.01264995 -0.02324622 -0.00298952
v 0.01168169 -0.02319197 -0.00344921
v 0.01350774 -0.02324554 -0.00298952
v 0.01350774 -0.02325300 0.00252983
v 0.01168169 -0.02324622 0.00298952
v 0.01350774 -0.02319197 -0.00344921
v 0.01350774 -0.02323876 -0.00305225
v 0.01168169 -0.02317977 -0.00349137
v 0.01350774 -0.02324622 0.00298952
v 0.01168169 -0.02319333 0.00344921
v 0.01350774 -0.02317570 -0.00350371
v 0.01168169 -0.02307264 -0.00384822
v 0.01173013 -0.02307264 -0.00384822
v 0.01350774 -0.02320011 0.00338751
v 0.01173013 -0.02319333 0.00344921
v 0.01168169 -0.02308552 0.00380503
v 0.01350774 -0.02307196 -0.00384822
v 0.01168169 -0.02306179 -0.00387290
v 0.01350774 -0.02305840 -0.00388010
v 0.01350774 -0.02319265 0.00344921
v 0.01350774 -0.02308891 0.00379372
v 0.01350774 -0.02307264 0.00384719
v 0.01168169 -0.02307264 0.00384719
v 0.01350774 -0.02296958 -0.00407858
v 0.01168169 -0.02296958 -0.00407858
v 0.01350774 -0.02296890 0.00407755
v 0.01168169 -0.02296890 0.00407755
v 0.01168169 -0.02294788 -0.00410943
v 0.01350774 -0.02276074 -0.00436962
v 0.01350774 -0.02276006 0.00436962
v 0.01168169 -0.02278244 0.00433876
v 0.01168169 -0.02276074 -0.00436962
v 0.01350774 -0.02256072 -0.00462054
v 0.01350774 -0.02258784 0.00458660
v 0.01168169 -0.02276006 0.00436962
v 0.01168169 -0.02256072 -0.00462054
v 0.01350774 -0.02230985 -0.00480771
v 0.01168169 -0.02256072 0.00462054
v 0.01350774 -0.02256072 0.00462054
v 0.01168169 -0.02230985 -0.00480771
v 0.01350774 -0.02198303 -0.00501647
v 0.01168169 -0.02233629 0.00478817
v 0.01350774 -0.02230985 0.00480771
v 0.01168169 -0.02198303 -0.00501647
v 0.01350774 -0.02195185 -0.00502984
v 0.01168169 -0.02230985 0.00480771
v 0.01350774 -0.02202711 0.00498870
v 0.01168169 -0.02201761 0.00499487
v 0.01168169 -0.02195863 -0.00502676
v 0.01168169 -0.02175318 -0.00511211
v 0.01350774 -0.02175318 -0.00511211
v 0.01350774 -0.02198303 0.00501647
v 0.01168169 -0.02198303 0.00501647
v 0.01168169 -0.02138975 -0.00520467
v 0.01350774 -0.02138975 -0.00520467
v 0.01350774 -0.02178437 0.00509874
v 0.01173013 -0.02175318 0.00511211
v 0.01168169 -0.02175318 0.00511211
v 0.01168169 -0.02134161 -0.00520981
v 0.01350774 -0.02132737 -0.00521084
v 0.01350774 -0.02175318 0.00511108
v 0.01350774 -0.02143857 0.00519130
v 0.01350774 -0.02138975 0.00520364
v 0.01168169 -0.02138975 0.00520364
v 0.01168169 -0.02092936 -0.00524991
v 0.01350774 -0.02092936 -0.00524991
v 0.01350774 -0.02092936 0.00524786
v 0.01168169 -0.02092936 0.00524786
v 0.01168169 -0.02046966 -0.00525300
v 0.01350774 -0.02046966 -0.00525300
v 0.01350774 -0.02046966 0.00525300
v 0.01168169 -0.02046966 0.00525300
v 0.01168169 -0.01909053 -0.00525300
v 0.01350774 -0.01863014 -0.00525300
v 0.01350774 -0.01823281 0.00525300
v 0.01168169 -0.01867896 0.00525300
v 0.01168169 -0.01863014 -0.00525197
v 0.01173013 -0.01863014 -0.00525300
v 0.01350774 -0.01817043 -0.00525197
v 0.01350774 -0.01817043 0.00525197
v 0.01173013 -0.01863014 0.00525300
v 0.01168169 -0.01863014 0.00525197
v 0.01168169 -0.01821857 -0.00515633
v 0.01264995 -0.01817043 -0.00522318
v 0.01310986 -0.01817043 -0.00524991
v 0.01350774 -0.01767004 -0.00516662
v 0.01350774 -0.01768902 0.00517073
v 0.01310986 -0.01817043 0.00524991
v 0.01264995 -0.01817043 0.00522318
v 0.01168169 -0.01825790 0.00516559
v 0.01264995 -0.01784769 -0.00512754
v 0.01310986 -0.01776157 -0.00515325
v 0.01168169 -0.01798804 -0.00501956
v 0.01334401 -0.01748358 -0.00505761
v 0.01350774 -0.01764699 -0.00515530
v 0.01350774 -0.01767004 0.00516661
v 0.01168169 -0.01821857 0.00515633
v 0.01168169 -0.01774462 -0.00479023
v 0.01350774 -0.01647669 -0.00422050
v 0.01350774 -0.01672486 -0.00444983
v 0.01350774 -0.01723135 -0.00490335
v 0.01350774 -0.01727678 -0.00494346
v 0.01350774 -0.01744290 0.00508537
v 0.01168169 -0.01801245 0.00503807
v 0.01168169 -0.01751409 -0.00456604
v 0.01168169 -0.01724898 -0.00430071
v 0.01195535 -0.01701912 -0.00414131
v 0.01328556 -0.01653568 -0.00416702
v 0.01350774 -0.01636007 -0.00390993
v 0.01350774 -0.01726525 0.00493420
v 0.01168169 -0.01798804 0.00501956
v 0.01168169 -0.01706726 -0.00390993
v 0.01350774 -0.01632753 -0.00344921
v 0.01350774 -0.01698319 0.00468224
v 0.01350774 -0.01672486 0.00444983
v 0.01350774 -0.01651127 0.00425341
v 0.01168169 -0.01776903 0.00481388
v 0.01168169 -0.01706659 -0.00389964
v 0.01168169 -0.01704082 -0.00344921
v 0.01350774 -0.01632685 -0.00337208
v 0.01350774 -0.01647669 0.00422050
v 0.01168169 -0.01774462 0.00479023
v 0.01168169 -0.01704014 -0.00298952
v 0.01350774 -0.01632685 0.00306665
v 0.01350774 -0.01637295 0.00396546
v 0.01328556 -0.01653568 0.00416702
v 0.01195535 -0.01701912 0.00414131
v 0.01168169 -0.01724898 0.00430071
v 0.01168169 -0.01728830 0.00434185
v 0.01168169 -0.01751409 0.00456604
v 0.01168169 -0.01704014 0.00308927
v 0.01350774 -0.01632753 0.00344921
v 0.01350774 -0.01636007 0.00390993
v 0.01168169 -0.01706726 0.00391301
v 0.01168169 -0.01704082 0.00344921
v 0.01168169 -0.01704489 0.00353148
v 0.01350774 -0.01633295 0.00353354
f 1 2 5
f 1 5 3
f 1 3 8
f 1 8 4
f 1 4 9
f 1 9 14
f 1 14 20
f 1 20 27
f 1 27 31
f 1 31 35
f 1 35 39
f 1 39 42
f 1 42 46
f 1 46 50
f 1 50 52
f 1 52 57
f 1 57 62
f 1 62 68
f 1 68 72
f 1 72 76
f 1 76 80
f 1 80 86
f 1 86 94
f 1 94 101
f 1 101 108
f 1 108 115
f 1 115 121
f 1 121 126
f 1 126 134
f 1 134 133
f 1 133 132
f 1 132 138
f 1 138 140
f 1 140 139
f 1 139 135
f 1 135 127
f 1 127 123
f 1 123 122
f 1 122 116
f 1 116 110
f 1 110 109
f 1 109 102
f 1 102 97
f 1 97 87
f 1 87 81
f 1 81 77
f 1 77 73
f 1 73 69
f 1 69 63
f 1 63 58
f 1 58 54
f 1 54 53
f 1 53 48
f 1 48 44
f 1 44 40
f 1 40 36
f 1 36 32
f 1 32 29
f 1 29 22
f 1 22 16
f 1 16 12
f 1 12 6
f 1 6 2
f 2 6 10
f 2 10 5
f 3 5 7
f 3 7 11
f 3 11 10
f 3 10 15
f 3 15 21
f 3 21 23
f 3 23 28
f 3 28 33
f 3 33 37
f 3 37 41
f 3 41 45
f 3 45 49
f 3 49 55
f 3 55 59
f 3 59 64
f 3 64 70
f 3 70 74
f 3 74 78
f 3 78 83
f 3 83 90
f 3 90 99
f 3 99 106
f 3 106 105
f 3 105 104
f 3 104 103
f 3 103 113
f 3 113 117
f 3 117 124
f 3 124 128
f 3 128 136
f 3 136 141
f 3 141 137
f 3 137 129
f 3 129 125
f 3 125 120
f 3 120 119
f 3 119 118
f 3 118 114
f 3 114 107
f 3 107 100
f 3 100 91
f 3 91 84
f 3 84 79
f 3 79 75
f 3 75 71
f 3 71 67
f 3 67 66
f 3 66 65
f 3 65 60
f 3 60 56
f 3 56 51
f 3 51 47
f 3 47 43
f 3 43 38
f 3 38 34
f 3 34 30
f 3 30 26
f 3 26 25
f 3 25 24
f 3 24 18
f 3 18 13
f 3 13 8
f 4 8 13
f 4 13 9
f 5 10 11
f 5 11 7
f 6 12 10
f 9 13 19
f 9 19 14
f 10 12 15
f 12 16 17
f 12 17 15
f 13 18 19
f 14 19 20
f 15 17 21
f 16 22 17
f 17 22 23
f 17 23 21
f 18 24 19
f 19 24 25
f 19 25 20
f 20 25 26
f 20 26 27
f 22 28 23
f 22 29 28
f 26 30 31
f 26 31 27
f 28 29 32
f 28 32 33
f 30 34 35
f 30 35 31
f 32 36 33
f 33 36 40
f 33 40 37
f 34 38 39
f 34 39 35
f 37 40 44
f 37 44 41
f 38 42 39
f 38 43 42
f 41 44 48
f 41 48 45
f 42 43 46
f 43 47 46
f 45 48 49
f 46 47 50
f 47 51 52
f 47 52 50
f 48 53 49
f 49 53 54
f 49 54 55
f 51 56 52
f 52 56 57
f 54 58 59
f 54 59 55
f 56 60 61
f 56 61 62
f 56 62 57
f 58 63 59
f 59 63 64
f 60 65 61
f 61 65 66
f 61 66 67
f 61 67 68
f 61 68 62
f 63 69 70
f 63 70 64
f 67 71 72
f 67 72 68
f 69 73 74
f 69 74 70
f 71 75 76
f 71 76 72
f 73 77 82
f 73 82 78
f 73 78 74
f 75 79 85
f 75 85 80
f 75 80 76
f 77 81 82
f 78 82 83
f 79 84 85
f 80 85 86
f 81 87 88
f 81 88 89
f 81 89 82
f 82 89 83
f 83 89 90
f 84 91 92
f 84 92 85
f 85 92 86
f 86 92 93
f 86 93 94
f 87 95 96
f 87 96 90
f 87 90 88
f 87 97 98
f 87 98 95
f 88 90 89
f 90 96 98
f 90 98 99
f 91 100 93
f 91 93 92
f 93 100 101
f 93 101 94
f 95 98 96
f 97 102 103
f 97 103 104
f 97 104 105
f 97 105 106
f 97 106 98
f 98 106 99
f 100 107 101
f 101 107 108
f 102 109 103
f 103 109 110
f 103 110 111
f 103 111 112
f 103 112 113
f 107 114 115
f 107 115 108
f 110 116 111
f 111 116 113
f 111 113 112
f 113 116 117
f 114 118 115
f 115 118 119
f 115 119 120
f 115 120 121
f 116 122 117
f 117 122 123
f 117 123 124
f 120 125 121
f 121 125 126
f 123 127 124
f 124 127 135
f 124 135 128
f 125 129 130
f 125 130 131
f 125 131 132
f 125 132 133
f 125 133 134
f 125 134 126
f 128 135 136
f 129 137 138
f 129 138 131
f 129 131 130
f 131 138 132
f 135 139 136
f 136 139 140
f 136 140 138
f 136 138 141
f 137 141 138

