# https://github.com/mikedh/trimesh
v -0.00804897 -0.00302779 -0.00298952
v -0.00980372 -0.00276164 -0.00344921
v -0.00805000 -0.00302719 -0.00344921
v -0.00804897 -0.00302719 -0.00344921
v -0.00804897 -0.00302779 0.00298952
v -0.00980372 -0.00276045 -0.00364872
v -0.00980372 -0.00276164 0.00344921
v -0.00980372 -0.00275334 -0.00375773
v -0.00980372 -0.00274623 -0.00385748
v -0.00805000 -0.00299341 -0.00390993
v -0.00804897 -0.00299341 -0.00390993
v -0.00804897 -0.00302719 0.00344921
v -0.00805000 -0.00302719 0.00344921
v -0.00980372 -0.00275334 0.00375772
v -0.00980372 -0.00274149 -0.00390376
v -0.00919017 -0.00275808 -0.00412795
v -0.00804897 -0.00286063 -0.00425032
v -0.00804897 -0.00299341 0.00390993
v -0.00805000 -0.00299341 0.00390993
v -0.00980372 -0.00274149 0.00390376
v -0.00980372 -0.00255062 -0.00429146
v -0.00980372 -0.00250023 -0.00436139
v -0.00805000 -0.00263775 -0.00448068
v -0.00804897 -0.00263775 -0.00448068
v -0.00804897 -0.00286004 0.00425135
v -0.00919017 -0.00275808 0.00412794
v -0.00980372 -0.00250023 0.00436139
v -0.00980372 -0.00231470 -0.00455267
v -0.00980372 -0.00206219 -0.00480565
v -0.00804897 -0.00240836 -0.00470384
v -0.00804897 -0.00263775 0.00448068
v -0.00805000 -0.00263775 0.00448068
v -0.00980372 -0.00228388 0.00458352
v -0.00980372 -0.00186421 -0.00499693
v -0.00805000 -0.00217066 -0.00493420
v -0.00804897 -0.00217066 -0.00493420
v -0.00804897 -0.00217066 0.00493420
v -0.00805000 -0.00217066 0.00493420
v -0.00980372 -0.00201003 0.00485707
v -0.00980372 -0.00206219 0.00480565
v -0.00980372 -0.00225246 0.00461540
v -0.00980372 -0.00181620 -0.00504321
v -0.00805000 -0.00194068 -0.00513474
v -0.00804897 -0.00194127 -0.00513371
v -0.00804897 -0.00194068 0.00513473
v -0.00805000 -0.00194068 0.00513473
v -0.00980372 -0.00181620 0.00504321
v -0.00980372 -0.00162889 -0.00513576
v -0.00980372 -0.00158621 -0.00515633
v -0.00804897 -0.00161051 -0.00523038
v -0.00804897 -0.00160992 0.00523140
v -0.00980372 -0.00158621 0.00515633
v -0.00980372 -0.00123352 -0.00523449
v -0.00980372 -0.00114994 -0.00525300
v -0.00805000 -0.00114994 -0.00525300
v -0.00804897 -0.00115053 -0.00525197
v -0.00804897 -0.00114994 0.00525300
v -0.00980372 -0.00114994 0.00525300
v -0.00980372 0.00114994 -0.00525300
v -0.00804897 -0.00069056 -0.00525300
v -0.00804897 0.00114994 0.00525300
v -0.00980372 0.00114994 0.00525300
v -0.00980372 0.00158621 -0.00515633
v -0.00804897 0.00160873 -0.00523140
v -0.00805000 0.00114994 -0.00525300
v -0.00804897 0.00114876 -0.00525300
v -0.00804897 0.00160992 0.00523140
v -0.00980372 0.00123352 0.00523449
v -0.00805000 0.00194068 -0.00513474
v -0.00980372 0.00181620 -0.00504321
v -0.00804897 0.00193949 -0.00513474
v -0.00804897 0.00194127 0.00513371
v -0.00805000 0.00194068 0.00513473
v -0.00980372 0.00158621 0.00515633
v -0.00805000 0.00217066 -0.00493420
v -0.00804897 0.00217007 -0.00493420
v -0.00980372 0.00201003 -0.00485707
v -0.00804897 0.00217066 0.00493420
v -0.00805000 0.00217066 0.00493420
v -0.00980372 0.00181620 0.00504321
v -0.00980372 0.00162889 0.00513576
v -0.00804897 0.00263775 -0.00448171
v -0.00804897 0.00240717 -0.00470487
v -0.00980372 0.00206219 -0.00480565
v -0.00804897 0.00240836 0.00470384
v -0.00980372 0.00206219 0.00480565
v -0.00980372 0.00186421 0.00499693
v -0.00980372 0.00225246 -0.00461540
v -0.00980372 0.00228388 -0.00458352
v -0.00980372 0.00250023 -0.00436139
v -0.00804897 0.00285944 -0.00425135
v -0.00805000 0.00263775 0.00448068
v -0.00804897 0.00263775 0.00448068
v -0.00980372 0.00231470 0.00455267
v -0.00919017 0.00275808 -0.00412795
v -0.00805000 0.00286004 -0.00425032
v -0.00980372 0.00274149 -0.00390376
v -0.00804897 0.00299341 -0.00390993
v -0.00804897 0.00286063 0.00425032
v -0.00980372 0.00250023 0.00436139
v -0.00805000 0.00299341 -0.00390993
v -0.00980372 0.00275334 -0.00375773
v -0.00804897 0.00302719 -0.00345024
v -0.00804897 0.00299341 0.00390787
v -0.00805000 0.00299341 0.00390993
v -0.00919017 0.00275808 0.00412794
v -0.00980372 0.00255062 0.00429146
v -0.00805000 0.00302719 -0.00344921
v -0.00980372 0.00276164 -0.00344921
v -0.00804897 0.00302779 -0.00253086
v -0.00804897 0.00302719 0.00344818
v -0.00805000 0.00302719 0.00344921
v -0.00980372 0.00274623 0.00385748
v -0.00980372 0.00274149 0.00390376
v -0.00980372 0.00276164 0.00344921
v -0.00804897 0.00302779 0.00298849
v -0.00980372 0.00276045 0.00364872
v -0.00980372 0.00275334 0.00375772
f 1 2 3
f 1 3 4
f 1 4 11
f 1 11 17
f 1 17 24
f 1 24 30
f 1 30 36
f 1 36 44
f 1 44 50
f 1 50 56
f 1 56 60
f 1 60 66
f 1 66 64
f 1 64 71
f 1 71 76
f 1 76 83
f 1 83 82
f 1 82 91
f 1 91 98
f 1 98 103
f 1 103 110
f 1 110 116
f 1 116 111
f 1 111 104
f 1 104 99
f 1 99 93
f 1 93 85
f 1 85 78
f 1 78 72
f 1 72 67
f 1 67 61
f 1 61 57
f 1 57 51
f 1 51 45
f 1 45 37
f 1 37 31
f 1 31 25
f 1 25 18
f 1 18 12
f 1 12 5
f 1 5 7
f 1 7 2
f 2 6 3
f 2 7 14
f 2 14 20
f 2 20 27
f 2 27 33
f 2 33 41
f 2 41 40
f 2 40 39
f 2 39 47
f 2 47 52
f 2 52 58
f 2 58 62
f 2 62 68
f 2 68 74
f 2 74 81
f 2 81 80
f 2 80 87
f 2 87 86
f 2 86 94
f 2 94 100
f 2 100 107
f 2 107 114
f 2 114 113
f 2 113 118
f 2 118 117
f 2 117 115
f 2 115 109
f 2 109 102
f 2 102 97
f 2 97 90
f 2 90 89
f 2 89 88
f 2 88 84
f 2 84 77
f 2 77 70
f 2 70 63
f 2 63 59
f 2 59 54
f 2 54 53
f 2 53 49
f 2 49 48
f 2 48 42
f 2 42 34
f 2 34 29
f 2 29 28
f 2 28 22
f 2 22 21
f 2 21 15
f 2 15 9
f 2 9 8
f 2 8 6
f 3 6 8
f 3 8 9
f 3 9 10
f 3 10 11
f 3 11 4
f 5 12 13
f 5 13 7
f 7 13 14
f 9 15 10
f 10 16 17
f 10 17 11
f 10 15 16
f 12 18 19
f 12 19 13
f 13 19 14
f 14 19 20
f 15 21 16
f 16 21 17
f 17 21 22
f 17 22 23
f 17 23 24
f 18 25 19
f 19 25 26
f 19 26 20
f 20 26 27
f 22 28 23
f 23 28 29
f 23 29 30
f 23 30 24
f 25 31 32
f 25 32 27
f 25 27 26
f 27 32 33
f 29 34 35
f 29 35 30
f 30 35 36
f 31 37 38
f 31 38 32
f 32 38 39
f 32 39 40
f 32 40 41
f 32 41 33
f 34 42 35
f 35 42 43
f 35 43 36
f 36 43 44
f 37 45 46
f 37 46 38
f 38 46 47
f 38 47 39
f 42 48 43
f 43 48 49
f 43 49 50
f 43 50 44
f 45 51 46
f 46 51 52
f 46 52 47
f 49 53 50
f 50 53 54
f 50 54 55
f 50 55 56
f 51 57 58
f 51 58 52
f 54 59 65
f 54 65 66
f 54 66 60
f 54 60 55
f 55 60 56
f 57 61 62
f 57 62 58
f 59 63 64
f 59 64 65
f 61 67 62
f 62 67 68
f 63 69 64
f 63 70 69
f 64 66 65
f 64 69 71
f 67 72 73
f 67 73 74
f 67 74 68
f 69 70 75
f 69 75 76
f 69 76 71
f 70 77 75
f 72 78 73
f 73 79 80
f 73 80 81
f 73 81 74
f 73 78 79
f 75 77 82
f 75 82 83
f 75 83 76
f 77 84 82
f 78 85 79
f 79 85 86
f 79 86 87
f 79 87 80
f 82 84 88
f 82 88 89
f 82 89 90
f 82 90 91
f 85 92 86
f 85 93 92
f 86 92 94
f 90 95 96
f 90 96 91
f 90 97 95
f 91 96 98
f 92 99 100
f 92 100 94
f 92 93 99
f 95 101 96
f 95 97 101
f 96 101 98
f 97 102 101
f 98 101 103
f 99 104 105
f 99 105 106
f 99 106 107
f 99 107 100
f 101 102 108
f 101 108 103
f 102 109 108
f 103 108 110
f 104 111 105
f 105 111 112
f 105 112 113
f 105 113 114
f 105 114 106
f 106 114 107
f 108 109 110
f 109 115 116
f 109 116 110
f 111 116 112
f 112 116 115
f 112 115 117
f 112 117 118
f 112 118 113

