# https://github.com/mikedh/trimesh
v 0.00282803 -0.00903293 0.00344921
v 0.00282637 -0.00903293 0.00349857
v 0.00280312 -0.01079587 0.00344921
v 0.00280367 -0.01079587 0.00298952
v 0.00282803 -0.00903293 -0.00344921
v 0.00279979 -0.00903293 0.00394798
v 0.00278152 -0.01079587 0.00390273
v 0.00280367 -0.01079587 -0.00300392
v 0.00280312 -0.01079587 -0.00346155
v 0.00278152 -0.01079587 -0.00390273
v 0.00279979 -0.00903293 -0.00394798
v 0.00279869 -0.00903293 0.00395826
v 0.00279702 -0.00903293 0.00397266
v 0.00277930 -0.01079587 0.00392021
v 0.00278096 -0.01079587 -0.00390787
v 0.00279702 -0.00903293 -0.00397266
v 0.00276989 -0.00903293 0.00415160
v 0.00275051 -0.01065469 0.00406007
v 0.00253676 -0.01079587 0.00436242
v 0.00275826 -0.01079587 -0.00410121
v 0.00275937 -0.00919826 -0.00413720
v 0.00260653 -0.00903293 -0.00431820
v 0.00258438 -0.00903293 0.00434082
v 0.00253011 -0.01079587 0.00437167
v 0.00252790 -0.01079587 -0.00437373
v 0.00258438 -0.00903293 -0.00434082
v 0.00227760 -0.00903293 0.00464934
v 0.00206994 -0.01079587 0.00483239
v 0.00230197 -0.01079587 -0.00460100
v 0.00234073 -0.00903293 -0.00458661
v 0.00208157 -0.00903293 0.00484370
v 0.00185121 -0.00903293 0.00506995
v 0.00182850 -0.01064745 0.00505246
v 0.00165905 -0.01079587 0.00513679
v 0.00206994 -0.01079587 -0.00483239
v 0.00208157 -0.00903293 -0.00484370
v 0.00182352 -0.00903293 0.00508229
v 0.00164798 -0.01079587 0.00514193
v 0.00183847 -0.01079587 -0.00505966
v 0.00188831 -0.00903293 -0.00503395
v 0.00161531 -0.00903293 0.00516456
v 0.00154664 -0.00903293 0.00518101
v 0.00114960 -0.01079587 0.00525300
v 0.00164798 -0.01079587 -0.00514193
v 0.00185121 -0.00903293 -0.00506995
v 0.00114960 -0.00903293 0.00525300
v -0.00114960 -0.01079587 0.00525300
v 0.00163967 -0.01079587 -0.00514399
v 0.00161531 -0.00903293 -0.00516456
v -0.00114960 -0.00903293 0.00525300
v -0.00161531 -0.00903293 0.00516456
v -0.00163967 -0.01079587 0.00514399
v 0.00114960 -0.01079587 -0.00525300
v 0.00114960 -0.00903293 -0.00525300
v -0.00185121 -0.00903293 0.00506995
v -0.00164798 -0.01079587 0.00514193
v -0.00114960 -0.01079587 -0.00525300
v -0.00114960 -0.00903293 -0.00525300
v -0.00188831 -0.00903293 0.00503395
v -0.00183847 -0.01079587 0.00505966
v -0.00164798 -0.01079587 -0.00514193
v -0.00154664 -0.00903293 -0.00518101
v -0.00208157 -0.00903293 0.00484370
v -0.00207216 -0.01079587 0.00482930
v -0.00165905 -0.01079587 -0.00513679
v -0.00185121 -0.00903293 -0.00506995
v -0.00182352 -0.00903293 -0.00508229
v -0.00161531 -0.00903293 -0.00516456
v -0.00234073 -0.00903293 0.00458660
v -0.00230197 -0.01079587 0.00460100
v -0.00182850 -0.01064745 -0.00505246
v -0.00207216 -0.01079587 -0.00482930
v -0.00208157 -0.00903293 -0.00484370
v -0.00253011 -0.01079587 0.00437167
v -0.00258438 -0.00903293 0.00434082
v -0.00253011 -0.01079587 -0.00437167
v -0.00227760 -0.00903293 -0.00464934
v -0.00260653 -0.00903293 0.00431820
v -0.00275937 -0.00919826 0.00413720
v -0.00275826 -0.01079587 0.00410121
v -0.00253676 -0.01079587 -0.00436242
v -0.00276989 -0.00903293 -0.00415160
v -0.00258438 -0.00903293 -0.00434082
v -0.00279702 -0.00903293 0.00397266
v -0.00278096 -0.01079587 0.00390787
v -0.00277930 -0.01079587 -0.00392021
v -0.00275051 -0.01065469 -0.00406007
v -0.00279702 -0.00903293 -0.00397266
v -0.00279979 -0.00903293 0.00394798
v -0.00278152 -0.01079587 0.00390273
v -0.00278152 -0.01079587 -0.00390273
v -0.00279869 -0.00903293 -0.00395826
v -0.00282803 -0.00903293 0.00344921
v -0.00280312 -0.01079587 0.00346155
v -0.00279979 -0.00903293 -0.00394798
v -0.00280312 -0.01079587 -0.00344921
v -0.00282637 -0.00903293 -0.00349857
v -0.00280367 -0.01079587 0.00300392
v -0.00282803 -0.00903293 -0.00344921
v -0.00280367 -0.01079587 -0.00298952
f 1 2 3
f 1 3 4
f 1 4 8
f 1 8 5
f 1 5 11
f 1 11 16
f 1 16 22
f 1 22 26
f 1 26 30
f 1 30 36
f 1 36 40
f 1 40 45
f 1 45 49
f 1 49 54
f 1 54 58
f 1 58 62
f 1 62 68
f 1 68 67
f 1 67 66
f 1 66 73
f 1 73 77
f 1 77 83
f 1 83 82
f 1 82 88
f 1 88 92
f 1 92 95
f 1 95 97
f 1 97 99
f 1 99 93
f 1 93 89
f 1 89 84
f 1 84 78
f 1 78 75
f 1 75 69
f 1 69 63
f 1 63 59
f 1 59 55
f 1 55 51
f 1 51 50
f 1 50 46
f 1 46 42
f 1 42 41
f 1 41 37
f 1 37 32
f 1 32 31
f 1 31 27
f 1 27 23
f 1 23 17
f 1 17 13
f 1 13 12
f 1 12 6
f 1 6 2
f 2 6 7
f 2 7 3
f 3 7 14
f 3 14 19
f 3 19 24
f 3 24 28
f 3 28 34
f 3 34 38
f 3 38 43
f 3 43 47
f 3 47 52
f 3 52 56
f 3 56 60
f 3 60 64
f 3 64 70
f 3 70 74
f 3 74 80
f 3 80 85
f 3 85 90
f 3 90 94
f 3 94 98
f 3 98 100
f 3 100 96
f 3 96 91
f 3 91 86
f 3 86 81
f 3 81 76
f 3 76 72
f 3 72 65
f 3 65 61
f 3 61 57
f 3 57 53
f 3 53 48
f 3 48 44
f 3 44 39
f 3 39 35
f 3 35 29
f 3 29 25
f 3 25 20
f 3 20 15
f 3 15 10
f 3 10 9
f 3 9 8
f 3 8 4
f 5 8 9
f 5 9 10
f 5 10 11
f 6 12 7
f 7 12 13
f 7 13 14
f 10 15 11
f 11 15 16
f 13 17 14
f 14 17 18
f 14 18 19
f 15 20 16
f 16 20 21
f 16 21 22
f 17 23 24
f 17 24 19
f 17 19 18
f 20 25 21
f 21 25 22
f 22 25 26
f 23 27 24
f 24 27 28
f 25 29 30
f 25 30 26
f 27 31 28
f 28 31 32
f 28 32 33
f 28 33 34
f 29 35 30
f 30 35 36
f 32 37 38
f 32 38 34
f 32 34 33
f 35 39 40
f 35 40 36
f 37 41 38
f 38 41 42
f 38 42 43
f 39 44 45
f 39 45 40
f 42 46 43
f 43 46 50
f 43 50 47
f 44 48 49
f 44 49 45
f 47 51 52
f 47 50 51
f 48 53 49
f 49 53 54
f 51 55 56
f 51 56 52
f 53 57 58
f 53 58 54
f 55 59 60
f 55 60 56
f 57 61 62
f 57 62 58
f 59 63 60
f 60 63 64
f 61 65 66
f 61 66 67
f 61 67 68
f 61 68 62
f 63 69 64
f 64 69 70
f 65 71 66
f 65 72 71
f 66 71 72
f 66 72 73
f 69 74 70
f 69 75 74
f 72 76 77
f 72 77 73
f 74 75 78
f 74 78 79
f 74 79 80
f 76 81 82
f 76 82 83
f 76 83 77
f 78 84 79
f 79 84 80
f 80 84 85
f 81 86 87
f 81 87 82
f 82 87 86
f 82 86 88
f 84 89 85
f 85 89 90
f 86 91 88
f 88 91 92
f 89 93 90
f 90 93 94
f 91 95 92
f 91 96 97
f 91 97 95
f 93 98 94
f 93 99 100
f 93 100 98
f 96 100 99
f 96 99 97

