# https://github.com/mikedh/trimesh
v -0.00470835 -0.00506475 -0.00298952
v -0.00643335 -0.00369743 -0.00344818
v -0.00470835 -0.00506376 -0.00344818
v -0.00470835 -0.00506475 0.00298952
v -0.00643335 -0.00369247 -0.00370528
v -0.00643335 -0.00369743 0.00344818
v -0.00643335 -0.00369049 -0.00373407
v -0.00470835 -0.00502806 -0.00390993
v -0.00470835 -0.00506376 0.00344818
v -0.00643335 -0.00369049 0.00373407
v -0.00643335 -0.00367561 -0.00388936
v -0.00643335 -0.00365677 -0.00401688
v -0.00470835 -0.00499634 -0.00406110
v -0.00470835 -0.00505484 0.00356542
v -0.00470835 -0.00502806 0.00390993
v -0.00643335 -0.00365677 0.00401688
v -0.00643335 -0.00364388 -0.00404670
v -0.00470835 -0.00492495 -0.00419068
v -0.00470835 -0.00492495 0.00419068
v -0.00641562 -0.00366471 0.00402922
v -0.00643335 -0.00342376 0.00434185
v -0.00643335 -0.00342376 -0.00434185
v -0.00643335 -0.00331569 -0.00444366
v -0.00643335 -0.00281794 -0.00488689
v -0.00643335 -0.00268805 -0.00499590
v -0.00643335 -0.00262657 -0.00504527
v -0.00470835 -0.00487735 -0.00422873
v -0.00643335 -0.00294188 0.00477583
v -0.00643335 -0.00305293 0.00467607
v -0.00470835 -0.00396415 0.00489204
v -0.00643335 -0.00268805 0.00499590
v -0.00470835 -0.00371032 -0.00507817
v -0.00470835 -0.00404546 -0.00483548
v -0.00643335 -0.00247487 -0.00513885
v -0.00470835 -0.00377972 0.00502470
v -0.00643335 -0.00247487 0.00513885
v -0.00470835 -0.00364587 -0.00510903
v -0.00470835 -0.00355564 -0.00514399
v -0.00643335 -0.00230829 -0.00518821
v -0.00470835 -0.00364587 0.00510903
v -0.00482014 -0.00344954 0.00514810
v -0.00470835 -0.00344954 0.00516661
v -0.00643335 -0.00206933 0.00523963
v -0.00643335 -0.00206933 -0.00523963
v -0.00470835 -0.00344954 -0.00516662
v -0.00470835 -0.00298947 0.00524477
v -0.00483010 -0.00298947 0.00524169
v -0.00620996 -0.00206933 0.00525197
v -0.00643335 -0.00160926 0.00525300
v -0.00470835 -0.00311143 -0.00523860
v -0.00643335 -0.00184524 -0.00525197
v -0.00620996 -0.00206933 -0.00525197
v -0.00470835 -0.00252940 0.00525300
v -0.00529005 -0.00252940 0.00525300
v -0.00643335 0.00160926 0.00525300
v -0.00483010 -0.00298947 -0.00524169
v -0.00470835 -0.00298947 -0.00524477
v -0.00643335 -0.00160926 -0.00525300
v -0.00529005 -0.00252940 -0.00525300
v -0.00470835 0.00265136 0.00525300
v -0.00529005 0.00252940 0.00525300
v -0.00620996 0.00206933 0.00525197
v -0.00643335 0.00184524 0.00525197
v -0.00470835 -0.00265136 -0.00525300
v -0.00643335 0.00160926 -0.00525300
v -0.00470835 0.00298947 0.00524477
v -0.00483010 0.00298947 0.00524169
v -0.00470835 0.00311143 0.00523860
v -0.00643335 0.00206933 0.00523963
v -0.00470835 0.00252940 -0.00525300
v -0.00620996 0.00206933 -0.00525197
v -0.00529005 0.00252940 -0.00525300
v -0.00643335 0.00206933 -0.00523963
v -0.00470835 0.00344954 0.00516661
v -0.00470835 0.00355564 0.00514399
v -0.00643335 0.00230829 0.00518821
v -0.00470835 0.00298947 -0.00524477
v -0.00483010 0.00298947 -0.00524169
v -0.00643335 0.00247487 -0.00513885
v -0.00470835 0.00344954 -0.00516662
v -0.00470835 0.00364587 0.00510903
v -0.00643335 0.00247487 0.00513885
v -0.00643335 0.00268805 -0.00499590
v -0.00470835 0.00377972 -0.00502470
v -0.00470835 0.00364587 -0.00510903
v -0.00482014 0.00344954 -0.00514810
v -0.00470835 0.00371032 0.00507817
v -0.00643335 0.00262657 0.00504527
v -0.00470835 0.00396415 -0.00489204
v -0.00643335 0.00294188 -0.00477583
v -0.00470835 0.00492495 -0.00419068
v -0.00470835 0.00404546 0.00483547
v -0.00470835 0.00487735 0.00422873
v -0.00470835 0.00492495 0.00419068
v -0.00643335 0.00268805 0.00499590
v -0.00643335 0.00305293 -0.00467608
v -0.00643335 0.00342376 -0.00434185
v -0.00641562 0.00366471 -0.00402922
v -0.00643335 0.00365677 -0.00401688
v -0.00470835 0.00502806 -0.00390993
v -0.00470835 0.00499634 0.00406110
v -0.00643335 0.00364388 0.00404670
v -0.00643335 0.00342376 0.00434185
v -0.00643335 0.00331569 0.00444366
v -0.00643335 0.00281794 0.00488689
v -0.00643335 0.00369049 -0.00373407
v -0.00470835 0.00505484 -0.00356542
v -0.00470835 0.00502806 0.00390993
v -0.00643335 0.00365677 0.00401688
v -0.00643335 0.00369743 -0.00344818
v -0.00470835 0.00506376 -0.00344818
v -0.00470835 0.00506376 0.00344818
v -0.00643335 0.00369049 0.00373407
v -0.00643335 0.00367561 0.00388936
v -0.00470835 0.00506475 -0.00298952
v -0.00643335 0.00369743 0.00344818
v -0.00470835 0.00506475 0.00298952
v -0.00643335 0.00369247 0.00370528
f 1 2 3
f 1 3 8
f 1 8 13
f 1 13 18
f 1 18 27
f 1 27 33
f 1 33 32
f 1 32 37
f 1 37 38
f 1 38 45
f 1 45 50
f 1 50 57
f 1 57 64
f 1 64 70
f 1 70 77
f 1 77 80
f 1 80 85
f 1 85 84
f 1 84 89
f 1 89 91
f 1 91 100
f 1 100 107
f 1 107 111
f 1 111 115
f 1 115 117
f 1 117 112
f 1 112 108
f 1 108 101
f 1 101 94
f 1 94 93
f 1 93 92
f 1 92 87
f 1 87 81
f 1 81 75
f 1 75 74
f 1 74 68
f 1 68 66
f 1 66 60
f 1 60 53
f 1 53 46
f 1 46 42
f 1 42 40
f 1 40 35
f 1 35 30
f 1 30 19
f 1 19 15
f 1 15 14
f 1 14 9
f 1 9 4
f 1 4 6
f 1 6 2
f 2 5 3
f 2 6 10
f 2 10 16
f 2 16 21
f 2 21 29
f 2 29 28
f 2 28 31
f 2 31 36
f 2 36 43
f 2 43 49
f 2 49 55
f 2 55 63
f 2 63 69
f 2 69 76
f 2 76 82
f 2 82 88
f 2 88 95
f 2 95 105
f 2 105 104
f 2 104 103
f 2 103 102
f 2 102 109
f 2 109 114
f 2 114 113
f 2 113 118
f 2 118 116
f 2 116 110
f 2 110 106
f 2 106 99
f 2 99 97
f 2 97 96
f 2 96 90
f 2 90 83
f 2 83 79
f 2 79 73
f 2 73 65
f 2 65 58
f 2 58 51
f 2 51 44
f 2 44 39
f 2 39 34
f 2 34 26
f 2 26 25
f 2 25 24
f 2 24 23
f 2 23 22
f 2 22 17
f 2 17 12
f 2 12 11
f 2 11 7
f 2 7 5
f 3 5 7
f 3 7 8
f 4 9 6
f 6 9 10
f 7 11 8
f 8 11 12
f 8 12 13
f 9 14 10
f 10 15 16
f 10 14 15
f 12 17 13
f 13 17 18
f 15 19 16
f 16 19 20
f 16 20 21
f 17 22 18
f 18 22 23
f 18 23 24
f 18 24 25
f 18 25 26
f 18 26 27
f 19 28 29
f 19 29 21
f 19 21 20
f 19 30 31
f 19 31 28
f 26 32 33
f 26 33 27
f 26 34 32
f 30 35 31
f 31 35 36
f 32 34 37
f 34 38 37
f 34 39 38
f 35 40 36
f 36 40 41
f 36 41 42
f 36 42 43
f 38 39 44
f 38 44 45
f 40 42 41
f 42 46 47
f 42 47 43
f 43 47 48
f 43 48 49
f 44 50 45
f 44 51 52
f 44 52 50
f 46 53 54
f 46 54 47
f 47 54 48
f 48 54 49
f 49 54 53
f 49 53 60
f 49 60 61
f 49 61 55
f 50 52 56
f 50 56 57
f 51 58 52
f 52 58 59
f 52 59 56
f 55 61 62
f 55 62 63
f 56 59 57
f 57 59 64
f 58 65 72
f 58 72 70
f 58 70 64
f 58 64 59
f 60 66 61
f 61 66 67
f 61 67 62
f 62 67 68
f 62 68 69
f 62 69 63
f 65 71 72
f 65 73 71
f 66 68 67
f 68 74 69
f 69 74 75
f 69 75 76
f 70 72 77
f 71 73 78
f 71 78 72
f 72 78 77
f 73 79 80
f 73 80 78
f 75 81 82
f 75 82 76
f 77 78 80
f 79 83 84
f 79 84 85
f 79 85 86
f 79 86 80
f 80 86 85
f 81 87 82
f 82 87 88
f 83 89 84
f 83 90 91
f 83 91 89
f 87 92 88
f 88 92 93
f 88 93 94
f 88 94 95
f 90 96 91
f 91 96 97
f 91 97 98
f 91 98 99
f 91 99 100
f 94 101 102
f 94 102 103
f 94 103 104
f 94 104 105
f 94 105 95
f 97 99 98
f 99 106 100
f 100 106 107
f 101 108 109
f 101 109 102
f 106 110 111
f 106 111 107
f 108 112 113
f 108 113 114
f 108 114 109
f 110 115 111
f 110 116 117
f 110 117 115
f 112 117 116
f 112 116 118
f 112 118 113

