# https://github.com/mikedh/trimesh
v -0.01562881 -0.01454701 0.00298952
v -0.01648780 -0.01321006 0.00299980
v -0.01648854 -0.01321006 0.00344921
v -0.01563030 -0.01454701 0.00344921
v -0.01562881 -0.01454701 -0.00298952
v -0.01648780 -0.01321006 -0.00298952
v -0.01651839 -0.01321006 0.00390993
v -0.01566612 -0.01454701 0.00390993
v -0.01562955 -0.01454701 -0.00328570
v -0.01648854 -0.01321006 -0.00344921
v -0.01668333 -0.01321006 0.00426986
v -0.01653556 -0.01328663 0.00416702
v -0.01583553 -0.01454701 0.00425444
v -0.01563030 -0.01454701 -0.00344921
v -0.01651839 -0.01321006 -0.00390993
v -0.01679378 -0.01321006 0.00437476
v -0.01713932 -0.01321006 0.00469356
v -0.01723932 -0.01321006 0.00478508
v -0.01751321 -0.01321006 0.00503087
v -0.01587956 -0.01454701 0.00429146
v -0.01565119 -0.01454701 -0.00371968
v -0.01566612 -0.01454701 -0.00390993
v -0.01655869 -0.01321006 -0.00409812
v -0.01693781 -0.01448995 0.00510903
v -0.01668855 -0.01454701 0.00495271
v -0.01641018 -0.01454701 0.00472647
v -0.01617659 -0.01454701 0.00453621
v -0.01774083 -0.01321006 0.00515633
v -0.01691692 -0.01454701 0.00511520
v -0.01569523 -0.01454701 -0.00402922
v -0.01653556 -0.01328663 -0.00416702
v -0.01668333 -0.01321006 -0.00426986
v -0.01817070 -0.01321006 0.00524991
v -0.01725051 -0.01448995 0.00520569
v -0.01725051 -0.01454701 0.00521084
v -0.01583553 -0.01454701 -0.00425444
v -0.01675497 -0.01321006 -0.00433979
v -0.01771023 -0.01402990 0.00524169
v -0.01863042 -0.01321006 0.00525300
v -0.01817070 -0.01357012 0.00525300
v -0.01771023 -0.01448995 0.00525300
v -0.01771023 -0.01454701 0.00525300
v -0.01585419 -0.01454701 -0.00427192
v -0.01718633 -0.01321006 -0.00473881
v -0.02046930 -0.01321006 0.00525300
v -0.02046930 -0.01454701 0.00525300
v -0.01614898 -0.01454701 -0.00451668
v -0.01751321 -0.01321006 -0.00503087
v -0.01746694 -0.01321006 -0.00499179
v -0.02092977 -0.01321006 0.00524786
v -0.02092977 -0.01454701 0.00524786
v -0.01665273 -0.01454701 -0.00492494
v -0.01668855 -0.01454701 -0.00495271
v -0.01687438 -0.01454701 -0.00509154
v -0.01764680 -0.01321006 -0.00511211
v -0.02138949 -0.01321006 0.00520364
v -0.02138949 -0.01454701 0.00520364
v -0.01691692 -0.01454701 -0.00511520
v -0.01774083 -0.01321006 -0.00515633
v -0.02175294 -0.01321006 0.00511108
v -0.02143501 -0.01454701 0.00519232
v -0.01719006 -0.01454701 -0.00519952
v -0.01804980 -0.01321006 -0.00522935
v -0.02180294 -0.01321006 0.00509051
v -0.02178130 -0.01454701 0.00509977
v -0.02175294 -0.01454701 0.00511108
v -0.01725051 -0.01454701 -0.00521084
v -0.01725051 -0.01448995 -0.00520569
v -0.01817070 -0.01321006 -0.00524991
v -0.02198280 -0.01321006 0.00501647
v -0.02198280 -0.01454701 0.00501647
v -0.01765352 -0.01454701 -0.00525197
v -0.01771023 -0.01402990 -0.00524169
v -0.01771023 -0.01448995 -0.00525300
v -0.01817070 -0.01357012 -0.00525300
v -0.01853042 -0.01321006 -0.00525300
v -0.02202384 -0.01454701 0.00499076
v -0.02205370 -0.01321006 0.00497122
v -0.01771023 -0.01454701 -0.00525300
v -0.02046930 -0.01321006 -0.00525300
v -0.02230968 -0.01321006 0.00480771
v -0.02230968 -0.01454701 0.00480771
v -0.02046930 -0.01454701 -0.00525300
v -0.02092977 -0.01321006 -0.00524991
v -0.02256118 -0.01321006 0.00462054
v -0.02256118 -0.01454701 0.00462054
v -0.02092977 -0.01454701 -0.00524991
v -0.02133277 -0.01454701 -0.00521084
v -0.02128948 -0.01321006 -0.00521495
v -0.02276119 -0.01321006 0.00436962
v -0.02276119 -0.01454701 0.00436962
v -0.02138949 -0.01454701 -0.00520467
v -0.02138949 -0.01321006 -0.00520467
v -0.02278731 -0.01454701 0.00433362
v -0.02296940 -0.01321006 0.00407858
v -0.02175294 -0.01454701 -0.00511211
v -0.02175294 -0.01321006 -0.00511211
v -0.02296940 -0.01454701 0.00407858
v -0.02307314 -0.01321006 0.00384822
v -0.02298284 -0.01454701 0.00404979
v -0.02195444 -0.01454701 -0.00502881
v -0.02198280 -0.01321006 -0.00501647
v -0.02309926 -0.01321006 0.00376184
v -0.02307314 -0.01454701 0.00384822
v -0.02198280 -0.01454701 -0.00501647
v -0.02230968 -0.01321006 -0.00480771
v -0.02319330 -0.01321006 0.00344921
v -0.02319330 -0.01454701 0.00344921
v -0.02308807 -0.01454701 0.00379886
v -0.02230968 -0.01454701 -0.00480771
v -0.02256118 -0.01321006 -0.00462054
v -0.02320524 -0.01321006 0.00334946
v -0.02320001 -0.01454701 0.00339265
v -0.02256118 -0.01454701 -0.00462054
v -0.02276119 -0.01321006 -0.00436962
v -0.02324703 -0.01321006 0.00298952
v -0.02324703 -0.01454701 0.00298952
v -0.02276119 -0.01454701 -0.00436962
v -0.02292463 -0.01321006 -0.00414234
v -0.02325300 -0.01321006 0.00252983
v -0.02325300 -0.01454701 0.00252983
v -0.02294403 -0.01454701 -0.00411458
v -0.02296940 -0.01321006 -0.00407858
v -0.02296940 -0.01454701 -0.00407858
v -0.02325300 -0.01321006 -0.00252983
v -0.02325300 -0.01454701 -0.00252983
v -0.02305971 -0.01454701 -0.00387702
v -0.02305001 -0.01321006 -0.00389861
v -0.02324703 -0.01321006 -0.00298952
v -0.02324703 -0.01454701 -0.00298952
v -0.02307240 -0.01321006 -0.00384822
v -0.02307240 -0.01454701 -0.00384822
v -0.02324031 -0.01454701 -0.00304711
v -0.02319330 -0.01321006 -0.00344921
v -0.02316717 -0.01321006 -0.00353662
v -0.02317837 -0.01454701 -0.00349857
v -0.02319330 -0.01454701 -0.00344921
f 1 2 3
f 1 3 4
f 1 4 8
f 1 8 13
f 1 13 20
f 1 20 27
f 1 27 26
f 1 26 25
f 1 25 29
f 1 29 35
f 1 35 42
f 1 42 46
f 1 46 51
f 1 51 57
f 1 57 61
f 1 61 66
f 1 66 65
f 1 65 71
f 1 71 77
f 1 77 82
f 1 82 86
f 1 86 91
f 1 91 94
f 1 94 98
f 1 98 100
f 1 100 104
f 1 104 109
f 1 109 108
f 1 108 113
f 1 113 117
f 1 117 121
f 1 121 126
f 1 126 130
f 1 130 133
f 1 133 137
f 1 137 136
f 1 136 132
f 1 132 127
f 1 127 124
f 1 124 122
f 1 122 118
f 1 118 114
f 1 114 110
f 1 110 105
f 1 105 101
f 1 101 96
f 1 96 92
f 1 92 88
f 1 88 87
f 1 87 83
f 1 83 79
f 1 79 72
f 1 72 67
f 1 67 62
f 1 62 58
f 1 58 54
f 1 54 53
f 1 53 52
f 1 52 47
f 1 47 43
f 1 43 36
f 1 36 30
f 1 30 22
f 1 22 21
f 1 21 14
f 1 14 9
f 1 9 5
f 1 5 6
f 1 6 2
f 2 6 10
f 2 10 15
f 2 15 23
f 2 23 32
f 2 32 37
f 2 37 44
f 2 44 49
f 2 49 48
f 2 48 55
f 2 55 59
f 2 59 63
f 2 63 69
f 2 69 76
f 2 76 80
f 2 80 84
f 2 84 89
f 2 89 93
f 2 93 97
f 2 97 102
f 2 102 106
f 2 106 111
f 2 111 115
f 2 115 119
f 2 119 123
f 2 123 128
f 2 128 131
f 2 131 135
f 2 135 134
f 2 134 129
f 2 129 125
f 2 125 120
f 2 120 116
f 2 116 112
f 2 112 107
f 2 107 103
f 2 103 99
f 2 99 95
f 2 95 90
f 2 90 85
f 2 85 81
f 2 81 78
f 2 78 70
f 2 70 64
f 2 64 60
f 2 60 56
f 2 56 50
f 2 50 45
f 2 45 39
f 2 39 33
f 2 33 28
f 2 28 19
f 2 19 18
f 2 18 17
f 2 17 16
f 2 16 11
f 2 11 7
f 2 7 3
f 3 7 4
f 4 7 8
f 5 9 10
f 5 10 6
f 7 11 12
f 7 12 8
f 8 12 13
f 9 14 10
f 10 14 15
f 11 16 13
f 11 13 12
f 13 16 17
f 13 17 18
f 13 18 19
f 13 19 20
f 14 21 15
f 15 22 23
f 15 21 22
f 19 24 25
f 19 25 26
f 19 26 27
f 19 27 20
f 19 28 29
f 19 29 24
f 22 30 23
f 23 30 31
f 23 31 32
f 24 29 25
f 28 33 34
f 28 34 29
f 29 34 35
f 30 36 31
f 31 36 32
f 32 36 37
f 33 38 35
f 33 35 34
f 33 39 40
f 33 40 41
f 33 41 38
f 35 38 41
f 35 41 42
f 36 43 37
f 37 43 44
f 39 45 46
f 39 46 42
f 39 42 41
f 39 41 40
f 43 47 48
f 43 48 49
f 43 49 44
f 45 50 51
f 45 51 46
f 47 52 48
f 48 52 53
f 48 53 54
f 48 54 55
f 50 56 57
f 50 57 51
f 54 58 55
f 55 58 59
f 56 60 61
f 56 61 57
f 58 62 59
f 59 62 63
f 60 64 65
f 60 65 66
f 60 66 61
f 62 67 68
f 62 68 63
f 63 68 67
f 63 67 69
f 64 70 65
f 65 70 71
f 67 72 73
f 67 73 69
f 69 73 72
f 69 72 74
f 69 74 75
f 69 75 76
f 70 77 71
f 70 78 77
f 72 79 74
f 74 79 83
f 74 83 80
f 74 80 76
f 74 76 75
f 77 78 81
f 77 81 82
f 80 83 87
f 80 87 84
f 81 85 86
f 81 86 82
f 84 87 88
f 84 88 89
f 85 90 91
f 85 91 86
f 88 92 93
f 88 93 89
f 90 94 91
f 90 95 94
f 92 96 97
f 92 97 93
f 94 95 98
f 95 99 100
f 95 100 98
f 96 101 97
f 97 101 102
f 99 103 109
f 99 109 104
f 99 104 100
f 101 105 102
f 102 105 110
f 102 110 106
f 103 107 108
f 103 108 109
f 106 110 114
f 106 114 111
f 107 112 108
f 108 112 113
f 111 114 118
f 111 118 115
f 112 116 117
f 112 117 113
f 115 118 119
f 116 120 121
f 116 121 117
f 118 122 119
f 119 122 124
f 119 124 123
f 120 125 126
f 120 126 121
f 123 124 127
f 123 127 128
f 125 129 130
f 125 130 126
f 127 131 128
f 127 132 131
f 129 133 130
f 129 134 133
f 131 132 135
f 132 136 135
f 133 134 137
f 134 135 137
f 135 136 137

