# https://github.com/mikedh/trimesh
v 0.01350774 -0.02325300 -0.00252983
v 0.01350774 -0.02324572 -0.00298952
v 0.01523673 -0.02325300 -0.00252983
v 0.01350774 -0.02325300 0.00252983
v 0.01523673 -0.02324572 -0.00298952
v 0.01350774 -0.02323844 -0.00305225
v 0.01523673 -0.02325300 0.00252983
v 0.01350774 -0.02324653 0.00298952
v 0.01523673 -0.02322550 -0.00316229
v 0.01350774 -0.02319154 -0.00344921
v 0.01523673 -0.02324572 0.00298952
v 0.01523673 -0.02319316 0.00344921
v 0.01350774 -0.02320044 0.00338751
v 0.01523673 -0.02319154 -0.00344921
v 0.01350774 -0.02317537 -0.00350371
v 0.01523673 -0.02314706 -0.00359935
v 0.01523673 -0.02307266 0.00384719
v 0.01350774 -0.02319316 0.00344921
v 0.01350774 -0.02307186 -0.00384822
v 0.01523673 -0.02307186 -0.00384822
v 0.01350774 -0.02307266 0.00384719
v 0.01523673 -0.02300797 0.00399014
v 0.01357003 -0.02296916 0.00407755
v 0.01350774 -0.02305811 -0.00388010
v 0.01523673 -0.02303385 -0.00393564
v 0.01350774 -0.02296916 0.00407755
v 0.01523673 -0.02296835 0.00407652
v 0.01448986 -0.02296835 0.00407755
v 0.01523673 -0.02283896 0.00425958
v 0.01350774 -0.02296916 -0.00407858
v 0.01523673 -0.02296916 -0.00407858
v 0.01350774 -0.02275971 0.00436962
v 0.01523673 -0.02275971 0.00436962
v 0.01350774 -0.02294166 -0.00411766
v 0.01523673 -0.02289071 -0.00418862
v 0.01350774 -0.02258827 0.00458660
v 0.01523673 -0.02263598 0.00452593
v 0.01350774 -0.02276052 -0.00436962
v 0.01523673 -0.02276052 -0.00436962
v 0.01350774 -0.02256078 0.00462054
v 0.01523673 -0.02256078 0.00462054
v 0.01350774 -0.02273383 -0.00440355
v 0.01523673 -0.02268531 -0.00446423
v 0.01350774 -0.02230928 0.00480771
v 0.01523673 -0.02230928 0.00480771
v 0.01350774 -0.02256078 -0.00462054
v 0.01523673 -0.02256078 -0.00462054
v 0.01523673 -0.02210630 0.00493831
v 0.01350774 -0.02202705 0.00498870
v 0.01350774 -0.02230928 -0.00480771
v 0.01523673 -0.02230928 -0.00480771
v 0.01523673 -0.02198258 0.00501647
v 0.01350774 -0.02198258 0.00501647
v 0.01350774 -0.02198258 -0.00501647
v 0.01523673 -0.02198258 -0.00501647
v 0.01523673 -0.02183944 0.00507612
v 0.01350774 -0.02178364 0.00509874
v 0.01350774 -0.02195185 -0.00502984
v 0.01523673 -0.02175291 -0.00511211
v 0.01523673 -0.02175291 0.00511108
v 0.01350774 -0.02175291 0.00511108
v 0.01350774 -0.02175291 -0.00511211
v 0.01523673 -0.02161625 -0.00514708
v 0.01523673 -0.02138982 0.00520364
v 0.01350774 -0.02143915 0.00519130
v 0.01350774 -0.02138982 -0.00520467
v 0.01523673 -0.02138982 -0.00520467
v 0.01350774 -0.02138982 0.00520364
v 0.01523673 -0.02110274 0.00523140
v 0.01350774 -0.02132755 -0.00521084
v 0.01523673 -0.02121595 -0.00522215
v 0.01350774 -0.02092968 0.00524786
v 0.01523673 -0.02092968 0.00524786
v 0.01350774 -0.02092968 -0.00524991
v 0.01523673 -0.02092968 -0.00524991
v 0.01350774 -0.02046955 0.00525300
v 0.01523673 -0.02046955 0.00525300
v 0.01350774 -0.02046955 -0.00525300
v 0.01523673 -0.02046955 -0.00525300
v 0.01350774 -0.01823276 0.00525300
v 0.01523673 -0.01742328 0.00525300
v 0.01350774 -0.01863063 -0.00525300
v 0.01523673 -0.01771036 -0.00525300
v 0.01357003 -0.01817050 0.00525300
v 0.01350774 -0.01817050 0.00525197
v 0.01523673 -0.01725023 0.00525197
v 0.01448986 -0.01771036 0.00525300
v 0.01350774 -0.01817050 -0.00525197
v 0.01357003 -0.01817050 -0.00525300
v 0.01448986 -0.01771036 -0.00525300
v 0.01523673 -0.01725023 -0.00525197
v 0.01494986 -0.01725023 0.00525094
v 0.01403003 -0.01771036 0.00524169
v 0.01350774 -0.01768853 0.00517073
v 0.01523673 -0.01696396 0.00524169
v 0.01350774 -0.01767074 -0.00516662
v 0.01403003 -0.01771036 -0.00524169
v 0.01494986 -0.01725023 -0.00525094
v 0.01523673 -0.01678362 -0.00520878
v 0.01523673 -0.01678362 0.00520878
v 0.01523673 -0.01650544 0.00515016
v 0.01350774 -0.01767074 0.00516661
v 0.01350774 -0.01764729 -0.00515530
v 0.01365092 -0.01740792 -0.00511005
v 0.01523673 -0.01642296 -0.00512034
v 0.01523673 -0.01642296 0.00512034
v 0.01365092 -0.01740792 0.00511005
v 0.01350774 -0.01744350 0.00508537
v 0.01350774 -0.01727691 -0.00494346
v 0.01523673 -0.01511614 -0.00417731
v 0.01523673 -0.01540727 -0.00439327
v 0.01523673 -0.01619815 -0.00497945
v 0.01523673 -0.01625314 0.00501853
v 0.01523673 -0.01619815 0.00497945
v 0.01523673 -0.01601053 0.00484267
v 0.01523673 -0.01518973 0.00424004
v 0.01350774 -0.01726559 0.00493420
v 0.01350774 -0.01723163 -0.00490335
v 0.01350774 -0.01672540 -0.00444983
v 0.01350774 -0.01647714 -0.00422050
v 0.01516294 -0.01516305 -0.00415468
v 0.01523673 -0.01503042 -0.00390993
v 0.01523673 -0.01511614 0.00417731
v 0.01350774 -0.01698337 0.00468224
v 0.01350774 -0.01636069 -0.00390993
v 0.01523673 -0.01499242 -0.00344921
v 0.01523673 -0.01506358 0.00406007
v 0.01516294 -0.01516305 0.00415468
v 0.01350774 -0.01647714 0.00422050
v 0.01350774 -0.01651110 0.00425341
v 0.01350774 -0.01672540 0.00444983
v 0.01350774 -0.01635503 -0.00383177
v 0.01350774 -0.01632753 -0.00344921
v 0.01523673 -0.01499161 -0.00298952
v 0.01523673 -0.01503042 0.00390993
v 0.01350774 -0.01637282 0.00396546
v 0.01350774 -0.01632673 -0.00298952
v 0.01523673 -0.01499161 0.00298952
v 0.01523673 -0.01501102 0.00367648
v 0.01350774 -0.01636069 0.00390993
v 0.01350774 -0.01632673 0.00306665
v 0.01523673 -0.01499242 0.00344921
v 0.01350774 -0.01633319 0.00353354
v 0.01350774 -0.01632753 0.00344921
f 1 2 5
f 1 5 3
f 1 3 7
f 1 7 4
f 1 4 8
f 1 8 13
f 1 13 18
f 1 18 21
f 1 21 26
f 1 26 32
f 1 32 36
f 1 36 40
f 1 40 44
f 1 44 49
f 1 49 53
f 1 53 57
f 1 57 61
f 1 61 65
f 1 65 68
f 1 68 72
f 1 72 76
f 1 76 80
f 1 80 85
f 1 85 94
f 1 94 102
f 1 102 108
f 1 108 117
f 1 117 124
f 1 124 131
f 1 131 130
f 1 130 129
f 1 129 136
f 1 136 140
f 1 140 143
f 1 143 144
f 1 144 141
f 1 141 137
f 1 137 133
f 1 133 132
f 1 132 125
f 1 125 120
f 1 120 119
f 1 119 118
f 1 118 109
f 1 109 103
f 1 103 96
f 1 96 88
f 1 88 82
f 1 82 78
f 1 78 74
f 1 74 70
f 1 70 66
f 1 66 62
f 1 62 58
f 1 58 54
f 1 54 50
f 1 50 46
f 1 46 42
f 1 42 38
f 1 38 34
f 1 34 30
f 1 30 24
f 1 24 19
f 1 19 15
f 1 15 10
f 1 10 6
f 1 6 2
f 2 6 5
f 3 5 9
f 3 9 14
f 3 14 16
f 3 16 20
f 3 20 25
f 3 25 31
f 3 31 35
f 3 35 39
f 3 39 43
f 3 43 47
f 3 47 51
f 3 51 55
f 3 55 59
f 3 59 63
f 3 63 67
f 3 67 71
f 3 71 75
f 3 75 79
f 3 79 83
f 3 83 91
f 3 91 99
f 3 99 105
f 3 105 112
f 3 112 111
f 3 111 110
f 3 110 122
f 3 122 126
f 3 126 134
f 3 134 138
f 3 138 142
f 3 142 139
f 3 139 135
f 3 135 127
f 3 127 123
f 3 123 116
f 3 116 115
f 3 115 114
f 3 114 113
f 3 113 106
f 3 106 101
f 3 101 100
f 3 100 95
f 3 95 86
f 3 86 81
f 3 81 77
f 3 77 73
f 3 73 69
f 3 69 64
f 3 64 60
f 3 60 56
f 3 56 52
f 3 52 48
f 3 48 45
f 3 45 41
f 3 41 37
f 3 37 33
f 3 33 29
f 3 29 27
f 3 27 22
f 3 22 17
f 3 17 12
f 3 12 11
f 3 11 7
f 4 7 8
f 5 6 9
f 6 10 9
f 7 11 8
f 8 11 12
f 8 12 13
f 9 10 14
f 10 15 16
f 10 16 14
f 12 17 21
f 12 21 18
f 12 18 13
f 15 19 16
f 16 19 20
f 17 22 23
f 17 23 26
f 17 26 21
f 19 24 20
f 20 24 25
f 22 27 23
f 23 27 28
f 23 28 29
f 23 29 26
f 24 30 25
f 25 30 31
f 26 29 32
f 27 29 28
f 29 33 32
f 30 34 31
f 31 34 35
f 32 33 36
f 33 37 36
f 34 38 35
f 35 38 39
f 36 37 41
f 36 41 40
f 38 42 39
f 39 42 43
f 40 41 45
f 40 45 44
f 42 46 47
f 42 47 43
f 44 45 48
f 44 48 49
f 46 50 51
f 46 51 47
f 48 52 49
f 49 52 53
f 50 54 55
f 50 55 51
f 52 56 53
f 53 56 57
f 54 58 55
f 55 58 59
f 56 60 57
f 57 60 61
f 58 62 59
f 59 62 63
f 60 64 65
f 60 65 61
f 62 66 63
f 63 66 67
f 64 68 65
f 64 69 68
f 66 70 71
f 66 71 67
f 68 69 72
f 69 73 72
f 70 74 71
f 71 74 75
f 72 73 77
f 72 77 76
f 74 78 79
f 74 79 75
f 76 77 81
f 76 81 87
f 76 87 84
f 76 84 80
f 78 82 89
f 78 89 90
f 78 90 83
f 78 83 79
f 80 84 85
f 81 86 87
f 82 88 89
f 83 90 91
f 84 87 92
f 84 92 85
f 85 92 93
f 85 93 94
f 86 95 92
f 86 92 87
f 88 96 97
f 88 97 98
f 88 98 89
f 89 98 90
f 90 98 91
f 91 98 99
f 92 95 93
f 93 95 100
f 93 100 94
f 94 101 102
f 94 100 101
f 96 103 104
f 96 104 105
f 96 105 99
f 96 99 97
f 97 99 98
f 101 106 107
f 101 107 102
f 102 107 108
f 103 109 104
f 104 109 110
f 104 110 111
f 104 111 112
f 104 112 105
f 106 113 108
f 106 108 107
f 108 113 114
f 108 114 115
f 108 115 116
f 108 116 117
f 109 118 110
f 110 118 119
f 110 119 120
f 110 120 121
f 110 121 122
f 116 123 117
f 117 123 124
f 120 125 121
f 121 125 122
f 122 125 126
f 123 127 128
f 123 128 129
f 123 129 130
f 123 130 131
f 123 131 124
f 125 132 126
f 126 132 133
f 126 133 137
f 126 137 134
f 127 135 136
f 127 136 129
f 127 129 128
f 134 137 141
f 134 141 138
f 135 139 140
f 135 140 136
f 138 141 142
f 139 142 140
f 140 142 143
f 141 144 142
f 142 144 143

