# https://github.com/mikedh/trimesh
v 0.02046934 -0.01219074 0.00525300
v 0.02092948 -0.01219074 0.00524991
v 0.01863014 -0.01219074 0.00525300
v 0.02046934 -0.02046903 0.00525300
v 0.02138961 -0.01219074 0.00520467
v 0.02092948 -0.02046903 0.00524991
v 0.01813306 -0.01219074 0.00515942
v 0.01817000 -0.01265094 0.00522318
v 0.01639059 -0.01580958 0.00522935
v 0.01639059 -0.01626979 0.00525300
v 0.01639059 -0.02046903 0.00525300
v 0.02000988 -0.02092923 0.00524786
v 0.02092948 -0.02092923 0.00524580
v 0.02175302 -0.01771104 0.00511211
v 0.02175302 -0.01219074 0.00511108
v 0.02138961 -0.02046903 0.00520467
v 0.02138961 -0.02092923 0.00520158
v 0.01811156 -0.01219074 0.00515222
v 0.01639059 -0.01536237 0.00514605
v 0.01639059 -0.02092923 0.00524786
v 0.01639059 -0.02132880 0.00520878
v 0.02046934 -0.02138944 0.00520261
v 0.02092948 -0.02138944 0.00520055
v 0.02198275 -0.01219074 0.00501647
v 0.02175302 -0.02046903 0.00511211
v 0.02174832 -0.02092923 0.00510903
v 0.02138961 -0.02138944 0.00515427
v 0.02168585 -0.02138944 0.00508434
v 0.01807462 -0.01219074 0.00513885
v 0.01639059 -0.01530498 0.00512856
v 0.01791945 -0.01219074 0.00507715
v 0.01639059 -0.02138944 0.00520261
v 0.01639059 -0.02170454 0.00512342
v 0.02046934 -0.02175327 0.00511108
v 0.02092948 -0.02174786 0.00510903
v 0.02138961 -0.02168505 0.00508434
v 0.02230989 -0.01219074 0.00480771
v 0.02198275 -0.02046903 0.00501647
v 0.02197805 -0.02092923 0.00501544
v 0.02162472 -0.02162441 0.00506172
v 0.02191558 -0.02138944 0.00498973
v 0.01639059 -0.01515338 0.00506789
v 0.01768434 -0.01219074 0.00485707
v 0.01639059 -0.02175327 0.00511108
v 0.01639059 -0.02195251 0.00502984
v 0.02046934 -0.02198283 0.00501647
v 0.02092948 -0.02197742 0.00501544
v 0.02138961 -0.02191570 0.00498870
v 0.02256112 -0.01219074 0.00462054
v 0.02230989 -0.02046903 0.00480771
v 0.02230989 -0.02092923 0.00480257
v 0.02233676 -0.02136886 0.00473366
v 0.02180676 -0.02180633 0.00490129
v 0.02218763 -0.02184964 0.00467916
v 0.01765478 -0.01219074 0.00482930
v 0.01725913 -0.01219074 0.00444777
v 0.01723898 -0.01219074 0.00442823
v 0.01698843 -0.01219074 0.00417628
v 0.01639059 -0.01383124 0.00431100
v 0.01639059 -0.02198283 0.00501647
v 0.01639059 -0.02226653 0.00483547
v 0.02046934 -0.02230985 0.00480771
v 0.02092948 -0.02230985 0.00480359
v 0.02137148 -0.02233692 0.00473366
v 0.02184975 -0.02218749 0.00467916
v 0.02276129 -0.01219074 0.00436962
v 0.02256112 -0.01954970 0.00462054
v 0.02255776 -0.02092923 0.00461746
v 0.02256112 -0.02046903 0.00461951
v 0.02254970 -0.02120211 0.00460923
v 0.02250872 -0.02150855 0.00456912
v 0.02210165 -0.02210086 0.00461540
v 0.02241737 -0.02184964 0.00448171
v 0.01692864 -0.01219074 0.00390993
v 0.01639059 -0.01348581 0.00398706
v 0.01653568 -0.01328765 0.00416702
v 0.01639059 -0.01363957 0.00416291
v 0.01639059 -0.02230985 0.00480771
v 0.01955041 -0.02256107 0.00462054
v 0.02046934 -0.02256107 0.00461951
v 0.02092948 -0.02255782 0.00461746
v 0.02120623 -0.02255024 0.00461026
v 0.02151254 -0.02250909 0.00457015
v 0.02184975 -0.02241813 0.00448377
v 0.02296953 -0.01219074 0.00407858
v 0.02276129 -0.02046903 0.00436962
v 0.02275323 -0.02092923 0.00436962
v 0.02268001 -0.02136886 0.00439738
v 0.02296550 -0.02092923 0.00407138
v 0.02262762 -0.02184964 0.00425135
v 0.02210971 -0.02256215 0.00416805
v 0.02225884 -0.02225787 0.00432025
v 0.02256044 -0.02210736 0.00416599
v 0.01689976 -0.01219074 0.00344921
v 0.01639059 -0.01345333 0.00390993
v 0.01639059 -0.02256107 0.00462054
v 0.01639059 -0.02276031 0.00436962
v 0.02046934 -0.02275923 0.00436962
v 0.02092948 -0.02275489 0.00436962
v 0.02137148 -0.02268234 0.00439738
v 0.02184975 -0.02263037 0.00425444
v 0.02307297 -0.01219074 0.00384822
v 0.02296953 -0.02046903 0.00407858
v 0.02293796 -0.02138944 0.00401688
v 0.02304812 -0.02138944 0.00378755
v 0.02307163 -0.02092923 0.00384102
v 0.02285668 -0.02183015 0.00388833
v 0.02243349 -0.02243221 0.00390993
v 0.02183027 -0.02285776 0.00388833
v 0.02220375 -0.02263470 0.00390993
v 0.02263366 -0.02220156 0.00390993
v 0.01689976 -0.01219074 -0.00344921
v 0.01639059 -0.01339160 0.00298952
v 0.01639059 -0.01339269 0.00344921
v 0.01639059 -0.01341868 0.00365489
v 0.01639059 -0.02294114 0.00411560
v 0.02046934 -0.02296821 0.00407652
v 0.02092948 -0.02296605 0.00407241
v 0.02138961 -0.02294006 0.00401996
v 0.02319322 -0.01219074 0.00344921
v 0.02307297 -0.02046903 0.00384822
v 0.02301789 -0.02166448 0.00372070
v 0.02314418 -0.02138944 0.00344921
v 0.02318986 -0.02092923 0.00344921
v 0.02295341 -0.02197742 0.00344921
v 0.02252148 -0.02252100 0.00362506
v 0.02166368 -0.02301694 0.00372070
v 0.02197402 -0.02295197 0.00344921
v 0.02234482 -0.02270183 0.00346258
v 0.02270285 -0.02234450 0.00346258
v 0.01692864 -0.01219074 -0.00390993
v 0.01639059 -0.01345333 -0.00390993
v 0.01639059 -0.01339269 -0.00344921
v 0.01639059 -0.01339160 -0.00298952
v 0.01639059 -0.02296821 0.00407652
v 0.01639059 -0.02305917 0.00387702
v 0.02046934 -0.02307217 0.00384617
v 0.02092948 -0.02307000 0.00384308
v 0.02138961 -0.02304726 0.00378961
v 0.02324695 -0.01219074 0.00298952
v 0.02319322 -0.02046903 0.00344921
v 0.02305081 -0.02174677 0.00344921
v 0.02319859 -0.02138944 0.00298952
v 0.02324292 -0.02092923 0.00298952
v 0.02324695 -0.02046903 0.00298952
v 0.02298363 -0.02204564 0.00298952
v 0.02256649 -0.02256756 0.00331860
v 0.02138961 -0.02314363 0.00344921
v 0.02174429 -0.02305051 0.00344921
v 0.02204321 -0.02298229 0.00298952
v 0.02230989 -0.02279821 0.00298952
v 0.02279824 -0.02230985 0.00298952
v 0.01698843 -0.01219074 -0.00417628
v 0.01653568 -0.01328765 -0.00416702
v 0.01639059 -0.01357027 -0.00406316
v 0.01639059 -0.02307217 0.00384719
v 0.01817000 -0.02307217 0.00384719
v 0.01639059 -0.02317720 0.00350166
v 0.02046934 -0.02319236 0.00344921
v 0.02092948 -0.02318911 0.00344921
v 0.02325233 -0.01219074 0.00252983
v 0.02307835 -0.02181499 0.00298952
v 0.02320530 -0.02138944 0.00252983
v 0.02324964 -0.02092923 0.00252983
v 0.02325233 -0.02046903 0.00252983
v 0.02298767 -0.02205322 0.00252983
v 0.02258395 -0.02258489 0.00298952
v 0.02138961 -0.02319886 0.00298952
v 0.02181281 -0.02307758 0.00298952
v 0.02205261 -0.02298770 0.00252983
v 0.02230989 -0.02280470 0.00252983
v 0.02280563 -0.02230985 0.00252983
v 0.01639059 -0.01383124 -0.00431100
v 0.01725913 -0.01219074 -0.00444777
v 0.01639059 -0.01530498 -0.00512857
v 0.01639059 -0.01499745 -0.00497225
v 0.01639059 -0.02319236 0.00344921
v 0.01639059 -0.02323892 0.00305019
v 0.02046934 -0.02324542 0.00298952
v 0.02092948 -0.02324325 0.00298952
v 0.02325233 -0.01219074 -0.00252983
v 0.02308171 -0.02182257 0.00252983
v 0.02320530 -0.02138944 -0.00252983
v 0.02324964 -0.02092923 -0.00252983
v 0.02325233 -0.02046903 -0.00252983
v 0.02280630 -0.02230985 -0.00252983
v 0.02298767 -0.02205322 -0.00252983
v 0.02258731 -0.02258705 0.00252983
v 0.02182288 -0.02308191 0.00252983
v 0.02138961 -0.02320535 0.00252983
v 0.02205261 -0.02298770 -0.00252983
v 0.02230989 -0.02280579 -0.00206911
v 0.02258866 -0.02258814 -0.00252983
v 0.01768434 -0.01219074 -0.00485707
v 0.01639059 -0.01542192 -0.00515530
v 0.01777435 -0.01219074 -0.00494037
v 0.01790467 -0.01229144 -0.00508949
v 0.01639059 -0.02324542 0.00298952
v 0.02046934 -0.02325300 0.00252983
v 0.02092948 -0.02324975 0.00252983
v 0.02324561 -0.01219074 -0.00298952
v 0.02308171 -0.02182257 -0.00252983
v 0.02319725 -0.02138944 -0.00298952
v 0.02307768 -0.02181499 -0.00298952
v 0.02324158 -0.02092923 -0.00298952
v 0.02324494 -0.02046903 -0.00298952
v 0.02324561 -0.01816908 -0.00298952
v 0.02279824 -0.02230985 -0.00298952
v 0.02298363 -0.02204455 -0.00298952
v 0.02182288 -0.02308191 0.00068902
v 0.02138961 -0.02320535 0.00022933
v 0.02204254 -0.02298337 -0.00298952
v 0.02230989 -0.02279712 -0.00298952
v 0.02230989 -0.02280579 -0.00252983
v 0.02182288 -0.02308083 -0.00206911
v 0.02182221 -0.02307975 -0.00252983
v 0.02181281 -0.02307650 -0.00298952
v 0.02258395 -0.02258381 -0.00298952
v 0.01639059 -0.01587022 -0.00523140
v 0.01807462 -0.01219074 -0.00513885
v 0.01813306 -0.01219074 -0.00515942
v 0.01639059 -0.02325300 0.00252983
v 0.02046934 -0.02325300 -0.00252983
v 0.02092948 -0.02324975 -0.00252983
v 0.02319254 -0.01219074 -0.00344921
v 0.02304947 -0.02174352 -0.00344921
v 0.02314149 -0.02138944 -0.00344921
v 0.02318784 -0.02092923 -0.00344921
v 0.02319187 -0.02046903 -0.00344921
v 0.02319254 -0.01633042 -0.00344921
v 0.02256649 -0.02256648 -0.00331758
v 0.02270084 -0.02234450 -0.00346258
v 0.02295072 -0.02197309 -0.00344921
v 0.02138961 -0.02320427 -0.00206911
v 0.02174429 -0.02305051 -0.00344921
v 0.02197469 -0.02295197 -0.00344921
v 0.02234482 -0.02270075 -0.00346258
v 0.02138961 -0.02320319 -0.00252983
v 0.02138961 -0.02319777 -0.00298952
v 0.01639059 -0.01633042 -0.00525300
v 0.01817000 -0.01265094 -0.00522318
v 0.01863014 -0.01219074 -0.00525300
v 0.01639059 -0.02325300 -0.00252983
v 0.01639059 -0.02324650 -0.00292885
v 0.02046934 -0.02324542 -0.00298952
v 0.02092948 -0.02324325 -0.00298952
v 0.02307297 -0.01219074 -0.00384822
v 0.02301655 -0.02165906 -0.00371865
v 0.02304678 -0.02138944 -0.00378858
v 0.02307096 -0.02092923 -0.00384308
v 0.02307297 -0.02046903 -0.00384720
v 0.02307297 -0.01587022 -0.00384822
v 0.02252148 -0.02252100 -0.00362404
v 0.02263299 -0.02220373 -0.00390993
v 0.02285735 -0.02182690 -0.00388627
v 0.02166368 -0.02301694 -0.00372070
v 0.02138961 -0.02314363 -0.00344921
v 0.02183027 -0.02285668 -0.00388833
v 0.02220107 -0.02263253 -0.00390993
v 0.01639059 -0.02046903 -0.00525300
v 0.02046934 -0.01219074 -0.00525300
v 0.01639059 -0.02324542 -0.00298952
v 0.01639059 -0.02319886 -0.00338853
v 0.02046934 -0.02319128 -0.00344921
v 0.02092948 -0.02318911 -0.00344921
v 0.02296953 -0.01219074 -0.00407858
v 0.02294064 -0.02138944 -0.00401791
v 0.02296684 -0.02092923 -0.00407241
v 0.02296886 -0.02046903 -0.00407755
v 0.02243147 -0.02243437 -0.00390993
v 0.02256313 -0.02211061 -0.00416908
v 0.02263098 -0.02184964 -0.00425546
v 0.02138961 -0.02304834 -0.00379166
v 0.02138961 -0.02294114 -0.00402099
v 0.02184975 -0.02262820 -0.00425238
v 0.02210635 -0.02255998 -0.00416600
v 0.02046934 -0.02046903 -0.00525300
v 0.01639059 -0.02092923 -0.00524991
v 0.02092948 -0.01219074 -0.00524991
v 0.01639059 -0.02319128 -0.00344921
v 0.02046934 -0.02307217 -0.00384822
v 0.02092948 -0.02307108 -0.00384514
v 0.02276062 -0.01633042 -0.00436962
v 0.02276062 -0.01219074 -0.00436962
v 0.02275995 -0.02046903 -0.00436962
v 0.02268270 -0.02136995 -0.00439841
v 0.02275457 -0.02092923 -0.00436962
v 0.02225816 -0.02226004 -0.00432128
v 0.02210232 -0.02210303 -0.00461643
v 0.02241938 -0.02184964 -0.00448582
v 0.02251006 -0.02150963 -0.00457118
v 0.02092948 -0.02296713 -0.00407447
v 0.02137148 -0.02268343 -0.00439841
v 0.02151254 -0.02250909 -0.00457015
v 0.02184975 -0.02241921 -0.00448274
v 0.02092948 -0.02046903 -0.00524991
v 0.02046934 -0.02092923 -0.00524991
v 0.01639059 -0.02138944 -0.00520467
v 0.02138961 -0.01219074 -0.00520364
v 0.01639059 -0.02307217 -0.00384822
v 0.01639059 -0.02298337 -0.00404876
v 0.02046934 -0.02296930 -0.00407858
v 0.02256112 -0.01495089 -0.00462054
v 0.02256112 -0.01219074 -0.00462054
v 0.02255776 -0.02092923 -0.00461643
v 0.02256044 -0.02046903 -0.00461951
v 0.02254970 -0.02120319 -0.00460923
v 0.02184975 -0.02218857 -0.00468019
v 0.02181079 -0.02181066 -0.00490129
v 0.02218965 -0.02184964 -0.00467916
v 0.02233810 -0.02136995 -0.00473161
v 0.02092948 -0.02275598 -0.00436962
v 0.02120623 -0.02255024 -0.00461026
v 0.02137148 -0.02233692 -0.00473264
v 0.02138961 -0.02046903 -0.00520364
v 0.02138961 -0.02092923 -0.00520055
v 0.02092948 -0.02092923 -0.00524580
v 0.02092948 -0.02138944 -0.00520158
v 0.02046934 -0.02138944 -0.00520467
v 0.01639059 -0.02175327 -0.00511211
v 0.02175033 -0.01219074 -0.00511005
v 0.02175101 -0.01449068 -0.00511005
v 0.01639059 -0.02296930 -0.00407858
v 0.01639059 -0.02278846 -0.00433157
v 0.02046934 -0.02276031 -0.00436962
v 0.02230989 -0.02046903 -0.00480668
v 0.02230989 -0.01219074 -0.00480668
v 0.02230989 -0.02092923 -0.00480051
v 0.02138961 -0.02192003 -0.00498870
v 0.02163144 -0.02163091 -0.00506378
v 0.02191827 -0.02138944 -0.00498768
v 0.02197536 -0.02092923 -0.00501339
v 0.02046934 -0.02256107 -0.00462054
v 0.02092948 -0.02255782 -0.00461746
v 0.02092948 -0.02230985 -0.00480257
v 0.02092948 -0.02197850 -0.00501441
v 0.02175101 -0.02046903 -0.00511005
v 0.02174563 -0.02092923 -0.00510903
v 0.02168854 -0.02138944 -0.00508640
v 0.02138961 -0.02138944 -0.00515633
v 0.02138961 -0.02169047 -0.00508743
v 0.02092948 -0.02174786 -0.00511005
v 0.02046934 -0.02175327 -0.00511211
v 0.01639059 -0.02198283 -0.00501647
v 0.02198074 -0.01219074 -0.00501647
v 0.02198141 -0.02046903 -0.00501647
v 0.01639059 -0.02276031 -0.00436962
v 0.01639059 -0.02256107 -0.00462054
v 0.02046934 -0.02230985 -0.00480771
v 0.02046934 -0.02198283 -0.00501647
v 0.01639059 -0.02202614 -0.00498973
v 0.01639059 -0.02230985 -0.00480771
f 1 2 5
f 1 5 15
f 1 15 24
f 1 24 37
f 1 37 49
f 1 49 66
f 1 66 85
f 1 85 102
f 1 102 120
f 1 120 140
f 1 140 161
f 1 161 181
f 1 181 201
f 1 201 225
f 1 225 247
f 1 247 266
f 1 266 284
f 1 284 304
f 1 304 327
f 1 327 345
f 1 345 321
f 1 321 299
f 1 299 279
f 1 279 261
f 1 261 242
f 1 242 221
f 1 221 220
f 1 220 196
f 1 196 194
f 1 194 174
f 1 174 153
f 1 153 131
f 1 131 112
f 1 112 94
f 1 94 74
f 1 74 58
f 1 58 57
f 1 57 56
f 1 56 55
f 1 55 43
f 1 43 31
f 1 31 29
f 1 29 18
f 1 18 7
f 1 7 3
f 1 3 10
f 1 10 11
f 1 11 4
f 1 4 6
f 1 6 2
f 2 6 16
f 2 16 5
f 3 7 8
f 3 8 9
f 3 9 10
f 4 11 20
f 4 20 12
f 4 12 13
f 4 13 6
f 5 14 15
f 5 16 25
f 5 25 14
f 6 13 17
f 6 17 16
f 7 18 9
f 7 9 8
f 9 19 30
f 9 30 42
f 9 42 59
f 9 59 77
f 9 77 75
f 9 75 95
f 9 95 115
f 9 115 114
f 9 114 113
f 9 113 134
f 9 134 133
f 9 133 132
f 9 132 155
f 9 155 173
f 9 173 176
f 9 176 175
f 9 175 195
f 9 195 219
f 9 219 240
f 9 240 260
f 9 260 278
f 9 278 298
f 9 298 320
f 9 320 344
f 9 344 351
f 9 351 352
f 9 352 348
f 9 348 347
f 9 347 324
f 9 324 323
f 9 323 301
f 9 301 300
f 9 300 280
f 9 280 263
f 9 263 262
f 9 262 244
f 9 244 243
f 9 243 222
f 9 222 198
f 9 198 178
f 9 178 177
f 9 177 158
f 9 158 156
f 9 156 136
f 9 136 135
f 9 135 116
f 9 116 97
f 9 97 96
f 9 96 78
f 9 78 61
f 9 61 60
f 9 60 45
f 9 45 44
f 9 44 33
f 9 33 32
f 9 32 21
f 9 21 20
f 9 20 11
f 9 11 10
f 9 18 19
f 12 20 21
f 12 21 22
f 12 22 13
f 13 22 23
f 13 23 17
f 14 24 15
f 14 25 38
f 14 38 24
f 16 17 25
f 17 26 25
f 17 23 27
f 17 27 28
f 17 28 26
f 18 29 19
f 19 29 31
f 19 31 30
f 21 32 22
f 22 32 33
f 22 33 34
f 22 34 23
f 23 34 35
f 23 35 36
f 23 36 27
f 24 38 50
f 24 50 37
f 25 26 39
f 25 39 38
f 26 28 39
f 27 36 40
f 27 40 28
f 28 40 41
f 28 41 39
f 30 31 42
f 31 43 42
f 33 44 34
f 34 44 45
f 34 45 46
f 34 46 47
f 34 47 35
f 35 47 36
f 36 47 48
f 36 48 40
f 37 50 67
f 37 67 49
f 38 39 50
f 39 51 50
f 39 41 52
f 39 52 51
f 40 48 53
f 40 53 41
f 41 53 54
f 41 54 52
f 42 43 55
f 42 55 56
f 42 56 57
f 42 57 58
f 42 58 59
f 45 60 46
f 46 60 61
f 46 61 62
f 46 62 63
f 46 63 47
f 47 63 64
f 47 64 48
f 48 64 65
f 48 65 53
f 49 67 86
f 49 86 66
f 50 51 68
f 50 68 69
f 50 69 67
f 51 52 70
f 51 70 68
f 52 54 71
f 52 71 70
f 53 65 72
f 53 72 54
f 54 73 71
f 54 72 73
f 58 74 75
f 58 75 76
f 58 76 59
f 59 76 77
f 61 78 62
f 62 78 96
f 62 96 79
f 62 79 80
f 62 80 63
f 63 80 81
f 63 81 82
f 63 82 64
f 64 82 83
f 64 83 65
f 65 83 84
f 65 84 72
f 66 86 103
f 66 103 85
f 67 69 86
f 68 70 87
f 68 87 86
f 68 86 69
f 70 71 88
f 70 88 89
f 70 89 87
f 71 73 90
f 71 90 88
f 72 84 91
f 72 91 92
f 72 92 93
f 72 93 73
f 73 93 90
f 74 94 95
f 74 95 75
f 75 77 76
f 79 96 97
f 79 97 98
f 79 98 80
f 80 98 99
f 80 99 81
f 81 99 82
f 82 99 100
f 82 100 83
f 83 100 101
f 83 101 84
f 84 101 91
f 85 103 121
f 85 121 102
f 86 87 103
f 87 89 103
f 88 90 104
f 88 104 89
f 89 104 105
f 89 105 106
f 89 106 103
f 90 107 104
f 90 93 107
f 91 108 93
f 91 93 92
f 91 101 109
f 91 109 110
f 91 110 108
f 93 108 111
f 93 111 107
f 94 112 134
f 94 134 113
f 94 113 114
f 94 114 115
f 94 115 95
f 97 116 117
f 97 117 98
f 98 117 99
f 99 117 118
f 99 118 100
f 100 118 119
f 100 119 101
f 101 119 109
f 102 121 141
f 102 141 120
f 103 106 121
f 104 107 122
f 104 122 105
f 105 122 123
f 105 123 124
f 105 124 106
f 106 124 121
f 107 111 125
f 107 125 122
f 108 110 126
f 108 126 111
f 109 119 127
f 109 127 128
f 109 128 110
f 110 128 129
f 110 129 126
f 111 126 130
f 111 130 125
f 112 131 132
f 112 132 133
f 112 133 134
f 116 135 117
f 117 135 136
f 117 136 137
f 117 137 138
f 117 138 118
f 118 138 139
f 118 139 119
f 119 139 127
f 120 141 145
f 120 145 140
f 121 124 141
f 122 142 123
f 122 125 142
f 123 142 143
f 123 143 124
f 124 144 145
f 124 145 141
f 124 143 144
f 125 130 146
f 125 146 142
f 126 147 130
f 126 129 147
f 127 139 148
f 127 148 149
f 127 149 128
f 128 150 129
f 128 149 150
f 129 150 151
f 129 151 147
f 130 147 152
f 130 152 146
f 131 153 132
f 132 154 155
f 132 153 154
f 136 156 157
f 136 157 137
f 137 157 158
f 137 158 159
f 137 159 138
f 138 159 160
f 138 160 139
f 139 160 148
f 140 145 165
f 140 165 161
f 142 146 162
f 142 162 143
f 143 163 164
f 143 164 144
f 143 162 163
f 144 164 145
f 145 164 165
f 146 152 166
f 146 166 162
f 147 167 152
f 147 151 167
f 148 160 168
f 148 168 149
f 149 168 169
f 149 169 150
f 150 169 170
f 150 170 151
f 151 170 171
f 151 171 167
f 152 172 166
f 152 167 172
f 153 173 154
f 153 174 175
f 153 175 176
f 153 176 173
f 154 173 155
f 156 158 157
f 158 177 159
f 159 177 178
f 159 178 179
f 159 179 180
f 159 180 160
f 160 180 168
f 161 165 185
f 161 185 181
f 162 182 163
f 162 166 182
f 163 183 184
f 163 184 164
f 163 182 202
f 163 202 183
f 164 184 185
f 164 185 165
f 166 172 186
f 166 186 187
f 166 187 202
f 166 202 182
f 167 188 172
f 167 171 188
f 168 189 169
f 168 180 200
f 168 200 190
f 168 190 189
f 169 189 170
f 170 191 214
f 170 214 192
f 170 192 171
f 170 189 210
f 170 210 191
f 171 192 193
f 171 193 188
f 172 188 193
f 172 193 186
f 174 194 175
f 175 194 196
f 175 196 197
f 175 197 195
f 178 198 179
f 179 198 222
f 179 222 199
f 179 199 180
f 180 199 200
f 181 185 207
f 181 207 201
f 183 203 205
f 183 205 184
f 183 202 204
f 183 204 203
f 184 205 206
f 184 206 185
f 185 206 207
f 186 208 187
f 186 193 208
f 187 209 204
f 187 204 202
f 187 208 209
f 189 190 211
f 189 211 210
f 190 200 224
f 190 224 211
f 191 212 213
f 191 213 214
f 191 210 215
f 191 215 216
f 191 216 217
f 191 217 212
f 192 214 193
f 193 214 218
f 193 218 208
f 195 197 220
f 195 220 221
f 195 221 219
f 196 220 197
f 199 222 243
f 199 243 223
f 199 223 224
f 199 224 200
f 201 207 230
f 201 230 225
f 203 204 226
f 203 226 227
f 203 227 228
f 203 228 205
f 204 209 226
f 205 228 229
f 205 229 206
f 206 229 207
f 207 229 230
f 208 218 231
f 208 231 232
f 208 232 209
f 209 232 233
f 209 233 226
f 210 211 215
f 211 234 215
f 211 224 234
f 212 217 235
f 212 235 236
f 212 236 237
f 212 237 213
f 213 237 231
f 213 231 218
f 213 218 214
f 215 234 238
f 215 238 216
f 216 238 239
f 216 239 217
f 217 239 235
f 219 221 241
f 219 241 242
f 219 242 240
f 221 242 241
f 223 244 245
f 223 245 246
f 223 246 224
f 223 243 244
f 224 246 239
f 224 239 238
f 224 238 234
f 225 230 252
f 225 252 247
f 226 248 227
f 226 233 248
f 227 248 249
f 227 249 228
f 228 250 229
f 228 249 250
f 229 250 251
f 229 251 230
f 230 251 252
f 231 253 232
f 231 237 253
f 232 253 254
f 232 254 233
f 233 255 248
f 233 254 255
f 235 256 236
f 235 239 257
f 235 257 256
f 236 256 258
f 236 258 259
f 236 259 237
f 237 259 253
f 239 246 265
f 239 265 257
f 240 242 261
f 240 261 277
f 240 277 260
f 244 262 245
f 245 262 263
f 245 263 264
f 245 264 265
f 245 265 246
f 247 252 266
f 248 267 249
f 248 255 267
f 249 267 268
f 249 268 250
f 250 268 269
f 250 269 251
f 251 269 266
f 251 266 252
f 253 270 254
f 253 259 270
f 254 270 271
f 254 271 255
f 255 271 272
f 255 272 267
f 256 257 273
f 256 273 274
f 256 274 258
f 257 265 273
f 258 275 276
f 258 276 259
f 258 274 275
f 259 276 270
f 260 277 297
f 260 297 278
f 261 279 296
f 261 296 277
f 263 280 264
f 264 280 300
f 264 300 281
f 264 281 282
f 264 282 265
f 265 282 273
f 266 283 284
f 266 269 285
f 266 285 283
f 267 272 286
f 267 286 268
f 268 286 287
f 268 287 269
f 269 287 285
f 270 276 271
f 271 276 288
f 271 288 289
f 271 289 290
f 271 290 272
f 272 290 291
f 272 291 286
f 273 282 292
f 273 292 274
f 274 292 293
f 274 293 275
f 275 293 294
f 275 294 295
f 275 295 276
f 276 295 289
f 276 289 288
f 277 296 297
f 278 297 319
f 278 319 298
f 279 299 315
f 279 315 296
f 281 301 302
f 281 302 282
f 281 300 301
f 282 302 292
f 283 303 304
f 283 304 284
f 283 285 303
f 285 287 305
f 285 305 306
f 285 306 303
f 286 307 287
f 286 291 307
f 287 307 305
f 289 295 308
f 289 308 309
f 289 309 310
f 289 310 290
f 290 310 291
f 291 310 311
f 291 311 307
f 292 302 312
f 292 312 293
f 293 312 313
f 293 313 294
f 294 313 314
f 294 314 308
f 294 308 295
f 296 315 316
f 296 316 317
f 296 317 297
f 297 317 318
f 297 318 319
f 298 319 343
f 298 343 320
f 299 321 322
f 299 322 337
f 299 337 315
f 301 323 302
f 302 323 324
f 302 324 325
f 302 325 312
f 303 306 326
f 303 326 327
f 303 327 304
f 305 328 326
f 305 326 306
f 305 307 328
f 307 311 328
f 308 314 329
f 308 329 330
f 308 330 309
f 309 330 310
f 310 330 331
f 310 331 311
f 311 332 328
f 311 331 332
f 312 325 333
f 312 333 334
f 312 334 313
f 313 334 335
f 313 335 314
f 314 335 336
f 314 336 329
f 315 337 338
f 315 338 316
f 316 338 339
f 316 339 340
f 316 340 318
f 316 318 317
f 318 340 341
f 318 341 342
f 318 342 343
f 318 343 319
f 320 343 350
f 320 350 344
f 321 345 322
f 322 345 346
f 322 346 337
f 324 347 325
f 325 347 348
f 325 348 333
f 326 328 346
f 326 346 327
f 327 346 345
f 328 332 346
f 329 336 341
f 329 341 330
f 330 341 340
f 330 340 339
f 330 339 331
f 331 339 332
f 332 339 338
f 332 338 346
f 333 348 352
f 333 352 349
f 333 349 335
f 333 335 334
f 335 349 336
f 336 343 342
f 336 342 341
f 336 349 350
f 336 350 343
f 337 346 338
f 344 350 351
f 349 352 351
f 349 351 350

