# https://github.com/mikedh/trimesh
v -0.01297658 0.01659052 0.00344921
v -0.01081161 0.01719442 0.00298746
v -0.01081161 0.01719507 0.00344818
v -0.01297658 0.01661987 0.00390993
v -0.01297658 0.01659835 -0.00298952
v -0.01081161 0.01719442 -0.00299158
v -0.01081161 0.01722833 0.00390787
v -0.01081161 0.01736985 0.00426266
v -0.01297658 0.01662704 0.00392638
v -0.01297658 0.01659900 -0.00344921
v -0.01081161 0.01719507 -0.00345127
v -0.01081161 0.01758507 0.00449405
v -0.01297658 0.01683965 0.00432642
v -0.01297658 0.01662704 -0.00388010
v -0.01297658 0.01662900 -0.00390993
v -0.01081161 0.01722899 -0.00391096
v -0.01297658 0.01691725 0.00440355
v -0.01081161 0.01804680 0.00495271
v -0.01297658 0.01684356 -0.00432231
v -0.01081161 0.01737051 -0.00426472
v -0.01297658 0.01708877 0.00456398
v -0.01297658 0.01755507 0.00499076
v -0.01297658 0.01735877 0.00481285
v -0.01081161 0.01827701 0.00514810
v -0.01297658 0.01762159 0.00504732
v -0.01081161 0.01758637 -0.00449508
v -0.01297658 0.01728246 -0.00473572
v -0.01081161 0.01804875 -0.00495374
v -0.01081161 0.01781593 -0.00472338
v -0.01081161 0.01862918 0.00524477
v -0.01297658 0.01787919 0.00517381
v -0.01297658 0.01778528 0.00514605
v -0.01297658 0.01755637 -0.00498870
v -0.01081161 0.01827766 -0.00514913
v -0.01297658 0.01817006 0.00524169
v -0.01081161 0.01908895 0.00525197
v -0.01127003 0.01863048 0.00525094
v -0.01297658 0.01778593 -0.00514605
v -0.01081161 0.01863048 -0.00524477
v -0.01297658 0.01830375 0.00525094
v -0.01081161 0.01954872 0.00525300
v -0.01127003 0.01909025 0.00525300
v -0.01173016 0.01863048 0.00525300
v -0.01297658 0.01817006 -0.00524169
v -0.01127003 0.01863048 -0.00525094
v -0.01081161 0.01909025 -0.00525300
v -0.01297658 0.01863048 0.00525300
v -0.01081161 0.02046827 0.00525300
v -0.01297658 0.01863048 -0.00525300
v -0.01173016 0.01863048 -0.00525300
v -0.01081161 0.02046958 -0.00525300
v -0.01297658 0.02046958 0.00525300
v -0.01127003 0.02046958 0.00525300
v -0.01081161 0.02092805 0.00524991
v -0.01297658 0.02046958 -0.00525300
v -0.01081161 0.02092935 -0.00524889
v -0.01297658 0.02092935 0.00524991
v -0.01127003 0.02092935 0.00524991
v -0.01081161 0.02138782 0.00520569
v -0.01297658 0.02092935 -0.00524889
v -0.01297658 0.02125673 -0.00521803
v -0.01081161 0.02138977 -0.00520467
v -0.01297658 0.02138977 0.00520467
v -0.01297658 0.02175303 0.00511211
v -0.01297658 0.02149477 0.00517793
v -0.01081161 0.02175303 0.00511211
v -0.01297658 0.02138977 -0.00520467
v -0.01081161 0.02174977 -0.00511211
v -0.01081161 0.02198194 0.00501750
v -0.01297658 0.02198324 0.00501647
v -0.01297658 0.02174977 -0.00511211
v -0.01297658 0.02191281 -0.00504321
v -0.01081161 0.02197933 -0.00501441
v -0.01081161 0.02230867 0.00480771
v -0.01127003 0.02230997 0.00480771
v -0.01297658 0.02230997 0.00480771
v -0.01297658 0.02197933 -0.00501441
v -0.01173016 0.02230997 -0.00480360
v -0.01081161 0.02230997 -0.00480257
v -0.01081161 0.02256106 0.00462054
v -0.01297658 0.02256106 0.00462054
v -0.01297658 0.02230997 -0.00480360
v -0.01264998 0.02255910 -0.00461849
v -0.01081161 0.02255845 -0.00461746
v -0.01081161 0.02275996 0.00436962
v -0.01297658 0.02275996 0.00436962
v -0.01297658 0.02255910 -0.00461849
v -0.01297658 0.02270062 -0.00444160
v -0.01127003 0.02275801 -0.00436962
v -0.01081161 0.02275736 -0.00436962
v -0.01081161 0.02296800 0.00407755
v -0.01297658 0.02296866 0.00407652
v -0.01297658 0.02275801 -0.00436962
v -0.01297658 0.02290801 -0.00416188
v -0.01081161 0.02296866 -0.00407755
v -0.01127003 0.02296866 0.00407652
v -0.01081161 0.02307300 0.00384617
v -0.01297658 0.02307300 0.00384617
v -0.01297658 0.02296866 -0.00407755
v -0.01297658 0.02304235 -0.00391404
v -0.01081161 0.02307235 -0.00384720
v -0.01081161 0.02319365 0.00344921
v -0.01297658 0.02319365 0.00344921
v -0.01297658 0.02307235 -0.00384720
v -0.01297658 0.02315844 -0.00356439
v -0.01081161 0.02319300 -0.00344921
v -0.01081161 0.02324648 0.00298952
v -0.01297658 0.02324648 0.00298952
v -0.01297658 0.02319300 -0.00344921
v -0.01297658 0.02323148 -0.00312218
v -0.01081161 0.02324648 -0.00298952
v -0.01081161 0.02325300 0.00252983
v -0.01297658 0.02324843 0.00285583
v -0.01297658 0.02324648 -0.00298952
v -0.01081161 0.02325300 -0.00252983
v -0.01297658 0.02325300 0.00252983
v -0.01297658 0.02325300 -0.00252983
f 1 2 3
f 1 3 4
f 1 4 9
f 1 9 13
f 1 13 17
f 1 17 21
f 1 21 23
f 1 23 22
f 1 22 25
f 1 25 32
f 1 32 31
f 1 31 35
f 1 35 40
f 1 40 47
f 1 47 52
f 1 52 57
f 1 57 63
f 1 63 65
f 1 65 64
f 1 64 70
f 1 70 76
f 1 76 81
f 1 81 86
f 1 86 92
f 1 92 98
f 1 98 103
f 1 103 108
f 1 108 113
f 1 113 116
f 1 116 117
f 1 117 114
f 1 114 110
f 1 110 109
f 1 109 105
f 1 105 104
f 1 104 100
f 1 100 99
f 1 99 94
f 1 94 93
f 1 93 88
f 1 88 87
f 1 87 82
f 1 82 77
f 1 77 72
f 1 72 71
f 1 71 67
f 1 67 61
f 1 61 60
f 1 60 55
f 1 55 49
f 1 49 44
f 1 44 38
f 1 38 33
f 1 33 27
f 1 27 19
f 1 19 15
f 1 15 14
f 1 14 10
f 1 10 5
f 1 5 6
f 1 6 2
f 2 6 11
f 2 11 16
f 2 16 20
f 2 20 26
f 2 26 29
f 2 29 28
f 2 28 34
f 2 34 39
f 2 39 46
f 2 46 51
f 2 51 56
f 2 56 62
f 2 62 68
f 2 68 73
f 2 73 79
f 2 79 84
f 2 84 90
f 2 90 95
f 2 95 101
f 2 101 106
f 2 106 111
f 2 111 115
f 2 115 112
f 2 112 107
f 2 107 102
f 2 102 97
f 2 97 91
f 2 91 85
f 2 85 80
f 2 80 74
f 2 74 69
f 2 69 66
f 2 66 59
f 2 59 54
f 2 54 48
f 2 48 41
f 2 41 36
f 2 36 30
f 2 30 24
f 2 24 18
f 2 18 12
f 2 12 8
f 2 8 7
f 2 7 3
f 3 7 4
f 4 7 8
f 4 8 9
f 5 10 11
f 5 11 6
f 8 12 13
f 8 13 9
f 10 14 11
f 11 14 15
f 11 15 16
f 12 17 13
f 12 18 17
f 15 19 20
f 15 20 16
f 17 18 21
f 18 22 23
f 18 23 21
f 18 24 25
f 18 25 22
f 19 26 20
f 19 27 28
f 19 28 29
f 19 29 26
f 24 30 31
f 24 31 32
f 24 32 25
f 27 33 28
f 28 33 34
f 30 35 31
f 30 36 37
f 30 37 35
f 33 38 34
f 34 38 39
f 35 37 40
f 36 41 42
f 36 42 43
f 36 43 37
f 37 43 40
f 38 44 39
f 39 44 45
f 39 45 46
f 40 43 47
f 41 48 53
f 41 53 52
f 41 52 47
f 41 47 43
f 41 43 42
f 44 49 50
f 44 50 45
f 45 50 46
f 46 50 49
f 46 49 55
f 46 55 51
f 48 54 58
f 48 58 53
f 51 55 60
f 51 60 56
f 52 53 58
f 52 58 57
f 54 59 58
f 56 60 61
f 56 61 62
f 57 58 59
f 57 59 63
f 59 64 65
f 59 65 63
f 59 66 64
f 61 67 62
f 62 67 71
f 62 71 68
f 64 69 70
f 64 66 69
f 68 71 72
f 68 72 73
f 69 74 75
f 69 75 76
f 69 76 70
f 72 77 73
f 73 77 82
f 73 82 78
f 73 78 79
f 74 80 75
f 75 80 81
f 75 81 76
f 78 83 84
f 78 84 79
f 78 82 87
f 78 87 83
f 80 85 86
f 80 86 81
f 83 87 88
f 83 88 89
f 83 89 84
f 84 89 90
f 85 91 86
f 86 91 92
f 88 93 89
f 89 93 94
f 89 94 95
f 89 95 90
f 91 96 92
f 91 97 96
f 92 96 97
f 92 97 98
f 94 99 95
f 95 99 100
f 95 100 101
f 97 102 103
f 97 103 98
f 100 104 101
f 101 104 105
f 101 105 106
f 102 107 108
f 102 108 103
f 105 109 106
f 106 109 110
f 106 110 111
f 107 112 113
f 107 113 108
f 110 114 111
f 111 114 117
f 111 117 115
f 112 116 113
f 112 115 117
f 112 117 116

