# https://github.com/mikedh/trimesh
v 0.01639070 0.02046895 0.00525300
v 0.01556357 0.02046895 0.00525300
v 0.02046914 0.02046789 0.00525300
v 0.01556357 0.02062292 0.00525197
v 0.01556357 0.01725170 0.00525300
v 0.02092899 0.02046789 0.00524991
v 0.02046914 0.02092872 0.00524991
v 0.02046914 0.01240563 0.00525300
v 0.01556357 0.02092872 0.00524991
v 0.01556357 0.01679087 0.00524169
v 0.01863049 0.01240563 0.00525300
v 0.02138960 0.02046789 0.00520364
v 0.02138960 0.02092872 0.00520055
v 0.02092899 0.02092872 0.00524477
v 0.02092899 0.01240563 0.00524991
v 0.02092899 0.02138848 0.00520055
v 0.02046914 0.02138848 0.00520364
v 0.01639070 0.02138954 0.00520364
v 0.01556357 0.02138954 0.00520364
v 0.01556357 0.01633430 0.00516970
v 0.01815107 0.01240563 0.00518924
v 0.01817064 0.01265091 0.00522318
v 0.02175236 0.02046789 0.00511005
v 0.02174634 0.02092872 0.00511005
v 0.02138960 0.01240563 0.00520364
v 0.02155969 0.01240563 0.00516147
v 0.02168613 0.02138848 0.00508640
v 0.02138960 0.02138848 0.00515427
v 0.02138960 0.02168684 0.00508640
v 0.02092899 0.02174736 0.00511005
v 0.02046914 0.02175161 0.00511005
v 0.01556357 0.02151058 0.00517381
v 0.01556357 0.01608796 0.00509668
v 0.01788691 0.01240563 0.00509977
v 0.02198266 0.02046789 0.00501647
v 0.02175236 0.01240563 0.00511005
v 0.02197664 0.02092872 0.00501339
v 0.02191568 0.02138848 0.00498768
v 0.02162742 0.02162632 0.00506275
v 0.02138960 0.02191619 0.00498768
v 0.02092899 0.02197671 0.00501441
v 0.02046914 0.02198308 0.00501647
v 0.01639070 0.02178347 0.00509874
v 0.01639070 0.02175267 0.00511005
v 0.01556357 0.02175267 0.00511005
v 0.01556357 0.01602850 0.00506069
v 0.01720503 0.01240563 0.00446423
v 0.01765359 0.01240563 0.00489101
v 0.02230930 0.02046789 0.00480668
v 0.02230930 0.02092872 0.00480154
v 0.02198266 0.01240563 0.00501647
v 0.02233639 0.02137149 0.00473161
v 0.02218662 0.02184930 0.00467916
v 0.02180805 0.02180789 0.00490026
v 0.02184945 0.02218801 0.00467916
v 0.02136702 0.02233666 0.00473161
v 0.02092899 0.02230800 0.00480051
v 0.01639070 0.02198308 0.00501647
v 0.02046914 0.02230800 0.00480668
v 0.01639070 0.02230906 0.00480668
v 0.01556357 0.02198202 0.00501647
v 0.01556357 0.02182912 0.00507920
v 0.01556357 0.01580658 0.00490746
v 0.01695290 0.01240563 0.00421124
v 0.02256067 0.02046789 0.00461951
v 0.02255841 0.02092872 0.00461746
v 0.02230930 0.01240563 0.00480668
v 0.02255089 0.02120585 0.00460923
v 0.02250723 0.02151271 0.00456809
v 0.02241692 0.02184930 0.00448274
v 0.02210157 0.02210201 0.00461437
v 0.02184945 0.02241736 0.00448479
v 0.02150625 0.02250868 0.00457015
v 0.02119918 0.02254796 0.00460717
v 0.02092899 0.02255646 0.00461643
v 0.01556357 0.02230906 0.00480668
v 0.02046914 0.02255858 0.00461951
v 0.01639070 0.02234197 0.00478303
v 0.01556357 0.01496458 0.00431922
v 0.01685506 0.01240563 0.00390993
v 0.01556357 0.01477664 0.00418451
v 0.02276087 0.02046789 0.00436859
v 0.02256067 0.01240563 0.00461951
v 0.02275635 0.02092872 0.00436859
v 0.02268335 0.02137149 0.00439738
v 0.02262916 0.02184930 0.00425238
v 0.02256142 0.02210838 0.00416599
v 0.02225812 0.02225915 0.00432128
v 0.02210910 0.02256283 0.00416908
v 0.02184945 0.02262972 0.00425444
v 0.02136702 0.02268069 0.00439841
v 0.02092899 0.02275289 0.00436859
v 0.02046914 0.02275926 0.00436859
v 0.01556357 0.02255964 0.00461951
v 0.01639070 0.02256070 0.00461951
v 0.01682421 0.01240563 0.00344818
v 0.01556357 0.01467364 0.00390993
v 0.02296934 0.02046789 0.00407858
v 0.02276087 0.01240563 0.00436859
v 0.02296709 0.02092872 0.00407344
v 0.02293999 0.02138848 0.00402099
v 0.02285645 0.02182912 0.00388730
v 0.02263217 0.02220288 0.00390993
v 0.02243348 0.02243329 0.00390993
v 0.02220393 0.02263397 0.00390993
v 0.02183063 0.02285801 0.00388730
v 0.02138960 0.02293977 0.00401894
v 0.02092899 0.02296525 0.00407344
v 0.02046914 0.02296950 0.00407858
v 0.01639070 0.02278687 0.00433156
v 0.01556357 0.02275926 0.00436859
v 0.01682345 0.01240563 0.00320445
v 0.01556357 0.01463117 0.00344818
v 0.02307245 0.02046789 0.00384719
v 0.02307095 0.02092872 0.00384308
v 0.02296934 0.01240563 0.00407858
v 0.02304686 0.02138848 0.00379063
v 0.02301751 0.02166242 0.00372070
v 0.02294977 0.02197353 0.00344818
v 0.02270066 0.02234516 0.00346361
v 0.02252154 0.02252036 0.00362506
v 0.02234467 0.02270299 0.00346361
v 0.02197664 0.02295357 0.00344818
v 0.02166430 0.02301728 0.00372070
v 0.02138960 0.02304701 0.00378858
v 0.02092899 0.02307037 0.00384205
v 0.01771079 0.02296950 0.00407858
v 0.02046914 0.02307143 0.00384719
v 0.01556357 0.02296844 0.00407652
v 0.01682345 0.01240563 -0.00323325
v 0.01556357 0.01463011 0.00298952
v 0.02319287 0.02046789 0.00344818
v 0.02307245 0.01240563 0.00384719
v 0.02312890 0.01240563 0.00366106
v 0.02318911 0.02092872 0.00344818
v 0.02314395 0.02138848 0.00344818
v 0.02305138 0.02174312 0.00344818
v 0.02298289 0.02204361 0.00298952
v 0.02256744 0.02256708 0.00331860
v 0.02230930 0.02279855 0.00298952
v 0.02204513 0.02298330 0.00298952
v 0.02174634 0.02305020 0.00344818
v 0.02138960 0.02314576 0.00344818
v 0.02092899 0.02319035 0.00344818
v 0.01556357 0.02307143 0.00384719
v 0.01556357 0.02300347 0.00400042
v 0.02046914 0.02319248 0.00344818
v 0.01639070 0.02308842 0.00379578
v 0.01682421 0.01240563 -0.00344818
v 0.01556357 0.01463011 -0.00298952
v 0.01556357 0.01463117 -0.00344818
v 0.02324631 0.02046789 0.00298952
v 0.02324330 0.02092872 0.00298952
v 0.02319287 0.01240563 0.00344818
v 0.02321846 0.01240563 0.00323325
v 0.02319889 0.02138848 0.00298952
v 0.02307772 0.02181320 0.00298952
v 0.02298665 0.02205104 0.00252983
v 0.02279775 0.02230800 0.00298952
v 0.02258400 0.02258300 0.00298952
v 0.02258776 0.02258725 0.00252983
v 0.02230930 0.02280386 0.00252983
v 0.02205190 0.02298755 0.00252983
v 0.02181407 0.02307886 0.00298952
v 0.02138960 0.02319885 0.00298952
v 0.02092899 0.02324344 0.00298952
v 0.02046914 0.02324663 0.00298952
v 0.01556357 0.02311284 0.00371350
v 0.01556357 0.02319248 0.00344818
v 0.01683926 0.01240563 -0.00369294
v 0.01556357 0.01467364 -0.00390993
v 0.02325158 0.02046789 0.00252983
v 0.02324932 0.02092872 0.00252983
v 0.02324631 0.01240563 0.00298952
v 0.02324932 0.01240563 0.00277356
v 0.02320491 0.02138848 0.00252983
v 0.02308148 0.02182063 0.00252983
v 0.02308148 0.02181213 -0.00252983
v 0.02298214 0.02204255 -0.00252983
v 0.02280151 0.02230800 -0.00252983
v 0.02280452 0.02230800 0.00206911
v 0.02280452 0.02230800 0.00252983
v 0.02258776 0.02258831 0.00206911
v 0.02230930 0.02280598 0.00206911
v 0.02205190 0.02298755 0.00114974
v 0.02182235 0.02307992 0.00252983
v 0.02138960 0.02320416 0.00252983
v 0.02092899 0.02324875 0.00252983
v 0.02046914 0.02325300 0.00252983
v 0.01639070 0.02324769 0.00292782
v 0.01639070 0.02324663 0.00298952
v 0.01556357 0.02321053 0.00329495
v 0.01685506 0.01240563 -0.00390993
v 0.01556357 0.01473204 -0.00411458
v 0.02325158 0.02046789 -0.00252983
v 0.02325158 0.01240563 0.00252983
v 0.02324932 0.02092872 -0.00252983
v 0.02320491 0.02138848 -0.00252983
v 0.02307772 0.02180895 -0.00298952
v 0.02298063 0.02203936 -0.00298952
v 0.02279473 0.02230800 -0.00298952
v 0.02258852 0.02258831 -0.00252983
v 0.02258852 0.02258831 0.00114974
v 0.02230930 0.02280598 0.00068902
v 0.02230930 0.02280386 -0.00206911
v 0.02204588 0.02298330 -0.00252983
v 0.02181558 0.02307992 -0.00252983
v 0.02181783 0.02307992 -0.00160840
v 0.02182235 0.02307992 0.00160840
v 0.02138960 0.02320416 -0.00252983
v 0.02092899 0.02324875 -0.00252983
v 0.01556357 0.02325300 0.00252983
v 0.02046914 0.02325300 -0.00252983
v 0.01556357 0.02324557 0.00298952
v 0.01688667 0.01240563 -0.00405184
v 0.01556357 0.01477664 -0.00418451
v 0.02324631 0.02046789 -0.00298952
v 0.02325158 0.01240563 -0.00252983
v 0.02324330 0.02092872 -0.00298952
v 0.02319814 0.02138848 -0.00298952
v 0.02304987 0.02174418 -0.00344818
v 0.02295203 0.02197459 -0.00344818
v 0.02270141 0.02234516 -0.00345949
v 0.02256443 0.02256495 -0.00331552
v 0.02258325 0.02258300 -0.00298952
v 0.02230930 0.02279536 -0.00298952
v 0.02230930 0.02280280 -0.00252983
v 0.02204136 0.02298224 -0.00298952
v 0.02181106 0.02307886 -0.00298952
v 0.02138960 0.02319885 -0.00298952
v 0.02092899 0.02324344 -0.00298952
v 0.01556357 0.02325300 -0.00252983
v 0.02046914 0.02324663 -0.00298952
v 0.01695290 0.01240563 -0.00421124
v 0.01556357 0.01485627 -0.00424929
v 0.02319287 0.02046789 -0.00344818
v 0.02324631 0.01240563 -0.00298952
v 0.02318986 0.02092872 -0.00344818
v 0.02314395 0.02138848 -0.00344818
v 0.02301600 0.02166242 -0.00371865
v 0.02285871 0.02182912 -0.00388627
v 0.02263518 0.02220500 -0.00390993
v 0.02252078 0.02252036 -0.00362198
v 0.02234467 0.02270192 -0.00345949
v 0.02174634 0.02305020 -0.00344818
v 0.02197664 0.02295251 -0.00344818
v 0.02138960 0.02314363 -0.00344818
v 0.02092899 0.02318823 -0.00344818
v 0.02046914 0.02319248 -0.00344818
v 0.01639070 0.02324663 -0.00298952
v 0.01556357 0.02324557 -0.00298952
v 0.01556357 0.02322858 -0.00314275
v 0.01708612 0.01240563 -0.00434493
v 0.01556357 0.01570253 -0.00483753
v 0.01556357 0.01606035 -0.00508434
v 0.02307245 0.02046789 -0.00384720
v 0.02307095 0.02092872 -0.00384514
v 0.02319287 0.01240563 -0.00344818
v 0.02304686 0.02138848 -0.00379063
v 0.02294074 0.02138848 -0.00401894
v 0.02263066 0.02184930 -0.00425444
v 0.02256293 0.02211050 -0.00416908
v 0.02243423 0.02243329 -0.00390993
v 0.02220393 0.02263397 -0.00390993
v 0.02166430 0.02301728 -0.00372070
v 0.02182988 0.02285801 -0.00388730
v 0.02138960 0.02304701 -0.00379063
v 0.02092899 0.02307037 -0.00384308
v 0.02046914 0.02307037 -0.00384720
v 0.01639070 0.02307143 -0.00384720
v 0.01556357 0.02315213 -0.00358290
v 0.01639070 0.02319248 -0.00344818
v 0.01556357 0.02319141 -0.00344818
v 0.01720503 0.01240563 -0.00446423
v 0.01556357 0.01608796 -0.00509669
v 0.01788691 0.01240563 -0.00509977
v 0.01781315 0.01240563 -0.00503704
v 0.01765359 0.01240563 -0.00489101
v 0.01752264 0.01240563 -0.00476966
v 0.02296934 0.02046789 -0.00407858
v 0.02307245 0.01240563 -0.00384720
v 0.02302428 0.01240563 -0.00395620
v 0.02296709 0.02092872 -0.00407344
v 0.02268184 0.02136618 -0.00439841
v 0.02241767 0.02184930 -0.00448480
v 0.02250874 0.02150315 -0.00457118
v 0.02210082 0.02209988 -0.00461437
v 0.02225887 0.02225915 -0.00432334
v 0.02211060 0.02256283 -0.00416908
v 0.02138960 0.02294083 -0.00402099
v 0.02184945 0.02262972 -0.00425444
v 0.02092899 0.02296737 -0.00407344
v 0.02046914 0.02296950 -0.00407858
v 0.01639070 0.02305869 -0.00387702
v 0.01556357 0.02307143 -0.00384720
v 0.01556357 0.01619945 -0.00514091
v 0.01798851 0.01240563 -0.00513885
v 0.02276087 0.02046789 -0.00436859
v 0.02296934 0.01240563 -0.00407858
v 0.02287150 0.01240563 -0.00421536
v 0.02275409 0.02092872 -0.00436859
v 0.02254712 0.02119841 -0.00460717
v 0.02218812 0.02184930 -0.00467710
v 0.02233714 0.02136618 -0.00473058
v 0.02184945 0.02218801 -0.00467916
v 0.02184945 0.02241842 -0.00448480
v 0.02180805 0.02180895 -0.00490026
v 0.02137003 0.02268281 -0.00439841
v 0.02151001 0.02250868 -0.00457118
v 0.02120294 0.02254902 -0.00460923
v 0.02092899 0.02275289 -0.00436859
v 0.01909034 0.02296950 -0.00407858
v 0.02046914 0.02275820 -0.00436859
v 0.01639070 0.02296950 -0.00407653
v 0.01556357 0.02303745 -0.00392330
v 0.01556357 0.01633430 -0.00516970
v 0.01815107 0.01240563 -0.00518924
v 0.01556357 0.01663691 -0.00523346
v 0.02256067 0.02046789 -0.00461951
v 0.02276087 0.01240563 -0.00436859
v 0.02255615 0.02092872 -0.00461437
v 0.02230930 0.02092872 -0.00479845
v 0.02191718 0.02138848 -0.00498768
v 0.02197513 0.02092872 -0.00501339
v 0.02162742 0.02162844 -0.00506275
v 0.02138960 0.02191619 -0.00498768
v 0.02137003 0.02233773 -0.00473161
v 0.02092899 0.02230800 -0.00480154
v 0.02092899 0.02255646 -0.00461437
v 0.01817064 0.02275820 -0.00436859
v 0.02046914 0.02255858 -0.00461746
v 0.01639070 0.02275714 -0.00436859
v 0.01556357 0.02296844 -0.00407653
v 0.01841524 0.01240563 -0.00523860
v 0.01556357 0.01679087 -0.00524169
v 0.02230930 0.02046789 -0.00480565
v 0.02256067 0.01240563 -0.00461951
v 0.02168688 0.02138848 -0.00508640
v 0.02174558 0.02092872 -0.00510903
v 0.02197739 0.02046789 -0.00501441
v 0.02138960 0.02168684 -0.00508434
v 0.02138960 0.02138848 -0.00515428
v 0.02092899 0.02197671 -0.00501544
v 0.02046914 0.02230800 -0.00480565
v 0.02046914 0.02198202 -0.00501647
v 0.01909034 0.02255858 -0.00461746
v 0.01639070 0.02273059 -0.00440252
v 0.01556357 0.02275608 -0.00436859
v 0.01863049 0.01240563 -0.00525300
v 0.01556357 0.01709773 -0.00525300
v 0.02230930 0.01240563 -0.00480565
v 0.02197814 0.01265091 -0.00501544
v 0.02197739 0.01541159 -0.00501544
v 0.02138960 0.02092872 -0.00520055
v 0.02174709 0.02046789 -0.00511005
v 0.02138960 0.02046789 -0.00520364
v 0.02092899 0.02174630 -0.00510903
v 0.02092899 0.02138848 -0.00519952
v 0.01587064 0.02198202 -0.00501647
v 0.01639070 0.02226552 -0.00483239
v 0.01556357 0.02230906 -0.00480360
v 0.02046914 0.02175161 -0.00511005
v 0.01639070 0.02195229 -0.00502881
v 0.01633049 0.02255752 -0.00461746
v 0.01556357 0.02255646 -0.00461643
v 0.02046914 0.01240563 -0.00525300
v 0.01556357 0.02046895 -0.00525300
v 0.02197814 0.01240563 -0.00501544
v 0.02174784 0.01771039 -0.00511005
v 0.02092899 0.02046789 -0.00524991
v 0.02092899 0.02092872 -0.00524477
v 0.02158001 0.01240563 -0.00515428
v 0.02138960 0.01240563 -0.00520364
v 0.02046914 0.02138848 -0.00520261
v 0.01556357 0.02175161 -0.00511005
v 0.01556357 0.02198096 -0.00501647
v 0.01556357 0.02247470 -0.00467916
v 0.01639070 0.02170383 -0.00512239
v 0.01639070 0.02138954 -0.00520261
v 0.02046914 0.02046789 -0.00525300
v 0.02092899 0.01240563 -0.00524991
v 0.01556357 0.02092872 -0.00524683
v 0.01639070 0.02046895 -0.00525300
v 0.02174784 0.01240563 -0.00511005
v 0.02046914 0.02092872 -0.00524683
v 0.01556357 0.02123451 -0.00521803
v 0.01639070 0.02132901 -0.00520878
v 0.01556357 0.02138954 -0.00520261
f 1 2 5
f 1 5 11
f 1 11 8
f 1 8 3
f 1 3 4
f 1 4 2
f 2 4 9
f 2 9 19
f 2 19 32
f 2 32 45
f 2 45 62
f 2 62 61
f 2 61 76
f 2 76 94
f 2 94 111
f 2 111 129
f 2 129 146
f 2 146 145
f 2 145 168
f 2 168 169
f 2 169 192
f 2 192 214
f 2 214 212
f 2 212 232
f 2 232 251
f 2 251 252
f 2 252 273
f 2 273 271
f 2 271 295
f 2 295 315
f 2 315 333
f 2 333 348
f 2 348 365
f 2 365 377
f 2 377 361
f 2 361 376
f 2 376 375
f 2 375 388
f 2 388 386
f 2 386 382
f 2 382 367
f 2 367 350
f 2 350 335
f 2 335 318
f 2 318 316
f 2 316 296
f 2 296 275
f 2 275 255
f 2 255 254
f 2 254 235
f 2 235 216
f 2 216 194
f 2 194 171
f 2 171 151
f 2 151 150
f 2 150 131
f 2 131 113
f 2 113 97
f 2 97 81
f 2 81 79
f 2 79 63
f 2 63 46
f 2 46 33
f 2 33 20
f 2 20 10
f 2 10 5
f 3 6 7
f 3 7 4
f 3 8 15
f 3 15 6
f 4 7 9
f 5 10 11
f 6 12 13
f 6 13 14
f 6 14 7
f 6 15 25
f 6 25 12
f 7 14 16
f 7 16 17
f 7 17 18
f 7 18 19
f 7 19 9
f 8 11 21
f 8 21 34
f 8 34 48
f 8 48 47
f 8 47 64
f 8 64 80
f 8 80 96
f 8 96 112
f 8 112 130
f 8 130 149
f 8 149 170
f 8 170 193
f 8 193 215
f 8 215 234
f 8 234 253
f 8 253 274
f 8 274 279
f 8 279 278
f 8 278 277
f 8 277 276
f 8 276 297
f 8 297 317
f 8 317 334
f 8 334 349
f 8 349 366
f 8 366 381
f 8 381 373
f 8 373 372
f 8 372 384
f 8 384 368
f 8 368 351
f 8 351 337
f 8 337 320
f 8 320 300
f 8 300 299
f 8 299 282
f 8 282 281
f 8 281 258
f 8 258 237
f 8 237 218
f 8 218 196
f 8 196 175
f 8 175 174
f 8 174 155
f 8 155 154
f 8 154 134
f 8 134 133
f 8 133 116
f 8 116 99
f 8 99 83
f 8 83 67
f 8 67 51
f 8 51 36
f 8 36 26
f 8 26 25
f 8 25 15
f 10 20 21
f 10 21 22
f 10 22 11
f 11 22 21
f 12 23 24
f 12 24 13
f 12 25 26
f 12 26 23
f 13 24 27
f 13 27 28
f 13 28 16
f 13 16 14
f 16 28 29
f 16 29 30
f 16 30 17
f 17 30 31
f 17 31 32
f 17 32 18
f 18 32 19
f 20 33 34
f 20 34 21
f 23 35 24
f 23 26 36
f 23 36 51
f 23 51 35
f 24 35 37
f 24 37 27
f 27 37 38
f 27 38 39
f 27 39 28
f 28 39 29
f 29 39 40
f 29 40 41
f 29 41 30
f 30 41 42
f 30 42 31
f 31 43 44
f 31 44 32
f 31 42 43
f 32 44 45
f 33 46 47
f 33 47 48
f 33 48 34
f 35 49 50
f 35 50 37
f 35 51 67
f 35 67 49
f 37 50 52
f 37 52 38
f 38 52 53
f 38 53 39
f 39 53 54
f 39 54 55
f 39 55 40
f 40 55 56
f 40 56 41
f 41 56 57
f 41 57 59
f 41 59 42
f 42 58 43
f 42 59 60
f 42 60 76
f 42 76 58
f 43 45 44
f 43 58 61
f 43 61 62
f 43 62 45
f 46 63 64
f 46 64 47
f 49 65 66
f 49 66 50
f 49 67 83
f 49 83 65
f 50 66 68
f 50 68 52
f 52 68 69
f 52 69 53
f 53 70 71
f 53 71 54
f 53 69 70
f 54 71 55
f 55 72 73
f 55 73 56
f 55 71 72
f 56 73 74
f 56 74 57
f 57 74 75
f 57 75 59
f 58 76 61
f 59 75 77
f 59 77 78
f 59 78 60
f 60 78 76
f 63 79 64
f 64 79 81
f 64 81 80
f 65 82 66
f 65 83 99
f 65 99 82
f 66 82 84
f 66 84 68
f 68 84 85
f 68 85 69
f 69 86 70
f 69 85 86
f 70 86 87
f 70 87 71
f 71 87 88
f 71 88 89
f 71 89 72
f 72 89 90
f 72 90 73
f 73 90 91
f 73 91 74
f 74 91 92
f 74 92 75
f 75 92 93
f 75 93 77
f 76 78 94
f 77 95 78
f 77 93 95
f 78 95 94
f 80 81 97
f 80 97 96
f 82 98 84
f 82 99 116
f 82 116 98
f 84 100 85
f 84 98 100
f 85 100 101
f 85 101 86
f 86 102 87
f 86 101 102
f 87 102 103
f 87 103 104
f 87 104 89
f 87 89 88
f 89 104 105
f 89 105 106
f 89 106 90
f 90 106 107
f 90 107 91
f 91 107 108
f 91 108 92
f 92 108 109
f 92 109 93
f 93 109 110
f 93 110 111
f 93 111 95
f 94 95 111
f 96 97 113
f 96 113 112
f 98 114 115
f 98 115 100
f 98 116 133
f 98 133 114
f 100 115 117
f 100 117 101
f 101 117 118
f 101 118 102
f 102 118 119
f 102 119 103
f 103 120 121
f 103 121 104
f 103 119 120
f 104 121 105
f 105 122 123
f 105 123 106
f 105 121 122
f 106 123 124
f 106 124 107
f 107 124 125
f 107 125 108
f 108 125 126
f 108 126 109
f 109 127 110
f 109 126 128
f 109 128 145
f 109 145 127
f 110 127 129
f 110 129 111
f 112 113 131
f 112 131 150
f 112 150 130
f 114 132 115
f 114 133 134
f 114 134 132
f 115 132 135
f 115 135 117
f 117 135 136
f 117 136 118
f 118 137 119
f 118 136 137
f 119 137 138
f 119 138 120
f 120 139 121
f 120 138 139
f 121 139 122
f 122 140 141
f 122 141 123
f 122 139 140
f 123 141 142
f 123 142 124
f 124 142 143
f 124 143 125
f 125 143 144
f 125 144 126
f 126 144 128
f 127 145 146
f 127 146 129
f 128 144 147
f 128 147 148
f 128 148 145
f 130 150 151
f 130 151 149
f 132 152 153
f 132 153 135
f 132 134 154
f 132 154 155
f 132 155 152
f 135 153 156
f 135 156 136
f 136 156 137
f 137 157 138
f 137 156 157
f 138 157 177
f 138 177 158
f 138 158 159
f 138 159 139
f 139 159 160
f 139 160 140
f 140 160 161
f 140 161 162
f 140 162 163
f 140 163 141
f 141 163 164
f 141 164 142
f 142 164 165
f 142 165 143
f 143 165 166
f 143 166 144
f 144 166 167
f 144 167 147
f 145 148 168
f 147 167 191
f 147 191 169
f 147 169 148
f 148 169 168
f 149 151 171
f 149 171 170
f 152 172 173
f 152 173 153
f 152 155 174
f 152 174 175
f 152 175 172
f 153 173 176
f 153 176 156
f 156 176 157
f 157 176 177
f 158 177 178
f 158 178 179
f 158 179 180
f 158 180 181
f 158 181 182
f 158 182 159
f 159 182 161
f 159 161 160
f 161 182 183
f 161 183 184
f 161 184 162
f 162 184 163
f 163 184 204
f 163 204 185
f 163 185 209
f 163 209 186
f 163 186 164
f 164 186 187
f 164 187 165
f 165 187 188
f 165 188 166
f 166 188 189
f 166 189 167
f 167 189 190
f 167 190 191
f 169 191 192
f 170 171 193
f 171 194 193
f 172 195 197
f 172 197 173
f 172 175 196
f 172 196 218
f 172 218 195
f 173 197 198
f 173 198 176
f 176 198 177
f 177 198 178
f 178 199 200
f 178 200 179
f 178 198 199
f 179 200 180
f 180 201 202
f 180 202 181
f 180 200 201
f 181 202 203
f 181 203 182
f 182 203 183
f 183 203 184
f 184 203 202
f 184 202 204
f 185 204 205
f 185 205 206
f 185 206 207
f 185 207 208
f 185 208 209
f 186 209 210
f 186 210 187
f 187 210 211
f 187 211 188
f 188 211 213
f 188 213 189
f 189 212 190
f 189 213 232
f 189 232 212
f 190 212 214
f 190 214 191
f 191 214 192
f 193 194 215
f 194 216 215
f 195 217 197
f 195 218 237
f 195 237 217
f 197 217 219
f 197 219 198
f 198 219 220
f 198 220 199
f 199 220 221
f 199 221 200
f 200 221 222
f 200 222 223
f 200 223 201
f 201 223 224
f 201 224 225
f 201 225 202
f 202 225 226
f 202 226 227
f 202 227 205
f 202 205 204
f 205 227 206
f 206 227 228
f 206 228 229
f 206 229 207
f 207 229 210
f 207 210 208
f 208 210 209
f 210 229 230
f 210 230 231
f 210 231 211
f 211 231 213
f 213 231 233
f 213 233 250
f 213 250 232
f 215 216 234
f 216 235 234
f 217 236 238
f 217 238 219
f 217 237 258
f 217 258 236
f 219 238 220
f 220 238 239
f 220 239 221
f 221 240 222
f 221 239 240
f 222 240 241
f 222 241 242
f 222 242 223
f 223 242 243
f 223 243 224
f 224 243 244
f 224 244 226
f 224 226 225
f 226 244 228
f 226 228 227
f 228 245 229
f 228 244 246
f 228 246 245
f 229 245 230
f 230 245 247
f 230 247 248
f 230 248 231
f 231 248 249
f 231 249 233
f 232 250 251
f 233 249 252
f 233 252 250
f 234 235 254
f 234 254 255
f 234 255 253
f 236 256 257
f 236 257 238
f 236 258 281
f 236 281 256
f 238 257 259
f 238 259 239
f 239 259 240
f 240 259 260
f 240 260 241
f 241 260 261
f 241 261 262
f 241 262 242
f 242 263 243
f 242 262 263
f 243 263 264
f 243 264 244
f 244 264 246
f 245 246 265
f 245 265 247
f 246 264 266
f 246 266 265
f 247 265 267
f 247 267 248
f 248 267 268
f 248 268 249
f 249 268 269
f 249 269 270
f 249 270 271
f 249 271 272
f 249 272 252
f 250 252 251
f 252 272 273
f 253 255 274
f 255 275 276
f 255 276 277
f 255 277 278
f 255 278 279
f 255 279 274
f 256 280 257
f 256 281 282
f 256 282 280
f 257 280 283
f 257 283 259
f 259 283 260
f 260 283 284
f 260 284 261
f 261 285 262
f 261 284 286
f 261 286 285
f 262 285 287
f 262 287 288
f 262 288 289
f 262 289 263
f 263 289 264
f 264 289 266
f 265 266 290
f 265 290 267
f 266 289 291
f 266 291 290
f 267 290 292
f 267 292 268
f 268 292 293
f 268 293 269
f 269 293 294
f 269 294 270
f 270 295 271
f 270 294 295
f 271 273 272
f 275 296 276
f 276 296 297
f 280 298 283
f 280 282 299
f 280 299 300
f 280 300 298
f 283 298 301
f 283 301 284
f 284 301 302
f 284 302 286
f 285 303 287
f 285 286 303
f 286 302 304
f 286 304 303
f 287 305 306
f 287 306 289
f 287 289 288
f 287 303 307
f 287 307 305
f 289 306 291
f 290 291 308
f 290 308 292
f 291 306 309
f 291 309 308
f 292 308 310
f 292 310 311
f 292 311 293
f 293 312 294
f 293 311 313
f 293 313 330
f 293 330 312
f 294 312 314
f 294 314 315
f 294 315 295
f 296 316 297
f 297 316 318
f 297 318 317
f 298 319 301
f 298 300 320
f 298 320 337
f 298 337 319
f 301 319 321
f 301 321 302
f 302 321 322
f 302 322 304
f 303 304 323
f 303 323 307
f 304 322 324
f 304 324 323
f 305 307 325
f 305 325 326
f 305 326 327
f 305 327 309
f 305 309 306
f 307 323 325
f 308 309 310
f 309 327 310
f 310 327 328
f 310 328 329
f 310 329 311
f 311 329 313
f 312 330 314
f 313 329 331
f 313 331 346
f 313 346 330
f 314 330 332
f 314 332 348
f 314 348 333
f 314 333 315
f 317 318 334
f 318 335 334
f 319 336 322
f 319 322 321
f 319 337 351
f 319 351 336
f 322 336 324
f 323 324 338
f 323 338 325
f 324 339 338
f 324 336 340
f 324 340 339
f 325 341 326
f 325 338 342
f 325 342 341
f 326 343 327
f 326 341 343
f 327 343 328
f 328 344 331
f 328 331 329
f 328 343 345
f 328 345 344
f 330 346 347
f 330 347 332
f 331 344 346
f 332 347 348
f 334 335 349
f 335 350 349
f 336 351 368
f 336 368 352
f 336 352 353
f 336 353 340
f 338 339 354
f 338 354 342
f 339 340 355
f 339 355 356
f 339 356 354
f 340 353 355
f 341 357 343
f 341 342 358
f 341 358 357
f 342 354 358
f 343 357 362
f 343 362 345
f 344 345 359
f 344 359 360
f 344 360 361
f 344 361 346
f 345 362 363
f 345 363 359
f 346 361 364
f 346 364 347
f 347 364 348
f 348 364 365
f 349 350 367
f 349 367 383
f 349 383 380
f 349 380 366
f 352 368 384
f 352 384 369
f 352 369 353
f 353 369 355
f 354 356 370
f 354 370 371
f 354 371 358
f 355 369 356
f 356 369 372
f 356 372 373
f 356 373 381
f 356 381 370
f 357 358 374
f 357 374 362
f 358 371 374
f 359 363 375
f 359 375 376
f 359 376 361
f 359 361 360
f 361 377 364
f 362 378 375
f 362 375 363
f 362 374 379
f 362 379 378
f 364 377 365
f 366 380 370
f 366 370 381
f 367 382 385
f 367 385 383
f 369 384 372
f 370 380 371
f 371 385 374
f 371 380 385
f 374 385 386
f 374 386 387
f 374 387 379
f 375 378 388
f 378 379 388
f 379 387 388
f 380 383 385
f 382 386 385
f 386 388 387

