# https://github.com/mikedh/trimesh
v -0.01352632 -0.00368064 -0.00298952
v -0.01352632 -0.00367991 -0.00326616
v -0.01172870 -0.00297088 -0.00344921
v -0.01172870 -0.00297160 -0.00298952
v -0.01352632 -0.00368064 0.00298952
v -0.01352632 -0.00367919 -0.00344921
v -0.01352632 -0.00364677 -0.00390993
v -0.01173011 -0.00293846 -0.00390993
v -0.01172870 -0.00293773 -0.00390993
v -0.01172870 -0.00297160 0.00298952
v -0.01172870 -0.00297088 0.00344921
v -0.01352632 -0.00367919 0.00344921
v -0.01352632 -0.00340826 -0.00433465
v -0.01173011 -0.00283325 -0.00422461
v -0.01172870 -0.00283325 -0.00422358
v -0.01352632 -0.00364677 0.00390993
v -0.01352632 -0.00366766 0.00361375
v -0.01172870 -0.00293773 0.00390993
v -0.01173011 -0.00293846 0.00390993
v -0.01172870 -0.00261060 -0.00445394
v -0.01352632 -0.00300691 -0.00469870
v -0.01172870 -0.00191454 -0.00511725
v -0.01172870 -0.00214367 -0.00490746
v -0.01172870 -0.00238146 -0.00467710
v -0.01352632 -0.00363236 0.00396957
v -0.01172870 -0.00283253 0.00422358
v -0.01173011 -0.00283325 0.00422461
v -0.01352632 -0.00297160 -0.00473058
v -0.01173011 -0.00191381 -0.00511828
v -0.01172870 -0.00161046 -0.00521392
v -0.01352632 -0.00268049 -0.00498973
v -0.01352632 -0.00340826 0.00433465
v -0.01172870 -0.00261060 0.00445394
v -0.01352632 -0.00245063 -0.00514193
v -0.01173011 -0.00160974 -0.00521495
v -0.01172870 -0.00115146 -0.00525197
v -0.01172870 -0.00238074 0.00467813
v -0.01172870 -0.00214367 0.00490746
v -0.01352632 -0.00336863 0.00437167
v -0.01352632 -0.00206946 -0.00523860
v -0.01219011 -0.00160974 -0.00524169
v -0.01173011 -0.00114930 -0.00525300
v -0.01172870 -0.00069102 -0.00525300
v -0.01172870 -0.00191381 0.00511828
v -0.01352632 -0.00293341 0.00476554
v -0.01352632 -0.00160974 -0.00525300
v -0.01264994 -0.00160974 -0.00525300
v -0.01172870 0.00114786 -0.00525300
v -0.01172870 -0.00160974 0.00521495
v -0.01352632 -0.00242325 0.00515119
v -0.01352632 -0.00245063 0.00514193
v -0.01352632 -0.00265888 0.00500824
v -0.01352632 -0.00268049 0.00498973
v -0.01352632 0.00160974 -0.00525300
v -0.01173011 0.00114930 -0.00525300
v -0.01172870 0.00160830 -0.00521495
v -0.01172870 -0.00114930 0.00525300
v -0.01219011 -0.00160974 0.00524169
v -0.01352632 -0.00206946 0.00523860
v -0.01352632 0.00202622 -0.00524374
v -0.01264994 0.00160974 -0.00525300
v -0.01219011 0.00160974 -0.00524169
v -0.01173011 0.00160974 -0.00521495
v -0.01172870 0.00191309 -0.00511828
v -0.01264994 -0.00160974 0.00525300
v -0.01172870 0.00114930 0.00525300
v -0.01352632 -0.00202622 0.00524374
v -0.01352632 0.00206946 -0.00523860
v -0.01352632 0.00242325 -0.00515119
v -0.01173011 0.00191381 -0.00511828
v -0.01172870 0.00214295 -0.00490849
v -0.01352632 -0.00160974 0.00525300
v -0.01264994 0.00160974 0.00525300
v -0.01172870 0.00160974 0.00521495
v -0.01219011 0.00160974 0.00524169
v -0.01352632 0.00245063 -0.00514193
v -0.01352632 0.00265888 -0.00500824
v -0.01352632 0.00268049 -0.00498973
v -0.01352632 0.00293341 -0.00476554
v -0.01352632 0.00336863 -0.00437167
v -0.01352632 0.00340826 -0.00433465
v -0.01173011 0.00238074 -0.00467813
v -0.01172870 0.00260988 -0.00445497
v -0.01352632 0.00160974 0.00525300
v -0.01352632 0.00206946 0.00523860
v -0.01172870 0.00191454 0.00511725
v -0.01173011 0.00191381 0.00511828
v -0.01352632 0.00245063 0.00514193
v -0.01352632 0.00363236 -0.00396957
v -0.01173011 0.00283325 -0.00422461
v -0.01172870 0.00283181 -0.00422461
v -0.01172870 0.00214367 0.00490746
v -0.01352632 0.00340826 0.00433465
v -0.01352632 0.00300691 0.00469870
v -0.01352632 0.00297160 0.00473058
v -0.01352632 0.00268049 0.00498973
v -0.01352632 0.00364677 -0.00390993
v -0.01173011 0.00293846 -0.00390993
v -0.01172870 0.00293773 -0.00390993
v -0.01172870 0.00238146 0.00467710
v -0.01172870 0.00261060 0.00445394
v -0.01173011 0.00283325 0.00422461
v -0.01352632 0.00364677 0.00390993
v -0.01352632 0.00366766 -0.00361375
v -0.01172870 0.00297088 -0.00345127
v -0.01172870 0.00283325 0.00422358
v -0.01352632 0.00367919 0.00344921
v -0.01173011 0.00293846 0.00390993
v -0.01172870 0.00297088 0.00344818
v -0.01352632 0.00367919 -0.00344921
v -0.01172870 0.00297160 -0.00299055
v -0.01352632 0.00368064 -0.00298952
v -0.01172870 0.00293773 0.00390787
v -0.01352632 0.00367991 0.00326616
v -0.01172870 0.00297160 0.00298849
v -0.01352632 0.00368064 0.00298952
f 1 2 3
f 1 3 4
f 1 4 10
f 1 10 5
f 1 5 12
f 1 12 17
f 1 17 16
f 1 16 25
f 1 25 32
f 1 32 39
f 1 39 45
f 1 45 53
f 1 53 52
f 1 52 51
f 1 51 50
f 1 50 59
f 1 59 67
f 1 67 72
f 1 72 84
f 1 84 85
f 1 85 88
f 1 88 96
f 1 96 95
f 1 95 94
f 1 94 93
f 1 93 103
f 1 103 107
f 1 107 114
f 1 114 116
f 1 116 112
f 1 112 110
f 1 110 104
f 1 104 97
f 1 97 89
f 1 89 81
f 1 81 80
f 1 80 79
f 1 79 78
f 1 78 77
f 1 77 76
f 1 76 69
f 1 69 68
f 1 68 60
f 1 60 54
f 1 54 46
f 1 46 40
f 1 40 34
f 1 34 31
f 1 31 28
f 1 28 21
f 1 21 13
f 1 13 7
f 1 7 6
f 1 6 2
f 2 6 3
f 3 6 7
f 3 7 8
f 3 8 9
f 3 9 15
f 3 15 20
f 3 20 24
f 3 24 23
f 3 23 22
f 3 22 30
f 3 30 36
f 3 36 43
f 3 43 48
f 3 48 56
f 3 56 64
f 3 64 71
f 3 71 83
f 3 83 91
f 3 91 99
f 3 99 105
f 3 105 111
f 3 111 115
f 3 115 109
f 3 109 113
f 3 113 106
f 3 106 101
f 3 101 100
f 3 100 92
f 3 92 86
f 3 86 74
f 3 74 66
f 3 66 57
f 3 57 49
f 3 49 44
f 3 44 38
f 3 38 37
f 3 37 33
f 3 33 26
f 3 26 18
f 3 18 11
f 3 11 10
f 3 10 4
f 5 10 11
f 5 11 12
f 7 13 14
f 7 14 15
f 7 15 8
f 8 15 9
f 11 16 17
f 11 17 12
f 11 18 19
f 11 19 16
f 13 20 14
f 13 21 22
f 13 22 23
f 13 23 24
f 13 24 20
f 14 20 15
f 16 19 25
f 18 26 27
f 18 27 19
f 19 27 25
f 21 28 22
f 22 29 35
f 22 35 30
f 22 28 31
f 22 31 29
f 25 27 32
f 26 33 27
f 27 33 32
f 29 31 34
f 29 34 35
f 30 35 36
f 32 33 37
f 32 37 38
f 32 38 39
f 34 40 35
f 35 40 41
f 35 41 42
f 35 42 36
f 36 42 43
f 38 44 39
f 39 44 45
f 40 46 47
f 40 47 41
f 41 47 42
f 42 47 46
f 42 46 54
f 42 54 61
f 42 61 55
f 42 55 48
f 42 48 43
f 44 49 50
f 44 50 51
f 44 51 52
f 44 52 53
f 44 53 45
f 48 55 63
f 48 63 56
f 49 57 58
f 49 58 59
f 49 59 50
f 54 60 61
f 55 61 62
f 55 62 63
f 56 63 64
f 57 65 58
f 57 66 73
f 57 73 84
f 57 84 72
f 57 72 65
f 58 65 67
f 58 67 59
f 60 68 62
f 60 62 61
f 62 68 63
f 63 69 70
f 63 70 64
f 63 68 69
f 64 70 71
f 65 72 67
f 66 74 75
f 66 75 73
f 69 76 70
f 70 76 77
f 70 77 78
f 70 78 79
f 70 79 80
f 70 80 71
f 71 80 81
f 71 81 82
f 71 82 83
f 73 75 85
f 73 85 84
f 74 86 87
f 74 87 88
f 74 88 85
f 74 85 75
f 81 83 82
f 81 89 90
f 81 90 83
f 83 90 91
f 86 92 93
f 86 93 94
f 86 94 95
f 86 95 96
f 86 96 87
f 87 96 88
f 89 97 98
f 89 98 90
f 90 98 99
f 90 99 91
f 92 100 93
f 93 101 102
f 93 102 103
f 93 100 101
f 97 104 105
f 97 105 98
f 98 105 99
f 101 106 102
f 102 106 103
f 103 106 108
f 103 108 109
f 103 109 107
f 104 110 105
f 105 110 112
f 105 112 111
f 106 113 108
f 107 109 114
f 108 113 109
f 109 115 116
f 109 116 114
f 111 112 116
f 111 116 115

