# https://github.com/mikedh/trimesh
v 0.02325300 -0.01035156 0.00252983
v 0.02324678 -0.01035156 0.00298952
v 0.02325300 -0.01219056 0.00252983
v 0.02325300 -0.01035156 -0.00252983
v 0.02319329 -0.01035156 0.00344921
v 0.02324678 -0.01219056 0.00298952
v 0.02325300 -0.01219056 -0.00252983
v 0.02324616 -0.01035156 -0.00298952
v 0.02319329 -0.01219056 0.00344921
v 0.02307263 -0.01035156 0.00384822
v 0.02324554 -0.01219056 -0.00298952
v 0.02324616 -0.01172986 -0.00298952
v 0.02319267 -0.01035156 -0.00344921
v 0.02307263 -0.01219056 0.00384822
v 0.02297001 -0.01035156 0.00407858
v 0.02319267 -0.01219056 -0.00344921
v 0.02307263 -0.01035156 -0.00384822
v 0.02297001 -0.01219056 0.00407858
v 0.02276104 -0.01035156 0.00436962
v 0.02307263 -0.01219056 -0.00384822
v 0.02296939 -0.01035156 -0.00407858
v 0.02276104 -0.01219056 0.00436962
v 0.02256077 -0.01035156 0.00462054
v 0.02296939 -0.01219056 -0.00407858
v 0.02276104 -0.01035156 -0.00436962
v 0.02256077 -0.01219056 0.00462054
v 0.02230951 -0.01035156 0.00480771
v 0.02276042 -0.01219056 -0.00436962
v 0.02276104 -0.01172986 -0.00436962
v 0.02256077 -0.01035156 -0.00462054
v 0.02230951 -0.01219056 0.00480771
v 0.02198299 -0.01035156 0.00501647
v 0.02256077 -0.01219056 -0.00462054
v 0.02230951 -0.01035156 -0.00480668
v 0.02198299 -0.01219056 0.00501647
v 0.02175287 -0.01035156 0.00511108
v 0.02230951 -0.01219056 -0.00480668
v 0.02198050 -0.01035156 -0.00501647
v 0.02175287 -0.01219056 0.00511108
v 0.02138965 -0.01035156 0.00520467
v 0.02198050 -0.01219056 -0.00501647
v 0.02175038 -0.01035156 -0.00511005
v 0.02138965 -0.01219056 0.00520467
v 0.02092941 -0.01035156 0.00524991
v 0.02175038 -0.01219056 -0.00511005
v 0.02138965 -0.01035156 -0.00520364
v 0.02092941 -0.01219056 0.00524991
v 0.02046980 -0.01035156 0.00525300
v 0.02138965 -0.01219056 -0.00520364
v 0.02092941 -0.01035156 -0.00524991
v 0.02046980 -0.01219056 0.00525300
v 0.01909032 -0.01035156 0.00525300
v 0.02092941 -0.01219056 -0.00524991
v 0.02046980 -0.01035156 -0.00525300
v 0.01863008 -0.01219056 0.00525300
v 0.01863008 -0.01127007 0.00525094
v 0.01863008 -0.01172986 0.00525300
v 0.01863008 -0.01035156 0.00523655
v 0.01863008 -0.01081009 0.00524477
v 0.02046980 -0.01219056 -0.00525300
v 0.01909032 -0.01035156 -0.00525300
v 0.01813315 -0.01219056 0.00515942
v 0.01829486 -0.01035156 0.00513988
v 0.01863008 -0.01219056 -0.00525300
v 0.01863008 -0.01172986 -0.00525300
v 0.01863008 -0.01127007 -0.00525094
v 0.01863008 -0.01081009 -0.00524477
v 0.01863008 -0.01035156 -0.00523655
v 0.01811138 -0.01219056 0.00515222
v 0.01791920 -0.01219056 0.00507715
v 0.01807469 -0.01219056 0.00513885
v 0.01806474 -0.01035156 0.00493523
v 0.01813315 -0.01219056 -0.00515942
v 0.01829361 -0.01035156 -0.00514091
v 0.01768411 -0.01219056 0.00485707
v 0.01760450 -0.01035156 0.00447554
v 0.01725870 -0.01219056 0.00444777
v 0.01765488 -0.01219056 0.00482930
v 0.01807469 -0.01219056 -0.00513885
v 0.01795030 -0.01198370 -0.00505349
v 0.01777429 -0.01219056 -0.00494037
v 0.01806349 -0.01035156 -0.00493934
v 0.01738993 -0.01035156 0.00424518
v 0.01698815 -0.01218984 0.00417628
v 0.01698815 -0.01219056 0.00417628
v 0.01768411 -0.01219056 -0.00485707
v 0.01725870 -0.01219056 -0.00444777
v 0.01782902 -0.01035156 -0.00470898
v 0.01701987 -0.01195868 0.00414028
v 0.01726678 -0.01035156 0.00390993
v 0.01692845 -0.01218984 0.00390993
v 0.01692845 -0.01219056 0.00390993
v 0.01698815 -0.01219056 -0.00417628
v 0.01698815 -0.01218984 -0.00417628
v 0.01759952 -0.01035156 -0.00448068
v 0.01723320 -0.01035156 0.00344921
v 0.01689984 -0.01219056 0.00344921
v 0.01692845 -0.01219056 -0.00390993
v 0.01692845 -0.01218984 -0.00390993
v 0.01701987 -0.01195868 -0.00414029
v 0.01738495 -0.01035156 -0.00425135
v 0.01723258 -0.01035156 0.00298952
v 0.01722636 -0.01035156 -0.00344921
v 0.01689984 -0.01218984 0.00298952
v 0.01689984 -0.01219056 -0.00344921
v 0.01725808 -0.01035156 -0.00390993
v 0.01689984 -0.01218984 -0.00298952
f 1 2 6
f 1 6 3
f 1 3 7
f 1 7 4
f 1 4 8
f 1 8 13
f 1 13 17
f 1 17 21
f 1 21 25
f 1 25 30
f 1 30 34
f 1 34 38
f 1 38 42
f 1 42 46
f 1 46 50
f 1 50 54
f 1 54 61
f 1 61 68
f 1 68 74
f 1 74 82
f 1 82 88
f 1 88 95
f 1 95 101
f 1 101 106
f 1 106 103
f 1 103 102
f 1 102 96
f 1 96 90
f 1 90 83
f 1 83 76
f 1 76 72
f 1 72 63
f 1 63 58
f 1 58 52
f 1 52 48
f 1 48 44
f 1 44 40
f 1 40 36
f 1 36 32
f 1 32 27
f 1 27 23
f 1 23 19
f 1 19 15
f 1 15 10
f 1 10 5
f 1 5 2
f 2 5 9
f 2 9 6
f 3 6 9
f 3 9 14
f 3 14 18
f 3 18 22
f 3 22 26
f 3 26 31
f 3 31 35
f 3 35 39
f 3 39 43
f 3 43 47
f 3 47 51
f 3 51 55
f 3 55 62
f 3 62 69
f 3 69 71
f 3 71 70
f 3 70 75
f 3 75 78
f 3 78 77
f 3 77 85
f 3 85 92
f 3 92 97
f 3 97 105
f 3 105 98
f 3 98 93
f 3 93 87
f 3 87 86
f 3 86 81
f 3 81 79
f 3 79 73
f 3 73 64
f 3 64 60
f 3 60 53
f 3 53 49
f 3 49 45
f 3 45 41
f 3 41 37
f 3 37 33
f 3 33 28
f 3 28 24
f 3 24 20
f 3 20 16
f 3 16 11
f 3 11 7
f 4 7 12
f 4 12 8
f 5 10 14
f 5 14 9
f 7 11 12
f 8 12 16
f 8 16 13
f 10 15 18
f 10 18 14
f 11 16 12
f 13 16 20
f 13 20 17
f 15 19 22
f 15 22 18
f 17 20 24
f 17 24 21
f 19 23 26
f 19 26 22
f 21 24 29
f 21 29 25
f 23 27 31
f 23 31 26
f 24 28 29
f 25 29 33
f 25 33 30
f 27 32 35
f 27 35 31
f 28 33 29
f 30 33 37
f 30 37 34
f 32 36 39
f 32 39 35
f 34 37 41
f 34 41 38
f 36 40 43
f 36 43 39
f 38 41 45
f 38 45 42
f 40 44 47
f 40 47 43
f 42 45 49
f 42 49 46
f 44 48 51
f 44 51 47
f 46 49 53
f 46 53 50
f 48 52 57
f 48 57 55
f 48 55 51
f 50 53 60
f 50 60 54
f 52 56 57
f 52 58 59
f 52 59 56
f 54 60 64
f 54 64 65
f 54 65 61
f 55 57 62
f 56 59 62
f 56 62 57
f 58 63 62
f 58 62 59
f 61 65 66
f 61 66 67
f 61 67 68
f 62 63 69
f 63 70 71
f 63 71 69
f 63 72 70
f 64 73 65
f 65 73 66
f 66 73 67
f 67 73 68
f 68 73 74
f 70 72 75
f 72 76 77
f 72 77 78
f 72 78 75
f 73 79 74
f 74 79 80
f 74 80 81
f 74 81 82
f 76 83 84
f 76 84 77
f 77 84 85
f 79 81 80
f 81 86 82
f 82 86 87
f 82 87 88
f 83 89 84
f 83 90 89
f 84 89 91
f 84 91 92
f 84 92 85
f 87 93 94
f 87 94 95
f 87 95 88
f 89 90 91
f 90 96 91
f 91 96 97
f 91 97 92
f 93 98 99
f 93 99 94
f 94 99 100
f 94 100 101
f 94 101 95
f 96 102 97
f 97 102 103
f 97 103 104
f 97 104 107
f 97 107 105
f 98 105 99
f 99 105 103
f 99 103 106
f 99 106 100
f 100 106 101
f 103 105 107
f 103 107 104

