# https://github.com/mikedh/trimesh
v 0.02325300 -0.00805484 0.00252983
v 0.02324685 -0.00805484 0.00298952
v 0.02325300 -0.01035156 0.00252983
v 0.02325300 -0.00805484 -0.00252983
v 0.02319332 -0.00805484 0.00344921
v 0.02324685 -0.01035156 0.00298952
v 0.02325300 -0.01035156 -0.00252983
v 0.02324623 -0.00805484 -0.00298952
v 0.02319209 -0.00805484 0.00345332
v 0.02319332 -0.01035156 0.00344921
v 0.02324623 -0.01035156 -0.00298952
v 0.02319332 -0.00805484 -0.00344510
v 0.02307212 -0.00805484 0.00385131
v 0.02307274 -0.01035156 0.00384822
v 0.02319271 -0.01035156 -0.00344921
v 0.02319271 -0.00805484 -0.00344921
v 0.02296999 -0.00805484 0.00407858
v 0.02296999 -0.01035156 0.00407858
v 0.02307274 -0.01035156 -0.00384822
v 0.02307274 -0.00805484 -0.00384822
v 0.02276081 -0.00805484 0.00436962
v 0.02276081 -0.01035156 0.00436962
v 0.02296938 -0.01035156 -0.00407858
v 0.02297061 -0.00805484 -0.00407653
v 0.02256086 -0.00805484 0.00462054
v 0.02256086 -0.01035156 0.00462054
v 0.02276081 -0.01035156 -0.00436962
v 0.02276327 -0.00805484 -0.00436653
v 0.02296938 -0.00805484 -0.00407858
v 0.02230985 -0.00805484 0.00480771
v 0.02230985 -0.01035156 0.00480771
v 0.02256086 -0.01035156 -0.00462054
v 0.02256086 -0.00805484 -0.00462054
v 0.02198316 -0.00805484 0.00501647
v 0.02198316 -0.01035156 0.00501647
v 0.02230985 -0.01035156 -0.00480668
v 0.02230985 -0.00805484 -0.00480668
v 0.02198070 -0.00805484 0.00501750
v 0.02175306 -0.01035156 0.00511108
v 0.02198008 -0.01035156 -0.00501647
v 0.02198008 -0.00805484 -0.00501647
v 0.02175306 -0.00805484 0.00511108
v 0.02174937 -0.00805484 0.00511211
v 0.02138946 -0.01035156 0.00520467
v 0.02175060 -0.01035156 -0.00511005
v 0.02175060 -0.00988996 -0.00511005
v 0.02174999 -0.00805484 -0.00511005
v 0.02138946 -0.00805484 0.00520467
v 0.02138515 -0.00805484 0.00520569
v 0.02092988 -0.01035156 0.00524991
v 0.02138946 -0.01035156 -0.00520364
v 0.02138946 -0.00805484 -0.00520364
v 0.02092988 -0.00805484 0.00524991
v 0.02046969 -0.01035156 0.00525300
v 0.02092988 -0.01035156 -0.00524991
v 0.02092988 -0.00805484 -0.00524991
v 0.02046969 -0.00805484 0.00525300
v 0.01909034 -0.01035156 0.00525300
v 0.02046969 -0.01035156 -0.00525300
v 0.02046969 -0.00805484 -0.00525300
v 0.01863014 -0.00805484 0.00525300
v 0.01863014 -0.00851013 0.00525197
v 0.01863014 -0.00897015 0.00524889
v 0.01863014 -0.01035156 0.00523655
v 0.01909034 -0.01035156 -0.00525300
v 0.01863014 -0.00805484 -0.00525300
v 0.01814903 -0.00805484 0.00514399
v 0.01829484 -0.01035156 0.00513988
v 0.01863014 -0.00851013 -0.00525197
v 0.01863014 -0.01035156 -0.00523655
v 0.01863014 -0.00897015 -0.00524889
v 0.01816687 -0.00805484 -0.00514810
v 0.01811766 -0.00805484 0.00512548
v 0.01797431 -0.00817422 0.00503395
v 0.01775528 -0.00805484 0.00485810
v 0.01806475 -0.01035156 0.00493523
v 0.01814903 -0.00805484 -0.00514399
v 0.01829361 -0.01035156 -0.00514091
v 0.01771714 -0.00805484 0.00482313
v 0.01725325 -0.00805484 0.00437167
v 0.01760455 -0.01035156 0.00447554
v 0.01795647 -0.00805484 -0.00504835
v 0.01806352 -0.01035156 -0.00493934
v 0.01738984 -0.01035156 0.00424518
v 0.01699486 -0.00805484 0.00390993
v 0.01771775 -0.00805484 -0.00482313
v 0.01782911 -0.01035156 -0.00470898
v 0.01725387 -0.00805484 -0.00437064
v 0.01748335 -0.00805484 -0.00459586
v 0.01726679 -0.01035156 0.00390993
v 0.01697209 -0.00805484 0.00352222
v 0.01723295 -0.01035156 0.00344921
v 0.01759901 -0.01035156 -0.00448068
v 0.01702070 -0.00805484 -0.00403642
v 0.01738491 -0.01035156 -0.00425135
v 0.01696840 -0.00805484 0.00344921
v 0.01723234 -0.01035156 0.00298952
v 0.01725818 -0.01035156 -0.00390993
v 0.01699793 -0.00805484 -0.00390993
v 0.01696840 -0.00805484 0.00252983
v 0.01722618 -0.01035156 -0.00344921
v 0.01699055 -0.00805484 -0.00378446
v 0.01697086 -0.00805484 -0.00298952
v 0.01697148 -0.00805484 -0.00344921
f 1 2 6
f 1 6 3
f 1 3 7
f 1 7 4
f 1 4 8
f 1 8 12
f 1 12 16
f 1 16 20
f 1 20 24
f 1 24 29
f 1 29 28
f 1 28 33
f 1 33 37
f 1 37 41
f 1 41 47
f 1 47 52
f 1 52 56
f 1 56 60
f 1 60 66
f 1 66 72
f 1 72 77
f 1 77 82
f 1 82 86
f 1 86 89
f 1 89 88
f 1 88 94
f 1 94 99
f 1 99 102
f 1 102 104
f 1 104 103
f 1 103 100
f 1 100 96
f 1 96 91
f 1 91 85
f 1 85 80
f 1 80 79
f 1 79 75
f 1 75 73
f 1 73 67
f 1 67 61
f 1 61 57
f 1 57 53
f 1 53 49
f 1 49 48
f 1 48 43
f 1 43 42
f 1 42 38
f 1 38 34
f 1 34 30
f 1 30 25
f 1 25 21
f 1 21 17
f 1 17 13
f 1 13 9
f 1 9 5
f 1 5 2
f 2 5 10
f 2 10 6
f 3 6 10
f 3 10 14
f 3 14 18
f 3 18 22
f 3 22 26
f 3 26 31
f 3 31 35
f 3 35 39
f 3 39 44
f 3 44 50
f 3 50 54
f 3 54 58
f 3 58 64
f 3 64 68
f 3 68 76
f 3 76 81
f 3 81 84
f 3 84 90
f 3 90 92
f 3 92 97
f 3 97 101
f 3 101 98
f 3 98 95
f 3 95 93
f 3 93 87
f 3 87 83
f 3 83 78
f 3 78 70
f 3 70 65
f 3 65 59
f 3 59 55
f 3 55 51
f 3 51 45
f 3 45 40
f 3 40 36
f 3 36 32
f 3 32 27
f 3 27 23
f 3 23 19
f 3 19 15
f 3 15 11
f 3 11 7
f 4 7 11
f 4 11 8
f 5 9 10
f 8 11 12
f 9 13 10
f 10 13 14
f 11 15 12
f 12 15 16
f 13 17 18
f 13 18 14
f 15 19 20
f 15 20 16
f 17 21 22
f 17 22 18
f 19 23 24
f 19 24 20
f 21 25 26
f 21 26 22
f 23 27 28
f 23 28 29
f 23 29 24
f 25 30 31
f 25 31 26
f 27 32 28
f 28 32 33
f 30 34 35
f 30 35 31
f 32 36 37
f 32 37 33
f 34 38 35
f 35 38 39
f 36 40 41
f 36 41 37
f 38 42 39
f 39 42 43
f 39 43 44
f 40 45 46
f 40 46 41
f 41 46 47
f 43 48 44
f 44 48 49
f 44 49 50
f 45 51 52
f 45 52 46
f 46 52 47
f 49 53 50
f 50 53 57
f 50 57 54
f 51 55 56
f 51 56 52
f 54 57 61
f 54 61 58
f 55 59 60
f 55 60 56
f 58 61 62
f 58 62 63
f 58 63 64
f 59 65 66
f 59 66 60
f 61 67 62
f 62 67 63
f 63 67 64
f 64 67 68
f 65 69 66
f 65 70 71
f 65 71 69
f 66 69 72
f 67 73 68
f 68 73 74
f 68 74 75
f 68 75 76
f 69 71 77
f 69 77 72
f 70 78 77
f 70 77 71
f 73 75 74
f 75 79 76
f 76 79 80
f 76 80 81
f 77 78 82
f 78 83 82
f 80 84 81
f 80 85 84
f 82 83 86
f 83 87 88
f 83 88 89
f 83 89 86
f 84 85 90
f 85 91 92
f 85 92 90
f 87 93 88
f 88 93 95
f 88 95 94
f 91 96 92
f 92 96 97
f 94 95 98
f 94 98 99
f 96 100 101
f 96 101 97
f 98 101 99
f 99 101 102
f 100 103 101
f 101 103 104
f 101 104 102

