# https://github.com/mikedh/trimesh
v 0.00114958 0.00851133 0.00525300
v 0.00160973 0.00804914 0.00522935
v 0.00160973 0.00851133 0.00519747
v -0.00114919 0.00851133 0.00525300
v 0.00344967 0.00390735 0.00525300
v 0.00356653 0.00390735 0.00524477
v 0.00188965 0.00850970 0.00510183
v 0.00189031 0.00851133 0.00509977
v 0.00344967 0.00436791 0.00522832
v 0.00356653 0.00436140 0.00520364
v -0.00160934 0.00851133 0.00519747
v -0.00160934 0.00804914 0.00522935
v -0.00317794 0.00463969 0.00523449
v -0.00317794 0.00418076 0.00525300
v 0.00356653 0.00344679 0.00525300
v 0.00211940 0.00851133 0.00488381
v 0.00356653 0.00475198 0.00512445
v -0.00188926 0.00851133 0.00509977
v -0.00188926 0.00850970 0.00510183
v -0.00317794 0.00512629 0.00515942
v -0.00317794 -0.00390752 0.00525300
v 0.00356653 -0.00379198 0.00525300
v 0.00258483 0.00851133 0.00442823
v 0.00356653 0.00505143 0.00498048
v 0.00280797 0.00851133 0.00419787
v -0.00211900 0.00851133 0.00488381
v -0.00317794 0.00548432 0.00503909
v -0.00317794 0.00522882 0.00513371
v -0.00317794 -0.00436971 0.00524169
v -0.00298847 -0.00436971 0.00525300
v 0.00356653 -0.00425091 0.00522626
v 0.00114892 -0.00811441 0.00525300
v 0.00160841 -0.00758875 0.00524991
v 0.00154437 -0.00811441 0.00523346
v 0.00356653 0.00619876 0.00432951
v 0.00288653 0.00850970 0.00390993
v 0.00288653 0.00851133 0.00390684
v 0.00356653 0.00632896 0.00421741
v 0.00356653 0.00663003 0.00389142
v -0.00258509 0.00851133 0.00442823
v -0.00235535 0.00850970 0.00465345
v -0.00317794 0.00738190 0.00413823
v -0.00280758 0.00851133 0.00419787
v -0.00317794 -0.00482376 0.00520261
v -0.00298847 -0.00482864 0.00524169
v -0.00160868 -0.00758875 0.00524991
v -0.00114919 -0.00811441 0.00525300
v 0.00356653 -0.00469520 0.00514296
v 0.00160841 -0.00804931 0.00522935
v 0.00160841 -0.00811441 0.00522420
v 0.00189229 -0.00811441 0.00514296
v 0.00193124 -0.00811441 0.00512856
v 0.00291624 0.00851133 0.00344818
v 0.00356653 0.00668536 0.00344818
v -0.00317794 0.00747792 0.00400557
v -0.00288614 0.00851133 0.00390993
v -0.00317794 -0.00522899 0.00513371
v -0.00193151 -0.00811441 0.00512856
v -0.00160868 -0.00811441 0.00522420
v -0.00160868 -0.00804931 0.00522935
v 0.00356653 -0.00475216 0.00512445
v 0.00212930 -0.00811441 0.00495682
v 0.00291690 0.00851133 0.00298746
v 0.00356653 0.00668536 -0.00345127
v -0.00317794 0.00749744 0.00393872
v -0.00291651 0.00851133 0.00344818
v -0.00317794 0.00750884 0.00389450
v -0.00317794 -0.00550891 0.00502675
v -0.00216191 -0.00811441 0.00492597
v 0.00356653 -0.00498976 0.00501544
v 0.00236631 -0.00811441 0.00472852
v 0.00291690 0.00851133 -0.00298952
v 0.00356653 0.00662677 -0.00389450
v 0.00291624 0.00851133 -0.00345127
v -0.00291717 0.00851133 0.00298952
v -0.00317794 0.00758044 0.00344818
v -0.00317794 0.00756905 0.00354896
v -0.00317794 -0.00731860 0.00416085
v -0.00285247 -0.00811441 0.00424312
v -0.00266036 -0.00811441 0.00444160
v -0.00262933 -0.00811441 0.00447245
v -0.00219492 -0.00811441 0.00489409
v 0.00259671 -0.00811441 0.00450536
v 0.00262972 -0.00811441 0.00447245
v 0.00285287 -0.00811441 0.00424312
v 0.00356653 -0.00611431 0.00437887
v 0.00356653 0.00649821 -0.00411458
v 0.00288653 0.00851133 -0.00390993
v -0.00291717 0.00851133 -0.00298952
v -0.00317794 0.00758044 -0.00344818
v -0.00317794 -0.00747646 0.00400557
v -0.00297989 -0.00811441 0.00390993
v 0.00296906 -0.00811441 0.00394901
v 0.00356653 -0.00649838 0.00411458
v 0.00356653 -0.00619731 0.00432951
v 0.00356653 0.00619876 -0.00432951
v 0.00280797 0.00851133 -0.00419788
v -0.00291651 0.00851133 -0.00344818
v -0.00317794 0.00750884 -0.00389450
v -0.00317794 -0.00750738 0.00389450
v -0.00301356 -0.00811441 0.00344818
v 0.00298028 -0.00811441 0.00390993
v 0.00356653 -0.00663020 0.00389142
v 0.00356653 0.00611414 -0.00437887
v 0.00258417 0.00851133 -0.00442823
v 0.00356653 0.00499122 -0.00501544
v 0.00356653 0.00475198 -0.00512445
v -0.00288614 0.00851133 -0.00390993
v -0.00317794 0.00747792 -0.00400557
v -0.00317794 -0.00757899 0.00344818
v -0.00301422 -0.00811441 0.00298952
v 0.00300867 -0.00811441 0.00351297
v 0.00356653 -0.00668553 0.00345127
v 0.00301329 -0.00811441 0.00344818
v 0.00211874 0.00851133 -0.00488381
v 0.00356653 0.00469503 -0.00514296
v 0.00188965 0.00850970 -0.00510183
v -0.00280758 0.00851133 -0.00419788
v -0.00317794 0.00732006 -0.00416085
v -0.00317794 -0.00757899 -0.00344818
v -0.00301422 -0.00811441 -0.00305431
v 0.00356653 -0.00668553 -0.00344818
v 0.00301329 -0.00811441 -0.00344818
v 0.00188833 0.00851133 -0.00510183
v 0.00356653 0.00425237 -0.00522626
v 0.00160841 0.00851133 -0.00519850
v -0.00258509 0.00851133 -0.00442823
v -0.00317794 0.00550711 -0.00502676
v -0.00317794 -0.00756922 -0.00354896
v -0.00301356 -0.00811441 -0.00344818
v 0.00356653 -0.00663020 -0.00389142
v 0.00298028 -0.00811441 -0.00390993
v 0.00356653 0.00379181 -0.00525300
v 0.00160973 0.00804914 -0.00522935
v 0.00114958 0.00850970 -0.00525300
v 0.00114826 0.00851133 -0.00525300
v -0.00235601 0.00851133 -0.00465242
v -0.00317794 0.00522882 -0.00513371
v -0.00211900 0.00851133 -0.00488381
v -0.00317794 -0.00750738 -0.00389450
v -0.00300893 -0.00811441 -0.00351297
v -0.00317794 -0.00749924 -0.00393872
v 0.00356653 -0.00632750 -0.00421741
v 0.00321531 -0.00734789 -0.00410943
v 0.00285287 -0.00811441 -0.00424312
v 0.00356653 -0.00344696 -0.00525300
v -0.00069036 0.00851133 -0.00525300
v -0.00317794 0.00482522 -0.00520261
v -0.00188926 0.00850970 -0.00510183
v -0.00188992 0.00851133 -0.00509977
v -0.00297989 -0.00811441 -0.00390993
v -0.00317794 -0.00747646 -0.00400557
v 0.00356653 -0.00619731 -0.00432951
v 0.00266075 -0.00811441 -0.00444160
v 0.00356653 -0.00475216 -0.00512445
v 0.00356653 -0.00504997 -0.00498048
v 0.00356653 -0.00390752 -0.00524477
v 0.00344967 -0.00390752 -0.00525300
v -0.00114919 0.00850970 -0.00525300
v -0.00115051 0.00851133 -0.00525197
v -0.00298847 0.00482847 -0.00524169
v -0.00317794 0.00436791 -0.00524169
v -0.00161000 0.00851133 -0.00519747
v -0.00296866 -0.00811441 -0.00394901
v -0.00317794 -0.00738044 -0.00413823
v 0.00262972 -0.00811441 -0.00447245
v 0.00356653 -0.00436320 -0.00520364
v 0.00216099 -0.00811441 -0.00492597
v 0.00193124 -0.00811441 -0.00512857
v 0.00344967 -0.00436808 -0.00522832
v 0.00160841 -0.00804931 -0.00522935
v 0.00160841 -0.00758875 -0.00524991
v 0.00114892 -0.00811441 -0.00525300
v -0.00160934 0.00804914 -0.00522935
v -0.00298847 0.00436791 -0.00525300
v -0.00317794 0.00390735 -0.00525300
v -0.00285247 -0.00811441 -0.00424312
v -0.00317794 -0.00548450 -0.00503910
v 0.00160841 -0.00811441 -0.00522421
v -0.00114919 -0.00811441 -0.00525300
v -0.00317794 -0.00418093 -0.00525300
v -0.00259764 -0.00811441 -0.00450536
v -0.00317794 -0.00522899 -0.00513371
v -0.00193151 -0.00811441 -0.00512857
v -0.00212957 -0.00811441 -0.00495682
v -0.00216191 -0.00811441 -0.00492597
v -0.00154464 -0.00811441 -0.00523346
v -0.00160868 -0.00758875 -0.00524991
v -0.00317794 -0.00463986 -0.00523449
v -0.00317794 -0.00512646 -0.00515942
v -0.00189256 -0.00811441 -0.00514296
v -0.00160868 -0.00811441 -0.00522421
v -0.00160868 -0.00804931 -0.00522935
f 1 2 3
f 1 3 8
f 1 8 16
f 1 16 23
f 1 23 25
f 1 25 37
f 1 37 53
f 1 53 63
f 1 63 72
f 1 72 74
f 1 74 88
f 1 88 97
f 1 97 105
f 1 105 115
f 1 115 124
f 1 124 126
f 1 126 136
f 1 136 147
f 1 147 160
f 1 160 163
f 1 163 150
f 1 150 139
f 1 139 137
f 1 137 127
f 1 127 118
f 1 118 108
f 1 108 98
f 1 98 89
f 1 89 75
f 1 75 66
f 1 66 56
f 1 56 43
f 1 43 40
f 1 40 26
f 1 26 18
f 1 18 11
f 1 11 4
f 1 4 14
f 1 14 21
f 1 21 30
f 1 30 47
f 1 47 32
f 1 32 22
f 1 22 15
f 1 15 5
f 1 5 6
f 1 6 2
f 2 6 3
f 3 7 8
f 3 6 9
f 3 9 10
f 3 10 7
f 4 11 12
f 4 12 13
f 4 13 14
f 5 15 6
f 6 15 22
f 6 22 31
f 6 31 48
f 6 48 61
f 6 61 70
f 6 70 86
f 6 86 95
f 6 95 94
f 6 94 103
f 6 103 113
f 6 113 122
f 6 122 131
f 6 131 143
f 6 143 153
f 6 153 156
f 6 156 155
f 6 155 167
f 6 167 157
f 6 157 146
f 6 146 133
f 6 133 125
f 6 125 116
f 6 116 107
f 6 107 106
f 6 106 104
f 6 104 96
f 6 96 87
f 6 87 73
f 6 73 64
f 6 64 54
f 6 54 39
f 6 39 38
f 6 38 35
f 6 35 24
f 6 24 17
f 6 17 10
f 6 10 9
f 7 16 8
f 7 10 17
f 7 17 16
f 11 18 19
f 11 19 13
f 11 13 12
f 13 20 28
f 13 28 27
f 13 27 42
f 13 42 55
f 13 55 65
f 13 65 67
f 13 67 77
f 13 77 76
f 13 76 90
f 13 90 99
f 13 99 109
f 13 109 119
f 13 119 128
f 13 128 138
f 13 138 148
f 13 148 162
f 13 162 176
f 13 176 181
f 13 181 189
f 13 189 190
f 13 190 183
f 13 183 178
f 13 178 165
f 13 165 152
f 13 152 142
f 13 142 140
f 13 140 129
f 13 129 120
f 13 120 110
f 13 110 100
f 13 100 91
f 13 91 78
f 13 78 68
f 13 68 57
f 13 57 44
f 13 44 29
f 13 29 21
f 13 21 14
f 13 19 20
f 16 17 23
f 17 24 25
f 17 25 23
f 18 26 19
f 19 26 27
f 19 27 28
f 19 28 20
f 21 29 30
f 22 32 33
f 22 33 34
f 22 34 31
f 24 35 25
f 25 36 37
f 25 35 38
f 25 38 39
f 25 39 36
f 26 40 41
f 26 41 27
f 27 41 40
f 27 40 43
f 27 43 42
f 29 44 45
f 29 45 30
f 30 45 46
f 30 46 47
f 31 34 49
f 31 49 50
f 31 50 51
f 31 51 52
f 31 52 48
f 32 47 59
f 32 59 58
f 32 58 69
f 32 69 82
f 32 82 81
f 32 81 80
f 32 80 79
f 32 79 92
f 32 92 101
f 32 101 111
f 32 111 121
f 32 121 130
f 32 130 141
f 32 141 151
f 32 151 164
f 32 164 177
f 32 177 182
f 32 182 186
f 32 186 185
f 32 185 184
f 32 184 191
f 32 191 192
f 32 192 187
f 32 187 180
f 32 180 173
f 32 173 179
f 32 179 169
f 32 169 168
f 32 168 166
f 32 166 154
f 32 154 145
f 32 145 132
f 32 132 123
f 32 123 114
f 32 114 112
f 32 112 102
f 32 102 93
f 32 93 85
f 32 85 84
f 32 84 83
f 32 83 71
f 32 71 62
f 32 62 52
f 32 52 51
f 32 51 50
f 32 50 34
f 32 34 33
f 34 50 49
f 36 39 37
f 37 39 53
f 39 54 53
f 42 43 56
f 42 56 55
f 44 57 58
f 44 58 59
f 44 59 45
f 45 59 60
f 45 60 46
f 46 60 47
f 47 60 59
f 48 52 61
f 52 62 61
f 53 54 63
f 54 64 72
f 54 72 63
f 55 56 65
f 56 66 67
f 56 67 65
f 57 68 69
f 57 69 58
f 61 62 70
f 62 71 70
f 64 73 74
f 64 74 72
f 66 75 76
f 66 76 77
f 66 77 67
f 68 78 79
f 68 79 80
f 68 80 81
f 68 81 82
f 68 82 69
f 70 71 83
f 70 83 84
f 70 84 85
f 70 85 86
f 73 87 88
f 73 88 74
f 75 89 90
f 75 90 76
f 78 91 92
f 78 92 79
f 85 93 94
f 85 94 95
f 85 95 86
f 87 96 97
f 87 97 88
f 89 98 90
f 90 98 99
f 91 100 92
f 92 100 101
f 93 102 94
f 94 102 103
f 96 104 97
f 97 104 106
f 97 106 107
f 97 107 105
f 98 108 99
f 99 108 109
f 100 110 101
f 101 110 111
f 102 112 103
f 103 112 114
f 103 114 113
f 105 107 115
f 107 116 117
f 107 117 115
f 108 118 109
f 109 118 119
f 110 120 121
f 110 121 111
f 113 114 123
f 113 123 122
f 115 117 124
f 116 125 117
f 117 126 124
f 117 125 126
f 118 127 128
f 118 128 119
f 120 129 130
f 120 130 121
f 122 123 131
f 123 132 131
f 125 133 134
f 125 134 126
f 126 134 135
f 126 135 136
f 127 137 128
f 128 137 139
f 128 139 138
f 129 140 130
f 130 140 142
f 130 142 141
f 131 132 144
f 131 144 143
f 132 145 144
f 133 135 134
f 133 146 158
f 133 158 173
f 133 173 180
f 133 180 181
f 133 181 176
f 133 176 175
f 133 175 159
f 133 159 147
f 133 147 136
f 133 136 135
f 138 139 149
f 138 149 148
f 139 150 149
f 141 142 151
f 142 152 151
f 143 144 153
f 144 145 153
f 145 154 155
f 145 155 156
f 145 156 153
f 146 157 158
f 147 159 160
f 148 161 162
f 148 149 163
f 148 163 161
f 149 150 163
f 151 152 165
f 151 165 164
f 154 166 155
f 155 166 168
f 155 168 169
f 155 169 167
f 157 167 170
f 157 170 171
f 157 171 172
f 157 172 158
f 158 172 173
f 159 174 163
f 159 163 160
f 159 175 161
f 159 161 174
f 161 175 176
f 161 176 162
f 161 163 174
f 164 165 177
f 165 178 177
f 167 169 179
f 167 179 170
f 170 179 171
f 171 179 173
f 171 173 172
f 177 178 182
f 178 183 184
f 178 184 185
f 178 185 186
f 178 186 182
f 180 187 188
f 180 188 181
f 181 188 189
f 183 190 184
f 184 190 191
f 187 192 193
f 187 193 189
f 187 189 188
f 189 193 192
f 189 192 191
f 189 191 190

