# https://github.com/mikedh/trimesh
v 0.00826456 0.01703220 -0.00298952
v 0.00826456 0.01703281 -0.00344921
v 0.00988626 0.01723924 -0.00344921
v 0.00826456 0.01703220 0.00298952
v 0.00826456 0.01705108 -0.00382046
v 0.00826456 0.01705717 -0.00390993
v 0.00988626 0.01727273 -0.00390993
v 0.00988626 0.01723924 0.00344921
v 0.00826456 0.01703281 0.00344921
v 0.00826456 0.01728125 -0.00434493
v 0.00988626 0.01739330 -0.00424210
v 0.00988626 0.01727273 0.00390993
v 0.00826456 0.01705717 0.00390993
v 0.00988626 0.01760946 -0.00447451
v 0.00826456 0.01762773 -0.00469047
v 0.00988626 0.01806981 -0.00493420
v 0.00988626 0.01739330 0.00424210
v 0.00826456 0.01709553 0.00398808
v 0.00826456 0.01773917 -0.00479948
v 0.00826456 0.01798152 -0.00502676
v 0.00988626 0.01829755 -0.00513885
v 0.00988626 0.01760581 0.00447040
v 0.00826456 0.01728125 0.00434493
v 0.00826456 0.01818855 -0.00514913
v 0.00988626 0.01830060 -0.00513988
v 0.00826456 0.01738599 0.00445291
v 0.00988626 0.01806616 0.00493009
v 0.00826456 0.01863003 -0.00525197
v 0.00851000 0.01863003 -0.00525197
v 0.00897008 0.01863003 -0.00524889
v 0.00988626 0.01863003 -0.00523552
v 0.00826456 0.01773917 0.00479948
v 0.00826456 0.01798152 0.00502675
v 0.00826456 0.01785608 0.00491157
v 0.00988626 0.01829572 0.00513679
v 0.00826456 0.01909037 -0.00525300
v 0.00988626 0.01909037 -0.00525300
v 0.00826456 0.01804180 0.00506686
v 0.00988626 0.01863003 0.00523552
v 0.00826456 0.01818855 0.00514913
v 0.00826456 0.02046959 -0.00525300
v 0.00988626 0.02046959 -0.00525300
v 0.00897008 0.01863003 0.00524889
v 0.00988626 0.01909037 0.00525300
v 0.00826456 0.01837915 0.00519644
v 0.00826456 0.02092994 -0.00524786
v 0.00988626 0.02093360 -0.00524786
v 0.00851000 0.01863003 0.00525197
v 0.00988626 0.02046959 0.00525300
v 0.00826456 0.01884498 0.00525300
v 0.00826456 0.01863003 0.00525197
v 0.00826456 0.02138968 -0.00520364
v 0.00988626 0.02138968 -0.00520364
v 0.00826456 0.02046959 0.00525300
v 0.00988626 0.02092994 0.00524991
v 0.00826456 0.02175139 -0.00511211
v 0.00988626 0.02175199 -0.00511211
v 0.00826456 0.02092994 0.00524991
v 0.00988626 0.02138603 0.00520569
v 0.00826456 0.02187439 -0.00506069
v 0.00897008 0.02198156 -0.00501647
v 0.00988626 0.02198156 -0.00501647
v 0.00826456 0.02138968 0.00520467
v 0.00826456 0.02175321 0.00511211
v 0.00988626 0.02175321 0.00511211
v 0.00826456 0.02198156 -0.00501544
v 0.00826456 0.02215693 -0.00490129
v 0.00826456 0.02230977 -0.00480154
v 0.00942999 0.02230977 -0.00480257
v 0.00988626 0.02230977 -0.00480257
v 0.00826456 0.02186038 0.00506789
v 0.00988626 0.02198095 0.00501750
v 0.00826456 0.02255578 -0.00461540
v 0.00851000 0.02255639 -0.00461540
v 0.00988626 0.02255639 -0.00461540
v 0.00826456 0.02198278 0.00501647
v 0.00988626 0.02230977 0.00480771
v 0.00942999 0.02198278 0.00501647
v 0.00826456 0.02275551 -0.00436962
v 0.00988626 0.02275733 -0.00436756
v 0.00826456 0.02230977 0.00480771
v 0.00988626 0.02256065 0.00462054
v 0.00826456 0.02296863 -0.00407755
v 0.00988626 0.02296863 -0.00407755
v 0.00826456 0.02256065 0.00462054
v 0.00988626 0.02275916 0.00436962
v 0.00826456 0.02307215 -0.00384720
v 0.00988626 0.02307215 -0.00384720
v 0.00826456 0.02275916 0.00436962
v 0.00988626 0.02296863 0.00407652
v 0.00826456 0.02313669 -0.00363535
v 0.00988626 0.02307337 -0.00384411
v 0.00826456 0.02296863 0.00407652
v 0.00826456 0.02301735 0.00396957
v 0.00988626 0.02307276 0.00384617
v 0.00826456 0.02319271 -0.00344921
v 0.00988626 0.02319271 -0.00344921
v 0.00826456 0.02307276 0.00384617
v 0.00988626 0.02319271 0.00345229
v 0.00826456 0.02312939 0.00366106
v 0.00988626 0.02319332 -0.00344612
v 0.00826456 0.02324691 -0.00298952
v 0.00826456 0.02319332 0.00344921
v 0.00988626 0.02319332 0.00344921
v 0.00988626 0.02324691 -0.00298952
v 0.00826456 0.02324996 -0.00274374
v 0.00826456 0.02321829 0.00323530
v 0.00988626 0.02324691 0.00298952
v 0.00988626 0.02325239 -0.00252983
v 0.00826456 0.02325239 -0.00252983
v 0.00826456 0.02324691 0.00298952
v 0.00988626 0.02325239 0.00253292
v 0.00826456 0.02325239 0.00252983
f 1 2 3
f 1 3 8
f 1 8 4
f 1 4 9
f 1 9 13
f 1 13 18
f 1 18 23
f 1 23 26
f 1 26 32
f 1 32 34
f 1 34 33
f 1 33 38
f 1 38 40
f 1 40 45
f 1 45 51
f 1 51 50
f 1 50 54
f 1 54 58
f 1 58 63
f 1 63 64
f 1 64 71
f 1 71 76
f 1 76 81
f 1 81 85
f 1 85 89
f 1 89 93
f 1 93 94
f 1 94 98
f 1 98 100
f 1 100 103
f 1 103 107
f 1 107 111
f 1 111 113
f 1 113 110
f 1 110 106
f 1 106 102
f 1 102 96
f 1 96 91
f 1 91 87
f 1 87 83
f 1 83 79
f 1 79 73
f 1 73 68
f 1 68 67
f 1 67 66
f 1 66 60
f 1 60 56
f 1 56 52
f 1 52 46
f 1 46 41
f 1 41 36
f 1 36 28
f 1 28 24
f 1 24 20
f 1 20 19
f 1 19 15
f 1 15 10
f 1 10 6
f 1 6 5
f 1 5 2
f 2 5 3
f 3 5 6
f 3 6 7
f 3 7 11
f 3 11 14
f 3 14 16
f 3 16 21
f 3 21 25
f 3 25 31
f 3 31 37
f 3 37 42
f 3 42 47
f 3 47 53
f 3 53 57
f 3 57 62
f 3 62 70
f 3 70 75
f 3 75 80
f 3 80 84
f 3 84 88
f 3 88 92
f 3 92 97
f 3 97 101
f 3 101 105
f 3 105 109
f 3 109 112
f 3 112 108
f 3 108 104
f 3 104 99
f 3 99 95
f 3 95 90
f 3 90 86
f 3 86 82
f 3 82 77
f 3 77 72
f 3 72 65
f 3 65 59
f 3 59 55
f 3 55 49
f 3 49 44
f 3 44 39
f 3 39 35
f 3 35 27
f 3 27 22
f 3 22 17
f 3 17 12
f 3 12 8
f 4 8 9
f 6 10 11
f 6 11 7
f 8 12 13
f 8 13 9
f 10 14 11
f 10 15 16
f 10 16 14
f 12 17 13
f 13 17 18
f 15 19 16
f 16 19 20
f 16 20 21
f 17 22 23
f 17 23 18
f 20 24 21
f 21 24 25
f 22 26 23
f 22 27 26
f 24 28 29
f 24 29 30
f 24 30 31
f 24 31 25
f 26 27 32
f 27 33 34
f 27 34 32
f 27 35 33
f 28 36 37
f 28 37 29
f 29 37 30
f 30 37 31
f 33 35 38
f 35 39 40
f 35 40 38
f 36 41 42
f 36 42 37
f 39 43 40
f 39 44 43
f 40 43 45
f 41 46 47
f 41 47 42
f 43 44 48
f 43 48 45
f 44 49 54
f 44 54 50
f 44 50 48
f 45 48 51
f 46 52 47
f 47 52 53
f 48 50 51
f 49 55 58
f 49 58 54
f 52 56 57
f 52 57 53
f 55 59 58
f 56 60 61
f 56 61 57
f 57 61 62
f 58 59 63
f 59 64 63
f 59 65 64
f 60 66 61
f 61 66 67
f 61 67 68
f 61 68 69
f 61 69 70
f 61 70 62
f 64 65 71
f 65 72 71
f 68 73 74
f 68 74 69
f 69 74 75
f 69 75 70
f 71 72 76
f 72 77 78
f 72 78 76
f 73 79 74
f 74 79 80
f 74 80 75
f 76 78 77
f 76 77 81
f 77 82 85
f 77 85 81
f 79 83 80
f 80 83 84
f 82 86 89
f 82 89 85
f 83 87 88
f 83 88 84
f 86 90 93
f 86 93 89
f 87 91 92
f 87 92 88
f 90 94 93
f 90 95 94
f 91 96 97
f 91 97 92
f 94 95 98
f 95 99 100
f 95 100 98
f 96 101 97
f 96 102 101
f 99 103 100
f 99 104 103
f 101 102 105
f 102 106 105
f 103 104 107
f 104 108 107
f 105 106 109
f 106 110 109
f 107 108 111
f 108 112 111
f 109 110 113
f 109 113 112
f 111 112 113

