# https://github.com/mikedh/trimesh
v -0.01678995 0.00390956 0.00525300
v -0.01678995 0.00436853 0.00525197
v -0.01687052 0.00390956 0.00525300
v -0.01633147 0.00344756 0.00525300
v -0.01687052 0.00436853 0.00525197
v -0.01633147 0.00390805 0.00525094
v -0.01678995 0.00482901 0.00520775
v -0.01687052 0.00482901 0.00521495
v -0.01687052 -0.00398984 0.00525300
v -0.01633147 -0.00345059 0.00525300
v -0.01633147 0.00439731 0.00517896
v -0.01633147 0.00448819 0.00516044
v -0.01687052 0.00538947 0.00511108
v -0.01687052 0.00525466 0.00513782
v -0.01687052 -0.00445033 0.00525197
v -0.01678995 -0.00390956 0.00525300
v -0.01678995 -0.00436853 0.00525197
v -0.01633147 -0.00391108 0.00525094
v -0.01633147 0.00482901 0.00502778
v -0.01645869 0.00482901 0.00511108
v -0.01655425 0.00506683 0.00506378
v -0.01687052 0.00716627 0.00428632
v -0.01687052 -0.00490929 0.00521186
v -0.01678995 -0.00482901 0.00520775
v -0.01633147 -0.00442912 0.00517587
v -0.01633147 0.00616350 0.00426061
v -0.01650001 0.00656794 0.00420096
v -0.01687052 0.00758888 0.00395312
v -0.01687052 -0.00532585 0.00512754
v -0.01687052 -0.00538947 0.00511108
v -0.01633147 -0.00448819 0.00516044
v -0.01633147 0.00644828 0.00390376
v -0.01657266 0.00687392 0.00404156
v -0.01687052 0.00763432 0.00390993
v -0.01687052 -0.00552882 0.00505761
v -0.01633147 -0.00473207 0.00508537
v -0.01645869 -0.00482901 0.00511108
v -0.01633147 0.00650281 0.00344921
v -0.01687052 0.00773430 0.00344921
v -0.01687052 -0.00716627 0.00428632
v -0.01633147 -0.00490475 0.00499282
v -0.01633147 0.00650432 0.00298952
v -0.01687052 0.00773732 0.00298952
v -0.01687052 -0.00744952 0.00412486
v -0.01633147 -0.00616350 0.00426061
v -0.01633147 0.00650432 -0.00298952
v -0.01687052 0.00773732 -0.00298952
v -0.01687052 -0.00761917 0.00393358
v -0.01633147 -0.00637405 0.00402408
v -0.01633147 0.00650281 -0.00344921
v -0.01687052 0.00773430 -0.00344921
v -0.01687052 -0.00763432 0.00390993
v -0.01633147 -0.00644828 0.00390376
v -0.01633147 0.00647857 -0.00366517
v -0.01687052 0.00770703 -0.00358907
v -0.01633147 0.00644828 -0.00390376
v -0.01687052 -0.00770703 0.00358907
v -0.01687052 -0.00773430 0.00344921
v -0.01633147 -0.00647857 0.00366517
v -0.01687052 0.00763432 -0.00390993
v -0.01633147 0.00637405 -0.00402408
v -0.01687052 -0.00773732 0.00298952
v -0.01633147 -0.00650281 0.00344921
v -0.01687052 0.00761917 -0.00393358
v -0.01633147 0.00616350 -0.00426061
v -0.01687052 0.00744952 -0.00412486
v -0.01687052 -0.00773732 -0.00298952
v -0.01633147 -0.00650432 0.00298952
v -0.01633147 0.00490475 -0.00499282
v -0.01687052 0.00716627 -0.00428632
v -0.01687052 -0.00773430 -0.00344921
v -0.01633147 -0.00650281 -0.00344921
v -0.01633147 -0.00650432 -0.00298952
v -0.01633147 0.00473207 -0.00508537
v -0.01687052 0.00552882 -0.00505761
v -0.01687052 -0.00763432 -0.00390993
v -0.01633147 -0.00644828 -0.00390376
v -0.01633147 0.00448819 -0.00516045
v -0.01645869 0.00482901 -0.00511108
v -0.01687052 0.00538947 -0.00511108
v -0.01687052 -0.00758888 -0.00395312
v -0.01633147 -0.00616350 -0.00426061
v -0.01657266 -0.00687392 -0.00404156
v -0.01633147 0.00442912 -0.00517587
v -0.01687052 0.00532585 -0.00512754
v -0.01687052 -0.00716627 -0.00428632
v -0.01650001 -0.00656794 -0.00420096
v -0.01633147 -0.00482901 -0.00502778
v -0.01633147 0.00390956 -0.00525094
v -0.01678995 0.00482901 -0.00520775
v -0.01687052 0.00490929 -0.00521186
v -0.01687052 -0.00538947 -0.00511108
v -0.01655425 -0.00506683 -0.00506378
v -0.01645869 -0.00482901 -0.00511108
v -0.01633147 -0.00448819 -0.00516045
v -0.01678995 0.00436853 -0.00525197
v -0.01633147 0.00344908 -0.00525300
v -0.01687052 0.00445033 -0.00525197
v -0.01687052 -0.00525466 -0.00513782
v -0.01678995 -0.00482901 -0.00520775
v -0.01633147 -0.00439731 -0.00517896
v -0.01678995 0.00390956 -0.00525300
v -0.01633147 -0.00344908 -0.00525300
v -0.01687052 0.00398984 -0.00525300
v -0.01687052 -0.00482901 -0.00521495
v -0.01678995 -0.00436853 -0.00525197
v -0.01633147 -0.00390956 -0.00525094
v -0.01678995 -0.00390956 -0.00525300
v -0.01687052 -0.00390956 -0.00525300
v -0.01687052 -0.00436853 -0.00525197
f 1 2 5
f 1 5 3
f 1 3 9
f 1 9 16
f 1 16 10
f 1 10 4
f 1 4 2
f 2 4 6
f 2 6 7
f 2 7 8
f 2 8 5
f 3 5 8
f 3 8 14
f 3 14 13
f 3 13 22
f 3 22 28
f 3 28 34
f 3 34 39
f 3 39 43
f 3 43 47
f 3 47 51
f 3 51 55
f 3 55 60
f 3 60 64
f 3 64 66
f 3 66 70
f 3 70 75
f 3 75 80
f 3 80 85
f 3 85 91
f 3 91 98
f 3 98 104
f 3 104 109
f 3 109 110
f 3 110 105
f 3 105 99
f 3 99 92
f 3 92 86
f 3 86 81
f 3 81 76
f 3 76 71
f 3 71 67
f 3 67 62
f 3 62 58
f 3 58 57
f 3 57 52
f 3 52 48
f 3 48 44
f 3 44 40
f 3 40 35
f 3 35 30
f 3 30 29
f 3 29 23
f 3 23 15
f 3 15 9
f 4 10 18
f 4 18 25
f 4 25 31
f 4 31 36
f 4 36 41
f 4 41 45
f 4 45 49
f 4 49 53
f 4 53 59
f 4 59 63
f 4 63 68
f 4 68 73
f 4 73 72
f 4 72 77
f 4 77 82
f 4 82 88
f 4 88 95
f 4 95 101
f 4 101 107
f 4 107 103
f 4 103 97
f 4 97 89
f 4 89 84
f 4 84 78
f 4 78 74
f 4 74 69
f 4 69 65
f 4 65 61
f 4 61 56
f 4 56 54
f 4 54 50
f 4 50 46
f 4 46 42
f 4 42 38
f 4 38 32
f 4 32 26
f 4 26 19
f 4 19 12
f 4 12 11
f 4 11 6
f 6 11 7
f 7 12 13
f 7 13 14
f 7 14 8
f 7 11 12
f 9 15 16
f 10 16 15
f 10 15 17
f 10 17 18
f 12 19 20
f 12 20 13
f 13 20 21
f 13 21 22
f 15 23 17
f 17 23 18
f 18 23 24
f 18 24 25
f 19 21 20
f 19 26 22
f 19 22 21
f 22 27 28
f 22 26 27
f 23 29 25
f 23 25 24
f 25 29 30
f 25 30 31
f 26 32 33
f 26 33 34
f 26 34 28
f 26 28 27
f 30 35 36
f 30 36 37
f 30 37 31
f 31 37 36
f 32 38 39
f 32 39 34
f 32 34 33
f 35 40 36
f 36 40 41
f 38 42 43
f 38 43 39
f 40 44 41
f 41 44 45
f 42 46 47
f 42 47 43
f 44 48 49
f 44 49 45
f 46 50 47
f 47 50 51
f 48 52 49
f 49 52 53
f 50 54 51
f 51 54 56
f 51 56 55
f 52 57 53
f 53 57 58
f 53 58 59
f 55 56 60
f 56 61 60
f 58 62 63
f 58 63 59
f 60 61 64
f 61 65 66
f 61 66 64
f 62 67 73
f 62 73 68
f 62 68 63
f 65 69 66
f 66 69 70
f 67 71 72
f 67 72 73
f 69 74 70
f 70 74 75
f 71 76 77
f 71 77 72
f 74 78 79
f 74 79 80
f 74 80 75
f 76 81 82
f 76 82 83
f 76 83 77
f 77 83 82
f 78 80 79
f 78 84 80
f 80 84 85
f 81 86 87
f 81 87 82
f 82 87 86
f 82 86 88
f 84 89 90
f 84 90 91
f 84 91 85
f 86 92 93
f 86 93 88
f 88 93 94
f 88 94 95
f 89 96 91
f 89 91 90
f 89 97 96
f 91 96 98
f 92 99 100
f 92 100 95
f 92 95 94
f 92 94 93
f 95 100 101
f 96 97 98
f 97 102 98
f 97 103 108
f 97 108 109
f 97 109 104
f 97 104 102
f 98 102 104
f 99 105 100
f 100 105 106
f 100 106 107
f 100 107 101
f 103 107 106
f 103 106 108
f 105 110 106
f 106 110 109
f 106 109 108

