# https://github.com/mikedh/trimesh
v 0.00880669 -0.00286205 -0.00298952
v 0.00880669 -0.00286149 -0.00344921
v 0.01030169 -0.00276624 -0.00344921
v 0.00880669 -0.00286205 0.00298952
v 0.01030169 -0.00276288 -0.00361272
v 0.00880669 -0.00283348 -0.00393255
v 0.01030169 -0.00276624 0.00344921
v 0.00880669 -0.00286149 0.00344921
v 0.01030169 -0.00274383 -0.00391096
v 0.00880669 -0.00278361 -0.00416908
v 0.01030169 -0.00274383 0.00391095
v 0.00880669 -0.00284581 0.00374538
v 0.01030169 -0.00273711 -0.00392432
v 0.01030169 -0.00250962 -0.00435625
v 0.00880669 -0.00258638 -0.00437373
v 0.01030169 -0.00250962 0.00435625
v 0.00880669 -0.00278361 0.00416908
v 0.00880669 -0.00279930 0.00410943
v 0.00880669 -0.00283348 0.00393255
v 0.01030169 -0.00228606 -0.00458558
v 0.00880669 -0.00232976 -0.00462877
v 0.01030169 -0.00205577 -0.00481594
v 0.01030169 -0.00226196 -0.00461026
v 0.00880669 -0.00267715 0.00428015
v 0.01030169 -0.00230959 0.00456192
v 0.00880669 -0.00258638 0.00437373
v 0.00880669 -0.00207090 -0.00488587
v 0.01030169 -0.00181876 -0.00504527
v 0.01030169 -0.00228606 0.00458558
v 0.01030169 -0.00205577 0.00481593
v 0.00880669 -0.00241101 0.00454855
v 0.00880669 -0.00186639 -0.00508229
v 0.01030169 -0.00179467 -0.00505761
v 0.00880669 -0.00207090 0.00488587
v 0.00880669 -0.00216671 0.00479125
v 0.01030169 -0.00184397 0.00502161
v 0.00880669 -0.00163666 -0.00516867
v 0.01030169 -0.00158903 -0.00515633
v 0.00880669 -0.00191681 0.00503498
v 0.01030169 -0.00181876 0.00504527
v 0.01030169 -0.00154309 -0.00516662
v 0.00880669 -0.00114975 -0.00525300
v 0.01030169 -0.00114975 -0.00525300
v 0.00880669 -0.00186639 0.00508229
v 0.01030169 -0.00158903 0.00515633
v 0.00880669 0.00114975 -0.00525300
v 0.01030169 0.00114975 -0.00525300
v 0.00880669 -0.00175208 0.00512856
v 0.00880669 -0.00163666 0.00516867
v 0.01030169 -0.00114975 0.00525300
v 0.00880669 0.00131280 -0.00523346
v 0.00880669 0.00163666 -0.00516867
v 0.01030169 0.00158903 -0.00515633
v 0.00880669 -0.00131280 0.00523346
v 0.01030169 0.00114975 0.00525300
v 0.00880669 -0.00114975 0.00525300
v 0.00880669 0.00175208 -0.00512857
v 0.00880669 0.00186639 -0.00508229
v 0.01030169 0.00181876 -0.00504527
v 0.00880669 0.00114975 0.00525300
v 0.01030169 0.00154309 0.00516661
v 0.00880669 0.00163666 0.00516867
v 0.00880669 0.00191681 -0.00503498
v 0.01030169 0.00184397 -0.00502161
v 0.01030169 0.00158903 0.00515633
v 0.00880669 0.00186639 0.00508229
v 0.00880669 0.00207090 -0.00488587
v 0.01030169 0.00205577 -0.00481594
v 0.01030169 0.00179467 0.00505761
v 0.00880669 0.00207090 0.00488587
v 0.01030169 0.00181876 0.00504527
v 0.00880669 0.00216671 -0.00479125
v 0.00880669 0.00241101 -0.00454855
v 0.00880669 0.00258638 -0.00437373
v 0.01030169 0.00228606 -0.00458558
v 0.01030169 0.00205577 0.00481593
v 0.00880669 0.00232976 0.00462877
v 0.01030169 0.00230959 -0.00456192
v 0.00880669 0.00267715 -0.00428015
v 0.01030169 0.00250962 -0.00435625
v 0.01030169 0.00226196 0.00461026
v 0.00880669 0.00258638 0.00437373
v 0.00880669 0.00278361 -0.00416908
v 0.01030169 0.00274383 -0.00391096
v 0.01030169 0.00228606 0.00458558
v 0.00880669 0.00278361 0.00416908
v 0.01030169 0.00250962 0.00435625
v 0.00880669 0.00279930 -0.00410943
v 0.00880669 0.00283348 -0.00393255
v 0.00880669 0.00284581 -0.00374538
v 0.00880669 0.00286149 -0.00344921
v 0.01030169 0.00276624 -0.00344921
v 0.01030169 0.00273711 0.00392432
v 0.01030169 0.00274383 0.00391095
v 0.00880669 0.00283348 0.00393255
v 0.00880669 0.00286205 -0.00298952
v 0.01030169 0.00276624 0.00344921
v 0.01030169 0.00276288 0.00361272
v 0.00880669 0.00286149 0.00344921
v 0.00880669 0.00286205 0.00298952
f 1 2 3
f 1 3 7
f 1 7 4
f 1 4 8
f 1 8 12
f 1 12 19
f 1 19 18
f 1 18 17
f 1 17 24
f 1 24 26
f 1 26 31
f 1 31 35
f 1 35 34
f 1 34 39
f 1 39 44
f 1 44 48
f 1 48 49
f 1 49 54
f 1 54 56
f 1 56 60
f 1 60 62
f 1 62 66
f 1 66 70
f 1 70 77
f 1 77 82
f 1 82 86
f 1 86 95
f 1 95 99
f 1 99 100
f 1 100 96
f 1 96 91
f 1 91 90
f 1 90 89
f 1 89 88
f 1 88 83
f 1 83 79
f 1 79 74
f 1 74 73
f 1 73 72
f 1 72 67
f 1 67 63
f 1 63 58
f 1 58 57
f 1 57 52
f 1 52 51
f 1 51 46
f 1 46 42
f 1 42 37
f 1 37 32
f 1 32 27
f 1 27 21
f 1 21 15
f 1 15 10
f 1 10 6
f 1 6 2
f 2 5 3
f 2 6 5
f 3 5 9
f 3 9 13
f 3 13 14
f 3 14 20
f 3 20 23
f 3 23 22
f 3 22 28
f 3 28 33
f 3 33 38
f 3 38 41
f 3 41 43
f 3 43 47
f 3 47 53
f 3 53 59
f 3 59 64
f 3 64 68
f 3 68 75
f 3 75 78
f 3 78 80
f 3 80 84
f 3 84 92
f 3 92 97
f 3 97 98
f 3 98 94
f 3 94 93
f 3 93 87
f 3 87 85
f 3 85 81
f 3 81 76
f 3 76 71
f 3 71 69
f 3 69 65
f 3 65 61
f 3 61 55
f 3 55 50
f 3 50 45
f 3 45 40
f 3 40 36
f 3 36 30
f 3 30 29
f 3 29 25
f 3 25 16
f 3 16 11
f 3 11 7
f 4 7 8
f 5 6 9
f 6 10 9
f 7 11 8
f 8 11 12
f 9 10 13
f 10 14 13
f 10 15 14
f 11 16 17
f 11 17 18
f 11 18 19
f 11 19 12
f 14 15 20
f 15 21 22
f 15 22 23
f 15 23 20
f 16 24 17
f 16 25 26
f 16 26 24
f 21 27 22
f 22 27 28
f 25 29 26
f 26 29 30
f 26 30 31
f 27 32 28
f 28 32 33
f 30 34 35
f 30 35 31
f 30 36 34
f 32 37 38
f 32 38 33
f 34 36 39
f 36 40 44
f 36 44 39
f 37 41 38
f 37 42 43
f 37 43 41
f 40 45 44
f 42 46 47
f 42 47 43
f 44 45 48
f 45 49 48
f 45 50 49
f 46 51 47
f 47 51 52
f 47 52 53
f 49 50 54
f 50 55 60
f 50 60 56
f 50 56 54
f 52 57 53
f 53 57 58
f 53 58 59
f 55 61 62
f 55 62 60
f 58 63 64
f 58 64 59
f 61 65 62
f 62 65 66
f 63 67 64
f 64 67 68
f 65 69 66
f 66 69 71
f 66 71 70
f 67 72 68
f 68 72 73
f 68 73 74
f 68 74 75
f 70 76 77
f 70 71 76
f 74 78 75
f 74 79 80
f 74 80 78
f 76 81 82
f 76 82 77
f 79 83 80
f 80 83 84
f 81 85 82
f 82 85 87
f 82 87 86
f 83 88 84
f 84 88 89
f 84 89 90
f 84 90 91
f 84 91 92
f 86 87 93
f 86 93 94
f 86 94 95
f 91 96 92
f 92 96 100
f 92 100 97
f 94 98 95
f 95 98 99
f 97 100 99
f 97 99 98

