# https://github.com/mikedh/trimesh
v -0.00317858 0.00418119 0.00525300
v -0.00317858 0.00464131 0.00523552
v -0.00345006 0.00390957 0.00525300
v -0.00317858 -0.00390957 0.00525300
v -0.00380812 0.00401050 0.00522523
v -0.00380812 0.00355037 0.00525300
v -0.00317858 0.00512815 0.00515942
v -0.00345006 -0.00390957 0.00525300
v -0.00317858 -0.00436969 0.00524272
v -0.00380812 0.00444094 0.00513576
v -0.00380812 -0.00344944 0.00525300
v -0.00317858 0.00523057 0.00513371
v -0.00380812 -0.00390957 0.00523037
v -0.00345006 -0.00436969 0.00522832
v -0.00317858 -0.00482536 0.00520261
v -0.00380812 0.00451218 0.00511108
v -0.00329912 0.00516971 0.00510903
v -0.00317858 0.00548586 0.00503909
v -0.00380812 -0.00435336 0.00515119
v -0.00345147 -0.00481943 0.00514708
v -0.00317858 -0.00523057 0.00513371
v -0.00380812 0.00461608 0.00506480
v -0.00373066 0.00465912 0.00509154
v -0.00317858 0.00738276 0.00413823
v -0.00380812 -0.00451218 0.00511108
v -0.00329912 -0.00516971 0.00510903
v -0.00317858 -0.00550961 0.00502778
v -0.00380812 0.00591927 0.00427192
v -0.00317858 0.00747775 0.00400762
v -0.00321611 0.00735011 0.00411046
v -0.00380812 -0.00473334 0.00498768
v -0.00321611 -0.00735011 0.00411046
v -0.00317858 -0.00732042 0.00416291
v -0.00373066 -0.00465912 0.00509154
v -0.00375358 0.00610926 0.00420919
v -0.00380812 0.00605731 0.00415263
v -0.00317858 0.00749853 0.00393872
v -0.00380812 0.00620722 0.00389450
v -0.00380812 -0.00591927 0.00427192
v -0.00317858 -0.00747775 0.00400762
v -0.00375358 -0.00610926 0.00420919
v -0.00380812 -0.00620722 0.00389450
v -0.00317858 0.00750892 0.00389553
v -0.00380812 0.00621167 0.00385748
v -0.00317858 0.00756978 0.00355102
v -0.00317858 -0.00750892 0.00389553
v -0.00380812 -0.00625471 0.00344921
v -0.00317858 -0.00758017 0.00344921
v -0.00380812 0.00625323 0.00350166
v -0.00317858 0.00758017 0.00344921
v -0.00380812 -0.00625620 0.00298952
v -0.00317858 -0.00758165 0.00298952
v -0.00380812 0.00625471 0.00344921
v -0.00317858 0.00758165 0.00298952
v -0.00380812 0.00625620 0.00307796
v -0.00380812 -0.00625620 -0.00307796
v -0.00317858 -0.00758165 -0.00298952
v -0.00317858 0.00758165 -0.00298952
v -0.00380812 0.00625620 -0.00298952
v -0.00380812 -0.00625471 -0.00344921
v -0.00317858 -0.00758017 -0.00344921
v -0.00317858 0.00758017 -0.00344921
v -0.00380812 0.00625471 -0.00344921
v -0.00380812 -0.00625323 -0.00350166
v -0.00317858 -0.00756978 -0.00355102
v -0.00317858 0.00750892 -0.00389553
v -0.00380812 0.00620722 -0.00389450
v -0.00380812 -0.00621167 -0.00385748
v -0.00317858 -0.00750892 -0.00389553
v -0.00380812 -0.00620722 -0.00389450
v -0.00317858 0.00747775 -0.00400762
v -0.00375358 0.00610926 -0.00420919
v -0.00380812 0.00591927 -0.00427192
v -0.00321611 0.00735011 -0.00411046
v -0.00317858 -0.00749853 -0.00393872
v -0.00380812 -0.00605731 -0.00415263
v -0.00321611 -0.00735011 -0.00411046
v -0.00317858 -0.00747775 -0.00400762
v -0.00317858 0.00732042 -0.00416291
v -0.00380812 0.00473334 -0.00498768
v -0.00380812 0.00451218 -0.00511108
v -0.00380812 -0.00591927 -0.00427192
v -0.00375358 -0.00610926 -0.00420919
v -0.00317858 -0.00738276 -0.00413823
v -0.00317858 0.00550961 -0.00502778
v -0.00373066 0.00465912 -0.00509154
v -0.00380812 0.00435336 -0.00515119
v -0.00329912 0.00516971 -0.00510903
v -0.00317858 0.00523057 -0.00513371
v -0.00380812 -0.00461608 -0.00506481
v -0.00317858 -0.00548586 -0.00503910
v -0.00345147 0.00481943 -0.00514708
v -0.00345006 0.00436969 -0.00522832
v -0.00380812 0.00390957 -0.00523038
v -0.00317858 0.00482536 -0.00520261
v -0.00380812 -0.00451218 -0.00511108
v -0.00373066 -0.00465912 -0.00509154
v -0.00329912 -0.00516971 -0.00510903
v -0.00317858 -0.00523057 -0.00513371
v -0.00317858 0.00436969 -0.00524272
v -0.00345006 0.00390957 -0.00525300
v -0.00380812 0.00344944 -0.00525300
v -0.00380812 -0.00444094 -0.00513576
v -0.00317858 -0.00512815 -0.00515942
v -0.00317858 0.00390957 -0.00525300
v -0.00380812 -0.00355037 -0.00525300
v -0.00380812 -0.00401050 -0.00522523
v -0.00317858 -0.00464131 -0.00523552
v -0.00317858 -0.00418119 -0.00525300
v -0.00345006 -0.00390957 -0.00525300
f 1 2 3
f 1 3 6
f 1 6 11
f 1 11 8
f 1 8 4
f 1 4 9
f 1 9 15
f 1 15 21
f 1 21 27
f 1 27 33
f 1 33 40
f 1 40 46
f 1 46 48
f 1 48 52
f 1 52 57
f 1 57 61
f 1 61 65
f 1 65 69
f 1 69 75
f 1 75 78
f 1 78 84
f 1 84 91
f 1 91 99
f 1 99 104
f 1 104 108
f 1 108 109
f 1 109 105
f 1 105 100
f 1 100 95
f 1 95 89
f 1 89 85
f 1 85 79
f 1 79 71
f 1 71 66
f 1 66 62
f 1 62 58
f 1 58 54
f 1 54 50
f 1 50 45
f 1 45 43
f 1 43 37
f 1 37 29
f 1 29 24
f 1 24 18
f 1 18 12
f 1 12 7
f 1 7 2
f 2 5 6
f 2 6 3
f 2 7 5
f 4 8 9
f 5 7 10
f 5 10 16
f 5 16 22
f 5 22 28
f 5 28 36
f 5 36 38
f 5 38 44
f 5 44 49
f 5 49 53
f 5 53 55
f 5 55 59
f 5 59 63
f 5 63 67
f 5 67 73
f 5 73 80
f 5 80 81
f 5 81 87
f 5 87 94
f 5 94 102
f 5 102 106
f 5 106 107
f 5 107 103
f 5 103 96
f 5 96 90
f 5 90 82
f 5 82 76
f 5 76 70
f 5 70 68
f 5 68 64
f 5 64 60
f 5 60 56
f 5 56 51
f 5 51 47
f 5 47 42
f 5 42 39
f 5 39 31
f 5 31 25
f 5 25 19
f 5 19 13
f 5 13 11
f 5 11 6
f 7 12 10
f 8 13 14
f 8 14 9
f 8 11 13
f 9 14 15
f 10 12 17
f 10 17 16
f 12 18 17
f 13 19 14
f 14 19 20
f 14 20 21
f 14 21 15
f 16 17 23
f 16 23 22
f 17 18 23
f 18 22 23
f 18 24 22
f 19 25 21
f 19 21 20
f 21 25 26
f 21 26 27
f 22 24 28
f 24 29 30
f 24 30 28
f 25 31 32
f 25 32 33
f 25 33 34
f 25 34 26
f 26 34 27
f 27 34 33
f 28 35 36
f 28 30 35
f 29 37 38
f 29 38 30
f 30 38 36
f 30 36 35
f 31 39 32
f 32 40 33
f 32 39 41
f 32 41 42
f 32 42 40
f 37 43 38
f 38 43 45
f 38 45 44
f 39 42 41
f 40 42 46
f 42 47 48
f 42 48 46
f 44 45 49
f 45 50 49
f 47 51 52
f 47 52 48
f 49 50 53
f 50 54 55
f 50 55 53
f 51 56 57
f 51 57 52
f 54 58 59
f 54 59 55
f 56 60 61
f 56 61 57
f 58 62 63
f 58 63 59
f 60 64 61
f 61 64 65
f 62 66 67
f 62 67 63
f 64 68 65
f 65 68 70
f 65 70 69
f 66 71 67
f 67 72 73
f 67 71 74
f 67 74 72
f 69 70 75
f 70 76 77
f 70 77 78
f 70 78 75
f 71 79 74
f 72 74 73
f 73 74 80
f 74 79 81
f 74 81 80
f 76 82 83
f 76 83 77
f 77 84 78
f 77 83 82
f 77 82 84
f 79 85 86
f 79 86 81
f 81 86 88
f 81 88 89
f 81 89 87
f 82 90 84
f 84 90 91
f 85 89 88
f 85 88 86
f 87 89 92
f 87 92 93
f 87 93 94
f 89 95 93
f 89 93 92
f 90 96 97
f 90 97 91
f 91 97 98
f 91 98 99
f 93 95 100
f 93 100 101
f 93 101 94
f 94 101 102
f 96 103 98
f 96 98 97
f 98 103 99
f 99 103 104
f 100 105 101
f 101 105 109
f 101 109 110
f 101 110 106
f 101 106 102
f 103 107 104
f 104 107 108
f 106 110 108
f 106 108 107
f 108 110 109

