# https://github.com/mikedh/trimesh
v -0.00374772 0.01662792 -0.00525300
v -0.00298985 0.01566025 -0.00525300
v -0.00420716 0.01662792 -0.00525197
v 0.00344929 0.01662792 -0.00525300
v -0.00323969 0.01566025 -0.00525197
v 0.00298985 0.01566025 -0.00525300
v -0.00468742 0.01662792 -0.00519644
v 0.00390873 0.01662792 -0.00525197
v 0.00344929 0.01632999 -0.00525300
v -0.00346456 0.01566025 -0.00521906
v 0.00344929 0.01587008 -0.00525197
v 0.00346456 0.01566025 -0.00521906
v -0.00503305 0.01662792 -0.00511622
v -0.00376160 0.01566025 -0.00517381
v 0.00437928 0.01662792 -0.00522626
v 0.00390873 0.01632999 -0.00525094
v 0.00482900 0.01662792 -0.00516045
v 0.00393649 0.01584327 -0.00517381
v 0.00386431 0.01566025 -0.00514605
v -0.00512049 0.01662792 -0.00508126
v -0.00386431 0.01566025 -0.00514605
v 0.00512049 0.01662792 -0.00508126
v 0.00410167 0.01566025 -0.00503395
v -0.00527734 0.01662792 -0.00500310
v -0.00408640 0.01566025 -0.00504321
v 0.00663346 0.01662792 -0.00429043
v 0.00437511 0.01566025 -0.00484679
v -0.00652936 0.01662792 -0.00434802
v -0.00410167 0.01566025 -0.00503395
v -0.00663346 0.01662792 -0.00429043
v 0.00682779 0.01662792 -0.00413412
v 0.00687359 0.01657307 -0.00403642
v 0.00656684 0.01650004 -0.00420199
v 0.00520933 0.01566025 -0.00426986
v -0.00421965 0.01566025 -0.00496094
v -0.00656684 0.01650004 -0.00420199
v -0.00692217 0.01662792 -0.00408475
v -0.00507052 0.01566025 -0.00437064
v 0.00701656 0.01662792 -0.00394181
v 0.00543974 0.01566025 -0.00390993
v -0.00687359 0.01657307 -0.00403642
v -0.00701656 0.01662792 -0.00394181
v -0.00520933 0.01566025 -0.00426986
v 0.00703877 0.01662792 -0.00384822
v 0.00548277 0.01566025 -0.00344921
v 0.00708874 0.01662792 -0.00344921
v -0.00541337 0.01566025 -0.00396237
v -0.00703044 0.01662792 -0.00389347
v -0.00543974 0.01566025 -0.00390993
v 0.00709013 0.01662792 -0.00298952
v 0.00548277 0.01566025 0.00344921
v -0.00703877 0.01662792 -0.00384822
v -0.00548277 0.01566025 -0.00344921
v -0.00708596 0.01662792 -0.00352017
v 0.00709013 0.01662792 0.00298952
v 0.00708874 0.01662792 0.00344921
v 0.00708596 0.01662792 0.00352017
v 0.00543974 0.01566025 0.00390993
v -0.00709013 0.01662792 -0.00298952
v -0.00708874 0.01662792 -0.00344921
v -0.00548277 0.01566025 0.00344921
v 0.00703877 0.01662792 0.00384822
v 0.00541337 0.01566025 0.00396237
v 0.00703044 0.01662792 0.00389347
v 0.00701656 0.01662792 0.00394181
v -0.00709013 0.01662792 0.00298952
v -0.00543974 0.01566025 0.00390993
v -0.00708874 0.01662792 0.00344921
v 0.00520933 0.01566025 0.00426986
v 0.00687359 0.01657307 0.00403642
v 0.00692217 0.01662792 0.00408475
v -0.00520933 0.01566025 0.00426986
v -0.00687359 0.01657307 0.00403642
v -0.00701656 0.01662792 0.00394181
v -0.00703877 0.01662792 0.00384822
v 0.00507052 0.01566025 0.00437064
v 0.00663346 0.01662792 0.00429043
v 0.00656684 0.01650004 0.00420199
v -0.00437511 0.01566025 0.00484679
v -0.00663346 0.01662792 0.00429043
v -0.00656684 0.01650004 0.00420199
v -0.00682779 0.01662792 0.00413411
v 0.00421965 0.01566025 0.00496094
v 0.00652936 0.01662792 0.00434802
v 0.00408640 0.01566025 0.00504321
v 0.00410167 0.01566025 0.00503395
v -0.00410167 0.01566025 0.00503395
v -0.00512049 0.01662792 0.00508126
v 0.00527734 0.01662792 0.00500310
v 0.00512049 0.01662792 0.00508126
v 0.00386431 0.01566025 0.00514605
v -0.00386431 0.01566025 0.00514605
v -0.00482900 0.01662792 0.00516044
v 0.00503305 0.01662792 0.00511622
v 0.00376160 0.01566025 0.00517381
v -0.00393649 0.01584327 0.00517381
v -0.00346456 0.01566025 0.00521906
v -0.00437928 0.01662792 0.00522626
v -0.00344929 0.01587008 0.00525197
v 0.00468742 0.01662792 0.00519644
v 0.00346456 0.01566025 0.00521906
v -0.00298985 0.01566025 0.00525300
v -0.00390873 0.01632999 0.00525094
v -0.00390873 0.01662792 0.00525197
v -0.00344929 0.01632999 0.00525300
v 0.00420716 0.01662792 0.00525197
v 0.00323969 0.01566025 0.00525197
v 0.00298985 0.01566025 0.00525300
v -0.00344929 0.01662792 0.00525300
v 0.00374772 0.01662792 0.00525300
f 1 2 3
f 1 3 7
f 1 7 13
f 1 13 20
f 1 20 24
f 1 24 28
f 1 28 30
f 1 30 37
f 1 37 42
f 1 42 48
f 1 48 52
f 1 52 54
f 1 54 60
f 1 60 59
f 1 59 66
f 1 66 68
f 1 68 75
f 1 75 74
f 1 74 82
f 1 82 80
f 1 80 88
f 1 88 93
f 1 93 98
f 1 98 104
f 1 104 109
f 1 109 110
f 1 110 106
f 1 106 100
f 1 100 94
f 1 94 90
f 1 90 89
f 1 89 84
f 1 84 77
f 1 77 71
f 1 71 65
f 1 65 64
f 1 64 62
f 1 62 57
f 1 57 56
f 1 56 55
f 1 55 50
f 1 50 46
f 1 46 44
f 1 44 39
f 1 39 31
f 1 31 26
f 1 26 22
f 1 22 17
f 1 17 15
f 1 15 8
f 1 8 4
f 1 4 9
f 1 9 6
f 1 6 2
f 2 5 3
f 2 6 12
f 2 12 19
f 2 19 23
f 2 23 27
f 2 27 34
f 2 34 40
f 2 40 45
f 2 45 51
f 2 51 58
f 2 58 63
f 2 63 69
f 2 69 76
f 2 76 83
f 2 83 86
f 2 86 85
f 2 85 91
f 2 91 95
f 2 95 101
f 2 101 107
f 2 107 108
f 2 108 102
f 2 102 97
f 2 97 92
f 2 92 87
f 2 87 79
f 2 79 72
f 2 72 67
f 2 67 61
f 2 61 53
f 2 53 49
f 2 49 47
f 2 47 43
f 2 43 38
f 2 38 35
f 2 35 29
f 2 29 25
f 2 25 21
f 2 21 14
f 2 14 10
f 2 10 5
f 3 5 7
f 4 8 9
f 5 10 7
f 6 9 11
f 6 11 12
f 7 10 14
f 7 14 13
f 8 15 16
f 8 16 11
f 8 11 9
f 11 16 15
f 11 15 17
f 11 17 12
f 12 17 18
f 12 18 19
f 13 14 21
f 13 21 20
f 17 22 19
f 17 19 18
f 19 22 23
f 20 21 25
f 20 25 24
f 22 26 23
f 23 26 27
f 24 25 28
f 25 29 30
f 25 30 28
f 26 31 32
f 26 32 33
f 26 33 34
f 26 34 27
f 29 35 30
f 30 36 37
f 30 35 38
f 30 38 36
f 31 39 32
f 32 39 40
f 32 40 34
f 32 34 33
f 36 38 37
f 37 41 42
f 37 38 43
f 37 43 41
f 39 44 40
f 40 44 46
f 40 46 45
f 41 43 47
f 41 47 42
f 42 47 49
f 42 49 48
f 45 46 50
f 45 50 55
f 45 55 51
f 48 49 52
f 49 53 54
f 49 54 52
f 51 55 56
f 51 56 57
f 51 57 58
f 53 59 60
f 53 60 54
f 53 61 66
f 53 66 59
f 57 62 58
f 58 62 64
f 58 64 65
f 58 65 63
f 61 67 68
f 61 68 66
f 63 65 70
f 63 70 69
f 65 71 70
f 67 72 73
f 67 73 74
f 67 74 75
f 67 75 68
f 69 70 71
f 69 71 76
f 71 77 78
f 71 78 76
f 72 79 80
f 72 80 81
f 72 81 73
f 73 81 80
f 73 80 82
f 73 82 74
f 76 78 77
f 76 77 83
f 77 84 85
f 77 85 86
f 77 86 83
f 79 87 80
f 80 87 88
f 84 89 85
f 85 89 90
f 85 90 91
f 87 92 88
f 88 92 93
f 90 94 91
f 91 94 95
f 92 96 93
f 92 97 96
f 93 96 97
f 93 97 99
f 93 99 98
f 94 100 95
f 95 100 101
f 97 102 99
f 98 99 103
f 98 103 104
f 99 102 105
f 99 105 104
f 99 104 103
f 100 106 107
f 100 107 101
f 102 108 110
f 102 110 109
f 102 109 105
f 104 105 109
f 106 110 108
f 106 108 107

