# https://github.com/mikedh/trimesh
v 0.01297296 0.01660019 -0.00298952
v 0.01170218 0.01703520 -0.00312938
v 0.01297296 0.01660084 -0.00344921
v 0.01297296 0.01660019 0.00298952
v 0.01170218 0.01703585 -0.00344921
v 0.01170218 0.01703520 0.00331038
v 0.01170218 0.01704106 -0.00356542
v 0.01170218 0.01706190 -0.00390993
v 0.01297296 0.01663080 -0.00390993
v 0.01297296 0.01660084 0.00344921
v 0.01170218 0.01703585 0.00344921
v 0.01170218 0.01706386 -0.00392947
v 0.01195534 0.01701892 -0.00414131
v 0.01297296 0.01664187 -0.00393564
v 0.01297296 0.01662819 0.00387496
v 0.01170218 0.01706190 0.00390993
v 0.01170218 0.01724424 -0.00430071
v 0.01297296 0.01684440 -0.00432128
v 0.01297296 0.01663080 0.00390993
v 0.01195534 0.01701892 0.00414131
v 0.01170218 0.01724424 0.00430071
v 0.01170218 0.01727550 -0.00433362
v 0.01297296 0.01692515 -0.00440150
v 0.01297296 0.01684440 0.00432128
v 0.01170218 0.01751254 0.00456809
v 0.01170218 0.01751254 -0.00456809
v 0.01170218 0.01752622 -0.00458146
v 0.01170218 0.01775675 -0.00480565
v 0.01170218 0.01798663 -0.00502161
v 0.01297296 0.01736602 -0.00481285
v 0.01297296 0.01720517 0.00466168
v 0.01170218 0.01772810 0.00477788
v 0.01170218 0.01800030 -0.00503190
v 0.01297296 0.01762520 -0.00504629
v 0.01297296 0.01755683 -0.00498768
v 0.01297296 0.01728332 0.00473469
v 0.01170218 0.01798663 0.00502161
v 0.01170218 0.01821651 -0.00515633
v 0.01264989 0.01784727 -0.00512754
v 0.01297296 0.01778670 -0.00514502
v 0.01297296 0.01755683 0.00498768
v 0.01264989 0.01784727 0.00512754
v 0.01170218 0.01821651 0.00515633
v 0.01170218 0.01863003 -0.00525197
v 0.01264989 0.01817027 -0.00522318
v 0.01297296 0.01788308 -0.00517381
v 0.01297296 0.01778670 0.00514502
v 0.01264989 0.01817027 0.00522318
v 0.01170218 0.01860723 0.00524683
v 0.01170218 0.01865803 -0.00525300
v 0.01173004 0.01863003 -0.00525300
v 0.01297296 0.01817027 -0.00524169
v 0.01297296 0.01817027 0.00524169
v 0.01170218 0.01863003 0.00525197
v 0.01170218 0.02046971 -0.00525300
v 0.01297296 0.01863003 -0.00525300
v 0.01297296 0.01830768 -0.00525094
v 0.01297296 0.01863003 0.00525300
v 0.01173004 0.01863003 0.00525300
v 0.01170218 0.01909044 0.00525300
v 0.01297296 0.02046971 -0.00525300
v 0.01170218 0.02092947 -0.00524786
v 0.01297296 0.02046971 0.00525300
v 0.01170218 0.02046971 0.00525300
v 0.01297296 0.02092947 -0.00524786
v 0.01170218 0.02138987 -0.00520364
v 0.01297296 0.02092947 0.00524991
v 0.01170218 0.02092947 0.00524991
v 0.01297296 0.02138987 -0.00520364
v 0.01170218 0.02175195 -0.00511211
v 0.01297296 0.02138987 0.00520467
v 0.01170218 0.02136187 0.00520775
v 0.01264989 0.02175195 -0.00511211
v 0.01297296 0.02175195 -0.00511108
v 0.01170218 0.02198183 -0.00501647
v 0.01297296 0.02164450 0.00513988
v 0.01170218 0.02138987 0.00520467
v 0.01297296 0.02198183 -0.00501647
v 0.01297296 0.02182033 -0.00508332
v 0.01170218 0.02230939 -0.00480257
v 0.01264989 0.02230939 -0.00480360
v 0.01297296 0.02175325 0.00511108
v 0.01170218 0.02173111 0.00511725
v 0.01297296 0.02230939 -0.00480360
v 0.01170218 0.02255685 -0.00461643
v 0.01170218 0.02175325 0.00511108
v 0.01297296 0.02191475 0.00504527
v 0.01297296 0.02255685 -0.00461643
v 0.01170218 0.02275612 -0.00436962
v 0.01170218 0.02196880 0.00502264
v 0.01297296 0.02198313 0.00501647
v 0.01297296 0.02275612 -0.00436962
v 0.01170218 0.02276915 -0.00435213
v 0.01170218 0.02198313 0.00501647
v 0.01297296 0.02230939 0.00480771
v 0.01297296 0.02281994 -0.00428220
v 0.01170218 0.02296907 -0.00407755
v 0.01297296 0.02296907 -0.00407755
v 0.01170218 0.02230939 0.00480771
v 0.01297296 0.02256076 0.00462054
v 0.01170218 0.02307196 -0.00384720
v 0.01297296 0.02307196 -0.00384720
v 0.01170218 0.02256076 0.00462054
v 0.01297296 0.02275938 0.00436962
v 0.01170218 0.02274766 0.00438504
v 0.01170218 0.02307978 -0.00382354
v 0.01297296 0.02310778 -0.00372893
v 0.01297296 0.02296842 0.00407755
v 0.01170218 0.02295605 0.00409504
v 0.01170218 0.02275938 0.00436962
v 0.01170218 0.02319243 -0.00344921
v 0.01297296 0.02319243 -0.00344921
v 0.01297296 0.02304201 0.00391610
v 0.01264989 0.02296842 0.00407755
v 0.01170218 0.02296842 0.00407652
v 0.01297296 0.02320872 -0.00331243
v 0.01170218 0.02324649 -0.00298952
v 0.01170218 0.02306675 0.00386056
v 0.01297296 0.02307261 0.00384719
v 0.01297296 0.02324649 -0.00298952
v 0.01170218 0.02324714 -0.00296175
v 0.01170218 0.02307261 0.00384719
v 0.01297296 0.02319374 0.00344921
v 0.01297296 0.02324844 -0.00285275
v 0.01170218 0.02325300 -0.00252983
v 0.01297296 0.02325300 -0.00252983
v 0.01170218 0.02319374 0.00344921
v 0.01297296 0.02323086 0.00312630
v 0.01170218 0.02325300 0.00252983
v 0.01297296 0.02325300 0.00252983
v 0.01170218 0.02324649 0.00298952
v 0.01297296 0.02324649 0.00298952
f 1 2 3
f 1 3 9
f 1 9 14
f 1 14 18
f 1 18 23
f 1 23 30
f 1 30 35
f 1 35 34
f 1 34 40
f 1 40 46
f 1 46 52
f 1 52 57
f 1 57 56
f 1 56 61
f 1 61 65
f 1 65 69
f 1 69 74
f 1 74 79
f 1 79 78
f 1 78 84
f 1 84 88
f 1 88 92
f 1 92 96
f 1 96 98
f 1 98 102
f 1 102 107
f 1 107 112
f 1 112 116
f 1 116 120
f 1 120 124
f 1 124 126
f 1 126 130
f 1 130 132
f 1 132 128
f 1 128 123
f 1 123 119
f 1 119 113
f 1 113 108
f 1 108 104
f 1 104 100
f 1 100 95
f 1 95 91
f 1 91 87
f 1 87 82
f 1 82 76
f 1 76 71
f 1 71 67
f 1 67 63
f 1 63 58
f 1 58 53
f 1 53 47
f 1 47 41
f 1 41 36
f 1 36 31
f 1 31 24
f 1 24 19
f 1 19 15
f 1 15 10
f 1 10 4
f 1 4 6
f 1 6 2
f 2 5 3
f 2 6 11
f 2 11 16
f 2 16 21
f 2 21 25
f 2 25 32
f 2 32 37
f 2 37 43
f 2 43 49
f 2 49 54
f 2 54 60
f 2 60 64
f 2 64 68
f 2 68 72
f 2 72 77
f 2 77 83
f 2 83 86
f 2 86 90
f 2 90 94
f 2 94 99
f 2 99 103
f 2 103 105
f 2 105 110
f 2 110 109
f 2 109 115
f 2 115 118
f 2 118 122
f 2 122 127
f 2 127 131
f 2 131 129
f 2 129 125
f 2 125 121
f 2 121 117
f 2 117 111
f 2 111 106
f 2 106 101
f 2 101 97
f 2 97 93
f 2 93 89
f 2 89 85
f 2 85 80
f 2 80 75
f 2 75 70
f 2 70 66
f 2 66 62
f 2 62 55
f 2 55 50
f 2 50 44
f 2 44 38
f 2 38 33
f 2 33 29
f 2 29 28
f 2 28 27
f 2 27 26
f 2 26 22
f 2 22 17
f 2 17 12
f 2 12 8
f 2 8 7
f 2 7 5
f 3 5 7
f 3 7 8
f 3 8 9
f 4 10 6
f 6 10 11
f 8 12 9
f 9 12 13
f 9 13 14
f 10 15 16
f 10 16 11
f 12 17 13
f 13 17 18
f 13 18 14
f 15 19 16
f 16 19 20
f 16 20 21
f 17 22 18
f 18 22 23
f 19 24 20
f 20 24 21
f 21 24 25
f 22 26 23
f 23 26 27
f 23 27 28
f 23 28 29
f 23 29 30
f 24 31 32
f 24 32 25
f 29 33 34
f 29 34 35
f 29 35 30
f 31 36 37
f 31 37 32
f 33 38 39
f 33 39 34
f 34 39 40
f 36 41 37
f 37 41 42
f 37 42 43
f 38 44 45
f 38 45 46
f 38 46 40
f 38 40 39
f 41 47 42
f 42 47 43
f 43 47 48
f 43 48 49
f 44 50 51
f 44 51 52
f 44 52 45
f 45 52 46
f 47 53 48
f 48 53 54
f 48 54 49
f 50 55 61
f 50 61 56
f 50 56 51
f 51 56 57
f 51 57 52
f 53 58 59
f 53 59 54
f 54 59 60
f 55 62 65
f 55 65 61
f 58 63 64
f 58 64 60
f 58 60 59
f 62 66 69
f 62 69 65
f 63 67 68
f 63 68 64
f 66 70 73
f 66 73 69
f 67 71 72
f 67 72 68
f 69 73 74
f 70 75 78
f 70 78 73
f 71 76 77
f 71 77 72
f 73 78 79
f 73 79 74
f 75 80 81
f 75 81 84
f 75 84 78
f 76 82 83
f 76 83 77
f 80 85 81
f 81 85 88
f 81 88 84
f 82 86 83
f 82 87 86
f 85 89 92
f 85 92 88
f 86 87 90
f 87 91 90
f 89 93 92
f 90 91 94
f 91 95 99
f 91 99 94
f 92 93 96
f 93 97 98
f 93 98 96
f 95 100 103
f 95 103 99
f 97 101 102
f 97 102 98
f 100 104 105
f 100 105 103
f 101 106 102
f 102 106 107
f 104 108 109
f 104 109 110
f 104 110 105
f 106 111 112
f 106 112 107
f 108 113 114
f 108 114 109
f 109 114 115
f 111 116 112
f 111 117 116
f 113 118 114
f 113 119 118
f 114 118 115
f 116 117 120
f 117 121 120
f 118 119 122
f 119 123 127
f 119 127 122
f 120 121 124
f 121 125 126
f 121 126 124
f 123 128 127
f 125 129 130
f 125 130 126
f 127 128 131
f 128 132 131
f 129 131 132
f 129 132 130

