# https://github.com/mikedh/trimesh
v 0.00512010 0.00252994 0.00525300
v 0.00512010 0.00300522 0.00519644
v 0.00482996 0.00298945 0.00524169
v 0.00443981 0.00298945 0.00525094
v 0.00443981 0.00252994 0.00525300
v 0.00512010 -0.00252994 0.00525300
v 0.00512010 0.00332068 0.00511520
v 0.00481991 0.00345106 0.00514810
v 0.00443981 0.00345001 0.00521598
v 0.00443981 -0.00292005 0.00525300
v 0.00512010 -0.00269923 0.00524889
v 0.00512010 0.00353624 0.00496402
v 0.00443981 0.00518921 0.00421124
v 0.00443981 0.00417240 0.00492083
v 0.00448948 0.00403781 0.00498356
v 0.00465989 0.00373077 0.00509257
v 0.00443981 0.00384643 0.00512137
v 0.00443981 -0.00298945 0.00525094
v 0.00482996 -0.00298945 0.00524169
v 0.00512010 -0.00300522 0.00519644
v 0.00512010 0.00382961 0.00473572
v 0.00461387 0.00507460 0.00415263
v 0.00443981 0.00532906 0.00390993
v 0.00512010 0.00435852 0.00432231
v 0.00512010 0.00454358 0.00417525
v 0.00443981 0.00398628 0.00503704
v 0.00443981 -0.00337956 0.00523140
v 0.00512010 -0.00318503 0.00515942
v 0.00507435 0.00461193 0.00415160
v 0.00443981 0.00537007 0.00344921
v 0.00512010 0.00461929 0.00390993
v 0.00443981 -0.00345001 0.00521598
v 0.00443981 -0.00380963 0.00513679
v 0.00512010 -0.00332068 0.00511520
v 0.00511950 0.00465399 0.00344921
v 0.00443981 0.00537112 0.00298952
v 0.00512010 0.00465294 0.00344921
v 0.00443981 -0.00384643 0.00512137
v 0.00512010 -0.00337430 0.00508229
v 0.00465989 -0.00373077 0.00509257
v 0.00443981 -0.00406094 0.00500002
v 0.00512010 0.00465399 0.00298952
v 0.00443981 0.00537112 -0.00298952
v 0.00512010 -0.00353624 0.00496402
v 0.00443981 -0.00515451 0.00424004
v 0.00512010 0.00465399 -0.00298952
v 0.00443981 0.00537007 -0.00344921
v 0.00511950 0.00465399 -0.00344921
v 0.00512010 -0.00364139 0.00488689
v 0.00443981 -0.00518921 0.00421124
v 0.00512010 -0.00447208 0.00423901
v 0.00512010 0.00465294 -0.00344921
v 0.00443981 0.00533222 -0.00386879
v 0.00512010 0.00461929 -0.00390993
v 0.00443981 -0.00532906 0.00390993
v 0.00461387 -0.00507460 0.00415263
v 0.00512010 -0.00454358 0.00417525
v 0.00443981 0.00532801 -0.00391198
v 0.00512010 0.00458144 -0.00410841
v 0.00443981 -0.00537007 0.00344921
v 0.00512010 -0.00461929 0.00390993
v 0.00512010 -0.00458144 0.00410840
v 0.00507435 -0.00461193 0.00415160
v 0.00461387 0.00507460 -0.00415263
v 0.00443981 0.00518921 -0.00421124
v 0.00507435 0.00461193 -0.00415160
v 0.00512010 0.00454358 -0.00417525
v 0.00443981 -0.00537112 0.00298952
v 0.00511950 -0.00465399 0.00344921
v 0.00512010 -0.00465294 0.00344818
v 0.00443981 0.00515451 -0.00424004
v 0.00512010 0.00447208 -0.00423901
v 0.00443981 -0.00537112 -0.00298952
v 0.00512010 -0.00465399 0.00298849
v 0.00512010 0.00364139 -0.00488689
v 0.00512010 0.00353624 -0.00496402
v 0.00512010 0.00337430 -0.00508229
v 0.00443981 0.00406094 -0.00500002
v 0.00443981 -0.00537007 -0.00344921
v 0.00511950 -0.00465399 -0.00344921
v 0.00512010 -0.00465399 -0.00299055
v 0.00512010 0.00332068 -0.00511520
v 0.00465989 0.00373077 -0.00509257
v 0.00443981 0.00384643 -0.00512137
v 0.00443981 -0.00532906 -0.00390993
v 0.00512010 -0.00461929 -0.00390993
v 0.00512010 -0.00465294 -0.00345127
v 0.00512010 0.00318503 -0.00515942
v 0.00443981 0.00380963 -0.00513679
v 0.00443981 -0.00518921 -0.00421124
v 0.00461387 -0.00507460 -0.00415263
v 0.00507435 -0.00461193 -0.00415160
v 0.00512010 -0.00454358 -0.00417525
v 0.00443981 0.00337956 -0.00523140
v 0.00443981 0.00345001 -0.00521598
v 0.00512010 0.00300522 -0.00519644
v 0.00443981 -0.00417240 -0.00492083
v 0.00512010 -0.00332068 -0.00511520
v 0.00512010 -0.00353624 -0.00496402
v 0.00512010 -0.00382961 -0.00473572
v 0.00512010 -0.00435852 -0.00432231
v 0.00482996 0.00298945 -0.00524169
v 0.00443981 0.00298945 -0.00525094
v 0.00512010 0.00269923 -0.00524889
v 0.00443981 -0.00398628 -0.00503704
v 0.00448948 -0.00403781 -0.00498356
v 0.00465989 -0.00373077 -0.00509257
v 0.00443981 -0.00384643 -0.00512137
v 0.00481991 -0.00345106 -0.00514810
v 0.00512010 -0.00300522 -0.00519644
v 0.00443981 0.00292005 -0.00525300
v 0.00512010 0.00252994 -0.00525300
v 0.00443981 -0.00345001 -0.00521598
v 0.00482996 -0.00298945 -0.00524169
v 0.00512010 -0.00252994 -0.00525300
v 0.00443981 -0.00252994 -0.00525300
v 0.00443981 -0.00298945 -0.00525094
f 1 2 3
f 1 3 4
f 1 4 5
f 1 5 10
f 1 10 6
f 1 6 11
f 1 11 20
f 1 20 28
f 1 28 34
f 1 34 39
f 1 39 44
f 1 44 49
f 1 49 51
f 1 51 57
f 1 57 62
f 1 62 61
f 1 61 70
f 1 70 74
f 1 74 81
f 1 81 87
f 1 87 86
f 1 86 93
f 1 93 101
f 1 101 100
f 1 100 99
f 1 99 98
f 1 98 110
f 1 110 115
f 1 115 112
f 1 112 104
f 1 104 96
f 1 96 88
f 1 88 82
f 1 82 77
f 1 77 76
f 1 76 75
f 1 75 72
f 1 72 67
f 1 67 59
f 1 59 54
f 1 54 52
f 1 52 46
f 1 46 42
f 1 42 37
f 1 37 31
f 1 31 25
f 1 25 24
f 1 24 21
f 1 21 12
f 1 12 7
f 1 7 2
f 2 7 8
f 2 8 9
f 2 9 3
f 3 9 4
f 4 9 17
f 4 17 26
f 4 26 14
f 4 14 13
f 4 13 23
f 4 23 30
f 4 30 36
f 4 36 43
f 4 43 47
f 4 47 53
f 4 53 58
f 4 58 65
f 4 65 71
f 4 71 78
f 4 78 84
f 4 84 89
f 4 89 95
f 4 95 94
f 4 94 103
f 4 103 111
f 4 111 116
f 4 116 117
f 4 117 113
f 4 113 108
f 4 108 105
f 4 105 97
f 4 97 90
f 4 90 85
f 4 85 79
f 4 79 73
f 4 73 68
f 4 68 60
f 4 60 55
f 4 55 50
f 4 50 45
f 4 45 41
f 4 41 38
f 4 38 33
f 4 33 32
f 4 32 27
f 4 27 18
f 4 18 10
f 4 10 5
f 6 10 11
f 7 12 13
f 7 13 14
f 7 14 15
f 7 15 16
f 7 16 17
f 7 17 8
f 8 17 9
f 10 18 11
f 11 18 19
f 11 19 20
f 12 21 13
f 13 22 23
f 13 21 24
f 13 24 25
f 13 25 22
f 14 26 15
f 15 26 16
f 16 26 17
f 18 27 19
f 19 27 20
f 20 27 28
f 22 25 29
f 22 29 23
f 23 29 31
f 23 31 30
f 25 31 29
f 27 32 28
f 28 32 33
f 28 33 34
f 30 35 36
f 30 31 35
f 31 37 35
f 33 38 34
f 34 38 40
f 34 40 41
f 34 41 39
f 35 37 42
f 35 42 36
f 36 42 46
f 36 46 43
f 38 41 40
f 39 41 45
f 39 45 44
f 43 46 48
f 43 48 47
f 44 45 49
f 45 50 51
f 45 51 49
f 46 52 48
f 47 48 54
f 47 54 53
f 48 52 54
f 50 55 56
f 50 56 57
f 50 57 51
f 53 54 58
f 54 59 58
f 55 60 61
f 55 61 62
f 55 62 56
f 56 62 63
f 56 63 57
f 57 63 62
f 58 64 65
f 58 59 64
f 59 66 64
f 59 67 66
f 60 68 69
f 60 69 61
f 61 69 70
f 64 66 67
f 64 67 65
f 65 67 72
f 65 72 71
f 68 73 81
f 68 81 74
f 68 74 69
f 69 74 70
f 71 72 75
f 71 75 76
f 71 76 77
f 71 77 78
f 73 79 80
f 73 80 81
f 77 82 78
f 78 82 83
f 78 83 84
f 79 85 86
f 79 86 80
f 80 87 81
f 80 86 87
f 82 88 89
f 82 89 84
f 82 84 83
f 85 90 91
f 85 91 92
f 85 92 86
f 86 92 93
f 88 94 95
f 88 95 89
f 88 96 94
f 90 97 98
f 90 98 99
f 90 99 100
f 90 100 101
f 90 101 93
f 90 93 91
f 91 93 92
f 94 96 102
f 94 102 103
f 96 104 102
f 97 105 106
f 97 106 98
f 98 106 107
f 98 107 108
f 98 108 109
f 98 109 110
f 102 104 103
f 103 104 111
f 104 112 111
f 105 108 107
f 105 107 106
f 108 113 109
f 109 113 110
f 110 114 115
f 110 113 114
f 111 112 115
f 111 115 116
f 113 117 114
f 114 117 115
f 115 117 116

