# https://github.com/mikedh/trimesh
v 0.05428399 -0.02702916 0.01642851
v 0.05448072 -0.02698967 0.01823413
v 0.05428399 -0.02702916 0.01823413
v 0.05428399 -0.02702612 0.01036634
v 0.05531441 -0.02681502 0.01188312
v 0.05531441 -0.02681806 0.01794364
v 0.05531441 -0.02681806 0.01823413
v 0.05428399 -0.01271693 0.01823413
v 0.05428399 -0.02702308 0.00933809
v 0.05531441 -0.02681350 0.01036634
v 0.05682998 -0.02642623 0.01036634
v 0.05682998 -0.02642927 0.01491338
v 0.05682998 -0.02643079 0.01794364
v 0.05682998 -0.02643079 0.01823413
v 0.06074542 -0.01151564 0.01823413
v 0.06074542 -0.01410198 0.00279068
v 0.05428399 -0.01735200 0.00279068
v 0.05428399 -0.02702156 0.00885286
v 0.05531441 -0.02680895 0.00885286
v 0.05682998 -0.02642016 0.00885286
v 0.05815579 -0.02601619 0.00885286
v 0.05816401 -0.02601922 0.01036634
v 0.05708616 -0.02635334 0.01823413
v 0.06074542 -0.02499866 0.01823413
v 0.06074542 -0.01470339 0.00174923
v 0.05428399 -0.01788203 0.00171953
v 0.05428399 -0.02700030 0.00733772
v 0.05531441 -0.02678617 0.00733772
v 0.05682998 -0.02639586 0.00733772
v 0.05811784 -0.02600403 0.00733772
v 0.05891358 -0.02575649 0.00885286
v 0.05892180 -0.02575952 0.01036634
v 0.05892433 -0.02576104 0.01339825
v 0.05817097 -0.02602226 0.01823413
v 0.05986049 -0.02539200 0.01823413
v 0.06074542 -0.02499866 0.01794364
v 0.06074542 -0.01595024 0.00148846
v 0.05428399 -0.01900587 0.00138943
v 0.05428399 -0.02694563 0.00479270
v 0.05531441 -0.02671631 0.00430746
v 0.05682998 -0.02631993 0.00430746
v 0.05887562 -0.02574282 0.00733772
v 0.05799955 -0.02596303 0.00430746
v 0.05986049 -0.02535251 0.00733772
v 0.05986049 -0.02537985 0.00885286
v 0.05986049 -0.02538593 0.01036634
v 0.05986049 -0.02538896 0.01339825
v 0.05892876 -0.02576256 0.01823413
v 0.05986049 -0.02539200 0.01794364
v 0.06074542 -0.02499562 0.01339825
v 0.06074542 -0.01749020 0.00137458
v 0.05986049 -0.01749020 0.00137293
v 0.05531441 -0.01900587 0.00137458
v 0.05428399 -0.02052001 0.00137458
v 0.05428399 -0.02693348 0.00430746
v 0.05531441 -0.02663430 0.00279068
v 0.05682998 -0.02626981 0.00279068
v 0.05793124 -0.02594025 0.00279068
v 0.05875734 -0.02570181 0.00430746
v 0.05986049 -0.02526595 0.00430746
v 0.06074542 -0.02497588 0.00822403
v 0.06074542 -0.02487261 0.00430746
v 0.06074542 -0.02489842 0.00521522
v 0.06074542 -0.02495613 0.00731297
v 0.06074542 -0.02498651 0.00885286
v 0.06074542 -0.02499106 0.00973916
v 0.06074542 -0.02499258 0.01036634
v 0.06074542 -0.02499410 0.01125264
v 0.06074542 -0.02052001 0.00137458
v 0.05986049 -0.02203415 0.00137458
v 0.05834492 -0.02354982 0.00137458
v 0.05682998 -0.02354982 0.00137623
v 0.05531441 -0.02506548 0.00150827
v 0.05428399 -0.02506548 0.00161885
v 0.05428399 -0.02682413 0.00279068
v 0.05682998 -0.02602986 0.00181855
v 0.05779082 -0.02589165 0.00194894
v 0.05868902 -0.02564107 0.00279068
v 0.05986049 -0.02517634 0.00279068
v 0.06074542 -0.02480578 0.00279068
v 0.06074542 -0.02203415 0.00137623
v 0.05986049 -0.02354982 0.00140263
v 0.05682998 -0.02506548 0.00149011
v 0.05428399 -0.02627740 0.00172118
v 0.05531441 -0.02619691 0.00171787
v 0.05986049 -0.02470858 0.00173273
v 0.06074542 -0.02454001 0.00182516
v 0.06074542 -0.02360297 0.00154623
f 1 2 3
f 1 3 8
f 1 8 17
f 1 17 26
f 1 26 38
f 1 38 54
f 1 54 74
f 1 74 84
f 1 84 75
f 1 75 55
f 1 55 39
f 1 39 27
f 1 27 18
f 1 18 9
f 1 9 4
f 1 4 2
f 2 5 6
f 2 6 7
f 2 7 14
f 2 14 23
f 2 23 34
f 2 34 48
f 2 48 35
f 2 35 24
f 2 24 15
f 2 15 8
f 2 8 3
f 2 4 5
f 4 9 10
f 4 10 5
f 5 10 11
f 5 11 12
f 5 12 13
f 5 13 6
f 6 13 14
f 6 14 7
f 8 15 16
f 8 16 17
f 9 18 19
f 9 19 10
f 10 19 11
f 11 19 20
f 11 20 21
f 11 21 22
f 11 22 23
f 11 23 12
f 12 23 13
f 13 23 14
f 15 24 36
f 15 36 50
f 15 50 68
f 15 68 67
f 15 67 66
f 15 66 65
f 15 65 61
f 15 61 64
f 15 64 63
f 15 63 62
f 15 62 80
f 15 80 87
f 15 87 88
f 15 88 81
f 15 81 69
f 15 69 51
f 15 51 37
f 15 37 25
f 15 25 16
f 16 25 26
f 16 26 17
f 18 27 19
f 19 27 28
f 19 28 20
f 20 28 29
f 20 29 30
f 20 30 21
f 21 30 31
f 21 31 32
f 21 32 22
f 22 32 33
f 22 33 34
f 22 34 23
f 24 35 49
f 24 49 36
f 25 37 38
f 25 38 26
f 27 39 28
f 28 39 40
f 28 40 29
f 29 40 41
f 29 41 30
f 30 42 31
f 30 41 43
f 30 43 59
f 30 59 42
f 31 42 44
f 31 44 45
f 31 45 32
f 32 45 46
f 32 46 47
f 32 47 33
f 33 47 48
f 33 48 34
f 35 48 49
f 36 49 47
f 36 47 50
f 37 51 52
f 37 52 38
f 38 52 53
f 38 53 54
f 39 55 40
f 40 55 56
f 40 56 57
f 40 57 41
f 41 57 58
f 41 58 43
f 42 59 60
f 42 60 44
f 43 58 59
f 44 61 45
f 44 60 62
f 44 62 63
f 44 63 64
f 44 64 61
f 45 65 66
f 45 66 46
f 45 61 65
f 46 66 67
f 46 67 68
f 46 68 47
f 47 68 50
f 47 49 48
f 51 69 52
f 52 70 71
f 52 71 54
f 52 54 53
f 52 69 70
f 54 71 72
f 54 72 73
f 54 73 74
f 55 75 56
f 56 75 76
f 56 76 77
f 56 77 57
f 57 77 58
f 58 77 78
f 58 78 59
f 59 78 60
f 60 78 79
f 60 79 80
f 60 80 62
f 69 81 70
f 70 81 71
f 71 81 82
f 71 82 83
f 71 83 72
f 72 83 73
f 73 83 84
f 73 84 74
f 75 84 85
f 75 85 76
f 76 85 83
f 76 83 86
f 76 86 87
f 76 87 77
f 77 87 80
f 77 80 79
f 77 79 78
f 81 88 82
f 82 88 86
f 82 86 83
f 83 85 84
f 86 88 87

