# https://github.com/mikedh/trimesh
v 0.07416835 0.00844846 0.04840422
v 0.05854470 0.00844846 0.04840422
v 0.07411081 0.00861329 0.04840422
v 0.07353539 0.00844846 0.05111337
v 0.05239626 0.00844846 0.05127530
v 0.05951865 0.01480186 0.04840422
v 0.07366326 0.00978943 0.04840422
v 0.07298981 0.00983421 0.05124960
v 0.07349490 0.00844846 0.05128301
v 0.05239626 0.01480186 0.05239597
v 0.05239626 0.00844846 0.07466030
v 0.07103765 0.01480186 0.04840422
v 0.07301539 0.01131013 0.04840422
v 0.07289391 0.01088347 0.04977165
v 0.07278522 0.01064276 0.05072010
v 0.07266587 0.01036910 0.05173025
v 0.07286834 0.00935902 0.05241139
v 0.07305801 0.00844846 0.05282522
v 0.05239626 0.01480186 0.07125459
v 0.05259872 0.00844846 0.07458576
v 0.05239626 0.00896718 0.07445467
v 0.07147455 0.01412143 0.04840422
v 0.07103339 0.01480186 0.04842479
v 0.07297702 0.01139659 0.04840422
v 0.07267014 0.01191033 0.04871266
v 0.07254440 0.01164102 0.04977165
v 0.07238882 0.01121062 0.05124960
v 0.07141061 0.01238054 0.05253991
v 0.07174307 0.01145257 0.05294859
v 0.07251030 0.00983421 0.05287148
v 0.07269145 0.00889939 0.05342154
v 0.07300899 0.00844846 0.05297173
v 0.05239626 0.01470981 0.07132399
v 0.05255396 0.01480186 0.07118776
v 0.05279478 0.00844846 0.07450351
v 0.05377086 0.00976019 0.07355248
v 0.05239626 0.00966006 0.07416937
v 0.07152143 0.01404741 0.04840422
v 0.07136159 0.01379676 0.04977165
v 0.07070732 0.01480186 0.04977165
v 0.07087569 0.01455432 0.04977165
v 0.07270637 0.01198310 0.04840422
v 0.07192209 0.01281965 0.04977165
v 0.07154488 0.01285946 0.05120333
v 0.07111225 0.01339124 0.05165314
v 0.07097159 0.01285946 0.05294859
v 0.07122307 0.01205525 0.05355005
v 0.07145110 0.01100537 0.05431859
v 0.07128061 0.01065956 0.05522592
v 0.07109093 0.01023413 0.05623607
v 0.07199242 0.00978943 0.05431859
v 0.07146602 0.00975335 0.05577083
v 0.07130405 0.00922406 0.05675784
v 0.07201800 0.00844846 0.05565774
v 0.07256358 0.00844846 0.05420806
v 0.05239626 0.01462024 0.07138825
v 0.05423972 0.01480186 0.07045265
v 0.05266692 0.01480186 0.07113893
v 0.05397333 0.00844846 0.07399972
v 0.05324659 0.01072922 0.07334942
v 0.05475334 0.00923525 0.07334428
v 0.05425677 0.01024533 0.07312581
v 0.05239626 0.00989703 0.07406398
v 0.07229505 0.01273133 0.04840422
v 0.07125717 0.01362883 0.05064299
v 0.07030027 0.01480186 0.05124446
v 0.07070945 0.01421472 0.05120333
v 0.06990813 0.01480186 0.05242167
v 0.07009355 0.01436462 0.05272754
v 0.06986551 0.01381293 0.05431859
v 0.06971846 0.01359027 0.05509483
v 0.06996567 0.01277860 0.05569372
v 0.06982075 0.01224557 0.05679640
v 0.07107602 0.01176293 0.05431859
v 0.07079044 0.01122119 0.05577083
v 0.07006158 0.01127220 0.05732075
v 0.07080322 0.00975335 0.05729762
v 0.07195406 0.00844846 0.05582481
v 0.07105470 0.00860582 0.05776799
v 0.07119749 0.00844846 0.05759835
v 0.07141061 0.00844846 0.05715368
v 0.05239626 0.01391929 0.07188433
v 0.05531596 0.01397589 0.07050662
v 0.05512629 0.01480186 0.07000027
v 0.05239626 0.01385025 0.07193316
v 0.05311446 0.01362510 0.07177380
v 0.05412464 0.01326684 0.07155275
v 0.05553334 0.00844846 0.07330316
v 0.05576352 0.00866740 0.07311809
v 0.05239626 0.01116646 0.07349337
v 0.05532236 0.01133066 0.07212337
v 0.05377086 0.01126287 0.07284564
v 0.05266478 0.01173929 0.07309239
v 0.05527974 0.00976019 0.07287905
v 0.05634319 0.01084304 0.07188947
v 0.06965452 0.01480186 0.05310796
v 0.06935403 0.01457111 0.05431859
v 0.06865074 0.01480186 0.05560119
v 0.06893205 0.01429060 0.05576826
v 0.06949894 0.01325627 0.05610498
v 0.06842270 0.01389130 0.05734903
v 0.06918566 0.01277860 0.05732075
v 0.06825221 0.01215414 0.05972659
v 0.06954370 0.01175546 0.05780655
v 0.06981862 0.01074539 0.05830262
v 0.07000830 0.00971479 0.05882954
v 0.06976534 0.00915937 0.05972402
v 0.07092897 0.00844846 0.05812013
v 0.05616630 0.01365806 0.07028557
v 0.05532236 0.01278482 0.07129315
v 0.05531596 0.01473344 0.06994629
v 0.05530957 0.01480186 0.06989488
v 0.05239626 0.01291046 0.07252692
v 0.05239626 0.01273195 0.07263744
v 0.05369201 0.01278482 0.07203598
v 0.05482367 0.01225677 0.07185862
v 0.05623237 0.00844846 0.07297672
v 0.05683976 0.00976828 0.07211309
v 0.05239626 0.01145878 0.07334685
v 0.05583384 0.01185311 0.07162986
v 0.05239626 0.01231897 0.07287648
v 0.05735337 0.01025901 0.07160159
v 0.05683976 0.01133066 0.07133427
v 0.06950747 0.01480186 0.05349608
v 0.06918566 0.01480186 0.05431859
v 0.06833746 0.01480186 0.05625920
v 0.06786646 0.01464885 0.05734903
v 0.06737416 0.01425266 0.05874986
v 0.06820532 0.01359151 0.05812270
v 0.06797728 0.01480186 0.05694291
v 0.06792400 0.01316484 0.05913542
v 0.06691383 0.01390374 0.05998877
v 0.06743384 0.01280099 0.06036147
v 0.06795171 0.01165781 0.06073674
v 0.06825008 0.01064836 0.06121740
v 0.06846319 0.01121373 0.06028950
v 0.06953944 0.01017007 0.05931277
v 0.06920484 0.00971479 0.06028950
v 0.06949042 0.00844846 0.06074445
v 0.06957567 0.00844846 0.06059280
v 0.06991026 0.00844846 0.05998620
v 0.05654566 0.01480186 0.06914691
v 0.05543957 0.01480186 0.06981777
v 0.05673533 0.01274128 0.07054518
v 0.05771354 0.01218338 0.07030871
v 0.05717648 0.01319407 0.06996171
v 0.05897307 0.01345717 0.06862770
v 0.05796289 0.01389565 0.06895157
v 0.05756436 0.01480186 0.06850947
v 0.05725534 0.01480186 0.06870738
v 0.05676304 0.00844846 0.07270941
v 0.05774551 0.00924894 0.07184577
v 0.05698042 0.00844846 0.07259374
v 0.05828896 0.00976828 0.07124174
v 0.05916061 0.01061291 0.07026501
v 0.05826978 0.01119258 0.07051690
v 0.06667940 0.01480186 0.05926907
v 0.06640874 0.01480186 0.05969318
v 0.06658137 0.01344721 0.06099892
v 0.06694153 0.01243714 0.06147957
v 0.06740613 0.01125105 0.06185227
v 0.06686055 0.01084304 0.06288298
v 0.06646628 0.01012840 0.06389313
v 0.06790056 0.00978943 0.06226353
v 0.06812434 0.00887824 0.06255912
v 0.06844828 0.00978943 0.06150784
v 0.06872533 0.00844846 0.06194994
v 0.05872372 0.01162298 0.06997970
v 0.06051178 0.01193957 0.06863284
v 0.05950160 0.01244647 0.06896956
v 0.05994914 0.01289864 0.06833211
v 0.05935881 0.01480186 0.06732454
v 0.05883028 0.01480186 0.06769210
v 0.05841896 0.01437457 0.06828841
v 0.05801190 0.00844846 0.07201799
v 0.06054161 0.00891245 0.07017762
v 0.06022407 0.00978943 0.06997199
v 0.06089539 0.01092949 0.06892586
v 0.05983619 0.01127655 0.06945278
v 0.06589300 0.01480186 0.06042316
v 0.06605496 0.01449336 0.06055682
v 0.06547529 0.01395661 0.06189340
v 0.06517266 0.01358840 0.06266193
v 0.06624464 0.01289304 0.06194480
v 0.06558397 0.01480186 0.06085498
v 0.06485724 0.01281965 0.06377746
v 0.06514495 0.01203037 0.06413988
v 0.06655153 0.01185311 0.06248714
v 0.06600382 0.01143702 0.06351271
v 0.06545610 0.01102092 0.06453314
v 0.06503626 0.01033365 0.06554329
v 0.06588873 0.00972598 0.06488014
v 0.06672202 0.00911832 0.06421956
v 0.06707580 0.00968991 0.06339705
v 0.06687333 0.00844846 0.06441491
v 0.06781532 0.00844846 0.06320427
v 0.06861664 0.00844846 0.06210931
v 0.06150064 0.01147433 0.06806479
v 0.06210376 0.01201793 0.06716775
v 0.06100408 0.01281965 0.06754301
v 0.06066096 0.01362136 0.06723200
v 0.05973603 0.01421037 0.06749161
v 0.06015800 0.01463206 0.06678733
v 0.06033063 0.01480186 0.06648146
v 0.06006423 0.00844846 0.07068141
v 0.06123211 0.00844846 0.06988203
v 0.06139195 0.00972039 0.06915719
v 0.06190556 0.01017878 0.06850947
v 0.06492331 0.01480186 0.06171090
v 0.06426051 0.01416123 0.06322227
v 0.06376395 0.01372461 0.06429153
v 0.06401969 0.01268095 0.06484672
v 0.06366592 0.01208324 0.06569751
v 0.06478265 0.01143764 0.06499066
v 0.06440330 0.00978943 0.06643520
v 0.06531119 0.00932357 0.06583631
v 0.06394297 0.01130454 0.06595197
v 0.06347198 0.01025528 0.06703666
v 0.06640022 0.00844846 0.06501636
v 0.06246393 0.01100848 0.06749932
v 0.06293919 0.01143017 0.06678990
v 0.06176278 0.01281965 0.06685930
v 0.06222737 0.01367796 0.06576434
v 0.06173720 0.01468804 0.06532224
v 0.06185228 0.01480186 0.06511661
v 0.06137277 0.00844846 0.06977665
v 0.06221459 0.00916870 0.06878449
v 0.06394084 0.01480186 0.06294210
v 0.06336542 0.01480186 0.06363609
v 0.06330149 0.01473469 0.06378260
v 0.06249377 0.01480186 0.06452286
v 0.06276656 0.01420664 0.06480560
v 0.06323755 0.01309394 0.06530167
v 0.06279640 0.01268095 0.06602651
v 0.06377248 0.00924520 0.06730911
v 0.06487429 0.00844846 0.06668195
v 0.06551577 0.00844846 0.06604965
v 0.06626382 0.00844846 0.06518087
v 0.06146867 0.00844846 0.06970210
v 0.06240639 0.00844846 0.06895927
v 0.06474429 0.00844846 0.06680275
v 0.06326952 0.01480186 0.06374919
f 1 2 6
f 1 6 12
f 1 12 22
f 1 22 38
f 1 38 64
f 1 64 42
f 1 42 24
f 1 24 13
f 1 13 7
f 1 7 3
f 1 3 4
f 1 4 9
f 1 9 18
f 1 18 32
f 1 32 55
f 1 55 54
f 1 54 78
f 1 78 81
f 1 81 80
f 1 80 108
f 1 108 141
f 1 141 140
f 1 140 139
f 1 139 167
f 1 167 197
f 1 197 196
f 1 196 195
f 1 195 219
f 1 219 238
f 1 238 237
f 1 237 236
f 1 236 241
f 1 241 240
f 1 240 239
f 1 239 226
f 1 226 206
f 1 206 205
f 1 205 175
f 1 175 153
f 1 153 151
f 1 151 117
f 1 117 88
f 1 88 59
f 1 59 35
f 1 35 20
f 1 20 11
f 1 11 5
f 1 5 2
f 2 5 6
f 3 7 8
f 3 8 4
f 4 8 9
f 5 10 6
f 5 11 21
f 5 21 37
f 5 37 63
f 5 63 90
f 5 90 119
f 5 119 121
f 5 121 114
f 5 114 113
f 5 113 85
f 5 85 82
f 5 82 56
f 5 56 33
f 5 33 19
f 5 19 10
f 6 10 19
f 6 19 34
f 6 34 58
f 6 58 57
f 6 57 84
f 6 84 112
f 6 112 143
f 6 143 142
f 6 142 150
f 6 150 149
f 6 149 173
f 6 173 172
f 6 172 204
f 6 204 225
f 6 225 231
f 6 231 242
f 6 242 229
f 6 229 228
f 6 228 209
f 6 209 185
f 6 185 180
f 6 180 158
f 6 158 157
f 6 157 130
f 6 130 126
f 6 126 98
f 6 98 125
f 6 125 124
f 6 124 96
f 6 96 68
f 6 68 66
f 6 66 40
f 6 40 23
f 6 23 12
f 7 13 14
f 7 14 15
f 7 15 16
f 7 16 8
f 8 16 17
f 8 17 9
f 9 17 18
f 11 20 21
f 12 23 22
f 13 24 15
f 13 15 14
f 15 24 25
f 15 25 26
f 15 26 27
f 15 27 16
f 16 28 29
f 16 29 30
f 16 30 17
f 16 27 28
f 17 30 31
f 17 31 32
f 17 32 18
f 19 33 34
f 20 35 36
f 20 36 37
f 20 37 21
f 22 23 39
f 22 39 38
f 23 40 41
f 23 41 39
f 24 42 25
f 25 43 44
f 25 44 26
f 25 42 43
f 26 44 27
f 27 44 28
f 28 44 45
f 28 45 46
f 28 46 47
f 28 47 29
f 29 47 48
f 29 48 49
f 29 49 30
f 30 49 50
f 30 50 51
f 30 51 31
f 31 51 52
f 31 52 53
f 31 53 54
f 31 54 55
f 31 55 32
f 33 56 57
f 33 57 58
f 33 58 34
f 35 59 36
f 36 60 37
f 36 59 61
f 36 61 62
f 36 62 60
f 37 60 63
f 38 39 64
f 39 41 65
f 39 65 64
f 40 66 41
f 41 66 67
f 41 67 65
f 42 64 43
f 43 65 44
f 43 64 65
f 44 65 45
f 45 68 69
f 45 69 70
f 45 70 46
f 45 65 67
f 45 67 68
f 46 70 71
f 46 71 47
f 47 71 72
f 47 72 73
f 47 73 74
f 47 74 49
f 47 49 48
f 49 74 75
f 49 75 50
f 50 73 76
f 50 76 77
f 50 77 53
f 50 53 52
f 50 52 51
f 50 75 73
f 53 78 54
f 53 77 79
f 53 79 80
f 53 80 81
f 53 81 78
f 56 82 57
f 57 83 84
f 57 82 85
f 57 85 86
f 57 86 87
f 57 87 83
f 59 88 89
f 59 89 61
f 60 90 63
f 60 62 91
f 60 91 92
f 60 92 93
f 60 93 90
f 61 89 94
f 61 94 62
f 62 94 95
f 62 95 91
f 66 68 67
f 68 96 69
f 69 96 97
f 69 97 70
f 70 97 71
f 71 97 98
f 71 98 99
f 71 99 100
f 71 100 72
f 72 100 73
f 73 75 74
f 73 100 101
f 73 101 102
f 73 102 103
f 73 103 104
f 73 104 76
f 76 104 105
f 76 105 77
f 77 105 106
f 77 106 79
f 79 106 107
f 79 107 108
f 79 108 80
f 83 109 84
f 83 87 110
f 83 110 109
f 84 109 111
f 84 111 112
f 85 113 86
f 86 113 114
f 86 114 87
f 87 114 115
f 87 115 116
f 87 116 110
f 88 117 89
f 89 117 118
f 89 118 95
f 89 95 94
f 90 93 119
f 91 95 120
f 91 120 92
f 92 120 93
f 93 121 119
f 93 120 116
f 93 116 121
f 95 118 122
f 95 122 123
f 95 123 120
f 96 124 97
f 97 125 98
f 97 124 125
f 98 126 99
f 99 126 100
f 100 126 101
f 101 127 128
f 101 128 129
f 101 129 102
f 101 126 130
f 101 130 127
f 102 129 131
f 102 131 103
f 103 132 133
f 103 133 134
f 103 134 135
f 103 135 136
f 103 136 104
f 103 131 132
f 104 136 105
f 105 137 106
f 105 136 135
f 105 135 137
f 106 137 107
f 107 138 139
f 107 139 140
f 107 140 141
f 107 141 108
f 107 137 138
f 109 142 143
f 109 143 111
f 109 110 120
f 109 120 144
f 109 144 145
f 109 145 146
f 109 146 147
f 109 147 148
f 109 148 149
f 109 149 150
f 109 150 142
f 110 116 120
f 111 143 112
f 114 121 116
f 114 116 115
f 117 151 118
f 118 152 122
f 118 151 153
f 118 153 152
f 120 123 145
f 120 145 144
f 122 152 154
f 122 154 155
f 122 155 156
f 122 156 123
f 123 156 145
f 127 157 128
f 127 130 157
f 128 157 132
f 128 132 129
f 129 132 131
f 132 157 158
f 132 158 159
f 132 159 133
f 133 159 160
f 133 160 134
f 134 160 135
f 135 160 161
f 135 161 162
f 135 162 163
f 135 163 164
f 135 164 165
f 135 165 166
f 135 166 139
f 135 139 138
f 135 138 137
f 139 166 167
f 145 156 168
f 145 168 169
f 145 169 170
f 145 170 147
f 145 147 146
f 147 171 172
f 147 172 173
f 147 173 174
f 147 174 148
f 147 170 169
f 147 169 171
f 148 174 149
f 149 174 173
f 152 153 175
f 152 175 176
f 152 176 177
f 152 177 154
f 154 177 155
f 155 177 178
f 155 178 179
f 155 179 156
f 156 179 168
f 158 180 181
f 158 181 159
f 159 182 183
f 159 183 184
f 159 184 160
f 159 181 185
f 159 185 182
f 160 184 186
f 160 186 187
f 160 187 188
f 160 188 161
f 161 188 162
f 162 188 189
f 162 189 190
f 162 190 163
f 163 190 191
f 163 191 192
f 163 192 193
f 163 193 194
f 163 194 164
f 164 194 165
f 165 194 193
f 165 193 195
f 165 195 196
f 165 196 197
f 165 197 166
f 166 197 167
f 168 179 169
f 169 178 198
f 169 198 199
f 169 199 200
f 169 200 201
f 169 201 171
f 169 179 178
f 171 201 202
f 171 202 172
f 172 202 201
f 172 201 203
f 172 203 204
f 175 205 176
f 176 206 207
f 176 207 178
f 176 178 177
f 176 205 206
f 178 208 198
f 178 207 208
f 180 185 181
f 182 185 209
f 182 209 210
f 182 210 183
f 183 210 211
f 183 211 186
f 183 186 184
f 186 211 187
f 187 211 212
f 187 212 213
f 187 213 214
f 187 214 191
f 187 191 190
f 187 190 189
f 187 189 188
f 191 215 216
f 191 216 192
f 191 214 213
f 191 213 217
f 191 217 218
f 191 218 215
f 192 216 193
f 193 216 219
f 193 219 195
f 198 220 199
f 198 208 220
f 199 220 221
f 199 221 213
f 199 213 222
f 199 222 200
f 200 222 201
f 201 222 223
f 201 223 224
f 201 224 203
f 203 224 204
f 204 224 225
f 206 226 207
f 207 226 227
f 207 227 208
f 208 227 218
f 208 218 220
f 209 228 210
f 210 228 211
f 211 228 229
f 211 229 230
f 211 230 231
f 211 231 232
f 211 232 223
f 211 223 233
f 211 233 213
f 211 213 212
f 213 233 234
f 213 234 222
f 213 221 217
f 215 218 227
f 215 227 235
f 215 235 216
f 216 236 237
f 216 237 238
f 216 238 219
f 216 235 236
f 217 221 220
f 217 220 218
f 222 234 233
f 222 233 223
f 223 232 224
f 224 232 225
f 225 232 231
f 226 239 227
f 227 239 240
f 227 240 241
f 227 241 235
f 229 242 230
f 230 242 231
f 235 241 236

