# https://github.com/mikedh/trimesh
v 0.05239626 0.00277091 0.04320734
v 0.04832711 0.00560782 0.04320734
v 0.05239626 -0.00008830 0.04320734
v 0.05239626 0.00157883 0.04109845
v 0.04688892 0.00560782 0.01785085
v 0.04700021 0.00560782 0.01850402
v 0.04706870 0.00560782 0.01899610
v 0.04711721 0.00560782 0.01936516
v 0.04721423 0.00560782 0.02061292
v 0.04723991 0.00560782 0.02097904
v 0.02324449 0.00560782 0.04320734
v 0.02324449 -0.00008830 0.04320734
v 0.05239626 -0.00008830 0.03818701
v 0.05239626 0.00118352 0.04040134
v 0.04699165 -0.00008830 0.01714496
v 0.04644948 0.00560782 0.01643028
v 0.05239626 0.00043693 0.03910086
v 0.02324449 0.00560782 0.01891995
v 0.02324449 -0.00008830 0.01896974
v 0.04685468 -0.00008830 0.01676712
v 0.04671200 -0.00008830 0.01640392
v 0.04628112 0.00560782 0.01611395
v 0.03747795 0.00560782 0.01403142
v 0.03698714 -0.00008830 0.01431553
v 0.04632963 -0.00008830 0.01569803
v 0.04580173 0.00560782 0.01521767
v 0.03864219 0.00560782 0.01370044
v 0.03769482 -0.00008830 0.01409586
v 0.03740946 -0.00008830 0.01418080
v 0.04588448 -0.00008830 0.01498628
v 0.04565048 0.00560782 0.01503314
v 0.03979217 0.00560782 0.01346319
v 0.03857656 -0.00008830 0.01385275
v 0.04525670 -0.00008830 0.01430089
v 0.04509405 0.00560782 0.01445905
v 0.04015742 0.00560782 0.01338996
v 0.04015742 -0.00008830 0.01352763
v 0.04497990 -0.00008830 0.01414565
v 0.04433500 0.00560782 0.01392598
v 0.04130740 0.00560782 0.01330795
v 0.04167265 -0.00008830 0.01338411
v 0.04457185 -0.00008830 0.01393183
v 0.04402682 0.00560782 0.01379710
v 0.04167265 0.00560782 0.01328452
v 0.04245737 -0.00008830 0.01343683
v 0.04318788 -0.00008830 0.01349834
v 0.04318788 0.00560782 0.01349541
v 0.04282263 0.00560782 0.01344269
f 1 2 11
f 1 11 12
f 1 12 3
f 1 3 13
f 1 13 17
f 1 17 14
f 1 14 4
f 1 4 5
f 1 5 6
f 1 6 7
f 1 7 8
f 1 8 9
f 1 9 10
f 1 10 2
f 2 10 9
f 2 9 8
f 2 8 7
f 2 7 6
f 2 6 5
f 2 5 16
f 2 16 22
f 2 22 26
f 2 26 31
f 2 31 35
f 2 35 39
f 2 39 43
f 2 43 47
f 2 47 48
f 2 48 44
f 2 44 40
f 2 40 36
f 2 36 32
f 2 32 27
f 2 27 23
f 2 23 18
f 2 18 11
f 3 12 19
f 3 19 24
f 3 24 29
f 3 29 28
f 3 28 33
f 3 33 37
f 3 37 41
f 3 41 45
f 3 45 46
f 3 46 42
f 3 42 38
f 3 38 34
f 3 34 30
f 3 30 25
f 3 25 21
f 3 21 20
f 3 20 15
f 3 15 13
f 4 14 5
f 5 15 16
f 5 14 17
f 5 17 13
f 5 13 15
f 11 18 19
f 11 19 12
f 15 20 16
f 16 20 21
f 16 21 22
f 18 23 19
f 19 23 24
f 21 25 26
f 21 26 22
f 23 27 28
f 23 28 29
f 23 29 24
f 25 30 26
f 26 30 31
f 27 32 33
f 27 33 28
f 30 34 31
f 31 34 35
f 32 36 37
f 32 37 33
f 34 38 39
f 34 39 35
f 36 40 41
f 36 41 37
f 38 42 39
f 39 42 43
f 40 44 41
f 41 44 45
f 42 46 47
f 42 47 43
f 44 48 46
f 44 46 45
f 46 48 47

