# https://github.com/mikedh/trimesh
v -0.05936174 0.01063606 0.02569522
v -0.05936343 0.01063606 0.02552242
v -0.05936680 0.01063606 0.02695742
v -0.06298769 -0.00008830 0.02695742
v -0.05938533 0.01063606 0.02420012
v -0.07447716 0.01063606 0.02695742
v -0.05971557 0.01063606 0.01188370
v -0.05938870 0.01063606 0.02400478
v -0.07657320 -0.00008830 0.02695742
v -0.06374927 -0.00008830 0.00314851
v -0.05985206 0.01063606 0.00733830
v -0.05980488 0.01063606 0.00885343
v -0.05975938 0.01063606 0.01036857
v -0.07480909 0.00978891 0.02400478
v -0.07481077 0.00978891 0.02695742
v -0.07446873 0.01063606 0.01491397
v -0.07480066 0.00978891 0.01188370
v -0.07657320 0.00069693 0.02695742
v -0.07657320 0.00069693 0.02552242
v -0.07657151 0.00069693 0.02248965
v -0.07656983 0.00069693 0.01945938
v -0.07657151 -0.00008830 0.02400478
v -0.06377118 -0.00008830 0.00279289
v -0.05998348 0.01063606 0.00428549
v -0.05991103 0.01063606 0.00582316
v -0.07532804 0.00827305 0.02695742
v -0.07446537 0.01063606 0.01036857
v -0.07479898 0.00978891 0.01036857
v -0.07531625 0.00827305 0.01036857
v -0.07531962 0.00827305 0.01491397
v -0.07649064 0.00213195 0.02695742
v -0.07648558 0.00221278 0.02552242
v -0.07648390 0.00221278 0.02248965
v -0.07656478 0.00069693 0.01188370
v -0.07656310 -0.00008830 0.01109984
v -0.06009974 0.01063606 0.00279289
v -0.06444515 -0.00008830 0.00170851
v -0.06357573 0.00110843 0.00194141
v -0.07566503 0.00708157 0.02695742
v -0.07445863 0.01063606 0.00885343
v -0.07479224 0.00978891 0.00885343
v -0.07530951 0.00827305 0.00885343
v -0.07565829 0.00705848 0.01036857
v -0.07565997 0.00706058 0.01188370
v -0.07566166 0.00706688 0.01642911
v -0.07648558 0.00221278 0.02695742
v -0.07634068 0.00364675 0.02695742
v -0.07633057 0.00372759 0.02400478
v -0.07647885 0.00221278 0.01491397
v -0.07647548 0.00221278 0.01036857
v -0.07656310 0.00069693 0.01036857
v -0.07655972 -0.00008830 0.00958470
v -0.06048727 0.01027809 0.00189633
v -0.06039629 0.01063606 0.00185125
v -0.06440808 0.00221278 0.00148562
v -0.06135332 0.01063606 0.00154572
v -0.06592282 -0.00008830 0.00137543
v -0.07585037 0.00631945 0.02400478
v -0.07585037 0.00632364 0.02695742
v -0.07584700 0.00630475 0.01340134
v -0.07442661 0.01063606 0.00733830
v -0.07476022 0.00978891 0.00733830
v -0.07565492 0.00704588 0.00885343
v -0.07527750 0.00827305 0.00733830
v -0.07563975 0.00698709 0.00733830
v -0.07584532 0.00630055 0.01036857
v -0.07633226 0.00372759 0.02695742
v -0.07608289 0.00524344 0.02552242
v -0.07632551 0.00372759 0.01642911
v -0.07632214 0.00372759 0.01188370
v -0.07632046 0.00372759 0.01036857
v -0.07647042 0.00221278 0.00885343
v -0.07655804 0.00069693 0.00885343
v -0.07655635 -0.00008830 0.00885343
v -0.06440808 0.00372759 0.00139045
v -0.06289165 0.00827305 0.00140298
v -0.06289165 0.00978891 0.00137543
v -0.06289165 0.01063606 0.00137292
v -0.07349822 -0.00008830 0.00137543
v -0.07586384 0.00626696 0.02695742
v -0.07607446 0.00524344 0.01340134
v -0.07432215 0.01063606 0.00424792
v -0.07465576 0.00978891 0.00430803
v -0.07518146 0.00827305 0.00430803
v -0.07523032 0.00827305 0.00582316
v -0.07584195 0.00628795 0.00885343
v -0.07582846 0.00623022 0.00733830
v -0.07559258 0.00680653 0.00430803
v -0.07577287 0.00600347 0.00352667
v -0.07578466 0.00604861 0.00430803
v -0.07606604 0.00524344 0.00885343
v -0.07607109 0.00524344 0.01036857
v -0.07607278 0.00524344 0.01188370
v -0.07609637 0.00516261 0.02695742
v -0.07608289 0.00524344 0.02695742
v -0.07631541 0.00372759 0.00885343
v -0.07644514 0.00221278 0.00733830
v -0.07653444 0.00069693 0.00733830
v -0.07654456 -0.00008830 0.00806957
v -0.07349822 0.00675720 0.00137543
v -0.07046874 0.01063606 0.00137543
v -0.07501465 -0.00008830 0.00140548
v -0.07429519 0.01063606 0.00353919
v -0.07428171 0.01060142 0.00279289
v -0.07459173 0.00978891 0.00279289
v -0.07508373 0.00827305 0.00279289
v -0.07573579 0.00591424 0.00251741
v -0.07603908 0.00524344 0.00733830
v -0.07588912 0.00534212 0.00293063
v -0.07595483 0.00524344 0.00430803
v -0.07629013 0.00372759 0.00733830
v -0.07636764 0.00221278 0.00430803
v -0.07649738 0.00069693 0.00582316
v -0.07651423 -0.00008830 0.00655443
v -0.07653276 -0.00008830 0.00733830
v -0.07501465 0.00069693 0.00140548
v -0.07349822 0.00827305 0.00139797
v -0.07198348 0.01063606 0.00137793
v -0.07606772 -0.00008830 0.00173605
v -0.07606772 0.00069693 0.00173355
v -0.07426486 0.01063606 0.00279289
v -0.07426149 0.01055733 0.00202656
v -0.07585879 0.00490542 0.00192638
v -0.07620926 0.00372759 0.00430803
v -0.07615871 0.00372759 0.00279289
v -0.07645862 0.00069693 0.00430803
v -0.07631541 0.00221278 0.00279289
v -0.07645862 -0.00008830 0.00430803
v -0.07647716 -0.00008830 0.00503930
v -0.07501465 0.00221278 0.00143303
v -0.07501465 0.00372759 0.00150064
v -0.07463386 0.00827305 0.00172854
v -0.07349822 0.00978891 0.00155825
v -0.07350328 0.01063606 0.00168847
v -0.07640133 -0.00008830 0.00279289
v -0.07640302 0.00069693 0.00279289
v -0.07602560 0.00221278 0.00176360
v -0.07416376 0.01063606 0.00199400
v -0.07440639 0.00978891 0.00188631
v -0.07594978 0.00372759 0.00182872
f 1 2 5
f 1 5 8
f 1 8 7
f 1 7 13
f 1 13 12
f 1 12 11
f 1 11 25
f 1 25 24
f 1 24 36
f 1 36 54
f 1 54 56
f 1 56 78
f 1 78 101
f 1 101 118
f 1 118 134
f 1 134 138
f 1 138 121
f 1 121 103
f 1 103 82
f 1 82 61
f 1 61 40
f 1 40 27
f 1 27 16
f 1 16 6
f 1 6 3
f 1 3 4
f 1 4 2
f 2 4 5
f 3 6 15
f 3 15 26
f 3 26 39
f 3 39 59
f 3 59 80
f 3 80 95
f 3 95 94
f 3 94 67
f 3 67 47
f 3 47 46
f 3 46 31
f 3 31 18
f 3 18 9
f 3 9 4
f 4 7 8
f 4 8 5
f 4 9 22
f 4 22 35
f 4 35 52
f 4 52 74
f 4 74 99
f 4 99 115
f 4 115 114
f 4 114 129
f 4 129 128
f 4 128 135
f 4 135 119
f 4 119 102
f 4 102 79
f 4 79 57
f 4 57 37
f 4 37 23
f 4 23 10
f 4 10 11
f 4 11 12
f 4 12 13
f 4 13 7
f 6 14 15
f 6 16 17
f 6 17 14
f 9 18 19
f 9 19 20
f 9 20 21
f 9 21 22
f 10 23 24
f 10 24 25
f 10 25 11
f 14 26 15
f 14 17 26
f 16 27 17
f 17 27 28
f 17 28 29
f 17 29 30
f 17 30 26
f 18 31 19
f 19 31 32
f 19 32 33
f 19 33 20
f 20 33 21
f 21 33 49
f 21 49 34
f 21 34 35
f 21 35 22
f 23 36 24
f 23 37 38
f 23 38 36
f 26 30 39
f 27 40 41
f 27 41 28
f 28 41 42
f 28 42 29
f 29 42 43
f 29 43 44
f 29 44 45
f 29 45 30
f 30 45 39
f 31 46 32
f 32 46 47
f 32 47 33
f 33 47 48
f 33 48 69
f 33 69 49
f 34 49 50
f 34 50 51
f 34 51 35
f 35 51 52
f 36 38 53
f 36 53 54
f 37 55 56
f 37 56 54
f 37 54 38
f 37 57 55
f 38 54 53
f 39 58 59
f 39 45 60
f 39 60 58
f 40 61 62
f 40 62 41
f 41 62 64
f 41 64 42
f 42 63 43
f 42 64 65
f 42 65 63
f 43 63 86
f 43 86 66
f 43 66 44
f 44 66 60
f 44 60 45
f 47 67 48
f 48 67 68
f 48 68 69
f 49 69 70
f 49 70 50
f 50 70 71
f 50 71 96
f 50 96 72
f 50 72 73
f 50 73 51
f 51 73 52
f 52 73 74
f 55 57 75
f 55 75 56
f 56 75 76
f 56 76 77
f 56 77 78
f 57 79 78
f 57 78 77
f 57 77 75
f 58 80 59
f 58 60 80
f 60 81 68
f 60 68 80
f 60 66 81
f 61 82 62
f 62 83 84
f 62 84 85
f 62 85 64
f 62 82 83
f 63 65 87
f 63 87 86
f 64 85 65
f 65 85 84
f 65 84 88
f 65 88 89
f 65 89 90
f 65 90 87
f 66 86 91
f 66 91 92
f 66 92 93
f 66 93 81
f 67 94 68
f 68 94 95
f 68 95 80
f 68 81 69
f 69 81 70
f 70 93 92
f 70 92 71
f 70 81 93
f 71 92 91
f 71 91 96
f 72 96 111
f 72 111 97
f 72 97 98
f 72 98 73
f 73 98 99
f 73 99 74
f 75 77 76
f 78 79 100
f 78 100 101
f 79 102 116
f 79 116 100
f 82 103 104
f 82 104 83
f 83 104 105
f 83 105 84
f 84 105 106
f 84 106 107
f 84 107 89
f 84 89 88
f 86 87 91
f 87 108 91
f 87 90 108
f 89 107 109
f 89 109 110
f 89 110 108
f 89 108 90
f 91 108 111
f 91 111 96
f 97 111 112
f 97 112 126
f 97 126 113
f 97 113 98
f 98 113 129
f 98 129 114
f 98 114 115
f 98 115 99
f 100 116 117
f 100 117 118
f 100 118 101
f 102 119 120
f 102 120 116
f 103 121 104
f 104 121 122
f 104 122 105
f 105 122 106
f 106 122 107
f 107 122 123
f 107 123 109
f 108 110 124
f 108 124 111
f 109 123 125
f 109 125 110
f 110 125 124
f 111 124 112
f 112 124 125
f 112 125 127
f 112 127 126
f 113 126 128
f 113 128 129
f 116 120 130
f 116 130 117
f 117 130 131
f 117 131 132
f 117 132 133
f 117 133 118
f 118 133 134
f 119 135 136
f 119 136 120
f 120 136 137
f 120 137 130
f 121 138 122
f 122 138 139
f 122 139 123
f 123 139 132
f 123 132 140
f 123 140 127
f 123 127 125
f 126 127 136
f 126 136 128
f 127 140 137
f 127 137 136
f 128 136 135
f 130 137 131
f 131 137 140
f 131 140 132
f 132 139 134
f 132 134 133
f 134 139 138

