# https://github.com/mikedh/trimesh
v 0.05853244 0.01497314 0.04196887
v 0.06078589 0.00844784 0.04196887
v 0.05854533 0.00844784 0.04840102
v 0.05853244 0.01687502 0.04840102
v 0.05853244 0.02564218 0.04196887
v 0.07498631 0.00844784 0.04196887
v 0.07416805 0.00844784 0.04840102
v 0.05853244 0.02488311 0.04840102
v 0.05853244 0.02562871 0.04219303
v 0.05873539 0.02557485 0.04196887
v 0.07497021 0.00849834 0.04196887
v 0.07498470 0.00844784 0.04201861
v 0.07420187 0.00844784 0.04825431
v 0.07411167 0.00861447 0.04840102
v 0.05954077 0.02446907 0.04840102
v 0.05966802 0.02444214 0.04825431
v 0.05853244 0.02490835 0.04825431
v 0.05871445 0.02556812 0.04219303
v 0.05853244 0.02549407 0.04370867
v 0.05888519 0.02551426 0.04196887
v 0.07497504 0.00844784 0.04217981
v 0.07448214 0.00988014 0.04196887
v 0.07445476 0.00844784 0.04682683
v 0.07422926 0.00895445 0.04728587
v 0.07412778 0.00866328 0.04825431
v 0.07366388 0.00978926 0.04840102
v 0.05963741 0.02442868 0.04840102
v 0.06076656 0.02426373 0.04641439
v 0.05999500 0.02452461 0.04684698
v 0.05853244 0.02493360 0.04809437
v 0.06058937 0.02417116 0.04742439
v 0.05986131 0.02495380 0.04370867
v 0.05986131 0.02509854 0.04219303
v 0.05853244 0.02548902 0.04375904
v 0.05986131 0.02511201 0.04196887
v 0.07483168 0.00844784 0.04370867
v 0.07447248 0.00988856 0.04207277
v 0.07444993 0.00953848 0.04370867
v 0.07443544 0.01000637 0.04196887
v 0.07446926 0.00844784 0.04671916
v 0.07429369 0.00913117 0.04627586
v 0.07401020 0.00969837 0.04676386
v 0.07334012 0.01130571 0.04673868
v 0.07369771 0.00978926 0.04825431
v 0.07301636 0.01131076 0.04840102
v 0.06039608 0.02407018 0.04840102
v 0.06042669 0.02408533 0.04825431
v 0.06091797 0.02433611 0.04522304
v 0.05986131 0.02480064 0.04522304
v 0.06131421 0.02388672 0.04684698
v 0.06297974 0.02299133 0.04663604
v 0.06167502 0.02393217 0.04522304
v 0.06185059 0.02403989 0.04370867
v 0.05853244 0.02513052 0.04675127
v 0.06137703 0.02356021 0.04840102
v 0.06137703 0.02358882 0.04825431
v 0.06109354 0.02440680 0.04370867
v 0.06124817 0.02447243 0.04219303
v 0.06128200 0.02447075 0.04196887
v 0.05853244 0.02533249 0.04523123
v 0.07464966 0.00844784 0.04522304
v 0.07435812 0.00930116 0.04522304
v 0.07422120 0.01045912 0.04249780
v 0.07415677 0.01029586 0.04370867
v 0.07406657 0.01005855 0.04522304
v 0.07424214 0.01050961 0.04196887
v 0.07353985 0.01130571 0.04522304
v 0.07286978 0.01230546 0.04673868
v 0.07278924 0.01215062 0.04770145
v 0.07303246 0.01136630 0.04822534
v 0.07270709 0.01198399 0.04840102
v 0.06200523 0.02412236 0.04219303
v 0.05853244 0.02515745 0.04655166
v 0.06258832 0.02293074 0.04825431
v 0.06354189 0.02260253 0.04707240
v 0.06366753 0.02268164 0.04606177
v 0.06289275 0.02323874 0.04522304
v 0.06289275 0.02344071 0.04370867
v 0.06247073 0.02296608 0.04840102
v 0.06193757 0.02416780 0.04196887
v 0.07400536 0.01105325 0.04196887
v 0.07395060 0.01115928 0.04207277
v 0.07372187 0.01130571 0.04370867
v 0.07297287 0.01250238 0.04522304
v 0.07256857 0.01325977 0.04522304
v 0.07245582 0.01306284 0.04673868
v 0.07234306 0.01272118 0.04822534
v 0.07229635 0.01273296 0.04840102
v 0.06210509 0.02407860 0.04196887
v 0.06201972 0.02412909 0.04196887
v 0.06289275 0.02359555 0.04219303
v 0.06256094 0.02291559 0.04840102
v 0.06334538 0.02247462 0.04825431
v 0.06464848 0.02153210 0.04840102
v 0.06516876 0.02115677 0.04840102
v 0.06524768 0.02121568 0.04781039
v 0.06426673 0.02214979 0.04663604
v 0.06375290 0.02273382 0.04522304
v 0.06555050 0.02144794 0.04522304
v 0.06450995 0.02220533 0.04522304
v 0.06465975 0.02232314 0.04370867
v 0.06390270 0.02282807 0.04370867
v 0.07395060 0.01117443 0.04196887
v 0.07389905 0.01128383 0.04196887
v 0.07308079 0.01294840 0.04221885
v 0.07306468 0.01267405 0.04370867
v 0.07266199 0.01343144 0.04370867
v 0.07192749 0.01433694 0.04522304
v 0.07163111 0.01443792 0.04672797
v 0.07153929 0.01407606 0.04825431
v 0.07152319 0.01404913 0.04840102
v 0.06287182 0.02362248 0.04196887
v 0.06401706 0.02290044 0.04219303
v 0.06402995 0.02290886 0.04196887
v 0.06307155 0.02350130 0.04196887
v 0.06331961 0.02245442 0.04840102
v 0.06567292 0.02073768 0.04840102
v 0.06582111 0.02063838 0.04829083
v 0.06537493 0.02131161 0.04673868
v 0.06613359 0.02070234 0.04673868
v 0.06630756 0.02085382 0.04522304
v 0.06568580 0.02156576 0.04370867
v 0.06477573 0.02240393 0.04219303
v 0.07310817 0.01292820 0.04196887
v 0.07292132 0.01329511 0.04196887
v 0.07275864 0.01360648 0.04196887
v 0.07271998 0.01353916 0.04274085
v 0.07211111 0.01433694 0.04370867
v 0.07134117 0.01526936 0.04522304
v 0.07127352 0.01516501 0.04621604
v 0.07117043 0.01501185 0.04722668
v 0.07105285 0.01483344 0.04825431
v 0.07103513 0.01480651 0.04840102
v 0.06478700 0.02241403 0.04196887
v 0.06681011 0.01976318 0.04840102
v 0.06682944 0.01978001 0.04825431
v 0.06700663 0.01994327 0.04673868
v 0.06717092 0.02009643 0.04522304
v 0.06644286 0.02096322 0.04370867
v 0.06577762 0.02164655 0.04219303
v 0.06493681 0.02230126 0.04196887
v 0.07256857 0.01391448 0.04196887
v 0.07235917 0.01421407 0.04221885
v 0.07143299 0.01540401 0.04370867
v 0.07081284 0.01602675 0.04522304
v 0.07075486 0.01574399 0.04672797
v 0.07015565 0.01605872 0.04840102
v 0.06756717 0.01902094 0.04840102
v 0.06758650 0.01904114 0.04825431
v 0.06776368 0.01922460 0.04673868
v 0.06792798 0.01937944 0.04522304
v 0.06729012 0.02020583 0.04370867
v 0.06804878 0.01949052 0.04370867
v 0.06738515 0.02027820 0.04219303
v 0.06653468 0.02103559 0.04219303
v 0.06579050 0.02165496 0.04196887
v 0.06654756 0.02104569 0.04196887
v 0.07235595 0.01425110 0.04196887
v 0.07152157 0.01553360 0.04219303
v 0.07099647 0.01629099 0.04219303
v 0.07090466 0.01616139 0.04370867
v 0.07005579 0.01703491 0.04522304
v 0.06992048 0.01686660 0.04673868
v 0.06979323 0.01671008 0.04787084
v 0.06973364 0.01663602 0.04840102
v 0.06832745 0.01826524 0.04840102
v 0.06834517 0.01828375 0.04825431
v 0.06852396 0.01846721 0.04673868
v 0.06866892 0.01862205 0.04522304
v 0.06815671 0.01959992 0.04196887
v 0.06877524 0.01873314 0.04370867
v 0.06887510 0.01882739 0.04219303
v 0.06741737 0.02026979 0.04196887
v 0.07153124 0.01554707 0.04196887
v 0.07108184 0.01619337 0.04196887
v 0.07100452 0.01630445 0.04196887
v 0.07087888 0.01646940 0.04196887
v 0.07023780 0.01727391 0.04219303
v 0.07014760 0.01715441 0.04370867
v 0.06963216 0.01803298 0.04219303
v 0.06953229 0.01791179 0.04370867
v 0.06942759 0.01779061 0.04522304
v 0.06928263 0.01762231 0.04673868
v 0.06920692 0.01727391 0.04832735
v 0.06926974 0.01717965 0.04840102
v 0.06917954 0.01728401 0.04840102
v 0.06888960 0.01883749 0.04196887
v 0.06964665 0.01804812 0.04196887
v 0.07023136 0.01730757 0.04196887
f 1 2 3
f 1 3 4
f 1 4 8
f 1 8 17
f 1 17 30
f 1 30 54
f 1 54 73
f 1 73 60
f 1 60 34
f 1 34 19
f 1 19 9
f 1 9 5
f 1 5 10
f 1 10 20
f 1 20 35
f 1 35 59
f 1 59 80
f 1 80 90
f 1 90 89
f 1 89 112
f 1 112 115
f 1 115 114
f 1 114 134
f 1 134 141
f 1 141 156
f 1 156 157
f 1 157 173
f 1 173 170
f 1 170 187
f 1 187 188
f 1 188 189
f 1 189 177
f 1 177 176
f 1 176 175
f 1 175 174
f 1 174 158
f 1 158 142
f 1 142 126
f 1 126 125
f 1 125 124
f 1 124 104
f 1 104 103
f 1 103 81
f 1 81 66
f 1 66 39
f 1 39 22
f 1 22 11
f 1 11 6
f 1 6 2
f 2 6 12
f 2 12 21
f 2 21 36
f 2 36 61
f 2 61 40
f 2 40 23
f 2 23 13
f 2 13 7
f 2 7 3
f 3 7 14
f 3 14 26
f 3 26 45
f 3 45 71
f 3 71 88
f 3 88 111
f 3 111 133
f 3 133 147
f 3 147 165
f 3 165 185
f 3 185 186
f 3 186 166
f 3 166 148
f 3 148 135
f 3 135 117
f 3 117 95
f 3 95 94
f 3 94 116
f 3 116 92
f 3 92 79
f 3 79 55
f 3 55 46
f 3 46 27
f 3 27 15
f 3 15 8
f 3 8 4
f 5 9 10
f 6 11 12
f 7 13 14
f 8 15 16
f 8 16 17
f 9 18 10
f 9 19 18
f 10 18 20
f 11 21 12
f 11 22 21
f 13 23 24
f 13 24 25
f 13 25 14
f 14 25 26
f 15 27 16
f 16 28 29
f 16 29 30
f 16 30 17
f 16 27 31
f 16 31 28
f 18 19 32
f 18 32 33
f 18 33 20
f 19 34 32
f 20 33 35
f 21 22 37
f 21 37 38
f 21 38 36
f 22 39 37
f 23 40 24
f 24 41 42
f 24 42 43
f 24 43 44
f 24 44 25
f 24 40 41
f 25 44 26
f 26 44 45
f 27 46 47
f 27 47 31
f 28 48 49
f 28 49 29
f 28 31 50
f 28 50 51
f 28 51 52
f 28 52 53
f 28 53 48
f 29 49 54
f 29 54 30
f 31 47 55
f 31 55 56
f 31 56 50
f 32 34 49
f 32 49 48
f 32 48 57
f 32 57 33
f 33 57 58
f 33 58 59
f 33 59 35
f 34 60 49
f 36 38 62
f 36 62 41
f 36 41 61
f 37 39 63
f 37 63 38
f 38 63 64
f 38 64 65
f 38 65 62
f 39 66 63
f 40 61 41
f 41 62 65
f 41 65 42
f 42 65 43
f 43 67 68
f 43 68 69
f 43 69 70
f 43 70 44
f 43 65 67
f 44 70 45
f 45 70 71
f 46 55 47
f 48 53 72
f 48 72 57
f 49 60 73
f 49 73 54
f 50 56 74
f 50 74 75
f 50 75 51
f 51 75 76
f 51 76 52
f 52 76 77
f 52 77 53
f 53 77 76
f 53 76 78
f 53 78 72
f 55 79 56
f 56 79 74
f 57 72 58
f 58 72 80
f 58 80 59
f 63 66 81
f 63 81 82
f 63 82 83
f 63 83 64
f 64 83 67
f 64 67 65
f 67 83 84
f 67 84 68
f 68 84 85
f 68 85 86
f 68 86 69
f 69 71 70
f 69 86 87
f 69 87 88
f 69 88 71
f 72 89 90
f 72 90 80
f 72 78 91
f 72 91 89
f 74 79 92
f 74 92 93
f 74 93 75
f 75 93 94
f 75 94 95
f 75 95 96
f 75 96 97
f 75 97 76
f 76 98 78
f 76 97 99
f 76 99 100
f 76 100 101
f 76 101 98
f 78 98 102
f 78 102 91
f 81 103 82
f 82 103 104
f 82 104 105
f 82 105 83
f 83 105 106
f 83 106 84
f 84 106 107
f 84 107 85
f 85 107 108
f 85 108 86
f 86 108 109
f 86 109 110
f 86 110 87
f 87 110 111
f 87 111 88
f 89 91 112
f 91 102 113
f 91 113 114
f 91 114 115
f 91 115 112
f 92 116 93
f 93 116 94
f 95 117 118
f 95 118 96
f 96 119 97
f 96 118 120
f 96 120 121
f 96 121 119
f 97 119 99
f 98 101 102
f 99 122 101
f 99 101 100
f 99 119 121
f 99 121 122
f 101 122 123
f 101 123 102
f 102 123 113
f 104 124 105
f 105 124 125
f 105 125 126
f 105 126 127
f 105 127 106
f 106 127 107
f 107 127 108
f 108 128 129
f 108 129 130
f 108 130 109
f 108 127 128
f 109 130 131
f 109 131 110
f 110 131 132
f 110 132 111
f 111 132 133
f 113 123 134
f 113 134 114
f 117 135 118
f 118 135 136
f 118 136 120
f 120 136 137
f 120 137 121
f 121 137 138
f 121 138 139
f 121 139 122
f 122 140 123
f 122 139 140
f 123 140 141
f 123 141 134
f 126 142 143
f 126 143 127
f 127 143 128
f 128 143 144
f 128 144 129
f 129 144 161
f 129 161 145
f 129 145 130
f 130 145 146
f 130 146 131
f 131 146 147
f 131 147 132
f 132 147 133
f 135 148 149
f 135 149 136
f 136 149 150
f 136 150 137
f 137 150 151
f 137 151 138
f 138 152 139
f 138 151 153
f 138 153 152
f 139 152 154
f 139 154 155
f 139 155 140
f 140 156 141
f 140 155 157
f 140 157 156
f 142 158 143
f 143 158 159
f 143 159 144
f 144 159 160
f 144 160 161
f 145 161 162
f 145 162 163
f 145 163 146
f 146 163 164
f 146 164 165
f 146 165 147
f 148 166 149
f 149 167 168
f 149 168 150
f 149 166 167
f 150 168 151
f 151 168 169
f 151 169 153
f 152 153 170
f 152 170 154
f 153 169 171
f 153 171 172
f 153 172 170
f 154 170 173
f 154 173 157
f 154 157 155
f 158 174 159
f 159 174 160
f 160 174 175
f 160 175 176
f 160 176 177
f 160 177 178
f 160 178 179
f 160 179 162
f 160 162 161
f 162 179 180
f 162 180 181
f 162 181 182
f 162 182 163
f 163 182 183
f 163 183 164
f 164 183 165
f 165 183 184
f 165 184 185
f 166 186 184
f 166 184 183
f 166 183 167
f 167 183 168
f 168 183 182
f 168 182 169
f 169 182 181
f 169 181 180
f 169 180 171
f 170 172 187
f 171 180 188
f 171 188 172
f 172 188 187
f 177 189 178
f 178 189 188
f 178 188 180
f 178 180 179
f 184 186 185

