# https://github.com/mikedh/trimesh
v -0.06318944 -0.02375876 0.02704438
v -0.06419954 -0.02315170 0.02855961
v -0.06419823 -0.02314938 0.02400717
v -0.06419037 -0.02314243 0.01037006
v -0.06318944 -0.02374254 0.01037006
v -0.06318944 -0.02375644 0.03007485
v -0.06419692 -0.02315402 0.03159008
v -0.06495810 -0.02264660 0.02704438
v -0.06495679 -0.02264660 0.02552914
v -0.06495024 -0.02264196 0.01491577
v -0.06494762 -0.02263964 0.01037006
v -0.06494369 -0.02263733 0.00885483
v -0.06418513 -0.02313780 0.00885483
v -0.06318944 -0.02373558 0.00885483
v -0.06318944 -0.02375412 0.03159008
v -0.06418775 -0.02315170 0.03310532
v -0.06495417 -0.02264196 0.03159008
v -0.06495810 -0.02264428 0.02855961
v -0.06592366 -0.02193760 0.02704438
v -0.06592366 -0.02193760 0.02552914
v -0.06592366 -0.02193296 0.01946147
v -0.06592366 -0.02192601 0.01037006
v -0.06592366 -0.02191906 0.00885483
v -0.06491880 -0.02261879 0.00733959
v -0.06416155 -0.02312390 0.00733959
v -0.06318944 -0.02373095 0.00853158
v -0.06318944 -0.02374717 0.03278207
v -0.06318944 -0.02373790 0.03428383
v -0.06318944 -0.02373558 0.03462055
v -0.06417727 -0.02314707 0.03462055
v -0.06493582 -0.02263038 0.03462055
v -0.06592366 -0.02192601 0.03159008
v -0.06592366 -0.02193528 0.02855961
v -0.06673724 -0.02132591 0.02855961
v -0.06673986 -0.02132591 0.02704438
v -0.06673855 -0.02132591 0.02400717
v -0.06673462 -0.02132359 0.01643100
v -0.06673200 -0.02132127 0.01188529
v -0.06673200 -0.02131896 0.01037006
v -0.06672807 -0.02131664 0.00885483
v -0.06670711 -0.02129810 0.00733959
v -0.06592366 -0.02188199 0.00733959
v -0.06587649 -0.02180784 0.00430912
v -0.06484281 -0.02256550 0.00430912
v -0.06408425 -0.02307524 0.00430912
v -0.06318944 -0.02364754 0.00544723
v -0.06318944 -0.02365913 0.00582436
v -0.06318944 -0.02370315 0.00730592
v -0.06318944 -0.02370315 0.03606844
v -0.06415500 -0.02313317 0.03612905
v -0.06491355 -0.02261648 0.03612905
v -0.06592366 -0.02189357 0.03462055
v -0.06672021 -0.02130969 0.03310532
v -0.06672938 -0.02131896 0.03159008
v -0.06673462 -0.02132127 0.03007485
v -0.06748794 -0.02063081 0.03159008
v -0.06749580 -0.02062849 0.02855961
v -0.06749711 -0.02062849 0.02704438
v -0.06673593 -0.02132359 0.01794623
v -0.06749580 -0.02062849 0.02552914
v -0.06749318 -0.02062386 0.01794623
v -0.06748925 -0.02061922 0.01037006
v -0.06749056 -0.02062154 0.01340053
v -0.06748532 -0.02061459 0.00885483
v -0.06746436 -0.02059605 0.00733959
v -0.06668746 -0.02128188 0.00643718
v -0.06606384 -0.02172675 0.00589170
v -0.06663505 -0.02124018 0.00430912
v -0.06582540 -0.02176150 0.00279389
v -0.06479433 -0.02251916 0.00279389
v -0.06403708 -0.02304049 0.00279389
v -0.06318944 -0.02359425 0.00391180
v -0.06318944 -0.02361047 0.00430912
v -0.06318944 -0.02367534 0.03728736
v -0.06318944 -0.02366608 0.03764429
v -0.06411831 -0.02311000 0.03764429
v -0.06487687 -0.02259562 0.03764429
v -0.06589483 -0.02183796 0.03764429
v -0.06607170 -0.02174992 0.03619639
v -0.06669400 -0.02128883 0.03574519
v -0.06670711 -0.02129810 0.03462055
v -0.06746436 -0.02062617 0.03462055
v -0.06830414 -0.01986851 0.03462055
v -0.06830938 -0.01987083 0.03310532
v -0.06831200 -0.01987315 0.03159008
v -0.06830938 -0.01987083 0.02552914
v -0.06830021 -0.01986156 0.01037006
v -0.06829628 -0.01985693 0.00885483
v -0.06827663 -0.01983839 0.00733959
v -0.06821375 -0.01977815 0.00430912
v -0.06743815 -0.02049874 0.00430912
v -0.06819671 -0.01976193 0.00354140
v -0.06658265 -0.02118457 0.00279389
v -0.06388773 -0.02294549 0.00188475
v -0.06318944 -0.02347608 0.00252451
v -0.06318944 -0.02352937 0.00279389
v -0.06318944 -0.02360815 0.03915952
v -0.06407901 -0.02307756 0.03915952
v -0.06483626 -0.02257245 0.03915952
v -0.06585684 -0.02181479 0.03915952
v -0.06667566 -0.02127262 0.03674861
v -0.06729535 -0.02074434 0.03619639
v -0.06829235 -0.01985461 0.03612905
v -0.06904960 -0.01904135 0.03612905
v -0.06906270 -0.01905061 0.03462055
v -0.06906663 -0.01905988 0.03310532
v -0.06906925 -0.01906683 0.03159008
v -0.06906794 -0.01906915 0.02704438
v -0.06906663 -0.01906915 0.02552914
v -0.06906270 -0.01906452 0.01794623
v -0.06905877 -0.01905988 0.01037006
v -0.06905353 -0.01905525 0.00885483
v -0.06903388 -0.01903440 0.00733959
v -0.06894086 -0.01900427 0.00430912
v -0.06873779 -0.01913171 0.00294204
v -0.06815610 -0.01972023 0.00253125
v -0.06756655 -0.02029484 0.00294204
v -0.06968239 -0.01821186 0.00430912
v -0.06962998 -0.01816089 0.00279389
v -0.06558303 -0.02157846 0.00181740
v -0.06439868 -0.02206503 0.00168272
v -0.06318944 -0.02298719 0.00174332
v -0.06318944 -0.02313548 0.00179720
v -0.06318944 -0.02351547 0.04067475
v -0.06400826 -0.02302427 0.04067475
v -0.06476682 -0.02252843 0.04067475
v -0.06579657 -0.02177077 0.04067475
v -0.06661540 -0.02122164 0.03915952
v -0.06743815 -0.02055898 0.03764429
v -0.06826091 -0.01982449 0.03764429
v -0.06915572 -0.01886525 0.03775204
v -0.06973086 -0.01826747 0.03732104
v -0.06974527 -0.01828369 0.03612905
v -0.06975444 -0.01829296 0.03462055
v -0.06976231 -0.01830222 0.03310532
v -0.06976754 -0.01830917 0.03159008
v -0.06976885 -0.01831149 0.02704438
v -0.06976885 -0.01831149 0.02552914
v -0.06976231 -0.01830454 0.01340053
v -0.06976100 -0.01830222 0.01037006
v -0.06975707 -0.01829759 0.00885483
v -0.06974003 -0.01827674 0.00733959
v -0.06970204 -0.01823503 0.00533275
v -0.06913869 -0.01885830 0.00583109
v -0.07004267 -0.01715531 0.00181740
v -0.06862250 -0.01871002 0.00181740
v -0.06714600 -0.02017899 0.00181740
v -0.07029945 -0.01745420 0.00430912
v -0.07024705 -0.01740323 0.00279389
v -0.07143401 -0.01551487 0.00185108
v -0.06602192 -0.02061922 0.00164231
v -0.06318944 -0.02203954 0.00148069
v -0.06318944 -0.02344133 0.04178593
v -0.06318944 -0.02341121 0.04218999
v -0.06392049 -0.02296403 0.04218999
v -0.06467904 -0.02246355 0.04218999
v -0.06570487 -0.02170589 0.04218999
v -0.06655382 -0.02117067 0.04067475
v -0.06756393 -0.02028557 0.04053333
v -0.06819802 -0.01976425 0.03994071
v -0.06743815 -0.02048715 0.03915952
v -0.06822029 -0.01978510 0.03915952
v -0.06895658 -0.01900427 0.03915952
v -0.06969156 -0.01822113 0.03915952
v -0.07038461 -0.01748896 0.03612905
v -0.07021430 -0.01763724 0.03775204
v -0.07041867 -0.01748896 0.03310532
v -0.07042915 -0.01748896 0.03159008
v -0.07043570 -0.01748896 0.02704438
v -0.07041998 -0.01748896 0.01037006
v -0.07041343 -0.01748896 0.00885483
v -0.07037937 -0.01748896 0.00733959
v -0.07051562 -0.01600144 0.00166251
v -0.06905746 -0.01759322 0.00164231
v -0.06756655 -0.01913171 0.00164231
v -0.07105670 -0.01649728 0.00430912
v -0.07100561 -0.01645094 0.00279389
v -0.07294851 -0.01294069 0.00185781
v -0.07195675 -0.01432162 0.00178373
v -0.07155848 -0.01569328 0.00279389
v -0.07275724 -0.01372615 0.00201943
v -0.06440785 -0.02051959 0.00137967
v -0.06318944 -0.02173601 0.00142008
v -0.06318944 -0.02326523 0.04370522
v -0.06380519 -0.02288988 0.04370522
v -0.06456375 -0.02238478 0.04370522
v -0.06561185 -0.02162712 0.04370522
v -0.06636910 -0.02102470 0.04370522
v -0.06646342 -0.02109653 0.04218999
v -0.06722853 -0.02026704 0.04370522
v -0.06732155 -0.02033887 0.04218999
v -0.06815217 -0.01971791 0.04095086
v -0.06875613 -0.01912939 0.04053333
v -0.06965225 -0.01817711 0.04067475
v -0.07025491 -0.01741945 0.04067475
v -0.07029028 -0.01746347 0.03915952
v -0.07108421 -0.01653899 0.03764429
v -0.07110780 -0.01657143 0.03612905
v -0.07112614 -0.01659460 0.03310532
v -0.07113138 -0.01660155 0.03159008
v -0.07113400 -0.01660386 0.02855961
v -0.07113531 -0.01660386 0.02704438
v -0.07113531 -0.01660386 0.02552914
v -0.07113138 -0.01659923 0.01643100
v -0.07112876 -0.01659460 0.01037006
v -0.07112483 -0.01658996 0.00885483
v -0.07110911 -0.01656679 0.00733959
v -0.07198426 -0.01294069 0.00153456
v -0.07046846 -0.01445601 0.00140661
v -0.06895396 -0.01597364 0.00137967
v -0.06592366 -0.01900427 0.00137967
v -0.07159123 -0.01573962 0.00430912
v -0.07350400 -0.01128172 0.00177026
v -0.07426125 -0.01067930 0.00203290
v -0.07440405 -0.00991237 0.00189148
v -0.07231703 -0.01452552 0.00279389
v -0.07278082 -0.01376786 0.00279389
v -0.07320137 -0.01294069 0.00279389
v -0.06318944 -0.02051959 0.00137967
v -0.06592366 -0.01294069 0.00137293
v -0.06318944 -0.02304512 0.04538208
v -0.06359689 -0.02276013 0.04573227
v -0.06370431 -0.02282501 0.04472211
v -0.06428863 -0.02235465 0.04522719
v -0.06547429 -0.02151127 0.04522046
v -0.06623285 -0.02091580 0.04522046
v -0.06710800 -0.02015814 0.04522046
v -0.06798578 -0.01955109 0.04370522
v -0.06807880 -0.01964608 0.04218999
v -0.06786656 -0.01944219 0.04522046
v -0.06882033 -0.01888842 0.04218999
v -0.06957889 -0.01809138 0.04218999
v -0.07019071 -0.01733372 0.04218999
v -0.07101216 -0.01643936 0.04067475
v -0.07161743 -0.01578133 0.03764429
v -0.07163971 -0.01581377 0.03612905
v -0.07165936 -0.01583694 0.03310532
v -0.07166329 -0.01584389 0.03159008
v -0.07166460 -0.01584621 0.02855961
v -0.07166460 -0.01584621 0.02552914
v -0.07165936 -0.01583925 0.01340053
v -0.07165805 -0.01583694 0.01037006
v -0.07165412 -0.01583230 0.00885483
v -0.07163971 -0.01580913 0.00733959
v -0.07161612 -0.01577438 0.00582436
v -0.07349876 -0.00991237 0.00156150
v -0.07349876 -0.00839705 0.00139987
v -0.07198426 -0.01142769 0.00137967
v -0.07239695 -0.01464832 0.00733959
v -0.07234979 -0.01457186 0.00430912
v -0.07463071 -0.00839705 0.00172986
v -0.07585698 -0.00501887 0.00193189
v -0.07391931 -0.01147635 0.00279389
v -0.07395992 -0.01153195 0.00430912
v -0.07427697 -0.01071637 0.00279389
v -0.07458485 -0.00991237 0.00279389
v -0.07507483 -0.00839705 0.00279389
v -0.07280833 -0.01381420 0.00430912
v -0.07326818 -0.01294069 0.00430912
v -0.06318944 -0.01415943 0.00137967
v -0.07349876 -0.00688174 0.00137967
v -0.07349876 -0.00008830 0.00137967
v -0.06592366 -0.00008830 0.00137967
v -0.06318944 -0.02285744 0.04673569
v -0.06348159 -0.02268830 0.04673569
v -0.06440785 -0.02203259 0.04673569
v -0.06519654 -0.02130042 0.04761116
v -0.06605598 -0.02076056 0.04673569
v -0.06694162 -0.02000290 0.04673569
v -0.06769887 -0.01928926 0.04673569
v -0.06872207 -0.01879343 0.04370522
v -0.06861595 -0.01868221 0.04522046
v -0.06847315 -0.01853161 0.04673569
v -0.06947932 -0.01797089 0.04370522
v -0.07000730 -0.01709275 0.04522046
v -0.07010031 -0.01721323 0.04370522
v -0.07094796 -0.01635131 0.04218999
v -0.07148249 -0.01559365 0.04218999
v -0.07154276 -0.01568170 0.04067475
v -0.07237468 -0.01462515 0.03764429
v -0.07239695 -0.01465759 0.03612905
v -0.07241660 -0.01468075 0.03310532
v -0.07242054 -0.01468771 0.03159008
v -0.07242185 -0.01469002 0.02704438
v -0.07241529 -0.01467844 0.01037006
v -0.07241136 -0.01467149 0.00885483
v -0.07501457 -0.00385110 0.00150762
v -0.07501457 -0.00233579 0.00144701
v -0.07501457 -0.00082047 0.00140661
v -0.07285419 -0.01389066 0.00733959
v -0.07594475 -0.00385110 0.00183761
v -0.07574037 -0.00604530 0.00279389
v -0.07591331 -0.00528764 0.00279389
v -0.07614914 -0.00385110 0.00279389
v -0.07630635 -0.00233579 0.00279389
v -0.07400316 -0.01162695 0.00733959
v -0.07430187 -0.01077430 0.00430912
v -0.07463988 -0.00991237 0.00430912
v -0.07516523 -0.00839705 0.00430912
v -0.07335727 -0.01294069 0.00733959
v -0.06318944 -0.01250509 0.00158843
v -0.06444584 -0.00008830 0.00170965
v -0.07501457 -0.00008830 0.00140661
v -0.06318944 -0.02257940 0.04825093
v -0.06325101 -0.02254233 0.04825093
v -0.06449432 -0.02169663 0.04817012
v -0.06505767 -0.02119847 0.04862132
v -0.06593807 -0.02053349 0.04830480
v -0.06667828 -0.01975962 0.04899844
v -0.06937451 -0.01785041 0.04522046
v -0.06829497 -0.01834856 0.04825093
v -0.06923040 -0.01768822 0.04673569
v -0.06987629 -0.01692824 0.04673569
v -0.07076454 -0.01608717 0.04522046
v -0.07085756 -0.01621924 0.04370522
v -0.07139340 -0.01546158 0.04370522
v -0.07203929 -0.01445601 0.04370522
v -0.07231441 -0.01431235 0.04207550
v -0.07230132 -0.01450466 0.04067475
v -0.07233800 -0.01456954 0.03915952
v -0.07280833 -0.01381188 0.03915952
v -0.07284108 -0.01386749 0.03764429
v -0.07285942 -0.01389993 0.03612905
v -0.07286729 -0.01391151 0.03462055
v -0.07287384 -0.01392310 0.03310532
v -0.07287777 -0.01393005 0.03159008
v -0.07287777 -0.01393236 0.02704438
v -0.07287122 -0.01392078 0.01037006
v -0.07286729 -0.01391383 0.00885483
v -0.07602205 -0.00233579 0.00177026
v -0.07606660 -0.00082047 0.00173659
v -0.07606791 -0.00008830 0.00173659
v -0.07338478 -0.01294069 0.00885483
v -0.07577051 -0.00611481 0.00362895
v -0.07591069 -0.00551239 0.00420137
v -0.07598275 -0.00536642 0.00582436
v -0.07619892 -0.00385110 0.00430912
v -0.07636137 -0.00233579 0.00430912
v -0.07639937 -0.00082047 0.00279389
v -0.07645832 -0.00082047 0.00430912
v -0.07401626 -0.01165707 0.00885483
v -0.07434379 -0.01086929 0.00733959
v -0.07472110 -0.00991237 0.00733959
v -0.07562246 -0.00675662 0.00420137
v -0.07524646 -0.00839705 0.00733959
v -0.07562509 -0.00706478 0.00733959
v -0.07560543 -0.00698600 0.00582436
v -0.06318944 -0.01153427 0.00173659
v -0.06376982 -0.00008830 0.00279389
v -0.06318944 -0.02252611 0.04847990
v -0.06318944 -0.02219015 0.04983351
v -0.06410521 -0.02159236 0.04976616
v -0.06486246 -0.02105018 0.04976616
v -0.06578741 -0.02029252 0.04976616
v -0.06820195 -0.01825125 0.04903212
v -0.06654465 -0.01964145 0.04976616
v -0.06750497 -0.01876099 0.04962474
v -0.06914786 -0.01737542 0.04823746
v -0.06976492 -0.01679386 0.04772565
v -0.07070297 -0.01583925 0.04664815
v -0.07124667 -0.01524610 0.04608246
v -0.07130169 -0.01532720 0.04522046
v -0.07263015 -0.01349445 0.04370522
v -0.07269828 -0.01361957 0.04250650
v -0.07185457 -0.01445601 0.04522046
v -0.07274675 -0.01370993 0.04149635
v -0.07276903 -0.01374700 0.04067475
v -0.07326425 -0.01294069 0.03915952
v -0.07332845 -0.01294069 0.03764429
v -0.07336513 -0.01294069 0.03612905
v -0.07339526 -0.01294069 0.03310532
v -0.07340182 -0.01294069 0.03159008
v -0.07340443 -0.01294069 0.02704438
v -0.07339133 -0.01294069 0.01037006
v -0.07622905 -0.00008830 0.00224840
v -0.07578361 -0.00616810 0.00463911
v -0.07602074 -0.00536642 0.00733959
v -0.07627490 -0.00385110 0.00733959
v -0.07639937 -0.00233579 0.00582436
v -0.07640068 -0.00008830 0.00279389
v -0.07651466 -0.00008830 0.00655840
v -0.07649632 -0.00008830 0.00582436
v -0.07645832 -0.00008830 0.00430912
v -0.07653169 -0.00082047 0.00733959
v -0.07435689 -0.01089710 0.00885483
v -0.07401888 -0.01166171 0.01037006
v -0.07435951 -0.01090405 0.01037006
v -0.07474731 -0.00991237 0.00885483
v -0.07527135 -0.00839705 0.00885483
v -0.07563819 -0.00711112 0.00885483
v -0.07581767 -0.00630712 0.00733959
v -0.06318944 -0.01145549 0.00178373
v -0.06374886 -0.00008830 0.00315081
v -0.06318944 -0.01072564 0.00223493
v -0.06318944 -0.02181711 0.05128140
v -0.06366894 -0.02129115 0.05208279
v -0.06382092 -0.02139542 0.05128140
v -0.06457816 -0.02081617 0.05128140
v -0.06551097 -0.02005851 0.05128140
v -0.06964963 -0.01665020 0.04873580
v -0.06805522 -0.01809369 0.05004227
v -0.06865525 -0.01754920 0.04962474
v -0.06626822 -0.01939353 0.05128140
v -0.06708180 -0.01863587 0.05128140
v -0.07018023 -0.01607559 0.04823746
v -0.07114448 -0.01509550 0.04709262
v -0.07158861 -0.01453710 0.04664815
v -0.07303498 -0.01273679 0.04370522
v -0.07253583 -0.01332299 0.04522046
v -0.07294458 -0.01256533 0.04522046
v -0.07304284 -0.01304495 0.04207550
v -0.07319088 -0.01294069 0.04067475
v -0.07395468 -0.01150647 0.03915952
v -0.07398613 -0.01158061 0.03764429
v -0.07400447 -0.01162000 0.03612905
v -0.07402019 -0.01165939 0.03310532
v -0.07402412 -0.01166866 0.03159008
v -0.07402412 -0.01167561 0.02855961
v -0.07402543 -0.01167561 0.02704438
v -0.07402412 -0.01167329 0.02249194
v -0.07402281 -0.01167097 0.01946147
v -0.07604432 -0.00536642 0.00885483
v -0.07629849 -0.00385110 0.00885483
v -0.07643605 -0.00233579 0.00733959
v -0.07653300 -0.00008830 0.00733959
v -0.07655527 -0.00082047 0.00885483
v -0.07654479 -0.00008830 0.00807364
v -0.07475255 -0.00991237 0.01037006
v -0.07436213 -0.01090868 0.01643100
v -0.07475910 -0.00991237 0.01794623
v -0.07527659 -0.00839705 0.01037006
v -0.07564081 -0.00712271 0.01037006
v -0.07582947 -0.00635346 0.00885483
v -0.06371480 -0.00008830 0.00430912
v -0.06318944 -0.01045687 0.00279389
v -0.06318944 -0.02147883 0.05244644
v -0.06318944 -0.02132359 0.05291112
v -0.06341347 -0.02111506 0.05309294
v -0.06509959 -0.01970864 0.05339599
v -0.06529873 -0.01987546 0.05238583
v -0.06952255 -0.01648801 0.04976616
v -0.07008066 -0.01573036 0.04976616
v -0.06784036 -0.01786431 0.05128140
v -0.06853210 -0.01710665 0.05128140
v -0.06597868 -0.01906220 0.05294479
v -0.06685253 -0.01841576 0.05248685
v -0.07101609 -0.01489855 0.04825093
v -0.07150607 -0.01414089 0.04825093
v -0.07242185 -0.01312605 0.04673569
v -0.07367039 -0.01142769 0.04370522
v -0.07382236 -0.01142769 0.04218999
v -0.07283977 -0.01236839 0.04673569
v -0.07348828 -0.01142769 0.04522046
v -0.07397957 -0.01129099 0.04064782
v -0.07429007 -0.01074881 0.03915952
v -0.07432283 -0.01082295 0.03764429
v -0.07433986 -0.01086234 0.03612905
v -0.07434903 -0.01088319 0.03462055
v -0.07435820 -0.01090173 0.03310532
v -0.07436213 -0.01091100 0.03159008
v -0.07436475 -0.01091795 0.02855961
v -0.07436606 -0.01091795 0.02704438
v -0.07604956 -0.00536642 0.01037006
v -0.07645963 -0.00233579 0.00885483
v -0.07630373 -0.00385110 0.01037006
v -0.07656051 -0.00082047 0.01037006
v -0.07655920 -0.00008830 0.00958887
v -0.07655658 -0.00008830 0.00885483
v -0.07476565 -0.00991237 0.02704438
v -0.07527922 -0.00839705 0.01340053
v -0.07564212 -0.00712734 0.01340053
v -0.07583339 -0.00636736 0.01188529
v -0.07583208 -0.00636505 0.01037006
v -0.06318944 -0.00008830 0.02505774
v -0.06318944 -0.02104092 0.05368557
v -0.06318944 -0.02074434 0.05441962
v -0.06409866 -0.02010948 0.05431187
v -0.06665732 -0.01822113 0.05349701
v -0.06485591 -0.01950938 0.05431187
v -0.06570880 -0.01875172 0.05431187
v -0.06928935 -0.01618912 0.05128140
v -0.06986842 -0.01543146 0.05128140
v -0.07083791 -0.01462051 0.04976616
v -0.06749580 -0.01754920 0.05294479
v -0.06813907 -0.01666179 0.05340946
v -0.06832773 -0.01687727 0.05239257
v -0.07230525 -0.01282020 0.04817012
v -0.07132790 -0.01386285 0.04976616
v -0.07276772 -0.01223169 0.04761116
v -0.07413417 -0.01036419 0.04370522
v -0.07420754 -0.01054955 0.04218999
v -0.07424422 -0.01063759 0.04113943
v -0.07328391 -0.01142769 0.04673569
v -0.07404377 -0.01013017 0.04522046
v -0.07462022 -0.00991237 0.03915952
v -0.07468311 -0.00991237 0.03764429
v -0.07471717 -0.00991237 0.03612905
v -0.07475124 -0.00991237 0.03310532
v -0.07473421 -0.00991237 0.03462055
v -0.07475910 -0.00991237 0.03159008
v -0.07476434 -0.00991237 0.02855961
v -0.07605481 -0.00536642 0.01643100
v -0.07646487 -0.00233579 0.01037006
v -0.07630896 -0.00385110 0.01643100
v -0.07656182 -0.00008830 0.01037006
v -0.07656313 -0.00082047 0.01340053
v -0.07528838 -0.00839705 0.02704438
v -0.07528445 -0.00839705 0.02097670
v -0.07564605 -0.00714356 0.02552914
v -0.07564342 -0.00713429 0.01794623
v -0.07583601 -0.00637895 0.01946147
v -0.06318944 -0.00008830 0.07017132
v -0.06318944 -0.02026936 0.05554426
v -0.06380913 -0.01988473 0.05535570
v -0.06646736 -0.01803809 0.05431187
v -0.06719578 -0.01728043 0.05431187
v -0.06352352 -0.01966230 0.05636585
v -0.06446680 -0.01906452 0.05593485
v -0.06540878 -0.01846673 0.05550385
v -0.06973217 -0.01524147 0.05209626
v -0.07066105 -0.01431467 0.05114671
v -0.07123488 -0.01371457 0.05055409
v -0.06795434 -0.01643936 0.05431187
v -0.06855437 -0.01568170 0.05431187
v -0.07185849 -0.01294069 0.04976616
v -0.07264980 -0.01199072 0.04862132
v -0.07299830 -0.01146476 0.04817012
v -0.07443157 -0.00960421 0.04370522
v -0.07450493 -0.00979189 0.04218999
v -0.07449708 -0.01004444 0.04064782
v -0.07365205 -0.00991237 0.04825093
v -0.07398089 -0.00980116 0.04670202
v -0.07428222 -0.00922191 0.04617001
v -0.07433986 -0.00937251 0.04522046
v -0.07508270 -0.00839705 0.04067475
v -0.07515475 -0.00839705 0.03915952
v -0.07521371 -0.00839705 0.03764429
v -0.07524646 -0.00839705 0.03612905
v -0.07526218 -0.00839705 0.03462055
v -0.07527790 -0.00839705 0.03310532
v -0.07528445 -0.00839705 0.03159008
v -0.07605874 -0.00536642 0.02249194
v -0.07646749 -0.00233579 0.01340053
v -0.07631289 -0.00385110 0.02249194
v -0.07647273 -0.00233579 0.02097670
v -0.07656444 -0.00008830 0.01340053
v -0.07656837 -0.00082047 0.02097670
v -0.07656706 -0.00008830 0.01716505
v -0.07564605 -0.00714356 0.02855961
v -0.07564605 -0.00714588 0.02704438
v -0.07583863 -0.00638822 0.02704438
v -0.06339644 -0.00008830 0.07000296
v -0.06339513 -0.00082047 0.07000296
v -0.06318944 -0.00082047 0.07016459
v -0.06318944 -0.02019521 0.05571935
v -0.06318944 -0.02004924 0.05605607
v -0.06692066 -0.01698153 0.05551732
v -0.06318944 -0.01944450 0.05734234
v -0.06320778 -0.01943060 0.05734234
v -0.06413010 -0.01867294 0.05734234
v -0.06512448 -0.01820723 0.05651401
v -0.06602846 -0.01759322 0.05601566
v -0.06954221 -0.01497270 0.05310641
v -0.07004791 -0.01446296 0.05267541
v -0.07108683 -0.01347360 0.05156424
v -0.07150607 -0.01295691 0.05114671
v -0.06833951 -0.01539903 0.05536916
v -0.06938237 -0.01446296 0.05443982
v -0.07251486 -0.01170805 0.04976616
v -0.07276903 -0.01073027 0.05064163
v -0.07286991 -0.01095039 0.04976616
v -0.07485474 -0.00839705 0.04370522
v -0.07499623 -0.00839705 0.04218999
v -0.07410797 -0.00872607 0.04825093
v -0.07421540 -0.00903655 0.04718016
v -0.07330356 -0.00991237 0.04976616
v -0.07446432 -0.00847815 0.04670202
v -0.07467263 -0.00839705 0.04522046
v -0.07542857 -0.00688174 0.04218999
v -0.07551242 -0.00688174 0.04067475
v -0.07561330 -0.00675894 0.03915952
v -0.07561068 -0.00699527 0.03764429
v -0.07562640 -0.00705551 0.03612905
v -0.07563426 -0.00709027 0.03462055
v -0.07564212 -0.00712271 0.03310532
v -0.07564474 -0.00713661 0.03159008
v -0.07606136 -0.00536642 0.02704438
v -0.07631552 -0.00385110 0.02704438
v -0.07647666 -0.00233579 0.02704438
v -0.07657230 -0.00082047 0.02704438
v -0.07657099 -0.00008830 0.02322599
v -0.07606136 -0.00536642 0.02855961
v -0.07583601 -0.00637895 0.03159008
v -0.06422181 -0.00008830 0.06924198
v -0.06331652 -0.00233579 0.06992889
v -0.06318944 -0.00233579 0.07003664
v -0.06422050 -0.00082047 0.06924198
v -0.06414583 -0.00233579 0.06917464
v -0.06664946 -0.01669423 0.05652748
v -0.06750366 -0.01604778 0.05594832
v -0.06318944 -0.01940975 0.05740968
v -0.06382747 -0.01840881 0.05835249
v -0.06488866 -0.01798016 0.05734234
v -0.06566032 -0.01722250 0.05734234
v -0.06988676 -0.01396249 0.05401555
v -0.07092962 -0.01295691 0.05291112
v -0.07138947 -0.01246339 0.05248012
v -0.07235372 -0.01131184 0.05120059
v -0.06969549 -0.01367286 0.05502571
v -0.06808797 -0.01507464 0.05637932
v -0.06873517 -0.01452552 0.05585404
v -0.07264718 -0.01044992 0.05165179
v -0.07296423 -0.00993322 0.05120059
v -0.07529100 -0.00688174 0.04370522
v -0.07511152 -0.00688174 0.04522046
v -0.07352235 -0.00839705 0.05128140
v -0.07393896 -0.00827657 0.04966515
v -0.07427435 -0.00769269 0.04908599
v -0.07436737 -0.00796841 0.04825093
v -0.07492941 -0.00688174 0.04673569
v -0.07569452 -0.00575799 0.04218999
v -0.07573645 -0.00595494 0.04067475
v -0.07576134 -0.00607079 0.03966460
v -0.07578361 -0.00617274 0.03865444
v -0.07580064 -0.00623761 0.03764429
v -0.07581505 -0.00629785 0.03612905
v -0.07582423 -0.00633261 0.03462055
v -0.07583208 -0.00636505 0.03310532
v -0.07631552 -0.00385110 0.02855961
v -0.07647666 -0.00233579 0.02855961
v -0.07657230 -0.00008830 0.02928692
v -0.07657230 -0.00008830 0.02552914
v -0.07656837 -0.00082047 0.03159008
v -0.07605743 -0.00536642 0.03159008
v -0.07631289 -0.00385110 0.03159008
v -0.06461354 -0.00008830 0.06887832
v -0.06318944 -0.00385110 0.06979420
v -0.06401219 -0.00385110 0.06904668
v -0.06579133 -0.00082047 0.06778062
v -0.06490439 -0.00233579 0.06846753
v -0.06558565 -0.00385110 0.06758532
v -0.06535245 -0.01692129 0.05841310
v -0.06641757 -0.01642545 0.05734234
v -0.06679488 -0.01535037 0.05830535
v -0.06706346 -0.01566780 0.05734234
v -0.06318944 -0.01875172 0.05860840
v -0.06318944 -0.01842966 0.05912021
v -0.06344753 -0.01807284 0.05936265
v -0.06402399 -0.01706263 0.06008996
v -0.06503408 -0.01659691 0.05942326
v -0.07027718 -0.01307739 0.05443982
v -0.07120081 -0.01213669 0.05349027
v -0.07170652 -0.01155049 0.05291112
v -0.06951993 -0.01341104 0.05582710
v -0.06999289 -0.01265338 0.05582710
v -0.06650535 -0.01499587 0.05931551
v -0.06716827 -0.01447686 0.05883063
v -0.06788752 -0.01452552 0.05747702
v -0.06846267 -0.01406443 0.05706623
v -0.07247949 -0.00993322 0.05284377
v -0.07285419 -0.00943970 0.05236563
v -0.07564342 -0.00532703 0.04375236
v -0.07546001 -0.00536642 0.04522046
v -0.07305725 -0.00844803 0.05284377
v -0.07356165 -0.00688174 0.05279663
v -0.07401757 -0.00680759 0.05121405
v -0.07415906 -0.00726172 0.05009615
v -0.07467001 -0.00688174 0.04825093
v -0.07437523 -0.00680759 0.04966515
v -0.07502374 -0.00536642 0.04825093
v -0.07527790 -0.00536642 0.04673569
v -0.07585305 -0.00500033 0.04218999
v -0.07581112 -0.00479644 0.04327422
v -0.07589366 -0.00519728 0.04067475
v -0.07590545 -0.00548459 0.03915952
v -0.07598668 -0.00536642 0.03764429
v -0.07601550 -0.00536642 0.03612905
v -0.07603384 -0.00536642 0.03462055
v -0.07604956 -0.00536642 0.03310532
v -0.07647535 -0.00233579 0.03007485
v -0.07657099 -0.00008830 0.03080216
v -0.07647273 -0.00233579 0.03159008
v -0.07656182 -0.00082047 0.03310532
v -0.07656968 -0.00008830 0.03159008
v -0.07630635 -0.00385110 0.03310532
v -0.06579264 -0.00008830 0.06778062
v -0.06318944 -0.00388122 0.06978746
v -0.06380257 -0.00536642 0.06885138
v -0.06456113 -0.00536642 0.06815101
v -0.06654859 -0.00082047 0.06706004
v -0.06571666 -0.00233579 0.06770654
v -0.06537734 -0.00536642 0.06739003
v -0.06647522 -0.00233579 0.06697923
v -0.06634289 -0.00385110 0.06684454
v -0.06592890 -0.01597364 0.05886430
v -0.06318944 -0.01778785 0.06009670
v -0.06318944 -0.01737079 0.06069606
v -0.06362571 -0.01670581 0.06110012
v -0.06457293 -0.01614741 0.06058157
v -0.06549525 -0.01558670 0.06006302
v -0.07104491 -0.01182853 0.05431187
v -0.07126370 -0.01074649 0.05517387
v -0.07142354 -0.01107087 0.05431187
v -0.06980030 -0.01232900 0.05674971
v -0.07075275 -0.01132342 0.05573955
v -0.06602323 -0.01457417 0.06050749
v -0.06688790 -0.01398566 0.05994181
v -0.06818230 -0.01367749 0.05807638
v -0.06899195 -0.01300325 0.05741641
v -0.07267732 -0.00898557 0.05337579
v -0.07194496 -0.00991237 0.05431187
v -0.07286466 -0.00797536 0.05388760
v -0.07301533 -0.00689332 0.05435901
v -0.07341491 -0.00536642 0.05431187
v -0.07398089 -0.00528301 0.05269562
v -0.07417216 -0.00573251 0.05167199
v -0.07428876 -0.00625151 0.05066183
v -0.07529494 -0.00385110 0.04825093
v -0.07468835 -0.00536642 0.04976616
v -0.07496348 -0.00385110 0.04976616
v -0.07554255 -0.00385110 0.04673569
v -0.07575086 -0.00445584 0.04428438
v -0.07603777 -0.00385110 0.04218999
v -0.07611638 -0.00385110 0.04067475
v -0.07589104 -0.00391135 0.04375236
v -0.07618844 -0.00385110 0.03915952
v -0.07624346 -0.00385110 0.03764429
v -0.07627228 -0.00385110 0.03612905
v -0.07629063 -0.00385110 0.03462055
v -0.07646618 -0.00233579 0.03310532
v -0.07656313 -0.00008830 0.03310532
v -0.07645177 -0.00233579 0.03462055
v -0.07654610 -0.00082047 0.03462055
v -0.06654989 -0.00008830 0.06706004
v -0.06318944 -0.00542203 0.06939013
v -0.06367025 -0.00617737 0.06873017
v -0.06522667 -0.00628163 0.06724860
v -0.06688528 -0.00008830 0.06666945
v -0.06719709 -0.00082047 0.06629906
v -0.06713290 -0.00233579 0.06622498
v -0.06613590 -0.00536642 0.06662231
v -0.06701630 -0.00385110 0.06608356
v -0.06683550 -0.00536642 0.06586806
v -0.06318944 -0.01649728 0.06188804
v -0.06331390 -0.01638143 0.06188804
v -0.06404102 -0.01562377 0.06188804
v -0.06512056 -0.01516501 0.06107318
v -0.07106980 -0.01031785 0.05618402
v -0.07143795 -0.00985213 0.05573955
v -0.06952255 -0.01184011 0.05775987
v -0.07002564 -0.01137208 0.05729520
v -0.06823209 -0.01223864 0.05967916
v -0.06655120 -0.01352921 0.06095196
v -0.06740802 -0.01288508 0.06031220
v -0.06796220 -0.01334616 0.05885757
v -0.07128859 -0.00930764 0.05672277
v -0.07198164 -0.00839705 0.05582710
v -0.07251355 -0.00844803 0.05435901
v -0.07267732 -0.00740770 0.05489776
v -0.07281488 -0.00639517 0.05526815
v -0.07262753 -0.00562129 0.05627830
v -0.07274151 -0.00461108 0.05658809
v -0.07370707 -0.00385110 0.05431187
v -0.07412238 -0.00385110 0.05311315
v -0.07428091 -0.00472229 0.05212319
v -0.07437392 -0.00528301 0.05121405
v -0.07546525 -0.00233579 0.04825093
v -0.07570500 -0.00240761 0.04673569
v -0.07513772 -0.00233579 0.04976616
v -0.07461630 -0.00385110 0.05128140
v -0.07479316 -0.00233579 0.05128140
v -0.07576134 -0.00296138 0.04588716
v -0.07582161 -0.00344563 0.04487701
v -0.07607052 -0.00233579 0.04370522
v -0.07620285 -0.00233579 0.04218999
v -0.07628014 -0.00233579 0.04067475
v -0.07635090 -0.00233579 0.03915952
v -0.07640591 -0.00233579 0.03764429
v -0.07643343 -0.00233579 0.03612905
v -0.07654741 -0.00008830 0.03462055
v -0.07652907 -0.00082047 0.03612905
v -0.07653955 -0.00008830 0.03534786
v -0.06318944 -0.00576958 0.06928238
v -0.06318944 -0.00655967 0.06902648
v -0.06502884 -0.00729185 0.06706678
v -0.06347111 -0.00718758 0.06854834
v -0.06671497 -0.00622371 0.06571990
v -0.06588304 -0.00675894 0.06639334
v -0.06719709 -0.00008830 0.06629906
v -0.06759013 -0.00008830 0.06581418
v -0.06795565 -0.00008830 0.06536298
v -0.06795434 -0.00082047 0.06536298
v -0.06789014 -0.00233579 0.06528217
v -0.06777485 -0.00385110 0.06513401
v -0.06825436 -0.00482193 0.06423834
v -0.06766612 -0.00534325 0.06481749
v -0.06318944 -0.01625863 0.06217762
v -0.06318944 -0.01556121 0.06299921
v -0.06371087 -0.01527854 0.06272310
v -0.06554110 -0.01415480 0.06161193
v -0.06402661 -0.01436796 0.06330226
v -0.07076978 -0.00985213 0.05727499
v -0.06920026 -0.01137208 0.05880370
v -0.06979899 -0.01082990 0.05825821
v -0.06842598 -0.01131416 0.06025832
v -0.06792814 -0.01174048 0.06068932
v -0.06822947 -0.01073027 0.06118093
v -0.06514414 -0.01367054 0.06262209
v -0.06603371 -0.01309593 0.06202946
v -0.06691804 -0.01251900 0.06144357
v -0.07103967 -0.00869826 0.05773293
v -0.07124536 -0.00768805 0.05813699
v -0.07142616 -0.00827425 0.05727499
v -0.07248211 -0.00689332 0.05579343
v -0.07184801 -0.00688174 0.05734234
v -0.07234193 -0.00521582 0.05719418
v -0.07248735 -0.00385110 0.05750396
v -0.07280440 -0.00385110 0.05674298
v -0.07314634 -0.00385110 0.05582710
v -0.07333369 -0.00233579 0.05582710
v -0.07389311 -0.00233579 0.05431187
v -0.07421409 -0.00233579 0.05341619
v -0.07435034 -0.00385110 0.05235890
v -0.07556482 -0.00082047 0.04825093
v -0.07574562 -0.00082047 0.04726097
v -0.07523860 -0.00082047 0.04976616
v -0.07580195 -0.00195116 0.04623062
v -0.07443812 -0.00233579 0.05266194
v -0.07489273 -0.00082047 0.05128140
v -0.07587401 -0.00240761 0.04531474
v -0.07616747 -0.00082047 0.04370522
v -0.07629849 -0.00082047 0.04218999
v -0.07637578 -0.00082047 0.04067475
v -0.07644653 -0.00082047 0.03915952
v -0.07650024 -0.00082047 0.03764429
v -0.07653038 -0.00008830 0.03612905
v -0.06318944 -0.00696515 0.06887832
v -0.06653941 -0.00723392 0.06550440
v -0.06553324 -0.00839705 0.06606335
v -0.06476158 -0.00839705 0.06682434
v -0.06318944 -0.00839705 0.06827223
v -0.06811549 -0.00583214 0.06405651
v -0.06853341 -0.00688174 0.06308676
v -0.06825698 -0.00008830 0.06497238
v -0.06853603 -0.00082047 0.06460873
v -0.06923040 -0.00233579 0.06353796
v -0.06975051 -0.00330197 0.06270290
v -0.06920026 -0.00382562 0.06328879
v -0.06965356 -0.00431219 0.06256148
v -0.06868408 -0.00534325 0.06349756
v -0.06318944 -0.01495184 0.06366592
v -0.06326281 -0.01481514 0.06373326
v -0.06373445 -0.01380493 0.06425181
v -0.06997847 -0.00981737 0.05880370
v -0.06951993 -0.01025760 0.05926837
v -0.06738313 -0.01133501 0.06181396
v -0.06683812 -0.01092722 0.06285106
v -0.06644377 -0.01021590 0.06386121
v -0.06786918 -0.00991237 0.06221802
v -0.06810893 -0.00896472 0.06253454
v -0.06842205 -0.00991237 0.06146378
v -0.06950945 -0.00839705 0.06076340
v -0.06917013 -0.00981737 0.06026506
v -0.06487163 -0.01307739 0.06352449
v -0.06551621 -0.01266033 0.06309349
v -0.06511925 -0.01211120 0.06410365
v -0.06652631 -0.01193511 0.06245373
v -0.06975313 -0.00924739 0.05969263
v -0.07068070 -0.00827425 0.05872962
v -0.06992607 -0.00839705 0.06000915
v -0.06967977 -0.00753281 0.06107318
v -0.07016844 -0.00696978 0.06049402
v -0.07136589 -0.00688174 0.05835923
v -0.07151131 -0.00525289 0.05889124
v -0.07181919 -0.00385110 0.05885757
v -0.07258823 -0.00233579 0.05773966
v -0.07289742 -0.00233579 0.05697868
v -0.07343981 -0.00082047 0.05582710
v -0.07425077 -0.00145764 0.05353741
v -0.07556613 -0.00008830 0.04825093
v -0.07574562 -0.00008830 0.04726771
v -0.07579278 -0.00008830 0.04687712
v -0.07583601 -0.00008830 0.04651346
v -0.07598799 -0.00082047 0.04522046
v -0.07489404 -0.00008830 0.05128140
v -0.07507221 -0.00008830 0.05050021
v -0.07523860 -0.00008830 0.04976616
v -0.07540760 -0.00008830 0.04898497
v -0.07445384 -0.00089925 0.05293805
v -0.07427697 -0.00044743 0.05361149
v -0.07469490 -0.00008830 0.05203565
v -0.07616878 -0.00008830 0.04370522
v -0.07629980 -0.00008830 0.04218999
v -0.07637578 -0.00008830 0.04067475
v -0.07644784 -0.00008830 0.03915952
v -0.07650155 -0.00008830 0.03764429
v -0.06689052 -0.00839705 0.06443364
v -0.06629180 -0.00839705 0.06518789
v -0.06833689 -0.00795451 0.06283085
v -0.06529349 -0.00940495 0.06581418
v -0.06375279 -0.00932849 0.06728901
v -0.06318944 -0.00961116 0.06764593
v -0.06952124 -0.00536642 0.06235271
v -0.06935617 -0.00696978 0.06186110
v -0.06853734 -0.00008830 0.06460873
v -0.06892907 -0.00008830 0.06409692
v -0.06929328 -0.00082047 0.06361878
v -0.06980685 -0.00233579 0.06277698
v -0.07034138 -0.00233579 0.06188804
v -0.07100561 -0.00233579 0.06072973
v -0.07090211 -0.00385110 0.06054116
v -0.07008066 -0.00382562 0.06198906
v -0.06998371 -0.00536642 0.06159846
v -0.06318944 -0.01474331 0.06387468
v -0.06318944 -0.01406443 0.06452792
v -0.06318944 -0.01294069 0.06546399
v -0.06363619 -0.01216681 0.06566603
v -0.06405805 -0.01294069 0.06460199
v -0.06597999 -0.01152037 0.06347735
v -0.06543367 -0.01110331 0.06450098
v -0.06670580 -0.00920569 0.06419793
v -0.06703988 -0.00979189 0.06337634
v -0.06500788 -0.01041516 0.06551113
v -0.06586863 -0.00981042 0.06485117
v -0.06872469 -0.00843413 0.06197559
v -0.06455851 -0.01163622 0.06508013
v -0.06983174 -0.00652260 0.06133582
v -0.07111828 -0.00568385 0.05941652
v -0.07124143 -0.00467364 0.05964549
v -0.07202226 -0.00233579 0.05885757
v -0.07264456 -0.00082047 0.05787435
v -0.07295113 -0.00082047 0.05711337
v -0.07320399 -0.00008830 0.05645340
v -0.07344112 -0.00008830 0.05582710
v -0.07403853 -0.00089925 0.05419738
v -0.07598930 -0.00008830 0.04522046
v -0.07427697 -0.00008830 0.05361149
v -0.06438034 -0.00987067 0.06641354
v -0.06344622 -0.01033870 0.06700617
v -0.06318944 -0.01011627 0.06736309
v -0.06929459 -0.00008830 0.06361878
v -0.06986711 -0.00008830 0.06286452
v -0.06986580 -0.00082047 0.06285779
v -0.07045929 -0.00082047 0.06188804
v -0.07106194 -0.00082047 0.06083074
v -0.07147463 -0.00082047 0.06007649
v -0.07077372 -0.00525289 0.06023812
v -0.06318944 -0.01176829 0.06633946
v -0.06399778 -0.01115892 0.06599601
v -0.07213493 -0.00082047 0.05885757
v -0.07264587 -0.00008830 0.05787435
v -0.07280440 -0.00008830 0.05748376
v -0.07213755 -0.00008830 0.05885757
v -0.07295113 -0.00008830 0.05711337
v -0.06318944 -0.01114501 0.06673006
v -0.07046060 -0.00008830 0.06188804
v -0.07077372 -0.00008830 0.06134256
v -0.07106325 -0.00008830 0.06083074
v -0.07147594 -0.00008830 0.06007649
f 1 2 3
f 1 3 4
f 1 4 5
f 1 5 14
f 1 14 26
f 1 26 48
f 1 48 47
f 1 47 46
f 1 46 73
f 1 73 72
f 1 72 96
f 1 96 95
f 1 95 123
f 1 123 122
f 1 122 152
f 1 152 183
f 1 183 219
f 1 219 260
f 1 260 301
f 1 301 348
f 1 348 392
f 1 392 394
f 1 394 435
f 1 435 474
f 1 474 512
f 1 512 554
f 1 554 596
f 1 596 637
f 1 637 687
f 1 687 735
f 1 735 783
f 1 783 784
f 1 784 837
f 1 837 841
f 1 841 902
f 1 902 940
f 1 940 955
f 1 955 948
f 1 948 916
f 1 916 915
f 1 915 914
f 1 914 851
f 1 851 798
f 1 798 797
f 1 797 744
f 1 744 697
f 1 697 696
f 1 696 647
f 1 647 646
f 1 646 601
f 1 601 558
f 1 558 556
f 1 556 555
f 1 555 513
f 1 513 476
f 1 476 475
f 1 475 437
f 1 437 436
f 1 436 395
f 1 395 351
f 1 351 350
f 1 350 304
f 1 304 264
f 1 264 221
f 1 221 184
f 1 184 154
f 1 154 153
f 1 153 124
f 1 124 97
f 1 97 75
f 1 75 74
f 1 74 49
f 1 49 29
f 1 29 28
f 1 28 27
f 1 27 15
f 1 15 6
f 1 6 7
f 1 7 2
f 2 8 9
f 2 9 3
f 2 7 8
f 3 9 10
f 3 10 11
f 3 11 4
f 4 11 12
f 4 12 13
f 4 13 14
f 4 14 5
f 6 15 7
f 7 15 16
f 7 16 17
f 7 17 18
f 7 18 8
f 8 18 33
f 8 33 19
f 8 19 20
f 8 20 9
f 9 20 21
f 9 21 22
f 9 22 10
f 10 22 11
f 11 22 12
f 12 22 23
f 12 23 24
f 12 24 25
f 12 25 13
f 13 25 26
f 13 26 14
f 15 27 16
f 16 27 28
f 16 28 29
f 16 29 30
f 16 30 17
f 17 30 31
f 17 31 32
f 17 32 33
f 17 33 18
f 19 33 34
f 19 34 35
f 19 35 20
f 20 35 36
f 20 36 37
f 20 37 21
f 21 37 22
f 22 38 39
f 22 39 40
f 22 40 23
f 22 37 38
f 23 40 41
f 23 41 42
f 23 42 24
f 24 42 43
f 24 43 44
f 24 44 45
f 24 45 25
f 25 46 47
f 25 47 48
f 25 48 26
f 25 45 46
f 29 49 50
f 29 50 30
f 30 50 51
f 30 51 31
f 31 51 52
f 31 52 32
f 32 52 53
f 32 53 54
f 32 54 34
f 32 34 33
f 34 55 56
f 34 56 57
f 34 57 35
f 34 54 55
f 35 57 58
f 35 58 36
f 36 58 59
f 36 59 37
f 37 59 58
f 37 58 60
f 37 60 61
f 37 61 63
f 37 63 38
f 38 62 39
f 38 63 62
f 39 62 40
f 40 62 64
f 40 64 65
f 40 65 41
f 41 65 66
f 41 66 42
f 42 66 67
f 42 67 43
f 43 67 66
f 43 66 68
f 43 68 69
f 43 69 70
f 43 70 44
f 44 70 71
f 44 71 45
f 45 71 72
f 45 72 73
f 45 73 46
f 49 74 50
f 50 74 75
f 50 75 76
f 50 76 77
f 50 77 51
f 51 77 78
f 51 78 79
f 51 79 52
f 52 79 80
f 52 80 81
f 52 81 53
f 53 81 82
f 53 82 54
f 54 82 83
f 54 83 56
f 54 56 55
f 56 83 84
f 56 84 85
f 56 85 57
f 57 85 58
f 58 86 60
f 58 85 86
f 60 86 61
f 61 86 63
f 62 87 88
f 62 88 64
f 62 63 86
f 62 86 87
f 64 88 89
f 64 89 65
f 65 89 90
f 65 90 66
f 66 90 91
f 66 91 68
f 68 91 92
f 68 92 93
f 68 93 69
f 69 93 94
f 69 94 70
f 70 94 71
f 71 94 95
f 71 95 96
f 71 96 72
f 75 97 98
f 75 98 76
f 76 98 99
f 76 99 77
f 77 99 100
f 77 100 78
f 78 100 101
f 78 101 79
f 79 101 80
f 80 101 102
f 80 102 82
f 80 82 81
f 82 102 103
f 82 103 83
f 83 103 104
f 83 104 105
f 83 105 106
f 83 106 107
f 83 107 84
f 84 107 85
f 85 107 108
f 85 108 86
f 86 108 109
f 86 109 110
f 86 110 111
f 86 111 87
f 87 111 88
f 88 111 112
f 88 112 89
f 89 112 113
f 89 113 90
f 90 113 114
f 90 114 92
f 90 92 91
f 92 115 116
f 92 116 117
f 92 117 93
f 92 114 118
f 92 118 119
f 92 119 115
f 93 116 120
f 93 120 94
f 93 117 116
f 94 120 121
f 94 121 122
f 94 122 123
f 94 123 95
f 97 124 98
f 98 124 125
f 98 125 126
f 98 126 99
f 99 126 127
f 99 127 100
f 100 127 128
f 100 128 101
f 101 128 129
f 101 129 102
f 102 129 130
f 102 130 103
f 103 130 131
f 103 131 132
f 103 132 104
f 104 132 133
f 104 133 105
f 105 133 134
f 105 134 135
f 105 135 106
f 106 135 136
f 106 136 107
f 107 136 137
f 107 137 108
f 108 137 138
f 108 138 109
f 109 138 139
f 109 139 110
f 110 139 111
f 111 140 141
f 111 141 112
f 111 139 140
f 112 141 142
f 112 142 113
f 113 142 143
f 113 143 144
f 113 144 114
f 114 144 143
f 114 143 118
f 115 119 116
f 116 119 145
f 116 145 146
f 116 146 147
f 116 147 120
f 118 143 148
f 118 148 149
f 118 149 119
f 119 149 150
f 119 150 145
f 120 147 151
f 120 151 121
f 121 151 152
f 121 152 122
f 124 153 125
f 125 153 154
f 125 154 155
f 125 155 126
f 126 155 156
f 126 156 127
f 127 156 157
f 127 157 158
f 127 158 128
f 128 158 159
f 128 159 160
f 128 160 161
f 128 161 130
f 128 130 129
f 130 161 162
f 130 162 163
f 130 163 164
f 130 164 131
f 131 164 132
f 132 165 133
f 132 164 166
f 132 166 165
f 133 165 167
f 133 167 134
f 134 167 135
f 135 167 136
f 136 167 168
f 136 168 169
f 136 169 137
f 137 169 138
f 138 169 170
f 138 170 139
f 139 170 140
f 140 170 171
f 140 171 141
f 141 171 142
f 142 171 172
f 142 172 148
f 142 148 143
f 145 150 173
f 145 173 174
f 145 174 146
f 146 174 175
f 146 175 147
f 147 175 151
f 148 172 176
f 148 176 177
f 148 177 149
f 149 177 150
f 150 178 179
f 150 179 173
f 150 177 180
f 150 180 181
f 150 181 178
f 151 175 182
f 151 182 183
f 151 183 152
f 154 184 185
f 154 185 155
f 155 185 156
f 156 185 186
f 156 186 187
f 156 187 157
f 157 187 188
f 157 188 189
f 157 189 158
f 158 189 190
f 158 190 191
f 158 191 159
f 159 191 192
f 159 192 160
f 160 192 193
f 160 193 194
f 160 194 163
f 160 163 162
f 160 162 161
f 163 194 164
f 164 194 195
f 164 195 196
f 164 196 166
f 165 166 197
f 165 197 198
f 165 198 199
f 165 199 167
f 166 196 197
f 167 199 200
f 167 200 168
f 168 200 201
f 168 201 169
f 169 201 202
f 169 202 203
f 169 203 204
f 169 204 170
f 170 205 171
f 170 204 205
f 171 205 206
f 171 206 207
f 171 207 172
f 172 207 176
f 173 208 209
f 173 209 174
f 173 179 208
f 174 209 210
f 174 210 175
f 175 210 211
f 175 211 182
f 176 207 212
f 176 212 180
f 176 180 177
f 178 213 208
f 178 208 179
f 178 181 214
f 178 214 215
f 178 215 213
f 180 212 250
f 180 250 216
f 180 216 181
f 181 216 217
f 181 217 218
f 181 218 214
f 182 219 183
f 182 211 220
f 182 220 219
f 184 221 222
f 184 222 223
f 184 223 185
f 185 223 186
f 186 223 222
f 186 222 224
f 186 224 225
f 186 225 187
f 187 225 226
f 187 226 188
f 188 190 189
f 188 226 227
f 188 227 190
f 190 228 229
f 190 229 192
f 190 192 191
f 190 227 230
f 190 230 228
f 192 229 231
f 192 231 194
f 192 194 193
f 194 231 232
f 194 232 233
f 194 233 195
f 195 233 234
f 195 234 197
f 195 197 196
f 197 235 198
f 197 234 235
f 198 235 236
f 198 236 237
f 198 237 199
f 199 237 200
f 200 237 238
f 200 238 201
f 201 239 202
f 201 238 239
f 202 239 240
f 202 240 203
f 203 240 204
f 204 240 241
f 204 241 242
f 204 242 205
f 205 242 243
f 205 243 206
f 206 243 244
f 206 244 207
f 207 244 245
f 207 245 212
f 208 213 246
f 208 246 247
f 208 247 248
f 208 248 209
f 209 248 210
f 210 220 211
f 210 248 220
f 212 245 249
f 212 249 250
f 213 215 251
f 213 251 246
f 214 252 215
f 214 218 253
f 214 253 254
f 214 254 255
f 214 255 256
f 214 256 257
f 214 257 252
f 215 252 251
f 216 250 217
f 217 250 258
f 217 258 259
f 217 259 218
f 218 259 254
f 218 254 253
f 219 220 260
f 220 248 261
f 220 261 262
f 220 262 263
f 220 263 260
f 221 264 265
f 221 265 222
f 222 265 224
f 224 265 266
f 224 266 225
f 225 266 267
f 225 267 226
f 226 267 268
f 226 268 269
f 226 269 227
f 227 269 270
f 227 270 230
f 228 271 231
f 228 231 229
f 228 230 272
f 228 272 271
f 230 270 273
f 230 273 272
f 231 271 232
f 232 271 272
f 232 272 274
f 232 274 275
f 232 275 276
f 232 276 233
f 233 277 234
f 233 276 277
f 234 277 278
f 234 278 279
f 234 279 235
f 235 280 281
f 235 281 236
f 235 279 280
f 236 281 282
f 236 282 237
f 237 282 283
f 237 283 238
f 238 283 239
f 239 284 240
f 239 283 284
f 240 284 241
f 241 284 285
f 241 285 242
f 242 285 243
f 243 285 286
f 243 286 249
f 243 249 244
f 244 249 245
f 246 251 247
f 247 251 287
f 247 287 288
f 247 288 289
f 247 289 261
f 247 261 248
f 249 286 290
f 249 290 258
f 249 258 250
f 251 252 291
f 251 291 287
f 252 257 292
f 252 292 293
f 252 293 294
f 252 294 295
f 252 295 291
f 254 259 296
f 254 296 297
f 254 297 255
f 255 297 298
f 255 298 256
f 256 298 299
f 256 299 257
f 257 299 292
f 258 290 300
f 258 300 259
f 259 300 296
f 260 263 302
f 260 302 301
f 261 289 303
f 261 303 262
f 262 303 332
f 262 332 375
f 262 375 380
f 262 380 383
f 262 383 382
f 262 382 381
f 262 381 425
f 262 425 427
f 262 427 468
f 262 468 467
f 262 467 505
f 262 505 546
f 262 546 548
f 262 548 591
f 262 591 632
f 262 632 631
f 262 631 681
f 262 681 684
f 262 684 731
f 262 731 780
f 262 780 782
f 262 782 836
f 262 836 896
f 262 896 895
f 262 895 894
f 262 894 893
f 262 893 892
f 262 892 936
f 262 936 883
f 262 883 882
f 262 882 881
f 262 881 880
f 262 880 888
f 262 888 887
f 262 887 886
f 262 886 885
f 262 885 891
f 262 891 937
f 262 937 934
f 262 934 933
f 262 933 954
f 262 954 952
f 262 952 951
f 262 951 953
f 262 953 959
f 262 959 958
f 262 958 957
f 262 957 956
f 262 956 942
f 262 942 941
f 262 941 906
f 262 906 905
f 262 905 844
f 262 844 791
f 262 791 790
f 262 790 789
f 262 789 738
f 262 738 734
f 262 734 686
f 262 686 636
f 262 636 594
f 262 594 552
f 262 552 512
f 262 512 474
f 262 474 434
f 262 434 393
f 262 393 349
f 262 349 302
f 262 302 263
f 264 304 265
f 265 304 305
f 265 305 306
f 265 306 266
f 266 306 267
f 267 306 307
f 267 307 308
f 267 308 268
f 268 308 309
f 268 309 269
f 269 309 270
f 270 309 273
f 272 273 310
f 272 310 274
f 273 309 311
f 273 311 312
f 273 312 310
f 274 310 275
f 275 310 313
f 275 313 314
f 275 314 315
f 275 315 277
f 275 277 276
f 277 315 316
f 277 316 278
f 278 316 317
f 278 317 318
f 278 318 319
f 278 319 279
f 279 319 320
f 279 320 280
f 280 320 321
f 280 321 322
f 280 322 281
f 281 322 323
f 281 323 282
f 282 324 325
f 282 325 326
f 282 326 283
f 282 323 324
f 283 326 284
f 284 327 328
f 284 328 285
f 284 326 327
f 285 328 329
f 285 329 286
f 286 329 290
f 287 291 330
f 287 330 288
f 288 330 331
f 288 331 289
f 289 331 332
f 289 332 303
f 290 329 333
f 290 333 300
f 291 295 330
f 292 299 334
f 292 334 293
f 293 334 335
f 293 335 336
f 293 336 337
f 293 337 294
f 294 337 338
f 294 338 295
f 295 339 330
f 295 338 340
f 295 340 339
f 296 300 341
f 296 341 342
f 296 342 297
f 297 342 343
f 297 343 298
f 298 343 345
f 298 345 299
f 299 344 334
f 299 345 346
f 299 346 347
f 299 347 344
f 300 333 341
f 301 302 348
f 302 349 348
f 304 350 305
f 305 350 351
f 305 351 352
f 305 352 306
f 306 352 307
f 307 309 308
f 307 352 353
f 307 353 354
f 307 354 309
f 309 355 311
f 309 354 356
f 309 356 357
f 309 357 355
f 310 312 313
f 311 355 312
f 312 355 358
f 312 358 359
f 312 359 313
f 313 359 360
f 313 360 361
f 313 361 314
f 314 361 362
f 314 362 316
f 314 316 315
f 316 362 317
f 317 363 364
f 317 364 318
f 317 362 365
f 317 365 363
f 318 366 319
f 318 364 366
f 319 366 367
f 319 367 321
f 319 321 320
f 321 367 368
f 321 368 369
f 321 369 322
f 322 369 370
f 322 370 323
f 323 370 371
f 323 371 324
f 324 371 325
f 325 371 326
f 326 371 372
f 326 372 373
f 326 373 327
f 327 373 328
f 328 374 333
f 328 333 329
f 328 373 374
f 330 339 331
f 331 339 375
f 331 375 332
f 333 374 341
f 334 344 376
f 334 376 377
f 334 377 336
f 334 336 335
f 336 377 378
f 336 378 337
f 337 378 379
f 337 379 338
f 338 379 340
f 339 380 375
f 339 340 380
f 340 381 382
f 340 382 383
f 340 383 380
f 340 379 424
f 340 424 384
f 340 384 381
f 341 385 342
f 341 374 386
f 341 386 387
f 341 387 385
f 342 385 388
f 342 388 343
f 343 388 345
f 344 347 346
f 344 346 376
f 345 388 389
f 345 389 390
f 345 390 346
f 346 390 391
f 346 391 376
f 348 349 392
f 349 393 394
f 349 394 392
f 351 395 396
f 351 396 397
f 351 397 352
f 352 397 353
f 353 397 396
f 353 396 398
f 353 398 399
f 353 399 354
f 354 399 356
f 355 400 358
f 355 357 401
f 355 401 402
f 355 402 400
f 356 399 403
f 356 403 404
f 356 404 357
f 357 404 401
f 358 400 359
f 359 400 360
f 360 400 405
f 360 405 406
f 360 406 361
f 361 406 407
f 361 407 365
f 361 365 362
f 363 408 364
f 363 365 409
f 363 409 410
f 363 410 408
f 364 408 411
f 364 411 366
f 365 407 409
f 366 411 412
f 366 412 367
f 367 412 368
f 368 412 413
f 368 413 414
f 368 414 369
f 369 414 415
f 369 415 370
f 370 415 416
f 370 416 371
f 371 416 417
f 371 417 372
f 372 417 418
f 372 418 419
f 372 419 373
f 373 419 420
f 373 420 374
f 374 420 421
f 374 421 386
f 376 391 377
f 377 391 422
f 377 422 423
f 377 423 378
f 378 423 464
f 378 464 424
f 378 424 379
f 381 384 425
f 384 424 464
f 384 464 426
f 384 426 427
f 384 427 425
f 385 387 388
f 386 421 387
f 387 428 388
f 387 421 420
f 387 420 429
f 387 429 430
f 387 430 428
f 388 428 431
f 388 431 389
f 389 431 432
f 389 432 390
f 390 433 391
f 390 432 473
f 390 473 433
f 391 433 422
f 393 434 394
f 394 434 435
f 395 436 396
f 396 436 437
f 396 437 438
f 396 438 439
f 396 439 440
f 396 440 398
f 398 440 399
f 399 440 403
f 400 402 441
f 400 441 442
f 400 442 405
f 401 404 443
f 401 443 444
f 401 444 402
f 402 444 441
f 403 440 439
f 403 439 445
f 403 445 446
f 403 446 404
f 404 446 443
f 405 442 406
f 406 442 447
f 406 447 448
f 406 448 407
f 407 448 449
f 407 449 409
f 408 450 451
f 408 451 411
f 408 410 450
f 409 449 452
f 409 452 410
f 410 452 453
f 410 453 450
f 411 451 412
f 412 451 454
f 412 454 413
f 413 454 455
f 413 455 456
f 413 456 414
f 414 456 415
f 415 456 457
f 415 457 458
f 415 458 459
f 415 459 416
f 416 459 460
f 416 460 417
f 417 460 461
f 417 461 418
f 418 461 462
f 418 462 419
f 419 462 420
f 420 462 429
f 422 433 463
f 422 463 465
f 422 465 423
f 423 465 503
f 423 503 464
f 426 464 503
f 426 503 466
f 426 466 467
f 426 467 468
f 426 468 427
f 428 430 470
f 428 470 431
f 429 462 469
f 429 469 430
f 430 469 470
f 431 470 471
f 431 471 432
f 432 472 473
f 432 471 472
f 433 473 463
f 434 474 435
f 437 475 438
f 438 475 476
f 438 476 477
f 438 477 439
f 439 478 445
f 439 477 479
f 439 479 480
f 439 480 478
f 441 444 481
f 441 481 482
f 441 482 442
f 442 482 483
f 442 483 447
f 443 446 478
f 443 478 484
f 443 484 485
f 443 485 486
f 443 486 444
f 444 486 481
f 445 478 446
f 447 483 488
f 447 488 448
f 448 487 449
f 448 488 487
f 449 487 489
f 449 489 452
f 450 490 491
f 450 491 451
f 450 453 490
f 451 491 492
f 451 492 454
f 452 493 453
f 452 489 493
f 453 493 494
f 453 494 490
f 454 492 455
f 455 492 495
f 455 495 496
f 455 496 456
f 456 496 497
f 456 497 457
f 457 497 458
f 458 498 459
f 458 497 499
f 458 499 498
f 459 498 500
f 459 500 460
f 460 500 461
f 461 501 469
f 461 469 462
f 461 500 501
f 463 473 472
f 463 472 502
f 463 502 504
f 463 504 465
f 465 504 543
f 465 543 503
f 466 505 467
f 466 503 543
f 466 543 506
f 466 506 546
f 466 546 505
f 469 501 541
f 469 541 507
f 469 507 508
f 469 508 470
f 470 508 509
f 470 509 510
f 470 510 471
f 471 510 511
f 471 511 472
f 472 511 502
f 476 513 477
f 477 513 514
f 477 514 479
f 478 485 484
f 478 480 515
f 478 515 516
f 478 516 485
f 479 514 517
f 479 517 518
f 479 518 519
f 479 519 480
f 480 519 515
f 481 486 485
f 481 485 520
f 481 520 482
f 482 521 522
f 482 522 483
f 482 520 521
f 483 522 488
f 485 516 523
f 485 523 524
f 485 524 520
f 487 488 522
f 487 522 525
f 487 525 489
f 489 525 526
f 489 526 527
f 489 527 493
f 490 528 529
f 490 529 491
f 490 494 528
f 491 529 492
f 492 529 530
f 492 530 495
f 493 527 531
f 493 531 532
f 493 532 494
f 494 532 533
f 494 533 534
f 494 534 528
f 495 530 535
f 495 535 536
f 495 536 496
f 496 537 497
f 496 536 537
f 497 538 499
f 497 537 538
f 498 499 538
f 498 538 539
f 498 539 540
f 498 540 500
f 500 540 541
f 500 541 501
f 502 511 542
f 502 542 544
f 502 544 504
f 504 544 545
f 504 545 543
f 506 543 545
f 506 545 547
f 506 547 548
f 506 548 546
f 507 549 550
f 507 550 509
f 507 509 508
f 507 541 549
f 509 550 551
f 509 551 511
f 509 511 510
f 511 551 542
f 512 552 553
f 512 553 554
f 513 555 514
f 514 555 556
f 514 556 517
f 515 519 557
f 515 557 516
f 516 557 523
f 517 556 558
f 517 558 559
f 517 559 560
f 517 560 518
f 518 560 519
f 519 560 561
f 519 561 562
f 519 562 557
f 520 524 563
f 520 563 564
f 520 564 565
f 520 565 521
f 521 565 522
f 522 565 566
f 522 566 525
f 523 557 567
f 523 567 524
f 524 567 568
f 524 568 563
f 525 566 526
f 526 566 569
f 526 569 570
f 526 570 571
f 526 571 527
f 527 571 531
f 528 572 573
f 528 573 529
f 528 534 572
f 529 573 535
f 529 535 530
f 531 574 575
f 531 575 532
f 531 571 570
f 531 570 576
f 531 576 574
f 532 575 533
f 533 575 577
f 533 577 578
f 533 578 572
f 533 572 534
f 535 573 579
f 535 579 580
f 535 580 536
f 536 580 581
f 536 581 582
f 536 582 537
f 537 582 583
f 537 583 538
f 538 583 584
f 538 584 585
f 538 585 539
f 539 585 540
f 540 585 586
f 540 586 541
f 541 586 549
f 542 551 587
f 542 587 588
f 542 588 544
f 544 588 589
f 544 589 545
f 545 589 590
f 545 590 547
f 547 590 591
f 547 591 548
f 549 551 550
f 549 586 551
f 551 592 587
f 551 586 593
f 551 593 592
f 552 594 597
f 552 597 553
f 553 595 596
f 553 596 554
f 553 597 598
f 553 598 595
f 557 562 599
f 557 599 600
f 557 600 567
f 558 601 559
f 559 601 602
f 559 602 560
f 560 602 603
f 560 603 561
f 561 603 604
f 561 604 562
f 562 604 599
f 563 605 564
f 563 568 605
f 564 605 565
f 565 605 606
f 565 606 607
f 565 607 566
f 566 608 569
f 566 607 608
f 567 609 568
f 567 600 610
f 567 610 611
f 567 611 609
f 568 609 605
f 569 608 570
f 570 608 612
f 570 612 613
f 570 613 576
f 572 614 573
f 572 578 620
f 572 620 615
f 572 615 614
f 573 614 579
f 574 576 613
f 574 613 616
f 574 616 617
f 574 617 618
f 574 618 619
f 574 619 575
f 575 619 577
f 577 619 620
f 577 620 578
f 579 621 622
f 579 622 580
f 579 614 621
f 580 622 623
f 580 623 624
f 580 624 581
f 581 624 582
f 582 625 583
f 582 624 625
f 583 626 627
f 583 627 584
f 583 625 626
f 584 627 628
f 584 628 585
f 585 628 593
f 585 593 586
f 587 592 629
f 587 629 588
f 588 629 630
f 588 630 589
f 589 630 590
f 590 631 632
f 590 632 591
f 590 630 680
f 590 680 633
f 590 633 681
f 590 681 631
f 592 593 634
f 592 634 635
f 592 635 629
f 593 628 634
f 594 636 597
f 595 637 596
f 595 598 638
f 595 638 637
f 597 636 639
f 597 639 598
f 598 639 640
f 598 640 641
f 598 641 638
f 599 604 642
f 599 642 643
f 599 643 644
f 599 644 645
f 599 645 610
f 599 610 600
f 601 646 602
f 602 646 647
f 602 647 648
f 602 648 649
f 602 649 650
f 602 650 642
f 602 642 603
f 603 642 604
f 605 609 606
f 606 609 651
f 606 651 607
f 607 612 608
f 607 651 652
f 607 652 653
f 607 653 612
f 609 611 654
f 609 654 655
f 609 655 651
f 610 645 644
f 610 644 656
f 610 656 657
f 610 657 658
f 610 658 659
f 610 659 611
f 611 659 654
f 612 653 660
f 612 660 661
f 612 661 613
f 613 661 616
f 614 662 621
f 614 615 662
f 615 620 671
f 615 671 663
f 615 663 662
f 616 661 664
f 616 664 665
f 616 665 666
f 616 666 667
f 616 667 618
f 616 618 617
f 618 668 619
f 618 667 669
f 618 669 668
f 619 668 620
f 620 668 670
f 620 670 671
f 621 672 622
f 621 662 673
f 621 673 672
f 622 674 623
f 622 672 674
f 623 674 675
f 623 675 624
f 624 675 676
f 624 676 625
f 625 676 677
f 625 677 626
f 626 677 678
f 626 678 627
f 627 678 679
f 627 679 628
f 628 679 634
f 629 635 680
f 629 680 630
f 633 680 682
f 633 682 730
f 633 730 683
f 633 683 731
f 633 731 684
f 633 684 681
f 634 679 685
f 634 685 635
f 635 685 730
f 635 730 682
f 635 682 680
f 636 686 639
f 637 638 687
f 638 688 687
f 638 641 689
f 638 689 688
f 639 686 734
f 639 734 690
f 639 690 691
f 639 691 640
f 640 691 641
f 641 692 689
f 641 691 693
f 641 693 694
f 641 694 692
f 642 650 695
f 642 695 643
f 643 695 644
f 644 695 656
f 647 696 648
f 648 696 649
f 649 696 697
f 649 697 698
f 649 698 650
f 650 698 699
f 650 699 700
f 650 700 656
f 650 656 695
f 651 655 652
f 652 655 701
f 652 701 702
f 652 702 703
f 652 703 653
f 653 703 702
f 653 702 660
f 654 659 704
f 654 704 655
f 655 705 701
f 655 704 705
f 656 700 706
f 656 706 707
f 656 707 657
f 657 708 659
f 657 659 658
f 657 707 708
f 659 708 709
f 659 709 704
f 660 710 661
f 660 702 711
f 660 711 710
f 661 710 664
f 662 663 673
f 663 671 673
f 664 710 712
f 664 712 665
f 665 712 713
f 665 713 714
f 665 714 715
f 665 715 716
f 665 716 666
f 666 717 667
f 666 716 717
f 667 717 669
f 668 669 717
f 668 717 670
f 670 718 671
f 670 717 719
f 670 719 720
f 670 720 718
f 671 718 721
f 671 721 722
f 671 722 673
f 672 673 723
f 672 723 724
f 672 724 674
f 673 722 725
f 673 725 723
f 674 724 726
f 674 726 675
f 675 726 676
f 676 727 728
f 676 728 677
f 676 726 727
f 677 728 729
f 677 729 678
f 678 729 685
f 678 685 679
f 683 730 732
f 683 732 733
f 683 733 780
f 683 780 731
f 685 729 732
f 685 732 730
f 687 688 735
f 688 736 735
f 688 689 736
f 689 692 737
f 689 737 736
f 690 734 738
f 690 738 739
f 690 739 740
f 690 740 693
f 690 693 691
f 692 694 741
f 692 741 737
f 693 740 742
f 693 742 694
f 694 742 743
f 694 743 741
f 697 744 698
f 698 744 745
f 698 745 699
f 699 745 746
f 699 746 747
f 699 747 700
f 700 747 706
f 701 705 702
f 702 705 748
f 702 748 749
f 702 749 711
f 704 750 751
f 704 751 748
f 704 748 705
f 704 709 752
f 704 752 750
f 706 747 753
f 706 753 707
f 707 754 752
f 707 752 755
f 707 755 708
f 707 753 754
f 708 755 752
f 708 752 709
f 710 711 749
f 710 749 756
f 710 756 757
f 710 757 758
f 710 758 712
f 712 758 757
f 712 757 759
f 712 759 713
f 713 759 760
f 713 760 714
f 714 760 761
f 714 761 762
f 714 762 763
f 714 763 764
f 714 764 715
f 715 764 765
f 715 765 716
f 716 765 766
f 716 766 719
f 716 719 717
f 718 767 768
f 718 768 721
f 718 720 769
f 718 769 767
f 719 766 765
f 719 765 720
f 720 765 770
f 720 770 771
f 720 771 769
f 721 768 772
f 721 772 773
f 721 773 725
f 721 725 722
f 723 725 774
f 723 774 775
f 723 775 724
f 724 776 726
f 724 775 776
f 725 773 774
f 726 776 777
f 726 777 778
f 726 778 727
f 727 778 728
f 728 779 732
f 728 732 729
f 728 778 779
f 732 779 781
f 732 781 733
f 733 781 782
f 733 782 780
f 735 736 783
f 736 784 783
f 736 737 785
f 736 785 786
f 736 786 784
f 737 741 787
f 737 787 788
f 737 788 785
f 738 789 739
f 739 789 790
f 739 790 791
f 739 791 792
f 739 792 740
f 740 792 793
f 740 793 742
f 741 743 787
f 742 793 794
f 742 794 743
f 743 794 795
f 743 795 796
f 743 796 787
f 744 797 745
f 745 797 798
f 745 798 799
f 745 799 746
f 746 799 747
f 747 800 753
f 747 799 801
f 747 801 800
f 748 751 802
f 748 802 756
f 748 756 749
f 750 803 804
f 750 804 751
f 750 752 805
f 750 805 803
f 751 804 802
f 752 754 806
f 752 806 807
f 752 807 805
f 753 800 808
f 753 808 809
f 753 809 810
f 753 810 754
f 754 810 806
f 756 802 811
f 756 811 812
f 756 812 813
f 756 813 757
f 757 814 759
f 757 813 814
f 759 814 760
f 760 814 761
f 761 814 815
f 761 815 816
f 761 816 762
f 762 816 817
f 762 817 818
f 762 818 819
f 762 819 763
f 763 819 820
f 763 820 821
f 763 821 822
f 763 822 764
f 764 822 823
f 764 823 765
f 765 823 770
f 767 824 825
f 767 825 768
f 767 769 826
f 767 826 824
f 768 825 827
f 768 827 772
f 769 771 826
f 770 823 771
f 771 823 828
f 771 828 829
f 771 829 826
f 772 827 830
f 772 830 774
f 772 774 773
f 774 831 775
f 774 830 827
f 774 827 831
f 775 832 833
f 775 833 776
f 775 831 832
f 776 833 834
f 776 834 777
f 777 834 778
f 778 835 781
f 778 781 779
f 778 834 835
f 781 836 782
f 781 835 896
f 781 896 836
f 784 786 837
f 785 788 838
f 785 838 839
f 785 839 840
f 785 840 786
f 786 840 841
f 786 841 837
f 787 838 788
f 787 796 842
f 787 842 843
f 787 843 838
f 791 844 792
f 792 844 845
f 792 845 793
f 793 845 846
f 793 846 847
f 793 847 794
f 794 847 848
f 794 848 795
f 795 848 849
f 795 849 850
f 795 850 796
f 796 850 842
f 798 851 852
f 798 852 799
f 799 852 853
f 799 853 801
f 800 801 808
f 801 853 808
f 802 804 854
f 802 854 811
f 803 805 804
f 804 805 807
f 804 807 855
f 804 855 854
f 806 810 807
f 807 810 856
f 807 856 857
f 807 857 858
f 807 858 859
f 807 859 860
f 807 860 861
f 807 861 862
f 807 862 863
f 807 863 855
f 808 853 864
f 808 864 809
f 809 864 810
f 810 864 865
f 810 865 866
f 810 866 867
f 810 867 856
f 811 854 868
f 811 868 869
f 811 869 812
f 812 869 870
f 812 870 862
f 812 862 871
f 812 871 872
f 812 872 873
f 812 873 815
f 812 815 813
f 813 815 814
f 815 873 816
f 816 873 874
f 816 874 817
f 817 875 876
f 817 876 818
f 817 874 875
f 818 876 877
f 818 877 820
f 818 820 819
f 820 878 879
f 820 879 821
f 820 877 878
f 821 879 822
f 822 879 828
f 822 828 823
f 824 880 825
f 824 826 880
f 825 881 882
f 825 882 883
f 825 883 884
f 825 884 827
f 825 880 881
f 826 829 885
f 826 885 886
f 826 886 887
f 826 887 888
f 826 888 880
f 827 884 831
f 828 879 889
f 828 889 829
f 829 889 890
f 829 890 891
f 829 891 885
f 831 892 893
f 831 893 832
f 831 884 936
f 831 936 892
f 832 893 833
f 833 894 895
f 833 895 834
f 833 893 894
f 834 895 896
f 834 896 835
f 838 897 898
f 838 898 839
f 838 843 899
f 838 899 897
f 839 898 900
f 839 900 840
f 840 900 901
f 840 901 841
f 841 901 902
f 842 850 843
f 843 850 903
f 843 903 904
f 843 904 899
f 844 905 845
f 845 905 906
f 845 906 907
f 845 907 846
f 846 907 908
f 846 908 847
f 847 908 909
f 847 909 910
f 847 910 911
f 847 911 912
f 847 912 849
f 847 849 848
f 849 912 911
f 849 911 913
f 849 913 903
f 849 903 850
f 851 914 852
f 852 914 853
f 853 915 916
f 853 916 917
f 853 917 918
f 853 918 866
f 853 866 864
f 853 914 915
f 854 855 868
f 855 863 868
f 856 867 857
f 857 867 919
f 857 919 920
f 857 920 858
f 858 921 922
f 858 922 859
f 858 920 923
f 858 923 924
f 858 924 921
f 859 922 860
f 860 899 925
f 860 925 861
f 860 922 921
f 860 921 897
f 860 897 899
f 861 871 862
f 861 925 871
f 862 870 868
f 862 868 863
f 864 866 865
f 866 919 867
f 866 918 917
f 866 917 926
f 866 926 923
f 866 923 920
f 866 920 919
f 868 870 869
f 871 925 899
f 871 899 904
f 871 904 927
f 871 927 872
f 872 927 873
f 873 927 928
f 873 928 874
f 874 928 929
f 874 929 875
f 875 930 876
f 875 929 911
f 875 911 910
f 875 910 930
f 876 930 931
f 876 931 877
f 877 932 878
f 877 931 932
f 878 932 933
f 878 933 934
f 878 934 890
f 878 890 935
f 878 935 879
f 879 890 889
f 879 935 890
f 883 936 884
f 890 937 891
f 890 934 937
f 897 921 898
f 898 921 900
f 900 923 938
f 900 938 901
f 900 921 924
f 900 924 923
f 901 938 939
f 901 939 902
f 902 939 940
f 903 913 927
f 903 927 904
f 906 941 907
f 907 941 942
f 907 942 943
f 907 943 908
f 908 943 944
f 908 944 909
f 909 944 910
f 910 944 945
f 910 945 946
f 910 946 930
f 911 929 913
f 913 929 947
f 913 947 927
f 916 948 917
f 917 948 949
f 917 949 923
f 917 923 926
f 923 949 939
f 923 939 938
f 927 947 928
f 928 947 929
f 930 946 950
f 930 950 931
f 931 951 952
f 931 952 932
f 931 950 953
f 931 953 951
f 932 952 954
f 932 954 933
f 939 949 948
f 939 948 955
f 939 955 940
f 942 956 944
f 942 944 943
f 944 956 957
f 944 957 945
f 945 957 958
f 945 958 959
f 945 959 946
f 946 959 953
f 946 953 950

