# https://github.com/mikedh/trimesh
v -0.06318944 -0.00715977 0.01960905
v -0.05517128 -0.01226133 0.01960905
v -0.06318944 -0.01045545 0.00279218
v -0.06318944 -0.02374997 0.01960905
v -0.05517128 -0.01719522 0.00279218
v -0.05517128 -0.02192096 0.01960905
v -0.06318944 -0.01072527 0.00223341
v -0.05517128 -0.01724148 0.00269043
v -0.06318944 -0.02374997 0.01915203
v -0.06293279 -0.02390416 0.01960905
v -0.05517206 -0.02684714 0.01960905
v -0.05517128 -0.02684714 0.01960369
v -0.06318944 -0.01145572 0.00177817
v -0.05517128 -0.01780232 0.00170676
v -0.06318944 -0.02374805 0.01611892
v -0.06293200 -0.02390416 0.01794522
v -0.06293279 -0.02390416 0.01945909
v -0.06217540 -0.02433202 0.01960905
v -0.05531491 -0.02681823 0.01960905
v -0.05531491 -0.02681823 0.01794522
v -0.05517128 -0.02684714 0.01657237
v -0.06318944 -0.01153474 0.00173711
v -0.05517128 -0.01790447 0.00167463
v -0.06318944 -0.02374419 0.01157016
v -0.06292808 -0.02390030 0.01036870
v -0.06217147 -0.02433009 0.01339824
v -0.06209612 -0.02437056 0.01960905
v -0.05667978 -0.02646939 0.01960905
v -0.05683047 -0.02643085 0.01794522
v -0.05531491 -0.02681438 0.01036870
v -0.05517128 -0.02684522 0.01339824
v -0.06318944 -0.01250610 0.00158716
v -0.05517128 -0.01900303 0.00137650
v -0.06318944 -0.02374226 0.01005450
v -0.06216519 -0.02432624 0.00885304
v -0.06216990 -0.02432816 0.01036870
v -0.06292258 -0.02389645 0.00885304
v -0.06137562 -0.02471362 0.01036870
v -0.06137562 -0.02471555 0.01339824
v -0.06137562 -0.02471940 0.01945909
v -0.06137562 -0.02471940 0.01960905
v -0.05683047 -0.02643085 0.01960905
v -0.05803995 -0.02606273 0.01960905
v -0.05817259 -0.02602226 0.01945909
v -0.05817102 -0.02602226 0.01794522
v -0.05683047 -0.02642699 0.01188258
v -0.05531491 -0.02680860 0.00885304
v -0.05517128 -0.02683944 0.00899586
v -0.05517128 -0.02684329 0.01036870
v -0.05683047 -0.02642506 0.01036870
v -0.05683047 -0.02642121 0.00885304
v -0.06318944 -0.01416165 0.00137828
v -0.05517128 -0.01914758 0.00137471
v -0.05531491 -0.01900303 0.00137471
v -0.06318944 -0.02373648 0.00885304
v -0.06215106 -0.02431853 0.00776762
v -0.06137562 -0.02470784 0.00885304
v -0.06318944 -0.02373070 0.00852634
v -0.06274991 -0.02396390 0.00729275
v -0.05986005 -0.02538625 0.01036870
v -0.05986005 -0.02539203 0.01794522
v -0.06122571 -0.02478686 0.01960905
v -0.05817259 -0.02602226 0.01960905
v -0.05824794 -0.02599720 0.01960905
v -0.05816710 -0.02602033 0.01339824
v -0.05816474 -0.02601841 0.01036870
v -0.05531491 -0.02678547 0.00733738
v -0.05517128 -0.02681631 0.00733738
v -0.05517128 -0.02683751 0.00885304
v -0.05683047 -0.02639616 0.00733738
v -0.05815689 -0.02601648 0.00885304
v -0.06318944 -0.01567651 0.00137471
v -0.05986005 -0.01748817 0.00137293
v -0.05517128 -0.02051982 0.00137471
v -0.06152082 -0.02460762 0.00729275
v -0.06289119 -0.02383863 0.00582172
v -0.06212281 -0.02430311 0.00675718
v -0.05986005 -0.02535348 0.00733738
v -0.05986005 -0.02538047 0.00885304
v -0.06318944 -0.02370179 0.00730703
v -0.05892292 -0.02576015 0.01036870
v -0.05892763 -0.02576207 0.01642956
v -0.05892920 -0.02576207 0.01794522
v -0.05893077 -0.02576207 0.01960905
v -0.05976822 -0.02542865 0.01960905
v -0.05986005 -0.02539203 0.01960905
v -0.05531491 -0.02675078 0.00582172
v -0.05517128 -0.02674692 0.00430784
v -0.05683047 -0.02632099 0.00430784
v -0.05531491 -0.02671609 0.00430784
v -0.05811844 -0.02600299 0.00733738
v -0.05805879 -0.02598371 0.00582172
v -0.05891429 -0.02575629 0.00885304
v -0.05887661 -0.02574280 0.00733738
v -0.06318944 -0.01900303 0.00137471
v -0.05834526 -0.02354953 0.00137471
v -0.05683047 -0.02354953 0.00137650
v -0.05517128 -0.02518388 0.00152824
v -0.05531491 -0.02506632 0.00150860
v -0.06129164 -0.02463075 0.00430784
v -0.06133716 -0.02465195 0.00582172
v -0.06318944 -0.02365939 0.00582172
v -0.06318944 -0.02364783 0.00544325
v -0.06318944 -0.02361121 0.00430784
v -0.06289119 -0.02378852 0.00430784
v -0.06204982 -0.02426456 0.00430784
v -0.05986005 -0.02526676 0.00430784
v -0.05531491 -0.02663321 0.00279218
v -0.05517128 -0.02667176 0.00293500
v -0.05683047 -0.02626895 0.00279218
v -0.05800071 -0.02596251 0.00430784
v -0.05793242 -0.02593939 0.00279218
v -0.05875810 -0.02570233 0.00430784
v -0.06137562 -0.02203467 0.00137650
v -0.06318944 -0.02022108 0.00137650
v -0.05986005 -0.02354953 0.00140328
v -0.05683047 -0.02506632 0.00149075
v -0.05517128 -0.02620728 0.00171926
v -0.06123434 -0.02459991 0.00279218
v -0.06318944 -0.02359579 0.00391331
v -0.06289119 -0.02370179 0.00279218
v -0.06199173 -0.02421060 0.00279218
v -0.05986005 -0.02517617 0.00279218
v -0.05868982 -0.02564065 0.00279218
v -0.05517128 -0.02666019 0.00279218
v -0.05779115 -0.02589120 0.00194777
v -0.05683047 -0.02602997 0.00181923
v -0.06318944 -0.02173594 0.00142113
v -0.06318944 -0.02051982 0.00137828
v -0.06145646 -0.02364590 0.00166213
v -0.06289119 -0.02203467 0.00143005
v -0.05986005 -0.02470784 0.00173354
v -0.05531491 -0.02619572 0.00171748
v -0.05517128 -0.02626317 0.00181923
v -0.06100595 -0.02449006 0.00185315
v -0.06318944 -0.02353026 0.00279218
v -0.06318944 -0.02347629 0.00251905
v -0.06318944 -0.02204046 0.00148004
v -0.06289119 -0.02321611 0.00175675
v -0.06318944 -0.02313516 0.00179424
v -0.06318944 -0.02298869 0.00174247
f 1 2 3
f 1 3 7
f 1 7 13
f 1 13 22
f 1 22 32
f 1 32 52
f 1 52 72
f 1 72 95
f 1 95 115
f 1 115 129
f 1 129 128
f 1 128 138
f 1 138 141
f 1 141 140
f 1 140 137
f 1 137 136
f 1 136 120
f 1 120 104
f 1 104 103
f 1 103 102
f 1 102 80
f 1 80 58
f 1 58 55
f 1 55 34
f 1 34 24
f 1 24 15
f 1 15 9
f 1 9 4
f 1 4 10
f 1 10 18
f 1 18 27
f 1 27 41
f 1 41 62
f 1 62 86
f 1 86 85
f 1 85 84
f 1 84 64
f 1 64 63
f 1 63 43
f 1 43 42
f 1 42 28
f 1 28 19
f 1 19 11
f 1 11 6
f 1 6 2
f 2 5 3
f 2 6 12
f 2 12 21
f 2 21 31
f 2 31 49
f 2 49 48
f 2 48 69
f 2 69 68
f 2 68 88
f 2 88 109
f 2 109 125
f 2 125 134
f 2 134 118
f 2 118 98
f 2 98 74
f 2 74 53
f 2 53 33
f 2 33 23
f 2 23 14
f 2 14 8
f 2 8 5
f 3 5 8
f 3 8 7
f 4 9 17
f 4 17 10
f 6 11 12
f 7 8 14
f 7 14 13
f 9 15 16
f 9 16 17
f 10 17 18
f 11 19 20
f 11 20 21
f 11 21 12
f 13 14 22
f 14 23 22
f 15 24 25
f 15 25 16
f 16 25 26
f 16 26 18
f 16 18 17
f 18 26 27
f 19 28 20
f 20 28 29
f 20 29 30
f 20 30 21
f 21 30 31
f 22 23 33
f 22 33 32
f 24 34 25
f 25 35 36
f 25 36 26
f 25 34 37
f 25 37 35
f 26 36 38
f 26 38 27
f 27 38 39
f 27 39 40
f 27 40 41
f 28 42 29
f 29 42 43
f 29 43 44
f 29 44 45
f 29 45 46
f 29 46 30
f 30 47 48
f 30 48 49
f 30 49 31
f 30 46 50
f 30 50 51
f 30 51 47
f 32 33 52
f 33 53 54
f 33 54 52
f 34 55 37
f 35 37 56
f 35 56 57
f 35 57 38
f 35 38 36
f 37 55 58
f 37 58 59
f 37 59 56
f 38 57 79
f 38 79 60
f 38 60 61
f 38 61 62
f 38 62 39
f 39 62 40
f 40 62 41
f 43 63 44
f 44 63 64
f 44 64 45
f 45 64 65
f 45 65 46
f 46 65 66
f 46 66 50
f 47 67 68
f 47 68 69
f 47 69 48
f 47 51 67
f 50 66 51
f 51 70 67
f 51 66 71
f 51 71 70
f 52 54 73
f 52 73 72
f 53 74 73
f 53 73 54
f 56 75 57
f 56 59 76
f 56 76 77
f 56 77 75
f 57 78 79
f 57 75 78
f 58 80 59
f 59 80 76
f 60 79 81
f 60 81 61
f 61 81 82
f 61 82 83
f 61 83 84
f 61 84 85
f 61 85 86
f 61 86 62
f 64 82 81
f 64 81 65
f 64 84 83
f 64 83 82
f 65 81 66
f 66 81 71
f 67 70 87
f 67 87 68
f 68 87 88
f 70 89 90
f 70 90 87
f 70 71 91
f 70 91 92
f 70 92 89
f 71 81 93
f 71 93 94
f 71 94 91
f 72 73 95
f 73 74 96
f 73 96 95
f 74 97 96
f 74 98 99
f 74 99 97
f 75 77 100
f 75 100 101
f 75 101 78
f 76 80 102
f 76 102 103
f 76 103 104
f 76 104 105
f 76 105 106
f 76 106 77
f 77 106 100
f 78 101 100
f 78 100 107
f 78 107 94
f 78 94 93
f 78 93 79
f 79 93 81
f 87 90 88
f 88 90 108
f 88 108 109
f 89 110 90
f 89 92 111
f 89 111 112
f 89 112 110
f 90 110 108
f 91 94 92
f 92 94 113
f 92 113 111
f 94 107 113
f 95 96 114
f 95 114 115
f 96 116 114
f 96 97 117
f 96 117 116
f 97 99 117
f 98 118 117
f 98 117 99
f 100 106 119
f 100 119 107
f 104 120 105
f 105 120 121
f 105 121 106
f 106 122 119
f 106 121 122
f 107 123 124
f 107 124 113
f 107 119 123
f 108 125 109
f 108 110 126
f 108 126 127
f 108 127 125
f 110 112 126
f 111 113 112
f 112 113 124
f 112 124 126
f 114 116 128
f 114 128 129
f 114 129 115
f 116 130 131
f 116 131 128
f 116 117 132
f 116 132 130
f 117 118 133
f 117 133 127
f 117 127 132
f 118 134 133
f 119 122 135
f 119 135 126
f 119 126 123
f 120 136 121
f 121 136 137
f 121 137 122
f 122 137 135
f 123 126 124
f 125 127 134
f 126 135 127
f 127 133 134
f 127 135 132
f 128 131 138
f 130 139 131
f 130 132 139
f 131 139 138
f 132 135 139
f 135 137 140
f 135 140 139
f 138 139 141
f 139 140 141

