# https://github.com/mikedh/trimesh
v 0.07103713 0.01480186 0.04840165
v 0.07103531 0.01480650 0.04840165
v 0.07103349 0.01480186 0.04842402
v 0.05951866 0.01480186 0.04840165
v 0.07015573 0.01605854 0.04840165
v 0.07011923 0.01567098 0.04977070
v 0.07070866 0.01480186 0.04977070
v 0.05239808 0.02050159 0.04840165
v 0.05239808 0.01480186 0.05239695
v 0.05239808 0.01485640 0.05234773
v 0.05239808 0.01546327 0.05191823
v 0.06973419 0.01663640 0.04840165
v 0.06967944 0.01657026 0.04888261
v 0.06957178 0.01642870 0.04977070
v 0.06990755 0.01536928 0.05128739
v 0.07030172 0.01480186 0.05124489
v 0.05239808 0.02665503 0.04840165
v 0.05239808 0.01480186 0.07125491
v 0.06926885 0.01718178 0.04840165
v 0.06922505 0.01723283 0.04840165
v 0.06823416 0.01816809 0.04915776
v 0.06871409 0.01745214 0.04970583
v 0.06809182 0.01801376 0.05016889
v 0.06858088 0.01704369 0.05128739
v 0.06933820 0.01612700 0.05128739
v 0.06975791 0.01515809 0.05217325
v 0.06990937 0.01480186 0.05242156
v 0.05365175 0.02638118 0.04840165
v 0.05239808 0.02648794 0.04965885
v 0.05266816 0.01480186 0.07113859
v 0.05345649 0.01533215 0.07040932
v 0.05239808 0.01574060 0.07054354
v 0.06832723 0.01826672 0.04840165
v 0.06756809 0.01902212 0.04840165
v 0.06672136 0.01967889 0.04913539
v 0.06654252 0.01952108 0.05014652
v 0.06713742 0.01857074 0.05128739
v 0.06789474 0.01780141 0.05128739
v 0.06835825 0.01679421 0.05249090
v 0.06817211 0.01658187 0.05350203
v 0.06859548 0.01562108 0.05431630
v 0.06956813 0.01489005 0.05318214
v 0.06965572 0.01480186 0.05310608
v 0.05379957 0.02634869 0.04840165
v 0.05239808 0.02647169 0.04977070
v 0.05379957 0.02616071 0.04977070
v 0.05423936 0.01480186 0.07045183
v 0.05446564 0.01503974 0.07018562
v 0.05389629 0.01584271 0.06980086
v 0.05253859 0.01634283 0.07001114
v 0.05239808 0.01616877 0.07020799
v 0.06681077 0.01976476 0.04840165
v 0.06511001 0.02111543 0.04882221
v 0.06599141 0.02013608 0.04969241
v 0.06567207 0.02073715 0.04840165
v 0.06557352 0.01999567 0.05128739
v 0.06515016 0.01962900 0.05352440
v 0.06633084 0.01932846 0.05128739
v 0.06587645 0.01916136 0.05293383
v 0.06684545 0.01829225 0.05280185
v 0.06669398 0.01813908 0.05359151
v 0.06770860 0.01732682 0.05291817
v 0.06714290 0.01738948 0.05418432
v 0.06800605 0.01637880 0.05431630
v 0.06918673 0.01480186 0.05431630
v 0.06836737 0.01531822 0.05543033
v 0.06950791 0.01480186 0.05349532
v 0.05542004 0.02594372 0.04840165
v 0.05239808 0.02625006 0.05117331
v 0.05505506 0.02584393 0.04977070
v 0.05384884 0.02589847 0.05130529
v 0.05474302 0.02576270 0.05081315
v 0.05512623 0.01480186 0.06999995
v 0.05521383 0.01582066 0.06912304
v 0.05464082 0.01666193 0.06876289
v 0.05239808 0.01662480 0.06981875
v 0.05379957 0.01688240 0.06896645
v 0.05239808 0.01719802 0.06930200
v 0.06418116 0.02152156 0.04977070
v 0.06494030 0.02098663 0.04977070
v 0.06516658 0.02115720 0.04840165
v 0.06464650 0.02153200 0.04840165
v 0.06331800 0.02245565 0.04840165
v 0.06465380 0.02075223 0.05128739
v 0.06371765 0.02120478 0.05220233
v 0.06347129 0.02103420 0.05321345
v 0.06417203 0.02004905 0.05431630
v 0.06357166 0.01957910 0.05645264
v 0.06492935 0.01944798 0.05431630
v 0.06544761 0.01838508 0.05557573
v 0.06645858 0.01791049 0.05460264
v 0.06688924 0.01683134 0.05583299
v 0.06771043 0.01583459 0.05589339
v 0.06865205 0.01480186 0.05560034
v 0.06811555 0.01499216 0.05644146
v 0.06833817 0.01480186 0.05625802
v 0.05544194 0.02593792 0.04840165
v 0.05239808 0.02623033 0.05128739
v 0.05604414 0.02569308 0.04896314
v 0.05337620 0.02579404 0.05245735
v 0.05239808 0.02593908 0.05288909
v 0.05438717 0.02565131 0.05182428
v 0.05531602 0.02514655 0.05280185
v 0.05527587 0.02548654 0.05130529
v 0.05683065 0.02497249 0.05128739
v 0.05581238 0.02561418 0.04977070
v 0.05530872 0.01480186 0.06989481
v 0.05634341 0.01529502 0.06888369
v 0.05544011 0.01480186 0.06981875
v 0.05565179 0.01630570 0.06844076
v 0.05745840 0.01651804 0.06711421
v 0.05644743 0.01684179 0.06743187
v 0.05561894 0.01785131 0.06690841
v 0.05460797 0.01815416 0.06722830
v 0.05379957 0.01837464 0.06746095
v 0.05379957 0.01764012 0.06821930
v 0.05262254 0.01793021 0.06852800
v 0.05239808 0.01765869 0.06887921
v 0.06306617 0.02227928 0.04977070
v 0.06215922 0.02268657 0.05058945
v 0.06389466 0.02132545 0.05128739
v 0.06255886 0.02291632 0.04840165
v 0.06230704 0.02277591 0.04977070
v 0.06192199 0.02254500 0.05160057
v 0.06293661 0.02153432 0.05274592
v 0.06241470 0.02133126 0.05431630
v 0.06217929 0.02118621 0.05515965
v 0.06317202 0.02080561 0.05431630
v 0.06287639 0.02039136 0.05580615
v 0.06186725 0.02097966 0.05617078
v 0.06252967 0.01993997 0.05734744
v 0.06328698 0.01936907 0.05734744
v 0.06419029 0.01861135 0.05734744
v 0.06516110 0.01812284 0.05658686
v 0.06594032 0.01769582 0.05598287
v 0.06668486 0.01661552 0.05660028
v 0.06702611 0.01580326 0.05720204
v 0.06682355 0.01526601 0.05836528
v 0.06653705 0.01491441 0.05937641
v 0.06797686 0.01480186 0.05694478
v 0.05617553 0.02573718 0.04840165
v 0.05683065 0.02526955 0.04977070
v 0.05678685 0.02552599 0.04840165
v 0.05677043 0.02553179 0.04840165
v 0.05296196 0.02568032 0.05346847
v 0.05239808 0.02593444 0.05290922
v 0.05384884 0.02555732 0.05289804
v 0.05379957 0.02523358 0.05431630
v 0.05531602 0.02476247 0.05431630
v 0.05696751 0.02455244 0.05293159
v 0.05785622 0.02430644 0.05251327
v 0.05835440 0.02440972 0.05119344
v 0.05834528 0.02472185 0.04977070
v 0.05654597 0.01480186 0.06914541
v 0.05725402 0.01480186 0.06870696
v 0.05735438 0.01490745 0.06856156
v 0.05914821 0.01513256 0.06723054
v 0.05834528 0.01543310 0.06748779
v 0.05834528 0.01619082 0.06679208
v 0.05834528 0.01694622 0.06603374
v 0.05742373 0.01802653 0.06556397
v 0.05693466 0.01743358 0.06650575
v 0.05641276 0.01831894 0.06589728
v 0.05519376 0.01853129 0.06641627
v 0.05388533 0.01920314 0.06643640
v 0.05239808 0.01946422 0.06695762
v 0.05239808 0.01859511 0.06792401
v 0.05239808 0.01828877 0.06825509
v 0.06140191 0.02295113 0.05117107
v 0.06137636 0.02328300 0.04977070
v 0.06246945 0.02296622 0.04840165
v 0.06084898 0.02279564 0.05280185
v 0.06160629 0.02235006 0.05280185
v 0.06136906 0.02146238 0.05573233
v 0.06123220 0.02210406 0.05417761
v 0.06033072 0.02250323 0.05458921
v 0.06085992 0.02129761 0.05690899
v 0.06136906 0.02073251 0.05738771
v 0.06223404 0.01970906 0.05823106
v 0.06386728 0.01832938 0.05841673
v 0.06494760 0.01791745 0.05734744
v 0.06590382 0.01705297 0.05720204
v 0.06538556 0.01683947 0.05848161
v 0.06639653 0.01627669 0.05761141
v 0.06596222 0.01589261 0.05892901
v 0.06507534 0.01651920 0.05949050
v 0.06552790 0.01550852 0.06011238
v 0.06640930 0.01480186 0.05969183
v 0.06667938 0.01480186 0.05926903
v 0.05819929 0.02501311 0.04840165
v 0.05239808 0.02558749 0.05440354
v 0.05239808 0.02558401 0.05441696
v 0.05239808 0.02523358 0.05571890
v 0.05379957 0.02482165 0.05583299
v 0.05648757 0.02434590 0.05431630
v 0.05525398 0.02436794 0.05573456
v 0.05756424 0.02417532 0.05352216
v 0.05915916 0.02421129 0.05062524
v 0.05935260 0.02430760 0.04977070
v 0.05954056 0.02447005 0.04840165
v 0.05834528 0.02495973 0.04840165
v 0.05756424 0.01480186 0.06850787
v 0.05882886 0.01480186 0.06769136
v 0.05935807 0.01480186 0.06732449
v 0.06033072 0.01480186 0.06648114
v 0.06072671 0.01519058 0.06577872
v 0.05965735 0.01566749 0.06625968
v 0.05915734 0.01665265 0.06572951
v 0.05846024 0.01776196 0.06500472
v 0.05803323 0.01843033 0.06455284
v 0.05724489 0.01943985 0.06387503
v 0.05682882 0.01887940 0.06492418
v 0.05623392 0.01972995 0.06428440
v 0.05531602 0.01936791 0.06534027
v 0.05343825 0.01982858 0.06592860
v 0.05444921 0.01958838 0.06561318
v 0.05239808 0.01951760 0.06689275
v 0.05974312 0.02378428 0.05119344
v 0.06011173 0.02393512 0.04977070
v 0.06137636 0.02356033 0.04840165
v 0.06039641 0.02407089 0.04840165
v 0.05986173 0.02329112 0.05280185
v 0.05983983 0.02290472 0.05417761
v 0.06062999 0.02267612 0.05357809
v 0.05931975 0.02278868 0.05536546
v 0.05983983 0.02229784 0.05585536
v 0.05992377 0.02160626 0.05738771
v 0.05945844 0.02135214 0.05856214
v 0.05906062 0.02113051 0.05957103
v 0.06046941 0.02106321 0.05792012
v 0.05893105 0.02257749 0.05637658
v 0.06134716 0.02001192 0.05878808
v 0.06082160 0.01977752 0.05987302
v 0.06182892 0.01942013 0.05924219
v 0.06286361 0.01887475 0.05882834
v 0.06248404 0.01840945 0.06005870
v 0.06349319 0.01799287 0.05942562
v 0.06397495 0.01690213 0.06037635
v 0.06366655 0.01662712 0.06115706
v 0.06481256 0.01594946 0.06052176
v 0.06515563 0.01508383 0.06112351
v 0.06589470 0.01480186 0.06042109
v 0.05239808 0.02520225 0.05583299
v 0.05239808 0.02477871 0.05723559
v 0.05239808 0.02474390 0.05734297
v 0.05370650 0.02436910 0.05728481
v 0.05470652 0.02424146 0.05673674
v 0.05614450 0.02421477 0.05516636
v 0.05571749 0.02405116 0.05617525
v 0.05724489 0.02404768 0.05431630
v 0.05834528 0.02357773 0.05431630
v 0.05835440 0.02396994 0.05293159
v 0.05963727 0.02442944 0.04840165
v 0.06184899 0.01480186 0.06511657
v 0.06229243 0.01524164 0.06431348
v 0.06123402 0.01572087 0.06479444
v 0.06016831 0.01620126 0.06527540
v 0.06073036 0.01669790 0.06426427
v 0.05974312 0.01696479 0.06483247
v 0.05904237 0.01807990 0.06411215
v 0.05960625 0.01846863 0.06310102
v 0.05843652 0.01895482 0.06348803
v 0.05883981 0.01947931 0.06241426
v 0.05782884 0.01977984 0.06286390
v 0.05677590 0.02003744 0.06338512
v 0.05592187 0.02108294 0.06252611
v 0.05537624 0.02075571 0.06340526
v 0.05415541 0.02097850 0.06390858
v 0.05531602 0.01995390 0.06458192
v 0.05239808 0.02006645 0.06620823
v 0.05379592 0.02040412 0.06492195
v 0.05239808 0.02081605 0.06522394
v 0.05839455 0.02303932 0.05585536
v 0.05792009 0.02283509 0.05700294
v 0.05839455 0.02240576 0.05744363
v 0.05804965 0.02138347 0.06006093
v 0.05751680 0.02111775 0.06107206
v 0.05847119 0.02092048 0.06049044
v 0.05938727 0.01981581 0.06140314
v 0.06039824 0.01949671 0.06088191
v 0.05992377 0.02086479 0.05898493
v 0.05750767 0.02263087 0.05801407
v 0.06145118 0.01895366 0.06047030
v 0.06208075 0.01807990 0.06106982
v 0.06281252 0.01696479 0.06175435
v 0.06225411 0.01672343 0.06278337
v 0.06326508 0.01620591 0.06216819
v 0.06374502 0.01519522 0.06277218
v 0.06492205 0.01480186 0.06170961
v 0.06558447 0.01480186 0.06085283
v 0.06394028 0.01480186 0.06294220
v 0.05239808 0.02435866 0.05843463
v 0.05314080 0.02421826 0.05819303
v 0.05414994 0.02404652 0.05774563
v 0.05525398 0.02383533 0.05728481
v 0.05672298 0.02379704 0.05573456
v 0.05693466 0.02310894 0.05744363
v 0.06249317 0.01480186 0.06452152
v 0.06326691 0.01480186 0.06374752
v 0.06173768 0.01625232 0.06379450
v 0.06129242 0.01703325 0.06333591
v 0.06061722 0.01812284 0.06264915
v 0.06001137 0.01784783 0.06352606
v 0.06000225 0.01898267 0.06202726
v 0.05833798 0.02011055 0.06190199
v 0.05694014 0.02087059 0.06196910
v 0.05650583 0.02135446 0.06151499
v 0.05537624 0.02162483 0.06196910
v 0.05491273 0.02130921 0.06289969
v 0.05314445 0.02119549 0.06422847
v 0.05239808 0.02089496 0.06511433
v 0.05694014 0.02168633 0.06049044
v 0.05693466 0.02245217 0.05896032
v 0.05596750 0.02262275 0.05952852
v 0.06107161 0.01848603 0.06163802
v 0.05649853 0.02286410 0.05851740
v 0.06149680 0.01786291 0.06204292
v 0.06336728 0.01480186 0.06363567
v 0.05239808 0.02433893 0.05848832
v 0.05239808 0.02407901 0.05914600
v 0.05370650 0.02380400 0.05876347
v 0.05540362 0.02310778 0.05896032
v 0.05540362 0.02241272 0.06043899
v 0.05437075 0.02259374 0.06098482
v 0.05371015 0.02147746 0.06340526
v 0.05383971 0.02231525 0.06187514
v 0.05259699 0.02250555 0.06236952
v 0.05239808 0.02203096 0.06329788
v 0.05239808 0.02136607 0.06440520
v 0.05239808 0.02133474 0.06445665
v 0.05495835 0.02283974 0.05997369
v 0.05239808 0.02403724 0.05924890
v 0.05383971 0.02305208 0.06043899
v 0.05335978 0.02279448 0.06135840
v 0.05239808 0.02232917 0.06279455
v 0.05239808 0.02269933 0.06213911
v 0.05239808 0.02355684 0.06038082
v 0.05239808 0.02289659 0.06177672
f 1 2 3
f 1 3 7
f 1 7 16
f 1 16 27
f 1 27 43
f 1 43 67
f 1 67 65
f 1 65 94
f 1 94 96
f 1 96 140
f 1 140 189
f 1 189 188
f 1 188 242
f 1 242 290
f 1 290 289
f 1 289 291
f 1 291 318
f 1 318 299
f 1 299 298
f 1 298 254
f 1 254 205
f 1 205 204
f 1 204 203
f 1 203 202
f 1 202 155
f 1 155 154
f 1 154 109
f 1 109 107
f 1 107 73
f 1 73 47
f 1 47 30
f 1 30 18
f 1 18 9
f 1 9 4
f 1 4 8
f 1 8 17
f 1 17 28
f 1 28 44
f 1 44 68
f 1 68 97
f 1 97 141
f 1 141 144
f 1 144 143
f 1 143 190
f 1 190 201
f 1 201 200
f 1 200 253
f 1 253 221
f 1 221 220
f 1 220 171
f 1 171 122
f 1 122 83
f 1 83 82
f 1 82 81
f 1 81 55
f 1 55 52
f 1 52 34
f 1 34 33
f 1 33 20
f 1 20 19
f 1 19 12
f 1 12 5
f 1 5 2
f 2 5 6
f 2 6 3
f 3 6 7
f 4 9 10
f 4 10 11
f 4 11 8
f 5 12 13
f 5 13 6
f 6 13 14
f 6 14 15
f 6 15 7
f 7 15 16
f 8 11 10
f 8 10 9
f 8 9 18
f 8 18 32
f 8 32 51
f 8 51 76
f 8 76 78
f 8 78 118
f 8 118 168
f 8 168 167
f 8 167 166
f 8 166 217
f 8 217 270
f 8 270 272
f 8 272 311
f 8 311 330
f 8 330 329
f 8 329 328
f 8 328 335
f 8 335 336
f 8 336 338
f 8 338 337
f 8 337 332
f 8 332 320
f 8 320 319
f 8 319 292
f 8 292 245
f 8 245 244
f 8 244 243
f 8 243 193
f 8 193 192
f 8 192 191
f 8 191 146
f 8 146 101
f 8 101 98
f 8 98 69
f 8 69 45
f 8 45 29
f 8 29 17
f 12 19 13
f 13 19 20
f 13 20 21
f 13 21 22
f 13 22 14
f 14 23 24
f 14 24 25
f 14 25 15
f 14 22 23
f 15 25 26
f 15 26 16
f 16 26 27
f 17 29 28
f 18 30 31
f 18 31 32
f 20 33 21
f 21 33 34
f 21 34 35
f 21 35 23
f 21 23 22
f 23 35 36
f 23 36 37
f 23 37 38
f 23 38 24
f 24 38 39
f 24 39 25
f 25 39 40
f 25 40 26
f 26 40 41
f 26 41 42
f 26 42 27
f 27 42 43
f 28 29 44
f 29 45 46
f 29 46 44
f 30 47 48
f 30 48 31
f 31 48 49
f 31 49 50
f 31 50 51
f 31 51 32
f 34 52 35
f 35 53 54
f 35 54 36
f 35 52 55
f 35 55 53
f 36 54 56
f 36 56 57
f 36 57 58
f 36 58 37
f 37 58 59
f 37 59 60
f 37 60 38
f 38 60 61
f 38 61 62
f 38 62 40
f 38 40 39
f 40 62 61
f 40 61 63
f 40 63 64
f 40 64 41
f 41 65 42
f 41 64 66
f 41 66 65
f 42 65 67
f 42 67 43
f 44 46 68
f 45 69 46
f 46 70 68
f 46 69 71
f 46 71 72
f 46 72 70
f 47 73 48
f 48 73 74
f 48 74 75
f 48 75 49
f 49 75 50
f 50 76 51
f 50 75 77
f 50 77 78
f 50 78 76
f 53 79 80
f 53 80 54
f 53 55 81
f 53 81 82
f 53 82 83
f 53 83 79
f 54 80 56
f 56 84 57
f 56 80 84
f 57 61 60
f 57 60 59
f 57 59 58
f 57 84 85
f 57 85 86
f 57 86 87
f 57 87 88
f 57 88 89
f 57 89 90
f 57 90 91
f 57 91 61
f 61 91 63
f 63 91 92
f 63 92 64
f 64 92 93
f 64 93 66
f 65 66 94
f 66 93 95
f 66 95 96
f 66 96 94
f 68 70 97
f 69 98 71
f 70 99 97
f 70 72 99
f 71 100 72
f 71 98 101
f 71 101 100
f 72 100 102
f 72 102 103
f 72 103 104
f 72 104 105
f 72 105 106
f 72 106 99
f 73 107 74
f 74 108 75
f 74 107 109
f 74 109 108
f 75 110 111
f 75 111 112
f 75 112 113
f 75 113 114
f 75 114 115
f 75 115 116
f 75 116 117
f 75 117 77
f 75 108 110
f 77 117 118
f 77 118 78
f 79 83 119
f 79 119 120
f 79 120 121
f 79 121 80
f 80 121 85
f 80 85 84
f 83 122 123
f 83 123 120
f 83 120 119
f 85 121 120
f 85 120 124
f 85 124 125
f 85 125 86
f 86 125 126
f 86 126 127
f 86 127 128
f 86 128 87
f 87 128 129
f 87 129 88
f 88 129 130
f 88 130 131
f 88 131 132
f 88 132 133
f 88 133 89
f 89 133 90
f 90 133 134
f 90 134 135
f 90 135 91
f 91 135 92
f 92 135 136
f 92 136 93
f 93 136 95
f 95 136 137
f 95 137 138
f 95 138 139
f 95 139 140
f 95 140 96
f 97 99 141
f 99 106 142
f 99 142 143
f 99 143 144
f 99 144 141
f 100 101 145
f 100 145 102
f 101 146 145
f 102 145 147
f 102 147 103
f 103 147 148
f 103 148 149
f 103 149 150
f 103 150 105
f 103 105 104
f 105 150 151
f 105 151 152
f 105 152 153
f 105 153 142
f 105 142 106
f 108 109 154
f 108 154 155
f 108 155 156
f 108 156 157
f 108 157 158
f 108 158 111
f 108 111 110
f 111 158 157
f 111 157 159
f 111 159 160
f 111 160 161
f 111 161 162
f 111 162 112
f 112 162 113
f 113 162 161
f 113 161 163
f 113 163 114
f 114 163 164
f 114 164 165
f 114 165 115
f 115 165 166
f 115 166 167
f 115 167 168
f 115 168 117
f 115 117 116
f 117 168 118
f 120 169 124
f 120 123 170
f 120 170 169
f 122 171 123
f 123 171 170
f 124 169 172
f 124 172 173
f 124 173 125
f 125 173 126
f 126 173 127
f 127 174 130
f 127 130 129
f 127 129 128
f 127 173 175
f 127 175 176
f 127 176 174
f 130 174 177
f 130 177 178
f 130 178 131
f 131 178 179
f 131 179 132
f 132 179 180
f 132 180 133
f 133 181 134
f 133 180 181
f 134 181 135
f 135 181 182
f 135 182 136
f 136 182 183
f 136 183 184
f 136 184 138
f 136 138 137
f 138 185 139
f 138 184 185
f 139 185 186
f 139 186 187
f 139 187 188
f 139 188 189
f 139 189 140
f 142 153 143
f 143 153 190
f 145 146 191
f 145 191 192
f 145 192 148
f 145 148 147
f 148 192 193
f 148 193 194
f 148 194 149
f 149 195 150
f 149 194 196
f 149 196 195
f 150 195 197
f 150 197 151
f 151 198 152
f 151 197 198
f 152 198 153
f 153 199 200
f 153 200 201
f 153 201 190
f 153 198 199
f 155 202 156
f 156 202 157
f 157 202 203
f 157 203 204
f 157 204 205
f 157 205 206
f 157 206 207
f 157 207 208
f 157 208 159
f 159 208 160
f 160 208 161
f 161 208 209
f 161 209 210
f 161 210 211
f 161 211 212
f 161 212 163
f 163 212 213
f 163 213 214
f 163 214 164
f 164 214 165
f 165 215 166
f 165 214 216
f 165 216 215
f 166 215 217
f 169 218 172
f 169 170 219
f 169 219 218
f 170 171 220
f 170 220 221
f 170 221 219
f 172 222 223
f 172 223 224
f 172 224 173
f 172 218 222
f 173 224 175
f 174 176 225
f 174 225 226
f 174 226 177
f 175 224 176
f 176 224 223
f 176 223 225
f 177 227 228
f 177 228 229
f 177 229 230
f 177 230 178
f 177 226 225
f 177 225 231
f 177 231 227
f 178 230 179
f 179 232 233
f 179 233 234
f 179 234 235
f 179 235 180
f 179 230 232
f 180 235 236
f 180 236 237
f 180 237 186
f 180 186 183
f 180 183 181
f 181 183 182
f 183 186 185
f 183 185 184
f 186 237 238
f 186 238 239
f 186 239 240
f 186 240 241
f 186 241 187
f 187 241 242
f 187 242 188
f 193 243 194
f 194 243 244
f 194 244 245
f 194 245 246
f 194 246 247
f 194 247 196
f 195 196 248
f 195 248 197
f 196 247 249
f 196 249 248
f 197 248 250
f 197 250 251
f 197 251 252
f 197 252 198
f 198 252 218
f 198 218 219
f 198 219 199
f 199 219 221
f 199 221 253
f 199 253 200
f 205 254 206
f 206 254 255
f 206 255 256
f 206 256 257
f 206 257 207
f 207 257 208
f 208 257 258
f 208 258 259
f 208 259 260
f 208 260 209
f 209 260 210
f 210 260 261
f 210 261 262
f 210 262 211
f 211 213 212
f 211 262 263
f 211 263 264
f 211 264 265
f 211 265 213
f 213 265 266
f 213 266 267
f 213 267 268
f 213 268 269
f 213 269 216
f 213 216 214
f 215 270 217
f 215 216 269
f 215 269 271
f 215 271 272
f 215 272 270
f 218 252 222
f 222 252 251
f 222 251 223
f 223 251 225
f 225 273 274
f 225 274 231
f 225 251 273
f 227 231 228
f 228 231 275
f 228 275 229
f 229 276 277
f 229 277 278
f 229 278 279
f 229 279 280
f 229 280 233
f 229 233 232
f 229 232 281
f 229 281 230
f 229 275 282
f 229 282 276
f 230 281 232
f 231 274 282
f 231 282 275
f 233 280 234
f 234 280 283
f 234 283 236
f 234 236 235
f 236 283 284
f 236 284 237
f 237 284 285
f 237 285 238
f 238 285 239
f 239 285 286
f 239 286 287
f 239 287 240
f 240 287 288
f 240 288 241
f 241 289 290
f 241 290 242
f 241 288 291
f 241 291 289
f 245 292 246
f 246 292 293
f 246 293 247
f 247 293 294
f 247 294 295
f 247 295 249
f 248 249 296
f 248 296 250
f 249 295 297
f 249 297 296
f 250 296 251
f 251 296 273
f 254 298 255
f 255 258 256
f 255 298 299
f 255 299 286
f 255 286 300
f 255 300 258
f 256 258 257
f 258 300 286
f 258 286 301
f 258 301 302
f 258 302 259
f 259 302 303
f 259 303 260
f 260 303 302
f 260 302 261
f 261 302 263
f 261 263 262
f 263 304 279
f 263 279 305
f 263 305 264
f 263 302 304
f 264 305 306
f 264 306 265
f 265 306 266
f 266 306 277
f 266 277 307
f 266 307 308
f 266 308 309
f 266 309 267
f 267 309 268
f 268 310 311
f 268 311 272
f 268 272 271
f 268 271 269
f 268 309 310
f 273 296 297
f 273 297 274
f 274 297 282
f 276 312 277
f 276 282 313
f 276 313 314
f 276 314 312
f 277 306 305
f 277 305 279
f 277 279 278
f 277 312 307
f 279 304 280
f 280 304 302
f 280 302 315
f 280 315 284
f 280 284 283
f 282 297 316
f 282 316 313
f 284 315 317
f 284 317 286
f 284 286 285
f 286 288 287
f 286 317 302
f 286 302 301
f 286 299 318
f 286 318 288
f 288 318 291
f 292 319 293
f 293 319 320
f 293 320 321
f 293 321 294
f 294 321 295
f 295 321 322
f 295 322 316
f 295 316 297
f 302 317 315
f 307 312 323
f 307 323 324
f 307 324 308
f 308 324 309
f 309 325 310
f 309 324 326
f 309 326 327
f 309 327 325
f 310 325 328
f 310 328 329
f 310 329 330
f 310 330 311
f 312 314 323
f 313 316 314
f 314 316 331
f 314 331 324
f 314 324 323
f 316 322 331
f 320 332 321
f 321 332 333
f 321 333 322
f 322 333 331
f 324 334 326
f 324 331 333
f 324 333 334
f 325 327 335
f 325 335 328
f 326 334 327
f 327 336 335
f 327 334 336
f 332 337 333
f 333 337 334
f 334 337 338
f 334 338 336

