# https://github.com/mikedh/trimesh
v -0.05935068 0.00069693 0.07284926
v -0.05986155 -0.00008830 0.07251235
v -0.05940127 -0.00008830 0.07281332
v -0.05935068 -0.00008830 0.07284477
v -0.05935068 0.00221278 0.07273246
v -0.05986155 0.00221278 0.07240004
v -0.06082426 0.00069693 0.07187896
v -0.06035892 -0.00008830 0.07218442
v -0.05935068 -0.00008830 0.03623821
v -0.05935068 0.00369924 0.07253032
v -0.06066577 0.00313552 0.07177114
v -0.06149697 0.00221278 0.07132193
v -0.06158127 0.00069693 0.07137583
v -0.06157959 -0.00008830 0.07137583
v -0.06121372 -0.00008830 0.07161841
v -0.06298740 -0.00008830 0.02695742
v -0.05936586 0.01063606 0.02695742
v -0.05935068 -0.00005050 0.03626965
v -0.05935068 0.00525184 0.07219340
v -0.06052415 0.00414539 0.07167681
v -0.05995596 0.00367510 0.07213950
v -0.06125250 0.00367510 0.07128599
v -0.06243439 0.00372759 0.07045943
v -0.06256759 0.00221278 0.07056275
v -0.06264009 0.00069693 0.07061666
v -0.06263840 -0.00008830 0.07061666
v -0.07657326 -0.00008830 0.02695742
v -0.07447586 0.01063606 0.02695742
v -0.05935068 0.01063606 0.04898694
v -0.05957324 0.00524344 0.07204966
v -0.05935068 0.00631210 0.07190591
v -0.06211068 0.00593838 0.07020787
v -0.06033194 0.00524344 0.07155103
v -0.06151383 0.00535681 0.07074693
v -0.06227422 0.00492956 0.07033365
v -0.06319310 0.00372759 0.06981706
v -0.06332629 0.00221278 0.06993834
v -0.06339711 0.00069693 0.07000123
v -0.06303124 -0.00008830 0.07029772
v -0.07657326 0.00069693 0.02695742
v -0.07657326 -0.00008830 0.02855662
v -0.07449441 0.01059092 0.02695742
v -0.07447586 0.01063606 0.02855662
v -0.05935068 0.01063606 0.07012252
v -0.05935068 0.00642337 0.07187446
v -0.06192185 0.00675720 0.07006862
v -0.06294694 0.00666062 0.06921062
v -0.06368541 0.00609060 0.06874343
v -0.06282555 0.00535681 0.06973620
v -0.05935068 0.00648636 0.07185649
v -0.06116314 0.00675720 0.07058521
v -0.06382198 0.00524344 0.06886921
v -0.06402767 0.00372759 0.06906237
v -0.06415581 0.00221278 0.06918366
v -0.06422325 0.00069693 0.06924655
v -0.06382366 -0.00008830 0.06961042
v -0.06339542 -0.00008830 0.07000123
v -0.07657326 0.00069693 0.02855662
v -0.07649064 0.00213195 0.02695742
v -0.07656988 -0.00008830 0.03158883
v -0.07481138 0.00978891 0.02695742
v -0.07481138 0.00978891 0.02703828
v -0.07480969 0.00978891 0.02855662
v -0.07480632 0.00978891 0.03158883
v -0.07447080 0.01063606 0.03158883
v -0.06101646 0.01063606 0.06898152
v -0.06022404 0.00978891 0.06996979
v -0.05935068 0.01046495 0.07021237
v -0.06137221 0.00835283 0.06982155
v -0.06245125 0.00827305 0.06899948
v -0.06348815 0.00710152 0.06856374
v -0.06086304 0.00790143 0.07038756
v -0.06539671 0.00524344 0.06740926
v -0.06457900 0.00524344 0.06816844
v -0.06504602 0.00720649 0.06708583
v -0.06524160 0.00619662 0.06726551
v -0.05935068 0.00726213 0.07161841
v -0.06478469 0.00372759 0.06835710
v -0.06572717 0.00221278 0.06771922
v -0.06579292 0.00069693 0.06778211
v -0.06579292 -0.00008830 0.06778211
v -0.06461440 -0.00008830 0.06887820
v -0.06422156 -0.00008830 0.06924206
v -0.07656988 0.00069693 0.03158883
v -0.07648558 0.00221278 0.02855662
v -0.07648558 0.00221278 0.02695742
v -0.07656314 -0.00008830 0.03310268
v -0.07532729 0.00827305 0.02695742
v -0.07532729 0.00827305 0.02855662
v -0.07532392 0.00827305 0.03158883
v -0.07531718 0.00827305 0.03310268
v -0.07479789 0.00978891 0.03310268
v -0.07446406 0.01063606 0.03310268
v -0.06139076 0.00971962 0.06915671
v -0.06054101 0.00891130 0.07017643
v -0.06129128 0.01063606 0.06876140
v -0.06190667 0.01017837 0.06850984
v -0.05946702 0.00978891 0.07046393
v -0.05935068 0.00978681 0.07054029
v -0.06221353 0.00916745 0.06878386
v -0.06320996 0.00827305 0.06830320
v -0.05935068 0.00830979 0.07120513
v -0.06559903 0.00372759 0.06759793
v -0.06615373 0.00524344 0.06664560
v -0.06635773 0.00372759 0.06685673
v -0.06478975 0.00827305 0.06684774
v -0.06556025 0.00827305 0.06609306
v -0.06589745 0.00667216 0.06641200
v -0.06403104 0.00827305 0.06754852
v -0.06672697 0.00613784 0.06573818
v -0.06648419 0.00221278 0.06699149
v -0.06655162 0.00069693 0.06705887
v -0.06654994 -0.00008830 0.06705887
v -0.07656314 0.00069693 0.03310268
v -0.07648221 0.00221278 0.03158883
v -0.07633215 0.00372759 0.02855662
v -0.07634058 0.00364675 0.02695742
v -0.07654797 -0.00008830 0.03461654
v -0.07654965 0.00069693 0.03461654
v -0.07534584 0.00821006 0.02695742
v -0.07566449 0.00708052 0.02855662
v -0.07566449 0.00707422 0.03158883
v -0.07566112 0.00706058 0.03310268
v -0.07530201 0.00827305 0.03461654
v -0.07528515 0.00827305 0.03613489
v -0.07478103 0.00978891 0.03461654
v -0.07443203 0.01063606 0.03588782
v -0.05935068 0.00887141 0.07095357
v -0.06176168 0.01063606 0.06835262
v -0.06296380 0.01063606 0.06727001
v -0.06347466 0.01025500 0.06703641
v -0.06377308 0.00924408 0.06731043
v -0.06685173 0.00524344 0.06588642
v -0.06702877 0.00372759 0.06610205
v -0.06531241 0.00932281 0.06583251
v -0.06631727 0.00827305 0.06522158
v -0.06655331 0.00714876 0.06551806
v -0.06713161 0.00668896 0.06497900
v -0.06855292 0.00675720 0.06311027
v -0.06812636 0.00574313 0.06407608
v -0.06768631 0.00524029 0.06482178
v -0.06714004 0.00221278 0.06623232
v -0.06719905 0.00069693 0.06630419
v -0.06688546 -0.00008830 0.06666806
v -0.07647547 0.00221278 0.03310268
v -0.07632878 0.00372759 0.03158883
v -0.07608263 0.00524344 0.02855662
v -0.07609611 0.00516261 0.02695742
v -0.07633215 0.00372759 0.02695742
v -0.07653954 -0.00008830 0.03534876
v -0.07653110 0.00069693 0.03613489
v -0.07644343 0.00221278 0.03613489
v -0.07646029 0.00221278 0.03461654
v -0.07566449 0.00708157 0.02695742
v -0.07566449 0.00708157 0.02703828
v -0.07585164 0.00632364 0.02703828
v -0.07584827 0.00631630 0.03158883
v -0.07584995 0.00631840 0.03007048
v -0.07584490 0.00630265 0.03310268
v -0.07564595 0.00699234 0.03613489
v -0.07525311 0.00827305 0.03764874
v -0.07476079 0.00978891 0.03613489
v -0.07442865 0.01063606 0.03613489
v -0.06469701 0.01063606 0.06567080
v -0.06440534 0.00978891 0.06643446
v -0.06503759 0.01033268 0.06554053
v -0.06825955 0.00473326 0.06424678
v -0.06778578 0.00372759 0.06514522
v -0.06789706 0.00221278 0.06529346
v -0.06589071 0.00972487 0.06488018
v -0.06672360 0.00911706 0.06421983
v -0.06691412 0.00827305 0.06446241
v -0.06834891 0.00786679 0.06284973
v -0.06796619 0.00675720 0.06386944
v -0.06869960 0.00524029 0.06350558
v -0.06937737 0.00686847 0.06187493
v -0.06953586 0.00524344 0.06237805
v -0.06719736 -0.00008830 0.06630419
v -0.06795607 0.00069693 0.06536533
v -0.06795607 -0.00008830 0.06536533
v -0.06759020 -0.00008830 0.06581904
v -0.07632036 0.00372759 0.03310268
v -0.07607082 0.00524344 0.03310268
v -0.07607757 0.00524344 0.03158883
v -0.07608263 0.00524344 0.02695742
v -0.07652942 -0.00008830 0.03613489
v -0.07650244 -0.00008830 0.03764874
v -0.07650244 0.00069693 0.03764874
v -0.07641646 0.00221278 0.03764874
v -0.07628832 0.00372759 0.03613489
v -0.07630518 0.00372759 0.03461654
v -0.07585164 0.00632364 0.02695742
v -0.07583647 0.00627011 0.03461654
v -0.07582804 0.00623442 0.03613489
v -0.07581286 0.00617353 0.03764874
v -0.07563077 0.00693041 0.03764874
v -0.07519410 0.00827305 0.03916260
v -0.07472707 0.00978891 0.03764874
v -0.07439662 0.01063606 0.03764874
v -0.06496846 0.01063606 0.06539228
v -0.06589239 0.01063606 0.06425577
v -0.06646733 0.01012798 0.06389191
v -0.06836745 0.00372759 0.06439053
v -0.06965894 0.00422937 0.06257121
v -0.06921215 0.00372549 0.06329445
v -0.06975673 0.00321950 0.06271496
v -0.06847873 0.00221278 0.06453428
v -0.06929476 0.00069693 0.06362238
v -0.06853606 0.00069693 0.06461065
v -0.06707597 0.00968918 0.06339328
v -0.06790212 0.00978891 0.06226125
v -0.06812467 0.00887771 0.06255774
v -0.06773520 0.00833289 0.06337531
v -0.06874849 0.00833289 0.06198723
v -0.06968928 0.00744794 0.06109778
v -0.06984103 0.00643702 0.06135833
v -0.06999614 0.00524344 0.06162337
v -0.06929307 -0.00008830 0.06362238
v -0.07605397 0.00524344 0.03461654
v -0.07644681 -0.00008830 0.03916260
v -0.07644849 0.00069693 0.03916260
v -0.07636081 0.00221278 0.03916260
v -0.07625965 0.00372759 0.03764874
v -0.07603541 0.00524344 0.03613489
v -0.07600675 0.00524344 0.03764874
v -0.07579263 0.00608535 0.03882569
v -0.07563415 0.00665747 0.03926143
v -0.07554310 0.00675720 0.04068095
v -0.07512160 0.00827305 0.04068095
v -0.07466638 0.00978891 0.03916260
v -0.07433592 0.01063606 0.03916260
v -0.06690063 0.01063606 0.06297551
v -0.06706754 0.01063606 0.06275988
v -0.06825281 0.01063606 0.06121907
v -0.07009393 0.00372549 0.06199622
v -0.07091164 0.00372759 0.06055873
v -0.07101111 0.00221278 0.06073841
v -0.07035526 0.00221278 0.06189290
v -0.06981237 0.00221278 0.06279133
v -0.06923575 0.00221278 0.06354601
v -0.06986631 0.00069693 0.06286320
v -0.06986631 -0.00008830 0.06286320
v -0.06845007 0.00978891 0.06150657
v -0.06952911 0.00827305 0.06080130
v -0.07125558 0.00759491 0.05815992
v -0.07138372 0.00675720 0.05838902
v -0.07096728 0.00675720 0.05914819
v -0.07018834 0.00686847 0.06050482
v -0.07112745 0.00558776 0.05944018
v -0.07079025 0.00514686 0.06024877
v -0.07124716 0.00457789 0.05965580
v -0.07641309 -0.00008830 0.03989482
v -0.07637768 0.00069693 0.04068095
v -0.07629001 0.00221278 0.04068095
v -0.07620402 0.00372759 0.03916260
v -0.07591740 0.00538096 0.03926143
v -0.07574880 0.00588274 0.04068095
v -0.07546218 0.00675720 0.04219480
v -0.07503561 0.00827305 0.04219480
v -0.07459220 0.00978891 0.04068095
v -0.07426005 0.01055628 0.04148953
v -0.07428028 0.01060142 0.04068095
v -0.07429377 0.01063606 0.04007451
v -0.06826292 0.01063606 0.06120110
v -0.06920540 0.00971332 0.06028471
v -0.07183894 0.00372759 0.05886069
v -0.07142419 0.00221278 0.05998373
v -0.07106338 0.00069693 0.06083724
v -0.07046316 0.00069693 0.06189290
v -0.07045979 -0.00008830 0.06189290
v -0.06976684 0.00915905 0.05971869
v -0.06994556 0.00827305 0.06004662
v -0.07070595 0.00816912 0.05874390
v -0.07105495 0.00860478 0.05776461
v -0.07130448 0.00922308 0.05675387
v -0.07144948 0.00816912 0.05729293
v -0.07188109 0.00675720 0.05734684
v -0.07235823 0.00510907 0.05720309
v -0.07152535 0.00514686 0.05890561
v -0.07637599 -0.00008830 0.04068095
v -0.07630181 0.00069693 0.04219480
v -0.07621245 0.00221278 0.04219480
v -0.07613152 0.00372759 0.04068095
v -0.07586176 0.00492851 0.04219480
v -0.07590054 0.00512587 0.04068095
v -0.07570833 0.00568539 0.04219480
v -0.07532223 0.00675720 0.04370866
v -0.07489230 0.00827305 0.04370866
v -0.07445057 0.00953696 0.04370866
v -0.07447249 0.00988653 0.04207351
v -0.07422128 0.01045655 0.04250027
v -0.07421959 0.01063606 0.04156590
v -0.07422970 0.01063606 0.04140868
v -0.07426848 0.01063606 0.04061806
v -0.06983765 0.01063606 0.05835308
v -0.06953923 0.01016892 0.05930991
v -0.07249649 0.00372759 0.05752652
v -0.07259427 0.00221278 0.05775562
v -0.07203452 0.00221278 0.05886069
v -0.07213905 0.00069693 0.05886069
v -0.07077339 -0.00008830 0.06134486
v -0.07213737 -0.00008830 0.05886069
v -0.07147477 -0.00008830 0.06007807
v -0.07106338 -0.00008830 0.06083275
v -0.07000962 0.00971332 0.05882475
v -0.07080373 0.00975216 0.05729293
v -0.07109035 0.01023296 0.05623278
v -0.07146634 0.00975216 0.05577009
v -0.07269206 0.00889871 0.05342070
v -0.07202103 0.00827305 0.05582849
v -0.07250155 0.00679079 0.05581052
v -0.07263643 0.00552373 0.05630466
v -0.07274770 0.00451491 0.05660114
v -0.07630012 -0.00008830 0.04219480
v -0.07617030 0.00069693 0.04370866
v -0.07608094 0.00221278 0.04370866
v -0.07605397 0.00372759 0.04219480
v -0.07581623 0.00470701 0.04332683
v -0.07565607 0.00522454 0.04378053
v -0.07514183 0.00675720 0.04522701
v -0.07495975 0.00675720 0.04674086
v -0.07470853 0.00827305 0.04522701
v -0.07429377 0.00912966 0.04627817
v -0.07435784 0.00929867 0.04522701
v -0.07406616 0.01005659 0.04522701
v -0.07415721 0.01029489 0.04370866
v -0.07411674 0.01063606 0.04275632
v -0.07415215 0.01063606 0.04239246
v -0.06992701 0.01063606 0.05818687
v -0.07281177 0.00372759 0.05676735
v -0.07290281 0.00221278 0.05699645
v -0.07264654 0.00069693 0.05787691
v -0.07264485 -0.00008830 0.05787691
v -0.07037380 0.01063606 0.05730641
v -0.07096728 0.01063606 0.05604411
v -0.07130111 0.01063606 0.05519959
v -0.07199237 0.00978891 0.05431463
v -0.07069246 0.01063606 0.05665055
v -0.07287753 0.00788779 0.05391932
v -0.07250998 0.00983300 0.05286816
v -0.07286909 0.00935745 0.05240996
v -0.07307984 0.00834548 0.05286816
v -0.07268869 0.00731882 0.05493006
v -0.07282357 0.00630895 0.05529392
v -0.07343728 0.00524344 0.05431463
v -0.07291125 0.00510907 0.05581052
v -0.07372390 0.00372759 0.05431463
v -0.07316415 0.00372759 0.05582849
v -0.07616861 -0.00008830 0.04370866
v -0.07574711 0.00069693 0.04728441
v -0.07580444 0.00188421 0.04625122
v -0.07608263 -0.00008830 0.04444088
v -0.07576734 0.00289512 0.04593677
v -0.07582635 0.00336017 0.04492603
v -0.07590054 0.00381052 0.04378053
v -0.07575554 0.00437004 0.04433307
v -0.07529863 0.00524344 0.04674086
v -0.07504573 0.00524344 0.04825472
v -0.07470347 0.00675720 0.04825472
v -0.07438650 0.00790458 0.04825472
v -0.07448597 0.00837803 0.04676782
v -0.07422970 0.00895330 0.04728891
v -0.07401052 0.00969653 0.04676782
v -0.07372896 0.01063606 0.04592778
v -0.07382169 0.01063606 0.04522701
v -0.07394814 0.01063606 0.04422076
v -0.07401052 0.01063606 0.04370866
v -0.07334624 0.00221278 0.05582849
v -0.07344234 0.00069693 0.05582849
v -0.07295171 0.00069693 0.05711774
v -0.07295171 -0.00008830 0.05711774
v -0.07212894 0.01063606 0.05290410
v -0.07303432 0.00679079 0.05438202
v -0.07359408 0.00675720 0.05280078
v -0.07243916 0.01063606 0.05202813
v -0.07266678 0.01036837 0.05172715
v -0.07299049 0.00983300 0.05124649
v -0.07355867 0.00827305 0.05128243
v -0.07399703 0.00517836 0.05270644
v -0.07413023 0.00372759 0.05314667
v -0.07422128 0.00221278 0.05343866
v -0.07390430 0.00221278 0.05431463
v -0.07579263 -0.00008830 0.04688461
v -0.07574542 -0.00008830 0.04727543
v -0.07565944 -0.00008830 0.04774711
v -0.07556671 0.00069693 0.04825472
v -0.07547735 0.00221278 0.04825472
v -0.07571339 0.00231881 0.04674985
v -0.07555828 0.00372759 0.04674086
v -0.07571339 0.00381052 0.04534830
v -0.07531043 0.00372759 0.04825472
v -0.07497998 0.00372759 0.04977307
v -0.07470853 0.00524344 0.04977307
v -0.07429714 0.00616093 0.05070294
v -0.07439325 0.00670261 0.04970119
v -0.07428871 0.00760645 0.04914866
v -0.07412854 0.00866251 0.04825472
v -0.07361768 0.01063606 0.04674985
v -0.07369861 0.00978891 0.04825472
v -0.07425162 0.00136562 0.05354198
v -0.07344065 -0.00008830 0.05582849
v -0.07320461 -0.00008830 0.05645290
v -0.07403918 0.00079560 0.05419784
v -0.07427691 0.00035575 0.05360937
v -0.07427691 -0.00008830 0.05360937
v -0.07403750 0.00670261 0.05123751
v -0.07418081 0.00564025 0.05170918
v -0.07257910 0.01063606 0.05157442
v -0.07278985 0.01063606 0.05070743
v -0.07417069 0.00717185 0.05015490
v -0.07428703 0.00463038 0.05214043
v -0.07435784 0.00372759 0.05238750
v -0.07444383 0.00221278 0.05267949
v -0.07556502 -0.00008830 0.04825472
v -0.07540822 -0.00008830 0.04898694
v -0.07523962 -0.00008830 0.04977307
v -0.07523962 0.00069693 0.04977307
v -0.07514858 0.00221278 0.04977307
v -0.07480295 0.00221278 0.05128243
v -0.07463266 0.00372759 0.05128243
v -0.07438650 0.00517836 0.05123751
v -0.07333949 0.01063606 0.04824124
v -0.07307647 0.01063606 0.04943166
v -0.07445563 0.00079560 0.05294004
v -0.07489568 0.00069693 0.05128243
v -0.07489399 -0.00008830 0.05128243
f 1 2 3
f 1 3 4
f 1 4 9
f 1 9 18
f 1 18 29
f 1 29 44
f 1 44 68
f 1 68 99
f 1 99 128
f 1 128 102
f 1 102 77
f 1 77 50
f 1 50 45
f 1 45 31
f 1 31 19
f 1 19 10
f 1 10 5
f 1 5 6
f 1 6 7
f 1 7 2
f 2 7 8
f 2 8 15
f 2 15 14
f 2 14 26
f 2 26 39
f 2 39 57
f 2 57 56
f 2 56 83
f 2 83 82
f 2 82 81
f 2 81 113
f 2 113 144
f 2 144 178
f 2 178 181
f 2 181 180
f 2 180 218
f 2 218 242
f 2 242 270
f 2 270 301
f 2 301 304
f 2 304 303
f 2 303 302
f 2 302 333
f 2 333 371
f 2 371 402
f 2 402 401
f 2 401 405
f 2 405 426
f 2 426 416
f 2 416 415
f 2 415 414
f 2 414 385
f 2 385 384
f 2 384 383
f 2 383 352
f 2 352 349
f 2 349 314
f 2 314 280
f 2 280 252
f 2 252 220
f 2 220 187
f 2 187 186
f 2 186 150
f 2 150 118
f 2 118 87
f 2 87 60
f 2 60 41
f 2 41 27
f 2 27 16
f 2 16 9
f 2 9 4
f 2 4 3
f 5 10 11
f 5 11 6
f 6 11 12
f 6 12 7
f 7 12 13
f 7 13 14
f 7 14 15
f 7 15 8
f 9 16 17
f 9 17 18
f 10 19 20
f 10 20 21
f 10 21 11
f 11 21 22
f 11 22 23
f 11 23 12
f 12 23 24
f 12 24 13
f 13 24 25
f 13 25 26
f 13 26 14
f 16 27 40
f 16 40 59
f 16 59 86
f 16 86 117
f 16 117 149
f 16 149 148
f 16 148 185
f 16 185 192
f 16 192 154
f 16 154 120
f 16 120 88
f 16 88 61
f 16 61 42
f 16 42 28
f 16 28 17
f 17 28 43
f 17 43 65
f 17 65 93
f 17 93 127
f 17 127 163
f 17 163 199
f 17 199 231
f 17 231 263
f 17 263 294
f 17 294 293
f 17 293 292
f 17 292 328
f 17 328 327
f 17 327 367
f 17 367 366
f 17 366 365
f 17 365 364
f 17 364 398
f 17 398 422
f 17 422 423
f 17 423 409
f 17 409 408
f 17 408 375
f 17 375 372
f 17 372 336
f 17 336 335
f 17 335 338
f 17 338 334
f 17 334 329
f 17 329 295
f 17 295 264
f 17 264 234
f 17 234 233
f 17 233 232
f 17 232 201
f 17 201 200
f 17 200 164
f 17 164 130
f 17 130 129
f 17 129 96
f 17 96 66
f 17 66 44
f 17 44 29
f 17 29 18
f 19 30 20
f 19 31 32
f 19 32 30
f 20 30 33
f 20 33 34
f 20 34 35
f 20 35 22
f 20 22 21
f 22 35 23
f 23 35 36
f 23 36 37
f 23 37 24
f 24 37 38
f 24 38 25
f 25 38 39
f 25 39 26
f 27 41 58
f 27 58 40
f 28 42 43
f 30 32 34
f 30 34 33
f 31 45 32
f 32 46 47
f 32 47 48
f 32 48 49
f 32 49 35
f 32 35 34
f 32 45 50
f 32 50 51
f 32 51 46
f 35 49 36
f 36 49 52
f 36 52 53
f 36 53 37
f 37 53 54
f 37 54 38
f 38 54 55
f 38 55 56
f 38 56 57
f 38 57 39
f 40 58 59
f 41 60 84
f 41 84 58
f 42 61 62
f 42 62 43
f 43 62 63
f 43 63 64
f 43 64 65
f 44 66 67
f 44 67 68
f 46 69 70
f 46 70 71
f 46 71 47
f 46 51 72
f 46 72 69
f 47 71 48
f 48 73 74
f 48 74 52
f 48 52 49
f 48 71 75
f 48 75 76
f 48 76 73
f 50 77 51
f 51 77 72
f 52 74 53
f 53 74 73
f 53 73 78
f 53 78 54
f 54 78 79
f 54 79 55
f 55 79 80
f 55 80 81
f 55 81 82
f 55 82 83
f 55 83 56
f 58 84 115
f 58 115 85
f 58 85 59
f 59 85 86
f 60 87 114
f 60 114 84
f 61 88 89
f 61 89 62
f 62 89 63
f 63 89 90
f 63 90 64
f 64 90 91
f 64 91 92
f 64 92 93
f 64 93 65
f 66 94 95
f 66 95 67
f 66 96 97
f 66 97 94
f 67 95 98
f 67 98 68
f 68 98 99
f 69 72 95
f 69 95 94
f 69 94 100
f 69 100 70
f 70 100 101
f 70 101 71
f 71 101 75
f 72 77 102
f 72 102 95
f 73 103 78
f 73 76 104
f 73 104 105
f 73 105 103
f 75 106 107
f 75 107 108
f 75 108 76
f 75 101 109
f 75 109 106
f 76 108 110
f 76 110 104
f 78 103 79
f 79 103 111
f 79 111 112
f 79 112 80
f 80 112 81
f 81 112 113
f 84 114 145
f 84 145 115
f 85 116 117
f 85 117 86
f 85 115 146
f 85 146 116
f 87 118 119
f 87 119 114
f 88 120 89
f 89 120 121
f 89 121 122
f 89 122 90
f 90 122 91
f 91 123 124
f 91 124 92
f 91 122 123
f 92 124 125
f 92 125 126
f 92 126 93
f 93 126 127
f 94 97 100
f 95 102 128
f 95 128 99
f 95 99 98
f 96 129 97
f 97 129 130
f 97 130 131
f 97 131 100
f 100 109 101
f 100 131 132
f 100 132 109
f 103 105 111
f 104 133 105
f 104 110 133
f 105 133 134
f 105 134 111
f 106 135 107
f 106 109 132
f 106 132 135
f 107 135 136
f 107 136 137
f 107 137 108
f 108 137 110
f 110 137 138
f 110 138 139
f 110 139 140
f 110 140 141
f 110 141 133
f 111 134 142
f 111 142 112
f 112 142 143
f 112 143 144
f 112 144 113
f 114 119 145
f 115 145 146
f 116 147 148
f 116 148 149
f 116 149 117
f 116 146 147
f 118 150 119
f 119 150 151
f 119 151 152
f 119 152 153
f 119 153 145
f 120 154 155
f 120 155 121
f 121 155 156
f 121 156 122
f 122 157 159
f 122 159 123
f 122 156 158
f 122 158 157
f 123 159 160
f 123 160 125
f 123 125 124
f 125 160 161
f 125 161 162
f 125 162 126
f 126 162 127
f 127 162 163
f 130 164 131
f 131 165 132
f 131 164 166
f 131 166 165
f 132 165 135
f 133 141 167
f 133 167 168
f 133 168 134
f 134 168 169
f 134 169 142
f 135 165 166
f 135 166 170
f 135 170 171
f 135 171 136
f 136 172 137
f 136 171 172
f 137 172 173
f 137 173 139
f 137 139 174
f 137 174 138
f 138 174 139
f 139 175 140
f 139 173 176
f 139 176 177
f 139 177 175
f 140 175 141
f 141 175 167
f 142 169 179
f 142 179 143
f 143 178 144
f 143 179 180
f 143 180 181
f 143 181 178
f 145 153 191
f 145 191 182
f 145 182 146
f 146 182 183
f 146 183 184
f 146 184 147
f 147 158 156
f 147 156 192
f 147 192 185
f 147 185 148
f 147 184 157
f 147 157 158
f 150 186 151
f 151 186 187
f 151 187 188
f 151 188 189
f 151 189 152
f 152 189 190
f 152 190 191
f 152 191 153
f 154 192 156
f 154 156 155
f 157 184 159
f 159 183 193
f 159 193 160
f 159 184 183
f 160 193 194
f 160 194 195
f 160 195 196
f 160 196 161
f 161 196 197
f 161 197 198
f 161 198 162
f 162 198 199
f 162 199 163
f 164 200 166
f 166 200 201
f 166 201 202
f 166 202 170
f 167 203 168
f 167 175 204
f 167 204 205
f 167 205 203
f 168 203 206
f 168 206 169
f 169 207 208
f 169 208 209
f 169 209 179
f 169 206 207
f 170 202 171
f 171 202 210
f 171 210 211
f 171 211 212
f 171 212 213
f 171 213 172
f 172 213 173
f 173 213 212
f 173 212 214
f 173 214 215
f 173 215 176
f 175 177 204
f 176 215 216
f 176 216 177
f 177 216 217
f 177 217 204
f 179 209 180
f 180 209 208
f 180 208 218
f 182 191 183
f 183 191 190
f 183 190 219
f 183 219 194
f 183 194 193
f 187 220 221
f 187 221 188
f 188 221 189
f 189 221 222
f 189 222 255
f 189 255 223
f 189 223 190
f 190 223 225
f 190 225 224
f 190 224 219
f 194 224 195
f 194 219 224
f 195 225 226
f 195 226 196
f 195 224 225
f 196 226 227
f 196 227 197
f 197 227 228
f 197 228 229
f 197 229 230
f 197 230 198
f 198 230 231
f 198 231 199
f 201 232 202
f 202 232 233
f 202 233 234
f 202 234 211
f 202 211 210
f 203 205 206
f 204 217 235
f 204 235 206
f 204 206 205
f 206 235 236
f 206 236 237
f 206 237 238
f 206 238 239
f 206 239 240
f 206 240 207
f 207 240 208
f 208 240 239
f 208 239 241
f 208 241 242
f 208 242 218
f 211 234 212
f 212 234 243
f 212 243 214
f 214 243 215
f 215 243 244
f 215 244 245
f 215 245 246
f 215 246 247
f 215 247 248
f 215 248 216
f 216 248 247
f 216 247 249
f 216 249 250
f 216 250 217
f 217 236 235
f 217 250 251
f 217 251 236
f 220 252 221
f 221 252 253
f 221 253 254
f 221 254 222
f 222 254 255
f 223 255 225
f 225 255 256
f 225 256 226
f 226 256 257
f 226 257 228
f 226 228 227
f 228 257 258
f 228 258 229
f 229 258 259
f 229 259 260
f 229 260 230
f 230 260 261
f 230 261 262
f 230 262 231
f 231 262 263
f 234 264 265
f 234 265 244
f 234 244 243
f 236 251 266
f 236 266 267
f 236 267 237
f 237 268 238
f 237 267 268
f 238 269 239
f 238 268 269
f 239 269 241
f 241 269 242
f 242 269 270
f 244 265 271
f 244 271 272
f 244 272 273
f 244 273 245
f 245 273 274
f 245 274 275
f 245 275 276
f 245 276 277
f 245 277 246
f 246 277 278
f 246 278 279
f 246 279 249
f 246 249 247
f 249 279 250
f 250 279 251
f 251 279 266
f 252 280 253
f 253 280 314
f 253 314 281
f 253 281 254
f 254 281 282
f 254 282 317
f 254 317 283
f 254 283 255
f 255 283 284
f 255 284 285
f 255 285 256
f 256 285 257
f 257 285 284
f 257 284 286
f 257 286 258
f 258 286 287
f 258 287 259
f 259 287 288
f 259 288 289
f 259 289 290
f 259 290 260
f 260 290 261
f 261 290 291
f 261 291 292
f 261 292 293
f 261 293 294
f 261 294 262
f 262 294 263
f 264 295 296
f 264 296 265
f 265 296 271
f 266 279 297
f 266 297 298
f 266 298 299
f 266 299 267
f 267 299 300
f 267 300 268
f 268 301 269
f 268 300 302
f 268 302 303
f 268 303 304
f 268 304 301
f 269 301 270
f 271 296 305
f 271 305 274
f 271 274 273
f 271 273 272
f 274 305 306
f 274 306 275
f 275 306 307
f 275 307 308
f 275 308 309
f 275 309 310
f 275 310 276
f 276 310 277
f 277 310 311
f 277 311 312
f 277 312 278
f 278 297 279
f 278 312 313
f 278 313 297
f 281 314 349
f 281 349 315
f 281 315 316
f 281 316 282
f 282 316 317
f 283 317 284
f 284 317 318
f 284 318 286
f 286 318 287
f 287 319 320
f 287 320 288
f 287 318 319
f 288 320 321
f 288 321 322
f 288 322 323
f 288 323 324
f 288 324 289
f 289 324 325
f 289 325 326
f 289 326 291
f 289 291 290
f 291 327 328
f 291 328 292
f 291 326 327
f 295 329 296
f 296 329 305
f 297 313 330
f 297 330 298
f 298 330 331
f 298 331 332
f 298 332 299
f 299 332 300
f 300 332 333
f 300 333 302
f 305 329 306
f 306 329 334
f 306 334 307
f 307 335 336
f 307 336 337
f 307 337 308
f 307 334 338
f 307 338 335
f 308 337 309
f 309 339 310
f 309 337 340
f 309 340 341
f 309 341 342
f 309 342 339
f 310 339 343
f 310 343 311
f 311 344 312
f 311 343 344
f 312 344 345
f 312 345 346
f 312 346 313
f 313 346 345
f 313 345 347
f 313 347 348
f 313 348 330
f 315 350 351
f 315 351 316
f 315 349 352
f 315 352 350
f 316 351 353
f 316 353 354
f 316 354 355
f 316 355 317
f 317 355 318
f 318 355 356
f 318 356 357
f 318 357 319
f 319 357 320
f 320 357 321
f 321 357 358
f 321 358 359
f 321 359 360
f 321 360 361
f 321 361 322
f 322 361 323
f 323 325 324
f 323 361 362
f 323 362 363
f 323 363 325
f 325 363 364
f 325 364 365
f 325 365 326
f 326 365 366
f 326 366 367
f 326 367 327
f 330 348 368
f 330 368 331
f 331 368 369
f 331 369 370
f 331 370 332
f 332 370 371
f 332 371 333
f 336 372 340
f 336 340 337
f 339 373 343
f 339 342 374
f 339 374 373
f 340 372 375
f 340 375 376
f 340 376 341
f 341 376 377
f 341 377 378
f 341 378 342
f 342 378 374
f 343 373 344
f 344 373 345
f 345 373 374
f 345 374 379
f 345 379 380
f 345 380 347
f 347 380 381
f 347 381 382
f 347 382 368
f 347 368 348
f 350 383 384
f 350 384 385
f 350 385 386
f 350 386 387
f 350 387 388
f 350 388 351
f 350 352 383
f 351 388 353
f 353 388 389
f 353 389 354
f 354 389 390
f 354 390 355
f 355 390 356
f 356 390 389
f 356 389 357
f 357 389 391
f 357 391 358
f 358 391 392
f 358 392 393
f 358 393 394
f 358 394 359
f 359 394 395
f 359 395 396
f 359 396 360
f 360 396 397
f 360 397 362
f 360 362 361
f 362 398 363
f 362 397 399
f 362 399 398
f 363 398 364
f 368 382 400
f 368 400 369
f 369 401 402
f 369 402 371
f 369 371 370
f 369 400 403
f 369 403 404
f 369 404 405
f 369 405 401
f 374 378 406
f 374 406 407
f 374 407 379
f 375 408 376
f 376 408 409
f 376 409 399
f 376 399 377
f 377 399 397
f 377 397 378
f 378 410 406
f 378 397 396
f 378 396 410
f 379 407 411
f 379 411 380
f 380 411 412
f 380 412 381
f 381 400 382
f 381 412 413
f 381 413 400
f 385 414 386
f 386 414 415
f 386 415 416
f 386 416 417
f 386 417 387
f 387 391 388
f 387 417 418
f 387 418 391
f 388 391 389
f 391 418 392
f 392 418 419
f 392 419 420
f 392 420 411
f 392 411 393
f 393 411 421
f 393 421 407
f 393 407 394
f 394 406 410
f 394 410 395
f 394 407 406
f 395 410 396
f 398 399 422
f 399 409 423
f 399 423 422
f 400 404 403
f 400 413 424
f 400 424 404
f 404 424 405
f 405 424 425
f 405 425 426
f 407 421 411
f 411 420 412
f 412 420 419
f 412 419 413
f 413 419 425
f 413 425 424
f 416 426 425
f 416 425 417
f 417 425 418
f 418 425 419

