# https://github.com/mikedh/trimesh
v 0.05239626 0.00069639 0.07613109
v 0.05239626 -0.00008830 0.07613109
v 0.05239626 0.00103346 0.07611020
v 0.05160297 0.00173795 0.07631218
v 0.05169714 0.00069639 0.07634004
v 0.05169429 -0.00008830 0.07634004
v 0.05239626 -0.00008830 0.04320734
v 0.05217653 0.00223109 0.07609975
v 0.05239626 0.00222892 0.07601965
v 0.05146315 0.00274807 0.07627039
v 0.04925165 0.00221266 0.07695297
v 0.04925165 0.00069639 0.07704700
v 0.04925165 -0.00008830 0.07704700
v 0.02324449 -0.00008830 0.04320734
v 0.05239626 0.00277191 0.04320734
v 0.05228211 0.00372784 0.07589428
v 0.05239626 0.00372784 0.07585249
v 0.05124057 0.00372784 0.07620771
v 0.04925165 0.00372784 0.07677884
v 0.04773643 0.00372784 0.07717236
v 0.04773643 0.00221266 0.07733953
v 0.04773643 0.00069639 0.07743356
v 0.04846693 -0.00008830 0.07724550
v 0.02324449 0.01098296 0.04320734
v 0.02324449 -0.00008830 0.07878129
v 0.04585023 0.01098296 0.04320734
v 0.05239626 0.01098296 0.05387082
v 0.05228211 0.00524303 0.07560872
v 0.05019617 0.00473580 0.07634353
v 0.05239626 0.00523761 0.07556692
v 0.04773643 0.00524303 0.07690769
v 0.04622119 0.00524303 0.07721067
v 0.04622119 0.00372784 0.07746838
v 0.04606996 0.00206309 0.07766340
v 0.04632107 0.00069639 0.07770171
v 0.04773643 -0.00008830 0.07743007
v 0.02324449 0.01098296 0.07654551
v 0.02725371 -0.00008830 0.07878129
v 0.02324449 0.00069639 0.07878477
v 0.05239626 0.01098296 0.07357492
v 0.05239626 0.00537634 0.07553558
v 0.05239626 0.00690453 0.07515947
v 0.05076688 0.00675713 0.07570971
v 0.05072693 0.00524195 0.07607886
v 0.04981095 0.00574484 0.07623209
v 0.04928589 0.00524195 0.07649327
v 0.04622119 0.00675713 0.07686242
v 0.04880079 0.00633877 0.07637835
v 0.04778779 0.00680915 0.07652462
v 0.04323354 0.00523761 0.07767385
v 0.04275985 0.00472930 0.07785494
v 0.04377000 0.00427626 0.07777484
v 0.04420089 0.00326614 0.07784449
v 0.04521104 0.00246953 0.07776440
v 0.04318788 0.00221266 0.07810220
v 0.04546501 0.00145940 0.07780619
v 0.04470596 0.00069639 0.07795594
v 0.04585594 -0.00008830 0.07778181
v 0.02324449 0.00978858 0.07701565
v 0.02652321 0.01098296 0.07654551
v 0.02803844 0.00069639 0.07878129
v 0.02955367 -0.00008830 0.07877781
v 0.02803844 0.00221266 0.07869423
v 0.02324449 0.00221266 0.07869423
v 0.05219365 0.01098296 0.07365502
v 0.05213373 0.00964010 0.07428536
v 0.05239626 0.00989588 0.07406596
v 0.05239626 0.00700533 0.07512813
v 0.05190545 0.00827340 0.07490525
v 0.05076688 0.00827340 0.07525350
v 0.04832996 0.00734890 0.07624602
v 0.04928589 0.00680915 0.07611717
v 0.04470596 0.00675713 0.07709575
v 0.04731980 0.00779652 0.07637835
v 0.04609849 0.00829074 0.07644800
v 0.04318788 0.00675713 0.07732560
v 0.04167265 0.00501217 0.07791414
v 0.04167265 0.00372784 0.07811961
v 0.04323354 0.00375386 0.07792807
v 0.04167265 0.00576977 0.07775395
v 0.04167265 0.00221266 0.07827633
v 0.04318788 0.00069639 0.07819275
v 0.04558486 -0.00008830 0.07782360
v 0.02324449 0.00954364 0.07709923
v 0.02652321 0.00978858 0.07701565
v 0.02955367 0.01098296 0.07654203
v 0.02955367 0.00069639 0.07877781
v 0.03106890 -0.00008830 0.07877084
v 0.02955367 0.00221266 0.07869075
v 0.02955367 0.00372784 0.07853403
v 0.02652321 0.00372784 0.07853752
v 0.02324449 0.00372784 0.07853752
v 0.05076688 0.01098296 0.07415650
v 0.05152878 0.00903533 0.07477639
v 0.05239626 0.00896596 0.07445600
v 0.05239626 0.00965852 0.07416695
v 0.05239626 0.00827340 0.07472764
v 0.04925165 0.00827340 0.07568533
v 0.04778779 0.00829074 0.07608930
v 0.04470596 0.00827340 0.07666392
v 0.04652082 0.00880772 0.07621467
v 0.04318788 0.00827340 0.07689376
v 0.04551066 0.00905050 0.07629477
v 0.04167265 0.00827340 0.07708879
v 0.04167265 0.00675713 0.07751365
v 0.04022020 0.00536767 0.07794897
v 0.03864219 0.00524303 0.07807434
v 0.04015742 0.00372784 0.07822757
v 0.04076808 0.00595402 0.07779574
v 0.04015742 0.00221266 0.07838080
v 0.04167265 0.00069639 0.07836687
v 0.04240601 -0.00008830 0.07827981
v 0.04318788 -0.00008830 0.07818926
v 0.04392124 -0.00008830 0.07807782
v 0.02324449 0.00827340 0.07753107
v 0.02500512 0.00827340 0.07753107
v 0.02955367 0.00978858 0.07701217
v 0.03106890 0.01098296 0.07653507
v 0.03106890 0.00069639 0.07877084
v 0.03258413 -0.00008830 0.07875343
v 0.03106890 0.00221266 0.07868378
v 0.03106890 0.00372784 0.07852707
v 0.02955367 0.00524303 0.07829026
v 0.02803844 0.00524303 0.07829374
v 0.02324449 0.00499809 0.07833553
v 0.05042160 0.01098296 0.07425750
v 0.04979097 0.01039986 0.07471370
v 0.05076688 0.01006171 0.07457440
v 0.05076688 0.00930411 0.07488435
v 0.04773643 0.00978858 0.07553906
v 0.04609849 0.00964877 0.07596045
v 0.04470596 0.00920874 0.07635746
v 0.04318788 0.00950137 0.07647238
v 0.04470596 0.00996741 0.07605796
v 0.04015742 0.00827340 0.07721416
v 0.04164126 0.00988179 0.07652810
v 0.04015742 0.00978858 0.07669526
v 0.04022020 0.00666067 0.07765643
v 0.03712982 0.00524303 0.07816140
v 0.03712982 0.00372784 0.07841215
v 0.03864219 0.00372784 0.07832160
v 0.03975792 0.00609166 0.07782708
v 0.03864219 0.00623148 0.07786190
v 0.03864219 0.00221266 0.07847831
v 0.04015742 0.00069639 0.07847135
v 0.04088793 -0.00008830 0.07841911
v 0.04167265 -0.00008830 0.07836339
v 0.02324449 0.00743777 0.07778529
v 0.02955367 0.00827340 0.07752410
v 0.02500512 0.00743777 0.07778529
v 0.03106890 0.00978858 0.07700521
v 0.03258413 0.01098296 0.07651765
v 0.03258413 0.00978858 0.07699127
v 0.03258413 0.00069639 0.07875343
v 0.03561458 -0.00008830 0.07870468
v 0.03258413 0.00221266 0.07866637
v 0.03258413 0.00372784 0.07850965
v 0.03106890 0.00524303 0.07828329
v 0.03106890 0.00665308 0.07796987
v 0.02955367 0.00666392 0.07797335
v 0.02803844 0.00666826 0.07797683
v 0.02652321 0.00667584 0.07797683
v 0.02500512 0.00668018 0.07797683
v 0.02324449 0.00644716 0.07802907
v 0.02324449 0.00524303 0.07829374
v 0.04943713 0.01098296 0.07454306
v 0.04878082 0.01071959 0.07485301
v 0.04927163 0.00985253 0.07508285
v 0.04773643 0.01098296 0.07501668
v 0.04626115 0.01098296 0.07535101
v 0.04470596 0.01098296 0.07562264
v 0.04318788 0.01025896 0.07617288
v 0.04212351 0.01044972 0.07624950
v 0.03712982 0.00978858 0.07688332
v 0.03864219 0.00827340 0.07730819
v 0.03712982 0.00717115 0.07771564
v 0.03864219 0.00699015 0.07767037
v 0.04111336 0.01060253 0.07631218
v 0.04015742 0.01068382 0.07634701
v 0.03712982 0.00641356 0.07790718
v 0.03561458 0.00524303 0.07821712
v 0.03561458 0.00372784 0.07846438
v 0.03712982 0.00221266 0.07856537
v 0.03864219 0.00069639 0.07856537
v 0.03937270 -0.00008830 0.07852010
v 0.04015742 -0.00008830 0.07846786
v 0.02324449 0.00731530 0.07781663
v 0.03106890 0.00827340 0.07751714
v 0.02803844 0.00742585 0.07778181
v 0.03106890 0.00741068 0.07777832
v 0.03409936 0.01098296 0.07649676
v 0.03409936 0.00978858 0.07697038
v 0.03258413 0.00827340 0.07750321
v 0.03561458 0.00069639 0.07870468
v 0.03634509 -0.00008830 0.07868030
v 0.03561458 0.00221266 0.07861761
v 0.03409936 0.00372784 0.07848876
v 0.03258413 0.00524303 0.07826588
v 0.03258413 0.00662057 0.07795941
v 0.03258413 0.00737924 0.07776788
v 0.02324449 0.00668018 0.07797683
v 0.04902052 0.01098296 0.07466147
v 0.04787625 0.01098296 0.07497838
v 0.04424084 0.01098296 0.07569578
v 0.04278839 0.01098296 0.07591518
v 0.04177252 0.01098296 0.07605448
v 0.04145578 0.01098296 0.07609627
v 0.03561458 0.00978858 0.07694252
v 0.03712982 0.00827340 0.07739873
v 0.03864219 0.01079004 0.07639577
v 0.03712982 0.01089408 0.07644452
v 0.03561458 0.01096670 0.07647586
v 0.03561458 0.00728387 0.07774698
v 0.04015742 0.01098296 0.07621467
v 0.03561458 0.00652628 0.07793504
v 0.03409936 0.00657505 0.07794897
v 0.03712982 0.00069639 0.07865244
v 0.03785747 -0.00008830 0.07861065
v 0.03864219 -0.00008830 0.07856537
v 0.03489835 0.01098296 0.07648283
v 0.03561458 0.00827340 0.07745445
v 0.03409936 0.00733264 0.07775743
v 0.03712982 -0.00008830 0.07865244
v 0.03561458 0.01098296 0.07646890
v 0.03909305 0.01098296 0.07628084
v 0.03712982 0.01098296 0.07640273
f 1 2 7
f 1 7 15
f 1 15 27
f 1 27 40
f 1 40 67
f 1 67 96
f 1 96 95
f 1 95 97
f 1 97 68
f 1 68 42
f 1 42 41
f 1 41 30
f 1 30 17
f 1 17 9
f 1 9 3
f 1 3 4
f 1 4 5
f 1 5 2
f 2 5 6
f 2 6 13
f 2 13 23
f 2 23 36
f 2 36 58
f 2 58 83
f 2 83 114
f 2 114 113
f 2 113 112
f 2 112 147
f 2 147 146
f 2 146 186
f 2 186 185
f 2 185 219
f 2 219 218
f 2 218 223
f 2 223 195
f 2 195 155
f 2 155 120
f 2 120 88
f 2 88 62
f 2 62 38
f 2 38 25
f 2 25 14
f 2 14 7
f 3 8 4
f 3 9 8
f 4 8 10
f 4 10 11
f 4 11 12
f 4 12 5
f 5 12 13
f 5 13 6
f 7 14 24
f 7 24 26
f 7 26 15
f 8 9 16
f 8 16 10
f 9 17 16
f 10 16 18
f 10 18 19
f 10 19 11
f 11 19 20
f 11 20 21
f 11 21 22
f 11 22 12
f 12 22 13
f 13 22 23
f 14 25 39
f 14 39 64
f 14 64 92
f 14 92 125
f 14 125 165
f 14 165 164
f 14 164 201
f 14 201 187
f 14 187 148
f 14 148 115
f 14 115 84
f 14 84 59
f 14 59 37
f 14 37 24
f 15 26 27
f 16 17 28
f 16 28 29
f 16 29 18
f 17 30 28
f 18 29 19
f 19 31 20
f 19 29 31
f 20 32 33
f 20 33 21
f 20 31 32
f 21 33 34
f 21 34 35
f 21 35 22
f 22 36 23
f 22 35 36
f 24 37 60
f 24 60 86
f 24 86 118
f 24 118 152
f 24 152 191
f 24 191 220
f 24 220 224
f 24 224 226
f 24 226 225
f 24 225 214
f 24 214 207
f 24 207 206
f 24 206 205
f 24 205 204
f 24 204 171
f 24 171 170
f 24 170 169
f 24 169 203
f 24 203 202
f 24 202 166
f 24 166 126
f 24 126 93
f 24 93 65
f 24 65 40
f 24 40 27
f 24 27 26
f 25 38 39
f 28 30 41
f 28 41 42
f 28 42 43
f 28 43 44
f 28 44 29
f 29 44 45
f 29 45 46
f 29 46 31
f 31 47 32
f 31 46 48
f 31 48 49
f 31 49 47
f 32 47 50
f 32 50 51
f 32 51 52
f 32 52 33
f 33 52 53
f 33 53 54
f 33 54 34
f 34 54 55
f 34 55 56
f 34 56 35
f 35 56 57
f 35 57 58
f 35 58 36
f 37 59 85
f 37 85 60
f 38 61 39
f 38 62 61
f 39 61 63
f 39 63 64
f 40 65 66
f 40 66 67
f 42 68 69
f 42 69 43
f 43 69 70
f 43 70 71
f 43 71 72
f 43 72 48
f 43 48 45
f 43 45 44
f 45 48 46
f 47 73 50
f 47 49 74
f 47 74 75
f 47 75 73
f 48 72 71
f 48 71 49
f 49 71 74
f 50 73 76
f 50 76 51
f 51 77 78
f 51 78 79
f 51 79 52
f 51 76 80
f 51 80 77
f 52 79 53
f 53 79 55
f 53 55 54
f 55 79 78
f 55 78 81
f 55 81 111
f 55 111 82
f 55 82 56
f 56 82 57
f 57 82 58
f 58 82 83
f 59 84 85
f 60 85 117
f 60 117 86
f 61 62 87
f 61 87 89
f 61 89 63
f 62 88 119
f 62 119 87
f 63 89 90
f 63 90 91
f 63 91 92
f 63 92 64
f 65 93 94
f 65 94 66
f 66 95 96
f 66 96 67
f 66 94 95
f 68 97 69
f 69 97 94
f 69 94 70
f 70 94 98
f 70 98 71
f 71 98 99
f 71 99 74
f 73 75 100
f 73 100 102
f 73 102 76
f 74 99 101
f 74 101 75
f 75 102 100
f 75 101 103
f 75 103 102
f 76 102 104
f 76 104 105
f 76 105 80
f 77 106 107
f 77 107 108
f 77 108 78
f 77 80 109
f 77 109 106
f 78 108 81
f 80 105 109
f 81 108 110
f 81 110 145
f 81 145 111
f 82 112 113
f 82 113 114
f 82 114 83
f 82 111 112
f 84 115 116
f 84 116 85
f 85 116 117
f 86 117 151
f 86 151 118
f 87 119 121
f 87 121 89
f 88 120 154
f 88 154 119
f 89 121 122
f 89 122 90
f 90 122 158
f 90 158 123
f 90 123 124
f 90 124 91
f 91 124 125
f 91 125 92
f 93 126 127
f 93 127 128
f 93 128 94
f 94 129 130
f 94 130 99
f 94 99 98
f 94 97 95
f 94 128 129
f 99 130 101
f 101 130 131
f 101 131 103
f 102 103 132
f 102 132 133
f 102 133 104
f 103 131 134
f 103 134 132
f 104 135 105
f 104 133 136
f 104 136 137
f 104 137 135
f 105 138 109
f 105 135 138
f 106 109 107
f 107 139 140
f 107 140 141
f 107 141 108
f 107 109 142
f 107 142 143
f 107 143 139
f 108 141 144
f 108 144 110
f 109 138 142
f 110 144 145
f 111 145 146
f 111 146 147
f 111 147 112
f 115 148 150
f 115 150 116
f 116 149 117
f 116 150 149
f 117 149 188
f 117 188 151
f 118 151 153
f 118 153 152
f 119 154 156
f 119 156 121
f 120 155 194
f 120 194 154
f 121 156 157
f 121 157 122
f 122 157 198
f 122 198 158
f 123 158 159
f 123 159 160
f 123 160 161
f 123 161 124
f 124 161 162
f 124 162 163
f 124 163 164
f 124 164 165
f 124 165 125
f 126 166 127
f 127 167 130
f 127 130 168
f 127 168 129
f 127 129 128
f 127 166 167
f 129 168 130
f 130 167 169
f 130 169 170
f 130 170 131
f 131 170 171
f 131 171 134
f 132 134 133
f 133 134 172
f 133 172 173
f 133 173 136
f 134 171 172
f 135 137 174
f 135 174 175
f 135 175 176
f 135 176 177
f 135 177 138
f 136 173 178
f 136 178 137
f 137 178 179
f 137 179 174
f 138 177 143
f 138 143 142
f 139 143 180
f 139 180 181
f 139 181 140
f 140 182 196
f 140 196 183
f 140 183 144
f 140 144 141
f 140 181 182
f 143 177 180
f 144 183 217
f 144 217 184
f 144 184 145
f 145 184 185
f 145 185 186
f 145 186 146
f 148 187 150
f 149 150 189
f 149 189 190
f 149 190 188
f 150 187 163
f 150 163 162
f 150 162 161
f 150 161 189
f 151 188 193
f 151 193 153
f 152 153 192
f 152 192 191
f 153 193 192
f 154 194 196
f 154 196 156
f 155 195 194
f 156 196 182
f 156 182 197
f 156 197 157
f 157 197 198
f 158 198 159
f 159 198 199
f 159 199 200
f 159 200 190
f 159 190 160
f 160 190 161
f 161 190 189
f 163 201 164
f 163 187 201
f 166 202 167
f 167 202 203
f 167 203 169
f 171 204 172
f 172 204 205
f 172 205 173
f 173 205 206
f 173 206 207
f 173 207 178
f 174 208 209
f 174 209 175
f 174 179 210
f 174 210 211
f 174 211 212
f 174 212 208
f 175 209 176
f 176 213 180
f 176 180 177
f 176 209 213
f 178 207 214
f 178 214 179
f 179 214 210
f 180 215 181
f 180 213 215
f 181 215 216
f 181 216 198
f 181 198 197
f 181 197 182
f 183 196 194
f 183 194 217
f 184 217 218
f 184 218 219
f 184 219 185
f 188 190 193
f 190 200 193
f 191 192 220
f 192 221 208
f 192 208 220
f 192 193 221
f 193 200 222
f 193 222 221
f 194 195 217
f 195 223 217
f 198 216 199
f 199 216 200
f 200 216 222
f 208 212 220
f 208 221 209
f 209 221 213
f 210 214 211
f 211 224 212
f 211 214 225
f 211 225 226
f 211 226 224
f 212 224 220
f 213 222 216
f 213 216 215
f 213 221 222
f 217 223 218

