# https://github.com/mikedh/trimesh
v -0.04886790 -0.00008830 0.03173358
v -0.05526640 -0.00008830 0.03913958
v -0.05467885 0.01062452 0.05195116
v -0.05414329 0.01062452 0.05195116
v -0.04886790 0.01063606 0.05265798
v -0.04886790 -0.00008830 0.07714312
v -0.05526640 -0.00008830 0.07495155
v -0.05526640 0.01063606 0.05275133
v -0.05471768 0.01063606 0.05201784
v -0.05421971 0.01063606 0.05201784
v -0.05410258 0.01063606 0.05202229
v -0.04886790 0.01063606 0.07486709
v -0.04886790 0.00069693 0.07714757
v -0.04925250 -0.00008830 0.07704533
v -0.05379878 -0.00008830 0.07560502
v -0.05510729 0.00069693 0.07502268
v -0.05526640 0.00069693 0.07495155
v -0.05526640 0.01063606 0.07247548
v -0.04965026 0.01063606 0.07464482
v -0.04979244 0.01039987 0.07471150
v -0.04886790 0.00983510 0.07520494
v -0.04886790 0.00221278 0.07704977
v -0.04925250 0.00221278 0.07695197
v -0.04925250 0.00069693 0.07704533
v -0.05076835 0.00069693 0.07660968
v -0.05003736 -0.00008830 0.07681861
v -0.05315173 -0.00008830 0.07584952
v -0.05379878 0.00069693 0.07560502
v -0.05499580 0.00221278 0.07497378
v -0.05379878 0.00221278 0.07550722
v -0.05526640 0.00221278 0.07484931
v -0.05526640 0.00976581 0.07288000
v -0.05425416 0.01024450 0.07312450
v -0.05329454 0.01063606 0.07336900
v -0.05076835 0.01063606 0.07431142
v -0.05076835 0.01006184 0.07457370
v -0.05076835 0.00930392 0.07488487
v -0.04886790 0.00827725 0.07579173
v -0.04886790 0.00259699 0.07700976
v -0.04886790 0.00372759 0.07688085
v -0.04925250 0.00372759 0.07677860
v -0.05146488 0.00274816 0.07627183
v -0.05088297 0.00223063 0.07648076
v -0.05160331 0.00173829 0.07631184
v -0.05170040 0.00069693 0.07633851
v -0.05169727 -0.00008830 0.07633851
v -0.05245457 -0.00008830 0.07611180
v -0.05245707 0.00069693 0.07611180
v -0.05478972 0.00372759 0.07488042
v -0.05526640 0.00297911 0.07475596
v -0.05379878 0.00372759 0.07532497
v -0.05217770 0.00223063 0.07609846
v -0.05228294 0.00372759 0.07589397
v -0.05526640 0.00974587 0.07288890
v -0.05475088 0.00923463 0.07334232
v -0.05376871 0.00975951 0.07355126
v -0.05213448 0.00963984 0.07428474
v -0.05218021 0.01063606 0.07381798
v -0.05131768 0.01063606 0.07412026
v -0.05153128 0.00903518 0.07477374
v -0.04925250 0.00827305 0.07568504
v -0.04886790 0.00704588 0.07617403
v -0.04886790 0.00524239 0.07660523
v -0.04928633 0.00524134 0.07649410
v -0.05019896 0.00473536 0.07634296
v -0.05124252 0.00372759 0.07620515
v -0.05208876 -0.00008830 0.07622293
v -0.05462185 0.00461463 0.07480041
v -0.05526640 0.00399737 0.07461815
v -0.05526640 0.00372759 0.07466261
v -0.05228294 0.00524344 0.07560947
v -0.05383386 0.00516891 0.07502713
v -0.05526640 0.00894490 0.07323119
v -0.05379878 0.00827305 0.07414249
v -0.05266440 0.00827305 0.07462704
v -0.05190774 0.00827305 0.07490710
v -0.05076835 0.00827305 0.07525384
v -0.05303898 0.00751302 0.07477374
v -0.05076835 0.00675720 0.07570726
v -0.04886790 0.00630160 0.07636963
v -0.04981374 0.00574418 0.07623182
v -0.05072951 0.00524134 0.07608068
v -0.05520187 0.00516891 0.07441366
v -0.05526640 0.00517416 0.07438254
v -0.05243327 0.00690731 0.07514270
v -0.05335155 0.00650315 0.07491154
v -0.05436190 0.00562450 0.07468483
v -0.05526640 0.00823211 0.07350236
v -0.05526640 0.00820692 0.07351125
v -0.05526640 0.00676244 0.07398246
f 1 2 3
f 1 3 4
f 1 4 5
f 1 5 12
f 1 12 21
f 1 21 38
f 1 38 62
f 1 62 80
f 1 80 63
f 1 63 40
f 1 40 39
f 1 39 22
f 1 22 13
f 1 13 6
f 1 6 14
f 1 14 26
f 1 26 46
f 1 46 67
f 1 67 47
f 1 47 27
f 1 27 15
f 1 15 7
f 1 7 2
f 2 7 17
f 2 17 31
f 2 31 50
f 2 50 70
f 2 70 69
f 2 69 84
f 2 84 90
f 2 90 89
f 2 89 88
f 2 88 73
f 2 73 54
f 2 54 32
f 2 32 18
f 2 18 8
f 2 8 3
f 3 8 9
f 3 9 10
f 3 10 4
f 4 10 11
f 4 11 5
f 5 11 10
f 5 10 9
f 5 9 8
f 5 8 18
f 5 18 34
f 5 34 58
f 5 58 59
f 5 59 35
f 5 35 19
f 5 19 12
f 6 13 14
f 7 15 16
f 7 16 17
f 12 19 20
f 12 20 21
f 13 22 23
f 13 23 24
f 13 24 14
f 14 24 25
f 14 25 26
f 15 27 28
f 15 28 16
f 16 29 17
f 16 28 30
f 16 30 29
f 17 29 31
f 18 32 33
f 18 33 34
f 19 35 20
f 20 35 36
f 20 36 37
f 20 37 21
f 21 37 38
f 22 39 23
f 23 39 40
f 23 40 41
f 23 41 42
f 23 42 43
f 23 43 44
f 23 44 24
f 24 44 25
f 25 44 45
f 25 45 46
f 25 46 26
f 27 47 48
f 27 48 28
f 28 48 30
f 29 49 50
f 29 50 31
f 29 30 51
f 29 51 49
f 30 48 52
f 30 52 53
f 30 53 51
f 32 54 33
f 33 55 56
f 33 56 34
f 33 54 55
f 34 56 57
f 34 57 58
f 35 59 36
f 36 59 60
f 36 60 37
f 37 60 38
f 38 60 61
f 38 61 62
f 40 63 41
f 41 63 64
f 41 64 65
f 41 65 66
f 41 66 42
f 42 66 53
f 42 53 52
f 42 52 44
f 42 44 43
f 44 52 48
f 44 48 45
f 45 48 67
f 45 67 46
f 47 67 48
f 49 68 69
f 49 69 70
f 49 70 50
f 49 51 68
f 51 53 71
f 51 71 72
f 51 72 68
f 53 66 65
f 53 65 71
f 54 73 55
f 55 73 74
f 55 74 56
f 56 74 75
f 56 75 57
f 57 75 60
f 57 60 58
f 58 60 59
f 60 76 77
f 60 77 61
f 60 75 78
f 60 78 76
f 61 77 62
f 62 77 79
f 62 79 80
f 63 80 64
f 64 80 81
f 64 81 82
f 64 82 65
f 65 82 71
f 68 72 83
f 68 83 84
f 68 84 69
f 71 82 79
f 71 79 85
f 71 85 86
f 71 86 72
f 72 86 87
f 72 87 83
f 73 88 78
f 73 78 74
f 74 78 75
f 76 85 79
f 76 79 77
f 76 78 85
f 78 88 89
f 78 89 90
f 78 90 86
f 78 86 85
f 79 82 81
f 79 81 80
f 83 87 90
f 83 90 84
f 86 90 87

