# https://github.com/mikedh/trimesh
v 0.02118205 -0.00940450 0.07713837
v -0.02500444 -0.00940450 0.07714585
v 0.02118205 -0.00991278 0.07696642
v 0.02118205 -0.00940450 0.01454166
v -0.02604458 -0.00940450 0.07713837
v -0.02604458 -0.00943605 0.07713089
v -0.02604458 -0.00991278 0.07696642
v 0.02118205 -0.01112563 0.07648796
v 0.02118205 -0.01553652 0.00281926
v 0.00906567 -0.00940450 0.00240060
v -0.02604458 -0.00940450 0.01336793
v -0.02604458 -0.01112329 0.07648796
v -0.02500444 -0.01112563 0.07648796
v 0.02118205 -0.01188395 0.07615154
v 0.02118205 -0.01585083 0.00229594
v 0.00827979 -0.00940450 0.00169038
v -0.00827911 -0.00940450 0.00169038
v -0.02604458 -0.01652152 0.00181748
v -0.02604458 -0.01188162 0.07615154
v -0.02500444 -0.01188395 0.07615154
v 0.02118205 -0.01294373 0.07561326
v 0.02118205 -0.01626096 0.00170533
v 0.00795619 -0.00940450 0.00159319
v -0.00681831 -0.00940450 0.00141377
v -0.02604458 -0.01748900 0.00148853
v -0.02604458 -0.01294373 0.07561326
v 0.02118205 -0.01353497 0.07529180
v 0.02118205 -0.01681948 0.00154834
v 0.00681898 -0.00940450 0.00141377
v -0.02500444 -0.01748900 0.00144367
v -0.00530203 -0.00940450 0.00137639
v -0.01742766 -0.02134137 0.00077830
v -0.01759870 -0.02134137 0.00078578
v -0.02604458 -0.01900447 0.00137639
v -0.02604458 -0.01407362 0.07499276
v -0.02500444 -0.01407596 0.07499276
v 0.02118205 -0.01407596 0.07499276
v 0.02118205 -0.01748900 0.00137639
v 0.00631047 -0.00940450 0.00137639
v 0.01591205 -0.02134137 0.00077083
v -0.02604458 -0.02051995 0.00137639
v -0.02604458 -0.02134137 0.00141377
v -0.02604458 -0.01459358 0.07467876
v 0.02118205 -0.01447207 0.07475352
v 0.02118205 -0.02051995 0.00135396
v 0.01901858 -0.02134137 0.00096521
v 0.01742371 -0.02134137 0.00077830
v -0.02604458 -0.02134137 0.06886989
v 0.02118205 -0.01483311 0.07452924
v -0.02604458 -0.01483195 0.07452924
v -0.02500444 -0.01483311 0.07452924
v 0.02118205 -0.02134137 0.00138387
v 0.02118205 -0.02134137 0.06886989
v -0.02604458 -0.02116611 0.06907175
v 0.02118205 -0.01542902 0.07414049
v -0.02604458 -0.01597352 0.07378164
v 0.02118205 -0.02070807 0.06958760
v -0.02500444 -0.02070807 0.06958760
v -0.02604458 -0.02070690 0.06958760
v 0.02118205 -0.01597352 0.07378164
v -0.02604458 -0.01673769 0.07325832
v 0.02118205 -0.02034702 0.06998382
v -0.02500444 -0.01995092 0.07041743
v -0.02604458 -0.02046854 0.06984925
v 0.02118205 -0.01673652 0.07325832
v -0.02604458 -0.01725765 0.07283966
v 0.02118205 -0.01995092 0.07041743
v -0.02604458 -0.01970554 0.07065666
v -0.02604458 -0.01994975 0.07041743
v 0.02118205 -0.01749484 0.07264529
v -0.02604458 -0.01749484 0.07264529
v 0.02118205 -0.01917273 0.07117251
v -0.02500444 -0.01917273 0.07117251
v -0.02604458 -0.01917156 0.07117251
v 0.02118205 -0.01841558 0.07189021
v -0.02604458 -0.01841324 0.07188273
v -0.02500444 -0.01841558 0.07189021
v 0.02118205 -0.01881168 0.07151641
v -0.02604458 -0.01893320 0.07139679
f 1 2 3
f 1 3 8
f 1 8 14
f 1 14 21
f 1 21 27
f 1 27 37
f 1 37 44
f 1 44 49
f 1 49 55
f 1 55 60
f 1 60 65
f 1 65 70
f 1 70 75
f 1 75 78
f 1 78 72
f 1 72 67
f 1 67 62
f 1 62 57
f 1 57 53
f 1 53 52
f 1 52 45
f 1 45 38
f 1 38 28
f 1 28 22
f 1 22 15
f 1 15 9
f 1 9 4
f 1 4 10
f 1 10 16
f 1 16 23
f 1 23 29
f 1 29 39
f 1 39 31
f 1 31 24
f 1 24 17
f 1 17 11
f 1 11 5
f 1 5 2
f 2 5 6
f 2 6 7
f 2 7 3
f 3 7 13
f 3 13 8
f 4 9 10
f 5 11 18
f 5 18 25
f 5 25 34
f 5 34 41
f 5 41 42
f 5 42 48
f 5 48 54
f 5 54 59
f 5 59 64
f 5 64 69
f 5 69 68
f 5 68 74
f 5 74 79
f 5 79 76
f 5 76 71
f 5 71 66
f 5 66 61
f 5 61 56
f 5 56 50
f 5 50 43
f 5 43 35
f 5 35 26
f 5 26 19
f 5 19 12
f 5 12 7
f 5 7 6
f 7 12 13
f 8 13 20
f 8 20 14
f 9 15 16
f 9 16 10
f 11 17 18
f 12 19 20
f 12 20 13
f 14 20 26
f 14 26 21
f 15 22 16
f 16 22 23
f 17 24 18
f 18 24 25
f 19 26 20
f 21 26 27
f 22 28 29
f 22 29 23
f 24 30 25
f 24 31 32
f 24 32 30
f 25 30 32
f 25 32 33
f 25 33 34
f 26 35 36
f 26 36 27
f 27 36 37
f 28 38 29
f 29 38 39
f 31 39 40
f 31 40 32
f 32 40 47
f 32 47 46
f 32 46 52
f 32 52 53
f 32 53 48
f 32 48 42
f 32 42 33
f 33 41 34
f 33 42 41
f 35 43 36
f 36 43 44
f 36 44 37
f 38 45 46
f 38 46 47
f 38 47 39
f 39 47 40
f 43 49 44
f 43 50 51
f 43 51 49
f 45 52 46
f 48 53 54
f 49 51 55
f 50 56 51
f 51 56 55
f 53 57 54
f 54 57 58
f 54 58 59
f 55 56 60
f 56 61 60
f 57 62 58
f 58 62 63
f 58 63 64
f 58 64 59
f 60 61 65
f 61 66 65
f 62 67 63
f 63 67 68
f 63 68 69
f 63 69 64
f 65 66 70
f 66 71 70
f 67 72 68
f 68 73 74
f 68 72 73
f 70 71 77
f 70 77 75
f 71 76 77
f 72 78 73
f 73 78 77
f 73 77 74
f 74 77 79
f 75 77 78
f 76 79 77

