# https://github.com/mikedh/trimesh
v -0.05236488 0.01507418 0.07105856
v -0.05236488 0.01575345 0.07054761
v -0.05345555 0.01533272 0.07040850
v -0.05434431 0.01507418 0.07021322
v -0.05236488 0.01507418 0.05216679
v -0.05236488 0.01612716 0.07025335
v -0.05253848 0.01634222 0.07000991
v -0.05389709 0.01584276 0.06979858
v -0.05444054 0.01507418 0.07016774
v -0.05894850 0.01507418 0.04372943
v -0.05236488 0.01926613 0.04372943
v -0.05236488 0.01638806 0.07004736
v -0.05379897 0.01688164 0.06896661
v -0.05464056 0.01666188 0.06876063
v -0.05521420 0.01582043 0.06912445
v -0.05528401 0.01507418 0.06968890
v -0.07164021 0.01507418 0.04372943
v -0.05236488 0.02707889 0.04372943
v -0.05236488 0.01669126 0.06977450
v -0.05236488 0.01720482 0.06931170
v -0.05262339 0.01792992 0.06852789
v -0.05634260 0.01529512 0.06888368
v -0.05379897 0.01763965 0.06822025
v -0.05379897 0.01837533 0.06746051
v -0.05460848 0.01815439 0.06722778
v -0.05512928 0.01725653 0.06783503
v -0.05644827 0.01684169 0.06743109
v -0.05745780 0.01651733 0.06711275
v -0.05565197 0.01630579 0.06844228
v -0.05643317 0.01507418 0.06900139
v -0.07150058 0.01507418 0.04491452
v -0.07134207 0.01526809 0.04522483
v -0.07143076 0.01540089 0.04372943
v -0.05236488 0.02707889 0.04374281
v -0.05289134 0.02698487 0.04372943
v -0.05236488 0.01761850 0.06892916
v -0.05236488 0.01798986 0.06858407
v -0.05236488 0.01834242 0.06821490
v -0.05691624 0.01507418 0.06870177
v -0.05834656 0.01543379 0.06748726
v -0.05914663 0.01513294 0.06723045
v -0.05236488 0.01859979 0.06793669
v -0.05236488 0.01942596 0.06702179
v -0.05388577 0.01920267 0.06643594
v -0.05561989 0.01785119 0.06690676
v -0.05519533 0.01853163 0.06641721
v -0.05641242 0.01831892 0.06589824
v -0.05693511 0.01743399 0.06650549
v -0.05742383 0.01802629 0.06556385
v -0.05834656 0.01694628 0.06603467
v -0.05834656 0.01619062 0.06679173
v -0.07146284 0.01507418 0.04522483
v -0.07081184 0.01602609 0.04522483
v -0.07091185 0.01614831 0.04372943
v -0.07134396 0.01507418 0.04611030
v -0.07127226 0.01516584 0.04621731
v -0.05236488 0.02697312 0.04522483
v -0.05379897 0.02682034 0.04372943
v -0.05918437 0.01507418 0.06724650
v -0.05915795 0.01665248 0.06572970
v -0.05965799 0.01566648 0.06625938
v -0.06072602 0.01519052 0.06577786
v -0.05926550 0.01507418 0.06717962
v -0.05236488 0.01946944 0.06696829
v -0.05343856 0.01982905 0.06592766
v -0.05444809 0.01958814 0.06561200
v -0.05531609 0.01936837 0.06533914
v -0.05623315 0.01972916 0.06428513
v -0.05682755 0.01887949 0.06492449
v -0.05724457 0.01944006 0.06387316
v -0.05803332 0.01842939 0.06455265
v -0.05846166 0.01776187 0.06500474
v -0.07075523 0.01574287 0.04673093
v -0.06992119 0.01686636 0.04674163
v -0.07005516 0.01703324 0.04522483
v -0.07090430 0.01615889 0.04372943
v -0.07131754 0.01507418 0.04628151
v -0.07113262 0.01507418 0.04718570
v -0.05379897 0.02670517 0.04522483
v -0.05236488 0.02684385 0.04674163
v -0.05382161 0.02681564 0.04372943
v -0.05904284 0.01808035 0.06411125
v -0.05974291 0.01696508 0.06483086
v -0.06072979 0.01669831 0.06426373
v -0.06016747 0.01620120 0.06527493
v -0.06123361 0.01572172 0.06479341
v -0.06229219 0.01524106 0.06431188
v -0.06096000 0.01507418 0.06567353
v -0.05236488 0.02007467 0.06621658
v -0.05236488 0.02077979 0.06529633
v -0.05379709 0.02040373 0.06492181
v -0.05531609 0.01995363 0.06458207
v -0.05537647 0.02075747 0.06340502
v -0.05592181 0.02108182 0.06252490
v -0.05677660 0.02003707 0.06338361
v -0.05782953 0.01977969 0.06286464
v -0.05883905 0.01947884 0.06241522
v -0.05843524 0.01895470 0.06348794
v -0.05960705 0.01846934 0.06310005
v -0.07110809 0.01507418 0.04730073
v -0.07022877 0.01597909 0.04832798
v -0.06967966 0.01657021 0.04888441
v -0.06928151 0.01762437 0.04674163
v -0.06942681 0.01779125 0.04522483
v -0.06954002 0.01790054 0.04372943
v -0.07014574 0.01715429 0.04372943
v -0.05531609 0.02634204 0.04522483
v -0.05379897 0.02655475 0.04674163
v -0.05531609 0.02647718 0.04372943
v -0.05236488 0.02668284 0.04825575
v -0.06001274 0.01784766 0.06352540
v -0.06061657 0.01812383 0.06264795
v -0.06129210 0.01703324 0.06333546
v -0.06225446 0.01672416 0.06278439
v -0.06173932 0.01625173 0.06379558
v -0.06262430 0.01507418 0.06413800
v -0.06236767 0.01507418 0.06439214
v -0.05236488 0.02082680 0.06523213
v -0.05415561 0.02097958 0.06390794
v -0.05491228 0.02130981 0.06289942
v -0.05537647 0.02162477 0.06196847
v -0.05650676 0.02135447 0.06151370
v -0.05751629 0.02111825 0.06106963
v -0.05693888 0.02087146 0.06196847
v -0.05833901 0.02011110 0.06190159
v -0.05938816 0.01981613 0.06140402
v -0.06000331 0.01898291 0.06202465
v -0.07078353 0.01507418 0.04869180
v -0.07011932 0.01567118 0.04977255
v -0.06957210 0.01642801 0.04977255
v -0.06871353 0.01745162 0.04970568
v -0.06823425 0.01816849 0.04915995
v -0.06920603 0.01727534 0.04832798
v -0.06852484 0.01846934 0.04674163
v -0.06834558 0.01828484 0.04825575
v -0.06867013 0.01862329 0.04522483
v -0.06952116 0.01792287 0.04372943
v -0.05692756 0.02589428 0.04523553
v -0.05653884 0.02584375 0.04674163
v -0.05531609 0.02618221 0.04674163
v -0.05533874 0.02647131 0.04372943
v -0.05379897 0.02636789 0.04825575
v -0.05236488 0.02667227 0.04833601
v -0.06039769 0.01949647 0.06088237
v -0.06107133 0.01848580 0.06163675
v -0.06149778 0.01786294 0.06204337
v -0.06208086 0.01808035 0.06106963
v -0.06281300 0.01696508 0.06175446
v -0.06366591 0.01662662 0.06115791
v -0.06326587 0.01620590 0.06216911
v -0.06374516 0.01519522 0.06277101
v -0.06312246 0.01507418 0.06361100
v -0.05236488 0.02134154 0.06446704
v -0.05314420 0.02119582 0.06422896
v -0.05259698 0.02250617 0.06236974
v -0.05383860 0.02231579 0.06187484
v -0.05437072 0.02259314 0.06098402
v -0.05371029 0.02147669 0.06340502
v -0.05540289 0.02241215 0.06043830
v -0.05693888 0.02168705 0.06048912
v -0.05805030 0.02138385 0.06006110
v -0.05905983 0.02113118 0.05956888
v -0.05847109 0.02092199 0.06048912
v -0.07052313 0.01507418 0.04977255
v -0.07025896 0.01507418 0.05073828
v -0.06990798 0.01536915 0.05128668
v -0.06933812 0.01612716 0.05128668
v -0.06857956 0.01704382 0.05128668
v -0.06809272 0.01801336 0.05016847
v -0.06672090 0.01967863 0.04913587
v -0.06758701 0.01904284 0.04825575
v -0.06776439 0.01922618 0.04674163
v -0.06792856 0.01938130 0.04522483
v -0.06804743 0.01949060 0.04372943
v -0.06877392 0.01873259 0.04372943
v -0.05684831 0.02605058 0.04372943
v -0.05766913 0.02573093 0.04473528
v -0.05749554 0.02567335 0.04574648
v -0.05628222 0.02577206 0.04795347
v -0.05545007 0.02593894 0.04837613
v -0.05379897 0.02616105 0.04977255
v -0.05236488 0.02647953 0.04977255
v -0.06082036 0.01977735 0.05987117
v -0.06183178 0.01942008 0.05923984
v -0.06145250 0.01895353 0.06047040
v -0.06248278 0.01840941 0.06005843
v -0.06349419 0.01799221 0.05942442
v -0.06397537 0.01690162 0.06037677
v -0.06507547 0.01651968 0.05948863
v -0.06481318 0.01594853 0.06052123
v -0.06515472 0.01508358 0.06112313
v -0.06380554 0.01507418 0.06282451
v -0.05236488 0.02194090 0.06346922
v -0.05236488 0.02204431 0.06329534
v -0.05236488 0.02229933 0.06286464
v -0.05236488 0.02254848 0.06244197
v -0.05335931 0.02279409 0.06135854
v -0.05383860 0.02305264 0.06043830
v -0.05495757 0.02283875 0.05997282
v -0.05596709 0.02262251 0.05952608
v -0.05693322 0.02245211 0.05895627
v -0.05750874 0.02263074 0.05801195
v -0.05992217 0.02086559 0.05898303
v -0.06134683 0.02001239 0.05878507
v -0.05839373 0.02240628 0.05744215
v -0.05893151 0.02257786 0.05637745
v -0.05945798 0.02135212 0.05856036
v -0.06085999 0.02129806 0.05690980
v -0.06046939 0.02106419 0.05791832
v -0.07011177 0.01507418 0.05126528
v -0.06975891 0.01515762 0.05217214
v -0.06817197 0.01658197 0.05350168
v -0.06835879 0.01679468 0.05249316
v -0.06789459 0.01780183 0.05128668
v -0.06654353 0.01952115 0.05014707
v -0.06713603 0.01857159 0.05128668
v -0.06510943 0.02111590 0.04882288
v -0.06581893 0.02063877 0.04829321
v -0.06682846 0.01978205 0.04825575
v -0.06599064 0.02013578 0.04969230
v -0.06700583 0.01994540 0.04674163
v -0.06717000 0.02009818 0.04522483
v -0.06728888 0.02020512 0.04372943
v -0.05778235 0.02576854 0.04372943
v -0.05824277 0.02544888 0.04523553
v -0.05853902 0.02549001 0.04372943
v -0.05834656 0.02520796 0.04674163
v -0.05834656 0.02498585 0.04825575
v -0.05729552 0.02560048 0.04674163
v -0.05680491 0.02552409 0.04837613
v -0.05604446 0.02569215 0.04896466
v -0.05505380 0.02584375 0.04977255
v -0.05474434 0.02576266 0.05081318
v -0.05384992 0.02589898 0.05130540
v -0.05236488 0.02623862 0.05128668
v -0.06223370 0.01970918 0.05822864
v -0.06286395 0.01887479 0.05882787
v -0.06386781 0.01832949 0.05841322
v -0.06596234 0.01589212 0.05892685
v -0.06644351 0.01507418 0.05930137
v -0.06626614 0.01507418 0.05957155
v -0.06552645 0.01550900 0.06011193
v -0.06538682 0.01683933 0.05848010
v -0.06516793 0.01507418 0.06111511
v -0.06514717 0.01507418 0.06114186
v -0.06575289 0.01507418 0.06030186
v -0.05236488 0.02289986 0.06179191
v -0.05236488 0.02353682 0.06044900
v -0.05236488 0.02356855 0.06037944
v -0.05236488 0.02404334 0.05925856
v -0.05370651 0.02380360 0.05876099
v -0.05540289 0.02310787 0.05895627
v -0.05649733 0.02286461 0.05851488
v -0.05693322 0.02310905 0.05744215
v -0.05792010 0.02283523 0.05700343
v -0.05992217 0.02160714 0.05738865
v -0.05932023 0.02278822 0.05536625
v -0.06136947 0.02146259 0.05573274
v -0.06186952 0.02098075 0.05617146
v -0.06136947 0.02073396 0.05738865
v -0.06979476 0.01507418 0.05223100
v -0.06932114 0.01507418 0.05346958
v -0.06859466 0.01562065 0.05431760
v -0.06800592 0.01637865 0.05431760
v -0.06714169 0.01738933 0.05418652
v -0.06669260 0.01813911 0.05359264
v -0.06770778 0.01732704 0.05291851
v -0.06684544 0.01829189 0.05280348
v -0.06557362 0.01999476 0.05128668
v -0.06633030 0.01932842 0.05128668
v -0.06514906 0.01962927 0.05352576
v -0.06587554 0.01916154 0.05293188
v -0.06524529 0.02121697 0.04781168
v -0.06493960 0.02098781 0.04977255
v -0.06418293 0.02152135 0.04977255
v -0.06334512 0.02247444 0.04825575
v -0.06353948 0.02260371 0.04707335
v -0.06613217 0.02070340 0.04674163
v -0.06630577 0.02085618 0.04522483
v -0.06643974 0.02096313 0.04372943
v -0.05986178 0.02480134 0.04522483
v -0.05986178 0.02495177 0.04372943
v -0.05999576 0.02452517 0.04684864
v -0.05966932 0.02444290 0.04825575
v -0.05834656 0.02472143 0.04977255
v -0.05683132 0.02527025 0.04977255
v -0.05581236 0.02561341 0.04977255
v -0.05683132 0.02497292 0.05128668
v -0.05527458 0.02548649 0.05130540
v -0.05531609 0.02514685 0.05280348
v -0.05438770 0.02565219 0.05182438
v -0.05337629 0.02579322 0.05245838
v -0.05236488 0.02622334 0.05137228
v -0.05238752 0.02593894 0.05289978
v -0.05236488 0.02601298 0.05252526
v -0.06252995 0.01993952 0.05734852
v -0.06328663 0.01936955 0.05734852
v -0.06419048 0.01861154 0.05734852
v -0.06494715 0.01791700 0.05734852
v -0.06639634 0.01627641 0.05760801
v -0.06682468 0.01526574 0.05836240
v -0.06800592 0.01507418 0.05651923
v -0.06590384 0.01705322 0.05720407
v -0.06668505 0.01661605 0.05660216
v -0.05236488 0.02434536 0.05849883
v -0.05314042 0.02421844 0.05819119
v -0.05414995 0.02404686 0.05774444
v -0.05525382 0.02383533 0.05728432
v -0.05571802 0.02405156 0.05617681
v -0.05672188 0.02379654 0.05573542
v -0.05839373 0.02303854 0.05585580
v -0.05834656 0.02357795 0.05431760
v -0.05983914 0.02290456 0.05417849
v -0.06033164 0.02250264 0.05459046
v -0.06218086 0.02118641 0.05516027
v -0.06357156 0.01957991 0.05645503
v -0.06287527 0.02039080 0.05580765
v -0.06899092 0.01507418 0.05431760
v -0.06836633 0.01531862 0.05543045
v -0.06770967 0.01583454 0.05589593
v -0.06688884 0.01683228 0.05583440
v -0.06645861 0.01790995 0.05460384
v -0.06594158 0.01858569 0.05418652
v -0.06465279 0.02075276 0.05128668
v -0.06544908 0.01838473 0.05557759
v -0.06492828 0.01944829 0.05431760
v -0.06417161 0.02004882 0.05431760
v -0.06347155 0.02103481 0.05321277
v -0.06371686 0.02120522 0.05220157
v -0.06426596 0.02215008 0.04663730
v -0.06537361 0.02131216 0.04674163
v -0.06389612 0.02132509 0.05128668
v -0.06306585 0.02227935 0.04977255
v -0.06215822 0.02268597 0.05059114
v -0.06230729 0.02277529 0.04977255
v -0.06258656 0.02293159 0.04825575
v -0.06131286 0.02388586 0.04684864
v -0.06297716 0.02299270 0.04663730
v -0.06366591 0.02268127 0.04606482
v -0.06554910 0.02144731 0.04522483
v -0.06568118 0.02156483 0.04372943
v -0.06091849 0.02433714 0.04522483
v -0.06076564 0.02426428 0.04641527
v -0.06109020 0.02440530 0.04372943
v -0.06059015 0.02417143 0.04742646
v -0.05935419 0.02430776 0.04977255
v -0.05915795 0.02421139 0.05062592
v -0.05835599 0.02441000 0.05119305
v -0.05785594 0.02430658 0.05251189
v -0.05696718 0.02455220 0.05293188
v -0.05531609 0.02476256 0.05431760
v -0.05379897 0.02523264 0.05431760
v -0.05384992 0.02555700 0.05289978
v -0.05296305 0.02567922 0.05346958
v -0.05236488 0.02593189 0.05295863
v -0.05236488 0.02594834 0.05287570
v -0.06516227 0.01812266 0.05658611
v -0.06594158 0.01769488 0.05598153
v -0.06702659 0.01580281 0.05720407
v -0.06807574 0.01507418 0.05638815
v -0.05236488 0.02475316 0.05734585
v -0.05370651 0.02436887 0.05728432
v -0.05470660 0.02424195 0.05673592
v -0.05525382 0.02436769 0.05573542
v -0.05614447 0.02421492 0.05516562
v -0.05724646 0.02404686 0.05431760
v -0.05756535 0.02417613 0.05352309
v -0.05986178 0.02329120 0.05280348
v -0.06062978 0.02267657 0.05357926
v -0.06084867 0.02279644 0.05280348
v -0.06123172 0.02210425 0.05417849
v -0.06160723 0.02234987 0.05280348
v -0.06241485 0.02133096 0.05431760
v -0.06317152 0.02080682 0.05431760
v -0.06868900 0.01507418 0.05506664
v -0.06850031 0.01507418 0.05551071
v -0.06293565 0.02153428 0.05274462
v -0.06192424 0.02254495 0.05159967
v -0.06450938 0.02220532 0.04522483
v -0.06140343 0.02295157 0.05117165
v -0.06137702 0.02328298 0.04977255
v -0.06137702 0.02358971 0.04825575
v -0.06167516 0.02393169 0.04522483
v -0.06289036 0.02323950 0.04522483
v -0.06184876 0.02403863 0.04372943
v -0.06290357 0.02343105 0.04372943
v -0.06375082 0.02273533 0.04522483
v -0.06464524 0.02232989 0.04372943
v -0.06467166 0.02231108 0.04372943
v -0.06183744 0.02404451 0.04372943
v -0.06042599 0.02408564 0.04825575
v -0.06011087 0.02393522 0.04977255
v -0.05974291 0.02378479 0.05119305
v -0.05835599 0.02396930 0.05293188
v -0.05648789 0.02434654 0.05431760
v -0.05379897 0.02482250 0.05583440
v -0.05236488 0.02521149 0.05583440
v -0.05238752 0.02558638 0.05441925
v -0.05236488 0.02575678 0.05377187
v -0.05236488 0.02559226 0.05441925
v -0.06389989 0.02282700 0.04372943
v -0.05236488 0.02558873 0.05443263
f 1 2 3
f 1 3 4
f 1 4 9
f 1 9 16
f 1 16 30
f 1 30 39
f 1 39 59
f 1 59 63
f 1 63 88
f 1 88 117
f 1 117 116
f 1 116 152
f 1 152 192
f 1 192 245
f 1 245 244
f 1 244 246
f 1 246 241
f 1 241 240
f 1 240 302
f 1 302 360
f 1 360 376
f 1 376 375
f 1 375 318
f 1 318 262
f 1 262 261
f 1 261 210
f 1 210 165
f 1 165 164
f 1 164 128
f 1 128 100
f 1 100 78
f 1 78 77
f 1 77 55
f 1 55 52
f 1 52 31
f 1 31 17
f 1 17 10
f 1 10 5
f 1 5 11
f 1 11 18
f 1 18 34
f 1 34 57
f 1 57 80
f 1 80 110
f 1 110 143
f 1 143 182
f 1 182 235
f 1 235 293
f 1 293 295
f 1 295 356
f 1 356 355
f 1 355 399
f 1 399 400
f 1 400 402
f 1 402 397
f 1 397 361
f 1 361 305
f 1 305 250
f 1 250 249
f 1 249 248
f 1 248 247
f 1 247 196
f 1 196 195
f 1 195 194
f 1 194 193
f 1 193 153
f 1 153 118
f 1 118 90
f 1 90 89
f 1 89 64
f 1 64 43
f 1 43 42
f 1 42 38
f 1 38 37
f 1 37 36
f 1 36 20
f 1 20 19
f 1 19 12
f 1 12 6
f 1 6 2
f 2 6 7
f 2 7 3
f 3 7 8
f 3 8 4
f 4 8 9
f 5 10 11
f 6 12 7
f 7 12 13
f 7 13 14
f 7 14 8
f 8 14 9
f 9 14 15
f 9 15 16
f 10 17 33
f 10 33 54
f 10 54 76
f 10 76 106
f 10 106 105
f 10 105 137
f 10 137 175
f 10 175 174
f 10 174 223
f 10 223 280
f 10 280 341
f 10 341 389
f 10 389 388
f 10 388 401
f 10 401 386
f 10 386 385
f 10 385 390
f 10 390 344
f 10 344 282
f 10 282 226
f 10 226 224
f 10 224 176
f 10 176 141
f 10 141 109
f 10 109 81
f 10 81 58
f 10 58 35
f 10 35 18
f 10 18 11
f 12 19 13
f 13 20 21
f 13 21 14
f 13 19 20
f 14 22 15
f 14 21 23
f 14 23 24
f 14 24 25
f 14 25 26
f 14 26 27
f 14 27 28
f 14 28 29
f 14 29 22
f 15 22 16
f 16 22 30
f 17 31 32
f 17 32 33
f 18 35 34
f 20 36 21
f 21 37 38
f 21 38 24
f 21 24 23
f 21 36 37
f 22 39 30
f 22 29 28
f 22 28 40
f 22 40 41
f 22 41 39
f 24 42 43
f 24 43 44
f 24 44 25
f 24 38 42
f 25 45 26
f 25 44 46
f 25 46 47
f 25 47 45
f 26 45 27
f 27 45 48
f 27 48 28
f 28 48 49
f 28 49 50
f 28 50 51
f 28 51 41
f 28 41 40
f 31 52 32
f 32 53 54
f 32 54 33
f 32 52 55
f 32 55 56
f 32 56 53
f 34 35 57
f 35 58 57
f 39 41 59
f 41 51 60
f 41 60 61
f 41 61 62
f 41 62 63
f 41 63 59
f 43 64 65
f 43 65 44
f 44 65 66
f 44 66 67
f 44 67 46
f 45 47 49
f 45 49 48
f 46 67 47
f 47 67 68
f 47 68 69
f 47 69 49
f 49 60 50
f 49 69 70
f 49 70 71
f 49 71 72
f 49 72 60
f 50 60 51
f 53 56 73
f 53 73 74
f 53 74 75
f 53 75 76
f 53 76 54
f 55 77 56
f 56 77 78
f 56 78 73
f 57 79 80
f 57 58 79
f 58 81 79
f 60 62 61
f 60 72 82
f 60 82 83
f 60 83 84
f 60 84 85
f 60 85 62
f 62 85 86
f 62 86 87
f 62 87 88
f 62 88 63
f 64 89 65
f 65 89 90
f 65 90 91
f 65 91 92
f 65 92 66
f 66 92 68
f 66 68 67
f 68 92 93
f 68 93 94
f 68 94 95
f 68 95 70
f 68 70 69
f 70 95 96
f 70 96 97
f 70 97 98
f 70 98 71
f 71 98 99
f 71 99 82
f 71 82 72
f 73 78 100
f 73 100 101
f 73 101 102
f 73 102 74
f 74 103 104
f 74 104 75
f 74 102 103
f 75 104 105
f 75 105 106
f 75 106 76
f 79 107 108
f 79 108 80
f 79 81 109
f 79 109 107
f 80 108 110
f 82 111 83
f 82 99 112
f 82 112 111
f 83 111 84
f 84 86 85
f 84 111 112
f 84 112 113
f 84 113 114
f 84 114 115
f 84 115 86
f 86 115 87
f 87 115 114
f 87 114 116
f 87 116 117
f 87 117 88
f 90 118 91
f 91 118 119
f 91 119 92
f 92 119 93
f 93 119 120
f 93 120 94
f 94 120 121
f 94 121 122
f 94 122 123
f 94 123 124
f 94 124 95
f 95 124 96
f 96 124 125
f 96 125 97
f 97 125 126
f 97 126 127
f 97 127 112
f 97 112 99
f 97 99 98
f 100 128 129
f 100 129 101
f 101 129 102
f 102 129 130
f 102 130 131
f 102 131 132
f 102 132 133
f 102 133 103
f 103 134 104
f 103 133 132
f 103 132 135
f 103 135 134
f 104 134 136
f 104 136 137
f 104 137 105
f 107 138 139
f 107 139 140
f 107 140 108
f 107 109 141
f 107 141 138
f 108 140 142
f 108 142 110
f 110 142 143
f 112 114 113
f 112 127 144
f 112 144 145
f 112 145 146
f 112 146 114
f 114 146 147
f 114 147 148
f 114 148 149
f 114 149 150
f 114 150 151
f 114 151 152
f 114 152 116
f 118 153 154
f 118 154 119
f 119 154 120
f 120 155 156
f 120 156 157
f 120 157 121
f 120 154 158
f 120 158 155
f 121 157 122
f 122 157 159
f 122 159 160
f 122 160 123
f 123 126 125
f 123 125 124
f 123 160 161
f 123 161 162
f 123 162 163
f 123 163 126
f 126 163 162
f 126 162 144
f 126 144 127
f 128 164 129
f 129 164 165
f 129 165 166
f 129 166 130
f 130 166 167
f 130 167 168
f 130 168 169
f 130 169 131
f 131 169 132
f 132 169 170
f 132 170 171
f 132 171 135
f 134 172 173
f 134 173 136
f 134 135 171
f 134 171 172
f 136 173 174
f 136 174 175
f 136 175 137
f 138 141 176
f 138 176 177
f 138 177 178
f 138 178 139
f 139 178 179
f 139 179 140
f 140 179 180
f 140 180 142
f 142 180 181
f 142 181 182
f 142 182 143
f 144 162 183
f 144 183 184
f 144 184 185
f 144 185 147
f 144 147 145
f 145 147 146
f 147 185 186
f 147 186 187
f 147 187 148
f 148 187 188
f 148 188 149
f 149 188 189
f 149 189 190
f 149 190 150
f 150 190 191
f 150 191 151
f 151 192 152
f 151 191 192
f 153 193 154
f 154 193 158
f 155 158 194
f 155 194 195
f 155 195 196
f 155 196 197
f 155 197 156
f 156 197 157
f 157 197 198
f 157 198 199
f 157 199 200
f 157 200 159
f 158 193 194
f 159 200 160
f 160 200 161
f 161 200 201
f 161 201 202
f 161 202 162
f 162 203 204
f 162 204 183
f 162 202 205
f 162 205 206
f 162 206 207
f 162 207 208
f 162 208 209
f 162 209 203
f 165 210 166
f 166 210 211
f 166 211 167
f 167 211 212
f 167 212 213
f 167 213 168
f 168 213 214
f 168 214 169
f 169 215 170
f 169 214 216
f 169 216 215
f 170 217 218
f 170 218 219
f 170 219 171
f 170 215 220
f 170 220 217
f 171 219 172
f 172 221 173
f 172 219 221
f 173 221 222
f 173 222 174
f 174 222 223
f 176 224 177
f 177 225 178
f 177 224 226
f 177 226 225
f 178 227 228
f 178 228 229
f 178 229 179
f 178 225 227
f 179 230 231
f 179 231 180
f 179 229 230
f 180 231 232
f 180 232 181
f 181 232 233
f 181 233 234
f 181 234 235
f 181 235 182
f 183 204 236
f 183 236 184
f 184 237 185
f 184 236 237
f 185 237 186
f 186 237 238
f 186 238 187
f 187 238 189
f 187 189 188
f 189 239 240
f 189 240 241
f 189 241 242
f 189 242 191
f 189 191 190
f 189 238 243
f 189 243 239
f 191 244 245
f 191 245 192
f 191 242 246
f 191 246 244
f 196 247 197
f 197 247 248
f 197 248 249
f 197 249 198
f 198 249 250
f 198 250 251
f 198 251 252
f 198 252 199
f 199 252 253
f 199 253 200
f 200 253 201
f 201 253 202
f 202 253 254
f 202 254 255
f 202 255 206
f 202 206 205
f 203 209 204
f 204 209 236
f 206 208 256
f 206 256 207
f 206 255 257
f 206 257 208
f 207 256 208
f 208 257 258
f 208 258 259
f 208 259 260
f 208 260 209
f 209 260 236
f 210 261 211
f 211 261 262
f 211 262 263
f 211 263 212
f 212 263 264
f 212 264 265
f 212 265 266
f 212 266 267
f 212 267 214
f 212 214 213
f 214 267 266
f 214 266 268
f 214 268 216
f 215 269 220
f 215 216 270
f 215 270 271
f 215 271 269
f 216 268 272
f 216 272 270
f 217 273 218
f 217 220 274
f 217 274 275
f 217 275 276
f 217 276 277
f 217 277 273
f 218 273 278
f 218 278 219
f 219 278 221
f 220 269 274
f 221 278 279
f 221 279 222
f 222 279 280
f 222 280 223
f 225 226 281
f 225 281 227
f 226 282 281
f 227 281 283
f 227 283 228
f 228 284 285
f 228 285 230
f 228 230 229
f 228 283 284
f 230 285 286
f 230 286 231
f 231 286 287
f 231 287 233
f 231 233 232
f 233 288 289
f 233 289 290
f 233 290 291
f 233 291 292
f 233 292 234
f 233 287 288
f 234 293 235
f 234 292 294
f 234 294 295
f 234 295 293
f 236 260 296
f 236 296 297
f 236 297 238
f 236 238 237
f 238 297 298
f 238 298 299
f 238 299 243
f 239 243 300
f 239 300 301
f 239 301 240
f 240 301 302
f 241 246 242
f 243 299 303
f 243 303 304
f 243 304 300
f 250 305 306
f 250 306 251
f 251 306 307
f 251 307 308
f 251 308 252
f 252 308 253
f 253 308 254
f 254 308 309
f 254 309 310
f 254 310 311
f 254 311 255
f 255 311 257
f 257 311 312
f 257 312 313
f 257 313 314
f 257 314 258
f 258 314 315
f 258 315 259
f 259 316 296
f 259 296 260
f 259 315 317
f 259 317 316
f 262 318 263
f 263 318 319
f 263 319 264
f 264 319 320
f 264 320 321
f 264 321 265
f 265 321 322
f 265 322 266
f 266 322 323
f 266 323 271
f 266 271 268
f 268 271 272
f 269 324 274
f 269 271 324
f 270 272 271
f 271 323 325
f 271 325 326
f 271 326 316
f 271 316 327
f 271 327 328
f 271 328 329
f 271 329 324
f 273 277 330
f 273 330 331
f 273 331 279
f 273 279 278
f 274 324 329
f 274 329 332
f 274 332 275
f 275 333 276
f 275 332 334
f 275 334 333
f 276 333 334
f 276 334 335
f 276 335 336
f 276 336 277
f 277 337 338
f 277 338 339
f 277 339 330
f 277 336 337
f 279 331 340
f 279 340 341
f 279 341 280
f 281 342 343
f 281 343 283
f 281 282 342
f 282 344 342
f 283 343 284
f 284 343 345
f 284 345 346
f 284 346 285
f 285 346 347
f 285 347 348
f 285 348 288
f 285 288 286
f 286 288 287
f 288 348 349
f 288 349 350
f 288 350 290
f 288 290 289
f 290 350 351
f 290 351 352
f 290 352 353
f 290 353 291
f 291 353 354
f 291 354 292
f 292 354 294
f 294 354 355
f 294 355 356
f 294 356 295
f 296 316 297
f 297 316 298
f 298 316 326
f 298 326 325
f 298 325 357
f 298 357 299
f 299 357 358
f 299 358 303
f 300 304 301
f 301 304 359
f 301 359 302
f 302 359 304
f 302 304 320
f 302 320 360
f 303 358 304
f 304 358 321
f 304 321 320
f 305 361 362
f 305 362 306
f 306 362 363
f 306 363 307
f 307 363 308
f 308 363 309
f 309 363 364
f 309 364 365
f 309 365 310
f 310 365 366
f 310 366 312
f 310 312 311
f 312 366 367
f 312 367 368
f 312 368 313
f 313 369 314
f 313 368 370
f 313 370 369
f 314 369 371
f 314 371 315
f 315 371 372
f 315 372 373
f 315 373 328
f 315 328 374
f 315 374 317
f 316 317 327
f 317 374 327
f 318 375 319
f 319 375 376
f 319 376 360
f 319 360 320
f 321 358 322
f 322 358 325
f 322 325 323
f 325 358 357
f 327 374 328
f 328 373 377
f 328 377 329
f 329 377 378
f 329 378 334
f 329 334 332
f 330 339 379
f 330 379 340
f 330 340 331
f 334 378 380
f 334 380 381
f 334 381 335
f 335 381 336
f 336 381 382
f 336 382 343
f 336 343 337
f 337 343 338
f 338 343 383
f 338 383 339
f 339 383 384
f 339 384 385
f 339 385 386
f 339 386 387
f 339 387 388
f 339 388 379
f 340 379 389
f 340 389 341
f 342 344 390
f 342 390 385
f 342 385 343
f 343 382 345
f 343 385 383
f 345 382 381
f 345 381 391
f 345 391 346
f 346 391 392
f 346 392 347
f 347 349 348
f 347 392 393
f 347 393 394
f 347 394 367
f 347 367 349
f 349 367 350
f 350 367 395
f 350 395 351
f 351 395 364
f 351 364 396
f 351 396 352
f 352 396 397
f 352 397 398
f 352 398 354
f 352 354 353
f 354 399 355
f 354 398 400
f 354 400 399
f 361 397 396
f 361 396 362
f 362 396 363
f 363 396 364
f 364 395 365
f 365 395 367
f 365 367 366
f 367 394 368
f 368 393 370
f 368 394 393
f 369 370 372
f 369 372 371
f 370 393 380
f 370 380 378
f 370 378 372
f 372 378 377
f 372 377 373
f 379 388 389
f 380 393 392
f 380 392 381
f 381 392 391
f 383 385 384
f 386 401 387
f 387 401 388
f 397 402 398
f 398 402 400

