# https://github.com/mikedh/trimesh
v 0.04917553 0.01098404 0.02097889
v 0.04913746 0.01098404 0.01985855
v 0.04917300 0.01098404 0.02135755
v 0.04832775 0.00560782 0.04320734
v 0.04723883 0.00560782 0.02097889
v 0.04721345 0.00560782 0.02061275
v 0.04910954 0.01098404 0.01946111
v 0.04915523 0.01098404 0.02249354
v 0.04800539 0.01098404 0.03318373
v 0.04794955 0.01098404 0.03353735
v 0.04601284 0.01098404 0.04251260
v 0.04585039 0.01098404 0.04320734
v 0.02324449 0.00560782 0.04320734
v 0.04909431 0.01098404 0.02400819
v 0.04902577 0.01098404 0.02556353
v 0.04899278 0.01098404 0.02603920
v 0.04892171 0.01098404 0.02702498
v 0.04849528 0.01098404 0.03006680
v 0.04711699 0.00560782 0.01936723
v 0.04899024 0.01098404 0.01833451
v 0.02324449 0.01098404 0.04320734
v 0.02324449 0.00560782 0.01891972
v 0.04706876 0.00560782 0.01899795
v 0.04896486 0.01098404 0.01813110
v 0.02324449 0.01098404 0.01715158
v 0.03717456 0.01098404 0.01223835
v 0.03747661 0.00560782 0.01403152
v 0.04700023 0.00560782 0.01850350
v 0.04688855 0.00560782 0.01784945
v 0.04891409 0.01098404 0.01785258
v 0.03732685 0.01098404 0.01218828
v 0.03866706 0.01098404 0.01175955
v 0.03864422 0.00560782 0.01370293
v 0.04645196 0.00560782 0.01643181
v 0.04861711 0.01098404 0.01646936
v 0.03902242 0.01098404 0.01167818
v 0.03979406 0.00560782 0.01346509
v 0.04015957 0.01098404 0.01143721
v 0.04628190 0.00560782 0.01611261
v 0.04753834 0.01098404 0.01392825
v 0.04801808 0.01098404 0.01492654
v 0.04015957 0.00560782 0.01338999
v 0.04019765 0.01098404 0.01143095
v 0.04580216 0.00560782 0.01521758
v 0.04564987 0.00560782 0.01503295
v 0.04610422 0.01098404 0.01242299
v 0.04167492 0.01098404 0.01123693
v 0.04130941 0.00560782 0.01330862
v 0.04509398 0.00560782 0.01446026
v 0.04585039 0.01098404 0.01223522
v 0.04319028 0.01098404 0.01128074
v 0.04167492 0.00560782 0.01328672
v 0.04433504 0.00560782 0.01392512
v 0.04470563 0.01098404 0.01166566
v 0.04420812 0.01098404 0.01153736
v 0.04319028 0.00560782 0.01349639
v 0.04282476 0.00560782 0.01344319
v 0.04402537 0.00560782 0.01379681
f 1 2 7
f 1 7 20
f 1 20 24
f 1 24 30
f 1 30 35
f 1 35 41
f 1 41 40
f 1 40 46
f 1 46 50
f 1 50 54
f 1 54 55
f 1 55 51
f 1 51 47
f 1 47 43
f 1 43 38
f 1 38 36
f 1 36 32
f 1 32 31
f 1 31 26
f 1 26 25
f 1 25 21
f 1 21 12
f 1 12 11
f 1 11 10
f 1 10 9
f 1 9 18
f 1 18 17
f 1 17 16
f 1 16 15
f 1 15 14
f 1 14 8
f 1 8 3
f 1 3 4
f 1 4 2
f 2 5 6
f 2 6 7
f 2 4 5
f 3 8 4
f 4 9 10
f 4 10 11
f 4 11 12
f 4 12 21
f 4 21 13
f 4 13 22
f 4 22 27
f 4 27 33
f 4 33 37
f 4 37 42
f 4 42 48
f 4 48 52
f 4 52 57
f 4 57 56
f 4 56 58
f 4 58 53
f 4 53 49
f 4 49 45
f 4 45 44
f 4 44 39
f 4 39 34
f 4 34 29
f 4 29 28
f 4 28 23
f 4 23 19
f 4 19 6
f 4 6 5
f 4 8 14
f 4 14 15
f 4 15 16
f 4 16 17
f 4 17 18
f 4 18 9
f 6 19 7
f 7 19 20
f 13 21 25
f 13 25 22
f 19 23 24
f 19 24 20
f 22 25 26
f 22 26 27
f 23 28 24
f 24 29 30
f 24 28 29
f 26 31 27
f 27 31 32
f 27 32 33
f 29 34 35
f 29 35 30
f 32 36 33
f 33 36 38
f 33 38 37
f 34 39 40
f 34 40 41
f 34 41 35
f 37 38 42
f 38 43 42
f 39 44 40
f 40 44 45
f 40 45 46
f 42 43 47
f 42 47 48
f 45 49 46
f 46 49 50
f 47 51 52
f 47 52 48
f 49 53 50
f 50 53 54
f 51 55 56
f 51 56 57
f 51 57 52
f 53 58 54
f 54 58 56
f 54 56 55

