# https://github.com/mikedh/trimesh
v -0.02540114 0.01509441 0.04471927
v -0.04621047 0.01509441 0.04471927
v -0.02540114 0.01063606 0.04471927
v -0.02540114 0.01509441 0.01337162
v -0.04565355 0.01134224 0.04471927
v -0.05236300 0.01509441 0.03568092
v -0.04530514 0.01063606 0.04471927
v -0.02540114 0.01063606 0.01701636
v -0.03548907 0.01509441 0.00940724
v -0.05236300 0.01473739 0.03475137
v -0.04578024 0.01063606 0.04369052
v -0.05236300 0.01509441 0.00718439
v -0.03561576 0.01063606 0.01301156
v -0.03869599 0.01063606 0.01194606
v -0.03713080 0.01509441 0.00890388
v -0.03706482 0.01063606 0.01245676
v -0.05236300 0.01424507 0.03309801
v -0.04609433 0.01063606 0.04219147
v -0.05236300 0.01387016 0.03147037
v -0.05236300 0.01383656 0.03127932
v -0.05236300 0.01363099 0.03006685
v -0.04541599 0.01509441 0.00740852
v -0.04167327 0.01063606 0.01145373
v -0.04286630 0.01063606 0.01149414
v -0.04320679 0.01063606 0.01152721
v -0.04428632 0.01063606 0.01178073
v -0.04470599 0.01063606 0.01195708
v -0.04525235 0.01063606 0.01221060
v -0.04564035 0.01063606 0.01247146
v -0.05236300 0.01491852 0.00762529
v -0.04015824 0.01063606 0.01162641
v -0.04012920 0.01509441 0.00808823
v -0.04756714 0.01063606 0.03462645
v -0.05236300 0.01340622 0.02854209
v -0.04470599 0.01509441 0.00744893
v -0.04136446 0.01063606 0.01148312
v -0.04376107 0.01509441 0.00753711
v -0.04682545 0.01063606 0.01351859
v -0.05236300 0.01452746 0.00876794
v -0.04318831 0.01509441 0.00759957
v -0.04167327 0.01509441 0.00783471
v -0.04784691 0.01063606 0.03316047
v -0.05236300 0.01321592 0.02703570
v -0.04774926 0.01063606 0.01496252
v -0.05236300 0.01409144 0.01028903
v -0.04808447 0.01063606 0.03158427
v -0.05236300 0.01306666 0.02552563
v -0.04825339 0.01063606 0.01643217
v -0.05236300 0.01356159 0.01261475
v -0.05236300 0.01371828 0.01189830
v -0.04826395 0.01063606 0.03006685
v -0.05236300 0.01297806 0.02400822
v -0.04862555 0.01063606 0.02660583
v -0.05236300 0.01343066 0.01334590
v -0.05236300 0.01343197 0.01333856
v -0.04869418 0.01063606 0.01799367
v -0.04870737 0.01063606 0.02553666
v -0.05236300 0.01292307 0.02249448
v -0.05236300 0.01320414 0.01484862
v -0.04884462 0.01063606 0.02097707
v -0.05236300 0.01287898 0.01946333
v -0.05236300 0.01288160 0.01938249
v -0.05236300 0.01293092 0.01794591
v -0.05236300 0.01293529 0.01786875
v -0.05236300 0.01303523 0.01643217
v -0.05236300 0.01304178 0.01635134
v -0.05236300 0.01319672 0.01491476
v -0.04876016 0.01063606 0.02434991
v -0.05236300 0.01288073 0.02097707
v -0.04883407 0.01063606 0.02249448
v -0.04881823 0.01063606 0.02294272
f 1 2 5
f 1 5 7
f 1 7 3
f 1 3 8
f 1 8 4
f 1 4 9
f 1 9 15
f 1 15 32
f 1 32 41
f 1 41 40
f 1 40 37
f 1 37 35
f 1 35 22
f 1 22 12
f 1 12 6
f 1 6 2
f 2 6 5
f 3 7 11
f 3 11 18
f 3 18 33
f 3 33 42
f 3 42 46
f 3 46 51
f 3 51 53
f 3 53 57
f 3 57 68
f 3 68 71
f 3 71 70
f 3 70 60
f 3 60 56
f 3 56 48
f 3 48 44
f 3 44 38
f 3 38 29
f 3 29 28
f 3 28 27
f 3 27 26
f 3 26 25
f 3 25 24
f 3 24 23
f 3 23 36
f 3 36 31
f 3 31 14
f 3 14 16
f 3 16 13
f 3 13 8
f 4 8 9
f 5 6 7
f 6 10 11
f 6 11 7
f 6 12 30
f 6 30 39
f 6 39 45
f 6 45 50
f 6 50 49
f 6 49 55
f 6 55 54
f 6 54 59
f 6 59 67
f 6 67 66
f 6 66 65
f 6 65 64
f 6 64 63
f 6 63 62
f 6 62 61
f 6 61 69
f 6 69 58
f 6 58 52
f 6 52 47
f 6 47 43
f 6 43 34
f 6 34 21
f 6 21 20
f 6 20 19
f 6 19 17
f 6 17 10
f 8 13 9
f 9 14 15
f 9 13 16
f 9 16 14
f 10 17 11
f 11 17 19
f 11 19 20
f 11 20 21
f 11 21 18
f 12 22 23
f 12 23 24
f 12 24 25
f 12 25 26
f 12 26 27
f 12 27 28
f 12 28 29
f 12 29 30
f 14 31 32
f 14 32 15
f 18 21 33
f 21 34 33
f 22 35 23
f 23 35 37
f 23 37 36
f 29 38 30
f 30 38 39
f 31 36 40
f 31 40 41
f 31 41 32
f 33 34 42
f 34 43 42
f 36 37 40
f 38 44 39
f 39 44 45
f 42 43 46
f 43 47 46
f 44 48 49
f 44 49 50
f 44 50 45
f 46 47 51
f 47 52 53
f 47 53 51
f 48 54 55
f 48 55 49
f 48 56 54
f 52 57 53
f 52 58 57
f 54 56 59
f 56 60 61
f 56 61 62
f 56 62 63
f 56 63 64
f 56 64 65
f 56 65 66
f 56 66 67
f 56 67 59
f 57 58 68
f 58 69 68
f 60 70 69
f 60 69 61
f 68 69 71
f 69 70 71

