# https://github.com/mikedh/trimesh
v -0.05236516 0.02707899 0.04372944
v -0.05236516 0.01926454 0.04372944
v -0.05236516 0.02715760 0.04243585
v -0.05257513 0.02713467 0.04219123
v -0.05380034 0.02682184 0.04370456
v -0.05380034 0.02682020 0.04372944
v -0.06049134 0.01063606 0.04372944
v -0.05236516 0.01684700 0.03948383
v -0.05236516 0.02717071 0.04219123
v -0.05236516 0.02721493 0.04133299
v -0.05278294 0.02717562 0.04067376
v -0.05380034 0.02691028 0.04219123
v -0.05531561 0.02658106 0.04219123
v -0.05531561 0.02647788 0.04372944
v -0.05236516 0.01527133 0.03615037
v -0.05236516 0.01528280 0.03617940
v -0.05236516 0.01590029 0.03764297
v -0.05236516 0.01643097 0.03872510
v -0.07400757 0.01063606 0.04372944
v -0.05956487 0.01063606 0.03155235
v -0.05236516 0.01288163 0.02097981
v -0.05236516 0.01292422 0.02249313
v -0.05236516 0.01297663 0.02392354
v -0.05236516 0.01297990 0.02400646
v -0.05236516 0.01306344 0.02544101
v -0.05236516 0.01306835 0.02551978
v -0.05236516 0.01320921 0.02695433
v -0.05236516 0.01321740 0.02703725
v -0.05236516 0.01340740 0.02854229
v -0.05236516 0.01363179 0.03006805
v -0.05236516 0.01383817 0.03127871
v -0.05236516 0.01387092 0.03146943
v -0.05236516 0.01424600 0.03309885
v -0.05236516 0.01473901 0.03475314
v -0.05236516 0.02725752 0.04021769
v -0.05294096 0.02720183 0.03944237
v -0.05380034 0.02698235 0.04067376
v -0.05531561 0.02666460 0.04067376
v -0.05683088 0.02616667 0.04219123
v -0.05683088 0.02626167 0.04067376
v -0.05683304 0.02605530 0.04372944
v -0.07371967 0.01130596 0.04372944
v -0.07411580 0.01063606 0.04275096
v -0.05946962 0.01063606 0.03027535
v -0.05236516 0.01287999 0.01946234
v -0.05945447 0.01063606 0.03006805
v -0.05939602 0.01063606 0.02875374
v -0.05938736 0.01063606 0.02855058
v -0.05936788 0.01063606 0.02721554
v -0.05936571 0.01063606 0.02703725
v -0.05236516 0.02729191 0.03902776
v -0.05365098 0.02707571 0.03902776
v -0.05304703 0.02721657 0.03843073
v -0.05531561 0.02672029 0.03916044
v -0.05683088 0.02632391 0.03916044
v -0.05795868 0.02581944 0.04219123
v -0.05778334 0.02576866 0.04372944
v -0.05809289 0.02586202 0.04067376
v -0.07306161 0.01267198 0.04372944
v -0.07306377 0.01267362 0.04370456
v -0.07307893 0.01294878 0.04221611
v -0.07395129 0.01116019 0.04207100
v -0.07415260 0.01063606 0.04238610
v -0.05971639 0.01063606 0.01188742
v -0.05975969 0.01063606 0.01036995
v -0.05980514 0.01063606 0.00885662
v -0.05985277 0.01063606 0.00733915
v -0.05991121 0.01063606 0.00582168
v -0.05998481 0.01063606 0.00428762
v -0.06009954 0.01063606 0.00279089
v -0.05236516 0.01293240 0.01794901
v -0.05936355 0.01063606 0.02569392
v -0.05936355 0.01063606 0.02551978
v -0.05938519 0.01063606 0.02419718
v -0.05938953 0.01063606 0.02400646
v -0.05236516 0.02731812 0.03772589
v -0.05382631 0.02707243 0.03764297
v -0.05531561 0.02675796 0.03764297
v -0.05306868 0.02722148 0.03764297
v -0.05390424 0.02710355 0.03461217
v -0.05386744 0.02709045 0.03612964
v -0.05236516 0.02733614 0.03628305
v -0.05236516 0.02735415 0.03461217
v -0.05683088 0.02636977 0.03764297
v -0.05817514 0.02589642 0.03916044
v -0.05823792 0.02592590 0.03764297
v -0.05871631 0.02556884 0.04219123
v -0.05885052 0.02561798 0.04067376
v -0.05852582 0.02549513 0.04372944
v -0.07266114 0.01343033 0.04372944
v -0.07271959 0.01354007 0.04273852
v -0.07276938 0.01362688 0.04172687
v -0.07325643 0.01282103 0.04067376
v -0.07423053 0.01063606 0.04140348
v -0.07421971 0.01063606 0.04156103
v -0.07395129 0.01136165 0.04067376
v -0.06039610 0.01063606 0.00184972
v -0.05236516 0.01356300 0.01261713
v -0.05236516 0.01343197 0.01334685
v -0.05236516 0.01320430 0.01484773
v -0.05236516 0.01304214 0.01635276
v -0.05236516 0.01303559 0.01643154
v -0.05236516 0.01293568 0.01786609
v -0.05531561 0.02678744 0.03612964
v -0.05683088 0.02640253 0.03612964
v -0.05310980 0.02722804 0.03612964
v -0.05392589 0.02711338 0.03309885
v -0.05531561 0.02680709 0.03461217
v -0.05236516 0.02736398 0.03309885
v -0.05314660 0.02723295 0.03461217
v -0.05827688 0.02594883 0.03612964
v -0.05893278 0.02564254 0.03916044
v -0.05899555 0.02566384 0.03764297
v -0.05986142 0.02509712 0.04219123
v -0.05986142 0.02495135 0.04372944
v -0.05856262 0.02548039 0.04372944
v -0.05986142 0.02526910 0.03916044
v -0.05986142 0.02519867 0.04067376
v -0.07265249 0.01344507 0.04372944
v -0.07236026 0.01421488 0.04221611
v -0.07210915 0.01433609 0.04372944
v -0.07233861 0.01444255 0.04067376
v -0.07280401 0.01368420 0.04067376
v -0.07332786 0.01282103 0.03916044
v -0.07398592 0.01144519 0.03916044
v -0.07431495 0.01068847 0.03916044
v -0.07426517 0.01063606 0.04067376
v -0.06135289 0.01063606 0.00154705
v -0.05236516 0.01837189 0.00176265
v -0.05259028 0.01793948 0.00186631
v -0.05236516 0.01772819 0.00228921
v -0.05236516 0.01744975 0.00266650
v -0.05236516 0.01677984 0.00376107
v -0.05236516 0.01637692 0.00448249
v -0.05236516 0.01633433 0.00456127
v -0.05236516 0.01574633 0.00573047
v -0.05236516 0.01570374 0.00582168
v -0.05236516 0.01523366 0.00683333
v -0.05236516 0.01491918 0.00762523
v -0.05236516 0.01452772 0.00876956
v -0.05236516 0.01409204 0.01029117
v -0.05236516 0.01371860 0.01189571
v -0.05683088 0.02642383 0.03461217
v -0.05830502 0.02596357 0.03461217
v -0.05316825 0.02723623 0.03309885
v -0.05393887 0.02711502 0.03158137
v -0.05531561 0.02682020 0.03309885
v -0.05236516 0.02736726 0.03171820
v -0.05318124 0.02723786 0.03158137
v -0.05903452 0.02567530 0.03612964
v -0.05986142 0.02532479 0.03764297
v -0.05986142 0.02535919 0.03612964
v -0.06124898 0.02447308 0.04219123
v -0.06109096 0.02440593 0.04372944
v -0.05987658 0.02494480 0.04372944
v -0.06137670 0.02458773 0.03916044
v -0.06137670 0.02464506 0.03764297
v -0.06150008 0.02445670 0.04052865
v -0.07143377 0.01540400 0.04370456
v -0.07152252 0.01553340 0.04219123
v -0.07143161 0.01540073 0.04372944
v -0.07158097 0.01562184 0.04067376
v -0.07237540 0.01450643 0.03916044
v -0.07284081 0.01374808 0.03916044
v -0.07339280 0.01282103 0.03764297
v -0.07401623 0.01151889 0.03764297
v -0.07434742 0.01076218 0.03764297
v -0.07433660 0.01063606 0.03916044
v -0.06137670 0.01130596 0.00143511
v -0.05236516 0.01876826 0.00163827
v -0.06289197 0.01063606 0.00137707
v -0.05683088 0.02643529 0.03309885
v -0.05832234 0.02597012 0.03309885
v -0.05906266 0.02568513 0.03461217
v -0.05318773 0.02723950 0.03006805
v -0.05318990 0.02724114 0.02855058
v -0.05394537 0.02711502 0.03006805
v -0.05531561 0.02682511 0.03006805
v -0.05531561 0.02682347 0.03158137
v -0.05236516 0.02736890 0.02703725
v -0.05986142 0.02538212 0.03461217
v -0.06137670 0.02468109 0.03612964
v -0.06137670 0.02470566 0.03461217
v -0.06208671 0.02416188 0.04093497
v -0.06200662 0.02412257 0.04219123
v -0.06183777 0.02404395 0.04372944
v -0.06216897 0.02420282 0.03916044
v -0.06213650 0.02418481 0.03992332
v -0.06221226 0.02422576 0.03764297
v -0.07099651 0.01629175 0.04219123
v -0.07091209 0.01614925 0.04372944
v -0.07105928 0.01637856 0.04067376
v -0.07165457 0.01572176 0.03764297
v -0.07241220 0.01456376 0.03764297
v -0.07287544 0.01380541 0.03764297
v -0.07342744 0.01282103 0.03612964
v -0.07403355 0.01155820 0.03612964
v -0.07436474 0.01080149 0.03612964
v -0.07440154 0.01063606 0.03744810
v -0.07439721 0.01063606 0.03764297
v -0.05236516 0.02039634 0.00137707
v -0.07198360 0.01063606 0.00137707
v -0.05683088 0.02643857 0.03158137
v -0.05833100 0.02597176 0.03158137
v -0.05909729 0.02569823 0.03006805
v -0.05907998 0.02569168 0.03309885
v -0.05319206 0.02724114 0.02703725
v -0.05318990 0.02724114 0.02551978
v -0.05318557 0.02724114 0.02249313
v -0.05394970 0.02711338 0.02703725
v -0.05531561 0.02682511 0.02551978
v -0.05683088 0.02644020 0.03006805
v -0.05236516 0.02736398 0.01643154
v -0.05317475 0.02723950 0.01491822
v -0.05986142 0.02539194 0.03309885
v -0.06224473 0.02424050 0.03612964
v -0.06137670 0.02471549 0.03309885
v -0.06226638 0.02425196 0.03461217
v -0.06289197 0.02359516 0.04219123
v -0.06292660 0.02376714 0.03916044
v -0.06274044 0.02379499 0.04052865
v -0.06289197 0.02344120 0.04370456
v -0.06289197 0.02343793 0.04372944
v -0.06296990 0.02380154 0.03764297
v -0.06300237 0.02382938 0.03612964
v -0.07014796 0.01715656 0.04370456
v -0.07023887 0.01727613 0.04219123
v -0.06969338 0.01810491 0.04115056
v -0.07014579 0.01715492 0.04372944
v -0.07019125 0.01750707 0.04065718
v -0.07113072 0.01647847 0.03764297
v -0.07115237 0.01651123 0.03612964
v -0.07167622 0.01575288 0.03612964
v -0.07243385 0.01459324 0.03612964
v -0.07289276 0.01383653 0.03612964
v -0.07345774 0.01282103 0.03309885
v -0.07404870 0.01159915 0.03309885
v -0.07404221 0.01157786 0.03461217
v -0.07438206 0.01084080 0.03309885
v -0.07442968 0.01063606 0.03612964
v -0.07444916 0.01063606 0.03434268
v -0.05236516 0.02494316 0.00137707
v -0.07350320 0.01063606 0.00168803
v -0.07198360 0.01130596 0.00138121
v -0.06895306 0.01585115 0.00138121
v -0.06592251 0.01888291 0.00137707
v -0.05833749 0.02597012 0.03006805
v -0.05910163 0.02569987 0.02703725
v -0.05986142 0.02539850 0.03158137
v -0.05394104 0.02711174 0.02097981
v -0.05531561 0.02682184 0.01946234
v -0.05683088 0.02643857 0.02551978
v -0.05834399 0.02596849 0.02551978
v -0.05834399 0.02596849 0.02703725
v -0.05236516 0.02736234 0.01340074
v -0.05316392 0.02723786 0.01036995
v -0.05393455 0.02711011 0.01643154
v -0.06137670 0.02472368 0.03158137
v -0.06302401 0.02384249 0.03461217
v -0.06227936 0.02426179 0.03158137
v -0.06410202 0.02295802 0.04067376
v -0.06401544 0.02290069 0.04219123
v -0.06390071 0.02282862 0.04370456
v -0.06416696 0.02300879 0.03916044
v -0.06389854 0.02282699 0.04372944
v -0.06420376 0.02304319 0.03764297
v -0.06423623 0.02307103 0.03612964
v -0.06425571 0.02308578 0.03461217
v -0.06963276 0.01803448 0.04219123
v -0.06953968 0.01790181 0.04372944
v -0.06887513 0.01882886 0.04219123
v -0.06819325 0.01963635 0.04140762
v -0.06823655 0.01968057 0.04040012
v -0.06827768 0.01972152 0.03916044
v -0.06972152 0.01813930 0.04013892
v -0.07036875 0.01736785 0.03916044
v -0.07043802 0.01736785 0.03764297
v -0.07048348 0.01736785 0.03612964
v -0.07117185 0.01653579 0.03309885
v -0.07169786 0.01577745 0.03309885
v -0.07245550 0.01461945 0.03309885
v -0.07290792 0.01386273 0.03309885
v -0.07346640 0.01282103 0.03158137
v -0.07405303 0.01160734 0.03158137
v -0.07438639 0.01085063 0.03158137
v -0.07446432 0.01063606 0.03280447
v -0.07446215 0.01063606 0.03309885
v -0.05531561 0.02494316 0.00137707
v -0.05236516 0.02655977 0.00173363
v -0.07416343 0.01063606 0.00199484
v -0.07350537 0.01116019 0.00177095
v -0.07198360 0.01282103 0.00153047
v -0.07046833 0.01433609 0.00140609
v -0.06743778 0.01888291 0.00154291
v -0.06440508 0.02039634 0.00137707
v -0.05910163 0.02569987 0.02400646
v -0.05986142 0.02540013 0.03006805
v -0.05531561 0.02681528 0.01036995
v -0.05683088 0.02642874 0.01188742
v -0.05833100 0.02596194 0.01036995
v -0.05909296 0.02569660 0.01340074
v -0.05236516 0.02735907 0.01036995
v -0.05236516 0.02735579 0.00885662
v -0.05315310 0.02723459 0.00885662
v -0.05391074 0.02710519 0.00885662
v -0.05392372 0.02710683 0.01036995
v -0.06137670 0.02472532 0.03006805
v -0.06228586 0.02426998 0.02703725
v -0.06228153 0.02426507 0.03006805
v -0.06303700 0.02384904 0.03158137
v -0.06427519 0.02309233 0.03158137
v -0.06485966 0.02246665 0.04067376
v -0.06477307 0.02240441 0.04219123
v -0.06465834 0.02232415 0.04370456
v -0.06492460 0.02251087 0.03916044
v -0.06465618 0.02232251 0.04372944
v -0.06499386 0.02255346 0.03612964
v -0.06496140 0.02253380 0.03764297
v -0.06503283 0.02257475 0.03158137
v -0.06501335 0.02256492 0.03461217
v -0.06953319 0.01791327 0.04370456
v -0.06877555 0.01873386 0.04370456
v -0.06953102 0.01791163 0.04372944
v -0.06805688 0.01947911 0.04372944
v -0.06738583 0.02027841 0.04219123
v -0.06662170 0.02110719 0.04067376
v -0.06758715 0.02023255 0.04081058
v -0.06804822 0.01949057 0.04370456
v -0.06729059 0.02020634 0.04370456
v -0.06666933 0.02114650 0.03970358
v -0.06903531 0.01892058 0.03916044
v -0.06729275 0.02061090 0.03918117
v -0.06831881 0.01976083 0.03764297
v -0.06907644 0.01895662 0.03764297
v -0.06974316 0.01816223 0.03916044
v -0.06977563 0.01819827 0.03764297
v -0.06979728 0.01822284 0.03612964
v -0.07051811 0.01736785 0.03309885
v -0.07117618 0.01654235 0.03158137
v -0.07170219 0.01578400 0.03158137
v -0.07245983 0.01462600 0.03158137
v -0.07291224 0.01386929 0.03158137
v -0.07346857 0.01282103 0.02703725
v -0.07405519 0.01161389 0.02703725
v -0.07438855 0.01085063 0.03006805
v -0.07439072 0.01085554 0.02703725
v -0.07447081 0.01063606 0.03158137
v -0.05834615 0.02342810 0.00137707
v -0.05986142 0.02342810 0.00138536
v -0.05683088 0.02494316 0.00144755
v -0.05531561 0.02612409 0.00170876
v -0.05683088 0.02596357 0.00177509
v -0.05236516 0.02658434 0.00177095
v -0.07426517 0.01063606 0.00279089
v -0.07392531 0.01136002 0.00279089
v -0.07276072 0.01361050 0.00201142
v -0.07295121 0.01282103 0.00185387
v -0.07195979 0.01420342 0.00177924
v -0.07052028 0.01588882 0.00166315
v -0.06907211 0.01748742 0.00164242
v -0.06853744 0.01888291 0.00187045
v -0.06743778 0.01998850 0.00186631
v -0.06604806 0.02052245 0.00163827
v -0.06289197 0.02191140 0.00140609
v -0.05986142 0.02540013 0.02703725
v -0.06137670 0.02472696 0.02703725
v -0.05531561 0.02681037 0.00885662
v -0.05683088 0.02642710 0.01036995
v -0.05683088 0.02642219 0.00885662
v -0.05832234 0.02595866 0.00885662
v -0.05908864 0.02569496 0.01036995
v -0.05986142 0.02538703 0.01036995
v -0.05986142 0.02539358 0.01794901
v -0.05236516 0.02734105 0.00747597
v -0.05310331 0.02722640 0.00733915
v -0.05386095 0.02709537 0.00733915
v -0.06304350 0.02384904 0.02400646
v -0.06304566 0.02384904 0.02703725
v -0.06304133 0.02385068 0.02855058
v -0.06303917 0.02385068 0.03006805
v -0.06228369 0.02426834 0.02097981
v -0.06427736 0.02309397 0.03006805
v -0.06504149 0.02258130 0.02703725
v -0.06586407 0.02170994 0.04067376
v -0.06577531 0.02164606 0.04219123
v -0.06568440 0.02156580 0.04370456
v -0.06606755 0.02163951 0.03918117
v -0.06592251 0.02185898 0.03612964
v -0.06592251 0.02180821 0.03764297
v -0.06568224 0.02156416 0.04372944
v -0.06592251 0.02188683 0.03461217
v -0.06592251 0.02191631 0.03158137
v -0.06592251 0.02193269 0.02703725
v -0.06592251 0.02192778 0.02855058
v -0.06592251 0.02190157 0.03309885
v -0.06877339 0.01873223 0.04372944
v -0.06728842 0.02020470 0.04372944
v -0.06644203 0.02096305 0.04370456
v -0.06653295 0.02103512 0.04219123
v -0.06671695 0.02118744 0.03764297
v -0.06747458 0.02051918 0.03764297
v -0.06750922 0.02054866 0.03612964
v -0.06834911 0.01979195 0.03612964
v -0.06910675 0.01898119 0.03612964
v -0.06911974 0.01899101 0.03461217
v -0.06981460 0.01824249 0.03309885
v -0.06981893 0.01824904 0.03158137
v -0.07052677 0.01736785 0.03158137
v -0.07118051 0.01654726 0.02703725
v -0.07170436 0.01578891 0.02703725
v -0.07246199 0.01462927 0.02703725
v -0.07291224 0.01387092 0.02855058
v -0.07291224 0.01387092 0.02551978
v -0.07346640 0.01282103 0.02400646
v -0.07405519 0.01161225 0.02551978
v -0.07447298 0.01063606 0.03006805
v -0.07447730 0.01063606 0.02703725
v -0.07438639 0.01084571 0.01491822
v -0.06289197 0.02316603 0.00173363
v -0.06150441 0.02355749 0.00164656
v -0.05986142 0.02464670 0.00171705
v -0.06108447 0.02440756 0.00182899
v -0.05790672 0.02581125 0.00190777
v -0.05280242 0.02715433 0.00279089
v -0.05236516 0.02723623 0.00279089
v -0.05236516 0.02663511 0.00184972
v -0.07429547 0.01063606 0.00354133
v -0.07431062 0.01067210 0.00430836
v -0.07397077 0.01142881 0.00430836
v -0.07321530 0.01282103 0.00279089
v -0.07329539 0.01282103 0.00430836
v -0.07278886 0.01366127 0.00279089
v -0.07232778 0.01441798 0.00279089
v -0.07157015 0.01559891 0.00279089
v -0.07143810 0.01540728 0.00184972
v -0.07005055 0.01706156 0.00181655
v -0.06819759 0.01964290 0.00203215
v -0.06562812 0.02148390 0.00181655
v -0.06443105 0.02195890 0.00166315
v -0.06137670 0.02472040 0.01794901
v -0.06228153 0.02426671 0.01643154
v -0.05531561 0.02678908 0.00733915
v -0.05683088 0.02639926 0.00733915
v -0.05828771 0.02594719 0.00733915
v -0.05907998 0.02569168 0.00885662
v -0.05986142 0.02538048 0.00885662
v -0.06137670 0.02471221 0.01036995
v -0.06137670 0.02471877 0.01643154
v -0.06137670 0.02470730 0.00885662
v -0.05236516 0.02733941 0.00733915
v -0.05299940 0.02721002 0.00544024
v -0.05380034 0.02704459 0.00430836
v -0.06428385 0.02309233 0.02703725
v -0.06227720 0.02426507 0.01188742
v -0.06303483 0.02384249 0.01188742
v -0.06427303 0.02308414 0.01036995
v -0.06428169 0.02309069 0.02249313
v -0.06592251 0.02193105 0.02400646
v -0.06503716 0.02257803 0.01794901
v -0.06675158 0.02121693 0.03612964
v -0.06677106 0.02123331 0.03461217
v -0.06643987 0.02096141 0.04372944
v -0.06679487 0.02125296 0.03158137
v -0.06678405 0.02124477 0.03309885
v -0.06679921 0.02125787 0.03006805
v -0.06680570 0.02126115 0.02855058
v -0.06680786 0.02126443 0.02703725
v -0.06752870 0.02056013 0.03461217
v -0.06836210 0.01980341 0.03461217
v -0.06912407 0.01899920 0.03309885
v -0.06912623 0.01900412 0.03158137
v -0.06982109 0.01825232 0.02703725
v -0.07053327 0.01736785 0.02703725
v -0.07053110 0.01736785 0.02400646
v -0.07052894 0.01736785 0.02097981
v -0.07117834 0.01654398 0.02097981
v -0.07170219 0.01578563 0.02097981
v -0.07169786 0.01578072 0.01188742
v -0.07245550 0.01461945 0.01188742
v -0.07290792 0.01386273 0.01491822
v -0.07345558 0.01282103 0.01036995
v -0.07405303 0.01160898 0.02097981
v -0.07446865 0.01063606 0.01461555
v -0.07404870 0.01159915 0.01036995
v -0.07438422 0.01084080 0.01036995
v -0.07446648 0.01063606 0.01158890
v -0.06394184 0.02286302 0.00185387
v -0.06209321 0.02414877 0.00249236
v -0.05986142 0.02517902 0.00279089
v -0.05886567 0.02558194 0.00279089
v -0.05810804 0.02588332 0.00279089
v -0.05683088 0.02626659 0.00279089
v -0.05531561 0.02662529 0.00279089
v -0.05292797 0.02719855 0.00430836
v -0.05236516 0.02728536 0.00430836
v -0.07432361 0.01063606 0.00430836
v -0.07399891 0.01149105 0.00582168
v -0.07437557 0.01063606 0.00582168
v -0.07441886 0.01063606 0.00710282
v -0.07436474 0.01079494 0.00733915
v -0.07402705 0.01155329 0.00733915
v -0.07341012 0.01282103 0.00733915
v -0.07285380 0.01377101 0.00582168
v -0.07282349 0.01371860 0.00430836
v -0.07236891 0.01447695 0.00430836
v -0.07102465 0.01635726 0.00279089
v -0.07161127 0.01565460 0.00430836
v -0.07108526 0.01641295 0.00430836
v -0.06822356 0.01966583 0.00279089
v -0.06668015 0.02115469 0.00352889
v -0.06663902 0.02111210 0.00252139
v -0.07026701 0.01732363 0.00279089
v -0.06966740 0.01808198 0.00279089
v -0.06970636 0.01811965 0.00364913
v -0.05531561 0.02675632 0.00582168
v -0.05531561 0.02672192 0.00430836
v -0.05683088 0.02636322 0.00582168
v -0.05823359 0.02592754 0.00582168
v -0.05904534 0.02567858 0.00733915
v -0.05986142 0.02535427 0.00733915
v -0.06227504 0.02426343 0.01036995
v -0.06226854 0.02426015 0.00885662
v -0.06137670 0.02467946 0.00733915
v -0.06224473 0.02424541 0.00733915
v -0.05236516 0.02731321 0.00585070
v -0.06303267 0.02384085 0.01036995
v -0.06503066 0.02257475 0.01036995
v -0.06302834 0.02383757 0.00885662
v -0.06426870 0.02307922 0.00885662
v -0.06503500 0.02257803 0.01643154
v -0.06592251 0.02192614 0.01794901
v -0.06680570 0.02126115 0.02097981
v -0.06755251 0.02056668 0.03158137
v -0.06754169 0.02056504 0.03309885
v -0.06756550 0.02056504 0.02551978
v -0.06756550 0.02056504 0.02703725
v -0.06756334 0.02056504 0.02855058
v -0.06756334 0.02056340 0.02097981
v -0.06836643 0.01980669 0.03309885
v -0.06836860 0.01980833 0.03158137
v -0.06912623 0.01900739 0.02703725
v -0.06912623 0.01900739 0.02551978
v -0.06912407 0.01900576 0.02097981
v -0.06911974 0.01900248 0.01340074
v -0.06981676 0.01824904 0.01946234
v -0.06981676 0.01824741 0.01794901
v -0.07052461 0.01736785 0.01643154
v -0.07117401 0.01653743 0.01036995
v -0.07117834 0.01654235 0.01946234
v -0.07169570 0.01577908 0.01036995
v -0.07245333 0.01461781 0.01036995
v -0.07290575 0.01385946 0.01036995
v -0.07290142 0.01385291 0.00885662
v -0.07344692 0.01282103 0.00885662
v -0.07404437 0.01159096 0.00885662
v -0.07437989 0.01083261 0.00885662
v -0.07446432 0.01063606 0.01007558
v -0.06487698 0.02244535 0.00279089
v -0.06411934 0.02298095 0.00279089
v -0.06274260 0.02380481 0.00291527
v -0.06213866 0.02418645 0.00350401
v -0.06150441 0.02447144 0.00291527
v -0.05986142 0.02527074 0.00430836
v -0.05893494 0.02563927 0.00430836
v -0.05817731 0.02590789 0.00430836
v -0.05683088 0.02632555 0.00430836
v -0.07442535 0.01063606 0.00733915
v -0.07445782 0.01063606 0.00885662
v -0.07288194 0.01382179 0.00733915
v -0.07240138 0.01452772 0.00582168
v -0.07243169 0.01457850 0.00733915
v -0.07164375 0.01570046 0.00582168
v -0.07021506 0.01751526 0.00421714
v -0.07111773 0.01645881 0.00582168
v -0.06915654 0.01874369 0.00421714
v -0.06826469 0.01970678 0.00430836
v -0.06745727 0.02046349 0.00430836
v -0.06752870 0.02053228 0.00733915
v -0.06669963 0.02117106 0.00430836
v -0.06592251 0.02175907 0.00430836
v -0.06492676 0.02249941 0.00430836
v -0.07040339 0.01736785 0.00582168
v -0.06972801 0.01814749 0.00465663
v -0.06905696 0.01893532 0.00582168
v -0.05899123 0.02565892 0.00582168
v -0.05986142 0.02531333 0.00582168
v -0.06137670 0.02463523 0.00582168
v -0.06220360 0.02422248 0.00582168
v -0.06300237 0.02382283 0.00733915
v -0.06592251 0.02191795 0.01036995
v -0.06592251 0.02192450 0.01643154
v -0.06502634 0.02256983 0.00885662
v -0.06424489 0.02306448 0.00733915
v -0.06680137 0.02125624 0.01340074
v -0.06836860 0.01980669 0.02400646
v -0.06836860 0.01980833 0.02703725
v -0.06755900 0.02055849 0.01340074
v -0.06836426 0.01980341 0.01643154
v -0.06911757 0.01900084 0.01036995
v -0.06981460 0.01824413 0.01340074
v -0.07052028 0.01736785 0.01188742
v -0.07051811 0.01736785 0.01036995
v -0.07050946 0.01736785 0.00885662
v -0.07116968 0.01653088 0.00885662
v -0.07169353 0.01577253 0.00885662
v -0.07245117 0.01461126 0.00885662
v -0.06416913 0.02301371 0.00430836
v -0.06292011 0.02377206 0.00430836
v -0.06296124 0.02379826 0.00582168
v -0.06216031 0.02419955 0.00430836
v -0.06137670 0.02458937 0.00430836
v -0.07167405 0.01574469 0.00733915
v -0.07115020 0.01650304 0.00733915
v -0.06909159 0.01897300 0.00733915
v -0.06829932 0.01974117 0.00582168
v -0.06833396 0.01977393 0.00733915
v -0.06835561 0.01979522 0.00885662
v -0.06755035 0.02055194 0.00885662
v -0.06677106 0.02123167 0.00733915
v -0.06673426 0.02120219 0.00582168
v -0.06592251 0.02181640 0.00582168
v -0.06592251 0.02187373 0.00733915
v -0.06496573 0.02252725 0.00582168
v -0.07046833 0.01736785 0.00733915
v -0.06978862 0.01821465 0.00733915
v -0.06420809 0.02303991 0.00582168
v -0.06679921 0.02125460 0.01036995
v -0.06592251 0.02190976 0.00885662
v -0.06500253 0.02255346 0.00733915
v -0.06755684 0.02055685 0.01036995
v -0.06835993 0.01979850 0.01036995
v -0.06981243 0.01824249 0.01036995
v -0.06911324 0.01899593 0.00885662
v -0.06980810 0.01823758 0.00885662
v -0.06679271 0.02125132 0.00885662
f 1 2 8
f 1 8 18
f 1 18 17
f 1 17 16
f 1 16 15
f 1 15 34
f 1 34 33
f 1 33 32
f 1 32 31
f 1 31 30
f 1 30 29
f 1 29 28
f 1 28 27
f 1 27 26
f 1 26 25
f 1 25 24
f 1 24 23
f 1 23 22
f 1 22 21
f 1 21 45
f 1 45 71
f 1 71 103
f 1 103 102
f 1 102 101
f 1 101 100
f 1 100 99
f 1 99 98
f 1 98 142
f 1 142 141
f 1 141 140
f 1 140 139
f 1 139 138
f 1 138 137
f 1 137 136
f 1 136 135
f 1 135 134
f 1 134 133
f 1 133 132
f 1 132 131
f 1 131 129
f 1 129 170
f 1 170 201
f 1 201 242
f 1 242 289
f 1 289 353
f 1 353 426
f 1 426 425
f 1 425 495
f 1 495 525
f 1 525 450
f 1 450 374
f 1 374 303
f 1 303 302
f 1 302 255
f 1 255 213
f 1 213 180
f 1 180 148
f 1 148 109
f 1 109 83
f 1 83 82
f 1 82 76
f 1 76 51
f 1 51 35
f 1 35 10
f 1 10 9
f 1 9 3
f 1 3 4
f 1 4 5
f 1 5 6
f 1 6 14
f 1 14 41
f 1 41 57
f 1 57 89
f 1 89 116
f 1 116 115
f 1 115 155
f 1 155 154
f 1 154 186
f 1 186 223
f 1 223 265
f 1 265 316
f 1 316 390
f 1 390 462
f 1 462 397
f 1 397 324
f 1 324 396
f 1 396 323
f 1 323 270
f 1 270 229
f 1 229 191
f 1 191 161
f 1 161 121
f 1 121 119
f 1 119 90
f 1 90 59
f 1 59 42
f 1 42 19
f 1 19 7
f 1 7 2
f 2 7 8
f 3 9 4
f 4 9 10
f 4 10 11
f 4 11 12
f 4 12 5
f 5 12 13
f 5 13 6
f 6 13 14
f 7 15 16
f 7 16 17
f 7 17 18
f 7 18 8
f 7 19 43
f 7 43 63
f 7 63 95
f 7 95 94
f 7 94 127
f 7 127 168
f 7 168 200
f 7 200 199
f 7 199 240
f 7 240 241
f 7 241 287
f 7 287 286
f 7 286 347
f 7 347 416
f 7 416 417
f 7 417 483
f 7 483 486
f 7 486 557
f 7 557 568
f 7 568 567
f 7 567 499
f 7 499 498
f 7 498 496
f 7 496 427
f 7 427 354
f 7 354 290
f 7 290 243
f 7 243 202
f 7 202 171
f 7 171 128
f 7 128 97
f 7 97 70
f 7 70 69
f 7 69 68
f 7 68 67
f 7 67 66
f 7 66 65
f 7 65 64
f 7 64 75
f 7 75 74
f 7 74 73
f 7 73 72
f 7 72 50
f 7 50 49
f 7 49 48
f 7 48 47
f 7 47 46
f 7 46 44
f 7 44 20
f 7 20 21
f 7 21 22
f 7 22 23
f 7 23 24
f 7 24 25
f 7 25 26
f 7 26 27
f 7 27 28
f 7 28 29
f 7 29 30
f 7 30 31
f 7 31 32
f 7 32 33
f 7 33 34
f 7 34 15
f 10 35 36
f 10 36 11
f 11 36 37
f 11 37 12
f 12 37 38
f 12 38 13
f 13 39 14
f 13 38 40
f 13 40 39
f 14 39 41
f 19 42 43
f 20 44 21
f 21 44 46
f 21 46 47
f 21 47 48
f 21 48 49
f 21 49 50
f 21 50 45
f 35 51 36
f 36 52 37
f 36 51 53
f 36 53 52
f 37 52 38
f 38 52 54
f 38 54 55
f 38 55 40
f 39 56 57
f 39 57 41
f 39 40 56
f 40 55 58
f 40 58 56
f 42 59 60
f 42 60 61
f 42 61 62
f 42 62 63
f 42 63 43
f 45 64 65
f 45 65 66
f 45 66 67
f 45 67 68
f 45 68 69
f 45 69 70
f 45 70 71
f 45 50 72
f 45 72 73
f 45 73 74
f 45 74 75
f 45 75 64
f 51 76 53
f 52 53 77
f 52 77 78
f 52 78 54
f 53 79 80
f 53 80 81
f 53 81 77
f 53 76 82
f 53 82 83
f 53 83 79
f 54 78 84
f 54 84 55
f 55 85 58
f 55 84 86
f 55 86 85
f 56 87 57
f 56 58 88
f 56 88 87
f 57 87 89
f 58 85 88
f 59 90 60
f 60 91 61
f 60 90 91
f 61 91 92
f 61 92 93
f 61 93 62
f 62 94 95
f 62 95 63
f 62 93 96
f 62 96 94
f 70 97 98
f 70 98 99
f 70 99 100
f 70 100 101
f 70 101 102
f 70 102 103
f 70 103 71
f 77 81 104
f 77 104 78
f 78 104 105
f 78 105 84
f 79 106 80
f 79 83 106
f 80 107 108
f 80 108 104
f 80 104 81
f 80 106 107
f 83 109 110
f 83 110 106
f 84 105 111
f 84 111 86
f 85 112 88
f 85 86 112
f 86 111 113
f 86 113 112
f 87 114 115
f 87 115 116
f 87 116 89
f 87 88 114
f 88 112 117
f 88 117 118
f 88 118 114
f 90 119 91
f 91 120 92
f 91 119 121
f 91 121 120
f 92 120 122
f 92 122 123
f 92 123 93
f 93 123 124
f 93 124 125
f 93 125 96
f 94 96 126
f 94 126 127
f 96 125 126
f 97 128 129
f 97 129 130
f 97 130 131
f 97 131 132
f 97 132 133
f 97 133 134
f 97 134 135
f 97 135 136
f 97 136 137
f 97 137 138
f 97 138 139
f 97 139 140
f 97 140 141
f 97 141 142
f 97 142 98
f 104 108 143
f 104 143 105
f 105 143 144
f 105 144 111
f 106 110 107
f 107 145 149
f 107 149 146
f 107 146 147
f 107 147 108
f 107 110 145
f 108 147 143
f 109 145 110
f 109 148 149
f 109 149 145
f 111 150 113
f 111 144 150
f 112 113 151
f 112 151 117
f 113 150 152
f 113 152 151
f 114 153 154
f 114 154 155
f 114 155 115
f 114 118 153
f 117 156 118
f 117 151 157
f 117 157 156
f 118 156 158
f 118 158 153
f 120 159 160
f 120 160 122
f 120 121 159
f 121 161 159
f 122 162 163
f 122 163 164
f 122 164 123
f 122 160 162
f 123 164 124
f 124 164 165
f 124 165 166
f 124 166 125
f 125 166 167
f 125 167 126
f 126 168 127
f 126 167 168
f 128 169 170
f 128 170 129
f 128 171 169
f 129 131 130
f 143 147 172
f 143 172 173
f 143 173 144
f 144 173 206
f 144 206 174
f 144 174 150
f 146 149 175
f 146 175 176
f 146 176 177
f 146 177 178
f 146 178 179
f 146 179 147
f 147 179 203
f 147 203 172
f 148 175 149
f 148 180 176
f 148 176 175
f 150 174 181
f 150 181 152
f 151 152 182
f 151 182 157
f 152 181 183
f 152 183 182
f 153 158 184
f 153 184 185
f 153 185 154
f 154 185 186
f 156 187 188
f 156 188 184
f 156 184 158
f 156 157 187
f 157 182 189
f 157 189 187
f 159 190 160
f 159 161 191
f 159 191 190
f 160 190 192
f 160 192 162
f 162 192 193
f 162 193 194
f 162 194 163
f 163 194 164
f 164 194 195
f 164 195 165
f 165 195 196
f 165 196 197
f 165 197 166
f 166 197 198
f 166 198 167
f 167 198 199
f 167 199 200
f 167 200 168
f 169 171 201
f 169 201 170
f 171 202 246
f 171 246 295
f 171 295 348
f 171 348 288
f 171 288 242
f 171 242 201
f 172 203 204
f 172 204 173
f 173 204 205
f 173 205 206
f 174 206 181
f 176 180 207
f 176 207 177
f 177 207 208
f 177 208 209
f 177 209 210
f 177 210 211
f 177 211 178
f 178 212 203
f 178 203 179
f 178 211 212
f 180 209 208
f 180 208 207
f 180 213 214
f 180 214 209
f 181 206 215
f 181 215 217
f 181 217 183
f 182 216 189
f 182 183 216
f 183 217 218
f 183 218 216
f 184 219 185
f 184 188 220
f 184 220 221
f 184 221 219
f 185 219 222
f 185 222 186
f 186 222 223
f 187 220 188
f 187 189 224
f 187 224 220
f 189 216 225
f 189 225 224
f 190 226 227
f 190 227 228
f 190 228 192
f 190 191 226
f 191 229 226
f 192 230 231
f 192 231 193
f 192 228 230
f 193 231 232
f 193 232 233
f 193 233 194
f 194 233 234
f 194 234 195
f 195 234 235
f 195 235 196
f 196 235 236
f 196 236 237
f 196 237 238
f 196 238 197
f 197 238 239
f 197 239 198
f 198 240 199
f 198 239 241
f 198 241 240
f 202 243 244
f 202 244 245
f 202 245 246
f 203 212 204
f 204 212 247
f 204 247 248
f 204 248 205
f 205 249 215
f 205 215 206
f 205 248 249
f 209 214 210
f 210 214 250
f 210 250 251
f 210 251 211
f 211 252 212
f 211 251 252
f 212 252 253
f 212 253 254
f 212 254 247
f 213 255 214
f 214 255 256
f 214 256 257
f 214 257 250
f 215 249 258
f 215 258 217
f 216 218 259
f 216 259 225
f 217 258 260
f 217 260 218
f 218 260 259
f 219 221 261
f 219 261 262
f 219 262 263
f 219 263 222
f 220 264 261
f 220 261 221
f 220 224 264
f 222 263 265
f 222 265 223
f 224 225 267
f 224 267 266
f 224 266 264
f 225 259 268
f 225 268 267
f 226 269 227
f 226 229 270
f 226 270 269
f 227 269 228
f 228 269 271
f 228 271 272
f 228 272 273
f 228 273 274
f 228 274 275
f 228 275 230
f 230 275 276
f 230 276 231
f 231 277 232
f 231 276 277
f 232 277 278
f 232 278 279
f 232 279 280
f 232 280 233
f 233 280 281
f 233 281 234
f 234 281 235
f 235 281 282
f 235 282 236
f 236 282 283
f 236 283 237
f 237 283 284
f 237 284 285
f 237 285 239
f 237 239 238
f 239 285 286
f 239 286 287
f 239 287 241
f 242 288 289
f 243 290 291
f 243 291 292
f 243 292 244
f 244 293 245
f 244 292 293
f 245 293 294
f 245 294 246
f 246 294 295
f 247 254 248
f 248 254 253
f 248 253 296
f 248 296 365
f 248 365 297
f 248 297 249
f 249 297 307
f 249 307 258
f 250 257 251
f 251 257 298
f 251 298 252
f 252 298 299
f 252 299 300
f 252 300 253
f 253 300 301
f 253 301 296
f 255 302 256
f 256 302 303
f 256 303 304
f 256 304 305
f 256 305 306
f 256 306 257
f 257 306 298
f 258 307 308
f 258 308 309
f 258 309 260
f 259 260 310
f 259 310 311
f 259 311 268
f 260 309 310
f 261 264 312
f 261 312 262
f 262 313 263
f 262 312 313
f 263 314 316
f 263 316 265
f 263 313 314
f 264 315 312
f 264 266 315
f 266 267 315
f 267 317 318
f 267 318 315
f 267 268 317
f 268 311 319
f 268 319 320
f 268 320 317
f 269 270 321
f 269 321 322
f 269 322 271
f 270 323 321
f 271 322 324
f 271 324 272
f 272 325 326
f 272 326 327
f 272 327 273
f 272 324 328
f 272 328 329
f 272 329 325
f 273 330 274
f 273 327 330
f 274 331 275
f 274 330 332
f 274 332 333
f 274 333 331
f 275 331 334
f 275 334 335
f 275 335 277
f 275 277 276
f 277 336 278
f 277 335 336
f 278 336 337
f 278 337 338
f 278 338 279
f 279 338 339
f 279 339 340
f 279 340 280
f 280 340 341
f 280 341 281
f 281 341 342
f 281 342 282
f 282 342 283
f 283 342 343
f 283 343 344
f 283 344 284
f 284 345 285
f 284 344 346
f 284 346 345
f 285 347 286
f 285 345 416
f 285 416 347
f 288 348 349
f 288 349 350
f 288 350 351
f 288 351 289
f 289 351 352
f 289 352 353
f 290 354 355
f 290 355 356
f 290 356 357
f 290 357 291
f 291 357 292
f 292 357 358
f 292 358 359
f 292 359 293
f 293 359 294
f 294 359 360
f 294 360 361
f 294 361 362
f 294 362 363
f 294 363 364
f 294 364 295
f 295 364 349
f 295 349 348
f 296 301 365
f 297 365 366
f 297 366 307
f 298 306 305
f 298 305 367
f 298 367 369
f 298 369 368
f 298 368 299
f 299 368 300
f 300 368 369
f 300 369 370
f 300 370 445
f 300 445 371
f 300 371 301
f 301 371 372
f 301 372 373
f 301 373 365
f 303 374 375
f 303 375 304
f 304 375 305
f 305 375 376
f 305 376 367
f 307 366 308
f 308 377 378
f 308 378 379
f 308 379 380
f 308 380 310
f 308 310 309
f 308 366 381
f 308 381 377
f 310 380 382
f 310 382 311
f 311 382 383
f 311 383 319
f 312 315 384
f 312 384 313
f 313 385 386
f 313 386 314
f 313 384 385
f 314 386 390
f 314 390 316
f 315 387 384
f 315 318 388
f 315 388 389
f 315 389 387
f 317 388 318
f 317 320 391
f 317 391 388
f 319 392 320
f 319 383 393
f 319 393 394
f 319 394 392
f 320 392 395
f 320 395 391
f 321 323 396
f 321 396 322
f 322 396 324
f 324 397 329
f 324 329 328
f 325 329 398
f 325 398 399
f 325 399 326
f 326 384 330
f 326 330 327
f 326 399 385
f 326 385 384
f 329 397 462
f 329 462 398
f 330 384 387
f 330 387 400
f 330 400 401
f 330 401 332
f 331 333 334
f 332 401 333
f 333 401 402
f 333 402 403
f 333 403 334
f 334 403 404
f 334 404 336
f 334 336 335
f 336 404 337
f 337 404 405
f 337 405 406
f 337 406 338
f 338 406 407
f 338 407 408
f 338 408 339
f 339 408 409
f 339 409 340
f 340 409 410
f 340 410 341
f 341 410 411
f 341 411 342
f 342 411 412
f 342 412 343
f 343 412 413
f 343 413 414
f 343 414 415
f 343 415 344
f 344 415 346
f 345 346 417
f 345 417 416
f 346 415 418
f 346 418 417
f 349 364 419
f 349 419 420
f 349 420 421
f 349 421 350
f 350 421 352
f 350 352 351
f 352 422 423
f 352 423 424
f 352 424 425
f 352 425 426
f 352 426 353
f 352 421 422
f 354 427 428
f 354 428 429
f 354 429 355
f 355 430 356
f 355 429 431
f 355 431 430
f 356 430 432
f 356 432 433
f 356 433 434
f 356 434 435
f 356 435 357
f 357 435 358
f 358 435 359
f 359 435 436
f 359 436 360
f 360 436 361
f 361 437 362
f 361 436 437
f 362 438 363
f 362 437 438
f 363 439 364
f 363 438 439
f 364 439 419
f 365 373 440
f 365 440 366
f 366 440 441
f 366 441 381
f 367 376 442
f 367 442 369
f 369 442 443
f 369 443 444
f 369 444 370
f 370 444 445
f 371 445 446
f 371 446 372
f 372 447 448
f 372 448 440
f 372 440 373
f 372 446 449
f 372 449 447
f 374 450 375
f 375 450 451
f 375 451 376
f 376 451 452
f 376 452 442
f 377 453 378
f 377 381 441
f 377 441 454
f 377 454 455
f 377 455 456
f 377 456 457
f 377 457 453
f 378 453 379
f 379 453 382
f 379 382 380
f 382 453 383
f 383 458 393
f 383 453 457
f 383 457 459
f 383 459 458
f 385 399 398
f 385 398 386
f 386 398 462
f 386 462 390
f 387 389 460
f 387 460 400
f 388 460 389
f 388 391 461
f 388 461 460
f 391 395 463
f 391 463 464
f 391 464 461
f 392 465 463
f 392 463 395
f 392 394 466
f 392 466 465
f 393 458 467
f 393 467 466
f 393 466 394
f 400 460 402
f 400 402 401
f 402 460 461
f 402 461 468
f 402 468 403
f 403 468 469
f 403 469 404
f 404 469 405
f 405 469 470
f 405 470 406
f 406 470 407
f 407 470 471
f 407 471 472
f 407 472 473
f 407 473 408
f 408 473 409
f 409 473 474
f 409 474 475
f 409 475 476
f 409 476 477
f 409 477 410
f 410 477 411
f 411 413 412
f 411 477 478
f 411 478 479
f 411 479 413
f 413 479 480
f 413 480 481
f 413 481 414
f 414 481 415
f 415 481 482
f 415 482 418
f 417 418 483
f 418 482 484
f 418 484 485
f 418 485 486
f 418 486 483
f 419 487 422
f 419 422 421
f 419 421 420
f 419 439 487
f 422 487 488
f 422 488 423
f 423 488 489
f 423 489 490
f 423 490 491
f 423 491 492
f 423 492 493
f 423 493 424
f 424 493 452
f 424 452 425
f 425 452 494
f 425 494 495
f 427 496 428
f 428 497 429
f 428 496 498
f 428 498 499
f 428 499 500
f 428 500 501
f 428 501 497
f 429 497 431
f 430 431 432
f 431 497 501
f 431 501 502
f 431 502 503
f 431 503 504
f 431 504 432
f 432 504 505
f 432 505 433
f 433 505 434
f 434 506 435
f 434 505 507
f 434 507 508
f 434 508 506
f 435 506 437
f 435 437 436
f 437 509 510
f 437 510 511
f 437 511 487
f 437 487 438
f 437 506 512
f 437 512 513
f 437 513 514
f 437 514 509
f 438 487 439
f 440 448 454
f 440 454 441
f 442 452 515
f 442 515 443
f 443 515 516
f 443 516 517
f 443 517 444
f 444 517 518
f 444 518 585
f 444 585 519
f 444 519 445
f 445 519 520
f 445 520 446
f 446 520 449
f 447 521 454
f 447 454 448
f 447 449 521
f 449 522 521
f 449 520 523
f 449 523 524
f 449 524 522
f 450 525 451
f 451 495 494
f 451 494 452
f 451 525 495
f 452 516 515
f 452 493 516
f 454 521 526
f 454 526 455
f 455 526 456
f 456 527 530
f 456 530 457
f 456 526 528
f 456 528 529
f 456 529 592
f 456 592 527
f 457 530 459
f 458 459 531
f 458 531 532
f 458 532 467
f 459 530 531
f 461 464 468
f 463 465 466
f 463 466 533
f 463 533 534
f 463 534 468
f 463 468 464
f 466 467 533
f 467 535 536
f 467 536 537
f 467 537 533
f 467 532 538
f 467 538 535
f 468 534 469
f 469 534 533
f 469 533 539
f 469 539 470
f 470 539 471
f 471 539 540
f 471 540 541
f 471 541 472
f 472 474 473
f 472 541 542
f 472 542 543
f 472 543 544
f 472 544 545
f 472 545 546
f 472 546 475
f 472 475 474
f 475 546 547
f 475 547 548
f 475 548 549
f 475 549 476
f 476 549 477
f 477 549 548
f 477 548 478
f 478 548 550
f 478 550 551
f 478 551 479
f 479 551 552
f 479 552 480
f 480 552 481
f 481 552 553
f 481 553 554
f 481 554 555
f 481 555 484
f 481 484 482
f 484 555 556
f 484 556 485
f 485 556 557
f 485 557 486
f 487 511 558
f 487 558 559
f 487 559 488
f 488 559 560
f 488 560 561
f 488 561 562
f 488 562 489
f 489 562 563
f 489 563 490
f 490 563 491
f 491 563 564
f 491 564 565
f 491 565 566
f 491 566 492
f 492 566 516
f 492 516 493
f 499 567 500
f 500 567 568
f 500 568 556
f 500 556 555
f 500 555 501
f 501 555 554
f 501 554 502
f 502 554 569
f 502 569 503
f 503 570 504
f 503 569 571
f 503 571 570
f 504 570 505
f 505 570 507
f 506 508 514
f 506 514 512
f 507 570 571
f 507 571 572
f 507 572 574
f 507 574 508
f 508 573 514
f 508 574 573
f 509 514 575
f 509 575 576
f 509 576 510
f 510 576 577
f 510 577 578
f 510 578 579
f 510 579 580
f 510 580 581
f 510 581 558
f 510 558 511
f 512 514 513
f 514 573 582
f 514 582 583
f 514 583 584
f 514 584 575
f 516 566 517
f 517 566 565
f 517 565 518
f 518 565 564
f 518 564 585
f 519 585 586
f 519 586 520
f 520 586 523
f 521 522 528
f 521 528 526
f 522 524 528
f 523 586 563
f 523 563 587
f 523 587 588
f 523 588 524
f 524 589 528
f 524 588 589
f 527 590 591
f 527 591 531
f 527 531 530
f 527 592 590
f 528 589 593
f 528 593 529
f 529 593 592
f 531 591 532
f 532 591 594
f 532 594 597
f 532 597 538
f 533 537 539
f 535 595 596
f 535 596 540
f 535 540 536
f 535 538 595
f 536 540 537
f 537 540 539
f 538 597 598
f 538 598 595
f 540 596 542
f 540 542 541
f 542 596 595
f 542 595 543
f 543 595 544
f 544 599 632
f 544 632 600
f 544 600 546
f 544 546 545
f 544 595 598
f 544 598 599
f 546 600 601
f 546 601 547
f 547 601 548
f 548 601 602
f 548 602 603
f 548 603 604
f 548 604 605
f 548 605 550
f 550 605 606
f 550 606 551
f 551 606 552
f 552 606 553
f 553 606 569
f 553 569 554
f 556 568 557
f 558 581 559
f 559 581 607
f 559 607 608
f 559 608 560
f 560 608 561
f 561 608 609
f 561 609 589
f 561 589 610
f 561 610 587
f 561 587 611
f 561 611 562
f 562 611 563
f 563 611 587
f 563 586 564
f 564 586 585
f 569 606 571
f 571 606 612
f 571 612 572
f 572 612 613
f 572 613 574
f 573 574 582
f 574 613 582
f 575 584 576
f 576 584 614
f 576 614 615
f 576 615 578
f 576 578 577
f 578 616 617
f 578 617 618
f 578 618 635
f 578 635 619
f 578 619 579
f 578 615 616
f 579 620 621
f 579 621 580
f 579 619 620
f 580 621 581
f 581 621 622
f 581 622 623
f 581 623 607
f 582 613 624
f 582 624 583
f 583 624 625
f 583 625 614
f 583 614 584
f 587 610 588
f 588 610 589
f 589 609 626
f 589 626 593
f 590 627 594
f 590 594 591
f 590 592 628
f 590 628 635
f 590 635 627
f 592 593 629
f 592 629 628
f 593 626 629
f 594 627 630
f 594 630 597
f 597 630 598
f 598 630 631
f 598 631 599
f 599 631 617
f 599 617 633
f 599 633 634
f 599 634 632
f 600 632 601
f 601 632 602
f 602 632 634
f 602 634 603
f 603 634 625
f 603 625 624
f 603 624 604
f 604 624 613
f 604 613 612
f 604 612 605
f 605 612 606
f 607 623 626
f 607 626 609
f 607 609 608
f 614 625 633
f 614 633 616
f 614 616 615
f 616 633 617
f 617 631 630
f 617 630 618
f 618 630 635
f 619 635 628
f 619 628 622
f 619 622 621
f 619 621 620
f 622 628 629
f 622 629 623
f 623 629 626
f 625 634 633
f 627 635 630

