# https://github.com/mikedh/trimesh
v -0.02540114 0.01063606 0.07668426
v -0.02540114 0.01106597 0.07651217
v -0.02652290 0.01106509 0.07651217
v -0.02803794 0.01106204 0.07651217
v -0.02955298 0.01105855 0.07651217
v -0.02854471 0.01063606 0.07668113
v -0.02540114 0.01063606 0.04471927
v -0.02540114 0.01182365 0.07618363
v -0.03106801 0.01104895 0.07650904
v -0.03005711 0.01063606 0.07667800
v -0.02803794 0.01181972 0.07618050
v -0.02955298 0.01181623 0.07617737
v -0.04530514 0.01063606 0.04471927
v -0.02540114 0.01509441 0.04471927
v -0.02540114 0.01256125 0.07581129
v -0.02652290 0.01282006 0.07567988
v -0.03106801 0.01180662 0.07617424
v -0.03258305 0.01102843 0.07649965
v -0.03258305 0.01063606 0.07665610
v -0.03106801 0.01063606 0.07667174
v -0.02955298 0.01282006 0.07567362
v -0.04565355 0.01134224 0.04471927
v -0.04576704 0.01063606 0.04527622
v -0.04621047 0.01509441 0.04471927
v -0.02540114 0.01509441 0.07435947
v -0.02540114 0.01282006 0.07567988
v -0.02540114 0.01370344 0.07519802
v -0.02540114 0.01401288 0.07502906
v -0.02803794 0.01401026 0.07502906
v -0.03106801 0.01282006 0.07566423
v -0.03258305 0.01282006 0.07564546
v -0.03258305 0.01178611 0.07616486
v -0.03409809 0.01100268 0.07649026
v -0.03306343 0.01063606 0.07664984
v -0.02955298 0.01401026 0.07502593
v -0.05236300 0.01063606 0.05367422
v -0.05236300 0.01509441 0.05215044
v -0.02955298 0.01509441 0.07435947
v -0.02540114 0.01477056 0.07457537
v -0.02540114 0.01457416 0.07469427
v -0.02955298 0.01476794 0.07457224
v -0.03106801 0.01400372 0.07501967
v -0.03258305 0.01398932 0.07501341
v -0.03409809 0.01397404 0.07500090
v -0.03409809 0.01282006 0.07562043
v -0.03409809 0.01176080 0.07615234
v -0.03561576 0.01096777 0.07647462
v -0.03455735 0.01063606 0.07662794
v -0.03106801 0.01476140 0.07456911
v -0.05236300 0.01063606 0.07374308
v -0.05236300 0.01509441 0.07104282
v -0.03106801 0.01509441 0.07435321
v -0.03409809 0.01473172 0.07455347
v -0.03561576 0.01470029 0.07453469
v -0.03561576 0.01394218 0.07498212
v -0.03561576 0.01282006 0.07558601
v -0.03561576 0.01172544 0.07613357
v -0.03713080 0.01089444 0.07644333
v -0.03604071 0.01063606 0.07659039
v -0.03561576 0.01063606 0.07660603
v -0.05217823 0.01063606 0.07381817
v -0.05236300 0.01118337 0.07349902
v -0.05236300 0.01462697 0.07139639
v -0.05228117 0.01464355 0.07142142
v -0.05127026 0.01495125 0.07163732
v -0.05118317 0.01509441 0.07156223
v -0.03210531 0.01509441 0.07434070
v -0.03360715 0.01509441 0.07432193
v -0.03409809 0.01509441 0.07431254
v -0.03509580 0.01509441 0.07428751
v -0.03559729 0.01509441 0.07427186
v -0.03713080 0.01509441 0.07419364
v -0.03713080 0.01463875 0.07449715
v -0.03713080 0.01388107 0.07494771
v -0.03713080 0.01282006 0.07551717
v -0.03713080 0.01165212 0.07610228
v -0.03864584 0.01154912 0.07605534
v -0.03864584 0.01079100 0.07639640
v -0.03713080 0.01063606 0.07654658
v -0.05131514 0.01063606 0.07412167
v -0.05220727 0.01126281 0.07352405
v -0.05165299 0.01215579 0.07331129
v -0.05236300 0.01186380 0.07315797
v -0.05236300 0.01454579 0.07145584
v -0.05236300 0.01386056 0.07194082
v -0.05076613 0.01440176 0.07221304
v -0.05075822 0.01509441 0.07174057
v -0.03864584 0.01509441 0.07410290
v -0.03864584 0.01456281 0.07445334
v -0.03864584 0.01380513 0.07490703
v -0.03864584 0.01282006 0.07542956
v -0.04015824 0.01282006 0.07533569
v -0.04015824 0.01144219 0.07600841
v -0.04015824 0.01068451 0.07634946
v -0.04015824 0.01063606 0.07636823
v -0.05076613 0.01063606 0.07431254
v -0.05076613 0.01130471 0.07400903
v -0.05076613 0.01241155 0.07345209
v -0.05076613 0.01316879 0.07301404
v -0.05220727 0.01272448 0.07272305
v -0.05236300 0.01273103 0.07265109
v -0.05034382 0.01509441 0.07190327
v -0.04974467 0.01344506 0.07318300
v -0.04015824 0.01509441 0.07399652
v -0.04015824 0.01447858 0.07439702
v -0.04015824 0.01372090 0.07485697
v -0.04119026 0.01364234 0.07481317
v -0.04168647 0.01293572 0.07511980
v -0.04163896 0.01118686 0.07598338
v -0.04107412 0.01063606 0.07630253
v -0.04964965 0.01063606 0.07464421
v -0.04927221 0.01125757 0.07446273
v -0.04773606 0.01178306 0.07463795
v -0.04924318 0.01289164 0.07363044
v -0.04924318 0.01424769 0.07280753
v -0.04924846 0.01509441 0.07223181
v -0.04873377 0.01368380 0.07332693
v -0.04167855 0.01509441 0.07382443
v -0.04168647 0.01422282 0.07438450
v -0.04220116 0.01351795 0.07474120
v -0.04318831 0.01433542 0.07409977
v -0.04318831 0.01262933 0.07506973
v -0.04318831 0.01130471 0.07571117
v -0.04200056 0.01063606 0.07618363
v -0.04904786 0.01063606 0.07481630
v -0.04878128 0.01072073 0.07485384
v -0.04773606 0.01102538 0.07500090
v -0.04688352 0.01202136 0.07475372
v -0.04773606 0.01282006 0.07408413
v -0.04773606 0.01465054 0.07296085
v -0.04650872 0.01490193 0.07312981
v -0.04550837 0.01509441 0.07327374
v -0.04773606 0.01389286 0.07346147
v -0.04318831 0.01509441 0.07361479
v -0.04318831 0.01338658 0.07466924
v -0.04470599 0.01433542 0.07387449
v -0.04470599 0.01509441 0.07339577
v -0.04470599 0.01317752 0.07455972
v -0.04470599 0.01241984 0.07495709
v -0.04470599 0.01130471 0.07548588
v -0.04318831 0.01063606 0.07600841
v -0.04882879 0.01063606 0.07487574
v -0.04773606 0.01063606 0.07516986
v -0.04700230 0.01063606 0.07533569
v -0.04631340 0.01143171 0.07514483
v -0.04587262 0.01222867 0.07485697
v -0.04631340 0.01276856 0.07447211
v -0.04609169 0.01437208 0.07358037
v -0.04526819 0.01063606 0.07567675
v -0.04470599 0.01063606 0.07577061
v -0.04621838 0.01063606 0.07550778
f 1 2 3
f 1 3 4
f 1 4 5
f 1 5 6
f 1 6 10
f 1 10 20
f 1 20 19
f 1 19 34
f 1 34 48
f 1 48 60
f 1 60 59
f 1 59 79
f 1 79 95
f 1 95 110
f 1 110 124
f 1 124 141
f 1 141 150
f 1 150 149
f 1 149 151
f 1 151 144
f 1 144 143
f 1 143 142
f 1 142 125
f 1 125 111
f 1 111 96
f 1 96 80
f 1 80 61
f 1 61 50
f 1 50 36
f 1 36 23
f 1 23 13
f 1 13 7
f 1 7 14
f 1 14 25
f 1 25 39
f 1 39 40
f 1 40 28
f 1 28 27
f 1 27 26
f 1 26 15
f 1 15 8
f 1 8 2
f 2 8 3
f 3 8 4
f 4 8 5
f 5 9 10
f 5 10 6
f 5 8 11
f 5 11 12
f 5 12 17
f 5 17 9
f 7 13 22
f 7 22 24
f 7 24 14
f 8 15 16
f 8 16 11
f 9 17 32
f 9 32 18
f 9 18 19
f 9 19 20
f 9 20 10
f 11 16 21
f 11 21 12
f 12 21 17
f 13 23 22
f 14 24 37
f 14 37 51
f 14 51 66
f 14 66 87
f 14 87 102
f 14 102 116
f 14 116 132
f 14 132 137
f 14 137 134
f 14 134 118
f 14 118 104
f 14 104 88
f 14 88 72
f 14 72 71
f 14 71 70
f 14 70 69
f 14 69 68
f 14 68 67
f 14 67 52
f 14 52 38
f 14 38 25
f 15 26 16
f 16 26 27
f 16 27 28
f 16 28 29
f 16 29 35
f 16 35 21
f 17 21 30
f 17 30 31
f 17 31 32
f 18 33 19
f 18 32 33
f 19 33 34
f 21 35 30
f 22 23 36
f 22 36 37
f 22 37 24
f 25 38 39
f 28 40 29
f 29 40 41
f 29 41 35
f 30 35 42
f 30 42 43
f 30 43 31
f 31 43 44
f 31 44 45
f 31 45 32
f 32 45 46
f 32 46 33
f 33 46 47
f 33 47 48
f 33 48 34
f 35 41 49
f 35 49 42
f 36 50 62
f 36 62 83
f 36 83 101
f 36 101 85
f 36 85 84
f 36 84 63
f 36 63 51
f 36 51 37
f 38 52 41
f 38 41 39
f 39 41 40
f 41 52 49
f 42 49 43
f 43 49 53
f 43 53 44
f 44 53 54
f 44 54 55
f 44 55 56
f 44 56 45
f 45 56 46
f 46 56 57
f 46 57 47
f 47 58 59
f 47 59 60
f 47 60 48
f 47 57 76
f 47 76 58
f 49 52 53
f 50 61 62
f 51 63 64
f 51 64 65
f 51 65 66
f 52 67 53
f 53 67 68
f 53 68 69
f 53 69 70
f 53 70 54
f 54 70 71
f 54 71 72
f 54 72 73
f 54 73 74
f 54 74 55
f 55 74 56
f 56 74 75
f 56 75 76
f 56 76 57
f 58 76 77
f 58 77 78
f 58 78 79
f 58 79 59
f 61 80 81
f 61 81 62
f 62 81 82
f 62 82 83
f 63 84 64
f 64 84 65
f 65 84 85
f 65 85 86
f 65 86 87
f 65 87 66
f 72 88 73
f 73 88 89
f 73 89 90
f 73 90 74
f 74 90 75
f 75 90 91
f 75 91 76
f 76 91 92
f 76 92 77
f 77 93 94
f 77 94 78
f 77 92 93
f 78 94 79
f 79 94 95
f 80 96 97
f 80 97 82
f 80 82 81
f 82 97 98
f 82 98 99
f 82 99 85
f 82 85 100
f 82 100 101
f 82 101 83
f 85 101 100
f 85 99 86
f 86 102 87
f 86 99 103
f 86 103 102
f 88 104 89
f 89 104 105
f 89 105 106
f 89 106 90
f 90 106 92
f 90 92 91
f 92 106 107
f 92 107 108
f 92 108 109
f 92 109 93
f 93 109 110
f 93 110 94
f 94 110 95
f 96 111 97
f 97 111 112
f 97 112 98
f 98 103 99
f 98 112 113
f 98 113 114
f 98 114 103
f 102 103 115
f 102 115 116
f 103 114 117
f 103 117 115
f 104 118 105
f 105 119 107
f 105 107 106
f 105 118 119
f 107 120 108
f 107 119 121
f 107 121 120
f 108 122 109
f 108 120 122
f 109 123 124
f 109 124 110
f 109 122 123
f 111 125 126
f 111 126 112
f 112 126 127
f 112 127 113
f 113 127 128
f 113 128 114
f 114 128 129
f 114 129 117
f 115 117 130
f 115 130 116
f 116 130 131
f 116 131 132
f 117 129 133
f 117 133 130
f 118 134 119
f 119 134 121
f 120 135 122
f 120 121 136
f 120 136 135
f 121 134 137
f 121 137 136
f 122 135 138
f 122 138 139
f 122 139 123
f 123 140 141
f 123 141 124
f 123 139 140
f 125 142 126
f 126 142 143
f 126 143 127
f 127 143 144
f 127 144 145
f 127 145 128
f 128 145 146
f 128 146 147
f 128 147 129
f 129 147 133
f 130 133 131
f 131 133 132
f 132 133 148
f 132 148 138
f 132 138 136
f 132 136 137
f 133 147 148
f 135 136 138
f 138 147 146
f 138 146 139
f 138 148 147
f 139 146 140
f 140 149 150
f 140 150 141
f 140 146 145
f 140 145 149
f 144 151 145
f 145 151 149

