# https://github.com/mikedh/trimesh
v 0.07657495 0.00069630 0.02704240
v 0.07648668 0.00221202 0.02704240
v 0.07648668 0.00221202 0.02855481
v 0.07657185 0.00069630 0.03007412
v 0.07657185 -0.00008830 0.02934209
v 0.07657339 -0.00008830 0.02782278
v 0.07657339 -0.00008830 0.02704240
v 0.07656411 -0.00008830 0.01267111
v 0.07656255 -0.00008830 0.01037142
v 0.07656875 0.00069630 0.01794726
v 0.07647584 0.00221202 0.01037142
v 0.07633182 0.00372773 0.02552309
v 0.07633182 0.00372773 0.02855481
v 0.07633027 0.00372773 0.03007412
v 0.07648358 0.00221202 0.03158652
v 0.07657030 0.00069630 0.03158652
v 0.07657030 -0.00008830 0.03085449
v 0.07656255 0.00069630 0.01037142
v 0.07656411 0.00069630 0.01188383
v 0.07656565 0.00069630 0.01340314
v 0.07655637 -0.00008830 0.00885902
v 0.07655791 0.00069630 0.00885902
v 0.07646964 0.00221202 0.00885902
v 0.07632098 0.00372773 0.01037142
v 0.07632252 0.00372773 0.01188383
v 0.07608250 0.00524261 0.02552309
v 0.07608250 0.00524261 0.02855481
v 0.07632872 0.00372773 0.03158652
v 0.07647584 0.00221202 0.03310583
v 0.07656411 0.00069630 0.03310583
v 0.07656565 -0.00008830 0.03237380
v 0.07656875 -0.00008830 0.03158652
v 0.07654552 -0.00008830 0.00812699
v 0.07653468 0.00069630 0.00733971
v 0.07644487 0.00221202 0.00733971
v 0.07631478 0.00372773 0.00885902
v 0.07607166 0.00524261 0.01037142
v 0.07607321 0.00524261 0.01188383
v 0.07585021 0.00631799 0.02249829
v 0.07585176 0.00632383 0.02704240
v 0.07584866 0.00631631 0.03158652
v 0.07607785 0.00524261 0.03158652
v 0.07632098 0.00372773 0.03310583
v 0.07646190 0.00221202 0.03461824
v 0.07656255 -0.00008830 0.03310583
v 0.07654862 0.00069630 0.03461824
v 0.07655481 -0.00008830 0.03388621
v 0.07653313 -0.00008830 0.00733971
v 0.07645880 -0.00008830 0.00430799
v 0.07649752 0.00069630 0.00582731
v 0.07629001 0.00372773 0.00733971
v 0.07636899 0.00221202 0.00430799
v 0.07606547 0.00524261 0.00885902
v 0.07584247 0.00628791 0.00885902
v 0.07584557 0.00630044 0.01037142
v 0.07566439 0.00708002 0.02552309
v 0.07565974 0.00706080 0.01188383
v 0.07566439 0.00708169 0.02704240
v 0.07566439 0.00708002 0.02855481
v 0.07566439 0.00707417 0.03158652
v 0.07584557 0.00630295 0.03310583
v 0.07607011 0.00524261 0.03310583
v 0.07630550 0.00372773 0.03461824
v 0.07628846 0.00372773 0.03613755
v 0.07644332 0.00221202 0.03613755
v 0.07653158 0.00069630 0.03613755
v 0.07654707 -0.00008830 0.03461824
v 0.07640151 -0.00008830 0.00279559
v 0.07640305 0.00069630 0.00279559
v 0.07645880 0.00069630 0.00430799
v 0.07603914 0.00524261 0.00733971
v 0.07620948 0.00372773 0.00430799
v 0.07631478 0.00221202 0.00279559
v 0.07615838 0.00372773 0.00279559
v 0.07582854 0.00623025 0.00733971
v 0.07565510 0.00704576 0.00885902
v 0.07565819 0.00705830 0.01037142
v 0.07532680 0.00827321 0.02552309
v 0.07531751 0.00827321 0.01188383
v 0.07531596 0.00827321 0.01037142
v 0.07532680 0.00827321 0.02855481
v 0.07532525 0.00827321 0.03158652
v 0.07566129 0.00705997 0.03310583
v 0.07565355 0.00702738 0.03461824
v 0.07564580 0.00699229 0.03613755
v 0.07582854 0.00623443 0.03613755
v 0.07605463 0.00524261 0.03461824
v 0.07603604 0.00524261 0.03613755
v 0.07625904 0.00372773 0.03764305
v 0.07641545 0.00221202 0.03764305
v 0.07650371 0.00069630 0.03764305
v 0.07651610 -0.00008830 0.03691102
v 0.07653004 -0.00008830 0.03613755
v 0.07624045 -0.00008830 0.00228455
v 0.07606857 0.00069630 0.00173898
v 0.07602675 0.00221202 0.00176660
v 0.07595397 0.00524261 0.00430799
v 0.07577279 0.00600298 0.00352762
v 0.07594932 0.00372773 0.00182875
v 0.07585951 0.00490421 0.00193235
v 0.07588893 0.00534288 0.00293371
v 0.07564116 0.00698727 0.00733971
v 0.07530976 0.00827321 0.00885902
v 0.07526331 0.00844784 0.01928702
v 0.07526640 0.00844784 0.02383804
v 0.07526795 0.00844784 0.02686976
v 0.07525711 0.00844784 0.01171118
v 0.07525866 0.00844784 0.01323049
v 0.07526021 0.00844784 0.01491554
v 0.07525556 0.00844784 0.01019878
v 0.07526795 0.00844784 0.02855481
v 0.07526640 0.00844784 0.03007412
v 0.07526485 0.00844784 0.03158652
v 0.07525866 0.00844784 0.03310583
v 0.07531751 0.00827321 0.03310583
v 0.07530202 0.00827321 0.03461824
v 0.07528498 0.00827321 0.03613755
v 0.07525247 0.00827321 0.03764305
v 0.07563032 0.00693129 0.03764305
v 0.07581304 0.00617343 0.03764305
v 0.07600662 0.00524261 0.03764305
v 0.07620329 0.00372773 0.03915545
v 0.07636124 0.00221202 0.03915545
v 0.07650216 -0.00008830 0.03764305
v 0.07644796 0.00069630 0.03915545
v 0.07644796 -0.00008830 0.03915545
v 0.07647429 -0.00008830 0.03843033
v 0.07606701 -0.00008830 0.00173898
v 0.07501399 -0.00008830 0.00140749
v 0.07501399 0.00069630 0.00140749
v 0.07501399 0.00221202 0.00143512
v 0.07501399 0.00372773 0.00150418
v 0.07573562 0.00591441 0.00251935
v 0.07518123 0.00827321 0.00430799
v 0.07559315 0.00680596 0.00430799
v 0.07463304 0.00827321 0.00173207
v 0.07460826 0.00844784 0.00174589
v 0.07500624 0.00844784 0.00269200
v 0.07527879 0.00827321 0.00733971
v 0.07524937 0.00844784 0.00885902
v 0.07524627 0.00844784 0.00867947
v 0.07524472 0.00844784 0.03444559
v 0.07522459 0.00844784 0.03613755
v 0.07519672 0.00844784 0.03747040
v 0.07514097 0.00844784 0.03898280
v 0.07519362 0.00827321 0.03915545
v 0.07519207 0.00844784 0.03764305
v 0.07554359 0.00675749 0.04067476
v 0.07563341 0.00665723 0.03925904
v 0.07579292 0.00608570 0.03881706
v 0.07591680 0.00538132 0.03925904
v 0.07590131 0.00512480 0.04067476
v 0.07613206 0.00372773 0.04067476
v 0.07629001 0.00221202 0.04067476
v 0.07637673 0.00069630 0.04067476
v 0.07637673 -0.00008830 0.04067476
v 0.07428306 -0.00008830 0.00139368
v 0.07349948 0.00675749 0.00137987
v 0.07349948 0.00827321 0.00140059
v 0.07508367 0.00827321 0.00279559
v 0.07502792 0.00844784 0.00279559
v 0.07511309 0.00844784 0.00413534
v 0.07512084 0.00844784 0.00430799
v 0.07516420 0.00844784 0.00564775
v 0.07450296 0.00844784 0.00171136
v 0.07521840 0.00844784 0.00733971
v 0.07513322 0.00844784 0.03915545
v 0.07512238 0.00827321 0.04067476
v 0.07574801 0.00588266 0.04067476
v 0.07576814 0.00597958 0.03983224
v 0.07546152 0.00675749 0.04218717
v 0.07586105 0.00492760 0.04218717
v 0.07605307 0.00372773 0.04218717
v 0.07621258 0.00221202 0.04218717
v 0.07630085 0.00069630 0.04218717
v 0.07629930 -0.00008830 0.04218717
v 0.07349948 -0.00008830 0.00137987
v 0.06440783 0.00675749 0.00137296
v 0.07198343 0.00844784 0.00137987
v 0.07332450 0.00844784 0.00140059
v 0.07349948 0.00844784 0.00142130
v 0.07506199 0.00844784 0.04067476
v 0.07503566 0.00827321 0.04218717
v 0.07570774 0.00568546 0.04218717
v 0.07532215 0.00675749 0.04370648
v 0.07581770 0.00470618 0.04331975
v 0.07589977 0.00381045 0.04377554
v 0.07608095 0.00221202 0.04370648
v 0.07617077 0.00069630 0.04370648
v 0.07616922 -0.00008830 0.04370648
v 0.06592388 -0.00008830 0.00137987
v 0.06440783 0.00524261 0.00137987
v 0.06289177 0.00844784 0.00140059
v 0.06423284 0.00844784 0.00137987
v 0.07498456 0.00844784 0.04201452
v 0.07497372 0.00844784 0.04217336
v 0.07483126 0.00844784 0.04370648
v 0.07489165 0.00827321 0.04370648
v 0.07496133 0.00675749 0.04673819
v 0.07565664 0.00522339 0.04377554
v 0.07529892 0.00524261 0.04673819
v 0.07575575 0.00436945 0.04432801
v 0.07571394 0.00381045 0.04534319
v 0.07582698 0.00336008 0.04492193
v 0.07576659 0.00289467 0.04593020
v 0.07580376 0.00188447 0.04624787
v 0.07574646 0.00069630 0.04727686
v 0.07574646 -0.00008830 0.04726995
v 0.06440783 0.00221202 0.00149036
v 0.06440783 0.00372773 0.00139368
v 0.06510778 -0.00008830 0.00154561
v 0.06289177 0.00827321 0.00140749
v 0.06271059 0.00844784 0.00143512
v 0.07465007 0.00844784 0.04521888
v 0.07470892 0.00827321 0.04521888
v 0.07448593 0.00837766 0.04675891
v 0.07438682 0.00790473 0.04825060
v 0.07470427 0.00675749 0.04825060
v 0.07504496 0.00524261 0.04825060
v 0.07531131 0.00372773 0.04825060
v 0.07555908 0.00372773 0.04673819
v 0.07571239 0.00231897 0.04674510
v 0.07547701 0.00221202 0.04825060
v 0.07556683 0.00069630 0.04825060
v 0.07556528 -0.00008830 0.04825060
v 0.06444499 -0.00008830 0.00171136
v 0.06169163 0.00844784 0.00173207
v 0.07446889 0.00844784 0.04671748
v 0.07445495 0.00844784 0.04682106
v 0.07420099 0.00844784 0.04825060
v 0.07428771 0.00760726 0.04914147
v 0.07417001 0.00717193 0.05015664
v 0.07439301 0.00670318 0.04969394
v 0.07429700 0.00616174 0.05070221
v 0.07470892 0.00524261 0.04976300
v 0.07497992 0.00372773 0.04976300
v 0.07514871 0.00221202 0.04976300
v 0.07524008 0.00069630 0.04976300
v 0.07539648 -0.00008830 0.04903788
v 0.06392467 -0.00008830 0.00254007
v 0.06357470 0.00110907 0.00194616
v 0.06344307 0.00221202 0.00181494
v 0.06199206 0.00675749 0.00189091
v 0.06158788 0.00844784 0.00190472
v 0.07405387 0.00844784 0.04889285
v 0.07355988 0.00827321 0.05128231
v 0.07403684 0.00670318 0.05123397
v 0.07418240 0.00564034 0.05171048
v 0.07438527 0.00517744 0.05123397
v 0.07428616 0.00463014 0.05213865
v 0.07463304 0.00372773 0.05128231
v 0.07480338 0.00221202 0.05128231
v 0.07489475 0.00069630 0.05128231
v 0.07506044 -0.00008830 0.05055028
v 0.07523853 -0.00008830 0.04976300
v 0.06376982 -0.00008830 0.00279559
v 0.06119764 0.00844784 0.00279559
v 0.06212678 0.00597540 0.00202903
v 0.07353510 0.00844784 0.05110966
v 0.07349484 0.00844784 0.05127541
v 0.07305969 0.00844784 0.05282234
v 0.07307982 0.00834507 0.05286378
v 0.07359394 0.00675749 0.05279472
v 0.07399658 0.00517744 0.05270494
v 0.07413130 0.00372773 0.05314692
v 0.07435894 0.00372773 0.05238727
v 0.07444411 0.00221202 0.05267732
v 0.07489320 -0.00008830 0.05128231
v 0.07445495 0.00079490 0.05293974
v 0.07445495 -0.00008830 0.05293974
v 0.07467795 -0.00008830 0.05209722
v 0.06075630 -0.00008830 0.03428675
v 0.06118215 0.00844784 0.00305802
v 0.07300859 0.00844784 0.05296737
v 0.07287696 0.00788801 0.05392039
v 0.07303491 0.00679175 0.05438309
v 0.07343754 0.00524261 0.05431403
v 0.07372403 0.00372773 0.05431403
v 0.07422112 0.00221202 0.05343697
v 0.07425209 0.00136559 0.05354056
v 0.07427686 0.00035539 0.05360962
v 0.07427686 -0.00008830 0.05360962
v 0.06075630 -0.00008830 0.07191731
v 0.06075630 0.00844784 0.04213192
v 0.06077333 0.00844784 0.02704240
v 0.06107685 0.00844784 0.00610354
v 0.06108150 0.00844784 0.00582731
v 0.06110472 0.00844784 0.00458423
v 0.06111092 0.00844784 0.00430799
v 0.07256415 0.00844784 0.05420353
v 0.07253627 0.00834507 0.05438309
v 0.07202060 0.00827321 0.05582643
v 0.07268803 0.00731899 0.05492866
v 0.07250220 0.00679175 0.05581262
v 0.07282431 0.00630879 0.05529467
v 0.07263693 0.00552420 0.05630294
v 0.07291103 0.00510809 0.05581262
v 0.07274688 0.00451400 0.05659990
v 0.07390521 0.00221202 0.05431403
v 0.07316344 0.00372773 0.05582643
v 0.07334617 0.00221202 0.05582643
v 0.07344219 0.00069630 0.05582643
v 0.07403993 0.00079490 0.05419663
v 0.07318822 -0.00008830 0.05649631
v 0.06082134 -0.00008830 0.07187588
v 0.06075630 0.00069630 0.07192422
v 0.06075630 0.00844784 0.07020464
v 0.07195556 0.00844784 0.05581953
v 0.07141046 0.00844784 0.05715238
v 0.07144918 0.00816876 0.05729050
v 0.07188123 0.00675749 0.05734574
v 0.07235974 0.00510809 0.05720072
v 0.07249756 0.00372773 0.05752530
v 0.07281192 0.00372773 0.05676564
v 0.07290328 0.00221202 0.05699354
v 0.07295284 0.00069630 0.05711785
v 0.07295129 -0.00008830 0.05711785
v 0.06118680 -0.00008830 0.07163417
v 0.06075630 0.00225714 0.07180682
v 0.06158014 -0.00008830 0.07137174
v 0.06158169 0.00069630 0.07137174
v 0.06149806 0.00221202 0.07131649
v 0.06075630 0.00795569 0.07043253
v 0.06123171 0.00844784 0.06988005
v 0.07119831 0.00844784 0.05759436
v 0.07125715 0.00759473 0.05815374
v 0.07138259 0.00675749 0.05838854
v 0.07152506 0.00514652 0.05890649
v 0.07183942 0.00372773 0.05885815
v 0.07259512 0.00221202 0.05775319
v 0.07264622 0.00069630 0.05787750
v 0.07279334 -0.00008830 0.05751149
v 0.06075630 0.00321804 0.07169632
v 0.06263781 -0.00008830 0.07061209
v 0.06263936 0.00069630 0.07061899
v 0.06256813 0.00221202 0.07056375
v 0.06243495 0.00372773 0.07046015
v 0.06075630 0.00779443 0.07049469
v 0.06086315 0.00790138 0.07038419
v 0.06137108 0.00835342 0.06981790
v 0.06137263 0.00844784 0.06977647
v 0.07092886 0.00844784 0.05811921
v 0.07070586 0.00816876 0.05874075
v 0.06952895 0.00827321 0.06080563
v 0.06969000 0.00744767 0.06109568
v 0.07096757 0.00675749 0.05914820
v 0.07112862 0.00558770 0.05943825
v 0.07124786 0.00457667 0.05965924
v 0.07203454 0.00221202 0.05885815
v 0.07091182 0.00372773 0.06055701
v 0.07142440 0.00221202 0.05998382
v 0.07264467 -0.00008830 0.05787750
v 0.07213829 0.00069630 0.05885815
v 0.07238142 -0.00008830 0.05838854
v 0.06125339 0.00367509 0.07128196
v 0.06075630 0.00367509 0.07161345
v 0.06300327 -0.00008830 0.07032204
v 0.06339816 0.00069630 0.07000436
v 0.06332538 0.00221202 0.06993530
v 0.06227389 0.00492844 0.07033585
v 0.06319220 0.00372773 0.06981790
v 0.06075630 0.00679593 0.07083998
v 0.06116357 0.00675749 0.07058446
v 0.06192082 0.00675749 0.07006652
v 0.06146864 0.00844784 0.06970050
v 0.06957541 0.00844784 0.06059154
v 0.06949024 0.00844784 0.06073657
v 0.06872524 0.00844784 0.06195202
v 0.06874847 0.00833253 0.06198655
v 0.06835049 0.00786712 0.06284979
v 0.06937874 0.00686862 0.06187605
v 0.06984176 0.00643747 0.06135810
v 0.07018864 0.00686862 0.06050177
v 0.07078949 0.00514652 0.06024624
v 0.06999662 0.00524261 0.06162053
v 0.07009263 0.00372523 0.06199345
v 0.06975659 0.00321887 0.06271167
v 0.07101093 0.00221202 0.06073657
v 0.07106358 0.00069630 0.06083325
v 0.07213674 -0.00008830 0.05885815
v 0.07106358 -0.00008830 0.06083325
v 0.06075630 0.00399595 0.07155130
v 0.06339661 -0.00008830 0.06999746
v 0.06379459 -0.00008830 0.06963835
v 0.06422354 0.00069630 0.06924471
v 0.06415541 0.00221202 0.06918255
v 0.06151355 0.00535709 0.07074330
v 0.06075630 0.00442794 0.07146152
v 0.06282519 0.00535709 0.06973503
v 0.06211129 0.00593864 0.07020464
v 0.06402688 0.00372773 0.06905825
v 0.06382092 0.00524261 0.06887178
v 0.06075630 0.00528356 0.07126125
v 0.06294752 0.00666057 0.06921018
v 0.06245198 0.00827321 0.06899609
v 0.06240553 0.00844784 0.06895466
v 0.06861994 0.00844784 0.06210395
v 0.06855335 0.00675749 0.06311222
v 0.06781778 0.00844784 0.06320200
v 0.06691341 0.00827321 0.06446579
v 0.06655415 0.00714854 0.06552240
v 0.06953514 0.00524261 0.06238018
v 0.06966058 0.00422824 0.06256665
v 0.06921304 0.00372523 0.06329177
v 0.06836907 0.00372773 0.06438982
v 0.06778681 0.00372773 0.06514257
v 0.06789831 0.00221202 0.06528759
v 0.06848057 0.00221202 0.06453484
v 0.06923627 0.00221202 0.06354729
v 0.06981234 0.00221202 0.06278764
v 0.07035589 0.00221202 0.06188986
v 0.07046274 0.00069630 0.06188986
v 0.07046119 -0.00008830 0.06188986
v 0.06422200 -0.00008830 0.06924471
v 0.06498080 0.00069630 0.06854030
v 0.06572721 0.00221202 0.06771849
v 0.06560023 0.00372773 0.06760109
v 0.06368619 0.00609071 0.06874057
v 0.06457972 0.00524261 0.06816738
v 0.06348798 0.00710091 0.06856102
v 0.06320923 0.00827321 0.06830550
v 0.06331144 0.00844784 0.06812594
v 0.06713176 0.00668898 0.06497683
v 0.06672759 0.00613834 0.06573648
v 0.06812749 0.00574312 0.06407215
v 0.06870046 0.00523927 0.06350586
v 0.06687470 0.00844784 0.06441054
v 0.06640084 0.00844784 0.06501136
v 0.06631721 0.00827321 0.06521853
v 0.06555996 0.00827321 0.06608869
v 0.06504584 0.00720703 0.06708314
v 0.06589755 0.00667227 0.06640636
v 0.06826067 0.00473292 0.06424479
v 0.06685147 0.00524261 0.06588841
v 0.06702801 0.00372773 0.06610250
v 0.06795560 0.00069630 0.06536356
v 0.06713951 0.00221202 0.06623371
v 0.06853786 0.00069630 0.06461081
v 0.06929356 0.00069630 0.06362326
v 0.06986654 0.00069630 0.06286360
v 0.06986654 -0.00008830 0.06286360
v 0.06537104 -0.00008830 0.06817428
v 0.06579380 0.00069630 0.06778064
v 0.06655105 0.00069630 0.06706242
v 0.06648446 0.00221202 0.06699337
v 0.06539581 0.00524261 0.06740772
v 0.06635748 0.00372773 0.06685524
v 0.06524095 0.00619683 0.06726270
v 0.06478878 0.00827321 0.06684834
v 0.06487704 0.00844784 0.06668260
v 0.06615461 0.00524261 0.06664116
v 0.06768615 0.00523927 0.06481799
v 0.06626611 0.00844784 0.06517710
v 0.06551815 0.00844784 0.06604725
v 0.06795560 -0.00008830 0.06536356
v 0.06719835 0.00069630 0.06630277
v 0.06929356 -0.00008830 0.06362326
v 0.06579225 -0.00008830 0.06778064
v 0.06654950 -0.00008830 0.06705552
v 0.06686231 -0.00008830 0.06669641
v 0.06719835 -0.00008830 0.06630277
f 1 2 3
f 1 3 15
f 1 15 4
f 1 4 5
f 1 5 6
f 1 6 7
f 1 7 8
f 1 8 9
f 1 9 10
f 1 10 11
f 1 11 2
f 2 12 13
f 2 13 3
f 2 11 12
f 3 13 14
f 3 14 15
f 4 15 16
f 4 16 17
f 4 17 5
f 5 17 32
f 5 32 31
f 5 31 45
f 5 45 47
f 5 47 67
f 5 67 93
f 5 93 92
f 5 92 124
f 5 124 127
f 5 127 126
f 5 126 156
f 5 156 176
f 5 176 190
f 5 190 208
f 5 208 225
f 5 225 239
f 5 239 255
f 5 255 254
f 5 254 268
f 5 268 271
f 5 271 270
f 5 270 282
f 5 282 304
f 5 304 317
f 5 317 332
f 5 332 352
f 5 352 354
f 5 354 380
f 5 380 381
f 5 381 413
f 5 413 441
f 5 441 457
f 5 457 455
f 5 455 461
f 5 461 460
f 5 460 459
f 5 459 458
f 5 458 442
f 5 442 414
f 5 414 384
f 5 384 383
f 5 383 357
f 5 357 334
f 5 334 320
f 5 320 318
f 5 318 305
f 5 305 283
f 5 283 272
f 5 272 256
f 5 256 240
f 5 240 226
f 5 226 211
f 5 211 191
f 5 191 177
f 5 177 157
f 5 157 129
f 5 129 128
f 5 128 94
f 5 94 68
f 5 68 49
f 5 49 48
f 5 48 33
f 5 33 21
f 5 21 9
f 5 9 8
f 5 8 7
f 5 7 6
f 9 18 19
f 9 19 20
f 9 20 10
f 9 21 22
f 9 22 18
f 10 20 11
f 11 20 19
f 11 19 18
f 11 18 22
f 11 22 23
f 11 23 36
f 11 36 24
f 11 24 25
f 11 25 12
f 12 26 27
f 12 27 13
f 12 25 38
f 12 38 26
f 13 27 14
f 14 28 15
f 14 27 28
f 15 28 43
f 15 43 29
f 15 29 30
f 15 30 16
f 16 31 32
f 16 32 17
f 16 30 31
f 21 33 22
f 22 33 34
f 22 34 23
f 23 34 35
f 23 35 51
f 23 51 36
f 24 36 53
f 24 53 37
f 24 37 38
f 24 38 25
f 26 39 40
f 26 40 27
f 26 38 39
f 27 40 41
f 27 41 42
f 27 42 28
f 28 42 62
f 28 62 43
f 29 43 44
f 29 44 30
f 30 45 31
f 30 44 46
f 30 46 47
f 30 47 45
f 33 48 34
f 34 48 49
f 34 49 50
f 34 50 35
f 35 50 52
f 35 52 51
f 36 51 53
f 37 53 54
f 37 54 55
f 37 55 38
f 38 55 39
f 39 56 40
f 39 55 57
f 39 57 56
f 40 56 58
f 40 58 59
f 40 59 60
f 40 60 41
f 41 60 61
f 41 61 42
f 42 61 62
f 43 62 87
f 43 87 63
f 43 63 44
f 44 63 64
f 44 64 65
f 44 65 66
f 44 66 46
f 46 67 47
f 46 66 93
f 46 93 67
f 49 68 69
f 49 69 70
f 49 70 50
f 50 70 52
f 51 71 53
f 51 52 72
f 51 72 71
f 52 70 73
f 52 73 74
f 52 74 72
f 53 71 75
f 53 75 54
f 54 75 76
f 54 76 77
f 54 77 55
f 55 77 57
f 56 78 58
f 56 57 79
f 56 79 78
f 57 77 80
f 57 80 79
f 58 81 59
f 58 78 81
f 59 81 82
f 59 82 60
f 60 82 83
f 60 83 61
f 61 83 84
f 61 84 85
f 61 85 86
f 61 86 87
f 61 87 62
f 63 87 64
f 64 87 88
f 64 88 121
f 64 121 89
f 64 89 90
f 64 90 65
f 65 90 91
f 65 91 66
f 66 91 92
f 66 92 93
f 68 94 69
f 69 94 95
f 69 95 96
f 69 96 73
f 69 73 70
f 71 72 97
f 71 97 98
f 71 98 75
f 72 74 97
f 73 96 99
f 73 99 100
f 73 100 74
f 74 101 97
f 74 100 101
f 75 102 76
f 75 98 102
f 76 102 103
f 76 103 77
f 77 103 80
f 78 104 105
f 78 105 106
f 78 106 111
f 78 111 81
f 78 79 104
f 79 80 110
f 79 110 107
f 79 107 108
f 79 108 109
f 79 109 104
f 80 103 110
f 81 111 82
f 82 112 113
f 82 113 114
f 82 114 115
f 82 115 83
f 82 111 112
f 83 115 116
f 83 116 84
f 84 116 117
f 84 117 85
f 85 117 118
f 85 118 119
f 85 119 120
f 85 120 86
f 86 120 88
f 86 88 87
f 88 120 121
f 89 121 122
f 89 122 123
f 89 123 90
f 90 123 91
f 91 124 92
f 91 123 125
f 91 125 126
f 91 126 127
f 91 127 124
f 94 128 95
f 95 128 129
f 95 129 130
f 95 130 131
f 95 131 96
f 96 131 132
f 96 132 99
f 97 101 98
f 98 101 133
f 98 133 134
f 98 134 135
f 98 135 102
f 99 132 136
f 99 136 100
f 100 136 137
f 100 137 138
f 100 138 133
f 100 133 101
f 102 139 103
f 102 135 134
f 102 134 139
f 103 140 110
f 103 139 141
f 103 141 140
f 104 109 108
f 104 108 107
f 104 107 110
f 104 110 140
f 104 140 141
f 104 141 166
f 104 166 164
f 104 164 163
f 104 163 162
f 104 162 161
f 104 161 138
f 104 138 137
f 104 137 165
f 104 165 181
f 104 181 180
f 104 180 179
f 104 179 194
f 104 194 193
f 104 193 213
f 104 213 227
f 104 227 244
f 104 244 257
f 104 257 273
f 104 273 289
f 104 289 288
f 104 288 287
f 104 287 286
f 104 286 285
f 104 285 284
f 104 284 307
f 104 307 324
f 104 324 341
f 104 341 365
f 104 365 396
f 104 396 422
f 104 422 450
f 104 450 454
f 104 454 453
f 104 453 428
f 104 428 427
f 104 427 399
f 104 399 397
f 104 397 368
f 104 368 367
f 104 367 366
f 104 366 342
f 104 342 325
f 104 325 309
f 104 309 308
f 104 308 290
f 104 290 274
f 104 274 261
f 104 261 260
f 104 260 259
f 104 259 245
f 104 245 230
f 104 230 229
f 104 229 228
f 104 228 214
f 104 214 197
f 104 197 196
f 104 196 195
f 104 195 182
f 104 182 167
f 104 167 145
f 104 145 147
f 104 147 144
f 104 144 143
f 104 143 142
f 104 142 114
f 104 114 113
f 104 113 112
f 104 112 111
f 104 111 106
f 104 106 105
f 114 142 116
f 114 116 115
f 116 142 117
f 117 142 143
f 117 143 144
f 117 144 118
f 118 145 146
f 118 146 119
f 118 144 147
f 118 147 145
f 119 146 148
f 119 148 149
f 119 149 150
f 119 150 120
f 120 150 121
f 121 150 151
f 121 151 122
f 122 151 152
f 122 152 153
f 122 153 154
f 122 154 123
f 123 154 155
f 123 155 125
f 125 155 156
f 125 156 126
f 129 157 130
f 130 157 158
f 130 158 159
f 130 159 131
f 131 159 132
f 132 159 136
f 133 138 160
f 133 160 134
f 134 160 161
f 134 161 162
f 134 162 163
f 134 163 164
f 134 164 139
f 136 159 165
f 136 165 137
f 138 161 160
f 139 164 166
f 139 166 141
f 145 167 146
f 146 167 182
f 146 182 168
f 146 168 148
f 148 169 170
f 148 170 150
f 148 150 149
f 148 168 171
f 148 171 169
f 150 170 151
f 151 170 169
f 151 169 152
f 152 169 184
f 152 184 172
f 152 172 153
f 153 172 173
f 153 173 174
f 153 174 154
f 154 174 175
f 154 175 155
f 155 175 156
f 156 175 176
f 157 177 158
f 158 177 178
f 158 178 179
f 158 179 159
f 159 180 181
f 159 181 165
f 159 179 180
f 168 182 183
f 168 183 171
f 169 171 184
f 171 183 185
f 171 185 184
f 172 184 186
f 172 186 173
f 173 186 187
f 173 187 188
f 173 188 174
f 174 188 189
f 174 189 175
f 175 189 190
f 175 190 176
f 177 191 178
f 178 191 192
f 178 192 193
f 178 193 194
f 178 194 179
f 182 195 183
f 183 195 196
f 183 196 197
f 183 197 198
f 183 198 185
f 184 185 186
f 185 198 199
f 185 199 200
f 185 200 186
f 186 200 201
f 186 201 202
f 186 202 187
f 187 202 203
f 187 203 204
f 187 204 188
f 188 204 205
f 188 205 206
f 188 206 189
f 189 206 207
f 189 207 208
f 189 208 190
f 191 209 210
f 191 210 192
f 191 211 209
f 192 210 193
f 193 210 212
f 193 212 213
f 197 214 198
f 198 214 215
f 198 215 199
f 199 201 200
f 199 215 216
f 199 216 217
f 199 217 218
f 199 218 219
f 199 219 201
f 201 219 220
f 201 220 221
f 201 221 202
f 202 221 203
f 203 221 204
f 204 221 205
f 205 221 222
f 205 222 206
f 206 222 207
f 207 222 223
f 207 223 224
f 207 224 208
f 208 224 225
f 209 213 212
f 209 212 210
f 209 211 226
f 209 226 227
f 209 227 213
f 214 228 215
f 215 228 216
f 216 229 217
f 216 228 229
f 217 230 231
f 217 231 218
f 217 229 230
f 218 231 232
f 218 232 233
f 218 233 234
f 218 234 219
f 219 234 235
f 219 235 236
f 219 236 220
f 220 223 222
f 220 222 221
f 220 236 237
f 220 237 223
f 223 237 238
f 223 238 224
f 224 238 239
f 224 239 225
f 226 240 241
f 226 241 242
f 226 242 227
f 227 242 241
f 227 241 243
f 227 243 244
f 230 245 231
f 231 245 246
f 231 246 232
f 232 246 247
f 232 247 234
f 232 234 233
f 234 247 248
f 234 248 235
f 235 248 249
f 235 249 250
f 235 250 236
f 236 251 252
f 236 252 237
f 236 250 251
f 237 252 253
f 237 253 238
f 238 253 254
f 238 254 255
f 238 255 239
f 240 256 241
f 241 256 257
f 241 257 258
f 241 258 243
f 243 258 257
f 243 257 244
f 245 259 246
f 246 259 260
f 246 260 261
f 246 261 262
f 246 262 263
f 246 263 247
f 247 263 248
f 248 263 264
f 248 264 250
f 248 250 249
f 250 264 265
f 250 265 266
f 250 266 251
f 251 266 252
f 252 266 267
f 252 267 253
f 253 268 254
f 253 267 269
f 253 269 270
f 253 270 271
f 253 271 268
f 256 272 257
f 257 272 273
f 261 274 275
f 261 275 262
f 262 275 263
f 263 275 276
f 263 276 277
f 263 277 264
f 264 277 265
f 265 277 278
f 265 278 279
f 265 279 266
f 266 279 267
f 267 279 280
f 267 280 269
f 269 280 281
f 269 281 282
f 269 282 270
f 272 283 306
f 272 306 319
f 272 319 333
f 272 333 356
f 272 356 382
f 272 382 388
f 272 388 393
f 272 393 362
f 272 362 338
f 272 338 323
f 272 323 307
f 272 307 284
f 272 284 285
f 272 285 286
f 272 286 287
f 272 287 288
f 272 288 289
f 272 289 273
f 274 290 275
f 275 290 291
f 275 291 292
f 275 292 293
f 275 293 276
f 276 293 294
f 276 294 295
f 276 295 277
f 277 295 296
f 277 296 297
f 277 297 298
f 277 298 278
f 278 299 279
f 278 298 300
f 278 300 301
f 278 301 299
f 279 299 280
f 280 299 301
f 280 301 302
f 280 302 303
f 280 303 281
f 281 303 302
f 281 302 282
f 282 302 304
f 283 305 306
f 290 308 292
f 290 292 291
f 292 294 293
f 292 308 309
f 292 309 310
f 292 310 311
f 292 311 294
f 294 311 296
f 294 296 295
f 296 311 312
f 296 312 298
f 296 298 297
f 298 312 313
f 298 313 314
f 298 314 300
f 300 314 301
f 301 314 315
f 301 315 316
f 301 316 302
f 302 316 304
f 304 316 317
f 305 318 306
f 306 318 320
f 306 320 321
f 306 321 322
f 306 322 319
f 307 323 324
f 309 325 326
f 309 326 310
f 310 326 311
f 311 326 327
f 311 327 312
f 312 327 328
f 312 328 313
f 313 328 329
f 313 329 330
f 313 330 314
f 314 330 315
f 315 330 331
f 315 331 316
f 316 332 317
f 316 331 332
f 319 322 333
f 320 334 335
f 320 335 321
f 321 335 336
f 321 336 322
f 322 336 337
f 322 337 333
f 323 338 339
f 323 339 324
f 324 340 341
f 324 339 340
f 325 342 326
f 326 342 343
f 326 343 344
f 326 344 345
f 326 345 346
f 326 346 327
f 327 346 347
f 327 347 328
f 328 347 348
f 328 348 329
f 329 349 330
f 329 348 350
f 329 350 351
f 329 351 349
f 330 349 331
f 331 352 332
f 331 349 353
f 331 353 354
f 331 354 352
f 333 337 355
f 333 355 356
f 334 357 335
f 335 357 358
f 335 358 336
f 336 358 359
f 336 359 337
f 337 360 355
f 337 359 361
f 337 361 360
f 338 362 363
f 338 363 339
f 339 363 364
f 339 364 340
f 340 364 341
f 341 364 365
f 342 366 343
f 343 366 344
f 344 367 368
f 344 368 345
f 344 366 367
f 345 368 369
f 345 369 370
f 345 370 371
f 345 371 372
f 345 372 373
f 345 373 346
f 346 373 372
f 346 372 347
f 347 374 348
f 347 372 374
f 348 374 375
f 348 375 350
f 349 351 353
f 350 375 376
f 350 376 377
f 350 377 378
f 350 378 351
f 351 378 379
f 351 379 353
f 353 380 354
f 353 379 381
f 353 381 380
f 355 360 382
f 355 382 356
f 357 383 358
f 358 383 384
f 358 384 385
f 358 385 386
f 358 386 359
f 359 386 361
f 360 387 388
f 360 388 382
f 360 361 389
f 360 389 390
f 360 390 387
f 361 386 391
f 361 391 392
f 361 392 389
f 362 393 390
f 362 390 363
f 363 390 364
f 364 390 394
f 364 394 395
f 364 395 365
f 365 395 396
f 368 397 370
f 368 370 369
f 370 398 371
f 370 397 399
f 370 399 400
f 370 400 401
f 370 401 398
f 371 398 402
f 371 402 372
f 372 402 375
f 372 375 374
f 375 402 403
f 375 403 376
f 376 403 377
f 377 403 404
f 377 404 405
f 377 405 406
f 377 406 407
f 377 407 408
f 377 408 409
f 377 409 410
f 377 410 411
f 377 411 378
f 378 411 379
f 379 411 412
f 379 412 381
f 381 412 413
f 384 414 385
f 385 414 415
f 385 415 386
f 386 415 416
f 386 416 417
f 386 417 391
f 387 393 388
f 387 390 393
f 389 392 418
f 389 418 390
f 390 418 394
f 391 417 392
f 392 417 419
f 392 419 418
f 394 418 420
f 394 420 395
f 395 420 421
f 395 421 396
f 396 421 422
f 398 401 423
f 398 423 424
f 398 424 425
f 398 425 426
f 398 426 402
f 399 427 400
f 400 427 428
f 400 428 429
f 400 429 401
f 401 429 430
f 401 430 431
f 401 431 432
f 401 432 424
f 401 424 423
f 402 426 403
f 403 426 433
f 403 433 405
f 403 405 404
f 405 433 406
f 406 433 434
f 406 434 435
f 406 435 407
f 407 436 438
f 407 438 408
f 407 435 437
f 407 437 436
f 408 438 439
f 408 439 409
f 409 439 410
f 410 440 412
f 410 412 411
f 410 439 440
f 412 440 441
f 412 441 413
f 414 442 415
f 415 442 443
f 415 443 416
f 416 443 444
f 416 444 445
f 416 445 417
f 417 446 419
f 417 445 447
f 417 447 446
f 418 419 448
f 418 448 431
f 418 431 420
f 419 446 448
f 420 431 421
f 421 431 449
f 421 449 450
f 421 450 422
f 424 432 448
f 424 448 451
f 424 451 434
f 424 434 452
f 424 452 425
f 425 452 426
f 426 452 433
f 428 453 429
f 429 453 454
f 429 454 430
f 430 454 450
f 430 450 431
f 431 448 432
f 431 450 449
f 433 452 434
f 434 451 447
f 434 447 435
f 435 447 445
f 435 445 437
f 436 455 438
f 436 437 456
f 436 456 461
f 436 461 455
f 437 445 444
f 437 444 456
f 438 455 457
f 438 457 439
f 439 457 441
f 439 441 440
f 442 458 443
f 443 458 444
f 444 458 459
f 444 459 460
f 444 460 461
f 444 461 456
f 446 447 451
f 446 451 448

