# https://github.com/mikedh/trimesh
v -0.05935029 -0.00008830 0.03623427
v -0.05935029 -0.00005050 0.03626838
v -0.05526640 -0.00008830 0.03914124
v -0.05935029 -0.00008830 0.07284622
v -0.05935029 0.01063606 0.04898402
v -0.05526640 0.01063606 0.05275134
v -0.05526640 -0.00008830 0.07494971
v -0.05890572 -0.00008830 0.07313427
v -0.05890732 0.00069693 0.07313806
v -0.05935029 0.00069693 0.07284622
v -0.05935029 0.01063606 0.07012117
v -0.05526640 0.01063606 0.07247480
v -0.05526640 0.00069693 0.07495349
v -0.05636463 -0.00008830 0.07444942
v -0.05854031 -0.00008830 0.07334651
v -0.05881736 0.00221278 0.07308121
v -0.05935029 0.00221278 0.07273252
v -0.05814771 -0.00008830 0.07357391
v -0.05814971 0.00069693 0.07357391
v -0.05805975 0.00221278 0.07352464
v -0.05935029 0.01061717 0.07013254
v -0.05918357 0.01063606 0.07023487
v -0.05643739 0.01063606 0.07193282
v -0.05526640 0.00976581 0.07288412
v -0.05526640 0.00221278 0.07485117
v -0.05586529 0.00069693 0.07468061
v -0.05682999 0.00069693 0.07424097
v -0.05682999 -0.00008830 0.07423718
v -0.05789544 0.00372759 0.07343368
v -0.05865305 0.00372759 0.07297508
v -0.05935029 0.00369924 0.07252786
v -0.05935029 0.00285208 0.07264535
v -0.05751124 -0.00008830 0.07389607
v -0.05682999 0.00221278 0.07413863
v -0.05935029 0.01046495 0.07021213
v -0.05915999 0.01061192 0.07026519
v -0.05914959 0.01063606 0.07025762
v -0.05669886 0.01063606 0.07178880
v -0.05683999 0.00976686 0.07211095
v -0.05576174 0.00866671 0.07311911
v -0.05526640 0.00894490 0.07322902
v -0.05526640 0.00297911 0.07475641
v -0.05554825 0.00372759 0.07453659
v -0.05682999 0.00372759 0.07395292
v -0.05771953 0.00482564 0.07333514
v -0.05827284 0.00529488 0.07287655
v -0.05935029 0.00525184 0.07219054
v -0.05935029 0.00978681 0.07053808
v -0.05774512 0.00924828 0.07184565
v -0.05735132 0.01025815 0.07159930
v -0.05717141 0.01063606 0.07150833
v -0.05674803 0.00820587 0.07281590
v -0.05618832 0.00765579 0.07330861
v -0.05526640 0.00821951 0.07350948
v -0.05526640 0.00372759 0.07466166
v -0.05526640 0.00399737 0.07461618
v -0.05693154 0.00529488 0.07360044
v -0.05750404 0.00583551 0.07321765
v -0.05935029 0.00642337 0.07187597
v -0.05935029 0.00631210 0.07190629
v -0.05935029 0.00830979 0.07120513
v -0.05806855 0.00827305 0.07205410
v -0.05723338 0.00675720 0.07308500
v -0.05647577 0.00675720 0.07344126
v -0.05526640 0.00680548 0.07396808
v -0.05526640 0.00517416 0.07438120
v -0.05526640 0.00608010 0.07415379
v -0.05531437 0.00675720 0.07396050
v -0.05848393 0.00688317 0.07229287
v -0.05935029 0.00648636 0.07185702
v -0.05935029 0.00726213 0.07161824
v -0.05908163 0.00747103 0.07172816
v -0.05882616 0.00827305 0.07156139
v -0.05526640 0.00676244 0.07397945
f 1 2 3
f 1 3 7
f 1 7 14
f 1 14 28
f 1 28 33
f 1 33 18
f 1 18 15
f 1 15 8
f 1 8 4
f 1 4 10
f 1 10 17
f 1 17 32
f 1 32 31
f 1 31 47
f 1 47 60
f 1 60 59
f 1 59 70
f 1 70 71
f 1 71 61
f 1 61 48
f 1 48 35
f 1 35 21
f 1 21 11
f 1 11 5
f 1 5 2
f 2 5 3
f 3 5 6
f 3 6 12
f 3 12 24
f 3 24 41
f 3 41 54
f 3 54 65
f 3 65 74
f 3 74 67
f 3 67 66
f 3 66 56
f 3 56 55
f 3 55 42
f 3 42 25
f 3 25 13
f 3 13 7
f 4 8 9
f 4 9 10
f 5 11 22
f 5 22 37
f 5 37 51
f 5 51 38
f 5 38 23
f 5 23 12
f 5 12 6
f 7 13 14
f 8 15 9
f 9 16 17
f 9 17 10
f 9 15 18
f 9 18 19
f 9 19 20
f 9 20 16
f 11 21 22
f 12 23 24
f 13 25 26
f 13 26 14
f 14 27 28
f 14 26 27
f 16 20 29
f 16 29 30
f 16 30 31
f 16 31 32
f 16 32 17
f 18 33 19
f 19 33 27
f 19 27 20
f 20 27 34
f 20 34 29
f 21 35 36
f 21 36 22
f 22 36 37
f 23 38 39
f 23 39 40
f 23 40 24
f 24 40 41
f 25 42 43
f 25 43 44
f 25 44 34
f 25 34 26
f 26 34 27
f 27 33 28
f 29 45 30
f 29 34 44
f 29 44 45
f 30 45 46
f 30 46 47
f 30 47 31
f 35 48 49
f 35 49 36
f 36 49 50
f 36 50 51
f 36 51 37
f 38 51 50
f 38 50 49
f 38 49 39
f 39 52 40
f 39 49 52
f 40 53 54
f 40 54 41
f 40 52 53
f 42 55 43
f 43 55 56
f 43 56 44
f 44 56 45
f 45 56 57
f 45 57 58
f 45 58 46
f 46 59 60
f 46 60 47
f 46 58 59
f 48 61 49
f 49 61 62
f 49 62 52
f 52 62 63
f 52 63 53
f 53 63 64
f 53 64 65
f 53 65 54
f 56 66 57
f 57 66 58
f 58 66 67
f 58 67 68
f 58 68 64
f 58 64 63
f 58 63 69
f 58 69 59
f 59 69 70
f 61 71 72
f 61 72 73
f 61 73 62
f 62 69 63
f 62 73 72
f 62 72 69
f 64 68 65
f 65 68 74
f 67 74 68
f 69 72 70
f 70 72 71

