# https://github.com/mikedh/trimesh
v 0.05428399 -0.02703689 0.02855664
v 0.05428399 -0.02703161 0.01994615
v 0.05531441 -0.02682322 0.02552422
v 0.05531441 -0.02682322 0.03007284
v 0.05428399 -0.02703425 0.03158905
v 0.05428399 -0.02702897 0.01823413
v 0.05448072 -0.02698941 0.01823413
v 0.05531441 -0.02681794 0.01823413
v 0.05682998 -0.02643809 0.02704043
v 0.05682998 -0.02643809 0.03007284
v 0.05531441 -0.02681794 0.03310525
v 0.05428399 -0.02703161 0.03310525
v 0.05428399 -0.01271847 0.01823413
v 0.05560348 -0.02674408 0.01823413
v 0.05682998 -0.02643545 0.02400802
v 0.05708616 -0.02635368 0.01823413
v 0.05817477 -0.02602394 0.02249181
v 0.05817856 -0.02602658 0.02855664
v 0.05817603 -0.02602658 0.03007284
v 0.05816022 -0.02602922 0.03310525
v 0.05682998 -0.02643281 0.03310525
v 0.05531441 -0.02681003 0.03461586
v 0.05428399 -0.02702370 0.03461586
v 0.06074542 -0.01151823 0.01823413
v 0.05428399 -0.00015952 0.03892950
v 0.06074542 -0.00008830 0.03430255
v 0.05682998 -0.02643017 0.01823413
v 0.05682998 -0.02643281 0.02098120
v 0.05817097 -0.02602130 0.01823413
v 0.05892939 -0.02576279 0.01946500
v 0.05893825 -0.02576543 0.02704043
v 0.05891801 -0.02575488 0.03310525
v 0.05814314 -0.02602658 0.03461586
v 0.05893382 -0.02576279 0.03007284
v 0.05892749 -0.02576015 0.03158905
v 0.05682998 -0.02642490 0.03461586
v 0.05531441 -0.02679156 0.03613207
v 0.05428399 -0.02701842 0.03510262
v 0.06074542 -0.02499781 0.01823413
v 0.05428399 -0.00008830 0.03904699
v 0.06074542 -0.00008830 0.07192795
v 0.05878391 -0.02581027 0.01823413
v 0.05892876 -0.02576015 0.01823413
v 0.05910587 -0.02569157 0.01823413
v 0.05986049 -0.02539349 0.01946500
v 0.05986049 -0.02539876 0.02704043
v 0.05986049 -0.02539876 0.03007284
v 0.05986049 -0.02539085 0.03310525
v 0.05986049 -0.02538030 0.03461586
v 0.05890093 -0.02574696 0.03461586
v 0.05886740 -0.02573641 0.03613207
v 0.05810962 -0.02601339 0.03613207
v 0.05682998 -0.02640380 0.03613207
v 0.05986049 -0.02539612 0.03158905
v 0.05531441 -0.02675991 0.03764827
v 0.05428399 -0.02697622 0.03764827
v 0.05428399 -0.02700523 0.03613207
v 0.06014957 -0.02526423 0.01823413
v 0.06074542 -0.02500044 0.02034898
v 0.05428399 -0.00008830 0.07539117
v 0.05986049 -0.00008830 0.07250982
v 0.06074542 -0.00014633 0.07192795
v 0.05986049 -0.02539085 0.01823413
v 0.06074542 -0.02500572 0.02640821
v 0.06074542 -0.02500572 0.03007284
v 0.06074542 -0.02499781 0.03310525
v 0.06074542 -0.02498725 0.03461586
v 0.05986049 -0.02535656 0.03613207
v 0.05986049 -0.02532754 0.03764827
v 0.05881933 -0.02572058 0.03764827
v 0.05806154 -0.02599229 0.03764827
v 0.05682998 -0.02637214 0.03764827
v 0.06074542 -0.02500308 0.03158905
v 0.05531441 -0.02671770 0.03916448
v 0.05428399 -0.02693929 0.03916448
v 0.05428399 -0.00082163 0.07538557
v 0.05510377 -0.00082163 0.07502191
v 0.05510567 -0.00008830 0.07502191
v 0.05986049 -0.00082163 0.07250982
v 0.05890536 -0.00008830 0.07313644
v 0.06074542 -0.00082163 0.07192236
v 0.06074542 -0.02493186 0.03764827
v 0.05986049 -0.02526951 0.03916448
v 0.05874469 -0.02569948 0.03916448
v 0.05798690 -0.02596063 0.03916448
v 0.05682998 -0.02632202 0.03916448
v 0.05531441 -0.02666231 0.04068069
v 0.05428399 -0.02688389 0.04068069
v 0.05428399 -0.00233577 0.07527927
v 0.05498169 -0.00233577 0.07496596
v 0.05682998 -0.00233577 0.07412673
v 0.05682998 -0.00082163 0.07423303
v 0.05682998 -0.00008830 0.07423863
v 0.05986049 -0.00233577 0.07238673
v 0.06072771 -0.00233577 0.07181605
v 0.06074542 -0.00093769 0.07191676
v 0.05890409 -0.00082163 0.07313644
v 0.05814757 -0.00008830 0.07357284
v 0.06074542 -0.02487382 0.03916448
v 0.05986049 -0.02519564 0.04068069
v 0.05865107 -0.02567310 0.04068069
v 0.05789328 -0.02592370 0.04068069
v 0.05682998 -0.02626135 0.04068069
v 0.05531441 -0.02658053 0.04219689
v 0.05428399 -0.02680739 0.04219689
v 0.05428399 -0.00385255 0.07508345
v 0.05476916 -0.00385255 0.07487084
v 0.05682998 -0.00385255 0.07393091
v 0.05787747 -0.00385255 0.07342178
v 0.05804762 -0.00233577 0.07351689
v 0.05814630 -0.00082163 0.07357284
v 0.05880541 -0.00233577 0.07307490
v 0.06065307 -0.00321946 0.07176570
v 0.06074542 -0.00312186 0.07171535
v 0.06074542 -0.00230412 0.07180487
v 0.06074542 -0.00203769 0.07182724
v 0.06074542 -0.02479205 0.04068069
v 0.06074542 -0.02469709 0.04219689
v 0.05986049 -0.02509804 0.04219689
v 0.05851634 -0.02563090 0.04219689
v 0.05775856 -0.02587886 0.04219689
v 0.05682998 -0.02616902 0.04219689
v 0.05531441 -0.02648293 0.04371310
v 0.05428399 -0.02671506 0.04371310
v 0.05428399 -0.00493936 0.07488204
v 0.05460786 -0.00470723 0.07479252
v 0.05770795 -0.00490770 0.07332667
v 0.05863526 -0.00385255 0.07296300
v 0.06051202 -0.00422977 0.07167059
v 0.06074542 -0.00408469 0.07154191
v 0.06074542 -0.00330651 0.07168737
v 0.05994842 -0.00377605 0.07212937
v 0.06074542 -0.02458894 0.04341098
v 0.05986049 -0.02495560 0.04371310
v 0.05822664 -0.02560188 0.04372988
v 0.05753969 -0.02580763 0.04424461
v 0.05695269 -0.02601866 0.04372988
v 0.05662946 -0.02598437 0.04522371
v 0.05531441 -0.02635104 0.04522371
v 0.05428399 -0.02659372 0.04522371
v 0.05428399 -0.00567005 0.07470859
v 0.05433776 -0.00571753 0.07467503
v 0.05519359 -0.00527437 0.07439528
v 0.05691664 -0.00539571 0.07358403
v 0.05747960 -0.00591801 0.07320358
v 0.05826585 -0.00539571 0.07285670
v 0.06030770 -0.00536670 0.07153631
v 0.06074542 -0.00539835 0.07123978
v 0.05954992 -0.00536670 0.07203425
v 0.06074542 -0.02455992 0.04371310
v 0.06074542 -0.02441747 0.04515097
v 0.06074542 -0.02436999 0.04562654
v 0.06068090 -0.02434097 0.04619721
v 0.05986049 -0.02479733 0.04522371
v 0.05834492 -0.02541195 0.04522371
v 0.05738662 -0.02576279 0.04522371
v 0.05635178 -0.02590524 0.04673991
v 0.05531441 -0.02618749 0.04673991
v 0.05428399 -0.02644073 0.04673991
v 0.05428399 -0.00576238 0.07468621
v 0.05428399 -0.00584943 0.07466383
v 0.05643275 -0.00688348 0.07341618
v 0.05719053 -0.00688348 0.07306371
v 0.05847143 -0.00698372 0.07226924
v 0.05930006 -0.00654583 0.07187200
v 0.06074542 -0.00691249 0.07080898
v 0.06074542 -0.02431459 0.04612448
v 0.06074542 -0.02429613 0.04625316
v 0.06074542 -0.02416160 0.04704763
v 0.06051138 -0.02425920 0.04719869
v 0.05994778 -0.02457311 0.04671753
v 0.05834492 -0.02521939 0.04673991
v 0.05710956 -0.02566783 0.04673991
v 0.05616012 -0.02585248 0.04769663
v 0.05536881 -0.02598701 0.04822255
v 0.05428399 -0.02625607 0.04824493
v 0.05428399 -0.02638533 0.04719310
v 0.05428399 -0.00696261 0.07436171
v 0.05531441 -0.00688348 0.07391972
v 0.05615632 -0.00773815 0.07329310
v 0.05672877 -0.00830530 0.07278956
v 0.05803244 -0.00839762 0.07202866
v 0.05906159 -0.00755614 0.07171535
v 0.05982760 -0.00698372 0.07139085
v 0.06074542 -0.00803623 0.07041174
v 0.06074542 -0.02408246 0.04748403
v 0.06030833 -0.02415896 0.04825053
v 0.05930132 -0.02439901 0.04947580
v 0.05955055 -0.02450188 0.04825053
v 0.05834492 -0.02498989 0.04825053
v 0.05673130 -0.02558078 0.04822255
v 0.05590963 -0.02577862 0.04870930
v 0.05486088 -0.02590524 0.04976673
v 0.05428399 -0.02616111 0.04894429
v 0.05428399 -0.00836597 0.07389175
v 0.05572429 -0.00874846 0.07310287
v 0.05681670 -0.00986692 0.07207901
v 0.05771681 -0.00933143 0.07182724
v 0.05879023 -0.00839762 0.07153631
v 0.05994842 -0.00845302 0.07075863
v 0.06074542 -0.00828155 0.07031104
v 0.06074542 -0.02393210 0.04825053
v 0.06074542 -0.02381076 0.04883798
v 0.06074542 -0.02359445 0.04987863
v 0.05982823 -0.02406136 0.04989541
v 0.05908373 -0.02429877 0.05048847
v 0.05848471 -0.02464433 0.04989541
v 0.05682998 -0.02527742 0.04976673
v 0.05561866 -0.02568365 0.04976673
v 0.05461988 -0.02584193 0.05062274
v 0.05428399 -0.02597382 0.05027027
v 0.05428399 -0.02604504 0.04976673
v 0.05428399 -0.00955565 0.07341059
v 0.05471412 -0.00931560 0.07332667
v 0.05525748 -0.00985901 0.07283991
v 0.05630307 -0.01092471 0.07186641
v 0.05731324 -0.01034174 0.07157548
v 0.05912358 -0.01069521 0.07023830
v 0.05941771 -0.00991440 0.07043413
v 0.06017550 -0.00991440 0.06994178
v 0.06051202 -0.00899642 0.07015438
v 0.06074542 -0.00884606 0.07005367
v 0.06074542 -0.02336760 0.05086892
v 0.06074542 -0.02326999 0.05128294
v 0.05986049 -0.02371580 0.05128294
v 0.05885665 -0.02419325 0.05128294
v 0.05778322 -0.02439373 0.05237393
v 0.05809886 -0.02450980 0.05128294
v 0.05682998 -0.02497934 0.05128294
v 0.05520118 -0.02553857 0.05118782
v 0.05428399 -0.02588150 0.05084094
v 0.05428399 -0.02571003 0.05168577
v 0.05428399 -0.01017028 0.07313644
v 0.05428399 -0.01029162 0.07308049
v 0.05577933 -0.01193502 0.07160345
v 0.05681670 -0.01142855 0.07129014
v 0.05529037 -0.01142855 0.07208461
v 0.05824498 -0.01129138 0.07047329
v 0.05979851 -0.01135732 0.06942705
v 0.06074542 -0.01105133 0.06896268
v 0.06074542 -0.00986956 0.06955014
v 0.06074542 -0.02299302 0.05233477
v 0.06074542 -0.02294817 0.05250261
v 0.05997878 -0.02321723 0.05289425
v 0.05831076 -0.02402707 0.05284950
v 0.05746885 -0.02426184 0.05338660
v 0.05691031 -0.02460212 0.05284950
v 0.05531441 -0.02514553 0.05279914
v 0.05428399 -0.02545416 0.05278795
v 0.05428399 -0.01138370 0.07254898
v 0.05529037 -0.01288466 0.07123978
v 0.05611711 -0.01373933 0.07025509
v 0.05670537 -0.01284245 0.07049567
v 0.05767316 -0.01227003 0.07028306
v 0.05476852 -0.01233862 0.07183284
v 0.05868333 -0.01170552 0.06995296
v 0.06047279 -0.01202207 0.06860460
v 0.06074542 -0.01131776 0.06881161
v 0.06074542 -0.02269757 0.05333065
v 0.06056325 -0.02276352 0.05345933
v 0.05955371 -0.02302467 0.05431535
v 0.05834492 -0.02358654 0.05431535
v 0.05691031 -0.02414841 0.05445522
v 0.05605702 -0.02430141 0.05505387
v 0.05645868 -0.02444913 0.05404120
v 0.05545673 -0.02467335 0.05445522
v 0.05428399 -0.02506903 0.05435451
v 0.05428399 -0.01257602 0.07189998
v 0.05428399 -0.01302974 0.07162023
v 0.05428399 -0.01326451 0.07146917
v 0.05531441 -0.01403477 0.07046210
v 0.05439216 -0.01511894 0.07015438
v 0.05531441 -0.01479184 0.06989142
v 0.05628663 -0.01537218 0.06884519
v 0.05729680 -0.01498441 0.06852628
v 0.05910271 -0.01521391 0.06719470
v 0.05838920 -0.01447002 0.06822975
v 0.05791353 -0.01397410 0.06891792
v 0.05892370 -0.01353885 0.06859342
v 0.05712791 -0.01328034 0.06993059
v 0.05829875 -0.01290576 0.06943824
v 0.05946262 -0.01252854 0.06894030
v 0.06074542 -0.01189281 0.06844795
v 0.05992502 -0.01299809 0.06827451
v 0.06062144 -0.01370240 0.06720030
v 0.06074542 -0.01342015 0.06731219
v 0.06074542 -0.02233882 0.05436570
v 0.06031150 -0.02261580 0.05431535
v 0.05925388 -0.02287431 0.05527207
v 0.05834745 -0.02309062 0.05579798
v 0.05682998 -0.02372899 0.05583155
v 0.05572240 -0.02417479 0.05583155
v 0.05461102 -0.02432778 0.05663721
v 0.05496461 -0.02445176 0.05583155
v 0.05428399 -0.02466543 0.05583155
v 0.05428399 -0.01500551 0.07027747
v 0.05428399 -0.01514796 0.07017676
v 0.05428399 -0.01528249 0.07007046
v 0.05457876 -0.01674388 0.06872210
v 0.05517652 -0.01591558 0.06905779
v 0.05739358 -0.01659616 0.06707162
v 0.05834492 -0.01549352 0.06743528
v 0.05834492 -0.01625059 0.06672473
v 0.05910777 -0.01673332 0.06568409
v 0.05961064 -0.01574940 0.06621560
v 0.06068280 -0.01527194 0.06574004
v 0.06011288 -0.01471271 0.06674712
v 0.06074542 -0.01524028 0.06571207
v 0.06074542 -0.01382638 0.06697651
v 0.06074542 -0.01361535 0.06715554
v 0.06074542 -0.02206184 0.05512660
v 0.06074542 -0.02180069 0.05582036
v 0.06074542 -0.02142875 0.05677149
v 0.06074542 -0.02139710 0.05684982
v 0.05885475 -0.02266328 0.05628474
v 0.05742520 -0.02271604 0.05791843
v 0.05784458 -0.02291652 0.05690577
v 0.05688438 -0.02315657 0.05738692
v 0.05428399 -0.02437790 0.05678268
v 0.05428399 -0.02452562 0.05631271
v 0.05519549 -0.02388462 0.05722467
v 0.05428399 -0.02355752 0.05887515
v 0.05428399 -0.02385560 0.05811985
v 0.05428399 -0.02407191 0.05757155
v 0.05428399 -0.01681774 0.06879483
v 0.05428399 -0.01722661 0.06837522
v 0.05428399 -0.01830023 0.06725065
v 0.05453322 -0.01823164 0.06717792
v 0.05531441 -0.01799951 0.06693174
v 0.05686667 -0.01751414 0.06646178
v 0.05638277 -0.01692061 0.06739052
v 0.05735056 -0.01810502 0.06551065
v 0.05834492 -0.01700766 0.06596943
v 0.05842526 -0.01780958 0.06497354
v 0.05898379 -0.01816042 0.06405599
v 0.05971185 -0.01701294 0.06480570
v 0.06067964 -0.01678081 0.06421824
v 0.06074542 -0.01665155 0.06429097
v 0.06011857 -0.01628225 0.06523091
v 0.06074542 -0.01599999 0.06495117
v 0.06074542 -0.01533789 0.06561695
v 0.06074542 -0.02100669 0.05764429
v 0.06039879 -0.02114386 0.05782892
v 0.05898063 -0.02120981 0.05947940
v 0.05938799 -0.02143667 0.05846673
v 0.05988010 -0.02166089 0.05733097
v 0.05834745 -0.02246016 0.05738692
v 0.05688438 -0.02250501 0.05890872
v 0.05641503 -0.02294290 0.05843316
v 0.05797046 -0.02146832 0.05998294
v 0.05534983 -0.02315657 0.05890872
v 0.05428399 -0.02301939 0.06016197
v 0.05428399 -0.01898344 0.06643940
v 0.05531441 -0.01866689 0.06617084
v 0.05634039 -0.01839783 0.06584634
v 0.05675471 -0.01895970 0.06487284
v 0.05797362 -0.01850862 0.06450358
v 0.05954865 -0.01854819 0.06304892
v 0.06055882 -0.01820262 0.06259014
v 0.05997625 -0.01789399 0.06349650
v 0.06074542 -0.01681510 0.06411753
v 0.06074542 -0.01674915 0.06419027
v 0.06074542 -0.02039734 0.05881361
v 0.05988010 -0.02091173 0.05892551
v 0.06074542 -0.01986449 0.05980950
v 0.06033174 -0.01957696 0.06080538
v 0.05932157 -0.01989614 0.06134248
v 0.05842335 -0.02096712 0.06044171
v 0.05743153 -0.02119662 0.06099561
v 0.05587863 -0.02270549 0.05944583
v 0.05486846 -0.02291915 0.05989342
v 0.05688754 -0.02174002 0.06044171
v 0.05428399 -0.02267647 0.06090049
v 0.05428399 -0.01956641 0.06572326
v 0.05435674 -0.01966665 0.06555541
v 0.05531441 -0.01942396 0.06525329
v 0.05615948 -0.01980909 0.06422943
v 0.05716966 -0.01951893 0.06380982
v 0.05837086 -0.01903356 0.06342937
v 0.05876809 -0.01955850 0.06234956
v 0.05994020 -0.01906257 0.06196911
v 0.06074542 -0.01814195 0.06247265
v 0.06074542 -0.01790454 0.06278036
v 0.06074542 -0.01869327 0.06167818
v 0.06074542 -0.01936593 0.06064872
v 0.06074542 -0.01897025 0.06126975
v 0.05829559 -0.02015729 0.06186281
v 0.05775792 -0.01985921 0.06280274
v 0.05688754 -0.02091700 0.06192435
v 0.05583119 -0.02116233 0.06245027
v 0.05642136 -0.02143930 0.06143760
v 0.05534983 -0.02246544 0.06039136
v 0.05428399 -0.02267119 0.06091168
v 0.05428399 -0.01968248 0.06557779
v 0.05428399 -0.02031029 0.06472737
v 0.05531441 -0.02000957 0.06449798
v 0.05428399 -0.02086688 0.06396088
v 0.05428399 -0.02100933 0.06375946
v 0.05532137 -0.02080094 0.06336782
v 0.05673067 -0.02008343 0.06334544
v 0.05482102 -0.02139182 0.06283072
v 0.05532137 -0.02167671 0.06192435
v 0.05428399 -0.02189566 0.06231599
v 0.05428399 -0.02145249 0.06307689
f 1 2 3
f 1 3 4
f 1 4 5
f 1 5 12
f 1 12 23
f 1 23 38
f 1 38 57
f 1 57 56
f 1 56 75
f 1 75 88
f 1 88 105
f 1 105 124
f 1 124 140
f 1 140 159
f 1 159 177
f 1 177 176
f 1 176 194
f 1 194 212
f 1 212 211
f 1 211 231
f 1 231 232
f 1 232 249
f 1 249 267
f 1 267 295
f 1 295 320
f 1 320 319
f 1 319 324
f 1 324 323
f 1 323 322
f 1 322 352
f 1 352 373
f 1 373 393
f 1 393 403
f 1 403 404
f 1 404 398
f 1 398 397
f 1 397 395
f 1 395 394
f 1 394 374
f 1 374 353
f 1 353 327
f 1 327 326
f 1 326 325
f 1 325 298
f 1 298 297
f 1 297 296
f 1 296 270
f 1 270 269
f 1 269 268
f 1 268 250
f 1 250 234
f 1 234 233
f 1 233 213
f 1 213 195
f 1 195 178
f 1 178 161
f 1 161 160
f 1 160 141
f 1 141 125
f 1 125 106
f 1 106 89
f 1 89 76
f 1 76 60
f 1 60 40
f 1 40 25
f 1 25 13
f 1 13 6
f 1 6 2
f 2 6 7
f 2 7 8
f 2 8 3
f 3 8 9
f 3 9 10
f 3 10 4
f 4 10 21
f 4 21 11
f 4 11 12
f 4 12 5
f 6 13 24
f 6 24 39
f 6 39 58
f 6 58 63
f 6 63 44
f 6 44 43
f 6 43 42
f 6 42 29
f 6 29 16
f 6 16 27
f 6 27 14
f 6 14 8
f 6 8 7
f 8 14 9
f 9 14 15
f 9 15 16
f 9 16 17
f 9 17 18
f 9 18 10
f 10 19 20
f 10 20 21
f 10 18 19
f 11 21 36
f 11 36 22
f 11 22 23
f 11 23 12
f 13 25 26
f 13 26 24
f 14 27 28
f 14 28 15
f 15 28 16
f 16 29 17
f 16 28 27
f 17 29 30
f 17 30 31
f 17 31 18
f 18 31 19
f 19 31 20
f 20 32 33
f 20 33 21
f 20 31 34
f 20 34 35
f 20 35 32
f 21 33 36
f 22 36 37
f 22 37 38
f 22 38 23
f 24 26 41
f 24 41 62
f 24 62 81
f 24 81 96
f 24 96 116
f 24 116 115
f 24 115 114
f 24 114 131
f 24 131 130
f 24 130 148
f 24 148 166
f 24 166 185
f 24 185 201
f 24 201 222
f 24 222 241
f 24 241 240
f 24 240 258
f 24 258 283
f 24 283 286
f 24 286 310
f 24 310 309
f 24 309 308
f 24 308 341
f 24 341 340
f 24 340 338
f 24 338 362
f 24 362 361
f 24 361 383
f 24 383 382
f 24 382 384
f 24 384 386
f 24 386 385
f 24 385 365
f 24 365 363
f 24 363 342
f 24 342 314
f 24 314 313
f 24 313 312
f 24 312 311
f 24 311 287
f 24 287 259
f 24 259 243
f 24 243 242
f 24 242 224
f 24 224 223
f 24 223 204
f 24 204 203
f 24 203 202
f 24 202 186
f 24 186 169
f 24 169 168
f 24 168 167
f 24 167 152
f 24 152 151
f 24 151 150
f 24 150 133
f 24 133 118
f 24 118 117
f 24 117 99
f 24 99 82
f 24 82 67
f 24 67 66
f 24 66 73
f 24 73 65
f 24 65 64
f 24 64 59
f 24 59 39
f 25 40 26
f 26 40 60
f 26 60 78
f 26 78 93
f 26 93 98
f 26 98 80
f 26 80 61
f 26 61 41
f 29 42 30
f 30 42 43
f 30 43 44
f 30 44 45
f 30 45 31
f 31 45 46
f 31 46 47
f 31 47 34
f 32 48 49
f 32 49 50
f 32 50 33
f 32 35 48
f 33 50 51
f 33 51 52
f 33 52 53
f 33 53 36
f 34 47 54
f 34 54 35
f 35 54 48
f 36 53 37
f 37 53 72
f 37 72 55
f 37 55 56
f 37 56 57
f 37 57 38
f 39 59 58
f 41 61 79
f 41 79 62
f 44 63 45
f 45 63 58
f 45 58 64
f 45 64 46
f 46 64 65
f 46 65 47
f 47 65 73
f 47 73 54
f 48 66 67
f 48 67 49
f 48 54 73
f 48 73 66
f 49 67 68
f 49 68 51
f 49 51 50
f 51 68 69
f 51 69 70
f 51 70 52
f 52 70 71
f 52 71 72
f 52 72 53
f 55 72 74
f 55 74 75
f 55 75 56
f 58 59 64
f 60 76 77
f 60 77 78
f 61 80 79
f 62 79 81
f 67 82 68
f 68 82 69
f 69 82 99
f 69 99 83
f 69 83 84
f 69 84 70
f 70 84 71
f 71 84 85
f 71 85 86
f 71 86 72
f 72 86 74
f 74 86 87
f 74 87 88
f 74 88 75
f 76 89 77
f 77 89 90
f 77 90 91
f 77 91 92
f 77 92 93
f 77 93 78
f 79 94 95
f 79 95 96
f 79 96 81
f 79 80 97
f 79 97 94
f 80 98 111
f 80 111 97
f 83 99 100
f 83 100 101
f 83 101 84
f 84 101 85
f 85 101 102
f 85 102 103
f 85 103 86
f 86 103 87
f 87 103 104
f 87 104 105
f 87 105 88
f 89 106 107
f 89 107 90
f 90 107 91
f 91 108 109
f 91 109 110
f 91 110 92
f 91 107 108
f 92 110 111
f 92 111 93
f 93 111 98
f 94 97 112
f 94 112 113
f 94 113 95
f 95 113 114
f 95 114 115
f 95 115 116
f 95 116 96
f 97 111 110
f 97 110 112
f 99 117 100
f 100 117 118
f 100 118 119
f 100 119 120
f 100 120 101
f 101 120 102
f 102 120 121
f 102 121 103
f 103 121 122
f 103 122 104
f 104 122 123
f 104 123 124
f 104 124 105
f 106 125 126
f 106 126 107
f 107 126 108
f 108 127 109
f 108 126 127
f 109 127 128
f 109 128 112
f 109 112 110
f 112 128 113
f 113 129 130
f 113 130 131
f 113 131 114
f 113 128 132
f 113 132 129
f 118 133 119
f 119 133 134
f 119 134 135
f 119 135 120
f 120 135 136
f 120 136 121
f 121 136 122
f 122 136 137
f 122 137 123
f 123 137 138
f 123 138 139
f 123 139 140
f 123 140 124
f 125 141 142
f 125 142 126
f 126 142 143
f 126 143 144
f 126 144 127
f 127 144 145
f 127 145 146
f 127 146 129
f 127 129 128
f 128 129 132
f 129 147 148
f 129 148 130
f 129 146 149
f 129 149 147
f 133 150 134
f 134 150 151
f 134 151 152
f 134 152 153
f 134 153 154
f 134 154 155
f 134 155 135
f 135 155 136
f 136 155 156
f 136 156 138
f 136 138 137
f 138 156 157
f 138 157 139
f 139 157 158
f 139 158 159
f 139 159 140
f 141 160 142
f 142 160 161
f 142 161 145
f 142 145 143
f 143 145 144
f 145 161 162
f 145 162 163
f 145 163 164
f 145 164 165
f 145 165 146
f 146 165 149
f 147 149 165
f 147 165 148
f 148 165 166
f 152 167 153
f 153 167 168
f 153 168 169
f 153 169 170
f 153 170 171
f 153 171 154
f 154 171 155
f 155 171 172
f 155 172 156
f 156 172 173
f 156 173 174
f 156 174 157
f 157 174 158
f 158 174 175
f 158 175 176
f 158 176 177
f 158 177 159
f 161 178 179
f 161 179 162
f 162 180 163
f 162 179 178
f 162 178 180
f 163 181 182
f 163 182 164
f 163 180 181
f 164 182 183
f 164 183 165
f 165 183 184
f 165 184 166
f 166 184 183
f 166 183 185
f 169 186 170
f 170 186 187
f 170 187 188
f 170 188 189
f 170 189 171
f 171 189 172
f 172 189 190
f 172 190 191
f 172 191 173
f 173 191 174
f 174 191 192
f 174 192 175
f 175 192 193
f 175 193 176
f 176 193 194
f 178 195 180
f 180 195 196
f 180 196 181
f 181 196 197
f 181 197 198
f 181 198 182
f 182 198 199
f 182 199 183
f 183 199 200
f 183 200 201
f 183 201 185
f 186 202 187
f 187 202 203
f 187 203 204
f 187 204 205
f 187 205 188
f 188 190 189
f 188 205 206
f 188 206 207
f 188 207 190
f 190 207 208
f 190 208 191
f 191 208 192
f 192 208 209
f 192 209 210
f 192 210 193
f 193 210 211
f 193 211 212
f 193 212 194
f 195 213 214
f 195 214 196
f 196 215 216
f 196 216 197
f 196 214 215
f 197 216 217
f 197 217 198
f 198 217 218
f 198 218 219
f 198 219 220
f 198 220 221
f 198 221 200
f 198 200 199
f 200 221 201
f 201 221 222
f 204 223 205
f 205 223 206
f 206 223 224
f 206 224 225
f 206 225 226
f 206 226 227
f 206 227 228
f 206 228 207
f 207 228 229
f 207 229 208
f 208 229 209
f 209 229 230
f 209 230 210
f 210 231 211
f 210 230 232
f 210 232 231
f 213 233 214
f 214 233 215
f 215 233 234
f 215 234 216
f 216 235 236
f 216 236 217
f 216 234 237
f 216 237 235
f 217 236 238
f 217 238 218
f 218 220 219
f 218 238 239
f 218 239 240
f 218 240 220
f 220 240 221
f 221 240 241
f 221 241 222
f 224 242 225
f 225 242 243
f 225 243 244
f 225 244 245
f 225 245 226
f 226 245 227
f 227 245 246
f 227 246 247
f 227 247 229
f 227 229 228
f 229 247 248
f 229 248 230
f 230 248 232
f 232 248 249
f 234 250 237
f 235 251 252
f 235 252 253
f 235 253 254
f 235 254 236
f 235 237 250
f 235 250 255
f 235 255 251
f 236 254 238
f 238 254 256
f 238 256 239
f 239 257 240
f 239 256 257
f 240 257 258
f 243 259 260
f 243 260 261
f 243 261 244
f 244 261 245
f 245 261 262
f 245 262 246
f 246 262 263
f 246 263 264
f 246 264 265
f 246 265 247
f 247 265 248
f 248 265 266
f 248 266 267
f 248 267 249
f 250 268 255
f 251 255 269
f 251 269 270
f 251 270 271
f 251 271 252
f 252 271 272
f 252 272 273
f 252 273 274
f 252 274 275
f 252 275 276
f 252 276 277
f 252 277 278
f 252 278 279
f 252 279 280
f 252 280 254
f 252 254 253
f 254 280 281
f 254 281 282
f 254 282 257
f 254 257 256
f 255 268 269
f 257 283 258
f 257 282 279
f 257 279 284
f 257 284 285
f 257 285 286
f 257 286 283
f 259 287 260
f 260 287 288
f 260 288 289
f 260 289 261
f 261 289 262
f 262 289 290
f 262 290 291
f 262 291 263
f 263 291 264
f 264 266 265
f 264 291 292
f 264 292 293
f 264 293 294
f 264 294 266
f 266 294 267
f 267 294 295
f 270 296 272
f 270 272 271
f 272 296 297
f 272 297 298
f 272 298 299
f 272 299 300
f 272 300 273
f 273 300 274
f 274 300 299
f 274 299 301
f 274 301 302
f 274 302 276
f 274 276 275
f 276 302 301
f 276 301 303
f 276 303 304
f 276 304 305
f 276 305 306
f 276 306 307
f 276 307 285
f 276 285 284
f 276 284 279
f 276 279 277
f 277 279 278
f 279 282 281
f 279 281 280
f 285 307 306
f 285 306 308
f 285 308 309
f 285 309 310
f 285 310 286
f 287 311 288
f 288 311 289
f 289 311 312
f 289 312 313
f 289 313 314
f 289 314 315
f 289 315 316
f 289 316 317
f 289 317 290
f 290 317 291
f 291 317 318
f 291 318 292
f 292 318 293
f 293 319 320
f 293 320 294
f 293 318 321
f 293 321 322
f 293 322 323
f 293 323 324
f 293 324 319
f 294 320 295
f 298 325 299
f 299 325 326
f 299 326 327
f 299 327 328
f 299 328 329
f 299 329 330
f 299 330 331
f 299 331 301
f 301 331 330
f 301 330 332
f 301 332 333
f 301 333 303
f 303 333 304
f 304 333 332
f 304 332 334
f 304 334 335
f 304 335 336
f 304 336 337
f 304 337 338
f 304 338 339
f 304 339 306
f 304 306 305
f 306 339 340
f 306 340 341
f 306 341 308
f 314 342 343
f 314 343 344
f 314 344 345
f 314 345 346
f 314 346 315
f 315 346 345
f 315 345 347
f 315 347 316
f 316 348 349
f 316 349 318
f 316 318 317
f 316 347 344
f 316 344 350
f 316 350 348
f 318 349 321
f 321 349 351
f 321 351 322
f 322 351 352
f 327 353 328
f 328 353 354
f 328 354 355
f 328 355 329
f 329 355 330
f 330 355 332
f 332 355 356
f 332 356 357
f 332 357 334
f 334 357 335
f 335 358 359
f 335 359 360
f 335 360 336
f 335 357 358
f 336 360 361
f 336 361 337
f 337 361 362
f 337 362 338
f 338 340 339
f 342 363 343
f 343 363 364
f 343 364 344
f 344 365 366
f 344 366 367
f 344 367 368
f 344 368 369
f 344 369 350
f 344 347 345
f 344 364 365
f 348 350 370
f 348 370 349
f 349 370 371
f 349 371 351
f 350 369 372
f 350 372 370
f 351 371 352
f 352 371 373
f 353 374 375
f 353 375 376
f 353 376 354
f 354 376 355
f 355 376 377
f 355 377 356
f 356 377 357
f 357 377 378
f 357 378 379
f 357 379 358
f 358 380 381
f 358 381 359
f 358 379 380
f 359 382 383
f 359 383 361
f 359 361 360
f 359 381 384
f 359 384 382
f 363 365 364
f 365 385 366
f 366 385 386
f 366 386 384
f 366 384 381
f 366 381 367
f 367 387 369
f 367 369 368
f 367 381 380
f 367 380 388
f 367 388 387
f 369 387 389
f 369 389 390
f 369 390 391
f 369 391 372
f 370 372 392
f 370 392 393
f 370 393 371
f 371 393 373
f 372 391 392
f 374 394 375
f 375 394 395
f 375 395 396
f 375 396 377
f 375 377 376
f 377 396 397
f 377 397 398
f 377 398 399
f 377 399 390
f 377 390 400
f 377 400 378
f 378 400 388
f 378 388 380
f 378 380 379
f 387 388 389
f 388 400 389
f 389 400 390
f 390 401 402
f 390 402 391
f 390 399 401
f 391 393 392
f 391 402 393
f 393 402 401
f 393 401 403
f 395 397 396
f 398 404 401
f 398 401 399
f 401 404 403

