# https://github.com/mikedh/trimesh
v 0.05428399 -0.01092825 0.07276593
v 0.05393405 -0.01092825 0.07292804
v 0.05428399 -0.01138314 0.07254486
v 0.05428399 -0.01092825 0.02146316
v 0.05312400 -0.01092825 0.07329650
v 0.05428399 -0.01257555 0.07189639
v 0.05373640 -0.01135972 0.07280277
v 0.05260881 -0.01181796 0.07306806
v 0.05428399 -0.01735189 0.00279756
v 0.04898950 -0.01092825 0.01331308
v 0.05217462 -0.01135972 0.07348072
v 0.05159786 -0.01223773 0.07328913
v 0.05220702 -0.01092825 0.07367231
v 0.05217462 -0.01282306 0.07267750
v 0.05405718 -0.01334819 0.07152057
v 0.05428399 -0.01302877 0.07161637
v 0.05428399 -0.01788204 0.00172169
v 0.04626124 -0.01092825 0.01044655
v 0.04674728 -0.01092825 0.01077815
v 0.04708425 -0.01092825 0.01102870
v 0.04783599 -0.01092825 0.01177296
v 0.04852615 -0.01092825 0.01260566
v 0.05080725 -0.01092825 0.07415866
v 0.05076513 -0.01142829 0.07394496
v 0.05076513 -0.01247019 0.07341440
v 0.04965374 -0.01352212 0.07315648
v 0.05076513 -0.01322778 0.07297226
v 0.05228155 -0.01394524 0.07191113
v 0.05304624 -0.01370608 0.07174164
v 0.05428399 -0.01326457 0.07146899
v 0.05428399 -0.01427971 0.07077630
v 0.05428399 -0.01900588 0.00139009
v 0.02118205 -0.01626317 0.00170695
v 0.03869861 -0.01092825 0.00829481
v 0.04011782 -0.01092825 0.00838324
v 0.04167311 -0.01092825 0.00862642
v 0.04324786 -0.01092825 0.00905382
v 0.04423612 -0.01092825 0.00941489
v 0.04505265 -0.01092825 0.00979071
v 0.04946581 -0.01092825 0.07454922
v 0.04882749 -0.01092825 0.07473344
v 0.04826045 -0.01092825 0.07489556
v 0.04922603 -0.01135303 0.07441658
v 0.04773554 -0.01183803 0.07460080
v 0.04919039 -0.01298863 0.07358388
v 0.04773554 -0.01294348 0.07401128
v 0.04864280 -0.01376629 0.07329650
v 0.04919039 -0.01434661 0.07275119
v 0.05018513 -0.01531492 0.07180796
v 0.05071977 -0.01450047 0.07216167
v 0.05119608 -0.01503229 0.07160163
v 0.05428399 -0.01515103 0.07017205
v 0.05428399 -0.01500720 0.07027522
v 0.05371696 -0.01441351 0.07094579
v 0.05428399 -0.02051939 0.00137535
v 0.02118205 -0.02203458 0.00130903
v 0.02197591 -0.01749070 0.00137535
v 0.02118205 -0.01585176 0.00229647
v 0.03713035 -0.01092825 0.00833166
v 0.03864352 -0.01092825 0.00829481
v 0.02118205 -0.01682174 0.00155221
v 0.04773554 -0.01108044 0.07496925
v 0.04773554 -0.01092825 0.07503557
v 0.04677320 -0.01209892 0.07472607
v 0.04624828 -0.01286487 0.07442395
v 0.04773554 -0.01395360 0.07342176
v 0.04773554 -0.01471119 0.07291331
v 0.04925195 -0.01550390 0.07194797
v 0.04925195 -0.01626149 0.07136582
v 0.05042491 -0.01692543 0.07040049
v 0.05081049 -0.01600227 0.07100474
v 0.05337998 -0.01541025 0.07037101
v 0.05428399 -0.01528315 0.07006888
v 0.02118205 -0.02660354 0.00128692
v 0.05428399 -0.02506494 0.00161852
v 0.02118205 -0.01749070 0.00137535
v 0.02118205 -0.01553735 0.00281230
v 0.03561393 -0.01092825 0.00850114
v 0.04680236 -0.01092825 0.07524927
v 0.04624828 -0.01152696 0.07510926
v 0.04576225 -0.01230797 0.07483661
v 0.04470595 -0.01323280 0.07451974
v 0.04621912 -0.01426132 0.07361336
v 0.04534427 -0.01518949 0.07323754
v 0.04621912 -0.01501891 0.07311964
v 0.04628393 -0.01609760 0.07230168
v 0.04773554 -0.01652907 0.07157952
v 0.04925195 -0.01717127 0.07060682
v 0.04925195 -0.01792886 0.06992887
v 0.05049943 -0.01845232 0.06892669
v 0.05096926 -0.01758435 0.06955306
v 0.05228155 -0.01730674 0.06925093
v 0.05143585 -0.01668795 0.07018679
v 0.05228155 -0.01646552 0.07000256
v 0.05228155 -0.01570793 0.07060682
v 0.05384980 -0.01593872 0.06972991
v 0.05428399 -0.01682007 0.06879405
v 0.02118205 -0.02716044 0.00135324
v 0.04773554 -0.02658180 0.00164063
v 0.05428399 -0.02627743 0.00172169
v 0.02118205 -0.01092825 0.01294463
v 0.03251629 -0.01092825 0.00920856
v 0.03410075 -0.01092825 0.00878853
v 0.03545516 -0.01092825 0.00853062
v 0.04623856 -0.01092825 0.07537454
v 0.04520494 -0.01092825 0.07555876
v 0.04470595 -0.01142829 0.07541875
v 0.04470595 -0.01247521 0.07491767
v 0.04478371 -0.01459412 0.07369442
v 0.04158563 -0.01303211 0.07507978
v 0.04318953 -0.01344185 0.07463028
v 0.04318953 -0.01445866 0.07401865
v 0.04318953 -0.01542028 0.07339966
v 0.04318953 -0.01617787 0.07283962
v 0.04478371 -0.01587350 0.07281751
v 0.04470595 -0.01701072 0.07196271
v 0.04582382 -0.01685185 0.07183744
v 0.04767397 -0.01757265 0.07072472
v 0.04813732 -0.01813457 0.07012047
v 0.04925195 -0.01869315 0.06916987
v 0.05151038 -0.01824160 0.06870563
v 0.04925195 -0.01945074 0.06834454
v 0.05138077 -0.01970996 0.06712866
v 0.05228155 -0.01878513 0.06777713
v 0.05228155 -0.01806433 0.06853614
v 0.05379796 -0.01694383 0.06890459
v 0.05351930 -0.01851086 0.06747501
v 0.05428399 -0.01722981 0.06837402
v 0.04470595 -0.02759025 0.00176590
v 0.04318953 -0.02761032 0.00175117
v 0.04167311 -0.02762370 0.00174380
v 0.04015670 -0.02763206 0.00173643
v 0.02118205 -0.02765046 0.00161116
v 0.04925195 -0.02658180 0.00167011
v 0.04621912 -0.02755847 0.00178801
v 0.05428399 -0.02682429 0.00279756
v 0.05155250 -0.02734273 0.00203119
v 0.05076513 -0.02738956 0.00197223
v 0.04925195 -0.02746315 0.00188381
v 0.04773554 -0.02751666 0.00182486
v 0.02118205 -0.01092825 0.07656832
v 0.04474483 -0.01092825 0.07563245
v 0.04318953 -0.01092825 0.07586826
v 0.04318953 -0.01142829 0.07564720
v 0.04318953 -0.01268426 0.07502820
v 0.04015670 -0.01294348 0.07526401
v 0.04102183 -0.01372615 0.07478503
v 0.04155647 -0.01128614 0.07594195
v 0.04120653 -0.01092825 0.07615565
v 0.04158563 -0.01432320 0.07433552
v 0.04167311 -0.01557414 0.07351019
v 0.04318953 -0.01717295 0.07208798
v 0.04167311 -0.01633173 0.07295015
v 0.04318953 -0.01793054 0.07146899
v 0.04470595 -0.01776831 0.07132898
v 0.04712962 -0.01829010 0.07026785
v 0.04758973 -0.01896909 0.06942778
v 0.04804660 -0.01964808 0.06858035
v 0.04925195 -0.02009294 0.06758554
v 0.05036983 -0.01989392 0.06734973
v 0.05228155 -0.02014979 0.06615596
v 0.05228155 -0.01954105 0.06691497
v 0.05107943 -0.02114319 0.06547802
v 0.05334433 -0.01990730 0.06586857
v 0.05393729 -0.01908950 0.06652441
v 0.05428399 -0.01859280 0.06690760
v 0.05428399 -0.01830181 0.06725394
v 0.04318953 -0.02790466 0.00279756
v 0.04167311 -0.02793309 0.00279756
v 0.04015670 -0.02794981 0.00279756
v 0.03864352 -0.02796152 0.00279756
v 0.03713035 -0.02764042 0.00172906
v 0.02118205 -0.02781100 0.00212698
v 0.04470595 -0.02786285 0.00279756
v 0.05428399 -0.02693467 0.00430820
v 0.05379796 -0.02703669 0.00430820
v 0.05250188 -0.02725912 0.00430820
v 0.05163350 -0.02735444 0.00279756
v 0.05076513 -0.02745980 0.00279756
v 0.04925195 -0.02760697 0.00279756
v 0.04773554 -0.02771233 0.00279756
v 0.04621912 -0.02779930 0.00279756
v 0.02118205 -0.01112559 0.07648726
v 0.02349232 -0.01092825 0.07656832
v 0.04175736 -0.01092825 0.07608196
v 0.03713035 -0.01294348 0.07544823
v 0.04015670 -0.01378134 0.07482187
v 0.04015670 -0.01150522 0.07597143
v 0.03864352 -0.01160891 0.07602301
v 0.03713035 -0.01171260 0.07606722
v 0.04015670 -0.01453893 0.07435763
v 0.04073345 -0.01092825 0.07619987
v 0.04015670 -0.01569957 0.07359862
v 0.04015670 -0.01645716 0.07305332
v 0.04167311 -0.01729503 0.07219115
v 0.04167311 -0.01805262 0.07157215
v 0.04318953 -0.01875001 0.07070999
v 0.04470595 -0.01859782 0.07056997
v 0.04470595 -0.01935541 0.06980360
v 0.04621912 -0.01916309 0.06959727
v 0.04703889 -0.01977685 0.06872773
v 0.04669219 -0.02122347 0.06712130
v 0.04773554 -0.02108968 0.06693707
v 0.04925195 -0.02085053 0.06662758
v 0.05228155 -0.02090739 0.06515378
v 0.05006849 -0.02129371 0.06569909
v 0.04846134 -0.02278548 0.06415160
v 0.05065172 -0.02161313 0.06495482
v 0.05228155 -0.02141914 0.06439478
v 0.05428399 -0.02031202 0.06472638
v 0.05428399 -0.01975678 0.06547802
v 0.05428399 -0.01968320 0.06557381
v 0.05428399 -0.01956613 0.06572119
v 0.05428399 -0.01898414 0.06643598
v 0.04470595 -0.02789295 0.00430820
v 0.04318953 -0.02793309 0.00430820
v 0.04167311 -0.02795985 0.00430820
v 0.04015670 -0.02797657 0.00430820
v 0.03713035 -0.02796654 0.00279756
v 0.03864352 -0.02798660 0.00430820
v 0.03713035 -0.02799329 0.00430820
v 0.03561393 -0.02797155 0.00279756
v 0.03106792 -0.02798493 0.00279756
v 0.02652191 -0.02798660 0.00279756
v 0.02118205 -0.02798660 0.00279756
v 0.05428399 -0.02697816 0.00631256
v 0.05428399 -0.02699990 0.00734421
v 0.05379796 -0.02710024 0.00734421
v 0.05269629 -0.02728755 0.00734421
v 0.05174367 -0.02737117 0.00430820
v 0.05076513 -0.02749325 0.00430820
v 0.04925195 -0.02763708 0.00430820
v 0.04773554 -0.02774076 0.00430820
v 0.04621912 -0.02782773 0.00430820
v 0.02500550 -0.01112559 0.07648726
v 0.02118205 -0.01152195 0.07631040
v 0.02979128 -0.01092825 0.07656095
v 0.02652191 -0.01112225 0.07648726
v 0.02955151 -0.01111556 0.07648726
v 0.03713035 -0.01393687 0.07491030
v 0.03864352 -0.01385994 0.07486608
v 0.03561393 -0.01178618 0.07610407
v 0.03561393 -0.01294348 0.07551455
v 0.03864352 -0.01461754 0.07440921
v 0.03984240 -0.01092825 0.07625882
v 0.03753861 -0.01092825 0.07640620
v 0.03713035 -0.01092825 0.07642831
v 0.03864352 -0.01577817 0.07365020
v 0.03864352 -0.01653576 0.07311227
v 0.04015670 -0.01741210 0.07229431
v 0.03912955 -0.01823324 0.07172690
v 0.04015670 -0.01816969 0.07166795
v 0.03957022 -0.01978689 0.07025311
v 0.04318953 -0.01950593 0.06996572
v 0.04318953 -0.02021167 0.06921408
v 0.04470595 -0.02006450 0.06904460
v 0.04621912 -0.01988054 0.06883827
v 0.04470595 -0.02141746 0.06737921
v 0.04619968 -0.02173522 0.06654652
v 0.04621912 -0.02257643 0.06532327
v 0.04773554 -0.02162819 0.06617807
v 0.04470595 -0.02082210 0.06813821
v 0.04925195 -0.02140910 0.06587594
v 0.05304299 -0.02127866 0.06416634
v 0.04925195 -0.02267343 0.06396738
v 0.04786839 -0.02246271 0.06487376
v 0.04745040 -0.02289251 0.06434319
v 0.04621912 -0.02365847 0.06340733
v 0.04621912 -0.02418527 0.06239042
v 0.04852939 -0.02431739 0.06115243
v 0.04925195 -0.02308818 0.06320837
v 0.05088826 -0.02250117 0.06340733
v 0.05147473 -0.02277544 0.06261886
v 0.05428399 -0.02086725 0.06396001
v 0.04621912 -0.02785783 0.00734421
v 0.04470595 -0.02790466 0.00582621
v 0.04318953 -0.02794312 0.00582621
v 0.04167311 -0.02796821 0.00582621
v 0.04167311 -0.02797824 0.00885485
v 0.04015670 -0.02798660 0.00734421
v 0.03864352 -0.02799162 0.00582621
v 0.03864352 -0.02799497 0.00734421
v 0.03106792 -0.02801002 0.00430820
v 0.02118205 -0.02801169 0.00430820
v 0.05428399 -0.02702164 0.00885485
v 0.05379796 -0.02712198 0.00885485
v 0.05276110 -0.02729758 0.00885485
v 0.05193808 -0.02739960 0.00734421
v 0.05076513 -0.02754342 0.00734421
v 0.04925195 -0.02768223 0.00734421
v 0.04773554 -0.02777756 0.00734421
v 0.04773554 -0.02779261 0.00885485
v 0.02500550 -0.01188318 0.07614828
v 0.02118205 -0.01188318 0.07614828
v 0.03106792 -0.01092825 0.07655358
v 0.02803833 -0.01187649 0.07614828
v 0.02955151 -0.01187315 0.07614828
v 0.03106792 -0.01110552 0.07647989
v 0.03561393 -0.01400042 0.07493977
v 0.03561393 -0.01475802 0.07449027
v 0.03713035 -0.01469447 0.07445342
v 0.03410075 -0.01181796 0.07611881
v 0.03410075 -0.01294348 0.07555140
v 0.03561393 -0.01102859 0.07645041
v 0.03410075 -0.01403053 0.07496188
v 0.03561393 -0.01092825 0.07648726
v 0.03561393 -0.01665785 0.07320070
v 0.03713035 -0.01583838 0.07369442
v 0.03863380 -0.01763285 0.07224273
v 0.03561393 -0.01749070 0.07252275
v 0.03561393 -0.01834194 0.07182270
v 0.03864352 -0.01982201 0.07028995
v 0.03779459 -0.02127197 0.06870563
v 0.03864352 -0.02123517 0.06866141
v 0.04015670 -0.02115490 0.06856561
v 0.04167311 -0.02106794 0.06845508
v 0.04318953 -0.02096927 0.06832244
v 0.04318953 -0.02156965 0.06756344
v 0.04470595 -0.02209645 0.06643598
v 0.04470595 -0.02271357 0.06555171
v 0.04621912 -0.02302296 0.06456426
v 0.05405394 -0.02105623 0.06384211
v 0.05364891 -0.02152617 0.06336312
v 0.05428399 -0.02145426 0.06307573
v 0.05046379 -0.02293098 0.06289888
v 0.04528594 -0.02428394 0.06258938
v 0.04954033 -0.02417356 0.06083557
v 0.05088826 -0.02323535 0.06202197
v 0.04773554 -0.02438930 0.06130718
v 0.04621912 -0.02500808 0.06037132
v 0.04773554 -0.02475221 0.06037132
v 0.04773554 -0.02529908 0.05886068
v 0.04911911 -0.02448462 0.06034921
v 0.05034390 -0.02439933 0.05982602
v 0.05135485 -0.02426052 0.05950178
v 0.05081697 -0.02403141 0.06034921
v 0.05228155 -0.02302798 0.06160194
v 0.05326333 -0.02287913 0.06129244
v 0.05228155 -0.02262493 0.06236094
v 0.05428399 -0.02101107 0.06375368
v 0.04621912 -0.02786787 0.00885485
v 0.04470595 -0.02791469 0.00734421
v 0.04318953 -0.02795149 0.00734421
v 0.04318953 -0.02795650 0.00885485
v 0.04015670 -0.02798828 0.00885485
v 0.04318953 -0.02795817 0.01340151
v 0.04167311 -0.02798159 0.02704147
v 0.04015670 -0.02798995 0.01037286
v 0.03864352 -0.02799664 0.00885485
v 0.03561393 -0.02800166 0.03158812
v 0.03410075 -0.02800166 0.03461677
v 0.03258434 -0.02800166 0.03613478
v 0.03864352 -0.02799831 0.02704147
v 0.03713035 -0.02799998 0.03310613
v 0.02955151 -0.02800166 0.03765279
v 0.02118205 -0.02800166 0.03765279
v 0.05428399 -0.02702331 0.00934120
v 0.05379796 -0.02712533 0.01037286
v 0.05277406 -0.02730093 0.01037286
v 0.05200289 -0.02740796 0.00885485
v 0.05076513 -0.02756015 0.00885485
v 0.04925195 -0.02769728 0.00885485
v 0.04925195 -0.02770063 0.01037286
v 0.04773554 -0.02779595 0.01188350
v 0.02118205 -0.01243841 0.07586826
v 0.02652191 -0.01294348 0.07561035
v 0.03410075 -0.01092825 0.07651673
v 0.03258434 -0.01108378 0.07647252
v 0.02955151 -0.01294348 0.07560298
v 0.03106792 -0.01294348 0.07559561
v 0.03106792 -0.01186311 0.07614091
v 0.03410075 -0.01478812 0.07451237
v 0.03410075 -0.01593705 0.07375337
v 0.03561393 -0.01590026 0.07373126
v 0.03106792 -0.01406398 0.07498399
v 0.03410075 -0.01669464 0.07323017
v 0.03410075 -0.01749070 0.07258170
v 0.03410075 -0.01837372 0.07185218
v 0.03561393 -0.01909954 0.07112265
v 0.03713035 -0.01985880 0.07032680
v 0.03561393 -0.02064817 0.06953095
v 0.03410075 -0.02136395 0.06881616
v 0.03561393 -0.02133217 0.06877194
v 0.03722755 -0.02175696 0.06810137
v 0.03864352 -0.02181884 0.06790241
v 0.04015670 -0.02175027 0.06780661
v 0.04167311 -0.02168003 0.06769608
v 0.04167311 -0.02243762 0.06665705
v 0.04328349 -0.02241254 0.06634756
v 0.04284283 -0.02285572 0.06578751
v 0.04328349 -0.02321863 0.06505799
v 0.04470595 -0.02316009 0.06479270
v 0.04475131 -0.02398124 0.06330417
v 0.05428399 -0.02189577 0.06231673
v 0.04318953 -0.02403643 0.06362840
v 0.04427824 -0.02435083 0.06272939
v 0.04318953 -0.02483917 0.06188933
v 0.04475131 -0.02459333 0.06200723
v 0.04470595 -0.02525225 0.06037132
v 0.04621912 -0.02451306 0.06163141
v 0.04622236 -0.02559509 0.05876488
v 0.04925195 -0.02498969 0.05886068
v 0.04672784 -0.02579076 0.05796904
v 0.04773554 -0.02569376 0.05767428
v 0.05081697 -0.02461005 0.05894174
v 0.05202233 -0.02446121 0.05849223
v 0.05242736 -0.02415684 0.05894174
v 0.05228155 -0.02359826 0.06037132
v 0.05428399 -0.02267677 0.06090189
v 0.05378176 -0.02310323 0.06038606
v 0.04470595 -0.02792138 0.00885485
v 0.04621912 -0.02786954 0.01037286
v 0.04470595 -0.02792305 0.01037286
v 0.04470595 -0.02792807 0.02704147
v 0.04318953 -0.02795985 0.02249482
v 0.04167311 -0.02798159 0.03158812
v 0.04015670 -0.02799162 0.02552346
v 0.03561393 -0.02799998 0.03613478
v 0.03410075 -0.02799998 0.03765279
v 0.03258434 -0.02799998 0.03915606
v 0.04015670 -0.02799162 0.02855948
v 0.03864352 -0.02799664 0.03310613
v 0.03713035 -0.02799831 0.03613478
v 0.02803833 -0.02799831 0.04067406
v 0.02118205 -0.02799831 0.04067406
v 0.05428399 -0.02702665 0.01085921
v 0.05379796 -0.02712700 0.01188350
v 0.05379796 -0.02713536 0.02704147
v 0.05279998 -0.02730427 0.02552346
v 0.05204177 -0.02741465 0.02552346
v 0.05202233 -0.02741130 0.01340151
v 0.05201909 -0.02740963 0.01037286
v 0.05076513 -0.02756349 0.01037286
v 0.05076513 -0.02756683 0.01643015
v 0.05076513 -0.02757185 0.02704147
v 0.04925195 -0.02770397 0.01794816
v 0.04773554 -0.02780097 0.02552346
v 0.04621912 -0.02787121 0.01340151
v 0.02118205 -0.01294348 0.07561035
v 0.02500550 -0.01407568 0.07499136
v 0.02652191 -0.01407401 0.07499136
v 0.03106792 -0.01482157 0.07452711
v 0.03112301 -0.01612268 0.07367231
v 0.03166412 -0.01672809 0.07325228
v 0.03258434 -0.01671471 0.07324491
v 0.02955151 -0.01482826 0.07453448
v 0.03065318 -0.01673980 0.07325965
v 0.03106792 -0.01840048 0.07187428
v 0.03258434 -0.01914302 0.07115949
v 0.03410075 -0.01913131 0.07114475
v 0.03561393 -0.01989057 0.07036364
v 0.03410075 -0.02067325 0.06956780
v 0.03258434 -0.02068329 0.06958253
v 0.03258434 -0.02137398 0.06882353
v 0.03258434 -0.02202789 0.06795399
v 0.03410075 -0.02200113 0.06795399
v 0.03561393 -0.02194092 0.06795399
v 0.03713035 -0.02261824 0.06693707
v 0.03864352 -0.02257643 0.06686338
v 0.04015670 -0.02250786 0.06676022
v 0.03864352 -0.02307815 0.06611175
v 0.04015670 -0.02300456 0.06600858
v 0.04167311 -0.02292930 0.06589805
v 0.04167311 -0.02352133 0.06491797
v 0.04167311 -0.02414178 0.06381263
v 0.04318953 -0.02440937 0.06286940
v 0.04167311 -0.02500975 0.06188933
v 0.04318953 -0.02545294 0.06037132
v 0.04470595 -0.02568373 0.05917018
v 0.04916771 -0.02554492 0.05723214
v 0.05076513 -0.02516194 0.05734267
v 0.04622236 -0.02599814 0.05741636
v 0.04773554 -0.02590783 0.05692264
v 0.04860715 -0.02584428 0.05665736
v 0.04571689 -0.02585598 0.05820484
v 0.05303327 -0.02430568 0.05809431
v 0.05242736 -0.02468029 0.05749005
v 0.05379796 -0.02373874 0.05886068
v 0.05428399 -0.02301961 0.06015762
v 0.04621912 -0.02787623 0.02704147
v 0.04470595 -0.02792807 0.02855948
v 0.04318953 -0.02795985 0.03158812
v 0.04167311 -0.02797657 0.03461677
v 0.04015670 -0.02798660 0.03613478
v 0.04015670 -0.02798995 0.03310613
v 0.03561393 -0.02799831 0.03765279
v 0.03410075 -0.02799831 0.03915606
v 0.03106792 -0.02799664 0.04067406
v 0.03864352 -0.02799162 0.03765279
v 0.03713035 -0.02799329 0.03915606
v 0.03561393 -0.02799664 0.03915606
v 0.03258434 -0.02798995 0.04219207
v 0.02955151 -0.02799162 0.04219207
v 0.02118205 -0.02799162 0.04219207
v 0.05428399 -0.02703502 0.02552346
v 0.05428399 -0.02703669 0.02855948
v 0.05379796 -0.02713536 0.03007012
v 0.05280322 -0.02730427 0.02704147
v 0.05204501 -0.02741465 0.02704147
v 0.05076513 -0.02757185 0.02855948
v 0.04925195 -0.02770732 0.02704147
v 0.04773554 -0.02780097 0.03310613
v 0.02118205 -0.01407568 0.07499136
v 0.02118205 -0.01447204 0.07475555
v 0.02955151 -0.01597384 0.07378284
v 0.02955151 -0.01674314 0.07326702
v 0.02652191 -0.01483160 0.07453448
v 0.02955151 -0.01750240 0.07264065
v 0.02955151 -0.01840884 0.07188165
v 0.03106792 -0.01915974 0.07116686
v 0.03258434 -0.01992570 0.07040049
v 0.03410075 -0.01991566 0.07038575
v 0.02955151 -0.02070168 0.06958990
v 0.03106792 -0.01993573 0.07040786
v 0.02955151 -0.01994409 0.07041523
v 0.03106792 -0.02137398 0.06883090
v 0.02955151 -0.02205297 0.06795399
v 0.02955151 -0.02271189 0.06707708
v 0.03258434 -0.02269015 0.06704761
v 0.03410075 -0.02267176 0.06702550
v 0.03713035 -0.02313166 0.06618544
v 0.03864352 -0.02378055 0.06491797
v 0.04015670 -0.02366348 0.06491797
v 0.04015670 -0.02420868 0.06395264
v 0.04015670 -0.02456490 0.06319364
v 0.04167311 -0.02449299 0.06305362
v 0.04015670 -0.02515358 0.06188933
v 0.04015670 -0.02565362 0.06060713
v 0.04177356 -0.02562687 0.06027552
v 0.04234708 -0.02581752 0.05959758
v 0.04318953 -0.02578072 0.05945757
v 0.04961486 -0.02574561 0.05628891
v 0.05075541 -0.02561683 0.05580256
v 0.05228155 -0.02523051 0.05582467
v 0.04470595 -0.02620217 0.05734267
v 0.04470595 -0.02657845 0.05582467
v 0.04621912 -0.02638780 0.05582467
v 0.04773554 -0.02617039 0.05582467
v 0.04916771 -0.02595131 0.05580256
v 0.04470595 -0.02591117 0.05841854
v 0.05379796 -0.02445118 0.05699633
v 0.05428399 -0.02437759 0.05678263
v 0.05379796 -0.02417189 0.05775534
v 0.05379796 -0.02481743 0.05582467
v 0.05428399 -0.02355645 0.05887542
v 0.05428399 -0.02407322 0.05757111
v 0.04621912 -0.02787455 0.03158812
v 0.04470595 -0.02792640 0.03158812
v 0.04470595 -0.02792473 0.03310613
v 0.04318953 -0.02795483 0.03461677
v 0.04167311 -0.02797323 0.03613478
v 0.04015670 -0.02798326 0.03765279
v 0.03410075 -0.02798828 0.04219207
v 0.03864352 -0.02798660 0.03915606
v 0.03713035 -0.02798660 0.04067406
v 0.03561393 -0.02799162 0.04067406
v 0.02803833 -0.02798326 0.04370271
v 0.02118205 -0.02798159 0.04370271
v 0.05428399 -0.02703669 0.03007012
v 0.05379796 -0.02713369 0.03158812
v 0.05279998 -0.02730427 0.03007012
v 0.05280322 -0.02730427 0.02855948
v 0.05204501 -0.02741465 0.02855948
v 0.04925195 -0.02770732 0.02855948
v 0.05204177 -0.02741465 0.03007012
v 0.05203205 -0.02741465 0.03158812
v 0.05201909 -0.02741465 0.03310613
v 0.05076513 -0.02756851 0.03158812
v 0.04925195 -0.02770397 0.03310613
v 0.04925195 -0.02770564 0.03158812
v 0.04773554 -0.02779930 0.03461677
v 0.02118205 -0.01483327 0.07453448
v 0.02500550 -0.01483327 0.07453448
v 0.02118205 -0.01597384 0.07378284
v 0.02118205 -0.01637354 0.07351019
v 0.02118205 -0.01673812 0.07325965
v 0.02118205 -0.01749572 0.07264802
v 0.02500550 -0.01749572 0.07264802
v 0.02500550 -0.01841720 0.07188902
v 0.02955151 -0.01916643 0.07117423
v 0.02652191 -0.02070670 0.06958990
v 0.02500550 -0.01917479 0.07117423
v 0.02652191 -0.01994911 0.07041523
v 0.02955151 -0.02137566 0.06883090
v 0.02500550 -0.02206468 0.06795399
v 0.02803833 -0.02205799 0.06795399
v 0.02500550 -0.02272360 0.06709182
v 0.02803833 -0.02271691 0.06708445
v 0.02955151 -0.02318852 0.06631808
v 0.03258434 -0.02318685 0.06628860
v 0.03410075 -0.02318016 0.06626650
v 0.03561393 -0.02315842 0.06622228
v 0.03561393 -0.02391601 0.06494745
v 0.03700722 -0.02395950 0.06477059
v 0.03864352 -0.02425216 0.06404844
v 0.03700722 -0.02460169 0.06353261
v 0.03864352 -0.02462176 0.06328943
v 0.03864352 -0.02524891 0.06188933
v 0.03864352 -0.02594964 0.05998813
v 0.04015670 -0.02589947 0.05984812
v 0.03864352 -0.02569376 0.06074714
v 0.04015670 -0.02620718 0.05886068
v 0.04177356 -0.02603827 0.05900069
v 0.04318953 -0.02599646 0.05870593
v 0.05024670 -0.02587438 0.05527199
v 0.05125440 -0.02576233 0.05482986
v 0.05229127 -0.02563857 0.05432140
v 0.05379796 -0.02523218 0.05431403
v 0.04318953 -0.02636941 0.05734267
v 0.04318953 -0.02672228 0.05582467
v 0.04470595 -0.02687447 0.05431403
v 0.04621912 -0.02671225 0.05431403
v 0.04773554 -0.02650821 0.05431403
v 0.04925195 -0.02626237 0.05431403
v 0.05428399 -0.02452476 0.05631102
v 0.05428399 -0.02466524 0.05582467
v 0.04621912 -0.02787121 0.03310613
v 0.04470595 -0.02791469 0.03613478
v 0.04318953 -0.02795149 0.03613478
v 0.04167311 -0.02796654 0.03765279
v 0.04015670 -0.02797490 0.03915606
v 0.03864352 -0.02797824 0.04067406
v 0.03561393 -0.02798326 0.04219207
v 0.03410075 -0.02797323 0.04370271
v 0.03258434 -0.02797824 0.04370271
v 0.03713035 -0.02797490 0.04219207
v 0.02803833 -0.02796319 0.04522072
v 0.02118205 -0.02796319 0.04522072
v 0.02118205 -0.02797323 0.04442487
v 0.05428399 -0.02703167 0.03310613
v 0.05379796 -0.02713034 0.03310613
v 0.05279026 -0.02730093 0.03158812
v 0.05199641 -0.02741298 0.03461677
v 0.05076513 -0.02756516 0.03310613
v 0.04925195 -0.02770063 0.03461677
v 0.04621912 -0.02786619 0.03461677
v 0.04773554 -0.02779261 0.03613478
v 0.02118205 -0.01841720 0.07188902
v 0.02500550 -0.02070837 0.06958990
v 0.02118205 -0.01917479 0.07117423
v 0.02500550 -0.01995078 0.07041523
v 0.02118205 -0.02137566 0.06883090
v 0.02118205 -0.02173689 0.06837402
v 0.02118205 -0.02206468 0.06795399
v 0.02118205 -0.02240919 0.06750448
v 0.02118205 -0.02272360 0.06709182
v 0.02500550 -0.02319354 0.06633282
v 0.02652191 -0.02319187 0.06633282
v 0.02803833 -0.02319020 0.06632545
v 0.02803833 -0.02394779 0.06506535
v 0.03258434 -0.02394444 0.06502114
v 0.03410075 -0.02393775 0.06499166
v 0.03642074 -0.02431070 0.06416634
v 0.03743169 -0.02428561 0.06411476
v 0.03561393 -0.02471876 0.06340733
v 0.03713035 -0.02533253 0.06188933
v 0.03713035 -0.02598643 0.06008393
v 0.03864352 -0.02630251 0.05886068
v 0.03713035 -0.02572386 0.06084293
v 0.04015670 -0.02661023 0.05734267
v 0.04167311 -0.02650989 0.05734267
v 0.05075541 -0.02598476 0.05432140
v 0.05179227 -0.02588776 0.05382031
v 0.05280322 -0.02576567 0.05328237
v 0.05428399 -0.02506829 0.05435087
v 0.05428399 -0.02490774 0.05494039
v 0.05375584 -0.02561182 0.05278865
v 0.05428399 -0.02545461 0.05278865
v 0.04167311 -0.02684102 0.05582467
v 0.04318953 -0.02700157 0.05431403
v 0.04470595 -0.02711362 0.05279602
v 0.04621912 -0.02696645 0.05279602
v 0.04773554 -0.02678917 0.05279602
v 0.04925195 -0.02656006 0.05279602
v 0.05076513 -0.02629248 0.05279602
v 0.04621912 -0.02785281 0.03765279
v 0.04470595 -0.02790466 0.03765279
v 0.04318953 -0.02794312 0.03765279
v 0.04167311 -0.02795817 0.03915606
v 0.04015670 -0.02796486 0.04067406
v 0.03864352 -0.02796486 0.04219207
v 0.03561393 -0.02796821 0.04370271
v 0.03410075 -0.02795316 0.04522072
v 0.02955151 -0.02796152 0.04522072
v 0.03258434 -0.02795650 0.04522072
v 0.03713035 -0.02795817 0.04370271
v 0.03106792 -0.02792807 0.04673873
v 0.02955151 -0.02792974 0.04673873
v 0.02500550 -0.02793142 0.04673873
v 0.02118205 -0.02794814 0.04594288
v 0.05428399 -0.02702498 0.03461677
v 0.05379796 -0.02712533 0.03461677
v 0.05277730 -0.02729758 0.03310613
v 0.05076513 -0.02756015 0.03461677
v 0.05275462 -0.02729424 0.03461677
v 0.05269953 -0.02728755 0.03613478
v 0.05194132 -0.02740294 0.03613478
v 0.05076513 -0.02754677 0.03613478
v 0.04925195 -0.02769059 0.03613478
v 0.04773554 -0.02777923 0.03765279
v 0.02118205 -0.02034714 0.06998782
v 0.02118205 -0.02070837 0.06958990
v 0.02118205 -0.01995078 0.07041523
v 0.02118205 -0.02319354 0.06633282
v 0.02500550 -0.02395113 0.06508009
v 0.02500550 -0.02439599 0.06432109
v 0.02803833 -0.02438930 0.06430635
v 0.02955151 -0.02438261 0.06429161
v 0.03258434 -0.02436254 0.06426214
v 0.03410075 -0.02434415 0.06423266
v 0.03410075 -0.02475555 0.06340733
v 0.03561393 -0.02538771 0.06188933
v 0.03561393 -0.02574895 0.06092399
v 0.03561393 -0.02602155 0.06016499
v 0.03713035 -0.02636272 0.05886068
v 0.03864352 -0.02669385 0.05734267
v 0.04015670 -0.02693133 0.05582467
v 0.05229127 -0.02598308 0.05278865
v 0.05322445 -0.02587104 0.05227282
v 0.05423539 -0.02573724 0.05163172
v 0.05428399 -0.02571049 0.05168331
v 0.04167311 -0.02711195 0.05431403
v 0.04167311 -0.02729089 0.05317184
v 0.04321869 -0.02724741 0.05272970
v 0.04374360 -0.02732601 0.05191174
v 0.04470595 -0.02728420 0.05159488
v 0.04609924 -0.02720560 0.05115274
v 0.04773554 -0.02700826 0.05127801
v 0.04925195 -0.02681259 0.05127801
v 0.05076513 -0.02656006 0.05127801
v 0.05228155 -0.02625568 0.05127801
v 0.04621912 -0.02783776 0.03915606
v 0.04470595 -0.02788793 0.03915606
v 0.04318953 -0.02792974 0.03915606
v 0.04167311 -0.02794480 0.04067406
v 0.04015670 -0.02794814 0.04219207
v 0.03864352 -0.02794480 0.04370271
v 0.03561393 -0.02794480 0.04522072
v 0.03410075 -0.02791637 0.04673873
v 0.03258434 -0.02792305 0.04673873
v 0.03713035 -0.02793142 0.04522072
v 0.03106792 -0.02787790 0.04824937
v 0.02955151 -0.02787957 0.04824937
v 0.02500550 -0.02788125 0.04824937
v 0.02118205 -0.02790800 0.04746089
v 0.02118205 -0.02793142 0.04673873
v 0.05428399 -0.02700659 0.03613478
v 0.05379796 -0.02710693 0.03613478
v 0.05262501 -0.02727751 0.03765279
v 0.05186680 -0.02738956 0.03765279
v 0.05076513 -0.02752503 0.03765279
v 0.04925195 -0.02767387 0.03765279
v 0.04773554 -0.02776083 0.03915606
v 0.02118205 -0.02395113 0.06508009
v 0.02955151 -0.02480238 0.06340733
v 0.02118205 -0.02439599 0.06432109
v 0.02500550 -0.02481910 0.06340733
v 0.02803833 -0.02480907 0.06340733
v 0.03258434 -0.02478064 0.06340733
v 0.03410075 -0.02541782 0.06188933
v 0.03410075 -0.02576400 0.06097557
v 0.03410075 -0.02603994 0.06021657
v 0.03561393 -0.02641623 0.05886068
v 0.03713035 -0.02674904 0.05734267
v 0.03713035 -0.02706846 0.05582467
v 0.03864352 -0.02700993 0.05582467
v 0.04006921 -0.02722734 0.05418139
v 0.05375584 -0.02594462 0.05118958
v 0.05428399 -0.02588274 0.05084324
v 0.05428399 -0.02572721 0.05160962
v 0.04051636 -0.02732267 0.05341501
v 0.04273266 -0.02735779 0.05217703
v 0.04321869 -0.02741130 0.05135907
v 0.04470595 -0.02737117 0.05084324
v 0.04551276 -0.02734441 0.05056322
v 0.04652370 -0.02729089 0.05011371
v 0.04763833 -0.02721898 0.04967158
v 0.04925195 -0.02700826 0.04976737
v 0.05076513 -0.02678416 0.04976737
v 0.05228155 -0.02649985 0.04976737
v 0.04621912 -0.02781435 0.04067406
v 0.04470595 -0.02786954 0.04067406
v 0.04318953 -0.02791135 0.04067406
v 0.04167311 -0.02792138 0.04219207
v 0.04015670 -0.02792305 0.04370271
v 0.03864352 -0.02791135 0.04522072
v 0.03561393 -0.02790633 0.04673873
v 0.03561393 -0.02785616 0.04824937
v 0.03258434 -0.02787121 0.04824937
v 0.03864352 -0.02787121 0.04673873
v 0.03713035 -0.02788961 0.04673873
v 0.03258434 -0.02780766 0.04976737
v 0.02118205 -0.02788125 0.04824937
v 0.05428399 -0.02697648 0.03765279
v 0.05379796 -0.02707850 0.03765279
v 0.05252456 -0.02726581 0.03915606
v 0.05176635 -0.02737284 0.03915606
v 0.05076513 -0.02749827 0.03915606
v 0.04925195 -0.02765046 0.03915606
v 0.04773554 -0.02772906 0.04067406
v 0.02803833 -0.02546966 0.06188933
v 0.02955151 -0.02546130 0.06188933
v 0.02118205 -0.02481910 0.06340733
v 0.02500550 -0.02548137 0.06188933
v 0.02652191 -0.02547635 0.06188933
v 0.03258434 -0.02543956 0.06188933
v 0.03258434 -0.02577905 0.06101242
v 0.03258434 -0.02604496 0.06025342
v 0.03258434 -0.02646473 0.05886068
v 0.03410075 -0.02644801 0.05886068
v 0.03106792 -0.02579076 0.06103453
v 0.02955151 -0.02579912 0.06106400
v 0.03410075 -0.02682764 0.05734267
v 0.03561393 -0.02679252 0.05734267
v 0.03561393 -0.02710693 0.05582467
v 0.03713035 -0.02727584 0.05460142
v 0.03864352 -0.02725076 0.05443930
v 0.03950542 -0.02734273 0.05358450
v 0.05379796 -0.02616203 0.04976737
v 0.05428399 -0.02597305 0.05026846
v 0.04006921 -0.02740294 0.05286234
v 0.04167311 -0.02738120 0.05241283
v 0.04167311 -0.02750161 0.05127801
v 0.04318953 -0.02756015 0.04976737
v 0.04470595 -0.02746649 0.04976737
v 0.04609924 -0.02737618 0.04967158
v 0.04707130 -0.02734943 0.04909680
v 0.04807900 -0.02729089 0.04853675
v 0.04911587 -0.02720393 0.04811672
v 0.05076513 -0.02696310 0.04824937
v 0.05228155 -0.02670556 0.04824937
v 0.05379796 -0.02637610 0.04824937
v 0.04621912 -0.02777923 0.04219207
v 0.04470595 -0.02784445 0.04219207
v 0.04318953 -0.02788793 0.04219207
v 0.04167311 -0.02789295 0.04370271
v 0.04167311 -0.02785950 0.04522072
v 0.04015670 -0.02788793 0.04522072
v 0.03713035 -0.02784111 0.04824937
v 0.03410075 -0.02780097 0.04976737
v 0.04015670 -0.02784612 0.04673873
v 0.03258434 -0.02771233 0.05127801
v 0.02955151 -0.02771735 0.05127801
v 0.02803833 -0.02771902 0.05127801
v 0.02652191 -0.02772070 0.05127801
v 0.02118205 -0.02780766 0.04976737
v 0.05428399 -0.02693802 0.03915606
v 0.05379796 -0.02704171 0.03915606
v 0.05237227 -0.02724072 0.04067406
v 0.05161406 -0.02735110 0.04067406
v 0.05076513 -0.02745646 0.04067406
v 0.04925195 -0.02761366 0.04067406
v 0.04773554 -0.02768892 0.04219207
v 0.02652191 -0.02581250 0.06110085
v 0.02118205 -0.02548137 0.06188933
v 0.02118205 -0.02565697 0.06148403
v 0.02500550 -0.02581584 0.06110822
v 0.02803833 -0.02580748 0.06107874
v 0.02955151 -0.02604496 0.06030500
v 0.03106792 -0.02647309 0.05886068
v 0.03258434 -0.02684437 0.05734267
v 0.03410075 -0.02713536 0.05582467
v 0.03561393 -0.02728922 0.05471932
v 0.03561393 -0.02739793 0.05396769
v 0.03713035 -0.02737786 0.05384241
v 0.03713035 -0.02750830 0.05279602
v 0.03864352 -0.02746482 0.05279602
v 0.05428399 -0.02604496 0.04976737
v 0.04015670 -0.02756851 0.05127801
v 0.04167311 -0.02763708 0.04976737
v 0.04318953 -0.02767387 0.04824937
v 0.04470595 -0.02758858 0.04824937
v 0.04621912 -0.02748154 0.04824937
v 0.04763833 -0.02737451 0.04811672
v 0.04851967 -0.02734273 0.04752721
v 0.04954357 -0.02728253 0.04673873
v 0.05076513 -0.02711027 0.04673873
v 0.05228155 -0.02686443 0.04673873
v 0.05379796 -0.02656173 0.04673873
v 0.05428399 -0.02644299 0.04673873
v 0.05428399 -0.02625568 0.04824200
v 0.05428399 -0.02616036 0.04894205
v 0.04621912 -0.02773240 0.04370271
v 0.04470595 -0.02780599 0.04370271
v 0.04318953 -0.02785783 0.04370271
v 0.04318953 -0.02781602 0.04522072
v 0.04167311 -0.02780766 0.04673873
v 0.03864352 -0.02781602 0.04824937
v 0.03713035 -0.02776585 0.04976737
v 0.03561393 -0.02778592 0.04976737
v 0.03410075 -0.02770230 0.05127801
v 0.04015670 -0.02778090 0.04824937
v 0.03258434 -0.02757687 0.05279602
v 0.02955151 -0.02758523 0.05279602
v 0.02652191 -0.02759025 0.05279602
v 0.02118205 -0.02765882 0.05200754
v 0.02118205 -0.02772070 0.05127801
v 0.05428399 -0.02692129 0.03964241
v 0.05379796 -0.02698652 0.04067406
v 0.05379796 -0.02691293 0.04219207
v 0.05213250 -0.02721731 0.04203732
v 0.05152658 -0.02733939 0.04144044
v 0.05081373 -0.02739793 0.04203732
v 0.04925195 -0.02756349 0.04219207
v 0.04773554 -0.02763373 0.04370271
v 0.02803833 -0.02604496 0.06032711
v 0.02118205 -0.02581584 0.06110822
v 0.02118205 -0.02593626 0.06071029
v 0.02500550 -0.02604496 0.06034921
v 0.02803833 -0.02648480 0.05886068
v 0.03106792 -0.02685273 0.05734267
v 0.03258434 -0.02715041 0.05582467
v 0.03258434 -0.02730594 0.05485933
v 0.03410075 -0.02729758 0.05480038
v 0.03410075 -0.02741465 0.05404874
v 0.03561393 -0.02754008 0.05279602
v 0.03713035 -0.02765882 0.05127801
v 0.03864352 -0.02762203 0.05127801
v 0.04015670 -0.02769226 0.04976737
v 0.04167311 -0.02773575 0.04824937
v 0.04318953 -0.02775414 0.04673873
v 0.04470595 -0.02768390 0.04673873
v 0.04621912 -0.02758690 0.04673873
v 0.04773554 -0.02746482 0.04673873
v 0.04878860 -0.02736949 0.04673873
v 0.04987083 -0.02732434 0.04572918
v 0.05068089 -0.02724406 0.04522072
v 0.05228155 -0.02699488 0.04522072
v 0.05379796 -0.02670890 0.04522072
v 0.05428399 -0.02659518 0.04522072
v 0.04621912 -0.02767220 0.04522072
v 0.04470595 -0.02775414 0.04522072
v 0.03864352 -0.02773407 0.04976737
v 0.03561393 -0.02768223 0.05127801
v 0.03410075 -0.02756349 0.05279602
v 0.03258434 -0.02742301 0.05410033
v 0.02803833 -0.02742134 0.05418876
v 0.02652191 -0.02742134 0.05421086
v 0.02500550 -0.02742134 0.05422560
v 0.02118205 -0.02750998 0.05348133
v 0.02118205 -0.02759025 0.05279602
v 0.05428399 -0.02688283 0.04067406
v 0.05428399 -0.02680590 0.04219207
v 0.05379796 -0.02682597 0.04370271
v 0.05228155 -0.02710191 0.04370271
v 0.05135161 -0.02731932 0.04244999
v 0.05034066 -0.02737786 0.04370271
v 0.04925195 -0.02749660 0.04370271
v 0.04773554 -0.02755847 0.04522072
v 0.02500550 -0.02649149 0.05886068
v 0.02118205 -0.02604496 0.06034921
v 0.02803833 -0.02686276 0.05734267
v 0.02955151 -0.02716044 0.05582467
v 0.02652191 -0.02732601 0.05496986
v 0.02803833 -0.02732267 0.05494776
v 0.04932000 -0.02740796 0.04522072
v 0.05012033 -0.02735277 0.04471963
v 0.05109887 -0.02728587 0.04370271
v 0.05428399 -0.02671559 0.04370271
v 0.02500550 -0.02732768 0.05498460
v 0.02118205 -0.02742134 0.05422560
v 0.02118205 -0.02649149 0.05886068
v 0.02349232 -0.02687112 0.05734267
v 0.02500550 -0.02686945 0.05734267
v 0.02803833 -0.02716379 0.05582467
v 0.02500550 -0.02717048 0.05582467
v 0.02118205 -0.02725243 0.05538990
v 0.02118205 -0.02732768 0.05498460
v 0.02118205 -0.02687112 0.05734267
v 0.02118205 -0.02702833 0.05655419
v 0.02118205 -0.02717048 0.05582467
f 1 2 3
f 1 3 6
f 1 6 16
f 1 16 30
f 1 30 31
f 1 31 53
f 1 53 52
f 1 52 73
f 1 73 97
f 1 97 128
f 1 128 167
f 1 167 166
f 1 166 214
f 1 214 213
f 1 213 212
f 1 212 211
f 1 211 210
f 1 210 274
f 1 274 340
f 1 340 324
f 1 324 394
f 1 394 409
f 1 409 479
f 1 479 545
f 1 545 546
f 1 546 542
f 1 542 615
f 1 615 616
f 1 616 666
f 1 666 665
f 1 665 668
f 1 668 721
f 1 721 770
f 1 770 769
f 1 769 820
f 1 820 868
f 1 868 882
f 1 882 881
f 1 881 880
f 1 880 930
f 1 930 959
f 1 959 943
f 1 943 942
f 1 942 898
f 1 898 847
f 1 847 794
f 1 794 747
f 1 747 691
f 1 691 630
f 1 630 559
f 1 559 496
f 1 496 495
f 1 495 426
f 1 426 357
f 1 357 285
f 1 285 227
f 1 227 226
f 1 226 175
f 1 175 136
f 1 136 100
f 1 100 75
f 1 75 55
f 1 55 32
f 1 32 17
f 1 17 9
f 1 9 4
f 1 4 10
f 1 10 22
f 1 22 21
f 1 21 20
f 1 20 19
f 1 19 18
f 1 18 39
f 1 39 38
f 1 38 37
f 1 37 36
f 1 36 35
f 1 35 34
f 1 34 60
f 1 60 59
f 1 59 78
f 1 78 104
f 1 104 103
f 1 103 102
f 1 102 101
f 1 101 141
f 1 141 184
f 1 184 237
f 1 237 295
f 1 295 367
f 1 367 306
f 1 306 247
f 1 247 246
f 1 246 245
f 1 245 192
f 1 192 149
f 1 149 185
f 1 185 143
f 1 143 142
f 1 142 106
f 1 106 105
f 1 105 79
f 1 79 63
f 1 63 42
f 1 42 41
f 1 41 40
f 1 40 23
f 1 23 13
f 1 13 5
f 1 5 2
f 2 5 3
f 3 5 7
f 3 7 8
f 3 8 6
f 4 9 10
f 5 11 12
f 5 12 8
f 5 8 7
f 5 13 11
f 6 8 12
f 6 12 14
f 6 14 15
f 6 15 16
f 9 17 18
f 9 18 19
f 9 19 20
f 9 20 21
f 9 21 22
f 9 22 10
f 11 13 12
f 12 13 23
f 12 23 24
f 12 24 25
f 12 25 26
f 12 26 27
f 12 27 28
f 12 28 14
f 14 28 29
f 14 29 15
f 15 30 16
f 15 29 31
f 15 31 30
f 17 32 33
f 17 33 34
f 17 34 35
f 17 35 36
f 17 36 37
f 17 37 38
f 17 38 39
f 17 39 18
f 23 40 24
f 24 40 41
f 24 41 42
f 24 42 43
f 24 43 44
f 24 44 25
f 25 45 26
f 25 44 45
f 26 45 46
f 26 46 47
f 26 47 48
f 26 48 49
f 26 49 50
f 26 50 27
f 27 50 28
f 28 50 51
f 28 51 52
f 28 52 53
f 28 53 54
f 28 54 29
f 29 54 31
f 31 54 53
f 32 55 56
f 32 56 57
f 32 57 33
f 33 58 59
f 33 59 60
f 33 60 34
f 33 57 61
f 33 61 76
f 33 76 56
f 33 56 74
f 33 74 98
f 33 98 133
f 33 133 173
f 33 173 225
f 33 225 284
f 33 284 356
f 33 356 425
f 33 425 494
f 33 494 558
f 33 558 629
f 33 629 628
f 33 628 690
f 33 690 746
f 33 746 745
f 33 745 793
f 33 793 846
f 33 846 897
f 33 897 896
f 33 896 941
f 33 941 940
f 33 940 961
f 33 961 968
f 33 968 967
f 33 967 971
f 33 971 970
f 33 970 969
f 33 969 962
f 33 962 951
f 33 951 908
f 33 908 907
f 33 907 856
f 33 856 855
f 33 855 803
f 33 803 756
f 33 756 754
f 33 754 704
f 33 704 646
f 33 646 645
f 33 645 644
f 33 644 643
f 33 643 642
f 33 642 702
f 33 702 701
f 33 701 703
f 33 703 640
f 33 640 638
f 33 638 577
f 33 577 576
f 33 576 575
f 33 575 574
f 33 574 572
f 33 572 504
f 33 504 503
f 33 503 439
f 33 439 365
f 33 365 294
f 33 294 236
f 33 236 183
f 33 183 141
f 33 141 101
f 33 101 77
f 33 77 58
f 42 62 44
f 42 44 43
f 42 63 62
f 44 62 64
f 44 64 46
f 44 46 45
f 46 64 65
f 46 65 66
f 46 66 47
f 47 66 67
f 47 67 48
f 48 67 68
f 48 68 49
f 49 69 70
f 49 70 71
f 49 71 51
f 49 51 50
f 49 68 69
f 51 71 72
f 51 72 52
f 52 72 73
f 55 74 56
f 55 75 74
f 56 76 57
f 57 76 61
f 58 77 78
f 58 78 59
f 62 63 79
f 62 79 80
f 62 80 64
f 64 80 81
f 64 81 65
f 65 81 82
f 65 82 83
f 65 83 66
f 66 83 84
f 66 84 85
f 66 85 67
f 67 85 68
f 68 85 84
f 68 84 86
f 68 86 87
f 68 87 69
f 69 87 88
f 69 88 70
f 70 88 89
f 70 89 90
f 70 90 91
f 70 91 92
f 70 92 93
f 70 93 71
f 71 93 94
f 71 94 95
f 71 95 72
f 72 95 94
f 72 94 96
f 72 96 73
f 73 96 97
f 74 75 99
f 74 99 98
f 75 100 99
f 77 101 102
f 77 102 103
f 77 103 104
f 77 104 78
f 79 105 80
f 80 105 106
f 80 106 107
f 80 107 81
f 81 107 108
f 81 108 82
f 82 109 84
f 82 84 83
f 82 108 110
f 82 110 111
f 82 111 109
f 84 109 112
f 84 112 113
f 84 113 114
f 84 114 115
f 84 115 116
f 84 116 117
f 84 117 86
f 86 117 87
f 87 117 118
f 87 118 88
f 88 118 119
f 88 119 89
f 89 119 120
f 89 120 90
f 90 121 91
f 90 120 122
f 90 122 123
f 90 123 124
f 90 124 121
f 91 121 92
f 92 121 125
f 92 125 126
f 92 126 93
f 93 126 94
f 94 126 97
f 94 97 96
f 97 126 125
f 97 125 127
f 97 127 128
f 98 99 129
f 98 129 130
f 98 130 131
f 98 131 132
f 98 132 133
f 99 100 134
f 99 134 135
f 99 135 129
f 100 136 137
f 100 137 138
f 100 138 139
f 100 139 140
f 100 140 135
f 100 135 134
f 106 142 107
f 107 142 143
f 107 143 144
f 107 144 108
f 108 144 145
f 108 145 110
f 109 111 112
f 110 146 147
f 110 147 111
f 110 145 144
f 110 144 148
f 110 148 149
f 110 149 146
f 111 147 112
f 112 147 150
f 112 150 113
f 113 151 153
f 113 153 114
f 113 150 151
f 114 152 115
f 114 153 152
f 115 152 116
f 116 152 154
f 116 154 155
f 116 155 117
f 117 155 156
f 117 156 118
f 118 156 119
f 119 157 158
f 119 158 120
f 119 156 157
f 120 158 122
f 121 124 125
f 122 158 159
f 122 159 160
f 122 160 123
f 123 161 162
f 123 162 124
f 123 160 163
f 123 163 161
f 124 162 127
f 124 127 125
f 127 162 164
f 127 164 165
f 127 165 166
f 127 166 167
f 127 167 128
f 129 135 168
f 129 168 169
f 129 169 130
f 130 169 170
f 130 170 131
f 131 170 171
f 131 171 132
f 132 172 133
f 132 171 172
f 133 172 173
f 135 140 174
f 135 174 168
f 136 175 137
f 137 175 176
f 137 176 177
f 137 177 178
f 137 178 179
f 137 179 180
f 137 180 138
f 138 180 181
f 138 181 139
f 139 181 182
f 139 182 140
f 140 182 174
f 141 183 235
f 141 235 184
f 143 185 144
f 144 185 148
f 146 186 187
f 146 187 147
f 146 149 188
f 146 188 189
f 146 189 190
f 146 190 186
f 147 187 191
f 147 191 150
f 148 185 149
f 149 192 188
f 150 191 151
f 151 193 194
f 151 194 153
f 151 191 193
f 152 153 194
f 152 194 195
f 152 195 196
f 152 196 154
f 154 196 197
f 154 197 198
f 154 198 155
f 155 198 156
f 156 198 199
f 156 199 200
f 156 200 157
f 157 200 201
f 157 201 158
f 158 201 202
f 158 202 203
f 158 203 159
f 159 203 204
f 159 204 163
f 159 163 160
f 161 163 205
f 161 205 164
f 161 164 162
f 163 206 207
f 163 207 208
f 163 208 209
f 163 209 205
f 163 204 206
f 164 205 210
f 164 210 211
f 164 211 212
f 164 212 213
f 164 213 165
f 165 214 166
f 165 213 214
f 168 174 215
f 168 215 216
f 168 216 169
f 169 216 217
f 169 217 218
f 169 218 170
f 170 218 171
f 171 219 172
f 171 218 220
f 171 220 221
f 171 221 219
f 172 219 222
f 172 222 173
f 173 222 223
f 173 223 224
f 173 224 225
f 174 182 215
f 175 226 176
f 176 226 227
f 176 227 228
f 176 228 177
f 177 228 229
f 177 229 288
f 177 288 230
f 177 230 178
f 178 230 231
f 178 231 179
f 179 231 180
f 180 231 232
f 180 232 181
f 181 232 233
f 181 233 234
f 181 234 182
f 182 234 215
f 183 236 235
f 184 235 238
f 184 238 239
f 184 239 237
f 186 240 241
f 186 241 187
f 186 190 242
f 186 242 243
f 186 243 240
f 187 241 244
f 187 244 191
f 188 192 245
f 188 245 189
f 189 245 246
f 189 246 190
f 190 246 247
f 190 247 242
f 191 244 248
f 191 248 193
f 193 248 249
f 193 249 194
f 194 250 195
f 194 249 251
f 194 251 250
f 195 250 196
f 196 250 252
f 196 252 253
f 196 253 197
f 197 253 254
f 197 254 198
f 198 254 199
f 199 254 255
f 199 255 256
f 199 256 257
f 199 257 201
f 199 201 200
f 201 257 202
f 202 258 259
f 202 259 260
f 202 260 261
f 202 261 203
f 202 257 256
f 202 256 262
f 202 262 258
f 203 261 263
f 203 263 206
f 203 206 204
f 205 209 264
f 205 264 210
f 206 263 207
f 207 265 208
f 207 263 261
f 207 261 266
f 207 266 260
f 207 260 267
f 207 267 268
f 207 268 269
f 207 269 270
f 207 270 271
f 207 271 265
f 208 265 272
f 208 272 209
f 209 272 273
f 209 273 264
f 210 264 274
f 215 234 275
f 215 275 276
f 215 276 216
f 216 276 342
f 216 342 277
f 216 277 217
f 217 277 343
f 217 343 278
f 217 278 218
f 218 278 279
f 218 279 280
f 218 280 281
f 218 281 220
f 219 221 222
f 220 281 221
f 221 281 282
f 221 282 283
f 221 283 223
f 221 223 222
f 223 283 224
f 224 283 284
f 224 284 225
f 227 285 286
f 227 286 228
f 228 286 229
f 229 286 287
f 229 287 288
f 230 288 231
f 231 288 289
f 231 289 232
f 232 289 290
f 232 290 233
f 233 290 291
f 233 291 234
f 234 291 292
f 234 292 275
f 235 236 293
f 235 293 296
f 235 296 238
f 236 294 293
f 237 239 295
f 238 296 239
f 239 296 297
f 239 297 371
f 239 371 298
f 239 298 295
f 240 243 299
f 240 299 300
f 240 300 301
f 240 301 244
f 240 244 241
f 242 302 303
f 242 303 243
f 242 247 304
f 242 304 302
f 243 303 305
f 243 305 299
f 244 301 248
f 247 306 304
f 248 307 249
f 248 301 308
f 248 308 307
f 249 307 309
f 249 309 251
f 250 251 252
f 251 309 310
f 251 310 311
f 251 311 312
f 251 312 253
f 251 253 252
f 253 313 314
f 253 314 315
f 253 315 316
f 253 316 255
f 253 255 254
f 253 312 313
f 255 316 317
f 255 317 256
f 256 317 262
f 258 318 319
f 258 319 259
f 258 262 318
f 259 319 320
f 259 320 260
f 260 320 392
f 260 392 321
f 260 321 267
f 260 266 261
f 262 317 318
f 264 322 274
f 264 273 323
f 264 323 324
f 264 324 322
f 265 271 325
f 265 325 272
f 267 321 268
f 268 321 326
f 268 326 269
f 269 326 270
f 270 327 328
f 270 328 325
f 270 325 271
f 270 326 329
f 270 329 330
f 270 330 331
f 270 331 332
f 270 332 333
f 270 333 334
f 270 334 335
f 270 335 336
f 270 336 327
f 272 325 273
f 273 328 337
f 273 337 338
f 273 338 339
f 273 339 323
f 273 325 328
f 274 322 340
f 275 292 341
f 275 341 276
f 276 341 342
f 277 342 343
f 278 343 344
f 278 344 279
f 279 345 280
f 279 344 346
f 279 346 415
f 279 415 347
f 279 347 348
f 279 348 345
f 280 345 349
f 280 349 282
f 280 282 281
f 282 349 283
f 283 350 351
f 283 351 352
f 283 352 284
f 283 349 353
f 283 353 354
f 283 354 350
f 284 352 355
f 284 355 356
f 285 357 286
f 286 357 426
f 286 426 358
f 286 358 359
f 286 359 287
f 287 360 288
f 287 359 360
f 288 360 361
f 288 361 289
f 289 361 290
f 290 361 362
f 290 362 292
f 290 292 291
f 292 362 363
f 292 363 364
f 292 364 341
f 293 294 365
f 293 365 366
f 293 366 296
f 295 298 368
f 295 368 367
f 296 366 297
f 297 366 369
f 297 369 370
f 297 370 371
f 298 371 368
f 299 305 372
f 299 372 300
f 300 372 373
f 300 373 374
f 300 374 308
f 300 308 301
f 302 371 303
f 302 304 368
f 302 368 371
f 303 370 305
f 303 371 370
f 304 306 367
f 304 367 368
f 305 375 372
f 305 370 375
f 307 308 374
f 307 374 376
f 307 376 310
f 307 310 309
f 310 376 377
f 310 377 311
f 311 378 379
f 311 379 312
f 311 377 378
f 312 379 380
f 312 380 381
f 312 381 382
f 312 382 383
f 312 383 313
f 313 383 384
f 313 384 385
f 313 385 314
f 314 385 386
f 314 386 315
f 315 386 387
f 315 387 316
f 316 387 317
f 317 387 318
f 318 387 388
f 318 388 389
f 318 389 319
f 319 389 320
f 320 390 391
f 320 391 392
f 320 389 390
f 321 392 393
f 321 393 326
f 322 324 340
f 323 339 338
f 323 338 324
f 324 338 394
f 326 393 395
f 326 395 396
f 326 396 397
f 326 397 398
f 326 398 399
f 326 399 400
f 326 400 329
f 327 336 328
f 328 336 337
f 329 400 330
f 330 399 401
f 330 401 331
f 330 400 399
f 331 401 332
f 332 402 333
f 332 401 403
f 332 403 404
f 332 404 402
f 333 402 334
f 334 402 405
f 334 405 335
f 335 405 406
f 335 406 407
f 335 407 408
f 335 408 336
f 336 408 337
f 337 408 338
f 338 409 394
f 338 408 410
f 338 410 409
f 341 411 342
f 341 364 412
f 341 412 413
f 341 413 411
f 342 411 343
f 343 411 344
f 344 411 413
f 344 413 346
f 345 348 349
f 346 413 414
f 346 414 415
f 347 415 482
f 347 482 416
f 347 416 421
f 347 421 417
f 347 417 348
f 348 417 349
f 349 417 353
f 350 354 351
f 351 354 418
f 351 418 419
f 351 419 352
f 352 419 420
f 352 420 355
f 353 417 421
f 353 421 422
f 353 422 354
f 354 422 423
f 354 423 418
f 355 420 424
f 355 424 425
f 355 425 356
f 358 426 427
f 358 427 359
f 359 427 428
f 359 428 429
f 359 429 430
f 359 430 431
f 359 431 432
f 359 432 360
f 360 432 361
f 361 432 433
f 361 433 363
f 361 363 362
f 363 433 434
f 363 434 435
f 363 435 436
f 363 436 364
f 364 436 501
f 364 501 437
f 364 437 480
f 364 480 438
f 364 438 412
f 365 439 366
f 366 439 503
f 366 503 440
f 366 440 441
f 366 441 369
f 369 441 375
f 369 375 370
f 372 442 443
f 372 443 373
f 372 375 442
f 373 443 444
f 373 444 445
f 373 445 376
f 373 376 374
f 375 441 446
f 375 446 442
f 376 445 377
f 377 445 444
f 377 444 447
f 377 447 378
f 378 448 449
f 378 449 450
f 378 450 379
f 378 447 448
f 379 450 451
f 379 451 380
f 380 451 382
f 380 382 381
f 382 451 452
f 382 452 453
f 382 453 454
f 382 454 455
f 382 455 456
f 382 456 457
f 382 457 383
f 383 457 384
f 384 457 458
f 384 458 385
f 385 458 459
f 385 459 386
f 386 459 460
f 386 460 388
f 386 388 387
f 388 460 461
f 388 461 462
f 388 462 463
f 388 463 390
f 388 390 389
f 390 464 391
f 390 463 464
f 391 464 395
f 391 395 392
f 392 395 393
f 395 464 465
f 395 465 396
f 396 466 467
f 396 467 397
f 396 465 466
f 397 467 468
f 397 468 398
f 398 468 399
f 399 468 469
f 399 469 401
f 401 469 403
f 402 404 470
f 402 470 471
f 402 471 405
f 403 472 473
f 403 473 474
f 403 474 404
f 403 469 475
f 403 475 472
f 404 474 470
f 405 471 406
f 406 476 407
f 406 471 477
f 406 477 476
f 407 478 410
f 407 410 408
f 407 476 478
f 409 410 479
f 410 478 479
f 412 438 413
f 413 438 480
f 413 480 414
f 414 480 481
f 414 481 482
f 414 482 415
f 416 482 550
f 416 550 483
f 416 483 484
f 416 484 485
f 416 485 421
f 418 423 419
f 419 486 491
f 419 491 487
f 419 487 420
f 419 423 486
f 420 487 553
f 420 553 492
f 420 492 488
f 420 488 424
f 421 485 422
f 422 485 489
f 422 489 423
f 423 489 490
f 423 490 491
f 423 491 486
f 424 488 492
f 424 492 493
f 424 493 494
f 424 494 425
f 426 495 427
f 427 495 428
f 428 495 496
f 428 496 559
f 428 559 497
f 428 497 562
f 428 562 498
f 428 498 429
f 429 498 499
f 429 499 430
f 430 499 435
f 430 435 431
f 431 434 433
f 431 433 432
f 431 435 434
f 435 499 563
f 435 563 500
f 435 500 564
f 435 564 501
f 435 501 436
f 437 501 564
f 437 564 502
f 437 502 480
f 440 503 504
f 440 504 441
f 441 504 446
f 442 446 505
f 442 505 443
f 443 505 506
f 443 506 447
f 443 447 444
f 446 507 505
f 446 504 507
f 447 506 508
f 447 508 448
f 448 509 510
f 448 510 449
f 448 508 509
f 449 510 511
f 449 511 512
f 449 512 450
f 450 512 451
f 451 512 452
f 452 512 511
f 452 511 453
f 453 513 454
f 453 511 514
f 453 514 515
f 453 515 513
f 454 513 516
f 454 516 517
f 454 517 455
f 455 517 518
f 455 518 519
f 455 519 456
f 456 519 520
f 456 520 458
f 456 458 457
f 458 520 521
f 458 521 459
f 459 521 461
f 459 461 460
f 461 521 522
f 461 522 523
f 461 523 462
f 462 523 463
f 463 523 464
f 464 523 524
f 464 524 465
f 465 524 525
f 465 525 526
f 465 526 466
f 466 526 467
f 467 526 527
f 467 527 528
f 467 528 529
f 467 529 468
f 468 529 530
f 468 530 531
f 468 531 469
f 469 531 475
f 470 474 532
f 470 532 471
f 471 532 533
f 471 533 534
f 471 534 477
f 472 475 535
f 472 535 536
f 472 536 537
f 472 537 473
f 473 537 538
f 473 538 474
f 474 538 539
f 474 539 532
f 475 531 540
f 475 540 535
f 476 477 541
f 476 541 542
f 476 542 543
f 476 543 478
f 477 534 544
f 477 544 541
f 478 545 479
f 478 543 546
f 478 546 545
f 480 547 481
f 480 502 547
f 481 547 548
f 481 548 482
f 482 548 549
f 482 549 550
f 483 550 619
f 483 619 551
f 483 551 552
f 483 552 484
f 484 552 489
f 484 489 485
f 487 491 556
f 487 556 553
f 489 552 554
f 489 554 490
f 490 554 555
f 490 555 556
f 490 556 491
f 492 553 557
f 492 557 493
f 493 557 494
f 494 557 558
f 497 559 560
f 497 560 561
f 497 561 562
f 498 562 563
f 498 563 499
f 500 563 565
f 500 565 566
f 500 566 567
f 500 567 568
f 500 568 569
f 500 569 570
f 500 570 564
f 502 569 571
f 502 571 547
f 502 564 570
f 502 570 569
f 504 572 573
f 504 573 507
f 505 574 506
f 505 507 573
f 505 573 572
f 505 572 574
f 506 574 575
f 506 575 576
f 506 576 577
f 506 577 578
f 506 578 579
f 506 579 508
f 508 579 509
f 509 580 510
f 509 579 580
f 510 515 514
f 510 514 511
f 510 580 515
f 513 581 516
f 513 515 583
f 513 583 581
f 515 580 582
f 515 582 583
f 516 581 639
f 516 639 584
f 516 584 585
f 516 585 586
f 516 586 517
f 517 586 587
f 517 587 588
f 517 588 518
f 518 588 589
f 518 589 590
f 518 590 519
f 519 590 591
f 519 591 520
f 520 591 521
f 521 591 592
f 521 592 593
f 521 593 594
f 521 594 522
f 522 594 595
f 522 595 524
f 522 524 523
f 524 595 596
f 524 596 597
f 524 597 525
f 525 597 527
f 525 527 526
f 527 597 598
f 527 598 528
f 528 599 600
f 528 600 530
f 528 530 529
f 528 598 601
f 528 601 599
f 530 600 602
f 530 602 603
f 530 603 604
f 530 604 531
f 531 604 540
f 532 539 605
f 532 605 533
f 533 605 606
f 533 606 534
f 534 606 607
f 534 607 608
f 534 608 544
f 535 609 536
f 535 540 609
f 536 609 610
f 536 610 611
f 536 611 612
f 536 612 537
f 537 612 613
f 537 613 538
f 538 613 539
f 539 613 614
f 539 614 605
f 540 604 609
f 541 544 542
f 542 546 543
f 542 544 615
f 544 616 615
f 544 608 616
f 547 571 617
f 547 617 549
f 547 549 548
f 549 617 618
f 549 618 619
f 549 619 550
f 551 619 620
f 551 620 552
f 552 620 679
f 552 679 621
f 552 621 622
f 552 622 554
f 553 623 682
f 553 682 624
f 553 624 625
f 553 625 557
f 553 556 555
f 553 555 623
f 554 622 555
f 555 622 626
f 555 626 623
f 557 625 627
f 557 627 628
f 557 628 629
f 557 629 558
f 559 630 560
f 560 630 631
f 560 631 561
f 561 631 632
f 561 632 567
f 561 567 566
f 561 566 565
f 561 565 563
f 561 563 562
f 567 633 634
f 567 634 568
f 567 632 633
f 568 634 569
f 569 634 635
f 569 635 571
f 571 636 617
f 571 635 637
f 571 637 676
f 571 676 636
f 577 638 579
f 577 579 578
f 579 638 640
f 579 640 582
f 579 582 580
f 581 583 641
f 581 641 639
f 582 640 703
f 582 703 641
f 582 641 583
f 584 642 643
f 584 643 585
f 584 639 702
f 584 702 642
f 585 644 645
f 585 645 587
f 585 587 586
f 585 643 644
f 587 645 646
f 587 646 704
f 587 704 647
f 587 647 648
f 587 648 588
f 588 648 649
f 588 649 589
f 589 649 650
f 589 650 590
f 590 650 651
f 590 651 591
f 591 651 652
f 591 652 593
f 591 593 592
f 593 652 653
f 593 653 594
f 594 653 654
f 594 654 595
f 595 654 596
f 596 654 653
f 596 653 655
f 596 655 656
f 596 656 597
f 597 656 598
f 598 656 601
f 599 601 657
f 599 657 658
f 599 658 600
f 600 658 602
f 601 656 659
f 601 659 657
f 602 658 660
f 602 660 661
f 602 661 603
f 603 661 604
f 604 661 609
f 605 614 662
f 605 662 663
f 605 663 606
f 606 663 607
f 607 663 664
f 607 664 608
f 608 665 666
f 608 666 616
f 608 664 667
f 608 667 668
f 608 668 665
f 609 661 610
f 610 661 669
f 610 669 670
f 610 670 611
f 611 670 671
f 611 671 672
f 611 672 612
f 612 672 673
f 612 673 613
f 613 673 674
f 613 674 614
f 614 674 675
f 614 675 662
f 617 636 618
f 618 636 676
f 618 676 677
f 618 677 678
f 618 678 619
f 619 678 620
f 620 678 679
f 621 679 680
f 621 680 622
f 622 680 681
f 622 681 626
f 623 626 682
f 624 682 683
f 624 683 625
f 625 684 627
f 625 683 685
f 625 685 684
f 626 681 686
f 626 686 682
f 627 684 687
f 627 687 688
f 627 688 689
f 627 689 690
f 627 690 628
f 630 691 692
f 630 692 631
f 631 692 632
f 632 692 693
f 632 693 633
f 633 694 634
f 633 693 695
f 633 695 696
f 633 696 697
f 633 697 698
f 633 698 694
f 634 694 635
f 635 694 699
f 635 699 637
f 637 699 700
f 637 700 676
f 639 641 701
f 639 701 702
f 641 703 701
f 647 704 754
f 647 754 705
f 647 705 648
f 648 705 650
f 648 650 649
f 650 705 706
f 650 706 707
f 650 707 651
f 651 707 708
f 651 708 709
f 651 709 652
f 652 709 710
f 652 710 653
f 653 710 655
f 655 710 711
f 655 711 712
f 655 712 656
f 656 712 713
f 656 713 659
f 657 714 715
f 657 715 658
f 657 659 714
f 658 715 716
f 658 716 660
f 659 713 714
f 660 716 717
f 660 717 669
f 660 669 661
f 662 675 663
f 663 675 718
f 663 718 664
f 664 718 719
f 664 719 720
f 664 720 667
f 667 720 668
f 668 720 721
f 669 717 722
f 669 722 670
f 670 722 723
f 670 723 724
f 670 724 671
f 671 724 725
f 671 725 726
f 671 726 672
f 672 726 727
f 672 727 728
f 672 728 673
f 673 728 729
f 673 729 674
f 674 729 730
f 674 730 675
f 675 730 731
f 675 731 718
f 676 700 732
f 676 732 677
f 677 732 733
f 677 733 734
f 677 734 678
f 678 734 735
f 678 735 679
f 679 735 680
f 680 735 736
f 680 736 681
f 681 736 737
f 681 737 686
f 682 686 738
f 682 738 683
f 683 738 739
f 683 739 740
f 683 740 687
f 683 687 685
f 684 685 687
f 686 737 741
f 686 741 738
f 687 740 742
f 687 742 743
f 687 743 688
f 688 743 744
f 688 744 689
f 689 744 745
f 689 745 746
f 689 746 690
f 691 747 748
f 691 748 692
f 692 695 693
f 692 748 696
f 692 696 695
f 694 698 699
f 696 748 749
f 696 749 697
f 697 749 750
f 697 750 751
f 697 751 698
f 698 751 752
f 698 752 699
f 699 752 700
f 700 752 753
f 700 753 732
f 705 754 756
f 705 756 706
f 706 755 707
f 706 756 803
f 706 803 757
f 706 757 758
f 706 758 755
f 707 755 759
f 707 759 708
f 708 759 709
f 709 759 711
f 709 711 710
f 711 759 760
f 711 760 712
f 712 760 761
f 712 761 713
f 713 761 762
f 713 762 714
f 714 762 763
f 714 763 715
f 715 763 764
f 715 764 716
f 716 764 765
f 716 765 766
f 716 766 717
f 717 766 767
f 717 767 722
f 718 731 719
f 719 731 768
f 719 768 769
f 719 769 720
f 720 770 721
f 720 769 770
f 722 767 771
f 722 771 723
f 723 771 772
f 723 772 725
f 723 725 724
f 725 772 773
f 725 773 774
f 725 774 775
f 725 775 726
f 726 775 727
f 727 775 776
f 727 776 728
f 728 776 777
f 728 777 778
f 728 778 729
f 729 778 779
f 729 779 730
f 730 779 780
f 730 780 731
f 731 780 768
f 732 753 781
f 732 781 782
f 732 782 733
f 733 782 783
f 733 783 734
f 734 783 735
f 735 783 835
f 735 835 784
f 735 784 736
f 736 784 785
f 736 785 737
f 737 785 786
f 737 786 741
f 738 741 787
f 738 787 739
f 739 787 788
f 739 788 789
f 739 789 742
f 739 742 740
f 741 786 790
f 741 790 791
f 741 791 787
f 742 789 840
f 742 840 792
f 742 792 743
f 743 792 744
f 744 793 745
f 744 792 846
f 744 846 793
f 747 794 795
f 747 795 748
f 748 795 749
f 749 795 796
f 749 796 750
f 750 796 797
f 750 797 798
f 750 798 751
f 751 798 799
f 751 799 752
f 752 799 753
f 753 799 800
f 753 800 781
f 755 758 801
f 755 801 802
f 755 802 806
f 755 806 759
f 757 803 855
f 757 855 804
f 757 804 805
f 757 805 758
f 758 805 801
f 759 806 760
f 760 806 807
f 760 807 761
f 761 807 762
f 762 808 809
f 762 809 810
f 762 810 763
f 762 807 811
f 762 811 812
f 762 812 808
f 763 810 813
f 763 813 814
f 763 814 764
f 764 814 765
f 765 814 815
f 765 815 816
f 765 816 817
f 765 817 766
f 766 817 767
f 767 817 818
f 767 818 771
f 768 780 769
f 769 780 819
f 769 819 820
f 771 818 821
f 771 821 822
f 771 822 772
f 772 822 823
f 772 823 773
f 773 823 824
f 773 824 774
f 774 824 825
f 774 825 775
f 775 825 826
f 775 826 827
f 775 827 776
f 776 827 777
f 777 827 828
f 777 828 778
f 778 828 829
f 778 829 830
f 778 830 779
f 779 830 831
f 779 831 780
f 780 831 832
f 780 832 819
f 781 800 833
f 781 833 834
f 781 834 782
f 782 834 835
f 782 835 783
f 784 835 836
f 784 836 785
f 785 836 837
f 785 837 838
f 785 838 786
f 786 838 790
f 787 791 839
f 787 839 788
f 788 839 840
f 788 840 789
f 790 841 888
f 790 888 839
f 790 839 791
f 790 838 841
f 792 840 842
f 792 842 843
f 792 843 844
f 792 844 845
f 792 845 897
f 792 897 846
f 794 847 848
f 794 848 795
f 795 848 796
f 796 848 849
f 796 849 850
f 796 850 797
f 797 850 798
f 798 850 851
f 798 851 852
f 798 852 799
f 799 852 800
f 800 852 853
f 800 853 833
f 801 805 854
f 801 854 802
f 802 854 806
f 804 855 856
f 804 856 857
f 804 857 805
f 805 857 854
f 806 854 858
f 806 858 812
f 806 812 811
f 806 811 807
f 808 859 860
f 808 860 809
f 808 812 858
f 808 858 854
f 808 854 859
f 809 860 911
f 809 911 861
f 809 861 813
f 809 813 810
f 813 861 862
f 813 862 815
f 813 815 814
f 815 862 863
f 815 863 816
f 816 863 864
f 816 864 865
f 816 865 818
f 816 818 817
f 818 865 866
f 818 866 867
f 818 867 821
f 819 868 820
f 819 832 868
f 821 867 869
f 821 869 822
f 822 869 823
f 823 869 870
f 823 870 824
f 824 870 871
f 824 871 872
f 824 872 825
f 825 872 826
f 826 872 873
f 826 873 827
f 827 873 874
f 827 874 875
f 827 875 828
f 828 875 829
f 829 875 876
f 829 876 830
f 830 876 877
f 830 877 878
f 830 878 831
f 831 878 879
f 831 879 832
f 832 879 880
f 832 880 881
f 832 881 882
f 832 882 868
f 833 853 883
f 833 883 884
f 833 884 834
f 834 884 885
f 834 885 835
f 835 885 836
f 836 885 837
f 837 885 886
f 837 886 887
f 837 887 841
f 837 841 838
f 839 888 889
f 839 889 890
f 839 890 840
f 840 890 891
f 840 891 842
f 841 887 892
f 841 892 888
f 842 891 893
f 842 893 894
f 842 894 895
f 842 895 843
f 843 895 844
f 844 895 845
f 845 895 896
f 845 896 897
f 847 898 848
f 848 898 899
f 848 899 849
f 849 899 900
f 849 900 901
f 849 901 902
f 849 902 850
f 850 902 851
f 851 902 903
f 851 903 904
f 851 904 852
f 852 904 853
f 853 904 905
f 853 905 883
f 854 857 906
f 854 906 859
f 856 907 857
f 857 907 908
f 857 908 909
f 857 909 906
f 859 906 860
f 860 906 910
f 860 910 911
f 861 911 912
f 861 912 862
f 862 912 913
f 862 913 914
f 862 914 863
f 863 914 915
f 863 915 864
f 864 916 866
f 864 866 865
f 864 915 916
f 866 916 917
f 866 917 918
f 866 918 867
f 867 918 869
f 869 918 919
f 869 919 870
f 870 919 920
f 870 920 871
f 871 920 921
f 871 921 922
f 871 922 872
f 872 922 923
f 872 923 873
f 873 923 924
f 873 924 874
f 874 924 875
f 875 924 925
f 875 925 926
f 875 926 876
f 876 926 877
f 877 926 927
f 877 927 928
f 877 928 878
f 878 928 929
f 878 929 879
f 879 929 930
f 879 930 880
f 883 905 931
f 883 931 932
f 883 932 884
f 884 932 886
f 884 886 885
f 886 932 921
f 886 921 887
f 887 921 920
f 887 920 892
f 888 892 933
f 888 933 889
f 889 933 917
f 889 917 934
f 889 934 891
f 889 891 890
f 891 934 935
f 891 935 893
f 892 920 919
f 892 919 933
f 893 935 936
f 893 936 894
f 894 936 937
f 894 937 938
f 894 938 895
f 895 938 939
f 895 939 940
f 895 940 941
f 895 941 896
f 898 942 899
f 899 942 900
f 900 942 943
f 900 943 944
f 900 944 945
f 900 945 901
f 901 945 946
f 901 946 902
f 902 946 903
f 903 946 947
f 903 947 904
f 904 947 948
f 904 948 905
f 905 948 949
f 905 949 931
f 906 909 950
f 906 950 910
f 908 951 909
f 909 951 962
f 909 962 950
f 910 950 964
f 910 964 952
f 910 952 911
f 911 952 912
f 912 952 953
f 912 953 954
f 912 954 955
f 912 955 913
f 913 955 936
f 913 936 915
f 913 915 914
f 915 936 935
f 915 935 916
f 916 935 917
f 917 933 918
f 917 935 934
f 918 933 919
f 921 932 922
f 922 932 931
f 922 931 923
f 923 931 949
f 923 949 924
f 924 949 925
f 925 949 956
f 925 956 926
f 926 956 948
f 926 948 957
f 926 957 958
f 926 958 927
f 927 958 945
f 927 945 928
f 928 945 944
f 928 944 929
f 929 944 959
f 929 959 930
f 936 955 954
f 936 954 960
f 936 960 937
f 937 960 938
f 938 960 939
f 939 961 940
f 939 960 968
f 939 968 961
f 943 959 944
f 945 958 946
f 946 958 957
f 946 957 947
f 947 957 948
f 948 956 949
f 950 962 969
f 950 969 963
f 950 963 964
f 952 964 966
f 952 966 965
f 952 965 953
f 953 965 960
f 953 960 954
f 960 965 966
f 960 966 967
f 960 967 968
f 963 969 970
f 963 970 966
f 963 966 964
f 966 971 967
f 966 970 971

