# https://github.com/mikedh/trimesh
v 0.00075239 -0.03341941 -0.03616103
v 0.00226644 -0.03342060 -0.03616103
v 0.00689678 -0.03607124 -0.04217617
v -0.00075430 -0.03341941 -0.03616103
v 0.00273682 -0.03342179 -0.03616103
v 0.00377681 -0.03365410 -0.03667275
v 0.00377681 -0.03344085 -0.03616103
v 0.00610668 -0.03508723 -0.03988317
v 0.00838143 -0.03628329 -0.04217617
v -0.00679947 -0.03607124 -0.04217617
v -0.00226468 -0.03342060 -0.03616103
v 0.00512549 -0.03422473 -0.03616103
v 0.00925972 -0.03655014 -0.04217617
v -0.00831352 -0.03627853 -0.04217617
v -0.00679947 -0.03604265 -0.04211022
v -0.00377872 -0.03365410 -0.03667275
v -0.00377872 -0.03344085 -0.03616103
v 0.00925237 -0.03655133 -0.04211022
v 0.01318081 -0.04558971 -0.03616103
v 0.01876661 -0.04558971 -0.04217617
v -0.00925796 -0.03655014 -0.04217617
v -0.00426381 -0.03354092 -0.03616103
v -0.00610859 -0.03508723 -0.03988317
v -0.01317170 -0.04558971 -0.03616103
v -0.01877588 -0.04558971 -0.04217617
v -0.00928001 -0.03656563 -0.04217617
v -0.00925428 -0.03655133 -0.04211022
v -0.00512740 -0.03422473 -0.03616103
v -0.00513843 -0.03423545 -0.03616103
f 1 2 3
f 1 3 10
f 1 10 4
f 1 4 11
f 1 11 17
f 1 17 22
f 1 22 28
f 1 28 29
f 1 29 24
f 1 24 19
f 1 19 12
f 1 12 7
f 1 7 5
f 1 5 2
f 2 5 3
f 3 5 6
f 3 6 7
f 3 7 8
f 3 8 9
f 3 9 13
f 3 13 20
f 3 20 25
f 3 25 26
f 3 26 21
f 3 21 14
f 3 14 10
f 4 10 11
f 5 7 6
f 7 12 13
f 7 13 9
f 7 9 8
f 10 14 15
f 10 15 16
f 10 16 11
f 11 16 17
f 12 18 13
f 12 19 20
f 12 20 18
f 13 18 20
f 14 21 22
f 14 22 23
f 14 23 15
f 15 23 17
f 15 17 16
f 17 23 22
f 19 24 25
f 19 25 20
f 21 26 27
f 21 27 22
f 22 27 28
f 24 29 25
f 25 29 28
f 25 28 27
f 25 27 26

