# https://github.com/mikedh/trimesh
v -0.04240592 -0.06668224 -0.02358285
v -0.04308573 -0.06661536 -0.02358285
v -0.04240592 -0.05946268 -0.02358285
v -0.04240592 -0.06666778 -0.02307606
v -0.04308573 -0.06658282 -0.02245638
v -0.04459777 -0.06637676 -0.02245638
v -0.04421054 -0.06645810 -0.02358285
v -0.05496445 -0.05644579 -0.02358285
v -0.04240592 -0.04821759 -0.00729040
v -0.04240592 -0.06664970 -0.02245638
v -0.04240592 -0.06659728 -0.02177648
v -0.04308573 -0.06646172 -0.02094605
v -0.04610858 -0.06610923 -0.02245638
v -0.04572258 -0.06620865 -0.02358285
v -0.04459777 -0.06640387 -0.02358285
v -0.04459777 -0.06625565 -0.02094605
v -0.05496445 -0.06349725 -0.02358285
v -0.05496445 -0.04821759 -0.01028095
v -0.04240592 -0.04821759 0.00204752
v -0.04240592 -0.06653040 -0.02094605
v -0.04240592 -0.06644364 -0.02026615
v -0.04308573 -0.06626288 -0.01943322
v -0.04762061 -0.06582906 -0.02245638
v -0.04610858 -0.06613996 -0.02358285
v -0.04610858 -0.06598451 -0.02094605
v -0.04459777 -0.06605681 -0.01943322
v -0.05494356 -0.06350629 -0.02358285
v -0.05496445 -0.06349002 -0.02331691
v -0.05496445 -0.04821759 -0.00129928
v -0.04308573 -0.04821759 0.00196724
v -0.04240592 -0.04946664 0.00158840
v -0.04240592 -0.06633338 -0.01943322
v -0.04240592 -0.06620323 -0.01875332
v -0.04308573 -0.06596824 -0.01792038
v -0.04459777 -0.06576398 -0.01792038
v -0.04897776 -0.06551092 -0.02245638
v -0.04762061 -0.06585255 -0.02358285
v -0.04762061 -0.06570252 -0.02094605
v -0.04876387 -0.06544946 -0.02094605
v -0.04610858 -0.06578567 -0.01943322
v -0.04609013 -0.06549646 -0.01791537
v -0.04717315 -0.06539885 -0.01841463
v -0.05353478 -0.06408291 -0.02358285
v -0.05350651 -0.06407929 -0.02245638
v -0.05426253 -0.06375935 -0.02245638
v -0.05496445 -0.06346110 -0.02245638
v -0.05496445 -0.04923889 -0.00172578
v -0.05375728 -0.04821759 -0.00076741
v -0.04333281 -0.04821759 0.00193211
v -0.04308573 -0.04946664 0.00150310
v -0.04308573 -0.05047167 0.00108412
v -0.04240592 -0.05056747 0.00112928
v -0.04240592 -0.06604054 -0.01792038
v -0.04240592 -0.06586701 -0.01724300
v -0.04313244 -0.06554345 -0.01629967
v -0.04459777 -0.06546392 -0.01672366
v -0.04557383 -0.06538258 -0.01701218
v -0.05064346 -0.06503371 -0.02245638
v -0.05064346 -0.06505721 -0.02358285
v -0.05040990 -0.06512409 -0.02358285
v -0.04920518 -0.06546392 -0.02358285
v -0.04901218 -0.06551815 -0.02358285
v -0.04765504 -0.06548742 -0.01942067
v -0.04853767 -0.06538438 -0.01991492
v -0.04951988 -0.06523255 -0.02094605
v -0.04818118 -0.06529943 -0.01890636
v -0.04658186 -0.06528316 -0.01740607
v -0.04765504 -0.06518916 -0.01791537
v -0.05215427 -0.06459085 -0.02358285
v -0.05215427 -0.06457277 -0.02245638
v -0.05337251 -0.06402326 -0.02094605
v -0.05496445 -0.06343760 -0.02214779
v -0.05496445 -0.04936903 -0.00178098
v -0.05366631 -0.04946664 -0.00125663
v -0.05284145 -0.04865141 -0.00056419
v -0.05353478 -0.04821759 -0.00067458
v -0.04459900 -0.04821759 0.00174646
v -0.04461006 -0.04956968 0.00124469
v -0.04512268 -0.05014088 0.00094112
v -0.04411465 -0.05030718 0.00101137
v -0.04308573 -0.05122725 0.00073289
v -0.04240592 -0.05132305 0.00077804
v -0.04240592 -0.06563564 -0.01634985
v -0.04366719 -0.06531931 -0.01572013
v -0.04459777 -0.06524881 -0.01596599
v -0.04609013 -0.06512228 -0.01646776
v -0.04762061 -0.06479872 -0.01641006
v -0.05064346 -0.06490537 -0.02094605
v -0.05215427 -0.06445166 -0.02094605
v -0.05064346 -0.06468665 -0.01943322
v -0.04907611 -0.06514759 -0.01942067
v -0.04913142 -0.06483849 -0.01792038
v -0.04913142 -0.06443901 -0.01641006
v -0.05310944 -0.06390938 -0.01943322
v -0.05386546 -0.06358763 -0.01943322
v -0.05412853 -0.06369970 -0.02094605
v -0.05496445 -0.06333456 -0.02094605
v -0.05496445 -0.04957329 -0.00186879
v -0.05452559 -0.05031622 -0.00199925
v -0.05366631 -0.05064158 -0.00182614
v -0.05226368 -0.04952268 -0.00074984
v -0.05119911 -0.05006496 -0.00060935
v -0.05183343 -0.04905632 -0.00038857
v -0.05220099 -0.04821759 -0.00017783
v -0.05240874 -0.04821759 -0.00024807
v -0.04493091 -0.04821759 0.00168625
v -0.04610858 -0.04913766 0.00114183
v -0.04610858 -0.04989324 0.00083826
v -0.04610858 -0.05097961 0.00033649
v -0.04461006 -0.05087838 0.00066264
v -0.04308573 -0.05249076 0.00008059
v -0.04240592 -0.05201898 0.00041928
v -0.04240592 -0.06538981 -0.01549935
v -0.04265916 -0.06537535 -0.01554200
v -0.04240592 -0.06533196 -0.01532122
v -0.04313244 -0.06513313 -0.01498253
v -0.04459777 -0.06490175 -0.01489722
v -0.04610858 -0.06462158 -0.01489722
v -0.04762061 -0.06430705 -0.01489722
v -0.05215427 -0.06422390 -0.01943322
v -0.05064346 -0.06439020 -0.01792038
v -0.05293119 -0.06383527 -0.01864042
v -0.05060044 -0.06401965 -0.01646024
v -0.05156052 -0.06387865 -0.01699713
v -0.04901833 -0.06399072 -0.01494991
v -0.05006692 -0.06388588 -0.01548931
v -0.05496445 -0.06310319 -0.01943322
v -0.05496445 -0.06329841 -0.02069768
v -0.05496445 -0.05075908 -0.00247091
v -0.05496445 -0.05197379 -0.00319095
v -0.05366631 -0.05139716 -0.00224261
v -0.05285744 -0.05169542 -0.00207201
v -0.05227352 -0.05110614 -0.00153511
v -0.05067420 -0.05095611 -0.00086776
v -0.05019108 -0.05043733 -0.00043373
v -0.05067420 -0.04952268 -0.00019790
v -0.05092497 -0.04821759 0.00023362
v -0.04610858 -0.04821759 0.00146798
v -0.04712889 -0.04885748 0.00103144
v -0.04640361 -0.04821759 0.00140776
v -0.04762799 -0.04940338 0.00069274
v -0.04774969 -0.05111879 -0.00011260
v -0.04813692 -0.04856827 0.00092105
v -0.04733173 -0.05195029 -0.00042369
v -0.04610858 -0.05219251 -0.00028571
v -0.04453630 -0.05257572 -0.00020793
v -0.04399049 -0.05328972 -0.00051150
v -0.04308573 -0.05341264 -0.00043624
v -0.04240592 -0.05299870 -0.00011260
v -0.04240592 -0.05249076 0.00017090
v -0.04240592 -0.06515663 -0.01480440
v -0.04308573 -0.06454023 -0.01338690
v -0.04459777 -0.06432874 -0.01338690
v -0.04601761 -0.06405218 -0.01335930
v -0.04762061 -0.06393288 -0.01388616
v -0.04843933 -0.06384431 -0.01409941
v -0.05210142 -0.06396180 -0.01805084
v -0.05256855 -0.06371597 -0.01763187
v -0.05496445 -0.06306523 -0.01925258
v -0.05352740 -0.06343941 -0.01805084
v -0.05107495 -0.06372320 -0.01598857
v -0.05210142 -0.06353701 -0.01646024
v -0.04944612 -0.06370331 -0.01448076
v -0.05060044 -0.06351171 -0.01494991
v -0.05215427 -0.06297666 -0.01489722
v -0.05496445 -0.05214732 -0.00329632
v -0.05374007 -0.05258837 -0.00301282
v -0.05184941 -0.05204790 -0.00187381
v -0.05227352 -0.05252691 -0.00233543
v -0.04913142 -0.05150200 -0.00065953
v -0.05059061 -0.05252691 -0.00170070
v -0.04913142 -0.05074643 -0.00028320
v -0.04913142 -0.04946664 0.00029133
v -0.05064838 -0.04821759 0.00032143
v -0.04751121 -0.04821759 0.00117946
v -0.04780870 -0.04821759 0.00111674
v -0.04833853 -0.05171530 -0.00054914
v -0.04885237 -0.04821759 0.00085331
v -0.04923469 -0.04821759 0.00074543
v -0.04774969 -0.05246907 -0.00082511
v -0.04610858 -0.05294808 -0.00070970
v -0.04499852 -0.05313608 -0.00060433
v -0.04453630 -0.05387719 -0.00099069
v -0.04308573 -0.05416822 -0.00092295
v -0.04240592 -0.05390069 -0.00065953
v -0.04240592 -0.05348313 -0.00039108
v -0.04240592 -0.06461796 -0.01338690
v -0.04308573 -0.06402507 -0.01222029
v -0.04459777 -0.06392023 -0.01243856
v -0.04545336 -0.06384792 -0.01258658
v -0.04646016 -0.06373947 -0.01283495
v -0.04762061 -0.06361293 -0.01313100
v -0.04901833 -0.06342856 -0.01351234
v -0.05366631 -0.06293689 -0.01641006
v -0.05496445 -0.06277240 -0.01793544
v -0.05473949 -0.06246511 -0.01641006
v -0.05496445 -0.06254283 -0.01706989
v -0.05496445 -0.06269467 -0.01764190
v -0.05357166 -0.06249403 -0.01501263
v -0.05077131 -0.06276517 -0.01325142
v -0.05215427 -0.06250126 -0.01372058
v -0.05300372 -0.06235484 -0.01405425
v -0.05429326 -0.05315777 -0.00362247
v -0.05496445 -0.05290651 -0.00378806
v -0.05328523 -0.05348675 -0.00339417
v -0.05105897 -0.05305473 -0.00216483
v -0.04913142 -0.05249076 -0.00122652
v -0.05005094 -0.05332587 -0.00199674
v -0.04913142 -0.05353555 -0.00186126
v -0.04748908 -0.05403445 -0.00172077
v -0.04689779 -0.05477195 -0.00204190
v -0.04610858 -0.05400192 -0.00137705
v -0.04610858 -0.05488222 -0.00196162
v -0.04459777 -0.05509190 -0.00181109
v -0.04308573 -0.05527266 -0.00167812
v -0.04240592 -0.05484787 -0.00129426
v -0.04240592 -0.05423871 -0.00087779
v -0.04240592 -0.06406483 -0.01214000
v -0.04240592 -0.06369428 -0.01138484
v -0.04308573 -0.06365270 -0.01146512
v -0.04459777 -0.06354244 -0.01168088
v -0.04601761 -0.06342856 -0.01199951
v -0.04762061 -0.06301643 -0.01187407
v -0.04908348 -0.06262598 -0.01183643
v -0.05035335 -0.06247776 -0.01231562
v -0.05447396 -0.06234038 -0.01559218
v -0.05496445 -0.06235665 -0.01641006
v -0.05136138 -0.06230242 -0.01265933
v -0.05215427 -0.06216324 -0.01296290
v -0.05357166 -0.06184148 -0.01348474
v -0.05401175 -0.06213612 -0.01458362
v -0.05496445 -0.05386273 -0.00448802
v -0.05496445 -0.05400011 -0.00459089
v -0.05374007 -0.05399649 -0.00398375
v -0.05248864 -0.05449539 -0.00375544
v -0.05205224 -0.05399649 -0.00320600
v -0.05148062 -0.05480449 -0.00352714
v -0.05059061 -0.05389888 -0.00257879
v -0.04913142 -0.05429113 -0.00237808
v -0.04790458 -0.05456046 -0.00218741
v -0.04831025 -0.05624696 -0.00357982
v -0.04730345 -0.05641506 -0.00343933
v -0.04610858 -0.05563780 -0.00253865
v -0.04459777 -0.05584748 -0.00237307
v -0.04308573 -0.05602824 -0.00223508
v -0.04240592 -0.05533231 -0.00163296
v -0.04240592 -0.06313211 -0.01036625
v -0.04308573 -0.06304896 -0.01036625
v -0.04467890 -0.06273444 -0.01023579
v -0.04610858 -0.06263864 -0.01056194
v -0.04762061 -0.06247414 -0.01084544
v -0.04854874 -0.06236569 -0.01103109
v -0.04955553 -0.06221385 -0.01130958
v -0.05077131 -0.06207828 -0.01183643
v -0.05496445 -0.06190114 -0.01510546
v -0.05215427 -0.06160830 -0.01187407
v -0.05301110 -0.06084911 -0.01104615
v -0.05357534 -0.06106964 -0.01193177
v -0.05496445 -0.06117267 -0.01344711
v -0.05458706 -0.06088888 -0.01247368
v -0.05496445 -0.06103349 -0.01315107
v -0.05496445 -0.06184510 -0.01497249
v -0.05496445 -0.05419533 -0.00474142
v -0.05453543 -0.05482799 -0.00501488
v -0.05366631 -0.05509551 -0.00479912
v -0.04913142 -0.05607343 -0.00372533
v -0.05064346 -0.05499067 -0.00338162
v -0.05267427 -0.05614573 -0.00518297
v -0.05166624 -0.05639880 -0.00495718
v -0.05064346 -0.05574625 -0.00400131
v -0.04913142 -0.05531604 -0.00313325
v -0.04903923 -0.05707665 -0.00457834
v -0.04847621 -0.05781957 -0.00503495
v -0.04773248 -0.05696096 -0.00404897
v -0.04610858 -0.05658859 -0.00329381
v -0.04610858 -0.05734417 -0.00396117
v -0.04459777 -0.05678924 -0.00313074
v -0.04308573 -0.05694831 -0.00299275
v -0.04240592 -0.05659402 -0.00260890
v -0.04240592 -0.05608789 -0.00219243
v -0.04240592 -0.06251030 -0.00929999
v -0.04308573 -0.06246872 -0.00936773
v -0.04422898 -0.06238557 -0.00949568
v -0.04523700 -0.06229338 -0.00964370
v -0.04610858 -0.06219758 -0.00980427
v -0.04762061 -0.06202405 -0.01009028
v -0.04913142 -0.06106241 -0.00922723
v -0.04908348 -0.06185775 -0.01046409
v -0.05064469 -0.06123413 -0.01030102
v -0.05215427 -0.06100457 -0.01079275
v -0.05215427 -0.06052555 -0.01004010
v -0.05337251 -0.05951872 -0.00929748
v -0.05369582 -0.06006280 -0.01034618
v -0.05401912 -0.06060689 -0.01146512
v -0.05496445 -0.06034479 -0.01186152
v -0.05496445 -0.06047675 -0.01209484
v -0.05496445 -0.05531966 -0.00569227
v -0.05366631 -0.05585290 -0.00544891
v -0.05064346 -0.05661932 -0.00475898
v -0.05366631 -0.05666813 -0.00620407
v -0.05270500 -0.05768942 -0.00668075
v -0.05218623 -0.05704411 -0.00581771
v -0.05064346 -0.05737490 -0.00547651
v -0.04948301 -0.05761350 -0.00523817
v -0.05064346 -0.05811421 -0.00623167
v -0.04894334 -0.05846489 -0.00590552
v -0.04840614 -0.05930180 -0.00657287
v -0.04762061 -0.05869987 -0.00570481
v -0.04762061 -0.05794249 -0.00491202
v -0.04459777 -0.05754301 -0.00377551
v -0.04610858 -0.05814494 -0.00471633
v -0.04308573 -0.05770388 -0.00363251
v -0.04240592 -0.05775630 -0.00358484
v -0.04240592 -0.05705496 -0.00299275
v -0.04240592 -0.06201863 -0.00854483
v -0.04308573 -0.06197525 -0.00861006
v -0.04467890 -0.06193186 -0.00893621
v -0.04610858 -0.06157034 -0.00885341
v -0.04753579 -0.06119075 -0.00878066
v -0.05014068 -0.06089611 -0.00947310
v -0.04798449 -0.06070993 -0.00822871
v -0.04913142 -0.06053459 -0.00847207
v -0.05114870 -0.06071173 -0.00975158
v -0.05207437 -0.05970128 -0.00881829
v -0.05437931 -0.05926927 -0.00964370
v -0.05252552 -0.05914093 -0.00828893
v -0.05379170 -0.05893305 -0.00881829
v -0.05496445 -0.05962356 -0.01067233
v -0.05496445 -0.05569383 -0.00603096
v -0.05462025 -0.05638795 -0.00647252
v -0.05366631 -0.05742371 -0.00696425
v -0.05169697 -0.05790272 -0.00645496
v -0.05366631 -0.05810517 -0.00772193
v -0.05211125 -0.05852092 -0.00736065
v -0.04941293 -0.05911020 -0.00679616
v -0.04762061 -0.05939941 -0.00646249
v -0.04610858 -0.05890052 -0.00549407
v -0.05064346 -0.05950426 -0.00783482
v -0.04899743 -0.05968682 -0.00731800
v -0.04753579 -0.06022910 -0.00747104
v -0.04610858 -0.06034118 -0.00716998
v -0.04459777 -0.05833474 -0.00453067
v -0.04459777 -0.05909031 -0.00528834
v -0.04240592 -0.05790272 -0.00372533
v -0.04308573 -0.05847935 -0.00438767
v -0.04240592 -0.06126305 -0.00747857
v -0.04308573 -0.06121967 -0.00753627
v -0.04459777 -0.06109675 -0.00770185
v -0.04610858 -0.06093226 -0.00792514
v -0.04697646 -0.06082923 -0.00806313
v -0.05064469 -0.06031225 -0.00892366
v -0.05151750 -0.05933796 -0.00804055
v -0.05456739 -0.05786115 -0.00800542
v -0.05496445 -0.05813229 -0.00862260
v -0.05496445 -0.05831305 -0.00885091
v -0.05496445 -0.05910297 -0.00988455
v -0.05496445 -0.05947353 -0.01043650
v -0.05496445 -0.05681274 -0.00713235
v -0.05496445 -0.05702061 -0.00735062
v -0.05064346 -0.05886979 -0.00707966
v -0.04610858 -0.05958560 -0.00624923
v -0.04459777 -0.06051832 -0.00694669
v -0.04308573 -0.05923492 -0.00513531
v -0.04459777 -0.05976274 -0.00604602
v -0.04240592 -0.05888786 -0.00469626
v -0.04240592 -0.05928192 -0.00508513
v -0.04240592 -0.06100999 -0.00713987
v -0.04308573 -0.06065028 -0.00678111
v -0.05496445 -0.05720137 -0.00754631
v -0.04240592 -0.05936688 -0.00518047
v -0.04308573 -0.05989470 -0.00589047
v -0.04240592 -0.06069547 -0.00672340
v -0.04240592 -0.05989289 -0.00578761
f 1 2 7
f 1 7 15
f 1 15 14
f 1 14 24
f 1 24 37
f 1 37 62
f 1 62 61
f 1 61 60
f 1 60 59
f 1 59 69
f 1 69 43
f 1 43 27
f 1 27 17
f 1 17 8
f 1 8 3
f 1 3 9
f 1 9 19
f 1 19 31
f 1 31 52
f 1 52 82
f 1 82 112
f 1 112 150
f 1 150 149
f 1 149 186
f 1 186 185
f 1 185 217
f 1 217 216
f 1 216 246
f 1 246 280
f 1 280 279
f 1 279 314
f 1 314 313
f 1 313 344
f 1 344 365
f 1 365 366
f 1 366 370
f 1 370 373
f 1 373 372
f 1 372 367
f 1 367 346
f 1 346 315
f 1 315 281
f 1 281 247
f 1 247 219
f 1 219 218
f 1 218 187
f 1 187 151
f 1 151 115
f 1 115 113
f 1 113 83
f 1 83 54
f 1 54 53
f 1 53 33
f 1 33 32
f 1 32 21
f 1 21 20
f 1 20 11
f 1 11 10
f 1 10 4
f 1 4 2
f 2 4 5
f 2 5 6
f 2 6 7
f 3 8 9
f 4 10 5
f 5 10 11
f 5 11 12
f 5 12 16
f 5 16 6
f 6 13 14
f 6 14 15
f 6 15 7
f 6 16 13
f 8 17 28
f 8 28 46
f 8 46 72
f 8 72 97
f 8 97 128
f 8 128 127
f 8 127 159
f 8 159 195
f 8 195 198
f 8 198 197
f 8 197 227
f 8 227 255
f 8 255 262
f 8 262 259
f 8 259 261
f 8 261 296
f 8 296 295
f 8 295 328
f 8 328 357
f 8 357 356
f 8 356 355
f 8 355 354
f 8 354 369
f 8 369 359
f 8 359 358
f 8 358 329
f 8 329 297
f 8 297 263
f 8 263 233
f 8 233 232
f 8 232 204
f 8 204 166
f 8 166 130
f 8 130 129
f 8 129 98
f 8 98 73
f 8 73 47
f 8 47 29
f 8 29 18
f 8 18 9
f 9 18 29
f 9 29 48
f 9 48 76
f 9 76 105
f 9 105 104
f 9 104 137
f 9 137 174
f 9 174 179
f 9 179 178
f 9 178 176
f 9 176 175
f 9 175 140
f 9 140 138
f 9 138 106
f 9 106 77
f 9 77 49
f 9 49 30
f 9 30 19
f 11 20 12
f 12 20 21
f 12 21 22
f 12 22 26
f 12 26 16
f 13 23 24
f 13 24 14
f 13 16 25
f 13 25 23
f 16 26 40
f 16 40 25
f 17 27 28
f 19 30 31
f 21 32 22
f 22 32 33
f 22 33 34
f 22 34 35
f 22 35 26
f 23 36 37
f 23 37 24
f 23 25 38
f 23 38 39
f 23 39 36
f 25 40 38
f 26 35 41
f 26 41 42
f 26 42 40
f 27 43 44
f 27 44 28
f 28 44 45
f 28 45 46
f 29 47 48
f 30 49 50
f 30 50 31
f 31 50 51
f 31 51 52
f 33 53 34
f 34 53 54
f 34 54 55
f 34 55 56
f 34 56 35
f 35 56 57
f 35 57 41
f 36 58 59
f 36 59 60
f 36 60 61
f 36 61 62
f 36 62 37
f 36 39 58
f 38 40 63
f 38 63 64
f 38 64 39
f 39 64 65
f 39 65 58
f 40 42 66
f 40 66 63
f 41 57 67
f 41 67 42
f 42 67 68
f 42 68 66
f 43 69 44
f 44 69 70
f 44 70 71
f 44 71 45
f 45 71 46
f 46 71 72
f 47 73 74
f 47 74 48
f 48 74 75
f 48 75 76
f 49 77 78
f 49 78 50
f 50 78 79
f 50 79 80
f 50 80 51
f 51 80 81
f 51 81 82
f 51 82 52
f 54 83 55
f 55 83 84
f 55 84 56
f 56 84 85
f 56 85 57
f 57 85 86
f 57 86 87
f 57 87 67
f 58 70 59
f 58 65 88
f 58 88 89
f 58 89 70
f 59 70 69
f 63 66 64
f 64 90 88
f 64 88 65
f 64 66 91
f 64 91 90
f 66 68 92
f 66 92 91
f 67 87 68
f 68 87 93
f 68 93 92
f 70 89 71
f 71 89 94
f 71 94 95
f 71 95 96
f 71 96 72
f 72 96 97
f 73 98 74
f 74 98 99
f 74 99 100
f 74 100 101
f 74 101 75
f 75 101 102
f 75 102 103
f 75 103 104
f 75 104 105
f 75 105 76
f 77 106 107
f 77 107 78
f 78 107 79
f 79 107 108
f 79 108 109
f 79 109 110
f 79 110 81
f 79 81 80
f 81 110 111
f 81 111 112
f 81 112 82
f 83 113 114
f 83 114 84
f 84 114 115
f 84 115 116
f 84 116 117
f 84 117 85
f 85 117 118
f 85 118 86
f 86 118 87
f 87 118 119
f 87 119 93
f 88 90 89
f 89 90 120
f 89 120 94
f 90 91 92
f 90 92 121
f 90 121 122
f 90 122 120
f 92 93 123
f 92 123 124
f 92 124 121
f 93 119 125
f 93 125 126
f 93 126 123
f 94 120 122
f 94 122 95
f 95 122 127
f 95 127 128
f 95 128 96
f 96 128 97
f 98 129 99
f 99 129 130
f 99 130 131
f 99 131 132
f 99 132 100
f 100 133 102
f 100 102 101
f 100 132 133
f 102 133 134
f 102 134 135
f 102 135 136
f 102 136 103
f 103 136 137
f 103 137 104
f 106 138 107
f 107 139 108
f 107 138 140
f 107 140 139
f 108 141 142
f 108 142 109
f 108 139 143
f 108 143 141
f 109 142 144
f 109 144 145
f 109 145 110
f 110 145 146
f 110 146 111
f 111 146 147
f 111 147 148
f 111 148 149
f 111 149 150
f 111 150 112
f 113 115 114
f 115 151 116
f 116 151 152
f 116 152 117
f 117 152 153
f 117 153 118
f 118 153 154
f 118 154 155
f 118 155 156
f 118 156 119
f 119 156 125
f 121 157 122
f 121 124 158
f 121 158 157
f 122 159 127
f 122 157 158
f 122 158 160
f 122 160 159
f 123 126 161
f 123 161 124
f 124 161 162
f 124 162 158
f 125 156 163
f 125 163 126
f 126 163 164
f 126 164 165
f 126 165 161
f 130 166 131
f 131 166 167
f 131 167 132
f 132 168 133
f 132 167 169
f 132 169 168
f 133 168 134
f 134 170 135
f 134 168 171
f 134 171 170
f 135 170 172
f 135 172 173
f 135 173 136
f 136 173 174
f 136 174 137
f 139 140 175
f 139 175 176
f 139 176 143
f 141 173 172
f 141 172 142
f 141 143 173
f 142 172 177
f 142 177 144
f 143 176 178
f 143 178 179
f 143 179 173
f 144 177 180
f 144 180 181
f 144 181 145
f 145 181 182
f 145 182 146
f 146 182 147
f 147 182 183
f 147 183 184
f 147 184 148
f 148 184 185
f 148 185 186
f 148 186 149
f 151 187 152
f 152 187 188
f 152 188 189
f 152 189 153
f 153 189 190
f 153 190 154
f 154 190 191
f 154 191 155
f 155 191 192
f 155 192 156
f 156 192 193
f 156 193 163
f 158 162 194
f 158 194 160
f 159 160 195
f 160 194 196
f 160 196 197
f 160 197 198
f 160 198 195
f 161 165 162
f 162 165 199
f 162 199 194
f 163 193 200
f 163 200 201
f 163 201 164
f 164 201 165
f 165 201 202
f 165 202 199
f 166 203 167
f 166 204 203
f 167 203 205
f 167 205 169
f 168 169 206
f 168 206 171
f 169 205 206
f 170 177 172
f 170 171 207
f 170 207 177
f 171 206 208
f 171 208 207
f 173 179 174
f 177 207 180
f 180 207 209
f 180 209 210
f 180 210 181
f 181 210 211
f 181 211 212
f 181 212 182
f 182 212 183
f 183 212 213
f 183 213 214
f 183 214 184
f 184 214 215
f 184 215 216
f 184 216 217
f 184 217 185
f 187 218 188
f 188 218 219
f 188 219 220
f 188 220 189
f 189 220 221
f 189 221 190
f 190 221 222
f 190 222 223
f 190 223 191
f 191 223 192
f 192 223 224
f 192 224 193
f 193 224 225
f 193 225 200
f 194 199 226
f 194 226 196
f 196 227 197
f 196 226 227
f 199 202 226
f 200 225 228
f 200 228 201
f 201 228 229
f 201 229 202
f 202 229 230
f 202 230 231
f 202 231 226
f 203 204 232
f 203 232 233
f 203 233 234
f 203 234 235
f 203 235 205
f 205 236 206
f 205 235 236
f 206 236 237
f 206 237 238
f 206 238 208
f 207 208 209
f 208 238 239
f 208 239 240
f 208 240 209
f 209 240 210
f 210 240 211
f 211 240 241
f 211 241 242
f 211 242 243
f 211 243 244
f 211 244 213
f 211 213 212
f 213 244 214
f 214 244 245
f 214 245 215
f 215 246 216
f 215 245 246
f 219 247 248
f 219 248 220
f 220 248 221
f 221 248 249
f 221 249 250
f 221 250 222
f 222 250 251
f 222 251 223
f 223 251 252
f 223 252 224
f 224 252 253
f 224 253 225
f 225 253 254
f 225 254 228
f 226 231 255
f 226 255 227
f 228 254 256
f 228 256 229
f 229 256 257
f 229 257 258
f 229 258 230
f 230 259 231
f 230 258 260
f 230 260 261
f 230 261 259
f 231 262 255
f 231 259 262
f 233 263 264
f 233 264 234
f 234 264 235
f 235 264 265
f 235 265 237
f 235 237 236
f 237 266 267
f 237 267 238
f 237 265 268
f 237 268 269
f 237 269 270
f 237 270 266
f 238 267 239
f 239 267 271
f 239 271 240
f 240 271 241
f 241 271 267
f 241 267 266
f 241 266 272
f 241 272 273
f 241 273 274
f 241 274 242
f 242 275 243
f 242 274 276
f 242 276 275
f 243 275 244
f 244 275 277
f 244 277 245
f 245 277 278
f 245 278 279
f 245 279 280
f 245 280 246
f 247 281 282
f 247 282 248
f 248 282 283
f 248 283 249
f 249 283 284
f 249 284 250
f 250 284 285
f 250 285 251
f 251 285 286
f 251 286 252
f 252 286 287
f 252 287 288
f 252 288 253
f 253 288 289
f 253 289 290
f 253 290 257
f 253 257 254
f 254 257 256
f 257 290 291
f 257 291 292
f 257 292 293
f 257 293 294
f 257 294 258
f 258 294 260
f 260 294 295
f 260 295 296
f 260 296 261
f 263 297 264
f 264 297 298
f 264 298 268
f 264 268 265
f 266 270 299
f 266 299 272
f 268 298 300
f 268 300 301
f 268 301 302
f 268 302 269
f 269 302 303
f 269 303 304
f 269 304 299
f 269 299 270
f 272 299 273
f 273 304 305
f 273 305 306
f 273 306 307
f 273 307 308
f 273 308 309
f 273 309 274
f 273 299 304
f 274 309 276
f 275 276 310
f 275 310 277
f 276 309 311
f 276 311 310
f 277 310 312
f 277 312 278
f 278 312 313
f 278 313 314
f 278 314 279
f 281 315 282
f 282 315 316
f 282 316 283
f 283 316 317
f 283 317 284
f 284 317 318
f 284 318 285
f 285 318 319
f 285 319 286
f 286 319 287
f 287 320 288
f 287 319 321
f 287 321 322
f 287 322 320
f 288 320 289
f 289 320 323
f 289 323 290
f 290 323 291
f 291 323 324
f 291 324 292
f 292 325 293
f 292 324 326
f 292 326 327
f 292 327 325
f 293 328 294
f 293 325 328
f 294 328 295
f 297 329 298
f 298 329 330
f 298 330 300
f 300 330 331
f 300 331 301
f 301 332 302
f 301 331 333
f 301 333 326
f 301 326 334
f 301 334 332
f 302 332 303
f 303 332 305
f 303 305 304
f 305 332 335
f 305 335 307
f 305 307 306
f 307 336 337
f 307 337 308
f 307 335 338
f 307 338 339
f 307 339 322
f 307 322 321
f 307 321 340
f 307 340 341
f 307 341 336
f 308 337 309
f 309 337 311
f 310 311 342
f 310 342 312
f 311 337 343
f 311 343 342
f 312 344 313
f 312 342 345
f 312 345 344
f 315 346 347
f 315 347 316
f 316 347 348
f 316 348 317
f 317 348 349
f 317 349 318
f 318 349 350
f 318 350 321
f 318 321 319
f 320 322 351
f 320 351 324
f 320 324 323
f 321 350 340
f 322 339 338
f 322 338 352
f 322 352 351
f 324 352 326
f 324 351 352
f 325 327 353
f 325 353 354
f 325 354 355
f 325 355 356
f 325 356 357
f 325 357 328
f 326 352 334
f 326 333 327
f 327 333 353
f 329 358 330
f 330 358 331
f 331 358 359
f 331 359 353
f 331 353 333
f 332 334 360
f 332 360 335
f 334 352 360
f 335 360 352
f 335 352 338
f 336 341 361
f 336 361 337
f 337 361 343
f 340 350 341
f 341 362 361
f 341 350 349
f 341 349 362
f 342 343 363
f 342 363 345
f 343 361 364
f 343 364 363
f 344 345 365
f 345 363 366
f 345 366 365
f 346 367 347
f 347 367 368
f 347 368 348
f 348 368 362
f 348 362 349
f 353 359 369
f 353 369 354
f 361 362 364
f 362 368 364
f 363 370 366
f 363 364 371
f 363 371 370
f 364 368 371
f 367 372 368
f 368 372 371
f 370 371 373
f 371 372 373

