# https://github.com/mikedh/trimesh
v -0.07029519 -0.02712623 -0.02358285
v -0.07029519 -0.02724764 -0.02384398
v -0.07129271 -0.03053590 -0.03084916
v -0.07180685 -0.02909918 -0.02765966
v -0.07483017 -0.02887659 -0.02663646
v -0.07180685 -0.02727125 -0.02358285
v -0.06743242 -0.02724090 -0.02358285
v -0.05883216 -0.03757782 -0.04596532
v -0.05883216 -0.03802974 -0.04696720
v -0.07029519 -0.03198273 -0.03401201
v -0.07137811 -0.03200634 -0.03395606
v -0.07483017 -0.03033354 -0.02976734
v -0.07572693 -0.02893730 -0.02650056
v -0.07469694 -0.02756466 -0.02358285
v -0.07430579 -0.02752082 -0.02358285
v -0.06727356 -0.02724764 -0.02358285
v -0.05883216 -0.03722370 -0.04513397
v -0.06273857 -0.03672119 -0.04415074
v -0.05883216 -0.03819500 -0.04728162
v -0.06425024 -0.03676166 -0.04412143
v -0.06425024 -0.03636707 -0.04336469
v -0.07029519 -0.03235034 -0.03476875
v -0.06878352 -0.03344979 -0.03714289
v -0.06878352 -0.03380391 -0.03789430
v -0.07259257 -0.03508549 -0.03987142
v -0.07331851 -0.03325419 -0.03602643
v -0.07483017 -0.03183433 -0.03278098
v -0.07576450 -0.03041448 -0.02959680
v -0.07583112 -0.02875855 -0.02548269
v -0.07492924 -0.02765235 -0.02358285
v -0.07497195 -0.02778051 -0.02393457
v -0.07592165 -0.03017840 -0.02850699
v -0.06576190 -0.02739603 -0.02358285
v -0.05883216 -0.03703483 -0.04468898
v -0.06727356 -0.03490337 -0.04024446
v -0.06576190 -0.03798927 -0.04616516
v -0.05883216 -0.03967893 -0.04976767
v -0.06122691 -0.03944959 -0.04925074
v -0.06982887 -0.03655930 -0.04298365
v -0.06727356 -0.03530471 -0.04099854
v -0.07267285 -0.03586118 -0.04004462
v -0.07421355 -0.03465043 -0.03722283
v -0.07438948 -0.03336885 -0.03578129
v -0.07570471 -0.03194563 -0.03253584
v -0.06803879 -0.03812080 -0.04589604
v -0.07140544 -0.03632322 -0.04179258
v -0.07597118 -0.02974671 -0.02700150
v -0.07613686 -0.02981416 -0.02548269
v -0.07580208 -0.02848537 -0.02397188
v -0.07576450 -0.02851236 -0.02358285
v -0.07582429 -0.03170280 -0.03152862
v -0.07625985 -0.03132845 -0.02850699
v -0.06488394 -0.02779400 -0.02358285
v -0.05883216 -0.03627938 -0.04272252
v -0.05883216 -0.03662675 -0.04366312
v -0.06727356 -0.03805335 -0.04602127
v -0.06273857 -0.03948669 -0.04910952
v -0.05883216 -0.03995211 -0.05008209
v -0.05883216 -0.04039391 -0.05056172
v -0.07325189 -0.03586118 -0.03908537
v -0.07145840 -0.03737546 -0.04192048
v -0.07267968 -0.03696401 -0.04007926
v -0.07389926 -0.03586118 -0.03790230
v -0.07418622 -0.03586118 -0.03714822
v -0.07519912 -0.03435027 -0.03455292
v -0.07573034 -0.03283936 -0.03283427
v -0.07597631 -0.03283936 -0.03152862
v -0.06803879 -0.03816127 -0.04589604
v -0.06958120 -0.03805335 -0.04442519
v -0.06363532 -0.03956089 -0.04898695
v -0.07628035 -0.03132845 -0.02699351
v -0.07616420 -0.03132845 -0.02548269
v -0.07600534 -0.02981416 -0.02397188
v -0.07590456 -0.02941958 -0.02358285
v -0.07613003 -0.03283936 -0.03001781
v -0.07618469 -0.03283936 -0.02850699
v -0.06475242 -0.02827965 -0.02358285
v -0.05883216 -0.03653232 -0.04049760
v -0.05883216 -0.03627938 -0.04086798
v -0.05883216 -0.03612761 -0.04147284
v -0.05883216 -0.03619844 -0.04217628
v -0.05883216 -0.04070756 -0.05078554
v -0.07225095 -0.03742942 -0.04059086
v -0.06958120 -0.03821523 -0.04442519
v -0.07123976 -0.03860982 -0.04167268
v -0.07235173 -0.03888637 -0.03941844
v -0.07258915 -0.03970591 -0.03838192
v -0.07271726 -0.03888637 -0.03866170
v -0.07293760 -0.03742942 -0.03916797
v -0.07370283 -0.03725068 -0.03744133
v -0.07408715 -0.03666385 -0.03685245
v -0.07452784 -0.03586118 -0.03606374
v -0.07566031 -0.03402988 -0.03276499
v -0.07493778 -0.03586118 -0.03455292
v -0.07551512 -0.03446156 -0.03317800
v -0.07574742 -0.03446156 -0.03163521
v -0.07593702 -0.03435027 -0.03001781
v -0.06789531 -0.03916967 -0.04574416
v -0.06363532 -0.03989140 -0.04898695
v -0.06530413 -0.04039729 -0.04763068
v -0.06606082 -0.04039729 -0.04699917
v -0.05971524 -0.04085595 -0.05061234
v -0.06050268 -0.04109541 -0.05043914
v -0.07616590 -0.03283936 -0.02699351
v -0.07608563 -0.03283936 -0.02548269
v -0.07597631 -0.03132845 -0.02397188
v -0.07592165 -0.03283936 -0.02397188
v -0.07593361 -0.02981416 -0.02358285
v -0.07591139 -0.03134531 -0.02358285
v -0.07602071 -0.03435027 -0.02850699
v -0.07603097 -0.03435027 -0.02699351
v -0.05883216 -0.05236316 -0.02358285
v -0.05883216 -0.04158443 -0.05080419
v -0.07160017 -0.03902128 -0.04074008
v -0.06686020 -0.04039729 -0.04624243
v -0.06761347 -0.04039729 -0.04544039
v -0.06828646 -0.04039729 -0.04468365
v -0.06933865 -0.03922363 -0.04410810
v -0.06947700 -0.04102121 -0.04277848
v -0.06971101 -0.04001281 -0.04310089
v -0.06990061 -0.03878520 -0.04360983
v -0.07077686 -0.03902128 -0.04214964
v -0.07104162 -0.03961822 -0.04133694
v -0.07131491 -0.04039729 -0.04030841
v -0.07205964 -0.04028599 -0.03896547
v -0.07135249 -0.04185423 -0.03905340
v -0.07115436 -0.04289973 -0.03852847
v -0.07238077 -0.04071431 -0.03791029
v -0.07259769 -0.04124380 -0.03690574
v -0.07273434 -0.04028599 -0.03747330
v -0.07317503 -0.03888637 -0.03757456
v -0.07395563 -0.03767225 -0.03645543
v -0.07421013 -0.03725068 -0.03599712
v -0.07459616 -0.03737546 -0.03455292
v -0.07557490 -0.03503827 -0.03220809
v -0.07565006 -0.03549357 -0.03120088
v -0.07526915 -0.03586118 -0.03304211
v -0.07495657 -0.03737546 -0.03304211
v -0.07550658 -0.03594550 -0.03163521
v -0.07569960 -0.03594550 -0.03002314
v -0.07580891 -0.03586118 -0.02850699
v -0.06050268 -0.04118309 -0.05043914
v -0.06335519 -0.04089643 -0.04882175
v -0.06418362 -0.04039391 -0.04843805
v -0.06419728 -0.04177667 -0.04773459
v -0.06502742 -0.04118309 -0.04742018
v -0.06565258 -0.04174631 -0.04654619
v -0.06627604 -0.04230616 -0.04565623
v -0.06660228 -0.04130113 -0.04597331
v -0.05971524 -0.04150686 -0.05061234
v -0.07595581 -0.03435027 -0.02548269
v -0.07580208 -0.03435027 -0.02397188
v -0.07586186 -0.03280563 -0.02358285
v -0.07574571 -0.03435027 -0.02358285
v -0.07582429 -0.03586118 -0.02699351
v -0.07575426 -0.03586118 -0.02548269
v -0.05883216 -0.06156690 -0.02358285
v -0.05883216 -0.04183063 -0.05080419
v -0.06807124 -0.04123031 -0.04442785
v -0.06910464 -0.04046811 -0.04360983
v -0.07011071 -0.04046811 -0.04220826
v -0.06841970 -0.04180365 -0.04359650
v -0.06819764 -0.04295706 -0.04307691
v -0.06924129 -0.04190820 -0.04245340
v -0.06956924 -0.04272098 -0.04139556
v -0.06977763 -0.04190820 -0.04169932
v -0.07088106 -0.04039729 -0.04106515
v -0.07112703 -0.04131462 -0.03997534
v -0.07211601 -0.04181376 -0.03747330
v -0.07092718 -0.04390813 -0.03806750
v -0.07138494 -0.04341236 -0.03756923
v -0.07239955 -0.04225220 -0.03640747
v -0.07259769 -0.04274459 -0.03540026
v -0.07273776 -0.04181376 -0.03596781
v -0.07322115 -0.04039729 -0.03606374
v -0.07377115 -0.03882230 -0.03599712
v -0.07411961 -0.03827594 -0.03544822
v -0.07423576 -0.03882230 -0.03447831
v -0.07456713 -0.03888637 -0.03304211
v -0.07556636 -0.03650197 -0.03053207
v -0.07484896 -0.03888637 -0.03152862
v -0.07522816 -0.03737546 -0.03152862
v -0.07560735 -0.03671781 -0.02952220
v -0.07563468 -0.03684597 -0.02850699
v -0.07564152 -0.03690330 -0.02699351
v -0.05887657 -0.04260294 -0.05038852
v -0.05971524 -0.04226232 -0.05019667
v -0.05979382 -0.04351691 -0.04944259
v -0.06035065 -0.04408350 -0.04885372
v -0.06087846 -0.04307510 -0.04914949
v -0.06119446 -0.04187447 -0.04965309
v -0.06234742 -0.04155408 -0.04914949
v -0.06280690 -0.04199926 -0.04859526
v -0.06365923 -0.04286938 -0.04752676
v -0.06466701 -0.04219149 -0.04711641
v -0.06526826 -0.04299079 -0.04610920
v -0.06718816 -0.04176992 -0.04504071
v -0.06504450 -0.04572932 -0.04441187
v -0.06642464 -0.04404640 -0.04428130
v -0.06676626 -0.04303801 -0.04464901
v -0.07559028 -0.03664362 -0.02469398
v -0.07564152 -0.03578024 -0.02410244
v -0.07562102 -0.03548008 -0.02358285
v -0.07548437 -0.03752048 -0.02548269
v -0.07561248 -0.03676503 -0.02548269
v -0.05921307 -0.06134768 -0.02358285
v -0.05883216 -0.06157364 -0.02376138
v -0.05883216 -0.04255910 -0.05042849
v -0.06777233 -0.04223871 -0.04408679
v -0.06789360 -0.04396546 -0.04269854
v -0.06874082 -0.04334491 -0.04204838
v -0.07053602 -0.04185423 -0.04052691
v -0.06928570 -0.04372938 -0.04098255
v -0.06962561 -0.04432970 -0.03997534
v -0.06981008 -0.04330444 -0.04052691
v -0.07088447 -0.04232302 -0.03953569
v -0.06986816 -0.04486931 -0.03902142
v -0.06962219 -0.04582038 -0.03847518
v -0.07062484 -0.04489966 -0.03756923
v -0.07116289 -0.04437692 -0.03706296
v -0.07062484 -0.04341236 -0.03905340
v -0.07211430 -0.04331793 -0.03596781
v -0.07318699 -0.04190820 -0.03455292
v -0.07240297 -0.04382381 -0.03455292
v -0.07274117 -0.04306836 -0.03455292
v -0.07376261 -0.04031297 -0.03447831
v -0.07396588 -0.03928434 -0.03493129
v -0.07411107 -0.03975312 -0.03392408
v -0.07421013 -0.04009713 -0.03304211
v -0.07407178 -0.04114600 -0.03227204
v -0.07436386 -0.04054231 -0.03167251
v -0.07506077 -0.03888637 -0.03001781
v -0.07543825 -0.03728103 -0.03002314
v -0.07467644 -0.04039729 -0.03001781
v -0.07519571 -0.03888637 -0.02850699
v -0.07547413 -0.03760480 -0.02850699
v -0.07525720 -0.03888637 -0.02699351
v -0.07523670 -0.03888637 -0.02548269
v -0.05883216 -0.04261981 -0.05039651
v -0.05883216 -0.04266702 -0.05036986
v -0.05883216 -0.04347981 -0.04989290
v -0.05934288 -0.04445786 -0.04908820
v -0.05883216 -0.04538869 -0.04874447
v -0.05979382 -0.04495025 -0.04856594
v -0.05960764 -0.04639708 -0.04771594
v -0.06066495 -0.04586422 -0.04752143
v -0.06119275 -0.04489966 -0.04781986
v -0.06132086 -0.04351691 -0.04861924
v -0.06188623 -0.04256247 -0.04885372
v -0.06271295 -0.04339213 -0.04782253
v -0.06319805 -0.04387778 -0.04719902
v -0.06343718 -0.04562477 -0.04584541
v -0.06385396 -0.04461637 -0.04618914
v -0.06426049 -0.04343597 -0.04665278
v -0.06486174 -0.04399919 -0.04576547
v -0.06431514 -0.04504468 -0.04550701
v -0.06414434 -0.04631614 -0.04471296
v -0.06357042 -0.04727732 -0.04444118
v -0.06457819 -0.04673771 -0.04400152
v -0.06513332 -0.04735489 -0.04299431
v -0.06559280 -0.04622846 -0.04344729
v -0.06654421 -0.04571920 -0.04289305
v -0.06609839 -0.04493002 -0.04394823
v -0.06681409 -0.04493002 -0.04319149
v -0.06733164 -0.04350342 -0.04367911
v -0.07512226 -0.03888637 -0.02397188
v -0.07543484 -0.03723719 -0.02410244
v -0.07553220 -0.03622879 -0.02368410
v -0.07552195 -0.03618832 -0.02358285
v -0.05956664 -0.06115544 -0.02397188
v -0.05883216 -0.06158039 -0.02397188
v -0.06030795 -0.06070689 -0.02358285
v -0.06032162 -0.06071364 -0.02397188
v -0.06827792 -0.04457927 -0.04169133
v -0.06762202 -0.04502108 -0.04216030
v -0.06796363 -0.04558767 -0.04126500
v -0.06880060 -0.04495700 -0.04062017
v -0.06831721 -0.04611379 -0.04025779
v -0.06932498 -0.04533135 -0.03948239
v -0.06931132 -0.04682877 -0.03793161
v -0.06959657 -0.04729081 -0.03692706
v -0.07088618 -0.04538531 -0.03645543
v -0.07111165 -0.04580014 -0.03544822
v -0.07134054 -0.04489966 -0.03599712
v -0.07187175 -0.04493002 -0.03455292
v -0.07361913 -0.04190820 -0.03304211
v -0.07254303 -0.04413409 -0.03372157
v -0.07294956 -0.04354726 -0.03314602
v -0.07397612 -0.04085258 -0.03304211
v -0.07391976 -0.04192843 -0.03167251
v -0.07417768 -0.04143604 -0.03126483
v -0.07482505 -0.04039729 -0.02850699
v -0.07427504 -0.04171259 -0.03001781
v -0.07489337 -0.04039729 -0.02699351
v -0.07486775 -0.04039729 -0.02548269
v -0.07475502 -0.04039729 -0.02397188
v -0.05883216 -0.04467370 -0.04918679
v -0.05883216 -0.04731780 -0.04748412
v -0.05903201 -0.04725034 -0.04743616
v -0.06003978 -0.04687262 -0.04716704
v -0.06089383 -0.04755725 -0.04615983
v -0.06128328 -0.04649489 -0.04668209
v -0.06167272 -0.04538531 -0.04720434
v -0.06219028 -0.04437692 -0.04753475
v -0.06281373 -0.04500084 -0.04669807
v -0.06242941 -0.04611716 -0.04619713
v -0.06190161 -0.04712556 -0.04583742
v -0.06208266 -0.04880847 -0.04445450
v -0.06309044 -0.04828572 -0.04403350
v -0.06412896 -0.04782031 -0.04351390
v -0.06614110 -0.04672422 -0.04244807
v -0.06468751 -0.04836329 -0.04255732
v -0.06518456 -0.04890290 -0.04154744
v -0.06566283 -0.04782705 -0.04199776
v -0.06659033 -0.04729419 -0.04144086
v -0.06684142 -0.04630940 -0.04201108
v -0.07507272 -0.03888637 -0.02358285
v -0.07514275 -0.03849853 -0.02358285
v -0.07536139 -0.03728103 -0.02358285
v -0.06029942 -0.06070015 -0.02548269
v -0.05883216 -0.06156015 -0.02464868
v -0.05954444 -0.06113183 -0.02548269
v -0.06122691 -0.06007959 -0.02358285
v -0.06122691 -0.06009308 -0.02397188
v -0.06688753 -0.04786078 -0.04051891
v -0.06770059 -0.04654885 -0.04069478
v -0.06797559 -0.04712219 -0.03976750
v -0.06830354 -0.04762133 -0.03875763
v -0.06797047 -0.04862972 -0.03823271
v -0.06825059 -0.04900071 -0.03722549
v -0.06930107 -0.04835992 -0.03606374
v -0.06979984 -0.04760446 -0.03606374
v -0.07055652 -0.04635999 -0.03599712
v -0.07088106 -0.04688611 -0.03455292
v -0.07103820 -0.04716940 -0.03375355
v -0.07127563 -0.04613065 -0.03455292
v -0.07337488 -0.04342248 -0.03152862
v -0.07232269 -0.04492664 -0.03314602
v -0.07244738 -0.04542916 -0.03183772
v -0.07267456 -0.04442076 -0.03271436
v -0.07151476 -0.04657583 -0.03316734
v -0.07257720 -0.04571583 -0.03083050
v -0.07400175 -0.04246804 -0.03001781
v -0.07431091 -0.04203635 -0.02855495
v -0.07442536 -0.04190820 -0.02699351
v -0.07405982 -0.04262318 -0.02909320
v -0.07413327 -0.04285251 -0.02548269
v -0.07441852 -0.04190820 -0.02548269
v -0.07411448 -0.04279181 -0.02424100
v -0.07429041 -0.04205659 -0.02383066
v -0.07419989 -0.04230616 -0.02358285
v -0.07470548 -0.04039729 -0.02358285
v -0.05883216 -0.04749991 -0.04735889
v -0.05929506 -0.04897035 -0.04608522
v -0.06030283 -0.04856565 -0.04578146
v -0.06132939 -0.04801929 -0.04553898
v -0.06213049 -0.05035311 -0.04299164
v -0.06261046 -0.04935145 -0.04351390
v -0.06367973 -0.04888941 -0.04302628
v -0.06122691 -0.04914573 -0.04473428
v -0.06044631 -0.05020134 -0.04436124
v -0.06055392 -0.05179994 -0.04292769
v -0.06419387 -0.04940204 -0.04205638
v -0.06370194 -0.05043405 -0.04155544
v -0.06470972 -0.04991130 -0.04102519
v -0.06515553 -0.05038346 -0.04001531
v -0.06567308 -0.04936494 -0.04049227
v -0.06661082 -0.04882196 -0.03996202
v -0.06619234 -0.04830259 -0.04096923
v -0.06122691 -0.06005261 -0.02548269
v -0.06018668 -0.06062595 -0.02699351
v -0.05943000 -0.06106776 -0.02699351
v -0.05883216 -0.06152980 -0.02546404
v -0.05883216 -0.06145897 -0.02631404
v -0.06214757 -0.05942194 -0.02358285
v -0.06215440 -0.05942532 -0.02397188
v -0.06771425 -0.04805639 -0.03919195
v -0.06786456 -0.05000911 -0.03652471
v -0.06685337 -0.04938181 -0.03895214
v -0.06653908 -0.05024518 -0.03835794
v -0.06645880 -0.05166504 -0.03672189
v -0.06813615 -0.05036997 -0.03551750
v -0.06850681 -0.04948973 -0.03603976
v -0.06950263 -0.04865333 -0.03522173
v -0.07010900 -0.04806988 -0.03465151
v -0.07119706 -0.04743246 -0.03274634
v -0.06970931 -0.04896361 -0.03421186
v -0.06984595 -0.04946612 -0.03290355
v -0.07073929 -0.04794509 -0.03316734
v -0.07304180 -0.04493002 -0.03001781
v -0.07363622 -0.04342248 -0.03001781
v -0.07212967 -0.04630603 -0.03141138
v -0.07135249 -0.04770227 -0.03152862
v -0.07225608 -0.04661293 -0.03001781
v -0.07265064 -0.04585747 -0.03001781
v -0.07410423 -0.04274459 -0.02808332
v -0.07412644 -0.04281879 -0.02699351
v -0.07389243 -0.04360797 -0.02548269
v -0.07324506 -0.04493002 -0.02850699
v -0.07385485 -0.04331793 -0.02855495
v -0.07408715 -0.04270412 -0.02358285
v -0.07389585 -0.04334491 -0.02383066
v -0.07396929 -0.04306161 -0.02358285
v -0.05883216 -0.04916596 -0.04616516
v -0.05883216 -0.04960440 -0.04583475
v -0.05943853 -0.05057570 -0.04467832
v -0.05987068 -0.04958753 -0.04522989
v -0.06313827 -0.04989781 -0.04256265
v -0.06156169 -0.05136150 -0.04251202
v -0.06264975 -0.05089609 -0.04203240
v -0.05985189 -0.05103774 -0.04402550
v -0.05883216 -0.05154025 -0.04423068
v -0.05971524 -0.05208323 -0.04319415
v -0.05883216 -0.05309163 -0.04278114
v -0.05883216 -0.05460929 -0.04125700
v -0.06050951 -0.05327375 -0.04138490
v -0.06103560 -0.05234629 -0.04194979
v -0.06216124 -0.05188088 -0.04150481
v -0.06316901 -0.05143907 -0.04104117
v -0.06366778 -0.05189437 -0.04003130
v -0.06418875 -0.05091295 -0.04052691
v -0.06467555 -0.05139186 -0.03945308
v -0.06509575 -0.05182692 -0.03844587
v -0.06212537 -0.05939834 -0.02548269
v -0.06205534 -0.05934775 -0.02662846
v -0.06136527 -0.05978618 -0.02707611
v -0.06195968 -0.05927355 -0.02763567
v -0.06108855 -0.05972548 -0.02850699
v -0.05997658 -0.06048093 -0.02850699
v -0.05922161 -0.06095983 -0.02850699
v -0.05883216 -0.06139490 -0.02699351
v -0.06361653 -0.05825841 -0.02358285
v -0.06386933 -0.05807966 -0.02397188
v -0.06291109 -0.05883512 -0.02397188
v -0.06385738 -0.05806954 -0.02548269
v -0.06288035 -0.05882500 -0.02548269
v -0.06730260 -0.05101750 -0.03611969
v -0.06616330 -0.05132103 -0.03757456
v -0.06540662 -0.05213382 -0.03757456
v -0.06494201 -0.05318269 -0.03672455
v -0.06525630 -0.05350309 -0.03571468
v -0.06674064 -0.05197531 -0.03571468
v -0.06835650 -0.05067350 -0.03455292
v -0.06778770 -0.05142896 -0.03455292
v -0.06917467 -0.04946612 -0.03465151
v -0.06954874 -0.05023169 -0.03230935
v -0.07026614 -0.04946612 -0.03152862
v -0.07089302 -0.04845772 -0.03152862
v -0.06936427 -0.04996863 -0.03331656
v -0.07101087 -0.04863984 -0.03058536
v -0.07111678 -0.04882533 -0.02957815
v -0.07144985 -0.04806313 -0.03005778
v -0.07120047 -0.04897710 -0.02850699
v -0.07175902 -0.04795184 -0.02850699
v -0.07236540 -0.04681866 -0.02850699
v -0.07275313 -0.04606320 -0.02850699
v -0.07387023 -0.04357424 -0.02699351
v -0.07335779 -0.04493002 -0.02699351
v -0.07338000 -0.04493002 -0.02548269
v -0.07330314 -0.04493002 -0.02397188
v -0.07386339 -0.04335840 -0.02358285
v -0.07326043 -0.04493002 -0.02358285
v -0.05883216 -0.04989781 -0.04559227
v -0.05883216 -0.05145931 -0.04429995
v -0.05883216 -0.05235641 -0.04347660
v -0.05883216 -0.05464639 -0.04121703
v -0.05984677 -0.05439682 -0.04067879
v -0.06043948 -0.05473407 -0.03981547
v -0.06151729 -0.05288928 -0.04096124
v -0.06209804 -0.05334120 -0.03995402
v -0.06263267 -0.05239351 -0.04049760
v -0.06310581 -0.05290277 -0.03941578
v -0.06356017 -0.05330410 -0.03840590
v -0.06411871 -0.05236653 -0.03893083
v -0.06462943 -0.05289265 -0.03757456
v -0.06377539 -0.05800546 -0.02699351
v -0.06263096 -0.05885872 -0.02707611
v -0.06184353 -0.05919598 -0.02850699
v -0.06363190 -0.05789417 -0.02850699
v -0.06273857 -0.05855519 -0.02850699
v -0.06159586 -0.05903072 -0.03001781
v -0.05905250 -0.06085866 -0.02947956
v -0.06084088 -0.05953998 -0.03001781
v -0.05883216 -0.06102728 -0.02922909
v -0.05883216 -0.06116893 -0.02850699
v -0.05883216 -0.06125662 -0.02792878
v -0.06385225 -0.05806617 -0.02358285
v -0.06460894 -0.05744224 -0.02358285
v -0.06462602 -0.05745236 -0.02397188
v -0.06461406 -0.05742876 -0.02548269
v -0.06339619 -0.05466662 -0.03668459
v -0.06434418 -0.05408317 -0.03619963
v -0.06475583 -0.05450811 -0.03487001
v -0.06626408 -0.05298371 -0.03483004
v -0.06693707 -0.05248120 -0.03441703
v -0.06798755 -0.05168190 -0.03369759
v -0.06653054 -0.05326026 -0.03382283
v -0.06966831 -0.05040707 -0.03152862
v -0.06877327 -0.05095680 -0.03300214
v -0.06818227 -0.05191461 -0.03269038
v -0.06912514 -0.05116252 -0.03152862
v -0.07068463 -0.04938518 -0.03005778
v -0.07076320 -0.04973255 -0.02850699
v -0.07084690 -0.04987757 -0.02699351
v -0.07128075 -0.04912212 -0.02699351
v -0.07190250 -0.04795184 -0.02699351
v -0.07242859 -0.04692995 -0.02699351
v -0.07280608 -0.04617449 -0.02699351
v -0.07280608 -0.04619810 -0.02548269
v -0.07243201 -0.04690297 -0.02397188
v -0.07277021 -0.04614751 -0.02397188
v -0.07266772 -0.04629928 -0.02358285
v -0.07275142 -0.04610704 -0.02358285
v -0.05943170 -0.05506459 -0.04022848
v -0.05883216 -0.05582678 -0.03974619
v -0.05924894 -0.05646083 -0.03857910
v -0.06025671 -0.05612694 -0.03811280
v -0.06095532 -0.05511855 -0.03880825
v -0.06196310 -0.05474082 -0.03830998
v -0.06136697 -0.05448788 -0.03922126
v -0.06265659 -0.05363124 -0.03898145
v -0.06283081 -0.05442380 -0.03771311
v -0.06387275 -0.05359752 -0.03757456
v -0.06453207 -0.05734781 -0.02699351
v -0.06352601 -0.05780648 -0.02934900
v -0.06438859 -0.05720617 -0.02850699
v -0.06062224 -0.05939159 -0.03106765
v -0.06279494 -0.05819096 -0.02991922
v -0.06233034 -0.05804931 -0.03152862
v -0.05883216 -0.06093960 -0.02962345
v -0.05961960 -0.06034940 -0.02999649
v -0.05883216 -0.06071364 -0.03047612
v -0.06542540 -0.05668679 -0.02358285
v -0.06543395 -0.05669691 -0.02397188
v -0.06540832 -0.05667330 -0.02548269
v -0.06533317 -0.05659236 -0.02699351
v -0.06238841 -0.05509494 -0.03730010
v -0.06174617 -0.05610334 -0.03652205
v -0.06276248 -0.05554349 -0.03610104
v -0.06374635 -0.05498027 -0.03567737
v -0.06425024 -0.05519612 -0.03444101
v -0.06504279 -0.05479141 -0.03386280
v -0.06754003 -0.05244747 -0.03313270
v -0.06599078 -0.05419446 -0.03304211
v -0.06631362 -0.05453172 -0.03152862
v -0.06669110 -0.05343901 -0.03304211
v -0.06986816 -0.05068362 -0.03001781
v -0.06647930 -0.05471384 -0.03063599
v -0.06836845 -0.05214057 -0.03152862
v -0.06931473 -0.05143907 -0.03001781
v -0.07000822 -0.05086911 -0.02850699
v -0.07086910 -0.04993491 -0.02548269
v -0.07132687 -0.04917608 -0.02548269
v -0.06999797 -0.05111868 -0.02705213
v -0.07016366 -0.05097703 -0.02548269
v -0.07196741 -0.04795184 -0.02548269
v -0.07244738 -0.04695356 -0.02548269
v -0.07193666 -0.04795184 -0.02397188
v -0.07204769 -0.04764493 -0.02358285
v -0.07241663 -0.04686250 -0.02358285
v -0.05883216 -0.05657212 -0.03877362
v -0.05883216 -0.05688914 -0.03833929
v -0.05899614 -0.05780311 -0.03686045
v -0.06073840 -0.05645408 -0.03710825
v -0.06135160 -0.05561094 -0.03770778
v -0.06519481 -0.05645071 -0.02850699
v -0.06507354 -0.05633267 -0.02949289
v -0.06577727 -0.05552326 -0.03006577
v -0.06492152 -0.05619440 -0.03050010
v -0.06473021 -0.05602914 -0.03152862
v -0.06333641 -0.05764460 -0.03035621
v -0.06035749 -0.05921959 -0.03207753
v -0.05979894 -0.05975246 -0.03155527
v -0.05883216 -0.06070352 -0.03050809
v -0.06116542 -0.05885872 -0.03155527
v -0.06308532 -0.05744224 -0.03152862
v -0.06210145 -0.05787056 -0.03250386
v -0.06618038 -0.05590098 -0.02358285
v -0.06618892 -0.05591110 -0.02397188
v -0.06689266 -0.05514890 -0.02548269
v -0.06616330 -0.05590435 -0.02548269
v -0.06684142 -0.05508482 -0.02699351
v -0.06608986 -0.05584028 -0.02699351
v -0.06673039 -0.05496678 -0.02850699
v -0.06595150 -0.05572223 -0.02850699
v -0.06044973 -0.05776601 -0.03528035
v -0.06212878 -0.05637989 -0.03551483
v -0.06319805 -0.05603589 -0.03455292
v -0.06345597 -0.05623824 -0.03372690
v -0.06523410 -0.05497690 -0.03304211
v -0.06423145 -0.05582004 -0.03315135
v -0.06555693 -0.05527368 -0.03152862
v -0.06945822 -0.05162457 -0.02850699
v -0.06661253 -0.05485211 -0.02962878
v -0.06726332 -0.05399211 -0.02998317
v -0.06791068 -0.05310175 -0.03033756
v -0.06846240 -0.05255539 -0.02990856
v -0.06804562 -0.05326701 -0.02933035
v -0.06879889 -0.05248794 -0.02850699
v -0.06952654 -0.05171562 -0.02759571
v -0.07084177 -0.04989106 -0.02397188
v -0.07131321 -0.04913561 -0.02397188
v -0.06959316 -0.05181343 -0.02397188
v -0.07013804 -0.05097703 -0.02397188
v -0.06956754 -0.05177296 -0.02658583
v -0.06959145 -0.05180668 -0.02548269
v -0.07190250 -0.04795184 -0.02358285
v -0.05883216 -0.05785033 -0.03693506
v -0.05883216 -0.05798860 -0.03669524
v -0.05883216 -0.05834609 -0.03603976
v -0.05934801 -0.05802907 -0.03606374
v -0.06010469 -0.05752993 -0.03606374
v -0.06371389 -0.05645746 -0.03271969
v -0.06397352 -0.05668342 -0.03152862
v -0.05929506 -0.05950288 -0.03304211
v -0.05883216 -0.06013018 -0.03213615
v -0.05883216 -0.06035614 -0.03153662
v -0.06127815 -0.05823480 -0.03302079
v -0.06005003 -0.05903747 -0.03304211
v -0.06181791 -0.05765472 -0.03351107
v -0.06669794 -0.05533776 -0.02358285
v -0.06688582 -0.05515564 -0.02397188
v -0.06764764 -0.05433948 -0.02548269
v -0.06759639 -0.05426528 -0.02699351
v -0.06748537 -0.05412364 -0.02850699
v -0.05883216 -0.05876766 -0.03524571
v -0.05883216 -0.05898688 -0.03481938
v -0.05973233 -0.05855519 -0.03457690
v -0.06081014 -0.05801558 -0.03427314
v -0.06127815 -0.05745911 -0.03468882
v -0.06244136 -0.05663620 -0.03455292
v -0.06812419 -0.05336818 -0.02850699
v -0.06823693 -0.05350983 -0.02699351
v -0.06909439 -0.05235978 -0.02705213
v -0.07082469 -0.04986071 -0.02358285
v -0.07117656 -0.04929749 -0.02358285
v -0.06958462 -0.05179994 -0.02358285
v -0.07129442 -0.04910526 -0.02358285
v -0.06906535 -0.05256888 -0.02397188
v -0.06830696 -0.05358403 -0.02548269
v -0.06906194 -0.05256214 -0.02548269
v -0.05901493 -0.05932414 -0.03387345
v -0.05883216 -0.05950963 -0.03368960
v -0.05883216 -0.05979293 -0.03300480
v -0.06687216 -0.05514553 -0.02358285
v -0.06763910 -0.05433274 -0.02397188
v -0.06830867 -0.05357728 -0.02397188
v -0.05883216 -0.05937473 -0.03399336
v -0.06907219 -0.05251829 -0.02358285
v -0.06762714 -0.05430913 -0.02358285
v -0.06812419 -0.05374928 -0.02358285
v -0.06829159 -0.05355367 -0.02358285
v -0.06850681 -0.05327038 -0.02358285
f 1 2 3
f 1 3 4
f 1 4 5
f 1 5 6
f 1 6 15
f 1 15 14
f 1 14 30
f 1 30 50
f 1 50 74
f 1 74 108
f 1 108 109
f 1 109 153
f 1 153 154
f 1 154 203
f 1 203 269
f 1 269 319
f 1 319 318
f 1 318 317
f 1 317 352
f 1 352 351
f 1 351 401
f 1 401 403
f 1 403 461
f 1 461 462
f 1 462 513
f 1 513 512
f 1 512 560
f 1 560 559
f 1 559 607
f 1 607 638
f 1 638 636
f 1 636 635
f 1 635 637
f 1 637 649
f 1 649 653
f 1 653 652
f 1 652 651
f 1 651 650
f 1 650 645
f 1 645 621
f 1 621 578
f 1 578 533
f 1 533 488
f 1 488 487
f 1 487 432
f 1 432 375
f 1 375 323
f 1 323 272
f 1 272 206
f 1 206 157
f 1 157 112
f 1 112 77
f 1 77 53
f 1 53 33
f 1 33 16
f 1 16 7
f 1 7 8
f 1 8 9
f 1 9 2
f 2 10 3
f 2 9 10
f 3 10 11
f 3 11 12
f 3 12 5
f 3 5 4
f 5 13 14
f 5 14 15
f 5 15 6
f 5 12 13
f 7 16 8
f 8 17 34
f 8 34 55
f 8 55 54
f 8 54 81
f 8 81 80
f 8 80 79
f 8 79 78
f 8 78 112
f 8 112 157
f 8 157 207
f 8 207 271
f 8 271 321
f 8 321 373
f 8 373 374
f 8 374 431
f 8 431 486
f 8 486 485
f 8 485 484
f 8 484 530
f 8 530 532
f 8 532 574
f 8 574 617
f 8 617 616
f 8 616 644
f 8 644 643
f 8 643 648
f 8 648 627
f 8 627 626
f 8 626 610
f 8 610 609
f 8 609 608
f 8 608 562
f 8 562 561
f 8 561 515
f 8 515 466
f 8 466 415
f 8 415 414
f 8 414 465
f 8 465 412
f 8 412 464
f 8 464 463
f 8 463 405
f 8 405 404
f 8 404 353
f 8 353 298
f 8 298 243
f 8 243 297
f 8 297 241
f 8 241 240
f 8 240 239
f 8 239 208
f 8 208 158
f 8 158 113
f 8 113 82
f 8 82 59
f 8 59 58
f 8 58 37
f 8 37 19
f 8 19 9
f 8 16 17
f 9 18 10
f 9 19 20
f 9 20 21
f 9 21 18
f 10 22 11
f 10 18 23
f 10 23 24
f 10 24 22
f 11 22 24
f 11 24 25
f 11 25 26
f 11 26 12
f 12 26 27
f 12 27 28
f 12 28 13
f 13 29 30
f 13 30 31
f 13 31 14
f 13 28 32
f 13 32 29
f 14 31 30
f 16 33 17
f 17 33 34
f 18 21 35
f 18 35 23
f 19 36 20
f 19 37 38
f 19 38 36
f 20 36 39
f 20 39 25
f 20 25 40
f 20 40 35
f 20 35 21
f 23 35 24
f 24 35 25
f 25 41 42
f 25 42 43
f 25 43 44
f 25 44 27
f 25 27 26
f 25 35 40
f 25 39 45
f 25 45 46
f 25 46 41
f 27 44 28
f 28 44 32
f 29 32 47
f 29 47 48
f 29 48 49
f 29 49 30
f 30 49 50
f 32 44 51
f 32 51 52
f 32 52 47
f 33 53 54
f 33 54 55
f 33 55 34
f 36 56 39
f 36 38 57
f 36 57 56
f 37 58 38
f 38 58 59
f 38 59 57
f 39 56 45
f 41 60 42
f 41 46 61
f 41 61 62
f 41 62 60
f 42 60 63
f 42 63 64
f 42 64 65
f 42 65 66
f 42 66 44
f 42 44 43
f 44 52 51
f 44 66 67
f 44 67 52
f 45 68 84
f 45 84 69
f 45 69 46
f 45 56 70
f 45 70 99
f 45 99 68
f 46 69 61
f 47 52 48
f 48 52 71
f 48 71 72
f 48 72 73
f 48 73 49
f 49 73 74
f 49 74 50
f 52 67 75
f 52 75 76
f 52 76 71
f 53 77 78
f 53 78 79
f 53 79 80
f 53 80 81
f 53 81 54
f 56 57 70
f 57 59 70
f 59 82 70
f 60 62 63
f 61 83 62
f 61 69 84
f 61 84 85
f 61 85 83
f 62 83 86
f 62 86 87
f 62 87 88
f 62 88 89
f 62 89 63
f 63 89 90
f 63 90 91
f 63 91 64
f 64 92 65
f 64 91 92
f 65 93 66
f 65 92 94
f 65 94 95
f 65 95 93
f 66 93 67
f 67 93 96
f 67 96 97
f 67 97 75
f 68 98 84
f 68 99 100
f 68 100 101
f 68 101 98
f 70 82 102
f 70 102 103
f 70 103 142
f 70 142 99
f 71 76 104
f 71 104 105
f 71 105 72
f 72 106 73
f 72 105 107
f 72 107 106
f 73 108 74
f 73 106 109
f 73 109 108
f 75 97 110
f 75 110 76
f 76 110 111
f 76 111 104
f 77 112 78
f 82 113 102
f 83 85 114
f 83 114 86
f 84 98 115
f 84 115 116
f 84 116 117
f 84 117 118
f 84 118 119
f 84 119 120
f 84 120 121
f 84 121 122
f 84 122 85
f 85 122 123
f 85 123 114
f 86 114 124
f 86 124 87
f 87 124 125
f 87 125 126
f 87 126 127
f 87 127 128
f 87 128 129
f 87 129 130
f 87 130 131
f 87 131 88
f 88 131 89
f 89 131 90
f 90 131 132
f 90 132 91
f 91 132 133
f 91 133 92
f 92 133 134
f 92 134 94
f 93 95 135
f 93 135 136
f 93 136 96
f 94 137 95
f 94 134 138
f 94 138 137
f 95 137 139
f 95 139 135
f 96 136 97
f 97 136 140
f 97 140 141
f 97 141 110
f 98 101 115
f 99 142 143
f 99 143 144
f 99 144 100
f 100 144 143
f 100 143 145
f 100 145 146
f 100 146 101
f 101 146 147
f 101 147 148
f 101 148 149
f 101 149 115
f 102 113 158
f 102 158 150
f 102 150 142
f 102 142 103
f 104 111 151
f 104 151 105
f 105 151 152
f 105 152 107
f 106 107 153
f 106 153 109
f 107 152 154
f 107 154 153
f 110 141 155
f 110 155 111
f 111 155 156
f 111 156 151
f 114 123 124
f 115 149 116
f 116 149 159
f 116 159 117
f 117 159 118
f 118 159 160
f 118 160 119
f 119 161 120
f 119 160 159
f 119 159 162
f 119 162 163
f 119 163 164
f 119 164 165
f 119 165 166
f 119 166 161
f 120 161 122
f 120 122 121
f 122 161 167
f 122 167 123
f 123 167 124
f 124 167 168
f 124 168 125
f 125 168 126
f 126 168 127
f 127 169 128
f 127 168 170
f 127 170 171
f 127 171 169
f 128 169 172
f 128 172 129
f 129 172 173
f 129 173 174
f 129 174 175
f 129 175 130
f 130 175 131
f 131 176 132
f 131 175 176
f 132 176 177
f 132 177 133
f 133 177 134
f 134 177 178
f 134 178 179
f 134 179 138
f 135 139 136
f 136 139 180
f 136 180 140
f 137 138 139
f 138 179 181
f 138 181 182
f 138 182 139
f 139 182 180
f 140 180 183
f 140 183 141
f 141 183 184
f 141 184 185
f 141 185 155
f 142 150 186
f 142 186 187
f 142 187 188
f 142 188 189
f 142 189 190
f 142 190 191
f 142 191 192
f 142 192 143
f 143 192 193
f 143 193 194
f 143 194 145
f 145 194 146
f 146 194 195
f 146 195 147
f 147 195 196
f 147 196 148
f 148 197 149
f 148 196 198
f 148 198 199
f 148 199 200
f 148 200 197
f 149 197 159
f 150 158 186
f 151 156 201
f 151 201 202
f 151 202 152
f 152 202 203
f 152 203 154
f 155 185 204
f 155 204 205
f 155 205 156
f 156 205 201
f 157 206 207
f 158 208 186
f 159 197 209
f 159 209 163
f 159 163 162
f 161 166 167
f 163 209 210
f 163 210 211
f 163 211 164
f 164 211 165
f 165 212 166
f 165 211 213
f 165 213 214
f 165 214 215
f 165 215 212
f 166 212 167
f 167 212 168
f 168 212 216
f 168 216 170
f 169 171 172
f 170 214 217
f 170 217 218
f 170 218 219
f 170 219 220
f 170 220 171
f 170 216 221
f 170 221 214
f 171 220 222
f 171 222 172
f 172 222 173
f 173 223 175
f 173 175 174
f 173 222 224
f 173 224 225
f 173 225 223
f 175 223 226
f 175 226 227
f 175 227 176
f 176 227 177
f 177 227 178
f 178 227 228
f 178 228 179
f 179 228 229
f 179 229 230
f 179 230 231
f 179 231 181
f 180 182 232
f 180 232 233
f 180 233 183
f 181 232 182
f 181 231 234
f 181 234 232
f 183 233 235
f 183 235 236
f 183 236 184
f 184 236 237
f 184 237 185
f 185 237 238
f 185 238 204
f 186 208 239
f 186 239 240
f 186 240 241
f 186 241 188
f 186 188 187
f 188 241 242
f 188 242 189
f 189 242 243
f 189 243 244
f 189 244 245
f 189 245 246
f 189 246 247
f 189 247 248
f 189 248 190
f 190 248 249
f 190 249 191
f 191 249 192
f 192 249 193
f 193 249 194
f 194 196 195
f 194 249 250
f 194 250 251
f 194 251 252
f 194 252 253
f 194 253 254
f 194 254 196
f 196 254 255
f 196 255 198
f 197 200 209
f 198 255 256
f 198 256 252
f 198 252 257
f 198 257 258
f 198 258 259
f 198 259 260
f 198 260 261
f 198 261 262
f 198 262 263
f 198 263 199
f 199 263 262
f 199 262 264
f 199 264 265
f 199 265 200
f 200 265 209
f 201 205 204
f 201 204 238
f 201 238 266
f 201 266 267
f 201 267 268
f 201 268 202
f 202 268 203
f 203 268 269
f 206 270 271
f 206 271 207
f 206 272 273
f 206 273 270
f 209 265 210
f 210 274 211
f 210 265 264
f 210 264 262
f 210 262 275
f 210 275 276
f 210 276 274
f 211 274 213
f 212 215 214
f 212 214 221
f 212 221 216
f 213 274 277
f 213 277 214
f 214 277 278
f 214 278 279
f 214 279 217
f 217 279 218
f 218 279 280
f 218 280 281
f 218 281 219
f 219 281 220
f 220 281 282
f 220 282 283
f 220 283 284
f 220 284 222
f 222 284 285
f 222 285 224
f 223 225 286
f 223 286 226
f 224 287 225
f 224 285 287
f 225 287 288
f 225 288 286
f 226 228 227
f 226 286 228
f 228 286 289
f 228 289 230
f 228 230 229
f 230 289 286
f 230 286 290
f 230 290 291
f 230 291 231
f 231 291 234
f 232 235 233
f 232 234 292
f 232 292 235
f 234 291 293
f 234 293 292
f 235 237 236
f 235 292 294
f 235 294 237
f 237 294 238
f 238 294 295
f 238 295 296
f 238 296 266
f 241 297 242
f 242 297 243
f 243 245 244
f 243 298 299
f 243 299 245
f 245 299 300
f 245 300 246
f 246 300 301
f 246 301 302
f 246 302 303
f 246 303 247
f 247 304 248
f 247 303 304
f 248 250 249
f 248 304 250
f 250 304 251
f 251 304 303
f 251 303 305
f 251 305 252
f 252 256 253
f 252 305 306
f 252 306 307
f 252 307 308
f 252 308 258
f 252 258 257
f 253 256 255
f 253 255 254
f 258 308 309
f 258 309 310
f 258 310 259
f 259 310 260
f 260 311 262
f 260 262 261
f 260 310 312
f 260 312 313
f 260 313 314
f 260 314 311
f 262 276 275
f 262 311 315
f 262 315 316
f 262 316 276
f 266 317 318
f 266 318 319
f 266 319 267
f 266 296 352
f 266 352 317
f 267 319 268
f 268 319 269
f 270 273 320
f 270 320 271
f 271 320 322
f 271 322 321
f 272 323 273
f 273 323 324
f 273 324 320
f 274 276 277
f 276 316 315
f 276 315 325
f 276 325 326
f 276 326 327
f 276 327 278
f 276 278 277
f 278 327 328
f 278 328 279
f 279 328 280
f 280 328 329
f 280 329 281
f 281 329 330
f 281 330 331
f 281 331 332
f 281 332 333
f 281 333 282
f 282 333 283
f 283 333 334
f 283 334 335
f 283 335 336
f 283 336 285
f 283 285 284
f 285 336 335
f 285 335 287
f 286 288 337
f 286 337 290
f 287 338 339
f 287 339 340
f 287 340 288
f 287 335 341
f 287 341 338
f 288 340 342
f 288 342 337
f 290 337 343
f 290 343 291
f 291 343 293
f 292 293 344
f 292 344 345
f 292 345 294
f 293 343 346
f 293 346 344
f 294 345 347
f 294 347 348
f 294 348 295
f 295 348 349
f 295 349 350
f 295 350 296
f 296 350 351
f 296 351 352
f 298 353 299
f 299 353 354
f 299 354 300
f 300 354 355
f 300 355 301
f 301 307 302
f 301 355 356
f 301 356 307
f 302 307 303
f 303 307 306
f 303 306 305
f 307 356 308
f 308 357 358
f 308 358 359
f 308 359 309
f 308 356 355
f 308 355 360
f 308 360 361
f 308 361 362
f 308 362 357
f 309 359 310
f 310 359 312
f 311 314 315
f 312 359 363
f 312 363 313
f 313 363 364
f 313 364 365
f 313 365 366
f 313 366 367
f 313 367 368
f 313 368 369
f 313 369 314
f 314 369 315
f 315 369 368
f 315 368 325
f 320 324 370
f 320 370 371
f 320 371 372
f 320 372 322
f 321 322 373
f 322 372 374
f 322 374 373
f 323 375 324
f 324 375 376
f 324 376 370
f 325 368 326
f 326 368 327
f 327 368 377
f 327 377 329
f 327 329 328
f 329 378 330
f 329 377 368
f 329 368 379
f 329 379 380
f 329 380 381
f 329 381 378
f 330 378 382
f 330 382 383
f 330 383 331
f 331 384 332
f 331 383 382
f 331 382 384
f 332 334 333
f 332 384 385
f 332 385 334
f 334 385 335
f 335 386 341
f 335 385 387
f 335 387 388
f 335 388 389
f 335 389 386
f 337 342 390
f 337 390 391
f 337 391 343
f 338 341 339
f 339 392 342
f 339 342 340
f 339 341 392
f 341 386 392
f 342 392 393
f 342 393 394
f 342 394 395
f 342 395 390
f 343 391 346
f 344 346 396
f 344 396 345
f 345 396 397
f 345 397 398
f 345 398 347
f 346 391 399
f 346 399 400
f 346 400 396
f 347 349 348
f 347 398 349
f 349 401 350
f 349 398 402
f 349 402 403
f 349 403 401
f 350 401 351
f 353 404 354
f 354 404 405
f 354 405 406
f 354 406 407
f 354 407 355
f 355 407 360
f 357 408 358
f 357 362 409
f 357 409 410
f 357 410 408
f 358 408 359
f 359 408 364
f 359 364 363
f 360 407 361
f 361 407 406
f 361 406 411
f 361 411 362
f 362 411 412
f 362 412 413
f 362 413 414
f 362 414 415
f 362 415 416
f 362 416 417
f 362 417 418
f 362 418 409
f 364 408 410
f 364 410 418
f 364 418 419
f 364 419 420
f 364 420 421
f 364 421 365
f 365 421 366
f 366 368 367
f 366 421 422
f 366 422 423
f 366 423 368
f 368 380 379
f 368 423 380
f 370 376 424
f 370 424 425
f 370 425 371
f 371 425 426
f 371 426 427
f 371 427 428
f 371 428 429
f 371 429 430
f 371 430 372
f 372 430 431
f 372 431 374
f 375 432 433
f 375 433 434
f 375 434 376
f 376 434 435
f 376 435 436
f 376 436 424
f 378 381 437
f 378 437 382
f 380 423 438
f 380 438 381
f 381 438 423
f 381 423 439
f 381 439 440
f 381 440 441
f 381 441 442
f 381 442 437
f 382 443 384
f 382 437 444
f 382 444 443
f 384 443 445
f 384 445 387
f 384 387 385
f 386 389 446
f 386 446 447
f 386 447 448
f 386 448 393
f 386 393 392
f 387 445 449
f 387 449 388
f 388 449 446
f 388 446 389
f 390 395 399
f 390 399 391
f 393 448 450
f 393 450 451
f 393 451 452
f 393 452 394
f 394 452 451
f 394 451 453
f 394 453 454
f 394 454 455
f 394 455 395
f 395 456 399
f 395 455 456
f 396 400 457
f 396 457 397
f 397 457 398
f 398 457 458
f 398 458 459
f 398 459 460
f 398 460 402
f 399 458 400
f 399 456 458
f 400 458 457
f 402 461 403
f 402 460 462
f 402 462 461
f 405 463 406
f 406 463 464
f 406 464 411
f 409 418 410
f 411 464 412
f 412 465 413
f 413 465 414
f 415 466 416
f 416 466 467
f 416 467 468
f 416 468 469
f 416 469 417
f 417 469 418
f 418 469 470
f 418 470 471
f 418 471 419
f 419 471 420
f 420 471 470
f 420 470 472
f 420 472 473
f 420 473 474
f 420 474 423
f 420 423 422
f 420 422 421
f 423 474 473
f 423 473 475
f 423 475 439
f 424 436 425
f 425 427 426
f 425 436 476
f 425 476 477
f 425 477 427
f 427 478 428
f 427 477 479
f 427 479 480
f 427 480 478
f 428 478 481
f 428 481 429
f 429 482 430
f 429 481 483
f 429 483 482
f 430 482 484
f 430 484 485
f 430 485 486
f 430 486 431
f 432 487 433
f 433 487 488
f 433 488 489
f 433 489 435
f 433 435 434
f 435 489 490
f 435 490 476
f 435 476 436
f 437 442 444
f 439 475 440
f 440 475 491
f 440 491 492
f 440 492 493
f 440 493 441
f 441 493 494
f 441 494 442
f 442 495 496
f 442 496 444
f 442 494 497
f 442 497 495
f 443 449 445
f 443 444 496
f 443 496 449
f 446 498 447
f 446 449 499
f 446 499 500
f 446 500 501
f 446 501 498
f 447 498 502
f 447 502 448
f 448 502 450
f 449 496 499
f 450 502 451
f 451 502 503
f 451 503 453
f 453 503 504
f 453 504 505
f 453 505 454
f 454 505 455
f 455 505 506
f 455 506 507
f 455 507 456
f 456 508 458
f 456 507 508
f 458 508 459
f 459 508 509
f 459 509 510
f 459 510 511
f 459 511 460
f 460 511 512
f 460 512 513
f 460 513 462
f 466 514 468
f 466 468 467
f 466 515 514
f 468 514 515
f 468 515 516
f 468 516 517
f 468 517 518
f 468 518 519
f 468 519 520
f 468 520 470
f 468 470 469
f 470 521 472
f 470 520 519
f 470 519 521
f 472 521 473
f 473 521 519
f 473 519 522
f 473 522 491
f 473 491 523
f 473 523 475
f 475 523 491
f 476 490 524
f 476 524 479
f 476 479 477
f 478 480 525
f 478 525 481
f 479 524 526
f 479 526 525
f 479 525 480
f 481 527 483
f 481 525 528
f 481 528 529
f 481 529 527
f 482 530 484
f 482 483 531
f 482 531 532
f 482 532 530
f 483 527 531
f 488 533 489
f 489 533 534
f 489 534 490
f 490 534 535
f 490 535 536
f 490 536 524
f 491 537 538
f 491 538 539
f 491 539 540
f 491 540 492
f 491 522 537
f 492 540 493
f 493 540 541
f 493 541 542
f 493 542 494
f 494 542 497
f 495 497 496
f 496 497 543
f 496 543 500
f 496 500 499
f 497 542 544
f 497 544 545
f 497 545 546
f 497 546 543
f 498 547 502
f 498 501 547
f 500 543 545
f 500 545 548
f 500 548 549
f 500 549 501
f 501 549 550
f 501 550 547
f 502 547 503
f 503 547 551
f 503 551 504
f 504 552 553
f 504 553 505
f 504 551 554
f 504 554 555
f 504 555 552
f 505 553 506
f 506 556 507
f 506 553 556
f 507 556 508
f 508 556 557
f 508 557 509
f 509 557 558
f 509 558 510
f 510 558 559
f 510 559 560
f 510 560 511
f 511 560 512
f 515 561 516
f 516 561 562
f 516 562 563
f 516 563 517
f 517 563 564
f 517 564 565
f 517 565 519
f 517 519 518
f 519 565 537
f 519 537 522
f 524 536 566
f 524 566 526
f 525 526 567
f 525 567 568
f 525 568 569
f 525 569 570
f 525 570 571
f 525 571 528
f 526 566 567
f 527 572 573
f 527 573 574
f 527 574 532
f 527 532 531
f 527 529 575
f 527 575 572
f 528 571 529
f 529 571 576
f 529 576 577
f 529 577 575
f 533 578 579
f 533 579 534
f 534 579 580
f 534 580 581
f 534 581 535
f 535 581 582
f 535 582 583
f 535 583 536
f 536 583 584
f 536 584 585
f 536 585 566
f 537 565 538
f 538 564 586
f 538 586 587
f 538 587 539
f 538 565 564
f 539 587 540
f 540 587 588
f 540 588 541
f 541 588 589
f 541 589 542
f 542 590 544
f 542 589 591
f 542 591 590
f 543 546 545
f 544 590 545
f 545 590 592
f 545 592 548
f 547 550 593
f 547 593 551
f 548 594 595
f 548 595 596
f 548 596 549
f 548 592 569
f 548 569 568
f 548 568 594
f 549 597 550
f 549 596 598
f 549 598 597
f 550 597 598
f 550 598 599
f 550 599 593
f 551 593 600
f 551 600 554
f 552 601 602
f 552 602 553
f 552 555 603
f 552 603 604
f 552 604 601
f 553 602 558
f 553 558 556
f 554 600 605
f 554 605 555
f 555 605 606
f 555 606 603
f 556 558 557
f 558 607 559
f 558 602 607
f 562 608 563
f 563 608 609
f 563 609 610
f 563 610 611
f 563 611 586
f 563 586 612
f 563 612 564
f 564 612 586
f 566 585 594
f 566 594 567
f 567 594 568
f 569 592 570
f 570 613 614
f 570 614 571
f 570 592 590
f 570 590 613
f 571 614 576
f 572 615 616
f 572 616 617
f 572 617 573
f 572 575 577
f 572 577 618
f 572 618 619
f 572 619 615
f 573 617 574
f 576 614 613
f 576 613 577
f 577 613 589
f 577 589 620
f 577 620 618
f 578 621 622
f 578 622 579
f 579 622 623
f 579 623 580
f 580 623 582
f 580 582 581
f 582 623 624
f 582 624 584
f 582 584 583
f 584 624 625
f 584 625 594
f 584 594 585
f 586 611 626
f 586 626 627
f 586 627 628
f 586 628 629
f 586 629 630
f 586 630 587
f 587 631 588
f 587 630 620
f 587 620 631
f 588 631 620
f 588 620 589
f 589 613 591
f 590 591 613
f 593 599 600
f 594 625 598
f 594 598 595
f 595 598 596
f 598 625 632
f 598 632 599
f 599 632 600
f 600 632 633
f 600 633 634
f 600 634 605
f 601 635 636
f 601 636 602
f 601 604 637
f 601 637 635
f 602 636 638
f 602 638 607
f 603 637 604
f 603 606 639
f 603 639 637
f 605 634 640
f 605 640 641
f 605 641 606
f 606 641 639
f 610 626 611
f 615 619 642
f 615 642 643
f 615 643 644
f 615 644 616
f 618 620 629
f 618 629 619
f 619 629 642
f 620 630 629
f 621 645 646
f 621 646 622
f 622 646 623
f 623 646 647
f 623 647 640
f 623 640 624
f 624 640 633
f 624 633 625
f 625 633 632
f 627 648 642
f 627 642 628
f 628 642 629
f 633 640 634
f 637 639 649
f 639 641 640
f 639 640 647
f 639 647 649
f 642 648 643
f 645 650 646
f 646 650 651
f 646 651 647
f 647 652 653
f 647 653 649
f 647 651 652

