# https://github.com/mikedh/trimesh
v -0.01072240 -0.02074364 -0.00573228
v -0.01072240 -0.01971905 -0.00619606
v -0.01783373 -0.01949307 -0.00540523
v -0.01758108 -0.01971338 -0.00540523
v -0.01698813 -0.02073878 -0.00540523
v -0.01698710 -0.02075093 -0.00540523
v -0.01720572 -0.02722003 -0.00540523
v -0.01072240 -0.02722003 -0.00653078
v -0.02040768 -0.01895283 -0.00540523
v -0.01946823 -0.01907271 -0.00540523
v -0.01072240 -0.01971905 -0.00723301
v -0.02125741 -0.02722003 -0.00540523
v -0.01072240 -0.02722003 -0.01622426
v -0.02098001 -0.01894798 -0.00540523
v -0.01072240 -0.02003655 -0.00798885
v -0.02040768 -0.01970852 -0.00723301
v -0.02125741 -0.01937806 -0.00644546
v -0.02125741 -0.01894635 -0.00540523
v -0.02125741 -0.02722003 -0.01089842
v -0.02125741 -0.02378259 -0.01230618
v -0.02125741 -0.02309575 -0.01258510
v -0.01072240 -0.02618086 -0.01653272
v -0.02125741 -0.02003655 -0.00798885
v -0.02125741 -0.01985188 -0.00756444
v -0.01072240 -0.02020016 -0.00834106
v -0.02125741 -0.02148475 -0.01114782
v -0.02125741 -0.01970852 -0.00723301
v -0.02125741 -0.02292727 -0.01255448
v -0.02118316 -0.02300179 -0.01263542
v -0.02118316 -0.02302285 -0.01263542
v -0.01072240 -0.02529234 -0.01657866
v -0.01072240 -0.02043829 -0.00885297
v -0.01072240 -0.02072582 -0.00946879
v -0.01072240 -0.02128874 -0.01067310
v -0.01072240 -0.02149852 -0.01112156
v -0.01072240 -0.02164431 -0.01143002
v -0.01072240 -0.02185814 -0.01187740
v -0.01072240 -0.02216025 -0.01249213
v -0.01072240 -0.02260167 -0.01338688
v -0.01285085 -0.02260329 -0.01338688
v -0.01072240 -0.02315163 -0.01447524
v -0.01285085 -0.02299936 -0.01416459
v -0.01387589 -0.02300341 -0.01415475
v -0.01072240 -0.02421672 -0.01618598
v -0.02125741 -0.02168400 -0.01138736
v -0.02125741 -0.02257656 -0.01226899
v -0.02040768 -0.02286167 -0.01273605
v -0.01072240 -0.02475777 -0.01648131
v -0.01072240 -0.02374614 -0.01551218
v -0.01889590 -0.02267295 -0.01291981
f 1 2 3
f 1 3 4
f 1 4 5
f 1 5 6
f 1 6 7
f 1 7 8
f 1 8 13
f 1 13 22
f 1 22 31
f 1 31 48
f 1 48 44
f 1 44 49
f 1 49 41
f 1 41 39
f 1 39 38
f 1 38 37
f 1 37 36
f 1 36 35
f 1 35 34
f 1 34 33
f 1 33 32
f 1 32 25
f 1 25 15
f 1 15 11
f 1 11 2
f 2 9 10
f 2 10 3
f 2 11 9
f 3 10 9
f 3 9 14
f 3 14 18
f 3 18 12
f 3 12 7
f 3 7 6
f 3 6 5
f 3 5 4
f 7 12 19
f 7 19 13
f 7 13 8
f 9 11 14
f 11 15 16
f 11 16 17
f 11 17 18
f 11 18 14
f 12 18 17
f 12 17 27
f 12 27 24
f 12 24 23
f 12 23 26
f 12 26 45
f 12 45 46
f 12 46 28
f 12 28 21
f 12 21 20
f 12 20 19
f 13 19 20
f 13 20 21
f 13 21 22
f 15 23 24
f 15 24 16
f 15 25 26
f 15 26 23
f 16 24 27
f 16 27 17
f 21 28 29
f 21 29 30
f 21 30 22
f 22 30 31
f 25 32 26
f 26 32 33
f 26 33 34
f 26 34 35
f 26 35 36
f 26 36 37
f 26 37 38
f 26 38 39
f 26 39 40
f 26 40 41
f 26 41 42
f 26 42 43
f 26 43 44
f 26 44 45
f 28 46 47
f 28 47 29
f 29 47 44
f 29 44 48
f 29 48 31
f 29 31 30
f 39 41 40
f 41 49 43
f 41 43 42
f 43 49 44
f 44 47 50
f 44 50 45
f 45 50 46
f 46 50 47

