# https://github.com/mikedh/trimesh
v -0.05883216 -0.04842307 -0.03315147
v -0.05883216 -0.03731805 -0.03988887
v -0.05883216 -0.05973369 -0.03315147
v -0.05341311 -0.05570905 -0.03315147
v -0.05883216 -0.03695568 -0.04011283
v -0.05883216 -0.05951010 -0.03368897
v -0.05829641 -0.06005494 -0.03315147
v -0.05341311 -0.06238080 -0.03315147
v -0.05341311 -0.03861076 -0.04527880
v -0.05883216 -0.03653162 -0.04050103
v -0.05341311 -0.03804279 -0.04572858
v -0.05883216 -0.05937389 -0.03399318
v -0.05711351 -0.06063063 -0.03339036
v -0.05763865 -0.06043274 -0.03315147
v -0.05389157 -0.06218292 -0.03315147
v -0.05341311 -0.06225230 -0.03348367
v -0.05870485 -0.03634915 -0.04093028
v -0.05883216 -0.03627719 -0.04086869
v -0.05341311 -0.03804279 -0.04614290
v -0.05740525 -0.03658816 -0.04280780
v -0.05883216 -0.03612556 -0.04147524
v -0.05883216 -0.05898839 -0.03481809
v -0.05860301 -0.05909633 -0.03487968
v -0.05664194 -0.06035307 -0.03451202
v -0.05610619 -0.06088763 -0.03398198
v -0.05653585 -0.06100842 -0.03315147
v -0.05686049 -0.06084908 -0.03315147
v -0.05814045 -0.05955893 -0.03444669
v -0.05528877 -0.06157382 -0.03315147
v -0.05341311 -0.06189764 -0.03429739
v -0.05366772 -0.03800167 -0.04623809
v -0.05740525 -0.03658816 -0.04297763
v -0.05341311 -0.03826381 -0.04718991
v -0.05883216 -0.03619752 -0.04217885
v -0.05883216 -0.05876994 -0.03524361
v -0.05814045 -0.05876994 -0.03600320
v -0.05759516 -0.05937389 -0.03545824
v -0.05558847 -0.06064862 -0.03498979
v -0.05512221 -0.06107267 -0.03451202
v -0.05341311 -0.06182311 -0.03445229
v -0.05352980 -0.06179484 -0.03441310
v -0.05883216 -0.03627976 -0.04272381
v -0.05341311 -0.03861076 -0.04815666
v -0.05517896 -0.03787317 -0.04651057
v -0.05883216 -0.05834589 -0.03603866
v -0.05883216 -0.05798865 -0.03669561
v -0.05707585 -0.05909890 -0.03646605
v -0.05661913 -0.05959234 -0.03600320
v -0.05458062 -0.06086964 -0.03543771
v -0.05606853 -0.05936361 -0.03692703
v -0.05512221 -0.06032994 -0.03599014
v -0.05341311 -0.06123715 -0.03562247
v -0.05883216 -0.03662671 -0.04366444
v -0.05820199 -0.03817129 -0.04731495
v -0.05669021 -0.03817900 -0.04729069
v -0.05517896 -0.03818671 -0.04726643
v -0.05341311 -0.03872641 -0.04837129
v -0.05883216 -0.03703535 -0.04468904
v -0.05883216 -0.05784987 -0.03693449
v -0.05820199 -0.05802977 -0.03722191
v -0.05743549 -0.05777534 -0.03832490
v -0.05366772 -0.06064605 -0.03652950
v -0.05366772 -0.06105982 -0.03577365
v -0.05517896 -0.05908091 -0.03801323
v -0.05438223 -0.05927366 -0.03830437
v -0.05517896 -0.05957178 -0.03725737
v -0.05341311 -0.06111636 -0.03585390
v -0.05883216 -0.03819442 -0.04728322
v -0.05883216 -0.03802737 -0.04696782
v -0.05883216 -0.03757762 -0.04596560
v -0.05341311 -0.03929953 -0.04941643
v -0.05366772 -0.04032753 -0.05118009
v -0.05669021 -0.03980325 -0.05012189
v -0.05820199 -0.03984694 -0.05009203
v -0.05883216 -0.03967989 -0.04976916
v -0.05820199 -0.05754147 -0.03797777
v -0.05883216 -0.05689126 -0.03834170
v -0.05763017 -0.05637983 -0.03998219
v -0.05683502 -0.05747979 -0.03915541
v -0.05570623 -0.05767768 -0.03970224
v -0.05642764 -0.05801950 -0.03869443
v -0.05883216 -0.05657258 -0.03877655
v -0.05863801 -0.05607400 -0.03959026
v -0.05341311 -0.06069488 -0.03662095
v -0.05379397 -0.05989046 -0.03771088
v -0.05341311 -0.06027340 -0.03733015
v -0.05341311 -0.05944328 -0.03866084
v -0.05341311 -0.05948440 -0.03860298
v -0.05341311 -0.05953066 -0.03853020
v -0.05341311 -0.04042519 -0.05135553
v -0.05366772 -0.04092377 -0.05216738
v -0.05517896 -0.04100087 -0.05206846
v -0.05610672 -0.04109339 -0.05197888
v -0.05883216 -0.03995231 -0.05008270
v -0.05669021 -0.05665482 -0.04028827
v -0.05879290 -0.05465535 -0.04124009
v -0.05778506 -0.05495347 -0.04156856
v -0.05469838 -0.05789613 -0.03998966
v -0.05585051 -0.05622306 -0.04130728
v -0.05527445 -0.05707887 -0.04064847
v -0.05366772 -0.05750292 -0.04101800
v -0.05883216 -0.05599690 -0.03952681
v -0.05883216 -0.05582727 -0.03974703
v -0.05341311 -0.06005751 -0.03768475
v -0.05341311 -0.05899353 -0.03925246
v -0.05341311 -0.04092120 -0.05217671
v -0.05341311 -0.04108825 -0.05220657
v -0.05341311 -0.04199290 -0.05221777
v -0.05517896 -0.04155857 -0.05206846
v -0.05610672 -0.04126559 -0.05197888
v -0.05883216 -0.04158427 -0.05080310
v -0.05883216 -0.04070789 -0.05078630
v -0.05883216 -0.04039178 -0.05056048
v -0.05669021 -0.05600460 -0.04104413
v -0.05883216 -0.05464507 -0.04121956
v -0.05883216 -0.05460909 -0.04125875
v -0.05883216 -0.05312619 -0.04274807
v -0.05879025 -0.05313904 -0.04276300
v -0.05828739 -0.05405654 -0.04216578
v -0.05694907 -0.05446260 -0.04257637
v -0.05594175 -0.05476072 -0.04286938
v -0.05654328 -0.05515136 -0.04208740
v -0.05366772 -0.05811459 -0.04026214
v -0.05341311 -0.05832533 -0.04012963
v -0.05484266 -0.05647749 -0.04158909
v -0.05341311 -0.05755689 -0.04108332
v -0.05366772 -0.05674734 -0.04187464
v -0.05341311 -0.04222420 -0.05215805
v -0.05374463 -0.04201603 -0.05216738
v -0.05341311 -0.04259685 -0.05205540
v -0.05341311 -0.04278446 -0.05200128
v -0.05430002 -0.04259171 -0.05191169
v -0.05517896 -0.04231415 -0.05178851
v -0.05664194 -0.04182328 -0.05158135
v -0.05883216 -0.04182842 -0.05080310
v -0.05883216 -0.05235776 -0.04347780
v -0.05826511 -0.05253252 -0.04365884
v -0.05778240 -0.05345515 -0.04307095
v -0.05517896 -0.05493805 -0.04303922
v -0.05366772 -0.05603545 -0.04263050
v -0.05773997 -0.05192600 -0.04454160
v -0.05669021 -0.05297456 -0.04412168
v -0.05584043 -0.05319558 -0.04433631
v -0.05527391 -0.05396916 -0.04388653
v -0.05341311 -0.05699920 -0.04171227
v -0.05341311 -0.05608942 -0.04268462
v -0.05341311 -0.04295665 -0.05190983
v -0.05374463 -0.04335758 -0.05162801
v -0.05405654 -0.04554466 -0.05034025
v -0.05517896 -0.04342183 -0.05122675
v -0.05664194 -0.04346038 -0.05076017
v -0.05786728 -0.04298235 -0.05059780
v -0.05830383 -0.04202117 -0.05091694
v -0.05883216 -0.04261741 -0.05039811
v -0.05883216 -0.05154306 -0.04423179
v -0.05874782 -0.05158418 -0.04424859
v -0.05366772 -0.05527986 -0.04336209
v -0.05366772 -0.05447288 -0.04411795
v -0.05855739 -0.04998050 -0.04568752
v -0.05754954 -0.05028376 -0.04593761
v -0.05669021 -0.05129120 -0.04554755
v -0.05669021 -0.05221898 -0.04479169
v -0.05524421 -0.05252224 -0.04516309
v -0.05483258 -0.05344744 -0.04455467
v -0.05341311 -0.05555228 -0.04320345
v -0.05341311 -0.04344496 -0.05164667
v -0.05341311 -0.04368654 -0.05151417
v -0.05341311 -0.04498953 -0.05079750
v -0.05359876 -0.04499724 -0.05075271
v -0.05517896 -0.04527223 -0.05017975
v -0.05517896 -0.04451665 -0.05061833
v -0.05341311 -0.04524910 -0.05065379
v -0.05341311 -0.04567059 -0.05041304
v -0.05359876 -0.04632594 -0.04997819
v -0.05341311 -0.04786024 -0.04909728
v -0.05366772 -0.04762894 -0.04917567
v -0.05477264 -0.04737193 -0.04902263
v -0.05610566 -0.04426736 -0.05047836
v -0.05711298 -0.04398980 -0.05031786
v -0.05830383 -0.04346038 -0.05014242
v -0.05883216 -0.04266624 -0.05037011
v -0.05883216 -0.05146082 -0.04430085
v -0.05341311 -0.05452685 -0.04416647
v -0.05366772 -0.05371729 -0.04478236
v -0.05341311 -0.05397173 -0.04465545
v -0.05883216 -0.04960527 -0.04583496
v -0.05883216 -0.04917094 -0.04616530
v -0.05811287 -0.04947163 -0.04629034
v -0.05673318 -0.04943051 -0.04694169
v -0.05669021 -0.05053562 -0.04612984
v -0.05565531 -0.05158675 -0.04577151
v -0.05464746 -0.05184633 -0.04597680
v -0.05664194 -0.04483533 -0.04996699
v -0.05523731 -0.04654953 -0.04938656
v -0.05578049 -0.04712264 -0.04886399
v -0.05669021 -0.04611777 -0.04917754
v -0.05341311 -0.04653925 -0.04989233
v -0.05341311 -0.04843849 -0.04873708
v -0.05366772 -0.04838452 -0.04870349
v -0.05523731 -0.04790907 -0.04853366
v -0.05765245 -0.04583507 -0.04900397
v -0.05883216 -0.04347837 -0.04989420
v -0.05817441 -0.04495098 -0.04931191
v -0.05883216 -0.04467599 -0.04918687
v -0.05366772 -0.05281008 -0.04553822
v -0.05341311 -0.05286148 -0.04557928
v -0.05883216 -0.04750301 -0.04735974
v -0.05820199 -0.04828943 -0.04710966
v -0.05726575 -0.04859783 -0.04732055
v -0.05625790 -0.04890623 -0.04753518
v -0.05517896 -0.04992910 -0.04718618
v -0.05424485 -0.05013984 -0.04734481
v -0.05371122 -0.05091084 -0.04695849
v -0.05366772 -0.05205450 -0.04613357
v -0.05341311 -0.05226010 -0.04605519
v -0.05669021 -0.04687335 -0.04869789
v -0.05341311 -0.05006788 -0.04764902
v -0.05371122 -0.04956930 -0.04789911
v -0.05517896 -0.04917608 -0.04771808
v -0.05820199 -0.04753128 -0.04762849
v -0.05817441 -0.04637991 -0.04840861
v -0.05866029 -0.04546756 -0.04877628
v -0.05883216 -0.04521312 -0.04885466
v -0.05883216 -0.04732053 -0.04748292
v -0.05341311 -0.05032488 -0.04747359
v -0.05341311 -0.05056646 -0.04730002
v -0.05341311 -0.05099308 -0.04698835
v -0.05341311 -0.05212903 -0.04615410
v -0.05883216 -0.04539046 -0.04874455
v -0.05883216 -0.04639019 -0.04809134
f 1 2 5
f 1 5 10
f 1 10 18
f 1 18 21
f 1 21 34
f 1 34 42
f 1 42 53
f 1 53 58
f 1 58 70
f 1 70 69
f 1 69 68
f 1 68 75
f 1 75 94
f 1 94 113
f 1 113 112
f 1 112 111
f 1 111 135
f 1 135 154
f 1 154 181
f 1 181 202
f 1 202 204
f 1 204 223
f 1 223 229
f 1 229 230
f 1 230 224
f 1 224 207
f 1 207 187
f 1 187 186
f 1 186 182
f 1 182 155
f 1 155 136
f 1 136 117
f 1 117 116
f 1 116 115
f 1 115 103
f 1 103 102
f 1 102 82
f 1 82 77
f 1 77 59
f 1 59 46
f 1 46 45
f 1 45 35
f 1 35 22
f 1 22 12
f 1 12 6
f 1 6 3
f 1 3 7
f 1 7 14
f 1 14 27
f 1 27 26
f 1 26 29
f 1 29 15
f 1 15 8
f 1 8 4
f 1 4 2
f 2 4 5
f 3 6 7
f 4 8 16
f 4 16 30
f 4 30 40
f 4 40 52
f 4 52 67
f 4 67 84
f 4 84 86
f 4 86 104
f 4 104 89
f 4 89 88
f 4 88 87
f 4 87 105
f 4 105 124
f 4 124 126
f 4 126 145
f 4 145 146
f 4 146 165
f 4 165 183
f 4 183 185
f 4 185 206
f 4 206 215
f 4 215 228
f 4 228 227
f 4 227 226
f 4 226 225
f 4 225 217
f 4 217 198
f 4 198 175
f 4 175 197
f 4 197 173
f 4 173 172
f 4 172 168
f 4 168 167
f 4 167 166
f 4 166 147
f 4 147 131
f 4 131 130
f 4 130 128
f 4 128 108
f 4 108 107
f 4 107 106
f 4 106 90
f 4 90 71
f 4 71 57
f 4 57 43
f 4 43 33
f 4 33 19
f 4 19 11
f 4 11 9
f 4 9 5
f 5 9 11
f 5 11 10
f 6 12 13
f 6 13 7
f 7 13 14
f 8 15 16
f 10 17 18
f 10 11 17
f 11 19 32
f 11 32 20
f 11 20 21
f 11 21 18
f 11 18 17
f 12 22 23
f 12 23 13
f 13 24 25
f 13 25 26
f 13 26 27
f 13 27 14
f 13 23 28
f 13 28 24
f 15 29 25
f 15 25 16
f 16 25 30
f 19 31 32
f 19 33 31
f 20 32 21
f 21 32 34
f 22 35 23
f 23 35 36
f 23 36 37
f 23 37 28
f 24 38 25
f 24 28 37
f 24 37 38
f 25 38 39
f 25 39 30
f 25 29 26
f 30 39 41
f 30 41 40
f 31 33 32
f 32 42 34
f 32 33 42
f 33 43 44
f 33 44 42
f 35 45 36
f 36 45 46
f 36 46 47
f 36 47 37
f 37 47 48
f 37 48 38
f 38 49 39
f 38 48 50
f 38 50 51
f 38 51 49
f 39 49 41
f 40 41 49
f 40 49 52
f 42 44 53
f 43 54 55
f 43 55 56
f 43 56 44
f 43 57 54
f 44 58 53
f 44 56 58
f 46 59 47
f 47 50 48
f 47 59 60
f 47 60 61
f 47 61 50
f 49 51 62
f 49 62 63
f 49 63 52
f 50 64 65
f 50 65 66
f 50 66 51
f 50 61 64
f 51 66 62
f 52 63 67
f 54 68 69
f 54 69 70
f 54 70 55
f 54 57 71
f 54 71 72
f 54 72 73
f 54 73 74
f 54 74 75
f 54 75 68
f 55 70 56
f 56 70 58
f 59 76 61
f 59 61 60
f 59 77 76
f 61 78 79
f 61 79 80
f 61 80 81
f 61 81 64
f 61 76 77
f 61 77 82
f 61 82 83
f 61 83 78
f 62 84 67
f 62 67 63
f 62 66 85
f 62 85 86
f 62 86 84
f 64 81 65
f 65 87 88
f 65 88 89
f 65 89 85
f 65 85 66
f 65 81 80
f 65 80 87
f 71 90 72
f 72 90 91
f 72 91 73
f 73 91 74
f 74 91 92
f 74 92 75
f 75 92 93
f 75 93 94
f 78 95 80
f 78 80 79
f 78 83 96
f 78 96 97
f 78 97 95
f 80 98 87
f 80 95 99
f 80 99 100
f 80 100 101
f 80 101 98
f 82 102 83
f 83 102 103
f 83 103 96
f 85 89 104
f 85 104 86
f 87 98 105
f 90 106 91
f 91 106 107
f 91 107 92
f 92 107 108
f 92 108 109
f 92 109 110
f 92 110 93
f 93 110 135
f 93 135 111
f 93 111 112
f 93 112 113
f 93 113 94
f 95 97 114
f 95 114 99
f 96 103 115
f 96 115 116
f 96 116 117
f 96 117 118
f 96 118 119
f 96 119 97
f 97 119 120
f 97 120 121
f 97 121 122
f 97 122 99
f 97 99 114
f 98 101 123
f 98 123 124
f 98 124 105
f 99 125 100
f 99 122 121
f 99 121 125
f 100 125 101
f 101 126 123
f 101 125 127
f 101 127 126
f 108 128 129
f 108 129 109
f 109 129 130
f 109 130 131
f 109 131 132
f 109 132 110
f 110 132 133
f 110 133 134
f 110 134 135
f 117 136 118
f 118 136 137
f 118 137 138
f 118 138 119
f 119 138 120
f 120 138 121
f 121 139 140
f 121 140 125
f 121 138 141
f 121 141 142
f 121 142 143
f 121 143 144
f 121 144 139
f 123 126 124
f 125 140 127
f 126 127 145
f 127 140 146
f 127 146 145
f 128 130 129
f 131 147 148
f 131 148 132
f 132 148 149
f 132 149 150
f 132 150 133
f 133 150 151
f 133 151 134
f 134 151 152
f 134 152 153
f 134 153 135
f 135 153 154
f 136 141 137
f 136 155 156
f 136 156 141
f 137 141 138
f 139 157 140
f 139 144 158
f 139 158 157
f 140 157 146
f 141 156 159
f 141 159 160
f 141 160 161
f 141 161 162
f 141 162 142
f 142 162 143
f 143 162 163
f 143 163 164
f 143 164 144
f 144 164 158
f 146 157 165
f 147 166 148
f 148 166 167
f 148 167 168
f 148 168 169
f 148 169 149
f 149 170 171
f 149 171 150
f 149 169 172
f 149 172 173
f 149 173 174
f 149 174 175
f 149 175 176
f 149 176 177
f 149 177 170
f 150 171 178
f 150 178 151
f 151 178 179
f 151 179 152
f 152 179 180
f 152 180 154
f 152 154 153
f 154 180 181
f 155 182 156
f 156 182 159
f 157 158 183
f 157 183 165
f 158 164 184
f 158 184 185
f 158 185 183
f 159 182 186
f 159 186 187
f 159 187 188
f 159 188 160
f 160 188 189
f 160 189 190
f 160 190 161
f 161 190 191
f 161 191 162
f 162 191 163
f 163 191 192
f 163 192 164
f 164 192 184
f 168 172 169
f 170 193 178
f 170 178 171
f 170 177 194
f 170 194 195
f 170 195 196
f 170 196 193
f 173 197 174
f 174 197 175
f 175 198 176
f 176 198 199
f 176 199 177
f 177 199 200
f 177 200 195
f 177 195 194
f 178 193 179
f 179 193 196
f 179 196 201
f 179 201 180
f 180 202 181
f 180 201 203
f 180 203 204
f 180 204 202
f 184 192 205
f 184 205 185
f 185 205 206
f 187 207 208
f 187 208 188
f 188 208 209
f 188 209 189
f 189 209 210
f 189 210 190
f 190 210 191
f 191 210 192
f 192 211 212
f 192 212 213
f 192 213 214
f 192 214 215
f 192 215 205
f 192 210 211
f 195 216 196
f 195 200 210
f 195 210 216
f 196 216 201
f 198 217 199
f 199 217 218
f 199 218 219
f 199 219 200
f 200 219 210
f 201 216 210
f 201 210 209
f 201 209 220
f 201 220 221
f 201 221 222
f 201 222 204
f 201 204 203
f 204 222 223
f 205 215 206
f 207 224 220
f 207 220 208
f 208 220 209
f 210 219 211
f 211 219 212
f 212 219 225
f 212 225 226
f 212 226 213
f 213 226 227
f 213 227 214
f 214 228 215
f 214 227 228
f 217 225 218
f 218 225 219
f 220 224 221
f 221 224 222
f 222 229 223
f 222 224 230
f 222 230 229

