# https://github.com/mikedh/trimesh
v -0.03552706 -0.04190908 -0.05299430
v -0.03552706 -0.04090764 -0.05238606
v -0.03401614 -0.04190908 -0.05299430
v -0.03401614 -0.04342006 -0.05279910
v -0.03855094 -0.04190908 -0.05298384
v -0.04157483 -0.04090764 -0.05237386
v -0.04006186 -0.04090764 -0.05237909
v -0.03855094 -0.04090764 -0.05238257
v -0.03401614 -0.03929251 -0.04953659
v -0.03255626 -0.03972033 -0.05029296
v -0.03401614 -0.04090764 -0.05238432
v -0.03255626 -0.04190908 -0.05287404
v -0.03255626 -0.04342006 -0.05269628
v -0.03255626 -0.04090764 -0.05234249
v -0.03255626 -0.04464743 -0.05218390
v -0.03255626 -0.04469069 -0.05216472
v -0.03255626 -0.04542134 -0.05184056
v -0.03401614 -0.04470191 -0.05218738
v -0.03552706 -0.04342006 -0.05279387
v -0.03703798 -0.04342006 -0.05278690
v -0.03855094 -0.04342006 -0.05277470
v -0.04006186 -0.04190908 -0.05297164
v -0.04459667 -0.04090924 -0.05235469
v -0.04308371 -0.04090924 -0.05236689
v -0.05064240 -0.03927809 -0.04944596
v -0.04308371 -0.03929091 -0.04951393
v -0.04157483 -0.03929091 -0.04952090
v -0.04006186 -0.03929251 -0.04952787
v -0.03855094 -0.03929251 -0.04953136
v -0.03255626 -0.03929251 -0.04953659
v -0.05215536 -0.03860031 -0.04815629
v -0.03255626 -0.04021384 -0.05115042
v -0.03255626 -0.04640837 -0.05136652
v -0.03401614 -0.04545820 -0.05182488
v -0.03552706 -0.04469390 -0.05218564
v -0.03703798 -0.04468268 -0.05218041
v -0.03703798 -0.04543897 -0.05181617
v -0.03855094 -0.04466505 -0.05217344
v -0.04006186 -0.04342006 -0.05275727
v -0.04157483 -0.04190908 -0.05295595
v -0.04610759 -0.04090924 -0.05233900
v -0.05215536 -0.03928290 -0.04943725
v -0.03255626 -0.03928931 -0.04948953
v -0.05341106 -0.03826383 -0.04718904
v -0.05341106 -0.03804271 -0.04614337
v -0.05341106 -0.03861153 -0.04815629
v -0.03255626 -0.04770463 -0.05072518
v -0.03401614 -0.04644201 -0.05134387
v -0.03552706 -0.04545019 -0.05182139
v -0.03552706 -0.04644201 -0.05133341
v -0.03703798 -0.04644201 -0.05132121
v -0.03855094 -0.04542134 -0.05180571
v -0.04006186 -0.04464102 -0.05216472
v -0.04157483 -0.04342006 -0.05273288
v -0.04308371 -0.04190908 -0.05292981
v -0.04913148 -0.04091084 -0.05229021
v -0.04761852 -0.04091084 -0.05231635
v -0.05215536 -0.04091084 -0.05221701
v -0.05341106 -0.04042534 -0.05135432
v -0.05341106 -0.03930052 -0.04941634
v -0.05341106 -0.03872690 -0.04837240
v -0.05064240 -0.04091084 -0.05225709
v -0.03255626 -0.03920278 -0.04815629
v -0.05341106 -0.03804271 -0.04572858
v -0.03255626 -0.04847855 -0.05033305
v -0.03401614 -0.04849778 -0.05031736
v -0.03401614 -0.04774309 -0.05069903
v -0.03552706 -0.04773187 -0.05069380
v -0.03703798 -0.04771104 -0.05068509
v -0.03855094 -0.04644201 -0.05129856
v -0.04006186 -0.04539731 -0.05179351
v -0.04157483 -0.04461058 -0.05215078
v -0.04308371 -0.04342006 -0.05269453
v -0.04459667 -0.04190908 -0.05289321
v -0.05341106 -0.04092046 -0.05217518
v -0.04610759 -0.04190908 -0.05283919
v -0.03255626 -0.03921400 -0.04812841
v -0.05341106 -0.03860993 -0.04527894
v -0.03255626 -0.03955048 -0.04733892
v -0.03255626 -0.04946557 -0.04982066
v -0.03401614 -0.04946557 -0.04981021
v -0.03552706 -0.04848656 -0.05031039
v -0.03703798 -0.04846573 -0.05029819
v -0.03855094 -0.04844009 -0.05028599
v -0.03855094 -0.04768380 -0.05067289
v -0.04006186 -0.04644201 -0.05127241
v -0.04157483 -0.04536687 -0.05177608
v -0.04308371 -0.04456411 -0.05212987
v -0.04459667 -0.04342006 -0.05263877
v -0.05341106 -0.04108870 -0.05220655
v -0.04761852 -0.04190908 -0.05276773
v -0.04913148 -0.04190908 -0.05267885
v -0.05341106 -0.05441030 -0.03519164
v -0.03255626 -0.05441030 -0.03661027
v -0.03255626 -0.05064006 -0.04919151
v -0.03401614 -0.05067371 -0.04916189
v -0.03552706 -0.04946557 -0.04979627
v -0.03703798 -0.04946557 -0.04977361
v -0.03855094 -0.04946557 -0.04974398
v -0.04006186 -0.04840805 -0.05026682
v -0.04006186 -0.04765176 -0.05065895
v -0.04157483 -0.04644201 -0.05123407
v -0.04308371 -0.04532040 -0.05175168
v -0.04459667 -0.04450162 -0.05210024
v -0.04610759 -0.04342006 -0.05256034
v -0.05341106 -0.04199240 -0.05221701
v -0.05064240 -0.04190908 -0.05255860
v -0.05215536 -0.04190908 -0.05240349
v -0.04761852 -0.04342006 -0.05245751
v -0.05341106 -0.05441030 -0.04427160
v -0.03255626 -0.05441030 -0.04692762
v -0.03255626 -0.05068172 -0.04916886
v -0.03401614 -0.05142840 -0.04874362
v -0.03552706 -0.05141718 -0.04873665
v -0.03552706 -0.05066089 -0.04915317
v -0.03703798 -0.05063686 -0.04914272
v -0.03855094 -0.05059840 -0.04912703
v -0.04006186 -0.04946557 -0.04969867
v -0.04157483 -0.04835998 -0.05023894
v -0.04157483 -0.04760369 -0.05063804
v -0.04308371 -0.04644201 -0.05117656
v -0.04459667 -0.04525791 -0.05171683
v -0.04610759 -0.04441670 -0.05205841
v -0.05215536 -0.04301788 -0.05212115
v -0.05341106 -0.04222474 -0.05215775
v -0.05064240 -0.04324541 -0.05223792
v -0.04761852 -0.04431094 -0.05200613
v -0.04862716 -0.04423083 -0.05196430
v -0.04913148 -0.04353863 -0.05226406
v -0.05341106 -0.05397287 -0.04465676
v -0.05297616 -0.05441030 -0.04444066
v -0.03255626 -0.05422443 -0.04705485
v -0.03375683 -0.05441030 -0.04691368
v -0.03255626 -0.05143801 -0.04874710
v -0.03255626 -0.05245228 -0.04815629
v -0.03401614 -0.05248913 -0.04812144
v -0.03552706 -0.05248913 -0.04810227
v -0.03703798 -0.05139315 -0.04871922
v -0.03855094 -0.05135469 -0.04869482
v -0.04006186 -0.05055033 -0.04909915
v -0.04157483 -0.04946557 -0.04963767
v -0.04308371 -0.04829749 -0.05020234
v -0.04308371 -0.04754120 -0.05060667
v -0.04459667 -0.04644201 -0.05110162
v -0.04610759 -0.04517138 -0.05166977
v -0.05215536 -0.04377417 -0.05172205
v -0.05329060 -0.04281118 -0.05201310
v -0.05064240 -0.04400170 -0.05184405
v -0.05341106 -0.04259647 -0.05205493
v -0.04963580 -0.04412187 -0.05190679
v -0.04761852 -0.04506723 -0.05161400
v -0.04772469 -0.04658622 -0.05079489
v -0.04829843 -0.04718549 -0.05041670
v -0.04913148 -0.04481407 -0.05159832
v -0.05341106 -0.05286247 -0.04558044
v -0.05242284 -0.05305795 -0.04574601
v -0.05245959 -0.05441030 -0.04461145
v -0.03255626 -0.05346814 -0.04754457
v -0.03401614 -0.05421161 -0.04704613
v -0.03401614 -0.05345692 -0.04753586
v -0.03401614 -0.05441030 -0.04691020
v -0.03552706 -0.05343609 -0.04752192
v -0.03703798 -0.05340885 -0.04750623
v -0.03703798 -0.05248913 -0.04806741
v -0.03855094 -0.05248913 -0.04801687
v -0.04006186 -0.05130662 -0.04866519
v -0.04157483 -0.05049105 -0.04906778
v -0.04308371 -0.04946557 -0.04955750
v -0.04459667 -0.04821577 -0.05015528
v -0.04459667 -0.04746108 -0.05056484
v -0.04610759 -0.04644201 -0.05100228
v -0.05215536 -0.04493264 -0.05108942
v -0.05341106 -0.04344409 -0.05164711
v -0.05341106 -0.04295699 -0.05191028
v -0.05064240 -0.04493264 -0.05134213
v -0.05341106 -0.04278394 -0.05200090
v -0.04610759 -0.04735854 -0.05051255
v -0.04729183 -0.04727041 -0.05046376
v -0.04772469 -0.04784564 -0.05009777
v -0.04761852 -0.04930374 -0.04926471
v -0.04913148 -0.04795459 -0.04986075
v -0.04913148 -0.04708614 -0.05036093
v -0.04913148 -0.04632985 -0.05077920
v -0.05341106 -0.05226000 -0.04605448
v -0.05201244 -0.05252758 -0.04626710
v -0.05141420 -0.05325023 -0.04589415
v -0.05205940 -0.05396646 -0.04510815
v -0.05341106 -0.05212861 -0.04615382
v -0.05188177 -0.05441030 -0.04479619
v -0.03523508 -0.05441030 -0.04688754
v -0.03552706 -0.05419238 -0.04703045
v -0.03703798 -0.05416354 -0.04700605
v -0.03855094 -0.05336559 -0.04748009
v -0.04006186 -0.05248913 -0.04794890
v -0.04157483 -0.05124734 -0.04862511
v -0.04308371 -0.05040933 -0.04902421
v -0.04459667 -0.04946557 -0.04945468
v -0.04610759 -0.04811482 -0.05009603
v -0.05215536 -0.04590204 -0.05054741
v -0.05304763 -0.04574020 -0.05045504
v -0.05341106 -0.04524829 -0.05065372
v -0.05064240 -0.04613758 -0.05067812
v -0.04606472 -0.04958574 -0.04926645
v -0.04654045 -0.05016898 -0.04888130
v -0.04761852 -0.05006003 -0.04881333
v -0.04913148 -0.04913389 -0.04916712
v -0.05064240 -0.04795459 -0.04962373
v -0.05064240 -0.04689226 -0.05024765
v -0.05215536 -0.05133386 -0.04711236
v -0.05064240 -0.05248913 -0.04665052
v -0.05064240 -0.05338161 -0.04599349
v -0.05064240 -0.05413790 -0.04538351
v -0.05341106 -0.05099257 -0.04698862
v -0.05064240 -0.05441030 -0.04515694
v -0.03552706 -0.05441030 -0.04688057
v -0.03671129 -0.05441030 -0.04684745
v -0.03703798 -0.05441030 -0.04683700
v -0.03817117 -0.05441030 -0.04679343
v -0.03855094 -0.05412188 -0.04697468
v -0.04006186 -0.05406099 -0.04693982
v -0.04006186 -0.05330631 -0.04744001
v -0.04153808 -0.05262212 -0.04778159
v -0.04308371 -0.05239940 -0.04781645
v -0.04308371 -0.05116562 -0.04857282
v -0.04459667 -0.05031480 -0.04896669
v -0.04553181 -0.05025070 -0.04893010
v -0.05215536 -0.04665672 -0.05010648
v -0.05259843 -0.04860513 -0.04884644
v -0.05341106 -0.04612796 -0.05013960
v -0.05341106 -0.04566970 -0.05041321
v -0.04606472 -0.05084356 -0.04851008
v -0.04610759 -0.05215425 -0.04767877
v -0.04761852 -0.05097815 -0.04823820
v -0.04913148 -0.04988858 -0.04870527
v -0.05064240 -0.04892399 -0.04904512
v -0.05211861 -0.04804272 -0.04928737
v -0.05323547 -0.05036286 -0.04750275
v -0.05215536 -0.05057918 -0.04764391
v -0.05064240 -0.05159184 -0.04730232
v -0.04913148 -0.05361235 -0.04616428
v -0.04913148 -0.05436703 -0.04558044
v -0.05341106 -0.05056636 -0.04730058
v -0.04913148 -0.05441030 -0.04554384
v -0.03855094 -0.05441030 -0.04677774
v -0.04006186 -0.05441030 -0.04670106
v -0.04091738 -0.05441030 -0.04664529
v -0.04153808 -0.05386070 -0.04697816
v -0.04201994 -0.05321497 -0.04738075
v -0.04101130 -0.05326304 -0.04741212
v -0.04308371 -0.05315569 -0.04734241
v -0.04459667 -0.05229044 -0.04775720
v -0.04459667 -0.05106948 -0.04851357
v -0.05341106 -0.04843529 -0.04873665
v -0.05341106 -0.04785846 -0.04909740
v -0.05158979 -0.04877177 -0.04895101
v -0.05064240 -0.04968028 -0.04856934
v -0.05211861 -0.04935181 -0.04846303
v -0.04610759 -0.05290893 -0.04717510
v -0.04761852 -0.05200203 -0.04758117
v -0.04459667 -0.05304673 -0.04726747
v -0.04881704 -0.05185942 -0.04748880
v -0.04924582 -0.05111755 -0.04789139
v -0.05341106 -0.05032441 -0.04747486
v -0.05341106 -0.05006804 -0.04764914
v -0.05064240 -0.05083715 -0.04781297
v -0.04982569 -0.05171521 -0.04738772
v -0.04924582 -0.05241382 -0.04700779
v -0.04761852 -0.05275832 -0.04706008
v -0.04761852 -0.05380302 -0.04630370
v -0.04761852 -0.05441030 -0.04584883
v -0.04785740 -0.05441030 -0.04580352
v -0.04879867 -0.05441030 -0.04561356
v -0.04907839 -0.05441030 -0.04555604
v -0.04155441 -0.05441030 -0.04659998
v -0.04251609 -0.05441030 -0.04652155
v -0.04308371 -0.05400171 -0.04675683
v -0.04459667 -0.05400171 -0.04660172
v -0.04583808 -0.05441030 -0.04615208
v -0.04606880 -0.05410906 -0.04633159
v -0.04688143 -0.05441030 -0.04597954
v -0.04308371 -0.05441030 -0.04646927
v -0.04396984 -0.05441030 -0.04637690
v -0.04459667 -0.05441030 -0.04631067
f 1 2 3
f 1 3 4
f 1 4 5
f 1 5 6
f 1 6 7
f 1 7 8
f 1 8 2
f 2 9 10
f 2 10 11
f 2 11 3
f 2 8 9
f 3 12 13
f 3 13 4
f 3 11 14
f 3 14 12
f 4 13 15
f 4 15 16
f 4 16 17
f 4 17 18
f 4 18 19
f 4 19 5
f 5 20 21
f 5 21 22
f 5 22 23
f 5 23 24
f 5 24 6
f 5 19 20
f 6 24 25
f 6 25 26
f 6 26 27
f 6 27 7
f 7 27 28
f 7 28 29
f 7 29 8
f 8 29 9
f 9 30 10
f 9 29 31
f 9 31 30
f 10 30 43
f 10 43 63
f 10 63 77
f 10 77 79
f 10 79 94
f 10 94 111
f 10 111 132
f 10 132 158
f 10 158 135
f 10 135 134
f 10 134 112
f 10 112 95
f 10 95 80
f 10 80 65
f 10 65 47
f 10 47 33
f 10 33 17
f 10 17 16
f 10 16 15
f 10 15 13
f 10 13 12
f 10 12 14
f 10 14 32
f 10 32 11
f 11 32 14
f 17 33 34
f 17 34 18
f 18 34 35
f 18 35 19
f 19 35 20
f 20 36 21
f 20 35 36
f 21 36 37
f 21 37 38
f 21 38 39
f 21 39 40
f 21 40 22
f 22 40 23
f 23 41 25
f 23 25 24
f 23 40 41
f 25 41 42
f 25 42 31
f 25 31 26
f 26 31 27
f 27 31 28
f 28 31 29
f 30 31 44
f 30 44 45
f 30 45 43
f 31 42 46
f 31 46 44
f 33 47 48
f 33 48 34
f 34 48 49
f 34 49 35
f 35 49 37
f 35 37 36
f 37 49 50
f 37 50 51
f 37 51 52
f 37 52 38
f 38 52 53
f 38 53 39
f 39 53 54
f 39 54 40
f 40 54 55
f 40 55 56
f 40 56 57
f 40 57 41
f 41 57 42
f 42 58 59
f 42 59 60
f 42 60 61
f 42 61 46
f 42 57 56
f 42 56 62
f 42 62 58
f 43 45 63
f 44 46 61
f 44 61 60
f 44 60 59
f 44 59 75
f 44 75 90
f 44 90 106
f 44 106 125
f 44 125 149
f 44 149 176
f 44 176 174
f 44 174 173
f 44 173 201
f 44 201 230
f 44 230 229
f 44 229 254
f 44 254 253
f 44 253 264
f 44 264 263
f 44 263 242
f 44 242 213
f 44 213 188
f 44 188 184
f 44 184 155
f 44 155 130
f 44 130 110
f 44 110 93
f 44 93 78
f 44 78 64
f 44 64 45
f 45 64 63
f 47 65 66
f 47 66 67
f 47 67 48
f 48 67 50
f 48 50 49
f 50 67 68
f 50 68 51
f 51 68 69
f 51 69 70
f 51 70 52
f 52 70 71
f 52 71 53
f 53 71 72
f 53 72 54
f 54 72 73
f 54 73 74
f 54 74 55
f 55 74 62
f 55 62 56
f 58 75 59
f 58 62 74
f 58 74 76
f 58 76 75
f 63 64 77
f 64 78 79
f 64 79 77
f 65 80 66
f 66 81 82
f 66 82 68
f 66 68 67
f 66 80 81
f 68 82 69
f 69 82 83
f 69 83 84
f 69 84 85
f 69 85 70
f 70 85 86
f 70 86 71
f 71 86 87
f 71 87 72
f 72 88 73
f 72 87 88
f 73 88 89
f 73 89 76
f 73 76 74
f 75 76 91
f 75 91 92
f 75 92 90
f 76 89 91
f 78 93 94
f 78 94 79
f 80 95 81
f 81 96 97
f 81 97 82
f 81 95 96
f 82 97 98
f 82 98 83
f 83 98 84
f 84 98 99
f 84 99 100
f 84 100 101
f 84 101 85
f 85 101 86
f 86 101 102
f 86 102 87
f 87 102 103
f 87 103 88
f 88 103 104
f 88 104 89
f 89 104 105
f 89 105 91
f 90 92 107
f 90 107 108
f 90 108 106
f 91 105 92
f 92 105 109
f 92 109 107
f 93 110 131
f 93 131 157
f 93 157 189
f 93 189 214
f 93 214 243
f 93 243 273
f 93 273 272
f 93 272 271
f 93 271 270
f 93 270 280
f 93 280 278
f 93 278 283
f 93 283 282
f 93 282 281
f 93 281 275
f 93 275 274
f 93 274 246
f 93 246 245
f 93 245 244
f 93 244 218
f 93 218 217
f 93 217 216
f 93 216 215
f 93 215 190
f 93 190 161
f 93 161 133
f 93 133 111
f 93 111 94
f 95 112 96
f 96 113 114
f 96 114 115
f 96 115 97
f 96 112 113
f 97 115 98
f 98 115 116
f 98 116 99
f 99 116 117
f 99 117 118
f 99 118 100
f 100 118 119
f 100 119 120
f 100 120 101
f 101 120 102
f 102 120 121
f 102 121 103
f 103 121 122
f 103 122 104
f 104 122 123
f 104 123 105
f 105 123 109
f 106 108 124
f 106 124 125
f 107 109 126
f 107 126 108
f 108 126 124
f 109 127 128
f 109 128 129
f 109 129 126
f 109 123 127
f 110 130 131
f 111 133 132
f 112 134 113
f 113 134 135
f 113 135 114
f 114 135 136
f 114 136 137
f 114 137 138
f 114 138 116
f 114 116 115
f 116 138 117
f 117 138 139
f 117 139 140
f 117 140 118
f 118 140 141
f 118 141 119
f 119 141 142
f 119 142 143
f 119 143 120
f 120 143 121
f 121 143 122
f 122 143 144
f 122 144 145
f 122 145 123
f 123 145 127
f 124 146 147
f 124 147 125
f 124 126 148
f 124 148 146
f 125 147 149
f 126 129 150
f 126 150 148
f 127 145 151
f 127 151 128
f 128 151 152
f 128 152 153
f 128 153 154
f 128 154 150
f 128 150 129
f 130 155 131
f 131 156 157
f 131 155 156
f 132 133 159
f 132 159 160
f 132 160 158
f 133 161 159
f 135 158 136
f 136 160 137
f 136 158 160
f 137 160 162
f 137 162 163
f 137 163 164
f 137 164 138
f 138 164 139
f 139 164 165
f 139 165 166
f 139 166 140
f 140 166 167
f 140 167 141
f 141 167 168
f 141 168 142
f 142 168 169
f 142 169 170
f 142 170 143
f 143 170 144
f 144 170 171
f 144 171 145
f 145 171 151
f 146 172 173
f 146 173 174
f 146 174 147
f 146 148 175
f 146 175 172
f 147 174 176
f 147 176 149
f 148 150 154
f 148 154 175
f 151 171 152
f 152 171 177
f 152 177 178
f 152 178 153
f 153 178 179
f 153 179 180
f 153 180 181
f 153 181 182
f 153 182 183
f 153 183 154
f 154 183 175
f 155 184 156
f 156 185 186
f 156 186 187
f 156 187 157
f 156 184 188
f 156 188 185
f 157 187 189
f 159 161 190
f 159 190 191
f 159 191 162
f 159 162 160
f 162 191 163
f 163 191 192
f 163 192 193
f 163 193 165
f 163 165 164
f 165 193 194
f 165 194 166
f 166 195 167
f 166 194 195
f 167 195 196
f 167 196 168
f 168 196 197
f 168 197 169
f 169 197 198
f 169 198 177
f 169 177 170
f 170 177 171
f 172 199 200
f 172 200 201
f 172 201 173
f 172 175 202
f 172 202 199
f 175 183 202
f 177 198 178
f 178 198 179
f 179 198 203
f 179 203 204
f 179 204 180
f 180 205 206
f 180 206 181
f 180 204 205
f 181 207 208
f 181 208 182
f 181 206 207
f 182 208 202
f 182 202 183
f 185 209 186
f 185 188 209
f 186 189 187
f 186 209 210
f 186 210 211
f 186 211 212
f 186 212 189
f 188 213 209
f 189 212 214
f 190 215 191
f 191 215 216
f 191 216 192
f 192 216 217
f 192 217 218
f 192 218 219
f 192 219 193
f 193 219 220
f 193 220 221
f 193 221 194
f 194 221 222
f 194 222 195
f 195 222 223
f 195 223 224
f 195 224 196
f 196 224 225
f 196 225 197
f 197 225 226
f 197 226 203
f 197 203 198
f 199 227 200
f 199 202 208
f 199 208 227
f 200 227 228
f 200 228 229
f 200 229 230
f 200 230 201
f 203 226 204
f 204 226 231
f 204 231 232
f 204 232 233
f 204 233 205
f 205 233 234
f 205 234 206
f 206 234 235
f 206 235 207
f 207 235 236
f 207 236 227
f 207 227 208
f 209 237 238
f 209 238 239
f 209 239 210
f 209 213 237
f 210 239 240
f 210 240 211
f 211 240 241
f 211 241 212
f 212 241 214
f 213 242 237
f 214 241 243
f 218 244 219
f 219 244 220
f 220 245 246
f 220 246 247
f 220 247 248
f 220 248 249
f 220 249 221
f 220 244 245
f 221 249 222
f 222 249 248
f 222 248 223
f 223 248 250
f 223 250 251
f 223 251 252
f 223 252 224
f 224 252 225
f 225 252 226
f 226 252 251
f 226 251 231
f 227 236 228
f 228 237 253
f 228 253 254
f 228 254 229
f 228 236 255
f 228 255 256
f 228 256 257
f 228 257 238
f 228 238 237
f 231 251 232
f 232 258 259
f 232 259 233
f 232 251 260
f 232 260 258
f 233 261 234
f 233 259 261
f 234 261 262
f 234 262 256
f 234 256 235
f 235 256 255
f 235 255 236
f 237 242 263
f 237 263 264
f 237 264 253
f 238 257 265
f 238 265 239
f 239 265 266
f 239 266 267
f 239 267 240
f 240 261 268
f 240 268 269
f 240 269 270
f 240 270 271
f 240 271 241
f 240 267 261
f 241 271 272
f 241 272 273
f 241 273 243
f 246 274 247
f 247 274 250
f 247 250 248
f 250 274 275
f 250 275 276
f 250 276 260
f 250 260 251
f 256 265 257
f 256 262 261
f 256 261 265
f 258 268 259
f 258 260 277
f 258 277 278
f 258 278 279
f 258 279 268
f 259 268 261
f 260 276 277
f 261 267 266
f 261 266 265
f 268 279 278
f 268 278 269
f 269 280 270
f 269 278 280
f 275 281 276
f 276 281 277
f 277 281 282
f 277 282 283
f 277 283 278

