# https://github.com/mikedh/trimesh
v 0.05731461 -0.05429288 -0.02358285
v 0.05731461 -0.04985706 -0.03494786
v 0.04779560 -0.05933806 -0.02358285
v 0.05731461 -0.06243173 -0.02358285
v 0.05731461 -0.05142889 -0.03494898
v 0.05731367 -0.04985862 -0.03494898
v 0.04779560 -0.05703187 -0.03494898
v 0.04779560 -0.06581133 -0.02358285
v 0.05694469 -0.06261453 -0.02358285
v 0.05731461 -0.06243329 -0.02367074
v 0.05731461 -0.05975524 -0.03494898
v 0.04779560 -0.06334108 -0.03494898
v 0.04779560 -0.06581601 -0.02377533
v 0.04796798 -0.06577070 -0.02358285
v 0.05672572 -0.06271453 -0.02358285
v 0.05669032 -0.06274422 -0.02397003
v 0.05731461 -0.06243641 -0.02397003
v 0.05731461 -0.05999742 -0.03448169
v 0.05663534 -0.06013023 -0.03494898
v 0.04913269 -0.06299421 -0.03494898
v 0.04779560 -0.06360982 -0.03439380
v 0.04779560 -0.06581914 -0.02397003
v 0.04901250 -0.06551915 -0.02358285
v 0.05557126 -0.06323171 -0.02358285
v 0.05681238 -0.06262860 -0.02544420
v 0.05731461 -0.06240360 -0.02504256
v 0.05517804 -0.06341920 -0.02397003
v 0.05517804 -0.06338014 -0.02548203
v 0.05731461 -0.06055521 -0.03329679
v 0.05711334 -0.06063021 -0.03338803
v 0.05664186 -0.06035366 -0.03451062
v 0.05567561 -0.06062552 -0.03494898
v 0.05100183 -0.06246610 -0.03494898
v 0.04913269 -0.06318639 -0.03455178
v 0.04826894 -0.06380357 -0.03373070
v 0.04779560 -0.06408325 -0.03324339
v 0.04779560 -0.06575508 -0.02548203
v 0.04902461 -0.06552071 -0.02397003
v 0.04978028 -0.06530822 -0.02397003
v 0.05064403 -0.06506447 -0.02397003
v 0.04976910 -0.06530509 -0.02358285
v 0.05517804 -0.06340670 -0.02358285
v 0.05651980 -0.06261922 -0.02699402
v 0.05731461 -0.06233798 -0.02585474
v 0.05409719 -0.06385513 -0.02358285
v 0.05354372 -0.06408481 -0.02397003
v 0.05423975 -0.06375513 -0.02548203
v 0.05405060 -0.06368482 -0.02699402
v 0.05517804 -0.06323171 -0.02699402
v 0.05731461 -0.06073646 -0.03288403
v 0.05610516 -0.06088646 -0.03397992
v 0.05560760 -0.06065834 -0.03494898
v 0.05147890 -0.06231923 -0.03494898
v 0.04913269 -0.06368013 -0.03342808
v 0.04998340 -0.06385825 -0.03236334
v 0.04913269 -0.06396919 -0.03267263
v 0.04779560 -0.06412543 -0.03312212
v 0.04779560 -0.06563789 -0.02678819
v 0.04865283 -0.06541134 -0.02699402
v 0.04891186 -0.06548321 -0.02548203
v 0.04966846 -0.06528009 -0.02548203
v 0.05064403 -0.06501603 -0.02548203
v 0.05215630 -0.06459730 -0.02397003
v 0.05103072 -0.06493947 -0.02358285
v 0.05064403 -0.06505666 -0.02358285
v 0.05627941 -0.06249266 -0.02850602
v 0.05703507 -0.06210674 -0.02850602
v 0.05731461 -0.06196299 -0.02850602
v 0.05727547 -0.06222705 -0.02699402
v 0.05731461 -0.06224579 -0.02665580
v 0.05353440 -0.06408325 -0.02358285
v 0.05215630 -0.06454574 -0.02548203
v 0.05348408 -0.06405356 -0.02548203
v 0.05329400 -0.06397544 -0.02699402
v 0.05307876 -0.06389106 -0.02808546
v 0.05361639 -0.06360357 -0.02855609
v 0.05517804 -0.06299265 -0.02850602
v 0.05731461 -0.06088646 -0.03251020
v 0.05554889 -0.06068490 -0.03494898
v 0.05664186 -0.06103801 -0.03294633
v 0.05517804 -0.06166769 -0.03303979
v 0.05405060 -0.06215986 -0.03303979
v 0.05293340 -0.06232548 -0.03381526
v 0.05512121 -0.06107395 -0.03451062
v 0.05196529 -0.06214892 -0.03494898
v 0.05215630 -0.06245204 -0.03412010
v 0.05215630 -0.06287703 -0.03303979
v 0.05099065 -0.06369107 -0.03184710
v 0.05054992 -0.06396919 -0.03141653
v 0.04913269 -0.06433637 -0.03152779
v 0.04779560 -0.06465198 -0.03152779
v 0.04779560 -0.06561915 -0.02699402
v 0.04844877 -0.06535821 -0.02784848
v 0.04940850 -0.06521603 -0.02699402
v 0.05064403 -0.06488791 -0.02699402
v 0.05250199 -0.06446449 -0.02358285
v 0.05215630 -0.06459105 -0.02358285
v 0.05606882 -0.06238485 -0.02950734
v 0.05731461 -0.06162081 -0.03000578
v 0.05731461 -0.06220673 -0.02699402
v 0.05215630 -0.06440355 -0.02699402
v 0.05282159 -0.06379575 -0.02909346
v 0.05225321 -0.06410668 -0.02855609
v 0.05366671 -0.06328014 -0.03001579
v 0.05524141 -0.06263172 -0.03001357
v 0.05731461 -0.06119426 -0.03152779
v 0.05669032 -0.06149894 -0.03152779
v 0.05477925 -0.06248485 -0.03125966
v 0.05440840 -0.06230986 -0.03226766
v 0.05486497 -0.06097708 -0.03494898
v 0.05329493 -0.06247079 -0.03303979
v 0.05215630 -0.06211455 -0.03487554
v 0.05352881 -0.06179581 -0.03441271
v 0.05216376 -0.06207392 -0.03494898
v 0.05204169 -0.06347233 -0.03141653
v 0.05146213 -0.06384888 -0.03083910
v 0.05064403 -0.06431918 -0.03001579
v 0.04913269 -0.06474260 -0.03001579
v 0.04779560 -0.06507385 -0.02998687
v 0.04779560 -0.06543946 -0.02827794
v 0.04807420 -0.06526290 -0.02885648
v 0.04902461 -0.06510822 -0.02841368
v 0.05064403 -0.06465198 -0.02850602
v 0.05578743 -0.06224423 -0.03051534
v 0.05661950 -0.06197080 -0.03001357
v 0.05175750 -0.06395513 -0.03001579
v 0.05251317 -0.06369107 -0.03001579
v 0.05380927 -0.06274891 -0.03166909
v 0.05358378 -0.06150519 -0.03494898
v 0.04779560 -0.06518478 -0.02950289
v 0.04779560 -0.06537852 -0.02860170
f 1 2 3
f 1 3 8
f 1 8 14
f 1 14 23
f 1 23 41
f 1 41 65
f 1 65 64
f 1 64 97
f 1 97 96
f 1 96 71
f 1 71 45
f 1 45 42
f 1 42 24
f 1 24 15
f 1 15 9
f 1 9 4
f 1 4 10
f 1 10 17
f 1 17 26
f 1 26 44
f 1 44 70
f 1 70 100
f 1 100 68
f 1 68 99
f 1 99 106
f 1 106 78
f 1 78 50
f 1 50 29
f 1 29 18
f 1 18 11
f 1 11 5
f 1 5 2
f 2 5 6
f 2 6 7
f 2 7 3
f 3 7 12
f 3 12 21
f 3 21 36
f 3 36 57
f 3 57 91
f 3 91 119
f 3 119 130
f 3 130 131
f 3 131 120
f 3 120 92
f 3 92 58
f 3 58 37
f 3 37 22
f 3 22 13
f 3 13 8
f 4 9 10
f 5 11 19
f 5 19 32
f 5 32 52
f 5 52 79
f 5 79 110
f 5 110 129
f 5 129 114
f 5 114 85
f 5 85 53
f 5 53 33
f 5 33 20
f 5 20 12
f 5 12 7
f 5 7 6
f 8 13 14
f 9 15 16
f 9 16 10
f 10 16 17
f 11 18 19
f 12 20 21
f 13 22 23
f 13 23 14
f 15 24 16
f 16 25 26
f 16 26 17
f 16 24 27
f 16 27 28
f 16 28 25
f 18 29 30
f 18 30 31
f 18 31 19
f 19 31 32
f 20 33 34
f 20 34 21
f 21 34 35
f 21 35 36
f 22 37 38
f 22 38 23
f 23 38 39
f 23 39 40
f 23 40 41
f 24 42 27
f 25 28 43
f 25 43 44
f 25 44 26
f 27 42 45
f 27 45 46
f 27 46 28
f 28 47 48
f 28 48 49
f 28 49 43
f 28 46 47
f 29 50 30
f 30 50 51
f 30 51 31
f 31 51 32
f 32 51 52
f 33 53 54
f 33 54 35
f 33 35 34
f 35 54 55
f 35 55 56
f 35 56 57
f 35 57 36
f 37 58 59
f 37 59 60
f 37 60 38
f 38 60 61
f 38 61 62
f 38 62 39
f 39 62 40
f 40 62 63
f 40 63 64
f 40 64 65
f 40 65 41
f 43 49 66
f 43 66 67
f 43 67 68
f 43 68 69
f 43 69 70
f 43 70 44
f 45 71 46
f 46 63 72
f 46 72 73
f 46 73 47
f 46 71 63
f 47 73 48
f 48 73 74
f 48 74 75
f 48 75 76
f 48 76 77
f 48 77 49
f 49 77 66
f 50 78 51
f 51 79 52
f 51 78 80
f 51 80 81
f 51 81 82
f 51 82 83
f 51 83 84
f 51 84 79
f 53 85 83
f 53 83 86
f 53 86 55
f 53 55 54
f 55 87 88
f 55 88 89
f 55 89 90
f 55 90 56
f 55 86 83
f 55 83 87
f 56 90 91
f 56 91 57
f 58 92 59
f 59 93 94
f 59 94 60
f 59 92 93
f 60 94 95
f 60 95 61
f 61 95 62
f 62 95 72
f 62 72 63
f 63 71 96
f 63 96 97
f 63 97 64
f 66 98 67
f 66 77 98
f 67 98 68
f 68 98 99
f 68 100 69
f 69 100 70
f 72 101 73
f 72 95 101
f 73 101 74
f 74 101 75
f 75 102 76
f 75 101 103
f 75 103 102
f 76 102 104
f 76 104 77
f 77 104 105
f 77 105 98
f 78 106 107
f 78 107 108
f 78 108 109
f 78 109 80
f 79 84 110
f 80 109 81
f 81 109 82
f 82 109 83
f 83 109 111
f 83 111 87
f 83 85 112
f 83 112 113
f 83 113 84
f 84 113 110
f 85 114 112
f 87 115 88
f 87 111 115
f 88 116 89
f 88 115 116
f 89 116 117
f 89 117 90
f 90 117 118
f 90 118 119
f 90 119 91
f 92 120 93
f 93 120 121
f 93 121 122
f 93 122 123
f 93 123 95
f 93 95 94
f 95 123 101
f 98 124 125
f 98 125 99
f 98 105 124
f 99 125 106
f 101 123 103
f 102 103 126
f 102 126 127
f 102 127 104
f 103 123 126
f 104 115 128
f 104 128 108
f 104 108 105
f 104 127 116
f 104 116 115
f 105 108 124
f 106 125 124
f 106 124 107
f 107 124 108
f 108 128 109
f 109 128 111
f 110 113 129
f 111 128 115
f 112 114 129
f 112 129 113
f 116 126 117
f 116 127 126
f 117 123 118
f 117 126 123
f 118 123 122
f 118 122 121
f 118 121 130
f 118 130 119
f 120 131 121
f 121 131 130

