# https://github.com/mikedh/trimesh
v -0.07593465 -0.02981436 -0.02358285
v -0.07591206 -0.03134655 -0.02358285
v -0.07558886 -0.03210378 -0.02169619
v -0.07558886 -0.03196449 -0.02169619
v -0.07573483 -0.02981436 -0.02250721
v -0.07568791 -0.02857089 -0.02275466
v -0.07590337 -0.02941929 -0.02358285
v -0.07586167 -0.03280529 -0.02358285
v -0.07496680 -0.03132629 -0.01943381
v -0.07543248 -0.03140733 -0.02109323
v -0.07567922 -0.03269892 -0.02240217
v -0.07555411 -0.03311173 -0.02186183
v -0.07524134 -0.03435014 -0.02094577
v -0.07539599 -0.03269892 -0.02109323
v -0.07493031 -0.03283821 -0.01943381
v -0.07557670 -0.02981436 -0.02175174
v -0.07531954 -0.02830244 -0.02094577
v -0.07576437 -0.02851011 -0.02358285
v -0.07555411 -0.02816062 -0.02233349
v -0.07574525 -0.03435014 -0.02358285
v -0.07564795 -0.03435014 -0.02289505
v -0.07442814 -0.03283821 -0.01792287
v -0.07445073 -0.03132629 -0.01792287
v -0.07493552 -0.02981436 -0.01943381
v -0.07536992 -0.02981436 -0.02094577
v -0.07550199 -0.03435014 -0.02213857
v -0.07511276 -0.03585953 -0.02094577
v -0.07473917 -0.03585953 -0.01943381
v -0.07485038 -0.03435014 -0.01943381
v -0.07437775 -0.03435014 -0.01792287
v -0.07485559 -0.02830244 -0.01943381
v -0.07427870 -0.02679051 -0.01817638
v -0.07418835 -0.02588893 -0.01840362
v -0.07422136 -0.02588386 -0.01943381
v -0.07415881 -0.02598010 -0.02031048
v -0.07493031 -0.02765158 -0.02358285
v -0.07562014 -0.03547712 -0.02358285
v -0.07560277 -0.03521880 -0.02313239
v -0.07408235 -0.03517068 -0.01714922
v -0.07409625 -0.03435014 -0.01711387
v -0.07411537 -0.03283821 -0.01706842
v -0.07412405 -0.03132629 -0.01705428
v -0.07410668 -0.03009294 -0.01709569
v -0.07434299 -0.02967761 -0.01777440
v -0.07542726 -0.03577596 -0.02255973
v -0.07492336 -0.03737146 -0.02094577
v -0.07425785 -0.03574557 -0.01786025
v -0.07453761 -0.03737146 -0.01943381
v -0.07419704 -0.03737146 -0.01832182
v -0.07433952 -0.02830244 -0.01800771
v -0.07396941 -0.02679051 -0.01741990
v -0.07404065 -0.02830244 -0.01725224
v -0.07263839 -0.02443779 -0.01551910
v -0.07265056 -0.02444285 -0.01641092
v -0.07260364 -0.02450110 -0.01721487
v -0.07029609 -0.02660311 -0.02245772
v -0.07180781 -0.02727169 -0.02358285
v -0.07456020 -0.02745657 -0.02340711
v -0.07469747 -0.02756547 -0.02358285
v -0.07552284 -0.03618370 -0.02358285
v -0.07520485 -0.03737146 -0.02245772
v -0.07402327 -0.03617357 -0.01731486
v -0.07376263 -0.03574557 -0.01655130
v -0.07313014 -0.03435014 -0.01489997
v -0.07378522 -0.03435014 -0.01635840
v -0.07379738 -0.03283821 -0.01631194
v -0.07378870 -0.03132629 -0.01629780
v -0.07382519 -0.02967761 -0.01652000
v -0.07407367 -0.02908499 -0.01717144
v -0.07492857 -0.03888338 -0.02245772
v -0.07463491 -0.03888338 -0.02094577
v -0.07415360 -0.04002556 -0.01987821
v -0.07425264 -0.03886819 -0.01939846
v -0.07402675 -0.03936203 -0.01887125
v -0.07411537 -0.03835408 -0.01855815
v -0.07393987 -0.03737146 -0.01756634
v -0.07350025 -0.02679051 -0.01641092
v -0.07274091 -0.02527859 -0.01533629
v -0.07366359 -0.02830244 -0.01641092
v -0.07231172 -0.02527859 -0.01457981
v -0.07148288 -0.02524820 -0.01326480
v -0.07134561 -0.02409589 -0.01370516
v -0.07014318 -0.02319431 -0.01326480
v -0.06967749 -0.02283469 -0.01326480
v -0.06917533 -0.02272832 -0.01326480
v -0.06878436 -0.02268527 -0.01335671
v -0.06576264 -0.02289041 -0.01441821
v -0.06727263 -0.02381985 -0.01641092
v -0.06878436 -0.02468344 -0.01822890
v -0.06878436 -0.02519755 -0.01943381
v -0.07029609 -0.02614725 -0.02140228
v -0.07029609 -0.02712734 -0.02358285
v -0.06727263 -0.02432889 -0.01756634
v -0.07430477 -0.02751988 -0.02358285
v -0.07536297 -0.03727775 -0.02358285
v -0.07514403 -0.03849590 -0.02358285
v -0.07327610 -0.03888338 -0.01641092
v -0.07349504 -0.03737146 -0.01641092
v -0.07300329 -0.03585953 -0.01489997
v -0.07277566 -0.03888338 -0.01518378
v -0.07252024 -0.03763737 -0.01424146
v -0.07259843 -0.03585953 -0.01407885
v -0.07266446 -0.03435014 -0.01396472
v -0.07268357 -0.03283821 -0.01393139
v -0.07316141 -0.03283821 -0.01489997
v -0.07311971 -0.03132629 -0.01489997
v -0.07305890 -0.02981436 -0.01489997
v -0.07507279 -0.03888338 -0.02358285
v -0.07456541 -0.04039531 -0.02245772
v -0.07413796 -0.04141592 -0.02133360
v -0.07405108 -0.04103351 -0.02032563
v -0.07393987 -0.04047635 -0.01939846
v -0.07352284 -0.04039531 -0.01792287
v -0.07384082 -0.03886819 -0.01800266
v -0.07285038 -0.02679051 -0.01511914
v -0.07287992 -0.02834802 -0.01479493
v -0.07243857 -0.02679051 -0.01436367
v -0.07148635 -0.02526593 -0.01326480
v -0.07184604 -0.02679051 -0.01338802
v -0.07035343 -0.02346782 -0.01326480
v -0.06879131 -0.02267261 -0.01326480
v -0.06588428 -0.02246494 -0.01326480
v -0.06425092 -0.02240669 -0.01338802
v -0.06576264 -0.02322470 -0.01517368
v -0.06878436 -0.02718559 -0.02358285
v -0.06425092 -0.02287268 -0.01442427
v -0.06273920 -0.02239656 -0.01338802
v -0.07291120 -0.04048901 -0.01629780
v -0.07267141 -0.04004835 -0.01543325
v -0.07256368 -0.03662942 -0.01414147
v -0.07242467 -0.03888338 -0.01442831
v -0.07186515 -0.03888338 -0.01338802
v -0.07218487 -0.03722710 -0.01353750
v -0.07218487 -0.03585953 -0.01332338
v -0.07225786 -0.03435014 -0.01326480
v -0.07229435 -0.03301043 -0.01326480
v -0.07215186 -0.03585953 -0.01326480
v -0.07220572 -0.03509724 -0.01326480
v -0.07229782 -0.03283821 -0.01326480
v -0.07224395 -0.03140480 -0.01326480
v -0.07265056 -0.03132629 -0.01398492
v -0.07261580 -0.02981436 -0.01405360
v -0.07258627 -0.02888239 -0.01410612
v -0.07470616 -0.04039531 -0.02358285
v -0.07422657 -0.04172489 -0.02245772
v -0.07403023 -0.04247959 -0.02245772
v -0.07392423 -0.04191483 -0.02087608
v -0.07358366 -0.04190723 -0.01943381
v -0.07313014 -0.04190723 -0.01792287
v -0.07272180 -0.04190723 -0.01677653
v -0.07252024 -0.02787444 -0.01422227
v -0.07176785 -0.02679051 -0.01326480
v -0.07215534 -0.02834802 -0.01351629
v -0.06437255 -0.02236870 -0.01326480
v -0.06425092 -0.02236364 -0.01326480
v -0.06274267 -0.02234591 -0.01326480
v -0.06743076 -0.02723877 -0.02358285
v -0.06128655 -0.02253079 -0.01326480
v -0.06184258 -0.02294106 -0.01424853
v -0.06273920 -0.02289547 -0.01435054
v -0.06727263 -0.02724637 -0.02358285
v -0.07253761 -0.04105377 -0.01571806
v -0.07230303 -0.04048901 -0.01491714
v -0.07116142 -0.04304941 -0.01392735
v -0.07131085 -0.04190723 -0.01364153
v -0.07145508 -0.04046875 -0.01326480
v -0.07179391 -0.03888338 -0.01326480
v -0.07181650 -0.03873649 -0.01326480
v -0.07202675 -0.03725496 -0.01326480
v -0.07224048 -0.03132629 -0.01326480
v -0.07199374 -0.02834043 -0.01326480
v -0.07215881 -0.02981436 -0.01329712
v -0.07420051 -0.04230231 -0.02358285
v -0.07407367 -0.04265686 -0.02323137
v -0.07371571 -0.04341916 -0.02245772
v -0.07345681 -0.04341916 -0.02094577
v -0.07309191 -0.04341916 -0.01943381
v -0.07258974 -0.04424730 -0.01859552
v -0.07271311 -0.04332545 -0.01802488
v -0.07259495 -0.04275816 -0.01708761
v -0.07241598 -0.04190723 -0.01602005
v -0.06097899 -0.02264981 -0.01326480
v -0.06129350 -0.02261436 -0.01340216
v -0.06494944 -0.02748190 -0.02336873
v -0.06576264 -0.02739579 -0.02358285
v -0.07142901 -0.04350020 -0.01479291
v -0.07101720 -0.04405736 -0.01421823
v -0.07100677 -0.04232257 -0.01326480
v -0.07111624 -0.04190723 -0.01326480
v -0.07074092 -0.04350020 -0.01340923
v -0.07078957 -0.04306207 -0.01326480
v -0.07218661 -0.03052347 -0.01326480
v -0.07213796 -0.02981436 -0.01326480
v -0.07408756 -0.04270245 -0.02358285
v -0.07396941 -0.04305954 -0.02358285
v -0.07386341 -0.04335584 -0.02358285
v -0.07313709 -0.04493108 -0.02245772
v -0.07283996 -0.04502225 -0.02092052
v -0.07269573 -0.04453094 -0.01943381
v -0.07252545 -0.04558448 -0.02039936
v -0.07242119 -0.04528817 -0.01943381
v -0.07220399 -0.04482218 -0.01802488
v -0.07242814 -0.04376611 -0.01758856
v -0.07150026 -0.04507290 -0.01626750
v -0.07218835 -0.04332545 -0.01651495
v -0.06048203 -0.02376920 -0.01326480
v -0.06488341 -0.02779340 -0.02358285
v -0.07123788 -0.04466517 -0.01522620
v -0.07066099 -0.04348247 -0.01326480
v -0.07104674 -0.04567312 -0.01566756
v -0.07087124 -0.04507290 -0.01479291
v -0.06956108 -0.04724329 -0.01410309
v -0.06946724 -0.04644047 -0.01326480
v -0.07007020 -0.04503492 -0.01326985
v -0.07007020 -0.04502732 -0.01326480
v -0.07326046 -0.04493108 -0.02358285
v -0.07269400 -0.04598968 -0.02245772
v -0.07261580 -0.04581241 -0.02140733
v -0.07230651 -0.04636703 -0.02092052
v -0.07195725 -0.04644047 -0.01943381
v -0.07145160 -0.04653671 -0.01785318
v -0.07124482 -0.04609605 -0.01667553
v -0.05818316 -0.04821578 -0.01326480
v -0.06101895 -0.04821578 -0.02358285
v -0.06475135 -0.02827965 -0.02358285
v -0.07087124 -0.04653671 -0.01626750
v -0.06963927 -0.04821578 -0.01529690
v -0.06936125 -0.04821578 -0.01466565
v -0.06881043 -0.04797013 -0.01337287
v -0.06897202 -0.04750161 -0.01326480
v -0.06938731 -0.04662282 -0.01326480
v -0.06925873 -0.04821578 -0.01446366
v -0.07006498 -0.04503998 -0.01326480
v -0.07266793 -0.04630119 -0.02358285
v -0.07237080 -0.04674438 -0.02245772
v -0.07180086 -0.04795240 -0.02245772
v -0.07147593 -0.04808916 -0.02083770
v -0.07134387 -0.04772954 -0.01943381
v -0.07117358 -0.04742816 -0.01831071
v -0.07100677 -0.04710400 -0.01730274
v -0.06862102 -0.04821578 -0.01326480
v -0.07176437 -0.04821578 -0.02358285
v -0.07023179 -0.04795240 -0.01641092
v -0.07009800 -0.04821578 -0.01641092
v -0.06869400 -0.04807903 -0.01326480
v -0.06876177 -0.04794480 -0.01326480
v -0.06870965 -0.04821578 -0.01342943
v -0.07241598 -0.04686341 -0.02358285
v -0.07204760 -0.04764343 -0.02358285
v -0.07190164 -0.04795240 -0.02358285
v -0.07168618 -0.04821578 -0.02271224
v -0.07166185 -0.04821578 -0.02245772
v -0.07142206 -0.04821578 -0.02090739
v -0.07138384 -0.04821578 -0.02071549
v -0.07107801 -0.04821578 -0.01943381
v -0.07061407 -0.04821578 -0.01786126
v -0.07075655 -0.04793974 -0.01785318
f 1 2 3
f 1 3 4
f 1 4 5
f 1 5 6
f 1 6 7
f 1 7 18
f 1 18 36
f 1 36 59
f 1 59 94
f 1 94 57
f 1 57 92
f 1 92 125
f 1 125 157
f 1 157 161
f 1 161 185
f 1 185 207
f 1 207 225
f 1 225 224
f 1 224 242
f 1 242 250
f 1 250 249
f 1 249 248
f 1 248 234
f 1 234 216
f 1 216 196
f 1 196 195
f 1 195 194
f 1 194 173
f 1 173 144
f 1 144 108
f 1 108 96
f 1 96 95
f 1 95 60
f 1 60 37
f 1 37 20
f 1 20 8
f 1 8 2
f 2 8 3
f 3 9 10
f 3 10 4
f 3 8 11
f 3 11 12
f 3 12 13
f 3 13 14
f 3 14 15
f 3 15 9
f 4 10 16
f 4 16 5
f 5 16 17
f 5 17 6
f 6 18 7
f 6 17 19
f 6 19 18
f 8 20 21
f 8 21 11
f 9 15 22
f 9 22 23
f 9 23 24
f 9 24 25
f 9 25 10
f 10 25 16
f 11 21 12
f 12 21 26
f 12 26 27
f 12 27 13
f 13 27 28
f 13 28 29
f 13 29 14
f 14 29 15
f 15 29 30
f 15 30 22
f 16 25 17
f 17 31 32
f 17 32 33
f 17 33 19
f 17 25 24
f 17 24 31
f 18 19 34
f 18 34 35
f 18 35 36
f 19 33 34
f 20 37 38
f 20 38 21
f 21 38 26
f 22 30 39
f 22 39 40
f 22 40 41
f 22 41 23
f 23 42 43
f 23 43 44
f 23 44 24
f 23 41 42
f 24 44 31
f 26 38 27
f 27 38 45
f 27 45 46
f 27 46 28
f 28 47 39
f 28 39 29
f 28 46 48
f 28 48 49
f 28 49 47
f 29 39 30
f 31 44 50
f 31 50 32
f 32 51 33
f 32 50 52
f 32 52 51
f 33 51 53
f 33 53 34
f 34 53 54
f 34 54 55
f 34 55 35
f 35 55 56
f 35 56 57
f 35 57 58
f 35 58 59
f 35 59 36
f 37 60 38
f 38 60 61
f 38 61 45
f 39 47 62
f 39 62 63
f 39 63 64
f 39 64 65
f 39 65 40
f 40 65 41
f 41 65 66
f 41 66 42
f 42 67 43
f 42 66 67
f 43 67 68
f 43 68 69
f 43 69 44
f 44 69 50
f 45 61 46
f 46 61 70
f 46 70 71
f 46 71 72
f 46 72 73
f 46 73 48
f 47 49 62
f 48 73 74
f 48 74 75
f 48 75 49
f 49 75 76
f 49 76 62
f 50 69 52
f 51 77 78
f 51 78 53
f 51 52 79
f 51 79 77
f 52 69 79
f 53 78 80
f 53 80 81
f 53 81 82
f 53 82 83
f 53 83 84
f 53 84 54
f 54 84 55
f 55 84 85
f 55 85 86
f 55 86 87
f 55 87 88
f 55 88 89
f 55 89 90
f 55 90 91
f 55 91 56
f 56 92 57
f 56 91 90
f 56 90 93
f 56 93 92
f 57 94 58
f 58 94 59
f 60 95 61
f 61 95 96
f 61 96 70
f 62 76 97
f 62 97 98
f 62 98 63
f 63 99 64
f 63 98 100
f 63 100 101
f 63 101 99
f 64 99 102
f 64 102 103
f 64 103 104
f 64 104 105
f 64 105 66
f 64 66 65
f 66 105 67
f 67 106 107
f 67 107 68
f 67 105 106
f 68 79 69
f 68 107 79
f 70 96 108
f 70 108 109
f 70 109 110
f 70 110 111
f 70 111 71
f 71 111 72
f 72 112 74
f 72 74 73
f 72 111 112
f 74 112 113
f 74 113 114
f 74 114 75
f 75 114 76
f 76 114 97
f 77 115 78
f 77 79 116
f 77 116 115
f 78 115 117
f 78 117 80
f 79 107 116
f 80 118 81
f 80 117 119
f 80 119 118
f 81 118 152
f 81 152 171
f 81 171 193
f 81 193 192
f 81 192 170
f 81 170 140
f 81 140 139
f 81 139 136
f 81 136 135
f 81 135 138
f 81 138 137
f 81 137 169
f 81 169 168
f 81 168 167
f 81 167 166
f 81 166 189
f 81 189 188
f 81 188 191
f 81 191 209
f 81 209 215
f 81 215 233
f 81 233 213
f 81 213 231
f 81 231 230
f 81 230 246
f 81 246 245
f 81 245 241
f 81 241 223
f 81 223 206
f 81 206 182
f 81 182 158
f 81 158 156
f 81 156 155
f 81 155 154
f 81 154 122
f 81 122 121
f 81 121 85
f 81 85 84
f 81 84 83
f 81 83 120
f 81 120 82
f 82 120 83
f 85 121 86
f 86 121 122
f 86 122 87
f 87 122 123
f 87 123 124
f 87 124 90
f 87 90 88
f 88 90 89
f 90 124 93
f 92 93 126
f 92 126 127
f 92 127 125
f 93 124 126
f 97 113 128
f 97 128 129
f 97 129 100
f 97 100 98
f 97 114 113
f 99 101 130
f 99 130 102
f 100 131 101
f 100 129 131
f 101 131 132
f 101 132 133
f 101 133 130
f 102 130 133
f 102 133 134
f 102 134 103
f 103 135 136
f 103 136 104
f 103 134 137
f 103 137 138
f 103 138 135
f 104 136 139
f 104 139 140
f 104 140 141
f 104 141 106
f 104 106 105
f 106 141 107
f 107 141 142
f 107 142 143
f 107 143 116
f 108 144 109
f 109 144 145
f 109 145 110
f 110 145 146
f 110 146 147
f 110 147 111
f 111 147 148
f 111 148 112
f 112 148 113
f 113 148 149
f 113 149 150
f 113 150 128
f 115 116 151
f 115 151 117
f 116 143 151
f 117 151 119
f 118 119 152
f 119 151 153
f 119 153 152
f 122 154 123
f 123 154 155
f 123 155 156
f 123 156 127
f 123 127 126
f 123 126 124
f 125 127 157
f 127 156 158
f 127 158 159
f 127 159 160
f 127 160 161
f 127 161 157
f 128 150 162
f 128 162 129
f 129 163 131
f 129 162 164
f 129 164 165
f 129 165 163
f 131 163 166
f 131 166 132
f 132 167 168
f 132 168 133
f 132 166 167
f 133 168 169
f 133 169 137
f 133 137 134
f 140 170 141
f 141 170 142
f 142 170 143
f 143 171 153
f 143 153 151
f 143 170 172
f 143 172 171
f 144 173 174
f 144 174 146
f 144 146 145
f 146 174 175
f 146 175 176
f 146 176 147
f 147 176 148
f 148 176 177
f 148 177 178
f 148 178 179
f 148 179 149
f 149 179 180
f 149 180 150
f 150 181 162
f 150 180 181
f 152 153 171
f 158 182 183
f 158 183 184
f 158 184 159
f 159 184 185
f 159 185 160
f 160 185 161
f 162 181 186
f 162 186 187
f 162 187 164
f 163 165 166
f 164 188 189
f 164 189 165
f 164 187 190
f 164 190 191
f 164 191 188
f 165 189 166
f 170 192 172
f 171 172 193
f 172 192 193
f 173 194 174
f 174 194 195
f 174 195 175
f 175 196 197
f 175 197 198
f 175 198 176
f 175 195 196
f 176 199 177
f 176 198 200
f 176 200 201
f 176 201 199
f 177 199 178
f 178 199 201
f 178 201 202
f 178 202 203
f 178 203 179
f 179 203 180
f 180 203 204
f 180 204 205
f 180 205 181
f 181 205 186
f 182 206 207
f 182 207 184
f 182 184 183
f 184 207 185
f 186 205 208
f 186 208 187
f 187 209 190
f 187 208 210
f 187 210 211
f 187 211 212
f 187 212 213
f 187 213 214
f 187 214 215
f 187 215 209
f 190 209 191
f 196 216 197
f 197 216 217
f 197 217 218
f 197 218 198
f 198 218 200
f 200 218 219
f 200 219 220
f 200 220 201
f 201 220 202
f 202 220 221
f 202 221 222
f 202 222 204
f 202 204 203
f 204 222 210
f 204 210 208
f 204 208 205
f 206 223 224
f 206 224 225
f 206 225 207
f 210 212 211
f 210 222 226
f 210 226 227
f 210 227 228
f 210 228 212
f 212 229 230
f 212 230 231
f 212 231 213
f 212 228 232
f 212 232 229
f 213 233 214
f 214 233 215
f 216 234 235
f 216 235 217
f 217 235 218
f 218 235 219
f 219 235 236
f 219 236 237
f 219 237 220
f 220 238 239
f 220 239 221
f 220 237 238
f 221 239 240
f 221 240 222
f 222 240 226
f 223 241 247
f 223 247 232
f 223 232 228
f 223 228 227
f 223 227 244
f 223 244 256
f 223 256 255
f 223 255 254
f 223 254 253
f 223 253 252
f 223 252 251
f 223 251 242
f 223 242 224
f 226 240 243
f 226 243 227
f 227 243 244
f 229 245 246
f 229 246 230
f 229 232 247
f 229 247 241
f 229 241 245
f 234 248 235
f 235 248 236
f 236 248 249
f 236 249 250
f 236 250 242
f 236 242 251
f 236 251 252
f 236 252 253
f 236 253 237
f 237 253 254
f 237 254 238
f 238 254 255
f 238 255 256
f 238 256 239
f 239 256 257
f 239 257 240
f 240 257 256
f 240 256 244
f 240 244 243

