# https://github.com/mikedh/trimesh
v 0.02040932 -0.01830721 -0.00327988
v 0.02040932 -0.01830721 -0.00395238
v 0.01937341 -0.01836384 -0.00337421
v 0.02040932 -0.01914203 -0.00252355
v 0.02192041 -0.01914203 -0.00252355
v 0.03250047 -0.01830904 -0.00327988
v 0.03552504 -0.01830904 -0.00328163
v 0.03703614 -0.01830904 -0.00328338
v 0.03939307 -0.01830904 -0.00328862
v 0.01512285 -0.01971928 -0.00723274
v 0.01937341 -0.01836384 -0.00382137
v 0.03939307 -0.01830904 -0.00395238
v 0.03703614 -0.01830904 -0.00395412
v 0.03854961 -0.01961150 -0.00733929
v 0.03552504 -0.01961150 -0.00733929
v 0.03552504 -0.01994945 -0.00816899
v 0.01952547 -0.01992753 -0.00202223
v 0.01512285 -0.01971928 -0.00619518
v 0.01512285 -0.02734408 0.00114285
v 0.02040932 -0.01989830 -0.00200826
v 0.02192041 -0.01989830 -0.00200826
v 0.02645608 -0.01914386 -0.00252355
v 0.03401394 -0.01914569 -0.00252529
v 0.03552504 -0.01914751 -0.00252529
v 0.03854961 -0.01916761 -0.00253053
v 0.03939307 -0.01868900 -0.00295674
v 0.03703614 -0.01915665 -0.00252704
v 0.01512285 -0.02003714 -0.00798733
v 0.03939307 -0.01961333 -0.00733929
v 0.03939307 -0.01994945 -0.00816375
v 0.03703614 -0.01994945 -0.00816899
v 0.02192041 -0.02148208 -0.01115241
v 0.01512285 -0.02186387 -0.01187730
v 0.01512285 -0.02149853 -0.01112097
v 0.01512285 -0.02114414 -0.01036289
v 0.01512285 -0.02043902 -0.00885196
v 0.02040932 -0.02225662 -0.00093926
v 0.02040932 -0.02074408 -0.00162223
v 0.01512285 -0.02781903 0.00136643
v 0.01512285 -0.02830129 0.00159176
v 0.02796718 -0.02074408 -0.00162223
v 0.03401394 -0.01990196 -0.00201001
v 0.03552504 -0.01990378 -0.00201176
v 0.03854961 -0.01992388 -0.00202049
v 0.03939307 -0.01918039 -0.00253228
v 0.03703614 -0.01991292 -0.00201525
v 0.03939307 -0.02080254 -0.00884847
v 0.03552504 -0.02122269 -0.00980044
v 0.03401394 -0.02112770 -0.00992271
v 0.02730429 -0.02149304 -0.01112621
v 0.02645608 -0.02148574 -0.01113669
v 0.02494498 -0.02148026 -0.01114542
v 0.01512285 -0.02265668 -0.01339696
v 0.02040932 -0.02308596 -0.00057070
v 0.03098937 -0.02307865 -0.00056721
v 0.02947827 -0.02225662 -0.00093751
v 0.02040932 -0.02713035 0.00114285
v 0.02040932 -0.02637409 0.00083193
v 0.02040932 -0.02527987 0.00036904
v 0.01512285 -0.02905208 0.00185726
v 0.02947827 -0.02830129 0.00159176
v 0.03250047 -0.02225662 -0.00093751
v 0.03401394 -0.02074408 -0.00162573
v 0.03552504 -0.02074408 -0.00162922
v 0.03854961 -0.02074408 -0.00165193
v 0.03939307 -0.01993484 -0.00202573
v 0.03939307 -0.01951286 -0.00230870
v 0.03703614 -0.02074408 -0.00163795
v 0.03939307 -0.02219634 -0.00906856
v 0.03781069 -0.02149304 -0.00961004
v 0.03703614 -0.02138709 -0.00967293
v 0.01512285 -0.02376733 -0.01407994
v 0.03098937 -0.02383309 -0.00024057
v 0.03250047 -0.02307865 -0.00056721
v 0.02947827 -0.02713035 0.00114285
v 0.03098937 -0.02637226 0.00083717
v 0.03098937 -0.02527987 0.00037778
v 0.01512285 -0.02981200 0.00212451
v 0.02947827 -0.02981200 0.00212451
v 0.03098937 -0.02830129 0.00158826
v 0.03098937 -0.02712670 0.00114110
v 0.03401394 -0.02225662 -0.00094101
v 0.03552504 -0.02225662 -0.00094799
v 0.03854961 -0.02225662 -0.00097943
v 0.03939307 -0.02141084 -0.00136721
v 0.03939307 -0.02029653 -0.00186328
v 0.03703614 -0.02225662 -0.00096197
v 0.03939307 -0.03696916 -0.00518557
v 0.01512285 -0.03696916 -0.01265111
v 0.03781069 -0.02150766 -0.00961004
v 0.03250047 -0.02527987 0.00037778
v 0.03250047 -0.02383492 -0.00024057
v 0.03401394 -0.02308413 -0.00057070
v 0.03250047 -0.02637591 0.00083717
v 0.01512285 -0.03027782 0.00227648
v 0.02947827 -0.03075095 0.00243019
v 0.03098937 -0.03075277 0.00243019
v 0.03098937 -0.02981200 0.00212102
v 0.03250047 -0.02830129 0.00158128
v 0.03250047 -0.02713218 0.00113761
v 0.03552504 -0.02309509 -0.00057594
v 0.03854961 -0.02313711 -0.00059341
v 0.03939307 -0.02225662 -0.00099341
v 0.03703614 -0.02311336 -0.00058293
v 0.03939307 -0.03696916 0.00354635
v 0.01512285 -0.03696916 0.00376469
v 0.03401394 -0.02527987 0.00037079
v 0.03401394 -0.02384040 -0.00024406
v 0.03552504 -0.02385136 -0.00024755
v 0.03401394 -0.02714497 0.00113237
v 0.03401394 -0.02639053 0.00083193
v 0.01512285 -0.03075095 0.00243019
v 0.02796718 -0.03150722 0.00265202
v 0.01512285 -0.03112543 0.00254023
v 0.03098937 -0.03150904 0.00265028
v 0.03250047 -0.03152001 0.00264678
v 0.03250047 -0.03076556 0.00242670
v 0.03250047 -0.02981200 0.00211403
v 0.03401394 -0.02830129 0.00156905
v 0.03854961 -0.02389338 -0.00026851
v 0.03939307 -0.02315720 -0.00060039
v 0.03939307 -0.02264389 -0.00082397
v 0.03703614 -0.02386963 -0.00025629
v 0.03939307 -0.03652526 0.00349395
v 0.03895114 -0.03696916 0.00357430
v 0.02494498 -0.03696916 0.00376469
v 0.01512285 -0.03586033 0.00361971
v 0.03552504 -0.02527987 0.00035856
v 0.03552504 -0.02716689 0.00112363
v 0.03552504 -0.02641062 0.00082319
v 0.02796718 -0.03283708 0.00301534
v 0.01512285 -0.03150722 0.00265202
v 0.03098937 -0.03283708 0.00300661
v 0.02947827 -0.03283708 0.00301185
v 0.03250047 -0.03283708 0.00299613
v 0.03401394 -0.03154923 0.00264329
v 0.03401394 -0.03079296 0.00241622
v 0.03401394 -0.02981200 0.00209831
v 0.03552504 -0.02830129 0.00154983
v 0.03854961 -0.02527987 0.00031140
v 0.03939307 -0.02391347 -0.00027899
v 0.03939307 -0.02348967 -0.00045891
v 0.03703614 -0.02527987 0.00033935
v 0.03939307 -0.03586033 0.00341011
v 0.03854961 -0.03696916 0.00359526
v 0.02685999 -0.03696916 0.00376295
v 0.02645608 -0.03586033 0.00361971
v 0.01512285 -0.03509858 0.00349046
v 0.03703614 -0.02719794 0.00110966
v 0.03703614 -0.02644350 0.00081271
v 0.02796718 -0.03434779 0.00336120
v 0.02947827 -0.03434779 0.00335945
v 0.01512285 -0.03283708 0.00301534
v 0.01512285 -0.03358604 0.00318827
v 0.03098937 -0.03434779 0.00335421
v 0.03250047 -0.03434779 0.00334198
v 0.03401394 -0.03283708 0.00298041
v 0.03552504 -0.03283708 0.00295421
v 0.03552504 -0.03159307 0.00262757
v 0.03552504 -0.03083680 0.00240573
v 0.03552504 -0.02981200 0.00207560
v 0.03703614 -0.02830129 0.00152014
v 0.03854961 -0.02648734 0.00079699
v 0.03939307 -0.02527987 0.00029044
v 0.03939307 -0.02452360 -0.00002397
v 0.03939307 -0.03501455 0.00325989
v 0.03854961 -0.03586033 0.00345378
v 0.03744005 -0.03696916 0.00364242
v 0.02836871 -0.03696916 0.00376120
v 0.02947827 -0.03586033 0.00361622
v 0.01512285 -0.03434779 0.00336120
v 0.03854961 -0.02724361 0.00109044
v 0.03098937 -0.03586033 0.00361273
v 0.03250047 -0.03586033 0.00360574
v 0.03401394 -0.03586033 0.00358827
v 0.03401394 -0.03434779 0.00331928
v 0.03552504 -0.03434779 0.00328783
v 0.03703614 -0.03283708 0.00291054
v 0.03703614 -0.03166066 0.00260312
v 0.03703614 -0.03090439 0.00238827
v 0.03703614 -0.02981200 0.00204241
v 0.03854961 -0.02830129 0.00147997
v 0.03939307 -0.02685452 0.00091577
v 0.03939307 -0.02652205 0.00078651
v 0.03939307 -0.02581145 0.00050354
v 0.03939307 -0.03434779 0.00314111
v 0.03854961 -0.03434779 0.00318303
v 0.03703614 -0.03586033 0.00351316
v 0.03703614 -0.03696916 0.00365814
v 0.02947827 -0.03696916 0.00375945
v 0.03939307 -0.02774231 0.00124765
v 0.03939307 -0.02727832 0.00107647
v 0.03098937 -0.03696916 0.00375421
v 0.03139328 -0.03696916 0.00375247
v 0.03250047 -0.03696916 0.00374548
v 0.03401394 -0.03696916 0.00372627
v 0.03552504 -0.03696916 0.00370006
v 0.03552504 -0.03586033 0.00355683
v 0.03703614 -0.03434779 0.00324242
v 0.03854961 -0.03283708 0.00285290
v 0.03854961 -0.03175200 0.00257866
v 0.03854961 -0.03099573 0.00236032
v 0.03854961 -0.02981200 0.00199351
v 0.03939307 -0.02896623 0.00167385
v 0.03939307 -0.02830129 0.00144678
v 0.03939307 -0.03283708 0.00280748
v 0.03939307 -0.03230367 0.00267823
v 0.03939307 -0.03182507 0.00255770
v 0.03939307 -0.03140309 0.00243892
v 0.03939307 -0.03107063 0.00234285
v 0.03939307 -0.03033445 0.00211927
v 0.03939307 -0.02981200 0.00195683
f 1 2 11
f 1 11 3
f 1 3 4
f 1 4 5
f 1 5 6
f 1 6 7
f 1 7 8
f 1 8 9
f 1 9 12
f 1 12 2
f 2 10 11
f 2 12 13
f 2 13 14
f 2 14 15
f 2 15 16
f 2 16 10
f 3 17 4
f 3 11 10
f 3 10 18
f 3 18 19
f 3 19 17
f 4 17 20
f 4 20 21
f 4 21 5
f 5 21 22
f 5 22 6
f 6 22 23
f 6 23 7
f 7 23 24
f 7 24 8
f 8 24 9
f 9 25 26
f 9 26 45
f 9 45 67
f 9 67 66
f 9 66 86
f 9 86 85
f 9 85 103
f 9 103 122
f 9 122 121
f 9 121 142
f 9 142 141
f 9 141 165
f 9 165 164
f 9 164 185
f 9 185 184
f 9 184 183
f 9 183 192
f 9 192 191
f 9 191 205
f 9 205 204
f 9 204 212
f 9 212 211
f 9 211 210
f 9 210 209
f 9 209 208
f 9 208 207
f 9 207 206
f 9 206 186
f 9 186 166
f 9 166 144
f 9 144 124
f 9 124 105
f 9 105 88
f 9 88 69
f 9 69 47
f 9 47 30
f 9 30 29
f 9 29 12
f 9 24 27
f 9 27 25
f 10 28 36
f 10 36 35
f 10 35 34
f 10 34 33
f 10 33 53
f 10 53 72
f 10 72 89
f 10 89 106
f 10 106 127
f 10 127 148
f 10 148 171
f 10 171 154
f 10 154 153
f 10 153 132
f 10 132 114
f 10 114 112
f 10 112 95
f 10 95 78
f 10 78 60
f 10 60 40
f 10 40 39
f 10 39 19
f 10 19 18
f 10 16 28
f 12 29 14
f 12 14 13
f 14 29 30
f 14 30 31
f 14 31 16
f 14 16 15
f 16 31 32
f 16 32 33
f 16 33 34
f 16 34 35
f 16 35 36
f 16 36 28
f 17 37 38
f 17 38 20
f 17 19 39
f 17 39 40
f 17 40 37
f 20 38 41
f 20 41 21
f 21 41 42
f 21 42 22
f 22 42 23
f 23 42 24
f 24 42 43
f 24 43 27
f 25 44 45
f 25 45 26
f 25 27 46
f 25 46 44
f 27 43 46
f 30 47 48
f 30 48 49
f 30 49 50
f 30 50 51
f 30 51 52
f 30 52 31
f 31 52 32
f 32 52 53
f 32 53 33
f 37 40 54
f 37 54 55
f 37 55 56
f 37 56 38
f 38 56 62
f 38 62 41
f 40 57 58
f 40 58 59
f 40 59 54
f 40 60 61
f 40 61 75
f 40 75 57
f 41 62 63
f 41 63 42
f 42 63 43
f 43 63 64
f 43 64 46
f 44 65 66
f 44 66 67
f 44 67 45
f 44 46 68
f 44 68 65
f 46 64 68
f 47 69 70
f 47 70 71
f 47 71 48
f 48 71 50
f 48 50 49
f 50 71 72
f 50 72 53
f 50 53 51
f 51 53 52
f 54 59 73
f 54 73 55
f 55 73 74
f 55 74 62
f 55 62 56
f 57 75 76
f 57 76 58
f 58 76 77
f 58 77 59
f 59 77 73
f 60 78 79
f 60 79 61
f 61 79 98
f 61 98 80
f 61 80 81
f 61 81 75
f 62 74 82
f 62 82 63
f 63 82 64
f 64 82 83
f 64 83 68
f 65 84 85
f 65 85 86
f 65 86 66
f 65 68 83
f 65 83 87
f 65 87 84
f 69 88 89
f 69 89 90
f 69 90 70
f 70 90 72
f 70 72 71
f 72 90 89
f 73 77 91
f 73 91 92
f 73 92 74
f 74 92 108
f 74 108 93
f 74 93 82
f 75 81 76
f 76 81 94
f 76 94 91
f 76 91 77
f 78 95 79
f 79 96 97
f 79 97 98
f 79 95 96
f 80 98 118
f 80 118 99
f 80 99 100
f 80 100 81
f 81 100 94
f 82 93 83
f 83 93 101
f 83 101 87
f 84 102 103
f 84 103 85
f 84 87 104
f 84 104 102
f 87 101 104
f 88 105 125
f 88 125 145
f 88 145 168
f 88 168 189
f 88 189 197
f 88 197 196
f 88 196 195
f 88 195 194
f 88 194 193
f 88 193 190
f 88 190 169
f 88 169 146
f 88 146 126
f 88 126 106
f 88 106 89
f 91 94 107
f 91 107 108
f 91 108 92
f 93 108 109
f 93 109 101
f 94 100 110
f 94 110 111
f 94 111 107
f 95 112 96
f 96 113 97
f 96 112 114
f 96 114 113
f 97 115 116
f 97 116 117
f 97 117 118
f 97 118 98
f 97 113 115
f 99 118 119
f 99 119 110
f 99 110 100
f 101 109 104
f 102 120 121
f 102 121 122
f 102 122 103
f 102 104 123
f 102 123 120
f 104 109 123
f 105 124 125
f 106 126 147
f 106 147 127
f 107 111 128
f 107 128 109
f 107 109 108
f 109 128 123
f 110 129 130
f 110 130 111
f 110 119 129
f 111 130 128
f 113 131 115
f 113 114 132
f 113 132 153
f 113 153 131
f 115 133 116
f 115 131 134
f 115 134 133
f 116 135 136
f 116 136 117
f 116 133 135
f 117 136 137
f 117 137 138
f 117 138 118
f 118 138 119
f 119 138 139
f 119 139 129
f 120 140 141
f 120 141 142
f 120 142 121
f 120 123 143
f 120 143 140
f 123 128 143
f 124 144 125
f 125 144 145
f 126 146 147
f 127 147 148
f 128 130 143
f 129 139 149
f 129 149 150
f 129 150 130
f 130 150 143
f 131 151 152
f 131 152 134
f 131 153 154
f 131 154 151
f 133 155 135
f 133 134 152
f 133 152 155
f 135 156 157
f 135 157 136
f 135 155 156
f 136 157 158
f 136 158 159
f 136 159 160
f 136 160 137
f 137 160 161
f 137 161 138
f 138 161 139
f 139 161 162
f 139 162 149
f 140 163 164
f 140 164 165
f 140 165 141
f 140 143 150
f 140 150 163
f 144 166 167
f 144 167 145
f 145 167 168
f 146 169 170
f 146 170 147
f 147 170 152
f 147 152 151
f 147 151 148
f 148 151 171
f 149 162 172
f 149 172 163
f 149 163 150
f 151 154 171
f 152 170 173
f 152 173 155
f 155 173 174
f 155 174 156
f 156 174 175
f 156 175 176
f 156 176 157
f 157 176 158
f 158 177 178
f 158 178 179
f 158 179 159
f 158 176 177
f 159 179 180
f 159 180 160
f 160 180 181
f 160 181 161
f 161 181 162
f 162 181 182
f 162 182 172
f 163 172 183
f 163 183 184
f 163 184 185
f 163 185 164
f 166 186 167
f 167 186 187
f 167 187 199
f 167 199 188
f 167 188 168
f 168 188 189
f 169 190 170
f 170 190 173
f 172 182 191
f 172 191 192
f 172 192 183
f 173 193 194
f 173 194 174
f 173 190 193
f 174 195 175
f 174 194 195
f 175 196 197
f 175 197 198
f 175 198 177
f 175 177 176
f 175 195 196
f 177 198 188
f 177 188 199
f 177 199 178
f 178 199 200
f 178 200 201
f 178 201 179
f 179 201 180
f 180 201 202
f 180 202 203
f 180 203 181
f 181 203 182
f 182 203 204
f 182 204 205
f 182 205 191
f 186 206 200
f 186 200 187
f 187 200 199
f 188 198 189
f 189 198 197
f 200 206 207
f 200 207 208
f 200 208 201
f 201 208 209
f 201 209 202
f 202 209 210
f 202 210 211
f 202 211 203
f 203 211 212
f 203 212 204

