# https://github.com/mikedh/trimesh
v 0.00689703 -0.03607273 -0.04217780
v 0.00838157 -0.03628254 -0.04217780
v 0.02555333 -0.03909265 -0.04815762
v 0.02555333 -0.03915866 -0.04871371
v 0.02555333 -0.03929304 -0.04953686
v 0.01737983 -0.03863059 -0.04815762
v 0.01587253 -0.03862587 -0.04815762
v 0.01133359 -0.03861880 -0.04815762
v -0.00679942 -0.03607273 -0.04217780
v 0.00925751 -0.03655129 -0.04217780
v 0.02555333 -0.03943920 -0.04725594
v 0.02555333 -0.03930011 -0.04760781
v 0.02555333 -0.03971974 -0.05029297
v 0.01889281 -0.03929068 -0.04953581
v 0.00982630 -0.03928833 -0.04953162
v -0.01133268 -0.03861880 -0.04815762
v -0.01587162 -0.03862587 -0.04815762
v -0.01738460 -0.03863059 -0.04815762
v -0.03255422 -0.03929304 -0.04953686
v -0.03255422 -0.03920346 -0.04815762
v -0.00831240 -0.03628018 -0.04217780
v 0.02555333 -0.04786483 -0.04217780
v 0.02555333 -0.04023132 -0.05118104
v -0.03255422 -0.03971974 -0.05029297
v -0.01889189 -0.03929068 -0.04953581
v -0.00982538 -0.03928833 -0.04953162
v -0.03255422 -0.03921524 -0.04812935
v -0.00925659 -0.03655129 -0.04217780
v -0.03255422 -0.03955236 -0.04733972
v 0.02555333 -0.06015200 -0.04217780
v 0.02555333 -0.04090791 -0.05225029
v -0.03255422 -0.04090791 -0.05234349
v -0.03255422 -0.04023132 -0.05118104
v -0.03255422 -0.04897049 -0.04217780
v 0.02493904 -0.06015436 -0.04217780
v 0.02555333 -0.05939997 -0.04297476
v 0.02555333 -0.04131104 -0.05238329
v -0.03255422 -0.04190984 -0.05287550
v -0.03255422 -0.06012371 -0.04217780
v -0.02494381 -0.06015436 -0.04217780
v 0.02555333 -0.05891197 -0.04342613
v -0.02796409 -0.05939997 -0.04297476
v -0.02645110 -0.05858428 -0.04373088
v 0.02555333 -0.04190984 -0.05257913
v -0.03255422 -0.04336912 -0.05270270
v -0.03255422 -0.05938347 -0.04295801
v -0.03249734 -0.05938347 -0.04295906
v -0.03099005 -0.05939290 -0.04296848
v -0.03100142 -0.06014257 -0.04217780
v -0.02796409 -0.06015200 -0.04217780
v 0.02555333 -0.05858192 -0.04373088
v -0.02947707 -0.06014965 -0.04217780
v -0.02947707 -0.05939761 -0.04297267
v -0.02796409 -0.05858192 -0.04373088
v -0.02796409 -0.05782753 -0.04441893
v -0.02645110 -0.05782753 -0.04441998
v 0.02555333 -0.05782753 -0.04441893
v 0.02555333 -0.04342098 -0.05235082
v -0.03255422 -0.04342098 -0.05269537
v -0.03255422 -0.05935518 -0.04298419
v -0.03249734 -0.05856542 -0.04371517
v -0.03255422 -0.05853949 -0.04373821
v -0.03099005 -0.05857485 -0.04372460
v -0.02947707 -0.05857957 -0.04372879
v -0.02947707 -0.05782517 -0.04441788
v -0.02796409 -0.05702363 -0.04504518
v -0.02947707 -0.05702363 -0.04504309
v -0.02645110 -0.05702363 -0.04504623
v 0.02555333 -0.05734896 -0.04479384
v 0.02555333 -0.04528339 -0.05183139
v -0.03255422 -0.04464687 -0.05218536
v 0.02555333 -0.04575017 -0.05163974
v 0.02555333 -0.04644327 -0.05135489
v -0.03249734 -0.05781103 -0.04440531
v -0.03255422 -0.05781103 -0.04440427
v -0.03099005 -0.05782046 -0.04441369
v -0.03099005 -0.05702363 -0.04503785
v -0.02947707 -0.05609478 -0.04576046
v -0.03099005 -0.05609243 -0.04575941
v -0.02796409 -0.05609478 -0.04576151
v 0.02555333 -0.05702363 -0.04504623
v -0.03249734 -0.04544606 -0.05182825
v -0.03255422 -0.04544606 -0.05182825
v 0.02555333 -0.04697370 -0.05109307
v -0.02947707 -0.04644327 -0.05135489
v -0.03255422 -0.05702363 -0.04502424
v -0.03249734 -0.05608535 -0.04575418
v -0.02947707 -0.05533803 -0.04630608
v -0.03099005 -0.05533568 -0.04630503
v -0.03255422 -0.05532860 -0.04629980
v -0.02494381 -0.05534039 -0.04630713
v 0.02555333 -0.05564451 -0.04608720
v 0.02555333 -0.05609478 -0.04576151
v -0.03255422 -0.04641027 -0.05136641
v -0.03099005 -0.04644327 -0.05135279
v -0.03249734 -0.04644327 -0.05135070
v 0.02555333 -0.04775874 -0.05070454
v -0.02645110 -0.04775874 -0.05070454
v -0.02947707 -0.04775639 -0.05070454
v -0.03099005 -0.04775403 -0.05070454
v -0.03255422 -0.05608300 -0.04575418
v -0.03255422 -0.05605707 -0.04577303
v -0.02947707 -0.05423709 -0.04706219
v -0.03249734 -0.05422530 -0.04705591
v -0.03099005 -0.05423238 -0.04706010
v -0.03255422 -0.05422295 -0.04705591
v 0.02555333 -0.05468265 -0.04675744
v 0.02493904 -0.05534039 -0.04630713
v 0.02555333 -0.05534039 -0.04630608
v -0.03249734 -0.04775167 -0.05070350
v -0.03255422 -0.04770688 -0.05072444
v 0.02555333 -0.04806286 -0.05055164
v -0.02796409 -0.04851078 -0.05032439
v -0.02947707 -0.04851078 -0.05032334
v -0.03099005 -0.04850842 -0.05032230
v -0.02947707 -0.05348034 -0.04755336
v -0.02796409 -0.05348270 -0.04755336
v -0.02645110 -0.05348270 -0.04755440
v 0.02555333 -0.05378681 -0.04735647
v 0.02555333 -0.05423709 -0.04706219
v -0.03249734 -0.05346855 -0.04754498
v -0.03099005 -0.05347563 -0.04755021
v -0.03255422 -0.05346855 -0.04754393
v -0.03255422 -0.04850371 -0.05032020
v 0.02555333 -0.04851078 -0.05032439
v -0.02645110 -0.04946556 -0.04983218
v -0.02947707 -0.04946556 -0.04983009
v -0.03099005 -0.04946556 -0.04982694
v -0.02947707 -0.05248784 -0.04814715
v -0.03099005 -0.05248784 -0.04814296
v -0.02796409 -0.05248784 -0.04814820
v 0.02555333 -0.05248784 -0.04814820
v 0.02555333 -0.05348270 -0.04755336
v -0.03255422 -0.05343555 -0.04756488
v -0.03255422 -0.05248784 -0.04813458
v -0.03255422 -0.04946556 -0.04982066
v 0.02555333 -0.04946556 -0.04983218
v -0.02796409 -0.05069380 -0.04917660
v -0.02947707 -0.05069144 -0.04917555
v -0.03099005 -0.05068673 -0.04917346
v -0.02947707 -0.05144820 -0.04875141
v -0.02796409 -0.05145055 -0.04875141
v -0.03099005 -0.05144348 -0.04874932
v -0.03255422 -0.05245248 -0.04815553
v -0.03255422 -0.05143641 -0.04874723
v 0.02555333 -0.05145055 -0.04875141
v -0.03255422 -0.05068202 -0.04916927
v 0.02555333 -0.05069380 -0.04917660
v -0.03255422 -0.05141048 -0.04876189
f 1 2 3
f 1 3 4
f 1 4 5
f 1 5 6
f 1 6 7
f 1 7 8
f 1 8 16
f 1 16 9
f 1 9 21
f 1 21 28
f 1 28 34
f 1 34 39
f 1 39 49
f 1 49 52
f 1 52 50
f 1 50 40
f 1 40 35
f 1 35 30
f 1 30 22
f 1 22 10
f 1 10 2
f 2 10 11
f 2 11 12
f 2 12 3
f 3 12 11
f 3 11 22
f 3 22 30
f 3 30 36
f 3 36 41
f 3 41 51
f 3 51 57
f 3 57 69
f 3 69 81
f 3 81 93
f 3 93 92
f 3 92 109
f 3 109 107
f 3 107 120
f 3 120 119
f 3 119 133
f 3 133 132
f 3 132 146
f 3 146 148
f 3 148 137
f 3 137 125
f 3 125 112
f 3 112 97
f 3 97 84
f 3 84 73
f 3 73 72
f 3 72 70
f 3 70 58
f 3 58 44
f 3 44 37
f 3 37 31
f 3 31 23
f 3 23 13
f 3 13 5
f 3 5 4
f 5 7 6
f 5 13 14
f 5 14 8
f 5 8 7
f 8 14 15
f 8 15 26
f 8 26 16
f 9 16 17
f 9 17 18
f 9 18 19
f 9 19 20
f 9 20 21
f 10 22 11
f 13 23 33
f 13 33 24
f 13 24 25
f 13 25 14
f 14 25 26
f 14 26 15
f 16 26 25
f 16 25 19
f 16 19 17
f 17 19 18
f 19 24 33
f 19 33 32
f 19 32 38
f 19 38 45
f 19 45 59
f 19 59 71
f 19 71 83
f 19 83 94
f 19 94 111
f 19 111 124
f 19 124 136
f 19 136 147
f 19 147 149
f 19 149 145
f 19 145 144
f 19 144 135
f 19 135 134
f 19 134 123
f 19 123 106
f 19 106 90
f 19 90 102
f 19 102 101
f 19 101 86
f 19 86 75
f 19 75 62
f 19 62 60
f 19 60 46
f 19 46 39
f 19 39 34
f 19 34 29
f 19 29 27
f 19 27 20
f 19 25 24
f 20 27 21
f 21 27 29
f 21 29 28
f 23 31 32
f 23 32 33
f 28 29 34
f 30 35 36
f 31 37 38
f 31 38 32
f 35 40 42
f 35 42 36
f 36 42 43
f 36 43 41
f 37 44 38
f 38 44 45
f 39 46 47
f 39 47 48
f 39 48 49
f 40 50 42
f 41 43 51
f 42 50 52
f 42 52 53
f 42 53 64
f 42 64 54
f 42 54 43
f 43 54 55
f 43 55 56
f 43 56 57
f 43 57 51
f 44 58 59
f 44 59 45
f 46 60 47
f 47 61 63
f 47 63 48
f 47 60 62
f 47 62 61
f 48 63 64
f 48 64 53
f 48 53 49
f 49 53 52
f 54 64 65
f 54 65 55
f 55 66 68
f 55 68 56
f 55 65 67
f 55 67 66
f 56 68 69
f 56 69 57
f 58 70 59
f 59 70 72
f 59 72 73
f 59 73 71
f 61 74 63
f 61 62 74
f 62 75 74
f 63 76 65
f 63 65 64
f 63 74 76
f 65 76 77
f 65 77 67
f 66 67 78
f 66 78 80
f 66 80 68
f 67 77 79
f 67 79 78
f 68 80 93
f 68 93 81
f 68 81 69
f 71 82 83
f 71 73 82
f 73 84 85
f 73 85 83
f 73 83 82
f 74 75 86
f 74 86 76
f 76 86 77
f 77 87 79
f 77 86 87
f 78 88 80
f 78 79 89
f 78 89 88
f 79 87 90
f 79 90 89
f 80 88 91
f 80 91 92
f 80 92 93
f 83 85 95
f 83 95 96
f 83 96 94
f 84 97 98
f 84 98 85
f 85 98 99
f 85 99 100
f 85 100 95
f 86 101 87
f 87 101 102
f 87 102 90
f 88 103 91
f 88 89 103
f 89 104 105
f 89 105 103
f 89 90 104
f 90 106 104
f 91 103 107
f 91 107 108
f 91 108 92
f 92 108 109
f 94 96 110
f 94 110 111
f 95 100 96
f 96 100 110
f 97 112 98
f 98 113 99
f 98 112 113
f 99 113 114
f 99 114 100
f 100 115 110
f 100 114 115
f 103 105 116
f 103 116 117
f 103 117 118
f 103 118 119
f 103 119 120
f 103 120 107
f 104 121 122
f 104 122 105
f 104 106 123
f 104 123 121
f 105 122 116
f 107 109 108
f 110 115 124
f 110 124 111
f 112 125 113
f 113 126 127
f 113 127 114
f 113 125 137
f 113 137 126
f 114 127 115
f 115 127 128
f 115 128 124
f 116 129 117
f 116 122 130
f 116 130 129
f 117 129 131
f 117 131 118
f 118 131 132
f 118 132 133
f 118 133 119
f 121 123 134
f 121 134 122
f 122 134 135
f 122 135 130
f 124 128 136
f 126 138 127
f 126 137 148
f 126 148 138
f 127 138 139
f 127 139 128
f 128 139 140
f 128 140 136
f 129 141 142
f 129 142 131
f 129 130 141
f 130 143 141
f 130 135 144
f 130 144 145
f 130 145 143
f 131 142 146
f 131 146 132
f 136 140 147
f 138 142 141
f 138 141 139
f 138 148 146
f 138 146 142
f 139 141 143
f 139 143 140
f 140 143 149
f 140 149 147
f 143 145 149

