# https://github.com/mikedh/trimesh
v -0.05883216 -0.05236779 -0.02358285
v -0.05883216 -0.04842263 -0.03315147
v -0.05883216 -0.06156854 -0.02358285
v -0.05341311 -0.05745112 -0.02358285
v -0.05341311 -0.05571002 -0.03315147
v -0.05883216 -0.05973362 -0.03315147
v -0.05883216 -0.06157469 -0.02376081
v -0.05749490 -0.06234373 -0.02358285
v -0.05341311 -0.06412789 -0.02358285
v -0.05341311 -0.06238064 -0.03315147
v -0.05829641 -0.06005661 -0.03315147
v -0.05883216 -0.05979514 -0.03300348
v -0.05883216 -0.06157931 -0.02396968
v -0.05825397 -0.06191307 -0.02396968
v -0.05749808 -0.06234527 -0.02396968
v -0.05669021 -0.06274363 -0.02396968
v -0.05672575 -0.06271441 -0.02358285
v -0.05353511 -0.06408329 -0.02358285
v -0.05341311 -0.06413405 -0.02396968
v -0.05341311 -0.06245447 -0.03295852
v -0.05440928 -0.06230989 -0.03226729
v -0.05389157 -0.06218377 -0.03315147
v -0.05763865 -0.06043344 -0.03315147
v -0.05809272 -0.06026425 -0.03294635
v -0.05751559 -0.06084257 -0.03238062
v -0.05883216 -0.06013044 -0.03213335
v -0.05883216 -0.06156239 -0.02464780
v -0.05747421 -0.06233142 -0.02491474
v -0.05681222 -0.06262981 -0.02544393
v -0.05517896 -0.06338039 -0.02548234
v -0.05517896 -0.06342038 -0.02396968
v -0.05630351 -0.06290359 -0.02358285
v -0.05354466 -0.06408483 -0.02396968
v -0.05494504 -0.06350651 -0.02358285
v -0.05341311 -0.06408329 -0.02540085
v -0.05348471 -0.06405407 -0.02548234
v -0.05341311 -0.06253445 -0.03272718
v -0.05381041 -0.06274824 -0.03166878
v -0.05517896 -0.06166698 -0.03304001
v -0.05405176 -0.06215916 -0.03304001
v -0.05478007 -0.06248369 -0.03125947
v -0.05664194 -0.06103790 -0.03294635
v -0.05653585 -0.06100868 -0.03315147
v -0.05528877 -0.06157469 -0.03315147
v -0.05686049 -0.06084872 -0.03315147
v -0.05776755 -0.06097330 -0.03152829
v -0.05881359 -0.06072260 -0.03048488
v -0.05852344 -0.06055033 -0.03152829
v -0.05578792 -0.06224375 -0.03051485
v -0.05883216 -0.06035808 -0.03153391
v -0.05883216 -0.06152855 -0.02546360
v -0.05806778 -0.06195767 -0.02544393
v -0.05739783 -0.06228990 -0.02592255
v -0.05651994 -0.06261904 -0.02699406
v -0.05517896 -0.06323120 -0.02699406
v -0.05405070 -0.06368493 -0.02699406
v -0.05424060 -0.06375568 -0.02548234
v -0.05517896 -0.06340654 -0.02358285
v -0.05341311 -0.06408021 -0.02548234
v -0.05341311 -0.06402484 -0.02605087
v -0.05341311 -0.06393102 -0.02699406
v -0.05341311 -0.06291128 -0.03161258
v -0.05366772 -0.06328042 -0.03001657
v -0.05524209 -0.06263288 -0.03001282
v -0.05826670 -0.06114096 -0.02999502
v -0.05662019 -0.06196998 -0.03001282
v -0.05883216 -0.06071491 -0.03047364
v -0.05883216 -0.06093947 -0.02962224
v -0.05606959 -0.06238372 -0.02950704
v -0.05883216 -0.06145934 -0.02631406
v -0.05883216 -0.06139474 -0.02699406
v -0.05820199 -0.06173773 -0.02699406
v -0.05727583 -0.06222683 -0.02699406
v -0.05820199 -0.06150702 -0.02850484
v -0.05703553 -0.06210686 -0.02850484
v -0.05627964 -0.06249292 -0.02850484
v -0.05517896 -0.06299280 -0.02850484
v -0.05361680 -0.06360341 -0.02855449
v -0.05341311 -0.06371261 -0.02837653
v -0.05341311 -0.06382028 -0.02770964
v -0.05341311 -0.06337116 -0.03001657
v -0.05341311 -0.06343576 -0.02973839
v -0.05883216 -0.06102714 -0.02922605
v -0.05883216 -0.06125631 -0.02792882
v -0.05883216 -0.06116864 -0.02850484
v -0.05341311 -0.06365263 -0.02869217
f 1 2 6
f 1 6 12
f 1 12 26
f 1 26 50
f 1 50 67
f 1 67 68
f 1 68 83
f 1 83 85
f 1 85 84
f 1 84 71
f 1 71 70
f 1 70 51
f 1 51 27
f 1 27 13
f 1 13 7
f 1 7 3
f 1 3 8
f 1 8 17
f 1 17 32
f 1 32 58
f 1 58 34
f 1 34 18
f 1 18 9
f 1 9 4
f 1 4 2
f 2 4 5
f 2 5 10
f 2 10 22
f 2 22 44
f 2 44 43
f 2 43 45
f 2 45 23
f 2 23 11
f 2 11 6
f 3 7 8
f 4 9 19
f 4 19 35
f 4 35 59
f 4 59 60
f 4 60 61
f 4 61 80
f 4 80 79
f 4 79 86
f 4 86 82
f 4 82 81
f 4 81 62
f 4 62 37
f 4 37 20
f 4 20 10
f 4 10 5
f 6 11 12
f 7 13 8
f 8 13 14
f 8 14 15
f 8 15 16
f 8 16 17
f 9 18 19
f 10 20 21
f 10 21 22
f 11 23 24
f 11 24 12
f 12 24 25
f 12 25 26
f 13 27 14
f 14 27 28
f 14 28 15
f 15 28 16
f 16 28 29
f 16 29 30
f 16 30 31
f 16 31 32
f 16 32 17
f 18 33 19
f 18 34 31
f 18 31 33
f 19 33 36
f 19 36 35
f 20 37 38
f 20 38 21
f 21 39 40
f 21 40 22
f 21 38 41
f 21 41 25
f 21 25 42
f 21 42 43
f 21 43 39
f 22 40 44
f 23 45 25
f 23 25 24
f 25 46 47
f 25 47 48
f 25 48 26
f 25 45 43
f 25 43 42
f 25 41 49
f 25 49 46
f 26 48 50
f 27 51 28
f 28 52 53
f 28 53 29
f 28 51 52
f 29 54 30
f 29 53 54
f 30 55 56
f 30 56 57
f 30 57 33
f 30 33 31
f 30 54 55
f 31 58 32
f 31 34 58
f 33 57 36
f 35 36 59
f 36 60 59
f 36 57 56
f 36 56 61
f 36 61 60
f 37 62 38
f 38 62 63
f 38 63 41
f 39 44 40
f 39 43 44
f 41 63 64
f 41 64 49
f 46 65 47
f 46 49 66
f 46 66 65
f 47 67 50
f 47 50 48
f 47 65 68
f 47 68 67
f 49 64 69
f 49 69 66
f 51 70 52
f 52 70 53
f 53 70 71
f 53 71 72
f 53 72 73
f 53 73 54
f 54 73 74
f 54 74 75
f 54 75 76
f 54 76 55
f 55 77 56
f 55 76 77
f 56 77 78
f 56 78 79
f 56 79 80
f 56 80 61
f 62 81 63
f 63 81 82
f 63 82 78
f 63 78 77
f 63 77 64
f 64 77 69
f 65 66 69
f 65 69 68
f 68 69 83
f 69 77 76
f 69 76 75
f 69 75 83
f 71 84 72
f 72 84 85
f 72 85 74
f 72 74 73
f 74 85 83
f 74 83 75
f 78 82 86
f 78 86 79

