# https://github.com/mikedh/trimesh
v 0.03939845 -0.01830878 -0.00328733
v 0.03939845 -0.01830878 -0.00395092
v 0.03939845 -0.01868791 -0.00295620
v 0.04157405 -0.01831241 -0.00329664
v 0.04308764 -0.01831422 -0.00330728
v 0.03939845 -0.01961306 -0.00733934
v 0.04308764 -0.01831422 -0.00394560
v 0.04157405 -0.01831241 -0.00394959
v 0.05366773 -0.01993232 -0.00821038
v 0.03939845 -0.01917951 -0.00253332
v 0.04006347 -0.01918858 -0.00253464
v 0.04459822 -0.01832148 -0.00332457
v 0.03939845 -0.01995046 -0.00816384
v 0.04459822 -0.01832148 -0.00394028
v 0.05517832 -0.01915593 -0.00582732
v 0.05485935 -0.01995046 -0.00817448
v 0.05940313 -0.02088287 -0.01005354
v 0.05788954 -0.02086835 -0.01005354
v 0.04610881 -0.01833237 -0.00392565
v 0.04762239 -0.01835232 -0.00389640
v 0.03939845 -0.01951329 -0.00230857
v 0.03939845 -0.01993595 -0.00202665
v 0.04006347 -0.01994502 -0.00203064
v 0.04157405 -0.01921579 -0.00254129
v 0.04610881 -0.01833237 -0.00334983
v 0.03939845 -0.02080305 -0.00884738
v 0.05651136 -0.02096450 -0.01005354
v 0.05668890 -0.01921035 -0.00582732
v 0.04913298 -0.01838316 -0.00384187
v 0.05971307 -0.01975818 -0.00708933
v 0.06091371 -0.02094273 -0.01005354
v 0.05971307 -0.02089375 -0.01005354
v 0.04762239 -0.01835232 -0.00338707
v 0.03939845 -0.02029694 -0.00186308
v 0.04006347 -0.02074500 -0.00167291
v 0.04157405 -0.01997223 -0.00204261
v 0.04234740 -0.01998674 -0.00204925
v 0.04294621 -0.01938268 -0.00246283
v 0.04459822 -0.01923212 -0.00261045
v 0.03939845 -0.02219621 -0.00906813
v 0.05559659 -0.02113138 -0.01005354
v 0.05819948 -0.01938631 -0.00582732
v 0.06122365 -0.01981985 -0.00701885
v 0.05064657 -0.01843395 -0.00370357
v 0.05144700 -0.01847023 -0.00358655
v 0.04913298 -0.01838316 -0.00343494
v 0.06273724 -0.02057086 -0.00885136
v 0.06558388 -0.02118036 -0.01005354
v 0.04610881 -0.01923212 -0.00267428
v 0.03939845 -0.02141074 -0.00136705
v 0.04006347 -0.02225607 -0.00100533
v 0.03939845 -0.02225607 -0.00099337
v 0.04157405 -0.02225607 -0.00103991
v 0.04294621 -0.02061621 -0.00179526
v 0.04335545 -0.02002847 -0.00206654
v 0.03939845 -0.03683892 -0.00519698
v 0.05540400 -0.02126925 -0.01005354
v 0.05525956 -0.02231049 -0.01005354
v 0.05934596 -0.03683892 -0.01005354
v 0.06213542 -0.01991600 -0.00683001
v 0.06651972 -0.02131823 -0.01005354
v 0.05064657 -0.01843395 -0.00350542
v 0.05144700 -0.01847023 -0.00355330
v 0.04762239 -0.01923212 -0.00276471
v 0.04459822 -0.02008107 -0.00209048
v 0.04006347 -0.02317215 -0.00060638
v 0.03939845 -0.02264427 -0.00082315
v 0.04157405 -0.02322113 -0.00062633
v 0.04308764 -0.02225607 -0.00109177
v 0.04459822 -0.02083752 -0.00176334
v 0.03939845 -0.03683892 0.00353207
v 0.06999225 -0.03683892 -0.01005354
v 0.06213542 -0.01991600 -0.00648559
v 0.06676346 -0.02134363 -0.01000167
v 0.06686577 -0.02145972 -0.01005354
v 0.04913298 -0.01923212 -0.00287375
v 0.05064657 -0.01923212 -0.00302934
v 0.05203378 -0.01915230 -0.00326472
v 0.05366773 -0.01955320 -0.00333786
v 0.05480218 -0.01979264 -0.00346287
v 0.05819948 -0.01961850 -0.00473552
v 0.04610881 -0.02017540 -0.00212904
v 0.04006347 -0.02392678 -0.00028589
v 0.03939845 -0.02315764 -0.00059973
v 0.03939845 -0.02348960 -0.00045744
v 0.04157405 -0.02397576 -0.00031116
v 0.04308764 -0.02329369 -0.00065426
v 0.04459822 -0.02225607 -0.00115960
v 0.04610881 -0.02093003 -0.00180722
v 0.03939845 -0.03652510 0.00349483
v 0.04006347 -0.03683892 0.00348951
v 0.04006347 -0.03585935 0.00337514
v 0.07004642 -0.03631286 -0.01005354
v 0.06973045 -0.03683892 -0.00969182
v 0.05925568 -0.01982711 -0.00494032
v 0.06026374 -0.02022982 -0.00525150
v 0.06268007 -0.02084477 -0.00629808
v 0.06354971 -0.02141619 -0.00654676
v 0.06524385 -0.02127651 -0.00790718
v 0.06676346 -0.02134363 -0.00936202
v 0.06820784 -0.02285651 -0.01005354
v 0.04913298 -0.02045476 -0.00224341
v 0.04762239 -0.02030057 -0.00218091
v 0.05073985 -0.02081575 -0.00227932
v 0.05215715 -0.02074500 -0.00252933
v 0.05366773 -0.02074500 -0.00281524
v 0.05525354 -0.02064342 -0.00322749
v 0.05581023 -0.02007200 -0.00359851
v 0.04006347 -0.02528003 0.00027397
v 0.03939845 -0.02391227 -0.00027924
v 0.03939845 -0.02452359 -0.00002391
v 0.03939845 -0.02528003 0.00028993
v 0.04157405 -0.02528003 0.00021945
v 0.04308764 -0.02405013 -0.00034440
v 0.04459822 -0.02339164 -0.00069016
v 0.04610881 -0.02225607 -0.00125268
v 0.04762239 -0.02105701 -0.00186308
v 0.03939845 -0.03585935 0.00340972
v 0.04059608 -0.03683892 0.00345095
v 0.04157405 -0.03585935 0.00326477
v 0.04157405 -0.03434828 0.00301343
v 0.04006347 -0.03434828 0.00310785
v 0.03939845 -0.03501402 0.00326078
v 0.07008553 -0.03585935 -0.01005354
v 0.06965222 -0.03585935 -0.00946575
v 0.06960407 -0.03683892 -0.00952559
v 0.05668890 -0.02041304 -0.00373017
v 0.05806106 -0.02088287 -0.00400677
v 0.05974015 -0.02073774 -0.00474217
v 0.06066395 -0.02123660 -0.00497356
v 0.06167201 -0.02196220 -0.00523554
v 0.06259882 -0.02238124 -0.00562119
v 0.06376937 -0.02225607 -0.00639117
v 0.06452768 -0.02225607 -0.00692709
v 0.06553272 -0.02225607 -0.00768244
v 0.06628802 -0.02225607 -0.00831544
v 0.06706738 -0.02225607 -0.00907212
v 0.06800924 -0.02306331 -0.00962533
v 0.06850875 -0.02342067 -0.01005354
v 0.04913298 -0.02121120 -0.00192957
v 0.05030052 -0.02136721 -0.00199606
v 0.05130858 -0.02153047 -0.00206255
v 0.05215715 -0.02173001 -0.00213702
v 0.05377004 -0.02227058 -0.00224607
v 0.05434178 -0.02305968 -0.00206654
v 0.05517832 -0.02225607 -0.00259449
v 0.05668890 -0.02116948 -0.00343228
v 0.04006347 -0.02654803 0.00077798
v 0.03939845 -0.02581154 0.00050403
v 0.04157405 -0.02664054 0.00074739
v 0.04308764 -0.02528003 0.00014630
v 0.04459822 -0.02414627 -0.00038696
v 0.04610881 -0.02352044 -0.00074070
v 0.04762239 -0.02225607 -0.00136838
v 0.04157405 -0.03683892 0.00337249
v 0.04210666 -0.03683892 0.00332195
v 0.04308764 -0.03585935 0.00312115
v 0.04308764 -0.03434828 0.00288709
v 0.04308764 -0.03304038 0.00261714
v 0.04159812 -0.03271930 0.00265038
v 0.04006347 -0.03283721 0.00277406
v 0.03939845 -0.03283721 0.00280864
v 0.03939845 -0.03434828 0.00314109
v 0.07013669 -0.03434828 -0.01005354
v 0.06967629 -0.03434828 -0.00943516
v 0.06903836 -0.03434828 -0.00867849
v 0.06901128 -0.03585935 -0.00871040
v 0.06847866 -0.03683892 -0.00819841
v 0.05746525 -0.02147967 -0.00355197
v 0.05858164 -0.02225607 -0.00370357
v 0.05971307 -0.02225607 -0.00417300
v 0.05893973 -0.02303247 -0.00356660
v 0.05978529 -0.02362928 -0.00373150
v 0.06033596 -0.02471043 -0.00361846
v 0.06119055 -0.02238124 -0.00483393
v 0.06200603 -0.02297079 -0.00505734
v 0.06297797 -0.02376715 -0.00537650
v 0.06428695 -0.02387236 -0.00620765
v 0.06481354 -0.02343881 -0.00672629
v 0.06328491 -0.02494807 -0.00519431
v 0.06647458 -0.02311954 -0.00813059
v 0.06503622 -0.02444559 -0.00655873
v 0.06817173 -0.02407009 -0.00945644
v 0.06732917 -0.02359481 -0.00879285
v 0.06862009 -0.02378347 -0.01005354
v 0.04913298 -0.02225607 -0.00150668
v 0.05073985 -0.02212365 -0.00175403
v 0.04842282 -0.02450726 -0.00053191
v 0.05064657 -0.02376715 -0.00111571
v 0.05215715 -0.02248645 -0.00184712
v 0.05333372 -0.02278395 -0.00196414
v 0.05215715 -0.02376715 -0.00137370
v 0.05377004 -0.02364561 -0.00174472
v 0.05366773 -0.02528003 -0.00116624
v 0.05517832 -0.02415172 -0.00192026
v 0.05517832 -0.02339527 -0.00218357
v 0.05668890 -0.02225607 -0.00303466
v 0.04006347 -0.02730447 0.00106522
v 0.03939845 -0.02652082 0.00078596
v 0.03939845 -0.02685460 0.00091495
v 0.03939845 -0.02727726 0.00107719
v 0.04157405 -0.02739698 0.00102932
v 0.04316588 -0.02690539 0.00075803
v 0.04459822 -0.02528003 0.00005588
v 0.04610881 -0.02427688 -0.00044148
v 0.04762239 -0.02442563 -0.00050000
v 0.04762239 -0.02367100 -0.00079921
v 0.04308764 -0.03683892 0.00322753
v 0.04459822 -0.03585935 0.00294428
v 0.04459822 -0.03434828 0.00272352
v 0.04542272 -0.03354467 0.00249612
v 0.04459822 -0.03333788 0.00254001
v 0.04308764 -0.03228393 0.00243761
v 0.04459822 -0.03258325 0.00237245
v 0.04211870 -0.03213881 0.00246953
v 0.04111064 -0.03200276 0.00250543
v 0.04006347 -0.03188304 0.00254134
v 0.03939845 -0.03230389 0.00267831
v 0.07013067 -0.03334150 -0.01005354
v 0.06966125 -0.03283721 -0.00946043
v 0.06901128 -0.03283721 -0.00870375
v 0.06828307 -0.03434828 -0.00782074
v 0.06825598 -0.03585935 -0.00785399
v 0.06821085 -0.03683892 -0.00789654
v 0.05656552 -0.02389413 -0.00241762
v 0.05782635 -0.02225607 -0.00341101
v 0.05834091 -0.02362928 -0.00313440
v 0.05932790 -0.02403925 -0.00340303
v 0.05978529 -0.02524012 -0.00322483
v 0.06064590 -0.02571902 -0.00346553
v 0.06122365 -0.02376715 -0.00438578
v 0.06117852 -0.02524012 -0.00390571
v 0.06222268 -0.02376715 -0.00493367
v 0.06352564 -0.02595666 -0.00504936
v 0.06276433 -0.02538343 -0.00476478
v 0.06665212 -0.02412632 -0.00796968
v 0.06443439 -0.02679110 -0.00548422
v 0.06518667 -0.02528003 -0.00644569
v 0.06594197 -0.02528003 -0.00704944
v 0.06834927 -0.02528003 -0.00927026
v 0.06905341 -0.02528003 -0.01005354
v 0.06758796 -0.02528003 -0.00851359
v 0.04610881 -0.02528003 -0.00005849
v 0.04610881 -0.02679110 0.00049472
v 0.04762239 -0.02679110 0.00034977
v 0.04913298 -0.02679110 0.00016758
v 0.04900960 -0.02523287 -0.00035371
v 0.04943088 -0.02469773 -0.00060106
v 0.05064657 -0.02496077 -0.00068883
v 0.05156435 -0.02594033 -0.00050665
v 0.05210600 -0.02537255 -0.00080453
v 0.05257241 -0.02624871 -0.00060505
v 0.05325248 -0.02725731 -0.00044946
v 0.05372190 -0.02676752 -0.00071676
v 0.05517832 -0.02528003 -0.00155589
v 0.05597874 -0.02448368 -0.00203596
v 0.04006347 -0.02830036 0.00142162
v 0.03939845 -0.02774165 0.00124741
v 0.04157405 -0.02830036 0.00134714
v 0.04271752 -0.02748406 0.00099607
v 0.04372558 -0.02756750 0.00096681
v 0.04459822 -0.02679110 0.00061840
v 0.04361725 -0.03683892 0.00316503
v 0.04459822 -0.03683892 0.00304667
v 0.04610881 -0.03585935 0.00274081
v 0.04699650 -0.03497593 0.00250809
v 0.04600047 -0.03442265 0.00255730
v 0.04643078 -0.03396915 0.00241899
v 0.04762239 -0.03283721 0.00202270
v 0.04600047 -0.03295875 0.00228734
v 0.04610881 -0.03132432 0.00189770
v 0.04308764 -0.03132432 0.00217962
v 0.04459822 -0.03132432 0.00205728
v 0.04159812 -0.03142953 0.00231527
v 0.04006347 -0.03112841 0.00232856
v 0.03939845 -0.03140232 0.00243894
v 0.03939845 -0.03182499 0.00255730
v 0.07011863 -0.03283721 -0.01005354
v 0.07007951 -0.03184494 -0.01005354
v 0.06962815 -0.03132432 -0.00950165
v 0.06825598 -0.03283721 -0.00785000
v 0.06751273 -0.03283721 -0.00709332
v 0.06753981 -0.03434828 -0.00706539
v 0.06751875 -0.03585935 -0.00709864
v 0.06700118 -0.03683892 -0.00663320
v 0.06775045 -0.03683892 -0.00740716
v 0.05698680 -0.02500249 -0.00218889
v 0.05806106 -0.02541608 -0.00245884
v 0.05746224 -0.02600926 -0.00204261
v 0.05971307 -0.02679110 -0.00276604
v 0.05848234 -0.02679110 -0.00224075
v 0.05881033 -0.02777067 -0.00210910
v 0.06089867 -0.02679110 -0.00332989
v 0.06165396 -0.02679110 -0.00374080
v 0.05910824 -0.02877745 -0.00197877
v 0.06367910 -0.02679110 -0.00494431
v 0.06273724 -0.02679110 -0.00436849
v 0.06683267 -0.02528003 -0.00780611
v 0.06467813 -0.02830036 -0.00530469
v 0.06543342 -0.02679110 -0.00624090
v 0.06618871 -0.02679110 -0.00686060
v 0.06852981 -0.02679110 -0.00906813
v 0.06928511 -0.02679110 -0.00990193
v 0.06907447 -0.02536166 -0.01005354
v 0.06779860 -0.02679110 -0.00831278
v 0.04610881 -0.02786681 0.00086707
v 0.04459822 -0.02767271 0.00093091
v 0.04762239 -0.02812078 0.00079261
v 0.04840778 -0.02904048 0.00097878
v 0.04900057 -0.02844186 0.00070617
v 0.05064657 -0.02679110 -0.00007179
v 0.05064657 -0.02571721 -0.00042686
v 0.05210600 -0.02676752 -0.00035238
v 0.05372190 -0.02824957 -0.00029387
v 0.05426053 -0.02771081 -0.00058245
v 0.05215715 -0.02830036 0.00009178
v 0.05517832 -0.02679110 -0.00109975
v 0.04006347 -0.02981325 0.00192828
v 0.03939845 -0.02830036 0.00144688
v 0.03939845 -0.02896792 0.00167428
v 0.03939845 -0.02981325 0.00195754
v 0.04157405 -0.02981325 0.00184716
v 0.04316588 -0.02816250 0.00120352
v 0.04459822 -0.02842916 0.00118092
v 0.04513084 -0.03683892 0.00297486
v 0.04610881 -0.03683892 0.00283257
v 0.04729741 -0.03585935 0.00255995
v 0.04805270 -0.03585935 0.00242963
v 0.04913298 -0.03434828 0.00202669
v 0.04755018 -0.03442265 0.00232058
v 0.04762239 -0.03132432 0.00169423
v 0.04913298 -0.03283721 0.00176870
v 0.04913298 -0.03132432 0.00144954
v 0.04610881 -0.02981325 0.00148146
v 0.04762239 -0.02981325 0.00130060
v 0.04308764 -0.02981325 0.00174211
v 0.04459822 -0.02981325 0.00162242
v 0.03939845 -0.03107036 0.00234319
v 0.07005544 -0.03132432 -0.01005354
v 0.06958301 -0.03023773 -0.00955219
v 0.06895410 -0.03132432 -0.00874631
v 0.06819881 -0.03132432 -0.00791915
v 0.06742847 -0.03132432 -0.00716380
v 0.06675443 -0.03283721 -0.00636191
v 0.06678452 -0.03434828 -0.00633930
v 0.06676346 -0.03585935 -0.00634994
v 0.06673637 -0.03683892 -0.00637122
v 0.05668890 -0.02679110 -0.00156918
v 0.05668890 -0.02830036 -0.00116757
v 0.05772705 -0.02679110 -0.00193622
v 0.05826568 -0.02828585 -0.00176467
v 0.06131092 -0.02829673 -0.00320089
v 0.06187362 -0.02779062 -0.00361713
v 0.05662571 -0.02980781 -0.00079655
v 0.05819948 -0.02981325 -0.00140296
v 0.05819948 -0.03132432 -0.00112103
v 0.05931587 -0.02981325 -0.00187505
v 0.06007416 -0.02981325 -0.00224607
v 0.06392284 -0.02830036 -0.00477941
v 0.06207824 -0.02879740 -0.00350011
v 0.06264396 -0.02829673 -0.00396555
v 0.06704331 -0.02679110 -0.00761595
v 0.06411543 -0.02981325 -0.00463712
v 0.06487072 -0.02981325 -0.00516772
v 0.06564406 -0.02830036 -0.00606004
v 0.06640236 -0.02830036 -0.00668506
v 0.06794002 -0.02795026 -0.00818113
v 0.06804535 -0.02895885 -0.00807474
v 0.06855689 -0.02839288 -0.00875163
v 0.06943255 -0.02830036 -0.00973171
v 0.06915270 -0.02569000 -0.01005354
v 0.06941149 -0.02679110 -0.01005354
v 0.06935732 -0.02655347 -0.01005354
v 0.04610881 -0.02862326 0.00111575
v 0.04762239 -0.02887722 0.00103064
v 0.04900057 -0.02983139 0.00109980
v 0.04941583 -0.02934161 0.00089766
v 0.05064657 -0.02830036 0.00038833
v 0.05366773 -0.02981325 0.00011306
v 0.05474500 -0.02871940 -0.00044946
v 0.05215715 -0.02981325 0.00048807
v 0.05521744 -0.02824957 -0.00070612
v 0.05067666 -0.02983139 0.00080324
v 0.05120326 -0.03074928 0.00093623
v 0.03939845 -0.03033387 0.00211845
v 0.04652708 -0.03683892 0.00276874
v 0.04831751 -0.03679901 0.00247352
v 0.04913298 -0.03585935 0.00221420
v 0.05064657 -0.03434828 0.00171019
v 0.05064657 -0.03283721 0.00146816
v 0.05067666 -0.03128079 0.00115033
v 0.05019520 -0.03034838 0.00103198
v 0.06992304 -0.02988762 -0.01005354
v 0.06951380 -0.02922914 -0.00963730
v 0.06898720 -0.02976427 -0.00896972
v 0.06811155 -0.02981325 -0.00801091
v 0.06667318 -0.03132432 -0.00643904
v 0.06587577 -0.03283721 -0.00560657
v 0.06591488 -0.03434828 -0.00558396
v 0.06517464 -0.03585935 -0.00492835
v 0.06592993 -0.03585935 -0.00559460
v 0.06619473 -0.03683892 -0.00588051
v 0.05574704 -0.02930170 -0.00059043
v 0.06122365 -0.02981325 -0.00283785
v 0.05608105 -0.03031029 -0.00048271
v 0.05709212 -0.03132432 -0.00066889
v 0.05733285 -0.03242361 -0.00057846
v 0.05807610 -0.03289163 -0.00084309
v 0.05957465 -0.03132432 -0.00174605
v 0.06032994 -0.03132432 -0.00211841
v 0.06224375 -0.02981325 -0.00339638
v 0.06299904 -0.02981325 -0.00388177
v 0.06438022 -0.03126990 -0.00459722
v 0.06497302 -0.03073114 -0.00509591
v 0.06318560 -0.03132432 -0.00375942
v 0.06650467 -0.02912755 -0.00659463
v 0.06716367 -0.02970441 -0.00712790
v 0.06976957 -0.02877563 -0.01005354
v 0.06968833 -0.02830036 -0.01005354
v 0.06959806 -0.02777793 -0.01005354
v 0.05217220 -0.03128079 0.00081920
v 0.05366773 -0.03132432 0.00044419
v 0.05521744 -0.02980781 -0.00032579
v 0.05167870 -0.03175606 0.00104128
v 0.04827237 -0.03683892 0.00248416
v 0.04837167 -0.03683892 0.00246554
v 0.05064657 -0.03585935 0.00188307
v 0.05215715 -0.03434828 0.00134449
v 0.05301776 -0.03341225 0.00100405
v 0.05217220 -0.03287893 0.00112240
v 0.06658893 -0.03013433 -0.00652016
v 0.06506631 -0.03173792 -0.00502410
v 0.06515959 -0.03434828 -0.00494697
v 0.06512047 -0.03283721 -0.00498287
v 0.06424783 -0.03434828 -0.00425279
v 0.06424783 -0.03585935 -0.00422354
v 0.06424783 -0.03683892 -0.00426742
v 0.06457281 -0.03683892 -0.00451477
v 0.06514454 -0.03683892 -0.00495494
v 0.06589984 -0.03683892 -0.00561454
v 0.06045933 -0.03211523 -0.00205457
v 0.06122365 -0.03132432 -0.00259449
v 0.05517832 -0.03132432 -0.00000397
v 0.05633683 -0.03132432 -0.00039494
v 0.05517832 -0.03283721 0.00024604
v 0.05677315 -0.03289163 -0.00031781
v 0.05517832 -0.03434828 0.00044020
v 0.05668890 -0.03434828 -0.00011168
v 0.05748631 -0.03343039 -0.00051994
v 0.05833790 -0.03434828 -0.00081517
v 0.05985751 -0.03270660 -0.00168621
v 0.06242730 -0.03132432 -0.00328068
v 0.06331199 -0.03283721 -0.00367564
v 0.05268676 -0.03240366 0.00091761
v 0.05358047 -0.03287893 0.00075404
v 0.04957231 -0.03683892 0.00219824
v 0.05064657 -0.03683892 0.00194956
v 0.05215715 -0.03585935 0.00150540
v 0.05320132 -0.03434828 0.00106256
v 0.05395661 -0.03434828 0.00083117
v 0.06424783 -0.03283721 -0.00434189
v 0.06339925 -0.03434828 -0.00362245
v 0.06341730 -0.03585935 -0.00361048
v 0.06368512 -0.03683892 -0.00384453
v 0.06058271 -0.03312382 -0.00198409
v 0.05419433 -0.03585935 0.00090165
v 0.05517832 -0.03585935 0.00056387
v 0.05668890 -0.03585935 -0.00000796
v 0.05758261 -0.03434828 -0.00047606
v 0.05845826 -0.03585935 -0.00076064
v 0.05971307 -0.03434828 -0.00146280
v 0.06255670 -0.03283721 -0.00320089
v 0.06264396 -0.03434828 -0.00313440
v 0.05117617 -0.03683892 0.00181658
v 0.05215715 -0.03683892 0.00155992
v 0.05343904 -0.03585935 0.00113570
v 0.06266202 -0.03585935 -0.00311179
v 0.06290275 -0.03683892 -0.00329930
v 0.06339323 -0.03683892 -0.00362910
v 0.06066094 -0.03434828 -0.00194154
v 0.06141624 -0.03434828 -0.00237905
v 0.05352028 -0.03683892 0.00116363
v 0.05378509 -0.03683892 0.00108118
v 0.05427558 -0.03683892 0.00092559
v 0.05462163 -0.03683892 0.00080723
v 0.05517832 -0.03683892 0.00059845
v 0.05668890 -0.03683892 0.00001199
v 0.05704698 -0.03683892 -0.00013562
v 0.05770297 -0.03585935 -0.00042686
v 0.05570792 -0.03683892 0.00039764
v 0.05847632 -0.03683892 -0.00075931
v 0.05891866 -0.03683892 -0.00098007
v 0.05971307 -0.03585935 -0.00138966
v 0.05798583 -0.03683892 -0.00053324
v 0.06144934 -0.03585935 -0.00235645
v 0.05260852 -0.03683892 0.00142960
v 0.06263794 -0.03683892 -0.00312509
v 0.06188566 -0.03683892 -0.00263438
v 0.06069405 -0.03585935 -0.00192292
v 0.05772103 -0.03683892 -0.00041622
v 0.05971307 -0.03683892 -0.00137902
v 0.06070307 -0.03683892 -0.00191361
v 0.06145836 -0.03683892 -0.00236975
v 0.06096788 -0.03683892 -0.00206654
f 1 2 6
f 1 6 13
f 1 13 26
f 1 26 40
f 1 40 56
f 1 56 71
f 1 71 90
f 1 90 118
f 1 118 123
f 1 123 163
f 1 163 162
f 1 162 218
f 1 218 277
f 1 277 276
f 1 276 338
f 1 338 385
f 1 385 321
f 1 321 320
f 1 320 319
f 1 319 258
f 1 258 201
f 1 201 200
f 1 200 199
f 1 199 149
f 1 149 112
f 1 112 111
f 1 111 110
f 1 110 85
f 1 85 84
f 1 84 67
f 1 67 52
f 1 52 50
f 1 50 34
f 1 34 22
f 1 22 21
f 1 21 10
f 1 10 3
f 1 3 4
f 1 4 5
f 1 5 7
f 1 7 2
f 2 7 8
f 2 8 9
f 2 9 6
f 3 10 4
f 4 10 5
f 5 10 11
f 5 11 12
f 5 12 14
f 5 14 7
f 6 9 13
f 7 14 9
f 7 9 8
f 9 15 16
f 9 16 17
f 9 17 18
f 9 18 13
f 9 14 19
f 9 19 20
f 9 20 15
f 10 21 11
f 11 21 22
f 11 22 23
f 11 23 24
f 11 24 12
f 12 25 19
f 12 19 14
f 12 24 25
f 13 18 27
f 13 27 26
f 15 28 16
f 15 20 29
f 15 29 28
f 16 28 30
f 16 30 31
f 16 31 32
f 16 32 17
f 17 32 31
f 17 31 48
f 17 48 61
f 17 61 75
f 17 75 101
f 17 101 139
f 17 139 185
f 17 185 241
f 17 241 304
f 17 304 371
f 17 371 373
f 17 373 372
f 17 372 420
f 17 420 419
f 17 419 418
f 17 418 393
f 17 393 339
f 17 339 279
f 17 279 278
f 17 278 219
f 17 219 164
f 17 164 124
f 17 124 93
f 17 93 72
f 17 72 59
f 17 59 58
f 17 58 57
f 17 57 41
f 17 41 27
f 17 27 18
f 19 25 33
f 19 33 20
f 20 33 46
f 20 46 29
f 22 34 23
f 23 34 35
f 23 35 36
f 23 36 24
f 24 36 37
f 24 37 38
f 24 38 39
f 24 39 25
f 25 39 33
f 26 27 41
f 26 41 40
f 28 42 43
f 28 43 30
f 28 29 44
f 28 44 45
f 28 45 42
f 29 46 62
f 29 62 44
f 30 43 47
f 30 47 31
f 31 47 48
f 33 39 49
f 33 49 46
f 34 50 35
f 35 51 37
f 35 37 36
f 35 50 52
f 35 52 51
f 37 53 54
f 37 54 55
f 37 55 49
f 37 49 39
f 37 39 38
f 37 51 53
f 40 41 57
f 40 57 58
f 40 58 59
f 40 59 56
f 42 60 43
f 42 45 60
f 43 60 61
f 43 61 48
f 43 48 47
f 44 62 63
f 44 63 45
f 45 63 73
f 45 73 60
f 46 49 64
f 46 64 62
f 49 55 65
f 49 65 64
f 51 66 53
f 51 52 67
f 51 67 66
f 53 68 69
f 53 69 54
f 53 66 68
f 54 69 70
f 54 70 65
f 54 65 55
f 56 59 72
f 56 72 94
f 56 94 126
f 56 126 168
f 56 168 224
f 56 224 286
f 56 286 285
f 56 285 347
f 56 347 402
f 56 402 440
f 56 440 439
f 56 439 438
f 56 438 437
f 56 437 464
f 56 464 479
f 56 479 478
f 56 478 497
f 56 497 498
f 56 498 503
f 56 503 504
f 56 504 502
f 56 502 501
f 56 501 492
f 56 492 491
f 56 491 494
f 56 494 500
f 56 500 488
f 56 488 487
f 56 487 490
f 56 490 486
f 56 486 485
f 56 485 484
f 56 484 483
f 56 483 482
f 56 482 496
f 56 496 475
f 56 475 474
f 56 474 457
f 56 457 456
f 56 456 426
f 56 426 425
f 56 425 386
f 56 386 326
f 56 326 325
f 56 325 264
f 56 264 263
f 56 263 208
f 56 208 156
f 56 156 155
f 56 155 119
f 56 119 91
f 56 91 71
f 60 73 100
f 60 100 74
f 60 74 61
f 61 74 75
f 62 64 76
f 62 76 63
f 63 76 77
f 63 77 78
f 63 78 79
f 63 79 80
f 63 80 81
f 63 81 73
f 64 65 82
f 64 82 76
f 65 70 82
f 66 83 68
f 66 67 84
f 66 84 85
f 66 85 83
f 68 86 87
f 68 87 69
f 68 83 86
f 69 87 88
f 69 88 70
f 70 88 89
f 70 89 82
f 71 91 92
f 71 92 90
f 72 93 94
f 73 81 95
f 73 95 96
f 73 96 97
f 73 97 98
f 73 98 99
f 73 99 100
f 74 100 101
f 74 101 75
f 76 102 77
f 76 82 103
f 76 103 102
f 77 104 78
f 77 102 104
f 78 104 105
f 78 105 79
f 79 106 80
f 79 105 106
f 80 106 107
f 80 107 108
f 80 108 81
f 81 108 95
f 82 89 103
f 83 109 86
f 83 85 110
f 83 110 111
f 83 111 112
f 83 112 109
f 86 113 114
f 86 114 87
f 86 109 113
f 87 114 115
f 87 115 88
f 88 115 116
f 88 116 89
f 89 116 117
f 89 117 103
f 90 92 118
f 91 119 92
f 92 119 120
f 92 120 121
f 92 121 122
f 92 122 123
f 92 123 118
f 93 124 125
f 93 125 94
f 94 125 126
f 95 108 127
f 95 127 128
f 95 128 129
f 95 129 96
f 96 129 130
f 96 130 97
f 97 130 98
f 98 130 131
f 98 131 132
f 98 132 133
f 98 133 134
f 98 134 135
f 98 135 99
f 99 135 136
f 99 136 137
f 99 137 100
f 100 137 138
f 100 138 101
f 101 138 139
f 102 140 141
f 102 141 104
f 102 103 117
f 102 117 140
f 104 142 105
f 104 141 142
f 105 142 143
f 105 143 106
f 106 144 145
f 106 145 107
f 106 143 144
f 107 145 146
f 107 146 108
f 108 146 147
f 108 147 127
f 109 148 113
f 109 112 149
f 109 149 148
f 113 150 151
f 113 151 114
f 113 148 150
f 114 151 152
f 114 152 115
f 115 152 153
f 115 153 116
f 116 153 154
f 116 154 117
f 117 154 140
f 119 155 120
f 120 155 156
f 120 156 157
f 120 157 158
f 120 158 121
f 121 158 159
f 121 159 160
f 121 160 161
f 121 161 122
f 122 161 162
f 122 162 163
f 122 163 123
f 124 164 125
f 125 164 165
f 125 165 166
f 125 166 167
f 125 167 168
f 125 168 126
f 127 147 169
f 127 169 128
f 128 170 129
f 128 169 170
f 129 171 130
f 129 170 172
f 129 172 171
f 130 171 173
f 130 173 174
f 130 174 175
f 130 175 131
f 131 175 176
f 131 176 132
f 132 177 133
f 132 176 177
f 133 178 179
f 133 179 134
f 133 177 180
f 133 180 178
f 134 179 135
f 135 181 136
f 135 179 182
f 135 182 181
f 136 181 138
f 136 138 137
f 138 183 139
f 138 181 184
f 138 184 183
f 139 183 185
f 140 186 141
f 140 154 186
f 141 187 142
f 141 186 188
f 141 188 187
f 142 187 189
f 142 189 190
f 142 190 143
f 143 190 144
f 144 190 191
f 144 191 145
f 145 191 192
f 145 192 193
f 145 193 194
f 145 194 195
f 145 195 196
f 145 196 146
f 146 196 197
f 146 197 147
f 147 197 169
f 148 198 150
f 148 149 199
f 148 199 200
f 148 200 201
f 148 201 198
f 150 202 203
f 150 203 151
f 150 198 202
f 151 203 204
f 151 204 152
f 152 204 205
f 152 205 153
f 153 205 206
f 153 206 207
f 153 207 154
f 154 207 188
f 154 188 186
f 156 208 157
f 157 208 209
f 157 209 210
f 157 210 158
f 158 210 211
f 158 211 212
f 158 212 159
f 159 213 160
f 159 212 214
f 159 214 213
f 160 215 216
f 160 216 217
f 160 217 161
f 160 213 215
f 161 217 162
f 162 217 218
f 164 219 165
f 165 219 220
f 165 220 166
f 166 221 222
f 166 222 167
f 166 220 221
f 167 222 223
f 167 223 168
f 168 223 224
f 169 197 225
f 169 225 226
f 169 226 170
f 170 226 172
f 171 172 173
f 172 226 227
f 172 227 228
f 172 228 173
f 173 228 174
f 174 228 229
f 174 229 230
f 174 230 231
f 174 231 175
f 175 231 176
f 176 231 230
f 176 230 232
f 176 232 233
f 176 233 177
f 177 233 180
f 178 182 179
f 178 180 234
f 178 234 182
f 180 233 235
f 180 235 234
f 181 236 184
f 181 182 236
f 182 234 237
f 182 237 238
f 182 238 239
f 182 239 236
f 183 240 241
f 183 241 185
f 183 184 236
f 183 236 242
f 183 242 240
f 187 188 189
f 188 207 206
f 188 206 243
f 188 243 244
f 188 244 245
f 188 245 246
f 188 246 247
f 188 247 248
f 188 248 189
f 189 248 249
f 189 249 192
f 189 192 190
f 190 192 191
f 192 249 250
f 192 250 251
f 192 251 193
f 193 251 194
f 194 251 252
f 194 252 253
f 194 253 254
f 194 254 255
f 194 255 195
f 195 255 256
f 195 256 196
f 196 256 225
f 196 225 197
f 198 257 202
f 198 201 258
f 198 258 257
f 202 259 260
f 202 260 203
f 202 257 259
f 203 260 261
f 203 261 204
f 204 243 205
f 204 261 262
f 204 262 243
f 205 243 206
f 208 263 209
f 209 263 264
f 209 264 265
f 209 265 266
f 209 266 267
f 209 267 210
f 210 267 211
f 211 267 266
f 211 266 268
f 211 268 269
f 211 269 270
f 211 270 271
f 211 271 214
f 211 214 212
f 213 272 215
f 213 214 273
f 213 273 272
f 214 271 273
f 215 272 216
f 216 272 274
f 216 274 217
f 217 274 275
f 217 275 276
f 217 276 277
f 217 277 218
f 219 278 220
f 220 278 279
f 220 279 280
f 220 280 221
f 221 281 222
f 221 280 281
f 222 281 282
f 222 282 283
f 222 283 284
f 222 284 223
f 223 284 285
f 223 285 286
f 223 286 224
f 225 287 226
f 225 256 287
f 226 287 227
f 227 288 228
f 227 287 289
f 227 289 288
f 228 288 229
f 229 290 230
f 229 288 291
f 229 291 292
f 229 292 290
f 230 293 294
f 230 294 235
f 230 235 232
f 230 290 295
f 230 295 293
f 232 235 233
f 234 296 237
f 234 235 294
f 234 294 297
f 234 297 296
f 236 239 298
f 236 298 242
f 237 299 300
f 237 300 238
f 237 296 299
f 238 300 239
f 239 300 301
f 239 301 298
f 240 302 303
f 240 303 304
f 240 304 241
f 240 242 305
f 240 305 302
f 242 298 305
f 243 262 244
f 244 306 245
f 244 262 261
f 244 261 307
f 244 307 306
f 245 308 246
f 245 306 308
f 246 308 309
f 246 309 310
f 246 310 311
f 246 311 312
f 246 312 247
f 247 312 249
f 247 249 248
f 249 312 250
f 250 313 252
f 250 252 251
f 250 312 311
f 250 311 313
f 252 313 253
f 253 314 315
f 253 315 254
f 253 313 316
f 253 316 314
f 254 315 317
f 254 317 255
f 255 317 256
f 256 317 287
f 257 318 259
f 257 258 319
f 257 319 320
f 257 320 321
f 257 321 318
f 259 322 323
f 259 323 261
f 259 261 260
f 259 318 322
f 261 324 307
f 261 323 324
f 264 325 265
f 265 325 326
f 265 326 327
f 265 327 266
f 266 327 328
f 266 328 329
f 266 329 330
f 266 330 268
f 268 330 269
f 269 331 270
f 269 330 332
f 269 332 333
f 269 333 331
f 270 331 271
f 271 334 273
f 271 331 335
f 271 335 334
f 272 336 274
f 272 273 337
f 272 337 336
f 273 334 337
f 274 322 275
f 274 336 322
f 275 322 318
f 275 318 338
f 275 338 276
f 279 339 280
f 280 339 340
f 280 340 341
f 280 341 281
f 281 341 342
f 281 342 282
f 282 343 344
f 282 344 283
f 282 342 343
f 283 344 345
f 283 345 346
f 283 346 284
f 284 346 285
f 285 346 347
f 287 348 289
f 287 317 348
f 288 289 291
f 289 348 349
f 289 349 350
f 289 350 291
f 290 292 295
f 291 350 292
f 292 350 351
f 292 351 295
f 293 352 353
f 293 353 294
f 293 295 352
f 294 353 297
f 295 351 354
f 295 354 355
f 295 355 356
f 295 356 357
f 295 357 358
f 295 358 352
f 296 359 299
f 296 297 360
f 296 360 361
f 296 361 359
f 297 353 360
f 298 362 305
f 298 301 362
f 299 359 363
f 299 363 364
f 299 364 365
f 299 365 300
f 300 365 301
f 301 365 366
f 301 366 362
f 302 305 367
f 302 367 368
f 302 368 369
f 302 369 370
f 302 370 303
f 303 371 304
f 303 370 372
f 303 372 373
f 303 373 371
f 305 362 367
f 306 374 308
f 306 307 324
f 306 324 374
f 308 374 375
f 308 375 309
f 309 375 335
f 309 335 376
f 309 376 377
f 309 377 310
f 310 377 378
f 310 378 311
f 311 378 313
f 313 378 316
f 314 379 380
f 314 380 315
f 314 316 381
f 314 381 379
f 315 380 382
f 315 382 317
f 316 378 383
f 316 383 384
f 316 384 381
f 317 382 348
f 318 321 385
f 318 385 338
f 322 336 323
f 323 336 324
f 324 336 337
f 324 337 374
f 326 386 327
f 327 386 387
f 327 387 328
f 328 387 388
f 328 388 329
f 329 388 389
f 329 389 390
f 329 390 332
f 329 332 330
f 331 333 376
f 331 376 335
f 332 390 391
f 332 391 333
f 333 392 376
f 333 391 384
f 333 384 392
f 334 335 375
f 334 375 374
f 334 374 337
f 339 393 340
f 340 393 394
f 340 394 395
f 340 395 396
f 340 396 342
f 340 342 341
f 342 396 343
f 343 397 344
f 343 396 397
f 344 397 398
f 344 398 399
f 344 399 345
f 345 399 400
f 345 400 401
f 345 401 346
f 346 401 347
f 347 401 402
f 348 382 403
f 348 403 349
f 349 354 351
f 349 351 350
f 349 403 354
f 352 358 404
f 352 404 360
f 352 360 353
f 354 403 405
f 354 405 355
f 355 405 406
f 355 406 356
f 356 406 407
f 356 407 408
f 356 408 409
f 356 409 357
f 357 409 358
f 358 409 410
f 358 410 404
f 359 361 360
f 359 360 411
f 359 411 412
f 359 412 363
f 360 404 411
f 362 366 367
f 363 413 414
f 363 414 364
f 363 412 415
f 363 415 413
f 364 414 416
f 364 416 365
f 365 416 366
f 366 416 367
f 367 416 368
f 368 396 395
f 368 395 394
f 368 394 370
f 368 370 369
f 368 416 417
f 368 417 396
f 370 394 418
f 370 418 419
f 370 419 420
f 370 420 372
f 376 392 377
f 377 392 383
f 377 383 378
f 379 381 421
f 379 421 422
f 379 422 423
f 379 423 403
f 379 403 380
f 380 403 382
f 381 384 421
f 383 392 384
f 384 391 424
f 384 424 421
f 386 425 387
f 387 426 388
f 387 425 426
f 388 427 389
f 388 426 427
f 389 427 428
f 389 428 429
f 389 429 430
f 389 430 390
f 390 430 424
f 390 424 391
f 393 418 394
f 396 417 431
f 396 431 397
f 397 431 432
f 397 432 398
f 398 433 399
f 398 432 434
f 398 434 433
f 399 433 400
f 400 433 435
f 400 435 436
f 400 436 437
f 400 437 438
f 400 438 439
f 400 439 440
f 400 440 401
f 401 440 402
f 403 423 405
f 404 410 441
f 404 441 442
f 404 442 411
f 405 423 443
f 405 443 444
f 405 444 406
f 406 444 407
f 407 444 445
f 407 445 446
f 407 446 447
f 407 447 448
f 407 448 449
f 407 449 408
f 408 449 450
f 408 450 451
f 408 451 409
f 409 451 441
f 409 441 410
f 411 452 415
f 411 415 412
f 411 442 452
f 413 432 414
f 413 415 453
f 413 453 432
f 414 432 416
f 415 452 453
f 416 431 417
f 416 432 431
f 421 454 422
f 421 424 454
f 422 454 455
f 422 455 443
f 422 443 423
f 424 430 454
f 426 456 427
f 427 456 457
f 427 457 458
f 427 458 428
f 428 458 459
f 428 459 429
f 429 459 460
f 429 460 445
f 429 445 455
f 429 455 454
f 429 454 430
f 432 453 461
f 432 461 434
f 433 434 435
f 434 461 462
f 434 462 435
f 435 462 436
f 436 462 463
f 436 463 464
f 436 464 437
f 441 451 465
f 441 465 442
f 442 465 452
f 443 445 444
f 443 455 445
f 445 447 446
f 445 460 447
f 447 460 466
f 447 466 467
f 447 467 448
f 448 468 469
f 448 469 449
f 448 467 468
f 449 469 450
f 450 469 470
f 450 470 471
f 450 471 465
f 450 465 451
f 452 472 453
f 452 465 472
f 453 472 473
f 453 473 462
f 453 462 461
f 457 474 458
f 458 474 475
f 458 475 476
f 458 476 459
f 459 476 460
f 460 476 466
f 462 473 477
f 462 477 463
f 463 477 478
f 463 478 479
f 463 479 464
f 465 471 480
f 465 480 481
f 465 481 472
f 466 476 482
f 466 482 483
f 466 483 484
f 466 484 485
f 466 485 467
f 467 485 486
f 467 486 468
f 468 487 488
f 468 488 489
f 468 489 469
f 468 486 490
f 468 490 487
f 469 489 470
f 470 491 492
f 470 492 493
f 470 493 471
f 470 489 500
f 470 500 494
f 470 494 491
f 471 493 480
f 472 481 473
f 473 481 495
f 473 495 477
f 475 496 476
f 476 496 482
f 477 497 478
f 477 495 498
f 477 498 497
f 480 499 495
f 480 495 481
f 480 493 499
f 488 500 489
f 492 501 493
f 493 501 502
f 493 502 499
f 495 503 498
f 495 499 502
f 495 502 504
f 495 504 503

