# https://github.com/mikedh/trimesh
v -0.01072550 -0.03968550 -0.01100274
v -0.01072550 -0.06405247 -0.01100274
v -0.01072550 -0.03968550 -0.01986116
v -0.01944963 -0.03968550 -0.01100274
v -0.01072550 -0.06427592 -0.01145595
v -0.02517475 -0.06405247 -0.01100274
v -0.01072550 -0.04201962 -0.02358162
v -0.04240282 -0.05946229 -0.02358162
v -0.04240282 -0.05341295 -0.01100274
v -0.01072550 -0.06448052 -0.01187590
v -0.02796598 -0.06448052 -0.01187590
v -0.02819548 -0.06404978 -0.01100274
v -0.01072550 -0.06718886 -0.02358162
v -0.04240282 -0.06668004 -0.02358162
v -0.04240282 -0.06348172 -0.01100274
v -0.01072550 -0.06509165 -0.01322566
v -0.02947634 -0.06447784 -0.01187590
v -0.02947634 -0.06508896 -0.01323059
v -0.02796598 -0.06508896 -0.01322689
v -0.02494525 -0.06509165 -0.01322566
v -0.02970274 -0.06404709 -0.01100274
v -0.01072550 -0.06715925 -0.02245723
v -0.02494525 -0.06718886 -0.02358162
v -0.04240282 -0.06666658 -0.02307669
v -0.04077461 -0.06684696 -0.02358162
v -0.04240282 -0.06369441 -0.01138575
v -0.04157166 -0.06358672 -0.01100274
v -0.01072550 -0.06527741 -0.01367394
v -0.03098981 -0.06447245 -0.01187590
v -0.03098981 -0.06508627 -0.01323798
v -0.02947634 -0.06540125 -0.01398675
v -0.02796598 -0.06540395 -0.01398305
v -0.02645871 -0.06540395 -0.01398182
v -0.03098981 -0.06404170 -0.01100274
v -0.01072550 -0.06711348 -0.02184146
v -0.02645871 -0.06715925 -0.02245723
v -0.02796598 -0.06718617 -0.02358162
v -0.04240282 -0.06664774 -0.02245723
v -0.04007060 -0.06689811 -0.02358162
v -0.03979147 -0.06689003 -0.02245723
v -0.04054821 -0.06682811 -0.02245723
v -0.04157166 -0.06673119 -0.02245723
v -0.04240282 -0.06389901 -0.01180201
v -0.04157166 -0.06374287 -0.01128723
v -0.04048308 -0.06380210 -0.01117147
v -0.04036213 -0.06371595 -0.01100274
v -0.01072550 -0.06540395 -0.01398182
v -0.03250017 -0.06403093 -0.01100274
v -0.03250017 -0.06445899 -0.01187590
v -0.03250017 -0.06508088 -0.01325152
v -0.03098981 -0.06539856 -0.01399414
v -0.02947634 -0.06571624 -0.01489931
v -0.02796598 -0.06571893 -0.01489931
v -0.01072550 -0.06704618 -0.02094614
v -0.02796598 -0.06704618 -0.02094614
v -0.02947634 -0.06704349 -0.02094614
v -0.02947634 -0.06715387 -0.02245723
v -0.02947634 -0.06718348 -0.02358162
v -0.04240282 -0.06659658 -0.02177865
v -0.03854783 -0.06699772 -0.02358162
v -0.03854783 -0.06696541 -0.02245723
v -0.03947203 -0.06686311 -0.02156560
v -0.04157166 -0.06661274 -0.02094614
v -0.04240282 -0.06406324 -0.01214191
v -0.04157166 -0.06411170 -0.01204339
v -0.04001167 -0.06411977 -0.01175644
v -0.03947513 -0.06383979 -0.01109511
v -0.03955887 -0.06378056 -0.01100274
v -0.01072550 -0.06571893 -0.01489931
v -0.03270486 -0.06402824 -0.01100274
v -0.03401364 -0.06443745 -0.01187590
v -0.03401364 -0.06506742 -0.01327862
v -0.03401364 -0.06538241 -0.01403478
v -0.03250017 -0.06539318 -0.01400768
v -0.03098981 -0.06570816 -0.01489931
v -0.03098981 -0.06616583 -0.01641164
v -0.02947634 -0.06617122 -0.01641164
v -0.02796598 -0.06617391 -0.01641164
v -0.01072550 -0.06691157 -0.01982668
v -0.02494525 -0.06691157 -0.01982668
v -0.02645871 -0.06691157 -0.01982791
v -0.02796598 -0.06691157 -0.01982914
v -0.02947634 -0.06690888 -0.01983776
v -0.03098981 -0.06690619 -0.01985500
v -0.03098981 -0.06703541 -0.02094614
v -0.03098981 -0.06714848 -0.02245723
v -0.03060213 -0.06718079 -0.02358162
v -0.04240282 -0.06652928 -0.02094614
v -0.03816016 -0.06701656 -0.02358162
v -0.03703747 -0.06703541 -0.02245723
v -0.03854783 -0.06688734 -0.02132176
v -0.03854783 -0.06680927 -0.02056560
v -0.04000857 -0.06676350 -0.02101510
v -0.04157166 -0.06641890 -0.01943382
v -0.04240282 -0.06644313 -0.02026633
v -0.04240282 -0.06461783 -0.01338822
v -0.04157166 -0.06471475 -0.01338822
v -0.04006129 -0.06485743 -0.01338822
v -0.03854783 -0.06427323 -0.01187590
v -0.03854783 -0.06386671 -0.01104462
v -0.03847030 -0.06384786 -0.01100274
v -0.03936659 -0.06379402 -0.01100274
v -0.01072550 -0.06617391 -0.01641164
v -0.03401364 -0.06400939 -0.01100274
v -0.03552400 -0.06440784 -0.01187590
v -0.03552400 -0.06505396 -0.01331310
v -0.03552400 -0.06536895 -0.01406803
v -0.03401364 -0.06567586 -0.01489931
v -0.03250017 -0.06569739 -0.01489931
v -0.03250017 -0.06615506 -0.01641164
v -0.03098981 -0.06653736 -0.01792149
v -0.02645871 -0.06654813 -0.01792149
v -0.02947634 -0.06654274 -0.01792149
v -0.01072550 -0.06678234 -0.01907051
v -0.02494525 -0.06678234 -0.01907051
v -0.02645871 -0.06678234 -0.01907175
v -0.02796598 -0.06678234 -0.01907298
v -0.02947634 -0.06677965 -0.01908160
v -0.03098981 -0.06677696 -0.01909884
v -0.03250017 -0.06690080 -0.01988825
v -0.03250017 -0.06702464 -0.02094614
v -0.03098981 -0.06717809 -0.02358162
v -0.03250017 -0.06713771 -0.02245723
v -0.03703747 -0.06706502 -0.02358162
v -0.03664979 -0.06707849 -0.02358162
v -0.03552400 -0.06708656 -0.02245723
v -0.03552400 -0.06697349 -0.02094614
v -0.03702196 -0.06691426 -0.02087348
v -0.03751508 -0.06683619 -0.02032175
v -0.03854783 -0.06664774 -0.01943382
v -0.04006129 -0.06655351 -0.01943382
v -0.04157166 -0.06612814 -0.01792149
v -0.04240282 -0.06633275 -0.01943382
v -0.04240282 -0.06515626 -0.01480572
v -0.04157166 -0.06518319 -0.01460251
v -0.04006129 -0.06525588 -0.01438946
v -0.03854783 -0.06530433 -0.01424783
v -0.03854783 -0.06495166 -0.01338822
v -0.03771666 -0.06389094 -0.01100274
v -0.03703747 -0.06435399 -0.01187590
v -0.01072550 -0.06654813 -0.01792149
v -0.03552400 -0.06397978 -0.01100274
v -0.03707158 -0.06508358 -0.01351630
v -0.03659087 -0.06535549 -0.01410498
v -0.03552400 -0.06564893 -0.01489931
v -0.03401364 -0.06613353 -0.01641164
v -0.03401364 -0.06650774 -0.01792149
v -0.03250017 -0.06652659 -0.01792149
v -0.03250017 -0.06677157 -0.01913209
v -0.03401364 -0.06676350 -0.01919613
v -0.03401364 -0.06689003 -0.01995229
v -0.03401364 -0.06700310 -0.02094614
v -0.03250017 -0.06716733 -0.02358162
v -0.03401364 -0.06711618 -0.02245723
v -0.03552400 -0.06711618 -0.02358162
v -0.03513633 -0.06712425 -0.02358162
v -0.03552400 -0.06687388 -0.02004096
v -0.03650713 -0.06686042 -0.02012347
v -0.03702196 -0.06674196 -0.01954465
v -0.03703747 -0.06642967 -0.01792149
v -0.03854783 -0.06635698 -0.01792149
v -0.04006129 -0.06626275 -0.01792149
v -0.04006129 -0.06588316 -0.01641164
v -0.04157166 -0.06574316 -0.01641164
v -0.04240282 -0.06586700 -0.01724415
v -0.04240282 -0.06603930 -0.01792149
v -0.04240282 -0.06533126 -0.01532419
v -0.04157166 -0.06543625 -0.01535868
v -0.04240282 -0.06539048 -0.01550030
v -0.04006129 -0.06550625 -0.01514562
v -0.03854783 -0.06555202 -0.01500276
v -0.03759881 -0.06532856 -0.01417394
v -0.03709329 -0.06392324 -0.01100274
v -0.03703747 -0.06392594 -0.01100274
v -0.03707158 -0.06554932 -0.01476631
v -0.03703747 -0.06605276 -0.01641164
v -0.03552400 -0.06610391 -0.01641164
v -0.03552400 -0.06648082 -0.01792149
v -0.03552400 -0.06675004 -0.01928480
v -0.03401364 -0.06714579 -0.02358162
v -0.03854783 -0.06597469 -0.01641164
v -0.04240282 -0.06563547 -0.01635252
f 1 2 5
f 1 5 10
f 1 10 16
f 1 16 28
f 1 28 47
f 1 47 69
f 1 69 103
f 1 103 141
f 1 141 114
f 1 114 79
f 1 79 54
f 1 54 35
f 1 35 22
f 1 22 13
f 1 13 7
f 1 7 3
f 1 3 4
f 1 4 9
f 1 9 15
f 1 15 27
f 1 27 46
f 1 46 68
f 1 68 102
f 1 102 101
f 1 101 139
f 1 139 173
f 1 173 174
f 1 174 142
f 1 142 104
f 1 104 70
f 1 70 48
f 1 48 34
f 1 34 21
f 1 21 12
f 1 12 6
f 1 6 2
f 2 6 5
f 3 7 8
f 3 8 4
f 4 8 9
f 5 6 11
f 5 11 10
f 6 12 11
f 7 13 23
f 7 23 37
f 7 37 58
f 7 58 87
f 7 87 122
f 7 122 153
f 7 153 180
f 7 180 156
f 7 156 155
f 7 155 125
f 7 125 124
f 7 124 89
f 7 89 60
f 7 60 39
f 7 39 25
f 7 25 14
f 7 14 8
f 8 14 24
f 8 24 38
f 8 38 59
f 8 59 88
f 8 88 95
f 8 95 133
f 8 133 166
f 8 166 165
f 8 165 182
f 8 182 169
f 8 169 167
f 8 167 134
f 8 134 96
f 8 96 64
f 8 64 43
f 8 43 26
f 8 26 15
f 8 15 9
f 10 11 20
f 10 20 16
f 11 12 17
f 11 17 18
f 11 18 19
f 11 19 20
f 12 21 17
f 13 22 36
f 13 36 23
f 14 25 24
f 15 26 27
f 16 20 28
f 17 21 29
f 17 29 18
f 18 29 30
f 18 30 51
f 18 51 31
f 18 31 32
f 18 32 20
f 18 20 19
f 20 32 33
f 20 33 28
f 21 34 29
f 22 35 36
f 23 36 37
f 24 25 38
f 25 39 40
f 25 40 41
f 25 41 42
f 25 42 38
f 26 43 44
f 26 44 27
f 27 44 45
f 27 45 46
f 28 33 47
f 29 34 48
f 29 48 49
f 29 49 50
f 29 50 30
f 30 50 74
f 30 74 51
f 31 51 52
f 31 52 32
f 32 52 53
f 32 53 33
f 33 53 69
f 33 69 47
f 35 54 55
f 35 55 36
f 36 55 56
f 36 56 57
f 36 57 58
f 36 58 37
f 38 42 59
f 39 60 40
f 40 60 61
f 40 61 62
f 40 62 41
f 41 62 42
f 42 62 63
f 42 63 59
f 43 64 65
f 43 65 44
f 44 65 45
f 45 65 66
f 45 66 67
f 45 67 46
f 46 67 68
f 48 70 49
f 49 70 71
f 49 71 50
f 50 71 72
f 50 72 73
f 50 73 74
f 51 74 75
f 51 75 52
f 52 75 76
f 52 76 77
f 52 77 78
f 52 78 53
f 53 78 103
f 53 103 69
f 54 79 80
f 54 80 55
f 55 80 81
f 55 81 82
f 55 82 56
f 56 82 83
f 56 83 84
f 56 84 85
f 56 85 86
f 56 86 57
f 57 86 87
f 57 87 58
f 59 63 88
f 60 89 61
f 61 89 90
f 61 90 62
f 62 90 91
f 62 91 92
f 62 92 93
f 62 93 63
f 63 94 95
f 63 95 88
f 63 93 94
f 64 96 97
f 64 97 65
f 65 97 98
f 65 98 66
f 66 99 67
f 66 98 99
f 67 99 100
f 67 100 101
f 67 101 102
f 67 102 68
f 70 104 71
f 71 104 142
f 71 142 105
f 71 105 106
f 71 106 72
f 72 106 107
f 72 107 73
f 73 108 109
f 73 109 74
f 73 107 108
f 74 109 75
f 75 109 110
f 75 110 76
f 76 110 148
f 76 148 111
f 76 111 113
f 76 113 77
f 77 112 78
f 77 113 112
f 78 112 141
f 78 141 103
f 79 114 115
f 79 115 80
f 80 115 116
f 80 116 81
f 81 116 117
f 81 117 82
f 82 117 118
f 82 118 83
f 83 118 119
f 83 119 84
f 84 119 149
f 84 149 120
f 84 120 85
f 85 120 121
f 85 121 123
f 85 123 86
f 86 122 87
f 86 123 153
f 86 153 122
f 89 124 90
f 90 124 125
f 90 125 126
f 90 126 127
f 90 127 128
f 90 128 91
f 91 129 92
f 91 128 129
f 92 129 130
f 92 130 131
f 92 131 93
f 93 131 94
f 94 131 162
f 94 162 132
f 94 132 133
f 94 133 95
f 96 134 135
f 96 135 97
f 97 135 136
f 97 136 98
f 98 136 137
f 98 137 138
f 98 138 99
f 99 139 100
f 99 138 140
f 99 140 139
f 100 139 101
f 105 142 174
f 105 174 140
f 105 140 106
f 106 140 143
f 106 143 144
f 106 144 107
f 107 144 145
f 107 145 108
f 108 146 110
f 108 110 109
f 108 145 146
f 110 146 147
f 110 147 148
f 111 119 118
f 111 118 113
f 111 148 119
f 112 113 117
f 112 117 116
f 112 116 115
f 112 115 114
f 112 114 141
f 113 118 117
f 119 148 149
f 120 149 150
f 120 150 151
f 120 151 121
f 121 151 152
f 121 152 154
f 121 154 123
f 123 154 180
f 123 180 153
f 125 155 126
f 126 155 156
f 126 156 154
f 126 154 152
f 126 152 127
f 127 157 158
f 127 158 128
f 127 152 157
f 128 158 129
f 129 158 130
f 130 158 159
f 130 159 160
f 130 160 161
f 130 161 162
f 130 162 131
f 132 162 163
f 132 163 164
f 132 164 165
f 132 165 166
f 132 166 133
f 134 167 135
f 135 168 136
f 135 167 169
f 135 169 168
f 136 170 137
f 136 168 170
f 137 171 172
f 137 172 138
f 137 170 171
f 138 172 144
f 138 144 143
f 138 143 140
f 139 140 173
f 140 174 173
f 144 172 175
f 144 175 145
f 145 175 176
f 145 176 177
f 145 177 146
f 146 177 178
f 146 178 147
f 147 150 149
f 147 149 148
f 147 178 150
f 150 178 179
f 150 179 151
f 151 179 157
f 151 157 152
f 154 156 180
f 157 179 158
f 158 179 159
f 159 179 160
f 160 179 178
f 160 178 177
f 160 177 176
f 160 176 161
f 161 176 181
f 161 181 163
f 161 163 162
f 163 181 170
f 163 170 168
f 163 168 164
f 164 168 169
f 164 169 182
f 164 182 165
f 170 181 171
f 171 181 176
f 171 176 175
f 171 175 172

