# https://github.com/mikedh/trimesh
v 0.01512285 -0.03696821 0.00376469
v 0.01512285 -0.03586030 0.00362014
v -0.01072240 -0.03696821 0.00376469
v 0.01512285 -0.03696821 -0.01265026
v 0.01512285 -0.03434873 0.00336048
v -0.01072240 -0.03586030 0.00362014
v -0.01072240 -0.03696821 -0.01714750
v 0.00704748 -0.03696821 -0.02358285
v 0.01512285 -0.02722030 -0.01313478
v 0.01512285 -0.03283715 0.00301515
v -0.01072240 -0.03373322 0.00322128
v -0.01072240 -0.03434873 0.00336048
v -0.01072240 -0.02722030 -0.01622396
v -0.00705660 -0.03696821 -0.02358285
v 0.00547389 -0.02981401 -0.02358285
v 0.00507923 -0.02831389 -0.02358285
v 0.00616961 -0.02737298 -0.02189638
v 0.00624297 -0.02722030 -0.02159121
v 0.01512285 -0.02722030 -0.00652008
v -0.01072240 -0.03283715 0.00301515
v 0.01512285 -0.03216725 0.00283312
v -0.01072240 -0.03229513 0.00286792
v -0.01072240 -0.02722030 -0.00653079
v -0.00624451 -0.02722030 -0.02159121
v -0.00616861 -0.02737298 -0.02189638
v -0.00541471 -0.02933878 -0.02358285
v 0.00476047 -0.02791214 -0.02358285
v 0.00462385 -0.02750658 -0.02329642
v 0.00519560 -0.02722030 -0.02237288
v 0.01512285 -0.02722697 0.00021776
v 0.01512285 -0.03150785 0.00265109
v -0.01072240 -0.03150785 0.00265109
v -0.01072240 -0.02722793 0.00021776
v -0.00527557 -0.02722030 -0.02231398
v -0.00462286 -0.02750658 -0.02329642
v -0.00475947 -0.02791214 -0.02358285
v -0.00495427 -0.02810586 -0.02358285
v -0.00508077 -0.02831389 -0.02358285
v 0.00377887 -0.02762014 -0.02358285
v 0.00377887 -0.02748654 -0.02333925
v 0.00407993 -0.02722030 -0.02275568
v -0.01072240 -0.02734340 0.00114130
v 0.01512285 -0.02728423 0.00067552
v 0.01512285 -0.03075206 0.00243158
v -0.01072240 -0.03075206 0.00243158
v -0.00519461 -0.02722030 -0.02237288
v -0.00377788 -0.02722030 -0.02278512
v -0.00377788 -0.02748654 -0.02333925
v -0.00377788 -0.02762014 -0.02358285
v -0.00431927 -0.02764876 -0.02358285
v 0.00226600 -0.02760105 -0.02358285
v 0.00377887 -0.02722030 -0.02278512
v -0.01072240 -0.02791214 0.00140899
v 0.01512285 -0.02781958 0.00136616
v 0.01512285 -0.02734340 0.00114130
v 0.01512285 -0.02981401 0.00212373
v -0.01072240 -0.02981401 0.00212373
v -0.00321371 -0.02722030 -0.02278780
v -0.00329214 -0.02760105 -0.02358285
v 0.00283270 -0.02722030 -0.02278780
v -0.01072240 -0.02830244 0.00159102
v 0.01512285 -0.02830244 0.00159102
v 0.01512285 -0.02905346 0.00185604
v -0.01072240 -0.02919851 0.00190690
f 1 2 6
f 1 6 3
f 1 3 7
f 1 7 14
f 1 14 8
f 1 8 4
f 1 4 9
f 1 9 19
f 1 19 30
f 1 30 43
f 1 43 55
f 1 55 54
f 1 54 62
f 1 62 63
f 1 63 56
f 1 56 44
f 1 44 31
f 1 31 21
f 1 21 10
f 1 10 5
f 1 5 2
f 2 5 12
f 2 12 6
f 3 6 12
f 3 12 11
f 3 11 20
f 3 20 22
f 3 22 32
f 3 32 45
f 3 45 57
f 3 57 64
f 3 64 61
f 3 61 53
f 3 53 42
f 3 42 33
f 3 33 23
f 3 23 13
f 3 13 7
f 4 8 9
f 5 10 11
f 5 11 12
f 7 13 14
f 8 14 26
f 8 26 38
f 8 38 37
f 8 37 36
f 8 36 50
f 8 50 49
f 8 49 59
f 8 59 51
f 8 51 39
f 8 39 27
f 8 27 16
f 8 16 15
f 8 15 9
f 9 15 16
f 9 16 17
f 9 17 18
f 9 18 29
f 9 29 41
f 9 41 52
f 9 52 60
f 9 60 58
f 9 58 47
f 9 47 46
f 9 46 34
f 9 34 24
f 9 24 13
f 9 13 23
f 9 23 19
f 10 20 11
f 10 21 22
f 10 22 20
f 13 24 25
f 13 25 26
f 13 26 14
f 16 27 17
f 17 27 28
f 17 28 18
f 18 28 29
f 19 23 30
f 21 31 32
f 21 32 22
f 23 33 30
f 24 34 35
f 24 35 25
f 25 35 36
f 25 36 37
f 25 37 38
f 25 38 26
f 27 39 28
f 28 39 40
f 28 40 41
f 28 41 29
f 30 33 42
f 30 42 43
f 31 44 45
f 31 45 32
f 34 46 35
f 35 46 47
f 35 47 48
f 35 48 49
f 35 49 50
f 35 50 36
f 39 51 40
f 40 52 41
f 40 51 52
f 42 53 54
f 42 54 55
f 42 55 43
f 44 56 57
f 44 57 45
f 47 58 59
f 47 59 48
f 48 59 49
f 51 59 58
f 51 58 60
f 51 60 52
f 53 61 54
f 54 61 62
f 56 63 57
f 57 63 64
f 61 64 63
f 61 63 62

