# https://github.com/mikedh/trimesh
v 0.07029624 -0.02712623 -0.02358285
v 0.07001218 -0.02713660 -0.02358285
v 0.07180755 -0.02727140 -0.02358285
v 0.07483016 -0.02887516 -0.02663657
v 0.07180755 -0.02909983 -0.02765991
v 0.07129326 -0.03053769 -0.03084935
v 0.07029624 -0.02724720 -0.02384343
v 0.05820394 -0.03816939 -0.04731502
v 0.05731461 -0.03817631 -0.04730144
v 0.06878308 -0.02718499 -0.02358285
v 0.07469648 -0.02756519 -0.02358285
v 0.07572692 -0.02893738 -0.02650085
v 0.07483016 -0.03033376 -0.02976630
v 0.07137866 -0.03200665 -0.03395736
v 0.07029624 -0.03198246 -0.03401165
v 0.06878308 -0.03380397 -0.03789598
v 0.06727177 -0.03490311 -0.04024396
v 0.06425102 -0.03636861 -0.04336554
v 0.06425102 -0.03676264 -0.04412015
v 0.06576232 -0.03798966 -0.04616410
v 0.06122655 -0.03945171 -0.04925311
v 0.05731461 -0.03982155 -0.05010816
v 0.05731461 -0.03785140 -0.04654412
v 0.06727177 -0.02724720 -0.02358285
v 0.07509937 -0.02786590 -0.02358285
v 0.07497127 -0.02778294 -0.02393572
v 0.07583089 -0.02876110 -0.02548294
v 0.07592186 -0.03017822 -0.02850681
v 0.07576405 -0.03041326 -0.02959529
v 0.07483016 -0.03183729 -0.03278202
v 0.07331885 -0.03325441 -0.03602575
v 0.07029624 -0.03234883 -0.03476897
v 0.07259105 -0.03508629 -0.03987208
v 0.06727177 -0.03530405 -0.04099856
v 0.06983023 -0.03655872 -0.04298552
v 0.06727177 -0.03805533 -0.04602024
v 0.06273786 -0.03948628 -0.04910925
v 0.05820394 -0.03984574 -0.05009187
v 0.05731461 -0.04062689 -0.05111792
v 0.05731461 -0.03729838 -0.04513262
v 0.06576232 -0.02739583 -0.02358285
v 0.06579203 -0.02739237 -0.02358285
v 0.07574363 -0.02840855 -0.02358285
v 0.07580118 -0.02848459 -0.02397101
v 0.07613724 -0.02981530 -0.02548294
v 0.07597199 -0.02974617 -0.02700030
v 0.07625978 -0.03132574 -0.02850681
v 0.07582347 -0.03170249 -0.03153067
v 0.07570463 -0.03194444 -0.03253500
v 0.07439014 -0.03336847 -0.03578145
v 0.07421190 -0.03465079 -0.03722552
v 0.07267274 -0.03586398 -0.04004309
v 0.07140466 -0.03632368 -0.04179117
v 0.06803857 -0.03812100 -0.04589537
v 0.06363647 -0.03956232 -0.04898710
v 0.05820394 -0.04060269 -0.05090891
v 0.05971524 -0.04085501 -0.05061304
v 0.05731461 -0.04190575 -0.05131336
v 0.05731461 -0.03668660 -0.04305338
v 0.05740558 -0.03658982 -0.04297738
v 0.06513292 -0.02754791 -0.02358285
v 0.07576591 -0.02851224 -0.02358285
v 0.07600541 -0.02981530 -0.02397101
v 0.07616323 -0.03132574 -0.02548294
v 0.07628019 -0.03132574 -0.02699487
v 0.07618365 -0.03283964 -0.02850681
v 0.07612981 -0.03283964 -0.03001874
v 0.07597756 -0.03283964 -0.03153067
v 0.07573063 -0.03283964 -0.03283359
v 0.07519963 -0.03435008 -0.03455453
v 0.07418590 -0.03586398 -0.03714952
v 0.07389998 -0.03586398 -0.03790141
v 0.07325202 -0.03586398 -0.03908490
v 0.07268017 -0.03696311 -0.04008109
v 0.07145850 -0.03737442 -0.04192147
v 0.06958143 -0.03805188 -0.04442416
v 0.06803857 -0.03816248 -0.04589537
v 0.06363647 -0.03989067 -0.04898710
v 0.06050246 -0.04109695 -0.05043931
v 0.06050246 -0.04118336 -0.05043931
v 0.05971524 -0.04150481 -0.05061304
v 0.05830420 -0.04202327 -0.05091705
v 0.05786789 -0.04298069 -0.05059946
v 0.05731461 -0.04245877 -0.05104191
v 0.05731461 -0.03668660 -0.04290680
v 0.06488413 -0.02779331 -0.02358285
v 0.07593300 -0.02981530 -0.02358285
v 0.07593300 -0.03018859 -0.02358285
v 0.07597756 -0.03132574 -0.02397101
v 0.07592186 -0.03283964 -0.02397101
v 0.07608525 -0.03283964 -0.02548294
v 0.07616694 -0.03283964 -0.02699487
v 0.07602955 -0.03435008 -0.02699487
v 0.07602027 -0.03435008 -0.02850681
v 0.07593857 -0.03435008 -0.03001874
v 0.07574734 -0.03446069 -0.03163653
v 0.07566008 -0.03403209 -0.03276573
v 0.07551526 -0.03446069 -0.03317832
v 0.07493785 -0.03586398 -0.03455453
v 0.07452753 -0.03586398 -0.03606375
v 0.07408565 -0.03666241 -0.03685364
v 0.07370318 -0.03724999 -0.03744539
v 0.07293824 -0.03742973 -0.03916905
v 0.07271730 -0.03888486 -0.03866416
v 0.07258919 -0.03970749 -0.03838186
v 0.07235155 -0.03888486 -0.03941877
v 0.07225129 -0.03742973 -0.04058869
v 0.07123942 -0.03860835 -0.04167174
v 0.06958143 -0.03821778 -0.04442416
v 0.06789561 -0.03917175 -0.04574337
v 0.06605939 -0.04039876 -0.04699743
v 0.06530374 -0.04039876 -0.04762989
v 0.06418418 -0.04039531 -0.04843879
v 0.06335612 -0.04089648 -0.04882152
v 0.05971524 -0.04226176 -0.05019773
v 0.05887604 -0.04260048 -0.05038774
v 0.06234796 -0.04155665 -0.04914996
v 0.06119499 -0.04187119 -0.04965213
v 0.06087936 -0.04307401 -0.04914996
v 0.06035022 -0.04408327 -0.04885409
v 0.05731461 -0.04319844 -0.05067004
v 0.05830420 -0.04346112 -0.05014073
v 0.05731461 -0.04390009 -0.05028731
v 0.06480059 -0.02805600 -0.02358285
v 0.05731461 -0.05428999 -0.02358285
v 0.07591073 -0.03134648 -0.02358285
v 0.07590330 -0.03166447 -0.02358285
v 0.07586245 -0.03280508 -0.02358285
v 0.07582347 -0.03338229 -0.02358285
v 0.07580118 -0.03435008 -0.02397101
v 0.07595529 -0.03435008 -0.02548294
v 0.07575291 -0.03586398 -0.02548294
v 0.07582532 -0.03586398 -0.02699487
v 0.07580861 -0.03586398 -0.02850681
v 0.07569906 -0.03594348 -0.03002417
v 0.07556725 -0.03650341 -0.03053176
v 0.07565079 -0.03549415 -0.03120222
v 0.07557467 -0.03503790 -0.03220927
v 0.07550783 -0.03594348 -0.03163653
v 0.07527018 -0.03586398 -0.03304260
v 0.07495641 -0.03737442 -0.03304260
v 0.07459622 -0.03737442 -0.03455453
v 0.07421004 -0.03724999 -0.03599860
v 0.07395568 -0.03767167 -0.03645734
v 0.07317404 -0.03888486 -0.03757297
v 0.07273401 -0.04028470 -0.03747253
v 0.07259848 -0.04124558 -0.03690522
v 0.07238125 -0.04071329 -0.03790955
v 0.07115587 -0.04290119 -0.03852844
v 0.07135267 -0.04185390 -0.03905504
v 0.07206005 -0.04028470 -0.03896546
v 0.07131554 -0.04039876 -0.04030910
v 0.07159960 -0.03902312 -0.04073798
v 0.07104076 -0.03961762 -0.04133787
v 0.07077711 -0.03902312 -0.04214948
v 0.06990078 -0.03878809 -0.04360983
v 0.06971140 -0.04001165 -0.04309952
v 0.06947561 -0.04102091 -0.04277922
v 0.06933822 -0.03922359 -0.04410929
v 0.06828736 -0.04039876 -0.04468203
v 0.06761340 -0.04039876 -0.04543935
v 0.06685774 -0.04039876 -0.04624282
v 0.06660338 -0.04130088 -0.04597409
v 0.06627661 -0.04230669 -0.04565651
v 0.06565278 -0.04174676 -0.04654412
v 0.06502895 -0.04118336 -0.04741816
v 0.06419903 -0.04177786 -0.04773575
v 0.06365875 -0.04287008 -0.04752674
v 0.06280655 -0.04199907 -0.04859622
v 0.05979322 -0.04351643 -0.04944041
v 0.06188566 -0.04256246 -0.04885138
v 0.06131938 -0.04351643 -0.04861794
v 0.06219015 -0.04438052 -0.04753488
v 0.06119128 -0.04489898 -0.04781990
v 0.06066399 -0.04586331 -0.04752131
v 0.05960756 -0.04639560 -0.04771404
v 0.05979322 -0.04494737 -0.04856636
v 0.05866067 -0.04546583 -0.04877537
v 0.05934206 -0.04446002 -0.04908753
v 0.05817609 -0.04494737 -0.04931283
v 0.05731461 -0.04417314 -0.05012715
v 0.05731461 -0.06242979 -0.02358285
v 0.07574549 -0.03435008 -0.02358285
v 0.07570835 -0.03475102 -0.02358285
v 0.07562109 -0.03548032 -0.02358285
v 0.07564151 -0.03577757 -0.02410130
v 0.07559139 -0.03664167 -0.02469305
v 0.07561180 -0.03676610 -0.02548294
v 0.07548556 -0.03752305 -0.02548294
v 0.07564151 -0.03690090 -0.02699487
v 0.07563409 -0.03684905 -0.02850681
v 0.07560809 -0.03671771 -0.02952200
v 0.07543728 -0.03728110 -0.03002417
v 0.07506038 -0.03888486 -0.03001874
v 0.07522934 -0.03737442 -0.03153067
v 0.07484873 -0.03888486 -0.03153067
v 0.07456837 -0.03888486 -0.03304260
v 0.07423418 -0.03882265 -0.03447853
v 0.07411907 -0.03827654 -0.03544758
v 0.07377002 -0.03882265 -0.03599860
v 0.07322045 -0.04039876 -0.03606375
v 0.07273772 -0.04181243 -0.03596874
v 0.07259848 -0.04274220 -0.03539872
v 0.07239982 -0.04225139 -0.03640577
v 0.07211575 -0.04181243 -0.03747253
v 0.07088480 -0.04232397 -0.03953821
v 0.07112802 -0.04131471 -0.03997523
v 0.07138423 -0.04341273 -0.03756754
v 0.07092564 -0.04390700 -0.03806699
v 0.07088109 -0.04039876 -0.04106371
v 0.07011058 -0.04046789 -0.04220919
v 0.06841918 -0.04180551 -0.04359626
v 0.06807199 -0.04123175 -0.04442688
v 0.06910428 -0.04046789 -0.04360983
v 0.06977824 -0.04190921 -0.04169888
v 0.06956844 -0.04272146 -0.04139758
v 0.06924167 -0.04190921 -0.04245349
v 0.06819638 -0.04295995 -0.04307781
v 0.06718637 -0.04177095 -0.04504305
v 0.06676677 -0.04303944 -0.04464946
v 0.06642515 -0.04404525 -0.04428030
v 0.06504380 -0.04572852 -0.04441059
v 0.06526846 -0.04299106 -0.04610981
v 0.06466691 -0.04219263 -0.04711686
v 0.06426030 -0.04343347 -0.04665270
v 0.06385370 -0.04461901 -0.04619125
v 0.06343781 -0.04562482 -0.04584652
v 0.06319830 -0.04387935 -0.04719830
v 0.06271186 -0.04339200 -0.04782261
v 0.06167214 -0.04538288 -0.04720373
v 0.06128225 -0.04649583 -0.04668256
v 0.06089421 -0.04756040 -0.04615867
v 0.06004016 -0.04687258 -0.04716572
v 0.05903200 -0.04724933 -0.04743717
v 0.05817609 -0.04637832 -0.04840893
v 0.05765437 -0.04583221 -0.04900338
v 0.05731461 -0.04593244 -0.04906582
v 0.05731461 -0.06243324 -0.02366971
v 0.05749656 -0.06234338 -0.02358285
v 0.07554497 -0.03604371 -0.02358285
v 0.07553197 -0.03622690 -0.02368600
v 0.07543357 -0.03723962 -0.02410130
v 0.07512165 -0.03888486 -0.02397101
v 0.07523676 -0.03888486 -0.02548294
v 0.07525719 -0.03888486 -0.02699487
v 0.07547441 -0.03760254 -0.02850681
v 0.07519406 -0.03888486 -0.02850681
v 0.07482459 -0.04039876 -0.02850681
v 0.07467606 -0.04039876 -0.03001874
v 0.07436414 -0.04054393 -0.03167453
v 0.07407265 -0.04114534 -0.03227171
v 0.07421004 -0.04009460 -0.03304260
v 0.07411164 -0.03975242 -0.03392479
v 0.07396682 -0.03928581 -0.03493184
v 0.07318703 -0.04190921 -0.03455453
v 0.07376259 -0.04031235 -0.03447853
v 0.07273958 -0.04307055 -0.03455453
v 0.07240353 -0.04382404 -0.03455453
v 0.07211390 -0.04331596 -0.03596874
v 0.07053575 -0.04185390 -0.04052625
v 0.07062487 -0.04341273 -0.03905504
v 0.06962414 -0.04432868 -0.03997523
v 0.07116329 -0.04438052 -0.03706266
v 0.07062487 -0.04490244 -0.03756754
v 0.06962228 -0.04581838 -0.03847415
v 0.06986736 -0.04486787 -0.03902247
v 0.06777307 -0.04224102 -0.04408486
v 0.06980980 -0.04330213 -0.04052625
v 0.06928437 -0.04372727 -0.04098228
v 0.06874038 -0.04334361 -0.04204904
v 0.06789375 -0.04396576 -0.04270050
v 0.06732933 -0.04350260 -0.04368041
v 0.06681318 -0.04493009 -0.04319181
v 0.06654397 -0.04571815 -0.04289323
v 0.06609838 -0.04493009 -0.04394642
v 0.06559337 -0.04622624 -0.04344697
v 0.06513292 -0.04735302 -0.04299366
v 0.06457779 -0.04673778 -0.04400071
v 0.06356963 -0.04727698 -0.04444316
v 0.06414519 -0.04631610 -0.04471189
v 0.06431414 -0.04504415 -0.04550721
v 0.06486185 -0.04400032 -0.04576508
v 0.06190051 -0.04712490 -0.04583566
v 0.06242965 -0.04611909 -0.04619668
v 0.06208432 -0.04880816 -0.04445402
v 0.06132867 -0.04802010 -0.04553707
v 0.06030194 -0.04856621 -0.04578137
v 0.05929565 -0.04897061 -0.04608538
v 0.05820394 -0.04752929 -0.04762717
v 0.05820394 -0.04828624 -0.04710872
v 0.05731461 -0.04858004 -0.04730959
v 0.05731461 -0.06243670 -0.02397101
v 0.05750027 -0.06234338 -0.02397101
v 0.05801085 -0.06204958 -0.02358285
v 0.07550412 -0.03632368 -0.02358285
v 0.07536302 -0.03728110 -0.02358285
v 0.07507152 -0.03888486 -0.02358285
v 0.07498055 -0.03927198 -0.02358285
v 0.07475404 -0.04039876 -0.02397101
v 0.07486729 -0.04039876 -0.02548294
v 0.07489329 -0.04039876 -0.02699487
v 0.07442541 -0.04190921 -0.02699487
v 0.07431030 -0.04203709 -0.02855567
v 0.07427502 -0.04171219 -0.03001874
v 0.07417662 -0.04143568 -0.03126466
v 0.07397611 -0.04085155 -0.03304260
v 0.07392041 -0.04192649 -0.03167453
v 0.07361963 -0.04190921 -0.03304260
v 0.07294938 -0.04354753 -0.03314846
v 0.07254278 -0.04413166 -0.03372121
v 0.07187067 -0.04493009 -0.03455453
v 0.07134153 -0.04490244 -0.03599860
v 0.06932522 -0.04533103 -0.03948392
v 0.06880164 -0.04495428 -0.04062126
v 0.07111131 -0.04580110 -0.03544758
v 0.07088665 -0.04538633 -0.03645734
v 0.06959815 -0.04729080 -0.03692693
v 0.06931036 -0.04682765 -0.03793127
v 0.06827808 -0.04458099 -0.04169074
v 0.06796430 -0.04558680 -0.04126458
v 0.06762268 -0.04501996 -0.04216033
v 0.06683918 -0.04630919 -0.04201104
v 0.06659039 -0.04729426 -0.04144101
v 0.06614108 -0.04672741 -0.04244806
v 0.06566207 -0.04783000 -0.04199747
v 0.06518491 -0.04890494 -0.04154959
v 0.06468733 -0.04836228 -0.04255664
v 0.06412848 -0.04781963 -0.04351212
v 0.06368103 -0.04888765 -0.04302623
v 0.06309062 -0.04828279 -0.04403328
v 0.06044676 -0.05020108 -0.04436173
v 0.06122655 -0.04914688 -0.04473360
v 0.06261160 -0.04935081 -0.04351212
v 0.06213074 -0.05035316 -0.04299366
v 0.06055445 -0.05180139 -0.04292852
v 0.05987120 -0.04958585 -0.04523034
v 0.05943861 -0.05057437 -0.04467932
v 0.05855856 -0.04997987 -0.04568637
v 0.05811482 -0.04947178 -0.04628897
v 0.05731461 -0.04944759 -0.04666627
v 0.05731461 -0.06240214 -0.02504321
v 0.05747614 -0.06232955 -0.02491563
v 0.06030009 -0.06070159 -0.02548294
v 0.05825593 -0.06191133 -0.02397101
v 0.05956672 -0.06115438 -0.02397101
v 0.06032237 -0.06071542 -0.02397101
v 0.05955186 -0.06115092 -0.02358285
v 0.07470577 -0.04039876 -0.02358285
v 0.07462036 -0.04073749 -0.02358285
v 0.07420076 -0.04230669 -0.02358285
v 0.07428988 -0.04205783 -0.02382986
v 0.07411350 -0.04279058 -0.02423974
v 0.07441798 -0.04190921 -0.02548294
v 0.07413392 -0.04285280 -0.02548294
v 0.07389255 -0.04360975 -0.02548294
v 0.07412649 -0.04281824 -0.02699487
v 0.07410421 -0.04274565 -0.02808336
v 0.07405965 -0.04262468 -0.02909312
v 0.07400210 -0.04246914 -0.03001874
v 0.07337455 -0.04341965 -0.03153067
v 0.07257805 -0.04571469 -0.03083035
v 0.07267460 -0.04442546 -0.03271416
v 0.07244809 -0.04542781 -0.03183740
v 0.07232184 -0.04492663 -0.03314846
v 0.07151420 -0.04657533 -0.03316746
v 0.07103704 -0.04716983 -0.03375378
v 0.07127469 -0.04612946 -0.03455453
v 0.06830407 -0.04762262 -0.03875917
v 0.06831706 -0.04611563 -0.04025753
v 0.07088109 -0.04688641 -0.03455453
v 0.07055617 -0.04635758 -0.03599860
v 0.06980052 -0.04760188 -0.03606375
v 0.06930108 -0.04835883 -0.03606375
v 0.06825208 -0.04900172 -0.03722824
v 0.06796987 -0.04862843 -0.03823257
v 0.06797544 -0.04712144 -0.03976622
v 0.06770066 -0.04654768 -0.04069726
v 0.06688559 -0.04786111 -0.04051811
v 0.06661081 -0.04882198 -0.03996166
v 0.06619121 -0.04830353 -0.04096870
v 0.06567321 -0.04936809 -0.04049368
v 0.06515520 -0.05038427 -0.04001594
v 0.06470961 -0.04991075 -0.04102299
v 0.06370145 -0.05043266 -0.04155502
v 0.06419532 -0.04939920 -0.04205447
v 0.06313889 -0.04989692 -0.04256207
v 0.05985078 -0.05103753 -0.04402514
v 0.06265059 -0.05089582 -0.04203276
v 0.06156260 -0.05136243 -0.04251321
v 0.06216044 -0.05188089 -0.04150344
v 0.06103532 -0.05234404 -0.04194861
v 0.06050989 -0.05327381 -0.04138672
v 0.05879435 -0.05465291 -0.04123743
v 0.05879064 -0.05313901 -0.04276294
v 0.05971524 -0.05208136 -0.04319453
v 0.05874979 -0.05158364 -0.04424772
v 0.05755040 -0.05028404 -0.04593609
v 0.05774163 -0.05192582 -0.04454088
v 0.05731461 -0.05003863 -0.04622653
v 0.05731461 -0.06233647 -0.02585482
v 0.05739816 -0.06228808 -0.02592268
v 0.05806840 -0.06195626 -0.02544494
v 0.05954443 -0.06113019 -0.02548294
v 0.06018683 -0.06062555 -0.02699487
v 0.06122655 -0.06005525 -0.02548294
v 0.06122655 -0.06009327 -0.02397101
v 0.05942932 -0.06106797 -0.02699487
v 0.06122655 -0.06007944 -0.02358285
v 0.06055259 -0.06054260 -0.02358285
v 0.06030751 -0.06070505 -0.02358285
v 0.06011442 -0.06082257 -0.02358285
v 0.07396868 -0.04306364 -0.02358285
v 0.07389627 -0.04334361 -0.02382986
v 0.07330214 -0.04493009 -0.02397101
v 0.07338012 -0.04493009 -0.02548294
v 0.07335599 -0.04493009 -0.02699487
v 0.07387028 -0.04357518 -0.02699487
v 0.07385356 -0.04331941 -0.02855567
v 0.07324459 -0.04493009 -0.02850681
v 0.07363634 -0.04341965 -0.03001874
v 0.07304036 -0.04493009 -0.03001874
v 0.07265046 -0.04585640 -0.03001874
v 0.07225500 -0.04661335 -0.03001874
v 0.07135267 -0.04770211 -0.03153067
v 0.07213060 -0.04630919 -0.03141123
v 0.07119671 -0.04743251 -0.03274673
v 0.07073998 -0.04794406 -0.03316746
v 0.06984694 -0.04946487 -0.03290416
v 0.06970955 -0.04896024 -0.03421252
v 0.07010872 -0.04807195 -0.03465225
v 0.06950160 -0.04865262 -0.03521957
v 0.06813697 -0.05037045 -0.03551815
v 0.06850644 -0.04948907 -0.03603932
v 0.06786404 -0.05000752 -0.03652520
v 0.06645857 -0.05166314 -0.03672064
v 0.06653840 -0.05024602 -0.03836015
v 0.06685217 -0.04938192 -0.03895189
v 0.06771551 -0.04805812 -0.03919076
v 0.06509579 -0.05182559 -0.03844701
v 0.06467619 -0.05139008 -0.03945406
v 0.06418789 -0.05091310 -0.04052897
v 0.06366803 -0.05189471 -0.04003223
v 0.06316860 -0.05144193 -0.04103928
v 0.06263388 -0.05239243 -0.04049640
v 0.06209732 -0.05334294 -0.03995351
v 0.06151804 -0.05288670 -0.04096056
v 0.06109844 -0.05360908 -0.04051268
v 0.06043933 -0.05473241 -0.03981508
v 0.05984707 -0.05439714 -0.04067826
v 0.05778620 -0.05495362 -0.04156588
v 0.05828934 -0.05405496 -0.04216305
v 0.05943118 -0.05506422 -0.04023038
v 0.05863839 -0.05607349 -0.03958706
v 0.05763209 -0.05638111 -0.03998066
v 0.05778434 -0.05345355 -0.04306967
v 0.05826706 -0.05253069 -0.04365869
v 0.05731461 -0.05035316 -0.04599038
v 0.05731461 -0.05166659 -0.04494804
v 0.05731461 -0.05365056 -0.04314567
v 0.05731461 -0.05324962 -0.04352026
v 0.05731461 -0.05280029 -0.04393828
v 0.05731461 -0.05204334 -0.04464131
v 0.05731461 -0.06224660 -0.02665557
v 0.05820394 -0.06173505 -0.02699487
v 0.05997703 -0.06048038 -0.02850681
v 0.06108916 -0.05972343 -0.02850681
v 0.06195992 -0.05927410 -0.02763548
v 0.06136394 -0.05978565 -0.02707631
v 0.06205647 -0.05934669 -0.02662843
v 0.05922138 -0.06095737 -0.02850681
v 0.06212516 -0.05939853 -0.02548294
v 0.06215487 -0.05942619 -0.02397101
v 0.06145677 -0.05991699 -0.02358285
v 0.07386285 -0.04335743 -0.02358285
v 0.07375888 -0.04363049 -0.02358285
v 0.07325944 -0.04493009 -0.02358285
v 0.07314619 -0.04519969 -0.02358285
v 0.07275072 -0.04610526 -0.02358285
v 0.07276929 -0.04614674 -0.02397101
v 0.07243138 -0.04690369 -0.02397101
v 0.07280642 -0.04619858 -0.02548294
v 0.07280642 -0.04617439 -0.02699487
v 0.07275443 -0.04606379 -0.02850681
v 0.07236640 -0.04682073 -0.02850681
v 0.07175742 -0.04795443 -0.02850681
v 0.07120043 -0.04897752 -0.02850681
v 0.07111688 -0.04882544 -0.02957900
v 0.07144922 -0.04806158 -0.03005674
v 0.07101105 -0.04864225 -0.03058605
v 0.07089222 -0.04845561 -0.03153067
v 0.07026468 -0.04946487 -0.03153067
v 0.06966870 -0.05040847 -0.03153067
v 0.06954801 -0.05023219 -0.03230971
v 0.06936421 -0.04996950 -0.03331676
v 0.06917483 -0.04946487 -0.03465225
v 0.06835605 -0.05067115 -0.03455453
v 0.06778606 -0.05142810 -0.03455453
v 0.06674077 -0.05197421 -0.03571359
v 0.06730148 -0.05101679 -0.03611804
v 0.06525732 -0.05350194 -0.03571630
v 0.06494169 -0.05318395 -0.03672335
v 0.06540771 -0.05213666 -0.03757297
v 0.06616336 -0.05132095 -0.03757297
v 0.06462977 -0.05289015 -0.03757297
v 0.06356035 -0.05330492 -0.03840629
v 0.06411734 -0.05236478 -0.03893018
v 0.06310547 -0.05290398 -0.03941606
v 0.06265616 -0.05362982 -0.03898175
v 0.06196364 -0.05473932 -0.03830857
v 0.06136580 -0.05448701 -0.03922062
v 0.06095548 -0.05511952 -0.03880803
v 0.06025738 -0.05612879 -0.03811314
v 0.05984335 -0.05559651 -0.03919890
v 0.05731461 -0.05580389 -0.04086556
v 0.05731461 -0.05502966 -0.04176403
v 0.05731461 -0.05467711 -0.04213319
v 0.05731461 -0.05435220 -0.04246163
v 0.05731461 -0.05647097 -0.04008380
v 0.05924923 -0.05646060 -0.03858002
v 0.05816309 -0.05675094 -0.03908490
v 0.05743715 -0.05777403 -0.03832215
v 0.05731461 -0.05771527 -0.03849044
v 0.05731461 -0.05721755 -0.03912833
v 0.05731461 -0.06220512 -0.02699487
v 0.05820394 -0.06150693 -0.02850681
v 0.06084037 -0.05954025 -0.03001874
v 0.06159602 -0.05903216 -0.03001874
v 0.05905242 -0.06086059 -0.02947857
v 0.06184481 -0.05919461 -0.02850681
v 0.06273786 -0.05855518 -0.02850681
v 0.06363276 -0.05789155 -0.02850681
v 0.06263203 -0.05885934 -0.02707631
v 0.06377572 -0.05800561 -0.02699487
v 0.06288082 -0.05882477 -0.02548294
v 0.06385741 -0.05806782 -0.02548294
v 0.06291052 -0.05883514 -0.02397101
v 0.06271001 -0.05898031 -0.02358285
v 0.06214744 -0.05941927 -0.02358285
v 0.07241653 -0.04686221 -0.02358285
v 0.07193751 -0.04795443 -0.02397101
v 0.07244809 -0.04695208 -0.02548294
v 0.07196722 -0.04795443 -0.02548294
v 0.07242952 -0.04693134 -0.02699487
v 0.07190224 -0.04795443 -0.02699487
v 0.07128026 -0.04912269 -0.02699487
v 0.07084767 -0.04987964 -0.02699487
v 0.07076412 -0.04973447 -0.02850681
v 0.07068428 -0.04938192 -0.03005674
v 0.06986736 -0.05068498 -0.03001874
v 0.06912470 -0.05116542 -0.03153067
v 0.06818339 -0.05191545 -0.03268973
v 0.06877380 -0.05095803 -0.03300460
v 0.06798844 -0.05168042 -0.03369678
v 0.06693572 -0.05248230 -0.03441881
v 0.06653097 -0.05325999 -0.03382435
v 0.06626548 -0.05298348 -0.03483140
v 0.06475417 -0.05451120 -0.03487212
v 0.06374787 -0.05498127 -0.03567830
v 0.06339696 -0.05466674 -0.03668535
v 0.06387412 -0.05359871 -0.03757297
v 0.06238881 -0.05509533 -0.03730424
v 0.06135095 -0.05561033 -0.03770597
v 0.06074011 -0.05645369 -0.03710880
v 0.05899673 -0.05780168 -0.03685907
v 0.05820394 -0.05754245 -0.03797470
v 0.05820394 -0.05802980 -0.03722281
v 0.05731461 -0.05902524 -0.03636234
v 0.05731461 -0.05791229 -0.03819728
v 0.05731461 -0.06196317 -0.02850681
v 0.05962055 -0.06034904 -0.02999702
v 0.06062128 -0.05939162 -0.03106922
v 0.06116528 -0.05885934 -0.03155510
v 0.06232940 -0.05804709 -0.03153067
v 0.06279541 -0.05819225 -0.02991830
v 0.06352507 -0.05780514 -0.02934828
v 0.05731461 -0.06162099 -0.03000788
v 0.05826706 -0.06114055 -0.02999702
v 0.05881477 -0.06072233 -0.03048833
v 0.06438841 -0.05720718 -0.02850681
v 0.06453137 -0.05734890 -0.02699487
v 0.06461306 -0.05742839 -0.02548294
v 0.06387041 -0.05807819 -0.02397101
v 0.06462606 -0.05745259 -0.02397101
v 0.06385184 -0.05806782 -0.02358285
v 0.07190224 -0.04795443 -0.02358285
v 0.07131368 -0.04913651 -0.02397101
v 0.07132668 -0.04917799 -0.02548294
v 0.07086809 -0.04993494 -0.02548294
v 0.07016442 -0.05097531 -0.02548294
v 0.06999732 -0.05111703 -0.02705188
v 0.07000846 -0.05087162 -0.02850681
v 0.06945890 -0.05162511 -0.02850681
v 0.06931408 -0.05143847 -0.03001874
v 0.06836905 -0.05214012 -0.03153067
v 0.06648085 -0.05471513 -0.03063763
v 0.06631375 -0.05453194 -0.03153067
v 0.06669250 -0.05343972 -0.03304260
v 0.06753727 -0.05244774 -0.03313218
v 0.06599069 -0.05419321 -0.03304260
v 0.06504195 -0.05479117 -0.03386236
v 0.06425102 -0.05519557 -0.03444053
v 0.06319830 -0.05603547 -0.03455453
v 0.06212888 -0.05637765 -0.03551544
v 0.06276385 -0.05554120 -0.03609904
v 0.06174641 -0.05610459 -0.03652249
v 0.06044862 -0.05776366 -0.03528200
v 0.06010514 -0.05752863 -0.03606375
v 0.05934949 -0.05802980 -0.03606375
v 0.05814081 -0.05876947 -0.03600403
v 0.05731461 -0.05922571 -0.03600403
v 0.05979879 -0.05975454 -0.03155510
v 0.06035764 -0.05921880 -0.03207627
v 0.06210103 -0.05787081 -0.03250515
v 0.06308690 -0.05744222 -0.03153067
v 0.06333569 -0.05764269 -0.03035804
v 0.06473003 -0.05602856 -0.03153067
v 0.06492127 -0.05619446 -0.03049919
v 0.06507351 -0.05633272 -0.02949214
v 0.05731461 -0.06119240 -0.03153067
v 0.05776949 -0.06097119 -0.03153067
v 0.05852514 -0.06054951 -0.03153067
v 0.05751698 -0.06083985 -0.03238300
v 0.06519419 -0.05645023 -0.02850681
v 0.06533344 -0.05659195 -0.02699487
v 0.06540771 -0.05667490 -0.02548294
v 0.06543370 -0.05669909 -0.02397101
v 0.06460935 -0.05744222 -0.02358285
v 0.06482286 -0.05724866 -0.02358285
v 0.07129326 -0.04910541 -0.02358285
v 0.07082353 -0.04986236 -0.02358285
v 0.07084024 -0.04989346 -0.02397101
v 0.07013843 -0.05097531 -0.02397101
v 0.06959258 -0.05181176 -0.02397101
v 0.06959072 -0.05180830 -0.02548294
v 0.06956844 -0.05177028 -0.02658771
v 0.06952759 -0.05171498 -0.02759476
v 0.06879793 -0.05248921 -0.02850681
v 0.06804599 -0.05326690 -0.02932928
v 0.06846374 -0.05255488 -0.02990745
v 0.06791046 -0.05310099 -0.03033904
v 0.06555810 -0.05527161 -0.03153067
v 0.06661267 -0.05484993 -0.02962786
v 0.06523504 -0.05497781 -0.03304260
v 0.06423060 -0.05582117 -0.03315118
v 0.06345638 -0.05623594 -0.03372663
v 0.06181696 -0.05765306 -0.03351220
v 0.06244265 -0.05663342 -0.03455453
v 0.06127854 -0.05745950 -0.03468754
v 0.06081066 -0.05801598 -0.03427495
v 0.05973195 -0.05855518 -0.03457625
v 0.05860497 -0.05909783 -0.03488026
v 0.05759682 -0.05937434 -0.03545843
v 0.05731461 -0.05943655 -0.03561587
v 0.05929379 -0.05950222 -0.03304260
v 0.06005130 -0.05903561 -0.03304260
v 0.06127854 -0.05823373 -0.03302089
v 0.06277870 -0.05705510 -0.03311589
v 0.06371445 -0.05645715 -0.03271958
v 0.06397438 -0.05668527 -0.03153067
v 0.05731461 -0.06088478 -0.03251329
v 0.05731461 -0.06073616 -0.03288516
v 0.05809440 -0.06026263 -0.03294760
v 0.06594985 -0.05572094 -0.02850681
v 0.06672963 -0.05496744 -0.02850681
v 0.06608909 -0.05584191 -0.02699487
v 0.06683918 -0.05508496 -0.02699487
v 0.06616336 -0.05590413 -0.02548294
v 0.06542442 -0.05668527 -0.02358285
v 0.06689116 -0.05514718 -0.02548294
v 0.06618935 -0.05591104 -0.02397101
v 0.06618007 -0.05590067 -0.02358285
v 0.07061373 -0.05019763 -0.02358285
v 0.06992863 -0.05127256 -0.02358285
v 0.06958515 -0.05180139 -0.02358285
v 0.06906529 -0.05256871 -0.02397101
v 0.06906158 -0.05256180 -0.02548294
v 0.06830592 -0.05358489 -0.02548294
v 0.06909499 -0.05236133 -0.02705188
v 0.06823723 -0.05350885 -0.02699487
v 0.06812397 -0.05336713 -0.02850681
v 0.06748343 -0.05412408 -0.02850681
v 0.05901529 -0.05932595 -0.03387321
v 0.05731461 -0.06055297 -0.03330047
v 0.05814081 -0.05955753 -0.03444867
v 0.05731461 -0.05999649 -0.03448396
v 0.06759483 -0.05426580 -0.02699487
v 0.06764681 -0.05433838 -0.02548294
v 0.06763939 -0.05433147 -0.02397101
v 0.06743330 -0.05453194 -0.02358285
v 0.06925281 -0.05227492 -0.02358285
v 0.06830964 -0.05357452 -0.02397101
v 0.06829107 -0.05355378 -0.02358285
f 1 2 10
f 1 10 24
f 1 24 42
f 1 42 41
f 1 41 61
f 1 61 86
f 1 86 124
f 1 124 125
f 1 125 182
f 1 182 239
f 1 239 294
f 1 294 347
f 1 347 411
f 1 411 410
f 1 410 409
f 1 409 408
f 1 408 473
f 1 473 538
f 1 538 537
f 1 537 584
f 1 584 627
f 1 627 628
f 1 628 668
f 1 668 671
f 1 671 689
f 1 689 692
f 1 692 690
f 1 690 674
f 1 674 673
f 1 673 672
f 1 672 630
f 1 630 629
f 1 629 585
f 1 585 539
f 1 539 478
f 1 478 477
f 1 477 476
f 1 476 475
f 1 475 474
f 1 474 412
f 1 412 350
f 1 350 349
f 1 349 348
f 1 348 298
f 1 298 297
f 1 297 296
f 1 296 295
f 1 295 240
f 1 240 185
f 1 185 184
f 1 184 183
f 1 183 129
f 1 129 128
f 1 128 127
f 1 127 126
f 1 126 88
f 1 88 87
f 1 87 62
f 1 62 43
f 1 43 25
f 1 25 11
f 1 11 3
f 1 3 4
f 1 4 5
f 1 5 6
f 1 6 7
f 1 7 8
f 1 8 9
f 1 9 2
f 2 9 10
f 3 11 4
f 4 11 12
f 4 12 13
f 4 13 6
f 4 6 5
f 6 13 14
f 6 14 15
f 6 15 7
f 7 15 8
f 8 15 16
f 8 16 17
f 8 17 18
f 8 18 19
f 8 19 20
f 8 20 21
f 8 21 22
f 8 22 9
f 9 22 39
f 9 39 58
f 9 58 84
f 9 84 121
f 9 121 123
f 9 123 181
f 9 181 237
f 9 237 291
f 9 291 340
f 9 340 399
f 9 399 457
f 9 457 458
f 9 458 462
f 9 462 461
f 9 461 460
f 9 460 459
f 9 459 517
f 9 517 516
f 9 516 515
f 9 515 514
f 9 514 518
f 9 518 523
f 9 523 522
f 9 522 568
f 9 568 567
f 9 567 610
f 9 610 653
f 9 653 685
f 9 685 683
f 9 683 661
f 9 661 660
f 9 660 619
f 9 619 576
f 9 576 569
f 9 569 524
f 9 524 463
f 9 463 400
f 9 400 341
f 9 341 292
f 9 292 238
f 9 238 182
f 9 182 125
f 9 125 85
f 9 85 59
f 9 59 40
f 9 40 23
f 9 23 24
f 9 24 10
f 11 25 26
f 11 26 12
f 12 26 27
f 12 27 28
f 12 28 29
f 12 29 13
f 13 29 30
f 13 30 31
f 13 31 14
f 14 32 15
f 14 31 33
f 14 33 16
f 14 16 32
f 15 32 16
f 16 33 17
f 17 33 34
f 17 34 19
f 17 19 18
f 19 34 35
f 19 35 20
f 20 36 37
f 20 37 21
f 20 35 36
f 21 37 38
f 21 38 22
f 22 38 39
f 23 40 41
f 23 41 42
f 23 42 24
f 25 43 26
f 26 43 44
f 26 44 27
f 27 45 46
f 27 46 28
f 27 44 45
f 28 46 47
f 28 47 48
f 28 48 49
f 28 49 29
f 29 49 30
f 30 49 33
f 30 33 31
f 33 50 51
f 33 51 52
f 33 52 53
f 33 53 54
f 33 54 35
f 33 35 34
f 33 49 50
f 35 54 36
f 36 54 55
f 36 55 37
f 37 55 39
f 37 39 38
f 39 55 56
f 39 56 57
f 39 57 58
f 40 59 60
f 40 60 61
f 40 61 41
f 43 62 44
f 44 62 63
f 44 63 45
f 45 63 64
f 45 64 65
f 45 65 47
f 45 47 46
f 47 65 66
f 47 66 67
f 47 67 68
f 47 68 49
f 47 49 48
f 49 68 69
f 49 69 51
f 49 51 50
f 51 69 70
f 51 70 71
f 51 71 72
f 51 72 73
f 51 73 52
f 52 73 74
f 52 74 75
f 52 75 53
f 53 75 76
f 53 76 54
f 54 76 109
f 54 109 77
f 54 77 78
f 54 78 55
f 55 78 80
f 55 80 79
f 55 79 57
f 55 57 56
f 57 79 58
f 58 79 80
f 58 80 81
f 58 81 82
f 58 82 83
f 58 83 84
f 59 85 86
f 59 86 60
f 60 86 61
f 62 87 63
f 63 87 88
f 63 88 89
f 63 89 64
f 64 89 90
f 64 90 91
f 64 91 65
f 65 91 92
f 65 92 66
f 66 92 93
f 66 93 94
f 66 94 67
f 67 94 95
f 67 95 68
f 68 95 96
f 68 96 97
f 68 97 69
f 69 97 70
f 70 97 98
f 70 98 99
f 70 99 100
f 70 100 71
f 71 100 101
f 71 101 72
f 72 101 102
f 72 102 103
f 72 103 74
f 72 74 73
f 74 103 104
f 74 104 105
f 74 105 106
f 74 106 107
f 74 107 75
f 75 107 108
f 75 108 109
f 75 109 76
f 77 109 110
f 77 110 111
f 77 111 112
f 77 112 78
f 78 112 113
f 78 113 114
f 78 114 80
f 80 115 116
f 80 116 81
f 80 114 117
f 80 117 118
f 80 118 119
f 80 119 120
f 80 120 115
f 81 116 82
f 82 116 83
f 83 121 84
f 83 116 122
f 83 122 123
f 83 123 121
f 85 124 86
f 85 125 124
f 88 126 89
f 89 126 127
f 89 127 128
f 89 128 90
f 90 128 129
f 90 129 130
f 90 130 91
f 91 130 131
f 91 131 92
f 92 131 93
f 93 131 132
f 93 132 133
f 93 133 94
f 94 133 134
f 94 134 95
f 95 134 135
f 95 135 136
f 95 136 137
f 95 137 96
f 96 137 97
f 97 137 138
f 97 138 98
f 98 138 139
f 98 139 140
f 98 140 99
f 99 140 141
f 99 141 142
f 99 142 100
f 100 142 143
f 100 143 101
f 101 143 144
f 101 144 102
f 102 144 145
f 102 145 103
f 103 145 104
f 104 145 105
f 105 145 146
f 105 146 147
f 105 147 148
f 105 148 149
f 105 149 150
f 105 150 151
f 105 151 152
f 105 152 106
f 106 152 153
f 106 153 107
f 107 153 108
f 108 153 152
f 108 152 154
f 108 154 155
f 108 155 109
f 109 155 156
f 109 156 157
f 109 157 158
f 109 158 159
f 109 159 160
f 109 160 161
f 109 161 162
f 109 162 110
f 110 162 111
f 111 162 163
f 111 163 164
f 111 164 165
f 111 165 166
f 111 166 112
f 112 166 167
f 112 167 114
f 112 114 113
f 114 167 168
f 114 168 169
f 114 169 117
f 115 170 116
f 115 120 170
f 116 170 122
f 117 169 171
f 117 171 118
f 118 171 119
f 119 171 172
f 119 172 120
f 120 173 174
f 120 174 175
f 120 175 176
f 120 176 177
f 120 177 178
f 120 178 179
f 120 179 170
f 120 172 173
f 122 170 179
f 122 179 180
f 122 180 181
f 122 181 123
f 129 183 130
f 130 184 185
f 130 185 186
f 130 186 131
f 130 183 184
f 131 186 187
f 131 187 132
f 132 187 188
f 132 188 133
f 133 188 189
f 133 189 190
f 133 190 191
f 133 191 134
f 134 191 192
f 134 192 135
f 135 192 136
f 136 139 137
f 136 192 193
f 136 193 194
f 136 194 195
f 136 195 139
f 137 139 138
f 139 195 141
f 139 141 140
f 141 195 196
f 141 196 197
f 141 197 142
f 142 197 198
f 142 198 199
f 142 199 143
f 143 199 144
f 144 199 200
f 144 200 145
f 145 200 201
f 145 201 146
f 146 201 147
f 147 201 202
f 147 202 203
f 147 203 204
f 147 204 148
f 148 204 205
f 148 205 149
f 149 206 207
f 149 207 150
f 149 205 208
f 149 208 209
f 149 209 206
f 150 207 151
f 151 207 152
f 152 207 210
f 152 210 154
f 154 210 155
f 155 210 211
f 155 211 156
f 156 211 157
f 157 211 158
f 158 212 213
f 158 213 214
f 158 214 159
f 158 211 215
f 158 215 216
f 158 216 217
f 158 217 218
f 158 218 212
f 159 214 213
f 159 213 160
f 160 213 161
f 161 213 163
f 161 163 162
f 163 213 219
f 163 219 164
f 164 220 221
f 164 221 222
f 164 222 223
f 164 223 165
f 164 219 220
f 165 223 224
f 165 224 166
f 166 224 167
f 167 224 168
f 168 171 169
f 168 224 223
f 168 223 225
f 168 225 226
f 168 226 227
f 168 227 228
f 168 228 229
f 168 229 171
f 171 229 172
f 172 229 173
f 173 229 228
f 173 228 230
f 173 230 175
f 173 175 174
f 175 231 232
f 175 232 233
f 175 233 176
f 175 230 231
f 176 233 234
f 176 234 177
f 177 234 178
f 178 234 235
f 178 235 236
f 178 236 179
f 179 236 180
f 180 236 181
f 181 236 237
f 182 238 239
f 185 240 186
f 186 240 241
f 186 241 187
f 187 241 242
f 187 242 243
f 187 243 244
f 187 244 189
f 187 189 188
f 189 244 190
f 190 244 245
f 190 245 191
f 191 245 246
f 191 246 192
f 192 246 247
f 192 247 193
f 193 247 194
f 194 196 195
f 194 247 248
f 194 248 249
f 194 249 196
f 196 249 250
f 196 250 197
f 197 250 251
f 197 251 252
f 197 252 253
f 197 253 198
f 198 253 254
f 198 254 199
f 199 254 200
f 200 254 201
f 201 255 203
f 201 203 202
f 201 254 256
f 201 256 255
f 203 255 257
f 203 257 258
f 203 258 259
f 203 259 204
f 204 259 208
f 204 208 205
f 206 260 207
f 206 209 261
f 206 261 262
f 206 262 260
f 207 260 210
f 208 259 263
f 208 263 209
f 209 263 264
f 209 264 265
f 209 265 266
f 209 266 262
f 209 262 261
f 210 260 215
f 210 215 211
f 212 218 213
f 213 218 267
f 213 267 219
f 215 260 216
f 216 268 262
f 216 262 269
f 216 269 270
f 216 270 218
f 216 218 217
f 216 260 268
f 218 270 271
f 218 271 267
f 219 267 220
f 220 267 272
f 220 272 273
f 220 273 221
f 221 273 274
f 221 274 275
f 221 275 222
f 222 275 274
f 222 274 276
f 222 276 277
f 222 277 278
f 222 278 279
f 222 279 280
f 222 280 227
f 222 227 281
f 222 281 282
f 222 282 223
f 223 282 226
f 223 226 225
f 226 282 281
f 226 281 227
f 227 283 284
f 227 284 228
f 227 280 279
f 227 279 285
f 227 285 283
f 228 284 230
f 230 284 231
f 231 283 232
f 231 284 283
f 232 283 286
f 232 286 287
f 232 287 233
f 233 287 288
f 233 288 234
f 234 289 235
f 234 288 290
f 234 290 289
f 235 289 236
f 236 289 291
f 236 291 237
f 238 292 239
f 239 292 293
f 239 293 294
f 240 295 241
f 241 295 296
f 241 296 242
f 242 296 243
f 243 297 298
f 243 298 299
f 243 299 244
f 243 296 297
f 244 299 300
f 244 300 301
f 244 301 245
f 245 247 246
f 245 301 247
f 247 301 248
f 248 301 302
f 248 302 303
f 248 303 304
f 248 304 249
f 249 304 305
f 249 305 250
f 250 305 251
f 251 306 253
f 251 253 252
f 251 305 307
f 251 307 308
f 251 308 306
f 253 306 308
f 253 308 256
f 253 256 254
f 255 308 257
f 255 256 308
f 257 308 309
f 257 309 310
f 257 310 258
f 258 310 311
f 258 311 312
f 258 312 259
f 259 312 263
f 260 262 268
f 262 266 313
f 262 313 314
f 262 314 269
f 263 312 315
f 263 315 316
f 263 316 317
f 263 317 264
f 264 317 265
f 265 317 318
f 265 318 313
f 265 313 266
f 267 271 272
f 269 314 319
f 269 319 270
f 270 319 271
f 271 319 320
f 271 320 321
f 271 321 274
f 271 274 273
f 271 273 272
f 274 322 323
f 274 323 324
f 274 324 277
f 274 277 276
f 274 321 320
f 274 320 322
f 277 324 325
f 277 325 326
f 277 326 327
f 277 327 328
f 277 328 278
f 278 328 279
f 279 328 329
f 279 329 330
f 279 330 285
f 283 285 286
f 285 331 332
f 285 332 287
f 285 287 286
f 285 330 329
f 285 329 333
f 285 333 334
f 285 334 335
f 285 335 331
f 287 332 336
f 287 336 288
f 288 336 337
f 288 337 338
f 288 338 339
f 288 339 290
f 289 290 291
f 290 339 291
f 291 339 340
f 292 341 342
f 292 342 293
f 293 342 343
f 293 343 344
f 293 344 294
f 294 344 345
f 294 345 346
f 294 346 347
f 298 348 299
f 299 348 349
f 299 349 350
f 299 350 351
f 299 351 300
f 300 351 352
f 300 352 353
f 300 353 301
f 301 353 354
f 301 354 302
f 302 354 355
f 302 355 356
f 302 356 357
f 302 357 303
f 303 357 358
f 303 358 304
f 304 358 359
f 304 359 305
f 305 359 307
f 307 359 360
f 307 360 308
f 308 360 309
f 309 361 362
f 309 362 310
f 309 360 361
f 310 362 363
f 310 363 364
f 310 364 365
f 310 365 366
f 310 366 311
f 311 366 367
f 311 367 315
f 311 315 312
f 313 318 368
f 313 368 369
f 313 369 314
f 314 369 320
f 314 320 319
f 315 367 366
f 315 366 370
f 315 370 371
f 315 371 316
f 316 371 317
f 317 371 372
f 317 372 373
f 317 373 374
f 317 374 375
f 317 375 318
f 318 375 368
f 320 369 376
f 320 376 377
f 320 377 378
f 320 378 323
f 320 323 322
f 323 378 379
f 323 379 380
f 323 380 325
f 323 325 324
f 325 380 326
f 326 379 381
f 326 381 382
f 326 382 383
f 326 383 384
f 326 384 385
f 326 385 327
f 326 380 379
f 327 385 329
f 327 329 328
f 329 385 384
f 329 384 386
f 329 386 333
f 331 387 337
f 331 337 336
f 331 336 332
f 331 335 387
f 333 386 334
f 334 386 388
f 334 388 389
f 334 389 335
f 335 390 391
f 335 391 392
f 335 392 393
f 335 393 394
f 335 394 395
f 335 395 396
f 335 396 387
f 335 389 390
f 337 387 396
f 337 396 338
f 338 397 339
f 338 396 398
f 338 398 397
f 339 397 399
f 339 399 340
f 341 400 342
f 342 400 401
f 342 401 402
f 342 402 403
f 342 403 343
f 343 404 405
f 343 405 406
f 343 406 346
f 343 346 345
f 343 345 344
f 343 403 407
f 343 407 404
f 346 406 408
f 346 408 409
f 346 409 410
f 346 410 411
f 346 411 347
f 350 412 352
f 350 352 351
f 352 354 353
f 352 412 413
f 352 413 355
f 352 355 354
f 355 414 415
f 355 415 416
f 355 416 417
f 355 417 356
f 355 413 414
f 356 417 357
f 357 417 418
f 357 418 358
f 358 418 419
f 358 419 420
f 358 420 359
f 359 420 360
f 360 420 421
f 360 421 361
f 361 421 422
f 361 422 423
f 361 423 424
f 361 424 425
f 361 425 363
f 361 363 362
f 363 425 365
f 363 365 364
f 365 425 426
f 365 426 366
f 366 426 427
f 366 427 428
f 366 428 429
f 366 429 430
f 366 430 370
f 368 376 369
f 368 375 376
f 370 430 372
f 370 372 371
f 372 430 431
f 372 431 373
f 373 431 432
f 373 432 433
f 373 433 374
f 374 433 432
f 374 432 434
f 374 434 435
f 374 435 375
f 375 436 437
f 375 437 379
f 375 379 438
f 375 438 376
f 375 435 436
f 376 438 379
f 376 379 377
f 377 379 378
f 379 382 381
f 379 437 436
f 379 436 439
f 379 439 382
f 382 440 441
f 382 441 383
f 382 439 440
f 383 441 384
f 384 441 442
f 384 442 443
f 384 443 390
f 384 390 388
f 384 388 386
f 388 390 389
f 390 444 445
f 390 445 446
f 390 446 391
f 390 443 444
f 391 446 392
f 392 446 447
f 392 447 448
f 392 448 449
f 392 449 393
f 393 450 451
f 393 451 394
f 393 449 448
f 393 448 452
f 393 452 453
f 393 453 454
f 393 454 450
f 394 455 456
f 394 456 395
f 394 451 455
f 395 456 396
f 396 456 398
f 397 457 399
f 397 398 458
f 397 458 457
f 398 456 455
f 398 455 459
f 398 459 460
f 398 460 461
f 398 461 462
f 398 462 458
f 400 463 401
f 401 463 464
f 401 464 407
f 401 407 402
f 402 407 403
f 404 465 466
f 404 466 467
f 404 467 468
f 404 468 469
f 404 469 405
f 404 407 470
f 404 470 465
f 405 469 471
f 405 471 472
f 405 472 406
f 406 472 473
f 406 473 408
f 407 464 470
f 412 474 413
f 413 474 475
f 413 475 414
f 414 476 477
f 414 477 478
f 414 478 479
f 414 479 415
f 414 475 476
f 415 479 480
f 415 480 481
f 415 481 482
f 415 482 416
f 416 419 418
f 416 418 417
f 416 482 483
f 416 483 419
f 419 483 422
f 419 422 421
f 419 421 420
f 422 483 484
f 422 484 423
f 423 484 485
f 423 485 486
f 423 486 487
f 423 487 488
f 423 488 424
f 424 488 487
f 424 487 489
f 424 489 490
f 424 490 426
f 424 426 425
f 426 490 491
f 426 491 492
f 426 492 493
f 426 493 427
f 427 493 428
f 428 493 494
f 428 494 429
f 429 494 495
f 429 495 431
f 429 431 430
f 431 495 496
f 431 496 432
f 432 496 497
f 432 497 498
f 432 498 499
f 432 499 434
f 434 499 435
f 435 498 500
f 435 500 501
f 435 501 502
f 435 502 439
f 435 439 503
f 435 503 436
f 435 499 498
f 436 503 439
f 439 442 440
f 439 502 504
f 439 504 505
f 439 505 506
f 439 506 442
f 440 442 441
f 442 506 505
f 442 505 507
f 442 507 445
f 442 445 444
f 442 444 443
f 445 507 508
f 445 508 509
f 445 509 510
f 445 510 448
f 445 448 447
f 445 447 446
f 448 509 511
f 448 511 512
f 448 512 513
f 448 513 452
f 448 510 509
f 450 514 515
f 450 515 516
f 450 516 517
f 450 517 451
f 450 454 518
f 450 518 514
f 451 517 455
f 452 513 519
f 452 519 453
f 453 519 520
f 453 520 454
f 454 520 521
f 454 521 522
f 454 522 523
f 454 523 518
f 455 517 459
f 463 524 464
f 464 525 470
f 464 524 525
f 465 526 527
f 465 527 466
f 465 470 528
f 465 528 526
f 466 529 467
f 466 527 529
f 467 469 468
f 467 529 530
f 467 530 531
f 467 531 532
f 467 532 469
f 469 532 533
f 469 533 534
f 469 534 471
f 470 525 528
f 471 534 472
f 472 534 535
f 472 535 536
f 472 536 537
f 472 537 538
f 472 538 473
f 478 539 479
f 479 539 480
f 480 539 540
f 480 540 481
f 481 540 541
f 481 541 482
f 482 541 542
f 482 542 543
f 482 543 483
f 483 543 484
f 484 543 544
f 484 544 545
f 484 545 485
f 485 545 486
f 486 545 546
f 486 546 547
f 486 547 487
f 487 547 548
f 487 548 489
f 489 548 490
f 490 548 491
f 491 548 492
f 492 548 549
f 492 549 550
f 492 550 493
f 493 550 551
f 493 551 552
f 493 552 494
f 494 552 553
f 494 553 496
f 494 496 495
f 496 553 497
f 497 553 554
f 497 554 498
f 498 554 555
f 498 555 556
f 498 556 500
f 500 556 557
f 500 557 501
f 501 504 502
f 501 557 558
f 501 558 559
f 501 559 504
f 504 559 560
f 504 560 505
f 505 560 559
f 505 559 561
f 505 561 509
f 505 509 508
f 505 508 507
f 509 561 562
f 509 562 512
f 509 512 511
f 512 563 564
f 512 564 519
f 512 519 513
f 512 562 563
f 519 564 565
f 519 565 521
f 519 521 520
f 521 564 566
f 521 566 567
f 521 567 568
f 521 568 522
f 521 565 564
f 524 569 525
f 525 569 528
f 526 528 570
f 526 570 571
f 526 571 527
f 527 572 573
f 527 573 574
f 527 574 575
f 527 575 529
f 527 571 572
f 528 569 576
f 528 576 577
f 528 577 578
f 528 578 570
f 529 575 530
f 530 575 531
f 531 533 532
f 531 575 579
f 531 579 580
f 531 580 533
f 533 535 534
f 533 580 581
f 533 581 535
f 535 582 536
f 535 581 583
f 535 583 582
f 536 582 537
f 537 582 584
f 539 585 540
f 540 585 586
f 540 586 587
f 540 587 542
f 540 542 541
f 542 587 544
f 542 544 543
f 544 587 545
f 545 587 546
f 546 588 589
f 546 589 590
f 546 590 591
f 546 591 547
f 546 587 588
f 547 591 549
f 547 549 548
f 549 591 592
f 549 592 593
f 549 593 550
f 550 593 594
f 550 594 551
f 551 594 595
f 551 595 596
f 551 596 597
f 551 597 598
f 551 598 553
f 551 553 552
f 553 598 597
f 553 597 555
f 553 555 554
f 555 597 596
f 555 596 599
f 555 599 600
f 555 600 556
f 556 600 557
f 557 600 601
f 557 601 558
f 558 601 602
f 558 602 603
f 558 603 604
f 558 604 559
f 559 604 605
f 559 605 561
f 561 605 562
f 562 605 563
f 563 605 606
f 563 606 607
f 563 607 564
f 564 607 606
f 564 606 608
f 564 608 609
f 564 609 567
f 564 567 566
f 567 609 610
f 570 578 571
f 571 578 611
f 571 611 612
f 571 612 572
f 572 613 573
f 572 612 613
f 573 613 614
f 573 614 615
f 573 615 574
f 574 615 575
f 575 615 616
f 575 616 617
f 575 617 595
f 575 595 618
f 575 618 579
f 576 619 620
f 576 620 577
f 577 620 578
f 578 621 611
f 578 620 622
f 578 622 621
f 579 618 623
f 579 623 580
f 580 623 624
f 580 624 581
f 581 624 625
f 581 625 626
f 581 626 583
f 582 583 627
f 582 627 584
f 583 626 628
f 583 628 627
f 585 629 586
f 586 629 630
f 586 630 631
f 586 631 588
f 586 588 587
f 588 631 632
f 588 632 633
f 588 633 589
f 589 633 634
f 589 634 635
f 589 635 590
f 590 635 636
f 590 636 591
f 591 636 592
f 592 636 637
f 592 637 593
f 593 637 638
f 593 638 639
f 593 639 594
f 594 639 638
f 594 638 640
f 594 640 595
f 595 641 596
f 595 640 638
f 595 638 642
f 595 642 618
f 595 617 641
f 596 641 643
f 596 643 599
f 599 643 600
f 600 643 644
f 600 644 645
f 600 645 601
f 601 645 602
f 602 645 646
f 602 646 647
f 602 647 603
f 603 605 604
f 603 647 648
f 603 648 606
f 603 606 605
f 606 649 650
f 606 650 651
f 606 651 608
f 606 648 649
f 608 651 609
f 609 651 652
f 609 652 610
f 610 652 653
f 611 621 612
f 612 621 654
f 612 654 655
f 612 655 656
f 612 656 613
f 613 646 657
f 613 657 658
f 613 658 614
f 613 656 646
f 614 658 659
f 614 659 615
f 615 659 616
f 616 659 658
f 616 658 643
f 616 643 641
f 616 641 617
f 618 642 623
f 619 660 622
f 619 622 620
f 621 622 654
f 622 660 661
f 622 661 662
f 622 662 654
f 623 642 663
f 623 663 624
f 624 663 664
f 624 664 665
f 624 665 625
f 625 665 666
f 625 666 667
f 625 667 626
f 626 668 628
f 626 667 669
f 626 669 670
f 626 670 671
f 626 671 668
f 630 672 631
f 631 672 673
f 631 673 632
f 632 673 674
f 632 674 633
f 633 674 675
f 633 675 634
f 634 675 676
f 634 676 635
f 635 676 677
f 635 677 678
f 635 678 636
f 636 678 679
f 636 679 680
f 636 680 637
f 637 680 638
f 638 680 681
f 638 681 642
f 642 681 664
f 642 664 663
f 643 658 644
f 644 658 645
f 645 658 657
f 645 657 646
f 646 656 649
f 646 649 648
f 646 648 647
f 649 656 655
f 649 655 682
f 649 682 650
f 650 682 651
f 651 682 683
f 651 683 684
f 651 684 685
f 651 685 652
f 652 685 653
f 654 682 655
f 654 662 682
f 661 683 662
f 662 683 682
f 664 666 665
f 664 681 686
f 664 686 666
f 666 669 667
f 666 686 687
f 666 687 669
f 669 687 670
f 670 687 688
f 670 688 671
f 671 688 689
f 674 690 675
f 675 690 691
f 675 691 677
f 675 677 676
f 677 691 687
f 677 687 686
f 677 686 679
f 677 679 678
f 679 686 681
f 679 681 680
f 683 685 684
f 687 691 688
f 688 691 689
f 689 691 692
f 690 692 691

