# https://github.com/mikedh/trimesh
v -0.04240592 -0.03968550 -0.00500664
v -0.02125948 -0.03968550 -0.01004064
v -0.04240592 -0.03968550 0.00343837
v -0.04240592 -0.02225602 -0.00864581
v -0.02125948 -0.03968550 0.00394323
v -0.02125948 -0.02309725 -0.01258433
v -0.04157166 -0.03968550 0.00352575
v -0.04240592 -0.03888402 0.00343676
v -0.04240592 -0.02142315 -0.00863125
v -0.03781229 -0.02149221 -0.00961021
v -0.03781229 -0.02150895 -0.00961021
v -0.02574546 -0.03968550 0.00394485
v -0.02125948 -0.03888402 0.00393676
v -0.02125948 -0.02292775 -0.01255359
v -0.04086160 -0.03968550 0.00358563
v -0.04157166 -0.03888402 0.00352090
v -0.04240592 -0.03737105 0.00334938
v -0.04240592 -0.02074514 -0.00858432
v -0.03703599 -0.02138758 -0.00967332
v -0.02730635 -0.02149221 -0.01112640
v -0.02876993 -0.03968550 0.00394323
v -0.02645759 -0.03888402 0.00393676
v -0.02125948 -0.03737105 0.00381702
v -0.02125948 -0.02257619 -0.01226880
v -0.04006046 -0.03968550 0.00365197
v -0.04006046 -0.03888402 0.00364712
v -0.04157166 -0.03737105 0.00343028
v -0.04240592 -0.03586018 0.00318595
v -0.04240592 -0.02030569 -0.00836749
v -0.04240592 -0.01994994 -0.00815390
v -0.02645759 -0.02148593 -0.01113611
v -0.03028113 -0.03968550 0.00394000
v -0.02947999 -0.03888402 0.00393352
v -0.02494432 -0.03737105 0.00381702
v -0.02645759 -0.03737105 0.00381540
v -0.02125948 -0.03586018 0.00361961
v -0.02125948 -0.02168473 -0.01138692
v -0.03935040 -0.03968550 0.00369728
v -0.03854926 -0.03888402 0.00374097
v -0.03854926 -0.03737105 0.00364712
v -0.04006046 -0.03737105 0.00355164
v -0.03854926 -0.03968550 0.00374744
v -0.04157166 -0.03586018 0.00326524
v -0.04240592 -0.03434721 0.00294323
v -0.04157166 -0.01994994 -0.00815714
v -0.02494432 -0.02148174 -0.01114420
v -0.04240592 -0.01961931 -0.00733998
v -0.04157166 -0.01961721 -0.00733998
v -0.03099119 -0.03968550 0.00393838
v -0.03099119 -0.03888402 0.00392867
v -0.02796879 -0.03737105 0.00381378
v -0.02947999 -0.03737105 0.00381055
v -0.02645759 -0.03586018 0.00361961
v -0.02125948 -0.03434721 0.00336232
v -0.02343312 -0.02148174 -0.01114906
v -0.02192192 -0.02148174 -0.01115229
v -0.02125948 -0.02148593 -0.01114744
v -0.03703599 -0.03888402 0.00380569
v -0.03703599 -0.03968550 0.00381863
v -0.03703599 -0.03737105 0.00371184
v -0.03854926 -0.03586018 0.00345456
v -0.04006046 -0.03586018 0.00337527
v -0.04157166 -0.03434721 0.00301281
v -0.04240592 -0.03289283 0.00263255
v -0.03854926 -0.01994994 -0.00816684
v -0.03854926 -0.01961303 -0.00733998
v -0.03703599 -0.01961094 -0.00733998
v -0.04240592 -0.01831351 -0.00394838
v -0.04157166 -0.01831142 -0.00395162
v -0.03179233 -0.03968550 0.00393190
v -0.03099119 -0.03737105 0.00380569
v -0.03250239 -0.03737105 0.00379598
v -0.03250239 -0.03888402 0.00391572
v -0.02947999 -0.03586018 0.00361637
v -0.03099119 -0.03586018 0.00361313
v -0.02796879 -0.03434721 0.00336232
v -0.02125948 -0.03283633 0.00301604
v -0.03703599 -0.01994994 -0.00816846
v -0.03552479 -0.01994994 -0.00816846
v -0.02125948 -0.02003783 -0.00798723
v -0.03552479 -0.03888402 0.00385585
v -0.03552479 -0.03968550 0.00386880
v -0.03552479 -0.03737105 0.00375229
v -0.03552479 -0.03586018 0.00355650
v -0.03703599 -0.03586018 0.00351281
v -0.03854926 -0.03434721 0.00318433
v -0.04006046 -0.03434721 0.00310828
v -0.04159650 -0.03271915 0.00265035
v -0.04240592 -0.03218134 0.00246103
v -0.04006046 -0.01830932 -0.00395162
v -0.03854926 -0.01830932 -0.00395324
v -0.02125948 -0.01830723 -0.00395162
v -0.03552479 -0.01961094 -0.00733998
v -0.04240592 -0.01831351 -0.00330437
v -0.04157166 -0.01831142 -0.00329790
v -0.03250239 -0.03968550 0.00392543
v -0.03250239 -0.03586018 0.00360666
v -0.03401359 -0.03737105 0.00377818
v -0.03401359 -0.03888402 0.00389145
v -0.03401359 -0.03968550 0.00390440
v -0.03330353 -0.03968550 0.00391572
v -0.02947999 -0.03434721 0.00335909
v -0.03099119 -0.03434721 0.00335423
v -0.02645759 -0.03283633 0.00301604
v -0.02947999 -0.03283633 0.00301281
v -0.02125948 -0.03150752 0.00265196
v -0.02125948 -0.01970929 -0.00723157
v -0.03401359 -0.03586018 0.00358724
v -0.03552479 -0.03434721 0.00328789
v -0.03703599 -0.03434721 0.00324258
v -0.03854926 -0.03283633 0.00285261
v -0.04006046 -0.03283633 0.00277332
v -0.04110795 -0.03200347 0.00250633
v -0.04240592 -0.03137149 0.00224258
v -0.04006046 -0.01830932 -0.00329142
v -0.02125948 -0.01830723 -0.00328009
v -0.04240592 -0.01931797 -0.00249368
v -0.04157166 -0.01921752 -0.00254223
v -0.04006046 -0.01918822 -0.00253576
v -0.03854926 -0.01916939 -0.00253090
v -0.03703599 -0.01915684 -0.00252767
v -0.03552479 -0.01914846 -0.00252605
v -0.03250239 -0.03434721 0.00334129
v -0.03099119 -0.03283633 0.00300633
v -0.03250239 -0.03283633 0.00299662
v -0.02796879 -0.03150752 0.00265196
v -0.03099119 -0.03150752 0.00265035
v -0.02125948 -0.03117479 0.00255488
v -0.03401359 -0.03434721 0.00331863
v -0.03552479 -0.03283633 0.00295455
v -0.03703599 -0.03283633 0.00291086
v -0.03854926 -0.03175235 0.00257915
v -0.04006046 -0.03188419 0.00254031
v -0.04159650 -0.03143009 0.00231539
v -0.04157166 -0.02981249 0.00184775
v -0.04240592 -0.02981249 0.00178950
v -0.03854926 -0.01830932 -0.00328657
v -0.03703599 -0.01830932 -0.00328333
v -0.03552479 -0.01830932 -0.00328171
v -0.03250239 -0.01830932 -0.00328009
v -0.02343312 -0.01914219 -0.00252443
v -0.02125948 -0.01914219 -0.00252443
v -0.04240592 -0.01992692 -0.00209077
v -0.04234382 -0.01998761 -0.00204870
v -0.04157166 -0.01997296 -0.00204223
v -0.04006046 -0.01994576 -0.00203090
v -0.03854926 -0.01992483 -0.00202119
v -0.03703599 -0.01991227 -0.00201472
v -0.03552479 -0.01990390 -0.00201148
v -0.03401359 -0.01914637 -0.00252443
v -0.03401359 -0.03283633 0.00298045
v -0.03250239 -0.03152007 0.00264711
v -0.03401359 -0.03154937 0.00264225
v -0.02494432 -0.03074998 0.00243028
v -0.03099119 -0.03075208 0.00243028
v -0.02125948 -0.03074998 0.00243028
v -0.03552479 -0.03159331 0.00262769
v -0.03703599 -0.03166028 0.00260342
v -0.03703599 -0.03090484 0.00238821
v -0.03854926 -0.03099691 0.00236070
v -0.04006046 -0.03112875 0.00232834
v -0.04006046 -0.02981249 0.00192866
v -0.04157166 -0.02830370 0.00134775
v -0.04240592 -0.02823046 0.00127170
v -0.02947999 -0.01914428 -0.00252443
v -0.02192192 -0.01989763 -0.00200825
v -0.02125948 -0.01989763 -0.00200825
v -0.04240592 -0.01998970 -0.00205032
v -0.04006046 -0.02074514 -0.00167329
v -0.04240592 -0.02225602 -0.00106811
v -0.04157166 -0.02225602 -0.00103899
v -0.04006046 -0.02225602 -0.00100501
v -0.03854926 -0.02074514 -0.00165226
v -0.03703599 -0.02074514 -0.00163931
v -0.03552479 -0.02225602 -0.00094837
v -0.03552479 -0.02074514 -0.00162961
v -0.03401359 -0.02074514 -0.00162637
v -0.03401359 -0.01990181 -0.00200986
v -0.03250239 -0.03076463 0.00242704
v -0.03401359 -0.03079393 0.00241734
v -0.03552479 -0.03083787 0.00240601
v -0.02947999 -0.02981249 0.00212445
v -0.03099119 -0.02981249 0.00212122
v -0.02125948 -0.02981249 0.00212445
v -0.03703599 -0.02981249 0.00204355
v -0.03854926 -0.02981249 0.00199339
v -0.04006046 -0.02830370 0.00142057
v -0.04157166 -0.02739760 0.00102898
v -0.04240592 -0.02746038 0.00100471
v -0.02947999 -0.02074514 -0.00162313
v -0.02343312 -0.02074514 -0.00162151
v -0.02125948 -0.02037265 -0.00179142
v -0.03854926 -0.02225602 -0.00097912
v -0.04240592 -0.02326048 -0.00064093
v -0.04157166 -0.02322072 -0.00062636
v -0.04006046 -0.02317259 -0.00060695
v -0.03854926 -0.02313701 -0.00059238
v -0.03703599 -0.02225602 -0.00096132
v -0.03401359 -0.02225602 -0.00094190
v -0.03552479 -0.02309516 -0.00057458
v -0.03401359 -0.02308470 -0.00056973
v -0.03250239 -0.02225602 -0.00093866
v -0.03099119 -0.02225602 -0.00093704
v -0.03250239 -0.02981249 0.00211313
v -0.03401359 -0.02981249 0.00209856
v -0.03552479 -0.02981249 0.00207591
v -0.02125948 -0.02914913 0.00189144
v -0.02947999 -0.02830370 0.00159209
v -0.03099119 -0.02830370 0.00158724
v -0.03250239 -0.02830370 0.00158076
v -0.03703599 -0.02830370 0.00151927
v -0.03854926 -0.02830370 0.00147882
v -0.04006046 -0.02730343 0.00106620
v -0.04157166 -0.02664007 0.00074743
v -0.04240592 -0.02677818 0.00075228
v -0.02125948 -0.02074514 -0.00162151
v -0.03703599 -0.02311399 -0.00058267
v -0.04240592 -0.02401591 -0.00032863
v -0.04157166 -0.02397615 -0.00031083
v -0.04006046 -0.02392802 -0.00028656
v -0.03854926 -0.02389454 -0.00026876
v -0.03703599 -0.02386943 -0.00025581
v -0.03250239 -0.02307842 -0.00056649
v -0.03552479 -0.02385269 -0.00024772
v -0.03401359 -0.02384013 -0.00024287
v -0.03099119 -0.02307842 -0.00056649
v -0.02125948 -0.02225602 -0.00093866
v -0.02125948 -0.02159265 -0.00123802
v -0.03401359 -0.02830370 0.00156944
v -0.03552479 -0.02830370 0.00155002
v -0.02125948 -0.02830370 0.00159209
v -0.02125948 -0.02778892 0.00139630
v -0.02796879 -0.02712974 0.00114387
v -0.03099119 -0.02712765 0.00114063
v -0.03250239 -0.02713183 0.00113740
v -0.03401359 -0.02714648 0.00113254
v -0.03703599 -0.02719880 0.00110989
v -0.03854926 -0.02724274 0.00109047
v -0.04006046 -0.02654799 0.00077817
v -0.04157166 -0.02527986 0.00021830
v -0.04240592 -0.02527986 0.00017946
v -0.04006046 -0.02527986 0.00027332
v -0.03854926 -0.02527986 0.00031053
v -0.03703599 -0.02527986 0.00033966
v -0.03552479 -0.02527986 0.00035908
v -0.03250239 -0.02383386 -0.00024125
v -0.03401359 -0.02527986 0.00037040
v -0.03250239 -0.02527986 0.00037849
v -0.03099119 -0.02383386 -0.00024125
v -0.02125948 -0.02308679 -0.00056973
v -0.03552479 -0.02716741 0.00112283
v -0.02125948 -0.02712974 0.00114387
v -0.03099119 -0.02637221 0.00083642
v -0.03250239 -0.02637640 0.00083642
v -0.03401359 -0.02638895 0.00083157
v -0.03552479 -0.02641197 0.00082348
v -0.03703599 -0.02644336 0.00081377
v -0.03854926 -0.02648730 0.00079759
v -0.03099119 -0.02527986 0.00037849
v -0.02125948 -0.02384223 -0.00024610
v -0.02125948 -0.02637430 0.00083319
v -0.02125948 -0.02527986 0.00036878
f 1 2 5
f 1 5 12
f 1 12 21
f 1 21 32
f 1 32 49
f 1 49 70
f 1 70 96
f 1 96 101
f 1 101 100
f 1 100 82
f 1 82 59
f 1 59 42
f 1 42 38
f 1 38 25
f 1 25 15
f 1 15 7
f 1 7 3
f 1 3 8
f 1 8 17
f 1 17 28
f 1 28 44
f 1 44 64
f 1 64 89
f 1 89 114
f 1 114 136
f 1 136 164
f 1 164 189
f 1 189 215
f 1 215 241
f 1 241 218
f 1 218 194
f 1 194 170
f 1 170 168
f 1 168 143
f 1 143 117
f 1 117 94
f 1 94 68
f 1 68 47
f 1 47 30
f 1 30 29
f 1 29 18
f 1 18 9
f 1 9 4
f 1 4 2
f 2 4 6
f 2 6 14
f 2 14 24
f 2 24 37
f 2 37 57
f 2 57 80
f 2 80 107
f 2 107 92
f 2 92 116
f 2 116 142
f 2 142 167
f 2 167 192
f 2 192 216
f 2 216 228
f 2 228 227
f 2 227 250
f 2 250 260
f 2 260 262
f 2 262 261
f 2 261 252
f 2 252 232
f 2 232 231
f 2 231 207
f 2 207 184
f 2 184 156
f 2 156 128
f 2 128 106
f 2 106 77
f 2 77 54
f 2 54 36
f 2 36 23
f 2 23 13
f 2 13 5
f 3 7 8
f 4 9 10
f 4 10 11
f 4 11 6
f 5 13 12
f 6 11 10
f 6 10 14
f 7 15 16
f 7 16 8
f 8 16 17
f 9 18 10
f 10 18 19
f 10 19 20
f 10 20 14
f 12 13 22
f 12 22 21
f 13 23 34
f 13 34 22
f 14 20 24
f 15 25 26
f 15 26 16
f 16 26 27
f 16 27 17
f 17 27 28
f 18 20 19
f 18 29 20
f 20 29 30
f 20 30 31
f 20 31 24
f 21 22 33
f 21 33 32
f 22 34 35
f 22 35 51
f 22 51 33
f 23 36 53
f 23 53 34
f 24 31 37
f 25 38 26
f 26 39 40
f 26 40 41
f 26 41 27
f 26 38 42
f 26 42 39
f 27 41 43
f 27 43 28
f 28 43 44
f 30 45 46
f 30 46 31
f 30 47 48
f 30 48 45
f 31 46 37
f 32 33 49
f 33 50 49
f 33 51 52
f 33 52 71
f 33 71 50
f 34 53 35
f 35 53 74
f 35 74 51
f 36 54 76
f 36 76 53
f 37 46 55
f 37 55 56
f 37 56 57
f 39 58 60
f 39 60 40
f 39 42 59
f 39 59 58
f 40 60 61
f 40 61 62
f 40 62 41
f 41 62 43
f 43 62 63
f 43 63 44
f 44 63 64
f 45 65 55
f 45 55 46
f 45 48 66
f 45 66 67
f 45 67 65
f 47 68 69
f 47 69 48
f 48 69 90
f 48 90 66
f 49 50 70
f 50 71 72
f 50 72 73
f 50 73 70
f 51 74 75
f 51 75 52
f 52 75 71
f 53 76 74
f 54 77 104
f 54 104 76
f 55 65 56
f 56 65 78
f 56 78 79
f 56 79 57
f 57 79 80
f 58 81 60
f 58 59 82
f 58 82 81
f 60 83 84
f 60 84 85
f 60 85 61
f 60 81 83
f 61 85 110
f 61 110 86
f 61 86 87
f 61 87 62
f 62 87 63
f 63 87 88
f 63 88 64
f 64 88 89
f 65 67 78
f 66 90 67
f 67 90 91
f 67 91 92
f 67 92 93
f 67 93 79
f 67 79 78
f 68 94 95
f 68 95 69
f 69 95 115
f 69 115 90
f 70 73 96
f 71 75 97
f 71 97 72
f 72 98 73
f 72 97 98
f 73 99 100
f 73 100 101
f 73 101 96
f 73 98 99
f 74 76 102
f 74 102 75
f 75 102 103
f 75 103 97
f 76 104 105
f 76 105 102
f 77 106 126
f 77 126 104
f 79 93 92
f 79 92 107
f 79 107 80
f 81 99 83
f 81 82 100
f 81 100 99
f 83 98 108
f 83 108 84
f 83 99 98
f 84 108 129
f 84 129 109
f 84 109 85
f 85 109 110
f 86 110 131
f 86 131 111
f 86 111 87
f 87 111 112
f 87 112 88
f 88 113 89
f 88 112 113
f 89 113 114
f 90 115 116
f 90 116 92
f 90 92 91
f 94 117 118
f 94 118 119
f 94 119 120
f 94 120 95
f 95 120 121
f 95 121 122
f 95 122 115
f 97 108 98
f 97 103 123
f 97 123 108
f 102 105 103
f 103 105 124
f 103 124 125
f 103 125 123
f 104 126 127
f 104 127 105
f 105 127 124
f 106 128 126
f 108 123 129
f 109 129 130
f 109 130 131
f 109 131 110
f 111 131 132
f 111 132 133
f 111 133 112
f 112 133 113
f 113 133 134
f 113 134 114
f 114 134 135
f 114 135 136
f 115 137 116
f 115 122 137
f 116 137 138
f 116 138 139
f 116 139 140
f 116 140 141
f 116 141 142
f 117 143 144
f 117 144 118
f 118 144 145
f 118 145 146
f 118 146 119
f 119 146 147
f 119 147 120
f 120 147 148
f 120 148 121
f 121 148 149
f 121 149 122
f 122 150 137
f 122 149 178
f 122 178 150
f 123 125 151
f 123 151 129
f 124 127 152
f 124 152 125
f 125 152 153
f 125 153 151
f 126 128 154
f 126 154 155
f 126 155 127
f 127 155 179
f 127 179 152
f 128 156 154
f 129 151 130
f 130 151 153
f 130 153 157
f 130 157 158
f 130 158 131
f 131 158 132
f 132 158 159
f 132 159 160
f 132 160 161
f 132 161 133
f 133 161 134
f 134 161 135
f 135 161 162
f 135 162 163
f 135 163 164
f 135 164 136
f 137 150 138
f 138 150 139
f 139 150 140
f 140 150 165
f 140 165 141
f 141 165 166
f 141 166 167
f 141 167 142
f 143 168 144
f 144 169 145
f 144 168 170
f 144 170 171
f 144 171 172
f 144 172 169
f 145 169 146
f 146 169 173
f 146 173 147
f 147 173 174
f 147 174 148
f 148 174 175
f 148 175 176
f 148 176 149
f 149 176 177
f 149 177 178
f 150 178 166
f 150 166 165
f 152 179 153
f 153 179 180
f 153 180 181
f 153 181 157
f 154 156 184
f 154 184 182
f 154 182 155
f 155 182 183
f 155 183 179
f 157 181 159
f 157 159 158
f 159 181 185
f 159 185 186
f 159 186 160
f 160 186 162
f 160 162 161
f 162 186 187
f 162 187 163
f 163 187 188
f 163 188 189
f 163 189 164
f 166 178 190
f 166 190 191
f 166 191 192
f 166 192 167
f 169 172 193
f 169 193 173
f 170 194 195
f 170 195 171
f 171 195 196
f 171 196 172
f 172 196 197
f 172 197 193
f 173 193 198
f 173 198 175
f 173 175 174
f 175 199 176
f 175 198 200
f 175 200 201
f 175 201 199
f 176 199 202
f 176 202 177
f 177 202 203
f 177 203 178
f 178 203 190
f 179 183 204
f 179 204 205
f 179 205 180
f 180 205 206
f 180 206 181
f 181 206 185
f 182 184 207
f 182 207 208
f 182 208 183
f 183 208 209
f 183 209 210
f 183 210 204
f 185 206 211
f 185 211 212
f 185 212 186
f 186 212 187
f 187 212 213
f 187 213 188
f 188 213 214
f 188 214 215
f 188 215 189
f 190 203 191
f 191 216 192
f 191 203 216
f 193 197 217
f 193 217 198
f 194 218 219
f 194 219 195
f 195 219 220
f 195 220 196
f 196 220 221
f 196 221 197
f 197 221 222
f 197 222 217
f 198 217 200
f 199 201 223
f 199 223 202
f 200 217 222
f 200 222 224
f 200 224 225
f 200 225 201
f 201 225 223
f 202 223 203
f 203 223 226
f 203 226 227
f 203 227 228
f 203 228 216
f 204 210 229
f 204 229 205
f 205 229 230
f 205 230 206
f 206 230 211
f 207 231 208
f 208 231 232
f 208 232 233
f 208 233 234
f 208 234 235
f 208 235 209
f 209 235 210
f 210 235 236
f 210 236 229
f 211 230 237
f 211 237 238
f 211 238 212
f 212 238 213
f 213 238 239
f 213 239 214
f 214 239 240
f 214 240 241
f 214 241 215
f 218 241 240
f 218 240 219
f 219 240 242
f 219 242 220
f 220 242 243
f 220 243 221
f 221 243 244
f 221 244 222
f 222 244 245
f 222 245 224
f 223 225 246
f 223 246 249
f 223 249 226
f 224 245 247
f 224 247 225
f 225 247 248
f 225 248 246
f 226 249 250
f 226 250 227
f 229 236 251
f 229 251 230
f 230 251 237
f 232 252 233
f 233 252 253
f 233 253 234
f 234 253 254
f 234 254 235
f 235 254 255
f 235 255 236
f 236 255 256
f 236 256 251
f 237 251 257
f 237 257 258
f 237 258 238
f 238 258 239
f 239 258 242
f 239 242 240
f 242 258 243
f 243 258 257
f 243 257 244
f 244 257 256
f 244 256 245
f 245 256 255
f 245 255 247
f 246 248 259
f 246 259 249
f 247 255 254
f 247 254 248
f 248 254 253
f 248 253 259
f 249 259 250
f 250 259 260
f 251 256 257
f 252 261 253
f 253 261 259
f 259 261 262
f 259 262 260

