# https://github.com/mikedh/trimesh
v 0.03939544 -0.06694520 -0.02358285
v 0.04007264 -0.06689906 -0.02358285
v 0.03979469 -0.06689111 -0.02245705
v 0.03939544 -0.06692929 -0.02294058
v 0.03939544 -0.05898927 -0.02358285
v 0.04071143 -0.06685293 -0.02358285
v 0.03939544 -0.06691656 -0.02245705
v 0.03939544 -0.06692611 -0.02281848
v 0.04055072 -0.06682748 -0.02245705
v 0.03947327 -0.06686407 -0.02156570
v 0.03939544 -0.06687361 -0.02163896
v 0.04972015 -0.05891609 -0.02358285
v 0.03939544 -0.05069290 -0.00926253
v 0.04972015 -0.05069290 -0.00947255
v 0.04086607 -0.06683861 -0.02358285
v 0.04157359 -0.06673043 -0.02245705
v 0.04157359 -0.06661430 -0.02094541
v 0.04001099 -0.06676225 -0.02101379
v 0.03939544 -0.06686725 -0.02154372
v 0.04972015 -0.06531774 -0.02358285
v 0.03939544 -0.05069290 0.00136538
v 0.04972015 -0.05069290 -0.00042467
v 0.04308565 -0.06661430 -0.02358285
v 0.04308565 -0.06658248 -0.02245705
v 0.04308565 -0.06646158 -0.02094541
v 0.04157359 -0.06642021 -0.01943377
v 0.04006152 -0.06655544 -0.01943377
v 0.03939544 -0.06666839 -0.01993195
v 0.03939544 -0.06678293 -0.02082575
v 0.04957460 -0.06536069 -0.02358285
v 0.04972015 -0.06530024 -0.02254985
v 0.03939544 -0.05095062 0.00125548
v 0.04006152 -0.05083926 0.00125792
v 0.04006152 -0.05069290 0.00131898
v 0.04931181 -0.05069290 -0.00030744
v 0.04972015 -0.05090926 -0.00053211
v 0.04347277 -0.06656180 -0.02358285
v 0.04459570 -0.06637726 -0.02245705
v 0.04459570 -0.06625476 -0.02094541
v 0.04459570 -0.06605750 -0.01943377
v 0.04308565 -0.06626272 -0.01943377
v 0.04157359 -0.06612749 -0.01792212
v 0.04006152 -0.06626431 -0.01792212
v 0.03939544 -0.06643453 -0.01858637
v 0.03939544 -0.06659680 -0.01943377
v 0.04972015 -0.06529865 -0.02245705
v 0.04897827 -0.06551183 -0.02245705
v 0.04901162 -0.06551819 -0.02358285
v 0.03939544 -0.05165060 0.00093313
v 0.04155742 -0.05069290 0.00117978
v 0.04006152 -0.05159492 0.00090627
v 0.04157359 -0.05143901 0.00083545
v 0.04913190 -0.05074699 -0.00028303
v 0.04913190 -0.05150265 -0.00065910
v 0.04913190 -0.05069290 -0.00025860
v 0.04972015 -0.05129425 -0.00073725
v 0.04459570 -0.06640430 -0.02358285
v 0.04610777 -0.06614022 -0.02358285
v 0.04610777 -0.06610999 -0.02245705
v 0.04610777 -0.06598431 -0.02094541
v 0.04610777 -0.06578546 -0.01943377
v 0.04717208 -0.06539888 -0.01841542
v 0.04459570 -0.06576477 -0.01792212
v 0.04308565 -0.06596841 -0.01792212
v 0.04157359 -0.06574409 -0.01641048
v 0.04006152 -0.06588250 -0.01641048
v 0.03939544 -0.06592386 -0.01641048
v 0.03939544 -0.06630408 -0.01792212
v 0.04972015 -0.06529706 -0.02243508
v 0.04761984 -0.06582841 -0.02245705
v 0.04761984 -0.06585227 -0.02358285
v 0.04796753 -0.06577114 -0.02358285
v 0.04952003 -0.06523343 -0.02094541
v 0.04876399 -0.06544978 -0.02094541
v 0.03939544 -0.05243172 0.00050577
v 0.04006152 -0.05249058 0.00042274
v 0.04273796 -0.05069290 0.00102837
v 0.04157359 -0.05249058 0.00028109
v 0.04308565 -0.05249058 0.00008085
v 0.04308565 -0.05122743 0.00073288
v 0.04833746 -0.05171583 -0.00054921
v 0.04771788 -0.05069290 0.00008817
v 0.04774820 -0.05111925 -0.00011208
v 0.04913190 -0.05249058 -0.00122566
v 0.04972015 -0.05250490 -0.00141615
v 0.04649488 -0.06606704 -0.02358285
v 0.04761984 -0.06570114 -0.02094541
v 0.04765319 -0.06548637 -0.01941911
v 0.04817979 -0.06530024 -0.01890628
v 0.04853658 -0.06538456 -0.01991486
v 0.04765319 -0.06518888 -0.01791480
v 0.04657978 -0.06528274 -0.01740684
v 0.04608856 -0.06549592 -0.01791480
v 0.04557208 -0.06538297 -0.01701123
v 0.04459570 -0.06546410 -0.01672306
v 0.04313215 -0.06554205 -0.01629814
v 0.04366683 -0.06531933 -0.01571937
v 0.04265912 -0.06537660 -0.01554110
v 0.04157359 -0.06543547 -0.01535550
v 0.04006152 -0.06550546 -0.01514304
v 0.03939544 -0.06571387 -0.01570228
v 0.04972015 -0.06517456 -0.02094541
v 0.03939544 -0.05305852 0.00014434
v 0.04006152 -0.05368532 -0.00026593
v 0.04157359 -0.05357078 -0.00033675
v 0.04308565 -0.05069290 0.00098197
v 0.04308565 -0.05341169 -0.00043443
v 0.04453607 -0.05257648 -0.00020976
v 0.04460884 -0.05087903 0.00066206
v 0.04399128 -0.05329078 -0.00051258
v 0.04473720 -0.05069290 0.00073288
v 0.04368300 -0.05069290 0.00089405
v 0.04732975 -0.05194968 -0.00042222
v 0.04774820 -0.05246831 -0.00082517
v 0.04610777 -0.05069290 0.00046913
v 0.04610777 -0.05097925 0.00033726
v 0.04913190 -0.05353419 -0.00186060
v 0.04972015 -0.05340055 -0.00194852
v 0.04907631 -0.06514752 -0.01941911
v 0.04913190 -0.06483730 -0.01792212
v 0.04972015 -0.06495820 -0.01942400
v 0.04913190 -0.06443958 -0.01641048
v 0.04761984 -0.06479912 -0.01641048
v 0.04608856 -0.06512366 -0.01646909
v 0.04459570 -0.06524934 -0.01596602
v 0.04459570 -0.06490093 -0.01489883
v 0.04313215 -0.06513479 -0.01498187
v 0.04157359 -0.06518411 -0.01460090
v 0.04006152 -0.06525570 -0.01438844
v 0.03939544 -0.06538774 -0.01465707
v 0.03939544 -0.06552774 -0.01508199
v 0.03939544 -0.06527797 -0.01432495
v 0.03939544 -0.05372668 -0.00024151
v 0.03939544 -0.05405917 -0.00044908
v 0.04006152 -0.05444098 -0.00074458
v 0.04157359 -0.05432644 -0.00082272
v 0.04308565 -0.05416894 -0.00092285
v 0.04499797 -0.05313647 -0.00060293
v 0.04610777 -0.05219150 -0.00028547
v 0.04453607 -0.05387781 -0.00099123
v 0.04610777 -0.05294716 -0.00071039
v 0.04748743 -0.05403531 -0.00172141
v 0.04790385 -0.05456030 -0.00218784
v 0.04972015 -0.05367259 -0.00213412
v 0.04972015 -0.06466389 -0.01792212
v 0.04972015 -0.06450958 -0.01733602
v 0.04972015 -0.06427095 -0.01643002
v 0.04972015 -0.06409118 -0.01582927
v 0.04901769 -0.06399096 -0.01495012
v 0.04761984 -0.06430595 -0.01489883
v 0.04610777 -0.06462094 -0.01489883
v 0.04459570 -0.06432822 -0.01338719
v 0.04308565 -0.06453981 -0.01338719
v 0.04157359 -0.06471480 -0.01338719
v 0.04006152 -0.06485798 -0.01338719
v 0.03939544 -0.06505366 -0.01376571
v 0.03939544 -0.05448234 -0.00071771
v 0.04006759 -0.05564368 -0.00159198
v 0.04157359 -0.05540505 -0.00157977
v 0.04308565 -0.05527141 -0.00167989
v 0.04459570 -0.05509165 -0.00181176
v 0.04610777 -0.05400190 -0.00137707
v 0.04610777 -0.05488165 -0.00196073
v 0.04689615 -0.05477188 -0.00204132
v 0.04913190 -0.05531596 -0.00313292
v 0.04913190 -0.05429144 -0.00237832
v 0.04831017 -0.05624662 -0.00357982
v 0.04972015 -0.05413235 -0.00245891
v 0.04972015 -0.06392096 -0.01531155
v 0.04944624 -0.06370301 -0.01448124
v 0.04843853 -0.06384460 -0.01410028
v 0.04761984 -0.06393369 -0.01388782
v 0.04601680 -0.06405300 -0.01335789
v 0.04545180 -0.06384778 -0.01258619
v 0.04459570 -0.06392096 -0.01243723
v 0.04308565 -0.06402596 -0.01221988
v 0.04157359 -0.06411345 -0.01204161
v 0.03939544 -0.06489934 -0.01338719
v 0.04001301 -0.06412141 -0.01175344
v 0.03939544 -0.06418504 -0.01180473
v 0.03939544 -0.05558641 -0.00149673
v 0.03956828 -0.05630707 -0.00202178
v 0.04057599 -0.05623389 -0.00207795
v 0.04157359 -0.05616071 -0.00213656
v 0.04308565 -0.05602867 -0.00223668
v 0.04459570 -0.05584731 -0.00237344
v 0.04610777 -0.05563731 -0.00253950
v 0.04730145 -0.05641525 -0.00343818
v 0.04972015 -0.05518869 -0.00323061
v 0.04773101 -0.05696092 -0.00404870
v 0.04847492 -0.05782157 -0.00503530
v 0.04903992 -0.05707705 -0.00457619
v 0.04913190 -0.05607321 -0.00372635
v 0.04972015 -0.05565004 -0.00359203
v 0.04972015 -0.06365688 -0.01459358
v 0.04972015 -0.06350893 -0.01422727
v 0.04972015 -0.06316371 -0.01340917
v 0.04901769 -0.06342938 -0.01351174
v 0.04761984 -0.06361392 -0.01313077
v 0.04645950 -0.06373960 -0.01283528
v 0.04761984 -0.06301576 -0.01187555
v 0.04601680 -0.06342938 -0.01200009
v 0.04459570 -0.06354393 -0.01168262
v 0.04308565 -0.06365369 -0.01146528
v 0.04157359 -0.06374278 -0.01128457
v 0.04048502 -0.06380164 -0.01116979
v 0.03947731 -0.06383982 -0.01109653
v 0.03939544 -0.06387801 -0.01116246
v 0.03939544 -0.05631502 -0.00201445
v 0.03939544 -0.05644388 -0.00212190
v 0.04006152 -0.05791544 -0.00344063
v 0.04006759 -0.05689728 -0.00257369
v 0.04167668 -0.05717091 -0.00299373
v 0.04308565 -0.05694819 -0.00299128
v 0.04459570 -0.05678910 -0.00313048
v 0.04610777 -0.05658706 -0.00329410
v 0.04610777 -0.05734431 -0.00396079
v 0.04761984 -0.05794407 -0.00491320
v 0.04948263 -0.05761476 -0.00523799
v 0.04972015 -0.05741113 -0.00514031
v 0.04972015 -0.05688296 -0.00465434
v 0.04761984 -0.05870132 -0.00570443
v 0.04840417 -0.05930267 -0.00657381
v 0.04894390 -0.05846588 -0.00590468
v 0.04972015 -0.05830520 -0.00605609
v 0.04972015 -0.05594594 -0.00383380
v 0.04972015 -0.06292826 -0.01288412
v 0.04972015 -0.06255122 -0.01207824
v 0.04908338 -0.06262599 -0.01183648
v 0.04854769 -0.06236509 -0.01103303
v 0.04761984 -0.06247327 -0.01084744
v 0.04610777 -0.06264031 -0.01056171
v 0.04467757 -0.06273576 -0.01023447
v 0.04308565 -0.06304916 -0.01036390
v 0.04157359 -0.06323371 -0.01036390
v 0.04001301 -0.06346597 -0.01050066
v 0.03939544 -0.06384301 -0.01109164
v 0.03939544 -0.05794566 -0.00341132
v 0.03939544 -0.05827815 -0.00373367
v 0.04006152 -0.05867110 -0.00417569
v 0.04124106 -0.05783907 -0.00350900
v 0.04224876 -0.05777067 -0.00357250
v 0.04308565 -0.05770544 -0.00363111
v 0.04459570 -0.05754476 -0.00377519
v 0.04610777 -0.05814611 -0.00471539
v 0.04610777 -0.05890018 -0.00549441
v 0.04972015 -0.05756544 -0.00528683
v 0.04761984 -0.05939971 -0.00646147
v 0.04610777 -0.06034151 -0.00716967
v 0.04753493 -0.06023015 -0.00747249
v 0.04798269 -0.06071059 -0.00822709
v 0.04899747 -0.05968766 -0.00731620
v 0.04972015 -0.05960653 -0.00754331
v 0.04941289 -0.05911018 -0.00679603
v 0.04972015 -0.05886041 -0.00665439
v 0.04972015 -0.06219646 -0.01137981
v 0.04955540 -0.06221396 -0.01130899
v 0.04908338 -0.06185760 -0.01046403
v 0.04761984 -0.06202465 -0.01009039
v 0.04610777 -0.06219646 -0.00980467
v 0.04523651 -0.06229350 -0.00964349
v 0.04422880 -0.06238577 -0.00949697
v 0.04308565 -0.06246850 -0.00936754
v 0.04157359 -0.06256236 -0.00921857
v 0.04006152 -0.06264031 -0.00909403
v 0.03939544 -0.06299667 -0.00962151
v 0.03939544 -0.06345802 -0.01041275
v 0.03939544 -0.05870132 -0.00414639
v 0.04006152 -0.05942676 -0.00493029
v 0.04129968 -0.05935517 -0.00500844
v 0.04177372 -0.05856451 -0.00429047
v 0.04230739 -0.05928835 -0.00507681
v 0.04308565 -0.05848019 -0.00438815
v 0.04459570 -0.05833542 -0.00453223
v 0.04459570 -0.05908950 -0.00528927
v 0.04610777 -0.05958585 -0.00624901
v 0.04459570 -0.06051809 -0.00694744
v 0.04610777 -0.06093331 -0.00792427
v 0.04697498 -0.06082990 -0.00806103
v 0.04913190 -0.06053400 -0.00847130
v 0.04610777 -0.06157125 -0.00885226
v 0.04753493 -0.06119103 -0.00878144
v 0.04913190 -0.06106217 -0.00922834
v 0.04972015 -0.06013310 -0.00822221
v 0.04972015 -0.05904972 -0.00686685
v 0.04972015 -0.06206601 -0.01115514
v 0.04972015 -0.06160307 -0.01039809
v 0.04972015 -0.06127853 -0.00986816
v 0.04972015 -0.06096513 -0.00936998
v 0.04467757 -0.06193238 -0.00893773
v 0.04308565 -0.06197533 -0.00861050
v 0.04157359 -0.06207237 -0.00846397
v 0.04006152 -0.06215510 -0.00833943
v 0.03939544 -0.06217896 -0.00830279
v 0.03939544 -0.06239214 -0.00863492
v 0.03939544 -0.06266258 -0.00905740
v 0.03939544 -0.05945380 -0.00490099
v 0.03939544 -0.05978789 -0.00527707
v 0.03979165 -0.06084899 -0.00652985
v 0.04020202 -0.06030492 -0.00594863
v 0.04079936 -0.06080127 -0.00658846
v 0.04171105 -0.05989288 -0.00568001
v 0.04308565 -0.05923585 -0.00513543
v 0.04308565 -0.05989447 -0.00589003
v 0.04459570 -0.05976243 -0.00604632
v 0.04308565 -0.06065014 -0.00678138
v 0.04459570 -0.06109717 -0.00770204
v 0.04972015 -0.06044810 -0.00864713
v 0.04308565 -0.06121967 -0.00753598
v 0.04157359 -0.06131671 -0.00740900
v 0.04020202 -0.06130717 -0.00719165
v 0.03939544 -0.06142330 -0.00726491
v 0.03939544 -0.06027628 -0.00583630
v 0.03939544 -0.06086331 -0.00651275
v 0.03939544 -0.06107013 -0.00678871
v 0.04157359 -0.06075036 -0.00665195
f 1 2 3
f 1 3 4
f 1 4 8
f 1 8 7
f 1 7 11
f 1 11 19
f 1 19 29
f 1 29 28
f 1 28 45
f 1 45 44
f 1 44 68
f 1 68 67
f 1 67 101
f 1 101 131
f 1 131 130
f 1 130 132
f 1 132 156
f 1 156 178
f 1 178 180
f 1 180 208
f 1 208 237
f 1 237 267
f 1 267 266
f 1 266 296
f 1 296 295
f 1 295 294
f 1 294 312
f 1 312 315
f 1 315 314
f 1 314 313
f 1 313 298
f 1 298 297
f 1 297 268
f 1 268 239
f 1 239 238
f 1 238 210
f 1 210 209
f 1 209 181
f 1 181 157
f 1 157 134
f 1 134 133
f 1 133 103
f 1 103 75
f 1 75 49
f 1 49 32
f 1 32 21
f 1 21 13
f 1 13 5
f 1 5 12
f 1 12 20
f 1 20 30
f 1 30 48
f 1 48 72
f 1 72 71
f 1 71 86
f 1 86 58
f 1 58 57
f 1 57 37
f 1 37 23
f 1 23 15
f 1 15 6
f 1 6 2
f 2 6 3
f 3 7 8
f 3 8 4
f 3 6 9
f 3 9 10
f 3 10 11
f 3 11 7
f 5 13 14
f 5 14 12
f 6 15 9
f 9 15 16
f 9 16 10
f 10 17 18
f 10 18 19
f 10 19 11
f 10 16 17
f 12 14 22
f 12 22 36
f 12 36 56
f 12 56 85
f 12 85 118
f 12 118 144
f 12 144 168
f 12 168 189
f 12 189 194
f 12 194 226
f 12 226 221
f 12 221 220
f 12 220 247
f 12 247 225
f 12 225 255
f 12 255 285
f 12 285 253
f 12 253 284
f 12 284 308
f 12 308 289
f 12 289 288
f 12 288 287
f 12 287 286
f 12 286 256
f 12 256 228
f 12 228 227
f 12 227 197
f 12 197 196
f 12 196 195
f 12 195 169
f 12 169 148
f 12 148 147
f 12 147 146
f 12 146 145
f 12 145 121
f 12 121 102
f 12 102 69
f 12 69 46
f 12 46 31
f 12 31 20
f 13 21 34
f 13 34 50
f 13 50 77
f 13 77 106
f 13 106 112
f 13 112 111
f 13 111 115
f 13 115 82
f 13 82 55
f 13 55 35
f 13 35 22
f 13 22 14
f 15 23 24
f 15 24 16
f 16 24 17
f 17 24 25
f 17 25 26
f 17 26 27
f 17 27 18
f 18 27 28
f 18 28 29
f 18 29 19
f 20 31 30
f 21 32 33
f 21 33 34
f 22 35 36
f 23 37 24
f 24 37 38
f 24 38 25
f 25 39 40
f 25 40 41
f 25 41 26
f 25 38 39
f 26 41 42
f 26 42 43
f 26 43 27
f 27 43 44
f 27 44 45
f 27 45 28
f 30 31 46
f 30 46 47
f 30 47 48
f 32 49 33
f 33 50 34
f 33 49 51
f 33 51 52
f 33 52 50
f 35 53 54
f 35 54 36
f 35 55 53
f 36 54 56
f 37 57 38
f 38 57 58
f 38 58 59
f 38 59 39
f 39 60 40
f 39 59 60
f 40 60 61
f 40 61 62
f 40 62 63
f 40 63 41
f 41 63 64
f 41 64 42
f 42 64 65
f 42 65 66
f 42 66 43
f 43 66 67
f 43 67 68
f 43 68 44
f 46 69 47
f 47 70 71
f 47 71 72
f 47 72 48
f 47 69 73
f 47 73 74
f 47 74 70
f 49 75 76
f 49 76 51
f 50 52 77
f 51 76 78
f 51 78 52
f 52 78 79
f 52 79 80
f 52 80 77
f 53 81 54
f 53 55 82
f 53 82 83
f 53 83 81
f 54 81 84
f 54 84 85
f 54 85 56
f 58 86 70
f 58 70 59
f 59 70 60
f 60 87 61
f 60 70 87
f 61 88 89
f 61 89 62
f 61 87 90
f 61 90 88
f 62 89 91
f 62 91 92
f 62 92 93
f 62 93 63
f 63 93 94
f 63 94 95
f 63 95 64
f 64 95 96
f 64 96 65
f 65 96 97
f 65 97 98
f 65 98 99
f 65 99 66
f 66 99 100
f 66 100 101
f 66 101 67
f 69 102 73
f 70 86 71
f 70 74 87
f 73 102 90
f 73 90 74
f 74 90 87
f 75 103 104
f 75 104 76
f 76 104 105
f 76 105 78
f 77 80 106
f 78 105 107
f 78 107 79
f 79 108 109
f 79 109 80
f 79 107 110
f 79 110 108
f 80 109 111
f 80 111 112
f 80 112 106
f 81 83 113
f 81 113 114
f 81 114 84
f 82 115 83
f 83 115 116
f 83 116 113
f 84 114 117
f 84 117 118
f 84 118 85
f 88 90 89
f 89 90 119
f 89 119 120
f 89 120 91
f 90 121 119
f 90 102 121
f 91 120 122
f 91 122 123
f 91 123 92
f 92 123 94
f 92 94 93
f 94 123 124
f 94 124 125
f 94 125 95
f 95 125 97
f 95 97 96
f 97 125 126
f 97 126 127
f 97 127 98
f 98 127 128
f 98 128 99
f 99 128 129
f 99 129 100
f 100 130 131
f 100 131 101
f 100 129 132
f 100 132 130
f 103 133 104
f 104 134 135
f 104 135 105
f 104 133 134
f 105 135 136
f 105 136 107
f 107 136 137
f 107 137 110
f 108 110 138
f 108 138 139
f 108 139 109
f 109 139 116
f 109 116 111
f 110 137 140
f 110 140 138
f 111 116 115
f 113 139 141
f 113 141 114
f 113 116 139
f 114 142 117
f 114 141 142
f 117 143 144
f 117 144 118
f 117 142 143
f 119 121 145
f 119 145 120
f 120 145 122
f 122 145 146
f 122 146 147
f 122 147 148
f 122 148 149
f 122 149 123
f 123 149 150
f 123 150 151
f 123 151 124
f 124 151 125
f 125 151 126
f 126 151 152
f 126 152 153
f 126 153 127
f 127 153 128
f 128 153 154
f 128 154 129
f 129 154 155
f 129 155 132
f 132 155 156
f 134 157 135
f 135 158 159
f 135 159 136
f 135 157 158
f 136 159 160
f 136 160 137
f 137 160 161
f 137 161 140
f 138 141 139
f 138 140 162
f 138 162 141
f 140 161 163
f 140 163 162
f 141 162 164
f 141 164 142
f 142 164 143
f 143 165 166
f 143 166 144
f 143 164 167
f 143 167 165
f 144 166 168
f 148 169 149
f 149 169 170
f 149 170 171
f 149 171 150
f 150 171 151
f 151 171 172
f 151 172 173
f 151 173 152
f 152 173 174
f 152 174 175
f 152 175 153
f 153 175 176
f 153 176 154
f 154 176 177
f 154 177 155
f 155 178 156
f 155 177 179
f 155 179 180
f 155 180 178
f 157 181 158
f 158 181 182
f 158 182 159
f 159 182 183
f 159 183 184
f 159 184 185
f 159 185 160
f 160 185 161
f 161 185 186
f 161 186 163
f 162 163 164
f 163 186 164
f 164 186 187
f 164 187 188
f 164 188 167
f 165 189 166
f 165 167 189
f 166 189 168
f 167 190 191
f 167 191 192
f 167 192 193
f 167 193 194
f 167 194 189
f 167 188 190
f 169 195 170
f 170 195 196
f 170 196 197
f 170 197 198
f 170 198 171
f 171 198 199
f 171 199 172
f 172 199 200
f 172 200 173
f 173 200 174
f 174 200 201
f 174 201 202
f 174 202 203
f 174 203 175
f 175 203 204
f 175 204 176
f 176 204 205
f 176 205 177
f 177 205 206
f 177 206 179
f 179 206 207
f 179 207 208
f 179 208 180
f 181 209 182
f 182 209 210
f 182 210 211
f 182 211 212
f 182 212 183
f 183 212 213
f 183 213 184
f 184 213 214
f 184 214 185
f 185 214 215
f 185 215 186
f 186 215 216
f 186 216 187
f 187 216 188
f 188 216 217
f 188 217 190
f 190 217 218
f 190 218 191
f 191 219 220
f 191 220 221
f 191 221 192
f 191 218 222
f 191 222 223
f 191 223 224
f 191 224 225
f 191 225 219
f 192 221 193
f 193 226 194
f 193 221 226
f 197 227 198
f 198 227 228
f 198 228 229
f 198 229 199
f 199 229 201
f 199 201 200
f 201 229 230
f 201 230 231
f 201 231 202
f 202 231 232
f 202 232 203
f 203 232 233
f 203 233 234
f 203 234 204
f 204 234 205
f 205 234 235
f 205 235 206
f 206 235 236
f 206 236 207
f 207 237 208
f 207 236 237
f 210 238 211
f 211 238 239
f 211 239 240
f 211 240 241
f 211 241 212
f 212 241 213
f 213 241 242
f 213 242 214
f 214 242 243
f 214 243 215
f 215 243 244
f 215 244 216
f 216 244 217
f 217 244 245
f 217 245 218
f 218 245 246
f 218 246 222
f 219 247 220
f 219 225 247
f 222 246 223
f 223 225 224
f 223 246 248
f 223 248 249
f 223 249 250
f 223 250 251
f 223 251 252
f 223 252 253
f 223 253 254
f 223 254 255
f 223 255 225
f 228 256 257
f 228 257 229
f 229 257 230
f 230 257 258
f 230 258 259
f 230 259 231
f 231 259 260
f 231 260 232
f 232 260 261
f 232 261 233
f 233 261 262
f 233 262 234
f 234 262 263
f 234 263 235
f 235 263 264
f 235 264 265
f 235 265 236
f 236 266 267
f 236 267 237
f 236 265 266
f 239 268 240
f 240 268 269
f 240 269 270
f 240 270 271
f 240 271 241
f 241 271 242
f 242 271 272
f 242 272 273
f 242 273 243
f 243 273 274
f 243 274 244
f 244 274 245
f 245 275 246
f 245 274 275
f 246 275 276
f 246 276 248
f 248 276 249
f 249 276 277
f 249 277 278
f 249 278 279
f 249 279 250
f 250 279 251
f 251 280 252
f 251 279 281
f 251 281 282
f 251 282 259
f 251 259 283
f 251 283 280
f 252 280 284
f 252 284 253
f 253 285 254
f 254 285 255
f 256 286 257
f 257 286 258
f 258 286 287
f 258 287 288
f 258 288 289
f 258 289 283
f 258 283 259
f 259 282 260
f 260 282 281
f 260 281 261
f 261 281 290
f 261 290 262
f 262 290 291
f 262 291 263
f 263 291 292
f 263 292 264
f 264 292 293
f 264 293 265
f 265 293 294
f 265 294 295
f 265 295 296
f 265 296 266
f 268 297 269
f 269 297 298
f 269 298 299
f 269 299 300
f 269 300 301
f 269 301 270
f 270 272 271
f 270 301 302
f 270 302 272
f 272 303 273
f 272 302 304
f 272 304 303
f 273 303 274
f 274 303 275
f 275 303 305
f 275 305 276
f 276 305 277
f 277 305 306
f 277 306 307
f 277 307 278
f 278 307 290
f 278 290 281
f 278 281 279
f 280 308 284
f 280 283 289
f 280 289 308
f 290 307 291
f 291 307 309
f 291 309 292
f 292 309 310
f 292 310 293
f 293 310 311
f 293 311 312
f 293 312 294
f 298 313 299
f 299 313 314
f 299 314 315
f 299 315 312
f 299 312 311
f 299 311 301
f 299 301 300
f 301 311 310
f 301 310 309
f 301 309 316
f 301 316 304
f 301 304 302
f 303 304 305
f 304 316 306
f 304 306 305
f 306 316 309
f 306 309 307

