# https://github.com/mikedh/trimesh
v 0.01269869 -0.04393069 -0.02358285
v 0.02555333 -0.05270862 -0.02358285
v 0.02555333 -0.05232370 -0.03616103
v 0.01124827 -0.04393069 -0.03616103
v -0.01270915 -0.04393069 -0.02358285
v 0.02555333 -0.06718742 -0.02358285
v 0.02555333 -0.06433812 -0.03616103
v -0.01124167 -0.04393069 -0.03616103
v -0.03255422 -0.05467876 -0.03616103
v -0.03255422 -0.05652818 -0.02358285
v 0.02555333 -0.06719425 -0.02381432
v -0.02796409 -0.06718742 -0.02358285
v 0.02555333 -0.06438823 -0.03606253
v -0.02812335 -0.06433812 -0.03616103
v -0.03255422 -0.06431535 -0.03616103
v -0.03255422 -0.06716692 -0.02358285
v 0.02555333 -0.06719653 -0.02397069
v -0.02796409 -0.06719653 -0.02397069
v -0.02947707 -0.06718514 -0.02358285
v 0.02555333 -0.06465471 -0.03547770
v -0.02645110 -0.06438823 -0.03606253
v -0.02947707 -0.06438368 -0.03606253
v -0.02947707 -0.06433585 -0.03616103
v -0.03255422 -0.06434951 -0.03609331
v -0.03099005 -0.06432901 -0.03616103
v -0.03255422 -0.06717603 -0.02397069
v -0.03249734 -0.06717831 -0.02397069
v -0.03211056 -0.06717148 -0.02358285
v 0.02555333 -0.06716237 -0.02548263
v -0.02947707 -0.06719425 -0.02397069
v -0.02796409 -0.06716237 -0.02548263
v -0.03060327 -0.06718059 -0.02358285
v -0.03099005 -0.06718970 -0.02397069
v 0.02555333 -0.06504874 -0.03461215
v -0.02645110 -0.06504874 -0.03461215
v -0.02796409 -0.06504874 -0.03461092
v -0.02947707 -0.06504646 -0.03460846
v -0.03099005 -0.06504418 -0.03460107
v -0.03099005 -0.06437684 -0.03606253
v -0.03255422 -0.06504191 -0.03457891
v -0.03249734 -0.06436545 -0.03606253
v -0.03255422 -0.06717603 -0.02402240
v -0.03255422 -0.06714187 -0.02548263
v -0.03099005 -0.06717831 -0.02358285
v 0.02555333 -0.06708948 -0.02638388
v -0.02947707 -0.06716009 -0.02548263
v -0.02796409 -0.06703710 -0.02699334
v -0.02494381 -0.06703937 -0.02699334
v -0.03099005 -0.06715326 -0.02548263
v 0.02555333 -0.06517629 -0.03430681
v -0.02645110 -0.06536305 -0.03385618
v -0.02796409 -0.06536305 -0.03385495
v -0.02947707 -0.06536077 -0.03385249
v -0.03099005 -0.06535850 -0.03384510
v -0.03249734 -0.06503963 -0.03458507
v -0.03255422 -0.06535166 -0.03382786
v -0.03249734 -0.06535166 -0.03382909
v -0.03255422 -0.06701660 -0.02699334
v -0.03099005 -0.06703026 -0.02699334
v 0.02555333 -0.06703937 -0.02699334
v -0.02947707 -0.06703482 -0.02699334
v -0.02796409 -0.06690044 -0.02803988
v -0.02645110 -0.06690044 -0.02804234
v 0.02555333 -0.06536305 -0.03385618
v -0.02796409 -0.06566142 -0.03303988
v 0.02555333 -0.06548376 -0.03352744
v -0.02947707 -0.06565914 -0.03303988
v -0.03099005 -0.06565458 -0.03303988
v -0.03255422 -0.06563864 -0.03304480
v -0.03255422 -0.06688905 -0.02797586
v -0.03099005 -0.06689589 -0.02801526
v 0.02555333 -0.06690044 -0.02804234
v -0.02947707 -0.06689816 -0.02803126
v -0.02796409 -0.06676834 -0.02879585
v -0.02645110 -0.06676834 -0.02879831
v 0.02555333 -0.06682300 -0.02849420
v -0.02796409 -0.06614883 -0.03152794
v 0.02555333 -0.06566142 -0.03303988
v -0.02947707 -0.06614655 -0.03152794
v -0.03099005 -0.06614199 -0.03152794
v -0.03255422 -0.06612833 -0.03152794
v -0.03249734 -0.06564092 -0.03303988
v -0.03255422 -0.06675923 -0.02873183
v -0.03099005 -0.06676379 -0.02877123
v -0.03249734 -0.06675923 -0.02873429
v -0.02947707 -0.06676606 -0.02878723
v -0.02645110 -0.06652464 -0.03001599
v -0.02947707 -0.06652008 -0.03001599
v 0.02555333 -0.06676834 -0.02879831
v 0.02555333 -0.06614883 -0.03152794
v -0.03099005 -0.06651552 -0.03001599
v -0.03255422 -0.06650414 -0.03001599
v -0.03255422 -0.06675012 -0.02877861
v 0.02555333 -0.06652464 -0.03001599
f 1 2 3
f 1 3 4
f 1 4 8
f 1 8 5
f 1 5 10
f 1 10 16
f 1 16 28
f 1 28 44
f 1 44 32
f 1 32 19
f 1 19 12
f 1 12 6
f 1 6 2
f 2 6 11
f 2 11 17
f 2 17 29
f 2 29 45
f 2 45 60
f 2 60 72
f 2 72 76
f 2 76 89
f 2 89 94
f 2 94 90
f 2 90 78
f 2 78 66
f 2 66 64
f 2 64 50
f 2 50 34
f 2 34 20
f 2 20 13
f 2 13 7
f 2 7 3
f 3 7 14
f 3 14 23
f 3 23 25
f 3 25 15
f 3 15 9
f 3 9 8
f 3 8 4
f 5 8 9
f 5 9 10
f 6 12 11
f 7 13 21
f 7 21 14
f 9 15 24
f 9 24 40
f 9 40 56
f 9 56 69
f 9 69 81
f 9 81 92
f 9 92 93
f 9 93 83
f 9 83 70
f 9 70 58
f 9 58 43
f 9 43 42
f 9 42 26
f 9 26 16
f 9 16 10
f 11 12 18
f 11 18 17
f 12 19 30
f 12 30 18
f 13 20 21
f 14 21 22
f 14 22 23
f 15 25 24
f 16 26 27
f 16 27 28
f 17 18 31
f 17 31 29
f 18 30 46
f 18 46 31
f 19 32 33
f 19 33 30
f 20 34 35
f 20 35 21
f 21 35 36
f 21 36 22
f 22 37 38
f 22 38 39
f 22 39 25
f 22 25 23
f 22 36 37
f 24 25 41
f 24 41 40
f 25 39 41
f 26 42 27
f 27 33 28
f 27 42 43
f 27 43 33
f 28 33 44
f 29 31 45
f 30 33 46
f 31 46 61
f 31 61 47
f 31 47 48
f 31 48 45
f 32 44 33
f 33 49 46
f 33 43 49
f 34 50 35
f 35 51 52
f 35 52 36
f 35 50 51
f 36 52 53
f 36 53 37
f 37 53 54
f 37 54 38
f 38 54 40
f 38 40 55
f 38 55 41
f 38 41 39
f 40 41 55
f 40 54 57
f 40 57 56
f 43 58 59
f 43 59 49
f 45 48 60
f 46 49 59
f 46 59 61
f 47 62 48
f 47 61 62
f 48 62 63
f 48 63 72
f 48 72 60
f 50 64 51
f 51 65 52
f 51 64 66
f 51 66 65
f 52 65 67
f 52 67 53
f 53 67 68
f 53 68 54
f 54 68 56
f 54 56 57
f 56 68 69
f 58 70 59
f 59 71 61
f 59 70 71
f 61 71 73
f 61 73 62
f 62 74 75
f 62 75 63
f 62 73 86
f 62 86 74
f 63 75 76
f 63 76 72
f 65 77 79
f 65 79 67
f 65 66 78
f 65 78 90
f 65 90 77
f 67 79 80
f 67 80 68
f 68 80 81
f 68 81 82
f 68 82 69
f 69 82 81
f 70 83 71
f 71 84 86
f 71 86 73
f 71 83 85
f 71 85 84
f 74 87 75
f 74 86 88
f 74 88 87
f 75 87 94
f 75 94 89
f 75 89 76
f 77 87 88
f 77 88 79
f 77 90 94
f 77 94 87
f 79 88 91
f 79 91 80
f 80 91 92
f 80 92 81
f 83 93 85
f 84 91 86
f 84 85 93
f 84 93 92
f 84 92 91
f 86 91 88

