# https://github.com/mikedh/trimesh
v -0.01072550 -0.03968550 0.00394454
v -0.01072550 -0.04039629 0.00395040
v -0.01072550 -0.03968550 -0.01100151
v -0.02725576 -0.03968550 0.00394454
v -0.02645871 -0.04039629 0.00395186
v -0.01072550 -0.04190850 0.00388160
v -0.01072550 -0.06405268 -0.01100151
v -0.01944963 -0.03968550 -0.01100151
v -0.02947634 -0.03968550 0.00394308
v -0.02947634 -0.04039629 0.00395040
v -0.02645871 -0.04190850 0.00388160
v -0.01072550 -0.04280534 0.00379524
v -0.01072550 -0.06397397 -0.01084343
v -0.02494525 -0.06405268 -0.01100151
v -0.04240282 -0.05340993 -0.01100151
v -0.04240282 -0.03968550 -0.00500611
v -0.03098981 -0.03968550 0.00393869
v -0.03098981 -0.04039629 0.00394747
v -0.02947634 -0.04190850 0.00387868
v -0.02645871 -0.04342072 0.00373523
v -0.01072550 -0.04342072 0.00373523
v -0.01072550 -0.06355894 -0.01008815
v -0.02645871 -0.06397397 -0.01084343
v -0.02796598 -0.06397397 -0.01084490
v -0.02819548 -0.06405029 -0.01100151
v -0.04240282 -0.06348023 -0.01100151
v -0.04240282 -0.03968550 0.00343810
v -0.03178996 -0.03968550 0.00393283
v -0.03250017 -0.04039629 0.00393576
v -0.03098981 -0.04190850 0.00387282
v -0.02947634 -0.04342072 0.00373230
v -0.02645871 -0.04493293 0.00348640
v -0.02947634 -0.04493293 0.00348494
v -0.01072550 -0.04493293 0.00348640
v -0.01072550 -0.06325602 -0.00958463
v -0.02796598 -0.06355894 -0.01008815
v -0.02947634 -0.06397158 -0.01084782
v -0.02970274 -0.06404791 -0.01100151
v -0.04240282 -0.06346354 -0.01097078
v -0.04209269 -0.06352078 -0.01100151
v -0.04240282 -0.04039629 0.00344249
v -0.04157166 -0.03968550 0.00352592
v -0.03250017 -0.03968550 0.00392551
v -0.03330342 -0.03968550 0.00391527
v -0.03401364 -0.04039629 0.00391380
v -0.03401364 -0.04190850 0.00384208
v -0.03250017 -0.04190850 0.00385965
v -0.03098981 -0.04342072 0.00372645
v -0.02645871 -0.04644515 0.00313657
v -0.03098981 -0.04493293 0.00347908
v -0.02947634 -0.04644515 0.00313218
v -0.02796598 -0.04644515 0.00313510
v -0.01072550 -0.04644515 0.00313657
v -0.01072550 -0.06281237 -0.00885131
v -0.02796598 -0.06281237 -0.00885131
v -0.02947634 -0.06280999 -0.00885131
v -0.02947634 -0.06355656 -0.01009108
v -0.03098981 -0.06396920 -0.01085368
v -0.03120690 -0.06404075 -0.01100151
v -0.04240282 -0.06313199 -0.01036333
v -0.04157166 -0.06358518 -0.01100151
v -0.04240282 -0.04190850 0.00336052
v -0.04157166 -0.04190850 0.00345273
v -0.04157166 -0.04039629 0.00353031
v -0.04006129 -0.04039629 0.00365765
v -0.04006129 -0.03968550 0.00365180
v -0.03401364 -0.03968550 0.00390356
v -0.03481379 -0.03968550 0.00388599
v -0.03552400 -0.04039629 0.00388014
v -0.03552400 -0.04190850 0.00381134
v -0.03401364 -0.04342072 0.00368839
v -0.03250017 -0.04342072 0.00371181
v -0.03250017 -0.04493293 0.00346737
v -0.02796598 -0.04794305 0.00271355
v -0.01072550 -0.04733244 0.00288627
v -0.03098981 -0.04644515 0.00312632
v -0.02947634 -0.04793828 0.00271209
v -0.01072550 -0.06232579 -0.00808139
v -0.02796598 -0.06232579 -0.00808139
v -0.02947634 -0.06232341 -0.00808285
v -0.03098981 -0.06232103 -0.00808724
v -0.03098981 -0.06280284 -0.00885131
v -0.03098981 -0.06355417 -0.01009693
v -0.03250017 -0.06396443 -0.01086392
v -0.03250017 -0.06403121 -0.01100151
v -0.04240282 -0.06250946 -0.00929774
v -0.04157166 -0.06323455 -0.01036333
v -0.04036213 -0.06371637 -0.01100151
v -0.04240282 -0.04342072 0.00319658
v -0.04157166 -0.04342072 0.00329026
v -0.04006129 -0.04190850 0.00358593
v -0.03854783 -0.04190850 0.00368693
v -0.03854783 -0.04039629 0.00375280
v -0.03934798 -0.03968550 0.00369717
v -0.03552400 -0.03968550 0.00386843
v -0.03632725 -0.03968550 0.00384208
v -0.03703747 -0.03968550 0.00381866
v -0.03703747 -0.04039629 0.00382891
v -0.03703747 -0.04190850 0.00376304
v -0.03552400 -0.04342072 0.00364887
v -0.03552400 -0.04493293 0.00340882
v -0.03401364 -0.04493293 0.00344395
v -0.03401364 -0.04644515 0.00309412
v -0.03250017 -0.04644515 0.00311461
v -0.02796598 -0.04869916 0.00248082
v -0.01072550 -0.04839147 0.00257596
v -0.01072550 -0.04794305 0.00271355
v -0.03098981 -0.04792636 0.00270770
v -0.02947634 -0.04869439 0.00247936
v -0.01072550 -0.06209920 -0.00777255
v -0.02796598 -0.06176766 -0.00732465
v -0.02947634 -0.06176527 -0.00732757
v -0.03098981 -0.06176289 -0.00733196
v -0.03195123 -0.06231864 -0.00809164
v -0.03247536 -0.06269789 -0.00870347
v -0.03250017 -0.06354702 -0.01010864
v -0.03401364 -0.06353509 -0.01012914
v -0.03401364 -0.06395250 -0.01088588
v -0.03419041 -0.06400497 -0.01100151
v -0.04240282 -0.06229002 -0.00895816
v -0.04157166 -0.06256193 -0.00921724
v -0.04157166 -0.06207297 -0.00846049
v -0.04001167 -0.06346592 -0.01049946
v -0.04006129 -0.06263826 -0.00909282
v -0.03955887 -0.06378077 -0.01100151
v -0.04240282 -0.04493293 0.00293604
v -0.04157166 -0.04493293 0.00302825
v -0.04006129 -0.04493293 0.00316584
v -0.04006129 -0.04342072 0.00342200
v -0.03854783 -0.04342072 0.00352299
v -0.03854783 -0.03968550 0.00374694
v -0.03703747 -0.04342072 0.00359471
v -0.03703747 -0.04493293 0.00335320
v -0.03703747 -0.04644515 0.00300776
v -0.03552400 -0.04644515 0.00306045
v -0.03401364 -0.04786196 0.00268867
v -0.03250017 -0.04790251 0.00270184
v -0.02947634 -0.04946719 0.00217051
v -0.02796598 -0.04946719 0.00217344
v -0.01072550 -0.04915473 0.00229932
v -0.01072550 -0.04869916 0.00248082
v -0.03098981 -0.04868008 0.00247497
v -0.03098981 -0.04946719 0.00216466
v -0.01072550 -0.06176766 -0.00732465
v -0.01072550 -0.06145997 -0.00691773
v -0.02494525 -0.06101155 -0.00632639
v -0.02796598 -0.06101155 -0.00632785
v -0.02947634 -0.06100917 -0.00632932
v -0.03098981 -0.06100678 -0.00633371
v -0.03250017 -0.06099963 -0.00634249
v -0.03247536 -0.06186545 -0.00748858
v -0.03295917 -0.06231149 -0.00810042
v -0.03401364 -0.06277898 -0.00887180
v -0.03552400 -0.06276467 -0.00889668
v -0.03552400 -0.06352078 -0.01015695
v -0.03552400 -0.06393580 -0.01091369
v -0.03552400 -0.06397874 -0.01100151
v -0.04240282 -0.06201810 -0.00854246
v -0.04006129 -0.06215406 -0.00833754
v -0.04157166 -0.06131686 -0.00740661
v -0.04240282 -0.06126438 -0.00747687
v -0.03936659 -0.06379508 -0.01100151
v -0.03854783 -0.06344684 -0.01028722
v -0.03854783 -0.06269073 -0.00900939
v -0.03854783 -0.06221131 -0.00825411
v -0.04240282 -0.04558648 0.00278820
v -0.04006129 -0.04644515 0.00282479
v -0.04159027 -0.04653817 0.00265793
v -0.03854783 -0.04493293 0.00327416
v -0.03854783 -0.04644515 0.00293018
v -0.03854783 -0.04758050 0.00260524
v -0.03703747 -0.04770692 0.00264330
v -0.03552400 -0.04779756 0.00267110
v -0.03401364 -0.04861568 0.00245448
v -0.03250017 -0.04865623 0.00246765
v -0.03098981 -0.05097941 0.00151184
v -0.02947634 -0.05097941 0.00151623
v -0.02645871 -0.05097941 0.00151916
v -0.01072550 -0.05036403 0.00178555
v -0.01072550 -0.04946719 0.00217344
v -0.03250017 -0.04946719 0.00215148
v -0.01072550 -0.06101155 -0.00632639
v -0.01072550 -0.06075156 -0.00601901
v -0.02645871 -0.06037232 -0.00557111
v -0.02796598 -0.06036993 -0.00557111
v -0.02947634 -0.06036993 -0.00557404
v -0.03098981 -0.06036516 -0.00557843
v -0.03250017 -0.06035801 -0.00558575
v -0.03401364 -0.06098770 -0.00635859
v -0.03401364 -0.06172950 -0.00733928
v -0.03401364 -0.06230194 -0.00811506
v -0.03552400 -0.06228525 -0.00813994
v -0.03703747 -0.06273367 -0.00894206
v -0.03703747 -0.06348977 -0.01020964
v -0.03703747 -0.06390957 -0.01096639
v -0.03703747 -0.06392626 -0.01100151
v -0.04020086 -0.06130732 -0.00718998
v -0.04079632 -0.06080165 -0.00658547
v -0.04240282 -0.06100917 -0.00713729
v -0.04157166 -0.06075156 -0.00665133
v -0.03847030 -0.06384755 -0.01100151
v -0.03771666 -0.06389049 -0.01100151
v -0.03703747 -0.06225424 -0.00818678
v -0.03854783 -0.06154345 -0.00733928
v -0.04240282 -0.04630919 0.00262134
v -0.04110025 -0.04729428 0.00251595
v -0.04006129 -0.04742546 0.00255693
v -0.04210819 -0.04710585 0.00246179
v -0.03854783 -0.04833661 0.00236226
v -0.03703747 -0.04846303 0.00240471
v -0.03552400 -0.04855366 0.00243398
v -0.03552400 -0.04946719 0.00208854
v -0.03401364 -0.04946719 0.00212807
v -0.03098981 -0.05190964 0.00106687
v -0.03250017 -0.05097941 0.00149866
v -0.03250017 -0.05189771 0.00105955
v -0.02947634 -0.05191441 0.00106833
v -0.02796598 -0.05191679 0.00106979
v -0.02494525 -0.05191918 0.00106979
v -0.01072550 -0.05153755 0.00125276
v -0.01072550 -0.05097941 0.00151916
v -0.03401364 -0.05097941 0.00147817
v -0.01072550 -0.06037232 -0.00557111
v -0.02645871 -0.05961621 -0.00472508
v -0.02796598 -0.05961621 -0.00472654
v -0.02947634 -0.05961383 -0.00472800
v -0.03098981 -0.05960906 -0.00473240
v -0.03250017 -0.05960190 -0.00473971
v -0.03401364 -0.05958759 -0.00475435
v -0.03401364 -0.06034370 -0.00560185
v -0.03552400 -0.06096862 -0.00638055
v -0.03552400 -0.06169611 -0.00733928
v -0.03703747 -0.06163170 -0.00733928
v -0.03978837 -0.06084936 -0.00652838
v -0.04020086 -0.06030553 -0.00594582
v -0.04006129 -0.05942539 -0.00492853
v -0.04129874 -0.05935384 -0.00500611
v -0.04230668 -0.05928944 -0.00507491
v -0.04240282 -0.05989289 -0.00578481
v -0.04240282 -0.06069432 -0.00672159
v -0.03854783 -0.06089229 -0.00647276
v -0.04240282 -0.04703668 0.00244277
v -0.04006129 -0.04818157 0.00230957
v -0.04159027 -0.04786196 0.00227297
v -0.04240282 -0.04736345 0.00234030
v -0.04240282 -0.04791205 0.00216027
v -0.03854783 -0.04946719 0.00194949
v -0.03703747 -0.04946719 0.00203292
v -0.03703747 -0.05097941 0.00138742
v -0.03552400 -0.05097941 0.00144012
v -0.03098981 -0.05266574 0.00065702
v -0.02947634 -0.05267051 0.00065995
v -0.02796598 -0.05267290 0.00066288
v -0.03401364 -0.05187863 0.00104930
v -0.03250017 -0.05265382 0.00064971
v -0.01072550 -0.05191918 0.00106979
v -0.03552400 -0.05184524 0.00103027
v -0.01072550 -0.05961621 -0.00472508
v -0.01072550 -0.05931568 -0.00441770
v -0.02796598 -0.05887680 -0.00396980
v -0.02947634 -0.05887441 -0.00397273
v -0.03098981 -0.05886964 -0.00397565
v -0.03250017 -0.05886249 -0.00398444
v -0.03401364 -0.05884818 -0.00399907
v -0.03552400 -0.05956851 -0.00477631
v -0.03552400 -0.06032462 -0.00562380
v -0.03703747 -0.06093761 -0.00641860
v -0.03854783 -0.06024590 -0.00571748
v -0.04006129 -0.05866929 -0.00417326
v -0.03854783 -0.05948980 -0.00486120
v -0.03854783 -0.05873846 -0.00410592
v -0.04177325 -0.05856195 -0.00428743
v -0.04224775 -0.05776768 -0.00357020
v -0.04240282 -0.05790125 -0.00372389
v -0.04240282 -0.05928228 -0.00508223
v -0.04157166 -0.04946719 0.00169188
v -0.04006129 -0.04946719 0.00183825
v -0.04240282 -0.04946719 0.00158795
v -0.04006129 -0.05084107 0.00125715
v -0.03849511 -0.05110105 0.00125422
v -0.03795547 -0.05175698 0.00098490
v -0.03703747 -0.05179276 0.00100393
v -0.03098981 -0.05395375 -0.00009826
v -0.02947634 -0.05395852 -0.00009533
v -0.02796598 -0.05396091 -0.00009386
v -0.02494525 -0.05396091 -0.00009240
v -0.01072550 -0.05267290 0.00066288
v -0.03401364 -0.05263474 0.00063946
v -0.03250017 -0.05394183 -0.00010557
v -0.03552400 -0.05259657 0.00061897
v -0.01072550 -0.05887680 -0.00396980
v -0.01072550 -0.05856911 -0.00367413
v -0.02645871 -0.05812069 -0.00324526
v -0.02796598 -0.05812069 -0.00324672
v -0.02947634 -0.05811831 -0.00324818
v -0.03098981 -0.05811592 -0.00325257
v -0.03250017 -0.05810638 -0.00325989
v -0.03401364 -0.05809207 -0.00327453
v -0.03552400 -0.05806822 -0.00329502
v -0.03552400 -0.05882433 -0.00402103
v -0.03703747 -0.05953511 -0.00481290
v -0.03703747 -0.06029122 -0.00566332
v -0.04006129 -0.05791318 -0.00343993
v -0.04123981 -0.05783685 -0.00350873
v -0.03703747 -0.05878616 -0.00405762
v -0.03854783 -0.05798235 -0.00337406
v -0.04167400 -0.05716900 -0.00299350
v -0.04240282 -0.05705451 -0.00299203
v -0.04240282 -0.05775576 -0.00358191
v -0.04240282 -0.05002056 0.00135815
v -0.04240282 -0.05056677 0.00112981
v -0.04157166 -0.05068365 0.00118250
v -0.04006129 -0.05159479 0.00090732
v -0.03896341 -0.05168543 0.00094977
v -0.04157166 -0.05143975 0.00083414
v -0.03849511 -0.05235090 0.00061897
v -0.03703747 -0.05254649 0.00058823
v -0.03098981 -0.05470747 -0.00056957
v -0.02947634 -0.05471463 -0.00056665
v -0.03250017 -0.05469793 -0.00057689
v -0.02796598 -0.05471702 -0.00056372
v -0.01072550 -0.05396091 -0.00009240
v -0.03552400 -0.05388935 -0.00013778
v -0.03401364 -0.05392274 -0.00011728
v -0.03703747 -0.05384165 -0.00016705
v -0.01072550 -0.05812069 -0.00324526
v -0.02645871 -0.05725963 -0.00248998
v -0.02796598 -0.05725725 -0.00248998
v -0.03098981 -0.05725248 -0.00249583
v -0.03250017 -0.05724294 -0.00250461
v -0.03401364 -0.05722386 -0.00251779
v -0.03552400 -0.05720001 -0.00253974
v -0.03703747 -0.05803005 -0.00333015
v -0.03956507 -0.05630556 -0.00202012
v -0.04006440 -0.05689470 -0.00257341
v -0.03854783 -0.05710698 -0.00261878
v -0.03703747 -0.05715707 -0.00257487
v -0.04157166 -0.05615767 -0.00213575
v -0.04240282 -0.05659178 -0.00260707
v -0.04240282 -0.05132288 0.00077851
v -0.04006129 -0.05248924 0.00042283
v -0.04157166 -0.05248924 0.00028231
v -0.04240282 -0.05201697 0.00041990
v -0.04006129 -0.05368422 -0.00026658
v -0.03854783 -0.05377725 -0.00020803
v -0.03098981 -0.05551129 -0.00114482
v -0.02947634 -0.05551129 -0.00113896
v -0.03401364 -0.05467647 -0.00059007
v -0.03401364 -0.05551129 -0.00118580
v -0.03250017 -0.05551129 -0.00115945
v -0.01072550 -0.05518928 -0.00090184
v -0.01072550 -0.05471702 -0.00056372
v -0.02796598 -0.05551129 -0.00113457
v -0.03552400 -0.05464546 -0.00061056
v -0.03703747 -0.05459775 -0.00064276
v -0.01072550 -0.05725963 -0.00248998
v -0.01072550 -0.05695194 -0.00223529
v -0.02796598 -0.05650353 -0.00186497
v -0.02947634 -0.05650114 -0.00186643
v -0.03098981 -0.05649637 -0.00186936
v -0.03250017 -0.05648683 -0.00187668
v -0.03401364 -0.05647014 -0.00188985
v -0.03552400 -0.05644390 -0.00191034
v -0.03703747 -0.05640096 -0.00194401
v -0.03854783 -0.05635088 -0.00198499
v -0.03854783 -0.05551129 -0.00137316
v -0.04006440 -0.05564247 -0.00159272
v -0.04157166 -0.05540157 -0.00157954
v -0.04240282 -0.05533001 -0.00163370
v -0.04240282 -0.05608612 -0.00219138
v -0.04157166 -0.05356973 -0.00033538
v -0.04240282 -0.05248924 0.00017107
v -0.04240282 -0.05299729 -0.00011289
v -0.04240282 -0.05348148 -0.00038953
v -0.04006129 -0.05444033 -0.00074522
v -0.03854783 -0.05453335 -0.00068374
v -0.03552400 -0.05551129 -0.00122678
v -0.01072550 -0.05551129 -0.00113457
v -0.01072550 -0.05610043 -0.00156637
v -0.03703747 -0.05551129 -0.00129265
v -0.01072550 -0.05650353 -0.00186497
v -0.04157166 -0.05432346 -0.00082280
v -0.04240282 -0.05484582 -0.00129411
v -0.04240282 -0.05389889 -0.00065886
v -0.04240282 -0.05423759 -0.00087842
f 1 2 6
f 1 6 12
f 1 12 21
f 1 21 34
f 1 34 53
f 1 53 75
f 1 75 107
f 1 107 106
f 1 106 141
f 1 141 140
f 1 140 180
f 1 180 179
f 1 179 221
f 1 221 220
f 1 220 256
f 1 256 287
f 1 287 322
f 1 322 352
f 1 352 351
f 1 351 378
f 1 378 379
f 1 379 381
f 1 381 357
f 1 357 356
f 1 356 326
f 1 326 292
f 1 292 291
f 1 291 259
f 1 259 258
f 1 258 223
f 1 223 183
f 1 183 182
f 1 182 145
f 1 145 144
f 1 144 110
f 1 110 78
f 1 78 54
f 1 54 35
f 1 35 22
f 1 22 13
f 1 13 7
f 1 7 3
f 1 3 8
f 1 8 16
f 1 16 27
f 1 27 42
f 1 42 66
f 1 66 94
f 1 94 131
f 1 131 97
f 1 97 96
f 1 96 95
f 1 95 68
f 1 68 67
f 1 67 44
f 1 44 43
f 1 43 28
f 1 28 17
f 1 17 9
f 1 9 4
f 1 4 5
f 1 5 2
f 2 5 6
f 3 7 14
f 3 14 25
f 3 25 38
f 3 38 59
f 3 59 85
f 3 85 119
f 3 119 157
f 3 157 196
f 3 196 202
f 3 202 201
f 3 201 162
f 3 162 125
f 3 125 88
f 3 88 61
f 3 61 40
f 3 40 26
f 3 26 15
f 3 15 8
f 4 9 10
f 4 10 5
f 5 11 6
f 5 10 11
f 6 11 12
f 7 13 23
f 7 23 14
f 8 15 16
f 9 17 18
f 9 18 10
f 10 18 19
f 10 19 11
f 11 20 12
f 11 19 31
f 11 31 20
f 12 20 21
f 13 22 36
f 13 36 23
f 14 23 24
f 14 24 25
f 15 26 39
f 15 39 60
f 15 60 86
f 15 86 120
f 15 120 158
f 15 158 161
f 15 161 199
f 15 199 240
f 15 240 239
f 15 239 275
f 15 275 274
f 15 274 309
f 15 309 308
f 15 308 339
f 15 339 370
f 15 370 369
f 15 369 383
f 15 383 385
f 15 385 384
f 15 384 374
f 15 374 373
f 15 373 372
f 15 372 343
f 15 343 340
f 15 340 311
f 15 311 310
f 15 310 278
f 15 278 246
f 15 246 245
f 15 245 242
f 15 242 205
f 15 205 166
f 15 166 126
f 15 126 89
f 15 89 62
f 15 62 41
f 15 41 27
f 15 27 16
f 17 28 18
f 18 28 29
f 18 29 30
f 18 30 19
f 19 30 48
f 19 48 31
f 20 32 34
f 20 34 21
f 20 31 33
f 20 33 32
f 22 35 36
f 23 36 24
f 24 36 57
f 24 57 37
f 24 37 38
f 24 38 25
f 26 40 39
f 27 41 64
f 27 64 42
f 28 43 29
f 29 43 44
f 29 44 45
f 29 45 46
f 29 46 47
f 29 47 30
f 30 47 48
f 31 48 50
f 31 50 33
f 32 49 53
f 32 53 34
f 32 33 49
f 33 50 76
f 33 76 51
f 33 51 52
f 33 52 49
f 35 54 55
f 35 55 36
f 36 55 56
f 36 56 57
f 37 57 83
f 37 83 58
f 37 58 38
f 38 58 59
f 39 40 60
f 40 61 60
f 41 62 63
f 41 63 64
f 42 64 65
f 42 65 66
f 44 67 45
f 45 67 68
f 45 68 69
f 45 69 70
f 45 70 46
f 46 70 71
f 46 71 72
f 46 72 47
f 47 72 48
f 48 72 73
f 48 73 50
f 49 52 74
f 49 74 75
f 49 75 53
f 50 73 104
f 50 104 76
f 51 76 77
f 51 77 52
f 52 77 74
f 54 78 79
f 54 79 55
f 55 79 56
f 56 79 80
f 56 80 81
f 56 81 82
f 56 82 83
f 56 83 57
f 58 83 84
f 58 84 59
f 59 84 85
f 60 61 87
f 60 87 86
f 61 88 87
f 62 89 90
f 62 90 63
f 63 90 91
f 63 91 64
f 64 91 65
f 65 91 92
f 65 92 93
f 65 93 94
f 65 94 66
f 68 95 69
f 69 96 97
f 69 97 98
f 69 98 99
f 69 99 70
f 69 95 96
f 70 99 100
f 70 100 71
f 71 100 101
f 71 101 102
f 71 102 73
f 71 73 72
f 73 102 103
f 73 103 104
f 74 77 109
f 74 109 105
f 74 105 106
f 74 106 107
f 74 107 75
f 76 108 77
f 76 104 108
f 77 108 109
f 78 110 79
f 79 110 111
f 79 111 80
f 80 111 112
f 80 112 113
f 80 113 81
f 81 113 114
f 81 114 82
f 82 114 115
f 82 115 116
f 82 116 83
f 83 116 84
f 84 116 117
f 84 117 118
f 84 118 85
f 85 118 119
f 86 87 121
f 86 121 122
f 86 122 120
f 87 88 123
f 87 123 124
f 87 124 121
f 88 125 123
f 89 126 90
f 90 126 127
f 90 127 128
f 90 128 129
f 90 129 91
f 91 129 130
f 91 130 92
f 92 130 99
f 92 99 98
f 92 98 93
f 93 131 94
f 93 98 131
f 97 131 98
f 99 130 132
f 99 132 100
f 100 132 101
f 101 132 133
f 101 133 134
f 101 134 135
f 101 135 102
f 102 135 103
f 103 135 136
f 103 136 137
f 103 137 104
f 104 137 108
f 105 109 138
f 105 138 139
f 105 139 140
f 105 140 141
f 105 141 106
f 108 142 109
f 108 137 142
f 109 142 143
f 109 143 138
f 110 144 111
f 111 144 145
f 111 145 146
f 111 146 147
f 111 147 148
f 111 148 112
f 112 148 149
f 112 149 113
f 113 149 150
f 113 150 151
f 113 151 114
f 114 151 152
f 114 152 115
f 115 152 153
f 115 153 116
f 116 153 117
f 117 153 154
f 117 154 155
f 117 155 118
f 118 155 156
f 118 156 157
f 118 157 119
f 120 122 158
f 121 124 159
f 121 159 122
f 122 159 160
f 122 160 161
f 122 161 158
f 123 125 162
f 123 162 163
f 123 163 124
f 124 163 164
f 124 164 165
f 124 165 159
f 126 166 127
f 127 167 128
f 127 166 168
f 127 168 167
f 128 167 169
f 128 169 129
f 129 169 130
f 130 169 133
f 130 133 132
f 133 169 170
f 133 170 134
f 134 170 171
f 134 171 172
f 134 172 173
f 134 173 135
f 135 173 136
f 136 173 174
f 136 174 175
f 136 175 137
f 137 175 142
f 138 143 176
f 138 176 177
f 138 177 139
f 139 178 179
f 139 179 180
f 139 180 140
f 139 177 178
f 142 175 181
f 142 181 143
f 143 181 215
f 143 215 176
f 145 182 146
f 146 182 183
f 146 183 184
f 146 184 147
f 147 184 185
f 147 185 186
f 147 186 148
f 148 186 149
f 149 186 187
f 149 187 188
f 149 188 150
f 150 188 189
f 150 189 190
f 150 190 151
f 151 190 152
f 152 190 191
f 152 191 153
f 153 191 154
f 154 191 192
f 154 192 193
f 154 193 155
f 155 193 194
f 155 194 195
f 155 195 156
f 156 195 157
f 157 195 196
f 159 165 197
f 159 197 160
f 160 197 198
f 160 198 161
f 161 198 200
f 161 200 199
f 162 201 163
f 163 201 202
f 163 202 194
f 163 194 164
f 164 194 193
f 164 193 203
f 164 203 165
f 165 203 204
f 165 204 197
f 166 205 168
f 167 168 206
f 167 206 207
f 167 207 170
f 167 170 169
f 168 205 208
f 168 208 206
f 170 207 171
f 171 207 209
f 171 209 210
f 171 210 172
f 172 210 211
f 172 211 173
f 173 211 174
f 174 211 212
f 174 212 213
f 174 213 175
f 175 213 181
f 176 214 177
f 176 215 216
f 176 216 214
f 177 214 217
f 177 217 218
f 177 218 178
f 178 218 219
f 178 219 220
f 178 220 221
f 178 221 179
f 181 213 222
f 181 222 215
f 183 223 184
f 184 223 258
f 184 258 224
f 184 224 225
f 184 225 185
f 185 225 186
f 186 225 226
f 186 226 227
f 186 227 187
f 187 227 228
f 187 228 188
f 188 228 229
f 188 229 230
f 188 230 189
f 189 230 266
f 189 266 231
f 189 231 232
f 189 232 190
f 190 232 191
f 191 232 192
f 192 232 233
f 192 233 203
f 192 203 193
f 194 202 195
f 195 202 196
f 197 204 234
f 197 234 198
f 198 234 235
f 198 235 236
f 198 236 237
f 198 237 238
f 198 238 239
f 198 239 200
f 199 200 240
f 200 239 240
f 203 233 204
f 204 233 241
f 204 241 234
f 205 242 208
f 206 243 207
f 206 208 244
f 206 244 243
f 207 243 209
f 208 242 245
f 208 245 246
f 208 246 244
f 209 243 247
f 209 247 210
f 210 247 248
f 210 248 211
f 211 248 212
f 212 248 249
f 212 249 250
f 212 250 213
f 213 250 222
f 214 251 252
f 214 252 253
f 214 253 217
f 214 216 255
f 214 255 251
f 215 222 254
f 215 254 216
f 216 254 288
f 216 288 255
f 217 253 218
f 218 253 219
f 219 253 287
f 219 287 256
f 219 256 220
f 222 250 257
f 222 257 254
f 224 258 259
f 224 259 260
f 224 260 225
f 225 260 226
f 226 260 261
f 226 261 262
f 226 262 227
f 227 262 228
f 228 262 263
f 228 263 264
f 228 264 229
f 229 264 265
f 229 265 266
f 229 266 230
f 231 266 267
f 231 267 232
f 232 267 233
f 233 267 241
f 234 241 268
f 234 268 235
f 235 268 236
f 236 269 237
f 236 268 270
f 236 270 271
f 236 271 269
f 237 269 272
f 237 272 238
f 238 272 273
f 238 273 274
f 238 274 275
f 238 275 239
f 241 267 302
f 241 302 268
f 243 244 276
f 243 276 277
f 243 277 247
f 244 246 276
f 246 278 276
f 247 277 279
f 247 279 280
f 247 280 249
f 247 249 248
f 249 280 281
f 249 281 282
f 249 282 250
f 250 282 257
f 251 283 284
f 251 284 252
f 251 255 289
f 251 289 283
f 252 284 253
f 253 284 285
f 253 285 286
f 253 286 322
f 253 322 287
f 254 257 288
f 255 288 289
f 257 282 290
f 257 290 288
f 259 291 260
f 260 291 292
f 260 292 293
f 260 293 294
f 260 294 295
f 260 295 261
f 261 295 296
f 261 296 262
f 262 296 263
f 263 296 297
f 263 297 298
f 263 298 264
f 264 298 299
f 264 299 300
f 264 300 265
f 265 300 301
f 265 301 266
f 266 301 302
f 266 302 267
f 268 302 270
f 269 303 304
f 269 304 272
f 269 271 303
f 270 302 301
f 270 301 305
f 270 305 271
f 271 305 306
f 271 306 303
f 272 304 273
f 273 304 307
f 273 307 308
f 273 308 309
f 273 309 274
f 276 278 310
f 276 310 311
f 276 311 312
f 276 312 277
f 277 312 279
f 279 313 314
f 279 314 280
f 279 312 315
f 279 315 313
f 280 314 281
f 281 314 316
f 281 316 317
f 281 317 282
f 282 317 290
f 283 318 319
f 283 319 284
f 283 289 320
f 283 320 318
f 284 319 321
f 284 321 285
f 285 321 286
f 286 321 352
f 286 352 322
f 288 290 323
f 288 323 324
f 288 324 289
f 289 324 320
f 290 317 325
f 290 325 323
f 292 326 293
f 293 326 356
f 293 356 327
f 293 327 294
f 294 327 328
f 294 328 295
f 295 328 329
f 295 329 296
f 296 329 297
f 297 329 330
f 297 330 298
f 298 330 331
f 298 331 299
f 299 331 332
f 299 332 333
f 299 333 300
f 300 333 305
f 300 305 301
f 303 334 335
f 303 335 304
f 303 306 336
f 303 336 334
f 304 335 307
f 305 333 306
f 306 333 337
f 306 337 336
f 307 338 308
f 307 335 334
f 307 334 338
f 308 338 339
f 311 340 315
f 311 315 312
f 313 341 314
f 313 315 342
f 313 342 341
f 314 341 316
f 315 340 343
f 315 343 342
f 316 341 344
f 316 344 345
f 316 345 317
f 317 345 325
f 318 346 319
f 318 320 346
f 319 346 347
f 319 347 321
f 320 324 348
f 320 348 349
f 320 349 350
f 320 350 346
f 321 351 352
f 321 347 353
f 321 353 351
f 323 325 354
f 323 354 324
f 324 354 348
f 325 345 376
f 325 376 355
f 325 355 354
f 327 356 357
f 327 357 358
f 327 358 328
f 328 358 359
f 328 359 329
f 329 359 360
f 329 360 361
f 329 361 330
f 330 361 362
f 330 362 331
f 331 362 332
f 332 362 363
f 332 363 364
f 332 364 337
f 332 337 333
f 334 336 365
f 334 365 366
f 334 366 367
f 334 367 368
f 334 368 338
f 336 337 365
f 337 364 365
f 338 368 369
f 338 369 370
f 338 370 339
f 341 342 371
f 341 371 344
f 342 343 372
f 342 372 373
f 342 373 374
f 342 374 371
f 344 375 376
f 344 376 345
f 344 371 375
f 346 360 359
f 346 359 347
f 346 350 361
f 346 361 360
f 347 359 353
f 348 354 377
f 348 377 349
f 349 377 363
f 349 363 362
f 349 362 350
f 350 362 361
f 351 353 378
f 353 359 358
f 353 358 379
f 353 379 378
f 354 355 380
f 354 380 377
f 355 376 366
f 355 366 380
f 357 381 358
f 358 381 379
f 363 377 364
f 364 377 380
f 364 380 365
f 365 380 366
f 366 376 367
f 367 376 375
f 367 375 368
f 368 375 382
f 368 382 369
f 369 382 383
f 371 382 375
f 371 374 384
f 371 384 382
f 382 384 385
f 382 385 383

