# https://github.com/mikedh/trimesh
v 0.06999068 -0.03684209 -0.01005354
v 0.06973011 -0.03684209 -0.00969274
v 0.06993677 -0.03738717 -0.01005354
v 0.05934600 -0.03684209 -0.01005354
v 0.06960432 -0.03684209 -0.00952580
v 0.06959533 -0.03706582 -0.00953927
v 0.06990383 -0.03765022 -0.01005354
v 0.06953243 -0.03807327 -0.00961600
v 0.05139393 -0.05069154 -0.01005354
v 0.03939544 -0.05069154 -0.00926059
v 0.03939544 -0.03684209 -0.00519624
v 0.06847815 -0.03684209 -0.00819839
v 0.06818762 -0.03737361 -0.00791972
v 0.06810376 -0.03888547 -0.00800992
v 0.06986189 -0.03793903 -0.01005354
v 0.06946953 -0.03888547 -0.00970486
v 0.06971813 -0.03888547 -0.01005354
v 0.06804685 -0.03971937 -0.00807319
v 0.06489597 -0.05069154 -0.01005354
v 0.03939544 -0.05069154 0.00136406
v 0.03939544 -0.03684209 0.00353154
v 0.06821158 -0.03684209 -0.00789683
v 0.06747778 -0.03737361 -0.00716312
v 0.06737893 -0.03888547 -0.00725332
v 0.06933476 -0.04039733 -0.00988391
v 0.06953243 -0.03995394 -0.01005354
v 0.06699556 -0.04190784 -0.00758316
v 0.06791506 -0.04072682 -0.00822128
v 0.06848114 -0.04029293 -0.00877594
v 0.06662416 -0.03888547 -0.00647653
v 0.06654030 -0.03975191 -0.00656000
v 0.06642349 -0.04075937 -0.00667578
v 0.06627972 -0.04190784 -0.00682791
v 0.06524640 -0.05018849 -0.01005354
v 0.06497684 -0.05018171 -0.00963754
v 0.06477317 -0.05069154 -0.00986910
v 0.03939544 -0.04946578 0.00188776
v 0.03951226 -0.05069154 0.00135733
v 0.03939544 -0.03737361 0.00359347
v 0.04006336 -0.03684209 0.00348980
v 0.06775033 -0.03684209 -0.00740680
v 0.06749275 -0.03684209 -0.00714024
v 0.06700155 -0.03684209 -0.00663405
v 0.06672001 -0.03737361 -0.00638229
v 0.06838829 -0.04190784 -0.00917712
v 0.06907718 -0.04190784 -0.01005354
v 0.06920896 -0.04139801 -0.01005354
v 0.06945456 -0.04039733 -0.01005354
v 0.06676793 -0.04341970 -0.00781606
v 0.06775033 -0.04190784 -0.00842053
v 0.06588437 -0.03737361 -0.00562570
v 0.06564176 -0.03894107 -0.00560416
v 0.06497984 -0.03948208 -0.00509393
v 0.06488699 -0.04039733 -0.00517740
v 0.06585741 -0.04031191 -0.00604842
v 0.06552495 -0.04190784 -0.00609016
v 0.06528834 -0.04341970 -0.00631364
v 0.06604311 -0.04341970 -0.00705946
v 0.06552495 -0.04978714 -0.01005354
v 0.06628571 -0.04829562 -0.00991083
v 0.06527635 -0.04917426 -0.00928482
v 0.06484206 -0.04842036 -0.00827782
v 0.06440777 -0.04969222 -0.00869516
v 0.06348227 -0.05021019 -0.00810416
v 0.06429096 -0.05069154 -0.00934406
v 0.03939544 -0.04874578 0.00215162
v 0.04006336 -0.05069154 0.00131964
v 0.04006336 -0.04946578 0.00183795
v 0.04006336 -0.04817901 0.00231048
v 0.03939544 -0.03803937 0.00363520
v 0.04006336 -0.03888547 0.00364732
v 0.04006336 -0.03737361 0.00355173
v 0.04059350 -0.03684209 0.00345076
v 0.06673499 -0.03684209 -0.00637018
v 0.06761854 -0.04355665 -0.00888499
v 0.06818762 -0.04314309 -0.00941272
v 0.06801989 -0.04414919 -0.00961870
v 0.06902925 -0.04205428 -0.01005354
v 0.06660320 -0.04439054 -0.00799376
v 0.06619286 -0.03684209 -0.00588014
v 0.06589934 -0.03684209 -0.00561493
v 0.06514457 -0.03684209 -0.00495392
v 0.06512660 -0.03737361 -0.00496873
v 0.06505771 -0.03847463 -0.00502796
v 0.06438381 -0.03894107 -0.00455543
v 0.06330257 -0.03888547 -0.00370324
v 0.06316179 -0.04039733 -0.00379883
v 0.06412922 -0.04039733 -0.00455543
v 0.06469530 -0.04190784 -0.00533356
v 0.06393753 -0.04190784 -0.00471024
v 0.06443472 -0.04341970 -0.00555704
v 0.06510264 -0.04438919 -0.00649538
v 0.06610601 -0.04879053 -0.01005354
v 0.06646842 -0.04816680 -0.01005354
v 0.06656725 -0.04728816 -0.00954869
v 0.06512061 -0.04741291 -0.00797222
v 0.06423106 -0.04792002 -0.00735698
v 0.06383570 -0.04920273 -0.00775009
v 0.06289223 -0.04967595 -0.00719005
v 0.06192780 -0.05015053 -0.00663001
v 0.06171814 -0.05069154 -0.00682656
v 0.06281736 -0.05069154 -0.00784164
v 0.06329058 -0.05069154 -0.00830475
v 0.03939544 -0.04824816 0.00233337
v 0.04148006 -0.05069154 0.00118770
v 0.04157590 -0.04946578 0.00169255
v 0.04006336 -0.04742375 0.00255819
v 0.04159387 -0.04786036 0.00227413
v 0.04110267 -0.04729358 0.00251511
v 0.03939544 -0.03888547 0.00368770
v 0.03939544 -0.03955123 0.00369309
v 0.03939544 -0.04039733 0.00369982
v 0.04006336 -0.04039733 0.00365674
v 0.04157590 -0.03888547 0.00352077
v 0.04157590 -0.03737361 0.00343057
v 0.04157590 -0.03684209 0.00337268
v 0.06704947 -0.04490851 -0.00878402
v 0.06787313 -0.04493020 -0.00981525
v 0.06804385 -0.04493020 -0.01005354
v 0.06847815 -0.04373292 -0.01005354
v 0.06574360 -0.04489359 -0.00735295
v 0.06638455 -0.04539800 -0.00823609
v 0.06457250 -0.03684209 -0.00451504
v 0.06424903 -0.03737361 -0.00429021
v 0.06338044 -0.03737361 -0.00363863
v 0.06254480 -0.03888547 -0.00317147
v 0.06240402 -0.04039733 -0.00326302
v 0.06294914 -0.04190784 -0.00395365
v 0.06219137 -0.04190784 -0.00341649
v 0.06367995 -0.04341970 -0.00492565
v 0.06351821 -0.04423461 -0.00505085
v 0.06329957 -0.04524342 -0.00524202
v 0.06386565 -0.04644206 -0.00624228
v 0.06487201 -0.04539664 -0.00671213
v 0.06676793 -0.04762714 -0.01005354
v 0.06612697 -0.04644206 -0.00853496
v 0.06720222 -0.04681901 -0.01005354
v 0.06736096 -0.04650037 -0.01005354
v 0.06678290 -0.04644206 -0.00929021
v 0.06537220 -0.04644206 -0.00772182
v 0.06462042 -0.04644206 -0.00696522
v 0.06361706 -0.04741969 -0.00646307
v 0.06330556 -0.04842714 -0.00674175
v 0.06229920 -0.04914307 -0.00632171
v 0.06029246 -0.04998781 -0.00520567
v 0.06122095 -0.05069154 -0.00639306
v 0.03939544 -0.04782511 0.00247203
v 0.04157590 -0.05069154 0.00117828
v 0.04157590 -0.05068205 0.00118232
v 0.04308544 -0.05047053 0.00108539
v 0.04308544 -0.04946578 0.00150408
v 0.04308544 -0.04795392 0.00206412
v 0.04006336 -0.04644206 0.00282475
v 0.03939544 -0.04644206 0.00287052
v 0.03939544 -0.04749155 0.00257839
v 0.04211203 -0.04710375 0.00246126
v 0.04159387 -0.04653698 0.00265782
v 0.03939544 -0.04106309 0.00367020
v 0.04006336 -0.04190784 0.00358539
v 0.04157590 -0.04039733 0.00353019
v 0.04308544 -0.03888547 0.00336864
v 0.04308544 -0.03737361 0.00328383
v 0.04308544 -0.03684209 0.00322728
v 0.06775932 -0.04561088 -0.01005354
v 0.06424903 -0.03684209 -0.00426733
v 0.06368594 -0.03684209 -0.00384460
v 0.06339242 -0.03684209 -0.00362920
v 0.06290421 -0.03684209 -0.00329937
v 0.06262267 -0.03737361 -0.00313243
v 0.06138867 -0.03888547 -0.00241488
v 0.06111013 -0.04039869 -0.00243776
v 0.06027449 -0.04190784 -0.00216851
v 0.06122394 -0.04190784 -0.00277971
v 0.06204162 -0.04282851 -0.00351881
v 0.06185891 -0.04383461 -0.00365209
v 0.06261967 -0.04336682 -0.00410308
v 0.06277243 -0.04481495 -0.00465909
v 0.06223929 -0.04644206 -0.00486237
v 0.06299407 -0.04644206 -0.00548569
v 0.06201466 -0.04724884 -0.00504681
v 0.06266161 -0.04783731 -0.00588822
v 0.06167322 -0.04825629 -0.00531471
v 0.05928610 -0.05057222 -0.00484487
v 0.05940890 -0.05069154 -0.00501046
v 0.05993304 -0.05069154 -0.00539549
v 0.06093941 -0.05069154 -0.00616689
v 0.06066385 -0.04897900 -0.00492834
v 0.05896262 -0.04871731 -0.00355650
v 0.04273801 -0.05069154 0.00102750
v 0.04308544 -0.05069154 0.00098173
v 0.04368447 -0.05069154 0.00089557
v 0.04411577 -0.05030646 0.00101269
v 0.04512513 -0.05013968 0.00093999
v 0.04460997 -0.04956748 0.00124559
v 0.04308544 -0.04687189 0.00240203
v 0.04459799 -0.04795392 0.00184199
v 0.04006336 -0.04493020 0.00316536
v 0.03939544 -0.04493020 0.00321382
v 0.04157590 -0.04493020 0.00302804
v 0.04308544 -0.04611664 0.00259185
v 0.03939544 -0.04190784 0.00362981
v 0.03939544 -0.04257495 0.00355846
v 0.04006336 -0.04341970 0.00342249
v 0.04157590 -0.04341970 0.00329056
v 0.04157590 -0.04190784 0.00345211
v 0.04308544 -0.04039733 0.00337133
v 0.04459799 -0.03888547 0.00317613
v 0.04459799 -0.03737361 0.00310073
v 0.04459799 -0.03684209 0.00304688
v 0.04361858 -0.03684209 0.00316536
v 0.06263765 -0.03684209 -0.00312436
v 0.06146355 -0.03737361 -0.00237584
v 0.06070579 -0.03737361 -0.00190869
v 0.06063091 -0.03888547 -0.00195042
v 0.06052908 -0.03989700 -0.00201504
v 0.06041227 -0.04090445 -0.00208370
v 0.05951972 -0.04190784 -0.00172559
v 0.05999594 -0.04341970 -0.00232468
v 0.06130182 -0.04336682 -0.00315128
v 0.06160732 -0.04493020 -0.00381633
v 0.06085255 -0.04493020 -0.00330071
v 0.06115206 -0.04641765 -0.00406943
v 0.06028946 -0.04690579 -0.00368036
v 0.05848340 -0.04972476 -0.00383652
v 0.05888475 -0.05069154 -0.00466986
v 0.05922619 -0.05069154 -0.00488391
v 0.05920523 -0.04795392 -0.00340168
v 0.05746506 -0.04722308 -0.00203927
v 0.05700980 -0.04823053 -0.00227487
v 0.05553320 -0.04979120 -0.00225602
v 0.05806708 -0.04931934 -0.00338014
v 0.05747405 -0.05025222 -0.00354304
v 0.04473876 -0.05069154 0.00073267
v 0.04611053 -0.05069154 0.00046880
v 0.04611053 -0.04989154 0.00084037
v 0.04611053 -0.04913629 0.00114193
v 0.04459799 -0.04638918 0.00230375
v 0.04409480 -0.04584952 0.00252588
v 0.04611053 -0.04795392 0.00156062
v 0.04611053 -0.04644206 0.00202642
v 0.03939544 -0.04408546 0.00335652
v 0.04308544 -0.04493020 0.00286110
v 0.03939544 -0.04341970 0.00346692
v 0.04308544 -0.04341970 0.00311958
v 0.04308544 -0.04190784 0.00328652
v 0.04459799 -0.04039733 0.00317478
v 0.04611053 -0.03888547 0.00295399
v 0.04611053 -0.03737361 0.00288264
v 0.04513112 -0.03684209 0.00297419
v 0.06188587 -0.03684209 -0.00263432
v 0.06145757 -0.03684209 -0.00236910
v 0.06096636 -0.03684209 -0.00206620
v 0.06070279 -0.03684209 -0.00191407
v 0.06005884 -0.03684209 -0.00156673
v 0.05971141 -0.03737361 -0.00137288
v 0.05971141 -0.03888547 -0.00145634
v 0.05830669 -0.04039733 -0.00086534
v 0.05982822 -0.04039869 -0.00168655
v 0.05747105 -0.04121767 -0.00052608
v 0.05806408 -0.04179665 -0.00093534
v 0.05924117 -0.04341970 -0.00188715
v 0.05903151 -0.04431461 -0.00200831
v 0.05960657 -0.04486376 -0.00251450
v 0.06059796 -0.04589698 -0.00347707
v 0.05725540 -0.05069154 -0.00367497
v 0.05819887 -0.05069154 -0.00424982
v 0.05975633 -0.04641765 -0.00315128
v 0.05844746 -0.04644206 -0.00235564
v 0.05876195 -0.04532207 -0.00216178
v 0.05768969 -0.04644206 -0.00191272
v 0.05668932 -0.04644206 -0.00141461
v 0.05520973 -0.04652477 -0.00076706
v 0.05434114 -0.04708477 -0.00057455
v 0.05517678 -0.04795392 -0.00128537
v 0.05508693 -0.04935866 -0.00183195
v 0.05600044 -0.04878375 -0.00201504
v 0.05452684 -0.05031595 -0.00199888
v 0.05671029 -0.05069154 -0.00336129
v 0.05679415 -0.05069154 -0.00340707
v 0.04771891 -0.05069154 0.00008916
v 0.04762905 -0.04940205 0.00069497
v 0.04813823 -0.04856680 0.00092115
v 0.04712887 -0.04885697 0.00103154
v 0.04510416 -0.04549427 0.00244511
v 0.04459799 -0.04496681 0.00263628
v 0.04762905 -0.04801901 0.00122540
v 0.04762307 -0.04644206 0.00172486
v 0.04617342 -0.04496681 0.00237106
v 0.04459799 -0.04341970 0.00290957
v 0.04459799 -0.04190784 0.00308996
v 0.04611053 -0.04039733 0.00293784
v 0.04762307 -0.03888547 0.00268878
v 0.04846769 -0.03780887 0.00250434
v 0.04773688 -0.03733293 0.00260800
v 0.04827301 -0.03684209 0.00248415
v 0.04652685 -0.03684209 0.00276956
v 0.04611053 -0.03684209 0.00283283
v 0.05971141 -0.03684209 -0.00137961
v 0.05847741 -0.03684209 -0.00075898
v 0.05848640 -0.03737361 -0.00075764
v 0.05842050 -0.03888547 -0.00079937
v 0.05755192 -0.04039733 -0.00048569
v 0.05668932 -0.04039733 -0.00010739
v 0.05517678 -0.04190784 0.00033418
v 0.05673425 -0.04179665 -0.00030664
v 0.05626102 -0.04341970 -0.00038338
v 0.05727038 -0.04222648 -0.00062301
v 0.05820186 -0.04341970 -0.00134057
v 0.05823481 -0.04486376 -0.00173502
v 0.05660246 -0.04489902 -0.00090169
v 0.05573687 -0.04538173 -0.00061763
v 0.05376907 -0.04652477 -0.00016932
v 0.05333178 -0.04764206 -0.00036184
v 0.05376907 -0.04806918 -0.00071052
v 0.05472751 -0.04607596 -0.00041703
v 0.05366724 -0.04946578 -0.00125710
v 0.05366724 -0.05064002 -0.00182522
v 0.05362830 -0.05069154 -0.00183733
v 0.05422733 -0.05069154 -0.00208370
v 0.05489823 -0.05069154 -0.00240141
v 0.05656053 -0.05069154 -0.00328187
v 0.04913261 -0.05069154 -0.00025817
v 0.04913261 -0.04946578 0.00029244
v 0.04925242 -0.04801901 0.00081883
v 0.04882711 -0.04755935 0.00110289
v 0.04570918 -0.04448681 0.00255012
v 0.04925242 -0.04656003 0.00128329
v 0.04913261 -0.04493020 0.00172621
v 0.04762307 -0.04493020 0.00208566
v 0.04671854 -0.04401088 0.00245722
v 0.04617342 -0.04347393 0.00264435
v 0.04611053 -0.04190784 0.00284360
v 0.04839881 -0.04119462 0.00249088
v 0.04762307 -0.04039733 0.00266724
v 0.04844972 -0.04039733 0.00250165
v 0.04850064 -0.03888547 0.00251242
v 0.04925840 -0.03888547 0.00234683
v 0.05064515 -0.03737361 0.00198603
v 0.04903677 -0.03733293 0.00235626
v 0.04837185 -0.03684209 0.00246530
v 0.05798621 -0.03684209 -0.00053416
v 0.05772863 -0.03737361 -0.00041030
v 0.05766573 -0.03888547 -0.00043184
v 0.05668932 -0.03888547 0.00000165
v 0.05517678 -0.04039733 0.00050650
v 0.05396076 -0.04190784 0.00080941
v 0.05517678 -0.04341970 0.00008377
v 0.05603938 -0.04437427 -0.00048704
v 0.05701579 -0.04341970 -0.00074687
v 0.05520973 -0.04489902 -0.00027837
v 0.05366724 -0.04493020 0.00031533
v 0.05138195 -0.04566376 0.00096827
v 0.05215769 -0.04644206 0.00045803
v 0.05226551 -0.04806918 -0.00014240
v 0.05284358 -0.04865087 -0.00056243
v 0.05226551 -0.04952137 -0.00074821
v 0.05119925 -0.05006239 -0.00060955
v 0.05351449 -0.05069154 -0.00179291
v 0.04931531 -0.05069154 -0.00030664
v 0.05019289 -0.05043527 -0.00043319
v 0.05067510 -0.04952137 -0.00019625
v 0.05064515 -0.04795392 0.00042572
v 0.04983647 -0.04714308 0.00095750
v 0.04913261 -0.04341970 0.00201969
v 0.05078592 -0.04506851 0.00126309
v 0.05064515 -0.04341970 0.00163062
v 0.04762007 -0.04347393 0.00235087
v 0.04711689 -0.04300478 0.00254069
v 0.04762007 -0.04178174 0.00257704
v 0.04812325 -0.04220207 0.00242626
v 0.04899483 -0.04178174 0.00227548
v 0.05064515 -0.04190784 0.00183525
v 0.05064515 -0.04039733 0.00196988
v 0.04920449 -0.04039733 0.00232395
v 0.05064515 -0.03888547 0.00202238
v 0.05064515 -0.03684209 0.00194969
v 0.04957289 -0.03684209 0.00219874
v 0.05215769 -0.03737361 0.00158889
v 0.05215769 -0.03684209 0.00155927
v 0.05117828 -0.03684209 0.00181641
v 0.05771964 -0.03684209 -0.00041569
v 0.05668932 -0.03737361 0.00002319
v 0.05517678 -0.03888547 0.00060343
v 0.05417042 -0.04039733 0.00088345
v 0.05357438 -0.04336817 0.00070305
v 0.05320299 -0.04190784 0.00107462
v 0.05300831 -0.04282851 0.00100596
v 0.05219064 -0.04506851 0.00082018
v 0.05078592 -0.04656003 0.00085922
v 0.05170842 -0.04465630 0.00107731
v 0.05183422 -0.04905494 -0.00038876
v 0.05043249 -0.05069154 -0.00064724
v 0.05083085 -0.05069154 -0.00079129
v 0.05227450 -0.05069154 -0.00132980
v 0.04993830 -0.05069154 -0.00048704
v 0.05219064 -0.04336817 0.00116886
v 0.05215769 -0.04190784 0.00139907
v 0.05215769 -0.04039733 0.00154850
v 0.05215769 -0.03888547 0.00160908
v 0.05356540 -0.03737361 0.00117963
v 0.05260696 -0.03684209 0.00143003
v 0.05704574 -0.03684209 -0.00013567
v 0.05668932 -0.03684209 0.00001242
v 0.05517678 -0.03737361 0.00061824
v 0.05432017 -0.03737361 0.00093999
v 0.05428423 -0.03888547 0.00092653
v 0.05341564 -0.04039733 0.00114597
v 0.05271479 -0.04383461 0.00090768
v 0.05352946 -0.03888547 0.00117828
v 0.05352047 -0.03684209 0.00116347
v 0.05427524 -0.03684209 0.00092653
v 0.05378704 -0.03684209 0.00108135
v 0.05570991 -0.03684209 0.00039745
v 0.05462268 -0.03684209 0.00080671
f 1 2 3
f 1 3 7
f 1 7 15
f 1 15 17
f 1 17 26
f 1 26 48
f 1 48 47
f 1 47 46
f 1 46 78
f 1 78 120
f 1 120 119
f 1 119 164
f 1 164 138
f 1 138 137
f 1 137 135
f 1 135 94
f 1 94 93
f 1 93 59
f 1 59 34
f 1 34 19
f 1 19 9
f 1 9 4
f 1 4 11
f 1 11 21
f 1 21 40
f 1 40 73
f 1 73 116
f 1 116 163
f 1 163 210
f 1 210 209
f 1 209 249
f 1 249 297
f 1 297 296
f 1 296 295
f 1 295 340
f 1 340 377
f 1 377 376
f 1 376 380
f 1 380 379
f 1 379 401
f 1 401 410
f 1 410 412
f 1 412 411
f 1 411 414
f 1 414 413
f 1 413 403
f 1 403 402
f 1 402 381
f 1 381 341
f 1 341 299
f 1 299 298
f 1 298 254
f 1 254 253
f 1 253 252
f 1 252 251
f 1 251 250
f 1 250 211
f 1 211 168
f 1 168 167
f 1 167 166
f 1 166 165
f 1 165 123
f 1 123 82
f 1 82 81
f 1 81 80
f 1 80 74
f 1 74 43
f 1 43 42
f 1 42 41
f 1 41 22
f 1 22 12
f 1 12 5
f 1 5 2
f 2 5 6
f 2 6 3
f 3 6 8
f 3 8 7
f 4 9 10
f 4 10 11
f 5 12 6
f 6 12 13
f 6 13 14
f 6 14 8
f 7 8 15
f 8 16 17
f 8 17 15
f 8 14 18
f 8 18 16
f 9 19 36
f 9 36 65
f 9 65 103
f 9 103 102
f 9 102 101
f 9 101 146
f 9 146 186
f 9 186 185
f 9 185 184
f 9 184 226
f 9 226 225
f 9 225 266
f 9 266 265
f 9 265 279
f 9 279 278
f 9 278 321
f 9 321 320
f 9 320 319
f 9 319 318
f 9 318 358
f 9 358 394
f 9 394 393
f 9 393 392
f 9 392 395
f 9 395 359
f 9 359 322
f 9 322 280
f 9 280 234
f 9 234 233
f 9 233 191
f 9 191 190
f 9 190 189
f 9 189 148
f 9 148 105
f 9 105 67
f 9 67 38
f 9 38 20
f 9 20 10
f 10 20 37
f 10 37 66
f 10 66 104
f 10 104 147
f 10 147 155
f 10 155 154
f 10 154 198
f 10 198 241
f 10 241 243
f 10 243 202
f 10 202 201
f 10 201 158
f 10 158 112
f 10 112 111
f 10 111 110
f 10 110 70
f 10 70 39
f 10 39 21
f 10 21 11
f 12 22 13
f 13 22 23
f 13 23 14
f 14 23 24
f 14 24 18
f 16 25 17
f 16 18 25
f 17 25 26
f 18 27 28
f 18 28 29
f 18 29 25
f 18 24 30
f 18 30 31
f 18 31 32
f 18 32 33
f 18 33 27
f 19 34 35
f 19 35 36
f 20 38 37
f 21 39 72
f 21 72 40
f 22 41 23
f 23 42 43
f 23 43 44
f 23 44 24
f 23 41 42
f 24 44 30
f 25 29 45
f 25 45 46
f 25 46 47
f 25 47 48
f 25 48 26
f 27 49 28
f 27 33 49
f 28 49 50
f 28 50 45
f 28 45 29
f 30 44 51
f 30 51 52
f 30 52 53
f 30 53 54
f 30 54 31
f 31 54 55
f 31 55 56
f 31 56 32
f 32 56 33
f 33 56 57
f 33 57 58
f 33 58 49
f 34 59 35
f 35 59 60
f 35 60 61
f 35 61 62
f 35 62 63
f 35 63 64
f 35 64 65
f 35 65 36
f 37 38 67
f 37 67 68
f 37 68 69
f 37 69 66
f 39 70 71
f 39 71 72
f 40 72 73
f 43 74 44
f 44 74 51
f 45 50 49
f 45 49 75
f 45 75 76
f 45 76 46
f 46 76 77
f 46 77 78
f 49 58 79
f 49 79 75
f 51 80 81
f 51 81 82
f 51 82 83
f 51 83 84
f 51 84 52
f 51 74 80
f 52 84 53
f 53 84 85
f 53 85 86
f 53 86 87
f 53 87 88
f 53 88 54
f 54 89 56
f 54 56 55
f 54 88 90
f 54 90 89
f 56 89 57
f 57 89 91
f 57 91 92
f 57 92 58
f 58 92 79
f 59 93 60
f 60 93 94
f 60 94 95
f 60 95 61
f 61 95 62
f 62 95 96
f 62 96 97
f 62 97 98
f 62 98 63
f 63 98 64
f 64 98 99
f 64 99 100
f 64 100 101
f 64 101 102
f 64 102 103
f 64 103 65
f 66 69 104
f 67 105 68
f 68 105 106
f 68 106 69
f 69 107 104
f 69 106 108
f 69 108 109
f 69 109 107
f 70 110 71
f 71 110 111
f 71 111 112
f 71 112 113
f 71 113 160
f 71 160 114
f 71 114 115
f 71 115 72
f 72 115 116
f 72 116 73
f 75 77 76
f 75 79 77
f 77 79 117
f 77 117 118
f 77 118 119
f 77 119 120
f 77 120 78
f 79 92 121
f 79 121 122
f 79 122 117
f 82 123 124
f 82 124 83
f 83 124 86
f 83 86 84
f 84 86 85
f 86 124 125
f 86 125 126
f 86 126 127
f 86 127 87
f 87 128 90
f 87 90 88
f 87 127 129
f 87 129 128
f 89 90 130
f 89 130 91
f 90 128 130
f 91 130 131
f 91 131 92
f 92 131 132
f 92 132 133
f 92 133 134
f 92 134 121
f 94 135 95
f 95 136 96
f 95 135 137
f 95 137 138
f 95 138 139
f 95 139 136
f 96 140 141
f 96 141 142
f 96 142 97
f 96 136 122
f 96 122 140
f 97 142 143
f 97 143 98
f 98 143 99
f 99 143 100
f 100 143 144
f 100 144 145
f 100 145 146
f 100 146 101
f 104 107 147
f 105 148 149
f 105 149 106
f 106 149 150
f 106 150 151
f 106 151 152
f 106 152 108
f 107 153 154
f 107 154 155
f 107 155 147
f 107 109 153
f 108 152 156
f 108 156 109
f 109 156 157
f 109 157 153
f 112 158 113
f 113 158 159
f 113 159 160
f 114 160 161
f 114 161 162
f 114 162 115
f 115 162 163
f 115 163 116
f 117 139 118
f 117 122 139
f 118 164 119
f 118 139 164
f 121 134 122
f 122 134 140
f 122 136 139
f 123 165 124
f 124 166 125
f 124 165 166
f 125 166 167
f 125 167 168
f 125 168 169
f 125 169 126
f 126 169 170
f 126 170 127
f 127 170 171
f 127 171 172
f 127 172 173
f 127 173 129
f 128 129 174
f 128 174 175
f 128 175 176
f 128 176 130
f 129 173 174
f 130 176 175
f 130 175 131
f 131 175 177
f 131 177 132
f 132 177 178
f 132 178 179
f 132 179 133
f 133 179 142
f 133 142 134
f 134 141 140
f 134 142 141
f 138 164 139
f 142 179 180
f 142 180 181
f 142 181 143
f 143 181 182
f 143 182 144
f 144 182 145
f 145 183 184
f 145 184 185
f 145 185 186
f 145 186 146
f 145 182 187
f 145 187 188
f 145 188 183
f 148 189 150
f 148 150 149
f 150 189 190
f 150 190 191
f 150 191 192
f 150 192 151
f 151 192 193
f 151 193 194
f 151 194 152
f 152 195 156
f 152 194 196
f 152 196 195
f 153 197 198
f 153 198 154
f 153 157 199
f 153 199 197
f 156 195 200
f 156 200 157
f 157 200 199
f 158 201 159
f 159 201 202
f 159 202 203
f 159 203 204
f 159 204 205
f 159 205 160
f 160 205 206
f 160 206 161
f 161 206 207
f 161 207 208
f 161 208 162
f 162 208 209
f 162 209 210
f 162 210 163
f 168 211 169
f 169 211 212
f 169 212 170
f 170 212 213
f 170 213 214
f 170 214 215
f 170 215 171
f 171 215 216
f 171 216 172
f 172 217 218
f 172 218 219
f 172 219 173
f 172 216 217
f 173 219 174
f 174 219 175
f 175 220 177
f 175 219 221
f 175 221 220
f 177 220 178
f 178 220 222
f 178 222 180
f 178 180 179
f 180 187 182
f 180 182 181
f 180 222 223
f 180 223 188
f 180 188 187
f 183 188 224
f 183 224 225
f 183 225 226
f 183 226 184
f 188 227 228
f 188 228 229
f 188 229 230
f 188 230 231
f 188 231 232
f 188 232 224
f 188 223 227
f 191 233 193
f 191 193 192
f 193 233 234
f 193 234 235
f 193 235 236
f 193 236 194
f 194 236 196
f 195 196 237
f 195 237 238
f 195 238 200
f 196 236 239
f 196 239 240
f 196 240 237
f 197 203 198
f 197 199 204
f 197 204 203
f 198 203 241
f 199 200 242
f 199 242 204
f 200 238 242
f 202 243 203
f 203 243 241
f 204 242 244
f 204 244 245
f 204 245 205
f 205 245 206
f 206 245 290
f 206 290 246
f 206 246 207
f 207 246 247
f 207 247 248
f 207 248 208
f 208 248 249
f 208 249 209
f 211 250 212
f 212 251 252
f 212 252 213
f 212 250 251
f 213 252 253
f 213 253 254
f 213 254 255
f 213 255 214
f 214 255 256
f 214 256 257
f 214 257 258
f 214 258 215
f 215 258 216
f 216 258 217
f 217 258 259
f 217 259 260
f 217 260 261
f 217 261 218
f 218 261 262
f 218 262 263
f 218 263 221
f 218 221 219
f 220 221 264
f 220 264 222
f 221 263 264
f 222 264 223
f 223 264 227
f 224 232 265
f 224 265 266
f 224 266 225
f 227 264 267
f 227 267 228
f 228 267 268
f 228 268 269
f 228 269 270
f 228 270 271
f 228 271 272
f 228 272 273
f 228 273 274
f 228 274 275
f 228 275 276
f 228 276 229
f 229 276 230
f 230 276 277
f 230 277 278
f 230 278 232
f 230 232 231
f 232 278 279
f 232 279 265
f 234 280 235
f 235 280 281
f 235 281 282
f 235 282 283
f 235 283 236
f 236 283 239
f 237 240 284
f 237 284 238
f 238 284 285
f 238 285 242
f 239 283 286
f 239 286 287
f 239 287 240
f 240 287 288
f 240 288 284
f 242 285 289
f 242 289 244
f 244 289 290
f 244 290 245
f 246 290 291
f 246 291 247
f 247 291 292
f 247 292 293
f 247 293 294
f 247 294 248
f 248 294 295
f 248 295 296
f 248 296 297
f 248 297 249
f 254 298 255
f 255 298 299
f 255 299 300
f 255 300 301
f 255 301 256
f 256 301 257
f 257 301 302
f 257 302 259
f 257 259 258
f 259 302 303
f 259 303 304
f 259 304 305
f 259 305 306
f 259 306 307
f 259 307 260
f 260 307 308
f 260 308 261
f 261 308 262
f 262 308 309
f 262 309 269
f 262 269 263
f 263 269 268
f 263 268 264
f 264 268 267
f 269 309 270
f 270 310 271
f 270 309 310
f 271 310 311
f 271 311 272
f 272 311 273
f 273 312 313
f 273 313 314
f 273 314 274
f 273 311 315
f 273 315 312
f 274 314 275
f 275 314 316
f 275 316 277
f 275 277 276
f 277 316 317
f 277 317 318
f 277 318 319
f 277 319 320
f 277 320 321
f 277 321 278
f 280 322 281
f 281 322 323
f 281 323 282
f 282 286 283
f 282 323 324
f 282 324 325
f 282 325 286
f 284 288 326
f 284 326 285
f 285 326 289
f 286 325 287
f 287 325 327
f 287 327 328
f 287 328 329
f 287 329 288
f 288 329 330
f 288 330 326
f 289 326 331
f 289 331 332
f 289 332 290
f 290 332 291
f 291 332 333
f 291 333 334
f 291 334 292
f 292 334 335
f 292 335 336
f 292 336 293
f 293 336 337
f 293 337 338
f 293 338 339
f 293 339 340
f 293 340 295
f 293 295 294
f 299 341 342
f 299 342 300
f 300 342 343
f 300 343 301
f 301 343 302
f 302 343 344
f 302 344 303
f 303 344 345
f 303 345 304
f 304 345 346
f 304 346 347
f 304 347 305
f 305 347 306
f 306 347 348
f 306 348 349
f 306 349 307
f 307 349 308
f 308 349 348
f 308 348 310
f 308 310 309
f 310 348 311
f 311 348 350
f 311 350 351
f 311 351 315
f 312 315 351
f 312 351 352
f 312 352 353
f 312 353 313
f 313 353 354
f 313 354 355
f 313 355 314
f 314 355 316
f 316 355 356
f 316 356 317
f 317 356 357
f 317 357 358
f 317 358 318
f 322 359 323
f 323 359 360
f 323 360 361
f 323 361 362
f 323 362 324
f 324 362 363
f 324 363 325
f 325 363 327
f 326 330 331
f 327 363 352
f 327 352 328
f 328 364 329
f 328 352 365
f 328 365 366
f 328 366 364
f 329 364 330
f 330 367 368
f 330 368 331
f 330 364 367
f 331 368 332
f 332 368 369
f 332 369 333
f 333 335 334
f 333 369 368
f 333 368 370
f 333 370 371
f 333 371 372
f 333 372 373
f 333 373 374
f 333 374 335
f 335 374 375
f 335 375 337
f 335 337 336
f 337 375 338
f 338 376 377
f 338 377 339
f 338 375 378
f 338 378 379
f 338 379 380
f 338 380 376
f 339 377 340
f 341 381 342
f 342 381 382
f 342 382 344
f 342 344 343
f 344 382 383
f 344 383 345
f 345 383 384
f 345 384 346
f 346 385 347
f 346 384 386
f 346 386 387
f 346 387 385
f 347 350 348
f 347 385 351
f 347 351 350
f 351 385 388
f 351 388 352
f 352 363 389
f 352 389 353
f 352 388 390
f 352 390 365
f 353 389 362
f 353 362 354
f 354 362 361
f 354 361 391
f 354 391 355
f 355 391 357
f 355 357 356
f 357 361 360
f 357 360 392
f 357 392 393
f 357 393 394
f 357 394 358
f 357 391 361
f 359 395 360
f 360 395 392
f 362 389 363
f 364 371 370
f 364 370 368
f 364 368 367
f 364 366 372
f 364 372 371
f 365 390 366
f 366 390 396
f 366 396 387
f 366 387 397
f 366 397 372
f 372 397 398
f 372 398 373
f 373 375 374
f 373 398 399
f 373 399 375
f 375 399 378
f 378 399 400
f 378 400 401
f 378 401 379
f 381 402 382
f 382 402 403
f 382 403 404
f 382 404 383
f 383 404 405
f 383 405 406
f 383 406 384
f 384 406 407
f 384 407 386
f 385 387 408
f 385 408 388
f 386 398 397
f 386 397 387
f 386 407 398
f 387 396 408
f 388 408 390
f 390 408 396
f 398 407 409
f 398 409 399
f 399 409 400
f 400 410 401
f 400 409 405
f 400 405 411
f 400 411 412
f 400 412 410
f 403 413 404
f 404 414 405
f 404 413 414
f 405 409 406
f 405 414 411
f 406 409 407

