# https://github.com/mikedh/trimesh
v 0.01297622 -0.00765341 -0.00306245
v 0.01297622 -0.00765341 0.00306245
v 0.01082673 -0.00705140 -0.00306245
v 0.01082673 -0.00705112 -0.00361926
v 0.01297622 -0.00765140 -0.00361926
v 0.01297622 -0.00765140 0.00361926
v 0.01082673 -0.00705112 0.00361926
v 0.01082673 -0.00705140 0.00306245
v 0.01082673 -0.00688396 -0.00418023
v 0.01297622 -0.00763532 -0.00368575
v 0.01297622 -0.00748424 0.00416257
v 0.01082673 -0.00688396 0.00418023
v 0.01082673 -0.00689573 0.00414179
v 0.01082673 -0.00670186 -0.00447318
v 0.01297622 -0.00748424 -0.00416257
v 0.01297622 -0.00739233 0.00429658
v 0.01082673 -0.00670186 0.00447318
v 0.01082673 -0.00668434 -0.00449084
v 0.01297622 -0.00726308 -0.00447318
v 0.01297622 -0.00744949 -0.00421763
v 0.01283271 -0.00723005 0.00444305
v 0.01297622 -0.00705514 0.00466536
v 0.01082673 -0.00642211 0.00475158
v 0.01082673 -0.00642211 -0.00475158
v 0.01082673 -0.00614351 -0.00502791
v 0.01297622 -0.00693968 -0.00477651
v 0.01297622 -0.00697386 0.00474431
v 0.01082673 -0.00614351 0.00502791
v 0.01082673 -0.00616160 0.00501025
v 0.01082673 -0.00612972 -0.00503622
v 0.01297622 -0.00668233 -0.00501025
v 0.01297622 -0.00687218 0.00483676
v 0.01286511 -0.00665878 0.00499051
v 0.01297622 -0.00654073 0.00508297
v 0.01297622 -0.00642556 0.00515464
v 0.01082673 -0.00585169 0.00517334
v 0.01082673 -0.00585169 -0.00517334
v 0.01297622 -0.00642556 -0.00515465
v 0.01297622 -0.00584854 0.00530320
v 0.01253096 -0.00584854 0.00529177
v 0.01200174 -0.00584854 0.00525749
v 0.01082673 -0.00529162 0.00530631
v 0.01297622 -0.00634571 -0.00517958
v 0.01082673 -0.00581493 -0.00518373
v 0.01200174 -0.00584854 -0.00525749
v 0.01297622 -0.00529133 0.00530631
v 0.01200174 -0.00529162 0.00530631
v 0.01082673 -0.00472034 0.00530631
v 0.01253096 -0.00584854 -0.00529177
v 0.01297622 -0.00584854 -0.00530320
v 0.01082673 -0.00529162 -0.00530631
v 0.01297622 -0.00471919 0.00530631
v 0.01086040 -0.00471919 0.00530631
v 0.01082673 -0.00471919 -0.00493234
v 0.01297622 -0.00573681 -0.00530631
v 0.01082673 -0.00471919 -0.00530631
v 0.01297622 -0.00471919 -0.00530631
f 1 2 8
f 1 8 3
f 1 3 4
f 1 4 5
f 1 5 10
f 1 10 15
f 1 15 20
f 1 20 19
f 1 19 26
f 1 26 31
f 1 31 38
f 1 38 43
f 1 43 50
f 1 50 55
f 1 55 57
f 1 57 52
f 1 52 46
f 1 46 39
f 1 39 35
f 1 35 34
f 1 34 32
f 1 32 27
f 1 27 22
f 1 22 16
f 1 16 11
f 1 11 6
f 1 6 2
f 2 6 7
f 2 7 8
f 3 8 7
f 3 7 13
f 3 13 12
f 3 12 17
f 3 17 23
f 3 23 29
f 3 29 28
f 3 28 36
f 3 36 42
f 3 42 48
f 3 48 54
f 3 54 56
f 3 56 51
f 3 51 44
f 3 44 37
f 3 37 30
f 3 30 25
f 3 25 24
f 3 24 18
f 3 18 14
f 3 14 9
f 3 9 4
f 4 9 10
f 4 10 5
f 6 11 12
f 6 12 13
f 6 13 7
f 9 14 15
f 9 15 10
f 11 16 17
f 11 17 12
f 14 18 19
f 14 19 20
f 14 20 15
f 16 21 17
f 16 22 21
f 17 21 22
f 17 22 23
f 18 24 19
f 19 24 25
f 19 25 26
f 22 27 28
f 22 28 29
f 22 29 23
f 25 30 31
f 25 31 26
f 27 32 28
f 28 32 33
f 28 33 34
f 28 34 35
f 28 35 36
f 30 37 38
f 30 38 31
f 32 34 33
f 35 39 40
f 35 40 41
f 35 41 36
f 36 41 42
f 37 43 38
f 37 44 45
f 37 45 43
f 39 42 40
f 39 46 47
f 39 47 42
f 40 42 41
f 42 47 46
f 42 46 52
f 42 52 53
f 42 53 48
f 43 45 49
f 43 49 50
f 44 51 45
f 45 51 49
f 48 53 54
f 49 51 50
f 50 51 55
f 51 56 57
f 51 57 55
f 52 57 56
f 52 56 54
f 52 54 53

