# https://github.com/mikedh/trimesh
v 0.00301975 -0.01586089 0.00306245
v 0.00284504 -0.01361445 0.00361926
v 0.00301916 -0.01586089 0.00361926
v 0.00301975 -0.01586089 -0.00306245
v 0.00281789 -0.01361445 0.00394130
v 0.00284504 -0.01361445 -0.00361926
v 0.00281434 -0.01361445 0.00396415
v 0.00290111 -0.01586089 0.00410647
v 0.00301916 -0.01586089 -0.00361926
v 0.00281434 -0.01361445 -0.00396415
v 0.00265911 -0.01361445 0.00422697
v 0.00273289 -0.01586089 0.00438488
v 0.00301739 -0.01586089 -0.00362861
v 0.00290111 -0.01586089 -0.00410647
v 0.00280549 -0.01361445 -0.00397974
v 0.00264966 -0.01361445 0.00424256
v 0.00238700 -0.01361445 0.00458017
v 0.00237165 -0.01361445 0.00459887
v 0.00245429 -0.01586089 0.00467679
v 0.00289757 -0.01586089 -0.00411270
v 0.00264966 -0.01361445 -0.00424256
v 0.00210781 -0.01361445 0.00486170
v 0.00209187 -0.01361445 0.00487728
v 0.00216743 -0.01586089 0.00495519
v 0.00273289 -0.01586089 -0.00438488
v 0.00237165 -0.01361445 -0.00459887
v 0.00182921 -0.01361445 0.00511517
v 0.00181386 -0.01361445 0.00512867
v 0.00188883 -0.01586089 0.00515464
v 0.00272640 -0.01586089 -0.00439215
v 0.00245429 -0.01586089 -0.00467679
v 0.00209187 -0.01361445 -0.00487728
v 0.00141721 -0.01361445 0.00526684
v 0.00139183 -0.01361445 0.00527515
v 0.00139183 -0.01586089 0.00530216
v 0.00216743 -0.01586089 -0.00495519
v 0.00181386 -0.01361445 -0.00512867
v 0.00086592 -0.01361445 0.00530527
v 0.00083522 -0.01361445 0.00530631
v 0.00083522 -0.01586089 0.00530631
v 0.00216152 -0.01586089 -0.00496038
v 0.00188883 -0.01586089 -0.00515465
v 0.00139183 -0.01361445 -0.00527515
v -0.00083519 -0.01361445 0.00530631
v -0.00083519 -0.01586089 0.00530631
v 0.00187879 -0.01586089 -0.00515776
v 0.00139183 -0.01586089 -0.00530216
v 0.00083522 -0.01361445 -0.00530631
v -0.00139180 -0.01361445 0.00527307
v -0.00139180 -0.01586089 0.00530112
v 0.00083522 -0.01586089 -0.00530631
v -0.00083519 -0.01361445 -0.00530631
v -0.00180852 -0.01361445 0.00512556
v -0.00188407 -0.01586089 0.00515361
v -0.00187404 -0.01586089 0.00515672
v -0.00083519 -0.01586089 -0.00530631
v -0.00139180 -0.01586089 -0.00530112
v -0.00139180 -0.01361445 -0.00527307
v -0.00208712 -0.01361445 0.00487208
v -0.00216267 -0.01586089 0.00495000
v -0.00215618 -0.01586089 0.00495519
v -0.00188407 -0.01586089 -0.00515361
v -0.00141659 -0.01361445 -0.00526476
v -0.00235096 -0.01361445 0.00460926
v -0.00244954 -0.01586089 0.00467159
v -0.00216267 -0.01586089 -0.00495000
v -0.00180852 -0.01361445 -0.00512556
v -0.00236631 -0.01361445 0.00459368
v -0.00272164 -0.01586089 0.00438488
v -0.00244954 -0.01586089 -0.00467159
v -0.00208712 -0.01361445 -0.00487208
v -0.00182387 -0.01361445 -0.00511205
v -0.00264491 -0.01361445 0.00423217
v -0.00272755 -0.01586089 0.00437760
v -0.00272755 -0.01586089 -0.00437760
v -0.00236631 -0.01361445 -0.00459368
v -0.00210306 -0.01361445 -0.00485650
v -0.00280074 -0.01361445 0.00396935
v -0.00289282 -0.01586089 0.00410543
v -0.00289636 -0.01586089 -0.00409920
v -0.00265435 -0.01361445 -0.00421763
v -0.00264491 -0.01361445 -0.00423217
v -0.00238166 -0.01361445 -0.00457498
v -0.00280959 -0.01361445 0.00395376
v -0.00289636 -0.01586089 0.00409920
v -0.00300969 -0.01586089 -0.00361926
v -0.00280959 -0.01361445 -0.00395376
v -0.00283556 -0.01361445 0.00361926
v -0.00300969 -0.01586089 0.00361926
v -0.00300792 -0.01586089 0.00362861
v -0.00301028 -0.01586089 -0.00306245
v -0.00283556 -0.01361445 -0.00361926
v -0.00281313 -0.01361445 -0.00393195
v -0.00301028 -0.01586089 0.00306245
f 1 2 3
f 1 3 8
f 1 8 12
f 1 12 19
f 1 19 24
f 1 24 29
f 1 29 35
f 1 35 40
f 1 40 45
f 1 45 50
f 1 50 55
f 1 55 54
f 1 54 61
f 1 61 60
f 1 60 65
f 1 65 69
f 1 69 74
f 1 74 79
f 1 79 85
f 1 85 90
f 1 90 89
f 1 89 94
f 1 94 91
f 1 91 86
f 1 86 80
f 1 80 75
f 1 75 70
f 1 70 66
f 1 66 62
f 1 62 57
f 1 57 56
f 1 56 51
f 1 51 47
f 1 47 46
f 1 46 42
f 1 42 41
f 1 41 36
f 1 36 31
f 1 31 30
f 1 30 25
f 1 25 20
f 1 20 14
f 1 14 13
f 1 13 9
f 1 9 4
f 1 4 6
f 1 6 2
f 2 5 3
f 2 6 10
f 2 10 15
f 2 15 21
f 2 21 26
f 2 26 32
f 2 32 37
f 2 37 43
f 2 43 48
f 2 48 52
f 2 52 58
f 2 58 63
f 2 63 67
f 2 67 72
f 2 72 71
f 2 71 77
f 2 77 76
f 2 76 83
f 2 83 82
f 2 82 81
f 2 81 87
f 2 87 93
f 2 93 92
f 2 92 88
f 2 88 84
f 2 84 78
f 2 78 73
f 2 73 68
f 2 68 64
f 2 64 59
f 2 59 53
f 2 53 49
f 2 49 44
f 2 44 39
f 2 39 38
f 2 38 34
f 2 34 33
f 2 33 28
f 2 28 27
f 2 27 23
f 2 23 22
f 2 22 18
f 2 18 17
f 2 17 16
f 2 16 11
f 2 11 7
f 2 7 5
f 3 5 7
f 3 7 8
f 4 9 6
f 6 9 10
f 7 11 8
f 8 11 12
f 9 13 10
f 10 14 20
f 10 20 15
f 10 13 14
f 11 16 12
f 12 16 17
f 12 17 18
f 12 18 19
f 15 20 21
f 18 22 19
f 19 22 23
f 19 23 24
f 20 25 21
f 21 25 26
f 23 27 24
f 24 27 28
f 24 28 29
f 25 30 26
f 26 31 32
f 26 30 31
f 28 33 29
f 29 33 34
f 29 34 35
f 31 36 32
f 32 36 37
f 34 38 35
f 35 38 39
f 35 39 40
f 36 41 37
f 37 42 43
f 37 41 42
f 39 44 45
f 39 45 40
f 42 46 43
f 43 46 47
f 43 47 48
f 44 49 50
f 44 50 45
f 47 51 48
f 48 51 56
f 48 56 52
f 49 53 54
f 49 54 55
f 49 55 50
f 52 56 57
f 52 57 58
f 53 59 60
f 53 60 61
f 53 61 54
f 57 62 58
f 58 62 63
f 59 64 65
f 59 65 60
f 62 66 67
f 62 67 63
f 64 68 65
f 65 68 69
f 66 70 71
f 66 71 72
f 66 72 67
f 68 73 74
f 68 74 69
f 70 75 76
f 70 76 77
f 70 77 71
f 73 78 79
f 73 79 74
f 75 80 81
f 75 81 82
f 75 82 83
f 75 83 76
f 78 84 85
f 78 85 79
f 80 86 87
f 80 87 81
f 84 88 89
f 84 89 90
f 84 90 85
f 86 91 92
f 86 92 93
f 86 93 87
f 88 94 89
f 88 92 91
f 88 91 94

