# https://github.com/mikedh/trimesh
v 0.02312313 -0.01418596 0.00361926
v 0.02214237 -0.01248666 0.00361926
v 0.02229456 -0.01278006 0.00400259
v 0.02307421 -0.01418596 0.00417607
v 0.02312313 -0.01418596 -0.00361926
v 0.02207836 -0.01237610 0.00361926
v 0.02214237 -0.01248666 -0.00361926
v 0.02204635 -0.01237610 0.00399116
v 0.02202944 -0.01237610 0.00418127
v 0.02214117 -0.01256922 0.00418334
v 0.02226255 -0.01283516 0.00437345
v 0.02287854 -0.01384596 0.00417607
v 0.02284774 -0.01389946 0.00447733
v 0.02292987 -0.01418596 0.00458225
v 0.02307421 -0.01418596 -0.00417607
v 0.02229456 -0.01278006 -0.00400155
v 0.02207836 -0.01237610 -0.00361926
v 0.02183075 -0.01237610 0.00464874
v 0.02236884 -0.01320653 0.00458017
v 0.02220699 -0.01347849 0.00495207
v 0.02269012 -0.01418596 0.00486170
v 0.02307059 -0.01418596 -0.00419269
v 0.02284774 -0.01390000 -0.00447629
v 0.02226195 -0.01283570 -0.00437241
v 0.02287854 -0.01384631 -0.00417607
v 0.02206628 -0.01237610 -0.00375950
v 0.02202944 -0.01237610 -0.00418023
v 0.02164294 -0.01237610 0.00487001
v 0.02162240 -0.01241083 0.00491779
v 0.02173534 -0.01278201 0.00502271
v 0.02231751 -0.01384985 0.00503934
v 0.02241232 -0.01418596 0.00508400
v 0.02292927 -0.01418596 -0.00458225
v 0.02292142 -0.01418596 -0.00459264
v 0.02236884 -0.01320706 -0.00458121
v 0.02183015 -0.01237610 -0.00464874
v 0.02197871 -0.01237610 -0.00434748
v 0.02161093 -0.01237610 0.00490740
v 0.02136272 -0.01237610 0.00508608
v 0.02181807 -0.01308835 0.00506738
v 0.02143881 -0.01257046 0.00510063
v 0.02201253 -0.01365655 0.00512036
v 0.02199925 -0.01418596 0.00522528
v 0.02269073 -0.01418596 -0.00486170
v 0.02220760 -0.01347796 -0.00495207
v 0.02162240 -0.01241100 -0.00491779
v 0.02161093 -0.01237610 -0.00490741
v 0.02089711 -0.01237610 0.00523152
v 0.02144183 -0.01308835 0.00520555
v 0.02088503 -0.01253148 0.00526060
v 0.02144183 -0.01364521 0.00527411
v 0.02144183 -0.01418596 0.00530008
v 0.02267804 -0.01418596 -0.00487416
v 0.02173534 -0.01278237 -0.00502271
v 0.02231751 -0.01384932 -0.00503830
v 0.02158194 -0.01237610 -0.00493441
v 0.02032762 -0.01237610 0.00530008
v 0.02088503 -0.01308835 0.00529696
v 0.02032762 -0.01253148 0.00530424
v 0.02088503 -0.01364521 0.00530527
v 0.02090133 -0.01418596 0.00530527
v 0.02241293 -0.01418596 -0.00508400
v 0.02181868 -0.01308835 -0.00506738
v 0.02136272 -0.01237610 -0.00508608
v 0.01977141 -0.01237610 0.00530631
v 0.02032762 -0.01308835 0.00530631
v 0.02032762 -0.01418596 0.00530631
v 0.02240508 -0.01418596 -0.00508712
v 0.02143881 -0.01257064 -0.00510063
v 0.02128421 -0.01237610 -0.00511517
v 0.01921460 -0.01237610 0.00530631
v 0.01921460 -0.01418596 0.00530631
v 0.02201253 -0.01365620 -0.00512036
v 0.02199925 -0.01418596 -0.00522529
v 0.02144183 -0.01308835 -0.00520451
v 0.02089711 -0.01237610 -0.00523152
v 0.01865780 -0.01237610 0.00530527
v 0.01865780 -0.01253148 0.00530527
v 0.01865780 -0.01308835 0.00529800
v 0.01867410 -0.01418596 0.00528242
v 0.02198234 -0.01418596 -0.00522944
v 0.02088503 -0.01253148 -0.00526061
v 0.02072922 -0.01237610 -0.00526892
v 0.01811427 -0.01237610 0.00515672
v 0.01865780 -0.01418596 0.00528138
v 0.02144183 -0.01364521 -0.00527411
v 0.02144183 -0.01418596 -0.00530008
v 0.02088503 -0.01308835 -0.00529593
v 0.02032762 -0.01237610 -0.00530112
v 0.01822660 -0.01418596 0.00513491
v 0.01784735 -0.01237610 0.00498947
v 0.02142553 -0.01418596 -0.00530112
v 0.02032762 -0.01253148 -0.00530424
v 0.02017241 -0.01237610 -0.00530527
v 0.01794820 -0.01418596 0.00488663
v 0.01755928 -0.01237610 0.00471418
v 0.02088503 -0.01364521 -0.00530527
v 0.02086872 -0.01418596 -0.00530631
v 0.02032762 -0.01308835 -0.00530631
v 0.01977141 -0.01237610 -0.00530631
v 0.01767765 -0.01418596 0.00461549
v 0.01728148 -0.01237610 0.00443370
v 0.01921460 -0.01418596 -0.00530631
v 0.01905940 -0.01237610 -0.00530631
v 0.01766980 -0.01418596 0.00460718
v 0.01711299 -0.01237610 0.00416257
v 0.01739079 -0.01418596 0.00426022
v 0.01865780 -0.01253148 -0.00530527
v 0.01865780 -0.01418596 -0.00528138
v 0.01865780 -0.01308835 -0.00529800
v 0.01865780 -0.01237610 -0.00530527
v 0.01722652 -0.01418596 0.00398181
v 0.01723135 -0.01418596 0.00399012
v 0.01695718 -0.01237610 0.00361926
v 0.01847481 -0.01237610 -0.00525957
v 0.01864451 -0.01418596 -0.00527723
v 0.01811427 -0.01237610 -0.00515672
v 0.01718787 -0.01418596 0.00361926
v 0.01695355 -0.01237610 0.00306245
v 0.01822660 -0.01418596 -0.00513491
v 0.01798323 -0.01237610 -0.00507985
v 0.01718787 -0.01418596 -0.00361926
v 0.01695355 -0.01237610 -0.00306245
v 0.01821815 -0.01418596 -0.00512764
v 0.01784735 -0.01237610 -0.00498947
v 0.01695597 -0.01237610 -0.00346448
v 0.01695718 -0.01237610 -0.00361926
v 0.01722532 -0.01418596 -0.00397142
v 0.01794820 -0.01418596 -0.00488663
v 0.01775314 -0.01237610 -0.00490221
v 0.01705380 -0.01237610 -0.00398805
v 0.01722652 -0.01418596 -0.00398181
v 0.01793974 -0.01418596 -0.00487832
v 0.01755928 -0.01237610 -0.00471418
v 0.01711299 -0.01237610 -0.00416257
v 0.01739079 -0.01418596 -0.00426022
v 0.01766980 -0.01418596 -0.00460718
v 0.01740770 -0.01237610 -0.00456148
v 0.01722713 -0.01237610 -0.00435475
v 0.01728148 -0.01237610 -0.00443370
v 0.01766134 -0.01418596 -0.00459784
f 1 2 3
f 1 3 4
f 1 4 14
f 1 14 21
f 1 21 32
f 1 32 43
f 1 43 52
f 1 52 61
f 1 61 67
f 1 67 72
f 1 72 80
f 1 80 85
f 1 85 90
f 1 90 95
f 1 95 101
f 1 101 105
f 1 105 107
f 1 107 113
f 1 113 112
f 1 112 118
f 1 118 122
f 1 122 128
f 1 128 132
f 1 132 136
f 1 136 141
f 1 141 137
f 1 137 133
f 1 133 129
f 1 129 124
f 1 124 120
f 1 120 116
f 1 116 109
f 1 109 103
f 1 103 98
f 1 98 92
f 1 92 87
f 1 87 81
f 1 81 74
f 1 74 68
f 1 68 62
f 1 62 53
f 1 53 44
f 1 44 34
f 1 34 33
f 1 33 22
f 1 22 15
f 1 15 5
f 1 5 7
f 1 7 2
f 2 6 3
f 2 7 17
f 2 17 6
f 3 8 9
f 3 9 10
f 3 10 11
f 3 11 12
f 3 12 4
f 3 6 8
f 4 12 11
f 4 11 13
f 4 13 14
f 5 15 16
f 5 16 7
f 6 17 26
f 6 26 27
f 6 27 37
f 6 37 36
f 6 36 47
f 6 47 56
f 6 56 64
f 6 64 70
f 6 70 76
f 6 76 83
f 6 83 89
f 6 89 94
f 6 94 100
f 6 100 104
f 6 104 111
f 6 111 115
f 6 115 117
f 6 117 121
f 6 121 125
f 6 125 130
f 6 130 134
f 6 134 138
f 6 138 140
f 6 140 139
f 6 139 135
f 6 135 131
f 6 131 127
f 6 127 126
f 6 126 123
f 6 123 119
f 6 119 114
f 6 114 106
f 6 106 102
f 6 102 96
f 6 96 91
f 6 91 84
f 6 84 77
f 6 77 71
f 6 71 65
f 6 65 57
f 6 57 48
f 6 48 39
f 6 39 38
f 6 38 28
f 6 28 18
f 6 18 9
f 6 9 8
f 7 16 17
f 9 11 10
f 9 18 11
f 11 18 13
f 13 18 19
f 13 19 14
f 14 19 20
f 14 20 21
f 15 22 23
f 15 23 24
f 15 24 25
f 15 25 16
f 16 26 17
f 16 25 24
f 16 24 27
f 16 27 26
f 18 28 19
f 19 28 29
f 19 29 20
f 20 29 30
f 20 30 31
f 20 31 21
f 21 31 32
f 22 33 23
f 23 33 34
f 23 34 35
f 23 35 36
f 23 36 24
f 24 36 37
f 24 37 27
f 28 38 29
f 29 38 39
f 29 39 30
f 30 39 40
f 30 40 31
f 31 40 32
f 32 40 39
f 32 39 41
f 32 41 42
f 32 42 43
f 34 44 45
f 34 45 35
f 35 45 46
f 35 46 36
f 36 46 47
f 39 48 49
f 39 49 41
f 41 49 42
f 42 49 43
f 43 49 50
f 43 50 51
f 43 51 52
f 44 53 45
f 45 54 46
f 45 53 55
f 45 55 54
f 46 54 56
f 46 56 47
f 48 50 49
f 48 57 50
f 50 58 51
f 50 57 58
f 51 58 52
f 52 59 60
f 52 60 61
f 52 58 59
f 53 62 55
f 54 55 63
f 54 63 64
f 54 64 56
f 55 62 63
f 57 65 59
f 57 59 58
f 59 65 66
f 59 66 60
f 60 66 61
f 61 66 67
f 62 68 69
f 62 69 64
f 62 64 63
f 64 69 70
f 65 71 72
f 65 72 67
f 65 67 66
f 68 73 69
f 68 74 73
f 69 73 70
f 70 73 75
f 70 75 76
f 71 77 78
f 71 78 72
f 72 78 79
f 72 79 80
f 73 74 75
f 74 81 75
f 75 81 82
f 75 82 76
f 76 82 83
f 77 84 78
f 78 84 79
f 79 84 85
f 79 85 80
f 81 86 82
f 81 87 86
f 82 86 83
f 83 86 88
f 83 88 89
f 84 90 85
f 84 91 90
f 86 87 88
f 87 92 88
f 88 92 89
f 89 92 93
f 89 93 94
f 90 91 95
f 91 96 95
f 92 97 93
f 92 98 97
f 93 97 94
f 94 97 99
f 94 99 100
f 95 96 101
f 96 102 101
f 97 98 99
f 98 103 104
f 98 104 100
f 98 100 99
f 101 102 105
f 102 106 107
f 102 107 105
f 103 108 104
f 103 109 110
f 103 110 108
f 104 108 111
f 106 112 113
f 106 113 107
f 106 114 112
f 108 110 115
f 108 115 111
f 109 116 117
f 109 117 115
f 109 115 110
f 112 114 118
f 114 119 118
f 116 120 117
f 117 120 121
f 118 119 123
f 118 123 122
f 120 124 125
f 120 125 121
f 122 123 126
f 122 126 127
f 122 127 128
f 124 129 125
f 125 129 130
f 127 131 132
f 127 132 128
f 129 133 134
f 129 134 130
f 131 135 132
f 132 135 136
f 133 137 134
f 134 137 138
f 135 139 136
f 136 139 140
f 136 140 141
f 137 141 140
f 137 140 138

