# https://github.com/mikedh/trimesh
v -0.00192011 0.01868555 0.00530631
v -0.00192011 0.01924195 0.00530527
v -0.00194935 0.01921355 0.00530527
v -0.00250623 0.01809970 0.00530631
v -0.00192011 0.01475920 0.00530631
v -0.00192011 0.01976995 0.00529385
v -0.00250623 0.01865610 0.00529800
v -0.00306290 0.01754225 0.00530216
v -0.00361998 0.01642945 0.00530424
v -0.00400841 0.01548388 0.00530527
v -0.00306290 0.01698690 0.00530631
v -0.00306290 0.01420175 0.00530631
v -0.00250623 0.01420175 0.00529800
v -0.00192011 0.01423120 0.00527203
v -0.00192011 0.01979940 0.00529281
v -0.00194935 0.01976995 0.00529281
v -0.00361998 0.01698690 0.00528761
v -0.00400841 0.01604133 0.00529696
v -0.00361998 0.01587305 0.00530631
v -0.00400841 0.01492748 0.00530631
v -0.00400841 0.01381363 0.00530631
v -0.00400841 0.01364535 0.00529592
v -0.00194935 0.01420175 0.00526995
v -0.00192011 0.01420175 0.00526788
v -0.00192011 0.02035580 0.00525333
v -0.00250623 0.01921355 0.00526684
v -0.00306290 0.01809970 0.00527826
v -0.00400841 0.01659773 0.00526580
v -0.00361998 0.01364535 0.00527411
v -0.00400841 0.01320359 0.00519620
v -0.00400841 0.01308579 0.00515776
v -0.00192011 0.01380417 0.00512867
v -0.00192011 0.02096689 0.00514945
v -0.00194935 0.02032740 0.00525126
v -0.00361998 0.01754225 0.00523775
v -0.00400841 0.01720252 0.00517646
v -0.00192011 0.01378629 0.00512036
v -0.00400841 0.01281338 0.00500713
v -0.00192011 0.02111414 0.00512036
v -0.00198471 0.02090904 0.00514010
v -0.00306290 0.01865610 0.00521490
v -0.00364206 0.01810285 0.00512867
v -0.00400841 0.01760956 0.00509855
v -0.00192011 0.01352229 0.00488871
v -0.00400841 0.01263352 0.00486170
v -0.00400841 0.01227801 0.00455940
v -0.00192011 0.02135079 0.00506115
v -0.00229934 0.02073970 0.00505699
v -0.00241995 0.02032740 0.00510686
v -0.00400841 0.01771474 0.00507258
v -0.00288463 0.01967634 0.00506946
v -0.00192011 0.01350756 0.00487520
v -0.00400841 0.01220754 0.00449187
v -0.00219406 0.02111099 0.00498739
v -0.00192011 0.02160743 0.00495207
v -0.00278385 0.02004762 0.00501129
v -0.00395015 0.01791879 0.00504557
v -0.00400841 0.01786199 0.00502271
v -0.00192011 0.01323515 0.00461134
v -0.00400841 0.01208448 0.00434540
v -0.00192011 0.01322042 0.00459680
v -0.00192011 0.02196715 0.00472561
v -0.00233532 0.02144125 0.00459680
v -0.00341739 0.01962375 0.00456252
v -0.00384261 0.01829007 0.00496662
v -0.00400841 0.01818069 0.00484404
v -0.00400841 0.01195932 0.00418127
v -0.00192011 0.01295642 0.00426957
v -0.00192011 0.02198187 0.00471522
v -0.00224639 0.02175153 0.00448356
v -0.00283209 0.02068816 0.00452512
v -0.00389638 0.01893167 0.00444409
v -0.00400268 0.01856038 0.00459576
v -0.00400841 0.01854250 0.00459991
v -0.00400841 0.01177420 0.00361926
v -0.00192011 0.01277236 0.00396831
v -0.00192011 0.01278077 0.00398389
v -0.00192011 0.01294170 0.00424671
v -0.00192011 0.02228900 0.00440773
v -0.00192011 0.02242783 0.00419062
v -0.00392868 0.01898741 0.00407323
v -0.00400841 0.01882123 0.00416465
v -0.00400841 0.01878126 0.00429658
v -0.00400841 0.01855407 0.00458849
v -0.00227992 0.02181043 0.00417607
v -0.00400841 0.01177315 0.00306245
v -0.00192011 0.01273344 0.00311855
v -0.00192011 0.01273449 0.00364835
v -0.00192011 0.02251723 0.00361926
v -0.00334298 0.02005078 0.00390702
v -0.00400841 0.01886856 0.00391013
v -0.00400841 0.01177315 -0.00306245
v -0.00192011 0.01273344 -0.00306245
v -0.00192011 0.02251723 -0.00361926
v -0.00254180 0.02144125 0.00361926
v -0.00378312 0.01929243 0.00361926
v -0.00400841 0.01890222 0.00361926
v -0.00400841 0.01177420 -0.00361926
v -0.00192011 0.01273449 -0.00361926
v -0.00254180 0.02144125 -0.00361926
v -0.00192011 0.02242783 -0.00419269
v -0.00334298 0.02005078 -0.00390702
v -0.00378312 0.01929243 -0.00361926
v -0.00400841 0.01890222 -0.00361926
v -0.00400841 0.01195932 -0.00418127
v -0.00192011 0.01277236 -0.00396831
v -0.00192011 0.02197872 -0.00471418
v -0.00224659 0.02175258 -0.00448356
v -0.00389699 0.01893272 -0.00444824
v -0.00228033 0.02181043 -0.00417607
v -0.00392868 0.01898741 -0.00407635
v -0.00400841 0.01882123 -0.00416776
v -0.00400841 0.01220754 -0.00449188
v -0.00192011 0.01322042 -0.00459680
v -0.00192011 0.01294170 -0.00424671
v -0.00192011 0.02196504 -0.00472353
v -0.00233552 0.02144125 -0.00459680
v -0.00283209 0.02068816 -0.00452408
v -0.00341739 0.01962480 -0.00456044
v -0.00400268 0.01856143 -0.00459264
v -0.00400841 0.01854355 -0.00459784
v -0.00400841 0.01857616 -0.00455732
v -0.00400841 0.01878231 -0.00429865
v -0.00400841 0.01253360 -0.00477340
v -0.00192011 0.01378629 -0.00512036
v -0.00192011 0.01350756 -0.00487520
v -0.00192011 0.02144125 -0.00500921
v -0.00219365 0.02110888 -0.00498636
v -0.00278630 0.02005183 -0.00501337
v -0.00384036 0.01828586 -0.00496454
v -0.00400841 0.01817648 -0.00484196
v -0.00400841 0.01273344 -0.00494169
v -0.00192011 0.01420175 -0.00526788
v -0.00393951 0.01283441 -0.00499051
v -0.00400841 0.01290488 -0.00504972
v -0.00400841 0.01308579 -0.00515776
v -0.00192011 0.02111099 -0.00512036
v -0.00229689 0.02073760 -0.00505492
v -0.00285928 0.01976995 -0.00505596
v -0.00394871 0.01791458 -0.00504557
v -0.00400841 0.01795981 -0.00495623
v -0.00361998 0.01364535 -0.00527411
v -0.00194935 0.01420175 -0.00526995
v -0.00192011 0.01475920 -0.00530631
v -0.00400841 0.01364535 -0.00529593
v -0.00192011 0.02090483 -0.00515568
v -0.00194935 0.02032740 -0.00525022
v -0.00198451 0.02090694 -0.00513906
v -0.00250623 0.01976995 -0.00518997
v -0.00306597 0.01918515 -0.00510998
v -0.00249192 0.02027376 -0.00508816
v -0.00345644 0.01865610 -0.00507673
v -0.00400841 0.01770948 -0.00507258
v -0.00250623 0.01420175 -0.00529800
v -0.00192011 0.01865610 -0.00530631
v -0.00306290 0.01420175 -0.00530631
v -0.00400841 0.01420175 -0.00530631
v -0.00192011 0.02032740 -0.00525333
v -0.00194935 0.01976995 -0.00529281
v -0.00250623 0.01921355 -0.00526684
v -0.00361998 0.01754225 -0.00523671
v -0.00306290 0.01865610 -0.00521594
v -0.00364084 0.01809970 -0.00512764
v -0.00400841 0.01754225 -0.00510998
v -0.00194935 0.01865610 -0.00530631
v -0.00192011 0.01921355 -0.00530527
v -0.00400841 0.01475920 -0.00530631
v -0.00192011 0.01976995 -0.00529385
v -0.00250623 0.01865610 -0.00529800
v -0.00361998 0.01698690 -0.00528761
v -0.00306290 0.01809970 -0.00527827
v -0.00400841 0.01642945 -0.00526995
v -0.00400841 0.01700793 -0.00519412
v -0.00194935 0.01921355 -0.00530527
v -0.00250623 0.01809970 -0.00530631
v -0.00400841 0.01531560 -0.00530527
v -0.00361998 0.01587305 -0.00530631
v -0.00361998 0.01642945 -0.00530424
v -0.00400841 0.01587305 -0.00529800
v -0.00306290 0.01698690 -0.00530631
f 1 2 3
f 1 3 4
f 1 4 11
f 1 11 19
f 1 19 20
f 1 20 21
f 1 21 12
f 1 12 5
f 1 5 14
f 1 14 24
f 1 24 32
f 1 32 37
f 1 37 44
f 1 44 52
f 1 52 59
f 1 59 61
f 1 61 68
f 1 68 78
f 1 78 77
f 1 77 76
f 1 76 88
f 1 88 87
f 1 87 93
f 1 93 99
f 1 99 106
f 1 106 115
f 1 115 114
f 1 114 126
f 1 126 125
f 1 125 133
f 1 133 144
f 1 144 155
f 1 155 166
f 1 166 168
f 1 168 158
f 1 158 146
f 1 146 137
f 1 137 127
f 1 127 116
f 1 116 107
f 1 107 101
f 1 101 94
f 1 94 89
f 1 89 80
f 1 80 79
f 1 79 69
f 1 69 62
f 1 62 55
f 1 55 47
f 1 47 39
f 1 39 33
f 1 33 25
f 1 25 15
f 1 15 6
f 1 6 2
f 2 6 3
f 3 6 7
f 3 7 8
f 3 8 9
f 3 9 4
f 4 9 10
f 4 10 11
f 5 12 13
f 5 13 14
f 6 15 16
f 6 16 7
f 7 16 17
f 7 17 18
f 7 18 8
f 8 18 9
f 9 18 10
f 10 19 11
f 10 18 28
f 10 28 36
f 10 36 43
f 10 43 50
f 10 50 58
f 10 58 66
f 10 66 74
f 10 74 84
f 10 84 83
f 10 83 82
f 10 82 91
f 10 91 97
f 10 97 104
f 10 104 112
f 10 112 123
f 10 123 122
f 10 122 121
f 10 121 131
f 10 131 141
f 10 141 153
f 10 153 164
f 10 164 173
f 10 173 172
f 10 172 179
f 10 179 176
f 10 176 167
f 10 167 157
f 10 157 145
f 10 145 136
f 10 136 135
f 10 135 132
f 10 132 124
f 10 124 113
f 10 113 105
f 10 105 98
f 10 98 92
f 10 92 86
f 10 86 75
f 10 75 67
f 10 67 60
f 10 60 53
f 10 53 46
f 10 46 45
f 10 45 38
f 10 38 31
f 10 31 30
f 10 30 22
f 10 22 21
f 10 21 20
f 10 20 19
f 12 21 13
f 13 21 22
f 13 22 23
f 13 23 14
f 14 23 24
f 15 25 16
f 16 26 27
f 16 27 17
f 16 25 26
f 17 27 28
f 17 28 18
f 22 29 23
f 22 30 29
f 23 29 24
f 24 29 30
f 24 30 31
f 24 31 32
f 25 33 34
f 25 34 26
f 26 34 35
f 26 35 28
f 26 28 27
f 28 35 36
f 31 37 32
f 31 38 37
f 33 39 40
f 33 40 41
f 33 41 34
f 34 41 35
f 35 41 36
f 36 41 42
f 36 42 43
f 37 38 45
f 37 45 46
f 37 46 44
f 39 47 48
f 39 48 49
f 39 49 40
f 40 49 42
f 40 42 41
f 42 49 43
f 43 49 51
f 43 51 50
f 44 46 52
f 46 53 52
f 47 54 48
f 47 55 54
f 48 51 49
f 48 54 56
f 48 56 57
f 48 57 50
f 48 50 51
f 50 57 58
f 52 53 59
f 53 60 61
f 53 61 59
f 54 55 62
f 54 62 63
f 54 63 64
f 54 64 65
f 54 65 56
f 56 65 57
f 57 65 58
f 58 65 66
f 60 67 68
f 60 68 61
f 62 69 63
f 63 69 70
f 63 70 71
f 63 71 64
f 64 72 73
f 64 73 65
f 64 71 72
f 65 73 66
f 66 73 74
f 67 75 76
f 67 76 77
f 67 77 78
f 67 78 68
f 69 79 70
f 70 79 80
f 70 80 72
f 70 72 71
f 72 81 82
f 72 82 83
f 72 83 84
f 72 84 73
f 72 80 85
f 72 85 81
f 73 84 74
f 75 86 87
f 75 87 88
f 75 88 76
f 80 89 90
f 80 90 85
f 81 91 82
f 81 85 90
f 81 90 91
f 86 92 93
f 86 93 87
f 89 94 100
f 89 100 95
f 89 95 90
f 90 96 97
f 90 97 91
f 90 95 96
f 92 98 99
f 92 99 93
f 94 101 102
f 94 102 100
f 95 100 103
f 95 103 96
f 96 103 104
f 96 104 97
f 98 105 106
f 98 106 99
f 100 102 103
f 101 107 108
f 101 108 109
f 101 109 110
f 101 110 102
f 102 111 104
f 102 104 103
f 102 110 111
f 104 111 112
f 105 113 114
f 105 114 115
f 105 115 106
f 107 116 117
f 107 117 108
f 108 117 118
f 108 118 109
f 109 119 120
f 109 120 121
f 109 121 122
f 109 122 123
f 109 123 112
f 109 112 111
f 109 111 110
f 109 118 119
f 113 124 125
f 113 125 126
f 113 126 114
f 116 127 128
f 116 128 117
f 117 128 129
f 117 129 119
f 117 119 118
f 119 129 120
f 120 130 131
f 120 131 121
f 120 129 130
f 124 132 125
f 125 132 134
f 125 134 135
f 125 135 136
f 125 136 133
f 127 137 128
f 128 137 138
f 128 138 129
f 129 138 139
f 129 139 140
f 129 140 130
f 130 140 131
f 131 140 141
f 132 135 134
f 133 142 143
f 133 143 144
f 133 136 142
f 136 145 142
f 137 146 147
f 137 147 148
f 137 148 149
f 137 149 150
f 137 150 151
f 137 151 138
f 138 151 139
f 139 151 152
f 139 152 140
f 140 153 141
f 140 152 153
f 142 145 143
f 143 145 154
f 143 154 144
f 144 154 156
f 144 156 157
f 144 157 167
f 144 167 177
f 144 177 180
f 144 180 175
f 144 175 165
f 144 165 155
f 145 157 156
f 145 156 154
f 146 158 147
f 147 158 159
f 147 159 160
f 147 160 161
f 147 161 162
f 147 162 149
f 147 149 148
f 149 162 163
f 149 163 150
f 150 152 151
f 150 163 164
f 150 164 152
f 152 164 153
f 155 165 174
f 155 174 166
f 158 168 159
f 159 168 169
f 159 169 170
f 159 170 171
f 159 171 160
f 160 171 161
f 161 171 170
f 161 170 172
f 161 172 173
f 161 173 164
f 161 164 162
f 162 164 163
f 165 175 174
f 166 174 168
f 167 176 177
f 168 174 169
f 169 174 178
f 169 178 170
f 170 178 179
f 170 179 172
f 174 175 178
f 175 180 178
f 176 179 178
f 176 178 177
f 177 178 180

