# https://github.com/mikedh/trimesh
v 0.02483818 -0.01715834 0.00361926
v 0.02312269 -0.01418596 0.00361926
v 0.02452856 -0.01666571 0.00404310
v 0.02481949 -0.01715834 0.00382703
v 0.02483818 -0.01715834 -0.00361926
v 0.02307393 -0.01418596 0.00417607
v 0.02312269 -0.01418596 -0.00361926
v 0.02478536 -0.01715834 0.00419477
v 0.02449687 -0.01672099 0.00441500
v 0.02478536 -0.01715834 -0.00419373
v 0.02452856 -0.01666571 -0.00404103
v 0.02292928 -0.01418596 0.00458225
v 0.02343312 -0.01496434 0.00451888
v 0.02308287 -0.01420225 -0.00417607
v 0.02307311 -0.01418596 -0.00417607
v 0.02460333 -0.01709229 0.00458849
v 0.02462527 -0.01715834 0.00460718
v 0.02401741 -0.01602817 0.00455628
v 0.02466834 -0.01715834 -0.00451265
v 0.02449687 -0.01672128 -0.00441396
v 0.02465696 -0.01693865 -0.00420724
v 0.02391745 -0.01564698 -0.00417607
v 0.02268955 -0.01418596 0.00486170
v 0.02293415 -0.01420225 0.00458849
v 0.02306986 -0.01418596 -0.00419269
v 0.02338598 -0.01560188 0.00500921
v 0.02385569 -0.01629791 0.00492714
v 0.02440423 -0.01715834 0.00486170
v 0.02330878 -0.01534872 0.00492818
v 0.02462527 -0.01715834 -0.00460718
v 0.02460333 -0.01709258 -0.00458849
v 0.02401741 -0.01602846 -0.00455628
v 0.02343312 -0.01496463 -0.00451785
v 0.02241243 -0.01418596 0.00508400
v 0.02279356 -0.01454241 0.00498116
v 0.02292928 -0.01418596 -0.00458225
v 0.02290165 -0.01491371 0.00505388
v 0.02396946 -0.01666920 0.00502687
v 0.02405479 -0.01698666 0.00507258
v 0.02411249 -0.01715834 0.00508816
v 0.02440423 -0.01715834 -0.00486274
v 0.02385569 -0.01629791 -0.00492714
v 0.02338598 -0.01560188 -0.00500921
v 0.02292115 -0.01418596 -0.00459264
v 0.02330878 -0.01534872 -0.00492818
v 0.02199880 -0.01418596 0.00522528
v 0.02241650 -0.01420225 0.00508712
v 0.02348513 -0.01597288 0.00506634
v 0.02302029 -0.01531613 0.00510374
v 0.02366960 -0.01646202 0.00510582
v 0.02366960 -0.01698666 0.00521178
v 0.02366960 -0.01715834 0.00523152
v 0.02423195 -0.01715834 -0.00502168
v 0.02396946 -0.01666920 -0.00502687
v 0.02279438 -0.01454125 -0.00498220
v 0.02290083 -0.01491254 -0.00505388
v 0.02269036 -0.01418596 -0.00486170
v 0.02199798 -0.01420225 0.00522840
v 0.02258715 -0.01474057 0.00513802
v 0.02144132 -0.01418596 0.00530008
v 0.02303004 -0.01534872 0.00510686
v 0.02255546 -0.01531613 0.00524918
v 0.02311131 -0.01642972 0.00526476
v 0.02311131 -0.01698666 0.00529800
v 0.02311131 -0.01715834 0.00530008
v 0.02411411 -0.01715834 -0.00508816
v 0.02405642 -0.01698666 -0.00507258
v 0.02241243 -0.01418596 -0.00508400
v 0.02267736 -0.01418596 -0.00487416
v 0.02348513 -0.01597288 -0.00506635
v 0.02199798 -0.01475948 0.00528450
v 0.02090091 -0.01418596 0.00530527
v 0.02144132 -0.01420225 0.00530112
v 0.02255465 -0.01587278 0.00529177
v 0.02199798 -0.01531613 0.00530320
v 0.02255465 -0.01642972 0.00530424
v 0.02255465 -0.01698666 0.00530631
v 0.02255465 -0.01715834 0.00530631
v 0.02302029 -0.01531613 -0.00510374
v 0.02384594 -0.01715834 -0.00518477
v 0.02366960 -0.01646202 -0.00510582
v 0.02240512 -0.01418596 -0.00508712
v 0.02032881 -0.01418596 0.00530631
v 0.02088466 -0.01420225 0.00530631
v 0.02144132 -0.01475948 0.00530631
v 0.02199798 -0.01587278 0.00530631
v 0.01865882 -0.01715834 0.00530631
v 0.02303004 -0.01534872 -0.00510686
v 0.02258715 -0.01473999 -0.00513699
v 0.02366960 -0.01715834 -0.00523152
v 0.02366960 -0.01698666 -0.00521074
v 0.02199880 -0.01418596 -0.00522529
v 0.01921548 -0.01418596 0.00530631
v 0.01865882 -0.01642972 0.00530631
v 0.01848654 -0.01715834 0.00530320
v 0.02328440 -0.01715834 -0.00529073
v 0.02311131 -0.01642972 -0.00526476
v 0.02255546 -0.01531613 -0.00524814
v 0.02199798 -0.01420225 -0.00522840
v 0.02198173 -0.01418596 -0.00522944
v 0.01865882 -0.01587278 0.00530527
v 0.01867426 -0.01418596 0.00528242
v 0.01865801 -0.01534872 0.00529904
v 0.01810054 -0.01715834 0.00526788
v 0.02311131 -0.01715834 -0.00530008
v 0.02311131 -0.01698666 -0.00529800
v 0.02255465 -0.01587278 -0.00529177
v 0.02199798 -0.01475948 -0.00528450
v 0.02255546 -0.01534872 -0.00525126
v 0.02144132 -0.01418596 -0.00530008
v 0.01865801 -0.01418596 0.00528138
v 0.01793476 -0.01715834 0.00521905
v 0.02272612 -0.01715834 -0.00530631
v 0.02255465 -0.01642972 -0.00530527
v 0.02142507 -0.01418596 -0.00530112
v 0.02199798 -0.01531613 -0.00530320
v 0.01822731 -0.01418596 0.00513491
v 0.01764870 -0.01715834 0.00511517
v 0.01865882 -0.01715834 -0.00530631
v 0.02144132 -0.01475948 -0.00530631
v 0.02088466 -0.01420225 -0.00530631
v 0.02086759 -0.01418596 -0.00530631
v 0.01755200 -0.01715834 0.00504453
v 0.01794857 -0.01418596 0.00488663
v 0.01729927 -0.01715834 0.00482534
v 0.01738459 -0.01715834 0.00490013
v 0.01865882 -0.01587278 -0.00530631
v 0.01810054 -0.01715834 -0.00526788
v 0.01921548 -0.01418596 -0.00530631
v 0.01766983 -0.01418596 0.00460718
v 0.01696039 -0.01715834 0.00450019
v 0.01708798 -0.01715834 0.00462692
v 0.01865801 -0.01534872 -0.00530008
v 0.01764870 -0.01715834 -0.00511517
v 0.01864501 -0.01418596 -0.00527723
v 0.01865801 -0.01418596 -0.00528138
v 0.01739922 -0.01418596 0.00427061
v 0.01679055 -0.01715834 0.00429138
v 0.01738459 -0.01715834 -0.00490013
v 0.01822650 -0.01418596 -0.00513491
v 0.01739191 -0.01418596 0.00426022
v 0.01672391 -0.01715834 0.00419269
v 0.01708798 -0.01715834 -0.00462692
v 0.01794857 -0.01418596 -0.00488663
v 0.01662883 -0.01715834 0.00403895
v 0.01722694 -0.01418596 0.00398181
v 0.01679055 -0.01715834 -0.00429138
v 0.01766983 -0.01418596 -0.00460718
v 0.01660445 -0.01715834 0.00396935
v 0.01718793 -0.01418596 0.00361926
v 0.01653944 -0.01715834 0.00361926
v 0.01662883 -0.01715834 -0.00403895
v 0.01738703 -0.01418596 -0.00425295
v 0.01739191 -0.01418596 -0.00426022
v 0.01766171 -0.01418596 -0.00459784
v 0.01653782 -0.01715834 0.00347487
v 0.01718793 -0.01418596 -0.00361926
v 0.01653619 -0.01715834 0.00306245
v 0.01653944 -0.01715834 -0.00361926
v 0.01722694 -0.01418596 -0.00398181
v 0.01722532 -0.01418596 -0.00397142
v 0.01653619 -0.01715834 -0.00306245
f 1 2 3
f 1 3 4
f 1 4 8
f 1 8 17
f 1 17 28
f 1 28 40
f 1 40 52
f 1 52 65
f 1 65 78
f 1 78 87
f 1 87 95
f 1 95 104
f 1 104 112
f 1 112 118
f 1 118 123
f 1 123 126
f 1 126 125
f 1 125 132
f 1 132 131
f 1 131 138
f 1 138 142
f 1 142 145
f 1 145 149
f 1 149 151
f 1 151 156
f 1 156 158
f 1 158 162
f 1 162 159
f 1 159 152
f 1 152 147
f 1 147 143
f 1 143 139
f 1 139 134
f 1 134 128
f 1 128 119
f 1 119 113
f 1 113 105
f 1 105 96
f 1 96 90
f 1 90 80
f 1 80 66
f 1 66 53
f 1 53 41
f 1 41 30
f 1 30 19
f 1 19 10
f 1 10 5
f 1 5 7
f 1 7 2
f 2 6 3
f 2 7 15
f 2 15 25
f 2 25 36
f 2 36 44
f 2 44 57
f 2 57 69
f 2 69 68
f 2 68 82
f 2 82 92
f 2 92 100
f 2 100 110
f 2 110 115
f 2 115 122
f 2 122 129
f 2 129 136
f 2 136 135
f 2 135 140
f 2 140 144
f 2 144 148
f 2 148 155
f 2 155 154
f 2 154 153
f 2 153 160
f 2 160 161
f 2 161 157
f 2 157 150
f 2 150 146
f 2 146 141
f 2 141 137
f 2 137 130
f 2 130 124
f 2 124 117
f 2 117 111
f 2 111 102
f 2 102 93
f 2 93 83
f 2 83 72
f 2 72 60
f 2 60 46
f 2 46 34
f 2 34 23
f 2 23 12
f 2 12 6
f 3 8 4
f 3 6 9
f 3 9 8
f 5 10 11
f 5 11 7
f 6 12 13
f 6 13 9
f 7 11 14
f 7 14 15
f 8 9 16
f 8 16 17
f 9 13 18
f 9 18 16
f 10 19 20
f 10 20 21
f 10 21 11
f 11 21 20
f 11 20 22
f 11 22 14
f 12 23 24
f 12 24 13
f 13 24 18
f 14 22 20
f 14 20 25
f 14 25 15
f 16 18 26
f 16 26 17
f 17 26 27
f 17 27 28
f 18 24 29
f 18 29 26
f 19 30 31
f 19 31 20
f 20 31 32
f 20 32 33
f 20 33 25
f 23 34 35
f 23 35 26
f 23 26 29
f 23 29 24
f 25 33 36
f 26 35 37
f 26 37 38
f 26 38 28
f 26 28 27
f 28 38 39
f 28 39 40
f 30 41 42
f 30 42 43
f 30 43 31
f 31 43 32
f 32 44 33
f 32 43 45
f 32 45 44
f 33 44 36
f 34 46 47
f 34 47 37
f 34 37 35
f 37 48 38
f 37 47 48
f 38 48 39
f 39 49 50
f 39 50 40
f 39 48 49
f 40 50 51
f 40 51 52
f 41 53 54
f 41 54 43
f 41 43 42
f 43 55 45
f 43 54 56
f 43 56 55
f 44 45 55
f 44 55 57
f 46 58 51
f 46 51 59
f 46 59 47
f 46 60 58
f 47 49 48
f 47 59 49
f 49 61 51
f 49 51 50
f 49 59 61
f 51 58 62
f 51 62 63
f 51 63 52
f 51 61 59
f 52 63 64
f 52 64 65
f 53 66 67
f 53 67 54
f 54 67 56
f 55 56 68
f 55 68 69
f 55 69 57
f 56 67 70
f 56 70 68
f 58 60 71
f 58 71 62
f 60 72 73
f 60 73 71
f 62 71 63
f 63 71 74
f 63 74 64
f 64 74 73
f 64 73 75
f 64 75 76
f 64 76 65
f 65 76 77
f 65 77 78
f 66 79 67
f 66 80 81
f 66 81 79
f 67 79 70
f 68 70 79
f 68 79 82
f 71 73 74
f 72 83 84
f 72 84 73
f 73 84 85
f 73 85 75
f 75 85 76
f 76 85 86
f 76 86 77
f 77 86 85
f 77 85 84
f 77 84 83
f 77 83 93
f 77 93 94
f 77 94 87
f 77 87 78
f 79 81 80
f 79 80 88
f 79 88 89
f 79 89 82
f 80 90 91
f 80 91 88
f 82 89 92
f 87 94 95
f 88 91 89
f 89 91 92
f 90 96 97
f 90 97 91
f 91 97 98
f 91 98 99
f 91 99 92
f 92 99 100
f 93 101 94
f 93 102 103
f 93 103 101
f 94 101 95
f 95 101 104
f 96 105 106
f 96 106 107
f 96 107 108
f 96 108 97
f 97 108 109
f 97 109 98
f 98 109 108
f 98 108 99
f 99 108 100
f 100 108 110
f 101 103 104
f 102 111 103
f 103 111 104
f 104 111 112
f 105 113 114
f 105 114 106
f 106 115 110
f 106 110 107
f 106 114 116
f 106 116 115
f 107 110 108
f 111 117 112
f 112 117 118
f 113 119 127
f 113 127 129
f 113 129 122
f 113 122 121
f 113 121 120
f 113 120 114
f 114 120 116
f 115 116 120
f 115 120 121
f 115 121 122
f 117 123 118
f 117 124 125
f 117 125 126
f 117 126 123
f 119 128 127
f 124 130 131
f 124 131 132
f 124 132 125
f 127 128 133
f 127 133 129
f 128 134 135
f 128 135 136
f 128 136 133
f 129 133 136
f 130 137 138
f 130 138 131
f 134 139 140
f 134 140 135
f 137 141 138
f 138 141 142
f 139 143 144
f 139 144 140
f 141 145 142
f 141 146 145
f 143 147 148
f 143 148 144
f 145 146 149
f 146 150 151
f 146 151 149
f 147 152 153
f 147 153 154
f 147 154 155
f 147 155 148
f 150 156 151
f 150 157 162
f 150 162 158
f 150 158 156
f 152 159 160
f 152 160 153
f 157 161 159
f 157 159 162
f 159 161 160

