# https://github.com/mikedh/trimesh
v 0.01188722 0.00528820 0.00361926
v 0.01188626 0.00529061 0.00361926
v 0.01184255 0.00528820 0.00415841
v 0.01188722 0.00528820 -0.00361926
v 0.01155000 0.00587356 0.00361926
v 0.01170564 0.00558637 0.00396000
v 0.01188626 0.00529061 -0.00361926
v 0.01181325 0.00528820 0.00424671
v 0.01167346 0.00553108 0.00433086
v 0.01184543 0.00528820 -0.00411894
v 0.01059454 0.00752961 0.00361926
v 0.01155000 0.00587356 -0.00361926
v 0.01054554 0.00752961 0.00417607
v 0.01064738 0.00735387 0.00417607
v 0.01170564 0.00558637 -0.00395792
v 0.01158411 0.00528820 0.00471003
v 0.01060943 0.00728805 0.00449811
v 0.01119453 0.00622395 0.00453758
v 0.01184207 0.00528820 -0.00415841
v 0.01059454 0.00752961 -0.00361926
v 0.01027990 0.00752961 0.00472353
v 0.01167250 0.00552976 -0.00432878
v 0.01064738 0.00735343 -0.00417607
v 0.01054554 0.00752961 -0.00417607
v 0.01057245 0.00752961 -0.00387066
v 0.01127571 0.00580204 0.00472769
v 0.01103360 0.00595738 0.00490844
v 0.01153751 0.00528820 0.00476405
v 0.01028999 0.00749912 0.00473288
v 0.01070311 0.00696114 0.00461446
v 0.01174215 0.00528820 -0.00448772
v 0.01024387 0.00752961 0.00476612
v 0.01119453 0.00622351 -0.00453758
v 0.01060895 0.00728761 -0.00449707
v 0.01052249 0.00752961 -0.00427164
v 0.01046580 0.00696114 0.00489286
v 0.01055851 0.00664696 0.00499570
v 0.01114793 0.00558593 0.00501856
v 0.01122719 0.00529061 0.00506219
v 0.01122815 0.00528820 0.00506219
v 0.01158219 0.00528820 -0.00471107
v 0.00977695 0.00752961 0.00512244
v 0.01007862 0.00733873 0.00504661
v 0.01070263 0.00696114 -0.00461446
v 0.01103360 0.00595672 -0.00490844
v 0.01027990 0.00752961 -0.00472457
v 0.01018719 0.00696114 0.00509543
v 0.01085250 0.00580204 0.00509543
v 0.01086019 0.00528820 0.00519931
v 0.01153655 0.00528820 -0.00476405
v 0.00976638 0.00752961 0.00512867
v 0.00976878 0.00752193 0.00512971
v 0.01046580 0.00696114 -0.00489286
v 0.01114745 0.00558549 -0.00501856
v 0.01055899 0.00664783 -0.00499571
v 0.01024435 0.00752961 -0.00476613
v 0.00974620 0.00696114 0.00523879
v 0.01030296 0.00584746 0.00525645
v 0.01030296 0.00529061 0.00529489
v 0.01030296 0.00528820 0.00529489
v 0.01122767 0.00528820 -0.00506219
v 0.01122719 0.00529061 -0.00506219
v 0.00918993 0.00752961 0.00527826
v 0.01007862 0.00733961 -0.00504661
v 0.01002290 0.00752961 -0.00500609
v 0.00918993 0.00751798 0.00527930
v 0.00974620 0.00640452 0.00528865
v 0.00918993 0.00696114 0.00530216
v 0.00974620 0.00584746 0.00530424
v 0.00974620 0.00529061 0.00530631
v 0.00974620 0.00528820 0.00530631
v 0.01086019 0.00528820 -0.00519828
v 0.01086019 0.00529061 -0.00519828
v 0.01085250 0.00580160 -0.00509543
v 0.01018719 0.00696114 -0.00509543
v 0.01066227 0.00627683 -0.00506011
v 0.00863270 0.00752961 0.00530424
v 0.00976926 0.00752237 -0.00512971
v 0.00976686 0.00752961 -0.00512867
v 0.00918993 0.00640452 0.00530631
v 0.00918993 0.00528820 0.00530631
v 0.01030296 0.00528820 -0.00529489
v 0.01030296 0.00529061 -0.00529489
v 0.01030296 0.00584746 -0.00525645
v 0.00974620 0.00696114 -0.00523879
v 0.00863270 0.00751798 0.00530424
v 0.00812255 0.00752961 0.00515672
v 0.00976158 0.00752961 -0.00513075
v 0.00863270 0.00528820 0.00527826
v 0.00974620 0.00528820 -0.00530631
v 0.00974620 0.00640452 -0.00528761
v 0.00974620 0.00529061 -0.00530631
v 0.00974620 0.00584746 -0.00530424
v 0.00918993 0.00696114 -0.00530216
v 0.00917840 0.00752961 -0.00528034
v 0.00918993 0.00752961 -0.00527827
v 0.00784489 0.00752961 0.00496662
v 0.00820565 0.00528820 0.00513179
v 0.00918993 0.00528820 -0.00530631
v 0.00918993 0.00640452 -0.00530631
v 0.00863270 0.00752961 -0.00530424
v 0.00792752 0.00528820 0.00488247
v 0.00756868 0.00752961 0.00469860
v 0.00863270 0.00751798 -0.00530424
v 0.00863270 0.00528820 -0.00527827
v 0.00861973 0.00752961 -0.00530112
v 0.00755811 0.00752961 0.00468821
v 0.00764794 0.00528820 0.00460407
v 0.00812255 0.00752961 -0.00515672
v 0.00820565 0.00528820 -0.00513179
v 0.00728622 0.00752961 0.00440877
v 0.00727997 0.00752961 0.00440150
v 0.00736980 0.00528820 0.00425398
v 0.00811342 0.00752961 -0.00515153
v 0.00792752 0.00528820 -0.00488247
v 0.00784489 0.00752961 -0.00496662
v 0.00711184 0.00752961 0.00412413
v 0.00720504 0.00528820 0.00397558
v 0.00783817 0.00752961 -0.00496038
v 0.00764794 0.00528820 -0.00460407
v 0.00754754 0.00752961 -0.00467783
v 0.00755811 0.00752961 -0.00468821
v 0.00698214 0.00752961 0.00361926
v 0.00716901 0.00528820 0.00361926
v 0.00736980 0.00528820 -0.00425398
v 0.00727997 0.00752961 -0.00440150
v 0.00698070 0.00752961 0.00307388
v 0.00716901 0.00528820 -0.00361926
v 0.00727613 0.00752961 -0.00439630
v 0.00720504 0.00528820 -0.00397558
v 0.00711184 0.00752961 -0.00412413
v 0.00698070 0.00752961 -0.00306245
v 0.00698214 0.00752961 -0.00361926
v 0.00710752 0.00752961 -0.00411167
f 1 2 3
f 1 3 8
f 1 8 16
f 1 16 28
f 1 28 40
f 1 40 49
f 1 49 60
f 1 60 71
f 1 71 81
f 1 81 89
f 1 89 98
f 1 98 102
f 1 102 108
f 1 108 113
f 1 113 118
f 1 118 124
f 1 124 128
f 1 128 130
f 1 130 125
f 1 125 120
f 1 120 115
f 1 115 110
f 1 110 105
f 1 105 99
f 1 99 90
f 1 90 82
f 1 82 72
f 1 72 61
f 1 61 50
f 1 50 41
f 1 41 31
f 1 31 19
f 1 19 10
f 1 10 4
f 1 4 7
f 1 7 2
f 2 5 6
f 2 6 3
f 2 7 12
f 2 12 5
f 3 6 9
f 3 9 8
f 4 10 7
f 5 11 6
f 5 12 20
f 5 20 11
f 6 13 14
f 6 14 9
f 6 11 13
f 7 10 15
f 7 15 12
f 8 9 16
f 9 17 18
f 9 18 16
f 9 14 13
f 9 13 17
f 10 19 15
f 11 20 25
f 11 25 24
f 11 24 35
f 11 35 46
f 11 46 56
f 11 56 65
f 11 65 79
f 11 79 88
f 11 88 96
f 11 96 95
f 11 95 101
f 11 101 106
f 11 106 109
f 11 109 114
f 11 114 116
f 11 116 119
f 11 119 122
f 11 122 121
f 11 121 126
f 11 126 129
f 11 129 131
f 11 131 134
f 11 134 133
f 11 133 132
f 11 132 127
f 11 127 123
f 11 123 117
f 11 117 112
f 11 112 111
f 11 111 107
f 11 107 103
f 11 103 97
f 11 97 87
f 11 87 77
f 11 77 63
f 11 63 51
f 11 51 42
f 11 42 32
f 11 32 21
f 11 21 13
f 12 15 20
f 13 21 17
f 15 19 22
f 15 22 23
f 15 23 24
f 15 24 25
f 15 25 20
f 16 18 26
f 16 26 27
f 16 27 28
f 17 21 29
f 17 29 30
f 17 30 18
f 18 30 27
f 18 27 26
f 19 31 22
f 21 32 29
f 22 31 33
f 22 33 34
f 22 34 24
f 22 24 23
f 24 34 35
f 27 36 37
f 27 37 38
f 27 38 28
f 27 30 36
f 28 38 39
f 28 39 40
f 29 32 36
f 29 36 30
f 31 41 33
f 32 42 43
f 32 43 37
f 32 37 36
f 33 44 34
f 33 41 45
f 33 45 44
f 34 44 46
f 34 46 35
f 37 43 38
f 38 43 39
f 39 43 47
f 39 47 48
f 39 48 49
f 39 49 40
f 41 50 45
f 42 51 43
f 43 51 52
f 43 52 47
f 44 45 53
f 44 53 46
f 45 54 55
f 45 55 53
f 45 50 54
f 46 53 56
f 47 52 49
f 47 49 48
f 49 57 58
f 49 58 59
f 49 59 60
f 49 52 57
f 50 61 62
f 50 62 54
f 51 63 52
f 52 63 57
f 53 55 56
f 54 62 64
f 54 64 55
f 55 64 65
f 55 65 56
f 57 63 58
f 58 63 66
f 58 66 67
f 58 67 59
f 59 68 69
f 59 69 70
f 59 70 71
f 59 71 60
f 59 67 68
f 61 72 73
f 61 73 62
f 62 73 74
f 62 74 75
f 62 75 76
f 62 76 64
f 63 77 66
f 64 76 75
f 64 75 78
f 64 78 79
f 64 79 65
f 66 77 68
f 66 68 67
f 68 77 69
f 69 80 70
f 69 77 80
f 70 80 81
f 70 81 71
f 72 82 83
f 72 83 73
f 73 83 84
f 73 84 85
f 73 85 78
f 73 78 75
f 73 75 74
f 77 86 81
f 77 81 80
f 77 87 86
f 78 88 79
f 78 85 88
f 81 86 89
f 82 90 92
f 82 92 83
f 83 91 84
f 83 92 93
f 83 93 94
f 83 94 91
f 84 95 85
f 84 91 95
f 85 95 96
f 85 96 88
f 86 87 89
f 87 97 98
f 87 98 89
f 90 99 100
f 90 100 92
f 91 94 95
f 92 100 93
f 93 100 101
f 93 101 94
f 94 101 95
f 97 102 98
f 97 103 102
f 99 104 101
f 99 101 100
f 99 105 104
f 101 104 106
f 102 103 107
f 102 107 108
f 104 105 106
f 105 109 106
f 105 110 109
f 107 111 108
f 108 111 112
f 108 112 113
f 109 110 114
f 110 115 116
f 110 116 114
f 112 117 113
f 113 117 118
f 115 119 116
f 115 120 121
f 115 121 122
f 115 122 119
f 117 123 118
f 118 123 124
f 120 125 126
f 120 126 121
f 123 127 124
f 124 127 132
f 124 132 128
f 125 129 126
f 125 130 131
f 125 131 129
f 128 132 133
f 128 133 130
f 130 133 134
f 130 134 131

