# https://github.com/mikedh/trimesh
v -0.00900065 -0.00529145 -0.00530631
v -0.00900065 -0.00547996 -0.00527307
v -0.00900065 -0.00471919 -0.00530631
v -0.00366729 -0.00747033 -0.00530631
v -0.00422492 -0.00747033 -0.00530320
v -0.00900065 -0.00584836 -0.00518581
v -0.00900065 -0.00471919 0.00530631
v 0.00885764 -0.00471919 -0.00530631
v 0.00361867 -0.00747033 -0.00530631
v -0.00478081 -0.00747033 -0.00523775
v -0.00900065 -0.00596092 -0.00513595
v -0.00900065 -0.00529145 0.00530631
v 0.00885764 -0.00471919 0.00530631
v 0.00885764 -0.00529145 -0.00530631
v 0.00417630 -0.00747033 -0.00530320
v -0.00528076 -0.00747033 -0.00510790
v -0.00900065 -0.00615508 -0.00503830
v -0.00900065 -0.00584836 0.00518581
v -0.00417598 -0.00747033 0.00530320
v -0.00361834 -0.00747033 0.00530631
v 0.00885764 -0.00529145 0.00530631
v 0.00885764 -0.00584836 -0.00519412
v 0.00473394 -0.00747033 -0.00524295
v -0.00531222 -0.00747033 -0.00509751
v -0.00900065 -0.00624961 -0.00494688
v -0.00900065 -0.00615508 0.00503830
v -0.00473361 -0.00747033 0.00524087
v 0.00366762 -0.00747033 0.00530631
v 0.00422525 -0.00747033 0.00530320
v 0.00885764 -0.00562322 0.00524814
v 0.00885764 -0.00616559 -0.00504765
v 0.00524787 -0.00747033 -0.00511725
v -0.00555171 -0.00747033 -0.00499467
v -0.00900065 -0.00671468 -0.00448564
v -0.00900065 -0.00652941 -0.00466951
v -0.00900065 -0.00643354 0.00476405
v -0.00531222 -0.00747033 0.00509751
v -0.00524579 -0.00747033 0.00511517
v 0.00478114 -0.00747033 0.00523983
v 0.00885764 -0.00584836 0.00519412
v 0.00885764 -0.00644404 -0.00477547
v 0.00531779 -0.00747033 -0.00509959
v -0.00635757 -0.00747033 -0.00458225
v -0.00900065 -0.00691154 -0.00417607
v -0.00900065 -0.00679089 -0.00437241
v -0.00900065 -0.00671468 0.00448564
v -0.00582091 -0.00747033 0.00484923
v -0.00900065 -0.00691154 0.00417607
v 0.00528458 -0.00747033 0.00510998
v 0.00885764 -0.00616559 0.00504765
v 0.00885764 -0.00604683 0.00510686
v 0.00885764 -0.00672599 -0.00449707
v 0.00582299 -0.00747033 -0.00485339
v -0.00665124 -0.00747033 -0.00442643
v -0.00708127 -0.00747033 -0.00414699
v -0.00900065 -0.00696809 -0.00398805
v -0.00618101 -0.00747033 0.00467159
v -0.00900065 -0.00707743 0.00361926
v -0.00708127 -0.00747033 0.00414699
v -0.00698163 -0.00747033 0.00420724
v -0.00640302 -0.00747033 0.00455005
v 0.00531779 -0.00747033 0.00509959
v 0.00885764 -0.00633147 0.00488663
v 0.00885764 -0.00693443 -0.00417607
v 0.00619358 -0.00747033 -0.00467055
v -0.00730677 -0.00747033 -0.00389767
v -0.00900065 -0.00707743 -0.00361926
v -0.00900065 -0.00707769 0.00325152
v -0.00746235 -0.00747033 0.00311959
v -0.00745885 -0.00747033 0.00361926
v 0.00555553 -0.00747033 0.00499674
v 0.00885764 -0.00672599 0.00449707
v 0.00885764 -0.00661262 0.00460926
v 0.00885764 -0.00710059 -0.00361926
v 0.00708859 -0.00747033 -0.00414802
v 0.00698545 -0.00747033 -0.00421035
v 0.00640335 -0.00747033 -0.00455524
v -0.00745885 -0.00747033 -0.00361926
v -0.00900065 -0.00707769 -0.00343124
v -0.00746235 -0.00747033 -0.00306245
v 0.00636139 -0.00747033 0.00458641
v 0.00885764 -0.00686037 0.00429658
v 0.00885764 -0.00710085 -0.00339488
v 0.00747142 -0.00747033 -0.00311128
v 0.00746617 -0.00747033 -0.00361926
v 0.00665507 -0.00747033 0.00443058
v 0.00885764 -0.00693443 0.00417607
v 0.00885764 -0.00710085 0.00328788
v 0.00747142 -0.00747033 0.00306245
v 0.00701692 -0.00747033 0.00419477
v 0.00708859 -0.00747033 0.00414802
v 0.00885764 -0.00703380 0.00384469
v 0.00885764 -0.00710059 0.00361926
v 0.00746792 -0.00747033 0.00356732
v 0.00731059 -0.00747033 0.00390182
v 0.00746617 -0.00747033 0.00361926
f 1 2 6
f 1 6 11
f 1 11 17
f 1 17 25
f 1 25 35
f 1 35 34
f 1 34 45
f 1 45 44
f 1 44 56
f 1 56 67
f 1 67 79
f 1 79 68
f 1 68 58
f 1 58 48
f 1 48 46
f 1 46 36
f 1 36 26
f 1 26 18
f 1 18 12
f 1 12 7
f 1 7 3
f 1 3 8
f 1 8 14
f 1 14 9
f 1 9 4
f 1 4 5
f 1 5 2
f 2 5 6
f 3 7 13
f 3 13 8
f 4 9 15
f 4 15 23
f 4 23 32
f 4 32 42
f 4 42 53
f 4 53 65
f 4 65 77
f 4 77 76
f 4 76 75
f 4 75 85
f 4 85 84
f 4 84 89
f 4 89 94
f 4 94 96
f 4 96 95
f 4 95 91
f 4 91 90
f 4 90 86
f 4 86 81
f 4 81 71
f 4 71 62
f 4 62 49
f 4 49 39
f 4 39 29
f 4 29 28
f 4 28 20
f 4 20 19
f 4 19 27
f 4 27 38
f 4 38 37
f 4 37 47
f 4 47 57
f 4 57 61
f 4 61 60
f 4 60 59
f 4 59 70
f 4 70 69
f 4 69 80
f 4 80 78
f 4 78 66
f 4 66 55
f 4 55 54
f 4 54 43
f 4 43 33
f 4 33 24
f 4 24 16
f 4 16 10
f 4 10 5
f 5 10 6
f 6 10 11
f 7 12 20
f 7 20 28
f 7 28 21
f 7 21 13
f 8 13 21
f 8 21 30
f 8 30 40
f 8 40 51
f 8 51 50
f 8 50 63
f 8 63 73
f 8 73 72
f 8 72 82
f 8 82 87
f 8 87 92
f 8 92 93
f 8 93 88
f 8 88 83
f 8 83 74
f 8 74 64
f 8 64 52
f 8 52 41
f 8 41 31
f 8 31 22
f 8 22 14
f 9 14 15
f 10 16 17
f 10 17 11
f 12 18 19
f 12 19 20
f 14 22 15
f 15 22 23
f 16 24 17
f 17 24 25
f 18 26 27
f 18 27 19
f 21 28 29
f 21 29 30
f 22 31 23
f 23 31 32
f 24 33 34
f 24 34 35
f 24 35 25
f 26 36 37
f 26 37 38
f 26 38 27
f 29 39 40
f 29 40 30
f 31 41 42
f 31 42 32
f 33 43 44
f 33 44 45
f 33 45 34
f 36 46 37
f 37 46 48
f 37 48 47
f 39 49 50
f 39 50 51
f 39 51 40
f 41 52 42
f 42 52 53
f 43 54 44
f 44 55 56
f 44 54 55
f 47 48 57
f 48 58 59
f 48 59 60
f 48 60 61
f 48 61 57
f 49 62 50
f 50 62 63
f 52 64 65
f 52 65 53
f 55 66 67
f 55 67 56
f 58 68 69
f 58 69 70
f 58 70 59
f 62 71 72
f 62 72 73
f 62 73 63
f 64 74 75
f 64 75 76
f 64 76 77
f 64 77 65
f 66 78 67
f 67 78 80
f 67 80 79
f 68 79 80
f 68 80 69
f 71 81 82
f 71 82 72
f 74 83 84
f 74 84 85
f 74 85 75
f 81 86 87
f 81 87 82
f 83 88 89
f 83 89 84
f 86 90 87
f 87 90 91
f 87 91 92
f 88 93 89
f 89 93 94
f 91 95 93
f 91 93 92
f 93 95 96
f 93 96 94

