# https://github.com/mikedh/trimesh
v 0.01373467 0.00208708 0.00361926
v 0.01274951 0.00379424 0.00361926
v 0.01368563 0.00208708 0.00418127
v 0.01373467 0.00208708 -0.00361926
v 0.01261058 0.00403491 0.00361926
v 0.01288547 0.00347405 0.00417607
v 0.01274951 0.00379424 -0.00361926
v 0.01256155 0.00403491 0.00417607
v 0.01284387 0.00340197 0.00450850
v 0.01342931 0.00233786 0.00454693
v 0.01347983 0.00208708 0.00465601
v 0.01372427 0.00208708 -0.00373769
v 0.01259424 0.00403491 0.00380521
v 0.01261058 0.00403491 -0.00361926
v 0.01288547 0.00347367 -0.00417607
v 0.01256155 0.00403491 -0.00417607
v 0.01238770 0.00403491 0.00461653
v 0.01270494 0.00306271 0.00490533
v 0.01327850 0.00208708 0.00489494
v 0.01368489 0.00208708 -0.00418023
v 0.01332456 0.00271277 -0.00417607
v 0.01284387 0.00340140 -0.00450746
v 0.01246942 0.00403491 -0.00444201
v 0.01228666 0.00403491 0.00473496
v 0.01220419 0.00382342 0.00497389
v 0.01279558 0.00276293 0.00500194
v 0.01326215 0.00208708 0.00491260
v 0.01363883 0.00208708 -0.00433190
v 0.01342931 0.00233728 -0.00454693
v 0.01238770 0.00403491 -0.00461653
v 0.01214327 0.00403491 0.00490117
v 0.01231266 0.00345212 0.00505076
v 0.01186986 0.00403491 0.00509543
v 0.01289662 0.00239163 0.00506323
v 0.01301549 0.00208708 0.00508712
v 0.01347983 0.00208708 -0.00465601
v 0.01326215 0.00208708 -0.00491260
v 0.01270494 0.00306271 -0.00490533
v 0.01220493 0.00382475 -0.00497493
v 0.01214401 0.00403491 -0.00490221
v 0.01242633 0.00306271 0.00509959
v 0.01141666 0.00403491 0.00523775
v 0.01200062 0.00363043 0.00513387
v 0.01257789 0.00254877 0.00514841
v 0.01254149 0.00208708 0.00523463
v 0.01324729 0.00208708 -0.00492610
v 0.01279558 0.00276312 -0.00500194
v 0.01231266 0.00345346 -0.00505076
v 0.01197759 0.00403491 -0.00503934
v 0.01086019 0.00403491 0.00530112
v 0.01141666 0.00361956 0.00528242
v 0.01197387 0.00306271 0.00524398
v 0.01197387 0.00250586 0.00529073
v 0.01197387 0.00208708 0.00530112
v 0.01301549 0.00208708 -0.00508712
v 0.01289662 0.00239182 -0.00506323
v 0.01242633 0.00306271 -0.00509959
v 0.01187060 0.00403491 -0.00509543
v 0.01141666 0.00306271 0.00530320
v 0.01030298 0.00403491 0.00530631
v 0.01086019 0.00361956 0.00530631
v 0.01141666 0.00250586 0.00530631
v 0.01141666 0.00208708 0.00530631
v 0.01294417 0.00208708 -0.00511413
v 0.01200136 0.00363138 -0.00513387
v 0.01156822 0.00403491 -0.00519931
v 0.00904813 0.00403491 0.00530631
v 0.00821380 0.00208708 0.00530631
v 0.01254149 0.00208708 -0.00523463
v 0.01197387 0.00306271 -0.00524398
v 0.01257789 0.00254877 -0.00514737
v 0.01141666 0.00403491 -0.00523775
v 0.00863282 0.00403491 0.00530320
v 0.00863282 0.00361956 0.00530631
v 0.00807635 0.00208708 0.00530216
v 0.01239290 0.00208708 -0.00526788
v 0.01141666 0.00361956 -0.00528242
v 0.01100135 0.00403491 -0.00529489
v 0.00847532 0.00403491 0.00526268
v 0.00765733 0.00208708 0.00523360
v 0.00807635 0.00250586 0.00529073
v 0.01197387 0.00208708 -0.00530112
v 0.01197387 0.00250586 -0.00528969
v 0.01141666 0.00306271 -0.00530320
v 0.01086019 0.00403491 -0.00530112
v 0.00810607 0.00403491 0.00515361
v 0.00751766 0.00208708 0.00518789
v 0.01183569 0.00208708 -0.00530527
v 0.01086019 0.00361956 -0.00530631
v 0.01044414 0.00403491 -0.00530631
v 0.00800132 0.00403491 0.00508920
v 0.00726059 0.00208708 0.00508089
v 0.01141666 0.00250586 -0.00530631
v 0.01141666 0.00208708 -0.00530631
v 0.00919004 0.00403491 -0.00530631
v 0.00783861 0.00403491 0.00497389
v 0.00720190 0.00208708 0.00504037
v 0.00863282 0.00208708 -0.00530631
v 0.00863282 0.00361956 -0.00530631
v 0.00863282 0.00403491 -0.00530320
v 0.00706148 0.00208708 0.00492195
v 0.00775837 0.00403491 0.00490013
v 0.00668629 0.00208708 0.00459783
v 0.00807635 0.00208708 -0.00530216
v 0.00807635 0.00250586 -0.00529073
v 0.00751766 0.00208708 -0.00518789
v 0.00810607 0.00403491 -0.00515361
v 0.00755109 0.00403491 0.00469860
v 0.00660457 0.00208708 0.00452200
v 0.00720190 0.00208708 -0.00504037
v 0.00783861 0.00403491 -0.00497389
v 0.00742701 0.00403491 0.00457290
v 0.00727248 0.00403491 0.00441292
v 0.00642403 0.00208708 0.00430593
v 0.00691735 0.00208708 -0.00479729
v 0.00660457 0.00208708 -0.00452200
v 0.00755109 0.00403491 -0.00469860
v 0.00722642 0.00403491 0.00434540
v 0.00633859 0.00208708 0.00419373
v 0.00633859 0.00208708 -0.00419373
v 0.00727248 0.00403491 -0.00441292
v 0.00710309 0.00403491 0.00414179
v 0.00615954 0.00208708 0.00368263
v 0.00614691 0.00208708 -0.00361926
v 0.00710309 0.00403491 -0.00414179
v 0.00705108 0.00403491 0.00398701
v 0.00696118 0.00403491 0.00361926
v 0.00614691 0.00208708 0.00361926
v 0.00614617 0.00208708 -0.00351330
v 0.00696118 0.00403491 -0.00361926
v 0.00696044 0.00403491 0.00306245
v 0.00614543 0.00208708 0.00317049
v 0.00614543 0.00208708 -0.00306245
v 0.00696044 0.00403491 -0.00320373
f 1 2 3
f 1 3 11
f 1 11 19
f 1 19 27
f 1 27 35
f 1 35 45
f 1 45 54
f 1 54 63
f 1 63 68
f 1 68 75
f 1 75 80
f 1 80 87
f 1 87 92
f 1 92 97
f 1 97 101
f 1 101 103
f 1 103 109
f 1 109 114
f 1 114 119
f 1 119 123
f 1 123 128
f 1 128 132
f 1 132 133
f 1 133 129
f 1 129 124
f 1 124 120
f 1 120 116
f 1 116 115
f 1 115 110
f 1 110 106
f 1 106 104
f 1 104 98
f 1 98 94
f 1 94 88
f 1 88 82
f 1 82 76
f 1 76 69
f 1 69 64
f 1 64 55
f 1 55 46
f 1 46 37
f 1 37 36
f 1 36 28
f 1 28 20
f 1 20 12
f 1 12 4
f 1 4 7
f 1 7 2
f 2 5 6
f 2 6 3
f 2 7 14
f 2 14 5
f 3 6 8
f 3 8 9
f 3 9 10
f 3 10 11
f 4 12 7
f 5 13 6
f 5 14 16
f 5 16 23
f 5 23 30
f 5 30 40
f 5 40 49
f 5 49 58
f 5 58 66
f 5 66 72
f 5 72 78
f 5 78 85
f 5 85 90
f 5 90 95
f 5 95 100
f 5 100 107
f 5 107 111
f 5 111 117
f 5 117 121
f 5 121 125
f 5 125 130
f 5 130 134
f 5 134 131
f 5 131 127
f 5 127 126
f 5 126 122
f 5 122 118
f 5 118 113
f 5 113 112
f 5 112 108
f 5 108 102
f 5 102 96
f 5 96 91
f 5 91 86
f 5 86 79
f 5 79 73
f 5 73 67
f 5 67 60
f 5 60 50
f 5 50 42
f 5 42 33
f 5 33 31
f 5 31 24
f 5 24 17
f 5 17 8
f 5 8 13
f 6 13 8
f 7 12 15
f 7 15 16
f 7 16 14
f 8 17 9
f 9 17 10
f 10 17 18
f 10 18 19
f 10 19 11
f 12 20 21
f 12 21 15
f 15 21 20
f 15 20 16
f 16 20 22
f 16 22 23
f 17 24 18
f 18 24 25
f 18 25 26
f 18 26 19
f 19 26 27
f 20 28 22
f 22 29 30
f 22 30 23
f 22 28 29
f 24 31 25
f 25 32 26
f 25 31 33
f 25 33 32
f 26 32 34
f 26 34 27
f 27 34 35
f 28 36 29
f 29 36 37
f 29 37 38
f 29 38 39
f 29 39 30
f 30 39 40
f 32 33 41
f 32 41 34
f 33 42 43
f 33 43 41
f 34 41 35
f 35 41 44
f 35 44 45
f 37 46 47
f 37 47 38
f 38 47 39
f 39 47 48
f 39 48 49
f 39 49 40
f 41 43 44
f 42 50 51
f 42 51 52
f 42 52 43
f 43 52 44
f 44 52 45
f 45 52 53
f 45 53 54
f 46 55 56
f 46 56 47
f 47 56 48
f 48 56 57
f 48 57 58
f 48 58 49
f 50 59 53
f 50 53 51
f 50 60 61
f 50 61 59
f 51 53 52
f 53 59 54
f 54 59 62
f 54 62 63
f 55 64 57
f 55 57 56
f 57 64 65
f 57 65 58
f 58 65 66
f 59 61 62
f 60 67 74
f 60 74 68
f 60 68 63
f 60 63 62
f 60 62 61
f 64 69 70
f 64 70 71
f 64 71 65
f 65 71 66
f 66 71 70
f 66 70 72
f 67 73 74
f 68 74 73
f 68 73 75
f 69 76 70
f 70 76 77
f 70 77 72
f 72 77 78
f 73 79 80
f 73 80 81
f 73 81 75
f 75 81 80
f 76 82 83
f 76 83 77
f 77 83 78
f 78 83 84
f 78 84 85
f 79 86 80
f 80 86 87
f 82 88 84
f 82 84 83
f 84 88 89
f 84 89 85
f 85 89 90
f 86 91 92
f 86 92 87
f 88 93 89
f 88 94 93
f 89 93 94
f 89 94 98
f 89 98 99
f 89 99 95
f 89 95 90
f 91 96 97
f 91 97 92
f 95 99 100
f 96 101 97
f 96 102 103
f 96 103 101
f 98 104 99
f 99 104 100
f 100 104 105
f 100 105 106
f 100 106 107
f 102 108 109
f 102 109 103
f 104 106 105
f 106 110 107
f 107 110 111
f 108 112 109
f 109 112 113
f 109 113 114
f 110 115 111
f 111 115 116
f 111 116 117
f 113 118 119
f 113 119 114
f 116 120 121
f 116 121 117
f 118 122 119
f 119 122 123
f 120 124 125
f 120 125 121
f 122 126 123
f 123 126 127
f 123 127 128
f 124 129 130
f 124 130 125
f 127 131 132
f 127 132 128
f 129 133 134
f 129 134 130
f 131 134 133
f 131 133 132

