# https://github.com/mikedh/trimesh
v -0.01252469 -0.00746694 -0.00306245
v -0.01252469 -0.00746479 -0.00361926
v -0.01043639 -0.00701884 -0.00361926
v -0.01043639 -0.00701965 -0.00319542
v -0.01252469 -0.00746694 0.00306245
v -0.01252469 -0.00735155 -0.00408570
v -0.01043639 -0.00697930 -0.00375223
v -0.01043639 -0.00701965 0.00306245
v -0.01043639 -0.00701884 0.00361926
v -0.01252469 -0.00746479 0.00361926
v -0.01252469 -0.00717646 -0.00436410
v -0.01043639 -0.00673482 -0.00437137
v -0.01043639 -0.00678995 -0.00428307
v -0.01043639 -0.00683110 -0.00421659
v -0.01252469 -0.00735155 0.00408569
v -0.01252469 -0.00746425 0.00362446
v -0.01043639 -0.00683110 0.00421659
v -0.01043639 -0.00657317 -0.00456771
v -0.01050978 -0.00668640 -0.00445759
v -0.01252469 -0.00689781 -0.00465809
v -0.01043639 -0.00668479 0.00445655
v -0.01252469 -0.00717646 0.00436410
v -0.01043639 -0.00640802 -0.00473704
v -0.01252469 -0.00660275 -0.00493649
v -0.01043639 -0.00624288 -0.00489806
v -0.01043639 -0.00635073 -0.00479417
v -0.01252469 -0.00717323 0.00436825
v -0.01043639 -0.00646585 0.00467990
v -0.01252469 -0.00689781 0.00465809
v -0.01051408 -0.00612911 -0.00501440
v -0.01252469 -0.00632438 -0.00514530
v -0.01043639 -0.00603847 -0.00506115
v -0.01043639 -0.00640802 0.00473704
v -0.01043639 -0.00612749 0.00501336
v -0.01252469 -0.00689458 0.00466120
v -0.01252469 -0.00585288 -0.00529073
v -0.01197394 -0.00584831 -0.00525645
v -0.01043639 -0.00588919 -0.00514114
v -0.01043639 -0.00595401 0.00510894
v -0.01252469 -0.00632438 0.00514530
v -0.01252469 -0.00659980 0.00493961
v -0.01252469 -0.00584831 -0.00529177
v -0.01043639 -0.00529128 -0.00530631
v -0.01043639 -0.00588919 0.00514114
v -0.01197394 -0.00584831 0.00525645
v -0.01252469 -0.00584831 0.00529177
v -0.01252469 -0.00529128 -0.00530631
v -0.01043639 -0.00471919 -0.00530631
v -0.01043639 -0.00542442 0.00527515
v -0.01043639 -0.00529128 0.00530631
v -0.01252469 -0.00584212 0.00529281
v -0.01252469 -0.00471946 -0.00530631
v -0.01198907 -0.00471919 -0.00530631
v -0.01043639 -0.00471919 0.00530631
v -0.01252469 -0.00529128 0.00530631
v -0.01252469 -0.00471919 -0.00094014
v -0.01252469 -0.00471919 0.00530631
f 1 2 3
f 1 3 4
f 1 4 8
f 1 8 5
f 1 5 10
f 1 10 16
f 1 16 15
f 1 15 22
f 1 22 27
f 1 27 29
f 1 29 35
f 1 35 41
f 1 41 40
f 1 40 46
f 1 46 51
f 1 51 55
f 1 55 57
f 1 57 56
f 1 56 52
f 1 52 47
f 1 47 42
f 1 42 36
f 1 36 31
f 1 31 24
f 1 24 20
f 1 20 11
f 1 11 6
f 1 6 2
f 2 6 3
f 3 7 14
f 3 14 13
f 3 13 12
f 3 12 18
f 3 18 23
f 3 23 26
f 3 26 25
f 3 25 32
f 3 32 38
f 3 38 43
f 3 43 48
f 3 48 54
f 3 54 50
f 3 50 49
f 3 49 44
f 3 44 39
f 3 39 34
f 3 34 33
f 3 33 28
f 3 28 21
f 3 21 17
f 3 17 9
f 3 9 8
f 3 8 4
f 3 6 7
f 5 8 9
f 5 9 10
f 6 11 12
f 6 12 13
f 6 13 14
f 6 14 7
f 9 15 16
f 9 16 10
f 9 17 15
f 11 18 19
f 11 19 12
f 11 20 18
f 12 19 18
f 15 17 21
f 15 21 22
f 18 20 23
f 20 24 25
f 20 25 26
f 20 26 23
f 21 27 22
f 21 28 29
f 21 29 27
f 24 30 25
f 24 31 30
f 25 30 32
f 28 33 29
f 29 33 34
f 29 34 35
f 30 31 32
f 31 36 37
f 31 37 38
f 31 38 32
f 34 39 40
f 34 40 41
f 34 41 35
f 36 42 43
f 36 43 37
f 37 43 38
f 39 44 40
f 40 44 45
f 40 45 46
f 42 47 43
f 43 47 52
f 43 52 53
f 43 53 48
f 44 49 45
f 45 49 46
f 46 49 50
f 46 50 51
f 48 53 56
f 48 56 57
f 48 57 54
f 50 55 51
f 50 54 57
f 50 57 55
f 52 56 53

