# https://github.com/mikedh/trimesh
v 0.02100947 -0.01052347 0.00361926
v 0.02088303 -0.01030359 0.00361926
v 0.02005929 -0.00889343 0.00396000
v 0.02098468 -0.01052347 0.00390806
v 0.02100947 -0.01052347 -0.00361926
v 0.02050370 -0.00964567 0.00361926
v 0.01782547 -0.00500782 0.00391637
v 0.02088303 -0.01030359 -0.00361926
v 0.02064068 -0.00996554 0.00417607
v 0.02096113 -0.01052347 0.00417607
v 0.02098902 -0.01052347 -0.00385612
v 0.02005929 -0.00889343 -0.00395896
v 0.01766617 -0.00472715 0.00361926
v 0.02050370 -0.00964567 -0.00361926
v 0.01762588 -0.00471976 0.00406803
v 0.01761969 -0.00471976 0.00413764
v 0.01765998 -0.00478737 0.00413140
v 0.01779262 -0.00506350 0.00428723
v 0.01837834 -0.00612708 0.00445448
v 0.01766183 -0.00471976 0.00361926
v 0.01782547 -0.00500782 -0.00391637
v 0.02002706 -0.00894854 0.00433086
v 0.02061341 -0.01001326 0.00446590
v 0.02076712 -0.01052347 0.00463939
v 0.02096113 -0.01052347 -0.00417607
v 0.02064006 -0.00996611 -0.00417607
v 0.02002706 -0.00894968 -0.00433086
v 0.01766617 -0.00472715 -0.00361926
v 0.01737796 -0.00471976 0.00469029
v 0.01789922 -0.00543450 0.00456459
v 0.01896345 -0.00719237 0.00449811
v 0.01766183 -0.00471976 -0.00361926
v 0.01779262 -0.00506406 -0.00428723
v 0.01765998 -0.00478737 -0.00413140
v 0.01761969 -0.00471976 -0.00413764
v 0.01954856 -0.00825596 0.00453758
v 0.02013367 -0.00932011 0.00457290
v 0.02069584 -0.01030359 0.00457394
v 0.02061031 -0.01052347 0.00482326
v 0.02089419 -0.01052347 -0.00436826
v 0.02061279 -0.01001383 -0.00446487
v 0.01837772 -0.00612822 -0.00445032
v 0.01728436 -0.00471976 0.00480144
v 0.01938741 -0.00852299 0.00490948
v 0.01789922 -0.00543507 -0.00456459
v 0.01737796 -0.00471976 -0.00469029
v 0.01760357 -0.00471976 -0.00419581
v 0.01997252 -0.00959112 0.00494376
v 0.02051982 -0.01052347 0.00492818
v 0.02076712 -0.01052347 -0.00463939
v 0.02069584 -0.01030359 -0.00457394
v 0.02013367 -0.00932068 -0.00457290
v 0.01954856 -0.00825596 -0.00453758
v 0.01896283 -0.00719294 -0.00449811
v 0.01705503 -0.00471976 0.00500505
v 0.01726825 -0.00500725 0.00501440
v 0.01717962 -0.00471976 -0.00492507
v 0.01728436 -0.00471976 -0.00480145
v 0.01891263 -0.00783268 0.00499570
v 0.01950146 -0.00889400 0.00501856
v 0.02008346 -0.00996270 0.00503518
v 0.02017830 -0.01030359 0.00508193
v 0.02024957 -0.01052347 0.00510270
v 0.02052105 -0.01052347 -0.00492922
v 0.01997252 -0.00959169 -0.00494376
v 0.01938741 -0.00852299 -0.00490844
v 0.01694780 -0.00471976 0.00508504
v 0.01734387 -0.00529133 0.00505699
v 0.01726825 -0.00500725 -0.00501440
v 0.01694780 -0.00471976 -0.00508504
v 0.01958079 -0.00918944 0.00506219
v 0.01854136 -0.00751906 0.00509543
v 0.01978037 -0.00976498 0.00511621
v 0.01921386 -0.00918944 0.00519828
v 0.01977107 -0.01030359 0.00522321
v 0.01977107 -0.01052347 0.00524606
v 0.02041693 -0.01052347 -0.00501544
v 0.02008284 -0.00996270 -0.00503518
v 0.01950146 -0.00889457 -0.00501856
v 0.01891325 -0.00783155 -0.00499571
v 0.01643088 -0.00471976 0.00525022
v 0.01697570 -0.00478680 0.00509024
v 0.01843227 -0.00714067 -0.00504661
v 0.01734387 -0.00529133 -0.00505700
v 0.01697570 -0.00478680 -0.00509024
v 0.01692177 -0.00471976 -0.00509543
v 0.01754903 -0.00587368 0.00511101
v 0.01698685 -0.00529133 0.00519204
v 0.01754407 -0.00640548 0.00521697
v 0.01810005 -0.00751906 0.00523879
v 0.01865726 -0.00863265 0.00525645
v 0.01921386 -0.00974623 0.00527099
v 0.01921386 -0.01030359 0.00530008
v 0.01921386 -0.01052347 0.00530216
v 0.02025020 -0.01052347 -0.00510270
v 0.02017892 -0.01030359 -0.00508193
v 0.01958079 -0.00918944 -0.00506219
v 0.01642964 -0.00473453 0.00525229
v 0.01587304 -0.00471976 0.00530320
v 0.01854136 -0.00751906 -0.00509543
v 0.01754903 -0.00587425 -0.00511101
v 0.01698685 -0.00529133 -0.00519204
v 0.01643088 -0.00471976 -0.00525022
v 0.01698685 -0.00584869 0.00526788
v 0.01754407 -0.00696227 0.00527930
v 0.01810005 -0.00807585 0.00528865
v 0.01865726 -0.00918944 0.00529489
v 0.01698685 -0.00640548 0.00529904
v 0.01754407 -0.00751906 0.00530216
v 0.01810005 -0.00863265 0.00530424
v 0.01865726 -0.00974623 0.00530527
v 0.01865726 -0.01030359 0.00530631
v 0.01865726 -0.01052347 0.00530631
v 0.02000661 -0.01052347 -0.00518685
v 0.01978037 -0.00976498 -0.00511621
v 0.01642964 -0.00529133 0.00529385
v 0.01531582 -0.00471976 0.00530631
v 0.01587304 -0.00473453 0.00530424
v 0.01812298 -0.00695829 -0.00512971
v 0.01921386 -0.00918944 -0.00519828
v 0.01754407 -0.00640548 -0.00521697
v 0.01642964 -0.00473453 -0.00525333
v 0.01641476 -0.00471976 -0.00525333
v 0.01698685 -0.00696227 0.00530631
v 0.01754407 -0.00807585 0.00530631
v 0.01810005 -0.01030359 0.00530631
v 0.01810005 -0.01052347 0.00530112
v 0.01977107 -0.01052347 -0.00524606
v 0.01977107 -0.01030359 -0.00522217
v 0.01587304 -0.00529133 0.00530631
v 0.01475923 -0.00471976 0.00530631
v 0.01810005 -0.00751906 -0.00523879
v 0.01865726 -0.00863265 -0.00525645
v 0.01698685 -0.00584869 -0.00526788
v 0.01642964 -0.00529133 -0.00529385
v 0.01587304 -0.00471976 -0.00530320
v 0.01475923 -0.00640548 0.00530631
v 0.01467803 -0.00640548 0.00530527
v 0.01475923 -0.00696227 0.00527411
v 0.01467803 -0.00696682 0.00525853
v 0.01753849 -0.01052347 0.00518581
v 0.01943390 -0.01052347 -0.00529281
v 0.01921386 -0.00974623 -0.00527099
v 0.01467803 -0.00472147 0.00530631
v 0.01467803 -0.00471976 0.00485546
v 0.01754407 -0.00696227 -0.00527930
v 0.01810005 -0.00807585 -0.00528865
v 0.01865726 -0.00918944 -0.00529489
v 0.01698685 -0.00640548 -0.00529904
v 0.01587304 -0.00473453 -0.00530424
v 0.01585754 -0.00471976 -0.00530424
v 0.01467803 -0.00584869 0.00530631
v 0.01467803 -0.00745713 0.00510270
v 0.01722734 -0.01052347 0.00504037
v 0.01921386 -0.01052347 -0.00530216
v 0.01921386 -0.01030359 -0.00530008
v 0.01467803 -0.00471976 -0.00530631
v 0.01754407 -0.00751906 -0.00530216
v 0.01810005 -0.00863265 -0.00530424
v 0.01865726 -0.00974623 -0.00530527
v 0.01698685 -0.00696227 -0.00530631
v 0.01587304 -0.00529133 -0.00530631
v 0.01531582 -0.00471976 -0.00530631
v 0.01467803 -0.00763894 0.00497389
v 0.01467803 -0.00779178 0.00486377
v 0.01694037 -0.01052347 0.00479625
v 0.01887668 -0.01052347 -0.00530631
v 0.01467803 -0.00632480 -0.00530631
v 0.01467803 -0.00802188 0.00468094
v 0.01662922 -0.01052347 0.00452304
v 0.01832008 -0.01052347 -0.00530631
v 0.01810005 -0.01030359 -0.00530631
v 0.01467803 -0.00640548 -0.00530527
v 0.01467803 -0.00816846 0.00454901
v 0.01467803 -0.00846050 0.00426853
v 0.01637199 -0.01052347 0.00420100
v 0.01810005 -0.01052347 -0.00530112
v 0.01467803 -0.00688159 -0.00527827
v 0.01467803 -0.00856788 0.00413036
v 0.01630443 -0.01052347 0.00399843
v 0.01776348 -0.01052347 -0.00525333
v 0.01467803 -0.00696682 -0.00525853
v 0.01467803 -0.00873662 0.00361926
v 0.01617985 -0.01052347 0.00361926
v 0.01753849 -0.01052347 -0.00518373
v 0.01467803 -0.00740998 -0.00512348
v 0.01467803 -0.00873946 0.00306141
v 0.01617985 -0.01052347 0.00305103
v 0.01732465 -0.01052347 -0.00509959
v 0.01467803 -0.00745713 -0.00510270
v 0.01467803 -0.00873946 -0.00306349
v 0.01618543 -0.01052347 -0.00306661
v 0.01723044 -0.01052347 -0.00503830
v 0.01467803 -0.00770314 -0.00493441
v 0.01467803 -0.00873662 -0.00361926
v 0.01618729 -0.01052347 -0.00362134
v 0.01715358 -0.01052347 -0.00497493
v 0.01675876 -0.01052347 -0.00463316
v 0.01467803 -0.00796847 -0.00472769
v 0.01467803 -0.00873605 -0.00362238
v 0.01467803 -0.00856788 -0.00413036
v 0.01637881 -0.01052347 -0.00420100
v 0.01663480 -0.01052347 -0.00451785
v 0.01467803 -0.00833152 -0.00441812
v 0.01467803 -0.00853436 -0.00418127
v 0.01467803 -0.00846050 -0.00426853
v 0.01651269 -0.01052347 -0.00437345
f 1 2 3
f 1 3 4
f 1 4 10
f 1 10 24
f 1 24 39
f 1 39 49
f 1 49 63
f 1 63 76
f 1 76 94
f 1 94 113
f 1 113 127
f 1 127 141
f 1 141 154
f 1 154 166
f 1 166 170
f 1 170 176
f 1 176 180
f 1 180 184
f 1 184 188
f 1 188 192
f 1 192 196
f 1 196 202
f 1 202 207
f 1 207 203
f 1 203 198
f 1 198 197
f 1 197 193
f 1 193 189
f 1 189 185
f 1 185 181
f 1 181 177
f 1 177 171
f 1 171 167
f 1 167 155
f 1 155 142
f 1 142 128
f 1 128 114
f 1 114 95
f 1 95 77
f 1 77 64
f 1 64 50
f 1 50 40
f 1 40 25
f 1 25 11
f 1 11 5
f 1 5 8
f 1 8 2
f 2 6 7
f 2 7 3
f 2 8 14
f 2 14 6
f 3 7 9
f 3 9 10
f 3 10 4
f 5 11 12
f 5 12 8
f 6 13 7
f 6 14 28
f 6 28 13
f 7 15 16
f 7 16 17
f 7 17 18
f 7 18 19
f 7 19 9
f 7 13 20
f 7 20 15
f 8 12 21
f 8 21 14
f 9 19 22
f 9 22 23
f 9 23 10
f 10 23 24
f 11 25 12
f 12 25 26
f 12 26 27
f 12 27 21
f 13 28 32
f 13 32 20
f 14 21 28
f 15 20 32
f 15 32 35
f 15 35 47
f 15 47 46
f 15 46 58
f 15 58 57
f 15 57 70
f 15 70 86
f 15 86 103
f 15 103 123
f 15 123 136
f 15 136 151
f 15 151 163
f 15 163 157
f 15 157 145
f 15 145 131
f 15 131 117
f 15 117 99
f 15 99 81
f 15 81 67
f 15 67 55
f 15 55 43
f 15 43 29
f 15 29 16
f 16 18 17
f 16 29 18
f 18 30 19
f 18 29 30
f 19 30 31
f 19 31 23
f 19 23 22
f 21 27 33
f 21 33 34
f 21 34 35
f 21 35 32
f 21 32 28
f 23 31 36
f 23 36 37
f 23 37 38
f 23 38 24
f 24 38 37
f 24 37 39
f 25 40 41
f 25 41 27
f 25 27 26
f 27 41 42
f 27 42 33
f 29 43 30
f 30 37 36
f 30 36 31
f 30 43 44
f 30 44 37
f 33 42 45
f 33 45 46
f 33 46 47
f 33 47 35
f 33 35 34
f 37 44 48
f 37 48 39
f 39 48 49
f 40 50 41
f 41 51 52
f 41 52 53
f 41 53 54
f 41 54 42
f 41 50 51
f 42 54 45
f 43 55 56
f 43 56 44
f 44 56 48
f 45 54 53
f 45 53 52
f 45 52 57
f 45 57 58
f 45 58 46
f 48 56 59
f 48 59 60
f 48 60 49
f 49 60 61
f 49 61 62
f 49 62 63
f 50 64 52
f 50 52 51
f 52 64 65
f 52 65 66
f 52 66 57
f 55 67 56
f 56 61 60
f 56 60 59
f 56 67 68
f 56 68 61
f 57 66 69
f 57 69 70
f 61 68 71
f 61 71 62
f 62 71 72
f 62 72 73
f 62 73 63
f 63 73 74
f 63 74 75
f 63 75 76
f 64 77 78
f 64 78 79
f 64 79 80
f 64 80 65
f 65 80 66
f 66 80 69
f 67 81 82
f 67 82 68
f 68 82 72
f 68 72 71
f 69 80 79
f 69 79 83
f 69 83 84
f 69 84 70
f 70 84 85
f 70 85 86
f 72 82 87
f 72 87 73
f 73 87 88
f 73 88 74
f 74 88 89
f 74 89 75
f 75 89 90
f 75 90 91
f 75 91 92
f 75 92 76
f 76 92 93
f 76 93 94
f 77 95 96
f 77 96 78
f 78 96 97
f 78 97 83
f 78 83 79
f 81 98 90
f 81 90 89
f 81 89 88
f 81 88 82
f 81 99 98
f 82 88 87
f 83 97 84
f 84 97 96
f 84 96 100
f 84 100 85
f 85 100 101
f 85 101 102
f 85 102 86
f 86 102 103
f 90 98 91
f 91 104 92
f 91 98 104
f 92 104 105
f 92 105 106
f 92 106 107
f 92 107 93
f 93 108 109
f 93 109 110
f 93 110 111
f 93 111 94
f 93 107 108
f 94 111 112
f 94 112 113
f 95 114 115
f 95 115 96
f 96 115 100
f 98 116 104
f 98 99 116
f 99 117 118
f 99 118 116
f 100 115 101
f 101 115 119
f 101 119 102
f 102 120 121
f 102 121 122
f 102 122 103
f 102 119 115
f 102 115 120
f 103 122 123
f 104 116 105
f 105 116 106
f 106 116 107
f 107 116 108
f 108 118 109
f 108 116 118
f 109 118 110
f 110 118 111
f 111 118 124
f 111 124 125
f 111 125 112
f 112 125 124
f 112 124 130
f 112 130 117
f 112 117 131
f 112 131 144
f 112 144 152
f 112 152 137
f 112 137 126
f 112 126 113
f 113 126 127
f 114 128 129
f 114 129 120
f 114 120 115
f 117 130 118
f 118 130 124
f 120 129 121
f 121 129 132
f 121 132 122
f 122 132 133
f 122 133 134
f 122 134 135
f 122 135 136
f 122 136 123
f 126 137 138
f 126 138 127
f 127 138 139
f 127 139 140
f 127 140 141
f 128 142 143
f 128 143 129
f 129 143 133
f 129 133 132
f 131 145 144
f 133 143 134
f 134 143 146
f 134 146 135
f 135 146 147
f 135 147 148
f 135 148 149
f 135 149 150
f 135 150 136
f 136 150 151
f 137 152 138
f 138 152 144
f 138 144 145
f 138 145 157
f 138 157 168
f 138 168 173
f 138 173 178
f 138 178 182
f 138 182 186
f 138 186 190
f 138 190 194
f 138 194 199
f 138 199 204
f 138 204 206
f 138 206 205
f 138 205 201
f 138 201 200
f 138 200 195
f 138 195 191
f 138 191 187
f 138 187 183
f 138 183 179
f 138 179 175
f 138 175 174
f 138 174 169
f 138 169 165
f 138 165 164
f 138 164 153
f 138 153 140
f 138 140 139
f 140 153 141
f 141 153 154
f 142 148 147
f 142 147 143
f 142 155 156
f 142 156 148
f 143 147 146
f 148 156 149
f 149 156 158
f 149 158 150
f 150 158 159
f 150 159 160
f 150 160 161
f 150 161 162
f 150 162 163
f 150 163 151
f 153 164 154
f 154 164 165
f 154 165 166
f 155 167 160
f 155 160 156
f 156 160 159
f 156 159 158
f 157 163 162
f 157 162 161
f 157 161 167
f 157 167 171
f 157 171 172
f 157 172 168
f 160 167 161
f 165 169 170
f 165 170 166
f 168 172 173
f 169 174 170
f 170 174 175
f 170 175 176
f 171 177 172
f 172 177 173
f 173 177 178
f 175 179 176
f 176 179 180
f 177 181 178
f 178 181 182
f 179 183 184
f 179 184 180
f 181 185 182
f 182 185 186
f 183 187 184
f 184 187 191
f 184 191 188
f 185 189 186
f 186 189 190
f 188 191 192
f 189 193 190
f 190 193 194
f 191 195 196
f 191 196 192
f 193 197 194
f 194 197 198
f 194 198 199
f 195 200 196
f 196 200 201
f 196 201 202
f 198 203 199
f 199 203 204
f 201 205 202
f 202 205 206
f 202 206 204
f 202 204 207
f 203 207 204

