# https://github.com/mikedh/trimesh
v -0.00695947 -0.02255662 -0.00530631
v 0.00631117 -0.02302039 -0.00530216
v -0.00864296 -0.02311277 -0.00530112
v -0.00417576 -0.02088554 -0.00530527
v -0.00361867 -0.02088554 -0.00530631
v 0.00696082 -0.02255662 -0.00530631
v 0.00919791 -0.02311277 -0.00530112
v -0.00361867 -0.02366967 -0.00519516
v -0.00864296 -0.02365940 -0.00519620
v -0.00864296 -0.02255662 -0.00522009
v 0.00631117 -0.02357729 -0.00521282
v -0.00419322 -0.02067190 -0.00526268
v -0.00361867 -0.02067190 -0.00530424
v -0.00306158 -0.02067190 -0.00530631
v 0.00340347 -0.02067190 -0.00530631
v 0.00417536 -0.02088554 -0.00530527
v 0.00919791 -0.02256499 -0.00518997
v 0.00919791 -0.02367005 -0.00519516
v 0.00396231 -0.02067190 -0.00530424
v -0.00361867 -0.02400001 -0.00505284
v -0.00640238 -0.02399963 -0.00505284
v -0.00864296 -0.02366967 -0.00519412
v 0.00631117 -0.02367005 -0.00519516
v 0.00631117 -0.02394565 -0.00507673
v -0.00864296 -0.02221032 -0.00507258
v -0.00473285 -0.02067190 -0.00517023
v 0.00919791 -0.02255662 -0.00518789
v 0.00919791 -0.02400077 -0.00505284
v 0.00455782 -0.02067190 -0.00522425
v 0.00918918 -0.02400077 -0.00505284
v 0.00919791 -0.02400457 -0.00504868
v 0.00807500 -0.02426192 -0.00473392
v -0.00695947 -0.02425812 -0.00473392
v -0.00807365 -0.02425774 -0.00473392
v -0.00864296 -0.02399925 -0.00505180
v -0.00864296 -0.02399279 -0.00505492
v 0.00631117 -0.02426154 -0.00473392
v -0.00027962 -0.02426002 -0.00473392
v -0.00306158 -0.02425926 -0.00473392
v -0.00864296 -0.02193168 -0.00480456
v -0.00509609 -0.02067190 -0.00505076
v 0.00919791 -0.02224719 -0.00504141
v 0.00499092 -0.02067190 -0.00510686
v 0.00919791 -0.02426192 -0.00473392
v 0.00919791 -0.02426572 -0.00472769
v 0.00863209 -0.02448811 -0.00434852
v -0.00864296 -0.02425736 -0.00473392
v 0.00751791 -0.02448811 -0.00434748
v -0.00864296 -0.02192636 -0.00479937
v -0.00864296 -0.02164886 -0.00452616
v -0.00539123 -0.02067190 -0.00489390
v 0.00919791 -0.02197273 -0.00477028
v 0.00510094 -0.02067190 -0.00505388
v 0.00919791 -0.02168877 -0.00448772
v 0.00919791 -0.02448811 -0.00434852
v 0.00919791 -0.02448887 -0.00434436
v -0.00751656 -0.02448544 -0.00433190
v -0.00864296 -0.02448506 -0.00433086
v 0.00863209 -0.02452992 -0.00407011
v 0.00696082 -0.02448811 -0.00434644
v -0.00864296 -0.02141013 -0.00417607
v -0.00606183 -0.02067190 -0.00452200
v 0.00528780 -0.02067190 -0.00495727
v 0.00919791 -0.02149376 -0.00418127
v 0.00919791 -0.02452992 -0.00407011
v -0.00807365 -0.02448544 -0.00433086
v -0.00864296 -0.02452612 -0.00405765
v 0.00751791 -0.02452992 -0.00406804
v 0.00919791 -0.02455501 -0.00361926
v -0.00807365 -0.02452726 -0.00405141
v -0.00864296 -0.02140671 -0.00416568
v -0.00677784 -0.02067190 -0.00399428
v -0.00631680 -0.02067190 -0.00436306
v 0.00567374 -0.02067190 -0.00474950
v 0.00919791 -0.02149072 -0.00417607
v 0.00616273 -0.02067190 -0.00447733
v -0.00864296 -0.02452688 -0.00405141
v 0.00919791 -0.02455501 0.00361926
v -0.00473285 -0.02455045 -0.00361926
v -0.00807365 -0.02454931 -0.00361926
v -0.00864296 -0.02454855 -0.00362757
v -0.00864296 -0.02124287 -0.00361926
v -0.00690358 -0.02067190 -0.00361926
v 0.00919791 -0.02132802 -0.00362861
v 0.00631117 -0.02067190 -0.00437449
v 0.00632863 -0.02067228 -0.00436306
v 0.00637753 -0.02067228 -0.00432670
v 0.00665346 -0.02067228 -0.00411270
v 0.00678269 -0.02067228 -0.00399843
v 0.00919791 -0.02452992 0.00406388
v 0.00918918 -0.02452992 0.00406388
v 0.00751791 -0.02452992 0.00406180
v -0.00864296 -0.02452764 0.00403895
v -0.00473285 -0.02455045 0.00361926
v -0.00807365 -0.02454931 0.00361926
v -0.00864296 -0.02454893 -0.00361926
v -0.00864296 -0.02124249 -0.00306245
v -0.00690708 -0.02067190 -0.00306245
v 0.00919791 -0.02132536 -0.00361926
v 0.00631117 -0.02067190 0.00437345
v 0.00691890 -0.02067228 -0.00306245
v 0.00691541 -0.02067228 -0.00361926
v 0.00690319 -0.02067228 -0.00372834
v 0.00919791 -0.02452954 0.00406803
v 0.00139166 -0.02452878 0.00405765
v -0.00807365 -0.02452726 0.00404726
v -0.00864296 -0.02452688 0.00404726
v -0.00864296 -0.02454893 0.00361926
v -0.00864296 -0.02124249 0.00307284
v -0.00690708 -0.02067190 0.00306245
v 0.00919791 -0.02132536 0.00361926
v 0.00919791 -0.02149072 0.00417607
v 0.00632863 -0.02067228 0.00436306
v 0.00678269 -0.02067228 0.00399843
v 0.00691541 -0.02067228 0.00361926
v 0.00691890 -0.02067228 0.00306245
v 0.00606318 -0.02067190 0.00452616
v 0.00919791 -0.02448621 0.00434228
v 0.00918918 -0.02448621 0.00434228
v 0.00631117 -0.02448621 0.00434021
v 0.00027747 -0.02448544 0.00433501
v -0.00250449 -0.02448506 0.00433190
v -0.00695947 -0.02448430 0.00432774
v -0.00864296 -0.02448392 0.00432566
v -0.00864296 -0.02124287 0.00361926
v -0.00690358 -0.02067190 0.00361926
v 0.00919791 -0.02168877 0.00448772
v 0.00582568 -0.02067190 0.00465913
v 0.00539433 -0.02067190 0.00489702
v 0.00510094 -0.02067190 0.00505388
v 0.00919791 -0.02448278 0.00434852
v -0.00864296 -0.02425774 0.00473392
v -0.00417576 -0.02448468 0.00433086
v -0.00864296 -0.02141013 0.00417607
v -0.00677784 -0.02067190 0.00399428
v -0.00689310 -0.02067190 0.00373249
v 0.00919791 -0.02196855 0.00476612
v 0.00473245 -0.02067190 0.00517230
v 0.00919791 -0.02224719 0.00504141
v 0.00919791 -0.02224263 0.00503726
v 0.00919791 -0.02426230 0.00473392
v 0.00807500 -0.02426230 0.00473392
v 0.00631117 -0.02426192 0.00473392
v 0.00306118 -0.02426116 0.00473392
v -0.00139031 -0.02426002 0.00473392
v -0.00417576 -0.02425926 0.00473392
v -0.00864296 -0.02400039 0.00505284
v -0.00864296 -0.02141355 0.00418231
v -0.00615788 -0.02067190 0.00447421
v -0.00631680 -0.02067190 0.00436306
v -0.00637094 -0.02067190 0.00432255
v -0.00664861 -0.02067190 0.00410959
v 0.00419457 -0.02067190 0.00526372
v 0.00919791 -0.02255662 0.00518789
v 0.00919791 -0.02255206 0.00518581
v 0.00919791 -0.02400267 0.00505492
v 0.00807500 -0.02400267 0.00505492
v -0.00361867 -0.02400115 0.00505388
v -0.00864296 -0.02366967 0.00519516
v -0.00473285 -0.02400077 0.00505388
v -0.00864296 -0.02164886 0.00452616
v -0.00566716 -0.02067190 0.00474743
v 0.00362002 -0.02067190 0.00530527
v 0.00417536 -0.02088554 0.00530527
v 0.00919791 -0.02311277 0.00530112
v 0.00919791 -0.02367005 0.00519620
v 0.00631117 -0.02367005 0.00519620
v -0.00083496 -0.02366967 0.00519620
v -0.00864296 -0.02311277 0.00530112
v -0.00864296 -0.02193168 0.00480456
v -0.00498607 -0.02067190 0.00510478
v -0.00509609 -0.02067190 0.00505076
v -0.00527946 -0.02067190 0.00495727
v 0.00362002 -0.02088554 0.00530631
v 0.00306118 -0.02067190 0.00530631
v 0.00696082 -0.02255662 0.00530631
v 0.00919791 -0.02366093 0.00519828
v -0.00695947 -0.02255662 0.00530631
v -0.00396270 -0.02067190 0.00530424
v -0.00864296 -0.02256689 0.00522217
v -0.00864296 -0.02193700 0.00480975
v -0.00455647 -0.02067190 0.00522217
v -0.00864296 -0.02221032 0.00507258
v -0.00340387 -0.02067190 0.00530631
v -0.00417576 -0.02088554 0.00530527
v -0.00864296 -0.02255662 0.00522009
v -0.00864296 -0.02221640 0.00507569
f 1 2 3
f 1 3 4
f 1 4 5
f 1 5 14
f 1 14 15
f 1 15 6
f 1 6 2
f 2 6 7
f 2 7 3
f 3 8 9
f 3 9 22
f 3 22 36
f 3 36 35
f 3 35 47
f 3 47 58
f 3 58 67
f 3 67 77
f 3 77 81
f 3 81 96
f 3 96 108
f 3 108 93
f 3 93 107
f 3 107 124
f 3 124 132
f 3 132 147
f 3 147 159
f 3 159 169
f 3 169 180
f 3 180 186
f 3 186 187
f 3 187 183
f 3 183 181
f 3 181 170
f 3 170 161
f 3 161 148
f 3 148 134
f 3 134 125
f 3 125 109
f 3 109 97
f 3 97 82
f 3 82 71
f 3 71 61
f 3 61 50
f 3 50 49
f 3 49 40
f 3 40 25
f 3 25 10
f 3 10 4
f 3 7 11
f 3 11 8
f 4 12 13
f 4 13 14
f 4 14 5
f 4 10 12
f 6 15 16
f 6 16 7
f 7 17 27
f 7 27 42
f 7 42 52
f 7 52 54
f 7 54 64
f 7 64 75
f 7 75 84
f 7 84 99
f 7 99 111
f 7 111 112
f 7 112 127
f 7 127 137
f 7 137 140
f 7 140 139
f 7 139 155
f 7 155 154
f 7 154 165
f 7 165 177
f 7 177 166
f 7 166 156
f 7 156 141
f 7 141 131
f 7 131 118
f 7 118 104
f 7 104 90
f 7 90 78
f 7 78 69
f 7 69 65
f 7 65 56
f 7 56 55
f 7 55 45
f 7 45 44
f 7 44 31
f 7 31 28
f 7 28 18
f 7 18 11
f 7 16 19
f 7 19 17
f 8 20 21
f 8 21 22
f 8 22 9
f 8 11 23
f 8 23 24
f 8 24 20
f 10 25 26
f 10 26 12
f 11 18 23
f 12 26 41
f 12 41 51
f 12 51 62
f 12 62 73
f 12 73 72
f 12 72 83
f 12 83 98
f 12 98 110
f 12 110 126
f 12 126 136
f 12 136 135
f 12 135 152
f 12 152 151
f 12 151 150
f 12 150 149
f 12 149 162
f 12 162 173
f 12 173 172
f 12 172 171
f 12 171 182
f 12 182 179
f 12 179 184
f 12 184 175
f 12 175 163
f 12 163 153
f 12 153 138
f 12 138 130
f 12 130 129
f 12 129 128
f 12 128 117
f 12 117 100
f 12 100 85
f 12 85 76
f 12 76 74
f 12 74 63
f 12 63 53
f 12 53 43
f 12 43 29
f 12 29 19
f 12 19 15
f 12 15 14
f 12 14 13
f 15 19 16
f 17 19 27
f 18 28 24
f 18 24 23
f 19 29 27
f 20 24 30
f 20 30 31
f 20 31 32
f 20 32 21
f 21 33 34
f 21 34 35
f 21 35 36
f 21 36 22
f 21 32 37
f 21 37 38
f 21 38 39
f 21 39 33
f 24 28 30
f 25 40 41
f 25 41 26
f 27 29 42
f 28 31 30
f 29 43 42
f 31 44 32
f 32 44 45
f 32 45 46
f 32 46 37
f 33 39 46
f 33 46 34
f 34 47 35
f 34 46 48
f 34 48 47
f 37 46 38
f 38 46 39
f 40 49 41
f 41 49 50
f 41 50 51
f 42 43 52
f 43 53 54
f 43 54 52
f 45 55 46
f 46 55 56
f 46 56 48
f 47 57 58
f 47 48 57
f 48 56 59
f 48 59 68
f 48 68 60
f 48 60 66
f 48 66 57
f 50 61 51
f 51 61 62
f 53 63 54
f 54 63 64
f 56 65 59
f 57 66 58
f 58 66 67
f 59 65 69
f 59 69 68
f 60 68 70
f 60 70 66
f 61 71 72
f 61 72 73
f 61 73 62
f 63 74 64
f 64 74 76
f 64 76 75
f 66 70 67
f 67 70 77
f 68 69 70
f 69 78 94
f 69 94 79
f 69 79 70
f 70 79 80
f 70 80 81
f 70 81 77
f 71 82 72
f 72 82 83
f 75 76 85
f 75 85 86
f 75 86 87
f 75 87 88
f 75 88 89
f 75 89 84
f 78 90 91
f 78 91 92
f 78 92 93
f 78 93 94
f 79 94 95
f 79 95 80
f 80 95 108
f 80 108 96
f 80 96 81
f 82 97 98
f 82 98 83
f 84 89 99
f 85 100 116
f 85 116 101
f 85 101 102
f 85 102 103
f 85 103 89
f 85 89 88
f 85 88 87
f 85 87 86
f 89 103 99
f 90 104 91
f 91 104 92
f 92 104 105
f 92 105 93
f 93 105 106
f 93 106 107
f 93 108 95
f 93 95 94
f 97 109 110
f 97 110 98
f 99 103 102
f 99 102 101
f 99 101 116
f 99 116 111
f 100 112 113
f 100 113 114
f 100 114 115
f 100 115 116
f 100 117 112
f 104 118 119
f 104 119 120
f 104 120 121
f 104 121 105
f 105 121 122
f 105 122 123
f 105 123 106
f 106 123 124
f 106 124 107
f 109 125 110
f 110 125 126
f 111 116 115
f 111 115 114
f 111 114 112
f 112 114 113
f 112 117 128
f 112 128 129
f 112 129 130
f 112 130 127
f 118 131 119
f 119 131 120
f 120 131 132
f 120 132 121
f 121 132 133
f 121 133 123
f 121 123 122
f 123 132 124
f 123 133 132
f 125 134 135
f 125 135 136
f 125 136 126
f 127 130 137
f 130 138 139
f 130 139 140
f 130 140 137
f 131 141 142
f 131 142 143
f 131 143 144
f 131 144 145
f 131 145 146
f 131 146 132
f 132 146 147
f 134 148 149
f 134 149 150
f 134 150 151
f 134 151 152
f 134 152 135
f 138 153 154
f 138 154 155
f 138 155 139
f 141 156 157
f 141 157 142
f 142 157 158
f 142 158 143
f 143 158 144
f 144 158 145
f 145 158 146
f 146 158 147
f 147 158 160
f 147 160 159
f 148 161 162
f 148 162 149
f 153 163 164
f 153 164 165
f 153 165 154
f 156 166 167
f 156 167 157
f 157 167 168
f 157 168 159
f 157 159 158
f 158 159 160
f 159 168 169
f 161 170 171
f 161 171 172
f 161 172 173
f 161 173 162
f 163 174 164
f 163 175 174
f 164 174 176
f 164 176 165
f 165 176 178
f 165 178 169
f 165 169 177
f 166 177 167
f 167 177 168
f 168 177 169
f 169 178 179
f 169 179 180
f 170 181 171
f 171 181 183
f 171 183 182
f 174 175 184
f 174 184 178
f 174 178 176
f 178 184 185
f 178 185 179
f 179 182 186
f 179 186 180
f 179 185 184
f 182 183 187
f 182 187 186

