# https://github.com/mikedh/trimesh
v 0.01477895 0.00027686 0.00361926
v 0.01373466 0.00208689 0.00361926
v 0.01394052 0.00170012 0.00400155
v 0.01472998 0.00027686 0.00417607
v 0.01477895 0.00027686 -0.00361926
v 0.01368569 0.00208689 0.00418127
v 0.01373466 0.00208689 -0.00361926
v 0.01390854 0.00164501 0.00437345
v 0.01449314 0.00058054 0.00447733
v 0.01458008 0.00027810 0.00458745
v 0.01458008 0.00027686 0.00458849
v 0.01472898 0.00027686 -0.00417607
v 0.01472898 0.00027810 -0.00417607
v 0.01394052 0.00170012 -0.00399947
v 0.01347983 0.00208689 0.00465601
v 0.01368469 0.00208689 -0.00418023
v 0.01401447 0.00127365 0.00458017
v 0.01385358 0.00100240 0.00495207
v 0.01434124 0.00027686 0.00486689
v 0.01458008 0.00027686 -0.00458849
v 0.01458008 0.00027810 -0.00458745
v 0.01449314 0.00057965 -0.00447629
v 0.01390754 0.00164360 -0.00437033
v 0.01327797 0.00208689 0.00489494
v 0.01363872 0.00208689 -0.00433190
v 0.01326797 0.00206971 0.00491779
v 0.01338190 0.00169852 0.00502271
v 0.01396350 0.00063103 0.00503934
v 0.01406343 0.00027686 0.00508712
v 0.01434224 0.00027686 -0.00486689
v 0.01385358 0.00100240 -0.00495207
v 0.01401447 0.00127224 -0.00458121
v 0.01347983 0.00208689 -0.00465601
v 0.01326198 0.00208689 0.00491260
v 0.01301514 0.00208689 0.00508712
v 0.01346484 0.00139183 0.00506738
v 0.01308410 0.00190989 0.00510063
v 0.01365871 0.00082416 0.00512036
v 0.01364472 0.00027810 0.00522840
v 0.01364472 0.00027686 0.00522840
v 0.01406343 0.00027686 -0.00508608
v 0.01406343 0.00027810 -0.00508608
v 0.01396350 0.00063121 -0.00503934
v 0.01338090 0.00169764 -0.00502271
v 0.01326797 0.00206900 -0.00491779
v 0.01326198 0.00208689 -0.00491260
v 0.01308709 0.00139183 0.00520451
v 0.01254147 0.00208689 0.00523463
v 0.01253047 0.00194869 0.00526060
v 0.01308709 0.00083514 0.00527411
v 0.01308709 0.00027810 0.00530008
v 0.01308709 0.00027686 0.00530008
v 0.01364472 0.00027686 -0.00522840
v 0.01308410 0.00190954 -0.00510063
v 0.01301514 0.00208689 -0.00508712
v 0.01346384 0.00139183 -0.00506738
v 0.01364472 0.00027810 -0.00522840
v 0.01365871 0.00082416 -0.00512036
v 0.01324699 0.00208689 -0.00492610
v 0.01197385 0.00208689 0.00530112
v 0.01253047 0.00139183 0.00529592
v 0.01197385 0.00194869 0.00530424
v 0.01253047 0.00083514 0.00530527
v 0.01253047 0.00027810 0.00530631
v 0.01253047 0.00027686 0.00530631
v 0.01308709 0.00027686 -0.00530008
v 0.01294419 0.00208689 -0.00511413
v 0.01308709 0.00139183 -0.00520451
v 0.01308709 0.00027810 -0.00530008
v 0.01308709 0.00083514 -0.00527411
v 0.01253047 0.00194869 -0.00526061
v 0.01141623 0.00208689 0.00530631
v 0.01197385 0.00139183 0.00530631
v 0.00696225 0.00027686 0.00530631
v 0.01253047 0.00027686 -0.00530631
v 0.01254147 0.00208689 -0.00523463
v 0.01253047 0.00027810 -0.00530631
v 0.01253047 0.00083514 -0.00530527
v 0.01197385 0.00194869 -0.00530424
v 0.01253047 0.00139183 -0.00529593
v 0.01239257 0.00208689 -0.00526788
v 0.00821440 0.00208689 0.00530631
v 0.00696225 0.00027810 0.00530631
v 0.00635666 0.00027686 0.00519516
v 0.00696225 0.00027686 -0.00530631
v 0.01197385 0.00139183 -0.00530631
v 0.01183594 0.00208689 -0.00530527
v 0.01197385 0.00208689 -0.00530112
v 0.00807649 0.00208689 0.00530216
v 0.00807649 0.00194869 0.00530631
v 0.00751887 0.00139183 0.00528761
v 0.00696225 0.00083514 0.00525333
v 0.00629770 0.00027686 0.00518373
v 0.00696225 0.00027810 -0.00530631
v 0.00635666 0.00027686 -0.00519516
v 0.01141623 0.00208689 -0.00530631
v 0.00765678 0.00208689 0.00523360
v 0.00620576 0.00027686 0.00515464
v 0.00807649 0.00194869 -0.00530631
v 0.00696225 0.00083514 -0.00525333
v 0.00751887 0.00139183 -0.00528761
v 0.00807649 0.00208689 -0.00530216
v 0.00620576 0.00027686 -0.00515465
v 0.00635166 0.00033178 -0.00518477
v 0.00751887 0.00194869 -0.00521386
v 0.00863311 0.00208689 -0.00530631
v 0.00751787 0.00208689 0.00518789
v 0.00599890 0.00027686 0.00507881
v 0.00751787 0.00208689 -0.00518789
v 0.00585600 0.00027686 -0.00498843
v 0.00716411 0.00194869 -0.00506738
v 0.00726004 0.00208689 0.00508089
v 0.00574107 0.00027686 0.00491987
v 0.00720208 0.00208689 -0.00504037
v 0.00576506 0.00027686 -0.00493441
v 0.00720208 0.00208689 0.00504037
v 0.00531436 0.00027686 0.00461653
v 0.00531436 0.00027686 -0.00461653
v 0.00691728 0.00208689 -0.00479729
v 0.00706118 0.00208689 0.00492195
v 0.00504355 0.00027686 0.00440357
v 0.00482170 0.00027686 -0.00417815
v 0.00660449 0.00208689 -0.00452200
v 0.00668643 0.00208689 0.00459783
v 0.00660449 0.00208689 0.00452200
v 0.00482170 0.00027686 0.00417815
v 0.00478572 0.00027686 -0.00413764
v 0.00633867 0.00208689 -0.00419373
v 0.00642461 0.00208689 0.00430593
v 0.00479771 0.00027686 0.00415322
v 0.00457387 0.00027686 -0.00361926
v 0.00614680 0.00208689 -0.00361926
v 0.00633867 0.00208689 0.00419373
v 0.00478572 0.00027686 0.00413764
v 0.00456987 0.00027686 -0.00306245
v 0.00614480 0.00208689 -0.00306245
v 0.00615979 0.00208689 0.00368263
v 0.00459485 0.00027686 0.00372418
v 0.00456987 0.00027686 0.00306245
v 0.00614480 0.00208689 0.00306245
v 0.00614680 0.00208689 0.00361926
v 0.00457387 0.00027686 0.00361926
f 1 2 3
f 1 3 4
f 1 4 11
f 1 11 19
f 1 19 29
f 1 29 40
f 1 40 52
f 1 52 65
f 1 65 74
f 1 74 84
f 1 84 93
f 1 93 98
f 1 98 108
f 1 108 113
f 1 113 117
f 1 117 121
f 1 121 126
f 1 126 130
f 1 130 134
f 1 134 138
f 1 138 142
f 1 142 139
f 1 139 135
f 1 135 131
f 1 131 127
f 1 127 122
f 1 122 118
f 1 118 115
f 1 115 110
f 1 110 103
f 1 103 95
f 1 95 85
f 1 85 75
f 1 75 66
f 1 66 53
f 1 53 41
f 1 41 30
f 1 30 20
f 1 20 12
f 1 12 5
f 1 5 7
f 1 7 2
f 2 6 3
f 2 7 16
f 2 16 25
f 2 25 33
f 2 33 46
f 2 46 59
f 2 59 55
f 2 55 67
f 2 67 76
f 2 76 81
f 2 81 88
f 2 88 87
f 2 87 96
f 2 96 106
f 2 106 102
f 2 102 109
f 2 109 114
f 2 114 119
f 2 119 123
f 2 123 128
f 2 128 132
f 2 132 136
f 2 136 140
f 2 140 141
f 2 141 137
f 2 137 133
f 2 133 129
f 2 129 125
f 2 125 124
f 2 124 120
f 2 120 116
f 2 116 112
f 2 112 107
f 2 107 97
f 2 97 89
f 2 89 82
f 2 82 72
f 2 72 60
f 2 60 48
f 2 48 35
f 2 35 34
f 2 34 24
f 2 24 15
f 2 15 6
f 3 6 8
f 3 8 4
f 4 8 9
f 4 9 10
f 4 10 11
f 5 12 13
f 5 13 14
f 5 14 7
f 6 15 8
f 7 14 16
f 8 15 9
f 9 15 17
f 9 17 11
f 9 11 10
f 11 17 18
f 11 18 19
f 12 20 13
f 13 20 21
f 13 21 22
f 13 22 23
f 13 23 14
f 14 23 16
f 15 24 17
f 16 23 25
f 17 24 18
f 18 26 27
f 18 27 28
f 18 28 19
f 18 24 26
f 19 28 29
f 20 30 31
f 20 31 32
f 20 32 22
f 20 22 21
f 22 32 33
f 22 33 23
f 23 33 25
f 24 34 26
f 26 34 35
f 26 35 27
f 27 36 28
f 27 35 36
f 28 36 29
f 29 36 35
f 29 35 37
f 29 37 38
f 29 38 39
f 29 39 40
f 30 41 42
f 30 42 43
f 30 43 31
f 31 43 44
f 31 44 45
f 31 45 32
f 32 45 33
f 33 45 46
f 35 47 37
f 35 48 47
f 37 47 38
f 38 47 39
f 39 47 49
f 39 49 50
f 39 50 51
f 39 51 52
f 39 52 40
f 41 53 57
f 41 57 42
f 42 54 55
f 42 55 56
f 42 56 43
f 42 57 58
f 42 58 54
f 43 56 44
f 44 59 45
f 44 56 55
f 44 55 59
f 45 59 46
f 47 48 49
f 48 60 49
f 49 61 50
f 49 60 61
f 50 61 51
f 51 61 62
f 51 62 63
f 51 63 64
f 51 64 65
f 51 65 52
f 53 66 69
f 53 69 57
f 54 67 55
f 54 58 67
f 57 68 58
f 57 69 70
f 57 70 71
f 57 71 68
f 58 68 67
f 60 62 61
f 60 72 62
f 62 72 73
f 62 73 63
f 63 73 64
f 64 73 72
f 64 72 82
f 64 82 90
f 64 90 83
f 64 83 74
f 64 74 65
f 66 75 77
f 66 77 69
f 67 68 76
f 68 71 76
f 69 77 78
f 69 78 79
f 69 79 80
f 69 80 70
f 70 80 81
f 70 81 71
f 71 81 76
f 74 83 84
f 75 85 94
f 75 94 99
f 75 99 106
f 75 106 96
f 75 96 86
f 75 86 77
f 77 86 78
f 78 86 87
f 78 87 79
f 79 87 88
f 79 88 80
f 80 88 81
f 82 89 90
f 83 90 89
f 83 89 91
f 83 91 92
f 83 92 84
f 84 92 93
f 85 95 94
f 86 96 87
f 89 97 91
f 91 97 92
f 92 97 93
f 93 97 98
f 94 95 100
f 94 100 101
f 94 101 102
f 94 102 99
f 95 103 104
f 95 104 105
f 95 105 100
f 97 107 98
f 98 107 108
f 99 102 106
f 100 105 101
f 101 105 102
f 102 105 109
f 103 110 111
f 103 111 109
f 103 109 105
f 103 105 104
f 107 112 108
f 108 112 113
f 109 111 114
f 110 115 114
f 110 114 111
f 112 116 113
f 113 116 117
f 114 115 118
f 114 118 119
f 116 120 121
f 116 121 117
f 118 122 123
f 118 123 119
f 120 124 121
f 121 124 125
f 121 125 126
f 122 127 123
f 123 127 128
f 125 129 130
f 125 130 126
f 127 131 128
f 128 131 132
f 129 133 134
f 129 134 130
f 131 135 132
f 132 135 136
f 133 137 138
f 133 138 134
f 135 139 140
f 135 140 136
f 137 141 138
f 138 141 142
f 139 142 141
f 139 141 140

