# https://github.com/mikedh/trimesh
v 0.00387200 -0.01792727 0.00306245
v 0.00301953 -0.01586109 0.00306245
v 0.00301877 -0.01586109 0.00361926
v 0.00386972 -0.01792727 0.00361926
v 0.00387200 -0.01792727 -0.00306245
v 0.00301953 -0.01586109 -0.00307492
v 0.00290143 -0.01586109 0.00410647
v 0.00367818 -0.01792727 0.00419685
v 0.00386972 -0.01792727 -0.00361926
v 0.00301877 -0.01586109 -0.00361926
v 0.00273639 -0.01586109 0.00437864
v 0.00273260 -0.01586109 0.00438488
v 0.00341699 -0.01792727 0.00451888
v 0.00386215 -0.01792727 -0.00365458
v 0.00301726 -0.01586109 -0.00362861
v 0.00245400 -0.01586109 0.00467679
v 0.00216707 -0.01586109 0.00495519
v 0.00310508 -0.01792727 0.00479417
v 0.00367818 -0.01792727 -0.00419685
v 0.00290143 -0.01586109 -0.00410647
v 0.00281815 -0.01792727 0.00503622
v 0.00188847 -0.01586109 0.00515464
v 0.00356992 -0.01792727 -0.00433605
v 0.00273260 -0.01586109 -0.00438488
v 0.00250851 -0.01792727 0.00518373
v 0.00139183 -0.01586109 0.00530216
v 0.00188998 -0.01587302 0.00515568
v 0.00341699 -0.01792727 -0.00451888
v 0.00272655 -0.01586109 -0.00439215
v 0.00194903 -0.01754376 0.00529177
v 0.00194903 -0.01792727 0.00530112
v 0.00083538 -0.01586109 0.00530631
v 0.00139183 -0.01643007 0.00530631
v 0.00331555 -0.01792727 -0.00461342
v 0.00216707 -0.01586109 -0.00495519
v 0.00244794 -0.01586109 -0.00468302
v 0.00245400 -0.01586109 -0.00467679
v 0.00139183 -0.01792727 0.00530631
v -0.00083472 -0.01586109 0.00530631
v 0.00310508 -0.01792727 -0.00479417
v 0.00216101 -0.01586109 -0.00496038
v -0.00177501 -0.01792727 0.00530631
v -0.00139193 -0.01586109 0.00530112
v -0.00139193 -0.01643007 0.00530631
v 0.00292793 -0.01792727 -0.00494584
v 0.00281815 -0.01792727 -0.00503622
v 0.00188847 -0.01586109 -0.00515465
v -0.00194913 -0.01792727 0.00530112
v -0.00187418 -0.01586109 0.00515672
v -0.00233221 -0.01792727 0.00523775
v -0.00194913 -0.01754376 0.00528969
v 0.00274471 -0.01792727 -0.00508712
v 0.00188998 -0.01587302 -0.00515568
v 0.00187862 -0.01586109 -0.00515776
v -0.00188402 -0.01586109 0.00515361
v -0.00250709 -0.01792727 0.00518062
v 0.00250851 -0.01792727 -0.00518373
v 0.00233211 -0.01792727 -0.00524087
v 0.00139183 -0.01586109 -0.00530216
v -0.00215657 -0.01586109 0.00495519
v -0.00281371 -0.01792727 0.00503310
v -0.00274027 -0.01792727 0.00508504
v 0.00194903 -0.01792727 -0.00530112
v 0.00194903 -0.01754376 -0.00529177
v 0.00177566 -0.01792727 -0.00530631
v 0.00139183 -0.01643007 -0.00530631
v 0.00083538 -0.01586109 -0.00530631
v -0.00216263 -0.01586109 0.00495000
v -0.00310064 -0.01792727 0.00479002
v -0.00291818 -0.01792727 0.00494584
v -0.00139193 -0.01792727 -0.00530631
v -0.00083472 -0.01586109 -0.00530631
v -0.00244956 -0.01586109 0.00467159
v -0.00341180 -0.01792727 0.00451473
v -0.00330883 -0.01792727 0.00461030
v -0.00139193 -0.01643007 -0.00530631
v -0.00194913 -0.01792727 -0.00530112
v -0.00139193 -0.01586109 -0.00530112
v -0.00272135 -0.01586109 0.00438488
v -0.00356018 -0.01792727 0.00433813
v -0.00250709 -0.01792727 -0.00518062
v -0.00194913 -0.01754376 -0.00528969
v -0.00188478 -0.01587302 -0.00515465
v -0.00188402 -0.01586109 -0.00515361
v -0.00272740 -0.01586109 0.00437760
v -0.00367071 -0.01792727 0.00419373
v -0.00281371 -0.01792727 -0.00503310
v -0.00216263 -0.01586109 -0.00495000
v -0.00289320 -0.01586109 0.00410543
v -0.00289623 -0.01586109 0.00409920
v -0.00385468 -0.01792727 0.00364523
v -0.00310064 -0.01792727 -0.00479002
v -0.00341180 -0.01792727 -0.00451473
v -0.00244956 -0.01586109 -0.00467159
v -0.00300828 -0.01586109 0.00362861
v -0.00385998 -0.01792727 0.00361926
v -0.00367071 -0.01792727 -0.00419373
v -0.00272740 -0.01586109 -0.00437760
v -0.00300903 -0.01586109 0.00361926
v -0.00386225 -0.01792727 0.00306245
v -0.00385998 -0.01792727 -0.00361926
v -0.00289623 -0.01586109 -0.00409920
v -0.00273119 -0.01586109 -0.00437137
v -0.00300979 -0.01586109 0.00307492
v -0.00386225 -0.01792727 -0.00306245
v -0.00300903 -0.01586109 -0.00361926
v -0.00300979 -0.01586109 -0.00306245
f 1 2 3
f 1 3 4
f 1 4 8
f 1 8 13
f 1 13 18
f 1 18 21
f 1 21 25
f 1 25 31
f 1 31 38
f 1 38 42
f 1 42 48
f 1 48 50
f 1 50 56
f 1 56 62
f 1 62 61
f 1 61 70
f 1 70 69
f 1 69 75
f 1 75 74
f 1 74 80
f 1 80 86
f 1 86 91
f 1 91 96
f 1 96 100
f 1 100 105
f 1 105 101
f 1 101 97
f 1 97 93
f 1 93 92
f 1 92 87
f 1 87 81
f 1 81 77
f 1 77 71
f 1 71 65
f 1 65 63
f 1 63 58
f 1 58 57
f 1 57 52
f 1 52 46
f 1 46 45
f 1 45 40
f 1 40 34
f 1 34 28
f 1 28 23
f 1 23 19
f 1 19 14
f 1 14 9
f 1 9 5
f 1 5 6
f 1 6 2
f 2 6 10
f 2 10 15
f 2 15 20
f 2 20 24
f 2 24 29
f 2 29 37
f 2 37 36
f 2 36 35
f 2 35 41
f 2 41 47
f 2 47 54
f 2 54 59
f 2 59 67
f 2 67 72
f 2 72 78
f 2 78 84
f 2 84 88
f 2 88 94
f 2 94 98
f 2 98 103
f 2 103 102
f 2 102 106
f 2 106 107
f 2 107 104
f 2 104 99
f 2 99 95
f 2 95 90
f 2 90 89
f 2 89 85
f 2 85 79
f 2 79 73
f 2 73 68
f 2 68 60
f 2 60 55
f 2 55 49
f 2 49 43
f 2 43 39
f 2 39 32
f 2 32 26
f 2 26 22
f 2 22 17
f 2 17 16
f 2 16 12
f 2 12 11
f 2 11 7
f 2 7 3
f 3 7 4
f 4 7 8
f 5 9 10
f 5 10 6
f 7 11 8
f 8 11 12
f 8 12 13
f 9 14 15
f 9 15 10
f 12 16 13
f 13 16 17
f 13 17 18
f 14 19 20
f 14 20 15
f 17 21 18
f 17 22 21
f 19 23 24
f 19 24 20
f 21 22 25
f 22 26 27
f 22 27 25
f 23 28 29
f 23 29 24
f 25 27 26
f 25 26 30
f 25 30 31
f 26 31 30
f 26 32 33
f 26 33 31
f 28 34 35
f 28 35 36
f 28 36 37
f 28 37 29
f 31 33 38
f 32 39 44
f 32 44 42
f 32 42 38
f 32 38 33
f 34 40 35
f 35 40 41
f 39 43 44
f 40 45 41
f 41 45 46
f 41 46 47
f 42 44 48
f 43 49 50
f 43 50 51
f 43 51 48
f 43 48 44
f 46 52 47
f 47 53 54
f 47 52 53
f 48 51 50
f 49 55 50
f 50 55 56
f 52 57 53
f 53 57 58
f 53 58 59
f 53 59 54
f 55 60 61
f 55 61 62
f 55 62 56
f 58 63 64
f 58 64 59
f 59 64 63
f 59 63 65
f 59 65 66
f 59 66 67
f 60 68 69
f 60 69 70
f 60 70 61
f 65 71 76
f 65 76 72
f 65 72 67
f 65 67 66
f 68 73 74
f 68 74 75
f 68 75 69
f 71 77 76
f 72 76 78
f 73 79 74
f 74 79 80
f 76 77 78
f 77 81 82
f 77 82 78
f 78 82 81
f 78 81 83
f 78 83 84
f 79 85 80
f 80 85 86
f 81 87 84
f 81 84 83
f 84 87 88
f 85 89 86
f 86 89 90
f 86 90 91
f 87 92 88
f 88 92 93
f 88 93 94
f 90 95 91
f 91 95 96
f 93 97 98
f 93 98 94
f 95 99 96
f 96 99 100
f 97 101 102
f 97 102 103
f 97 103 98
f 99 104 100
f 100 104 107
f 100 107 105
f 101 105 106
f 101 106 102
f 105 107 106

