# https://github.com/mikedh/trimesh
v -0.00325727 -0.00471919 -0.00530631
v -0.00325727 -0.00250725 -0.00530631
v -0.00029380 -0.00471919 -0.00530631
v -0.00325727 -0.00471919 0.00530631
v -0.00306279 -0.00250725 -0.00530631
v -0.00325727 -0.00231271 -0.00528865
v -0.00027893 -0.00471838 -0.00530631
v -0.00027893 -0.00471919 0.00492403
v -0.00027893 -0.00471919 0.00530631
v -0.00325727 -0.00250725 0.00530631
v -0.00027893 -0.00306337 -0.00530631
v -0.00325727 -0.00192646 -0.00518997
v -0.00027893 -0.00306378 0.00530631
v -0.00325727 -0.00192646 0.00518996
v -0.00306279 -0.00250725 0.00530631
v -0.00027893 -0.00252181 -0.00515880
v -0.00325727 -0.00177722 -0.00513699
v -0.00250590 -0.00250725 0.00528865
v -0.00027893 -0.00252181 0.00515880
v -0.00325727 -0.00162029 0.00505388
v -0.00325727 -0.00162029 -0.00505388
v -0.00027893 -0.00224355 -0.00499986
v -0.00027893 -0.00224355 0.00499986
v -0.00325727 -0.00133151 0.00480144
v -0.00325727 -0.00160209 -0.00503934
v -0.00325727 -0.00133151 -0.00480145
v -0.00325727 -0.00120977 -0.00469341
v -0.00325727 -0.00103384 -0.00452616
v -0.00027893 -0.00196165 -0.00472146
v -0.00027893 -0.00196165 0.00472145
v -0.00325727 -0.00103384 0.00452616
v -0.00325727 -0.00099501 -0.00448460
v -0.00027893 -0.00168298 -0.00444097
v -0.00027893 -0.00168298 0.00444097
v -0.00325727 -0.00078550 0.00421243
v -0.00325727 -0.00078550 -0.00421243
v -0.00325727 -0.00072403 -0.00412205
v -0.00027893 -0.00152079 -0.00416257
v -0.00027893 -0.00152079 0.00416257
v -0.00325727 -0.00064556 0.00398493
v -0.00325727 -0.00064556 -0.00398493
v -0.00325727 -0.00059137 -0.00382391
v -0.00027893 -0.00136872 -0.00361926
v -0.00027893 -0.00136872 0.00361926
v -0.00325727 -0.00058894 0.00361926
v -0.00325727 -0.00058894 -0.00361926
v -0.00027893 -0.00136710 -0.00306245
v -0.00027893 -0.00136710 0.00306245
v -0.00325727 -0.00058732 0.00306245
v -0.00325727 -0.00058732 -0.00306245
f 1 2 5
f 1 5 11
f 1 11 7
f 1 7 3
f 1 3 8
f 1 8 9
f 1 9 4
f 1 4 10
f 1 10 14
f 1 14 20
f 1 20 24
f 1 24 31
f 1 31 35
f 1 35 40
f 1 40 45
f 1 45 49
f 1 49 50
f 1 50 46
f 1 46 42
f 1 42 41
f 1 41 37
f 1 37 36
f 1 36 32
f 1 32 28
f 1 28 27
f 1 27 26
f 1 26 25
f 1 25 21
f 1 21 17
f 1 17 12
f 1 12 6
f 1 6 2
f 2 6 5
f 3 7 8
f 4 9 13
f 4 13 15
f 4 15 10
f 5 6 11
f 6 12 11
f 7 11 16
f 7 16 22
f 7 22 29
f 7 29 33
f 7 33 38
f 7 38 43
f 7 43 47
f 7 47 48
f 7 48 44
f 7 44 39
f 7 39 34
f 7 34 30
f 7 30 23
f 7 23 19
f 7 19 13
f 7 13 9
f 7 9 8
f 10 15 14
f 11 12 16
f 12 17 16
f 13 18 15
f 13 19 14
f 13 14 18
f 14 19 20
f 14 15 18
f 16 17 21
f 16 21 22
f 19 23 20
f 20 23 24
f 21 25 22
f 22 26 27
f 22 27 28
f 22 28 29
f 22 25 26
f 23 30 31
f 23 31 24
f 28 32 33
f 28 33 29
f 30 34 31
f 31 34 35
f 32 36 33
f 33 36 37
f 33 37 38
f 34 39 40
f 34 40 35
f 37 41 38
f 38 41 42
f 38 42 43
f 39 44 40
f 40 44 45
f 42 46 43
f 43 46 50
f 43 50 47
f 44 48 49
f 44 49 45
f 47 50 49
f 47 49 48

