# https://github.com/mikedh/trimesh
v -0.00671269 0.00325776 0.00306245
v -0.00715978 0.00529282 0.00361719
v -0.00671456 0.00325776 0.00361926
v -0.00671269 0.00325776 -0.00306245
v -0.00720009 0.00529282 0.00398285
v -0.00715978 0.00529282 -0.00306453
v -0.00720009 0.00529043 0.00398493
v -0.00671766 0.00325776 0.00363069
v -0.00671456 0.00325776 -0.00361926
v -0.00715978 0.00529043 -0.00361926
v -0.00736442 0.00529282 0.00426126
v -0.00716040 0.00529282 -0.00362134
v -0.00682369 0.00325776 0.00400051
v -0.00736504 0.00529043 0.00426333
v -0.00688756 0.00325776 0.00419477
v -0.00671518 0.00325776 -0.00362342
v -0.00720071 0.00529282 -0.00398597
v -0.00764222 0.00529282 0.00460718
v -0.00714862 0.00325776 0.00454070
v -0.00688756 0.00325776 -0.00419477
v -0.00736504 0.00529043 -0.00426333
v -0.00736628 0.00529282 -0.00426437
v -0.00792250 0.00529282 0.00488663
v -0.00744069 0.00325776 0.00481910
v -0.00697314 0.00325776 -0.00431424
v -0.00714862 0.00325776 -0.00454070
v -0.00764470 0.00529282 -0.00460926
v -0.00819968 0.00529282 0.00513283
v -0.00772221 0.00325776 0.00507362
v -0.00723792 0.00325776 -0.00463004
v -0.00792374 0.00529282 -0.00488767
v -0.00863251 0.00529282 0.00528138
v -0.00820092 0.00529043 0.00513387
v -0.00806016 0.00325776 0.00521282
v -0.00744069 0.00325776 -0.00481911
v -0.00757463 0.00325776 -0.00494376
v -0.00820092 0.00529043 -0.00513387
v -0.00820278 0.00529282 -0.00513491
v -0.00918936 0.00529282 0.00530631
v -0.00863251 0.00473340 0.00529385
v -0.00863251 0.00417677 0.00530424
v -0.00863251 0.00361975 0.00530631
v -0.00863251 0.00325776 0.00530631
v -0.00772221 0.00325776 -0.00507362
v -0.00780344 0.00325776 -0.00511517
v -0.00806016 0.00325776 -0.00521282
v -0.00863251 0.00529043 -0.00528138
v -0.00863499 0.00529282 -0.00528138
v -0.00974682 0.00529282 0.00530527
v -0.00974682 0.00529043 0.00530631
v -0.01085989 0.00325776 0.00530631
v -0.00827037 0.00325776 -0.00526580
v -0.00863251 0.00473340 -0.00529385
v -0.00918936 0.00529043 -0.00530631
v -0.00919184 0.00529282 -0.00530527
v -0.01030305 0.00529282 0.00529385
v -0.01030305 0.00473340 0.00530527
v -0.01085989 0.00361975 0.00530631
v -0.01122203 0.00325776 0.00530320
v -0.00863251 0.00325776 -0.00530631
v -0.00863251 0.00361975 -0.00530631
v -0.00863251 0.00417677 -0.00530424
v -0.00974682 0.00529043 -0.00530631
v -0.00974868 0.00529282 -0.00530527
v -0.01085989 0.00417677 0.00529904
v -0.01085989 0.00529282 0.00519308
v -0.01085989 0.00473340 0.00526892
v -0.01141674 0.00361975 0.00528034
v -0.01141674 0.00325776 0.00529489
v -0.01085989 0.00325776 -0.00530631
v -0.01085989 0.00361975 -0.00530631
v -0.01030305 0.00473340 -0.00530527
v -0.01030305 0.00529043 -0.00529385
v -0.01030553 0.00529282 -0.00529281
v -0.01121831 0.00529282 0.00505803
v -0.01142356 0.00471029 0.00511309
v -0.01199839 0.00362732 0.00513075
v -0.01141674 0.00417677 0.00521905
v -0.01177887 0.00325776 0.00525437
v -0.01141674 0.00325776 -0.00529489
v -0.01085989 0.00417677 -0.00529904
v -0.01141674 0.00361975 -0.00528034
v -0.01085989 0.00473340 -0.00526892
v -0.01085989 0.00529043 -0.00519412
v -0.01086237 0.00529282 -0.00519204
v -0.01172431 0.00450908 0.00503206
v -0.01230782 0.00344663 0.00504868
v -0.01181732 0.00417677 0.00507881
v -0.01152588 0.00529282 0.00475574
v -0.01161393 0.00488043 0.00493753
v -0.01227371 0.00325776 0.00510894
v -0.01198227 0.00325776 0.00520347
v -0.01198227 0.00325776 -0.00520243
v -0.01141674 0.00417677 -0.00521905
v -0.01199777 0.00362553 -0.00513075
v -0.01142294 0.00470989 -0.00511309
v -0.01121893 0.00529043 -0.00505907
v -0.01121893 0.00529282 -0.00505700
v -0.01220054 0.00381798 0.00497077
v -0.01236238 0.00325776 0.00507258
v -0.01249943 0.00325776 0.00497389
v -0.01155936 0.00529282 0.00471834
v -0.01177453 0.00515077 0.00456667
v -0.01236176 0.00325776 -0.00507154
v -0.01181732 0.00417677 -0.00507881
v -0.01230720 0.00344384 -0.00504765
v -0.01172493 0.00450868 -0.00503206
v -0.01161207 0.00487983 -0.00493649
v -0.01152588 0.00529282 -0.00475574
v -0.01124435 0.00529282 -0.00503206
v -0.01278653 0.00325776 0.00466120
v -0.01263337 0.00325776 0.00483988
v -0.01173423 0.00529282 0.00446590
v -0.01283986 0.00339523 0.00450122
v -0.01287954 0.00325776 0.00455005
v -0.01225449 0.00445907 0.00445863
v -0.01263337 0.00325776 -0.00483988
v -0.01219992 0.00381519 -0.00496973
v -0.01177515 0.00515137 -0.00456563
v -0.01155998 0.00529282 -0.00471626
v -0.01182848 0.00529282 0.00414283
v -0.01295210 0.00325776 0.00436722
v -0.01227991 0.00450270 0.00417607
v -0.01299860 0.00325776 0.00417607
v -0.01287954 0.00325776 -0.00455109
v -0.01283986 0.00339523 -0.00450226
v -0.01225449 0.00445927 -0.00445863
v -0.01180802 0.00529282 -0.00420620
v -0.01183096 0.00529282 0.00411478
v -0.01302403 0.00325776 0.00389040
v -0.01299860 0.00325776 -0.00417607
v -0.01227991 0.00450290 -0.00417607
v -0.01182848 0.00529282 -0.00414283
v -0.01187127 0.00529282 0.00361926
v -0.01304759 0.00325776 0.00361926
v -0.01304759 0.00325776 -0.00361926
v -0.01187127 0.00529282 -0.00361926
f 1 2 3
f 1 3 8
f 1 8 13
f 1 13 15
f 1 15 19
f 1 19 24
f 1 24 29
f 1 29 34
f 1 34 43
f 1 43 51
f 1 51 59
f 1 59 69
f 1 69 79
f 1 79 92
f 1 92 91
f 1 91 100
f 1 100 101
f 1 101 112
f 1 112 111
f 1 111 115
f 1 115 122
f 1 122 124
f 1 124 130
f 1 130 135
f 1 135 136
f 1 136 131
f 1 131 125
f 1 125 117
f 1 117 104
f 1 104 93
f 1 93 80
f 1 80 70
f 1 70 60
f 1 60 52
f 1 52 46
f 1 46 45
f 1 45 44
f 1 44 36
f 1 36 35
f 1 35 30
f 1 30 26
f 1 26 25
f 1 25 20
f 1 20 16
f 1 16 9
f 1 9 4
f 1 4 6
f 1 6 2
f 2 5 3
f 2 6 12
f 2 12 17
f 2 17 22
f 2 22 27
f 2 27 31
f 2 31 38
f 2 38 48
f 2 48 55
f 2 55 64
f 2 64 74
f 2 74 85
f 2 85 98
f 2 98 110
f 2 110 109
f 2 109 120
f 2 120 128
f 2 128 133
f 2 133 137
f 2 137 134
f 2 134 129
f 2 129 121
f 2 121 113
f 2 113 102
f 2 102 89
f 2 89 75
f 2 75 66
f 2 66 56
f 2 56 49
f 2 49 39
f 2 39 32
f 2 32 28
f 2 28 23
f 2 23 18
f 2 18 11
f 2 11 5
f 3 5 7
f 3 7 8
f 4 9 10
f 4 10 6
f 5 11 7
f 6 10 12
f 7 13 8
f 7 11 14
f 7 14 15
f 7 15 13
f 9 16 17
f 9 17 12
f 9 12 10
f 11 18 14
f 14 18 19
f 14 19 15
f 16 20 17
f 17 20 21
f 17 21 22
f 18 23 19
f 19 23 24
f 20 25 22
f 20 22 21
f 22 25 26
f 22 26 27
f 23 28 29
f 23 29 24
f 26 30 27
f 27 30 31
f 28 32 33
f 28 33 29
f 29 33 34
f 30 35 31
f 31 35 36
f 31 36 37
f 31 37 38
f 32 34 33
f 32 39 40
f 32 40 34
f 34 40 41
f 34 41 42
f 34 42 43
f 36 44 37
f 37 44 38
f 38 44 45
f 38 45 46
f 38 46 47
f 38 47 48
f 39 49 50
f 39 50 58
f 39 58 51
f 39 51 43
f 39 43 42
f 39 42 41
f 39 41 40
f 46 52 47
f 47 52 53
f 47 53 54
f 47 54 48
f 48 54 55
f 49 56 50
f 50 56 57
f 50 57 58
f 51 58 59
f 52 60 61
f 52 61 62
f 52 62 53
f 53 62 54
f 54 62 61
f 54 61 60
f 54 60 70
f 54 70 71
f 54 71 63
f 54 63 64
f 54 64 55
f 56 65 57
f 56 66 67
f 56 67 68
f 56 68 65
f 57 65 59
f 57 59 58
f 59 65 69
f 63 71 72
f 63 72 73
f 63 73 74
f 63 74 64
f 65 68 69
f 66 75 76
f 66 76 77
f 66 77 78
f 66 78 67
f 67 78 79
f 67 79 68
f 68 79 69
f 70 80 71
f 71 80 81
f 71 81 72
f 72 81 73
f 73 81 82
f 73 82 83
f 73 83 84
f 73 84 74
f 74 84 85
f 75 86 87
f 75 87 88
f 75 88 76
f 75 89 90
f 75 90 86
f 76 88 91
f 76 91 77
f 77 91 92
f 77 92 78
f 78 92 79
f 80 93 82
f 80 82 81
f 82 93 94
f 82 94 83
f 83 94 84
f 84 94 95
f 84 95 96
f 84 96 97
f 84 97 85
f 85 97 98
f 86 90 99
f 86 99 87
f 87 100 88
f 87 99 101
f 87 101 100
f 88 100 91
f 89 102 90
f 90 102 103
f 90 103 99
f 93 104 95
f 93 95 94
f 95 104 105
f 95 105 96
f 96 105 97
f 97 105 106
f 97 106 107
f 97 107 108
f 97 108 109
f 97 109 110
f 97 110 98
f 99 103 111
f 99 111 112
f 99 112 101
f 102 113 103
f 103 114 115
f 103 115 111
f 103 113 116
f 103 116 114
f 104 117 106
f 104 106 105
f 106 117 118
f 106 118 107
f 107 118 108
f 108 118 119
f 108 119 109
f 109 119 120
f 113 121 116
f 114 116 122
f 114 122 115
f 116 121 123
f 116 123 124
f 116 124 122
f 117 125 119
f 117 119 118
f 119 125 126
f 119 126 127
f 119 127 128
f 119 128 120
f 121 129 130
f 121 130 124
f 121 124 123
f 125 131 126
f 126 131 127
f 127 131 132
f 127 132 133
f 127 133 128
f 129 134 135
f 129 135 130
f 131 136 133
f 131 133 132
f 133 136 137
f 134 137 136
f 134 136 135

