# https://github.com/mikedh/trimesh
v -0.01531519 -0.00471919 -0.00530631
v -0.01587191 -0.00471919 -0.00530320
v -0.01531519 -0.00417721 -0.00530631
v -0.00325756 -0.00471919 -0.00530631
v -0.01587191 -0.00417721 -0.00528554
v -0.01531519 -0.00362041 -0.00530112
v -0.01364361 -0.00083583 -0.00530320
v -0.01253017 0.00083459 -0.00530527
v -0.01308689 -0.00027902 -0.00530631
v -0.01643005 -0.00471919 -0.00524814
v -0.00325756 -0.00250625 -0.00530631
v -0.00325756 -0.00471919 0.00530631
v -0.01531519 -0.00306305 -0.00527619
v -0.01364361 -0.00027902 -0.00528346
v -0.01420033 -0.00139319 -0.00529073
v -0.01475847 -0.00250625 -0.00529696
v -0.01308689 0.00027778 -0.00530008
v -0.01253017 0.00089060 -0.00530424
v -0.01197344 0.00089060 -0.00530631
v -0.01694308 -0.00471919 -0.00508297
v -0.01646528 -0.00415250 -0.00514010
v -0.01587191 -0.00362041 -0.00523152
v -0.01420033 -0.00083583 -0.00524606
v -0.01475847 -0.00194944 -0.00526268
v -0.00325756 -0.00231186 -0.00528865
v -0.00757463 0.00089060 -0.00530631
v -0.00751966 0.00089060 -0.00530424
v -0.01531519 -0.00471919 0.00530631
v -0.00325756 -0.00250625 0.00530631
v -0.01308689 0.00083459 -0.00527203
v -0.01308689 0.00089060 -0.00526580
v -0.01705442 -0.00471919 -0.00499778
v -0.01714885 -0.00463957 -0.00489598
v -0.01677817 -0.00432163 -0.00505596
v -0.01629756 -0.00362041 -0.00508920
v -0.01588883 -0.00307019 -0.00512348
v -0.01531519 -0.00250625 -0.00520866
v -0.01364361 0.00027778 -0.00522529
v -0.00325756 -0.00192638 -0.00518997
v -0.00701790 0.00089060 -0.00525853
v -0.01531519 -0.00417721 0.00530631
v -0.01585641 -0.00471919 0.00530424
v -0.00325756 -0.00192638 0.00518996
v -0.00362119 -0.00194944 0.00525645
v -0.00696294 0.00083459 0.00525541
v -0.00751966 0.00089060 0.00530424
v -0.00751966 0.00083459 0.00530631
v -0.01365489 0.00081921 -0.00511829
v -0.01363093 0.00089060 -0.00511101
v -0.01727429 -0.00471919 -0.00480248
v -0.01737295 -0.00471919 -0.00468717
v -0.01667388 -0.00395043 -0.00498739
v -0.01561258 -0.00219325 -0.00502583
v -0.01569855 -0.00250625 -0.00507050
v -0.01465981 -0.00083583 -0.00510167
v -0.00325756 -0.00177647 -0.00513699
v -0.00696153 0.00089060 -0.00524295
v -0.01308689 -0.00027902 0.00530631
v -0.01420033 -0.00194944 0.00530527
v -0.01587191 -0.00417721 0.00528554
v -0.01587191 -0.00471919 0.00530320
v -0.01364361 -0.00083583 0.00530320
v -0.01531519 -0.00362041 0.00530112
v -0.00325756 -0.00161997 0.00505388
v -0.00653588 0.00089060 0.00509751
v -0.00696153 0.00089060 0.00524294
v -0.00807638 0.00089060 0.00530631
v -0.01405798 0.00027778 -0.00508400
v -0.01395932 0.00062373 -0.00503726
v -0.01373382 0.00089060 -0.00504868
v -0.01761396 -0.00471919 -0.00413244
v -0.01731094 -0.00437325 -0.00452512
v -0.01624682 -0.00261662 -0.00458537
v -0.01502767 -0.00112796 -0.00500609
v -0.00325756 -0.00161997 -0.00505388
v -0.00655984 0.00089060 -0.00511101
v -0.01197344 0.00089060 0.00530631
v -0.01253017 0.00083459 0.00530527
v -0.01475847 -0.00250625 0.00529696
v -0.01420033 -0.00139319 0.00529177
v -0.01364361 -0.00027902 0.00528346
v -0.01531519 -0.00306305 0.00527619
v -0.01641313 -0.00471919 0.00525229
v -0.01308689 0.00027778 0.00530008
v -0.00325756 -0.00133168 0.00480144
v -0.00625259 0.00089060 0.00490533
v -0.01443712 -0.00006816 -0.00497908
v -0.01400865 0.00089060 -0.00482845
v -0.01672603 -0.00330906 -0.00448356
v -0.01762101 -0.00471919 -0.00406076
v -0.01617212 -0.00218996 -0.00402752
v -0.01675985 -0.00325140 -0.00417607
v -0.01613970 -0.00224542 -0.00439942
v -0.01507559 -0.00048934 -0.00451369
v -0.01566050 -0.00155353 -0.00455109
v -0.01457524 0.00027778 -0.00458225
v -0.00325756 -0.00160240 -0.00503934
v -0.00653588 0.00089060 -0.00509751
v -0.01247520 0.00089060 0.00530527
v -0.01253017 0.00089060 0.00530424
v -0.01303192 0.00089060 0.00527515
v -0.01308689 0.00083459 0.00527307
v -0.01475847 -0.00194944 0.00526268
v -0.01643005 -0.00471919 0.00524814
v -0.01420033 -0.00083583 0.00524606
v -0.01587191 -0.00362041 0.00523152
v -0.00325756 -0.00103351 0.00452616
v -0.00588191 0.00089060 0.00461861
v -0.01413550 0.00089060 -0.00467990
v -0.01449068 0.00057485 -0.00447214
v -0.01765624 -0.00471919 -0.00361926
v -0.01602272 -0.00198239 -0.00419893
v -0.01637790 -0.00250625 -0.00361926
v -0.01541244 -0.00083583 -0.00361926
v -0.01441457 0.00089060 -0.00361926
v -0.01436806 0.00089060 -0.00414491
v -0.01436524 0.00089060 -0.00417607
v -0.01451886 0.00062537 -0.00417607
v -0.00325756 -0.00133168 -0.00480145
v -0.00630333 0.00089060 -0.00494480
v -0.01308689 0.00089060 0.00526580
v -0.01364361 0.00027778 0.00522528
v -0.01691630 -0.00471919 0.00509335
v -0.01646387 -0.00415305 0.00514010
v -0.01531519 -0.00250625 0.00520866
v -0.00325756 -0.00078586 0.00421243
v -0.00578043 0.00089060 0.00452304
v -0.01765624 -0.00471919 0.00361926
v -0.01637790 -0.00250625 0.00361926
v -0.01541244 -0.00083583 0.00361926
v -0.01441457 0.00089060 0.00361926
v -0.00325756 -0.00120978 -0.00469341
v -0.00591855 0.00089060 -0.00464874
v -0.00325756 -0.00103351 -0.00452616
v -0.01358582 0.00089060 0.00512867
v -0.01694308 -0.00471919 0.00508297
v -0.01629756 -0.00362041 0.00509024
v -0.01588883 -0.00306854 0.00512348
v -0.01423134 -0.00026310 0.00513595
v -0.00325756 -0.00064584 0.00398493
v -0.00548445 0.00089060 0.00423529
v -0.01761396 -0.00471919 0.00413244
v -0.01617212 -0.00218996 0.00402856
v -0.01440611 0.00089060 0.00371587
v -0.00588191 0.00089060 -0.00461861
v -0.00325756 -0.00099507 -0.00448460
v -0.01363234 0.00089060 0.00511205
v -0.01365630 0.00082031 0.00511829
v -0.01677817 -0.00432218 0.00505596
v -0.01717422 -0.00471919 0.00491987
v -0.01465840 -0.00083583 0.00510166
v -0.01405657 0.00027778 0.00508400
v -0.01512774 -0.00150081 0.00506531
v -0.00325756 -0.00058873 0.00361926
v -0.00333790 -0.00055523 0.00390286
v -0.00537874 0.00089060 0.00410128
v -0.01675985 -0.00325140 0.00417607
v -0.01759705 -0.00471919 0.00419269
v -0.01731094 -0.00437380 0.00452408
v -0.01672603 -0.00330906 0.00448356
v -0.01613970 -0.00224542 0.00439942
v -0.01451886 0.00062537 0.00417607
v -0.01436524 0.00089060 0.00417607
v -0.00561834 0.00089060 -0.00438695
v -0.00325756 -0.00078586 -0.00421243
v -0.01388039 0.00089060 0.00497285
v -0.01395932 0.00062537 0.00503726
v -0.01619467 -0.00325799 0.00504141
v -0.01667388 -0.00395098 0.00498636
v -0.01737295 -0.00471919 0.00468613
v -0.01608615 -0.00288679 0.00495727
v -0.01454283 -0.00043827 0.00505180
v -0.00325756 -0.00058763 0.00306245
v -0.00521807 0.00089060 0.00306245
v -0.00522230 0.00089060 0.00361719
v -0.01624541 -0.00261662 0.00458641
v -0.01566050 -0.00155408 0.00455109
v -0.01507559 -0.00048989 0.00451265
v -0.01449068 0.00057485 0.00447110
v -0.01436242 0.00089060 0.00418854
v -0.00548445 0.00089060 -0.00423529
v -0.00325756 -0.00072436 -0.00412205
v -0.01401147 0.00089060 0.00482845
v -0.01443712 -0.00006706 0.00497908
v -0.01502626 -0.00112906 0.00500505
v -0.01561117 -0.00219435 0.00502479
v -0.00325756 -0.00058763 -0.00306245
v -0.00521807 0.00089060 -0.00306245
v -0.01457524 0.00027778 0.00458225
v -0.01413550 0.00089060 0.00468094
v -0.00541257 0.00089060 -0.00415218
v -0.00325756 -0.00064584 -0.00398493
v -0.00325756 -0.00058873 -0.00361926
v -0.00522230 0.00089060 -0.00362030
v -0.00537874 0.00089060 -0.00410128
v -0.00333790 -0.00055523 -0.00390286
v -0.00325756 -0.00059147 -0.00382391
f 1 2 3
f 1 3 9
f 1 9 19
f 1 19 26
f 1 26 11
f 1 11 4
f 1 4 12
f 1 12 28
f 1 28 42
f 1 42 61
f 1 61 83
f 1 83 104
f 1 104 123
f 1 123 136
f 1 136 150
f 1 150 170
f 1 170 158
f 1 158 142
f 1 142 128
f 1 128 111
f 1 111 90
f 1 90 71
f 1 71 51
f 1 51 50
f 1 50 32
f 1 32 20
f 1 20 10
f 1 10 2
f 2 5 6
f 2 6 7
f 2 7 8
f 2 8 9
f 2 9 3
f 2 10 5
f 4 11 25
f 4 25 39
f 4 39 56
f 4 56 75
f 4 75 97
f 4 97 119
f 4 119 132
f 4 132 134
f 4 134 146
f 4 146 165
f 4 165 182
f 4 182 192
f 4 192 197
f 4 197 193
f 4 193 187
f 4 187 173
f 4 173 154
f 4 154 140
f 4 140 126
f 4 126 107
f 4 107 85
f 4 85 64
f 4 64 43
f 4 43 29
f 4 29 12
f 5 13 14
f 5 14 15
f 5 15 16
f 5 16 6
f 5 10 13
f 6 16 17
f 6 17 7
f 7 17 8
f 8 17 18
f 8 18 19
f 8 19 9
f 10 20 21
f 10 21 22
f 10 22 23
f 10 23 24
f 10 24 13
f 11 26 27
f 11 27 25
f 12 29 47
f 12 47 67
f 12 67 77
f 12 77 58
f 12 58 41
f 12 41 28
f 13 24 30
f 13 30 14
f 14 30 17
f 14 17 15
f 15 17 16
f 17 30 18
f 18 30 31
f 18 31 49
f 18 49 70
f 18 70 88
f 18 88 109
f 18 109 117
f 18 117 116
f 18 116 115
f 18 115 131
f 18 131 144
f 18 144 163
f 18 163 180
f 18 180 190
f 18 190 183
f 18 183 166
f 18 166 147
f 18 147 135
f 18 135 121
f 18 121 101
f 18 101 100
f 18 100 99
f 18 99 77
f 18 77 67
f 18 67 46
f 18 46 66
f 18 66 65
f 18 65 86
f 18 86 108
f 18 108 127
f 18 127 141
f 18 141 156
f 18 156 175
f 18 175 174
f 18 174 188
f 18 188 194
f 18 194 195
f 18 195 191
f 18 191 181
f 18 181 164
f 18 164 145
f 18 145 133
f 18 133 120
f 18 120 98
f 18 98 76
f 18 76 57
f 18 57 40
f 18 40 27
f 18 27 26
f 18 26 19
f 20 32 33
f 20 33 34
f 20 34 35
f 20 35 21
f 21 35 36
f 21 36 37
f 21 37 22
f 22 37 38
f 22 38 23
f 23 38 31
f 23 31 30
f 23 30 24
f 25 27 40
f 25 40 39
f 28 41 42
f 29 43 44
f 29 44 45
f 29 45 46
f 29 46 47
f 31 38 48
f 31 48 49
f 32 50 33
f 33 50 51
f 33 51 52
f 33 52 34
f 34 52 53
f 34 53 54
f 34 54 35
f 35 54 55
f 35 55 36
f 36 55 48
f 36 48 37
f 37 48 38
f 39 40 57
f 39 57 56
f 41 58 59
f 41 59 42
f 42 60 61
f 42 59 62
f 42 62 63
f 42 63 60
f 43 64 65
f 43 65 66
f 43 66 45
f 43 45 44
f 45 66 46
f 46 67 47
f 48 55 68
f 48 68 49
f 49 68 69
f 49 69 70
f 51 71 72
f 51 72 73
f 51 73 52
f 52 73 74
f 52 74 53
f 53 74 69
f 53 69 54
f 54 69 68
f 54 68 55
f 56 57 76
f 56 76 75
f 58 77 78
f 58 78 59
f 59 78 62
f 60 63 79
f 60 79 80
f 60 80 81
f 60 81 82
f 60 82 83
f 60 83 61
f 62 78 84
f 62 84 63
f 63 84 79
f 64 85 86
f 64 86 65
f 69 74 87
f 69 87 88
f 69 88 70
f 71 89 72
f 71 90 91
f 71 91 92
f 71 92 93
f 71 93 89
f 72 89 110
f 72 110 94
f 72 94 95
f 72 95 73
f 73 95 96
f 73 96 74
f 74 96 87
f 75 76 98
f 75 98 97
f 77 99 78
f 78 99 100
f 78 100 84
f 79 84 80
f 80 84 81
f 81 84 101
f 81 101 102
f 81 102 82
f 82 102 103
f 82 103 83
f 83 103 105
f 83 105 106
f 83 106 104
f 84 100 101
f 85 107 86
f 86 107 108
f 87 96 88
f 88 96 109
f 89 93 110
f 90 111 91
f 91 112 92
f 91 111 113
f 91 113 114
f 91 114 115
f 91 115 116
f 91 116 117
f 91 117 118
f 91 118 112
f 92 112 93
f 93 112 118
f 93 118 117
f 93 117 110
f 94 110 96
f 94 96 95
f 96 110 109
f 97 98 120
f 97 120 119
f 101 121 102
f 102 121 122
f 102 122 105
f 102 105 103
f 104 106 124
f 104 124 123
f 105 122 106
f 106 125 124
f 106 122 125
f 107 126 127
f 107 127 108
f 109 110 117
f 111 128 129
f 111 129 113
f 113 129 130
f 113 130 114
f 114 130 131
f 114 131 115
f 119 120 132
f 120 133 134
f 120 134 132
f 121 135 122
f 122 135 125
f 123 124 137
f 123 137 136
f 124 125 138
f 124 138 137
f 125 135 139
f 125 139 138
f 126 140 141
f 126 141 127
f 128 142 143
f 128 143 129
f 129 143 130
f 130 143 131
f 131 143 144
f 133 145 134
f 134 145 146
f 135 147 148
f 135 148 138
f 135 138 139
f 136 149 150
f 136 137 149
f 137 138 151
f 137 151 152
f 137 152 153
f 137 153 149
f 138 148 151
f 140 154 155
f 140 155 156
f 140 156 141
f 142 157 143
f 142 158 159
f 142 159 160
f 142 160 161
f 142 161 157
f 143 157 161
f 143 161 162
f 143 162 163
f 143 163 144
f 145 164 146
f 146 164 165
f 147 166 167
f 147 167 152
f 147 152 151
f 147 151 148
f 149 168 169
f 149 169 150
f 149 153 168
f 150 169 171
f 150 171 170
f 152 167 172
f 152 172 153
f 153 172 168
f 154 173 174
f 154 174 175
f 154 175 155
f 155 175 156
f 158 170 159
f 159 170 176
f 159 176 177
f 159 177 178
f 159 178 160
f 160 178 179
f 160 179 161
f 161 179 163
f 161 163 162
f 163 179 180
f 164 181 182
f 164 182 165
f 166 183 184
f 166 184 167
f 167 184 185
f 167 185 186
f 167 186 168
f 167 168 172
f 168 186 169
f 169 186 185
f 169 185 184
f 169 184 171
f 170 171 176
f 171 184 176
f 173 187 188
f 173 188 174
f 176 184 183
f 176 183 189
f 176 189 177
f 177 189 178
f 178 189 179
f 179 189 190
f 179 190 180
f 181 191 182
f 182 191 192
f 183 190 189
f 187 193 188
f 188 193 194
f 191 195 192
f 192 196 197
f 192 195 196
f 193 197 194
f 194 197 195
f 195 197 196

