# https://github.com/mikedh/trimesh
v 0.01404665 -0.02455646 -0.00361926
v 0.01404665 -0.02453070 -0.00407531
v 0.01588999 -0.02453193 -0.00406284
v 0.01588999 -0.02455646 -0.00361926
v 0.01404665 -0.02455646 0.00361926
v 0.01404665 -0.02451905 -0.00415322
v 0.01475890 -0.02453070 -0.00407635
v 0.01587267 -0.02453070 -0.00407738
v 0.01588999 -0.02453070 -0.00407738
v 0.01588999 -0.02455646 0.00361926
v 0.01588999 -0.02455584 0.00363381
v 0.01404665 -0.02453806 0.00394234
v 0.01404665 -0.02448900 -0.00435371
v 0.01475890 -0.02448900 -0.00435475
v 0.01587267 -0.02448900 -0.00435579
v 0.01588999 -0.02448900 -0.00435579
v 0.01588999 -0.02453070 0.00406907
v 0.01531561 -0.02453070 0.00406907
v 0.01404665 -0.02453070 0.00406803
v 0.01404665 -0.02426334 -0.00473392
v 0.01475890 -0.02426396 -0.00473392
v 0.01588999 -0.02426396 -0.00473392
v 0.01588999 -0.02452948 0.00407738
v 0.01404665 -0.02449943 0.00426853
v 0.01404665 -0.02400150 -0.00505388
v 0.01588999 -0.02400150 -0.00505388
v 0.01588999 -0.02448716 0.00434748
v 0.01531561 -0.02448716 0.00434748
v 0.01404665 -0.02448716 0.00434644
v 0.01404665 -0.02366976 -0.00519620
v 0.01588999 -0.02368018 -0.00519204
v 0.01588999 -0.02448042 0.00435994
v 0.01404665 -0.02426396 0.00473392
v 0.01588999 -0.02366976 -0.00519620
v 0.01404665 -0.02311296 -0.00530112
v 0.01588999 -0.02313013 -0.00529800
v 0.01588999 -0.02426396 0.00473392
v 0.01531561 -0.02400396 0.00505492
v 0.01404665 -0.02407631 0.00496558
v 0.01404665 -0.02255617 -0.00530631
v 0.01588999 -0.02311296 -0.00530112
v 0.01588999 -0.02400396 0.00505492
v 0.01404665 -0.02366976 0.00519724
v 0.01404665 -0.02400334 0.00505492
v 0.01588999 -0.02255617 -0.00530631
v 0.01404665 -0.02199876 -0.00529593
v 0.01420202 -0.02199876 -0.00530527
v 0.01587267 -0.02088578 -0.00530631
v 0.01588999 -0.02366976 0.00519724
v 0.01404665 -0.02311296 0.00530112
v 0.01588999 -0.02088578 -0.00530631
v 0.01404665 -0.02143951 -0.00515672
v 0.01587267 -0.02032899 -0.00523879
v 0.01588999 -0.02032899 -0.00524087
v 0.01588999 -0.02311296 0.00530008
v 0.01420202 -0.02311296 0.00530112
v 0.01404665 -0.02255617 0.00530631
v 0.01404665 -0.02127088 -0.00505492
v 0.01588999 -0.01983719 -0.00507881
v 0.01588999 -0.02012786 -0.00517750
v 0.01588999 -0.02309579 0.00530112
v 0.01588999 -0.02255617 0.00530631
v 0.01420202 -0.02199876 0.00530527
v 0.01404665 -0.02215451 0.00530527
v 0.01587267 -0.02088578 0.00530631
v 0.01404665 -0.02108017 -0.00493234
v 0.01588999 -0.01928469 -0.00472977
v 0.01588999 -0.02088578 0.00530631
v 0.01404665 -0.02199876 0.00529592
v 0.01588999 -0.02086861 0.00530527
v 0.01588999 -0.02031121 0.00523879
v 0.01404665 -0.02089008 -0.00477340
v 0.01588999 -0.01862120 -0.00422801
v 0.01588999 -0.01925342 -0.00470899
v 0.01404665 -0.02154744 0.00519204
v 0.01588999 -0.01984639 0.00508400
v 0.01404665 -0.02143951 0.00515672
v 0.01404665 -0.02056262 -0.00449084
v 0.01588999 -0.01857582 -0.00418334
v 0.01588999 -0.01983719 0.00507881
v 0.01404665 -0.02116909 0.00500609
v 0.01404665 -0.02031427 -0.00417919
v 0.01588999 -0.01829559 -0.00361926
v 0.01588999 -0.01959804 0.00493753
v 0.01588999 -0.01928469 0.00472977
v 0.01588999 -0.01925342 0.00470899
v 0.01588999 -0.01889101 0.00446694
v 0.01404665 -0.02098328 0.00485546
v 0.01404665 -0.02012970 -0.00361926
v 0.01588999 -0.01829252 -0.00306245
v 0.01588999 -0.01862120 0.00422801
v 0.01404665 -0.02062762 0.00455317
v 0.01404665 -0.02012786 -0.00306245
v 0.01588999 -0.01829252 0.00306245
v 0.01588999 -0.01859912 0.00420828
v 0.01404665 -0.02056262 0.00449084
v 0.01404665 -0.02012786 0.00307388
v 0.01404665 -0.02012970 0.00361926
v 0.01588999 -0.01829436 0.00340838
v 0.01588999 -0.01857582 0.00418334
v 0.01404665 -0.02043201 0.00433501
v 0.01404665 -0.02013092 0.00362446
v 0.01588999 -0.01829559 0.00361926
v 0.01588999 -0.01837592 0.00384469
v 0.01404665 -0.02031427 0.00417919
f 1 2 3
f 1 3 4
f 1 4 10
f 1 10 5
f 1 5 12
f 1 12 19
f 1 19 24
f 1 24 29
f 1 29 33
f 1 33 39
f 1 39 44
f 1 44 43
f 1 43 50
f 1 50 57
f 1 57 64
f 1 64 69
f 1 69 75
f 1 75 77
f 1 77 81
f 1 81 88
f 1 88 92
f 1 92 96
f 1 96 101
f 1 101 105
f 1 105 102
f 1 102 98
f 1 98 97
f 1 97 93
f 1 93 89
f 1 89 82
f 1 82 78
f 1 78 72
f 1 72 66
f 1 66 58
f 1 58 52
f 1 52 46
f 1 46 40
f 1 40 35
f 1 35 30
f 1 30 25
f 1 25 20
f 1 20 13
f 1 13 6
f 1 6 2
f 2 6 7
f 2 7 3
f 3 7 8
f 3 8 9
f 3 9 16
f 3 16 22
f 3 22 26
f 3 26 31
f 3 31 34
f 3 34 36
f 3 36 41
f 3 41 45
f 3 45 51
f 3 51 54
f 3 54 60
f 3 60 59
f 3 59 67
f 3 67 74
f 3 74 73
f 3 73 79
f 3 79 83
f 3 83 90
f 3 90 94
f 3 94 99
f 3 99 103
f 3 103 104
f 3 104 100
f 3 100 95
f 3 95 91
f 3 91 87
f 3 87 86
f 3 86 85
f 3 85 84
f 3 84 80
f 3 80 76
f 3 76 71
f 3 71 70
f 3 70 68
f 3 68 62
f 3 62 61
f 3 61 55
f 3 55 49
f 3 49 42
f 3 42 37
f 3 37 32
f 3 32 27
f 3 27 23
f 3 23 17
f 3 17 11
f 3 11 10
f 3 10 4
f 5 10 11
f 5 11 12
f 6 13 14
f 6 14 7
f 7 14 15
f 7 15 8
f 8 15 16
f 8 16 9
f 11 17 12
f 12 17 18
f 12 18 19
f 13 20 14
f 14 20 21
f 14 21 15
f 15 21 22
f 15 22 16
f 17 23 18
f 18 23 24
f 18 24 19
f 20 25 21
f 21 25 26
f 21 26 22
f 23 27 28
f 23 28 24
f 24 28 29
f 25 30 31
f 25 31 26
f 27 32 28
f 28 32 29
f 29 32 33
f 30 34 31
f 30 35 36
f 30 36 34
f 32 37 33
f 33 37 42
f 33 42 38
f 33 38 39
f 35 40 45
f 35 45 41
f 35 41 36
f 38 42 49
f 38 49 43
f 38 43 44
f 38 44 39
f 40 46 47
f 40 47 48
f 40 48 51
f 40 51 45
f 43 49 56
f 43 56 50
f 46 48 47
f 46 52 53
f 46 53 54
f 46 54 48
f 48 54 51
f 49 55 56
f 50 56 62
f 50 62 57
f 52 58 59
f 52 59 60
f 52 60 53
f 53 60 54
f 55 61 56
f 56 61 62
f 57 63 64
f 57 62 68
f 57 68 65
f 57 65 63
f 58 66 67
f 58 67 59
f 63 69 64
f 63 65 69
f 65 68 70
f 65 70 71
f 65 71 69
f 66 72 73
f 66 73 74
f 66 74 67
f 69 71 75
f 71 76 77
f 71 77 75
f 72 78 73
f 73 78 79
f 76 80 81
f 76 81 77
f 78 82 79
f 79 82 83
f 80 84 81
f 81 84 85
f 81 85 86
f 81 86 87
f 81 87 88
f 82 89 83
f 83 89 90
f 87 91 92
f 87 92 88
f 89 93 90
f 90 93 97
f 90 97 94
f 91 95 92
f 92 95 96
f 94 97 98
f 94 98 99
f 95 100 96
f 96 100 101
f 98 102 103
f 98 103 99
f 100 104 105
f 100 105 101
f 102 105 103
f 103 105 104

