# https://github.com/mikedh/trimesh
v -0.00536158 0.01057871 0.00306306
v -0.00536488 0.01057871 0.00361911
v -0.00676146 0.00822638 0.00361911
v -0.00676099 0.00822638 0.00335817
v -0.00676052 0.00822638 0.00306306
v -0.00536158 0.01057871 -0.00306280
v -0.00541578 0.01057871 0.00388937
v -0.00695283 0.00822638 0.00421658
v -0.00676052 0.00822638 -0.00306280
v -0.00676146 0.00822638 -0.00361989
v -0.00536488 0.01057871 -0.00361989
v -0.00546433 0.01057871 0.00403226
v -0.00557227 0.01057871 0.00419276
v -0.00713759 0.00822638 0.00447027
v -0.00680954 0.00822638 -0.00378557
v -0.00546433 0.01057871 -0.00403201
v -0.00569293 0.01057871 0.00432841
v -0.00717436 0.00822638 0.00451687
v -0.00695283 0.00822638 -0.00421632
v -0.00717436 0.00822638 -0.00451661
v -0.00569293 0.01057871 -0.00432815
v -0.00579616 0.01057871 0.00443610
v -0.00735488 0.00822638 0.00469497
v -0.00746141 0.00822638 -0.00479412
v -0.00597527 0.01057871 -0.00459324
v -0.00597527 0.01057871 0.00459349
v -0.00772724 0.00822638 0.00503978
v -0.00746141 0.00822638 0.00479437
v -0.00774610 0.00822638 -0.00505609
v -0.00630379 0.01057871 -0.00485210
v -0.00614259 0.01057871 0.00473121
v -0.00774610 0.00822638 0.00505635
v -0.00804163 0.00822638 -0.00518449
v -0.00658660 0.01057871 -0.00506438
v -0.00650505 0.01057871 0.00500768
v -0.00658660 0.01057871 0.00506360
v -0.00670962 0.01057871 0.00512676
v -0.00791437 0.00822638 0.00513815
v -0.00863222 0.00822638 -0.00528907
v -0.00807509 0.00863209 -0.00525180
v -0.00695424 0.01057871 -0.00520002
v -0.00695424 0.01057871 0.00520028
v -0.00804163 0.00822638 0.00518475
v -0.00918935 0.00822638 -0.00518242
v -0.00863222 0.00863209 -0.00526422
v -0.00751891 0.01030263 -0.00527251
v -0.00807509 0.00918909 -0.00528183
v -0.00751891 0.01057871 -0.00525076
v -0.00724270 0.01057871 0.00526551
v -0.00807509 0.00863209 0.00525205
v -0.00848092 0.00822638 0.00528519
v -0.00953625 0.00822638 -0.00505195
v -0.00918982 0.00860078 -0.00510683
v -0.00853984 0.00974586 -0.00510372
v -0.00810809 0.01032197 -0.00513790
v -0.00807509 0.00974586 -0.00524869
v -0.00802654 0.01057871 -0.00511304
v -0.00751891 0.01030263 0.00527173
v -0.00807509 0.00918909 0.00528208
v -0.00751891 0.01057871 0.00524998
v -0.00863222 0.00822638 0.00528933
v -0.00983178 0.00822638 -0.00475373
v -0.00949006 0.00839423 -0.00502814
v -0.00900458 0.00909123 -0.00506748
v -0.00841964 0.01014928 -0.00505402
v -0.00831548 0.01052045 -0.00498257
v -0.00829804 0.01057871 -0.00496290
v -0.00807509 0.00974586 0.00524895
v -0.00863222 0.00863209 0.00526551
v -0.00782717 0.01057871 0.00518061
v -0.00903804 0.00822638 0.00522617
v -0.00994773 0.00822638 -0.00460256
v -0.00953955 0.00903597 -0.00455596
v -0.00963241 0.00860078 -0.00473820
v -0.00937600 0.00876564 -0.00492666
v -0.00890748 0.00946241 -0.00500950
v -0.00833952 0.01057871 -0.00491527
v -0.00918935 0.00822638 0.00518164
v -0.00802702 0.01057871 0.00511330
v -0.00810809 0.01032312 0.00513815
v -0.01010516 0.00822638 -0.00431055
v -0.01001844 0.00834381 -0.00442342
v -0.00895415 0.01009977 -0.00451868
v -0.00854596 0.01057871 -0.00467193
v -0.00919076 0.00860032 0.00510709
v -0.00946602 0.00822638 0.00508224
v -0.00853937 0.00974586 0.00510398
v -0.00825232 0.01057871 0.00500043
v -0.00842059 0.01015089 0.00505428
v -0.01013250 0.00822638 -0.00415419
v -0.01005049 0.00839907 -0.00405272
v -0.00899987 0.01017921 -0.00417698
v -0.00876844 0.01057871 -0.00417698
v -0.00900599 0.00908870 0.00506774
v -0.00953531 0.00822638 0.00505117
v -0.00829898 0.01057871 0.00496419
v -0.00831548 0.01052230 0.00498283
v -0.00890560 0.00945965 0.00500872
v -0.00948912 0.00839331 0.00502736
v -0.01017634 0.00822638 -0.00361989
v -0.00990296 0.00870025 -0.00361989
v -0.00902438 0.01022089 -0.00361989
v -0.00881746 0.01057871 -0.00361989
v -0.00973563 0.00822638 0.00486064
v -0.00937741 0.00876472 0.00492795
v -0.00854644 0.01057871 0.00467219
v -0.00953908 0.00903528 0.00455621
v -0.01017634 0.00822638 0.00361911
v -0.00990296 0.00870025 0.00361911
v -0.00902438 0.01022089 0.00361911
v -0.00881746 0.01057871 0.00361911
v -0.00983131 0.00822638 0.00475503
v -0.00872272 0.01057871 0.00430045
v -0.00895368 0.01009954 0.00451894
v -0.01001844 0.00834312 0.00442264
v -0.01005190 0.00822638 0.00447545
v -0.01016455 0.00822638 0.00382103
v -0.01005049 0.00839907 0.00405090
v -0.00880662 0.01057871 0.00374233
v -0.00876844 0.01057871 0.00417620
v -0.01010469 0.00822638 0.00431081
v -0.00899987 0.01017898 0.00417620
v -0.01013203 0.00822638 0.00415238
f 1 2 3
f 1 3 4
f 1 4 5
f 1 5 9
f 1 9 6
f 1 6 11
f 1 11 16
f 1 16 21
f 1 21 25
f 1 25 30
f 1 30 34
f 1 34 41
f 1 41 48
f 1 48 57
f 1 57 67
f 1 67 77
f 1 77 84
f 1 84 93
f 1 93 103
f 1 103 111
f 1 111 119
f 1 119 120
f 1 120 113
f 1 113 106
f 1 106 96
f 1 96 88
f 1 88 79
f 1 79 70
f 1 70 60
f 1 60 49
f 1 49 42
f 1 42 37
f 1 37 36
f 1 36 35
f 1 35 31
f 1 31 26
f 1 26 22
f 1 22 17
f 1 17 13
f 1 13 12
f 1 12 7
f 1 7 2
f 2 7 3
f 3 7 8
f 3 8 14
f 3 14 18
f 3 18 23
f 3 23 28
f 3 28 27
f 3 27 32
f 3 32 38
f 3 38 43
f 3 43 51
f 3 51 61
f 3 61 71
f 3 71 78
f 3 78 86
f 3 86 95
f 3 95 104
f 3 104 112
f 3 112 116
f 3 116 121
f 3 121 123
f 3 123 117
f 3 117 108
f 3 108 100
f 3 100 90
f 3 90 81
f 3 81 72
f 3 72 62
f 3 62 52
f 3 52 44
f 3 44 39
f 3 39 33
f 3 33 29
f 3 29 24
f 3 24 20
f 3 20 19
f 3 19 15
f 3 15 10
f 3 10 9
f 3 9 5
f 3 5 4
f 6 9 10
f 6 10 11
f 7 12 8
f 8 13 14
f 8 12 13
f 10 15 16
f 10 16 11
f 13 17 18
f 13 18 14
f 15 19 16
f 16 19 20
f 16 20 21
f 17 22 18
f 18 22 23
f 20 24 21
f 21 24 25
f 22 26 32
f 22 32 27
f 22 27 28
f 22 28 23
f 24 29 25
f 25 29 30
f 26 31 32
f 29 33 34
f 29 34 30
f 31 35 32
f 32 36 37
f 32 37 38
f 32 35 36
f 33 39 40
f 33 40 41
f 33 41 34
f 37 42 43
f 37 43 38
f 39 44 45
f 39 45 46
f 39 46 47
f 39 47 40
f 40 47 46
f 40 46 41
f 41 46 48
f 42 49 50
f 42 50 43
f 43 50 51
f 44 52 53
f 44 53 54
f 44 54 55
f 44 55 56
f 44 56 45
f 45 56 46
f 46 56 48
f 48 56 55
f 48 55 57
f 49 58 59
f 49 59 51
f 49 51 50
f 49 60 58
f 51 59 61
f 52 62 63
f 52 63 64
f 52 64 53
f 53 64 54
f 54 57 55
f 54 64 65
f 54 65 57
f 57 65 66
f 57 66 67
f 58 60 68
f 58 68 69
f 58 69 61
f 58 61 59
f 60 70 68
f 61 69 71
f 62 72 73
f 62 73 74
f 62 74 75
f 62 75 63
f 63 75 76
f 63 76 65
f 63 65 64
f 65 76 66
f 66 76 77
f 66 77 67
f 68 70 71
f 68 71 69
f 70 78 71
f 70 79 80
f 70 80 78
f 72 81 82
f 72 82 73
f 73 82 83
f 73 83 76
f 73 76 74
f 74 76 75
f 76 83 77
f 77 83 84
f 78 80 85
f 78 85 86
f 79 87 80
f 79 88 89
f 79 89 87
f 80 87 85
f 81 90 82
f 82 90 91
f 82 91 92
f 82 92 93
f 82 93 83
f 83 93 84
f 85 87 94
f 85 94 86
f 86 94 95
f 87 89 94
f 88 96 97
f 88 97 89
f 89 97 98
f 89 98 99
f 89 99 94
f 90 100 91
f 91 93 92
f 91 100 101
f 91 101 102
f 91 102 103
f 91 103 93
f 94 99 95
f 95 99 104
f 96 105 97
f 96 106 107
f 96 107 105
f 97 105 98
f 98 105 99
f 99 105 104
f 100 108 109
f 100 109 101
f 101 109 110
f 101 110 102
f 102 110 111
f 102 111 103
f 104 105 112
f 105 107 112
f 106 113 114
f 106 114 107
f 107 114 115
f 107 115 116
f 107 116 112
f 108 117 109
f 109 117 110
f 110 117 118
f 110 118 111
f 111 118 119
f 113 120 114
f 114 120 115
f 115 121 116
f 115 120 122
f 115 122 118
f 115 118 123
f 115 123 121
f 117 123 118
f 118 122 120
f 118 120 119

