# https://github.com/mikedh/trimesh
v 0.00384469 -0.01049114 0.00306245
v 0.00384168 -0.01049114 0.00362134
v 0.00384243 -0.01049187 0.00361926
v 0.00306208 -0.01236135 0.00361926
v 0.00384469 -0.01049114 -0.00306245
v 0.00365674 -0.01049114 0.00419062
v 0.00298164 -0.01236135 0.00395584
v 0.00306208 -0.01236135 -0.00361926
v 0.00384243 -0.01049187 -0.00361926
v 0.00384243 -0.01049114 -0.00361822
v 0.00353420 -0.01049114 0.00435163
v 0.00275084 -0.01236135 0.00440981
v 0.00280497 -0.01236135 0.00433086
v 0.00291999 -0.01236135 0.00414075
v 0.00291999 -0.01236135 -0.00414075
v 0.00371388 -0.01049114 -0.00401713
v 0.00384168 -0.01049114 -0.00362134
v 0.00340339 -0.01049114 0.00450746
v 0.00261627 -0.01236135 0.00455109
v 0.00275084 -0.01236135 -0.00440981
v 0.00365674 -0.01049114 -0.00419062
v 0.00332370 -0.01049114 0.00458537
v 0.00247193 -0.01236135 0.00469652
v 0.00340339 -0.01049114 -0.00450746
v 0.00247193 -0.01236135 -0.00469652
v 0.00297487 -0.01049114 0.00488974
v 0.00218399 -0.01236135 0.00497181
v 0.00227797 -0.01236135 0.00488559
v 0.00218399 -0.01236135 -0.00497181
v 0.00306960 -0.01049114 -0.00480352
v 0.00280647 -0.01049114 0.00502791
v 0.00203965 -0.01236135 0.00507569
v 0.00278242 -0.01057919 -0.00501025
v 0.00289518 -0.01049114 -0.00495415
v 0.00191937 -0.01236135 -0.00515257
v 0.00252831 -0.01049114 0.00516503
v 0.00191937 -0.01236135 0.00515257
v 0.00269446 -0.01049114 -0.00507466
v 0.00139236 -0.01236135 -0.00530320
v 0.00252831 -0.01049114 -0.00516503
v 0.00239825 -0.01049114 0.00520451
v 0.00157881 -0.01236135 0.00525333
v 0.00139236 -0.01197435 -0.00530631
v 0.00194869 -0.01049114 -0.00530008
v 0.00194869 -0.01086075 -0.00528969
v 0.00083529 -0.01236135 -0.00530631
v 0.00194869 -0.01049114 0.00530008
v 0.00194869 -0.01086075 0.00528969
v 0.00139236 -0.01236135 0.00530320
v 0.00139236 -0.01049114 -0.00530631
v -0.00100508 -0.01236135 -0.00530631
v 0.00176149 -0.01049114 0.00530631
v 0.00139236 -0.01197435 0.00530631
v 0.00100519 -0.01236135 0.00530631
v -0.00176138 -0.01049114 -0.00530631
v -0.00139150 -0.01197435 -0.00530631
v -0.00139150 -0.01236135 -0.00530216
v -0.00139150 -0.01049114 0.00530631
v -0.00083518 -0.01236135 0.00530631
v -0.00194857 -0.01049114 -0.00530008
v -0.00157569 -0.01236135 -0.00525229
v -0.00239288 -0.01049114 -0.00520347
v -0.00194857 -0.01086075 -0.00528865
v -0.00194857 -0.01049114 0.00530008
v -0.00139150 -0.01197435 0.00530631
v -0.00139150 -0.01236135 0.00530216
v -0.00191474 -0.01236135 -0.00515153
v -0.00252444 -0.01049114 -0.00516399
v -0.00252444 -0.01049114 0.00516399
v -0.00194857 -0.01086075 0.00528865
v -0.00191474 -0.01236135 0.00515153
v -0.00203127 -0.01236135 -0.00507673
v -0.00280110 -0.01049114 -0.00502375
v -0.00269585 -0.01049114 0.00506946
v -0.00277854 -0.01057315 0.00500713
v -0.00217937 -0.01236135 0.00496766
v -0.00217937 -0.01236135 -0.00496766
v -0.00297025 -0.01049114 -0.00488559
v -0.00288605 -0.01049114 0.00495311
v -0.00306798 -0.01049114 0.00479729
v -0.00339877 -0.01049114 0.00450330
v -0.00246731 -0.01236135 0.00469237
v -0.00227184 -0.01236135 -0.00488247
v -0.00331833 -0.01049114 -0.00458121
v -0.00364911 -0.01049114 0.00418750
v -0.00274622 -0.01236135 0.00440357
v -0.00246731 -0.01236135 -0.00469237
v -0.00339877 -0.01049114 -0.00450330
v -0.00370625 -0.01049114 0.00401298
v -0.00291462 -0.01236135 0.00413556
v -0.00260714 -0.01236135 -0.00455109
v -0.00352356 -0.01049114 -0.00435371
v -0.00274622 -0.01236135 -0.00440358
v -0.00383330 -0.01049114 0.00361926
v -0.00305219 -0.01236135 0.00361926
v -0.00364911 -0.01049114 -0.00418750
v -0.00279959 -0.01236135 -0.00432566
v -0.00383556 -0.01049114 0.00306245
v -0.00305295 -0.01236135 0.00323282
v -0.00383029 -0.01049114 -0.00363069
v -0.00291462 -0.01236135 -0.00413556
v -0.00297551 -0.01236135 -0.00395065
v -0.00383556 -0.01049114 -0.00306245
v -0.00305295 -0.01236135 -0.00306245
v -0.00383330 -0.01049114 -0.00361926
v -0.00305219 -0.01236135 -0.00361926
f 1 2 3
f 1 3 4
f 1 4 8
f 1 8 5
f 1 5 10
f 1 10 17
f 1 17 16
f 1 16 21
f 1 21 24
f 1 24 30
f 1 30 34
f 1 34 38
f 1 38 40
f 1 40 44
f 1 44 50
f 1 50 55
f 1 55 60
f 1 60 62
f 1 62 68
f 1 68 73
f 1 73 78
f 1 78 84
f 1 84 88
f 1 88 92
f 1 92 96
f 1 96 100
f 1 100 105
f 1 105 103
f 1 103 98
f 1 98 94
f 1 94 89
f 1 89 85
f 1 85 81
f 1 81 80
f 1 80 79
f 1 79 74
f 1 74 69
f 1 69 64
f 1 64 58
f 1 58 52
f 1 52 47
f 1 47 41
f 1 41 36
f 1 36 31
f 1 31 26
f 1 26 22
f 1 22 18
f 1 18 11
f 1 11 6
f 1 6 2
f 2 6 3
f 3 7 4
f 3 6 7
f 4 7 14
f 4 14 13
f 4 13 12
f 4 12 19
f 4 19 23
f 4 23 28
f 4 28 27
f 4 27 32
f 4 32 37
f 4 37 42
f 4 42 49
f 4 49 54
f 4 54 59
f 4 59 66
f 4 66 71
f 4 71 76
f 4 76 82
f 4 82 86
f 4 86 90
f 4 90 95
f 4 95 99
f 4 99 104
f 4 104 106
f 4 106 102
f 4 102 101
f 4 101 97
f 4 97 93
f 4 93 91
f 4 91 87
f 4 87 83
f 4 83 77
f 4 77 72
f 4 72 67
f 4 67 61
f 4 61 57
f 4 57 51
f 4 51 46
f 4 46 39
f 4 39 35
f 4 35 29
f 4 29 25
f 4 25 20
f 4 20 15
f 4 15 8
f 5 8 9
f 5 9 10
f 6 11 12
f 6 12 13
f 6 13 14
f 6 14 7
f 8 15 9
f 9 15 16
f 9 16 17
f 9 17 10
f 11 18 12
f 12 18 19
f 15 20 21
f 15 21 16
f 18 22 23
f 18 23 19
f 20 24 21
f 20 25 24
f 22 26 27
f 22 27 28
f 22 28 23
f 24 25 29
f 24 29 30
f 26 31 27
f 27 31 32
f 29 33 34
f 29 34 30
f 29 35 33
f 31 36 37
f 31 37 32
f 33 38 34
f 33 35 38
f 35 39 40
f 35 40 38
f 36 41 37
f 37 41 42
f 39 43 44
f 39 44 45
f 39 45 40
f 39 46 43
f 40 45 44
f 41 47 48
f 41 48 49
f 41 49 42
f 43 50 44
f 43 46 51
f 43 51 56
f 43 56 55
f 43 55 50
f 47 49 48
f 47 52 49
f 49 52 53
f 49 53 54
f 51 57 56
f 52 58 65
f 52 65 59
f 52 59 54
f 52 54 53
f 55 56 60
f 56 57 60
f 57 61 62
f 57 62 63
f 57 63 60
f 58 64 65
f 59 65 66
f 60 63 62
f 61 67 62
f 62 67 68
f 64 66 65
f 64 69 70
f 64 70 66
f 66 70 69
f 66 69 71
f 67 72 73
f 67 73 68
f 69 74 71
f 71 74 75
f 71 75 76
f 72 77 73
f 73 77 78
f 74 79 75
f 75 79 76
f 76 79 80
f 76 80 81
f 76 81 82
f 77 83 84
f 77 84 78
f 81 85 86
f 81 86 82
f 83 87 88
f 83 88 84
f 85 89 90
f 85 90 86
f 87 91 88
f 88 91 93
f 88 93 92
f 89 94 90
f 90 94 95
f 92 93 96
f 93 97 96
f 94 98 95
f 95 98 99
f 96 97 101
f 96 101 102
f 96 102 100
f 98 103 104
f 98 104 99
f 100 102 105
f 102 106 105
f 103 105 106
f 103 106 104

