# https://github.com/mikedh/trimesh
v -0.00306225 -0.02067152 -0.00530631
v -0.00361996 -0.02067152 -0.00530424
v -0.00306225 -0.01977159 -0.00530631
v 0.00340559 -0.02067152 -0.00530631
v -0.00419527 -0.02067152 -0.00526268
v -0.00361996 -0.02032845 -0.00530216
v -0.00306225 -0.01969689 -0.00529904
v -0.00250589 -0.01969689 -0.00530631
v 0.00306311 -0.01977159 -0.00530631
v 0.00396195 -0.02067152 -0.00530424
v -0.00361996 -0.01977159 -0.00523048
v -0.00473268 -0.02067152 -0.00517023
v -0.00361454 -0.01969689 -0.00520970
v 0.00298730 -0.01969689 -0.00530631
v 0.00306311 -0.01969689 -0.00529904
v 0.00354502 -0.01969689 -0.00523671
v 0.00455756 -0.02067152 -0.00522425
v -0.00509817 -0.02067152 -0.00505076
v -0.00403689 -0.01977159 -0.00508400
v -0.00400034 -0.01969689 -0.00506531
v 0.00361541 -0.01969689 -0.00521282
v 0.00499209 -0.02067152 -0.00510686
v -0.00539056 -0.02067152 -0.00489390
v -0.00428732 -0.01969689 -0.00487832
v -0.00582103 -0.02067152 -0.00465601
v -0.00606198 -0.02067152 -0.00452200
v -0.00631918 -0.02067152 -0.00436306
v 0.00397413 -0.01969689 -0.00508712
v 0.00510174 -0.02067152 -0.00505388
v -0.00467718 -0.01969689 -0.00460303
v -0.00677807 -0.02067152 -0.00399428
v 0.00528990 -0.02067152 -0.00495727
v 0.00421102 -0.01969689 -0.00493961
v 0.00616302 -0.02067152 -0.00447733
v 0.00567434 -0.02067152 -0.00474950
v -0.00480307 -0.01969689 -0.00449499
v -0.00690532 -0.02067152 -0.00361926
v -0.00670903 -0.02059386 -0.00392364
v -0.00520917 -0.01969689 -0.00411063
v -0.00508734 -0.01969689 -0.00424879
v 0.00463066 -0.01969689 -0.00464666
v 0.00632816 -0.02067152 -0.00436306
v -0.00690938 -0.02067152 -0.00306245
v -0.00539327 -0.01969689 -0.00361926
v 0.00468075 -0.01969689 -0.00460718
v 0.00665304 -0.02067152 -0.00411270
v 0.00637690 -0.02067152 -0.00432670
v -0.00690938 -0.02067152 0.00306245
v -0.00539597 -0.01969689 -0.00306245
v 0.00495825 -0.01969689 -0.00438592
v 0.00678300 -0.02067152 -0.00399843
v -0.00690802 -0.02067152 0.00325464
v -0.00539327 -0.01969689 0.00361926
v -0.00539597 -0.01969689 0.00311959
v 0.00509497 -0.01969689 -0.00424983
v 0.00671261 -0.02059215 -0.00392779
v 0.00690347 -0.02067152 -0.00372834
v 0.00517484 -0.01969689 -0.00416880
v 0.00521409 -0.01969689 -0.00411582
v -0.00690532 -0.02067152 0.00361926
v -0.00689313 -0.02067152 0.00373249
v -0.00538515 -0.01969689 0.00365251
v 0.00539413 -0.01969689 -0.00365666
v 0.00691566 -0.02067152 -0.00361926
v 0.00540225 -0.01969689 -0.00361926
v -0.00677807 -0.02067152 0.00399428
v -0.00670903 -0.02059386 0.00392364
v -0.00520917 -0.01969689 0.00411063
v 0.00691972 -0.02067152 -0.00306245
v 0.00540631 -0.01969689 -0.00306245
v -0.00664947 -0.02067152 0.00410959
v -0.00495332 -0.01969689 0.00438072
v -0.00508734 -0.01969689 0.00424879
v -0.00516856 -0.01969689 0.00416465
v 0.00691972 -0.02067152 0.00306245
v 0.00540631 -0.01969689 0.00306245
v -0.00637332 -0.02067152 0.00432255
v -0.00467718 -0.01969689 0.00460303
v 0.00691701 -0.02067152 0.00343643
v 0.00540225 -0.01969689 0.00361926
v -0.00631918 -0.02067152 0.00436306
v -0.00462574 -0.01969689 0.00464250
v 0.00691566 -0.02067152 0.00361926
v 0.00671261 -0.02059215 0.00392779
v 0.00521409 -0.01969689 0.00411582
v -0.00615809 -0.02067152 0.00447421
v -0.00420474 -0.01969689 0.00493649
v 0.00678300 -0.02067152 0.00399843
v 0.00509497 -0.01969689 0.00424983
v -0.00566942 -0.02067152 0.00474743
v -0.00397056 -0.01969689 0.00508504
v 0.00632816 -0.02067152 0.00436306
v 0.00480258 -0.01969689 0.00450226
v 0.00468075 -0.01969689 0.00460718
v -0.00527956 -0.02067152 0.00495727
v -0.00509817 -0.02067152 0.00505076
v -0.00498717 -0.02067152 0.00510478
v -0.00361454 -0.01969689 0.00520970
v 0.00606420 -0.02067152 0.00452616
v 0.00429224 -0.01969689 0.00488143
v 0.00400526 -0.01969689 0.00506738
v -0.00455670 -0.02067152 0.00522217
v -0.00354415 -0.01969689 0.00523360
v 0.00582595 -0.02067152 0.00465913
v 0.00361541 -0.01969689 0.00521282
v 0.00404181 -0.01977159 0.00508608
v 0.00510174 -0.02067152 0.00505388
v 0.00539548 -0.02067152 0.00489702
v -0.00396244 -0.02067152 0.00530424
v -0.00306225 -0.01969689 0.00529904
v 0.00361947 -0.01977159 0.00523256
v 0.00473354 -0.02067152 0.00517230
v 0.00306311 -0.01969689 0.00529904
v -0.00340608 -0.02067152 0.00530631
v -0.00306225 -0.01977159 0.00530631
v -0.00298780 -0.01969689 0.00530631
v 0.00361947 -0.02032845 0.00530320
v 0.00419613 -0.02067152 0.00526372
v 0.00250540 -0.01969689 0.00530631
v 0.00306311 -0.01977159 0.00530631
v 0.00306311 -0.02067152 0.00530631
v 0.00361947 -0.02067152 0.00530527
f 1 2 3
f 1 3 8
f 1 8 14
f 1 14 9
f 1 9 4
f 1 4 10
f 1 10 17
f 1 17 22
f 1 22 29
f 1 29 32
f 1 32 35
f 1 35 34
f 1 34 42
f 1 42 47
f 1 47 46
f 1 46 51
f 1 51 57
f 1 57 64
f 1 64 69
f 1 69 75
f 1 75 79
f 1 79 83
f 1 83 88
f 1 88 92
f 1 92 99
f 1 99 104
f 1 104 108
f 1 108 107
f 1 107 112
f 1 112 118
f 1 118 122
f 1 122 121
f 1 121 114
f 1 114 109
f 1 109 102
f 1 102 97
f 1 97 96
f 1 96 95
f 1 95 90
f 1 90 86
f 1 86 81
f 1 81 77
f 1 77 71
f 1 71 66
f 1 66 61
f 1 61 60
f 1 60 52
f 1 52 48
f 1 48 43
f 1 43 37
f 1 37 31
f 1 31 27
f 1 27 26
f 1 26 25
f 1 25 23
f 1 23 18
f 1 18 12
f 1 12 5
f 1 5 2
f 2 5 6
f 2 6 3
f 3 7 8
f 3 6 7
f 4 9 10
f 5 11 6
f 5 12 11
f 6 11 7
f 7 11 13
f 7 13 20
f 7 20 24
f 7 24 30
f 7 30 36
f 7 36 40
f 7 40 39
f 7 39 44
f 7 44 49
f 7 49 54
f 7 54 53
f 7 53 62
f 7 62 68
f 7 68 74
f 7 74 73
f 7 73 72
f 7 72 78
f 7 78 82
f 7 82 87
f 7 87 91
f 7 91 98
f 7 98 103
f 7 103 110
f 7 110 116
f 7 116 119
f 7 119 113
f 7 113 105
f 7 105 101
f 7 101 100
f 7 100 94
f 7 94 93
f 7 93 89
f 7 89 85
f 7 85 80
f 7 80 76
f 7 76 70
f 7 70 65
f 7 65 63
f 7 63 59
f 7 59 58
f 7 58 55
f 7 55 50
f 7 50 45
f 7 45 41
f 7 41 33
f 7 33 28
f 7 28 21
f 7 21 16
f 7 16 15
f 7 15 14
f 7 14 8
f 9 14 15
f 9 15 10
f 10 16 17
f 10 15 16
f 11 12 13
f 12 18 13
f 13 18 19
f 13 19 20
f 16 21 22
f 16 22 17
f 18 20 19
f 18 23 20
f 20 23 25
f 20 25 26
f 20 26 27
f 20 27 24
f 21 28 22
f 22 28 29
f 24 27 30
f 27 31 30
f 28 32 29
f 28 33 34
f 28 34 35
f 28 35 32
f 30 31 36
f 31 37 38
f 31 38 39
f 31 39 40
f 31 40 36
f 33 41 42
f 33 42 34
f 37 43 44
f 37 44 38
f 38 44 39
f 41 45 46
f 41 46 47
f 41 47 42
f 43 48 54
f 43 54 49
f 43 49 44
f 45 50 46
f 46 50 51
f 48 52 53
f 48 53 54
f 50 55 51
f 51 56 57
f 51 55 58
f 51 58 59
f 51 59 56
f 52 60 53
f 53 60 61
f 53 61 62
f 56 59 63
f 56 63 57
f 57 63 65
f 57 65 64
f 61 66 67
f 61 67 62
f 62 67 68
f 64 65 70
f 64 70 69
f 66 71 72
f 66 72 73
f 66 73 74
f 66 74 68
f 66 68 67
f 69 70 76
f 69 76 75
f 71 77 78
f 71 78 72
f 75 76 79
f 76 80 79
f 77 81 82
f 77 82 78
f 79 80 83
f 80 84 83
f 80 85 84
f 81 86 87
f 81 87 82
f 83 84 88
f 84 85 88
f 85 89 88
f 86 90 91
f 86 91 87
f 88 89 93
f 88 93 94
f 88 94 92
f 90 95 91
f 91 95 96
f 91 96 97
f 91 97 98
f 92 94 100
f 92 100 101
f 92 101 99
f 97 102 103
f 97 103 98
f 99 101 104
f 101 105 106
f 101 106 107
f 101 107 108
f 101 108 104
f 102 109 103
f 103 109 110
f 105 111 112
f 105 112 107
f 105 107 106
f 105 113 111
f 109 114 115
f 109 115 110
f 110 115 116
f 111 113 117
f 111 117 118
f 111 118 112
f 113 119 120
f 113 120 117
f 114 121 120
f 114 120 119
f 114 119 116
f 114 116 115
f 117 122 118
f 117 120 122
f 120 121 122

