# https://github.com/mikedh/trimesh
v -0.01672584 -0.01166041 0.00306661
v -0.01714854 -0.01482377 0.00306245
v -0.01672584 -0.01166041 -0.00361199
v -0.01672650 -0.01166041 0.00361926
v -0.01714920 -0.01482377 0.00361926
v -0.01714854 -0.01482377 -0.00306245
v -0.01714920 -0.01482377 -0.00361926
v -0.01672650 -0.01166041 -0.00361926
v -0.01689678 -0.01166041 0.00418542
v -0.01720751 -0.01482377 0.00401817
v -0.01719691 -0.01482377 -0.00396519
v -0.01720751 -0.01482377 -0.00401817
v -0.01682920 -0.01166041 -0.00396519
v -0.01697959 -0.01166041 0.00431216
v -0.01737248 -0.01482377 0.00429658
v -0.01735326 -0.01482377 -0.00426437
v -0.01689678 -0.01166041 -0.00418542
v -0.01716510 -0.01166041 0.00454901
v -0.01765074 -0.01482377 0.00462588
v -0.01737248 -0.01482377 -0.00429658
v -0.01716510 -0.01166041 -0.00454901
v -0.01730225 -0.01166041 0.00468198
v -0.01793033 -0.01482377 0.00490429
v -0.01761828 -0.01482377 -0.00459056
v -0.01765074 -0.01482377 -0.00462588
v -0.01793033 -0.01482377 -0.00490429
v -0.01748047 -0.01166041 -0.00484819
v -0.01748047 -0.01166041 0.00484819
v -0.01761099 -0.01166041 0.00496869
v -0.01773886 -0.01166041 0.00507881
v -0.01820926 -0.01482377 0.00514322
v -0.01817680 -0.01482377 -0.00511725
v -0.01773886 -0.01166041 -0.00507881
v -0.01783890 -0.01166041 0.00512660
v -0.01808007 -0.01166041 0.00521490
v -0.01865780 -0.01482377 0.00528969
v -0.01820926 -0.01482377 -0.00514322
v -0.01808007 -0.01166041 -0.00521490
v -0.01834376 -0.01166041 0.00527723
v -0.01865780 -0.01253176 0.00530631
v -0.01921433 -0.01482377 0.00530631
v -0.01860281 -0.01482377 -0.00527307
v -0.01865780 -0.01482377 -0.00528969
v -0.01865780 -0.01253176 -0.00530631
v -0.01865780 -0.01166041 -0.00530631
v -0.01865780 -0.01166041 0.00530631
v -0.02144111 -0.01482377 0.00530631
v -0.01915006 -0.01482377 -0.00530527
v -0.01921433 -0.01482377 -0.00530631
v -0.01921499 -0.01166041 -0.00530631
v -0.01945748 -0.01166041 0.00530631
v -0.02144111 -0.01475905 0.00530631
v -0.02150538 -0.01482377 0.00530527
v -0.02144111 -0.01482377 -0.00530631
v -0.01977086 -0.01197470 -0.00530631
v -0.01977086 -0.01166041 -0.00530424
v -0.01977086 -0.01197470 0.00530631
v -0.01977086 -0.01166041 0.00530424
v -0.02032739 -0.01253176 0.00530527
v -0.02144111 -0.01420200 0.00530008
v -0.02199830 -0.01482377 0.00528658
v -0.02144111 -0.01475905 -0.00530631
v -0.02199830 -0.01482377 -0.00528658
v -0.02088458 -0.01364494 -0.00530527
v -0.02032739 -0.01253176 -0.00530424
v -0.02032739 -0.01197470 -0.00528969
v -0.02032739 -0.01166041 -0.00526372
v -0.02001401 -0.01166041 0.00529696
v -0.02088458 -0.01308850 0.00529696
v -0.02199830 -0.01475905 0.00528450
v -0.02206257 -0.01482377 0.00528034
v -0.02144111 -0.01420200 -0.00530008
v -0.02258332 -0.01482377 -0.00515361
v -0.02199830 -0.01475905 -0.00528450
v -0.02088458 -0.01308850 -0.00529593
v -0.02144111 -0.01364494 -0.00527411
v -0.02088458 -0.01253176 -0.00525957
v -0.02144111 -0.01308850 -0.00520451
v -0.02093162 -0.01193228 -0.00514737
v -0.02085079 -0.01166041 -0.00512244
v -0.02032739 -0.01197470 0.00529073
v -0.02032739 -0.01166041 0.00526372
v -0.02144111 -0.01364494 0.00527411
v -0.02199830 -0.01420200 0.00522944
v -0.02258332 -0.01482377 0.00515361
v -0.02274167 -0.01482377 -0.00509647
v -0.02258796 -0.01473893 -0.00513699
v -0.02199830 -0.01420200 -0.00522840
v -0.02201222 -0.01365547 -0.00512140
v -0.02143714 -0.01257077 -0.00510063
v -0.02124964 -0.01208958 -0.00506323
v -0.02114827 -0.01171831 -0.00500194
v -0.02113105 -0.01166041 -0.00498324
v -0.02088458 -0.01253176 0.00526060
v -0.02061228 -0.01166041 0.00519828
v -0.02144111 -0.01308850 0.00520555
v -0.02258796 -0.01473893 0.00513802
v -0.02265090 -0.01482377 0.00513283
v -0.02301662 -0.01482377 -0.00488871
v -0.02279600 -0.01453982 -0.00498324
v -0.02231831 -0.01384807 -0.00503934
v -0.02241835 -0.01420200 -0.00508712
v -0.02181809 -0.01308850 -0.00506738
v -0.02173528 -0.01278226 -0.00502271
v -0.02236866 -0.01320648 -0.00458121
v -0.02178298 -0.01214284 -0.00454589
v -0.02117610 -0.01166041 -0.00493026
v -0.02093162 -0.01193259 0.00514841
v -0.02085013 -0.01166041 0.00512244
v -0.02201222 -0.01365485 0.00512140
v -0.02241835 -0.01420200 0.00508712
v -0.02274101 -0.01482377 0.00509647
v -0.02313654 -0.01482377 -0.00477236
v -0.02322334 -0.01482377 -0.00467159
v -0.02293513 -0.01420200 -0.00458952
v -0.02284768 -0.01389854 -0.00447733
v -0.02137420 -0.01166041 -0.00469652
v -0.02226199 -0.01283521 -0.00437449
v -0.02161668 -0.01166041 -0.00417607
v -0.02124964 -0.01209020 0.00506323
v -0.02143714 -0.01257077 0.00510063
v -0.02201023 -0.01364649 0.00512036
v -0.02107672 -0.01166041 0.00502064
v -0.02181809 -0.01308850 0.00506738
v -0.02231765 -0.01384683 0.00503934
v -0.02287550 -0.01482377 0.00503726
v -0.02344462 -0.01482377 -0.00417607
v -0.02287948 -0.01384435 -0.00417607
v -0.02229446 -0.01277916 -0.00400363
v -0.02183996 -0.01204530 -0.00417607
v -0.02163192 -0.01166041 -0.00400674
v -0.02114827 -0.01171893 0.00500194
v -0.02173462 -0.01278226 0.00502271
v -0.02113038 -0.01166041 0.00498324
v -0.02279534 -0.01454013 0.00498324
v -0.02313588 -0.01482377 0.00477132
v -0.02349034 -0.01482377 -0.00366082
v -0.02349365 -0.01482377 -0.00361926
v -0.02334325 -0.01456274 -0.00361926
v -0.02186447 -0.01200319 -0.00361926
v -0.02170348 -0.01172481 -0.00361926
v -0.02166571 -0.01166041 -0.00361926
v -0.02220767 -0.01347525 0.00495207
v -0.02137420 -0.01166041 0.00469548
v -0.02178232 -0.01214315 0.00454485
v -0.02236800 -0.01320586 0.00458121
v -0.02293513 -0.01420200 0.00458952
v -0.02322135 -0.01482377 0.00467159
v -0.02316636 -0.01482377 0.00473600
v -0.02349365 -0.01482377 0.00361926
v -0.02334325 -0.01456274 0.00361926
v -0.02186447 -0.01200319 0.00361926
v -0.02170348 -0.01172481 0.00361926
v -0.02166571 -0.01166041 0.00361926
v -0.02156169 -0.01166041 0.00431320
v -0.02284768 -0.01389823 0.00447733
v -0.02161668 -0.01166041 0.00417607
v -0.02226266 -0.01283459 0.00437657
v -0.02338764 -0.01482377 0.00438488
v -0.02345323 -0.01482377 0.00407219
v -0.02229446 -0.01277916 0.00400467
v -0.02165577 -0.01166041 0.00373561
v -0.02344396 -0.01482377 0.00417607
v -0.02287948 -0.01384404 0.00417607
f 1 2 6
f 1 6 3
f 1 3 8
f 1 8 13
f 1 13 17
f 1 17 21
f 1 21 27
f 1 27 33
f 1 33 38
f 1 38 45
f 1 45 50
f 1 50 56
f 1 56 67
f 1 67 80
f 1 80 93
f 1 93 107
f 1 107 117
f 1 117 119
f 1 119 131
f 1 131 142
f 1 142 154
f 1 154 162
f 1 162 157
f 1 157 155
f 1 155 144
f 1 144 134
f 1 134 123
f 1 123 109
f 1 109 95
f 1 95 82
f 1 82 68
f 1 68 58
f 1 58 51
f 1 51 46
f 1 46 39
f 1 39 35
f 1 35 34
f 1 34 30
f 1 30 29
f 1 29 28
f 1 28 22
f 1 22 18
f 1 18 14
f 1 14 9
f 1 9 4
f 1 4 5
f 1 5 2
f 2 5 10
f 2 10 15
f 2 15 19
f 2 19 23
f 2 23 31
f 2 31 36
f 2 36 41
f 2 41 47
f 2 47 53
f 2 53 61
f 2 61 71
f 2 71 85
f 2 85 98
f 2 98 112
f 2 112 126
f 2 126 136
f 2 136 149
f 2 149 148
f 2 148 159
f 2 159 163
f 2 163 160
f 2 160 150
f 2 150 138
f 2 138 137
f 2 137 127
f 2 127 114
f 2 114 113
f 2 113 99
f 2 99 86
f 2 86 73
f 2 73 63
f 2 63 54
f 2 54 49
f 2 49 48
f 2 48 43
f 2 43 42
f 2 42 37
f 2 37 32
f 2 32 26
f 2 26 25
f 2 25 24
f 2 24 20
f 2 20 16
f 2 16 12
f 2 12 11
f 2 11 7
f 2 7 6
f 3 7 8
f 3 6 7
f 4 9 10
f 4 10 5
f 7 11 8
f 8 11 12
f 8 12 13
f 9 14 15
f 9 15 10
f 12 16 17
f 12 17 13
f 14 18 15
f 15 18 19
f 16 20 17
f 17 20 21
f 18 22 23
f 18 23 19
f 20 24 21
f 21 24 25
f 21 25 26
f 21 26 27
f 22 28 23
f 23 28 29
f 23 29 30
f 23 30 31
f 26 32 33
f 26 33 27
f 30 34 31
f 31 34 35
f 31 35 36
f 32 37 33
f 33 37 38
f 35 39 36
f 36 39 40
f 36 40 41
f 37 42 38
f 38 42 43
f 38 43 44
f 38 44 45
f 39 46 40
f 40 46 51
f 40 51 57
f 40 57 52
f 40 52 47
f 40 47 41
f 43 48 44
f 44 48 49
f 44 49 54
f 44 54 62
f 44 62 55
f 44 55 50
f 44 50 45
f 47 52 53
f 50 55 56
f 51 58 57
f 52 57 59
f 52 59 60
f 52 60 53
f 53 60 61
f 54 63 62
f 55 62 64
f 55 64 65
f 55 65 56
f 56 65 66
f 56 66 67
f 57 58 59
f 58 68 59
f 59 68 69
f 59 69 60
f 60 69 70
f 60 70 61
f 61 70 71
f 62 63 72
f 62 72 64
f 63 73 74
f 63 74 72
f 64 72 65
f 65 72 75
f 65 75 66
f 66 75 74
f 66 74 76
f 66 76 77
f 66 77 67
f 67 77 78
f 67 78 79
f 67 79 80
f 68 81 69
f 68 82 81
f 69 81 70
f 70 81 83
f 70 83 71
f 71 83 84
f 71 84 85
f 72 74 75
f 73 86 87
f 73 87 88
f 73 88 74
f 74 88 76
f 76 88 77
f 77 88 78
f 78 88 87
f 78 87 89
f 78 89 80
f 78 80 79
f 80 89 90
f 80 90 91
f 80 91 92
f 80 92 93
f 81 82 94
f 81 94 83
f 82 95 94
f 83 94 84
f 84 94 96
f 84 96 97
f 84 97 85
f 85 97 98
f 86 99 100
f 86 100 101
f 86 101 102
f 86 102 87
f 87 102 89
f 89 102 90
f 90 102 91
f 91 102 103
f 91 103 101
f 91 101 104
f 91 104 92
f 92 104 100
f 92 100 93
f 93 100 105
f 93 105 106
f 93 106 107
f 94 95 96
f 95 108 96
f 95 109 108
f 96 108 109
f 96 109 110
f 96 110 97
f 97 110 98
f 98 110 111
f 98 111 112
f 99 113 100
f 100 104 101
f 100 113 114
f 100 114 115
f 100 115 105
f 101 103 102
f 105 115 116
f 105 116 106
f 106 117 107
f 106 116 118
f 106 118 119
f 106 119 117
f 109 120 121
f 109 121 122
f 109 122 110
f 109 123 120
f 110 122 111
f 111 122 121
f 111 121 120
f 111 120 124
f 111 124 125
f 111 125 126
f 111 126 112
f 114 127 116
f 114 116 115
f 116 127 118
f 118 127 128
f 118 128 129
f 118 129 130
f 118 130 119
f 119 129 131
f 119 130 129
f 120 125 124
f 120 123 132
f 120 132 133
f 120 133 125
f 123 134 132
f 125 133 135
f 125 135 126
f 126 135 136
f 127 137 129
f 127 129 128
f 129 137 138
f 129 138 139
f 129 139 140
f 129 140 141
f 129 141 142
f 129 142 131
f 132 134 143
f 132 143 135
f 132 135 133
f 134 144 145
f 134 145 146
f 134 146 143
f 135 143 146
f 135 146 147
f 135 147 148
f 135 148 149
f 135 149 136
f 138 150 151
f 138 151 139
f 139 151 152
f 139 152 140
f 140 152 153
f 140 153 141
f 141 153 154
f 141 154 142
f 144 155 145
f 145 156 146
f 145 155 157
f 145 157 158
f 145 158 156
f 146 156 147
f 147 156 148
f 148 156 159
f 150 160 161
f 150 161 151
f 151 161 152
f 152 161 153
f 153 161 154
f 154 161 162
f 156 158 163
f 156 163 159
f 157 162 161
f 157 161 158
f 158 161 164
f 158 164 163
f 160 163 161
f 161 163 164

