# https://github.com/mikedh/trimesh
v -0.01662240 -0.01695263 0.00306245
v -0.01714899 -0.01482377 0.00361926
v -0.01662478 -0.01695263 0.00361926
v -0.01662240 -0.01695263 -0.00306245
v -0.01720688 -0.01482377 0.00401817
v -0.01714899 -0.01482377 -0.00361926
v -0.01680322 -0.01695263 0.00418334
v -0.01662399 -0.01695263 -0.00350084
v -0.01737184 -0.01482377 0.00429658
v -0.01662478 -0.01695263 -0.00361926
v -0.01719657 -0.01482377 -0.00396623
v -0.01681432 -0.01695263 0.00419997
v -0.01765020 -0.01482377 0.00462588
v -0.01712203 -0.01695263 0.00458849
v -0.01666919 -0.01695263 -0.00386131
v -0.01720688 -0.01482377 -0.00401817
v -0.01793015 -0.01482377 0.00490429
v -0.01742259 -0.01695263 0.00486897
v -0.01680322 -0.01695263 -0.00418334
v -0.01737184 -0.01482377 -0.00429658
v -0.01820851 -0.01482377 0.00514322
v -0.01769858 -0.01695263 0.00510686
v -0.01681115 -0.01695263 -0.00419581
v -0.01681432 -0.01695263 -0.00419997
v -0.01712203 -0.01695263 -0.00458849
v -0.01761848 -0.01482377 -0.00459056
v -0.01865738 -0.01482377 0.00528969
v -0.01809748 -0.01695263 0.00525229
v -0.01714106 -0.01695263 -0.00460718
v -0.01793015 -0.01482377 -0.00490429
v -0.01789763 -0.01482377 -0.00487208
v -0.01765020 -0.01482377 -0.00462588
v -0.01921490 -0.01482377 0.00530631
v -0.01865738 -0.01531618 0.00529904
v -0.01865738 -0.01587320 0.00530631
v -0.01865738 -0.01695263 0.00530631
v -0.01742259 -0.01695263 -0.00486897
v -0.01744083 -0.01695263 -0.00488559
v -0.01817600 -0.01482377 -0.00511725
v -0.02144179 -0.01482377 0.00530631
v -0.02252114 -0.01695263 0.00530631
v -0.01769858 -0.01695263 -0.00510686
v -0.01820851 -0.01482377 -0.00514322
v -0.02150603 -0.01482377 0.00530527
v -0.02199852 -0.01531618 0.00530320
v -0.02255524 -0.01642979 0.00530527
v -0.02199852 -0.01587320 0.00530631
v -0.02307786 -0.01695263 0.00529800
v -0.01771206 -0.01695263 -0.00511413
v -0.01809748 -0.01695263 -0.00525229
v -0.01860266 -0.01482377 -0.00527307
v -0.02199852 -0.01482377 0.00528658
v -0.02255524 -0.01587320 0.00529281
v -0.02311196 -0.01695263 0.00529592
v -0.01813476 -0.01695263 -0.00526061
v -0.01865738 -0.01482377 -0.00528969
v -0.02206275 -0.01482377 0.00528034
v -0.02311196 -0.01642979 0.00526476
v -0.02363459 -0.01695263 0.00521594
v -0.01865738 -0.01695263 -0.00530631
v -0.01865738 -0.01587320 -0.00530631
v -0.01865738 -0.01531618 -0.00529904
v -0.01914987 -0.01482377 -0.00530527
v -0.02255524 -0.01531618 0.00524918
v -0.02258300 -0.01482377 0.00515361
v -0.02366948 -0.01695263 0.00520555
v -0.02199852 -0.01695263 -0.00530631
v -0.01921490 -0.01482377 -0.00530631
v -0.02265120 -0.01482377 0.00513283
v -0.02301918 -0.01531618 0.00510478
v -0.02367028 -0.01646064 0.00510686
v -0.02403349 -0.01695263 0.00507569
v -0.02199852 -0.01587320 -0.00530631
v -0.02255524 -0.01695263 -0.00530527
v -0.02144179 -0.01482377 -0.00530631
v -0.02274082 -0.01482377 0.00509647
v -0.02290022 -0.01491171 0.00505388
v -0.02348629 -0.01597281 0.00506738
v -0.02404935 -0.01695263 0.00506842
v -0.02255524 -0.01642979 -0.00530527
v -0.02311196 -0.01695263 -0.00529489
v -0.02199852 -0.01531618 -0.00530320
v -0.02199852 -0.01482377 -0.00528658
v -0.02287564 -0.01482377 0.00503726
v -0.02338636 -0.01560167 0.00500921
v -0.02397005 -0.01666694 0.00502791
v -0.02436975 -0.01695263 0.00476612
v -0.02366948 -0.01695263 -0.00520555
v -0.02311196 -0.01642979 -0.00526476
v -0.02255524 -0.01587320 -0.00529177
v -0.02255524 -0.01531618 -0.00524814
v -0.02258379 -0.01482377 -0.00515361
v -0.02313655 -0.01482377 0.00477132
v -0.02316669 -0.01482377 0.00473600
v -0.02401843 -0.01602699 0.00455628
v -0.02385744 -0.01629560 0.00492714
v -0.02439116 -0.01695263 0.00474223
v -0.02404935 -0.01695263 -0.00506842
v -0.02367028 -0.01646064 -0.00510686
v -0.02301997 -0.01531618 -0.00510374
v -0.02274161 -0.01482377 -0.00509647
v -0.02322141 -0.01482377 0.00467159
v -0.02343315 -0.01496339 0.00451785
v -0.02449902 -0.01671841 0.00442331
v -0.02456484 -0.01695263 0.00452927
v -0.02436975 -0.01695263 -0.00476613
v -0.02397084 -0.01666673 -0.00502791
v -0.02348549 -0.01597239 -0.00506738
v -0.02290101 -0.01491150 -0.00505388
v -0.02301680 -0.01482377 -0.00488871
v -0.02338795 -0.01482377 0.00438488
v -0.02344425 -0.01482377 0.00417607
v -0.02347915 -0.01488399 0.00417607
v -0.02453074 -0.01666319 0.00405245
v -0.02466001 -0.01693701 0.00421347
v -0.02466873 -0.01695263 0.00421243
v -0.02438958 -0.01695263 -0.00474223
v -0.02401922 -0.01602678 -0.00455628
v -0.02411201 -0.01646064 -0.00473912
v -0.02385744 -0.01629560 -0.00492818
v -0.02338636 -0.01560126 -0.00500921
v -0.02313734 -0.01482377 -0.00477236
v -0.02345377 -0.01482377 0.00407219
v -0.02349422 -0.01482377 0.00361926
v -0.02472424 -0.01695263 0.00361926
v -0.02472107 -0.01695263 0.00366497
v -0.02465446 -0.01695263 -0.00424775
v -0.02449822 -0.01671945 -0.00442020
v -0.02343395 -0.01496276 -0.00451888
v -0.02353546 -0.01531618 -0.00464043
v -0.02329833 -0.01531618 -0.00491883
v -0.02322299 -0.01482377 -0.00467159
v -0.02349422 -0.01482377 -0.00361926
v -0.02472424 -0.01695263 -0.00361926
v -0.02466873 -0.01695263 -0.00421035
v -0.02347994 -0.01488337 -0.00417607
v -0.02344505 -0.01482377 -0.00417607
v -0.02453074 -0.01666319 -0.00404934
f 1 2 3
f 1 3 7
f 1 7 12
f 1 12 14
f 1 14 18
f 1 18 22
f 1 22 28
f 1 28 36
f 1 36 41
f 1 41 48
f 1 48 54
f 1 54 59
f 1 59 66
f 1 66 72
f 1 72 79
f 1 79 87
f 1 87 97
f 1 97 105
f 1 105 116
f 1 116 126
f 1 126 125
f 1 125 134
f 1 134 135
f 1 135 127
f 1 127 117
f 1 117 106
f 1 106 98
f 1 98 88
f 1 88 81
f 1 81 74
f 1 74 67
f 1 67 60
f 1 60 55
f 1 55 50
f 1 50 49
f 1 49 42
f 1 42 38
f 1 38 37
f 1 37 29
f 1 29 25
f 1 25 24
f 1 24 23
f 1 23 19
f 1 19 15
f 1 15 10
f 1 10 8
f 1 8 4
f 1 4 6
f 1 6 2
f 2 5 3
f 2 6 11
f 2 11 16
f 2 16 20
f 2 20 26
f 2 26 32
f 2 32 31
f 2 31 30
f 2 30 39
f 2 39 43
f 2 43 51
f 2 51 56
f 2 56 63
f 2 63 68
f 2 68 75
f 2 75 83
f 2 83 92
f 2 92 101
f 2 101 110
f 2 110 122
f 2 122 132
f 2 132 137
f 2 137 133
f 2 133 124
f 2 124 123
f 2 123 112
f 2 112 111
f 2 111 102
f 2 102 94
f 2 94 93
f 2 93 84
f 2 84 76
f 2 76 69
f 2 69 65
f 2 65 57
f 2 57 52
f 2 52 44
f 2 44 40
f 2 40 33
f 2 33 27
f 2 27 21
f 2 21 17
f 2 17 13
f 2 13 9
f 2 9 5
f 3 5 7
f 4 8 6
f 5 9 7
f 6 8 10
f 6 10 11
f 7 9 12
f 9 13 14
f 9 14 12
f 10 15 11
f 11 15 16
f 13 17 14
f 14 17 18
f 15 19 16
f 16 19 20
f 17 21 22
f 17 22 18
f 19 23 20
f 20 23 24
f 20 24 25
f 20 25 26
f 21 27 28
f 21 28 22
f 25 29 30
f 25 30 31
f 25 31 32
f 25 32 26
f 27 33 34
f 27 34 28
f 28 34 35
f 28 35 36
f 29 37 30
f 30 37 38
f 30 38 39
f 33 35 34
f 33 40 47
f 33 47 41
f 33 41 36
f 33 36 35
f 38 42 39
f 39 42 43
f 40 44 45
f 40 45 46
f 40 46 47
f 41 47 46
f 41 46 48
f 42 49 43
f 43 50 51
f 43 49 50
f 44 52 45
f 45 48 46
f 45 52 53
f 45 53 48
f 48 53 54
f 50 55 56
f 50 56 51
f 52 57 53
f 53 57 58
f 53 58 54
f 54 58 59
f 55 60 61
f 55 61 62
f 55 62 56
f 56 62 63
f 57 64 58
f 57 65 64
f 58 64 59
f 59 64 66
f 60 67 73
f 60 73 75
f 60 75 68
f 60 68 61
f 61 68 63
f 61 63 62
f 64 65 66
f 65 69 66
f 66 69 70
f 66 70 71
f 66 71 72
f 67 74 80
f 67 80 73
f 69 76 77
f 69 77 70
f 70 72 71
f 70 77 78
f 70 78 72
f 72 78 79
f 73 80 75
f 74 81 80
f 75 80 82
f 75 82 83
f 76 84 77
f 77 84 85
f 77 85 86
f 77 86 78
f 78 86 79
f 79 86 87
f 80 81 82
f 81 88 89
f 81 89 90
f 81 90 82
f 82 90 83
f 83 90 89
f 83 89 91
f 83 91 92
f 84 93 85
f 85 93 94
f 85 94 95
f 85 95 96
f 85 96 86
f 86 96 87
f 87 96 97
f 88 98 99
f 88 99 100
f 88 100 92
f 88 92 91
f 88 91 89
f 92 100 101
f 94 102 103
f 94 103 95
f 95 103 104
f 95 104 105
f 95 105 97
f 95 97 96
f 98 106 107
f 98 107 108
f 98 108 100
f 98 100 99
f 100 108 109
f 100 109 101
f 101 109 110
f 102 111 103
f 103 111 104
f 104 111 112
f 104 112 113
f 104 113 114
f 104 114 115
f 104 115 116
f 104 116 105
f 106 117 118
f 106 118 119
f 106 119 120
f 106 120 107
f 107 120 121
f 107 121 109
f 107 109 108
f 109 121 110
f 110 121 122
f 112 123 114
f 112 114 113
f 114 123 124
f 114 124 125
f 114 125 126
f 114 126 116
f 114 116 115
f 117 127 128
f 117 128 118
f 118 128 129
f 118 129 130
f 118 130 131
f 118 131 121
f 118 121 120
f 118 120 119
f 121 131 122
f 122 131 129
f 122 129 132
f 124 133 134
f 124 134 125
f 127 135 128
f 128 136 137
f 128 137 129
f 128 135 138
f 128 138 136
f 129 137 132
f 129 131 130
f 133 137 136
f 133 136 138
f 133 138 134
f 134 138 135

