# https://github.com/mikedh/trimesh
v 0.00000951 0.02172887 0.00530631
v 0.00000951 0.02199798 0.00530527
v -0.00027853 0.02199798 0.00530527
v -0.00027853 0.02144127 0.00530631
v 0.00000951 0.01475853 0.00530631
v 0.00000951 0.02228557 0.00530216
v -0.00083536 0.02144127 0.00530112
v -0.00139219 0.02032671 0.00530320
v -0.00191992 0.01924218 0.00530527
v -0.00083536 0.02088457 0.00530631
v -0.00027853 0.02255468 0.00529696
v -0.00191992 0.01475853 0.00530631
v -0.00191992 0.01423070 0.00527203
v -0.00191992 0.01420183 0.00526788
v 0.00000951 0.01420183 0.00518062
v 0.00000951 0.02255468 0.00529800
v -0.00191992 0.01977001 0.00529385
v -0.00139219 0.01977001 0.00530631
v -0.00191992 0.01868548 0.00530631
v -0.00083536 0.02199798 0.00527619
v -0.00139219 0.02088457 0.00528554
v -0.00191992 0.01979889 0.00529281
v 0.00000951 0.02284227 0.00528034
v -0.00027853 0.02311138 0.00526060
v -0.00191992 0.01380452 0.00512867
v -0.00191992 0.01378604 0.00512036
v 0.00000951 0.01405630 0.00510998
v -0.00191992 0.02035559 0.00525333
v 0.00000951 0.02311138 0.00526268
v 0.00000951 0.02340706 0.00519100
v -0.00029081 0.02369696 0.00511829
v -0.00064837 0.02352949 0.00506531
v -0.00083460 0.02307558 0.00510270
v -0.00083536 0.02255468 0.00520762
v -0.00139219 0.02144127 0.00523152
v 0.00000951 0.01390038 0.00503414
v -0.00191992 0.01352154 0.00488871
v -0.00191992 0.02096657 0.00514945
v 0.00000951 0.02370042 0.00511932
v -0.00011326 0.02398455 0.00504141
v -0.00048460 0.02390024 0.00498532
v -0.00101952 0.02323612 0.00492299
v -0.00113096 0.02286537 0.00502375
v -0.00121766 0.02255468 0.00506946
v -0.00181755 0.02144127 0.00508920
v -0.00140919 0.02199220 0.00512348
v -0.00191992 0.01323511 0.00461134
v -0.00191992 0.01322009 0.00459680
v 0.00000951 0.01362203 0.00475677
v -0.00191992 0.02111441 0.00512036
v 0.00000951 0.02398455 0.00504141
v 0.00000951 0.02403421 0.00496246
v 0.00000951 0.02415087 0.00477547
v -0.00029081 0.02414856 0.00477340
v -0.00085802 0.02370389 0.00476820
v -0.00069653 0.02407117 0.00461342
v -0.00118158 0.02350754 0.00455213
v -0.00160619 0.02217353 0.00495831
v -0.00171442 0.02180163 0.00504141
v -0.00191992 0.02135119 0.00506115
v -0.00191992 0.01295676 0.00426957
v 0.00000951 0.01334368 0.00447837
v 0.00000951 0.02430910 0.00446590
v -0.00027173 0.02444423 0.00419269
v -0.00079475 0.02415895 0.00417607
v -0.00107297 0.02388638 0.00417607
v -0.00166002 0.02281570 0.00439838
v -0.00176693 0.02244380 0.00458641
v -0.00191992 0.02196679 0.00472561
v -0.00191992 0.02160759 0.00495207
v -0.00191992 0.01294174 0.00424671
v 0.00000951 0.01325243 0.00433190
v 0.00000951 0.02444770 0.00419269
v -0.00008153 0.02452162 0.00401817
v -0.00040074 0.02446387 0.00361926
v -0.00110149 0.02392911 0.00361926
v -0.00082327 0.02418552 0.00361926
v -0.00124013 0.02360802 0.00417607
v -0.00169270 0.02287114 0.00402752
v -0.00191992 0.02242763 0.00419062
v -0.00191992 0.02228903 0.00440773
v -0.00191992 0.02198181 0.00471522
v -0.00191992 0.01278120 0.00398389
v 0.00000951 0.01315657 0.00417607
v 0.00000951 0.02452162 0.00401817
v 0.00000951 0.02452624 0.00384988
v -0.00012233 0.02453086 0.00361926
v -0.00040206 0.02446387 -0.00027841
v -0.00110149 0.02392911 -0.00250564
v -0.00126450 0.02365076 0.00361926
v -0.00082327 0.02418552 -0.00306245
v -0.00170384 0.02289078 0.00361926
v -0.00189801 0.02255468 0.00361926
v -0.00191992 0.02251656 0.00361926
v -0.00191992 0.01277311 0.00396831
v 0.00000951 0.01299141 0.00361926
v 0.00000951 0.02453086 0.00361926
v -0.00012365 0.02453086 -0.00027841
v -0.00040206 0.02446387 -0.00194883
v -0.00110149 0.02392796 -0.00361926
v -0.00126450 0.02364960 -0.00361926
v -0.00126450 0.02365076 -0.00194883
v -0.00082308 0.02418552 -0.00361926
v -0.00040187 0.02446387 -0.00361926
v -0.00170384 0.02289078 -0.00361926
v -0.00189801 0.02255468 -0.00361926
v -0.00191992 0.02251656 -0.00361926
v -0.00191992 0.01273500 0.00364835
v 0.00000951 0.01299141 -0.00361926
v -0.00191992 0.01273269 0.00306245
v 0.00000951 0.02453086 -0.00361926
v -0.00012365 0.02453086 -0.00139202
v -0.00012346 0.02453086 -0.00361926
v -0.00079475 0.02415895 -0.00417607
v -0.00107297 0.02388753 -0.00417607
v -0.00124013 0.02360918 -0.00417607
v -0.00169270 0.02287114 -0.00403064
v -0.00154291 0.02316913 -0.00361926
v -0.00008228 0.02452277 -0.00402440
v -0.00027211 0.02444539 -0.00419685
v -0.00191992 0.02250848 -0.00367536
v 0.00000951 0.01307110 -0.00388832
v -0.00191992 0.01273269 -0.00306245
v -0.00191992 0.01273500 -0.00361926
v -0.00191992 0.01277311 -0.00396831
v 0.00000951 0.02452624 -0.00387066
v -0.00069653 0.02407117 -0.00461342
v -0.00118158 0.02350870 -0.00455005
v -0.00166078 0.02281686 -0.00440150
v -0.00181925 0.02260088 -0.00419997
v -0.00191992 0.02242763 -0.00419269
v 0.00000951 0.02452277 -0.00402440
v 0.00000951 0.02450429 -0.00406804
v 0.00000951 0.02444885 -0.00419685
v -0.00028854 0.02414856 -0.00477236
v 0.00000951 0.01315657 -0.00417607
v -0.00191992 0.01294174 -0.00424671
v -0.00048083 0.02390024 -0.00498532
v -0.00085689 0.02370389 -0.00476716
v -0.00101725 0.02323727 -0.00492195
v -0.00176674 0.02244496 -0.00458329
v -0.00191992 0.02197834 -0.00471418
v 0.00000951 0.02414971 -0.00477547
v -0.00010948 0.02398224 -0.00503934
v 0.00000951 0.01324666 -0.00432255
v -0.00191992 0.01322009 -0.00459680
v 0.00000951 0.01334368 -0.00447837
v -0.00028854 0.02369580 -0.00511725
v -0.00064610 0.02352949 -0.00506531
v -0.00113228 0.02286652 -0.00502479
v -0.00160355 0.02216891 -0.00495519
v -0.00191992 0.02196448 -0.00472353
v 0.00000951 0.02398224 -0.00503934
v 0.00000951 0.02369927 -0.00511829
v 0.00000951 0.01362203 -0.00475678
v 0.00000951 0.01347765 -0.00461238
v -0.00191992 0.01350768 -0.00487520
v 0.00000951 0.01390038 -0.00503414
v 0.00000951 0.02338858 -0.00519516
v 0.00000951 0.02311138 -0.00526372
v -0.00027853 0.02311138 -0.00526164
v -0.00083328 0.02307558 -0.00510374
v -0.00121652 0.02255468 -0.00507050
v -0.00171348 0.02179816 -0.00504037
v -0.00191992 0.02144127 -0.00500921
v -0.00191992 0.01378604 -0.00512036
v 0.00000951 0.01420183 -0.00518062
v 0.00000951 0.02255468 -0.00529800
v -0.00027853 0.02255468 -0.00529696
v -0.00083536 0.02199798 -0.00527515
v -0.00191992 0.02032671 -0.00525333
v -0.00139219 0.02144127 -0.00523048
v -0.00083536 0.02255468 -0.00520866
v -0.00140767 0.02198989 -0.00512244
v -0.00181642 0.02144127 -0.00508920
v -0.00191992 0.02111095 -0.00512036
v -0.00191992 0.01420183 -0.00526788
v 0.00000951 0.01475853 -0.00530631
v 0.00000951 0.02199798 -0.00530527
v -0.00027853 0.02199798 -0.00530527
v -0.00083536 0.02144127 -0.00530008
v -0.00191992 0.01977001 -0.00529385
v -0.00139219 0.02088457 -0.00528554
v -0.00191992 0.02090536 -0.00515568
v -0.00191992 0.01475853 -0.00530631
v 0.00000951 0.02144127 -0.00530631
v -0.00027853 0.02144127 -0.00530631
v -0.00083536 0.02088457 -0.00530631
v -0.00191992 0.01921331 -0.00530527
v -0.00139219 0.02032671 -0.00530320
v -0.00191992 0.01865661 -0.00530631
v -0.00139219 0.01977001 -0.00530631
f 1 2 3
f 1 3 4
f 1 4 10
f 1 10 18
f 1 18 19
f 1 19 12
f 1 12 5
f 1 5 15
f 1 15 27
f 1 27 36
f 1 36 49
f 1 49 62
f 1 62 72
f 1 72 84
f 1 84 96
f 1 96 109
f 1 109 122
f 1 122 136
f 1 136 145
f 1 145 147
f 1 147 156
f 1 156 155
f 1 155 158
f 1 158 167
f 1 167 178
f 1 178 186
f 1 186 179
f 1 179 168
f 1 168 160
f 1 160 159
f 1 159 154
f 1 154 153
f 1 153 143
f 1 143 134
f 1 134 133
f 1 133 132
f 1 132 126
f 1 126 111
f 1 111 97
f 1 97 86
f 1 86 85
f 1 85 73
f 1 73 63
f 1 63 53
f 1 53 52
f 1 52 51
f 1 51 39
f 1 39 30
f 1 30 29
f 1 29 23
f 1 23 16
f 1 16 6
f 1 6 2
f 2 6 3
f 3 7 8
f 3 8 9
f 3 9 10
f 3 10 4
f 3 6 11
f 3 11 7
f 5 12 13
f 5 13 14
f 5 14 15
f 6 16 11
f 7 11 17
f 7 17 8
f 8 17 9
f 9 18 10
f 9 17 22
f 9 22 28
f 9 28 38
f 9 38 50
f 9 50 60
f 9 60 70
f 9 70 69
f 9 69 82
f 9 82 81
f 9 81 80
f 9 80 94
f 9 94 107
f 9 107 121
f 9 121 131
f 9 131 142
f 9 142 152
f 9 152 165
f 9 165 176
f 9 176 184
f 9 184 171
f 9 171 182
f 9 182 189
f 9 189 191
f 9 191 185
f 9 185 177
f 9 177 166
f 9 166 157
f 9 157 146
f 9 146 137
f 9 137 125
f 9 125 124
f 9 124 123
f 9 123 110
f 9 110 108
f 9 108 95
f 9 95 83
f 9 83 71
f 9 71 61
f 9 61 48
f 9 48 47
f 9 47 37
f 9 37 26
f 9 26 25
f 9 25 14
f 9 14 13
f 9 13 12
f 9 12 19
f 9 19 18
f 11 20 21
f 11 21 22
f 11 22 17
f 11 16 23
f 11 23 24
f 11 24 20
f 14 25 15
f 15 25 26
f 15 26 27
f 20 28 21
f 20 24 28
f 21 28 22
f 23 29 24
f 24 29 30
f 24 30 31
f 24 31 32
f 24 32 33
f 24 33 34
f 24 34 35
f 24 35 28
f 26 36 27
f 26 37 36
f 28 35 38
f 30 39 31
f 31 39 40
f 31 40 41
f 31 41 32
f 32 42 43
f 32 43 44
f 32 44 33
f 32 41 42
f 33 44 45
f 33 45 46
f 33 46 34
f 34 46 38
f 34 38 35
f 36 37 47
f 36 47 48
f 36 48 49
f 38 46 50
f 39 51 40
f 40 51 52
f 40 52 53
f 40 53 54
f 40 54 41
f 41 55 42
f 41 54 56
f 41 56 55
f 42 55 57
f 42 57 58
f 42 58 43
f 43 58 59
f 43 59 44
f 44 59 45
f 45 59 60
f 45 60 50
f 45 50 46
f 48 61 62
f 48 62 49
f 53 63 54
f 54 63 64
f 54 64 56
f 55 56 57
f 56 64 65
f 56 65 66
f 56 66 57
f 57 66 67
f 57 67 68
f 57 68 58
f 58 68 69
f 58 69 70
f 58 70 59
f 59 70 60
f 61 71 62
f 62 71 72
f 63 73 64
f 64 73 74
f 64 74 75
f 64 75 65
f 65 76 66
f 65 75 77
f 65 77 76
f 66 76 78
f 66 78 67
f 67 79 80
f 67 80 81
f 67 81 68
f 67 78 79
f 68 81 82
f 68 82 69
f 71 83 84
f 71 84 72
f 73 85 74
f 74 85 86
f 74 86 87
f 74 87 75
f 75 88 77
f 75 87 98
f 75 98 88
f 76 89 102
f 76 102 90
f 76 90 79
f 76 79 78
f 76 77 91
f 76 91 89
f 77 88 99
f 77 99 91
f 79 92 93
f 79 93 94
f 79 94 80
f 79 90 92
f 83 95 84
f 84 95 96
f 86 97 87
f 87 97 111
f 87 111 113
f 87 113 112
f 87 112 98
f 88 98 112
f 88 112 99
f 89 100 101
f 89 101 102
f 89 91 103
f 89 103 100
f 90 102 105
f 90 105 92
f 91 99 104
f 91 104 103
f 92 105 106
f 92 106 93
f 93 106 107
f 93 107 94
f 95 108 96
f 96 108 110
f 96 110 123
f 96 123 109
f 99 112 113
f 99 113 104
f 100 103 114
f 100 114 115
f 100 115 116
f 100 116 117
f 100 117 101
f 101 118 102
f 101 117 118
f 102 118 105
f 103 104 114
f 104 113 119
f 104 119 120
f 104 120 114
f 105 117 106
f 105 118 117
f 106 117 107
f 107 117 121
f 109 123 124
f 109 124 125
f 109 125 122
f 111 126 113
f 113 126 119
f 114 127 115
f 114 120 127
f 115 127 128
f 115 128 129
f 115 129 116
f 116 129 117
f 117 129 130
f 117 130 131
f 117 131 121
f 119 126 132
f 119 132 133
f 119 133 134
f 119 134 120
f 120 134 135
f 120 135 127
f 122 125 136
f 125 137 136
f 127 135 138
f 127 138 139
f 127 139 128
f 128 139 140
f 128 140 141
f 128 141 129
f 129 141 131
f 129 131 130
f 131 141 142
f 134 143 135
f 135 143 144
f 135 144 138
f 136 137 145
f 137 146 147
f 137 147 145
f 138 144 148
f 138 148 149
f 138 149 140
f 138 140 139
f 140 149 150
f 140 150 151
f 140 151 141
f 141 151 152
f 141 152 142
f 143 153 144
f 144 153 154
f 144 154 148
f 146 155 156
f 146 156 147
f 146 157 158
f 146 158 155
f 148 159 160
f 148 160 161
f 148 161 149
f 148 154 159
f 149 161 162
f 149 162 150
f 150 162 163
f 150 163 164
f 150 164 151
f 151 164 152
f 152 164 165
f 157 166 158
f 158 166 167
f 160 168 169
f 160 169 161
f 161 169 170
f 161 170 171
f 161 171 172
f 161 172 173
f 161 173 162
f 162 173 174
f 162 174 175
f 162 175 163
f 163 175 164
f 164 175 165
f 165 175 176
f 166 177 167
f 167 177 178
f 168 179 180
f 168 180 169
f 169 180 181
f 169 181 182
f 169 182 183
f 169 183 170
f 170 183 171
f 171 184 172
f 171 183 182
f 172 184 176
f 172 176 173
f 173 176 174
f 174 176 175
f 177 185 178
f 178 185 191
f 178 191 192
f 178 192 188
f 178 188 187
f 178 187 186
f 179 186 187
f 179 187 180
f 180 187 188
f 180 188 189
f 180 189 190
f 180 190 181
f 181 190 182
f 182 190 189
f 188 192 189
f 189 192 191

