# https://github.com/mikedh/trimesh
v -0.00751847 0.01057871 -0.00525022
v -0.00751847 0.01085981 -0.00522840
v -0.00696158 0.01141711 -0.00527411
v -0.00640469 0.01197441 -0.00529593
v -0.00696158 0.01085981 -0.00525853
v -0.00695358 0.01057871 -0.00520035
v -0.00802640 0.01057871 -0.00511309
v -0.00696158 0.01197441 -0.00520555
v -0.00529092 0.01475767 -0.00522217
v -0.00584780 0.01364470 -0.00524295
v -0.00640469 0.01253090 -0.00526061
v -0.00473403 0.01531498 -0.00527099
v -0.00529092 0.01420200 -0.00528138
v -0.00584780 0.01308821 -0.00529073
v -0.00417714 0.01587146 -0.00529489
v -0.00473403 0.01475767 -0.00529904
v -0.00529092 0.01364470 -0.00530216
v -0.00584780 0.01253090 -0.00530424
v -0.00417714 0.01364470 -0.00530631
v -0.00400861 0.01364470 -0.00529593
v -0.00400861 0.01308576 -0.00515776
v -0.00658593 0.01057871 -0.00506427
v -0.00829802 0.01057871 -0.00496246
v -0.00793696 0.01085981 -0.00508712
v -0.00753165 0.01140489 -0.00512036
v -0.00629925 0.01364470 -0.00509959
v -0.00473403 0.01587146 -0.00519828
v -0.00417714 0.01642877 -0.00525541
v -0.00400861 0.01587146 -0.00529800
v -0.00417714 0.01531498 -0.00530527
v -0.00400861 0.01642877 -0.00526995
v -0.00473403 0.01420200 -0.00530631
v -0.00529092 0.01308821 -0.00530631
v -0.00400861 0.01420200 -0.00530631
v -0.00400861 0.01290488 -0.00504972
v -0.00400861 0.01273297 -0.00494169
v -0.00630348 0.01057871 -0.00485235
v -0.00833945 0.01057871 -0.00491572
v -0.00666972 0.01334567 -0.00500298
v -0.00725580 0.01228077 -0.00502375
v -0.00783669 0.01121179 -0.00503934
v -0.00733771 0.01197441 -0.00506842
v -0.00405804 0.01754256 -0.00509439
v -0.00421856 0.01701948 -0.00514426
v -0.00400861 0.01700726 -0.00519412
v -0.00400861 0.01754256 -0.00510998
v -0.00400861 0.01531498 -0.00530527
v -0.00417714 0.01475767 -0.00530631
v -0.00400861 0.01475767 -0.00530631
v -0.00400861 0.01253335 -0.00477340
v -0.00400861 0.01220744 -0.00449188
v -0.00597538 0.01057871 -0.00459264
v -0.00854610 0.01057871 -0.00467159
v -0.00845525 0.01085981 -0.00458952
v -0.00443181 0.01722725 -0.00499467
v -0.00502118 0.01616560 -0.00501856
v -0.00730381 0.01292118 -0.00454589
v -0.00457586 0.01754256 -0.00461238
v -0.00509885 0.01587146 -0.00506219
v -0.00400861 0.01771040 -0.00507258
v -0.00400861 0.01195893 -0.00418127
v -0.00569293 0.01057871 -0.00432878
v -0.00876829 0.01057871 -0.00417607
v -0.00836863 0.01116453 -0.00447837
v -0.00400861 0.01817645 -0.00484196
v -0.00400861 0.01795972 -0.00495623
v -0.00400861 0.01854310 -0.00459784
v -0.00671821 0.01398445 -0.00450746
v -0.00448265 0.01786847 -0.00449603
v -0.00506825 0.01680438 -0.00453447
v -0.00400861 0.01177398 -0.00361926
v -0.00546415 0.01057871 -0.00403168
v -0.00778256 0.01222781 -0.00437760
v -0.00878336 0.01057871 -0.00400882
v -0.00781457 0.01228403 -0.00400571
v -0.00839970 0.01121912 -0.00417607
v -0.00613308 0.01504855 -0.00446590
v -0.00400861 0.01857651 -0.00455732
v -0.00400861 0.01878264 -0.00429865
v -0.00536482 0.01057871 -0.00361926
v -0.00400861 0.01177235 -0.00306245
v -0.00536200 0.01057871 -0.00306245
v -0.00536294 0.01057871 -0.00327437
v -0.00557901 0.01616723 -0.00395792
v -0.00881772 0.01057871 -0.00361926
v -0.00406228 0.01871094 -0.00422801
v -0.00400861 0.01882175 -0.00416776
v -0.00400861 0.01177235 0.00306245
v -0.00536200 0.01057871 0.00306245
v -0.00415078 0.01865635 -0.00361926
v -0.00400861 0.01890160 -0.00361926
v -0.00881772 0.01057871 0.00361926
v -0.00400861 0.01177398 0.00361926
v -0.00536482 0.01057871 0.00361926
v -0.00415078 0.01865635 0.00361926
v -0.00400861 0.01890160 0.00361926
v -0.00880689 0.01057871 0.00374184
v -0.00781457 0.01228403 0.00400467
v -0.00557901 0.01616723 0.00395688
v -0.00400861 0.01177479 0.00362238
v -0.00541613 0.01057871 0.00388936
v -0.00400861 0.01886819 0.00391013
v -0.00876829 0.01057871 0.00417607
v -0.00839970 0.01121831 0.00417607
v -0.00778209 0.01222781 0.00437553
v -0.00452031 0.01793284 0.00417607
v -0.00406228 0.01871013 0.00422594
v -0.00400861 0.01882094 0.00416465
v -0.00400861 0.01195893 0.00418127
v -0.00546415 0.01057871 0.00403168
v -0.00872310 0.01057871 0.00430073
v -0.00836816 0.01116372 0.00447733
v -0.00613260 0.01504773 0.00446487
v -0.00400861 0.01878101 0.00429658
v -0.00400861 0.01208359 0.00434540
v -0.00557242 0.01057871 0.00419269
v -0.00854657 0.01057871 0.00467263
v -0.00845525 0.01085981 0.00458952
v -0.00788895 0.01185627 0.00458121
v -0.00730334 0.01292036 0.00454589
v -0.00671774 0.01398445 0.00450746
v -0.00448265 0.01786766 0.00449603
v -0.00400861 0.01855451 0.00458849
v -0.00400861 0.01220744 0.00449187
v -0.00569293 0.01057871 0.00432878
v -0.00829896 0.01057871 0.00496350
v -0.00565339 0.01573947 0.00457186
v -0.00772795 0.01158577 0.00495311
v -0.00607941 0.01440732 0.00497493
v -0.00506825 0.01680356 0.00453551
v -0.00400861 0.01854310 0.00459991
v -0.00400861 0.01227751 0.00455940
v -0.00597538 0.01057871 0.00459264
v -0.00579649 0.01057871 0.00443578
v -0.00825236 0.01057871 0.00500090
v -0.00725391 0.01227832 0.00502168
v -0.00666784 0.01334323 0.00500194
v -0.00443134 0.01722643 0.00499467
v -0.00549239 0.01546815 0.00494376
v -0.00400861 0.01818053 0.00484404
v -0.00614249 0.01057871 0.00473080
v -0.00400861 0.01263356 0.00486170
v -0.00650496 0.01057871 0.00500713
v -0.00802687 0.01057871 0.00511309
v -0.00793743 0.01085981 0.00508712
v -0.00783669 0.01121423 0.00503934
v -0.00618627 0.01403579 0.00505076
v -0.00501930 0.01616234 0.00501648
v -0.00400861 0.01771529 0.00507258
v -0.00400861 0.01786195 0.00502271
v -0.00400861 0.01281281 0.00500713
v -0.00658593 0.01057871 0.00506427
v -0.00782728 0.01057871 0.00518062
v -0.00696158 0.01197441 0.00520451
v -0.00753259 0.01140652 0.00512036
v -0.00629925 0.01364470 0.00509959
v -0.00676999 0.01297251 0.00506427
v -0.00733818 0.01197441 0.00506738
v -0.00453490 0.01685571 0.00506011
v -0.00405851 0.01754256 0.00509439
v -0.00400861 0.01760937 0.00509855
v -0.00400861 0.01308576 0.00515776
v -0.00670926 0.01057871 0.00512660
v -0.00751847 0.01057871 0.00525022
v -0.00751847 0.01085981 0.00522840
v -0.00529092 0.01475767 0.00522113
v -0.00473403 0.01587146 0.00519620
v -0.00587558 0.01421341 0.00513283
v -0.00530033 0.01529542 0.00511517
v -0.00421809 0.01701866 0.00514426
v -0.00400861 0.01720199 0.00517646
v -0.00400861 0.01320309 0.00519620
v -0.00695358 0.01057871 0.00520035
v -0.00724262 0.01057871 0.00526580
v -0.00696158 0.01141711 0.00527411
v -0.00640469 0.01253090 0.00526060
v -0.00584780 0.01364470 0.00524398
v -0.00417714 0.01642877 0.00525645
v -0.00400861 0.01659743 0.00526580
v -0.00400861 0.01364470 0.00529592
v -0.00417714 0.01364470 0.00530631
v -0.00584780 0.01253090 0.00530424
v -0.00640469 0.01197441 0.00529592
v -0.00584780 0.01308821 0.00528969
v -0.00529092 0.01420200 0.00528138
v -0.00473403 0.01531498 0.00527099
v -0.00417714 0.01587146 0.00529489
v -0.00400861 0.01604012 0.00529696
v -0.00400861 0.01381335 0.00530631
v -0.00529092 0.01308821 0.00530631
v -0.00529092 0.01364470 0.00530320
v -0.00473403 0.01420200 0.00530631
v -0.00417714 0.01531498 0.00530527
v -0.00400861 0.01548282 0.00530527
v -0.00400861 0.01492633 0.00530631
f 1 2 3
f 1 3 4
f 1 4 5
f 1 5 6
f 1 6 22
f 1 22 37
f 1 37 52
f 1 52 62
f 1 62 72
f 1 72 80
f 1 80 83
f 1 83 82
f 1 82 89
f 1 89 94
f 1 94 101
f 1 101 110
f 1 110 116
f 1 116 125
f 1 125 134
f 1 134 133
f 1 133 141
f 1 141 143
f 1 143 152
f 1 152 163
f 1 163 173
f 1 173 174
f 1 174 164
f 1 164 153
f 1 153 144
f 1 144 135
f 1 135 126
f 1 126 117
f 1 117 111
f 1 111 103
f 1 103 97
f 1 97 92
f 1 92 85
f 1 85 74
f 1 74 63
f 1 63 53
f 1 53 38
f 1 38 23
f 1 23 7
f 1 7 2
f 2 8 9
f 2 9 10
f 2 10 11
f 2 11 3
f 2 7 8
f 3 12 13
f 3 13 14
f 3 14 4
f 3 11 12
f 4 14 15
f 4 15 16
f 4 16 17
f 4 17 18
f 4 18 19
f 4 19 5
f 5 19 20
f 5 20 6
f 6 20 21
f 6 21 22
f 7 23 24
f 7 24 25
f 7 25 8
f 8 25 26
f 8 26 27
f 8 27 9
f 9 28 10
f 9 27 28
f 10 28 11
f 11 28 12
f 12 15 13
f 12 28 15
f 13 15 14
f 15 29 30
f 15 30 16
f 15 28 31
f 15 31 29
f 16 30 17
f 17 30 18
f 18 30 32
f 18 32 33
f 18 33 19
f 19 33 32
f 19 32 48
f 19 48 49
f 19 49 34
f 19 34 20
f 20 34 49
f 20 49 47
f 20 47 29
f 20 29 31
f 20 31 45
f 20 45 46
f 20 46 60
f 20 60 66
f 20 66 65
f 20 65 67
f 20 67 78
f 20 78 79
f 20 79 87
f 20 87 91
f 20 91 96
f 20 96 102
f 20 102 108
f 20 108 114
f 20 114 123
f 20 123 131
f 20 131 140
f 20 140 150
f 20 150 149
f 20 149 161
f 20 161 171
f 20 171 179
f 20 179 188
f 20 188 194
f 20 194 195
f 20 195 189
f 20 189 180
f 20 180 172
f 20 172 162
f 20 162 151
f 20 151 142
f 20 142 132
f 20 132 124
f 20 124 115
f 20 115 109
f 20 109 100
f 20 100 93
f 20 93 88
f 20 88 81
f 20 81 71
f 20 71 61
f 20 61 51
f 20 51 50
f 20 50 36
f 20 36 35
f 20 35 21
f 21 35 22
f 22 35 36
f 22 36 37
f 23 38 39
f 23 39 40
f 23 40 41
f 23 41 24
f 24 26 25
f 24 41 42
f 24 42 26
f 26 42 43
f 26 43 27
f 27 44 28
f 27 43 44
f 28 45 31
f 28 44 46
f 28 46 45
f 29 47 30
f 30 48 32
f 30 47 49
f 30 49 48
f 36 50 37
f 37 50 51
f 37 51 52
f 38 53 54
f 38 54 39
f 39 55 56
f 39 56 40
f 39 54 57
f 39 57 58
f 39 58 55
f 40 56 59
f 40 59 42
f 40 42 41
f 42 59 43
f 43 59 60
f 43 60 46
f 43 46 44
f 51 61 62
f 51 62 52
f 53 63 64
f 53 64 54
f 54 64 57
f 55 65 66
f 55 66 60
f 55 60 56
f 55 58 67
f 55 67 65
f 56 60 59
f 57 64 68
f 57 68 69
f 57 69 70
f 57 70 58
f 58 70 67
f 61 71 72
f 61 72 62
f 63 73 64
f 63 74 75
f 63 75 76
f 63 76 73
f 64 73 77
f 64 77 69
f 64 69 68
f 67 70 69
f 67 69 78
f 69 77 79
f 69 79 78
f 71 80 72
f 71 81 82
f 71 82 83
f 71 83 80
f 73 79 77
f 73 76 75
f 73 75 84
f 73 84 79
f 74 85 75
f 75 85 84
f 79 84 86
f 79 86 87
f 81 88 89
f 81 89 82
f 84 87 86
f 84 85 90
f 84 90 91
f 84 91 87
f 85 92 95
f 85 95 90
f 88 93 89
f 89 93 94
f 90 95 96
f 90 96 91
f 92 97 98
f 92 98 99
f 92 99 95
f 93 100 101
f 93 101 94
f 95 99 96
f 96 99 102
f 97 103 98
f 98 103 104
f 98 104 105
f 98 105 99
f 99 105 106
f 99 106 107
f 99 107 108
f 99 108 102
f 100 109 110
f 100 110 101
f 103 111 112
f 103 112 105
f 103 105 104
f 105 112 113
f 105 113 114
f 105 114 107
f 105 107 106
f 107 114 108
f 109 115 116
f 109 116 110
f 111 117 112
f 112 117 118
f 112 118 119
f 112 119 120
f 112 120 121
f 112 121 122
f 112 122 113
f 113 122 114
f 114 122 123
f 115 124 125
f 115 125 116
f 117 119 118
f 117 126 119
f 119 127 120
f 119 126 128
f 119 128 129
f 119 129 127
f 120 130 121
f 120 127 130
f 121 130 122
f 122 130 131
f 122 131 123
f 124 132 133
f 124 133 134
f 124 134 125
f 126 135 136
f 126 136 137
f 126 137 128
f 127 131 130
f 127 129 131
f 128 137 129
f 129 137 138
f 129 138 139
f 129 139 131
f 131 139 138
f 131 138 140
f 132 141 133
f 132 142 143
f 132 143 141
f 135 144 145
f 135 145 146
f 135 146 136
f 136 146 147
f 136 147 148
f 136 148 137
f 137 148 138
f 138 148 149
f 138 149 150
f 138 150 140
f 142 151 143
f 143 151 152
f 144 153 154
f 144 154 155
f 144 155 145
f 145 155 156
f 145 156 157
f 145 157 158
f 145 158 146
f 146 158 157
f 146 157 147
f 147 157 159
f 147 159 148
f 148 159 149
f 149 159 160
f 149 160 161
f 151 162 163
f 151 163 152
f 153 164 165
f 153 165 154
f 154 165 166
f 154 166 167
f 154 167 168
f 154 168 155
f 155 168 156
f 156 169 161
f 156 161 160
f 156 160 157
f 156 168 169
f 157 160 159
f 161 169 167
f 161 167 170
f 161 170 171
f 162 172 173
f 162 173 163
f 164 174 175
f 164 175 165
f 165 175 176
f 165 176 177
f 165 177 166
f 166 177 178
f 166 178 167
f 167 171 170
f 167 169 168
f 167 178 171
f 171 178 179
f 172 174 173
f 172 180 174
f 174 180 181
f 174 181 182
f 174 182 183
f 174 183 175
f 175 183 184
f 175 184 185
f 175 185 186
f 175 186 176
f 176 178 177
f 176 186 178
f 178 186 179
f 179 186 187
f 179 187 188
f 180 189 181
f 181 189 195
f 181 195 192
f 181 192 190
f 181 190 182
f 182 191 183
f 182 190 192
f 182 192 191
f 183 191 187
f 183 187 184
f 184 187 185
f 185 187 186
f 187 191 188
f 188 191 193
f 188 193 194
f 191 192 193
f 192 195 193
f 193 195 194

