# https://github.com/mikedh/trimesh
v -0.02366768 -0.01940691 -0.00530631
v -0.02422539 -0.01940691 -0.00530424
v -0.02366768 -0.01865761 -0.00530631
v -0.01735287 -0.01940691 -0.00530631
v -0.02422539 -0.01921448 -0.00530424
v -0.02478200 -0.01940691 -0.00526684
v -0.02311107 -0.01754386 -0.00530631
v -0.01865821 -0.01695263 -0.00530631
v -0.01810050 -0.01754386 -0.00529800
v -0.01698838 -0.01940691 -0.00527930
v -0.02422539 -0.01865761 -0.00528658
v -0.02366768 -0.01810097 -0.00530112
v -0.02533092 -0.01940691 -0.00511933
v -0.02478200 -0.01921448 -0.00525333
v -0.02311107 -0.01698699 -0.00529696
v -0.02255446 -0.01698699 -0.00530631
v -0.02199786 -0.01695263 -0.00530631
v -0.01813563 -0.01695263 -0.00526061
v -0.01810050 -0.01698699 -0.00525853
v -0.01679516 -0.01940691 -0.00525853
v -0.02366878 -0.01754386 -0.00527723
v -0.02551646 -0.01940691 -0.00504245
v -0.02532763 -0.01926565 -0.00509024
v -0.02465794 -0.01810097 -0.00509232
v -0.02424515 -0.01754530 -0.00512556
v -0.02482042 -0.01862902 -0.00514114
v -0.02366878 -0.01695263 -0.00520555
v -0.02366878 -0.01698699 -0.00521178
v -0.02422539 -0.01810097 -0.00523463
v -0.02311107 -0.01695263 -0.00529489
v -0.02255446 -0.01695263 -0.00530527
v -0.01809830 -0.01695263 -0.00525229
v -0.01644385 -0.01940691 -0.00514737
v -0.02566576 -0.01940691 -0.00491052
v -0.02503121 -0.01842434 -0.00499051
v -0.02455255 -0.01773197 -0.00504349
v -0.02513550 -0.01879526 -0.00505803
v -0.02405852 -0.01698699 -0.00507362
v -0.02404863 -0.01695263 -0.00506842
v -0.01771296 -0.01695263 -0.00511413
v -0.01630552 -0.01940691 -0.00510167
v -0.02550658 -0.01911430 -0.00490221
v -0.02582056 -0.01940691 -0.00472977
v -0.02444386 -0.01736080 -0.00496142
v -0.02436811 -0.01695263 -0.00476613
v -0.01769978 -0.01695263 -0.00510686
v -0.01621879 -0.01940691 -0.00505076
v -0.02566906 -0.01884692 -0.00453031
v -0.02460415 -0.01709101 -0.00459056
v -0.02608295 -0.01940691 -0.00422386
v -0.02438897 -0.01695263 -0.00474223
v -0.01744069 -0.01695263 -0.00488559
v -0.01547994 -0.01940691 -0.00451057
v -0.01549860 -0.01940691 -0.00452616
v -0.01574342 -0.01940691 -0.00471522
v -0.01615292 -0.01940691 -0.00501025
v -0.02508281 -0.01778338 -0.00448980
v -0.02465465 -0.01695263 -0.00424671
v -0.02612247 -0.01940691 -0.00400363
v -0.02601598 -0.01926445 -0.00413971
v -0.02523760 -0.01792728 -0.00417607
v -0.02511904 -0.01772188 -0.00417607
v -0.02466782 -0.01695263 -0.00421035
v -0.01714208 -0.01695263 -0.00460718
v -0.01522963 -0.01940691 -0.00426957
v -0.01712232 -0.01695263 -0.00458849
v -0.02614003 -0.01940691 -0.00361926
v -0.02602147 -0.01920030 -0.00361926
v -0.02528701 -0.01792728 -0.00361926
v -0.02472381 -0.01695263 -0.00361926
v -0.02468539 -0.01695263 -0.00403272
v -0.02495765 -0.01744320 -0.00417607
v -0.01514400 -0.01940691 -0.00418231
v -0.01681163 -0.01695263 -0.00419581
v -0.02614003 -0.01940691 0.00361926
v -0.02602147 -0.01920030 0.00361926
v -0.02528701 -0.01792728 0.00361926
v -0.02472381 -0.01695263 0.00361926
v -0.01501665 -0.01940691 -0.00400986
v -0.01680394 -0.01695263 -0.00418334
v -0.02613674 -0.01940691 0.00384676
v -0.02472052 -0.01695263 0.00366497
v -0.01499249 -0.01940691 -0.00395688
v -0.01667001 -0.01695263 -0.00386027
v -0.02612247 -0.01940691 0.00400467
v -0.02467002 -0.01695263 0.00419373
v -0.01492992 -0.01940691 -0.00361926
v -0.01662499 -0.01695263 -0.00361926
v -0.02608295 -0.01940691 0.00422386
v -0.02523760 -0.01792728 0.00417607
v -0.02511904 -0.01772188 0.00417607
v -0.02466782 -0.01695263 0.00421243
v -0.01492882 -0.01940691 -0.00360160
v -0.01662280 -0.01695263 -0.00306245
v -0.01492553 -0.01940691 -0.00306245
v -0.02595230 -0.01940691 0.00450642
v -0.02566686 -0.01884764 0.00452927
v -0.02508281 -0.01778338 0.00448876
v -0.02456462 -0.01695263 0.00452927
v -0.01662280 -0.01695263 0.00317880
v -0.01492553 -0.01940691 0.00306245
v -0.02582056 -0.01940691 0.00472873
v -0.02574481 -0.01926565 0.00472249
v -0.02517393 -0.01810097 0.00460407
v -0.02460305 -0.01709005 0.00459056
v -0.02439007 -0.01695263 0.00474223
v -0.01662499 -0.01695263 0.00361926
v -0.01492992 -0.01940691 0.00361926
v -0.02559660 -0.01940691 0.00499051
v -0.02444386 -0.01736056 0.00496142
v -0.02436920 -0.01695263 0.00476612
v -0.01680394 -0.01695263 0.00418334
v -0.01663707 -0.01709798 0.00402233
v -0.01501665 -0.01940691 0.00400986
v -0.01494748 -0.01940691 0.00370860
v -0.02551536 -0.01940691 0.00504245
v -0.02455145 -0.01773173 0.00504349
v -0.02503121 -0.01842457 0.00499051
v -0.02404863 -0.01695263 0.00506842
v -0.01681492 -0.01695263 0.00419997
v -0.01522963 -0.01940691 0.00426957
v -0.01712232 -0.01695263 0.00458849
v -0.02543082 -0.01940691 0.00508193
v -0.02513441 -0.01879550 0.00505803
v -0.02405742 -0.01698699 0.00507362
v -0.02403217 -0.01695263 0.00507569
v -0.01549860 -0.01940691 0.00452616
v -0.01742313 -0.01695263 0.00486897
v -0.02533092 -0.01940691 0.00511932
v -0.02532763 -0.01926565 0.00509128
v -0.02465684 -0.01810097 0.00509232
v -0.02460854 -0.01792728 0.00506946
v -0.02366878 -0.01695263 0.00520555
v -0.02452839 -0.01792728 0.00510270
v -0.02424515 -0.01754530 0.00512556
v -0.01584552 -0.01940691 0.00478482
v -0.01768551 -0.01695263 0.00509543
v -0.01769978 -0.01695263 0.00510686
v -0.02497412 -0.01940691 0.00523256
v -0.02482042 -0.01862926 0.00514218
v -0.02366878 -0.01698699 0.00521178
v -0.02363475 -0.01695263 0.00521594
v -0.01606838 -0.01940691 0.00494480
v -0.01809830 -0.01695263 0.00525229
v -0.01644385 -0.01940691 0.00514737
v -0.01621879 -0.01940691 0.00505076
v -0.02478200 -0.01940691 0.00526788
v -0.02478200 -0.01921448 0.00525333
v -0.02422539 -0.01810097 0.00523463
v -0.02311107 -0.01695263 0.00529592
v -0.02405193 -0.01792728 0.00524814
v -0.02366878 -0.01754386 0.00527723
v -0.01865821 -0.01695263 0.00530631
v -0.01810050 -0.01698699 0.00525853
v -0.01698838 -0.01921448 0.00526580
v -0.01698838 -0.01940691 0.00527930
v -0.02441751 -0.01940691 0.00530112
v -0.02422539 -0.01865761 0.00528658
v -0.02311107 -0.01698699 0.00529800
v -0.02307704 -0.01695263 0.00529800
v -0.02252043 -0.01695263 0.00530631
v -0.01754499 -0.01921448 0.00530631
v -0.01810050 -0.01754386 0.00529800
v -0.01754499 -0.01940691 0.00530631
v -0.01754499 -0.01865761 0.00529489
v -0.02422539 -0.01940691 0.00530424
v -0.02422539 -0.01921448 0.00530424
v -0.02349532 -0.01792728 0.00530320
v -0.02311107 -0.01754386 0.00530631
v -0.02386090 -0.01940691 0.00530631
v -0.02366768 -0.01865761 0.00530631
f 1 2 5
f 1 5 3
f 1 3 7
f 1 7 16
f 1 16 17
f 1 17 8
f 1 8 4
f 1 4 10
f 1 10 20
f 1 20 33
f 1 33 41
f 1 41 47
f 1 47 56
f 1 56 55
f 1 55 54
f 1 54 53
f 1 53 65
f 1 65 73
f 1 73 79
f 1 79 83
f 1 83 87
f 1 87 93
f 1 93 95
f 1 95 101
f 1 101 108
f 1 108 115
f 1 115 114
f 1 114 121
f 1 121 127
f 1 127 136
f 1 136 143
f 1 143 146
f 1 146 145
f 1 145 156
f 1 156 164
f 1 164 170
f 1 170 166
f 1 166 157
f 1 157 147
f 1 147 139
f 1 139 129
f 1 129 123
f 1 123 116
f 1 116 109
f 1 109 102
f 1 102 96
f 1 96 89
f 1 89 85
f 1 85 81
f 1 81 75
f 1 75 67
f 1 67 59
f 1 59 50
f 1 50 43
f 1 43 34
f 1 34 22
f 1 22 13
f 1 13 6
f 1 6 2
f 2 6 5
f 3 5 7
f 4 8 9
f 4 9 10
f 5 11 12
f 5 12 7
f 5 6 11
f 6 13 14
f 6 14 11
f 7 15 16
f 7 12 15
f 8 17 31
f 8 31 30
f 8 30 27
f 8 27 39
f 8 39 45
f 8 45 51
f 8 51 58
f 8 58 63
f 8 63 71
f 8 71 70
f 8 70 78
f 8 78 82
f 8 82 86
f 8 86 92
f 8 92 99
f 8 99 106
f 8 106 111
f 8 111 119
f 8 119 126
f 8 126 133
f 8 133 142
f 8 142 150
f 8 150 160
f 8 160 161
f 8 161 153
f 8 153 144
f 8 144 138
f 8 138 137
f 8 137 128
f 8 128 122
f 8 122 120
f 8 120 112
f 8 112 107
f 8 107 100
f 8 100 94
f 8 94 88
f 8 88 84
f 8 84 80
f 8 80 74
f 8 74 66
f 8 66 64
f 8 64 52
f 8 52 46
f 8 46 40
f 8 40 32
f 8 32 18
f 8 18 9
f 9 18 19
f 9 19 20
f 9 20 10
f 11 14 21
f 11 21 15
f 11 15 12
f 13 22 23
f 13 23 24
f 13 24 25
f 13 25 26
f 13 26 27
f 13 27 28
f 13 28 29
f 13 29 14
f 14 29 21
f 15 30 31
f 15 31 16
f 15 21 30
f 16 31 17
f 18 32 19
f 19 32 20
f 20 32 33
f 21 29 28
f 21 28 30
f 22 34 35
f 22 35 36
f 22 36 37
f 22 37 23
f 23 37 24
f 24 38 25
f 24 37 38
f 25 38 27
f 25 27 26
f 27 38 39
f 27 30 28
f 32 40 41
f 32 41 33
f 34 42 35
f 34 43 42
f 35 42 44
f 35 44 36
f 36 44 39
f 36 39 38
f 36 38 37
f 39 44 45
f 40 46 41
f 41 46 47
f 42 43 48
f 42 48 49
f 42 49 44
f 43 50 48
f 44 49 51
f 44 51 45
f 46 52 53
f 46 53 54
f 46 54 55
f 46 55 56
f 46 56 47
f 48 50 57
f 48 57 49
f 49 58 51
f 49 57 58
f 50 59 60
f 50 60 61
f 50 61 62
f 50 62 63
f 50 63 57
f 52 64 53
f 53 64 66
f 53 66 65
f 57 63 58
f 59 67 68
f 59 68 69
f 59 69 70
f 59 70 71
f 59 71 63
f 59 63 72
f 59 72 62
f 59 62 60
f 60 62 61
f 62 72 63
f 65 66 73
f 66 74 73
f 67 75 76
f 67 76 68
f 68 76 77
f 68 77 69
f 69 77 78
f 69 78 70
f 73 74 79
f 74 80 79
f 75 81 76
f 76 81 77
f 77 81 78
f 78 81 82
f 79 80 83
f 80 84 83
f 81 85 82
f 82 85 86
f 83 84 88
f 83 88 87
f 85 89 90
f 85 90 91
f 85 91 92
f 85 92 86
f 87 88 93
f 88 94 95
f 88 95 93
f 89 96 97
f 89 97 98
f 89 98 92
f 89 92 91
f 89 91 90
f 92 98 99
f 94 100 101
f 94 101 95
f 96 102 97
f 97 102 103
f 97 103 104
f 97 104 105
f 97 105 98
f 98 105 99
f 99 105 106
f 100 107 101
f 101 107 108
f 102 109 103
f 103 109 110
f 103 110 105
f 103 105 104
f 105 110 106
f 106 110 111
f 107 112 113
f 107 113 114
f 107 114 115
f 107 115 108
f 109 116 117
f 109 117 118
f 109 118 110
f 110 117 119
f 110 119 111
f 110 118 117
f 112 120 114
f 112 114 113
f 114 120 122
f 114 122 121
f 116 123 124
f 116 124 117
f 117 125 119
f 117 124 125
f 119 125 126
f 121 122 127
f 122 128 127
f 123 129 130
f 123 130 131
f 123 131 124
f 124 131 132
f 124 132 125
f 125 132 131
f 125 131 126
f 126 131 134
f 126 134 135
f 126 135 133
f 127 128 137
f 127 137 138
f 127 138 136
f 129 139 140
f 129 140 135
f 129 135 134
f 129 134 131
f 129 131 130
f 133 135 140
f 133 140 141
f 133 141 142
f 136 138 143
f 138 144 145
f 138 145 146
f 138 146 143
f 139 147 148
f 139 148 149
f 139 149 141
f 139 141 140
f 141 149 142
f 142 149 151
f 142 151 152
f 142 152 150
f 144 153 154
f 144 154 145
f 145 155 156
f 145 154 155
f 147 157 158
f 147 158 148
f 148 158 152
f 148 152 151
f 148 151 149
f 150 159 160
f 150 152 159
f 152 158 159
f 153 161 169
f 153 169 171
f 153 171 170
f 153 170 164
f 153 164 162
f 153 162 163
f 153 163 154
f 154 163 155
f 155 163 156
f 156 163 165
f 156 165 162
f 156 162 164
f 157 166 167
f 157 167 159
f 157 159 158
f 159 168 169
f 159 169 160
f 159 167 168
f 160 169 161
f 162 165 163
f 166 170 167
f 167 170 171
f 167 171 169
f 167 169 168

