# https://github.com/mikedh/trimesh
v 0.01589000 -0.02255557 -0.00530631
v 0.01589000 -0.02311273 -0.00530112
v 0.01589000 -0.02088483 -0.00530631
v 0.02589702 -0.02255557 -0.00530631
v 0.01589000 -0.02313012 -0.00529800
v 0.02589702 -0.02311273 -0.00530112
v 0.01589000 -0.02032913 -0.00524087
v 0.01810102 -0.01715935 -0.00526788
v 0.01810102 -0.01754407 -0.00529696
v 0.01865736 -0.01715935 -0.00530631
v 0.02533948 -0.02144199 -0.00530631
v 0.02589702 -0.02199914 -0.00530216
v 0.02645336 -0.02311273 -0.00530008
v 0.01589000 -0.02366988 -0.00519620
v 0.02645336 -0.02366988 -0.00519620
v 0.01589000 -0.02012843 -0.00517750
v 0.01764876 -0.01715935 -0.00511517
v 0.02272645 -0.01715935 -0.00530631
v 0.02311170 -0.01754407 -0.00530631
v 0.02478313 -0.02032913 -0.00530527
v 0.02422559 -0.01921481 -0.00530424
v 0.02366925 -0.01810123 -0.00530112
v 0.02533948 -0.02088483 -0.00529904
v 0.02645336 -0.02255557 -0.00528865
v 0.02701090 -0.02311273 -0.00524191
v 0.02706474 -0.02372422 -0.00512556
v 0.01589000 -0.02368003 -0.00519204
v 0.02691399 -0.02398433 -0.00504037
v 0.02645336 -0.02400244 -0.00505388
v 0.01589000 -0.01983718 -0.00507881
v 0.01738435 -0.01715935 -0.00490013
v 0.02311170 -0.01715935 -0.00530008
v 0.02328399 -0.01715935 -0.00529073
v 0.02478313 -0.01977197 -0.00529385
v 0.02422559 -0.01865838 -0.00528658
v 0.02366925 -0.01754407 -0.00527723
v 0.02589702 -0.02144199 -0.00527930
v 0.02645336 -0.02199914 -0.00523879
v 0.02705278 -0.02252080 -0.00514530
v 0.02743205 -0.02311273 -0.00509855
v 0.02740094 -0.02357570 -0.00507777
v 0.02728489 -0.02394665 -0.00501129
v 0.01589000 -0.02400171 -0.00505388
v 0.02478313 -0.02400244 -0.00505388
v 0.02645336 -0.02426616 -0.00473392
v 0.02706474 -0.02416256 -0.00478898
v 0.01589000 -0.01928437 -0.00472977
v 0.01708643 -0.01715935 -0.00462692
v 0.02366925 -0.01715935 -0.00523152
v 0.02422559 -0.01810123 -0.00523360
v 0.02478313 -0.01921481 -0.00525333
v 0.02533948 -0.02032913 -0.00526788
v 0.02589702 -0.02088483 -0.00521697
v 0.02689485 -0.02199914 -0.00509543
v 0.02736864 -0.02268309 -0.00506011
v 0.02533948 -0.01977197 -0.00519204
v 0.02771082 -0.02311273 -0.00487728
v 0.02757921 -0.02372422 -0.00485858
v 0.02784841 -0.02395100 -0.00445863
v 0.02756725 -0.02405895 -0.00459576
v 0.01810102 -0.02426471 -0.00473392
v 0.01589000 -0.02426399 -0.00473392
v 0.02422559 -0.02426616 -0.00473392
v 0.02645336 -0.02449076 -0.00436618
v 0.02703004 -0.02446975 -0.00419685
v 0.01589000 -0.01925394 -0.00470899
v 0.01679091 -0.01715935 -0.00429138
v 0.02384512 -0.01715935 -0.00518477
v 0.02424473 -0.01754770 -0.00512452
v 0.02465631 -0.01810123 -0.00509128
v 0.02513608 -0.01879822 -0.00505700
v 0.02678597 -0.02162094 -0.00504661
v 0.02726694 -0.02231213 -0.00499571
v 0.02758160 -0.02252514 -0.00476405
v 0.02789387 -0.02273888 -0.00453343
v 0.02793455 -0.02311273 -0.00459887
v 0.02789986 -0.02366988 -0.00454278
v 0.02799916 -0.02366988 -0.00417607
v 0.02787234 -0.02398143 -0.00417607
v 0.02756725 -0.02422269 -0.00417607
v 0.02589702 -0.02449076 -0.00436618
v 0.01977125 -0.02449004 -0.00435994
v 0.01589000 -0.02448932 -0.00435579
v 0.02478313 -0.02449076 -0.00436514
v 0.02685776 -0.02452337 -0.00402440
v 0.02645336 -0.02453279 -0.00408777
v 0.02719874 -0.02449076 -0.00361926
v 0.01589000 -0.01923727 -0.00469652
v 0.01662820 -0.01715935 -0.00403895
v 0.01589000 -0.01862143 -0.00422801
v 0.02411432 -0.01715935 -0.00508816
v 0.02455102 -0.01773607 -0.00504245
v 0.02562184 -0.01948796 -0.00501440
v 0.02667829 -0.02124927 -0.00496766
v 0.02625236 -0.01991470 -0.00456459
v 0.02741051 -0.02199914 -0.00461446
v 0.02731719 -0.02167166 -0.00449811
v 0.02779457 -0.02237010 -0.00417607
v 0.02794054 -0.02264831 -0.00417607
v 0.02806736 -0.02311273 -0.00417607
v 0.02804463 -0.02366988 -0.00361926
v 0.02789507 -0.02401113 -0.00361926
v 0.02756725 -0.02427486 -0.00361926
v 0.02589702 -0.02453279 -0.00408777
v 0.01921490 -0.02449004 -0.00435891
v 0.02422559 -0.02449076 -0.00436410
v 0.01589000 -0.02449076 -0.00434644
v 0.02692117 -0.02453279 -0.00361926
v 0.02645336 -0.02456032 -0.00361926
v 0.02720592 -0.02449221 -0.00139202
v 0.01653847 -0.01715935 -0.00361926
v 0.01589000 -0.01857579 -0.00418334
v 0.01589000 -0.01829612 -0.00361926
v 0.02423157 -0.01715935 -0.00502168
v 0.02444215 -0.01736439 -0.00496038
v 0.02503080 -0.01842726 -0.00498947
v 0.02550698 -0.01911628 -0.00489909
v 0.02462520 -0.01715935 -0.00460718
v 0.02566730 -0.01885111 -0.00452823
v 0.02508224 -0.01778679 -0.00448772
v 0.02673213 -0.02060734 -0.00445448
v 0.02781850 -0.02232663 -0.00361926
v 0.02758160 -0.02199914 -0.00417607
v 0.02617818 -0.01948796 -0.00391637
v 0.02796327 -0.02260557 -0.00361926
v 0.02811163 -0.02311273 -0.00361926
v 0.02804582 -0.02366988 0.00027840
v 0.02789627 -0.02401113 -0.00194883
v 0.02789627 -0.02401186 -0.00083521
v 0.02756725 -0.02427703 -0.00139202
v 0.02756725 -0.02427558 -0.00306245
v 0.01643079 -0.02453134 -0.00407738
v 0.01589000 -0.02453061 -0.00407738
v 0.02692476 -0.02453279 -0.00250564
v 0.02692835 -0.02453279 -0.00083521
v 0.02693194 -0.02453279 0.00194883
v 0.02693313 -0.02453279 0.00306245
v 0.02645336 -0.02456032 0.00361926
v 0.02422559 -0.02455959 -0.00361926
v 0.01589000 -0.02453206 -0.00406284
v 0.02720712 -0.02449221 -0.00083521
v 0.02721190 -0.02449366 0.00361926
v 0.01653727 -0.01715935 -0.00320893
v 0.01589000 -0.01829395 -0.00327333
v 0.02440506 -0.01715935 -0.00486274
v 0.02466827 -0.01715935 -0.00451265
v 0.02478552 -0.01715935 -0.00419373
v 0.02676444 -0.02055228 -0.00408258
v 0.02735548 -0.02160573 -0.00417607
v 0.02511694 -0.01772665 -0.00417607
v 0.02781850 -0.02232663 0.00361926
v 0.02796327 -0.02260484 -0.00250564
v 0.02763066 -0.02199914 -0.00361926
v 0.02698817 -0.02088483 -0.00361926
v 0.02483817 -0.01715935 -0.00361926
v 0.02811163 -0.02311273 0.00361926
v 0.02804582 -0.02366988 0.00361926
v 0.02789627 -0.02401258 0.00361926
v 0.02756725 -0.02427921 0.00361926
v 0.02693313 -0.02453279 0.00361926
v 0.02422559 -0.02455959 0.00361926
v 0.02686613 -0.02452337 0.00401817
v 0.02645336 -0.02453279 0.00407738
v 0.02589702 -0.02453279 0.00407738
v 0.01643079 -0.02453134 0.00406907
v 0.01977125 -0.02455815 -0.00361926
v 0.01754467 -0.02455742 -0.00361926
v 0.01589000 -0.02455670 -0.00361926
v 0.02756725 -0.02422342 0.00417607
v 0.02703603 -0.02446975 0.00419269
v 0.01653727 -0.01715935 0.00306245
v 0.01589000 -0.01829323 -0.00306245
v 0.02763066 -0.02199914 0.00361926
v 0.02617818 -0.01948796 0.00391637
v 0.02779457 -0.02237010 0.00417607
v 0.02794054 -0.02264831 0.00417607
v 0.02796327 -0.02260484 0.00361926
v 0.02698817 -0.02088483 0.00361926
v 0.02483817 -0.01715935 0.00361926
v 0.02806736 -0.02311273 0.00417607
v 0.02799916 -0.02366988 0.00417607
v 0.02787234 -0.02398143 0.00417607
v 0.01977125 -0.02455815 0.00361926
v 0.02645336 -0.02448859 0.00435579
v 0.02589702 -0.02448859 0.00435579
v 0.01921490 -0.02448787 0.00435059
v 0.01589000 -0.02452989 0.00407738
v 0.01698713 -0.02453134 0.00407011
v 0.01589000 -0.02453061 0.00406907
v 0.01589000 -0.02455597 0.00363381
v 0.01754467 -0.02455742 0.00361926
v 0.01589000 -0.02455670 0.00361926
v 0.02751221 -0.02403649 0.00467886
v 0.02784721 -0.02394955 0.00445655
v 0.02701090 -0.02421690 0.00473392
v 0.01653847 -0.01715935 0.00361926
v 0.01589000 -0.01829323 0.00306245
v 0.02676444 -0.02055228 0.00408362
v 0.02758160 -0.02199914 0.00417607
v 0.02478672 -0.01715935 0.00419477
v 0.02673213 -0.02060734 0.00445448
v 0.02731719 -0.02167166 0.00449811
v 0.02789387 -0.02273960 0.00453239
v 0.02793455 -0.02311273 0.00459887
v 0.02789986 -0.02366988 0.00454174
v 0.02645336 -0.02426689 0.00473392
v 0.02589702 -0.02426689 0.00473392
v 0.01977125 -0.02426544 0.00473392
v 0.01698713 -0.02426471 0.00473392
v 0.01589000 -0.02426399 0.00473392
v 0.01643079 -0.02448714 0.00434852
v 0.01589000 -0.02448714 0.00434748
v 0.02728967 -0.02394810 0.00501233
v 0.02765219 -0.02366988 0.00482014
v 0.02701090 -0.02397708 0.00503414
v 0.01660427 -0.01715935 0.00396935
v 0.01589000 -0.01829467 0.00340838
v 0.01589000 -0.01829612 0.00361926
v 0.02735548 -0.02160573 0.00417607
v 0.02462520 -0.01715935 0.00460718
v 0.02508224 -0.01778606 0.00448772
v 0.02741051 -0.02199914 0.00461446
v 0.02566730 -0.01885111 0.00452823
v 0.02625236 -0.01991470 0.00456459
v 0.02758160 -0.02252587 0.00476405
v 0.02736864 -0.02268381 0.00506011
v 0.02771082 -0.02311273 0.00487728
v 0.02645336 -0.02400534 0.00505596
v 0.02088513 -0.02400461 0.00505596
v 0.01589000 -0.02400389 0.00505492
v 0.02701090 -0.02366988 0.00515568
v 0.02737342 -0.02366988 0.00506219
v 0.02645336 -0.02366988 0.00519724
v 0.01662820 -0.01715935 0.00403895
v 0.01589000 -0.01837582 0.00384469
v 0.01589000 -0.01857579 0.00418334
v 0.02456418 -0.01715935 0.00467782
v 0.02444215 -0.01736512 0.00495935
v 0.02550698 -0.01911628 0.00489909
v 0.02726694 -0.02231213 0.00499570
v 0.02743205 -0.02311273 0.00509855
v 0.02678597 -0.02162239 0.00504661
v 0.02569721 -0.01977197 0.00505699
v 0.02689485 -0.02199914 0.00509543
v 0.02705278 -0.02252152 0.00514426
v 0.02701090 -0.02311273 0.00524191
v 0.01589000 -0.02366988 0.00519724
v 0.01921490 -0.02400389 0.00505596
v 0.02645336 -0.02311273 0.00529904
v 0.02589702 -0.02311273 0.00530008
v 0.01672391 -0.01715935 0.00419269
v 0.01589000 -0.01859970 0.00420828
v 0.02440386 -0.01715935 0.00486170
v 0.02411312 -0.01715935 0.00508816
v 0.02455102 -0.01773680 0.00504245
v 0.02562184 -0.01948796 0.00501440
v 0.02513608 -0.01879966 0.00505699
v 0.02465511 -0.01810123 0.00509128
v 0.02647609 -0.02143836 0.00512971
v 0.02424354 -0.01754842 0.00512556
v 0.02533948 -0.01977197 0.00519204
v 0.02589702 -0.02088483 0.00521697
v 0.02645336 -0.02199914 0.00523879
v 0.02645336 -0.02255557 0.00528865
v 0.01589000 -0.02311273 0.00530008
v 0.02589702 -0.02199914 0.00530216
v 0.02589702 -0.02255557 0.00530631
v 0.01589000 -0.02309534 0.00530112
v 0.01679091 -0.01715935 0.00429138
v 0.01589000 -0.01862143 0.00422801
v 0.01589000 -0.01889095 0.00446694
v 0.02366925 -0.01715935 0.00523152
v 0.02422559 -0.01810123 0.00523360
v 0.02478313 -0.01921481 0.00525333
v 0.02533948 -0.02032913 0.00526788
v 0.02589702 -0.02144199 0.00527930
v 0.02366925 -0.01754407 0.00527723
v 0.02422559 -0.01865838 0.00528658
v 0.02478313 -0.01977197 0.00529385
v 0.02533948 -0.02088483 0.00529904
v 0.02366925 -0.01810123 0.00530112
v 0.02422559 -0.01921481 0.00530424
v 0.02478313 -0.02032913 0.00530527
v 0.02533948 -0.02144199 0.00530631
v 0.01589000 -0.02255557 0.00530631
v 0.01695961 -0.01715935 0.00450019
v 0.01589000 -0.01928437 0.00472977
v 0.02311170 -0.01715935 0.00530008
v 0.02311170 -0.01754407 0.00530631
v 0.01589000 -0.02088483 0.00530631
v 0.01708643 -0.01715935 0.00462692
v 0.01589000 -0.01959809 0.00493753
v 0.02255536 -0.01715935 0.00530631
v 0.01589000 -0.02086744 0.00530527
v 0.01865736 -0.01715935 0.00530631
v 0.01848627 -0.01715935 0.00530320
v 0.01810102 -0.01754407 0.00529696
v 0.01729940 -0.01715935 0.00482534
v 0.01589000 -0.01983718 0.00507881
v 0.01589000 -0.02031174 0.00523879
v 0.01810102 -0.01715935 0.00526788
v 0.01738435 -0.01715935 0.00490013
v 0.01589000 -0.01984660 0.00508400
v 0.01793471 -0.01715935 0.00521905
v 0.01764876 -0.01715935 0.00511517
v 0.01755185 -0.01715935 0.00504453
f 1 2 5
f 1 5 14
f 1 14 27
f 1 27 43
f 1 43 62
f 1 62 83
f 1 83 107
f 1 107 133
f 1 133 140
f 1 140 168
f 1 168 192
f 1 192 190
f 1 190 189
f 1 189 187
f 1 187 212
f 1 212 210
f 1 210 230
f 1 230 247
f 1 247 265
f 1 265 268
f 1 268 285
f 1 285 290
f 1 290 294
f 1 294 300
f 1 300 303
f 1 303 299
f 1 299 292
f 1 292 287
f 1 287 271
f 1 271 270
f 1 270 252
f 1 252 236
f 1 236 235
f 1 235 218
f 1 218 217
f 1 217 197
f 1 197 172
f 1 172 144
f 1 144 113
f 1 113 112
f 1 112 90
f 1 90 88
f 1 88 66
f 1 66 47
f 1 47 30
f 1 30 16
f 1 16 7
f 1 7 3
f 1 3 10
f 1 10 18
f 1 18 19
f 1 19 11
f 1 11 4
f 1 4 6
f 1 6 2
f 2 6 5
f 3 7 8
f 3 8 9
f 3 9 10
f 4 11 12
f 4 12 13
f 4 13 6
f 5 6 15
f 5 15 14
f 6 13 15
f 7 16 17
f 7 17 8
f 8 17 31
f 8 31 48
f 8 48 67
f 8 67 89
f 8 89 111
f 8 111 143
f 8 143 171
f 8 171 196
f 8 196 216
f 8 216 234
f 8 234 251
f 8 251 269
f 8 269 286
f 8 286 291
f 8 291 298
f 8 298 302
f 8 302 306
f 8 306 305
f 8 305 304
f 8 304 301
f 8 301 296
f 8 296 295
f 8 295 293
f 8 293 288
f 8 288 272
f 8 272 254
f 8 254 253
f 8 253 237
f 8 237 220
f 8 220 200
f 8 200 179
f 8 179 155
f 8 155 147
f 8 147 146
f 8 146 118
f 8 118 145
f 8 145 114
f 8 114 91
f 8 91 68
f 8 68 49
f 8 49 33
f 8 33 32
f 8 32 18
f 8 18 10
f 8 10 9
f 11 19 20
f 11 20 12
f 12 20 21
f 12 21 22
f 12 22 23
f 12 23 24
f 12 24 13
f 13 24 25
f 13 25 26
f 13 26 15
f 14 15 27
f 15 26 28
f 15 28 29
f 15 29 27
f 16 30 17
f 17 30 31
f 18 32 19
f 19 32 22
f 19 22 21
f 19 21 20
f 22 32 33
f 22 33 34
f 22 34 23
f 23 34 24
f 24 34 35
f 24 35 36
f 24 36 37
f 24 37 38
f 24 38 25
f 25 39 40
f 25 40 41
f 25 41 26
f 25 38 39
f 26 41 42
f 26 42 28
f 27 29 44
f 27 44 43
f 28 45 29
f 28 42 46
f 28 46 45
f 29 45 63
f 29 63 44
f 30 47 48
f 30 48 31
f 33 49 36
f 33 36 35
f 33 35 34
f 36 49 50
f 36 50 51
f 36 51 52
f 36 52 37
f 37 52 38
f 38 52 51
f 38 51 50
f 38 50 53
f 38 53 39
f 39 54 55
f 39 55 40
f 39 53 56
f 39 56 54
f 40 55 57
f 40 57 41
f 41 57 58
f 41 58 42
f 42 58 59
f 42 59 60
f 42 60 46
f 43 61 62
f 43 44 63
f 43 63 61
f 45 46 64
f 45 64 81
f 45 81 63
f 46 60 65
f 46 65 64
f 47 66 48
f 48 66 67
f 49 68 50
f 50 68 56
f 50 56 53
f 54 56 69
f 54 69 70
f 54 70 71
f 54 71 55
f 55 72 73
f 55 73 74
f 55 74 75
f 55 75 57
f 55 71 72
f 56 68 69
f 57 75 76
f 57 76 77
f 57 77 58
f 58 77 59
f 59 77 78
f 59 78 79
f 59 79 80
f 59 80 60
f 60 80 65
f 61 63 81
f 61 81 62
f 62 82 83
f 62 81 84
f 62 84 82
f 64 85 86
f 64 86 104
f 64 104 81
f 64 65 85
f 65 80 87
f 65 87 85
f 66 88 67
f 67 88 90
f 67 90 89
f 68 91 69
f 69 91 70
f 70 91 92
f 70 92 71
f 71 92 93
f 71 93 72
f 72 93 73
f 73 94 95
f 73 95 96
f 73 96 74
f 73 93 94
f 74 96 75
f 75 96 97
f 75 97 98
f 75 98 99
f 75 99 100
f 75 100 76
f 76 100 77
f 77 100 78
f 78 100 101
f 78 101 79
f 79 102 103
f 79 103 80
f 79 101 102
f 80 103 87
f 81 104 84
f 82 105 83
f 82 84 106
f 82 106 105
f 83 105 107
f 84 104 106
f 85 108 109
f 85 109 86
f 85 87 108
f 86 109 104
f 87 110 108
f 87 103 110
f 89 90 112
f 89 112 113
f 89 113 111
f 91 114 92
f 92 114 115
f 92 115 116
f 92 116 93
f 93 116 115
f 93 115 117
f 93 117 94
f 94 117 95
f 95 97 96
f 95 117 118
f 95 118 119
f 95 119 97
f 97 119 120
f 97 120 121
f 97 121 98
f 98 122 99
f 98 121 123
f 98 123 124
f 98 124 122
f 99 125 126
f 99 126 100
f 99 122 125
f 100 126 101
f 101 126 127
f 101 127 128
f 101 128 102
f 102 128 129
f 102 129 130
f 102 130 131
f 102 131 103
f 103 131 110
f 104 109 132
f 104 132 105
f 104 105 106
f 105 132 107
f 107 132 133
f 108 134 109
f 108 110 134
f 109 134 135
f 109 135 136
f 109 136 137
f 109 137 160
f 109 160 138
f 109 138 161
f 109 161 139
f 109 139 140
f 109 140 132
f 110 131 141
f 110 141 142
f 110 142 134
f 111 113 144
f 111 144 143
f 114 145 115
f 115 145 118
f 115 118 117
f 118 146 120
f 118 120 119
f 120 146 147
f 120 147 121
f 121 148 149
f 121 149 123
f 121 147 150
f 121 150 148
f 122 151 177
f 122 177 152
f 122 152 125
f 122 124 153
f 122 153 173
f 122 173 151
f 123 149 148
f 123 148 124
f 124 154 153
f 124 148 150
f 124 150 147
f 124 147 155
f 124 155 154
f 125 152 126
f 126 152 177
f 126 177 156
f 126 156 157
f 126 157 127
f 127 157 158
f 127 158 129
f 127 129 128
f 129 158 159
f 129 159 130
f 130 159 142
f 130 142 131
f 131 142 141
f 132 140 133
f 134 142 135
f 135 142 136
f 136 142 137
f 137 142 160
f 138 160 162
f 138 162 163
f 138 163 164
f 138 164 165
f 138 165 161
f 139 161 183
f 139 183 166
f 139 166 140
f 140 166 167
f 140 167 168
f 142 159 169
f 142 169 170
f 142 170 162
f 142 162 160
f 143 144 172
f 143 172 197
f 143 197 171
f 151 173 174
f 151 174 175
f 151 175 176
f 151 176 177
f 153 154 178
f 153 178 173
f 154 155 179
f 154 179 178
f 156 177 176
f 156 176 180
f 156 180 157
f 157 180 181
f 157 181 182
f 157 182 158
f 158 182 159
f 159 182 169
f 161 165 183
f 162 184 163
f 162 170 184
f 163 184 185
f 163 185 164
f 164 185 186
f 164 186 187
f 164 187 188
f 164 188 165
f 165 188 187
f 165 187 189
f 165 189 190
f 165 190 191
f 165 191 183
f 166 183 191
f 166 191 167
f 167 191 192
f 167 192 168
f 169 193 170
f 169 182 194
f 169 194 193
f 170 193 195
f 170 195 184
f 171 197 196
f 173 178 174
f 174 198 199
f 174 199 175
f 174 178 179
f 174 179 200
f 174 200 198
f 175 199 201
f 175 201 202
f 175 202 203
f 175 203 176
f 176 203 180
f 180 204 205
f 180 205 181
f 180 203 204
f 181 205 194
f 181 194 182
f 184 206 207
f 184 207 185
f 184 195 206
f 185 207 208
f 185 208 209
f 185 209 186
f 186 209 210
f 186 210 211
f 186 211 212
f 186 212 187
f 190 192 191
f 193 213 195
f 193 194 213
f 194 205 214
f 194 214 213
f 195 213 215
f 195 215 206
f 196 197 217
f 196 217 218
f 196 218 216
f 198 200 201
f 198 201 219
f 198 219 199
f 199 219 201
f 200 220 221
f 200 221 201
f 201 221 202
f 202 222 203
f 202 221 223
f 202 223 224
f 202 224 222
f 203 222 225
f 203 225 226
f 203 226 227
f 203 227 204
f 204 227 205
f 205 227 214
f 206 228 207
f 206 215 228
f 207 228 229
f 207 229 208
f 208 229 209
f 209 229 230
f 209 230 210
f 210 212 211
f 213 231 215
f 213 214 232
f 213 232 231
f 214 227 232
f 215 231 233
f 215 233 228
f 216 218 235
f 216 235 236
f 216 236 234
f 220 237 238
f 220 238 239
f 220 239 224
f 220 224 223
f 220 223 221
f 222 240 225
f 222 224 240
f 224 239 240
f 225 240 226
f 226 241 227
f 226 240 242
f 226 242 243
f 226 243 244
f 226 244 245
f 226 245 246
f 226 246 241
f 227 241 232
f 228 233 247
f 228 247 229
f 229 247 248
f 229 248 230
f 230 248 247
f 231 232 246
f 231 246 249
f 231 249 233
f 232 241 246
f 233 249 250
f 233 250 265
f 233 265 247
f 234 236 252
f 234 252 251
f 237 253 238
f 238 253 254
f 238 254 255
f 238 255 256
f 238 256 239
f 239 256 240
f 240 256 242
f 242 256 243
f 243 256 257
f 243 257 258
f 243 258 244
f 244 259 245
f 244 258 260
f 244 260 259
f 245 259 261
f 245 261 262
f 245 262 263
f 245 263 246
f 246 263 264
f 246 264 249
f 249 264 266
f 249 266 267
f 249 267 250
f 250 267 268
f 250 268 265
f 251 252 270
f 251 270 271
f 251 271 269
f 254 272 260
f 254 260 258
f 254 258 255
f 255 258 257
f 255 257 256
f 259 260 261
f 260 272 273
f 260 273 261
f 261 273 262
f 262 273 263
f 263 273 274
f 263 274 275
f 263 275 276
f 263 276 264
f 264 276 277
f 264 277 278
f 264 278 279
f 264 279 280
f 264 280 266
f 266 280 281
f 266 281 282
f 266 282 283
f 266 283 284
f 266 284 267
f 267 285 268
f 267 284 289
f 267 289 293
f 267 293 295
f 267 295 290
f 267 290 285
f 269 271 286
f 271 287 286
f 272 277 273
f 272 288 277
f 273 277 274
f 274 277 275
f 275 277 276
f 277 288 278
f 278 288 281
f 278 281 279
f 279 281 280
f 281 288 289
f 281 289 282
f 282 289 283
f 283 289 284
f 286 287 292
f 286 292 291
f 288 293 289
f 290 295 296
f 290 296 297
f 290 297 294
f 291 292 299
f 291 299 298
f 294 297 301
f 294 301 300
f 296 301 297
f 298 299 302
f 299 303 302
f 300 301 304
f 300 304 305
f 300 305 303
f 302 303 306
f 303 305 306

