# https://github.com/mikedh/trimesh
v -0.01551233 -0.00959004 0.00306245
v -0.01551594 -0.00959004 0.00361926
v -0.01672619 -0.01166041 0.00361926
v -0.01672499 -0.01166041 0.00306661
v -0.01551233 -0.00959004 -0.00306245
v -0.01556654 -0.00959004 0.00392675
v -0.01672860 -0.01166041 0.00362757
v -0.01672499 -0.01166041 -0.00306245
v -0.01672619 -0.01166041 -0.00361926
v -0.01551594 -0.00959004 -0.00361926
v -0.01561353 -0.00959004 0.00403791
v -0.01689608 -0.01166041 0.00418542
v -0.01682921 -0.01166041 -0.00396623
v -0.01561353 -0.00959004 -0.00403791
v -0.01571594 -0.00959004 0.00419165
v -0.01697921 -0.01166041 0.00431216
v -0.01689608 -0.01166041 -0.00418542
v -0.01716415 -0.01166041 -0.00454901
v -0.01578462 -0.00959004 -0.00426957
v -0.01578462 -0.00959004 0.00426957
v -0.01716415 -0.01166041 0.00454901
v -0.01747982 -0.01166041 -0.00484819
v -0.01604486 -0.00959004 -0.00454174
v -0.01602498 -0.00959004 0.00452408
v -0.01730210 -0.01166041 0.00468198
v -0.01773885 -0.01166041 -0.00507881
v -0.01636896 -0.00959004 -0.00480456
v -0.01604486 -0.00959004 0.00454174
v -0.01761054 -0.01166041 0.00496869
v -0.01747982 -0.01166041 0.00484819
v -0.01807922 -0.01166041 -0.00521490
v -0.01697620 -0.00959004 -0.00517542
v -0.01672740 -0.00959004 -0.00507258
v -0.01660631 -0.00959004 -0.00498947
v -0.01627619 -0.00959004 0.00473496
v -0.01773885 -0.01166041 0.00507881
v -0.01865694 -0.01166041 -0.00530631
v -0.01810030 -0.01141742 -0.00525437
v -0.01754367 -0.00974690 -0.00529281
v -0.01754367 -0.00959004 -0.00529696
v -0.01666896 -0.00959004 0.00504037
v -0.01672740 -0.00959004 0.00507258
v -0.01684306 -0.00959004 0.00513283
v -0.01783886 -0.01166041 0.00512660
v -0.01921357 -0.01166041 -0.00530631
v -0.01810030 -0.01030380 -0.00530631
v -0.01810030 -0.01086051 -0.00529593
v -0.01810030 -0.00959004 -0.00530631
v -0.01697620 -0.00959004 0.00517542
v -0.01807922 -0.01166041 0.00521490
v -0.01921357 -0.01086051 -0.00530631
v -0.01977080 -0.01166041 -0.00530424
v -0.01865694 -0.00974690 -0.00530527
v -0.01865694 -0.00959004 -0.00530216
v -0.01738705 -0.00959004 0.00528450
v -0.01810030 -0.01141742 0.00525437
v -0.01834368 -0.01166041 0.00527723
v -0.01977080 -0.01141742 -0.00530320
v -0.02032743 -0.01166041 -0.00526372
v -0.01921357 -0.01030380 -0.00529904
v -0.01921357 -0.00974690 -0.00527099
v -0.01921357 -0.00959004 -0.00525022
v -0.01754367 -0.00959004 0.00529696
v -0.01754367 -0.00974690 0.00529281
v -0.01810030 -0.01086051 0.00529592
v -0.01865694 -0.01166041 0.00530631
v -0.01977080 -0.01086051 -0.00528138
v -0.02085154 -0.01166041 -0.00512244
v -0.02032743 -0.01141742 -0.00524295
v -0.01977080 -0.01030380 -0.00522217
v -0.01971839 -0.00959004 -0.00509959
v -0.01794368 -0.00959004 0.00530631
v -0.01810030 -0.01030380 0.00530631
v -0.01945694 -0.01166041 0.00530631
v -0.02113106 -0.01166041 -0.00498324
v -0.02077925 -0.01141742 -0.00509959
v -0.02035514 -0.01084916 -0.00513283
v -0.01977984 -0.00976554 -0.00511517
v -0.02017864 -0.01030380 -0.00508193
v -0.02008346 -0.00996354 -0.00503518
v -0.01997141 -0.00959227 -0.00494273
v -0.01997081 -0.00959004 -0.00494169
v -0.01810030 -0.00959004 0.00530631
v -0.01921357 -0.01086051 0.00530631
v -0.01977080 -0.01166041 0.00530424
v -0.02117684 -0.01166041 -0.00493026
v -0.02055876 -0.01065603 -0.00497493
v -0.02066539 -0.01102730 -0.00504972
v -0.02129552 -0.01141742 -0.00462692
v -0.02022261 -0.00959004 -0.00464458
v -0.01850091 -0.00959004 0.00530527
v -0.01865694 -0.00974690 0.00530527
v -0.01977080 -0.01141742 0.00530320
v -0.02001358 -0.01166041 0.00529696
v -0.02137443 -0.01166041 -0.00469652
v -0.02119793 -0.01107817 -0.00450746
v -0.02069491 -0.01030380 -0.00457394
v -0.02061238 -0.01001441 -0.00446487
v -0.02042201 -0.00959004 -0.00417296
v -0.01865694 -0.00959004 0.00530216
v -0.01921357 -0.01030380 0.00529904
v -0.01977080 -0.01086051 0.00528138
v -0.02032743 -0.01166041 0.00526372
v -0.02161721 -0.01166041 -0.00417607
v -0.02124009 -0.01100602 -0.00417607
v -0.02063949 -0.00996719 -0.00417607
v -0.02047021 -0.00959004 -0.00361926
v -0.01905694 -0.00959004 0.00527723
v -0.01921357 -0.00974690 0.00527099
v -0.02032743 -0.01141742 0.00524398
v -0.02061238 -0.01166041 0.00519828
v -0.02163227 -0.01166041 -0.00400674
v -0.02166660 -0.01166041 -0.00361926
v -0.02152624 -0.01141742 -0.00361926
v -0.02110335 -0.01068561 -0.00361926
v -0.02047021 -0.00959004 0.00361926
v -0.01921357 -0.00959004 0.00525022
v -0.01977080 -0.01030380 0.00522217
v -0.02085093 -0.01166041 0.00512244
v -0.02166660 -0.01166041 0.00361926
v -0.02152624 -0.01141742 0.00361926
v -0.02110335 -0.01068561 0.00361926
v -0.02064009 -0.00996678 0.00417607
v -0.02046479 -0.00959004 0.00368159
v -0.01960755 -0.00959004 0.00514114
v -0.02035514 -0.01084896 0.00513283
v -0.02077864 -0.01141742 0.00509959
v -0.02107684 -0.01166041 0.00502064
v -0.02161721 -0.01166041 0.00417607
v -0.02061298 -0.01001380 0.00446487
v -0.02042141 -0.00959004 0.00417296
v -0.01971900 -0.00959004 0.00509959
v -0.01977984 -0.00976513 0.00511621
v -0.02017804 -0.01030380 0.00508193
v -0.02066539 -0.01102710 0.00504972
v -0.02008225 -0.00996313 0.00503518
v -0.02113045 -0.01166041 0.00498324
v -0.02156178 -0.01166041 0.00431320
v -0.02119732 -0.01107857 0.00450642
v -0.02069551 -0.01030380 0.00457394
v -0.02022201 -0.00959004 0.00464562
v -0.02038527 -0.00959004 0.00428203
v -0.01997201 -0.00959186 0.00494272
v -0.01997141 -0.00959004 0.00494169
v -0.02055936 -0.01065582 0.00497493
v -0.02129491 -0.01141742 0.00462588
v -0.02137443 -0.01166041 0.00469548
f 1 2 3
f 1 3 4
f 1 4 8
f 1 8 5
f 1 5 10
f 1 10 14
f 1 14 19
f 1 19 23
f 1 23 27
f 1 27 34
f 1 34 33
f 1 33 32
f 1 32 40
f 1 40 48
f 1 48 54
f 1 54 62
f 1 62 71
f 1 71 82
f 1 82 90
f 1 90 99
f 1 99 107
f 1 107 116
f 1 116 124
f 1 124 131
f 1 131 142
f 1 142 141
f 1 141 144
f 1 144 132
f 1 132 125
f 1 125 117
f 1 117 108
f 1 108 100
f 1 100 91
f 1 91 83
f 1 83 72
f 1 72 63
f 1 63 55
f 1 55 49
f 1 49 43
f 1 43 42
f 1 42 41
f 1 41 35
f 1 35 28
f 1 28 24
f 1 24 20
f 1 20 15
f 1 15 11
f 1 11 6
f 1 6 2
f 2 6 3
f 3 6 7
f 3 7 12
f 3 12 16
f 3 16 21
f 3 21 25
f 3 25 30
f 3 30 29
f 3 29 36
f 3 36 44
f 3 44 50
f 3 50 57
f 3 57 66
f 3 66 74
f 3 74 85
f 3 85 94
f 3 94 103
f 3 103 111
f 3 111 119
f 3 119 128
f 3 128 137
f 3 137 147
f 3 147 138
f 3 138 129
f 3 129 120
f 3 120 113
f 3 113 112
f 3 112 104
f 3 104 95
f 3 95 86
f 3 86 75
f 3 75 68
f 3 68 59
f 3 59 52
f 3 52 45
f 3 45 37
f 3 37 31
f 3 31 26
f 3 26 22
f 3 22 18
f 3 18 17
f 3 17 13
f 3 13 9
f 3 9 8
f 3 8 4
f 5 8 9
f 5 9 10
f 6 11 12
f 6 12 7
f 9 13 14
f 9 14 10
f 11 15 16
f 11 16 12
f 13 17 14
f 14 17 18
f 14 18 19
f 15 20 21
f 15 21 16
f 18 22 23
f 18 23 19
f 20 24 21
f 21 24 25
f 22 26 23
f 23 26 27
f 24 28 29
f 24 29 30
f 24 30 25
f 26 31 32
f 26 32 33
f 26 33 34
f 26 34 27
f 28 35 36
f 28 36 29
f 31 37 38
f 31 38 32
f 32 38 39
f 32 39 40
f 35 41 36
f 36 41 42
f 36 42 43
f 36 43 44
f 37 45 51
f 37 51 48
f 37 48 46
f 37 46 40
f 37 40 47
f 37 47 38
f 38 47 39
f 39 47 40
f 40 46 48
f 43 49 50
f 43 50 44
f 45 52 51
f 48 53 54
f 48 51 53
f 49 55 56
f 49 56 50
f 50 56 57
f 51 52 58
f 51 58 53
f 52 59 58
f 53 58 60
f 53 60 54
f 54 60 61
f 54 61 62
f 55 63 64
f 55 64 65
f 55 65 57
f 55 57 56
f 57 65 66
f 58 59 67
f 58 67 60
f 59 68 69
f 59 69 67
f 60 67 61
f 61 67 69
f 61 69 70
f 61 70 62
f 62 70 71
f 63 65 64
f 63 72 73
f 63 73 66
f 63 66 65
f 66 73 72
f 66 72 83
f 66 83 84
f 66 84 74
f 68 75 76
f 68 76 77
f 68 77 70
f 68 70 69
f 70 77 78
f 70 78 71
f 71 78 79
f 71 79 80
f 71 80 81
f 71 81 82
f 74 84 85
f 75 86 87
f 75 87 80
f 75 80 88
f 75 88 76
f 76 78 77
f 76 88 79
f 76 79 78
f 79 88 80
f 80 87 81
f 81 87 89
f 81 89 90
f 81 90 82
f 83 91 92
f 83 92 84
f 84 92 93
f 84 93 85
f 85 93 94
f 86 95 89
f 86 89 87
f 89 95 96
f 89 96 97
f 89 97 90
f 90 97 98
f 90 98 99
f 91 100 92
f 92 100 101
f 92 101 93
f 93 101 94
f 94 101 102
f 94 102 103
f 95 104 96
f 96 98 97
f 96 104 98
f 98 104 105
f 98 105 106
f 98 106 99
f 99 106 105
f 99 105 107
f 100 108 101
f 101 108 102
f 102 108 109
f 102 109 110
f 102 110 103
f 103 110 111
f 104 112 105
f 105 112 113
f 105 113 114
f 105 114 115
f 105 115 107
f 107 115 122
f 107 122 116
f 108 117 109
f 109 117 118
f 109 118 110
f 110 118 111
f 111 118 119
f 113 120 121
f 113 121 114
f 114 121 122
f 114 122 115
f 116 122 123
f 116 123 124
f 117 125 118
f 118 125 126
f 118 126 119
f 119 126 127
f 119 127 128
f 120 129 123
f 120 123 121
f 121 123 122
f 123 129 130
f 123 130 131
f 123 131 124
f 125 132 133
f 125 133 127
f 125 127 126
f 127 133 134
f 127 134 135
f 127 135 128
f 128 135 136
f 128 136 137
f 129 138 139
f 129 139 130
f 130 139 140
f 130 140 141
f 130 141 142
f 130 142 131
f 132 143 136
f 132 136 134
f 132 134 133
f 132 144 143
f 134 136 135
f 136 143 145
f 136 145 137
f 137 145 146
f 137 146 147
f 138 147 139
f 139 147 146
f 139 146 140
f 140 146 143
f 140 143 141
f 141 143 144
f 143 146 145

