# https://github.com/mikedh/trimesh
v -0.01088822 -0.02454883 -0.00361926
v -0.01339472 -0.02454804 -0.00361926
v -0.01339472 -0.02452670 -0.00404726
v -0.01088822 -0.02452710 -0.00404934
v -0.01088822 -0.02454883 0.00361926
v -0.01339472 -0.02454804 0.00361926
v -0.01339472 -0.02448482 -0.00432566
v -0.01088822 -0.02448521 -0.00432774
v -0.01088822 -0.02452710 0.00404414
v -0.01339472 -0.02452670 0.00404103
v -0.01339472 -0.02425641 -0.00473392
v -0.01088822 -0.02447375 -0.00434852
v -0.01253092 -0.02448482 -0.00432670
v -0.01088822 -0.02448363 0.00432255
v -0.01141706 -0.02448363 0.00432255
v -0.01308773 -0.02452670 0.00404206
v -0.01339472 -0.02448324 0.00431943
v -0.01339472 -0.02399837 -0.00505180
v -0.01308773 -0.02399876 -0.00505180
v -0.01253092 -0.02425680 -0.00473392
v -0.01088822 -0.02425720 -0.00473392
v -0.01088822 -0.02426866 0.00471314
v -0.01141706 -0.02425720 0.00473392
v -0.01253092 -0.02425680 0.00473392
v -0.01339472 -0.02425641 0.00473392
v -0.01308773 -0.02448324 0.00432047
v -0.01339472 -0.02381738 -0.00512971
v -0.01253092 -0.02366998 -0.00519412
v -0.01088822 -0.02398256 -0.00505907
v -0.01088822 -0.02399876 -0.00505180
v -0.01088822 -0.02425720 0.00473392
v -0.01088822 -0.02401338 0.00503726
v -0.01308773 -0.02400034 0.00505284
v -0.01339472 -0.02399995 0.00505284
v -0.01339472 -0.02366998 -0.00519308
v -0.01088822 -0.02366998 -0.00519412
v -0.01339472 -0.02311280 -0.00530112
v -0.01088822 -0.02400034 0.00505284
v -0.01088822 -0.02368658 0.00518789
v -0.01339472 -0.02385215 0.00511621
v -0.01088822 -0.02311280 -0.00530112
v -0.01339472 -0.02255601 -0.00530631
v -0.01088822 -0.02366998 0.00519412
v -0.01339472 -0.02366998 0.00519412
v -0.01308773 -0.02255601 -0.00530631
v -0.01253092 -0.02255601 -0.00529593
v -0.01088822 -0.02308514 -0.00529696
v -0.01339472 -0.02224936 -0.00528761
v -0.01088822 -0.02314086 0.00529489
v -0.01339472 -0.02342024 0.00524191
v -0.01197411 -0.02255601 -0.00526580
v -0.01088822 -0.02255601 -0.00519204
v -0.01339472 -0.02197946 -0.00522632
v -0.01088822 -0.02311280 0.00530008
v -0.01339472 -0.02311280 0.00530008
v -0.01339472 -0.02171984 -0.00514114
v -0.01088822 -0.02253823 -0.00518477
v -0.01308773 -0.02255601 0.00530631
v -0.01339472 -0.02286306 0.00530320
v -0.01088822 -0.02255601 0.00519204
v -0.01197411 -0.02255601 0.00526580
v -0.01253092 -0.02255601 0.00529592
v -0.01339472 -0.02161156 -0.00509128
v -0.01088822 -0.02224225 -0.00504557
v -0.01339472 -0.02255601 0.00530631
v -0.01339472 -0.02197946 0.00522632
v -0.01088822 -0.02224225 0.00504557
v -0.01339472 -0.02161156 0.00509128
v -0.01339472 -0.02149262 -0.00500090
v -0.01339472 -0.02135154 -0.00487832
v -0.01339472 -0.02115475 -0.00470691
v -0.01339472 -0.02099313 -0.00455732
v -0.01088822 -0.02222802 -0.00503206
v -0.01339472 -0.02135154 0.00487832
v -0.01088822 -0.02196366 0.00477028
v -0.01339472 -0.02099313 0.00455732
v -0.01339472 -0.02083546 -0.00438072
v -0.01088822 -0.02168348 -0.00449188
v -0.01088822 -0.02194943 -0.00475678
v -0.01088822 -0.02169771 0.00450642
v -0.01088822 -0.02168348 0.00449187
v -0.01339472 -0.02074497 0.00425710
v -0.01339472 -0.02074497 -0.00425710
v -0.01088822 -0.02167124 -0.00447422
v -0.01088822 -0.02148076 0.00417607
v -0.01339472 -0.02056912 0.00398493
v -0.01339472 -0.02066949 -0.00414802
v -0.01088822 -0.02148076 -0.00417607
v -0.01088822 -0.02132349 0.00364731
v -0.01088822 -0.02131519 0.00361926
v -0.01331864 -0.02058334 0.00394338
v -0.01339472 -0.02051340 0.00361926
v -0.01339472 -0.02056912 -0.00398493
v -0.01088822 -0.02147247 -0.00414906
v -0.01339472 -0.02051182 0.00306245
v -0.01088822 -0.02131519 -0.00361926
v -0.01339472 -0.02053395 -0.00386754
v -0.01339472 -0.02051182 -0.00306245
v -0.01339472 -0.02051340 -0.00361926
f 1 2 3
f 1 3 4
f 1 4 8
f 1 8 12
f 1 12 21
f 1 21 30
f 1 30 29
f 1 29 36
f 1 36 41
f 1 41 47
f 1 47 52
f 1 52 57
f 1 57 64
f 1 64 73
f 1 73 79
f 1 79 78
f 1 78 84
f 1 84 88
f 1 88 94
f 1 94 96
f 1 96 90
f 1 90 89
f 1 89 85
f 1 85 81
f 1 81 80
f 1 80 75
f 1 75 67
f 1 67 60
f 1 60 54
f 1 54 49
f 1 49 43
f 1 43 39
f 1 39 38
f 1 38 32
f 1 32 31
f 1 31 22
f 1 22 14
f 1 14 9
f 1 9 5
f 1 5 6
f 1 6 2
f 2 6 10
f 2 10 17
f 2 17 25
f 2 25 34
f 2 34 40
f 2 40 44
f 2 44 50
f 2 50 55
f 2 55 59
f 2 59 65
f 2 65 66
f 2 66 68
f 2 68 74
f 2 74 76
f 2 76 82
f 2 82 86
f 2 86 92
f 2 92 95
f 2 95 98
f 2 98 99
f 2 99 97
f 2 97 93
f 2 93 87
f 2 87 83
f 2 83 77
f 2 77 72
f 2 72 71
f 2 71 70
f 2 70 69
f 2 69 63
f 2 63 56
f 2 56 53
f 2 53 48
f 2 48 42
f 2 42 37
f 2 37 35
f 2 35 27
f 2 27 18
f 2 18 11
f 2 11 7
f 2 7 3
f 3 7 8
f 3 8 4
f 5 9 10
f 5 10 6
f 7 11 12
f 7 12 13
f 7 13 8
f 8 13 12
f 9 14 15
f 9 15 16
f 9 16 10
f 10 16 26
f 10 26 17
f 11 18 19
f 11 19 20
f 11 20 12
f 12 20 21
f 14 22 15
f 15 22 23
f 15 23 24
f 15 24 25
f 15 25 26
f 15 26 16
f 17 26 25
f 18 27 28
f 18 28 19
f 19 29 30
f 19 30 21
f 19 21 20
f 19 28 29
f 22 31 23
f 23 31 32
f 23 32 33
f 23 33 24
f 24 33 25
f 25 33 34
f 27 35 28
f 28 36 29
f 28 35 37
f 28 37 41
f 28 41 36
f 32 38 33
f 33 38 39
f 33 39 40
f 33 40 34
f 37 42 45
f 37 45 41
f 39 43 44
f 39 44 40
f 41 45 46
f 41 46 47
f 42 48 45
f 43 49 50
f 43 50 44
f 45 48 46
f 46 48 51
f 46 51 47
f 47 51 52
f 48 53 51
f 49 54 55
f 49 55 50
f 51 53 52
f 52 53 56
f 52 56 57
f 54 58 59
f 54 59 55
f 54 60 61
f 54 61 62
f 54 62 58
f 56 63 57
f 57 63 64
f 58 65 59
f 58 62 66
f 58 66 65
f 60 66 61
f 60 67 68
f 60 68 66
f 61 66 62
f 63 69 64
f 64 69 70
f 64 70 71
f 64 71 72
f 64 72 73
f 67 74 68
f 67 75 76
f 67 76 74
f 72 77 78
f 72 78 79
f 72 79 73
f 75 80 76
f 76 80 81
f 76 81 82
f 77 83 78
f 78 83 84
f 81 85 86
f 81 86 82
f 83 87 84
f 84 87 88
f 85 89 86
f 86 89 90
f 86 90 91
f 86 91 92
f 87 93 88
f 88 93 94
f 90 95 92
f 90 92 91
f 90 96 98
f 90 98 95
f 93 97 94
f 94 97 96
f 96 97 99
f 96 99 98

