# https://github.com/mikedh/trimesh
v -0.00521896 0.00089083 0.00306245
v -0.00671340 0.00325756 0.00306245
v -0.00671430 0.00325756 0.00361926
v -0.00522166 0.00089083 0.00361719
v -0.00521896 0.00089083 -0.00306765
v -0.00671340 0.00325756 -0.00307388
v -0.00682413 0.00325756 0.00400051
v -0.00522256 0.00089176 0.00361926
v -0.00537831 0.00089083 0.00410128
v -0.00522166 0.00089083 -0.00362030
v -0.00671430 0.00325756 -0.00361926
v -0.00688715 0.00325756 0.00419477
v -0.00714822 0.00325756 0.00454070
v -0.00548454 0.00089083 0.00423529
v -0.00671520 0.00325756 -0.00362342
v -0.00537831 0.00089083 -0.00410128
v -0.00688715 0.00325756 -0.00419477
v -0.00577982 0.00089083 0.00452304
v -0.00744081 0.00325756 0.00481910
v -0.00541162 0.00089083 -0.00415218
v -0.00697357 0.00325756 -0.00431424
v -0.00588155 0.00089083 0.00461861
v -0.00772169 0.00325756 0.00507362
v -0.00548454 0.00089083 -0.00423529
v -0.00714822 0.00325756 -0.00454070
v -0.00625246 0.00089083 0.00490533
v -0.00653514 0.00089083 0.00509751
v -0.00806019 0.00325756 0.00521282
v -0.00561778 0.00089083 -0.00438695
v -0.00723825 0.00325756 -0.00463004
v -0.00696097 0.00089083 0.00524294
v -0.00863275 0.00325756 0.00530631
v -0.00807549 0.00306271 0.00524398
v -0.00588155 0.00089083 -0.00461861
v -0.00772169 0.00325756 -0.00507362
v -0.00757494 0.00325756 -0.00494376
v -0.00744081 0.00325756 -0.00481911
v -0.00807549 0.00250572 0.00529177
v -0.00751913 0.00139198 0.00528865
v -0.00751913 0.00089083 0.00530424
v -0.00807549 0.00194897 0.00530631
v -0.01086000 0.00325756 0.00530631
v -0.00591756 0.00089083 -0.00464874
v -0.00653514 0.00089083 -0.00509751
v -0.00655945 0.00089083 -0.00511101
v -0.00780361 0.00325756 -0.00511517
v -0.00630288 0.00089083 -0.00494480
v -0.00807549 0.00089083 0.00530631
v -0.01122190 0.00325756 0.00530320
v -0.01141636 0.00250572 0.00530631
v -0.00696097 0.00089083 -0.00524295
v -0.00806019 0.00325756 -0.00521282
v -0.01197362 0.00089083 0.00530631
v -0.01141636 0.00325756 0.00529489
v -0.01141636 0.00306271 0.00530216
v -0.01197362 0.00194897 0.00530424
v -0.01247507 0.00089083 0.00530527
v -0.01197362 0.00139198 0.00530631
v -0.00701768 0.00089083 -0.00525853
v -0.00807549 0.00306271 -0.00524398
v -0.00827085 0.00325756 -0.00526580
v -0.01177826 0.00325756 0.00525437
v -0.01197362 0.00250572 0.00528865
v -0.01253088 0.00139198 0.00529592
v -0.01253088 0.00089083 0.00530424
v -0.00751913 0.00139198 -0.00528865
v -0.00807549 0.00250572 -0.00529177
v -0.00751913 0.00089083 -0.00530424
v -0.00863275 0.00325756 -0.00530631
v -0.01198172 0.00325756 0.00520347
v -0.01197362 0.00306271 0.00524087
v -0.01253088 0.00194897 0.00525853
v -0.01303143 0.00089083 0.00527515
v -0.00757494 0.00089083 -0.00530631
v -0.01086000 0.00325756 -0.00530631
v -0.01308724 0.00139198 0.00520139
v -0.01227341 0.00325756 0.00510894
v -0.01308724 0.00089083 0.00526580
v -0.01197362 0.00089083 -0.00530631
v -0.01141636 0.00250572 -0.00530631
v -0.01141636 0.00306271 -0.00530216
v -0.01141636 0.00325756 -0.00529489
v -0.01358689 0.00089083 0.00512867
v -0.01236253 0.00325756 0.00507258
v -0.01241835 0.00306271 0.00509751
v -0.01197362 0.00139198 -0.00530631
v -0.01253088 0.00089083 -0.00530424
v -0.01197362 0.00194897 -0.00530424
v -0.01253088 0.00139198 -0.00529593
v -0.01197362 0.00250572 -0.00528865
v -0.01197362 0.00306271 -0.00523983
v -0.01198172 0.00325756 -0.00520243
v -0.01363190 0.00089083 0.00511205
v -0.01278926 0.00275410 0.00499778
v -0.01337713 0.00169040 0.00501960
v -0.01289189 0.00238293 0.00506219
v -0.01249937 0.00325756 0.00497389
v -0.01345815 0.00139198 0.00506427
v -0.01308724 0.00089083 -0.00526580
v -0.01253088 0.00194897 -0.00525853
v -0.01308724 0.00139198 -0.00520139
v -0.01257500 0.00254395 -0.00514633
v -0.01241835 0.00306271 -0.00509647
v -0.01236163 0.00325756 -0.00507154
v -0.01388127 0.00089083 0.00497285
v -0.01263351 0.00325756 0.00483988
v -0.01384977 0.00099694 0.00494792
v -0.01363100 0.00089083 -0.00511101
v -0.01345815 0.00139198 -0.00506531
v -0.01289099 0.00238409 -0.00506115
v -0.01337803 0.00169202 -0.00502064
v -0.01279016 0.00275526 -0.00499882
v -0.01263351 0.00325756 -0.00483988
v -0.01401091 0.00089083 0.00482845
v -0.01278656 0.00325756 0.00466120
v -0.01401001 0.00126710 0.00457706
v -0.01413605 0.00089083 0.00468094
v -0.01373363 0.00089083 -0.00504868
v -0.01384796 0.00099509 -0.00494688
v -0.01401091 0.00126733 -0.00457498
v -0.01342574 0.00233103 -0.00454070
v -0.01293510 0.00306271 -0.00461965
v -0.01278116 0.00325756 -0.00466640
v -0.01287928 0.00325756 0.00455005
v -0.01293510 0.00306271 0.00461861
v -0.01342484 0.00233033 0.00454070
v -0.01390378 0.00163827 0.00435163
v -0.01436291 0.00089083 0.00418854
v -0.01400911 0.00089083 -0.00482845
v -0.01436561 0.00089083 -0.00417607
v -0.01390378 0.00163850 -0.00435163
v -0.01413605 0.00089083 -0.00467990
v -0.01287928 0.00325756 -0.00455109
v -0.01295220 0.00325756 0.00436722
v -0.01436561 0.00089083 0.00417607
v -0.01299812 0.00325756 0.00417607
v -0.01393619 0.00169434 0.00398077
v -0.01441513 0.00089083 -0.00361926
v -0.01435841 0.00090427 -0.00417607
v -0.01405683 0.00142859 -0.00417088
v -0.01299812 0.00325756 -0.00417607
v -0.01441513 0.00089083 0.00361926
v -0.01302333 0.00325756 0.00389040
v -0.01304673 0.00325756 0.00361926
v -0.01304673 0.00325756 -0.00361926
v -0.01393619 0.00169434 -0.00398077
v -0.01301972 0.00325756 -0.00393091
f 1 2 3
f 1 3 4
f 1 4 9
f 1 9 14
f 1 14 18
f 1 18 22
f 1 22 26
f 1 26 27
f 1 27 31
f 1 31 40
f 1 40 48
f 1 48 53
f 1 53 57
f 1 57 65
f 1 65 73
f 1 73 78
f 1 78 83
f 1 83 93
f 1 93 105
f 1 105 114
f 1 114 117
f 1 117 128
f 1 128 135
f 1 135 142
f 1 142 138
f 1 138 130
f 1 130 132
f 1 132 129
f 1 129 118
f 1 118 108
f 1 108 99
f 1 99 87
f 1 87 79
f 1 79 74
f 1 74 68
f 1 68 59
f 1 59 51
f 1 51 45
f 1 45 44
f 1 44 47
f 1 47 43
f 1 43 34
f 1 34 29
f 1 29 24
f 1 24 20
f 1 20 16
f 1 16 10
f 1 10 5
f 1 5 6
f 1 6 2
f 2 6 11
f 2 11 15
f 2 15 17
f 2 17 21
f 2 21 25
f 2 25 30
f 2 30 37
f 2 37 36
f 2 36 35
f 2 35 46
f 2 46 52
f 2 52 61
f 2 61 69
f 2 69 75
f 2 75 82
f 2 82 92
f 2 92 104
f 2 104 113
f 2 113 123
f 2 123 133
f 2 133 141
f 2 141 147
f 2 147 145
f 2 145 144
f 2 144 143
f 2 143 136
f 2 136 134
f 2 134 124
f 2 124 115
f 2 115 106
f 2 106 97
f 2 97 84
f 2 84 77
f 2 77 70
f 2 70 62
f 2 62 54
f 2 54 49
f 2 49 42
f 2 42 32
f 2 32 28
f 2 28 23
f 2 23 19
f 2 19 13
f 2 13 12
f 2 12 7
f 2 7 3
f 3 7 8
f 3 8 4
f 4 8 9
f 5 10 11
f 5 11 6
f 7 12 9
f 7 9 8
f 9 12 13
f 9 13 14
f 10 15 11
f 10 16 17
f 10 17 15
f 13 18 14
f 13 19 18
f 16 20 17
f 17 20 21
f 18 19 22
f 19 23 22
f 20 24 25
f 20 25 21
f 22 23 26
f 23 27 26
f 23 28 27
f 24 29 25
f 25 29 30
f 27 28 31
f 28 32 33
f 28 33 31
f 29 34 35
f 29 35 36
f 29 36 37
f 29 37 30
f 31 33 38
f 31 38 39
f 31 39 40
f 32 41 40
f 32 40 39
f 32 39 38
f 32 38 33
f 32 42 50
f 32 50 58
f 32 58 53
f 32 53 48
f 32 48 41
f 34 43 35
f 35 44 45
f 35 45 46
f 35 43 47
f 35 47 44
f 40 41 48
f 42 49 50
f 45 51 52
f 45 52 46
f 49 54 55
f 49 55 56
f 49 56 50
f 50 56 57
f 50 57 58
f 51 59 52
f 52 59 60
f 52 60 61
f 53 58 57
f 54 62 63
f 54 63 55
f 55 63 64
f 55 64 56
f 56 64 65
f 56 65 57
f 59 66 67
f 59 67 61
f 59 61 60
f 59 68 66
f 61 67 69
f 62 70 71
f 62 71 72
f 62 72 63
f 63 72 73
f 63 73 64
f 64 73 65
f 66 68 69
f 66 69 67
f 68 74 69
f 69 74 79
f 69 79 86
f 69 86 80
f 69 80 75
f 70 76 71
f 70 77 76
f 71 76 72
f 72 78 73
f 72 76 78
f 75 80 81
f 75 81 82
f 76 77 83
f 76 83 78
f 77 84 85
f 77 85 83
f 79 87 86
f 80 86 87
f 80 87 88
f 80 88 81
f 81 88 89
f 81 89 90
f 81 90 82
f 82 90 91
f 82 91 92
f 83 85 93
f 84 94 95
f 84 95 96
f 84 96 85
f 84 97 94
f 85 96 98
f 85 98 93
f 87 99 89
f 87 89 88
f 89 99 90
f 90 99 100
f 90 100 91
f 91 100 101
f 91 101 92
f 92 101 102
f 92 102 103
f 92 103 104
f 93 98 105
f 94 97 106
f 94 106 107
f 94 107 95
f 95 98 96
f 95 107 105
f 95 105 98
f 99 108 101
f 99 101 100
f 101 108 103
f 101 103 102
f 103 108 109
f 103 109 104
f 104 109 110
f 104 110 111
f 104 111 112
f 104 112 113
f 105 107 114
f 106 115 107
f 107 115 116
f 107 116 117
f 107 117 114
f 108 118 109
f 109 118 119
f 109 119 111
f 109 111 110
f 111 119 112
f 112 119 120
f 112 120 121
f 112 121 122
f 112 122 113
f 113 122 123
f 115 124 125
f 115 125 126
f 115 126 116
f 116 126 127
f 116 127 128
f 116 128 117
f 118 129 119
f 119 129 120
f 120 130 131
f 120 131 121
f 120 129 132
f 120 132 130
f 121 133 122
f 121 131 133
f 122 133 123
f 124 134 126
f 124 126 125
f 126 134 127
f 127 135 128
f 127 134 136
f 127 136 137
f 127 137 135
f 130 138 139
f 130 139 131
f 131 139 140
f 131 140 141
f 131 141 133
f 135 137 142
f 136 143 137
f 137 143 144
f 137 144 142
f 138 142 144
f 138 144 145
f 138 145 146
f 138 146 139
f 139 146 140
f 140 146 141
f 141 146 147
f 145 147 146

