# https://github.com/mikedh/trimesh
v 0.01467803 -0.00873939 -0.00306349
v 0.01297659 -0.00765317 -0.00306245
v 0.01297659 -0.00765159 -0.00361926
v 0.01467803 -0.00873663 -0.00361926
v 0.01467803 -0.00873939 0.00306141
v 0.01297659 -0.00765317 0.00306245
v 0.01297659 -0.00763546 -0.00368679
v 0.01467803 -0.00873624 -0.00362238
v 0.01467803 -0.00873663 0.00361926
v 0.01297659 -0.00765159 0.00361926
v 0.01297659 -0.00765199 0.00353927
v 0.01297659 -0.00748433 -0.00416257
v 0.01334270 -0.00780902 -0.00392156
v 0.01467803 -0.00856780 -0.00413036
v 0.01467803 -0.00856780 0.00413036
v 0.01334270 -0.00780902 0.00392156
v 0.01297659 -0.00748433 0.00416257
v 0.01297659 -0.00744930 -0.00421866
v 0.01467803 -0.00853434 -0.00418127
v 0.01467803 -0.00846075 0.00426853
v 0.01297659 -0.00739224 0.00429658
v 0.01297659 -0.00726315 -0.00447318
v 0.01467803 -0.00846075 -0.00426853
v 0.01467803 -0.00816873 0.00454901
v 0.01456726 -0.00828601 0.00437657
v 0.01297659 -0.00705496 0.00466536
v 0.01297659 -0.00693965 -0.00477651
v 0.01467803 -0.00833127 -0.00441812
v 0.01467803 -0.00802232 0.00468094
v 0.01297659 -0.00687196 0.00483676
v 0.01297659 -0.00697389 0.00474431
v 0.01297659 -0.00668265 -0.00501025
v 0.01467803 -0.00796841 -0.00472769
v 0.01467803 -0.00779209 0.00486377
v 0.01323676 -0.00673775 0.00505699
v 0.01297659 -0.00654097 0.00508297
v 0.01467803 -0.00745678 -0.00510270
v 0.01467803 -0.00770315 -0.00493441
v 0.01297659 -0.00642566 -0.00515465
v 0.01467803 -0.00763939 0.00497389
v 0.01467803 -0.00745678 0.00510270
v 0.01297659 -0.00642566 0.00515464
v 0.01467803 -0.00740956 -0.00512348
v 0.01297659 -0.00634616 -0.00517958
v 0.01467803 -0.00696641 0.00525853
v 0.01364501 -0.00640520 0.00526372
v 0.01297659 -0.00584831 0.00530320
v 0.01467803 -0.00696641 -0.00525853
v 0.01297659 -0.00584831 -0.00530320
v 0.01364501 -0.00640520 -0.00526372
v 0.01467803 -0.00640520 0.00530527
v 0.01420183 -0.00640520 0.00530320
v 0.01308802 -0.00584831 0.00530631
v 0.01297659 -0.00529143 0.00530631
v 0.01467803 -0.00688101 -0.00527827
v 0.01420183 -0.00640520 -0.00530320
v 0.01297659 -0.00573693 -0.00530631
v 0.01308802 -0.00584831 -0.00530631
v 0.01467803 -0.00584831 0.00530631
v 0.01297659 -0.00471959 0.00530631
v 0.01467803 -0.00640520 -0.00530527
v 0.01297659 -0.00471959 -0.00530631
v 0.01467803 -0.00632452 -0.00530631
v 0.01467803 -0.00472156 0.00530631
v 0.01421698 -0.00471959 0.00530631
v 0.01467803 -0.00471959 -0.00530631
v 0.01467803 -0.00471959 0.00485546
f 1 2 3
f 1 3 4
f 1 4 8
f 1 8 14
f 1 14 19
f 1 19 23
f 1 23 28
f 1 28 33
f 1 33 38
f 1 38 37
f 1 37 43
f 1 43 48
f 1 48 55
f 1 55 61
f 1 61 63
f 1 63 66
f 1 66 67
f 1 67 64
f 1 64 59
f 1 59 51
f 1 51 45
f 1 45 41
f 1 41 40
f 1 40 34
f 1 34 29
f 1 29 24
f 1 24 20
f 1 20 15
f 1 15 9
f 1 9 5
f 1 5 6
f 1 6 2
f 2 6 11
f 2 11 10
f 2 10 17
f 2 17 21
f 2 21 26
f 2 26 31
f 2 31 30
f 2 30 36
f 2 36 42
f 2 42 47
f 2 47 54
f 2 54 60
f 2 60 62
f 2 62 57
f 2 57 49
f 2 49 44
f 2 44 39
f 2 39 32
f 2 32 27
f 2 27 22
f 2 22 18
f 2 18 12
f 2 12 7
f 2 7 3
f 3 7 8
f 3 8 4
f 5 9 10
f 5 10 11
f 5 11 6
f 7 12 13
f 7 13 8
f 8 13 14
f 9 15 16
f 9 16 10
f 10 16 17
f 12 18 14
f 12 14 13
f 14 18 19
f 15 17 16
f 15 20 21
f 15 21 17
f 18 22 19
f 19 22 23
f 20 24 25
f 20 25 26
f 20 26 21
f 22 27 28
f 22 28 23
f 24 29 30
f 24 30 31
f 24 31 25
f 25 31 26
f 27 32 28
f 28 32 33
f 29 34 30
f 30 34 35
f 30 35 36
f 32 37 38
f 32 38 33
f 32 39 37
f 34 40 35
f 35 40 41
f 35 41 42
f 35 42 36
f 37 39 43
f 39 44 43
f 41 45 42
f 42 45 46
f 42 46 47
f 43 44 48
f 44 49 50
f 44 50 48
f 45 51 52
f 45 52 47
f 45 47 46
f 47 53 54
f 47 52 53
f 48 50 55
f 49 56 55
f 49 55 50
f 49 57 58
f 49 58 56
f 51 59 53
f 51 53 52
f 53 59 64
f 53 64 65
f 53 65 60
f 53 60 54
f 55 56 61
f 56 58 61
f 57 62 66
f 57 66 63
f 57 63 58
f 58 63 61
f 60 65 67
f 60 67 66
f 60 66 62
f 64 67 65

