# https://github.com/mikedh/trimesh
v 0.00467942 0.01125975 -0.00314244
v 0.00315382 0.01226753 -0.00306245
v 0.00315382 0.01226843 -0.00361926
v 0.00467942 0.01126244 -0.00361926
v 0.00467942 0.01125975 0.00306245
v 0.00315382 0.01226753 0.00328580
v 0.00315382 0.01228279 -0.00379690
v 0.00467942 0.01126962 -0.00366393
v 0.00467942 0.01126154 0.00354239
v 0.00315382 0.01226843 0.00361926
v 0.00315382 0.01238599 -0.00408466
v 0.00329257 0.01222805 -0.00394442
v 0.00467942 0.01145359 -0.00415945
v 0.00467942 0.01126244 0.00361926
v 0.00329257 0.01222805 0.00394441
v 0.00315382 0.01238599 0.00408466
v 0.00315382 0.01242548 -0.00414906
v 0.00467942 0.01147153 -0.00418646
v 0.00467942 0.01145359 0.00415945
v 0.00315382 0.01244253 0.00417399
v 0.00315382 0.01244253 -0.00417400
v 0.00315382 0.01266418 -0.00447629
v 0.00467942 0.01151910 -0.00424464
v 0.00467942 0.01151910 0.00424463
v 0.00315382 0.01271085 0.00452823
v 0.00467942 0.01169230 -0.00444409
v 0.00315382 0.01271085 -0.00452823
v 0.00467942 0.01191216 0.00462069
v 0.00452992 0.01175332 0.00439007
v 0.00315382 0.01306263 0.00485131
v 0.00467942 0.01204946 -0.00474015
v 0.00315382 0.01298725 -0.00478586
v 0.00315382 0.01330493 -0.00506219
v 0.00467942 0.01200639 0.00470379
v 0.00315382 0.01326814 0.00502895
v 0.00467942 0.01232138 -0.00495415
v 0.00315382 0.01334621 -0.00508193
v 0.00317877 0.01329955 -0.00506635
v 0.00467942 0.01256996 -0.00511413
v 0.00467942 0.01215266 0.00482014
v 0.00317877 0.01329955 0.00506634
v 0.00315382 0.01334621 0.00508193
v 0.00315382 0.01350774 -0.00515465
v 0.00467942 0.01260406 -0.00512971
v 0.00459623 0.01235099 0.00493026
v 0.00467942 0.01244253 0.00502687
v 0.00467942 0.01256996 0.00511413
v 0.00315382 0.01360646 0.00518685
v 0.00315382 0.01360646 -0.00518685
v 0.00362024 0.01364505 -0.00527307
v 0.00467942 0.01308417 -0.00526892
v 0.00467942 0.01308417 0.00526892
v 0.00362024 0.01364505 0.00527307
v 0.00315382 0.01420144 0.00530631
v 0.00315382 0.01411170 -0.00530008
v 0.00467942 0.01314250 -0.00528242
v 0.00467942 0.01364505 0.00530631
v 0.00417701 0.01364505 0.00530631
v 0.00315382 0.01587151 0.00530631
v 0.00315382 0.01420144 -0.00530631
v 0.00417701 0.01364505 -0.00530631
v 0.00467942 0.01364505 -0.00530631
v 0.00467942 0.01420144 0.00530631
v 0.00315382 0.01642880 0.00530527
v 0.00362024 0.01587151 0.00530631
v 0.00315382 0.01633816 -0.00530631
v 0.00467942 0.01425618 -0.00530631
v 0.00467942 0.01475873 0.00530112
v 0.00417701 0.01531602 0.00530527
v 0.00315382 0.01698519 0.00530320
v 0.00362024 0.01642880 0.00530424
v 0.00315382 0.01689545 -0.00530527
v 0.00362024 0.01587151 -0.00530631
v 0.00417701 0.01531602 -0.00530527
v 0.00467942 0.01481347 -0.00530112
v 0.00467942 0.01531602 0.00527723
v 0.00417701 0.01587151 0.00529592
v 0.00315382 0.01754248 0.00529281
v 0.00362024 0.01698519 0.00529073
v 0.00362024 0.01642880 -0.00530424
v 0.00315382 0.01745184 -0.00530008
v 0.00417701 0.01587151 -0.00529593
v 0.00467942 0.01536986 -0.00527619
v 0.00417701 0.01642880 0.00526060
v 0.00467942 0.01587151 0.00521386
v 0.00315382 0.01810156 0.00525853
v 0.00362024 0.01754248 0.00524398
v 0.00315382 0.01800913 -0.00527515
v 0.00362024 0.01698519 -0.00528969
v 0.00417701 0.01642880 -0.00526061
v 0.00467942 0.01592625 -0.00520970
v 0.00467942 0.01639380 0.00511517
v 0.00422435 0.01702826 0.00514841
v 0.00315382 0.01865615 0.00519204
v 0.00315382 0.01857180 -0.00520866
v 0.00362024 0.01754248 -0.00524295
v 0.00364757 0.01811143 -0.00513283
v 0.00407247 0.01754248 -0.00509959
v 0.00467942 0.01645392 -0.00510478
v 0.00467942 0.01652123 0.00509024
v 0.00407232 0.01754248 0.00509959
v 0.00364772 0.01811053 0.00513283
v 0.00315382 0.01914255 0.00509439
v 0.00315382 0.01908601 -0.00510894
v 0.00347134 0.01865615 -0.00508193
v 0.00454261 0.01687122 -0.00506323
v 0.00467942 0.01652033 -0.00509024
v 0.00444151 0.01724274 0.00500194
v 0.00454276 0.01687122 0.00506323
v 0.00467942 0.01708121 0.00482949
v 0.00347164 0.01865615 0.00508193
v 0.00337620 0.01899807 0.00503518
v 0.00315382 0.01926908 0.00504349
v 0.00315382 0.01914255 -0.00509439
v 0.00337620 0.01899807 -0.00503518
v 0.00395881 0.01793375 -0.00504972
v 0.00444136 0.01724274 -0.00500194
v 0.00467942 0.01675276 -0.00500921
v 0.00467942 0.01726249 0.00470795
v 0.00458742 0.01754248 0.00462692
v 0.00342564 0.01963971 0.00457290
v 0.00326494 0.01936959 0.00494376
v 0.00315382 0.01980035 0.00477132
v 0.00315382 0.01948266 -0.00497701
v 0.00326479 0.01936869 -0.00494376
v 0.00435085 0.01754248 -0.00490533
v 0.00458697 0.01754248 -0.00462692
v 0.00467942 0.01708121 -0.00482949
v 0.00467942 0.01754248 0.00439838
v 0.00449004 0.01788170 0.00450850
v 0.00390535 0.01894602 0.00446590
v 0.00331945 0.02001034 0.00432982
v 0.00315382 0.01984611 0.00474639
v 0.00315382 0.01981740 -0.00476405
v 0.00315382 0.01984342 -0.00474639
v 0.00342594 0.01963792 -0.00457186
v 0.00449004 0.01788080 -0.00450746
v 0.00467942 0.01726069 -0.00470795
v 0.00467942 0.01769683 0.00417607
v 0.00453171 0.01795349 0.00417607
v 0.00393238 0.01899358 0.00417607
v 0.00335171 0.02006598 0.00395896
v 0.00315382 0.02034776 0.00415945
v 0.00315382 0.02028225 0.00423840
v 0.00315382 0.02012251 -0.00449395
v 0.00331856 0.02000944 -0.00432878
v 0.00390475 0.01894512 -0.00446487
v 0.00467942 0.01745812 -0.00451785
v 0.00467942 0.01765016 -0.00428203
v 0.00467942 0.01773273 0.00394234
v 0.00315382 0.02042673 0.00361926
v 0.00315382 0.02035943 0.00408258
v 0.00467942 0.01778208 0.00361926
v 0.00315382 0.02032712 -0.00419789
v 0.00315382 0.02034687 -0.00415841
v 0.00319176 0.02028225 -0.00415634
v 0.00453171 0.01795349 -0.00417607
v 0.00467942 0.01769683 -0.00417607
v 0.00315382 0.02042673 -0.00361926
v 0.00467942 0.01778208 -0.00361926
v 0.00335171 0.02006598 -0.00395688
f 1 2 3
f 1 3 4
f 1 4 8
f 1 8 13
f 1 13 18
f 1 18 23
f 1 23 26
f 1 26 31
f 1 31 36
f 1 36 39
f 1 39 44
f 1 44 51
f 1 51 56
f 1 56 62
f 1 62 67
f 1 67 75
f 1 75 83
f 1 83 91
f 1 91 99
f 1 99 107
f 1 107 118
f 1 118 128
f 1 128 138
f 1 138 148
f 1 148 149
f 1 149 158
f 1 158 160
f 1 160 153
f 1 153 150
f 1 150 139
f 1 139 129
f 1 129 119
f 1 119 110
f 1 110 100
f 1 100 92
f 1 92 85
f 1 85 76
f 1 76 68
f 1 68 63
f 1 63 57
f 1 57 52
f 1 52 47
f 1 47 46
f 1 46 40
f 1 40 34
f 1 34 28
f 1 28 24
f 1 24 19
f 1 19 14
f 1 14 9
f 1 9 5
f 1 5 6
f 1 6 2
f 2 6 10
f 2 10 16
f 2 16 20
f 2 20 25
f 2 25 30
f 2 30 35
f 2 35 42
f 2 42 48
f 2 48 54
f 2 54 59
f 2 59 64
f 2 64 70
f 2 70 78
f 2 78 86
f 2 86 94
f 2 94 103
f 2 103 113
f 2 113 123
f 2 123 133
f 2 133 144
f 2 144 143
f 2 143 152
f 2 152 151
f 2 151 159
f 2 159 155
f 2 155 154
f 2 154 145
f 2 145 135
f 2 135 134
f 2 134 124
f 2 124 114
f 2 114 104
f 2 104 95
f 2 95 88
f 2 88 81
f 2 81 72
f 2 72 66
f 2 66 60
f 2 60 55
f 2 55 49
f 2 49 43
f 2 43 37
f 2 37 33
f 2 33 32
f 2 32 27
f 2 27 22
f 2 22 21
f 2 21 17
f 2 17 11
f 2 11 7
f 2 7 3
f 3 7 4
f 4 7 8
f 5 9 10
f 5 10 6
f 7 11 12
f 7 12 8
f 8 12 13
f 9 14 10
f 10 14 15
f 10 15 16
f 11 17 13
f 11 13 12
f 13 17 18
f 14 19 15
f 15 19 16
f 16 19 20
f 17 21 18
f 18 22 23
f 18 21 22
f 19 24 25
f 19 25 20
f 22 26 23
f 22 27 26
f 24 28 29
f 24 29 25
f 25 29 28
f 25 28 30
f 26 27 32
f 26 32 33
f 26 33 31
f 28 34 30
f 30 34 35
f 31 33 36
f 33 37 38
f 33 38 39
f 33 39 36
f 34 40 41
f 34 41 35
f 35 41 42
f 37 39 38
f 37 43 44
f 37 44 39
f 40 45 41
f 40 46 45
f 41 45 46
f 41 46 47
f 41 47 42
f 42 47 48
f 43 49 44
f 44 49 50
f 44 50 51
f 47 52 53
f 47 53 48
f 48 53 54
f 49 55 50
f 50 55 56
f 50 56 51
f 52 57 58
f 52 58 53
f 53 58 54
f 54 58 57
f 54 57 63
f 54 63 65
f 54 65 59
f 55 60 61
f 55 61 56
f 56 61 62
f 59 65 64
f 60 66 73
f 60 73 67
f 60 67 62
f 60 62 61
f 63 68 69
f 63 69 65
f 64 65 71
f 64 71 70
f 65 69 71
f 66 72 73
f 67 73 72
f 67 72 74
f 67 74 75
f 68 76 77
f 68 77 71
f 68 71 69
f 70 71 78
f 71 77 79
f 71 79 78
f 72 80 74
f 72 81 80
f 74 80 75
f 75 80 81
f 75 81 82
f 75 82 83
f 76 84 79
f 76 79 77
f 76 85 84
f 78 79 86
f 79 84 87
f 79 87 86
f 81 88 89
f 81 89 82
f 82 89 83
f 83 89 88
f 83 88 90
f 83 90 91
f 84 85 87
f 85 92 93
f 85 93 94
f 85 94 87
f 86 87 94
f 88 95 96
f 88 96 90
f 90 96 91
f 91 96 95
f 91 95 97
f 91 97 98
f 91 98 99
f 92 100 93
f 93 100 101
f 93 101 102
f 93 102 94
f 94 102 103
f 95 104 97
f 97 104 98
f 98 104 105
f 98 105 106
f 98 106 107
f 98 107 99
f 100 108 109
f 100 109 101
f 100 110 108
f 101 109 111
f 101 111 103
f 101 103 102
f 103 111 112
f 103 112 113
f 104 114 105
f 105 114 115
f 105 115 116
f 105 116 106
f 106 116 115
f 106 115 117
f 106 117 118
f 106 118 107
f 108 112 109
f 108 110 119
f 108 119 120
f 108 120 121
f 108 121 122
f 108 122 112
f 109 112 111
f 112 122 113
f 113 122 123
f 114 124 115
f 115 124 125
f 115 125 117
f 117 125 126
f 117 126 127
f 117 127 128
f 117 128 118
f 119 129 130
f 119 130 120
f 120 130 121
f 121 130 131
f 121 131 132
f 121 132 133
f 121 133 122
f 122 133 123
f 124 134 125
f 125 134 135
f 125 135 136
f 125 136 126
f 126 136 127
f 127 136 137
f 127 137 138
f 127 138 128
f 129 139 130
f 130 139 131
f 131 139 132
f 132 139 140
f 132 140 141
f 132 141 142
f 132 142 143
f 132 143 144
f 132 144 133
f 135 145 136
f 136 145 146
f 136 146 147
f 136 147 137
f 137 148 138
f 137 147 149
f 137 149 148
f 139 150 142
f 139 142 140
f 140 142 141
f 142 151 152
f 142 152 143
f 142 150 153
f 142 153 151
f 145 154 146
f 146 154 155
f 146 155 156
f 146 156 157
f 146 157 147
f 147 157 158
f 147 158 149
f 151 153 160
f 151 160 159
f 155 161 156
f 155 159 161
f 156 161 157
f 157 161 158
f 158 161 160
f 159 160 161

