# https://github.com/mikedh/trimesh
v -0.00864296 -0.02454952 -0.00361999
v -0.01088798 -0.02454823 -0.00361999
v -0.00975360 -0.02454888 -0.00362518
v -0.01088798 -0.02452686 -0.00404861
v -0.00918949 -0.02452686 -0.00405173
v -0.00864296 -0.02452686 -0.00405173
v -0.00864296 -0.02454952 0.00361986
v -0.01088798 -0.02454758 -0.00364075
v -0.01088798 -0.02454823 0.00361986
v -0.00975360 -0.02452654 -0.00405484
v -0.01088798 -0.02448510 -0.00432779
v -0.00864296 -0.02452622 -0.00405692
v -0.00864296 -0.02452751 0.00403914
v -0.01088798 -0.02452686 0.00404433
v -0.00975360 -0.02448543 -0.00432883
v -0.00918949 -0.02448543 -0.00432986
v -0.00864296 -0.02448543 -0.00432986
v -0.01088798 -0.02447377 -0.00434854
v -0.01030321 -0.02448510 -0.00432883
v -0.00864296 -0.02452686 0.00404744
v -0.01030321 -0.02452686 0.00404536
v -0.00864296 -0.02448413 0.00432558
v -0.00918949 -0.02448413 0.00432454
v -0.01088798 -0.02448575 0.00430897
v -0.00864296 -0.02448089 -0.00433817
v -0.01088798 -0.02425720 -0.00473358
v -0.00975360 -0.02425752 -0.00473358
v -0.00864296 -0.02425784 0.00473344
v -0.00975360 -0.02426076 0.00472825
v -0.01088798 -0.02425720 0.00473344
v -0.00975360 -0.02448381 0.00432454
v -0.01088798 -0.02448348 0.00432143
v -0.00864296 -0.02425752 -0.00473358
v -0.01088798 -0.02399886 -0.00505219
v -0.00864296 -0.02425299 -0.00473980
v -0.00864296 -0.02400048 0.00505309
v -0.00975360 -0.02400404 0.00504894
v -0.01030321 -0.02425752 0.00473344
v -0.01088798 -0.02400048 0.00505309
v -0.01088798 -0.02398235 -0.00505945
v -0.00975360 -0.02399465 -0.00505426
v -0.00864296 -0.02399271 -0.00505530
v -0.00864296 -0.02399886 -0.00505219
v -0.00864296 -0.02366995 0.00519527
v -0.00918949 -0.02366995 0.00519527
v -0.01088798 -0.02368646 0.00518801
v -0.01088798 -0.02366995 -0.00519333
v -0.01030321 -0.02366995 -0.00519437
v -0.00864296 -0.02366995 -0.00519437
v -0.00864296 -0.02312318 0.00529905
v -0.00975360 -0.02311282 0.00530113
v -0.01088798 -0.02366995 0.00519423
v -0.01088798 -0.02364211 -0.00519956
v -0.00975360 -0.02311282 -0.00530126
v -0.00864296 -0.02311314 -0.00530023
v -0.00864296 -0.02311314 0.00530009
v -0.00864296 -0.02256734 0.00522226
v -0.01088798 -0.02311282 0.00530009
v -0.01088798 -0.02314066 0.00529490
v -0.01088798 -0.02311282 -0.00530023
v -0.01088798 -0.02308498 -0.00529711
v -0.00864296 -0.02255633 -0.00521928
v -0.00864296 -0.02255633 0.00522018
v -0.01088798 -0.02255633 0.00519112
v -0.01088798 -0.02255633 -0.00519126
v -0.01088798 -0.02253885 -0.00518503
v -0.00864296 -0.02255083 -0.00521720
v -0.00864296 -0.02221576 0.00507592
v -0.01088798 -0.02224231 0.00504583
v -0.01088798 -0.02224231 -0.00504596
v -0.00864296 -0.02221026 -0.00507294
v -0.00864296 -0.02221026 0.00507281
v -0.00864296 -0.02193671 0.00481024
v -0.01088798 -0.02196358 0.00477080
v -0.01088798 -0.02196358 -0.00477094
v -0.00864296 -0.02164859 -0.00452601
v -0.00864296 -0.02193186 -0.00480415
v -0.00864296 -0.02164859 0.00452588
v -0.01088798 -0.02168356 0.00449163
v -0.01088798 -0.02168356 -0.00449073
v -0.01088798 -0.02167125 -0.00447412
v -0.00864296 -0.02141001 -0.00417627
v -0.00864296 -0.02141357 0.00418236
v -0.01088798 -0.02148058 0.00417509
v -0.01088798 -0.02148058 -0.00417523
v -0.00864296 -0.02140644 -0.00416589
v -0.00864296 -0.02141001 0.00417613
v -0.00864296 -0.02124587 0.00363024
v -0.01088798 -0.02132357 0.00364788
v -0.01088798 -0.02131548 -0.00361999
v -0.00864296 -0.02124296 -0.00361999
v -0.00864296 -0.02124296 0.00361986
v -0.01088798 -0.02131548 0.00361986
v -0.01088798 -0.02131515 -0.00306164
v -0.00864296 -0.02124231 -0.00306268
v -0.00864296 -0.02124231 0.00306255
v -0.01088798 -0.02131515 0.00306151
f 1 2 3
f 1 3 4
f 1 4 5
f 1 5 6
f 1 6 12
f 1 12 17
f 1 17 25
f 1 25 33
f 1 33 35
f 1 35 43
f 1 43 42
f 1 42 49
f 1 49 55
f 1 55 62
f 1 62 67
f 1 67 71
f 1 71 77
f 1 77 76
f 1 76 82
f 1 82 86
f 1 86 91
f 1 91 95
f 1 95 96
f 1 96 92
f 1 92 88
f 1 88 87
f 1 87 83
f 1 83 78
f 1 78 73
f 1 73 72
f 1 72 68
f 1 68 63
f 1 63 57
f 1 57 56
f 1 56 50
f 1 50 44
f 1 44 36
f 1 36 28
f 1 28 22
f 1 22 20
f 1 20 13
f 1 13 7
f 1 7 9
f 1 9 2
f 2 8 3
f 2 9 14
f 2 14 24
f 2 24 32
f 2 32 30
f 2 30 39
f 2 39 46
f 2 46 52
f 2 52 59
f 2 59 58
f 2 58 64
f 2 64 69
f 2 69 74
f 2 74 79
f 2 79 84
f 2 84 89
f 2 89 93
f 2 93 97
f 2 97 94
f 2 94 90
f 2 90 85
f 2 85 81
f 2 81 80
f 2 80 75
f 2 75 70
f 2 70 66
f 2 66 65
f 2 65 61
f 2 61 60
f 2 60 53
f 2 53 47
f 2 47 40
f 2 40 34
f 2 34 26
f 2 26 18
f 2 18 11
f 2 11 4
f 2 4 8
f 3 8 4
f 4 10 5
f 4 11 10
f 5 10 6
f 6 10 12
f 7 13 14
f 7 14 9
f 10 11 15
f 10 15 16
f 10 16 17
f 10 17 12
f 11 18 19
f 11 19 16
f 11 16 15
f 13 20 21
f 13 21 14
f 14 21 22
f 14 22 23
f 14 23 24
f 16 25 17
f 16 19 18
f 16 18 26
f 16 26 27
f 16 27 25
f 20 22 21
f 22 28 29
f 22 29 30
f 22 30 31
f 22 31 23
f 23 31 24
f 24 31 32
f 25 27 33
f 26 34 35
f 26 35 27
f 27 35 33
f 28 36 37
f 28 37 38
f 28 38 29
f 29 38 30
f 30 38 39
f 30 32 31
f 34 40 41
f 34 41 42
f 34 42 43
f 34 43 35
f 36 44 45
f 36 45 39
f 36 39 37
f 37 39 38
f 39 45 46
f 40 42 41
f 40 47 48
f 40 48 42
f 42 48 49
f 44 50 51
f 44 51 45
f 45 51 52
f 45 52 46
f 47 53 48
f 48 53 54
f 48 54 49
f 49 54 55
f 50 56 51
f 51 56 57
f 51 57 58
f 51 58 59
f 51 59 52
f 53 60 54
f 54 60 61
f 54 61 62
f 54 62 55
f 57 63 58
f 58 63 64
f 61 65 62
f 62 65 66
f 62 66 67
f 63 68 64
f 64 68 69
f 66 70 71
f 66 71 67
f 68 72 69
f 69 72 73
f 69 73 74
f 70 75 76
f 70 76 77
f 70 77 71
f 73 78 74
f 74 78 79
f 75 80 76
f 76 80 81
f 76 81 82
f 78 83 79
f 79 83 84
f 81 85 82
f 82 85 86
f 83 87 84
f 84 87 88
f 84 88 89
f 85 90 91
f 85 91 86
f 88 92 93
f 88 93 89
f 90 94 95
f 90 95 91
f 92 96 93
f 93 96 97
f 94 97 96
f 94 96 95

