# https://github.com/mikedh/trimesh
v 0.00027880 0.02199659 0.00530631
v 0.00027880 0.02255481 0.00529800
v 0.00000951 0.02228470 0.00530216
v 0.00000951 0.02199659 0.00530527
v 0.00000951 0.02172888 0.00530631
v 0.00250601 0.01809981 0.00530631
v 0.00139256 0.02032671 0.00530424
v 0.00083553 0.02144076 0.00530216
v 0.00000951 0.02255481 0.00529800
v 0.00194929 0.01976969 0.00529489
v 0.00139256 0.02088374 0.00528865
v 0.00083553 0.02199659 0.00527930
v 0.00027880 0.02311064 0.00526580
v 0.00000951 0.01475887 0.00530631
v 0.00306305 0.01698697 0.00530631
v 0.00306305 0.01754399 0.00530216
v 0.00250601 0.01865564 0.00529904
v 0.00000951 0.02284173 0.00528034
v 0.00306305 0.01809981 0.00528138
v 0.00250601 0.01921266 0.00527099
v 0.00000951 0.02311064 0.00526268
v 0.00194929 0.02032671 0.00525645
v 0.00139256 0.02144076 0.00523879
v 0.00083553 0.02255481 0.00521697
v 0.00084076 0.02308543 0.00511101
v 0.00065887 0.02354041 0.00506946
v 0.00029819 0.02370368 0.00512036
v 0.00000951 0.02370008 0.00511932
v 0.00000951 0.02340716 0.00519100
v 0.00000951 0.01420304 0.00518062
v 0.00250601 0.01420304 0.00529696
v 0.00306305 0.01420304 0.00530631
v 0.00315353 0.01587412 0.00530631
v 0.00315353 0.01642994 0.00530527
v 0.00315353 0.01698697 0.00530320
v 0.00315353 0.01754399 0.00529281
v 0.00315353 0.01810222 0.00525853
v 0.00306305 0.01865564 0.00522321
v 0.00250601 0.01976969 0.00519828
v 0.00183326 0.02144076 0.00509543
v 0.00123345 0.02255481 0.00507777
v 0.00114205 0.02288375 0.00503102
v 0.00307259 0.01919466 0.00511621
v 0.00049700 0.02391136 0.00499259
v 0.00103003 0.02325590 0.00493545
v 0.00012554 0.02398459 0.00504141
v 0.00000951 0.02398459 0.00504141
v 0.00000951 0.01390172 0.00503414
v 0.00315353 0.01334709 0.00508193
v 0.00315353 0.01360640 0.00518685
v 0.00315353 0.01420304 0.00530631
v 0.00315353 0.01865564 0.00519204
v 0.00287316 0.01976969 0.00506219
v 0.00172432 0.02181772 0.00504661
v 0.00279376 0.02006501 0.00501856
v 0.00220503 0.02112624 0.00499570
v 0.00161630 0.02218987 0.00496766
v 0.00315353 0.01914184 0.00509439
v 0.00086876 0.02371688 0.00477859
v 0.00070750 0.02407703 0.00462069
v 0.00029819 0.02415146 0.00477755
v 0.00119067 0.02352241 0.00456459
v 0.00267928 0.02043596 0.00490844
v 0.00177602 0.02246118 0.00459680
v 0.00000951 0.02415026 0.00477547
v 0.00000951 0.01362200 0.00475677
v 0.00315353 0.01271204 0.00452823
v 0.00315353 0.01306258 0.00485131
v 0.00315353 0.01326786 0.00502895
v 0.00315353 0.01926789 0.00504349
v 0.00315353 0.01979970 0.00477132
v 0.00315353 0.01984532 0.00474639
v 0.00086999 0.02412385 0.00412933
v 0.00027695 0.02445038 0.00419269
v 0.00107865 0.02389456 0.00428307
v 0.00284023 0.02070247 0.00453758
v 0.00225519 0.02176730 0.00449811
v 0.00167046 0.02283213 0.00445344
v 0.00292148 0.02028110 0.00472769
v 0.00000951 0.02444798 0.00419269
v 0.00000951 0.01334349 0.00447837
v 0.00315353 0.01244313 0.00417399
v 0.00315353 0.02028110 0.00423840
v 0.00111620 0.02394978 0.00391221
v 0.00083553 0.02419588 0.00361926
v 0.00041329 0.02447079 0.00361926
v 0.00008984 0.02452121 0.00401817
v 0.00000951 0.02452121 0.00401817
v 0.00122730 0.02369287 0.00412933
v 0.00315353 0.02034712 0.00415841
v 0.00170216 0.02288735 0.00408154
v 0.00164461 0.02296898 0.00414179
v 0.00000951 0.01315622 0.00417607
v 0.00315353 0.01238671 0.00408466
v 0.00315353 0.02042515 0.00361926
v 0.00231767 0.02187534 0.00361926
v 0.00164461 0.02304101 0.00361926
v 0.00128238 0.02366766 0.00361926
v 0.00111743 0.02395098 0.00361926
v 0.00083553 0.02419588 -0.00194883
v 0.00041483 0.02447079 -0.00083521
v 0.00041452 0.02447079 0.00083521
v 0.00041359 0.02447079 0.00306245
v 0.00013477 0.02453081 0.00361926
v 0.00000951 0.02452601 0.00384988
v 0.00000951 0.01299295 0.00361926
v 0.00315353 0.01226906 0.00361926
v 0.00315353 0.02042515 -0.00361926
v 0.00231767 0.02187534 -0.00361926
v 0.00164461 0.02304101 -0.00361926
v 0.00155721 0.02319227 -0.00361926
v 0.00128238 0.02366766 0.00139202
v 0.00111743 0.02395098 0.00083521
v 0.00111712 0.02395098 -0.00139202
v 0.00111681 0.02395098 -0.00194883
v 0.00083553 0.02419468 -0.00361926
v 0.00041483 0.02447079 -0.00361926
v 0.00013662 0.02453081 -0.00083521
v 0.00000951 0.02453081 0.00361926
v 0.00000951 0.01299295 -0.00361926
v 0.00315353 0.01226786 0.00328580
v 0.00111589 0.02394858 -0.00390806
v 0.00315353 0.02034712 -0.00415841
v 0.00128146 0.02366766 -0.00361926
v 0.00111650 0.02394978 -0.00361926
v 0.00086999 0.02412385 -0.00412725
v 0.00027757 0.02445158 -0.00419685
v 0.00009107 0.02452241 -0.00402440
v 0.00013631 0.02453081 -0.00361926
v 0.00000951 0.02453081 -0.00361926
v 0.00000951 0.01315622 -0.00417607
v 0.00315353 0.01228346 -0.00379690
v 0.00315353 0.01226906 -0.00361926
v 0.00315353 0.01226786 -0.00339488
v 0.00170216 0.02288735 -0.00407738
v 0.00122730 0.02369167 -0.00412725
v 0.00107834 0.02389336 -0.00427996
v 0.00315353 0.02032671 -0.00419789
v 0.00166954 0.02283093 -0.00444928
v 0.00164461 0.02288975 -0.00439942
v 0.00070719 0.02407703 -0.00462069
v 0.00000951 0.02450440 -0.00406804
v 0.00000951 0.02452241 -0.00402440
v 0.00029603 0.02415146 -0.00477755
v 0.00000951 0.02414906 -0.00477547
v 0.00000951 0.02444798 -0.00419685
v 0.00000951 0.02452601 -0.00387066
v 0.00315353 0.01238671 -0.00408466
v 0.00000951 0.01334349 -0.00447837
v 0.00119129 0.02352241 -0.00456355
v 0.00315353 0.02012143 -0.00449395
v 0.00284054 0.02070247 -0.00453654
v 0.00225519 0.02176609 -0.00449707
v 0.00086845 0.02371688 -0.00477755
v 0.00049300 0.02391016 -0.00499259
v 0.00012184 0.02398219 -0.00503934
v 0.00000951 0.02398219 -0.00503934
v 0.00315353 0.01242632 -0.00414802
v 0.00000951 0.01362200 -0.00475678
v 0.00315353 0.01271204 -0.00452823
v 0.00315353 0.01266522 -0.00447629
v 0.00315353 0.01244313 -0.00417400
v 0.00102941 0.02325470 -0.00493545
v 0.00267928 0.02043476 -0.00490844
v 0.00315353 0.01984292 -0.00474639
v 0.00065857 0.02354041 -0.00506946
v 0.00029603 0.02370368 -0.00511933
v 0.00000951 0.02370008 -0.00511829
v 0.00000951 0.01390172 -0.00503414
v 0.00315353 0.01298815 -0.00478586
v 0.00220472 0.02112744 -0.00499571
v 0.00161568 0.02218987 -0.00496766
v 0.00114205 0.02288375 -0.00503103
v 0.00315353 0.01981651 -0.00476405
v 0.00279346 0.02006381 -0.00501856
v 0.00084076 0.02308543 -0.00511101
v 0.00027880 0.02311064 -0.00526580
v 0.00000951 0.02338915 -0.00519516
v 0.00000951 0.01420304 -0.00518062
v 0.00315353 0.01330508 -0.00506219
v 0.00315353 0.01306258 -0.00485131
v 0.00172432 0.02181892 -0.00504661
v 0.00123284 0.02255481 -0.00507673
v 0.00315353 0.01948157 -0.00497701
v 0.00315353 0.01914184 -0.00509439
v 0.00287286 0.01976969 -0.00506219
v 0.00083553 0.02255481 -0.00521697
v 0.00183296 0.02144076 -0.00509543
v 0.00307259 0.01919466 -0.00511621
v 0.00250601 0.01976969 -0.00519828
v 0.00000951 0.02311064 -0.00526372
v 0.00139256 0.02144076 -0.00523775
v 0.00194929 0.02032671 -0.00525645
v 0.00250601 0.01921266 -0.00527099
v 0.00083553 0.02199659 -0.00527930
v 0.00027880 0.02255481 -0.00529904
v 0.00000951 0.02255481 -0.00529800
v 0.00250601 0.01420304 -0.00529696
v 0.00315353 0.01360640 -0.00518685
v 0.00315353 0.01350796 -0.00515465
v 0.00315353 0.01334709 -0.00508193
v 0.00000951 0.01475887 -0.00530631
v 0.00315353 0.01908541 -0.00510894
v 0.00306305 0.01865564 -0.00522217
v 0.00315353 0.01857160 -0.00520866
v 0.00315353 0.01800978 -0.00527515
v 0.00306305 0.01809981 -0.00528138
v 0.00139256 0.02088374 -0.00528761
v 0.00194929 0.01976969 -0.00529489
v 0.00250601 0.01865564 -0.00530008
v 0.00306305 0.01754399 -0.00530320
v 0.00083553 0.02144076 -0.00530216
v 0.00027880 0.02199659 -0.00530631
v 0.00000951 0.02199659 -0.00530527
v 0.00315353 0.01411180 -0.00530008
v 0.00306305 0.01420304 -0.00530631
v 0.00000951 0.02144076 -0.00530631
v 0.00315353 0.01745395 -0.00530008
v 0.00250601 0.01809981 -0.00530631
v 0.00139256 0.02032671 -0.00530424
v 0.00315353 0.01689693 -0.00530527
v 0.00306305 0.01698697 -0.00530631
v 0.00315353 0.01420304 -0.00530631
v 0.00315353 0.01633990 -0.00530631
f 1 2 3
f 1 3 4
f 1 4 5
f 1 5 14
f 1 14 32
f 1 32 51
f 1 51 33
f 1 33 15
f 1 15 6
f 1 6 7
f 1 7 8
f 1 8 2
f 2 9 3
f 2 8 17
f 2 17 10
f 2 10 11
f 2 11 12
f 2 12 13
f 2 13 9
f 3 9 18
f 3 18 21
f 3 21 29
f 3 29 28
f 3 28 47
f 3 47 65
f 3 65 80
f 3 80 88
f 3 88 105
f 3 105 119
f 3 119 130
f 3 130 147
f 3 147 143
f 3 143 142
f 3 142 146
f 3 146 145
f 3 145 157
f 3 157 168
f 3 168 178
f 3 178 191
f 3 191 197
f 3 197 214
f 3 214 217
f 3 217 202
f 3 202 179
f 3 179 169
f 3 169 159
f 3 159 149
f 3 149 131
f 3 131 120
f 3 120 106
f 3 106 93
f 3 93 81
f 3 81 66
f 3 66 48
f 3 48 30
f 3 30 14
f 3 14 5
f 3 5 4
f 6 15 16
f 6 16 7
f 7 16 8
f 8 16 17
f 9 13 18
f 10 17 19
f 10 19 11
f 11 19 12
f 12 19 20
f 12 20 13
f 13 21 18
f 13 20 22
f 13 22 23
f 13 23 24
f 13 24 25
f 13 25 26
f 13 26 27
f 13 27 28
f 13 28 29
f 13 29 21
f 14 30 31
f 14 31 32
f 15 33 34
f 15 34 35
f 15 35 16
f 16 36 19
f 16 19 17
f 16 35 36
f 19 36 37
f 19 37 38
f 19 38 20
f 20 38 22
f 22 38 23
f 23 38 24
f 24 38 39
f 24 39 25
f 25 40 41
f 25 41 42
f 25 42 26
f 25 39 43
f 25 43 40
f 26 44 27
f 26 42 45
f 26 45 44
f 27 44 46
f 27 46 47
f 27 47 28
f 30 48 49
f 30 49 50
f 30 50 31
f 31 50 32
f 32 50 51
f 33 51 50
f 33 50 49
f 33 49 69
f 33 69 68
f 33 68 67
f 33 67 82
f 33 82 94
f 33 94 107
f 33 107 121
f 33 121 134
f 33 134 133
f 33 133 132
f 33 132 148
f 33 148 158
f 33 158 162
f 33 162 161
f 33 161 160
f 33 160 170
f 33 170 181
f 33 181 180
f 33 180 201
f 33 201 200
f 33 200 199
f 33 199 215
f 33 215 223
f 33 223 224
f 33 224 221
f 33 221 218
f 33 218 206
f 33 206 205
f 33 205 203
f 33 203 185
f 33 185 184
f 33 184 174
f 33 174 165
f 33 165 151
f 33 151 138
f 33 138 123
f 33 123 108
f 33 108 95
f 33 95 90
f 33 90 83
f 33 83 72
f 33 72 71
f 33 71 70
f 33 70 58
f 33 58 52
f 33 52 37
f 33 37 36
f 33 36 35
f 33 35 34
f 37 52 38
f 38 52 43
f 38 43 39
f 40 43 53
f 40 53 41
f 41 53 54
f 41 54 42
f 42 54 53
f 42 53 55
f 42 55 56
f 42 56 57
f 42 57 45
f 43 58 53
f 43 52 58
f 44 45 59
f 44 59 60
f 44 60 61
f 44 61 46
f 45 62 59
f 45 57 56
f 45 56 63
f 45 63 64
f 45 64 62
f 46 61 47
f 47 61 65
f 48 66 67
f 48 67 68
f 48 68 69
f 48 69 49
f 53 58 55
f 55 58 70
f 55 70 71
f 55 71 72
f 55 72 63
f 55 63 56
f 59 62 60
f 60 73 74
f 60 74 61
f 60 62 75
f 60 75 73
f 61 74 65
f 62 64 76
f 62 76 77
f 62 77 78
f 62 78 75
f 63 76 64
f 63 72 79
f 63 79 76
f 65 74 80
f 66 81 67
f 67 81 82
f 72 83 76
f 72 76 79
f 73 75 84
f 73 84 85
f 73 85 86
f 73 86 74
f 74 86 87
f 74 87 88
f 74 88 80
f 75 89 84
f 75 78 89
f 76 83 90
f 76 90 77
f 77 90 78
f 78 91 92
f 78 92 84
f 78 84 89
f 78 90 91
f 81 93 94
f 81 94 82
f 84 95 96
f 84 96 97
f 84 97 98
f 84 98 99
f 84 99 85
f 84 92 91
f 84 91 90
f 84 90 95
f 85 99 113
f 85 113 100
f 85 100 117
f 85 117 101
f 85 101 102
f 85 102 103
f 85 103 86
f 86 103 104
f 86 104 87
f 87 104 105
f 87 105 88
f 93 106 94
f 94 106 107
f 95 108 109
f 95 109 96
f 96 109 110
f 96 110 97
f 97 110 111
f 97 111 98
f 98 111 112
f 98 112 113
f 98 113 99
f 100 113 114
f 100 114 115
f 100 115 116
f 100 116 117
f 101 117 118
f 101 118 102
f 102 118 104
f 102 104 103
f 104 118 129
f 104 129 130
f 104 130 119
f 104 119 105
f 106 120 134
f 106 134 121
f 106 121 107
f 108 122 109
f 108 123 122
f 109 122 110
f 110 122 111
f 111 122 124
f 111 124 112
f 112 124 114
f 112 114 113
f 114 124 115
f 115 124 125
f 115 125 116
f 116 125 122
f 116 122 126
f 116 126 117
f 117 127 128
f 117 128 129
f 117 129 118
f 117 126 127
f 120 131 132
f 120 132 133
f 120 133 134
f 122 135 136
f 122 136 137
f 122 137 126
f 122 125 124
f 122 123 135
f 123 138 139
f 123 139 140
f 123 140 135
f 126 141 127
f 126 137 141
f 127 142 143
f 127 143 128
f 127 141 144
f 127 144 145
f 127 145 146
f 127 146 142
f 128 143 147
f 128 147 129
f 129 147 130
f 131 148 132
f 131 149 148
f 135 140 136
f 136 140 139
f 136 139 137
f 137 150 141
f 137 139 150
f 138 151 152
f 138 152 153
f 138 153 139
f 139 153 150
f 141 150 154
f 141 154 155
f 141 155 144
f 144 155 156
f 144 156 157
f 144 157 145
f 148 149 158
f 149 159 160
f 149 160 161
f 149 161 162
f 149 162 158
f 150 163 154
f 150 153 152
f 150 152 164
f 150 164 163
f 151 165 152
f 152 165 164
f 154 163 155
f 155 163 166
f 155 166 167
f 155 167 156
f 156 167 157
f 157 167 168
f 159 169 160
f 160 169 170
f 163 164 171
f 163 171 172
f 163 172 173
f 163 173 166
f 164 165 174
f 164 174 175
f 164 175 171
f 166 173 176
f 166 176 177
f 166 177 167
f 167 177 178
f 167 178 168
f 169 179 180
f 169 180 181
f 169 181 170
f 171 173 172
f 171 175 173
f 173 175 182
f 173 182 183
f 173 183 176
f 174 184 175
f 175 184 185
f 175 185 186
f 175 186 182
f 176 187 177
f 176 183 188
f 176 188 189
f 176 189 190
f 176 190 187
f 177 191 178
f 177 187 192
f 177 192 193
f 177 193 194
f 177 194 195
f 177 195 196
f 177 196 197
f 177 197 191
f 179 198 199
f 179 199 200
f 179 200 201
f 179 201 180
f 179 202 198
f 182 186 183
f 183 186 188
f 185 203 186
f 186 203 188
f 187 190 204
f 187 204 192
f 188 203 189
f 189 203 205
f 189 205 190
f 190 205 204
f 192 204 193
f 193 204 194
f 194 204 206
f 194 206 207
f 194 207 195
f 195 208 196
f 195 207 208
f 196 208 209
f 196 209 210
f 196 210 211
f 196 211 212
f 196 212 213
f 196 213 214
f 196 214 197
f 198 215 199
f 198 202 215
f 202 216 215
f 202 217 213
f 202 213 219
f 202 219 222
f 202 222 224
f 202 224 223
f 202 223 216
f 204 205 206
f 206 218 207
f 207 218 211
f 207 211 210
f 207 210 209
f 207 209 208
f 211 219 213
f 211 213 220
f 211 220 212
f 211 218 221
f 211 221 222
f 211 222 219
f 212 220 213
f 213 217 214
f 215 216 223
f 221 224 222

