# https://github.com/mikedh/trimesh
v -0.00366809 -0.00747045 -0.00530631
v -0.00250586 -0.00867144 -0.00530631
v -0.00306285 -0.00863276 -0.00530527
v -0.00422508 -0.00747045 -0.00530320
v 0.00361962 -0.00747045 -0.00530631
v -0.00302338 -0.00867144 -0.00530527
v 0.00250563 -0.00867144 -0.00530631
v -0.00306285 -0.00867144 -0.00530216
v -0.00478208 -0.00747045 -0.00523775
v 0.00417661 -0.00747045 -0.00530320
v 0.00361962 -0.00751912 -0.00530631
v 0.00306262 -0.00863276 -0.00530631
v 0.00306262 -0.00867144 -0.00530216
v -0.00367101 -0.00867144 -0.00518685
v -0.00368563 -0.00867144 -0.00518373
v -0.00528059 -0.00747045 -0.00510790
v 0.00417661 -0.00751912 -0.00530320
v 0.00473361 -0.00747045 -0.00524295
v 0.00473361 -0.00751912 -0.00523671
v 0.00367225 -0.00867144 -0.00518789
v -0.00370756 -0.00867144 -0.00517646
v -0.00531276 -0.00747045 -0.00509751
v 0.00524820 -0.00747045 -0.00511725
v 0.00531838 -0.00747045 -0.00509959
v 0.00371464 -0.00867144 -0.00517646
v -0.00400433 -0.00867144 -0.00506738
v -0.00407012 -0.00853389 -0.00510270
v -0.00555105 -0.00747045 -0.00499467
v 0.00407281 -0.00853729 -0.00510374
v 0.00582274 -0.00747045 -0.00485339
v 0.00421024 -0.00867144 -0.00494169
v -0.00423824 -0.00867144 -0.00491883
v -0.00665042 -0.00747045 -0.00442643
v -0.00635803 -0.00747045 -0.00458225
v 0.00619261 -0.00747045 -0.00467055
v 0.00423509 -0.00867144 -0.00492714
v 0.00640459 -0.00747045 -0.00455524
v -0.00466366 -0.00867144 -0.00461965
v -0.00708169 -0.00747045 -0.00414699
v 0.00468975 -0.00867144 -0.00460615
v 0.00698497 -0.00747045 -0.00421035
v 0.00708877 -0.00747045 -0.00414802
v -0.00468705 -0.00867144 -0.00460095
v -0.00730682 -0.00747045 -0.00389767
v -0.00495751 -0.00867144 -0.00438176
v -0.00512563 -0.00867144 -0.00421243
v -0.00518411 -0.00867144 -0.00415218
v 0.00513417 -0.00867144 -0.00421347
v 0.00746741 -0.00747045 -0.00361926
v 0.00521897 -0.00867144 -0.00411790
v -0.00745886 -0.00747045 -0.00361926
v -0.00521335 -0.00867144 -0.00411270
v 0.00747179 -0.00747045 -0.00306245
v 0.00541194 -0.00867144 -0.00351538
v 0.00541048 -0.00867144 -0.00361926
v -0.00746325 -0.00747045 -0.00306245
v -0.00539024 -0.00867144 -0.00367640
v -0.00540193 -0.00867144 -0.00361926
v 0.00747179 -0.00747045 0.00306245
v 0.00541486 -0.00867144 -0.00306245
v -0.00746325 -0.00747045 0.00306245
v -0.00540486 -0.00867144 -0.00316114
v 0.00746741 -0.00747045 0.00361926
v 0.00541486 -0.00867144 0.00306245
v -0.00745886 -0.00747045 0.00361926
v -0.00540486 -0.00867144 0.00306245
v -0.00540193 -0.00867144 0.00361926
v 0.00541048 -0.00867144 0.00361926
v 0.00731098 -0.00747045 0.00390182
v 0.00521897 -0.00867144 0.00411790
v 0.00539732 -0.00867144 0.00368159
v -0.00708169 -0.00747045 0.00414699
v -0.00521335 -0.00867144 0.00411270
v 0.00708877 -0.00747045 0.00414802
v 0.00519119 -0.00867144 0.00415530
v -0.00698082 -0.00747045 0.00420724
v -0.00512563 -0.00867144 0.00421243
v -0.00476746 -0.00867144 0.00453031
v -0.00468705 -0.00867144 0.00460095
v -0.00432449 -0.00867144 0.00485754
v -0.00423239 -0.00867144 0.00492195
v -0.00421046 -0.00867144 0.00493545
v 0.00701714 -0.00747045 0.00419477
v 0.00424240 -0.00867144 0.00492299
v 0.00466782 -0.00867144 0.00462381
v 0.00496313 -0.00867144 0.00438695
v 0.00513417 -0.00867144 0.00421347
v -0.00640335 -0.00747045 0.00455005
v -0.00370756 -0.00867144 0.00517646
v -0.00407012 -0.00853389 0.00510270
v -0.00618260 -0.00747045 0.00467159
v 0.00665458 -0.00747045 0.00443058
v 0.00400849 -0.00867144 0.00506946
v -0.00367101 -0.00867144 0.00518685
v -0.00531276 -0.00747045 0.00509751
v -0.00582151 -0.00747045 0.00484923
v 0.00636073 -0.00747045 0.00458641
v 0.00531838 -0.00747045 0.00509959
v 0.00407281 -0.00853729 0.00510374
v 0.00371464 -0.00867144 0.00517646
v 0.00555521 -0.00747045 0.00499674
v -0.00473383 -0.00751912 0.00523567
v -0.00524551 -0.00747045 0.00511517
v -0.00306285 -0.00867144 0.00530216
v 0.00528475 -0.00747045 0.00510998
v 0.00368833 -0.00867144 0.00518477
v -0.00417684 -0.00751912 0.00530216
v -0.00473383 -0.00747045 0.00524087
v -0.00250586 -0.00867144 0.00530631
v -0.00306285 -0.00863276 0.00530527
v 0.00478185 -0.00747045 0.00523983
v 0.00367225 -0.00867144 0.00518789
v -0.00417684 -0.00747045 0.00530320
v -0.00361984 -0.00751912 0.00530631
v 0.00302461 -0.00867144 0.00530631
v 0.00422485 -0.00747045 0.00530320
v 0.00306262 -0.00867144 0.00530216
v -0.00361984 -0.00747045 0.00530631
v 0.00306262 -0.00863276 0.00530631
v 0.00366786 -0.00747045 0.00530631
f 1 2 3
f 1 3 4
f 1 4 9
f 1 9 16
f 1 16 22
f 1 22 28
f 1 28 34
f 1 34 33
f 1 33 39
f 1 39 44
f 1 44 51
f 1 51 56
f 1 56 61
f 1 61 65
f 1 65 72
f 1 72 76
f 1 76 88
f 1 88 91
f 1 91 96
f 1 96 95
f 1 95 103
f 1 103 108
f 1 108 113
f 1 113 118
f 1 118 120
f 1 120 116
f 1 116 111
f 1 111 105
f 1 105 98
f 1 98 101
f 1 101 97
f 1 97 92
f 1 92 83
f 1 83 74
f 1 74 69
f 1 69 63
f 1 63 59
f 1 59 53
f 1 53 49
f 1 49 42
f 1 42 41
f 1 41 37
f 1 37 35
f 1 35 30
f 1 30 24
f 1 24 23
f 1 23 18
f 1 18 10
f 1 10 5
f 1 5 11
f 1 11 12
f 1 12 7
f 1 7 2
f 2 6 3
f 2 7 13
f 2 13 20
f 2 20 25
f 2 25 31
f 2 31 36
f 2 36 40
f 2 40 48
f 2 48 50
f 2 50 55
f 2 55 54
f 2 54 60
f 2 60 64
f 2 64 68
f 2 68 71
f 2 71 70
f 2 70 75
f 2 75 87
f 2 87 86
f 2 86 85
f 2 85 84
f 2 84 93
f 2 93 100
f 2 100 106
f 2 106 112
f 2 112 117
f 2 117 115
f 2 115 109
f 2 109 104
f 2 104 94
f 2 94 89
f 2 89 82
f 2 82 81
f 2 81 80
f 2 80 79
f 2 79 78
f 2 78 77
f 2 77 73
f 2 73 67
f 2 67 66
f 2 66 62
f 2 62 58
f 2 58 57
f 2 57 52
f 2 52 47
f 2 47 46
f 2 46 45
f 2 45 43
f 2 43 38
f 2 38 32
f 2 32 26
f 2 26 21
f 2 21 15
f 2 15 14
f 2 14 8
f 2 8 6
f 3 6 8
f 3 8 4
f 4 8 9
f 5 10 17
f 5 17 11
f 7 12 13
f 8 14 9
f 9 14 15
f 9 15 16
f 10 18 17
f 11 17 12
f 12 17 13
f 13 17 18
f 13 18 19
f 13 19 20
f 15 21 22
f 15 22 16
f 18 23 19
f 19 23 24
f 19 24 20
f 20 24 25
f 21 26 27
f 21 27 22
f 22 27 26
f 22 26 28
f 24 29 25
f 24 30 29
f 25 29 31
f 26 32 33
f 26 33 34
f 26 34 28
f 29 30 35
f 29 35 31
f 31 35 37
f 31 37 36
f 32 38 39
f 32 39 33
f 36 37 41
f 36 41 42
f 36 42 40
f 38 43 39
f 39 43 45
f 39 45 46
f 39 46 47
f 39 47 44
f 40 42 48
f 42 49 50
f 42 50 48
f 44 47 52
f 44 52 51
f 49 53 54
f 49 54 55
f 49 55 50
f 51 52 57
f 51 57 58
f 51 58 56
f 53 59 64
f 53 64 60
f 53 60 54
f 56 58 62
f 56 62 66
f 56 66 61
f 59 63 68
f 59 68 64
f 61 66 67
f 61 67 65
f 63 69 70
f 63 70 71
f 63 71 68
f 65 67 73
f 65 73 72
f 69 74 75
f 69 75 70
f 72 73 77
f 72 77 78
f 72 78 79
f 72 79 80
f 72 80 81
f 72 81 82
f 72 82 76
f 74 83 84
f 74 84 85
f 74 85 86
f 74 86 87
f 74 87 75
f 76 82 88
f 82 89 90
f 82 90 91
f 82 91 88
f 83 92 84
f 84 92 93
f 89 94 95
f 89 95 90
f 90 95 96
f 90 96 91
f 92 97 93
f 93 98 99
f 93 99 100
f 93 97 101
f 93 101 98
f 94 102 103
f 94 103 95
f 94 104 102
f 98 105 106
f 98 106 100
f 98 100 99
f 102 107 108
f 102 108 103
f 102 104 107
f 104 109 110
f 104 110 107
f 105 111 106
f 106 111 112
f 107 113 108
f 107 110 113
f 109 114 110
f 109 115 119
f 109 119 120
f 109 120 118
f 109 118 114
f 110 114 113
f 111 116 117
f 111 117 112
f 113 114 118
f 115 117 119
f 116 120 119
f 116 119 117

