# https://github.com/mikedh/trimesh
v 0.02207827 -0.01237592 0.00361926
v 0.02186403 -0.01200384 0.00361926
v 0.02204651 -0.01237592 0.00399116
v 0.02207827 -0.01237592 -0.00361926
v 0.02170349 -0.01172532 0.00361926
v 0.02186403 -0.01200384 -0.00361926
v 0.02183978 -0.01204536 0.00417607
v 0.02202976 -0.01237592 0.00418127
v 0.02202976 -0.01237592 -0.00418023
v 0.02100996 -0.01052347 0.00361926
v 0.02170349 -0.01172532 -0.00361926
v 0.02183978 -0.01204536 -0.00417607
v 0.02123979 -0.01100598 0.00417607
v 0.02119821 -0.01107815 0.00450850
v 0.02178318 -0.01214219 0.00454693
v 0.02183054 -0.01237592 0.00464874
v 0.02197895 -0.01237592 -0.00434748
v 0.02119821 -0.01107852 -0.00450850
v 0.02123979 -0.01100635 -0.00417607
v 0.02098455 -0.01052347 0.00390806
v 0.02100996 -0.01052347 -0.00361926
v 0.02098917 -0.01052347 -0.00385612
v 0.02096087 -0.01052347 0.00417607
v 0.02076742 -0.01052347 0.00463939
v 0.02129580 -0.01141760 0.00462692
v 0.02105904 -0.01141760 0.00490533
v 0.02164344 -0.01237592 0.00487001
v 0.02183054 -0.01237592 -0.00464874
v 0.02178376 -0.01214237 -0.00454693
v 0.02089446 -0.01052347 -0.00436826
v 0.02096087 -0.01052347 -0.00417607
v 0.02076685 -0.01052347 -0.00463939
v 0.02061035 -0.01052347 0.00482326
v 0.02052027 -0.01052347 0.00492818
v 0.02055838 -0.01065674 0.00497389
v 0.02114970 -0.01171716 0.00500194
v 0.02161110 -0.01237592 0.00490740
v 0.02161052 -0.01237592 -0.00490741
v 0.02114970 -0.01171697 -0.00500298
v 0.02055953 -0.01065529 -0.00497493
v 0.02052142 -0.01052347 -0.00492922
v 0.02024944 -0.01052347 0.00510270
v 0.02066694 -0.01102792 0.00505076
v 0.02125076 -0.01208852 0.00506323
v 0.02136279 -0.01237592 0.00508608
v 0.02158165 -0.01237592 -0.00493441
v 0.02125076 -0.01208834 -0.00506323
v 0.02066694 -0.01102666 -0.00505076
v 0.02041690 -0.01052347 -0.00501544
v 0.01977072 -0.01052347 0.00524606
v 0.02035511 -0.01084968 0.00513387
v 0.02078070 -0.01141760 0.00510063
v 0.02093200 -0.01193149 0.00514841
v 0.02089735 -0.01237592 0.00523152
v 0.02136279 -0.01237592 -0.00508608
v 0.02078070 -0.01141760 -0.00509959
v 0.02025001 -0.01052347 -0.00510270
v 0.01921404 -0.01052347 0.00530216
v 0.01977072 -0.01086074 0.00528242
v 0.02032797 -0.01141760 0.00524398
v 0.02032797 -0.01197446 0.00529073
v 0.02032797 -0.01237592 0.00530008
v 0.02128425 -0.01237592 -0.00511517
v 0.02093200 -0.01193131 -0.00514841
v 0.02035569 -0.01084877 -0.00513283
v 0.02000690 -0.01052347 -0.00518685
v 0.01865736 -0.01052347 0.00530631
v 0.01921404 -0.01086074 0.00530631
v 0.01977072 -0.01141760 0.00530320
v 0.01977072 -0.01197446 0.00530631
v 0.01977072 -0.01237592 0.00530631
v 0.02089735 -0.01237592 -0.00523152
v 0.02032797 -0.01141760 -0.00524398
v 0.01977072 -0.01052347 -0.00524606
v 0.01865736 -0.01197446 0.00530631
v 0.01810068 -0.01052347 0.00530112
v 0.01921404 -0.01237592 0.00530631
v 0.02072931 -0.01237592 -0.00526892
v 0.01977072 -0.01086074 -0.00528138
v 0.01943405 -0.01052347 -0.00529281
v 0.01865736 -0.01237592 0.00530527
v 0.01810068 -0.01086074 0.00529489
v 0.01753881 -0.01052347 0.00518581
v 0.02032797 -0.01237592 -0.00530112
v 0.02032797 -0.01197446 -0.00529073
v 0.01977072 -0.01141760 -0.00530320
v 0.01921404 -0.01052347 -0.00530216
v 0.01810068 -0.01141760 0.00525126
v 0.01811454 -0.01237592 0.00515672
v 0.01722755 -0.01052347 0.00504037
v 0.02017263 -0.01237592 -0.00530527
v 0.01921404 -0.01086074 -0.00530631
v 0.01887738 -0.01052347 -0.00530631
v 0.01784718 -0.01237592 0.00498947
v 0.01694055 -0.01052347 0.00479625
v 0.01977072 -0.01237592 -0.00530631
v 0.01977072 -0.01197446 -0.00530631
v 0.01832070 -0.01052347 -0.00530631
v 0.01662872 -0.01052347 0.00452304
v 0.01755960 -0.01237592 0.00471418
v 0.01905928 -0.01237592 -0.00530631
v 0.01865736 -0.01197446 -0.00530631
v 0.01865736 -0.01237592 -0.00530527
v 0.01810068 -0.01052347 -0.00530112
v 0.01637175 -0.01052347 0.00420100
v 0.01728126 -0.01237592 0.00443370
v 0.01847488 -0.01237592 -0.00525957
v 0.01776344 -0.01052347 -0.00525333
v 0.01810068 -0.01086074 -0.00529489
v 0.01630476 -0.01052347 0.00399843
v 0.01711322 -0.01237592 0.00416257
v 0.01811454 -0.01237592 -0.00515672
v 0.01753823 -0.01052347 -0.00518373
v 0.01618581 -0.01052347 0.00363692
v 0.01618003 -0.01052347 0.00361926
v 0.01695730 -0.01237592 0.00361926
v 0.01798346 -0.01237592 -0.00507985
v 0.01732457 -0.01052347 -0.00509959
v 0.01617945 -0.01052347 0.00360887
v 0.01695384 -0.01237592 0.00306245
v 0.01784718 -0.01237592 -0.00498947
v 0.01723044 -0.01052347 -0.00503830
v 0.01618523 -0.01052347 -0.00306661
v 0.01695384 -0.01237592 -0.00306245
v 0.01715364 -0.01052347 -0.00497493
v 0.01775305 -0.01237592 -0.00490221
v 0.01675865 -0.01052347 -0.00463316
v 0.01618754 -0.01052347 -0.00362134
v 0.01618754 -0.01052401 -0.00361926
v 0.01695615 -0.01237592 -0.00346448
v 0.01755960 -0.01237592 -0.00471418
v 0.01663450 -0.01052347 -0.00451785
v 0.01637868 -0.01052347 -0.00420100
v 0.01705374 -0.01237592 -0.00398805
v 0.01695730 -0.01237592 -0.00361926
v 0.01740715 -0.01237592 -0.00456148
v 0.01651265 -0.01052347 -0.00437345
v 0.01728126 -0.01237592 -0.00443370
v 0.01722698 -0.01237592 -0.00435475
v 0.01711322 -0.01237592 -0.00416257
f 1 2 3
f 1 3 8
f 1 8 16
f 1 16 27
f 1 27 37
f 1 37 45
f 1 45 54
f 1 54 62
f 1 62 71
f 1 71 77
f 1 77 81
f 1 81 89
f 1 89 94
f 1 94 100
f 1 100 106
f 1 106 111
f 1 111 116
f 1 116 120
f 1 120 124
f 1 124 130
f 1 130 135
f 1 135 134
f 1 134 140
f 1 140 139
f 1 139 138
f 1 138 136
f 1 136 131
f 1 131 126
f 1 126 121
f 1 121 117
f 1 117 112
f 1 112 107
f 1 107 103
f 1 103 101
f 1 101 96
f 1 96 91
f 1 91 84
f 1 84 78
f 1 78 72
f 1 72 63
f 1 63 55
f 1 55 46
f 1 46 38
f 1 38 28
f 1 28 17
f 1 17 9
f 1 9 4
f 1 4 6
f 1 6 2
f 2 5 3
f 2 6 11
f 2 11 5
f 3 5 7
f 3 7 8
f 4 9 6
f 5 10 7
f 5 11 21
f 5 21 10
f 6 9 12
f 6 12 11
f 7 13 8
f 7 10 13
f 8 13 14
f 8 14 15
f 8 15 16
f 9 17 18
f 9 18 19
f 9 19 12
f 10 20 13
f 10 21 22
f 10 22 31
f 10 31 30
f 10 30 32
f 10 32 41
f 10 41 49
f 10 49 57
f 10 57 66
f 10 66 74
f 10 74 80
f 10 80 87
f 10 87 93
f 10 93 98
f 10 98 104
f 10 104 108
f 10 108 113
f 10 113 118
f 10 118 122
f 10 122 125
f 10 125 127
f 10 127 132
f 10 132 137
f 10 137 133
f 10 133 128
f 10 128 123
f 10 123 119
f 10 119 115
f 10 115 114
f 10 114 110
f 10 110 105
f 10 105 99
f 10 99 95
f 10 95 90
f 10 90 83
f 10 83 76
f 10 76 67
f 10 67 58
f 10 58 50
f 10 50 42
f 10 42 34
f 10 34 33
f 10 33 24
f 10 24 23
f 10 23 20
f 11 12 21
f 12 19 22
f 12 22 21
f 13 23 14
f 13 20 23
f 14 24 15
f 14 23 24
f 15 24 25
f 15 25 26
f 15 26 27
f 15 27 16
f 17 28 29
f 17 29 18
f 18 30 31
f 18 31 19
f 18 29 32
f 18 32 30
f 19 31 22
f 24 33 26
f 24 26 25
f 26 33 34
f 26 34 35
f 26 35 36
f 26 36 27
f 27 36 37
f 28 38 29
f 29 38 39
f 29 39 40
f 29 40 32
f 32 40 41
f 34 42 35
f 35 42 43
f 35 43 36
f 36 43 44
f 36 44 37
f 37 44 45
f 38 46 39
f 39 46 47
f 39 47 48
f 39 48 40
f 40 48 49
f 40 49 41
f 42 50 51
f 42 51 52
f 42 52 43
f 43 52 44
f 44 52 45
f 45 52 53
f 45 53 54
f 46 55 47
f 47 55 56
f 47 56 48
f 48 56 57
f 48 57 49
f 50 58 59
f 50 59 60
f 50 60 51
f 51 53 52
f 51 60 53
f 53 60 54
f 54 60 61
f 54 61 62
f 55 63 56
f 56 63 64
f 56 64 65
f 56 65 57
f 57 65 66
f 58 67 68
f 58 68 69
f 58 69 59
f 59 61 60
f 59 69 61
f 61 69 62
f 62 69 70
f 62 70 71
f 63 72 64
f 64 72 73
f 64 73 66
f 64 66 65
f 66 73 74
f 67 75 77
f 67 77 71
f 67 71 70
f 67 70 68
f 67 76 75
f 68 70 69
f 72 78 73
f 73 78 79
f 73 79 74
f 74 79 80
f 75 76 81
f 75 81 77
f 76 82 81
f 76 83 82
f 78 84 85
f 78 85 79
f 79 85 80
f 80 86 87
f 80 85 86
f 81 82 88
f 81 88 89
f 82 83 88
f 83 90 89
f 83 89 88
f 84 91 86
f 84 86 85
f 86 91 92
f 86 92 87
f 87 92 93
f 89 90 94
f 90 95 94
f 91 96 97
f 91 97 92
f 92 97 96
f 92 96 101
f 92 101 102
f 92 102 98
f 92 98 93
f 94 95 99
f 94 99 100
f 98 102 103
f 98 103 104
f 99 105 106
f 99 106 100
f 101 103 102
f 103 107 108
f 103 108 109
f 103 109 104
f 104 109 108
f 105 110 111
f 105 111 106
f 107 112 108
f 108 112 113
f 110 114 111
f 111 114 115
f 111 115 116
f 112 117 118
f 112 118 113
f 115 119 116
f 116 119 120
f 117 121 122
f 117 122 118
f 119 123 124
f 119 124 120
f 121 125 122
f 121 126 127
f 121 127 125
f 123 128 129
f 123 129 124
f 124 129 130
f 126 131 132
f 126 132 127
f 128 133 134
f 128 134 135
f 128 135 129
f 129 135 130
f 131 136 132
f 132 136 138
f 132 138 137
f 133 139 140
f 133 140 134
f 133 137 138
f 133 138 139

