# https://github.com/mikedh/trimesh
v 0.01059411 0.00752961 0.00361904
v 0.01051073 0.00767433 0.00361904
v 0.00947071 0.00947240 0.00391604
v 0.01054591 0.00752961 0.00417670
v 0.01059411 0.00752961 -0.00361905
v 0.01027971 0.00807514 0.00361904
v 0.01051073 0.00767433 -0.00361905
v 0.00963703 0.00918881 0.00361904
v 0.00947201 0.00947474 0.00361904
v 0.00944465 0.00952194 0.00361904
v 0.00943336 0.00952194 0.00396485
v 0.00938777 0.00952194 0.00422758
v 0.01002438 0.00835326 0.00445397
v 0.01005608 0.00840807 0.00408220
v 0.01013033 0.00798191 0.00459624
v 0.01028015 0.00752961 0.00472397
v 0.01057240 0.00752961 -0.00387036
v 0.00947071 0.00947240 -0.00391501
v 0.01027971 0.00807514 -0.00361905
v 0.00963703 0.00918881 -0.00361905
v 0.00947201 0.00947474 -0.00361905
v 0.00944465 0.00952194 -0.00361905
v 0.00943814 0.00941701 0.00428678
v 0.00912678 0.00952194 0.00472916
v 0.00954497 0.00904565 0.00456404
v 0.00938386 0.00877572 0.00493581
v 0.00996966 0.00771022 0.00496697
v 0.01024367 0.00752961 0.00476655
v 0.01054547 0.00752961 -0.00417670
v 0.00943336 0.00952194 -0.00396382
v 0.00944248 0.00952194 -0.00386309
v 0.01005608 0.00840807 -0.00407805
v 0.01002351 0.00835190 -0.00444982
v 0.00940384 0.00952194 -0.00413101
v 0.00894093 0.00952194 0.00494932
v 0.00891400 0.00947279 0.00501370
v 0.00949546 0.00840456 0.00503135
v 0.00958665 0.00807514 0.00507705
v 0.00976643 0.00752961 0.00512897
v 0.00977685 0.00752961 0.00512274
v 0.01052289 0.00752961 -0.00427224
v 0.01013033 0.00798054 -0.00459624
v 0.00954497 0.00904448 -0.00456405
v 0.00943727 0.00941584 -0.00428678
v 0.00938647 0.00952194 -0.00422655
v 0.00884843 0.00952194 0.00503135
v 0.00898913 0.00918881 0.00505732
v 0.00919453 0.00860681 0.00511132
v 0.00863218 0.00918881 0.00519128
v 0.00918932 0.00807514 0.00521724
v 0.00918932 0.00752961 0.00527851
v 0.01028015 0.00752961 -0.00472397
v 0.00997010 0.00771100 -0.00496801
v 0.00928355 0.00952194 -0.00445293
v 0.00889880 0.00952194 -0.00499917
v 0.00894093 0.00952194 -0.00494932
v 0.00912592 0.00952194 -0.00472917
v 0.00862479 0.00952194 0.00512482
v 0.00807590 0.00952194 0.00526397
v 0.00863218 0.00863197 0.00526812
v 0.00863218 0.00807514 0.00529824
v 0.00863218 0.00752961 0.00530447
v 0.01024411 0.00752961 -0.00476655
v 0.01002307 0.00752961 -0.00500644
v 0.00891400 0.00947279 -0.00501370
v 0.00884843 0.00952194 -0.00503136
v 0.00751399 0.00952194 0.00518193
v 0.00807590 0.00918881 0.00528266
v 0.00812280 0.00752961 0.00515701
v 0.00949503 0.00840397 -0.00503032
v 0.00976687 0.00752961 -0.00512897
v 0.00958665 0.00807514 -0.00507705
v 0.00898913 0.00918881 -0.00505628
v 0.00874595 0.00952194 -0.00507809
v 0.00720697 0.00952194 0.00503655
v 0.00784488 0.00752961 0.00496697
v 0.00918932 0.00752961 -0.00527851
v 0.00918932 0.00807514 -0.00521724
v 0.00863218 0.00918881 -0.00519128
v 0.00919453 0.00860642 -0.00511132
v 0.00862479 0.00952194 -0.00512378
v 0.00691820 0.00952194 0.00479251
v 0.00660901 0.00952194 0.00451835
v 0.00755828 0.00752961 0.00468866
v 0.00917803 0.00752961 -0.00527955
v 0.00863218 0.00807514 -0.00529928
v 0.00863218 0.00863197 -0.00526813
v 0.00829954 0.00952194 -0.00522763
v 0.00635281 0.00952194 0.00420162
v 0.00727993 0.00752961 0.00440204
v 0.00863218 0.00752961 -0.00530447
v 0.00807590 0.00918881 -0.00528163
v 0.00807590 0.00952194 -0.00526397
v 0.00711187 0.00752961 0.00412374
v 0.00628333 0.00952194 0.00399497
v 0.00751399 0.00952194 -0.00518194
v 0.00774284 0.00952194 -0.00524736
v 0.00812280 0.00752961 -0.00515701
v 0.00616044 0.00952155 0.00361904
v 0.00698203 0.00752961 0.00361904
v 0.00616044 0.00952194 0.00361904
v 0.00730251 0.00952194 -0.00509990
v 0.00811368 0.00752961 -0.00515182
v 0.00615826 0.00952194 0.00306243
v 0.00698030 0.00752961 0.00307385
v 0.00720697 0.00952194 -0.00503655
v 0.00784488 0.00752961 -0.00496697
v 0.00615826 0.00952194 -0.00306243
v 0.00698030 0.00752961 -0.00306243
v 0.00713402 0.00952194 -0.00497736
v 0.00783837 0.00752961 -0.00496074
v 0.00660901 0.00952194 -0.00451836
v 0.00673538 0.00952194 -0.00463570
v 0.00691820 0.00952194 -0.00479251
v 0.00616087 0.00952194 -0.00362112
v 0.00616044 0.00952155 -0.00361905
v 0.00698203 0.00752961 -0.00361905
v 0.00754742 0.00752961 -0.00467828
v 0.00648916 0.00952194 -0.00437713
v 0.00727993 0.00752961 -0.00440205
v 0.00635281 0.00952194 -0.00420163
v 0.00710753 0.00752961 -0.00411128
v 0.00727602 0.00752961 -0.00439582
v 0.00711187 0.00752961 -0.00412374
f 1 2 3
f 1 3 4
f 1 4 16
f 1 16 28
f 1 28 40
f 1 40 39
f 1 39 51
f 1 51 62
f 1 62 69
f 1 69 76
f 1 76 84
f 1 84 90
f 1 90 94
f 1 94 100
f 1 100 105
f 1 105 109
f 1 109 117
f 1 117 122
f 1 122 124
f 1 124 123
f 1 123 120
f 1 120 118
f 1 118 111
f 1 111 107
f 1 107 103
f 1 103 98
f 1 98 91
f 1 91 85
f 1 85 77
f 1 77 71
f 1 71 64
f 1 64 63
f 1 63 52
f 1 52 41
f 1 41 29
f 1 29 17
f 1 17 5
f 1 5 7
f 1 7 2
f 2 6 3
f 2 7 19
f 2 19 6
f 3 6 8
f 3 8 9
f 3 9 10
f 3 10 11
f 3 11 12
f 3 12 13
f 3 13 14
f 3 14 4
f 4 14 13
f 4 13 15
f 4 15 16
f 5 17 18
f 5 18 7
f 6 19 20
f 6 20 8
f 7 18 19
f 8 20 21
f 8 21 9
f 9 21 22
f 9 22 10
f 10 22 31
f 10 31 30
f 10 30 34
f 10 34 45
f 10 45 54
f 10 54 57
f 10 57 56
f 10 56 55
f 10 55 66
f 10 66 74
f 10 74 81
f 10 81 88
f 10 88 93
f 10 93 97
f 10 97 96
f 10 96 102
f 10 102 106
f 10 106 110
f 10 110 114
f 10 114 113
f 10 113 112
f 10 112 119
f 10 119 121
f 10 121 115
f 10 115 108
f 10 108 104
f 10 104 101
f 10 101 95
f 10 95 89
f 10 89 83
f 10 83 82
f 10 82 75
f 10 75 67
f 10 67 59
f 10 59 58
f 10 58 46
f 10 46 35
f 10 35 24
f 10 24 12
f 10 12 11
f 12 23 13
f 12 24 23
f 13 23 25
f 13 25 15
f 15 25 26
f 15 26 27
f 15 27 16
f 16 27 28
f 17 29 18
f 18 30 31
f 18 31 21
f 18 21 20
f 18 20 19
f 18 29 32
f 18 32 33
f 18 33 34
f 18 34 30
f 21 31 22
f 23 24 25
f 24 35 25
f 25 35 26
f 26 35 36
f 26 36 27
f 27 36 37
f 27 37 38
f 27 38 39
f 27 39 40
f 27 40 28
f 29 41 33
f 29 33 32
f 33 42 43
f 33 43 44
f 33 44 34
f 33 41 42
f 34 44 45
f 35 46 36
f 36 46 47
f 36 47 37
f 37 47 38
f 38 47 48
f 38 48 39
f 39 48 49
f 39 49 50
f 39 50 51
f 41 52 42
f 42 52 53
f 42 53 43
f 43 54 44
f 43 53 55
f 43 55 56
f 43 56 57
f 43 57 54
f 44 54 45
f 46 58 47
f 47 58 48
f 48 58 49
f 49 59 60
f 49 60 50
f 49 58 59
f 50 60 51
f 51 60 61
f 51 61 62
f 52 63 53
f 53 63 64
f 53 64 65
f 53 65 55
f 55 65 66
f 59 67 68
f 59 68 60
f 60 68 61
f 61 68 62
f 62 68 67
f 62 67 69
f 64 70 65
f 64 71 72
f 64 72 70
f 65 70 73
f 65 73 66
f 66 73 74
f 67 75 69
f 69 75 76
f 70 72 73
f 71 77 78
f 71 78 79
f 71 79 80
f 71 80 72
f 72 80 74
f 72 74 73
f 74 80 81
f 75 82 76
f 76 82 83
f 76 83 84
f 77 85 86
f 77 86 87
f 77 87 78
f 78 87 88
f 78 88 79
f 79 88 81
f 79 81 80
f 83 89 90
f 83 90 84
f 85 91 86
f 86 91 92
f 86 92 93
f 86 93 87
f 87 93 88
f 89 94 90
f 89 95 94
f 91 96 97
f 91 97 92
f 91 98 96
f 92 97 93
f 94 95 99
f 94 99 100
f 95 101 99
f 96 98 102
f 98 103 102
f 99 101 104
f 99 104 100
f 100 104 105
f 102 103 106
f 103 107 106
f 104 108 109
f 104 109 105
f 106 107 110
f 107 111 112
f 107 112 113
f 107 113 114
f 107 114 110
f 108 115 116
f 108 116 117
f 108 117 109
f 111 118 112
f 112 118 120
f 112 120 119
f 115 121 122
f 115 122 116
f 116 122 117
f 119 120 121
f 120 123 121
f 121 123 124
f 121 124 122

