# https://github.com/mikedh/trimesh
v 0.00252525 -0.00471919 -0.00530631
v 0.00252525 -0.00471919 0.00530631
v 0.00252525 -0.00306330 -0.00530631
v 0.01531450 -0.00471919 -0.00530631
v 0.00252525 -0.00304423 0.00530631
v 0.01531450 -0.00471919 0.00530631
v 0.00252525 -0.00250628 -0.00528865
v 0.00306456 -0.00250628 -0.00530631
v 0.01531450 -0.00417734 -0.00530631
v 0.01585677 -0.00471919 -0.00530424
v 0.00306456 -0.00250628 0.00530631
v 0.00252525 -0.00250628 0.00528865
v 0.01587159 -0.00471919 0.00530320
v 0.01531450 -0.00417734 0.00530631
v 0.00252525 -0.00203973 -0.00514114
v 0.00635669 0.00027686 -0.00519516
v 0.00696267 0.00027686 -0.00530631
v 0.01475742 -0.00306330 -0.00530631
v 0.01587159 -0.00417734 -0.00528658
v 0.01587159 -0.00471919 -0.00530320
v 0.01364473 -0.00083620 -0.00530320
v 0.01531450 -0.00362032 -0.00530112
v 0.00696267 0.00027686 0.00530631
v 0.00252525 -0.00248574 0.00528346
v 0.01643015 -0.00471919 0.00525022
v 0.01587159 -0.00417734 0.00528658
v 0.01531450 -0.00362032 0.00530112
v 0.01364473 -0.00083620 0.00530320
v 0.01475742 -0.00306330 0.00530631
v 0.00252525 -0.00176245 -0.00492610
v 0.00585591 0.00027686 -0.00498843
v 0.00620705 0.00027686 -0.00515465
v 0.01253056 0.00027686 -0.00530631
v 0.01308764 -0.00027918 -0.00530631
v 0.01641386 -0.00471919 -0.00525333
v 0.01475742 -0.00250628 -0.00529800
v 0.01420182 -0.00139322 -0.00529177
v 0.01364473 -0.00027918 -0.00528450
v 0.01531450 -0.00306330 -0.00527723
v 0.01308764 0.00027686 -0.00530008
v 0.00635669 0.00027686 0.00519516
v 0.01253056 0.00027686 0.00530631
v 0.00252525 -0.00203973 0.00514114
v 0.00629743 0.00027686 0.00518373
v 0.01646571 -0.00415093 0.00514114
v 0.01587159 -0.00362032 0.00523360
v 0.01420182 -0.00083620 0.00524814
v 0.01475742 -0.00194975 0.00526476
v 0.01531450 -0.00306330 0.00527723
v 0.01694724 -0.00471919 0.00508504
v 0.01364473 -0.00027918 0.00528450
v 0.01420182 -0.00139322 0.00529177
v 0.01475742 -0.00250628 0.00529800
v 0.01308764 0.00027686 0.00530008
v 0.01308764 -0.00027918 0.00530631
v 0.00252525 -0.00146853 -0.00464770
v 0.00576553 0.00027686 -0.00493441
v 0.01643015 -0.00471919 -0.00525022
v 0.01475742 -0.00194975 -0.00526372
v 0.01420182 -0.00083620 -0.00524814
v 0.01364473 0.00027686 -0.00522840
v 0.00252525 -0.00202653 0.00513283
v 0.00620705 0.00027686 0.00515464
v 0.00599962 0.00027686 0.00507881
v 0.01588937 -0.00306721 0.00512556
v 0.01531450 -0.00250628 0.00521178
v 0.01364473 0.00027686 0.00522840
v 0.01705391 -0.00471919 0.00500505
v 0.01715318 -0.00463557 0.00489909
v 0.01678130 -0.00431867 0.00505699
v 0.01630126 -0.00362032 0.00509128
v 0.00252525 -0.00118978 -0.00434748
v 0.00531512 0.00027686 -0.00461653
v 0.01587159 -0.00362032 -0.00523360
v 0.01646571 -0.00414995 -0.00514114
v 0.01692057 -0.00471919 -0.00509543
v 0.01406254 0.00027686 -0.00508608
v 0.01423293 -0.00025962 -0.00513699
v 0.01531450 -0.00250628 -0.00521074
v 0.00252525 -0.00176245 0.00492610
v 0.00574182 0.00027686 0.00491987
v 0.00252525 -0.00145190 0.00463212
v 0.00252525 -0.00175218 0.00491675
v 0.01466556 -0.00083620 0.00510374
v 0.01423293 -0.00026060 0.00513698
v 0.01406254 0.00027686 0.00508712
v 0.01728356 -0.00471919 0.00480144
v 0.01667610 -0.00394749 0.00498843
v 0.01731319 -0.00437002 0.00452823
v 0.01624940 -0.00261191 0.00458849
v 0.01566416 -0.00154874 0.00455524
v 0.01503152 -0.00112180 0.00500921
v 0.01561527 -0.00218889 0.00502687
v 0.01454703 -0.00043421 0.00505388
v 0.01513078 -0.00149298 0.00506634
v 0.01570120 -0.00250628 0.00507258
v 0.00252525 -0.00101275 -0.00406700
v 0.00482175 0.00027686 -0.00417815
v 0.00529586 0.00027686 -0.00459991
v 0.01589085 -0.00306672 -0.00512452
v 0.01694724 -0.00471919 -0.00508504
v 0.01630126 -0.00362032 -0.00509128
v 0.01434109 0.00027686 -0.00486689
v 0.01444035 -0.00006107 -0.00498220
v 0.01454703 -0.00043274 -0.00505388
v 0.01466556 -0.00083620 -0.00510374
v 0.00531957 0.00027686 0.00462069
v 0.00252525 -0.00118978 0.00434748
v 0.01444035 -0.00006254 0.00498116
v 0.01434109 0.00027686 0.00486689
v 0.01737690 -0.00471919 0.00469029
v 0.01761841 -0.00471919 0.00413764
v 0.01672796 -0.00330537 0.00448772
v 0.01507893 -0.00048458 0.00451888
v 0.01457963 0.00027686 0.00458849
v 0.01494410 -0.00083620 0.00491779
v 0.00252525 -0.00091249 -0.00361926
v 0.00457432 0.00027686 -0.00361926
v 0.00478619 0.00027686 -0.00413764
v 0.01717837 -0.00471919 -0.00492507
v 0.01678130 -0.00431769 -0.00505700
v 0.01570268 -0.00250628 -0.00507258
v 0.01457963 0.00027686 -0.00458849
v 0.01494410 -0.00083620 -0.00491779
v 0.01503152 -0.00112180 -0.00500921
v 0.01561527 -0.00218987 -0.00502687
v 0.00504399 0.00027686 0.00440357
v 0.00252525 -0.00118195 0.00433709
v 0.01736209 -0.00428541 0.00417607
v 0.01614272 -0.00224073 0.00441396
v 0.01762433 -0.00471919 0.00406803
v 0.01617532 -0.00218596 0.00404310
v 0.01472927 0.00027686 0.00417607
v 0.00252525 -0.00091054 -0.00308219
v 0.00456987 0.00027686 -0.00306245
v 0.00457283 0.00027686 -0.00344370
v 0.01667610 -0.00394651 -0.00498947
v 0.01715318 -0.00463557 -0.00489909
v 0.01728356 -0.00471919 -0.00480145
v 0.01472927 0.00027686 -0.00417607
v 0.01507893 -0.00048458 -0.00451785
v 0.01566416 -0.00154922 -0.00455524
v 0.00482175 0.00027686 0.00417815
v 0.00252525 -0.00101275 0.00406700
v 0.01496336 -0.00012758 0.00417607
v 0.01766137 -0.00471919 0.00361926
v 0.01678722 -0.00320414 0.00361926
v 0.01514856 -0.00036428 0.00361926
v 0.01477816 0.00027686 0.00361926
v 0.00252525 -0.00091054 0.00306245
v 0.00456987 0.00027686 0.00306245
v 0.01731319 -0.00437002 -0.00452823
v 0.01737690 -0.00471919 -0.00469029
v 0.01477816 0.00027686 -0.00361926
v 0.01617532 -0.00218596 -0.00403895
v 0.01496336 -0.00012807 -0.00417607
v 0.01614272 -0.00224220 -0.00441085
v 0.01672796 -0.00330635 -0.00448668
v 0.00479804 0.00027686 0.00415322
v 0.00252525 -0.00100688 0.00404934
v 0.00478619 0.00027686 0.00413764
v 0.01766137 -0.00471919 -0.00361926
v 0.01678722 -0.00320414 -0.00361926
v 0.01514856 -0.00036428 -0.00361926
v 0.00252525 -0.00091249 0.00361926
v 0.00457432 0.00027686 0.00361926
v 0.01761841 -0.00471919 -0.00413764
v 0.01760211 -0.00471919 -0.00419581
v 0.01736209 -0.00428541 -0.00417607
v 0.00459506 0.00027686 0.00372418
f 1 2 5
f 1 5 12
f 1 12 24
f 1 24 43
f 1 43 62
f 1 62 80
f 1 80 83
f 1 83 82
f 1 82 108
f 1 108 128
f 1 128 144
f 1 144 160
f 1 160 165
f 1 165 150
f 1 150 134
f 1 134 117
f 1 117 97
f 1 97 72
f 1 72 56
f 1 56 30
f 1 30 15
f 1 15 7
f 1 7 3
f 1 3 8
f 1 8 17
f 1 17 33
f 1 33 34
f 1 34 18
f 1 18 9
f 1 9 4
f 1 4 10
f 1 10 20
f 1 20 35
f 1 35 58
f 1 58 76
f 1 76 101
f 1 101 120
f 1 120 139
f 1 139 153
f 1 153 168
f 1 168 167
f 1 167 162
f 1 162 146
f 1 146 131
f 1 131 112
f 1 112 111
f 1 111 87
f 1 87 68
f 1 68 50
f 1 50 25
f 1 25 13
f 1 13 6
f 1 6 2
f 2 6 14
f 2 14 29
f 2 29 55
f 2 55 42
f 2 42 23
f 2 23 11
f 2 11 5
f 3 7 8
f 4 9 10
f 5 11 12
f 6 13 14
f 7 15 16
f 7 16 17
f 7 17 8
f 9 18 10
f 10 19 20
f 10 18 21
f 10 21 22
f 10 22 19
f 11 23 12
f 12 23 24
f 13 25 26
f 13 26 27
f 13 27 28
f 13 28 29
f 13 29 14
f 15 30 31
f 15 31 32
f 15 32 16
f 16 32 31
f 16 31 57
f 16 57 73
f 16 73 99
f 16 99 98
f 16 98 119
f 16 119 118
f 16 118 136
f 16 136 135
f 16 135 151
f 16 151 166
f 16 166 170
f 16 170 161
f 16 161 159
f 16 159 143
f 16 143 127
f 16 127 107
f 16 107 81
f 16 81 64
f 16 64 63
f 16 63 44
f 16 44 41
f 16 41 23
f 16 23 42
f 16 42 54
f 16 54 67
f 16 67 86
f 16 86 110
f 16 110 115
f 16 115 133
f 16 133 149
f 16 149 154
f 16 154 140
f 16 140 123
f 16 123 103
f 16 103 77
f 16 77 61
f 16 61 40
f 16 40 33
f 16 33 17
f 18 34 21
f 19 35 20
f 19 22 36
f 19 36 37
f 19 37 38
f 19 38 39
f 19 39 35
f 21 34 40
f 21 40 36
f 21 36 22
f 23 41 24
f 24 41 44
f 24 44 43
f 25 45 46
f 25 46 47
f 25 47 48
f 25 48 49
f 25 49 26
f 25 50 45
f 26 49 51
f 26 51 52
f 26 52 53
f 26 53 27
f 27 53 28
f 28 54 55
f 28 55 29
f 28 53 54
f 30 56 57
f 30 57 31
f 33 40 34
f 35 39 59
f 35 59 60
f 35 60 58
f 36 40 37
f 37 40 38
f 38 40 61
f 38 61 60
f 38 60 59
f 38 59 39
f 42 55 54
f 43 44 63
f 43 63 64
f 43 64 62
f 45 65 66
f 45 66 46
f 45 50 65
f 46 66 67
f 46 67 47
f 47 67 51
f 47 51 48
f 48 51 49
f 50 68 69
f 50 69 70
f 50 70 71
f 50 71 65
f 51 67 54
f 51 54 52
f 52 54 53
f 56 72 57
f 57 72 73
f 58 60 74
f 58 74 75
f 58 75 76
f 60 61 74
f 61 77 78
f 61 78 79
f 61 79 74
f 62 64 80
f 64 81 82
f 64 82 83
f 64 83 80
f 65 71 84
f 65 84 66
f 66 84 85
f 66 85 67
f 67 85 86
f 68 87 69
f 69 88 70
f 69 87 89
f 69 89 90
f 69 90 91
f 69 91 92
f 69 92 88
f 70 88 93
f 70 93 94
f 70 94 95
f 70 95 96
f 70 96 71
f 71 96 86
f 71 86 84
f 72 97 98
f 72 98 99
f 72 99 73
f 74 79 75
f 75 79 100
f 75 100 76
f 76 100 102
f 76 102 101
f 77 103 104
f 77 104 105
f 77 105 106
f 77 106 78
f 78 106 79
f 79 106 100
f 81 107 108
f 81 108 82
f 84 86 85
f 86 96 95
f 86 95 94
f 86 94 109
f 86 109 110
f 87 111 89
f 88 92 93
f 89 111 112
f 89 112 113
f 89 113 114
f 89 114 91
f 89 91 90
f 91 114 115
f 91 115 116
f 91 116 92
f 92 116 109
f 92 109 94
f 92 94 93
f 97 117 118
f 97 118 119
f 97 119 98
f 100 106 102
f 101 102 121
f 101 121 120
f 102 106 122
f 102 122 121
f 103 123 104
f 104 123 124
f 104 124 125
f 104 125 105
f 105 125 126
f 105 126 121
f 105 121 122
f 105 122 106
f 107 127 108
f 108 127 128
f 109 116 115
f 109 115 110
f 112 129 130
f 112 130 113
f 112 131 132
f 112 132 129
f 113 130 114
f 114 133 115
f 114 130 133
f 117 134 135
f 117 135 136
f 117 136 118
f 120 121 137
f 120 137 125
f 120 125 138
f 120 138 139
f 121 126 137
f 123 140 141
f 123 141 142
f 123 142 124
f 124 142 125
f 125 142 138
f 125 137 126
f 127 143 144
f 127 144 128
f 129 132 130
f 130 132 145
f 130 145 133
f 131 146 132
f 132 146 147
f 132 147 148
f 132 148 149
f 132 149 133
f 132 133 145
f 134 150 151
f 134 151 135
f 138 142 152
f 138 152 139
f 139 152 153
f 140 154 155
f 140 155 156
f 140 156 157
f 140 157 141
f 141 157 158
f 141 158 152
f 141 152 142
f 143 159 144
f 144 159 161
f 144 161 160
f 146 162 163
f 146 163 147
f 147 163 164
f 147 164 148
f 148 164 154
f 148 154 149
f 150 165 151
f 151 165 166
f 152 158 167
f 152 167 168
f 152 168 153
f 154 164 155
f 155 163 162
f 155 162 167
f 155 167 169
f 155 169 157
f 155 157 156
f 155 164 163
f 157 169 167
f 157 167 158
f 160 161 170
f 160 170 165
f 165 170 166

