# https://github.com/mikedh/trimesh
v -0.00027838 -0.00471919 -0.00530631
v -0.00027893 -0.00471845 -0.00530631
v 0.00252525 -0.00471919 -0.00530631
v -0.00027893 -0.00471919 0.00492403
v -0.00027893 -0.00306343 -0.00530631
v 0.00252525 -0.00306343 -0.00530631
v 0.00252525 -0.00471919 0.00530631
v -0.00027893 -0.00471919 0.00530631
v -0.00027893 -0.00252170 -0.00515880
v 0.00250604 -0.00250679 -0.00528865
v 0.00252525 -0.00250679 -0.00528865
v 0.00252525 -0.00304442 0.00530631
v -0.00027893 -0.00306380 0.00530631
v -0.00027893 -0.00224319 -0.00499986
v 0.00252525 -0.00203962 -0.00514114
v -0.00027838 -0.00306343 0.00530631
v 0.00252525 -0.00250679 0.00528865
v 0.00250604 -0.00250679 0.00528865
v -0.00027893 -0.00252170 0.00515880
v -0.00027893 -0.00196133 -0.00472146
v 0.00252525 -0.00146844 -0.00464770
v 0.00252525 -0.00176261 -0.00492610
v 0.00252525 -0.00248628 0.00528346
v 0.00252525 -0.00203962 0.00514114
v -0.00027893 -0.00224319 0.00499986
v -0.00027893 -0.00168282 -0.00444097
v 0.00252525 -0.00118993 -0.00434748
v 0.00252525 -0.00202620 0.00513283
v 0.00252525 -0.00176261 0.00492610
v 0.00252525 -0.00175179 0.00491675
v 0.00252525 -0.00146844 0.00464770
v 0.00252525 -0.00145203 0.00463212
v -0.00027893 -0.00196133 0.00472145
v -0.00027893 -0.00152064 -0.00416257
v 0.00252525 -0.00101283 -0.00406700
v 0.00252525 -0.00118993 0.00434748
v -0.00027893 -0.00168282 0.00444097
v -0.00027893 -0.00136852 -0.00361926
v 0.00252525 -0.00091254 -0.00361926
v 0.00252525 -0.00118210 0.00433709
v 0.00252525 -0.00101283 0.00406700
v -0.00027893 -0.00152064 0.00416257
v -0.00027893 -0.00136703 -0.00306245
v 0.00252525 -0.00091030 -0.00306245
v 0.00252525 -0.00100687 0.00404934
v -0.00027893 -0.00136852 0.00361926
v -0.00027893 -0.00136703 0.00306245
v 0.00252525 -0.00091030 0.00306245
v 0.00252525 -0.00091254 0.00361926
v 0.00252525 -0.00091217 0.00360056
f 1 2 5
f 1 5 6
f 1 6 3
f 1 3 7
f 1 7 8
f 1 8 4
f 1 4 2
f 2 4 8
f 2 8 13
f 2 13 19
f 2 19 25
f 2 25 33
f 2 33 37
f 2 37 42
f 2 42 46
f 2 46 47
f 2 47 43
f 2 43 38
f 2 38 34
f 2 34 26
f 2 26 20
f 2 20 14
f 2 14 9
f 2 9 5
f 3 6 11
f 3 11 15
f 3 15 22
f 3 22 21
f 3 21 27
f 3 27 35
f 3 35 39
f 3 39 44
f 3 44 48
f 3 48 50
f 3 50 49
f 3 49 45
f 3 45 41
f 3 41 40
f 3 40 36
f 3 36 32
f 3 32 31
f 3 31 30
f 3 30 29
f 3 29 28
f 3 28 24
f 3 24 23
f 3 23 17
f 3 17 12
f 3 12 7
f 5 9 10
f 5 10 11
f 5 11 6
f 7 12 16
f 7 16 13
f 7 13 8
f 9 14 15
f 9 15 10
f 10 15 11
f 12 17 18
f 12 18 16
f 13 16 19
f 14 20 21
f 14 21 22
f 14 22 15
f 16 18 19
f 17 23 18
f 18 23 19
f 19 23 24
f 19 24 25
f 20 26 21
f 21 26 27
f 24 28 25
f 25 29 30
f 25 30 31
f 25 31 32
f 25 32 33
f 25 28 29
f 26 34 35
f 26 35 27
f 32 36 37
f 32 37 33
f 34 38 35
f 35 38 39
f 36 40 37
f 37 40 41
f 37 41 42
f 38 43 44
f 38 44 39
f 41 45 42
f 42 45 46
f 43 47 48
f 43 48 44
f 45 49 46
f 46 50 48
f 46 48 47
f 46 49 50

