# https://github.com/mikedh/trimesh
v 0.00807511 0.00952294 -0.00526372
v 0.00807511 0.00974610 -0.00525229
v 0.00829900 0.00952294 -0.00522736
v 0.00774207 0.00952294 -0.00524710
v 0.00467988 0.01314278 -0.00528242
v 0.00467988 0.01364488 -0.00530631
v 0.00584832 0.01253152 -0.00530424
v 0.00640525 0.01197444 -0.00529696
v 0.00696171 0.01141735 -0.00527723
v 0.00640525 0.01253152 -0.00526372
v 0.00584832 0.01364488 -0.00524814
v 0.00751818 0.01086027 -0.00523360
v 0.00696171 0.01197444 -0.00521074
v 0.00862458 0.00952294 -0.00512452
v 0.00467988 0.01308457 -0.00526892
v 0.00751305 0.00952294 -0.00518165
v 0.00467988 0.01425533 -0.00530631
v 0.00529139 0.01308861 -0.00530631
v 0.00473446 0.01420035 -0.00530631
v 0.00529139 0.01364488 -0.00530320
v 0.00467988 0.01481161 -0.00530112
v 0.00473446 0.01475744 -0.00530008
v 0.00584832 0.01308861 -0.00529177
v 0.00529139 0.01420035 -0.00528346
v 0.00473446 0.01531452 -0.00527411
v 0.00529139 0.01475744 -0.00522840
v 0.00473446 0.01587161 -0.00520451
v 0.00753684 0.01141493 -0.00512556
v 0.00794777 0.01086027 -0.00509128
v 0.00862038 0.00969435 -0.00508920
v 0.00874585 0.00952294 -0.00507777
v 0.00467988 0.01260429 -0.00512971
v 0.00730222 0.00952294 -0.00509959
v 0.00467988 0.01536870 -0.00527619
v 0.00467988 0.01592578 -0.00520970
v 0.00467988 0.01645295 -0.00510478
v 0.00473073 0.01638908 -0.00510063
v 0.00530538 0.01530401 -0.00512036
v 0.00631243 0.01364488 -0.00510374
v 0.00734839 0.01197444 -0.00507258
v 0.00842774 0.01016250 -0.00505700
v 0.00884800 0.00952294 -0.00502999
v 0.00467988 0.01256952 -0.00511413
v 0.00720660 0.00952294 -0.00503622
v 0.00467988 0.01652006 -0.00509024
v 0.00511134 0.01587161 -0.00506738
v 0.00677747 0.01298835 -0.00506635
v 0.00784422 0.01122654 -0.00504349
v 0.00667858 0.01335947 -0.00500921
v 0.00889838 0.00952294 -0.00499778
v 0.00467988 0.01232211 -0.00495415
v 0.00713383 0.00952294 -0.00497701
v 0.00467988 0.01675211 -0.00500921
v 0.00502785 0.01617724 -0.00502271
v 0.00561090 0.01511158 -0.00503934
v 0.00619395 0.01404754 -0.00505388
v 0.00491450 0.01654836 -0.00491779
v 0.00566128 0.01575194 -0.00458121
v 0.00731015 0.01293175 -0.00455524
v 0.00879856 0.00984474 -0.00489806
v 0.00894082 0.00952294 -0.00494896
v 0.00673549 0.00952294 -0.00463523
v 0.00467988 0.01204963 -0.00474015
v 0.00467988 0.01708119 -0.00482949
v 0.00467988 0.01726068 -0.00470795
v 0.00507589 0.01681679 -0.00454589
v 0.00672569 0.01399498 -0.00451785
v 0.00895948 0.01010994 -0.00452720
v 0.00789506 0.01186771 -0.00458849
v 0.00903504 0.00969435 -0.00472042
v 0.00912553 0.00952294 -0.00472873
v 0.00660908 0.00952294 -0.00451785
v 0.00467988 0.01169226 -0.00444409
v 0.00467988 0.01745797 -0.00451785
v 0.00467988 0.01764959 -0.00428203
v 0.00555399 0.01612306 -0.00437033
v 0.00614031 0.01505902 -0.00447629
v 0.00837363 0.01117398 -0.00448668
v 0.00938674 0.00952294 -0.00422698
v 0.00928319 0.00952294 -0.00445240
v 0.00648921 0.00952294 -0.00437657
v 0.00635347 0.00952294 -0.00420100
v 0.00467988 0.01152004 -0.00424464
v 0.00467988 0.01769649 -0.00417607
v 0.00617110 0.01511320 -0.00417607
v 0.00794917 0.01202214 -0.00420516
v 0.00778825 0.01223802 -0.00440981
v 0.00943339 0.00952294 -0.00396415
v 0.00467988 0.01145374 -0.00415841
v 0.00467988 0.01147152 -0.00418646
v 0.00616083 0.00952294 -0.00362030
v 0.00467988 0.01774096 -0.00388832
v 0.00558665 0.01617966 -0.00399843
v 0.00944225 0.00952294 -0.00386235
v 0.00467988 0.01126939 -0.00366289
v 0.00615850 0.00952294 -0.00306557
v 0.00467988 0.01126211 -0.00361926
v 0.00467988 0.01778219 -0.00361926
v 0.00944458 0.00952294 -0.00361926
v 0.00615850 0.00952294 0.00306141
v 0.00467988 0.01125969 -0.00306245
v 0.00467988 0.01778219 0.00361926
v 0.00944458 0.00952294 0.00361926
v 0.00616083 0.00952294 0.00361822
v 0.00467988 0.01126211 0.00361926
v 0.00467988 0.01125969 0.00306245
v 0.00558665 0.01617966 0.00400155
v 0.00943339 0.00952294 0.00396415
v 0.00467988 0.01769730 0.00417607
v 0.00628397 0.00952294 0.00399428
v 0.00467988 0.01145374 0.00415841
v 0.00555493 0.01612468 0.00437241
v 0.00778918 0.01223964 0.00441396
v 0.00938721 0.00952294 0.00422697
v 0.00467988 0.01754206 0.00439838
v 0.00507589 0.01681679 0.00454693
v 0.00635347 0.00952294 0.00420204
v 0.00467988 0.01152004 0.00424463
v 0.00614031 0.01505983 0.00447629
v 0.00837410 0.01117479 0.00448772
v 0.00895948 0.01010994 0.00452823
v 0.00912647 0.00952294 0.00472977
v 0.00467988 0.01726230 0.00470795
v 0.00491450 0.01654917 0.00491779
v 0.00667905 0.01335947 0.00500921
v 0.00566081 0.01575356 0.00458121
v 0.00730968 0.01293256 0.00455524
v 0.00672569 0.01399579 0.00451785
v 0.00660908 0.00952294 0.00451785
v 0.00467988 0.01191218 0.00462069
v 0.00789506 0.01186852 0.00458849
v 0.00903504 0.00969435 0.00472145
v 0.00879856 0.00984474 0.00489806
v 0.00894082 0.00952294 0.00494792
v 0.00467988 0.01708119 0.00482949
v 0.00502832 0.01617805 0.00502271
v 0.00726117 0.01229219 0.00502687
v 0.00884800 0.00952294 0.00503102
v 0.00832232 0.01053200 0.00498843
v 0.00691833 0.00952294 0.00479209
v 0.00467988 0.01215232 0.00482014
v 0.00467988 0.01200597 0.00470379
v 0.00467988 0.01652087 0.00509024
v 0.00561090 0.01511158 0.00503934
v 0.00784422 0.01122654 0.00504349
v 0.00511181 0.01587161 0.00506738
v 0.00842727 0.01016088 0.00505699
v 0.00862038 0.00969435 0.00508920
v 0.00862458 0.00952294 0.00512348
v 0.00720660 0.00952294 0.00503726
v 0.00467988 0.01244339 0.00502687
v 0.00467988 0.01639312 0.00511517
v 0.00473446 0.01587161 0.00520451
v 0.00473119 0.01638988 0.00510063
v 0.00734886 0.01197444 0.00507258
v 0.00571025 0.01475744 0.00508712
v 0.00794777 0.01086027 0.00509128
v 0.00803453 0.01057970 0.00511829
v 0.00753684 0.01141412 0.00512556
v 0.00696171 0.01197444 0.00521074
v 0.00751818 0.01086027 0.00523360
v 0.00807511 0.00974610 0.00525126
v 0.00807511 0.00952294 0.00526372
v 0.00751305 0.00952294 0.00518165
v 0.00467988 0.01256952 0.00511413
v 0.00467988 0.01587161 0.00521386
v 0.00473446 0.01531452 0.00527411
v 0.00529139 0.01475744 0.00522840
v 0.00631243 0.01364488 0.00510374
v 0.00530538 0.01530401 0.00512036
v 0.00584832 0.01364488 0.00524814
v 0.00640525 0.01253152 0.00526476
v 0.00696171 0.01141735 0.00527723
v 0.00640525 0.01197444 0.00529696
v 0.00584832 0.01253152 0.00530527
v 0.00467988 0.01364488 0.00530631
v 0.00473446 0.01308861 0.00527930
v 0.00751818 0.00974610 0.00522425
v 0.00467988 0.01308457 0.00526892
v 0.00467988 0.01531452 0.00527723
v 0.00473446 0.01475744 0.00530008
v 0.00529139 0.01420035 0.00528450
v 0.00584832 0.01308861 0.00529177
v 0.00529139 0.01364488 0.00530320
v 0.00473446 0.01420035 0.00530631
v 0.00529139 0.01308861 0.00530631
v 0.00467988 0.01420035 0.00530631
v 0.00467988 0.01475744 0.00530112
f 1 2 3
f 1 3 14
f 1 14 31
f 1 31 42
f 1 42 50
f 1 50 61
f 1 61 71
f 1 71 80
f 1 80 79
f 1 79 88
f 1 88 94
f 1 94 99
f 1 99 103
f 1 103 108
f 1 108 114
f 1 114 122
f 1 122 134
f 1 134 138
f 1 138 149
f 1 149 163
f 1 163 164
f 1 164 150
f 1 150 140
f 1 140 129
f 1 129 117
f 1 117 110
f 1 110 104
f 1 104 100
f 1 100 96
f 1 96 91
f 1 91 82
f 1 82 81
f 1 81 72
f 1 72 62
f 1 62 52
f 1 52 44
f 1 44 33
f 1 33 16
f 1 16 4
f 1 4 5
f 1 5 6
f 1 6 7
f 1 7 8
f 1 8 9
f 1 9 2
f 2 9 10
f 2 10 11
f 2 11 12
f 2 12 3
f 3 12 13
f 3 13 14
f 4 15 5
f 4 16 15
f 5 15 32
f 5 32 43
f 5 43 51
f 5 51 63
f 5 63 73
f 5 73 83
f 5 83 90
f 5 90 89
f 5 89 95
f 5 95 97
f 5 97 101
f 5 101 106
f 5 106 105
f 5 105 111
f 5 111 118
f 5 118 130
f 5 130 142
f 5 142 141
f 5 141 151
f 5 151 165
f 5 165 179
f 5 179 176
f 5 176 187
f 5 187 188
f 5 188 180
f 5 180 166
f 5 166 152
f 5 152 143
f 5 143 135
f 5 135 123
f 5 123 115
f 5 115 109
f 5 109 102
f 5 102 98
f 5 98 92
f 5 92 84
f 5 84 75
f 5 75 74
f 5 74 65
f 5 65 64
f 5 64 53
f 5 53 45
f 5 45 36
f 5 36 35
f 5 35 34
f 5 34 21
f 5 21 17
f 5 17 6
f 6 17 19
f 6 19 18
f 6 18 7
f 7 18 19
f 7 19 20
f 7 20 8
f 8 20 21
f 8 21 22
f 8 22 23
f 8 23 9
f 9 23 24
f 9 24 25
f 9 25 10
f 10 25 11
f 11 26 12
f 11 25 26
f 12 26 13
f 13 26 27
f 13 27 28
f 13 28 14
f 14 28 29
f 14 29 30
f 14 30 31
f 15 16 32
f 16 33 32
f 17 21 19
f 19 21 20
f 21 34 22
f 22 34 24
f 22 24 23
f 24 34 25
f 25 34 35
f 25 35 26
f 26 35 27
f 27 35 36
f 27 36 37
f 27 37 38
f 27 38 39
f 27 39 28
f 28 39 29
f 29 39 40
f 29 40 41
f 29 41 31
f 29 31 30
f 31 41 42
f 32 33 43
f 33 44 43
f 36 45 37
f 37 45 46
f 37 46 39
f 37 39 38
f 39 46 40
f 40 46 47
f 40 47 48
f 40 48 41
f 41 48 42
f 42 48 49
f 42 49 50
f 43 44 51
f 44 52 51
f 45 53 54
f 45 54 46
f 46 54 55
f 46 55 56
f 46 56 47
f 47 56 48
f 48 55 54
f 48 54 49
f 48 56 55
f 49 54 57
f 49 57 58
f 49 58 59
f 49 59 60
f 49 60 61
f 49 61 50
f 51 52 62
f 51 62 63
f 53 64 54
f 54 64 57
f 57 64 65
f 57 65 66
f 57 66 58
f 58 66 59
f 59 66 67
f 59 67 68
f 59 68 69
f 59 69 60
f 60 69 68
f 60 68 61
f 61 68 70
f 61 70 71
f 62 72 63
f 63 72 73
f 65 74 66
f 66 74 75
f 66 75 76
f 66 76 77
f 66 77 67
f 67 77 78
f 67 78 68
f 68 78 79
f 68 79 80
f 68 80 71
f 68 71 70
f 72 81 73
f 73 81 82
f 73 82 83
f 75 84 76
f 76 84 85
f 76 85 86
f 76 86 87
f 76 87 77
f 77 87 78
f 78 87 79
f 79 87 86
f 79 86 88
f 82 89 90
f 82 90 83
f 82 91 89
f 84 92 93
f 84 93 85
f 85 93 88
f 85 88 86
f 88 93 94
f 89 91 95
f 91 96 97
f 91 97 95
f 92 98 93
f 93 98 94
f 94 98 99
f 96 100 106
f 96 106 101
f 96 101 97
f 98 102 103
f 98 103 99
f 100 104 105
f 100 105 106
f 102 107 108
f 102 108 103
f 102 109 107
f 104 110 111
f 104 111 105
f 107 109 112
f 107 112 113
f 107 113 108
f 108 113 114
f 109 115 116
f 109 116 112
f 110 117 111
f 111 117 118
f 112 116 119
f 112 119 113
f 113 119 120
f 113 120 114
f 114 120 121
f 114 121 122
f 115 123 116
f 116 123 124
f 116 124 125
f 116 125 126
f 116 126 127
f 116 127 121
f 116 121 128
f 116 128 119
f 117 129 118
f 118 129 130
f 119 128 120
f 120 128 121
f 121 127 131
f 121 131 132
f 121 132 122
f 122 132 133
f 122 133 134
f 123 135 124
f 124 135 136
f 124 136 125
f 125 136 137
f 125 137 138
f 125 138 139
f 125 139 134
f 125 134 133
f 125 133 132
f 125 132 131
f 125 131 127
f 125 127 126
f 129 140 141
f 129 141 142
f 129 142 130
f 134 139 138
f 135 143 136
f 136 144 145
f 136 145 137
f 136 143 146
f 136 146 144
f 137 145 138
f 138 145 147
f 138 147 148
f 138 148 149
f 140 150 141
f 141 150 151
f 143 152 153
f 143 153 154
f 143 154 146
f 144 146 145
f 145 146 155
f 145 155 147
f 146 154 156
f 146 156 155
f 147 155 157
f 147 157 148
f 148 157 158
f 148 158 149
f 149 159 160
f 149 160 161
f 149 161 162
f 149 162 163
f 149 158 159
f 150 164 165
f 150 165 151
f 152 166 153
f 153 166 167
f 153 167 168
f 153 168 160
f 153 160 159
f 153 159 169
f 153 169 170
f 153 170 154
f 154 170 169
f 154 169 156
f 155 156 157
f 156 169 157
f 157 169 159
f 157 159 158
f 160 168 161
f 161 168 171
f 161 171 162
f 162 171 172
f 162 172 173
f 162 173 163
f 163 173 174
f 163 174 175
f 163 175 176
f 163 176 177
f 163 177 178
f 163 178 164
f 164 178 179
f 164 179 165
f 166 180 167
f 167 180 181
f 167 181 182
f 167 182 173
f 167 173 172
f 167 172 171
f 167 171 168
f 173 182 183
f 173 183 174
f 174 183 181
f 174 181 184
f 174 184 175
f 175 185 186
f 175 186 176
f 175 184 185
f 176 186 185
f 176 185 187
f 176 179 177
f 177 179 178
f 180 188 181
f 181 188 184
f 181 183 182
f 184 188 185
f 185 188 187

