# https://github.com/mikedh/trimesh
v 0.01200179 -0.02455587 -0.00361932
v 0.00919847 -0.02455486 -0.00361932
v 0.01030361 -0.02453041 -0.00407184
v 0.01200179 -0.02453176 -0.00405108
v 0.01200179 -0.02455587 0.00361985
v 0.00919847 -0.02453007 -0.00406976
v 0.00919847 -0.02455486 0.00361985
v 0.01141698 -0.02453041 -0.00407287
v 0.00919847 -0.02448898 -0.00434480
v 0.01030361 -0.02448864 -0.00434999
v 0.01197407 -0.02448864 -0.00435206
v 0.01200179 -0.02453041 -0.00407287
v 0.01200179 -0.02453041 0.00406613
v 0.01197407 -0.02453041 0.00406613
v 0.01030361 -0.02453041 0.00406509
v 0.00919847 -0.02453007 0.00406406
v 0.00919847 -0.02455452 0.00362607
v 0.00919847 -0.02448830 -0.00434895
v 0.00919847 -0.02426588 -0.00472777
v 0.01200179 -0.02427437 -0.00471428
v 0.01200179 -0.02448864 -0.00435206
v 0.01200179 -0.02452837 0.00407962
v 0.01141698 -0.02448694 0.00434428
v 0.00919847 -0.02448660 0.00434221
v 0.00919847 -0.02426249 -0.00473296
v 0.01030361 -0.02426283 -0.00473296
v 0.01141698 -0.02426317 -0.00473296
v 0.01200179 -0.02426317 -0.00473296
v 0.01200179 -0.02448694 0.00434428
v 0.01200179 -0.02447574 0.00436400
v 0.01030361 -0.02426317 0.00473348
v 0.00919847 -0.02426283 0.00473348
v 0.00919847 -0.02448321 0.00434843
v 0.00919847 -0.02400102 -0.00505366
v 0.01141698 -0.02400136 -0.00505366
v 0.01200179 -0.02400136 -0.00505366
v 0.01200179 -0.02426351 0.00473348
v 0.01197407 -0.02426351 0.00473348
v 0.00919847 -0.02425875 0.00473867
v 0.00919847 -0.02367504 -0.00519378
v 0.01200179 -0.02366995 -0.00519585
v 0.01200179 -0.02400340 0.00505523
v 0.01086015 -0.02400340 0.00505523
v 0.00919847 -0.02400306 0.00505419
v 0.00919847 -0.02366995 -0.00519585
v 0.01200179 -0.02311306 -0.00530172
v 0.01200179 -0.02366995 0.00519638
v 0.00919847 -0.02366995 0.00519638
v 0.00919847 -0.02399797 0.00505730
v 0.00919847 -0.02312155 -0.00529964
v 0.01197407 -0.02311306 -0.00530172
v 0.01200179 -0.02255651 -0.00526643
v 0.01200179 -0.02364244 0.00520157
v 0.00919847 -0.02366112 0.00519845
v 0.00919847 -0.02311306 -0.00530068
v 0.00919847 -0.02255651 -0.00518859
v 0.01200179 -0.02214122 -0.00511905
v 0.01200179 -0.02311306 0.00530016
v 0.00919847 -0.02311306 0.00530120
v 0.00919847 -0.02224682 -0.00504121
v 0.01200179 -0.02186277 -0.00487411
v 0.01200179 -0.02308521 0.00530016
v 0.01200179 -0.02255651 0.00526695
v 0.00919847 -0.02255651 0.00518807
v 0.00919847 -0.02196838 -0.00476617
v 0.01200179 -0.02157516 -0.00459596
v 0.01200179 -0.02253206 0.00525865
v 0.01200179 -0.02214122 0.00511957
v 0.00919847 -0.02255175 0.00518600
v 0.00919847 -0.02168858 -0.00448699
v 0.01200179 -0.02126887 -0.00420261
v 0.01200179 -0.02212730 0.00510919
v 0.00919847 -0.02224682 0.00504070
v 0.00919847 -0.02149095 -0.00417666
v 0.01200179 -0.02120028 -0.00408948
v 0.01200179 -0.02186277 0.00487463
v 0.01200179 -0.02156124 0.00458195
v 0.00919847 -0.02196838 0.00476566
v 0.00919847 -0.02132796 -0.00362866
v 0.00919847 -0.02132558 -0.00361932
v 0.01200179 -0.02109128 -0.00363904
v 0.01200179 -0.02126887 0.00420209
v 0.00919847 -0.02168858 0.00448751
v 0.00919847 -0.02132524 -0.00307133
v 0.01200179 -0.02108720 -0.00306925
v 0.01200179 -0.02108856 -0.00361932
v 0.01200179 -0.02124748 0.00416784
v 0.00919847 -0.02149095 0.00417615
v 0.00919847 -0.02132524 0.00306251
v 0.01200179 -0.02108720 0.00306251
v 0.01200179 -0.02120028 0.00408896
v 0.01200179 -0.02112761 0.00390838
v 0.00919847 -0.02148823 0.00416784
v 0.00919847 -0.02132558 0.00361985
v 0.01200179 -0.02108856 0.00361985
f 1 2 3
f 1 3 4
f 1 4 12
f 1 12 21
f 1 21 20
f 1 20 28
f 1 28 36
f 1 36 41
f 1 41 46
f 1 46 52
f 1 52 57
f 1 57 61
f 1 61 66
f 1 66 71
f 1 71 75
f 1 75 81
f 1 81 86
f 1 86 85
f 1 85 90
f 1 90 95
f 1 95 92
f 1 92 91
f 1 91 87
f 1 87 82
f 1 82 77
f 1 77 76
f 1 76 72
f 1 72 68
f 1 68 67
f 1 67 63
f 1 63 62
f 1 62 58
f 1 58 53
f 1 53 47
f 1 47 42
f 1 42 37
f 1 37 30
f 1 30 29
f 1 29 22
f 1 22 13
f 1 13 5
f 1 5 7
f 1 7 2
f 2 6 3
f 2 7 17
f 2 17 16
f 2 16 24
f 2 24 33
f 2 33 32
f 2 32 39
f 2 39 44
f 2 44 49
f 2 49 48
f 2 48 54
f 2 54 59
f 2 59 64
f 2 64 69
f 2 69 73
f 2 73 78
f 2 78 83
f 2 83 88
f 2 88 93
f 2 93 94
f 2 94 89
f 2 89 84
f 2 84 80
f 2 80 79
f 2 79 74
f 2 74 70
f 2 70 65
f 2 65 60
f 2 60 56
f 2 56 55
f 2 55 50
f 2 50 45
f 2 45 40
f 2 40 34
f 2 34 25
f 2 25 19
f 2 19 18
f 2 18 9
f 2 9 6
f 3 8 4
f 3 6 9
f 3 9 10
f 3 10 11
f 3 11 8
f 4 8 12
f 5 13 14
f 5 14 15
f 5 15 16
f 5 16 17
f 5 17 7
f 8 11 21
f 8 21 12
f 9 18 10
f 10 18 19
f 10 19 11
f 11 19 20
f 11 20 21
f 13 22 14
f 14 22 15
f 15 22 23
f 15 23 24
f 15 24 16
f 19 25 26
f 19 26 27
f 19 27 20
f 20 27 28
f 22 29 23
f 23 29 30
f 23 30 31
f 23 31 32
f 23 32 33
f 23 33 24
f 25 34 26
f 26 34 27
f 27 34 35
f 27 35 36
f 27 36 28
f 30 37 38
f 30 38 31
f 31 38 39
f 31 39 32
f 34 40 35
f 35 40 36
f 36 40 41
f 37 42 43
f 37 43 38
f 38 43 39
f 39 43 44
f 40 45 41
f 41 45 51
f 41 51 46
f 42 47 48
f 42 48 43
f 43 48 49
f 43 49 44
f 45 50 51
f 46 51 52
f 47 53 54
f 47 54 48
f 50 55 51
f 51 55 52
f 52 55 56
f 52 56 57
f 53 58 59
f 53 59 54
f 56 60 57
f 57 60 61
f 58 62 59
f 59 62 63
f 59 63 64
f 60 65 66
f 60 66 61
f 63 67 64
f 64 68 69
f 64 67 68
f 65 70 66
f 66 70 71
f 68 72 73
f 68 73 69
f 70 74 71
f 71 74 75
f 72 76 73
f 73 76 77
f 73 77 78
f 74 79 75
f 75 79 80
f 75 80 81
f 77 82 83
f 77 83 78
f 80 84 85
f 80 85 86
f 80 86 81
f 82 87 88
f 82 88 83
f 84 89 90
f 84 90 85
f 87 91 88
f 88 91 92
f 88 92 93
f 89 94 90
f 90 94 95
f 92 95 94
f 92 94 93

