# https://github.com/mikedh/trimesh
v 0.00885773 -0.00710109 -0.00306245
v 0.01082642 -0.00705143 -0.00306245
v 0.00885773 -0.00710109 0.00306245
v 0.00885773 -0.00710085 -0.00339488
v 0.01082642 -0.00705119 -0.00361926
v 0.01082642 -0.00705143 0.00306245
v 0.01082642 -0.00705119 0.00361926
v 0.00885773 -0.00710039 0.00361926
v 0.00885773 -0.00710039 -0.00361926
v 0.01082642 -0.00688402 -0.00418023
v 0.01082642 -0.00689568 0.00414179
v 0.00885773 -0.00703371 0.00384469
v 0.00885773 -0.00693438 -0.00417607
v 0.01082642 -0.00670170 -0.00447318
v 0.01082642 -0.00688402 0.00418023
v 0.00885773 -0.00693438 0.00417607
v 0.00885773 -0.00672594 -0.00449707
v 0.01082642 -0.00668421 -0.00449084
v 0.01082642 -0.00671032 0.00445967
v 0.00885773 -0.00686047 0.00429658
v 0.00885773 -0.00644406 -0.00477547
v 0.01082642 -0.00614329 -0.00502791
v 0.01082642 -0.00642215 -0.00475158
v 0.01082642 -0.00670170 0.00447318
v 0.00885773 -0.00672594 0.00449707
v 0.00885773 -0.00616568 -0.00504765
v 0.01082642 -0.00612954 -0.00503622
v 0.01082642 -0.00642215 0.00475158
v 0.01082642 -0.00616125 0.00501025
v 0.00885773 -0.00661240 0.00460926
v 0.00885773 -0.00584836 -0.00519412
v 0.01082642 -0.00585162 -0.00517334
v 0.01082642 -0.00614329 0.00502791
v 0.00885773 -0.00633168 0.00488663
v 0.00885773 -0.00529159 -0.00530631
v 0.00976681 -0.00529159 -0.00530631
v 0.01082642 -0.00529135 -0.00530631
v 0.01082642 -0.00581478 -0.00518373
v 0.00885773 -0.00616568 0.00504765
v 0.01082642 -0.00585162 0.00517334
v 0.00885773 -0.00471919 -0.00530631
v 0.01082642 -0.00471919 -0.00530631
v 0.00885773 -0.00604630 0.00510686
v 0.01082642 -0.00529135 0.00530631
v 0.00885773 -0.00562336 0.00524814
v 0.00885773 -0.00584836 0.00519412
v 0.00885773 -0.00471919 0.00530631
v 0.01082642 -0.00471919 -0.00493234
v 0.01082642 -0.00472036 0.00530631
v 0.00976681 -0.00529159 0.00530631
v 0.00885773 -0.00529159 0.00530631
v 0.01031840 -0.00471919 0.00530631
f 1 2 6
f 1 6 3
f 1 3 8
f 1 8 12
f 1 12 16
f 1 16 20
f 1 20 25
f 1 25 30
f 1 30 34
f 1 34 39
f 1 39 43
f 1 43 46
f 1 46 45
f 1 45 51
f 1 51 47
f 1 47 41
f 1 41 35
f 1 35 31
f 1 31 26
f 1 26 21
f 1 21 17
f 1 17 13
f 1 13 9
f 1 9 4
f 1 4 5
f 1 5 2
f 2 5 10
f 2 10 14
f 2 14 18
f 2 18 23
f 2 23 22
f 2 22 27
f 2 27 32
f 2 32 38
f 2 38 37
f 2 37 42
f 2 42 48
f 2 48 49
f 2 49 44
f 2 44 40
f 2 40 33
f 2 33 29
f 2 29 28
f 2 28 24
f 2 24 19
f 2 19 15
f 2 15 11
f 2 11 7
f 2 7 6
f 3 6 7
f 3 7 8
f 4 9 5
f 5 9 10
f 7 11 12
f 7 12 8
f 9 13 10
f 10 13 14
f 11 15 16
f 11 16 12
f 13 17 14
f 14 17 18
f 15 19 20
f 15 20 16
f 17 21 22
f 17 22 23
f 17 23 18
f 19 24 20
f 20 24 25
f 21 26 22
f 22 26 27
f 24 28 25
f 25 28 29
f 25 29 30
f 26 31 32
f 26 32 27
f 29 33 34
f 29 34 30
f 31 35 36
f 31 36 37
f 31 37 38
f 31 38 32
f 33 39 34
f 33 40 39
f 35 41 42
f 35 42 37
f 35 37 36
f 39 40 43
f 40 44 45
f 40 45 46
f 40 46 43
f 41 47 52
f 41 52 48
f 41 48 42
f 44 49 52
f 44 52 47
f 44 47 51
f 44 51 50
f 44 50 45
f 45 50 51
f 48 52 49

