# https://github.com/mikedh/trimesh
v -0.01433511 -0.00846557 -0.00306245
v -0.01433529 -0.00846264 -0.00361926
v -0.01252469 -0.00746480 -0.00361926
v -0.01252469 -0.00746664 -0.00306245
v -0.01433511 -0.00846557 0.00306245
v -0.01433529 -0.00835446 -0.00405661
v -0.01252469 -0.00735149 -0.00408570
v -0.01433529 -0.00846264 0.00361926
v -0.01252469 -0.00746664 0.00306972
v -0.01252469 -0.00746480 0.00361926
v -0.01433529 -0.00818393 -0.00429346
v -0.01252469 -0.00717656 -0.00436410
v -0.01252469 -0.00746407 0.00362446
v -0.01433529 -0.00840066 0.00394753
v -0.01433529 -0.00792577 -0.00456252
v -0.01252469 -0.00689786 -0.00465809
v -0.01252469 -0.00735149 0.00408569
v -0.01433529 -0.00835446 0.00405661
v -0.01433529 -0.00760782 -0.00482742
v -0.01252469 -0.00660265 -0.00493649
v -0.01252469 -0.00717656 0.00436410
v -0.01433529 -0.00825178 0.00421347
v -0.01433529 -0.00734122 -0.00504037
v -0.01252469 -0.00632468 -0.00514530
v -0.01252469 -0.00717326 0.00436825
v -0.01433529 -0.00818393 0.00429346
v -0.01433529 -0.00727998 -0.00507985
v -0.01433529 -0.00698697 -0.00519204
v -0.01252469 -0.00585272 -0.00529073
v -0.01433529 -0.00796170 0.00453135
v -0.01252469 -0.00689786 0.00465809
v -0.01433529 -0.00640536 -0.00530424
v -0.01420165 -0.00640536 -0.00530424
v -0.01364461 -0.00640536 -0.00526476
v -0.01253107 -0.00584832 -0.00529281
v -0.01252469 -0.00584832 -0.00529177
v -0.01252469 -0.00659972 0.00493961
v -0.01433529 -0.00792577 0.00456252
v -0.01433529 -0.00584832 -0.00530631
v -0.01308793 -0.00584832 -0.00530631
v -0.01252469 -0.00529164 -0.00530631
v -0.01252469 -0.00632468 0.00514530
v -0.01433529 -0.00731188 0.00506427
v -0.01433529 -0.00770464 0.00475262
v -0.01433529 -0.00471919 -0.00530631
v -0.01252469 -0.00471956 -0.00530631
v -0.01433529 -0.00712412 0.00515153
v -0.01433529 -0.00727998 0.00507985
v -0.01252469 -0.00584832 0.00529177
v -0.01253107 -0.00584832 0.00529281
v -0.01253107 -0.00471919 -0.00530631
v -0.01433529 -0.00471919 0.00530631
v -0.01252469 -0.00471919 -0.00094014
v -0.01433529 -0.00698697 0.00519204
v -0.01252469 -0.00584208 0.00529281
v -0.01364461 -0.00640536 0.00526476
v -0.01308793 -0.00584832 0.00530631
v -0.01420165 -0.00640536 0.00530424
v -0.01433529 -0.00653884 0.00529696
v -0.01433529 -0.00598180 0.00530631
v -0.01252469 -0.00471919 0.00530631
v -0.01252469 -0.00529164 0.00530631
v -0.01433529 -0.00640536 0.00530424
f 1 2 3
f 1 3 4
f 1 4 9
f 1 9 5
f 1 5 8
f 1 8 2
f 2 6 7
f 2 7 3
f 2 8 14
f 2 14 18
f 2 18 22
f 2 22 26
f 2 26 30
f 2 30 38
f 2 38 44
f 2 44 43
f 2 43 48
f 2 48 47
f 2 47 54
f 2 54 59
f 2 59 63
f 2 63 60
f 2 60 52
f 2 52 45
f 2 45 39
f 2 39 32
f 2 32 28
f 2 28 27
f 2 27 23
f 2 23 19
f 2 19 15
f 2 15 11
f 2 11 6
f 3 7 12
f 3 12 16
f 3 16 20
f 3 20 24
f 3 24 29
f 3 29 36
f 3 36 41
f 3 41 46
f 3 46 53
f 3 53 61
f 3 61 62
f 3 62 55
f 3 55 49
f 3 49 42
f 3 42 37
f 3 37 31
f 3 31 25
f 3 25 21
f 3 21 17
f 3 17 13
f 3 13 10
f 3 10 9
f 3 9 4
f 5 9 10
f 5 10 8
f 6 11 12
f 6 12 7
f 8 10 13
f 8 13 14
f 11 15 16
f 11 16 12
f 13 17 14
f 14 17 18
f 15 19 20
f 15 20 16
f 17 21 18
f 18 21 22
f 19 23 20
f 20 23 24
f 21 25 22
f 22 25 26
f 23 27 24
f 24 27 28
f 24 28 29
f 25 30 26
f 25 31 30
f 28 32 33
f 28 33 34
f 28 34 35
f 28 35 29
f 29 35 36
f 30 31 37
f 30 37 38
f 32 39 40
f 32 40 33
f 33 35 34
f 33 40 35
f 35 40 41
f 35 41 36
f 37 42 43
f 37 43 44
f 37 44 38
f 39 45 51
f 39 51 46
f 39 46 41
f 39 41 40
f 42 47 48
f 42 48 43
f 42 49 50
f 42 50 47
f 45 52 61
f 45 61 53
f 45 53 51
f 46 51 53
f 47 50 54
f 49 55 50
f 50 56 54
f 50 55 57
f 50 57 58
f 50 58 59
f 50 59 56
f 52 60 57
f 52 57 62
f 52 62 61
f 54 56 59
f 55 62 57
f 57 60 58
f 58 63 59
f 58 60 63

