# https://github.com/mikedh/trimesh
v -0.01433527 -0.00846530 0.00306245
v -0.01433587 -0.00471919 0.00530631
v -0.01433587 -0.00598220 0.00530631
v -0.01433587 -0.00640558 0.00530424
v -0.01433587 -0.00653909 0.00529696
v -0.01433587 -0.00698726 0.00519204
v -0.01433587 -0.00712458 0.00515153
v -0.01433587 -0.00728001 0.00507985
v -0.01433587 -0.00731195 0.00506427
v -0.01433587 -0.00770483 0.00475262
v -0.01433587 -0.00792605 0.00456252
v -0.01433587 -0.00796134 0.00453135
v -0.01433587 -0.00818400 0.00429346
v -0.01433587 -0.00825170 0.00421347
v -0.01433587 -0.00835421 0.00405661
v -0.01433587 -0.00840046 0.00394753
v -0.01433587 -0.00846244 0.00361926
v -0.01433707 -0.00846387 0.00361926
v -0.01551234 -0.00959004 0.00306245
v -0.01433527 -0.00846530 -0.00306245
v -0.01531596 -0.00471919 0.00530631
v -0.01433587 -0.00471919 -0.00530631
v -0.01475866 -0.00640558 0.00530631
v -0.01754278 -0.00918954 0.00530631
v -0.01794334 -0.00959004 0.00530631
v -0.01754278 -0.00959004 0.00529696
v -0.01738664 -0.00959004 0.00528450
v -0.01697646 -0.00959004 0.00517542
v -0.01684314 -0.00959004 0.00513283
v -0.01672724 -0.00959004 0.00507258
v -0.01666899 -0.00959004 0.00504037
v -0.01627623 -0.00959004 0.00473496
v -0.01604442 -0.00959004 0.00454174
v -0.01602520 -0.00959004 0.00452408
v -0.01578439 -0.00959004 0.00426957
v -0.01571592 -0.00959004 0.00419165
v -0.01561323 -0.00959004 0.00403791
v -0.01438632 -0.00842620 0.00400778
v -0.01553576 -0.00953807 0.00398701
v -0.01556639 -0.00959004 0.00392675
v -0.01551594 -0.00959004 0.00361926
v -0.01551234 -0.00959004 -0.00306245
v -0.01433707 -0.00846387 -0.00361926
v -0.01433587 -0.00846244 -0.00361926
v -0.01433587 -0.00835421 -0.00405661
v -0.01433587 -0.00818400 -0.00429346
v -0.01433587 -0.00792605 -0.00456252
v -0.01433587 -0.00760756 -0.00482742
v -0.01433587 -0.00734104 -0.00504037
v -0.01433587 -0.00728001 -0.00507985
v -0.01433587 -0.00698726 -0.00519204
v -0.01433587 -0.00640558 -0.00530424
v -0.01433587 -0.00584822 -0.00530631
v -0.01585765 -0.00471919 0.00530424
v -0.01587267 -0.00529134 0.00530631
v -0.01531596 -0.00471919 -0.00530631
v -0.01810008 -0.00959004 0.00530631
v -0.01551594 -0.00959004 -0.00361926
v -0.01553576 -0.00953807 -0.00398701
v -0.01438632 -0.00842620 -0.00400778
v -0.01561323 -0.00959004 -0.00403791
v -0.01578439 -0.00959004 -0.00426957
v -0.01604442 -0.00959004 -0.00454174
v -0.01636931 -0.00959004 -0.00480456
v -0.01660653 -0.00959004 -0.00498947
v -0.01672724 -0.00959004 -0.00507258
v -0.01435629 -0.00731815 -0.00506946
v -0.01697646 -0.00959004 -0.00517542
v -0.01754278 -0.00959004 -0.00529696
v -0.01754278 -0.00918954 -0.00530631
v -0.01475866 -0.00640558 -0.00530631
v -0.01587267 -0.00471919 0.00530320
v -0.01642997 -0.00529134 0.00529281
v -0.01698667 -0.00640558 0.00529800
v -0.01754278 -0.00751888 0.00530216
v -0.01810008 -0.00863265 0.00530424
v -0.01642997 -0.00584822 0.00530527
v -0.01698667 -0.00696247 0.00530631
v -0.01587267 -0.00529134 -0.00530631
v -0.01587267 -0.00471919 -0.00530320
v -0.01810008 -0.00918954 0.00530631
v -0.01850004 -0.00959004 0.00530527
v -0.01810008 -0.00959004 -0.00530631
v -0.01641435 -0.00471919 0.00525229
v -0.01698667 -0.00584822 0.00526684
v -0.01754278 -0.00696247 0.00527930
v -0.01810008 -0.00807577 0.00528865
v -0.01865679 -0.00918954 0.00529489
v -0.01865679 -0.00959004 0.00530216
v -0.01698667 -0.00696247 -0.00530631
v -0.01642997 -0.00584822 -0.00530527
v -0.01810008 -0.00863265 -0.00530424
v -0.01754278 -0.00751888 -0.00530216
v -0.01698667 -0.00640558 -0.00529800
v -0.01642997 -0.00529134 -0.00529281
v -0.01642997 -0.00473445 -0.00525126
v -0.01643057 -0.00471919 -0.00524814
v -0.01865679 -0.00959004 -0.00530216
v -0.01810008 -0.00918954 -0.00530631
v -0.01643057 -0.00471919 0.00524814
v -0.01642997 -0.00473445 0.00525126
v -0.01865679 -0.00863265 0.00525645
v -0.01905735 -0.00959004 0.00527723
v -0.01865679 -0.00918954 -0.00529489
v -0.01810008 -0.00807577 -0.00528761
v -0.01754278 -0.00696247 -0.00527930
v -0.01698667 -0.00584822 -0.00526684
v -0.01865679 -0.00863265 -0.00525541
v -0.01810008 -0.00751888 -0.00523775
v -0.01754278 -0.00640558 -0.00521594
v -0.01698667 -0.00529134 -0.00518893
v -0.01694403 -0.00471919 -0.00508297
v -0.01921409 -0.00959004 -0.00525022
v -0.01691701 -0.00471919 0.00509335
v -0.01698667 -0.00529134 0.00518893
v -0.01754278 -0.00640558 0.00521594
v -0.01810008 -0.00751888 0.00523775
v -0.01921409 -0.00918954 0.00519724
v -0.01921409 -0.00959004 0.00525022
v -0.01921409 -0.00918954 -0.00519724
v -0.01812170 -0.00696009 -0.00512867
v -0.01754638 -0.00587540 -0.00510998
v -0.01697346 -0.00478928 -0.00508816
v -0.01733979 -0.00529134 -0.00505492
v -0.01726593 -0.00501146 -0.00501233
v -0.01705634 -0.00471919 -0.00499778
v -0.01971855 -0.00959004 -0.00509959
v -0.01694403 -0.00471919 0.00508297
v -0.01697346 -0.00478976 0.00508816
v -0.01754698 -0.00587540 0.00510998
v -0.01812230 -0.00695913 0.00512867
v -0.01960804 -0.00959004 0.00514114
v -0.01853848 -0.00751888 -0.00509439
v -0.01793853 -0.00640558 -0.00507673
v -0.01784845 -0.00607851 -0.00503103
v -0.01950055 -0.00889679 -0.00501752
v -0.01891142 -0.00783404 -0.00499467
v -0.02013292 -0.00932208 -0.00457083
v -0.01789710 -0.00543819 -0.00456148
v -0.01737402 -0.00471919 -0.00468717
v -0.01727553 -0.00471919 -0.00480248
v -0.01997077 -0.00959004 -0.00494169
v -0.01957922 -0.00918954 -0.00506219
v -0.01717464 -0.00471919 0.00491987
v -0.01726533 -0.00501242 0.00501233
v -0.01734039 -0.00529134 0.00505492
v -0.01853848 -0.00751888 0.00509543
v -0.01971915 -0.00959004 0.00509959
v -0.01938524 -0.00852537 -0.00490741
v -0.02042178 -0.00959004 -0.00417296
v -0.02002602 -0.00895067 -0.00432670
v -0.01954799 -0.00825790 -0.00453551
v -0.02022240 -0.00959004 -0.00464458
v -0.01896246 -0.00719371 -0.00449603
v -0.01837633 -0.00613048 -0.00444513
v -0.01778960 -0.00506677 -0.00427788
v -0.01761484 -0.00471919 -0.00413244
v -0.01737342 -0.00471919 0.00468613
v -0.01789650 -0.00543819 0.00456148
v -0.01832288 -0.00677128 0.00496662
v -0.01891081 -0.00783499 0.00499467
v -0.01949995 -0.00889727 0.00501752
v -0.01843038 -0.00714270 0.00504661
v -0.01957922 -0.00918954 0.00506115
v -0.01997137 -0.00959004 0.00494169
v -0.02047043 -0.00959004 -0.00361926
v -0.02005905 -0.00889441 -0.00395584
v -0.01840876 -0.00607470 -0.00407323
v -0.01782263 -0.00501051 -0.00390598
v -0.01762085 -0.00471919 -0.00406076
v -0.01759803 -0.00471919 0.00419269
v -0.01779020 -0.00506677 0.00427788
v -0.01837693 -0.00612953 0.00444617
v -0.01896186 -0.00719371 0.00449499
v -0.01954679 -0.00825837 0.00453447
v -0.02013232 -0.00932161 0.00457186
v -0.01848263 -0.00650094 0.00459472
v -0.02022180 -0.00959004 0.00464562
v -0.02047043 -0.00959004 0.00361926
v -0.02006386 -0.00888630 -0.00361926
v -0.01782383 -0.00500956 -0.00361926
v -0.01766289 -0.00473111 -0.00361926
v -0.01765568 -0.00471919 -0.00361926
v -0.01761424 -0.00471919 0.00413244
v -0.02002602 -0.00895067 0.00432774
v -0.01765568 -0.00478880 0.00412621
v -0.01782263 -0.00501051 0.00390598
v -0.02005905 -0.00889441 0.00395688
v -0.02038515 -0.00959004 0.00428203
v -0.02046502 -0.00959004 0.00368159
v -0.02006386 -0.00888630 0.00361926
v -0.01782383 -0.00500956 0.00361926
v -0.01766289 -0.00473111 0.00361926
v -0.01765568 -0.00471919 0.00361926
v -0.02042178 -0.00959004 0.00417296
f 1 2 3
f 1 3 4
f 1 4 5
f 1 5 6
f 1 6 7
f 1 7 8
f 1 8 9
f 1 9 10
f 1 10 11
f 1 11 12
f 1 12 13
f 1 13 14
f 1 14 15
f 1 15 16
f 1 16 17
f 1 17 18
f 1 18 19
f 1 19 42
f 1 42 20
f 1 20 22
f 1 22 2
f 2 21 55
f 2 55 78
f 2 78 81
f 2 81 57
f 2 57 25
f 2 25 24
f 2 24 23
f 2 23 3
f 2 22 56
f 2 56 80
f 2 80 97
f 2 97 112
f 2 112 126
f 2 126 141
f 2 141 140
f 2 140 157
f 2 157 170
f 2 170 183
f 2 183 194
f 2 194 184
f 2 184 171
f 2 171 158
f 2 158 144
f 2 144 128
f 2 128 114
f 2 114 100
f 2 100 84
f 2 84 72
f 2 72 54
f 2 54 21
f 3 23 4
f 4 23 24
f 4 24 25
f 4 25 26
f 4 26 5
f 5 26 27
f 5 27 6
f 6 28 7
f 6 27 28
f 7 28 29
f 7 29 8
f 8 29 9
f 9 30 31
f 9 31 10
f 9 29 30
f 10 31 32
f 10 32 11
f 11 33 12
f 11 32 33
f 12 33 34
f 12 34 13
f 13 34 35
f 13 35 14
f 14 35 36
f 14 36 15
f 15 36 37
f 15 37 38
f 15 38 16
f 16 38 39
f 16 39 40
f 16 40 18
f 16 18 17
f 18 41 19
f 18 40 41
f 19 41 40
f 19 40 37
f 19 37 36
f 19 36 35
f 19 35 34
f 19 34 33
f 19 33 32
f 19 32 31
f 19 31 30
f 19 30 29
f 19 29 28
f 19 28 27
f 19 27 26
f 19 26 25
f 19 25 57
f 19 57 82
f 19 82 89
f 19 89 103
f 19 103 119
f 19 119 132
f 19 132 148
f 19 148 165
f 19 165 178
f 19 178 189
f 19 189 195
f 19 195 190
f 19 190 179
f 19 179 166
f 19 166 150
f 19 150 153
f 19 153 142
f 19 142 127
f 19 127 113
f 19 113 98
f 19 98 83
f 19 83 69
f 19 69 68
f 19 68 66
f 19 66 65
f 19 65 64
f 19 64 63
f 19 63 62
f 19 62 61
f 19 61 58
f 19 58 42
f 20 42 43
f 20 43 44
f 20 44 45
f 20 45 46
f 20 46 47
f 20 47 48
f 20 48 49
f 20 49 50
f 20 50 51
f 20 51 52
f 20 52 53
f 20 53 22
f 21 54 55
f 22 53 71
f 22 71 70
f 22 70 83
f 22 83 99
f 22 99 90
f 22 90 79
f 22 79 56
f 37 40 39
f 37 39 38
f 42 58 43
f 43 58 59
f 43 59 60
f 43 60 45
f 43 45 44
f 45 60 61
f 45 61 62
f 45 62 46
f 46 62 63
f 46 63 47
f 47 63 64
f 47 64 48
f 48 64 65
f 48 65 49
f 49 65 66
f 49 66 67
f 49 67 50
f 50 67 66
f 50 66 68
f 50 68 51
f 51 68 69
f 51 69 52
f 52 70 71
f 52 71 53
f 52 69 70
f 54 72 73
f 54 73 74
f 54 74 75
f 54 75 76
f 54 76 77
f 54 77 55
f 55 77 78
f 56 79 80
f 57 81 82
f 58 61 59
f 59 61 60
f 69 83 70
f 72 84 73
f 73 84 85
f 73 85 86
f 73 86 87
f 73 87 88
f 73 88 74
f 74 88 75
f 75 88 76
f 76 88 89
f 76 89 82
f 76 82 78
f 76 78 77
f 78 82 81
f 79 90 91
f 79 91 80
f 80 91 92
f 80 92 93
f 80 93 94
f 80 94 95
f 80 95 96
f 80 96 97
f 83 98 99
f 84 100 101
f 84 101 85
f 85 101 102
f 85 102 86
f 86 102 103
f 86 103 87
f 87 103 88
f 88 103 89
f 90 99 92
f 90 92 91
f 92 98 104
f 92 104 93
f 92 99 98
f 93 104 94
f 94 104 95
f 95 104 105
f 95 105 106
f 95 106 107
f 95 107 96
f 96 107 108
f 96 108 109
f 96 109 110
f 96 110 111
f 96 111 97
f 97 111 112
f 98 113 104
f 100 114 115
f 100 115 101
f 101 115 116
f 101 116 117
f 101 117 102
f 102 117 118
f 102 118 119
f 102 119 103
f 104 113 108
f 104 108 105
f 105 108 106
f 106 108 107
f 108 113 120
f 108 120 109
f 109 120 110
f 110 120 111
f 111 121 122
f 111 122 123
f 111 123 112
f 111 120 121
f 112 123 124
f 112 124 125
f 112 125 126
f 113 127 120
f 114 128 129
f 114 129 115
f 115 129 130
f 115 130 131
f 115 131 132
f 115 132 118
f 115 118 116
f 116 118 117
f 118 132 119
f 120 127 121
f 121 127 133
f 121 133 122
f 122 133 123
f 123 133 134
f 123 134 124
f 124 135 125
f 124 134 135
f 125 135 136
f 125 136 137
f 125 137 138
f 125 138 139
f 125 139 140
f 125 140 141
f 125 141 126
f 127 142 143
f 127 143 133
f 128 144 145
f 128 145 146
f 128 146 129
f 129 147 130
f 129 146 147
f 130 147 131
f 131 147 132
f 132 147 148
f 133 143 134
f 134 143 135
f 135 143 136
f 136 142 137
f 136 143 142
f 137 142 149
f 137 149 138
f 138 150 151
f 138 151 152
f 138 152 139
f 138 149 142
f 138 142 153
f 138 153 150
f 139 152 154
f 139 154 155
f 139 155 156
f 139 156 140
f 140 156 157
f 144 158 159
f 144 159 160
f 144 160 145
f 145 160 161
f 145 161 162
f 145 162 163
f 145 163 146
f 146 163 147
f 147 163 164
f 147 164 148
f 148 164 165
f 150 166 167
f 150 167 151
f 151 155 154
f 151 154 152
f 151 167 155
f 155 167 168
f 155 168 157
f 155 157 156
f 157 168 169
f 157 169 170
f 158 171 172
f 158 172 159
f 159 172 173
f 159 173 174
f 159 174 175
f 159 175 176
f 159 176 177
f 159 177 160
f 160 165 161
f 160 177 176
f 160 176 165
f 161 165 162
f 162 165 164
f 162 164 163
f 165 176 178
f 166 179 191
f 166 191 180
f 166 180 169
f 166 169 167
f 167 169 168
f 169 180 181
f 169 181 182
f 169 182 183
f 169 183 170
f 171 184 172
f 172 184 173
f 173 185 174
f 173 184 186
f 173 186 187
f 173 187 188
f 173 188 185
f 174 185 176
f 174 176 175
f 176 185 189
f 176 189 178
f 179 190 188
f 179 188 187
f 179 187 191
f 180 191 192
f 180 192 181
f 181 192 193
f 181 193 182
f 182 193 194
f 182 194 183
f 184 194 187
f 184 187 186
f 185 188 195
f 185 195 189
f 187 194 193
f 187 193 192
f 187 192 191
f 188 190 195

