# https://github.com/mikedh/trimesh
v 0.01261067 0.00403522 0.00361926
v 0.01231033 0.00455542 0.00361926
v 0.01184241 0.00528820 0.00415841
v 0.01228655 0.00451409 0.00417607
v 0.01256144 0.00403522 0.00417607
v 0.01261067 0.00403522 -0.00361926
v 0.01188721 0.00528820 0.00361926
v 0.01231033 0.00455542 -0.00361926
v 0.01181309 0.00528820 0.00424671
v 0.01225889 0.00446686 0.00446590
v 0.01238777 0.00403522 0.00461653
v 0.01257969 0.00403522 -0.00397039
v 0.01184185 0.00528820 -0.00415841
v 0.01188721 0.00528820 -0.00361926
v 0.01177935 0.00515977 0.00457290
v 0.01158411 0.00528820 0.00471003
v 0.01234186 0.00417665 0.00457394
v 0.01228710 0.00403522 0.00473496
v 0.01256144 0.00403522 -0.00417607
v 0.01228600 0.00451323 -0.00417607
v 0.01225834 0.00446576 -0.00446487
v 0.01174230 0.00528820 -0.00448772
v 0.01153765 0.00528820 0.00476405
v 0.01161840 0.00488894 0.00494376
v 0.01214385 0.00403522 0.00490117
v 0.01246907 0.00403522 -0.00444201
v 0.01238721 0.00403522 -0.00461653
v 0.01234131 0.00417665 -0.00457394
v 0.01177991 0.00515842 -0.00457290
v 0.01158190 0.00528820 -0.00471107
v 0.01122791 0.00528820 0.00506219
v 0.01172957 0.00451777 0.00503518
v 0.01182415 0.00417665 0.00508193
v 0.01187006 0.00403522 0.00509543
v 0.01214440 0.00403522 -0.00490221
v 0.01161840 0.00488857 -0.00494376
v 0.01153654 0.00528820 -0.00476405
v 0.01086010 0.00528820 0.00519931
v 0.01142647 0.00471537 0.00511621
v 0.01141707 0.00417665 0.00522321
v 0.01141707 0.00403522 0.00523775
v 0.01197792 0.00403522 -0.00503934
v 0.01172902 0.00451740 -0.00503518
v 0.01122791 0.00528820 -0.00506219
v 0.01030312 0.00528820 0.00529489
v 0.01086010 0.00473341 0.00527099
v 0.01086010 0.00417665 0.00530008
v 0.01086010 0.00403522 0.00530112
v 0.01187062 0.00403522 -0.00509543
v 0.01182471 0.00417665 -0.00508193
v 0.01142647 0.00471513 -0.00511621
v 0.01086010 0.00528820 -0.00519828
v 0.00974670 0.00528820 0.00530631
v 0.01030312 0.00473341 0.00530527
v 0.01030312 0.00417665 0.00530631
v 0.01030312 0.00403522 0.00530631
v 0.01156862 0.00403522 -0.00519931
v 0.01141707 0.00417665 -0.00522217
v 0.01086010 0.00473341 -0.00527099
v 0.01030312 0.00528820 -0.00529489
v 0.00918972 0.00528820 0.00530631
v 0.00904813 0.00403522 0.00530631
v 0.01141707 0.00403522 -0.00523775
v 0.01100169 0.00403522 -0.00529489
v 0.01086010 0.00417665 -0.00530008
v 0.01030312 0.00473341 -0.00530527
v 0.00974670 0.00528820 -0.00530631
v 0.00863275 0.00417665 0.00530320
v 0.00863275 0.00528820 0.00527826
v 0.00863275 0.00473341 0.00529177
v 0.00863275 0.00403522 0.00530320
v 0.01086010 0.00403522 -0.00530112
v 0.01044471 0.00403522 -0.00530631
v 0.00918972 0.00528820 -0.00530631
v 0.00847511 0.00403522 0.00526268
v 0.00820575 0.00528820 0.00513179
v 0.00810619 0.00403522 0.00515361
v 0.00918972 0.00403522 -0.00530631
v 0.00863275 0.00417665 -0.00530320
v 0.00863275 0.00473341 -0.00529177
v 0.00863275 0.00528820 -0.00527827
v 0.00800165 0.00403522 0.00508920
v 0.00792754 0.00528820 0.00488247
v 0.00783904 0.00403522 0.00497389
v 0.00863275 0.00403522 -0.00530320
v 0.00810619 0.00403522 -0.00515361
v 0.00820575 0.00528820 -0.00513179
v 0.00764822 0.00528820 0.00460407
v 0.00755088 0.00403522 0.00469860
v 0.00775884 0.00403522 0.00490013
v 0.00783904 0.00403522 -0.00497389
v 0.00792754 0.00528820 -0.00488247
v 0.00736946 0.00528820 0.00425398
v 0.00727266 0.00403522 0.00441292
v 0.00742643 0.00403522 0.00457290
v 0.00755088 0.00403522 -0.00469860
v 0.00764822 0.00528820 -0.00460407
v 0.00710286 0.00403522 0.00414179
v 0.00722620 0.00403522 0.00434540
v 0.00720519 0.00528820 0.00397558
v 0.00727266 0.00403522 -0.00441292
v 0.00736946 0.00528820 -0.00425398
v 0.00705087 0.00403522 0.00398701
v 0.00716923 0.00528820 0.00361926
v 0.00696071 0.00403522 0.00361926
v 0.00710286 0.00403522 -0.00414179
v 0.00720519 0.00528820 -0.00397558
v 0.00716923 0.00528820 -0.00361926
v 0.00696071 0.00403522 -0.00361926
f 1 2 3
f 1 3 4
f 1 4 5
f 1 5 11
f 1 11 18
f 1 18 25
f 1 25 34
f 1 34 41
f 1 41 48
f 1 48 56
f 1 56 62
f 1 62 71
f 1 71 75
f 1 75 77
f 1 77 82
f 1 82 84
f 1 84 90
f 1 90 89
f 1 89 95
f 1 95 94
f 1 94 99
f 1 99 98
f 1 98 103
f 1 103 105
f 1 105 109
f 1 109 106
f 1 106 101
f 1 101 96
f 1 96 91
f 1 91 86
f 1 86 85
f 1 85 78
f 1 78 73
f 1 73 72
f 1 72 64
f 1 64 63
f 1 63 57
f 1 57 49
f 1 49 42
f 1 42 35
f 1 35 27
f 1 27 26
f 1 26 19
f 1 19 12
f 1 12 6
f 1 6 8
f 1 8 2
f 2 7 3
f 2 8 14
f 2 14 7
f 3 9 10
f 3 10 4
f 3 7 14
f 3 14 13
f 3 13 22
f 3 22 30
f 3 30 37
f 3 37 44
f 3 44 52
f 3 52 60
f 3 60 67
f 3 67 74
f 3 74 81
f 3 81 87
f 3 87 92
f 3 92 97
f 3 97 102
f 3 102 107
f 3 107 108
f 3 108 104
f 3 104 100
f 3 100 93
f 3 93 88
f 3 88 83
f 3 83 76
f 3 76 69
f 3 69 61
f 3 61 53
f 3 53 45
f 3 45 38
f 3 38 31
f 3 31 23
f 3 23 16
f 3 16 9
f 4 10 5
f 5 10 11
f 6 12 13
f 6 13 8
f 8 13 14
f 9 15 10
f 9 16 15
f 10 15 17
f 10 17 11
f 11 17 15
f 11 15 18
f 12 19 13
f 13 19 20
f 13 20 21
f 13 21 22
f 15 16 23
f 15 23 24
f 15 24 18
f 18 24 25
f 19 26 21
f 19 21 20
f 21 26 27
f 21 27 28
f 21 28 29
f 21 29 22
f 22 29 30
f 23 31 24
f 24 31 32
f 24 32 25
f 25 32 33
f 25 33 34
f 27 35 29
f 27 29 28
f 29 35 36
f 29 36 37
f 29 37 30
f 31 38 39
f 31 39 33
f 31 33 32
f 33 39 34
f 34 39 40
f 34 40 41
f 35 42 43
f 35 43 36
f 36 43 44
f 36 44 37
f 38 45 46
f 38 46 40
f 38 40 39
f 40 46 41
f 41 46 47
f 41 47 48
f 42 49 50
f 42 50 43
f 43 50 44
f 44 50 51
f 44 51 52
f 45 53 54
f 45 54 47
f 45 47 46
f 47 54 48
f 48 54 55
f 48 55 56
f 49 51 50
f 49 57 51
f 51 57 52
f 52 57 58
f 52 58 59
f 52 59 60
f 53 61 62
f 53 62 56
f 53 56 55
f 53 55 54
f 57 63 58
f 58 63 59
f 59 63 64
f 59 64 60
f 60 65 66
f 60 66 67
f 60 64 65
f 61 68 62
f 61 69 70
f 61 70 68
f 62 68 71
f 64 72 65
f 65 72 66
f 66 72 73
f 66 73 67
f 67 73 78
f 67 78 74
f 68 70 75
f 68 75 71
f 69 76 77
f 69 77 75
f 69 75 70
f 74 78 85
f 74 85 79
f 74 79 80
f 74 80 81
f 76 82 77
f 76 83 84
f 76 84 82
f 79 86 80
f 79 85 86
f 80 86 81
f 81 86 87
f 83 88 89
f 83 89 90
f 83 90 84
f 86 91 87
f 87 91 92
f 88 93 94
f 88 94 95
f 88 95 89
f 91 96 92
f 92 96 97
f 93 98 99
f 93 99 94
f 93 100 98
f 96 101 97
f 97 101 102
f 98 100 103
f 100 104 105
f 100 105 103
f 101 106 102
f 102 106 107
f 104 108 109
f 104 109 105
f 106 109 107
f 107 109 108

