# https://github.com/mikedh/trimesh
v -0.02589602 -0.02255571 -0.00530631
v -0.02589602 -0.02311281 -0.00530008
v -0.02645358 -0.02311281 -0.00529904
v -0.02589602 -0.02199913 -0.00530216
v -0.02533991 -0.02144254 -0.00530631
v -0.01339496 -0.02255571 -0.00530631
v -0.01643054 -0.02311281 -0.00530112
v -0.02144134 -0.02366990 -0.00519308
v -0.02645358 -0.02366990 -0.00519204
v -0.02645358 -0.02255571 -0.00528865
v -0.02705291 -0.02372073 -0.00512348
v -0.02701113 -0.02311281 -0.00524191
v -0.02533991 -0.02088544 -0.00529904
v -0.02478235 -0.02032885 -0.00530527
v -0.02422624 -0.01977176 -0.00530631
v -0.01735116 -0.01940741 -0.00530631
v -0.01339496 -0.02224874 -0.00528761
v -0.01339496 -0.02311281 -0.00530112
v -0.02589602 -0.02399701 -0.00505076
v -0.01339496 -0.02366990 -0.00519308
v -0.01339496 -0.02381735 -0.00512971
v -0.01475932 -0.02399852 -0.00505180
v -0.01754421 -0.02399801 -0.00505180
v -0.02645358 -0.02399650 -0.00505076
v -0.02689587 -0.02398040 -0.00503726
v -0.02645358 -0.02199913 -0.00523983
v -0.02589602 -0.02144254 -0.00528034
v -0.02478235 -0.01977176 -0.00529385
v -0.02726758 -0.02394014 -0.00500713
v -0.02740012 -0.02356875 -0.00507881
v -0.02743182 -0.02311281 -0.00509959
v -0.02705435 -0.02251847 -0.00514530
v -0.02422624 -0.01940741 -0.00530424
v -0.02366868 -0.01940741 -0.00530631
v -0.01698666 -0.01940741 -0.00527930
v -0.01339496 -0.02197900 -0.00522632
v -0.01679504 -0.01940741 -0.00525853
v -0.02645358 -0.02425266 -0.00473392
v -0.01475932 -0.02425618 -0.00473392
v -0.01643054 -0.02425567 -0.00473392
v -0.01339496 -0.02399852 -0.00505180
v -0.02705291 -0.02415402 -0.00478586
v -0.02589602 -0.02088544 -0.00521905
v -0.02533991 -0.02032885 -0.00526892
v -0.02478235 -0.01940741 -0.00526684
v -0.02747216 -0.02408860 -0.00463627
v -0.02784386 -0.02394417 -0.00444513
v -0.02762199 -0.02375646 -0.00478690
v -0.02791446 -0.02357327 -0.00456771
v -0.02770988 -0.02311281 -0.00487624
v -0.02736843 -0.02267901 -0.00506115
v -0.02689876 -0.02199913 -0.00509647
v -0.02647807 -0.02143549 -0.00513075
v -0.02533991 -0.01977176 -0.00519308
v -0.01339496 -0.02171982 -0.00514114
v -0.01644351 -0.01940741 -0.00514737
v -0.02645358 -0.02448264 -0.00431216
v -0.01364565 -0.02448465 -0.00432566
v -0.01754421 -0.02448415 -0.00432151
v -0.01339496 -0.02425618 -0.00473392
v -0.02700825 -0.02445999 -0.00417503
v -0.02533126 -0.01940741 -0.00511933
v -0.02762199 -0.02415754 -0.00422698
v -0.02787556 -0.02398594 -0.00407427
v -0.02796344 -0.02372324 -0.00422698
v -0.02806717 -0.02311281 -0.00417607
v -0.02793463 -0.02311281 -0.00459784
v -0.02789573 -0.02273537 -0.00453343
v -0.02726902 -0.02230761 -0.00499778
v -0.02678782 -0.02161666 -0.00504765
v -0.02629798 -0.02088544 -0.00507881
v -0.02758309 -0.02252149 -0.00476613
v -0.02590322 -0.02035100 -0.00511309
v -0.01339496 -0.02161163 -0.00509128
v -0.01630520 -0.01940741 -0.00510167
v -0.02645358 -0.02452441 -0.00403375
v -0.02682240 -0.02451787 -0.00398805
v -0.02422624 -0.02448314 -0.00431424
v -0.02533991 -0.02452491 -0.00403479
v -0.01339496 -0.02448465 -0.00432566
v -0.01339496 -0.02452642 -0.00404726
v -0.01531687 -0.02452642 -0.00404518
v -0.01475932 -0.02448465 -0.00432359
v -0.02714656 -0.02448314 -0.00361926
v -0.02569864 -0.01977176 -0.00505803
v -0.02551711 -0.01940741 -0.00504245
v -0.02756725 -0.02426071 -0.00361926
v -0.02789141 -0.02400456 -0.00361926
v -0.02803836 -0.02366990 -0.00361926
v -0.02811183 -0.02311281 -0.00361926
v -0.02794183 -0.02264177 -0.00417607
v -0.02779776 -0.02236347 -0.00417607
v -0.02731944 -0.02166799 -0.00450226
v -0.02741453 -0.02199913 -0.00461861
v -0.02668121 -0.02124526 -0.00497077
v -0.02562229 -0.01948592 -0.00501440
v -0.02620577 -0.02055179 -0.00503310
v -0.01339496 -0.02149286 -0.00500090
v -0.01621876 -0.01940741 -0.00505076
v -0.02645358 -0.02454404 -0.00361926
v -0.02686706 -0.02452441 -0.00361926
v -0.01339496 -0.02454806 -0.00361926
v -0.02715088 -0.02448465 0.00139202
v -0.02715232 -0.02448465 0.00194883
v -0.02756725 -0.02426121 -0.00306245
v -0.02566695 -0.01940741 -0.00491052
v -0.02756725 -0.02426171 -0.00194883
v -0.02756725 -0.02426322 0.00194883
v -0.02789141 -0.02400506 -0.00139202
v -0.02803980 -0.02366990 0.00250564
v -0.02811183 -0.02311281 0.00361926
v -0.02796488 -0.02259748 -0.00361926
v -0.02782369 -0.02231919 -0.00361926
v -0.02759030 -0.02199913 -0.00417607
v -0.02673452 -0.02060413 -0.00445759
v -0.02625476 -0.01991166 -0.00456667
v -0.02609340 -0.02018040 -0.00493857
v -0.01339496 -0.02135145 -0.00487832
v -0.01615249 -0.01940741 -0.00501025
v -0.02645358 -0.02454404 0.00361926
v -0.02687426 -0.02452441 0.00250564
v -0.02687282 -0.02452441 0.00083521
v -0.02686994 -0.02452441 -0.00194883
v -0.02686850 -0.02452441 -0.00306245
v -0.01339496 -0.02454806 0.00361926
v -0.02715232 -0.02448465 0.00361926
v -0.02582110 -0.01940741 -0.00472977
v -0.02756725 -0.02426322 0.00361926
v -0.02789141 -0.02400506 0.00361926
v -0.02803980 -0.02366990 0.00361926
v -0.02806861 -0.02311281 0.00417607
v -0.02794327 -0.02264076 0.00417607
v -0.02796488 -0.02259748 0.00361926
v -0.02782369 -0.02231869 -0.00194883
v -0.02763928 -0.02199913 -0.00361926
v -0.02617984 -0.01948391 -0.00393091
v -0.02735978 -0.02159904 -0.00417607
v -0.02608475 -0.01940741 -0.00422386
v -0.02614671 -0.01954027 -0.00430177
v -0.01339496 -0.02115468 -0.00470691
v -0.01574332 -0.01940741 -0.00471522
v -0.01339496 -0.02099314 -0.00455732
v -0.02533991 -0.02452491 0.00402752
v -0.02645358 -0.02452441 0.00402648
v -0.02682672 -0.02451787 0.00398389
v -0.02687426 -0.02452441 0.00361926
v -0.01339496 -0.02452642 0.00404103
v -0.01420176 -0.02452642 0.00404103
v -0.01531687 -0.02452642 0.00403895
v -0.01865788 -0.02452592 0.00403583
v -0.02701113 -0.02445949 0.00417192
v -0.02762199 -0.02415805 0.00422801
v -0.02787556 -0.02398594 0.00407738
v -0.02796488 -0.02372374 0.00422801
v -0.02791446 -0.02357428 0.00456771
v -0.02793463 -0.02311281 0.00459887
v -0.02789573 -0.02273437 0.00453551
v -0.02779776 -0.02236247 0.00417607
v -0.02782369 -0.02231919 0.00361926
v -0.02782369 -0.02231869 0.00250564
v -0.02763928 -0.02199913 0.00361926
v -0.02738428 -0.02155728 -0.00361926
v -0.02635273 -0.01977176 -0.00361926
v -0.02614094 -0.01940741 -0.00361926
v -0.02612365 -0.01940741 -0.00400363
v -0.01549840 -0.01940741 -0.00452616
v -0.01339496 -0.02083512 -0.00438072
v -0.02144134 -0.02448163 0.00431112
v -0.02645358 -0.02448063 0.00430489
v -0.01364565 -0.02448314 0.00431943
v -0.01643054 -0.02448264 0.00431631
v -0.01339496 -0.02448314 0.00431943
v -0.02705435 -0.02415352 0.00478690
v -0.02747360 -0.02408810 0.00463627
v -0.02784386 -0.02394568 0.00444824
v -0.02762199 -0.02375746 0.00478794
v -0.02740012 -0.02356925 0.00507881
v -0.02771132 -0.02311281 0.00487832
v -0.02736843 -0.02267901 0.00506115
v -0.02758309 -0.02252099 0.00476612
v -0.02741453 -0.02199913 0.00461757
v -0.02731944 -0.02166849 0.00450019
v -0.02673452 -0.02060312 0.00445863
v -0.02758886 -0.02199913 0.00417607
v -0.02617984 -0.01948391 0.00393091
v -0.02738428 -0.02155728 0.00361926
v -0.02613806 -0.01940741 0.00384676
v -0.02635273 -0.01977176 0.00361926
v -0.02614094 -0.01940741 0.00361926
v -0.01547967 -0.01940741 -0.00451057
v -0.01339496 -0.02074504 -0.00425710
v -0.01522899 -0.01940741 -0.00426957
v -0.02645358 -0.02425215 0.00473392
v -0.02589602 -0.02448063 0.00430593
v -0.01865788 -0.02448214 0.00431424
v -0.01587299 -0.02448264 0.00431735
v -0.01339496 -0.02438149 0.00450538
v -0.01754421 -0.02425517 0.00473392
v -0.02726902 -0.02394064 0.00500817
v -0.02689876 -0.02398141 0.00503830
v -0.02743326 -0.02311281 0.00509959
v -0.02705435 -0.02372073 0.00512452
v -0.02701113 -0.02311281 0.00524294
v -0.02705435 -0.02251847 0.00514633
v -0.02689732 -0.02199913 0.00509751
v -0.02629798 -0.02088544 0.00507881
v -0.02678638 -0.02161666 0.00504765
v -0.02726902 -0.02230812 0.00499778
v -0.02668121 -0.02124526 0.00497077
v -0.02625332 -0.01991116 0.00456563
v -0.02681520 -0.02088544 0.00456563
v -0.02614815 -0.01954027 0.00430281
v -0.02675901 -0.02055934 0.00417607
v -0.02608475 -0.01940741 0.00422490
v -0.02609916 -0.01940741 0.00414075
v -0.02612221 -0.01940741 0.00400467
v -0.01339496 -0.02066955 -0.00414802
v -0.01514399 -0.01940741 -0.00418231
v -0.02645358 -0.02399852 0.00505180
v -0.01339496 -0.02425618 0.00473392
v -0.01420176 -0.02425618 0.00473392
v -0.02645358 -0.02366990 0.00519308
v -0.02645358 -0.02311281 0.00529904
v -0.02645358 -0.02255571 0.00528969
v -0.02645358 -0.02199913 0.00524087
v -0.02589602 -0.02088544 0.00521905
v -0.02533991 -0.01977176 0.00519308
v -0.02647807 -0.02143549 0.00513075
v -0.02590322 -0.02035100 0.00511309
v -0.02543211 -0.01940741 0.00508193
v -0.02569864 -0.01977176 0.00505803
v -0.02620433 -0.02055129 0.00503310
v -0.02562229 -0.01948592 0.00501440
v -0.02609340 -0.02018040 0.00493753
v -0.02595221 -0.01940741 0.00450642
v -0.02582110 -0.01940741 0.00472873
v -0.01339496 -0.02056890 -0.00398493
v -0.01501576 -0.01940741 -0.00400986
v -0.01531687 -0.02400003 0.00505284
v -0.01339496 -0.02400003 0.00505284
v -0.02589602 -0.02311281 0.00530008
v -0.01921544 -0.02366990 0.00519412
v -0.02589602 -0.02255571 0.00530631
v -0.02589602 -0.02199913 0.00530216
v -0.02533991 -0.02088544 0.00529904
v -0.02478235 -0.01977176 0.00529385
v -0.02589602 -0.02144254 0.00528034
v -0.02533991 -0.02032885 0.00526892
v -0.02497541 -0.01940741 0.00523256
v -0.02533126 -0.01940741 0.00511932
v -0.02551711 -0.01940741 0.00504245
v -0.02559779 -0.01940741 0.00499051
v -0.02566695 -0.01940741 0.00490948
v -0.01339496 -0.02053418 -0.00386754
v -0.01499127 -0.01940741 -0.00395792
v -0.01339496 -0.02385207 0.00511621
v -0.01339496 -0.02341979 0.00524191
v -0.01339496 -0.02311281 0.00530008
v -0.01339496 -0.02286320 0.00530320
v -0.01339496 -0.02366990 0.00519412
v -0.02533991 -0.02144254 0.00530631
v -0.01339496 -0.02255571 0.00530631
v -0.02478235 -0.02032885 0.00530527
v -0.02441785 -0.01940741 0.00530112
v -0.02478235 -0.01940741 0.00526788
v -0.01339496 -0.02051355 -0.00361926
v -0.01492932 -0.01940741 -0.00361926
v -0.02422624 -0.01977176 0.00530631
v -0.01339496 -0.02197900 0.00522632
v -0.01364565 -0.02199913 0.00527203
v -0.01698666 -0.01940741 0.00527930
v -0.01698666 -0.01977176 0.00530631
v -0.02422624 -0.01940741 0.00530424
v -0.01339496 -0.02051304 -0.00345928
v -0.01492644 -0.01940741 -0.00306245
v -0.02386174 -0.01940741 0.00530631
v -0.01339496 -0.02161163 0.00509128
v -0.01644351 -0.01940741 0.00514737
v -0.01754421 -0.01940741 0.00530631
v -0.01339496 -0.02051204 -0.00306245
v -0.01492644 -0.01940741 0.00308323
v -0.01339496 -0.02135145 0.00487832
v -0.01621876 -0.01940741 0.00505076
v -0.01339496 -0.02051204 0.00306245
v -0.01492932 -0.01940741 0.00361926
v -0.01339496 -0.02051355 0.00361926
v -0.01339496 -0.02099314 0.00455732
v -0.01606748 -0.01940741 0.00494480
v -0.01494661 -0.01940741 0.00370860
v -0.01339496 -0.02056890 0.00398493
v -0.01339496 -0.02074504 0.00425710
v -0.01549840 -0.01940741 0.00452616
v -0.01584417 -0.01940741 0.00478482
v -0.01501576 -0.01940741 0.00400986
v -0.01497254 -0.01943157 0.00398701
v -0.01522899 -0.01940741 0.00426957
f 1 2 3
f 1 3 4
f 1 4 5
f 1 5 15
f 1 15 34
f 1 34 16
f 1 16 6
f 1 6 18
f 1 18 7
f 1 7 2
f 2 8 9
f 2 9 3
f 2 7 8
f 3 10 4
f 3 9 11
f 3 11 12
f 3 12 10
f 4 13 14
f 4 14 5
f 4 10 13
f 5 14 15
f 6 16 17
f 6 17 36
f 6 36 55
f 6 55 74
f 6 74 98
f 6 98 118
f 6 118 140
f 6 140 142
f 6 142 167
f 6 167 191
f 6 191 217
f 6 217 237
f 6 237 254
f 6 254 266
f 6 266 274
f 6 274 280
f 6 280 284
f 6 284 286
f 6 286 290
f 6 290 291
f 6 291 287
f 6 287 282
f 6 282 277
f 6 277 269
f 6 269 262
f 6 262 259
f 6 259 258
f 6 258 257
f 6 257 260
f 6 260 256
f 6 256 240
f 6 240 220
f 6 220 197
f 6 197 172
f 6 172 147
f 6 147 125
f 6 125 102
f 6 102 81
f 6 81 80
f 6 80 60
f 6 60 41
f 6 41 21
f 6 21 20
f 6 20 18
f 7 18 20
f 7 20 8
f 8 19 9
f 8 20 21
f 8 21 22
f 8 22 23
f 8 23 19
f 9 24 25
f 9 25 11
f 9 19 24
f 10 12 26
f 10 26 27
f 10 27 28
f 10 28 13
f 11 29 30
f 11 30 12
f 11 25 29
f 12 30 31
f 12 31 32
f 12 32 26
f 13 28 33
f 13 33 14
f 14 33 15
f 15 33 34
f 16 35 17
f 16 34 33
f 16 33 45
f 16 45 62
f 16 62 86
f 16 86 106
f 16 106 127
f 16 127 138
f 16 138 165
f 16 165 164
f 16 164 189
f 16 189 187
f 16 187 216
f 16 216 215
f 16 215 214
f 16 214 235
f 16 235 236
f 16 236 253
f 16 253 252
f 16 252 251
f 16 251 230
f 16 230 250
f 16 250 249
f 16 249 265
f 16 265 264
f 16 264 273
f 16 273 276
f 16 276 279
f 16 279 271
f 16 271 278
f 16 278 283
f 16 283 288
f 16 288 293
f 16 293 292
f 16 292 296
f 16 296 294
f 16 294 289
f 16 289 285
f 16 285 281
f 16 281 275
f 16 275 267
f 16 267 255
f 16 255 238
f 16 238 218
f 16 218 192
f 16 192 190
f 16 190 166
f 16 166 141
f 16 141 119
f 16 119 99
f 16 99 75
f 16 75 56
f 16 56 37
f 16 37 35
f 17 35 37
f 17 37 36
f 19 38 24
f 19 23 39
f 19 39 40
f 19 40 38
f 21 41 22
f 22 41 60
f 22 60 39
f 22 39 23
f 24 38 25
f 25 38 42
f 25 42 29
f 26 32 43
f 26 43 44
f 26 44 27
f 27 44 28
f 28 44 45
f 28 45 33
f 29 42 46
f 29 46 47
f 29 47 48
f 29 48 30
f 30 48 49
f 30 49 50
f 30 50 31
f 31 51 32
f 31 50 51
f 32 51 52
f 32 52 53
f 32 53 54
f 32 54 43
f 36 37 55
f 37 56 55
f 38 57 42
f 38 40 58
f 38 58 59
f 38 59 57
f 39 60 80
f 39 80 58
f 39 58 40
f 42 57 61
f 42 61 46
f 43 54 44
f 44 54 45
f 45 54 62
f 46 63 47
f 46 61 63
f 47 64 65
f 47 65 49
f 47 49 48
f 47 63 64
f 49 65 66
f 49 66 67
f 49 67 50
f 50 67 68
f 50 68 51
f 51 69 70
f 51 70 71
f 51 71 52
f 51 68 72
f 51 72 69
f 52 71 73
f 52 73 53
f 53 73 54
f 54 73 62
f 55 56 75
f 55 75 74
f 57 76 77
f 57 77 61
f 57 59 78
f 57 78 79
f 57 79 76
f 58 80 81
f 58 81 82
f 58 82 83
f 58 83 59
f 59 83 82
f 59 82 79
f 59 79 78
f 61 77 84
f 61 84 63
f 62 73 85
f 62 85 86
f 63 84 87
f 63 87 64
f 64 88 89
f 64 89 65
f 64 87 88
f 65 89 66
f 66 89 90
f 66 90 91
f 66 91 68
f 66 68 67
f 68 92 93
f 68 93 94
f 68 94 72
f 68 91 92
f 69 72 94
f 69 94 95
f 69 95 96
f 69 96 97
f 69 97 70
f 70 97 71
f 71 97 85
f 71 85 73
f 74 75 98
f 75 99 98
f 76 100 77
f 76 79 100
f 77 101 84
f 77 100 101
f 79 82 102
f 79 102 100
f 81 102 82
f 84 103 104
f 84 104 105
f 84 105 87
f 84 101 103
f 85 96 86
f 85 97 96
f 86 96 106
f 87 105 88
f 88 105 107
f 88 107 108
f 88 108 109
f 88 109 110
f 88 110 89
f 89 110 90
f 90 110 130
f 90 130 111
f 90 111 133
f 90 133 112
f 90 112 91
f 91 112 113
f 91 113 92
f 92 113 114
f 92 114 115
f 92 115 93
f 93 115 116
f 93 116 94
f 94 116 95
f 95 116 117
f 95 117 96
f 96 117 106
f 98 99 119
f 98 119 118
f 100 120 146
f 100 146 121
f 100 121 122
f 100 122 123
f 100 123 124
f 100 124 101
f 100 102 125
f 100 125 120
f 101 124 104
f 101 104 103
f 104 124 123
f 104 123 122
f 104 122 121
f 104 121 146
f 104 146 126
f 104 126 128
f 104 128 108
f 104 108 107
f 104 107 105
f 106 117 116
f 106 116 127
f 108 128 129
f 108 129 109
f 109 129 130
f 109 130 110
f 111 130 131
f 111 131 132
f 111 132 133
f 112 133 160
f 112 160 134
f 112 134 113
f 113 134 135
f 113 135 136
f 113 136 114
f 114 136 137
f 114 137 115
f 115 138 139
f 115 139 116
f 115 137 138
f 116 139 127
f 118 119 140
f 119 141 142
f 119 142 140
f 120 143 144
f 120 144 145
f 120 145 146
f 120 125 143
f 125 147 148
f 125 148 149
f 125 149 150
f 125 150 143
f 126 151 152
f 126 152 128
f 126 146 145
f 126 145 151
f 127 139 138
f 128 152 153
f 128 153 129
f 129 153 130
f 130 153 154
f 130 154 131
f 131 154 155
f 131 155 156
f 131 156 157
f 131 157 132
f 132 157 158
f 132 158 159
f 132 159 133
f 133 159 160
f 134 160 161
f 134 161 135
f 135 161 186
f 135 186 162
f 135 162 136
f 136 163 164
f 136 164 165
f 136 165 137
f 136 162 163
f 137 165 138
f 141 166 142
f 142 166 167
f 143 168 169
f 143 169 144
f 143 150 170
f 143 170 171
f 143 171 168
f 144 169 145
f 145 169 151
f 147 172 170
f 147 170 148
f 148 170 149
f 149 170 150
f 151 173 174
f 151 174 152
f 151 169 173
f 152 174 175
f 152 175 153
f 153 175 154
f 154 175 155
f 155 175 176
f 155 176 177
f 155 177 178
f 155 178 156
f 156 178 157
f 157 178 179
f 157 179 180
f 157 180 181
f 157 181 182
f 157 182 158
f 158 182 183
f 158 183 184
f 158 184 185
f 158 185 159
f 159 161 160
f 159 185 161
f 161 185 187
f 161 187 186
f 162 186 188
f 162 188 163
f 163 188 189
f 163 189 164
f 166 190 167
f 167 190 192
f 167 192 191
f 168 193 194
f 168 194 169
f 168 171 195
f 168 195 193
f 169 193 173
f 169 194 193
f 170 196 195
f 170 195 171
f 170 172 197
f 170 197 198
f 170 198 193
f 170 193 196
f 173 199 174
f 173 193 200
f 173 200 199
f 174 199 175
f 175 199 176
f 176 199 177
f 177 201 178
f 177 199 202
f 177 202 203
f 177 203 201
f 178 201 179
f 179 204 205
f 179 205 206
f 179 206 207
f 179 207 208
f 179 208 180
f 179 201 204
f 180 208 181
f 181 208 209
f 181 209 210
f 181 210 211
f 181 211 182
f 182 211 210
f 182 210 183
f 183 210 212
f 183 212 213
f 183 213 184
f 184 213 185
f 185 213 212
f 185 212 214
f 185 214 215
f 185 215 216
f 185 216 187
f 186 187 188
f 187 189 188
f 191 192 218
f 191 218 217
f 193 219 200
f 193 195 196
f 193 198 219
f 197 220 221
f 197 221 198
f 198 221 219
f 199 200 202
f 200 219 222
f 200 222 202
f 201 203 204
f 202 222 223
f 202 223 203
f 203 223 224
f 203 224 225
f 203 225 204
f 204 225 226
f 204 226 227
f 204 227 228
f 204 228 205
f 205 228 229
f 205 229 206
f 206 229 230
f 206 230 231
f 206 231 232
f 206 232 207
f 207 232 208
f 208 232 233
f 208 233 209
f 209 234 210
f 209 233 234
f 210 235 212
f 210 234 236
f 210 236 235
f 212 235 214
f 217 218 237
f 218 238 237
f 219 221 239
f 219 239 222
f 220 240 239
f 220 239 221
f 222 241 223
f 222 239 242
f 222 242 241
f 223 241 243
f 223 243 244
f 223 244 224
f 224 244 245
f 224 245 246
f 224 246 247
f 224 247 225
f 225 247 248
f 225 248 249
f 225 249 226
f 226 249 227
f 227 249 250
f 227 250 229
f 227 229 228
f 229 250 230
f 230 251 231
f 231 251 233
f 231 233 232
f 233 251 252
f 233 252 234
f 234 252 253
f 234 253 236
f 237 238 255
f 237 255 254
f 239 240 256
f 239 256 242
f 241 242 257
f 241 257 258
f 241 258 259
f 241 259 243
f 242 256 260
f 242 260 257
f 243 261 244
f 243 259 262
f 243 262 272
f 243 272 279
f 243 279 276
f 243 276 268
f 243 268 261
f 244 261 263
f 244 263 264
f 244 264 245
f 245 264 246
f 246 264 265
f 246 265 248
f 246 248 247
f 248 265 249
f 254 255 267
f 254 267 266
f 261 268 263
f 262 269 270
f 262 270 271
f 262 271 272
f 263 268 273
f 263 273 264
f 266 267 275
f 266 275 274
f 268 276 273
f 269 277 278
f 269 278 271
f 269 271 270
f 271 279 272
f 274 275 280
f 275 281 284
f 275 284 280
f 277 282 283
f 277 283 278
f 281 285 286
f 281 286 284
f 282 287 283
f 283 287 288
f 285 289 286
f 286 289 290
f 287 291 292
f 287 292 293
f 287 293 288
f 289 294 295
f 289 295 290
f 290 295 294
f 290 294 296
f 290 296 291
f 291 296 292

