# https://github.com/mikedh/trimesh
v -0.09875026 -0.01610947 -0.00426111
v -0.10124899 -0.01610588 0.00375039
v -0.10124899 -0.01610468 -0.00426111
v -0.09723143 -0.01556415 -0.00426111
v -0.09684784 -0.01541586 0.01624844
v -0.09875026 -0.01610110 0.01124922
v -0.10124899 -0.01610468 0.01624844
v -0.10124899 -0.01610588 0.01374883
v -0.10315499 -0.01542304 0.01374883
v -0.10315021 -0.01541825 -0.00426111
v -0.10315499 -0.01542184 0.00874961
v -0.09684067 -0.01542304 -0.00426111
v -0.09684426 -0.01541825 0.00874961
v -0.09559788 -0.01440296 0.01624844
v -0.09706533 -0.01527714 0.01796604
v -0.09875026 -0.01609751 0.01624844
v -0.09875026 -0.01554860 0.01835586
v -0.10124899 -0.01555219 0.01836059
v -0.10293511 -0.01528073 0.01797312
v -0.10315380 -0.01542184 0.01624844
v -0.10440495 -0.01440296 0.01374883
v -0.10440495 -0.01440535 0.00874961
v -0.10440376 -0.01440535 0.00375039
v -0.10414564 -0.01461224 -0.00426111
v -0.09559071 -0.01440655 -0.00426111
v -0.09559071 -0.01440655 -0.00124882
v -0.09559549 -0.01440416 0.01124922
v -0.09458572 -0.01315328 0.01624844
v -0.09472434 -0.01293443 0.01796840
v -0.09623959 -0.01376078 0.01853778
v -0.09875026 -0.01374882 0.01954188
v -0.10124899 -0.01374882 0.01954897
v -0.10376085 -0.01375958 0.01854014
v -0.10527848 -0.01293324 0.01796840
v -0.10440376 -0.01440057 0.01624844
v -0.10541949 -0.01315328 0.01374883
v -0.10542069 -0.01315567 0.00874961
v -0.10542069 -0.01315567 0.00625000
v -0.10542069 -0.01315447 -0.00426111
v -0.10461049 -0.01414824 -0.00426111
v -0.10440136 -0.01440416 -0.00374843
v -0.10440256 -0.01440535 0.00125079
v -0.10440017 -0.01440416 -0.00426111
v -0.09458095 -0.01315686 -0.00426111
v -0.09458453 -0.01315447 0.01124922
v -0.09458453 -0.01315328 0.01374883
v -0.09390936 -0.01124945 0.01624844
v -0.09445547 -0.01124945 0.01835350
v -0.09625035 -0.01124945 0.01953952
v -0.09875026 -0.01124945 0.01987500
v -0.10124899 -0.01124945 0.01987500
v -0.10374890 -0.01124945 0.01954188
v -0.10554975 -0.01124945 0.01835586
v -0.10609944 -0.01124945 0.01624844
v -0.10541830 -0.01315088 0.01624844
v -0.10610303 -0.01124945 0.01124922
v -0.10610781 -0.01124945 -0.00426111
v -0.09444233 -0.01276701 -0.00426111
v -0.09390578 -0.00875008 0.01624844
v -0.09390458 -0.01124945 -0.00426111
v -0.09390339 -0.01073881 -0.00426111
v -0.09445308 -0.00875008 0.01835350
v -0.09625035 -0.00875008 0.01954188
v -0.09875026 -0.00875008 0.01987500
v -0.10124899 -0.00875008 0.01987500
v -0.10374890 -0.00875008 0.01954424
v -0.10554855 -0.00875008 0.01835823
v -0.10609944 -0.00875008 0.01624844
v -0.10610781 -0.00875008 -0.00426111
v -0.09458095 -0.00684267 0.01624844
v -0.09472076 -0.00706151 0.01797076
v -0.09390458 -0.00875008 0.01124922
v -0.09390099 -0.00875008 -0.00426111
v -0.09875026 -0.00625071 0.01954188
v -0.09623601 -0.00623756 0.01854014
v -0.10124899 -0.00625071 0.01953952
v -0.10376085 -0.00623636 0.01853778
v -0.10527848 -0.00706032 0.01797312
v -0.10541710 -0.00684028 0.01624844
v -0.10541830 -0.00684028 0.01374883
v -0.10556290 -0.00723372 -0.00426111
v -0.09558952 -0.00559179 0.01624844
v -0.09457975 -0.00684147 0.00874961
v -0.09706055 -0.00472119 0.01797076
v -0.09457856 -0.00684147 -0.00426111
v -0.09875026 -0.00445451 0.01835586
v -0.10124899 -0.00445571 0.01835350
v -0.10293392 -0.00472358 0.01796840
v -0.10440256 -0.00559059 0.01624844
v -0.10440376 -0.00559059 0.01374883
v -0.10440495 -0.00559059 0.00874961
v -0.10541949 -0.00684147 0.00375039
v -0.10542189 -0.00684506 -0.00426111
v -0.09558952 -0.00559179 0.01374883
v -0.09683947 -0.00458128 0.01624844
v -0.09875026 -0.00390800 0.01624844
v -0.09538398 -0.00584770 -0.00426111
v -0.10124899 -0.00391039 0.01624844
v -0.10315260 -0.00458486 0.01624844
v -0.10315380 -0.00458367 0.01374883
v -0.10315380 -0.00458247 0.01124922
v -0.10315499 -0.00457649 -0.00426111
v -0.10440495 -0.00559059 0.00625000
v -0.10440495 -0.00559418 -0.00374843
v -0.10440495 -0.00559537 -0.00426111
v -0.10440495 -0.00559179 0.00125079
v -0.09683947 -0.00458128 0.01374883
v -0.09559190 -0.00559179 -0.00124882
v -0.09584883 -0.00538371 -0.00426111
v -0.09875026 -0.00389724 -0.00426111
v -0.09875026 -0.00390322 0.00874961
v -0.09875026 -0.00390561 0.01374883
v -0.09559310 -0.00559179 -0.00426111
v -0.10124899 -0.00390800 0.01374883
v -0.10124899 -0.00389246 -0.00426111
v -0.10276543 -0.00443658 -0.00426111
v -0.09684067 -0.00458128 0.00625000
v -0.09684306 -0.00458128 -0.00426111
f 1 2 3
f 1 3 10
f 1 10 24
f 1 24 43
f 1 43 40
f 1 40 39
f 1 39 57
f 1 57 69
f 1 69 81
f 1 81 93
f 1 93 105
f 1 105 102
f 1 102 116
f 1 116 115
f 1 115 110
f 1 110 118
f 1 118 109
f 1 109 113
f 1 113 97
f 1 97 85
f 1 85 73
f 1 73 61
f 1 61 60
f 1 60 58
f 1 58 44
f 1 44 25
f 1 25 12
f 1 12 4
f 1 4 5
f 1 5 6
f 1 6 7
f 1 7 8
f 1 8 2
f 2 8 9
f 2 9 3
f 3 9 11
f 3 11 10
f 4 12 13
f 4 13 5
f 5 14 15
f 5 15 16
f 5 16 6
f 5 13 14
f 6 16 7
f 7 16 17
f 7 17 18
f 7 18 19
f 7 19 20
f 7 20 9
f 7 9 8
f 9 20 21
f 9 21 22
f 9 22 23
f 9 23 11
f 10 11 24
f 11 23 24
f 12 25 26
f 12 26 27
f 12 27 13
f 13 27 14
f 14 28 29
f 14 29 15
f 14 27 28
f 15 29 30
f 15 30 31
f 15 31 17
f 15 17 16
f 17 31 18
f 18 31 32
f 18 32 19
f 19 32 33
f 19 33 34
f 19 34 35
f 19 35 20
f 20 35 21
f 21 35 55
f 21 55 36
f 21 36 37
f 21 37 22
f 22 37 38
f 22 38 39
f 22 39 23
f 23 39 40
f 23 40 41
f 23 41 42
f 23 42 24
f 24 42 41
f 24 41 43
f 25 44 26
f 26 44 45
f 26 45 46
f 26 46 28
f 26 28 27
f 28 47 29
f 28 46 47
f 29 48 49
f 29 49 30
f 29 47 48
f 30 49 31
f 31 49 50
f 31 50 32
f 32 50 51
f 32 51 52
f 32 52 33
f 33 52 34
f 34 52 53
f 34 53 54
f 34 54 55
f 34 55 35
f 36 56 37
f 36 55 54
f 36 54 56
f 37 56 57
f 37 57 38
f 38 57 39
f 40 43 41
f 44 58 46
f 44 46 45
f 46 58 47
f 47 59 48
f 47 58 60
f 47 60 61
f 47 61 59
f 48 59 62
f 48 62 63
f 48 63 49
f 49 63 50
f 50 63 64
f 50 64 65
f 50 65 51
f 51 65 66
f 51 66 52
f 52 66 53
f 53 66 67
f 53 67 68
f 53 68 54
f 54 68 56
f 56 68 69
f 56 69 57
f 59 70 71
f 59 71 62
f 59 61 72
f 59 72 70
f 61 73 72
f 62 71 63
f 63 74 64
f 63 71 75
f 63 75 74
f 64 74 65
f 65 74 76
f 65 76 66
f 66 76 77
f 66 77 78
f 66 78 67
f 67 78 68
f 68 78 79
f 68 79 80
f 68 80 69
f 69 80 81
f 70 82 71
f 70 72 73
f 70 73 83
f 70 83 82
f 71 84 75
f 71 82 84
f 73 85 83
f 74 86 76
f 74 75 84
f 74 84 86
f 76 86 87
f 76 87 88
f 76 88 77
f 77 88 78
f 78 88 89
f 78 89 79
f 79 89 90
f 79 90 80
f 80 90 91
f 80 91 92
f 80 92 93
f 80 93 81
f 82 83 85
f 82 85 94
f 82 94 107
f 82 107 95
f 82 95 84
f 84 95 96
f 84 96 86
f 85 97 94
f 86 96 87
f 87 96 98
f 87 98 88
f 88 98 99
f 88 99 89
f 89 99 100
f 89 100 101
f 89 101 102
f 89 102 90
f 90 102 91
f 91 103 92
f 91 102 103
f 92 103 93
f 93 104 105
f 93 103 106
f 93 106 104
f 94 97 108
f 94 108 109
f 94 109 107
f 95 107 110
f 95 110 111
f 95 111 112
f 95 112 96
f 96 112 114
f 96 114 98
f 97 113 108
f 98 114 99
f 99 114 115
f 99 115 100
f 100 115 101
f 101 115 116
f 101 116 102
f 102 105 104
f 102 104 106
f 102 106 103
f 107 109 117
f 107 117 110
f 108 113 109
f 109 118 117
f 110 115 111
f 110 117 118
f 111 115 112
f 112 115 114

