# https://github.com/mikedh/trimesh
v 0.03375097 -0.00610938 -0.00426111
v 0.03184022 -0.00542407 -0.00426111
v 0.03624882 -0.00610340 -0.00426111
v 0.03624882 -0.00610340 0.00625000
v 0.03375097 -0.00610818 0.00375039
v 0.03184022 -0.00542168 0.01624844
v 0.03084538 -0.00461558 -0.00426111
v 0.03058950 -0.00440867 0.01624844
v 0.03815599 -0.00541809 -0.00426111
v 0.03815360 -0.00541809 0.00625000
v 0.03815001 -0.00541690 0.01624844
v 0.03624882 -0.00609981 0.01624844
v 0.03375097 -0.00610579 0.01374883
v 0.03375097 -0.00610460 0.01624844
v 0.03206023 -0.00528175 0.01797076
v 0.03059069 -0.00440628 -0.00426111
v 0.02972021 -0.00293998 0.01797312
v 0.02958031 -0.00315765 0.01624844
v 0.02957912 -0.00315646 -0.00426111
v 0.03038264 -0.00415153 -0.00426111
v 0.03940551 -0.00440628 -0.00426111
v 0.03940551 -0.00440747 -0.00124882
v 0.03940551 -0.00440747 0.00125079
v 0.03940432 -0.00440747 0.00625000
v 0.03940193 -0.00440747 0.01124922
v 0.03940073 -0.00440628 0.01624844
v 0.03793359 -0.00527816 0.01796604
v 0.03624882 -0.00554965 0.01834641
v 0.03375097 -0.00555204 0.01834878
v 0.03375097 -0.00374967 0.01953715
v 0.03123638 -0.00376283 0.01854014
v 0.03125073 -0.00124884 0.01954660
v 0.02944639 -0.00124884 0.01835823
v 0.02889397 -0.00124884 0.01624844
v 0.02905300 -0.00163993 -0.00426111
v 0.04041948 -0.00315646 -0.00426111
v 0.04042187 -0.00315765 0.00625000
v 0.04042187 -0.00315765 0.00874961
v 0.04042187 -0.00315646 0.01624844
v 0.04028078 -0.00293759 0.01797076
v 0.03875983 -0.00376163 0.01853778
v 0.03624882 -0.00374967 0.01953243
v 0.03624882 -0.00124884 0.01987500
v 0.03375097 -0.00124884 0.01987500
v 0.03375097 0.00124961 0.01987500
v 0.03125073 0.00124961 0.01954424
v 0.02944759 0.00124961 0.01835586
v 0.02889517 0.00124961 0.01624844
v 0.02890473 0.00124961 0.00625000
v 0.02891669 0.00073772 -0.00426111
v 0.02891789 -0.00124884 -0.00426111
v 0.04056058 -0.00276656 -0.00426111
v 0.04110821 -0.00124884 0.01124922
v 0.04110821 -0.00124884 0.01624844
v 0.04055460 -0.00124884 0.01835823
v 0.03874907 -0.00124884 0.01954424
v 0.03874907 0.00124961 0.01954660
v 0.03624882 0.00124961 0.01987500
v 0.03375097 0.00374925 0.01954660
v 0.03123638 0.00376240 0.01854251
v 0.02972141 0.00293836 0.01797076
v 0.02958151 0.00315842 0.01624844
v 0.02958031 0.00315842 0.01374883
v 0.02957912 0.00315962 0.00874961
v 0.02957912 0.00315842 0.00375039
v 0.02957912 0.00315723 0.00125079
v 0.02957912 0.00315364 -0.00426111
v 0.02944281 0.00276494 -0.00426111
v 0.02891669 0.00124961 -0.00426111
v 0.04110343 -0.00124884 -0.00426111
v 0.04110702 -0.00124884 0.00625000
v 0.04110821 0.00124961 0.01624844
v 0.04055460 0.00124961 0.01835823
v 0.03624882 0.00374925 0.01954424
v 0.04028078 0.00293955 0.01797312
v 0.03876342 0.00376360 0.01854014
v 0.03375097 0.00555281 0.01835823
v 0.03206023 0.00528132 0.01797549
v 0.03058950 0.00440824 0.01624844
v 0.03058950 0.00440944 0.01124922
v 0.03058950 0.00440944 0.00874961
v 0.03059069 0.00440824 0.00375039
v 0.03059309 0.00440346 -0.00374843
v 0.03059428 0.00440346 -0.00426111
v 0.04109506 0.00124961 -0.00426111
v 0.04042068 0.00315842 0.01624844
v 0.03793957 0.00528132 0.01797076
v 0.03624882 0.00555281 0.01835586
v 0.03940910 0.00440824 0.01624844
v 0.03624882 0.00610537 0.01624844
v 0.03375097 0.00610537 0.01624844
v 0.03184022 0.00542245 0.01624844
v 0.03183902 0.00542245 0.01374883
v 0.03183902 0.00542245 0.01124922
v 0.03184380 0.00542365 -0.00426111
v 0.03059069 0.00440944 0.00625000
v 0.03059309 0.00440585 -0.00124882
v 0.04041111 0.00314646 -0.00426111
v 0.03960998 0.00414153 -0.00426111
v 0.03940312 0.00439748 -0.00426111
v 0.03940432 0.00439867 -0.00124882
v 0.03815958 0.00542245 0.01624844
v 0.03914724 0.00460678 -0.00426111
v 0.03815240 0.00541527 -0.00426111
v 0.03815599 0.00541767 0.00375039
v 0.03624882 0.00610058 -0.00426111
v 0.03375097 0.00610895 -0.00426111
v 0.03223361 0.00556477 -0.00426111
f 1 2 7
f 1 7 16
f 1 16 20
f 1 20 19
f 1 19 35
f 1 35 51
f 1 51 50
f 1 50 69
f 1 69 68
f 1 68 67
f 1 67 84
f 1 84 95
f 1 95 108
f 1 108 107
f 1 107 106
f 1 106 104
f 1 104 103
f 1 103 100
f 1 100 99
f 1 99 98
f 1 98 85
f 1 85 70
f 1 70 52
f 1 52 36
f 1 36 21
f 1 21 9
f 1 9 3
f 1 3 4
f 1 4 5
f 1 5 6
f 1 6 2
f 2 6 8
f 2 8 7
f 3 9 4
f 4 9 10
f 4 10 11
f 4 11 12
f 4 12 13
f 4 13 5
f 5 13 6
f 6 13 14
f 6 14 15
f 6 15 8
f 7 8 16
f 8 15 17
f 8 17 18
f 8 18 19
f 8 19 20
f 8 20 16
f 9 21 22
f 9 22 23
f 9 23 10
f 10 23 24
f 10 24 25
f 10 25 11
f 11 25 26
f 11 26 27
f 11 27 12
f 12 27 28
f 12 28 14
f 12 14 13
f 14 28 29
f 14 29 15
f 15 29 30
f 15 30 31
f 15 31 17
f 17 31 32
f 17 32 33
f 17 33 34
f 17 34 18
f 18 34 19
f 19 34 35
f 21 36 22
f 22 36 37
f 22 37 38
f 22 38 23
f 23 38 39
f 23 39 24
f 24 39 26
f 24 26 25
f 26 39 40
f 26 40 27
f 27 40 41
f 27 41 42
f 27 42 28
f 28 42 30
f 28 30 29
f 30 42 43
f 30 43 44
f 30 44 32
f 30 32 31
f 32 44 45
f 32 45 46
f 32 46 33
f 33 47 48
f 33 48 34
f 33 46 47
f 34 48 49
f 34 49 50
f 34 50 51
f 34 51 35
f 36 52 37
f 37 53 54
f 37 54 38
f 37 52 53
f 38 54 39
f 39 54 40
f 40 55 56
f 40 56 41
f 40 54 55
f 41 56 42
f 42 56 43
f 43 57 58
f 43 58 45
f 43 45 44
f 43 56 57
f 45 58 59
f 45 59 46
f 46 60 61
f 46 61 47
f 46 59 60
f 47 61 48
f 48 61 62
f 48 62 63
f 48 63 64
f 48 64 65
f 48 65 66
f 48 66 67
f 48 67 68
f 48 68 49
f 49 68 69
f 49 69 50
f 52 70 71
f 52 71 53
f 53 71 72
f 53 72 54
f 54 72 73
f 54 73 55
f 55 73 57
f 55 57 56
f 57 74 58
f 57 73 75
f 57 75 76
f 57 76 74
f 58 74 59
f 59 77 78
f 59 78 60
f 59 74 88
f 59 88 77
f 60 78 61
f 61 78 79
f 61 79 62
f 62 79 63
f 63 79 64
f 64 79 80
f 64 80 81
f 64 81 65
f 65 81 66
f 66 81 82
f 66 82 67
f 67 82 83
f 67 83 84
f 70 85 72
f 70 72 71
f 72 86 75
f 72 75 73
f 72 85 86
f 74 76 87
f 74 87 88
f 75 87 76
f 75 86 89
f 75 89 87
f 77 88 90
f 77 90 91
f 77 91 78
f 78 91 92
f 78 92 79
f 79 92 93
f 79 93 80
f 80 93 94
f 80 94 81
f 81 94 95
f 81 95 96
f 81 96 82
f 82 95 97
f 82 97 83
f 82 96 95
f 83 95 84
f 83 97 95
f 85 98 86
f 86 98 99
f 86 99 100
f 86 100 101
f 86 101 89
f 87 89 102
f 87 102 90
f 87 90 88
f 89 101 100
f 89 100 103
f 89 103 104
f 89 104 105
f 89 105 102
f 90 102 106
f 90 106 107
f 90 107 91
f 91 107 92
f 92 107 93
f 93 107 108
f 93 108 94
f 94 108 95
f 102 105 104
f 102 104 106

