# https://github.com/mikedh/trimesh
v 0.10112038 -0.01375084 -0.00622922
v 0.10112038 -0.01624922 -0.00622922
v 0.10042793 -0.01184053 -0.00622922
v 0.10042074 -0.01184053 0.01624622
v 0.10110839 -0.01375084 0.01624622
v 0.10111438 -0.01626718 -0.00622922
v 0.10110839 -0.01624922 0.01624622
v 0.09940721 -0.01059014 -0.00622922
v 0.09940602 -0.01059014 -0.00374785
v 0.09939404 -0.01059014 0.01624622
v 0.10028057 -0.01206090 0.01797117
v 0.10055371 -0.01375084 0.01835960
v 0.10042673 -0.01815953 -0.00622922
v 0.10042074 -0.01815354 0.01624622
v 0.10055371 -0.01624922 0.01835705
v 0.10028057 -0.01793676 0.01796861
v 0.09816847 -0.00958289 -0.00622922
v 0.09814331 -0.00959247 0.01624622
v 0.09792887 -0.00972781 0.01796095
v 0.09875669 -0.01123689 0.01853338
v 0.09874830 -0.01375084 0.01954790
v 0.09940961 -0.01940034 -0.00622922
v 0.09940482 -0.01940513 0.01624622
v 0.09940482 -0.01940632 0.00874844
v 0.09940362 -0.01940872 0.00125322
v 0.09940242 -0.01940992 -0.00425895
v 0.09874830 -0.01624922 0.01954534
v 0.09793605 -0.02028183 0.01796861
v 0.09876148 -0.01876077 0.01853849
v 0.09814331 -0.00956852 -0.00622922
v 0.09624805 -0.00890859 0.01624622
v 0.09624925 -0.00888344 -0.00622922
v 0.09624805 -0.00945354 0.01834938
v 0.09624805 -0.01125127 0.01953512
v 0.09624805 -0.01375084 0.01987245
v 0.09624805 -0.01624922 0.01987245
v 0.09939164 -0.01941950 -0.00622922
v 0.09815409 -0.02042077 0.01624622
v 0.09940242 -0.01940992 -0.00374785
v 0.09624805 -0.01874879 0.01953768
v 0.09624805 -0.02055131 0.01835194
v 0.09624805 -0.02110464 0.01624622
v 0.09375019 -0.00889661 0.01624622
v 0.09375139 -0.00888104 -0.00622922
v 0.09375019 -0.00944875 0.01835960
v 0.09375019 -0.01125127 0.01954534
v 0.09375019 -0.01375084 0.01987245
v 0.09375019 -0.01624922 0.01987245
v 0.09815289 -0.02042196 -0.00622922
v 0.09624805 -0.02110584 0.01374696
v 0.09626362 -0.02110584 -0.00622922
v 0.09375019 -0.01874879 0.01953512
v 0.09375019 -0.02055012 0.01834683
v 0.09375019 -0.02109985 0.01624622
v 0.09375139 -0.02111662 -0.00622922
v 0.09184175 -0.00958049 0.01624622
v 0.09205979 -0.00972062 0.01797372
v 0.09184774 -0.00957091 -0.00622922
v 0.09125113 -0.01375084 0.01954534
v 0.09123676 -0.01123689 0.01854360
v 0.09125113 -0.01624922 0.01954279
v 0.09624925 -0.02111063 -0.00622922
v 0.09123795 -0.01876077 0.01853593
v 0.09206218 -0.02027824 0.01796606
v 0.09184415 -0.02041717 0.01624622
v 0.09184055 -0.02042675 -0.00622922
v 0.09059102 -0.01059374 0.01624622
v 0.08971887 -0.01206090 0.01797117
v 0.09060660 -0.01059254 -0.00622922
v 0.08944692 -0.01375084 0.01835705
v 0.08944812 -0.01624922 0.01835449
v 0.08972126 -0.01793796 0.01796606
v 0.09059342 -0.01940273 0.01624622
v 0.09059102 -0.01940752 -0.00622922
v 0.08957990 -0.01184293 0.01624622
v 0.09058982 -0.01060931 -0.00622922
v 0.08957630 -0.01185011 -0.00622922
v 0.08889224 -0.01375084 0.01624622
v 0.08889703 -0.01624922 0.01624622
v 0.08958469 -0.01815234 0.01624622
v 0.08957390 -0.01815833 -0.00622922
v 0.08888745 -0.01373647 -0.00622922
v 0.08888385 -0.01375084 -0.00622922
v 0.08888146 -0.01623125 -0.00622922
v 0.08888146 -0.01624922 -0.00622922
f 1 2 6
f 1 6 13
f 1 13 22
f 1 22 37
f 1 37 49
f 1 49 51
f 1 51 62
f 1 62 55
f 1 55 66
f 1 66 74
f 1 74 81
f 1 81 85
f 1 85 84
f 1 84 83
f 1 83 82
f 1 82 77
f 1 77 76
f 1 76 69
f 1 69 58
f 1 58 44
f 1 44 32
f 1 32 30
f 1 30 17
f 1 17 8
f 1 8 3
f 1 3 4
f 1 4 5
f 1 5 7
f 1 7 2
f 2 7 6
f 3 8 4
f 4 9 10
f 4 10 11
f 4 11 5
f 4 8 9
f 5 11 12
f 5 12 7
f 6 7 14
f 6 14 13
f 7 12 15
f 7 15 16
f 7 16 14
f 8 17 9
f 9 17 10
f 10 17 18
f 10 18 19
f 10 19 11
f 11 19 20
f 11 20 21
f 11 21 12
f 12 21 27
f 12 27 15
f 13 14 23
f 13 23 24
f 13 24 25
f 13 25 26
f 13 26 22
f 14 16 23
f 15 27 16
f 16 28 23
f 16 27 29
f 16 29 28
f 17 30 18
f 18 31 19
f 18 30 32
f 18 32 31
f 19 33 34
f 19 34 20
f 19 31 33
f 20 34 21
f 21 35 36
f 21 36 27
f 21 34 35
f 22 26 37
f 23 28 38
f 23 38 25
f 23 25 24
f 25 38 37
f 25 37 39
f 25 39 26
f 26 39 37
f 27 36 40
f 27 40 29
f 28 41 42
f 28 42 38
f 28 29 40
f 28 40 41
f 31 43 33
f 31 32 43
f 32 44 43
f 33 45 34
f 33 43 45
f 34 45 46
f 34 46 35
f 35 46 47
f 35 47 48
f 35 48 36
f 36 48 40
f 37 38 49
f 38 42 50
f 38 50 51
f 38 51 49
f 40 48 52
f 40 52 41
f 41 52 53
f 41 53 42
f 42 54 55
f 42 55 50
f 42 53 54
f 43 56 57
f 43 57 45
f 43 44 56
f 44 58 56
f 45 57 46
f 46 59 47
f 46 57 60
f 46 60 59
f 47 59 48
f 48 59 61
f 48 61 52
f 50 55 62
f 50 62 51
f 52 63 64
f 52 64 53
f 52 61 63
f 53 64 54
f 54 64 65
f 54 65 55
f 55 65 66
f 56 67 57
f 56 58 67
f 57 68 60
f 57 67 68
f 58 69 67
f 59 60 68
f 59 68 70
f 59 70 61
f 61 70 71
f 61 71 72
f 61 72 63
f 63 72 64
f 64 72 73
f 64 73 65
f 65 73 66
f 66 73 74
f 67 75 68
f 67 69 76
f 67 76 77
f 67 77 75
f 68 75 78
f 68 78 70
f 70 78 71
f 71 78 79
f 71 79 72
f 72 79 80
f 72 80 73
f 73 80 81
f 73 81 74
f 75 77 82
f 75 82 78
f 78 82 83
f 78 83 84
f 78 84 85
f 78 85 79
f 79 85 80
f 80 85 81

