# https://github.com/mikedh/trimesh
v 0.01094147 -0.02660558 -0.01018229
v 0.02124987 -0.02661079 -0.01018229
v 0.01094147 -0.02655870 -0.01017419
v 0.01094147 0.02660113 -0.01018229
v 0.02190454 -0.02661079 -0.01018229
v 0.01094147 -0.02629306 -0.01013210
v 0.01094147 0.02624694 -0.01012500
v 0.02190454 0.02634070 -0.01014001
v 0.01125056 0.02660113 -0.01018229
v 0.02190454 -0.02624618 -0.01012500
v 0.02190454 0.02659592 -0.01018229
v 0.01094147 -0.02624618 -0.01012500
v 0.02190454 0.02624694 -0.01012500
v 0.01094147 0.01325648 -0.01011279
v 0.01094147 -0.01124517 -0.01011276
v 0.01094147 -0.00923462 -0.01011276
f 1 2 3
f 1 3 6
f 1 6 12
f 1 12 15
f 1 15 16
f 1 16 14
f 1 14 7
f 1 7 4
f 1 4 9
f 1 9 11
f 1 11 5
f 1 5 2
f 2 5 6
f 2 6 3
f 4 7 8
f 4 8 9
f 5 10 6
f 5 11 8
f 5 8 13
f 5 13 10
f 6 10 12
f 7 13 8
f 7 14 13
f 8 11 9
f 10 15 12
f 10 13 16
f 10 16 15
f 13 14 16

