# https://github.com/mikedh/trimesh
v 0.02763303 -0.00124861 -0.00891604
v 0.02780939 -0.00181266 -0.00891604
v 0.02891817 -0.00124861 -0.00426111
v 0.02891672 0.00073788 -0.00426111
v 0.02763303 0.00124973 -0.00891604
v 0.02958025 -0.00315680 -0.00426111
v 0.02851340 -0.00382525 -0.00891604
v 0.02891672 0.00124973 -0.00426111
v 0.02944292 0.00276498 -0.00426111
v 0.02957881 0.00315357 -0.00426111
v 0.02854520 0.00377707 -0.00891604
v 0.02963952 -0.00536080 -0.00891604
v 0.03038256 -0.00415150 -0.00426111
v 0.02859146 0.00387132 -0.00891604
v 0.03059362 0.00440347 -0.00426111
v 0.03117330 -0.00648889 -0.00891604
v 0.03183972 -0.00542315 -0.00426111
v 0.03084660 -0.00461550 -0.00426111
v 0.03059073 -0.00440670 -0.00426111
v 0.02870711 0.00401342 -0.00891604
v 0.03184406 0.00542427 -0.00426111
v 0.03112704 0.00641026 -0.00891604
v 0.03098393 0.00629281 -0.00891604
v 0.03316967 -0.00721244 -0.00891604
v 0.03375080 -0.00610899 -0.00426111
v 0.03223293 0.00556492 -0.00426111
v 0.03375080 0.00740641 -0.00891604
v 0.03122245 0.00645666 -0.00891604
v 0.03375080 -0.00740674 -0.00891604
v 0.03573850 -0.00610464 -0.00426111
v 0.03375080 0.00610866 -0.00426111
v 0.03624880 0.00739916 -0.00891604
v 0.03624880 -0.00739804 -0.00891604
v 0.03624880 -0.00610319 -0.00426111
v 0.03624880 0.00609996 -0.00426111
v 0.03682559 0.00720631 -0.00891604
v 0.03877281 -0.00645844 -0.00891604
v 0.03815554 -0.00541735 -0.00426111
v 0.03776668 -0.00555800 -0.00426111
v 0.03815265 0.00541557 -0.00426111
v 0.03882196 0.00648276 -0.00891604
v 0.03887111 -0.00641059 -0.00891604
v 0.03940598 -0.00440670 -0.00426111
v 0.03914722 0.00460647 -0.00426111
v 0.04035863 0.00535757 -0.00891604
v 0.03902001 -0.00629024 -0.00891604
v 0.04128960 -0.00402535 -0.00891604
v 0.04041935 -0.00315680 -0.00426111
v 0.03940309 0.00439622 -0.00426111
v 0.04148186 0.00382057 -0.00891604
v 0.03960981 0.00414102 -0.00426111
v 0.04041068 0.00314632 -0.00426111
v 0.04141103 -0.00387310 -0.00891604
v 0.04239982 -0.00124861 -0.00891604
v 0.04055957 -0.00276676 -0.00426111
v 0.04146018 -0.00377450 -0.00891604
v 0.04220322 0.00182538 -0.00891604
v 0.04109444 0.00124973 -0.00426111
v 0.04239837 -0.00033366 -0.00891604
v 0.04110312 -0.00124861 -0.00426111
v 0.04239548 0.00124973 -0.00891604
v 0.04110167 -0.00073821 -0.00426111
f 1 2 3
f 1 3 4
f 1 4 8
f 1 8 5
f 1 5 11
f 1 11 14
f 1 14 20
f 1 20 23
f 1 23 22
f 1 22 28
f 1 28 27
f 1 27 32
f 1 32 36
f 1 36 41
f 1 41 45
f 1 45 50
f 1 50 57
f 1 57 61
f 1 61 59
f 1 59 54
f 1 54 56
f 1 56 53
f 1 53 47
f 1 47 46
f 1 46 42
f 1 42 37
f 1 37 33
f 1 33 29
f 1 29 24
f 1 24 16
f 1 16 12
f 1 12 7
f 1 7 2
f 2 6 3
f 2 7 6
f 3 6 13
f 3 13 19
f 3 19 18
f 3 18 17
f 3 17 25
f 3 25 30
f 3 30 34
f 3 34 39
f 3 39 38
f 3 38 43
f 3 43 48
f 3 48 55
f 3 55 60
f 3 60 62
f 3 62 58
f 3 58 52
f 3 52 51
f 3 51 49
f 3 49 44
f 3 44 40
f 3 40 35
f 3 35 31
f 3 31 26
f 3 26 21
f 3 21 15
f 3 15 10
f 3 10 9
f 3 9 8
f 3 8 4
f 5 8 9
f 5 9 10
f 5 10 11
f 6 7 12
f 6 12 13
f 10 14 11
f 10 15 14
f 12 16 17
f 12 17 18
f 12 18 19
f 12 19 13
f 14 15 20
f 15 21 22
f 15 22 23
f 15 23 20
f 16 24 17
f 17 24 25
f 21 26 27
f 21 27 28
f 21 28 22
f 24 29 25
f 25 29 30
f 26 31 27
f 27 31 32
f 29 33 34
f 29 34 30
f 31 35 32
f 32 35 36
f 33 37 38
f 33 38 39
f 33 39 34
f 35 40 36
f 36 40 41
f 37 42 38
f 38 42 43
f 40 44 45
f 40 45 41
f 42 46 43
f 43 47 48
f 43 46 47
f 44 49 45
f 45 49 51
f 45 51 52
f 45 52 50
f 47 53 48
f 48 54 55
f 48 53 56
f 48 56 54
f 50 52 57
f 52 58 57
f 54 59 60
f 54 60 55
f 57 58 61
f 58 62 61
f 59 61 60
f 60 61 62

