# https://github.com/mikedh/trimesh
v 0.09875108 -0.00611563 -0.00622922
v 0.09686420 -0.00543180 -0.00622922
v 0.10124819 -0.00610725 -0.00622922
v 0.10124938 -0.00610365 0.01624622
v 0.09875108 -0.00609407 0.01624622
v 0.09685822 -0.00541264 0.01624622
v 0.09684146 -0.00541982 -0.00622922
v 0.10126255 -0.00610245 -0.00622922
v 0.10315900 -0.00542102 0.01624622
v 0.10294005 -0.00528090 0.01796606
v 0.10124938 -0.00555156 0.01835449
v 0.09875108 -0.00554797 0.01834938
v 0.09706880 -0.00527611 0.01796350
v 0.09560907 -0.00440067 0.01624622
v 0.09560069 -0.00440187 -0.00622922
v 0.10314585 -0.00541982 -0.00622922
v 0.10315780 -0.00542102 0.01374696
v 0.10440815 -0.00440905 0.01624622
v 0.10528041 -0.00293840 0.01797117
v 0.10376324 -0.00376235 0.01853849
v 0.10124938 -0.00374917 0.01954023
v 0.09875108 -0.00374917 0.01953768
v 0.09624202 -0.00376115 0.01853593
v 0.09472007 -0.00293481 0.01797117
v 0.09458007 -0.00315038 0.01624622
v 0.09457409 -0.00315157 -0.00622922
v 0.10438542 -0.00441264 -0.00622922
v 0.10440337 -0.00440666 0.00375248
v 0.10440696 -0.00440785 0.01124770
v 0.10542040 -0.00315876 0.01624622
v 0.10440815 -0.00440785 0.01374696
v 0.10542758 -0.00315277 -0.00622922
v 0.10555201 -0.00124979 0.01835960
v 0.10374888 -0.00124979 0.01954790
v 0.10610360 -0.00124979 0.01624622
v 0.10124938 -0.00124979 0.01987245
v 0.09875108 -0.00124979 0.01987245
v 0.09625158 -0.00124979 0.01954790
v 0.09444726 -0.00124979 0.01835960
v 0.09389208 -0.00124979 0.01624622
v 0.09388610 -0.00124979 -0.00622922
v 0.10440337 -0.00439468 -0.00622922
v 0.10439739 -0.00440426 -0.00425895
v 0.10610121 -0.00126655 -0.00622922
v 0.10555201 0.00124840 0.01835705
v 0.10124938 0.00124840 0.01987245
v 0.10374888 0.00124840 0.01954279
v 0.10610240 0.00124840 0.01624622
v 0.10610719 -0.00124979 -0.00622922
v 0.10610958 0.00124840 -0.00622922
v 0.09875108 0.00124840 0.01987245
v 0.09625158 0.00124840 0.01954534
v 0.09444726 0.00124840 0.01835705
v 0.09389447 0.00124840 0.01624622
v 0.09388849 0.00124840 -0.00622922
v 0.10527921 0.00293582 0.01796606
v 0.10124938 0.00374899 0.01953768
v 0.10376204 0.00376096 0.01853338
v 0.10542040 0.00315498 0.01624622
v 0.10542758 0.00315737 -0.00622922
v 0.09875108 0.00374899 0.01953512
v 0.09623843 0.00376216 0.01853082
v 0.09472126 0.00293701 0.01796606
v 0.09458247 0.00315617 0.01624622
v 0.09457529 0.00315498 -0.00622922
v 0.10440456 0.00440407 0.01624622
v 0.10293765 0.00528071 0.01796350
v 0.10124938 0.00555137 0.01834938
v 0.10439140 0.00440766 -0.00622922
v 0.10460558 0.00415138 -0.00425895
v 0.10440217 0.00440527 0.01124770
v 0.09875108 0.00554658 0.01834683
v 0.09706282 0.00527592 0.01796095
v 0.09559351 0.00440527 0.01624622
v 0.09558274 0.00439689 -0.00622922
v 0.10315422 0.00542083 0.01624622
v 0.10124938 0.00610466 0.01624622
v 0.10315422 0.00540526 -0.00622922
v 0.10439260 0.00440766 -0.00425895
v 0.10439380 0.00440647 -0.00425895
v 0.09875108 0.00609747 0.01624622
v 0.09684385 0.00541484 0.01624622
v 0.09684146 0.00542921 -0.00622922
v 0.09558992 0.00440407 -0.00425895
v 0.09560069 0.00441245 -0.00622922
v 0.10312790 0.00541963 -0.00622922
v 0.10124819 0.00610346 -0.00622922
v 0.09875108 0.00611903 -0.00622922
f 1 2 7
f 1 7 15
f 1 15 26
f 1 26 41
f 1 41 55
f 1 55 65
f 1 65 75
f 1 75 85
f 1 85 83
f 1 83 88
f 1 88 87
f 1 87 86
f 1 86 78
f 1 78 69
f 1 69 60
f 1 60 50
f 1 50 49
f 1 49 44
f 1 44 32
f 1 32 42
f 1 42 27
f 1 27 16
f 1 16 8
f 1 8 3
f 1 3 4
f 1 4 5
f 1 5 6
f 1 6 2
f 2 6 7
f 3 8 4
f 4 9 10
f 4 10 11
f 4 11 12
f 4 12 5
f 4 8 9
f 5 12 13
f 5 13 6
f 6 13 14
f 6 14 7
f 7 14 15
f 8 16 17
f 8 17 9
f 9 17 18
f 9 18 10
f 10 19 20
f 10 20 21
f 10 21 11
f 10 18 19
f 11 21 22
f 11 22 12
f 12 22 13
f 13 22 23
f 13 23 24
f 13 24 14
f 14 24 25
f 14 25 15
f 15 25 26
f 16 27 28
f 16 28 29
f 16 29 17
f 17 29 18
f 18 30 19
f 18 29 31
f 18 31 32
f 18 32 30
f 19 33 34
f 19 34 20
f 19 30 35
f 19 35 33
f 20 34 21
f 21 34 36
f 21 36 37
f 21 37 22
f 22 37 38
f 22 38 23
f 23 38 24
f 24 38 39
f 24 39 40
f 24 40 25
f 25 40 26
f 26 40 41
f 27 42 43
f 27 43 28
f 28 43 42
f 28 42 32
f 28 32 29
f 29 32 31
f 30 32 35
f 32 44 35
f 33 45 34
f 33 35 45
f 34 46 36
f 34 45 47
f 34 47 46
f 35 48 45
f 35 44 49
f 35 49 50
f 35 50 48
f 36 46 51
f 36 51 37
f 37 51 38
f 38 51 52
f 38 52 53
f 38 53 39
f 39 53 40
f 40 53 54
f 40 54 55
f 40 55 41
f 45 56 47
f 45 48 56
f 46 47 57
f 46 57 51
f 47 56 58
f 47 58 57
f 48 59 56
f 48 50 60
f 48 60 59
f 51 57 61
f 51 61 52
f 52 61 62
f 52 62 63
f 52 63 53
f 53 63 54
f 54 63 64
f 54 64 65
f 54 65 55
f 56 66 67
f 56 67 58
f 56 59 66
f 57 68 61
f 57 58 67
f 57 67 68
f 59 60 66
f 60 69 70
f 60 70 71
f 60 71 66
f 61 68 72
f 61 72 73
f 61 73 62
f 62 73 63
f 63 73 74
f 63 74 64
f 64 74 65
f 65 74 75
f 66 71 76
f 66 76 67
f 67 76 77
f 67 77 68
f 68 77 72
f 69 78 76
f 69 76 79
f 69 79 80
f 69 80 70
f 70 80 71
f 71 80 79
f 71 79 76
f 72 77 81
f 72 81 73
f 73 81 82
f 73 82 74
f 74 82 83
f 74 83 84
f 74 84 75
f 75 84 85
f 76 78 86
f 76 86 87
f 76 87 77
f 77 88 81
f 77 87 88
f 81 88 82
f 82 88 83
f 83 85 84

