# https://github.com/mikedh/trimesh
v -0.04124975 0.00389278 -0.00426111
v -0.04124975 0.00389398 0.00375039
v -0.04315971 0.00458129 0.01624844
v -0.04163939 0.00403264 -0.00426111
v -0.03926210 0.00389517 -0.00426111
v -0.03875055 0.00389637 0.01124922
v -0.04124975 0.00389876 0.01624844
v -0.04293979 0.00471995 0.01796840
v -0.04440991 0.00559134 0.01624844
v -0.04315971 0.00458010 0.00625000
v -0.04315612 0.00457770 -0.00426111
v -0.03875055 0.00389637 -0.00426111
v -0.03684418 0.00458010 0.01374883
v -0.03875055 0.00389876 0.01624844
v -0.03875055 0.00444980 0.01835350
v -0.04124975 0.00444980 0.01835114
v -0.04124975 0.00625116 0.01953715
v -0.04376330 0.00623682 0.01854014
v -0.04528003 0.00706040 0.01797312
v -0.04541987 0.00684165 0.01624844
v -0.04440991 0.00559134 0.01124922
v -0.04415055 0.00538575 -0.00426111
v -0.04440991 0.00559254 0.00625000
v -0.03684776 0.00458129 -0.00426111
v -0.03684418 0.00458010 0.01124922
v -0.03559398 0.00559373 0.01624844
v -0.03684418 0.00458129 0.01624844
v -0.03706290 0.00472114 0.01797549
v -0.03875055 0.00625116 0.01954188
v -0.04124975 0.00875059 0.01987500
v -0.04374895 0.00875059 0.01954897
v -0.04555134 0.00875059 0.01836059
v -0.04610234 0.00875059 0.01624844
v -0.04610354 0.00875059 -0.00426111
v -0.04541987 0.00684165 0.01374883
v -0.04440632 0.00559493 -0.00426111
v -0.04440872 0.00559254 0.00375039
v -0.04461429 0.00585073 -0.00426111
v -0.04541868 0.00684165 0.00874961
v -0.03559756 0.00559612 -0.00426111
v -0.03559756 0.00559493 -0.00124882
v -0.03559398 0.00559373 0.01124922
v -0.03457804 0.00684404 0.01624844
v -0.03471907 0.00706279 0.01797076
v -0.03623820 0.00623801 0.01854251
v -0.03625015 0.00875059 0.01954424
v -0.03875055 0.00875059 0.01987500
v -0.04124975 0.01124882 0.01987500
v -0.04374895 0.01124882 0.01954660
v -0.04555015 0.01124882 0.01836059
v -0.04609995 0.01124882 0.01624844
v -0.04610115 0.01124882 0.01124922
v -0.04610354 0.01124882 -0.00426111
v -0.04541628 0.00684524 -0.00426111
v -0.03458162 0.00684643 -0.00426111
v -0.03457923 0.00684404 0.00874961
v -0.03390035 0.00875059 0.00874961
v -0.03390154 0.00875059 0.01624844
v -0.03389915 0.00875059 -0.00426111
v -0.03445015 0.00875059 0.01835823
v -0.03625015 0.01124882 0.01954424
v -0.03875055 0.01124882 0.01987500
v -0.03875055 0.01374944 0.01953952
v -0.04124975 0.01374944 0.01953715
v -0.04375613 0.01375781 0.01853542
v -0.04527884 0.01293064 0.01797076
v -0.04541868 0.01314700 0.01624844
v -0.04555852 0.01276449 -0.00426111
v -0.03444178 0.00723492 -0.00426111
v -0.03389796 0.00926219 -0.00426111
v -0.03389437 0.01124882 -0.00426111
v -0.03390393 0.01124882 0.01624844
v -0.03445134 0.01124882 0.01835586
v -0.03389676 0.01124882 0.00125079
v -0.03623939 0.01376259 0.01853542
v -0.03472146 0.01293782 0.01796604
v -0.03706529 0.01527707 0.01796604
v -0.03875055 0.01554482 0.01835114
v -0.04124975 0.01554482 0.01834878
v -0.04292784 0.01527707 0.01796368
v -0.04439198 0.01439611 0.01624844
v -0.04439437 0.01439850 0.01124922
v -0.04440035 0.01440448 -0.00426111
v -0.04541748 0.01315417 -0.00426111
v -0.03457684 0.01315895 -0.00426111
v -0.03458043 0.01315656 0.01624844
v -0.03559756 0.01440687 0.01624844
v -0.03684776 0.01541573 0.01624844
v -0.03875055 0.01608989 0.01624844
v -0.04124975 0.01608989 0.01624844
v -0.04314178 0.01541453 0.01624844
v -0.04315015 0.01541573 -0.00426111
v -0.03538481 0.01415346 -0.00426111
v -0.03457804 0.01316015 -0.00124882
v -0.03458043 0.01315776 0.01374883
v -0.03559398 0.01440926 0.00625000
v -0.03559517 0.01440807 0.01124922
v -0.03875055 0.01609348 0.01124922
v -0.03684537 0.01541692 0.01124922
v -0.03875055 0.01610304 -0.00426111
v -0.04124975 0.01609945 -0.00426111
v -0.04276170 0.01555678 -0.00426111
v -0.03559398 0.01440926 -0.00426111
v -0.03684418 0.01541812 0.00625000
v -0.03584975 0.01461725 -0.00426111
v -0.03684418 0.01541812 -0.00426111
f 1 2 3
f 1 3 4
f 1 4 11
f 1 11 22
f 1 22 36
f 1 36 38
f 1 38 54
f 1 54 34
f 1 34 53
f 1 53 68
f 1 68 84
f 1 84 83
f 1 83 92
f 1 92 102
f 1 102 101
f 1 101 100
f 1 100 106
f 1 106 105
f 1 105 103
f 1 103 93
f 1 93 85
f 1 85 71
f 1 71 70
f 1 70 59
f 1 59 69
f 1 69 55
f 1 55 40
f 1 40 24
f 1 24 12
f 1 12 5
f 1 5 6
f 1 6 2
f 2 6 7
f 2 7 3
f 3 7 8
f 3 8 9
f 3 9 10
f 3 10 4
f 4 10 11
f 5 12 6
f 6 13 27
f 6 27 14
f 6 14 7
f 6 12 25
f 6 25 13
f 7 14 15
f 7 15 16
f 7 16 8
f 8 16 17
f 8 17 18
f 8 18 19
f 8 19 9
f 9 19 20
f 9 20 35
f 9 35 21
f 9 21 10
f 10 21 11
f 11 21 23
f 11 23 22
f 12 24 25
f 13 25 42
f 13 42 26
f 13 26 27
f 14 27 28
f 14 28 15
f 15 28 29
f 15 29 16
f 16 29 17
f 17 29 30
f 17 30 31
f 17 31 18
f 18 31 19
f 19 31 32
f 19 32 33
f 19 33 20
f 20 33 34
f 20 34 35
f 21 35 23
f 22 23 37
f 22 37 36
f 23 38 37
f 23 35 39
f 23 39 38
f 24 40 41
f 24 41 42
f 24 42 25
f 26 43 44
f 26 44 28
f 26 28 27
f 26 42 43
f 28 44 45
f 28 45 29
f 29 45 46
f 29 46 47
f 29 47 30
f 30 47 62
f 30 62 48
f 30 48 31
f 31 48 49
f 31 49 50
f 31 50 32
f 32 50 33
f 33 50 51
f 33 51 52
f 33 52 53
f 33 53 34
f 34 54 39
f 34 39 35
f 36 37 38
f 38 39 54
f 40 55 42
f 40 42 41
f 42 56 43
f 42 55 56
f 43 57 58
f 43 58 44
f 43 56 59
f 43 59 57
f 44 60 46
f 44 46 45
f 44 58 60
f 46 61 62
f 46 62 47
f 46 60 61
f 48 62 63
f 48 63 64
f 48 64 49
f 49 64 65
f 49 65 66
f 49 66 50
f 50 66 51
f 51 66 67
f 51 67 52
f 52 67 53
f 53 67 68
f 55 69 56
f 56 69 59
f 57 59 70
f 57 70 71
f 57 71 58
f 58 72 73
f 58 73 60
f 58 71 74
f 58 74 72
f 60 73 61
f 61 75 63
f 61 63 62
f 61 73 76
f 61 76 75
f 63 75 77
f 63 77 78
f 63 78 79
f 63 79 64
f 64 79 80
f 64 80 65
f 65 80 66
f 66 80 81
f 66 81 67
f 67 81 82
f 67 82 83
f 67 83 84
f 67 84 68
f 71 85 86
f 71 86 74
f 72 86 76
f 72 76 73
f 72 74 86
f 75 76 77
f 76 86 87
f 76 87 77
f 77 87 88
f 77 88 89
f 77 89 78
f 78 89 90
f 78 90 79
f 79 90 80
f 80 90 91
f 80 91 81
f 81 91 82
f 82 91 83
f 83 91 92
f 85 93 94
f 85 94 86
f 86 95 96
f 86 96 97
f 86 97 87
f 86 94 95
f 87 97 99
f 87 99 88
f 88 98 89
f 88 99 100
f 88 100 98
f 89 98 90
f 90 98 100
f 90 100 101
f 90 101 91
f 91 101 102
f 91 102 92
f 93 103 96
f 93 96 94
f 94 96 95
f 96 104 99
f 96 99 97
f 96 103 105
f 96 105 104
f 99 104 100
f 100 104 106
f 104 105 106

