# https://github.com/mikedh/trimesh
v -0.08740252 -0.00875067 -0.00891604
v -0.08610608 -0.00875067 -0.00426111
v -0.08556144 -0.00723528 -0.00426111
v -0.08542093 -0.00684557 -0.00426111
v -0.08645663 -0.00622261 -0.00891604
v -0.08739963 -0.01124975 -0.00891604
v -0.08610464 -0.01124975 -0.00426111
v -0.08440261 -0.00559675 -0.00426111
v -0.08629295 -0.00598501 -0.00891604
v -0.08640883 -0.00612844 -0.00891604
v -0.08720842 -0.01182635 -0.00891604
v -0.08542093 -0.01315485 -0.00426111
v -0.08315253 -0.00457973 -0.00426111
v -0.08401006 -0.00370759 -0.00891604
v -0.08647981 -0.01382417 -0.00891604
v -0.08535574 -0.01535549 -0.00891604
v -0.08461265 -0.01414869 -0.00426111
v -0.08276432 -0.00444065 -0.00426111
v -0.08124915 -0.00261089 -0.00891604
v -0.08377539 -0.00354678 -0.00891604
v -0.08386810 -0.00359314 -0.00891604
v -0.08382609 -0.01648262 -0.00891604
v -0.08315397 -0.01542069 -0.00426111
v -0.08414767 -0.01461374 -0.00426111
v -0.08440406 -0.01440367 -0.00426111
v -0.08124915 -0.00390317 -0.00426111
v -0.08034237 -0.00260799 -0.00891604
v -0.08183001 -0.01721279 -0.00891604
v -0.08124915 -0.01610594 -0.00426111
v -0.08073781 -0.00390172 -0.00426111
v -0.07875043 -0.00260654 -0.00891604
v -0.07875043 -0.00389882 -0.00426111
v -0.08124915 -0.01740547 -0.00891604
v -0.07875043 -0.01610450 -0.00426111
v -0.07817536 -0.00279343 -0.00891604
v -0.07684271 -0.00457683 -0.00426111
v -0.07966880 -0.01740257 -0.00891604
v -0.07723526 -0.01555977 -0.00426111
v -0.07875043 -0.01739967 -0.00891604
v -0.07617348 -0.00351345 -0.00891604
v -0.07584901 -0.00538523 -0.00426111
v -0.07464094 -0.00464058 -0.00891604
v -0.07684705 -0.01541924 -0.00426111
v -0.07622419 -0.01645509 -0.00891604
v -0.07559262 -0.00559385 -0.00426111
v -0.07351542 -0.00617480 -0.00891604
v -0.07538404 -0.00585028 -0.00426111
v -0.07457865 -0.00684412 -0.00426111
v -0.07613003 -0.01640873 -0.00891604
v -0.07559697 -0.01440222 -0.00426111
v -0.07279405 -0.00817552 -0.00891604
v -0.07389928 -0.00875067 -0.00426111
v -0.07598662 -0.01629138 -0.00891604
v -0.07370808 -0.01401541 -0.00891604
v -0.07458010 -0.01315195 -0.00426111
v -0.07260574 -0.00875067 -0.00891604
v -0.07390074 -0.01124975 -0.00426111
v -0.07260574 -0.01033849 -0.00891604
v -0.07359075 -0.01387053 -0.00891604
v -0.07260719 -0.01124975 -0.00891604
v -0.07444104 -0.01276369 -0.00426111
v -0.07354439 -0.01377491 -0.00891604
f 1 2 3
f 1 3 4
f 1 4 5
f 1 5 10
f 1 10 9
f 1 9 14
f 1 14 21
f 1 21 20
f 1 20 19
f 1 19 27
f 1 27 31
f 1 31 35
f 1 35 40
f 1 40 42
f 1 42 46
f 1 46 51
f 1 51 56
f 1 56 58
f 1 58 60
f 1 60 62
f 1 62 59
f 1 59 54
f 1 54 53
f 1 53 49
f 1 49 44
f 1 44 39
f 1 39 37
f 1 37 33
f 1 33 28
f 1 28 22
f 1 22 16
f 1 16 15
f 1 15 11
f 1 11 6
f 1 6 7
f 1 7 2
f 2 7 12
f 2 12 17
f 2 17 25
f 2 25 24
f 2 24 23
f 2 23 29
f 2 29 34
f 2 34 38
f 2 38 43
f 2 43 50
f 2 50 55
f 2 55 61
f 2 61 57
f 2 57 52
f 2 52 48
f 2 48 47
f 2 47 45
f 2 45 41
f 2 41 36
f 2 36 32
f 2 32 30
f 2 30 26
f 2 26 18
f 2 18 13
f 2 13 8
f 2 8 4
f 2 4 3
f 4 8 9
f 4 9 10
f 4 10 5
f 6 11 7
f 7 11 12
f 8 13 14
f 8 14 9
f 11 15 12
f 12 15 16
f 12 16 17
f 13 18 19
f 13 19 20
f 13 20 21
f 13 21 14
f 16 22 23
f 16 23 24
f 16 24 25
f 16 25 17
f 18 26 19
f 19 26 27
f 22 28 23
f 23 28 29
f 26 30 27
f 27 30 32
f 27 32 31
f 28 33 29
f 29 33 34
f 31 32 35
f 32 36 35
f 33 37 34
f 34 37 39
f 34 39 38
f 35 36 40
f 36 41 42
f 36 42 40
f 38 39 43
f 39 44 43
f 41 45 42
f 42 45 47
f 42 47 48
f 42 48 46
f 43 44 49
f 43 49 50
f 46 48 51
f 48 52 51
f 49 53 50
f 50 54 55
f 50 53 54
f 51 52 56
f 52 57 58
f 52 58 56
f 54 59 55
f 55 60 61
f 55 59 62
f 55 62 60
f 57 61 60
f 57 60 58

