# https://github.com/mikedh/trimesh
v -0.02875020 -0.00259453 -0.00891604
v -0.02875020 -0.00389410 -0.00426111
v -0.02817029 -0.00278722 -0.00891604
v -0.03124962 -0.00260177 -0.00891604
v -0.03124962 -0.00389990 -0.00426111
v -0.03073784 -0.00389845 -0.00426111
v -0.02685679 -0.00457939 -0.00426111
v -0.02617829 -0.00353625 -0.00891604
v -0.03377223 -0.00354205 -0.00891604
v -0.03315318 -0.00458518 -0.00426111
v -0.03276464 -0.00444465 -0.00426111
v -0.02586224 -0.00539361 -0.00426111
v -0.02466182 -0.00466197 -0.00891604
v -0.03387082 -0.00359131 -0.00891604
v -0.03402159 -0.00371156 -0.00891604
v -0.03440288 -0.00559065 -0.00426111
v -0.02560708 -0.00560514 -0.00426111
v -0.02539541 -0.00586158 -0.00426111
v -0.02457773 -0.00685545 -0.00426111
v -0.02353679 -0.00617886 -0.00891604
v -0.03629050 -0.00597169 -0.00891604
v -0.03521331 -0.00658453 -0.00426111
v -0.02388909 -0.00875049 -0.00426111
v -0.02278581 -0.00816807 -0.00891604
v -0.03641228 -0.00612381 -0.00891604
v -0.03542208 -0.00684097 -0.00426111
v -0.02389199 -0.01124967 -0.00426111
v -0.02259154 -0.01032388 -0.00891604
v -0.02259154 -0.00875049 -0.00891604
v -0.03646302 -0.00622378 -0.00891604
v -0.03556271 -0.00723069 -0.00426111
v -0.03740103 -0.00875049 -0.00891604
v -0.02443855 -0.01276656 -0.00426111
v -0.02259299 -0.01124967 -0.00891604
v -0.03610492 -0.00875049 -0.00426111
v -0.03739233 -0.01124967 -0.00891604
v -0.03609768 -0.01124967 -0.00426111
v -0.03610348 -0.00926191 -0.00426111
v -0.02458063 -0.01315629 -0.00426111
v -0.02353824 -0.01377493 -0.00891604
v -0.03720096 -0.01181905 -0.00891604
v -0.03541483 -0.01315339 -0.00426111
v -0.02371076 -0.01402702 -0.00891604
v -0.02358899 -0.01387489 -0.00891604
v -0.02559258 -0.01440660 -0.00426111
v -0.03647607 -0.01381984 -0.00891604
v -0.03535684 -0.01535557 -0.00891604
v -0.03461455 -0.01414872 -0.00426111
v -0.02596952 -0.01629004 -0.00891604
v -0.02684229 -0.01542076 -0.00426111
v -0.03382587 -0.01648418 -0.00891604
v -0.03315752 -0.01542366 -0.00426111
v -0.03415207 -0.01461378 -0.00426111
v -0.03440724 -0.01440371 -0.00426111
v -0.02612320 -0.01641319 -0.00891604
v -0.02723228 -0.01555985 -0.00426111
v -0.02875020 -0.01739403 -0.00891604
v -0.02622323 -0.01646390 -0.00891604
v -0.03182518 -0.01720714 -0.00891604
v -0.03124962 -0.01610170 -0.00426111
v -0.02875020 -0.01609880 -0.00426111
v -0.03124962 -0.01739548 -0.00891604
f 1 2 3
f 1 3 8
f 1 8 13
f 1 13 20
f 1 20 24
f 1 24 29
f 1 29 28
f 1 28 34
f 1 34 40
f 1 40 44
f 1 44 43
f 1 43 49
f 1 49 55
f 1 55 58
f 1 58 57
f 1 57 62
f 1 62 59
f 1 59 51
f 1 51 47
f 1 47 46
f 1 46 41
f 1 41 36
f 1 36 32
f 1 32 30
f 1 30 25
f 1 25 21
f 1 21 15
f 1 15 14
f 1 14 9
f 1 9 4
f 1 4 5
f 1 5 6
f 1 6 2
f 2 7 3
f 2 6 5
f 2 5 11
f 2 11 10
f 2 10 16
f 2 16 22
f 2 22 26
f 2 26 31
f 2 31 35
f 2 35 38
f 2 38 37
f 2 37 42
f 2 42 48
f 2 48 54
f 2 54 53
f 2 53 52
f 2 52 60
f 2 60 61
f 2 61 56
f 2 56 50
f 2 50 45
f 2 45 39
f 2 39 33
f 2 33 27
f 2 27 23
f 2 23 19
f 2 19 18
f 2 18 17
f 2 17 12
f 2 12 7
f 3 7 8
f 4 9 10
f 4 10 11
f 4 11 5
f 7 12 13
f 7 13 8
f 9 14 10
f 10 14 15
f 10 15 16
f 12 17 13
f 13 18 19
f 13 19 20
f 13 17 18
f 15 21 16
f 16 21 22
f 19 23 24
f 19 24 20
f 21 25 26
f 21 26 22
f 23 27 28
f 23 28 29
f 23 29 24
f 25 30 26
f 26 30 32
f 26 32 31
f 27 33 34
f 27 34 28
f 31 32 35
f 32 36 37
f 32 37 38
f 32 38 35
f 33 39 34
f 34 39 40
f 36 41 37
f 37 41 42
f 39 43 44
f 39 44 40
f 39 45 43
f 41 46 42
f 42 47 48
f 42 46 47
f 43 45 49
f 45 50 49
f 47 51 52
f 47 52 53
f 47 53 54
f 47 54 48
f 49 50 55
f 50 56 57
f 50 57 58
f 50 58 55
f 51 59 52
f 52 59 60
f 56 61 57
f 57 61 60
f 57 60 62
f 59 62 60

