# https://github.com/mikedh/trimesh
v -0.04739963 0.01124985 -0.00891604
v -0.04610439 0.01073824 -0.00426111
v -0.04610439 0.01124985 -0.00426111
v -0.04541765 0.01315426 -0.00426111
v -0.04645500 0.01377312 -0.00891604
v -0.04739383 0.00875122 -0.00891604
v -0.04610294 0.00875122 -0.00426111
v -0.04440059 0.01440357 -0.00426111
v -0.04629129 0.01401225 -0.00891604
v -0.04640864 0.01386732 -0.00891604
v -0.04720114 0.00818453 -0.00891604
v -0.04541621 0.00684536 -0.00426111
v -0.04315026 0.01541520 -0.00426111
v -0.04401955 0.01628914 -0.00891604
v -0.04647094 0.00618302 -0.00891604
v -0.04535535 0.00464384 -0.00891604
v -0.04461356 0.00585113 -0.00426111
v -0.04276053 0.01555578 -0.00426111
v -0.04124942 0.01739931 -0.00891604
v -0.04377325 0.01645726 -0.00891604
v -0.04387032 0.01640943 -0.00891604
v -0.04382541 0.00351772 -0.00891604
v -0.04315606 0.00457717 -0.00426111
v -0.04414994 0.00538590 -0.00426111
v -0.04440638 0.00559605 -0.00426111
v -0.04124942 0.01609927 -0.00426111
v -0.03875022 0.01740077 -0.00891604
v -0.03875022 0.01610217 -0.00426111
v -0.04182895 0.00278871 -0.00891604
v -0.04124942 0.00389165 -0.00426111
v -0.03817359 0.01720801 -0.00891604
v -0.03684358 0.01541809 -0.00426111
v -0.04124942 0.00259450 -0.00891604
v -0.03926165 0.00389599 -0.00426111
v -0.03617568 0.01648479 -0.00891604
v -0.03584969 0.01461662 -0.00426111
v -0.03463994 0.01536157 -0.00891604
v -0.03875022 0.00260030 -0.00891604
v -0.03875022 0.00389744 -0.00426111
v -0.03559326 0.01440937 -0.00426111
v -0.03351276 0.01382674 -0.00891604
v -0.03538463 0.01415429 -0.00426111
v -0.03457764 0.01315860 -0.00426111
v -0.03622494 0.00354526 -0.00891604
v -0.03684793 0.00458152 -0.00426111
v -0.03723766 0.00444094 -0.00426111
v -0.03278980 0.01182813 -0.00891604
v -0.03389525 0.01124985 -0.00426111
v -0.03613076 0.00359164 -0.00891604
v -0.03598733 0.00370758 -0.00891604
v -0.03559760 0.00559605 -0.00426111
v -0.03259856 0.01124985 -0.00891604
v -0.03389814 0.00926138 -0.00426111
v -0.03370690 0.00599316 -0.00891604
v -0.03458198 0.00684681 -0.00426111
v -0.03260291 0.00966284 -0.00891604
v -0.03389959 0.00875122 -0.00426111
v -0.03359389 0.00613374 -0.00891604
v -0.03260725 0.00875122 -0.00891604
v -0.03444145 0.00723523 -0.00426111
v -0.03354898 0.00622650 -0.00891604
f 1 2 3
f 1 3 4
f 1 4 5
f 1 5 10
f 1 10 9
f 1 9 14
f 1 14 21
f 1 21 20
f 1 20 19
f 1 19 27
f 1 27 31
f 1 31 35
f 1 35 37
f 1 37 41
f 1 41 47
f 1 47 52
f 1 52 56
f 1 56 59
f 1 59 61
f 1 61 58
f 1 58 54
f 1 54 50
f 1 50 49
f 1 49 44
f 1 44 38
f 1 38 33
f 1 33 29
f 1 29 22
f 1 22 16
f 1 16 15
f 1 15 11
f 1 11 6
f 1 6 7
f 1 7 2
f 2 7 12
f 2 12 17
f 2 17 25
f 2 25 24
f 2 24 23
f 2 23 30
f 2 30 34
f 2 34 39
f 2 39 46
f 2 46 45
f 2 45 51
f 2 51 55
f 2 55 60
f 2 60 57
f 2 57 53
f 2 53 48
f 2 48 43
f 2 43 42
f 2 42 40
f 2 40 36
f 2 36 32
f 2 32 28
f 2 28 26
f 2 26 18
f 2 18 13
f 2 13 8
f 2 8 4
f 2 4 3
f 4 8 9
f 4 9 10
f 4 10 5
f 6 11 7
f 7 11 12
f 8 13 14
f 8 14 9
f 11 15 12
f 12 15 16
f 12 16 17
f 13 18 19
f 13 19 20
f 13 20 21
f 13 21 14
f 16 22 23
f 16 23 24
f 16 24 25
f 16 25 17
f 18 26 19
f 19 26 28
f 19 28 27
f 22 29 23
f 23 29 30
f 27 28 31
f 28 32 31
f 29 33 30
f 30 33 34
f 31 32 35
f 32 36 37
f 32 37 35
f 33 38 34
f 34 38 39
f 36 40 37
f 37 40 42
f 37 42 43
f 37 43 41
f 38 44 45
f 38 45 46
f 38 46 39
f 41 43 47
f 43 48 47
f 44 49 45
f 45 49 50
f 45 50 51
f 47 48 52
f 48 53 52
f 50 54 51
f 51 54 55
f 52 53 56
f 53 57 56
f 54 58 55
f 55 59 60
f 55 58 61
f 55 61 59
f 56 57 59
f 57 60 59

