# https://github.com/mikedh/trimesh
v -0.09388939 0.01124950 -0.00426111
v -0.09389298 0.00875058 -0.00426111
v -0.09457713 0.01315538 -0.00426111
v -0.09457833 0.01315538 0.00625000
v -0.09389178 0.01124950 0.01624844
v -0.09389298 0.00875058 0.01374883
v -0.09444077 0.00723210 -0.00426111
v -0.09457952 0.00684231 0.00874961
v -0.09559380 0.01440484 -0.00426111
v -0.09559380 0.01440603 -0.00124882
v -0.09559380 0.01440603 0.01624844
v -0.09457952 0.01315538 0.01624844
v -0.09471946 0.01293657 0.01797076
v -0.09444676 0.01124950 0.01835823
v -0.09444796 0.00875058 0.01835586
v -0.09389417 0.00875058 0.01624844
v -0.09458072 0.00684470 0.01374883
v -0.09458192 0.00684231 -0.00426111
v -0.09559977 0.00559285 0.00874961
v -0.09559977 0.00559165 0.00625000
v -0.09559858 0.00559165 0.00125079
v -0.09559738 0.00559165 -0.00426111
v -0.09584975 0.01461527 -0.00426111
v -0.09684369 0.01542234 0.01624844
v -0.09706257 0.01528125 0.01796840
v -0.09623848 0.01376158 0.01853778
v -0.09625044 0.01124950 0.01954424
v -0.09625044 0.00875058 0.01954424
v -0.09472185 0.00706470 0.01797076
v -0.09458192 0.00684590 0.01624844
v -0.09560097 0.00559524 0.01374883
v -0.09685206 0.00458491 0.01624844
v -0.09685087 0.00458491 0.01374883
v -0.09684967 0.00458491 0.00874961
v -0.09684847 0.00458372 -0.00426111
v -0.09684489 0.01542354 -0.00426111
v -0.09875023 0.01610506 0.01624844
v -0.09875023 0.01610865 -0.00426111
v -0.09875023 0.01555267 0.01835350
v -0.09875023 0.01374962 0.01954188
v -0.09875023 0.01124950 0.01987500
v -0.09875023 0.00875058 0.01987500
v -0.09875023 0.00625046 0.01953715
v -0.09624087 0.00623970 0.01853542
v -0.09706856 0.00472361 0.01796368
v -0.09560217 0.00559644 0.01624844
v -0.09875023 0.00390100 0.01624844
v -0.09875023 0.00389980 0.01124922
v -0.09723720 0.00444263 -0.00426111
v -0.10124884 0.01610506 0.01624844
v -0.10124884 0.01610506 -0.00426111
v -0.10124884 0.01555267 0.01834641
v -0.10124884 0.01374962 0.01953479
v -0.10124884 0.01124950 0.01987500
v -0.10124884 0.00875058 0.01987500
v -0.10124884 0.00625046 0.01954424
v -0.10124884 0.00444741 0.01835586
v -0.09875023 0.00445100 0.01834878
v -0.10124884 0.00389382 0.01624844
v -0.09875023 0.00389860 0.00375039
v -0.09875023 0.00389741 -0.00426111
v -0.10316017 0.01542234 0.01624844
v -0.10294009 0.01528125 0.01795895
v -0.10276785 0.01556104 -0.00426111
v -0.10374983 0.01124950 0.01953952
v -0.10376299 0.01376277 0.01853069
v -0.10374983 0.00875058 0.01953715
v -0.10376179 0.00624209 0.01853542
v -0.10293770 0.00471883 0.01797076
v -0.10315658 0.00457774 0.01624844
v -0.10124884 0.00389502 0.00874961
v -0.09926216 0.00389741 -0.00426111
v -0.10441007 0.01440962 0.00874961
v -0.10441007 0.01440962 0.01124922
v -0.10441007 0.01440843 0.01624844
v -0.10315777 0.01542115 -0.00426111
v -0.10527962 0.01293896 0.01796604
v -0.10554873 0.01124950 0.01835350
v -0.10554395 0.00875058 0.01835114
v -0.10527483 0.00706949 0.01796368
v -0.10440648 0.00560361 0.01624844
v -0.10440528 0.00559883 0.00874961
v -0.10440528 0.00559763 0.00625000
v -0.10440408 0.00559405 -0.00124882
v -0.10440289 0.00559285 -0.00374843
v -0.10440289 0.00559285 -0.00426111
v -0.10414693 0.00538600 -0.00426111
v -0.10315299 0.00458372 -0.00426111
v -0.10124884 0.00389860 -0.00426111
v -0.10124884 0.00389621 0.00375039
v -0.10440887 0.01440843 0.00375039
v -0.10440887 0.01440723 0.00125079
v -0.10542075 0.01315538 -0.00426111
v -0.10542195 0.01315896 0.00625000
v -0.10542195 0.01315896 0.00874961
v -0.10541955 0.01315896 0.01624844
v -0.10542075 0.01315896 0.01374883
v -0.10440768 0.01440484 -0.00426111
v -0.10440768 0.01440603 -0.00374843
v -0.10609654 0.01124950 0.01624844
v -0.10608935 0.00875058 0.01624844
v -0.10541238 0.00685307 0.01624844
v -0.10541597 0.00684948 0.00874961
v -0.10542075 0.00684231 -0.00426111
v -0.10461220 0.00584872 -0.00426111
v -0.10556189 0.01276559 -0.00426111
v -0.10610610 0.01124950 -0.00426111
v -0.10610132 0.01124950 0.00874961
v -0.10610610 0.00875058 -0.00426111
v -0.10610730 0.01073776 -0.00426111
f 1 2 7
f 1 7 18
f 1 18 22
f 1 22 35
f 1 35 49
f 1 49 61
f 1 61 72
f 1 72 89
f 1 89 88
f 1 88 87
f 1 87 86
f 1 86 105
f 1 105 104
f 1 104 109
f 1 109 110
f 1 110 107
f 1 107 106
f 1 106 93
f 1 93 98
f 1 98 76
f 1 76 64
f 1 64 51
f 1 51 38
f 1 38 36
f 1 36 23
f 1 23 9
f 1 9 3
f 1 3 4
f 1 4 5
f 1 5 6
f 1 6 2
f 2 6 8
f 2 8 7
f 3 9 10
f 3 10 11
f 3 11 4
f 4 11 12
f 4 12 5
f 5 12 13
f 5 13 14
f 5 14 15
f 5 15 16
f 5 16 6
f 6 16 17
f 6 17 8
f 7 8 18
f 8 17 31
f 8 31 19
f 8 19 20
f 8 20 21
f 8 21 22
f 8 22 18
f 9 23 10
f 10 23 11
f 11 24 25
f 11 25 13
f 11 13 12
f 11 23 24
f 13 25 26
f 13 26 27
f 13 27 14
f 14 27 28
f 14 28 15
f 15 28 29
f 15 29 16
f 16 30 17
f 16 29 30
f 17 30 46
f 17 46 31
f 19 31 32
f 19 32 20
f 20 32 33
f 20 33 34
f 20 34 21
f 21 34 22
f 22 34 35
f 23 36 24
f 24 37 25
f 24 36 38
f 24 38 37
f 25 39 40
f 25 40 26
f 25 37 39
f 26 40 27
f 27 41 42
f 27 42 28
f 27 40 41
f 28 42 43
f 28 43 44
f 28 44 29
f 29 44 45
f 29 45 46
f 29 46 30
f 31 46 32
f 32 47 48
f 32 48 33
f 32 46 45
f 32 45 47
f 33 48 49
f 33 49 35
f 33 35 34
f 37 50 39
f 37 38 50
f 38 51 50
f 39 50 52
f 39 52 53
f 39 53 40
f 40 53 54
f 40 54 41
f 41 54 55
f 41 55 42
f 42 55 56
f 42 56 43
f 43 56 57
f 43 57 58
f 43 58 45
f 43 45 44
f 45 58 47
f 47 58 59
f 47 59 48
f 48 59 60
f 48 60 49
f 49 60 61
f 50 62 63
f 50 63 52
f 50 51 62
f 51 64 62
f 52 63 53
f 53 65 54
f 53 63 66
f 53 66 65
f 54 65 55
f 55 65 67
f 55 67 56
f 56 67 68
f 56 68 69
f 56 69 57
f 57 69 59
f 57 59 58
f 59 69 70
f 59 70 71
f 59 71 61
f 59 61 60
f 61 71 72
f 62 73 74
f 62 74 75
f 62 75 63
f 62 64 76
f 62 76 73
f 63 75 77
f 63 77 66
f 65 66 77
f 65 77 78
f 65 78 67
f 67 78 79
f 67 79 80
f 67 80 68
f 68 80 69
f 69 80 81
f 69 81 70
f 70 81 82
f 70 82 83
f 70 83 84
f 70 84 85
f 70 85 86
f 70 86 87
f 70 87 88
f 70 88 89
f 70 89 90
f 70 90 71
f 71 90 72
f 72 90 89
f 73 76 91
f 73 91 99
f 73 99 92
f 73 92 93
f 73 93 94
f 73 94 95
f 73 95 74
f 74 95 75
f 75 96 77
f 75 95 97
f 75 97 96
f 76 98 99
f 76 99 91
f 77 96 100
f 77 100 78
f 78 100 79
f 79 100 101
f 79 101 80
f 80 101 102
f 80 102 81
f 81 102 103
f 81 103 104
f 81 104 83
f 81 83 82
f 83 104 105
f 83 105 84
f 84 105 86
f 84 86 85
f 92 99 93
f 93 99 98
f 93 106 94
f 94 106 107
f 94 107 95
f 95 107 97
f 96 97 108
f 96 108 100
f 97 107 108
f 100 108 109
f 100 109 101
f 101 109 102
f 102 109 103
f 103 109 104
f 107 110 108
f 108 110 109

