# https://github.com/mikedh/trimesh
v 0.08111987 -0.01375369 -0.00624548
v 0.08110908 -0.01625020 -0.00624548
v 0.08042853 -0.01185226 -0.00624548
v 0.08041894 -0.01184747 0.01624652
v 0.08109830 -0.01375129 0.01624652
v 0.08109111 -0.01624901 0.01624652
v 0.08041894 -0.01813247 -0.00624548
v 0.08041175 -0.01814684 0.01624652
v 0.07938853 -0.01059981 -0.00624548
v 0.07939931 -0.01059622 0.01624652
v 0.08027995 -0.01206420 0.01796231
v 0.08055074 -0.01375129 0.01834843
v 0.08054715 -0.01624901 0.01834843
v 0.08027396 -0.01793251 0.01796231
v 0.07937774 -0.01938372 -0.00624548
v 0.07940770 -0.01939689 0.01624652
v 0.07814005 -0.00958444 -0.00624548
v 0.07938853 -0.01059861 -0.00426119
v 0.07814963 -0.00958564 0.01624652
v 0.07793516 -0.00972214 0.01796743
v 0.07876069 -0.01123921 0.01853510
v 0.07874871 -0.01375129 0.01953235
v 0.07874871 -0.01624901 0.01953491
v 0.07876309 -0.01875870 0.01853765
v 0.07793876 -0.02028055 0.01797254
v 0.07812926 -0.02041466 -0.00624548
v 0.07815802 -0.02042064 0.01624652
v 0.07624695 -0.00889476 -0.00624548
v 0.07624815 -0.00890314 0.01624652
v 0.07624815 -0.00945034 0.01835354
v 0.07624815 -0.01125118 0.01954258
v 0.07624815 -0.01375129 0.01987245
v 0.07624815 -0.01624901 0.01987245
v 0.07624815 -0.01874912 0.01954258
v 0.07624815 -0.02055116 0.01835610
v 0.07624815 -0.02110195 0.01624652
v 0.07624815 -0.02110075 -0.00624548
v 0.07375000 -0.00888278 -0.00624548
v 0.07375120 -0.00889835 0.01624652
v 0.07375120 -0.00944914 0.01835354
v 0.07375120 -0.01125118 0.01954003
v 0.07375120 -0.01375129 0.01987245
v 0.07375120 -0.01624901 0.01987245
v 0.07375120 -0.01874912 0.01953747
v 0.07375120 -0.02054757 0.01835099
v 0.07375120 -0.02109596 0.01624652
v 0.07375120 -0.02111512 -0.00624548
v 0.07184373 -0.00957127 -0.00624548
v 0.07185811 -0.00958205 0.01624652
v 0.07206538 -0.00971975 0.01796743
v 0.07123986 -0.01123921 0.01853765
v 0.07125064 -0.01375129 0.01954258
v 0.07125064 -0.01624901 0.01954514
v 0.07123986 -0.01876229 0.01853765
v 0.07206538 -0.02027576 0.01796487
v 0.07184852 -0.02041466 0.01624652
v 0.07184253 -0.02042903 -0.00624548
v 0.07059405 -0.01059502 -0.00624548
v 0.07059525 -0.01059502 -0.00425863
v 0.07060723 -0.01060460 0.01624652
v 0.06972060 -0.01206539 0.01796998
v 0.06944741 -0.01375129 0.01835354
v 0.06944621 -0.01624901 0.01835610
v 0.06971940 -0.01793850 0.01797254
v 0.07059764 -0.01940887 0.01624652
v 0.07184613 -0.02041705 0.01124744
v 0.07059045 -0.01940887 -0.00624548
v 0.07059644 -0.01940887 0.01374826
v 0.07059285 -0.01940887 0.00375267
v 0.07059045 -0.01940887 -0.00374722
v 0.06957202 -0.01184388 -0.00624548
v 0.06958041 -0.01185466 0.01624652
v 0.06889267 -0.01375129 0.01624652
v 0.06889147 -0.01624901 0.01624652
v 0.06957921 -0.01815881 0.01624652
v 0.06957202 -0.01815762 -0.00624548
v 0.06957921 -0.01816001 0.01374826
v 0.06887949 -0.01375129 -0.00624548
v 0.06887949 -0.01624901 -0.00624548
f 1 2 7
f 1 7 15
f 1 15 26
f 1 26 37
f 1 37 47
f 1 47 57
f 1 57 67
f 1 67 76
f 1 76 79
f 1 79 78
f 1 78 71
f 1 71 58
f 1 58 48
f 1 48 38
f 1 38 28
f 1 28 17
f 1 17 9
f 1 9 3
f 1 3 4
f 1 4 5
f 1 5 6
f 1 6 2
f 2 6 8
f 2 8 7
f 3 9 10
f 3 10 4
f 4 10 11
f 4 11 5
f 5 11 12
f 5 12 13
f 5 13 6
f 6 13 14
f 6 14 8
f 7 8 16
f 7 16 15
f 8 14 16
f 9 17 18
f 9 18 10
f 10 19 20
f 10 20 11
f 10 18 17
f 10 17 19
f 11 20 21
f 11 21 22
f 11 22 12
f 12 22 23
f 12 23 13
f 13 23 14
f 14 23 24
f 14 24 25
f 14 25 16
f 15 16 26
f 16 25 27
f 16 27 26
f 17 28 19
f 19 29 20
f 19 28 29
f 20 30 31
f 20 31 21
f 20 29 30
f 21 31 22
f 22 31 32
f 22 32 23
f 23 32 33
f 23 33 34
f 23 34 24
f 24 34 25
f 25 34 35
f 25 35 36
f 25 36 27
f 26 27 37
f 27 36 37
f 28 38 29
f 29 39 30
f 29 38 39
f 30 39 40
f 30 40 31
f 31 41 42
f 31 42 32
f 31 40 41
f 32 42 43
f 32 43 33
f 33 43 34
f 34 43 44
f 34 44 35
f 35 44 45
f 35 45 36
f 36 45 46
f 36 46 47
f 36 47 37
f 38 48 49
f 38 49 39
f 39 49 50
f 39 50 40
f 40 50 41
f 41 51 52
f 41 52 42
f 41 50 51
f 42 52 53
f 42 53 43
f 43 53 44
f 44 54 55
f 44 55 45
f 44 53 54
f 45 55 46
f 46 55 56
f 46 56 47
f 47 56 57
f 48 58 59
f 48 59 60
f 48 60 49
f 49 60 50
f 50 61 51
f 50 60 61
f 51 61 52
f 52 61 62
f 52 62 63
f 52 63 53
f 53 63 64
f 53 64 54
f 54 64 55
f 55 64 65
f 55 65 56
f 56 65 66
f 56 66 57
f 57 66 65
f 57 65 68
f 57 68 69
f 57 69 70
f 57 70 67
f 58 71 59
f 59 71 72
f 59 72 60
f 60 72 61
f 61 72 73
f 61 73 62
f 62 73 63
f 63 73 74
f 63 74 64
f 64 74 75
f 64 75 65
f 65 75 68
f 67 70 76
f 68 75 77
f 68 77 69
f 69 77 70
f 70 77 76
f 71 78 72
f 72 78 73
f 73 78 74
f 74 78 79
f 74 79 75
f 75 79 76
f 75 76 77

