# https://github.com/mikedh/trimesh
v 0.00124995 -0.00260083 -0.00891604
v 0.00124995 -0.00389503 -0.00426111
v 0.00182391 -0.00279358 -0.00891604
v -0.00124882 -0.00260228 -0.00891604
v 0.00314721 -0.00457909 -0.00426111
v -0.00073863 -0.00389938 -0.00426111
v 0.00382118 -0.00352982 -0.00891604
v -0.00377368 -0.00355011 -0.00891604
v -0.00314609 -0.00458489 -0.00426111
v -0.00275910 -0.00444431 -0.00426111
v -0.00124882 -0.00390083 -0.00426111
v 0.00414295 -0.00539358 -0.00426111
v 0.00534740 -0.00465300 -0.00891604
v -0.00386644 -0.00359503 -0.00891604
v -0.00340118 -0.00479358 -0.00426111
v 0.00439805 -0.00560373 -0.00426111
v 0.00460821 -0.00585880 -0.00426111
v 0.00542132 -0.00685445 -0.00426111
v 0.00647214 -0.00617764 -0.00891604
v -0.00400413 -0.00370808 -0.00891604
v -0.00439547 -0.00560807 -0.00426111
v 0.00610979 -0.00875010 -0.00426111
v 0.00721278 -0.00817039 -0.00891604
v -0.00629274 -0.00600373 -0.00891604
v -0.00640289 -0.00613851 -0.00891604
v -0.00541005 -0.00685735 -0.00426111
v 0.00611124 -0.01073850 -0.00426111
v 0.00740990 -0.01124865 -0.00891604
v 0.00740700 -0.00875010 -0.00891604
v -0.00644637 -0.00622836 -0.00891604
v -0.00739718 -0.00875010 -0.00891604
v -0.00609562 -0.00875010 -0.00426111
v 0.00611124 -0.01124865 -0.00426111
v 0.00646344 -0.01377618 -0.00891604
v 0.00556481 -0.01276893 -0.00426111
v 0.00542277 -0.01315879 -0.00426111
v -0.00739283 -0.01124865 -0.00891604
v -0.00610286 -0.01124865 -0.00426111
v 0.00641271 -0.01387618 -0.00891604
v 0.00628951 -0.01402980 -0.00891604
v 0.00440964 -0.01440951 -0.00426111
v -0.00720006 -0.01181531 -0.00891604
v -0.00541730 -0.01315589 -0.00426111
v 0.00401975 -0.01629212 -0.00891604
v 0.00316026 -0.01542110 -0.00426111
v -0.00647246 -0.01381676 -0.00891604
v -0.00535642 -0.01535589 -0.00891604
v -0.00461288 -0.01415154 -0.00426111
v 0.00387046 -0.01641096 -0.00891604
v 0.00276892 -0.01556168 -0.00426111
v 0.00124995 -0.01739791 -0.00891604
v 0.00377335 -0.01645878 -0.00891604
v -0.00382585 -0.01648342 -0.00891604
v -0.00315478 -0.01542110 -0.00426111
v -0.00414907 -0.01461531 -0.00426111
v -0.00440562 -0.01440661 -0.00426111
v 0.00124995 -0.01610661 -0.00426111
v 0.00033248 -0.01740226 -0.00891604
v -0.00183003 -0.01721241 -0.00891604
v -0.00124882 -0.01610661 -0.00426111
v -0.00124882 -0.01740661 -0.00891604
f 1 2 3
f 1 3 7
f 1 7 13
f 1 13 19
f 1 19 23
f 1 23 29
f 1 29 28
f 1 28 34
f 1 34 39
f 1 39 40
f 1 40 44
f 1 44 49
f 1 49 52
f 1 52 51
f 1 51 58
f 1 58 61
f 1 61 59
f 1 59 53
f 1 53 47
f 1 47 46
f 1 46 42
f 1 42 37
f 1 37 31
f 1 31 30
f 1 30 25
f 1 25 24
f 1 24 20
f 1 20 14
f 1 14 8
f 1 8 4
f 1 4 2
f 2 5 3
f 2 4 6
f 2 6 11
f 2 11 10
f 2 10 9
f 2 9 15
f 2 15 21
f 2 21 26
f 2 26 32
f 2 32 38
f 2 38 43
f 2 43 48
f 2 48 56
f 2 56 55
f 2 55 54
f 2 54 60
f 2 60 57
f 2 57 50
f 2 50 45
f 2 45 41
f 2 41 36
f 2 36 35
f 2 35 33
f 2 33 27
f 2 27 22
f 2 22 18
f 2 18 17
f 2 17 16
f 2 16 12
f 2 12 5
f 3 5 7
f 4 8 9
f 4 9 10
f 4 10 11
f 4 11 6
f 5 12 13
f 5 13 7
f 8 14 9
f 9 14 15
f 12 16 13
f 13 17 18
f 13 18 19
f 13 16 17
f 14 20 21
f 14 21 15
f 18 22 23
f 18 23 19
f 20 24 21
f 21 24 25
f 21 25 26
f 22 27 28
f 22 28 29
f 22 29 23
f 25 30 26
f 26 30 31
f 26 31 32
f 27 33 28
f 28 33 35
f 28 35 36
f 28 36 34
f 31 37 38
f 31 38 32
f 34 36 39
f 36 40 39
f 36 41 40
f 37 42 38
f 38 42 43
f 40 41 44
f 41 45 44
f 42 46 43
f 43 46 47
f 43 47 48
f 44 45 49
f 45 50 51
f 45 51 52
f 45 52 49
f 47 53 54
f 47 54 55
f 47 55 56
f 47 56 48
f 50 57 51
f 51 57 58
f 53 59 54
f 54 59 60
f 57 60 61
f 57 61 58
f 59 61 60

