# https://github.com/mikedh/trimesh
v 0.00611181 -0.01124926 -0.00426111
v 0.00556416 -0.01276876 -0.00426111
v 0.00610942 -0.00875063 -0.00426111
v 0.00610822 -0.00875063 0.01124922
v 0.00610703 -0.01124926 0.01624844
v 0.00542307 -0.01315969 -0.00426111
v 0.00542067 -0.00685335 -0.00426111
v 0.00541948 -0.00684856 0.01624844
v 0.00610703 -0.00875063 0.01624844
v 0.00555340 -0.00875063 0.01835350
v 0.00555340 -0.01124926 0.01835114
v 0.00527958 -0.01293135 0.01796840
v 0.00541948 -0.01314893 0.01624844
v 0.00542187 -0.01315850 0.00125079
v 0.00441027 -0.01440901 -0.00374843
v 0.00441027 -0.01440901 -0.00426111
v 0.00439832 -0.00560403 -0.00426111
v 0.00440310 -0.00559925 0.01624844
v 0.00527958 -0.00706256 0.01797076
v 0.00374903 -0.00875063 0.01953952
v 0.00374903 -0.01124926 0.01953715
v 0.00375979 -0.01375865 0.01854014
v 0.00293353 -0.01528173 0.01797312
v 0.00440190 -0.01439944 0.01624844
v 0.00440669 -0.01440423 0.00874961
v 0.00440788 -0.01440542 0.00625000
v 0.00541948 -0.01315132 0.01374883
v 0.00440788 -0.01440781 0.00375039
v 0.00440908 -0.01440781 0.00125079
v 0.00542067 -0.01315611 0.00625000
v 0.00440908 -0.01440901 -0.00124882
v 0.00315474 -0.01542161 0.01124922
v 0.00315953 -0.01542041 0.00125079
v 0.00315953 -0.01542041 -0.00426111
v 0.00414243 -0.00539362 -0.00426111
v 0.00315355 -0.00457828 0.01624844
v 0.00293832 -0.00471815 0.01796840
v 0.00314757 -0.00457828 -0.00426111
v 0.00376338 -0.00623765 0.01853778
v 0.00124993 -0.00625081 0.01954188
v 0.00124993 -0.00875063 0.01987500
v 0.00124993 -0.01124926 0.01987500
v 0.00124993 -0.01374908 0.01954424
v 0.00124993 -0.01555192 0.01835586
v 0.00124993 -0.01610545 0.01624844
v 0.00315235 -0.01542161 0.01624844
v 0.00124993 -0.01610664 0.00874961
v 0.00276972 -0.01556149 -0.00426111
v 0.00124993 -0.00390042 0.00874961
v 0.00124993 -0.00390401 0.01624844
v 0.00124993 -0.00389444 -0.00426111
v 0.00124993 -0.00445275 0.01835350
v -0.00124917 -0.00625081 0.01954424
v -0.00124917 -0.00875063 0.01987500
v -0.00124917 -0.01124926 0.01987500
v -0.00124917 -0.01374908 0.01953952
v -0.00124917 -0.01554833 0.01835114
v -0.00124917 -0.01609708 0.01624844
v -0.00124917 -0.01610784 -0.00426111
v 0.00124993 -0.01610664 -0.00426111
v -0.00124917 -0.00390281 0.01374883
v -0.00124917 -0.00390401 0.01624844
v -0.00124917 -0.00445275 0.01835586
v -0.00124917 -0.00390042 -0.00426111
v -0.00376262 -0.00623885 0.01854014
v -0.00374946 -0.00875063 0.01954188
v -0.00293875 -0.00471815 0.01797076
v -0.00374946 -0.01124926 0.01954188
v -0.00376023 -0.01376343 0.01853778
v -0.00293517 -0.01527576 0.01796840
v -0.00315159 -0.01541324 0.01624844
v -0.00315518 -0.01542161 -0.00426111
v -0.00315638 -0.00457828 0.01624844
v -0.00275820 -0.00444319 -0.00426111
v -0.00527882 -0.00706376 0.01796840
v -0.00554666 -0.00875063 0.01835350
v -0.00554786 -0.01124926 0.01835350
v -0.00440712 -0.00560762 0.01624844
v -0.00528121 -0.01293972 0.01797076
v -0.00440234 -0.01441020 0.01624844
v -0.00415004 -0.01461583 -0.00426111
v -0.00314562 -0.00458426 -0.00426111
v -0.00439636 -0.00560762 -0.00426111
v -0.00540915 -0.00685693 0.01624844
v -0.00608475 -0.00875063 0.01624844
v -0.00609790 -0.01124926 0.01624844
v -0.00541035 -0.00685813 -0.00426111
v -0.00542111 -0.01315969 0.01624844
v -0.00440234 -0.01441020 0.01124922
v -0.00440593 -0.01440662 -0.00426111
v -0.00440354 -0.01440901 0.00375039
v -0.00440473 -0.01440781 -0.00124882
v -0.00555145 -0.00724547 -0.00426111
v -0.00609551 -0.00875063 -0.00426111
v -0.00609790 -0.00926112 -0.00426111
v -0.00610388 -0.01124926 -0.00426111
v -0.00542111 -0.01315969 0.01124922
v -0.00541752 -0.01315730 -0.00426111
f 1 2 6
f 1 6 16
f 1 16 34
f 1 34 48
f 1 48 60
f 1 60 59
f 1 59 72
f 1 72 81
f 1 81 90
f 1 90 98
f 1 98 96
f 1 96 95
f 1 95 94
f 1 94 93
f 1 93 87
f 1 87 83
f 1 83 82
f 1 82 74
f 1 74 64
f 1 64 51
f 1 51 38
f 1 38 35
f 1 35 17
f 1 17 7
f 1 7 3
f 1 3 4
f 1 4 5
f 1 5 2
f 2 5 6
f 3 7 8
f 3 8 4
f 4 8 9
f 4 9 5
f 5 9 10
f 5 10 11
f 5 11 12
f 5 12 13
f 5 13 14
f 5 14 6
f 6 15 16
f 6 14 15
f 7 17 18
f 7 18 8
f 8 18 19
f 8 19 9
f 9 19 10
f 10 19 20
f 10 20 21
f 10 21 11
f 11 21 12
f 12 21 22
f 12 22 23
f 12 23 24
f 12 24 13
f 13 24 25
f 13 25 26
f 13 26 28
f 13 28 27
f 13 27 30
f 13 30 14
f 14 28 29
f 14 29 15
f 14 30 28
f 15 29 28
f 15 28 31
f 15 31 46
f 15 46 32
f 15 32 33
f 15 33 34
f 15 34 16
f 17 35 18
f 18 36 37
f 18 37 19
f 18 35 38
f 18 38 36
f 19 37 39
f 19 39 20
f 20 39 40
f 20 40 41
f 20 41 42
f 20 42 21
f 21 42 43
f 21 43 22
f 22 43 23
f 23 43 44
f 23 44 45
f 23 45 46
f 23 46 24
f 24 46 25
f 25 46 28
f 25 28 26
f 27 28 30
f 28 46 31
f 32 46 45
f 32 45 47
f 32 47 48
f 32 48 33
f 33 48 34
f 36 49 50
f 36 50 37
f 36 38 51
f 36 51 49
f 37 52 40
f 37 40 39
f 37 50 52
f 40 53 41
f 40 52 63
f 40 63 53
f 41 53 54
f 41 54 55
f 41 55 42
f 42 55 43
f 43 55 56
f 43 56 44
f 44 57 45
f 44 56 57
f 45 57 58
f 45 58 59
f 45 59 47
f 47 59 60
f 47 60 48
f 49 61 62
f 49 62 50
f 49 51 61
f 50 62 63
f 50 63 52
f 51 64 61
f 53 65 66
f 53 66 54
f 53 63 67
f 53 67 65
f 54 66 68
f 54 68 55
f 55 68 56
f 56 68 69
f 56 69 70
f 56 70 57
f 57 70 58
f 58 70 71
f 58 71 59
f 59 71 72
f 61 73 62
f 61 64 73
f 62 73 67
f 62 67 63
f 64 74 73
f 65 67 75
f 65 75 66
f 66 75 76
f 66 76 77
f 66 77 68
f 67 73 78
f 67 78 75
f 68 77 79
f 68 79 69
f 69 79 70
f 70 79 80
f 70 80 71
f 71 80 72
f 72 80 81
f 73 74 82
f 73 82 83
f 73 83 78
f 75 78 84
f 75 84 85
f 75 85 76
f 76 85 86
f 76 86 77
f 77 86 79
f 78 83 87
f 78 87 84
f 79 86 88
f 79 88 80
f 80 89 81
f 80 88 90
f 80 90 92
f 80 92 91
f 80 91 89
f 81 91 92
f 81 92 90
f 81 89 91
f 84 87 93
f 84 93 94
f 84 94 85
f 85 94 86
f 86 94 95
f 86 95 96
f 86 96 88
f 88 97 90
f 88 96 97
f 90 97 98
f 96 98 97

