# https://github.com/mikedh/trimesh
v -0.10969423 -0.02660622 -0.01018230
v -0.09032238 -0.02660622 -0.01018230
v -0.10969423 -0.02638223 -0.01014648
v -0.10969423 0.02660955 -0.01018230
v -0.09032238 -0.02624679 -0.01012491
v -0.09032238 0.02660434 -0.01018230
v -0.10969423 -0.02624679 -0.01012491
v -0.10969423 0.02624491 -0.01012491
v -0.09032238 0.02638035 -0.01014611
v -0.10874791 0.02660955 -0.01018230
v -0.09967358 -0.01740702 -0.00891604
v -0.09032238 -0.01124991 -0.01006232
v -0.09261134 -0.01124991 -0.00891604
v -0.09354248 -0.01377109 -0.00891604
v -0.09358989 -0.01387006 -0.00891604
v -0.09371126 -0.01402113 -0.00891604
v -0.09596989 -0.01628707 -0.00891604
v -0.09612350 -0.01641208 -0.00891604
v -0.09622401 -0.01645897 -0.00891604
v -0.09875192 -0.01740181 -0.00891604
v -0.10124761 -0.01740181 -0.00891604
v -0.10182980 -0.01720907 -0.00891604
v -0.10382293 -0.01647980 -0.00891604
v -0.10535334 -0.01534944 -0.00891604
v -0.10647791 -0.01381797 -0.00891604
v -0.10720993 -0.01182811 -0.00891604
v -0.10740336 -0.01124991 -0.00891604
v -0.10969423 -0.01129158 -0.01006343
v -0.09032238 0.02624491 -0.01012491
v -0.10969423 0.01124803 -0.01006343
v -0.10740336 0.01124803 -0.00891604
v -0.10645515 0.01376921 -0.00891604
v -0.10640775 0.01386819 -0.00891604
v -0.10629017 0.01401404 -0.00891604
v -0.10400878 0.01629040 -0.00891604
v -0.10386655 0.01640500 -0.00891604
v -0.10377362 0.01645188 -0.00891604
v -0.10124761 0.01739472 -0.00891604
v -0.10033163 0.01739993 -0.00891604
v -0.09260944 -0.01034353 -0.00891604
v -0.09032238 0.01124803 -0.01006232
v -0.09259237 0.01124803 -0.00891604
v -0.09875192 0.01739993 -0.00891604
v -0.09817162 0.01720719 -0.00891604
v -0.09617659 0.01647792 -0.00891604
v -0.09464809 0.01534756 -0.00891604
v -0.09352162 0.01382130 -0.00891604
v -0.09278771 0.01183144 -0.00891604
f 1 2 3
f 1 3 7
f 1 7 28
f 1 28 30
f 1 30 8
f 1 8 4
f 1 4 10
f 1 10 6
f 1 6 2
f 2 5 3
f 2 6 9
f 2 9 29
f 2 29 41
f 2 41 12
f 2 12 5
f 3 5 7
f 4 8 9
f 4 9 10
f 5 11 7
f 5 12 13
f 5 13 14
f 5 14 15
f 5 15 16
f 5 16 17
f 5 17 18
f 5 18 19
f 5 19 20
f 5 20 11
f 6 10 9
f 7 11 21
f 7 21 22
f 7 22 23
f 7 23 24
f 7 24 25
f 7 25 26
f 7 26 27
f 7 27 28
f 8 29 9
f 8 30 31
f 8 31 32
f 8 32 33
f 8 33 34
f 8 34 35
f 8 35 36
f 8 36 37
f 8 37 38
f 8 38 39
f 8 39 43
f 8 43 29
f 11 20 19
f 11 19 18
f 11 18 17
f 11 17 16
f 11 16 15
f 11 15 14
f 11 14 13
f 11 13 40
f 11 40 42
f 11 42 48
f 11 48 47
f 11 47 46
f 11 46 45
f 11 45 44
f 11 44 43
f 11 43 39
f 11 39 38
f 11 38 37
f 11 37 36
f 11 36 35
f 11 35 34
f 11 34 33
f 11 33 32
f 11 32 31
f 11 31 27
f 11 27 26
f 11 26 25
f 11 25 24
f 11 24 23
f 11 23 22
f 11 22 21
f 12 40 13
f 12 41 42
f 12 42 40
f 27 31 30
f 27 30 28
f 29 43 44
f 29 44 45
f 29 45 46
f 29 46 47
f 29 47 48
f 29 48 42
f 29 42 41

