# https://github.com/mikedh/trimesh
v 0.02375432 0.02660016 -0.01018226
v 0.04375287 0.02659842 -0.01018226
v 0.02190750 0.02660016 -0.01018226
v 0.07490495 0.02624843 -0.01012495
v 0.07490495 0.02659494 -0.01018226
v 0.02190750 0.02624843 -0.01012498
v 0.05211542 0.02624843 -0.01012495
v 0.02190750 0.00938120 -0.01018226
v 0.06874716 0.00881182 -0.00981818
v 0.06953569 0.00881182 -0.00981861
v 0.07124762 0.00881182 -0.00982128
v 0.07490495 0.01625207 -0.01007932
v 0.07490495 0.00881182 -0.01018226
v 0.02190750 0.00938120 -0.01012498
v 0.03375619 0.00938120 -0.00998016
v 0.05211542 0.00881182 -0.01018226
v 0.05211542 0.00881182 -0.01012495
v 0.07490495 0.00881182 -0.01009682
v 0.07490495 0.00990531 -0.01007497
f 1 2 5
f 1 5 13
f 1 13 16
f 1 16 8
f 1 8 3
f 1 3 7
f 1 7 4
f 1 4 2
f 2 4 5
f 3 6 7
f 3 8 14
f 3 14 6
f 4 7 9
f 4 9 10
f 4 10 11
f 4 11 12
f 4 12 19
f 4 19 18
f 4 18 13
f 4 13 5
f 6 14 15
f 6 15 9
f 6 9 7
f 8 16 17
f 8 17 14
f 9 15 14
f 9 14 17
f 9 17 16
f 9 16 13
f 9 13 18
f 9 18 11
f 9 11 10
f 11 18 19
f 11 19 12

