# https://github.com/mikedh/trimesh
v 0.10965220 -0.02660953 -0.01018230
v 0.11089086 -0.02660953 -0.01018230
v 0.10965220 -0.02647934 -0.01016161
v 0.10965220 0.02659353 -0.01018230
v 0.12089024 -0.02660432 -0.01018230
v 0.12124967 -0.02624498 -0.01012500
v 0.10965220 -0.02624498 -0.01012500
v 0.10965220 0.02624981 -0.01012500
v 0.11125027 0.02659353 -0.01018230
v 0.12124967 -0.02659911 -0.01018230
v 0.10965220 -0.00124746 -0.01005879
v 0.12160324 -0.02624498 -0.01018230
v 0.12161143 -0.02588564 -0.01018230
v 0.12161260 -0.01338688 -0.01018230
v 0.12124967 0.02624981 -0.01012500
v 0.10965220 0.00124708 -0.01005878
v 0.11874894 0.02658832 -0.01018230
v 0.12161260 0.02374485 -0.01018230
v 0.12159972 0.02624981 -0.01018230
v 0.12124967 0.02658311 -0.01018230
f 1 2 3
f 1 3 7
f 1 7 11
f 1 11 16
f 1 16 8
f 1 8 4
f 1 4 9
f 1 9 17
f 1 17 20
f 1 20 19
f 1 19 18
f 1 18 14
f 1 14 13
f 1 13 12
f 1 12 10
f 1 10 5
f 1 5 2
f 2 5 6
f 2 6 3
f 3 6 7
f 4 8 15
f 4 15 9
f 5 10 6
f 6 11 7
f 6 10 12
f 6 12 13
f 6 13 14
f 6 14 18
f 6 18 15
f 6 15 16
f 6 16 11
f 8 16 15
f 9 15 17
f 15 18 19
f 15 19 20
f 15 20 17

