# https://github.com/mikedh/trimesh
v -0.09032048 -0.02660401 -0.01018230
v -0.06875301 -0.02660922 -0.01018230
v -0.09032048 -0.02647378 -0.01016098
v -0.09032048 0.02660832 -0.01018230
v -0.06739775 -0.02660922 -0.01018230
v -0.09032048 -0.02624457 -0.01012491
v -0.06739775 -0.02624457 -0.01012491
v -0.09032048 0.02624367 -0.01012491
v -0.08874981 0.02660832 -0.01018230
v -0.06739775 0.02660311 -0.01018230
v -0.08124877 -0.01740450 -0.00891604
v -0.08182991 -0.01721176 -0.00891604
v -0.08382466 -0.01647726 -0.00891604
v -0.08535269 -0.01535206 -0.00891604
v -0.08647908 -0.01382055 -0.00891604
v -0.08720607 -0.01182541 -0.00891604
v -0.08739679 -0.01124719 -0.00891604
v -0.09032048 -0.01124719 -0.01006232
v -0.07260562 -0.01034078 -0.00891604
v -0.07260787 -0.01124719 -0.00891604
v -0.07354353 -0.01377366 -0.00891604
v -0.07359514 -0.01386743 -0.00891604
v -0.07370958 -0.01401329 -0.00891604
v -0.07598704 -0.01628973 -0.00891604
v -0.07613064 -0.01640433 -0.00891604
v -0.07622713 -0.01645121 -0.00891604
v -0.07875141 -0.01739408 -0.00891604
v -0.07966464 -0.01739929 -0.00891604
v -0.06739775 0.02624367 -0.01012491
v -0.07875141 0.01740360 -0.00891604
v -0.09032048 0.01125150 -0.01006232
v -0.08739455 0.01125150 -0.00891604
v -0.08644542 0.01376756 -0.00891604
v -0.08640055 0.01386132 -0.00891604
v -0.08629060 0.01399676 -0.00891604
v -0.08400416 0.01629404 -0.00891604
v -0.08386505 0.01640343 -0.00891604
v -0.08377305 0.01645031 -0.00891604
v -0.08124877 0.01739839 -0.00891604
v -0.08740129 -0.00966879 -0.00891604
v -0.08740577 0.00875106 -0.00891604
v -0.07260562 -0.00874675 -0.00891604
v -0.07817026 0.01721086 -0.00891604
v -0.07617776 0.01647636 -0.00891604
v -0.07464749 0.01535116 -0.00891604
v -0.07352334 0.01381965 -0.00891604
v -0.07279859 0.01181930 -0.00891604
v -0.07260787 0.01125150 -0.00891604
v -0.08740129 0.01032946 -0.00891604
f 1 2 3
f 1 3 6
f 1 6 18
f 1 18 31
f 1 31 8
f 1 8 4
f 1 4 9
f 1 9 10
f 1 10 5
f 1 5 2
f 2 5 3
f 3 5 7
f 3 7 6
f 4 8 29
f 4 29 9
f 5 10 29
f 5 29 7
f 6 7 11
f 6 11 12
f 6 12 13
f 6 13 14
f 6 14 15
f 6 15 16
f 6 16 17
f 6 17 18
f 7 19 20
f 7 20 21
f 7 21 22
f 7 22 23
f 7 23 24
f 7 24 25
f 7 25 26
f 7 26 27
f 7 27 28
f 7 28 11
f 7 29 42
f 7 42 19
f 8 30 29
f 8 31 32
f 8 32 33
f 8 33 34
f 8 34 35
f 8 35 36
f 8 36 37
f 8 37 38
f 8 38 39
f 8 39 30
f 9 29 10
f 11 28 27
f 11 27 26
f 11 26 25
f 11 25 24
f 11 24 23
f 11 23 22
f 11 22 21
f 11 21 20
f 11 20 19
f 11 19 42
f 11 42 48
f 11 48 47
f 11 47 46
f 11 46 45
f 11 45 44
f 11 44 43
f 11 43 30
f 11 30 39
f 11 39 38
f 11 38 37
f 11 37 36
f 11 36 35
f 11 35 34
f 11 34 33
f 11 33 32
f 11 32 49
f 11 49 41
f 11 41 40
f 11 40 17
f 11 17 16
f 11 16 15
f 11 15 14
f 11 14 13
f 11 13 12
f 17 40 18
f 18 40 41
f 18 41 31
f 29 30 43
f 29 43 44
f 29 44 45
f 29 45 46
f 29 46 47
f 29 47 48
f 29 48 42
f 31 41 49
f 31 49 32

