# https://github.com/mikedh/trimesh
v 0.05211765 0.00938089 -0.01012491
v 0.06033713 0.00880663 -0.01012491
v 0.05211765 0.00938089 -0.01018217
v 0.03625048 0.00938089 -0.00998125
v 0.03625048 0.00739740 -0.00891604
v 0.06033713 0.00123907 -0.01006269
v 0.06033713 0.00880663 -0.01018217
v 0.03682604 0.00720363 -0.00891604
v 0.03882354 0.00648140 -0.00891604
v 0.04035834 0.00535754 -0.00891604
v 0.04147935 0.00381796 -0.00891604
v 0.04220161 0.00182390 -0.00891604
v 0.04238970 0.00124612 -0.00891604
v 0.04533141 0.00938089 -0.01018230
v 0.03567870 0.00938089 -0.00998076
v 0.03374890 0.00740445 -0.00891604
v 0.06033713 -0.00071271 -0.01006244
v 0.04239346 -0.00033927 -0.00891604
v 0.06033713 -0.02660025 -0.01018217
v 0.04533141 -0.02660730 -0.01018230
v 0.02190684 0.00938089 -0.01018230
v 0.03374890 0.00938089 -0.00997989
v 0.02190684 0.00938089 -0.01012491
v 0.03122475 0.00645674 -0.00891604
v 0.06033713 -0.00125879 -0.01006244
v 0.04239346 -0.00125174 -0.00891604
v 0.06033713 -0.02624442 -0.01012491
v 0.05338913 -0.02660377 -0.01018217
v 0.04588815 -0.02660730 -0.01018217
v 0.03089372 -0.02661082 -0.01018230
v 0.02190684 -0.02660730 -0.01018230
v 0.02190684 -0.02624794 -0.01012491
v 0.02763602 0.00124612 -0.00891604
v 0.02855013 0.00377568 -0.00891604
v 0.02859527 0.00386728 -0.00891604
v 0.02871189 0.00401173 -0.00891604
v 0.03098776 0.00629115 -0.00891604
v 0.03113071 0.00640742 -0.00891604
v 0.04145678 -0.00377779 -0.00891604
v 0.04140788 -0.00387291 -0.00891604
v 0.04128374 -0.00402440 -0.00891604
v 0.03901915 -0.00629326 -0.00891604
v 0.03887244 -0.00641304 -0.00891604
v 0.03877087 -0.00645884 -0.00891604
v 0.03625048 -0.00740303 -0.00891604
v 0.03374890 -0.00740655 -0.00891604
v 0.04533141 -0.02624794 -0.01012491
v 0.02190684 -0.02651570 -0.01016705
v 0.02875327 -0.02661082 -0.01018230
v 0.03317335 -0.00721631 -0.00891604
v 0.03117585 -0.00649055 -0.00891604
v 0.02964105 -0.00536669 -0.00891604
v 0.02851628 -0.00382711 -0.00891604
v 0.02781282 -0.00181543 -0.00891604
v 0.02763602 -0.00125174 -0.00891604
f 1 2 7
f 1 7 3
f 1 3 14
f 1 14 21
f 1 21 23
f 1 23 22
f 1 22 15
f 1 15 4
f 1 4 5
f 1 5 2
f 2 6 17
f 2 17 25
f 2 25 27
f 2 27 19
f 2 19 7
f 2 5 8
f 2 8 9
f 2 9 10
f 2 10 11
f 2 11 12
f 2 12 13
f 2 13 6
f 3 7 14
f 4 15 16
f 4 16 5
f 5 16 24
f 5 24 38
f 5 38 37
f 5 37 36
f 5 36 35
f 5 35 34
f 5 34 33
f 5 33 55
f 5 55 54
f 5 54 53
f 5 53 52
f 5 52 51
f 5 51 50
f 5 50 46
f 5 46 45
f 5 45 44
f 5 44 43
f 5 43 42
f 5 42 41
f 5 41 40
f 5 40 39
f 5 39 26
f 5 26 18
f 5 18 13
f 5 13 12
f 5 12 11
f 5 11 10
f 5 10 9
f 5 9 8
f 6 13 18
f 6 18 17
f 7 19 20
f 7 20 14
f 14 20 30
f 14 30 49
f 14 49 31
f 14 31 21
f 15 22 16
f 16 22 23
f 16 23 24
f 17 18 26
f 17 26 25
f 19 27 28
f 19 28 20
f 20 28 29
f 20 29 30
f 21 31 48
f 21 48 32
f 21 32 23
f 23 32 55
f 23 55 33
f 23 33 34
f 23 34 35
f 23 35 36
f 23 36 37
f 23 37 38
f 23 38 24
f 25 26 27
f 26 39 27
f 27 29 28
f 27 39 40
f 27 40 41
f 27 41 42
f 27 42 43
f 27 43 44
f 27 44 45
f 27 45 46
f 27 46 47
f 27 47 29
f 29 47 30
f 30 47 48
f 30 48 49
f 31 49 48
f 32 46 50
f 32 50 51
f 32 51 52
f 32 52 53
f 32 53 54
f 32 54 55
f 32 48 47
f 32 47 46

