# https://github.com/mikedh/trimesh
v -0.12161034 -0.02374854 -0.01018229
v -0.12160217 -0.02624902 -0.01018229
v -0.12124994 -0.02624902 -0.01012500
v -0.12161034 0.00838784 -0.01018229
v -0.12124994 -0.02659284 -0.01018229
v -0.11874929 -0.02660325 -0.01018229
v -0.11125086 -0.02660846 -0.01018229
v -0.10969612 -0.02624902 -0.01012500
v -0.10969612 -0.01129302 -0.01006365
v -0.10969612 0.01120088 -0.01006363
v -0.12124994 0.02624544 -0.01012500
v -0.12160917 0.02588600 -0.01018229
v -0.10969612 -0.02660846 -0.01018229
v -0.10969612 0.01124777 -0.01006363
v -0.10969612 0.02624544 -0.01012500
v -0.12088954 0.02661010 -0.01018229
v -0.12124994 0.02659447 -0.01018229
v -0.12159868 0.02624544 -0.01018229
v -0.10969612 0.02660489 -0.01018229
v -0.10969612 0.02646944 -0.01016061
v -0.11874929 0.02661010 -0.01018229
f 1 2 3
f 1 3 11
f 1 11 4
f 1 4 12
f 1 12 18
f 1 18 17
f 1 17 16
f 1 16 21
f 1 21 19
f 1 19 13
f 1 13 7
f 1 7 6
f 1 6 5
f 1 5 2
f 2 5 3
f 3 5 6
f 3 6 7
f 3 7 13
f 3 13 8
f 3 8 9
f 3 9 10
f 3 10 14
f 3 14 11
f 4 11 12
f 8 13 19
f 8 19 20
f 8 20 15
f 8 15 14
f 8 14 10
f 8 10 9
f 11 14 15
f 11 15 21
f 11 21 16
f 11 16 17
f 11 17 18
f 11 18 12
f 15 20 21
f 19 21 20

