# https://github.com/mikedh/trimesh
v 0.07680522 -0.00776518 -0.00891578
v 0.07629170 -0.00776518 -0.00866611
v 0.07624673 -0.00889440 -0.00624803
v 0.07624964 -0.00889440 -0.00625012
v 0.07814123 -0.00958367 -0.00624803
v 0.07882157 -0.00852898 -0.00891578
v 0.07000764 -0.00776518 -0.00891578
v 0.07375313 -0.00776518 -0.00845509
v 0.07374877 -0.00888293 -0.00624803
v 0.07939021 -0.01059968 -0.00624803
v 0.08034617 -0.00965103 -0.00891578
v 0.06863682 -0.01092211 -0.00891578
v 0.06957101 -0.01184354 -0.00624803
v 0.07059225 -0.01059395 -0.00624803
v 0.07184267 -0.00957078 -0.00624803
v 0.07124502 -0.00776518 -0.00845562
v 0.07224594 -0.00776518 -0.00845509
v 0.08042885 -0.01185070 -0.00624803
v 0.08147474 -0.01117575 -0.00891578
v 0.06758948 -0.01375088 -0.00891578
v 0.06887907 -0.01375088 -0.00624803
v 0.08111934 -0.01375375 -0.00624803
v 0.08111934 -0.01375088 -0.00625012
v 0.08221455 -0.01316908 -0.00891578
v 0.06758948 -0.01624862 -0.00891578
v 0.06887907 -0.01624862 -0.00624803
v 0.08110919 -0.01625149 -0.00624803
v 0.08111063 -0.01624862 -0.00625012
v 0.08240458 -0.01624862 -0.00891578
v 0.08240893 -0.01375088 -0.00891578
v 0.06778531 -0.01683186 -0.00891578
v 0.06957101 -0.01815883 -0.00624803
v 0.08042014 -0.01813304 -0.00624803
v 0.08143847 -0.01877646 -0.00891578
v 0.06851061 -0.01882662 -0.00891578
v 0.06963919 -0.02036138 -0.00891578
v 0.07058934 -0.01940985 -0.00624803
v 0.08129776 -0.01897995 -0.00891578
v 0.08139641 -0.01885958 -0.00891578
v 0.07937860 -0.01938406 -0.00624803
v 0.07117249 -0.02148916 -0.00891578
v 0.07184123 -0.02043016 -0.00624803
v 0.07897388 -0.02129713 -0.00891578
v 0.07812963 -0.02041583 -0.00624803
v 0.07885639 -0.02139458 -0.00891578
v 0.07316998 -0.02221140 -0.00891578
v 0.07375023 -0.02111514 -0.00624803
v 0.07624964 -0.02110224 -0.00624803
v 0.07624964 -0.02239482 -0.00891578
v 0.07877515 -0.02143470 -0.00891578
v 0.07375023 -0.02240485 -0.00891578
f 1 2 3
f 1 3 4
f 1 4 5
f 1 5 6
f 1 6 11
f 1 11 19
f 1 19 24
f 1 24 30
f 1 30 29
f 1 29 34
f 1 34 39
f 1 39 38
f 1 38 43
f 1 43 45
f 1 45 50
f 1 50 49
f 1 49 51
f 1 51 46
f 1 46 41
f 1 41 36
f 1 36 35
f 1 35 31
f 1 31 25
f 1 25 20
f 1 20 12
f 1 12 7
f 1 7 16
f 1 16 17
f 1 17 8
f 1 8 2
f 2 8 3
f 3 5 4
f 3 8 9
f 3 9 15
f 3 15 14
f 3 14 13
f 3 13 21
f 3 21 26
f 3 26 32
f 3 32 37
f 3 37 42
f 3 42 47
f 3 47 48
f 3 48 44
f 3 44 40
f 3 40 33
f 3 33 27
f 3 27 22
f 3 22 18
f 3 18 10
f 3 10 5
f 5 10 11
f 5 11 6
f 7 12 13
f 7 13 14
f 7 14 15
f 7 15 9
f 7 9 16
f 8 17 9
f 9 17 16
f 10 18 11
f 11 18 19
f 12 20 13
f 13 20 21
f 18 22 23
f 18 23 24
f 18 24 19
f 20 25 26
f 20 26 21
f 22 27 28
f 22 28 29
f 22 29 30
f 22 30 24
f 22 24 23
f 25 31 26
f 26 31 32
f 27 33 29
f 27 29 28
f 29 33 34
f 31 35 32
f 32 35 36
f 32 36 37
f 33 38 39
f 33 39 34
f 33 40 38
f 36 41 42
f 36 42 37
f 38 40 43
f 40 44 45
f 40 45 43
f 41 46 42
f 42 46 47
f 44 48 49
f 44 49 50
f 44 50 45
f 46 51 47
f 47 51 49
f 47 49 48

