# https://github.com/mikedh/trimesh
v -0.09875087 0.01740484 -0.00891604
v -0.09875087 0.01610730 -0.00426111
v -0.09816930 0.01721347 -0.00891604
v -0.10033312 0.01740194 -0.00891604
v -0.10073774 0.01610585 -0.00426111
v -0.09684376 0.01542301 -0.00426111
v -0.09617373 0.01648134 -0.00891604
v -0.10124969 0.01739759 -0.00891604
v -0.10124969 0.01610440 -0.00426111
v -0.09585032 0.01461404 -0.00426111
v -0.09464659 0.01535342 -0.00891604
v -0.10276668 0.01556073 -0.00426111
v -0.10377461 0.01645379 -0.00891604
v -0.10315680 0.01542011 -0.00426111
v -0.09559507 0.01440527 -0.00426111
v -0.09538478 0.01415011 -0.00426111
v -0.09457698 0.01315557 -0.00426111
v -0.09351972 0.01382536 -0.00891604
v -0.10386743 0.01640885 -0.00891604
v -0.10401101 0.01629287 -0.00891604
v -0.10440694 0.01440527 -0.00426111
v -0.09388954 0.01124913 -0.00426111
v -0.09278589 0.01183193 -0.00891604
v -0.10629085 0.01401818 -0.00891604
v -0.10640977 0.01387176 -0.00891604
v -0.10542068 0.01315557 -0.00426111
v -0.09389245 0.00926150 -0.00426111
v -0.09259155 0.01124913 -0.00891604
v -0.10645763 0.01377607 -0.00891604
v -0.10740611 0.01124913 -0.00891604
v -0.10556135 0.01276558 -0.00426111
v -0.09389389 0.00875118 -0.00426111
v -0.09259590 0.00967178 -0.00891604
v -0.10740466 0.00875118 -0.00891604
v -0.10610666 0.01073881 -0.00426111
v -0.10610666 0.01124913 -0.00426111
v -0.09444065 0.00723182 -0.00426111
v -0.09260025 0.00875118 -0.00891604
v -0.10721177 0.00817127 -0.00891604
v -0.10610521 0.00875118 -0.00426111
v -0.09458132 0.00684183 -0.00426111
v -0.09354293 0.00622713 -0.00891604
v -0.10648663 0.00617494 -0.00891604
v -0.10542068 0.00684328 -0.00426111
v -0.09370826 0.00598357 -0.00891604
v -0.09359079 0.00613145 -0.00891604
v -0.09559797 0.00559214 -0.00426111
v -0.10535977 0.00463964 -0.00891604
v -0.10461143 0.00584874 -0.00426111
v -0.09597214 0.00371179 -0.00891604
v -0.09684811 0.00458310 -0.00426111
v -0.10382248 0.00351607 -0.00891604
v -0.10315245 0.00458455 -0.00426111
v -0.10414734 0.00538627 -0.00426111
v -0.10440259 0.00559359 -0.00426111
v -0.09612587 0.00358856 -0.00891604
v -0.09723677 0.00444247 -0.00426111
v -0.09875087 0.00259547 -0.00891604
v -0.09622594 0.00353927 -0.00891604
v -0.10182690 0.00279264 -0.00891604
v -0.10124969 0.00389881 -0.00426111
v -0.09875087 0.00389736 -0.00426111
v -0.09926136 0.00389736 -0.00426111
v -0.10124969 0.00259982 -0.00891604
f 1 2 3
f 1 3 7
f 1 7 11
f 1 11 18
f 1 18 23
f 1 23 28
f 1 28 33
f 1 33 38
f 1 38 42
f 1 42 46
f 1 46 45
f 1 45 50
f 1 50 56
f 1 56 59
f 1 59 58
f 1 58 64
f 1 64 60
f 1 60 52
f 1 52 48
f 1 48 43
f 1 43 39
f 1 39 34
f 1 34 30
f 1 30 29
f 1 29 25
f 1 25 24
f 1 24 20
f 1 20 19
f 1 19 13
f 1 13 8
f 1 8 4
f 1 4 5
f 1 5 2
f 2 6 3
f 2 5 9
f 2 9 12
f 2 12 14
f 2 14 21
f 2 21 26
f 2 26 31
f 2 31 36
f 2 36 35
f 2 35 40
f 2 40 44
f 2 44 49
f 2 49 55
f 2 55 54
f 2 54 53
f 2 53 61
f 2 61 63
f 2 63 62
f 2 62 57
f 2 57 51
f 2 51 47
f 2 47 41
f 2 41 37
f 2 37 32
f 2 32 27
f 2 27 22
f 2 22 17
f 2 17 16
f 2 16 15
f 2 15 10
f 2 10 6
f 3 6 7
f 4 8 9
f 4 9 5
f 6 10 11
f 6 11 7
f 8 12 9
f 8 13 14
f 8 14 12
f 10 15 11
f 11 16 17
f 11 17 18
f 11 15 16
f 13 19 14
f 14 19 20
f 14 20 21
f 17 22 23
f 17 23 18
f 20 24 21
f 21 24 25
f 21 25 26
f 22 27 28
f 22 28 23
f 25 29 26
f 26 29 30
f 26 30 31
f 27 32 33
f 27 33 28
f 30 34 35
f 30 35 36
f 30 36 31
f 32 37 38
f 32 38 33
f 34 39 40
f 34 40 35
f 37 41 38
f 38 41 42
f 39 43 44
f 39 44 40
f 41 45 46
f 41 46 42
f 41 47 45
f 43 48 44
f 44 48 49
f 45 47 50
f 47 51 50
f 48 52 53
f 48 53 54
f 48 54 55
f 48 55 49
f 50 51 56
f 51 57 58
f 51 58 59
f 51 59 56
f 52 60 53
f 53 60 61
f 57 62 58
f 58 62 63
f 58 63 61
f 58 61 64
f 60 64 61

