# https://github.com/mikedh/trimesh
v -0.00124930 0.01738987 -0.00891604
v -0.00377605 0.01644632 -0.00891604
v -0.00314581 0.01541883 -0.00426111
v -0.00275753 0.01555776 -0.00426111
v -0.00124930 0.01609610 -0.00426111
v -0.00073786 0.01609755 -0.00426111
v 0.00124993 0.01609900 -0.00426111
v 0.00124993 0.01738553 -0.00891604
v -0.00386443 0.01640290 -0.00891604
v -0.00399627 0.01629581 -0.00891604
v -0.00439470 0.01439568 -0.00426111
v 0.00315514 0.01542028 -0.00426111
v 0.00181642 0.01719884 -0.00891604
v -0.00629556 0.01400061 -0.00891604
v -0.00542047 0.01314678 -0.00426111
v 0.00415049 0.01460408 -0.00426111
v 0.00535301 0.01534937 -0.00891604
v 0.00382160 0.01647526 -0.00891604
v -0.00640423 0.01386747 -0.00891604
v -0.00644914 0.01377774 -0.00891604
v -0.00740826 0.01124955 -0.00891604
v -0.00556101 0.01275894 -0.00426111
v 0.00440548 0.01439279 -0.00426111
v 0.00461266 0.01413664 -0.00426111
v 0.00541097 0.01314244 -0.00426111
v 0.00647441 0.01381971 -0.00891604
v -0.00740681 0.00875029 -0.00891604
v -0.00610866 0.00875029 -0.00426111
v -0.00610722 0.01124955 -0.00426111
v 0.00608902 0.01124955 -0.00426111
v 0.00720027 0.01182407 -0.00891604
v -0.00721267 0.00816998 -0.00891604
v -0.00542192 0.00684872 -0.00426111
v 0.00609626 0.00926114 -0.00426111
v 0.00738862 0.01124955 -0.00891604
v -0.00647377 0.00617723 -0.00891604
v -0.00534803 0.00465192 -0.00891604
v -0.00460768 0.00585451 -0.00426111
v 0.00609771 0.00875029 -0.00426111
v 0.00739296 0.00965911 -0.00891604
v -0.00382386 0.00352458 -0.00891604
v -0.00314726 0.00458101 -0.00426111
v -0.00414116 0.00538853 -0.00426111
v -0.00439760 0.00559837 -0.00426111
v 0.00555875 0.00723366 -0.00426111
v 0.00739151 0.00875029 -0.00891604
v -0.00182593 0.00279376 -0.00891604
v -0.00124930 0.00390229 -0.00426111
v 0.00541966 0.00684438 -0.00426111
v 0.00646137 0.00622499 -0.00891604
v -0.00124930 0.00260563 -0.00891604
v 0.00124993 0.00390229 -0.00426111
v 0.00628896 0.00597173 -0.00891604
v 0.00641211 0.00612513 -0.00891604
v 0.00440693 0.00559402 -0.00426111
v 0.00034297 0.00260852 -0.00891604
v 0.00124993 0.00261142 -0.00891604
v 0.00315804 0.00458101 -0.00426111
v 0.00402299 0.00370982 -0.00891604
v 0.00377379 0.00354050 -0.00891604
v 0.00387231 0.00358970 -0.00891604
f 1 2 3
f 1 3 4
f 1 4 5
f 1 5 6
f 1 6 7
f 1 7 8
f 1 8 13
f 1 13 18
f 1 18 17
f 1 17 26
f 1 26 31
f 1 31 35
f 1 35 40
f 1 40 46
f 1 46 50
f 1 50 54
f 1 54 53
f 1 53 59
f 1 59 61
f 1 61 60
f 1 60 57
f 1 57 56
f 1 56 51
f 1 51 47
f 1 47 41
f 1 41 37
f 1 37 36
f 1 36 32
f 1 32 27
f 1 27 21
f 1 21 20
f 1 20 19
f 1 19 14
f 1 14 10
f 1 10 9
f 1 9 2
f 2 9 3
f 3 9 10
f 3 10 11
f 3 11 15
f 3 15 22
f 3 22 29
f 3 29 28
f 3 28 33
f 3 33 38
f 3 38 44
f 3 44 43
f 3 43 42
f 3 42 48
f 3 48 52
f 3 52 58
f 3 58 55
f 3 55 49
f 3 49 45
f 3 45 39
f 3 39 34
f 3 34 30
f 3 30 25
f 3 25 24
f 3 24 23
f 3 23 16
f 3 16 12
f 3 12 7
f 3 7 6
f 3 6 5
f 3 5 4
f 7 12 13
f 7 13 8
f 10 14 11
f 11 14 15
f 12 16 17
f 12 17 18
f 12 18 13
f 14 19 15
f 15 19 20
f 15 20 21
f 15 21 22
f 16 23 17
f 17 24 25
f 17 25 26
f 17 23 24
f 21 27 28
f 21 28 29
f 21 29 22
f 25 30 31
f 25 31 26
f 27 32 28
f 28 32 33
f 30 34 35
f 30 35 31
f 32 36 33
f 33 37 38
f 33 36 37
f 34 39 35
f 35 39 40
f 37 41 42
f 37 42 43
f 37 43 44
f 37 44 38
f 39 45 46
f 39 46 40
f 41 47 42
f 42 47 48
f 45 49 46
f 46 49 50
f 47 51 48
f 48 51 52
f 49 53 54
f 49 54 50
f 49 55 53
f 51 56 52
f 52 56 57
f 52 57 58
f 53 55 59
f 55 58 59
f 57 60 58
f 58 60 61
f 58 61 59

