# https://github.com/mikedh/trimesh
v -0.02388831 -0.00875079 -0.00426111
v -0.02389190 -0.01124984 -0.00426111
v -0.02457714 -0.00685528 -0.00426111
v -0.02457833 -0.00684692 0.00625000
v -0.02457953 -0.00684094 0.01624844
v -0.02389190 -0.00875079 0.01624844
v -0.02389190 -0.01124984 0.01624844
v -0.02443841 -0.01276649 -0.00426111
v -0.02457833 -0.01315730 0.00874961
v -0.02539512 -0.00586092 -0.00426111
v -0.02560439 -0.00560038 0.00125079
v -0.02560081 -0.00559082 0.01624844
v -0.02471945 -0.00706085 0.01797076
v -0.02444679 -0.00875079 0.01835586
v -0.02444559 -0.01124984 0.01835823
v -0.02471945 -0.01293739 0.01797076
v -0.02457833 -0.01315610 0.01624844
v -0.02457833 -0.01315730 0.01124922
v -0.02458072 -0.01315610 -0.00426111
v -0.02559244 -0.01440623 -0.00426111
v -0.02458072 -0.01315730 -0.00124882
v -0.02560678 -0.00560516 -0.00426111
v -0.02586270 -0.00539362 -0.00426111
v -0.02685648 -0.00457853 -0.00426111
v -0.02685050 -0.00459048 0.01624844
v -0.02706576 -0.00472553 0.01796368
v -0.02685408 -0.00458211 0.00125079
v -0.02623940 -0.00623620 0.01853542
v -0.02625017 -0.00875079 0.01954424
v -0.02625017 -0.01124984 0.01954424
v -0.02623940 -0.01376204 0.01853778
v -0.02706576 -0.01527630 0.01796604
v -0.02560081 -0.01440623 0.01624844
v -0.02559363 -0.01440743 -0.00124882
v -0.02559244 -0.01440623 -0.00374843
v -0.02478761 -0.01341187 -0.00426111
v -0.02684213 -0.01542091 -0.00426111
v -0.02875075 -0.00389371 -0.00426111
v -0.02875075 -0.00390685 0.01624844
v -0.02875075 -0.00445304 0.01835350
v -0.02875075 -0.00625054 0.01953952
v -0.02875075 -0.00875079 0.01987500
v -0.02875075 -0.01374890 0.01953952
v -0.02875075 -0.01124984 0.01987500
v -0.02875075 -0.01554879 0.01835114
v -0.02875075 -0.01609617 0.01624844
v -0.02685050 -0.01541254 0.01624844
v -0.02559961 -0.01440743 0.01124922
v -0.02723198 -0.01556074 -0.00426111
v -0.03073829 -0.00389849 -0.00426111
v -0.03124893 -0.00389849 0.01374883
v -0.03124893 -0.00389849 0.01624844
v -0.03124893 -0.00444945 0.01835823
v -0.03124893 -0.00625054 0.01954660
v -0.03124893 -0.00875079 0.01987500
v -0.03124893 -0.01374890 0.01954188
v -0.03124893 -0.01555118 0.01835586
v -0.03124893 -0.01124984 0.01987500
v -0.03124893 -0.01610214 0.01624844
v -0.03124893 -0.01610334 0.01124922
v -0.02875075 -0.01609975 -0.00426111
v -0.03124893 -0.00390088 -0.00426111
v -0.03315995 -0.00458211 0.01624844
v -0.03293990 -0.00472194 0.01797076
v -0.03376386 -0.00623739 0.01854014
v -0.03374951 -0.00875079 0.01954424
v -0.03374951 -0.01124984 0.01954897
v -0.03376147 -0.01376324 0.01854251
v -0.03293751 -0.01527869 0.01797076
v -0.03315636 -0.01541852 0.01624844
v -0.03315636 -0.01541972 0.01374883
v -0.03315755 -0.01542330 -0.00426111
v -0.03163999 -0.01596231 -0.00426111
v -0.03124893 -0.01610095 -0.00426111
v -0.03276411 -0.00444348 -0.00426111
v -0.03315875 -0.00458211 0.01374883
v -0.03315636 -0.00458331 0.00375039
v -0.03440366 -0.00558962 -0.00124882
v -0.03440724 -0.00559082 0.00625000
v -0.03440963 -0.00559201 0.01374883
v -0.03440963 -0.00559321 0.01624844
v -0.03527904 -0.00706204 0.01796840
v -0.03554931 -0.00875079 0.01835823
v -0.03555050 -0.01124984 0.01836059
v -0.03528023 -0.01293978 0.01797312
v -0.03440605 -0.01440982 0.01624844
v -0.03315755 -0.01541972 0.01124922
v -0.03315755 -0.01542091 0.00625000
v -0.03415133 -0.01461419 -0.00426111
v -0.03440724 -0.01440982 0.01374883
v -0.03440724 -0.01440982 0.00874961
v -0.03315277 -0.00458450 -0.00426111
v -0.03440366 -0.00559082 -0.00426111
v -0.03542254 -0.00684094 -0.00426111
v -0.03541895 -0.00684214 0.01374883
v -0.03542135 -0.00683975 -0.00124882
v -0.03541895 -0.00684333 0.01624844
v -0.03610060 -0.00875079 0.01624844
v -0.03610180 -0.01124984 0.01624844
v -0.03542135 -0.01315969 0.01624844
v -0.03440724 -0.01440384 -0.00426111
v -0.03541895 -0.01315969 0.00874961
v -0.03556246 -0.00723056 -0.00426111
v -0.03542135 -0.00684094 0.00125079
v -0.03610419 -0.00875079 -0.00426111
v -0.03610180 -0.01124984 0.01374883
v -0.03610060 -0.01124984 0.00874961
v -0.03609702 -0.01124984 -0.00426111
v -0.03461413 -0.01414808 -0.00426111
v -0.03541417 -0.01315372 -0.00426111
v -0.03541656 -0.01315850 0.00375039
v -0.03610300 -0.00926112 -0.00426111
f 1 2 8
f 1 8 19
f 1 19 36
f 1 36 20
f 1 20 37
f 1 37 49
f 1 49 61
f 1 61 74
f 1 74 73
f 1 73 72
f 1 72 89
f 1 89 101
f 1 101 109
f 1 109 110
f 1 110 108
f 1 108 112
f 1 112 105
f 1 105 103
f 1 103 94
f 1 94 93
f 1 93 92
f 1 92 75
f 1 75 62
f 1 62 50
f 1 50 38
f 1 38 24
f 1 24 23
f 1 23 22
f 1 22 10
f 1 10 3
f 1 3 4
f 1 4 5
f 1 5 6
f 1 6 7
f 1 7 2
f 2 7 18
f 2 18 9
f 2 9 8
f 3 10 11
f 3 11 12
f 3 12 4
f 4 12 5
f 5 12 13
f 5 13 6
f 6 13 14
f 6 14 15
f 6 15 7
f 7 15 16
f 7 16 17
f 7 17 18
f 8 9 19
f 9 18 35
f 9 35 20
f 9 20 21
f 9 21 19
f 10 22 11
f 11 22 23
f 11 23 24
f 11 24 12
f 12 25 26
f 12 26 13
f 12 24 27
f 12 27 25
f 13 28 29
f 13 29 14
f 13 26 28
f 14 29 15
f 15 29 30
f 15 30 16
f 16 30 31
f 16 31 32
f 16 32 33
f 16 33 17
f 17 33 34
f 17 34 18
f 18 34 35
f 19 21 36
f 20 35 34
f 20 34 37
f 20 36 21
f 24 38 25
f 24 25 27
f 25 39 26
f 25 38 39
f 26 39 40
f 26 40 41
f 26 41 28
f 28 41 29
f 29 41 42
f 29 42 44
f 29 44 30
f 30 43 31
f 30 44 43
f 31 43 32
f 32 43 45
f 32 45 46
f 32 46 47
f 32 47 33
f 33 48 34
f 33 47 37
f 33 37 48
f 34 48 37
f 37 47 46
f 37 46 49
f 38 50 51
f 38 51 52
f 38 52 39
f 39 52 40
f 40 53 41
f 40 52 53
f 41 54 42
f 41 53 54
f 42 54 55
f 42 55 58
f 42 58 44
f 43 44 56
f 43 56 57
f 43 57 45
f 44 58 56
f 45 57 59
f 45 59 46
f 46 59 60
f 46 60 61
f 46 61 49
f 50 62 51
f 51 63 52
f 51 62 63
f 52 63 64
f 52 64 53
f 53 64 54
f 54 64 65
f 54 65 66
f 54 66 55
f 55 66 67
f 55 67 58
f 56 68 69
f 56 69 57
f 56 58 67
f 56 67 68
f 57 69 59
f 59 69 70
f 59 70 71
f 59 71 60
f 60 71 72
f 60 72 73
f 60 73 74
f 60 74 61
f 62 75 63
f 63 76 77
f 63 77 78
f 63 78 79
f 63 79 80
f 63 80 81
f 63 81 64
f 63 75 76
f 64 82 65
f 64 81 82
f 65 82 66
f 66 82 83
f 66 83 67
f 67 83 84
f 67 84 85
f 67 85 68
f 68 85 69
f 69 85 86
f 69 86 70
f 70 86 71
f 71 87 88
f 71 88 72
f 71 86 90
f 71 90 87
f 72 88 90
f 72 90 91
f 72 91 89
f 75 92 77
f 75 77 76
f 77 92 93
f 77 93 78
f 78 93 79
f 79 93 94
f 79 94 80
f 80 95 97
f 80 97 81
f 80 94 96
f 80 96 95
f 81 97 82
f 82 97 98
f 82 98 83
f 83 98 84
f 84 98 99
f 84 99 85
f 85 99 100
f 85 100 86
f 86 100 90
f 87 90 88
f 89 91 101
f 90 100 91
f 91 100 102
f 91 102 101
f 94 103 97
f 94 97 104
f 94 104 96
f 95 96 104
f 95 104 97
f 97 103 98
f 98 103 105
f 98 105 99
f 99 105 106
f 99 106 100
f 100 106 107
f 100 107 108
f 100 108 102
f 101 102 109
f 102 108 110
f 102 110 111
f 102 111 109
f 105 112 106
f 106 112 107
f 107 112 108
f 109 111 110

