# https://github.com/mikedh/trimesh
v 0.09111214 0.01624999 -0.00426111
v 0.09110855 0.01375082 -0.00426111
v 0.09042297 0.01815605 -0.00426111
v 0.09041818 0.01815605 0.01624844
v 0.09110615 0.01624999 0.01624844
v 0.09110855 0.01375082 0.01624844
v 0.09056176 0.01223099 -0.00426111
v 0.09042177 0.01183998 0.01624844
v 0.08961535 0.01914974 -0.00426111
v 0.08940835 0.01940683 0.00125079
v 0.08940955 0.01940683 0.00625000
v 0.08940955 0.01940683 0.00874961
v 0.09042177 0.01815725 -0.00124882
v 0.08940955 0.01940563 0.01624844
v 0.09027939 0.01793842 0.01797076
v 0.09041937 0.01815725 0.00874961
v 0.09055338 0.01624999 0.01835586
v 0.09055458 0.01375082 0.01835586
v 0.09028058 0.01206000 0.01796840
v 0.09041937 0.01183998 -0.00426111
v 0.08941074 0.01059039 0.01624844
v 0.08940596 0.01940563 -0.00426111
v 0.08940716 0.01940683 -0.00124882
v 0.08914991 0.01961489 -0.00426111
v 0.08815923 0.02041845 0.00375039
v 0.08816043 0.02041845 0.01124922
v 0.08816043 0.02041845 0.01624844
v 0.08794028 0.02027974 0.01797312
v 0.08876345 0.01876231 0.01854251
v 0.08874910 0.01624999 0.01954424
v 0.08874910 0.01375082 0.01954188
v 0.08876345 0.01123611 0.01853542
v 0.08794028 0.00971868 0.01796604
v 0.08940237 0.01059039 -0.00426111
v 0.08940955 0.01059039 0.01124922
v 0.08816043 0.00957757 0.01624844
v 0.08816043 0.00957757 0.01374883
v 0.08815564 0.02041965 -0.00426111
v 0.08624966 0.02110602 -0.00426111
v 0.08624966 0.02110124 0.01624844
v 0.08624966 0.02110363 0.00625000
v 0.08624966 0.02055118 0.01836059
v 0.08624966 0.01874915 0.01954660
v 0.08624966 0.01624999 0.01987500
v 0.08624966 0.01375082 0.01987500
v 0.08624966 0.01125046 0.01954188
v 0.08624966 0.00944843 0.01835350
v 0.08624966 0.00889479 0.01624844
v 0.08815325 0.00958355 -0.00426111
v 0.08624966 0.00889479 0.00874961
v 0.08624966 0.00889598 0.00375039
v 0.08624966 0.00889838 -0.00426111
v 0.08375022 0.02110363 -0.00426111
v 0.08375022 0.02110243 0.00125079
v 0.08375022 0.02109765 0.01124922
v 0.08375022 0.02109406 0.01624844
v 0.08375022 0.02054640 0.01835350
v 0.08375022 0.01874915 0.01953952
v 0.08375022 0.01624999 0.01987500
v 0.08375022 0.01375082 0.01987500
v 0.08375022 0.01125046 0.01954424
v 0.08375022 0.00944843 0.01835823
v 0.08375022 0.00889718 0.01624844
v 0.08375022 0.00889359 0.00625000
v 0.08375022 0.00889000 -0.00426111
v 0.08223309 0.02055836 -0.00426111
v 0.08184423 0.02041606 0.00375039
v 0.08184662 0.02041486 0.00874961
v 0.08184902 0.02041247 0.01624844
v 0.08206678 0.02027376 0.01796368
v 0.08125078 0.01624999 0.01954660
v 0.08124001 0.01876111 0.01853542
v 0.08125078 0.01375082 0.01954660
v 0.08123642 0.01123611 0.01854014
v 0.08205960 0.00971987 0.01797076
v 0.08183945 0.00957997 0.01624844
v 0.08183945 0.00957638 -0.00426111
v 0.08184423 0.02041726 -0.00426111
v 0.08059391 0.01941041 -0.00124882
v 0.08059391 0.01940922 0.00125079
v 0.08184662 0.02041367 0.01124922
v 0.08059870 0.01940444 0.01624844
v 0.07972288 0.01793603 0.01796840
v 0.07944889 0.01624999 0.01835823
v 0.07944530 0.01375082 0.01836059
v 0.07971929 0.01206000 0.01797076
v 0.08058913 0.01059039 0.01624844
v 0.08084518 0.01038113 -0.00426111
v 0.08059391 0.01941041 -0.00426111
v 0.07957811 0.01815964 -0.00426111
v 0.07958050 0.01815964 0.00125079
v 0.07958648 0.01815366 0.01624844
v 0.07889851 0.01624999 0.01624844
v 0.07889133 0.01375082 0.01624844
v 0.07957811 0.01183998 0.01624844
v 0.08038214 0.01084509 -0.00426111
v 0.08058913 0.01059039 -0.00426111
v 0.07943692 0.01776982 -0.00426111
v 0.07888894 0.01624999 -0.00426111
v 0.07889133 0.01375082 -0.00426111
v 0.07958050 0.01183998 -0.00426111
f 1 2 7
f 1 7 20
f 1 20 34
f 1 34 49
f 1 49 52
f 1 52 65
f 1 65 77
f 1 77 88
f 1 88 97
f 1 97 96
f 1 96 101
f 1 101 100
f 1 100 99
f 1 99 98
f 1 98 90
f 1 90 89
f 1 89 78
f 1 78 66
f 1 66 53
f 1 53 39
f 1 39 38
f 1 38 24
f 1 24 22
f 1 22 9
f 1 9 3
f 1 3 4
f 1 4 5
f 1 5 6
f 1 6 2
f 2 6 8
f 2 8 7
f 3 9 10
f 3 10 11
f 3 11 12
f 3 12 13
f 3 13 4
f 4 14 15
f 4 15 5
f 4 13 16
f 4 16 14
f 5 15 17
f 5 17 6
f 6 17 18
f 6 18 19
f 6 19 8
f 7 8 20
f 8 19 21
f 8 21 20
f 9 22 23
f 9 23 10
f 10 23 24
f 10 24 25
f 10 25 11
f 11 26 27
f 11 27 12
f 11 25 26
f 12 27 14
f 12 14 13
f 13 14 16
f 14 27 28
f 14 28 15
f 15 28 29
f 15 29 30
f 15 30 17
f 17 30 18
f 18 30 31
f 18 31 19
f 19 31 32
f 19 32 33
f 19 33 21
f 20 21 35
f 20 35 34
f 21 33 36
f 21 36 37
f 21 37 35
f 22 24 23
f 24 38 25
f 25 38 26
f 26 38 39
f 26 39 27
f 27 40 28
f 27 39 41
f 27 41 40
f 28 42 43
f 28 43 29
f 28 40 42
f 29 43 30
f 30 43 44
f 30 44 45
f 30 45 31
f 31 45 46
f 31 46 32
f 32 46 33
f 33 46 47
f 33 47 48
f 33 48 36
f 34 35 37
f 34 37 49
f 36 48 50
f 36 50 37
f 37 50 51
f 37 51 52
f 37 52 49
f 39 53 54
f 39 54 41
f 40 55 56
f 40 56 57
f 40 57 42
f 40 41 54
f 40 54 55
f 42 57 58
f 42 58 43
f 43 59 44
f 43 58 59
f 44 59 60
f 44 60 45
f 45 60 61
f 45 61 46
f 46 61 62
f 46 62 47
f 47 62 48
f 48 62 63
f 48 63 64
f 48 64 65
f 48 65 50
f 50 65 51
f 51 65 52
f 53 66 54
f 54 66 67
f 54 67 68
f 54 68 69
f 54 69 55
f 55 69 56
f 56 69 70
f 56 70 57
f 57 70 58
f 58 71 59
f 58 70 72
f 58 72 71
f 59 71 73
f 59 73 60
f 60 73 61
f 61 73 74
f 61 74 75
f 61 75 62
f 62 75 63
f 63 75 76
f 63 76 64
f 64 76 65
f 65 76 77
f 66 78 67
f 67 78 79
f 67 79 80
f 67 80 82
f 67 82 81
f 67 81 69
f 67 69 68
f 69 81 82
f 69 82 70
f 70 82 83
f 70 83 72
f 71 72 83
f 71 83 84
f 71 84 85
f 71 85 73
f 73 85 86
f 73 86 74
f 74 86 75
f 75 86 87
f 75 87 76
f 76 87 77
f 77 87 88
f 78 89 79
f 79 89 90
f 79 90 80
f 80 90 91
f 80 91 82
f 82 92 83
f 82 91 92
f 83 92 93
f 83 93 84
f 84 93 94
f 84 94 85
f 85 94 86
f 86 94 95
f 86 95 87
f 87 95 96
f 87 96 97
f 87 97 88
f 90 98 91
f 91 98 93
f 91 93 92
f 93 98 99
f 93 99 94
f 94 99 100
f 94 100 95
f 95 100 101
f 95 101 96

