# https://github.com/mikedh/trimesh
v 0.06875139 -0.00611783 -0.00624548
v 0.06683842 -0.00542800 -0.00624548
v 0.07124854 -0.00611064 -0.00624548
v 0.07124854 -0.00610585 0.01624652
v 0.06875139 -0.00610346 0.01624652
v 0.06684081 -0.00541961 0.01624652
v 0.06584483 -0.00461361 -0.00425863
v 0.06558985 -0.00440403 -0.00624548
v 0.06558985 -0.00440522 0.01624652
v 0.07315192 -0.00542320 -0.00624548
v 0.07316031 -0.00542081 0.01374826
v 0.07316031 -0.00542081 0.01624652
v 0.07293884 -0.00528189 0.01796998
v 0.07124854 -0.00555135 0.01835354
v 0.06875139 -0.00555015 0.01835354
v 0.06706108 -0.00527949 0.01796998
v 0.06538274 -0.00414893 -0.00426119
v 0.06457710 -0.00315251 -0.00624548
v 0.06472194 -0.00293694 0.01796743
v 0.06458308 -0.00315371 0.01624652
v 0.07440170 -0.00441001 -0.00624548
v 0.07440290 -0.00441001 -0.00426119
v 0.07440888 -0.00440882 0.01124744
v 0.07441008 -0.00440882 0.01624652
v 0.07527918 -0.00293933 0.01797254
v 0.07376245 -0.00376330 0.01854021
v 0.07124854 -0.00374893 0.01954003
v 0.06875139 -0.00374893 0.01954003
v 0.06623747 -0.00376210 0.01853765
v 0.06390073 -0.00124948 -0.00624548
v 0.06389595 -0.00124948 0.01624652
v 0.06625064 -0.00124948 0.01953747
v 0.06444781 -0.00124948 0.01835099
v 0.07542761 -0.00315970 -0.00624548
v 0.07542043 -0.00315850 0.01624652
v 0.07555331 -0.00124948 0.01836122
v 0.07374808 -0.00124948 0.01954770
v 0.07610876 -0.00124948 0.01624652
v 0.07124854 -0.00124948 0.01987245
v 0.06875139 -0.00124948 0.01987245
v 0.06390432 0.00124996 -0.00624548
v 0.06389116 0.00124876 0.01624652
v 0.06625064 0.00124876 0.01954258
v 0.06444661 0.00124876 0.01835354
v 0.07611834 -0.00125188 -0.00624548
v 0.07555331 0.00124876 0.01836122
v 0.07374808 0.00124876 0.01955025
v 0.07610876 0.00124876 0.01624652
v 0.07612073 0.00124636 -0.00624548
v 0.07124854 0.00124876 0.01987245
v 0.06875139 0.00124876 0.01987245
v 0.06458189 0.00314101 -0.00624548
v 0.06471955 0.00293861 0.01797254
v 0.06457949 0.00315777 0.01624652
v 0.06457949 0.00315538 0.01124744
v 0.06875139 0.00374940 0.01954514
v 0.06623628 0.00376377 0.01854021
v 0.07527918 0.00293980 0.01797254
v 0.07376245 0.00376377 0.01854021
v 0.07124854 0.00374940 0.01954258
v 0.07542043 0.00315897 0.01624652
v 0.07542761 0.00315657 -0.00624548
v 0.06561857 0.00439013 -0.00624548
v 0.06559104 0.00440809 0.01624652
v 0.06559344 0.00440689 0.01374826
v 0.06559942 0.00440450 0.00874919
v 0.06560301 0.00440330 0.00625093
v 0.06560899 0.00439851 0.00125185
v 0.06561498 0.00439252 -0.00374722
v 0.06706108 0.00527876 0.01797254
v 0.07124854 0.00554943 0.01835610
v 0.06875139 0.00554943 0.01835610
v 0.07440888 0.00440929 0.01624652
v 0.07293884 0.00527876 0.01796998
v 0.07441008 0.00440809 -0.00624548
v 0.07441008 0.00440929 -0.00426119
v 0.06686834 0.00541410 -0.00624548
v 0.06561618 0.00439252 -0.00426119
v 0.06684201 0.00541769 0.01624652
v 0.06561258 0.00439612 -0.00124640
v 0.06875139 0.00610153 0.01624652
v 0.07124854 0.00610153 0.01624652
v 0.07315911 0.00541889 0.01624652
v 0.07316031 0.00542607 -0.00624548
v 0.06875019 0.00610273 -0.00624548
v 0.07124614 0.00611710 -0.00624548
f 1 2 8
f 1 8 18
f 1 18 30
f 1 30 41
f 1 41 52
f 1 52 63
f 1 63 77
f 1 77 85
f 1 85 86
f 1 86 84
f 1 84 75
f 1 75 62
f 1 62 49
f 1 49 45
f 1 45 34
f 1 34 21
f 1 21 10
f 1 10 3
f 1 3 4
f 1 4 5
f 1 5 6
f 1 6 2
f 2 7 8
f 2 6 9
f 2 9 7
f 3 10 11
f 3 11 12
f 3 12 4
f 4 12 13
f 4 13 14
f 4 14 15
f 4 15 5
f 5 15 16
f 5 16 6
f 6 16 9
f 7 9 8
f 8 17 18
f 8 9 17
f 9 16 19
f 9 19 20
f 9 20 18
f 9 18 17
f 10 21 22
f 10 22 23
f 10 23 11
f 11 23 24
f 11 24 12
f 12 24 13
f 13 25 26
f 13 26 27
f 13 27 14
f 13 24 25
f 14 27 28
f 14 28 15
f 15 28 16
f 16 28 29
f 16 29 19
f 18 20 31
f 18 31 30
f 19 29 32
f 19 32 33
f 19 33 31
f 19 31 20
f 21 34 22
f 22 34 23
f 23 34 24
f 24 35 25
f 24 34 35
f 25 36 37
f 25 37 26
f 25 35 38
f 25 38 36
f 26 37 27
f 27 37 39
f 27 39 40
f 27 40 28
f 28 40 32
f 28 32 29
f 30 31 42
f 30 42 41
f 31 33 42
f 32 40 43
f 32 43 33
f 33 43 44
f 33 44 42
f 34 45 35
f 35 45 38
f 36 46 47
f 36 47 37
f 36 38 48
f 36 48 46
f 37 47 39
f 38 45 49
f 38 49 48
f 39 50 51
f 39 51 40
f 39 47 50
f 40 51 43
f 41 42 52
f 42 44 53
f 42 53 54
f 42 54 55
f 42 55 52
f 43 51 56
f 43 56 57
f 43 57 53
f 43 53 44
f 46 58 47
f 46 48 58
f 47 58 59
f 47 59 60
f 47 60 50
f 48 61 58
f 48 49 61
f 49 62 61
f 50 60 56
f 50 56 51
f 52 55 64
f 52 64 65
f 52 65 66
f 52 66 67
f 52 67 68
f 52 68 69
f 52 69 63
f 53 70 64
f 53 64 54
f 53 57 70
f 54 64 55
f 56 60 71
f 56 71 72
f 56 72 70
f 56 70 57
f 58 73 74
f 58 74 59
f 58 61 73
f 59 74 60
f 60 74 71
f 61 62 73
f 62 75 76
f 62 76 73
f 63 69 78
f 63 78 77
f 64 70 79
f 64 79 77
f 64 77 65
f 65 77 66
f 66 77 67
f 67 77 68
f 68 77 80
f 68 80 78
f 68 78 69
f 70 72 81
f 70 81 79
f 71 74 82
f 71 82 81
f 71 81 72
f 73 83 74
f 73 76 84
f 73 84 83
f 74 83 82
f 75 84 76
f 77 78 80
f 77 79 85
f 79 81 85
f 81 86 85
f 81 82 86
f 82 83 86
f 83 84 86

