# https://github.com/mikedh/trimesh
v -0.07389356 -0.00875005 0.01624844
v -0.07457992 -0.00685182 0.01624844
v -0.07471983 -0.00706818 0.01797076
v -0.07444600 -0.00875005 0.01835586
v -0.07389475 -0.01124955 0.01624844
v -0.07389356 -0.00875005 0.01374883
v -0.07457873 -0.00684465 -0.00426111
v -0.07559990 -0.00560148 0.01624844
v -0.07457992 -0.00685063 0.01374883
v -0.07538467 -0.00585011 -0.00426111
v -0.07559273 -0.00559431 -0.00374843
v -0.07706709 -0.00472050 0.01797076
v -0.07624083 -0.00624100 0.01854014
v -0.07625040 -0.00875005 0.01954424
v -0.07625040 -0.01124955 0.01954424
v -0.07444720 -0.01124955 0.01835586
v -0.07458112 -0.01315256 0.01624844
v -0.07457992 -0.01315256 -0.00426111
v -0.07389475 -0.01124955 0.01374883
v -0.07472102 -0.01293501 0.01797076
v -0.07389835 -0.00875005 -0.00426111
v -0.07685066 -0.00458064 0.01624844
v -0.07584862 -0.00538512 -0.00426111
v -0.07559273 -0.00559431 -0.00426111
v -0.07875071 -0.00444915 0.01835586
v -0.07875071 -0.00625056 0.01954188
v -0.07875071 -0.00389809 0.01624844
v -0.07875071 -0.00875005 0.01987500
v -0.07875071 -0.01374905 0.01954424
v -0.07623724 -0.01376100 0.01854014
v -0.07875071 -0.01124955 0.01987500
v -0.07559393 -0.01440291 0.01624844
v -0.07559512 -0.01440291 0.00125079
v -0.07559632 -0.01440291 -0.00426111
v -0.07444122 -0.01276407 -0.00426111
v -0.07559393 -0.01440291 0.00874961
v -0.07390074 -0.01124955 -0.00426111
v -0.07706231 -0.01528150 0.01797076
v -0.07684229 -0.00457706 -0.00426111
v -0.08124985 -0.00389570 0.01624844
v -0.08124985 -0.00444796 0.01835586
v -0.08124985 -0.00625056 0.01954424
v -0.07875071 -0.00389809 0.00625000
v -0.08124985 -0.00875005 0.01987500
v -0.08124985 -0.01124955 0.01987500
v -0.08124985 -0.01374905 0.01953952
v -0.07875071 -0.01555165 0.01835823
v -0.07684349 -0.01542255 0.01624844
v -0.07684349 -0.01542255 0.01374883
v -0.07684708 -0.01542016 -0.00426111
v -0.07875071 -0.01610390 0.01624844
v -0.07875071 -0.00389929 -0.00426111
v -0.08314990 -0.00457706 0.01624844
v -0.08293347 -0.00471811 0.01797076
v -0.08124985 -0.00389570 0.01124922
v -0.08375973 -0.00624100 0.01854014
v -0.08374897 -0.00875005 0.01954424
v -0.08374897 -0.01124955 0.01954424
v -0.08375734 -0.01376100 0.01853542
v -0.08292869 -0.01527432 0.01796368
v -0.08124985 -0.01554567 0.01835114
v -0.07875071 -0.01610510 0.01374883
v -0.07875071 -0.01610510 0.00874961
v -0.07875071 -0.01610390 -0.00426111
v -0.07723570 -0.01556002 -0.00426111
v -0.08124985 -0.01609315 0.01624844
v -0.08124985 -0.01609673 0.01124922
v -0.08124985 -0.01610629 -0.00426111
v -0.08073806 -0.00390168 -0.00426111
v -0.08440066 -0.00560267 0.01624844
v -0.08315229 -0.00457825 0.00874961
v -0.08440425 -0.00559550 -0.00124882
v -0.08440305 -0.00559789 0.00625000
v -0.08527834 -0.00706818 0.01797076
v -0.08124985 -0.00390287 -0.00426111
v -0.08276367 -0.00444079 -0.00426111
v -0.08555217 -0.00875005 0.01835586
v -0.08555336 -0.01124955 0.01835586
v -0.08528073 -0.01293501 0.01797076
v -0.08439468 -0.01440291 0.01624844
v -0.08314512 -0.01541059 0.01624844
v -0.07926130 -0.01610510 -0.00426111
v -0.08314990 -0.01541418 0.00874961
v -0.08315349 -0.01542135 -0.00426111
v -0.08541944 -0.00685063 0.01374883
v -0.08541825 -0.00685182 0.01624844
v -0.08315349 -0.00458064 -0.00426111
v -0.08315349 -0.00457945 0.00375039
v -0.08542064 -0.00684585 0.00125079
v -0.08542064 -0.00684704 0.00375039
v -0.08440305 -0.00559550 -0.00426111
v -0.08542183 -0.00684585 -0.00426111
v -0.08610581 -0.00875005 0.01624844
v -0.08610819 -0.01124955 0.01624844
v -0.08542064 -0.01315256 0.01624844
v -0.08439827 -0.01440410 0.01124922
v -0.08414835 -0.01461329 -0.00426111
v -0.08610581 -0.00875005 -0.00426111
v -0.08542064 -0.01315376 0.01124922
v -0.08610581 -0.00926167 -0.00426111
v -0.08610461 -0.01124955 -0.00426111
v -0.08596471 -0.01163924 -0.00426111
v -0.08542064 -0.01315376 -0.00426111
v -0.08461350 -0.01414830 -0.00426111
v -0.08440185 -0.01440410 0.00375039
v -0.08440425 -0.01440410 -0.00374843
v -0.08440425 -0.01440410 -0.00426111
f 1 2 3
f 1 3 4
f 1 4 16
f 1 16 5
f 1 5 19
f 1 19 6
f 1 6 7
f 1 7 2
f 2 8 3
f 2 7 9
f 2 9 10
f 2 10 11
f 2 11 8
f 3 12 13
f 3 13 14
f 3 14 4
f 3 8 12
f 4 14 15
f 4 15 16
f 5 17 18
f 5 18 19
f 5 16 20
f 5 20 17
f 6 19 21
f 6 21 7
f 7 21 37
f 7 37 35
f 7 35 18
f 7 18 34
f 7 34 50
f 7 50 65
f 7 65 64
f 7 64 82
f 7 82 68
f 7 68 84
f 7 84 97
f 7 97 107
f 7 107 104
f 7 104 103
f 7 103 102
f 7 102 101
f 7 101 100
f 7 100 98
f 7 98 92
f 7 92 91
f 7 91 87
f 7 87 76
f 7 76 75
f 7 75 69
f 7 69 52
f 7 52 39
f 7 39 23
f 7 23 24
f 7 24 10
f 7 10 9
f 8 22 12
f 8 11 23
f 8 23 22
f 10 24 11
f 11 24 23
f 12 25 26
f 12 26 13
f 12 22 27
f 12 27 25
f 13 26 14
f 14 26 28
f 14 28 31
f 14 31 15
f 15 29 30
f 15 30 20
f 15 20 16
f 15 31 29
f 17 20 32
f 17 32 18
f 18 33 34
f 18 35 19
f 18 32 36
f 18 36 33
f 19 35 37
f 19 37 21
f 20 30 38
f 20 38 32
f 22 23 39
f 22 39 27
f 25 27 40
f 25 40 41
f 25 41 42
f 25 42 26
f 26 42 28
f 27 43 55
f 27 55 40
f 27 39 43
f 28 42 44
f 28 44 45
f 28 45 31
f 29 31 45
f 29 45 46
f 29 46 47
f 29 47 38
f 29 38 30
f 32 38 48
f 32 48 49
f 32 49 36
f 33 36 49
f 33 49 34
f 34 49 50
f 38 47 51
f 38 51 48
f 39 52 43
f 40 53 54
f 40 54 41
f 40 55 53
f 41 54 42
f 42 56 57
f 42 57 44
f 42 54 56
f 43 52 55
f 44 57 58
f 44 58 45
f 45 58 46
f 46 58 59
f 46 59 60
f 46 60 61
f 46 61 47
f 47 61 51
f 48 51 62
f 48 62 63
f 48 63 49
f 49 63 64
f 49 64 65
f 49 65 50
f 51 66 67
f 51 67 68
f 51 68 62
f 51 61 66
f 52 69 55
f 53 70 54
f 53 55 71
f 53 71 72
f 53 72 73
f 53 73 70
f 54 74 56
f 54 70 74
f 55 69 75
f 55 75 76
f 55 76 71
f 56 74 57
f 57 74 77
f 57 77 78
f 57 78 58
f 58 78 79
f 58 79 59
f 59 79 60
f 60 80 81
f 60 81 66
f 60 66 61
f 60 79 80
f 62 68 63
f 63 68 82
f 63 82 64
f 66 81 67
f 67 81 83
f 67 83 84
f 67 84 68
f 70 85 86
f 70 86 74
f 70 73 85
f 71 76 87
f 71 87 88
f 71 88 72
f 72 89 90
f 72 90 85
f 72 85 73
f 72 88 87
f 72 87 91
f 72 91 92
f 72 92 89
f 74 86 93
f 74 93 77
f 77 93 94
f 77 94 78
f 78 94 79
f 79 94 95
f 79 95 80
f 80 95 96
f 80 96 83
f 80 83 81
f 83 96 84
f 84 96 97
f 85 93 86
f 85 90 93
f 89 92 90
f 90 92 93
f 92 98 93
f 93 98 94
f 94 99 95
f 94 98 100
f 94 100 101
f 94 101 102
f 94 102 103
f 94 103 99
f 95 99 104
f 95 104 105
f 95 105 96
f 96 105 97
f 97 105 106
f 97 106 107
f 99 103 104
f 104 107 106
f 104 106 105

