# https://github.com/mikedh/trimesh
v -0.01851884 -0.02660018 -0.01018217
v -0.01034950 -0.02660018 -0.01018230
v -0.00624896 -0.02660539 -0.01018230
v -0.01124919 -0.02660539 -0.01018217
v -0.01851884 -0.02656893 -0.01017697
v -0.01851884 0.02660334 -0.01018217
v -0.01034950 0.02659813 -0.01018230
v 0.01094040 -0.02661060 -0.01018230
v -0.01034950 -0.02647517 -0.01016135
v -0.01851884 -0.02624077 -0.01012491
v -0.01851884 0.02624913 -0.01012491
v -0.01034950 0.02624913 -0.01012491
v 0.01094040 0.02654604 -0.01017511
v 0.01094040 0.02658771 -0.01018230
v -0.00874619 0.02659813 -0.01018230
v 0.01094040 -0.02629286 -0.01013198
v -0.00500900 -0.02624598 -0.01012491
v -0.00500900 -0.02642829 -0.01015379
v -0.00125162 -0.01740130 -0.00891604
v -0.00183123 -0.01720857 -0.00891604
v -0.00382383 -0.01647932 -0.00891604
v -0.00535504 -0.01534900 -0.00891604
v -0.00647100 -0.01381238 -0.00891604
v -0.00720056 -0.01180696 -0.00891604
v -0.00739088 -0.01124440 -0.00891604
v -0.00739665 -0.00874414 -0.00891604
v -0.00740530 0.00874208 -0.00891604
v -0.00740530 0.01124234 -0.00891604
v -0.00644793 0.01376865 -0.00891604
v -0.00640468 0.01386241 -0.00891604
v -0.00629222 0.01399264 -0.00891604
v -0.00500900 0.01527402 -0.00891604
v -0.00399396 0.01628454 -0.00891604
v -0.00386420 0.01639393 -0.00891604
v -0.00377769 0.01643560 -0.00891604
v -0.00125162 0.01737841 -0.00891604
v 0.01094040 0.02623872 -0.01012491
v 0.01094040 -0.02624598 -0.01012491
v 0.00033150 -0.01740130 -0.00891604
v 0.00124849 0.01737320 -0.00891604
v 0.00181657 0.01718568 -0.00891604
v 0.00381781 0.01646164 -0.00891604
v 0.00535191 0.01533653 -0.00891604
v 0.00647364 0.01381032 -0.00891604
v 0.00719743 0.01181011 -0.00891604
v 0.00738487 0.01123714 -0.00891604
v 0.00739064 0.00964843 -0.00891604
v 0.01094040 0.01324776 -0.01011252
v 0.01094040 -0.01124961 -0.01011239
v 0.00740506 -0.01124961 -0.00891604
v 0.00645922 -0.01377592 -0.00891604
v 0.00641020 -0.01387488 -0.00891604
v 0.00628621 -0.01402594 -0.00891604
v 0.00401678 -0.01629180 -0.00891604
v 0.00386683 -0.01640640 -0.00891604
v 0.00377167 -0.01645849 -0.00891604
v 0.00124849 -0.01739609 -0.00891604
v 0.00740506 -0.01032243 -0.00891604
v 0.01094040 -0.00923898 -0.01011239
f 1 2 3
f 1 3 4
f 1 4 5
f 1 5 10
f 1 10 11
f 1 11 6
f 1 6 7
f 1 7 2
f 2 7 15
f 2 15 14
f 2 14 8
f 2 8 3
f 3 8 4
f 4 8 9
f 4 9 5
f 5 9 10
f 6 11 12
f 6 12 13
f 6 13 14
f 6 14 15
f 6 15 7
f 8 16 17
f 8 17 18
f 8 18 9
f 8 14 13
f 8 13 37
f 8 37 48
f 8 48 59
f 8 59 49
f 8 49 38
f 8 38 16
f 9 18 17
f 9 17 10
f 10 17 19
f 10 19 20
f 10 20 21
f 10 21 22
f 10 22 23
f 10 23 24
f 10 24 25
f 10 25 26
f 10 26 27
f 10 27 28
f 10 28 11
f 11 28 29
f 11 29 30
f 11 30 31
f 11 31 32
f 11 32 33
f 11 33 34
f 11 34 35
f 11 35 36
f 11 36 12
f 12 36 37
f 12 37 13
f 16 38 17
f 17 38 39
f 17 39 19
f 19 39 57
f 19 57 56
f 19 56 55
f 19 55 54
f 19 54 53
f 19 53 52
f 19 52 51
f 19 51 50
f 19 50 58
f 19 58 47
f 19 47 46
f 19 46 45
f 19 45 44
f 19 44 43
f 19 43 42
f 19 42 41
f 19 41 40
f 19 40 36
f 19 36 35
f 19 35 34
f 19 34 33
f 19 33 32
f 19 32 31
f 19 31 30
f 19 30 29
f 19 29 28
f 19 28 27
f 19 27 26
f 19 26 25
f 19 25 24
f 19 24 23
f 19 23 22
f 19 22 21
f 19 21 20
f 36 40 37
f 37 40 41
f 37 41 42
f 37 42 43
f 37 43 44
f 37 44 45
f 37 45 46
f 37 46 47
f 37 47 48
f 38 49 50
f 38 50 51
f 38 51 52
f 38 52 53
f 38 53 54
f 38 54 55
f 38 55 56
f 38 56 57
f 38 57 39
f 47 58 48
f 48 58 59
f 49 59 58
f 49 58 50

