# https://github.com/mikedh/trimesh
v -0.04388939 -0.00875040 -0.00426111
v -0.04389297 -0.01124906 -0.00426111
v -0.04457695 -0.00683994 -0.00426111
v -0.04457814 -0.00683994 0.00625000
v -0.04389178 -0.00875040 0.01624844
v -0.04389178 -0.01124906 0.01624844
v -0.04389178 -0.01124906 0.01374883
v -0.04444063 -0.01276739 -0.00426111
v -0.04538169 -0.00584645 -0.00426111
v -0.04457934 -0.00683994 0.01624844
v -0.04472044 -0.00705992 0.01797076
v -0.04444661 -0.00875040 0.01835114
v -0.04444541 -0.01124906 0.01835114
v -0.04457934 -0.01315235 0.01624844
v -0.04471924 -0.01293596 0.01796840
v -0.04458173 -0.01315713 -0.00426111
v -0.04558975 -0.00559061 -0.00426111
v -0.04558975 -0.00559061 -0.00374843
v -0.04559214 -0.00559061 0.01124922
v -0.04559334 -0.00559061 0.01624844
v -0.04706293 -0.00472265 0.01796840
v -0.04623786 -0.00623619 0.01853778
v -0.04625101 -0.00875040 0.01953952
v -0.04625101 -0.01124906 0.01953952
v -0.04560171 -0.01440168 0.01624844
v -0.04559932 -0.01440646 -0.00124882
v -0.04559932 -0.01440766 -0.00426111
v -0.04624025 -0.01376087 0.01853778
v -0.04706652 -0.01527681 0.01796840
v -0.04584565 -0.00538258 -0.00426111
v -0.04684411 -0.00458277 0.01624844
v -0.04684052 -0.00457919 -0.00426111
v -0.04684171 -0.00458158 0.00874961
v -0.04875014 -0.00445007 0.01834878
v -0.04875014 -0.00625054 0.01953715
v -0.04875014 -0.00390012 0.01624844
v -0.04875014 -0.00875040 0.01987500
v -0.04875014 -0.01124906 0.01987500
v -0.04875014 -0.01374892 0.01954424
v -0.04685128 -0.01541549 0.01624844
v -0.04685009 -0.01541669 0.00625000
v -0.04685009 -0.01541669 0.00375039
v -0.04685009 -0.01541549 -0.00426111
v -0.04875014 -0.01554819 0.01835586
v -0.04875014 -0.01609694 0.01624844
v -0.04875014 -0.00389654 0.00874961
v -0.04875014 -0.00389415 -0.00426111
v -0.04875014 -0.00389534 0.00375039
v -0.05124928 -0.00444768 0.01835114
v -0.05124928 -0.00389415 0.01624844
v -0.05124928 -0.00625054 0.01953952
v -0.05124928 -0.00875040 0.01987500
v -0.05124928 -0.01124906 0.01987500
v -0.05124928 -0.01374892 0.01954660
v -0.05124928 -0.01555178 0.01835823
v -0.04875014 -0.01610053 0.01124922
v -0.04875014 -0.01610173 0.00625000
v -0.04875014 -0.01610173 -0.00426111
v -0.04723870 -0.01555656 -0.00426111
v -0.05124928 -0.01610412 0.01624844
v -0.05124928 -0.00389534 -0.00426111
v -0.05124928 -0.00389415 0.00375039
v -0.05293529 -0.00471906 0.01797076
v -0.05315292 -0.00457799 0.01624844
v -0.05374961 -0.00875040 0.01954188
v -0.05376037 -0.00623978 0.01853778
v -0.05374961 -0.01124906 0.01954188
v -0.05375917 -0.01375968 0.01854014
v -0.05293290 -0.01528159 0.01797076
v -0.05124928 -0.01610531 0.01374883
v -0.05124928 -0.01610651 0.00874961
v -0.05124928 -0.01610531 0.00125079
v -0.05124928 -0.01610412 -0.00426111
v -0.05315053 -0.01542266 0.01624844
v -0.05276191 -0.00444050 -0.00426111
v -0.05315292 -0.00457799 0.01124922
v -0.05440369 -0.00559898 0.01624844
v -0.05528018 -0.00706589 0.01796840
v -0.05554803 -0.00875040 0.01835350
v -0.05554803 -0.01124906 0.01835586
v -0.05528018 -0.01293237 0.01797076
v -0.05440010 -0.01439929 0.01624844
v -0.05315053 -0.01542266 0.01374883
v -0.05315173 -0.01542147 0.00874961
v -0.05315053 -0.01541908 -0.00426111
v -0.05440129 -0.01440048 0.01374883
v -0.05440129 -0.01440288 0.00874961
v -0.05440129 -0.01440407 0.00375039
v -0.05315053 -0.00458158 -0.00426111
v -0.05440369 -0.00559898 0.01124922
v -0.05440010 -0.00559898 -0.00426111
v -0.05440129 -0.00559898 -0.00124882
v -0.05542008 -0.00684831 0.01624844
v -0.05542128 -0.00684831 -0.00426111
v -0.05609688 -0.00875040 0.01624844
v -0.05609449 -0.01124906 0.01624844
v -0.05541889 -0.01314996 0.01624844
v -0.05440129 -0.01440407 0.00125079
v -0.05315173 -0.01542027 0.00375039
v -0.05414421 -0.01461090 -0.00426111
v -0.05541769 -0.01315235 0.00874961
v -0.05609808 -0.00875040 0.01374883
v -0.05556118 -0.00723685 -0.00426111
v -0.05610406 -0.00875040 -0.00426111
v -0.05610166 -0.00875040 0.00375039
v -0.05609688 -0.01124906 0.00874961
v -0.05609808 -0.01124906 0.00375039
v -0.05609808 -0.01124906 -0.00426111
v -0.05440129 -0.01440288 -0.00124882
v -0.05440010 -0.01440288 -0.00374843
v -0.05541649 -0.01315354 0.00375039
v -0.05460936 -0.01414703 -0.00426111
v -0.05440010 -0.01440168 -0.00426111
v -0.05610286 -0.00926209 -0.00426111
v -0.05541530 -0.01315235 -0.00426111
v -0.05541530 -0.01315354 -0.00124882
f 1 2 8
f 1 8 16
f 1 16 27
f 1 27 43
f 1 43 59
f 1 59 58
f 1 58 73
f 1 73 85
f 1 85 100
f 1 100 113
f 1 113 112
f 1 112 115
f 1 115 108
f 1 108 114
f 1 114 104
f 1 104 103
f 1 103 94
f 1 94 91
f 1 91 89
f 1 89 75
f 1 75 61
f 1 61 47
f 1 47 32
f 1 32 30
f 1 30 17
f 1 17 9
f 1 9 3
f 1 3 4
f 1 4 5
f 1 5 6
f 1 6 7
f 1 7 2
f 2 7 8
f 3 9 4
f 4 10 5
f 4 9 10
f 5 10 11
f 5 11 12
f 5 12 13
f 5 13 6
f 6 14 7
f 6 13 15
f 6 15 14
f 7 14 8
f 8 14 16
f 9 17 18
f 9 18 19
f 9 19 10
f 10 20 11
f 10 19 20
f 11 21 22
f 11 22 23
f 11 23 12
f 11 20 21
f 12 23 13
f 13 23 24
f 13 24 15
f 14 15 25
f 14 25 26
f 14 26 27
f 14 27 16
f 15 24 28
f 15 28 29
f 15 29 25
f 17 30 18
f 18 30 19
f 19 30 20
f 20 31 21
f 20 30 32
f 20 32 33
f 20 33 31
f 21 34 35
f 21 35 22
f 21 31 36
f 21 36 34
f 22 35 23
f 23 35 37
f 23 37 38
f 23 38 24
f 24 38 39
f 24 39 28
f 25 29 40
f 25 40 27
f 25 27 26
f 27 40 41
f 27 41 42
f 27 42 43
f 28 39 29
f 29 39 44
f 29 44 45
f 29 45 40
f 31 33 46
f 31 46 36
f 32 47 48
f 32 48 33
f 33 48 46
f 34 49 35
f 34 36 50
f 34 50 49
f 35 49 51
f 35 51 37
f 36 46 50
f 37 52 53
f 37 53 38
f 37 51 52
f 38 53 54
f 38 54 39
f 39 54 55
f 39 55 44
f 40 45 56
f 40 56 57
f 40 57 41
f 41 57 58
f 41 58 42
f 42 58 59
f 42 59 43
f 44 55 60
f 44 60 45
f 45 60 56
f 46 48 50
f 47 61 62
f 47 62 50
f 47 50 48
f 49 50 63
f 49 63 51
f 50 64 63
f 50 62 76
f 50 76 64
f 51 65 52
f 51 63 66
f 51 66 65
f 52 65 67
f 52 67 53
f 53 67 54
f 54 67 68
f 54 68 69
f 54 69 55
f 55 69 60
f 56 70 71
f 56 71 57
f 56 60 70
f 57 71 58
f 58 72 73
f 58 71 72
f 60 69 74
f 60 74 70
f 61 75 76
f 61 76 62
f 63 64 77
f 63 77 78
f 63 78 66
f 64 76 90
f 64 90 77
f 65 66 78
f 65 78 79
f 65 79 80
f 65 80 67
f 67 80 81
f 67 81 68
f 68 81 69
f 69 81 82
f 69 82 74
f 70 74 71
f 71 74 83
f 71 83 84
f 71 84 72
f 72 85 73
f 72 84 85
f 74 82 86
f 74 86 87
f 74 87 88
f 74 88 98
f 74 98 83
f 75 89 76
f 76 89 91
f 76 91 92
f 76 92 90
f 77 93 78
f 77 90 94
f 77 94 93
f 78 93 95
f 78 95 79
f 79 95 80
f 80 95 96
f 80 96 81
f 81 96 97
f 81 97 82
f 82 97 86
f 83 98 84
f 84 98 99
f 84 99 85
f 85 99 98
f 85 98 100
f 86 97 87
f 87 97 88
f 88 97 101
f 88 101 98
f 90 92 94
f 91 94 92
f 93 102 95
f 93 94 103
f 93 103 104
f 93 104 105
f 93 105 102
f 95 102 96
f 96 102 105
f 96 105 106
f 96 106 97
f 97 106 107
f 97 107 108
f 97 108 101
f 98 109 110
f 98 110 100
f 98 101 111
f 98 111 112
f 98 112 109
f 100 110 113
f 101 108 111
f 104 114 107
f 104 107 106
f 104 106 105
f 107 114 108
f 108 115 111
f 109 112 110
f 110 112 113
f 111 115 116
f 111 116 112
f 112 116 115

