# https://github.com/mikedh/trimesh
v 0.07490495 -0.02661015 -0.01018230
v 0.07589127 -0.02661015 -0.01018230
v 0.07490495 -0.02239688 -0.00891604
v 0.07490495 0.02658963 -0.01018230
v 0.09338994 -0.02660494 -0.01018230
v 0.09625026 -0.02239167 -0.00891604
v 0.07490495 0.00566907 -0.00891604
v 0.07490495 0.02640214 -0.01015144
v 0.08123100 0.02144933 -0.00891604
v 0.08375461 0.02239198 -0.00891604
v 0.09324369 0.02659484 -0.01018230
v 0.10965060 -0.02659974 -0.01018230
v 0.10965060 -0.02624039 -0.01012491
v 0.09877387 -0.02145423 -0.00891604
v 0.07759522 0.01624653 -0.00891604
v 0.07490495 0.02624070 -0.01012491
v 0.08113237 0.02140246 -0.00891604
v 0.08625102 0.02238677 -0.00891604
v 0.10965060 0.02658963 -0.01018230
v 0.09375045 0.02659484 -0.01018230
v 0.09902555 -0.02128236 -0.00891604
v 0.09887251 -0.02140215 -0.00891604
v 0.10965060 -0.00124716 -0.01005872
v 0.10738887 -0.00124716 -0.00891604
v 0.10240625 -0.01624101 -0.00891604
v 0.10146075 -0.01876690 -0.00891604
v 0.10141313 -0.01886585 -0.00891604
v 0.10129069 -0.01902209 -0.00891604
v 0.07854073 0.01876721 -0.00891604
v 0.07858834 0.01886616 -0.00891604
v 0.07871078 0.01901719 -0.00891604
v 0.08098271 0.02128267 -0.00891604
v 0.08682241 0.02219928 -0.00891604
v 0.10965060 0.02624590 -0.01012491
v 0.10965060 0.02637089 -0.01014561
v 0.10965060 0.00124747 -0.01005872
v 0.10738887 0.00124747 -0.00891604
v 0.08882225 0.02146495 -0.00891604
v 0.09035615 0.02034523 -0.00891604
v 0.10535160 0.00535659 -0.00891604
v 0.10648417 0.00382023 -0.00891604
v 0.10720181 0.00182035 -0.00891604
f 1 2 3
f 1 3 7
f 1 7 16
f 1 16 8
f 1 8 4
f 1 4 11
f 1 11 20
f 1 20 19
f 1 19 12
f 1 12 5
f 1 5 2
f 2 5 6
f 2 6 3
f 3 6 14
f 3 14 22
f 3 22 21
f 3 21 28
f 3 28 27
f 3 27 26
f 3 26 25
f 3 25 24
f 3 24 37
f 3 37 42
f 3 42 41
f 3 41 40
f 3 40 39
f 3 39 38
f 3 38 33
f 3 33 18
f 3 18 10
f 3 10 9
f 3 9 17
f 3 17 32
f 3 32 31
f 3 31 30
f 3 30 29
f 3 29 15
f 3 15 7
f 4 8 9
f 4 9 10
f 4 10 11
f 5 12 6
f 6 12 13
f 6 13 14
f 7 15 16
f 8 16 9
f 9 16 17
f 10 18 19
f 10 19 20
f 10 20 11
f 12 19 35
f 12 35 34
f 12 34 36
f 12 36 23
f 12 23 13
f 13 21 22
f 13 22 14
f 13 23 24
f 13 24 25
f 13 25 26
f 13 26 27
f 13 27 28
f 13 28 21
f 15 29 16
f 16 29 30
f 16 30 31
f 16 31 32
f 16 32 17
f 18 33 34
f 18 34 35
f 18 35 19
f 23 36 37
f 23 37 24
f 33 38 34
f 34 38 39
f 34 39 40
f 34 40 41
f 34 41 42
f 34 42 37
f 34 37 36

