# https://github.com/mikedh/trimesh
v -0.06739775 -0.02660490 -0.01018230
v -0.01875328 -0.02661011 -0.01018230
v -0.06739775 -0.02624546 -0.01012491
v -0.06739775 0.01966307 -0.01018230
v -0.01852841 -0.02661011 -0.01018230
v -0.01852841 -0.02624546 -0.01012491
v -0.05124991 -0.01740027 -0.00891604
v -0.05182406 -0.01720753 -0.00891604
v -0.05381921 -0.01647824 -0.00891604
v -0.05534548 -0.01534785 -0.00891604
v -0.05646507 -0.01381635 -0.00891604
v -0.05719232 -0.01181603 -0.00891604
v -0.05738848 -0.01124822 -0.00891604
v -0.06739775 0.02624748 -0.01012491
v -0.06739775 0.02660691 -0.01018217
v -0.03071943 0.02660170 -0.01018230
v -0.01851884 -0.01970794 -0.01018230
v -0.01851884 -0.01970794 -0.01012491
v -0.02260006 -0.01124822 -0.00891604
v -0.02354740 -0.01377468 -0.00891604
v -0.02359524 -0.01387365 -0.00891604
v -0.02371964 -0.01401951 -0.00891604
v -0.02597795 -0.01628551 -0.00891604
v -0.02613105 -0.01640532 -0.00891604
v -0.02622674 -0.01645741 -0.00891604
v -0.02875298 -0.01738985 -0.00891604
v -0.05738848 -0.00874782 -0.00891604
v -0.04645101 0.01376627 -0.00891604
v -0.04640317 0.01386004 -0.00891604
v -0.04628834 0.01400590 -0.00891604
v -0.04401568 0.01628231 -0.00891604
v -0.04386736 0.01640212 -0.00891604
v -0.04377167 0.01644900 -0.00891604
v -0.04125500 0.01739186 -0.00891604
v -0.01852363 0.02624748 -0.01012491
v -0.05645071 -0.00622136 -0.00891604
v -0.06624468 0.02660691 -0.01018217
v -0.02875298 0.02660170 -0.01018230
v -0.01851884 -0.00126743 -0.01018230
v -0.01851884 -0.00126743 -0.01012491
v -0.02260006 -0.00874782 -0.00891604
v -0.03875268 0.01739186 -0.00891604
v -0.01852363 0.02659649 -0.01018230
v -0.03071943 0.02660170 -0.01018217
v -0.03818332 0.01719913 -0.00891604
v -0.03617860 0.01648026 -0.00891604
v -0.03464276 0.01535507 -0.00891604
v -0.03351839 0.01381836 -0.00891604
v -0.02353783 -0.00617969 -0.00891604
v -0.02278666 -0.00816960 -0.00891604
f 1 2 3
f 1 3 14
f 1 14 15
f 1 15 4
f 1 4 16
f 1 16 38
f 1 38 43
f 1 43 39
f 1 39 17
f 1 17 5
f 1 5 2
f 2 5 6
f 2 6 3
f 3 6 7
f 3 7 8
f 3 8 9
f 3 9 10
f 3 10 11
f 3 11 12
f 3 12 13
f 3 13 27
f 3 27 14
f 4 15 16
f 5 17 18
f 5 18 6
f 6 18 19
f 6 19 20
f 6 20 21
f 6 21 22
f 6 22 23
f 6 23 24
f 6 24 25
f 6 25 26
f 6 26 7
f 7 26 25
f 7 25 24
f 7 24 23
f 7 23 22
f 7 22 21
f 7 21 20
f 7 20 19
f 7 19 41
f 7 41 50
f 7 50 49
f 7 49 48
f 7 48 47
f 7 47 46
f 7 46 45
f 7 45 42
f 7 42 34
f 7 34 33
f 7 33 32
f 7 32 31
f 7 31 30
f 7 30 29
f 7 29 28
f 7 28 36
f 7 36 27
f 7 27 13
f 7 13 12
f 7 12 11
f 7 11 10
f 7 10 9
f 7 9 8
f 14 28 29
f 14 29 30
f 14 30 31
f 14 31 32
f 14 32 33
f 14 33 34
f 14 34 42
f 14 42 35
f 14 35 37
f 14 37 15
f 14 27 36
f 14 36 28
f 15 37 38
f 15 38 16
f 17 39 40
f 17 40 18
f 18 40 41
f 18 41 19
f 35 40 43
f 35 43 38
f 35 38 44
f 35 44 37
f 35 42 45
f 35 45 46
f 35 46 47
f 35 47 48
f 35 48 49
f 35 49 50
f 35 50 41
f 35 41 40
f 37 44 38
f 39 43 40

