# https://github.com/mikedh/trimesh
v 0.09875109 0.00740708 -0.00891604
v 0.09873661 0.00611334 -0.00623178
v 0.09875109 0.00611765 -0.00623178
v 0.09967214 0.00740564 -0.00891604
v 0.09622402 0.00646370 -0.00891604
v 0.09683950 0.00542842 -0.00623178
v 0.10124920 0.00610329 -0.00623178
v 0.10124920 0.00740133 -0.00891604
v 0.09612264 0.00641344 -0.00891604
v 0.09596914 0.00628996 -0.00891604
v 0.09559841 0.00441325 -0.00623178
v 0.10312895 0.00541981 -0.00623178
v 0.10182992 0.00720749 -0.00891604
v 0.09371142 0.00402843 -0.00891604
v 0.09558247 0.00439602 -0.00623178
v 0.10315356 0.00540545 -0.00623178
v 0.10382263 0.00648093 -0.00891604
v 0.09358833 0.00387479 -0.00891604
v 0.09457599 0.00315541 -0.00623178
v 0.10439321 0.00440751 -0.00623178
v 0.10535625 0.00535950 -0.00891604
v 0.09353764 0.00377571 -0.00891604
v 0.09260067 0.00124999 -0.00891604
v 0.09389389 0.00126291 -0.00623178
v 0.10542866 0.00315828 -0.00623178
v 0.10648583 0.00382597 -0.00891604
v 0.09259922 -0.00124989 -0.00891604
v 0.09388665 -0.00123123 -0.00623178
v 0.09388955 0.00124999 -0.00623178
v 0.10610930 0.00124999 -0.00623178
v 0.10720558 0.00182434 -0.00891604
v 0.09365495 -0.00726196 -0.00891578
v 0.09388665 -0.00124989 -0.00623178
v 0.09365929 -0.00725909 -0.00891604
v 0.10610930 0.00122701 -0.00623178
v 0.10739384 0.00124999 -0.00891604
v 0.09489314 -0.00726196 -0.00845649
v 0.09686411 -0.00543120 -0.00623178
v 0.09684094 -0.00541971 -0.00623178
v 0.09559985 -0.00440167 -0.00623178
v 0.09457310 -0.00315101 -0.00623178
v 0.09366798 -0.00726196 -0.00891604
v 0.10610785 -0.00124989 -0.00623178
v 0.10739239 -0.00124989 -0.00891604
v 0.09793432 -0.00726196 -0.00845518
v 0.09875109 -0.00611468 -0.00623178
v 0.10227017 -0.00726196 -0.00891604
v 0.10542721 -0.00315388 -0.00623178
v 0.10645542 -0.00377706 -0.00891604
v 0.09875399 -0.00726196 -0.00845491
v 0.09876847 -0.00611468 -0.00623178
v 0.10357933 -0.00659858 -0.00891604
v 0.10314777 -0.00541971 -0.00623178
v 0.10126369 -0.00610320 -0.00623178
v 0.10124920 -0.00610750 -0.00623178
v 0.10069165 -0.00726196 -0.00845807
v 0.10440479 -0.00439449 -0.00623178
v 0.10629322 -0.00401541 -0.00891604
v 0.10640907 -0.00387183 -0.00891604
v 0.10386317 -0.00640473 -0.00891604
v 0.10400220 -0.00629273 -0.00891604
v 0.10438596 -0.00441316 -0.00623178
f 1 2 3
f 1 3 4
f 1 4 8
f 1 8 13
f 1 13 17
f 1 17 21
f 1 21 26
f 1 26 31
f 1 31 36
f 1 36 44
f 1 44 49
f 1 49 59
f 1 59 58
f 1 58 61
f 1 61 60
f 1 60 52
f 1 52 47
f 1 47 42
f 1 42 34
f 1 34 27
f 1 27 23
f 1 23 22
f 1 22 18
f 1 18 14
f 1 14 10
f 1 10 9
f 1 9 5
f 1 5 6
f 1 6 2
f 2 6 11
f 2 11 15
f 2 15 19
f 2 19 24
f 2 24 29
f 2 29 28
f 2 28 33
f 2 33 41
f 2 41 40
f 2 40 39
f 2 39 38
f 2 38 46
f 2 46 51
f 2 51 55
f 2 55 54
f 2 54 53
f 2 53 62
f 2 62 57
f 2 57 48
f 2 48 43
f 2 43 35
f 2 35 30
f 2 30 25
f 2 25 20
f 2 20 16
f 2 16 12
f 2 12 7
f 2 7 3
f 3 7 8
f 3 8 4
f 5 9 6
f 6 9 10
f 6 10 11
f 7 12 13
f 7 13 8
f 10 14 11
f 11 14 15
f 12 16 17
f 12 17 13
f 14 18 19
f 14 19 15
f 16 20 21
f 16 21 17
f 18 22 19
f 19 22 23
f 19 23 24
f 20 25 21
f 21 25 26
f 23 27 28
f 23 28 29
f 23 29 24
f 25 30 31
f 25 31 26
f 27 32 33
f 27 33 28
f 27 34 32
f 30 35 36
f 30 36 31
f 32 37 38
f 32 38 39
f 32 39 40
f 32 40 41
f 32 41 33
f 32 34 42
f 32 42 47
f 32 47 56
f 32 56 50
f 32 50 45
f 32 45 37
f 35 43 44
f 35 44 36
f 37 45 46
f 37 46 38
f 43 48 44
f 44 48 49
f 45 50 46
f 46 50 51
f 47 52 53
f 47 53 54
f 47 54 55
f 47 55 56
f 48 57 58
f 48 58 59
f 48 59 49
f 50 56 51
f 51 56 55
f 52 60 53
f 53 60 61
f 53 61 62
f 57 62 61
f 57 61 58

