# https://github.com/mikedh/trimesh
v 0.06261222 -0.00124812 -0.00891578
v 0.06279907 -0.00182260 -0.00891578
v 0.06390283 -0.00124812 -0.00624803
v 0.06390572 0.00125021 -0.00624803
v 0.06261946 0.00035212 -0.00891578
v 0.06351318 -0.00382365 -0.00891578
v 0.06457637 -0.00315268 -0.00624803
v 0.06458217 0.00313992 -0.00624803
v 0.06262381 0.00125021 -0.00891578
v 0.06464011 -0.00536006 -0.00891578
v 0.06559177 -0.00440407 -0.00624803
v 0.06356243 0.00377230 -0.00891578
v 0.06561929 0.00438983 -0.00624803
v 0.06370293 0.00397567 -0.00891578
v 0.06360444 0.00385395 -0.00891578
v 0.06617406 -0.00648973 -0.00891578
v 0.06684037 -0.00542834 -0.00624803
v 0.06587712 -0.00464010 -0.00625012
v 0.06686789 0.00541411 -0.00624803
v 0.06601328 0.00629290 -0.00891578
v 0.06865967 -0.00774112 -0.00891578
v 0.06875238 -0.00611713 -0.00624803
v 0.06874948 0.00610141 -0.00624803
v 0.06875093 0.00740031 -0.00891578
v 0.06622621 0.00643987 -0.00891578
v 0.06614219 0.00639682 -0.00891578
v 0.07000822 -0.00776487 -0.00891578
v 0.07065714 -0.00776487 -0.00867293
v 0.07124233 -0.00776487 -0.00845514
v 0.07124813 -0.00611119 -0.00624803
v 0.07224469 -0.00776487 -0.00845488
v 0.07375112 -0.00776487 -0.00845488
v 0.06875093 0.00610289 -0.00625012
v 0.07124668 0.00611625 -0.00624803
v 0.07124813 0.00739882 -0.00891578
v 0.07680454 -0.00776487 -0.00891578
v 0.07315145 -0.00542389 -0.00624803
v 0.07629178 -0.00776487 -0.00866561
v 0.07182318 0.00720584 -0.00891578
v 0.07316159 0.00542598 -0.00624803
v 0.07542848 -0.00315861 -0.00624803
v 0.07440150 -0.00441001 -0.00624803
v 0.07740567 -0.00124812 -0.00891578
v 0.07611941 -0.00125109 -0.00624803
v 0.07382355 0.00648291 -0.00891578
v 0.07440874 0.00440765 -0.00624803
v 0.07535895 0.00535918 -0.00891578
v 0.07740857 -0.00032479 -0.00891578
v 0.07741001 0.00125021 -0.00891578
v 0.07611941 0.00124725 -0.00624803
v 0.07542848 0.00315477 -0.00624803
v 0.07648733 0.00382574 -0.00891578
v 0.07721302 0.00183064 -0.00891578
f 1 2 3
f 1 3 4
f 1 4 5
f 1 5 9
f 1 9 12
f 1 12 15
f 1 15 14
f 1 14 20
f 1 20 26
f 1 26 25
f 1 25 24
f 1 24 35
f 1 35 39
f 1 39 45
f 1 45 47
f 1 47 52
f 1 52 53
f 1 53 49
f 1 49 48
f 1 48 43
f 1 43 36
f 1 36 27
f 1 27 21
f 1 21 16
f 1 16 10
f 1 10 6
f 1 6 2
f 2 6 7
f 2 7 3
f 3 7 11
f 3 11 17
f 3 17 22
f 3 22 30
f 3 30 37
f 3 37 42
f 3 42 41
f 3 41 44
f 3 44 50
f 3 50 51
f 3 51 46
f 3 46 40
f 3 40 34
f 3 34 23
f 3 23 19
f 3 19 13
f 3 13 8
f 3 8 4
f 4 8 9
f 4 9 5
f 6 10 7
f 7 10 11
f 8 12 9
f 8 13 14
f 8 14 15
f 8 15 12
f 10 16 17
f 10 17 18
f 10 18 11
f 11 18 17
f 13 19 20
f 13 20 14
f 16 21 17
f 17 21 22
f 19 23 24
f 19 24 25
f 19 25 26
f 19 26 20
f 21 27 28
f 21 28 29
f 21 29 22
f 22 29 31
f 22 31 32
f 22 32 30
f 23 33 24
f 23 34 33
f 24 33 34
f 24 34 35
f 27 36 38
f 27 38 32
f 27 32 31
f 27 31 29
f 27 29 28
f 30 32 38
f 30 38 37
f 34 39 35
f 34 40 39
f 36 41 42
f 36 42 38
f 36 43 44
f 36 44 41
f 37 38 42
f 39 40 45
f 40 46 47
f 40 47 45
f 43 48 44
f 44 48 49
f 44 49 50
f 46 51 47
f 47 51 52
f 49 53 50
f 50 53 51
f 51 53 52

