# https://github.com/mikedh/trimesh
v -0.04875092 -0.00260201 -0.00891604
v -0.04875092 -0.00389320 -0.00426111
v -0.04817832 -0.00279330 -0.00891604
v -0.05124858 -0.00260201 -0.00891604
v -0.04684034 -0.00458009 -0.00426111
v -0.05073832 -0.00389465 -0.00426111
v -0.04617642 -0.00351642 -0.00891604
v -0.05377524 -0.00354975 -0.00891604
v -0.05315046 -0.00458154 -0.00426111
v -0.05276197 -0.00444098 -0.00426111
v -0.05124858 -0.00389610 -0.00426111
v -0.04584591 -0.00538292 -0.00426111
v -0.04463840 -0.00463951 -0.00891604
v -0.05386512 -0.00359468 -0.00891604
v -0.05400283 -0.00370626 -0.00891604
v -0.05440002 -0.00559884 -0.00426111
v -0.04559078 -0.00559015 -0.00426111
v -0.04538204 -0.00584665 -0.00426111
v -0.04457751 -0.00684076 -0.00426111
v -0.04351205 -0.00617416 -0.00891604
v -0.05629465 -0.00599301 -0.00891604
v -0.05542054 -0.00684801 -0.00426111
v -0.04388895 -0.00875074 -0.00426111
v -0.04278580 -0.00816818 -0.00891604
v -0.05640627 -0.00613213 -0.00891604
v -0.05645266 -0.00622343 -0.00891604
v -0.05739925 -0.00875074 -0.00891604
v -0.05556116 -0.00723783 -0.00426111
v -0.04389330 -0.01124906 -0.00426111
v -0.04259010 -0.00875074 -0.00891604
v -0.05739055 -0.01124906 -0.00891604
v -0.05609751 -0.01124906 -0.00426111
v -0.05610330 -0.00875074 -0.00426111
v -0.04458186 -0.01315759 -0.00426111
v -0.04260460 -0.01124906 -0.00891604
v -0.04259735 -0.01033175 -0.00891604
v -0.05719921 -0.01181713 -0.00891604
v -0.05541619 -0.01315179 -0.00426111
v -0.04370630 -0.01400679 -0.00891604
v -0.04359323 -0.01386477 -0.00891604
v -0.04354829 -0.01377202 -0.00891604
v -0.04559948 -0.01440675 -0.00426111
v -0.05647150 -0.01381840 -0.00891604
v -0.05535241 -0.01535304 -0.00891604
v -0.05460877 -0.01414591 -0.00426111
v -0.04598217 -0.01628919 -0.00891604
v -0.04684904 -0.01541536 -0.00426111
v -0.05382308 -0.01647903 -0.00891604
v -0.05315046 -0.01541825 -0.00426111
v -0.05414489 -0.01461108 -0.00426111
v -0.05440002 -0.01440240 -0.00426111
v -0.04613004 -0.01640802 -0.00891604
v -0.04723898 -0.01555592 -0.00426111
v -0.04875092 -0.01739924 -0.00891604
v -0.04622716 -0.01645584 -0.00891604
v -0.05183132 -0.01721085 -0.00891604
v -0.05124858 -0.01610515 -0.00426111
v -0.04875092 -0.01610080 -0.00426111
v -0.04966997 -0.01740213 -0.00891604
v -0.05124858 -0.01740503 -0.00891604
v -0.04926118 -0.01610225 -0.00426111
f 1 2 3
f 1 3 7
f 1 7 13
f 1 13 20
f 1 20 24
f 1 24 30
f 1 30 36
f 1 36 35
f 1 35 41
f 1 41 40
f 1 40 39
f 1 39 46
f 1 46 52
f 1 52 55
f 1 55 54
f 1 54 59
f 1 59 60
f 1 60 56
f 1 56 48
f 1 48 44
f 1 44 43
f 1 43 37
f 1 37 31
f 1 31 27
f 1 27 26
f 1 26 25
f 1 25 21
f 1 21 15
f 1 15 14
f 1 14 8
f 1 8 4
f 1 4 2
f 2 5 3
f 2 4 6
f 2 6 11
f 2 11 10
f 2 10 9
f 2 9 16
f 2 16 22
f 2 22 28
f 2 28 33
f 2 33 32
f 2 32 38
f 2 38 45
f 2 45 51
f 2 51 50
f 2 50 49
f 2 49 57
f 2 57 61
f 2 61 58
f 2 58 53
f 2 53 47
f 2 47 42
f 2 42 34
f 2 34 29
f 2 29 23
f 2 23 19
f 2 19 18
f 2 18 17
f 2 17 12
f 2 12 5
f 3 5 7
f 4 8 9
f 4 9 10
f 4 10 11
f 4 11 6
f 5 12 13
f 5 13 7
f 8 14 9
f 9 14 15
f 9 15 16
f 12 17 13
f 13 18 19
f 13 19 20
f 13 17 18
f 15 21 16
f 16 21 22
f 19 23 24
f 19 24 20
f 21 25 22
f 22 25 26
f 22 26 27
f 22 27 28
f 23 29 30
f 23 30 24
f 27 31 32
f 27 32 33
f 27 33 28
f 29 34 35
f 29 35 36
f 29 36 30
f 31 37 32
f 32 37 38
f 34 39 40
f 34 40 41
f 34 41 35
f 34 42 39
f 37 43 38
f 38 44 45
f 38 43 44
f 39 42 46
f 42 47 46
f 44 48 49
f 44 49 50
f 44 50 51
f 44 51 45
f 46 47 52
f 47 53 54
f 47 54 55
f 47 55 52
f 48 56 49
f 49 56 57
f 53 58 54
f 54 58 59
f 56 60 57
f 57 60 61
f 58 61 59
f 59 61 60

