# https://github.com/mikedh/trimesh
v 0.11873016 0.03137500 -0.01624973
v 0.07122820 0.03127673 -0.01375065
v 0.11873016 0.03127058 -0.01375065
v 0.12122896 0.03125216 -0.01375065
v 0.12122896 0.03135043 -0.01624973
v 0.12122896 0.03067478 -0.01864349
v 0.11873016 0.03068706 -0.01864539
v -0.11873016 0.03137500 -0.01624973
v 0.06123300 0.03058878 -0.01172501
v 0.08124814 0.03058878 -0.01172691
v -0.11873016 0.03127673 -0.01375065
v -0.11123376 0.03058878 -0.01171078
v -0.05623539 0.03058878 -0.01171457
v -0.04374139 0.03058878 -0.01171552
v 0.11873016 0.03058264 -0.01173070
v 0.12122896 0.03057650 -0.01173829
v 0.12330717 0.03037995 -0.01199731
v 0.12397517 0.03052736 -0.01357892
v 0.12372776 0.03074234 -0.01624973
v 0.12372776 0.03037380 -0.01818618
v 0.12122896 0.02874609 -0.01983041
v 0.12372776 0.02874609 -0.01935128
v 0.11873016 0.02874609 -0.01983326
v -0.11873016 0.03068706 -0.01864539
v -0.12122896 0.03067478 -0.01864254
v -0.12122896 0.03135043 -0.01624973
v -0.12122896 0.03125830 -0.01375065
v 0.08874455 0.02874609 -0.01053999
v 0.11873016 0.02874609 -0.01054283
v -0.12122896 0.03057650 -0.01172596
v -0.11873016 0.03058878 -0.01171078
v -0.11873016 0.02874609 -0.01052291
v -0.08874455 0.02874609 -0.01052481
v -0.04873899 0.02874609 -0.01052765
v -0.01622984 0.02874609 -0.01053050
v 0.12122896 0.02874609 -0.01055137
v 0.12397517 0.02898564 -0.01141855
v 0.12496479 0.02998069 -0.01263204
v 0.12503901 0.03004826 -0.01429809
v 0.12506375 0.03007897 -0.01624973
v 0.12503901 0.03004826 -0.01765392
v 0.12122896 0.02624616 -0.01987405
v 0.12372776 0.02624616 -0.01983136
v 0.12536064 0.02874609 -0.01818618
v 0.12565753 0.02624616 -0.01864349
v -0.11873016 0.02874609 -0.01983326
v -0.12122896 0.02874609 -0.01983041
v -0.12372776 0.02874609 -0.01933325
v -0.12372776 0.03036766 -0.01816910
v -0.12372776 0.03073620 -0.01624973
v -0.12397517 0.03052122 -0.01358556
v -0.12330717 0.03037995 -0.01199446
v 0.11873016 0.02659013 -0.01018325
v 0.12122896 0.02658399 -0.01018325
v -0.12122896 0.02874609 -0.01053809
v -0.12122896 0.02659627 -0.01018325
v -0.12088259 0.02660856 -0.01018325
v -0.09374215 0.02660856 -0.01018325
v -0.00623463 0.02660242 -0.01018325
v 0.07372700 0.02659627 -0.01018325
v 0.12372776 0.02624616 -0.01053524
v 0.12538539 0.02830998 -0.01199162
v 0.12550908 0.02898564 -0.01357892
v 0.12573175 0.02874609 -0.01624973
v 0.12372776 0.02374623 -0.01983326
v 0.12122896 -0.02624616 -0.01987405
v -0.12122896 0.02624616 -0.01987405
v 0.12568226 0.02374623 -0.01864539
v 0.12635027 0.02624616 -0.01624973
v -0.12372776 0.02624616 -0.01983041
v -0.12565753 0.02624616 -0.01864349
v -0.12536064 0.02874609 -0.01817005
v -0.12503901 0.03004212 -0.01763209
v -0.12506375 0.03006669 -0.01624973
v -0.12503901 0.03004826 -0.01430948
v -0.12496479 0.02998069 -0.01264248
v -0.12397517 0.02898564 -0.01141476
v 0.12157533 0.02624616 -0.01018325
v -0.12372776 0.02624616 -0.01053524
v -0.12157533 0.02624616 -0.01018325
v 0.12372776 0.02374623 -0.01052006
v 0.12558331 0.02624616 -0.01172216
v 0.12625131 0.02624616 -0.01375065
v 0.12372776 -0.02374623 -0.01983326
v 0.12372776 -0.02624616 -0.01983136
v 0.12122896 -0.02874609 -0.01983041
v 0.11873016 -0.02874609 -0.01983326
v -0.12122896 -0.02624616 -0.01987405
v -0.12372776 0.02374623 -0.01983326
v 0.12568226 -0.02374623 -0.01864539
v 0.12627605 0.02374623 -0.01375065
v 0.12635027 -0.02624616 -0.01624973
v -0.12568226 0.02374623 -0.01864539
v -0.12635027 0.02624616 -0.01624973
v -0.12573175 0.02874609 -0.01624973
v -0.12550908 0.02898564 -0.01358556
v -0.12536064 0.02830998 -0.01198972
v 0.12160007 0.02374623 -0.01018325
v -0.12372776 0.02374623 -0.01052386
v -0.12160007 0.02588991 -0.01018325
v -0.12558331 0.02624616 -0.01172216
v 0.12558331 0.02374623 -0.01170793
v 0.12372776 -0.01124660 -0.01052006
v 0.12565753 -0.02624616 -0.01864349
v 0.12372776 -0.02874609 -0.01934938
v 0.12122896 -0.03067478 -0.01864254
v 0.11873016 -0.03068706 -0.01864539
v -0.11873016 -0.02874609 -0.01983326
v -0.12122896 -0.02874609 -0.01983136
v -0.12372776 -0.02624616 -0.01983041
v -0.12372776 -0.02374623 -0.01983326
v 0.12627605 -0.02374623 -0.01375065
v 0.12625131 -0.02624616 -0.01375065
v 0.12573175 -0.02874609 -0.01624973
v 0.12536064 -0.02874609 -0.01818523
v -0.12568226 -0.02374623 -0.01864539
v -0.12635027 -0.02624616 -0.01624973
v -0.12627605 0.02374623 -0.01375065
v -0.12625131 0.02624616 -0.01375065
v 0.12160007 -0.02624616 -0.01018325
v -0.12558331 0.02374623 -0.01171173
v -0.12558331 0.02124631 -0.01171078
v -0.12372776 0.01374653 -0.01052291
v -0.12372776 -0.00874667 -0.01052196
v -0.12160007 -0.02624616 -0.01018325
v 0.12558331 -0.02374623 -0.01170793
v 0.12372776 -0.02374623 -0.01052101
v 0.12503901 -0.03004826 -0.01765202
v 0.12372776 -0.03036766 -0.01818428
v 0.12122896 -0.03135043 -0.01624973
v 0.11873016 -0.03137500 -0.01624973
v -0.11873016 -0.03068706 -0.01864539
v -0.12122896 -0.03067478 -0.01864349
v -0.12372776 -0.02874609 -0.01934938
v -0.12565753 -0.02624616 -0.01864349
v 0.12558331 -0.02624616 -0.01171837
v 0.12538539 -0.02830998 -0.01198497
v 0.12550908 -0.02898564 -0.01357797
v 0.12503901 -0.03004826 -0.01429714
v 0.12506375 -0.03007897 -0.01624973
v -0.12536064 -0.02874609 -0.01818428
v -0.12573175 -0.02874609 -0.01624973
v -0.12625131 -0.02624616 -0.01375065
v -0.12627605 -0.02374623 -0.01375065
v -0.12558331 -0.02124631 -0.01170888
v -0.12558331 0.00124689 -0.01170983
v 0.12122896 -0.02659627 -0.01018325
v 0.12122896 -0.02874609 -0.01053619
v 0.12372776 -0.02624616 -0.01053050
v -0.12372776 -0.02374623 -0.01052196
v -0.12122896 -0.02874609 -0.01053809
v -0.12122896 -0.02659627 -0.01018325
v -0.12372776 -0.02624616 -0.01053240
v 0.12372776 -0.03074234 -0.01624973
v 0.12122896 -0.03125830 -0.01375065
v 0.11873016 -0.03127673 -0.01375065
v 0.08124814 -0.03128287 -0.01375065
v -0.11873016 -0.03137500 -0.01624973
v -0.12122896 -0.03135657 -0.01624973
v -0.12372776 -0.03037380 -0.01818523
v -0.12503901 -0.03004826 -0.01765202
v 0.12397517 -0.02898564 -0.01141002
v 0.12496479 -0.02998069 -0.01263014
v 0.12397517 -0.03052736 -0.01357797
v -0.12506375 -0.03007897 -0.01624973
v -0.12503901 -0.03004826 -0.01436546
v -0.12550908 -0.02897950 -0.01361972
v -0.12536064 -0.02829770 -0.01198687
v -0.12558331 -0.02624616 -0.01171932
v -0.12558331 -0.02374623 -0.01170888
v 0.12088259 -0.02660856 -0.01018325
v 0.11873016 -0.02874609 -0.01052386
v 0.11873016 -0.03058878 -0.01171173
v 0.12122896 -0.03058264 -0.01172311
v 0.12330717 -0.03037995 -0.01198972
v -0.12122896 -0.03058264 -0.01172501
v -0.11873016 -0.03058878 -0.01171268
v -0.11873016 -0.02874609 -0.01052481
v -0.12397517 -0.02897950 -0.01141191
v -0.12328243 -0.03038609 -0.01199162
v -0.11873016 -0.02660242 -0.01018325
v 0.09124335 -0.03059493 -0.01171078
v 0.05123779 -0.03059493 -0.01170983
v -0.07874934 -0.03128287 -0.01375065
v -0.11873016 -0.03127673 -0.01375065
v -0.12122896 -0.03126444 -0.01375065
v -0.12372776 -0.03074848 -0.01624973
v -0.12397517 -0.03052736 -0.01361972
v -0.12496479 -0.02996841 -0.01269940
v 0.08124814 -0.02874609 -0.01052291
v -0.10373735 -0.02660856 -0.01018325
v -0.09873975 -0.03059493 -0.01171268
v -0.09124335 -0.03059493 -0.01171173
v -0.02372624 -0.02874609 -0.01052291
v 0.00623463 -0.03059493 -0.01170983
f 1 2 3
f 1 3 4
f 1 4 5
f 1 5 6
f 1 6 7
f 1 7 24
f 1 24 8
f 1 8 11
f 1 11 2
f 2 9 10
f 2 10 3
f 2 11 31
f 2 31 12
f 2 12 13
f 2 13 14
f 2 14 9
f 3 15 16
f 3 16 4
f 3 10 15
f 4 16 17
f 4 17 18
f 4 18 19
f 4 19 5
f 5 19 20
f 5 20 6
f 6 21 7
f 6 20 22
f 6 22 21
f 7 21 23
f 7 23 46
f 7 46 24
f 8 24 25
f 8 25 26
f 8 26 27
f 8 27 11
f 9 28 10
f 9 14 35
f 9 35 28
f 10 28 29
f 10 29 15
f 11 27 30
f 11 30 31
f 12 31 32
f 12 32 33
f 12 33 13
f 13 33 34
f 13 34 14
f 14 34 35
f 15 29 36
f 15 36 16
f 16 36 17
f 17 36 37
f 17 37 38
f 17 38 18
f 18 38 39
f 18 39 19
f 19 39 40
f 19 40 41
f 19 41 20
f 20 41 22
f 21 42 23
f 21 22 43
f 21 43 42
f 22 41 44
f 22 44 45
f 22 45 43
f 23 42 67
f 23 67 46
f 24 46 47
f 24 47 25
f 25 47 48
f 25 48 49
f 25 49 26
f 26 49 50
f 26 50 27
f 27 50 51
f 27 51 52
f 27 52 30
f 28 53 29
f 28 35 53
f 29 53 54
f 29 54 36
f 30 52 55
f 30 55 31
f 31 55 32
f 32 55 56
f 32 56 57
f 32 57 58
f 32 58 59
f 32 59 60
f 32 60 53
f 32 53 33
f 33 53 34
f 34 53 35
f 36 54 61
f 36 61 37
f 37 61 62
f 37 62 38
f 38 62 63
f 38 63 39
f 39 63 64
f 39 64 40
f 40 64 41
f 41 64 44
f 42 43 65
f 42 65 84
f 42 84 66
f 42 66 88
f 42 88 67
f 43 45 68
f 43 68 65
f 44 64 69
f 44 69 45
f 45 69 68
f 46 67 47
f 47 67 70
f 47 70 48
f 48 70 71
f 48 71 72
f 48 72 73
f 48 73 49
f 49 73 50
f 50 73 74
f 50 74 75
f 50 75 51
f 51 75 76
f 51 76 52
f 52 76 77
f 52 77 55
f 53 60 59
f 53 59 58
f 53 58 57
f 53 57 56
f 53 56 80
f 53 80 100
f 53 100 125
f 53 125 152
f 53 152 181
f 53 181 191
f 53 191 171
f 53 171 147
f 53 147 120
f 53 120 98
f 53 98 78
f 53 78 54
f 54 78 61
f 55 77 79
f 55 79 56
f 56 79 80
f 61 81 82
f 61 82 62
f 61 78 81
f 62 82 83
f 62 83 63
f 63 83 64
f 64 83 69
f 65 68 90
f 65 90 84
f 66 84 85
f 66 85 86
f 66 86 87
f 66 87 108
f 66 108 88
f 67 88 111
f 67 111 89
f 67 89 70
f 68 69 92
f 68 92 90
f 69 91 112
f 69 112 92
f 69 83 91
f 70 89 93
f 70 93 71
f 71 93 94
f 71 94 72
f 72 94 95
f 72 95 73
f 73 95 74
f 74 95 75
f 75 95 96
f 75 96 76
f 76 96 97
f 76 97 77
f 77 97 79
f 78 98 81
f 79 99 100
f 79 100 80
f 79 97 101
f 79 101 99
f 81 102 82
f 81 98 120
f 81 120 103
f 81 103 126
f 81 126 102
f 82 102 91
f 82 91 83
f 84 90 85
f 85 90 104
f 85 104 105
f 85 105 86
f 86 105 106
f 86 106 107
f 86 107 87
f 87 107 132
f 87 132 108
f 88 108 109
f 88 109 110
f 88 110 111
f 89 111 116
f 89 116 93
f 90 92 104
f 91 102 126
f 91 126 112
f 92 112 113
f 92 113 114
f 92 114 115
f 92 115 104
f 93 116 117
f 93 117 94
f 94 117 144
f 94 144 118
f 94 118 119
f 94 119 95
f 95 119 96
f 96 119 97
f 97 119 101
f 99 101 121
f 99 121 122
f 99 122 123
f 99 123 100
f 100 123 124
f 100 124 150
f 100 150 125
f 101 119 118
f 101 118 121
f 103 120 127
f 103 127 126
f 104 115 105
f 105 115 128
f 105 128 129
f 105 129 106
f 106 129 130
f 106 130 131
f 106 131 107
f 107 131 158
f 107 158 132
f 108 132 109
f 109 132 133
f 109 133 134
f 109 134 110
f 110 134 135
f 110 135 116
f 110 116 111
f 112 126 136
f 112 136 113
f 113 136 137
f 113 137 138
f 113 138 114
f 114 138 139
f 114 139 140
f 114 140 128
f 114 128 115
f 116 135 117
f 117 135 141
f 117 141 142
f 117 142 143
f 117 143 144
f 118 144 170
f 118 170 145
f 118 145 146
f 118 146 122
f 118 122 121
f 120 147 148
f 120 148 149
f 120 149 127
f 122 146 123
f 123 146 145
f 123 145 124
f 124 145 170
f 124 170 150
f 125 151 152
f 125 150 153
f 125 153 151
f 126 127 149
f 126 149 136
f 128 140 154
f 128 154 129
f 129 154 130
f 130 154 155
f 130 155 131
f 131 155 156
f 131 156 157
f 131 157 184
f 131 184 158
f 132 158 133
f 133 158 159
f 133 159 160
f 133 160 134
f 134 160 161
f 134 161 141
f 134 141 135
f 136 149 137
f 137 149 162
f 137 162 163
f 137 163 138
f 138 163 139
f 139 163 164
f 139 164 154
f 139 154 140
f 141 161 142
f 142 165 166
f 142 166 167
f 142 167 143
f 142 161 165
f 143 167 168
f 143 168 169
f 143 169 144
f 144 169 170
f 147 171 148
f 148 171 172
f 148 172 173
f 148 173 174
f 148 174 175
f 148 175 162
f 148 162 149
f 150 170 169
f 150 169 153
f 151 176 177
f 151 177 178
f 151 178 152
f 151 153 179
f 151 179 180
f 151 180 176
f 152 178 181
f 153 169 168
f 153 168 179
f 154 164 155
f 155 164 175
f 155 175 174
f 155 174 156
f 156 174 173
f 156 173 182
f 156 182 157
f 157 182 183
f 157 183 195
f 157 195 184
f 158 184 185
f 158 185 186
f 158 186 159
f 159 186 187
f 159 187 160
f 160 187 161
f 161 187 165
f 162 175 163
f 163 175 164
f 165 187 166
f 166 187 188
f 166 188 189
f 166 189 167
f 167 189 168
f 168 189 179
f 171 190 172
f 171 191 194
f 171 194 190
f 172 190 182
f 172 182 173
f 176 186 185
f 176 185 177
f 176 180 186
f 177 185 192
f 177 192 178
f 178 191 181
f 178 192 193
f 178 193 194
f 178 194 191
f 179 189 180
f 180 189 188
f 180 188 186
f 182 190 183
f 183 190 194
f 183 194 195
f 184 193 192
f 184 192 185
f 184 195 193
f 186 188 187
f 193 195 194

