# https://github.com/mikedh/trimesh
v 0.05239626 0.01098404 0.07357349
v 0.05239626 0.01116633 0.07349303
v 0.05224502 0.01098404 0.07363539
v 0.05239626 0.01098404 0.05387306
v 0.05239626 0.01145869 0.07334759
v 0.05220792 0.01126264 0.07352398
v 0.05219365 0.01098404 0.07365395
v 0.04569900 0.01098404 0.04527617
v 0.04564478 0.01134218 0.04493267
v 0.05239626 0.01537625 0.05198224
v 0.05239626 0.01231942 0.07287720
v 0.05165148 0.01215561 0.07331045
v 0.05076688 0.01130477 0.07400984
v 0.05187406 0.01098404 0.07376845
v 0.04539652 0.01098404 0.04493267
v 0.04626970 0.01537625 0.04493267
v 0.05239626 0.01537625 0.07081927
v 0.05239626 0.01273216 0.07263582
v 0.05220792 0.01272442 0.07272556
v 0.05228211 0.01388567 0.07195809
v 0.05076688 0.01316940 0.07301336
v 0.05076688 0.01241185 0.07345280
v 0.04773643 0.01178329 0.07463805
v 0.04927163 0.01125748 0.07446165
v 0.05042160 0.01098404 0.07426050
v 0.05076688 0.01098404 0.07415528
v 0.02324449 0.01098404 0.04493267
v 0.02324449 0.01537625 0.04493267
v 0.05168001 0.01537625 0.07113183
v 0.05127196 0.01495105 0.07163625
v 0.05239626 0.01470986 0.07132369
v 0.05239626 0.01291101 0.07252751
v 0.05239626 0.01385042 0.07193334
v 0.05076688 0.01440159 0.07221185
v 0.05239626 0.01462000 0.07138868
v 0.04974531 0.01344499 0.07318357
v 0.04924309 0.01289209 0.07362919
v 0.04688321 0.01202147 0.07475255
v 0.04773643 0.01102531 0.07500012
v 0.04787625 0.01098404 0.07498155
v 0.04902052 0.01098404 0.07466280
v 0.02324449 0.01098404 0.07654434
v 0.02324449 0.01537625 0.07417695
v 0.05101229 0.01537625 0.07141653
v 0.05039307 0.01537625 0.07167648
v 0.05026181 0.01523309 0.07184050
v 0.04924309 0.01424768 0.07280912
v 0.04873516 0.01368403 0.07332592
v 0.04773643 0.01282029 0.07408411
v 0.04587306 0.01222870 0.07485776
v 0.04631536 0.01143160 0.07514556
v 0.04773643 0.01098404 0.07501868
v 0.04631536 0.01276827 0.07447094
v 0.02490810 0.01098404 0.07654744
v 0.02324449 0.01106616 0.07651339
v 0.02324449 0.01477134 0.07457615
v 0.02955367 0.01537625 0.07417695
v 0.04957981 0.01537625 0.07194571
v 0.04925165 0.01537625 0.07204165
v 0.04912039 0.01537625 0.07207878
v 0.04773643 0.01465052 0.07296075
v 0.04773643 0.01389298 0.07346209
v 0.04470596 0.01242002 0.07495679
v 0.04470596 0.01130477 0.07548598
v 0.04470596 0.01317757 0.07456068
v 0.04626115 0.01098404 0.07534981
v 0.04608993 0.01437236 0.07357968
v 0.02500512 0.01098404 0.07654744
v 0.02500512 0.01106616 0.07651339
v 0.02324449 0.01182370 0.07618226
v 0.02324449 0.01401336 0.07502797
v 0.02500512 0.01477134 0.07457615
v 0.03106890 0.01537625 0.07416766
v 0.02955367 0.01476790 0.07457306
v 0.03106890 0.01476145 0.07456996
v 0.04576463 0.01537625 0.07299480
v 0.04549925 0.01510712 0.07326712
v 0.04650940 0.01490204 0.07313096
v 0.04318788 0.01262940 0.07506820
v 0.04318788 0.01130477 0.07571188
v 0.04318788 0.01098404 0.07585424
v 0.04424084 0.01098404 0.07569641
v 0.04470596 0.01098404 0.07562214
v 0.04318788 0.01338652 0.07466899
v 0.04470596 0.01433538 0.07387367
v 0.02803844 0.01098404 0.07654434
v 0.02955367 0.01105885 0.07651339
v 0.02652321 0.01106487 0.07651339
v 0.02652321 0.01182284 0.07618226
v 0.02500512 0.01182370 0.07618226
v 0.02324449 0.01282029 0.07568094
v 0.02500512 0.01401336 0.07502797
v 0.02652321 0.01401164 0.07502797
v 0.02803844 0.01400992 0.07502797
v 0.03409936 0.01473178 0.07455449
v 0.03258413 0.01537625 0.07414909
v 0.02955367 0.01401035 0.07502488
v 0.03106890 0.01400347 0.07502178
v 0.04470596 0.01537625 0.07319904
v 0.04470596 0.01519912 0.07332901
v 0.04168692 0.01293594 0.07512081
v 0.04164126 0.01118654 0.07598112
v 0.04177252 0.01098404 0.07605539
v 0.04278839 0.01098404 0.07591303
v 0.04220056 0.01351765 0.07474017
v 0.04318788 0.01433538 0.07409958
v 0.02955367 0.01098404 0.07654124
v 0.03106890 0.01098404 0.07653506
v 0.03106890 0.01104896 0.07650720
v 0.02955367 0.01181639 0.07617918
v 0.02955367 0.01282029 0.07567475
v 0.02652321 0.01282029 0.07568094
v 0.03258413 0.01398928 0.07501250
v 0.03409936 0.01397381 0.07500012
v 0.03561458 0.01394242 0.07498155
v 0.03561458 0.01469997 0.07453592
v 0.03409936 0.01537625 0.07412743
v 0.03106890 0.01282029 0.07566237
v 0.04322213 0.01537625 0.07343114
v 0.04305662 0.01537625 0.07345590
v 0.04119040 0.01364233 0.07481135
v 0.04015742 0.01282029 0.07533743
v 0.04015742 0.01144235 0.07600897
v 0.04145578 0.01098404 0.07609562
v 0.04168692 0.01422274 0.07438429
v 0.03252991 0.01098404 0.07651958
v 0.03258413 0.01102832 0.07650102
v 0.03106890 0.01180651 0.07617298
v 0.03258413 0.01282029 0.07564380
v 0.03409936 0.01282029 0.07562214
v 0.03712982 0.01388094 0.07494751
v 0.03561458 0.01282029 0.07558500
v 0.03712982 0.01463892 0.07449569
v 0.03712982 0.01537625 0.07400674
v 0.03558320 0.01537625 0.07408411
v 0.03484698 0.01537625 0.07410577
v 0.04167550 0.01537625 0.07364467
v 0.04015742 0.01372101 0.07485776
v 0.04015742 0.01447855 0.07439976
v 0.03864219 0.01282029 0.07543027
v 0.03712982 0.01165216 0.07610181
v 0.03864219 0.01154897 0.07605539
v 0.04015742 0.01098404 0.07621631
v 0.04147005 0.01537625 0.07366943
v 0.03409936 0.01098404 0.07649792
v 0.03258413 0.01178587 0.07616370
v 0.03409936 0.01176050 0.07615132
v 0.03561458 0.01172525 0.07613585
v 0.03712982 0.01282029 0.07551692
v 0.03864219 0.01380527 0.07490418
v 0.03864219 0.01456282 0.07445237
v 0.03816565 0.01537625 0.07394794
v 0.04015742 0.01537625 0.07381178
v 0.03712982 0.01098404 0.07640199
v 0.03733812 0.01098404 0.07638961
v 0.03489835 0.01098404 0.07648244
v 0.03565168 0.01098404 0.07646697
v 0.03864219 0.01537625 0.07391700
f 1 2 3
f 1 3 7
f 1 7 14
f 1 14 26
f 1 26 25
f 1 25 41
f 1 41 40
f 1 40 52
f 1 52 66
f 1 66 83
f 1 83 82
f 1 82 81
f 1 81 104
f 1 104 103
f 1 103 124
f 1 124 143
f 1 143 155
f 1 155 154
f 1 154 157
f 1 157 156
f 1 156 145
f 1 145 126
f 1 126 108
f 1 108 107
f 1 107 86
f 1 86 68
f 1 68 54
f 1 54 42
f 1 42 27
f 1 27 15
f 1 15 8
f 1 8 4
f 1 4 10
f 1 10 17
f 1 17 31
f 1 31 35
f 1 35 33
f 1 33 32
f 1 32 18
f 1 18 11
f 1 11 5
f 1 5 2
f 2 5 6
f 2 6 3
f 3 6 7
f 4 8 9
f 4 9 10
f 5 11 12
f 5 12 6
f 6 13 14
f 6 14 7
f 6 12 13
f 8 15 9
f 9 15 27
f 9 27 28
f 9 28 16
f 9 16 10
f 10 16 28
f 10 28 43
f 10 43 57
f 10 57 73
f 10 73 96
f 10 96 117
f 10 117 136
f 10 136 135
f 10 135 134
f 10 134 152
f 10 152 158
f 10 158 153
f 10 153 144
f 10 144 137
f 10 137 120
f 10 120 119
f 10 119 99
f 10 99 76
f 10 76 60
f 10 60 59
f 10 59 58
f 10 58 45
f 10 45 44
f 10 44 29
f 10 29 17
f 11 18 12
f 12 18 19
f 12 19 20
f 12 20 21
f 12 21 22
f 12 22 13
f 13 22 23
f 13 23 24
f 13 24 25
f 13 25 26
f 13 26 14
f 17 29 30
f 17 30 31
f 18 32 19
f 19 32 33
f 19 33 20
f 20 34 21
f 20 33 35
f 20 35 30
f 20 30 34
f 21 36 22
f 21 34 36
f 22 36 37
f 22 37 23
f 23 38 39
f 23 39 40
f 23 40 41
f 23 41 24
f 23 37 38
f 24 41 25
f 27 42 55
f 27 55 70
f 27 70 91
f 27 91 71
f 27 71 56
f 27 56 43
f 27 43 28
f 29 44 30
f 30 35 31
f 30 44 45
f 30 45 46
f 30 46 34
f 34 46 36
f 36 47 48
f 36 48 49
f 36 49 37
f 36 46 47
f 37 49 38
f 38 50 51
f 38 51 52
f 38 52 39
f 38 49 53
f 38 53 50
f 39 52 40
f 42 54 55
f 43 56 72
f 43 72 57
f 45 58 46
f 46 58 47
f 47 58 59
f 47 59 60
f 47 60 61
f 47 61 48
f 48 61 62
f 48 62 49
f 49 62 53
f 50 63 64
f 50 64 51
f 50 53 65
f 50 65 63
f 51 64 66
f 51 66 52
f 53 62 67
f 53 67 65
f 54 68 69
f 54 69 55
f 55 69 90
f 55 90 70
f 56 71 92
f 56 92 72
f 57 72 74
f 57 74 75
f 57 75 73
f 60 76 77
f 60 77 78
f 60 78 61
f 61 78 62
f 62 78 77
f 62 77 67
f 63 79 80
f 63 80 64
f 63 65 79
f 64 80 81
f 64 81 82
f 64 82 83
f 64 83 66
f 65 84 79
f 65 67 77
f 65 77 85
f 65 85 84
f 68 86 87
f 68 87 88
f 68 88 69
f 69 88 89
f 69 89 90
f 70 90 112
f 70 112 91
f 71 91 112
f 71 112 92
f 72 92 93
f 72 93 94
f 72 94 74
f 73 75 95
f 73 95 96
f 74 94 97
f 74 97 75
f 75 97 98
f 75 98 95
f 76 99 77
f 77 99 100
f 77 100 85
f 79 84 101
f 79 101 102
f 79 102 80
f 80 102 103
f 80 103 104
f 80 104 81
f 84 105 101
f 84 85 105
f 85 100 106
f 85 106 105
f 86 107 87
f 87 107 108
f 87 108 109
f 87 109 128
f 87 128 110
f 87 110 89
f 87 89 88
f 89 110 111
f 89 111 112
f 89 112 90
f 92 112 93
f 93 112 94
f 94 112 97
f 95 98 113
f 95 113 114
f 95 114 115
f 95 115 116
f 95 116 117
f 95 117 96
f 97 112 111
f 97 111 98
f 98 111 118
f 98 118 113
f 99 119 100
f 100 119 120
f 100 120 106
f 101 105 121
f 101 121 122
f 101 122 102
f 102 122 123
f 102 123 124
f 102 124 103
f 105 106 121
f 106 120 125
f 106 125 121
f 108 126 127
f 108 127 109
f 109 127 128
f 110 128 111
f 111 128 118
f 113 118 129
f 113 129 114
f 114 129 130
f 114 130 115
f 115 131 116
f 115 130 132
f 115 132 131
f 116 131 133
f 116 133 134
f 116 134 135
f 116 135 136
f 116 136 117
f 118 128 129
f 120 137 125
f 121 138 122
f 121 125 139
f 121 139 138
f 122 138 140
f 122 140 141
f 122 141 142
f 122 142 123
f 123 142 143
f 123 143 124
f 125 137 144
f 125 144 139
f 126 145 127
f 127 145 146
f 127 146 128
f 128 146 129
f 129 146 130
f 130 146 147
f 130 147 148
f 130 148 132
f 131 132 149
f 131 149 150
f 131 150 133
f 132 148 149
f 133 150 151
f 133 151 152
f 133 152 134
f 138 150 140
f 138 139 151
f 138 151 150
f 139 144 153
f 139 153 151
f 140 150 149
f 140 149 141
f 141 148 154
f 141 154 155
f 141 155 142
f 141 149 148
f 142 155 143
f 145 156 147
f 145 147 146
f 147 156 157
f 147 157 148
f 148 157 154
f 151 153 158
f 151 158 152

