# https://github.com/mikedh/trimesh
v -0.02539851 0.00069693 0.07878450
v -0.02955194 0.00069693 0.07877791
v -0.02955194 -0.00008830 0.07877791
v -0.02539851 -0.00008830 0.07877791
v -0.02539851 0.00181912 0.07871859
v -0.02803805 0.00221278 0.07869223
v -0.03106813 0.00069693 0.07877132
v -0.03106813 -0.00008830 0.07877132
v -0.02539851 -0.00008830 0.01871395
v -0.02539851 0.00221278 0.07869223
v -0.02955194 0.00372759 0.07853404
v -0.03106813 0.00372759 0.07852745
v -0.03106813 0.00221278 0.07867905
v -0.03258433 0.00069693 0.07875155
v -0.03258433 0.00221278 0.07866586
v -0.03258433 -0.00008830 0.07875155
v -0.03561440 -0.00008830 0.01481207
v -0.03561440 0.01063606 0.01301272
v -0.02539851 0.01063606 0.01702006
v -0.02539851 0.00372759 0.07853404
v -0.02539851 0.00484978 0.07835609
v -0.02955194 0.00524344 0.07829017
v -0.03258433 0.00372759 0.07850768
v -0.03106813 0.00524344 0.07828359
v -0.03561440 0.00069693 0.07870541
v -0.03409822 0.00372759 0.07848791
v -0.03561440 0.00372759 0.07846154
v -0.03561440 0.00221278 0.07861313
v -0.03561440 -0.00008830 0.07870541
v -0.03632655 -0.00008830 0.01455502
v -0.03706627 0.01063606 0.01245908
v -0.02539851 0.01063606 0.07668197
v -0.02539851 0.00524344 0.07829017
v -0.02539851 0.00630685 0.07805949
v -0.02955194 0.00666377 0.07797381
v -0.03258433 0.00524344 0.07826381
v -0.03106813 0.00665327 0.07796721
v -0.03258433 0.00662073 0.07796062
v -0.03713060 0.00221278 0.07856700
v -0.03713060 0.00069693 0.07865268
v -0.03640007 -0.00008830 0.07867905
v -0.03561440 0.00524344 0.07821767
v -0.03713060 0.00372759 0.07840881
v -0.03698587 -0.00008830 0.01431774
v -0.03869273 0.01063606 0.01194498
v -0.02803805 0.01063606 0.07668197
v -0.02539851 0.00978891 0.07701811
v -0.02539851 0.00667951 0.07797381
v -0.02652186 0.00667636 0.07797381
v -0.02539851 0.00724009 0.07783539
v -0.02803805 0.00742589 0.07778267
v -0.03106813 0.00741120 0.07777607
v -0.03258433 0.00737865 0.07776949
v -0.03409822 0.00657559 0.07794744
v -0.03864219 0.00069693 0.07856700
v -0.03864219 0.00372759 0.07832313
v -0.04015838 0.00221278 0.07838245
v -0.03713060 -0.00008830 0.07865268
v -0.03561440 0.00652625 0.07793426
v -0.03713060 0.00641392 0.07790790
v -0.03713060 0.00524344 0.07815835
v -0.03769113 -0.00008830 0.01410024
v -0.03972420 0.01063606 0.01172089
v -0.03797369 -0.00008830 0.01401456
v -0.03857787 -0.00008830 0.01385637
v -0.03005734 0.01063606 0.07667538
v -0.02955194 0.00978891 0.07701152
v -0.02803805 0.00827305 0.07752562
v -0.02539851 0.00939525 0.07714993
v -0.02539851 0.00743639 0.07778267
v -0.02652186 0.00743429 0.07778267
v -0.03106813 0.00827305 0.07751903
v -0.03258433 0.00827305 0.07749925
v -0.03409822 0.00827305 0.07747948
v -0.03561440 0.00827305 0.07745311
v -0.03409822 0.00733351 0.07775630
v -0.03864219 -0.00008830 0.07856700
v -0.04015838 0.00069693 0.07846814
v -0.03864219 0.00524344 0.07807267
v -0.04015838 0.00372759 0.07822427
v -0.04167457 0.00221278 0.07827700
v -0.03561440 0.00728418 0.07774312
v -0.03713060 0.00717185 0.07771676
v -0.03864219 0.00623232 0.07786176
v -0.04015838 0.01063606 0.01162861
v -0.03937502 -0.00008830 0.01368501
v -0.03106813 0.00978891 0.07700493
v -0.03106813 0.01063606 0.07666878
v -0.02539851 0.00827305 0.07752562
v -0.03258433 0.00978891 0.07699174
v -0.03561440 0.00978891 0.07693902
v -0.03713060 0.00827305 0.07739380
v -0.04015838 -0.00008830 0.07846814
v -0.04167457 0.00069693 0.07836268
v -0.04094404 -0.00008830 0.07841541
v -0.04022041 0.00536626 0.07794744
v -0.04076715 0.00595413 0.07779585
v -0.04167457 0.00501249 0.07790790
v -0.04167457 0.00372759 0.07811881
v -0.04318846 0.00221278 0.07809903
v -0.04318846 0.00069693 0.07819131
v -0.03864219 0.00827305 0.07730811
v -0.04015838 0.00827305 0.07721584
v -0.03864219 0.00699024 0.07767062
v -0.04136444 0.01063606 0.01148361
v -0.04015838 -0.00008830 0.01353341
v -0.03258433 0.01063606 0.07665560
v -0.03409822 0.01063606 0.07663583
v -0.03713060 0.00978891 0.07687970
v -0.03561440 0.01063606 0.07660287
v -0.03604169 0.01063606 0.07658969
v -0.04167457 -0.00008830 0.07836268
v -0.04167457 0.00576937 0.07775630
v -0.04022041 0.00666062 0.07765085
v -0.04167457 0.00675720 0.07751244
v -0.04275887 0.00472906 0.07785517
v -0.04323440 0.00375383 0.07792767
v -0.04546504 0.00145905 0.07780244
v -0.04419925 0.00326569 0.07784199
v -0.04521005 0.00246892 0.07776290
v -0.04606922 0.00206371 0.07766403
v -0.04470465 0.00069693 0.07795404
v -0.04558450 -0.00008830 0.07782221
v -0.04318846 -0.00008830 0.07819131
v -0.04015838 0.00978891 0.07669515
v -0.04167457 0.00827305 0.07708402
v -0.04167457 0.01063606 0.01145065
v -0.04088891 -0.00008830 0.01346091
v -0.03713060 0.01063606 0.07654356
v -0.03748207 0.01063606 0.07652378
v -0.03864219 0.01063606 0.07645787
v -0.04015838 0.01063606 0.07636560
v -0.04318846 0.00675720 0.07732789
v -0.04323440 0.00523714 0.07767062
v -0.04622084 0.00524344 0.07720925
v -0.04376967 0.00427661 0.07777607
v -0.04632192 0.00069693 0.07769698
v -0.04622084 0.00372759 0.07746630
v -0.04773473 0.00221278 0.07734107
v -0.04773473 0.00069693 0.07743334
v -0.04623922 -0.00008830 0.07771017
v -0.04111174 0.01060247 0.07631287
v -0.04164011 0.00988233 0.07653037
v -0.04318846 0.00950127 0.07647105
v -0.04318846 0.00827305 0.07689288
v -0.04286684 0.01063606 0.01149679
v -0.04167457 -0.00008830 0.01338841
v -0.04072121 0.01063606 0.07632605
v -0.04470465 0.00827305 0.07666219
v -0.04609679 0.00829090 0.07644469
v -0.04622084 0.00675720 0.07685992
v -0.04773473 0.00372759 0.07716970
v -0.04773473 0.00524344 0.07690606
v -0.04705474 -0.00008830 0.07755857
v -0.04886728 0.00221278 0.07705106
v -0.04886728 0.00108219 0.07712356
v -0.04773473 -0.00008830 0.07742675
v -0.04886728 0.00069693 0.07714334
v -0.04886728 -0.00008830 0.07714334
v -0.04107498 0.01063606 0.07629969
v -0.04114390 0.01063606 0.07629310
v -0.04200078 0.01063606 0.07618105
v -0.04212253 0.01045025 0.07624696
v -0.04318846 0.01025920 0.07617446
v -0.04470465 0.00920944 0.07635901
v -0.04551099 0.00904987 0.07629310
v -0.04320684 0.01063606 0.01152975
v -0.04318846 -0.00008830 0.01350046
v -0.04731893 0.00779751 0.07637878
v -0.04652178 0.00880738 0.07621401
v -0.04778986 0.00680968 0.07652378
v -0.04886728 0.00411285 0.07681379
v -0.04886728 0.00372759 0.07687970
v -0.04880296 0.00633834 0.07637878
v -0.04886728 0.00524239 0.07660287
v -0.04886728 -0.00008830 0.03173781
v -0.04318846 0.01063606 0.07600309
v -0.04470465 0.01063606 0.07577241
v -0.04470465 0.00996736 0.07605582
v -0.04609679 0.00964824 0.07595695
v -0.04428655 0.01063606 0.01178020
v -0.04377196 -0.00008830 0.01367842
v -0.04778986 0.00829090 0.07608877
v -0.04832972 0.00734926 0.07624037
v -0.04773473 0.00978891 0.07554172
v -0.04886728 0.00640133 0.07633923
v -0.04886728 0.00630160 0.07636560
v -0.04886728 0.00619242 0.07639196
v -0.04886728 0.00704588 0.07616787
v -0.04886728 0.01063606 0.05265111
v -0.04884430 0.01063606 0.02098126
v -0.04869499 0.01063606 0.01799553
v -0.04742920 -0.00008830 0.01946533
v -0.04621854 0.01063606 0.07550877
v -0.04470465 0.01063606 0.01195816
v -0.04457370 -0.00008830 0.01393546
v -0.04886728 0.00827725 0.07579218
v -0.04700191 0.01063606 0.07533740
v -0.04773473 0.01063606 0.07516603
v -0.04882823 0.01063606 0.07487603
v -0.04886728 0.01062662 0.07486944
v -0.04886728 0.01005974 0.07510671
v -0.04886728 0.00983510 0.07519899
v -0.04886728 0.00865831 0.07564718
v -0.04886728 0.01063606 0.07486285
v -0.04717650 -0.00008830 0.01794280
v -0.04825391 0.01063606 0.01643346
v -0.04699272 -0.00008830 0.01714529
v -0.04525140 0.01063606 0.01220862
v -0.04525599 -0.00008830 0.01430456
v -0.04774852 0.01063606 0.01496366
v -0.04671245 -0.00008830 0.01640710
v -0.04563963 0.01063606 0.01247226
v -0.04552018 -0.00008830 0.01458139
v -0.04682502 0.01063606 0.01352023
v -0.04588314 -0.00008830 0.01499003
f 1 2 3
f 1 3 4
f 1 4 9
f 1 9 19
f 1 19 32
f 1 32 47
f 1 47 69
f 1 69 89
f 1 89 70
f 1 70 50
f 1 50 48
f 1 48 34
f 1 34 33
f 1 33 21
f 1 21 20
f 1 20 10
f 1 10 5
f 1 5 6
f 1 6 2
f 2 6 7
f 2 7 8
f 2 8 3
f 3 8 16
f 3 16 29
f 3 29 41
f 3 41 58
f 3 58 77
f 3 77 93
f 3 93 95
f 3 95 112
f 3 112 124
f 3 124 123
f 3 123 141
f 3 141 154
f 3 154 157
f 3 157 159
f 3 159 176
f 3 176 193
f 3 193 206
f 3 206 208
f 3 208 212
f 3 212 216
f 3 216 214
f 3 214 210
f 3 210 196
f 3 196 182
f 3 182 168
f 3 168 147
f 3 147 128
f 3 128 106
f 3 106 86
f 3 86 65
f 3 65 64
f 3 64 62
f 3 62 44
f 3 44 30
f 3 30 17
f 3 17 9
f 3 9 4
f 5 10 6
f 6 10 20
f 6 20 11
f 6 11 12
f 6 12 13
f 6 13 7
f 7 14 16
f 7 16 8
f 7 13 15
f 7 15 14
f 9 17 18
f 9 18 19
f 11 20 21
f 11 21 22
f 11 22 24
f 11 24 12
f 12 23 15
f 12 15 13
f 12 24 36
f 12 36 23
f 14 25 29
f 14 29 16
f 14 15 25
f 15 23 26
f 15 26 27
f 15 27 28
f 15 28 25
f 17 30 31
f 17 31 18
f 18 31 45
f 18 45 63
f 18 63 85
f 18 85 105
f 18 105 127
f 18 127 146
f 18 146 167
f 18 167 181
f 18 181 195
f 18 195 209
f 18 209 213
f 18 213 215
f 18 215 211
f 18 211 207
f 18 207 192
f 18 192 191
f 18 191 190
f 18 190 205
f 18 205 200
f 18 200 199
f 18 199 198
f 18 198 194
f 18 194 178
f 18 178 177
f 18 177 162
f 18 162 161
f 18 161 160
f 18 160 148
f 18 148 132
f 18 132 131
f 18 131 130
f 18 130 129
f 18 129 111
f 18 111 110
f 18 110 108
f 18 108 107
f 18 107 88
f 18 88 66
f 18 66 46
f 18 46 32
f 18 32 19
f 21 33 22
f 22 33 34
f 22 34 35
f 22 35 24
f 23 36 26
f 24 35 37
f 24 37 38
f 24 38 36
f 25 28 39
f 25 39 40
f 25 40 41
f 25 41 29
f 26 36 42
f 26 42 27
f 27 43 39
f 27 39 28
f 27 42 43
f 30 44 31
f 31 44 45
f 32 46 47
f 34 48 49
f 34 49 35
f 35 49 50
f 35 50 51
f 35 51 52
f 35 52 37
f 36 38 42
f 37 52 53
f 37 53 38
f 38 53 76
f 38 76 54
f 38 54 42
f 39 55 40
f 39 43 56
f 39 56 57
f 39 57 55
f 40 55 77
f 40 77 58
f 40 58 41
f 42 54 59
f 42 59 60
f 42 60 61
f 42 61 43
f 43 61 79
f 43 79 56
f 44 62 45
f 45 62 64
f 45 64 65
f 45 65 63
f 46 66 67
f 46 67 47
f 47 67 68
f 47 68 69
f 48 50 49
f 50 70 71
f 50 71 51
f 51 71 68
f 51 68 72
f 51 72 52
f 52 72 53
f 53 72 73
f 53 73 74
f 53 74 75
f 53 75 76
f 54 76 82
f 54 82 59
f 55 57 78
f 55 78 93
f 55 93 77
f 56 79 80
f 56 80 57
f 57 80 99
f 57 99 81
f 57 81 94
f 57 94 78
f 59 82 83
f 59 83 60
f 60 83 104
f 60 104 84
f 60 84 61
f 61 84 79
f 63 65 86
f 63 86 85
f 66 87 67
f 66 88 87
f 67 87 72
f 67 72 68
f 68 89 69
f 68 71 70
f 68 70 89
f 72 87 90
f 72 90 73
f 73 90 74
f 74 90 75
f 75 90 91
f 75 91 109
f 75 109 92
f 75 92 83
f 75 83 82
f 75 82 76
f 78 94 95
f 78 95 93
f 79 96 80
f 79 84 97
f 79 97 96
f 80 96 98
f 80 98 99
f 81 99 100
f 81 100 101
f 81 101 94
f 83 92 102
f 83 102 103
f 83 103 104
f 84 104 97
f 85 86 106
f 85 106 105
f 87 88 107
f 87 107 90
f 90 107 108
f 90 108 91
f 91 108 110
f 91 110 111
f 91 111 109
f 92 109 102
f 94 112 95
f 94 101 124
f 94 124 112
f 96 97 98
f 97 113 98
f 97 104 114
f 97 114 115
f 97 115 113
f 98 113 116
f 98 116 99
f 99 116 117
f 99 117 100
f 100 118 101
f 100 117 119
f 100 119 120
f 100 120 121
f 100 121 118
f 101 118 122
f 101 122 123
f 101 123 124
f 102 109 103
f 103 115 114
f 103 114 104
f 103 109 125
f 103 125 126
f 103 126 115
f 105 106 127
f 106 128 127
f 109 111 129
f 109 129 130
f 109 130 131
f 109 131 132
f 109 132 125
f 113 115 133
f 113 133 116
f 115 126 133
f 116 133 134
f 116 134 135
f 116 135 136
f 116 136 117
f 117 136 119
f 118 121 137
f 118 137 122
f 119 136 138
f 119 138 120
f 120 138 121
f 121 138 139
f 121 139 140
f 121 140 137
f 122 137 123
f 123 137 141
f 125 132 142
f 125 142 143
f 125 143 126
f 126 143 144
f 126 144 145
f 126 145 133
f 127 128 147
f 127 147 146
f 132 148 142
f 133 135 134
f 133 145 149
f 133 149 150
f 133 150 151
f 133 151 135
f 135 152 138
f 135 138 136
f 135 151 153
f 135 153 152
f 137 140 154
f 137 154 141
f 138 152 139
f 139 152 173
f 139 173 155
f 139 155 156
f 139 156 140
f 140 157 154
f 140 156 158
f 140 158 159
f 140 159 157
f 142 148 160
f 142 160 161
f 142 161 162
f 142 162 163
f 142 163 143
f 143 163 144
f 144 163 164
f 144 164 165
f 144 165 145
f 145 165 166
f 145 166 149
f 146 147 168
f 146 168 167
f 149 166 150
f 150 169 151
f 150 166 170
f 150 170 169
f 151 169 171
f 151 171 153
f 152 153 172
f 152 172 173
f 153 171 174
f 153 174 175
f 153 175 172
f 155 173 172
f 155 172 175
f 155 175 188
f 155 188 187
f 155 187 186
f 155 186 189
f 155 189 197
f 155 197 204
f 155 204 203
f 155 203 202
f 155 202 201
f 155 201 205
f 155 205 190
f 155 190 176
f 155 176 159
f 155 159 158
f 155 158 156
f 162 164 163
f 162 177 164
f 164 177 178
f 164 178 179
f 164 179 165
f 165 179 166
f 166 179 180
f 166 180 170
f 167 168 181
f 168 182 181
f 169 170 183
f 169 183 184
f 169 184 171
f 170 180 185
f 170 185 183
f 171 184 174
f 174 186 187
f 174 187 188
f 174 188 175
f 174 184 189
f 174 189 186
f 176 190 191
f 176 191 192
f 176 192 193
f 178 194 180
f 178 180 179
f 180 194 185
f 181 182 196
f 181 196 195
f 183 185 197
f 183 197 184
f 184 197 189
f 185 194 198
f 185 198 199
f 185 199 200
f 185 200 201
f 185 201 202
f 185 202 203
f 185 203 204
f 185 204 197
f 192 206 193
f 192 207 208
f 192 208 206
f 195 196 209
f 196 210 209
f 200 205 201
f 207 211 208
f 208 211 212
f 209 210 213
f 210 214 215
f 210 215 213
f 211 216 212
f 211 215 216
f 214 216 215

