# https://github.com/mikedh/trimesh
v 0.06074760 -0.02500710 0.02704380
v 0.06137661 -0.02472659 0.02704380
v 0.06074760 -0.02500466 0.03007569
v 0.06074760 -0.02499490 0.01277530
v 0.06137661 -0.02471439 0.01188438
v 0.06218069 -0.02433388 0.02552441
v 0.06218224 -0.02433388 0.02704380
v 0.06137661 -0.02472415 0.03007569
v 0.06217140 -0.02432900 0.01037190
v 0.06074760 -0.02500222 0.03158817
v 0.06074760 -0.02499246 0.01037190
v 0.06137661 -0.02471195 0.01037190
v 0.06293675 -0.02390702 0.02401192
v 0.06293830 -0.02390702 0.02552441
v 0.06293985 -0.02390702 0.02704380
v 0.06293675 -0.02390946 0.02855629
v 0.06292745 -0.02391190 0.03158817
v 0.06217914 -0.02433388 0.02855629
v 0.06137661 -0.02472171 0.03158817
v 0.06216675 -0.02432656 0.00885250
v 0.06292900 -0.02389970 0.01037190
v 0.06074760 -0.02499978 0.03247219
v 0.06074760 -0.02498758 0.00885250
v 0.06137661 -0.02470707 0.00885250
v 0.06420097 -0.02315087 0.02704380
v 0.06419787 -0.02315331 0.03007569
v 0.06419632 -0.02315331 0.03158817
v 0.06418858 -0.02315087 0.03310066
v 0.06291661 -0.02390946 0.03310066
v 0.06216985 -0.02432656 0.03158817
v 0.06217605 -0.02433144 0.03007569
v 0.06137661 -0.02471683 0.03310066
v 0.06292435 -0.02389726 0.00885250
v 0.06215281 -0.02431680 0.00776820
v 0.06419013 -0.02314111 0.01037190
v 0.06419168 -0.02314355 0.01340378
v 0.06419787 -0.02314843 0.02249252
v 0.06074760 -0.02499734 0.03310066
v 0.06074760 -0.02497539 0.00822402
v 0.06074760 -0.02495587 0.00731929
v 0.06152224 -0.02460707 0.00729167
v 0.06494928 -0.02264108 0.01188438
v 0.06495703 -0.02264596 0.02552441
v 0.06495857 -0.02264596 0.02704380
v 0.06495548 -0.02264108 0.03158817
v 0.06495703 -0.02264596 0.02855629
v 0.06417773 -0.02314599 0.03462006
v 0.06290576 -0.02390458 0.03462006
v 0.06215900 -0.02432168 0.03310066
v 0.06137661 -0.02470707 0.03462006
v 0.06074760 -0.02499246 0.03399158
v 0.06418548 -0.02313867 0.00885250
v 0.06275083 -0.02396312 0.00729167
v 0.06416069 -0.02312404 0.00734001
v 0.06212337 -0.02430217 0.00675988
v 0.06494773 -0.02263864 0.01037190
v 0.06133788 -0.02465341 0.00582752
v 0.06074760 -0.02487294 0.00430813
v 0.06592378 -0.02192640 0.01037190
v 0.06592378 -0.02193859 0.02704380
v 0.06592378 -0.02193127 0.03007569
v 0.06592378 -0.02192395 0.03158817
v 0.06493534 -0.02262888 0.03462006
v 0.06592378 -0.02193615 0.02855629
v 0.06415604 -0.02313379 0.03613255
v 0.06289182 -0.02384360 0.03764503
v 0.06274464 -0.02396556 0.03604276
v 0.06214041 -0.02431193 0.03548335
v 0.06074760 -0.02498758 0.03462006
v 0.06151450 -0.02461195 0.03604276
v 0.06133013 -0.02467049 0.03764503
v 0.06074760 -0.02494368 0.03704418
v 0.06494308 -0.02263620 0.00885250
v 0.06289182 -0.02378994 0.00430813
v 0.06289182 -0.02383628 0.00582752
v 0.06491829 -0.02261912 0.00734001
v 0.06408477 -0.02307525 0.00430813
v 0.06205055 -0.02426558 0.00430813
v 0.06129295 -0.02462902 0.00430813
v 0.06074760 -0.02480464 0.00279564
v 0.06123563 -0.02459975 0.00279564
v 0.06592378 -0.02191908 0.00885250
v 0.06672787 -0.02131660 0.00885250
v 0.06673251 -0.02131904 0.01037190
v 0.06673251 -0.02132147 0.01188438
v 0.06673871 -0.02132635 0.02401192
v 0.06673871 -0.02132635 0.02704380
v 0.06673406 -0.02132147 0.03007569
v 0.06672941 -0.02131904 0.03158817
v 0.06673871 -0.02132391 0.02855629
v 0.06592378 -0.02189469 0.03462006
v 0.06491365 -0.02261669 0.03613255
v 0.06487646 -0.02259473 0.03764503
v 0.06483618 -0.02257278 0.03915752
v 0.06411886 -0.02310940 0.03764503
v 0.06407858 -0.02307769 0.03915752
v 0.06289182 -0.02378506 0.03915752
v 0.06203506 -0.02425826 0.03915752
v 0.06208774 -0.02428265 0.03764503
v 0.06127746 -0.02463634 0.03915752
v 0.06074760 -0.02493148 0.03764503
v 0.06289182 -0.02370213 0.00279564
v 0.06403675 -0.02304111 0.00279564
v 0.06488111 -0.02259229 0.00582752
v 0.06592378 -0.02188249 0.00734001
v 0.06484238 -0.02256546 0.00430813
v 0.06199323 -0.02420948 0.00279564
v 0.06074760 -0.02454121 0.00182875
v 0.06100633 -0.02448999 0.00185638
v 0.06670773 -0.02129952 0.00734001
v 0.06748547 -0.02061411 0.00885250
v 0.06749012 -0.02061899 0.01037190
v 0.06749167 -0.02062142 0.01340378
v 0.06749632 -0.02062874 0.02552441
v 0.06673406 -0.02132147 0.01340378
v 0.06749787 -0.02062874 0.02704380
v 0.06749632 -0.02062874 0.02855629
v 0.06748857 -0.02063118 0.03158817
v 0.06672012 -0.02130928 0.03310066
v 0.06830505 -0.01986771 0.03462006
v 0.06746533 -0.02062387 0.03462006
v 0.06670773 -0.02129952 0.03462006
v 0.06669378 -0.02128733 0.03574579
v 0.06607251 -0.02174833 0.03620161
v 0.06589435 -0.02183858 0.03764503
v 0.06585716 -0.02181419 0.03915752
v 0.06579674 -0.02177029 0.04067692
v 0.06476646 -0.02252887 0.04067692
v 0.06400886 -0.02302403 0.04067692
v 0.06289182 -0.02369481 0.04067692
v 0.06195605 -0.02422167 0.04067692
v 0.06074760 -0.02487294 0.03915752
v 0.06074760 -0.02489489 0.03859120
v 0.06186464 -0.02418021 0.04218941
v 0.06119689 -0.02458755 0.04067692
v 0.06074760 -0.02479245 0.04067692
v 0.06388802 -0.02294598 0.00188400
v 0.06479435 -0.02251912 0.00279564
v 0.06587731 -0.02180687 0.00430813
v 0.06606477 -0.02172638 0.00588968
v 0.06289182 -0.02321429 0.00175969
v 0.06074760 -0.02360212 0.00155250
v 0.06145873 -0.02364602 0.00166300
v 0.06746533 -0.02059703 0.00734001
v 0.06668758 -0.02128245 0.00644219
v 0.06829575 -0.01985796 0.00885250
v 0.06830040 -0.01986040 0.01037190
v 0.06830040 -0.01986284 0.01188438
v 0.06830814 -0.01987015 0.02401192
v 0.06830969 -0.01987015 0.02552441
v 0.06831124 -0.01987259 0.03158817
v 0.06830969 -0.01987015 0.03310066
v 0.06906575 -0.01906034 0.03310066
v 0.06906110 -0.01905059 0.03462006
v 0.06904871 -0.01904083 0.03613255
v 0.06829265 -0.01985552 0.03613255
v 0.06729491 -0.02074339 0.03620161
v 0.06667519 -0.02127269 0.03674721
v 0.06661477 -0.02122147 0.03915752
v 0.06655434 -0.02117268 0.04067692
v 0.06570533 -0.02170443 0.04218941
v 0.06467970 -0.02246302 0.04218941
v 0.06392055 -0.02296549 0.04218941
v 0.06289182 -0.02359480 0.04218941
v 0.06110704 -0.02453389 0.04218941
v 0.06289182 -0.02344601 0.04370189
v 0.06172056 -0.02410459 0.04370189
v 0.06096295 -0.02446316 0.04370189
v 0.06074760 -0.02469732 0.04218941
v 0.06439928 -0.02206299 0.00168372
v 0.06558294 -0.02157759 0.00182184
v 0.06658378 -0.02118488 0.00279564
v 0.06582463 -0.02176053 0.00279564
v 0.06663491 -0.02123854 0.00430813
v 0.06666280 -0.02126293 0.00542696
v 0.06289182 -0.02203372 0.00143509
v 0.06074760 -0.02203372 0.00137984
v 0.06137661 -0.02203372 0.00137984
v 0.06827716 -0.01983844 0.00734001
v 0.06819659 -0.01976283 0.00354153
v 0.06821364 -0.01977747 0.00430813
v 0.06743899 -0.02049703 0.00430813
v 0.06905335 -0.01905546 0.00885250
v 0.06905645 -0.01906034 0.01037190
v 0.06905955 -0.01906278 0.01491627
v 0.06906575 -0.01907010 0.02704380
v 0.06906730 -0.01906522 0.03158817
v 0.06976603 -0.01830907 0.03158817
v 0.06976138 -0.01830175 0.03310066
v 0.06974434 -0.01828468 0.03613255
v 0.06972884 -0.01826760 0.03732044
v 0.06826167 -0.01982625 0.03764503
v 0.06743899 -0.02055801 0.03764503
v 0.06743899 -0.02048727 0.03915752
v 0.06819815 -0.01976283 0.03993794
v 0.06756293 -0.02028482 0.04053879
v 0.06732125 -0.02034092 0.04218941
v 0.06722829 -0.02026774 0.04370189
v 0.06636998 -0.02102389 0.04370189
v 0.06561238 -0.02162881 0.04370189
v 0.06456350 -0.02238496 0.04370189
v 0.06380590 -0.02288987 0.04370189
v 0.06370365 -0.02282646 0.04472403
v 0.06359675 -0.02276060 0.04573236
v 0.06301112 -0.02317038 0.04522129
v 0.06272294 -0.02312892 0.04673378
v 0.06155013 -0.02399971 0.04522129
v 0.06074760 -0.02431436 0.04611911
v 0.06074760 -0.02437047 0.04562186
v 0.06074760 -0.02441925 0.04514532
v 0.06074760 -0.02456072 0.04370189
v 0.06074760 -0.02458755 0.04340492
v 0.06602294 -0.02061899 0.00164228
v 0.06714618 -0.02017993 0.00182184
v 0.06815632 -0.01972136 0.00253320
v 0.06440858 -0.02051898 0.00137984
v 0.06592378 -0.01294285 0.00137293
v 0.06074760 -0.01748706 0.00137984
v 0.06903321 -0.01903595 0.00734001
v 0.06968082 -0.01821150 0.00430813
v 0.06894025 -0.01900424 0.00430813
v 0.06962814 -0.01816028 0.00279564
v 0.06975518 -0.01829688 0.00885250
v 0.06975983 -0.01830175 0.01037190
v 0.06973814 -0.01827736 0.00734001
v 0.06976138 -0.01830419 0.01340378
v 0.06976758 -0.01831151 0.02552441
v 0.06976758 -0.01831151 0.02704380
v 0.07042912 -0.01748706 0.03158817
v 0.07043532 -0.01748706 0.02704380
v 0.07043377 -0.01748706 0.02855629
v 0.07041828 -0.01748706 0.03310066
v 0.07038419 -0.01748706 0.03613255
v 0.07021532 -0.01763829 0.03774863
v 0.06970716 -0.01824321 0.03832876
v 0.06915406 -0.01886521 0.03774863
v 0.06969011 -0.01822126 0.03915752
v 0.06895575 -0.01900424 0.03915752
v 0.06821983 -0.01978478 0.03915752
v 0.06965138 -0.01817735 0.04067692
v 0.06875434 -0.01912864 0.04053879
v 0.06815166 -0.01971648 0.04094627
v 0.06807885 -0.01964575 0.04218941
v 0.06798589 -0.01955062 0.04370189
v 0.06710899 -0.02015798 0.04522129
v 0.06623209 -0.02091657 0.04522129
v 0.06547449 -0.02151173 0.04522129
v 0.06428928 -0.02235569 0.04522129
v 0.06348055 -0.02268986 0.04673378
v 0.06126351 -0.02394361 0.04671306
v 0.06249365 -0.02299720 0.04825317
v 0.06074760 -0.02429485 0.04625033
v 0.06756603 -0.01913108 0.00164228
v 0.06862265 -0.01871154 0.00182184
v 0.07004180 -0.01715533 0.00181494
v 0.06592378 -0.01900424 0.00137984
v 0.07349982 -0.00688145 0.00137984
v 0.07198306 -0.01142811 0.00137984
v 0.06895265 -0.01597232 0.00137984
v 0.06592378 -0.00008830 0.00137984
v 0.07349982 -0.00008830 0.00137984
v 0.06074760 -0.01594793 0.00149034
v 0.06510885 -0.00008830 0.00154559
v 0.06970096 -0.01823346 0.00533717
v 0.07024786 -0.01740413 0.00279564
v 0.07029898 -0.01745535 0.00430813
v 0.07143307 -0.01551619 0.00184947
v 0.07041208 -0.01748706 0.00885250
v 0.07037955 -0.01748706 0.00734001
v 0.07041983 -0.01748706 0.01037190
v 0.07042448 -0.01748706 0.01491627
v 0.07042138 -0.01748706 0.01188438
v 0.07113095 -0.01660164 0.03158817
v 0.07112631 -0.01659432 0.03310066
v 0.07113405 -0.01660407 0.02855629
v 0.07113560 -0.01660407 0.02704380
v 0.07112940 -0.01659676 0.01188438
v 0.07110772 -0.01656993 0.03613255
v 0.07028969 -0.01746511 0.03915752
v 0.07108448 -0.01653822 0.03764503
v 0.07025405 -0.01741877 0.04067692
v 0.07019054 -0.01733339 0.04218941
v 0.06957702 -0.01809198 0.04218941
v 0.06881941 -0.01888716 0.04218941
v 0.06872025 -0.01879447 0.04370189
v 0.06861645 -0.01868227 0.04522129
v 0.06786660 -0.01944086 0.04522129
v 0.06769927 -0.01928963 0.04673378
v 0.06694167 -0.02000431 0.04673378
v 0.06605702 -0.02076046 0.04673378
v 0.06519716 -0.02129952 0.04761088
v 0.06529942 -0.02137758 0.04673378
v 0.06440858 -0.02203128 0.04673378
v 0.06449534 -0.02169711 0.04817030
v 0.06325125 -0.02254107 0.04825317
v 0.06137661 -0.02360456 0.04825317
v 0.06074760 -0.02408264 0.04748657
v 0.06074760 -0.02416069 0.04704456
v 0.06210013 -0.02277280 0.05043558
v 0.06905645 -0.01759195 0.00164228
v 0.07051588 -0.01600159 0.00166300
v 0.07428377 -0.00008830 0.00139365
v 0.07501503 -0.00082005 0.00140747
v 0.07349982 -0.00839863 0.00140056
v 0.07198306 -0.01294285 0.00153178
v 0.07046786 -0.01445758 0.00140747
v 0.06074760 -0.01470150 0.00175278
v 0.06444576 -0.00008830 0.00171134
v 0.07100546 -0.01645284 0.00279564
v 0.07105659 -0.01649675 0.00430813
v 0.07108293 -0.01653334 0.00582752
v 0.07110927 -0.01656749 0.00734001
v 0.07294827 -0.01294285 0.00186328
v 0.07275616 -0.01372583 0.00201522
v 0.07155856 -0.01569426 0.00279564
v 0.07195673 -0.01432099 0.00178731
v 0.07112476 -0.01658944 0.00885250
v 0.07112786 -0.01659432 0.01037190
v 0.07166236 -0.01584305 0.03158817
v 0.07165926 -0.01583817 0.03310066
v 0.07166391 -0.01584792 0.02704380
v 0.07166391 -0.01584548 0.02401192
v 0.07165771 -0.01583817 0.01037190
v 0.07163912 -0.01581378 0.03613255
v 0.07161743 -0.01577963 0.03764503
v 0.07101166 -0.01643821 0.04067692
v 0.07094814 -0.01635040 0.04218941
v 0.07000772 -0.01709435 0.04522129
v 0.06947786 -0.01797246 0.04370189
v 0.06937251 -0.01785050 0.04522129
v 0.06847237 -0.01853104 0.04673378
v 0.06829575 -0.01835054 0.04825317
v 0.06667829 -0.01975795 0.04899906
v 0.06593773 -0.02053362 0.04830842
v 0.06505773 -0.02119951 0.04862612
v 0.06410492 -0.02159223 0.04976566
v 0.06074760 -0.02393385 0.04825317
v 0.06150830 -0.02320697 0.04986235
v 0.06381984 -0.02139465 0.05128506
v 0.06366956 -0.02128976 0.05207929
v 0.06189872 -0.02265571 0.05128506
v 0.06114112 -0.02307038 0.05128506
v 0.06074760 -0.02359480 0.04987616
v 0.07501503 -0.00008830 0.00140747
v 0.07501503 -0.00233479 0.00144200
v 0.07606700 -0.00082005 0.00173897
v 0.07349982 -0.00991337 0.00155940
v 0.07501503 -0.00385197 0.00151106
v 0.07463081 -0.00839863 0.00173206
v 0.07350447 -0.01128175 0.00177350
v 0.06074760 -0.01410146 0.00279564
v 0.06377027 -0.00008830 0.00279564
v 0.06392520 -0.00008830 0.00254011
v 0.07159109 -0.01573816 0.00430813
v 0.07161588 -0.01577475 0.00582752
v 0.07163912 -0.01580890 0.00734001
v 0.07165462 -0.01583329 0.00885250
v 0.07440461 -0.00991337 0.00189091
v 0.07426052 -0.01067927 0.00202904
v 0.07320081 -0.01294285 0.00279564
v 0.07278095 -0.01376729 0.00279564
v 0.07231616 -0.01452344 0.00279564
v 0.07234870 -0.01457223 0.00430813
v 0.07241996 -0.01468687 0.03158817
v 0.07241687 -0.01468199 0.03310066
v 0.07242306 -0.01468931 0.02704380
v 0.07242151 -0.01468931 0.02855629
v 0.07241532 -0.01467711 0.01037190
v 0.07241532 -0.01467955 0.01188438
v 0.07241841 -0.01468199 0.01643566
v 0.07239673 -0.01465760 0.03613255
v 0.07237503 -0.01462589 0.03764503
v 0.07154306 -0.01567962 0.04067692
v 0.07148264 -0.01559181 0.04218941
v 0.07139278 -0.01546253 0.04370189
v 0.07076532 -0.01608697 0.04522129
v 0.06987448 -0.01692849 0.04673378
v 0.06922842 -0.01768708 0.04673378
v 0.06820279 -0.01825297 0.04902668
v 0.06750561 -0.01876032 0.04962754
v 0.06654505 -0.01964331 0.04976566
v 0.06578745 -0.02029213 0.04976566
v 0.06486252 -0.02105072 0.04976566
v 0.06074760 -0.02381189 0.04884021
v 0.06457900 -0.02081656 0.05128506
v 0.06509956 -0.01970917 0.05339840
v 0.06341393 -0.02111414 0.05309452
v 0.06290111 -0.02159223 0.05267323
v 0.06135957 -0.02247521 0.05289423
v 0.06084366 -0.02291183 0.05245223
v 0.06074760 -0.02299232 0.05233482
v 0.06074760 -0.02327039 0.05128506
v 0.06074760 -0.02336796 0.05086377
v 0.07606700 -0.00008830 0.00173897
v 0.07602207 -0.00233479 0.00177350
v 0.07624052 -0.00008830 0.00228457
v 0.07640164 -0.00008830 0.00279564
v 0.07640010 -0.00082005 0.00279564
v 0.07594461 -0.00385197 0.00183566
v 0.07585629 -0.00501791 0.00193235
v 0.06074760 -0.00008830 0.03430237
v 0.07239673 -0.01464784 0.00734001
v 0.07241222 -0.01467223 0.00885250
v 0.07507545 -0.00839863 0.00279564
v 0.07458588 -0.00991337 0.00279564
v 0.07427757 -0.01071830 0.00279564
v 0.07391968 -0.01147445 0.00279564
v 0.07326898 -0.01294285 0.00430813
v 0.07280884 -0.01381364 0.00430813
v 0.07287701 -0.01393072 0.03158817
v 0.07287391 -0.01392340 0.03310066
v 0.07285996 -0.01389901 0.03613255
v 0.07287546 -0.01392828 0.02098003
v 0.07287856 -0.01393072 0.02704380
v 0.07287081 -0.01392096 0.01037190
v 0.07284137 -0.01386730 0.03764503
v 0.07280729 -0.01381120 0.03915752
v 0.07233785 -0.01456979 0.03915752
v 0.07230067 -0.01450393 0.04067692
v 0.07203884 -0.01445758 0.04370189
v 0.07231461 -0.01431123 0.04207200
v 0.07130138 -0.01532838 0.04522129
v 0.07124715 -0.01524544 0.04608458
v 0.06976293 -0.01679433 0.04772829
v 0.07070180 -0.01584061 0.04664400
v 0.06914631 -0.01737486 0.04823936
v 0.06964828 -0.01665042 0.04873662
v 0.06865519 -0.01754804 0.04962754
v 0.06805561 -0.01809442 0.05004192
v 0.06708265 -0.01863592 0.05128506
v 0.06626773 -0.01939207 0.05128506
v 0.06551012 -0.02005797 0.05128506
v 0.06529942 -0.01987503 0.05239007
v 0.06597801 -0.01906278 0.05294258
v 0.06665815 -0.01822126 0.05349509
v 0.06570998 -0.01875300 0.05431003
v 0.06485632 -0.01950915 0.05431003
v 0.06409872 -0.02011163 0.05431003
v 0.06290111 -0.02094584 0.05445507
v 0.06212492 -0.02127025 0.05505592
v 0.06240224 -0.02144587 0.05404069
v 0.06074760 -0.02269718 0.05332933
v 0.06152224 -0.02184346 0.05445507
v 0.06074760 -0.02294598 0.05250057
v 0.07630714 -0.00233479 0.00279564
v 0.07645897 -0.00008830 0.00430813
v 0.07645742 -0.00082005 0.00430813
v 0.07574010 -0.00604481 0.00279564
v 0.07614911 -0.00385197 0.00279564
v 0.07591362 -0.00528866 0.00279564
v 0.06074760 -0.00008830 0.07192811
v 0.07285377 -0.01388925 0.00734001
v 0.07286771 -0.01391364 0.00885250
v 0.07516531 -0.00839863 0.00430813
v 0.07463855 -0.00991337 0.00430813
v 0.07430236 -0.01077440 0.00430813
v 0.07395996 -0.01153055 0.00430813
v 0.07398165 -0.01157934 0.00582752
v 0.07335729 -0.01294285 0.00734001
v 0.07340222 -0.01294285 0.03158817
v 0.07339447 -0.01294285 0.03310066
v 0.07336503 -0.01294285 0.03613255
v 0.07339602 -0.01294285 0.01643566
v 0.07340067 -0.01294285 0.02249252
v 0.07340377 -0.01294285 0.02704380
v 0.07338517 -0.01294285 0.00885250
v 0.07338982 -0.01294285 0.01037190
v 0.07339137 -0.01294285 0.01188438
v 0.07339447 -0.01294285 0.01491627
v 0.07332940 -0.01294285 0.03764503
v 0.07326433 -0.01294285 0.03915752
v 0.07276855 -0.01374534 0.04067692
v 0.07274687 -0.01370875 0.04149187
v 0.07269729 -0.01362094 0.04250019
v 0.07185447 -0.01445758 0.04522129
v 0.07158799 -0.01453564 0.04664400
v 0.07114490 -0.01509421 0.04709291
v 0.07017969 -0.01607477 0.04823936
v 0.07008053 -0.01573084 0.04976566
v 0.06952124 -0.01648699 0.04976566
v 0.06853279 -0.01710655 0.05128506
v 0.06784026 -0.01786514 0.05128506
v 0.06685181 -0.01841640 0.05248676
v 0.06719575 -0.01727973 0.05431003
v 0.06646758 -0.01803832 0.05431003
v 0.06749632 -0.01755048 0.05294258
v 0.06813927 -0.01666018 0.05340530
v 0.06540942 -0.01846762 0.05550483
v 0.06352393 -0.01966282 0.05636122
v 0.06380900 -0.01988479 0.05535289
v 0.06296774 -0.02030677 0.05585015
v 0.06074760 -0.02206299 0.05512498
v 0.06074760 -0.02233862 0.05436529
v 0.06188013 -0.02110926 0.05582943
v 0.06112253 -0.02158247 0.05582943
v 0.06074760 -0.02258741 0.05364703
v 0.07636137 -0.00233479 0.00430813
v 0.07653333 -0.00008830 0.00734001
v 0.07653179 -0.00082005 0.00734001
v 0.07576953 -0.00611554 0.00363131
v 0.07619869 -0.00385197 0.00430813
v 0.07598179 -0.00536671 0.00582752
v 0.07591052 -0.00551306 0.00420453
v 0.06074760 -0.00082005 0.07192120
v 0.06157802 -0.00082005 0.07137560
v 0.06157957 -0.00008830 0.07137560
v 0.07562235 -0.00675705 0.00420453
v 0.07560531 -0.00698634 0.00582752
v 0.07562545 -0.00706439 0.00734001
v 0.07524587 -0.00839863 0.00734001
v 0.07472222 -0.00991337 0.00734001
v 0.07434419 -0.01086953 0.00734001
v 0.07400179 -0.01162568 0.00734001
v 0.07401573 -0.01165495 0.00885250
v 0.07402348 -0.01166959 0.03158817
v 0.07402503 -0.01167690 0.02704380
v 0.07402503 -0.01167446 0.02855629
v 0.07402039 -0.01165983 0.03310066
v 0.07400334 -0.01162080 0.03613255
v 0.07401884 -0.01166227 0.01037190
v 0.07402039 -0.01166471 0.01340378
v 0.07402348 -0.01167203 0.02098003
v 0.07398630 -0.01158178 0.03764503
v 0.07395531 -0.01150616 0.03915752
v 0.07318996 -0.01294285 0.04067692
v 0.07304278 -0.01304529 0.04207200
v 0.07303503 -0.01273551 0.04370189
v 0.07262912 -0.01349410 0.04370189
v 0.07253616 -0.01332336 0.04522129
v 0.07242151 -0.01312578 0.04673378
v 0.07150588 -0.01414049 0.04825317
v 0.07101630 -0.01489908 0.04825317
v 0.07083814 -0.01462101 0.04976566
v 0.06986673 -0.01543326 0.05128506
v 0.06928884 -0.01618941 0.05128506
v 0.06832828 -0.01687726 0.05239698
v 0.06795491 -0.01643821 0.05431003
v 0.06691998 -0.01698215 0.05551864
v 0.06855448 -0.01567962 0.05431003
v 0.06973039 -0.01524301 0.05209310
v 0.06602913 -0.01759439 0.05601590
v 0.06512435 -0.01820662 0.05651316
v 0.06413125 -0.01867251 0.05734192
v 0.06320787 -0.01943110 0.05734192
v 0.06245027 -0.01999943 0.05734192
v 0.06074760 -0.02180199 0.05582252
v 0.06133168 -0.02077997 0.05733501
v 0.06079563 -0.02138246 0.05681703
v 0.07643573 -0.00233479 0.00734001
v 0.07627460 -0.00385197 0.00734001
v 0.07623742 -0.00385197 0.00582752
v 0.07654573 -0.00008830 0.00812733
v 0.07655503 -0.00082005 0.00885250
v 0.07602052 -0.00536671 0.00734001
v 0.07578348 -0.00616921 0.00463963
v 0.06074760 -0.00093714 0.07191430
v 0.06148661 -0.00233479 0.07131344
v 0.06255872 -0.00233479 0.07055375
v 0.06263773 -0.00082005 0.07061590
v 0.06209084 -0.00008830 0.07100957
v 0.06074760 -0.00233479 0.07180380
v 0.07579897 -0.00622775 0.00582752
v 0.07581756 -0.00630580 0.00734001
v 0.07563784 -0.00711317 0.00885250
v 0.07527066 -0.00839863 0.00885250
v 0.07474700 -0.00991337 0.00885250
v 0.07435658 -0.01089880 0.00885250
v 0.07436278 -0.01091344 0.03007569
v 0.07436123 -0.01091100 0.03158817
v 0.07435813 -0.01090368 0.03310066
v 0.07436587 -0.01091831 0.02704380
v 0.07436433 -0.01091588 0.02249252
v 0.07433954 -0.01086221 0.03613255
v 0.07435968 -0.01090368 0.01037190
v 0.07436123 -0.01090612 0.01340378
v 0.07432250 -0.01082319 0.03764503
v 0.07428996 -0.01075001 0.03915752
v 0.07398010 -0.01129151 0.04064929
v 0.07382207 -0.01142811 0.04218941
v 0.07367025 -0.01142811 0.04370189
v 0.07294363 -0.01256477 0.04522129
v 0.07283982 -0.01237207 0.04673378
v 0.07276701 -0.01223548 0.04761088
v 0.07230377 -0.01281845 0.04817030
v 0.07132772 -0.01386242 0.04976566
v 0.07123475 -0.01371363 0.05055298
v 0.07108757 -0.01347215 0.05156822
v 0.07066152 -0.01431367 0.05114693
v 0.06833913 -0.01539911 0.05536671
v 0.06750406 -0.01604794 0.05594684
v 0.06664885 -0.01669432 0.05652697
v 0.06953983 -0.01497469 0.05310142
v 0.06938180 -0.01446490 0.05444125
v 0.07004800 -0.01446490 0.05268014
v 0.06566040 -0.01722363 0.05734192
v 0.06488885 -0.01798222 0.05734192
v 0.06382759 -0.01840908 0.05835024
v 0.06217760 -0.01978966 0.05815687
v 0.06074760 -0.02142880 0.05676869
v 0.06074760 -0.02073119 0.05817758
v 0.06074760 -0.02100682 0.05764580
v 0.06074760 -0.02139709 0.05684466
v 0.07645897 -0.00233479 0.00885250
v 0.07629939 -0.00385197 0.00885250
v 0.07655657 -0.00008830 0.00885250
v 0.07656123 -0.00082005 0.01037190
v 0.07604531 -0.00536671 0.00885250
v 0.06242083 -0.00385197 0.07045015
v 0.06074760 -0.00312021 0.07171401
v 0.06331633 -0.00233479 0.06993218
v 0.06339534 -0.00082005 0.07000124
v 0.06339689 -0.00008830 0.07000124
v 0.06263773 -0.00008830 0.07061590
v 0.07582995 -0.00635458 0.00885250
v 0.07564094 -0.00712293 0.01037190
v 0.07527686 -0.00839863 0.01037190
v 0.07475320 -0.00991337 0.01037190
v 0.07475939 -0.00991337 0.03158817
v 0.07475165 -0.00991337 0.03310066
v 0.07473461 -0.00991337 0.03462006
v 0.07476560 -0.00991337 0.02704380
v 0.07476404 -0.00991337 0.02855629
v 0.07475475 -0.00991337 0.01188438
v 0.07471601 -0.00991337 0.03613255
v 0.07468348 -0.00991337 0.03764503
v 0.07461996 -0.00991337 0.03915752
v 0.07424348 -0.01063781 0.04113964
v 0.07420785 -0.01055000 0.04218941
v 0.07413348 -0.01036218 0.04370189
v 0.07348898 -0.01142811 0.04522129
v 0.07328447 -0.01142811 0.04673378
v 0.07299940 -0.01146469 0.04817030
v 0.07264926 -0.01199400 0.04861921
v 0.07185912 -0.01294285 0.04976566
v 0.07150588 -0.01295748 0.05114693
v 0.07138969 -0.01246476 0.05247985
v 0.07092954 -0.01295748 0.05290805
v 0.06988687 -0.01396243 0.05401997
v 0.06969476 -0.01367460 0.05502829
v 0.06873265 -0.01452344 0.05585706
v 0.06808814 -0.01507470 0.05637503
v 0.06706406 -0.01566742 0.05734192
v 0.06679604 -0.01535033 0.05830880
v 0.06641801 -0.01642601 0.05734192
v 0.06535210 -0.01692117 0.05841240
v 0.06503449 -0.01659676 0.05942763
v 0.06344802 -0.01807491 0.05935857
v 0.06243633 -0.01848957 0.05999395
v 0.06281280 -0.01895546 0.05875772
v 0.06177323 -0.01950183 0.05916519
v 0.06074760 -0.01986528 0.05980748
v 0.06131154 -0.02006041 0.05873700
v 0.06074760 -0.02039702 0.05881297
v 0.07646517 -0.00233479 0.01037190
v 0.07630404 -0.00385197 0.01037190
v 0.07655967 -0.00008830 0.00963982
v 0.07656123 -0.00008830 0.01037190
v 0.07656277 -0.00008830 0.01115922
v 0.07656432 -0.00008830 0.01340378
v 0.07656432 -0.00082005 0.01491627
v 0.07604996 -0.00536671 0.01037190
v 0.07583305 -0.00636434 0.01037190
v 0.06124647 -0.00377636 0.07127201
v 0.06226436 -0.00500571 0.07032584
v 0.06317844 -0.00385197 0.06980786
v 0.06074760 -0.00330559 0.07168639
v 0.06401351 -0.00385197 0.06904816
v 0.06414675 -0.00233479 0.06917248
v 0.06422111 -0.00082005 0.06924154
v 0.06379506 -0.00008830 0.06963520
v 0.07564250 -0.00713025 0.01491627
v 0.07528460 -0.00839863 0.02098003
v 0.07528460 -0.00839863 0.03158817
v 0.07527841 -0.00839863 0.03310066
v 0.07526292 -0.00839863 0.03462006
v 0.07524587 -0.00839863 0.03613255
v 0.07528770 -0.00839863 0.02552441
v 0.07528770 -0.00839863 0.02855629
v 0.07528615 -0.00839863 0.03007569
v 0.07521489 -0.00839863 0.03764503
v 0.07515446 -0.00839863 0.03915752
v 0.07508320 -0.00839863 0.04067692
v 0.07449756 -0.01004508 0.04064929
v 0.07450376 -0.00979141 0.04218941
v 0.07443250 -0.00960603 0.04370189
v 0.07404362 -0.01013046 0.04522129
v 0.07365165 -0.00991337 0.04825317
v 0.07398165 -0.00980116 0.04669925
v 0.07286926 -0.01095002 0.04976566
v 0.07276855 -0.01073050 0.05064277
v 0.07251447 -0.01170861 0.04976566
v 0.07235335 -0.01131346 0.05120218
v 0.07170574 -0.01155007 0.05290805
v 0.07120067 -0.01213791 0.05348818
v 0.07027730 -0.01307700 0.05444125
v 0.07264771 -0.01044999 0.05165109
v 0.06999222 -0.01265258 0.05582943
v 0.06979856 -0.01233305 0.05675488
v 0.06951814 -0.01341117 0.05582943
v 0.06846153 -0.01406487 0.05706566
v 0.06788828 -0.01452344 0.05748004
v 0.06650632 -0.01499665 0.05931713
v 0.06592843 -0.01597476 0.05886822
v 0.06549618 -0.01558693 0.06006302
v 0.06512125 -0.01516495 0.06107825
v 0.06457280 -0.01614795 0.06058099
v 0.06362618 -0.01670652 0.06109897
v 0.06402435 -0.01706264 0.06009064
v 0.06255562 -0.01710167 0.06189320
v 0.06203351 -0.01816028 0.06100918
v 0.06139830 -0.01903351 0.06040143
v 0.06074760 -0.01936524 0.06065006
v 0.07630559 -0.00385197 0.01188438
v 0.07646827 -0.00233479 0.01491627
v 0.07657052 -0.00008830 0.02249252
v 0.07656742 -0.00082005 0.01946755
v 0.07647447 -0.00233479 0.02401192
v 0.07605150 -0.00536671 0.01188438
v 0.07583461 -0.00637166 0.01491627
v 0.06074760 -0.00408613 0.07154135
v 0.06209238 -0.00601798 0.07019462
v 0.06281900 -0.00545452 0.06971117
v 0.06380280 -0.00536671 0.06885479
v 0.06150211 -0.00545452 0.07072640
v 0.06537843 -0.00536671 0.06739064
v 0.06477111 -0.00385197 0.06834372
v 0.06490435 -0.00233479 0.06846803
v 0.06497871 -0.00082005 0.06853710
v 0.06458675 -0.00008830 0.06890313
v 0.06422266 -0.00008830 0.06924154
v 0.07583615 -0.00637898 0.01946755
v 0.07564559 -0.00714244 0.02401192
v 0.07564559 -0.00713757 0.03158817
v 0.07564094 -0.00712293 0.03310066
v 0.07563475 -0.00709122 0.03462006
v 0.07562700 -0.00705463 0.03613255
v 0.07564559 -0.00714488 0.02552441
v 0.07564559 -0.00714488 0.02855629
v 0.07561151 -0.00699609 0.03764503
v 0.07561306 -0.00675949 0.03915752
v 0.07551235 -0.00688145 0.04067692
v 0.07542869 -0.00688145 0.04218941
v 0.07499644 -0.00839863 0.04218941
v 0.07485390 -0.00839863 0.04370189
v 0.07433954 -0.00937187 0.04522129
v 0.07428222 -0.00922064 0.04616746
v 0.07421559 -0.00903526 0.04718269
v 0.07410870 -0.00872548 0.04825317
v 0.07330306 -0.00991337 0.04976566
v 0.07296377 -0.00993288 0.05120218
v 0.07247884 -0.00993288 0.05284589
v 0.07126419 -0.01074757 0.05517333
v 0.07104419 -0.01182813 0.05431003
v 0.07285377 -0.00944016 0.05236935
v 0.07075138 -0.01132322 0.05573965
v 0.07107053 -0.01031827 0.05618165
v 0.07002476 -0.01137201 0.05729357
v 0.06979701 -0.01083050 0.05826046
v 0.06952124 -0.01184033 0.05776321
v 0.06823223 -0.01224280 0.05968317
v 0.06818110 -0.01367704 0.05807399
v 0.06716786 -0.01447710 0.05883369
v 0.06688744 -0.01398438 0.05993870
v 0.06602294 -0.01457467 0.06050502
v 0.06370985 -0.01527715 0.06272196
v 0.06404139 -0.01562352 0.06189320
v 0.06655125 -0.01352825 0.06094703
v 0.06554111 -0.01415512 0.06161004
v 0.06402745 -0.01436977 0.06330209
v 0.06331323 -0.01638211 0.06189320
v 0.06221478 -0.01680409 0.06273577
v 0.06146802 -0.01791148 0.06201060
v 0.06102337 -0.01856762 0.06158241
v 0.06074760 -0.01897253 0.06127163
v 0.07631488 -0.00385197 0.02552441
v 0.07657362 -0.00008830 0.02704380
v 0.07657207 -0.00082005 0.02704380
v 0.07647601 -0.00233479 0.02704380
v 0.07606081 -0.00536671 0.02552441
v 0.06074760 -0.00539842 0.07123747
v 0.06189097 -0.00688145 0.07004268
v 0.06293675 -0.00676193 0.06918629
v 0.06367111 -0.00617896 0.06873047
v 0.06074760 -0.00614481 0.07103029
v 0.06074760 -0.00691316 0.07080928
v 0.06113337 -0.00688145 0.07056065
v 0.06522660 -0.00628141 0.06725252
v 0.06613604 -0.00536671 0.06662404
v 0.06634364 -0.00385197 0.06684504
v 0.06558604 -0.00385197 0.06758402
v 0.06571773 -0.00233479 0.06770833
v 0.06579054 -0.00082005 0.06777740
v 0.06537223 -0.00008830 0.06817106
v 0.06498027 -0.00008830 0.06853710
v 0.07583770 -0.00638385 0.02401192
v 0.07583461 -0.00637898 0.03158817
v 0.07583151 -0.00636434 0.03310066
v 0.07583770 -0.00638629 0.02855629
v 0.07582376 -0.00633263 0.03462006
v 0.07581446 -0.00629848 0.03613255
v 0.07580052 -0.00623994 0.03764503
v 0.07583770 -0.00638629 0.02552441
v 0.07583770 -0.00638873 0.02704380
v 0.07578348 -0.00617165 0.03866027
v 0.07576024 -0.00606920 0.03966859
v 0.07573700 -0.00595456 0.04067692
v 0.07569517 -0.00575698 0.04218941
v 0.07529080 -0.00688145 0.04370189
v 0.07511108 -0.00688145 0.04522129
v 0.07467264 -0.00839863 0.04522129
v 0.07446503 -0.00847668 0.04669925
v 0.07436743 -0.00796933 0.04825317
v 0.07427447 -0.00769126 0.04908884
v 0.07393982 -0.00827667 0.04966207
v 0.07352151 -0.00839863 0.05128506
v 0.07267715 -0.00898647 0.05337768
v 0.07194433 -0.00991337 0.05431003
v 0.07143771 -0.00985239 0.05573965
v 0.07305673 -0.00844741 0.05284589
v 0.07128898 -0.00930845 0.05672035
v 0.07076997 -0.00985239 0.05727285
v 0.06997828 -0.00981580 0.05879916
v 0.06951814 -0.01025729 0.05926879
v 0.06822913 -0.01073050 0.06118184
v 0.06842589 -0.01131346 0.06026330
v 0.06796110 -0.01334531 0.05886131
v 0.06792857 -0.01174276 0.06069149
v 0.06740801 -0.01288431 0.06031164
v 0.06373463 -0.01380388 0.06425516
v 0.06326210 -0.01481615 0.06373719
v 0.06691843 -0.01252087 0.06144428
v 0.06603378 -0.01309407 0.06203132
v 0.06514294 -0.01367216 0.06261836
v 0.06225196 -0.01532350 0.06426898
v 0.06169112 -0.01633332 0.06374410
v 0.06074760 -0.01675043 0.06418610
v 0.06074760 -0.01681384 0.06411704
v 0.06126196 -0.01708216 0.06330900
v 0.06074760 -0.01790416 0.06278411
v 0.06074760 -0.01814321 0.06247333
v 0.06074760 -0.01869446 0.06167910
v 0.07631488 -0.00385197 0.03007569
v 0.07657207 -0.00008830 0.02934361
v 0.07657207 -0.00082005 0.02855629
v 0.07647601 -0.00233479 0.02855629
v 0.07606081 -0.00536671 0.02855629
v 0.06135957 -0.00845473 0.06978714
v 0.06242238 -0.00839863 0.06897219
v 0.06084211 -0.00798641 0.07037418
v 0.06347125 -0.00718879 0.06854400
v 0.06502984 -0.00729123 0.06706604
v 0.06074760 -0.00803763 0.07041562
v 0.06588195 -0.00675705 0.06639613
v 0.06671392 -0.00622287 0.06571931
v 0.06683632 -0.00536671 0.06586434
v 0.06701759 -0.00385197 0.06608535
v 0.06647533 -0.00233479 0.06698317
v 0.06654815 -0.00082005 0.06705914
v 0.06615773 -0.00008830 0.06743208
v 0.06579209 -0.00008830 0.06777740
v 0.07605770 -0.00536671 0.03158817
v 0.07604996 -0.00536671 0.03310066
v 0.07605925 -0.00536671 0.03007569
v 0.07603291 -0.00536671 0.03462006
v 0.07601587 -0.00536671 0.03613255
v 0.07598644 -0.00536671 0.03764503
v 0.07590588 -0.00548623 0.03915752
v 0.07589348 -0.00519841 0.04067692
v 0.07585320 -0.00500083 0.04218941
v 0.07581136 -0.00479594 0.04327370
v 0.07564250 -0.00532768 0.04375024
v 0.07545968 -0.00536671 0.04522129
v 0.07492982 -0.00688145 0.04673378
v 0.07467108 -0.00688145 0.04825317
v 0.07437517 -0.00680584 0.04966207
v 0.07415827 -0.00726196 0.05009717
v 0.07401729 -0.00680584 0.05121599
v 0.07356179 -0.00688145 0.05279755
v 0.07286461 -0.00797665 0.05388875
v 0.07251292 -0.00844741 0.05435838
v 0.07198151 -0.00839863 0.05582943
v 0.07142532 -0.00827423 0.05727285
v 0.07124405 -0.00768638 0.05813615
v 0.07103955 -0.00869865 0.05772867
v 0.06975209 -0.00924747 0.05969007
v 0.06916955 -0.00981580 0.06027021
v 0.06950730 -0.00839863 0.06076746
v 0.06842124 -0.00991337 0.06145810
v 0.06810828 -0.00896452 0.06253549
v 0.06786969 -0.00991337 0.06221779
v 0.06644435 -0.01021583 0.06386150
v 0.06683787 -0.01092563 0.06284627
v 0.06738322 -0.01133298 0.06181723
v 0.06405689 -0.01294285 0.06460048
v 0.06363703 -0.01216718 0.06566406
v 0.06330393 -0.01294285 0.06536018
v 0.06218999 -0.01375998 0.06572622
v 0.06272604 -0.01428684 0.06476623
v 0.06487181 -0.01307700 0.06352309
v 0.06511970 -0.01211352 0.06410323
v 0.06652646 -0.01193790 0.06245261
v 0.06551632 -0.01265990 0.06309490
v 0.06169422 -0.01476980 0.06528421
v 0.06074760 -0.01533813 0.06561571
v 0.06118760 -0.01580402 0.06475242
v 0.06074760 -0.01665286 0.06428970
v 0.07647447 -0.00233479 0.03007569
v 0.07631334 -0.00385197 0.03158817
v 0.07657052 -0.00008830 0.03085610
v 0.07657052 -0.00082005 0.03007569
v 0.06074760 -0.00828155 0.07031203
v 0.06074760 -0.00884744 0.07005649
v 0.06137351 -0.00982068 0.06911723
v 0.06219154 -0.00925235 0.06876501
v 0.06400421 -0.00839863 0.06752186
v 0.06476182 -0.00839863 0.06682432
v 0.06553336 -0.00839863 0.06606463
v 0.06653885 -0.00723513 0.06549831
v 0.06710899 -0.00679120 0.06496652
v 0.06853434 -0.00688145 0.06308799
v 0.06811603 -0.00583260 0.06406179
v 0.06766519 -0.00534232 0.06481458
v 0.06825392 -0.00482277 0.06424135
v 0.06777519 -0.00385197 0.06513227
v 0.06713223 -0.00233479 0.06622347
v 0.06788984 -0.00233479 0.06527730
v 0.06654970 -0.00008830 0.06705914
v 0.06719730 -0.00082005 0.06629944
v 0.06686265 -0.00008830 0.06669310
v 0.07630559 -0.00385197 0.03310066
v 0.07629010 -0.00385197 0.03462006
v 0.07627305 -0.00385197 0.03613255
v 0.07624362 -0.00385197 0.03764503
v 0.07618784 -0.00385197 0.03915752
v 0.07611658 -0.00385197 0.04067692
v 0.07603756 -0.00385197 0.04218941
v 0.07589038 -0.00391051 0.04375024
v 0.07575094 -0.00445689 0.04428203
v 0.07527686 -0.00536671 0.04673378
v 0.07502432 -0.00536671 0.04825317
v 0.07428841 -0.00624970 0.05066349
v 0.07417221 -0.00573259 0.05167181
v 0.07398165 -0.00528378 0.05269395
v 0.07341461 -0.00536671 0.05431003
v 0.07301644 -0.00689365 0.05435838
v 0.07267715 -0.00740588 0.05489707
v 0.07248194 -0.00689365 0.05579490
v 0.07184673 -0.00688145 0.05734192
v 0.07068011 -0.00827423 0.05873009
v 0.07136490 -0.00688145 0.05835715
v 0.07094969 -0.00688145 0.05911685
v 0.06967772 -0.00753271 0.06107134
v 0.06992561 -0.00839863 0.06000777
v 0.06872335 -0.00843522 0.06196917
v 0.06833758 -0.00795470 0.06283246
v 0.06689054 -0.00839863 0.06443473
v 0.06670618 -0.00920356 0.06419301
v 0.06704082 -0.00979141 0.06337806
v 0.06586801 -0.00980848 0.06484911
v 0.06500815 -0.01041340 0.06551212
v 0.06543266 -0.01110369 0.06449689
v 0.06399801 -0.01115736 0.06599556
v 0.06243633 -0.01109150 0.06747352
v 0.06207224 -0.01210132 0.06713511
v 0.06171126 -0.01294285 0.06681051
v 0.06455886 -0.01163544 0.06508393
v 0.06074760 -0.01361606 0.06715583
v 0.06074760 -0.01382583 0.06697626
v 0.06074760 -0.01513568 0.06580218
v 0.07647291 -0.00233479 0.03158817
v 0.07646672 -0.00233479 0.03310066
v 0.07656897 -0.00008830 0.03158817
v 0.07656742 -0.00082005 0.03158817
v 0.06074760 -0.01105003 0.06895838
v 0.06086689 -0.01101100 0.06890313
v 0.06187703 -0.01026217 0.06848185
v 0.06344647 -0.01034023 0.06701079
v 0.06438069 -0.00987190 0.06640994
v 0.06375168 -0.00932796 0.06728705
v 0.06529322 -0.00940358 0.06581600
v 0.06629096 -0.00839863 0.06518752
v 0.06868307 -0.00534232 0.06349547
v 0.06935547 -0.00696926 0.06185866
v 0.06951969 -0.00536671 0.06235592
v 0.06965138 -0.00431298 0.06255621
v 0.06919899 -0.00382514 0.06328828
v 0.06974899 -0.00330315 0.06270124
v 0.06795491 -0.00082005 0.06536709
v 0.06847237 -0.00233479 0.06452451
v 0.06756293 -0.00008830 0.06585053
v 0.06719730 -0.00008830 0.06629944
v 0.07645122 -0.00233479 0.03462006
v 0.07643418 -0.00233479 0.03613255
v 0.07640474 -0.00233479 0.03764503
v 0.07635052 -0.00233479 0.03915752
v 0.07627925 -0.00233479 0.04067692
v 0.07620179 -0.00233479 0.04218941
v 0.07607010 -0.00233479 0.04370189
v 0.07582066 -0.00344707 0.04487597
v 0.07570447 -0.00391051 0.04531798
v 0.07554334 -0.00385197 0.04673378
v 0.07529390 -0.00385197 0.04825317
v 0.07496390 -0.00385197 0.04976566
v 0.07468813 -0.00536671 0.04976566
v 0.07437362 -0.00528378 0.05121599
v 0.07428067 -0.00472276 0.05212072
v 0.07412264 -0.00385197 0.05311524
v 0.07370742 -0.00385197 0.05431003
v 0.07274222 -0.00461056 0.05658913
v 0.07262757 -0.00562039 0.05627834
v 0.07281503 -0.00639605 0.05527002
v 0.07234250 -0.00521548 0.05718998
v 0.07151053 -0.00525451 0.05888894
v 0.07111701 -0.00568381 0.05942073
v 0.06983110 -0.00652289 0.06133378
v 0.07016729 -0.00696926 0.06049121
v 0.06146957 -0.01155494 0.06803984
v 0.06074760 -0.01189399 0.06844731
v 0.06095365 -0.01294285 0.06749424
v 0.06074760 -0.01341605 0.06730777
v 0.07656123 -0.00082005 0.03310066
v 0.07656587 -0.00008830 0.03237550
v 0.06074760 -0.01131834 0.06881335
v 0.06998293 -0.00536671 0.06159622
v 0.07008053 -0.00382514 0.06198988
v 0.07090166 -0.00385197 0.06053955
v 0.07034236 -0.00233479 0.06189320
v 0.06980476 -0.00233479 0.06277721
v 0.06922842 -0.00233479 0.06353690
v 0.06929194 -0.00082005 0.06361978
v 0.06929349 -0.00008830 0.06361978
v 0.06853744 -0.00008830 0.06460739
v 0.06795491 -0.00008830 0.06536709
v 0.07654573 -0.00082005 0.03462006
v 0.07652869 -0.00082005 0.03613255
v 0.07650080 -0.00082005 0.03764503
v 0.07644657 -0.00082005 0.03915752
v 0.07637531 -0.00082005 0.04067692
v 0.07629785 -0.00082005 0.04218941
v 0.07616770 -0.00082005 0.04370189
v 0.07580207 -0.00194940 0.04622962
v 0.07587334 -0.00240797 0.04531798
v 0.07576179 -0.00296167 0.04588430
v 0.07570601 -0.00240797 0.04673378
v 0.07546588 -0.00233479 0.04825317
v 0.07513742 -0.00233479 0.04976566
v 0.07479193 -0.00233479 0.05128506
v 0.07461686 -0.00385197 0.05128506
v 0.07435038 -0.00385197 0.05235554
v 0.07421405 -0.00233479 0.05341912
v 0.07389334 -0.00233479 0.05431003
v 0.07333405 -0.00233479 0.05582943
v 0.07314658 -0.00385197 0.05582943
v 0.07280419 -0.00385197 0.05674107
v 0.07248659 -0.00385197 0.05750076
v 0.07181884 -0.00385197 0.05886131
v 0.07124096 -0.00467398 0.05964864
v 0.07077307 -0.00525451 0.06024258
v 0.07656277 -0.00008830 0.03310066
v 0.07655503 -0.00008830 0.03388798
v 0.07100546 -0.00233479 0.06072602
v 0.07045856 -0.00082005 0.06189320
v 0.06986518 -0.00082005 0.06286008
v 0.06956927 -0.00008830 0.06325374
v 0.07654728 -0.00008830 0.03462006
v 0.07653023 -0.00008830 0.03613255
v 0.07650235 -0.00008830 0.03764503
v 0.07644657 -0.00008830 0.03915752
v 0.07641094 -0.00008830 0.03994485
v 0.07637686 -0.00008830 0.04067692
v 0.07629939 -0.00008830 0.04218941
v 0.07616925 -0.00008830 0.04370189
v 0.07598798 -0.00082005 0.04522129
v 0.07574475 -0.00082005 0.04726557
v 0.07556348 -0.00082005 0.04825317
v 0.07523813 -0.00082005 0.04976566
v 0.07489263 -0.00082005 0.05128506
v 0.07443869 -0.00233479 0.05265942
v 0.07424968 -0.00145668 0.05353652
v 0.07343940 -0.00082005 0.05582943
v 0.07289715 -0.00233479 0.05698279
v 0.07258729 -0.00233479 0.05773558
v 0.07202180 -0.00233479 0.05886131
v 0.07147490 -0.00082005 0.06007683
v 0.07106279 -0.00082005 0.06082962
v 0.07075138 -0.00008830 0.06138213
v 0.07046011 -0.00008830 0.06189320
v 0.06986518 -0.00008830 0.06286008
v 0.07578968 -0.00008830 0.04690644
v 0.07574630 -0.00008830 0.04727247
v 0.07556503 -0.00008830 0.04825317
v 0.07523968 -0.00008830 0.04976566
v 0.07489419 -0.00008830 0.05128506
v 0.07427757 -0.00044686 0.05361249
v 0.07445419 -0.00090055 0.05293567
v 0.07344095 -0.00008830 0.05582943
v 0.07295137 -0.00082005 0.05711401
v 0.07264461 -0.00082005 0.05787371
v 0.07213490 -0.00082005 0.05886131
v 0.07126109 -0.00008830 0.06047049
v 0.07179560 -0.00008830 0.05948979
v 0.07106279 -0.00008830 0.06082962
v 0.07427757 -0.00008830 0.05361249
v 0.07318842 -0.00008830 0.05649244
v 0.07295137 -0.00008830 0.05711401
v 0.07279335 -0.00008830 0.05750767
v 0.07264461 -0.00008830 0.05787371
v 0.07213645 -0.00008830 0.05886131
f 1 2 8
f 1 8 3
f 1 3 10
f 1 10 22
f 1 22 38
f 1 38 51
f 1 51 69
f 1 69 72
f 1 72 101
f 1 101 133
f 1 133 132
f 1 132 136
f 1 136 169
f 1 169 212
f 1 212 211
f 1 211 210
f 1 210 209
f 1 209 208
f 1 208 252
f 1 252 298
f 1 298 297
f 1 297 337
f 1 337 384
f 1 384 343
f 1 343 393
f 1 393 392
f 1 392 391
f 1 391 444
f 1 444 442
f 1 442 496
f 1 496 493
f 1 493 492
f 1 492 546
f 1 546 599
f 1 599 602
f 1 602 601
f 1 601 600
f 1 600 653
f 1 653 651
f 1 651 712
f 1 712 774
f 1 774 841
f 1 841 840
f 1 840 839
f 1 839 837
f 1 837 836
f 1 836 906
f 1 906 904
f 1 904 969
f 1 969 968
f 1 968 967
f 1 967 1020
f 1 1020 1018
f 1 1018 1023
f 1 1023 974
f 1 974 912
f 1 912 911
f 1 911 852
f 1 852 785
f 1 785 784
f 1 784 780
f 1 780 720
f 1 720 666
f 1 666 609
f 1 609 561
f 1 561 556
f 1 556 504
f 1 504 451
f 1 451 401
f 1 401 351
f 1 351 307
f 1 307 262
f 1 262 218
f 1 218 177
f 1 177 142
f 1 142 108
f 1 108 80
f 1 80 58
f 1 58 40
f 1 40 39
f 1 39 23
f 1 23 11
f 1 11 4
f 1 4 5
f 1 5 2
f 2 6 7
f 2 7 8
f 2 5 9
f 2 9 6
f 3 8 19
f 3 19 10
f 4 11 5
f 5 11 12
f 5 12 9
f 6 13 14
f 6 14 15
f 6 15 7
f 6 9 13
f 7 15 16
f 7 16 17
f 7 17 18
f 7 18 8
f 8 18 19
f 9 12 20
f 9 20 33
f 9 33 21
f 9 21 13
f 10 19 22
f 11 23 24
f 11 24 12
f 12 24 20
f 13 25 14
f 13 21 25
f 14 25 15
f 15 25 16
f 16 25 26
f 16 26 27
f 16 27 17
f 17 27 28
f 17 28 29
f 17 29 30
f 17 30 31
f 17 31 18
f 18 31 19
f 19 32 22
f 19 31 32
f 20 24 34
f 20 34 33
f 21 33 52
f 21 52 35
f 21 35 36
f 21 36 37
f 21 37 25
f 22 32 38
f 23 39 24
f 24 39 40
f 24 40 41
f 24 41 34
f 25 37 42
f 25 42 43
f 25 43 44
f 25 44 26
f 26 44 46
f 26 46 27
f 27 45 28
f 27 46 45
f 28 47 48
f 28 48 29
f 28 45 47
f 29 48 30
f 30 48 49
f 30 49 50
f 30 50 32
f 30 32 31
f 32 50 51
f 32 51 38
f 33 34 53
f 33 53 54
f 33 54 52
f 34 41 55
f 34 55 53
f 35 56 42
f 35 42 36
f 35 52 73
f 35 73 56
f 36 42 37
f 40 57 41
f 40 58 57
f 41 57 55
f 42 56 59
f 42 59 43
f 43 59 44
f 44 60 46
f 44 59 60
f 45 61 62
f 45 62 63
f 45 63 47
f 45 46 64
f 45 64 61
f 46 60 64
f 47 63 92
f 47 92 65
f 47 65 48
f 48 65 66
f 48 66 67
f 48 67 68
f 48 68 49
f 49 68 50
f 50 69 51
f 50 68 70
f 50 70 71
f 50 71 72
f 50 72 69
f 52 54 73
f 53 55 74
f 53 74 75
f 53 75 54
f 54 76 73
f 54 75 74
f 54 74 77
f 54 77 76
f 55 57 78
f 55 78 74
f 56 73 59
f 57 58 79
f 57 79 78
f 58 80 81
f 58 81 79
f 59 73 82
f 59 82 83
f 59 83 84
f 59 84 85
f 59 85 86
f 59 86 60
f 60 86 87
f 60 87 90
f 60 90 64
f 61 88 89
f 61 89 62
f 61 64 90
f 61 90 88
f 62 89 91
f 62 91 63
f 63 91 92
f 65 92 93
f 65 93 94
f 65 94 95
f 65 95 66
f 66 95 96
f 66 96 97
f 66 97 98
f 66 98 99
f 66 99 68
f 66 68 67
f 68 99 71
f 68 71 70
f 71 99 98
f 71 98 100
f 71 100 101
f 71 101 72
f 73 76 82
f 74 78 102
f 74 102 103
f 74 103 77
f 76 104 105
f 76 105 82
f 76 77 104
f 77 103 106
f 77 106 104
f 78 79 81
f 78 81 107
f 78 107 102
f 80 108 109
f 80 109 81
f 81 109 107
f 82 105 110
f 82 110 83
f 83 111 112
f 83 112 84
f 83 110 144
f 83 144 111
f 84 112 85
f 85 113 114
f 85 114 116
f 85 116 115
f 85 115 86
f 85 112 113
f 86 116 87
f 86 115 116
f 87 116 117
f 87 117 118
f 87 118 90
f 88 118 89
f 88 90 118
f 89 119 91
f 89 118 120
f 89 120 121
f 89 121 119
f 91 122 123
f 91 123 124
f 91 124 92
f 91 119 122
f 92 124 125
f 92 125 93
f 93 125 94
f 94 126 127
f 94 127 128
f 94 128 96
f 94 96 95
f 94 125 126
f 96 128 129
f 96 129 130
f 96 130 97
f 97 130 131
f 97 131 98
f 98 131 100
f 100 132 133
f 100 133 101
f 100 131 134
f 100 134 135
f 100 135 136
f 100 136 132
f 102 107 137
f 102 137 103
f 103 138 106
f 103 137 138
f 104 106 139
f 104 139 105
f 105 139 140
f 105 140 110
f 106 138 139
f 107 109 137
f 108 141 109
f 108 142 143
f 108 143 141
f 109 141 137
f 110 140 145
f 110 145 144
f 111 146 112
f 111 144 146
f 112 147 148
f 112 148 113
f 112 146 147
f 113 148 149
f 113 149 114
f 114 149 150
f 114 150 116
f 116 150 151
f 116 151 117
f 117 151 118
f 118 151 152
f 118 152 120
f 119 121 122
f 120 152 153
f 120 153 154
f 120 154 155
f 120 155 156
f 120 156 121
f 121 156 122
f 122 156 157
f 122 157 123
f 123 157 158
f 123 158 124
f 124 158 125
f 125 158 126
f 126 159 127
f 126 158 159
f 127 160 161
f 127 161 162
f 127 162 128
f 127 159 160
f 128 162 163
f 128 163 129
f 129 163 164
f 129 164 130
f 130 164 134
f 130 134 131
f 134 165 135
f 134 164 166
f 134 166 167
f 134 167 168
f 134 168 165
f 135 165 136
f 136 165 169
f 137 141 170
f 137 170 171
f 137 171 172
f 137 172 173
f 137 173 138
f 138 173 139
f 139 173 174
f 139 174 175
f 139 175 140
f 140 175 145
f 141 143 176
f 141 176 170
f 142 177 178
f 142 178 176
f 142 176 143
f 144 179 146
f 144 145 180
f 144 180 181
f 144 181 179
f 145 175 182
f 145 182 180
f 146 183 184
f 146 184 147
f 146 179 183
f 147 184 148
f 148 184 149
f 149 185 186
f 149 186 150
f 149 184 185
f 150 186 151
f 151 187 152
f 151 186 187
f 152 187 153
f 153 187 188
f 153 188 189
f 153 189 154
f 154 190 155
f 154 189 190
f 155 190 191
f 155 191 156
f 156 191 192
f 156 192 157
f 157 192 193
f 157 193 158
f 158 193 159
f 159 193 192
f 159 192 194
f 159 194 195
f 159 195 160
f 160 195 196
f 160 196 197
f 160 197 198
f 160 198 199
f 160 199 161
f 161 199 200
f 161 200 162
f 162 200 201
f 162 201 202
f 162 202 163
f 163 202 164
f 164 202 166
f 165 168 169
f 166 202 203
f 166 203 204
f 166 204 205
f 166 205 206
f 166 206 207
f 166 207 167
f 167 207 208
f 167 208 209
f 167 209 210
f 167 210 168
f 168 211 212
f 168 212 169
f 168 210 211
f 170 176 213
f 170 213 171
f 171 214 215
f 171 215 172
f 171 213 214
f 172 215 180
f 172 180 174
f 172 174 173
f 174 180 182
f 174 182 175
f 176 178 216
f 176 216 213
f 177 217 178
f 177 218 217
f 178 217 216
f 179 219 183
f 179 181 219
f 180 220 221
f 180 221 219
f 180 219 181
f 180 215 222
f 180 222 220
f 183 223 224
f 183 224 184
f 183 219 225
f 183 225 223
f 184 224 226
f 184 226 185
f 185 226 227
f 185 227 186
f 186 227 228
f 186 228 187
f 187 228 188
f 188 229 189
f 188 228 230
f 188 230 231
f 188 231 229
f 189 229 232
f 189 232 190
f 190 233 191
f 190 232 233
f 191 234 235
f 191 235 236
f 191 236 192
f 191 233 234
f 192 236 237
f 192 237 238
f 192 238 239
f 192 239 194
f 194 239 195
f 195 240 241
f 195 241 242
f 195 242 196
f 195 239 238
f 195 238 240
f 196 242 197
f 197 242 198
f 198 242 243
f 198 243 244
f 198 244 287
f 198 287 245
f 198 245 199
f 199 245 246
f 199 246 200
f 200 246 247
f 200 247 201
f 201 247 248
f 201 248 204
f 201 204 203
f 201 203 202
f 204 249 206
f 204 206 205
f 204 248 249
f 206 250 207
f 206 249 251
f 206 251 250
f 207 250 208
f 208 250 252
f 213 216 253
f 213 253 214
f 214 254 215
f 214 253 254
f 215 254 255
f 215 255 222
f 216 256 253
f 216 217 256
f 217 257 258
f 217 258 259
f 217 259 256
f 217 218 260
f 217 260 261
f 217 261 257
f 218 262 263
f 218 263 260
f 219 264 225
f 219 221 220
f 219 220 264
f 220 222 265
f 220 265 266
f 220 266 264
f 222 255 267
f 222 267 265
f 223 268 224
f 223 225 269
f 223 269 268
f 224 268 270
f 224 270 226
f 225 264 266
f 225 266 269
f 226 271 227
f 226 270 272
f 226 272 271
f 227 230 228
f 227 271 230
f 229 273 274
f 229 274 232
f 229 231 275
f 229 275 273
f 230 276 275
f 230 275 231
f 230 271 277
f 230 277 276
f 232 274 233
f 233 278 234
f 233 274 278
f 234 279 237
f 234 237 235
f 234 278 280
f 234 280 279
f 235 237 236
f 237 279 281
f 237 281 240
f 237 240 238
f 240 242 241
f 240 281 282
f 240 282 283
f 240 283 284
f 240 284 242
f 242 284 243
f 243 284 244
f 244 284 285
f 244 285 286
f 244 286 287
f 245 287 288
f 245 288 289
f 245 289 246
f 246 289 290
f 246 290 291
f 246 291 292
f 246 292 247
f 247 292 293
f 247 293 248
f 248 293 249
f 249 293 294
f 249 294 295
f 249 295 251
f 250 251 296
f 250 296 297
f 250 297 298
f 250 298 252
f 251 295 299
f 251 299 296
f 253 256 259
f 253 259 300
f 253 300 254
f 254 300 255
f 255 300 301
f 255 301 267
f 257 261 302
f 257 302 303
f 257 303 304
f 257 304 258
f 258 304 305
f 258 305 306
f 258 306 259
f 259 306 300
f 260 263 308
f 260 308 353
f 260 353 352
f 260 352 401
f 260 401 451
f 260 451 506
f 260 506 560
f 260 560 613
f 260 613 612
f 260 612 670
f 260 670 730
f 260 730 729
f 260 729 794
f 260 794 793
f 260 793 860
f 260 860 859
f 260 859 927
f 260 927 929
f 260 929 991
f 260 991 990
f 260 990 1033
f 260 1033 1032
f 260 1032 1031
f 260 1031 1064
f 260 1064 1088
f 260 1088 1087
f 260 1087 1086
f 260 1086 1102
f 260 1102 1100
f 260 1100 1101
f 260 1101 1108
f 260 1108 1107
f 260 1107 1106
f 260 1106 1105
f 260 1105 1104
f 260 1104 1096
f 260 1096 1103
f 260 1103 1093
f 260 1093 1092
f 260 1092 1091
f 260 1091 1090
f 260 1090 1089
f 260 1089 1072
f 260 1072 1071
f 260 1071 1070
f 260 1070 1069
f 260 1069 1068
f 260 1068 1067
f 260 1067 1066
f 260 1066 1065
f 260 1065 1060
f 260 1060 1059
f 260 1059 1022
f 260 1022 972
f 260 972 909
f 260 909 843
f 260 843 776
f 260 776 715
f 260 715 659
f 260 659 658
f 260 658 657
f 260 657 656
f 260 656 605
f 260 605 552
f 260 552 498
f 260 498 446
f 260 446 397
f 260 397 396
f 260 396 394
f 260 394 344
f 260 344 302
f 260 302 261
f 262 307 308
f 262 308 263
f 265 309 266
f 265 267 309
f 266 309 310
f 266 310 311
f 266 311 312
f 266 312 269
f 267 313 314
f 267 314 315
f 267 315 309
f 267 301 305
f 267 305 316
f 267 316 313
f 268 317 270
f 268 269 317
f 269 312 317
f 270 318 277
f 270 277 272
f 270 317 318
f 271 272 277
f 273 319 320
f 273 320 274
f 273 275 319
f 274 320 278
f 275 276 321
f 275 321 319
f 276 322 321
f 276 277 322
f 277 318 323
f 277 323 322
f 278 324 280
f 278 320 324
f 279 280 281
f 280 324 325
f 280 325 326
f 280 326 281
f 281 326 282
f 282 326 327
f 282 327 328
f 282 328 283
f 283 329 286
f 283 286 285
f 283 285 284
f 283 328 329
f 286 330 331
f 286 331 287
f 286 329 330
f 287 331 288
f 288 331 332
f 288 332 333
f 288 333 289
f 289 333 290
f 290 333 334
f 290 334 291
f 291 334 335
f 291 335 294
f 291 294 293
f 291 293 292
f 294 335 295
f 295 335 336
f 295 336 299
f 296 337 297
f 296 299 338
f 296 338 337
f 299 339 340
f 299 340 341
f 299 341 342
f 299 342 343
f 299 343 338
f 299 336 339
f 300 306 301
f 301 306 305
f 302 344 303
f 303 345 304
f 303 344 394
f 303 394 346
f 303 346 345
f 304 347 305
f 304 345 348
f 304 348 349
f 304 349 347
f 305 347 350
f 305 350 313
f 305 313 316
f 307 351 352
f 307 352 353
f 307 353 308
f 309 315 310
f 310 315 354
f 310 354 311
f 311 354 312
f 312 354 355
f 312 355 356
f 312 356 357
f 312 357 317
f 313 358 359
f 313 359 314
f 313 350 358
f 314 359 360
f 314 360 361
f 314 361 362
f 314 362 315
f 315 362 363
f 315 363 354
f 317 357 323
f 317 323 318
f 319 364 365
f 319 365 320
f 319 321 364
f 320 365 371
f 320 371 324
f 321 322 366
f 321 366 367
f 321 367 364
f 322 323 366
f 323 357 403
f 323 403 368
f 323 368 369
f 323 369 370
f 323 370 366
f 324 371 372
f 324 372 325
f 325 372 373
f 325 373 326
f 326 373 374
f 326 374 327
f 327 374 375
f 327 375 376
f 327 376 328
f 328 376 377
f 328 377 330
f 328 330 329
f 330 377 378
f 330 378 331
f 331 378 332
f 332 379 333
f 332 378 379
f 333 335 334
f 333 379 380
f 333 380 381
f 333 381 382
f 333 382 335
f 335 382 383
f 335 383 336
f 336 383 339
f 337 338 384
f 338 343 384
f 339 383 340
f 340 383 385
f 340 385 386
f 340 386 387
f 340 387 388
f 340 388 341
f 341 388 389
f 341 389 390
f 341 390 342
f 342 390 391
f 342 391 392
f 342 392 393
f 342 393 343
f 345 346 395
f 345 395 348
f 346 394 396
f 346 396 397
f 346 397 398
f 346 398 395
f 347 349 350
f 348 395 399
f 348 399 349
f 349 399 400
f 349 400 358
f 349 358 350
f 351 401 352
f 354 363 402
f 354 402 355
f 355 402 356
f 356 402 403
f 356 403 357
f 358 400 359
f 359 400 404
f 359 404 405
f 359 405 406
f 359 406 407
f 359 407 360
f 360 407 408
f 360 408 361
f 361 408 409
f 361 409 363
f 361 363 362
f 363 409 402
f 364 410 365
f 364 367 366
f 364 366 410
f 365 410 411
f 365 411 412
f 365 412 371
f 366 370 415
f 366 415 413
f 366 413 414
f 366 414 410
f 368 415 370
f 368 370 369
f 368 403 415
f 371 412 416
f 371 416 372
f 372 416 417
f 372 417 418
f 372 418 373
f 373 419 374
f 373 418 419
f 374 420 375
f 374 419 421
f 374 421 420
f 375 420 422
f 375 422 376
f 376 422 423
f 376 423 377
f 377 424 378
f 377 423 425
f 377 425 424
f 378 424 426
f 378 426 379
f 379 426 427
f 379 427 428
f 379 428 429
f 379 429 380
f 380 429 430
f 380 430 381
f 381 430 431
f 381 431 432
f 381 432 382
f 382 432 383
f 383 432 385
f 385 432 433
f 385 433 386
f 386 433 431
f 386 431 434
f 386 434 435
f 386 435 436
f 386 436 437
f 386 437 438
f 386 438 387
f 387 438 439
f 387 439 440
f 387 440 441
f 387 441 388
f 388 441 389
f 389 442 390
f 389 441 440
f 389 440 443
f 389 443 442
f 390 442 444
f 390 444 391
f 395 398 445
f 395 445 399
f 397 446 447
f 397 447 398
f 398 447 445
f 399 445 400
f 400 448 404
f 400 445 449
f 400 449 450
f 400 450 448
f 402 452 403
f 402 409 452
f 403 453 415
f 403 452 453
f 404 448 454
f 404 454 405
f 405 454 455
f 405 455 406
f 406 455 456
f 406 456 457
f 406 457 407
f 407 457 408
f 408 457 458
f 408 458 459
f 408 459 409
f 409 459 452
f 410 460 411
f 410 414 465
f 410 465 460
f 411 460 461
f 411 461 412
f 412 462 416
f 412 461 462
f 413 463 464
f 413 464 414
f 413 415 463
f 414 464 465
f 415 453 466
f 415 466 467
f 415 467 468
f 415 468 469
f 415 469 463
f 416 470 417
f 416 462 470
f 417 471 472
f 417 472 419
f 417 419 418
f 417 470 471
f 419 472 473
f 419 473 421
f 420 421 474
f 420 474 475
f 420 475 422
f 421 473 474
f 422 475 423
f 423 476 477
f 423 477 425
f 423 475 476
f 424 427 426
f 424 425 427
f 425 477 478
f 425 478 427
f 427 478 479
f 427 479 480
f 427 480 428
f 428 480 481
f 428 481 429
f 429 481 482
f 429 482 430
f 430 482 483
f 430 483 434
f 430 434 431
f 431 433 432
f 434 483 435
f 435 484 485
f 435 485 436
f 435 483 482
f 435 482 486
f 435 486 487
f 435 487 484
f 436 485 488
f 436 488 437
f 437 488 489
f 437 489 490
f 437 490 438
f 438 490 491
f 438 491 439
f 439 491 440
f 440 492 493
f 440 493 443
f 440 491 494
f 440 494 495
f 440 495 492
f 442 443 496
f 443 493 496
f 445 447 497
f 445 497 449
f 446 498 499
f 446 499 447
f 447 499 549
f 447 549 497
f 448 450 500
f 448 500 454
f 449 497 501
f 449 501 450
f 450 501 502
f 450 502 503
f 450 503 500
f 451 504 505
f 451 505 506
f 452 459 466
f 452 466 453
f 454 500 507
f 454 507 508
f 454 508 509
f 454 509 510
f 454 510 511
f 454 511 455
f 455 511 456
f 456 511 512
f 456 512 458
f 456 458 457
f 458 512 513
f 458 513 459
f 459 513 514
f 459 514 466
f 460 515 461
f 460 465 516
f 460 516 517
f 460 517 515
f 461 515 518
f 461 518 462
f 462 519 470
f 462 518 519
f 463 469 520
f 463 520 521
f 463 521 522
f 463 522 464
f 464 522 465
f 465 522 516
f 466 514 520
f 466 520 467
f 467 520 468
f 468 520 469
f 470 523 471
f 470 519 523
f 471 523 524
f 471 524 525
f 471 525 472
f 472 525 473
f 473 526 474
f 473 525 526
f 474 527 528
f 474 528 475
f 474 526 527
f 475 529 530
f 475 530 476
f 475 528 529
f 476 530 531
f 476 531 477
f 477 531 532
f 477 532 479
f 477 479 478
f 479 532 533
f 479 533 534
f 479 534 480
f 480 534 535
f 480 535 481
f 481 535 536
f 481 536 482
f 482 536 486
f 484 487 537
f 484 537 538
f 484 538 485
f 485 538 488
f 486 536 487
f 487 539 537
f 487 536 535
f 487 535 540
f 487 540 539
f 488 538 541
f 488 541 542
f 488 542 543
f 488 543 489
f 489 543 544
f 489 544 545
f 489 545 491
f 489 491 490
f 491 545 494
f 492 495 546
f 494 545 547
f 494 547 548
f 494 548 495
f 495 548 546
f 497 549 550
f 497 550 551
f 497 551 501
f 498 552 499
f 499 552 553
f 499 553 603
f 499 603 549
f 500 503 554
f 500 554 555
f 500 555 507
f 501 551 554
f 501 554 502
f 502 554 503
f 504 556 505
f 505 557 558
f 505 558 559
f 505 559 560
f 505 560 506
f 505 556 561
f 505 561 557
f 507 555 509
f 507 509 508
f 509 555 562
f 509 562 563
f 509 563 614
f 509 614 564
f 509 564 510
f 510 564 565
f 510 565 566
f 510 566 511
f 511 566 512
f 512 566 567
f 512 567 514
f 512 514 513
f 514 567 520
f 515 568 569
f 515 569 570
f 515 570 518
f 515 517 571
f 515 571 568
f 516 571 517
f 516 522 572
f 516 572 571
f 518 570 519
f 519 573 576
f 519 576 523
f 519 570 573
f 520 567 574
f 520 574 575
f 520 575 521
f 521 575 522
f 522 575 572
f 523 576 524
f 524 577 578
f 524 578 525
f 524 576 577
f 525 578 579
f 525 579 526
f 526 579 527
f 527 579 580
f 527 580 581
f 527 581 528
f 528 581 529
f 529 581 582
f 529 582 530
f 530 582 583
f 530 583 531
f 531 583 584
f 531 584 585
f 531 585 533
f 531 533 532
f 533 585 586
f 533 586 534
f 534 587 540
f 534 540 535
f 534 586 588
f 534 588 587
f 537 539 589
f 537 589 538
f 538 589 590
f 538 590 591
f 538 591 541
f 539 592 593
f 539 593 589
f 539 540 592
f 540 587 594
f 540 594 592
f 541 591 595
f 541 595 596
f 541 596 542
f 542 596 543
f 543 596 597
f 543 597 544
f 544 597 598
f 544 598 545
f 545 598 547
f 546 548 599
f 547 598 600
f 547 600 601
f 547 601 548
f 548 601 602
f 548 602 599
f 549 603 604
f 549 604 550
f 550 554 551
f 550 604 607
f 550 607 554
f 552 605 553
f 553 605 606
f 553 606 654
f 553 654 603
f 554 563 562
f 554 562 555
f 554 607 563
f 557 608 558
f 557 561 609
f 557 609 608
f 558 608 610
f 558 610 611
f 558 611 559
f 559 611 612
f 559 612 613
f 559 613 560
f 563 607 614
f 564 614 662
f 564 662 615
f 564 615 616
f 564 616 565
f 565 616 617
f 565 617 566
f 566 617 567
f 567 617 574
f 568 618 569
f 568 571 618
f 569 618 570
f 570 618 619
f 570 619 620
f 570 620 573
f 571 572 621
f 571 621 622
f 571 622 618
f 572 575 623
f 572 623 621
f 573 620 624
f 573 624 576
f 574 617 623
f 574 623 575
f 576 624 625
f 576 625 577
f 577 625 626
f 577 626 627
f 577 627 578
f 578 627 579
f 579 628 580
f 579 627 628
f 580 628 629
f 580 629 630
f 580 630 581
f 581 630 582
f 582 630 631
f 582 631 583
f 583 632 633
f 583 633 634
f 583 634 584
f 583 631 632
f 584 634 586
f 584 586 585
f 586 635 587
f 586 587 588
f 586 634 635
f 587 635 636
f 587 636 637
f 587 637 638
f 587 638 594
f 589 639 640
f 589 640 641
f 589 641 590
f 589 593 639
f 590 641 591
f 591 641 642
f 591 642 643
f 591 643 644
f 591 644 645
f 591 645 595
f 592 594 638
f 592 638 593
f 593 638 639
f 595 645 596
f 596 645 597
f 597 645 646
f 597 646 647
f 597 647 648
f 597 648 649
f 597 649 598
f 598 649 650
f 598 650 651
f 598 651 652
f 598 652 653
f 598 653 600
f 603 654 604
f 604 654 655
f 604 655 661
f 604 661 607
f 605 656 606
f 606 656 657
f 606 657 658
f 606 658 659
f 606 659 715
f 606 715 660
f 606 660 714
f 606 714 654
f 607 661 662
f 607 662 614
f 608 609 663
f 608 663 664
f 608 664 665
f 608 665 610
f 609 666 663
f 610 665 667
f 610 667 668
f 610 668 611
f 611 668 669
f 611 669 670
f 611 670 612
f 615 662 719
f 615 719 671
f 615 671 616
f 616 623 617
f 616 671 672
f 616 672 623
f 618 673 674
f 618 674 619
f 618 622 673
f 619 674 675
f 619 675 620
f 620 675 676
f 620 676 624
f 621 672 677
f 621 677 678
f 621 678 679
f 621 679 673
f 621 673 622
f 621 623 672
f 624 676 680
f 624 680 625
f 625 680 681
f 625 681 626
f 626 681 682
f 626 682 683
f 626 683 627
f 627 683 684
f 627 684 628
f 628 684 685
f 628 685 629
f 629 685 686
f 629 686 630
f 630 686 631
f 631 687 632
f 631 686 688
f 631 688 687
f 632 687 689
f 632 689 690
f 632 690 633
f 633 690 691
f 633 691 634
f 634 691 635
f 635 691 692
f 635 692 636
f 636 693 694
f 636 694 695
f 636 695 639
f 636 639 637
f 636 692 696
f 636 696 693
f 637 639 638
f 639 697 698
f 639 698 699
f 639 699 640
f 639 695 697
f 640 699 700
f 640 700 641
f 641 700 701
f 641 701 702
f 641 702 643
f 641 643 642
f 643 702 703
f 643 703 644
f 644 703 645
f 645 703 646
f 646 703 702
f 646 702 704
f 646 704 705
f 646 705 706
f 646 706 707
f 646 707 708
f 646 708 647
f 647 708 709
f 647 709 710
f 647 710 648
f 648 650 649
f 648 710 711
f 648 711 650
f 650 711 712
f 650 712 651
f 651 653 652
f 654 713 655
f 654 714 713
f 655 713 718
f 655 718 661
f 660 715 776
f 660 776 716
f 660 716 717
f 660 717 714
f 661 718 662
f 662 718 719
f 663 666 720
f 663 720 664
f 664 721 722
f 664 722 723
f 664 723 665
f 664 720 724
f 664 724 721
f 665 723 667
f 667 723 725
f 667 725 726
f 667 726 727
f 667 727 668
f 668 727 728
f 668 728 669
f 669 728 729
f 669 729 730
f 669 730 670
f 671 719 731
f 671 731 732
f 671 732 672
f 672 732 677
f 673 679 733
f 673 733 674
f 674 733 734
f 674 734 735
f 674 735 675
f 675 735 676
f 676 735 736
f 676 736 680
f 677 737 738
f 677 738 678
f 677 732 737
f 678 738 733
f 678 733 679
f 680 736 739
f 680 739 681
f 681 739 740
f 681 740 741
f 681 741 682
f 682 741 742
f 682 742 743
f 682 743 684
f 682 684 683
f 684 743 685
f 685 743 744
f 685 744 745
f 685 745 686
f 686 745 746
f 686 746 688
f 687 688 747
f 687 747 748
f 687 748 749
f 687 749 690
f 687 690 689
f 688 746 747
f 690 749 750
f 690 750 696
f 690 696 692
f 690 692 691
f 693 696 751
f 693 751 752
f 693 752 694
f 694 753 697
f 694 697 695
f 694 752 753
f 696 750 754
f 696 754 751
f 697 755 698
f 697 753 755
f 698 756 757
f 698 757 758
f 698 758 759
f 698 759 760
f 698 760 761
f 698 761 700
f 698 700 699
f 698 755 756
f 700 761 762
f 700 762 701
f 701 762 702
f 702 762 763
f 702 763 764
f 702 764 704
f 704 764 705
f 705 765 766
f 705 766 706
f 705 764 767
f 705 767 768
f 705 768 769
f 705 769 765
f 706 766 770
f 706 770 707
f 707 770 771
f 707 771 709
f 707 709 708
f 709 771 710
f 710 771 772
f 710 772 773
f 710 773 711
f 711 773 774
f 711 774 712
f 713 714 775
f 713 775 779
f 713 779 718
f 714 717 775
f 716 776 777
f 716 777 717
f 717 777 778
f 717 778 775
f 718 779 731
f 718 731 719
f 720 780 724
f 721 781 782
f 721 782 783
f 721 783 722
f 721 724 780
f 721 780 784
f 721 784 785
f 721 785 786
f 721 786 781
f 722 783 723
f 723 783 725
f 725 787 788
f 725 788 789
f 725 789 790
f 725 790 726
f 725 783 787
f 726 790 727
f 727 790 791
f 727 791 728
f 728 791 792
f 728 792 793
f 728 793 794
f 728 794 729
f 731 779 795
f 731 795 732
f 732 795 802
f 732 802 737
f 733 796 797
f 733 797 734
f 733 738 798
f 733 798 796
f 734 797 735
f 735 797 799
f 735 799 736
f 736 799 800
f 736 800 801
f 736 801 739
f 737 802 803
f 737 803 738
f 738 803 798
f 739 801 804
f 739 804 740
f 740 804 741
f 741 804 805
f 741 805 806
f 741 806 742
f 742 806 807
f 742 807 808
f 742 808 743
f 743 808 744
f 744 808 809
f 744 809 810
f 744 810 746
f 744 746 745
f 746 811 747
f 746 810 811
f 747 812 748
f 747 811 812
f 748 812 813
f 748 813 814
f 748 814 815
f 748 815 750
f 748 750 749
f 750 815 754
f 751 754 816
f 751 816 817
f 751 817 752
f 752 818 756
f 752 756 755
f 752 755 753
f 752 817 818
f 754 815 819
f 754 819 816
f 756 820 821
f 756 821 757
f 756 818 820
f 757 821 758
f 758 821 822
f 758 822 823
f 758 823 824
f 758 824 825
f 758 825 759
f 759 825 760
f 760 763 826
f 760 826 761
f 760 825 824
f 760 824 827
f 760 827 828
f 760 828 763
f 761 826 763
f 761 763 762
f 763 828 767
f 763 767 764
f 765 770 766
f 765 769 829
f 765 829 830
f 765 830 771
f 765 771 770
f 767 828 831
f 767 831 832
f 767 832 833
f 767 833 768
f 768 833 769
f 769 833 829
f 771 830 834
f 771 834 835
f 771 835 836
f 771 836 837
f 771 837 838
f 771 838 839
f 771 839 840
f 771 840 772
f 772 840 773
f 773 840 841
f 773 841 774
f 775 778 845
f 775 845 842
f 775 842 846
f 775 846 779
f 776 843 844
f 776 844 777
f 777 844 845
f 777 845 778
f 779 846 803
f 779 803 802
f 779 802 795
f 781 847 848
f 781 848 782
f 781 786 849
f 781 849 847
f 782 848 850
f 782 850 783
f 783 850 851
f 783 851 787
f 785 852 849
f 785 849 786
f 787 851 853
f 787 853 854
f 787 854 788
f 788 854 855
f 788 855 789
f 789 855 856
f 789 856 857
f 789 857 790
f 790 857 791
f 791 857 858
f 791 858 792
f 792 858 859
f 792 859 860
f 792 860 793
f 796 861 797
f 796 798 861
f 797 861 862
f 797 862 799
f 798 803 846
f 798 846 863
f 798 863 861
f 799 862 800
f 800 862 864
f 800 864 865
f 800 865 801
f 801 866 804
f 801 865 866
f 804 866 867
f 804 867 805
f 805 867 806
f 806 867 868
f 806 868 869
f 806 869 807
f 807 869 870
f 807 870 808
f 808 870 871
f 808 871 872
f 808 872 809
f 809 872 873
f 809 873 810
f 810 873 811
f 811 873 812
f 812 873 874
f 812 874 813
f 813 875 876
f 813 876 815
f 813 815 814
f 813 874 875
f 815 876 877
f 815 877 878
f 815 878 819
f 816 819 879
f 816 879 880
f 816 880 881
f 816 881 820
f 816 820 818
f 816 818 817
f 819 878 879
f 820 882 883
f 820 883 884
f 820 884 821
f 820 881 882
f 821 884 822
f 822 884 885
f 822 885 823
f 823 885 886
f 823 886 824
f 824 886 887
f 824 887 888
f 824 888 889
f 824 889 890
f 824 890 891
f 824 891 892
f 824 892 893
f 824 893 831
f 824 831 827
f 827 831 828
f 829 894 895
f 829 895 896
f 829 896 897
f 829 897 898
f 829 898 834
f 829 834 830
f 829 833 899
f 829 899 900
f 829 900 894
f 831 893 901
f 831 901 900
f 831 900 902
f 831 902 899
f 831 899 832
f 832 899 833
f 834 898 903
f 834 903 904
f 834 904 905
f 834 905 906
f 834 906 835
f 835 906 836
f 837 839 838
f 842 863 846
f 842 845 907
f 842 907 970
f 842 970 908
f 842 908 861
f 842 861 863
f 843 909 910
f 843 910 844
f 844 910 907
f 844 907 845
f 847 849 911
f 847 911 912
f 847 912 913
f 847 913 914
f 847 914 848
f 848 914 915
f 848 915 850
f 849 852 911
f 850 915 851
f 851 915 916
f 851 916 917
f 851 917 853
f 853 917 918
f 853 918 854
f 854 918 919
f 854 919 920
f 854 920 921
f 854 921 922
f 854 922 855
f 855 922 923
f 855 923 924
f 855 924 856
f 856 925 857
f 856 924 926
f 856 926 925
f 857 925 858
f 858 927 859
f 858 925 928
f 858 928 929
f 858 929 927
f 861 908 930
f 861 930 862
f 862 930 931
f 862 931 864
f 864 931 932
f 864 932 865
f 865 932 933
f 865 933 866
f 866 933 934
f 866 934 867
f 867 934 868
f 868 934 935
f 868 935 869
f 869 935 936
f 869 936 870
f 870 936 937
f 870 937 938
f 870 938 939
f 870 939 872
f 870 872 871
f 872 939 873
f 873 939 940
f 873 940 874
f 874 940 941
f 874 941 875
f 875 941 876
f 876 941 877
f 877 941 942
f 877 942 878
f 878 943 944
f 878 944 945
f 878 945 879
f 878 942 943
f 879 945 946
f 879 946 881
f 879 881 880
f 881 946 947
f 881 947 948
f 881 948 882
f 882 948 883
f 883 949 884
f 883 948 950
f 883 950 951
f 883 951 952
f 883 952 887
f 883 887 949
f 884 949 885
f 885 949 953
f 885 953 887
f 885 887 886
f 887 952 954
f 887 954 888
f 887 953 949
f 888 954 889
f 889 954 955
f 889 955 956
f 889 956 957
f 889 957 958
f 889 958 890
f 890 958 891
f 891 958 957
f 891 957 959
f 891 959 960
f 891 960 961
f 891 961 892
f 892 961 901
f 892 901 893
f 894 900 895
f 895 962 963
f 895 963 964
f 895 964 965
f 895 965 896
f 895 900 966
f 895 966 960
f 895 960 962
f 896 965 967
f 896 967 897
f 897 967 968
f 897 968 903
f 897 903 898
f 899 902 900
f 900 961 960
f 900 960 966
f 900 901 961
f 903 968 969
f 903 969 904
f 904 906 905
f 907 910 970
f 908 970 971
f 908 971 930
f 909 972 973
f 909 973 910
f 910 973 970
f 912 974 975
f 912 975 913
f 913 975 914
f 914 975 976
f 914 976 977
f 914 977 978
f 914 978 979
f 914 979 916
f 914 916 915
f 916 980 917
f 916 979 980
f 917 980 981
f 917 981 918
f 918 981 956
f 918 956 955
f 918 955 920
f 918 920 919
f 920 982 921
f 920 955 983
f 920 983 984
f 920 984 982
f 921 982 923
f 921 923 922
f 923 982 985
f 923 985 986
f 923 986 924
f 924 986 987
f 924 987 926
f 925 926 988
f 925 988 928
f 926 987 989
f 926 989 988
f 928 988 990
f 928 990 991
f 928 991 929
f 930 971 992
f 930 992 931
f 931 992 993
f 931 993 932
f 932 993 994
f 932 994 933
f 933 994 995
f 933 995 934
f 934 995 996
f 934 996 935
f 935 996 997
f 935 997 936
f 936 997 998
f 936 998 937
f 937 998 999
f 937 999 1000
f 937 1000 938
f 938 1000 1001
f 938 1001 939
f 939 1001 1002
f 939 1002 940
f 940 1002 1003
f 940 1003 1004
f 940 1004 941
f 941 1004 942
f 942 1004 1005
f 942 1005 1006
f 942 1006 943
f 943 1007 944
f 943 1006 1007
f 944 1008 1009
f 944 1009 1010
f 944 1010 1011
f 944 1011 945
f 944 1007 1008
f 945 1011 946
f 946 1011 947
f 947 1011 1010
f 947 1010 948
f 948 1010 1012
f 948 1012 950
f 950 1012 1013
f 950 1013 1014
f 950 1014 951
f 951 1014 1015
f 951 1015 1016
f 951 1016 952
f 952 1016 1015
f 952 1015 983
f 952 983 955
f 952 955 954
f 956 981 957
f 957 981 980
f 957 980 959
f 959 980 960
f 960 980 978
f 960 978 977
f 960 977 962
f 962 977 963
f 963 976 1017
f 963 1017 964
f 963 977 976
f 964 1017 1018
f 964 1018 1019
f 964 1019 965
f 965 1019 967
f 967 1019 1020
f 970 973 1021
f 970 1021 971
f 971 1021 1034
f 971 1034 992
f 972 1022 973
f 973 1022 1021
f 974 1023 975
f 975 1023 1017
f 975 1017 976
f 978 980 979
f 982 984 985
f 983 1015 984
f 984 1015 1024
f 984 1024 985
f 985 1024 1025
f 985 1025 987
f 985 987 986
f 987 1025 1026
f 987 1026 1027
f 987 1027 1028
f 987 1028 1029
f 987 1029 989
f 988 989 1029
f 988 1029 1030
f 988 1030 1031
f 988 1031 1032
f 988 1032 1033
f 988 1033 990
f 992 1034 1035
f 992 1035 993
f 993 1035 1036
f 993 1036 994
f 994 1036 1037
f 994 1037 995
f 995 1037 1038
f 995 1038 996
f 996 1038 1039
f 996 1039 997
f 997 1039 1040
f 997 1040 998
f 998 1040 1041
f 998 1041 1042
f 998 1042 1043
f 998 1043 999
f 999 1043 1001
f 999 1001 1000
f 1001 1043 1044
f 1001 1044 1045
f 1001 1045 1002
f 1002 1045 1046
f 1002 1046 1003
f 1003 1046 1047
f 1003 1047 1048
f 1003 1048 1006
f 1003 1006 1004
f 1004 1006 1005
f 1006 1048 1049
f 1006 1049 1007
f 1007 1050 1008
f 1007 1049 1050
f 1008 1050 1051
f 1008 1051 1052
f 1008 1052 1053
f 1008 1053 1009
f 1009 1053 1054
f 1009 1054 1055
f 1009 1055 1012
f 1009 1012 1010
f 1012 1055 1013
f 1013 1055 1056
f 1013 1056 1057
f 1013 1057 1014
f 1014 1057 1058
f 1014 1058 1015
f 1015 1058 1024
f 1017 1023 1018
f 1018 1020 1019
f 1021 1022 1059
f 1021 1059 1060
f 1021 1060 1034
f 1024 1058 1057
f 1024 1057 1025
f 1025 1057 1026
f 1026 1061 1027
f 1026 1057 1056
f 1026 1056 1061
f 1027 1062 1028
f 1027 1061 1062
f 1028 1063 1030
f 1028 1030 1029
f 1028 1062 1063
f 1030 1063 1031
f 1031 1063 1064
f 1034 1060 1065
f 1034 1065 1066
f 1034 1066 1035
f 1035 1066 1067
f 1035 1067 1036
f 1036 1067 1037
f 1037 1067 1068
f 1037 1068 1069
f 1037 1069 1070
f 1037 1070 1038
f 1038 1070 1071
f 1038 1071 1039
f 1039 1071 1072
f 1039 1072 1040
f 1040 1072 1073
f 1040 1073 1041
f 1041 1073 1074
f 1041 1074 1044
f 1041 1044 1042
f 1042 1044 1043
f 1044 1074 1045
f 1045 1074 1075
f 1045 1075 1076
f 1045 1076 1046
f 1046 1076 1077
f 1046 1077 1047
f 1047 1077 1078
f 1047 1078 1049
f 1047 1049 1048
f 1049 1078 1050
f 1050 1078 1079
f 1050 1079 1051
f 1051 1079 1052
f 1052 1080 1081
f 1052 1081 1054
f 1052 1054 1053
f 1052 1079 1080
f 1054 1081 1082
f 1054 1082 1055
f 1055 1082 1056
f 1056 1082 1083
f 1056 1083 1061
f 1061 1083 1084
f 1061 1084 1085
f 1061 1085 1062
f 1062 1085 1086
f 1062 1086 1087
f 1062 1087 1063
f 1063 1087 1088
f 1063 1088 1064
f 1072 1089 1073
f 1073 1089 1090
f 1073 1090 1074
f 1074 1090 1075
f 1075 1090 1091
f 1075 1091 1092
f 1075 1092 1076
f 1076 1092 1093
f 1076 1093 1077
f 1077 1093 1094
f 1077 1094 1095
f 1077 1095 1078
f 1078 1095 1079
f 1079 1095 1094
f 1079 1094 1080
f 1080 1096 1097
f 1080 1097 1081
f 1080 1094 1096
f 1081 1097 1098
f 1081 1098 1082
f 1082 1098 1083
f 1083 1098 1099
f 1083 1099 1084
f 1084 1100 1085
f 1084 1099 1101
f 1084 1101 1100
f 1085 1100 1102
f 1085 1102 1086
f 1093 1103 1094
f 1094 1103 1096
f 1096 1104 1097
f 1097 1104 1105
f 1097 1105 1106
f 1097 1106 1098
f 1098 1106 1107
f 1098 1107 1108
f 1098 1108 1099
f 1099 1108 1101

