# https://github.com/mikedh/trimesh
v -0.00530239 -0.00839592 0.00137272
v -0.00530239 -0.00940359 0.00137385
v -0.00681946 -0.00940359 0.00141107
v -0.00530239 -0.00688030 0.00137723
v -0.00378812 -0.00385089 0.00137385
v -0.00227105 -0.00008921 0.00137385
v 0.00530309 -0.00839592 0.00137272
v 0.00630979 -0.00940359 0.00137385
v -0.00378812 -0.00008921 0.00148213
v -0.00378812 -0.00081966 0.00144942
v -0.00378812 -0.00233528 0.00139077
v -0.00828044 -0.00940359 0.00168967
v 0.00227175 -0.00008921 0.00137385
v 0.00378602 -0.00233528 0.00139077
v 0.00681735 -0.00940359 0.00141107
v -0.00474435 -0.00008921 0.00181262
v -0.00884128 -0.00940359 0.00226605
v 0.00305693 -0.00008921 0.00141220
v 0.00378602 -0.00081966 0.00144942
v 0.00378602 -0.00008921 0.00148326
v 0.00795866 -0.00940359 0.00159379
v -0.00915816 -0.00940359 0.00261007
v -0.01432349 -0.00940359 0.01289463
v -0.00889456 -0.00008921 0.01289463
v 0.00430479 -0.00008921 0.00165358
v 0.00828114 -0.00940359 0.00168967
v 0.01432419 -0.00940359 0.01289463
v 0.00889526 -0.00008921 0.01289463
v 0.00474505 -0.00008921 0.00181262
v 0.00906632 -0.00940359 0.00239350
f 1 2 3
f 1 3 4
f 1 4 5
f 1 5 6
f 1 6 13
f 1 13 7
f 1 7 8
f 1 8 2
f 2 8 15
f 2 15 21
f 2 21 26
f 2 26 30
f 2 30 27
f 2 27 23
f 2 23 22
f 2 22 17
f 2 17 12
f 2 12 3
f 3 9 10
f 3 10 11
f 3 11 4
f 3 12 9
f 4 11 6
f 4 6 5
f 6 11 10
f 6 10 9
f 6 9 16
f 6 16 24
f 6 24 28
f 6 28 29
f 6 29 25
f 6 25 20
f 6 20 18
f 6 18 13
f 7 13 8
f 8 13 14
f 8 14 15
f 9 12 16
f 12 17 16
f 13 18 14
f 14 18 19
f 14 19 15
f 15 19 20
f 15 20 21
f 16 17 22
f 16 22 23
f 16 23 24
f 18 20 19
f 20 25 26
f 20 26 21
f 23 27 28
f 23 28 24
f 25 29 26
f 26 29 30
f 27 30 29
f 27 29 28

