# https://github.com/mikedh/trimesh
v -0.05236300 0.01949181 0.04997219
v -0.05236300 0.01811861 0.05050697
v -0.05236300 0.02155284 0.04997219
v -0.04685185 0.01509485 0.04997219
v -0.05236300 0.01745067 0.05081495
v -0.05236300 0.02623838 0.05128766
v -0.05235507 0.02644858 0.04997219
v -0.05236300 0.01509485 0.05214952
v -0.05236300 0.01516823 0.05208984
v -0.05236300 0.01550655 0.05188929
v -0.05236300 0.01580508 0.05171740
v -0.02540114 0.01509485 0.04997219
v -0.05236300 0.02622345 0.05137122
v -0.05228117 0.02625703 0.05128766
v -0.05228117 0.02646475 0.04997219
v -0.05236300 0.01509485 0.07104128
v -0.02540114 0.02779815 0.04997219
v -0.02540114 0.01509485 0.07436220
v -0.05236300 0.02594856 0.05287530
v -0.05076613 0.02629435 0.05280129
v -0.05076613 0.02655804 0.05128766
v -0.05076613 0.02675457 0.04997219
v -0.05222574 0.01509485 0.07110335
v -0.05236300 0.01575408 0.07054708
v -0.02540114 0.02778695 0.05016557
v -0.03106801 0.02780063 0.04997219
v -0.02955298 0.01509485 0.07435981
v -0.02540114 0.01585110 0.07386322
v -0.02955298 0.01585110 0.07386800
v -0.05236300 0.02593115 0.05295886
v -0.05194860 0.02580925 0.05398068
v -0.04925110 0.02626698 0.05431731
v -0.04925110 0.02655929 0.05280129
v -0.05086115 0.02594110 0.05441759
v -0.04925110 0.02681552 0.05128766
v -0.04925110 0.02698219 0.04997219
v -0.05118317 0.01509485 0.07156412
v -0.05076613 0.01578393 0.07120362
v -0.05213072 0.01584363 0.07057573
v -0.05236300 0.01638844 0.07004810
v -0.02540114 0.02772103 0.05128766
v -0.03127125 0.02780063 0.04997219
v -0.03060347 0.01509485 0.07435503
v -0.02540114 0.01666830 0.07330456
v -0.02955298 0.01667701 0.07330934
v -0.03106801 0.01585110 0.07385845
v -0.03106801 0.01509485 0.07435264
v -0.05236300 0.02575701 0.05377059
v -0.05143127 0.02567865 0.05499057
v -0.05042037 0.02579806 0.05543702
v -0.05236300 0.02559904 0.05439371
v -0.04928541 0.02590503 0.05589779
v -0.04773606 0.02617618 0.05583333
v -0.04773606 0.02650953 0.05431731
v -0.04773606 0.02679064 0.05280129
v -0.04773606 0.02701080 0.05128766
v -0.04783636 0.02715633 0.04997219
v -0.05075822 0.01509485 0.07174080
v -0.05026200 0.01523416 0.07184106
v -0.05076613 0.01678646 0.07038951
v -0.05152629 0.01660984 0.07022716
v -0.05236300 0.01720564 0.06931039
v -0.02540114 0.02758918 0.05280129
v -0.03106801 0.02771854 0.05128766
v -0.03258305 0.02779690 0.04997219
v -0.02540114 0.01742704 0.07269577
v -0.02955298 0.01743450 0.07269099
v -0.03106801 0.01666954 0.07330456
v -0.03409809 0.01585110 0.07381547
v -0.03360715 0.01509485 0.07432161
v -0.03210531 0.01509485 0.07434071
v -0.05236300 0.02550451 0.05474705
v -0.05228117 0.02523336 0.05583333
v -0.05086115 0.02556546 0.05589779
v -0.04981594 0.02566124 0.05644690
v -0.04880503 0.02576323 0.05679069
v -0.04759617 0.02582293 0.05731593
v -0.04622102 0.02602195 0.05734935
v -0.04622102 0.02639012 0.05583333
v -0.04622102 0.02671352 0.05431731
v -0.04622102 0.02697099 0.05280129
v -0.04632396 0.02715508 0.05134735
v -0.04588845 0.02726330 0.05088180
v -0.04689936 0.02720732 0.05045922
v -0.04769383 0.02717374 0.04997219
v -0.05034382 0.01509485 0.07190314
v -0.04924846 0.01509485 0.07223260
v -0.04925110 0.01544561 0.07199625
v -0.04925110 0.01620435 0.07142327
v -0.05076613 0.01754520 0.06968999
v -0.04925110 0.01711359 0.07066406
v -0.04925110 0.01787233 0.06999558
v -0.05207266 0.01727032 0.06937962
v -0.05236300 0.01761859 0.06893079
v -0.02540114 0.02740510 0.05431731
v -0.03106801 0.02758421 0.05280129
v -0.03258305 0.02771357 0.05128766
v -0.03409809 0.02778820 0.04997219
v -0.02540114 0.01811239 0.07213472
v -0.02955298 0.01834748 0.07193418
v -0.03106801 0.01742704 0.07268383
v -0.02540114 0.01835121 0.07193895
v -0.03409809 0.01739097 0.07266234
v -0.03409809 0.01663347 0.07327591
v -0.03501133 0.01661979 0.07326636
v -0.03555506 0.01598792 0.07367939
v -0.03559729 0.01509485 0.07427386
v -0.03509580 0.01509485 0.07428819
v -0.03409809 0.01509485 0.07431445
v -0.05236300 0.02521221 0.05583333
v -0.05076613 0.02516743 0.05734935
v -0.04928541 0.02549954 0.05731593
v -0.04800792 0.02560278 0.05780058
v -0.04699966 0.02570477 0.05811811
v -0.04622102 0.02576323 0.05829477
v -0.04470599 0.02621101 0.05734935
v -0.04470599 0.02657919 0.05583333
v -0.04470599 0.02687646 0.05431731
v -0.04472182 0.02711901 0.05275354
v -0.04523651 0.02719613 0.05189168
v -0.04472182 0.02730808 0.05134735
v -0.04628437 0.02732424 0.04997219
v -0.04641634 0.02731056 0.04997219
v -0.04556116 0.01509485 0.07325920
v -0.04550046 0.01510853 0.07326875
v -0.04773606 0.01647675 0.07164052
v -0.04827714 0.01805642 0.07016509
v -0.05076613 0.01833753 0.06893317
v -0.05161075 0.01816215 0.06874934
v -0.04925110 0.01863232 0.06923638
v -0.05236300 0.01798925 0.06858461
v -0.02652290 0.02740385 0.05431731
v -0.02540114 0.02725957 0.05531287
v -0.03258305 0.02757674 0.05280129
v -0.03106801 0.02739763 0.05431731
v -0.03409809 0.02770113 0.05128766
v -0.03561576 0.02777451 0.04997219
v -0.02955298 0.01910497 0.07123466
v -0.03106801 0.01909876 0.07122988
v -0.03106801 0.01834001 0.07192463
v -0.03409809 0.01831389 0.07190314
v -0.02540114 0.01891218 0.07141849
v -0.03561576 0.01828031 0.07187688
v -0.03555506 0.01722181 0.07274829
v -0.03601960 0.01658372 0.07324010
v -0.03713080 0.01577896 0.07373907
v -0.03713080 0.01509485 0.07419507
v -0.05236300 0.02475323 0.05734458
v -0.05228117 0.02477562 0.05734935
v -0.04925110 0.02499703 0.05886298
v -0.05089811 0.02456417 0.05900146
v -0.04759617 0.02538137 0.05871974
v -0.04773606 0.02475945 0.06037900
v -0.04622102 0.02550327 0.05905159
v -0.04470599 0.02562268 0.05939061
v -0.04383233 0.02568860 0.05958160
v -0.04470599 0.02585901 0.05863379
v -0.04318831 0.02637520 0.05734935
v -0.04318831 0.02672969 0.05583333
v -0.04318831 0.02700707 0.05431731
v -0.04318831 0.02717250 0.05325968
v -0.04422561 0.02724091 0.05221637
v -0.04470599 0.02744863 0.04997219
v -0.04318831 0.02728071 0.05250286
v -0.04318831 0.02742126 0.05128766
v -0.04550837 0.01509485 0.07327353
v -0.04470599 0.01509485 0.07339528
v -0.04470599 0.01519933 0.07333083
v -0.04318831 0.01612101 0.07289870
v -0.04470599 0.01595807 0.07277217
v -0.04470599 0.01695314 0.07201535
v -0.04596500 0.01677278 0.07187688
v -0.04697590 0.01660859 0.07174318
v -0.04775717 0.01747804 0.07079776
v -0.04726888 0.01820817 0.07030595
v -0.04774398 0.01888730 0.06947273
v -0.04822171 0.01956644 0.06862758
v -0.04925110 0.01939106 0.06842704
v -0.05090602 0.01919951 0.06792806
v -0.05218087 0.01862858 0.06799491
v -0.05236300 0.01834250 0.06821456
v -0.02540114 0.02712274 0.05607208
v -0.02652290 0.02725832 0.05530810
v -0.03106801 0.02712772 0.05603388
v -0.03258305 0.02738892 0.05431731
v -0.03561576 0.02768620 0.05128766
v -0.03409809 0.02756057 0.05280129
v -0.03258305 0.02724464 0.05525557
v -0.03106801 0.02724837 0.05527706
v -0.02803794 0.02725583 0.05530093
v -0.03581636 0.02777203 0.04997219
v -0.02955298 0.01988113 0.07047546
v -0.02652290 0.01910871 0.07123466
v -0.02652290 0.01988486 0.07047784
v -0.03106801 0.01987242 0.07047068
v -0.03258305 0.01986123 0.07046352
v -0.03409809 0.01985128 0.07045158
v -0.03409809 0.01907139 0.07121078
v -0.02540114 0.01910995 0.07123466
v -0.03561576 0.01903781 0.07118213
v -0.03864584 0.01894079 0.07110574
v -0.03864584 0.01818329 0.07179571
v -0.03864584 0.01736733 0.07245464
v -0.03864584 0.01647302 0.07316132
v -0.03864584 0.01571552 0.07369372
v -0.03864584 0.01509485 0.07410196
v -0.05236300 0.02434526 0.05850248
v -0.05228117 0.02435770 0.05853352
v -0.04919831 0.02443357 0.06040527
v -0.05148934 0.02417609 0.05959831
v -0.05047844 0.02431292 0.05991584
v -0.04865722 0.02422958 0.06122654
v -0.04773606 0.02432784 0.06143664
v -0.04610225 0.02441491 0.06192845
v -0.04622102 0.02502315 0.06037900
v -0.04327277 0.02547839 0.06029067
v -0.04282143 0.02573960 0.05972724
v -0.04327277 0.02591498 0.05899191
v -0.04470599 0.02525823 0.06037900
v -0.04167327 0.02651078 0.05734935
v -0.04167327 0.02684910 0.05583333
v -0.04174718 0.02711901 0.05426240
v -0.04129320 0.02724340 0.05371807
v -0.04230410 0.02720732 0.05349365
v -0.04318831 0.02754192 0.04997219
v -0.04174718 0.02731927 0.05291350
v -0.04167327 0.02750460 0.05128766
v -0.04318831 0.01509485 0.07361493
v -0.04318831 0.01536351 0.07344542
v -0.04318831 0.01711484 0.07214188
v -0.04167327 0.01627400 0.07300852
v -0.04470599 0.01771063 0.07138745
v -0.04318831 0.01787233 0.07152592
v -0.04637147 0.01731385 0.07130867
v -0.04721081 0.01970326 0.06878038
v -0.04622102 0.01834623 0.07044203
v -0.04470599 0.01929777 0.06987860
v -0.04622102 0.01910373 0.06967328
v -0.04772286 0.02018587 0.06805460
v -0.04773606 0.02103168 0.06702562
v -0.04925110 0.02003910 0.06766784
v -0.05049427 0.01981894 0.06740522
v -0.05150518 0.01963360 0.06718796
v -0.05228117 0.01948435 0.06699697
v -0.05236300 0.01942588 0.06702084
v -0.05236300 0.01859998 0.06793523
v -0.02540114 0.02686403 0.05734935
v -0.03258305 0.02712399 0.05601239
v -0.03106801 0.02685532 0.05734935
v -0.02652290 0.02686278 0.05734935
v -0.03561576 0.02754067 0.05280129
v -0.03409809 0.02736902 0.05431731
v -0.03668738 0.02722349 0.05510994
v -0.03561576 0.02723096 0.05515530
v -0.03409809 0.02723842 0.05521021
v -0.03713080 0.02775337 0.04997219
v -0.03713080 0.02766133 0.05128766
v -0.02955298 0.02063862 0.06966612
v -0.02540114 0.01988610 0.07047784
v -0.02652290 0.02064236 0.06966612
v -0.03106801 0.02062992 0.06966134
v -0.03258305 0.02061872 0.06965657
v -0.03409809 0.02061002 0.06963747
v -0.03561576 0.01982640 0.07042532
v -0.03713080 0.01979406 0.07038712
v -0.03864584 0.01975799 0.07034892
v -0.03957756 0.01814971 0.07176467
v -0.04015824 0.01639590 0.07310163
v -0.04015824 0.01563840 0.07364119
v -0.04015824 0.01509485 0.07399692
v -0.05236300 0.02404300 0.05926168
v -0.05228117 0.02405669 0.05929033
v -0.05089811 0.02398330 0.06040527
v -0.04966813 0.02409151 0.06092572
v -0.05236300 0.02400569 0.05935002
v -0.05228117 0.02359647 0.06037900
v -0.04773606 0.02395718 0.06219345
v -0.05076613 0.02333526 0.06189502
v -0.04919831 0.02381165 0.06179714
v -0.04917192 0.02297828 0.06345163
v -0.04551893 0.02419724 0.06267333
v -0.04470599 0.02465373 0.06189502
v -0.04318831 0.02484403 0.06189502
v -0.04167327 0.02551571 0.06062730
v -0.04015824 0.02559282 0.06081352
v -0.04167327 0.02578437 0.05987048
v -0.04167327 0.02608912 0.05886298
v -0.04015824 0.02620479 0.05886298
v -0.04015824 0.02661401 0.05734935
v -0.04015824 0.02693990 0.05583333
v -0.04015824 0.02714887 0.05466826
v -0.04015824 0.02727325 0.05391145
v -0.04015824 0.02741256 0.05280129
v -0.04167327 0.02761903 0.04997219
v -0.04015824 0.02757053 0.05128766
v -0.04167855 0.01509485 0.07382502
v -0.04167327 0.01551526 0.07355524
v -0.04167327 0.01723549 0.07225170
v -0.04470599 0.01853903 0.07062825
v -0.04318831 0.01868953 0.07076911
v -0.04167327 0.01799298 0.07162620
v -0.04622102 0.01982889 0.06891646
v -0.04633188 0.02069211 0.06787315
v -0.04691256 0.02114238 0.06717841
v -0.04470599 0.02000800 0.06911939
v -0.04318831 0.01944703 0.07003378
v -0.04773606 0.02156777 0.06626880
v -0.04925110 0.02135259 0.06596560
v -0.05021977 0.02121452 0.06576505
v -0.04925110 0.02079659 0.06672480
v -0.05122804 0.02106526 0.06554779
v -0.05228117 0.02009258 0.06623776
v -0.05236300 0.02004905 0.06624970
v -0.05236300 0.01946942 0.06696832
v -0.02540114 0.02648466 0.05886298
v -0.03258305 0.02684412 0.05734935
v -0.03409809 0.02711155 0.05596703
v -0.03409809 0.02682298 0.05734935
v -0.03258305 0.02646724 0.05886298
v -0.03106801 0.02647471 0.05886298
v -0.02803794 0.02648092 0.05886298
v -0.03561576 0.02734788 0.05431731
v -0.03713080 0.02751082 0.05280129
v -0.03716775 0.02730185 0.05444862
v -0.03561576 0.02708916 0.05591212
v -0.03769828 0.02721230 0.05504309
v -0.03864584 0.02772227 0.04997219
v -0.03864584 0.02762276 0.05128766
v -0.02955298 0.02131776 0.06890691
v -0.03106801 0.02131652 0.06890452
v -0.03258305 0.02131403 0.06889975
v -0.02540114 0.02064360 0.06966612
v -0.03409809 0.02129910 0.06888065
v -0.03561576 0.02058390 0.06959688
v -0.03825784 0.02118840 0.06874934
v -0.03871710 0.02063614 0.06934143
v -0.03983886 0.01970450 0.07029401
v -0.03561576 0.02126552 0.06884006
v -0.03713080 0.02122447 0.06878993
v -0.04058846 0.01807632 0.07170021
v -0.04011337 0.01748923 0.07223738
v -0.05236300 0.02356910 0.06038139
v -0.05236300 0.02353676 0.06045301
v -0.04773606 0.02333277 0.06340866
v -0.05076613 0.02282280 0.06292162
v -0.05216767 0.02291982 0.06187831
v -0.04962326 0.02255911 0.06398403
v -0.04861235 0.02270215 0.06421799
v -0.04610225 0.02375568 0.06327018
v -0.04622102 0.02296336 0.06468116
v -0.04470599 0.02385021 0.06355190
v -0.04470599 0.02426192 0.06279509
v -0.04318831 0.02435521 0.06299802
v -0.04167327 0.02443481 0.06319856
v -0.04167327 0.02500698 0.06189502
v -0.04015824 0.02515375 0.06189502
v -0.03864584 0.02563760 0.06094482
v -0.03864584 0.02588513 0.06018801
v -0.04015824 0.02583910 0.06005431
v -0.03864584 0.02630181 0.05886298
v -0.03864584 0.02669984 0.05734935
v -0.03864584 0.02701453 0.05583333
v -0.03864584 0.02718991 0.05490462
v -0.03864584 0.02729937 0.05414780
v -0.03864584 0.02746853 0.05280129
v -0.04015824 0.02767874 0.04997219
v -0.04084977 0.01962863 0.07021522
v -0.04470599 0.02076550 0.06822649
v -0.04590429 0.02124562 0.06731450
v -0.04633188 0.02169340 0.06657916
v -0.04622102 0.02251806 0.06543797
v -0.04318831 0.02014980 0.06927696
v -0.04318831 0.02090729 0.06840078
v -0.04773606 0.02232527 0.06515148
v -0.04917192 0.02215486 0.06480292
v -0.05228117 0.02135756 0.06449016
v -0.05236300 0.02134263 0.06446629
v -0.05228117 0.02085008 0.06524936
v -0.05076613 0.02237875 0.06367844
v -0.05236300 0.02078042 0.06529473
v -0.02540114 0.02636649 0.05925691
v -0.03409809 0.02644734 0.05886298
v -0.03561576 0.02679064 0.05734935
v -0.03258305 0.02600329 0.06037900
v -0.03106801 0.02601200 0.06037900
v -0.02955298 0.02601822 0.06037900
v -0.02803794 0.02602319 0.06037900
v -0.02540114 0.02602817 0.06037900
v -0.03716775 0.02709289 0.05570202
v -0.02540114 0.02131652 0.06890930
v -0.02540114 0.02186505 0.06820262
v -0.02540114 0.02205660 0.06795433
v -0.02652290 0.02205411 0.06795433
v -0.02803794 0.02205038 0.06795433
v -0.02955298 0.02204540 0.06795433
v -0.03258305 0.02202177 0.06795433
v -0.03106801 0.02203421 0.06795433
v -0.03409809 0.02199192 0.06795433
v -0.03561576 0.02192973 0.06795433
v -0.03713080 0.02186754 0.06795433
v -0.03871710 0.02165608 0.06809757
v -0.03926611 0.02114362 0.06869682
v -0.04167327 0.02100307 0.06852731
v -0.05236300 0.02289992 0.06179236
v -0.04773606 0.02280290 0.06439467
v -0.05158436 0.02269095 0.06268765
v -0.04516261 0.02262503 0.06560987
v -0.04467695 0.02302555 0.06503211
v -0.04167327 0.02408156 0.06395776
v -0.04015824 0.02415619 0.06410579
v -0.04015824 0.02450322 0.06334897
v -0.03864584 0.02524953 0.06189502
v -0.03713080 0.02533162 0.06189502
v -0.03713080 0.02566621 0.06103555
v -0.03713080 0.02591995 0.06027634
v -0.03713080 0.02636276 0.05886298
v -0.03561576 0.02641376 0.05886298
v -0.03713080 0.02674959 0.05734935
v -0.04470599 0.02136502 0.06746968
v -0.04318831 0.02151055 0.06764396
v -0.04167327 0.02162001 0.06777049
v -0.05216767 0.02212625 0.06327973
v -0.05236300 0.02194092 0.06346834
v -0.05236300 0.02082644 0.06523265
v -0.03561576 0.02595478 0.06034319
v -0.03412184 0.02592617 0.06052464
v -0.03363355 0.02570726 0.06115253
v -0.03258305 0.02571472 0.06117402
v -0.03106801 0.02572343 0.06119550
v -0.02955298 0.02573214 0.06121460
v -0.02803794 0.02573835 0.06122893
v -0.02652290 0.02574209 0.06123609
v -0.02540114 0.02574333 0.06124087
v -0.02540114 0.02265364 0.06717364
v -0.02955298 0.02264120 0.06715692
v -0.02652290 0.02265115 0.06716886
v -0.02803794 0.02264618 0.06716409
v -0.03258305 0.02262130 0.06712828
v -0.03409809 0.02260637 0.06710679
v -0.03713080 0.02255538 0.06702800
v -0.03864584 0.02251433 0.06695877
v -0.04015824 0.02168967 0.06787554
v -0.05236300 0.02254916 0.06244175
v -0.04318831 0.02226929 0.06660304
v -0.04318831 0.02276807 0.06584622
v -0.04318831 0.02330541 0.06492229
v -0.04167327 0.02351811 0.06492229
v -0.04015824 0.02366612 0.06492229
v -0.03864584 0.02300938 0.06620195
v -0.03873294 0.02384648 0.06479575
v -0.03713080 0.02382409 0.06502017
v -0.03929250 0.02417983 0.06415353
v -0.03713080 0.02465746 0.06340866
v -0.03561576 0.02471592 0.06340866
v -0.03561576 0.02538759 0.06189502
v -0.03561576 0.02568860 0.06110240
v -0.04167327 0.02237751 0.06675584
v -0.05236300 0.02229915 0.06286432
v -0.03258305 0.02542739 0.06193322
v -0.03412184 0.02547093 0.06175178
v -0.03106801 0.02542739 0.06195471
v -0.02955298 0.02542739 0.06197142
v -0.02803794 0.02542739 0.06198575
v -0.02540114 0.02566248 0.06143664
v -0.02540114 0.02300938 0.06661259
v -0.02955298 0.02313252 0.06639772
v -0.03258305 0.02313127 0.06637146
v -0.03106801 0.02313127 0.06638578
v -0.03409809 0.02312008 0.06634759
v -0.03561576 0.02309645 0.06630700
v -0.03713080 0.02306659 0.06626880
v -0.04015824 0.02244716 0.06685849
v -0.04167327 0.02286509 0.06599902
v -0.04015824 0.02293723 0.06610168
v -0.03561576 0.02385518 0.06507031
v -0.03713080 0.02423455 0.06426336
v -0.03828424 0.02420595 0.06420606
v -0.03561576 0.02425943 0.06431110
v -0.03409809 0.02428058 0.06434930
v -0.03409809 0.02475448 0.06340866
v -0.03258305 0.02478184 0.06340866
v -0.02955298 0.02480050 0.06340866
v -0.02803794 0.02480672 0.06340866
v -0.02540114 0.02542739 0.06199768
v -0.02540114 0.02313376 0.06641443
v -0.02652290 0.02313252 0.06641205
v -0.02955298 0.02389001 0.06515626
v -0.03258305 0.02389001 0.06513238
v -0.02540114 0.02369473 0.06549766
v -0.03409809 0.02387757 0.06510612
v -0.03258305 0.02429799 0.06437557
v -0.02955298 0.02431665 0.06439705
v -0.02803794 0.02432162 0.06440660
v -0.02540114 0.02432784 0.06441615
v -0.02540114 0.02481170 0.06340866
v -0.02540114 0.02389126 0.06517535
v -0.02540114 0.02421465 0.06461431
f 1 2 5
f 1 5 11
f 1 11 10
f 1 10 9
f 1 9 8
f 1 8 16
f 1 16 24
f 1 24 40
f 1 40 62
f 1 62 94
f 1 94 131
f 1 131 181
f 1 181 246
f 1 246 245
f 1 245 314
f 1 314 313
f 1 313 380
f 1 380 424
f 1 424 377
f 1 377 423
f 1 423 458
f 1 458 443
f 1 443 404
f 1 404 343
f 1 343 342
f 1 342 275
f 1 275 271
f 1 271 207
f 1 207 148
f 1 148 110
f 1 110 72
f 1 72 51
f 1 51 48
f 1 48 30
f 1 30 19
f 1 19 13
f 1 13 6
f 1 6 3
f 1 3 7
f 1 7 15
f 1 15 22
f 1 22 36
f 1 36 57
f 1 57 85
f 1 85 123
f 1 123 122
f 1 122 163
f 1 163 225
f 1 225 294
f 1 294 366
f 1 366 327
f 1 327 256
f 1 256 191
f 1 191 137
f 1 137 98
f 1 98 65
f 1 65 42
f 1 42 26
f 1 26 17
f 1 17 12
f 1 12 4
f 1 4 2
f 2 4 5
f 3 6 7
f 4 8 9
f 4 9 10
f 4 10 11
f 4 11 5
f 4 12 18
f 4 18 27
f 4 27 43
f 4 43 47
f 4 47 71
f 4 71 70
f 4 70 109
f 4 109 108
f 4 108 107
f 4 107 147
f 4 147 206
f 4 206 270
f 4 270 296
f 4 296 228
f 4 228 167
f 4 167 166
f 4 166 124
f 4 124 87
f 4 87 86
f 4 86 58
f 4 58 37
f 4 37 23
f 4 23 16
f 4 16 8
f 6 13 14
f 6 14 7
f 7 14 15
f 12 17 25
f 12 25 41
f 12 41 63
f 12 63 95
f 12 95 133
f 12 133 182
f 12 182 247
f 12 247 315
f 12 315 381
f 12 381 388
f 12 388 433
f 12 433 464
f 12 464 484
f 12 484 495
f 12 495 494
f 12 494 497
f 12 497 496
f 12 496 489
f 12 489 485
f 12 485 465
f 12 465 434
f 12 434 392
f 12 392 391
f 12 391 390
f 12 390 332
f 12 332 259
f 12 259 199
f 12 199 142
f 12 142 102
f 12 102 99
f 12 99 66
f 12 66 44
f 12 44 28
f 12 28 18
f 13 19 14
f 14 20 21
f 14 21 15
f 14 19 20
f 15 21 22
f 16 23 24
f 17 26 25
f 18 28 29
f 18 29 27
f 19 30 31
f 19 31 20
f 20 32 33
f 20 33 21
f 20 31 34
f 20 34 32
f 21 33 35
f 21 35 22
f 22 35 36
f 23 37 24
f 24 37 38
f 24 38 39
f 24 39 40
f 25 26 41
f 26 42 41
f 27 29 43
f 28 44 45
f 28 45 29
f 29 45 46
f 29 46 47
f 29 47 43
f 30 48 31
f 31 49 50
f 31 50 34
f 31 48 51
f 31 51 49
f 32 34 50
f 32 50 52
f 32 52 53
f 32 53 54
f 32 54 33
f 33 54 55
f 33 55 35
f 35 55 56
f 35 56 36
f 36 56 57
f 37 58 59
f 37 59 38
f 38 59 60
f 38 60 61
f 38 61 40
f 38 40 39
f 40 61 62
f 41 42 64
f 41 64 63
f 42 65 64
f 44 66 45
f 45 67 68
f 45 68 46
f 45 66 67
f 46 68 69
f 46 69 70
f 46 70 71
f 46 71 47
f 49 51 72
f 49 72 73
f 49 73 74
f 49 74 50
f 50 75 52
f 50 74 75
f 52 75 76
f 52 76 53
f 53 76 77
f 53 77 78
f 53 78 79
f 53 79 54
f 54 79 80
f 54 80 55
f 55 80 81
f 55 81 56
f 56 81 82
f 56 82 83
f 56 83 84
f 56 84 85
f 56 85 57
f 58 86 59
f 59 86 87
f 59 87 88
f 59 88 89
f 59 89 60
f 60 90 61
f 60 89 91
f 60 91 92
f 60 92 90
f 61 90 93
f 61 93 62
f 62 93 94
f 63 64 96
f 63 96 95
f 64 65 97
f 64 97 96
f 65 98 97
f 66 99 67
f 67 100 101
f 67 101 68
f 67 99 102
f 67 102 100
f 68 101 103
f 68 103 104
f 68 104 69
f 69 104 105
f 69 105 106
f 69 106 107
f 69 107 108
f 69 108 109
f 69 109 70
f 72 110 73
f 73 111 74
f 73 110 111
f 74 111 75
f 75 111 112
f 75 112 76
f 76 113 114
f 76 114 77
f 76 112 113
f 77 114 78
f 78 114 115
f 78 115 116
f 78 116 117
f 78 117 79
f 79 117 80
f 80 117 118
f 80 118 81
f 81 118 119
f 81 119 120
f 81 120 83
f 81 83 82
f 83 120 121
f 83 121 122
f 83 122 84
f 84 122 123
f 84 123 85
f 87 124 125
f 87 125 88
f 88 125 126
f 88 126 89
f 89 126 127
f 89 127 91
f 90 128 129
f 90 129 94
f 90 94 93
f 90 92 128
f 91 127 92
f 92 130 128
f 92 127 130
f 94 129 131
f 95 96 132
f 95 132 133
f 96 97 134
f 96 134 135
f 96 135 132
f 97 98 136
f 97 136 134
f 98 137 136
f 100 138 139
f 100 139 140
f 100 140 101
f 100 102 138
f 101 140 141
f 101 141 103
f 102 142 138
f 103 141 105
f 103 105 104
f 105 143 144
f 105 144 145
f 105 145 106
f 105 141 143
f 106 145 146
f 106 146 107
f 107 146 147
f 110 148 149
f 110 149 111
f 111 150 112
f 111 149 151
f 111 151 150
f 112 150 113
f 113 150 114
f 114 150 152
f 114 152 153
f 114 153 154
f 114 154 155
f 114 155 115
f 115 155 156
f 115 156 157
f 115 157 116
f 116 157 158
f 116 158 117
f 117 158 159
f 117 159 118
f 118 159 160
f 118 160 161
f 118 161 119
f 119 161 162
f 119 162 120
f 120 162 121
f 121 163 122
f 121 162 164
f 121 164 165
f 121 165 163
f 124 166 125
f 125 166 167
f 125 167 168
f 125 168 169
f 125 169 170
f 125 170 171
f 125 171 172
f 125 172 173
f 125 173 126
f 126 173 174
f 126 174 127
f 127 174 175
f 127 175 176
f 127 176 177
f 127 177 130
f 128 130 178
f 128 178 179
f 128 179 180
f 128 180 129
f 129 180 181
f 129 181 131
f 130 177 178
f 132 135 133
f 133 135 183
f 133 183 184
f 133 184 182
f 134 185 135
f 134 136 186
f 134 186 187
f 134 187 185
f 135 185 188
f 135 188 189
f 135 189 190
f 135 190 183
f 136 137 186
f 137 191 186
f 138 192 139
f 138 142 193
f 138 193 194
f 138 194 192
f 139 195 196
f 139 196 197
f 139 197 198
f 139 198 140
f 139 192 195
f 140 198 141
f 141 198 143
f 142 199 193
f 143 198 200
f 143 200 201
f 143 201 202
f 143 202 144
f 144 202 145
f 145 202 203
f 145 203 204
f 145 204 205
f 145 205 146
f 146 205 147
f 147 205 206
f 148 207 149
f 149 208 151
f 149 207 208
f 150 151 209
f 150 209 153
f 150 153 152
f 151 208 210
f 151 210 211
f 151 211 209
f 153 212 213
f 153 213 214
f 153 214 215
f 153 215 154
f 153 209 212
f 154 215 155
f 155 215 156
f 156 216 217
f 156 217 218
f 156 218 157
f 156 215 219
f 156 219 216
f 157 218 158
f 158 218 220
f 158 220 159
f 159 220 221
f 159 221 160
f 160 221 222
f 160 222 223
f 160 223 224
f 160 224 161
f 161 224 164
f 161 164 162
f 163 165 225
f 164 224 223
f 164 223 226
f 164 226 165
f 165 226 227
f 165 227 225
f 167 228 168
f 168 228 229
f 168 229 169
f 169 230 171
f 169 171 170
f 169 229 231
f 169 231 230
f 171 232 172
f 171 230 233
f 171 233 232
f 172 234 174
f 172 174 173
f 172 232 234
f 174 234 175
f 175 235 176
f 175 234 232
f 175 232 236
f 175 236 237
f 175 237 238
f 175 238 235
f 176 235 177
f 177 235 239
f 177 239 240
f 177 240 241
f 177 241 178
f 178 241 242
f 178 242 243
f 178 243 179
f 179 243 180
f 180 243 244
f 180 244 245
f 180 245 246
f 180 246 181
f 182 184 247
f 183 190 184
f 184 190 189
f 184 189 188
f 184 188 248
f 184 248 249
f 184 249 250
f 184 250 247
f 185 187 251
f 185 251 252
f 185 252 253
f 185 253 254
f 185 254 255
f 185 255 188
f 186 251 187
f 186 191 256
f 186 256 257
f 186 257 251
f 188 255 248
f 192 258 261
f 192 261 195
f 192 194 258
f 193 199 259
f 193 259 194
f 194 259 332
f 194 332 260
f 194 260 258
f 195 261 262
f 195 262 196
f 196 262 197
f 197 262 263
f 197 263 264
f 197 264 198
f 198 264 200
f 200 264 265
f 200 265 266
f 200 266 201
f 201 266 267
f 201 267 202
f 202 267 203
f 203 267 204
f 204 267 268
f 204 268 269
f 204 269 205
f 205 269 206
f 206 269 270
f 207 271 272
f 207 272 210
f 207 210 208
f 209 211 212
f 210 273 274
f 210 274 211
f 210 272 275
f 210 275 276
f 210 276 273
f 211 274 212
f 212 277 213
f 212 274 278
f 212 278 279
f 212 279 280
f 212 280 277
f 213 277 281
f 213 281 214
f 214 281 282
f 214 282 215
f 215 282 219
f 216 219 282
f 216 282 283
f 216 283 284
f 216 284 217
f 217 284 285
f 217 285 286
f 217 286 287
f 217 287 218
f 218 287 220
f 220 287 288
f 220 288 289
f 220 289 221
f 221 289 290
f 221 290 291
f 221 291 223
f 221 223 222
f 223 291 292
f 223 292 293
f 223 293 226
f 225 227 294
f 226 293 227
f 227 293 295
f 227 295 294
f 228 296 229
f 229 296 297
f 229 297 231
f 230 231 298
f 230 298 233
f 231 297 268
f 231 268 298
f 232 299 236
f 232 233 299
f 233 300 299
f 233 298 301
f 233 301 300
f 235 238 302
f 235 302 303
f 235 303 304
f 235 304 239
f 236 299 237
f 237 305 302
f 237 302 238
f 237 299 306
f 237 306 305
f 239 304 240
f 240 304 307
f 240 307 308
f 240 308 309
f 240 309 310
f 240 310 241
f 241 310 311
f 241 311 242
f 242 311 243
f 243 311 244
f 244 311 312
f 244 312 313
f 244 313 314
f 244 314 245
f 247 250 315
f 248 316 249
f 248 255 254
f 248 254 317
f 248 317 318
f 248 318 316
f 249 316 319
f 249 319 320
f 249 320 321
f 249 321 250
f 250 321 315
f 251 322 252
f 251 257 323
f 251 323 324
f 251 324 322
f 252 322 253
f 253 325 317
f 253 317 254
f 253 322 324
f 253 324 326
f 253 326 325
f 256 327 257
f 257 327 328
f 257 328 323
f 258 329 330
f 258 330 331
f 258 331 261
f 258 260 329
f 260 332 329
f 261 331 262
f 262 331 263
f 263 333 334
f 263 334 264
f 263 331 333
f 264 334 265
f 265 334 266
f 266 335 336
f 266 336 337
f 266 337 267
f 266 334 338
f 266 338 339
f 266 339 335
f 267 337 340
f 267 340 341
f 267 341 268
f 268 297 269
f 268 341 298
f 269 297 270
f 270 297 296
f 271 275 272
f 273 276 278
f 273 278 274
f 275 342 276
f 276 342 343
f 276 343 278
f 277 280 344
f 277 344 281
f 278 345 279
f 278 343 346
f 278 346 345
f 279 345 280
f 280 345 347
f 280 347 348
f 280 348 344
f 281 344 349
f 281 349 350
f 281 350 351
f 281 351 352
f 281 352 282
f 282 352 283
f 283 352 353
f 283 353 354
f 283 354 355
f 283 355 284
f 284 355 285
f 285 356 357
f 285 357 358
f 285 358 359
f 285 359 286
f 285 355 356
f 286 359 288
f 286 288 287
f 288 359 360
f 288 360 289
f 289 360 361
f 289 361 290
f 290 361 362
f 290 362 326
f 290 326 363
f 290 363 291
f 291 363 292
f 292 363 326
f 292 326 364
f 292 364 365
f 292 365 293
f 293 365 295
f 294 295 366
f 295 365 328
f 295 328 366
f 298 341 340
f 298 340 301
f 299 300 306
f 300 367 306
f 300 301 340
f 300 340 337
f 300 337 367
f 302 305 303
f 303 305 368
f 303 368 304
f 304 368 369
f 304 369 370
f 304 370 371
f 304 371 307
f 305 306 372
f 305 372 373
f 305 373 368
f 306 367 372
f 307 371 374
f 307 374 308
f 308 374 309
f 309 311 310
f 309 374 375
f 309 375 311
f 311 376 377
f 311 377 378
f 311 378 313
f 311 313 312
f 311 375 348
f 311 348 347
f 311 347 379
f 311 379 376
f 313 378 380
f 315 321 381
f 316 318 382
f 316 382 319
f 317 325 383
f 317 383 318
f 318 383 382
f 319 384 385
f 319 385 320
f 319 382 384
f 320 385 386
f 320 386 387
f 320 387 321
f 321 387 388
f 321 388 381
f 323 328 365
f 323 365 364
f 323 364 326
f 323 326 324
f 325 326 389
f 325 389 383
f 326 362 361
f 326 361 389
f 327 366 328
f 329 332 390
f 329 390 391
f 329 391 392
f 329 392 330
f 330 392 393
f 330 393 394
f 330 394 395
f 330 395 331
f 331 396 333
f 331 395 397
f 331 397 396
f 333 398 399
f 333 399 400
f 333 400 338
f 333 338 334
f 333 396 398
f 335 400 401
f 335 401 402
f 335 402 336
f 335 339 400
f 336 402 337
f 337 402 403
f 337 403 372
f 337 372 367
f 338 400 339
f 343 404 346
f 344 348 405
f 344 405 349
f 345 346 406
f 345 406 379
f 345 379 347
f 346 404 406
f 348 375 374
f 348 374 371
f 348 371 405
f 349 405 350
f 350 371 407
f 350 407 351
f 350 405 371
f 351 408 409
f 351 409 352
f 351 407 408
f 352 409 353
f 353 409 354
f 354 409 410
f 354 410 411
f 354 411 356
f 354 356 355
f 356 411 412
f 356 412 357
f 357 412 413
f 357 413 414
f 357 414 415
f 357 415 358
f 358 415 360
f 358 360 359
f 360 415 416
f 360 416 361
f 361 416 417
f 361 417 418
f 361 418 389
f 368 419 369
f 368 373 420
f 368 420 419
f 369 407 370
f 369 419 407
f 370 407 371
f 372 403 373
f 373 403 421
f 373 421 420
f 376 379 406
f 376 406 422
f 376 422 377
f 377 424 378
f 377 422 423
f 378 424 380
f 382 383 417
f 382 417 425
f 382 425 384
f 383 389 418
f 383 418 417
f 384 425 426
f 384 426 427
f 384 427 428
f 384 428 429
f 384 429 430
f 384 430 431
f 384 431 385
f 385 431 386
f 386 431 432
f 386 432 387
f 387 432 433
f 387 433 388
f 392 434 393
f 393 434 394
f 394 434 395
f 395 435 397
f 395 434 436
f 395 436 437
f 395 437 435
f 396 438 398
f 396 397 435
f 396 435 438
f 398 439 440
f 398 440 399
f 398 438 439
f 399 440 400
f 400 440 441
f 400 441 401
f 401 441 442
f 401 442 402
f 402 442 421
f 402 421 403
f 404 443 406
f 406 443 422
f 407 419 444
f 407 444 445
f 407 445 446
f 407 446 409
f 407 409 408
f 409 447 410
f 409 446 445
f 409 445 447
f 410 448 449
f 410 449 450
f 410 450 451
f 410 451 452
f 410 452 453
f 410 453 411
f 410 447 448
f 411 453 412
f 412 453 413
f 413 453 454
f 413 454 455
f 413 455 414
f 414 455 456
f 414 456 425
f 414 425 415
f 415 425 416
f 416 425 417
f 419 420 444
f 420 421 457
f 420 457 444
f 421 442 457
f 422 443 458
f 422 458 423
f 425 456 426
f 426 456 427
f 427 459 428
f 427 456 460
f 427 460 459
f 428 459 429
f 429 459 430
f 430 459 431
f 431 459 461
f 431 461 462
f 431 462 432
f 432 462 463
f 432 463 464
f 432 464 433
f 434 465 466
f 434 466 436
f 435 467 438
f 435 437 467
f 436 466 437
f 437 466 468
f 437 468 467
f 438 467 469
f 438 469 439
f 439 469 470
f 439 470 440
f 440 470 471
f 440 471 441
f 441 471 449
f 441 449 472
f 441 472 442
f 442 472 457
f 444 457 445
f 445 457 473
f 445 473 447
f 447 473 448
f 448 474 449
f 448 473 474
f 449 471 451
f 449 451 450
f 449 474 457
f 449 457 472
f 451 471 475
f 451 475 476
f 451 476 477
f 451 477 452
f 452 477 453
f 453 477 476
f 453 476 454
f 454 478 479
f 454 479 480
f 454 480 455
f 454 476 478
f 455 480 459
f 455 459 460
f 455 460 456
f 457 474 473
f 459 480 481
f 459 481 461
f 461 481 482
f 461 482 462
f 462 482 463
f 463 483 484
f 463 484 464
f 463 482 483
f 465 485 486
f 465 486 466
f 466 487 488
f 466 488 468
f 466 486 489
f 466 489 487
f 467 488 469
f 467 468 488
f 469 490 475
f 469 475 470
f 469 488 490
f 470 475 471
f 475 478 476
f 475 490 479
f 475 479 478
f 479 490 491
f 479 491 480
f 480 491 481
f 481 491 492
f 481 492 493
f 481 493 482
f 482 493 494
f 482 494 483
f 483 494 495
f 483 495 484
f 485 489 486
f 487 489 496
f 487 496 497
f 487 497 494
f 487 494 493
f 487 493 488
f 488 491 490
f 488 493 492
f 488 492 491

