# https://github.com/mikedh/trimesh
v 0.02118205 -0.02134137 0.06887628
v -0.02348816 -0.02134137 0.06887628
v 0.02118205 -0.02137713 0.06883109
v 0.02118205 -0.02134137 0.00138233
v -0.02604458 -0.02134137 0.06886875
v -0.02604458 -0.02137647 0.06883109
v -0.02500444 -0.02137713 0.06883109
v 0.02118205 -0.02173736 0.06837164
v 0.02118205 -0.02203601 0.00130702
v 0.01961954 -0.02355111 -0.00630027
v 0.01865800 -0.02233135 -0.00739241
v 0.01890301 -0.02209097 -0.00630027
v 0.01742371 -0.02138905 -0.00630027
v 0.01742371 -0.02137117 -0.00478634
v 0.01901858 -0.02134137 0.00096054
v -0.02604458 -0.02134137 0.00141246
v -0.02604458 -0.02184795 0.06822853
v -0.02500444 -0.02206647 0.06794985
v 0.02118205 -0.02206647 0.06794985
v 0.02118205 -0.02660316 0.00129195
v 0.01961954 -0.02506621 -0.00630027
v 0.01889376 -0.02355111 -0.00755811
v 0.01742371 -0.02355111 -0.00807028
v 0.01742371 -0.02210024 -0.00755811
v 0.01287949 -0.02138905 -0.00630027
v 0.00833064 -0.02137183 -0.00478634
v -0.01742766 -0.02134137 0.00077978
v 0.00361538 -0.02134137 0.00077224
v 0.01725729 -0.02134137 0.00077224
v 0.01742371 -0.02134137 0.00077978
v -0.01759870 -0.02134137 0.00078731
v -0.01742766 -0.02137448 -0.00478634
v -0.01742766 -0.02139170 -0.00630027
v -0.01865270 -0.02233267 -0.00739241
v -0.01888846 -0.02355111 -0.00755811
v -0.01888846 -0.02506621 -0.00755811
v -0.02604458 -0.02658197 0.00160829
v -0.02604458 -0.02206448 0.06794985
v 0.02118205 -0.02241081 0.06750546
v -0.02604458 -0.02251676 0.06736235
v -0.02500444 -0.02272536 0.06709120
v 0.02118205 -0.02716138 0.00135974
v 0.01951784 -0.02658197 -0.00630027
v 0.01884291 -0.02658197 -0.00749032
v 0.01889376 -0.02506621 -0.00755811
v 0.01742371 -0.02506621 -0.00807028
v -0.01742766 -0.02355111 -0.00807028
v 0.00530270 -0.02210024 -0.00755811
v -0.00833459 -0.02137316 -0.00478634
v -0.00681831 -0.02210091 -0.00755811
v -0.01742766 -0.02210157 -0.00755811
v -0.01591137 -0.02137382 -0.00478634
v -0.01742766 -0.02506621 -0.00807028
v -0.01883761 -0.02658197 -0.00749032
v -0.02604458 -0.02765273 0.00172127
v 0.02118205 -0.02272536 0.06709120
v -0.02604458 -0.02272337 0.06709120
v -0.02604458 -0.02304586 0.06657150
v -0.02500444 -0.02319485 0.06633047
v 0.02118205 -0.02765207 0.00160829
v 0.01858403 -0.02750374 -0.00729449
v 0.01742371 -0.02658197 -0.00791964
v -0.01742766 -0.02658197 -0.00791964
v -0.01858336 -0.02750440 -0.00729449
v -0.02604458 -0.02799045 0.00279081
v 0.02118205 -0.02319485 0.06633047
v -0.02604458 -0.02319353 0.06633047
v -0.02500444 -0.02395240 0.06508017
v 0.02118205 -0.02781232 0.00212047
v 0.01880131 -0.02759909 -0.00630027
v 0.01742371 -0.02758585 -0.00741500
v 0.01742371 -0.02785933 -0.00630027
v 0.00530270 -0.02758651 -0.00741500
v -0.01136253 -0.02758717 -0.00741500
v -0.01742766 -0.02758717 -0.00741500
v -0.01742766 -0.02786198 -0.00630027
v -0.02604458 -0.02801429 0.00431227
v -0.01742766 -0.02791695 -0.00478634
v -0.01742766 -0.02796065 -0.00326489
v -0.01742766 -0.02798449 -0.00175096
v 0.02118205 -0.02395240 0.06508017
v -0.02604458 -0.02371335 0.06547183
v -0.02604458 -0.02395107 0.06507263
v -0.02604458 -0.02439540 0.06431944
v -0.02500444 -0.02439673 0.06431944
v 0.02118205 -0.02798780 0.00279081
v -0.00227408 -0.02786132 -0.00630027
v -0.01136253 -0.02786198 -0.00630027
v 0.01439577 -0.02786000 -0.00630027
v 0.01742371 -0.02791430 -0.00478634
v -0.01742766 -0.02800038 -0.00023704
v -0.01742766 -0.02808978 0.01188943
v -0.02604458 -0.02800171 0.03764122
v -0.01287881 -0.02791695 -0.00478634
v -0.00833459 -0.02795999 -0.00326489
v -0.01591137 -0.02798449 -0.00175096
v 0.02118205 -0.02439673 0.06431944
v -0.02604458 -0.02481656 0.06340807
v -0.02500444 -0.02481987 0.06340807
v 0.02118205 -0.02461856 0.06384492
v 0.02118205 -0.02801164 0.00431227
v 0.01742371 -0.02798184 -0.00175096
v 0.01742371 -0.02795734 -0.00326489
v 0.01136320 -0.02791496 -0.00478634
v 0.00378642 -0.02791562 -0.00478634
v 0.01591205 -0.02795800 -0.00326489
v -0.01591137 -0.02800038 -0.00023704
v 0.01287949 -0.02810633 0.01188943
v -0.01136253 -0.02809640 0.01491728
v -0.02604458 -0.02799839 0.04067660
v -0.02604458 -0.02800038 0.03915514
v 0.00833064 -0.02795866 -0.00326489
v -0.02604458 -0.02527016 0.06236866
v 0.02118205 -0.02481987 0.06340807
v -0.02500444 -0.02548206 0.06188661
v 0.01742371 -0.02807786 0.01188943
v 0.01439577 -0.02810501 0.01188943
v 0.01742371 -0.02799773 -0.00023704
v 0.02118205 -0.02800171 0.03764122
v 0.00681898 -0.02810302 0.01491728
v 0.00378642 -0.02810368 0.01491728
v -0.00227408 -0.02799839 0.04219052
v -0.02604458 -0.02799244 0.04219052
v -0.02604458 -0.02547809 0.06188661
v 0.02118205 -0.02548206 0.06188661
v -0.02500444 -0.02581647 0.06111082
v 0.02118205 -0.02800038 0.03915514
v 0.02118205 -0.02799972 0.03987821
v 0.02118205 -0.02799839 0.04067660
v 0.02118205 -0.02799575 0.04139967
v 0.00227014 -0.02799839 0.04219052
v -0.00227408 -0.02798648 0.04370445
v -0.02604458 -0.02798250 0.04370445
v -0.02604458 -0.02581448 0.06110329
v 0.02118205 -0.02581647 0.06111082
v -0.02604458 -0.02597275 0.06058358
v -0.02500444 -0.02604559 0.06035009
v 0.02118205 -0.02627934 0.05957430
v 0.02118205 -0.02799244 0.04219052
v 0.02118205 -0.02798780 0.04291359
v 0.02118205 -0.02798250 0.04370445
v 0.00227014 -0.02798648 0.04370445
v -0.00530203 -0.02796462 0.04521837
v -0.02500444 -0.02796396 0.04521837
v -0.02604458 -0.02797654 0.04417896
v -0.02604458 -0.02604493 0.06034256
v -0.02604458 -0.02648860 0.05885876
v -0.02500444 -0.02649124 0.05885876
v -0.02348816 -0.02649257 0.05885876
v 0.02118205 -0.02649257 0.05885876
v 0.02118205 -0.02797390 0.04442752
v 0.02118205 -0.02796396 0.04521837
v 0.00530270 -0.02796462 0.04521837
v -0.02500444 -0.02793151 0.04673230
v -0.02604458 -0.02796330 0.04521837
v -0.02604458 -0.02795337 0.04569289
v -0.02604458 -0.02674884 0.05781935
v -0.02500444 -0.02687002 0.05734484
v 0.02118205 -0.02669057 0.05806791
v -0.02348816 -0.02687134 0.05734484
v 0.02118205 -0.02793151 0.04673230
v -0.02604458 -0.02793085 0.04673230
v -0.02500444 -0.02788185 0.04825376
v -0.02604458 -0.02791562 0.04721434
v -0.02604458 -0.02686737 0.05734484
v -0.02604458 -0.02716933 0.05583091
v -0.02500444 -0.02717132 0.05583091
v 0.02118205 -0.02687134 0.05734484
v 0.02118205 -0.02702828 0.05655398
v 0.02118205 -0.02788185 0.04825376
v -0.02604458 -0.02788119 0.04825376
v 0.02118205 -0.02784675 0.04897682
v -0.02500444 -0.02780768 0.04976768
v -0.02604458 -0.02785801 0.04872827
v -0.02604458 -0.02732693 0.05497227
v -0.02500444 -0.02732892 0.05498733
v 0.02118205 -0.02717132 0.05583091
v 0.02118205 -0.02780768 0.04976768
v 0.02118205 -0.02776663 0.05049075
v -0.02604458 -0.02772160 0.05128161
v -0.02604458 -0.02780702 0.04976768
v -0.02604458 -0.02739249 0.05445256
v -0.02604458 -0.02742163 0.05421907
v -0.02500444 -0.02742163 0.05422660
v 0.02118205 -0.02732892 0.05498733
v 0.02118205 -0.02772160 0.05128161
v 0.02118205 -0.02765935 0.05200467
v -0.02500444 -0.02759115 0.05279553
v -0.02604458 -0.02768054 0.05175612
v -0.02604458 -0.02753751 0.05324745
v 0.02118205 -0.02751036 0.05348094
v 0.02118205 -0.02742163 0.05422660
v 0.02118205 -0.02759115 0.05279553
v -0.02604458 -0.02759049 0.05279553
f 1 2 7
f 1 7 3
f 1 3 8
f 1 8 19
f 1 19 39
f 1 39 56
f 1 56 66
f 1 66 81
f 1 81 97
f 1 97 100
f 1 100 114
f 1 114 125
f 1 125 135
f 1 135 138
f 1 138 150
f 1 150 159
f 1 159 168
f 1 168 169
f 1 169 177
f 1 177 185
f 1 185 192
f 1 192 191
f 1 191 193
f 1 193 187
f 1 187 186
f 1 186 179
f 1 179 178
f 1 178 172
f 1 172 170
f 1 170 161
f 1 161 152
f 1 152 151
f 1 151 141
f 1 141 140
f 1 140 139
f 1 139 130
f 1 130 129
f 1 129 128
f 1 128 127
f 1 127 119
f 1 119 101
f 1 101 86
f 1 86 69
f 1 69 60
f 1 60 42
f 1 42 20
f 1 20 9
f 1 9 4
f 1 4 15
f 1 15 30
f 1 30 29
f 1 29 28
f 1 28 27
f 1 27 31
f 1 31 16
f 1 16 5
f 1 5 2
f 2 5 6
f 2 6 7
f 3 7 8
f 4 9 10
f 4 10 11
f 4 11 12
f 4 12 13
f 4 13 14
f 4 14 15
f 5 16 37
f 5 37 55
f 5 55 65
f 5 65 77
f 5 77 93
f 5 93 111
f 5 111 110
f 5 110 123
f 5 123 133
f 5 133 145
f 5 145 155
f 5 155 156
f 5 156 162
f 5 162 164
f 5 164 171
f 5 171 174
f 5 174 181
f 5 181 180
f 5 180 189
f 5 189 194
f 5 194 190
f 5 190 183
f 5 183 182
f 5 182 175
f 5 175 166
f 5 166 165
f 5 165 157
f 5 157 147
f 5 147 146
f 5 146 136
f 5 136 134
f 5 134 124
f 5 124 113
f 5 113 98
f 5 98 84
f 5 84 83
f 5 83 82
f 5 82 67
f 5 67 58
f 5 58 57
f 5 57 40
f 5 40 38
f 5 38 17
f 5 17 6
f 6 17 7
f 7 17 18
f 7 18 8
f 8 18 19
f 9 20 10
f 10 21 45
f 10 45 22
f 10 22 11
f 10 20 21
f 11 22 23
f 11 23 24
f 11 24 13
f 11 13 12
f 13 24 48
f 13 48 25
f 13 25 14
f 14 25 26
f 14 26 27
f 14 27 28
f 14 28 29
f 14 29 30
f 14 30 15
f 16 31 32
f 16 32 33
f 16 33 34
f 16 34 35
f 16 35 36
f 16 36 37
f 17 38 18
f 18 39 19
f 18 38 40
f 18 40 41
f 18 41 39
f 20 42 21
f 21 43 44
f 21 44 45
f 21 42 43
f 22 45 46
f 22 46 23
f 23 46 53
f 23 53 47
f 23 47 48
f 23 48 24
f 25 49 26
f 25 48 50
f 25 50 51
f 25 51 33
f 25 33 52
f 25 52 49
f 26 49 27
f 27 49 52
f 27 52 31
f 31 52 32
f 32 52 33
f 33 51 34
f 34 51 47
f 34 47 35
f 35 47 53
f 35 53 36
f 36 53 54
f 36 54 37
f 37 54 55
f 39 41 56
f 40 57 41
f 41 57 58
f 41 58 59
f 41 59 66
f 41 66 56
f 42 60 43
f 43 61 44
f 43 60 61
f 44 61 62
f 44 62 46
f 44 46 45
f 46 62 63
f 46 63 53
f 47 51 50
f 47 50 48
f 53 63 54
f 54 63 64
f 54 64 55
f 55 64 65
f 58 67 59
f 59 67 68
f 59 68 81
f 59 81 66
f 60 69 70
f 60 70 61
f 61 71 62
f 61 70 72
f 61 72 71
f 62 71 73
f 62 73 74
f 62 74 75
f 62 75 63
f 63 75 64
f 64 75 76
f 64 76 65
f 65 76 78
f 65 78 79
f 65 79 80
f 65 80 77
f 67 82 68
f 68 83 84
f 68 84 85
f 68 85 97
f 68 97 81
f 68 82 83
f 69 86 70
f 70 86 72
f 71 87 88
f 71 88 73
f 71 72 89
f 71 89 87
f 72 86 90
f 72 90 89
f 73 88 74
f 74 88 76
f 74 76 75
f 76 88 94
f 76 94 78
f 77 80 91
f 77 91 92
f 77 92 93
f 78 94 79
f 79 94 95
f 79 95 96
f 79 96 80
f 80 96 107
f 80 107 91
f 84 98 99
f 84 99 85
f 85 99 100
f 85 100 97
f 86 101 102
f 86 102 103
f 86 103 90
f 87 89 94
f 87 94 88
f 89 90 104
f 89 104 105
f 89 105 94
f 90 103 106
f 90 106 104
f 91 107 108
f 91 108 92
f 92 108 109
f 92 109 110
f 92 110 111
f 92 111 93
f 94 105 112
f 94 112 95
f 95 112 102
f 95 102 96
f 96 102 118
f 96 118 107
f 98 113 99
f 99 114 100
f 99 113 115
f 99 115 125
f 99 125 114
f 101 116 117
f 101 117 118
f 101 118 102
f 101 119 116
f 102 112 106
f 102 106 103
f 104 106 105
f 105 106 112
f 107 118 108
f 108 117 120
f 108 120 121
f 108 121 109
f 108 118 117
f 109 121 110
f 110 122 123
f 110 121 122
f 113 124 115
f 115 124 126
f 115 126 135
f 115 135 125
f 116 119 127
f 116 127 128
f 116 128 117
f 117 128 129
f 117 129 120
f 120 129 130
f 120 130 131
f 120 131 121
f 121 131 122
f 122 131 142
f 122 142 132
f 122 132 133
f 122 133 123
f 124 134 126
f 126 134 136
f 126 136 137
f 126 137 138
f 126 138 135
f 130 139 131
f 131 139 140
f 131 140 141
f 131 141 142
f 132 142 153
f 132 153 143
f 132 143 144
f 132 144 133
f 133 144 145
f 136 146 137
f 137 146 147
f 137 147 148
f 137 148 149
f 137 149 138
f 138 149 150
f 141 151 142
f 142 151 152
f 142 152 153
f 143 153 161
f 143 161 154
f 143 154 144
f 144 155 145
f 144 154 156
f 144 156 155
f 147 157 148
f 148 157 158
f 148 158 160
f 148 160 149
f 149 159 150
f 149 160 159
f 152 161 153
f 154 162 156
f 154 161 170
f 154 170 163
f 154 163 164
f 154 164 162
f 157 165 158
f 158 165 166
f 158 166 167
f 158 167 160
f 159 160 168
f 160 169 168
f 160 167 169
f 163 171 164
f 163 170 172
f 163 172 173
f 163 173 174
f 163 174 171
f 166 175 176
f 166 176 167
f 167 177 169
f 167 176 185
f 167 185 177
f 172 178 173
f 173 178 179
f 173 179 180
f 173 180 181
f 173 181 174
f 175 182 176
f 176 182 183
f 176 183 184
f 176 184 192
f 176 192 185
f 179 186 180
f 180 186 187
f 180 187 188
f 180 188 189
f 183 190 184
f 184 190 188
f 184 188 191
f 184 191 192
f 187 193 188
f 188 193 191
f 188 190 194
f 188 194 189

