# https://github.com/mikedh/trimesh
v -0.05517128 -0.02685452 0.02869696
v -0.05517128 -0.02685191 0.03172748
v -0.05531491 -0.02682308 0.03007398
v -0.05531491 -0.02682308 0.02552549
v -0.05517128 -0.02685191 0.02400752
v -0.05517128 -0.02684928 0.03310450
v -0.05531491 -0.02681784 0.03310450
v -0.05683047 -0.02643794 0.03007398
v -0.05683047 -0.02643794 0.02703804
v -0.05531491 -0.02682046 0.02097701
v -0.05517128 -0.02684928 0.02097701
v -0.05517128 -0.02683881 0.03476342
v -0.05531491 -0.02680999 0.03461705
v -0.05683047 -0.02643270 0.03310450
v -0.05816082 -0.02602921 0.03310450
v -0.05817652 -0.02602659 0.03007398
v -0.05817966 -0.02602659 0.02855601
v -0.05817495 -0.02602397 0.02249498
v -0.05803995 -0.02606328 0.01961083
v -0.05683047 -0.02643270 0.01961083
v -0.05531491 -0.02681784 0.01961083
v -0.05517206 -0.02684666 0.01961083
v -0.05517128 -0.02192101 0.01961083
v -0.05517128 -0.02682046 0.03613502
v -0.05531491 -0.02679164 0.03613502
v -0.05683047 -0.02642484 0.03461705
v -0.05814434 -0.02602659 0.03461705
v -0.05892842 -0.02575935 0.03158653
v -0.05893469 -0.02576197 0.03007398
v -0.05893705 -0.02576459 0.02855601
v -0.05893862 -0.02576459 0.02703804
v -0.05893626 -0.02576459 0.02552549
v -0.05893077 -0.02576197 0.01961083
v -0.05817259 -0.02602136 0.01961083
v -0.05517128 -0.01226096 0.01961083
v -0.05517128 -0.02681784 0.03627597
v -0.05683047 -0.02640388 0.03613502
v -0.05517128 -0.02678641 0.03779394
v -0.05531491 -0.02676020 0.03764756
v -0.05890173 -0.02574625 0.03461705
v -0.05891821 -0.02575411 0.03310450
v -0.05811059 -0.02601350 0.03613502
v -0.05886798 -0.02573577 0.03613502
v -0.05986005 -0.02539255 0.03310450
v -0.05986005 -0.02539779 0.03007398
v -0.05986005 -0.02539779 0.02552549
v -0.05976822 -0.02542923 0.01961083
v -0.06318944 -0.00716238 0.01961083
v -0.06318944 -0.00008830 0.02505926
v -0.05517128 -0.00010402 0.03910590
v -0.05683047 -0.02637244 0.03764756
v -0.05517128 -0.02674972 0.03916553
v -0.05531491 -0.02671828 0.03916553
v -0.05986005 -0.02538207 0.03461705
v -0.05806271 -0.02599254 0.03764756
v -0.05882010 -0.02572267 0.03764756
v -0.05986005 -0.02535849 0.03613502
v -0.06137562 -0.02471658 0.03310450
v -0.06137562 -0.02472182 0.03158653
v -0.06137562 -0.02472444 0.03007398
v -0.06137562 -0.02472706 0.02703804
v -0.05986005 -0.02539517 0.02249498
v -0.05986005 -0.02539255 0.01961083
v -0.06318944 -0.02374979 0.01961083
v -0.05517128 -0.00008830 0.03913301
v -0.06318944 -0.00008830 0.07017006
v -0.05683047 -0.02632266 0.03916553
v -0.05517128 -0.02669470 0.04067808
v -0.05531491 -0.02666326 0.04067808
v -0.06137562 -0.02470610 0.03461705
v -0.05798737 -0.02596109 0.03916553
v -0.05874476 -0.02569909 0.03916553
v -0.05986005 -0.02532705 0.03764756
v -0.06132931 -0.02466942 0.03764756
v -0.06216911 -0.02432620 0.03158653
v -0.06217461 -0.02433144 0.03007398
v -0.06218089 -0.02433406 0.02703804
v -0.06217932 -0.02433406 0.02552549
v -0.06209612 -0.02437074 0.01961083
v -0.06137562 -0.02471920 0.01961083
v -0.06316353 -0.02376551 0.01961083
v -0.06318944 -0.02375241 0.02097701
v -0.05517128 -0.00008830 0.07499503
v -0.06318944 -0.00041056 0.07017006
v -0.06302932 -0.00008830 0.07030017
v -0.05683047 -0.02626240 0.04067808
v -0.05517128 -0.02661348 0.04219605
v -0.05531491 -0.02658204 0.04219605
v -0.06214635 -0.02431571 0.03461705
v -0.06151297 -0.02461178 0.03604285
v -0.06213929 -0.02431048 0.03547904
v -0.05789397 -0.02592441 0.04067808
v -0.05865214 -0.02567289 0.04067808
v -0.05986005 -0.02526941 0.03916553
v -0.06208670 -0.02428428 0.03764756
v -0.06127594 -0.02463536 0.03916553
v -0.06203412 -0.02425808 0.03916553
v -0.06291552 -0.02390961 0.03310450
v -0.06292651 -0.02391223 0.03158653
v -0.06290453 -0.02390437 0.03461705
v -0.06293592 -0.02390961 0.02855601
v -0.06293592 -0.02390699 0.02400752
v -0.06224996 -0.02428951 0.01961083
v -0.06217540 -0.02433144 0.01961083
v -0.06293279 -0.02390437 0.01961083
v -0.06318944 -0.02375503 0.02370393
v -0.05683047 -0.00008830 0.07423605
v -0.05683047 -0.00081929 0.07423605
v -0.05517128 -0.00081929 0.07498961
v -0.06318944 -0.00081929 0.07016464
v -0.06263611 -0.00081929 0.07061461
v -0.06263768 -0.00008830 0.07061461
v -0.05683047 -0.02616808 0.04219605
v -0.05775976 -0.02587725 0.04219605
v -0.05517128 -0.02660562 0.04233700
v -0.05531491 -0.02648248 0.04370860
v -0.06274363 -0.02396725 0.03604285
v -0.05851715 -0.02563097 0.04219605
v -0.05986005 -0.02519605 0.04067808
v -0.06289119 -0.02384411 0.03764756
v -0.06119667 -0.02458558 0.04067808
v -0.06186380 -0.02417947 0.04219605
v -0.06195406 -0.02422139 0.04067808
v -0.06289119 -0.02378647 0.03916553
v -0.06318944 -0.02373669 0.03428092
v -0.06318944 -0.02374717 0.03277922
v -0.06318944 -0.02375503 0.03158653
v -0.06318944 -0.02373407 0.03461705
v -0.06318944 -0.02375765 0.03007398
v -0.06318944 -0.02367643 0.03728976
v -0.06318944 -0.02375765 0.02673987
v -0.05751174 -0.00008830 0.07389451
v -0.05814669 -0.00081929 0.07357464
v -0.05804859 -0.00233628 0.07352043
v -0.05683047 -0.00233628 0.07412762
v -0.05517128 -0.00098173 0.07497877
v -0.06318944 -0.00233628 0.07003452
v -0.06255762 -0.00233628 0.07055497
v -0.06157733 -0.00081929 0.07137359
v -0.06212673 -0.00008830 0.07098326
v -0.05695291 -0.02601874 0.04373028
v -0.05753999 -0.02580913 0.04424531
v -0.05517128 -0.02651392 0.04370860
v -0.05517128 -0.02650344 0.04385497
v -0.05517128 -0.02638292 0.04522657
v -0.05531491 -0.02634886 0.04522657
v -0.05662955 -0.02598468 0.04522657
v -0.05822753 -0.02560215 0.04373028
v -0.05986005 -0.02509911 0.04219605
v -0.06110641 -0.02453318 0.04219605
v -0.06318944 -0.02366595 0.03764756
v -0.06096199 -0.02446506 0.04370860
v -0.06171939 -0.02410611 0.04370860
v -0.06289119 -0.02344586 0.04370860
v -0.06289119 -0.02359521 0.04219605
v -0.06289119 -0.02369477 0.04067808
v -0.06318944 -0.02354019 0.04029859
v -0.06318944 -0.02360831 0.03916553
v -0.05814826 -0.00008830 0.07357464
v -0.05890487 -0.00081929 0.07313552
v -0.05880598 -0.00233628 0.07307046
v -0.05787827 -0.00385066 0.07342285
v -0.05683047 -0.00385066 0.07393245
v -0.05517128 -0.00233628 0.07488118
v -0.06241870 -0.00385066 0.07044654
v -0.06318944 -0.00371704 0.06981767
v -0.06148550 -0.00233628 0.07131396
v -0.06082072 -0.00008830 0.07187777
v -0.06121315 -0.00008830 0.07161755
v -0.06157890 -0.00008830 0.07137359
v -0.05986005 -0.00081929 0.07251207
v -0.05738694 -0.02576459 0.04522657
v -0.05834526 -0.02541089 0.04522657
v -0.05517128 -0.02636982 0.04536752
v -0.05531491 -0.02618904 0.04673912
v -0.05635171 -0.02590607 0.04673912
v -0.05986005 -0.02495500 0.04370860
v -0.06079089 -0.02439170 0.04522657
v -0.06068101 -0.02433929 0.04619698
v -0.06154907 -0.02399869 0.04522657
v -0.06318944 -0.02326508 0.04370860
v -0.06272244 -0.02312884 0.04673912
v -0.06301049 -0.02317076 0.04523199
v -0.06318944 -0.02304500 0.04538379
v -0.06318944 -0.02341181 0.04219605
v -0.06318944 -0.02344325 0.04178945
v -0.06318944 -0.02351661 0.04067808
v -0.05890644 -0.00008830 0.07313552
v -0.05986005 -0.00233628 0.07238738
v -0.05863645 -0.00385066 0.07296204
v -0.06065355 -0.00321923 0.07176393
v -0.05770874 -0.00490915 0.07332527
v -0.05517128 -0.00385066 0.07468602
v -0.06317688 -0.00385066 0.06980683
v -0.06226330 -0.00500609 0.07032728
v -0.06124533 -0.00377468 0.07127059
v -0.06318944 -0.00385066 0.06979599
v -0.05986005 -0.00008830 0.07251207
v -0.05616021 -0.02585105 0.04769869
v -0.05710989 -0.02566765 0.04673912
v -0.05834526 -0.02521963 0.04673912
v -0.05986005 -0.02479780 0.04522657
v -0.05517128 -0.02622310 0.04673912
v -0.05517128 -0.02603708 0.04822456
v -0.05536906 -0.02598729 0.04821914
v -0.05994795 -0.02457248 0.04671743
v -0.06051148 -0.02426070 0.04720535
v -0.06126181 -0.02394367 0.04671743
v -0.06249169 -0.02299522 0.04825166
v -0.06318944 -0.02285898 0.04673912
v -0.06318944 -0.02298736 0.04580665
v -0.05994795 -0.00377468 0.07212716
v -0.06051148 -0.00423056 0.07167176
v -0.05955003 -0.00536766 0.07203499
v -0.05826677 -0.00539386 0.07285361
v -0.05747956 -0.00591786 0.07320600
v -0.05691681 -0.00539386 0.07358549
v -0.05517128 -0.00525238 0.07440953
v -0.05517128 -0.00519998 0.07442037
v -0.06209063 -0.00601743 0.07019717
v -0.06150120 -0.00545412 0.07072846
v -0.06281741 -0.00545412 0.06971467
v -0.06318944 -0.00542006 0.06938939
v -0.05590983 -0.02578031 0.04870706
v -0.05673080 -0.02558119 0.04821914
v -0.05834526 -0.02498906 0.04825166
v -0.05955081 -0.02450174 0.04825166
v -0.05517128 -0.02595585 0.04882090
v -0.05930122 -0.02439956 0.04947688
v -0.06030821 -0.02415851 0.04825166
v -0.06137562 -0.02360569 0.04825166
v -0.06209926 -0.02277252 0.05043646
v -0.06318944 -0.02257863 0.04825166
v -0.06030742 -0.00536766 0.07153623
v -0.05930044 -0.00654405 0.07187235
v -0.05719073 -0.00688204 0.07306504
v -0.05643334 -0.00688204 0.07341743
v -0.05531491 -0.00688204 0.07392161
v -0.05517128 -0.00671173 0.07403004
v -0.05517128 -0.00527334 0.07440411
v -0.05847241 -0.00698160 0.07226811
v -0.06189049 -0.00688204 0.07004537
v -0.06113231 -0.00688204 0.07056581
v -0.06318944 -0.00576852 0.06928638
v -0.06318944 -0.00655977 0.06902616
v -0.06293592 -0.00676151 0.06918338
v -0.05517128 -0.02581437 0.04976963
v -0.05561865 -0.02568337 0.04976963
v -0.05683047 -0.02527727 0.04976963
v -0.05848575 -0.02464584 0.04989432
v -0.05908460 -0.02430000 0.05048525
v -0.05982787 -0.02406157 0.04989432
v -0.06150669 -0.02320744 0.04986180
v -0.06113937 -0.02307120 0.05128218
v -0.06189677 -0.02265462 0.05128218
v -0.06289119 -0.02201533 0.05128218
v -0.06318944 -0.02181621 0.05128218
v -0.06318944 -0.02191315 0.05090811
v -0.06318944 -0.02219087 0.04983469
v -0.06318944 -0.02252624 0.04848478
v -0.05906184 -0.00755538 0.07171513
v -0.05615628 -0.00773878 0.07329274
v -0.05803289 -0.00839903 0.07202957
v -0.05672923 -0.00830471 0.07278856
v -0.05517128 -0.00689251 0.07398125
v -0.06084191 -0.00798507 0.07037065
v -0.06242184 -0.00839903 0.06897195
v -0.06135835 -0.00845405 0.06979057
v -0.06318944 -0.00675889 0.06895568
v -0.06318944 -0.00696326 0.06887978
v -0.05517128 -0.02555499 0.05116291
v -0.05683047 -0.02497858 0.05128218
v -0.05809960 -0.02451222 0.05128218
v -0.05778409 -0.02439432 0.05237187
v -0.05885699 -0.02419519 0.05128218
v -0.05986005 -0.02371573 0.05128218
v -0.06084270 -0.02291400 0.05245319
v -0.06135914 -0.02247384 0.05289231
v -0.06290061 -0.02159088 0.05267004
v -0.06318944 -0.02147822 0.05244777
v -0.05879106 -0.00839903 0.07153623
v -0.05572461 -0.00875012 0.07310299
v -0.05517128 -0.00830995 0.07351501
v -0.05517128 -0.00822873 0.07354212
v -0.06051227 -0.00899640 0.07015922
v -0.05771737 -0.00933176 0.07182356
v -0.05681713 -0.00986625 0.07207836
v -0.06318944 -0.00835711 0.06828886
v -0.06318944 -0.00841475 0.06826175
v -0.06219109 -0.00925316 0.06876052
v -0.06137248 -0.00981909 0.06911832
v -0.05520110 -0.02553927 0.05119002
v -0.05517128 -0.02518819 0.05279473
v -0.05531491 -0.02514627 0.05280015
v -0.05691053 -0.02460130 0.05284894
v -0.05746857 -0.02426070 0.05338565
v -0.05831151 -0.02402751 0.05284894
v -0.05997856 -0.02321792 0.05289231
v -0.05955395 -0.02302404 0.05431270
v -0.06056328 -0.02276204 0.05346155
v -0.06152160 -0.02184503 0.05445365
v -0.06212438 -0.02127124 0.05505542
v -0.06240143 -0.02144416 0.05404163
v -0.06318944 -0.02132364 0.05290858
v -0.05517128 -0.00977193 0.07291867
v -0.05517128 -0.00846453 0.07345537
v -0.05630305 -0.01092474 0.07186693
v -0.05525761 -0.00985839 0.07284277
v -0.06017556 -0.00991341 0.06993694
v -0.06086467 -0.01101120 0.06890147
v -0.05912463 -0.01069418 0.07024053
v -0.05731317 -0.01034047 0.07157418
v -0.06318944 -0.00960949 0.06764914
v -0.06187558 -0.01026187 0.06847861
v -0.06281820 -0.00979551 0.06788768
v -0.05517128 -0.02515413 0.05294111
v -0.05517128 -0.02476898 0.05443197
v -0.05545697 -0.02467466 0.05445365
v -0.05645845 -0.02444934 0.05404163
v -0.05605660 -0.02430262 0.05505000
v -0.05691053 -0.02414803 0.05445365
v -0.05834526 -0.02358735 0.05431270
v -0.05925413 -0.02287470 0.05527227
v -0.06031135 -0.02261794 0.05431270
v -0.06112211 -0.02158303 0.05583067
v -0.06187950 -0.02110880 0.05583067
v -0.06296732 -0.02030707 0.05584693
v -0.06318944 -0.02019703 0.05571682
v -0.06318944 -0.02074461 0.05442113
v -0.06290061 -0.02094636 0.05445365
v -0.06318944 -0.02104068 0.05368925
v -0.05517128 -0.00989769 0.07286445
v -0.05681713 -0.01142779 0.07129227
v -0.05577954 -0.01193345 0.07160129
v -0.05529058 -0.01142779 0.07208378
v -0.06146823 -0.01155617 0.06803948
v -0.06047302 -0.01202253 0.06860330
v -0.05979804 -0.01135967 0.06942734
v -0.05824558 -0.01129155 0.07047365
v -0.06318944 -0.01011777 0.06736724
v -0.06243518 -0.01108980 0.06747024
v -0.05517128 -0.02469824 0.05469219
v -0.05517128 -0.02454628 0.05525059
v -0.05517128 -0.02437598 0.05583067
v -0.05572225 -0.02417423 0.05583067
v -0.05683047 -0.02372883 0.05583067
v -0.05834840 -0.02309216 0.05579814
v -0.05784531 -0.02291662 0.05690951
v -0.05885542 -0.02266248 0.05628606
v -0.06079403 -0.02138128 0.05682277
v -0.06133010 -0.02078129 0.05733237
v -0.06244931 -0.02000053 0.05734322
v -0.06318944 -0.02005031 0.05605294
v -0.05517128 -0.01142255 0.07213800
v -0.05767421 -0.01226882 0.07028391
v -0.05517128 -0.01163477 0.07202415
v -0.05670568 -0.01284260 0.07049534
v -0.05611704 -0.01373865 0.07025680
v -0.05529058 -0.01288452 0.07123806
v -0.05517128 -0.01276138 0.07137359
v -0.06207101 -0.01210113 0.06713954
v -0.05892449 -0.01353691 0.06859788
v -0.05946212 -0.01252820 0.06894484
v -0.05868432 -0.01170551 0.06995320
v -0.06095258 -0.01294478 0.06749735
v -0.06062137 -0.01370197 0.06719917
v -0.05992441 -0.01299719 0.06827802
v -0.06318944 -0.01114482 0.06673294
v -0.06318944 -0.01155355 0.06647814
v -0.06303560 -0.01162953 0.06657030
v -0.05517128 -0.02390437 0.05720226
v -0.05688384 -0.02315766 0.05738659
v -0.05742540 -0.02271488 0.05791788
v -0.05834840 -0.02246073 0.05738659
v -0.05988046 -0.02166162 0.05733237
v -0.05938835 -0.02143630 0.05846543
v -0.05898100 -0.02121098 0.05947922
v -0.06039846 -0.02114286 0.05783114
v -0.06217540 -0.01979092 0.05815641
v -0.06318944 -0.01944508 0.05734322
v -0.05712794 -0.01328015 0.06993152
v -0.05791437 -0.01397446 0.06891773
v -0.05839000 -0.01446964 0.06822923
v -0.05910344 -0.01521373 0.06719375
v -0.05729747 -0.01498579 0.06852740
v -0.05628657 -0.01537355 0.06884726
v -0.05531491 -0.01479191 0.06989357
v -0.05517128 -0.01484431 0.06993152
v -0.05531491 -0.01403472 0.07046281
v -0.05517128 -0.01292907 0.07126516
v -0.06318944 -0.01176839 0.06633719
v -0.06318944 -0.01294478 0.06546435
v -0.06254428 -0.01294478 0.06605528
v -0.06011277 -0.01471331 0.06674921
v -0.05970857 -0.01430720 0.06743229
v -0.06218952 -0.01375961 0.06573000
v -0.06169270 -0.01477095 0.06528545
v -0.05517128 -0.02322316 0.05889914
v -0.05535023 -0.02315504 0.05890456
v -0.05641528 -0.02294282 0.05843290
v -0.05688384 -0.02250527 0.05890456
v -0.05797088 -0.02146774 0.05998340
v -0.06076185 -0.01985904 0.05979907
v -0.05988046 -0.02091230 0.05892624
v -0.05743168 -0.02119788 0.06099177
v -0.05842375 -0.02096732 0.06044421
v -0.05932085 -0.01989573 0.06133873
v -0.06033175 -0.01957608 0.06080744
v -0.06131047 -0.02006079 0.05874192
v -0.06177197 -0.01950010 0.05916478
v -0.06281113 -0.01895513 0.05875818
v -0.06318944 -0.01875077 0.05860639
v -0.05739323 -0.01659449 0.06706906
v -0.05834526 -0.01549145 0.06743771
v -0.06068258 -0.01527137 0.06573542
v -0.05961046 -0.01574822 0.06621792
v -0.05910893 -0.01673335 0.06568663
v -0.05834526 -0.01625126 0.06672752
v -0.05558882 -0.01638226 0.06839729
v -0.05517128 -0.01592114 0.06905869
v -0.05517128 -0.01406878 0.07050618
v -0.05517128 -0.01395612 0.07058208
v -0.06318944 -0.01406616 0.06453189
v -0.06272558 -0.01428624 0.06477042
v -0.06225074 -0.01532377 0.06427166
v -0.05517128 -0.02314980 0.05907804
v -0.05517128 -0.02306858 0.05927321
v -0.05587844 -0.02270702 0.05944127
v -0.05688777 -0.02174023 0.06044421
v -0.05642078 -0.02143892 0.06144173
v -0.05583135 -0.02116120 0.06245010
v -0.05688777 -0.02091492 0.06192423
v -0.05829660 -0.02015511 0.06186460
v -0.05876909 -0.01956036 0.06235251
v -0.05994010 -0.01906256 0.06196760
v -0.06102243 -0.01856737 0.06158269
v -0.06139759 -0.01903373 0.06040084
v -0.06243597 -0.01849139 0.05999424
v -0.06318944 -0.01843113 0.05911599
v -0.05638310 -0.01691937 0.06738892
v -0.05834526 -0.01700845 0.06596854
v -0.05735084 -0.01810624 0.06551314
v -0.05686658 -0.01751412 0.06646188
v -0.06011827 -0.01628270 0.06523124
v -0.05842610 -0.01781018 0.06497101
v -0.06067944 -0.01678051 0.06421745
v -0.05997621 -0.01789402 0.06349641
v -0.05898493 -0.01815864 0.06406023
v -0.05517599 -0.01714731 0.06792021
v -0.05517128 -0.01714469 0.06792563
v -0.06318944 -0.01474475 0.06387591
v -0.06169035 -0.01633248 0.06374580
v -0.06318944 -0.01495173 0.06366447
v -0.06221385 -0.01680409 0.06273743
v -0.05517128 -0.02263366 0.06020567
v -0.05517128 -0.02250004 0.06047674
v -0.05535023 -0.02246597 0.06039000
v -0.05532118 -0.02167735 0.06192423
v -0.05517128 -0.02159088 0.06219530
v -0.05517128 -0.02097780 0.06320366
v -0.05532118 -0.02080226 0.06336630
v -0.05615942 -0.01980926 0.06422829
v -0.05673080 -0.02008437 0.06334462
v -0.05775818 -0.01985904 0.06280249
v -0.05717032 -0.01952106 0.06381085
v -0.05837195 -0.01903373 0.06343136
v -0.05954846 -0.01854903 0.06304645
v -0.06055857 -0.01820319 0.06259105
v -0.06203255 -0.01816127 0.06100803
v -0.06318944 -0.01778922 0.06009725
v -0.05633994 -0.01839707 0.06584927
v -0.05797481 -0.01850973 0.06450478
v -0.05531491 -0.01799882 0.06693353
v -0.06126103 -0.01708181 0.06330667
v -0.05517128 -0.01804074 0.06697690
v -0.06318944 -0.01555957 0.06299765
v -0.06318944 -0.01625650 0.06217903
v -0.06318944 -0.01649755 0.06189170
v -0.06255448 -0.01710277 0.06189170
v -0.05517128 -0.02174547 0.06191339
v -0.05517128 -0.02083108 0.06342052
v -0.05517128 -0.02005293 0.06452646
v -0.05531491 -0.02001101 0.06449394
v -0.05517128 -0.01995861 0.06465658
v -0.05517128 -0.01939006 0.06538845
v -0.05531491 -0.01942412 0.06525292
v -0.06318944 -0.01737002 0.06069901
v -0.05531491 -0.01866693 0.06617455
v -0.05517128 -0.01858833 0.06635887
f 1 2 3
f 1 3 4
f 1 4 5
f 1 5 11
f 1 11 23
f 1 23 35
f 1 35 50
f 1 50 65
f 1 65 83
f 1 83 109
f 1 109 136
f 1 136 164
f 1 164 193
f 1 193 219
f 1 219 218
f 1 218 240
f 1 240 239
f 1 239 265
f 1 265 284
f 1 284 283
f 1 283 306
f 1 306 305
f 1 305 332
f 1 332 354
f 1 354 356
f 1 356 360
f 1 360 390
f 1 390 422
f 1 422 421
f 1 421 388
f 1 388 420
f 1 420 450
f 1 450 475
f 1 475 489
f 1 489 485
f 1 485 484
f 1 484 482
f 1 482 481
f 1 481 460
f 1 460 459
f 1 459 480
f 1 480 456
f 1 456 455
f 1 455 427
f 1 427 426
f 1 426 398
f 1 398 371
f 1 371 344
f 1 344 343
f 1 343 342
f 1 342 317
f 1 317 316
f 1 316 293
f 1 293 271
f 1 271 247
f 1 247 228
f 1 228 204
f 1 204 203
f 1 203 174
f 1 174 145
f 1 145 144
f 1 144 143
f 1 143 115
f 1 115 87
f 1 87 68
f 1 68 52
f 1 52 38
f 1 38 36
f 1 36 24
f 1 24 12
f 1 12 6
f 1 6 2
f 2 6 7
f 2 7 3
f 3 8 9
f 3 9 4
f 3 7 14
f 3 14 8
f 4 9 10
f 4 10 5
f 5 10 11
f 6 12 13
f 6 13 7
f 7 13 26
f 7 26 14
f 8 14 15
f 8 15 16
f 8 16 17
f 8 17 9
f 9 17 18
f 9 18 19
f 9 19 20
f 9 20 10
f 10 20 21
f 10 21 22
f 10 22 11
f 11 22 23
f 12 24 25
f 12 25 13
f 13 25 26
f 14 26 27
f 14 27 15
f 15 28 29
f 15 29 30
f 15 30 16
f 15 27 28
f 16 30 17
f 17 30 31
f 17 31 32
f 17 32 18
f 18 33 34
f 18 34 19
f 18 32 33
f 19 34 33
f 19 33 47
f 19 47 63
f 19 63 80
f 19 80 79
f 19 79 104
f 19 104 103
f 19 103 105
f 19 105 81
f 19 81 64
f 19 64 48
f 19 48 35
f 19 35 23
f 19 23 22
f 19 22 21
f 19 21 20
f 24 36 25
f 25 37 26
f 25 36 38
f 25 38 39
f 25 39 51
f 25 51 37
f 26 37 27
f 27 40 41
f 27 41 28
f 27 37 42
f 27 42 43
f 27 43 40
f 28 41 44
f 28 44 29
f 29 44 30
f 30 44 45
f 30 45 31
f 31 46 32
f 31 45 46
f 32 46 33
f 33 46 47
f 35 48 49
f 35 49 50
f 37 51 42
f 38 52 39
f 39 52 53
f 39 53 51
f 40 54 41
f 40 43 54
f 41 54 44
f 42 51 55
f 42 55 56
f 42 56 43
f 43 57 54
f 43 56 57
f 44 58 59
f 44 59 60
f 44 60 45
f 44 54 70
f 44 70 58
f 45 60 61
f 45 61 46
f 46 61 62
f 46 62 47
f 47 62 63
f 48 64 82
f 48 82 106
f 48 106 131
f 48 131 129
f 48 129 127
f 48 127 126
f 48 126 125
f 48 125 128
f 48 128 130
f 48 130 151
f 48 151 158
f 48 158 157
f 48 157 187
f 48 187 186
f 48 186 185
f 48 185 181
f 48 181 184
f 48 184 211
f 48 211 210
f 48 210 233
f 48 233 260
f 48 260 259
f 48 259 258
f 48 258 257
f 48 257 280
f 48 280 304
f 48 304 331
f 48 331 329
f 48 329 328
f 48 328 353
f 48 353 380
f 48 380 412
f 48 412 439
f 48 439 470
f 48 470 487
f 48 487 478
f 48 478 477
f 48 477 476
f 48 476 453
f 48 453 451
f 48 451 423
f 48 423 392
f 48 392 391
f 48 391 369
f 48 369 368
f 48 368 340
f 48 340 313
f 48 313 289
f 48 289 288
f 48 288 270
f 48 270 269
f 48 269 245
f 48 245 244
f 48 244 223
f 48 223 197
f 48 197 166
f 48 166 137
f 48 137 110
f 48 110 84
f 48 84 66
f 48 66 49
f 49 65 50
f 49 66 85
f 49 85 112
f 49 112 140
f 49 140 170
f 49 170 169
f 49 169 168
f 49 168 198
f 49 198 188
f 49 188 159
f 49 159 132
f 49 132 107
f 49 107 83
f 49 83 65
f 51 53 67
f 51 67 55
f 52 68 69
f 52 69 53
f 53 69 67
f 54 57 70
f 55 67 71
f 55 71 72
f 55 72 56
f 56 73 57
f 56 72 73
f 57 73 74
f 57 74 70
f 58 75 76
f 58 76 59
f 58 70 75
f 59 76 77
f 59 77 60
f 60 77 61
f 61 77 78
f 61 78 79
f 61 79 80
f 61 80 63
f 61 63 62
f 64 81 82
f 66 84 85
f 67 69 86
f 67 86 71
f 68 87 88
f 68 88 69
f 69 88 86
f 70 89 75
f 70 74 90
f 70 90 91
f 70 91 89
f 71 86 92
f 71 92 93
f 71 93 72
f 72 93 94
f 72 94 73
f 73 94 74
f 74 95 91
f 74 91 90
f 74 94 96
f 74 96 97
f 74 97 95
f 75 98 99
f 75 99 76
f 75 89 100
f 75 100 98
f 76 99 77
f 77 101 102
f 77 102 78
f 77 99 101
f 78 102 103
f 78 103 104
f 78 104 79
f 81 105 82
f 82 105 102
f 82 102 106
f 83 107 108
f 83 108 109
f 84 110 111
f 84 111 85
f 85 111 112
f 86 88 113
f 86 113 114
f 86 114 92
f 87 115 88
f 88 115 116
f 88 116 113
f 89 91 100
f 91 117 100
f 91 95 117
f 92 114 118
f 92 118 93
f 93 119 94
f 93 118 119
f 94 119 96
f 95 120 117
f 95 97 120
f 96 119 121
f 96 121 122
f 96 122 123
f 96 123 97
f 97 123 124
f 97 124 120
f 98 125 126
f 98 126 127
f 98 127 99
f 98 100 128
f 98 128 125
f 99 127 129
f 99 129 101
f 100 117 130
f 100 130 128
f 101 131 102
f 101 129 131
f 102 131 106
f 102 105 103
f 107 132 108
f 108 132 133
f 108 133 134
f 108 134 135
f 108 135 136
f 108 136 109
f 110 137 138
f 110 138 111
f 111 139 140
f 111 140 112
f 111 138 139
f 113 116 141
f 113 141 142
f 113 142 114
f 114 142 118
f 115 143 116
f 116 143 144
f 116 144 145
f 116 145 146
f 116 146 147
f 116 147 141
f 117 120 130
f 118 142 148
f 118 148 149
f 118 149 119
f 119 149 150
f 119 150 121
f 120 151 130
f 120 124 158
f 120 158 151
f 121 150 122
f 122 150 152
f 122 152 153
f 122 153 154
f 122 154 155
f 122 155 156
f 122 156 123
f 123 156 124
f 124 156 157
f 124 157 158
f 132 159 133
f 133 159 188
f 133 188 160
f 133 160 134
f 134 160 161
f 134 161 162
f 134 162 135
f 135 162 163
f 135 163 193
f 135 193 164
f 135 164 136
f 137 165 138
f 137 166 165
f 138 165 167
f 138 167 139
f 139 168 169
f 139 169 170
f 139 170 140
f 139 167 171
f 139 171 168
f 141 147 142
f 142 147 172
f 142 172 173
f 142 173 148
f 145 174 146
f 146 174 175
f 146 175 176
f 146 176 147
f 147 176 172
f 148 173 177
f 148 177 149
f 149 177 152
f 149 152 150
f 152 177 178
f 152 178 153
f 153 178 179
f 153 179 180
f 153 180 154
f 154 181 155
f 154 180 182
f 154 182 183
f 154 183 184
f 154 184 181
f 155 185 186
f 155 186 187
f 155 187 156
f 155 181 185
f 156 187 157
f 160 188 171
f 160 171 189
f 160 189 161
f 161 190 162
f 161 189 191
f 161 191 190
f 162 190 192
f 162 192 163
f 163 192 193
f 165 166 194
f 165 194 195
f 165 195 196
f 165 196 191
f 165 191 167
f 166 197 194
f 167 191 189
f 167 189 171
f 168 171 198
f 171 188 198
f 172 176 199
f 172 199 200
f 172 200 201
f 172 201 173
f 173 202 177
f 173 201 202
f 174 203 175
f 175 204 205
f 175 205 199
f 175 199 176
f 175 203 204
f 177 202 179
f 177 179 178
f 179 206 207
f 179 207 208
f 179 208 180
f 179 202 206
f 180 208 182
f 182 209 210
f 182 210 183
f 182 208 209
f 183 211 184
f 183 210 211
f 190 191 212
f 190 212 213
f 190 213 192
f 191 196 213
f 191 213 212
f 192 213 214
f 192 214 215
f 192 215 216
f 192 216 217
f 192 217 218
f 192 218 219
f 192 219 193
f 194 197 195
f 195 220 221
f 195 221 213
f 195 213 196
f 195 197 222
f 195 222 220
f 197 223 222
f 199 205 224
f 199 224 225
f 199 225 200
f 200 225 201
f 201 225 226
f 201 226 227
f 201 227 206
f 201 206 202
f 204 228 205
f 205 228 224
f 206 227 207
f 207 227 229
f 207 229 230
f 207 230 231
f 207 231 208
f 208 231 209
f 209 231 232
f 209 232 233
f 209 233 210
f 213 221 234
f 213 234 214
f 214 234 221
f 214 221 220
f 214 220 235
f 214 235 215
f 215 235 216
f 216 236 237
f 216 237 238
f 216 238 239
f 216 239 240
f 216 240 218
f 216 218 217
f 216 235 241
f 216 241 236
f 220 242 243
f 220 243 235
f 220 222 244
f 220 244 245
f 220 245 246
f 220 246 242
f 222 223 244
f 224 228 247
f 224 247 248
f 224 248 249
f 224 249 225
f 225 249 226
f 226 229 227
f 226 249 250
f 226 250 229
f 229 250 251
f 229 251 252
f 229 252 230
f 230 252 253
f 230 253 231
f 231 253 232
f 232 253 252
f 232 252 254
f 232 254 255
f 232 255 256
f 232 256 257
f 232 257 258
f 232 258 259
f 232 259 260
f 232 260 233
f 235 243 261
f 235 261 241
f 236 262 237
f 236 241 263
f 236 263 264
f 236 264 262
f 237 262 238
f 238 265 239
f 238 262 265
f 241 261 263
f 242 266 243
f 242 246 267
f 242 267 268
f 242 268 266
f 243 266 261
f 245 269 246
f 246 269 270
f 246 270 267
f 247 271 248
f 248 271 272
f 248 272 249
f 249 272 250
f 250 272 273
f 250 273 251
f 251 273 274
f 251 274 275
f 251 275 276
f 251 276 254
f 251 254 252
f 254 276 277
f 254 277 255
f 255 277 278
f 255 278 279
f 255 279 280
f 255 280 256
f 256 280 257
f 261 281 263
f 261 266 281
f 262 264 282
f 262 282 283
f 262 283 284
f 262 284 265
f 263 281 285
f 263 285 286
f 263 286 264
f 264 287 282
f 264 286 287
f 266 268 285
f 266 285 281
f 267 270 288
f 267 288 289
f 267 289 290
f 267 290 268
f 268 290 291
f 268 291 285
f 271 292 272
f 271 293 294
f 271 294 292
f 272 292 294
f 272 294 295
f 272 295 274
f 272 274 273
f 274 295 296
f 274 296 297
f 274 297 275
f 275 297 276
f 276 297 298
f 276 298 277
f 277 298 299
f 277 299 300
f 277 300 278
f 278 300 301
f 278 301 302
f 278 302 303
f 278 303 279
f 279 303 304
f 279 304 280
f 282 305 306
f 282 306 283
f 282 287 307
f 282 307 308
f 282 308 305
f 285 309 286
f 285 291 310
f 285 310 309
f 286 309 311
f 286 311 312
f 286 312 287
f 287 312 307
f 289 313 290
f 290 314 310
f 290 310 291
f 290 313 315
f 290 315 314
f 293 316 294
f 294 316 317
f 294 317 318
f 294 318 319
f 294 319 295
f 295 319 296
f 296 319 320
f 296 320 321
f 296 321 322
f 296 322 297
f 297 322 299
f 297 299 298
f 299 322 323
f 299 323 300
f 300 323 324
f 300 324 301
f 301 324 302
f 302 325 326
f 302 326 327
f 302 327 328
f 302 328 329
f 302 329 330
f 302 330 331
f 302 331 304
f 302 304 303
f 302 324 325
f 305 308 332
f 307 312 333
f 307 333 334
f 307 334 335
f 307 335 332
f 307 332 308
f 309 310 311
f 310 314 336
f 310 336 337
f 310 337 338
f 310 338 311
f 311 339 312
f 311 338 339
f 312 339 333
f 313 340 315
f 314 315 340
f 314 340 341
f 314 341 336
f 317 342 318
f 318 342 343
f 318 343 320
f 318 320 319
f 320 343 344
f 320 344 345
f 320 345 346
f 320 346 321
f 321 346 322
f 322 346 347
f 322 347 323
f 323 347 348
f 323 348 349
f 323 349 350
f 323 350 325
f 323 325 324
f 325 350 326
f 326 350 351
f 326 351 352
f 326 352 327
f 327 352 353
f 327 353 328
f 329 331 330
f 332 335 354
f 333 339 355
f 333 355 334
f 334 356 335
f 334 355 357
f 334 357 358
f 334 358 359
f 334 359 360
f 334 360 356
f 335 356 354
f 336 341 361
f 336 361 337
f 337 362 363
f 337 363 355
f 337 355 364
f 337 364 338
f 337 361 365
f 337 365 366
f 337 366 367
f 337 367 362
f 338 364 339
f 339 364 355
f 340 368 341
f 341 368 369
f 341 369 370
f 341 370 361
f 344 371 345
f 345 371 372
f 345 372 346
f 346 372 348
f 346 348 347
f 348 372 373
f 348 373 349
f 349 373 374
f 349 374 375
f 349 375 350
f 350 375 376
f 350 376 377
f 350 377 378
f 350 378 351
f 351 378 379
f 351 379 352
f 352 380 353
f 352 379 380
f 355 358 357
f 355 363 362
f 355 362 381
f 355 381 358
f 358 381 362
f 358 362 382
f 358 382 383
f 358 383 384
f 358 384 385
f 358 385 386
f 358 386 387
f 358 387 388
f 358 388 389
f 358 389 359
f 359 390 360
f 359 389 390
f 361 370 391
f 361 391 392
f 361 392 393
f 361 393 365
f 362 367 384
f 362 384 383
f 362 383 382
f 365 393 366
f 366 394 384
f 366 384 395
f 366 395 367
f 366 393 396
f 366 396 397
f 366 397 394
f 367 395 384
f 369 391 370
f 371 398 399
f 371 399 400
f 371 400 372
f 372 400 373
f 373 400 401
f 373 401 402
f 373 402 377
f 373 377 374
f 374 377 376
f 374 376 375
f 377 403 404
f 377 404 378
f 377 402 405
f 377 405 406
f 377 406 407
f 377 407 408
f 377 408 403
f 378 404 409
f 378 409 379
f 379 409 403
f 379 403 410
f 379 410 411
f 379 411 412
f 379 412 380
f 384 413 414
f 384 414 386
f 384 386 385
f 384 394 415
f 384 415 416
f 384 416 417
f 384 417 418
f 384 418 413
f 386 414 413
f 386 413 419
f 386 419 420
f 386 420 387
f 387 420 388
f 388 421 389
f 389 421 422
f 389 422 390
f 392 396 393
f 392 423 396
f 394 397 415
f 396 423 424
f 396 424 397
f 397 424 425
f 397 425 415
f 398 426 399
f 399 426 427
f 399 427 400
f 400 427 428
f 400 428 401
f 401 428 402
f 402 428 429
f 402 429 405
f 403 409 404
f 403 408 410
f 405 430 431
f 405 431 432
f 405 432 433
f 405 433 407
f 405 407 406
f 405 429 430
f 407 433 434
f 407 434 435
f 407 435 408
f 408 435 436
f 408 436 437
f 408 437 410
f 410 437 438
f 410 438 411
f 411 438 412
f 412 438 439
f 413 440 419
f 413 418 441
f 413 441 442
f 413 442 443
f 413 443 440
f 415 425 444
f 415 444 417
f 415 417 416
f 417 445 442
f 417 442 441
f 417 441 418
f 417 444 446
f 417 446 447
f 417 447 448
f 417 448 445
f 419 440 449
f 419 449 450
f 419 450 420
f 423 451 425
f 423 425 424
f 425 452 446
f 425 446 444
f 425 451 453
f 425 453 454
f 425 454 452
f 427 455 428
f 428 455 456
f 428 456 457
f 428 457 429
f 429 457 430
f 430 458 431
f 430 457 458
f 431 458 459
f 431 459 460
f 431 460 461
f 431 461 462
f 431 462 463
f 431 463 432
f 432 463 464
f 432 464 433
f 433 464 434
f 434 464 465
f 434 465 466
f 434 466 467
f 434 467 435
f 435 467 468
f 435 468 436
f 436 469 437
f 436 468 454
f 436 454 469
f 437 469 438
f 438 470 439
f 438 469 470
f 440 443 449
f 442 471 443
f 442 445 472
f 442 472 462
f 442 462 471
f 443 471 473
f 443 473 449
f 445 448 472
f 446 452 454
f 446 454 474
f 446 474 468
f 446 468 447
f 447 468 448
f 448 468 467
f 448 467 472
f 449 473 475
f 449 475 450
f 453 476 454
f 454 477 478
f 454 478 479
f 454 479 469
f 454 468 474
f 454 476 477
f 456 480 458
f 456 458 457
f 458 480 459
f 460 481 461
f 461 481 482
f 461 482 483
f 461 483 462
f 462 483 484
f 462 484 485
f 462 485 486
f 462 486 471
f 462 472 465
f 462 465 463
f 463 465 464
f 465 472 466
f 466 472 467
f 469 479 470
f 470 479 487
f 471 486 485
f 471 485 488
f 471 488 489
f 471 489 475
f 471 475 473
f 478 487 479
f 482 484 483
f 485 489 488

