# https://github.com/mikedh/trimesh
v 0.06075475 -0.00008830 0.03428845
v 0.05239707 -0.00008830 0.03819240
v 0.06075475 -0.00005571 0.03431712
v 0.06075475 -0.00008830 0.07191882
v 0.06075475 0.00844784 0.04214142
v 0.05239707 -0.00008830 0.07613001
v 0.05239707 0.00844784 0.05127660
v 0.06075475 0.00058935 0.07192292
v 0.06032439 -0.00008830 0.07220557
v 0.06075475 0.00844784 0.07020649
v 0.05245516 -0.00008830 0.07611363
v 0.05239707 0.00069630 0.07613411
v 0.05239707 0.00844784 0.07465937
v 0.06075475 0.00069630 0.07192292
v 0.05986048 -0.00008830 0.07251281
v 0.06006175 0.00844784 0.07068168
v 0.06075475 0.00795569 0.07043589
v 0.05245762 0.00069630 0.07611363
v 0.05379943 -0.00008830 0.07560566
v 0.05239707 0.00103303 0.07610953
v 0.05239707 0.00827321 0.07472491
v 0.05266543 0.00827321 0.07462660
v 0.05259753 0.00844784 0.07458564
v 0.06075475 0.00221202 0.07181231
v 0.05986048 0.00069630 0.07251281
v 0.05936549 -0.00008830 0.07283643
v 0.05801059 0.00844784 0.07201714
v 0.05882631 0.00827321 0.07156242
v 0.06075475 0.00779443 0.07049324
v 0.05908158 0.00747107 0.07172628
v 0.05379943 0.00069630 0.07560566
v 0.05379943 0.00221202 0.07550735
v 0.05239707 0.00222789 0.07601941
v 0.05510606 -0.00008830 0.07502396
v 0.05510769 0.00069630 0.07502396
v 0.05304016 0.00751284 0.07477408
v 0.05239707 0.00690455 0.07515915
v 0.05279470 0.00844784 0.07450371
v 0.06075475 0.00321804 0.07169761
v 0.06066475 0.00313532 0.07177135
v 0.05986048 0.00221202 0.07240221
v 0.05890730 0.00069630 0.07313548
v 0.05890567 -0.00008830 0.07313548
v 0.05697886 0.00844784 0.07259064
v 0.05674732 0.00820636 0.07281595
v 0.05806868 0.00827321 0.07205401
v 0.06075475 0.00679593 0.07083735
v 0.05931967 0.00646087 0.07188605
v 0.05983921 0.00688283 0.07141495
v 0.05848349 0.00688283 0.07229570
v 0.05499642 0.00221202 0.07497480
v 0.05379943 0.00372773 0.07532301
v 0.05239707 0.00372773 0.07585145
v 0.05632841 -0.00008830 0.07446684
v 0.05586532 0.00069630 0.07467986
v 0.05397206 0.00844784 0.07399984
v 0.05335270 0.00650265 0.07491336
v 0.05647568 0.00675749 0.07343862
v 0.05618850 0.00765656 0.07331163
v 0.05528033 0.00820636 0.07350826
v 0.05553232 0.00844784 0.07330343
v 0.05239707 0.00649178 0.07526156
v 0.06052239 0.00414551 0.07168122
v 0.05995457 0.00367509 0.07214003
v 0.06075475 0.00399595 0.07155423
v 0.05865285 0.00372773 0.07297571
v 0.05881730 0.00221202 0.07308222
v 0.05851294 -0.00008830 0.07336488
v 0.05805967 0.00221202 0.07352465
v 0.05814967 0.00069630 0.07357380
v 0.05676205 0.00844784 0.07270944
v 0.05623105 0.00844784 0.07297571
v 0.05723250 0.00675749 0.07308222
v 0.06075475 0.00601468 0.07105856
v 0.06033012 0.00524261 0.07155423
v 0.06075475 0.00528356 0.07126338
v 0.05750331 0.00583503 0.07321741
v 0.05827240 0.00529525 0.07287330
v 0.05957248 0.00524261 0.07204991
v 0.05682913 0.00221202 0.07413912
v 0.05682913 0.00372773 0.07395478
v 0.05554869 0.00372773 0.07453648
v 0.05479106 0.00372773 0.07488059
v 0.05239707 0.00523676 0.07556879
v 0.05462251 0.00461427 0.07480275
v 0.05383461 0.00516825 0.07502806
v 0.05682913 -0.00008830 0.07423743
v 0.05682913 0.00069630 0.07423743
v 0.05239707 0.00537547 0.07553602
v 0.05436315 0.00562447 0.07468395
v 0.06075475 0.00442794 0.07146001
v 0.05771931 0.00482483 0.07333211
v 0.05789522 0.00372773 0.07343452
v 0.05814804 -0.00008830 0.07357380
v 0.05746568 -0.00008830 0.07391791
v 0.05520260 0.00516825 0.07441358
v 0.05693059 0.00529525 0.07360248
f 1 2 3
f 1 3 5
f 1 5 10
f 1 10 17
f 1 17 29
f 1 29 47
f 1 47 74
f 1 74 76
f 1 76 91
f 1 91 65
f 1 65 39
f 1 39 24
f 1 24 14
f 1 14 8
f 1 8 4
f 1 4 9
f 1 9 15
f 1 15 26
f 1 26 43
f 1 43 68
f 1 68 94
f 1 94 95
f 1 95 87
f 1 87 54
f 1 54 34
f 1 34 19
f 1 19 11
f 1 11 6
f 1 6 2
f 2 5 3
f 2 6 12
f 2 12 20
f 2 20 33
f 2 33 53
f 2 53 84
f 2 84 89
f 2 89 62
f 2 62 37
f 2 37 21
f 2 21 13
f 2 13 7
f 2 7 5
f 4 8 9
f 5 7 13
f 5 13 23
f 5 23 38
f 5 38 56
f 5 56 61
f 5 61 72
f 5 72 71
f 5 71 44
f 5 44 27
f 5 27 16
f 5 16 10
f 6 11 12
f 8 14 25
f 8 25 15
f 8 15 9
f 10 16 17
f 11 18 12
f 11 19 18
f 12 18 20
f 13 21 22
f 13 22 23
f 14 24 41
f 14 41 25
f 15 25 26
f 16 27 28
f 16 28 17
f 17 28 30
f 17 30 29
f 18 19 31
f 18 31 32
f 18 32 33
f 18 33 20
f 19 34 35
f 19 35 31
f 21 36 22
f 21 37 36
f 22 36 23
f 23 36 38
f 24 39 40
f 24 40 41
f 25 41 42
f 25 42 26
f 26 42 43
f 27 44 45
f 27 45 46
f 27 46 28
f 28 46 30
f 29 30 47
f 30 48 49
f 30 49 47
f 30 46 50
f 30 50 48
f 31 35 32
f 32 35 51
f 32 51 52
f 32 52 53
f 32 53 33
f 34 54 55
f 34 55 35
f 35 55 51
f 36 56 38
f 36 37 57
f 36 57 58
f 36 58 59
f 36 59 60
f 36 60 61
f 36 61 56
f 37 62 57
f 39 63 64
f 39 64 40
f 39 65 63
f 40 64 66
f 40 66 67
f 40 67 41
f 41 67 42
f 42 68 43
f 42 67 69
f 42 69 70
f 42 70 68
f 44 71 45
f 45 71 72
f 45 72 59
f 45 59 73
f 45 73 46
f 46 73 50
f 47 49 48
f 47 48 74
f 48 75 76
f 48 76 74
f 48 50 77
f 48 77 78
f 48 78 79
f 48 79 75
f 50 73 77
f 51 55 80
f 51 80 81
f 51 81 82
f 51 82 83
f 51 83 52
f 52 84 53
f 52 83 85
f 52 85 86
f 52 86 84
f 54 87 55
f 55 87 88
f 55 88 80
f 57 62 89
f 57 89 84
f 57 84 86
f 57 86 90
f 57 90 77
f 57 77 58
f 58 77 73
f 58 73 59
f 59 72 61
f 59 61 60
f 63 65 91
f 63 91 76
f 63 76 75
f 63 75 79
f 63 79 66
f 63 66 64
f 66 92 93
f 66 93 67
f 66 79 78
f 66 78 92
f 67 93 69
f 68 70 94
f 69 80 88
f 69 88 70
f 69 93 80
f 70 88 95
f 70 95 94
f 77 90 96
f 77 96 97
f 77 97 92
f 77 92 78
f 80 93 81
f 81 85 82
f 81 93 92
f 81 92 85
f 82 85 83
f 85 92 97
f 85 97 96
f 85 96 86
f 86 96 90
f 87 95 88

