# https://github.com/mikedh/trimesh
v -0.02539850 0.02191301 0.00137440
v -0.02539850 0.02035030 0.00174663
v -0.02539850 0.02494356 0.00137440
v -0.00984760 0.01735311 0.00137440
v -0.01136174 0.01736666 0.00141320
v -0.01134746 0.01735311 0.00141464
v -0.02539850 0.01975607 0.00213180
v -0.01291874 0.01735311 0.00166471
v -0.02539850 0.02533658 0.00142614
v 0.02324449 0.02518855 0.00140602
v 0.02324449 0.02494356 0.00137440
v 0.00984576 0.01735311 0.00137440
v -0.02539850 0.01969978 0.00217491
v -0.01298540 0.01735311 0.00167621
v -0.02539850 0.02645832 0.00157561
v 0.02324449 0.02645832 0.00157561
v 0.02324449 0.02191301 0.00137440
v 0.01136466 0.01736666 0.00141320
v 0.01136466 0.01735311 0.00141752
v -0.02539850 0.01735311 0.00971581
v -0.01393769 0.01735311 0.00222090
v -0.02539850 0.02731525 0.00190616
v 0.02324449 0.02659697 0.00162878
v 0.02324449 0.02039825 0.00164028
v 0.02324449 0.01959136 0.00197083
v 0.01298356 0.01735311 0.00167621
v -0.02539850 0.01735311 0.01605522
v -0.02539850 0.02747267 0.00279146
v 0.02324449 0.02734131 0.00204844
v 0.02324449 0.02731525 0.00190616
v 0.02324449 0.01735311 0.01009810
v 0.01439295 0.01735311 0.00273829
v -0.02539850 0.02800122 0.01605522
v 0.02324449 0.01735311 0.01605522
v -0.02539850 0.02791886 0.00582248
v 0.02324449 0.02747267 0.00279146
v -0.02500330 0.02800226 0.01188308
v -0.02539850 0.02800122 0.00733727
v 0.02324449 0.02800122 0.01605522
v 0.02324449 0.02791886 0.00582248
v -0.02500330 0.02800226 0.00885206
v 0.02324449 0.02800226 0.01188308
v 0.02324449 0.02800122 0.00733727
v 0.02324449 0.02800226 0.00885206
f 1 2 7
f 1 7 13
f 1 13 20
f 1 20 27
f 1 27 33
f 1 33 38
f 1 38 35
f 1 35 28
f 1 28 22
f 1 22 15
f 1 15 9
f 1 9 3
f 1 3 11
f 1 11 17
f 1 17 12
f 1 12 4
f 1 4 5
f 1 5 6
f 1 6 2
f 2 6 8
f 2 8 7
f 3 9 10
f 3 10 11
f 4 6 5
f 4 12 19
f 4 19 26
f 4 26 32
f 4 32 31
f 4 31 34
f 4 34 27
f 4 27 20
f 4 20 21
f 4 21 14
f 4 14 8
f 4 8 6
f 7 8 14
f 7 14 13
f 9 15 10
f 10 16 23
f 10 23 30
f 10 30 29
f 10 29 36
f 10 36 40
f 10 40 43
f 10 43 44
f 10 44 42
f 10 42 39
f 10 39 34
f 10 34 31
f 10 31 25
f 10 25 24
f 10 24 17
f 10 17 11
f 10 15 16
f 12 17 18
f 12 18 19
f 13 14 21
f 13 21 20
f 15 22 23
f 15 23 16
f 17 24 18
f 18 24 19
f 19 24 25
f 19 25 26
f 22 28 29
f 22 29 30
f 22 30 23
f 25 31 32
f 25 32 26
f 27 34 39
f 27 39 33
f 28 35 40
f 28 40 36
f 28 36 29
f 33 37 41
f 33 41 38
f 33 39 42
f 33 42 37
f 35 38 43
f 35 43 40
f 37 42 44
f 37 44 41
f 38 41 44
f 38 44 43

