# https://github.com/mikedh/trimesh
v 0.02118205 -0.00009650 0.07878181
v 0.02045627 -0.00008921 0.07878181
v 0.01287949 -0.00008921 0.07878826
v 0.02118205 -0.00081966 0.07878181
v 0.02118205 -0.00008921 0.07826582
v -0.01287881 -0.00008921 0.07878826
v -0.02500444 -0.00081966 0.07878181
v 0.02118205 -0.00233528 0.07868506
v 0.02118205 -0.00008921 0.01900384
v -0.02604458 -0.00008921 0.07878181
v -0.02604458 -0.00058985 0.07878181
v -0.02604458 -0.00081966 0.07877536
v -0.02604458 -0.00233528 0.07868506
v 0.00833064 -0.00385089 0.07852381
v 0.02118205 -0.00385089 0.07851736
v 0.02118205 -0.00940359 0.01454048
v 0.00889462 -0.00008921 0.01289575
v -0.02604458 -0.00008921 0.01852654
v -0.02604458 -0.00385089 0.07851736
v -0.00833459 -0.00385089 0.07852381
v 0.02118205 -0.00536468 0.07827227
v 0.01432180 -0.00940359 0.01289575
v 0.02118205 -0.00940359 0.07714353
v -0.00889395 -0.00008921 0.01289575
v -0.02604458 -0.00940359 0.01337305
v -0.02604458 -0.00536468 0.07826582
v -0.02500444 -0.00536468 0.07827227
v 0.02118205 -0.00608419 0.07811101
v -0.01432113 -0.00940359 0.01289575
v 0.02118205 -0.00839592 0.07749182
v -0.02604458 -0.00940359 0.07714353
v -0.02604458 -0.00630670 0.07805942
v -0.02604458 -0.00673895 0.07796267
v -0.02500444 -0.00674169 0.07796267
v 0.02118205 -0.00674169 0.07796267
v 0.02118205 -0.00749859 0.07776272
v 0.01893999 -0.00749950 0.07776272
v -0.02500444 -0.00839592 0.07749182
v -0.02604458 -0.00839592 0.07748537
v -0.02604458 -0.00725875 0.07782722
v 0.02118205 -0.00713746 0.07785947
v -0.02500444 -0.00749950 0.07776272
v -0.02604458 -0.00749676 0.07776272
v -0.02604458 -0.00811413 0.07757567
f 1 2 3
f 1 3 4
f 1 4 8
f 1 8 15
f 1 15 21
f 1 21 28
f 1 28 35
f 1 35 41
f 1 41 36
f 1 36 30
f 1 30 23
f 1 23 16
f 1 16 9
f 1 9 5
f 1 5 2
f 2 5 9
f 2 9 17
f 2 17 24
f 2 24 18
f 2 18 10
f 2 10 6
f 2 6 3
f 3 6 7
f 3 7 4
f 4 7 13
f 4 13 8
f 6 10 11
f 6 11 7
f 7 11 12
f 7 12 13
f 8 13 20
f 8 20 14
f 8 14 15
f 9 16 17
f 10 18 25
f 10 25 31
f 10 31 39
f 10 39 44
f 10 44 43
f 10 43 40
f 10 40 33
f 10 33 32
f 10 32 26
f 10 26 19
f 10 19 13
f 10 13 12
f 10 12 11
f 13 19 20
f 14 20 27
f 14 27 21
f 14 21 15
f 16 22 17
f 16 23 31
f 16 31 25
f 16 25 29
f 16 29 22
f 17 22 29
f 17 29 24
f 18 24 25
f 19 26 27
f 19 27 20
f 21 27 28
f 23 30 38
f 23 38 31
f 24 29 25
f 26 32 27
f 27 32 33
f 27 33 34
f 27 34 28
f 28 34 35
f 30 36 37
f 30 37 42
f 30 42 38
f 31 38 39
f 33 40 34
f 34 40 41
f 34 41 35
f 36 41 37
f 37 41 40
f 37 40 42
f 38 42 43
f 38 43 44
f 38 44 39
f 40 43 42

