# https://github.com/mikedh/trimesh
v 0.02324449 0.01537748 0.04797838
v 0.02324449 0.01537748 0.07417569
v 0.02324449 0.02789222 0.04797838
v 0.04662354 0.01537748 0.04797838
v 0.02324449 0.01585161 0.07386278
v 0.02955367 0.01537748 0.07417569
v 0.02955367 0.01585161 0.07386791
v 0.02324449 0.02788241 0.04825538
v 0.02348989 0.02789222 0.04797838
v 0.05239626 0.02052917 0.04797838
v 0.05239626 0.01537748 0.05197954
v 0.02324449 0.01666877 0.07330365
v 0.02955367 0.01667735 0.07330878
v 0.03040402 0.01537748 0.07417313
v 0.03106890 0.01585161 0.07385765
v 0.03106890 0.01666999 0.07330365
v 0.02324449 0.02787139 0.04850161
v 0.02652321 0.02788241 0.04825538
v 0.02803844 0.02789099 0.04797838
v 0.05239626 0.02670629 0.04797838
v 0.05239626 0.01537748 0.07081832
v 0.02324449 0.01730339 0.07279581
v 0.02955367 0.01743448 0.07269065
v 0.02324449 0.01820264 0.07206227
v 0.03106890 0.01537748 0.07416800
v 0.03409936 0.01537748 0.07412696
v 0.03409936 0.01585161 0.07381405
v 0.03106890 0.01742713 0.07268296
v 0.03258413 0.01665162 0.07329082
v 0.03409936 0.01739160 0.07266244
v 0.02324449 0.02781013 0.04977121
v 0.03106890 0.02781381 0.04977121
v 0.02955367 0.02788119 0.04825538
v 0.02983046 0.02788977 0.04797838
v 0.05239626 0.02668913 0.04814253
v 0.05228211 0.02672957 0.04797838
v 0.05168001 0.01537748 0.07113123
v 0.05239626 0.01574134 0.07054388
v 0.02955367 0.01834720 0.07193402
v 0.02500512 0.01835210 0.07193915
v 0.02324449 0.01835210 0.07193915
v 0.03558320 0.01537748 0.07408593
v 0.03555466 0.01598760 0.07367812
v 0.03500963 0.01661977 0.07326517
v 0.03409936 0.01663324 0.07327544
v 0.03106890 0.01833985 0.07192633
v 0.03409936 0.01831412 0.07190324
v 0.03561458 0.01827982 0.07187760
v 0.02324449 0.02779666 0.05001743
v 0.02652321 0.02772070 0.05128703
v 0.02955367 0.02771947 0.05128703
v 0.03106890 0.02771825 0.05128703
v 0.03258413 0.02781013 0.04977121
v 0.03106890 0.02787874 0.04825538
v 0.02324449 0.02772192 0.05128703
v 0.02348989 0.02772192 0.05128703
v 0.03134569 0.02788731 0.04797838
v 0.05228211 0.02670016 0.04825538
v 0.05239626 0.02667566 0.04825538
v 0.05104653 0.02694274 0.04797838
v 0.05076688 0.02696234 0.04825538
v 0.05101229 0.01537748 0.07141592
v 0.05239626 0.01616892 0.07020788
v 0.05213087 0.01584303 0.07057722
v 0.05076688 0.01578422 0.07120304
v 0.03106890 0.01909821 0.07122869
v 0.02955367 0.01910556 0.07123382
v 0.02500512 0.01910924 0.07123638
v 0.02348989 0.01911046 0.07123638
v 0.02324449 0.01911046 0.07123638
v 0.03656481 0.01537748 0.07403719
v 0.03712982 0.01577810 0.07373967
v 0.03601979 0.01658301 0.07323953
v 0.03555466 0.01722131 0.07274964
v 0.03409936 0.01907126 0.07121073
v 0.03258413 0.01908351 0.07122100
v 0.03561458 0.01903818 0.07118252
v 0.03864219 0.01818303 0.07179552
v 0.03864219 0.01894139 0.07110558
v 0.02500512 0.02758961 0.05280285
v 0.02652321 0.02758838 0.05280285
v 0.03106890 0.02758471 0.05280285
v 0.03258413 0.02771335 0.05128703
v 0.03409936 0.02780033 0.04977121
v 0.03561458 0.02786036 0.04825538
v 0.03409936 0.02786771 0.04825538
v 0.02324449 0.02758961 0.05280285
v 0.03258413 0.02788241 0.04797838
v 0.05228211 0.02649679 0.04977121
v 0.05076688 0.02678469 0.04977121
v 0.05239626 0.02647229 0.04977121
v 0.05075547 0.02698929 0.04797838
v 0.04949135 0.02716694 0.04797838
v 0.04930587 0.02715346 0.04835798
v 0.04925165 0.02700767 0.04977121
v 0.05039307 0.01537748 0.07167497
v 0.05239626 0.01662467 0.06981803
v 0.05152592 0.01660996 0.07022840
v 0.05076688 0.01678638 0.07038999
v 0.03106890 0.01987249 0.07047206
v 0.02955367 0.01988107 0.07047719
v 0.03409936 0.01985167 0.07045154
v 0.02500512 0.01988719 0.07047719
v 0.02324449 0.01988719 0.07047719
v 0.03712982 0.01537748 0.07400641
v 0.03712982 0.01653646 0.07320619
v 0.03816565 0.01537748 0.07394743
v 0.03864219 0.01571562 0.07369351
v 0.03864219 0.01647397 0.07316002
v 0.03864219 0.01736710 0.07245468
v 0.03561458 0.01982594 0.07042333
v 0.03712982 0.01979409 0.07038742
v 0.03864219 0.01975856 0.07034895
v 0.03957815 0.01814996 0.07176474
v 0.02324449 0.02756021 0.05304651
v 0.02500512 0.02740584 0.05431868
v 0.03106890 0.02739726 0.05431868
v 0.03258413 0.02757613 0.05280285
v 0.03409936 0.02770110 0.05128703
v 0.03561458 0.02778931 0.04977121
v 0.03712982 0.02784444 0.04825538
v 0.03589423 0.02786649 0.04797838
v 0.03561458 0.02786894 0.04797838
v 0.03437900 0.02787506 0.04797838
v 0.03409936 0.02787629 0.04797838
v 0.05228211 0.02625666 0.05128703
v 0.05076688 0.02655804 0.05128703
v 0.04925165 0.02681532 0.05128703
v 0.05239626 0.02624931 0.05117418
v 0.04890067 0.02724657 0.04797838
v 0.04842127 0.02720737 0.04892994
v 0.04741112 0.02727107 0.04945060
v 0.04784486 0.02716694 0.04988150
v 0.04773643 0.02701012 0.05128703
v 0.04957981 0.01537748 0.07194428
v 0.04925165 0.01620322 0.07142362
v 0.05239626 0.01719803 0.06930249
v 0.05207381 0.01727031 0.06937944
v 0.05076688 0.01754474 0.06968978
v 0.04925165 0.01787185 0.06999500
v 0.04925165 0.01711472 0.07066442
v 0.03106890 0.02062963 0.06966157
v 0.03258413 0.02061982 0.06965644
v 0.02955367 0.02063820 0.06966414
v 0.02652321 0.02064310 0.06966670
v 0.03409936 0.02061002 0.06963849
v 0.02500512 0.02064433 0.06966670
v 0.02324449 0.02064433 0.06966670
v 0.03864219 0.01537748 0.07391665
v 0.04015742 0.01563843 0.07364221
v 0.04015742 0.01639557 0.07310103
v 0.03561458 0.02058430 0.06959745
v 0.03983782 0.01970465 0.07029509
v 0.03871353 0.02063698 0.06934096
v 0.03825411 0.02118829 0.06874849
v 0.03712982 0.02122504 0.06878952
v 0.03561458 0.02126547 0.06883826
v 0.04011176 0.01748961 0.07223667
v 0.04167265 0.01723601 0.07225206
v 0.04058830 0.01807645 0.07169806
v 0.04021164 0.01888994 0.07099785
v 0.02324449 0.02740584 0.05431868
v 0.02500512 0.02726005 0.05531640
v 0.02652321 0.02725760 0.05530871
v 0.02803844 0.02725515 0.05530101
v 0.03258413 0.02724535 0.05525484
v 0.03258413 0.02738869 0.05431868
v 0.03409936 0.02756021 0.05280285
v 0.03561458 0.02768639 0.05128703
v 0.03712982 0.02776848 0.04977121
v 0.03864219 0.02781871 0.04825538
v 0.03864219 0.02782973 0.04797838
v 0.03740946 0.02784934 0.04797838
v 0.03712982 0.02785301 0.04797838
v 0.05238484 0.02593935 0.05290032
v 0.05239626 0.02623094 0.05128703
v 0.05076688 0.02629464 0.05280285
v 0.04925165 0.02655927 0.05280285
v 0.04773643 0.02679082 0.05280285
v 0.04881221 0.02725760 0.04797838
v 0.04870663 0.02726985 0.04797838
v 0.04622119 0.02748425 0.04825538
v 0.04632392 0.02732988 0.04988150
v 0.04588733 0.02726250 0.05088178
v 0.04689748 0.02720737 0.05046115
v 0.04784486 0.02732866 0.04835798
v 0.04632392 0.02715591 0.05134602
v 0.04622119 0.02697092 0.05280285
v 0.04925165 0.01537748 0.07204175
v 0.04925165 0.01544609 0.07199558
v 0.04827860 0.01805685 0.07016684
v 0.04773643 0.01647642 0.07163907
v 0.05239626 0.01765868 0.06887929
v 0.05160868 0.01816221 0.06874849
v 0.05076688 0.01833740 0.06893315
v 0.04925165 0.01863266 0.06923581
v 0.03258413 0.02131447 0.06889981
v 0.03106890 0.02131692 0.06890494
v 0.02955367 0.02131692 0.06890751
v 0.03409936 0.02129855 0.06887929
v 0.02500512 0.02131692 0.06891007
v 0.02324449 0.02131692 0.06891007
v 0.03978931 0.01537748 0.07383714
v 0.04015742 0.01537748 0.07381149
v 0.04147005 0.01537748 0.07366785
v 0.04167265 0.01551592 0.07355500
v 0.04167265 0.01627305 0.07300869
v 0.03926426 0.02114418 0.06869719
v 0.04167265 0.01799314 0.07162624
v 0.04318788 0.01787308 0.07152621
v 0.04318788 0.01868901 0.07076958
v 0.04084798 0.01962869 0.07021558
v 0.04318788 0.02014937 0.06927684
v 0.04167265 0.02100329 0.06852791
v 0.03871353 0.02165629 0.06809702
v 0.03712982 0.02186701 0.06795338
v 0.04318788 0.01711472 0.07214177
v 0.02324449 0.02726005 0.05531640
v 0.02500512 0.02712283 0.05607303
v 0.03106890 0.02712773 0.05603456
v 0.03258413 0.02712406 0.05601404
v 0.03409936 0.02723799 0.05520868
v 0.03561458 0.02723064 0.05515481
v 0.03668752 0.02722329 0.05511121
v 0.03409936 0.02736908 0.05431868
v 0.03561458 0.02754060 0.05280285
v 0.03712982 0.02766189 0.05128703
v 0.03864219 0.02773662 0.04977121
v 0.04015742 0.02778318 0.04825538
v 0.03892184 0.02782483 0.04797838
v 0.05239626 0.02593445 0.05290801
v 0.05239626 0.02593813 0.05289006
v 0.05194825 0.02580949 0.05398012
v 0.05086105 0.02594058 0.05441870
v 0.04925165 0.02626646 0.05431868
v 0.04773643 0.02651027 0.05431868
v 0.04622119 0.02671364 0.05431868
v 0.04781918 0.02736051 0.04797838
v 0.04649799 0.02748057 0.04797838
v 0.04622119 0.02750262 0.04797838
v 0.04470596 0.02758838 0.04825538
v 0.04470596 0.02746832 0.04977121
v 0.04472023 0.02730783 0.05134602
v 0.04523672 0.02719634 0.05189233
v 0.04472023 0.02711793 0.05275412
v 0.04470596 0.02687658 0.05431868
v 0.04912039 0.01537748 0.07208022
v 0.04773643 0.01571929 0.07220590
v 0.04576463 0.01537748 0.07299330
v 0.04822153 0.01956744 0.06862794
v 0.04774498 0.01888749 0.06947177
v 0.04726844 0.01820754 0.07030535
v 0.04596438 0.01677291 0.07187760
v 0.04775925 0.01747736 0.07079780
v 0.04697453 0.01660874 0.07174166
v 0.05239626 0.01828962 0.06825347
v 0.05218224 0.01862898 0.06799442
v 0.05090671 0.01919990 0.06792774
v 0.04925165 0.01939102 0.06842532
v 0.03258413 0.02202138 0.06795338
v 0.03106890 0.02203485 0.06795338
v 0.02955367 0.02204588 0.06795338
v 0.03409936 0.02199075 0.06795338
v 0.02652321 0.02265110 0.06717111
v 0.02803844 0.02205078 0.06795338
v 0.02500512 0.02265355 0.06717367
v 0.02500512 0.02205813 0.06795338
v 0.02324449 0.02193807 0.06810984
v 0.03561458 0.02193072 0.06795338
v 0.04167550 0.01537748 0.07364478
v 0.04305662 0.01537748 0.07345498
v 0.04318788 0.01612114 0.07289840
v 0.04015742 0.02168937 0.06787644
v 0.04167265 0.02162076 0.06776872
v 0.04470596 0.01695300 0.07201610
v 0.04470596 0.01771136 0.07138771
v 0.04470596 0.01853955 0.07062852
v 0.04318788 0.01944737 0.07003604
v 0.04318788 0.02090773 0.06839967
v 0.04470596 0.02000726 0.06912039
v 0.03864219 0.02251388 0.06695823
v 0.03712982 0.02255554 0.06702748
v 0.02324449 0.02712283 0.05607303
v 0.02324449 0.02708118 0.05628078
v 0.02500512 0.02686433 0.05734776
v 0.02803844 0.02686065 0.05734776
v 0.03106890 0.02685575 0.05734776
v 0.03258413 0.02684350 0.05734776
v 0.03409936 0.02682268 0.05734776
v 0.03409936 0.02711181 0.05596787
v 0.03716691 0.02730170 0.05444948
v 0.03561458 0.02734826 0.05431868
v 0.03561458 0.02708975 0.05591401
v 0.03769767 0.02721227 0.05504453
v 0.03712982 0.02751120 0.05280285
v 0.03864219 0.02762269 0.05128703
v 0.04015742 0.02769497 0.04977121
v 0.04015742 0.02779543 0.04797838
v 0.04167265 0.02773662 0.04825538
v 0.04043707 0.02778808 0.04797838
v 0.05239626 0.02558774 0.05440332
v 0.05042160 0.02579724 0.05543695
v 0.05143176 0.02567840 0.05499066
v 0.05239626 0.02558406 0.05441870
v 0.04928589 0.02590505 0.05589862
v 0.04773643 0.02617580 0.05583193
v 0.04622119 0.02639020 0.05583193
v 0.04470596 0.02657887 0.05583193
v 0.04470596 0.02760676 0.04797838
v 0.04318788 0.02767414 0.04825538
v 0.04318788 0.02756143 0.04977121
v 0.04318788 0.02742177 0.05128703
v 0.04422657 0.02724167 0.05221550
v 0.04318788 0.02717306 0.05325939
v 0.04318788 0.02700767 0.05431868
v 0.04318788 0.02672957 0.05583193
v 0.04470596 0.01595697 0.07277273
v 0.04470596 0.01537748 0.07320105
v 0.04925165 0.02003911 0.06766869
v 0.04773643 0.02103147 0.06702491
v 0.04772501 0.02018490 0.06805598
v 0.04721137 0.01970343 0.06877926
v 0.04622119 0.01910434 0.06967439
v 0.04622119 0.01834598 0.07044385
v 0.04636958 0.01731319 0.07130820
v 0.05239626 0.01859468 0.06792517
v 0.05228211 0.01948413 0.06699670
v 0.05150595 0.01963359 0.06718906
v 0.05049580 0.01981859 0.06740451
v 0.03258413 0.02262169 0.06713007
v 0.02955367 0.02264129 0.06715572
v 0.03409936 0.02260577 0.06710699
v 0.03258413 0.02313135 0.06637088
v 0.02955367 0.02313257 0.06639909
v 0.02500512 0.02313502 0.06641704
v 0.02324449 0.02265355 0.06717367
v 0.02324449 0.02255799 0.06729935
v 0.02324449 0.02205813 0.06795338
v 0.04015742 0.02244772 0.06685820
v 0.04167265 0.02237789 0.06675560
v 0.04318788 0.02151295 0.06764304
v 0.04470596 0.01929668 0.06987702
v 0.04470596 0.02076562 0.06822782
v 0.04622119 0.01982839 0.06891520
v 0.04633248 0.02069211 0.06787387
v 0.03864219 0.02300884 0.06620160
v 0.03712982 0.02306642 0.06626828
v 0.03561458 0.02309704 0.06630675
v 0.02324449 0.02686433 0.05734776
v 0.02324449 0.02680307 0.05759398
v 0.02500512 0.02648576 0.05886358
v 0.02803844 0.02648086 0.05886358
v 0.03106890 0.02647474 0.05886358
v 0.03258413 0.02646616 0.05886358
v 0.03409936 0.02644656 0.05886358
v 0.03561458 0.02679082 0.05734776
v 0.03716691 0.02709343 0.05570369
v 0.03864219 0.02670016 0.05734776
v 0.03864219 0.02701379 0.05583193
v 0.04015742 0.02693906 0.05583193
v 0.03864219 0.02719021 0.05490603
v 0.04015742 0.02727230 0.05391087
v 0.03864219 0.02729925 0.05414683
v 0.03864219 0.02746832 0.05280285
v 0.04015742 0.02757123 0.05128703
v 0.04167265 0.02763616 0.04977121
v 0.04167265 0.02775010 0.04797838
v 0.04318788 0.02769007 0.04797838
v 0.04195230 0.02774030 0.04797838
v 0.04981665 0.02566125 0.05644750
v 0.05086105 0.02556446 0.05589862
v 0.05228211 0.02523368 0.05583193
v 0.05239626 0.02523368 0.05571908
v 0.04880650 0.02576294 0.05679119
v 0.04622119 0.02602144 0.05734776
v 0.04759660 0.02582297 0.05731698
v 0.04470596 0.02621133 0.05734776
v 0.04318788 0.02637428 0.05734776
v 0.04346753 0.02767659 0.04797838
v 0.04167265 0.02750507 0.05128703
v 0.04174970 0.02731885 0.05291314
v 0.04318788 0.02728087 0.05250277
v 0.04230328 0.02720737 0.05349536
v 0.04129313 0.02724289 0.05371850
v 0.04174970 0.02711916 0.05426225
v 0.04167265 0.02684840 0.05583193
v 0.04167265 0.02651027 0.05734776
v 0.04925165 0.02079747 0.06672482
v 0.05086105 0.02044218 0.06647603
v 0.05122916 0.02106455 0.06554756
v 0.04773643 0.02156930 0.06626828
v 0.04691460 0.02114296 0.06717880
v 0.05021900 0.02121524 0.06576557
v 0.04925165 0.02135246 0.06596563
v 0.05239626 0.01946452 0.06695823
v 0.05228211 0.02009302 0.06623750
v 0.05239626 0.02006729 0.06620929
v 0.03409936 0.02312032 0.06634779
v 0.03258413 0.02388971 0.06513206
v 0.02955367 0.02388971 0.06515514
v 0.02803844 0.02389093 0.06516283
v 0.02652321 0.02389093 0.06517053
v 0.02500512 0.02389216 0.06517566
v 0.02324449 0.02313502 0.06641704
v 0.04015742 0.02293778 0.06610157
v 0.04318788 0.02226885 0.06660171
v 0.04318788 0.02276871 0.06584508
v 0.04167265 0.02286427 0.06599897
v 0.04470596 0.02136471 0.06746863
v 0.04590445 0.02124464 0.06731474
v 0.04015742 0.02366673 0.06492430
v 0.03873065 0.02384683 0.06479606
v 0.03712982 0.02382477 0.06502177
v 0.03561458 0.02385540 0.06506794
v 0.02324449 0.02648576 0.05886358
v 0.02324449 0.02641225 0.05910980
v 0.02500512 0.02602879 0.06037940
v 0.02652321 0.02602634 0.06037940
v 0.02803844 0.02602389 0.06037940
v 0.02955367 0.02601899 0.06037940
v 0.03106890 0.02601164 0.06037940
v 0.03258413 0.02600306 0.06037940
v 0.03561458 0.02595528 0.06034349
v 0.03561458 0.02641348 0.05886358
v 0.03712982 0.02675039 0.05734776
v 0.03712982 0.02636203 0.05886358
v 0.03864219 0.02630199 0.05886358
v 0.04015742 0.02661440 0.05734776
v 0.04015742 0.02714856 0.05467006
v 0.04015742 0.02741319 0.05280285
v 0.05076688 0.02516752 0.05734776
v 0.04928589 0.02549953 0.05731698
v 0.05228211 0.02477548 0.05734776
v 0.05239626 0.02477915 0.05723490
v 0.05239626 0.02520305 0.05583193
v 0.04800751 0.02560367 0.05780173
v 0.04699736 0.02570535 0.05811721
v 0.04622119 0.02576294 0.05829418
v 0.04327063 0.02591485 0.05899182
v 0.04470596 0.02585850 0.05863274
v 0.04167265 0.02608882 0.05886358
v 0.04015742 0.02620521 0.05886358
v 0.05076688 0.02237912 0.06368035
v 0.04962261 0.02255921 0.06398557
v 0.04917175 0.02215492 0.06480376
v 0.05228211 0.02085015 0.06524747
v 0.05239626 0.02089548 0.06511410
v 0.05239626 0.02133653 0.06445750
v 0.05228211 0.02135736 0.06449085
v 0.04773643 0.02232521 0.06515258
v 0.04622119 0.02251878 0.06543727
v 0.04633248 0.02169304 0.06657863
v 0.05239626 0.02081707 0.06522439
v 0.03409936 0.02387745 0.06510641
v 0.03258413 0.02429767 0.06437543
v 0.02955367 0.02431605 0.06439851
v 0.02803844 0.02432218 0.06440620
v 0.02500512 0.02432830 0.06441903
v 0.02324449 0.02389216 0.06517566
v 0.04516253 0.02262537 0.06560912
v 0.04318788 0.02330532 0.06492430
v 0.04167265 0.02351849 0.06492430
v 0.04015742 0.02415678 0.06410612
v 0.03712982 0.02423519 0.06426257
v 0.03929280 0.02418006 0.06415229
v 0.03828264 0.02420579 0.06420615
v 0.03561458 0.02425970 0.06431131
v 0.02324449 0.02602879 0.06037940
v 0.02324449 0.02598346 0.06051790
v 0.02348989 0.02574456 0.06124119
v 0.02500512 0.02574456 0.06123862
v 0.02652321 0.02574211 0.06123349
v 0.02803844 0.02573843 0.06122580
v 0.03258413 0.02571515 0.06117194
v 0.03363138 0.02570658 0.06115142
v 0.03412218 0.02592588 0.06052303
v 0.02955367 0.02573231 0.06121298
v 0.03561458 0.02568820 0.06110012
v 0.03712982 0.02566737 0.06103600
v 0.03712982 0.02592098 0.06027681
v 0.03864219 0.02588545 0.06018704
v 0.04015742 0.02583889 0.06005623
v 0.04925165 0.02499723 0.05886358
v 0.05089815 0.02456353 0.05900208
v 0.05228211 0.02435771 0.05853271
v 0.05239626 0.02435893 0.05843525
v 0.05239626 0.02474362 0.05734263
v 0.04773643 0.02475955 0.06037940
v 0.04759660 0.02538069 0.05871995
v 0.04470596 0.02562327 0.05939194
v 0.04622119 0.02550443 0.05905081
v 0.04383278 0.02568943 0.05958173
v 0.04282263 0.02573966 0.05972793
v 0.04167265 0.02578376 0.05987156
v 0.05158585 0.02269153 0.06268776
v 0.05076688 0.02282261 0.06292116
v 0.04917175 0.02297821 0.06345208
v 0.04861246 0.02270255 0.06421641
v 0.05239626 0.02202995 0.06329819
v 0.05216797 0.02212674 0.06327767
v 0.04773643 0.02280301 0.06439338
v 0.04622119 0.02296350 0.06468064
v 0.03409936 0.02428052 0.06434978
v 0.03258413 0.02478283 0.06340848
v 0.03409936 0.02475465 0.06340848
v 0.02955367 0.02480121 0.06340848
v 0.02500512 0.02481223 0.06340848
v 0.02324449 0.02432830 0.06441903
v 0.02803844 0.02480611 0.06340848
v 0.04470596 0.02385050 0.06355211
v 0.04467743 0.02302476 0.06503203
v 0.04167265 0.02408083 0.06395736
v 0.04167265 0.02443489 0.06319816
v 0.04015742 0.02450227 0.06334693
v 0.03712982 0.02465786 0.06340848
v 0.03561458 0.02471667 0.06340848
v 0.02324449 0.02574456 0.06124119
v 0.02500512 0.02542725 0.06199782
v 0.02803844 0.02542725 0.06198243
v 0.02955367 0.02542725 0.06196960
v 0.03258413 0.02542847 0.06193113
v 0.03412218 0.02547135 0.06175159
v 0.03561458 0.02538804 0.06189266
v 0.03712982 0.02533169 0.06189266
v 0.03864219 0.02563797 0.06094623
v 0.04015742 0.02559387 0.06081286
v 0.04919743 0.02443366 0.06040505
v 0.05047868 0.02431360 0.05991773
v 0.05148883 0.02417516 0.05959969
v 0.05228211 0.02405755 0.05929191
v 0.05239626 0.02433933 0.05848911
v 0.04622119 0.02502295 0.06037940
v 0.04610420 0.02441406 0.06192600
v 0.04773643 0.02432830 0.06143355
v 0.04865527 0.02423029 0.06122580
v 0.04327063 0.02547748 0.06029220
v 0.04470596 0.02465419 0.06189266
v 0.04470596 0.02525818 0.06037940
v 0.04167265 0.02551546 0.06062819
v 0.05239626 0.02232889 0.06279548
v 0.05239626 0.02270010 0.06213888
v 0.05239626 0.02289612 0.06177724
v 0.05216797 0.02292063 0.06187470
v 0.05076688 0.02333472 0.06189266
v 0.04919743 0.02381130 0.06179519
v 0.04773643 0.02395709 0.06219275
v 0.04773643 0.02333349 0.06340848
v 0.04610420 0.02375617 0.06326998
v 0.04551922 0.02419721 0.06267237
v 0.02324449 0.02532801 0.06222609
v 0.02324449 0.02481223 0.06340848
v 0.04470596 0.02426092 0.06279548
v 0.04318788 0.02435526 0.06299811
v 0.04318788 0.02484408 0.06189266
v 0.04167265 0.02500703 0.06189266
v 0.04015742 0.02515282 0.06189266
v 0.03864219 0.02524960 0.06189266
v 0.02324449 0.02542725 0.06199782
v 0.04966827 0.02409185 0.06092571
v 0.05089815 0.02398282 0.06040505
v 0.05228211 0.02359690 0.06037940
v 0.05239626 0.02355647 0.06038453
v 0.05239626 0.02403672 0.05924830
v 0.05239626 0.02407838 0.05914571
v 0.04652938 0.02408818 0.06245436
f 1 2 5
f 1 5 12
f 1 12 22
f 1 22 24
f 1 24 41
f 1 41 70
f 1 70 104
f 1 104 148
f 1 148 202
f 1 202 268
f 1 268 338
f 1 338 337
f 1 337 336
f 1 336 404
f 1 404 459
f 1 459 508
f 1 508 551
f 1 551 550
f 1 550 558
f 1 558 517
f 1 517 469
f 1 469 468
f 1 468 416
f 1 416 415
f 1 415 350
f 1 350 349
f 1 349 284
f 1 284 283
f 1 283 218
f 1 218 162
f 1 162 115
f 1 115 87
f 1 87 55
f 1 55 49
f 1 49 31
f 1 31 17
f 1 17 8
f 1 8 3
f 1 3 9
f 1 9 19
f 1 19 34
f 1 34 57
f 1 57 88
f 1 88 125
f 1 125 124
f 1 124 123
f 1 123 122
f 1 122 174
f 1 174 173
f 1 173 172
f 1 172 230
f 1 230 298
f 1 298 300
f 1 300 367
f 1 367 369
f 1 369 368
f 1 368 379
f 1 379 309
f 1 309 240
f 1 240 239
f 1 239 238
f 1 238 181
f 1 181 180
f 1 180 130
f 1 130 93
f 1 93 92
f 1 92 60
f 1 60 36
f 1 36 20
f 1 20 10
f 1 10 4
f 1 4 11
f 1 11 21
f 1 21 37
f 1 37 62
f 1 62 96
f 1 96 135
f 1 135 189
f 1 189 247
f 1 247 249
f 1 249 318
f 1 318 271
f 1 271 270
f 1 270 205
f 1 205 204
f 1 204 203
f 1 203 149
f 1 149 107
f 1 107 105
f 1 105 71
f 1 71 42
f 1 42 26
f 1 26 25
f 1 25 14
f 1 14 6
f 1 6 2
f 2 6 7
f 2 7 5
f 3 8 18
f 3 18 9
f 4 10 11
f 5 7 13
f 5 13 12
f 6 14 7
f 7 14 15
f 7 15 16
f 7 16 13
f 8 17 18
f 9 18 19
f 10 20 35
f 10 35 59
f 10 59 91
f 10 91 129
f 10 129 176
f 10 176 232
f 10 232 231
f 10 231 301
f 10 301 304
f 10 304 373
f 10 373 435
f 10 435 434
f 10 434 487
f 10 487 486
f 10 486 531
f 10 531 564
f 10 564 563
f 10 563 562
f 10 562 542
f 10 542 541
f 10 541 540
f 10 540 499
f 10 499 448
f 10 448 447
f 10 447 453
f 10 453 397
f 10 397 395
f 10 395 326
f 10 326 256
f 10 256 193
f 10 193 137
f 10 137 97
f 10 97 63
f 10 63 38
f 10 38 21
f 10 21 11
f 12 13 22
f 13 16 23
f 13 23 24
f 13 24 22
f 14 25 15
f 15 25 26
f 15 26 27
f 15 27 16
f 16 28 23
f 16 27 29
f 16 29 30
f 16 30 28
f 17 31 32
f 17 32 18
f 18 32 33
f 18 33 19
f 19 33 34
f 20 36 35
f 21 38 37
f 23 28 46
f 23 46 39
f 23 39 40
f 23 40 24
f 24 40 41
f 26 42 27
f 27 42 43
f 27 43 44
f 27 44 45
f 27 45 29
f 28 30 47
f 28 47 46
f 29 45 30
f 30 45 44
f 30 44 48
f 30 48 47
f 31 49 32
f 32 50 51
f 32 51 52
f 32 52 53
f 32 53 54
f 32 54 33
f 32 49 55
f 32 55 56
f 32 56 50
f 33 54 57
f 33 57 34
f 35 36 58
f 35 58 59
f 36 60 61
f 36 61 58
f 37 38 62
f 38 63 64
f 38 64 65
f 38 65 62
f 39 46 66
f 39 66 67
f 39 67 40
f 40 68 69
f 40 69 70
f 40 70 41
f 40 67 68
f 42 71 43
f 43 71 72
f 43 72 73
f 43 73 44
f 44 73 74
f 44 74 48
f 46 47 75
f 46 75 76
f 46 76 66
f 47 48 75
f 48 77 75
f 48 74 78
f 48 78 79
f 48 79 77
f 50 56 80
f 50 80 51
f 51 80 81
f 51 81 82
f 51 82 52
f 52 82 83
f 52 83 53
f 53 83 84
f 53 84 85
f 53 85 86
f 53 86 54
f 54 86 57
f 55 87 80
f 55 80 56
f 57 86 88
f 58 89 91
f 58 91 59
f 58 61 90
f 58 90 89
f 60 92 61
f 61 92 93
f 61 93 94
f 61 94 95
f 61 95 90
f 62 65 96
f 63 97 98
f 63 98 65
f 63 65 64
f 65 98 99
f 65 99 96
f 66 100 101
f 66 101 67
f 66 76 102
f 66 102 100
f 67 101 68
f 68 103 69
f 68 101 103
f 69 103 104
f 69 104 70
f 71 105 72
f 72 106 73
f 72 105 107
f 72 107 108
f 72 108 109
f 72 109 106
f 73 106 109
f 73 109 110
f 73 110 78
f 73 78 74
f 75 102 76
f 75 77 111
f 75 111 102
f 77 112 111
f 77 79 113
f 77 113 112
f 78 110 114
f 78 114 79
f 79 114 113
f 80 87 115
f 80 115 116
f 80 116 81
f 81 116 82
f 82 117 167
f 82 167 118
f 82 118 83
f 82 116 117
f 83 118 119
f 83 119 120
f 83 120 84
f 84 120 85
f 85 120 121
f 85 121 122
f 85 122 123
f 85 123 124
f 85 124 86
f 86 124 125
f 86 125 88
f 89 126 91
f 89 90 127
f 89 127 126
f 90 95 128
f 90 128 127
f 91 126 129
f 93 130 94
f 94 130 131
f 94 131 95
f 95 131 132
f 95 132 133
f 95 133 134
f 95 134 128
f 96 99 136
f 96 136 135
f 97 137 98
f 98 138 139
f 98 139 99
f 98 137 138
f 99 139 140
f 99 140 141
f 99 141 136
f 100 142 101
f 100 102 143
f 100 143 142
f 101 142 144
f 101 144 145
f 101 145 103
f 102 111 146
f 102 146 143
f 103 147 148
f 103 148 104
f 103 145 147
f 107 149 108
f 108 149 150
f 108 150 109
f 109 150 151
f 109 151 114
f 109 114 110
f 111 112 152
f 111 152 146
f 112 113 152
f 113 114 153
f 113 153 154
f 113 154 155
f 113 155 156
f 113 156 157
f 113 157 152
f 114 151 158
f 114 158 159
f 114 159 160
f 114 160 161
f 114 161 153
f 115 162 116
f 116 162 218
f 116 218 163
f 116 163 117
f 117 164 165
f 117 165 166
f 117 166 167
f 117 163 164
f 118 167 168
f 118 168 169
f 118 169 119
f 119 169 120
f 120 169 170
f 120 170 121
f 121 170 171
f 121 171 172
f 121 172 173
f 121 173 174
f 121 174 122
f 126 175 176
f 126 176 129
f 126 127 177
f 126 177 175
f 127 128 178
f 127 178 177
f 128 134 179
f 128 179 178
f 130 180 131
f 131 180 181
f 131 181 132
f 132 182 183
f 132 183 184
f 132 184 185
f 132 185 134
f 132 134 133
f 132 181 186
f 132 186 182
f 134 185 187
f 134 187 188
f 134 188 179
f 135 136 190
f 135 190 189
f 136 141 191
f 136 191 192
f 136 192 190
f 137 193 138
f 138 193 139
f 139 193 194
f 139 194 195
f 139 195 140
f 140 196 191
f 140 191 141
f 140 195 196
f 142 143 197
f 142 197 144
f 143 146 197
f 144 197 198
f 144 198 145
f 145 198 199
f 145 199 147
f 146 200 197
f 146 152 200
f 147 201 202
f 147 202 148
f 147 199 201
f 149 203 150
f 150 203 204
f 150 204 205
f 150 205 206
f 150 206 151
f 151 206 207
f 151 207 159
f 151 159 158
f 152 157 200
f 153 208 154
f 153 161 209
f 153 209 210
f 153 210 211
f 153 211 212
f 153 212 213
f 153 213 214
f 153 214 208
f 154 208 155
f 155 208 215
f 155 215 216
f 155 216 156
f 156 216 157
f 157 216 200
f 159 209 160
f 159 207 217
f 159 217 210
f 159 210 209
f 160 209 161
f 163 218 283
f 163 283 219
f 163 219 220
f 163 220 164
f 164 220 165
f 165 220 166
f 166 220 221
f 166 221 222
f 166 222 167
f 167 222 223
f 167 223 224
f 167 224 225
f 167 225 226
f 167 226 168
f 168 226 169
f 169 226 227
f 169 227 170
f 170 227 228
f 170 228 171
f 171 228 229
f 171 229 230
f 171 230 172
f 175 231 232
f 175 232 176
f 175 177 233
f 175 233 231
f 177 234 233
f 177 178 235
f 177 235 234
f 178 179 236
f 178 236 235
f 179 188 237
f 179 237 236
f 181 238 186
f 182 186 238
f 182 238 239
f 182 239 240
f 182 240 309
f 182 309 241
f 182 241 242
f 182 242 183
f 183 242 243
f 183 243 184
f 184 244 187
f 184 187 185
f 184 243 244
f 187 244 188
f 188 244 245
f 188 245 246
f 188 246 237
f 189 190 247
f 190 192 248
f 190 248 249
f 190 249 247
f 191 250 251
f 191 251 252
f 191 252 253
f 191 253 254
f 191 254 192
f 191 196 250
f 192 255 249
f 192 249 248
f 192 254 255
f 193 256 194
f 194 256 257
f 194 257 195
f 195 258 259
f 195 259 196
f 195 257 258
f 196 259 250
f 197 260 261
f 197 261 262
f 197 262 198
f 197 200 263
f 197 263 260
f 198 262 264
f 198 264 265
f 198 265 266
f 198 266 267
f 198 267 199
f 199 267 268
f 199 268 201
f 200 216 269
f 200 269 263
f 201 268 202
f 205 270 206
f 206 270 271
f 206 271 207
f 207 271 272
f 207 272 217
f 208 273 215
f 208 214 274
f 208 274 273
f 210 217 275
f 210 275 276
f 210 276 277
f 210 277 211
f 211 278 212
f 211 277 278
f 212 278 213
f 213 279 214
f 213 278 280
f 213 280 279
f 214 279 274
f 215 281 216
f 215 273 281
f 216 282 269
f 216 281 282
f 217 272 275
f 219 283 284
f 219 284 285
f 219 285 220
f 220 286 287
f 220 287 221
f 220 285 286
f 221 287 288
f 221 288 289
f 221 289 290
f 221 290 223
f 221 223 222
f 223 290 224
f 224 291 292
f 224 292 225
f 224 290 293
f 224 293 294
f 224 294 291
f 225 292 226
f 226 292 291
f 226 291 295
f 226 295 227
f 227 295 296
f 227 296 228
f 228 296 297
f 228 297 229
f 229 298 230
f 229 297 299
f 229 299 300
f 229 300 298
f 231 233 301
f 233 234 302
f 233 302 303
f 233 303 304
f 233 304 301
f 234 235 302
f 235 305 302
f 235 236 306
f 235 306 305
f 236 237 307
f 236 307 306
f 237 246 308
f 237 308 307
f 241 309 310
f 241 310 311
f 241 311 242
f 242 311 312
f 242 312 243
f 243 312 313
f 243 313 244
f 244 313 245
f 245 313 314
f 245 314 246
f 246 314 315
f 246 315 316
f 246 316 308
f 249 255 253
f 249 253 275
f 249 275 317
f 249 317 318
f 250 259 319
f 250 319 320
f 250 320 321
f 250 321 322
f 250 322 251
f 251 322 323
f 251 323 252
f 252 323 324
f 252 324 276
f 252 276 325
f 252 325 253
f 253 276 275
f 253 255 254
f 253 325 276
f 256 326 257
f 257 326 327
f 257 327 328
f 257 328 258
f 258 328 259
f 259 328 329
f 259 329 319
f 260 330 331
f 260 331 261
f 260 263 330
f 261 331 262
f 262 331 264
f 263 332 330
f 263 269 282
f 263 282 332
f 264 331 333
f 264 333 334
f 264 334 335
f 264 335 266
f 264 266 265
f 266 335 404
f 266 404 336
f 266 336 337
f 266 337 267
f 267 337 338
f 267 338 268
f 271 318 272
f 272 318 317
f 272 317 275
f 273 339 281
f 273 274 340
f 273 340 339
f 274 279 341
f 274 341 340
f 276 324 277
f 277 324 342
f 277 342 278
f 278 342 280
f 279 280 343
f 279 343 341
f 280 342 344
f 280 344 345
f 280 345 343
f 281 339 346
f 281 346 347
f 281 347 282
f 282 347 348
f 282 348 332
f 284 349 285
f 285 349 350
f 285 350 351
f 285 351 286
f 286 352 287
f 286 351 352
f 287 352 353
f 287 353 354
f 287 354 288
f 288 354 355
f 288 355 289
f 289 355 356
f 289 356 290
f 290 356 293
f 291 294 295
f 293 356 357
f 293 357 294
f 294 358 359
f 294 359 360
f 294 360 361
f 294 361 362
f 294 362 363
f 294 363 295
f 294 357 358
f 295 363 364
f 295 364 296
f 296 364 365
f 296 365 297
f 297 365 366
f 297 366 299
f 299 367 300
f 299 366 310
f 299 310 368
f 299 368 369
f 299 369 367
f 302 370 371
f 302 371 303
f 302 305 370
f 303 371 372
f 303 372 304
f 304 372 373
f 305 306 374
f 305 374 370
f 306 307 375
f 306 375 376
f 306 376 374
f 307 308 377
f 307 377 375
f 308 316 378
f 308 378 377
f 309 379 310
f 310 366 311
f 310 379 368
f 311 366 380
f 311 380 312
f 312 380 381
f 312 381 382
f 312 382 313
f 313 382 314
f 314 382 383
f 314 383 315
f 315 383 384
f 315 384 385
f 315 385 386
f 315 386 316
f 316 386 387
f 316 387 378
f 319 388 320
f 319 329 389
f 319 389 390
f 319 390 388
f 320 391 392
f 320 392 321
f 320 388 393
f 320 393 394
f 320 394 391
f 321 392 322
f 322 392 345
f 322 345 344
f 322 344 323
f 323 344 342
f 323 342 324
f 326 395 327
f 327 396 390
f 327 390 328
f 327 395 397
f 327 397 396
f 328 390 389
f 328 389 329
f 330 333 331
f 330 332 398
f 330 398 333
f 332 348 398
f 333 399 334
f 333 398 399
f 334 399 400
f 334 400 401
f 334 401 402
f 334 402 335
f 335 403 459
f 335 459 404
f 335 402 403
f 339 405 346
f 339 340 405
f 340 341 406
f 340 406 407
f 340 407 408
f 340 408 405
f 341 343 409
f 341 409 406
f 343 345 392
f 343 392 410
f 343 410 409
f 346 405 411
f 346 411 412
f 346 412 413
f 346 413 347
f 347 413 414
f 347 414 348
f 348 414 398
f 350 415 351
f 351 415 416
f 351 416 417
f 351 417 418
f 351 418 352
f 352 418 419
f 352 419 353
f 353 419 420
f 353 420 421
f 353 421 422
f 353 422 354
f 354 422 355
f 355 422 423
f 355 423 424
f 355 424 356
f 356 424 425
f 356 425 357
f 357 425 358
f 358 425 424
f 358 424 426
f 358 426 427
f 358 427 428
f 358 428 360
f 358 360 359
f 360 429 361
f 360 428 386
f 360 386 429
f 361 429 362
f 362 430 363
f 362 429 384
f 362 384 430
f 363 430 364
f 364 430 365
f 365 430 380
f 365 380 366
f 370 431 371
f 370 374 432
f 370 432 431
f 371 431 372
f 372 433 434
f 372 434 435
f 372 435 373
f 372 431 433
f 374 436 432
f 374 376 437
f 374 437 436
f 375 377 438
f 375 438 437
f 375 437 376
f 377 378 439
f 377 439 440
f 377 440 438
f 378 387 439
f 380 430 381
f 381 430 384
f 381 384 382
f 382 384 383
f 384 429 385
f 385 429 386
f 386 428 387
f 387 441 439
f 387 428 442
f 387 442 441
f 388 390 393
f 390 443 444
f 390 444 445
f 390 445 393
f 390 396 397
f 390 397 446
f 390 446 447
f 390 447 448
f 390 448 449
f 390 449 443
f 391 394 450
f 391 450 451
f 391 451 392
f 392 451 452
f 392 452 410
f 393 445 450
f 393 450 394
f 397 453 446
f 398 454 399
f 398 414 454
f 399 454 455
f 399 455 456
f 399 456 457
f 399 457 458
f 399 458 400
f 400 458 401
f 401 458 402
f 402 458 403
f 403 458 508
f 403 508 459
f 405 408 411
f 406 409 460
f 406 460 407
f 407 461 462
f 407 462 408
f 407 460 461
f 408 462 411
f 409 410 460
f 410 452 460
f 411 463 412
f 411 462 463
f 412 463 413
f 413 464 414
f 413 463 465
f 413 465 466
f 413 466 464
f 414 464 467
f 414 467 454
f 416 468 417
f 417 468 469
f 417 469 470
f 417 470 471
f 417 471 418
f 418 471 419
f 419 471 472
f 419 472 420
f 420 472 473
f 420 473 421
f 421 473 422
f 422 474 475
f 422 475 476
f 422 476 423
f 422 473 477
f 422 477 474
f 423 478 479
f 423 479 480
f 423 480 426
f 423 426 424
f 423 476 478
f 426 480 427
f 427 481 482
f 427 482 442
f 427 442 428
f 427 480 481
f 431 432 483
f 431 483 484
f 431 484 433
f 432 436 483
f 433 485 486
f 433 486 487
f 433 487 434
f 433 484 485
f 436 437 483
f 437 488 489
f 437 489 483
f 437 438 490
f 437 490 491
f 437 491 488
f 438 440 492
f 438 492 490
f 439 492 440
f 439 441 493
f 439 493 492
f 441 442 493
f 442 482 494
f 442 494 493
f 443 449 495
f 443 495 496
f 443 496 444
f 444 496 497
f 444 497 498
f 444 498 445
f 445 498 450
f 446 453 447
f 448 499 500
f 448 500 495
f 448 495 449
f 450 498 451
f 451 498 501
f 451 501 502
f 451 502 460
f 451 460 452
f 454 503 455
f 454 467 503
f 455 504 456
f 455 503 505
f 455 505 504
f 456 504 457
f 457 504 506
f 457 506 458
f 458 507 551
f 458 551 508
f 458 506 509
f 458 509 507
f 460 502 510
f 460 510 511
f 460 511 512
f 460 512 461
f 461 512 462
f 462 512 463
f 463 512 513
f 463 513 514
f 463 514 515
f 463 515 465
f 464 515 516
f 464 516 467
f 464 466 515
f 465 515 466
f 467 516 503
f 469 517 470
f 470 518 471
f 470 517 558
f 470 558 518
f 471 518 519
f 471 519 472
f 472 519 520
f 472 520 473
f 473 520 521
f 473 521 477
f 474 477 521
f 474 521 475
f 475 521 522
f 475 522 478
f 475 478 476
f 478 523 479
f 478 522 523
f 479 523 524
f 479 524 525
f 479 525 480
f 480 525 481
f 481 525 526
f 481 526 482
f 482 526 494
f 483 527 484
f 483 489 488
f 483 488 527
f 484 528 529
f 484 529 485
f 484 527 528
f 485 530 531
f 485 531 486
f 485 529 530
f 488 491 532
f 488 532 533
f 488 533 534
f 488 534 535
f 488 535 527
f 490 492 532
f 490 532 491
f 492 493 536
f 492 536 537
f 492 537 538
f 492 538 532
f 493 494 526
f 493 526 539
f 493 539 536
f 495 500 540
f 495 540 541
f 495 541 542
f 495 542 543
f 495 543 496
f 496 543 544
f 496 544 545
f 496 545 497
f 497 545 535
f 497 535 546
f 497 546 547
f 497 547 498
f 498 547 501
f 499 540 500
f 501 547 548
f 501 548 502
f 502 548 549
f 502 549 510
f 503 516 505
f 504 521 506
f 504 505 521
f 505 516 523
f 505 523 521
f 506 521 520
f 506 520 519
f 506 519 509
f 507 518 550
f 507 550 551
f 507 509 518
f 509 519 518
f 510 549 552
f 510 552 512
f 510 512 511
f 512 553 513
f 512 552 553
f 513 553 554
f 513 554 555
f 513 555 556
f 513 556 514
f 514 556 557
f 514 557 515
f 515 524 516
f 515 557 524
f 516 524 523
f 518 558 550
f 521 523 522
f 524 557 525
f 525 557 556
f 525 556 526
f 526 556 555
f 526 555 539
f 527 535 528
f 528 559 560
f 528 560 529
f 528 535 559
f 529 560 561
f 529 561 530
f 530 561 562
f 530 562 563
f 530 563 564
f 530 564 531
f 532 538 537
f 532 537 533
f 533 537 549
f 533 549 534
f 534 546 535
f 534 549 565
f 534 565 546
f 535 545 544
f 535 544 559
f 536 539 554
f 536 554 537
f 537 554 552
f 537 552 549
f 539 555 554
f 542 562 561
f 542 561 543
f 543 561 544
f 544 560 559
f 544 561 560
f 546 565 547
f 547 565 549
f 547 549 548
f 552 554 553

