# https://github.com/mikedh/trimesh
v 0.02324449 0.00069811 0.07878431
v 0.01287881 0.00069811 0.07879045
v 0.02324449 0.00045339 0.07878431
v 0.02324449 0.00196845 0.07871062
v -0.01288065 0.00069811 0.07879045
v 0.01512621 -0.00008830 0.07878431
v 0.01439295 0.00221317 0.07869834
v 0.02324449 -0.00008830 0.07877817
v 0.02324449 0.00221317 0.07869219
v -0.01439479 0.00221317 0.07869834
v -0.02539850 0.00181997 0.07871676
v -0.02539850 0.00069811 0.07878431
v -0.01518043 -0.00008830 0.07878431
v 0.02324449 0.00348352 0.07856324
v 0.00984576 0.00372823 0.07854482
v 0.02324449 -0.00008830 0.01897214
v -0.00984760 0.00372823 0.07854482
v -0.02539850 0.00221317 0.07869219
v -0.02539850 -0.00008830 0.07877817
v 0.02324449 0.00372823 0.07853253
v 0.02324449 0.00524330 0.07829304
v 0.01245028 -0.00008830 0.01605522
v 0.02324449 0.01267289 0.01605522
v -0.02539850 0.00372823 0.07853253
v -0.02539850 0.00333503 0.07857552
v -0.02539850 0.00524330 0.07829304
v -0.02539850 -0.00008830 0.01871422
v 0.02324449 0.00645040 0.07802898
v -0.01243307 -0.00008830 0.01605522
v 0.02324449 0.02800226 0.01605522
v -0.02539850 0.00630742 0.07805968
v -0.02539850 0.01219995 0.01605522
v 0.02324449 0.00668137 0.07797371
v -0.02539850 0.00668137 0.07797371
v -0.02513186 0.02800226 0.01605522
v 0.02324449 0.02800226 0.01970904
v -0.02539850 0.02799951 0.01605522
v 0.02324449 0.00744028 0.07778335
v -0.02500330 0.00744028 0.07778335
v -0.02539850 0.00743753 0.07778335
v -0.02500330 0.02800226 0.01794661
v -0.02539850 0.02799951 0.03955637
v -0.02348916 0.02800226 0.01946341
v 0.02324449 0.02799951 0.03940899
v 0.02324449 0.00813869 0.07756841
v -0.02539850 0.00827618 0.07752543
v -0.02539850 0.02799676 0.04107316
v 0.02324449 0.02799676 0.04092578
v 0.02324449 0.00827618 0.07752543
v -0.02539850 0.00939804 0.07715083
v -0.02539850 0.02799126 0.04219695
v 0.02324449 0.02799126 0.04244258
v 0.02324449 0.00979124 0.07701573
v -0.02539850 0.00979124 0.07701573
v -0.02539850 0.02798301 0.04371374
v 0.02324449 0.02798301 0.04371374
v 0.02324449 0.01106708 0.07651218
v -0.02539850 0.01106708 0.07651218
v -0.02539850 0.02796376 0.04522440
v 0.02324449 0.02798026 0.04395324
v 0.02324449 0.01170226 0.07623584
v -0.02539850 0.01182599 0.07618058
v -0.02539850 0.02795551 0.04561742
v 0.02324449 0.02796376 0.04522440
v 0.02324449 0.01182599 0.07618058
v -0.02539850 0.01256290 0.07581212
v -0.02539850 0.02793077 0.04674120
v 0.02324449 0.02793077 0.04674120
v 0.02324449 0.01265914 0.07576300
v -0.02539850 0.01282137 0.07567702
v -0.02539850 0.02788127 0.04825185
v 0.02324449 0.02788127 0.04825185
v 0.02324449 0.01282137 0.07567702
v -0.02539850 0.01370401 0.07519804
v -0.02539850 0.02780978 0.04976865
v 0.02324449 0.02787027 0.04849749
v 0.02324449 0.01382225 0.07513048
v 0.02324449 0.01401197 0.07502609
v -0.02539850 0.01401197 0.07502609
v -0.02539850 0.02778778 0.05016167
v 0.02324449 0.02780978 0.04976865
v 0.02324449 0.01477088 0.07457166
v -0.02539850 0.01477088 0.07457166
v -0.02539850 0.02771904 0.05127931
v -0.02500330 0.02772179 0.05127931
v 0.02324449 0.02772179 0.05127931
v 0.02324449 0.02779603 0.05001429
v 0.02324449 0.01567552 0.07397600
v -0.02539850 0.01584875 0.07385932
v -0.02539850 0.02768604 0.05167846
v -0.02500330 0.02758981 0.05279610
v 0.02324449 0.02758981 0.05279610
v 0.02324449 0.01584875 0.07385932
v -0.02539850 0.01645367 0.07344788
v -0.02539850 0.02758706 0.05279610
v -0.02539850 0.02754031 0.05318912
v -0.02500330 0.02740558 0.05431290
v 0.02324449 0.02740558 0.05431290
v 0.02324449 0.01653341 0.07339261
v -0.02539850 0.01666815 0.07330050
v -0.02539850 0.02740283 0.05431290
v -0.02539850 0.02736709 0.05457082
v -0.02539850 0.02725985 0.05530773
v -0.02500330 0.02725985 0.05531387
v 0.02324449 0.02725985 0.05531387
v 0.02324449 0.01666540 0.07330050
v -0.02539850 0.01722908 0.07285222
v -0.02539850 0.02712237 0.05606919
v 0.02324449 0.02723785 0.05543668
v 0.02324449 0.01742431 0.07269256
v 0.02324449 0.01835094 0.07193723
v -0.02539850 0.01835094 0.07193723
v -0.02539850 0.02686390 0.05734650
v 0.02324449 0.02708112 0.05627798
v 0.02324449 0.02712237 0.05606919
v 0.02324449 0.01898611 0.07134770
v -0.02539850 0.01891187 0.07141525
v -0.02539850 0.02648444 0.05885715
v 0.02324449 0.02680340 0.05759213
v 0.02324449 0.02686390 0.05734650
v 0.02324449 0.01910710 0.07123103
v -0.02539850 0.01910710 0.07123103
v -0.02539850 0.02636621 0.05925017
v 0.02324449 0.02648444 0.05885715
v 0.02324449 0.01975877 0.07059852
v -0.02539850 0.01988525 0.07047570
v -0.02539850 0.02602800 0.06037395
v 0.02324449 0.02602800 0.06037395
v 0.02324449 0.01988525 0.07047570
v -0.02539850 0.02064141 0.06966510
v -0.02539850 0.02574204 0.06123367
v -0.02500330 0.02574478 0.06123981
v 0.02324449 0.02574478 0.06123981
v 0.02324449 0.02064141 0.06966510
v -0.02539850 0.02131508 0.06890977
v -0.02539850 0.02566229 0.06143018
v -0.02539850 0.02542582 0.06199514
v 0.02324449 0.02542582 0.06199514
v 0.02324449 0.02131508 0.06890977
v -0.02500330 0.02205749 0.06795180
v -0.02539850 0.02205474 0.06795180
v -0.02539850 0.02526634 0.06236360
v 0.02324449 0.02481265 0.06340754
v 0.02324449 0.02205749 0.06795180
v 0.02324449 0.02255793 0.06730086
v -0.02500330 0.02265416 0.06717190
v -0.02539850 0.02249743 0.06737455
v -0.02539850 0.02480990 0.06340754
v -0.02500330 0.02481265 0.06340754
v 0.02324449 0.02432871 0.06441465
v 0.02324449 0.02265416 0.06717190
v -0.02539850 0.02265141 0.06717190
v -0.02348916 0.02313535 0.06641658
v -0.02500330 0.02313260 0.06641658
v -0.02539850 0.02468616 0.06366546
v -0.02500330 0.02432871 0.06441465
v 0.02324449 0.02389151 0.06517612
v 0.02324449 0.02313535 0.06641658
v -0.02539850 0.02300887 0.06660695
v -0.02500330 0.02389151 0.06517612
v -0.02539850 0.02369353 0.06549544
v -0.02539850 0.02313260 0.06641044
v -0.02539850 0.02432596 0.06441465
v -0.02539850 0.02421322 0.06461116
v -0.02539850 0.02389151 0.06516998
f 1 2 3
f 1 3 8
f 1 8 16
f 1 16 23
f 1 23 30
f 1 30 36
f 1 36 44
f 1 44 48
f 1 48 52
f 1 52 56
f 1 56 60
f 1 60 64
f 1 64 68
f 1 68 72
f 1 72 76
f 1 76 81
f 1 81 87
f 1 87 86
f 1 86 92
f 1 92 98
f 1 98 105
f 1 105 109
f 1 109 115
f 1 115 114
f 1 114 120
f 1 120 119
f 1 119 124
f 1 124 128
f 1 128 133
f 1 133 138
f 1 138 143
f 1 143 150
f 1 150 157
f 1 157 158
f 1 158 151
f 1 151 145
f 1 145 144
f 1 144 139
f 1 139 134
f 1 134 129
f 1 129 125
f 1 125 121
f 1 121 116
f 1 116 111
f 1 111 110
f 1 110 106
f 1 106 99
f 1 99 93
f 1 93 88
f 1 88 82
f 1 82 78
f 1 78 77
f 1 77 73
f 1 73 69
f 1 69 65
f 1 65 61
f 1 61 57
f 1 57 53
f 1 53 49
f 1 49 45
f 1 45 38
f 1 38 33
f 1 33 28
f 1 28 21
f 1 21 20
f 1 20 14
f 1 14 9
f 1 9 4
f 1 4 2
f 2 5 13
f 2 13 6
f 2 6 3
f 2 4 7
f 2 7 10
f 2 10 5
f 3 6 8
f 4 9 7
f 5 10 11
f 5 11 12
f 5 12 13
f 6 13 19
f 6 19 27
f 6 27 29
f 6 29 22
f 6 22 16
f 6 16 8
f 7 9 14
f 7 14 15
f 7 15 17
f 7 17 10
f 10 17 18
f 10 18 11
f 11 18 25
f 11 25 24
f 11 24 26
f 11 26 31
f 11 31 34
f 11 34 40
f 11 40 46
f 11 46 50
f 11 50 54
f 11 54 58
f 11 58 62
f 11 62 66
f 11 66 70
f 11 70 74
f 11 74 79
f 11 79 83
f 11 83 89
f 11 89 94
f 11 94 100
f 11 100 107
f 11 107 112
f 11 112 117
f 11 117 122
f 11 122 126
f 11 126 130
f 11 130 135
f 11 135 141
f 11 141 147
f 11 147 152
f 11 152 159
f 11 159 162
f 11 162 161
f 11 161 165
f 11 165 164
f 11 164 163
f 11 163 155
f 11 155 148
f 11 148 142
f 11 142 137
f 11 137 136
f 11 136 131
f 11 131 127
f 11 127 123
f 11 123 118
f 11 118 113
f 11 113 108
f 11 108 103
f 11 103 102
f 11 102 101
f 11 101 96
f 11 96 95
f 11 95 90
f 11 90 84
f 11 84 80
f 11 80 75
f 11 75 71
f 11 71 67
f 11 67 63
f 11 63 59
f 11 59 55
f 11 55 51
f 11 51 47
f 11 47 42
f 11 42 37
f 11 37 32
f 11 32 27
f 11 27 19
f 11 19 12
f 12 19 13
f 14 20 15
f 15 20 21
f 15 21 26
f 15 26 17
f 16 22 23
f 17 24 25
f 17 25 18
f 17 26 24
f 21 28 26
f 22 29 32
f 22 32 37
f 22 37 35
f 22 35 30
f 22 30 23
f 26 28 31
f 27 32 29
f 28 33 34
f 28 34 31
f 30 35 41
f 30 41 43
f 30 43 36
f 33 38 39
f 33 39 34
f 34 39 40
f 35 37 42
f 35 42 41
f 36 43 42
f 36 42 44
f 38 45 39
f 39 45 46
f 39 46 40
f 41 42 43
f 42 47 48
f 42 48 44
f 45 49 46
f 46 49 50
f 47 51 52
f 47 52 48
f 49 53 50
f 50 53 54
f 51 55 52
f 52 55 56
f 53 57 58
f 53 58 54
f 55 59 60
f 55 60 56
f 57 61 58
f 58 61 62
f 59 63 64
f 59 64 60
f 61 65 62
f 62 65 66
f 63 67 68
f 63 68 64
f 65 69 66
f 66 69 70
f 67 71 72
f 67 72 68
f 69 73 70
f 70 73 74
f 71 75 76
f 71 76 72
f 73 77 74
f 74 77 78
f 74 78 79
f 75 80 87
f 75 87 81
f 75 81 76
f 78 82 83
f 78 83 79
f 80 84 85
f 80 85 86
f 80 86 87
f 82 88 83
f 83 88 89
f 84 90 85
f 85 90 91
f 85 91 92
f 85 92 86
f 88 93 89
f 89 93 94
f 90 95 91
f 91 95 96
f 91 96 97
f 91 97 98
f 91 98 92
f 93 99 94
f 94 99 100
f 96 101 97
f 97 101 102
f 97 102 103
f 97 103 104
f 97 104 105
f 97 105 98
f 99 106 100
f 100 106 107
f 103 108 104
f 104 108 109
f 104 109 105
f 106 110 107
f 107 110 111
f 107 111 112
f 108 113 114
f 108 114 115
f 108 115 109
f 111 116 112
f 112 116 117
f 113 118 119
f 113 119 120
f 113 120 114
f 116 121 122
f 116 122 117
f 118 123 124
f 118 124 119
f 121 125 122
f 122 125 126
f 123 127 128
f 123 128 124
f 125 129 126
f 126 129 134
f 126 134 130
f 127 131 132
f 127 132 133
f 127 133 128
f 130 134 139
f 130 139 135
f 131 136 132
f 132 136 137
f 132 137 138
f 132 138 133
f 135 139 144
f 135 144 140
f 135 140 141
f 137 142 138
f 138 142 143
f 140 144 145
f 140 145 146
f 140 146 147
f 140 147 141
f 142 148 149
f 142 149 143
f 143 149 156
f 143 156 150
f 145 151 146
f 146 152 147
f 146 151 158
f 146 158 153
f 146 153 154
f 146 154 152
f 148 155 149
f 149 155 156
f 150 156 160
f 150 160 157
f 152 154 159
f 153 160 154
f 153 158 157
f 153 157 160
f 154 160 161
f 154 161 162
f 154 162 159
f 155 163 156
f 156 163 164
f 156 164 160
f 160 164 165
f 160 165 161

