# https://github.com/mikedh/trimesh
v -0.05786991 0.01063606 0.07105352
v -0.05786991 0.01123123 0.07074326
v -0.05826959 0.01119257 0.07051592
v -0.05912424 0.01063606 0.07027520
v -0.05786991 0.01063606 0.05170788
v -0.05786991 0.01190199 0.07036614
v -0.05786991 0.01209618 0.07025648
v -0.05872298 0.01162308 0.06997832
v -0.05983671 0.01127641 0.06945409
v -0.05918427 0.01063606 0.07023508
v -0.06049073 0.01063606 0.04372944
v -0.05894731 0.01507374 0.04372944
v -0.05786991 0.01507374 0.05245410
v -0.05786991 0.01234423 0.07009600
v -0.05950180 0.01244719 0.06896998
v -0.06051285 0.01193978 0.06863298
v -0.06089515 0.01092974 0.06892719
v -0.06000417 0.01063606 0.06967608
v -0.07400872 0.01063606 0.04372944
v -0.07163908 0.01507374 0.04372944
v -0.05786991 0.01507374 0.06806595
v -0.05786991 0.01297155 0.06966806
v -0.05897258 0.01345680 0.06862762
v -0.06100415 0.01282037 0.06754440
v -0.06210366 0.01201885 0.06716728
v -0.06149861 0.01147408 0.06806595
v -0.05994887 0.01289900 0.06833342
v -0.06065976 0.01362189 0.06723414
v -0.06129009 0.01063606 0.06876403
v -0.06101521 0.01063606 0.06898335
v -0.07394869 0.01063606 0.04422157
v -0.07354111 0.01130465 0.04522456
v -0.07371962 0.01130465 0.04372944
v -0.07210985 0.01433522 0.04372944
v -0.07150164 0.01507374 0.04491430
v -0.05837070 0.01507374 0.06776105
v -0.05786991 0.01464844 0.06842970
v -0.05786991 0.01392555 0.06898870
v -0.05796312 0.01389601 0.06895126
v -0.05841967 0.01437475 0.06828795
v -0.05918427 0.01507374 0.06724751
v -0.06176244 0.01282037 0.06685969
v -0.06366762 0.01208401 0.06569622
v -0.06293935 0.01143020 0.06679015
v -0.06246385 0.01100837 0.06749893
v -0.06176244 0.01063606 0.06835214
v -0.05973561 0.01421010 0.06749090
v -0.05926484 0.01507374 0.06717797
v -0.06015740 0.01463193 0.06678748
v -0.06173716 0.01468841 0.06532177
v -0.06222688 0.01367793 0.06576577
v -0.07382231 0.01063606 0.04522456
v -0.07372910 0.01063606 0.04592799
v -0.07333890 0.01130465 0.04674108
v -0.07286971 0.01230470 0.04674108
v -0.07297240 0.01250106 0.04522456
v -0.07371172 0.01132159 0.04372944
v -0.07266119 0.01342857 0.04372944
v -0.07192660 0.01433522 0.04522456
v -0.07146373 0.01507374 0.04522456
v -0.06323793 0.01309362 0.06530038
v -0.06469762 0.01063606 0.06566948
v -0.06394566 0.01130465 0.06595032
v -0.06376715 0.01372441 0.06429204
v -0.06402149 0.01268135 0.06484569
v -0.06514628 0.01203101 0.06413959
v -0.06478451 0.01143758 0.06499280
v -0.06496776 0.01063606 0.06539132
v -0.06296305 0.01063606 0.06726891
v -0.06077982 0.01507374 0.06583263
v -0.06095992 0.01507374 0.06567215
v -0.06236906 0.01507374 0.06439100
v -0.06276558 0.01420663 0.06480557
v -0.07361852 0.01063606 0.04675177
v -0.07334048 0.01063606 0.04824155
v -0.07303243 0.01136503 0.04822817
v -0.07278914 0.01214918 0.04770395
v -0.07245581 0.01306191 0.04674108
v -0.07256956 0.01325827 0.04522456
v -0.07306244 0.01267136 0.04372944
v -0.07134525 0.01507374 0.04610986
v -0.06262656 0.01507374 0.06413691
v -0.06330428 0.01473489 0.06378119
v -0.06380664 0.01507374 0.06282366
v -0.06426161 0.01416145 0.06322219
v -0.06517471 0.01358843 0.06266051
v -0.06485876 0.01282037 0.06377584
v -0.06545749 0.01102097 0.06453276
v -0.06624579 0.01289335 0.06194638
v -0.06694246 0.01243764 0.06147565
v -0.06655068 0.01185333 0.06248666
v -0.06600409 0.01143715 0.06351105
v -0.06558703 0.01063606 0.06463707
v -0.07278914 0.01063606 0.05071291
v -0.07278441 0.01064258 0.05072094
v -0.07267067 0.01191067 0.04871228
v -0.07192186 0.01282037 0.04977144
v -0.07234365 0.01272088 0.04822817
v -0.07163118 0.01443687 0.04673038
v -0.07153956 0.01407456 0.04825492
v -0.07131839 0.01507374 0.04628104
v -0.06312419 0.01507374 0.06361001
v -0.06402465 0.01507374 0.06255085
v -0.06514944 0.01507374 0.06114132
v -0.06547803 0.01395683 0.06189289
v -0.06658228 0.01344768 0.06099689
v -0.06686031 0.01084329 0.06288251
v -0.06589350 0.01063606 0.06425727
v -0.06795350 0.01165871 0.06073477
v -0.06825050 0.01064823 0.06121621
v -0.06740691 0.01125078 0.06185010
v -0.07257904 0.01063606 0.05157682
v -0.07238947 0.01121038 0.05125051
v -0.07254428 0.01164133 0.04977144
v -0.07154430 0.01285947 0.05120237
v -0.07125678 0.01362927 0.05064337
v -0.07136104 0.01379696 0.04977144
v -0.07116989 0.01500988 0.04722786
v -0.07105299 0.01483264 0.04825492
v -0.07087606 0.01455460 0.04977144
v -0.07113356 0.01507374 0.04718507
v -0.06516997 0.01507374 0.06111457
v -0.06605464 0.01449335 0.06055557
v -0.06653804 0.01491431 0.05937338
v -0.06691403 0.01390383 0.05998588
v -0.06743377 0.01280125 0.06036032
v -0.06706568 0.01063606 0.06276215
v -0.06825208 0.01215482 0.05972376
v -0.06846377 0.01121385 0.06028811
v -0.06981762 0.01074554 0.05829818
v -0.06983816 0.01063606 0.05835435
v -0.06826314 0.01063606 0.06120284
v -0.06825366 0.01063606 0.06121888
v -0.07243844 0.01063606 0.05203151
v -0.07141160 0.01238116 0.05253969
v -0.07111144 0.01339120 0.05165171
v -0.07070860 0.01421488 0.05120237
v -0.07078285 0.01507374 0.04869356
v -0.07110829 0.01507374 0.04730008
v -0.07052377 0.01507374 0.04977144
v -0.07025838 0.01507374 0.05073698
v -0.06575448 0.01507374 0.06030148
v -0.06626633 0.01507374 0.05957398
v -0.06644326 0.01507374 0.05930117
v -0.06714783 0.01507374 0.05804676
v -0.06800564 0.01507374 0.05651687
v -0.06811622 0.01499164 0.05644198
v -0.06786662 0.01464887 0.05734869
v -0.06842269 0.01389123 0.05734869
v -0.06737374 0.01425311 0.05874752
v -0.06820469 0.01359191 0.05812165
v -0.06792349 0.01316487 0.05913267
v -0.06954432 0.01175602 0.05780605
v -0.06918572 0.01277910 0.05732194
v -0.06982078 0.01224605 0.05679771
v -0.07006248 0.01127250 0.05732194
v -0.06992663 0.01063606 0.05818852
v -0.07213039 0.01063606 0.05290879
v -0.07174177 0.01145235 0.05294891
v -0.07122203 0.01205577 0.05355070
v -0.07097242 0.01285947 0.05294891
v -0.06979392 0.01507374 0.05223211
v -0.06984290 0.01507374 0.05208768
v -0.06986501 0.01381303 0.05431832
v -0.07009408 0.01436476 0.05272691
v -0.07011146 0.01507374 0.05126656
v -0.06807673 0.01507374 0.05638849
v -0.06850168 0.01507374 0.05551121
v -0.06893296 0.01429090 0.05576797
v -0.06949851 0.01325610 0.05610498
v -0.06996612 0.01277910 0.05569308
v -0.07107669 0.01176340 0.05431832
v -0.07078917 0.01122080 0.05577065
v -0.07096768 0.01063606 0.05604614
v -0.07069281 0.01063606 0.05665595
v -0.07037370 0.01063606 0.05731124
v -0.07128680 0.01063606 0.05524107
v -0.07128205 0.01065996 0.05522502
v -0.07145109 0.01100533 0.05431832
v -0.06971809 0.01359017 0.05509664
v -0.06956802 0.01488911 0.05318160
v -0.06932158 0.01507374 0.05347046
v -0.06935317 0.01457111 0.05431832
v -0.06868967 0.01507374 0.05506722
v -0.06898983 0.01507374 0.05431832
f 1 2 3
f 1 3 4
f 1 4 10
f 1 10 18
f 1 18 30
f 1 30 29
f 1 29 46
f 1 46 69
f 1 69 62
f 1 62 68
f 1 68 93
f 1 93 108
f 1 108 127
f 1 127 133
f 1 133 132
f 1 132 131
f 1 131 157
f 1 157 176
f 1 176 175
f 1 175 174
f 1 174 177
f 1 177 158
f 1 158 134
f 1 134 112
f 1 112 94
f 1 94 75
f 1 75 74
f 1 74 53
f 1 53 52
f 1 52 31
f 1 31 19
f 1 19 11
f 1 11 5
f 1 5 13
f 1 13 21
f 1 21 37
f 1 37 38
f 1 38 22
f 1 22 14
f 1 14 7
f 1 7 6
f 1 6 2
f 2 6 3
f 3 6 7
f 3 7 8
f 3 8 9
f 3 9 4
f 4 9 10
f 5 11 12
f 5 12 13
f 7 14 15
f 7 15 16
f 7 16 8
f 8 16 9
f 9 16 17
f 9 17 10
f 10 17 18
f 11 19 33
f 11 33 57
f 11 57 80
f 11 80 58
f 11 58 34
f 11 34 20
f 11 20 12
f 12 20 35
f 12 35 60
f 12 60 81
f 12 81 101
f 12 101 121
f 12 121 139
f 12 139 138
f 12 138 140
f 12 140 141
f 12 141 166
f 12 166 163
f 12 163 162
f 12 162 182
f 12 182 185
f 12 185 184
f 12 184 168
f 12 168 167
f 12 167 146
f 12 146 145
f 12 145 144
f 12 144 143
f 12 143 142
f 12 142 122
f 12 122 104
f 12 104 103
f 12 103 84
f 12 84 102
f 12 102 82
f 12 82 72
f 12 72 71
f 12 71 70
f 12 70 48
f 12 48 41
f 12 41 36
f 12 36 21
f 12 21 13
f 14 22 23
f 14 23 15
f 15 23 16
f 16 24 25
f 16 25 26
f 16 26 17
f 16 23 27
f 16 27 28
f 16 28 24
f 17 26 29
f 17 29 30
f 17 30 18
f 19 31 32
f 19 32 33
f 20 34 35
f 21 36 37
f 22 38 39
f 22 39 23
f 23 39 40
f 23 40 41
f 23 41 27
f 24 28 42
f 24 42 25
f 25 42 43
f 25 43 44
f 25 44 45
f 25 45 26
f 26 45 46
f 26 46 29
f 27 41 47
f 27 47 28
f 28 48 49
f 28 49 50
f 28 50 51
f 28 51 42
f 28 47 41
f 28 41 48
f 31 52 32
f 32 52 53
f 32 53 54
f 32 54 55
f 32 55 56
f 32 56 57
f 32 57 33
f 34 58 59
f 34 59 60
f 34 60 35
f 36 41 37
f 37 41 40
f 37 40 38
f 38 40 39
f 42 51 61
f 42 61 43
f 43 62 63
f 43 63 44
f 43 61 64
f 43 64 65
f 43 65 66
f 43 66 67
f 43 67 68
f 43 68 62
f 44 63 45
f 45 69 46
f 45 63 69
f 48 70 49
f 49 70 71
f 49 71 50
f 50 72 73
f 50 73 51
f 50 71 72
f 51 73 64
f 51 64 61
f 53 74 54
f 54 74 75
f 54 75 76
f 54 76 77
f 54 77 55
f 55 77 78
f 55 78 79
f 55 79 56
f 56 79 58
f 56 58 80
f 56 80 57
f 58 79 59
f 59 79 78
f 59 78 81
f 59 81 60
f 62 69 63
f 64 73 72
f 64 72 82
f 64 82 83
f 64 83 84
f 64 84 85
f 64 85 86
f 64 86 87
f 64 87 66
f 64 66 65
f 66 88 68
f 66 68 67
f 66 87 89
f 66 89 90
f 66 90 91
f 66 91 92
f 66 92 88
f 68 88 93
f 75 94 76
f 76 94 95
f 76 95 96
f 76 96 77
f 77 96 97
f 77 97 98
f 77 98 78
f 78 99 81
f 78 98 100
f 78 100 99
f 81 99 101
f 82 102 83
f 83 102 84
f 84 103 85
f 85 103 104
f 85 104 105
f 85 105 86
f 86 105 106
f 86 106 89
f 86 89 87
f 88 92 107
f 88 107 108
f 88 108 93
f 89 106 90
f 90 106 109
f 90 109 110
f 90 110 111
f 90 111 91
f 91 111 107
f 91 107 92
f 94 112 95
f 95 112 113
f 95 113 114
f 95 114 96
f 96 114 115
f 96 115 97
f 97 115 116
f 97 116 98
f 98 116 117
f 98 117 100
f 99 100 118
f 99 118 101
f 100 119 118
f 100 117 120
f 100 120 119
f 101 118 121
f 104 122 106
f 104 106 105
f 106 122 123
f 106 123 124
f 106 124 125
f 106 125 126
f 106 126 109
f 107 111 110
f 107 110 127
f 107 127 108
f 109 126 128
f 109 128 129
f 109 129 110
f 110 129 130
f 110 130 131
f 110 131 132
f 110 132 133
f 110 133 127
f 112 134 135
f 112 135 113
f 113 115 114
f 113 135 115
f 115 136 116
f 115 135 136
f 116 120 117
f 116 136 137
f 116 137 120
f 118 119 138
f 118 138 139
f 118 139 121
f 119 120 140
f 119 140 138
f 120 137 141
f 120 141 140
f 122 142 123
f 123 142 143
f 123 143 124
f 124 143 144
f 124 144 145
f 124 145 146
f 124 146 147
f 124 147 148
f 124 148 149
f 124 149 150
f 124 150 125
f 125 150 151
f 125 151 152
f 125 152 128
f 125 128 126
f 128 153 129
f 128 152 154
f 128 154 155
f 128 155 153
f 129 153 130
f 130 153 156
f 130 156 157
f 130 157 131
f 134 158 159
f 134 159 135
f 135 159 160
f 135 160 161
f 135 161 136
f 136 162 163
f 136 163 137
f 136 161 164
f 136 164 165
f 136 165 162
f 137 163 166
f 137 166 141
f 146 167 147
f 147 167 168
f 147 168 169
f 147 169 170
f 147 170 149
f 147 149 148
f 149 151 150
f 149 170 155
f 149 155 154
f 149 154 151
f 151 154 152
f 153 155 156
f 155 170 171
f 155 171 160
f 155 160 172
f 155 172 173
f 155 173 174
f 155 174 175
f 155 175 156
f 156 175 176
f 156 176 157
f 158 177 178
f 158 178 159
f 159 179 160
f 159 178 179
f 160 171 180
f 160 180 161
f 160 179 178
f 160 178 172
f 161 180 164
f 162 165 181
f 162 181 182
f 164 180 183
f 164 183 165
f 165 183 181
f 168 184 180
f 168 180 169
f 169 180 170
f 170 180 171
f 172 178 173
f 173 178 174
f 174 178 177
f 180 184 183
f 181 183 182
f 182 183 185
f 183 184 185

