# https://github.com/mikedh/trimesh
v -0.00983369 0.01735207 0.00137373
v -0.00530288 0.01151981 0.00137373
v -0.01134853 0.01735207 0.00141396
v 0.00833411 0.01735207 0.00137373
v -0.00551879 0.01151981 0.00138079
v 0.00530100 0.01151981 0.00137373
v -0.01298675 0.01735207 0.00167515
v 0.00984895 0.01735207 0.00137443
v 0.00833411 0.01585061 0.00137373
v -0.00684514 0.01151981 0.00164480
v 0.01136379 0.01735207 0.00141679
v 0.01298487 0.01735207 0.00167515
v 0.00684668 0.01151981 0.00164480
v -0.01239726 0.01642608 0.00186645
v -0.01393952 0.01735207 0.00222082
v -0.00703363 0.01151981 0.00169139
v -0.00720842 0.01151981 0.00176127
v 0.01439346 0.01735207 0.00273755
v 0.01239538 0.01642608 0.00186645
v 0.00720654 0.01151981 0.00176127
v -0.00773622 0.01182581 0.00188339
v -0.01443304 0.01735207 0.00275943
v -0.00761284 0.01151981 0.00217282
v 0.01445173 0.01735207 0.00279119
v 0.00773777 0.01182581 0.00188339
v 0.00780288 0.01151981 0.00279119
v -0.01445361 0.01735207 0.00279119
v -0.00780133 0.01151981 0.00279119
v -0.01750385 0.01735207 0.00858460
v 0.01750882 0.01735207 0.00858460
v 0.00920462 0.01151981 0.00858460
v -0.00919622 0.01151981 0.00858460
f 1 2 3
f 1 3 7
f 1 7 15
f 1 15 22
f 1 22 27
f 1 27 29
f 1 29 30
f 1 30 24
f 1 24 18
f 1 18 12
f 1 12 11
f 1 11 8
f 1 8 4
f 1 4 9
f 1 9 6
f 1 6 2
f 2 5 3
f 2 6 13
f 2 13 20
f 2 20 26
f 2 26 31
f 2 31 32
f 2 32 28
f 2 28 23
f 2 23 17
f 2 17 16
f 2 16 10
f 2 10 5
f 3 5 7
f 4 8 9
f 5 10 7
f 6 9 8
f 6 8 11
f 6 11 12
f 6 12 13
f 7 14 15
f 7 10 16
f 7 16 17
f 7 17 14
f 12 18 19
f 12 19 20
f 12 20 13
f 14 17 21
f 14 21 15
f 15 21 22
f 17 23 21
f 18 24 25
f 18 25 19
f 19 25 20
f 20 25 26
f 21 23 22
f 22 23 27
f 23 28 29
f 23 29 27
f 24 30 25
f 25 30 26
f 26 30 31
f 28 32 29
f 29 32 31
f 29 31 30

