# https://github.com/mikedh/trimesh
v 0.05428399 -0.00008936 0.07538846
v 0.05379796 -0.00008936 0.07560237
v 0.05428399 -0.00081926 0.07538846
v 0.05428399 -0.00008936 0.03905041
v 0.05379796 -0.00081926 0.07560237
v 0.05245328 -0.00008936 0.07611301
v 0.05428399 -0.00177196 0.07531945
v 0.05428399 -0.00015938 0.03893310
v 0.04699353 -0.00008936 0.01714822
v 0.05379796 -0.00233531 0.07549197
v 0.05245004 -0.00081926 0.07611301
v 0.05206121 -0.00008936 0.07623032
v 0.05428399 -0.00233531 0.07527805
v 0.05428399 -0.00027183 0.03874679
v 0.05428399 -0.00733221 0.02719535
v 0.05428399 -0.01036854 0.02230979
v 0.05428399 -0.01092658 0.02146103
v 0.04685420 -0.00008936 0.01676869
v 0.05428399 -0.00148870 0.03674565
v 0.05428399 -0.00560928 0.03001076
v 0.05217138 -0.00232364 0.07609231
v 0.05228155 -0.00385029 0.07587149
v 0.05379796 -0.00385029 0.07530565
v 0.05159462 -0.00181122 0.07630622
v 0.05121552 -0.00008936 0.07647874
v 0.04925195 -0.00081926 0.07704458
v 0.05428399 -0.00385029 0.07508484
v 0.04898950 -0.01092658 0.01331154
v 0.04588214 -0.00008936 0.01498836
v 0.04632929 -0.00008936 0.01569911
v 0.04671163 -0.00008936 0.01640987
v 0.05428399 -0.01092658 0.07276627
v 0.05144233 -0.00282121 0.07626482
v 0.05228155 -0.00536633 0.07558167
v 0.05120904 -0.00385029 0.07619581
v 0.05017541 -0.00482315 0.07633383
v 0.05381740 -0.00527297 0.07501583
v 0.05428399 -0.00493773 0.07488472
v 0.04925195 -0.00233531 0.07694107
v 0.04925195 -0.00008936 0.07704458
v 0.04846782 -0.00008936 0.07724469
v 0.04773554 -0.00081926 0.07743101
v 0.04852615 -0.01092658 0.01260079
v 0.04525678 -0.00008936 0.01430521
v 0.04783599 -0.01092658 0.01177273
v 0.05428399 -0.01029003 0.07308369
v 0.05319204 -0.01080669 0.07332521
v 0.05331193 -0.01092658 0.07320790
v 0.05045083 -0.00385029 0.07641663
v 0.04925195 -0.00385029 0.07676166
v 0.05071652 -0.00534299 0.07606471
v 0.05076513 -0.00688026 0.07567138
v 0.05240792 -0.00699802 0.07511934
v 0.05332490 -0.00657153 0.07489852
v 0.04926491 -0.00534299 0.07647874
v 0.05428399 -0.00584693 0.07466391
v 0.04773554 -0.00233531 0.07732750
v 0.04773554 -0.00385029 0.07715498
v 0.04773554 -0.00008936 0.07743101
v 0.04621912 -0.00233531 0.07761732
v 0.04623856 -0.00008936 0.07770703
v 0.04559376 -0.00052964 0.07782434
v 0.04614784 -0.00094870 0.07772083
v 0.04497812 -0.00008936 0.01414650
v 0.04708425 -0.01092658 0.01102747
v 0.04674728 -0.01092658 0.01077906
v 0.04626124 -0.01092658 0.01044783
v 0.05428399 -0.00955376 0.07340802
v 0.05373640 -0.00985612 0.07351842
v 0.05297171 -0.01092658 0.07335971
v 0.05228155 -0.00991128 0.07411186
v 0.04773554 -0.00536633 0.07687897
v 0.04977686 -0.00583208 0.07622342
v 0.04876592 -0.00641452 0.07636833
v 0.04926491 -0.00690360 0.07609231
v 0.04827665 -0.00742451 0.07623032
v 0.05089150 -0.00852467 0.07512623
v 0.05198344 -0.00810561 0.07493302
v 0.05299439 -0.00758258 0.07475361
v 0.05381740 -0.00699802 0.07456040
v 0.05428399 -0.00696195 0.07436029
v 0.04621912 -0.00385029 0.07744480
v 0.04621912 -0.00536633 0.07718259
v 0.04545119 -0.00154068 0.07780363
v 0.04318953 -0.00233531 0.07808655
v 0.04416159 -0.00334636 0.07783813
v 0.04585622 -0.00008936 0.07777603
v 0.04558404 -0.00008936 0.07782434
v 0.04318953 -0.00008936 0.07819006
v 0.04318953 -0.00081926 0.07819006
v 0.04457310 -0.00008936 0.01393259
v 0.04505265 -0.01092658 0.00979228
v 0.04500081 -0.01092658 0.00976468
v 0.05428399 -0.00836553 0.07389105
v 0.05379796 -0.00839630 0.07409806
v 0.05220702 -0.01092658 0.07367023
v 0.05240792 -0.00852467 0.07462940
v 0.05147798 -0.00911560 0.07476051
v 0.04621912 -0.00688026 0.07682376
v 0.04775822 -0.00690360 0.07650634
v 0.04726571 -0.00787751 0.07636143
v 0.04775822 -0.00838781 0.07605781
v 0.04925195 -0.00839630 0.07563687
v 0.04373389 -0.00435635 0.07776913
v 0.04272294 -0.00481784 0.07784504
v 0.04321221 -0.00533981 0.07765872
v 0.04167311 -0.00233531 0.07826597
v 0.04167311 -0.00385029 0.07810035
v 0.04321221 -0.00385135 0.07791404
v 0.04240540 -0.00008936 0.07827976
v 0.04167311 -0.00081926 0.07836257
v 0.04318953 -0.00008936 0.01349785
v 0.04423612 -0.01092658 0.00941966
v 0.04324786 -0.01092658 0.00905393
v 0.05080725 -0.01092658 0.07416017
v 0.05089150 -0.00994842 0.07458110
v 0.05046703 -0.00946782 0.07490542
v 0.04470595 -0.00688026 0.07705838
v 0.04621912 -0.00818306 0.07645804
v 0.04621912 -0.00894055 0.07621652
v 0.04773554 -0.00991128 0.07548506
v 0.04167311 -0.00507777 0.07790024
v 0.04167311 -0.00583420 0.07774153
v 0.04318953 -0.00688026 0.07729300
v 0.04015670 -0.00233531 0.07836947
v 0.04015670 -0.00385029 0.07820386
v 0.04167311 -0.00008936 0.07836257
v 0.04088899 -0.00008936 0.07841778
v 0.04015670 -0.00081926 0.07846608
v 0.04245724 -0.00008936 0.01343575
v 0.04167311 -0.01092658 0.00862610
v 0.04011782 -0.01092658 0.00838458
v 0.04971531 -0.01047781 0.07469151
v 0.04946581 -0.01092658 0.07455350
v 0.04318953 -0.00839630 0.07685136
v 0.04483232 -0.00853634 0.07656154
v 0.04621912 -0.00991128 0.07583009
v 0.04542203 -0.00913470 0.07627862
v 0.04680236 -0.01092658 0.07525045
v 0.04773554 -0.01092658 0.07503653
v 0.04870436 -0.01079715 0.07482951
v 0.04061681 -0.00603365 0.07778293
v 0.04013078 -0.00546394 0.07793474
v 0.04167311 -0.00688026 0.07747931
v 0.04167311 -0.00839630 0.07704458
v 0.03864352 -0.00233531 0.07846608
v 0.03864352 -0.00385029 0.07830047
v 0.04015670 -0.00008936 0.07846608
v 0.03864352 -0.00081926 0.07856269
v 0.04167311 -0.00008936 0.01338745
v 0.03869861 -0.01092658 0.00829488
v 0.04858447 -0.01092658 0.07480191
v 0.04318953 -0.00955906 0.07645114
v 0.04474483 -0.01092658 0.07562997
v 0.04520494 -0.01092658 0.07555407
v 0.04623856 -0.01092658 0.07537466
v 0.04483232 -0.00986566 0.07607850
v 0.04793643 -0.01092658 0.07498133
v 0.03960586 -0.00617369 0.07781744
v 0.04013078 -0.00675931 0.07763112
v 0.03864352 -0.00536633 0.07804515
v 0.04015670 -0.00839630 0.07716879
v 0.04015670 -0.00991128 0.07664435
v 0.04155647 -0.00997812 0.07649944
v 0.03713035 -0.00233531 0.07855579
v 0.03713035 -0.00385029 0.07839017
v 0.03864352 -0.00008936 0.07856269
v 0.03785939 -0.00008936 0.07861099
v 0.03713035 -0.00081926 0.07865240
v 0.04094407 -0.00008936 0.01345645
v 0.03864352 -0.01092658 0.00829488
v 0.03713035 -0.01092658 0.00832938
v 0.04198417 -0.01052767 0.07623032
v 0.04318953 -0.01031655 0.07614061
v 0.04318953 -0.01092658 0.07587149
v 0.03713035 -0.00647393 0.07789334
v 0.03864352 -0.00705000 0.07765182
v 0.03713035 -0.00536633 0.07813486
v 0.03713035 -0.00723142 0.07769323
v 0.03713035 -0.00839630 0.07735510
v 0.03864352 -0.00991128 0.07674096
v 0.04097323 -0.01068575 0.07629242
v 0.03561393 -0.00233531 0.07860409
v 0.03561393 -0.00385029 0.07844538
v 0.03713035 -0.00008936 0.07865240
v 0.03634622 -0.00008936 0.07868000
v 0.03561393 -0.00081926 0.07870069
v 0.04015670 -0.00008936 0.01353236
v 0.03561393 -0.01092658 0.00850189
v 0.04120653 -0.01092658 0.07615441
v 0.04175736 -0.01092658 0.07607850
v 0.03561393 -0.00658426 0.07792094
v 0.03561393 -0.00734175 0.07772773
v 0.03561393 -0.00536633 0.07819006
v 0.03561393 -0.00839630 0.07741030
v 0.03561393 -0.00991128 0.07689277
v 0.03713035 -0.00991128 0.07683066
v 0.03713035 -0.01092658 0.07643043
v 0.04015670 -0.01074516 0.07632002
v 0.04073345 -0.01092658 0.07620272
v 0.03410075 -0.00233531 0.07863169
v 0.03410075 -0.00385029 0.07846608
v 0.03410075 -0.00536633 0.07821766
v 0.03561393 -0.00008936 0.07870069
v 0.03410075 -0.00081926 0.07872830
v 0.03857872 -0.00008936 0.01385668
v 0.03545516 -0.01092658 0.00852949
v 0.03410075 -0.01092658 0.00879171
v 0.03258434 -0.00667444 0.07794854
v 0.03258434 -0.00743299 0.07774843
v 0.03258434 -0.00839630 0.07745861
v 0.03410075 -0.00991128 0.07692037
v 0.03427572 -0.01092658 0.07651324
v 0.03575326 -0.01092658 0.07648564
v 0.03106792 -0.00233531 0.07867309
v 0.03106792 -0.00385029 0.07850748
v 0.03106792 -0.00536633 0.07825907
v 0.03410075 -0.00008936 0.07872830
v 0.03331339 -0.00008936 0.07874210
v 0.03180021 -0.00008936 0.07876280
v 0.03106792 -0.00081926 0.07876971
v 0.03769414 -0.00008936 0.01409820
v 0.03372165 -0.01092658 0.00888832
v 0.03251629 -0.01092658 0.00920574
v 0.03106792 -0.00671157 0.07795544
v 0.03106792 -0.00746906 0.07775533
v 0.03106792 -0.00839630 0.07747241
v 0.03258434 -0.00991128 0.07694107
v 0.03278523 -0.01092658 0.07653394
v 0.02955151 -0.00233531 0.07868000
v 0.02955151 -0.00385029 0.07851438
v 0.02955151 -0.00536633 0.07826597
v 0.02955151 -0.00672430 0.07796234
v 0.03106792 -0.00008936 0.07876971
v 0.02955151 -0.00081926 0.07877660
v 0.03740900 -0.00008936 0.01418100
v 0.02118205 -0.01092658 0.01294581
v 0.02118205 -0.01092552 0.01294581
v 0.02118205 -0.00008936 0.01900445
v 0.02955151 -0.00748179 0.07776223
v 0.02803833 -0.00839630 0.07748621
v 0.03106792 -0.00991128 0.07695487
v 0.03106792 -0.01092658 0.07655464
v 0.02500550 -0.00233531 0.07868690
v 0.02118205 -0.00312781 0.07859719
v 0.02118205 -0.00385029 0.07851438
v 0.02118205 -0.00464279 0.07839017
v 0.02500550 -0.00536633 0.07827287
v 0.02652191 -0.00673703 0.07796234
v 0.02652191 -0.00749559 0.07776223
v 0.02955151 -0.00008936 0.07877660
v 0.02118205 -0.00081926 0.07877660
v 0.02118205 -0.01092658 0.07656154
v 0.02118205 -0.00008936 0.07826597
v 0.02118205 -0.00796769 0.07762422
v 0.02118205 -0.00839630 0.07748621
v 0.02118205 -0.00918774 0.07721709
v 0.02652191 -0.00991128 0.07696867
v 0.02955151 -0.00991128 0.07696177
v 0.02955151 -0.01092658 0.07656154
v 0.02349232 -0.00233531 0.07868690
v 0.02118205 -0.00233531 0.07868000
v 0.02118205 -0.00536633 0.07827287
v 0.02500550 -0.00674128 0.07796234
v 0.02500550 -0.00749877 0.07776223
v 0.02119178 -0.00008936 0.07877660
v 0.02118205 -0.00009678 0.07877660
v 0.02118205 -0.00161177 0.07872830
v 0.02118205 -0.00991128 0.07696867
v 0.02118205 -0.00749877 0.07776223
v 0.02118205 -0.00674128 0.07796234
v 0.02118205 -0.00713700 0.07785883
f 1 2 5
f 1 5 3
f 1 3 7
f 1 7 13
f 1 13 27
f 1 27 38
f 1 38 56
f 1 56 81
f 1 81 94
f 1 94 68
f 1 68 46
f 1 46 32
f 1 32 17
f 1 17 16
f 1 16 15
f 1 15 20
f 1 20 19
f 1 19 14
f 1 14 8
f 1 8 4
f 1 4 9
f 1 9 18
f 1 18 31
f 1 31 30
f 1 30 29
f 1 29 44
f 1 44 64
f 1 64 91
f 1 91 112
f 1 112 130
f 1 130 150
f 1 150 170
f 1 170 188
f 1 188 206
f 1 206 222
f 1 222 236
f 1 236 239
f 1 239 254
f 1 254 266
f 1 266 251
f 1 251 234
f 1 234 220
f 1 220 219
f 1 219 218
f 1 218 204
f 1 204 186
f 1 186 185
f 1 185 168
f 1 168 167
f 1 167 148
f 1 148 128
f 1 128 127
f 1 127 110
f 1 110 89
f 1 89 88
f 1 88 87
f 1 87 61
f 1 61 59
f 1 59 41
f 1 41 40
f 1 40 25
f 1 25 12
f 1 12 6
f 1 6 2
f 2 6 5
f 3 5 7
f 4 8 9
f 5 10 7
f 5 6 11
f 5 11 10
f 6 12 11
f 7 10 13
f 8 14 9
f 9 15 16
f 9 16 17
f 9 17 18
f 9 14 19
f 9 19 20
f 9 20 15
f 10 11 21
f 10 21 22
f 10 22 23
f 10 23 13
f 11 24 21
f 11 12 25
f 11 25 26
f 11 26 24
f 13 23 27
f 17 28 29
f 17 29 30
f 17 30 31
f 17 31 18
f 17 32 48
f 17 48 70
f 17 70 96
f 17 96 115
f 17 115 134
f 17 134 152
f 17 152 158
f 17 158 140
f 17 140 139
f 17 139 156
f 17 156 155
f 17 155 154
f 17 154 175
f 17 175 191
f 17 191 190
f 17 190 200
f 17 200 198
f 17 198 214
f 17 214 213
f 17 213 229
f 17 229 243
f 17 243 260
f 17 260 253
f 17 253 237
f 17 237 224
f 17 224 223
f 17 223 208
f 17 208 207
f 17 207 189
f 17 189 172
f 17 172 171
f 17 171 151
f 17 151 132
f 17 132 131
f 17 131 114
f 17 114 113
f 17 113 93
f 17 93 92
f 17 92 67
f 17 67 66
f 17 66 65
f 17 65 45
f 17 45 43
f 17 43 28
f 21 24 33
f 21 33 22
f 22 34 23
f 22 33 35
f 22 35 36
f 22 36 34
f 23 37 38
f 23 38 27
f 23 34 37
f 24 26 39
f 24 39 33
f 25 40 26
f 26 40 41
f 26 41 42
f 26 42 57
f 26 57 39
f 28 43 29
f 29 43 45
f 29 45 44
f 32 46 47
f 32 47 48
f 33 49 35
f 33 39 50
f 33 50 49
f 34 36 51
f 34 51 52
f 34 52 53
f 34 53 54
f 34 54 37
f 35 49 36
f 36 49 50
f 36 50 55
f 36 55 51
f 37 54 56
f 37 56 38
f 39 57 58
f 39 58 50
f 41 59 42
f 42 60 57
f 42 59 61
f 42 61 62
f 42 62 63
f 42 63 60
f 44 45 65
f 44 65 66
f 44 66 67
f 44 67 64
f 46 68 69
f 46 69 47
f 47 70 48
f 47 69 71
f 47 71 70
f 50 58 72
f 50 72 55
f 51 73 52
f 51 55 73
f 52 73 74
f 52 74 75
f 52 75 76
f 52 76 77
f 52 77 78
f 52 78 53
f 53 78 79
f 53 79 54
f 54 79 80
f 54 80 81
f 54 81 56
f 55 74 73
f 55 72 74
f 57 60 82
f 57 82 58
f 58 82 83
f 58 83 72
f 60 63 84
f 60 84 85
f 60 85 86
f 60 86 82
f 61 87 62
f 62 87 88
f 62 88 89
f 62 89 90
f 62 90 63
f 63 90 84
f 64 67 92
f 64 92 93
f 64 93 91
f 68 94 95
f 68 95 69
f 69 95 71
f 70 71 96
f 71 97 98
f 71 98 96
f 71 95 97
f 72 83 99
f 72 99 100
f 72 100 74
f 74 100 76
f 74 76 75
f 76 100 101
f 76 101 102
f 76 102 103
f 76 103 77
f 77 98 78
f 77 103 98
f 78 98 79
f 79 81 80
f 79 98 97
f 79 97 95
f 79 95 94
f 79 94 81
f 82 86 104
f 82 104 83
f 83 104 105
f 83 105 106
f 83 106 99
f 84 90 85
f 85 90 107
f 85 107 108
f 85 108 109
f 85 109 86
f 86 109 104
f 89 110 90
f 90 110 111
f 90 111 107
f 91 93 113
f 91 113 114
f 91 114 112
f 96 98 115
f 98 116 115
f 98 103 102
f 98 102 117
f 98 117 116
f 99 106 118
f 99 118 119
f 99 119 101
f 99 101 100
f 101 119 120
f 101 120 102
f 102 120 121
f 102 121 117
f 104 109 105
f 105 109 108
f 105 108 122
f 105 122 123
f 105 123 106
f 106 123 124
f 106 124 118
f 107 111 129
f 107 129 125
f 107 125 126
f 107 126 108
f 108 126 122
f 110 127 111
f 111 127 128
f 111 128 129
f 112 114 131
f 112 131 132
f 112 132 130
f 115 116 133
f 115 133 134
f 116 117 133
f 117 121 133
f 118 124 119
f 119 124 135
f 119 135 136
f 119 136 120
f 120 137 121
f 120 136 138
f 120 138 137
f 121 137 139
f 121 139 140
f 121 140 141
f 121 141 133
f 122 142 123
f 122 126 143
f 122 143 142
f 123 142 144
f 123 144 124
f 124 144 145
f 124 145 135
f 125 129 149
f 125 149 146
f 125 146 147
f 125 147 126
f 126 147 143
f 128 148 129
f 129 148 167
f 129 167 149
f 130 132 151
f 130 151 150
f 133 141 134
f 134 141 152
f 135 145 153
f 135 153 138
f 135 138 136
f 137 154 155
f 137 155 156
f 137 156 139
f 137 138 157
f 137 157 154
f 138 153 157
f 140 158 141
f 141 158 152
f 142 143 159
f 142 159 160
f 142 160 144
f 143 147 161
f 143 161 159
f 144 162 145
f 144 160 162
f 145 162 163
f 145 163 164
f 145 164 153
f 146 149 169
f 146 169 165
f 146 165 166
f 146 166 147
f 147 166 178
f 147 178 161
f 149 167 168
f 149 168 169
f 150 151 171
f 150 171 172
f 150 172 170
f 153 164 173
f 153 173 174
f 153 174 157
f 154 157 174
f 154 174 175
f 159 176 177
f 159 177 160
f 159 161 178
f 159 178 176
f 160 177 162
f 162 177 179
f 162 179 180
f 162 180 181
f 162 181 163
f 163 181 182
f 163 182 164
f 164 182 173
f 165 169 187
f 165 187 183
f 165 183 184
f 165 184 166
f 166 184 194
f 166 194 178
f 168 185 169
f 169 185 186
f 169 186 187
f 170 172 188
f 172 189 188
f 173 182 190
f 173 190 191
f 173 191 175
f 173 175 174
f 176 192 193
f 176 193 179
f 176 179 177
f 176 178 194
f 176 194 192
f 179 193 180
f 180 195 196
f 180 196 197
f 180 197 181
f 180 193 195
f 181 197 198
f 181 198 199
f 181 199 182
f 182 199 200
f 182 200 190
f 183 201 184
f 183 187 205
f 183 205 201
f 184 201 202
f 184 202 203
f 184 203 194
f 186 204 187
f 187 204 218
f 187 218 205
f 188 189 207
f 188 207 208
f 188 208 206
f 192 194 203
f 192 203 209
f 192 209 193
f 193 209 210
f 193 210 211
f 193 211 195
f 195 211 212
f 195 212 196
f 196 212 213
f 196 213 214
f 196 214 198
f 196 198 197
f 198 200 199
f 201 215 216
f 201 216 202
f 201 205 221
f 201 221 215
f 202 216 217
f 202 217 203
f 203 217 209
f 205 218 219
f 205 219 220
f 205 220 221
f 206 208 223
f 206 223 224
f 206 224 222
f 209 217 225
f 209 225 210
f 210 225 226
f 210 226 211
f 211 227 242
f 211 242 228
f 211 228 212
f 211 226 227
f 212 228 229
f 212 229 213
f 215 230 231
f 215 231 216
f 215 221 235
f 215 235 230
f 216 231 232
f 216 232 217
f 217 232 233
f 217 233 225
f 220 234 221
f 221 234 251
f 221 251 235
f 222 224 236
f 224 237 238
f 224 238 239
f 224 239 236
f 225 233 240
f 225 240 226
f 226 240 227
f 227 241 242
f 227 240 241
f 228 242 243
f 228 243 229
f 230 235 244
f 230 244 231
f 231 244 245
f 231 245 246
f 231 246 247
f 231 247 248
f 231 248 232
f 232 248 233
f 233 249 250
f 233 250 240
f 233 248 249
f 235 251 266
f 235 266 267
f 235 267 252
f 235 252 261
f 235 261 244
f 237 253 269
f 237 269 257
f 237 257 256
f 237 256 255
f 237 255 270
f 237 270 272
f 237 272 271
f 237 271 263
f 237 263 247
f 237 247 246
f 237 246 245
f 237 245 262
f 237 262 268
f 237 268 252
f 237 252 267
f 237 267 254
f 237 254 239
f 237 239 238
f 240 250 241
f 241 255 256
f 241 256 257
f 241 257 258
f 241 258 259
f 241 259 242
f 241 250 255
f 242 259 260
f 242 260 243
f 244 261 245
f 245 261 262
f 247 263 248
f 248 263 271
f 248 271 264
f 248 264 249
f 249 264 250
f 250 264 265
f 250 265 255
f 252 268 261
f 253 260 258
f 253 258 269
f 254 267 266
f 255 265 270
f 257 269 258
f 258 260 259
f 261 268 262
f 264 271 272
f 264 272 265
f 265 272 270

