# https://github.com/mikedh/trimesh
v -0.02540114 0.02779884 0.04997218
v -0.02540114 0.01509484 0.04997218
v -0.02540114 0.02781021 0.04976762
v -0.03106801 0.02781400 0.04976762
v -0.03106801 0.02780137 0.04997218
v -0.04685185 0.01509484 0.04997218
v -0.02540114 0.01509484 0.01337531
v -0.02540114 0.02788223 0.04825009
v -0.02652290 0.02788223 0.04825009
v -0.02955298 0.02788096 0.04825009
v -0.03106801 0.02787844 0.04825009
v -0.03258305 0.02781021 0.04976762
v -0.03258305 0.02779758 0.04997218
v -0.05236300 0.01949165 0.04997218
v -0.04696007 0.01509484 0.04974860
v -0.03548907 0.01509484 0.00940784
v -0.02540114 0.01970012 0.00217694
v -0.02540114 0.02791887 0.04713216
v -0.02803794 0.02793150 0.04673731
v -0.03106801 0.02792897 0.04673731
v -0.03258305 0.02787338 0.04825009
v -0.03409809 0.02780137 0.04976762
v -0.03561576 0.02786075 0.04825009
v -0.03278629 0.02779631 0.04997218
v -0.05236300 0.02155234 0.04997218
v -0.05236300 0.01509484 0.03568166
v -0.03713080 0.01509484 0.00890358
v -0.05236300 0.01678029 0.00376108
v -0.05236300 0.01744992 0.00266693
v -0.05236300 0.01772788 0.00229112
v -0.05236300 0.01837097 0.00176307
v -0.02540114 0.01975698 0.00213413
v -0.04012920 0.01509484 0.00809010
v -0.04167327 0.01509484 0.00783797
v -0.04318831 0.01509484 0.00760011
v -0.02540114 0.02793150 0.04673731
v -0.02540114 0.02795551 0.04561462
v -0.02803794 0.02796309 0.04521978
v -0.02955298 0.02796182 0.04521978
v -0.03258305 0.02795803 0.04521978
v -0.03409809 0.02795424 0.04521978
v -0.03258305 0.02792392 0.04673731
v -0.03561576 0.02778873 0.04976762
v -0.03409809 0.02778747 0.04997218
v -0.03713080 0.02784432 0.04825009
v -0.03409809 0.02791760 0.04673731
v -0.03561576 0.02790876 0.04673731
v -0.03713080 0.02789360 0.04673731
v -0.05235507 0.02644821 0.04997218
v -0.05236300 0.02646590 0.04984374
v -0.05236300 0.01509484 0.00718624
v -0.05236300 0.01633303 0.00456028
v -0.04376107 0.01509484 0.00753827
v -0.04470599 0.01509484 0.00744788
v -0.05236300 0.01876896 0.00163939
v -0.02540114 0.02035080 0.00174880
v -0.02540114 0.02796309 0.04521978
v -0.02540114 0.02797825 0.04409708
v -0.02803794 0.02798330 0.04370700
v -0.02955298 0.02798204 0.04370700
v -0.03258305 0.02797825 0.04370700
v -0.03561576 0.02794540 0.04521978
v -0.03409809 0.02797446 0.04370700
v -0.03561576 0.02796814 0.04370700
v -0.03713080 0.02776852 0.04976762
v -0.03581636 0.02777231 0.04997218
v -0.03561576 0.02777483 0.04997218
v -0.03864584 0.02781906 0.04825009
v -0.03864584 0.02787591 0.04673731
v -0.03713080 0.02793277 0.04521978
v -0.05228117 0.02646464 0.04997218
v -0.05236300 0.02647980 0.04976762
v -0.05236300 0.01523256 0.00682945
v -0.04541599 0.01509484 0.00740507
v -0.05236300 0.01574552 0.00573055
v -0.05236300 0.02039755 0.00137774
v -0.05076613 0.02039755 0.00137774
v -0.02540114 0.02191242 0.00137298
v -0.02540114 0.02798330 0.04370700
v -0.02955298 0.02799215 0.04218946
v -0.03258305 0.02799088 0.04218946
v -0.03409809 0.02798836 0.04218946
v -0.03713080 0.02795930 0.04370700
v -0.03561576 0.02798330 0.04218946
v -0.03713080 0.02797572 0.04218946
v -0.03864584 0.02773693 0.04976762
v -0.03713080 0.02775335 0.04997218
v -0.04015824 0.02778368 0.04825009
v -0.04015824 0.02784938 0.04673731
v -0.03864584 0.02791381 0.04521978
v -0.04015824 0.02789233 0.04521978
v -0.03864584 0.02794540 0.04370700
v -0.05076613 0.02675396 0.04997218
v -0.05228117 0.02649748 0.04976762
v -0.05236300 0.02667184 0.04833096
v -0.05236300 0.02494344 0.00137774
v -0.03864584 0.02645832 0.00137774
v -0.03409809 0.02645832 0.00137774
v -0.02540114 0.02494344 0.00137774
v -0.02540114 0.02799215 0.04218946
v -0.02540114 0.02799720 0.04106677
v -0.02652290 0.02799846 0.04067668
v -0.03106801 0.02799720 0.04067668
v -0.03409809 0.02799467 0.04067668
v -0.03561576 0.02799215 0.04067668
v -0.03864584 0.02796562 0.04218946
v -0.03713080 0.02798709 0.04067668
v -0.03864584 0.02797825 0.04067668
v -0.04015824 0.02769524 0.04976762
v -0.03864584 0.02772177 0.04997218
v -0.04167327 0.02773693 0.04825009
v -0.04167327 0.02780895 0.04673731
v -0.04167327 0.02786201 0.04521978
v -0.04015824 0.02792392 0.04370700
v -0.04167327 0.02789613 0.04370700
v -0.04015824 0.02794919 0.04218946
v -0.04925110 0.02698265 0.04997218
v -0.05076613 0.02678429 0.04976762
v -0.05228117 0.02669964 0.04825009
v -0.05236300 0.02668195 0.04825009
v -0.05236300 0.02501293 0.00139201
v -0.05076613 0.02645832 0.00156803
v -0.04925110 0.02645832 0.00149191
v -0.04773606 0.02645832 0.00144434
v -0.04622102 0.02645832 0.00141580
v -0.04470599 0.02645832 0.00140153
v -0.04167327 0.02645832 0.00138250
v -0.04015824 0.02756005 0.00171074
v -0.03409809 0.02756889 0.00170598
v -0.02540114 0.02645832 0.00157754
v -0.02540114 0.02799846 0.04067668
v -0.02540114 0.02799973 0.03955399
v -0.03258305 0.02799973 0.03915915
v -0.03409809 0.02799846 0.03915915
v -0.03561576 0.02799594 0.03915915
v -0.03713080 0.02799341 0.03915915
v -0.04015824 0.02796435 0.04067668
v -0.03864584 0.02798709 0.03915915
v -0.04015824 0.02797572 0.03915915
v -0.04167327 0.02763585 0.04976762
v -0.04015824 0.02767881 0.04997218
v -0.04318831 0.02767502 0.04825009
v -0.04318831 0.02775588 0.04673731
v -0.04318831 0.02781526 0.04521978
v -0.04318831 0.02786075 0.04370700
v -0.04167327 0.02792266 0.04218946
v -0.04318831 0.02788981 0.04218946
v -0.04167327 0.02794414 0.04067668
v -0.04783636 0.02715701 0.04997218
v -0.04925110 0.02700792 0.04976762
v -0.05076613 0.02696244 0.04825009
v -0.05228117 0.02686009 0.04673731
v -0.05236300 0.02684367 0.04673731
v -0.05236300 0.02656066 0.00173453
v -0.05076613 0.02732757 0.00189627
v -0.04925110 0.02740085 0.00182016
v -0.04773606 0.02745392 0.00177734
v -0.04622102 0.02749435 0.00174880
v -0.04470599 0.02752214 0.00172977
v -0.04318831 0.02754109 0.00172026
v -0.04167327 0.02755247 0.00171550
v -0.03864584 0.02794919 0.00279538
v -0.03713080 0.02795424 0.00279538
v -0.03864584 0.02756384 0.00171074
v -0.03561576 0.02756889 0.00171074
v -0.03409809 0.02796056 0.00279538
v -0.02540114 0.02731494 0.00190579
v -0.02540114 0.02800099 0.03803646
v -0.03258305 0.02800099 0.03764161
v -0.03409809 0.02800099 0.03612883
v -0.03561576 0.02799973 0.03612883
v -0.03713080 0.02799846 0.03612883
v -0.03864584 0.02799215 0.03764161
v -0.04167327 0.02795803 0.03915915
v -0.04015824 0.02798709 0.03612883
v -0.04015824 0.02798204 0.03764161
v -0.04167327 0.02797320 0.03612883
v -0.04167327 0.02796688 0.03764161
v -0.04318831 0.02756131 0.04976762
v -0.04167327 0.02761817 0.04997218
v -0.04470599 0.02758784 0.04825009
v -0.04470599 0.02768639 0.04673731
v -0.04470599 0.02775462 0.04521978
v -0.04470599 0.02780516 0.04370700
v -0.04470599 0.02784559 0.04218946
v -0.04318831 0.02791129 0.04067668
v -0.04470599 0.02787212 0.04067668
v -0.04318831 0.02793024 0.03915915
v -0.04769383 0.02717343 0.04997218
v -0.04741141 0.02727072 0.04944414
v -0.04842232 0.02720754 0.04892561
v -0.04930652 0.02715322 0.04835475
v -0.04984761 0.02719491 0.04724633
v -0.05070278 0.02711152 0.04674207
v -0.05118052 0.02716459 0.04521978
v -0.05228117 0.02698770 0.04521978
v -0.05236300 0.02697381 0.04521978
v -0.05236300 0.02663520 0.00184870
v -0.05181927 0.02726187 0.00197239
v -0.04925110 0.02760932 0.00279538
v -0.04773606 0.02771672 0.00279538
v -0.04622102 0.02779884 0.00279538
v -0.04470599 0.02785822 0.00279538
v -0.04318831 0.02789739 0.00279538
v -0.04167327 0.02792266 0.00279538
v -0.04015824 0.02793782 0.00279538
v -0.03864584 0.02798709 0.00430815
v -0.03713080 0.02799341 0.00430815
v -0.03561576 0.02795803 0.00279538
v -0.02540114 0.02794035 0.00621578
v -0.02540114 0.02791887 0.00582569
v -0.02540114 0.02747287 0.00279538
v -0.02540114 0.02735663 0.00213889
v -0.03409809 0.02799846 0.00430815
v -0.02540114 0.02800099 0.00733847
v -0.02540114 0.02800225 0.01228116
v -0.03561576 0.02800099 0.03461130
v -0.03713080 0.02799973 0.03461130
v -0.03864584 0.02799720 0.03309852
v -0.03864584 0.02799594 0.03461130
v -0.04015824 0.02798962 0.03461130
v -0.04318831 0.02794287 0.03764161
v -0.04167327 0.02797699 0.03461130
v -0.04318831 0.02795045 0.03612883
v -0.04470599 0.02746908 0.04976762
v -0.04318831 0.02754236 0.04997218
v -0.04187651 0.02760806 0.04997218
v -0.04622102 0.02748424 0.04825009
v -0.04622102 0.02758658 0.04673731
v -0.04622102 0.02767123 0.04521978
v -0.04622102 0.02773188 0.04370700
v -0.04622102 0.02777736 0.04218946
v -0.04622102 0.02781274 0.04067668
v -0.04470599 0.02788981 0.03915915
v -0.04622102 0.02783801 0.03915915
v -0.04470599 0.02790371 0.03764161
v -0.04641634 0.02730988 0.04997218
v -0.04784428 0.02732884 0.04835475
v -0.04883671 0.02726187 0.04791709
v -0.04628437 0.02732378 0.04997218
v -0.04632396 0.02733010 0.04987704
v -0.04930652 0.02730357 0.04674207
v -0.05015379 0.02723913 0.04623781
v -0.05142599 0.02720249 0.04427310
v -0.05165034 0.02723787 0.04326458
v -0.05220463 0.02710647 0.04374505
v -0.05236300 0.02707867 0.04374030
v -0.05236300 0.02723660 0.00279538
v -0.05204362 0.02729725 0.00279538
v -0.05076613 0.02746150 0.00279538
v -0.05076613 0.02749814 0.00430815
v -0.04925110 0.02764470 0.00430815
v -0.04773606 0.02775209 0.00430815
v -0.04622102 0.02783421 0.00430815
v -0.04470599 0.02789360 0.00430815
v -0.04318831 0.02793403 0.00430815
v -0.04167327 0.02795803 0.00430815
v -0.04015824 0.02797446 0.00430815
v -0.03864584 0.02799467 0.00733847
v -0.04167327 0.02797320 0.00733847
v -0.04167327 0.02797825 0.00885601
v -0.03713080 0.02799846 0.00733847
v -0.03561576 0.02799594 0.00430815
v -0.03561576 0.02799973 0.00733847
v -0.03258305 0.02800099 0.00582569
v -0.02540114 0.02800225 0.00885601
v -0.03561576 0.02800099 0.00885601
v -0.03713080 0.02799973 0.00885601
v -0.04015824 0.02799088 0.03158098
v -0.03864584 0.02799720 0.01036878
v -0.04167327 0.02798204 0.03006820
v -0.04167327 0.02798078 0.03158098
v -0.04470599 0.02791381 0.03612883
v -0.04318831 0.02795424 0.03461130
v -0.04318831 0.02795930 0.03158098
v -0.04318831 0.02795677 0.03309852
v -0.04470599 0.02792392 0.03309852
v -0.04470599 0.02792013 0.03461130
v -0.04491978 0.02743118 0.04997218
v -0.04470599 0.02744760 0.04997218
v -0.04773606 0.02746403 0.04673731
v -0.04773606 0.02755499 0.04521978
v -0.04773606 0.02762954 0.04370700
v -0.04773606 0.02768766 0.04218946
v -0.04773606 0.02772809 0.04067668
v -0.04773606 0.02775841 0.03915915
v -0.04622102 0.02785443 0.03764161
v -0.04773606 0.02777989 0.03764161
v -0.04925110 0.02741096 0.04521978
v -0.05042301 0.02727451 0.04521978
v -0.05076613 0.02739706 0.04218946
v -0.05181399 0.02726440 0.04218946
v -0.05236300 0.02717091 0.04218946
v -0.05236300 0.02715827 0.04243683
v -0.05236300 0.02711910 0.04308381
v -0.05085852 0.02730988 0.04374505
v -0.05236300 0.02728462 0.00430815
v -0.05216767 0.02731494 0.00430815
v -0.05228117 0.02735158 0.00733847
v -0.05076613 0.02752341 0.00582569
v -0.05076613 0.02754615 0.00733847
v -0.04925110 0.02766618 0.00582569
v -0.04925110 0.02768639 0.00733847
v -0.04773606 0.02777104 0.00582569
v -0.04773606 0.02778747 0.00733847
v -0.04622102 0.02786201 0.00733847
v -0.04470599 0.02790623 0.00582569
v -0.04470599 0.02791634 0.00733847
v -0.04318831 0.02795172 0.00733847
v -0.04015824 0.02798836 0.00885601
v -0.04015824 0.02798962 0.01036878
v -0.04318831 0.02795677 0.00885601
v -0.04167327 0.02797951 0.01036878
v -0.03409809 0.02800099 0.00733847
v -0.04015824 0.02799088 0.01339910
v -0.04167327 0.02798204 0.02703789
v -0.04318831 0.02796182 0.02703789
v -0.04318831 0.02796056 0.03006820
v -0.04622102 0.02786201 0.03612883
v -0.04470599 0.02792897 0.03006820
v -0.04622102 0.02787212 0.03309852
v -0.04925110 0.02749308 0.04370700
v -0.04925110 0.02756005 0.04218946
v -0.04925110 0.02761058 0.04067668
v -0.04925110 0.02764849 0.03915915
v -0.04925110 0.02767376 0.03764161
v -0.04773606 0.02780263 0.03461130
v -0.04773606 0.02779252 0.03612883
v -0.04925110 0.02769018 0.03612883
v -0.05076613 0.02745013 0.04067668
v -0.05236300 0.02721386 0.04133317
v -0.05202251 0.02728840 0.04067668
v -0.05236300 0.02725682 0.04021999
v -0.05236300 0.02730862 0.00559259
v -0.05236300 0.02732378 0.00642034
v -0.05236300 0.02734021 0.00733847
v -0.05228117 0.02736800 0.00885601
v -0.05076613 0.02756131 0.00885601
v -0.04925110 0.02769903 0.00885601
v -0.04773606 0.02779631 0.00885601
v -0.04622102 0.02786959 0.00885601
v -0.04470599 0.02792266 0.00885601
v -0.04318831 0.02795803 0.01036878
v -0.04167327 0.02798078 0.01794695
v -0.04318831 0.02795930 0.01491663
v -0.04470599 0.02792897 0.02552511
v -0.04622102 0.02787717 0.02855067
v -0.04622102 0.02787591 0.03006820
v -0.04622102 0.02787465 0.03158098
v -0.04773606 0.02780642 0.03309852
v -0.05076613 0.02749435 0.03915915
v -0.05076613 0.02752593 0.03764161
v -0.05076613 0.02754362 0.03612883
v -0.04925110 0.02770155 0.03461130
v -0.04925110 0.02770661 0.03309852
v -0.05076613 0.02755752 0.03461130
v -0.05236300 0.02729093 0.03907828
v -0.05236300 0.02735663 0.00885601
v -0.05228117 0.02737179 0.01036878
v -0.05076613 0.02756384 0.01036878
v -0.04925110 0.02770155 0.01036878
v -0.04773606 0.02779884 0.01036878
v -0.04622102 0.02787212 0.01036878
v -0.04470599 0.02792392 0.01036878
v -0.04470599 0.02792518 0.01188632
v -0.04470599 0.02792771 0.02097726
v -0.04622102 0.02787717 0.02552511
v -0.04925110 0.02770787 0.03158098
v -0.04773606 0.02780389 0.02400758
v -0.04925110 0.02770787 0.02703789
v -0.05236300 0.02729599 0.03884993
v -0.05236300 0.02729220 0.03902595
v -0.05228117 0.02733010 0.03764161
v -0.05228117 0.02734905 0.03612883
v -0.05228117 0.02736548 0.03461130
v -0.05076613 0.02756763 0.03309852
v -0.05076613 0.02757268 0.03158098
v -0.05236300 0.02736042 0.01050674
v -0.05228117 0.02737432 0.01339910
v -0.05076613 0.02756636 0.01339910
v -0.04925110 0.02770282 0.01339910
v -0.04773606 0.02780010 0.01339910
v -0.04622102 0.02787338 0.01339910
v -0.04925110 0.02770661 0.02249480
v -0.05076613 0.02757142 0.02552511
v -0.05236300 0.02731746 0.03772724
v -0.05236300 0.02733642 0.03628106
v -0.05236300 0.02731873 0.03764161
v -0.05236300 0.02735411 0.03461130
v -0.05236300 0.02735284 0.03475877
v -0.05228117 0.02737558 0.03309852
v -0.05228117 0.02738064 0.03158098
v -0.05228117 0.02738064 0.02703789
v -0.05236300 0.02736295 0.01491663
v -0.05228117 0.02737685 0.01794695
v -0.05236300 0.02736295 0.03323648
v -0.05236300 0.02736800 0.03158098
v -0.05236300 0.02736800 0.02552511
v -0.05236300 0.02736548 0.01946448
f 1 2 7
f 1 7 17
f 1 17 32
f 1 32 56
f 1 56 78
f 1 78 99
f 1 99 130
f 1 130 167
f 1 167 213
f 1 213 212
f 1 212 211
f 1 211 210
f 1 210 215
f 1 215 266
f 1 266 216
f 1 216 168
f 1 168 132
f 1 132 131
f 1 131 101
f 1 101 100
f 1 100 79
f 1 79 58
f 1 58 57
f 1 57 37
f 1 37 36
f 1 36 18
f 1 18 8
f 1 8 3
f 1 3 4
f 1 4 5
f 1 5 13
f 1 13 24
f 1 24 44
f 1 44 67
f 1 67 66
f 1 66 87
f 1 87 110
f 1 110 141
f 1 141 180
f 1 180 227
f 1 227 226
f 1 226 280
f 1 280 279
f 1 279 240
f 1 240 237
f 1 237 189
f 1 189 149
f 1 149 117
f 1 117 93
f 1 93 71
f 1 71 49
f 1 49 25
f 1 25 14
f 1 14 6
f 1 6 2
f 2 6 15
f 2 15 26
f 2 26 51
f 2 51 74
f 2 74 54
f 2 54 53
f 2 53 35
f 2 35 34
f 2 34 33
f 2 33 27
f 2 27 16
f 2 16 7
f 3 8 4
f 4 8 9
f 4 9 10
f 4 10 11
f 4 11 12
f 4 12 13
f 4 13 5
f 6 14 15
f 7 16 17
f 8 18 9
f 9 18 19
f 9 19 10
f 10 19 20
f 10 20 11
f 11 21 12
f 11 20 42
f 11 42 21
f 12 22 13
f 12 21 23
f 12 23 22
f 13 22 24
f 14 25 50
f 14 50 72
f 14 72 95
f 14 95 120
f 14 120 153
f 14 153 197
f 14 197 247
f 14 247 295
f 14 295 294
f 14 294 293
f 14 293 331
f 14 331 333
f 14 333 357
f 14 357 372
f 14 372 371
f 14 371 386
f 14 386 388
f 14 388 387
f 14 387 390
f 14 390 389
f 14 389 396
f 14 396 397
f 14 397 398
f 14 398 399
f 14 399 394
f 14 394 378
f 14 378 358
f 14 358 336
f 14 336 335
f 14 335 334
f 14 334 297
f 14 297 248
f 14 248 198
f 14 198 154
f 14 154 121
f 14 121 96
f 14 96 76
f 14 76 55
f 14 55 31
f 14 31 30
f 14 30 29
f 14 29 28
f 14 28 52
f 14 52 75
f 14 75 73
f 14 73 51
f 14 51 26
f 14 26 15
f 16 27 17
f 17 28 29
f 17 29 30
f 17 30 31
f 17 31 32
f 17 27 33
f 17 33 34
f 17 34 35
f 17 35 28
f 18 36 19
f 19 36 37
f 19 37 38
f 19 38 39
f 19 39 20
f 20 39 40
f 20 40 41
f 20 41 42
f 21 42 23
f 22 43 67
f 22 67 44
f 22 44 24
f 22 23 43
f 23 45 43
f 23 42 46
f 23 46 47
f 23 47 48
f 23 48 45
f 25 49 50
f 28 35 53
f 28 53 54
f 28 54 52
f 31 55 56
f 31 56 32
f 37 57 38
f 38 58 59
f 38 59 60
f 38 60 39
f 38 57 58
f 39 60 61
f 39 61 40
f 40 61 63
f 40 63 41
f 41 62 47
f 41 47 46
f 41 46 42
f 41 63 64
f 41 64 62
f 43 65 66
f 43 66 67
f 43 45 65
f 45 68 65
f 45 48 69
f 45 69 68
f 47 62 70
f 47 70 48
f 48 70 69
f 49 71 72
f 49 72 50
f 51 73 74
f 52 54 74
f 52 74 75
f 55 76 77
f 55 77 78
f 55 78 56
f 58 79 59
f 59 79 100
f 59 100 80
f 59 80 81
f 59 81 60
f 60 81 61
f 61 81 82
f 61 82 63
f 62 64 83
f 62 83 70
f 63 82 84
f 63 84 64
f 64 84 85
f 64 85 83
f 65 86 110
f 65 110 87
f 65 87 66
f 65 68 86
f 68 88 86
f 68 69 89
f 68 89 88
f 69 70 90
f 69 90 91
f 69 91 89
f 70 83 92
f 70 92 90
f 71 93 94
f 71 94 72
f 72 94 95
f 73 75 74
f 76 96 78
f 76 78 77
f 78 96 97
f 78 97 98
f 78 98 99
f 80 100 101
f 80 101 102
f 80 102 103
f 80 103 81
f 81 103 104
f 81 104 105
f 81 105 82
f 82 105 84
f 83 85 106
f 83 106 92
f 84 105 107
f 84 107 85
f 85 107 108
f 85 108 106
f 86 109 110
f 86 88 109
f 88 111 109
f 88 89 112
f 88 112 111
f 89 91 113
f 89 113 112
f 90 92 114
f 90 114 91
f 91 114 115
f 91 115 113
f 92 106 116
f 92 116 114
f 93 117 118
f 93 118 94
f 94 118 119
f 94 119 95
f 95 119 120
f 96 121 122
f 96 122 123
f 96 123 124
f 96 124 125
f 96 125 126
f 96 126 127
f 96 127 97
f 97 127 128
f 97 128 129
f 97 129 98
f 98 130 99
f 98 129 130
f 101 131 102
f 102 131 132
f 102 132 133
f 102 133 103
f 103 133 134
f 103 134 104
f 104 134 135
f 104 135 105
f 105 135 136
f 105 136 107
f 106 108 137
f 106 137 116
f 107 136 138
f 107 138 108
f 108 138 139
f 108 139 137
f 109 140 141
f 109 141 110
f 109 111 140
f 111 142 140
f 111 112 143
f 111 143 142
f 112 113 144
f 112 144 143
f 113 115 145
f 113 145 144
f 114 116 146
f 114 146 115
f 115 146 147
f 115 147 145
f 116 137 148
f 116 148 146
f 117 149 150
f 117 150 118
f 118 150 151
f 118 151 119
f 119 151 152
f 119 152 153
f 119 153 120
f 121 154 122
f 122 154 155
f 122 155 156
f 122 156 123
f 123 156 157
f 123 157 124
f 124 157 158
f 124 158 125
f 125 158 159
f 125 159 160
f 125 160 126
f 126 160 127
f 127 160 161
f 127 161 128
f 128 161 162
f 128 162 163
f 128 163 164
f 128 164 129
f 129 164 165
f 129 165 166
f 129 166 167
f 129 167 130
f 132 168 169
f 132 169 133
f 133 169 170
f 133 170 171
f 133 171 172
f 133 172 134
f 134 172 135
f 135 172 136
f 136 172 173
f 136 173 138
f 137 139 174
f 137 174 148
f 138 173 175
f 138 175 176
f 138 176 139
f 139 176 177
f 139 177 178
f 139 178 174
f 140 179 180
f 140 180 141
f 140 142 179
f 142 181 179
f 142 143 182
f 142 182 181
f 143 144 183
f 143 183 182
f 144 145 184
f 144 184 183
f 145 147 185
f 145 185 184
f 146 148 186
f 146 186 147
f 147 186 187
f 147 187 185
f 148 174 188
f 148 188 186
f 149 189 190
f 149 190 150
f 150 190 191
f 150 191 192
f 150 192 151
f 151 192 193
f 151 193 194
f 151 194 152
f 152 194 195
f 152 195 196
f 152 196 197
f 152 197 153
f 154 198 199
f 154 199 155
f 155 199 200
f 155 200 201
f 155 201 156
f 156 201 202
f 156 202 157
f 157 202 203
f 157 203 158
f 158 203 204
f 158 204 159
f 159 204 205
f 159 205 160
f 160 205 206
f 160 206 161
f 161 206 162
f 162 206 207
f 162 207 208
f 162 208 163
f 163 208 209
f 163 209 164
f 164 209 165
f 165 209 166
f 166 210 211
f 166 211 212
f 166 212 213
f 166 213 167
f 166 209 263
f 166 263 214
f 166 214 215
f 166 215 210
f 168 216 169
f 169 216 170
f 170 216 217
f 170 217 171
f 171 217 218
f 171 218 172
f 172 218 219
f 172 219 220
f 172 220 173
f 173 220 221
f 173 221 175
f 174 178 222
f 174 222 188
f 175 221 223
f 175 223 177
f 175 177 176
f 177 224 178
f 177 223 274
f 177 274 224
f 178 224 222
f 179 225 226
f 179 226 227
f 179 227 180
f 179 181 225
f 181 228 225
f 181 182 229
f 181 229 228
f 182 183 230
f 182 230 229
f 183 184 231
f 183 231 230
f 184 185 232
f 184 232 231
f 185 187 233
f 185 233 232
f 186 188 187
f 187 188 234
f 187 234 235
f 187 235 233
f 188 222 236
f 188 236 234
f 189 237 190
f 190 238 239
f 190 239 191
f 190 237 240
f 190 240 241
f 190 241 238
f 191 239 192
f 192 239 193
f 193 239 242
f 193 242 243
f 193 243 194
f 194 243 195
f 195 244 196
f 195 243 244
f 196 244 197
f 197 244 245
f 197 245 246
f 197 246 247
f 198 248 199
f 199 248 249
f 199 249 250
f 199 250 200
f 200 250 251
f 200 251 252
f 200 252 253
f 200 253 201
f 201 253 254
f 201 254 202
f 202 254 255
f 202 255 203
f 203 255 256
f 203 256 204
f 204 256 205
f 205 256 257
f 205 257 258
f 205 258 206
f 206 258 207
f 207 259 208
f 207 258 260
f 207 260 261
f 207 261 259
f 208 259 262
f 208 262 263
f 208 263 209
f 214 263 262
f 214 262 264
f 214 264 265
f 214 265 215
f 215 265 266
f 216 266 267
f 216 267 217
f 217 267 268
f 217 268 218
f 218 268 270
f 218 270 219
f 219 269 221
f 219 221 220
f 219 270 315
f 219 315 269
f 221 269 271
f 221 271 272
f 221 272 223
f 222 224 273
f 222 273 236
f 223 272 275
f 223 275 276
f 223 276 274
f 224 274 277
f 224 277 278
f 224 278 273
f 225 228 241
f 225 241 240
f 225 240 279
f 225 279 280
f 225 280 226
f 228 238 241
f 228 229 281
f 228 281 238
f 229 230 282
f 229 282 281
f 230 231 283
f 230 283 282
f 231 232 284
f 231 284 283
f 232 233 285
f 232 285 284
f 233 235 286
f 233 286 285
f 234 236 287
f 234 287 235
f 235 287 288
f 235 288 286
f 236 273 287
f 238 281 239
f 239 281 242
f 242 281 289
f 242 289 243
f 243 289 290
f 243 290 244
f 244 290 245
f 245 291 292
f 245 292 293
f 245 293 294
f 245 294 295
f 245 295 247
f 245 247 246
f 245 290 296
f 245 296 291
f 248 297 249
f 249 297 298
f 249 298 251
f 249 251 250
f 251 298 299
f 251 299 300
f 251 300 252
f 252 300 301
f 252 301 302
f 252 302 253
f 253 302 303
f 253 303 304
f 253 304 254
f 254 304 305
f 254 305 306
f 254 306 255
f 255 306 307
f 255 307 256
f 256 307 308
f 256 308 309
f 256 309 257
f 257 309 260
f 257 260 258
f 259 261 310
f 259 310 311
f 259 311 270
f 259 270 262
f 260 309 312
f 260 312 261
f 261 312 343
f 261 343 313
f 261 313 311
f 261 311 310
f 262 270 268
f 262 268 267
f 262 267 264
f 264 267 314
f 264 314 265
f 265 314 266
f 266 314 267
f 269 315 316
f 269 316 271
f 270 311 315
f 271 316 317
f 271 317 318
f 271 318 275
f 271 275 272
f 273 319 287
f 273 278 319
f 274 276 277
f 275 318 320
f 275 320 276
f 276 320 277
f 277 321 278
f 277 320 321
f 278 321 319
f 281 282 289
f 282 283 322
f 282 322 289
f 283 284 323
f 283 323 322
f 284 285 324
f 284 324 323
f 285 286 325
f 285 325 324
f 286 288 326
f 286 326 325
f 287 319 327
f 287 327 328
f 287 328 288
f 288 328 329
f 288 329 326
f 289 322 296
f 289 296 290
f 291 296 322
f 291 322 323
f 291 323 330
f 291 330 292
f 292 331 293
f 292 330 332
f 292 332 333
f 292 333 331
f 297 334 298
f 298 334 335
f 298 335 336
f 298 336 299
f 299 336 358
f 299 358 337
f 299 337 301
f 299 301 300
f 301 337 338
f 301 338 303
f 301 303 302
f 303 338 339
f 303 339 305
f 303 305 304
f 305 339 340
f 305 340 306
f 306 340 341
f 306 341 308
f 306 308 307
f 308 341 342
f 308 342 309
f 309 342 312
f 311 313 315
f 312 342 364
f 312 364 343
f 313 344 315
f 313 343 345
f 313 345 317
f 313 317 344
f 315 344 316
f 316 344 317
f 317 346 320
f 317 320 318
f 317 345 346
f 319 321 327
f 320 346 367
f 320 367 347
f 320 347 348
f 320 348 349
f 320 349 321
f 321 350 327
f 321 349 350
f 323 324 330
f 324 325 351
f 324 351 330
f 325 326 352
f 325 352 351
f 326 329 353
f 326 353 352
f 327 354 328
f 327 350 355
f 327 355 354
f 328 354 329
f 329 354 356
f 329 356 353
f 330 351 332
f 332 351 357
f 332 357 333
f 337 358 359
f 337 359 338
f 338 359 360
f 338 360 361
f 338 361 339
f 339 361 362
f 339 362 340
f 340 362 363
f 340 363 341
f 341 363 342
f 342 363 364
f 343 364 365
f 343 365 366
f 343 366 346
f 343 346 345
f 346 366 367
f 347 367 350
f 347 350 348
f 348 350 349
f 350 368 355
f 350 367 369
f 350 369 370
f 350 370 368
f 351 352 371
f 351 371 372
f 351 372 357
f 352 373 371
f 352 353 374
f 352 374 373
f 353 356 375
f 353 375 374
f 354 355 376
f 354 376 356
f 355 368 377
f 355 377 376
f 356 376 391
f 356 391 375
f 358 378 359
f 359 378 379
f 359 379 380
f 359 380 360
f 360 380 361
f 361 380 381
f 361 381 382
f 361 382 362
f 362 382 383
f 362 383 363
f 363 365 364
f 363 383 365
f 365 383 367
f 365 367 366
f 367 383 369
f 368 370 377
f 369 384 370
f 369 383 382
f 369 382 384
f 370 384 385
f 370 385 377
f 371 373 386
f 373 387 388
f 373 388 386
f 373 374 387
f 374 375 387
f 375 389 390
f 375 390 387
f 375 391 389
f 376 377 392
f 376 392 391
f 377 385 393
f 377 393 392
f 378 394 379
f 379 394 399
f 379 399 395
f 379 395 380
f 380 395 393
f 380 393 385
f 380 385 381
f 381 385 384
f 381 384 382
f 389 391 396
f 391 392 396
f 392 397 396
f 392 393 398
f 392 398 397
f 393 395 399
f 393 399 398

