# https://github.com/mikedh/trimesh
v -0.02604458 -0.00008947 0.07878277
v -0.02955427 -0.00008947 0.07877575
v -0.02955427 -0.00082027 0.07877575
v -0.02604458 -0.00082027 0.07877575
v -0.02604458 -0.00008947 0.01852481
v -0.03106819 -0.00008947 0.07876874
v -0.03106819 -0.00082027 0.07876874
v -0.02955427 -0.00233567 0.07867762
v -0.02652071 -0.00233567 0.07868463
v -0.02604458 -0.00233567 0.07868463
v -0.02604458 -0.01203374 0.01015487
v -0.03561568 -0.00008947 0.01480951
v -0.03185224 -0.00008947 0.07876173
v -0.03258497 -0.00082027 0.07874772
v -0.03258497 -0.00233567 0.07865658
v -0.03106819 -0.00233567 0.07867061
v -0.02955427 -0.00385106 0.07850937
v -0.02652071 -0.00385106 0.07851638
v -0.02604458 -0.00385106 0.07851638
v -0.02909809 -0.01203374 0.00898420
v -0.02604458 -0.01203374 0.07606990
v -0.03698705 -0.00008947 0.01431881
v -0.03336902 -0.00008947 0.07874071
v -0.03409890 -0.00082027 0.07872669
v -0.03561568 -0.00233567 0.07860752
v -0.03409890 -0.00385106 0.07846731
v -0.03258497 -0.00385106 0.07848835
v -0.03106819 -0.00385106 0.07850237
v -0.02955427 -0.00536646 0.07826402
v -0.02652071 -0.00536646 0.07827103
v -0.02604458 -0.00489056 0.07834815
v -0.03031550 -0.01203374 0.00855659
v -0.02604458 -0.01188056 0.07614701
v -0.02674024 -0.01203374 0.07606990
v -0.03769412 -0.00008947 0.01410150
v -0.03079164 -0.01203374 0.00840237
v -0.03561568 -0.00008947 0.07870565
v -0.03561568 -0.00082027 0.07869864
v -0.03712960 -0.00082027 0.07864957
v -0.03712960 -0.00233567 0.07855144
v -0.03712960 -0.00385106 0.07839020
v -0.03561568 -0.00385106 0.07843928
v -0.03561568 -0.00536646 0.07819393
v -0.03258497 -0.00536646 0.07823599
v -0.03106819 -0.00536646 0.07825701
v -0.03106819 -0.00671114 0.07795558
v -0.02803749 -0.00672985 0.07796259
v -0.02604458 -0.00536646 0.07827103
v -0.02604458 -0.00630657 0.07806074
v -0.02604458 -0.01112286 0.07648348
v -0.02652071 -0.01187939 0.07614701
v -0.02978235 -0.01203374 0.07606289
v -0.02955427 -0.01187121 0.07614701
v -0.03797637 -0.00008947 0.01401738
v -0.03170969 -0.01203374 0.00813599
v -0.03639972 -0.00008947 0.07867762
v -0.03712960 -0.00008947 0.07864957
v -0.03791365 -0.00008947 0.07860752
v -0.03864638 -0.00082027 0.07856546
v -0.03864638 -0.00233567 0.07846731
v -0.03864638 -0.00385106 0.07829908
v -0.03712960 -0.00536646 0.07813784
v -0.03712960 -0.00647378 0.07789249
v -0.03561568 -0.00658369 0.07792054
v -0.03258497 -0.00667489 0.07794857
v -0.03106819 -0.00746884 0.07775931
v -0.02652071 -0.00673804 0.07796259
v -0.02652071 -0.00749573 0.07776631
v -0.02604458 -0.00725837 0.07782940
v -0.02604458 -0.00673920 0.07796259
v -0.02604458 -0.01074168 0.07663771
v -0.02652071 -0.01112169 0.07648348
v -0.03106819 -0.01203374 0.07605588
v -0.03106819 -0.01186185 0.07614000
v -0.02955427 -0.01111351 0.07648348
v -0.03106819 -0.01110416 0.07648348
v -0.03858080 -0.00008947 0.01385615
v -0.03250799 -0.01203374 0.00791868
v -0.03864638 -0.00008947 0.07856546
v -0.03943043 -0.00008947 0.07851638
v -0.04016031 -0.00082027 0.07846731
v -0.04016031 -0.00233567 0.07836918
v -0.04016031 -0.00385106 0.07820794
v -0.03864638 -0.00536646 0.07804672
v -0.03961005 -0.00617327 0.07781539
v -0.04013465 -0.00675908 0.07763313
v -0.03712960 -0.00723147 0.07769622
v -0.03561568 -0.00734139 0.07772425
v -0.03409890 -0.00738582 0.07773828
v -0.03409890 -0.00839609 0.07743685
v -0.03258497 -0.00839609 0.07745787
v -0.03106819 -0.00839609 0.07747891
v -0.02604458 -0.00749690 0.07776631
v -0.02803749 -0.00839609 0.07748592
v -0.02604458 -0.00811429 0.07757704
v -0.02604458 -0.00991148 0.07696717
v -0.02652071 -0.00991148 0.07696717
v -0.03258497 -0.01203374 0.07603484
v -0.03258497 -0.01184081 0.07613299
v -0.02955427 -0.00991148 0.07696016
v -0.03106819 -0.00991148 0.07695316
v -0.03258497 -0.00991148 0.07693914
v -0.03409890 -0.01105855 0.07646245
v -0.03937626 -0.00008947 0.01368791
v -0.03256501 -0.01203374 0.00790466
v -0.03377957 -0.01203374 0.00761725
v -0.04016031 -0.00008947 0.07846731
v -0.04167423 -0.00082027 0.07836217
v -0.04167423 -0.00233567 0.07826402
v -0.04167423 -0.00385106 0.07810280
v -0.04167423 -0.00507765 0.07789950
v -0.04013465 -0.00546468 0.07793456
v -0.04061648 -0.00603529 0.07778033
v -0.04167423 -0.00688069 0.07747891
v -0.04016031 -0.00839609 0.07717047
v -0.03864638 -0.00839609 0.07726160
v -0.03712960 -0.00839609 0.07735272
v -0.03561568 -0.00839609 0.07740880
v -0.03409890 -0.00991148 0.07691810
v -0.02604458 -0.00839609 0.07748592
v -0.03409890 -0.01203374 0.07600681
v -0.03409890 -0.01181625 0.07611897
v -0.03561568 -0.01102698 0.07644844
v -0.04016031 -0.00008947 0.01353369
v -0.03409890 -0.01203374 0.00755416
v -0.04167423 -0.00008947 0.07836217
v -0.04318816 -0.00082027 0.07818692
v -0.04318816 -0.00233567 0.07808877
v -0.04321382 -0.00385106 0.07792054
v -0.04272343 -0.00481807 0.07785044
v -0.04167423 -0.00583534 0.07773828
v -0.04318816 -0.00688069 0.07728963
v -0.04167423 -0.00839609 0.07704429
v -0.04016031 -0.00991148 0.07664471
v -0.03712960 -0.00991148 0.07683398
v -0.03561568 -0.00991148 0.07689007
v -0.03561568 -0.01203374 0.07597175
v -0.03561568 -0.01178468 0.07609793
v -0.03712960 -0.01095449 0.07641338
v -0.04167423 -0.00008947 0.01338648
v -0.03506542 -0.01203374 0.00739293
v -0.03561568 -0.01203374 0.00731582
v -0.04318816 -0.00008947 0.07818692
v -0.04527515 -0.00008947 0.07787147
v -0.04559448 -0.00053029 0.07782239
v -0.04545192 -0.00154055 0.07780137
v -0.04621887 -0.00233567 0.07761210
v -0.04416323 -0.00334593 0.07783641
v -0.04621887 -0.00385106 0.07745086
v -0.04373272 -0.00435620 0.07776631
v -0.04621887 -0.00536646 0.07718449
v -0.04321382 -0.00534074 0.07765415
v -0.04470494 -0.00688069 0.07705831
v -0.04621887 -0.00818211 0.07645545
v -0.04483324 -0.00853640 0.07656060
v -0.04318816 -0.00839609 0.07684800
v -0.04318816 -0.00955953 0.07644844
v -0.04155734 -0.00997813 0.07649751
v -0.04097287 -0.01068555 0.07629421
v -0.04016031 -0.01074518 0.07632226
v -0.03864638 -0.01084925 0.07637133
v -0.03594070 -0.01203374 0.07595774
v -0.03712960 -0.01171218 0.07606289
v -0.04016031 -0.01150288 0.07597876
v -0.04318816 -0.00008947 0.01349864
v -0.03642538 -0.01203374 0.00723871
v -0.03712960 -0.01203374 0.00718263
v -0.03787373 -0.01203374 0.00717562
v -0.03864638 -0.01203374 0.00716861
v -0.04558308 -0.00008947 0.07782239
v -0.04623882 -0.00008947 0.07771023
v -0.04614759 -0.00094889 0.07771724
v -0.04773564 -0.00082027 0.07742984
v -0.04773564 -0.00233567 0.07732469
v -0.04773564 -0.00385106 0.07715644
v -0.04773564 -0.00536646 0.07688306
v -0.04621887 -0.00688069 0.07682698
v -0.04726807 -0.00787809 0.07636432
v -0.04621887 -0.00893980 0.07621710
v -0.04542341 -0.00913508 0.07628019
v -0.04441128 -0.00933035 0.07635730
v -0.04318816 -0.01031723 0.07614701
v -0.04198215 -0.01052770 0.07623112
v -0.04155734 -0.01128540 0.07594372
v -0.03712960 -0.01203374 0.07590165
v -0.03752590 -0.01203374 0.07588063
v -0.04156874 -0.01203374 0.07557219
v -0.04065354 -0.01203374 0.07566331
v -0.04016031 -0.01203374 0.07571239
v -0.03864638 -0.01203374 0.07581053
v -0.04376978 -0.00008947 0.01367389
v -0.04016031 -0.01203374 0.00728778
v -0.04167423 -0.01203374 0.00756117
v -0.04331931 -0.01203374 0.00803084
v -0.04773564 -0.00008947 0.07742984
v -0.04851969 -0.00008947 0.07723356
v -0.04925242 -0.00082027 0.07704429
v -0.04925242 -0.00233567 0.07693914
v -0.04925242 -0.00385106 0.07676389
v -0.05017617 -0.00482274 0.07633627
v -0.04926383 -0.00534308 0.07647647
v -0.04876774 -0.00641414 0.07636432
v -0.04775845 -0.00690407 0.07650452
v -0.04827735 -0.00742441 0.07623112
v -0.04775845 -0.00838790 0.07606289
v -0.04773564 -0.00991148 0.07548806
v -0.04621887 -0.00991148 0.07583156
v -0.04483324 -0.00986588 0.07607691
v -0.04470494 -0.01142688 0.07541796
v -0.04318816 -0.01142688 0.07564930
v -0.04406630 -0.01203374 0.07522869
v -0.04457379 -0.00008947 0.01393326
v -0.04405204 -0.01203374 0.00832526
v -0.04925242 -0.00008947 0.07704429
v -0.05003647 -0.00008947 0.07681997
v -0.05124533 -0.00008947 0.07646946
v -0.05169295 -0.00082027 0.07633627
v -0.05159317 -0.00181066 0.07630824
v -0.05144206 -0.00282092 0.07626618
v -0.05120827 -0.00385106 0.07619608
v -0.05228313 -0.00385106 0.07587362
v -0.05228313 -0.00536646 0.07557920
v -0.05071503 -0.00534308 0.07606289
v -0.04977702 -0.00583301 0.07621710
v -0.05076635 -0.00688069 0.07567032
v -0.05089180 -0.00852471 0.07513056
v -0.05147912 -0.00911637 0.07475903
v -0.04922676 -0.00994773 0.07505344
v -0.04971715 -0.01047742 0.07468893
v -0.04870501 -0.01079663 0.07482913
v -0.04773564 -0.01107843 0.07496932
v -0.04625023 -0.01152627 0.07510952
v -0.04543482 -0.01203374 0.07501840
v -0.04525520 -0.00008947 0.01430479
v -0.04466502 -0.01203374 0.00859865
v -0.04595087 -0.01203374 0.00927161
v -0.04641844 -0.01203374 0.00952397
v -0.05169580 -0.00008947 0.07633627
v -0.05245134 -0.00082027 0.07611195
v -0.05217194 -0.00232397 0.07609092
v -0.05379705 -0.00233567 0.07549508
v -0.05379705 -0.00385106 0.07530581
v -0.05381701 -0.00527292 0.07501139
v -0.05332662 -0.00657200 0.07489923
v -0.05240573 -0.00699879 0.07512355
v -0.05198376 -0.00810610 0.07493428
v -0.05299590 -0.00758226 0.07475202
v -0.05240573 -0.00852471 0.07462584
v -0.05228313 -0.00991148 0.07410709
v -0.05217479 -0.01135789 0.07348320
v -0.05173002 -0.01203374 0.07332899
v -0.05076635 -0.01142688 0.07394587
v -0.05089180 -0.00994773 0.07457677
v -0.04773564 -0.01183613 0.07459779
v -0.04701147 -0.01203374 0.07469594
v -0.04671495 -0.01203374 0.07477305
v -0.04593376 -0.01203374 0.07492726
v -0.04552035 -0.00008947 0.01457818
v -0.04678338 -0.01203374 0.00980437
v -0.04709985 -0.01203374 0.01005673
v -0.04762445 -0.01203374 0.01050537
v -0.04789530 -0.01203374 0.01076474
v -0.05245419 -0.00008947 0.07611195
v -0.05379705 -0.00008947 0.07560723
v -0.05379705 -0.00082027 0.07560022
v -0.05516843 -0.00082027 0.07499035
v -0.05516843 -0.00233567 0.07487820
v -0.05476642 -0.00385106 0.07487119
v -0.05460676 -0.00470581 0.07479407
v -0.05433591 -0.00571608 0.07467490
v -0.05516843 -0.00670997 0.07402999
v -0.05516843 -0.00689121 0.07398091
v -0.05381701 -0.00699879 0.07455573
v -0.05516843 -0.00822654 0.07354629
v -0.05516843 -0.00830956 0.07351826
v -0.05379705 -0.00839609 0.07409308
v -0.05373718 -0.00985653 0.07351826
v -0.05319263 -0.01080716 0.07332198
v -0.05260815 -0.01181742 0.07306961
v -0.05138789 -0.01203374 0.07344816
v -0.05251407 -0.01203374 0.07298549
v -0.05076635 -0.01203374 0.07363743
v -0.04798369 -0.01203374 0.07442955
v -0.04588244 -0.00008947 0.01499177
v -0.04836573 -0.01203374 0.01125544
v -0.05447276 -0.00008947 0.07530581
v -0.05516843 -0.00008947 0.07499035
v -0.05516843 -0.00385106 0.07468191
v -0.05516843 -0.00525187 0.07440853
v -0.05516843 -0.00528461 0.07440152
v -0.05516843 -0.00846390 0.07345517
v -0.05471225 -0.00931515 0.07332899
v -0.05516843 -0.00989511 0.07286632
v -0.05420476 -0.01032541 0.07309766
v -0.05516843 -0.01130644 0.07219336
v -0.05516843 -0.01142220 0.07213728
v -0.05373718 -0.01135789 0.07280323
v -0.05516843 -0.01163384 0.07202513
v -0.05494034 -0.01203374 0.07191297
v -0.04899012 -0.01203374 0.01203355
v -0.05516843 -0.01203374 0.01999691
v -0.04671210 -0.00008947 0.01640779
v -0.05516843 -0.00008947 0.03913421
v -0.05516843 -0.01203374 0.07179380
v -0.05516843 -0.00010467 0.03910617
v -0.04696015 -0.00008947 0.01705972
f 1 2 3
f 1 3 4
f 1 4 10
f 1 10 19
f 1 19 31
f 1 31 48
f 1 48 49
f 1 49 70
f 1 70 69
f 1 69 93
f 1 93 95
f 1 95 120
f 1 120 96
f 1 96 71
f 1 71 50
f 1 50 33
f 1 33 21
f 1 21 11
f 1 11 5
f 1 5 12
f 1 12 22
f 1 22 35
f 1 35 54
f 1 54 77
f 1 77 104
f 1 104 124
f 1 124 140
f 1 140 165
f 1 165 191
f 1 191 212
f 1 212 234
f 1 234 258
f 1 258 284
f 1 284 302
f 1 302 306
f 1 306 303
f 1 303 287
f 1 287 286
f 1 286 264
f 1 264 263
f 1 263 238
f 1 238 216
f 1 216 215
f 1 215 214
f 1 214 196
f 1 196 195
f 1 195 171
f 1 171 170
f 1 170 144
f 1 144 143
f 1 143 126
f 1 126 107
f 1 107 80
f 1 80 79
f 1 79 58
f 1 58 57
f 1 57 56
f 1 56 37
f 1 37 23
f 1 23 13
f 1 13 6
f 1 6 2
f 2 6 7
f 2 7 3
f 3 7 16
f 3 16 8
f 3 8 9
f 3 9 10
f 3 10 4
f 5 11 12
f 6 13 7
f 7 13 23
f 7 23 14
f 7 14 15
f 7 15 16
f 8 16 28
f 8 28 17
f 8 17 18
f 8 18 9
f 9 18 19
f 9 19 10
f 11 20 12
f 11 21 34
f 11 34 52
f 11 52 73
f 11 73 98
f 11 98 121
f 11 121 137
f 11 137 162
f 11 162 185
f 11 185 186
f 11 186 190
f 11 190 189
f 11 189 188
f 11 188 187
f 11 187 211
f 11 211 233
f 11 233 257
f 11 257 256
f 11 256 255
f 11 255 283
f 11 283 282
f 11 282 280
f 11 280 251
f 11 251 281
f 11 281 299
f 11 299 304
f 11 304 301
f 11 301 300
f 11 300 285
f 11 285 262
f 11 262 261
f 11 261 260
f 11 260 259
f 11 259 237
f 11 237 236
f 11 236 235
f 11 235 213
f 11 213 194
f 11 194 193
f 11 193 192
f 11 192 169
f 11 169 168
f 11 168 167
f 11 167 166
f 11 166 142
f 11 142 141
f 11 141 125
f 11 125 106
f 11 106 105
f 11 105 78
f 11 78 55
f 11 55 36
f 11 36 32
f 11 32 20
f 12 20 22
f 14 23 24
f 14 24 15
f 15 25 26
f 15 26 27
f 15 27 28
f 15 28 16
f 15 24 25
f 17 28 45
f 17 45 29
f 17 29 30
f 17 30 18
f 18 30 31
f 18 31 19
f 20 32 22
f 21 33 34
f 22 32 36
f 22 36 35
f 23 37 24
f 24 37 38
f 24 38 25
f 25 38 39
f 25 39 40
f 25 40 41
f 25 41 42
f 25 42 26
f 26 42 43
f 26 43 27
f 27 43 44
f 27 44 45
f 27 45 28
f 29 45 46
f 29 46 47
f 29 47 30
f 30 48 31
f 30 47 49
f 30 49 48
f 33 50 72
f 33 72 51
f 33 51 34
f 34 51 53
f 34 53 52
f 35 36 54
f 36 55 54
f 37 56 39
f 37 39 38
f 39 56 57
f 39 57 58
f 39 58 59
f 39 59 60
f 39 60 40
f 40 60 41
f 41 60 61
f 41 61 84
f 41 84 62
f 41 62 43
f 41 43 42
f 43 62 63
f 43 63 64
f 43 64 65
f 43 65 44
f 44 65 45
f 45 65 46
f 46 65 66
f 46 66 47
f 47 67 49
f 47 66 68
f 47 68 69
f 47 69 67
f 49 67 70
f 50 71 72
f 51 72 75
f 51 75 53
f 52 53 73
f 53 74 73
f 53 75 76
f 53 76 74
f 54 55 78
f 54 78 77
f 58 79 59
f 59 79 80
f 59 80 81
f 59 81 82
f 59 82 60
f 60 82 83
f 60 83 61
f 61 83 84
f 62 84 85
f 62 85 63
f 63 85 86
f 63 86 87
f 63 87 88
f 63 88 64
f 64 88 65
f 65 88 89
f 65 89 66
f 66 89 90
f 66 90 91
f 66 91 92
f 66 92 68
f 67 69 70
f 68 93 69
f 68 92 94
f 68 94 95
f 68 95 93
f 71 75 72
f 71 96 97
f 71 97 75
f 73 74 99
f 73 99 98
f 74 76 99
f 75 97 100
f 75 100 76
f 76 100 101
f 76 101 102
f 76 102 103
f 76 103 99
f 77 78 105
f 77 105 106
f 77 106 104
f 80 107 81
f 81 107 126
f 81 126 108
f 81 108 109
f 81 109 82
f 82 109 110
f 82 110 83
f 83 110 111
f 83 111 112
f 83 112 84
f 84 112 85
f 85 112 113
f 85 113 86
f 86 114 115
f 86 115 87
f 86 113 114
f 87 115 116
f 87 116 117
f 87 117 88
f 88 117 118
f 88 118 90
f 88 90 89
f 90 118 136
f 90 136 119
f 90 119 102
f 90 102 91
f 91 102 92
f 92 102 101
f 92 101 100
f 92 100 94
f 94 120 95
f 94 100 97
f 94 97 96
f 94 96 120
f 98 99 122
f 98 122 121
f 99 103 122
f 102 119 103
f 103 119 123
f 103 123 122
f 104 106 125
f 104 125 124
f 108 126 143
f 108 143 127
f 108 127 128
f 108 128 109
f 109 128 110
f 110 128 129
f 110 129 130
f 110 130 111
f 111 130 131
f 111 131 113
f 111 113 112
f 113 131 114
f 114 132 133
f 114 133 115
f 114 131 132
f 115 133 134
f 115 134 135
f 115 135 116
f 116 135 117
f 117 135 136
f 117 136 118
f 119 136 123
f 121 122 137
f 122 123 138
f 122 138 137
f 123 139 163
f 123 163 138
f 123 136 135
f 123 135 139
f 124 125 141
f 124 141 142
f 124 142 140
f 127 143 144
f 127 144 145
f 127 145 146
f 127 146 128
f 128 146 147
f 128 147 148
f 128 148 129
f 129 148 149
f 129 149 150
f 129 150 130
f 130 150 149
f 130 149 151
f 130 151 152
f 130 152 132
f 130 132 131
f 132 152 153
f 132 153 154
f 132 154 155
f 132 155 156
f 132 156 133
f 133 156 157
f 133 157 158
f 133 158 134
f 134 158 159
f 134 159 160
f 134 160 135
f 135 160 161
f 135 161 139
f 137 138 162
f 138 163 162
f 139 161 164
f 139 164 163
f 140 142 166
f 140 166 167
f 140 167 168
f 140 168 169
f 140 169 165
f 144 170 145
f 145 170 171
f 145 171 172
f 145 172 146
f 146 172 147
f 147 172 173
f 147 173 174
f 147 174 149
f 147 149 148
f 149 174 175
f 149 175 151
f 151 175 176
f 151 176 177
f 151 177 152
f 152 177 153
f 153 177 154
f 154 177 178
f 154 178 179
f 154 179 180
f 154 180 155
f 155 180 156
f 156 180 181
f 156 181 157
f 157 181 182
f 157 182 183
f 157 183 158
f 158 183 159
f 159 183 184
f 159 184 164
f 159 164 160
f 160 164 161
f 162 163 185
f 163 164 186
f 163 186 185
f 164 184 187
f 164 187 188
f 164 188 189
f 164 189 190
f 164 190 186
f 165 169 192
f 165 192 193
f 165 193 194
f 165 194 191
f 171 195 173
f 171 173 172
f 173 195 196
f 173 196 197
f 173 197 198
f 173 198 174
f 174 198 175
f 175 198 199
f 175 199 176
f 176 199 200
f 176 200 201
f 176 201 202
f 176 202 203
f 176 203 177
f 177 203 178
f 178 204 205
f 178 205 179
f 178 203 204
f 179 205 206
f 179 206 207
f 179 207 180
f 180 207 208
f 180 208 181
f 181 208 182
f 182 208 209
f 182 209 210
f 182 210 183
f 183 210 184
f 184 210 211
f 184 211 187
f 191 194 212
f 194 213 212
f 196 214 197
f 197 214 215
f 197 215 216
f 197 216 217
f 197 217 218
f 197 218 198
f 198 218 219
f 198 219 199
f 199 219 220
f 199 220 200
f 200 220 221
f 200 221 222
f 200 222 223
f 200 223 201
f 201 223 224
f 201 224 202
f 202 204 203
f 202 224 225
f 202 225 204
f 204 225 226
f 204 226 205
f 205 226 227
f 205 227 206
f 206 227 228
f 206 228 229
f 206 229 230
f 206 230 231
f 206 231 232
f 206 232 207
f 207 232 209
f 207 209 208
f 209 232 233
f 209 233 211
f 209 211 210
f 212 213 235
f 212 235 236
f 212 236 237
f 212 237 234
f 216 238 217
f 217 238 263
f 217 263 239
f 217 239 218
f 218 239 240
f 218 240 219
f 219 240 221
f 219 221 220
f 221 241 242
f 221 242 222
f 221 240 241
f 222 242 243
f 222 243 244
f 222 244 245
f 222 245 225
f 222 225 223
f 223 225 224
f 225 245 246
f 225 246 226
f 226 246 227
f 227 246 247
f 227 247 248
f 227 248 249
f 227 249 250
f 227 250 251
f 227 251 252
f 227 252 253
f 227 253 228
f 228 253 229
f 229 253 252
f 229 252 230
f 230 252 231
f 231 252 254
f 231 254 255
f 231 255 256
f 231 256 232
f 232 256 257
f 232 257 233
f 234 237 259
f 234 259 260
f 234 260 261
f 234 261 262
f 234 262 258
f 239 263 264
f 239 264 265
f 239 265 241
f 239 241 240
f 241 266 267
f 241 267 268
f 241 268 242
f 241 265 266
f 242 268 269
f 242 269 243
f 243 269 270
f 243 270 244
f 244 270 271
f 244 271 272
f 244 272 273
f 244 273 247
f 244 247 245
f 245 247 246
f 247 273 272
f 247 272 274
f 247 274 275
f 247 275 276
f 247 276 248
f 248 276 277
f 248 277 249
f 249 277 278
f 249 278 250
f 250 278 279
f 250 279 251
f 251 280 252
f 251 279 281
f 252 280 282
f 252 282 283
f 252 283 254
f 254 283 255
f 258 262 285
f 258 285 284
f 264 286 266
f 264 266 265
f 266 286 287
f 266 287 303
f 266 303 305
f 266 305 301
f 266 301 304
f 266 304 298
f 266 298 296
f 266 296 295
f 266 295 293
f 266 293 291
f 266 291 275
f 266 275 274
f 266 274 272
f 266 272 271
f 266 271 290
f 266 290 289
f 266 289 288
f 266 288 267
f 267 288 268
f 268 288 269
f 269 288 289
f 269 289 290
f 269 290 270
f 270 290 271
f 275 291 292
f 275 292 276
f 276 292 277
f 277 292 293
f 277 293 294
f 277 294 278
f 278 294 295
f 278 295 296
f 278 296 297
f 278 297 279
f 279 297 296
f 279 296 298
f 279 298 299
f 279 299 281
f 284 285 300
f 284 300 301
f 284 301 302
f 291 293 292
f 293 295 294
f 298 304 299
f 301 305 306
f 301 306 302
f 303 306 305

