# https://github.com/mikedh/trimesh
v 0.00226668 -0.02760200 -0.02358285
v 0.00377920 -0.02762118 -0.02358285
v 0.00273934 -0.03342214 -0.03616103
v 0.00226668 -0.03342054 -0.03616103
v -0.00329335 -0.02760200 -0.02358285
v 0.00475936 -0.02791211 -0.02358285
v 0.00469468 -0.03343972 -0.03570548
v 0.00377920 -0.03344132 -0.03616103
v -0.00226592 -0.03342054 -0.03616103
v -0.00377845 -0.03344132 -0.03616103
v -0.00377845 -0.02762118 -0.02358285
v 0.00508027 -0.02831333 -0.02358285
v 0.00512754 -0.03422619 -0.03616103
v -0.00426355 -0.03354043 -0.03616103
v -0.00432077 -0.02764835 -0.02358285
v 0.01270261 -0.04393069 -0.02358285
v 0.01124979 -0.04393069 -0.03616103
v -0.00469393 -0.03343972 -0.03570548
v -0.00512679 -0.03422619 -0.03616103
v -0.00476109 -0.02791211 -0.02358285
v -0.01271181 -0.04393069 -0.02358285
v -0.01124406 -0.04393069 -0.03616103
v -0.00513674 -0.03423578 -0.03616103
v -0.00495514 -0.02810712 -0.02358285
v -0.00507952 -0.02831333 -0.02358285
f 1 2 3
f 1 3 4
f 1 4 9
f 1 9 5
f 1 5 11
f 1 11 15
f 1 15 20
f 1 20 24
f 1 24 25
f 1 25 21
f 1 21 16
f 1 16 12
f 1 12 6
f 1 6 2
f 2 6 7
f 2 7 8
f 2 8 3
f 3 8 13
f 3 13 17
f 3 17 22
f 3 22 23
f 3 23 19
f 3 19 14
f 3 14 10
f 3 10 9
f 3 9 4
f 5 9 10
f 5 10 11
f 6 12 7
f 7 12 13
f 7 13 8
f 10 14 15
f 10 15 11
f 12 16 17
f 12 17 13
f 14 18 15
f 14 19 18
f 15 18 20
f 16 21 22
f 16 22 17
f 18 19 23
f 18 23 24
f 18 24 20
f 21 25 22
f 22 25 24
f 22 24 23

