# https://github.com/mikedh/trimesh
v -0.02040842 -0.02722003 0.00117807
v -0.02040842 -0.02712929 0.00114391
v -0.02125741 -0.02722003 0.00117807
v -0.01889643 -0.02722003 0.00115680
v -0.02125741 -0.02712929 0.00114391
v -0.01889643 -0.02718687 0.00114391
v -0.02040842 -0.02637289 0.00083333
v -0.02125741 -0.02722003 -0.00540413
v -0.01843936 -0.02722003 0.00114391
v -0.02125741 -0.02637289 0.00083333
v -0.02040842 -0.02308555 -0.00057010
v -0.02040842 -0.02384108 -0.00024598
v -0.02040842 -0.02527798 0.00036874
v -0.01720633 -0.02722003 -0.00540413
v -0.02125741 -0.01894584 -0.00540413
v -0.01739862 -0.02722003 0.00102020
v -0.01952371 -0.01992733 -0.00202186
v -0.02125741 -0.02527798 0.00036874
v -0.02040842 -0.02225499 -0.00093868
v -0.02125741 -0.02308555 -0.00057010
v -0.02125741 -0.02384108 -0.00024598
v -0.02125741 -0.02464808 0.00009940
v -0.01698778 -0.02075091 -0.00540413
v -0.01589030 -0.02722003 0.00021732
v -0.02125741 -0.01830809 -0.00395109
v -0.02040842 -0.01830809 -0.00395109
v -0.02040842 -0.01895282 -0.00540413
v -0.01811206 -0.02135812 -0.00200253
v -0.01851659 -0.02035046 -0.00239881
v -0.01937188 -0.01836392 -0.00337245
v -0.02040842 -0.01914126 -0.00252317
v -0.02040842 -0.01989679 -0.00200768
v -0.02040842 -0.02074393 -0.00162106
v -0.02125741 -0.02159281 -0.00123766
v -0.02125741 -0.02225499 -0.00093868
v -0.01698936 -0.02073869 -0.00540413
v -0.01698726 -0.02074393 -0.00540220
v -0.01810576 -0.01985143 -0.00340660
v -0.02125741 -0.01830809 -0.00327901
v -0.02040842 -0.01830809 -0.00327901
v -0.01937188 -0.01836392 -0.00382093
v -0.01946907 -0.01907234 -0.00540413
v -0.01758197 -0.01971358 -0.00540413
v -0.01783414 -0.01949285 -0.00540413
v -0.02125741 -0.01914126 -0.00252317
v -0.02125741 -0.01877571 -0.00285438
v -0.02125741 -0.01989767 -0.00200832
v -0.02125741 -0.02074393 -0.00162106
v -0.02125741 -0.01956614 -0.00223385
f 1 2 5
f 1 5 3
f 1 3 8
f 1 8 14
f 1 14 24
f 1 24 16
f 1 16 9
f 1 9 4
f 1 4 2
f 2 4 6
f 2 6 7
f 2 7 10
f 2 10 5
f 3 5 10
f 3 10 18
f 3 18 22
f 3 22 21
f 3 21 20
f 3 20 35
f 3 35 34
f 3 34 48
f 3 48 47
f 3 47 49
f 3 49 45
f 3 45 46
f 3 46 39
f 3 39 25
f 3 25 15
f 3 15 8
f 4 9 6
f 6 9 11
f 6 11 12
f 6 12 13
f 6 13 7
f 7 13 18
f 7 18 10
f 8 15 27
f 8 27 42
f 8 42 44
f 8 44 43
f 8 43 36
f 8 36 23
f 8 23 14
f 9 16 17
f 9 17 11
f 11 19 35
f 11 35 20
f 11 20 21
f 11 21 12
f 11 17 19
f 12 21 22
f 12 22 13
f 13 22 18
f 14 23 24
f 15 25 26
f 15 26 27
f 16 24 17
f 17 28 29
f 17 29 30
f 17 30 31
f 17 31 32
f 17 32 33
f 17 33 19
f 17 24 28
f 19 33 34
f 19 34 35
f 23 36 37
f 23 37 24
f 24 37 38
f 24 38 28
f 25 39 40
f 25 40 26
f 26 40 30
f 26 30 41
f 26 41 27
f 27 41 42
f 28 38 29
f 29 38 30
f 30 38 43
f 30 43 44
f 30 44 41
f 30 40 31
f 31 45 32
f 31 40 46
f 31 46 45
f 32 47 48
f 32 48 33
f 32 45 49
f 32 49 47
f 33 48 34
f 36 43 38
f 36 38 37
f 39 46 40
f 41 44 42

