# https://github.com/mikedh/trimesh
v -0.04240686 -0.04039460 0.00344344
v -0.04240686 -0.03888422 0.00343736
v -0.04308565 -0.03888422 0.00336804
v -0.04308565 -0.04039460 0.00337169
v -0.04240686 -0.04190498 0.00336075
v -0.04240686 -0.03737092 0.00334980
v -0.04308565 -0.03737092 0.00328413
v -0.04459750 -0.03888422 0.00317590
v -0.04459750 -0.03737092 0.00310171
v -0.04459750 -0.04039460 0.00317468
v -0.04308565 -0.04190498 0.00328656
v -0.04240686 -0.04341828 0.00319657
v -0.04240686 -0.03586054 0.00318563
v -0.04308565 -0.03586054 0.00312117
v -0.04459750 -0.03586054 0.00294484
v -0.04610936 -0.03888422 0.00295456
v -0.04610936 -0.03737092 0.00288281
v -0.04610936 -0.03586054 0.00274053
v -0.04610936 -0.04039460 0.00293754
v -0.04459750 -0.04190498 0.00308955
v -0.04308565 -0.04341828 0.00311995
v -0.04240686 -0.04424958 0.00305428
v -0.04240686 -0.03434723 0.00294362
v -0.04308565 -0.03434723 0.00288768
v -0.04459750 -0.03434723 0.00272350
v -0.04599903 -0.03442334 0.00255689
v -0.04699665 -0.03497656 0.00250703
v -0.04761934 -0.03888422 0.00268823
v -0.04773434 -0.03732994 0.00260797
v -0.04846643 -0.03780705 0.00250460
v -0.04729490 -0.03586054 0.00256054
v -0.04831403 -0.03680013 0.00247420
v -0.04761934 -0.04039460 0.00266756
v -0.04839630 -0.04119077 0.00249000
v -0.04610936 -0.04190498 0.00284390
v -0.04459750 -0.04341828 0.00290957
v -0.04308565 -0.04492866 0.00286092
v -0.04240686 -0.04492866 0.00293632
v -0.04240686 -0.03289540 0.00263229
v -0.04308565 -0.03304175 0.00261770
v -0.04542215 -0.03354521 0.00249609
v -0.04459750 -0.03333739 0.00253987
v -0.04805036 -0.03586054 0.00242920
v -0.04643005 -0.03396671 0.00241947
v -0.04754735 -0.03442334 0.00232097
v -0.04913119 -0.03434723 0.00202788
v -0.04850009 -0.03888422 0.00251190
v -0.04844773 -0.04039460 0.00250217
v -0.04903489 -0.03732994 0.00235623
v -0.05064305 -0.03737092 0.00198653
v -0.04925555 -0.03888422 0.00234650
v -0.05064305 -0.03586054 0.00188316
v -0.04913119 -0.03586054 0.00221395
v -0.05064305 -0.04190498 0.00183573
v -0.04899282 -0.04177911 0.00227597
v -0.04812142 -0.04220061 0.00242677
v -0.04711445 -0.04300264 0.00253987
v -0.04761841 -0.04177911 0.00257757
v -0.04920319 -0.04039460 0.00232340
v -0.05064305 -0.04039460 0.00197072
v -0.04617106 -0.04347097 0.00264445
v -0.04570919 -0.04448667 0.00254959
v -0.04459844 -0.04496671 0.00263594
v -0.04409449 -0.04584777 0.00252527
v -0.04308565 -0.04611413 0.00259216
v -0.04240686 -0.04558140 0.00278795
v -0.04240686 -0.03218412 0.00246082
v -0.04308565 -0.03228656 0.00243771
v -0.04459750 -0.03258513 0.00237204
v -0.04610936 -0.03132648 0.00189776
v -0.04599903 -0.03296272 0.00228691
v -0.04761934 -0.03283978 0.00202302
v -0.04913119 -0.03283978 0.00176885
v -0.05064305 -0.03434723 0.00171047
v -0.05064305 -0.03283978 0.00146725
v -0.05064305 -0.03888422 0.00202180
v -0.05195762 -0.03586054 0.00155481
v -0.05195762 -0.03737092 0.00164115
v -0.05195762 -0.03434723 0.00139185
v -0.05195762 -0.04190498 0.00145631
v -0.05064305 -0.04341828 0.00163021
v -0.04913119 -0.04341828 0.00201937
v -0.05195762 -0.04039460 0.00160346
v -0.04761841 -0.04347097 0.00235015
v -0.04671709 -0.04400956 0.00245717
v -0.05195762 -0.03888422 0.00166426
v -0.04617106 -0.04496671 0.00237083
v -0.04510239 -0.04549359 0.00244501
v -0.04459844 -0.04638928 0.00230394
v -0.04308565 -0.04687225 0.00240244
v -0.04240686 -0.04630732 0.00262135
v -0.04240686 -0.04703324 0.00244379
v -0.04240686 -0.03137331 0.00224192
v -0.04308565 -0.03132648 0.00217990
v -0.04459750 -0.03132648 0.00205828
v -0.04761934 -0.03132648 0.00169466
v -0.04610936 -0.02981610 0.00148184
v -0.04761934 -0.02981610 0.00130064
v -0.04913119 -0.03132648 0.00144901
v -0.05067578 -0.03128257 0.00115106
v -0.05195762 -0.03287491 0.00117052
v -0.05167620 -0.03175969 0.00104161
v -0.05195762 -0.04337438 0.00123740
v -0.05170611 -0.04465351 0.00107688
v -0.05078330 -0.04506624 0.00126294
v -0.04913119 -0.04492866 0.00172750
v -0.04761934 -0.04492866 0.00208625
v -0.04761934 -0.04644197 0.00172507
v -0.04610936 -0.04644197 0.00202666
v -0.04459750 -0.04795234 0.00184303
v -0.04308565 -0.04795234 0.00206436
v -0.04240686 -0.04736107 0.00234042
v -0.04240686 -0.02981610 0.00178952
v -0.04308565 -0.02981610 0.00174209
v -0.04459750 -0.02981610 0.00162170
v -0.04899843 -0.02983366 0.00109998
v -0.04610936 -0.02862477 0.00111579
v -0.04761934 -0.02887943 0.00103066
v -0.04840565 -0.02904335 0.00097837
v -0.05019426 -0.03035176 0.00103188
v -0.05120123 -0.03074984 0.00093581
v -0.05195762 -0.03193824 0.00100634
v -0.05195762 -0.03148747 0.00091513
v -0.05195762 -0.04398321 0.00112430
v -0.05195762 -0.04487012 0.00094310
v -0.05138075 -0.04566336 0.00096864
v -0.04924994 -0.04655905 0.00128361
v -0.04882546 -0.04756011 0.00110363
v -0.04762682 -0.04801967 0.00122524
v -0.04610936 -0.04795234 0.00156089
v -0.04610936 -0.04821578 0.00146847
v -0.04493129 -0.04821578 0.00168737
v -0.04459937 -0.04821578 0.00174574
v -0.04308565 -0.04821578 0.00196829
v -0.04240686 -0.04791137 0.00215922
v -0.04240686 -0.02822962 0.00127267
v -0.04316606 -0.02816522 0.00120335
v -0.04459750 -0.02843159 0.00118025
v -0.04941356 -0.02934484 0.00089689
v -0.04610936 -0.02786958 0.00086770
v -0.04761934 -0.02812424 0.00079230
v -0.04913119 -0.02679242 0.00016722
v -0.04899843 -0.02844622 0.00070717
v -0.05067578 -0.02983366 0.00080325
v -0.05195762 -0.03116549 0.00084460
v -0.05195762 -0.02830279 0.00013073
v -0.05195762 -0.02981903 0.00053084
v -0.05195762 -0.04523601 0.00086284
v -0.05195762 -0.04624293 0.00058800
v -0.05195762 -0.04645953 0.00051624
v -0.05078330 -0.04655905 0.00085919
v -0.04983336 -0.04714154 0.00095770
v -0.04924994 -0.04801967 0.00081784
v -0.04885257 -0.04821578 0.00085432
v -0.04780820 -0.04821578 0.00111701
v -0.04750995 -0.04821578 0.00118025
v -0.04240686 -0.04821578 0.00204734
v -0.04240686 -0.02746272 0.00100512
v -0.04271540 -0.02748614 0.00099661
v -0.04372330 -0.02756809 0.00096621
v -0.04459750 -0.02767640 0.00093094
v -0.05064305 -0.02830279 0.00038855
v -0.04610936 -0.02679242 0.00049435
v -0.04761934 -0.02679242 0.00035085
v -0.05064305 -0.02679242 -0.00007114
v -0.04900778 -0.02523228 -0.00035328
v -0.05064305 -0.02496006 -0.00068771
v -0.05064305 -0.02571817 -0.00042625
v -0.05195762 -0.02677193 -0.00032531
v -0.05195762 -0.04775623 0.00006628
v -0.05064305 -0.04795234 0.00042625
v -0.04923404 -0.04821578 0.00074731
v -0.04240686 -0.04821578 -0.00728759
v -0.04316606 -0.02690657 0.00075825
v -0.04240686 -0.02678071 0.00075339
v -0.04459750 -0.02679242 0.00061840
v -0.04610936 -0.02527911 -0.00005898
v -0.04842062 -0.02450929 -0.00053205
v -0.05156400 -0.02594063 -0.00050651
v -0.04942852 -0.02469955 -0.00060015
v -0.05064305 -0.02376873 -0.00111579
v -0.05195762 -0.02376873 -0.00133955
v -0.05195762 -0.02654654 -0.00039463
v -0.05195762 -0.04804601 -0.00003466
v -0.05195762 -0.04817480 -0.00008330
v -0.05064866 -0.04821578 0.00032288
v -0.05195762 -0.04821578 -0.00865451
v -0.04240686 -0.02225543 -0.00864600
v -0.04308565 -0.02527911 0.00014654
v -0.04459750 -0.02527911 0.00005533
v -0.04240686 -0.02527911 0.00017938
v -0.04610936 -0.02427805 -0.00044084
v -0.04761934 -0.02442733 -0.00049922
v -0.04761934 -0.02367214 -0.00079960
v -0.04761934 -0.02225543 -0.00136874
v -0.04913119 -0.02225543 -0.00150738
v -0.05029898 -0.02136852 -0.00199504
v -0.05073935 -0.02212371 -0.00175425
v -0.05195762 -0.02533180 -0.00079230
v -0.05195762 -0.02552791 -0.00072420
v -0.05195762 -0.02606064 -0.00054421
v -0.05130688 -0.02153244 -0.00206193
v -0.05195762 -0.02226421 -0.00189654
v -0.05195762 -0.04821578 -0.00010033
v -0.05195762 -0.02225543 -0.00898043
v -0.04240686 -0.02142413 -0.00863140
v -0.04308565 -0.02404973 -0.00034477
v -0.04459750 -0.02414633 -0.00038733
v -0.04240686 -0.02401754 -0.00032896
v -0.04610936 -0.02351993 -0.00074001
v -0.04610936 -0.02225543 -0.00125321
v -0.04761934 -0.02105825 -0.00186370
v -0.04913119 -0.02121046 -0.00192937
v -0.04913119 -0.02045527 -0.00224313
v -0.05073935 -0.02081530 -0.00227961
v -0.05195762 -0.02075383 -0.00249365
v -0.05195762 -0.02168465 -0.00211909
v -0.05195762 -0.02074505 -0.00877491
v -0.04240686 -0.02074505 -0.00858398
v -0.04308565 -0.02329454 -0.00065366
v -0.04459750 -0.02339114 -0.00069015
v -0.04240686 -0.02326235 -0.00064150
v -0.04459750 -0.02225543 -0.00115957
v -0.04610936 -0.02093238 -0.00180654
v -0.04761934 -0.02030013 -0.00218111
v -0.04913119 -0.01923175 -0.00287186
v -0.05064305 -0.01923175 -0.00302753
v -0.05195762 -0.01915857 -0.00325251
v -0.05195762 -0.01993425 -0.00819239
v -0.04240686 -0.01995181 -0.00815469
v -0.04240686 -0.02030598 -0.00836872
v -0.04308565 -0.02225543 -0.00109147
v -0.04240686 -0.02225543 -0.00106836
v -0.04459750 -0.02083872 -0.00176276
v -0.04610936 -0.02017427 -0.00212881
v -0.04761934 -0.01923175 -0.00276363
v -0.05064305 -0.01843557 -0.00350546
v -0.05144433 -0.01847070 -0.00355289
v -0.05195762 -0.01906783 -0.00330115
v -0.05195762 -0.01915271 -0.00582825
v -0.05064305 -0.01864633 -0.00445890
v -0.04913119 -0.01838289 -0.00384233
v -0.04761934 -0.01835362 -0.00389584
v -0.04610936 -0.01833313 -0.00392502
v -0.04459750 -0.01832142 -0.00393962
v -0.04240686 -0.01831264 -0.00394813
v -0.04240686 -0.01962105 -0.00733989
v -0.04308565 -0.01994888 -0.00815347
v -0.04294447 -0.02061626 -0.00179438
v -0.04459750 -0.02008060 -0.00208990
v -0.04240686 -0.01998986 -0.00204977
v -0.04610936 -0.01923175 -0.00267485
v -0.04913119 -0.01838289 -0.00343493
v -0.05064305 -0.01843557 -0.00370369
v -0.05144433 -0.01847070 -0.00358694
v -0.05195762 -0.01865804 -0.00410136
v -0.05195762 -0.01868438 -0.00419500
v -0.04761934 -0.01835362 -0.00338750
v -0.04610936 -0.01833313 -0.00334980
v -0.04459750 -0.01832142 -0.00332426
v -0.04240686 -0.01831264 -0.00330237
v -0.04335399 -0.02002791 -0.00206679
v -0.04240686 -0.01992547 -0.00209112
v -0.04459750 -0.01923175 -0.00261040
v -0.04308565 -0.01831556 -0.00330723
v -0.04240686 -0.01931663 -0.00249365
v -0.04294447 -0.01938395 -0.00246203
f 1 2 3
f 1 3 4
f 1 4 5
f 1 5 12
f 1 12 22
f 1 22 38
f 1 38 66
f 1 66 91
f 1 91 92
f 1 92 112
f 1 112 135
f 1 135 157
f 1 157 173
f 1 173 188
f 1 188 206
f 1 206 219
f 1 219 231
f 1 231 230
f 1 230 247
f 1 247 246
f 1 246 261
f 1 261 266
f 1 266 263
f 1 263 251
f 1 251 233
f 1 233 222
f 1 222 209
f 1 209 191
f 1 191 175
f 1 175 158
f 1 158 136
f 1 136 113
f 1 113 93
f 1 93 67
f 1 67 39
f 1 39 23
f 1 23 13
f 1 13 6
f 1 6 2
f 2 6 7
f 2 7 3
f 3 8 4
f 3 7 9
f 3 9 8
f 4 10 20
f 4 20 11
f 4 11 5
f 4 8 10
f 5 11 12
f 6 13 14
f 6 14 7
f 7 14 15
f 7 15 9
f 8 16 10
f 8 9 17
f 8 17 16
f 9 15 18
f 9 18 17
f 10 19 20
f 10 16 19
f 11 20 21
f 11 21 12
f 12 21 22
f 13 23 24
f 13 24 14
f 14 24 25
f 14 25 15
f 15 25 26
f 15 26 27
f 15 27 18
f 16 28 19
f 16 17 29
f 16 29 30
f 16 30 28
f 17 18 31
f 17 31 32
f 17 32 29
f 18 27 31
f 19 33 34
f 19 34 35
f 19 35 20
f 19 28 33
f 20 35 36
f 20 36 21
f 21 36 37
f 21 37 22
f 22 37 38
f 23 39 40
f 23 40 24
f 24 41 25
f 24 40 42
f 24 42 41
f 25 41 26
f 26 41 27
f 27 43 31
f 27 41 44
f 27 44 45
f 27 45 46
f 27 46 43
f 28 47 48
f 28 48 33
f 28 30 47
f 29 32 30
f 30 32 49
f 30 49 50
f 30 50 51
f 30 51 47
f 31 43 32
f 32 52 49
f 32 43 53
f 32 53 52
f 33 48 34
f 34 54 55
f 34 55 56
f 34 56 57
f 34 57 58
f 34 58 35
f 34 48 59
f 34 59 60
f 34 60 54
f 35 58 57
f 35 57 61
f 35 61 36
f 36 61 62
f 36 62 63
f 36 63 37
f 37 63 64
f 37 64 65
f 37 65 38
f 38 65 66
f 39 67 68
f 39 68 40
f 40 68 69
f 40 69 42
f 41 42 69
f 41 69 70
f 41 70 71
f 41 71 72
f 41 72 44
f 43 46 53
f 44 72 45
f 45 72 73
f 45 73 46
f 46 74 53
f 46 73 75
f 46 75 74
f 47 51 48
f 48 51 76
f 48 76 59
f 49 52 50
f 50 52 77
f 50 77 78
f 50 78 76
f 50 76 51
f 52 53 74
f 52 74 79
f 52 79 77
f 54 80 81
f 54 81 82
f 54 82 55
f 54 60 83
f 54 83 80
f 55 82 56
f 56 82 57
f 57 82 84
f 57 84 85
f 57 85 61
f 59 76 60
f 60 76 86
f 60 86 83
f 61 85 62
f 62 85 87
f 62 87 88
f 62 88 63
f 63 88 64
f 64 88 89
f 64 89 90
f 64 90 65
f 65 91 66
f 65 90 92
f 65 92 91
f 67 93 94
f 67 94 68
f 68 94 95
f 68 95 69
f 69 95 70
f 70 96 71
f 70 95 97
f 70 97 98
f 70 98 96
f 71 96 72
f 72 96 99
f 72 99 73
f 73 99 100
f 73 100 75
f 74 75 101
f 74 101 79
f 75 100 102
f 75 102 101
f 76 78 86
f 77 79 101
f 77 101 122
f 77 122 123
f 77 123 145
f 77 145 147
f 77 147 146
f 77 146 169
f 77 169 183
f 77 183 201
f 77 201 200
f 77 200 199
f 77 199 182
f 77 182 203
f 77 203 217
f 77 217 216
f 77 216 228
f 77 228 239
f 77 239 256
f 77 256 257
f 77 257 240
f 77 240 229
f 77 229 218
f 77 218 205
f 77 205 187
f 77 187 204
f 77 204 185
f 77 185 184
f 77 184 170
f 77 170 150
f 77 150 149
f 77 149 148
f 77 148 125
f 77 125 124
f 77 124 103
f 77 103 80
f 77 80 83
f 77 83 86
f 77 86 78
f 80 103 81
f 81 103 104
f 81 104 105
f 81 105 106
f 81 106 82
f 82 106 107
f 82 107 85
f 82 85 84
f 85 107 87
f 87 107 108
f 87 108 109
f 87 109 88
f 88 109 89
f 89 109 110
f 89 110 90
f 90 110 111
f 90 111 92
f 92 111 112
f 93 113 114
f 93 114 94
f 94 114 115
f 94 115 95
f 95 115 97
f 96 98 116
f 96 116 99
f 97 115 117
f 97 117 118
f 97 118 98
f 98 118 119
f 98 119 116
f 99 116 120
f 99 120 121
f 99 121 100
f 100 121 102
f 101 102 122
f 102 123 122
f 102 121 123
f 103 124 104
f 104 124 125
f 104 125 126
f 104 126 105
f 105 126 106
f 106 126 127
f 106 127 108
f 106 108 107
f 108 127 128
f 108 128 129
f 108 129 130
f 108 130 109
f 109 130 110
f 110 130 131
f 110 131 132
f 110 132 133
f 110 133 134
f 110 134 111
f 111 135 112
f 111 134 135
f 113 136 137
f 113 137 114
f 114 137 138
f 114 138 115
f 115 138 117
f 116 119 139
f 116 139 120
f 117 138 140
f 117 140 141
f 117 141 118
f 118 141 119
f 119 141 142
f 119 142 143
f 119 143 139
f 120 139 144
f 120 144 121
f 121 145 123
f 121 144 146
f 121 146 147
f 121 147 145
f 125 148 126
f 126 149 150
f 126 150 151
f 126 151 152
f 126 152 127
f 126 148 149
f 127 152 128
f 128 152 153
f 128 153 154
f 128 154 155
f 128 155 129
f 129 155 156
f 129 156 131
f 129 131 130
f 131 156 155
f 131 155 154
f 131 154 172
f 131 172 186
f 131 186 204
f 131 204 187
f 131 187 173
f 131 173 157
f 131 157 134
f 131 134 133
f 131 133 132
f 134 157 135
f 136 158 159
f 136 159 160
f 136 160 137
f 137 160 138
f 138 160 161
f 138 161 140
f 139 143 162
f 139 162 144
f 140 161 163
f 140 163 164
f 140 164 141
f 141 164 142
f 142 165 143
f 142 164 166
f 142 166 167
f 142 167 168
f 142 168 165
f 143 165 162
f 144 162 146
f 146 162 169
f 150 170 171
f 150 171 151
f 151 171 152
f 152 171 153
f 153 171 172
f 153 172 154
f 158 174 159
f 158 175 174
f 159 174 160
f 160 174 176
f 160 176 163
f 160 163 161
f 162 165 169
f 163 176 177
f 163 177 178
f 163 178 164
f 164 178 166
f 165 168 179
f 165 179 169
f 166 180 167
f 166 178 180
f 167 179 168
f 167 180 181
f 167 181 182
f 167 182 179
f 169 179 183
f 170 184 171
f 171 184 185
f 171 185 186
f 171 186 172
f 173 187 188
f 174 175 189
f 174 189 190
f 174 190 176
f 175 191 189
f 176 190 177
f 177 190 192
f 177 192 193
f 177 193 178
f 178 193 194
f 178 194 195
f 178 195 196
f 178 196 197
f 178 197 198
f 178 198 181
f 178 181 180
f 179 182 199
f 179 199 200
f 179 200 201
f 179 201 183
f 181 198 202
f 181 202 203
f 181 203 182
f 185 204 186
f 187 205 188
f 188 205 206
f 189 191 207
f 189 207 208
f 189 208 190
f 190 208 192
f 191 209 207
f 192 208 210
f 192 210 193
f 193 210 194
f 194 210 195
f 195 211 212
f 195 212 213
f 195 213 196
f 195 210 211
f 196 213 197
f 197 213 214
f 197 214 215
f 197 215 202
f 197 202 198
f 202 215 216
f 202 216 217
f 202 217 203
f 205 218 219
f 205 219 206
f 207 209 220
f 207 220 221
f 207 221 208
f 208 221 210
f 209 222 220
f 210 221 211
f 211 223 224
f 211 224 212
f 211 221 223
f 212 224 225
f 212 225 214
f 212 214 213
f 214 225 226
f 214 226 227
f 214 227 215
f 215 227 228
f 215 228 216
f 218 229 230
f 218 230 231
f 218 231 219
f 220 222 232
f 220 232 223
f 220 223 221
f 222 233 232
f 223 232 234
f 223 234 235
f 223 235 224
f 224 235 225
f 225 235 226
f 226 235 236
f 226 236 237
f 226 237 238
f 226 238 227
f 227 238 239
f 227 239 228
f 229 240 241
f 229 241 242
f 229 242 243
f 229 243 244
f 229 244 245
f 229 245 246
f 229 246 247
f 229 247 248
f 229 248 230
f 230 248 247
f 232 233 249
f 232 249 250
f 232 250 234
f 233 251 249
f 234 250 235
f 235 250 236
f 236 250 252
f 236 252 253
f 236 253 237
f 237 253 242
f 237 242 254
f 237 254 255
f 237 255 238
f 238 255 256
f 238 256 239
f 240 257 241
f 241 255 254
f 241 254 242
f 241 257 256
f 241 256 255
f 242 253 258
f 242 258 243
f 243 258 259
f 243 259 244
f 244 259 260
f 244 260 245
f 245 260 261
f 245 261 246
f 249 251 262
f 249 262 250
f 250 262 252
f 251 263 264
f 251 264 252
f 251 252 262
f 252 264 258
f 252 258 253
f 258 264 259
f 259 264 260
f 260 265 261
f 260 264 266
f 260 266 265
f 261 265 266
f 263 266 267
f 263 267 264
f 264 267 266

