# https://github.com/mikedh/trimesh
v -0.05496445 -0.04821728 -0.00129874
v -0.05516345 -0.04821728 -0.00138817
v -0.05508944 -0.04936023 -0.00183097
v -0.05496445 -0.04923905 -0.00172627
v -0.05496445 -0.04821728 -0.01028131
v -0.05543810 -0.04821728 -0.00151468
v -0.05496445 -0.04936920 -0.00178080
v -0.05634263 -0.04821728 -0.00193567
v -0.05600384 -0.04878576 -0.00201638
v -0.05496445 -0.04957266 -0.00186805
v -0.05496445 -0.05644382 -0.02358285
v -0.06101989 -0.04821728 -0.02358285
v -0.05699390 -0.04821728 -0.00225851
v -0.05701034 -0.04823224 -0.00227377
v -0.05553513 -0.04979257 -0.00225633
v -0.05496445 -0.05075900 -0.00247227
v -0.05496445 -0.06349899 -0.02358285
v -0.07176573 -0.04821728 -0.02358285
v -0.05705146 -0.04821728 -0.00228904
v -0.05896413 -0.04871844 -0.00355856
v -0.05658110 -0.04936023 -0.00260097
v -0.05806947 -0.04931984 -0.00338187
v -0.05747741 -0.05025334 -0.00354547
v -0.05656137 -0.05084576 -0.00336224
v -0.05508944 -0.05088466 -0.00260533
v -0.05517990 -0.05206950 -0.00334697
v -0.05496445 -0.05197375 -0.00318992
v -0.05517990 -0.06340773 -0.02358285
v -0.05496445 -0.06349001 -0.02331891
v -0.07143846 -0.04883663 -0.02358285
v -0.07168679 -0.04821728 -0.02271251
v -0.05846253 -0.04821728 -0.00305904
v -0.05848555 -0.04972675 -0.00383776
v -0.05912366 -0.04821728 -0.00345604
v -0.06014167 -0.04821728 -0.00418023
v -0.06101824 -0.04821728 -0.00480626
v -0.06066630 -0.04898024 -0.00493059
v -0.06029626 -0.04998855 -0.00520762
v -0.05928812 -0.05057349 -0.00484552
v -0.05697745 -0.05126165 -0.00384867
v -0.05596931 -0.05176581 -0.00354329
v -0.05496445 -0.05214729 -0.00329680
v -0.05517990 -0.05282498 -0.00383995
v -0.05496445 -0.05290576 -0.00378759
v -0.05517990 -0.06336884 -0.02245730
v -0.05683930 -0.06262233 -0.02233515
v -0.05672583 -0.06271508 -0.02358285
v -0.05496445 -0.06346009 -0.02245730
v -0.07129373 -0.04910740 -0.02358285
v -0.07123781 -0.04901764 -0.02245730
v -0.07166212 -0.04821728 -0.02245730
v -0.05813689 -0.05091757 -0.00434819
v -0.06162675 -0.04821728 -0.00525997
v -0.06167444 -0.04825767 -0.00531668
v -0.06085378 -0.05097891 -0.00626991
v -0.06052979 -0.05179872 -0.00653603
v -0.06230103 -0.04914331 -0.00632444
v -0.06192935 -0.05015162 -0.00663200
v -0.05879638 -0.05158180 -0.00517926
v -0.05778824 -0.05205753 -0.00485643
v -0.05661070 -0.05241507 -0.00436346
v -0.05624560 -0.05349519 -0.00487824
v -0.05509602 -0.05400084 -0.00465575
v -0.05496445 -0.05386171 -0.00448779
v -0.05496445 -0.06343765 -0.02214756
v -0.05517990 -0.06324168 -0.02094566
v -0.05744123 -0.06231266 -0.02175056
v -0.05748892 -0.06233959 -0.02275832
v -0.05749550 -0.06234258 -0.02358285
v -0.07117532 -0.04930039 -0.02358285
v -0.07077568 -0.04977313 -0.02245730
v -0.06944848 -0.05158629 -0.02094566
v -0.06990733 -0.05083080 -0.02094566
v -0.07114243 -0.04886355 -0.02126849
v -0.07142201 -0.04821728 -0.02090640
v -0.06177147 -0.04821728 -0.00537339
v -0.06307728 -0.04821728 -0.00643569
v -0.06160865 -0.05097891 -0.00693084
v -0.06242602 -0.05097891 -0.00768775
v -0.06207737 -0.05184809 -0.00800840
v -0.06108074 -0.05232681 -0.00748053
v -0.06062518 -0.05339197 -0.00796259
v -0.05998379 -0.05280703 -0.00695483
v -0.05897564 -0.05326181 -0.00657311
v -0.05957428 -0.05237767 -0.00630917
v -0.05725374 -0.05306434 -0.00520543
v -0.06330918 -0.04842822 -0.00674325
v -0.06289309 -0.04967738 -0.00719260
v -0.06348350 -0.05021146 -0.00810656
v -0.05554500 -0.05450350 -0.00528832
v -0.05739682 -0.05471893 -0.00662110
v -0.05496445 -0.05419532 -0.00474082
v -0.05496445 -0.05400084 -0.00459031
v -0.05496445 -0.06333443 -0.02094566
v -0.05659097 -0.06261335 -0.02094566
v -0.05496445 -0.06329703 -0.02069918
v -0.05496445 -0.06310405 -0.01943403
v -0.05517990 -0.06300980 -0.01943403
v -0.05734749 -0.06226778 -0.02094566
v -0.05820268 -0.06176213 -0.02094566
v -0.06026666 -0.06068201 -0.02245730
v -0.05951014 -0.06113231 -0.02245730
v -0.05807769 -0.06197157 -0.02233515
v -0.06030777 -0.06070595 -0.02358285
v -0.05921247 -0.06135073 -0.02358285
v -0.07082502 -0.04986289 -0.02358285
v -0.06957183 -0.05178226 -0.02292192
v -0.06994186 -0.05110756 -0.02243331
v -0.06951591 -0.05169849 -0.02191416
v -0.06878242 -0.05249137 -0.02094566
v -0.06843870 -0.05254373 -0.01956054
v -0.06928731 -0.05134842 -0.01943403
v -0.06975602 -0.05059294 -0.01943403
v -0.07103717 -0.04868553 -0.02026074
v -0.07138254 -0.04821728 -0.02071445
v -0.06369237 -0.04821728 -0.00700064
v -0.06318089 -0.05097891 -0.00842503
v -0.06356409 -0.05181966 -0.00953313
v -0.06260857 -0.05233728 -0.00898780
v -0.06213164 -0.05341441 -0.00945024
v -0.06163168 -0.05285640 -0.00844248
v -0.05903814 -0.05482514 -0.00803239
v -0.06113008 -0.05390659 -0.00895508
v -0.06062683 -0.05488498 -0.00946987
v -0.06004628 -0.05440028 -0.00846211
v -0.05820268 -0.05360590 -0.00629826
v -0.06459197 -0.04821728 -0.00790152
v -0.06484359 -0.04842223 -0.00827888
v -0.06383545 -0.04920464 -0.00775101
v -0.06440777 -0.04969384 -0.00869551
v -0.06497845 -0.05018303 -0.00964001
v -0.05508286 -0.05545496 -0.00587946
v -0.05496445 -0.05531882 -0.00569186
v -0.05638868 -0.05507198 -0.00629608
v -0.05690838 -0.05566440 -0.00720132
v -0.05820268 -0.05517670 -0.00769648
v -0.05742807 -0.05625533 -0.00811092
v -0.05633112 -0.06249367 -0.01943403
v -0.05496445 -0.06306515 -0.01925298
v -0.05608608 -0.06238447 -0.01841100
v -0.05708599 -0.06214810 -0.01943403
v -0.05820268 -0.06152426 -0.01943403
v -0.05937035 -0.06105452 -0.02094566
v -0.06012687 -0.06059075 -0.02094566
v -0.06137348 -0.05976496 -0.02081915
v -0.06206092 -0.05935655 -0.02124014
v -0.06122711 -0.06004022 -0.02245730
v -0.06122711 -0.06007912 -0.02358285
v -0.06958499 -0.05180321 -0.02358285
v -0.06909160 -0.05236720 -0.02243331
v -0.06907187 -0.05251980 -0.02358285
v -0.06850612 -0.05327378 -0.02358285
v -0.06823970 -0.05349519 -0.02245730
v -0.06811964 -0.05335457 -0.02094566
v -0.06803906 -0.05326032 -0.02014731
v -0.06789926 -0.05308229 -0.01913955
v -0.06829233 -0.05207548 -0.01792239
v -0.06910476 -0.05091757 -0.01789839
v -0.06962939 -0.05037302 -0.01838700
v -0.07107829 -0.04821728 -0.01943403
v -0.06390452 -0.05097891 -0.00917976
v -0.06466104 -0.05097891 -0.00999992
v -0.06501463 -0.05174786 -0.01110802
v -0.06163497 -0.05442272 -0.00997157
v -0.06261844 -0.05386919 -0.01050598
v -0.06209710 -0.05487451 -0.01097932
v -0.06107416 -0.05538315 -0.01052561
v -0.06051335 -0.05630170 -0.01107748
v -0.06000023 -0.05589180 -0.01006972
v -0.05899209 -0.05629422 -0.00957893
v -0.06515442 -0.04821728 -0.00851010
v -0.06558695 -0.04821728 -0.00901616
v -0.06527777 -0.04917622 -0.00928664
v -0.06628591 -0.04829657 -0.00991267
v -0.06639939 -0.04821728 -0.00999992
v -0.06582213 -0.04957416 -0.01027913
v -0.06636650 -0.04997210 -0.01135014
v -0.06527777 -0.05097891 -0.01075465
v -0.05496445 -0.05569432 -0.00603215
v -0.05496445 -0.05548787 -0.00584456
v -0.05563052 -0.05607880 -0.00677597
v -0.05641993 -0.05655901 -0.00778373
v -0.05820268 -0.05659641 -0.00921902
v -0.05729157 -0.05768850 -0.00972726
v -0.05685575 -0.05712451 -0.00873695
v -0.05557625 -0.05756732 -0.00835304
v -0.05496445 -0.06277343 -0.01793548
v -0.05525226 -0.06264028 -0.01791366
v -0.05580320 -0.06225282 -0.01740324
v -0.05663044 -0.06199999 -0.01791366
v -0.05825859 -0.06115624 -0.01798346
v -0.05902334 -0.06084507 -0.01852879
v -0.05916806 -0.06093483 -0.01943403
v -0.06197376 -0.05928624 -0.02023238
v -0.06368579 -0.05794432 -0.02094566
v -0.06455743 -0.05740575 -0.02245730
v -0.06380091 -0.05803258 -0.02245730
v -0.06288158 -0.05878956 -0.02245730
v -0.06212670 -0.05940741 -0.02245730
v -0.06263489 -0.05881499 -0.02081915
v -0.06214809 -0.05942088 -0.02358285
v -0.06829233 -0.05355653 -0.02358285
v -0.06758843 -0.05425068 -0.02245730
v -0.06672666 -0.05500167 -0.02094566
v -0.06748318 -0.05411155 -0.02094566
v -0.06660825 -0.05486853 -0.01978521
v -0.06649313 -0.05472940 -0.01877746
v -0.06696020 -0.05381235 -0.01792239
v -0.06771507 -0.05283096 -0.01792239
v -0.06668555 -0.05346527 -0.01641075
v -0.06811306 -0.05184958 -0.01696044
v -0.06946986 -0.05009926 -0.01737925
v -0.06993035 -0.04954424 -0.01789839
v -0.07061451 -0.04821728 -0.01785913
v -0.06604086 -0.05099088 -0.01186275
v -0.06636650 -0.05150251 -0.01290105
v -0.06527941 -0.05207847 -0.01187584
v -0.06495214 -0.05318851 -0.01270909
v -0.06463472 -0.05283545 -0.01187584
v -0.06355587 -0.05331717 -0.01104258
v -0.06242438 -0.05521410 -0.01187584
v -0.06196882 -0.05625682 -0.01264802
v -0.06162675 -0.05596809 -0.01187584
v -0.05884243 -0.05769149 -0.01125199
v -0.05828327 -0.05738481 -0.01028567
v -0.05958415 -0.05655303 -0.01049071
v -0.06087023 -0.05657248 -0.01187584
v -0.06618065 -0.04821728 -0.00973162
v -0.06682863 -0.04821728 -0.01056488
v -0.06666581 -0.04896379 -0.01092043
v -0.06771343 -0.04821728 -0.01177986
v -0.06782526 -0.04821728 -0.01194128
v -0.06802097 -0.04870049 -0.01264147
v -0.06669048 -0.05049420 -0.01235790
v -0.05496445 -0.05681034 -0.00713152
v -0.05496445 -0.05701829 -0.00734965
v -0.05496445 -0.05719931 -0.00754597
v -0.05496445 -0.05910372 -0.00988213
v -0.05628507 -0.05797573 -0.00936080
v -0.05783429 -0.05804754 -0.01073502
v -0.05700870 -0.05905585 -0.01150502
v -0.05664689 -0.05851579 -0.01039692
v -0.05496445 -0.05813281 -0.00862134
v -0.05496445 -0.06254304 -0.01706950
v -0.05496445 -0.06235754 -0.01641075
v -0.05549730 -0.06210172 -0.01641075
v -0.05669129 -0.06152277 -0.01641075
v -0.05774713 -0.06098121 -0.01641075
v -0.05879803 -0.06070295 -0.01752103
v -0.05960224 -0.06030950 -0.01798346
v -0.06079787 -0.05950615 -0.01792239
v -0.06184383 -0.05919348 -0.01943403
v -0.06108732 -0.05969464 -0.01943403
v -0.05992294 -0.06045162 -0.01943403
v -0.06357725 -0.05785306 -0.01990519
v -0.06285033 -0.05834973 -0.01941439
v -0.06444231 -0.05729206 -0.02094566
v -0.06528763 -0.05653657 -0.02094566
v -0.06539782 -0.05665027 -0.02245730
v -0.06460677 -0.05744166 -0.02358285
v -0.06404431 -0.05790692 -0.02358285
v -0.06361507 -0.05826147 -0.02358285
v -0.06812458 -0.05375101 -0.02358285
v -0.06683192 -0.05511387 -0.02245730
v -0.06604251 -0.05575715 -0.02094566
v -0.06615270 -0.05586936 -0.02245730
v -0.06514455 -0.05640044 -0.01969360
v -0.06581884 -0.05556866 -0.01923553
v -0.06500148 -0.05626729 -0.01868584
v -0.06560011 -0.05536819 -0.01792239
v -0.06635498 -0.05456783 -0.01792239
v -0.06605402 -0.05422076 -0.01641075
v -0.06652602 -0.05325882 -0.01563421
v -0.06847817 -0.05102528 -0.01643693
v -0.06790585 -0.05155936 -0.01595268
v -0.06928238 -0.04976415 -0.01641075
v -0.06969682 -0.04900717 -0.01641075
v -0.07009810 -0.04821728 -0.01641075
v -0.06780717 -0.04959061 -0.01324133
v -0.06799630 -0.05017705 -0.01420110
v -0.06664114 -0.05191690 -0.01390880
v -0.06581884 -0.05255271 -0.01330895
v -0.06346377 -0.05472790 -0.01267419
v -0.06526954 -0.05354456 -0.01371685
v -0.06437652 -0.05413548 -0.01319552
v -0.06380091 -0.05506301 -0.01368195
v -0.06329273 -0.05606982 -0.01450866
v -0.06228459 -0.05654555 -0.01365577
v -0.06168102 -0.05755386 -0.01457846
v -0.06132085 -0.05709758 -0.01325878
v -0.06029791 -0.05764960 -0.01286178
v -0.05929141 -0.05802061 -0.01225974
v -0.05976341 -0.05736536 -0.01180385
v -0.05820103 -0.05853823 -0.01188238
v -0.06854560 -0.04821728 -0.01312790
v -0.06871006 -0.04821728 -0.01342892
v -0.06831864 -0.04916874 -0.01364923
v -0.05496445 -0.05831383 -0.00885038
v -0.05511576 -0.05823454 -0.00885474
v -0.05600220 -0.05932812 -0.01106658
v -0.05496445 -0.05947324 -0.01043618
v -0.05755964 -0.05936104 -0.01251059
v -0.05657945 -0.05955252 -0.01195654
v -0.05496445 -0.06190126 -0.01510634
v -0.05750372 -0.06083610 -0.01557531
v -0.05850364 -0.06051745 -0.01641075
v -0.06057913 -0.05936253 -0.01697789
v -0.06155274 -0.05899152 -0.01792239
v -0.06250990 -0.05823454 -0.01792239
v -0.06342759 -0.05772141 -0.01889743
v -0.06428936 -0.05706167 -0.01929442
v -0.06561655 -0.05648721 -0.02358285
v -0.06542249 -0.05668618 -0.02358285
v -0.06762626 -0.05431351 -0.02358285
v -0.06669706 -0.05533977 -0.02358285
v -0.06617901 -0.05590077 -0.02358285
v -0.06326642 -0.05756882 -0.01792239
v -0.06296710 -0.05728757 -0.01641075
v -0.06484853 -0.05612218 -0.01792239
v -0.06529915 -0.05505104 -0.01641075
v -0.06508370 -0.05483711 -0.01550769
v -0.06568070 -0.05390510 -0.01506707
v -0.06627769 -0.05292521 -0.01462645
v -0.06682534 -0.05244948 -0.01503653
v -0.06825943 -0.05055105 -0.01520886
v -0.06954716 -0.04872592 -0.01563639
v -0.06879229 -0.04945148 -0.01491874
v -0.06963926 -0.04821728 -0.01529611
v -0.06480741 -0.05455287 -0.01449993
v -0.06265791 -0.05694648 -0.01504744
v -0.06356738 -0.05634060 -0.01551642
v -0.06202309 -0.05781267 -0.01558622
v -0.05896906 -0.05929970 -0.01412911
v -0.06067452 -0.05792636 -0.01386954
v -0.05963349 -0.05847690 -0.01349436
v -0.05856778 -0.05902743 -0.01312136
v -0.06925771 -0.04821728 -0.01446067
v -0.06932678 -0.04825318 -0.01462863
v -0.05517990 -0.05954953 -0.01072848
v -0.05512727 -0.06030053 -0.01193255
v -0.05496445 -0.06034541 -0.01186493
v -0.05496445 -0.05962284 -0.01067176
v -0.05496445 -0.06047706 -0.01209615
v -0.05811881 -0.05953457 -0.01352926
v -0.05709586 -0.06062666 -0.01456755
v -0.05663208 -0.06033194 -0.01344419
v -0.05559598 -0.06062965 -0.01297739
v -0.05496445 -0.06184590 -0.01497328
v -0.05505984 -0.06181748 -0.01501254
v -0.05663208 -0.06103806 -0.01500163
v -0.05808591 -0.06023171 -0.01500163
v -0.05920918 -0.05946426 -0.01489911
v -0.05975847 -0.05970961 -0.01644783
v -0.06029133 -0.05916805 -0.01597013
v -0.06113994 -0.05876862 -0.01644783
v -0.06221058 -0.05797573 -0.01641075
v -0.06377295 -0.05653209 -0.01641075
v -0.06452947 -0.05580652 -0.01641075
v -0.06936132 -0.04821728 -0.01466353
v -0.05496445 -0.06103357 -0.01315189
v -0.05608936 -0.06087948 -0.01398515
v -0.05496445 -0.06117270 -0.01344855
v -0.05512727 -0.06109491 -0.01344419
f 1 2 3
f 1 3 4
f 1 4 7
f 1 7 10
f 1 10 16
f 1 16 27
f 1 27 42
f 1 42 44
f 1 44 64
f 1 64 93
f 1 93 92
f 1 92 133
f 1 133 180
f 1 180 179
f 1 179 235
f 1 235 236
f 1 236 237
f 1 237 243
f 1 243 298
f 1 298 238
f 1 238 301
f 1 301 342
f 1 342 341
f 1 341 343
f 1 343 360
f 1 360 362
f 1 362 348
f 1 348 304
f 1 304 245
f 1 245 244
f 1 244 187
f 1 187 139
f 1 139 97
f 1 97 96
f 1 96 94
f 1 94 65
f 1 65 48
f 1 48 29
f 1 29 17
f 1 17 11
f 1 11 5
f 1 5 12
f 1 12 18
f 1 18 31
f 1 31 51
f 1 51 75
f 1 75 115
f 1 115 160
f 1 160 214
f 1 214 278
f 1 278 328
f 1 328 359
f 1 359 337
f 1 337 296
f 1 296 295
f 1 295 232
f 1 232 231
f 1 231 229
f 1 229 175
f 1 175 228
f 1 228 172
f 1 172 171
f 1 171 127
f 1 127 116
f 1 116 77
f 1 77 76
f 1 76 53
f 1 53 36
f 1 36 35
f 1 35 34
f 1 34 32
f 1 32 19
f 1 19 13
f 1 13 8
f 1 8 6
f 1 6 2
f 2 6 3
f 3 7 4
f 3 6 8
f 3 8 9
f 3 9 10
f 3 10 7
f 5 11 12
f 8 13 9
f 9 13 14
f 9 14 15
f 9 15 10
f 10 15 16
f 11 17 28
f 11 28 47
f 11 47 69
f 11 69 105
f 11 105 104
f 11 104 148
f 11 148 201
f 11 201 262
f 11 262 261
f 11 261 260
f 11 260 313
f 11 313 312
f 11 312 316
f 11 316 315
f 11 315 314
f 11 314 263
f 11 263 202
f 11 202 152
f 11 152 151
f 11 151 149
f 11 149 106
f 11 106 70
f 11 70 49
f 11 49 30
f 11 30 18
f 11 18 12
f 13 19 14
f 14 19 20
f 14 20 21
f 14 21 15
f 15 21 20
f 15 20 22
f 15 22 23
f 15 23 24
f 15 24 25
f 15 25 16
f 16 25 26
f 16 26 27
f 17 29 28
f 18 30 31
f 19 32 20
f 20 33 23
f 20 23 22
f 20 32 34
f 20 34 35
f 20 35 36
f 20 36 37
f 20 37 38
f 20 38 39
f 20 39 33
f 23 33 40
f 23 40 41
f 23 41 24
f 24 41 25
f 25 41 26
f 26 42 27
f 26 41 43
f 26 43 44
f 26 44 42
f 28 29 45
f 28 45 46
f 28 46 47
f 29 48 45
f 30 49 50
f 30 50 31
f 31 50 51
f 33 39 52
f 33 52 40
f 36 53 37
f 37 53 54
f 37 54 38
f 38 55 56
f 38 56 39
f 38 54 57
f 38 57 58
f 38 58 55
f 39 59 52
f 39 56 59
f 40 52 41
f 41 52 60
f 41 60 61
f 41 61 62
f 41 62 43
f 43 62 44
f 44 62 63
f 44 63 64
f 45 48 65
f 45 65 66
f 45 66 67
f 45 67 46
f 46 67 68
f 46 68 47
f 47 68 69
f 49 70 71
f 49 71 50
f 50 71 72
f 50 72 73
f 50 73 74
f 50 74 51
f 51 74 75
f 52 59 60
f 53 76 54
f 54 76 77
f 54 77 57
f 55 58 56
f 56 58 78
f 56 78 79
f 56 79 80
f 56 80 81
f 56 81 82
f 56 82 83
f 56 83 84
f 56 84 85
f 56 85 86
f 56 86 59
f 57 77 87
f 57 87 58
f 58 87 88
f 58 88 89
f 58 89 78
f 59 86 60
f 60 86 61
f 61 86 62
f 62 90 63
f 62 86 91
f 62 91 90
f 63 90 92
f 63 92 93
f 63 93 64
f 65 94 66
f 66 95 67
f 66 94 96
f 66 96 97
f 66 97 98
f 66 98 95
f 67 99 100
f 67 100 101
f 67 101 102
f 67 102 103
f 67 103 68
f 67 95 99
f 68 103 102
f 68 102 104
f 68 104 105
f 68 105 69
f 70 106 107
f 70 107 71
f 71 107 108
f 71 108 109
f 71 109 72
f 72 110 111
f 72 111 112
f 72 112 113
f 72 113 73
f 72 109 110
f 73 113 74
f 74 113 114
f 74 114 75
f 75 114 115
f 77 116 87
f 78 89 79
f 79 89 80
f 80 89 117
f 80 117 118
f 80 118 119
f 80 119 120
f 80 120 121
f 80 121 81
f 81 121 82
f 82 122 91
f 82 91 83
f 82 121 120
f 82 120 123
f 82 123 124
f 82 124 125
f 82 125 122
f 83 91 84
f 84 91 126
f 84 126 86
f 84 86 85
f 86 126 91
f 87 116 127
f 87 127 128
f 87 128 129
f 87 129 88
f 88 129 89
f 89 129 130
f 89 130 131
f 89 131 117
f 90 132 133
f 90 133 92
f 90 91 134
f 90 134 132
f 91 135 134
f 91 122 136
f 91 136 137
f 91 137 135
f 95 98 138
f 95 138 99
f 97 139 98
f 98 139 140
f 98 140 138
f 99 138 141
f 99 141 142
f 99 142 100
f 100 142 143
f 100 143 101
f 101 143 144
f 101 144 145
f 101 145 146
f 101 146 147
f 101 147 104
f 101 104 102
f 104 147 148
f 106 149 107
f 107 150 109
f 107 109 108
f 107 149 151
f 107 151 152
f 107 152 150
f 109 150 110
f 110 150 153
f 110 153 154
f 110 154 155
f 110 155 111
f 111 155 156
f 111 156 157
f 111 157 112
f 112 157 158
f 112 158 159
f 112 159 113
f 113 159 114
f 114 159 160
f 114 160 115
f 117 131 161
f 117 161 118
f 118 131 162
f 118 162 163
f 118 163 120
f 118 120 119
f 118 161 131
f 120 164 123
f 120 163 165
f 120 165 166
f 120 166 164
f 122 137 136
f 122 125 137
f 123 164 124
f 124 164 166
f 124 166 167
f 124 167 168
f 124 168 169
f 124 169 170
f 124 170 137
f 124 137 125
f 127 171 128
f 128 171 172
f 128 172 173
f 128 173 131
f 128 131 130
f 128 130 129
f 131 174 175
f 131 175 176
f 131 176 177
f 131 177 178
f 131 178 163
f 131 163 162
f 131 173 174
f 132 179 180
f 132 180 133
f 132 134 181
f 132 181 179
f 134 135 181
f 135 137 181
f 137 182 181
f 137 170 183
f 137 183 184
f 137 184 185
f 137 185 186
f 137 186 182
f 138 140 141
f 139 187 140
f 140 187 188
f 140 188 189
f 140 189 190
f 140 190 141
f 141 190 191
f 141 191 142
f 142 191 192
f 142 192 193
f 142 193 143
f 143 193 144
f 144 193 194
f 144 194 145
f 145 194 146
f 146 195 196
f 146 196 197
f 146 197 198
f 146 198 199
f 146 199 147
f 146 194 200
f 146 200 195
f 147 199 148
f 148 199 201
f 150 152 202
f 150 202 153
f 153 203 204
f 153 204 205
f 153 205 154
f 153 202 203
f 154 205 155
f 155 206 207
f 155 207 156
f 155 205 206
f 156 207 208
f 156 208 209
f 156 209 157
f 157 209 210
f 157 210 211
f 157 211 158
f 158 211 212
f 158 212 159
f 159 212 213
f 159 213 160
f 160 213 214
f 163 178 177
f 163 177 215
f 163 215 216
f 163 216 217
f 163 217 218
f 163 218 219
f 163 219 220
f 163 220 165
f 165 220 166
f 166 220 219
f 166 219 218
f 166 218 221
f 166 221 222
f 166 222 223
f 166 223 168
f 166 168 167
f 168 224 225
f 168 225 226
f 168 226 170
f 168 170 169
f 168 223 222
f 168 222 227
f 168 227 224
f 170 184 183
f 170 226 225
f 170 225 184
f 172 228 173
f 173 228 174
f 174 228 175
f 175 229 230
f 175 230 176
f 176 230 177
f 177 230 231
f 177 231 232
f 177 232 233
f 177 233 234
f 177 234 215
f 179 181 235
f 181 182 236
f 181 236 235
f 182 186 237
f 182 237 236
f 184 238 239
f 184 239 186
f 184 186 185
f 184 225 240
f 184 240 241
f 184 241 242
f 184 242 238
f 186 239 243
f 186 243 237
f 187 244 188
f 188 244 189
f 189 244 245
f 189 245 246
f 189 246 247
f 189 247 190
f 190 247 248
f 190 248 191
f 191 248 249
f 191 249 192
f 192 249 250
f 192 250 251
f 192 251 252
f 192 252 253
f 192 253 254
f 192 254 193
f 193 254 194
f 194 255 195
f 194 195 200
f 194 254 253
f 194 253 252
f 194 252 256
f 194 256 255
f 195 257 196
f 195 255 257
f 196 257 258
f 196 258 259
f 196 259 260
f 196 260 197
f 197 260 261
f 197 261 262
f 197 262 198
f 198 262 199
f 199 262 201
f 202 263 203
f 203 264 204
f 203 263 264
f 204 265 206
f 204 206 205
f 204 264 266
f 204 266 265
f 206 267 268
f 206 268 207
f 206 265 267
f 207 268 269
f 207 269 270
f 207 270 271
f 207 271 208
f 208 271 210
f 208 210 209
f 210 272 273
f 210 273 211
f 210 271 272
f 211 274 212
f 211 273 275
f 211 275 274
f 212 214 213
f 212 274 276
f 212 276 277
f 212 277 214
f 214 277 278
f 215 234 216
f 216 279 280
f 216 280 281
f 216 281 282
f 216 282 217
f 216 234 233
f 216 233 279
f 217 282 218
f 218 283 221
f 218 282 284
f 218 284 285
f 218 285 283
f 221 283 222
f 222 283 286
f 222 286 287
f 222 287 288
f 222 288 289
f 222 289 290
f 222 290 291
f 222 291 292
f 222 292 293
f 222 293 227
f 224 240 225
f 224 227 293
f 224 293 292
f 224 292 294
f 224 294 240
f 229 231 230
f 232 295 233
f 233 295 296
f 233 296 297
f 233 297 279
f 238 298 299
f 238 299 239
f 238 242 300
f 238 300 301
f 239 299 243
f 240 294 302
f 240 302 241
f 241 302 303
f 241 303 300
f 241 300 242
f 243 299 298
f 245 304 246
f 246 305 247
f 246 304 305
f 247 305 248
f 248 305 306
f 248 306 249
f 249 306 307
f 249 307 251
f 249 251 250
f 251 307 308
f 251 308 252
f 252 308 309
f 252 309 256
f 255 256 310
f 255 310 311
f 255 311 267
f 255 267 258
f 255 258 257
f 256 309 310
f 258 267 265
f 258 265 259
f 259 265 266
f 259 266 312
f 259 312 313
f 259 313 260
f 263 314 264
f 264 314 266
f 266 314 315
f 266 315 316
f 266 316 312
f 267 311 269
f 267 269 268
f 269 311 310
f 269 310 317
f 269 317 318
f 269 318 319
f 269 319 270
f 270 319 320
f 270 320 271
f 271 320 272
f 272 320 321
f 272 321 273
f 273 321 322
f 273 322 323
f 273 323 324
f 273 324 275
f 274 275 325
f 274 325 276
f 275 324 325
f 276 326 277
f 276 325 327
f 276 327 326
f 277 326 278
f 278 326 328
f 279 297 280
f 280 327 325
f 280 325 281
f 280 297 327
f 281 325 324
f 281 324 323
f 281 323 282
f 282 323 284
f 283 285 286
f 284 323 322
f 284 322 329
f 284 329 285
f 285 329 286
f 286 329 287
f 287 330 288
f 287 329 321
f 287 321 331
f 287 331 330
f 288 330 332
f 288 332 289
f 289 333 334
f 289 334 290
f 289 332 333
f 290 334 291
f 291 334 335
f 291 335 336
f 291 336 292
f 292 336 302
f 292 302 294
f 296 337 297
f 297 337 338
f 297 338 327
f 300 339 301
f 300 303 340
f 300 340 341
f 300 341 339
f 301 339 342
f 302 343 340
f 302 340 303
f 302 336 333
f 302 333 344
f 302 344 345
f 302 345 346
f 302 346 347
f 302 347 343
f 304 348 349
f 304 349 305
f 305 349 350
f 305 350 345
f 305 345 351
f 305 351 352
f 305 352 306
f 306 353 307
f 306 352 353
f 307 353 354
f 307 354 355
f 307 355 308
f 308 355 356
f 308 356 309
f 309 317 310
f 309 356 317
f 317 356 318
f 318 356 332
f 318 332 331
f 318 331 357
f 318 357 319
f 319 357 358
f 319 358 320
f 320 358 331
f 320 331 321
f 321 329 322
f 326 327 338
f 326 338 359
f 326 359 328
f 330 331 332
f 331 358 357
f 332 356 355
f 332 355 354
f 332 354 352
f 332 352 333
f 333 352 351
f 333 351 344
f 333 336 335
f 333 335 334
f 337 359 338
f 339 341 342
f 340 343 341
f 343 347 360
f 344 351 345
f 345 350 361
f 345 361 346
f 346 361 347
f 347 361 360
f 348 362 363
f 348 363 361
f 348 361 349
f 349 361 350
f 352 354 353
f 360 361 363
f 360 363 362

