# https://github.com/mikedh/trimesh
v 0.07271206 -0.03737808 -0.01461248
v 0.07253051 -0.03737808 -0.01421487
v 0.07252007 -0.03763874 -0.01424075
v 0.07250964 -0.03888473 -0.01461248
v 0.06255149 -0.03737808 -0.01461248
v 0.07230722 -0.03737808 -0.01379316
v 0.07215698 -0.03737808 -0.01352362
v 0.07186483 -0.03888473 -0.01338706
v 0.07242408 -0.03888473 -0.01442773
v 0.07237817 -0.03949077 -0.01461248
v 0.05735330 -0.05069290 -0.01461248
v 0.05139344 -0.05069290 -0.01005354
v 0.05928984 -0.03737808 -0.01005354
v 0.07136608 -0.03737808 -0.01212505
v 0.07124713 -0.03888473 -0.01232096
v 0.07113027 -0.04001341 -0.01250169
v 0.07102385 -0.04102088 -0.01268287
v 0.07145790 -0.04046827 -0.01326702
v 0.07214654 -0.04048652 -0.01461248
v 0.06784567 -0.05069290 -0.01461248
v 0.06489495 -0.05069290 -0.01005354
v 0.06993872 -0.03737808 -0.01005354
v 0.07088612 -0.03737808 -0.01136910
v 0.07076509 -0.03888473 -0.01156500
v 0.07069414 -0.04046827 -0.01194923
v 0.07031434 -0.04190845 -0.01187604
v 0.07091951 -0.04190845 -0.01288547
v 0.07131183 -0.04190845 -0.01364143
v 0.07206516 -0.04082929 -0.01461248
v 0.06845084 -0.04976102 -0.01461248
v 0.06782063 -0.05069290 -0.01455670
v 0.06489704 -0.05069290 -0.01005577
v 0.06552516 -0.04978708 -0.01005354
v 0.06990533 -0.03765047 -0.01005354
v 0.07004723 -0.03749147 -0.01021865
v 0.07006601 -0.03737808 -0.01022847
v 0.07084647 -0.03737808 -0.01131376
v 0.07000967 -0.03888473 -0.01046186
v 0.06986986 -0.04039659 -0.01064081
v 0.06969039 -0.04190845 -0.01089562
v 0.06956936 -0.04275040 -0.01107680
v 0.06987403 -0.04331996 -0.01186355
v 0.07116158 -0.04305147 -0.01392659
v 0.07074005 -0.04350112 -0.01340848
v 0.07169580 -0.04224601 -0.01461248
v 0.06867830 -0.04938175 -0.01461248
v 0.06799592 -0.05017547 -0.01420282
v 0.06735110 -0.05069290 -0.01369230
v 0.06538952 -0.05069290 -0.01065821
v 0.06558568 -0.05069290 -0.01092329
v 0.06636614 -0.04996955 -0.01134991
v 0.06666664 -0.04896207 -0.01091927
v 0.06610738 -0.04879003 -0.01005354
v 0.06986151 -0.03793851 -0.01005354
v 0.06971752 -0.03888473 -0.01005354
v 0.06953389 -0.03995476 -0.01005354
v 0.06945459 -0.04039659 -0.01005354
v 0.06920834 -0.04139755 -0.01005354
v 0.06914365 -0.04190845 -0.01014011
v 0.06938989 -0.04375788 -0.01135125
v 0.06903097 -0.04205442 -0.01005354
v 0.06847797 -0.04373311 -0.01005354
v 0.06804392 -0.04493087 -0.01005354
v 0.06841536 -0.04493087 -0.01057209
v 0.06971126 -0.04460113 -0.01235845
v 0.07101550 -0.04405764 -0.01421799
v 0.07129931 -0.04367707 -0.01461248
v 0.06931060 -0.04826740 -0.01461248
v 0.06831937 -0.04916800 -0.01364991
v 0.06780811 -0.04958898 -0.01324248
v 0.06662699 -0.05069290 -0.01246465
v 0.06613659 -0.05069290 -0.01171316
v 0.06643083 -0.05069290 -0.01215897
v 0.06668959 -0.05049349 -0.01235711
v 0.06802096 -0.04869880 -0.01264182
v 0.06777889 -0.04809797 -0.01177117
v 0.06797297 -0.04708267 -0.01119729
v 0.06646839 -0.04816574 -0.01005354
v 0.06907688 -0.04190845 -0.01005354
v 0.06819208 -0.04607389 -0.01088179
v 0.06922712 -0.04503514 -0.01186355
v 0.06775802 -0.04561121 -0.01005354
v 0.06856979 -0.04652354 -0.01177117
v 0.06950884 -0.04560861 -0.01268734
v 0.07091742 -0.04475492 -0.01461248
v 0.06933773 -0.04644274 -0.01302113
v 0.06956101 -0.04724429 -0.01410286
v 0.06933355 -0.04822048 -0.01461248
v 0.06880977 -0.04797154 -0.01337234
v 0.06829433 -0.04769133 -0.01220493
v 0.06760360 -0.04652354 -0.01037216
v 0.06720294 -0.04681940 -0.01005354
v 0.06676889 -0.04762746 -0.01005354
v 0.06736154 -0.04650008 -0.01005354
v 0.07067118 -0.04531666 -0.01461248
v 0.07003471 -0.04673077 -0.01461248
f 1 2 3
f 1 3 4
f 1 4 10
f 1 10 19
f 1 19 29
f 1 29 45
f 1 45 67
f 1 67 85
f 1 85 95
f 1 95 96
f 1 96 88
f 1 88 68
f 1 68 46
f 1 46 30
f 1 30 20
f 1 20 11
f 1 11 5
f 1 5 13
f 1 13 22
f 1 22 36
f 1 36 37
f 1 37 23
f 1 23 14
f 1 14 7
f 1 7 6
f 1 6 2
f 2 6 3
f 3 6 7
f 3 7 8
f 3 8 9
f 3 9 4
f 4 9 10
f 5 11 12
f 5 12 13
f 7 14 8
f 8 14 15
f 8 15 16
f 8 16 17
f 8 17 18
f 8 18 9
f 9 18 19
f 9 19 10
f 11 20 31
f 11 31 48
f 11 48 71
f 11 71 73
f 11 73 72
f 11 72 50
f 11 50 49
f 11 49 32
f 11 32 21
f 11 21 12
f 12 21 33
f 12 33 53
f 12 53 78
f 12 78 93
f 12 93 92
f 12 92 94
f 12 94 82
f 12 82 63
f 12 63 62
f 12 62 61
f 12 61 79
f 12 79 58
f 12 58 57
f 12 57 56
f 12 56 55
f 12 55 54
f 12 54 34
f 12 34 22
f 12 22 13
f 14 23 15
f 15 23 24
f 15 24 25
f 15 25 16
f 16 25 17
f 17 25 26
f 17 26 27
f 17 27 18
f 18 28 19
f 18 27 28
f 19 28 29
f 20 30 31
f 21 32 33
f 22 34 35
f 22 35 36
f 23 37 35
f 23 35 34
f 23 34 38
f 23 38 24
f 24 38 39
f 24 39 25
f 25 39 40
f 25 40 26
f 26 40 41
f 26 41 42
f 26 42 27
f 27 43 28
f 27 42 44
f 27 44 43
f 28 43 29
f 29 43 45
f 30 46 47
f 30 47 31
f 31 47 48
f 32 49 33
f 33 49 50
f 33 50 51
f 33 51 52
f 33 52 53
f 34 54 38
f 35 37 36
f 38 54 55
f 38 55 56
f 38 56 39
f 39 56 57
f 39 57 40
f 40 57 58
f 40 58 59
f 40 59 41
f 41 60 42
f 41 59 61
f 41 61 62
f 41 62 63
f 41 63 64
f 41 64 60
f 42 60 65
f 42 65 44
f 43 44 66
f 43 66 45
f 44 65 66
f 45 66 67
f 46 68 69
f 46 69 47
f 47 70 71
f 47 71 48
f 47 69 70
f 50 72 51
f 51 72 73
f 51 73 74
f 51 74 75
f 51 75 76
f 51 76 52
f 52 76 77
f 52 77 53
f 53 77 78
f 58 79 59
f 59 79 61
f 60 64 80
f 60 80 81
f 60 81 65
f 63 82 80
f 63 80 64
f 65 81 83
f 65 83 84
f 65 84 66
f 66 85 67
f 66 84 86
f 66 86 87
f 66 87 85
f 68 88 87
f 68 87 89
f 68 89 69
f 69 89 75
f 69 75 70
f 70 75 71
f 71 75 74
f 71 74 73
f 75 77 76
f 75 89 90
f 75 90 77
f 77 91 92
f 77 92 93
f 77 93 78
f 77 90 83
f 77 83 80
f 77 80 91
f 80 83 81
f 80 82 91
f 82 94 91
f 83 90 86
f 83 86 84
f 85 87 95
f 86 90 87
f 87 90 89
f 87 88 96
f 87 96 95
f 91 94 92

