# https://github.com/mikedh/trimesh
v 0.05735323 -0.05069290 -0.01461248
v 0.05985597 -0.05069290 -0.02358197
v 0.06784620 -0.05069290 -0.01461248
v 0.06184762 -0.02411032 -0.01461248
v 0.07029438 -0.05069290 -0.02358197
v 0.06479962 -0.02805481 -0.02358197
v 0.06809357 -0.05069290 -0.01508313
v 0.06825909 -0.05054902 -0.01521133
v 0.06845188 -0.04975903 -0.01461248
v 0.06197676 -0.02375741 -0.01461248
v 0.06488329 -0.02779420 -0.02358197
v 0.07024891 -0.05069290 -0.02295854
v 0.07061450 -0.05019882 -0.02358197
v 0.06820998 -0.05069290 -0.01531582
v 0.06832456 -0.05069290 -0.01558012
v 0.06928310 -0.04976175 -0.01641165
v 0.06879383 -0.04944955 -0.01492068
v 0.06867742 -0.04938169 -0.01461248
v 0.06220775 -0.02328233 -0.01461248
v 0.06494877 -0.02748201 -0.02336860
v 0.06513247 -0.02754716 -0.02358197
v 0.07020162 -0.05069290 -0.02244224
v 0.07129475 -0.04910478 -0.02358197
v 0.06868833 -0.05069290 -0.01643184
v 0.06947044 -0.05009837 -0.01738104
v 0.06969780 -0.04900434 -0.01641165
v 0.06954683 -0.04872472 -0.01563719
v 0.06932675 -0.04825236 -0.01462917
v 0.06931038 -0.04826593 -0.01461248
v 0.06321722 -0.02301357 -0.01461248
v 0.06576180 -0.02738699 -0.02356441
v 0.06576180 -0.02739785 -0.02358197
v 0.07001974 -0.05069290 -0.02114181
v 0.07077638 -0.04976989 -0.02245716
v 0.07123655 -0.04901520 -0.02245716
v 0.07190225 -0.04795374 -0.02358197
v 0.07180039 -0.04795374 -0.02245716
v 0.06883202 -0.05069290 -0.01677605
v 0.06962868 -0.05036984 -0.01838819
v 0.06993061 -0.04954185 -0.01789998
v 0.07117471 -0.04742708 -0.01831004
v 0.07075637 -0.04794017 -0.01785344
v 0.07100556 -0.04710403 -0.01730289
v 0.06920489 -0.05069290 -0.01775773
v 0.07087096 -0.04653665 -0.01626764
v 0.07104557 -0.04567337 -0.01566792
v 0.06933403 -0.04821978 -0.01461248
v 0.06425033 -0.02297014 -0.01461248
v 0.06727144 -0.02724583 -0.02358197
v 0.06579272 -0.02739242 -0.02358197
v 0.06998517 -0.05069290 -0.02093547
v 0.07114197 -0.04886046 -0.02126913
v 0.07241517 -0.04686242 -0.02358197
v 0.07237151 -0.04674569 -0.02245716
v 0.07230604 -0.04636563 -0.02092054
v 0.07147664 -0.04808948 -0.02083712
v 0.07103648 -0.04868400 -0.02026111
v 0.07134386 -0.04772842 -0.01943397
v 0.06931947 -0.05069290 -0.01810106
v 0.06951773 -0.05069290 -0.01873239
v 0.06975600 -0.05058974 -0.01943397
v 0.07195863 -0.04644164 -0.01943397
v 0.07145117 -0.04653665 -0.01785344
v 0.07124382 -0.04609687 -0.01667507
v 0.07067088 -0.04531774 -0.01461248
v 0.07003610 -0.04672940 -0.01461248
v 0.07150028 -0.04507342 -0.01626764
v 0.07123837 -0.04466621 -0.01522625
v 0.07091643 -0.04475580 -0.01461248
v 0.07087096 -0.04507342 -0.01479336
v 0.06463047 -0.02295928 -0.01461248
v 0.07029620 -0.02712638 -0.02358197
v 0.07001246 -0.02713452 -0.02358197
v 0.06981966 -0.05069290 -0.02007496
v 0.07274984 -0.04610773 -0.02358197
v 0.07314635 -0.04520101 -0.02358197
v 0.07269345 -0.04598828 -0.02245716
v 0.07261524 -0.04581182 -0.02140699
v 0.07252612 -0.04558650 -0.02039984
v 0.06969234 -0.05069290 -0.01943397
v 0.06972326 -0.05069290 -0.01958763
v 0.07242062 -0.04528788 -0.01943397
v 0.07220418 -0.04482366 -0.01802466
v 0.07242790 -0.04376492 -0.01758826
v 0.07259523 -0.04275776 -0.01708776
v 0.07218963 -0.04332514 -0.01651438
v 0.07142935 -0.04349888 -0.01479336
v 0.07129839 -0.04367534 -0.01461248
v 0.06576180 -0.02297557 -0.01461248
v 0.06576180 -0.02322532 -0.01517357
v 0.06727144 -0.02432750 -0.01756631
v 0.07167671 -0.02725940 -0.02358197
v 0.07029620 -0.02660244 -0.02245716
v 0.07326093 -0.04492954 -0.02358197
v 0.07313544 -0.04492954 -0.02245716
v 0.07284078 -0.04502184 -0.02092054
v 0.07345555 -0.04341744 -0.02094600
v 0.07269527 -0.04453319 -0.01943397
v 0.07258978 -0.04424814 -0.01859629
v 0.07271346 -0.04332514 -0.01802466
v 0.07312997 -0.04190534 -0.01792281
v 0.07272255 -0.04190534 -0.01677605
v 0.07241517 -0.04190534 -0.01602003
v 0.07253703 -0.04105563 -0.01571797
v 0.07169672 -0.04224468 -0.01461248
v 0.06727144 -0.02381984 -0.01641165
v 0.06878473 -0.02519893 -0.01943397
v 0.06974509 -0.02329319 -0.01461248
v 0.07260251 -0.02450124 -0.01721508
v 0.07456141 -0.02745758 -0.02340636
v 0.07469783 -0.02756616 -0.02358197
v 0.07029620 -0.02614636 -0.02140172
v 0.07415763 -0.02598077 -0.02031028
v 0.07375930 -0.04362647 -0.02358197
v 0.07371565 -0.04341744 -0.02245716
v 0.07309178 -0.04341744 -0.01943397
v 0.07403031 -0.04248086 -0.02245716
v 0.07392482 -0.04191348 -0.02087576
v 0.07358287 -0.04190534 -0.01943397
v 0.07352285 -0.04039595 -0.01792281
v 0.07291172 -0.04048825 -0.01629750
v 0.07266981 -0.04004575 -0.01543348
v 0.07206595 -0.04082759 -0.01461248
v 0.06878473 -0.02468313 -0.01822838
v 0.07031985 -0.02346965 -0.01461248
v 0.07029620 -0.02344793 -0.01489961
v 0.07422129 -0.02588304 -0.01943397
v 0.07264980 -0.02444152 -0.01641165
v 0.07509980 -0.02786478 -0.02358197
v 0.07574367 -0.02840773 -0.02358197
v 0.07479787 -0.02723497 -0.02245716
v 0.07386298 -0.04335500 -0.02358197
v 0.07407396 -0.04265731 -0.02323074
v 0.07461962 -0.04073529 -0.02358197
v 0.07422674 -0.04172345 -0.02245716
v 0.07413944 -0.04141669 -0.02133323
v 0.07405032 -0.04103391 -0.02032609
v 0.07393937 -0.04047468 -0.01939884
v 0.07402667 -0.03936164 -0.01887200
v 0.07384115 -0.03886756 -0.01800271
v 0.07327548 -0.03888385 -0.01641165
v 0.07250975 -0.03888385 -0.01461248
v 0.07237879 -0.03948923 -0.01461248
v 0.07230240 -0.04048825 -0.01491717
v 0.07277530 -0.03888385 -0.01518411
v 0.07214597 -0.04048554 -0.01461248
v 0.07151119 -0.02394472 -0.01461248
v 0.07183313 -0.02406146 -0.01496898
v 0.07418855 -0.02588846 -0.01840311
v 0.07263888 -0.02443609 -0.01551865
v 0.07555451 -0.02816069 -0.02233336
v 0.07576550 -0.02851089 -0.02358197
v 0.07396847 -0.04305909 -0.02358197
v 0.07420128 -0.04230169 -0.02358197
v 0.07470692 -0.04039595 -0.02358197
v 0.07456687 -0.04039595 -0.02245716
v 0.07492883 -0.03888385 -0.02245716
v 0.07415217 -0.04002403 -0.01987915
v 0.07463417 -0.03888385 -0.02094600
v 0.07425403 -0.03886756 -0.01939884
v 0.07453777 -0.03737175 -0.01943397
v 0.07411580 -0.03835448 -0.01855941
v 0.07419764 -0.03737175 -0.01832233
v 0.07393937 -0.03737175 -0.01756631
v 0.07402303 -0.03617727 -0.01731518
v 0.07349375 -0.03737175 -0.01641165
v 0.07271164 -0.03736903 -0.01461248
v 0.07376294 -0.03574834 -0.01655126
v 0.07169490 -0.02406960 -0.01461248
v 0.07396847 -0.02679247 -0.01742055
v 0.07427767 -0.02679247 -0.01817569
v 0.07531988 -0.02830457 -0.02094600
v 0.07232422 -0.02525051 -0.01461248
v 0.07233150 -0.02528037 -0.01461248
v 0.07274074 -0.02528037 -0.01533601
v 0.07568729 -0.02857061 -0.02275483
v 0.07593465 -0.02981396 -0.02358197
v 0.07497975 -0.03926934 -0.02358197
v 0.07507251 -0.03888385 -0.02358197
v 0.07520529 -0.03737175 -0.02245716
v 0.07492337 -0.03737175 -0.02094600
v 0.07473784 -0.03586236 -0.01943397
v 0.07425767 -0.03574834 -0.01786046
v 0.07408306 -0.03517011 -0.01714923
v 0.07300266 -0.03586236 -0.01489961
v 0.07283714 -0.03615284 -0.01461248
v 0.07312997 -0.03435026 -0.01489961
v 0.07349920 -0.02679247 -0.01641165
v 0.07366290 -0.02830457 -0.01641165
v 0.07404122 -0.02830457 -0.01725196
v 0.07433951 -0.02830457 -0.01800798
v 0.07485425 -0.02830457 -0.01943397
v 0.07493610 -0.02981396 -0.01943397
v 0.07537081 -0.02981396 -0.02094600
v 0.07557634 -0.02981396 -0.02175119
v 0.07573458 -0.02981396 -0.02250721
v 0.07251520 -0.02640426 -0.01461248
v 0.07284987 -0.02679247 -0.01511913
v 0.07558725 -0.03196402 -0.02169675
v 0.07558725 -0.03210247 -0.02169675
v 0.07593283 -0.03018859 -0.02358197
v 0.07536171 -0.03727673 -0.02358197
v 0.07550540 -0.03632115 -0.02358197
v 0.07560180 -0.03521897 -0.02313240
v 0.07542719 -0.03577820 -0.02255990
v 0.07511435 -0.03586236 -0.02094600
v 0.07523985 -0.03435026 -0.02094600
v 0.07485061 -0.03435026 -0.01943397
v 0.07409579 -0.03435026 -0.01711410
v 0.07378476 -0.03435026 -0.01635809
v 0.07437771 -0.03435026 -0.01792281
v 0.07442864 -0.03283816 -0.01792281
v 0.07294445 -0.03487963 -0.01461248
v 0.07379750 -0.03283816 -0.01631243
v 0.07316090 -0.03283816 -0.01489961
v 0.07301903 -0.03283816 -0.01461248
v 0.07298629 -0.03435026 -0.01461248
v 0.07287898 -0.02834800 -0.01479512
v 0.07407396 -0.02908370 -0.01717118
v 0.07280258 -0.02848917 -0.01461248
v 0.07305904 -0.02981396 -0.01489961
v 0.07382478 -0.02967822 -0.01651965
v 0.07434315 -0.02967822 -0.01777441
v 0.07445046 -0.03132606 -0.01792281
v 0.07496702 -0.03132606 -0.01943397
v 0.07543265 -0.03140750 -0.02109352
v 0.07257341 -0.02679247 -0.01461248
v 0.07266435 -0.02740328 -0.01461248
v 0.07276621 -0.02819598 -0.01461248
v 0.07493064 -0.03283816 -0.01943397
v 0.07539627 -0.03269971 -0.02109352
v 0.07555451 -0.03311234 -0.02186183
v 0.07567820 -0.03269971 -0.02240272
v 0.07590374 -0.03166540 -0.02358197
v 0.07591101 -0.03134506 -0.02358197
v 0.07554360 -0.03604153 -0.02358197
v 0.07561999 -0.03547958 -0.02358197
v 0.07570911 -0.03475204 -0.02358197
v 0.07564727 -0.03435026 -0.02289532
v 0.07550177 -0.03435026 -0.02213930
v 0.07411580 -0.03283816 -0.01706845
v 0.07412489 -0.03132606 -0.01705352
v 0.07378840 -0.03132606 -0.01629838
v 0.07312088 -0.03132606 -0.01489961
v 0.07298993 -0.03177399 -0.01461248
v 0.07410670 -0.03009086 -0.01709567
v 0.07290808 -0.02981396 -0.01461248
v 0.07293172 -0.03028903 -0.01461248
v 0.07586190 -0.03280558 -0.02358197
v 0.07582370 -0.03338382 -0.02358197
v 0.07574549 -0.03435026 -0.02358197
v 0.07297356 -0.03132606 -0.01461248
f 1 2 5
f 1 5 12
f 1 12 22
f 1 22 33
f 1 33 51
f 1 51 74
f 1 74 81
f 1 81 80
f 1 80 60
f 1 60 59
f 1 59 44
f 1 44 38
f 1 38 24
f 1 24 15
f 1 15 14
f 1 14 7
f 1 7 3
f 1 3 9
f 1 9 18
f 1 18 29
f 1 29 47
f 1 47 66
f 1 66 65
f 1 65 69
f 1 69 88
f 1 88 105
f 1 105 123
f 1 123 146
f 1 146 143
f 1 143 142
f 1 142 167
f 1 167 186
f 1 186 213
f 1 213 217
f 1 217 216
f 1 216 245
f 1 245 252
f 1 252 248
f 1 248 247
f 1 247 220
f 1 220 229
f 1 229 228
f 1 228 227
f 1 227 197
f 1 197 174
f 1 174 173
f 1 173 169
f 1 169 147
f 1 147 125
f 1 125 108
f 1 108 89
f 1 89 71
f 1 71 48
f 1 48 30
f 1 30 19
f 1 19 10
f 1 10 4
f 1 4 2
f 2 4 6
f 2 6 11
f 2 11 21
f 2 21 32
f 2 32 50
f 2 50 49
f 2 49 73
f 2 73 72
f 2 72 92
f 2 92 111
f 2 111 129
f 2 129 130
f 2 130 152
f 2 152 177
f 2 177 201
f 2 201 235
f 2 235 234
f 2 234 249
f 2 249 250
f 2 250 251
f 2 251 238
f 2 238 237
f 2 237 236
f 2 236 203
f 2 203 202
f 2 202 179
f 2 179 178
f 2 178 155
f 2 155 134
f 2 134 154
f 2 154 153
f 2 153 132
f 2 132 114
f 2 114 94
f 2 94 76
f 2 76 75
f 2 75 53
f 2 53 36
f 2 36 23
f 2 23 13
f 2 13 5
f 3 7 8
f 3 8 9
f 4 10 11
f 4 11 6
f 5 13 12
f 7 14 8
f 8 14 15
f 8 15 16
f 8 16 17
f 8 17 9
f 9 17 18
f 10 19 11
f 11 20 21
f 11 19 20
f 12 13 22
f 13 23 22
f 15 24 16
f 16 25 26
f 16 26 27
f 16 27 17
f 16 24 25
f 17 27 28
f 17 28 18
f 18 28 29
f 19 30 21
f 19 21 20
f 21 30 31
f 21 31 32
f 22 23 34
f 22 34 33
f 23 35 34
f 23 36 37
f 23 37 35
f 24 38 25
f 25 39 40
f 25 40 41
f 25 41 42
f 25 42 43
f 25 43 26
f 25 38 44
f 25 44 39
f 26 43 27
f 27 43 45
f 27 45 46
f 27 46 28
f 28 47 29
f 28 46 47
f 30 48 49
f 30 49 50
f 30 50 31
f 31 50 32
f 33 34 35
f 33 35 52
f 33 52 51
f 35 37 52
f 36 53 54
f 36 54 37
f 37 54 55
f 37 55 56
f 37 56 52
f 39 57 58
f 39 58 40
f 39 44 59
f 39 59 60
f 39 60 61
f 39 61 57
f 40 58 41
f 41 43 42
f 41 58 62
f 41 62 63
f 41 63 43
f 43 63 64
f 43 64 45
f 45 64 46
f 46 65 66
f 46 66 47
f 46 64 67
f 46 67 68
f 46 68 69
f 46 69 70
f 46 70 65
f 48 71 72
f 48 72 73
f 48 73 49
f 51 52 74
f 52 56 57
f 52 57 61
f 52 61 74
f 53 75 54
f 54 75 76
f 54 76 77
f 54 77 78
f 54 78 55
f 55 78 79
f 55 79 62
f 55 62 56
f 56 58 57
f 56 62 58
f 60 80 61
f 61 80 81
f 61 81 74
f 62 79 82
f 62 82 83
f 62 83 63
f 63 83 64
f 64 83 67
f 65 70 69
f 67 83 84
f 67 84 85
f 67 85 86
f 67 86 68
f 68 87 88
f 68 88 69
f 68 86 87
f 71 89 90
f 71 90 91
f 71 91 72
f 72 91 93
f 72 93 92
f 76 94 77
f 77 94 95
f 77 95 78
f 78 95 96
f 78 96 79
f 79 96 97
f 79 97 82
f 82 97 98
f 82 98 99
f 82 99 83
f 83 99 84
f 84 99 100
f 84 100 85
f 85 100 101
f 85 101 102
f 85 102 103
f 85 103 86
f 86 103 87
f 87 103 104
f 87 104 88
f 88 104 105
f 89 106 107
f 89 107 91
f 89 91 90
f 89 108 109
f 89 109 106
f 91 107 93
f 92 93 110
f 92 110 111
f 93 107 112
f 93 112 109
f 93 109 113
f 93 113 110
f 94 114 115
f 94 115 95
f 95 115 96
f 96 115 97
f 97 116 98
f 97 115 117
f 97 117 118
f 97 118 119
f 97 119 116
f 98 116 99
f 99 116 119
f 99 119 100
f 100 119 101
f 101 119 120
f 101 120 102
f 102 120 121
f 102 121 104
f 102 104 103
f 104 121 122
f 104 122 105
f 105 122 123
f 106 109 124
f 106 124 107
f 107 124 109
f 107 109 112
f 108 125 126
f 108 126 109
f 109 127 113
f 109 126 128
f 109 128 127
f 110 113 111
f 111 113 129
f 113 127 130
f 113 130 131
f 113 131 129
f 114 132 115
f 115 132 133
f 115 133 117
f 117 133 134
f 117 134 135
f 117 135 136
f 117 136 118
f 118 136 137
f 118 137 119
f 119 137 138
f 119 138 120
f 120 138 139
f 120 139 140
f 120 140 141
f 120 141 121
f 121 141 122
f 122 142 143
f 122 143 144
f 122 144 123
f 122 141 145
f 122 145 142
f 123 144 146
f 125 147 126
f 126 147 148
f 126 148 128
f 127 149 130
f 127 128 150
f 127 150 149
f 128 148 150
f 129 131 130
f 130 151 152
f 130 149 151
f 132 153 133
f 133 153 154
f 133 154 134
f 134 155 135
f 135 155 156
f 135 156 136
f 136 156 157
f 136 157 137
f 137 158 138
f 137 157 159
f 137 159 158
f 138 158 139
f 139 158 160
f 139 160 161
f 139 161 162
f 139 162 140
f 140 162 163
f 140 163 164
f 140 164 141
f 141 164 165
f 141 165 166
f 141 166 145
f 142 145 167
f 143 146 144
f 145 166 168
f 145 168 167
f 147 169 150
f 147 150 148
f 149 150 170
f 149 170 171
f 149 171 172
f 149 172 151
f 150 169 173
f 150 173 174
f 150 174 175
f 150 175 170
f 151 172 176
f 151 176 152
f 152 176 177
f 155 178 156
f 156 178 179
f 156 179 157
f 157 179 180
f 157 180 181
f 157 181 159
f 158 159 181
f 158 181 160
f 160 181 161
f 161 163 162
f 161 181 182
f 161 182 163
f 163 182 183
f 163 183 165
f 163 165 164
f 165 183 184
f 165 184 168
f 165 168 166
f 167 168 185
f 167 185 186
f 168 184 187
f 168 187 185
f 170 188 189
f 170 189 190
f 170 190 171
f 170 175 188
f 171 190 191
f 171 191 192
f 171 192 172
f 172 192 193
f 172 193 194
f 172 194 195
f 172 195 196
f 172 196 176
f 174 197 175
f 175 197 198
f 175 198 188
f 176 196 177
f 177 196 199
f 177 199 200
f 177 200 201
f 179 202 180
f 180 202 203
f 180 203 204
f 180 204 205
f 180 205 181
f 181 205 206
f 181 206 182
f 182 184 183
f 182 206 207
f 182 207 208
f 182 208 184
f 184 209 210
f 184 210 187
f 184 208 211
f 184 211 212
f 184 212 209
f 185 187 213
f 185 213 186
f 187 210 214
f 187 214 215
f 187 215 216
f 187 216 217
f 187 217 213
f 188 198 218
f 188 218 189
f 189 219 190
f 189 218 220
f 189 220 221
f 189 221 222
f 189 222 219
f 190 219 191
f 191 219 223
f 191 223 192
f 192 223 193
f 193 223 224
f 193 224 225
f 193 225 194
f 194 225 226
f 194 226 195
f 195 226 199
f 195 199 196
f 197 227 198
f 198 227 228
f 198 228 229
f 198 229 218
f 199 226 200
f 200 226 225
f 200 225 230
f 200 230 231
f 200 231 232
f 200 232 233
f 200 233 234
f 200 234 235
f 200 235 201
f 203 236 204
f 204 237 238
f 204 238 239
f 204 239 206
f 204 206 205
f 204 236 237
f 206 239 240
f 206 240 232
f 206 232 207
f 207 232 231
f 207 231 208
f 208 231 230
f 208 230 211
f 209 212 241
f 209 241 210
f 210 241 214
f 211 230 212
f 212 230 225
f 212 225 224
f 212 224 241
f 214 241 242
f 214 242 243
f 214 243 215
f 215 243 244
f 215 244 216
f 216 244 245
f 218 229 220
f 219 222 246
f 219 246 223
f 220 247 221
f 221 247 248
f 221 248 244
f 221 244 243
f 221 243 222
f 222 243 246
f 223 246 224
f 224 242 241
f 224 246 242
f 232 240 239
f 232 239 233
f 233 249 234
f 233 239 250
f 233 250 249
f 238 251 239
f 239 251 250
f 242 246 243
f 244 252 245
f 244 248 252

