# https://github.com/mikedh/trimesh
v 0.02555334 -0.05227962 -0.03624922
v 0.02555334 -0.06429403 -0.03624922
v 0.02555334 -0.05270897 -0.02358285
v 0.04779342 -0.05618901 -0.03624922
v 0.02555334 -0.06438750 -0.03606325
v 0.02796785 -0.06429403 -0.03624922
v 0.02555334 -0.06718847 -0.02358285
v 0.04779342 -0.05933902 -0.02358285
v 0.04779342 -0.06270808 -0.03624922
v 0.02555334 -0.06465474 -0.03547803
v 0.02796785 -0.06438750 -0.03606325
v 0.02948100 -0.06429111 -0.03624922
v 0.02555334 -0.06719870 -0.02396968
v 0.02645687 -0.06718847 -0.02358285
v 0.04779342 -0.06581135 -0.02358285
v 0.04779342 -0.06276795 -0.03612896
v 0.04778689 -0.06271100 -0.03624922
v 0.02555334 -0.06504904 -0.03461137
v 0.02796785 -0.06504904 -0.03461137
v 0.02948100 -0.06438457 -0.03606325
v 0.03099198 -0.06428381 -0.03624922
v 0.03099198 -0.06437873 -0.03606325
v 0.02796785 -0.06719724 -0.02396968
v 0.02555334 -0.06716365 -0.02548231
v 0.02645687 -0.06716365 -0.02548231
v 0.02835539 -0.06718701 -0.02358285
v 0.04779342 -0.06581573 -0.02377503
v 0.04761925 -0.06585224 -0.02358285
v 0.04779342 -0.06354925 -0.03451962
v 0.04770633 -0.06357407 -0.03451714
v 0.04773682 -0.06274897 -0.03619715
v 0.04770851 -0.06272998 -0.03624922
v 0.02555334 -0.06517609 -0.03430761
v 0.02796785 -0.06536302 -0.03385506
v 0.02948100 -0.06504758 -0.03460765
v 0.02948100 -0.06536156 -0.03385258
v 0.03219597 -0.06427359 -0.03624922
v 0.03099198 -0.06504466 -0.03460021
v 0.03250295 -0.06436559 -0.03606325
v 0.03250295 -0.06504028 -0.03458410
v 0.02796785 -0.06716219 -0.02548231
v 0.02948100 -0.06719431 -0.02396968
v 0.02555334 -0.06708917 -0.02638493
v 0.02796785 -0.06703805 -0.02699369
v 0.02948100 -0.06718409 -0.02358285
v 0.04779342 -0.06581865 -0.02396968
v 0.04761925 -0.06586100 -0.02396968
v 0.04649364 -0.06606837 -0.02358285
v 0.04779342 -0.06361058 -0.03439316
v 0.04726001 -0.06391434 -0.03399145
v 0.04610827 -0.06369090 -0.03501061
v 0.04610827 -0.06317539 -0.03606325
v 0.04610827 -0.06307609 -0.03624922
v 0.02555334 -0.06536302 -0.03385630
v 0.02645687 -0.06536302 -0.03385630
v 0.02796785 -0.06566239 -0.03303924
v 0.03099198 -0.06535864 -0.03384514
v 0.02948100 -0.06565947 -0.03303924
v 0.03250295 -0.06427067 -0.03624922
v 0.03401611 -0.06424730 -0.03624922
v 0.03401611 -0.06434076 -0.03606325
v 0.03552708 -0.06499501 -0.03455186
v 0.03405530 -0.06508847 -0.03440928
v 0.03357849 -0.06534549 -0.03381043
v 0.03250295 -0.06535280 -0.03382902
v 0.02948100 -0.06715927 -0.02548231
v 0.03099198 -0.06718993 -0.02396968
v 0.02555334 -0.06703805 -0.02699369
v 0.02555334 -0.06695627 -0.02761982
v 0.02555334 -0.06690078 -0.02804261
v 0.02645687 -0.06690078 -0.02804137
v 0.02796785 -0.06689932 -0.02804013
v 0.02948100 -0.06689786 -0.02803145
v 0.02948100 -0.06703513 -0.02699369
v 0.03099198 -0.06717971 -0.02358285
v 0.04779342 -0.06575586 -0.02548231
v 0.04610827 -0.06609612 -0.02548231
v 0.04761925 -0.06579821 -0.02548231
v 0.04610827 -0.06615015 -0.02396968
v 0.04610827 -0.06613993 -0.02358285
v 0.04779342 -0.06408374 -0.03324257
v 0.04610827 -0.06451893 -0.03303924
v 0.04610827 -0.06403555 -0.03425429
v 0.04513724 -0.06378729 -0.03522014
v 0.04412920 -0.06388221 -0.03541728
v 0.04461907 -0.06349959 -0.03597770
v 0.04461471 -0.06335064 -0.03624922
v 0.02555334 -0.06548423 -0.03352650
v 0.02796785 -0.06614869 -0.03152785
v 0.02555334 -0.06566239 -0.03303924
v 0.03099198 -0.06565363 -0.03303924
v 0.03099198 -0.06614139 -0.03152785
v 0.02948100 -0.06614577 -0.03152785
v 0.03520704 -0.06421663 -0.03624922
v 0.03552708 -0.06430279 -0.03606325
v 0.03552708 -0.06532213 -0.03374967
v 0.03458653 -0.06533527 -0.03378687
v 0.03703588 -0.06493951 -0.03455186
v 0.03405530 -0.06556455 -0.03318554
v 0.03250295 -0.06564049 -0.03303924
v 0.03099198 -0.06715489 -0.02548231
v 0.03250295 -0.06717825 -0.02396968
v 0.03137952 -0.06717679 -0.02358285
v 0.02555334 -0.06676935 -0.02879893
v 0.02796785 -0.06676935 -0.02879645
v 0.02948100 -0.06676789 -0.02878777
v 0.03099198 -0.06689640 -0.02801534
v 0.03099198 -0.06702929 -0.02699369
v 0.04779342 -0.06563903 -0.02678788
v 0.04610827 -0.06596469 -0.02699369
v 0.04459512 -0.06641448 -0.02396968
v 0.04459512 -0.06635460 -0.02548231
v 0.04761925 -0.06566239 -0.02699369
v 0.04459512 -0.06640426 -0.02358285
v 0.04779342 -0.06412609 -0.03312231
v 0.04770633 -0.06413631 -0.03315206
v 0.04761925 -0.06469271 -0.03152785
v 0.04601465 -0.06507240 -0.03141750
v 0.04459512 -0.06520092 -0.03181674
v 0.04459512 -0.06479202 -0.03303924
v 0.04461907 -0.06413777 -0.03464981
v 0.04308414 -0.06441232 -0.03455186
v 0.04308414 -0.06395669 -0.03556730
v 0.04308414 -0.06360474 -0.03624922
v 0.04316905 -0.06359160 -0.03624922
v 0.04341507 -0.06355071 -0.03624922
v 0.02796785 -0.06652401 -0.03001646
v 0.02555334 -0.06630057 -0.03091784
v 0.02555334 -0.06614869 -0.03152785
v 0.03250295 -0.06612825 -0.03152785
v 0.03250295 -0.06650502 -0.03001646
v 0.03099198 -0.06651671 -0.03001646
v 0.02948100 -0.06652109 -0.03001646
v 0.03552708 -0.06420787 -0.03624922
v 0.03705548 -0.06414508 -0.03624922
v 0.03714692 -0.06416114 -0.03620955
v 0.03552708 -0.06559668 -0.03299336
v 0.03703588 -0.06529584 -0.03367776
v 0.03854904 -0.06418450 -0.03600621
v 0.03854904 -0.06485481 -0.03455186
v 0.03401611 -0.06610780 -0.03152785
v 0.03250295 -0.06714320 -0.02548231
v 0.03401611 -0.06715780 -0.02396968
v 0.03250295 -0.06716803 -0.02358285
v 0.02555334 -0.06662331 -0.02952548
v 0.03099198 -0.06676497 -0.02877165
v 0.03250295 -0.06675913 -0.02873445
v 0.03250295 -0.06688910 -0.02797814
v 0.03250295 -0.06701761 -0.02699369
v 0.04779342 -0.06562004 -0.02699369
v 0.04459512 -0.06621149 -0.02699369
v 0.04610827 -0.06575293 -0.02850508
v 0.04347168 -0.06656198 -0.02358285
v 0.04308414 -0.06662623 -0.02396968
v 0.04308414 -0.06657366 -0.02548231
v 0.04308414 -0.06643200 -0.02699369
v 0.04758877 -0.06546524 -0.02841333
v 0.04779342 -0.06543896 -0.02827819
v 0.04779342 -0.06465182 -0.03152785
v 0.04758877 -0.06512498 -0.02998175
v 0.04645662 -0.06525787 -0.03046281
v 0.04544858 -0.06535864 -0.03083973
v 0.04459512 -0.06542435 -0.03106042
v 0.04299052 -0.06550613 -0.03156753
v 0.04343249 -0.06528270 -0.03209818
v 0.04242445 -0.06535280 -0.03232260
v 0.04299052 -0.06506510 -0.03291153
v 0.04157316 -0.06513082 -0.03321654
v 0.04157316 -0.06460071 -0.03455186
v 0.04157316 -0.06405307 -0.03574708
v 0.04157316 -0.06379167 -0.03624922
v 0.02555334 -0.06652401 -0.03001646
v 0.03401611 -0.06648604 -0.03001646
v 0.03712079 -0.06414215 -0.03624922
v 0.03718393 -0.06413923 -0.03624922
v 0.03552708 -0.06607130 -0.03152785
v 0.03703588 -0.06556893 -0.03292145
v 0.03854904 -0.06525495 -0.03356494
v 0.03854904 -0.06406037 -0.03624922
v 0.04006001 -0.06413047 -0.03589587
v 0.03830084 -0.06407498 -0.03624922
v 0.04006001 -0.06474820 -0.03455186
v 0.03552708 -0.06645245 -0.03001646
v 0.03401611 -0.06712130 -0.02548231
v 0.03552708 -0.06712714 -0.02396968
v 0.03440147 -0.06714028 -0.02358285
v 0.03401611 -0.06714758 -0.02358285
v 0.03401611 -0.06675036 -0.02867122
v 0.03401611 -0.06687887 -0.02791615
v 0.03401611 -0.06699570 -0.02699369
v 0.04459512 -0.06599682 -0.02850508
v 0.04706406 -0.06538930 -0.02945605
v 0.04459512 -0.06569014 -0.03001646
v 0.04601465 -0.06546378 -0.02998175
v 0.04308414 -0.06661455 -0.02358285
v 0.04079808 -0.06684967 -0.02369072
v 0.04142076 -0.06679125 -0.02410483
v 0.04081768 -0.06685113 -0.02469872
v 0.04081768 -0.06685113 -0.02472724
v 0.04142076 -0.06675475 -0.02533229
v 0.04046715 -0.06681754 -0.02573524
v 0.04157316 -0.06659557 -0.02699369
v 0.04157316 -0.06638527 -0.02850508
v 0.04308414 -0.06621733 -0.02850508
v 0.04779342 -0.06537908 -0.02860179
v 0.04779342 -0.06507387 -0.02998671
v 0.04308414 -0.06591504 -0.03001646
v 0.04157316 -0.06569160 -0.03152785
v 0.04157316 -0.06539953 -0.03246022
v 0.04006001 -0.06520238 -0.03341367
v 0.04073494 -0.06387783 -0.03624922
v 0.03703588 -0.06601726 -0.03152785
v 0.03703588 -0.06639988 -0.03001646
v 0.03854904 -0.06552658 -0.03280862
v 0.03944387 -0.06399466 -0.03624922
v 0.04006001 -0.06394646 -0.03624922
v 0.03565989 -0.06675620 -0.02840713
v 0.03552708 -0.06708917 -0.02548231
v 0.03703588 -0.06707603 -0.02396968
v 0.03552708 -0.06711692 -0.02358285
v 0.03524623 -0.06686573 -0.02783804
v 0.03565989 -0.06693875 -0.02714000
v 0.04779342 -0.06518485 -0.02950440
v 0.04086558 -0.06683945 -0.02358285
v 0.04070882 -0.06685259 -0.02358285
v 0.04007090 -0.06689932 -0.02358285
v 0.04019935 -0.06690224 -0.02410483
v 0.03854904 -0.06701031 -0.02396968
v 0.04000123 -0.06688618 -0.02533229
v 0.03945910 -0.06686573 -0.02635641
v 0.04000123 -0.06674598 -0.02691310
v 0.04157316 -0.06609174 -0.03001646
v 0.04006001 -0.06651232 -0.02850508
v 0.04006001 -0.06582595 -0.03152785
v 0.04006001 -0.06546963 -0.03265736
v 0.03854904 -0.06593840 -0.03152785
v 0.03854904 -0.06632686 -0.03001646
v 0.03854904 -0.06661747 -0.02850508
v 0.03703588 -0.06668903 -0.02850508
v 0.03625209 -0.06684967 -0.02774133
v 0.03703588 -0.06692269 -0.02684987
v 0.03703588 -0.06703659 -0.02548231
v 0.03742343 -0.06704828 -0.02358285
v 0.03703588 -0.06706434 -0.02358285
v 0.03591463 -0.06710377 -0.02358285
v 0.03886691 -0.06697964 -0.02358285
v 0.03854904 -0.06699863 -0.02358285
v 0.03854904 -0.06697088 -0.02548231
v 0.03854904 -0.06688910 -0.02656594
v 0.03854904 -0.06679710 -0.02732226
v 0.04006001 -0.06621879 -0.03001646
v 0.03703588 -0.06683360 -0.02760494
f 1 2 5
f 1 5 10
f 1 10 18
f 1 18 33
f 1 33 54
f 1 54 88
f 1 88 90
f 1 90 129
f 1 129 128
f 1 128 172
f 1 172 145
f 1 145 104
f 1 104 70
f 1 70 69
f 1 69 68
f 1 68 43
f 1 43 24
f 1 24 13
f 1 13 7
f 1 7 3
f 1 3 4
f 1 4 9
f 1 9 17
f 1 17 32
f 1 32 53
f 1 53 87
f 1 87 126
f 1 126 125
f 1 125 124
f 1 124 171
f 1 171 211
f 1 211 216
f 1 216 215
f 1 215 179
f 1 179 181
f 1 181 175
f 1 175 174
f 1 174 135
f 1 135 134
f 1 134 94
f 1 94 60
f 1 60 59
f 1 59 37
f 1 37 21
f 1 21 12
f 1 12 6
f 1 6 2
f 2 6 11
f 2 11 5
f 3 7 14
f 3 14 26
f 3 26 45
f 3 45 75
f 3 75 103
f 3 103 144
f 3 144 187
f 3 187 186
f 3 186 220
f 3 220 245
f 3 245 244
f 3 244 243
f 3 243 247
f 3 247 246
f 3 246 226
f 3 226 225
f 3 225 224
f 3 224 195
f 3 195 153
f 3 153 114
f 3 114 80
f 3 80 48
f 3 48 28
f 3 28 15
f 3 15 8
f 3 8 4
f 4 8 15
f 4 15 27
f 4 27 46
f 4 46 76
f 4 76 109
f 4 109 150
f 4 150 158
f 4 158 205
f 4 205 223
f 4 223 206
f 4 206 159
f 4 159 115
f 4 115 81
f 4 81 49
f 4 49 29
f 4 29 16
f 4 16 9
f 5 11 10
f 6 12 20
f 6 20 11
f 7 13 14
f 9 16 17
f 10 11 19
f 10 19 18
f 11 20 19
f 12 21 22
f 12 22 20
f 13 23 14
f 13 24 25
f 13 25 23
f 14 23 26
f 15 28 27
f 16 29 30
f 16 30 31
f 16 31 17
f 17 31 32
f 18 19 33
f 19 34 33
f 19 20 35
f 19 35 36
f 19 36 34
f 20 22 35
f 21 37 22
f 22 38 35
f 22 37 39
f 22 39 40
f 22 40 38
f 23 25 41
f 23 41 66
f 23 66 42
f 23 42 26
f 24 43 25
f 25 44 41
f 25 43 44
f 26 42 45
f 27 28 47
f 27 47 46
f 28 48 47
f 29 49 30
f 30 32 31
f 30 49 50
f 30 50 51
f 30 51 32
f 32 51 52
f 32 52 53
f 33 34 55
f 33 55 54
f 34 56 55
f 34 36 56
f 35 38 57
f 35 57 36
f 36 57 58
f 36 58 56
f 37 59 39
f 38 40 57
f 39 59 60
f 39 60 61
f 39 61 40
f 40 61 62
f 40 62 63
f 40 63 64
f 40 64 65
f 40 65 57
f 41 44 74
f 41 74 66
f 42 66 101
f 42 101 67
f 42 67 75
f 42 75 45
f 43 68 44
f 44 68 69
f 44 69 70
f 44 70 71
f 44 71 72
f 44 72 73
f 44 73 74
f 46 47 78
f 46 78 76
f 47 77 78
f 47 48 79
f 47 79 77
f 48 80 79
f 49 81 50
f 50 82 83
f 50 83 51
f 50 81 82
f 51 83 84
f 51 84 52
f 52 84 85
f 52 85 86
f 52 86 53
f 53 86 87
f 54 55 88
f 55 56 88
f 56 89 129
f 56 129 90
f 56 90 88
f 56 58 93
f 56 93 89
f 57 65 91
f 57 91 58
f 58 91 92
f 58 92 93
f 60 94 95
f 60 95 61
f 61 95 62
f 62 96 97
f 62 97 63
f 62 95 98
f 62 98 96
f 63 97 64
f 64 97 99
f 64 99 100
f 64 100 65
f 65 100 91
f 66 74 101
f 67 101 142
f 67 142 102
f 67 102 103
f 67 103 75
f 70 104 105
f 70 105 71
f 71 105 72
f 72 105 106
f 72 106 73
f 73 106 107
f 73 107 74
f 74 107 108
f 74 108 101
f 76 78 109
f 77 110 78
f 77 79 111
f 77 111 112
f 77 112 110
f 78 113 109
f 78 110 113
f 79 80 114
f 79 114 111
f 81 115 116
f 81 116 82
f 82 116 117
f 82 117 118
f 82 118 119
f 82 119 120
f 82 120 83
f 83 120 121
f 83 121 84
f 84 121 85
f 85 121 122
f 85 122 123
f 85 123 124
f 85 124 125
f 85 125 86
f 86 125 126
f 86 126 87
f 89 127 128
f 89 128 129
f 89 93 133
f 89 133 127
f 91 100 130
f 91 130 92
f 92 130 131
f 92 131 132
f 92 132 133
f 92 133 93
f 94 134 95
f 95 134 135
f 95 135 136
f 95 136 98
f 96 137 97
f 96 98 138
f 96 138 137
f 97 137 99
f 98 136 139
f 98 139 140
f 98 140 138
f 99 141 100
f 99 137 141
f 100 141 130
f 101 108 149
f 101 149 142
f 102 142 143
f 102 143 187
f 102 187 144
f 102 144 103
f 104 145 105
f 105 145 127
f 105 127 133
f 105 133 106
f 106 133 132
f 106 132 146
f 106 146 107
f 107 146 147
f 107 147 148
f 107 148 149
f 107 149 108
f 109 113 150
f 110 112 151
f 110 151 152
f 110 152 113
f 111 114 153
f 111 153 154
f 111 154 155
f 111 155 112
f 112 155 156
f 112 156 151
f 113 152 157
f 113 157 158
f 113 158 150
f 115 159 117
f 115 117 116
f 117 160 161
f 117 161 118
f 117 159 160
f 118 162 119
f 118 161 162
f 119 162 163
f 119 163 164
f 119 164 165
f 119 165 120
f 120 165 166
f 120 166 167
f 120 167 122
f 120 122 121
f 122 167 168
f 122 168 169
f 122 169 123
f 123 169 170
f 123 170 124
f 124 170 171
f 127 145 172
f 127 172 128
f 130 141 173
f 130 173 131
f 131 173 147
f 131 147 146
f 131 146 132
f 135 174 136
f 136 174 175
f 136 175 139
f 137 176 141
f 137 138 177
f 137 177 176
f 138 140 178
f 138 178 177
f 139 179 180
f 139 180 140
f 139 175 181
f 139 181 179
f 140 180 182
f 140 182 178
f 141 176 183
f 141 183 173
f 142 149 190
f 142 190 184
f 142 184 143
f 143 184 185
f 143 185 186
f 143 186 187
f 147 173 188
f 147 188 148
f 148 188 189
f 148 189 149
f 149 189 190
f 151 191 152
f 151 156 204
f 151 204 191
f 152 192 157
f 152 191 193
f 152 193 194
f 152 194 192
f 153 195 154
f 154 195 196
f 154 196 197
f 154 197 198
f 154 198 199
f 154 199 155
f 155 199 200
f 155 200 201
f 155 201 202
f 155 202 156
f 156 202 203
f 156 203 204
f 157 192 205
f 157 205 158
f 159 206 160
f 160 192 161
f 160 206 192
f 161 192 194
f 161 194 162
f 162 194 193
f 162 193 207
f 162 207 163
f 163 207 164
f 164 207 208
f 164 208 166
f 164 166 165
f 166 208 209
f 166 209 168
f 166 168 167
f 168 209 210
f 168 210 169
f 169 210 182
f 169 182 170
f 170 211 171
f 170 182 180
f 170 180 211
f 173 183 188
f 176 177 212
f 176 212 213
f 176 213 183
f 177 178 214
f 177 214 212
f 178 182 210
f 178 210 214
f 179 215 180
f 180 215 216
f 180 216 211
f 183 213 217
f 183 217 188
f 184 190 218
f 184 218 185
f 185 219 220
f 185 220 186
f 185 218 219
f 188 217 221
f 188 221 189
f 189 221 190
f 190 221 222
f 190 222 218
f 191 204 207
f 191 207 193
f 192 206 223
f 192 223 205
f 195 224 196
f 196 225 226
f 196 226 227
f 196 227 198
f 196 198 197
f 196 224 225
f 198 227 199
f 199 227 228
f 199 228 229
f 199 229 201
f 199 201 200
f 201 229 230
f 201 230 202
f 202 230 231
f 202 231 203
f 203 232 204
f 203 231 233
f 203 233 251
f 203 251 232
f 204 232 207
f 207 232 208
f 208 232 234
f 208 234 209
f 209 234 235
f 209 235 210
f 210 235 214
f 212 214 236
f 212 236 237
f 212 237 213
f 213 237 238
f 213 238 239
f 213 239 217
f 214 235 236
f 217 239 240
f 217 240 221
f 218 222 241
f 218 241 242
f 218 242 219
f 219 242 248
f 219 248 228
f 219 228 243
f 219 243 244
f 219 244 245
f 219 245 220
f 221 240 222
f 222 240 241
f 226 246 228
f 226 228 227
f 228 246 247
f 228 247 243
f 228 248 229
f 229 248 230
f 230 248 242
f 230 242 249
f 230 249 250
f 230 250 231
f 231 250 233
f 232 251 234
f 233 250 238
f 233 238 237
f 233 237 251
f 234 251 236
f 234 236 235
f 236 251 237
f 238 250 252
f 238 252 240
f 238 240 239
f 240 252 241
f 241 252 249
f 241 249 242
f 249 252 250

