# https://github.com/mikedh/trimesh
v -0.00226754 -0.02722029 -0.02278850
v 0.00226600 -0.02722029 -0.02278850
v -0.00377788 -0.02722029 -0.02278683
v -0.00680108 -0.02259367 -0.01338861
v -0.00680108 -0.02185059 -0.01187929
v 0.00680208 -0.02185059 -0.01187929
v 0.00680208 -0.02259367 -0.01338861
v 0.00377887 -0.02722029 -0.02278683
v -0.00519461 -0.02722029 -0.02237444
v -0.00912351 -0.02451084 -0.01718530
v -0.01072240 -0.02315245 -0.01447553
v -0.01072240 -0.02260101 -0.01338861
v -0.00831395 -0.02259587 -0.01338861
v -0.00831395 -0.02185279 -0.01187929
v -0.01072240 -0.02164426 -0.01143184
v -0.01072240 -0.02149814 -0.01112296
v -0.01072240 -0.02128814 -0.01067383
v -0.00680108 -0.02114349 -0.01036496
v -0.00529075 -0.02149814 -0.01112463
v 0.00528921 -0.02149814 -0.01112463
v 0.00680208 -0.02114349 -0.01036496
v 0.01512285 -0.02132265 -0.01074730
v 0.01512285 -0.02149814 -0.01112296
v 0.00831242 -0.02185279 -0.01187929
v 0.00831242 -0.02259587 -0.01338861
v 0.01512285 -0.02186307 -0.01187929
v 0.01437148 -0.02269206 -0.01353220
v 0.01387562 -0.02300339 -0.01415663
v 0.00407993 -0.02722029 -0.02275678
v -0.00527557 -0.02722029 -0.02231433
v -0.01072240 -0.02421640 -0.01618521
v -0.01072240 -0.02374574 -0.01551068
v -0.01072240 -0.02185793 -0.01187929
v -0.01072240 -0.02072569 -0.00946838
v 0.01512285 -0.02023887 -0.00842487
v 0.01512285 -0.02114422 -0.01036496
v 0.01512285 -0.02265608 -0.01339863
v 0.00519560 -0.02722029 -0.02237444
v -0.00624451 -0.02722029 -0.02159139
v -0.01072240 -0.02475756 -0.01648073
v -0.01072240 -0.02043859 -0.00885229
v 0.01512285 -0.02003695 -0.00798911
v -0.01072240 -0.02020069 -0.00834139
v -0.01072240 -0.02003695 -0.00798911
v 0.01512285 -0.02376630 -0.01408150
v 0.00624297 -0.02722029 -0.02159139
v -0.01072240 -0.02722029 -0.01622361
v -0.01072240 -0.02618057 -0.01653248
v -0.01072240 -0.02529210 -0.01657756
v 0.01512285 -0.01987908 -0.00761511
v -0.01072240 -0.01971974 -0.00723444
v 0.01512285 -0.02527815 -0.01386946
v 0.01512285 -0.02676358 -0.01331014
v 0.01512285 -0.02722029 -0.01313650
v -0.01072240 -0.02722029 -0.00653154
v 0.01512285 -0.01971974 -0.00723444
v -0.01072240 -0.01971974 -0.00619595
v 0.01512285 -0.02722029 -0.00651818
v -0.01072240 -0.02074331 -0.00573347
v 0.01512285 -0.01971974 -0.00619595
v 0.01284849 -0.02074331 -0.00573180
v 0.01512285 -0.02074331 -0.00573347
v 0.01512285 -0.02022786 -0.00596554
f 1 2 8
f 1 8 29
f 1 29 38
f 1 38 46
f 1 46 54
f 1 54 58
f 1 58 55
f 1 55 47
f 1 47 39
f 1 39 30
f 1 30 9
f 1 9 3
f 1 3 4
f 1 4 5
f 1 5 6
f 1 6 2
f 2 6 7
f 2 7 8
f 3 9 10
f 3 10 11
f 3 11 12
f 3 12 13
f 3 13 4
f 4 13 14
f 4 14 5
f 5 14 15
f 5 15 16
f 5 16 17
f 5 17 18
f 5 18 19
f 5 19 20
f 5 20 6
f 6 20 21
f 6 21 22
f 6 22 23
f 6 23 24
f 6 24 25
f 6 25 7
f 7 25 8
f 8 25 26
f 8 26 27
f 8 27 28
f 8 28 29
f 9 30 31
f 9 31 10
f 10 31 32
f 10 32 11
f 11 32 31
f 11 31 40
f 11 40 49
f 11 49 48
f 11 48 47
f 11 47 55
f 11 55 59
f 11 59 57
f 11 57 51
f 11 51 44
f 11 44 43
f 11 43 41
f 11 41 34
f 11 34 17
f 11 17 16
f 11 16 15
f 11 15 33
f 11 33 12
f 12 33 14
f 12 14 13
f 14 33 15
f 17 34 18
f 18 34 35
f 18 35 21
f 18 21 20
f 18 20 19
f 21 35 36
f 21 36 22
f 22 36 35
f 22 35 42
f 22 42 50
f 22 50 56
f 22 56 60
f 22 60 63
f 22 63 62
f 22 62 58
f 22 58 54
f 22 54 53
f 22 53 52
f 22 52 45
f 22 45 37
f 22 37 26
f 22 26 23
f 23 26 24
f 24 26 25
f 26 37 27
f 27 37 28
f 28 37 29
f 29 37 38
f 30 39 31
f 31 39 40
f 34 41 35
f 35 41 43
f 35 43 44
f 35 44 42
f 37 45 38
f 38 45 46
f 39 47 48
f 39 48 49
f 39 49 40
f 42 44 50
f 44 51 50
f 45 52 46
f 46 52 53
f 46 53 54
f 50 51 56
f 51 57 60
f 51 60 56
f 55 58 59
f 57 59 61
f 57 61 60
f 58 62 61
f 58 61 59
f 60 61 63
f 61 62 63

