# https://github.com/mikedh/trimesh
v 0.02555334 -0.06429524 -0.03625086
v 0.02555334 -0.06392275 -0.03698690
v 0.02796785 -0.06392275 -0.03698690
v 0.02796785 -0.06429276 -0.03625086
v 0.02555334 -0.05227880 -0.03625086
v 0.02555334 -0.06347080 -0.03774260
v 0.02796785 -0.06347080 -0.03774260
v 0.02948100 -0.06392027 -0.03698362
v 0.02948100 -0.06429027 -0.03625086
v 0.04779342 -0.05618743 -0.03625086
v 0.04779342 -0.03928396 -0.04712252
v 0.02555334 -0.03944041 -0.04725366
v 0.02555334 -0.06301885 -0.03845241
v 0.02796785 -0.06271341 -0.03893107
v 0.02948100 -0.06271341 -0.03892943
v 0.02948100 -0.06346832 -0.03773932
v 0.03099198 -0.06346583 -0.03773276
v 0.03099198 -0.06391530 -0.03697706
v 0.03068717 -0.06428531 -0.03625086
v 0.04779342 -0.06270844 -0.03625086
v 0.04779342 -0.03892638 -0.04815690
v 0.02555334 -0.03909275 -0.04815690
v 0.02555334 -0.03929886 -0.04760775
v 0.02555334 -0.06271341 -0.03893107
v 0.02796785 -0.06220186 -0.03968678
v 0.02948100 -0.06220186 -0.03968514
v 0.03099198 -0.06271093 -0.03892616
v 0.03250295 -0.06345839 -0.03771965
v 0.03250295 -0.06270348 -0.03891796
v 0.03250295 -0.06390785 -0.03696395
v 0.03250295 -0.06427041 -0.03625086
v 0.03099198 -0.06428282 -0.03625086
v 0.04778689 -0.06271093 -0.03625086
v 0.04779342 -0.06201562 -0.03746228
v 0.02555334 -0.03915980 -0.04871262
v 0.04779342 -0.03928645 -0.04945685
v 0.04459512 -0.03928893 -0.04950111
v 0.04157316 -0.03929141 -0.04952242
v 0.04006001 -0.03929141 -0.04952733
v 0.03854904 -0.03929141 -0.04953061
v 0.03703588 -0.03929141 -0.04953389
v 0.02555334 -0.03929390 -0.04953717
v 0.02555334 -0.06220186 -0.03968678
v 0.02555334 -0.06178468 -0.04023102
v 0.02796785 -0.06150159 -0.04059985
v 0.02948100 -0.06149910 -0.04059985
v 0.03099198 -0.06149414 -0.04059985
v 0.03099198 -0.06219938 -0.03968186
v 0.03250295 -0.06219441 -0.03967366
v 0.03401611 -0.06344597 -0.03769670
v 0.03401611 -0.06269106 -0.03890157
v 0.03401611 -0.06389544 -0.03694100
v 0.03401611 -0.06424557 -0.03625086
v 0.04770851 -0.06272831 -0.03625086
v 0.04731009 -0.06243032 -0.03700657
v 0.04779342 -0.06196844 -0.03753769
v 0.04779342 -0.04091049 -0.05231410
v 0.04610827 -0.04091049 -0.05233869
v 0.04308414 -0.03929141 -0.04951422
v 0.04459512 -0.04091049 -0.05235508
v 0.04308414 -0.04090801 -0.05236655
v 0.04157316 -0.04090801 -0.05237475
v 0.04006001 -0.04090801 -0.05237967
v 0.03854904 -0.04090801 -0.05238295
v 0.03250295 -0.03972102 -0.05029287
v 0.02555334 -0.03946524 -0.04984207
v 0.03552708 -0.04090801 -0.05238623
v 0.02555334 -0.06150159 -0.04059985
v 0.02645687 -0.06085842 -0.04141949
v 0.02948100 -0.06085842 -0.04141785
v 0.03250295 -0.06147924 -0.04059985
v 0.03099198 -0.06085594 -0.04141457
v 0.03401611 -0.06145440 -0.04059985
v 0.03401611 -0.06218200 -0.03965727
v 0.03552708 -0.06342610 -0.03765900
v 0.03552708 -0.06267119 -0.03887534
v 0.03552708 -0.06216461 -0.03963104
v 0.03552708 -0.06420833 -0.03625086
v 0.03552708 -0.06387309 -0.03690329
v 0.04610827 -0.06307597 -0.03625086
v 0.04610827 -0.06255696 -0.03722131
v 0.04610827 -0.06209260 -0.03797702
v 0.04761925 -0.06115641 -0.03885567
v 0.04773682 -0.06198334 -0.03753605
v 0.04779342 -0.06113407 -0.03882288
v 0.04779342 -0.04190876 -0.05275834
v 0.04761925 -0.04190876 -0.05276818
v 0.04610827 -0.04190876 -0.05284030
v 0.04459512 -0.04190876 -0.05289440
v 0.04308414 -0.04190876 -0.05293047
v 0.04157316 -0.04190876 -0.05295669
v 0.04006001 -0.04190876 -0.05297309
v 0.03854904 -0.04190876 -0.05298292
v 0.03703588 -0.04190876 -0.05298948
v 0.03552708 -0.04190876 -0.05299440
v 0.02555334 -0.03972102 -0.05029287
v 0.03401611 -0.04090801 -0.05238459
v 0.03401611 -0.04190876 -0.05299604
v 0.02555334 -0.06085842 -0.04141949
v 0.02645687 -0.06015567 -0.04217519
v 0.02796785 -0.06015567 -0.04217356
v 0.02948100 -0.06015318 -0.04217356
v 0.03250295 -0.06084601 -0.04140474
v 0.03099198 -0.06014822 -0.04217028
v 0.03250295 -0.06014077 -0.04216044
v 0.03401611 -0.06083111 -0.04138670
v 0.03503722 -0.06081621 -0.04136867
v 0.03553579 -0.06129548 -0.04074247
v 0.03714692 -0.06348073 -0.03745081
v 0.03671583 -0.06385074 -0.03686231
v 0.03703588 -0.06264140 -0.03882616
v 0.03703588 -0.06137742 -0.04055723
v 0.03703588 -0.06213233 -0.03958350
v 0.03718393 -0.06413880 -0.03625086
v 0.04461471 -0.06335160 -0.03625086
v 0.04459512 -0.06269106 -0.03745573
v 0.04459512 -0.06224408 -0.03821143
v 0.04611263 -0.06126319 -0.03919664
v 0.04761925 -0.06063990 -0.03961137
v 0.04779342 -0.06067715 -0.03949171
v 0.04779342 -0.04343347 -0.05243540
v 0.04761925 -0.04342106 -0.05245835
v 0.04610827 -0.04342106 -0.05255999
v 0.04459512 -0.04342106 -0.05263868
v 0.04308414 -0.04342106 -0.05269441
v 0.04157316 -0.04342106 -0.05273375
v 0.04006001 -0.04342106 -0.05275670
v 0.03854904 -0.04342106 -0.05277473
v 0.03703588 -0.04342106 -0.05278621
v 0.03552708 -0.04342106 -0.05279441
v 0.03401611 -0.04342106 -0.05279768
v 0.02555334 -0.04023008 -0.05117972
v 0.02555334 -0.04090801 -0.05225017
v 0.02555334 -0.04190876 -0.05257966
v 0.02555334 -0.04131029 -0.05238295
v 0.02555334 -0.06015567 -0.04217519
v 0.02796785 -0.05940076 -0.04297516
v 0.02948100 -0.05939827 -0.04297352
v 0.03099198 -0.05939331 -0.04296860
v 0.03250295 -0.05938338 -0.04295877
v 0.03401611 -0.05936848 -0.04294401
v 0.03401611 -0.06012338 -0.04214241
v 0.03552708 -0.05934364 -0.04291942
v 0.03553579 -0.06023513 -0.04196865
v 0.03604526 -0.06079138 -0.04134244
v 0.03772388 -0.06382342 -0.03681313
v 0.03854904 -0.06332429 -0.03757703
v 0.03854904 -0.06259918 -0.03875567
v 0.03703588 -0.06076654 -0.04131294
v 0.03854904 -0.06132776 -0.04049822
v 0.03854904 -0.06208267 -0.03951138
v 0.03830084 -0.06407423 -0.03625086
v 0.04341507 -0.06355026 -0.03625086
v 0.04308414 -0.06356516 -0.03632463
v 0.04381786 -0.06231112 -0.03832618
v 0.04322131 -0.06275562 -0.03772457
v 0.04459512 -0.06163568 -0.03908844
v 0.04561187 -0.06085842 -0.03991464
v 0.04661991 -0.06075164 -0.03977366
v 0.04779342 -0.06061507 -0.03957859
v 0.04758223 -0.05979559 -0.04069001
v 0.04779342 -0.05978070 -0.04064084
v 0.04779342 -0.04356260 -0.05237147
v 0.04779342 -0.04429764 -0.05199936
v 0.04761925 -0.04431254 -0.05200591
v 0.04610827 -0.04441684 -0.05206001
v 0.04459512 -0.04450127 -0.05210099
v 0.04308414 -0.04456335 -0.05213050
v 0.04157316 -0.04461053 -0.05215181
v 0.04006001 -0.04464281 -0.05216492
v 0.03854904 -0.04466516 -0.05217476
v 0.03703588 -0.04468255 -0.05218132
v 0.03552708 -0.04469496 -0.05218623
v 0.03401611 -0.04470241 -0.05218787
v 0.02555334 -0.04342106 -0.05235016
v 0.02555334 -0.04251964 -0.05248786
v 0.02555334 -0.04644317 -0.05135512
v 0.02555334 -0.04528349 -0.05183051
v 0.02555334 -0.05940076 -0.04297516
v 0.02796785 -0.05858377 -0.04373087
v 0.02948100 -0.05858129 -0.04372923
v 0.03099198 -0.05857632 -0.04372431
v 0.03250295 -0.05856639 -0.04371447
v 0.03401611 -0.05854900 -0.04369972
v 0.03539210 -0.05838511 -0.04380791
v 0.03674414 -0.05931633 -0.04289320
v 0.03580577 -0.05776430 -0.04436526
v 0.03703588 -0.05773698 -0.04434231
v 0.03716434 -0.05988251 -0.04226208
v 0.03854904 -0.06379611 -0.03676232
v 0.03854904 -0.06405933 -0.03625086
v 0.04006001 -0.06320509 -0.03757703
v 0.04006001 -0.06254207 -0.03866387
v 0.03854904 -0.05996197 -0.04208340
v 0.03854904 -0.06071688 -0.04125392
v 0.04006001 -0.06126319 -0.04042445
v 0.04006001 -0.06202058 -0.03941958
v 0.04308414 -0.06360490 -0.03625086
v 0.04157316 -0.06365953 -0.03650495
v 0.04157316 -0.06305610 -0.03757703
v 0.04280981 -0.06239307 -0.03844585
v 0.04322131 -0.06192622 -0.03900484
v 0.04459512 -0.06095279 -0.04004086
v 0.04459512 -0.06035184 -0.04079657
v 0.04611263 -0.06029224 -0.04049166
v 0.04705535 -0.05934364 -0.04141457
v 0.04779342 -0.05953485 -0.04093918
v 0.04779342 -0.04503765 -0.05161085
v 0.04761925 -0.04506745 -0.05161249
v 0.04610827 -0.04517175 -0.05166986
v 0.04459512 -0.04525866 -0.05171740
v 0.04308414 -0.04532074 -0.05175183
v 0.04157316 -0.04536792 -0.05177642
v 0.04006001 -0.04539772 -0.05179281
v 0.03854904 -0.04542255 -0.05180592
v 0.03703588 -0.04543994 -0.05181576
v 0.03552708 -0.04544987 -0.05182068
v 0.03401611 -0.04545732 -0.05182559
v 0.02796785 -0.04644317 -0.05135512
v 0.02555334 -0.04697458 -0.05109284
v 0.02555334 -0.05858377 -0.04373087
v 0.02555334 -0.05813182 -0.04414232
v 0.02796785 -0.05782638 -0.04441936
v 0.02948100 -0.05782389 -0.04441772
v 0.03099198 -0.05781893 -0.04441280
v 0.03250295 -0.05781148 -0.04440625
v 0.03401611 -0.05779161 -0.04438985
v 0.03479990 -0.05778168 -0.04438002
v 0.03775218 -0.05928901 -0.04286533
v 0.03716434 -0.05868558 -0.04345875
v 0.03539210 -0.05716583 -0.04485705
v 0.03703588 -0.05698207 -0.04495540
v 0.03854904 -0.05693738 -0.04492098
v 0.03854904 -0.05769228 -0.04430461
v 0.03854904 -0.05926418 -0.04283910
v 0.04006001 -0.06373651 -0.03665248
v 0.03944387 -0.06399477 -0.03625086
v 0.04157316 -0.06246757 -0.03855568
v 0.04006001 -0.05920210 -0.04277681
v 0.04006001 -0.05989741 -0.04202110
v 0.04006001 -0.06065231 -0.04118016
v 0.04157316 -0.06118125 -0.04032609
v 0.04157316 -0.06193615 -0.03931302
v 0.04157316 -0.06379114 -0.03625086
v 0.04073494 -0.06387805 -0.03625086
v 0.04308414 -0.06107447 -0.04019987
v 0.04308414 -0.06047352 -0.04095558
v 0.04459512 -0.05959445 -0.04168505
v 0.04610827 -0.05944546 -0.04152932
v 0.04610827 -0.05873028 -0.04228503
v 0.04718381 -0.05785369 -0.04294074
v 0.04779342 -0.05829075 -0.04233093
v 0.04779342 -0.05850431 -0.04209815
v 0.04779342 -0.05879236 -0.04178341
v 0.04779342 -0.04666169 -0.05074859
v 0.04610827 -0.04644317 -0.05100268
v 0.04772375 -0.04658720 -0.05079449
v 0.04459512 -0.04644317 -0.05110268
v 0.04308414 -0.04754325 -0.05060598
v 0.04308414 -0.04644317 -0.05117644
v 0.04157316 -0.04644317 -0.05123382
v 0.04006001 -0.04644317 -0.05127152
v 0.03854904 -0.04644317 -0.05129939
v 0.03703588 -0.04644317 -0.05132070
v 0.03552708 -0.04644317 -0.05133381
v 0.03401611 -0.04644317 -0.05134365
v 0.03250295 -0.04644317 -0.05135021
v 0.03099198 -0.04644317 -0.05135348
v 0.02948100 -0.04775681 -0.05070433
v 0.02555334 -0.04775681 -0.05070433
v 0.02555334 -0.05782638 -0.04441936
v 0.02796785 -0.05702429 -0.04504392
v 0.02948100 -0.05702429 -0.04504228
v 0.03099198 -0.05702429 -0.04503573
v 0.03250295 -0.05702429 -0.04502261
v 0.03401611 -0.05702429 -0.04499966
v 0.03854904 -0.05850679 -0.04354891
v 0.03552708 -0.05605086 -0.04573242
v 0.03703588 -0.05602354 -0.04571111
v 0.03854904 -0.05598133 -0.04567668
v 0.04006001 -0.05687530 -0.04486852
v 0.04006001 -0.05592173 -0.04562423
v 0.04006001 -0.05763020 -0.04424887
v 0.04006001 -0.05844719 -0.04349317
v 0.04006001 -0.06394510 -0.03625086
v 0.04157316 -0.05912015 -0.04269157
v 0.04157316 -0.05836524 -0.04341612
v 0.04157316 -0.05981546 -0.04193586
v 0.04157316 -0.06057037 -0.04108180
v 0.04308414 -0.05971613 -0.04182111
v 0.04308414 -0.05901337 -0.04257846
v 0.04459512 -0.05888424 -0.04244240
v 0.04610827 -0.05797537 -0.04306204
v 0.04779342 -0.05723536 -0.04338990
v 0.04706842 -0.05632401 -0.04442756
v 0.04779342 -0.04776922 -0.05013550
v 0.04729049 -0.04727257 -0.05046336
v 0.04610827 -0.04736197 -0.05051254
v 0.04459512 -0.04746378 -0.05056499
v 0.04308414 -0.04829815 -0.05020271
v 0.04157316 -0.04836024 -0.05023878
v 0.04157316 -0.04760533 -0.05063712
v 0.04006001 -0.04765499 -0.05065843
v 0.03854904 -0.04768479 -0.05067319
v 0.03703588 -0.04771211 -0.05068630
v 0.03552708 -0.04773446 -0.05069286
v 0.03401611 -0.04774439 -0.05069941
v 0.03250295 -0.04775184 -0.05070269
v 0.03099198 -0.04775432 -0.05070433
v 0.02948100 -0.04851171 -0.05032402
v 0.02796785 -0.04851420 -0.05032402
v 0.02555334 -0.04806225 -0.05055188
v 0.02555334 -0.05702429 -0.04504392
v 0.02555334 -0.05647053 -0.04547177
v 0.02796785 -0.05609555 -0.04576029
v 0.02948100 -0.05609555 -0.04575865
v 0.03099198 -0.05609307 -0.04575701
v 0.03250295 -0.05608314 -0.04575373
v 0.03401611 -0.05607072 -0.04574553
v 0.03401611 -0.05531581 -0.04628977
v 0.03552708 -0.05529595 -0.04627338
v 0.03703588 -0.05526863 -0.04625043
v 0.03854904 -0.05522642 -0.04621928
v 0.04006001 -0.05516434 -0.04618322
v 0.04157316 -0.05584226 -0.04556193
v 0.04157316 -0.05678838 -0.04480623
v 0.04157316 -0.05508487 -0.04613240
v 0.04157316 -0.05754577 -0.04417183
v 0.04308414 -0.05825846 -0.04332269
v 0.04308414 -0.05744148 -0.04407839
v 0.04459512 -0.05812933 -0.04320958
v 0.04610827 -0.05717825 -0.04381775
v 0.04779342 -0.05672133 -0.04387184
v 0.04610827 -0.05642334 -0.04451116
v 0.04554002 -0.05479682 -0.04592093
v 0.04654589 -0.05468507 -0.04583241
v 0.04761925 -0.05455842 -0.04573734
v 0.04779342 -0.05453607 -0.04571930
v 0.04759094 -0.05561380 -0.04488983
v 0.04779342 -0.05556911 -0.04488163
v 0.04779342 -0.05585220 -0.04464394
v 0.04779342 -0.04791325 -0.05005190
v 0.04761925 -0.04930635 -0.04926505
v 0.04772375 -0.04784869 -0.05009780
v 0.04610827 -0.04811688 -0.05009616
v 0.04459512 -0.04821869 -0.05015518
v 0.04308414 -0.04946776 -0.04955848
v 0.04157316 -0.04946776 -0.04963717
v 0.04006001 -0.04946776 -0.04969782
v 0.04006001 -0.04840990 -0.05026665
v 0.03854904 -0.04844218 -0.05028468
v 0.03703588 -0.04846950 -0.05029943
v 0.03552708 -0.04848936 -0.05031091
v 0.03401611 -0.04850178 -0.05031746
v 0.03250295 -0.04850675 -0.05032074
v 0.03099198 -0.04851171 -0.05032238
v 0.02948100 -0.04946776 -0.04983060
v 0.02555334 -0.04889910 -0.05012567
v 0.02555334 -0.04851420 -0.05032402
v 0.02555334 -0.05609555 -0.04576029
v 0.02948100 -0.05533816 -0.04630452
v 0.03099198 -0.05533568 -0.04630288
v 0.03250295 -0.05532823 -0.04629797
v 0.03401611 -0.05421077 -0.04704547
v 0.03552708 -0.05419090 -0.04703072
v 0.03703588 -0.05416359 -0.04700613
v 0.03854904 -0.05412137 -0.04697499
v 0.04006001 -0.05406177 -0.04693892
v 0.04153615 -0.05386063 -0.04697826
v 0.04308414 -0.05498803 -0.04606027
v 0.04308414 -0.05574293 -0.04548489
v 0.04308414 -0.05668408 -0.04472918
v 0.04308414 -0.05399969 -0.04675696
v 0.04308414 -0.05315539 -0.04734218
v 0.04459512 -0.05731731 -0.04396528
v 0.04459512 -0.05655992 -0.04462591
v 0.04459512 -0.05563367 -0.04538161
v 0.04459512 -0.05487628 -0.04597831
v 0.04459512 -0.05399969 -0.04660123
v 0.04610827 -0.05290955 -0.04717498
v 0.04606908 -0.05410896 -0.04633239
v 0.04761925 -0.05275807 -0.04706023
v 0.04761925 -0.05380352 -0.04630452
v 0.04779342 -0.05378117 -0.04628813
v 0.04779342 -0.04928649 -0.04925358
v 0.04761925 -0.05006126 -0.04881425
v 0.04653936 -0.05017052 -0.04888146
v 0.04606473 -0.04958696 -0.04926505
v 0.04459512 -0.04946776 -0.04945357
v 0.04308414 -0.05041140 -0.04902408
v 0.04157316 -0.05049335 -0.04906834
v 0.04006001 -0.05055294 -0.04909948
v 0.03854904 -0.04946776 -0.04974372
v 0.03854904 -0.05060013 -0.04912735
v 0.03703588 -0.04946776 -0.04977323
v 0.03552708 -0.04946776 -0.04979617
v 0.03401611 -0.04946776 -0.04981093
v 0.03250295 -0.04946776 -0.04982076
v 0.02555334 -0.04946776 -0.04983060
v 0.03099198 -0.05068952 -0.04917325
v 0.02948100 -0.05069449 -0.04917489
v 0.02796785 -0.05069697 -0.04917653
v 0.02555334 -0.05533816 -0.04630452
v 0.02555334 -0.05468259 -0.04675696
v 0.02796785 -0.05423808 -0.04706023
v 0.02948100 -0.05423560 -0.04706023
v 0.03099198 -0.05423312 -0.04705859
v 0.03250295 -0.05422318 -0.04705367
v 0.03401611 -0.05345586 -0.04753562
v 0.03552708 -0.05343600 -0.04752250
v 0.03703588 -0.05340868 -0.04750611
v 0.03854904 -0.05336398 -0.04747988
v 0.04006001 -0.05330438 -0.04744054
v 0.04100927 -0.05326217 -0.04741267
v 0.04201731 -0.05321499 -0.04738153
v 0.04459512 -0.05304613 -0.04726842
v 0.04308414 -0.05239800 -0.04781593
v 0.04459512 -0.05228873 -0.04775856
v 0.04610827 -0.05215216 -0.04767823
v 0.04761925 -0.05200316 -0.04758152
v 0.04779342 -0.05272082 -0.04705367
v 0.04779342 -0.05285740 -0.04695532
v 0.04779342 -0.05198081 -0.04756676
v 0.04779342 -0.05004140 -0.04880114
v 0.04761925 -0.05098006 -0.04823886
v 0.04606473 -0.05084597 -0.04851098
v 0.04553131 -0.05025247 -0.04893064
v 0.04459512 -0.05031704 -0.04896834
v 0.04308414 -0.05116879 -0.04857328
v 0.04157316 -0.05124825 -0.04862409
v 0.04006001 -0.05130785 -0.04866508
v 0.03854904 -0.05135752 -0.04869458
v 0.03703588 -0.05063986 -0.04914374
v 0.03703588 -0.05139477 -0.04871917
v 0.03552708 -0.05066221 -0.04915358
v 0.03401611 -0.05067462 -0.04916177
v 0.03250295 -0.05068456 -0.04916833
v 0.02555334 -0.05069697 -0.04917653
v 0.03401611 -0.05143201 -0.04874376
v 0.03250295 -0.05143946 -0.04874704
v 0.03099198 -0.05144691 -0.04874868
v 0.02948100 -0.05144940 -0.04875032
v 0.02796785 -0.05145188 -0.04875196
v 0.02555334 -0.05423808 -0.04706187
v 0.02796785 -0.05348069 -0.04755365
v 0.02948100 -0.05348069 -0.04755201
v 0.03099198 -0.05347573 -0.04755037
v 0.03250295 -0.05346828 -0.04754381
v 0.03401611 -0.05248988 -0.04812248
v 0.03552708 -0.05248988 -0.04810117
v 0.03703588 -0.05248988 -0.04806838
v 0.03854904 -0.05248988 -0.04801756
v 0.04006001 -0.05248988 -0.04794871
v 0.04153615 -0.05262149 -0.04778315
v 0.04459512 -0.05107194 -0.04851426
v 0.04779342 -0.05110919 -0.04812904
v 0.04779342 -0.05099496 -0.04820116
v 0.03552708 -0.05141960 -0.04873720
v 0.02555334 -0.05145188 -0.04875196
v 0.03250295 -0.05248988 -0.04813395
v 0.03099198 -0.05248988 -0.04814215
v 0.02948100 -0.05248988 -0.04814707
v 0.02796785 -0.05248988 -0.04814871
v 0.02555334 -0.05348069 -0.04755365
v 0.02555334 -0.05248988 -0.04814871
f 1 2 3
f 1 3 4
f 1 4 9
f 1 9 19
f 1 19 32
f 1 32 31
f 1 31 53
f 1 53 78
f 1 78 114
f 1 114 152
f 1 152 191
f 1 191 237
f 1 237 285
f 1 285 245
f 1 245 244
f 1 244 198
f 1 198 153
f 1 153 115
f 1 115 80
f 1 80 54
f 1 54 33
f 1 33 20
f 1 20 10
f 1 10 5
f 1 5 12
f 1 12 23
f 1 23 22
f 1 22 35
f 1 35 42
f 1 42 66
f 1 66 96
f 1 96 132
f 1 132 133
f 1 133 135
f 1 135 134
f 1 134 176
f 1 176 175
f 1 175 178
f 1 178 177
f 1 177 220
f 1 220 270
f 1 270 312
f 1 312 359
f 1 359 358
f 1 358 399
f 1 399 438
f 1 438 459
f 1 459 465
f 1 465 464
f 1 464 444
f 1 444 404
f 1 404 403
f 1 403 360
f 1 360 314
f 1 314 313
f 1 313 271
f 1 271 222
f 1 222 221
f 1 221 179
f 1 179 136
f 1 136 99
f 1 99 68
f 1 68 44
f 1 44 43
f 1 43 24
f 1 24 13
f 1 13 6
f 1 6 2
f 2 6 7
f 2 7 3
f 3 7 16
f 3 16 8
f 3 8 9
f 3 9 4
f 5 10 11
f 5 11 12
f 6 13 7
f 7 13 14
f 7 14 15
f 7 15 16
f 8 16 17
f 8 17 18
f 8 18 19
f 8 19 9
f 10 20 34
f 10 34 56
f 10 56 85
f 10 85 120
f 10 120 160
f 10 160 162
f 10 162 207
f 10 207 254
f 10 254 253
f 10 253 252
f 10 252 294
f 10 294 333
f 10 333 341
f 10 341 340
f 10 340 338
f 10 338 384
f 10 384 422
f 10 422 421
f 10 421 423
f 10 423 456
f 10 456 457
f 10 457 424
f 10 424 385
f 10 385 342
f 10 342 296
f 10 296 255
f 10 255 208
f 10 208 164
f 10 164 163
f 10 163 121
f 10 121 86
f 10 86 57
f 10 57 36
f 10 36 21
f 10 21 11
f 11 21 22
f 11 22 23
f 11 23 12
f 13 24 14
f 14 24 43
f 14 43 25
f 14 25 26
f 14 26 15
f 15 26 48
f 15 48 27
f 15 27 16
f 16 27 17
f 17 28 30
f 17 30 18
f 17 27 29
f 17 29 28
f 18 30 31
f 18 31 32
f 18 32 19
f 20 33 34
f 21 35 22
f 21 36 37
f 21 37 38
f 21 38 39
f 21 39 40
f 21 40 41
f 21 41 42
f 21 42 35
f 25 43 44
f 25 44 45
f 25 45 26
f 26 45 46
f 26 46 47
f 26 47 48
f 27 48 49
f 27 49 29
f 28 50 52
f 28 52 30
f 28 29 51
f 28 51 50
f 29 49 74
f 29 74 51
f 30 52 31
f 31 52 53
f 33 54 55
f 33 55 34
f 34 55 56
f 36 57 58
f 36 58 37
f 37 59 38
f 37 58 60
f 37 60 61
f 37 61 59
f 38 59 61
f 38 61 62
f 38 62 63
f 38 63 39
f 39 63 64
f 39 64 40
f 40 64 41
f 41 65 66
f 41 66 42
f 41 64 67
f 41 67 65
f 44 68 45
f 45 68 99
f 45 99 69
f 45 69 70
f 45 70 46
f 46 70 47
f 47 71 49
f 47 49 48
f 47 70 72
f 47 72 71
f 49 71 73
f 49 73 74
f 50 75 52
f 50 51 76
f 50 76 75
f 51 74 77
f 51 77 76
f 52 78 53
f 52 75 79
f 52 79 78
f 54 80 55
f 55 80 81
f 55 81 82
f 55 82 83
f 55 83 84
f 55 84 56
f 56 84 83
f 56 83 85
f 57 86 87
f 57 87 88
f 57 88 89
f 57 89 90
f 57 90 91
f 57 91 58
f 58 91 92
f 58 92 60
f 60 92 61
f 61 92 93
f 61 93 62
f 62 93 94
f 62 94 95
f 62 95 63
f 63 95 64
f 64 95 98
f 64 98 67
f 65 67 66
f 66 67 96
f 67 97 96
f 67 98 97
f 69 99 136
f 69 136 100
f 69 100 70
f 70 100 101
f 70 101 102
f 70 102 72
f 71 72 103
f 71 103 73
f 72 102 104
f 72 104 105
f 72 105 103
f 73 103 106
f 73 106 107
f 73 107 108
f 73 108 77
f 73 77 74
f 75 109 110
f 75 110 79
f 75 76 111
f 75 111 109
f 76 77 111
f 77 108 112
f 77 112 113
f 77 113 111
f 78 79 110
f 78 110 114
f 80 115 81
f 81 116 117
f 81 117 82
f 81 115 116
f 82 118 83
f 82 117 118
f 83 118 119
f 83 119 120
f 83 120 85
f 86 121 122
f 86 122 123
f 86 123 87
f 87 123 124
f 87 124 88
f 88 124 125
f 88 125 89
f 89 125 126
f 89 126 90
f 90 126 91
f 91 126 127
f 91 127 128
f 91 128 92
f 92 128 129
f 92 129 93
f 93 129 130
f 93 130 94
f 94 130 95
f 95 130 131
f 95 131 98
f 96 97 132
f 97 133 132
f 97 98 133
f 98 134 135
f 98 135 133
f 98 131 134
f 100 136 179
f 100 179 137
f 100 137 101
f 101 137 102
f 102 137 138
f 102 138 104
f 103 105 106
f 104 138 139
f 104 139 105
f 105 139 140
f 105 140 141
f 105 141 142
f 105 142 106
f 106 142 107
f 107 142 143
f 107 143 144
f 107 144 145
f 107 145 112
f 107 112 108
f 109 146 110
f 109 111 147
f 109 147 146
f 110 146 114
f 111 113 148
f 111 148 147
f 112 145 149
f 112 149 195
f 112 195 150
f 112 150 113
f 113 150 151
f 113 151 148
f 114 146 152
f 115 153 154
f 115 154 116
f 116 155 117
f 116 154 156
f 116 156 155
f 117 155 157
f 117 157 118
f 118 157 158
f 118 158 159
f 118 159 119
f 119 160 120
f 119 159 161
f 119 161 162
f 119 162 160
f 121 163 122
f 122 163 164
f 122 164 165
f 122 165 166
f 122 166 123
f 123 166 167
f 123 167 124
f 124 167 168
f 124 168 125
f 125 168 169
f 125 169 126
f 126 169 170
f 126 170 127
f 127 170 171
f 127 171 128
f 128 171 172
f 128 172 129
f 129 172 173
f 129 173 130
f 130 173 174
f 130 174 131
f 131 175 176
f 131 176 134
f 131 174 177
f 131 177 178
f 131 178 175
f 137 179 221
f 137 221 180
f 137 180 181
f 137 181 138
f 138 181 182
f 138 182 139
f 139 182 183
f 139 183 140
f 140 183 141
f 141 143 142
f 141 183 184
f 141 184 185
f 141 185 143
f 143 186 144
f 143 185 187
f 143 187 188
f 143 188 186
f 144 186 189
f 144 189 145
f 145 189 149
f 146 147 190
f 146 190 191
f 146 191 152
f 147 192 190
f 147 148 193
f 147 193 192
f 148 151 193
f 149 189 194
f 149 194 195
f 150 196 151
f 150 195 241
f 150 241 196
f 151 196 197
f 151 197 193
f 153 198 154
f 154 198 199
f 154 199 200
f 154 200 156
f 155 156 201
f 155 201 202
f 155 202 157
f 156 200 201
f 157 202 203
f 157 203 158
f 158 204 205
f 158 205 159
f 158 203 204
f 159 205 206
f 159 206 161
f 161 206 162
f 162 206 207
f 164 208 209
f 164 209 165
f 165 209 210
f 165 210 166
f 166 210 211
f 166 211 167
f 167 211 212
f 167 212 168
f 168 212 213
f 168 213 169
f 169 213 214
f 169 214 170
f 170 214 215
f 170 215 171
f 171 215 216
f 171 216 172
f 172 216 173
f 173 216 217
f 173 217 218
f 173 218 174
f 174 218 219
f 174 219 177
f 177 219 220
f 180 221 222
f 180 222 223
f 180 223 224
f 180 224 181
f 181 224 225
f 181 225 182
f 182 225 226
f 182 226 183
f 183 226 184
f 184 226 227
f 184 227 228
f 184 228 187
f 184 187 185
f 186 229 189
f 186 188 230
f 186 230 229
f 187 228 231
f 187 231 232
f 187 232 188
f 188 232 233
f 188 233 234
f 188 234 230
f 189 229 235
f 189 235 194
f 190 192 236
f 190 236 237
f 190 237 191
f 192 200 236
f 192 193 238
f 192 238 200
f 193 197 238
f 194 235 239
f 194 239 240
f 194 240 195
f 195 240 241
f 196 242 197
f 196 241 289
f 196 289 242
f 197 242 243
f 197 243 238
f 198 244 199
f 199 244 245
f 199 245 236
f 199 236 200
f 200 238 201
f 201 238 243
f 201 243 246
f 201 246 202
f 202 246 203
f 203 246 247
f 203 247 204
f 204 247 248
f 204 248 249
f 204 249 205
f 205 249 206
f 206 249 250
f 206 250 251
f 206 251 252
f 206 252 253
f 206 253 254
f 206 254 207
f 208 255 209
f 209 256 210
f 209 255 257
f 209 257 256
f 210 256 258
f 210 258 211
f 211 258 259
f 211 259 260
f 211 260 212
f 212 260 261
f 212 261 213
f 213 261 262
f 213 262 214
f 214 262 263
f 214 263 215
f 215 263 264
f 215 264 216
f 216 264 265
f 216 265 266
f 216 266 217
f 217 266 218
f 218 266 267
f 218 267 268
f 218 268 219
f 219 269 220
f 219 268 269
f 220 269 270
f 222 271 223
f 223 271 313
f 223 313 272
f 223 272 273
f 223 273 224
f 224 273 274
f 224 274 225
f 225 274 226
f 226 274 275
f 226 275 276
f 226 276 227
f 227 276 231
f 227 231 228
f 229 230 277
f 229 277 235
f 230 234 277
f 231 276 278
f 231 278 232
f 232 278 279
f 232 279 280
f 232 280 233
f 233 281 234
f 233 280 282
f 233 282 281
f 234 281 283
f 234 283 284
f 234 284 277
f 235 277 284
f 235 284 239
f 236 245 285
f 236 285 237
f 239 286 288
f 239 288 240
f 239 284 287
f 239 287 286
f 240 288 241
f 241 288 289
f 242 246 243
f 242 289 247
f 242 247 246
f 247 289 290
f 247 290 248
f 248 290 291
f 248 291 292
f 248 292 249
f 249 292 250
f 250 293 251
f 250 292 293
f 251 294 252
f 251 293 295
f 251 295 294
f 255 296 297
f 255 297 257
f 256 257 298
f 256 298 299
f 256 299 258
f 257 297 298
f 258 299 259
f 259 299 300
f 259 300 301
f 259 301 302
f 259 302 260
f 260 302 261
f 261 302 303
f 261 303 262
f 262 303 304
f 262 304 263
f 263 304 305
f 263 305 264
f 264 305 306
f 264 306 265
f 265 306 307
f 265 307 266
f 266 307 308
f 266 308 267
f 267 308 268
f 268 308 309
f 268 309 269
f 269 309 310
f 269 310 311
f 269 311 312
f 269 312 270
f 272 313 314
f 272 314 315
f 272 315 316
f 272 316 273
f 273 316 317
f 273 317 274
f 274 317 318
f 274 318 275
f 275 318 319
f 275 319 276
f 276 319 278
f 278 319 320
f 278 320 321
f 278 321 279
f 279 321 322
f 279 322 323
f 279 323 280
f 280 323 324
f 280 324 282
f 281 282 325
f 281 325 326
f 281 326 283
f 282 324 327
f 282 327 325
f 283 326 328
f 283 328 287
f 283 287 284
f 286 291 290
f 286 290 288
f 286 287 329
f 286 329 291
f 287 328 330
f 287 330 329
f 288 290 289
f 291 329 331
f 291 331 292
f 292 331 293
f 293 331 332
f 293 332 295
f 294 295 333
f 295 334 335
f 295 335 336
f 295 336 337
f 295 337 338
f 295 338 339
f 295 339 340
f 295 340 341
f 295 341 333
f 295 332 334
f 296 342 343
f 296 343 344
f 296 344 297
f 297 344 345
f 297 345 298
f 298 345 346
f 298 346 299
f 299 346 300
f 300 346 347
f 300 347 348
f 300 348 301
f 301 348 349
f 301 349 350
f 301 350 302
f 302 350 303
f 303 350 351
f 303 351 304
f 304 351 352
f 304 352 305
f 305 352 353
f 305 353 306
f 306 353 354
f 306 354 307
f 307 354 308
f 308 354 355
f 308 355 356
f 308 356 309
f 309 356 310
f 310 356 357
f 310 357 311
f 311 357 358
f 311 358 359
f 311 359 312
f 314 360 315
f 315 360 403
f 315 403 361
f 315 361 316
f 316 361 362
f 316 362 317
f 317 362 363
f 317 363 318
f 318 363 320
f 318 320 319
f 320 363 408
f 320 408 364
f 320 364 365
f 320 365 321
f 321 365 322
f 322 365 366
f 322 366 367
f 322 367 323
f 323 367 368
f 323 368 324
f 324 368 369
f 324 369 327
f 325 327 370
f 325 370 371
f 325 371 326
f 326 371 372
f 326 372 328
f 327 373 370
f 327 369 374
f 327 374 373
f 328 372 330
f 329 330 375
f 329 375 331
f 330 372 376
f 330 376 375
f 331 375 332
f 332 375 334
f 334 376 377
f 334 377 335
f 334 375 376
f 335 378 379
f 335 379 380
f 335 380 381
f 335 381 382
f 335 382 383
f 335 383 336
f 335 377 378
f 336 383 337
f 337 383 384
f 337 384 338
f 338 340 339
f 342 385 343
f 343 385 386
f 343 386 387
f 343 387 344
f 344 387 388
f 344 388 345
f 345 388 389
f 345 389 346
f 346 389 347
f 347 389 390
f 347 390 391
f 347 391 348
f 348 391 392
f 348 392 349
f 349 393 350
f 349 392 394
f 349 394 393
f 350 393 351
f 351 393 395
f 351 395 352
f 352 395 396
f 352 396 353
f 353 396 397
f 353 397 354
f 354 397 398
f 354 398 355
f 355 398 357
f 355 357 356
f 357 399 358
f 357 398 400
f 357 400 401
f 357 401 402
f 357 402 438
f 357 438 399
f 361 403 404
f 361 404 405
f 361 405 406
f 361 406 407
f 361 407 362
f 362 407 363
f 363 407 408
f 364 408 448
f 364 448 409
f 364 409 410
f 364 410 365
f 365 410 411
f 365 411 366
f 366 411 412
f 366 412 367
f 367 412 368
f 368 412 413
f 368 413 414
f 368 414 415
f 368 415 369
f 369 415 374
f 370 373 379
f 370 379 378
f 370 378 371
f 371 377 372
f 371 378 377
f 372 377 376
f 373 374 416
f 373 416 379
f 374 415 417
f 374 417 418
f 374 418 416
f 379 416 380
f 380 416 419
f 380 419 420
f 380 420 382
f 380 382 381
f 382 421 422
f 382 422 384
f 382 384 383
f 382 420 423
f 382 423 421
f 385 424 386
f 386 424 425
f 386 425 387
f 387 425 426
f 387 426 427
f 387 427 388
f 388 427 389
f 389 427 428
f 389 428 390
f 390 428 429
f 390 429 430
f 390 430 391
f 391 430 431
f 391 431 392
f 392 431 432
f 392 432 394
f 393 394 433
f 393 433 395
f 394 432 434
f 394 434 433
f 395 433 396
f 396 433 435
f 396 435 436
f 396 436 397
f 397 436 437
f 397 437 398
f 398 437 400
f 400 437 439
f 400 439 440
f 400 440 441
f 400 441 401
f 401 441 442
f 401 442 443
f 401 443 402
f 402 443 459
f 402 459 438
f 404 444 405
f 405 444 445
f 405 445 406
f 406 445 446
f 406 446 407
f 407 446 447
f 407 447 408
f 408 447 448
f 409 448 449
f 409 449 450
f 409 450 410
f 410 450 451
f 410 451 411
f 411 451 452
f 411 452 412
f 412 452 453
f 412 453 413
f 413 453 454
f 413 454 414
f 414 454 415
f 415 454 417
f 416 418 419
f 417 454 429
f 417 429 455
f 417 455 418
f 418 455 426
f 418 426 419
f 419 426 425
f 419 425 420
f 420 425 456
f 420 456 423
f 424 457 425
f 425 457 456
f 426 455 427
f 427 455 428
f 428 455 429
f 429 454 430
f 430 454 453
f 430 453 431
f 431 453 452
f 431 452 432
f 432 452 451
f 432 451 434
f 433 434 458
f 433 458 435
f 434 451 458
f 435 458 436
f 436 458 439
f 436 439 437
f 439 458 449
f 439 449 460
f 439 460 461
f 439 461 440
f 440 461 441
f 441 461 462
f 441 462 442
f 442 462 443
f 443 462 463
f 443 463 465
f 443 465 459
f 444 464 445
f 445 464 465
f 445 465 463
f 445 463 462
f 445 462 446
f 446 462 447
f 447 462 461
f 447 461 460
f 447 460 448
f 448 460 449
f 449 458 450
f 450 458 451

