# https://github.com/mikedh/trimesh
v 0.07029604 -0.05069433 -0.02358285
v 0.07024972 -0.05069433 -0.02295719
v 0.06957100 -0.05178241 -0.02292319
v 0.06992949 -0.05127559 -0.02358285
v 0.05985755 -0.05069433 -0.02358285
v 0.07020138 -0.05069433 -0.02244034
v 0.06925279 -0.05227920 -0.02358285
v 0.06958510 -0.05180245 -0.02358285
v 0.06994158 -0.05110808 -0.02243354
v 0.06951663 -0.05169794 -0.02191443
v 0.06909167 -0.05236796 -0.02243354
v 0.04972116 -0.05891648 -0.02358285
v 0.04972116 -0.05069433 -0.00947381
v 0.07001810 -0.05069433 -0.02114142
v 0.06944815 -0.05158627 -0.02094420
v 0.06829212 -0.05355769 -0.02358285
v 0.06878353 -0.05249109 -0.02094420
v 0.06823976 -0.05349470 -0.02245621
v 0.04972116 -0.06531896 -0.02358285
v 0.04972116 -0.05069433 -0.00042444
v 0.06998588 -0.05069433 -0.02093514
v 0.06990734 -0.05083034 -0.02094420
v 0.06972407 -0.05069433 -0.01958635
v 0.06969385 -0.05069433 -0.01943220
v 0.06928703 -0.05134861 -0.01943220
v 0.06843713 -0.05254406 -0.01955914
v 0.06758924 -0.05425063 -0.02245621
v 0.06683198 -0.05511393 -0.02245621
v 0.06743215 -0.05453410 -0.02358285
v 0.06811892 -0.05335439 -0.02094420
v 0.06804037 -0.05325990 -0.02014853
v 0.06672725 -0.05500083 -0.02094420
v 0.06748250 -0.05411032 -0.02094420
v 0.05064558 -0.06505696 -0.02358285
v 0.04972116 -0.06529892 -0.02245621
v 0.04972116 -0.05090908 -0.00053325
v 0.04993666 -0.05069433 -0.00048791
v 0.06981872 -0.05069433 -0.02007372
v 0.06951663 -0.05069433 -0.01873173
v 0.06910376 -0.05091767 -0.01789752
v 0.06829212 -0.05207590 -0.01792246
v 0.06789939 -0.05308237 -0.01913977
v 0.06615327 -0.05586986 -0.02245621
v 0.06617945 -0.05590279 -0.02358285
v 0.06660843 -0.05486911 -0.01978356
v 0.06649363 -0.05473024 -0.01877707
v 0.06604250 -0.05575676 -0.02094420
v 0.05103226 -0.06493957 -0.02358285
v 0.05064558 -0.06503263 -0.02245621
v 0.04972116 -0.06517436 -0.02094420
v 0.04972116 -0.05129420 -0.00073726
v 0.05043210 -0.05069433 -0.00064886
v 0.05067579 -0.05095633 -0.00086648
v 0.06931925 -0.05069433 -0.01809927
v 0.06920446 -0.05069433 -0.01775698
v 0.06811288 -0.05184970 -0.01696130
v 0.06668496 -0.05346463 -0.01641045
v 0.06771612 -0.05283183 -0.01792246
v 0.06695886 -0.05381253 -0.01792246
v 0.06539802 -0.05665156 -0.02245621
v 0.06542219 -0.05668735 -0.02358285
v 0.06514426 -0.05640101 -0.01969289
v 0.06581895 -0.05556777 -0.01923498
v 0.06500127 -0.05626787 -0.01868413
v 0.06635467 -0.05456846 -0.01792246
v 0.06559942 -0.05536877 -0.01792246
v 0.06528726 -0.05653702 -0.02094420
v 0.05215607 -0.06459167 -0.02358285
v 0.05215607 -0.06457306 -0.02245621
v 0.05215607 -0.06445136 -0.02094420
v 0.05064558 -0.06490521 -0.02094420
v 0.04972116 -0.06495818 -0.01942540
v 0.04972116 -0.05250541 -0.00141733
v 0.05059120 -0.05252688 -0.00170069
v 0.05082885 -0.05069433 -0.00079167
v 0.05184994 -0.05204727 -0.00187297
v 0.05227490 -0.05110665 -0.00153520
v 0.06883187 -0.05069433 -0.01677542
v 0.06847741 -0.05102505 -0.01643765
v 0.06790544 -0.05155906 -0.01595254
v 0.06652585 -0.05325847 -0.01563291
v 0.06605458 -0.05422056 -0.01641045
v 0.06455819 -0.05740749 -0.02245621
v 0.06482202 -0.05725000 -0.02358285
v 0.06429033 -0.05706245 -0.01929619
v 0.06357738 -0.05785417 -0.01990598
v 0.06342633 -0.05772389 -0.01889722
v 0.06484821 -0.05612470 -0.01792246
v 0.06296513 -0.05729009 -0.01641045
v 0.06220988 -0.05797730 -0.01641045
v 0.06326320 -0.05757070 -0.01792246
v 0.06529732 -0.05505094 -0.01641045
v 0.06444138 -0.05729295 -0.02094420
v 0.05250247 -0.06446425 -0.02358285
v 0.05350745 -0.06407913 -0.02245621
v 0.05337453 -0.06402329 -0.02094420
v 0.05311070 -0.06391019 -0.01943220
v 0.05215607 -0.06422516 -0.01943220
v 0.05064558 -0.06468759 -0.01943220
v 0.04972116 -0.06483649 -0.01880427
v 0.04972116 -0.05340021 -0.00194778
v 0.05005347 -0.05332576 -0.00199765
v 0.05106046 -0.05305517 -0.00216540
v 0.05351349 -0.05069433 -0.00179363
v 0.05227490 -0.05252688 -0.00233541
v 0.05285895 -0.05169507 -0.00207246
v 0.06868888 -0.05069433 -0.01643085
v 0.06832435 -0.05069433 -0.01557851
v 0.06820955 -0.05069433 -0.01531555
v 0.06682594 -0.05244814 -0.01503672
v 0.06508384 -0.05483762 -0.01550823
v 0.06627814 -0.05292489 -0.01462642
v 0.06567998 -0.05390559 -0.01506619
v 0.06368614 -0.05794580 -0.02094420
v 0.06205884 -0.05935601 -0.02124117
v 0.06380093 -0.05803313 -0.02245621
v 0.06441319 -0.05760363 -0.02358285
v 0.06460653 -0.05744328 -0.02358285
v 0.06284832 -0.05834953 -0.01941406
v 0.06197223 -0.05928585 -0.02023241
v 0.06250795 -0.05823500 -0.01792246
v 0.06452798 -0.05580687 -0.01641045
v 0.06377274 -0.05653416 -0.01641045
v 0.06356731 -0.05634231 -0.01551730
v 0.06202057 -0.05781408 -0.01558531
v 0.06113844 -0.05876902 -0.01644899
v 0.06155131 -0.05899093 -0.01792246
v 0.05353565 -0.06408342 -0.02358285
v 0.05426471 -0.06375986 -0.02245621
v 0.05409755 -0.06385435 -0.02358285
v 0.05517906 -0.06340767 -0.02358285
v 0.05412978 -0.06369973 -0.02094420
v 0.05386795 -0.06358806 -0.01943220
v 0.05517906 -0.06336901 -0.02245621
v 0.05293347 -0.06383574 -0.01864106
v 0.05064558 -0.06438980 -0.01792246
v 0.04972116 -0.06466325 -0.01792246
v 0.04972116 -0.05367223 -0.00213366
v 0.05059120 -0.05389843 -0.00258023
v 0.05148138 -0.05480469 -0.00352552
v 0.05205336 -0.05399579 -0.00320589
v 0.05328793 -0.05348754 -0.00339404
v 0.05366857 -0.05069433 -0.00185483
v 0.05374309 -0.05258844 -0.00301094
v 0.05366857 -0.05139728 -0.00224247
v 0.05422846 -0.05069433 -0.00208379
v 0.06809274 -0.05069433 -0.01508206
v 0.06664065 -0.05191698 -0.01391009
v 0.06480792 -0.05455271 -0.01449947
v 0.06418762 -0.05545467 -0.01500952
v 0.06581895 -0.05255265 -0.01330936
v 0.06526913 -0.05354481 -0.01371740
v 0.06263282 -0.05881483 -0.02081953
v 0.06026437 -0.06068174 -0.02245621
v 0.06122504 -0.06004035 -0.02245621
v 0.06212329 -0.05940755 -0.02245621
v 0.06288054 -0.05878906 -0.02245621
v 0.06137005 -0.05976547 -0.02081953
v 0.06385128 -0.05806749 -0.02358285
v 0.06184133 -0.05919423 -0.01943220
v 0.06108608 -0.05969532 -0.01943220
v 0.05992401 -0.06045124 -0.01943220
v 0.05916876 -0.06093515 -0.01943220
v 0.06012339 -0.06059155 -0.02094420
v 0.06329139 -0.05607030 -0.01450854
v 0.06265497 -0.05694792 -0.01504806
v 0.06028854 -0.05916846 -0.01597068
v 0.06228440 -0.05654705 -0.01365620
v 0.06168020 -0.05755495 -0.01457655
v 0.05896938 -0.05929874 -0.01412771
v 0.05920905 -0.05946481 -0.01489844
v 0.06057654 -0.05936316 -0.01697717
v 0.06079607 -0.05950633 -0.01792246
v 0.05557380 -0.06323157 -0.02358285
v 0.05517906 -0.06324159 -0.02094420
v 0.05517906 -0.06300966 -0.01943220
v 0.05684060 -0.06262311 -0.02233607
v 0.05744278 -0.06231243 -0.02175121
v 0.05608737 -0.06238401 -0.01840984
v 0.05352961 -0.06343916 -0.01804940
v 0.05257095 -0.06371691 -0.01763230
v 0.05210169 -0.06396316 -0.01804940
v 0.05156194 -0.06387869 -0.01699757
v 0.04972116 -0.06451006 -0.01733534
v 0.04972116 -0.05413180 -0.00246009
v 0.05064558 -0.05499081 -0.00338271
v 0.05249039 -0.05449544 -0.00375674
v 0.04972116 -0.05565081 -0.00359126
v 0.04972116 -0.05594574 -0.00383382
v 0.05064558 -0.05574674 -0.00400157
v 0.05166868 -0.05639815 -0.00495592
v 0.05267568 -0.05614617 -0.00518261
v 0.05366857 -0.05509532 -0.00479724
v 0.05429492 -0.05315825 -0.00362300
v 0.05517906 -0.05207017 -0.00334644
v 0.05509045 -0.05088474 -0.00260517
v 0.05490113 -0.05069433 -0.00240342
v 0.06782085 -0.05069433 -0.01455615
v 0.06735159 -0.05069433 -0.01369020
v 0.06636675 -0.05150323 -0.01290133
v 0.06437492 -0.05413609 -0.01319602
v 0.06380093 -0.05506239 -0.01368113
v 0.06527920 -0.05207876 -0.01187670
v 0.06495092 -0.05318832 -0.01270864
v 0.05937016 -0.06105398 -0.02094420
v 0.05820407 -0.06176266 -0.02094420
v 0.05951114 -0.06113272 -0.02245621
v 0.06030667 -0.06070608 -0.02358285
v 0.06055237 -0.06054287 -0.02358285
v 0.06122504 -0.06007901 -0.02358285
v 0.06145464 -0.05991723 -0.02358285
v 0.06214544 -0.05942186 -0.02358285
v 0.06270734 -0.05898090 -0.02358285
v 0.05902376 -0.06084496 -0.01852998
v 0.05820407 -0.06152357 -0.01943220
v 0.06196821 -0.05625928 -0.01264744
v 0.05975887 -0.05970963 -0.01644899
v 0.06131970 -0.05709967 -0.01325723
v 0.06067120 -0.05792862 -0.01386928
v 0.05963400 -0.05847695 -0.01349525
v 0.05856659 -0.05902815 -0.01312121
v 0.05755959 -0.05936173 -0.01251142
v 0.05811948 -0.05953354 -0.01352925
v 0.05709637 -0.06062591 -0.01456748
v 0.05808524 -0.06023076 -0.01500045
v 0.05750320 -0.06083637 -0.01557397
v 0.05850214 -0.06051710 -0.01641045
v 0.05879819 -0.06070179 -0.01752122
v 0.05960177 -0.06030951 -0.01798366
v 0.05672580 -0.06271473 -0.02358285
v 0.05659086 -0.06261308 -0.02094420
v 0.05633106 -0.06249282 -0.01943220
v 0.05694734 -0.06261451 -0.02358285
v 0.05748910 -0.06233963 -0.02275771
v 0.05734812 -0.06226805 -0.02094420
v 0.05807719 -0.06197169 -0.02233607
v 0.05708630 -0.06214779 -0.01943220
v 0.05663114 -0.06200032 -0.01791339
v 0.05580340 -0.06225373 -0.01740334
v 0.05525156 -0.06264029 -0.01791339
v 0.05474202 -0.06246562 -0.01641045
v 0.05366857 -0.06293664 -0.01641045
v 0.05210169 -0.06353652 -0.01646032
v 0.05107657 -0.06372264 -0.01598881
v 0.05060127 -0.06402043 -0.01646032
v 0.04972116 -0.06427097 -0.01643085
v 0.04972116 -0.05518981 -0.00323083
v 0.05374309 -0.05399579 -0.00398343
v 0.05453862 -0.05482903 -0.00501486
v 0.04972116 -0.05688206 -0.00465443
v 0.05064558 -0.05661863 -0.00475870
v 0.04972116 -0.05741035 -0.00513954
v 0.04972116 -0.05756497 -0.00528689
v 0.05064558 -0.05737456 -0.00547730
v 0.05169889 -0.05790428 -0.00645433
v 0.05218829 -0.05704527 -0.00581960
v 0.05366857 -0.05585125 -0.00544783
v 0.05270589 -0.05769096 -0.00668102
v 0.05366857 -0.05666731 -0.00620271
v 0.05509649 -0.05400008 -0.00465669
v 0.05624446 -0.05349470 -0.00487885
v 0.05517906 -0.05282610 -0.00384062
v 0.05597056 -0.05176666 -0.00354366
v 0.05656065 -0.05084609 -0.00336231
v 0.05656267 -0.05069433 -0.00328297
v 0.06662655 -0.05069433 -0.01246382
v 0.06642918 -0.05069433 -0.01215779
v 0.06604049 -0.05099069 -0.01186310
v 0.06501537 -0.05174805 -0.01110823
v 0.06346258 -0.05472738 -0.01267464
v 0.06463472 -0.05283469 -0.01187670
v 0.06209509 -0.05487341 -0.01097901
v 0.06242337 -0.05521415 -0.01187670
v 0.06011131 -0.06082205 -0.02358285
v 0.05825845 -0.06115563 -0.01798366
v 0.06029660 -0.05765087 -0.01286052
v 0.06162381 -0.05597008 -0.01187670
v 0.06051210 -0.05630223 -0.01107876
v 0.06086857 -0.05657425 -0.01187670
v 0.05884250 -0.05769382 -0.01125104
v 0.05976289 -0.05736740 -0.01180416
v 0.05929162 -0.05802025 -0.01225753
v 0.05820004 -0.05853852 -0.01188350
v 0.05783349 -0.05804745 -0.01073646
v 0.05700977 -0.05905535 -0.01150493
v 0.05658079 -0.05955215 -0.01195604
v 0.05512670 -0.06029948 -0.01193337
v 0.05458896 -0.06088934 -0.01247289
v 0.05559595 -0.06062877 -0.01297840
v 0.05663316 -0.06033098 -0.01344311
v 0.05608938 -0.06087932 -0.01398489
v 0.05663316 -0.06103823 -0.01500045
v 0.05447417 -0.06233963 -0.01559211
v 0.05669156 -0.06152214 -0.01641045
v 0.05774689 -0.06098097 -0.01641045
v 0.05749716 -0.06234393 -0.02358285
v 0.05801073 -0.06204900 -0.02358285
v 0.05955142 -0.06115134 -0.02358285
v 0.05549727 -0.06210197 -0.01641045
v 0.05357392 -0.06249425 -0.01501179
v 0.05215607 -0.06297816 -0.01489844
v 0.05006958 -0.06388585 -0.01549010
v 0.04972116 -0.06409058 -0.01583013
v 0.05508441 -0.05545467 -0.00588081
v 0.05554561 -0.05450260 -0.00528915
v 0.04972116 -0.05830372 -0.00605536
v 0.05064558 -0.05811331 -0.00623217
v 0.04972116 -0.05886064 -0.00665608
v 0.04972116 -0.05904963 -0.00686690
v 0.05064558 -0.05886923 -0.00707999
v 0.05211377 -0.05852134 -0.00736108
v 0.05462320 -0.05638670 -0.00647246
v 0.05252664 -0.05913982 -0.00829050
v 0.05366857 -0.05810615 -0.00772151
v 0.05366857 -0.05742324 -0.00696437
v 0.05739646 -0.05471879 -0.00661981
v 0.05725347 -0.05306519 -0.00520528
v 0.05661101 -0.05241521 -0.00436427
v 0.05778919 -0.05205729 -0.00485618
v 0.05813761 -0.05091767 -0.00434613
v 0.05697755 -0.05126127 -0.00384742
v 0.05725951 -0.05069433 -0.00367740
v 0.05679629 -0.05069433 -0.00340765
v 0.06613514 -0.05069433 -0.01171348
v 0.06261671 -0.05386980 -0.01050750
v 0.06355523 -0.05331717 -0.01104249
v 0.06558532 -0.05069433 -0.01092461
v 0.06527719 -0.05097923 -0.01075459
v 0.06477570 -0.05069433 -0.00987051
v 0.06466090 -0.05097923 -0.00999972
v 0.06356328 -0.05181963 -0.00953275
v 0.06212933 -0.05341452 -0.00944887
v 0.06163187 -0.05442243 -0.00997025
v 0.06062488 -0.05488486 -0.00946927
v 0.06107198 -0.05538309 -0.01052564
v 0.05828463 -0.05738744 -0.01028535
v 0.06000054 -0.05589277 -0.01007000
v 0.05899154 -0.05629650 -0.00957808
v 0.05729173 -0.05768953 -0.00972770
v 0.05664726 -0.05851561 -0.01039643
v 0.05600077 -0.05932737 -0.01106742
v 0.05402102 -0.06060730 -0.01146639
v 0.05357794 -0.06106973 -0.01193337
v 0.05357392 -0.06184284 -0.01348391
v 0.05512670 -0.06109550 -0.01344311
v 0.05401296 -0.06213633 -0.01458335
v 0.05506023 -0.06181707 -0.01501179
v 0.05300597 -0.06235538 -0.01405290
v 0.05060127 -0.06351218 -0.01495058
v 0.05215607 -0.06250141 -0.01371967
v 0.04972116 -0.06392021 -0.01531102
v 0.04972116 -0.06365678 -0.01459242
v 0.05563020 -0.05608032 -0.00677622
v 0.05638947 -0.05507241 -0.00629791
v 0.04972116 -0.05960655 -0.00754470
v 0.05064558 -0.05950347 -0.00783486
v 0.05151965 -0.05933739 -0.00804114
v 0.05207551 -0.05970247 -0.00881641
v 0.05337453 -0.05951922 -0.00929699
v 0.05379344 -0.05893366 -0.00881641
v 0.05456882 -0.05786276 -0.00800487
v 0.05509850 -0.05697798 -0.00739055
v 0.05690907 -0.05566513 -0.00720240
v 0.05742868 -0.05625641 -0.00811141
v 0.05820407 -0.05517549 -0.00769658
v 0.05903786 -0.05482473 -0.00803207
v 0.06062287 -0.05339162 -0.00796180
v 0.05998443 -0.05280749 -0.00695531
v 0.05897744 -0.05326133 -0.00657221
v 0.05820407 -0.05360637 -0.00629791
v 0.05879618 -0.05158197 -0.00518034
v 0.05957358 -0.05237799 -0.00630925
v 0.06052821 -0.05179959 -0.00653594
v 0.05820205 -0.05069433 -0.00425092
v 0.05922919 -0.05069433 -0.00488565
v 0.05888681 -0.05069433 -0.00467256
v 0.06538796 -0.05069433 -0.01065938
v 0.06429033 -0.05069433 -0.00934460
v 0.06390566 -0.05097923 -0.00918138
v 0.06207696 -0.05184826 -0.00800714
v 0.06260664 -0.05233790 -0.00898643
v 0.06162986 -0.05285617 -0.00844238
v 0.06112837 -0.05390702 -0.00895469
v 0.06004283 -0.05439952 -0.00846278
v 0.05820407 -0.05659859 -0.00921992
v 0.05685671 -0.05712544 -0.00873707
v 0.05557582 -0.05756927 -0.00835397
v 0.05628474 -0.05797586 -0.00936046
v 0.05438152 -0.05926867 -0.00964382
v 0.05517906 -0.05954928 -0.01072739
v 0.05369677 -0.06006326 -0.01034656
v 0.05301201 -0.06084925 -0.01104929
v 0.05215607 -0.06216354 -0.01296253
v 0.05136256 -0.06230241 -0.01265877
v 0.05077246 -0.06276627 -0.01325269
v 0.04972116 -0.06350788 -0.01422745
v 0.05641968 -0.05656136 -0.00778272
v 0.04972116 -0.06013198 -0.00822249
v 0.04972116 -0.06044838 -0.00864640
v 0.05064558 -0.06031380 -0.00892296
v 0.05014208 -0.06089650 -0.00947381
v 0.05115109 -0.06071181 -0.00975263
v 0.05215607 -0.06052569 -0.01004053
v 0.05511461 -0.05823500 -0.00885495
v 0.06108004 -0.05232788 -0.00748122
v 0.06160770 -0.05097923 -0.00693037
v 0.06171847 -0.05069433 -0.00682836
v 0.06122303 -0.05069433 -0.00639539
v 0.06085246 -0.05097923 -0.00627071
v 0.05993609 -0.05069433 -0.00539796
v 0.05941044 -0.05069433 -0.00501260
v 0.06329341 -0.05069433 -0.00830637
v 0.06317861 -0.05097923 -0.00842424
v 0.06281811 -0.05069433 -0.00784166
v 0.05215607 -0.06100530 -0.01079540
v 0.04972116 -0.06219646 -0.01138252
v 0.05077246 -0.06207907 -0.01184043
v 0.05215607 -0.06160804 -0.01187670
v 0.05035557 -0.06247707 -0.01231647
v 0.04972116 -0.06292805 -0.01288319
v 0.04972116 -0.06316285 -0.01340911
v 0.04972116 -0.06096665 -0.00937180
v 0.04972116 -0.06127876 -0.00986824
v 0.04972116 -0.06160375 -0.01039643
v 0.05064558 -0.06123437 -0.01029895
v 0.06094108 -0.05069433 -0.00616870
v 0.04972116 -0.06206618 -0.01115810
v 0.04972116 -0.06255152 -0.01207845
f 1 2 3
f 1 3 4
f 1 4 8
f 1 8 7
f 1 7 16
f 1 16 29
f 1 29 44
f 1 44 61
f 1 61 84
f 1 84 118
f 1 118 117
f 1 117 159
f 1 159 213
f 1 213 212
f 1 212 211
f 1 211 210
f 1 210 209
f 1 209 208
f 1 208 274
f 1 274 298
f 1 298 297
f 1 297 296
f 1 296 233
f 1 233 230
f 1 230 174
f 1 174 131
f 1 131 130
f 1 130 128
f 1 128 94
f 1 94 68
f 1 68 48
f 1 48 34
f 1 34 19
f 1 19 12
f 1 12 5
f 1 5 13
f 1 13 20
f 1 20 37
f 1 37 52
f 1 52 75
f 1 75 104
f 1 104 143
f 1 143 146
f 1 146 197
f 1 197 265
f 1 265 323
f 1 323 322
f 1 322 374
f 1 374 376
f 1 376 375
f 1 375 411
f 1 411 410
f 1 410 426
f 1 426 408
f 1 408 407
f 1 407 414
f 1 414 412
f 1 412 378
f 1 378 329
f 1 329 377
f 1 377 327
f 1 327 324
f 1 324 267
f 1 267 266
f 1 266 199
f 1 199 198
f 1 198 147
f 1 147 109
f 1 109 108
f 1 108 107
f 1 107 78
f 1 78 55
f 1 55 54
f 1 54 39
f 1 39 24
f 1 24 23
f 1 23 38
f 1 38 21
f 1 21 14
f 1 14 6
f 1 6 2
f 2 6 3
f 3 7 8
f 3 8 4
f 3 6 9
f 3 9 10
f 3 10 11
f 3 11 7
f 5 12 13
f 6 14 15
f 6 15 10
f 6 10 9
f 7 11 16
f 10 15 17
f 10 17 11
f 11 17 18
f 11 18 16
f 12 19 35
f 12 35 50
f 12 50 72
f 12 72 100
f 12 100 137
f 12 137 184
f 12 184 246
f 12 246 303
f 12 303 351
f 12 351 352
f 12 352 396
f 12 396 421
f 12 421 420
f 12 420 428
f 12 428 416
f 12 416 427
f 12 427 424
f 12 424 423
f 12 423 422
f 12 422 399
f 12 399 398
f 12 398 355
f 12 355 309
f 12 309 308
f 12 308 306
f 12 306 253
f 12 253 252
f 12 252 250
f 12 250 189
f 12 189 188
f 12 188 247
f 12 247 185
f 12 185 138
f 12 138 101
f 12 101 73
f 12 73 51
f 12 51 36
f 12 36 20
f 12 20 13
f 14 21 22
f 14 22 15
f 15 22 23
f 15 23 24
f 15 24 25
f 15 25 26
f 15 26 17
f 16 18 27
f 16 27 28
f 16 28 29
f 17 30 18
f 17 26 31
f 17 31 30
f 18 32 27
f 18 30 33
f 18 33 32
f 19 34 35
f 20 36 37
f 21 38 22
f 22 38 23
f 24 39 25
f 25 39 40
f 25 40 41
f 25 41 26
f 26 41 42
f 26 42 31
f 27 32 28
f 28 43 29
f 28 32 43
f 29 43 44
f 30 31 33
f 31 45 33
f 31 42 46
f 31 46 45
f 32 47 43
f 32 33 45
f 32 45 47
f 34 48 49
f 34 49 35
f 35 49 50
f 36 51 37
f 37 51 53
f 37 53 52
f 39 54 40
f 40 55 56
f 40 56 41
f 40 54 55
f 41 56 57
f 41 57 58
f 41 58 42
f 42 58 59
f 42 59 46
f 43 47 60
f 43 60 61
f 43 61 44
f 45 62 47
f 45 46 63
f 45 63 62
f 46 64 63
f 46 59 65
f 46 65 66
f 46 66 64
f 47 62 67
f 47 67 60
f 48 68 69
f 48 69 49
f 49 69 70
f 49 70 71
f 49 71 50
f 50 71 72
f 51 73 74
f 51 74 53
f 52 53 75
f 53 74 76
f 53 76 77
f 53 77 75
f 55 78 56
f 56 78 79
f 56 79 80
f 56 80 81
f 56 81 57
f 57 81 82
f 57 82 65
f 57 65 59
f 57 59 58
f 60 67 83
f 60 83 84
f 60 84 61
f 62 63 64
f 62 64 85
f 62 85 86
f 62 86 67
f 64 87 85
f 64 66 88
f 64 88 89
f 64 89 90
f 64 90 91
f 64 91 87
f 65 82 92
f 65 92 66
f 66 92 88
f 67 93 83
f 67 86 93
f 68 94 95
f 68 95 69
f 69 95 96
f 69 96 70
f 70 96 97
f 70 97 98
f 70 98 99
f 70 99 71
f 71 99 72
f 72 99 100
f 73 101 102
f 73 102 74
f 74 102 103
f 74 103 76
f 75 77 104
f 76 103 105
f 76 105 106
f 76 106 77
f 77 106 104
f 78 107 79
f 79 107 108
f 79 108 109
f 79 109 80
f 80 109 110
f 80 110 81
f 81 111 82
f 81 110 112
f 81 112 113
f 81 113 111
f 82 111 92
f 83 93 114
f 83 114 115
f 83 115 116
f 83 116 117
f 83 117 118
f 83 118 84
f 85 87 86
f 86 87 119
f 86 119 120
f 86 120 114
f 86 114 93
f 87 91 121
f 87 121 119
f 88 92 122
f 88 122 123
f 88 123 89
f 89 123 124
f 89 124 125
f 89 125 90
f 90 125 126
f 90 126 127
f 90 127 121
f 90 121 91
f 92 111 124
f 92 124 122
f 94 128 95
f 95 129 96
f 95 128 130
f 95 130 131
f 95 131 129
f 96 132 133
f 96 133 97
f 96 129 134
f 96 134 132
f 97 133 135
f 97 135 98
f 98 135 99
f 99 135 136
f 99 136 137
f 99 137 100
f 101 138 102
f 102 138 139
f 102 139 103
f 103 139 140
f 103 140 141
f 103 141 142
f 103 142 105
f 104 106 143
f 105 144 106
f 105 142 144
f 106 144 145
f 106 145 146
f 106 146 143
f 109 147 148
f 109 148 110
f 110 148 112
f 111 113 149
f 111 149 150
f 111 150 124
f 112 148 151
f 112 151 152
f 112 152 113
f 113 152 149
f 114 120 153
f 114 153 115
f 115 154 155
f 115 155 156
f 115 156 157
f 115 157 116
f 115 153 120
f 115 120 158
f 115 158 154
f 116 157 159
f 116 159 117
f 119 121 160
f 119 160 120
f 120 160 161
f 120 161 162
f 120 162 163
f 120 163 164
f 120 164 158
f 121 127 160
f 122 124 123
f 124 150 165
f 124 165 166
f 124 166 125
f 125 167 126
f 125 166 168
f 125 168 169
f 125 169 170
f 125 170 171
f 125 171 167
f 126 172 127
f 126 167 172
f 127 173 160
f 127 172 173
f 129 131 134
f 131 174 134
f 132 175 133
f 132 134 175
f 133 176 135
f 133 175 176
f 134 177 178
f 134 178 175
f 134 174 177
f 135 179 180
f 135 180 181
f 135 181 182
f 135 182 136
f 135 176 179
f 136 182 181
f 136 181 183
f 136 183 137
f 137 183 184
f 138 185 139
f 139 185 186
f 139 186 140
f 140 187 142
f 140 142 141
f 140 186 188
f 140 188 189
f 140 189 190
f 140 190 191
f 140 191 192
f 140 192 193
f 140 193 187
f 142 187 194
f 142 194 144
f 144 195 145
f 144 194 195
f 145 195 146
f 146 195 196
f 146 196 197
f 147 198 148
f 148 199 200
f 148 200 151
f 148 198 199
f 149 165 150
f 149 152 201
f 149 201 202
f 149 202 165
f 151 200 203
f 151 203 204
f 151 204 152
f 152 204 201
f 154 158 164
f 154 164 205
f 154 205 206
f 154 206 178
f 154 178 207
f 154 207 208
f 154 208 209
f 154 209 155
f 155 209 210
f 155 210 156
f 156 210 211
f 156 211 212
f 156 212 213
f 156 213 159
f 156 159 157
f 160 214 161
f 160 173 214
f 161 214 162
f 162 214 163
f 163 214 215
f 163 215 205
f 163 205 164
f 165 202 216
f 165 216 168
f 165 168 166
f 167 217 172
f 167 171 217
f 168 216 169
f 169 216 218
f 169 218 219
f 169 219 170
f 170 219 220
f 170 220 221
f 170 221 222
f 170 222 223
f 170 223 224
f 170 224 225
f 170 225 171
f 171 225 226
f 171 226 227
f 171 227 217
f 172 217 227
f 172 227 228
f 172 228 173
f 173 228 229
f 173 229 214
f 174 230 177
f 175 178 231
f 175 231 176
f 176 232 179
f 176 231 232
f 177 230 233
f 177 233 234
f 177 234 178
f 178 206 235
f 178 235 231
f 178 234 236
f 178 236 207
f 179 232 237
f 179 237 238
f 179 238 239
f 179 239 240
f 179 240 180
f 180 240 241
f 180 241 242
f 180 242 181
f 181 242 243
f 181 243 183
f 183 243 244
f 183 244 245
f 183 245 184
f 184 245 246
f 185 247 186
f 186 247 188
f 187 248 194
f 187 193 249
f 187 249 248
f 189 250 251
f 189 251 190
f 190 251 191
f 191 251 252
f 191 252 253
f 191 253 254
f 191 254 255
f 191 255 256
f 191 256 192
f 192 257 249
f 192 249 193
f 192 256 258
f 192 258 259
f 192 259 257
f 194 248 260
f 194 260 261
f 194 261 262
f 194 262 195
f 195 262 263
f 195 263 196
f 196 263 264
f 196 264 197
f 197 264 265
f 199 266 200
f 200 266 267
f 200 267 268
f 200 268 269
f 200 269 203
f 201 204 270
f 201 270 202
f 202 270 216
f 203 269 204
f 204 269 271
f 204 271 272
f 204 272 273
f 204 273 270
f 205 215 206
f 206 215 235
f 207 234 274
f 207 274 208
f 207 236 234
f 214 229 228
f 214 228 275
f 214 275 215
f 215 275 237
f 215 237 235
f 216 276 218
f 216 270 273
f 216 273 272
f 216 272 277
f 216 277 278
f 216 278 279
f 216 279 280
f 216 280 281
f 216 281 282
f 216 282 276
f 218 276 219
f 219 276 220
f 220 276 221
f 221 276 282
f 221 282 222
f 222 282 283
f 222 283 284
f 222 284 285
f 222 285 286
f 222 286 287
f 222 287 288
f 222 288 289
f 222 289 290
f 222 290 224
f 222 224 223
f 224 290 291
f 224 291 292
f 224 292 226
f 224 226 225
f 226 293 294
f 226 294 295
f 226 295 227
f 226 292 293
f 227 295 228
f 228 295 275
f 231 235 232
f 232 235 237
f 233 296 234
f 234 296 297
f 234 297 298
f 234 298 274
f 237 275 238
f 238 295 294
f 238 294 239
f 238 275 295
f 239 294 299
f 239 299 241
f 239 241 240
f 241 299 293
f 241 293 242
f 242 293 300
f 242 300 243
f 243 300 301
f 243 301 244
f 244 302 245
f 244 301 302
f 245 302 246
f 246 302 303
f 248 249 260
f 249 257 304
f 249 304 305
f 249 305 260
f 250 252 251
f 253 306 307
f 253 307 255
f 253 255 254
f 255 308 309
f 255 309 310
f 255 310 311
f 255 311 258
f 255 258 256
f 255 307 308
f 257 259 312
f 257 312 304
f 258 311 313
f 258 313 314
f 258 314 315
f 258 315 259
f 259 315 312
f 260 305 261
f 261 305 316
f 261 316 317
f 261 317 318
f 261 318 263
f 261 263 262
f 263 318 319
f 263 319 320
f 263 320 321
f 263 321 322
f 263 322 323
f 263 323 264
f 264 323 265
f 267 324 268
f 268 324 269
f 269 325 326
f 269 326 271
f 269 324 327
f 269 327 328
f 269 328 329
f 269 329 330
f 269 330 331
f 269 331 332
f 269 332 325
f 271 326 272
f 272 326 325
f 272 325 332
f 272 332 333
f 272 333 334
f 272 334 335
f 272 335 278
f 272 278 277
f 278 336 280
f 278 280 279
f 278 335 334
f 278 334 337
f 278 337 338
f 278 338 336
f 280 283 282
f 280 282 281
f 280 336 284
f 280 284 283
f 284 336 339
f 284 339 285
f 285 339 340
f 285 340 341
f 285 341 286
f 286 341 342
f 286 342 287
f 287 342 288
f 288 342 343
f 288 343 344
f 288 344 345
f 288 345 291
f 288 291 289
f 289 291 290
f 291 346 347
f 291 347 292
f 291 345 346
f 292 347 293
f 293 299 294
f 293 347 346
f 293 346 300
f 300 346 348
f 300 348 301
f 301 349 302
f 301 348 350
f 301 350 349
f 302 351 303
f 302 349 352
f 302 352 351
f 304 312 353
f 304 353 354
f 304 354 305
f 305 354 316
f 306 308 307
f 309 355 356
f 309 356 357
f 309 357 310
f 310 357 311
f 311 357 313
f 312 315 353
f 313 357 358
f 313 358 359
f 313 359 360
f 313 360 314
f 314 360 361
f 314 361 315
f 315 361 362
f 315 362 353
f 316 354 363
f 316 363 364
f 316 364 365
f 316 365 366
f 316 366 367
f 316 367 368
f 316 368 369
f 316 369 370
f 316 370 317
f 317 371 319
f 317 319 318
f 317 370 369
f 317 369 372
f 317 372 373
f 317 373 371
f 319 371 320
f 320 374 322
f 320 322 321
f 320 371 375
f 320 375 376
f 320 376 374
f 327 377 328
f 328 377 329
f 329 378 331
f 329 331 330
f 331 378 379
f 331 379 380
f 331 380 381
f 331 381 332
f 332 381 380
f 332 380 382
f 332 382 367
f 332 367 383
f 332 383 333
f 333 383 334
f 334 383 367
f 334 367 384
f 334 384 364
f 334 364 338
f 334 338 337
f 336 338 339
f 338 364 385
f 338 385 339
f 339 385 364
f 339 364 386
f 339 386 387
f 339 387 388
f 339 388 389
f 339 389 340
f 340 389 341
f 341 390 342
f 341 389 390
f 342 390 391
f 342 391 392
f 342 392 343
f 343 392 393
f 343 393 344
f 344 393 348
f 344 348 346
f 344 346 345
f 348 393 350
f 349 350 352
f 350 393 394
f 350 394 395
f 350 395 352
f 352 395 396
f 353 362 397
f 353 397 364
f 353 364 363
f 353 363 354
f 355 398 356
f 356 398 357
f 357 398 399
f 357 399 400
f 357 400 358
f 358 400 401
f 358 401 402
f 358 402 403
f 358 403 359
f 359 389 360
f 359 403 392
f 359 392 391
f 359 391 389
f 360 389 361
f 361 389 404
f 361 404 388
f 361 388 387
f 361 387 364
f 361 364 397
f 361 397 362
f 364 384 366
f 364 366 365
f 364 387 386
f 366 384 367
f 367 382 405
f 367 405 373
f 367 373 368
f 368 373 369
f 369 373 372
f 371 373 375
f 373 406 407
f 373 407 408
f 373 408 409
f 373 409 410
f 373 410 411
f 373 411 375
f 373 405 380
f 373 380 406
f 378 412 379
f 379 412 413
f 379 413 380
f 380 413 412
f 380 412 414
f 380 414 406
f 380 405 382
f 388 404 389
f 389 391 390
f 392 403 415
f 392 415 416
f 392 416 417
f 392 417 418
f 392 418 393
f 393 418 394
f 394 418 417
f 394 417 419
f 394 419 395
f 395 419 420
f 395 420 421
f 395 421 396
f 399 422 401
f 399 401 400
f 401 422 423
f 401 423 424
f 401 424 425
f 401 425 402
f 402 425 415
f 402 415 403
f 406 414 407
f 408 426 409
f 409 426 410
f 415 427 416
f 415 425 427
f 416 428 419
f 416 419 417
f 419 428 420
f 424 427 425

