# https://github.com/mikedh/trimesh
v 0.01478295 -0.03696916 -0.01293712
v 0.00705138 -0.03696916 -0.02358285
v -0.01072240 -0.03696916 -0.01293712
v 0.03939544 -0.05453422 -0.01293712
v 0.03939544 -0.05898908 -0.02358285
v -0.00705285 -0.03696916 -0.02358285
v -0.01072240 -0.03696916 -0.01714810
v -0.01072240 -0.06496143 -0.01293712
v 0.03939544 -0.06469521 -0.01293712
v 0.03939544 -0.06694334 -0.02358285
v -0.01072240 -0.04201860 -0.02358285
v -0.01072240 -0.06509159 -0.01322578
v 0.02526669 -0.06496143 -0.01293712
v 0.03939544 -0.06489931 -0.01338834
v 0.03854674 -0.06474845 -0.01293712
v 0.03939544 -0.06692856 -0.02294198
v 0.03886562 -0.06697884 -0.02358285
v -0.01072240 -0.06718886 -0.02358285
v -0.01072240 -0.06540514 -0.01398127
v 0.02494290 -0.06509159 -0.01322578
v 0.02828867 -0.06495848 -0.01293712
v 0.03939544 -0.06505314 -0.01376661
v 0.03854674 -0.06495256 -0.01338834
v 0.03854674 -0.06530457 -0.01424700
v 0.03706027 -0.06482536 -0.01293712
v 0.03939544 -0.06692560 -0.02281797
v 0.03854674 -0.06699955 -0.02358285
v 0.02494290 -0.06718886 -0.02358285
v -0.01072240 -0.06717703 -0.02312434
v -0.01072240 -0.06559150 -0.01452627
v 0.02494290 -0.06540514 -0.01398127
v 0.02645389 -0.06540514 -0.01398231
v 0.02796489 -0.06508863 -0.01322682
v 0.02947588 -0.06508863 -0.01323099
v 0.02980457 -0.06495552 -0.01293712
v 0.03939544 -0.06527795 -0.01432724
v 0.03707009 -0.06508271 -0.01351547
v 0.03658932 -0.06535486 -0.01410528
v 0.03759991 -0.06532823 -0.01417301
v 0.03854674 -0.06555305 -0.01500354
v 0.03939544 -0.06552642 -0.01508273
v 0.03939544 -0.06538740 -0.01465966
v 0.03707009 -0.06555009 -0.01476595
v 0.03591722 -0.06486973 -0.01293712
v 0.03552475 -0.06505314 -0.01331227
v 0.03939544 -0.06691376 -0.02245742
v 0.03854674 -0.06696701 -0.02245742
v 0.03703574 -0.06703504 -0.02245742
v 0.03703574 -0.06706463 -0.02358285
v 0.02835245 -0.06718591 -0.02358285
v 0.02645389 -0.06715928 -0.02245742
v -0.01072240 -0.06715928 -0.02245742
v -0.01072240 -0.06571870 -0.01489933
v 0.02796489 -0.06571870 -0.01489933
v 0.02947588 -0.06540219 -0.01398648
v 0.03098687 -0.06508567 -0.01323828
v 0.03098687 -0.06494960 -0.01293712
v 0.03552475 -0.06536965 -0.01406881
v 0.03552475 -0.06564771 -0.01489933
v 0.03854674 -0.06597605 -0.01641137
v 0.03939544 -0.06571279 -0.01570276
v 0.03703574 -0.06605296 -0.01641137
v 0.03552475 -0.06488452 -0.01293712
v 0.03438170 -0.06490819 -0.01293712
v 0.03401376 -0.06506792 -0.01327788
v 0.03939544 -0.06687235 -0.02164044
v 0.03939544 -0.06686644 -0.02154561
v 0.03702103 -0.06691376 -0.02087348
v 0.03552475 -0.06697292 -0.02094539
v 0.03552475 -0.06708533 -0.02245742
v 0.03591231 -0.06710308 -0.02358285
v 0.03854674 -0.06688714 -0.02132157
v 0.02986344 -0.06718295 -0.02358285
v 0.03098687 -0.06715041 -0.02245742
v 0.02645389 -0.06704688 -0.02094539
v -0.01072240 -0.06704688 -0.02094539
v -0.01072240 -0.06617424 -0.01641137
v 0.02796489 -0.06617424 -0.01641137
v 0.02947588 -0.06571574 -0.01489933
v 0.03098687 -0.06539923 -0.01399378
v 0.03249786 -0.06507976 -0.01325183
v 0.03249786 -0.06493777 -0.01293712
v 0.03401376 -0.06538148 -0.01403442
v 0.03401376 -0.06567729 -0.01489933
v 0.03552475 -0.06610325 -0.01641137
v 0.03854674 -0.06635469 -0.01792340
v 0.03939544 -0.06630440 -0.01792340
v 0.03939544 -0.06609142 -0.01707724
v 0.03939544 -0.06592281 -0.01641137
v 0.03703574 -0.06642864 -0.01792340
v 0.03401376 -0.06491410 -0.01293712
v 0.03249786 -0.06539331 -0.01400732
v 0.03939544 -0.06678361 -0.02082555
v 0.03854674 -0.06681023 -0.02056503
v 0.03650592 -0.06686052 -0.02012320
v 0.03751652 -0.06683685 -0.02032223
v 0.03552475 -0.06687531 -0.02004087
v 0.03401376 -0.06700251 -0.02094539
v 0.03401376 -0.06711787 -0.02245742
v 0.03552475 -0.06711491 -0.02358285
v 0.03098687 -0.06717999 -0.02358285
v 0.03137443 -0.06717703 -0.02358285
v 0.03249786 -0.06713858 -0.02245742
v 0.03249786 -0.06702617 -0.02094539
v 0.03098687 -0.06703504 -0.02094539
v 0.02947588 -0.06704096 -0.02094539
v 0.02796489 -0.06691080 -0.01982934
v 0.02494290 -0.06691080 -0.01982725
v -0.01072240 -0.06691080 -0.01982725
v -0.01072240 -0.06639610 -0.01730754
v 0.02796489 -0.06654696 -0.01792340
v 0.02947588 -0.06617129 -0.01641137
v 0.03098687 -0.06570983 -0.01489933
v 0.03249786 -0.06569799 -0.01489933
v 0.03401376 -0.06613283 -0.01641137
v 0.03552475 -0.06647893 -0.01792340
v 0.03854674 -0.06664754 -0.01943439
v 0.03939544 -0.06643455 -0.01858824
v 0.03552475 -0.06675107 -0.01928434
v 0.03702103 -0.06674220 -0.01954485
v 0.03939544 -0.06666824 -0.01993250
v 0.03939544 -0.06659725 -0.01943439
v 0.03401376 -0.06689010 -0.01995230
v 0.03401376 -0.06714745 -0.02358285
v 0.03249786 -0.06716816 -0.02358285
v 0.03249786 -0.06689897 -0.01988873
v 0.03098687 -0.06690489 -0.01985434
v 0.02947588 -0.06690785 -0.01983767
v 0.02796489 -0.06678065 -0.01907384
v 0.02645389 -0.06678065 -0.01907175
v 0.02947588 -0.06678065 -0.01908218
v 0.02494290 -0.06678065 -0.01907071
v -0.01072240 -0.06678065 -0.01907071
v -0.01072240 -0.06654696 -0.01792340
v 0.02947588 -0.06654400 -0.01792340
v -0.01072240 -0.06668599 -0.01860283
v 0.03098687 -0.06616537 -0.01641137
v 0.03249786 -0.06615354 -0.01641137
v 0.03401376 -0.06650851 -0.01792340
v 0.03401376 -0.06676290 -0.01919576
v 0.03249786 -0.06677178 -0.01913219
v 0.03098687 -0.06677769 -0.01909885
v 0.03098687 -0.06653809 -0.01792340
v 0.03249786 -0.06652626 -0.01792340
f 1 2 6
f 1 6 7
f 1 7 3
f 1 3 8
f 1 8 13
f 1 13 21
f 1 21 35
f 1 35 57
f 1 57 82
f 1 82 91
f 1 91 64
f 1 64 63
f 1 63 44
f 1 44 25
f 1 25 15
f 1 15 9
f 1 9 4
f 1 4 5
f 1 5 2
f 2 5 10
f 2 10 17
f 2 17 27
f 2 27 49
f 2 49 71
f 2 71 100
f 2 100 124
f 2 124 125
f 2 125 102
f 2 102 101
f 2 101 73
f 2 73 50
f 2 50 28
f 2 28 18
f 2 18 11
f 2 11 6
f 3 7 11
f 3 11 18
f 3 18 29
f 3 29 52
f 3 52 76
f 3 76 109
f 3 109 133
f 3 133 136
f 3 136 134
f 3 134 110
f 3 110 77
f 3 77 53
f 3 53 30
f 3 30 19
f 3 19 12
f 3 12 8
f 4 9 14
f 4 14 22
f 4 22 36
f 4 36 42
f 4 42 41
f 4 41 61
f 4 61 89
f 4 89 88
f 4 88 87
f 4 87 118
f 4 118 122
f 4 122 121
f 4 121 93
f 4 93 67
f 4 67 66
f 4 66 46
f 4 46 26
f 4 26 16
f 4 16 10
f 4 10 5
f 6 11 7
f 8 12 20
f 8 20 13
f 9 15 23
f 9 23 14
f 10 16 17
f 12 19 31
f 12 31 20
f 13 20 21
f 14 23 24
f 14 24 22
f 15 25 23
f 16 26 17
f 17 26 27
f 18 28 29
f 19 30 31
f 20 31 32
f 20 32 33
f 20 33 21
f 21 34 35
f 21 33 34
f 22 24 36
f 23 25 37
f 23 37 38
f 23 38 39
f 23 39 24
f 24 40 41
f 24 41 42
f 24 42 36
f 24 39 43
f 24 43 40
f 25 44 45
f 25 45 37
f 26 46 47
f 26 47 27
f 27 47 48
f 27 48 49
f 28 50 51
f 28 51 29
f 29 51 52
f 30 53 54
f 30 54 31
f 31 54 32
f 32 54 55
f 32 55 34
f 32 34 33
f 34 55 80
f 34 80 56
f 34 56 35
f 35 56 57
f 37 45 38
f 38 45 58
f 38 58 59
f 38 59 43
f 38 43 39
f 40 60 61
f 40 61 41
f 40 43 62
f 40 62 60
f 43 59 62
f 44 63 45
f 45 63 64
f 45 64 65
f 45 65 58
f 46 66 47
f 47 66 67
f 47 67 48
f 48 68 69
f 48 69 70
f 48 70 71
f 48 71 49
f 48 67 72
f 48 72 68
f 50 73 74
f 50 74 51
f 51 74 106
f 51 106 75
f 51 75 76
f 51 76 52
f 53 77 78
f 53 78 54
f 54 78 112
f 54 112 79
f 54 79 55
f 55 79 80
f 56 80 92
f 56 92 81
f 56 81 82
f 56 82 57
f 58 65 83
f 58 83 84
f 58 84 59
f 59 84 115
f 59 115 85
f 59 85 62
f 60 86 87
f 60 87 88
f 60 88 89
f 60 89 61
f 60 62 86
f 62 90 86
f 62 85 116
f 62 116 90
f 64 91 65
f 65 91 82
f 65 82 81
f 65 81 92
f 65 92 83
f 67 93 94
f 67 94 72
f 68 95 69
f 68 72 96
f 68 96 95
f 69 95 97
f 69 97 98
f 69 98 99
f 69 99 70
f 70 99 124
f 70 124 100
f 70 100 71
f 72 94 96
f 73 101 74
f 74 101 102
f 74 102 103
f 74 103 104
f 74 104 105
f 74 105 106
f 75 106 107
f 75 107 108
f 75 108 109
f 75 109 76
f 77 110 78
f 78 111 135
f 78 135 112
f 78 110 111
f 79 112 137
f 79 137 113
f 79 113 80
f 80 113 92
f 83 92 84
f 84 92 114
f 84 114 138
f 84 138 115
f 85 115 139
f 85 139 116
f 86 117 118
f 86 118 87
f 86 90 117
f 90 116 119
f 90 119 120
f 90 120 117
f 92 113 114
f 93 121 94
f 94 121 122
f 94 122 96
f 95 96 117
f 95 117 120
f 95 120 119
f 95 119 97
f 96 122 117
f 97 119 123
f 97 123 98
f 98 123 104
f 98 104 99
f 99 104 103
f 99 103 125
f 99 125 124
f 102 125 103
f 104 123 126
f 104 126 127
f 104 127 105
f 105 127 106
f 106 127 128
f 106 128 107
f 107 129 130
f 107 130 132
f 107 132 108
f 107 128 131
f 107 131 129
f 108 132 133
f 108 133 109
f 110 134 111
f 111 132 130
f 111 130 129
f 111 129 131
f 111 131 135
f 111 134 136
f 111 136 132
f 112 135 143
f 112 143 137
f 113 137 138
f 113 138 114
f 115 138 139
f 116 139 119
f 117 122 118
f 119 139 140
f 119 140 123
f 123 140 141
f 123 141 126
f 126 141 127
f 127 142 131
f 127 131 128
f 127 141 142
f 131 142 143
f 131 143 135
f 132 136 133
f 137 143 144
f 137 144 138
f 138 144 139
f 139 144 141
f 139 141 140
f 141 144 142
f 142 144 143

