# https://github.com/mikedh/trimesh
v 0.01876199 -0.04558971 -0.04217617
v 0.01317647 -0.04558971 -0.03616103
v 0.02555333 -0.04786556 -0.04217617
v -0.01877245 -0.04558971 -0.04217617
v 0.02555333 -0.05232366 -0.03616103
v -0.01316987 -0.04558971 -0.03616103
v 0.02555333 -0.06015332 -0.04217617
v -0.03255422 -0.04897229 -0.04217617
v 0.02555333 -0.06433795 -0.03616103
v -0.03255422 -0.05467843 -0.03616103
v 0.02555333 -0.06043964 -0.04186879
v -0.02645110 -0.06015699 -0.04217381
v -0.02796409 -0.06015332 -0.04217617
v -0.03255422 -0.06012212 -0.04217617
v 0.02493904 -0.06433979 -0.03616103
v 0.02555333 -0.06411037 -0.03661445
v -0.03255422 -0.06431593 -0.03616103
v 0.02555333 -0.06085810 -0.04141773
v -0.02645110 -0.06085810 -0.04141773
v -0.02947707 -0.06085810 -0.04141655
v -0.02947707 -0.06015332 -0.04217264
v -0.02947707 -0.06014965 -0.04217617
v -0.03255422 -0.06013864 -0.04215909
v -0.03253147 -0.06012396 -0.04217617
v 0.02555333 -0.06392316 -0.03698660
v -0.02494381 -0.06433979 -0.03616103
v -0.03255422 -0.06390848 -0.03696305
v -0.03099005 -0.06391582 -0.03697601
v -0.03099005 -0.06432878 -0.03616103
v 0.02555333 -0.06111873 -0.04108738
v -0.02645110 -0.06150232 -0.04059863
v -0.02947707 -0.06150048 -0.04059863
v -0.03099005 -0.06149497 -0.04059863
v -0.03099005 -0.06085443 -0.04141361
v -0.03099005 -0.06014965 -0.04216969
v -0.03100142 -0.06014231 -0.04217617
v -0.03255422 -0.06082140 -0.04142891
v -0.03249734 -0.06014048 -0.04215968
v -0.03249734 -0.06084709 -0.04140359
v 0.02555333 -0.06347166 -0.03774210
v -0.02645110 -0.06392316 -0.03698660
v -0.02812335 -0.06433795 -0.03616103
v -0.03255422 -0.06389379 -0.03698837
v -0.03099005 -0.06346616 -0.03773209
v -0.02947707 -0.06392133 -0.03698307
v -0.02947707 -0.06433612 -0.03616103
v 0.02555333 -0.06150232 -0.04059863
v -0.02494381 -0.06220342 -0.03968591
v -0.02796409 -0.06220342 -0.03968532
v -0.02947707 -0.06220159 -0.03968414
v -0.03099005 -0.06219975 -0.03968002
v -0.03255422 -0.06219425 -0.03967178
v -0.03255422 -0.06148029 -0.04059863
v -0.03255422 -0.06084526 -0.04140301
v 0.02555333 -0.06302016 -0.03845167
v -0.02645110 -0.06347166 -0.03774210
v -0.02947707 -0.06346983 -0.03773916
v -0.03255422 -0.06345881 -0.03771855
v -0.03249734 -0.06345881 -0.03771973
v -0.03099005 -0.06270999 -0.03892511
v -0.03255422 -0.06343312 -0.03775977
v -0.03249734 -0.06270448 -0.03891687
v 0.02555333 -0.06178496 -0.04023060
v 0.02493904 -0.06220342 -0.03968591
v -0.02645110 -0.06271549 -0.03893041
v -0.02796409 -0.06271549 -0.03892982
v -0.02947707 -0.06271366 -0.03892864
v -0.03255422 -0.06268612 -0.03894219
v 0.02555333 -0.06271549 -0.03893041
v -0.03255422 -0.06270264 -0.03891628
v 0.02555333 -0.06220342 -0.03968532
f 1 2 3
f 1 3 7
f 1 7 13
f 1 13 22
f 1 22 36
f 1 36 24
f 1 24 14
f 1 14 8
f 1 8 4
f 1 4 6
f 1 6 2
f 2 5 3
f 2 6 10
f 2 10 17
f 2 17 29
f 2 29 46
f 2 46 42
f 2 42 26
f 2 26 15
f 2 15 9
f 2 9 5
f 3 5 9
f 3 9 16
f 3 16 25
f 3 25 40
f 3 40 55
f 3 55 69
f 3 69 71
f 3 71 63
f 3 63 47
f 3 47 30
f 3 30 18
f 3 18 11
f 3 11 7
f 4 8 6
f 6 8 10
f 7 11 12
f 7 12 13
f 8 14 23
f 8 23 37
f 8 37 54
f 8 54 53
f 8 53 52
f 8 52 68
f 8 68 70
f 8 70 61
f 8 61 58
f 8 58 43
f 8 43 27
f 8 27 17
f 8 17 10
f 9 15 16
f 11 18 12
f 12 19 20
f 12 20 13
f 12 18 19
f 13 20 21
f 13 21 22
f 14 24 23
f 15 25 16
f 15 26 41
f 15 41 25
f 17 27 28
f 17 28 29
f 18 30 19
f 19 31 20
f 19 30 31
f 20 31 32
f 20 32 33
f 20 33 34
f 20 34 35
f 20 35 21
f 21 35 22
f 22 35 36
f 23 24 37
f 24 36 35
f 24 35 38
f 24 38 39
f 24 39 37
f 25 41 56
f 25 56 40
f 26 42 41
f 27 43 28
f 28 44 45
f 28 45 29
f 28 43 44
f 29 45 46
f 30 47 31
f 31 48 49
f 31 49 32
f 31 47 64
f 31 64 48
f 32 49 50
f 32 50 51
f 32 51 33
f 33 51 52
f 33 52 53
f 33 53 34
f 34 53 39
f 34 39 35
f 35 39 38
f 37 39 54
f 39 53 54
f 40 56 55
f 41 42 45
f 41 45 57
f 41 57 56
f 42 46 45
f 43 58 59
f 43 59 44
f 44 60 57
f 44 57 45
f 44 59 61
f 44 61 62
f 44 62 60
f 47 63 64
f 48 65 49
f 48 64 69
f 48 69 65
f 49 66 67
f 49 67 50
f 49 65 66
f 50 67 51
f 51 67 60
f 51 60 52
f 52 60 62
f 52 62 68
f 55 56 65
f 55 65 69
f 56 57 66
f 56 66 65
f 57 67 66
f 57 60 67
f 58 61 59
f 61 70 62
f 62 70 68
f 63 71 64
f 64 71 69

