# https://github.com/mikedh/trimesh
v 0.05731367 -0.04985900 -0.03495072
v 0.05731461 -0.04973897 -0.03506403
v 0.05731461 -0.03798084 -0.04190834
v 0.04779560 -0.05702974 -0.03495072
v 0.05731461 -0.05142727 -0.03495072
v 0.05731461 -0.03737284 -0.04231628
v 0.04779560 -0.06334197 -0.03495072
v 0.04779560 -0.03928295 -0.04712264
v 0.05731461 -0.05975399 -0.03495072
v 0.05731461 -0.03689531 -0.04269807
v 0.04779560 -0.06276790 -0.03613095
v 0.04913269 -0.06257741 -0.03581541
v 0.04913269 -0.06299492 -0.03495072
v 0.05731461 -0.03668394 -0.04290901
v 0.04779560 -0.03892806 -0.04815643
v 0.05701923 -0.05991839 -0.03495072
v 0.05731461 -0.05943564 -0.03561493
v 0.04779560 -0.06270527 -0.03625821
v 0.04832019 -0.06230081 -0.03679167
v 0.04913269 -0.06218599 -0.03657201
v 0.05025269 -0.06241823 -0.03550858
v 0.05125994 -0.06227471 -0.03521745
v 0.05100183 -0.06246520 -0.03495072
v 0.05731461 -0.03668394 -0.04305545
v 0.04779560 -0.03928556 -0.04945695
v 0.04913269 -0.03879237 -0.04815643
v 0.05663534 -0.06012975 -0.03495072
v 0.05731461 -0.05922428 -0.03600369
v 0.05567561 -0.06062555 -0.03495072
v 0.05661950 -0.05959221 -0.03600369
v 0.04779560 -0.06201638 -0.03746285
v 0.04913269 -0.06096216 -0.03857335
v 0.05001043 -0.06084213 -0.03838856
v 0.05056576 -0.06114482 -0.03760755
v 0.05071112 -0.06200333 -0.03603332
v 0.05196529 -0.06214946 -0.03495072
v 0.05147890 -0.06231907 -0.03495072
v 0.05188423 -0.06098826 -0.03712291
v 0.05229514 -0.06135880 -0.03620766
v 0.05731461 -0.03729716 -0.04513350
v 0.05669032 -0.03733891 -0.04513350
v 0.05064403 -0.03865929 -0.04815643
v 0.05215630 -0.03860188 -0.04815643
v 0.05064403 -0.03928034 -0.04944649
v 0.04779560 -0.04091124 -0.05231427
v 0.05707514 -0.05909902 -0.03646567
v 0.05731461 -0.05902596 -0.03636281
v 0.05560760 -0.06065947 -0.03495072
v 0.05558803 -0.06064903 -0.03498907
v 0.05606789 -0.05936258 -0.03692765
v 0.04779560 -0.06113439 -0.03882265
v 0.04779560 -0.06067773 -0.03949209
v 0.04913269 -0.06043767 -0.03932996
v 0.05056576 -0.06024196 -0.03897083
v 0.05203145 -0.05964701 -0.03910681
v 0.05101768 -0.06067513 -0.03813229
v 0.05216376 -0.06207379 -0.03495072
v 0.05289147 -0.06079516 -0.03680736
v 0.05229514 -0.06054204 -0.03760755
v 0.05366671 -0.06064642 -0.03653017
v 0.05366671 -0.06106132 -0.03577357
v 0.05731461 -0.03785297 -0.04654559
v 0.05669032 -0.03785819 -0.04653513
v 0.05517804 -0.03787385 -0.04651073
v 0.05731461 -0.03817393 -0.04730046
v 0.05215630 -0.03928295 -0.04943778
v 0.04913269 -0.04091124 -0.05228986
v 0.04779560 -0.04190804 -0.05275882
v 0.05731461 -0.05791434 -0.03820028
v 0.05554889 -0.06068556 -0.03495072
v 0.05457985 -0.06087083 -0.03543711
v 0.05512121 -0.06033068 -0.03599149
v 0.05438138 -0.05927386 -0.03830314
v 0.05517804 -0.05908076 -0.03801375
v 0.05517804 -0.05957133 -0.03725714
v 0.04779560 -0.06061511 -0.03957925
v 0.04913269 -0.05968354 -0.04032017
v 0.05064403 -0.05944086 -0.04003426
v 0.05144443 -0.05930778 -0.03986516
v 0.05245168 -0.05911729 -0.03962284
v 0.05337413 -0.05949305 -0.03861519
v 0.05358378 -0.06150493 -0.03495072
v 0.05379343 -0.05989229 -0.03771041
v 0.05731461 -0.03982049 -0.05010896
v 0.05669032 -0.03980483 -0.05012116
v 0.05366671 -0.04032672 -0.05118110
v 0.05517804 -0.03932731 -0.04938896
v 0.05366671 -0.03930382 -0.04941337
v 0.05215630 -0.04091124 -0.05221838
v 0.05064403 -0.04091124 -0.05225674
v 0.05366671 -0.04092428 -0.05216783
v 0.04913269 -0.04190804 -0.05267862
v 0.04779560 -0.04343456 -0.05243456
v 0.05642756 -0.05801872 -0.03869539
v 0.05731461 -0.05771602 -0.03849142
v 0.05486497 -0.06097782 -0.03495072
v 0.05570543 -0.05767688 -0.03970303
v 0.04779560 -0.05978009 -0.04064094
v 0.04779560 -0.05953480 -0.04094079
v 0.04806395 -0.05920601 -0.04125459
v 0.04913269 -0.05905466 -0.04107677
v 0.05064403 -0.05882764 -0.04078912
v 0.05170067 -0.05789346 -0.04147600
v 0.05270791 -0.05770558 -0.04126331
v 0.05366671 -0.05811527 -0.04026264
v 0.05469725 -0.05789607 -0.03998894
v 0.05731461 -0.04062420 -0.05111834
v 0.05517804 -0.04099996 -0.05206846
v 0.05064403 -0.04190804 -0.05255833
v 0.05064403 -0.04324668 -0.05223756
v 0.04913269 -0.04353894 -0.05226371
v 0.04779560 -0.04356243 -0.05237180
v 0.05683474 -0.05748117 -0.03915388
v 0.05731461 -0.05721762 -0.03912948
v 0.05366671 -0.05750205 -0.04101924
v 0.05527402 -0.05707671 -0.04064791
v 0.05584985 -0.05622342 -0.04130689
v 0.05669032 -0.05665398 -0.04028879
v 0.05731461 -0.05647132 -0.04008482
v 0.04779560 -0.05879372 -0.04178282
v 0.04819440 -0.05773690 -0.04282359
v 0.04913269 -0.05829793 -0.04193100
v 0.05064403 -0.05807091 -0.04167648
v 0.05064403 -0.05736636 -0.04243308
v 0.05178359 -0.05640869 -0.04301012
v 0.05278991 -0.05622081 -0.04282185
v 0.05366671 -0.05674531 -0.04187522
v 0.05731461 -0.04190543 -0.05131185
v 0.05610609 -0.04109390 -0.05197780
v 0.05215630 -0.04190804 -0.05240318
v 0.05215630 -0.04301966 -0.05212076
v 0.05064403 -0.04400081 -0.05184357
v 0.04963772 -0.04412085 -0.05190807
v 0.04862954 -0.04423305 -0.05196560
v 0.04779560 -0.04429829 -0.05199873
v 0.05484168 -0.05647654 -0.04158931
v 0.05669032 -0.05600423 -0.04104539
v 0.05594117 -0.05475953 -0.04287066
v 0.05654310 -0.05515355 -0.04208790
v 0.05731461 -0.05502830 -0.04176539
v 0.05731461 -0.05580330 -0.04086757
v 0.05731461 -0.05625474 -0.04033935
v 0.04779560 -0.05829271 -0.04233023
v 0.04913269 -0.05760642 -0.04268761
v 0.04779560 -0.05723588 -0.04339017
v 0.04807886 -0.05618428 -0.04430193
v 0.04913269 -0.05684969 -0.04341283
v 0.05064403 -0.05660962 -0.04319840
v 0.05064403 -0.05580330 -0.04395152
v 0.05169787 -0.05486912 -0.04447103
v 0.05224482 -0.05554497 -0.04366039
v 0.05366671 -0.05603554 -0.04263008
v 0.05270512 -0.05468124 -0.04430716
v 0.05366671 -0.05527881 -0.04336228
v 0.05731461 -0.04245863 -0.05104164
v 0.05664186 -0.04182454 -0.05158033
v 0.05610609 -0.04126351 -0.05197780
v 0.05374405 -0.04201503 -0.05216783
v 0.05517804 -0.04155838 -0.05206846
v 0.05329120 -0.04281091 -0.05201442
v 0.05215630 -0.04377379 -0.05172154
v 0.05064403 -0.04493238 -0.05134149
v 0.04913269 -0.04481496 -0.05159950
v 0.04830062 -0.04718694 -0.05041753
v 0.04779560 -0.04657633 -0.05079409
v 0.04779560 -0.04503937 -0.05161171
v 0.05517804 -0.05493958 -0.04303976
v 0.05527309 -0.05397148 -0.04388702
v 0.05583960 -0.05319647 -0.04433680
v 0.05669032 -0.05297467 -0.04412237
v 0.05654310 -0.05397670 -0.04326988
v 0.05731461 -0.05365313 -0.04314610
v 0.05694935 -0.05446466 -0.04257604
v 0.05731461 -0.05467603 -0.04213497
v 0.04779560 -0.05701147 -0.04359937
v 0.04779560 -0.05585288 -0.04464362
v 0.04913269 -0.05527620 -0.04482319
v 0.04913269 -0.05603293 -0.04416595
v 0.04779560 -0.05671922 -0.04387133
v 0.05064403 -0.05504657 -0.04462619
v 0.05064403 -0.05413587 -0.04538279
v 0.05141647 -0.05325127 -0.04589359
v 0.05206126 -0.05396626 -0.04510909
v 0.05366671 -0.05447249 -0.04411714
v 0.05242372 -0.05305817 -0.04574541
v 0.05366671 -0.05281028 -0.04553795
v 0.05366671 -0.05371836 -0.04478135
v 0.05731461 -0.04319710 -0.05067205
v 0.05517804 -0.04231511 -0.05178952
v 0.05664186 -0.04346066 -0.05076096
v 0.05429938 -0.04259171 -0.05191156
v 0.05374405 -0.04335628 -0.05162740
v 0.05215630 -0.04493238 -0.05108871
v 0.05064403 -0.04613794 -0.05067903
v 0.04913269 -0.04633104 -0.05078014
v 0.04913269 -0.04708778 -0.05036174
v 0.04913269 -0.04795672 -0.04986141
v 0.04779560 -0.04928492 -0.04925298
v 0.04779560 -0.04776884 -0.05013685
v 0.04779560 -0.04665983 -0.05074876
v 0.05483236 -0.05344698 -0.04455471
v 0.05524327 -0.05252063 -0.04516313
v 0.05565511 -0.05158645 -0.04577156
v 0.05669032 -0.05221793 -0.04479006
v 0.05731461 -0.05204571 -0.04464362
v 0.05731461 -0.05435245 -0.04246446
v 0.04779560 -0.05556845 -0.04488072
v 0.04913269 -0.05436811 -0.04557979
v 0.05064403 -0.05338174 -0.04599296
v 0.05064403 -0.05248932 -0.04665019
v 0.05215630 -0.05133333 -0.04711392
v 0.05201467 -0.05252846 -0.04626666
v 0.05366671 -0.05205615 -0.04613417
v 0.05464693 -0.05184478 -0.04597727
v 0.05731461 -0.04389904 -0.05028852
v 0.05711334 -0.04399037 -0.05031816
v 0.05517804 -0.04342152 -0.05122817
v 0.05610516 -0.04426697 -0.05047680
v 0.05405526 -0.04554560 -0.05034082
v 0.05359776 -0.04499762 -0.05075399
v 0.05304801 -0.04574131 -0.05045414
v 0.05215630 -0.04590309 -0.05054828
v 0.05064403 -0.04689468 -0.05024668
v 0.05064403 -0.04795672 -0.04962257
v 0.04913269 -0.04913619 -0.04916756
v 0.04779560 -0.04937365 -0.04920068
v 0.05669032 -0.05053485 -0.04613068
v 0.05669032 -0.05129158 -0.04554667
v 0.05625797 -0.04890656 -0.04753406
v 0.05673318 -0.04943366 -0.04694133
v 0.05731461 -0.05166734 -0.04494871
v 0.04779560 -0.05453772 -0.04571926
v 0.04913269 -0.05361138 -0.04616380
v 0.05064403 -0.05159167 -0.04730220
v 0.05215630 -0.05057921 -0.04764389
v 0.05323623 -0.05036262 -0.04750268
v 0.05371050 -0.05091061 -0.04695876
v 0.05424441 -0.05014082 -0.04734578
v 0.05517804 -0.04993207 -0.04718714
v 0.05731461 -0.04417303 -0.05012639
v 0.05731461 -0.04593441 -0.04906645
v 0.05669032 -0.04611707 -0.04917802
v 0.05664186 -0.04483583 -0.04996775
v 0.05517804 -0.04527161 -0.05018043
v 0.05517804 -0.04451487 -0.05061975
v 0.05359776 -0.04632582 -0.04997995
v 0.05477180 -0.04737221 -0.04902112
v 0.05366671 -0.04762793 -0.04917453
v 0.05259796 -0.04860647 -0.04884679
v 0.05215630 -0.04665722 -0.05010721
v 0.05211903 -0.04804544 -0.04928785
v 0.05064403 -0.04892743 -0.04904378
v 0.04913269 -0.04989031 -0.04870558
v 0.04779560 -0.05003905 -0.04880146
v 0.05731461 -0.05003905 -0.04622656
v 0.05731461 -0.05035219 -0.04598947
v 0.05726522 -0.04859864 -0.04732137
v 0.05517804 -0.04917533 -0.04771885
v 0.05523675 -0.04790714 -0.04853299
v 0.05577997 -0.04712170 -0.04886422
v 0.05669032 -0.04687380 -0.04869860
v 0.05673318 -0.04803761 -0.04791411
v 0.05731461 -0.04945193 -0.04666763
v 0.04779560 -0.05378099 -0.04628758
v 0.04779560 -0.05272156 -0.04705465
v 0.04881869 -0.05186044 -0.04748874
v 0.04924637 -0.05241364 -0.04700758
v 0.04982687 -0.05171431 -0.04738762
v 0.05064403 -0.05083493 -0.04781299
v 0.05211903 -0.04935277 -0.04846326
v 0.05366671 -0.04838467 -0.04870384
v 0.05371050 -0.04956935 -0.04789842
v 0.05731461 -0.04858038 -0.04731092
v 0.05523675 -0.04654762 -0.04938722
v 0.05064403 -0.04968156 -0.04856960
v 0.05159165 -0.04877347 -0.04895139
v 0.04779560 -0.05110631 -0.04812854
v 0.04779560 -0.05099150 -0.04820176
v 0.05731461 -0.04864822 -0.04726210
v 0.04779560 -0.05198048 -0.04756718
f 1 2 3
f 1 3 4
f 1 4 7
f 1 7 13
f 1 13 23
f 1 23 37
f 1 37 36
f 1 36 57
f 1 57 82
f 1 82 96
f 1 96 70
f 1 70 48
f 1 48 29
f 1 29 27
f 1 27 16
f 1 16 9
f 1 9 5
f 1 5 2
f 2 5 9
f 2 9 17
f 2 17 28
f 2 28 47
f 2 47 69
f 2 69 95
f 2 95 114
f 2 114 119
f 2 119 142
f 2 142 141
f 2 141 140
f 2 140 174
f 2 174 206
f 2 206 172
f 2 172 205
f 2 205 231
f 2 231 256
f 2 256 255
f 2 255 263
f 2 263 279
f 2 279 273
f 2 273 241
f 2 241 240
f 2 240 215
f 2 215 188
f 2 188 155
f 2 155 128
f 2 128 107
f 2 107 84
f 2 84 65
f 2 65 62
f 2 62 40
f 2 40 24
f 2 24 14
f 2 14 10
f 2 10 6
f 2 6 3
f 3 6 4
f 4 6 8
f 4 8 15
f 4 15 25
f 4 25 45
f 4 45 68
f 4 68 93
f 4 93 112
f 4 112 135
f 4 135 166
f 4 166 165
f 4 165 200
f 4 200 199
f 4 199 198
f 4 198 226
f 4 226 254
f 4 254 278
f 4 278 277
f 4 277 280
f 4 280 265
f 4 265 264
f 4 264 232
f 4 232 207
f 4 207 176
f 4 176 179
f 4 179 175
f 4 175 145
f 4 145 143
f 4 143 120
f 4 120 99
f 4 99 98
f 4 98 76
f 4 76 52
f 4 52 51
f 4 51 31
f 4 31 18
f 4 18 11
f 4 11 7
f 6 10 8
f 7 11 12
f 7 12 13
f 8 10 14
f 8 14 15
f 9 16 17
f 11 18 12
f 12 18 19
f 12 19 20
f 12 20 21
f 12 21 13
f 13 21 22
f 13 22 23
f 14 24 15
f 15 24 26
f 15 26 25
f 16 27 17
f 17 27 29
f 17 29 30
f 17 30 28
f 18 31 19
f 19 31 32
f 19 32 33
f 19 33 34
f 19 34 20
f 20 22 21
f 20 34 35
f 20 35 22
f 22 36 37
f 22 37 23
f 22 35 38
f 22 38 39
f 22 39 36
f 24 40 41
f 24 41 42
f 24 42 26
f 25 26 42
f 25 42 43
f 25 43 44
f 25 44 45
f 28 30 46
f 28 46 47
f 29 48 49
f 29 49 30
f 30 50 46
f 30 49 50
f 31 51 32
f 32 51 52
f 32 52 53
f 32 53 33
f 33 53 54
f 33 54 55
f 33 55 56
f 33 56 34
f 34 56 38
f 34 38 35
f 36 39 57
f 38 58 39
f 38 56 59
f 38 59 58
f 39 58 60
f 39 60 61
f 39 61 57
f 40 62 63
f 40 63 64
f 40 64 42
f 40 42 41
f 42 64 43
f 43 64 63
f 43 63 62
f 43 62 65
f 43 65 66
f 43 66 44
f 44 66 45
f 45 66 67
f 45 67 68
f 46 50 69
f 46 69 47
f 48 70 49
f 49 70 71
f 49 71 72
f 49 72 50
f 50 73 74
f 50 74 69
f 50 72 75
f 50 75 73
f 52 76 53
f 53 76 77
f 53 77 78
f 53 78 54
f 54 78 79
f 54 79 55
f 55 79 80
f 55 80 81
f 55 81 56
f 56 81 59
f 57 61 71
f 57 71 82
f 58 59 83
f 58 83 60
f 59 81 83
f 60 83 75
f 60 75 72
f 60 72 71
f 60 71 61
f 65 84 85
f 65 85 86
f 65 86 87
f 65 87 88
f 65 88 66
f 66 88 86
f 66 86 89
f 66 89 90
f 66 90 67
f 67 90 68
f 68 90 89
f 68 89 91
f 68 91 92
f 68 92 93
f 69 74 94
f 69 94 95
f 70 96 71
f 71 96 82
f 73 75 83
f 73 83 81
f 73 81 97
f 73 97 94
f 73 94 74
f 76 98 77
f 77 98 99
f 77 99 100
f 77 100 101
f 77 101 102
f 77 102 78
f 78 102 79
f 79 102 103
f 79 103 104
f 79 104 80
f 80 104 105
f 80 105 106
f 80 106 81
f 81 106 97
f 84 107 108
f 84 108 91
f 84 91 86
f 84 86 85
f 86 91 89
f 86 88 87
f 91 108 92
f 92 108 109
f 92 109 93
f 93 109 110
f 93 110 111
f 93 111 112
f 94 97 95
f 95 97 113
f 95 113 114
f 97 106 115
f 97 115 116
f 97 116 117
f 97 117 118
f 97 118 119
f 97 119 113
f 99 120 100
f 100 120 121
f 100 121 122
f 100 122 101
f 101 122 123
f 101 123 102
f 102 123 103
f 103 123 124
f 103 124 125
f 103 125 126
f 103 126 104
f 104 126 127
f 104 127 115
f 104 115 105
f 105 115 106
f 107 128 129
f 107 129 108
f 108 129 109
f 109 130 110
f 109 129 130
f 110 130 131
f 110 131 132
f 110 132 133
f 110 133 111
f 111 133 134
f 111 134 112
f 112 134 135
f 113 119 114
f 115 127 136
f 115 136 116
f 116 136 117
f 117 137 118
f 117 136 138
f 117 138 139
f 117 139 140
f 117 140 137
f 118 137 141
f 118 141 142
f 118 142 119
f 120 143 121
f 121 144 122
f 121 143 145
f 121 145 146
f 121 146 147
f 121 147 144
f 122 144 123
f 123 144 124
f 124 144 148
f 124 148 125
f 125 148 149
f 125 149 150
f 125 150 151
f 125 151 126
f 126 152 127
f 126 151 153
f 126 153 154
f 126 154 152
f 127 152 136
f 128 155 156
f 128 156 157
f 128 157 129
f 129 157 130
f 130 158 131
f 130 157 159
f 130 159 158
f 131 158 160
f 131 160 161
f 131 161 132
f 132 161 162
f 132 162 163
f 132 163 133
f 133 163 134
f 134 163 164
f 134 164 165
f 134 165 166
f 134 166 135
f 136 152 138
f 137 140 141
f 138 167 168
f 138 168 169
f 138 169 170
f 138 170 171
f 138 171 172
f 138 172 173
f 138 173 140
f 138 140 139
f 138 152 167
f 140 173 174
f 144 147 148
f 145 175 146
f 146 176 177
f 146 177 178
f 146 178 147
f 146 175 179
f 146 179 176
f 147 178 149
f 147 149 148
f 149 180 150
f 149 178 180
f 150 153 151
f 150 180 181
f 150 181 182
f 150 182 183
f 150 183 153
f 152 154 167
f 153 184 154
f 153 183 185
f 153 185 186
f 153 186 187
f 153 187 184
f 154 184 167
f 155 188 156
f 156 189 157
f 156 188 190
f 156 190 189
f 157 189 191
f 157 191 159
f 158 159 160
f 159 191 160
f 160 191 192
f 160 192 161
f 161 193 162
f 161 192 193
f 162 193 194
f 162 194 195
f 162 195 163
f 163 195 164
f 164 196 197
f 164 197 198
f 164 198 199
f 164 199 200
f 164 200 165
f 164 195 196
f 167 184 168
f 168 201 169
f 168 184 201
f 169 201 202
f 169 202 203
f 169 203 204
f 169 204 205
f 169 205 170
f 170 172 171
f 170 205 172
f 172 206 173
f 173 206 174
f 176 207 177
f 177 207 208
f 177 208 180
f 177 180 178
f 180 208 181
f 181 209 182
f 181 208 209
f 182 185 183
f 182 209 210
f 182 210 211
f 182 211 212
f 182 212 185
f 184 187 201
f 185 212 213
f 185 213 186
f 186 213 214
f 186 214 187
f 187 214 201
f 188 215 216
f 188 216 190
f 189 190 217
f 189 217 191
f 190 216 218
f 190 218 217
f 191 217 219
f 191 219 192
f 192 219 220
f 192 220 193
f 193 220 221
f 193 221 222
f 193 222 194
f 194 222 223
f 194 223 196
f 194 196 195
f 196 223 197
f 197 223 224
f 197 224 225
f 197 225 198
f 198 225 226
f 201 214 202
f 202 214 203
f 203 227 228
f 203 228 204
f 203 214 229
f 203 229 230
f 203 230 227
f 204 228 205
f 205 228 231
f 207 232 208
f 208 232 233
f 208 233 209
f 209 233 210
f 210 234 211
f 210 233 234
f 211 213 212
f 211 234 235
f 211 235 236
f 211 236 213
f 213 236 237
f 213 237 214
f 214 237 238
f 214 238 239
f 214 239 229
f 215 240 216
f 216 240 241
f 216 241 242
f 216 242 243
f 216 243 244
f 216 244 218
f 217 218 245
f 217 245 219
f 218 244 245
f 219 246 221
f 219 221 220
f 219 245 244
f 219 244 247
f 219 247 248
f 219 248 249
f 219 249 246
f 221 246 249
f 221 249 250
f 221 250 222
f 222 250 223
f 223 250 224
f 224 251 252
f 224 252 225
f 224 250 251
f 225 252 253
f 225 253 254
f 225 254 226
f 227 255 256
f 227 256 228
f 227 230 255
f 228 256 231
f 229 257 230
f 229 239 258
f 229 258 259
f 229 259 260
f 229 260 261
f 229 261 241
f 229 241 262
f 229 262 257
f 230 257 263
f 230 263 255
f 232 264 233
f 233 264 265
f 233 265 266
f 233 266 267
f 233 267 234
f 234 267 268
f 234 268 269
f 234 269 235
f 235 269 270
f 235 270 249
f 235 249 236
f 236 238 237
f 236 249 271
f 236 271 272
f 236 272 258
f 236 258 238
f 238 258 239
f 241 273 257
f 241 257 262
f 241 261 242
f 242 244 243
f 242 261 260
f 242 260 244
f 244 260 274
f 244 274 247
f 247 260 259
f 247 259 271
f 247 271 248
f 247 274 260
f 248 271 249
f 249 270 275
f 249 275 276
f 249 276 251
f 249 251 250
f 251 276 252
f 252 276 275
f 252 275 253
f 253 275 266
f 253 266 277
f 253 277 278
f 253 278 254
f 257 273 279
f 257 279 263
f 258 272 271
f 258 271 259
f 265 280 266
f 266 269 268
f 266 268 267
f 266 280 277
f 266 275 269
f 269 275 270

