# https://github.com/mikedh/trimesh
v 0.03939544 -0.03696916 0.00354680
v 0.03939544 -0.03696916 -0.00518698
v 0.03894901 -0.03696916 0.00357491
v 0.03939544 -0.03737469 0.00359309
v 0.03939544 -0.05453579 -0.01293712
v 0.01478295 -0.03696916 -0.01293712
v 0.03854674 -0.03696916 0.00359474
v 0.03854674 -0.03737469 0.00364599
v 0.03939544 -0.03888447 0.00368897
v 0.03939544 -0.06469599 -0.01293712
v -0.01072240 -0.03696916 -0.01293712
v 0.03743802 -0.03696916 0.00364269
v 0.03703574 -0.03737469 0.00371212
v 0.03854674 -0.03888447 0.00374022
v 0.03854674 -0.04039700 0.00375180
v 0.03939544 -0.03955031 0.00369393
v 0.03939544 -0.06418360 -0.01180469
v 0.03854674 -0.06427128 -0.01187413
v 0.03854674 -0.06475080 -0.01293712
v -0.01072240 -0.06496178 -0.01293712
v -0.01072240 -0.03696916 0.00376337
v 0.03703574 -0.03696916 0.00365922
v 0.03552475 -0.03737469 0.00375180
v 0.03552475 -0.03888447 0.00385429
v 0.03703574 -0.03888447 0.00380470
v 0.03703574 -0.04039700 0.00382784
v 0.03854674 -0.04190952 0.00368732
v 0.03939544 -0.04106283 0.00367079
v 0.03939544 -0.04039700 0.00369890
v 0.03939544 -0.06387671 -0.01116160
v 0.03854674 -0.06386849 -0.01104257
v 0.03703574 -0.06435349 -0.01187413
v 0.03706027 -0.06482478 -0.01293712
v 0.02494290 -0.06496178 -0.01293712
v -0.01072240 -0.06448227 -0.01187413
v -0.01072240 -0.03737469 0.00381627
v 0.02685617 -0.03696916 0.00376337
v 0.03552475 -0.03696916 0.00369890
v 0.03401376 -0.03696916 0.00372700
v 0.03401376 -0.03737469 0.00377825
v 0.03401376 -0.03888447 0.00389066
v 0.03552475 -0.04039700 0.00388075
v 0.03703574 -0.04190952 0.00376172
v 0.03854674 -0.04342204 0.00352366
v 0.03939544 -0.04257536 0.00355837
v 0.03939544 -0.04190952 0.00362946
v 0.03939544 -0.06384109 -0.01109051
v 0.03854674 -0.06344652 -0.01028706
v 0.03703574 -0.06349036 -0.01020937
v 0.03703574 -0.06390959 -0.01096652
v 0.03552475 -0.06440829 -0.01187413
v 0.03591722 -0.06487136 -0.01293712
v 0.02828867 -0.06495904 -0.01293712
v 0.02645389 -0.06448227 -0.01187413
v -0.01072240 -0.06397262 -0.01084419
v -0.01072240 -0.03827070 0.00388736
v 0.02645389 -0.03737469 0.00381627
v 0.02836716 -0.03696916 0.00376172
v 0.03249786 -0.03696916 0.00374518
v 0.03249786 -0.03737469 0.00379478
v 0.03249786 -0.03888447 0.00391546
v 0.03401376 -0.04039700 0.00391381
v 0.03552475 -0.04190952 0.00380966
v 0.03552475 -0.04342204 0.00364930
v 0.03703574 -0.04342204 0.00359474
v 0.03703574 -0.04493182 0.00335338
v 0.03854674 -0.04493182 0.00327403
v 0.03939544 -0.04408788 0.00335669
v 0.03939544 -0.04342204 0.00346580
v 0.03939544 -0.06345748 -0.01040940
v 0.03939544 -0.06299441 -0.00961918
v 0.03939544 -0.06266286 -0.00905544
v 0.03854674 -0.06269300 -0.00900915
v 0.03703574 -0.06273410 -0.00894302
v 0.03552475 -0.06352050 -0.01015812
v 0.03552475 -0.06393699 -0.01091362
v 0.03552475 -0.06488506 -0.01293712
v 0.03401376 -0.06443843 -0.01187413
v 0.02947588 -0.06495630 -0.01293712
v 0.02947588 -0.06447679 -0.01187413
v 0.02947588 -0.06397262 -0.01084750
v 0.02796489 -0.06397262 -0.01084419
v -0.01072240 -0.06380547 -0.01053504
v -0.01072240 -0.03888447 0.00393530
v 0.02796489 -0.03888447 0.00393530
v 0.02796489 -0.03737469 0.00381462
v 0.02987816 -0.03696916 0.00375841
v 0.03139405 -0.03696916 0.00375180
v 0.03098687 -0.03737469 0.00380470
v 0.03098687 -0.03888447 0.00392869
v 0.03249786 -0.04039700 0.00393530
v 0.03401376 -0.04190952 0.00384107
v 0.03401376 -0.04342204 0.00368732
v 0.03552475 -0.04493182 0.00340959
v 0.03703574 -0.04644435 0.00300786
v 0.03854674 -0.04644435 0.00293016
v 0.03939544 -0.04644435 0.00287065
v 0.03939544 -0.04493182 0.00321286
v 0.03939544 -0.06217786 -0.00829994
v 0.03854674 -0.06221074 -0.00825365
v 0.03703574 -0.06225459 -0.00818752
v 0.03552475 -0.06228473 -0.00813958
v 0.03552475 -0.06276424 -0.00889674
v 0.03401376 -0.06278068 -0.00887194
v 0.03401376 -0.06353420 -0.01013001
v 0.03401376 -0.06395069 -0.01088552
v 0.03401376 -0.06491520 -0.01293712
v 0.03249786 -0.06396439 -0.01086403
v 0.03249786 -0.06446035 -0.01187413
v 0.03098687 -0.06495082 -0.01293712
v 0.03098687 -0.06447131 -0.01187413
v 0.03098687 -0.06396987 -0.01085246
v 0.02947588 -0.06355612 -0.01009199
v 0.02796489 -0.06355886 -0.01008868
v 0.02494290 -0.06355886 -0.01008703
v -0.01072240 -0.06355886 -0.01008703
v -0.01072240 -0.03978048 0.00394522
v 0.02947588 -0.04039700 0.00395018
v 0.02947588 -0.03888447 0.00393365
v 0.02947588 -0.03737469 0.00381131
v 0.03098687 -0.04039700 0.00394687
v 0.03098687 -0.04190952 0.00387248
v 0.03249786 -0.04190952 0.00385926
v 0.03249786 -0.04342204 0.00371212
v 0.03401376 -0.04493182 0.00344430
v 0.03552475 -0.04644435 0.00306076
v 0.03703574 -0.04770752 0.00264416
v 0.03854674 -0.04758148 0.00260449
v 0.03939544 -0.04749379 0.00257804
v 0.03939544 -0.06174767 -0.00770975
v 0.03854674 -0.06154491 -0.00733943
v 0.03703574 -0.06163259 -0.00733943
v 0.03552475 -0.06169561 -0.00733943
v 0.03401376 -0.06230117 -0.00811478
v 0.03295901 -0.06231213 -0.00810155
v 0.03247333 -0.06269848 -0.00870331
v 0.03249786 -0.06354790 -0.01010852
v 0.03249786 -0.06493712 -0.01293712
v 0.03132047 -0.06494808 -0.01293712
v 0.03098687 -0.06355338 -0.01009695
v 0.03098687 -0.06280260 -0.00885210
v 0.02796489 -0.06281356 -0.00885210
v -0.01072240 -0.06281356 -0.00885210
v -0.01072240 -0.04039700 0.00395018
v 0.02645389 -0.04190952 0.00388075
v 0.02947588 -0.04190952 0.00387744
v 0.02947588 -0.04342204 0.00373196
v 0.03098687 -0.04342204 0.00372535
v 0.03249786 -0.04493182 0.00346745
v 0.03401376 -0.04644435 0.00309383
v 0.03401376 -0.04786097 0.00268880
v 0.03552475 -0.04779794 0.00267061
v 0.03552475 -0.04855420 0.00243421
v 0.03703574 -0.04846378 0.00240445
v 0.03854674 -0.04833774 0.00236312
v 0.03939544 -0.04782808 0.00247223
v 0.03939544 -0.06142160 -0.00726339
v 0.03939544 -0.06107087 -0.00678727
v 0.03939544 -0.06086263 -0.00650953
v 0.03854674 -0.06089277 -0.00647316
v 0.03703574 -0.06093661 -0.00641861
v 0.03552475 -0.06096949 -0.00638059
v 0.03401376 -0.06098593 -0.00635744
v 0.03401376 -0.06172849 -0.00733943
v 0.03247333 -0.06186550 -0.00748822
v 0.03195332 -0.06231761 -0.00809163
v 0.03098687 -0.06232035 -0.00808833
v 0.02947588 -0.06232309 -0.00808337
v 0.02796489 -0.06232583 -0.00808171
v 0.02645389 -0.06232583 -0.00808006
v -0.01072240 -0.06232583 -0.00808006
v -0.01072240 -0.04190952 0.00388075
v 0.02645389 -0.04342204 0.00373526
v -0.01072240 -0.04280552 0.00379478
v 0.02947588 -0.04493182 0.00348398
v 0.03098687 -0.04493182 0.00347902
v 0.03249786 -0.04644435 0.00311532
v 0.03249786 -0.04790207 0.00270202
v 0.03401376 -0.04861723 0.00245570
v 0.03552475 -0.04946665 0.00208869
v 0.03703574 -0.04946665 0.00203248
v 0.03854674 -0.04946665 0.00194982
v 0.03939544 -0.04874875 0.00215151
v 0.03939544 -0.04825006 0.00233336
v 0.03939544 -0.06027625 -0.00583338
v 0.03854674 -0.06024337 -0.00571766
v 0.03703574 -0.06028995 -0.00566310
v 0.03552475 -0.06032557 -0.00562342
v 0.03401376 -0.06034475 -0.00560193
v 0.03249786 -0.06099963 -0.00634256
v 0.03098687 -0.06176137 -0.00733117
v 0.02796489 -0.06176685 -0.00732455
v -0.01072240 -0.06209840 -0.00777257
v 0.02796489 -0.04493182 0.00348563
v -0.01072240 -0.04342204 0.00373526
v -0.01072240 -0.04431805 0.00358813
v 0.02947588 -0.04644435 0.00313350
v 0.03098687 -0.04644435 0.00312689
v 0.03098687 -0.04792673 0.00270698
v 0.03249786 -0.04865833 0.00246727
v 0.03098687 -0.04868025 0.00247554
v 0.03401376 -0.04946665 0.00212837
v 0.03552475 -0.05097643 0.00144064
v 0.03703574 -0.05097643 0.00138774
v 0.03849277 -0.05109700 0.00125383
v 0.03939544 -0.05095177 0.00125548
v 0.03939544 -0.04946665 0.00188700
v 0.03939544 -0.05945423 -0.00489933
v 0.03854674 -0.05948985 -0.00486131
v 0.03703574 -0.05953369 -0.00481336
v 0.03552475 -0.05956931 -0.00477534
v 0.03401376 -0.05958849 -0.00475550
v 0.03249786 -0.06035845 -0.00558706
v 0.03098687 -0.06036667 -0.00557714
v 0.03098687 -0.06100511 -0.00633430
v 0.02947588 -0.06101059 -0.00632934
v 0.02796489 -0.06101059 -0.00632768
v -0.01072240 -0.06145997 -0.00691787
v -0.01072240 -0.06176685 -0.00732455
v 0.02645389 -0.04644435 0.00313681
v -0.01072240 -0.04493182 0.00348563
v 0.02947588 -0.04793769 0.00271194
v 0.02796489 -0.04794317 0.00271359
v 0.03249786 -0.04946665 0.00215151
v 0.03098687 -0.04946665 0.00216474
v 0.02947588 -0.04869395 0.00247884
v 0.03401376 -0.05097643 0.00147867
v 0.03552475 -0.05184230 0.00103065
v 0.03703574 -0.05179024 0.00100420
v 0.03795313 -0.05175461 0.00098436
v 0.03896373 -0.05168337 0.00094964
v 0.03939544 -0.05135182 0.00107033
v 0.03939544 -0.05870071 -0.00414548
v 0.03854674 -0.05873907 -0.00410745
v 0.03703574 -0.05878565 -0.00405951
v 0.03552475 -0.05882401 -0.00402149
v 0.03401376 -0.05884593 -0.00400000
v 0.03249786 -0.05886237 -0.00398512
v 0.03249786 -0.05960219 -0.00474062
v 0.03098687 -0.05961041 -0.00473236
v 0.02947588 -0.05961315 -0.00472740
v 0.02947588 -0.06036941 -0.00557383
v 0.02796489 -0.06037215 -0.00557218
v 0.02645389 -0.06037215 -0.00557052
v -0.01072240 -0.06075029 -0.00601854
v -0.01072240 -0.06101059 -0.00632768
v -0.01072240 -0.04644435 0.00313681
v 0.02796489 -0.04869943 0.00248050
v -0.01072240 -0.04794317 0.00271359
v -0.01072240 -0.04838980 0.00257638
v 0.03249786 -0.05097643 0.00149850
v 0.03098687 -0.05097643 0.00151173
v 0.02947588 -0.04946665 0.00217135
v 0.03249786 -0.05189710 0.00106041
v 0.03401376 -0.05187792 0.00104884
v 0.03401376 -0.05263418 0.00063885
v 0.03552475 -0.05259856 0.00061901
v 0.03703574 -0.05254650 0.00058925
v 0.03849277 -0.05234921 0.00061901
v 0.03939544 -0.05242867 0.00050659
v 0.03939544 -0.05164775 0.00093311
v 0.03939544 -0.05794445 -0.00340981
v 0.03854674 -0.05798281 -0.00337344
v 0.03703574 -0.05803213 -0.00333046
v 0.03552475 -0.05806775 -0.00329574
v 0.03401376 -0.05808967 -0.00327425
v 0.03249786 -0.05810611 -0.00325937
v 0.03098687 -0.05887059 -0.00397685
v 0.02947588 -0.05887333 -0.00397355
v 0.02796489 -0.05961589 -0.00472574
v -0.01072240 -0.06037215 -0.00557052
v 0.02796489 -0.04946665 0.00217300
v -0.01072240 -0.04869943 0.00248050
v -0.01072240 -0.04915428 0.00229865
v 0.03098687 -0.05191080 0.00106537
v 0.02947588 -0.05097643 0.00151669
v 0.03249786 -0.05265336 0.00065042
v 0.03098687 -0.05266432 0.00065703
v 0.03401376 -0.05392201 -0.00011666
v 0.03552475 -0.05388913 -0.00013650
v 0.03703574 -0.05383981 -0.00016791
v 0.03854674 -0.05377679 -0.00020759
v 0.03939544 -0.05372473 -0.00024065
v 0.03939544 -0.05644014 -0.00212197
v 0.03854674 -0.05710598 -0.00261793
v 0.03703574 -0.05715530 -0.00257495
v 0.03552475 -0.05719915 -0.00253858
v 0.03401376 -0.05722381 -0.00251874
v 0.03249786 -0.05724025 -0.00250386
v 0.03098687 -0.05725121 -0.00249560
v 0.03098687 -0.05811433 -0.00325276
v 0.02947588 -0.05811981 -0.00324780
v 0.02796489 -0.05887607 -0.00397189
v 0.02494290 -0.05887607 -0.00397024
v -0.01072240 -0.05961589 -0.00472574
v 0.02796489 -0.05097643 0.00151834
v -0.01072240 -0.04946665 0.00217300
v -0.01072240 -0.05036266 0.00178616
v 0.02947588 -0.05191354 0.00106867
v 0.02947588 -0.05266980 0.00066034
v 0.02796489 -0.05191628 0.00107033
v 0.03249786 -0.05394120 -0.00010509
v 0.03098687 -0.05395215 -0.00009848
v 0.03401376 -0.05467828 -0.00058947
v 0.03552475 -0.05464539 -0.00061096
v 0.03703574 -0.05459607 -0.00064237
v 0.03854674 -0.05453305 -0.00068370
v 0.03939544 -0.05405902 -0.00044895
v 0.03939544 -0.05631410 -0.00201452
v 0.03854674 -0.05634972 -0.00198476
v 0.03703574 -0.05640178 -0.00194508
v 0.03552475 -0.05644289 -0.00191037
v 0.03401376 -0.05647029 -0.00189053
v 0.03249786 -0.05648673 -0.00187730
v 0.03098687 -0.05649495 -0.00187069
v 0.02947588 -0.05725669 -0.00249229
v 0.02645389 -0.05725943 -0.00249064
v 0.02796489 -0.05811981 -0.00324614
v 0.02494290 -0.05812255 -0.00324614
v -0.01072240 -0.05887607 -0.00397024
v 0.02645389 -0.05191902 0.00107033
v -0.01072240 -0.05097643 0.00151834
v 0.02947588 -0.05395764 -0.00009517
v 0.02796489 -0.05267254 0.00066199
v 0.03249786 -0.05469746 -0.00057790
v 0.03098687 -0.05470842 -0.00056963
v 0.03401376 -0.05551126 -0.00118627
v 0.03552475 -0.05551126 -0.00122760
v 0.03249786 -0.05551126 -0.00115982
v 0.03703574 -0.05551126 -0.00129208
v 0.03854674 -0.05551126 -0.00137308
v 0.03939544 -0.05558524 -0.00149542
v 0.03939544 -0.05448099 -0.00071842
v 0.03098687 -0.05551126 -0.00114494
v 0.02947588 -0.05650043 -0.00186739
v 0.02796489 -0.05650317 -0.00186573
v 0.02645389 -0.05650317 -0.00186408
v -0.01072240 -0.05725943 -0.00249064
v -0.01072240 -0.05812255 -0.00324614
v -0.01072240 -0.05191902 0.00107033
v -0.01072240 -0.05236565 0.00082896
v 0.02947588 -0.05471390 -0.00056633
v 0.02796489 -0.05396037 -0.00009352
v -0.01072240 -0.05267254 0.00066199
v -0.01072240 -0.05343702 0.00021398
v 0.02947588 -0.05551126 -0.00113833
v 0.02796489 -0.05551126 -0.00113502
v 0.02494290 -0.05551126 -0.00113337
v -0.01072240 -0.05610038 -0.00156651
v -0.01072240 -0.05650317 -0.00186408
v 0.02796489 -0.05471664 -0.00056467
v 0.02494290 -0.05471664 -0.00056302
v -0.01072240 -0.05396037 -0.00009352
v -0.01072240 -0.05440975 -0.00037125
v -0.01072240 -0.05551126 -0.00113337
v -0.01072240 -0.05471664 -0.00056302
f 1 2 6
f 1 6 11
f 1 11 21
f 1 21 37
f 1 37 58
f 1 58 87
f 1 87 88
f 1 88 59
f 1 59 39
f 1 39 38
f 1 38 22
f 1 22 12
f 1 12 7
f 1 7 3
f 1 3 4
f 1 4 9
f 1 9 16
f 1 16 29
f 1 29 28
f 1 28 46
f 1 46 45
f 1 45 69
f 1 69 68
f 1 68 98
f 1 98 97
f 1 97 129
f 1 129 156
f 1 156 184
f 1 184 183
f 1 183 207
f 1 207 206
f 1 206 232
f 1 232 261
f 1 261 260
f 1 260 283
f 1 283 308
f 1 308 333
f 1 333 332
f 1 332 309
f 1 309 284
f 1 284 262
f 1 262 233
f 1 233 208
f 1 208 185
f 1 185 159
f 1 159 158
f 1 158 157
f 1 157 130
f 1 130 99
f 1 99 72
f 1 72 71
f 1 71 70
f 1 70 47
f 1 47 30
f 1 30 17
f 1 17 10
f 1 10 5
f 1 5 2
f 2 5 6
f 3 7 8
f 3 8 4
f 4 8 9
f 5 10 19
f 5 19 33
f 5 33 52
f 5 52 77
f 5 77 107
f 5 107 138
f 5 138 139
f 5 139 110
f 5 110 79
f 5 79 53
f 5 53 34
f 5 34 20
f 5 20 11
f 5 11 6
f 7 12 13
f 7 13 8
f 8 13 14
f 8 14 9
f 9 14 15
f 9 15 16
f 10 17 18
f 10 18 19
f 11 20 35
f 11 35 55
f 11 55 83
f 11 83 116
f 11 116 143
f 11 143 171
f 11 171 193
f 11 193 219
f 11 219 218
f 11 218 246
f 11 246 245
f 11 245 271
f 11 271 295
f 11 295 320
f 11 320 339
f 11 339 338
f 11 338 350
f 11 350 349
f 11 349 355
f 11 355 356
f 11 356 354
f 11 354 353
f 11 353 345
f 11 345 344
f 11 344 341
f 11 341 340
f 11 340 322
f 11 322 298
f 11 298 297
f 11 297 274
f 11 274 273
f 11 273 250
f 11 250 249
f 11 249 247
f 11 247 221
f 11 221 196
f 11 196 195
f 11 195 174
f 11 174 172
f 11 172 144
f 11 144 117
f 11 117 84
f 11 84 56
f 11 56 36
f 11 36 21
f 12 22 13
f 13 22 38
f 13 38 23
f 13 23 24
f 13 24 25
f 13 25 14
f 14 25 26
f 14 26 15
f 15 26 27
f 15 27 28
f 15 28 29
f 15 29 16
f 17 30 18
f 18 30 31
f 18 31 32
f 18 32 19
f 19 32 33
f 20 34 54
f 20 54 35
f 21 36 57
f 21 57 37
f 23 38 39
f 23 39 40
f 23 40 41
f 23 41 24
f 24 41 42
f 24 42 25
f 25 42 26
f 26 42 43
f 26 43 27
f 27 43 44
f 27 44 45
f 27 45 46
f 27 46 28
f 30 47 31
f 31 47 48
f 31 48 49
f 31 49 50
f 31 50 32
f 32 50 51
f 32 51 52
f 32 52 33
f 34 53 54
f 35 54 82
f 35 82 55
f 36 56 57
f 37 57 86
f 37 86 58
f 39 59 40
f 40 59 60
f 40 60 61
f 40 61 41
f 41 61 62
f 41 62 42
f 42 62 63
f 42 63 43
f 43 63 64
f 43 64 65
f 43 65 44
f 44 65 66
f 44 66 67
f 44 67 68
f 44 68 69
f 44 69 45
f 47 70 48
f 48 70 71
f 48 71 72
f 48 72 73
f 48 73 49
f 49 73 74
f 49 74 75
f 49 75 50
f 50 75 76
f 50 76 51
f 51 77 52
f 51 76 78
f 51 78 107
f 51 107 77
f 53 79 80
f 53 80 54
f 54 80 81
f 54 81 82
f 55 82 83
f 56 84 85
f 56 85 57
f 57 85 119
f 57 119 86
f 58 86 120
f 58 120 87
f 59 88 89
f 59 89 60
f 60 89 90
f 60 90 61
f 61 90 91
f 61 91 62
f 62 91 92
f 62 92 63
f 63 92 93
f 63 93 64
f 64 93 94
f 64 94 65
f 65 94 66
f 66 94 95
f 66 95 96
f 66 96 67
f 67 96 97
f 67 97 98
f 67 98 68
f 72 99 100
f 72 100 73
f 73 100 101
f 73 101 74
f 74 101 102
f 74 102 103
f 74 103 75
f 75 103 104
f 75 104 105
f 75 105 106
f 75 106 76
f 76 106 78
f 78 106 108
f 78 108 109
f 78 109 138
f 78 138 107
f 79 110 111
f 79 111 80
f 80 111 112
f 80 112 81
f 81 112 140
f 81 140 113
f 81 113 114
f 81 114 82
f 82 114 115
f 82 115 83
f 83 115 116
f 84 117 85
f 85 118 119
f 85 117 118
f 86 119 120
f 87 120 88
f 88 120 89
f 89 120 90
f 90 120 119
f 90 119 121
f 90 121 91
f 91 121 122
f 91 122 123
f 91 123 92
f 92 123 124
f 92 124 93
f 93 124 125
f 93 125 94
f 94 125 126
f 94 126 95
f 95 126 127
f 95 127 128
f 95 128 96
f 96 128 129
f 96 129 97
f 99 130 131
f 99 131 100
f 100 131 101
f 101 131 132
f 101 132 102
f 102 132 133
f 102 133 134
f 102 134 104
f 102 104 103
f 104 134 135
f 104 135 136
f 104 136 137
f 104 137 105
f 105 137 108
f 105 108 106
f 108 137 140
f 108 140 112
f 108 112 109
f 109 112 111
f 109 111 110
f 109 110 139
f 109 139 138
f 113 140 141
f 113 141 142
f 113 142 114
f 114 142 115
f 115 142 143
f 115 143 116
f 117 144 118
f 118 145 146
f 118 146 121
f 118 121 119
f 118 144 172
f 118 172 145
f 121 146 122
f 122 146 147
f 122 147 148
f 122 148 124
f 122 124 123
f 124 149 125
f 124 148 149
f 125 149 150
f 125 150 126
f 126 150 151
f 126 151 152
f 126 152 127
f 127 152 153
f 127 153 154
f 127 154 128
f 128 154 155
f 128 155 156
f 128 156 129
f 130 157 131
f 131 157 158
f 131 158 159
f 131 159 160
f 131 160 132
f 132 160 161
f 132 161 133
f 133 161 162
f 133 162 163
f 133 163 164
f 133 164 134
f 134 164 135
f 135 164 165
f 135 165 166
f 135 166 136
f 136 166 141
f 136 141 137
f 137 141 140
f 141 166 167
f 141 167 168
f 141 168 142
f 142 168 169
f 142 169 170
f 142 170 171
f 142 171 143
f 145 173 147
f 145 147 146
f 145 172 174
f 145 174 173
f 147 175 176
f 147 176 148
f 147 173 194
f 147 194 175
f 148 176 149
f 149 177 150
f 149 176 198
f 149 198 177
f 150 177 178
f 150 178 151
f 151 178 179
f 151 179 152
f 152 179 153
f 153 179 180
f 153 180 181
f 153 181 154
f 154 181 182
f 154 182 155
f 155 182 183
f 155 183 184
f 155 184 156
f 159 185 186
f 159 186 160
f 160 186 187
f 160 187 161
f 161 187 188
f 161 188 162
f 162 188 189
f 162 189 163
f 163 189 213
f 163 213 190
f 163 190 164
f 164 190 165
f 165 190 191
f 165 191 166
f 166 191 167
f 167 191 168
f 168 191 192
f 168 192 169
f 169 192 170
f 170 192 193
f 170 193 171
f 173 174 195
f 173 195 196
f 173 196 194
f 175 197 176
f 175 194 220
f 175 220 197
f 176 197 198
f 177 198 199
f 177 199 178
f 178 200 179
f 178 199 201
f 178 201 200
f 179 200 202
f 179 202 180
f 180 202 203
f 180 203 204
f 180 204 181
f 181 204 182
f 182 204 205
f 182 205 206
f 182 206 207
f 182 207 183
f 185 208 209
f 185 209 186
f 186 209 187
f 187 209 210
f 187 210 188
f 188 210 211
f 188 211 189
f 189 211 212
f 189 212 239
f 189 239 213
f 190 213 214
f 190 214 215
f 190 215 191
f 191 215 216
f 191 216 192
f 192 216 217
f 192 217 218
f 192 218 219
f 192 219 193
f 194 196 221
f 194 221 247
f 194 247 220
f 197 222 198
f 197 220 223
f 197 223 222
f 198 222 199
f 199 222 201
f 200 224 202
f 200 201 224
f 201 225 224
f 201 222 226
f 201 226 225
f 202 224 227
f 202 227 203
f 203 227 228
f 203 228 229
f 203 229 204
f 204 229 230
f 204 230 205
f 205 230 231
f 205 231 206
f 206 231 232
f 208 233 234
f 208 234 209
f 209 234 235
f 209 235 210
f 210 235 236
f 210 236 211
f 211 236 237
f 211 237 212
f 212 237 238
f 212 238 239
f 213 239 214
f 214 239 240
f 214 240 241
f 214 241 242
f 214 242 216
f 214 216 215
f 216 242 243
f 216 243 244
f 216 244 217
f 217 244 245
f 217 245 246
f 217 246 218
f 220 247 249
f 220 249 223
f 222 223 248
f 222 248 226
f 223 249 250
f 223 250 248
f 224 251 227
f 224 225 252
f 224 252 251
f 225 226 253
f 225 253 252
f 226 248 253
f 227 251 254
f 227 254 255
f 227 255 228
f 228 255 256
f 228 256 257
f 228 257 229
f 229 257 258
f 229 258 230
f 230 259 231
f 230 258 259
f 231 259 260
f 231 260 261
f 231 261 232
f 233 262 234
f 234 263 235
f 234 262 263
f 235 264 236
f 235 263 264
f 236 265 266
f 236 266 237
f 236 264 265
f 237 266 267
f 237 267 238
f 238 267 268
f 238 268 240
f 238 240 239
f 240 268 241
f 241 268 269
f 241 269 293
f 241 293 270
f 241 270 243
f 241 243 242
f 243 270 244
f 244 270 295
f 244 295 271
f 244 271 245
f 248 272 253
f 248 250 273
f 248 273 274
f 248 274 272
f 251 252 254
f 252 275 254
f 252 253 276
f 252 276 275
f 253 272 296
f 253 296 276
f 254 277 256
f 254 256 255
f 254 275 278
f 254 278 277
f 256 277 302
f 256 302 279
f 256 279 280
f 256 280 257
f 257 280 258
f 258 281 282
f 258 282 259
f 258 280 281
f 259 282 260
f 260 282 283
f 262 284 285
f 262 285 263
f 263 285 286
f 263 286 264
f 264 286 287
f 264 287 265
f 265 287 288
f 265 288 266
f 266 288 289
f 266 289 267
f 267 289 290
f 267 290 291
f 267 291 268
f 268 291 292
f 268 292 269
f 269 292 293
f 270 293 294
f 270 294 320
f 270 320 295
f 272 274 297
f 272 297 298
f 272 298 296
f 275 276 299
f 275 299 300
f 275 300 278
f 276 296 301
f 276 301 299
f 277 278 303
f 277 303 302
f 278 300 323
f 278 323 303
f 279 304 280
f 279 302 325
f 279 325 304
f 280 304 305
f 280 305 306
f 280 306 281
f 281 306 282
f 282 306 307
f 282 307 308
f 282 308 283
f 284 309 285
f 285 310 286
f 285 309 310
f 286 311 287
f 286 310 311
f 287 312 313
f 287 313 288
f 287 311 312
f 288 313 289
f 289 313 314
f 289 314 290
f 290 314 315
f 290 315 335
f 290 335 316
f 290 316 292
f 290 292 291
f 292 316 317
f 292 317 318
f 292 318 293
f 293 318 319
f 293 319 294
f 294 319 339
f 294 339 320
f 296 321 301
f 296 298 322
f 296 322 340
f 296 340 321
f 299 301 324
f 299 324 300
f 300 324 343
f 300 343 323
f 301 321 324
f 302 303 326
f 302 326 325
f 303 323 342
f 303 342 326
f 304 327 328
f 304 328 305
f 304 325 329
f 304 329 327
f 305 328 330
f 305 330 306
f 306 330 331
f 306 331 307
f 307 331 332
f 307 332 333
f 307 333 308
f 309 332 331
f 309 331 310
f 310 331 330
f 310 330 311
f 311 330 312
f 312 328 327
f 312 327 313
f 312 330 328
f 313 327 329
f 313 329 314
f 314 329 334
f 314 334 315
f 315 334 335
f 316 335 336
f 316 336 317
f 317 319 318
f 317 336 337
f 317 337 350
f 317 350 338
f 317 338 339
f 317 339 319
f 321 340 341
f 321 341 324
f 323 343 351
f 323 351 342
f 324 341 344
f 324 344 345
f 324 345 343
f 325 326 329
f 326 334 329
f 326 342 334
f 334 342 346
f 334 346 335
f 335 346 336
f 336 347 337
f 336 346 347
f 337 347 348
f 337 348 349
f 337 349 350
f 342 351 346
f 343 352 351
f 343 345 353
f 343 353 354
f 343 354 352
f 346 351 347
f 347 351 352
f 347 352 348
f 348 352 356
f 348 356 355
f 348 355 349
f 352 354 356

