mtllib material.mtl
usemtl Material.004
v -0.01500000 -0.01312500 -0.01250000
v -0.01500000 -0.01312500 -0.01250000
v -0.01500000 0.01312500 -0.01250000
v -0.01500000 0.01312500 -0.01250000
v -0.01500000 -0.01312500 0.01375000
v -0.01500000 -0.01312500 0.01375000
v -0.01500000 0.01312500 0.01375000
v -0.01500000 0.01312500 0.01375000
v -0.01375000 -0.01312500 -0.01250000
v -0.01375000 -0.01312500 -0.01250000
v -0.01375000 -0.01312500 -0.01250000
v -0.01375000 -0.01312500 0.01375000
v -0.01375000 -0.01312500 0.01375000
v -0.01375000 -0.01312500 0.01375000
v -0.01375000 0.01312500 0.01375000
v -0.01375000 0.01312500 0.01375000
v -0.01375000 0.01312500 0.01375000
v -0.01375000 0.01312500 -0.01250000
v -0.01375000 0.01312500 -0.01250000
v -0.01375000 0.01312500 -0.01250000
vn -0.00000000 1.00000000 -0.00000000
vn -0.00000000 -0.00000000 1.00000000
vn -0.00000000 -0.00000000 1.00000000
vn -0.00000000 -1.00000000 -0.00000000
vn -0.00000000 1.00000000 -0.00000000
vn -0.00000000 -0.00000000 -1.00000000
vn -0.00000000 -1.00000000 -0.00000000
vn -0.00000000 -0.00000000 -1.00000000
vn -0.00000000 1.00000000 -0.00000000
vn -0.00000000 -0.00000000 1.00000000
vn -1.00000000 -0.00000000 -0.00000000
vn -0.00000000 1.00000000 -0.00000000
vn -1.00000000 -0.00000000 -0.00000000
vn -0.00000000 -0.00000000 -1.00000000
vn -0.00000000 -0.00000000 -1.00000000
vn -1.00000000 -0.00000000 -0.00000000
vn -0.00000000 -1.00000000 -0.00000000
vn -0.00000000 -1.00000000 -0.00000000
vn -0.00000000 -0.00000000 1.00000000
vn -1.00000000 -0.00000000 -0.00000000
vt 1.00163300 0.99717000
vt 1.00163300 0.99717000
vt 0.99727200 0.00328800
vt 0.99727200 0.00328800
vt 0.00747700 0.99917200
vt 0.00747700 0.99917200
vt 0.00065500 0.00036900
vt 0.00065500 0.00036900
vt 1.00324900 0.99726700
vt 1.00324900 0.99726700
vt 1.00324900 0.99726700
vt 0.00535300 1.00272900
vt 0.00535300 1.00272900
vt 0.00535300 1.00272900
vt 0.00150000 0.00027300
vt 0.00150000 0.00027300
vt 0.00150000 0.00027300
vt 1.00185700 -0.00026800
vt 1.00185700 -0.00026800
vt 1.00185700 -0.00026800
f 1/1/1 5/5/5 9/9/9
f 9/9/9 5/5/5 12/12/12
f 6/6/6 8/8/8 14/14/14
f 14/14/14 8/8/8 15/15/15
f 7/7/7 4/4/4 17/17/17
f 17/17/17 4/4/4 18/18/18
f 3/3/3 2/2/2 19/19/19
f 19/19/19 2/2/2 10/10/10
f 20/20/20 11/11/11 16/16/16
f 16/16/16 11/11/11 13/13/13

