mtllib material.mtl
usemtl Material.001
v -0.01312500 -0.01312500 0.01562500
v -0.01312500 -0.01312500 0.01562500
v -0.01312500 0.01312500 0.01562500
v -0.01312500 0.01312500 0.01562500
v 0.01312500 -0.01312500 0.01562500
v 0.01312500 -0.01312500 0.01562500
v 0.01312500 0.01312500 0.01562500
v 0.01312500 0.01312500 0.01562500
v -0.01312500 0.01312500 0.01437500
v -0.01312500 0.01312500 0.01437500
v -0.01312500 0.01312500 0.01437500
v -0.01312500 -0.01312500 0.01437500
v -0.01312500 -0.01312500 0.01437500
v -0.01312500 -0.01312500 0.01437500
v 0.01312500 -0.01312500 0.01437500
v 0.01312500 -0.01312500 0.01437500
v 0.01312500 -0.01312500 0.01437500
v 0.01312500 0.01312500 0.01437500
v 0.01312500 0.01312500 0.01437500
v 0.01312500 0.01312500 0.01437500
vn 1.00000000 -0.00000000 -0.00000000
vn -0.00000000 1.00000000 -0.00000000
vn 1.00000000 -0.00000000 -0.00000000
vn -0.00000000 -1.00000000 -0.00000000
vn -0.00000000 1.00000000 -0.00000000
vn -1.00000000 -0.00000000 -0.00000000
vn -0.00000000 -1.00000000 -0.00000000
vn -1.00000000 -0.00000000 -0.00000000
vn 1.00000000 -0.00000000 -0.00000000
vn -0.00000000 -1.00000000 -0.00000000
vn -0.00000000 -0.00000000 1.00000000
vn -0.00000000 1.00000000 -0.00000000
vn 1.00000000 -0.00000000 -0.00000000
vn -0.00000000 -0.00000000 1.00000000
vn -0.00000000 -0.00000000 1.00000000
vn -1.00000000 -0.00000000 -0.00000000
vn -0.00000000 1.00000000 -0.00000000
vn -1.00000000 -0.00000000 -0.00000000
vn -0.00000000 -1.00000000 -0.00000000
vn -0.00000000 -0.00000000 1.00000000
vt 0.99743500 0.99622200
vt 0.99743500 0.99622200
vt 1.00009400 0.00204800
vt 1.00009400 0.00204800
vt 0.00329400 0.99795200
vt 0.00329400 0.99795200
vt 0.00204800 0.00573100
vt 0.00204800 0.00573100
vt 1.00327900 0.00107000
vt 1.00327900 0.00107000
vt 1.00327900 0.00107000
vt 0.99890700 1.00186500
vt 0.99890700 1.00186500
vt 0.99890700 1.00186500
vt 0.00596800 0.99697700
vt 0.00596800 0.99697700
vt 0.00596800 0.99697700
vt 0.00448100 0.00399400
vt 0.00448100 0.00399400
vt 0.00448100 0.00399400
f 3/3/3 1/1/1 9/9/9
f 9/9/9 1/1/1 13/13/13
f 2/2/2 5/5/5 12/12/12
f 12/12/12 5/5/5 17/17/17
f 6/6/6 8/8/8 16/16/16
f 16/16/16 8/8/8 18/18/18
f 7/7/7 4/4/4 19/19/19
f 19/19/19 4/4/4 10/10/10
f 11/11/11 14/14/14 20/20/20
f 20/20/20 14/14/14 15/15/15

