mtllib material.mtl
usemtl Material.003
v 0.01312500 0.01312500 -0.01437500
v 0.01312500 0.01312500 -0.01437500
v -0.01312500 0.01312500 -0.01437500
v -0.01312500 0.01312500 -0.01437500
v 0.01312500 -0.01312500 -0.01437500
v 0.01312500 -0.01312500 -0.01437500
v -0.01312500 -0.01312500 -0.01437500
v -0.01312500 -0.01312500 -0.01437500
v 0.01312500 0.01312500 -0.01312500
v 0.01312500 0.01312500 -0.01312500
v 0.01312500 0.01312500 -0.01312500
v 0.01312500 -0.01312500 -0.01312500
v 0.01312500 -0.01312500 -0.01312500
v 0.01312500 -0.01312500 -0.01312500
v -0.01312500 -0.01312500 -0.01312500
v -0.01312500 -0.01312500 -0.01312500
v -0.01312500 -0.01312500 -0.01312500
v -0.01312500 0.01312500 -0.01312500
v -0.01312500 0.01312500 -0.01312500
v -0.01312500 0.01312500 -0.01312500
vn -1.00000000 -0.00000000 -0.00000000
vn -0.00000000 -1.00000000 -0.00000000
vn -0.00000000 -1.00000000 -0.00000000
vn 1.00000000 -0.00000000 -0.00000000
vn -1.00000000 -0.00000000 -0.00000000
vn -0.00000000 1.00000000 -0.00000000
vn 1.00000000 -0.00000000 -0.00000000
vn -0.00000000 1.00000000 -0.00000000
vn -1.00000000 -0.00000000 -0.00000000
vn -0.00000000 -1.00000000 -0.00000000
vn -0.00000000 -0.00000000 -1.00000000
vn -1.00000000 -0.00000000 -0.00000000
vn -0.00000000 -0.00000000 -1.00000000
vn -0.00000000 1.00000000 -0.00000000
vn -0.00000000 1.00000000 -0.00000000
vn -0.00000000 -0.00000000 -1.00000000
vn 1.00000000 -0.00000000 -0.00000000
vn 1.00000000 -0.00000000 -0.00000000
vn -0.00000000 -1.00000000 -0.00000000
vn -0.00000000 -0.00000000 -1.00000000
vt 0.99727200 -0.00163300
vt 0.99727200 -0.00163300
vt 0.00065500 -0.00209200
vt 0.00065500 -0.00209200
vt 0.99671200 0.99224800
vt 0.99671200 0.99224800
vt 0.00255500 0.99425100
vt 0.00255500 0.99425100
vt 0.99447400 -0.00026800
vt 0.99447400 -0.00026800
vt 0.99447400 -0.00026800
vt 0.99832700 0.99480600
vt 0.99832700 0.99480600
vt 0.99832700 0.99480600
vt 0.00289200 0.99780700
vt 0.00289200 0.99780700
vt 0.00289200 0.99780700
vt 0.00396000 0.00027300
vt 0.00396000 0.00027300
vt 0.00396000 0.00027300
f 1/1/1 5/5/5 9/9/9
f 9/9/9 5/5/5 12/12/12
f 6/6/6 8/8/8 14/14/14
f 14/14/14 8/8/8 15/15/15
f 7/7/7 4/4/4 17/17/17
f 17/17/17 4/4/4 18/18/18
f 3/3/3 2/2/2 19/19/19
f 19/19/19 2/2/2 10/10/10
f 11/11/11 13/13/13 20/20/20
f 20/20/20 13/13/13 16/16/16

